<?xml version="1.0" standalone="no"?>
 <!DOCTYPE svg PUBLIC "-//W3C//DTD SVG 1.1//EN" 
 "http://www.w3.org/Graphics/SVG/1.1/DTD/svg11.dtd"> 
<svg
  xmlns:svg="http://www.w3.org/2000/svg"
  xmlns="http://www.w3.org/2000/svg"
  xmlns:xlink="http://www.w3.org/1999/xlink"
  version="1.1"
  width="25.5270mm" height="26.3906mm" viewBox="0.0000 0.0000 25.5270 26.3906">
<title>SVG Image created as _autosave-working-brd.svg date 2023/09/19 22:18:26 </title>
  <desc>Image generated by PCBNEW </desc>
<g style="fill:#000000; fill-opacity:1.0000;stroke:#000000; stroke-opacity:1.0000;
stroke-linecap:round; stroke-linejoin:round;"
 transform="translate(0 0) scale(1 1)">
</g>
<g style="fill:#000000; fill-opacity:0.0; 
stroke:#000000; stroke-width:0.0000; stroke-opacity:1; 
stroke-linecap:round; stroke-linejoin:round;">
</g>
<g style="fill:#000000; fill-opacity:1.0000; 
stroke:#000000; stroke-width:0.0212; stroke-opacity:1; 
stroke-linecap:round; stroke-linejoin:round;">
<rect x="-5.000000" y="-5.000000" width="35.550000" height="36.412980" rx="0.000000" />
</g>
<g style="fill:#FFFFFF; fill-opacity:1.0000; 
stroke:#FFFFFF; stroke-width:0.0212; stroke-opacity:1; 
stroke-linecap:round; stroke-linejoin:round;">
<g >
</g>
<g >
</g>
<g >
</g>
<g >
</g>
<g style="fill:#B2803A; fill-opacity:1.0000; 
stroke:#B2803A; stroke-width:0.0212; stroke-opacity:1; 
stroke-linecap:round; stroke-linejoin:round;">
</g>
<g style="fill:#B2803A; fill-opacity:1.0000; 
stroke:#B2803A; stroke-width:0.0000; stroke-opacity:1; 
stroke-linecap:round; stroke-linejoin:round;">
<circle cx="23.8240" cy="6.0180" r="0.6985" /> 
</g>
<g style="fill:#B2803A; fill-opacity:1.0000; 
stroke:#B2803A; stroke-width:0.0212; stroke-opacity:1; 
stroke-linecap:round; stroke-linejoin:round;">
</g>
<g style="fill:#B2803A; fill-opacity:1.0000; 
stroke:#B2803A; stroke-width:0.0000; stroke-opacity:1; 
stroke-linecap:round; stroke-linejoin:round;">
<circle cx="23.8240" cy="3.4780" r="0.6985" /> 
</g>
<g style="fill:#B2803A; fill-opacity:1.0000; 
stroke:#B2803A; stroke-width:0.0212; stroke-opacity:1; 
stroke-linecap:round; stroke-linejoin:round;">
</g>
<g >
</g>
<g >
</g>
<g >
</g>
<g style="fill:#B2803A; fill-opacity:1.0000; 
stroke:#B2803A; stroke-width:0.0212; stroke-opacity:1; 
stroke-linecap:round; stroke-linejoin:round;">
</g>
<g style="fill:#B2803A; fill-opacity:1.0000; 
stroke:#B2803A; stroke-width:0.0000; stroke-opacity:1; 
stroke-linecap:round; stroke-linejoin:round;">
<circle cx="23.5700" cy="10.8440" r="1.0160" /> 
<circle cx="1.9800" cy="10.8440" r="1.0160" /> 
</g>
<g style="fill:#B2803A; fill-opacity:1.0000; 
stroke:#B2803A; stroke-width:0.0212; stroke-opacity:1; 
stroke-linecap:round; stroke-linejoin:round;">
</g>
<g style="fill:#B2803A; fill-opacity:1.0000; 
stroke:#B2803A; stroke-width:0.0000; stroke-opacity:1; 
stroke-linecap:round; stroke-linejoin:round;">
<path style="fill:#B2803A; fill-opacity:1.0000; 
stroke:#B2803A; stroke-width:0.0000; stroke-opacity:1; 
stroke-linecap:round; stroke-linejoin:round;fill-rule:evenodd;"
d="M 14.8070,8.8120
14.8070,12.8760
10.7430,12.8760
10.7430,8.8120
Z" /> 
</g>
<g >
</g>
<g style="fill:#121212; fill-opacity:1.0000; 
stroke:#121212; stroke-width:0.0000; stroke-opacity:1; 
stroke-linecap:round; stroke-linejoin:round;">
<circle cx="7.1870" cy="11.3520" r="0.4445" /> 
</g>
<g style="fill:#121212; fill-opacity:1.0000; 
stroke:#121212; stroke-width:0.0212; stroke-opacity:1; 
stroke-linecap:round; stroke-linejoin:round;">
</g>
<g style="fill:#121212; fill-opacity:1.0000; 
stroke:#121212; stroke-width:0.0000; stroke-opacity:1; 
stroke-linecap:round; stroke-linejoin:round;">
<circle cx="18.6170" cy="21.5120" r="0.4445" /> 
</g>
<g style="fill:#121212; fill-opacity:1.0000; 
stroke:#121212; stroke-width:0.0212; stroke-opacity:1; 
stroke-linecap:round; stroke-linejoin:round;">
</g>
<g >
</g>
<g >
</g>
<g style="fill:#B2803A; fill-opacity:1.0000; 
stroke:#B2803A; stroke-width:0.0212; stroke-opacity:1; 
stroke-linecap:round; stroke-linejoin:round;">
<g >
</g>
<g style="fill:#B2803A; fill-opacity:1.0000; 
stroke:#B2803A; stroke-width:0.0000; stroke-opacity:1; 
stroke-linecap:round; stroke-linejoin:round;">
<path style="fill:#B2803A; fill-opacity:1.0000; 
stroke:#B2803A; stroke-width:0.0000; stroke-opacity:1; 
stroke-linecap:round; stroke-linejoin:round;fill-rule:evenodd;"
d="M 24.7147,1.4453
24.7827,1.4657
24.8289,1.5196
24.8400,1.5713
24.8400,2.4828
24.8200,2.5510
24.7663,2.5974
24.6961,2.6076
24.6315,2.5781
24.6249,2.5719
24.6028,2.5498
24.6028,2.5498
24.4298,2.4287
24.2384,2.3394
24.2384,2.3394
24.1437,2.3141
24.0344,2.2848
23.8240,2.2664
23.8240,2.2664
23.7188,2.2756
23.6136,2.2848
23.5589,2.2994
23.4096,2.3394
23.4096,2.3394
23.2182,2.4287
23.0452,2.5498
23.0452,2.5498
22.8959,2.6992
22.8958,2.6992
22.7747,2.8722
22.6855,3.0636
22.6855,3.0636
22.6454,3.2129
22.6308,3.2676
22.6124,3.4780
22.6308,3.6884
22.6855,3.8924
22.7747,4.0838
22.8959,4.2568
23.0452,4.4061
23.2182,4.5273
23.4096,4.6165
23.4460,4.6263
23.5066,4.6632
23.5376,4.7271
23.5292,4.7976
23.4840,4.8523
23.4460,4.8697
23.4375,4.8720
23.4096,4.8794
23.4096,4.8794
23.2182,4.9687
23.0452,5.0898
23.0452,5.0898
22.8959,5.2392
22.8958,5.2392
22.7747,5.4122
22.6855,5.6036
22.6855,5.6036
22.6454,5.7529
22.6308,5.8076
22.6124,6.0180
22.6308,6.2284
22.6855,6.4324
22.7747,6.6238
22.8959,6.7968
23.0452,6.9461
23.2182,7.0673
23.4096,7.1565
23.6136,7.2112
23.8240,7.2296
24.0344,7.2112
24.2384,7.1565
24.4298,7.0673
24.6028,6.9461
24.6249,6.9240
24.6872,6.8900
24.7580,6.8951
24.8149,6.9376
24.8397,7.0041
24.8400,7.0131
24.8400,9.6505
24.8200,9.7186
24.7663,9.7651
24.6961,9.7752
24.6322,9.7463
24.5200,9.6505
24.4688,9.6068
24.2642,9.4814
24.0426,9.3896
24.0426,9.3896
23.8829,9.3513
23.8092,9.3336
23.5700,9.3148
23.3308,9.3336
23.0974,9.3896
22.8758,9.4814
22.6712,9.6068
22.4887,9.7627
22.3328,9.9451
22.2075,10.1497
22.1156,10.3714
22.0596,10.6048
22.0408,10.8440
22.0596,11.0832
22.1156,11.3165
22.1156,11.3165
22.2075,11.5382
22.3328,11.7428
22.4887,11.9253
22.6712,12.0811
22.8758,12.2065
23.0974,12.2983
23.3308,12.3544
23.5700,12.3732
23.8092,12.3544
24.0426,12.2983
24.2642,12.2065
24.4688,12.0811
24.6322,11.9417
24.6970,11.9126
24.7672,11.9232
24.8205,11.9701
24.8400,12.0375
24.8400,25.7115
24.8200,25.7796
24.7663,25.8261
24.7140,25.8375
0.7015,25.8375
0.6334,25.8175
0.5869,25.7638
0.5755,25.7115
0.5755,11.8884
0.5955,11.8203
0.6492,11.7738
0.7194,11.7637
0.7840,11.7932
0.7973,11.8066
0.8987,11.9253
1.0812,12.0811
1.2858,12.2065
1.5074,12.2983
1.7408,12.3544
1.9800,12.3732
2.2192,12.3544
2.4526,12.2983
2.6742,12.2065
2.8788,12.0811
3.0613,11.9253
3.2172,11.7428
3.3425,11.5382
3.4344,11.3165
3.4868,11.0980
10.2350,11.0980
10.2350,12.9246
10.2415,12.9851
10.2926,13.1219
10.2926,13.1219
10.3801,13.2389
10.4970,13.3264
10.6339,13.3775
10.6944,13.3840
10.6944,13.3840
12.5210,13.3840
12.5210,11.0980
13.0290,11.0980
13.0290,13.3840
14.8556,13.3840
14.8556,13.3840
14.9161,13.3775
15.0530,13.3264
15.0530,13.3264
15.1699,13.2389
15.2574,13.1219
15.2574,13.1219
15.3085,12.9851
15.3150,12.9246
15.3150,12.9246
15.3150,11.0980
13.0290,11.0980
12.5210,11.0980
10.2350,11.0980
3.4868,11.0980
3.4904,11.0832
3.5092,10.8440
3.4904,10.6048
3.4868,10.5900
10.2350,10.5900
12.5210,10.5900
12.5210,8.3040
13.0290,8.3040
13.0290,10.5900
15.3150,10.5900
15.3150,8.7634
15.3150,8.7634
15.3085,8.7029
15.2574,8.5660
15.2574,8.5660
15.1699,8.4491
15.0530,8.3615
14.9161,8.3105
14.8556,8.3040
13.0290,8.3040
12.5210,8.3040
10.6944,8.3040
10.6339,8.3105
10.4970,8.3615
10.4970,8.3615
10.3801,8.4491
10.2926,8.5660
10.2926,8.5660
10.2415,8.7029
10.2350,8.7634
10.2350,10.5900
3.4868,10.5900
3.4344,10.3714
3.3425,10.1497
3.2172,9.9451
3.0613,9.7627
2.8788,9.6068
2.6742,9.4814
2.4526,9.3896
2.4526,9.3896
2.2929,9.3513
2.2192,9.3336
1.9800,9.3148
1.9800,9.3148
1.7408,9.3336
1.5074,9.3896
1.2858,9.4814
1.0812,9.6068
0.8987,9.7627
0.7973,9.8814
0.7379,9.9202
0.6669,9.9207
0.6069,9.8827
0.5769,9.8183
0.5755,9.7995
0.5755,1.5645
0.5955,1.4964
0.6492,1.4499
0.7015,1.4385
23.4000,1.4385
Z" /> 
</g>
</g>
</g>
<g style="fill:#000000; fill-opacity:1.0000; 
stroke:#000000; stroke-width:0.0000; stroke-opacity:1; 
stroke-linecap:round; stroke-linejoin:round;">
<circle cx="7.1870" cy="11.3520" r="0.3175" /> 
</g>
<g style="fill:#000000; fill-opacity:1.0000; 
stroke:#000000; stroke-width:0.0212; stroke-opacity:1; 
stroke-linecap:round; stroke-linejoin:round;">
</g>
<g style="fill:#000000; fill-opacity:1.0000; 
stroke:#000000; stroke-width:0.0000; stroke-opacity:1; 
stroke-linecap:round; stroke-linejoin:round;">
<circle cx="18.6170" cy="21.5120" r="0.3175" /> 
</g>
<g style="fill:#000000; fill-opacity:1.0000; 
stroke:#000000; stroke-width:0.0212; stroke-opacity:1; 
stroke-linecap:round; stroke-linejoin:round;">
</g>
<g style="fill:#000000; fill-opacity:1.0000; 
stroke:#000000; stroke-width:0.0000; stroke-opacity:1; 
stroke-linecap:round; stroke-linejoin:round;">
<circle cx="23.8240" cy="6.0180" r="0.4064" /> 
</g>
<g style="fill:#000000; fill-opacity:1.0000; 
stroke:#000000; stroke-width:0.0212; stroke-opacity:1; 
stroke-linecap:round; stroke-linejoin:round;">
</g>
<g style="fill:#000000; fill-opacity:1.0000; 
stroke:#000000; stroke-width:0.0000; stroke-opacity:1; 
stroke-linecap:round; stroke-linejoin:round;">
<circle cx="23.8240" cy="3.4780" r="0.4064" /> 
</g>
<g style="fill:#000000; fill-opacity:1.0000; 
stroke:#000000; stroke-width:0.0212; stroke-opacity:1; 
stroke-linecap:round; stroke-linejoin:round;">
</g>
<g style="fill:#000000; fill-opacity:1.0000; 
stroke:#000000; stroke-width:0.0000; stroke-opacity:1; 
stroke-linecap:round; stroke-linejoin:round;">
<circle cx="23.5700" cy="10.8440" r="0.7112" /> 
</g>
<g style="fill:#000000; fill-opacity:1.0000; 
stroke:#000000; stroke-width:0.0212; stroke-opacity:1; 
stroke-linecap:round; stroke-linejoin:round;">
</g>
<g style="fill:#000000; fill-opacity:1.0000; 
stroke:#000000; stroke-width:0.0000; stroke-opacity:1; 
stroke-linecap:round; stroke-linejoin:round;">
<circle cx="1.9800" cy="10.8440" r="0.7112" /> 
</g>
<g style="fill:#000000; fill-opacity:1.0000; 
stroke:#000000; stroke-width:0.0212; stroke-opacity:1; 
stroke-linecap:round; stroke-linejoin:round;">
</g>
<g style="fill:#FFFFFF; fill-opacity:1.0000; 
stroke:#FFFFFF; stroke-width:0.0212; stroke-opacity:1; 
stroke-linecap:round; stroke-linejoin:round;">
<g >
</g>
<g style="fill:#37CBCB; fill-opacity:1.0000; 
stroke:#37CBCB; stroke-width:0.0212; stroke-opacity:1; 
stroke-linecap:round; stroke-linejoin:round;">
</g>
<g style="fill:#37CBCB; fill-opacity:1.0000; 
stroke:#37CBCB; stroke-width:0.0000; stroke-opacity:1; 
stroke-linecap:round; stroke-linejoin:round;">
<path style="fill:#37CBCB; fill-opacity:1.0000; 
stroke:#37CBCB; stroke-width:0.0000; stroke-opacity:1; 
stroke-linecap:round; stroke-linejoin:round;fill-rule:evenodd;"
d="M 8.9015,11.6060
10.0445,11.6060
10.0445,12.1140
8.9015,12.1140
Z" /> 
<path style="fill:#37CBCB; fill-opacity:1.0000; 
stroke:#37CBCB; stroke-width:0.0000; stroke-opacity:1; 
stroke-linecap:round; stroke-linejoin:round;fill-rule:evenodd;"
d="M 8.9015,12.8760
10.0445,12.8760
10.0445,13.3840
8.9015,13.3840
Z" /> 
<path style="fill:#37CBCB; fill-opacity:1.0000; 
stroke:#37CBCB; stroke-width:0.0000; stroke-opacity:1; 
stroke-linecap:round; stroke-linejoin:round;fill-rule:evenodd;"
d="M 8.9015,14.1460
10.0445,14.1460
10.0445,14.6540
8.9015,14.6540
Z" /> 
<path style="fill:#37CBCB; fill-opacity:1.0000; 
stroke:#37CBCB; stroke-width:0.0000; stroke-opacity:1; 
stroke-linecap:round; stroke-linejoin:round;fill-rule:evenodd;"
d="M 8.9015,15.4160
10.0445,15.4160
10.0445,15.9240
8.9015,15.9240
Z" /> 
<path style="fill:#37CBCB; fill-opacity:1.0000; 
stroke:#37CBCB; stroke-width:0.0000; stroke-opacity:1; 
stroke-linecap:round; stroke-linejoin:round;fill-rule:evenodd;"
d="M 15.2515,15.4160
16.3945,15.4160
16.3945,15.9240
15.2515,15.9240
Z" /> 
<path style="fill:#37CBCB; fill-opacity:1.0000; 
stroke:#37CBCB; stroke-width:0.0000; stroke-opacity:1; 
stroke-linecap:round; stroke-linejoin:round;fill-rule:evenodd;"
d="M 15.2515,14.1460
16.3945,14.1460
16.3945,14.6540
15.2515,14.6540
Z" /> 
<path style="fill:#37CBCB; fill-opacity:1.0000; 
stroke:#37CBCB; stroke-width:0.0000; stroke-opacity:1; 
stroke-linecap:round; stroke-linejoin:round;fill-rule:evenodd;"
d="M 15.2515,12.8760
16.3945,12.8760
16.3945,13.3840
15.2515,13.3840
Z" /> 
<path style="fill:#37CBCB; fill-opacity:1.0000; 
stroke:#37CBCB; stroke-width:0.0000; stroke-opacity:1; 
stroke-linecap:round; stroke-linejoin:round;fill-rule:evenodd;"
d="M 15.2515,11.6060
16.3945,11.6060
16.3945,12.1140
15.2515,12.1140
Z" /> 
</g>
<g >
</g>
<g style="fill:#37CBCB; fill-opacity:1.0000; 
stroke:#37CBCB; stroke-width:0.0000; stroke-opacity:1; 
stroke-linecap:round; stroke-linejoin:round;">
<path style="fill:#37CBCB; fill-opacity:1.0000; 
stroke:#37CBCB; stroke-width:0.0000; stroke-opacity:1; 
stroke-linecap:round; stroke-linejoin:round;fill-rule:evenodd;"
d="M 15.4420,7.0340
15.4420,9.0660
13.9180,9.0660
13.9180,7.0340
Z" /> 
<path style="fill:#37CBCB; fill-opacity:1.0000; 
stroke:#37CBCB; stroke-width:0.0000; stroke-opacity:1; 
stroke-linecap:round; stroke-linejoin:round;fill-rule:evenodd;"
d="M 12.1400,7.0340
12.1400,9.0660
10.6160,9.0660
10.6160,7.0340
Z" /> 
</g>
<g >
</g>
<g style="fill:#37CBCB; fill-opacity:1.0000; 
stroke:#37CBCB; stroke-width:0.0000; stroke-opacity:1; 
stroke-linecap:round; stroke-linejoin:round;">
<path style="fill:#37CBCB; fill-opacity:1.0000; 
stroke:#37CBCB; stroke-width:0.0000; stroke-opacity:1; 
stroke-linecap:round; stroke-linejoin:round;fill-rule:evenodd;"
d="M 4.6470,15.7970
6.6790,15.7970
6.6790,17.3210
4.6470,17.3210
Z" /> 
<path style="fill:#37CBCB; fill-opacity:1.0000; 
stroke:#37CBCB; stroke-width:0.0000; stroke-opacity:1; 
stroke-linecap:round; stroke-linejoin:round;fill-rule:evenodd;"
d="M 4.6470,19.0990
6.6790,19.0990
6.6790,20.6230
4.6470,20.6230
Z" /> 
</g>
<g >
</g>
<g style="fill:#37CBCB; fill-opacity:1.0000; 
stroke:#37CBCB; stroke-width:0.0000; stroke-opacity:1; 
stroke-linecap:round; stroke-linejoin:round;">
<circle cx="23.8240" cy="6.0180" r="0.6985" /> 
</g>
<g style="fill:#37CBCB; fill-opacity:1.0000; 
stroke:#37CBCB; stroke-width:0.0212; stroke-opacity:1; 
stroke-linecap:round; stroke-linejoin:round;">
</g>
<g style="fill:#37CBCB; fill-opacity:1.0000; 
stroke:#37CBCB; stroke-width:0.0000; stroke-opacity:1; 
stroke-linecap:round; stroke-linejoin:round;">
<circle cx="23.8240" cy="3.4780" r="0.6985" /> 
</g>
<g style="fill:#37CBCB; fill-opacity:1.0000; 
stroke:#37CBCB; stroke-width:0.0212; stroke-opacity:1; 
stroke-linecap:round; stroke-linejoin:round;">
</g>
<g >
</g>
<g style="fill:#37CBCB; fill-opacity:1.0000; 
stroke:#37CBCB; stroke-width:0.0212; stroke-opacity:1; 
stroke-linecap:round; stroke-linejoin:round;">
</g>
<g style="fill:#37CBCB; fill-opacity:1.0000; 
stroke:#37CBCB; stroke-width:0.0000; stroke-opacity:1; 
stroke-linecap:round; stroke-linejoin:round;">
<path style="fill:#37CBCB; fill-opacity:1.0000; 
stroke:#37CBCB; stroke-width:0.0000; stroke-opacity:1; 
stroke-linecap:round; stroke-linejoin:round;fill-rule:evenodd;"
d="M 10.3023,24.5714
10.3023,22.7706
11.9000,22.7706
11.9000,24.5714
Z" /> 
<path style="fill:#37CBCB; fill-opacity:1.0000; 
stroke:#37CBCB; stroke-width:0.0000; stroke-opacity:1; 
stroke-linecap:round; stroke-linejoin:round;fill-rule:evenodd;"
d="M 13.1420,24.5714
13.1420,22.7706
14.7397,22.7706
14.7397,24.5714
Z" /> 
</g>
<g >
</g>
<g style="fill:#37CBCB; fill-opacity:1.0000; 
stroke:#37CBCB; stroke-width:0.0000; stroke-opacity:1; 
stroke-linecap:round; stroke-linejoin:round;">
<path style="fill:#37CBCB; fill-opacity:1.0000; 
stroke:#37CBCB; stroke-width:0.0000; stroke-opacity:1; 
stroke-linecap:round; stroke-linejoin:round;fill-rule:evenodd;"
d="M 12.1400,19.8610
12.1400,17.8290
13.6640,17.8290
13.6640,19.8610
Z" /> 
<path style="fill:#37CBCB; fill-opacity:1.0000; 
stroke:#37CBCB; stroke-width:0.0000; stroke-opacity:1; 
stroke-linecap:round; stroke-linejoin:round;fill-rule:evenodd;"
d="M 15.4420,19.8610
15.4420,17.8290
16.9660,17.8290
16.9660,19.8610
Z" /> 
</g>
<g >
</g>
<g style="fill:#37CBCB; fill-opacity:1.0000; 
stroke:#37CBCB; stroke-width:0.0000; stroke-opacity:1; 
stroke-linecap:round; stroke-linejoin:round;">
<circle cx="23.5700" cy="10.8440" r="1.0160" /> 
<circle cx="1.9800" cy="10.8440" r="1.0160" /> 
</g>
<g style="fill:#37CBCB; fill-opacity:1.0000; 
stroke:#37CBCB; stroke-width:0.0212; stroke-opacity:1; 
stroke-linecap:round; stroke-linejoin:round;">
</g>
<g >
</g>
<g style="fill:#121212; fill-opacity:1.0000; 
stroke:#121212; stroke-width:0.0212; stroke-opacity:1; 
stroke-linecap:round; stroke-linejoin:round;">
</g>
<g style="fill:#121212; fill-opacity:1.0000; 
stroke:#121212; stroke-width:0.0000; stroke-opacity:1; 
stroke-linecap:round; stroke-linejoin:round;">
<circle cx="7.1870" cy="11.3520" r="0.4445" /> 
</g>
<g style="fill:#121212; fill-opacity:1.0000; 
stroke:#121212; stroke-width:0.0212; stroke-opacity:1; 
stroke-linecap:round; stroke-linejoin:round;">
</g>
<g style="fill:#121212; fill-opacity:1.0000; 
stroke:#121212; stroke-width:0.0000; stroke-opacity:1; 
stroke-linecap:round; stroke-linejoin:round;">
<circle cx="18.6170" cy="21.5120" r="0.4445" /> 
</g>
<g style="fill:#121212; fill-opacity:1.0000; 
stroke:#121212; stroke-width:0.0212; stroke-opacity:1; 
stroke-linecap:round; stroke-linejoin:round;">
</g>
<g >
</g>
<g style="fill:#37CBCB; fill-opacity:1.0000; 
stroke:#37CBCB; stroke-width:0.0212; stroke-opacity:1; 
stroke-linecap:round; stroke-linejoin:round;">
</g>
<g style="fill:#37CBCB; fill-opacity:1.0000; 
stroke:#37CBCB; stroke-width:0.2540; stroke-opacity:1; 
stroke-linecap:round; stroke-linejoin:round;">
</g>
<g style="fill:#37CBCB; fill-opacity:0.0; 
stroke:#37CBCB; stroke-width:0.2540; stroke-opacity:1; 
stroke-linecap:round; stroke-linejoin:round;">
<path d="M7.6950 11.8600
L7.1870 11.3520
" />
<path d="M16.4580 23.6710
L18.6170 21.5120
" />
<path d="M17.3470 18.8450
L18.6170 20.1150
" />
<path d="M18.6170 20.1150
L18.6170 21.5120
" />
<path d="M9.4730 11.8600
L7.6950 11.8600
" />
<path d="M16.2040 18.8450
L17.3470 18.8450
" />
<path d="M16.4580 23.6710
L13.9409 23.6710
" />
<path d="M7.0600 23.6710
L5.6630 22.2740
" />
<path d="M5.6630 22.2740
L5.6630 19.8610
" />
<path d="M11.1011 23.6710
L7.0600 23.6710
" />
<path d="M5.6630 15.2890
L6.5520 14.4000
" />
<path d="M6.5520 14.4000
L9.4730 14.4000
" />
<path d="M5.6630 16.5590
L5.6630 15.2890
" />
<path d="M11.3780 12.2410
L10.4890 13.1300
" />
<path d="M10.4890 13.1300
L9.4730 13.1300
" />
<path d="M12.5210 14.4000
L11.3780 13.2570
" />
<path d="M11.3780 13.2570
L11.3780 11.9870
" />
<path d="M11.3780 11.9870
L11.3780 12.2410
" />
<path d="M12.9020 16.4320
L14.9340 14.4000
" />
<path d="M14.9340 14.4000
L12.5210 14.4000
" />
<path d="M15.8230 14.4000
L14.9340 14.4000
" />
<path d="M11.3780 8.0500
L11.3780 11.9870
" />
<path d="M12.9020 18.8450
L12.9020 16.4320
" />
<path d="M14.6800 9.5740
L13.7910 10.4630
" />
<path d="M13.7910 10.4630
L13.7910 12.4950
" />
<path d="M13.7910 12.4950
L14.4260 13.1300
" />
<path d="M14.4260 13.1300
L15.8230 13.1300
" />
<path d="M17.0930 3.4780
L14.6800 5.8910
" />
<path d="M14.6800 5.8910
L14.6800 8.0500
" />
<path d="M23.8240 3.4780
L17.0930 3.4780
" />
<path d="M14.6800 8.0500
L14.6800 9.5740
" />
</g>
<g >
</g>
<g style="fill:#37CBCB; fill-opacity:0.0; 
stroke:#37CBCB; stroke-width:0.2540; stroke-opacity:1; 
stroke-linecap:round; stroke-linejoin:round;">
<g >
</g>
<g style="fill:#37CBCB; fill-opacity:1.0000; 
stroke:#37CBCB; stroke-width:0.0000; stroke-opacity:1; 
stroke-linecap:round; stroke-linejoin:round;">
<path style="fill:#37CBCB; fill-opacity:1.0000; 
stroke:#37CBCB; stroke-width:0.0000; stroke-opacity:1; 
stroke-linecap:round; stroke-linejoin:round;fill-rule:evenodd;"
d="M 24.9166,1.4585
24.9631,1.5121
24.9745,1.5645
24.9745,2.6180
24.9545,2.6861
24.9008,2.7326
24.8306,2.7427
24.7660,2.7132
24.7541,2.7011
24.7391,2.6861
24.6028,2.5498
24.4298,2.4287
24.2384,2.3394
24.2384,2.3394
24.1437,2.3141
24.0344,2.2848
23.8240,2.2664
23.8240,2.2664
23.7188,2.2756
23.6136,2.2848
23.5589,2.2994
23.4096,2.3394
23.4096,2.3394
23.2182,2.4287
23.0452,2.5498
23.0452,2.5498
22.8959,2.6992
22.8959,2.6992
22.8959,2.6992
22.8959,2.6992
22.8654,2.7427
22.8331,2.7887
22.7777,2.8331
22.7299,2.8425
17.1771,2.8425
17.1612,2.8407
17.1612,2.8410
17.1533,2.8403
17.0830,2.8425
17.0530,2.8425
17.0460,2.8434
17.0401,2.8438
16.9928,2.8453
16.9928,2.8453
16.9733,2.8510
16.9539,2.8550
16.9337,2.8576
16.9337,2.8576
16.8897,2.8750
16.8841,2.8769
16.8386,2.8901
16.8386,2.8901
16.8211,2.9005
16.8033,2.9092
16.7844,2.9167
16.7461,2.9445
16.7412,2.9477
16.7004,2.9718
16.6860,2.9862
16.6710,2.9991
16.6545,3.0110
16.6545,3.0110
16.6243,3.0475
16.6203,3.0519
14.2901,5.3822
14.2776,5.3922
14.2778,5.3924
14.2717,5.3974
14.2236,5.4487
14.2024,5.4699
14.2024,5.4699
14.1980,5.4755
14.1942,5.4800
14.1618,5.5145
14.1618,5.5145
14.1520,5.5323
14.1411,5.5488
14.1287,5.5649
14.1286,5.5649
14.1098,5.6084
14.1072,5.6137
14.0844,5.6552
14.0844,5.6552
14.0794,5.6749
14.0730,5.6936
14.0649,5.7123
14.0649,5.7123
14.0575,5.7590
14.0563,5.7648
14.0445,5.8107
14.0445,5.8310
14.0429,5.8508
14.0398,5.8709
14.0398,5.8709
14.0442,5.9180
14.0445,5.9239
14.0445,6.3995
14.0245,6.4676
13.9708,6.5141
13.9185,6.5255
13.8693,6.5255
13.8088,6.5320
13.8088,6.5320
13.6718,6.5831
13.6718,6.5831
13.5547,6.6707
13.4671,6.7878
13.4671,6.7878
13.4160,6.9248
13.4160,6.9248
13.4095,6.9853
13.4095,9.1146
13.4160,9.1752
13.4160,9.1752
13.4671,9.3122
13.4671,9.3122
13.5547,9.4292
13.6507,9.5010
13.6932,9.5579
13.6983,9.6287
13.6642,9.6910
13.6642,9.6910
13.4011,9.9542
13.3886,9.9642
13.3888,9.9644
13.3827,9.9694
13.3346,10.0207
13.3134,10.0419
13.3134,10.0419
13.3090,10.0475
13.3052,10.0520
13.2728,10.0865
13.2728,10.0865
13.2630,10.1043
13.2521,10.1208
13.2397,10.1369
13.2396,10.1369
13.2208,10.1804
13.2182,10.1857
13.1954,10.2272
13.1954,10.2272
13.1904,10.2469
13.1840,10.2656
13.1759,10.2843
13.1759,10.2843
13.1685,10.3310
13.1673,10.3368
13.1555,10.3827
13.1555,10.4030
13.1539,10.4228
13.1508,10.4429
13.1508,10.4429
13.1552,10.4900
13.1555,10.4959
13.1555,12.4109
13.1537,12.4268
13.1540,12.4268
13.1533,12.4347
13.1533,12.4347
13.1555,12.5050
13.1555,12.5350
13.1555,12.5350
13.1555,12.5350
13.1564,12.5420
13.1568,12.5479
13.1583,12.5952
13.1583,12.5952
13.1640,12.6147
13.1680,12.6341
13.1706,12.6543
13.1706,12.6543
13.1880,12.6983
13.1899,12.7039
13.2031,12.7494
13.2031,12.7494
13.2135,12.7669
13.2222,12.7846
13.2297,12.8036
13.2575,12.8419
13.2608,12.8468
13.2695,12.8617
13.2849,12.8876
13.2992,12.9020
13.3121,12.9170
13.3241,12.9335
13.3241,12.9335
13.3605,12.9636
13.3649,12.9676
13.9172,13.5199
13.9272,13.5324
13.9274,13.5322
13.9324,13.5383
13.9324,13.5383
13.9413,13.5466
13.9773,13.6078
13.9745,13.6788
13.9337,13.7369
13.8680,13.7638
13.8551,13.7645
12.8364,13.7645
12.7683,13.7445
12.7473,13.7276
12.0504,13.0307
12.0164,12.9683
12.0135,12.9416
12.0135,12.3009
12.0151,12.2812
12.0170,12.2686
12.0182,12.2611
12.0138,12.2140
12.0135,12.2080
12.0135,9.7005
12.0335,9.6324
12.0872,9.5859
12.1395,9.5745
12.1886,9.5745
12.1886,9.5745
12.1886,9.5745
12.1886,9.5745
12.2492,9.5680
12.2492,9.5680
12.2492,9.5680
12.3862,9.5169
12.4073,9.5010
12.5033,9.4292
12.5909,9.3122
12.5909,9.3122
12.5909,9.3122
12.6420,9.1752
12.6485,9.1146
12.6485,6.9853
12.6485,6.9853
12.6420,6.9248
12.6420,6.9248
12.5909,6.7878
12.5909,6.7878
12.5033,6.6707
12.3862,6.5831
12.3862,6.5831
12.2492,6.5320
12.2492,6.5320
12.1886,6.5255
12.1886,6.5255
10.5674,6.5255
10.5673,6.5255
10.5068,6.5320
10.5068,6.5320
10.3698,6.5831
10.3698,6.5831
10.2527,6.6707
10.1651,6.7878
10.1651,6.7878
10.1140,6.9248
10.1140,6.9248
10.1075,6.9853
10.1075,9.1146
10.1140,9.1752
10.1140,9.1752
10.1651,9.3122
10.1651,9.3122
10.2527,9.4292
10.3698,9.5169
10.3698,9.5169
10.3698,9.5169
10.4289,9.5389
10.5068,9.5680
10.5068,9.5680
10.5673,9.5745
10.5674,9.5745
10.5674,9.5745
10.6165,9.5745
10.6846,9.5945
10.7311,9.6481
10.7425,9.7005
10.7425,11.3239
10.7225,11.3921
10.6688,11.4385
10.5986,11.4487
10.5340,11.4192
10.4984,11.3680
10.4954,11.3598
10.4954,11.3598
10.4954,11.3598
10.4078,11.2427
10.2907,11.1551
10.2907,11.1551
10.1537,11.1040
10.1537,11.1040
10.0931,11.0975
10.0931,11.0975
8.8529,11.0975
8.8529,11.0975
8.7923,11.1040
8.7923,11.1040
8.6553,11.1551
8.6553,11.1551
8.5962,11.1993
8.5297,11.2242
8.5207,11.2245
8.2377,11.2245
8.1695,11.2045
8.1230,11.1508
8.1171,11.1351
8.0717,10.9855
8.0717,10.9855
8.0717,10.9855
7.9832,10.8200
7.8641,10.6748
7.7190,10.5558
7.7190,10.5558
7.5535,10.4673
7.5535,10.4673
7.4067,10.4228
7.3738,10.4128
7.3738,10.4128
7.3738,10.4128
7.1870,10.3944
7.1870,10.3944
7.0002,10.4128
7.0002,10.4128
6.8205,10.4673
6.8205,10.4673
6.6550,10.5558
6.5099,10.6748
6.3908,10.8200
6.3023,10.9855
6.3023,10.9855
6.2478,11.1652
6.2478,11.1652
6.2294,11.3520
6.2294,11.3520
6.2478,11.5388
6.2478,11.5388
6.3023,11.7184
6.3023,11.7184
6.3375,11.7843
6.3908,11.8840
6.5099,12.0291
6.6550,12.1482
6.8205,12.2367
7.0002,12.2912
7.0002,12.2912
7.0002,12.2912
7.1870,12.3096
7.1932,12.3096
7.1932,12.3122
7.2518,12.3233
7.2717,12.3359
7.2795,12.3419
7.2840,12.3458
7.2955,12.3566
7.3185,12.3782
7.3363,12.3880
7.3529,12.3989
7.3689,12.4113
7.4047,12.4268
7.4124,12.4301
7.4177,12.4327
7.4592,12.4555
7.4592,12.4555
7.4592,12.4555
7.4789,12.4606
7.4976,12.4670
7.5163,12.4751
7.5163,12.4751
7.5163,12.4751
7.5465,12.4799
7.5630,12.4825
7.5689,12.4837
7.6147,12.4955
7.6351,12.4955
7.6548,12.4970
7.6749,12.5002
7.7090,12.4970
7.7220,12.4958
7.7279,12.4955
8.3192,12.4955
8.3873,12.5155
8.4338,12.5691
8.4439,12.6394
8.4373,12.6655
8.3995,12.7668
8.3995,12.7668
8.3995,12.7668
8.3930,12.8273
8.3930,13.4326
8.3995,13.4932
8.3995,13.4932
8.3995,13.4932
8.3995,13.4932
8.4373,13.5944
8.4423,13.6653
8.4083,13.7276
8.3460,13.7616
8.3192,13.7645
6.6361,13.7645
6.6202,13.7627
6.6202,13.7630
6.6123,13.7623
6.5420,13.7645
6.5120,13.7645
6.5050,13.7654
6.4991,13.7658
6.4518,13.7673
6.4518,13.7673
6.4322,13.7730
6.4129,13.7770
6.3927,13.7796
6.3927,13.7796
6.3487,13.7970
6.3431,13.7989
6.2976,13.8121
6.2976,13.8121
6.2801,13.8225
6.2623,13.8312
6.2434,13.8387
6.2051,13.8665
6.2002,13.8697
6.1594,13.8938
6.1450,13.9082
6.1300,13.9211
6.1135,13.9330
6.0833,13.9695
6.0793,13.9739
5.2731,14.7802
5.2606,14.7902
5.2608,14.7904
5.2547,14.7954
5.2066,14.8467
5.1854,14.8679
5.1854,14.8679
5.1810,14.8735
5.1772,14.8780
5.1448,14.9125
5.1448,14.9125
5.1350,14.9303
5.1241,14.9468
5.1117,14.9629
5.1117,14.9629
5.0928,15.0064
5.0902,15.0117
5.0674,15.0532
5.0674,15.0532
5.0624,15.0729
5.0560,15.0916
5.0479,15.1103
5.0479,15.1103
5.0405,15.1570
5.0393,15.1628
5.0313,15.1938
4.9950,15.2548
4.9315,15.2865
4.9093,15.2885
4.5983,15.2885
4.5378,15.2950
4.5378,15.2950
4.4008,15.3461
4.4008,15.3461
4.2837,15.4337
4.1961,15.5508
4.1961,15.5508
4.1450,15.6878
4.1450,15.6878
4.1385,15.7483
4.1385,17.3696
4.1450,17.4302
4.1450,17.4302
4.1961,17.5672
4.1961,17.5672
4.2837,17.6842
4.4008,17.7719
4.4008,17.7719
4.4008,17.7719
4.4599,17.7939
4.5378,17.8230
4.5378,17.8230
4.5983,17.8295
4.5984,17.8295
4.5984,17.8295
4.5984,17.8295
6.7276,17.8295
6.7276,17.8295
6.7276,17.8295
6.7276,17.8295
6.7882,17.8230
6.7882,17.8230
6.7882,17.8230
6.9252,17.7719
7.0423,17.6842
7.1299,17.5672
7.1810,17.4302
7.1875,17.3696
7.1875,15.9240
8.3935,15.9240
8.3935,15.9726
8.4000,16.0331
8.4511,16.1699
8.4511,16.1699
8.5386,16.2869
8.6555,16.3744
8.7924,16.4255
8.8529,16.4320
8.8529,16.4320
9.2190,16.4320
9.2190,15.9240
9.7270,15.9240
9.7270,16.4320
10.0931,16.4320
10.0931,16.4320
10.1536,16.4255
10.2905,16.3744
10.2905,16.3744
10.4074,16.2869
10.4949,16.1699
10.4949,16.1699
10.5460,16.0331
10.5525,15.9726
10.5525,15.9726
10.5525,15.9240
9.7270,15.9240
9.2190,15.9240
8.3935,15.9240
7.1875,15.9240
7.1875,15.7483
7.1875,15.7483
7.1810,15.6878
7.1810,15.6878
7.1299,15.5508
7.1299,15.5508
7.0423,15.4337
6.9252,15.3461
6.9252,15.3461
6.8026,15.3004
6.7457,15.2578
6.7209,15.1913
6.7360,15.1219
6.7575,15.0932
6.7783,15.0724
6.8406,15.0384
6.8674,15.0355
8.3198,15.0355
8.3879,15.0555
8.4344,15.1091
8.4445,15.1794
8.4378,15.2055
8.4000,15.3069
8.3935,15.3674
8.3935,15.4160
10.5525,15.4160
10.5525,15.3674
10.5525,15.3674
10.5460,15.3069
10.4949,15.1700
10.4949,15.1700
10.4507,15.1109
10.4259,15.0444
10.4410,14.9750
10.4507,14.9599
10.4954,14.9002
10.5465,14.7632
10.5530,14.7026
10.5530,14.0973
10.5530,14.0973
10.5465,14.0368
10.5465,14.0368
10.5058,13.9278
10.5008,13.8570
10.5348,13.7947
10.5887,13.7628
10.5892,13.7626
10.5892,13.7626
10.6088,13.7570
10.6281,13.7530
10.6483,13.7504
10.6923,13.7330
10.6979,13.7311
10.7434,13.7178
10.7609,13.7075
10.7787,13.6988
10.7976,13.6913
10.7976,13.6913
10.8016,13.6897
10.8723,13.6832
10.9283,13.7098
10.9456,13.7241
10.9475,13.7256
10.9519,13.7296
11.2591,14.0368
12.0122,14.7899
12.0222,14.8024
12.0224,14.8022
12.0274,14.8083
12.0787,14.8564
12.0999,14.8776
12.1055,14.8819
12.1100,14.8858
12.1445,14.9182
12.1445,14.9182
12.1445,14.9182
12.1623,14.9280
12.1789,14.9389
12.1949,14.9513
12.1949,14.9513
12.2217,14.9629
12.2384,14.9701
12.2437,14.9727
12.2852,14.9955
12.2852,14.9955
12.2852,14.9955
12.3049,15.0006
12.3236,15.0070
12.3423,15.0151
12.3423,15.0151
12.3423,15.0151
12.3725,15.0199
12.3890,15.0225
12.3949,15.0237
12.4407,15.0355
12.4611,15.0355
12.4808,15.0370
12.5009,15.0402
12.5350,15.0370
12.5480,15.0358
12.5539,15.0355
13.0956,15.0355
13.1637,15.0555
13.2102,15.1091
13.2203,15.1794
13.1908,15.2440
13.1847,15.2506
12.5121,15.9232
12.4996,15.9332
12.4998,15.9334
12.4937,15.9384
12.4456,15.9897
12.4244,16.0109
12.4244,16.0109
12.4200,16.0165
12.4162,16.0210
12.3838,16.0555
12.3838,16.0555
12.3740,16.0733
12.3631,16.0898
12.3507,16.1059
12.3506,16.1059
12.3318,16.1494
12.3292,16.1547
12.3064,16.1962
12.3064,16.1962
12.3014,16.2159
12.2950,16.2346
12.2869,16.2533
12.2869,16.2533
12.2795,16.3000
12.2783,16.3058
12.2665,16.3517
12.2665,16.3720
12.2649,16.3918
12.2618,16.4119
12.2618,16.4119
12.2662,16.4590
12.2665,16.4649
12.2665,17.1945
12.2465,17.2626
12.1928,17.3091
12.1405,17.3205
12.0914,17.3205
12.0308,17.3270
12.0308,17.3270
11.8938,17.3781
11.8938,17.3781
11.7767,17.4657
11.6891,17.5828
11.6891,17.5828
11.6380,17.7198
11.6380,17.7198
11.6315,17.7803
11.6315,19.9096
11.6380,19.9702
11.6380,19.9702
11.6891,20.1072
11.6891,20.1072
11.7767,20.2242
11.8938,20.3119
11.8938,20.3119
11.8938,20.3119
11.9529,20.3339
12.0308,20.3630
12.0308,20.3630
12.0914,20.3695
12.0914,20.3695
12.0914,20.3695
12.0914,20.3695
13.7126,20.3695
13.7126,20.3695
13.7126,20.3695
13.7126,20.3695
13.7732,20.3630
13.7732,20.3630
13.7732,20.3630
13.9102,20.3119
14.0273,20.2242
14.0461,20.1990
14.1149,20.1072
14.1149,20.1072
14.1149,20.1072
14.1660,19.9702
14.1725,19.9096
14.1725,17.7803
14.1716,17.7719
14.1660,17.7198
14.1660,17.7198
14.1149,17.5828
14.1149,17.5828
14.0273,17.4657
13.9102,17.3781
13.9102,17.3781
13.7732,17.3270
13.7732,17.3270
13.7126,17.3205
13.7126,17.3205
13.6635,17.3205
13.5954,17.3005
13.5489,17.2468
13.5375,17.1945
13.5375,16.7474
13.5575,16.6793
13.5744,16.6583
14.5279,15.7048
14.5902,15.6708
14.6610,15.6758
14.7179,15.7184
14.7427,15.7849
14.7430,15.7939
14.7430,15.9726
14.7495,16.0332
14.7495,16.0332
14.8006,16.1702
14.8006,16.1702
14.8882,16.2872
15.0053,16.3749
15.0053,16.3749
15.0053,16.3749
15.0243,16.3820
15.1423,16.4260
15.1423,16.4260
15.2028,16.4325
15.2029,16.4325
15.2029,16.4325
15.2029,16.4325
16.4431,16.4325
16.4431,16.4325
16.4431,16.4325
16.4431,16.4325
16.5037,16.4260
16.5037,16.4260
16.5037,16.4260
16.6407,16.3749
16.6413,16.3744
16.7578,16.2872
16.8454,16.1702
16.8454,16.1702
16.8454,16.1702
16.8965,16.0332
16.8978,16.0210
16.9030,15.9726
16.9030,15.9726
16.9030,15.3673
16.9030,15.3673
16.8965,15.3068
16.8965,15.3068
16.8587,15.2055
16.8454,15.1698
16.8454,15.1698
16.8454,15.1698
16.8010,15.1105
16.7762,15.0440
16.7913,14.9746
16.8010,14.9595
16.8454,14.9002
16.8965,14.7632
16.9030,14.7026
16.9030,14.0973
16.9030,14.0973
16.8965,14.0368
16.8965,14.0368
16.8558,13.9278
16.8454,13.8998
16.8454,13.8998
16.8454,13.8998
16.8010,13.8405
16.7762,13.7740
16.7913,13.7046
16.8010,13.6895
16.8454,13.6302
16.8965,13.4932
16.8965,13.4932
16.8965,13.4932
16.9030,13.4326
16.9030,13.4326
16.9030,12.8273
16.9030,12.8273
16.8965,12.7668
16.8965,12.7668
16.8454,12.6298
16.8454,12.6298
16.8007,12.5701
16.7759,12.5036
16.7910,12.4342
16.8007,12.4191
16.8449,12.3599
16.8960,12.2231
16.9025,12.1626
16.9025,12.1626
16.9025,12.1140
14.7435,12.1140
14.7435,12.1626
14.7500,12.2231
14.7507,12.2262
14.7506,12.2287
14.7508,12.2309
14.7505,12.2309
14.7469,12.2971
14.7054,12.3547
14.6393,12.3807
14.5697,12.3668
14.5390,12.3443
14.4634,12.2686
14.4294,12.2063
14.4265,12.1796
14.4265,11.6060
14.7435,11.6060
15.5690,11.6060
15.5690,11.0980
16.0770,11.0980
16.0770,11.6060
16.9025,11.6060
16.9025,11.5574
16.9025,11.5574
16.8960,11.4969
16.8449,11.3600
16.8449,11.3600
16.7574,11.2431
16.6405,11.1555
16.5036,11.1045
16.4431,11.0980
16.0770,11.0980
15.5690,11.0980
15.2029,11.0980
15.1424,11.1045
15.0055,11.1555
15.0055,11.1555
14.8886,11.2431
14.8011,11.3600
14.8011,11.3600
14.7500,11.4969
14.7435,11.5574
14.7435,11.6060
14.4265,11.6060
14.4265,10.7784
14.4465,10.7103
14.4634,10.6893
15.0699,10.0828
15.0824,10.0728
15.0822,10.0726
15.0883,10.0675
15.0883,10.0675
15.1364,10.0163
15.1576,9.9951
15.1620,9.9895
15.1658,9.9850
15.1982,9.9505
15.2080,9.9327
15.2189,9.9161
15.2313,9.9000
15.2313,9.9000
15.2313,9.9000
15.2502,9.8566
15.2528,9.8513
15.2756,9.8098
15.2806,9.7901
15.2870,9.7714
15.2951,9.7527
15.2951,9.7527
15.2951,9.7527
15.3025,9.7059
15.3037,9.7001
15.3117,9.6691
15.3480,9.6081
15.4115,9.5764
15.4337,9.5745
15.4906,9.5745
15.4906,9.5745
15.4906,9.5745
15.4906,9.5745
15.5512,9.5680
15.5512,9.5680
15.5512,9.5680
15.6882,9.5169
15.7093,9.5010
15.8053,9.4292
15.8929,9.3122
15.8929,9.3122
15.8929,9.3122
15.9440,9.1752
15.9505,9.1146
15.9505,6.9853
15.9505,6.9853
15.9440,6.9248
15.9440,6.9248
15.8929,6.7878
15.8929,6.7878
15.8053,6.6707
15.6882,6.5831
15.6882,6.5831
15.5512,6.5320
15.5512,6.5320
15.4906,6.5255
15.4906,6.5255
15.4415,6.5255
15.3734,6.5055
15.3269,6.4518
15.3155,6.3995
15.3155,6.2064
15.3355,6.1383
15.3524,6.1173
17.3193,4.1504
17.3816,4.1164
17.4084,4.1135
22.7299,4.1135
22.7980,4.1335
22.8331,4.1672
22.8959,4.2568
23.0452,4.4061
23.2182,4.5273
23.4096,4.6165
23.4096,4.6165
23.4096,4.6165
23.4256,4.6208
23.4461,4.6263
23.5067,4.6633
23.5378,4.7271
23.5293,4.7976
23.4841,4.8524
23.4590,4.8655
23.2839,4.9333
23.2839,4.9333
23.1694,5.0042
23.7789,5.6137
23.6968,5.6267
23.5821,5.6851
23.4911,5.7761
23.4327,5.8908
23.4197,5.9729
22.8081,5.3613
22.8081,5.3613
22.7938,5.3801
22.6942,5.5803
22.6941,5.5803
22.6330,5.7953
22.6123,6.0180
22.6330,6.2406
22.6941,6.4557
22.6942,6.4557
22.7938,6.6558
22.8081,6.6747
22.8081,6.6747
23.4197,6.0631
23.4327,6.1451
23.4911,6.2598
23.5821,6.3509
23.6968,6.4093
23.7789,6.4223
23.1694,7.0317
23.2839,7.1026
23.2839,7.1026
23.4924,7.1834
23.7122,7.2245
23.9358,7.2245
24.1556,7.1834
24.3641,7.1026
24.3641,7.1026
24.4786,7.0317
23.8691,6.4223
23.9511,6.4093
24.0659,6.3509
24.1569,6.2598
24.2153,6.1451
24.2283,6.0631
24.8400,6.6748
24.9091,6.6900
24.9592,6.7403
24.9745,6.8004
24.9745,9.8003
24.9545,9.8684
24.9008,9.9149
24.8306,9.9250
24.7660,9.8955
24.7527,9.8821
24.6510,9.7630
24.4686,9.6072
24.2640,9.4819
24.0424,9.3901
24.0424,9.3901
23.8240,9.3377
23.8240,10.1797
23.7415,10.1484
23.6130,10.1328
23.5270,10.1328
23.3985,10.1484
23.3160,10.1797
23.3160,9.3377
23.0976,9.3901
22.8760,9.4819
22.6714,9.6072
22.4890,9.7630
22.3332,9.9454
22.2079,10.1500
22.1161,10.3716
22.0637,10.5900
22.9001,10.5900
22.8588,10.7576
22.8588,10.9303
22.9001,11.0980
22.0637,11.0980
22.1161,11.3164
22.2079,11.5380
22.3332,11.7425
22.4890,11.9249
22.6714,12.0807
22.8760,12.2061
23.0976,12.2979
23.3160,12.3503
23.3160,11.5083
23.3985,11.5396
23.5270,11.5552
23.6130,11.5552
23.7415,11.5396
23.8240,11.5083
23.8240,12.3503
24.0424,12.2979
24.2640,12.2061
24.4686,12.0807
24.6510,11.9249
24.7527,11.8058
24.8121,11.7670
24.8831,11.7665
24.9431,11.8045
24.9731,11.8688
24.9745,11.8877
24.9745,25.7040
24.9545,25.7721
24.9008,25.8186
24.8485,25.8300
0.7015,25.8300
0.6334,25.8100
0.5869,25.7563
0.5755,25.7040
0.5755,20.6716
4.1385,20.6716
4.1450,20.7322
4.1450,20.7322
4.1961,20.8692
4.1961,20.8692
4.2837,20.9862
4.4008,21.0739
4.4008,21.0739
4.4008,21.0739
4.4599,21.0959
4.5378,21.1250
4.5378,21.1250
4.5983,21.1315
4.5984,21.1315
4.5984,21.1315
4.9015,21.1315
4.9696,21.1515
5.0161,21.2051
5.0275,21.2575
5.0275,22.1899
5.0257,22.2058
5.0260,22.2058
5.0253,22.2137
5.0253,22.2137
5.0275,22.2840
5.0275,22.3140
5.0275,22.3140
5.0275,22.3140
5.0284,22.3210
5.0288,22.3269
5.0303,22.3742
5.0303,22.3742
5.0360,22.3937
5.0400,22.4131
5.0426,22.4333
5.0426,22.4333
5.0600,22.4773
5.0619,22.4829
5.0751,22.5284
5.0751,22.5284
5.0855,22.5459
5.0942,22.5636
5.1017,22.5826
5.1295,22.6209
5.1328,22.6258
5.1415,22.6407
5.1569,22.6666
5.1712,22.6810
5.1841,22.6960
5.1961,22.7125
5.1961,22.7125
5.2325,22.7426
5.2369,22.7466
6.5512,24.0609
6.5512,24.0609
6.5612,24.0734
6.5614,24.0732
6.5664,24.0793
6.6177,24.1274
6.6389,24.1486
6.6389,24.1486
6.6445,24.1529
6.6490,24.1568
6.6835,24.1892
6.7013,24.1990
6.7179,24.2099
6.7339,24.2223
6.7774,24.2411
6.7827,24.2437
6.8242,24.2665
6.8242,24.2665
6.8242,24.2665
6.8439,24.2716
6.8626,24.2780
6.8813,24.2861
6.8813,24.2861
6.8813,24.2861
6.9115,24.2909
6.9280,24.2935
6.9339,24.2947
6.9797,24.3065
7.0001,24.3065
7.0198,24.3080
7.0399,24.3112
7.0745,24.3079
7.0870,24.3068
7.0929,24.3065
9.6678,24.3065
9.7359,24.3265
9.7824,24.3801
9.7938,24.4325
9.7938,24.6201
9.8003,24.6806
9.8003,24.6806
9.8514,24.8176
9.8514,24.8176
9.9390,24.9347
10.0561,25.0223
10.0561,25.0223
10.0561,25.0223
10.1152,25.0443
10.1931,25.0734
10.1931,25.0734
10.2537,25.0799
10.2537,25.0799
10.2537,25.0799
10.2537,25.0799
11.9486,25.0799
11.9486,25.0799
11.9486,25.0799
11.9486,25.0799
12.0092,25.0734
12.0092,25.0734
12.0092,25.0734
12.1462,25.0223
12.2632,24.9347
12.3509,24.8176
12.4020,24.6806
12.4020,24.6806
12.4029,24.6780
12.4455,24.6211
12.5120,24.5963
12.5814,24.6114
12.6316,24.6616
12.6391,24.6780
12.6911,24.8176
12.6911,24.8176
12.7788,24.9347
12.8958,25.0223
12.8958,25.0223
12.8958,25.0223
12.9549,25.0443
13.0328,25.0734
13.0328,25.0734
13.0934,25.0799
13.0934,25.0799
13.0934,25.0799
13.0934,25.0799
14.7883,25.0799
14.7883,25.0799
14.7883,25.0799
14.7883,25.0799
14.8489,25.0734
14.8489,25.0734
14.8489,25.0734
14.9859,25.0223
15.1030,24.9347
15.1906,24.8176
15.2417,24.6806
15.2420,24.6780
15.2482,24.6201
15.2482,24.6200
15.2482,24.4325
15.2682,24.3644
15.3218,24.3179
15.3742,24.3065
16.3739,24.3065
16.3898,24.3082
16.3898,24.3079
16.3977,24.3087
16.3977,24.3087
16.3977,24.3087
16.4680,24.3065
16.4980,24.3065
16.5050,24.3056
16.5109,24.3051
16.5582,24.3036
16.5778,24.2980
16.5971,24.2940
16.6173,24.2914
16.6613,24.2740
16.6669,24.2721
16.7124,24.2588
16.7299,24.2485
16.7477,24.2398
16.7666,24.2323
16.8049,24.2045
16.8098,24.2012
16.8506,24.1771
16.8650,24.1627
16.8800,24.1499
16.8965,24.1379
16.9267,24.1014
16.9306,24.0971
18.5213,22.5064
18.5836,22.4724
18.6108,22.4708
18.6108,22.4696
18.6170,22.4696
18.8038,22.4512
18.8038,22.4512
18.8038,22.4512
18.8038,22.4512
18.9835,22.3967
19.1490,22.3082
19.2941,22.1891
19.4132,22.0440
19.5017,21.8784
19.5562,21.6988
19.5746,21.5120
19.5562,21.3252
19.5562,21.3252
19.5562,21.3252
19.5562,21.3252
19.5017,21.1455
19.5003,21.1429
19.4132,20.9800
19.2941,20.8348
19.2898,20.8305
19.2917,20.8285
19.2586,20.7798
19.2525,20.7411
19.2525,20.1990
19.2543,20.1832
19.2540,20.1832
19.2547,20.1753
19.2525,20.1050
19.2525,20.0750
19.2525,20.0750
19.2516,20.0680
19.2512,20.0621
19.2497,20.0148
19.2440,19.9952
19.2400,19.9759
19.2374,19.9557
19.2200,19.9117
19.2181,19.9061
19.2049,19.8606
19.1945,19.8431
19.1858,19.8253
19.1783,19.8064
19.1783,19.8064
19.1783,19.8064
19.1606,19.7820
19.1505,19.7681
19.1472,19.7631
19.1231,19.7224
19.1231,19.7224
19.1087,19.7080
19.0959,19.6930
19.0839,19.6765
19.0839,19.6765
19.0766,19.6704
19.0475,19.6463
19.0431,19.6423
17.8558,18.4551
17.8458,18.4426
17.8456,18.4428
17.8406,18.4367
17.7893,18.3886
17.7681,18.3673
17.7681,18.3673
17.7625,18.3630
17.7580,18.3592
17.7235,18.3268
17.7235,18.3268
17.7057,18.3170
17.6891,18.3061
17.6731,18.2936
17.6731,18.2936
17.6296,18.2748
17.6243,18.2722
17.5828,18.2494
17.5828,18.2494
17.5692,18.2459
17.5082,18.2096
17.4765,18.1461
17.4745,18.1239
17.4745,17.7803
17.4745,17.7803
17.4680,17.7198
17.4680,17.7198
17.4169,17.5828
17.4169,17.5828
17.3293,17.4657
17.2122,17.3781
17.2122,17.3781
17.0752,17.3270
17.0752,17.3270
17.0146,17.3205
17.0146,17.3205
15.3934,17.3205
15.3933,17.3205
15.3328,17.3270
15.3328,17.3270
15.1958,17.3781
15.1958,17.3781
15.0787,17.4657
14.9911,17.5828
14.9911,17.5828
14.9400,17.7198
14.9400,17.7198
14.9335,17.7803
14.9335,19.9096
14.9400,19.9702
14.9400,19.9702
14.9911,20.1072
14.9911,20.1072
15.0787,20.2242
15.1958,20.3119
15.1958,20.3119
15.1958,20.3119
15.2549,20.3339
15.3328,20.3630
15.3328,20.3630
15.3933,20.3695
15.3934,20.3695
15.3934,20.3695
15.3934,20.3695
17.0146,20.3695
17.0146,20.3695
17.0146,20.3695
17.0146,20.3695
17.0752,20.3630
17.0752,20.3630
17.0752,20.3630
17.2122,20.3119
17.3293,20.2242
17.3481,20.1990
17.4169,20.1072
17.4169,20.1072
17.4169,20.1072
17.4169,20.1072
17.4281,20.0771
17.4707,20.0202
17.5372,19.9954
17.6066,20.0105
17.6353,20.0320
17.9446,20.3413
17.9786,20.4036
17.9815,20.4304
17.9815,20.7411
17.9615,20.8092
17.9434,20.8296
17.9442,20.8305
17.9399,20.8348
17.8208,20.9800
17.8208,20.9800
17.7323,21.1455
17.7323,21.1455
17.6778,21.3252
17.6778,21.3252
17.6594,21.5120
17.6594,21.5182
17.6566,21.5182
17.6455,21.5762
17.6225,21.6077
16.2317,22.9986
16.1694,23.0326
16.1426,23.0355
15.3742,23.0355
15.3061,23.0155
15.2596,22.9618
15.2482,22.9095
15.2482,22.7219
15.2482,22.7219
15.2417,22.6614
15.2417,22.6613
15.1986,22.5459
15.1906,22.5243
15.1906,22.5243
15.1906,22.5243
15.1030,22.4073
14.9859,22.3197
14.9859,22.3197
14.8489,22.2686
14.8489,22.2686
14.7883,22.2620
14.7883,22.2620
13.0934,22.2620
13.0934,22.2620
13.0328,22.2686
13.0328,22.2686
12.8958,22.3197
12.8958,22.3197
12.7788,22.4073
12.6911,22.5243
12.6911,22.5243
12.6391,22.6640
12.5965,22.7208
12.5300,22.7456
12.4606,22.7305
12.4104,22.6803
12.4029,22.6640
12.3589,22.5459
12.3509,22.5243
12.3509,22.5243
12.3509,22.5243
12.2632,22.4073
12.1462,22.3197
12.1462,22.3197
12.0092,22.2686
12.0092,22.2686
11.9486,22.2620
11.9486,22.2620
10.2537,22.2620
10.2537,22.2620
10.1931,22.2686
10.1931,22.2686
10.0561,22.3197
10.0561,22.3197
9.9390,22.4073
9.8514,22.5243
9.8514,22.5243
9.8003,22.6613
9.8003,22.6614
9.7938,22.7219
9.7938,22.9095
9.7738,22.9776
9.7202,23.0241
9.6678,23.0355
7.3754,23.0355
7.3073,23.0155
7.2863,22.9986
6.3354,22.0477
6.3014,21.9853
6.2985,21.9586
6.2985,21.2575
6.3185,21.1894
6.3722,21.1429
6.4245,21.1315
6.7276,21.1315
6.7276,21.1315
6.7276,21.1315
6.7276,21.1315
6.7882,21.1250
6.7882,21.1250
6.7882,21.1250
6.9252,21.0739
7.0423,20.9862
7.1299,20.8692
7.1810,20.7322
7.1875,20.6716
7.1875,19.0503
7.1875,19.0503
7.1810,18.9898
7.1810,18.9898
7.1299,18.8528
7.1299,18.8528
7.0423,18.7357
6.9252,18.6481
6.9252,18.6481
6.7882,18.5970
6.7882,18.5970
6.7276,18.5905
6.7276,18.5905
4.5984,18.5905
4.5983,18.5905
4.5378,18.5970
4.5378,18.5970
4.4008,18.6481
4.4008,18.6481
4.2837,18.7357
4.1961,18.8528
4.1961,18.8528
4.1450,18.9898
4.1450,18.9898
4.1385,19.0503
4.1385,20.6716
0.5755,20.6716
0.5755,11.8524
0.5955,11.7843
0.6492,11.7378
0.7163,11.7273
0.7353,11.7295
1.3296,11.1352
1.3904,11.2510
1.5049,11.3802
1.6471,11.4783
1.6890,11.4942
1.0945,12.0887
1.0945,12.0887
1.2860,12.2061
1.5076,12.2979
1.7409,12.3539
1.7409,12.3539
1.9800,12.3727
2.2191,12.3539
2.4524,12.2979
2.6740,12.2061
2.8655,12.0887
2.8655,12.0887
2.2710,11.4942
2.3129,11.4783
2.4551,11.3802
2.5696,11.2510
2.6304,11.1352
3.2247,11.7295
3.2247,11.7295
3.3421,11.5380
3.4339,11.3164
3.4899,11.0831
3.5087,10.8440
3.4899,10.6048
3.4339,10.3716
3.3421,10.1500
3.2247,9.9585
3.2247,9.9585
2.6304,10.5528
2.5696,10.4370
2.4551,10.3077
2.3129,10.2096
2.2710,10.1937
2.8655,9.5992
2.8655,9.5992
2.6740,9.4819
2.4524,9.3901
2.2191,9.3341
2.2191,9.3341
1.9800,9.3153
1.7409,9.3341
1.5076,9.3901
1.2860,9.4819
1.0945,9.5992
1.0945,9.5992
1.6890,10.1937
1.6471,10.2096
1.5049,10.3077
1.3904,10.4370
1.3296,10.5528
0.7353,9.9585
0.7163,9.9607
0.6463,9.9488
0.5938,9.9010
0.5755,9.8356
0.5755,1.5645
0.5955,1.4964
0.6492,1.4499
0.7015,1.4385
24.8485,1.4385
Z" /> 
<path style="fill:#37CBCB; fill-opacity:1.0000; 
stroke:#37CBCB; stroke-width:0.0000; stroke-opacity:1; 
stroke-linecap:round; stroke-linejoin:round;fill-rule:evenodd;"
d="M 24.9424,4.2540
24.9729,4.3181
24.9745,4.3380
24.9745,5.2355
24.9545,5.3037
24.9008,5.3502
24.8400,5.3612
24.2283,5.9729
24.2153,5.8908
24.1569,5.7761
24.0659,5.6851
23.9511,5.6267
23.8691,5.6137
24.4786,5.0042
24.3641,4.9333
24.3641,4.9333
24.1890,4.8655
24.1327,4.8222
24.1087,4.7554
24.1247,4.6862
24.1755,4.6367
24.2019,4.6263
24.2384,4.6165
24.4298,4.5273
24.6028,4.4061
24.7521,4.2568
24.7521,4.2568
24.7560,4.2529
24.7569,4.2537
24.8111,4.2177
24.8821,4.2165
Z" /> 
</g>
</g>
</g>
<g style="fill:#000000; fill-opacity:1.0000; 
stroke:#000000; stroke-width:0.0000; stroke-opacity:1; 
stroke-linecap:round; stroke-linejoin:round;">
<circle cx="7.1870" cy="11.3520" r="0.3175" /> 
</g>
<g style="fill:#000000; fill-opacity:1.0000; 
stroke:#000000; stroke-width:0.0212; stroke-opacity:1; 
stroke-linecap:round; stroke-linejoin:round;">
</g>
<g style="fill:#000000; fill-opacity:1.0000; 
stroke:#000000; stroke-width:0.0000; stroke-opacity:1; 
stroke-linecap:round; stroke-linejoin:round;">
<circle cx="18.6170" cy="21.5120" r="0.3175" /> 
</g>
<g style="fill:#000000; fill-opacity:1.0000; 
stroke:#000000; stroke-width:0.0212; stroke-opacity:1; 
stroke-linecap:round; stroke-linejoin:round;">
</g>
<g style="fill:#000000; fill-opacity:1.0000; 
stroke:#000000; stroke-width:0.0000; stroke-opacity:1; 
stroke-linecap:round; stroke-linejoin:round;">
<circle cx="23.8240" cy="6.0180" r="0.4064" /> 
</g>
<g style="fill:#000000; fill-opacity:1.0000; 
stroke:#000000; stroke-width:0.0212; stroke-opacity:1; 
stroke-linecap:round; stroke-linejoin:round;">
</g>
<g style="fill:#000000; fill-opacity:1.0000; 
stroke:#000000; stroke-width:0.0000; stroke-opacity:1; 
stroke-linecap:round; stroke-linejoin:round;">
<circle cx="23.8240" cy="3.4780" r="0.4064" /> 
</g>
<g style="fill:#000000; fill-opacity:1.0000; 
stroke:#000000; stroke-width:0.0212; stroke-opacity:1; 
stroke-linecap:round; stroke-linejoin:round;">
</g>
<g style="fill:#000000; fill-opacity:1.0000; 
stroke:#000000; stroke-width:0.0000; stroke-opacity:1; 
stroke-linecap:round; stroke-linejoin:round;">
<circle cx="23.5700" cy="10.8440" r="0.7112" /> 
</g>
<g style="fill:#000000; fill-opacity:1.0000; 
stroke:#000000; stroke-width:0.0212; stroke-opacity:1; 
stroke-linecap:round; stroke-linejoin:round;">
</g>
<g style="fill:#000000; fill-opacity:1.0000; 
stroke:#000000; stroke-width:0.0000; stroke-opacity:1; 
stroke-linecap:round; stroke-linejoin:round;">
<circle cx="1.9800" cy="10.8440" r="0.7112" /> 
</g>
<g style="fill:#000000; fill-opacity:1.0000; 
stroke:#000000; stroke-width:0.0212; stroke-opacity:1; 
stroke-linecap:round; stroke-linejoin:round;">
</g>
<g style="fill:#FFFFFF; fill-opacity:1.0000; 
stroke:#FFFFFF; stroke-width:0.0212; stroke-opacity:1; 
stroke-linecap:round; stroke-linejoin:round;">
<g >
</g>
<g >
</g>
<g >
</g>
<g >
</g>
<g >
</g>
<g >
</g>
<g >
</g>
<g >
</g>
<g >
</g>
<g >
</g>
</g>
<g style="fill:#FFFFFF; fill-opacity:1.0000; 
stroke:#FFFFFF; stroke-width:0.0212; stroke-opacity:1; 
stroke-linecap:round; stroke-linejoin:round;">
</g>
<g style="fill:#2F2D31; fill-opacity:1.0000; 
stroke:#2F2D31; stroke-width:0.0212; stroke-opacity:1; 
stroke-linecap:round; stroke-linejoin:round;">
</g>
<g style="fill:#2F2D31; fill-opacity:1.0000; 
stroke:#2F2D31; stroke-width:0.1500; stroke-opacity:1; 
stroke-linecap:round; stroke-linejoin:round;">
</g>
<g style="fill:#2F2D31; fill-opacity:0.0; 
stroke:#2F2D31; stroke-width:0.1500; stroke-opacity:1; 
stroke-linecap:round; stroke-linejoin:round;">
<path d="M25.4750 0.9380
L0.0750 0.9380
" />
<path d="M25.4750 0.9380
L25.4750 26.3380
" />
<path d="M0.0750 26.3380
L25.4750 26.3380
" />
<path d="M0.0750 0.9380
L0.0750 26.3380
" />
<g >
</g>
<g >
</g>
<g >
</g>
<g >
</g>
<g >
</g>
<g >
</g>
<g >
</g>
<g >
</g>
<g >
</g>
<g >
</g>
</g> 
</svg>
