<?xml version="1.0" standalone="no"?>
 <!DOCTYPE svg PUBLIC "-//W3C//DTD SVG 1.1//EN" 
 "http://www.w3.org/Graphics/SVG/1.1/DTD/svg11.dtd"> 
<svg
  xmlns:svg="http://www.w3.org/2000/svg"
  xmlns="http://www.w3.org/2000/svg"
  xmlns:xlink="http://www.w3.org/1999/xlink"
  version="1.1"
  width="13.9700mm" height="17.5514mm" viewBox="0.0000 0.0000 13.9700 17.5514">
<title>SVG Image created as working-brd.svg date 2023/09/25 19:47:11 </title>
  <desc>Image generated by PCBNEW </desc>
<g style="fill:#000000; fill-opacity:1.0000;stroke:#000000; stroke-opacity:1.0000;
stroke-linecap:round; stroke-linejoin:round;"
 transform="translate(0 0) scale(1 1)">
</g>
<g style="fill:#000000; fill-opacity:0.0; 
stroke:#000000; stroke-width:0.0000; stroke-opacity:1; 
stroke-linecap:round; stroke-linejoin:round;">
</g>
<g style="fill:#000000; fill-opacity:1.0000; 
stroke:#000000; stroke-width:0.0212; stroke-opacity:1; 
stroke-linecap:round; stroke-linejoin:round;">
<rect x="-5.000000" y="-5.000000" width="23.992858" height="27.562709" rx="0.000000" />
</g>
<g style="fill:#FFFFFF; fill-opacity:1.0000; 
stroke:#FFFFFF; stroke-width:0.0212; stroke-opacity:1; 
stroke-linecap:round; stroke-linejoin:round;">
<g >
</g>
<g style="fill:#B2803A; fill-opacity:1.0000; 
stroke:#B2803A; stroke-width:0.0212; stroke-opacity:1; 
stroke-linecap:round; stroke-linejoin:round;">
</g>
<g style="fill:#B2803A; fill-opacity:1.0000; 
stroke:#B2803A; stroke-width:0.0000; stroke-opacity:1; 
stroke-linecap:round; stroke-linejoin:round;">
<path style="fill:#B2803A; fill-opacity:1.0000; 
stroke:#B2803A; stroke-width:0.0000; stroke-opacity:1; 
stroke-linecap:round; stroke-linejoin:round;fill-rule:evenodd;"
d="M 2.5463,6.2713
2.5463,4.7473
4.0703,4.7473
4.0703,6.2713
Z" /> 
<circle cx="3.3083" cy="7.5093" r="0.7620" /> 
</g>
<g style="fill:#B2803A; fill-opacity:1.0000; 
stroke:#B2803A; stroke-width:0.0212; stroke-opacity:1; 
stroke-linecap:round; stroke-linejoin:round;">
</g>
<g style="fill:#B2803A; fill-opacity:1.0000; 
stroke:#B2803A; stroke-width:0.0000; stroke-opacity:1; 
stroke-linecap:round; stroke-linejoin:round;">
<circle cx="3.3083" cy="9.5093" r="0.7620" /> 
</g>
<g style="fill:#B2803A; fill-opacity:1.0000; 
stroke:#B2803A; stroke-width:0.0212; stroke-opacity:1; 
stroke-linecap:round; stroke-linejoin:round;">
</g>
<g style="fill:#B2803A; fill-opacity:1.0000; 
stroke:#B2803A; stroke-width:0.0000; stroke-opacity:1; 
stroke-linecap:round; stroke-linejoin:round;">
<circle cx="3.3083" cy="11.5093" r="0.7620" /> 
</g>
<g style="fill:#B2803A; fill-opacity:1.0000; 
stroke:#B2803A; stroke-width:0.0212; stroke-opacity:1; 
stroke-linecap:round; stroke-linejoin:round;">
</g>
<g >
</g>
<g >
</g>
<g style="fill:#B2803A; fill-opacity:1.0000; 
stroke:#B2803A; stroke-width:0.0212; stroke-opacity:1; 
stroke-linecap:round; stroke-linejoin:round;">
</g>
<g style="fill:#B2803A; fill-opacity:1.0000; 
stroke:#B2803A; stroke-width:0.0000; stroke-opacity:1; 
stroke-linecap:round; stroke-linejoin:round;">
<path style="fill:#B2803A; fill-opacity:1.0000; 
stroke:#B2803A; stroke-width:0.0000; stroke-opacity:1; 
stroke-linecap:round; stroke-linejoin:round;fill-rule:evenodd;"
d="M 8.0583,3.8593
8.0583,5.5593
6.3583,5.5593
6.3583,3.8593
Z" /> 
<circle cx="7.2083" cy="7.2493" r="0.8500" /> 
<circle cx="7.2083" cy="9.7893" r="0.8500" /> 
<circle cx="7.2083" cy="12.3293" r="0.8500" /> 
</g>
<g >
</g>
<g style="fill:#B2803A; fill-opacity:1.0000; 
stroke:#B2803A; stroke-width:0.0000; stroke-opacity:1; 
stroke-linecap:round; stroke-linejoin:round;">
<circle cx="1.6833" cy="11.8593" r="0.2500" /> 
</g>
<g style="fill:#B2803A; fill-opacity:1.0000; 
stroke:#B2803A; stroke-width:0.0212; stroke-opacity:1; 
stroke-linecap:round; stroke-linejoin:round;">
</g>
<g >
</g>
<g >
</g>
<g style="fill:#B2803A; fill-opacity:1.0000; 
stroke:#B2803A; stroke-width:0.0212; stroke-opacity:1; 
stroke-linecap:round; stroke-linejoin:round;">
</g>
<g style="fill:#B2803A; fill-opacity:1.0000; 
stroke:#B2803A; stroke-width:0.2500; stroke-opacity:1; 
stroke-linecap:round; stroke-linejoin:round;">
</g>
<g style="fill:#B2803A; fill-opacity:0.0; 
stroke:#B2803A; stroke-width:0.2500; stroke-opacity:1; 
stroke-linecap:round; stroke-linejoin:round;">
<path d="M7.2083 12.3293
L5.3883 12.3293
" />
</g>
<g >
</g>
<g style="fill:#B2803A; fill-opacity:0.0; 
stroke:#B2803A; stroke-width:0.2500; stroke-opacity:1; 
stroke-linecap:round; stroke-linejoin:round;">
<g >
</g>
<g style="fill:#B2803A; fill-opacity:1.0000; 
stroke:#B2803A; stroke-width:0.0000; stroke-opacity:1; 
stroke-linecap:round; stroke-linejoin:round;">
<path style="fill:#B2803A; fill-opacity:1.0000; 
stroke:#B2803A; stroke-width:0.0000; stroke-opacity:1; 
stroke-linecap:round; stroke-linejoin:round;fill-rule:evenodd;"
d="M 5.7203,5.5593
5.7325,5.6838
5.7688,5.8035
5.8278,5.9138
5.9071,6.0105
6.0038,6.0898
6.1142,6.1488
6.1867,6.1708
6.0549,6.3027
5.8923,6.5459
5.7804,6.8161
5.7233,7.1030
5.7233,7.3955
5.7804,7.6824
5.8923,7.9527
6.0549,8.1959
6.2617,8.4028
6.4361,8.5193
6.2617,8.6358
6.0549,8.8427
5.8923,9.0859
5.7804,9.3561
5.7233,9.6430
5.7233,9.9355
5.7804,10.2224
5.8923,10.4927
6.0549,10.7359
6.2617,10.9428
6.4439,11.0645
6.3270,11.1341
6.1107,11.3290
5.9367,11.5624
5.8115,11.8252
5.7669,11.9724
5.8882,12.2023
7.0813,12.2023
7.0813,12.1823
7.3353,12.1823
7.3353,12.2023
7.3553,12.2023
7.3553,12.4563
7.3353,12.4563
7.3353,12.4763
7.0813,12.4763
7.0813,12.4563
5.8882,12.4563
5.7669,12.6862
5.8115,12.8334
5.8667,12.9493
1.0683,12.9493
1.0683,12.4959
1.1192,12.5467
1.2641,12.6436
1.4252,12.7103
1.5962,12.7443
1.7705,12.7443
1.9415,12.7103
2.1025,12.6436
2.2475,12.5467
2.3193,12.4749
2.5224,12.4749
2.5894,12.7149
2.8384,12.8320
3.1055,12.8983
3.3803,12.9112
3.6525,12.8702
3.9114,12.7769
4.0273,12.7149
4.0943,12.4749
3.3083,11.6889
2.5224,12.4749
2.3193,12.4749
2.3708,12.4234
2.4676,12.2785
2.5343,12.1174
2.5377,12.1003
3.1287,11.5093
3.4879,11.5093
4.2739,12.2952
4.5140,12.2283
4.6311,11.9792
4.6974,11.7122
4.7102,11.4373
4.6693,11.1652
4.5760,10.9063
4.5140,10.7903
4.2739,10.7233
3.4879,11.5093
3.1287,11.5093
2.3428,10.7233
2.1027,10.7903
1.9906,11.0286
1.9415,11.0083
1.7705,10.9743
1.5962,10.9743
1.4252,11.0083
1.2641,11.0750
1.1192,11.1719
1.0683,11.2227
1.0683,4.7473
1.9083,4.7473
1.9083,6.2713
1.9205,6.3958
1.9568,6.5155
2.0158,6.6258
2.0951,6.7225
2.1331,6.7536
2.0703,6.8476
1.9650,7.1018
1.9113,7.3717
1.9113,7.6469
1.9650,7.9168
2.0703,8.1710
2.2232,8.3998
2.3327,8.5093
2.2232,8.6188
2.0703,8.8476
1.9650,9.1018
1.9113,9.3717
1.9113,9.6469
1.9650,9.9168
2.0703,10.1710
2.2232,10.3998
2.4178,10.5944
2.6466,10.7473
2.7820,10.8034
3.3083,11.3297
3.8346,10.8034
3.9701,10.7473
4.1989,10.5944
4.3935,10.3998
4.5463,10.1710
4.6516,9.9168
4.7053,9.6469
4.7053,9.3717
4.6516,9.1018
4.5463,8.8476
4.3935,8.6188
4.2840,8.5093
4.3935,8.3998
4.5463,8.1710
4.6516,7.9168
4.7053,7.6469
4.7053,7.3717
4.6516,7.1018
4.5463,6.8476
4.4836,6.7536
4.5215,6.7225
4.6009,6.6258
4.6598,6.5155
4.6961,6.3958
4.7084,6.2713
4.7084,4.7473
4.6961,4.6228
4.6598,4.5031
4.6009,4.3928
4.5215,4.2961
4.4248,4.2168
4.3145,4.1578
4.1948,4.1215
4.0703,4.1092
2.5463,4.1092
2.4219,4.1215
2.3022,4.1578
2.1918,4.2168
2.0951,4.2961
2.0158,4.3928
1.9568,4.5031
1.9205,4.6228
1.9083,4.7473
1.0683,4.7473
1.0683,4.0693
5.7203,4.0693
Z" /> 
</g>
</g>
</g>
<g style="fill:#000000; fill-opacity:1.0000; 
stroke:#000000; stroke-width:0.0000; stroke-opacity:1; 
stroke-linecap:round; stroke-linejoin:round;">
<circle cx="3.3083" cy="5.5093" r="0.3810" /> 
</g>
<g style="fill:#000000; fill-opacity:1.0000; 
stroke:#000000; stroke-width:0.0212; stroke-opacity:1; 
stroke-linecap:round; stroke-linejoin:round;">
</g>
<g style="fill:#000000; fill-opacity:1.0000; 
stroke:#000000; stroke-width:0.0000; stroke-opacity:1; 
stroke-linecap:round; stroke-linejoin:round;">
<circle cx="3.3083" cy="7.5093" r="0.3810" /> 
</g>
<g style="fill:#000000; fill-opacity:1.0000; 
stroke:#000000; stroke-width:0.0212; stroke-opacity:1; 
stroke-linecap:round; stroke-linejoin:round;">
</g>
<g style="fill:#000000; fill-opacity:1.0000; 
stroke:#000000; stroke-width:0.0000; stroke-opacity:1; 
stroke-linecap:round; stroke-linejoin:round;">
<circle cx="3.3083" cy="9.5093" r="0.3810" /> 
</g>
<g style="fill:#000000; fill-opacity:1.0000; 
stroke:#000000; stroke-width:0.0212; stroke-opacity:1; 
stroke-linecap:round; stroke-linejoin:round;">
</g>
<g style="fill:#000000; fill-opacity:1.0000; 
stroke:#000000; stroke-width:0.0000; stroke-opacity:1; 
stroke-linecap:round; stroke-linejoin:round;">
<circle cx="3.3083" cy="11.5093" r="0.3810" /> 
</g>
<g style="fill:#000000; fill-opacity:1.0000; 
stroke:#000000; stroke-width:0.0212; stroke-opacity:1; 
stroke-linecap:round; stroke-linejoin:round;">
</g>
<g style="fill:#000000; fill-opacity:1.0000; 
stroke:#000000; stroke-width:0.0000; stroke-opacity:1; 
stroke-linecap:round; stroke-linejoin:round;">
<circle cx="7.2083" cy="4.7093" r="0.5000" /> 
</g>
<g style="fill:#000000; fill-opacity:1.0000; 
stroke:#000000; stroke-width:0.0212; stroke-opacity:1; 
stroke-linecap:round; stroke-linejoin:round;">
</g>
<g style="fill:#000000; fill-opacity:1.0000; 
stroke:#000000; stroke-width:0.0000; stroke-opacity:1; 
stroke-linecap:round; stroke-linejoin:round;">
<circle cx="7.2083" cy="7.2493" r="0.5000" /> 
</g>
<g style="fill:#000000; fill-opacity:1.0000; 
stroke:#000000; stroke-width:0.0212; stroke-opacity:1; 
stroke-linecap:round; stroke-linejoin:round;">
</g>
<g style="fill:#000000; fill-opacity:1.0000; 
stroke:#000000; stroke-width:0.0000; stroke-opacity:1; 
stroke-linecap:round; stroke-linejoin:round;">
<circle cx="7.2083" cy="9.7893" r="0.5000" /> 
</g>
<g style="fill:#000000; fill-opacity:1.0000; 
stroke:#000000; stroke-width:0.0212; stroke-opacity:1; 
stroke-linecap:round; stroke-linejoin:round;">
</g>
<g style="fill:#000000; fill-opacity:1.0000; 
stroke:#000000; stroke-width:0.0000; stroke-opacity:1; 
stroke-linecap:round; stroke-linejoin:round;">
<circle cx="7.2083" cy="12.3293" r="0.5000" /> 
</g>
<g style="fill:#000000; fill-opacity:1.0000; 
stroke:#000000; stroke-width:0.0212; stroke-opacity:1; 
stroke-linecap:round; stroke-linejoin:round;">
</g>
<g style="fill:#FFFFFF; fill-opacity:1.0000; 
stroke:#FFFFFF; stroke-width:0.0212; stroke-opacity:1; 
stroke-linecap:round; stroke-linejoin:round;">
<g >
</g>
<g style="fill:#37CBCB; fill-opacity:1.0000; 
stroke:#37CBCB; stroke-width:0.0212; stroke-opacity:1; 
stroke-linecap:round; stroke-linejoin:round;">
</g>
<g style="fill:#37CBCB; fill-opacity:1.0000; 
stroke:#37CBCB; stroke-width:0.0000; stroke-opacity:1; 
stroke-linecap:round; stroke-linejoin:round;">
<path style="fill:#37CBCB; fill-opacity:1.0000; 
stroke:#37CBCB; stroke-width:0.0000; stroke-opacity:1; 
stroke-linecap:round; stroke-linejoin:round;fill-rule:evenodd;"
d="M 2.5463,6.2713
2.5463,4.7473
4.0703,4.7473
4.0703,6.2713
Z" /> 
<circle cx="3.3083" cy="7.5093" r="0.7620" /> 
</g>
<g style="fill:#37CBCB; fill-opacity:1.0000; 
stroke:#37CBCB; stroke-width:0.0212; stroke-opacity:1; 
stroke-linecap:round; stroke-linejoin:round;">
</g>
<g style="fill:#37CBCB; fill-opacity:1.0000; 
stroke:#37CBCB; stroke-width:0.0000; stroke-opacity:1; 
stroke-linecap:round; stroke-linejoin:round;">
<circle cx="3.3083" cy="9.5093" r="0.7620" /> 
</g>
<g style="fill:#37CBCB; fill-opacity:1.0000; 
stroke:#37CBCB; stroke-width:0.0212; stroke-opacity:1; 
stroke-linecap:round; stroke-linejoin:round;">
</g>
<g style="fill:#37CBCB; fill-opacity:1.0000; 
stroke:#37CBCB; stroke-width:0.0000; stroke-opacity:1; 
stroke-linecap:round; stroke-linejoin:round;">
<circle cx="3.3083" cy="11.5093" r="0.7620" /> 
</g>
<g style="fill:#37CBCB; fill-opacity:1.0000; 
stroke:#37CBCB; stroke-width:0.0212; stroke-opacity:1; 
stroke-linecap:round; stroke-linejoin:round;">
</g>
<g >
</g>
<g style="fill:#37CBCB; fill-opacity:1.0000; 
stroke:#37CBCB; stroke-width:0.0212; stroke-opacity:1; 
stroke-linecap:round; stroke-linejoin:round;">
</g>
<g style="fill:#37CBCB; fill-opacity:1.0000; 
stroke:#37CBCB; stroke-width:0.0000; stroke-opacity:1; 
stroke-linecap:round; stroke-linejoin:round;">
<circle cx="1.6833" cy="11.8593" r="0.2500" /> 
</g>
<g style="fill:#37CBCB; fill-opacity:1.0000; 
stroke:#37CBCB; stroke-width:0.0212; stroke-opacity:1; 
stroke-linecap:round; stroke-linejoin:round;">
</g>
<g >
</g>
<g style="fill:#37CBCB; fill-opacity:1.0000; 
stroke:#37CBCB; stroke-width:0.0212; stroke-opacity:1; 
stroke-linecap:round; stroke-linejoin:round;">
</g>
<g style="fill:#37CBCB; fill-opacity:1.0000; 
stroke:#37CBCB; stroke-width:0.0000; stroke-opacity:1; 
stroke-linecap:round; stroke-linejoin:round;">
<path style="fill:#37CBCB; fill-opacity:1.0000; 
stroke:#37CBCB; stroke-width:0.0000; stroke-opacity:1; 
stroke-linecap:round; stroke-linejoin:round;fill-rule:evenodd;"
d="M 8.0583,3.8593
8.0583,5.5593
6.3583,5.5593
6.3583,3.8593
Z" /> 
<circle cx="7.2083" cy="7.2493" r="0.8500" /> 
<circle cx="7.2083" cy="9.7893" r="0.8500" /> 
<circle cx="7.2083" cy="12.3293" r="0.8500" /> 
</g>
<g >
</g>
<g >
</g>
<g >
</g>
<g style="fill:#37CBCB; fill-opacity:1.0000; 
stroke:#37CBCB; stroke-width:0.0000; stroke-opacity:1; 
stroke-linecap:round; stroke-linejoin:round;">
</g>
<g style="fill:#37CBCB; fill-opacity:1.0000; 
stroke:#37CBCB; stroke-width:0.2500; stroke-opacity:1; 
stroke-linecap:round; stroke-linejoin:round;">
</g>
<g style="fill:#37CBCB; fill-opacity:0.0; 
stroke:#37CBCB; stroke-width:0.2500; stroke-opacity:1; 
stroke-linecap:round; stroke-linejoin:round;">
<path d="M7.2083 12.3293
L4.1283 12.3293
" />
<path d="M7.2083 12.3293
L5.3283 12.3293
" />
<path d="M4.1283 12.3293
L3.3083 11.5093
" />
<path d="M3.5883 9.7893
L3.3083 9.5093
" />
<path d="M7.2083 9.7893
L3.5883 9.7893
" />
<path d="M7.2083 7.2493
L3.5683 7.2493
" />
<path d="M3.5683 7.2493
L3.3083 7.5093
" />
<path d="M7.2083 4.7093
L4.1083 4.7093
" />
<path d="M4.1083 4.7093
L3.3083 5.5093
" />
</g>
<g >
</g>
<g style="fill:#37CBCB; fill-opacity:0.0; 
stroke:#37CBCB; stroke-width:0.2500; stroke-opacity:1; 
stroke-linecap:round; stroke-linejoin:round;">
<g >
</g>
<g style="fill:#37CBCB; fill-opacity:1.0000; 
stroke:#37CBCB; stroke-width:0.0000; stroke-opacity:1; 
stroke-linecap:round; stroke-linejoin:round;">
<path style="fill:#37CBCB; fill-opacity:1.0000; 
stroke:#37CBCB; stroke-width:0.0000; stroke-opacity:1; 
stroke-linecap:round; stroke-linejoin:round;fill-rule:evenodd;"
d="M 3.6841,4.0743
3.6415,4.1092
2.5463,4.1092
2.4219,4.1215
2.3022,4.1578
2.1918,4.2168
2.0951,4.2961
2.0158,4.3928
1.9568,4.5031
1.9205,4.6228
1.9083,4.7473
1.9083,6.2713
1.9205,6.3958
1.9568,6.5155
2.0158,6.6258
2.0951,6.7225
2.1331,6.7536
2.0703,6.8476
1.9650,7.1018
1.9113,7.3717
1.9113,7.6469
1.9650,7.9168
2.0703,8.1710
2.2232,8.3998
2.3327,8.5093
2.2232,8.6188
2.0703,8.8476
1.9650,9.1018
1.9113,9.3717
1.9113,9.6469
1.9650,9.9168
2.0703,10.1710
2.2232,10.3998
2.4178,10.5944
2.6466,10.7473
2.7820,10.8034
3.3083,11.3297
3.3225,11.3155
3.5021,11.4951
3.4879,11.5093
4.2739,12.2952
4.5140,12.2283
4.6311,11.9792
4.6974,11.7122
4.7102,11.4373
4.6693,11.1652
4.5760,10.9063
4.5140,10.7903
4.2739,10.7233
4.3903,10.6069
4.3327,10.5493
5.9302,10.5493
6.0549,10.7359
6.2617,10.9428
6.4439,11.0645
6.3270,11.1341
6.1107,11.3290
5.9367,11.5624
5.8115,11.8252
5.7669,11.9724
5.8882,12.2023
7.0813,12.2023
7.0813,12.1823
7.3353,12.1823
7.3353,12.2023
7.3553,12.2023
7.3553,12.4563
7.3353,12.4563
7.3353,12.4763
7.0813,12.4763
7.0813,12.4563
5.8882,12.4563
5.7669,12.6862
5.8115,12.8334
5.8667,12.9493
1.0683,12.9493
1.0683,12.4959
1.1192,12.5467
1.2641,12.6436
1.4252,12.7103
1.5962,12.7443
1.7705,12.7443
1.9415,12.7103
2.1025,12.6436
2.2475,12.5467
2.3193,12.4749
2.5224,12.4749
2.5894,12.7149
2.8384,12.8320
3.1055,12.8983
3.3803,12.9112
3.6525,12.8702
3.9114,12.7769
4.0273,12.7149
4.0943,12.4749
3.3083,11.6889
2.5224,12.4749
2.3193,12.4749
2.3708,12.4234
2.4676,12.2785
2.5343,12.1174
2.5377,12.1003
3.1287,11.5093
2.3428,10.7233
2.1027,10.7903
1.9906,11.0286
1.9415,11.0083
1.7705,10.9743
1.5962,10.9743
1.4252,11.0083
1.2641,11.0750
1.1192,11.1719
1.0683,11.2227
1.0683,4.0693
3.6935,4.0693
Z" /> 
</g>
</g>
</g>
<g style="fill:#000000; fill-opacity:1.0000; 
stroke:#000000; stroke-width:0.0000; stroke-opacity:1; 
stroke-linecap:round; stroke-linejoin:round;">
<circle cx="3.3083" cy="5.5093" r="0.3810" /> 
</g>
<g style="fill:#000000; fill-opacity:1.0000; 
stroke:#000000; stroke-width:0.0212; stroke-opacity:1; 
stroke-linecap:round; stroke-linejoin:round;">
</g>
<g style="fill:#000000; fill-opacity:1.0000; 
stroke:#000000; stroke-width:0.0000; stroke-opacity:1; 
stroke-linecap:round; stroke-linejoin:round;">
<circle cx="3.3083" cy="7.5093" r="0.3810" /> 
</g>
<g style="fill:#000000; fill-opacity:1.0000; 
stroke:#000000; stroke-width:0.0212; stroke-opacity:1; 
stroke-linecap:round; stroke-linejoin:round;">
</g>
<g style="fill:#000000; fill-opacity:1.0000; 
stroke:#000000; stroke-width:0.0000; stroke-opacity:1; 
stroke-linecap:round; stroke-linejoin:round;">
<circle cx="3.3083" cy="9.5093" r="0.3810" /> 
</g>
<g style="fill:#000000; fill-opacity:1.0000; 
stroke:#000000; stroke-width:0.0212; stroke-opacity:1; 
stroke-linecap:round; stroke-linejoin:round;">
</g>
<g style="fill:#000000; fill-opacity:1.0000; 
stroke:#000000; stroke-width:0.0000; stroke-opacity:1; 
stroke-linecap:round; stroke-linejoin:round;">
<circle cx="3.3083" cy="11.5093" r="0.3810" /> 
</g>
<g style="fill:#000000; fill-opacity:1.0000; 
stroke:#000000; stroke-width:0.0212; stroke-opacity:1; 
stroke-linecap:round; stroke-linejoin:round;">
</g>
<g style="fill:#000000; fill-opacity:1.0000; 
stroke:#000000; stroke-width:0.0000; stroke-opacity:1; 
stroke-linecap:round; stroke-linejoin:round;">
<circle cx="7.2083" cy="4.7093" r="0.5000" /> 
</g>
<g style="fill:#000000; fill-opacity:1.0000; 
stroke:#000000; stroke-width:0.0212; stroke-opacity:1; 
stroke-linecap:round; stroke-linejoin:round;">
</g>
<g style="fill:#000000; fill-opacity:1.0000; 
stroke:#000000; stroke-width:0.0000; stroke-opacity:1; 
stroke-linecap:round; stroke-linejoin:round;">
<circle cx="7.2083" cy="7.2493" r="0.5000" /> 
</g>
<g style="fill:#000000; fill-opacity:1.0000; 
stroke:#000000; stroke-width:0.0212; stroke-opacity:1; 
stroke-linecap:round; stroke-linejoin:round;">
</g>
<g style="fill:#000000; fill-opacity:1.0000; 
stroke:#000000; stroke-width:0.0000; stroke-opacity:1; 
stroke-linecap:round; stroke-linejoin:round;">
<circle cx="7.2083" cy="9.7893" r="0.5000" /> 
</g>
<g style="fill:#000000; fill-opacity:1.0000; 
stroke:#000000; stroke-width:0.0212; stroke-opacity:1; 
stroke-linecap:round; stroke-linejoin:round;">
</g>
<g style="fill:#000000; fill-opacity:1.0000; 
stroke:#000000; stroke-width:0.0000; stroke-opacity:1; 
stroke-linecap:round; stroke-linejoin:round;">
<circle cx="7.2083" cy="12.3293" r="0.5000" /> 
</g>
<g style="fill:#000000; fill-opacity:1.0000; 
stroke:#000000; stroke-width:0.0212; stroke-opacity:1; 
stroke-linecap:round; stroke-linejoin:round;">
</g>
<g style="fill:#FFFFFF; fill-opacity:1.0000; 
stroke:#FFFFFF; stroke-width:0.0212; stroke-opacity:1; 
stroke-linecap:round; stroke-linejoin:round;">
</g>
<g style="fill:#3D3D3D; fill-opacity:1.0000; 
stroke:#3D3D3D; stroke-width:0.0212; stroke-opacity:1; 
stroke-linecap:round; stroke-linejoin:round;">
</g>
<g style="fill:#3D3D3D; fill-opacity:1.0000; 
stroke:#3D3D3D; stroke-width:0.1500; stroke-opacity:1; 
stroke-linecap:round; stroke-linejoin:round;">
</g>
<g style="fill:#3D3D3D; fill-opacity:0.0; 
stroke:#3D3D3D; stroke-width:0.1500; stroke-opacity:1; 
stroke-linecap:round; stroke-linejoin:round;">
<text x="4.4583" y="16.2513"
textLength="8.9167" font-size="1.3333" lengthAdjust="spacingAndGlyphs"
text-anchor="middle" opacity="0">8.1000 mm</text>
<g class="stroked-text"><desc>8.1000 mm</desc>
<path d="M0.5060 15.6347
L0.4107 15.5871
" />
<path d="M0.4107 15.5871
L0.3631 15.5394
" />
<path d="M0.3631 15.5394
L0.3155 15.4442
" />
<path d="M0.3155 15.4442
L0.3155 15.3966
" />
<path d="M0.3155 15.3966
L0.3631 15.3013
" />
<path d="M0.3631 15.3013
L0.4107 15.2537
" />
<path d="M0.4107 15.2537
L0.5060 15.2061
" />
<path d="M0.5060 15.2061
L0.6964 15.2061
" />
<path d="M0.6964 15.2061
L0.7917 15.2537
" />
<path d="M0.7917 15.2537
L0.8393 15.3013
" />
<path d="M0.8393 15.3013
L0.8869 15.3966
" />
<path d="M0.8869 15.3966
L0.8869 15.4442
" />
<path d="M0.8869 15.4442
L0.8393 15.5394
" />
<path d="M0.8393 15.5394
L0.7917 15.5871
" />
<path d="M0.7917 15.5871
L0.6964 15.6347
" />
<path d="M0.6964 15.6347
L0.5060 15.6347
" />
<path d="M0.5060 15.6347
L0.4107 15.6823
" />
<path d="M0.4107 15.6823
L0.3631 15.7299
" />
<path d="M0.3631 15.7299
L0.3155 15.8252
" />
<path d="M0.3155 15.8252
L0.3155 16.0156
" />
<path d="M0.3155 16.0156
L0.3631 16.1109
" />
<path d="M0.3631 16.1109
L0.4107 16.1585
" />
<path d="M0.4107 16.1585
L0.5060 16.2061
" />
<path d="M0.5060 16.2061
L0.6964 16.2061
" />
<path d="M0.6964 16.2061
L0.7917 16.1585
" />
<path d="M0.7917 16.1585
L0.8393 16.1109
" />
<path d="M0.8393 16.1109
L0.8869 16.0156
" />
<path d="M0.8869 16.0156
L0.8869 15.8252
" />
<path d="M0.8869 15.8252
L0.8393 15.7299
" />
<path d="M0.8393 15.7299
L0.7917 15.6823
" />
<path d="M0.7917 15.6823
L0.6964 15.6347
" />
<path d="M1.3155 16.1109
L1.3631 16.1585
" />
<path d="M1.3631 16.1585
L1.3155 16.2061
" />
<path d="M1.3155 16.2061
L1.2679 16.1585
" />
<path d="M1.2679 16.1585
L1.3155 16.1109
" />
<path d="M1.3155 16.1109
L1.3155 16.2061
" />
<path d="M2.3155 16.2061
L1.7440 16.2061
" />
<path d="M2.0298 16.2061
L2.0298 15.2061
" />
<path d="M2.0298 15.2061
L1.9345 15.3490
" />
<path d="M1.9345 15.3490
L1.8393 15.4442
" />
<path d="M1.8393 15.4442
L1.7440 15.4918
" />
<path d="M2.9345 15.2061
L3.0298 15.2061
" />
<path d="M3.0298 15.2061
L3.1250 15.2537
" />
<path d="M3.1250 15.2537
L3.1726 15.3013
" />
<path d="M3.1726 15.3013
L3.2202 15.3966
" />
<path d="M3.2202 15.3966
L3.2679 15.5871
" />
<path d="M3.2679 15.5871
L3.2679 15.8252
" />
<path d="M3.2679 15.8252
L3.2202 16.0156
" />
<path d="M3.2202 16.0156
L3.1726 16.1109
" />
<path d="M3.1726 16.1109
L3.1250 16.1585
" />
<path d="M3.1250 16.1585
L3.0298 16.2061
" />
<path d="M3.0298 16.2061
L2.9345 16.2061
" />
<path d="M2.9345 16.2061
L2.8393 16.1585
" />
<path d="M2.8393 16.1585
L2.7917 16.1109
" />
<path d="M2.7917 16.1109
L2.7440 16.0156
" />
<path d="M2.7440 16.0156
L2.6964 15.8252
" />
<path d="M2.6964 15.8252
L2.6964 15.5871
" />
<path d="M2.6964 15.5871
L2.7440 15.3966
" />
<path d="M2.7440 15.3966
L2.7917 15.3013
" />
<path d="M2.7917 15.3013
L2.8393 15.2537
" />
<path d="M2.8393 15.2537
L2.9345 15.2061
" />
<path d="M3.8869 15.2061
L3.9821 15.2061
" />
<path d="M3.9821 15.2061
L4.0774 15.2537
" />
<path d="M4.0774 15.2537
L4.1250 15.3013
" />
<path d="M4.1250 15.3013
L4.1726 15.3966
" />
<path d="M4.1726 15.3966
L4.2202 15.5871
" />
<path d="M4.2202 15.5871
L4.2202 15.8252
" />
<path d="M4.2202 15.8252
L4.1726 16.0156
" />
<path d="M4.1726 16.0156
L4.1250 16.1109
" />
<path d="M4.1250 16.1109
L4.0774 16.1585
" />
<path d="M4.0774 16.1585
L3.9821 16.2061
" />
<path d="M3.9821 16.2061
L3.8869 16.2061
" />
<path d="M3.8869 16.2061
L3.7917 16.1585
" />
<path d="M3.7917 16.1585
L3.7440 16.1109
" />
<path d="M3.7440 16.1109
L3.6964 16.0156
" />
<path d="M3.6964 16.0156
L3.6488 15.8252
" />
<path d="M3.6488 15.8252
L3.6488 15.5871
" />
<path d="M3.6488 15.5871
L3.6964 15.3966
" />
<path d="M3.6964 15.3966
L3.7440 15.3013
" />
<path d="M3.7440 15.3013
L3.7917 15.2537
" />
<path d="M3.7917 15.2537
L3.8869 15.2061
" />
<path d="M4.8393 15.2061
L4.9345 15.2061
" />
<path d="M4.9345 15.2061
L5.0298 15.2537
" />
<path d="M5.0298 15.2537
L5.0774 15.3013
" />
<path d="M5.0774 15.3013
L5.1250 15.3966
" />
<path d="M5.1250 15.3966
L5.1726 15.5871
" />
<path d="M5.1726 15.5871
L5.1726 15.8252
" />
<path d="M5.1726 15.8252
L5.1250 16.0156
" />
<path d="M5.1250 16.0156
L5.0774 16.1109
" />
<path d="M5.0774 16.1109
L5.0298 16.1585
" />
<path d="M5.0298 16.1585
L4.9345 16.2061
" />
<path d="M4.9345 16.2061
L4.8393 16.2061
" />
<path d="M4.8393 16.2061
L4.7440 16.1585
" />
<path d="M4.7440 16.1585
L4.6964 16.1109
" />
<path d="M4.6964 16.1109
L4.6488 16.0156
" />
<path d="M4.6488 16.0156
L4.6012 15.8252
" />
<path d="M4.6012 15.8252
L4.6012 15.5871
" />
<path d="M4.6012 15.5871
L4.6488 15.3966
" />
<path d="M4.6488 15.3966
L4.6964 15.3013
" />
<path d="M4.6964 15.3013
L4.7440 15.2537
" />
<path d="M4.7440 15.2537
L4.8393 15.2061
" />
<path d="M6.3631 16.2061
L6.3631 15.5394
" />
<path d="M6.3631 15.6347
L6.4107 15.5871
" />
<path d="M6.4107 15.5871
L6.5060 15.5394
" />
<path d="M6.5060 15.5394
L6.6488 15.5394
" />
<path d="M6.6488 15.5394
L6.7440 15.5871
" />
<path d="M6.7440 15.5871
L6.7917 15.6823
" />
<path d="M6.7917 15.6823
L6.7917 16.2061
" />
<path d="M6.7917 15.6823
L6.8393 15.5871
" />
<path d="M6.8393 15.5871
L6.9345 15.5394
" />
<path d="M6.9345 15.5394
L7.0774 15.5394
" />
<path d="M7.0774 15.5394
L7.1726 15.5871
" />
<path d="M7.1726 15.5871
L7.2202 15.6823
" />
<path d="M7.2202 15.6823
L7.2202 16.2061
" />
<path d="M7.6964 16.2061
L7.6964 15.5394
" />
<path d="M7.6964 15.6347
L7.7440 15.5871
" />
<path d="M7.7440 15.5871
L7.8393 15.5394
" />
<path d="M7.8393 15.5394
L7.9821 15.5394
" />
<path d="M7.9821 15.5394
L8.0774 15.5871
" />
<path d="M8.0774 15.5871
L8.1250 15.6823
" />
<path d="M8.1250 15.6823
L8.1250 16.2061
" />
<path d="M8.1250 15.6823
L8.1726 15.5871
" />
<path d="M8.1726 15.5871
L8.2679 15.5394
" />
<path d="M8.2679 15.5394
L8.4107 15.5394
" />
<path d="M8.4107 15.5394
L8.5060 15.5871
" />
<path d="M8.5060 15.5871
L8.5536 15.6823
" />
<path d="M8.5536 15.6823
L8.5536 16.2061
" />
</g><path d="M0.4083 13.6093
L0.4083 17.4877
" />
<path d="M8.5083 13.6093
L8.5083 17.4877
" />
<path d="M0.4083 16.9013
L8.5083 16.9013
" />
<path d="M0.4083 16.9013
L8.5083 16.9013
" />
<path d="M0.4083 16.9013
L1.5348 16.3149
" />
<path d="M0.4083 16.9013
L1.5348 17.4877
" />
<path d="M8.5083 16.9013
L7.3818 17.4877
" />
<path d="M8.5083 16.9013
L7.3818 16.3149
" />
<g transform="rotate(-90.000000 9.0583 8.5093)">
<text x="9.0583" y="9.0093"
textLength="9.8690" font-size="1.3333" lengthAdjust="spacingAndGlyphs"
text-anchor="middle" opacity="0">10.2000 mm</text>
</g>
<g class="stroked-text"><desc>10.2000 mm</desc>
<path d="M9.5132 12.5569
L9.5132 13.1283
" />
<path d="M9.5132 12.8426
L8.5132 12.8426
" />
<path d="M8.5132 12.8426
L8.6560 12.9379
" />
<path d="M8.6560 12.9379
L8.7512 13.0331
" />
<path d="M8.7512 13.0331
L8.7989 13.1283
" />
<path d="M8.5132 11.9379
L8.5132 11.8426
" />
<path d="M8.5132 11.8426
L8.5608 11.7474
" />
<path d="M8.5608 11.7474
L8.6084 11.6998
" />
<path d="M8.6084 11.6998
L8.7036 11.6521
" />
<path d="M8.7036 11.6521
L8.8941 11.6045
" />
<path d="M8.8941 11.6045
L9.1322 11.6045
" />
<path d="M9.1322 11.6045
L9.3227 11.6521
" />
<path d="M9.3227 11.6521
L9.4179 11.6998
" />
<path d="M9.4179 11.6998
L9.4655 11.7474
" />
<path d="M9.4655 11.7474
L9.5132 11.8426
" />
<path d="M9.5132 11.8426
L9.5132 11.9379
" />
<path d="M9.5132 11.9379
L9.4655 12.0331
" />
<path d="M9.4655 12.0331
L9.4179 12.0807
" />
<path d="M9.4179 12.0807
L9.3227 12.1283
" />
<path d="M9.3227 12.1283
L9.1322 12.1760
" />
<path d="M9.1322 12.1760
L8.8941 12.1760
" />
<path d="M8.8941 12.1760
L8.7036 12.1283
" />
<path d="M8.7036 12.1283
L8.6084 12.0807
" />
<path d="M8.6084 12.0807
L8.5608 12.0331
" />
<path d="M8.5608 12.0331
L8.5132 11.9379
" />
<path d="M9.4179 11.1760
L9.4655 11.1283
" />
<path d="M9.4655 11.1283
L9.5132 11.1760
" />
<path d="M9.5132 11.1760
L9.4655 11.2236
" />
<path d="M9.4655 11.2236
L9.4179 11.1760
" />
<path d="M9.4179 11.1760
L9.5132 11.1760
" />
<path d="M8.6084 10.7474
L8.5608 10.6998
" />
<path d="M8.5608 10.6998
L8.5132 10.6045
" />
<path d="M8.5132 10.6045
L8.5132 10.3664
" />
<path d="M8.5132 10.3664
L8.5608 10.2712
" />
<path d="M8.5608 10.2712
L8.6084 10.2236
" />
<path d="M8.6084 10.2236
L8.7036 10.1760
" />
<path d="M8.7036 10.1760
L8.7989 10.1760
" />
<path d="M8.7989 10.1760
L8.9417 10.2236
" />
<path d="M8.9417 10.2236
L9.5132 10.7950
" />
<path d="M9.5132 10.7950
L9.5132 10.1760
" />
<path d="M8.5132 9.5569
L8.5132 9.4617
" />
<path d="M8.5132 9.4617
L8.5608 9.3664
" />
<path d="M8.5608 9.3664
L8.6084 9.3188
" />
<path d="M8.6084 9.3188
L8.7036 9.2712
" />
<path d="M8.7036 9.2712
L8.8941 9.2236
" />
<path d="M8.8941 9.2236
L9.1322 9.2236
" />
<path d="M9.1322 9.2236
L9.3227 9.2712
" />
<path d="M9.3227 9.2712
L9.4179 9.3188
" />
<path d="M9.4179 9.3188
L9.4655 9.3664
" />
<path d="M9.4655 9.3664
L9.5132 9.4617
" />
<path d="M9.5132 9.4617
L9.5132 9.5569
" />
<path d="M9.5132 9.5569
L9.4655 9.6521
" />
<path d="M9.4655 9.6521
L9.4179 9.6998
" />
<path d="M9.4179 9.6998
L9.3227 9.7474
" />
<path d="M9.3227 9.7474
L9.1322 9.7950
" />
<path d="M9.1322 9.7950
L8.8941 9.7950
" />
<path d="M8.8941 9.7950
L8.7036 9.7474
" />
<path d="M8.7036 9.7474
L8.6084 9.6998
" />
<path d="M8.6084 9.6998
L8.5608 9.6521
" />
<path d="M8.5608 9.6521
L8.5132 9.5569
" />
<path d="M8.5132 8.6045
L8.5132 8.5093
" />
<path d="M8.5132 8.5093
L8.5608 8.4140
" />
<path d="M8.5608 8.4140
L8.6084 8.3664
" />
<path d="M8.6084 8.3664
L8.7036 8.3188
" />
<path d="M8.7036 8.3188
L8.8941 8.2712
" />
<path d="M8.8941 8.2712
L9.1322 8.2712
" />
<path d="M9.1322 8.2712
L9.3227 8.3188
" />
<path d="M9.3227 8.3188
L9.4179 8.3664
" />
<path d="M9.4179 8.3664
L9.4655 8.4140
" />
<path d="M9.4655 8.4140
L9.5132 8.5093
" />
<path d="M9.5132 8.5093
L9.5132 8.6045
" />
<path d="M9.5132 8.6045
L9.4655 8.6998
" />
<path d="M9.4655 8.6998
L9.4179 8.7474
" />
<path d="M9.4179 8.7474
L9.3227 8.7950
" />
<path d="M9.3227 8.7950
L9.1322 8.8426
" />
<path d="M9.1322 8.8426
L8.8941 8.8426
" />
<path d="M8.8941 8.8426
L8.7036 8.7950
" />
<path d="M8.7036 8.7950
L8.6084 8.7474
" />
<path d="M8.6084 8.7474
L8.5608 8.6998
" />
<path d="M8.5608 8.6998
L8.5132 8.6045
" />
<path d="M8.5132 7.6521
L8.5132 7.5569
" />
<path d="M8.5132 7.5569
L8.5608 7.4617
" />
<path d="M8.5608 7.4617
L8.6084 7.4140
" />
<path d="M8.6084 7.4140
L8.7036 7.3664
" />
<path d="M8.7036 7.3664
L8.8941 7.3188
" />
<path d="M8.8941 7.3188
L9.1322 7.3188
" />
<path d="M9.1322 7.3188
L9.3227 7.3664
" />
<path d="M9.3227 7.3664
L9.4179 7.4140
" />
<path d="M9.4179 7.4140
L9.4655 7.4617
" />
<path d="M9.4655 7.4617
L9.5132 7.5569
" />
<path d="M9.5132 7.5569
L9.5132 7.6521
" />
<path d="M9.5132 7.6521
L9.4655 7.7474
" />
<path d="M9.4655 7.7474
L9.4179 7.7950
" />
<path d="M9.4179 7.7950
L9.3227 7.8426
" />
<path d="M9.3227 7.8426
L9.1322 7.8902
" />
<path d="M9.1322 7.8902
L8.8941 7.8902
" />
<path d="M8.8941 7.8902
L8.7036 7.8426
" />
<path d="M8.7036 7.8426
L8.6084 7.7950
" />
<path d="M8.6084 7.7950
L8.5608 7.7474
" />
<path d="M8.5608 7.7474
L8.5132 7.6521
" />
<path d="M9.5132 6.1283
L8.8465 6.1283
" />
<path d="M8.9417 6.1283
L8.8941 6.0807
" />
<path d="M8.8941 6.0807
L8.8465 5.9855
" />
<path d="M8.8465 5.9855
L8.8465 5.8426
" />
<path d="M8.8465 5.8426
L8.8941 5.7474
" />
<path d="M8.8941 5.7474
L8.9893 5.6998
" />
<path d="M8.9893 5.6998
L9.5132 5.6998
" />
<path d="M8.9893 5.6998
L8.8941 5.6521
" />
<path d="M8.8941 5.6521
L8.8465 5.5569
" />
<path d="M8.8465 5.5569
L8.8465 5.4140
" />
<path d="M8.8465 5.4140
L8.8941 5.3188
" />
<path d="M8.8941 5.3188
L8.9893 5.2712
" />
<path d="M8.9893 5.2712
L9.5132 5.2712
" />
<path d="M9.5132 4.7950
L8.8465 4.7950
" />
<path d="M8.9417 4.7950
L8.8941 4.7474
" />
<path d="M8.8941 4.7474
L8.8465 4.6521
" />
<path d="M8.8465 4.6521
L8.8465 4.5093
" />
<path d="M8.8465 4.5093
L8.8941 4.4140
" />
<path d="M8.8941 4.4140
L8.9893 4.3664
" />
<path d="M8.9893 4.3664
L9.5132 4.3664
" />
<path d="M8.9893 4.3664
L8.8941 4.3188
" />
<path d="M8.8941 4.3188
L8.8465 4.2236
" />
<path d="M8.8465 4.2236
L8.8465 4.0807
" />
<path d="M8.8465 4.0807
L8.8941 3.9855
" />
<path d="M8.8941 3.9855
L8.9893 3.9379
" />
<path d="M8.9893 3.9379
L9.5132 3.9379
" />
</g><path d="M8.5083 3.4093
L10.7948 3.4093
" />
<path d="M8.5083 13.6093
L10.7948 13.6093
" />
<path d="M10.2083 3.4093
L10.2083 13.6093
" />
<path d="M10.2083 3.4093
L10.2083 13.6093
" />
<path d="M10.2083 3.4093
L10.7948 4.5358
" />
<path d="M10.2083 3.4093
L9.6219 4.5358
" />
<path d="M10.2083 13.6093
L9.6219 12.4828
" />
<path d="M10.2083 13.6093
L10.7948 12.4828
" />
<g >
</g>
<g >
</g>
<g >
</g>
<g >
</g>
<g >
</g>
<g >
</g>
<g >
</g>
</g>
<g style="fill:#FFFFFF; fill-opacity:0.0; 
stroke:#FFFFFF; stroke-width:0.1500; stroke-opacity:1; 
stroke-linecap:round; stroke-linejoin:round;">
</g>
<g style="fill:#2F2D31; fill-opacity:0.0; 
stroke:#2F2D31; stroke-width:0.1500; stroke-opacity:1; 
stroke-linecap:round; stroke-linejoin:round;">
</g>
<g style="fill:#2F2D31; fill-opacity:0.0; 
stroke:#2F2D31; stroke-width:0.0500; stroke-opacity:1; 
stroke-linecap:round; stroke-linejoin:round;">
<path d="M8.5083 3.4093
L8.5083 13.6093
" />
<path d="M0.4083 13.6093
L0.4083 3.4093
" />
<path d="M8.5083 13.6093
L0.4083 13.6093
" />
<path d="M0.4083 3.4093
L8.5083 3.4093
" />
<g >
</g>
<g >
</g>
<g >
</g>
<g >
</g>
<g >
</g>
<g >
</g>
<g >
</g>
</g> 
</svg>
