<?xml version="1.0" standalone="no"?>
 <!DOCTYPE svg PUBLIC "-//W3C//DTD SVG 1.1//EN" 
 "http://www.w3.org/Graphics/SVG/1.1/DTD/svg11.dtd"> 
<svg
  xmlns:svg="http://www.w3.org/2000/svg"
  xmlns="http://www.w3.org/2000/svg"
  xmlns:xlink="http://www.w3.org/1999/xlink"
  version="1.1"
  width="41.7322mm" height="53.0860mm" viewBox="0.0000 0.0000 41.7322 53.0860">
<title>SVG Image created as working-brd.svg date 2023/09/19 16:19:26 </title>
  <desc>Image generated by PCBNEW </desc>
<g style="fill:#000000; fill-opacity:1.0000;stroke:#000000; stroke-opacity:1.0000;
stroke-linecap:round; stroke-linejoin:round;"
 transform="translate(0 0) scale(1 1)">
</g>
<g style="fill:#000000; fill-opacity:0.0; 
stroke:#000000; stroke-width:0.0000; stroke-opacity:1; 
stroke-linecap:round; stroke-linejoin:round;">
</g>
<g style="fill:#000000; fill-opacity:1.0000; 
stroke:#000000; stroke-width:0.0212; stroke-opacity:1; 
stroke-linecap:round; stroke-linejoin:round;">
<rect x="-5.000000" y="-5.000000" width="51.756000" height="63.109000" rx="0.000000" />
</g>
<g style="fill:#FFFFFF; fill-opacity:1.0000; 
stroke:#FFFFFF; stroke-width:0.0212; stroke-opacity:1; 
stroke-linecap:round; stroke-linejoin:round;">
<g >
</g>
<g >
</g>
<g style="fill:#B2803A; fill-opacity:1.0000; 
stroke:#B2803A; stroke-width:0.0212; stroke-opacity:1; 
stroke-linecap:round; stroke-linejoin:round;">
</g>
<g style="fill:#B2803A; fill-opacity:1.0000; 
stroke:#B2803A; stroke-width:1.5011; stroke-opacity:1; 
stroke-linecap:round; stroke-linejoin:round;">
</g>
<g style="fill:#B2803A; fill-opacity:0.0; 
stroke:#B2803A; stroke-width:1.5011; stroke-opacity:1; 
stroke-linecap:round; stroke-linejoin:round;">
<path d="M21.2590 16.9571
L21.2590 15.9589
" />
<path d="M18.7190 16.9571
L18.7190 15.9589
" />
<path d="M23.7990 16.9571
L23.7990 15.9589
" />
</g>
<g >
</g>
<g >
</g>
<g >
</g>
<g >
</g>
<g >
</g>
<g style="fill:#B2803A; fill-opacity:0.0; 
stroke:#B2803A; stroke-width:1.5011; stroke-opacity:1; 
stroke-linecap:round; stroke-linejoin:round;">
</g>
<g style="fill:#B2803A; fill-opacity:1.0000; 
stroke:#B2803A; stroke-width:0.0000; stroke-opacity:1; 
stroke-linecap:round; stroke-linejoin:round;">
<circle cx="20.4007" cy="20.1717" r="0.9995" /> 
</g>
<g style="fill:#B2803A; fill-opacity:1.0000; 
stroke:#B2803A; stroke-width:0.0212; stroke-opacity:1; 
stroke-linecap:round; stroke-linejoin:round;">
</g>
<g style="fill:#B2803A; fill-opacity:1.0000; 
stroke:#B2803A; stroke-width:0.0000; stroke-opacity:1; 
stroke-linecap:round; stroke-linejoin:round;">
<circle cx="31.0073" cy="30.7783" r="0.9995" /> 
</g>
<g style="fill:#B2803A; fill-opacity:1.0000; 
stroke:#B2803A; stroke-width:0.0212; stroke-opacity:1; 
stroke-linecap:round; stroke-linejoin:round;">
</g>
<g >
</g>
<g >
</g>
<g >
</g>
<g >
</g>
<g style="fill:#B2803A; fill-opacity:1.0000; 
stroke:#B2803A; stroke-width:0.0212; stroke-opacity:1; 
stroke-linecap:round; stroke-linejoin:round;">
</g>
<g style="fill:#B2803A; fill-opacity:1.0000; 
stroke:#B2803A; stroke-width:0.0000; stroke-opacity:1; 
stroke-linecap:round; stroke-linejoin:round;">
<path style="fill:#B2803A; fill-opacity:1.0000; 
stroke:#B2803A; stroke-width:0.0000; stroke-opacity:1; 
stroke-linecap:round; stroke-linejoin:round;fill-rule:evenodd;"
d="M 38.4040,46.0490
35.8640,46.0490
35.8640,43.5090
38.4040,43.5090
Z" /> 
<circle cx="37.1340" cy="39.6990" r="1.2700" /> 
</g>
<g >
</g>
<g style="fill:#B2803A; fill-opacity:1.0000; 
stroke:#B2803A; stroke-width:0.0000; stroke-opacity:1; 
stroke-linecap:round; stroke-linejoin:round;">
<path style="fill:#B2803A; fill-opacity:1.0000; 
stroke:#B2803A; stroke-width:0.0000; stroke-opacity:1; 
stroke-linecap:round; stroke-linejoin:round;fill-rule:evenodd;"
d="M 38.4040,34.7460
35.8640,34.7460
35.8640,32.2060
38.4040,32.2060
Z" /> 
<circle cx="37.1340" cy="28.3960" r="1.2700" /> 
</g>
<g >
</g>
<g style="fill:#B2803A; fill-opacity:1.0000; 
stroke:#B2803A; stroke-width:0.0000; stroke-opacity:1; 
stroke-linecap:round; stroke-linejoin:round;">
<path style="fill:#B2803A; fill-opacity:1.0000; 
stroke:#B2803A; stroke-width:0.0000; stroke-opacity:1; 
stroke-linecap:round; stroke-linejoin:round;fill-rule:evenodd;"
d="M 32.0540,39.5466
30.0220,39.5466
30.0220,37.8194
32.0540,37.8194
Z" /> 
</g>
<g style="fill:#B2803A; fill-opacity:1.0000; 
stroke:#B2803A; stroke-width:1.7272; stroke-opacity:1; 
stroke-linecap:round; stroke-linejoin:round;">
</g>
<g style="fill:#B2803A; fill-opacity:0.0; 
stroke:#B2803A; stroke-width:1.7272; stroke-opacity:1; 
stroke-linecap:round; stroke-linejoin:round;">
<path d="M30.8856 36.1430
L31.1904 36.1430
" />
<path d="M30.8856 33.6030
L31.1904 33.6030
" />
</g>
<g >
</g>
<g style="fill:#B2803A; fill-opacity:0.0; 
stroke:#B2803A; stroke-width:1.7272; stroke-opacity:1; 
stroke-linecap:round; stroke-linejoin:round;">
</g>
<g style="fill:#B2803A; fill-opacity:1.0000; 
stroke:#B2803A; stroke-width:0.0000; stroke-opacity:1; 
stroke-linecap:round; stroke-linejoin:round;">
<circle cx="4.9160" cy="44.1440" r="1.0000" /> 
</g>
<g style="fill:#B2803A; fill-opacity:1.0000; 
stroke:#B2803A; stroke-width:0.0212; stroke-opacity:1; 
stroke-linecap:round; stroke-linejoin:round;">
</g>
<g style="fill:#B2803A; fill-opacity:1.0000; 
stroke:#B2803A; stroke-width:0.0000; stroke-opacity:1; 
stroke-linecap:round; stroke-linejoin:round;">
<circle cx="7.4160" cy="44.1440" r="1.0000" /> 
</g>
<g style="fill:#B2803A; fill-opacity:1.0000; 
stroke:#B2803A; stroke-width:0.0212; stroke-opacity:1; 
stroke-linecap:round; stroke-linejoin:round;">
</g>
<g style="fill:#B2803A; fill-opacity:1.0000; 
stroke:#B2803A; stroke-width:0.0000; stroke-opacity:1; 
stroke-linecap:round; stroke-linejoin:round;">
<circle cx="9.9160" cy="44.1440" r="1.0000" /> 
</g>
<g style="fill:#B2803A; fill-opacity:1.0000; 
stroke:#B2803A; stroke-width:0.0212; stroke-opacity:1; 
stroke-linecap:round; stroke-linejoin:round;">
</g>
<g >
</g>
<g style="fill:#B2803A; fill-opacity:1.0000; 
stroke:#B2803A; stroke-width:0.0212; stroke-opacity:1; 
stroke-linecap:round; stroke-linejoin:round;">
</g>
<g style="fill:#B2803A; fill-opacity:1.0000; 
stroke:#B2803A; stroke-width:0.0000; stroke-opacity:1; 
stroke-linecap:round; stroke-linejoin:round;">
<circle cx="18.8860" cy="44.0170" r="1.0000" /> 
</g>
<g style="fill:#B2803A; fill-opacity:1.0000; 
stroke:#B2803A; stroke-width:0.0212; stroke-opacity:1; 
stroke-linecap:round; stroke-linejoin:round;">
</g>
<g style="fill:#B2803A; fill-opacity:1.0000; 
stroke:#B2803A; stroke-width:0.0000; stroke-opacity:1; 
stroke-linecap:round; stroke-linejoin:round;">
<circle cx="21.3860" cy="44.0170" r="1.0000" /> 
</g>
<g style="fill:#B2803A; fill-opacity:1.0000; 
stroke:#B2803A; stroke-width:0.0212; stroke-opacity:1; 
stroke-linecap:round; stroke-linejoin:round;">
</g>
<g style="fill:#B2803A; fill-opacity:1.0000; 
stroke:#B2803A; stroke-width:0.0000; stroke-opacity:1; 
stroke-linecap:round; stroke-linejoin:round;">
<circle cx="23.8860" cy="44.0170" r="1.0000" /> 
</g>
<g style="fill:#B2803A; fill-opacity:1.0000; 
stroke:#B2803A; stroke-width:0.0212; stroke-opacity:1; 
stroke-linecap:round; stroke-linejoin:round;">
</g>
<g >
</g>
<g >
</g>
<g >
</g>
<g >
</g>
<g >
</g>
<g style="fill:#B2803A; fill-opacity:1.0000; 
stroke:#B2803A; stroke-width:0.0212; stroke-opacity:1; 
stroke-linecap:round; stroke-linejoin:round;">
</g>
<g style="fill:#B2803A; fill-opacity:1.0000; 
stroke:#B2803A; stroke-width:0.0000; stroke-opacity:1; 
stroke-linecap:round; stroke-linejoin:round;">
<path style="fill:#B2803A; fill-opacity:1.0000; 
stroke:#B2803A; stroke-width:0.0000; stroke-opacity:1; 
stroke-linecap:round; stroke-linejoin:round;fill-rule:evenodd;"
d="M 9.2575,31.4440
10.6545,31.4440
10.6545,32.3330
9.2575,32.3330
Z" /> 
<path style="fill:#B2803A; fill-opacity:1.0000; 
stroke:#B2803A; stroke-width:0.0000; stroke-opacity:1; 
stroke-linecap:round; stroke-linejoin:round;fill-rule:evenodd;"
d="M 9.2575,33.3490
10.6545,33.3490
10.6545,34.2380
9.2575,34.2380
Z" /> 
</g>
<g >
</g>
<g style="fill:#B2803A; fill-opacity:1.0000; 
stroke:#B2803A; stroke-width:0.0000; stroke-opacity:1; 
stroke-linecap:round; stroke-linejoin:round;">
<path style="fill:#B2803A; fill-opacity:1.0000; 
stroke:#B2803A; stroke-width:0.0000; stroke-opacity:1; 
stroke-linecap:round; stroke-linejoin:round;fill-rule:evenodd;"
d="M 28.9425,35.6350
27.5455,35.6350
27.5455,34.7460
28.9425,34.7460
Z" /> 
<path style="fill:#B2803A; fill-opacity:1.0000; 
stroke:#B2803A; stroke-width:0.0000; stroke-opacity:1; 
stroke-linecap:round; stroke-linejoin:round;fill-rule:evenodd;"
d="M 28.9425,33.7300
27.5455,33.7300
27.5455,32.8410
28.9425,32.8410
Z" /> 
</g>
<g >
</g>
<g style="fill:#B2803A; fill-opacity:1.0000; 
stroke:#B2803A; stroke-width:0.0000; stroke-opacity:1; 
stroke-linecap:round; stroke-linejoin:round;">
<path style="fill:#B2803A; fill-opacity:1.0000; 
stroke:#B2803A; stroke-width:0.0000; stroke-opacity:1; 
stroke-linecap:round; stroke-linejoin:round;fill-rule:evenodd;"
d="M 22.0210,31.6345
22.0210,30.2375
22.9100,30.2375
22.9100,31.6345
Z" /> 
<path style="fill:#B2803A; fill-opacity:1.0000; 
stroke:#B2803A; stroke-width:0.0000; stroke-opacity:1; 
stroke-linecap:round; stroke-linejoin:round;fill-rule:evenodd;"
d="M 23.9260,31.6345
23.9260,30.2375
24.8150,30.2375
24.8150,31.6345
Z" /> 
</g>
<g >
</g>
<g style="fill:#B2803A; fill-opacity:1.0000; 
stroke:#B2803A; stroke-width:0.0000; stroke-opacity:1; 
stroke-linecap:round; stroke-linejoin:round;">
<path style="fill:#B2803A; fill-opacity:1.0000; 
stroke:#B2803A; stroke-width:0.0000; stroke-opacity:1; 
stroke-linecap:round; stroke-linejoin:round;fill-rule:evenodd;"
d="M 11.5435,31.6980
12.9405,31.6980
12.9405,32.5870
11.5435,32.5870
Z" /> 
<path style="fill:#B2803A; fill-opacity:1.0000; 
stroke:#B2803A; stroke-width:0.0000; stroke-opacity:1; 
stroke-linecap:round; stroke-linejoin:round;fill-rule:evenodd;"
d="M 11.5435,33.6030
12.9405,33.6030
12.9405,34.4920
11.5435,34.4920
Z" /> 
</g>
<g >
</g>
<g style="fill:#121212; fill-opacity:1.0000; 
stroke:#121212; stroke-width:0.0000; stroke-opacity:1; 
stroke-linecap:round; stroke-linejoin:round;">
<circle cx="23.1640" cy="32.8410" r="0.5715" /> 
</g>
<g style="fill:#121212; fill-opacity:1.0000; 
stroke:#121212; stroke-width:0.0212; stroke-opacity:1; 
stroke-linecap:round; stroke-linejoin:round;">
</g>
<g style="fill:#121212; fill-opacity:1.0000; 
stroke:#121212; stroke-width:0.0000; stroke-opacity:1; 
stroke-linecap:round; stroke-linejoin:round;">
<circle cx="10.0830" cy="30.1740" r="0.5715" /> 
</g>
<g style="fill:#121212; fill-opacity:1.0000; 
stroke:#121212; stroke-width:0.0212; stroke-opacity:1; 
stroke-linecap:round; stroke-linejoin:round;">
</g>
<g style="fill:#121212; fill-opacity:1.0000; 
stroke:#121212; stroke-width:0.0000; stroke-opacity:1; 
stroke-linecap:round; stroke-linejoin:round;">
<circle cx="7.2890" cy="27.7610" r="0.5715" /> 
</g>
<g style="fill:#121212; fill-opacity:1.0000; 
stroke:#121212; stroke-width:0.0212; stroke-opacity:1; 
stroke-linecap:round; stroke-linejoin:round;">
</g>
<g style="fill:#121212; fill-opacity:1.0000; 
stroke:#121212; stroke-width:0.0000; stroke-opacity:1; 
stroke-linecap:round; stroke-linejoin:round;">
<circle cx="23.1640" cy="34.7460" r="0.5715" /> 
</g>
<g style="fill:#121212; fill-opacity:1.0000; 
stroke:#121212; stroke-width:0.0212; stroke-opacity:1; 
stroke-linecap:round; stroke-linejoin:round;">
</g>
<g style="fill:#121212; fill-opacity:1.0000; 
stroke:#121212; stroke-width:0.0000; stroke-opacity:1; 
stroke-linecap:round; stroke-linejoin:round;">
<circle cx="10.0830" cy="35.5080" r="0.5715" /> 
</g>
<g style="fill:#121212; fill-opacity:1.0000; 
stroke:#121212; stroke-width:0.0212; stroke-opacity:1; 
stroke-linecap:round; stroke-linejoin:round;">
</g>
<g style="fill:#121212; fill-opacity:1.0000; 
stroke:#121212; stroke-width:0.0000; stroke-opacity:1; 
stroke-linecap:round; stroke-linejoin:round;">
<circle cx="17.4490" cy="38.5560" r="0.5715" /> 
</g>
<g style="fill:#121212; fill-opacity:1.0000; 
stroke:#121212; stroke-width:0.0212; stroke-opacity:1; 
stroke-linecap:round; stroke-linejoin:round;">
</g>
<g style="fill:#121212; fill-opacity:1.0000; 
stroke:#121212; stroke-width:0.0000; stroke-opacity:1; 
stroke-linecap:round; stroke-linejoin:round;">
<circle cx="5.3840" cy="30.3010" r="0.5715" /> 
</g>
<g style="fill:#121212; fill-opacity:1.0000; 
stroke:#121212; stroke-width:0.0212; stroke-opacity:1; 
stroke-linecap:round; stroke-linejoin:round;">
</g>
<g style="fill:#121212; fill-opacity:1.0000; 
stroke:#121212; stroke-width:0.0000; stroke-opacity:1; 
stroke-linecap:round; stroke-linejoin:round;">
<circle cx="5.0030" cy="34.3650" r="0.4445" /> 
</g>
<g style="fill:#121212; fill-opacity:1.0000; 
stroke:#121212; stroke-width:0.0212; stroke-opacity:1; 
stroke-linecap:round; stroke-linejoin:round;">
</g>
<g style="fill:#121212; fill-opacity:1.0000; 
stroke:#121212; stroke-width:0.0000; stroke-opacity:1; 
stroke-linecap:round; stroke-linejoin:round;">
<circle cx="12.2420" cy="35.6350" r="0.4445" /> 
</g>
<g style="fill:#121212; fill-opacity:1.0000; 
stroke:#121212; stroke-width:0.0212; stroke-opacity:1; 
stroke-linecap:round; stroke-linejoin:round;">
</g>
<g >
</g>
<g style="fill:#B2803A; fill-opacity:1.0000; 
stroke:#B2803A; stroke-width:0.0212; stroke-opacity:1; 
stroke-linecap:round; stroke-linejoin:round;">
</g>
<g style="fill:#B2803A; fill-opacity:1.0000; 
stroke:#B2803A; stroke-width:0.6096; stroke-opacity:1; 
stroke-linecap:round; stroke-linejoin:round;">
</g>
<g style="fill:#B2803A; fill-opacity:0.0; 
stroke:#B2803A; stroke-width:0.6096; stroke-opacity:1; 
stroke-linecap:round; stroke-linejoin:round;">
<path d="M7.2890 27.7610
L8.5590 29.0310
" />
<path d="M8.5590 29.0310
L8.5590 30.4915
" />
<path d="M10.0830 31.7615
L9.9560 31.8885
" />
<path d="M23.1640 32.8410
L22.4655 32.1425
" />
<path d="M22.4655 32.1425
L22.4655 30.9360
" />
<path d="M10.8450 30.9360
L10.0830 30.1740
" />
<path d="M12.2420 31.4440
L12.7500 30.9360
" />
<path d="M12.7500 30.9360
L10.8450 30.9360
" />
<path d="M12.2420 32.1425
L12.2420 31.4440
" />
<path d="M22.4655 30.9360
L12.7500 30.9360
" />
<path d="M10.0830 31.7615
L10.0830 30.1740
" />
<path d="M9.9560 31.8885
L8.5590 30.4915
" />
<path d="M9.7020 43.9300
L9.9160 44.1440
" />
<path d="M30.0855 35.1905
L31.0380 36.1430
" />
<path d="M28.2440 35.1905
L30.0855 35.1905
" />
</g>
<g style="fill:#B2803A; fill-opacity:0.0; 
stroke:#B2803A; stroke-width:0.2540; stroke-opacity:1; 
stroke-linecap:round; stroke-linejoin:round;">
<path d="M5.0030 34.3650
L5.0030 41.0960
" />
<path d="M5.0030 41.0960
L7.4160 43.5090
" />
<path d="M7.4160 43.5090
L7.4160 44.1440
" />
<path d="M12.2420 35.6350
L14.6550 38.0480
" />
<path d="M14.6550 38.0480
L14.6550 39.1910
" />
<path d="M14.6550 39.1910
L14.6550 39.3180
" />
<path d="M14.6550 42.2390
L16.4330 44.0170
" />
<path d="M16.4330 44.0170
L18.8860 44.0170
" />
<path d="M12.2420 34.0475
L12.2420 35.6350
" />
<path d="M14.6550 39.1910
L14.6550 42.2390
" />
</g>
<g >
</g>
<g style="fill:#B2803A; fill-opacity:0.0; 
stroke:#B2803A; stroke-width:0.2540; stroke-opacity:1; 
stroke-linecap:round; stroke-linejoin:round;">
<g >
</g>
<g style="fill:#B2803A; fill-opacity:1.0000; 
stroke:#B2803A; stroke-width:0.0000; stroke-opacity:1; 
stroke-linecap:round; stroke-linejoin:round;">
<path style="fill:#B2803A; fill-opacity:1.0000; 
stroke:#B2803A; stroke-width:0.0000; stroke-opacity:1; 
stroke-linecap:round; stroke-linejoin:round;fill-rule:evenodd;"
d="M 41.1476,0.5955
41.1941,0.6492
41.2055,0.7015
41.2055,47.2005
41.1855,47.2686
41.1318,47.3151
41.0795,47.3265
0.6765,47.3265
0.6084,47.3065
0.5619,47.2528
0.5505,47.2005
0.5505,46.0976
35.3555,46.0976
35.3620,46.1582
35.3620,46.1582
35.4131,46.2952
35.4131,46.2952
35.5007,46.4123
35.6178,46.4999
35.6178,46.4999
35.6178,46.4999
35.6769,46.5219
35.7548,46.5510
35.7548,46.5510
35.8153,46.5575
35.8154,46.5575
35.8154,46.5575
35.8154,46.5575
38.4526,46.5575
38.4526,46.5575
38.4526,46.5575
38.4526,46.5575
38.5132,46.5510
38.5132,46.5510
38.5132,46.5510
38.6502,46.4999
38.7673,46.4123
38.8549,46.2952
38.9060,46.1582
38.9125,46.0976
38.9125,43.4604
38.9121,43.4570
38.9060,43.3998
38.9060,43.3998
38.8767,43.3213
38.8549,43.2628
38.8549,43.2628
38.8549,43.2628
38.7673,43.1457
38.6502,43.0581
38.6502,43.0581
38.5132,43.0070
38.5132,43.0070
38.4526,43.0005
38.4526,43.0005
35.8154,43.0005
35.8153,43.0005
35.7548,43.0070
35.7548,43.0070
35.6178,43.0581
35.6178,43.0581
35.5007,43.1457
35.4131,43.2628
35.4131,43.2628
35.3620,43.3998
35.3620,43.3998
35.3555,43.4603
35.3555,46.0976
0.5505,46.0976
0.5505,44.1440
3.4028,44.1440
3.4215,44.3807
3.4307,44.4192
3.4769,44.6116
3.4958,44.6572
3.5678,44.8310
3.6879,45.0270
3.6918,45.0334
3.6918,45.0334
3.8460,45.2140
4.0231,45.3652
4.0266,45.3682
4.2290,45.4922
4.4484,45.5831
4.6793,45.6385
4.9160,45.6572
5.1527,45.6385
5.3836,45.5831
5.6030,45.4922
5.8054,45.3682
5.9860,45.2140
6.0702,45.1154
6.1296,45.0766
6.2006,45.0760
6.2606,45.1140
6.2618,45.1154
6.3460,45.2140
6.5231,45.3652
6.5266,45.3682
6.7290,45.4922
6.9484,45.5831
7.1793,45.6385
7.4160,45.6572
7.6527,45.6385
7.8836,45.5831
8.1030,45.4922
8.3054,45.3682
8.4860,45.2140
8.6124,45.0659
8.6718,45.0271
8.6738,45.0270
9.4316,44.2691
9.4565,44.3538
9.5342,44.4748
9.6429,44.5690
9.7737,44.6287
9.7884,44.6308
9.0421,45.3771
9.0421,45.3771
9.2293,45.4918
9.4486,45.5826
9.6794,45.6380
9.9160,45.6567
10.1526,45.6380
10.3834,45.5826
10.6027,45.4918
10.7899,45.3771
10.7899,45.3771
10.0436,44.6308
10.0583,44.6287
10.1891,44.5690
10.2978,44.4748
10.3755,44.3538
10.4004,44.2692
11.1491,45.0179
11.1491,45.0179
11.2638,44.8307
11.3546,44.6114
11.4100,44.3806
11.4287,44.1440
11.4100,43.9074
11.3546,43.6766
11.2638,43.4573
11.1491,43.2701
11.1491,43.2701
10.4004,44.0188
10.3755,43.9342
10.2978,43.8132
10.1891,43.7190
10.0583,43.6593
10.0436,43.6572
10.7899,42.9109
10.7899,42.9109
10.6027,42.7962
10.3834,42.7054
10.1526,42.6500
9.9160,42.6313
9.6794,42.6500
9.4486,42.7054
9.2293,42.7962
9.0421,42.9109
9.0421,42.9109
9.7884,43.6572
9.7737,43.6593
9.6429,43.7190
9.5342,43.8132
9.4565,43.9342
9.4316,44.0188
8.6690,43.2562
8.6530,43.2535
8.6124,43.2221
8.4860,43.0740
8.3054,42.9198
8.3054,42.9198
8.3054,42.9198
8.1030,42.7958
8.0959,42.7928
7.8836,42.7049
7.7008,42.6610
7.6527,42.6495
7.4847,42.6362
7.4183,42.6110
7.4055,42.5997
5.8059,41.0002
11.2655,41.0002
11.2678,41.0258
11.2806,41.1682
11.3405,41.3852
11.4382,41.5880
11.4382,41.5880
11.5705,41.7701
11.5705,41.7701
11.7332,41.9256
11.9081,42.0411
11.9210,42.0496
12.1280,42.1381
12.3475,42.1882
12.5723,42.1983
12.7954,42.1681
13.0095,42.0985
13.2077,41.9919
13.3837,41.8515
13.5318,41.6820
13.6472,41.4888
13.7263,41.2780
13.7665,41.0565
13.7665,40.6878
13.7514,40.5198
13.7514,40.5198
13.6915,40.3028
13.5938,40.1000
13.5938,40.1000
13.5736,40.0722
13.4615,39.9179
13.4531,39.9099
13.2988,39.7624
13.1110,39.6384
13.1110,39.6384
12.9040,39.5499
12.9040,39.5499
12.6845,39.4998
12.4597,39.4897
12.4597,39.4897
12.4597,39.4897
12.3641,39.5027
12.2366,39.5199
12.0225,39.5895
11.8243,39.6961
11.8243,39.6961
11.6483,39.8365
11.5002,40.0060
11.3848,40.1992
11.3057,40.4100
11.2783,40.5608
11.2655,40.6315
11.2655,41.0002
5.8059,41.0002
5.6754,40.8697
5.6414,40.8074
5.6385,40.7806
5.6385,37.9607
5.6385,35.1359
5.6585,35.0678
5.6767,35.0474
5.6758,35.0465
5.6801,35.0421
5.6801,35.0421
5.6801,35.0421
5.7992,34.8970
5.8877,34.7315
5.9422,34.5518
5.9422,34.5518
5.9606,34.3650
5.9606,34.3650
5.9422,34.1782
5.9422,34.1782
5.9422,34.1782
5.9422,34.1782
5.9026,34.0475
8.7495,34.0475
8.7495,34.2866
8.7560,34.3471
8.8071,34.4840
8.8071,34.4840
8.8946,34.6009
9.0115,34.6884
9.1484,34.7395
9.2089,34.7460
9.2089,34.7460
9.7020,34.7460
9.7020,34.0475
8.7495,34.0475
5.9026,34.0475
5.8877,33.9985
5.7992,33.8330
5.6801,33.6879
5.5350,33.5688
5.5081,33.5544
5.3695,33.4803
5.3695,33.4803
5.1974,33.4281
5.1898,33.4258
5.1898,33.4258
5.1898,33.4258
5.0030,33.4074
5.0030,33.4074
4.8162,33.4258
4.8162,33.4258
4.6365,33.4803
4.6365,33.4803
4.4710,33.5688
4.3259,33.6879
4.2068,33.8330
4.1183,33.9985
4.1183,33.9985
4.0638,34.1782
4.0638,34.1782
4.0454,34.3650
4.0454,34.3650
4.0638,34.5518
4.0638,34.5518
4.1183,34.7315
4.1183,34.7315
4.2068,34.8970
4.3259,35.0421
4.3302,35.0465
4.3283,35.0485
4.3615,35.0973
4.3675,35.1359
4.3675,41.0119
4.3657,41.0278
4.3660,41.0278
4.3653,41.0357
4.3671,41.0930
4.3675,41.1060
4.3675,41.1360
4.3675,41.1360
4.3675,41.1360
4.3684,41.1430
4.3688,41.1489
4.3703,41.1962
4.3703,41.1962
4.3760,41.2158
4.3800,41.2351
4.3826,41.2553
4.3826,41.2553
4.4000,41.2993
4.4019,41.3049
4.4151,41.3504
4.4151,41.3504
4.4255,41.3679
4.4342,41.3857
4.4417,41.4046
4.4695,41.4429
4.4728,41.4478
4.4792,41.4588
4.4969,41.4886
4.5112,41.5030
4.5241,41.5180
4.5361,41.5345
4.5361,41.5345
4.5725,41.5647
4.5769,41.5687
5.0493,42.0411
5.5014,42.4931
5.5354,42.5554
5.5303,42.6262
5.4878,42.6831
5.4213,42.7079
5.3829,42.7047
5.2694,42.6775
5.1527,42.6495
4.9160,42.6308
4.6793,42.6495
4.4484,42.7049
4.2290,42.7958
4.0266,42.9198
4.0266,42.9198
3.8460,43.0740
3.6918,43.2546
3.6918,43.2546
3.5678,43.4570
3.4769,43.6764
3.4215,43.9073
3.4128,44.0170
3.4028,44.1440
0.5505,44.1440
0.5505,41.0002
1.0655,41.0002
1.0678,41.0258
1.0806,41.1682
1.1405,41.3852
1.2382,41.5880
1.2382,41.5880
1.3705,41.7701
1.3705,41.7701
1.5332,41.9256
1.7081,42.0411
1.7210,42.0496
1.9280,42.1381
2.1475,42.1882
2.3723,42.1983
2.5954,42.1681
2.8095,42.0985
3.0077,41.9919
3.1837,41.8515
3.3318,41.6820
3.4472,41.4888
3.5263,41.2780
3.5665,41.0565
3.5665,40.6878
3.5514,40.5198
3.5514,40.5198
3.4915,40.3028
3.3938,40.1000
3.3938,40.1000
3.3736,40.0722
3.2615,39.9179
3.2531,39.9099
3.0988,39.7624
2.9110,39.6384
2.9110,39.6384
2.7040,39.5499
2.7040,39.5499
2.4845,39.4998
2.2597,39.4897
2.2597,39.4897
2.2597,39.4897
2.1641,39.5027
2.0366,39.5199
1.8225,39.5895
1.6243,39.6961
1.6243,39.6961
1.4483,39.8365
1.3002,40.0060
1.1848,40.1992
1.1057,40.4100
1.0783,40.5608
1.0655,40.6315
1.0655,41.0002
0.5505,41.0002
0.5505,27.7610
6.2044,27.7610
6.2228,27.9603
6.2228,27.9603
6.2776,28.1528
6.2776,28.1528
6.3668,28.3320
6.3668,28.3320
6.4874,28.4917
6.4874,28.4917
6.4875,28.4917
6.5587,28.5566
6.6354,28.6266
6.6354,28.6266
6.8055,28.7319
6.8055,28.7319
6.8055,28.7319
6.9922,28.8042
6.9922,28.8042
6.9922,28.8042
7.1873,28.8407
7.2506,28.8729
7.2533,28.8755
7.7088,29.3310
7.7428,29.3933
7.7457,29.4201
7.7457,30.5831
7.7551,30.6245
7.7563,30.6315
7.7611,30.6736
7.7611,30.6736
7.7694,30.6974
7.7751,30.7137
7.7770,30.7204
7.7865,30.7618
7.7865,30.7618
7.8049,30.8000
7.8076,30.8066
7.8216,30.8466
7.8442,30.8825
7.8476,30.8887
7.8660,30.9269
7.8925,30.9601
7.8965,30.9659
7.9191,31.0018
7.9516,31.0343
8.3821,31.4648
8.7121,31.7948
8.7461,31.8571
8.7490,31.8839
8.7490,32.3816
8.7555,32.4422
8.7555,32.4422
8.8066,32.5792
8.8066,32.5792
8.8942,32.6963
8.8942,32.6963
8.8942,32.6963
8.9304,32.7233
8.9533,32.7404
8.9958,32.7973
9.0009,32.8681
8.9668,32.9304
8.9533,32.9422
8.8946,32.9861
8.8071,33.1030
8.8071,33.1030
8.7560,33.2399
8.7495,33.3004
8.7495,33.5395
10.0840,33.5395
10.1521,33.5595
10.1986,33.6132
10.2100,33.6655
10.2100,34.7460
10.7031,34.7460
10.7031,34.7460
10.7636,34.7395
10.9005,34.6884
10.9014,34.6877
10.9025,34.6873
10.9084,34.6841
10.9088,34.6850
10.9679,34.6629
11.0373,34.6780
11.0875,34.7282
11.0894,34.7322
11.0926,34.7382
11.1802,34.8553
11.2973,34.9429
11.2973,34.9429
11.2973,34.9429
11.3574,34.9653
11.4143,35.0079
11.4391,35.0744
11.4245,35.1428
11.3573,35.2685
11.3573,35.2685
11.3028,35.4482
11.3028,35.4482
11.2844,35.6350
11.2844,35.6350
11.3028,35.8218
11.3028,35.8218
11.3573,36.0015
11.3573,36.0015
11.4332,36.1435
11.4458,36.1670
11.5649,36.3121
11.7100,36.4312
11.8755,36.5197
12.0552,36.5742
12.0552,36.5742
12.0552,36.5742
12.2420,36.5926
12.2482,36.5926
12.2482,36.5955
12.3059,36.6063
12.3377,36.6295
13.9826,38.2743
14.0166,38.3366
14.0195,38.3634
14.0195,39.1107
14.0195,42.1549
14.0177,42.1708
14.0180,42.1708
14.0173,42.1787
14.0173,42.1787
14.0195,42.2490
14.0195,42.2790
14.0195,42.2790
14.0195,42.2790
14.0204,42.2860
14.0208,42.2919
14.0223,42.3392
14.0223,42.3392
14.0280,42.3588
14.0320,42.3781
14.0346,42.3983
14.0346,42.3983
14.0520,42.4423
14.0539,42.4479
14.0671,42.4934
14.0671,42.4934
14.0775,42.5109
14.0862,42.5287
14.0937,42.5476
14.1215,42.5859
14.1248,42.5908
14.1300,42.5997
14.1489,42.6316
14.1632,42.6460
14.1761,42.6610
14.1881,42.6775
14.1881,42.6775
14.2245,42.7077
14.2289,42.7117
15.5343,44.0170
15.9242,44.4069
15.9342,44.4194
15.9344,44.4192
15.9394,44.4253
15.9907,44.4734
16.0119,44.4946
16.0175,44.4990
16.0220,44.5028
16.0565,44.5352
16.0565,44.5352
16.0743,44.5450
16.0909,44.5559
16.1069,44.5683
16.1069,44.5683
16.1196,44.5738
16.1504,44.5872
16.1557,44.5898
16.1954,44.6116
16.1972,44.6126
16.2169,44.6176
16.2356,44.6240
16.2543,44.6321
16.2665,44.6341
16.3010,44.6395
16.3069,44.6407
16.3527,44.6525
16.3731,44.6525
16.3928,44.6540
16.4129,44.6572
16.4470,44.6540
16.4600,44.6528
16.4659,44.6525
17.4357,44.6525
17.5038,44.6725
17.5431,44.7127
17.6579,44.9000
17.6618,44.9064
17.6618,44.9064
17.8160,45.0870
17.9966,45.2412
17.9966,45.2412
18.1990,45.3652
18.4184,45.4561
18.6493,45.5115
18.8860,45.5302
19.1227,45.5115
19.3536,45.4561
19.5730,45.3652
19.7754,45.2412
19.9560,45.0870
20.0824,44.9389
20.1418,44.9001
20.1438,44.9000
20.9016,44.1422
20.9265,44.2268
21.0042,44.3478
21.1129,44.4420
21.2437,44.5017
21.2584,44.5038
20.5121,45.2501
20.5121,45.2501
20.6993,45.3648
20.9186,45.4556
21.1494,45.5110
21.3860,45.5297
21.6226,45.5110
21.8534,45.4556
22.0727,45.3648
22.2599,45.2501
22.2599,45.2501
21.5136,44.5038
21.5283,44.5017
21.6591,44.4420
21.7678,44.3478
21.8455,44.2268
21.8704,44.1422
22.6330,44.9048
22.6490,44.9075
22.6896,44.9389
22.8160,45.0870
22.9966,45.2412
22.9966,45.2412
23.1990,45.3652
23.4184,45.4561
23.6493,45.5115
23.8860,45.5302
24.1227,45.5115
24.3536,45.4561
24.5730,45.3652
24.7754,45.2412
24.9560,45.0870
25.1102,44.9064
25.2342,44.7040
25.3251,44.4846
25.3805,44.2537
25.3992,44.0170
25.3805,43.7803
25.3251,43.5494
25.2342,43.3300
25.1102,43.1276
25.1102,43.1276
24.9560,42.9470
24.7754,42.7928
24.7754,42.7928
24.7754,42.7928
24.5730,42.6688
24.5543,42.6610
24.3536,42.5779
24.1957,42.5400
24.1227,42.5225
23.8860,42.5038
23.6493,42.5225
23.4184,42.5779
23.1990,42.6688
22.9966,42.7928
22.9966,42.7928
22.8160,42.9470
22.6896,43.0951
22.6301,43.1339
22.6282,43.1340
21.8704,43.8918
21.8455,43.8072
21.7678,43.6862
21.6591,43.5920
21.5283,43.5323
21.5136,43.5302
22.2599,42.7839
22.2599,42.7839
22.0727,42.6692
21.8534,42.5784
21.6226,42.5230
21.3860,42.5043
21.1494,42.5230
20.9186,42.5784
20.6993,42.6692
20.5121,42.7839
20.5121,42.7839
21.2584,43.5302
21.2437,43.5323
21.1129,43.5920
21.0042,43.6862
20.9265,43.8072
20.9016,43.8918
20.1390,43.1292
20.1230,43.1265
20.0824,43.0951
19.9560,42.9470
19.7754,42.7928
19.7754,42.7928
19.7754,42.7928
19.5730,42.6688
19.5543,42.6610
19.3536,42.5779
19.1957,42.5400
19.1227,42.5225
18.8860,42.5038
18.6493,42.5225
18.4184,42.5779
18.1990,42.6688
17.9966,42.7928
17.9966,42.7928
17.8160,42.9470
17.6618,43.1276
17.6618,43.1276
17.6176,43.1998
17.5582,43.2967
17.5431,43.3213
17.4904,43.3690
17.4357,43.3815
16.7484,43.3815
16.6803,43.3615
16.6593,43.3446
15.3274,42.0127
15.2934,41.9504
15.2905,41.9236
15.2905,41.8901
15.3105,41.8220
15.3642,41.7755
15.4344,41.7654
15.4990,41.7949
15.5030,41.7985
15.5032,41.7986
15.5032,41.7986
15.5032,41.7986
15.6910,41.9226
15.8980,42.0111
16.1175,42.0612
16.3423,42.0713
16.5654,42.0411
16.7795,41.9715
16.9777,41.8649
17.1537,41.7245
17.3018,41.5550
17.4172,41.3618
17.4963,41.1510
17.5365,40.9295
17.5365,40.8732
25.2355,40.8732
25.2506,41.0412
25.3105,41.2582
25.4082,41.4610
25.4082,41.4610
25.5405,41.6431
25.5405,41.6431
25.7032,41.7986
25.7032,41.7986
25.7032,41.7986
25.8910,41.9226
26.0980,42.0111
26.3175,42.0612
26.5423,42.0713
26.7654,42.0411
26.9795,41.9715
27.1777,41.8649
27.3537,41.7245
27.5018,41.5550
27.6172,41.3618
27.6963,41.1510
27.7365,40.9295
27.7365,40.5608
27.7214,40.3928
27.7214,40.3928
27.6615,40.1758
27.5638,39.9730
27.5638,39.9730
27.5578,39.9647
27.4315,39.7909
27.3464,39.7095
27.2688,39.6354
27.0810,39.5114
27.0810,39.5114
26.8740,39.4229
26.8740,39.4229
26.6545,39.3728
26.4297,39.3627
26.4297,39.3627
26.4297,39.3627
26.3341,39.3757
26.2066,39.3929
25.9925,39.4625
25.7943,39.5691
25.7943,39.5691
25.6183,39.7095
25.4702,39.8790
25.3548,40.0722
25.2757,40.2830
25.2355,40.5045
25.2355,40.8732
17.5365,40.8732
17.5365,40.5608
17.5214,40.3928
17.5214,40.3928
17.4615,40.1758
17.3638,39.9730
17.3638,39.9730
17.3578,39.9647
17.2315,39.7909
17.1464,39.7095
17.0688,39.6354
16.8810,39.5114
16.8810,39.5114
16.6740,39.4229
16.6740,39.4229
16.4545,39.3728
16.2297,39.3627
16.2297,39.3627
16.2297,39.3627
16.1341,39.3757
16.0066,39.3929
15.7925,39.4625
15.5943,39.5691
15.5943,39.5692
15.4951,39.6483
15.4293,39.6751
15.3595,39.6622
15.3078,39.6135
15.2905,39.5498
15.2905,38.1321
15.2923,38.1162
15.2920,38.1162
15.2927,38.1083
15.2905,38.0380
15.2905,38.0080
15.2905,38.0080
15.2896,38.0010
15.2891,37.9951
15.2877,37.9478
15.2820,37.9282
15.2780,37.9089
15.2754,37.8887
15.2580,37.8447
15.2561,37.8391
15.2429,37.7936
15.2325,37.7761
15.2238,37.7583
15.2163,37.7394
15.2163,37.7394
15.1951,37.7102
15.1885,37.7011
15.1852,37.6962
15.1611,37.6554
15.1611,37.6554
15.1467,37.6410
15.1339,37.6260
15.1219,37.6095
15.1219,37.6095
15.1146,37.6034
15.0855,37.5793
15.0811,37.5753
13.2365,35.7307
13.2108,35.6836
27.0370,35.6836
27.0435,35.7442
27.0435,35.7442
27.0946,35.8812
27.0946,35.8812
27.1822,35.9983
27.2993,36.0859
27.2993,36.0859
27.2993,36.0859
27.3584,36.1079
27.4363,36.1370
27.4363,36.1370
27.4968,36.1435
27.4969,36.1435
27.4969,36.1435
27.4969,36.1435
28.9911,36.1435
28.9911,36.1435
28.9911,36.1435
28.9911,36.1435
29.0517,36.1370
29.0517,36.1370
29.0517,36.1370
29.1887,36.0859
29.1905,36.0846
29.2648,36.0289
29.3313,36.0041
29.3403,36.0038
29.3856,36.0038
29.4537,36.0238
29.5002,36.0775
29.5115,36.1245
29.5197,36.3179
29.5689,36.5462
29.6132,36.6564
29.6560,36.7630
29.7784,36.9618
29.7784,36.9618
29.9264,37.1299
29.9563,37.1943
29.9468,37.2646
29.9007,37.3186
29.8758,37.3312
29.7758,37.3685
29.7758,37.3685
29.6587,37.4561
29.5711,37.5732
29.5711,37.5732
29.5200,37.7102
29.5200,37.7102
29.5135,37.7707
29.5135,39.5952
29.5200,39.6558
29.5200,39.6558
29.5711,39.7928
29.5711,39.7928
29.6587,39.9099
29.7758,39.9975
29.7758,39.9975
29.7758,39.9975
29.8349,40.0195
29.9128,40.0486
29.9128,40.0486
29.9733,40.0551
29.9734,40.0551
29.9734,40.0551
29.9734,40.0551
32.1026,40.0551
32.1026,40.0551
32.1026,40.0551
32.1026,40.0551
32.1632,40.0486
32.1632,40.0486
32.1632,40.0486
32.3002,39.9975
32.3262,39.9781
32.3596,39.9530
35.3700,39.9530
35.3709,39.9647
35.3709,39.9647
35.4302,40.2245
35.4302,40.2245
35.5276,40.4726
35.5276,40.4726
35.6608,40.7034
35.8270,40.9117
36.0223,41.0930
36.0223,41.0930
36.2425,41.2431
36.2425,41.2431
36.4826,41.3587
36.4826,41.3587
36.7372,41.4373
36.7372,41.4373
36.8800,41.4588
36.8800,40.3014
36.8927,40.3084
37.0519,40.3492
37.1749,40.3492
37.2970,40.3338
37.3880,40.2978
37.3880,41.4588
37.5307,41.4373
37.5308,41.4373
37.7854,41.3587
37.7854,41.3587
38.0255,41.2431
38.0255,41.2431
38.2457,41.0930
38.2457,41.0930
38.4410,40.9117
38.6072,40.7034
38.7404,40.4726
38.7404,40.4726
38.8378,40.2245
38.8378,40.2245
38.8971,39.9647
38.8971,39.9647
38.8980,39.9530
37.7331,39.9530
37.7573,39.9015
37.7881,39.7402
37.7778,39.5762
37.7352,39.4450
38.8980,39.4450
38.8971,39.4333
38.8971,39.4333
38.8378,39.1735
38.8378,39.1735
38.7404,38.9254
38.7404,38.9254
38.6072,38.6946
38.4410,38.4863
38.2457,38.3050
38.2457,38.3050
38.0255,38.1549
38.0255,38.1549
37.7854,38.0393
37.7854,38.0393
37.5308,37.9607
37.3880,37.9392
37.3880,39.0966
37.3753,39.0896
37.2161,39.0488
37.0931,39.0488
36.9710,39.0642
36.8800,39.1002
36.8800,37.9392
36.7372,37.9607
36.4826,38.0393
36.4826,38.0393
36.2425,38.1549
36.2425,38.1549
36.0223,38.3050
36.0223,38.3050
35.8270,38.4863
35.6608,38.6946
35.5276,38.9254
35.5276,38.9254
35.4302,39.1735
35.4302,39.1735
35.3709,39.4333
35.3709,39.4333
35.3700,39.4450
36.5349,39.4450
36.5107,39.4965
36.4799,39.6578
36.4902,39.8218
36.5328,39.9530
35.3700,39.9530
32.3596,39.9530
32.4173,39.9099
32.5049,39.7928
32.5049,39.7928
32.5049,39.7928
32.5560,39.6558
32.5579,39.6384
32.5625,39.5952
32.5625,39.5952
32.5625,37.7708
32.5625,37.7707
32.5560,37.7102
32.5560,37.7102
32.5049,37.5732
32.5049,37.5732
32.4173,37.4561
32.3002,37.3685
32.3002,37.3685
32.1964,37.3298
32.1395,37.2872
32.1147,37.2207
32.1298,37.1513
32.1532,37.1208
32.2241,37.0528
32.3630,36.8650
32.4682,36.6564
32.5366,36.4331
32.5662,36.2014
32.5638,36.1435
32.5563,35.9681
32.5376,35.8812
32.5071,35.7398
32.4200,35.5230
32.2976,35.3242
32.1432,35.1488
31.9615,35.0021
31.9262,34.9823
31.8765,34.9317
31.8620,34.8622
31.8875,34.7959
31.8888,34.7946
35.3555,34.7946
35.3620,34.8552
35.3620,34.8552
35.4131,34.9922
35.4131,34.9922
35.5007,35.1093
35.6178,35.1969
35.6178,35.1969
35.6178,35.1969
35.6769,35.2189
35.7548,35.2480
35.7548,35.2480
35.8153,35.2545
35.8154,35.2545
35.8154,35.2545
35.8154,35.2545
38.4526,35.2545
38.4526,35.2545
38.4526,35.2545
38.4526,35.2545
38.5132,35.2480
38.5132,35.2480
38.5132,35.2480
38.6502,35.1969
38.7673,35.1093
38.8549,34.9922
38.9060,34.8552
38.9125,34.7946
38.9125,32.1574
38.9109,32.1427
38.9060,32.0968
38.9060,32.0968
38.8549,31.9598
38.8549,31.9598
38.7673,31.8427
38.6502,31.7551
38.6502,31.7551
38.5132,31.7040
38.5132,31.7040
38.4526,31.6975
38.4526,31.6975
35.8154,31.6975
35.8153,31.6975
35.7548,31.7040
35.7548,31.7040
35.6178,31.7551
35.6178,31.7551
35.5007,31.8427
35.4131,31.9598
35.4131,31.9598
35.3620,32.0968
35.3620,32.0968
35.3555,32.1574
35.3555,34.7946
31.8888,34.7946
31.9171,34.7680
32.0555,34.6744
32.2241,34.5128
32.3630,34.3250
32.4682,34.1164
32.5366,33.8931
32.5662,33.6614
32.5623,33.5688
32.5563,33.4281
32.5470,33.3848
32.5071,33.1998
32.4200,32.9830
32.2976,32.7842
32.1432,32.6088
31.9615,32.4621
31.7576,32.3482
31.7361,32.3406
31.6785,32.2990
31.6526,32.2329
31.6664,32.1633
31.7122,32.1143
31.8961,32.0017
31.8961,32.0017
32.0766,31.8476
32.2307,31.6671
32.2307,31.6671
32.3546,31.4648
32.4454,31.2456
32.4966,31.0323
31.4389,31.0323
31.4671,30.9883
31.5077,30.8502
31.5077,30.7064
31.4671,30.5683
31.4389,30.5243
32.4966,30.5243
32.4454,30.3110
32.3546,30.0918
32.2307,29.8895
32.2307,29.8895
32.0766,29.7090
31.8961,29.5549
31.8961,29.5549
31.6938,29.4310
31.4746,29.3402
31.4746,29.3402
31.2613,29.2890
31.2613,30.3442
31.1497,30.2933
31.0431,30.2779
30.9715,30.2779
30.8649,30.2933
30.7533,30.3442
30.7533,29.2890
30.5400,29.3402
30.3208,29.4310
30.1185,29.5549
30.1185,29.5549
29.9380,29.7090
29.7839,29.8895
29.7839,29.8895
29.6600,30.0918
29.5692,30.3110
29.5180,30.5243
30.5757,30.5243
30.5475,30.5683
30.5069,30.7064
30.5069,30.8502
30.5475,30.9883
30.5757,31.0323
29.5180,31.0323
29.5692,31.2456
29.6600,31.4648
29.7839,31.6671
29.7839,31.6671
29.9380,31.8476
30.1185,32.0017
30.1185,32.0017
30.3208,32.1256
30.3231,32.1268
30.3238,32.1275
30.3250,32.1282
30.3249,32.1285
30.3747,32.1756
30.3918,32.2445
30.3689,32.3117
30.3178,32.3539
30.2140,32.4008
30.2140,32.4008
30.0205,32.5316
30.0205,32.5316
29.8519,32.6932
29.8519,32.6932
29.7130,32.8810
29.6890,32.9286
29.6405,32.9804
29.5716,32.9977
29.5043,32.9751
29.4600,32.9197
29.4505,32.8718
29.4505,32.7924
29.4505,32.7924
29.4440,32.7319
29.3929,32.5950
29.3929,32.5950
29.3054,32.4781
29.1885,32.3906
29.0516,32.3395
28.9911,32.3330
28.4980,32.3330
28.4980,33.4135
28.4780,33.4816
28.4243,33.5281
28.3720,33.5395
27.0375,33.5395
27.0375,33.7786
27.0440,33.8391
27.0951,33.9760
27.0951,33.9760
27.1826,34.0929
27.2413,34.1368
27.2838,34.1937
27.2889,34.2645
27.2548,34.3268
27.2413,34.3386
27.1822,34.3827
27.0946,34.4998
27.0946,34.4998
27.0435,34.6368
27.0435,34.6368
27.0370,34.6974
27.0370,35.6836
13.2108,35.6836
13.2024,35.6684
13.2009,35.6412
13.1996,35.6412
13.1996,35.6350
13.1812,35.4482
13.1812,35.4482
13.1812,35.4482
13.1812,35.4482
13.1267,35.2685
13.1267,35.2685
13.0595,35.1428
13.0450,35.0733
13.0704,35.0070
13.1266,34.9653
13.1867,34.9429
13.2598,34.8882
13.3038,34.8553
13.3914,34.7382
13.3914,34.7382
13.3914,34.7382
13.4425,34.6012
13.4478,34.5518
13.4490,34.5406
13.4490,34.5406
13.4490,33.5544
13.4490,33.5543
13.4425,33.4938
13.4425,33.4938
13.3914,33.3568
13.3914,33.3568
13.3038,33.2397
13.2452,33.1959
13.2026,33.1390
13.1975,33.0682
13.2316,33.0059
13.2452,32.9941
13.3038,32.9503
13.3914,32.8332
13.3914,32.8332
13.3914,32.8332
13.4425,32.6962
13.4428,32.6932
13.4490,32.6356
13.4490,32.6356
13.4490,31.8753
13.4690,31.8072
13.5227,31.7607
13.5750,31.7493
21.4336,31.7493
21.5017,31.7693
21.5482,31.8230
21.5517,31.8313
21.5701,31.8807
21.6271,31.9568
21.6519,32.0233
21.6522,32.0323
21.6522,32.0509
21.6522,32.2341
21.6616,32.2755
21.6628,32.2825
21.6676,32.3246
21.6676,32.3246
21.6758,32.3482
21.6816,32.3647
21.6835,32.3714
21.6859,32.3816
21.6930,32.4128
21.7071,32.4422
21.7114,32.4510
21.7141,32.4576
21.7281,32.4976
21.7507,32.5335
21.7541,32.5397
21.7725,32.5779
21.7939,32.6048
21.7971,32.6088
21.7990,32.6111
21.8030,32.6169
21.8256,32.6528
21.8581,32.6853
21.9567,32.7839
22.0539,32.8811
22.0879,32.9434
22.0903,32.9585
22.0978,33.0403
22.0978,33.0403
22.1526,33.2328
22.1526,33.2328
22.2418,33.4120
22.2418,33.4120
22.3624,33.5717
22.3624,33.5717
22.3625,33.5717
22.4899,33.6879
22.5104,33.7066
22.5104,33.7066
22.6805,33.8119
22.6805,33.8119
22.6805,33.8119
22.8672,33.8842
22.8672,33.8842
23.0639,33.9210
23.0639,33.9210
23.2641,33.9210
23.2641,33.9210
23.4608,33.8842
23.6475,33.8119
23.8176,33.7066
23.9655,33.5717
24.0862,33.4120
24.0862,33.4120
24.0862,33.4120
24.1417,33.3004
24.1754,33.2328
24.2302,33.0403
24.2310,33.0315
27.0375,33.0315
27.9900,33.0315
27.9900,32.3330
27.4969,32.3330
27.4364,32.3395
27.2995,32.3906
27.2995,32.3906
27.1826,32.4781
27.0951,32.5950
27.0951,32.5950
27.0440,32.7319
27.0375,32.7924
27.0375,33.0315
24.2310,33.0315
24.2486,32.8410
24.2302,32.6417
24.1754,32.4492
24.1462,32.3906
24.0943,32.2863
24.0818,32.2164
24.1091,32.1509
24.1165,32.1427
24.1165,31.1900
24.6245,31.1900
24.6245,32.1425
24.8636,32.1425
24.8636,32.1425
24.9241,32.1360
25.0610,32.0849
25.0610,32.0849
25.1779,31.9974
25.2654,31.8805
25.2654,31.8805
25.3165,31.7436
25.3230,31.6831
25.3230,31.6831
25.3230,31.1900
24.6245,31.1900
24.1165,31.1900
24.1165,29.7295
24.6245,29.7295
24.6245,30.6820
25.3230,30.6820
25.3230,30.1889
25.3230,30.1889
25.3165,30.1284
25.2654,29.9915
25.2654,29.9915
25.1779,29.8746
25.0610,29.7871
24.9241,29.7360
24.8636,29.7295
24.6245,29.7295
24.1165,29.7295
23.8774,29.7295
23.8169,29.7360
23.6800,29.7871
23.5631,29.8746
23.5192,29.9333
23.4623,29.9758
23.3915,29.9809
23.3292,29.9468
23.3174,29.9333
23.2735,29.8746
23.2733,29.8742
23.2733,29.8742
23.2733,29.8742
23.1562,29.7866
23.1562,29.7866
23.0192,29.7355
23.0192,29.7355
22.9586,29.7290
22.9586,29.7290
21.9724,29.7290
21.9723,29.7290
21.9118,29.7355
21.9118,29.7355
21.7748,29.7866
21.7748,29.7866
21.6577,29.8742
21.5701,29.9913
21.5517,30.0407
21.5091,30.0976
21.4426,30.1224
21.4336,30.1227
11.2777,30.1227
11.2096,30.1027
11.1631,30.0490
11.1523,30.0083
11.1492,29.9747
11.0944,29.7822
11.0933,29.7800
11.0052,29.6030
11.0052,29.6030
10.8846,29.4433
10.7366,29.3084
10.7366,29.3084
10.5665,29.2031
10.5665,29.2031
10.5665,29.2031
10.4800,29.1696
10.3798,29.1308
10.3798,29.1308
10.3798,29.1308
10.1831,29.0940
9.9829,29.0940
9.8568,29.1176
9.7862,29.1308
9.5995,29.2031
9.5995,29.2031
9.5646,29.2247
9.4962,29.2436
9.4284,29.2224
9.3828,29.1680
9.3723,29.1176
9.3723,28.9394
9.3723,28.9394
9.3723,28.9394
9.3629,28.8980
9.3617,28.8910
9.3569,28.8489
9.3429,28.8088
9.3410,28.8021
9.3315,28.7607
9.3177,28.7319
9.3131,28.7225
9.3104,28.7159
9.3044,28.6987
9.2964,28.6759
9.2801,28.6500
35.3700,28.6500
35.3709,28.6617
35.3709,28.6617
35.4302,28.9215
35.4302,28.9215
35.5276,29.1696
35.5276,29.1696
35.6608,29.4004
35.8270,29.6087
36.0223,29.7900
36.0223,29.7900
36.2425,29.9401
36.2425,29.9401
36.4826,30.0557
36.4826,30.0557
36.7372,30.1343
36.7372,30.1343
36.8800,30.1558
36.8800,28.9984
36.8927,29.0054
37.0519,29.0462
37.1749,29.0462
37.2970,29.0308
37.3880,28.9948
37.3880,30.1558
37.5307,30.1343
37.5308,30.1343
37.7854,30.0557
37.7854,30.0557
38.0255,29.9401
38.0255,29.9401
38.2457,29.7900
38.2457,29.7900
38.4410,29.6087
38.6072,29.4004
38.7404,29.1696
38.7404,29.1696
38.8378,28.9215
38.8378,28.9215
38.8971,28.6617
38.8971,28.6617
38.8980,28.6500
37.7331,28.6500
37.7573,28.5985
37.7881,28.4372
37.7778,28.2732
37.7352,28.1420
38.8980,28.1420
38.8971,28.1303
38.8971,28.1303
38.8378,27.8705
38.8378,27.8705
38.7404,27.6224
38.7404,27.6224
38.6072,27.3916
38.4410,27.1833
38.2457,27.0020
38.2457,27.0020
38.0255,26.8519
38.0255,26.8519
37.7854,26.7363
37.7854,26.7363
37.5308,26.6577
37.3880,26.6362
37.3880,27.7936
37.3753,27.7866
37.2161,27.7458
37.0931,27.7458
36.9710,27.7612
36.8800,27.7972
36.8800,26.6362
36.7372,26.6577
36.4826,26.7363
36.4826,26.7363
36.2425,26.8519
36.2425,26.8519
36.0223,27.0020
36.0223,27.0020
35.8270,27.1833
35.6608,27.3916
35.5276,27.6224
35.5276,27.6224
35.4302,27.8705
35.4302,27.8705
35.3709,28.1303
35.3709,28.1303
35.3700,28.1420
36.5349,28.1420
36.5107,28.1935
36.4799,28.3548
36.4902,28.5188
36.5328,28.6500
35.3700,28.6500
9.2801,28.6500
9.2738,28.6400
9.2704,28.6338
9.2591,28.6102
9.2520,28.5956
9.2255,28.5624
9.2215,28.5566
9.1989,28.5207
9.1699,28.4917
9.0693,28.3911
9.0693,28.3911
8.3991,27.7209
8.3651,27.6586
8.3627,27.6435
8.3608,27.6224
8.3552,27.5617
8.3004,27.3692
8.2993,27.3670
8.2112,27.1900
8.2112,27.1900
8.0906,27.0303
7.9426,26.8954
7.9426,26.8954
7.7725,26.7901
7.7725,26.7901
7.7725,26.7901
7.7725,26.7901
7.5858,26.7178
7.5858,26.7178
7.5858,26.7178
7.3891,26.6810
7.1889,26.6810
7.0405,26.7088
6.9922,26.7178
6.8055,26.7901
6.8055,26.7901
6.6354,26.8954
6.6354,26.8954
6.4874,27.0303
6.3668,27.1900
6.3668,27.1900
6.2776,27.3692
6.2776,27.3692
6.2228,27.5617
6.2228,27.5617
6.2044,27.7610
6.2044,27.7610
0.5505,27.7610
0.5505,20.1717
18.8880,20.1717
18.9067,20.4083
18.9621,20.6391
19.0529,20.8584
19.1769,21.0608
19.1769,21.0608
19.3311,21.2413
19.5116,21.3955
19.5116,21.3955
19.7140,21.5195
19.9333,21.6103
20.1641,21.6657
20.4007,21.6844
20.6373,21.6657
20.8681,21.6103
21.0874,21.5195
21.2898,21.3955
21.4703,21.2413
21.6245,21.0608
21.7485,20.8584
21.8393,20.6391
21.8947,20.4083
21.9134,20.1717
21.8947,19.9351
21.8393,19.7043
21.7485,19.4850
21.6245,19.2826
21.6245,19.2826
21.4703,19.1021
21.2898,18.9479
21.2898,18.9479
21.2898,18.9479
21.0874,18.8239
20.8681,18.7331
20.8681,18.7331
20.7102,18.6952
20.6373,18.6777
20.6373,18.6777
20.4007,18.6590
20.1641,18.6777
19.9333,18.7331
19.7140,18.8239
19.5116,18.9479
19.5116,18.9479
19.3311,19.1021
19.1769,19.2826
19.1769,19.2826
19.0529,19.4850
18.9621,19.7043
18.9067,19.9351
18.8880,20.1717
0.5505,20.1717
0.5505,17.0136
17.4599,17.0136
17.4599,17.0136
17.4752,17.1828
17.4752,17.1828
17.5354,17.4013
17.5355,17.4013
17.6338,17.6055
17.6338,17.6055
17.7670,17.7888
17.9308,17.9455
18.1200,18.0703
18.3284,18.1594
18.5493,18.2098
18.7757,18.2200
19.0003,18.1896
19.2158,18.1195
19.4154,18.0121
19.5926,17.8708
19.7417,17.7002
19.8580,17.5056
19.8716,17.4692
19.9143,17.4124
19.9809,17.3878
20.0502,17.4030
20.1003,17.4533
20.1031,17.4588
20.1738,17.6055
20.1738,17.6055
20.3070,17.7888
20.4708,17.9455
20.6600,18.0703
20.8684,18.1594
21.0893,18.2098
21.3157,18.2200
21.5403,18.1896
21.7558,18.1195
21.9554,18.0121
22.1326,17.8708
22.2817,17.7002
22.3980,17.5056
22.4116,17.4692
22.4543,17.4124
22.5209,17.3878
22.5902,17.4030
22.6403,17.4533
22.6431,17.4588
22.7138,17.6055
22.7138,17.6055
22.8470,17.7888
23.0108,17.9455
23.2000,18.0703
23.4084,18.1594
23.6293,18.2098
23.8557,18.2200
24.0803,18.1896
24.2958,18.1195
24.4954,18.0121
24.6726,17.8708
24.8217,17.7002
24.9380,17.5056
25.0176,17.2934
25.0581,17.0704
25.0581,15.9023
25.0428,15.7332
24.9825,15.5147
24.8842,15.3105
24.7510,15.1272
24.5872,14.9705
24.5872,14.9705
24.3980,14.8457
24.3980,14.8457
24.1896,14.7566
24.1896,14.7566
23.9687,14.7062
23.7423,14.6960
23.7423,14.6960
23.7423,14.6960
23.6460,14.7090
23.5177,14.7264
23.3022,14.7965
23.3021,14.7965
23.1026,14.9039
23.1026,14.9039
22.9254,15.0452
22.9254,15.0452
22.7763,15.2158
22.6600,15.4104
22.6600,15.4104
22.6464,15.4468
22.6037,15.5036
22.5371,15.5282
22.4678,15.5130
22.4177,15.4627
22.4149,15.4572
22.3442,15.3105
22.3442,15.3105
22.2754,15.2158
22.2110,15.1272
22.0472,14.9705
22.0472,14.9705
21.8580,14.8457
21.8580,14.8457
21.6496,14.7566
21.6496,14.7566
21.4287,14.7062
21.2023,14.6960
21.2023,14.6960
21.2023,14.6960
21.1060,14.7090
20.9777,14.7264
20.7622,14.7965
20.7621,14.7965
20.5626,14.9039
20.5626,14.9039
20.3854,15.0452
20.3854,15.0452
20.2363,15.2158
20.1200,15.4104
20.1200,15.4104
20.1064,15.4468
20.0637,15.5036
19.9971,15.5282
19.9278,15.5130
19.8777,15.4627
19.8749,15.4572
19.8042,15.3105
19.8042,15.3105
19.7354,15.2158
19.6710,15.1272
19.5072,14.9705
19.5072,14.9705
19.3180,14.8457
19.3180,14.8457
19.1096,14.7566
19.1096,14.7566
18.8887,14.7062
18.6623,14.6960
18.6623,14.6960
18.6623,14.6960
18.5660,14.7090
18.4377,14.7264
18.2222,14.7965
18.2221,14.7965
18.0226,14.9039
18.0226,14.9039
17.8454,15.0452
17.8454,15.0452
17.6963,15.2158
17.5800,15.4104
17.5800,15.4104
17.5004,15.6226
17.4599,15.8456
17.4599,17.0136
0.5505,17.0136
0.5505,12.4611
6.7680,12.4611
6.7781,12.7003
6.8286,12.9343
6.8740,13.0472
6.9178,13.1564
7.0433,13.3602
7.2015,13.5399
7.3877,13.6903
7.5967,13.8070
7.6932,13.8411
7.8224,13.8867
7.8224,13.8867
7.8224,13.8867
8.0583,13.9272
8.0583,13.9272
8.2377,13.9272
8.4165,13.9120
8.5134,13.8867
8.6481,13.8517
8.6481,13.8517
8.6482,13.8517
8.8663,13.7531
9.0646,13.6190
9.2374,13.4534
9.3797,13.2609
9.4875,13.0472
9.5576,12.8183
9.5880,12.5809
9.5829,12.4611
32.1680,12.4611
32.1781,12.7003
32.2286,12.9343
32.2740,13.0472
32.3178,13.1564
32.4433,13.3602
32.6015,13.5399
32.7877,13.6903
32.9967,13.8070
33.0932,13.8411
33.2224,13.8867
33.2224,13.8867
33.2224,13.8867
33.4583,13.9272
33.4583,13.9272
33.6377,13.9272
33.8165,13.9120
33.9134,13.8867
34.0481,13.8517
34.0481,13.8517
34.0482,13.8517
34.2663,13.7531
34.4646,13.6190
34.6374,13.4534
34.7797,13.2609
34.8875,13.0472
34.9576,12.8183
34.9880,12.5809
34.9829,12.4611
34.9779,12.3417
34.9524,12.2237
34.9274,12.1077
34.8382,11.8856
34.7127,11.6818
34.5545,11.5021
34.3683,11.3517
34.1593,11.2350
34.1593,11.2350
34.1593,11.2350
33.9336,11.1553
33.9211,11.1531
33.6977,11.1148
33.5183,11.1148
33.3395,11.1300
33.3395,11.1300
33.1079,11.1903
32.8897,11.2889
32.8897,11.2889
32.6914,11.4230
32.6914,11.4230
32.5186,11.5886
32.3763,11.7810
32.2685,11.9948
32.1984,12.2237
32.1680,12.4611
9.5829,12.4611
9.5829,12.4611
9.5779,12.3417
9.5524,12.2237
9.5274,12.1077
9.4382,11.8856
9.3127,11.6818
9.1545,11.5021
8.9683,11.3517
8.7593,11.2350
8.7593,11.2350
8.7593,11.2350
8.5336,11.1553
8.5211,11.1531
8.2977,11.1148
8.1183,11.1148
7.9395,11.1300
7.9395,11.1300
7.7079,11.1903
7.4897,11.2889
7.4897,11.2889
7.2914,11.4230
7.2914,11.4230
7.1186,11.5886
6.9763,11.7810
6.8685,11.9948
6.7984,12.2237
6.7680,12.4611
0.5505,12.4611
0.5505,0.7015
0.5705,0.6334
0.6242,0.5869
0.6765,0.5755
41.0795,0.5755
Z" /> 
</g>
</g>
</g>
<g style="fill:#000000; fill-opacity:1.0000; 
stroke:#000000; stroke-width:0.0000; stroke-opacity:1; 
stroke-linecap:round; stroke-linejoin:round;">
<circle cx="23.1640" cy="32.8410" r="0.3810" /> 
</g>
<g style="fill:#000000; fill-opacity:1.0000; 
stroke:#000000; stroke-width:0.0212; stroke-opacity:1; 
stroke-linecap:round; stroke-linejoin:round;">
</g>
<g style="fill:#000000; fill-opacity:1.0000; 
stroke:#000000; stroke-width:0.0000; stroke-opacity:1; 
stroke-linecap:round; stroke-linejoin:round;">
<circle cx="10.0830" cy="30.1740" r="0.3810" /> 
</g>
<g style="fill:#000000; fill-opacity:1.0000; 
stroke:#000000; stroke-width:0.0212; stroke-opacity:1; 
stroke-linecap:round; stroke-linejoin:round;">
</g>
<g style="fill:#000000; fill-opacity:1.0000; 
stroke:#000000; stroke-width:0.0000; stroke-opacity:1; 
stroke-linecap:round; stroke-linejoin:round;">
<circle cx="7.2890" cy="27.7610" r="0.3810" /> 
</g>
<g style="fill:#000000; fill-opacity:1.0000; 
stroke:#000000; stroke-width:0.0212; stroke-opacity:1; 
stroke-linecap:round; stroke-linejoin:round;">
</g>
<g style="fill:#000000; fill-opacity:1.0000; 
stroke:#000000; stroke-width:0.0000; stroke-opacity:1; 
stroke-linecap:round; stroke-linejoin:round;">
<circle cx="23.1640" cy="34.7460" r="0.3810" /> 
</g>
<g style="fill:#000000; fill-opacity:1.0000; 
stroke:#000000; stroke-width:0.0212; stroke-opacity:1; 
stroke-linecap:round; stroke-linejoin:round;">
</g>
<g style="fill:#000000; fill-opacity:1.0000; 
stroke:#000000; stroke-width:0.0000; stroke-opacity:1; 
stroke-linecap:round; stroke-linejoin:round;">
<circle cx="10.0830" cy="35.5080" r="0.3810" /> 
</g>
<g style="fill:#000000; fill-opacity:1.0000; 
stroke:#000000; stroke-width:0.0212; stroke-opacity:1; 
stroke-linecap:round; stroke-linejoin:round;">
</g>
<g style="fill:#000000; fill-opacity:1.0000; 
stroke:#000000; stroke-width:0.0000; stroke-opacity:1; 
stroke-linecap:round; stroke-linejoin:round;">
<circle cx="17.4490" cy="38.5560" r="0.3810" /> 
</g>
<g style="fill:#000000; fill-opacity:1.0000; 
stroke:#000000; stroke-width:0.0212; stroke-opacity:1; 
stroke-linecap:round; stroke-linejoin:round;">
</g>
<g style="fill:#000000; fill-opacity:1.0000; 
stroke:#000000; stroke-width:0.0000; stroke-opacity:1; 
stroke-linecap:round; stroke-linejoin:round;">
<circle cx="5.3840" cy="30.3010" r="0.3810" /> 
</g>
<g style="fill:#000000; fill-opacity:1.0000; 
stroke:#000000; stroke-width:0.0212; stroke-opacity:1; 
stroke-linecap:round; stroke-linejoin:round;">
</g>
<g style="fill:#000000; fill-opacity:1.0000; 
stroke:#000000; stroke-width:0.0000; stroke-opacity:1; 
stroke-linecap:round; stroke-linejoin:round;">
<circle cx="5.0030" cy="34.3650" r="0.3175" /> 
</g>
<g style="fill:#000000; fill-opacity:1.0000; 
stroke:#000000; stroke-width:0.0212; stroke-opacity:1; 
stroke-linecap:round; stroke-linejoin:round;">
</g>
<g style="fill:#000000; fill-opacity:1.0000; 
stroke:#000000; stroke-width:0.0000; stroke-opacity:1; 
stroke-linecap:round; stroke-linejoin:round;">
<circle cx="12.2420" cy="35.6350" r="0.3175" /> 
</g>
<g style="fill:#000000; fill-opacity:1.0000; 
stroke:#000000; stroke-width:0.0212; stroke-opacity:1; 
stroke-linecap:round; stroke-linejoin:round;">
</g>
<g style="fill:#000000; fill-opacity:1.0000; 
stroke:#000000; stroke-width:0.0000; stroke-opacity:1; 
stroke-linecap:round; stroke-linejoin:round;">
<circle cx="21.2590" cy="16.4580" r="0.5004" /> 
</g>
<g style="fill:#000000; fill-opacity:1.0000; 
stroke:#000000; stroke-width:0.0212; stroke-opacity:1; 
stroke-linecap:round; stroke-linejoin:round;">
</g>
<g style="fill:#000000; fill-opacity:1.0000; 
stroke:#000000; stroke-width:0.0000; stroke-opacity:1; 
stroke-linecap:round; stroke-linejoin:round;">
<circle cx="18.7190" cy="16.4580" r="0.5004" /> 
</g>
<g style="fill:#000000; fill-opacity:1.0000; 
stroke:#000000; stroke-width:0.0212; stroke-opacity:1; 
stroke-linecap:round; stroke-linejoin:round;">
</g>
<g style="fill:#000000; fill-opacity:1.0000; 
stroke:#000000; stroke-width:0.0000; stroke-opacity:1; 
stroke-linecap:round; stroke-linejoin:round;">
<circle cx="23.7990" cy="16.4580" r="0.5004" /> 
</g>
<g style="fill:#000000; fill-opacity:1.0000; 
stroke:#000000; stroke-width:0.0212; stroke-opacity:1; 
stroke-linecap:round; stroke-linejoin:round;">
</g>
<g style="fill:#000000; fill-opacity:1.0000; 
stroke:#000000; stroke-width:0.0000; stroke-opacity:1; 
stroke-linecap:round; stroke-linejoin:round;">
<circle cx="20.4007" cy="20.1717" r="0.5004" /> 
</g>
<g style="fill:#000000; fill-opacity:1.0000; 
stroke:#000000; stroke-width:0.0212; stroke-opacity:1; 
stroke-linecap:round; stroke-linejoin:round;">
</g>
<g style="fill:#000000; fill-opacity:1.0000; 
stroke:#000000; stroke-width:0.0000; stroke-opacity:1; 
stroke-linecap:round; stroke-linejoin:round;">
<circle cx="31.0073" cy="30.7783" r="0.5004" /> 
</g>
<g style="fill:#000000; fill-opacity:1.0000; 
stroke:#000000; stroke-width:0.0212; stroke-opacity:1; 
stroke-linecap:round; stroke-linejoin:round;">
</g>
<g style="fill:#000000; fill-opacity:1.0000; 
stroke:#000000; stroke-width:0.0000; stroke-opacity:1; 
stroke-linecap:round; stroke-linejoin:round;">
<circle cx="8.1780" cy="12.5210" r="1.1557" /> 
</g>
<g style="fill:#000000; fill-opacity:1.0000; 
stroke:#000000; stroke-width:0.0212; stroke-opacity:1; 
stroke-linecap:round; stroke-linejoin:round;">
</g>
<g style="fill:#000000; fill-opacity:1.0000; 
stroke:#000000; stroke-width:0.0000; stroke-opacity:1; 
stroke-linecap:round; stroke-linejoin:round;">
<circle cx="33.5780" cy="12.5210" r="1.1557" /> 
</g>
<g style="fill:#000000; fill-opacity:1.0000; 
stroke:#000000; stroke-width:0.0212; stroke-opacity:1; 
stroke-linecap:round; stroke-linejoin:round;">
</g>
<g style="fill:#000000; fill-opacity:1.0000; 
stroke:#000000; stroke-width:0.0000; stroke-opacity:1; 
stroke-linecap:round; stroke-linejoin:round;">
<circle cx="37.1340" cy="44.7790" r="0.6502" /> 
</g>
<g style="fill:#000000; fill-opacity:1.0000; 
stroke:#000000; stroke-width:0.0212; stroke-opacity:1; 
stroke-linecap:round; stroke-linejoin:round;">
</g>
<g style="fill:#000000; fill-opacity:1.0000; 
stroke:#000000; stroke-width:0.0000; stroke-opacity:1; 
stroke-linecap:round; stroke-linejoin:round;">
<circle cx="37.1340" cy="39.6990" r="0.6502" /> 
</g>
<g style="fill:#000000; fill-opacity:1.0000; 
stroke:#000000; stroke-width:0.0212; stroke-opacity:1; 
stroke-linecap:round; stroke-linejoin:round;">
</g>
<g style="fill:#000000; fill-opacity:1.0000; 
stroke:#000000; stroke-width:0.0000; stroke-opacity:1; 
stroke-linecap:round; stroke-linejoin:round;">
<circle cx="37.1340" cy="33.4760" r="0.6502" /> 
</g>
<g style="fill:#000000; fill-opacity:1.0000; 
stroke:#000000; stroke-width:0.0212; stroke-opacity:1; 
stroke-linecap:round; stroke-linejoin:round;">
</g>
<g style="fill:#000000; fill-opacity:1.0000; 
stroke:#000000; stroke-width:0.0000; stroke-opacity:1; 
stroke-linecap:round; stroke-linejoin:round;">
<circle cx="37.1340" cy="28.3960" r="0.6502" /> 
</g>
<g style="fill:#000000; fill-opacity:1.0000; 
stroke:#000000; stroke-width:0.0212; stroke-opacity:1; 
stroke-linecap:round; stroke-linejoin:round;">
</g>
<g style="fill:#000000; fill-opacity:1.0000; 
stroke:#000000; stroke-width:0.0000; stroke-opacity:1; 
stroke-linecap:round; stroke-linejoin:round;">
<circle cx="31.0380" cy="38.6830" r="0.5080" /> 
</g>
<g style="fill:#000000; fill-opacity:1.0000; 
stroke:#000000; stroke-width:0.0212; stroke-opacity:1; 
stroke-linecap:round; stroke-linejoin:round;">
</g>
<g style="fill:#000000; fill-opacity:1.0000; 
stroke:#000000; stroke-width:0.0000; stroke-opacity:1; 
stroke-linecap:round; stroke-linejoin:round;">
<circle cx="31.0380" cy="36.1430" r="0.5080" /> 
</g>
<g style="fill:#000000; fill-opacity:1.0000; 
stroke:#000000; stroke-width:0.0212; stroke-opacity:1; 
stroke-linecap:round; stroke-linejoin:round;">
</g>
<g style="fill:#000000; fill-opacity:1.0000; 
stroke:#000000; stroke-width:0.0000; stroke-opacity:1; 
stroke-linecap:round; stroke-linejoin:round;">
<circle cx="31.0380" cy="33.6030" r="0.5080" /> 
</g>
<g style="fill:#000000; fill-opacity:1.0000; 
stroke:#000000; stroke-width:0.0212; stroke-opacity:1; 
stroke-linecap:round; stroke-linejoin:round;">
</g>
<g style="fill:#000000; fill-opacity:1.0000; 
stroke:#000000; stroke-width:2.0000; stroke-opacity:1; 
stroke-linecap:round; stroke-linejoin:round;">
</g>
<g style="fill:#000000; fill-opacity:0.0; 
stroke:#000000; stroke-width:2.0000; stroke-opacity:1; 
stroke-linecap:round; stroke-linejoin:round;">
<path d="M2.3160 40.7440
L2.3160 40.9440
" />
<path d="M12.5160 40.7440
L12.5160 40.9440
" />
</g>
<g style="fill:#000000; fill-opacity:1.0000; 
stroke:#000000; stroke-width:0.0000; stroke-opacity:1; 
stroke-linecap:round; stroke-linejoin:round;">
<circle cx="4.9160" cy="44.1440" r="0.5000" /> 
</g>
<g style="fill:#000000; fill-opacity:1.0000; 
stroke:#000000; stroke-width:0.0212; stroke-opacity:1; 
stroke-linecap:round; stroke-linejoin:round;">
</g>
<g style="fill:#000000; fill-opacity:1.0000; 
stroke:#000000; stroke-width:0.0000; stroke-opacity:1; 
stroke-linecap:round; stroke-linejoin:round;">
<circle cx="7.4160" cy="44.1440" r="0.5000" /> 
</g>
<g style="fill:#000000; fill-opacity:1.0000; 
stroke:#000000; stroke-width:0.0212; stroke-opacity:1; 
stroke-linecap:round; stroke-linejoin:round;">
</g>
<g style="fill:#000000; fill-opacity:1.0000; 
stroke:#000000; stroke-width:0.0000; stroke-opacity:1; 
stroke-linecap:round; stroke-linejoin:round;">
<circle cx="9.9160" cy="44.1440" r="0.5000" /> 
</g>
<g style="fill:#000000; fill-opacity:1.0000; 
stroke:#000000; stroke-width:0.0212; stroke-opacity:1; 
stroke-linecap:round; stroke-linejoin:round;">
</g>
<g style="fill:#000000; fill-opacity:1.0000; 
stroke:#000000; stroke-width:2.0000; stroke-opacity:1; 
stroke-linecap:round; stroke-linejoin:round;">
</g>
<g style="fill:#000000; fill-opacity:0.0; 
stroke:#000000; stroke-width:2.0000; stroke-opacity:1; 
stroke-linecap:round; stroke-linejoin:round;">
<path d="M16.2860 40.6170
L16.2860 40.8170
" />
<path d="M26.4860 40.6170
L26.4860 40.8170
" />
</g>
<g style="fill:#000000; fill-opacity:1.0000; 
stroke:#000000; stroke-width:0.0000; stroke-opacity:1; 
stroke-linecap:round; stroke-linejoin:round;">
<circle cx="18.8860" cy="44.0170" r="0.5000" /> 
</g>
<g style="fill:#000000; fill-opacity:1.0000; 
stroke:#000000; stroke-width:0.0212; stroke-opacity:1; 
stroke-linecap:round; stroke-linejoin:round;">
</g>
<g style="fill:#000000; fill-opacity:1.0000; 
stroke:#000000; stroke-width:0.0000; stroke-opacity:1; 
stroke-linecap:round; stroke-linejoin:round;">
<circle cx="21.3860" cy="44.0170" r="0.5000" /> 
</g>
<g style="fill:#000000; fill-opacity:1.0000; 
stroke:#000000; stroke-width:0.0212; stroke-opacity:1; 
stroke-linecap:round; stroke-linejoin:round;">
</g>
<g style="fill:#000000; fill-opacity:1.0000; 
stroke:#000000; stroke-width:0.0000; stroke-opacity:1; 
stroke-linecap:round; stroke-linejoin:round;">
<circle cx="23.8860" cy="44.0170" r="0.5000" /> 
</g>
<g style="fill:#000000; fill-opacity:1.0000; 
stroke:#000000; stroke-width:0.0212; stroke-opacity:1; 
stroke-linecap:round; stroke-linejoin:round;">
</g>
<g style="fill:#FFFFFF; fill-opacity:1.0000; 
stroke:#FFFFFF; stroke-width:0.0212; stroke-opacity:1; 
stroke-linecap:round; stroke-linejoin:round;">
<g >
</g>
<g style="fill:#37CBCB; fill-opacity:1.0000; 
stroke:#37CBCB; stroke-width:0.0212; stroke-opacity:1; 
stroke-linecap:round; stroke-linejoin:round;">
</g>
<g style="fill:#37CBCB; fill-opacity:1.0000; 
stroke:#37CBCB; stroke-width:0.0000; stroke-opacity:1; 
stroke-linecap:round; stroke-linejoin:round;">
<path style="fill:#37CBCB; fill-opacity:1.0000; 
stroke:#37CBCB; stroke-width:0.0000; stroke-opacity:1; 
stroke-linecap:round; stroke-linejoin:round;fill-rule:evenodd;"
d="M 15.3210,22.0620
16.0210,22.0620
16.0210,22.6620
15.3210,22.6620
Z" /> 
<path style="fill:#37CBCB; fill-opacity:1.0000; 
stroke:#37CBCB; stroke-width:0.0000; stroke-opacity:1; 
stroke-linecap:round; stroke-linejoin:round;fill-rule:evenodd;"
d="M 15.3210,23.4620
16.0210,23.4620
16.0210,24.0620
15.3210,24.0620
Z" /> 
</g>
<g >
</g>
<g style="fill:#37CBCB; fill-opacity:1.0000; 
stroke:#37CBCB; stroke-width:0.0000; stroke-opacity:1; 
stroke-linecap:round; stroke-linejoin:round;">
</g>
<g style="fill:#37CBCB; fill-opacity:1.0000; 
stroke:#37CBCB; stroke-width:1.5011; stroke-opacity:1; 
stroke-linecap:round; stroke-linejoin:round;">
</g>
<g style="fill:#37CBCB; fill-opacity:0.0; 
stroke:#37CBCB; stroke-width:1.5011; stroke-opacity:1; 
stroke-linecap:round; stroke-linejoin:round;">
<path d="M21.2590 16.9571
L21.2590 15.9589
" />
<path d="M18.7190 16.9571
L18.7190 15.9589
" />
<path d="M23.7990 16.9571
L23.7990 15.9589
" />
</g>
<g >
</g>
<g style="fill:#37CBCB; fill-opacity:0.0; 
stroke:#37CBCB; stroke-width:1.5011; stroke-opacity:1; 
stroke-linecap:round; stroke-linejoin:round;">
</g>
<g style="fill:#37CBCB; fill-opacity:0.0; 
stroke:#37CBCB; stroke-width:0.0000; stroke-opacity:1; 
stroke-linecap:round; stroke-linejoin:round;">
</g>
<g style="fill:#37CBCB; fill-opacity:1.0000; 
stroke:#37CBCB; stroke-width:0.0000; stroke-opacity:1; 
stroke-linecap:round; stroke-linejoin:round;">
<path style="fill:#37CBCB; fill-opacity:1.0000; 
stroke:#37CBCB; stroke-width:0.0000; stroke-opacity:1; 
stroke-linecap:round; stroke-linejoin:round;fill-rule:evenodd;"
d="M 5.7650,27.8245
5.7650,29.2215
4.8760,29.2215
4.8760,27.8245
Z" /> 
<path style="fill:#37CBCB; fill-opacity:1.0000; 
stroke:#37CBCB; stroke-width:0.0000; stroke-opacity:1; 
stroke-linecap:round; stroke-linejoin:round;fill-rule:evenodd;"
d="M 3.8600,27.8245
3.8600,29.2215
2.9710,29.2215
2.9710,27.8245
Z" /> 
</g>
<g >
</g>
<g style="fill:#37CBCB; fill-opacity:1.0000; 
stroke:#37CBCB; stroke-width:0.0000; stroke-opacity:1; 
stroke-linecap:round; stroke-linejoin:round;">
<path style="fill:#37CBCB; fill-opacity:1.0000; 
stroke:#37CBCB; stroke-width:0.0000; stroke-opacity:1; 
stroke-linecap:round; stroke-linejoin:round;fill-rule:evenodd;"
d="M 6.7810,35.9525
6.7810,37.3495
5.8920,37.3495
5.8920,35.9525
Z" /> 
<path style="fill:#37CBCB; fill-opacity:1.0000; 
stroke:#37CBCB; stroke-width:0.0000; stroke-opacity:1; 
stroke-linecap:round; stroke-linejoin:round;fill-rule:evenodd;"
d="M 4.8760,35.9525
4.8760,37.3495
3.9870,37.3495
3.9870,35.9525
Z" /> 
</g>
<g >
</g>
<g style="fill:#37CBCB; fill-opacity:1.0000; 
stroke:#37CBCB; stroke-width:0.0000; stroke-opacity:1; 
stroke-linecap:round; stroke-linejoin:round;">
<path style="fill:#37CBCB; fill-opacity:1.0000; 
stroke:#37CBCB; stroke-width:0.0000; stroke-opacity:1; 
stroke-linecap:round; stroke-linejoin:round;fill-rule:evenodd;"
d="M 29.1965,37.7940
27.7995,37.7940
27.7995,36.9050
29.1965,36.9050
Z" /> 
<path style="fill:#37CBCB; fill-opacity:1.0000; 
stroke:#37CBCB; stroke-width:0.0000; stroke-opacity:1; 
stroke-linecap:round; stroke-linejoin:round;fill-rule:evenodd;"
d="M 29.1965,35.8890
27.7995,35.8890
27.7995,35.0000
29.1965,35.0000
Z" /> 
</g>
<g >
</g>
<g style="fill:#37CBCB; fill-opacity:1.0000; 
stroke:#37CBCB; stroke-width:0.0000; stroke-opacity:1; 
stroke-linecap:round; stroke-linejoin:round;">
<path style="fill:#37CBCB; fill-opacity:1.0000; 
stroke:#37CBCB; stroke-width:0.0000; stroke-opacity:1; 
stroke-linecap:round; stroke-linejoin:round;fill-rule:evenodd;"
d="M 17.1315,34.3650
18.5285,34.3650
18.5285,35.2540
17.1315,35.2540
Z" /> 
<path style="fill:#37CBCB; fill-opacity:1.0000; 
stroke:#37CBCB; stroke-width:0.0000; stroke-opacity:1; 
stroke-linecap:round; stroke-linejoin:round;fill-rule:evenodd;"
d="M 17.1315,36.2700
18.5285,36.2700
18.5285,37.1590
17.1315,37.1590
Z" /> 
</g>
<g >
</g>
<g style="fill:#37CBCB; fill-opacity:1.0000; 
stroke:#37CBCB; stroke-width:0.0000; stroke-opacity:1; 
stroke-linecap:round; stroke-linejoin:round;">
<circle cx="20.4007" cy="20.1717" r="0.9995" /> 
</g>
<g style="fill:#37CBCB; fill-opacity:1.0000; 
stroke:#37CBCB; stroke-width:0.0212; stroke-opacity:1; 
stroke-linecap:round; stroke-linejoin:round;">
</g>
<g style="fill:#37CBCB; fill-opacity:1.0000; 
stroke:#37CBCB; stroke-width:0.0000; stroke-opacity:1; 
stroke-linecap:round; stroke-linejoin:round;">
<circle cx="31.0073" cy="30.7783" r="0.9995" /> 
</g>
<g style="fill:#37CBCB; fill-opacity:1.0000; 
stroke:#37CBCB; stroke-width:0.0212; stroke-opacity:1; 
stroke-linecap:round; stroke-linejoin:round;">
</g>
<g >
</g>
<g style="fill:#37CBCB; fill-opacity:1.0000; 
stroke:#37CBCB; stroke-width:0.0212; stroke-opacity:1; 
stroke-linecap:round; stroke-linejoin:round;">
</g>
<g style="fill:#37CBCB; fill-opacity:1.0000; 
stroke:#37CBCB; stroke-width:0.0000; stroke-opacity:1; 
stroke-linecap:round; stroke-linejoin:round;">
<path style="fill:#37CBCB; fill-opacity:1.0000; 
stroke:#37CBCB; stroke-width:0.0000; stroke-opacity:1; 
stroke-linecap:round; stroke-linejoin:round;fill-rule:evenodd;"
d="M 6.3365,29.9200
7.4795,29.9200
7.4795,30.4280
6.3365,30.4280
Z" /> 
<path style="fill:#37CBCB; fill-opacity:1.0000; 
stroke:#37CBCB; stroke-width:0.0000; stroke-opacity:1; 
stroke-linecap:round; stroke-linejoin:round;fill-rule:evenodd;"
d="M 6.3365,31.1900
7.4795,31.1900
7.4795,31.6980
6.3365,31.6980
Z" /> 
<path style="fill:#37CBCB; fill-opacity:1.0000; 
stroke:#37CBCB; stroke-width:0.0000; stroke-opacity:1; 
stroke-linecap:round; stroke-linejoin:round;fill-rule:evenodd;"
d="M 6.3365,32.4600
7.4795,32.4600
7.4795,32.9680
6.3365,32.9680
Z" /> 
<path style="fill:#37CBCB; fill-opacity:1.0000; 
stroke:#37CBCB; stroke-width:0.0000; stroke-opacity:1; 
stroke-linecap:round; stroke-linejoin:round;fill-rule:evenodd;"
d="M 6.3365,33.7300
7.4795,33.7300
7.4795,34.2380
6.3365,34.2380
Z" /> 
<path style="fill:#37CBCB; fill-opacity:1.0000; 
stroke:#37CBCB; stroke-width:0.0000; stroke-opacity:1; 
stroke-linecap:round; stroke-linejoin:round;fill-rule:evenodd;"
d="M 12.6865,33.7300
13.8295,33.7300
13.8295,34.2380
12.6865,34.2380
Z" /> 
<path style="fill:#37CBCB; fill-opacity:1.0000; 
stroke:#37CBCB; stroke-width:0.0000; stroke-opacity:1; 
stroke-linecap:round; stroke-linejoin:round;fill-rule:evenodd;"
d="M 12.6865,32.4600
13.8295,32.4600
13.8295,32.9680
12.6865,32.9680
Z" /> 
<path style="fill:#37CBCB; fill-opacity:1.0000; 
stroke:#37CBCB; stroke-width:0.0000; stroke-opacity:1; 
stroke-linecap:round; stroke-linejoin:round;fill-rule:evenodd;"
d="M 12.6865,31.1900
13.8295,31.1900
13.8295,31.6980
12.6865,31.6980
Z" /> 
<path style="fill:#37CBCB; fill-opacity:1.0000; 
stroke:#37CBCB; stroke-width:0.0000; stroke-opacity:1; 
stroke-linecap:round; stroke-linejoin:round;fill-rule:evenodd;"
d="M 12.6865,29.9200
13.8295,29.9200
13.8295,30.4280
12.6865,30.4280
Z" /> 
</g>
<g >
</g>
<g style="fill:#37CBCB; fill-opacity:1.0000; 
stroke:#37CBCB; stroke-width:0.0000; stroke-opacity:1; 
stroke-linecap:round; stroke-linejoin:round;">
<path style="fill:#37CBCB; fill-opacity:1.0000; 
stroke:#37CBCB; stroke-width:0.0000; stroke-opacity:1; 
stroke-linecap:round; stroke-linejoin:round;fill-rule:evenodd;"
d="M 19.6715,32.5870
20.8145,32.5870
20.8145,33.0950
19.6715,33.0950
Z" /> 
<path style="fill:#37CBCB; fill-opacity:1.0000; 
stroke:#37CBCB; stroke-width:0.0000; stroke-opacity:1; 
stroke-linecap:round; stroke-linejoin:round;fill-rule:evenodd;"
d="M 19.6715,33.8570
20.8145,33.8570
20.8145,34.3650
19.6715,34.3650
Z" /> 
<path style="fill:#37CBCB; fill-opacity:1.0000; 
stroke:#37CBCB; stroke-width:0.0000; stroke-opacity:1; 
stroke-linecap:round; stroke-linejoin:round;fill-rule:evenodd;"
d="M 19.6715,35.1270
20.8145,35.1270
20.8145,35.6350
19.6715,35.6350
Z" /> 
<path style="fill:#37CBCB; fill-opacity:1.0000; 
stroke:#37CBCB; stroke-width:0.0000; stroke-opacity:1; 
stroke-linecap:round; stroke-linejoin:round;fill-rule:evenodd;"
d="M 19.6715,36.3970
20.8145,36.3970
20.8145,36.9050
19.6715,36.9050
Z" /> 
<path style="fill:#37CBCB; fill-opacity:1.0000; 
stroke:#37CBCB; stroke-width:0.0000; stroke-opacity:1; 
stroke-linecap:round; stroke-linejoin:round;fill-rule:evenodd;"
d="M 26.0215,36.3970
27.1645,36.3970
27.1645,36.9050
26.0215,36.9050
Z" /> 
<path style="fill:#37CBCB; fill-opacity:1.0000; 
stroke:#37CBCB; stroke-width:0.0000; stroke-opacity:1; 
stroke-linecap:round; stroke-linejoin:round;fill-rule:evenodd;"
d="M 26.0215,35.1270
27.1645,35.1270
27.1645,35.6350
26.0215,35.6350
Z" /> 
<path style="fill:#37CBCB; fill-opacity:1.0000; 
stroke:#37CBCB; stroke-width:0.0000; stroke-opacity:1; 
stroke-linecap:round; stroke-linejoin:round;fill-rule:evenodd;"
d="M 26.0215,33.8570
27.1645,33.8570
27.1645,34.3650
26.0215,34.3650
Z" /> 
<path style="fill:#37CBCB; fill-opacity:1.0000; 
stroke:#37CBCB; stroke-width:0.0000; stroke-opacity:1; 
stroke-linecap:round; stroke-linejoin:round;fill-rule:evenodd;"
d="M 26.0215,32.5870
27.1645,32.5870
27.1645,33.0950
26.0215,33.0950
Z" /> 
</g>
<g >
</g>
<g >
</g>
<g style="fill:#37CBCB; fill-opacity:1.0000; 
stroke:#37CBCB; stroke-width:0.0000; stroke-opacity:1; 
stroke-linecap:round; stroke-linejoin:round;">
<path style="fill:#37CBCB; fill-opacity:1.0000; 
stroke:#37CBCB; stroke-width:0.0000; stroke-opacity:1; 
stroke-linecap:round; stroke-linejoin:round;fill-rule:evenodd;"
d="M 38.4040,46.0490
35.8640,46.0490
35.8640,43.5090
38.4040,43.5090
Z" /> 
<circle cx="37.1340" cy="39.6990" r="1.2700" /> 
</g>
<g >
</g>
<g style="fill:#37CBCB; fill-opacity:1.0000; 
stroke:#37CBCB; stroke-width:0.0000; stroke-opacity:1; 
stroke-linecap:round; stroke-linejoin:round;">
<path style="fill:#37CBCB; fill-opacity:1.0000; 
stroke:#37CBCB; stroke-width:0.0000; stroke-opacity:1; 
stroke-linecap:round; stroke-linejoin:round;fill-rule:evenodd;"
d="M 38.4040,34.7460
35.8640,34.7460
35.8640,32.2060
38.4040,32.2060
Z" /> 
<circle cx="37.1340" cy="28.3960" r="1.2700" /> 
</g>
<g >
</g>
<g style="fill:#37CBCB; fill-opacity:1.0000; 
stroke:#37CBCB; stroke-width:0.0000; stroke-opacity:1; 
stroke-linecap:round; stroke-linejoin:round;">
<path style="fill:#37CBCB; fill-opacity:1.0000; 
stroke:#37CBCB; stroke-width:0.0000; stroke-opacity:1; 
stroke-linecap:round; stroke-linejoin:round;fill-rule:evenodd;"
d="M 32.0540,39.5466
30.0220,39.5466
30.0220,37.8194
32.0540,37.8194
Z" /> 
</g>
<g style="fill:#37CBCB; fill-opacity:1.0000; 
stroke:#37CBCB; stroke-width:1.7272; stroke-opacity:1; 
stroke-linecap:round; stroke-linejoin:round;">
</g>
<g style="fill:#37CBCB; fill-opacity:0.0; 
stroke:#37CBCB; stroke-width:1.7272; stroke-opacity:1; 
stroke-linecap:round; stroke-linejoin:round;">
<path d="M30.8856 36.1430
L31.1904 36.1430
" />
<path d="M30.8856 33.6030
L31.1904 33.6030
" />
</g>
<g >
</g>
<g style="fill:#37CBCB; fill-opacity:0.0; 
stroke:#37CBCB; stroke-width:1.7272; stroke-opacity:1; 
stroke-linecap:round; stroke-linejoin:round;">
</g>
<g style="fill:#37CBCB; fill-opacity:1.0000; 
stroke:#37CBCB; stroke-width:0.0000; stroke-opacity:1; 
stroke-linecap:round; stroke-linejoin:round;">
<circle cx="4.9160" cy="44.1440" r="1.0000" /> 
</g>
<g style="fill:#37CBCB; fill-opacity:1.0000; 
stroke:#37CBCB; stroke-width:0.0212; stroke-opacity:1; 
stroke-linecap:round; stroke-linejoin:round;">
</g>
<g style="fill:#37CBCB; fill-opacity:1.0000; 
stroke:#37CBCB; stroke-width:0.0000; stroke-opacity:1; 
stroke-linecap:round; stroke-linejoin:round;">
<circle cx="7.4160" cy="44.1440" r="1.0000" /> 
</g>
<g style="fill:#37CBCB; fill-opacity:1.0000; 
stroke:#37CBCB; stroke-width:0.0212; stroke-opacity:1; 
stroke-linecap:round; stroke-linejoin:round;">
</g>
<g style="fill:#37CBCB; fill-opacity:1.0000; 
stroke:#37CBCB; stroke-width:0.0000; stroke-opacity:1; 
stroke-linecap:round; stroke-linejoin:round;">
<circle cx="9.9160" cy="44.1440" r="1.0000" /> 
</g>
<g style="fill:#37CBCB; fill-opacity:1.0000; 
stroke:#37CBCB; stroke-width:0.0212; stroke-opacity:1; 
stroke-linecap:round; stroke-linejoin:round;">
</g>
<g >
</g>
<g style="fill:#37CBCB; fill-opacity:1.0000; 
stroke:#37CBCB; stroke-width:0.0212; stroke-opacity:1; 
stroke-linecap:round; stroke-linejoin:round;">
</g>
<g style="fill:#37CBCB; fill-opacity:1.0000; 
stroke:#37CBCB; stroke-width:0.0000; stroke-opacity:1; 
stroke-linecap:round; stroke-linejoin:round;">
<circle cx="18.8860" cy="44.0170" r="1.0000" /> 
</g>
<g style="fill:#37CBCB; fill-opacity:1.0000; 
stroke:#37CBCB; stroke-width:0.0212; stroke-opacity:1; 
stroke-linecap:round; stroke-linejoin:round;">
</g>
<g style="fill:#37CBCB; fill-opacity:1.0000; 
stroke:#37CBCB; stroke-width:0.0000; stroke-opacity:1; 
stroke-linecap:round; stroke-linejoin:round;">
<circle cx="21.3860" cy="44.0170" r="1.0000" /> 
</g>
<g style="fill:#37CBCB; fill-opacity:1.0000; 
stroke:#37CBCB; stroke-width:0.0212; stroke-opacity:1; 
stroke-linecap:round; stroke-linejoin:round;">
</g>
<g style="fill:#37CBCB; fill-opacity:1.0000; 
stroke:#37CBCB; stroke-width:0.0000; stroke-opacity:1; 
stroke-linecap:round; stroke-linejoin:round;">
<circle cx="23.8860" cy="44.0170" r="1.0000" /> 
</g>
<g style="fill:#37CBCB; fill-opacity:1.0000; 
stroke:#37CBCB; stroke-width:0.0212; stroke-opacity:1; 
stroke-linecap:round; stroke-linejoin:round;">
</g>
<g >
</g>
<g style="fill:#37CBCB; fill-opacity:1.0000; 
stroke:#37CBCB; stroke-width:0.0212; stroke-opacity:1; 
stroke-linecap:round; stroke-linejoin:round;">
</g>
<g style="fill:#37CBCB; fill-opacity:1.0000; 
stroke:#37CBCB; stroke-width:0.0000; stroke-opacity:1; 
stroke-linecap:round; stroke-linejoin:round;">
<path style="fill:#37CBCB; fill-opacity:1.0000; 
stroke:#37CBCB; stroke-width:0.0000; stroke-opacity:1; 
stroke-linecap:round; stroke-linejoin:round;fill-rule:evenodd;"
d="M 4.3045,32.9680
2.9075,32.9680
2.9075,32.0790
4.3045,32.0790
Z" /> 
<path style="fill:#37CBCB; fill-opacity:1.0000; 
stroke:#37CBCB; stroke-width:0.0000; stroke-opacity:1; 
stroke-linecap:round; stroke-linejoin:round;fill-rule:evenodd;"
d="M 4.3045,31.0630
2.9075,31.0630
2.9075,30.1740
4.3045,30.1740
Z" /> 
</g>
<g >
</g>
<g style="fill:#37CBCB; fill-opacity:1.0000; 
stroke:#37CBCB; stroke-width:0.0000; stroke-opacity:1; 
stroke-linecap:round; stroke-linejoin:round;">
<path style="fill:#37CBCB; fill-opacity:1.0000; 
stroke:#37CBCB; stroke-width:0.0000; stroke-opacity:1; 
stroke-linecap:round; stroke-linejoin:round;fill-rule:evenodd;"
d="M 17.2585,21.5380
18.6555,21.5380
18.6555,22.4270
17.2585,22.4270
Z" /> 
<path style="fill:#37CBCB; fill-opacity:1.0000; 
stroke:#37CBCB; stroke-width:0.0000; stroke-opacity:1; 
stroke-linecap:round; stroke-linejoin:round;fill-rule:evenodd;"
d="M 17.2585,23.4430
18.6555,23.4430
18.6555,24.3320
17.2585,24.3320
Z" /> 
</g>
<g >
</g>
<g style="fill:#37CBCB; fill-opacity:1.0000; 
stroke:#37CBCB; stroke-width:0.0000; stroke-opacity:1; 
stroke-linecap:round; stroke-linejoin:round;">
<path style="fill:#37CBCB; fill-opacity:1.0000; 
stroke:#37CBCB; stroke-width:0.0000; stroke-opacity:1; 
stroke-linecap:round; stroke-linejoin:round;fill-rule:evenodd;"
d="M 14.4645,36.1430
15.8615,36.1430
15.8615,37.0320
14.4645,37.0320
Z" /> 
<path style="fill:#37CBCB; fill-opacity:1.0000; 
stroke:#37CBCB; stroke-width:0.0000; stroke-opacity:1; 
stroke-linecap:round; stroke-linejoin:round;fill-rule:evenodd;"
d="M 14.4645,38.0480
15.8615,38.0480
15.8615,38.9370
14.4645,38.9370
Z" /> 
</g>
<g >
</g>
<g >
</g>
<g >
</g>
<g >
</g>
<g >
</g>
<g >
</g>
<g style="fill:#121212; fill-opacity:1.0000; 
stroke:#121212; stroke-width:0.0000; stroke-opacity:1; 
stroke-linecap:round; stroke-linejoin:round;">
<circle cx="23.1640" cy="32.8410" r="0.5715" /> 
</g>
<g style="fill:#121212; fill-opacity:1.0000; 
stroke:#121212; stroke-width:0.0212; stroke-opacity:1; 
stroke-linecap:round; stroke-linejoin:round;">
</g>
<g style="fill:#121212; fill-opacity:1.0000; 
stroke:#121212; stroke-width:0.0000; stroke-opacity:1; 
stroke-linecap:round; stroke-linejoin:round;">
<circle cx="10.0830" cy="30.1740" r="0.5715" /> 
</g>
<g style="fill:#121212; fill-opacity:1.0000; 
stroke:#121212; stroke-width:0.0212; stroke-opacity:1; 
stroke-linecap:round; stroke-linejoin:round;">
</g>
<g style="fill:#121212; fill-opacity:1.0000; 
stroke:#121212; stroke-width:0.0000; stroke-opacity:1; 
stroke-linecap:round; stroke-linejoin:round;">
<circle cx="7.2890" cy="27.7610" r="0.5715" /> 
</g>
<g style="fill:#121212; fill-opacity:1.0000; 
stroke:#121212; stroke-width:0.0212; stroke-opacity:1; 
stroke-linecap:round; stroke-linejoin:round;">
</g>
<g style="fill:#121212; fill-opacity:1.0000; 
stroke:#121212; stroke-width:0.0000; stroke-opacity:1; 
stroke-linecap:round; stroke-linejoin:round;">
<circle cx="23.1640" cy="34.7460" r="0.5715" /> 
</g>
<g style="fill:#121212; fill-opacity:1.0000; 
stroke:#121212; stroke-width:0.0212; stroke-opacity:1; 
stroke-linecap:round; stroke-linejoin:round;">
</g>
<g style="fill:#121212; fill-opacity:1.0000; 
stroke:#121212; stroke-width:0.0000; stroke-opacity:1; 
stroke-linecap:round; stroke-linejoin:round;">
<circle cx="10.0830" cy="35.5080" r="0.5715" /> 
</g>
<g style="fill:#121212; fill-opacity:1.0000; 
stroke:#121212; stroke-width:0.0212; stroke-opacity:1; 
stroke-linecap:round; stroke-linejoin:round;">
</g>
<g style="fill:#121212; fill-opacity:1.0000; 
stroke:#121212; stroke-width:0.0000; stroke-opacity:1; 
stroke-linecap:round; stroke-linejoin:round;">
<circle cx="17.4490" cy="38.5560" r="0.5715" /> 
</g>
<g style="fill:#121212; fill-opacity:1.0000; 
stroke:#121212; stroke-width:0.0212; stroke-opacity:1; 
stroke-linecap:round; stroke-linejoin:round;">
</g>
<g style="fill:#121212; fill-opacity:1.0000; 
stroke:#121212; stroke-width:0.0000; stroke-opacity:1; 
stroke-linecap:round; stroke-linejoin:round;">
<circle cx="5.3840" cy="30.3010" r="0.5715" /> 
</g>
<g style="fill:#121212; fill-opacity:1.0000; 
stroke:#121212; stroke-width:0.0212; stroke-opacity:1; 
stroke-linecap:round; stroke-linejoin:round;">
</g>
<g style="fill:#121212; fill-opacity:1.0000; 
stroke:#121212; stroke-width:0.0000; stroke-opacity:1; 
stroke-linecap:round; stroke-linejoin:round;">
<circle cx="5.0030" cy="34.3650" r="0.4445" /> 
</g>
<g style="fill:#121212; fill-opacity:1.0000; 
stroke:#121212; stroke-width:0.0212; stroke-opacity:1; 
stroke-linecap:round; stroke-linejoin:round;">
</g>
<g style="fill:#121212; fill-opacity:1.0000; 
stroke:#121212; stroke-width:0.0000; stroke-opacity:1; 
stroke-linecap:round; stroke-linejoin:round;">
<circle cx="12.2420" cy="35.6350" r="0.4445" /> 
</g>
<g style="fill:#121212; fill-opacity:1.0000; 
stroke:#121212; stroke-width:0.0212; stroke-opacity:1; 
stroke-linecap:round; stroke-linejoin:round;">
</g>
<g >
</g>
<g style="fill:#37CBCB; fill-opacity:1.0000; 
stroke:#37CBCB; stroke-width:0.0212; stroke-opacity:1; 
stroke-linecap:round; stroke-linejoin:round;">
</g>
<g style="fill:#37CBCB; fill-opacity:1.0000; 
stroke:#37CBCB; stroke-width:0.6096; stroke-opacity:1; 
stroke-linecap:round; stroke-linejoin:round;">
</g>
<g style="fill:#37CBCB; fill-opacity:0.0; 
stroke:#37CBCB; stroke-width:0.6096; stroke-opacity:1; 
stroke-linecap:round; stroke-linejoin:round;">
<path d="M6.5270 28.5230
L7.2890 27.7610
" />
<path d="M17.8300 34.1110
L19.1000 32.8410
" />
<path d="M19.1000 32.8410
L20.2430 32.8410
" />
<path d="M6.5270 28.5230
L5.3205 28.5230
" />
<path d="M10.0830 30.1740
L13.2580 30.1740
" />
<path d="M17.8300 34.8095
L17.8300 34.1110
" />
<path d="M20.2430 32.8410
L23.1640 32.8410
" />
<path d="M5.0665 30.6185
L5.3840 30.3010
" />
<path d="M17.3855 38.4925
L17.4490 38.5560
" />
<path d="M9.3210 33.9840
L10.0830 34.7460
" />
<path d="M10.0830 34.7460
L10.0830 35.5080
" />
<path d="M23.7990 34.1110
L23.1640 34.7460
" />
<path d="M22.5290 34.1110
L23.1640 34.7460
" />
<path d="M22.5290 35.3810
L23.1640 34.7460
" />
<path d="M23.7990 35.3810
L23.1640 34.7460
" />
<path d="M26.6565 35.4445
L26.5930 35.3810
" />
<path d="M6.9080 33.9840
L9.3210 33.9840
" />
<path d="M3.6060 30.6185
L5.0665 30.6185
" />
<path d="M28.4980 35.4445
L26.6565 35.4445
" />
<path d="M20.2430 35.3810
L22.5290 35.3810
" />
<path d="M23.7990 34.1110
L26.5930 34.1110
" />
<path d="M20.2430 34.1110
L22.5290 34.1110
" />
<path d="M26.5930 35.3810
L23.7990 35.3810
" />
<path d="M15.1630 38.4925
L17.3855 38.4925
" />
<path d="M28.6250 33.4760
L27.9900 32.8410
" />
<path d="M27.9900 32.8410
L26.5930 32.8410
" />
<path d="M31.0380 35.8890
L27.9900 32.8410
" />
<path d="M31.0380 36.1430
L31.0380 35.8890
" />
</g>
<g style="fill:#37CBCB; fill-opacity:0.0; 
stroke:#37CBCB; stroke-width:0.2540; stroke-opacity:1; 
stroke-linecap:round; stroke-linejoin:round;">
<path d="M17.9570 19.1250
L18.2110 18.8710
" />
<path d="M18.7190 18.3630
L18.7190 16.4580
" />
<path d="M15.6710 21.4110
L18.2110 18.8710
" />
<path d="M18.2110 18.8710
L18.7190 18.3630
" />
<path d="M17.9570 21.9825
L17.9570 19.1250
" />
<path d="M15.6710 22.3620
L15.6710 21.4110
" />
<path d="M15.6710 25.6020
L12.3690 28.9040
" />
<path d="M12.3690 28.9040
L7.7970 28.9040
" />
<path d="M7.7970 28.9040
L6.9080 29.7930
" />
<path d="M6.9080 29.7930
L6.9080 30.1740
" />
<path d="M15.6710 23.7620
L15.6710 25.6020
" />
</g>
<g style="fill:#37CBCB; fill-opacity:0.0; 
stroke:#37CBCB; stroke-width:0.6096; stroke-opacity:1; 
stroke-linecap:round; stroke-linejoin:round;">
<path d="M31.1650 38.6830
L37.1340 44.6520
" />
<path d="M37.1340 44.6520
L37.1340 44.7790
" />
<path d="M31.0380 38.6830
L31.1650 38.6830
" />
</g>
<g style="fill:#37CBCB; fill-opacity:1.0000; 
stroke:#37CBCB; stroke-width:0.0000; stroke-opacity:1; 
stroke-linecap:round; stroke-linejoin:round;">
<circle cx="34.8480" cy="30.8090" r="0.3048" /> 
</g>
<g style="fill:#37CBCB; fill-opacity:1.0000; 
stroke:#37CBCB; stroke-width:0.6096; stroke-opacity:1; 
stroke-linecap:round; stroke-linejoin:round;">
</g>
<g style="fill:#37CBCB; fill-opacity:0.0; 
stroke:#37CBCB; stroke-width:0.6096; stroke-opacity:1; 
stroke-linecap:round; stroke-linejoin:round;">
<path d="M29.6410 25.6020
L28.2440 25.6020
" />
<path d="M28.2440 25.6020
L27.7360 25.0940
" />
<path d="M27.1010 24.4590
L27.1010 15.6960
" />
<path d="M27.1010 15.6960
L25.5770 14.1720
" />
<path d="M25.5770 14.1720
L22.0210 14.1720
" />
<path d="M22.0210 14.1720
L21.2590 14.9340
" />
<path d="M21.2590 14.9340
L21.2590 16.4580
" />
<path d="M34.8480 30.8090
L29.6410 25.6020
" />
<path d="M34.8480 30.9360
L37.1340 33.2220
" />
<path d="M37.1340 33.2220
L37.1340 33.4760
" />
<path d="M37.0070 33.6030
L37.1340 33.4760
" />
<path d="M27.7360 25.0940
L27.1010 24.4590
" />
<path d="M24.5610 25.0940
L12.8770 36.7780
" />
<path d="M6.4635 36.7780
L6.3365 36.6510
" />
<path d="M24.5610 25.0940
L27.7360 25.0940
" />
<path d="M34.8480 30.8090
L34.8480 30.9360
" />
<path d="M6.4635 36.7780
L12.8770 36.7780
" />
<path d="M31.0380 33.6030
L37.0070 33.6030
" />
<path d="M23.7990 18.8710
L22.4983 20.1717
" />
<path d="M22.4983 20.1717
L20.4007 20.1717
" />
<path d="M15.2900 32.7140
L20.4007 27.6033
" />
<path d="M20.4007 27.6033
L20.4007 20.1717
" />
<path d="M13.2580 32.7140
L15.2900 32.7140
" />
<path d="M23.7990 16.4580
L23.7990 18.8710
" />
</g>
<g style="fill:#37CBCB; fill-opacity:0.0; 
stroke:#37CBCB; stroke-width:0.2540; stroke-opacity:1; 
stroke-linecap:round; stroke-linejoin:round;">
<path d="M6.8445 31.5075
L6.9080 31.4440
" />
<path d="M4.3045 32.5235
L5.3840 31.4440
" />
<path d="M5.3840 31.4440
L6.9080 31.4440
" />
<path d="M3.6060 34.6190
L4.4315 35.4445
" />
<path d="M4.4315 35.4445
L4.4315 36.6510
" />
<path d="M3.6060 32.5235
L3.6060 34.6190
" />
<path d="M3.6060 32.5235
L4.3045 32.5235
" />
<path d="M27.0375 37.3495
L26.5930 36.9050
" />
<path d="M26.5930 36.9050
L26.5930 36.6510
" />
<path d="M28.4980 37.3495
L27.0375 37.3495
" />
<path d="M20.1795 36.7145
L20.2430 36.6510
" />
<path d="M17.7030 36.5875
L17.8300 36.7145
" />
<path d="M17.8300 36.7145
L20.1795 36.7145
" />
<path d="M15.1630 36.5875
L17.7030 36.5875
" />
<path d="M17.9570 28.2690
L14.7820 31.4440
" />
<path d="M14.7820 31.4440
L13.2580 31.4440
" />
<path d="M17.9570 23.8875
L17.9570 28.2690
" />
<path d="M7.4160 41.6040
L4.8760 39.0640
" />
<path d="M4.8760 39.0640
L3.8600 39.0640
" />
<path d="M3.8600 39.0640
L1.7010 36.9050
" />
<path d="M1.7010 36.9050
L1.7010 29.1580
" />
<path d="M1.7010 29.1580
L2.3360 28.5230
" />
<path d="M2.3360 28.5230
L3.4155 28.5230
" />
<path d="M6.0190 32.7140
L5.0030 33.7300
" />
<path d="M5.0030 33.7300
L5.0030 34.3650
" />
<path d="M6.9080 32.7140
L6.0190 32.7140
" />
<path d="M7.4160 44.1440
L7.4160 41.6040
" />
<path d="M11.7340 33.9840
L11.4800 34.2380
" />
<path d="M11.4800 34.2380
L11.4800 34.8730
" />
<path d="M11.4800 34.8730
L12.2420 35.6350
" />
<path d="M13.2580 33.9840
L11.7340 33.9840
" />
</g>
<g >
</g>
</g>
<g style="fill:#000000; fill-opacity:0.0; 
stroke:#000000; stroke-width:0.2540; stroke-opacity:1; 
stroke-linecap:round; stroke-linejoin:round;">
</g>
<g style="fill:#000000; fill-opacity:1.0000; 
stroke:#000000; stroke-width:0.0000; stroke-opacity:1; 
stroke-linecap:round; stroke-linejoin:round;">
<circle cx="23.1640" cy="32.8410" r="0.3810" /> 
</g>
<g style="fill:#000000; fill-opacity:1.0000; 
stroke:#000000; stroke-width:0.0212; stroke-opacity:1; 
stroke-linecap:round; stroke-linejoin:round;">
</g>
<g style="fill:#000000; fill-opacity:1.0000; 
stroke:#000000; stroke-width:0.0000; stroke-opacity:1; 
stroke-linecap:round; stroke-linejoin:round;">
<circle cx="10.0830" cy="30.1740" r="0.3810" /> 
</g>
<g style="fill:#000000; fill-opacity:1.0000; 
stroke:#000000; stroke-width:0.0212; stroke-opacity:1; 
stroke-linecap:round; stroke-linejoin:round;">
</g>
<g style="fill:#000000; fill-opacity:1.0000; 
stroke:#000000; stroke-width:0.0000; stroke-opacity:1; 
stroke-linecap:round; stroke-linejoin:round;">
<circle cx="7.2890" cy="27.7610" r="0.3810" /> 
</g>
<g style="fill:#000000; fill-opacity:1.0000; 
stroke:#000000; stroke-width:0.0212; stroke-opacity:1; 
stroke-linecap:round; stroke-linejoin:round;">
</g>
<g style="fill:#000000; fill-opacity:1.0000; 
stroke:#000000; stroke-width:0.0000; stroke-opacity:1; 
stroke-linecap:round; stroke-linejoin:round;">
<circle cx="23.1640" cy="34.7460" r="0.3810" /> 
</g>
<g style="fill:#000000; fill-opacity:1.0000; 
stroke:#000000; stroke-width:0.0212; stroke-opacity:1; 
stroke-linecap:round; stroke-linejoin:round;">
</g>
<g style="fill:#000000; fill-opacity:1.0000; 
stroke:#000000; stroke-width:0.0000; stroke-opacity:1; 
stroke-linecap:round; stroke-linejoin:round;">
<circle cx="10.0830" cy="35.5080" r="0.3810" /> 
</g>
<g style="fill:#000000; fill-opacity:1.0000; 
stroke:#000000; stroke-width:0.0212; stroke-opacity:1; 
stroke-linecap:round; stroke-linejoin:round;">
</g>
<g style="fill:#000000; fill-opacity:1.0000; 
stroke:#000000; stroke-width:0.0000; stroke-opacity:1; 
stroke-linecap:round; stroke-linejoin:round;">
<circle cx="17.4490" cy="38.5560" r="0.3810" /> 
</g>
<g style="fill:#000000; fill-opacity:1.0000; 
stroke:#000000; stroke-width:0.0212; stroke-opacity:1; 
stroke-linecap:round; stroke-linejoin:round;">
</g>
<g style="fill:#000000; fill-opacity:1.0000; 
stroke:#000000; stroke-width:0.0000; stroke-opacity:1; 
stroke-linecap:round; stroke-linejoin:round;">
<circle cx="5.3840" cy="30.3010" r="0.3810" /> 
</g>
<g style="fill:#000000; fill-opacity:1.0000; 
stroke:#000000; stroke-width:0.0212; stroke-opacity:1; 
stroke-linecap:round; stroke-linejoin:round;">
</g>
<g style="fill:#000000; fill-opacity:1.0000; 
stroke:#000000; stroke-width:0.0000; stroke-opacity:1; 
stroke-linecap:round; stroke-linejoin:round;">
<circle cx="5.0030" cy="34.3650" r="0.3175" /> 
</g>
<g style="fill:#000000; fill-opacity:1.0000; 
stroke:#000000; stroke-width:0.0212; stroke-opacity:1; 
stroke-linecap:round; stroke-linejoin:round;">
</g>
<g style="fill:#000000; fill-opacity:1.0000; 
stroke:#000000; stroke-width:0.0000; stroke-opacity:1; 
stroke-linecap:round; stroke-linejoin:round;">
<circle cx="12.2420" cy="35.6350" r="0.3175" /> 
</g>
<g style="fill:#000000; fill-opacity:1.0000; 
stroke:#000000; stroke-width:0.0212; stroke-opacity:1; 
stroke-linecap:round; stroke-linejoin:round;">
</g>
<g style="fill:#000000; fill-opacity:1.0000; 
stroke:#000000; stroke-width:0.0000; stroke-opacity:1; 
stroke-linecap:round; stroke-linejoin:round;">
<circle cx="21.2590" cy="16.4580" r="0.5004" /> 
</g>
<g style="fill:#000000; fill-opacity:1.0000; 
stroke:#000000; stroke-width:0.0212; stroke-opacity:1; 
stroke-linecap:round; stroke-linejoin:round;">
</g>
<g style="fill:#000000; fill-opacity:1.0000; 
stroke:#000000; stroke-width:0.0000; stroke-opacity:1; 
stroke-linecap:round; stroke-linejoin:round;">
<circle cx="18.7190" cy="16.4580" r="0.5004" /> 
</g>
<g style="fill:#000000; fill-opacity:1.0000; 
stroke:#000000; stroke-width:0.0212; stroke-opacity:1; 
stroke-linecap:round; stroke-linejoin:round;">
</g>
<g style="fill:#000000; fill-opacity:1.0000; 
stroke:#000000; stroke-width:0.0000; stroke-opacity:1; 
stroke-linecap:round; stroke-linejoin:round;">
<circle cx="23.7990" cy="16.4580" r="0.5004" /> 
</g>
<g style="fill:#000000; fill-opacity:1.0000; 
stroke:#000000; stroke-width:0.0212; stroke-opacity:1; 
stroke-linecap:round; stroke-linejoin:round;">
</g>
<g style="fill:#000000; fill-opacity:1.0000; 
stroke:#000000; stroke-width:0.0000; stroke-opacity:1; 
stroke-linecap:round; stroke-linejoin:round;">
<circle cx="20.4007" cy="20.1717" r="0.5004" /> 
</g>
<g style="fill:#000000; fill-opacity:1.0000; 
stroke:#000000; stroke-width:0.0212; stroke-opacity:1; 
stroke-linecap:round; stroke-linejoin:round;">
</g>
<g style="fill:#000000; fill-opacity:1.0000; 
stroke:#000000; stroke-width:0.0000; stroke-opacity:1; 
stroke-linecap:round; stroke-linejoin:round;">
<circle cx="31.0073" cy="30.7783" r="0.5004" /> 
</g>
<g style="fill:#000000; fill-opacity:1.0000; 
stroke:#000000; stroke-width:0.0212; stroke-opacity:1; 
stroke-linecap:round; stroke-linejoin:round;">
</g>
<g style="fill:#000000; fill-opacity:1.0000; 
stroke:#000000; stroke-width:0.0000; stroke-opacity:1; 
stroke-linecap:round; stroke-linejoin:round;">
<circle cx="8.1780" cy="12.5210" r="1.1557" /> 
</g>
<g style="fill:#000000; fill-opacity:1.0000; 
stroke:#000000; stroke-width:0.0212; stroke-opacity:1; 
stroke-linecap:round; stroke-linejoin:round;">
</g>
<g style="fill:#000000; fill-opacity:1.0000; 
stroke:#000000; stroke-width:0.0000; stroke-opacity:1; 
stroke-linecap:round; stroke-linejoin:round;">
<circle cx="33.5780" cy="12.5210" r="1.1557" /> 
</g>
<g style="fill:#000000; fill-opacity:1.0000; 
stroke:#000000; stroke-width:0.0212; stroke-opacity:1; 
stroke-linecap:round; stroke-linejoin:round;">
</g>
<g style="fill:#000000; fill-opacity:1.0000; 
stroke:#000000; stroke-width:0.0000; stroke-opacity:1; 
stroke-linecap:round; stroke-linejoin:round;">
<circle cx="37.1340" cy="44.7790" r="0.6502" /> 
</g>
<g style="fill:#000000; fill-opacity:1.0000; 
stroke:#000000; stroke-width:0.0212; stroke-opacity:1; 
stroke-linecap:round; stroke-linejoin:round;">
</g>
<g style="fill:#000000; fill-opacity:1.0000; 
stroke:#000000; stroke-width:0.0000; stroke-opacity:1; 
stroke-linecap:round; stroke-linejoin:round;">
<circle cx="37.1340" cy="39.6990" r="0.6502" /> 
</g>
<g style="fill:#000000; fill-opacity:1.0000; 
stroke:#000000; stroke-width:0.0212; stroke-opacity:1; 
stroke-linecap:round; stroke-linejoin:round;">
</g>
<g style="fill:#000000; fill-opacity:1.0000; 
stroke:#000000; stroke-width:0.0000; stroke-opacity:1; 
stroke-linecap:round; stroke-linejoin:round;">
<circle cx="37.1340" cy="33.4760" r="0.6502" /> 
</g>
<g style="fill:#000000; fill-opacity:1.0000; 
stroke:#000000; stroke-width:0.0212; stroke-opacity:1; 
stroke-linecap:round; stroke-linejoin:round;">
</g>
<g style="fill:#000000; fill-opacity:1.0000; 
stroke:#000000; stroke-width:0.0000; stroke-opacity:1; 
stroke-linecap:round; stroke-linejoin:round;">
<circle cx="37.1340" cy="28.3960" r="0.6502" /> 
</g>
<g style="fill:#000000; fill-opacity:1.0000; 
stroke:#000000; stroke-width:0.0212; stroke-opacity:1; 
stroke-linecap:round; stroke-linejoin:round;">
</g>
<g style="fill:#000000; fill-opacity:1.0000; 
stroke:#000000; stroke-width:0.0000; stroke-opacity:1; 
stroke-linecap:round; stroke-linejoin:round;">
<circle cx="31.0380" cy="38.6830" r="0.5080" /> 
</g>
<g style="fill:#000000; fill-opacity:1.0000; 
stroke:#000000; stroke-width:0.0212; stroke-opacity:1; 
stroke-linecap:round; stroke-linejoin:round;">
</g>
<g style="fill:#000000; fill-opacity:1.0000; 
stroke:#000000; stroke-width:0.0000; stroke-opacity:1; 
stroke-linecap:round; stroke-linejoin:round;">
<circle cx="31.0380" cy="36.1430" r="0.5080" /> 
</g>
<g style="fill:#000000; fill-opacity:1.0000; 
stroke:#000000; stroke-width:0.0212; stroke-opacity:1; 
stroke-linecap:round; stroke-linejoin:round;">
</g>
<g style="fill:#000000; fill-opacity:1.0000; 
stroke:#000000; stroke-width:0.0000; stroke-opacity:1; 
stroke-linecap:round; stroke-linejoin:round;">
<circle cx="31.0380" cy="33.6030" r="0.5080" /> 
</g>
<g style="fill:#000000; fill-opacity:1.0000; 
stroke:#000000; stroke-width:0.0212; stroke-opacity:1; 
stroke-linecap:round; stroke-linejoin:round;">
</g>
<g style="fill:#000000; fill-opacity:1.0000; 
stroke:#000000; stroke-width:2.0000; stroke-opacity:1; 
stroke-linecap:round; stroke-linejoin:round;">
</g>
<g style="fill:#000000; fill-opacity:0.0; 
stroke:#000000; stroke-width:2.0000; stroke-opacity:1; 
stroke-linecap:round; stroke-linejoin:round;">
<path d="M2.3160 40.7440
L2.3160 40.9440
" />
<path d="M12.5160 40.7440
L12.5160 40.9440
" />
</g>
<g style="fill:#000000; fill-opacity:1.0000; 
stroke:#000000; stroke-width:0.0000; stroke-opacity:1; 
stroke-linecap:round; stroke-linejoin:round;">
<circle cx="4.9160" cy="44.1440" r="0.5000" /> 
</g>
<g style="fill:#000000; fill-opacity:1.0000; 
stroke:#000000; stroke-width:0.0212; stroke-opacity:1; 
stroke-linecap:round; stroke-linejoin:round;">
</g>
<g style="fill:#000000; fill-opacity:1.0000; 
stroke:#000000; stroke-width:0.0000; stroke-opacity:1; 
stroke-linecap:round; stroke-linejoin:round;">
<circle cx="7.4160" cy="44.1440" r="0.5000" /> 
</g>
<g style="fill:#000000; fill-opacity:1.0000; 
stroke:#000000; stroke-width:0.0212; stroke-opacity:1; 
stroke-linecap:round; stroke-linejoin:round;">
</g>
<g style="fill:#000000; fill-opacity:1.0000; 
stroke:#000000; stroke-width:0.0000; stroke-opacity:1; 
stroke-linecap:round; stroke-linejoin:round;">
<circle cx="9.9160" cy="44.1440" r="0.5000" /> 
</g>
<g style="fill:#000000; fill-opacity:1.0000; 
stroke:#000000; stroke-width:0.0212; stroke-opacity:1; 
stroke-linecap:round; stroke-linejoin:round;">
</g>
<g style="fill:#000000; fill-opacity:1.0000; 
stroke:#000000; stroke-width:2.0000; stroke-opacity:1; 
stroke-linecap:round; stroke-linejoin:round;">
</g>
<g style="fill:#000000; fill-opacity:0.0; 
stroke:#000000; stroke-width:2.0000; stroke-opacity:1; 
stroke-linecap:round; stroke-linejoin:round;">
<path d="M16.2860 40.6170
L16.2860 40.8170
" />
<path d="M26.4860 40.6170
L26.4860 40.8170
" />
</g>
<g style="fill:#000000; fill-opacity:1.0000; 
stroke:#000000; stroke-width:0.0000; stroke-opacity:1; 
stroke-linecap:round; stroke-linejoin:round;">
<circle cx="18.8860" cy="44.0170" r="0.5000" /> 
</g>
<g style="fill:#000000; fill-opacity:1.0000; 
stroke:#000000; stroke-width:0.0212; stroke-opacity:1; 
stroke-linecap:round; stroke-linejoin:round;">
</g>
<g style="fill:#000000; fill-opacity:1.0000; 
stroke:#000000; stroke-width:0.0000; stroke-opacity:1; 
stroke-linecap:round; stroke-linejoin:round;">
<circle cx="21.3860" cy="44.0170" r="0.5000" /> 
</g>
<g style="fill:#000000; fill-opacity:1.0000; 
stroke:#000000; stroke-width:0.0212; stroke-opacity:1; 
stroke-linecap:round; stroke-linejoin:round;">
</g>
<g style="fill:#000000; fill-opacity:1.0000; 
stroke:#000000; stroke-width:0.0000; stroke-opacity:1; 
stroke-linecap:round; stroke-linejoin:round;">
<circle cx="23.8860" cy="44.0170" r="0.5000" /> 
</g>
<g style="fill:#000000; fill-opacity:1.0000; 
stroke:#000000; stroke-width:0.0212; stroke-opacity:1; 
stroke-linecap:round; stroke-linejoin:round;">
</g>
<g style="fill:#FFFFFF; fill-opacity:1.0000; 
stroke:#FFFFFF; stroke-width:0.0212; stroke-opacity:1; 
stroke-linecap:round; stroke-linejoin:round;">
<g >
</g>
<g >
</g>
<g >
</g>
<g >
</g>
<g >
</g>
<g >
</g>
<g >
</g>
<g >
</g>
<g >
</g>
<g >
</g>
<g >
</g>
<g >
</g>
<g >
</g>
<g >
</g>
<g >
</g>
<g >
</g>
<g >
</g>
<g >
</g>
<g >
</g>
<g >
</g>
<g >
</g>
<g >
</g>
<g >
</g>
<g >
</g>
<g >
</g>
<g >
</g>
</g>
<g style="fill:#FFFFFF; fill-opacity:1.0000; 
stroke:#FFFFFF; stroke-width:0.0212; stroke-opacity:1; 
stroke-linecap:round; stroke-linejoin:round;">
</g>
<g style="fill:#2F2D31; fill-opacity:1.0000; 
stroke:#2F2D31; stroke-width:0.0212; stroke-opacity:1; 
stroke-linecap:round; stroke-linejoin:round;">
</g>
<g style="fill:#2F2D31; fill-opacity:1.0000; 
stroke:#2F2D31; stroke-width:0.1000; stroke-opacity:1; 
stroke-linecap:round; stroke-linejoin:round;">
</g>
<g style="fill:#2F2D31; fill-opacity:0.0; 
stroke:#2F2D31; stroke-width:0.1000; stroke-opacity:1; 
stroke-linecap:round; stroke-linejoin:round;">
<path d="M0.0500 0.0750
L0.0500 47.8270
" />
<path d="M0.0500 47.8270
L41.7060 47.8270
" />
<path d="M41.7060 47.8270
L41.7060 0.0750
" />
<path d="M41.7060 0.0750
L0.0500 0.0750
" />
<g >
</g>
<g >
</g>
<g >
</g>
<g >
</g>
<g >
</g>
<g >
</g>
<g >
</g>
<g >
</g>
<g >
</g>
<g >
</g>
<g >
</g>
<g >
</g>
<g >
</g>
<g >
</g>
<g >
</g>
<g >
</g>
<g >
</g>
<g >
</g>
<g >
</g>
<g >
</g>
<g >
</g>
<g >
</g>
<g >
</g>
<g >
</g>
<g >
</g>
<g >
</g>
</g> 
</svg>
