<?xml version="1.0" standalone="no"?>
 <!DOCTYPE svg PUBLIC "-//W3C//DTD SVG 1.1//EN" 
 "http://www.w3.org/Graphics/SVG/1.1/DTD/svg11.dtd"> 
<svg
  xmlns:svg="http://www.w3.org/2000/svg"
  xmlns="http://www.w3.org/2000/svg"
  xmlns:xlink="http://www.w3.org/1999/xlink"
  version="1.1"
  width="68.0974mm" height="45.0850mm" viewBox="0.0000 0.0000 68.0974 45.0850">
<title>SVG Image created as _autosave-working-brd.svg date 2023/10/01 18:50:14 </title>
  <desc>Image generated by PCBNEW </desc>
<g style="fill:#000000; fill-opacity:1.0000;stroke:#000000; stroke-opacity:1.0000;
stroke-linecap:round; stroke-linejoin:round;"
 transform="translate(0 0) scale(1 1)">
</g>
<g style="fill:#000000; fill-opacity:0.0; 
stroke:#000000; stroke-width:0.0000; stroke-opacity:1; 
stroke-linecap:round; stroke-linejoin:round;">
</g>
<g style="fill:#000000; fill-opacity:1.0000; 
stroke:#000000; stroke-width:0.0212; stroke-opacity:1; 
stroke-linecap:round; stroke-linejoin:round;">
<rect x="-5.000000" y="-5.000000" width="78.100000" height="55.100000" rx="0.000000" />
</g>
<g style="fill:#FFFFFF; fill-opacity:1.0000; 
stroke:#FFFFFF; stroke-width:0.0212; stroke-opacity:1; 
stroke-linecap:round; stroke-linejoin:round;">
<g >
</g>
<g >
</g>
<g style="fill:#B2803A; fill-opacity:1.0000; 
stroke:#B2803A; stroke-width:0.0212; stroke-opacity:1; 
stroke-linecap:round; stroke-linejoin:round;">
</g>
<g style="fill:#B2803A; fill-opacity:1.0000; 
stroke:#B2803A; stroke-width:0.0000; stroke-opacity:1; 
stroke-linecap:round; stroke-linejoin:round;">
<path style="fill:#B2803A; fill-opacity:1.0000; 
stroke:#B2803A; stroke-width:0.0000; stroke-opacity:1; 
stroke-linecap:round; stroke-linejoin:round;fill-rule:evenodd;"
d="M 65.2000,9.4000
65.2000,7.7000
66.9000,7.7000
66.9000,9.4000
Z" /> 
<circle cx="66.0500" cy="11.0900" r="0.8500" /> 
<circle cx="66.0500" cy="13.6300" r="0.8500" /> 
<circle cx="66.0500" cy="16.1700" r="0.8500" /> 
<circle cx="66.0500" cy="18.7100" r="0.8500" /> 
<circle cx="66.0500" cy="21.2500" r="0.8500" /> 
<circle cx="66.0500" cy="23.7900" r="0.8500" /> 
<circle cx="66.0500" cy="26.3300" r="0.8500" /> 
<circle cx="66.0500" cy="28.8700" r="0.8500" /> 
<circle cx="66.0500" cy="31.4100" r="0.8500" /> 
<circle cx="66.0500" cy="33.9500" r="0.8500" /> 
<circle cx="66.0500" cy="36.4900" r="0.8500" /> 
</g>
<g >
</g>
<g style="fill:#B2803A; fill-opacity:1.0000; 
stroke:#B2803A; stroke-width:0.0000; stroke-opacity:1; 
stroke-linecap:round; stroke-linejoin:round;">
<path style="fill:#B2803A; fill-opacity:1.0000; 
stroke:#B2803A; stroke-width:0.0000; stroke-opacity:1; 
stroke-linecap:round; stroke-linejoin:round;fill-rule:evenodd;"
d="M 1.3000,9.4000
1.3000,7.7000
3.0000,7.7000
3.0000,9.4000
Z" /> 
<circle cx="2.1500" cy="11.0900" r="0.8500" /> 
<circle cx="2.1500" cy="13.6300" r="0.8500" /> 
<circle cx="2.1500" cy="16.1700" r="0.8500" /> 
<circle cx="2.1500" cy="18.7100" r="0.8500" /> 
<circle cx="2.1500" cy="21.2500" r="0.8500" /> 
<circle cx="2.1500" cy="23.7900" r="0.8500" /> 
<circle cx="2.1500" cy="26.3300" r="0.8500" /> 
<circle cx="2.1500" cy="28.8700" r="0.8500" /> 
<circle cx="2.1500" cy="31.4100" r="0.8500" /> 
<circle cx="2.1500" cy="33.9500" r="0.8500" /> 
<circle cx="2.1500" cy="36.4900" r="0.8500" /> 
</g>
<g >
</g>
<g style="fill:#B2803A; fill-opacity:1.0000; 
stroke:#B2803A; stroke-width:0.0000; stroke-opacity:1; 
stroke-linecap:round; stroke-linejoin:round;">
<path style="fill:#B2803A; fill-opacity:1.0000; 
stroke:#B2803A; stroke-width:0.0000; stroke-opacity:1; 
stroke-linecap:round; stroke-linejoin:round;fill-rule:evenodd;"
d="M 37.5000,23.7000
37.5000,24.5000
36.6000,24.5000
36.6000,23.7000
Z" /> 
<path style="fill:#B2803A; fill-opacity:1.0000; 
stroke:#B2803A; stroke-width:0.0000; stroke-opacity:1; 
stroke-linecap:round; stroke-linejoin:round;fill-rule:evenodd;"
d="M 37.5000,25.6000
37.5000,26.4000
36.6000,26.4000
36.6000,25.6000
Z" /> 
<path style="fill:#B2803A; fill-opacity:1.0000; 
stroke:#B2803A; stroke-width:0.0000; stroke-opacity:1; 
stroke-linecap:round; stroke-linejoin:round;fill-rule:evenodd;"
d="M 35.5000,24.6500
35.5000,25.4500
34.6000,25.4500
34.6000,24.6500
Z" /> 
</g>
<g >
</g>
<g style="fill:#B2803A; fill-opacity:1.0000; 
stroke:#B2803A; stroke-width:0.0000; stroke-opacity:1; 
stroke-linecap:round; stroke-linejoin:round;">
<path style="fill:#B2803A; fill-opacity:1.0000; 
stroke:#B2803A; stroke-width:0.0000; stroke-opacity:1; 
stroke-linecap:round; stroke-linejoin:round;fill-rule:evenodd;"
d="M 46.1500,18.4000
46.1500,19.7000
44.6500,19.7000
44.6500,18.4000
Z" /> 
<path style="fill:#B2803A; fill-opacity:1.0000; 
stroke:#B2803A; stroke-width:0.0000; stroke-opacity:1; 
stroke-linecap:round; stroke-linejoin:round;fill-rule:evenodd;"
d="M 43.4500,18.4000
43.4500,19.7000
41.9500,19.7000
41.9500,18.4000
Z" /> 
</g>
<g >
</g>
<g style="fill:#B2803A; fill-opacity:1.0000; 
stroke:#B2803A; stroke-width:0.0000; stroke-opacity:1; 
stroke-linecap:round; stroke-linejoin:round;">
<path style="fill:#B2803A; fill-opacity:1.0000; 
stroke:#B2803A; stroke-width:0.0000; stroke-opacity:1; 
stroke-linecap:round; stroke-linejoin:round;fill-rule:evenodd;"
d="M 41.9500,27.7000
41.9500,26.4000
43.4500,26.4000
43.4500,27.7000
Z" /> 
<path style="fill:#B2803A; fill-opacity:1.0000; 
stroke:#B2803A; stroke-width:0.0000; stroke-opacity:1; 
stroke-linecap:round; stroke-linejoin:round;fill-rule:evenodd;"
d="M 44.6500,27.7000
44.6500,26.4000
46.1500,26.4000
46.1500,27.7000
Z" /> 
</g>
<g >
</g>
<g style="fill:#B2803A; fill-opacity:1.0000; 
stroke:#B2803A; stroke-width:0.0000; stroke-opacity:1; 
stroke-linecap:round; stroke-linejoin:round;">
<path style="fill:#B2803A; fill-opacity:1.0000; 
stroke:#B2803A; stroke-width:0.0000; stroke-opacity:1; 
stroke-linecap:round; stroke-linejoin:round;fill-rule:evenodd;"
d="M 41.9500,23.7000
41.9500,22.4000
43.4500,22.4000
43.4500,23.7000
Z" /> 
<path style="fill:#B2803A; fill-opacity:1.0000; 
stroke:#B2803A; stroke-width:0.0000; stroke-opacity:1; 
stroke-linecap:round; stroke-linejoin:round;fill-rule:evenodd;"
d="M 44.6500,23.7000
44.6500,22.4000
46.1500,22.4000
46.1500,23.7000
Z" /> 
</g>
<g >
</g>
<g style="fill:#121212; fill-opacity:1.0000; 
stroke:#121212; stroke-width:0.0000; stroke-opacity:1; 
stroke-linecap:round; stroke-linejoin:round;">
<circle cx="56.0500" cy="32.5500" r="0.4000" /> 
</g>
<g style="fill:#121212; fill-opacity:1.0000; 
stroke:#121212; stroke-width:0.0212; stroke-opacity:1; 
stroke-linecap:round; stroke-linejoin:round;">
</g>
<g style="fill:#121212; fill-opacity:1.0000; 
stroke:#121212; stroke-width:0.0000; stroke-opacity:1; 
stroke-linecap:round; stroke-linejoin:round;">
<circle cx="25.9500" cy="32.9500" r="0.4000" /> 
</g>
<g style="fill:#121212; fill-opacity:1.0000; 
stroke:#121212; stroke-width:0.0212; stroke-opacity:1; 
stroke-linecap:round; stroke-linejoin:round;">
</g>
<g style="fill:#121212; fill-opacity:1.0000; 
stroke:#121212; stroke-width:0.0000; stroke-opacity:1; 
stroke-linecap:round; stroke-linejoin:round;">
<circle cx="13.6500" cy="33.1500" r="0.4000" /> 
</g>
<g style="fill:#121212; fill-opacity:1.0000; 
stroke:#121212; stroke-width:0.0212; stroke-opacity:1; 
stroke-linecap:round; stroke-linejoin:round;">
</g>
<g style="fill:#121212; fill-opacity:1.0000; 
stroke:#121212; stroke-width:0.0000; stroke-opacity:1; 
stroke-linecap:round; stroke-linejoin:round;">
<circle cx="41.3500" cy="33.1500" r="0.4000" /> 
</g>
<g style="fill:#121212; fill-opacity:1.0000; 
stroke:#121212; stroke-width:0.0212; stroke-opacity:1; 
stroke-linecap:round; stroke-linejoin:round;">
</g>
<g style="fill:#121212; fill-opacity:1.0000; 
stroke:#121212; stroke-width:0.0000; stroke-opacity:1; 
stroke-linecap:round; stroke-linejoin:round;">
<circle cx="28.0500" cy="25.0500" r="0.4000" /> 
</g>
<g style="fill:#121212; fill-opacity:1.0000; 
stroke:#121212; stroke-width:0.0212; stroke-opacity:1; 
stroke-linecap:round; stroke-linejoin:round;">
</g>
<g >
</g>
<g style="fill:#B2803A; fill-opacity:1.0000; 
stroke:#B2803A; stroke-width:0.0212; stroke-opacity:1; 
stroke-linecap:round; stroke-linejoin:round;">
</g>
<g style="fill:#B2803A; fill-opacity:1.0000; 
stroke:#B2803A; stroke-width:0.4000; stroke-opacity:1; 
stroke-linecap:round; stroke-linejoin:round;">
</g>
<g style="fill:#B2803A; fill-opacity:0.0; 
stroke:#B2803A; stroke-width:0.4000; stroke-opacity:1; 
stroke-linecap:round; stroke-linejoin:round;">
<path d="M45.4000 19.0500
L48.6100 19.0500
" />
<path d="M48.6100 19.0500
L66.0500 36.4900
" />
<path d="M41.6500 24.1000
L42.7000 23.0500
" />
<path d="M37.0500 24.1000
L41.6500 24.1000
" />
<path d="M42.7000 19.0500
L42.7000 23.0500
" />
<path d="M37.0500 26.0000
L41.6500 26.0000
" />
<path d="M41.6500 26.0000
L42.7000 27.0500
" />
<path d="M35.0500 25.0500
L28.0500 25.0500
" />
</g>
<g >
</g>
<g style="fill:#B2803A; fill-opacity:0.0; 
stroke:#B2803A; stroke-width:0.4000; stroke-opacity:1; 
stroke-linecap:round; stroke-linejoin:round;">
<g >
</g>
<g style="fill:#B2803A; fill-opacity:1.0000; 
stroke:#B2803A; stroke-width:0.0000; stroke-opacity:1; 
stroke-linecap:round; stroke-linejoin:round;">
<path style="fill:#B2803A; fill-opacity:1.0000; 
stroke:#B2803A; stroke-width:0.0000; stroke-opacity:1; 
stroke-linecap:round; stroke-linejoin:round;fill-rule:evenodd;"
d="M 67.4916,0.5705
67.5381,0.6242
67.5495,0.6765
67.5495,7.3414
67.5295,7.4095
67.4758,7.4560
67.4056,7.4661
67.3410,7.4366
67.3226,7.4169
67.2629,7.3371
67.1460,7.2496
67.0091,7.1985
66.9486,7.1920
66.3040,7.1920
66.3040,8.1163
66.1923,8.0653
66.0858,8.0500
66.0142,8.0500
65.9077,8.0653
65.7960,8.1163
65.7960,7.1920
65.1514,7.1920
65.0909,7.1985
64.9540,7.2496
64.9540,7.2496
64.8371,7.3371
64.7496,7.4540
64.7496,7.4540
64.6985,7.5909
64.6920,7.6514
64.6920,8.2960
65.6189,8.2960
65.5905,8.3402
65.5500,8.4781
65.5500,8.6219
65.5905,8.7598
65.6189,8.8040
64.6920,8.8040
64.6920,9.4486
64.6985,9.5091
64.7496,9.6460
64.7496,9.6460
64.8371,9.7629
64.9540,9.8504
65.0692,9.8934
65.1260,9.9359
65.1508,10.0025
65.1357,10.0718
65.1178,10.0968
64.9743,10.2527
64.9743,10.2527
64.8511,10.4412
64.7607,10.6474
64.7607,10.6474
64.7054,10.8656
64.7054,10.8656
64.7054,10.8656
64.6868,11.0900
64.7021,11.2737
64.7054,11.3144
64.7607,11.5326
64.7607,11.5326
64.7607,11.5326
64.8511,11.7388
64.8511,11.7388
64.9743,11.9273
64.9743,11.9273
65.1268,12.0929
65.1813,12.1354
65.3044,12.2312
65.3377,12.2492
65.3881,12.2992
65.4034,12.3685
65.3789,12.4351
65.3377,12.4708
65.3044,12.4888
65.3044,12.4888
65.1268,12.6271
64.9743,12.7927
64.9743,12.7927
64.8511,12.9812
64.7607,13.1874
64.7607,13.1874
64.7054,13.4056
64.7054,13.4056
64.7054,13.4056
64.6868,13.6300
64.7021,13.8137
64.7054,13.8544
64.7607,14.0726
64.7607,14.0726
64.7607,14.0726
64.8511,14.2788
64.8511,14.2788
64.9743,14.4673
64.9743,14.4673
65.1268,14.6329
65.1813,14.6754
65.3044,14.7712
65.3377,14.7892
65.3881,14.8392
65.4034,14.9085
65.3789,14.9751
65.3377,15.0108
65.3044,15.0288
65.3044,15.0288
65.1268,15.1671
64.9743,15.3327
64.9743,15.3327
64.8511,15.5212
64.7607,15.7274
64.7607,15.7274
64.7054,15.9456
64.7054,15.9456
64.7054,15.9456
64.6868,16.1700
64.7021,16.3537
64.7054,16.3944
64.7607,16.6126
64.7607,16.6126
64.7607,16.6126
64.8511,16.8188
64.8511,16.8188
64.9743,17.0073
64.9743,17.0073
65.1268,17.1729
65.1813,17.2154
65.3044,17.3112
65.3382,17.3295
65.3886,17.3795
65.4039,17.4488
65.3794,17.5154
65.3382,17.5511
65.3047,17.5692
65.3047,17.5692
65.1271,17.7075
64.9747,17.8730
64.8516,18.0615
64.7612,18.2675
64.7612,18.2675
64.7135,18.4560
64.7135,18.4560
65.6189,18.4560
65.5905,18.5002
65.5500,18.6381
65.5500,18.7819
65.5905,18.9198
65.6189,18.9640
64.7135,18.9640
64.7612,19.1524
64.7612,19.1525
64.8516,19.3585
64.9747,19.5470
65.1271,19.7125
65.3047,19.8508
65.3047,19.8508
65.3382,19.8689
65.3886,19.9189
65.4039,19.9882
65.3794,20.0548
65.3382,20.0905
65.3044,20.1088
65.3044,20.1088
65.1268,20.2471
64.9743,20.4127
64.9743,20.4127
64.8511,20.6012
64.7607,20.8074
64.7607,20.8074
64.7054,21.0256
64.7054,21.0256
64.7054,21.0256
64.6868,21.2500
64.7021,21.4337
64.7054,21.4744
64.7607,21.6926
64.7607,21.6926
64.7607,21.6926
64.8443,21.8832
64.8511,21.8988
64.9743,22.0873
64.9743,22.0873
65.1268,22.2529
65.1756,22.2909
65.3044,22.3912
65.3377,22.4092
65.3881,22.4592
65.4034,22.5285
65.3789,22.5951
65.3377,22.6308
65.3044,22.6488
65.3044,22.6488
65.1268,22.7871
64.9743,22.9527
64.9743,22.9527
64.8511,23.1412
64.7607,23.3474
64.7607,23.3474
64.7054,23.5656
64.7054,23.5656
64.7054,23.5656
64.6868,23.7900
64.7021,23.9737
64.7054,24.0144
64.7607,24.2326
64.7607,24.2326
64.7607,24.2326
64.8215,24.3711
64.8511,24.4388
64.9743,24.6273
64.9743,24.6273
65.1268,24.7929
65.1518,24.8124
65.3044,24.9312
65.3382,24.9495
65.3886,24.9995
65.4039,25.0688
65.3794,25.1354
65.3382,25.1711
65.3047,25.1892
65.3047,25.1892
65.1271,25.3275
64.9747,25.4930
64.8516,25.6815
64.7612,25.8875
64.7612,25.8875
64.7135,26.0760
64.7135,26.0760
65.6189,26.0760
65.5905,26.1202
65.5500,26.2581
65.5500,26.4019
65.5905,26.5398
65.6189,26.5840
64.7135,26.5840
64.7612,26.7724
64.7612,26.7725
64.8516,26.9785
64.9747,27.1670
65.1271,27.3325
65.3047,27.4708
65.3047,27.4708
65.3382,27.4889
65.3886,27.5389
65.4039,27.6082
65.3794,27.6748
65.3382,27.7105
65.3044,27.7288
65.3044,27.7288
65.1268,27.8671
64.9743,28.0327
64.9743,28.0327
64.8511,28.2212
64.7607,28.4274
64.7607,28.4274
64.7054,28.6456
64.7054,28.6456
64.7054,28.6456
64.6868,28.8700
64.7021,29.0537
64.7054,29.0944
64.7607,29.3126
64.7607,29.3126
64.7607,29.3126
64.8511,29.5188
64.8511,29.5188
64.9743,29.7073
64.9743,29.7073
65.1268,29.8729
65.1813,29.9154
65.3044,30.0112
65.3382,30.0295
65.3886,30.0795
65.4039,30.1488
65.3794,30.2154
65.3382,30.2511
65.3047,30.2692
65.3047,30.2692
65.1271,30.4075
64.9747,30.5730
64.8516,30.7615
64.7612,30.9675
64.7612,30.9675
64.7135,31.1560
64.7135,31.1560
65.6189,31.1560
65.5905,31.2002
65.5500,31.3381
65.5500,31.4819
65.5905,31.6198
65.6189,31.6640
64.7135,31.6640
64.7612,31.8524
64.7612,31.8525
64.8516,32.0585
64.9747,32.2470
65.1271,32.4125
65.3047,32.5508
65.3047,32.5508
65.3387,32.5692
65.3891,32.6192
65.4045,32.6885
65.3799,32.7551
65.3387,32.7908
65.3047,32.8092
65.3047,32.8092
65.1271,32.9475
64.9747,33.1130
64.8516,33.3015
64.7612,33.5075
64.7612,33.5076
64.7059,33.7257
64.6964,33.8410
64.6708,33.9073
64.6135,33.9492
64.5426,33.9535
64.4817,33.9197
56.8161,26.2541
49.1275,18.5655
49.1249,18.5627
49.0833,18.5158
49.0833,18.5158
49.0833,18.5158
49.0317,18.4802
49.0286,18.4779
49.0101,18.4634
48.9792,18.4392
48.9792,18.4392
48.9699,18.4350
48.9501,18.4238
48.9417,18.4180
48.9187,18.4093
48.8830,18.3958
48.8795,18.3944
48.8223,18.3686
48.8223,18.3686
48.8223,18.3686
48.8123,18.3668
48.7903,18.3606
48.7808,18.3570
48.7808,18.3570
48.7808,18.3570
48.7808,18.3570
48.7284,18.3507
48.7185,18.3495
48.7148,18.3489
48.6738,18.3414
48.6531,18.3376
48.6531,18.3376
48.5905,18.3414
48.5867,18.3415
46.7584,18.3415
46.6903,18.3215
46.6438,18.2678
46.6403,18.2595
46.6009,18.1538
46.6009,18.1538
46.5133,18.0367
46.3962,17.9491
46.3962,17.9491
46.2592,17.8980
46.2592,17.8980
46.1986,17.8915
46.1986,17.8915
44.6014,17.8915
44.6013,17.8915
44.5408,17.8980
44.5408,17.8980
44.4038,17.9491
44.4038,17.9491
44.2867,18.0367
44.1991,18.1538
44.1991,18.1538
44.1681,18.2371
44.1255,18.2939
44.0590,18.3187
43.9896,18.3036
43.9394,18.2534
43.9319,18.2371
43.9009,18.1538
43.9009,18.1538
43.8133,18.0367
43.6962,17.9491
43.6962,17.9491
43.5592,17.8980
43.5592,17.8980
43.4986,17.8915
43.4986,17.8915
41.9014,17.8915
41.9014,17.8915
41.8408,17.8980
41.8408,17.8980
41.7038,17.9491
41.7038,17.9491
41.5867,18.0367
41.4991,18.1538
41.4991,18.1538
41.4480,18.2908
41.4480,18.2908
41.4415,18.3514
41.4415,19.7486
41.4480,19.8092
41.4480,19.8092
41.4991,19.9462
41.4991,19.9462
41.5867,20.0633
41.7038,20.1509
41.7038,20.1509
41.7038,20.1509
41.7629,20.1729
41.8408,20.2020
41.8408,20.2020
41.8408,20.2020
41.8408,20.2020
41.8698,20.2051
41.8790,20.2061
41.9446,20.2333
41.9851,20.2916
41.9915,20.3314
41.9915,21.7686
41.9715,21.8367
41.9178,21.8832
41.8790,21.8939
41.8408,21.8980
41.8408,21.8980
41.7038,21.9491
41.7038,21.9491
41.5867,22.0367
41.4991,22.1538
41.4991,22.1538
41.4480,22.2908
41.4480,22.2908
41.4415,22.3514
41.4415,23.2543
41.4215,23.3225
41.4046,23.3434
41.3934,23.3546
41.3311,23.3886
41.3043,23.3915
37.9673,23.3915
37.8992,23.3715
37.8665,23.3410
37.8633,23.3367
37.7462,23.2491
37.7462,23.2491
37.6092,23.1980
37.6092,23.1980
37.5486,23.1915
37.5486,23.1915
36.5514,23.1915
36.5513,23.1915
36.4908,23.1980
36.4908,23.1980
36.3538,23.2491
36.3538,23.2491
36.2367,23.3367
36.1491,23.4538
36.1491,23.4538
36.0980,23.5908
36.0980,23.5908
36.0915,23.6513
36.0915,24.2131
36.0715,24.2812
36.0178,24.3277
35.9476,24.3378
35.8830,24.3083
35.8646,24.2886
35.8633,24.2867
35.7462,24.1991
35.7462,24.1991
35.6092,24.1480
35.6092,24.1480
35.5486,24.1415
35.5486,24.1415
34.5514,24.1415
34.5513,24.1415
34.4908,24.1480
34.4908,24.1480
34.3538,24.1991
34.3538,24.1991
34.2367,24.2867
34.2335,24.2910
34.1767,24.3336
34.1327,24.3415
28.6614,24.3415
28.5933,24.3215
28.5873,24.3174
28.5068,24.2589
28.3323,24.1812
28.1455,24.1415
27.9545,24.1415
27.7677,24.1812
27.5932,24.2589
27.4387,24.3711
27.3110,24.5130
27.3110,24.5131
27.2155,24.6784
27.2155,24.6784
27.1565,24.8601
27.1365,25.0500
27.1565,25.2399
27.1794,25.3106
27.2155,25.4216
27.2155,25.4216
27.3110,25.5869
27.3110,25.5870
27.4387,25.7289
27.4798,25.7587
27.5932,25.8411
27.7677,25.9188
27.9545,25.9585
28.1455,25.9585
28.3323,25.9188
28.5068,25.8411
28.5873,25.7826
28.6542,25.7587
28.6614,25.7585
34.1327,25.7585
34.2008,25.7785
34.2335,25.8090
34.2367,25.8133
34.3538,25.9009
34.3538,25.9009
34.3538,25.9009
34.3649,25.9050
34.4908,25.9520
34.4908,25.9520
34.5513,25.9585
34.5514,25.9585
34.5514,25.9585
34.5514,25.9585
35.5486,25.9585
35.5486,25.9585
35.5486,25.9585
35.5486,25.9585
35.6092,25.9520
35.6092,25.9520
35.6092,25.9520
35.6169,25.9491
35.6280,25.9450
35.7462,25.9009
35.7501,25.8980
35.8633,25.8133
35.8646,25.8114
35.8665,25.8101
35.8696,25.8069
35.8701,25.8073
35.9215,25.7689
35.9923,25.7638
36.0546,25.7978
36.0886,25.8602
36.0915,25.8869
36.0915,26.4486
36.0980,26.5092
36.0980,26.5092
36.1491,26.6462
36.1491,26.6462
36.2367,26.7633
36.3538,26.8509
36.3538,26.8509
36.3538,26.8509
36.4129,26.8729
36.4908,26.9020
36.4908,26.9020
36.5513,26.9085
36.5514,26.9085
36.5514,26.9085
36.5514,26.9085
37.5486,26.9085
37.5486,26.9085
37.5486,26.9085
37.5486,26.9085
37.6092,26.9020
37.6092,26.9020
37.6092,26.9020
37.7462,26.8509
37.7741,26.8300
37.8195,26.7960
37.8633,26.7633
37.8633,26.7633
37.8665,26.7590
37.9233,26.7164
37.9673,26.7085
41.3043,26.7085
41.3725,26.7285
41.3934,26.7454
41.4046,26.7566
41.4386,26.8189
41.4415,26.8457
41.4415,27.7486
41.4480,27.8092
41.4480,27.8092
41.4991,27.9462
41.4991,27.9462
41.5867,28.0633
41.7038,28.1509
41.7038,28.1509
41.7038,28.1509
41.7629,28.1729
41.8408,28.2020
41.8408,28.2020
41.9014,28.2085
41.9014,28.2085
41.9014,28.2085
41.9014,28.2085
43.4986,28.2085
43.4986,28.2085
43.4986,28.2085
43.4986,28.2085
43.5592,28.2020
43.5592,28.2020
43.5592,28.2020
43.6962,28.1509
43.6968,28.1504
43.8133,28.0633
43.9009,27.9462
43.9009,27.9462
43.9009,27.9462
43.9322,27.8622
43.9748,27.8054
44.0413,27.7806
44.1107,27.7957
44.1609,27.8459
44.1683,27.8622
44.1996,27.9460
44.1996,27.9460
44.2871,28.0629
44.4040,28.1504
44.5409,28.2015
44.6014,28.2080
44.6014,28.2080
45.1460,28.2080
45.1460,27.3040
45.6540,27.3040
45.6540,28.2080
46.1986,28.2080
46.1986,28.2080
46.2591,28.2015
46.3960,28.1504
46.3960,28.1504
46.5129,28.0629
46.6004,27.9460
46.6004,27.9460
46.6515,27.8091
46.6580,27.7486
46.6580,27.7486
46.6580,27.3040
45.6540,27.3040
45.1460,27.3040
45.1460,25.8920
45.6540,25.8920
45.6540,26.7960
46.6580,26.7960
46.6580,26.3514
46.6580,26.3514
46.6515,26.2909
46.6004,26.1540
46.6004,26.1540
46.5129,26.0371
46.3960,25.9496
46.2591,25.8985
46.1986,25.8920
45.6540,25.8920
45.1460,25.8920
44.6014,25.8920
44.5409,25.8985
44.4040,25.9496
44.4040,25.9496
44.2871,26.0371
44.1996,26.1540
44.1996,26.1540
44.1683,26.2378
44.1258,26.2946
44.0593,26.3194
43.9899,26.3043
43.9397,26.2541
43.9322,26.2378
43.9009,26.1538
43.9009,26.1538
43.9009,26.1538
43.8133,26.0367
43.6962,25.9491
43.6962,25.9491
43.5592,25.8980
43.5592,25.8980
43.4986,25.8915
43.4986,25.8915
42.5957,25.8915
42.5275,25.8715
42.5066,25.8546
42.3482,25.6962
42.1675,25.5155
42.1649,25.5128
42.1233,25.4658
42.1233,25.4658
42.1233,25.4658
42.0717,25.4302
42.0686,25.4279
42.0501,25.4134
42.0192,25.3892
42.0192,25.3892
42.0099,25.3850
41.9901,25.3738
41.9817,25.3680
41.9587,25.3593
41.9230,25.3458
41.9195,25.3444
41.8623,25.3186
41.8623,25.3186
41.8623,25.3186
41.8523,25.3168
41.8303,25.3106
41.8208,25.3070
41.8208,25.3070
41.8208,25.3070
41.8208,25.3070
41.7684,25.3007
41.7585,25.2995
41.7548,25.2989
41.7138,25.2914
41.6931,25.2876
41.6931,25.2876
41.6305,25.2914
41.6267,25.2915
37.9673,25.2915
37.8992,25.2715
37.8665,25.2410
37.8633,25.2367
37.7486,25.1509
37.7060,25.0940
37.7009,25.0232
37.7350,24.9609
37.7486,24.9491
37.7725,24.9312
37.8633,24.8633
37.8646,24.8614
37.8665,24.8590
37.9233,24.8164
37.9673,24.8085
41.6267,24.8085
41.6305,24.8086
41.6931,24.8124
41.7548,24.8011
41.7585,24.8005
41.8208,24.7930
41.8303,24.7893
41.8523,24.7832
41.8623,24.7814
41.9196,24.7556
41.9230,24.7542
41.9817,24.7320
41.9901,24.7262
42.0099,24.7150
42.0192,24.7108
42.0686,24.6721
42.0716,24.6699
42.1233,24.6342
42.1649,24.5873
42.1675,24.5845
42.5066,24.2454
42.5689,24.2114
42.5957,24.2085
43.4986,24.2085
43.4986,24.2085
43.4986,24.2085
43.4986,24.2085
43.5592,24.2020
43.5592,24.2020
43.5592,24.2020
43.5669,24.1991
43.5780,24.1950
43.6962,24.1509
43.6968,24.1504
43.8133,24.0633
43.9009,23.9462
43.9009,23.9462
43.9009,23.9462
43.9322,23.8622
43.9748,23.8054
44.0413,23.7806
44.1107,23.7957
44.1609,23.8459
44.1683,23.8622
44.1996,23.9460
44.1996,23.9460
44.2871,24.0629
44.4040,24.1504
44.5409,24.2015
44.6014,24.2080
44.6014,24.2080
45.1460,24.2080
45.1460,23.3040
45.6540,23.3040
45.6540,24.2080
46.1986,24.2080
46.1986,24.2080
46.2591,24.2015
46.3960,24.1504
46.3960,24.1504
46.5129,24.0629
46.6004,23.9460
46.6004,23.9460
46.6515,23.8091
46.6580,23.7486
46.6580,23.7486
46.6580,23.3040
45.6540,23.3040
45.1460,23.3040
45.1460,21.8920
45.6540,21.8920
45.6540,22.7960
46.6580,22.7960
46.6580,22.3514
46.6580,22.3514
46.6515,22.2909
46.6004,22.1540
46.6004,22.1540
46.5129,22.0371
46.3960,21.9496
46.2591,21.8985
46.1986,21.8920
45.6540,21.8920
45.1460,21.8920
44.6014,21.8920
44.5409,21.8985
44.4040,21.9496
44.4040,21.9496
44.2871,22.0371
44.1996,22.1540
44.1996,22.1540
44.1683,22.2378
44.1258,22.2946
44.0593,22.3194
43.9899,22.3043
43.9397,22.2541
43.9322,22.2378
43.9009,22.1538
43.9009,22.1538
43.9009,22.1538
43.8133,22.0367
43.6962,21.9491
43.6962,21.9491
43.5592,21.8980
43.5592,21.8980
43.5210,21.8939
43.4554,21.8667
43.4149,21.8084
43.4085,21.7686
43.4085,20.3314
43.4285,20.2632
43.4822,20.2168
43.5210,20.2061
43.5322,20.2049
43.5592,20.2020
43.5592,20.2020
43.5592,20.2020
43.6962,20.1509
43.7524,20.1088
43.8133,20.0633
43.9009,19.9462
43.9009,19.9462
43.9009,19.9462
43.9215,19.8909
43.9319,19.8629
43.9745,19.8061
44.0410,19.7813
44.1104,19.7964
44.1606,19.8466
44.1681,19.8629
44.1991,19.9462
44.1991,19.9462
44.2867,20.0633
44.4038,20.1509
44.4038,20.1509
44.4038,20.1509
44.4629,20.1729
44.5408,20.2020
44.5408,20.2020
44.6013,20.2085
44.6014,20.2085
44.6014,20.2085
44.6014,20.2085
46.1986,20.2085
46.1986,20.2085
46.1986,20.2085
46.1986,20.2085
46.2592,20.2020
46.2592,20.2020
46.2592,20.2020
46.3962,20.1509
46.4524,20.1088
46.5133,20.0633
46.6009,19.9462
46.6009,19.9462
46.6009,19.9462
46.6213,19.8915
46.6403,19.8405
46.6829,19.7836
46.7494,19.7588
46.7584,19.7585
48.2643,19.7585
48.3325,19.7785
48.3534,19.7954
64.6787,36.1207
64.7127,36.1830
64.7117,36.2407
64.7054,36.2656
64.7054,36.2656
64.7054,36.2656
64.6868,36.4900
64.7021,36.6737
64.7054,36.7144
64.7607,36.9326
64.7607,36.9326
64.7607,36.9326
64.8511,37.1388
64.8511,37.1388
64.9743,37.3273
64.9743,37.3273
65.1268,37.4929
65.1813,37.5354
65.3044,37.6312
65.5024,37.7383
65.5024,37.7383
65.5024,37.7383
65.6142,37.7767
65.7154,37.8114
65.9374,37.8485
65.9374,37.8485
66.1626,37.8485
66.1626,37.8485
66.3846,37.8114
66.5976,37.7383
66.7956,37.6312
66.9732,37.4929
67.1257,37.3273
67.2489,37.1388
67.3081,37.0037
67.3538,36.9494
67.4216,36.9283
67.4900,36.9473
67.5373,37.0003
67.5495,37.0543
67.5495,44.4235
67.5295,44.4916
67.4758,44.5381
67.4235,44.5495
0.6765,44.5495
0.6084,44.5295
0.5619,44.4758
0.5505,44.4235
0.5505,36.6841
0.5705,36.6160
0.6242,36.5695
0.6944,36.5594
0.7590,36.5889
0.7974,36.6486
0.8021,36.6737
0.8029,36.6841
0.8054,36.7144
0.8607,36.9326
0.8607,36.9326
0.8607,36.9326
0.9511,37.1388
0.9511,37.1388
1.0743,37.3273
1.0743,37.3273
1.2268,37.4929
1.2813,37.5354
1.4044,37.6312
1.6024,37.7383
1.6024,37.7383
1.6024,37.7383
1.7142,37.7767
1.8154,37.8114
2.0374,37.8485
2.0374,37.8485
2.2626,37.8485
2.2626,37.8485
2.4846,37.8114
2.6976,37.7383
2.8956,37.6312
3.0732,37.4929
3.2257,37.3273
3.3489,37.1388
3.4393,36.9326
3.4946,36.7144
3.5132,36.4900
3.4946,36.2656
3.4393,36.0474
3.3489,35.8412
3.3421,35.8309
3.2257,35.6527
3.2257,35.6527
3.0732,35.4871
2.9914,35.4234
2.8956,35.3488
2.8618,35.3305
2.8114,35.2805
2.7960,35.2112
2.8206,35.1446
2.8618,35.1089
2.8953,35.0908
2.8953,35.0908
3.0729,34.9525
3.2253,34.7870
3.3484,34.5985
3.4388,34.3925
3.4388,34.3924
3.4865,34.2040
2.5811,34.2040
2.6095,34.1598
2.6500,34.0219
2.6500,33.8781
2.6095,33.7402
2.5811,33.6960
3.4865,33.6960
3.4865,33.6960
3.4388,33.5076
3.4388,33.5075
3.3484,33.3015
3.2253,33.1130
3.0729,32.9475
2.8953,32.8092
2.8953,32.8092
2.8613,32.7908
2.8109,32.7408
2.7955,32.6715
2.8201,32.6049
2.8613,32.5692
2.8953,32.5508
2.8953,32.5508
3.0729,32.4125
3.2253,32.2470
3.3484,32.0585
3.4388,31.8525
3.4388,31.8524
3.4865,31.6640
2.5811,31.6640
2.6095,31.6198
2.6500,31.4819
2.6500,31.3381
2.6095,31.2002
2.5811,31.1560
3.4865,31.1560
3.4865,31.1560
3.4388,30.9675
3.4388,30.9675
3.3484,30.7615
3.2253,30.5730
3.0729,30.4075
2.8953,30.2692
2.8953,30.2692
2.8618,30.2511
2.8114,30.2011
2.7960,30.1318
2.8206,30.0652
2.8618,30.0295
2.8956,30.0112
3.0732,29.8729
3.2257,29.7073
3.3489,29.5188
3.4393,29.3126
3.4946,29.0944
3.5132,28.8700
3.4946,28.6456
3.4393,28.4274
3.3489,28.2212
3.3029,28.1509
3.2257,28.0327
3.2257,28.0327
3.0732,27.8671
2.9815,27.7957
2.8956,27.7288
2.8618,27.7105
2.8114,27.6605
2.7960,27.5912
2.8206,27.5246
2.8618,27.4889
2.8953,27.4708
2.8953,27.4708
3.0729,27.3325
3.2253,27.1670
3.3484,26.9785
3.4388,26.7725
3.4388,26.7724
3.4865,26.5840
2.5811,26.5840
2.6095,26.5398
2.6500,26.4019
2.6500,26.2581
2.6095,26.1202
2.5811,26.0760
3.4865,26.0760
3.4865,26.0760
3.4388,25.8875
3.4388,25.8875
3.3484,25.6815
3.2253,25.4930
3.0729,25.3275
2.8953,25.1892
2.8953,25.1892
2.8618,25.1711
2.8114,25.1211
2.7960,25.0518
2.8206,24.9852
2.8618,24.9495
2.8956,24.9312
3.0732,24.7929
3.2257,24.6273
3.3489,24.4388
3.4393,24.2326
3.4946,24.0144
3.5132,23.7900
3.4946,23.5656
3.4946,23.5656
3.4393,23.3474
3.4393,23.3474
3.4393,23.3474
3.3489,23.1412
3.3421,23.1309
3.2257,22.9527
3.2257,22.9527
3.1096,22.8266
3.0732,22.7871
3.0732,22.7871
3.0732,22.7871
2.9914,22.7234
2.8956,22.6488
2.8623,22.6308
2.8119,22.5808
2.7966,22.5115
2.8211,22.4449
2.8623,22.4092
2.8956,22.3912
3.0732,22.2529
3.2257,22.0873
3.3489,21.8988
3.4393,21.6926
3.4946,21.4744
3.5132,21.2500
3.4946,21.0256
3.4393,20.8074
3.3489,20.6012
3.3421,20.5909
3.2257,20.4127
3.2257,20.4127
3.0732,20.2471
2.9496,20.1509
2.8956,20.1088
2.8618,20.0905
2.8114,20.0405
2.7960,19.9712
2.8206,19.9046
2.8618,19.8689
2.8953,19.8508
2.8953,19.8508
3.0729,19.7125
3.2253,19.5470
3.3484,19.3585
3.4388,19.1525
3.4388,19.1524
3.4865,18.9640
2.5811,18.9640
2.6095,18.9198
2.6500,18.7819
2.6500,18.6381
2.6095,18.5002
2.5811,18.4560
3.4865,18.4560
3.4865,18.4560
3.4388,18.2675
3.4388,18.2675
3.3484,18.0615
3.2253,17.8730
3.0729,17.7075
2.8953,17.5692
2.8953,17.5692
2.8618,17.5511
2.8114,17.5011
2.7960,17.4318
2.8206,17.3652
2.8618,17.3295
2.8956,17.3112
3.0732,17.1729
3.2257,17.0073
3.3489,16.8188
3.4393,16.6126
3.4946,16.3944
3.5132,16.1700
3.4946,15.9456
3.4393,15.7274
3.3489,15.5212
3.3421,15.5109
3.2257,15.3327
3.2257,15.3327
3.0732,15.1671
2.9914,15.1034
2.8956,15.0288
2.8623,15.0108
2.8119,14.9608
2.7966,14.8915
2.8211,14.8249
2.8623,14.7892
2.8956,14.7712
3.0732,14.6329
3.2257,14.4673
3.3489,14.2788
3.4393,14.0726
3.4946,13.8544
3.5132,13.6300
3.4946,13.4056
3.4393,13.1874
3.3489,12.9812
3.3421,12.9709
3.2257,12.7927
3.2257,12.7927
3.0732,12.6271
2.9914,12.5634
2.8956,12.4888
2.8623,12.4708
2.8119,12.4208
2.7966,12.3515
2.8211,12.2849
2.8623,12.2492
2.8623,12.2492
2.8956,12.2312
3.0732,12.0929
3.2257,11.9273
3.3489,11.7388
3.4393,11.5326
3.4946,11.3144
3.5132,11.0900
3.4946,10.8656
3.4393,10.6474
3.3489,10.4412
3.3421,10.4309
3.2257,10.2527
3.2257,10.2527
3.0822,10.0968
3.0507,10.0331
3.0587,9.9626
3.1036,9.9075
3.1308,9.8934
3.2460,9.8504
3.3629,9.7629
3.4504,9.6460
3.4504,9.6460
3.5015,9.5091
3.5080,9.4486
3.5080,9.4486
3.5080,8.8040
2.5811,8.8040
2.6095,8.7598
2.6500,8.6219
2.6500,8.4781
2.6095,8.3402
2.5811,8.2960
3.5080,8.2960
3.5080,7.6514
3.5080,7.6514
3.5015,7.5909
3.4504,7.4540
3.4504,7.4540
3.3629,7.3371
3.2460,7.2496
3.1091,7.1985
3.0486,7.1920
2.4040,7.1920
2.4040,8.1163
2.2923,8.0653
2.1858,8.0500
2.1142,8.0500
2.0077,8.0653
1.8960,8.1163
1.8960,7.1920
1.2514,7.1920
1.1909,7.1985
1.0540,7.2496
1.0540,7.2496
0.9371,7.3371
0.8496,7.4540
0.8496,7.4540
0.7958,7.5983
0.7938,7.5976
0.7640,7.6500
0.7011,7.6829
0.6304,7.6766
0.5743,7.6330
0.5507,7.5661
0.5505,7.5593
0.5505,0.6765
0.5705,0.6084
0.6242,0.5619
0.6765,0.5505
67.4235,0.5505
Z" /> 
<path style="fill:#B2803A; fill-opacity:1.0000; 
stroke:#B2803A; stroke-width:0.0000; stroke-opacity:1; 
stroke-linecap:round; stroke-linejoin:round;fill-rule:evenodd;"
d="M 2.4040,33.5163
2.2923,33.4653
2.1858,33.4500
2.1142,33.4500
2.0077,33.4653
1.8960,33.5163
1.8960,31.8437
2.0077,31.8947
2.1142,31.9100
2.1858,31.9100
2.2923,31.8947
2.4040,31.8437
Z" /> 
<path style="fill:#B2803A; fill-opacity:1.0000; 
stroke:#B2803A; stroke-width:0.0000; stroke-opacity:1; 
stroke-linecap:round; stroke-linejoin:round;fill-rule:evenodd;"
d="M 66.3040,33.5163
66.1923,33.4653
66.0858,33.4500
66.0142,33.4500
65.9077,33.4653
65.7960,33.5163
65.7960,31.8437
65.9077,31.8947
66.0142,31.9100
66.0858,31.9100
66.1923,31.8947
66.3040,31.8437
Z" /> 
</g>
</g>
</g>
<g style="fill:#000000; fill-opacity:1.0000; 
stroke:#000000; stroke-width:0.0000; stroke-opacity:1; 
stroke-linecap:round; stroke-linejoin:round;">
<circle cx="56.0500" cy="32.5500" r="0.2000" /> 
</g>
<g style="fill:#000000; fill-opacity:1.0000; 
stroke:#000000; stroke-width:0.0212; stroke-opacity:1; 
stroke-linecap:round; stroke-linejoin:round;">
</g>
<g style="fill:#000000; fill-opacity:1.0000; 
stroke:#000000; stroke-width:0.0000; stroke-opacity:1; 
stroke-linecap:round; stroke-linejoin:round;">
<circle cx="25.9500" cy="32.9500" r="0.2000" /> 
</g>
<g style="fill:#000000; fill-opacity:1.0000; 
stroke:#000000; stroke-width:0.0212; stroke-opacity:1; 
stroke-linecap:round; stroke-linejoin:round;">
</g>
<g style="fill:#000000; fill-opacity:1.0000; 
stroke:#000000; stroke-width:0.0000; stroke-opacity:1; 
stroke-linecap:round; stroke-linejoin:round;">
<circle cx="13.6500" cy="33.1500" r="0.2000" /> 
</g>
<g style="fill:#000000; fill-opacity:1.0000; 
stroke:#000000; stroke-width:0.0212; stroke-opacity:1; 
stroke-linecap:round; stroke-linejoin:round;">
</g>
<g style="fill:#000000; fill-opacity:1.0000; 
stroke:#000000; stroke-width:0.0000; stroke-opacity:1; 
stroke-linecap:round; stroke-linejoin:round;">
<circle cx="41.3500" cy="33.1500" r="0.2000" /> 
</g>
<g style="fill:#000000; fill-opacity:1.0000; 
stroke:#000000; stroke-width:0.0212; stroke-opacity:1; 
stroke-linecap:round; stroke-linejoin:round;">
</g>
<g style="fill:#000000; fill-opacity:1.0000; 
stroke:#000000; stroke-width:0.0000; stroke-opacity:1; 
stroke-linecap:round; stroke-linejoin:round;">
<circle cx="28.0500" cy="25.0500" r="0.2000" /> 
</g>
<g style="fill:#000000; fill-opacity:1.0000; 
stroke:#000000; stroke-width:0.0212; stroke-opacity:1; 
stroke-linecap:round; stroke-linejoin:round;">
</g>
<g style="fill:#000000; fill-opacity:1.0000; 
stroke:#000000; stroke-width:0.0000; stroke-opacity:1; 
stroke-linecap:round; stroke-linejoin:round;">
<circle cx="66.0500" cy="8.5500" r="0.5000" /> 
</g>
<g style="fill:#000000; fill-opacity:1.0000; 
stroke:#000000; stroke-width:0.0212; stroke-opacity:1; 
stroke-linecap:round; stroke-linejoin:round;">
</g>
<g style="fill:#000000; fill-opacity:1.0000; 
stroke:#000000; stroke-width:0.0000; stroke-opacity:1; 
stroke-linecap:round; stroke-linejoin:round;">
<circle cx="66.0500" cy="11.0900" r="0.5000" /> 
</g>
<g style="fill:#000000; fill-opacity:1.0000; 
stroke:#000000; stroke-width:0.0212; stroke-opacity:1; 
stroke-linecap:round; stroke-linejoin:round;">
</g>
<g style="fill:#000000; fill-opacity:1.0000; 
stroke:#000000; stroke-width:0.0000; stroke-opacity:1; 
stroke-linecap:round; stroke-linejoin:round;">
<circle cx="66.0500" cy="13.6300" r="0.5000" /> 
</g>
<g style="fill:#000000; fill-opacity:1.0000; 
stroke:#000000; stroke-width:0.0212; stroke-opacity:1; 
stroke-linecap:round; stroke-linejoin:round;">
</g>
<g style="fill:#000000; fill-opacity:1.0000; 
stroke:#000000; stroke-width:0.0000; stroke-opacity:1; 
stroke-linecap:round; stroke-linejoin:round;">
<circle cx="66.0500" cy="16.1700" r="0.5000" /> 
</g>
<g style="fill:#000000; fill-opacity:1.0000; 
stroke:#000000; stroke-width:0.0212; stroke-opacity:1; 
stroke-linecap:round; stroke-linejoin:round;">
</g>
<g style="fill:#000000; fill-opacity:1.0000; 
stroke:#000000; stroke-width:0.0000; stroke-opacity:1; 
stroke-linecap:round; stroke-linejoin:round;">
<circle cx="66.0500" cy="18.7100" r="0.5000" /> 
</g>
<g style="fill:#000000; fill-opacity:1.0000; 
stroke:#000000; stroke-width:0.0212; stroke-opacity:1; 
stroke-linecap:round; stroke-linejoin:round;">
</g>
<g style="fill:#000000; fill-opacity:1.0000; 
stroke:#000000; stroke-width:0.0000; stroke-opacity:1; 
stroke-linecap:round; stroke-linejoin:round;">
<circle cx="66.0500" cy="21.2500" r="0.5000" /> 
</g>
<g style="fill:#000000; fill-opacity:1.0000; 
stroke:#000000; stroke-width:0.0212; stroke-opacity:1; 
stroke-linecap:round; stroke-linejoin:round;">
</g>
<g style="fill:#000000; fill-opacity:1.0000; 
stroke:#000000; stroke-width:0.0000; stroke-opacity:1; 
stroke-linecap:round; stroke-linejoin:round;">
<circle cx="66.0500" cy="23.7900" r="0.5000" /> 
</g>
<g style="fill:#000000; fill-opacity:1.0000; 
stroke:#000000; stroke-width:0.0212; stroke-opacity:1; 
stroke-linecap:round; stroke-linejoin:round;">
</g>
<g style="fill:#000000; fill-opacity:1.0000; 
stroke:#000000; stroke-width:0.0000; stroke-opacity:1; 
stroke-linecap:round; stroke-linejoin:round;">
<circle cx="66.0500" cy="26.3300" r="0.5000" /> 
</g>
<g style="fill:#000000; fill-opacity:1.0000; 
stroke:#000000; stroke-width:0.0212; stroke-opacity:1; 
stroke-linecap:round; stroke-linejoin:round;">
</g>
<g style="fill:#000000; fill-opacity:1.0000; 
stroke:#000000; stroke-width:0.0000; stroke-opacity:1; 
stroke-linecap:round; stroke-linejoin:round;">
<circle cx="66.0500" cy="28.8700" r="0.5000" /> 
</g>
<g style="fill:#000000; fill-opacity:1.0000; 
stroke:#000000; stroke-width:0.0212; stroke-opacity:1; 
stroke-linecap:round; stroke-linejoin:round;">
</g>
<g style="fill:#000000; fill-opacity:1.0000; 
stroke:#000000; stroke-width:0.0000; stroke-opacity:1; 
stroke-linecap:round; stroke-linejoin:round;">
<circle cx="66.0500" cy="31.4100" r="0.5000" /> 
</g>
<g style="fill:#000000; fill-opacity:1.0000; 
stroke:#000000; stroke-width:0.0212; stroke-opacity:1; 
stroke-linecap:round; stroke-linejoin:round;">
</g>
<g style="fill:#000000; fill-opacity:1.0000; 
stroke:#000000; stroke-width:0.0000; stroke-opacity:1; 
stroke-linecap:round; stroke-linejoin:round;">
<circle cx="66.0500" cy="33.9500" r="0.5000" /> 
</g>
<g style="fill:#000000; fill-opacity:1.0000; 
stroke:#000000; stroke-width:0.0212; stroke-opacity:1; 
stroke-linecap:round; stroke-linejoin:round;">
</g>
<g style="fill:#000000; fill-opacity:1.0000; 
stroke:#000000; stroke-width:0.0000; stroke-opacity:1; 
stroke-linecap:round; stroke-linejoin:round;">
<circle cx="66.0500" cy="36.4900" r="0.5000" /> 
</g>
<g style="fill:#000000; fill-opacity:1.0000; 
stroke:#000000; stroke-width:0.0212; stroke-opacity:1; 
stroke-linecap:round; stroke-linejoin:round;">
</g>
<g style="fill:#000000; fill-opacity:1.0000; 
stroke:#000000; stroke-width:0.0000; stroke-opacity:1; 
stroke-linecap:round; stroke-linejoin:round;">
<circle cx="2.1500" cy="8.5500" r="0.5000" /> 
</g>
<g style="fill:#000000; fill-opacity:1.0000; 
stroke:#000000; stroke-width:0.0212; stroke-opacity:1; 
stroke-linecap:round; stroke-linejoin:round;">
</g>
<g style="fill:#000000; fill-opacity:1.0000; 
stroke:#000000; stroke-width:0.0000; stroke-opacity:1; 
stroke-linecap:round; stroke-linejoin:round;">
<circle cx="2.1500" cy="11.0900" r="0.5000" /> 
</g>
<g style="fill:#000000; fill-opacity:1.0000; 
stroke:#000000; stroke-width:0.0212; stroke-opacity:1; 
stroke-linecap:round; stroke-linejoin:round;">
</g>
<g style="fill:#000000; fill-opacity:1.0000; 
stroke:#000000; stroke-width:0.0000; stroke-opacity:1; 
stroke-linecap:round; stroke-linejoin:round;">
<circle cx="2.1500" cy="13.6300" r="0.5000" /> 
</g>
<g style="fill:#000000; fill-opacity:1.0000; 
stroke:#000000; stroke-width:0.0212; stroke-opacity:1; 
stroke-linecap:round; stroke-linejoin:round;">
</g>
<g style="fill:#000000; fill-opacity:1.0000; 
stroke:#000000; stroke-width:0.0000; stroke-opacity:1; 
stroke-linecap:round; stroke-linejoin:round;">
<circle cx="2.1500" cy="16.1700" r="0.5000" /> 
</g>
<g style="fill:#000000; fill-opacity:1.0000; 
stroke:#000000; stroke-width:0.0212; stroke-opacity:1; 
stroke-linecap:round; stroke-linejoin:round;">
</g>
<g style="fill:#000000; fill-opacity:1.0000; 
stroke:#000000; stroke-width:0.0000; stroke-opacity:1; 
stroke-linecap:round; stroke-linejoin:round;">
<circle cx="2.1500" cy="18.7100" r="0.5000" /> 
</g>
<g style="fill:#000000; fill-opacity:1.0000; 
stroke:#000000; stroke-width:0.0212; stroke-opacity:1; 
stroke-linecap:round; stroke-linejoin:round;">
</g>
<g style="fill:#000000; fill-opacity:1.0000; 
stroke:#000000; stroke-width:0.0000; stroke-opacity:1; 
stroke-linecap:round; stroke-linejoin:round;">
<circle cx="2.1500" cy="21.2500" r="0.5000" /> 
</g>
<g style="fill:#000000; fill-opacity:1.0000; 
stroke:#000000; stroke-width:0.0212; stroke-opacity:1; 
stroke-linecap:round; stroke-linejoin:round;">
</g>
<g style="fill:#000000; fill-opacity:1.0000; 
stroke:#000000; stroke-width:0.0000; stroke-opacity:1; 
stroke-linecap:round; stroke-linejoin:round;">
<circle cx="2.1500" cy="23.7900" r="0.5000" /> 
</g>
<g style="fill:#000000; fill-opacity:1.0000; 
stroke:#000000; stroke-width:0.0212; stroke-opacity:1; 
stroke-linecap:round; stroke-linejoin:round;">
</g>
<g style="fill:#000000; fill-opacity:1.0000; 
stroke:#000000; stroke-width:0.0000; stroke-opacity:1; 
stroke-linecap:round; stroke-linejoin:round;">
<circle cx="2.1500" cy="26.3300" r="0.5000" /> 
</g>
<g style="fill:#000000; fill-opacity:1.0000; 
stroke:#000000; stroke-width:0.0212; stroke-opacity:1; 
stroke-linecap:round; stroke-linejoin:round;">
</g>
<g style="fill:#000000; fill-opacity:1.0000; 
stroke:#000000; stroke-width:0.0000; stroke-opacity:1; 
stroke-linecap:round; stroke-linejoin:round;">
<circle cx="2.1500" cy="28.8700" r="0.5000" /> 
</g>
<g style="fill:#000000; fill-opacity:1.0000; 
stroke:#000000; stroke-width:0.0212; stroke-opacity:1; 
stroke-linecap:round; stroke-linejoin:round;">
</g>
<g style="fill:#000000; fill-opacity:1.0000; 
stroke:#000000; stroke-width:0.0000; stroke-opacity:1; 
stroke-linecap:round; stroke-linejoin:round;">
<circle cx="2.1500" cy="31.4100" r="0.5000" /> 
</g>
<g style="fill:#000000; fill-opacity:1.0000; 
stroke:#000000; stroke-width:0.0212; stroke-opacity:1; 
stroke-linecap:round; stroke-linejoin:round;">
</g>
<g style="fill:#000000; fill-opacity:1.0000; 
stroke:#000000; stroke-width:0.0000; stroke-opacity:1; 
stroke-linecap:round; stroke-linejoin:round;">
<circle cx="2.1500" cy="33.9500" r="0.5000" /> 
</g>
<g style="fill:#000000; fill-opacity:1.0000; 
stroke:#000000; stroke-width:0.0212; stroke-opacity:1; 
stroke-linecap:round; stroke-linejoin:round;">
</g>
<g style="fill:#000000; fill-opacity:1.0000; 
stroke:#000000; stroke-width:0.0000; stroke-opacity:1; 
stroke-linecap:round; stroke-linejoin:round;">
<circle cx="2.1500" cy="36.4900" r="0.5000" /> 
</g>
<g style="fill:#000000; fill-opacity:1.0000; 
stroke:#000000; stroke-width:0.0212; stroke-opacity:1; 
stroke-linecap:round; stroke-linejoin:round;">
</g>
<g style="fill:#FFFFFF; fill-opacity:1.0000; 
stroke:#FFFFFF; stroke-width:0.0212; stroke-opacity:1; 
stroke-linecap:round; stroke-linejoin:round;">
<g >
</g>
<g style="fill:#37CBCB; fill-opacity:1.0000; 
stroke:#37CBCB; stroke-width:0.0212; stroke-opacity:1; 
stroke-linecap:round; stroke-linejoin:round;">
</g>
<g style="fill:#37CBCB; fill-opacity:1.0000; 
stroke:#37CBCB; stroke-width:0.0000; stroke-opacity:1; 
stroke-linecap:round; stroke-linejoin:round;">
<path style="fill:#37CBCB; fill-opacity:1.0000; 
stroke:#37CBCB; stroke-width:0.0000; stroke-opacity:1; 
stroke-linecap:round; stroke-linejoin:round;fill-rule:evenodd;"
d="M 20.0500,15.3500
23.0500,15.3500
23.0500,15.7500
20.0500,15.7500
Z" /> 
<path style="fill:#37CBCB; fill-opacity:1.0000; 
stroke:#37CBCB; stroke-width:0.0000; stroke-opacity:1; 
stroke-linecap:round; stroke-linejoin:round;fill-rule:evenodd;"
d="M 20.0500,16.1500
23.0500,16.1500
23.0500,16.5500
20.0500,16.5500
Z" /> 
<path style="fill:#37CBCB; fill-opacity:1.0000; 
stroke:#37CBCB; stroke-width:0.0000; stroke-opacity:1; 
stroke-linecap:round; stroke-linejoin:round;fill-rule:evenodd;"
d="M 20.0500,16.9500
23.0500,16.9500
23.0500,17.3500
20.0500,17.3500
Z" /> 
<path style="fill:#37CBCB; fill-opacity:1.0000; 
stroke:#37CBCB; stroke-width:0.0000; stroke-opacity:1; 
stroke-linecap:round; stroke-linejoin:round;fill-rule:evenodd;"
d="M 20.0500,17.7500
23.0500,17.7500
23.0500,18.1500
20.0500,18.1500
Z" /> 
<path style="fill:#37CBCB; fill-opacity:1.0000; 
stroke:#37CBCB; stroke-width:0.0000; stroke-opacity:1; 
stroke-linecap:round; stroke-linejoin:round;fill-rule:evenodd;"
d="M 20.0500,18.5500
23.0500,18.5500
23.0500,18.9500
20.0500,18.9500
Z" /> 
<path style="fill:#37CBCB; fill-opacity:1.0000; 
stroke:#37CBCB; stroke-width:0.0000; stroke-opacity:1; 
stroke-linecap:round; stroke-linejoin:round;fill-rule:evenodd;"
d="M 20.0500,19.3500
23.0500,19.3500
23.0500,19.7500
20.0500,19.7500
Z" /> 
<path style="fill:#37CBCB; fill-opacity:1.0000; 
stroke:#37CBCB; stroke-width:0.0000; stroke-opacity:1; 
stroke-linecap:round; stroke-linejoin:round;fill-rule:evenodd;"
d="M 20.0500,20.1500
23.0500,20.1500
23.0500,20.5500
20.0500,20.5500
Z" /> 
<path style="fill:#37CBCB; fill-opacity:1.0000; 
stroke:#37CBCB; stroke-width:0.0000; stroke-opacity:1; 
stroke-linecap:round; stroke-linejoin:round;fill-rule:evenodd;"
d="M 20.0500,20.9500
23.0500,20.9500
23.0500,21.3500
20.0500,21.3500
Z" /> 
<path style="fill:#37CBCB; fill-opacity:1.0000; 
stroke:#37CBCB; stroke-width:0.0000; stroke-opacity:1; 
stroke-linecap:round; stroke-linejoin:round;fill-rule:evenodd;"
d="M 20.0500,21.7500
23.0500,21.7500
23.0500,22.1500
20.0500,22.1500
Z" /> 
<path style="fill:#37CBCB; fill-opacity:1.0000; 
stroke:#37CBCB; stroke-width:0.0000; stroke-opacity:1; 
stroke-linecap:round; stroke-linejoin:round;fill-rule:evenodd;"
d="M 20.0500,22.5500
23.0500,22.5500
23.0500,22.9500
20.0500,22.9500
Z" /> 
<path style="fill:#37CBCB; fill-opacity:1.0000; 
stroke:#37CBCB; stroke-width:0.0000; stroke-opacity:1; 
stroke-linecap:round; stroke-linejoin:round;fill-rule:evenodd;"
d="M 20.0500,23.3500
23.0500,23.3500
23.0500,23.7500
20.0500,23.7500
Z" /> 
<path style="fill:#37CBCB; fill-opacity:1.0000; 
stroke:#37CBCB; stroke-width:0.0000; stroke-opacity:1; 
stroke-linecap:round; stroke-linejoin:round;fill-rule:evenodd;"
d="M 20.0500,24.1500
23.0500,24.1500
23.0500,24.5500
20.0500,24.5500
Z" /> 
<path style="fill:#37CBCB; fill-opacity:1.0000; 
stroke:#37CBCB; stroke-width:0.0000; stroke-opacity:1; 
stroke-linecap:round; stroke-linejoin:round;fill-rule:evenodd;"
d="M 20.0500,24.9500
23.0500,24.9500
23.0500,25.3500
20.0500,25.3500
Z" /> 
<path style="fill:#37CBCB; fill-opacity:1.0000; 
stroke:#37CBCB; stroke-width:0.0000; stroke-opacity:1; 
stroke-linecap:round; stroke-linejoin:round;fill-rule:evenodd;"
d="M 20.0500,25.7500
23.0500,25.7500
23.0500,26.1500
20.0500,26.1500
Z" /> 
<path style="fill:#37CBCB; fill-opacity:1.0000; 
stroke:#37CBCB; stroke-width:0.0000; stroke-opacity:1; 
stroke-linecap:round; stroke-linejoin:round;fill-rule:evenodd;"
d="M 20.0500,26.5500
23.0500,26.5500
23.0500,26.9500
20.0500,26.9500
Z" /> 
<path style="fill:#37CBCB; fill-opacity:1.0000; 
stroke:#37CBCB; stroke-width:0.0000; stroke-opacity:1; 
stroke-linecap:round; stroke-linejoin:round;fill-rule:evenodd;"
d="M 20.0500,27.3500
23.0500,27.3500
23.0500,27.7500
20.0500,27.7500
Z" /> 
<path style="fill:#37CBCB; fill-opacity:1.0000; 
stroke:#37CBCB; stroke-width:0.0000; stroke-opacity:1; 
stroke-linecap:round; stroke-linejoin:round;fill-rule:evenodd;"
d="M 20.0500,28.1500
23.0500,28.1500
23.0500,28.5500
20.0500,28.5500
Z" /> 
<path style="fill:#37CBCB; fill-opacity:1.0000; 
stroke:#37CBCB; stroke-width:0.0000; stroke-opacity:1; 
stroke-linecap:round; stroke-linejoin:round;fill-rule:evenodd;"
d="M 20.0500,28.9500
23.0500,28.9500
23.0500,29.3500
20.0500,29.3500
Z" /> 
</g>
<g >
</g>
<g style="fill:#37CBCB; fill-opacity:1.0000; 
stroke:#37CBCB; stroke-width:0.0000; stroke-opacity:1; 
stroke-linecap:round; stroke-linejoin:round;">
<path style="fill:#37CBCB; fill-opacity:1.0000; 
stroke:#37CBCB; stroke-width:0.0000; stroke-opacity:1; 
stroke-linecap:round; stroke-linejoin:round;fill-rule:evenodd;"
d="M 65.2000,9.4000
65.2000,7.7000
66.9000,7.7000
66.9000,9.4000
Z" /> 
<circle cx="66.0500" cy="11.0900" r="0.8500" /> 
<circle cx="66.0500" cy="13.6300" r="0.8500" /> 
<circle cx="66.0500" cy="16.1700" r="0.8500" /> 
<circle cx="66.0500" cy="18.7100" r="0.8500" /> 
<circle cx="66.0500" cy="21.2500" r="0.8500" /> 
<circle cx="66.0500" cy="23.7900" r="0.8500" /> 
<circle cx="66.0500" cy="26.3300" r="0.8500" /> 
<circle cx="66.0500" cy="28.8700" r="0.8500" /> 
<circle cx="66.0500" cy="31.4100" r="0.8500" /> 
<circle cx="66.0500" cy="33.9500" r="0.8500" /> 
<circle cx="66.0500" cy="36.4900" r="0.8500" /> 
</g>
<g >
</g>
<g style="fill:#37CBCB; fill-opacity:1.0000; 
stroke:#37CBCB; stroke-width:0.0000; stroke-opacity:1; 
stroke-linecap:round; stroke-linejoin:round;">
<path style="fill:#37CBCB; fill-opacity:1.0000; 
stroke:#37CBCB; stroke-width:0.0000; stroke-opacity:1; 
stroke-linecap:round; stroke-linejoin:round;fill-rule:evenodd;"
d="M 1.3000,9.4000
1.3000,7.7000
3.0000,7.7000
3.0000,9.4000
Z" /> 
<circle cx="2.1500" cy="11.0900" r="0.8500" /> 
<circle cx="2.1500" cy="13.6300" r="0.8500" /> 
<circle cx="2.1500" cy="16.1700" r="0.8500" /> 
<circle cx="2.1500" cy="18.7100" r="0.8500" /> 
<circle cx="2.1500" cy="21.2500" r="0.8500" /> 
<circle cx="2.1500" cy="23.7900" r="0.8500" /> 
<circle cx="2.1500" cy="26.3300" r="0.8500" /> 
<circle cx="2.1500" cy="28.8700" r="0.8500" /> 
<circle cx="2.1500" cy="31.4100" r="0.8500" /> 
<circle cx="2.1500" cy="33.9500" r="0.8500" /> 
<circle cx="2.1500" cy="36.4900" r="0.8500" /> 
</g>
<g >
</g>
<g >
</g>
<g >
</g>
<g >
</g>
<g >
</g>
<g style="fill:#121212; fill-opacity:1.0000; 
stroke:#121212; stroke-width:0.0000; stroke-opacity:1; 
stroke-linecap:round; stroke-linejoin:round;">
<circle cx="56.0500" cy="32.5500" r="0.4000" /> 
</g>
<g style="fill:#121212; fill-opacity:1.0000; 
stroke:#121212; stroke-width:0.0212; stroke-opacity:1; 
stroke-linecap:round; stroke-linejoin:round;">
</g>
<g style="fill:#121212; fill-opacity:1.0000; 
stroke:#121212; stroke-width:0.0000; stroke-opacity:1; 
stroke-linecap:round; stroke-linejoin:round;">
<circle cx="25.9500" cy="32.9500" r="0.4000" /> 
</g>
<g style="fill:#121212; fill-opacity:1.0000; 
stroke:#121212; stroke-width:0.0212; stroke-opacity:1; 
stroke-linecap:round; stroke-linejoin:round;">
</g>
<g style="fill:#121212; fill-opacity:1.0000; 
stroke:#121212; stroke-width:0.0000; stroke-opacity:1; 
stroke-linecap:round; stroke-linejoin:round;">
<circle cx="13.6500" cy="33.1500" r="0.4000" /> 
</g>
<g style="fill:#121212; fill-opacity:1.0000; 
stroke:#121212; stroke-width:0.0212; stroke-opacity:1; 
stroke-linecap:round; stroke-linejoin:round;">
</g>
<g style="fill:#121212; fill-opacity:1.0000; 
stroke:#121212; stroke-width:0.0000; stroke-opacity:1; 
stroke-linecap:round; stroke-linejoin:round;">
<circle cx="41.3500" cy="33.1500" r="0.4000" /> 
</g>
<g style="fill:#121212; fill-opacity:1.0000; 
stroke:#121212; stroke-width:0.0212; stroke-opacity:1; 
stroke-linecap:round; stroke-linejoin:round;">
</g>
<g style="fill:#121212; fill-opacity:1.0000; 
stroke:#121212; stroke-width:0.0000; stroke-opacity:1; 
stroke-linecap:round; stroke-linejoin:round;">
<circle cx="28.0500" cy="25.0500" r="0.4000" /> 
</g>
<g style="fill:#121212; fill-opacity:1.0000; 
stroke:#121212; stroke-width:0.0212; stroke-opacity:1; 
stroke-linecap:round; stroke-linejoin:round;">
</g>
<g >
</g>
<g style="fill:#37CBCB; fill-opacity:1.0000; 
stroke:#37CBCB; stroke-width:0.0212; stroke-opacity:1; 
stroke-linecap:round; stroke-linejoin:round;">
</g>
<g style="fill:#37CBCB; fill-opacity:1.0000; 
stroke:#37CBCB; stroke-width:0.4000; stroke-opacity:1; 
stroke-linecap:round; stroke-linejoin:round;">
</g>
<g style="fill:#37CBCB; fill-opacity:0.0; 
stroke:#37CBCB; stroke-width:0.4000; stroke-opacity:1; 
stroke-linecap:round; stroke-linejoin:round;">
<path d="M2.1500 36.4900
L15.8900 22.7500
" />
<path d="M52.3100 22.7500
L66.0500 36.4900
" />
<path d="M15.8900 22.7500
L21.5500 22.7500
" />
<path d="M21.5500 22.7500
L52.3100 22.7500
" />
<path d="M21.5100 18.7100
L21.5500 18.7500
" />
<path d="M2.1500 18.7100
L21.5100 18.7100
" />
<path d="M21.5500 21.1500
L7.3300 21.1500
" />
<path d="M7.3300 21.1500
L2.1500 26.3300
" />
<path d="M2.1500 23.7900
L5.5900 20.3500
" />
<path d="M62.6100 20.3500
L66.0500 23.7900
" />
<path d="M5.5900 20.3500
L21.5500 20.3500
" />
<path d="M21.5500 20.3500
L62.6100 20.3500
" />
<path d="M2.1500 21.2500
L3.8500 19.5500
" />
<path d="M3.8500 19.5500
L21.5500 19.5500
" />
<path d="M64.3500 19.5500
L66.0500 21.2500
" />
<path d="M21.5500 19.5500
L64.3500 19.5500
" />
<path d="M2.1500 16.1700
L3.9300 17.9500
" />
<path d="M64.2700 17.9500
L66.0500 16.1700
" />
<path d="M3.9300 17.9500
L21.5500 17.9500
" />
<path d="M21.5500 17.9500
L64.2700 17.9500
" />
<path d="M21.5500 17.1500
L5.6700 17.1500
" />
<path d="M21.5500 17.1500
L62.5300 17.1500
" />
<path d="M62.5300 17.1500
L66.0500 13.6300
" />
<path d="M5.6700 17.1500
L2.1500 13.6300
" />
<path d="M60.7900 16.3500
L66.0500 11.0900
" />
<path d="M2.1500 11.0900
L7.4100 16.3500
" />
<path d="M7.4100 16.3500
L21.5500 16.3500
" />
<path d="M21.5500 16.3500
L60.7900 16.3500
" />
<path d="M21.5500 21.9500
L9.0700 21.9500
" />
<path d="M9.0700 21.9500
L2.1500 28.8700
" />
<path d="M21.5500 21.9500
L59.1300 21.9500
" />
<path d="M59.1300 21.9500
L66.0500 28.8700
" />
<path d="M21.5500 25.9500
L21.5500 23.5500
" />
<path d="M28.0500 25.0500
L21.6500 25.0500
" />
<path d="M21.6500 25.0500
L21.5500 25.1500
" />
</g>
<g >
</g>
<g style="fill:#37CBCB; fill-opacity:0.0; 
stroke:#37CBCB; stroke-width:0.4000; stroke-opacity:1; 
stroke-linecap:round; stroke-linejoin:round;">
<g >
</g>
<g style="fill:#37CBCB; fill-opacity:1.0000; 
stroke:#37CBCB; stroke-width:0.0000; stroke-opacity:1; 
stroke-linecap:round; stroke-linejoin:round;">
<path style="fill:#37CBCB; fill-opacity:1.0000; 
stroke:#37CBCB; stroke-width:0.0000; stroke-opacity:1; 
stroke-linecap:round; stroke-linejoin:round;fill-rule:evenodd;"
d="M 19.4836,23.4785
19.5301,23.5322
19.5415,23.5845
19.5415,23.7986
19.5480,23.8592
19.5480,23.8592
19.5655,23.9060
19.5705,23.9768
19.5655,23.9940
19.5480,24.0408
19.5480,24.0408
19.5415,24.1014
19.5415,24.5986
19.5480,24.6592
19.5480,24.6592
19.5655,24.7060
19.5705,24.7768
19.5655,24.7940
19.5480,24.8408
19.5480,24.8408
19.5415,24.9013
19.5415,25.3986
19.5480,25.4592
19.5480,25.4592
19.5655,25.5060
19.5705,25.5768
19.5655,25.5940
19.5480,25.6408
19.5480,25.6408
19.5415,25.7013
19.5415,26.1986
19.5480,26.2592
19.5480,26.2592
19.5655,26.3060
19.5705,26.3768
19.5655,26.3940
19.5480,26.4408
19.5480,26.4408
19.5415,26.5013
19.5415,26.9986
19.5480,27.0592
19.5480,27.0592
19.5655,27.1060
19.5705,27.1768
19.5655,27.1940
19.5480,27.2408
19.5480,27.2408
19.5415,27.3013
19.5415,27.7986
19.5480,27.8592
19.5480,27.8592
19.5655,27.9060
19.5705,27.9768
19.5655,27.9940
19.5480,28.0408
19.5480,28.0408
19.5415,28.1014
19.5415,28.5986
19.5480,28.6592
19.5480,28.6592
19.5655,28.7060
19.5705,28.7768
19.5655,28.7940
19.5480,28.8408
19.5480,28.8408
19.5415,28.9013
19.5415,29.3986
19.5480,29.4592
19.5480,29.4592
19.5991,29.5962
19.5991,29.5962
19.6867,29.7133
19.8038,29.8009
19.8038,29.8009
19.8038,29.8009
19.8629,29.8229
19.9408,29.8520
19.9408,29.8520
20.0013,29.8585
20.0014,29.8585
20.0014,29.8585
20.0014,29.8585
23.0986,29.8585
23.0986,29.8585
23.0986,29.8585
23.0986,29.8585
23.1592,29.8520
23.1592,29.8520
23.1592,29.8520
23.2962,29.8009
23.4133,29.7133
23.5009,29.5962
23.5520,29.4592
23.5585,29.3986
23.5585,28.9014
23.5585,28.9013
23.5520,28.8408
23.5520,28.8408
23.5345,28.7940
23.5295,28.7232
23.5345,28.7060
23.5520,28.6592
23.5520,28.6592
23.5585,28.5986
23.5585,28.5986
23.5585,28.1014
23.5585,28.1014
23.5520,28.0408
23.5520,28.0408
23.5345,27.9940
23.5295,27.9232
23.5345,27.9060
23.5520,27.8592
23.5520,27.8592
23.5585,27.7986
23.5585,27.7986
23.5585,27.3014
23.5585,27.3013
23.5520,27.2408
23.5520,27.2408
23.5345,27.1940
23.5295,27.1232
23.5345,27.1060
23.5520,27.0592
23.5520,27.0592
23.5585,26.9986
23.5585,26.9986
23.5585,26.5014
23.5585,26.5013
23.5520,26.4408
23.5520,26.4408
23.5345,26.3940
23.5295,26.3232
23.5345,26.3060
23.5369,26.2997
23.5520,26.2592
23.5521,26.2581
23.5585,26.1986
23.5585,26.1986
23.5585,25.8845
23.5785,25.8164
23.6322,25.7699
23.6845,25.7585
27.4386,25.7585
27.5067,25.7785
27.5127,25.7826
27.5932,25.8411
27.7677,25.9188
27.9545,25.9585
28.1455,25.9585
28.3323,25.9188
28.5068,25.8411
28.6613,25.7289
28.6860,25.7014
28.7890,25.5870
28.7890,25.5869
28.7890,25.5869
28.8845,25.4216
28.9435,25.2399
28.9635,25.0500
28.9435,24.8601
28.8845,24.6784
28.7890,24.5131
28.7890,24.5131
28.7890,24.5130
28.6613,24.3711
28.5068,24.2589
28.3323,24.1812
28.1455,24.1415
27.9545,24.1415
27.7677,24.1812
27.5932,24.2589
27.5127,24.3174
27.4458,24.3413
27.4386,24.3415
23.6845,24.3415
23.6164,24.3215
23.5699,24.2678
23.5585,24.2155
23.5585,24.1014
23.5585,24.1014
23.5520,24.0408
23.5520,24.0408
23.5345,23.9940
23.5295,23.9232
23.5345,23.9060
23.5520,23.8592
23.5520,23.8592
23.5585,23.7986
23.5585,23.7986
23.5585,23.5845
23.5785,23.5164
23.6322,23.4699
23.6845,23.4585
51.9643,23.4585
52.0325,23.4785
52.0534,23.4954
64.6787,36.1207
64.7127,36.1830
64.7117,36.2407
64.7054,36.2656
64.7054,36.2656
64.7054,36.2656
64.6868,36.4900
64.7021,36.6737
64.7054,36.7144
64.7607,36.9326
64.7607,36.9326
64.7607,36.9326
64.8511,37.1388
64.8511,37.1388
64.9743,37.3273
64.9743,37.3273
65.1268,37.4929
65.1813,37.5354
65.3044,37.6312
65.5024,37.7383
65.5024,37.7383
65.5024,37.7383
65.6142,37.7767
65.7154,37.8114
65.9374,37.8485
65.9374,37.8485
66.1626,37.8485
66.1626,37.8485
66.3846,37.8114
66.5976,37.7383
66.7956,37.6312
66.9732,37.4929
67.1257,37.3273
67.2489,37.1388
67.3081,37.0037
67.3538,36.9494
67.4216,36.9283
67.4900,36.9473
67.5373,37.0003
67.5495,37.0543
67.5495,44.4235
67.5295,44.4916
67.4758,44.5381
67.4235,44.5495
0.6765,44.5495
0.6084,44.5295
0.5619,44.4758
0.5505,44.4235
0.5505,36.6841
0.5705,36.6160
0.6242,36.5695
0.6944,36.5594
0.7590,36.5889
0.7974,36.6486
0.8021,36.6737
0.8029,36.6841
0.8054,36.7144
0.8607,36.9326
0.8607,36.9326
0.8607,36.9326
0.9511,37.1388
0.9511,37.1388
1.0743,37.3273
1.0743,37.3273
1.2268,37.4929
1.2813,37.5354
1.4044,37.6312
1.6024,37.7383
1.6024,37.7383
1.6024,37.7383
1.7142,37.7767
1.8154,37.8114
2.0374,37.8485
2.0374,37.8485
2.2626,37.8485
2.2626,37.8485
2.4846,37.8114
2.6976,37.7383
2.8956,37.6312
3.0732,37.4929
3.2257,37.3273
3.3489,37.1388
3.4393,36.9326
3.4946,36.7144
3.5132,36.4900
3.4946,36.2656
3.4882,36.2407
3.4909,36.1698
3.5213,36.1207
16.1466,23.4954
16.2089,23.4614
16.2357,23.4585
19.4155,23.4585
Z" /> 
<path style="fill:#37CBCB; fill-opacity:1.0000; 
stroke:#37CBCB; stroke-width:0.0000; stroke-opacity:1; 
stroke-linecap:round; stroke-linejoin:round;fill-rule:evenodd;"
d="M 14.7435,22.6785
14.7900,22.7322
14.8001,22.8024
14.7706,22.8670
14.7644,22.8736
3.7183,33.9197
3.6560,33.9538
3.5852,33.9487
3.5283,33.9062
3.5036,33.8410
3.4941,33.7257
3.4388,33.5076
3.4388,33.5075
3.3484,33.3015
3.2253,33.1130
3.0729,32.9475
2.8953,32.8092
2.8953,32.8092
2.8613,32.7908
2.8109,32.7408
2.7955,32.6715
2.8201,32.6049
2.8613,32.5692
2.8953,32.5508
2.8953,32.5508
3.0729,32.4125
3.2253,32.2470
3.3484,32.0585
3.4388,31.8525
3.4388,31.8524
3.4865,31.6640
2.5811,31.6640
2.6095,31.6198
2.6500,31.4819
2.6500,31.3381
2.6095,31.2002
2.5811,31.1560
3.4865,31.1560
3.4865,31.1560
3.4388,30.9675
3.4388,30.9675
3.3484,30.7615
3.2253,30.5730
3.0729,30.4075
2.8953,30.2692
2.8953,30.2692
2.8618,30.2511
2.8114,30.2011
2.7960,30.1318
2.8206,30.0652
2.8618,30.0295
2.8956,30.0112
3.0732,29.8729
3.2257,29.7073
3.3489,29.5188
3.4393,29.3126
3.4946,29.0944
3.5132,28.8700
3.4946,28.6456
3.4882,28.6207
3.4909,28.5498
3.5213,28.5007
9.3266,22.6954
9.3889,22.6614
9.4157,22.6585
14.6753,22.6585
Z" /> 
<path style="fill:#37CBCB; fill-opacity:1.0000; 
stroke:#37CBCB; stroke-width:0.0000; stroke-opacity:1; 
stroke-linecap:round; stroke-linejoin:round;fill-rule:evenodd;"
d="M 58.8525,22.6785
58.8734,22.6954
64.6787,28.5007
64.7127,28.5630
64.7117,28.6207
64.7054,28.6456
64.7054,28.6456
64.7054,28.6456
64.6868,28.8700
64.7021,29.0537
64.7054,29.0944
64.7607,29.3126
64.7607,29.3126
64.7607,29.3126
64.8250,29.4592
64.8511,29.5188
64.9743,29.7073
64.9743,29.7073
65.1268,29.8729
65.1813,29.9154
65.3044,30.0112
65.3382,30.0295
65.3886,30.0795
65.4039,30.1488
65.3794,30.2154
65.3382,30.2511
65.3047,30.2692
65.3047,30.2692
65.1271,30.4075
64.9747,30.5730
64.8516,30.7615
64.7612,30.9675
64.7612,30.9675
64.7135,31.1560
64.7135,31.1560
65.6189,31.1560
65.5905,31.2002
65.5500,31.3381
65.5500,31.4819
65.5905,31.6198
65.6189,31.6640
64.7135,31.6640
64.7612,31.8524
64.7612,31.8525
64.8516,32.0585
64.9747,32.2470
65.1271,32.4125
65.3047,32.5508
65.3047,32.5508
65.3387,32.5692
65.3891,32.6192
65.4045,32.6885
65.3799,32.7551
65.3387,32.7908
65.3047,32.8092
65.3047,32.8092
65.1271,32.9475
64.9747,33.1130
64.8516,33.3015
64.7612,33.5075
64.7612,33.5076
64.7059,33.7257
64.6964,33.8410
64.6708,33.9073
64.6135,33.9492
64.5426,33.9535
64.4817,33.9197
53.4356,22.8736
53.4015,22.8113
53.4066,22.7405
53.4492,22.6836
53.5157,22.6588
53.5247,22.6585
58.7843,22.6585
Z" /> 
<path style="fill:#37CBCB; fill-opacity:1.0000; 
stroke:#37CBCB; stroke-width:0.0000; stroke-opacity:1; 
stroke-linecap:round; stroke-linejoin:round;fill-rule:evenodd;"
d="M 2.4040,33.5163
2.2923,33.4653
2.1858,33.4500
2.1142,33.4500
2.0077,33.4653
1.8960,33.5163
1.8960,31.8437
2.0077,31.8947
2.1142,31.9100
2.1858,31.9100
2.2923,31.8947
2.4040,31.8437
Z" /> 
<path style="fill:#37CBCB; fill-opacity:1.0000; 
stroke:#37CBCB; stroke-width:0.0000; stroke-opacity:1; 
stroke-linecap:round; stroke-linejoin:round;fill-rule:evenodd;"
d="M 66.3040,33.5163
66.1923,33.4653
66.0858,33.4500
66.0142,33.4500
65.9077,33.4653
65.7960,33.5163
65.7960,31.8437
65.9077,31.8947
66.0142,31.9100
66.0858,31.9100
66.1923,31.8947
66.3040,31.8437
Z" /> 
<path style="fill:#37CBCB; fill-opacity:1.0000; 
stroke:#37CBCB; stroke-width:0.0000; stroke-opacity:1; 
stroke-linecap:round; stroke-linejoin:round;fill-rule:evenodd;"
d="M 8.8033,21.0785
8.8497,21.1322
8.8598,21.2024
8.8304,21.2670
8.7798,21.3023
8.7383,21.3180
8.7299,21.3238
8.7101,21.3350
8.7008,21.3392
8.7008,21.3392
8.6514,21.3779
8.6483,21.3802
8.5967,21.4158
8.5551,21.4627
8.5525,21.4655
3.7183,26.2997
3.6560,26.3338
3.5852,26.3287
3.5283,26.2862
3.5036,26.2210
3.4941,26.1057
3.4388,25.8875
3.4388,25.8875
3.3484,25.6815
3.2253,25.4930
3.0729,25.3275
2.8953,25.1892
2.8953,25.1892
2.8618,25.1711
2.8114,25.1211
2.7960,25.0518
2.8206,24.9852
2.8618,24.9495
2.8956,24.9312
3.0732,24.7929
3.2257,24.6273
3.3489,24.4388
3.4393,24.2326
3.4946,24.0144
3.5132,23.7900
3.4946,23.5656
3.4882,23.5407
3.4909,23.4698
3.5213,23.4207
5.8466,21.0954
5.9089,21.0614
5.9357,21.0585
8.7351,21.0585
Z" /> 
<path style="fill:#37CBCB; fill-opacity:1.0000; 
stroke:#37CBCB; stroke-width:0.0000; stroke-opacity:1; 
stroke-linecap:round; stroke-linejoin:round;fill-rule:evenodd;"
d="M 3.4452,18.4760
3.4504,18.4799
3.4505,18.4799
3.4567,18.4842
3.4567,18.4842
3.5083,18.5198
3.5114,18.5221
3.5608,18.5608
3.5701,18.5650
3.5899,18.5762
3.5983,18.5820
3.5983,18.5820
3.5984,18.5820
3.6570,18.6042
3.6605,18.6056
3.6950,18.6212
3.7490,18.6674
3.7693,18.7354
3.7497,18.8036
3.6963,18.8504
3.6862,18.8540
3.6863,18.8543
3.6697,18.8607
3.6477,18.8668
3.6377,18.8686
3.6377,18.8686
3.5805,18.8944
3.5770,18.8958
3.5183,18.9180
3.5099,18.9238
3.4901,18.9350
3.4808,18.9392
3.4743,18.9432
3.4731,18.9413
3.4174,18.9635
3.4057,18.9640
2.5811,18.9640
2.6095,18.9198
2.6500,18.7819
2.6500,18.6381
2.6095,18.5002
2.5811,18.4560
3.3771,18.4560
Z" /> 
<path style="fill:#37CBCB; fill-opacity:1.0000; 
stroke:#37CBCB; stroke-width:0.0000; stroke-opacity:1; 
stroke-linecap:round; stroke-linejoin:round;fill-rule:evenodd;"
d="M 65.5905,18.5002
65.5500,18.6381
65.5500,18.7819
65.5905,18.9198
65.6189,18.9640
64.7943,18.9640
64.7262,18.9440
64.7210,18.9403
64.7192,18.9392
64.7192,18.9392
64.7192,18.9392
64.7099,18.9350
64.6901,18.9238
64.6817,18.9180
64.6502,18.9061
64.6230,18.8958
64.6195,18.8944
64.5623,18.8686
64.5623,18.8686
64.5623,18.8686
64.5523,18.8668
64.5303,18.8606
64.5208,18.8570
64.5208,18.8570
64.5137,18.8543
64.5147,18.8516
64.4651,18.8227
64.4328,18.7594
64.4399,18.6888
64.4840,18.6332
64.5049,18.6212
64.5395,18.6056
64.5430,18.6042
64.6017,18.5820
64.6101,18.5762
64.6299,18.5650
64.6392,18.5608
64.6886,18.5221
64.6916,18.5199
64.7433,18.4842
64.7433,18.4842
64.7495,18.4799
64.7511,18.4822
64.8036,18.4575
64.8229,18.4560
65.6189,18.4560
Z" /> 
<path style="fill:#37CBCB; fill-opacity:1.0000; 
stroke:#37CBCB; stroke-width:0.0000; stroke-opacity:1; 
stroke-linecap:round; stroke-linejoin:round;fill-rule:evenodd;"
d="M 67.4916,0.5705
67.5381,0.6242
67.5495,0.6765
67.5495,7.3414
67.5295,7.4095
67.4758,7.4560
67.4056,7.4661
67.3410,7.4366
67.3226,7.4169
67.2629,7.3371
67.1460,7.2496
67.0091,7.1985
66.9486,7.1920
66.3040,7.1920
66.3040,8.1163
66.1923,8.0653
66.0858,8.0500
66.0142,8.0500
65.9077,8.0653
65.7960,8.1163
65.7960,7.1920
65.1514,7.1920
65.0909,7.1985
64.9540,7.2496
64.9540,7.2496
64.8371,7.3371
64.7496,7.4540
64.7496,7.4540
64.6985,7.5909
64.6920,7.6514
64.6920,8.2960
65.6189,8.2960
65.5905,8.3402
65.5500,8.4781
65.5500,8.6219
65.5905,8.7598
65.6189,8.8040
64.6920,8.8040
64.6920,9.4486
64.6985,9.5091
64.7496,9.6460
64.7496,9.6460
64.8371,9.7629
64.9540,9.8504
65.0692,9.8934
65.1260,9.9359
65.1508,10.0025
65.1357,10.0718
65.1178,10.0968
64.9743,10.2527
64.9743,10.2527
64.8511,10.4412
64.7607,10.6474
64.7607,10.6474
64.7054,10.8656
64.7054,10.8656
64.7054,10.8656
64.7008,10.9212
64.6868,11.0900
64.7054,11.3144
64.7117,11.3393
64.7091,11.4102
64.6787,11.4593
60.5334,15.6046
60.4711,15.6386
60.4443,15.6415
7.7557,15.6415
7.6875,15.6215
7.6666,15.6046
7.4120,15.3500
19.5420,15.3500
21.3500,15.3500
21.3500,14.8420
21.7500,14.8420
21.7500,15.3500
23.5580,15.3500
23.5580,15.3014
23.5580,15.3014
23.5515,15.2409
23.5004,15.1040
23.5004,15.1040
23.4129,14.9871
23.2960,14.8996
23.1591,14.8485
23.0986,14.8420
21.7500,14.8420
21.3500,14.8420
20.0014,14.8420
19.9409,14.8485
19.8040,14.8996
19.8040,14.8996
19.6871,14.9871
19.5996,15.1040
19.5996,15.1040
19.5485,15.2409
19.5420,15.3014
19.5420,15.3500
7.4120,15.3500
3.5213,11.4593
3.4873,11.3970
3.4882,11.3393
3.4946,11.3144
3.4946,11.3144
3.4946,11.3144
3.4946,11.3144
3.5132,11.0900
3.4946,10.8656
3.4393,10.6474
3.3489,10.4412
3.3421,10.4309
3.2257,10.2527
3.2257,10.2527
3.0822,10.0968
3.0507,10.0331
3.0587,9.9626
3.1036,9.9075
3.1308,9.8934
3.2460,9.8504
3.3629,9.7629
3.4504,9.6460
3.4504,9.6460
3.5015,9.5091
3.5080,9.4486
3.5080,9.4486
3.5080,8.8040
2.5811,8.8040
2.6095,8.7598
2.6500,8.6219
2.6500,8.4781
2.6095,8.3402
2.5811,8.2960
3.5080,8.2960
3.5080,7.6514
3.5080,7.6514
3.5015,7.5909
3.4504,7.4540
3.4504,7.4540
3.3629,7.3371
3.2460,7.2496
3.1091,7.1985
3.0486,7.1920
2.4040,7.1920
2.4040,8.1163
2.2923,8.0653
2.1858,8.0500
2.1142,8.0500
2.0077,8.0653
1.8960,8.1163
1.8960,7.1920
1.2514,7.1920
1.1909,7.1985
1.0540,7.2496
1.0540,7.2496
0.9371,7.3371
0.8496,7.4540
0.8496,7.4540
0.7958,7.5983
0.7938,7.5976
0.7640,7.6500
0.7011,7.6829
0.6304,7.6766
0.5743,7.6330
0.5507,7.5661
0.5505,7.5593
0.5505,0.6765
0.5705,0.6084
0.6242,0.5619
0.6765,0.5505
67.4235,0.5505
Z" /> 
</g>
</g>
</g>
<g style="fill:#000000; fill-opacity:1.0000; 
stroke:#000000; stroke-width:0.0000; stroke-opacity:1; 
stroke-linecap:round; stroke-linejoin:round;">
<circle cx="56.0500" cy="32.5500" r="0.2000" /> 
</g>
<g style="fill:#000000; fill-opacity:1.0000; 
stroke:#000000; stroke-width:0.0212; stroke-opacity:1; 
stroke-linecap:round; stroke-linejoin:round;">
</g>
<g style="fill:#000000; fill-opacity:1.0000; 
stroke:#000000; stroke-width:0.0000; stroke-opacity:1; 
stroke-linecap:round; stroke-linejoin:round;">
<circle cx="25.9500" cy="32.9500" r="0.2000" /> 
</g>
<g style="fill:#000000; fill-opacity:1.0000; 
stroke:#000000; stroke-width:0.0212; stroke-opacity:1; 
stroke-linecap:round; stroke-linejoin:round;">
</g>
<g style="fill:#000000; fill-opacity:1.0000; 
stroke:#000000; stroke-width:0.0000; stroke-opacity:1; 
stroke-linecap:round; stroke-linejoin:round;">
<circle cx="13.6500" cy="33.1500" r="0.2000" /> 
</g>
<g style="fill:#000000; fill-opacity:1.0000; 
stroke:#000000; stroke-width:0.0212; stroke-opacity:1; 
stroke-linecap:round; stroke-linejoin:round;">
</g>
<g style="fill:#000000; fill-opacity:1.0000; 
stroke:#000000; stroke-width:0.0000; stroke-opacity:1; 
stroke-linecap:round; stroke-linejoin:round;">
<circle cx="41.3500" cy="33.1500" r="0.2000" /> 
</g>
<g style="fill:#000000; fill-opacity:1.0000; 
stroke:#000000; stroke-width:0.0212; stroke-opacity:1; 
stroke-linecap:round; stroke-linejoin:round;">
</g>
<g style="fill:#000000; fill-opacity:1.0000; 
stroke:#000000; stroke-width:0.0000; stroke-opacity:1; 
stroke-linecap:round; stroke-linejoin:round;">
<circle cx="28.0500" cy="25.0500" r="0.2000" /> 
</g>
<g style="fill:#000000; fill-opacity:1.0000; 
stroke:#000000; stroke-width:0.0212; stroke-opacity:1; 
stroke-linecap:round; stroke-linejoin:round;">
</g>
<g style="fill:#000000; fill-opacity:1.0000; 
stroke:#000000; stroke-width:0.0000; stroke-opacity:1; 
stroke-linecap:round; stroke-linejoin:round;">
<circle cx="66.0500" cy="8.5500" r="0.5000" /> 
</g>
<g style="fill:#000000; fill-opacity:1.0000; 
stroke:#000000; stroke-width:0.0212; stroke-opacity:1; 
stroke-linecap:round; stroke-linejoin:round;">
</g>
<g style="fill:#000000; fill-opacity:1.0000; 
stroke:#000000; stroke-width:0.0000; stroke-opacity:1; 
stroke-linecap:round; stroke-linejoin:round;">
<circle cx="66.0500" cy="11.0900" r="0.5000" /> 
</g>
<g style="fill:#000000; fill-opacity:1.0000; 
stroke:#000000; stroke-width:0.0212; stroke-opacity:1; 
stroke-linecap:round; stroke-linejoin:round;">
</g>
<g style="fill:#000000; fill-opacity:1.0000; 
stroke:#000000; stroke-width:0.0000; stroke-opacity:1; 
stroke-linecap:round; stroke-linejoin:round;">
<circle cx="66.0500" cy="13.6300" r="0.5000" /> 
</g>
<g style="fill:#000000; fill-opacity:1.0000; 
stroke:#000000; stroke-width:0.0212; stroke-opacity:1; 
stroke-linecap:round; stroke-linejoin:round;">
</g>
<g style="fill:#000000; fill-opacity:1.0000; 
stroke:#000000; stroke-width:0.0000; stroke-opacity:1; 
stroke-linecap:round; stroke-linejoin:round;">
<circle cx="66.0500" cy="16.1700" r="0.5000" /> 
</g>
<g style="fill:#000000; fill-opacity:1.0000; 
stroke:#000000; stroke-width:0.0212; stroke-opacity:1; 
stroke-linecap:round; stroke-linejoin:round;">
</g>
<g style="fill:#000000; fill-opacity:1.0000; 
stroke:#000000; stroke-width:0.0000; stroke-opacity:1; 
stroke-linecap:round; stroke-linejoin:round;">
<circle cx="66.0500" cy="18.7100" r="0.5000" /> 
</g>
<g style="fill:#000000; fill-opacity:1.0000; 
stroke:#000000; stroke-width:0.0212; stroke-opacity:1; 
stroke-linecap:round; stroke-linejoin:round;">
</g>
<g style="fill:#000000; fill-opacity:1.0000; 
stroke:#000000; stroke-width:0.0000; stroke-opacity:1; 
stroke-linecap:round; stroke-linejoin:round;">
<circle cx="66.0500" cy="21.2500" r="0.5000" /> 
</g>
<g style="fill:#000000; fill-opacity:1.0000; 
stroke:#000000; stroke-width:0.0212; stroke-opacity:1; 
stroke-linecap:round; stroke-linejoin:round;">
</g>
<g style="fill:#000000; fill-opacity:1.0000; 
stroke:#000000; stroke-width:0.0000; stroke-opacity:1; 
stroke-linecap:round; stroke-linejoin:round;">
<circle cx="66.0500" cy="23.7900" r="0.5000" /> 
</g>
<g style="fill:#000000; fill-opacity:1.0000; 
stroke:#000000; stroke-width:0.0212; stroke-opacity:1; 
stroke-linecap:round; stroke-linejoin:round;">
</g>
<g style="fill:#000000; fill-opacity:1.0000; 
stroke:#000000; stroke-width:0.0000; stroke-opacity:1; 
stroke-linecap:round; stroke-linejoin:round;">
<circle cx="66.0500" cy="26.3300" r="0.5000" /> 
</g>
<g style="fill:#000000; fill-opacity:1.0000; 
stroke:#000000; stroke-width:0.0212; stroke-opacity:1; 
stroke-linecap:round; stroke-linejoin:round;">
</g>
<g style="fill:#000000; fill-opacity:1.0000; 
stroke:#000000; stroke-width:0.0000; stroke-opacity:1; 
stroke-linecap:round; stroke-linejoin:round;">
<circle cx="66.0500" cy="28.8700" r="0.5000" /> 
</g>
<g style="fill:#000000; fill-opacity:1.0000; 
stroke:#000000; stroke-width:0.0212; stroke-opacity:1; 
stroke-linecap:round; stroke-linejoin:round;">
</g>
<g style="fill:#000000; fill-opacity:1.0000; 
stroke:#000000; stroke-width:0.0000; stroke-opacity:1; 
stroke-linecap:round; stroke-linejoin:round;">
<circle cx="66.0500" cy="31.4100" r="0.5000" /> 
</g>
<g style="fill:#000000; fill-opacity:1.0000; 
stroke:#000000; stroke-width:0.0212; stroke-opacity:1; 
stroke-linecap:round; stroke-linejoin:round;">
</g>
<g style="fill:#000000; fill-opacity:1.0000; 
stroke:#000000; stroke-width:0.0000; stroke-opacity:1; 
stroke-linecap:round; stroke-linejoin:round;">
<circle cx="66.0500" cy="33.9500" r="0.5000" /> 
</g>
<g style="fill:#000000; fill-opacity:1.0000; 
stroke:#000000; stroke-width:0.0212; stroke-opacity:1; 
stroke-linecap:round; stroke-linejoin:round;">
</g>
<g style="fill:#000000; fill-opacity:1.0000; 
stroke:#000000; stroke-width:0.0000; stroke-opacity:1; 
stroke-linecap:round; stroke-linejoin:round;">
<circle cx="66.0500" cy="36.4900" r="0.5000" /> 
</g>
<g style="fill:#000000; fill-opacity:1.0000; 
stroke:#000000; stroke-width:0.0212; stroke-opacity:1; 
stroke-linecap:round; stroke-linejoin:round;">
</g>
<g style="fill:#000000; fill-opacity:1.0000; 
stroke:#000000; stroke-width:0.0000; stroke-opacity:1; 
stroke-linecap:round; stroke-linejoin:round;">
<circle cx="2.1500" cy="8.5500" r="0.5000" /> 
</g>
<g style="fill:#000000; fill-opacity:1.0000; 
stroke:#000000; stroke-width:0.0212; stroke-opacity:1; 
stroke-linecap:round; stroke-linejoin:round;">
</g>
<g style="fill:#000000; fill-opacity:1.0000; 
stroke:#000000; stroke-width:0.0000; stroke-opacity:1; 
stroke-linecap:round; stroke-linejoin:round;">
<circle cx="2.1500" cy="11.0900" r="0.5000" /> 
</g>
<g style="fill:#000000; fill-opacity:1.0000; 
stroke:#000000; stroke-width:0.0212; stroke-opacity:1; 
stroke-linecap:round; stroke-linejoin:round;">
</g>
<g style="fill:#000000; fill-opacity:1.0000; 
stroke:#000000; stroke-width:0.0000; stroke-opacity:1; 
stroke-linecap:round; stroke-linejoin:round;">
<circle cx="2.1500" cy="13.6300" r="0.5000" /> 
</g>
<g style="fill:#000000; fill-opacity:1.0000; 
stroke:#000000; stroke-width:0.0212; stroke-opacity:1; 
stroke-linecap:round; stroke-linejoin:round;">
</g>
<g style="fill:#000000; fill-opacity:1.0000; 
stroke:#000000; stroke-width:0.0000; stroke-opacity:1; 
stroke-linecap:round; stroke-linejoin:round;">
<circle cx="2.1500" cy="16.1700" r="0.5000" /> 
</g>
<g style="fill:#000000; fill-opacity:1.0000; 
stroke:#000000; stroke-width:0.0212; stroke-opacity:1; 
stroke-linecap:round; stroke-linejoin:round;">
</g>
<g style="fill:#000000; fill-opacity:1.0000; 
stroke:#000000; stroke-width:0.0000; stroke-opacity:1; 
stroke-linecap:round; stroke-linejoin:round;">
<circle cx="2.1500" cy="18.7100" r="0.5000" /> 
</g>
<g style="fill:#000000; fill-opacity:1.0000; 
stroke:#000000; stroke-width:0.0212; stroke-opacity:1; 
stroke-linecap:round; stroke-linejoin:round;">
</g>
<g style="fill:#000000; fill-opacity:1.0000; 
stroke:#000000; stroke-width:0.0000; stroke-opacity:1; 
stroke-linecap:round; stroke-linejoin:round;">
<circle cx="2.1500" cy="21.2500" r="0.5000" /> 
</g>
<g style="fill:#000000; fill-opacity:1.0000; 
stroke:#000000; stroke-width:0.0212; stroke-opacity:1; 
stroke-linecap:round; stroke-linejoin:round;">
</g>
<g style="fill:#000000; fill-opacity:1.0000; 
stroke:#000000; stroke-width:0.0000; stroke-opacity:1; 
stroke-linecap:round; stroke-linejoin:round;">
<circle cx="2.1500" cy="23.7900" r="0.5000" /> 
</g>
<g style="fill:#000000; fill-opacity:1.0000; 
stroke:#000000; stroke-width:0.0212; stroke-opacity:1; 
stroke-linecap:round; stroke-linejoin:round;">
</g>
<g style="fill:#000000; fill-opacity:1.0000; 
stroke:#000000; stroke-width:0.0000; stroke-opacity:1; 
stroke-linecap:round; stroke-linejoin:round;">
<circle cx="2.1500" cy="26.3300" r="0.5000" /> 
</g>
<g style="fill:#000000; fill-opacity:1.0000; 
stroke:#000000; stroke-width:0.0212; stroke-opacity:1; 
stroke-linecap:round; stroke-linejoin:round;">
</g>
<g style="fill:#000000; fill-opacity:1.0000; 
stroke:#000000; stroke-width:0.0000; stroke-opacity:1; 
stroke-linecap:round; stroke-linejoin:round;">
<circle cx="2.1500" cy="28.8700" r="0.5000" /> 
</g>
<g style="fill:#000000; fill-opacity:1.0000; 
stroke:#000000; stroke-width:0.0212; stroke-opacity:1; 
stroke-linecap:round; stroke-linejoin:round;">
</g>
<g style="fill:#000000; fill-opacity:1.0000; 
stroke:#000000; stroke-width:0.0000; stroke-opacity:1; 
stroke-linecap:round; stroke-linejoin:round;">
<circle cx="2.1500" cy="31.4100" r="0.5000" /> 
</g>
<g style="fill:#000000; fill-opacity:1.0000; 
stroke:#000000; stroke-width:0.0212; stroke-opacity:1; 
stroke-linecap:round; stroke-linejoin:round;">
</g>
<g style="fill:#000000; fill-opacity:1.0000; 
stroke:#000000; stroke-width:0.0000; stroke-opacity:1; 
stroke-linecap:round; stroke-linejoin:round;">
<circle cx="2.1500" cy="33.9500" r="0.5000" /> 
</g>
<g style="fill:#000000; fill-opacity:1.0000; 
stroke:#000000; stroke-width:0.0212; stroke-opacity:1; 
stroke-linecap:round; stroke-linejoin:round;">
</g>
<g style="fill:#000000; fill-opacity:1.0000; 
stroke:#000000; stroke-width:0.0000; stroke-opacity:1; 
stroke-linecap:round; stroke-linejoin:round;">
<circle cx="2.1500" cy="36.4900" r="0.5000" /> 
</g>
<g style="fill:#000000; fill-opacity:1.0000; 
stroke:#000000; stroke-width:0.0212; stroke-opacity:1; 
stroke-linecap:round; stroke-linejoin:round;">
</g>
<g style="fill:#FFFFFF; fill-opacity:1.0000; 
stroke:#FFFFFF; stroke-width:0.0212; stroke-opacity:1; 
stroke-linecap:round; stroke-linejoin:round;">
</g>
<g style="fill:#2F2D31; fill-opacity:1.0000; 
stroke:#2F2D31; stroke-width:0.0212; stroke-opacity:1; 
stroke-linecap:round; stroke-linejoin:round;">
</g>
<g style="fill:#2F2D31; fill-opacity:1.0000; 
stroke:#2F2D31; stroke-width:0.1000; stroke-opacity:1; 
stroke-linecap:round; stroke-linejoin:round;">
</g>
<g style="fill:#2F2D31; fill-opacity:0.0; 
stroke:#2F2D31; stroke-width:0.1000; stroke-opacity:1; 
stroke-linecap:round; stroke-linejoin:round;">
<path d="M0.0500 45.0500
L68.0500 45.0500
" />
<path d="M68.0500 0.0500
L68.0500 45.0500
" />
<path d="M0.0500 0.0500
L68.0500 0.0500
" />
<path d="M0.0500 0.0500
L0.0500 45.0500
" />
<g >
</g>
<g >
</g>
<g >
</g>
<g >
</g>
<g >
</g>
<g >
</g>
<g >
</g>
<g >
</g>
<g >
</g>
<g >
</g>
</g> 
</svg>
