<?xml version="1.0" standalone="no"?>
 <!DOCTYPE svg PUBLIC "-//W3C//DTD SVG 1.1//EN" 
 "http://www.w3.org/Graphics/SVG/1.1/DTD/svg11.dtd"> 
<svg
  xmlns:svg="http://www.w3.org/2000/svg"
  xmlns="http://www.w3.org/2000/svg"
  xmlns:xlink="http://www.w3.org/1999/xlink"
  version="1.1"
  width="12.7762mm" height="20.4216mm" viewBox="0.0000 0.0000 12.7762 20.4216">
<title>SVG Image created as _autosave-working-brd.svg date 2023/09/26 14:49:35 </title>
  <desc>Image generated by PCBNEW </desc>
<g style="fill:#000000; fill-opacity:1.0000;stroke:#000000; stroke-opacity:1.0000;
stroke-linecap:round; stroke-linejoin:round;"
 transform="translate(0 0) scale(1 1)">
</g>
<g style="fill:#000000; fill-opacity:0.0; 
stroke:#000000; stroke-width:0.0000; stroke-opacity:1; 
stroke-linecap:round; stroke-linejoin:round;">
</g>
<g style="fill:#000000; fill-opacity:1.0000; 
stroke:#000000; stroke-width:0.0212; stroke-opacity:1; 
stroke-linecap:round; stroke-linejoin:round;">
<rect x="-5.000000" y="-5.000000" width="22.792858" height="30.426422" rx="0.000000" />
</g>
<g style="fill:#FFFFFF; fill-opacity:1.0000; 
stroke:#FFFFFF; stroke-width:0.0212; stroke-opacity:1; 
stroke-linecap:round; stroke-linejoin:round;">
<g >
</g>
<g style="fill:#B2803A; fill-opacity:1.0000; 
stroke:#B2803A; stroke-width:0.0212; stroke-opacity:1; 
stroke-linecap:round; stroke-linejoin:round;">
</g>
<g style="fill:#B2803A; fill-opacity:1.0000; 
stroke:#B2803A; stroke-width:0.0000; stroke-opacity:1; 
stroke-linecap:round; stroke-linejoin:round;">
<path style="fill:#B2803A; fill-opacity:1.0000; 
stroke:#B2803A; stroke-width:0.0000; stroke-opacity:1; 
stroke-linecap:round; stroke-linejoin:round;fill-rule:evenodd;"
d="M 4.0463,7.1570
4.0463,5.6330
5.5703,5.6330
5.5703,7.1570
Z" /> 
<circle cx="4.8083" cy="8.3950" r="0.7620" /> 
</g>
<g style="fill:#B2803A; fill-opacity:1.0000; 
stroke:#B2803A; stroke-width:0.0212; stroke-opacity:1; 
stroke-linecap:round; stroke-linejoin:round;">
</g>
<g style="fill:#B2803A; fill-opacity:1.0000; 
stroke:#B2803A; stroke-width:0.0000; stroke-opacity:1; 
stroke-linecap:round; stroke-linejoin:round;">
<circle cx="4.8083" cy="10.3950" r="0.7620" /> 
</g>
<g style="fill:#B2803A; fill-opacity:1.0000; 
stroke:#B2803A; stroke-width:0.0212; stroke-opacity:1; 
stroke-linecap:round; stroke-linejoin:round;">
</g>
<g style="fill:#B2803A; fill-opacity:1.0000; 
stroke:#B2803A; stroke-width:0.0000; stroke-opacity:1; 
stroke-linecap:round; stroke-linejoin:round;">
<circle cx="4.8083" cy="12.3950" r="0.7620" /> 
</g>
<g style="fill:#B2803A; fill-opacity:1.0000; 
stroke:#B2803A; stroke-width:0.0212; stroke-opacity:1; 
stroke-linecap:round; stroke-linejoin:round;">
</g>
<g >
</g>
<g >
</g>
<g style="fill:#B2803A; fill-opacity:1.0000; 
stroke:#B2803A; stroke-width:0.0212; stroke-opacity:1; 
stroke-linecap:round; stroke-linejoin:round;">
</g>
<g style="fill:#B2803A; fill-opacity:1.0000; 
stroke:#B2803A; stroke-width:0.0000; stroke-opacity:1; 
stroke-linecap:round; stroke-linejoin:round;">
<path style="fill:#B2803A; fill-opacity:1.0000; 
stroke:#B2803A; stroke-width:0.0000; stroke-opacity:1; 
stroke-linecap:round; stroke-linejoin:round;fill-rule:evenodd;"
d="M 2.3283,0.9750
4.0283,0.9750
4.0283,2.6750
2.3283,2.6750
Z" /> 
<circle cx="5.7183" cy="1.8250" r="0.8500" /> 
</g>
<g >
</g>
<g style="fill:#B2803A; fill-opacity:1.0000; 
stroke:#B2803A; stroke-width:0.0000; stroke-opacity:1; 
stroke-linecap:round; stroke-linejoin:round;">
<circle cx="5.7083" cy="17.0650" r="0.8500" /> 
</g>
<g style="fill:#B2803A; fill-opacity:1.0000; 
stroke:#B2803A; stroke-width:0.0212; stroke-opacity:1; 
stroke-linecap:round; stroke-linejoin:round;">
</g>
<g style="fill:#B2803A; fill-opacity:1.0000; 
stroke:#B2803A; stroke-width:0.0000; stroke-opacity:1; 
stroke-linecap:round; stroke-linejoin:round;">
<circle cx="3.1683" cy="17.0650" r="0.8500" /> 
</g>
<g >
</g>
<g style="fill:#B2803A; fill-opacity:1.0000; 
stroke:#B2803A; stroke-width:0.0000; stroke-opacity:1; 
stroke-linecap:round; stroke-linejoin:round;">
<circle cx="3.1583" cy="12.9200" r="0.2500" /> 
</g>
<g style="fill:#B2803A; fill-opacity:1.0000; 
stroke:#B2803A; stroke-width:0.0212; stroke-opacity:1; 
stroke-linecap:round; stroke-linejoin:round;">
</g>
<g >
</g>
<g >
</g>
<g >
</g>
<g style="fill:#B2803A; fill-opacity:1.0000; 
stroke:#B2803A; stroke-width:0.0212; stroke-opacity:1; 
stroke-linecap:round; stroke-linejoin:round;">
<g >
</g>
<g style="fill:#B2803A; fill-opacity:1.0000; 
stroke:#B2803A; stroke-width:0.0000; stroke-opacity:1; 
stroke-linecap:round; stroke-linejoin:round;">
<path style="fill:#B2803A; fill-opacity:1.0000; 
stroke:#B2803A; stroke-width:0.0000; stroke-opacity:1; 
stroke-linecap:round; stroke-linejoin:round;fill-rule:evenodd;"
d="M 4.7018,2.7364
4.7341,2.7616
4.7721,2.8029
4.7951,2.8279
4.8497,2.8704
4.9728,2.9662
5.1708,3.0733
5.1708,3.0733
5.1708,3.0733
5.2784,3.1103
5.3837,3.1464
5.6058,3.1835
5.6058,3.1835
5.8309,3.1835
5.8309,3.1835
6.0530,3.1464
6.2659,3.0733
6.3219,3.0431
6.3913,3.0282
6.4577,3.0533
6.5001,3.1103
6.5078,3.1539
6.5078,15.7415
6.4878,15.8097
6.4342,15.8562
6.3639,15.8663
6.3219,15.8524
6.3178,15.8502
6.2559,15.8167
6.2559,15.8167
6.2559,15.8167
6.0430,15.7436
6.0430,15.7436
5.9654,15.7306
5.8209,15.7065
5.5958,15.7065
5.4513,15.7306
5.3737,15.7436
5.3737,15.7436
5.1608,15.8167
5.1608,15.8167
4.9628,15.9238
4.9628,15.9238
4.7851,16.0621
4.6326,16.2277
4.5435,16.3641
4.4895,16.4102
4.4192,16.4198
4.3548,16.3898
4.3325,16.3641
4.2437,16.2280
4.0912,16.0625
3.9136,15.9242
3.9136,15.9242
3.7157,15.8171
3.7157,15.8171
3.5028,15.7440
3.5028,15.7440
3.4223,15.7306
3.4223,16.6313
3.3106,16.5803
3.2041,16.5650
3.1326,16.5650
3.0260,16.5803
2.9143,16.6313
2.9143,15.7306
2.9143,15.7306
2.8338,15.7440
2.8338,15.7440
2.6210,15.8171
2.6210,15.8171
2.5948,15.8313
2.5254,15.8461
2.4589,15.8210
2.4166,15.7640
2.4088,15.7205
2.4088,12.9857
2.4277,12.9213
2.6372,12.9213
2.6557,12.9502
2.6595,12.9677
2.6732,13.0625
2.7330,13.1934
2.7330,13.1934
2.8272,13.3021
2.8877,13.3410
2.9483,13.3800
3.0864,13.4205
3.2303,13.4205
3.3684,13.3800
3.4895,13.3021
3.5837,13.1934
3.5960,13.1664
3.6425,13.1128
3.7106,13.0928
3.7216,13.0932
3.7485,13.0956
4.4239,12.4202
4.4234,12.4269
4.4546,12.5502
4.5241,12.6566
4.6245,12.7347
4.7448,12.7760
4.7865,12.7760
4.1077,13.4548
4.1077,13.4548
4.1709,13.4991
4.1709,13.4991
4.3723,13.5930
4.3723,13.5930
4.5870,13.6505
4.8083,13.6698
5.0297,13.6505
5.2444,13.5930
5.2444,13.5930
5.4458,13.4991
5.4458,13.4991
5.5089,13.4548
5.5089,13.4548
4.8301,12.7760
4.8399,12.7760
4.9338,12.7603
5.0456,12.6998
5.1317,12.6063
5.1828,12.4898
5.1889,12.4163
5.8681,13.0956
5.8681,13.0956
5.9124,13.0324
5.9124,13.0324
6.0063,12.8310
6.0063,12.8310
6.0638,12.6164
6.0832,12.3950
6.0638,12.1736
6.0063,11.9590
6.0063,11.9590
5.9124,11.7576
5.8681,11.6944
5.8681,11.6944
5.1927,12.3698
5.1933,12.3631
5.1621,12.2398
5.0925,12.1334
4.9922,12.0553
4.8719,12.0140
4.8301,12.0140
5.2403,11.6038
5.2762,11.5787
5.4460,11.4995
5.6281,11.3720
5.7853,11.2148
5.9128,11.0327
6.0068,10.8312
6.0643,10.6165
6.0837,10.3950
6.0643,10.1735
6.0068,9.9588
5.9128,9.7573
5.7853,9.5752
5.6942,9.4841
5.6602,9.4218
5.6652,9.3510
5.6942,9.3059
5.6942,9.3059
5.7853,9.2148
5.9128,9.0327
6.0068,8.8312
6.0643,8.6165
6.0837,8.3950
6.0643,8.1735
6.0068,7.9588
5.9128,7.7573
5.8811,7.7120
5.8584,7.6447
5.8757,7.5758
5.9088,7.5388
5.9336,7.5203
6.0212,7.4032
6.0723,7.2662
6.0788,7.2056
6.0788,5.5844
6.0788,5.5843
6.0723,5.5238
6.0723,5.5238
6.0212,5.3868
6.0212,5.3868
5.9336,5.2697
5.8165,5.1821
5.8165,5.1821
5.6795,5.1310
5.6795,5.1310
5.6190,5.1245
5.6190,5.1245
3.9977,5.1245
3.9977,5.1245
3.9371,5.1310
3.9371,5.1310
3.8001,5.1821
3.8001,5.1821
3.6831,5.2697
3.5954,5.3868
3.5954,5.3868
3.5443,5.5238
3.5443,5.5238
3.5378,5.5843
3.5378,7.2056
3.5443,7.2662
3.5443,7.2662
3.5954,7.4032
3.5954,7.4032
3.6831,7.5203
3.7079,7.5388
3.7504,7.5957
3.7555,7.6665
3.7356,7.7120
3.7038,7.7573
3.6099,7.9588
3.6099,7.9588
3.5524,8.1735
3.5330,8.3950
3.5524,8.6165
3.5986,8.7891
3.6099,8.8312
3.6099,8.8312
3.7038,9.0327
3.7038,9.0327
3.8313,9.2148
3.8314,9.2148
3.8314,9.2148
3.9225,9.3059
3.9225,9.3059
3.9565,9.3682
3.9514,9.4390
3.9225,9.4841
3.8314,9.5752
3.7038,9.7573
3.7038,9.7573
3.6099,9.9588
3.5524,10.1735
3.5330,10.3950
3.5524,10.6165
3.5986,10.7891
3.6099,10.8312
3.6099,10.8312
3.7038,11.0327
3.7038,11.0327
3.8313,11.2148
3.8314,11.2148
3.8314,11.2148
3.9886,11.3720
3.9886,11.3720
3.9886,11.3720
4.0925,11.4447
4.1707,11.4995
4.3405,11.5787
4.3763,11.6038
4.7865,12.0140
4.7768,12.0140
4.6829,12.0297
4.5711,12.0902
4.4850,12.1837
4.4339,12.3002
4.4278,12.3737
3.7485,11.6944
3.7043,11.7576
3.6104,11.9590
3.6104,11.9590
3.5528,12.1736
3.5528,12.1736
3.5372,12.3524
3.5113,12.4185
3.4538,12.4602
3.3830,12.4641
3.3762,12.4623
3.2555,12.4269
3.2303,12.4195
3.0864,12.4195
2.9483,12.4600
2.8272,12.5379
2.7330,12.6466
2.6732,12.7775
2.6596,12.8723
2.6372,12.9213
2.4277,12.9213
2.4288,12.9176
2.4302,12.9163
2.4101,12.8723
2.4088,12.8543
2.4088,3.3095
2.4288,3.2414
2.4825,3.1949
2.5348,3.1835
4.0770,3.1835
4.0770,3.1835
4.0770,3.1835
4.0770,3.1835
4.1375,3.1770
4.1375,3.1770
4.1375,3.1770
4.2745,3.1259
4.3447,3.0733
4.3916,3.0383
4.4792,2.9212
4.4792,2.9212
4.4792,2.9212
4.5233,2.8029
4.5659,2.7461
4.6324,2.7213
Z" /> 
</g>
</g>
</g>
<g style="fill:#000000; fill-opacity:1.0000; 
stroke:#000000; stroke-width:0.0000; stroke-opacity:1; 
stroke-linecap:round; stroke-linejoin:round;">
<circle cx="4.8083" cy="6.3950" r="0.3810" /> 
</g>
<g style="fill:#000000; fill-opacity:1.0000; 
stroke:#000000; stroke-width:0.0212; stroke-opacity:1; 
stroke-linecap:round; stroke-linejoin:round;">
</g>
<g style="fill:#000000; fill-opacity:1.0000; 
stroke:#000000; stroke-width:0.0000; stroke-opacity:1; 
stroke-linecap:round; stroke-linejoin:round;">
<circle cx="4.8083" cy="8.3950" r="0.3810" /> 
</g>
<g style="fill:#000000; fill-opacity:1.0000; 
stroke:#000000; stroke-width:0.0212; stroke-opacity:1; 
stroke-linecap:round; stroke-linejoin:round;">
</g>
<g style="fill:#000000; fill-opacity:1.0000; 
stroke:#000000; stroke-width:0.0000; stroke-opacity:1; 
stroke-linecap:round; stroke-linejoin:round;">
<circle cx="4.8083" cy="10.3950" r="0.3810" /> 
</g>
<g style="fill:#000000; fill-opacity:1.0000; 
stroke:#000000; stroke-width:0.0212; stroke-opacity:1; 
stroke-linecap:round; stroke-linejoin:round;">
</g>
<g style="fill:#000000; fill-opacity:1.0000; 
stroke:#000000; stroke-width:0.0000; stroke-opacity:1; 
stroke-linecap:round; stroke-linejoin:round;">
<circle cx="4.8083" cy="12.3950" r="0.3810" /> 
</g>
<g style="fill:#000000; fill-opacity:1.0000; 
stroke:#000000; stroke-width:0.0212; stroke-opacity:1; 
stroke-linecap:round; stroke-linejoin:round;">
</g>
<g style="fill:#000000; fill-opacity:1.0000; 
stroke:#000000; stroke-width:0.0000; stroke-opacity:1; 
stroke-linecap:round; stroke-linejoin:round;">
<circle cx="3.1783" cy="1.8250" r="0.5000" /> 
</g>
<g style="fill:#000000; fill-opacity:1.0000; 
stroke:#000000; stroke-width:0.0212; stroke-opacity:1; 
stroke-linecap:round; stroke-linejoin:round;">
</g>
<g style="fill:#000000; fill-opacity:1.0000; 
stroke:#000000; stroke-width:0.0000; stroke-opacity:1; 
stroke-linecap:round; stroke-linejoin:round;">
<circle cx="5.7183" cy="1.8250" r="0.5000" /> 
</g>
<g style="fill:#000000; fill-opacity:1.0000; 
stroke:#000000; stroke-width:0.0212; stroke-opacity:1; 
stroke-linecap:round; stroke-linejoin:round;">
</g>
<g style="fill:#000000; fill-opacity:1.0000; 
stroke:#000000; stroke-width:0.0000; stroke-opacity:1; 
stroke-linecap:round; stroke-linejoin:round;">
<circle cx="5.7083" cy="17.0650" r="0.5000" /> 
</g>
<g style="fill:#000000; fill-opacity:1.0000; 
stroke:#000000; stroke-width:0.0212; stroke-opacity:1; 
stroke-linecap:round; stroke-linejoin:round;">
</g>
<g style="fill:#000000; fill-opacity:1.0000; 
stroke:#000000; stroke-width:0.0000; stroke-opacity:1; 
stroke-linecap:round; stroke-linejoin:round;">
<circle cx="3.1683" cy="17.0650" r="0.5000" /> 
</g>
<g style="fill:#000000; fill-opacity:1.0000; 
stroke:#000000; stroke-width:0.0212; stroke-opacity:1; 
stroke-linecap:round; stroke-linejoin:round;">
</g>
<g style="fill:#FFFFFF; fill-opacity:1.0000; 
stroke:#FFFFFF; stroke-width:0.0212; stroke-opacity:1; 
stroke-linecap:round; stroke-linejoin:round;">
<g >
</g>
<g style="fill:#37CBCB; fill-opacity:1.0000; 
stroke:#37CBCB; stroke-width:0.0212; stroke-opacity:1; 
stroke-linecap:round; stroke-linejoin:round;">
</g>
<g style="fill:#37CBCB; fill-opacity:1.0000; 
stroke:#37CBCB; stroke-width:0.0000; stroke-opacity:1; 
stroke-linecap:round; stroke-linejoin:round;">
<path style="fill:#37CBCB; fill-opacity:1.0000; 
stroke:#37CBCB; stroke-width:0.0000; stroke-opacity:1; 
stroke-linecap:round; stroke-linejoin:round;fill-rule:evenodd;"
d="M 4.0463,7.1570
4.0463,5.6330
5.5703,5.6330
5.5703,7.1570
Z" /> 
<circle cx="4.8083" cy="8.3950" r="0.7620" /> 
</g>
<g style="fill:#37CBCB; fill-opacity:1.0000; 
stroke:#37CBCB; stroke-width:0.0212; stroke-opacity:1; 
stroke-linecap:round; stroke-linejoin:round;">
</g>
<g style="fill:#37CBCB; fill-opacity:1.0000; 
stroke:#37CBCB; stroke-width:0.0000; stroke-opacity:1; 
stroke-linecap:round; stroke-linejoin:round;">
<circle cx="4.8083" cy="10.3950" r="0.7620" /> 
</g>
<g style="fill:#37CBCB; fill-opacity:1.0000; 
stroke:#37CBCB; stroke-width:0.0212; stroke-opacity:1; 
stroke-linecap:round; stroke-linejoin:round;">
</g>
<g style="fill:#37CBCB; fill-opacity:1.0000; 
stroke:#37CBCB; stroke-width:0.0000; stroke-opacity:1; 
stroke-linecap:round; stroke-linejoin:round;">
<circle cx="4.8083" cy="12.3950" r="0.7620" /> 
</g>
<g style="fill:#37CBCB; fill-opacity:1.0000; 
stroke:#37CBCB; stroke-width:0.0212; stroke-opacity:1; 
stroke-linecap:round; stroke-linejoin:round;">
</g>
<g >
</g>
<g style="fill:#37CBCB; fill-opacity:1.0000; 
stroke:#37CBCB; stroke-width:0.0212; stroke-opacity:1; 
stroke-linecap:round; stroke-linejoin:round;">
</g>
<g style="fill:#37CBCB; fill-opacity:1.0000; 
stroke:#37CBCB; stroke-width:0.0000; stroke-opacity:1; 
stroke-linecap:round; stroke-linejoin:round;">
<circle cx="4.6083" cy="4.8700" r="0.2500" /> 
</g>
<g style="fill:#37CBCB; fill-opacity:1.0000; 
stroke:#37CBCB; stroke-width:0.0212; stroke-opacity:1; 
stroke-linecap:round; stroke-linejoin:round;">
</g>
<g >
</g>
<g style="fill:#37CBCB; fill-opacity:1.0000; 
stroke:#37CBCB; stroke-width:0.0212; stroke-opacity:1; 
stroke-linecap:round; stroke-linejoin:round;">
</g>
<g style="fill:#37CBCB; fill-opacity:1.0000; 
stroke:#37CBCB; stroke-width:0.0000; stroke-opacity:1; 
stroke-linecap:round; stroke-linejoin:round;">
<path style="fill:#37CBCB; fill-opacity:1.0000; 
stroke:#37CBCB; stroke-width:0.0000; stroke-opacity:1; 
stroke-linecap:round; stroke-linejoin:round;fill-rule:evenodd;"
d="M 2.3283,0.9750
4.0283,0.9750
4.0283,2.6750
2.3283,2.6750
Z" /> 
<circle cx="5.7183" cy="1.8250" r="0.8500" /> 
</g>
<g >
</g>
<g style="fill:#37CBCB; fill-opacity:1.0000; 
stroke:#37CBCB; stroke-width:0.0000; stroke-opacity:1; 
stroke-linecap:round; stroke-linejoin:round;">
<circle cx="5.7083" cy="17.0650" r="0.8500" /> 
</g>
<g style="fill:#37CBCB; fill-opacity:1.0000; 
stroke:#37CBCB; stroke-width:0.0212; stroke-opacity:1; 
stroke-linecap:round; stroke-linejoin:round;">
</g>
<g style="fill:#37CBCB; fill-opacity:1.0000; 
stroke:#37CBCB; stroke-width:0.0000; stroke-opacity:1; 
stroke-linecap:round; stroke-linejoin:round;">
<circle cx="3.1683" cy="17.0650" r="0.8500" /> 
</g>
<g >
</g>
<g >
</g>
<g >
</g>
<g style="fill:#37CBCB; fill-opacity:1.0000; 
stroke:#37CBCB; stroke-width:0.0000; stroke-opacity:1; 
stroke-linecap:round; stroke-linejoin:round;">
</g>
<g style="fill:#37CBCB; fill-opacity:1.0000; 
stroke:#37CBCB; stroke-width:0.2500; stroke-opacity:1; 
stroke-linecap:round; stroke-linejoin:round;">
</g>
<g style="fill:#37CBCB; fill-opacity:0.0; 
stroke:#37CBCB; stroke-width:0.2500; stroke-opacity:1; 
stroke-linecap:round; stroke-linejoin:round;">
<path d="M4.8083 15.4250
L3.1683 17.0650
" />
<path d="M4.8083 12.3950
L4.8083 15.4250
" />
<path d="M4.8083 10.3950
L5.8953 11.4820
" />
<path d="M5.8953 11.4820
L5.8953 16.8780
" />
<path d="M5.8953 16.8780
L5.7083 17.0650
" />
<path d="M6.5583 2.6750
L5.7083 1.8250
" />
<path d="M6.5583 6.6450
L6.5583 2.6750
" />
<path d="M4.8083 8.3950
L6.5583 6.6450
" />
<path d="M3.1683 4.7550
L4.8083 6.3950
" />
<path d="M3.1683 1.8350
L3.1783 1.8250
" />
<path d="M3.1683 4.7550
L3.1683 1.8350
" />
</g>
<g >
</g>
<g style="fill:#37CBCB; fill-opacity:0.0; 
stroke:#37CBCB; stroke-width:0.2500; stroke-opacity:1; 
stroke-linecap:round; stroke-linejoin:round;">
<g >
</g>
<g style="fill:#37CBCB; fill-opacity:1.0000; 
stroke:#37CBCB; stroke-width:0.0000; stroke-opacity:1; 
stroke-linecap:round; stroke-linejoin:round;">
<path style="fill:#37CBCB; fill-opacity:1.0000; 
stroke:#37CBCB; stroke-width:0.0000; stroke-opacity:1; 
stroke-linecap:round; stroke-linejoin:round;fill-rule:evenodd;"
d="M 2.6173,5.0806
2.6433,5.1117
2.6638,5.1464
2.6638,5.1464
2.6781,5.1607
2.6909,5.1757
2.6956,5.1821
2.7029,5.1921
2.7311,5.2155
2.7392,5.2222
2.7436,5.2262
3.5009,5.9835
3.5350,6.0458
3.5378,6.0726
3.5378,7.2056
3.5443,7.2662
3.5443,7.2662
3.5954,7.4032
3.5954,7.4032
3.6831,7.5203
3.7079,7.5388
3.7504,7.5957
3.7555,7.6665
3.7356,7.7120
3.7038,7.7573
3.6394,7.8956
3.6099,7.9588
3.5524,8.1735
3.5330,8.3950
3.5524,8.6165
3.5986,8.7891
3.6099,8.8312
3.6099,8.8312
3.7038,9.0327
3.7038,9.0327
3.8313,9.2148
3.8314,9.2148
3.8314,9.2148
3.9225,9.3059
3.9225,9.3059
3.9565,9.3682
3.9514,9.4390
3.9225,9.4841
3.8314,9.5752
3.7038,9.7573
3.7038,9.7573
3.6099,9.9588
3.5524,10.1735
3.5330,10.3950
3.5524,10.6165
3.5816,10.7258
3.6099,10.8312
3.6099,10.8312
3.7038,11.0327
3.7038,11.0327
3.8313,11.2148
3.8314,11.2148
3.8314,11.2148
3.9886,11.3720
3.9886,11.3720
3.9886,11.3720
4.0925,11.4447
4.1707,11.4995
4.3405,11.5787
4.3763,11.6038
4.7865,12.0140
4.7768,12.0140
4.6829,12.0297
4.5711,12.0902
4.4850,12.1837
4.4339,12.3002
4.4278,12.3737
3.7485,11.6944
3.7043,11.7576
3.6104,11.9590
3.6104,11.9590
3.5528,12.1736
3.5335,12.3950
3.5528,12.6164
3.6104,12.8310
3.6104,12.8310
3.7043,13.0324
3.7485,13.0956
3.7485,13.0956
4.4239,12.4202
4.4234,12.4269
4.4546,12.5502
4.5241,12.6566
4.6245,12.7347
4.7448,12.7760
4.7865,12.7760
4.1077,13.4548
4.1077,13.4548
4.1709,13.4991
4.1709,13.4991
4.3723,13.5930
4.3723,13.5930
4.5870,13.6505
4.8083,13.6698
5.0297,13.6505
5.1032,13.6308
5.1742,13.6325
5.2330,13.6723
5.2609,13.7375
5.2618,13.7525
5.2618,15.6920
5.2418,15.7601
5.1882,15.8066
5.1767,15.8112
5.1608,15.8167
5.1608,15.8167
4.9628,15.9238
4.9628,15.9238
4.7851,16.0621
4.6326,16.2277
4.5435,16.3641
4.4895,16.4102
4.4192,16.4198
4.3548,16.3898
4.3325,16.3641
4.2437,16.2280
4.0912,16.0625
3.9136,15.9242
3.9136,15.9242
3.7157,15.8171
3.7157,15.8171
3.5028,15.7440
3.5028,15.7440
3.4223,15.7306
3.4223,16.6313
3.3106,16.5803
3.2041,16.5650
3.1326,16.5650
3.0260,16.5803
2.9143,16.6313
2.9143,15.7306
2.9143,15.7306
2.8338,15.7440
2.8338,15.7440
2.6210,15.8171
2.6210,15.8171
2.5948,15.8313
2.5254,15.8461
2.4589,15.8210
2.4166,15.7640
2.4088,15.7205
2.4088,5.1758
2.4288,5.1077
2.4825,5.0612
2.5528,5.0511
Z" /> 
</g>
</g>
</g>
<g style="fill:#000000; fill-opacity:1.0000; 
stroke:#000000; stroke-width:0.0000; stroke-opacity:1; 
stroke-linecap:round; stroke-linejoin:round;">
<circle cx="4.8083" cy="6.3950" r="0.3810" /> 
</g>
<g style="fill:#000000; fill-opacity:1.0000; 
stroke:#000000; stroke-width:0.0212; stroke-opacity:1; 
stroke-linecap:round; stroke-linejoin:round;">
</g>
<g style="fill:#000000; fill-opacity:1.0000; 
stroke:#000000; stroke-width:0.0000; stroke-opacity:1; 
stroke-linecap:round; stroke-linejoin:round;">
<circle cx="4.8083" cy="8.3950" r="0.3810" /> 
</g>
<g style="fill:#000000; fill-opacity:1.0000; 
stroke:#000000; stroke-width:0.0212; stroke-opacity:1; 
stroke-linecap:round; stroke-linejoin:round;">
</g>
<g style="fill:#000000; fill-opacity:1.0000; 
stroke:#000000; stroke-width:0.0000; stroke-opacity:1; 
stroke-linecap:round; stroke-linejoin:round;">
<circle cx="4.8083" cy="10.3950" r="0.3810" /> 
</g>
<g style="fill:#000000; fill-opacity:1.0000; 
stroke:#000000; stroke-width:0.0212; stroke-opacity:1; 
stroke-linecap:round; stroke-linejoin:round;">
</g>
<g style="fill:#000000; fill-opacity:1.0000; 
stroke:#000000; stroke-width:0.0000; stroke-opacity:1; 
stroke-linecap:round; stroke-linejoin:round;">
<circle cx="4.8083" cy="12.3950" r="0.3810" /> 
</g>
<g style="fill:#000000; fill-opacity:1.0000; 
stroke:#000000; stroke-width:0.0212; stroke-opacity:1; 
stroke-linecap:round; stroke-linejoin:round;">
</g>
<g style="fill:#000000; fill-opacity:1.0000; 
stroke:#000000; stroke-width:0.0000; stroke-opacity:1; 
stroke-linecap:round; stroke-linejoin:round;">
<circle cx="3.1783" cy="1.8250" r="0.5000" /> 
</g>
<g style="fill:#000000; fill-opacity:1.0000; 
stroke:#000000; stroke-width:0.0212; stroke-opacity:1; 
stroke-linecap:round; stroke-linejoin:round;">
</g>
<g style="fill:#000000; fill-opacity:1.0000; 
stroke:#000000; stroke-width:0.0000; stroke-opacity:1; 
stroke-linecap:round; stroke-linejoin:round;">
<circle cx="5.7183" cy="1.8250" r="0.5000" /> 
</g>
<g style="fill:#000000; fill-opacity:1.0000; 
stroke:#000000; stroke-width:0.0212; stroke-opacity:1; 
stroke-linecap:round; stroke-linejoin:round;">
</g>
<g style="fill:#000000; fill-opacity:1.0000; 
stroke:#000000; stroke-width:0.0000; stroke-opacity:1; 
stroke-linecap:round; stroke-linejoin:round;">
<circle cx="5.7083" cy="17.0650" r="0.5000" /> 
</g>
<g style="fill:#000000; fill-opacity:1.0000; 
stroke:#000000; stroke-width:0.0212; stroke-opacity:1; 
stroke-linecap:round; stroke-linejoin:round;">
</g>
<g style="fill:#000000; fill-opacity:1.0000; 
stroke:#000000; stroke-width:0.0000; stroke-opacity:1; 
stroke-linecap:round; stroke-linejoin:round;">
<circle cx="3.1683" cy="17.0650" r="0.5000" /> 
</g>
<g style="fill:#000000; fill-opacity:1.0000; 
stroke:#000000; stroke-width:0.0212; stroke-opacity:1; 
stroke-linecap:round; stroke-linejoin:round;">
</g>
<g style="fill:#FFFFFF; fill-opacity:1.0000; 
stroke:#FFFFFF; stroke-width:0.0212; stroke-opacity:1; 
stroke-linecap:round; stroke-linejoin:round;">
</g>
<g style="fill:#3D3D3D; fill-opacity:1.0000; 
stroke:#3D3D3D; stroke-width:0.0212; stroke-opacity:1; 
stroke-linecap:round; stroke-linejoin:round;">
</g>
<g style="fill:#3D3D3D; fill-opacity:1.0000; 
stroke:#3D3D3D; stroke-width:0.1500; stroke-opacity:1; 
stroke-linecap:round; stroke-linejoin:round;">
</g>
<g style="fill:#3D3D3D; fill-opacity:0.0; 
stroke:#3D3D3D; stroke-width:0.1500; stroke-opacity:1; 
stroke-linecap:round; stroke-linejoin:round;">
<text x="4.4583" y="19.1150"
textLength="8.9167" font-size="1.3333" lengthAdjust="spacingAndGlyphs"
text-anchor="middle" opacity="0">5.1000 mm</text>
<g class="stroked-text"><desc>5.1000 mm</desc>
<path d="M0.8393 18.0698
L0.3631 18.0698
" />
<path d="M0.3631 18.0698
L0.3155 18.5460
" />
<path d="M0.3155 18.5460
L0.3631 18.4984
" />
<path d="M0.3631 18.4984
L0.4583 18.4508
" />
<path d="M0.4583 18.4508
L0.6964 18.4508
" />
<path d="M0.6964 18.4508
L0.7917 18.4984
" />
<path d="M0.7917 18.4984
L0.8393 18.5460
" />
<path d="M0.8393 18.5460
L0.8869 18.6412
" />
<path d="M0.8869 18.6412
L0.8869 18.8793
" />
<path d="M0.8869 18.8793
L0.8393 18.9746
" />
<path d="M0.8393 18.9746
L0.7917 19.0222
" />
<path d="M0.7917 19.0222
L0.6964 19.0698
" />
<path d="M0.6964 19.0698
L0.4583 19.0698
" />
<path d="M0.4583 19.0698
L0.3631 19.0222
" />
<path d="M0.3631 19.0222
L0.3155 18.9746
" />
<path d="M1.3155 18.9746
L1.3631 19.0222
" />
<path d="M1.3631 19.0222
L1.3155 19.0698
" />
<path d="M1.3155 19.0698
L1.2679 19.0222
" />
<path d="M1.2679 19.0222
L1.3155 18.9746
" />
<path d="M1.3155 18.9746
L1.3155 19.0698
" />
<path d="M2.3155 19.0698
L1.7440 19.0698
" />
<path d="M2.0298 19.0698
L2.0298 18.0698
" />
<path d="M2.0298 18.0698
L1.9345 18.2127
" />
<path d="M1.9345 18.2127
L1.8393 18.3079
" />
<path d="M1.8393 18.3079
L1.7440 18.3555
" />
<path d="M2.9345 18.0698
L3.0298 18.0698
" />
<path d="M3.0298 18.0698
L3.1250 18.1174
" />
<path d="M3.1250 18.1174
L3.1726 18.1651
" />
<path d="M3.1726 18.1651
L3.2202 18.2603
" />
<path d="M3.2202 18.2603
L3.2679 18.4508
" />
<path d="M3.2679 18.4508
L3.2679 18.6889
" />
<path d="M3.2679 18.6889
L3.2202 18.8793
" />
<path d="M3.2202 18.8793
L3.1726 18.9746
" />
<path d="M3.1726 18.9746
L3.1250 19.0222
" />
<path d="M3.1250 19.0222
L3.0298 19.0698
" />
<path d="M3.0298 19.0698
L2.9345 19.0698
" />
<path d="M2.9345 19.0698
L2.8393 19.0222
" />
<path d="M2.8393 19.0222
L2.7917 18.9746
" />
<path d="M2.7917 18.9746
L2.7440 18.8793
" />
<path d="M2.7440 18.8793
L2.6964 18.6889
" />
<path d="M2.6964 18.6889
L2.6964 18.4508
" />
<path d="M2.6964 18.4508
L2.7440 18.2603
" />
<path d="M2.7440 18.2603
L2.7917 18.1651
" />
<path d="M2.7917 18.1651
L2.8393 18.1174
" />
<path d="M2.8393 18.1174
L2.9345 18.0698
" />
<path d="M3.8869 18.0698
L3.9821 18.0698
" />
<path d="M3.9821 18.0698
L4.0774 18.1174
" />
<path d="M4.0774 18.1174
L4.1250 18.1651
" />
<path d="M4.1250 18.1651
L4.1726 18.2603
" />
<path d="M4.1726 18.2603
L4.2202 18.4508
" />
<path d="M4.2202 18.4508
L4.2202 18.6889
" />
<path d="M4.2202 18.6889
L4.1726 18.8793
" />
<path d="M4.1726 18.8793
L4.1250 18.9746
" />
<path d="M4.1250 18.9746
L4.0774 19.0222
" />
<path d="M4.0774 19.0222
L3.9821 19.0698
" />
<path d="M3.9821 19.0698
L3.8869 19.0698
" />
<path d="M3.8869 19.0698
L3.7917 19.0222
" />
<path d="M3.7917 19.0222
L3.7440 18.9746
" />
<path d="M3.7440 18.9746
L3.6964 18.8793
" />
<path d="M3.6964 18.8793
L3.6488 18.6889
" />
<path d="M3.6488 18.6889
L3.6488 18.4508
" />
<path d="M3.6488 18.4508
L3.6964 18.2603
" />
<path d="M3.6964 18.2603
L3.7440 18.1651
" />
<path d="M3.7440 18.1651
L3.7917 18.1174
" />
<path d="M3.7917 18.1174
L3.8869 18.0698
" />
<path d="M4.8393 18.0698
L4.9345 18.0698
" />
<path d="M4.9345 18.0698
L5.0298 18.1174
" />
<path d="M5.0298 18.1174
L5.0774 18.1651
" />
<path d="M5.0774 18.1651
L5.1250 18.2603
" />
<path d="M5.1250 18.2603
L5.1726 18.4508
" />
<path d="M5.1726 18.4508
L5.1726 18.6889
" />
<path d="M5.1726 18.6889
L5.1250 18.8793
" />
<path d="M5.1250 18.8793
L5.0774 18.9746
" />
<path d="M5.0774 18.9746
L5.0298 19.0222
" />
<path d="M5.0298 19.0222
L4.9345 19.0698
" />
<path d="M4.9345 19.0698
L4.8393 19.0698
" />
<path d="M4.8393 19.0698
L4.7440 19.0222
" />
<path d="M4.7440 19.0222
L4.6964 18.9746
" />
<path d="M4.6964 18.9746
L4.6488 18.8793
" />
<path d="M4.6488 18.8793
L4.6012 18.6889
" />
<path d="M4.6012 18.6889
L4.6012 18.4508
" />
<path d="M4.6012 18.4508
L4.6488 18.2603
" />
<path d="M4.6488 18.2603
L4.6964 18.1651
" />
<path d="M4.6964 18.1651
L4.7440 18.1174
" />
<path d="M4.7440 18.1174
L4.8393 18.0698
" />
<path d="M6.3631 19.0698
L6.3631 18.4032
" />
<path d="M6.3631 18.4984
L6.4107 18.4508
" />
<path d="M6.4107 18.4508
L6.5060 18.4032
" />
<path d="M6.5060 18.4032
L6.6488 18.4032
" />
<path d="M6.6488 18.4032
L6.7440 18.4508
" />
<path d="M6.7440 18.4508
L6.7917 18.5460
" />
<path d="M6.7917 18.5460
L6.7917 19.0698
" />
<path d="M6.7917 18.5460
L6.8393 18.4508
" />
<path d="M6.8393 18.4508
L6.9345 18.4032
" />
<path d="M6.9345 18.4032
L7.0774 18.4032
" />
<path d="M7.0774 18.4032
L7.1726 18.4508
" />
<path d="M7.1726 18.4508
L7.2202 18.5460
" />
<path d="M7.2202 18.5460
L7.2202 19.0698
" />
<path d="M7.6964 19.0698
L7.6964 18.4032
" />
<path d="M7.6964 18.4984
L7.7440 18.4508
" />
<path d="M7.7440 18.4508
L7.8393 18.4032
" />
<path d="M7.8393 18.4032
L7.9821 18.4032
" />
<path d="M7.9821 18.4032
L8.0774 18.4508
" />
<path d="M8.0774 18.4508
L8.1250 18.5460
" />
<path d="M8.1250 18.5460
L8.1250 19.0698
" />
<path d="M8.1250 18.5460
L8.1726 18.4508
" />
<path d="M8.1726 18.4508
L8.2679 18.4032
" />
<path d="M8.2679 18.4032
L8.4107 18.4032
" />
<path d="M8.4107 18.4032
L8.5060 18.4508
" />
<path d="M8.5060 18.4508
L8.5536 18.5460
" />
<path d="M8.5536 18.5460
L8.5536 19.0698
" />
</g><path d="M7.0083 18.1650
L7.0083 20.3514
" />
<path d="M1.9083 18.1650
L1.9083 20.3514
" />
<path d="M7.0083 19.7650
L1.9083 19.7650
" />
<path d="M7.0083 19.7650
L1.9083 19.7650
" />
<path d="M7.0083 19.7650
L5.8818 20.3514
" />
<path d="M7.0083 19.7650
L5.8818 19.1786
" />
<path d="M1.9083 19.7650
L3.0348 19.1786
" />
<path d="M1.9083 19.7650
L3.0348 20.3514
" />
<g transform="rotate(-90.000000 7.8583 9.4450)">
<text x="7.8583" y="9.9450"
textLength="9.8690" font-size="1.3333" lengthAdjust="spacingAndGlyphs"
text-anchor="middle" opacity="0">17.4400 mm</text>
</g>
<g class="stroked-text"><desc>17.4400 mm</desc>
<path d="M8.3132 13.4926
L8.3132 14.0640
" />
<path d="M8.3132 13.7783
L7.3132 13.7783
" />
<path d="M7.3132 13.7783
L7.4560 13.8736
" />
<path d="M7.4560 13.8736
L7.5512 13.9688
" />
<path d="M7.5512 13.9688
L7.5989 14.0640
" />
<path d="M7.3132 13.1593
L7.3132 12.4926
" />
<path d="M7.3132 12.4926
L8.3132 12.9212
" />
<path d="M8.2179 12.1117
L8.2655 12.0640
" />
<path d="M8.2655 12.0640
L8.3132 12.1117
" />
<path d="M8.3132 12.1117
L8.2655 12.1593
" />
<path d="M8.2655 12.1593
L8.2179 12.1117
" />
<path d="M8.2179 12.1117
L8.3132 12.1117
" />
<path d="M7.6465 11.2069
L8.3132 11.2069
" />
<path d="M7.2655 11.4450
L7.9798 11.6831
" />
<path d="M7.9798 11.6831
L7.9798 11.0640
" />
<path d="M7.6465 10.2545
L8.3132 10.2545
" />
<path d="M7.2655 10.4926
L7.9798 10.7307
" />
<path d="M7.9798 10.7307
L7.9798 10.1117
" />
<path d="M7.3132 9.5402
L7.3132 9.4450
" />
<path d="M7.3132 9.4450
L7.3608 9.3498
" />
<path d="M7.3608 9.3498
L7.4084 9.3021
" />
<path d="M7.4084 9.3021
L7.5036 9.2545
" />
<path d="M7.5036 9.2545
L7.6941 9.2069
" />
<path d="M7.6941 9.2069
L7.9322 9.2069
" />
<path d="M7.9322 9.2069
L8.1227 9.2545
" />
<path d="M8.1227 9.2545
L8.2179 9.3021
" />
<path d="M8.2179 9.3021
L8.2655 9.3498
" />
<path d="M8.2655 9.3498
L8.3132 9.4450
" />
<path d="M8.3132 9.4450
L8.3132 9.5402
" />
<path d="M8.3132 9.5402
L8.2655 9.6355
" />
<path d="M8.2655 9.6355
L8.2179 9.6831
" />
<path d="M8.2179 9.6831
L8.1227 9.7307
" />
<path d="M8.1227 9.7307
L7.9322 9.7783
" />
<path d="M7.9322 9.7783
L7.6941 9.7783
" />
<path d="M7.6941 9.7783
L7.5036 9.7307
" />
<path d="M7.5036 9.7307
L7.4084 9.6831
" />
<path d="M7.4084 9.6831
L7.3608 9.6355
" />
<path d="M7.3608 9.6355
L7.3132 9.5402
" />
<path d="M7.3132 8.5879
L7.3132 8.4926
" />
<path d="M7.3132 8.4926
L7.3608 8.3974
" />
<path d="M7.3608 8.3974
L7.4084 8.3498
" />
<path d="M7.4084 8.3498
L7.5036 8.3021
" />
<path d="M7.5036 8.3021
L7.6941 8.2545
" />
<path d="M7.6941 8.2545
L7.9322 8.2545
" />
<path d="M7.9322 8.2545
L8.1227 8.3021
" />
<path d="M8.1227 8.3021
L8.2179 8.3498
" />
<path d="M8.2179 8.3498
L8.2655 8.3974
" />
<path d="M8.2655 8.3974
L8.3132 8.4926
" />
<path d="M8.3132 8.4926
L8.3132 8.5879
" />
<path d="M8.3132 8.5879
L8.2655 8.6831
" />
<path d="M8.2655 8.6831
L8.2179 8.7307
" />
<path d="M8.2179 8.7307
L8.1227 8.7783
" />
<path d="M8.1227 8.7783
L7.9322 8.8260
" />
<path d="M7.9322 8.8260
L7.6941 8.8260
" />
<path d="M7.6941 8.8260
L7.5036 8.7783
" />
<path d="M7.5036 8.7783
L7.4084 8.7307
" />
<path d="M7.4084 8.7307
L7.3608 8.6831
" />
<path d="M7.3608 8.6831
L7.3132 8.5879
" />
<path d="M8.3132 7.0640
L7.6465 7.0640
" />
<path d="M7.7417 7.0640
L7.6941 7.0164
" />
<path d="M7.6941 7.0164
L7.6465 6.9212
" />
<path d="M7.6465 6.9212
L7.6465 6.7783
" />
<path d="M7.6465 6.7783
L7.6941 6.6831
" />
<path d="M7.6941 6.6831
L7.7893 6.6355
" />
<path d="M7.7893 6.6355
L8.3132 6.6355
" />
<path d="M7.7893 6.6355
L7.6941 6.5879
" />
<path d="M7.6941 6.5879
L7.6465 6.4926
" />
<path d="M7.6465 6.4926
L7.6465 6.3498
" />
<path d="M7.6465 6.3498
L7.6941 6.2545
" />
<path d="M7.6941 6.2545
L7.7893 6.2069
" />
<path d="M7.7893 6.2069
L8.3132 6.2069
" />
<path d="M8.3132 5.7307
L7.6465 5.7307
" />
<path d="M7.7417 5.7307
L7.6941 5.6831
" />
<path d="M7.6941 5.6831
L7.6465 5.5879
" />
<path d="M7.6465 5.5879
L7.6465 5.4450
" />
<path d="M7.6465 5.4450
L7.6941 5.3498
" />
<path d="M7.6941 5.3498
L7.7893 5.3021
" />
<path d="M7.7893 5.3021
L8.3132 5.3021
" />
<path d="M7.7893 5.3021
L7.6941 5.2545
" />
<path d="M7.6941 5.2545
L7.6465 5.1593
" />
<path d="M7.6465 5.1593
L7.6465 5.0164
" />
<path d="M7.6465 5.0164
L7.6941 4.9212
" />
<path d="M7.6941 4.9212
L7.7893 4.8736
" />
<path d="M7.7893 4.8736
L8.3132 4.8736
" />
</g><path d="M7.0083 0.7250
L9.5948 0.7250
" />
<path d="M7.0083 18.1650
L9.5948 18.1650
" />
<path d="M9.0083 0.7250
L9.0083 18.1650
" />
<path d="M9.0083 0.7250
L9.0083 18.1650
" />
<path d="M9.0083 0.7250
L9.5948 1.8515
" />
<path d="M9.0083 0.7250
L8.4219 1.8515
" />
<path d="M9.0083 18.1650
L8.4219 17.0385
" />
<path d="M9.0083 18.1650
L9.5948 17.0385
" />
<g >
</g>
<g >
</g>
<g >
</g>
<g >
</g>
<g >
</g>
<g >
</g>
<g >
</g>
<g >
</g>
</g>
<g style="fill:#FFFFFF; fill-opacity:0.0; 
stroke:#FFFFFF; stroke-width:0.1500; stroke-opacity:1; 
stroke-linecap:round; stroke-linejoin:round;">
</g>
<g style="fill:#2F2D31; fill-opacity:0.0; 
stroke:#2F2D31; stroke-width:0.1500; stroke-opacity:1; 
stroke-linecap:round; stroke-linejoin:round;">
</g>
<g style="fill:#2F2D31; fill-opacity:0.0; 
stroke:#2F2D31; stroke-width:0.0500; stroke-opacity:1; 
stroke-linecap:round; stroke-linejoin:round;">
<path d="M7.0083 0.7250
L1.9083 0.7250
" />
<path d="M7.0083 18.1650
L7.0083 0.7250
" />
<path d="M1.9083 18.1650
L7.0083 18.1650
" />
<path d="M1.9083 0.7250
L1.9083 18.1650
" />
<g >
</g>
<g >
</g>
<g >
</g>
<g >
</g>
<g >
</g>
<g >
</g>
<g >
</g>
<g >
</g>
</g> 
</svg>
