<?xml version="1.0" standalone="no"?>
 <!DOCTYPE svg PUBLIC "-//W3C//DTD SVG 1.1//EN" 
 "http://www.w3.org/Graphics/SVG/1.1/DTD/svg11.dtd"> 
<svg
  xmlns:svg="http://www.w3.org/2000/svg"
  xmlns="http://www.w3.org/2000/svg"
  xmlns:xlink="http://www.w3.org/1999/xlink"
  version="1.1"
  width="30.3784mm" height="20.8788mm" viewBox="0.0000 0.0000 30.3784 20.8788">
<title>SVG Image created as _autosave-working-brd.svg date 2023/09/26 16:03:38 </title>
  <desc>Image generated by PCBNEW </desc>
<g style="fill:#000000; fill-opacity:1.0000;stroke:#000000; stroke-opacity:1.0000;
stroke-linecap:round; stroke-linejoin:round;"
 transform="translate(0 0) scale(1 1)">
</g>
<g style="fill:#000000; fill-opacity:0.0; 
stroke:#000000; stroke-width:0.0000; stroke-opacity:1; 
stroke-linecap:round; stroke-linejoin:round;">
</g>
<g style="fill:#000000; fill-opacity:1.0000; 
stroke:#000000; stroke-width:0.0212; stroke-opacity:1; 
stroke-linecap:round; stroke-linejoin:round;">
<rect x="-5.000000" y="-5.000000" width="40.403250" height="30.883335" rx="0.000000" />
</g>
<g style="fill:#FFFFFF; fill-opacity:1.0000; 
stroke:#FFFFFF; stroke-width:0.0212; stroke-opacity:1; 
stroke-linecap:round; stroke-linejoin:round;">
<g >
</g>
<g >
</g>
<g >
</g>
<g style="fill:#B2803A; fill-opacity:1.0000; 
stroke:#B2803A; stroke-width:0.0212; stroke-opacity:1; 
stroke-linecap:round; stroke-linejoin:round;">
</g>
<g style="fill:#B2803A; fill-opacity:1.0000; 
stroke:#B2803A; stroke-width:0.0000; stroke-opacity:1; 
stroke-linecap:round; stroke-linejoin:round;">
<path style="fill:#B2803A; fill-opacity:1.0000; 
stroke:#B2803A; stroke-width:0.0000; stroke-opacity:1; 
stroke-linecap:round; stroke-linejoin:round;fill-rule:evenodd;"
d="M 2.6750,17.0607
0.9750,17.0607
0.9750,15.3607
2.6750,15.3607
Z" /> 
<circle cx="4.3650" cy="16.2107" r="0.8500" /> 
<circle cx="6.9050" cy="16.2107" r="0.8500" /> 
<circle cx="9.4450" cy="16.2107" r="0.8500" /> 
<circle cx="11.9850" cy="16.2107" r="0.8500" /> 
<circle cx="14.5250" cy="16.2107" r="0.8500" /> 
<circle cx="17.0650" cy="16.2107" r="0.8500" /> 
<circle cx="19.6050" cy="16.2107" r="0.8500" /> 
<circle cx="22.1450" cy="16.2107" r="0.8500" /> 
<circle cx="24.6850" cy="16.2107" r="0.8500" /> 
<circle cx="27.2250" cy="16.2107" r="0.8500" /> 
</g>
<g >
</g>
<g >
</g>
<g >
</g>
<g >
</g>
<g >
</g>
<g >
</g>
<g >
</g>
<g >
</g>
<g style="fill:#121212; fill-opacity:1.0000; 
stroke:#121212; stroke-width:0.0000; stroke-opacity:1; 
stroke-linecap:round; stroke-linejoin:round;">
<circle cx="21.6150" cy="7.3207" r="0.4000" /> 
</g>
<g style="fill:#121212; fill-opacity:1.0000; 
stroke:#121212; stroke-width:0.0212; stroke-opacity:1; 
stroke-linecap:round; stroke-linejoin:round;">
</g>
<g style="fill:#121212; fill-opacity:1.0000; 
stroke:#121212; stroke-width:0.0000; stroke-opacity:1; 
stroke-linecap:round; stroke-linejoin:round;">
<circle cx="9.5150" cy="4.5507" r="0.4000" /> 
</g>
<g style="fill:#121212; fill-opacity:1.0000; 
stroke:#121212; stroke-width:0.0212; stroke-opacity:1; 
stroke-linecap:round; stroke-linejoin:round;">
</g>
<g style="fill:#121212; fill-opacity:1.0000; 
stroke:#121212; stroke-width:0.0000; stroke-opacity:1; 
stroke-linecap:round; stroke-linejoin:round;">
<circle cx="7.9250" cy="11.3907" r="0.4000" /> 
</g>
<g style="fill:#121212; fill-opacity:1.0000; 
stroke:#121212; stroke-width:0.0212; stroke-opacity:1; 
stroke-linecap:round; stroke-linejoin:round;">
</g>
<g style="fill:#121212; fill-opacity:1.0000; 
stroke:#121212; stroke-width:0.0000; stroke-opacity:1; 
stroke-linecap:round; stroke-linejoin:round;">
<circle cx="12.7150" cy="9.0907" r="0.4000" /> 
</g>
<g style="fill:#121212; fill-opacity:1.0000; 
stroke:#121212; stroke-width:0.0212; stroke-opacity:1; 
stroke-linecap:round; stroke-linejoin:round;">
</g>
<g style="fill:#121212; fill-opacity:1.0000; 
stroke:#121212; stroke-width:0.0000; stroke-opacity:1; 
stroke-linecap:round; stroke-linejoin:round;">
<circle cx="5.7250" cy="14.1107" r="0.4000" /> 
</g>
<g style="fill:#121212; fill-opacity:1.0000; 
stroke:#121212; stroke-width:0.0212; stroke-opacity:1; 
stroke-linecap:round; stroke-linejoin:round;">
</g>
<g style="fill:#121212; fill-opacity:1.0000; 
stroke:#121212; stroke-width:0.0000; stroke-opacity:1; 
stroke-linecap:round; stroke-linejoin:round;">
<circle cx="17.1577" cy="10.0481" r="0.4000" /> 
</g>
<g style="fill:#121212; fill-opacity:1.0000; 
stroke:#121212; stroke-width:0.0212; stroke-opacity:1; 
stroke-linecap:round; stroke-linejoin:round;">
</g>
<g style="fill:#121212; fill-opacity:1.0000; 
stroke:#121212; stroke-width:0.0000; stroke-opacity:1; 
stroke-linecap:round; stroke-linejoin:round;">
<circle cx="7.6050" cy="7.8807" r="0.4000" /> 
</g>
<g style="fill:#121212; fill-opacity:1.0000; 
stroke:#121212; stroke-width:0.0212; stroke-opacity:1; 
stroke-linecap:round; stroke-linejoin:round;">
</g>
<g style="fill:#121212; fill-opacity:1.0000; 
stroke:#121212; stroke-width:0.0000; stroke-opacity:1; 
stroke-linecap:round; stroke-linejoin:round;">
<circle cx="26.8150" cy="4.7507" r="0.4000" /> 
</g>
<g style="fill:#121212; fill-opacity:1.0000; 
stroke:#121212; stroke-width:0.0212; stroke-opacity:1; 
stroke-linecap:round; stroke-linejoin:round;">
</g>
<g style="fill:#121212; fill-opacity:1.0000; 
stroke:#121212; stroke-width:0.0000; stroke-opacity:1; 
stroke-linecap:round; stroke-linejoin:round;">
<circle cx="27.5250" cy="9.0907" r="0.4000" /> 
</g>
<g style="fill:#121212; fill-opacity:1.0000; 
stroke:#121212; stroke-width:0.0212; stroke-opacity:1; 
stroke-linecap:round; stroke-linejoin:round;">
</g>
<g style="fill:#121212; fill-opacity:1.0000; 
stroke:#121212; stroke-width:0.0000; stroke-opacity:1; 
stroke-linecap:round; stroke-linejoin:round;">
<circle cx="1.6250" cy="13.5107" r="0.4000" /> 
</g>
<g style="fill:#121212; fill-opacity:1.0000; 
stroke:#121212; stroke-width:0.0212; stroke-opacity:1; 
stroke-linecap:round; stroke-linejoin:round;">
</g>
<g style="fill:#121212; fill-opacity:1.0000; 
stroke:#121212; stroke-width:0.0000; stroke-opacity:1; 
stroke-linecap:round; stroke-linejoin:round;">
<circle cx="24.8750" cy="12.9807" r="0.4000" /> 
</g>
<g style="fill:#121212; fill-opacity:1.0000; 
stroke:#121212; stroke-width:0.0212; stroke-opacity:1; 
stroke-linecap:round; stroke-linejoin:round;">
</g>
<g style="fill:#121212; fill-opacity:1.0000; 
stroke:#121212; stroke-width:0.0000; stroke-opacity:1; 
stroke-linecap:round; stroke-linejoin:round;">
<circle cx="10.3450" cy="9.4607" r="0.4000" /> 
</g>
<g style="fill:#121212; fill-opacity:1.0000; 
stroke:#121212; stroke-width:0.0212; stroke-opacity:1; 
stroke-linecap:round; stroke-linejoin:round;">
</g>
<g style="fill:#121212; fill-opacity:1.0000; 
stroke:#121212; stroke-width:0.0000; stroke-opacity:1; 
stroke-linecap:round; stroke-linejoin:round;">
<circle cx="16.0195" cy="6.8612" r="0.4000" /> 
</g>
<g style="fill:#121212; fill-opacity:1.0000; 
stroke:#121212; stroke-width:0.0212; stroke-opacity:1; 
stroke-linecap:round; stroke-linejoin:round;">
</g>
<g style="fill:#121212; fill-opacity:1.0000; 
stroke:#121212; stroke-width:0.0000; stroke-opacity:1; 
stroke-linecap:round; stroke-linejoin:round;">
<circle cx="4.8650" cy="11.1907" r="0.4000" /> 
</g>
<g style="fill:#121212; fill-opacity:1.0000; 
stroke:#121212; stroke-width:0.0212; stroke-opacity:1; 
stroke-linecap:round; stroke-linejoin:round;">
</g>
<g style="fill:#121212; fill-opacity:1.0000; 
stroke:#121212; stroke-width:0.0000; stroke-opacity:1; 
stroke-linecap:round; stroke-linejoin:round;">
<circle cx="23.3800" cy="5.8857" r="0.4000" /> 
</g>
<g style="fill:#121212; fill-opacity:1.0000; 
stroke:#121212; stroke-width:0.0212; stroke-opacity:1; 
stroke-linecap:round; stroke-linejoin:round;">
</g>
<g style="fill:#121212; fill-opacity:1.0000; 
stroke:#121212; stroke-width:0.0000; stroke-opacity:1; 
stroke-linecap:round; stroke-linejoin:round;">
<circle cx="1.5250" cy="7.2507" r="0.4000" /> 
</g>
<g style="fill:#121212; fill-opacity:1.0000; 
stroke:#121212; stroke-width:0.0212; stroke-opacity:1; 
stroke-linecap:round; stroke-linejoin:round;">
</g>
<g style="fill:#121212; fill-opacity:1.0000; 
stroke:#121212; stroke-width:0.0000; stroke-opacity:1; 
stroke-linecap:round; stroke-linejoin:round;">
<circle cx="17.3276" cy="7.6781" r="0.4000" /> 
</g>
<g style="fill:#121212; fill-opacity:1.0000; 
stroke:#121212; stroke-width:0.0212; stroke-opacity:1; 
stroke-linecap:round; stroke-linejoin:round;">
</g>
<g style="fill:#121212; fill-opacity:1.0000; 
stroke:#121212; stroke-width:0.0000; stroke-opacity:1; 
stroke-linecap:round; stroke-linejoin:round;">
<circle cx="11.3640" cy="6.8111" r="0.4000" /> 
</g>
<g style="fill:#121212; fill-opacity:1.0000; 
stroke:#121212; stroke-width:0.0212; stroke-opacity:1; 
stroke-linecap:round; stroke-linejoin:round;">
</g>
<g style="fill:#121212; fill-opacity:1.0000; 
stroke:#121212; stroke-width:0.0000; stroke-opacity:1; 
stroke-linecap:round; stroke-linejoin:round;">
<circle cx="10.3649" cy="6.8387" r="0.4000" /> 
</g>
<g style="fill:#121212; fill-opacity:1.0000; 
stroke:#121212; stroke-width:0.0212; stroke-opacity:1; 
stroke-linecap:round; stroke-linejoin:round;">
</g>
<g >
</g>
<g style="fill:#B2803A; fill-opacity:1.0000; 
stroke:#B2803A; stroke-width:0.0212; stroke-opacity:1; 
stroke-linecap:round; stroke-linejoin:round;">
</g>
<g style="fill:#B2803A; fill-opacity:1.0000; 
stroke:#B2803A; stroke-width:0.2500; stroke-opacity:1; 
stroke-linecap:round; stroke-linejoin:round;">
</g>
<g style="fill:#B2803A; fill-opacity:0.0; 
stroke:#B2803A; stroke-width:0.2500; stroke-opacity:1; 
stroke-linecap:round; stroke-linejoin:round;">
<path d="M17.1577 10.0481
L16.0195 8.9099
" />
<path d="M22.1450 15.0354
L17.1577 10.0481
" />
<path d="M22.1450 16.2107
L22.1450 15.0354
" />
<path d="M16.0195 8.9099
L16.0195 6.8612
" />
<path d="M24.6850 15.0354
L24.6850 16.2107
" />
<path d="M17.3276 7.6781
L24.6850 15.0354
" />
<path d="M11.3640 6.8111
L11.3640 14.4144
" />
<path d="M11.3640 14.4144
L11.9850 15.0354
" />
<path d="M11.9850 16.2107
L11.9850 15.0354
" />
<path d="M10.3649 7.2208
L1.8250 15.7607
" />
<path d="M1.8250 15.7607
L1.8250 16.2107
" />
<path d="M10.3649 6.8387
L10.3649 7.2208
" />
</g>
<g >
</g>
<g style="fill:#B2803A; fill-opacity:0.0; 
stroke:#B2803A; stroke-width:0.2500; stroke-opacity:1; 
stroke-linecap:round; stroke-linejoin:round;">
<g >
</g>
<g style="fill:#B2803A; fill-opacity:1.0000; 
stroke:#B2803A; stroke-width:0.0000; stroke-opacity:1; 
stroke-linecap:round; stroke-linejoin:round;">
<path style="fill:#B2803A; fill-opacity:1.0000; 
stroke:#B2803A; stroke-width:0.0000; stroke-opacity:1; 
stroke-linecap:round; stroke-linejoin:round;fill-rule:evenodd;"
d="M 26.0683,4.0063
26.3109,4.0192
26.3191,4.0201
26.5559,4.0642
26.5639,4.0662
26.7930,4.1408
26.8006,4.1438
27.0180,4.2477
27.0252,4.2517
27.0368,4.2593
27.2271,4.3830
27.2337,4.3880
27.3312,4.4713
27.4168,4.5445
27.4227,4.5503
27.5837,4.7294
27.5888,4.7359
27.7252,4.9345
27.7294,4.9416
27.7582,4.9982
27.8386,5.1562
27.8418,5.1638
27.9221,5.3909
27.9244,5.3989
27.9743,5.6345
27.9755,5.6427
27.9943,5.8840
27.9945,5.8889
27.9945,14.8710
27.9745,14.9391
27.9208,14.9856
27.8506,14.9957
27.8085,14.9818
27.7726,14.9624
27.7726,14.9624
27.7726,14.9624
27.5596,14.8893
27.5596,14.8893
27.5137,14.8816
27.3376,14.8522
27.1124,14.8522
26.9680,14.8763
26.8904,14.8893
26.8904,14.8893
26.6774,14.9624
26.6774,14.9624
26.4794,15.0695
26.4794,15.0695
26.4794,15.0695
26.3018,15.2078
26.1493,15.3734
26.1493,15.3734
26.0605,15.5094
26.0065,15.5554
25.9361,15.5650
25.8718,15.5350
25.8495,15.5094
25.7607,15.3735
25.7607,15.3734
25.6446,15.2473
25.6082,15.2078
25.6082,15.2078
25.6082,15.2078
25.5264,15.1441
25.4306,15.0695
25.3978,15.0518
25.3817,15.0431
25.3313,14.9930
25.3176,14.9432
25.3169,14.9434
25.3159,14.9369
25.3157,14.9362
25.3157,14.9355
25.3100,14.9161
25.3060,14.8967
25.3060,14.8967
25.3035,14.8766
25.3034,14.8763
25.2913,14.8458
25.2861,14.8327
25.2842,14.8271
25.2821,14.8201
25.2710,14.7818
25.2607,14.7644
25.2520,14.7466
25.2446,14.7278
25.2168,14.6896
25.2136,14.6847
25.1895,14.6441
25.1752,14.6297
25.1624,14.6147
25.1505,14.5983
25.1505,14.5983
25.1505,14.5983
25.1141,14.5682
25.1097,14.5642
18.2748,7.7293
18.2407,7.6670
18.2386,7.6534
18.2212,7.4881
18.1622,7.3065
18.0667,7.1411
18.0667,7.1411
18.0667,7.1411
17.9389,6.9992
17.7844,6.8869
17.6099,6.8093
17.4231,6.7696
17.2322,6.7696
17.0454,6.8093
16.8709,6.8869
16.7164,6.9992
16.5886,7.1411
16.5886,7.1411
16.4931,7.3065
16.4931,7.3065
16.4341,7.4881
16.4141,7.6781
16.4341,7.8680
16.4550,7.9322
16.4931,8.0496
16.4931,8.0496
16.5886,8.2150
16.5886,8.2150
16.7164,8.3569
16.7164,8.3569
16.8709,8.4692
17.0454,8.5469
17.2322,8.5866
17.2881,8.5866
17.3562,8.6066
17.3772,8.6235
23.7732,15.0195
23.8072,15.0818
23.8021,15.1526
23.7648,15.2035
23.7656,15.2043
23.7618,15.2078
23.6093,15.3734
23.6093,15.3734
23.5202,15.5098
23.4662,15.5559
23.3958,15.5655
23.3315,15.5355
23.3092,15.5098
23.2203,15.3738
23.0679,15.2082
22.8903,15.0699
22.8903,15.0699
22.6924,14.9628
22.6924,14.9628
22.4795,14.8898
22.4795,14.8898
22.3990,14.8763
22.3990,15.7770
22.2873,15.7260
22.1808,15.7107
22.1092,15.7107
22.0027,15.7260
21.8910,15.7770
21.8910,14.8763
21.8910,14.8763
21.8105,14.8898
21.8105,14.8898
21.5976,14.9628
21.5976,14.9628
21.3997,15.0699
21.3997,15.0699
21.2221,15.2082
21.0697,15.3738
20.9808,15.5098
20.9268,15.5559
20.8564,15.5655
20.7921,15.5355
20.7698,15.5098
20.7309,15.4502
20.6807,15.3735
20.6807,15.3734
20.5646,15.2473
20.5282,15.2078
20.5282,15.2078
20.5282,15.2078
20.4464,15.1441
20.3506,15.0695
20.1526,14.9624
20.1526,14.9624
20.1526,14.9624
19.9396,14.8893
19.9396,14.8893
19.8937,14.8816
19.7176,14.8522
19.4924,14.8522
19.3480,14.8763
19.2704,14.8893
19.2704,14.8893
19.0574,14.9624
19.0574,14.9624
18.8594,15.0695
18.8594,15.0695
18.8594,15.0695
18.6818,15.2078
18.5293,15.3734
18.4405,15.5094
18.3865,15.5554
18.3161,15.5650
18.2518,15.5350
18.2295,15.5094
18.1407,15.3734
18.0246,15.2473
17.9882,15.2078
17.9882,15.2078
17.9882,15.2078
17.9064,15.1441
17.8106,15.0695
17.6126,14.9624
17.6126,14.9624
17.6126,14.9624
17.3996,14.8893
17.3996,14.8893
17.3537,14.8816
17.1776,14.8522
16.9524,14.8522
16.8080,14.8763
16.7304,14.8893
16.7304,14.8893
16.5174,14.9624
16.5174,14.9624
16.3194,15.0695
16.3194,15.0695
16.3194,15.0695
16.1418,15.2078
15.9893,15.3734
15.9005,15.5094
15.8465,15.5554
15.7761,15.5650
15.7118,15.5350
15.6895,15.5094
15.6007,15.3734
15.4846,15.2473
15.4482,15.2078
15.4482,15.2078
15.4482,15.2078
15.3664,15.1441
15.2706,15.0695
15.0726,14.9624
15.0726,14.9624
15.0726,14.9624
14.8596,14.8893
14.8596,14.8893
14.8137,14.8816
14.6376,14.8522
14.4124,14.8522
14.2680,14.8763
14.1904,14.8893
14.1904,14.8893
13.9774,14.9624
13.9774,14.9624
13.7794,15.0695
13.7794,15.0695
13.7794,15.0695
13.6018,15.2078
13.4493,15.3734
13.3605,15.5094
13.3065,15.5554
13.2361,15.5650
13.1718,15.5350
13.1495,15.5094
13.0607,15.3734
12.9446,15.2473
12.9082,15.2078
12.9082,15.2078
12.9082,15.2078
12.8264,15.1441
12.7306,15.0695
12.7306,15.0695
12.6817,15.0431
12.6313,14.9930
12.6176,14.9432
12.6169,14.9434
12.6159,14.9369
12.6157,14.9362
12.6157,14.9362
12.6157,14.9355
12.6100,14.9161
12.6060,14.8967
12.6035,14.8766
12.5861,14.8327
12.5842,14.8272
12.5710,14.7818
12.5612,14.7652
12.5607,14.7644
12.5520,14.7466
12.5446,14.7278
12.5266,14.7031
12.5168,14.6896
12.5136,14.6847
12.4895,14.6441
12.4752,14.6297
12.4624,14.6147
12.4505,14.5983
12.4505,14.5983
12.4505,14.5983
12.4141,14.5682
12.4097,14.5642
12.0344,14.1889
12.0004,14.1266
11.9975,14.0998
11.9975,7.5136
12.0175,7.4455
12.0299,7.4293
12.1030,7.3481
12.1985,7.1827
12.2575,7.0010
12.2775,6.8111
12.2575,6.6212
12.1985,6.4396
12.1030,6.2742
12.1030,6.2742
12.1030,6.2742
11.9753,6.1323
11.8208,6.0200
11.6463,5.9423
11.4595,5.9026
11.2685,5.9026
11.0817,5.9423
10.9072,6.0200
10.9015,6.0233
10.9004,6.0214
10.8431,6.0418
10.7847,6.0312
10.6472,5.9699
10.4604,5.9302
10.2694,5.9302
10.0826,5.9699
9.9081,6.0476
9.7536,6.1599
9.6258,6.3018
9.6258,6.3018
9.5304,6.4672
9.5304,6.4672
9.4713,6.6488
9.4514,6.8387
9.4713,7.0286
9.4940,7.0985
9.4961,7.1695
9.4633,7.2265
1.8745,14.8153
1.8122,14.8493
1.7854,14.8522
1.1815,14.8522
1.1134,14.8322
1.0669,14.7786
1.0555,14.7262
1.0555,6.0107
1.0559,6.0032
1.0563,6.0004
1.0563,6.0003
1.0555,5.9376
1.0555,5.9358
1.0556,5.9324
1.0684,5.6904
1.0694,5.6823
1.0767,5.6427
1.1133,5.4461
1.1153,5.4381
1.1897,5.2097
1.1927,5.2020
1.2128,5.1599
1.2963,4.9852
1.3003,4.9781
1.4313,4.7766
1.4362,4.7701
1.5924,4.5875
1.5981,4.5816
1.7767,4.4209
1.7832,4.4158
1.9813,4.2799
1.9884,4.2757
2.2025,4.1667
2.2100,4.1635
2.4365,4.0834
2.4445,4.0812
2.6795,4.0314
2.6876,4.0302
2.9284,4.0114
2.9332,4.0112
25.9902,4.0062
25.9976,4.0067
26.0003,4.0070
26.0004,4.0070
26.0632,4.0062
26.0648,4.0062
Z" /> 
<path style="fill:#B2803A; fill-opacity:1.0000; 
stroke:#B2803A; stroke-width:0.0000; stroke-opacity:1; 
stroke-linecap:round; stroke-linejoin:round;fill-rule:evenodd;"
d="M 10.6485,7.9373
10.7054,7.9798
10.7302,8.0463
10.7305,8.0553
10.7305,14.3306
10.7288,14.3464
10.7290,14.3464
10.7283,14.3543
10.7305,14.4244
10.7305,14.4543
10.7305,14.4543
10.7314,14.4612
10.7318,14.4671
10.7333,14.5143
10.7333,14.5143
10.7390,14.5338
10.7430,14.5531
10.7455,14.5732
10.7455,14.5732
10.7629,14.6171
10.7648,14.6227
10.7780,14.6680
10.7883,14.6854
10.7970,14.7032
10.8044,14.7220
10.8044,14.7220
10.8322,14.7602
10.8354,14.7652
10.8595,14.8058
10.8738,14.8201
10.8866,14.8351
10.8962,14.8483
10.8985,14.8515
10.8994,14.8522
10.9349,14.8816
10.9393,14.8856
11.0161,14.9624
11.0732,15.0195
11.1072,15.0818
11.1021,15.1526
11.0648,15.2035
11.0656,15.2043
11.0618,15.2078
10.9093,15.3734
10.9093,15.3734
10.8205,15.5094
10.7665,15.5554
10.6961,15.5650
10.6318,15.5350
10.6095,15.5094
10.5207,15.3734
10.4046,15.2473
10.3682,15.2078
10.3682,15.2078
10.3682,15.2078
10.2864,15.1441
10.1906,15.0695
9.9926,14.9624
9.9926,14.9624
9.9926,14.9624
9.7796,14.8893
9.7796,14.8893
9.7337,14.8816
9.5576,14.8522
9.3324,14.8522
9.1880,14.8763
9.1104,14.8893
9.1104,14.8893
8.8974,14.9624
8.8974,14.9624
8.6994,15.0695
8.6994,15.0695
8.6994,15.0695
8.5218,15.2078
8.3693,15.3734
8.2805,15.5094
8.2265,15.5554
8.1561,15.5650
8.0918,15.5350
8.0695,15.5094
7.9807,15.3734
7.8646,15.2473
7.8282,15.2078
7.8282,15.2078
7.8282,15.2078
7.7464,15.1441
7.6506,15.0695
7.4526,14.9624
7.4526,14.9624
7.4526,14.9624
7.2396,14.8893
7.2396,14.8893
7.1937,14.8816
7.0176,14.8522
6.7924,14.8522
6.6480,14.8763
6.5704,14.8893
6.5704,14.8893
6.3574,14.9624
6.3574,14.9624
6.1594,15.0695
6.1594,15.0695
6.1594,15.0695
5.9818,15.2078
5.8293,15.3734
5.7405,15.5094
5.6865,15.5554
5.6161,15.5650
5.5518,15.5350
5.5295,15.5094
5.4407,15.3734
5.3246,15.2473
5.2882,15.2078
5.2882,15.2078
5.2882,15.2078
5.2064,15.1441
5.1106,15.0695
4.9126,14.9624
4.9126,14.9624
4.9126,14.9624
4.6996,14.8893
4.6996,14.8893
4.6537,14.8816
4.4776,14.8522
4.2524,14.8522
4.1080,14.8763
4.0304,14.8893
4.0304,14.8893
3.8785,14.9414
3.8076,14.9446
3.7462,14.9090
3.7138,14.8458
3.7207,14.7751
3.7485,14.7331
10.5154,7.9662
10.5777,7.9322
Z" /> 
</g>
</g>
</g>
<g style="fill:#000000; fill-opacity:1.0000; 
stroke:#000000; stroke-width:0.0000; stroke-opacity:1; 
stroke-linecap:round; stroke-linejoin:round;">
<circle cx="21.6150" cy="7.3207" r="0.2000" /> 
</g>
<g style="fill:#000000; fill-opacity:1.0000; 
stroke:#000000; stroke-width:0.0212; stroke-opacity:1; 
stroke-linecap:round; stroke-linejoin:round;">
</g>
<g style="fill:#000000; fill-opacity:1.0000; 
stroke:#000000; stroke-width:0.0000; stroke-opacity:1; 
stroke-linecap:round; stroke-linejoin:round;">
<circle cx="9.5150" cy="4.5507" r="0.2000" /> 
</g>
<g style="fill:#000000; fill-opacity:1.0000; 
stroke:#000000; stroke-width:0.0212; stroke-opacity:1; 
stroke-linecap:round; stroke-linejoin:round;">
</g>
<g style="fill:#000000; fill-opacity:1.0000; 
stroke:#000000; stroke-width:0.0000; stroke-opacity:1; 
stroke-linecap:round; stroke-linejoin:round;">
<circle cx="7.9250" cy="11.3907" r="0.2000" /> 
</g>
<g style="fill:#000000; fill-opacity:1.0000; 
stroke:#000000; stroke-width:0.0212; stroke-opacity:1; 
stroke-linecap:round; stroke-linejoin:round;">
</g>
<g style="fill:#000000; fill-opacity:1.0000; 
stroke:#000000; stroke-width:0.0000; stroke-opacity:1; 
stroke-linecap:round; stroke-linejoin:round;">
<circle cx="12.7150" cy="9.0907" r="0.2000" /> 
</g>
<g style="fill:#000000; fill-opacity:1.0000; 
stroke:#000000; stroke-width:0.0212; stroke-opacity:1; 
stroke-linecap:round; stroke-linejoin:round;">
</g>
<g style="fill:#000000; fill-opacity:1.0000; 
stroke:#000000; stroke-width:0.0000; stroke-opacity:1; 
stroke-linecap:round; stroke-linejoin:round;">
<circle cx="5.7250" cy="14.1107" r="0.2000" /> 
</g>
<g style="fill:#000000; fill-opacity:1.0000; 
stroke:#000000; stroke-width:0.0212; stroke-opacity:1; 
stroke-linecap:round; stroke-linejoin:round;">
</g>
<g style="fill:#000000; fill-opacity:1.0000; 
stroke:#000000; stroke-width:0.0000; stroke-opacity:1; 
stroke-linecap:round; stroke-linejoin:round;">
<circle cx="17.1577" cy="10.0481" r="0.2000" /> 
</g>
<g style="fill:#000000; fill-opacity:1.0000; 
stroke:#000000; stroke-width:0.0212; stroke-opacity:1; 
stroke-linecap:round; stroke-linejoin:round;">
</g>
<g style="fill:#000000; fill-opacity:1.0000; 
stroke:#000000; stroke-width:0.0000; stroke-opacity:1; 
stroke-linecap:round; stroke-linejoin:round;">
<circle cx="7.6050" cy="7.8807" r="0.2000" /> 
</g>
<g style="fill:#000000; fill-opacity:1.0000; 
stroke:#000000; stroke-width:0.0212; stroke-opacity:1; 
stroke-linecap:round; stroke-linejoin:round;">
</g>
<g style="fill:#000000; fill-opacity:1.0000; 
stroke:#000000; stroke-width:0.0000; stroke-opacity:1; 
stroke-linecap:round; stroke-linejoin:round;">
<circle cx="26.8150" cy="4.7507" r="0.2000" /> 
</g>
<g style="fill:#000000; fill-opacity:1.0000; 
stroke:#000000; stroke-width:0.0212; stroke-opacity:1; 
stroke-linecap:round; stroke-linejoin:round;">
</g>
<g style="fill:#000000; fill-opacity:1.0000; 
stroke:#000000; stroke-width:0.0000; stroke-opacity:1; 
stroke-linecap:round; stroke-linejoin:round;">
<circle cx="27.5250" cy="9.0907" r="0.2000" /> 
</g>
<g style="fill:#000000; fill-opacity:1.0000; 
stroke:#000000; stroke-width:0.0212; stroke-opacity:1; 
stroke-linecap:round; stroke-linejoin:round;">
</g>
<g style="fill:#000000; fill-opacity:1.0000; 
stroke:#000000; stroke-width:0.0000; stroke-opacity:1; 
stroke-linecap:round; stroke-linejoin:round;">
<circle cx="1.6250" cy="13.5107" r="0.2000" /> 
</g>
<g style="fill:#000000; fill-opacity:1.0000; 
stroke:#000000; stroke-width:0.0212; stroke-opacity:1; 
stroke-linecap:round; stroke-linejoin:round;">
</g>
<g style="fill:#000000; fill-opacity:1.0000; 
stroke:#000000; stroke-width:0.0000; stroke-opacity:1; 
stroke-linecap:round; stroke-linejoin:round;">
<circle cx="24.8750" cy="12.9807" r="0.2000" /> 
</g>
<g style="fill:#000000; fill-opacity:1.0000; 
stroke:#000000; stroke-width:0.0212; stroke-opacity:1; 
stroke-linecap:round; stroke-linejoin:round;">
</g>
<g style="fill:#000000; fill-opacity:1.0000; 
stroke:#000000; stroke-width:0.0000; stroke-opacity:1; 
stroke-linecap:round; stroke-linejoin:round;">
<circle cx="10.3450" cy="9.4607" r="0.2000" /> 
</g>
<g style="fill:#000000; fill-opacity:1.0000; 
stroke:#000000; stroke-width:0.0212; stroke-opacity:1; 
stroke-linecap:round; stroke-linejoin:round;">
</g>
<g style="fill:#000000; fill-opacity:1.0000; 
stroke:#000000; stroke-width:0.0000; stroke-opacity:1; 
stroke-linecap:round; stroke-linejoin:round;">
<circle cx="16.0195" cy="6.8612" r="0.2000" /> 
</g>
<g style="fill:#000000; fill-opacity:1.0000; 
stroke:#000000; stroke-width:0.0212; stroke-opacity:1; 
stroke-linecap:round; stroke-linejoin:round;">
</g>
<g style="fill:#000000; fill-opacity:1.0000; 
stroke:#000000; stroke-width:0.0000; stroke-opacity:1; 
stroke-linecap:round; stroke-linejoin:round;">
<circle cx="4.8650" cy="11.1907" r="0.2000" /> 
</g>
<g style="fill:#000000; fill-opacity:1.0000; 
stroke:#000000; stroke-width:0.0212; stroke-opacity:1; 
stroke-linecap:round; stroke-linejoin:round;">
</g>
<g style="fill:#000000; fill-opacity:1.0000; 
stroke:#000000; stroke-width:0.0000; stroke-opacity:1; 
stroke-linecap:round; stroke-linejoin:round;">
<circle cx="23.3800" cy="5.8857" r="0.2000" /> 
</g>
<g style="fill:#000000; fill-opacity:1.0000; 
stroke:#000000; stroke-width:0.0212; stroke-opacity:1; 
stroke-linecap:round; stroke-linejoin:round;">
</g>
<g style="fill:#000000; fill-opacity:1.0000; 
stroke:#000000; stroke-width:0.0000; stroke-opacity:1; 
stroke-linecap:round; stroke-linejoin:round;">
<circle cx="1.5250" cy="7.2507" r="0.2000" /> 
</g>
<g style="fill:#000000; fill-opacity:1.0000; 
stroke:#000000; stroke-width:0.0212; stroke-opacity:1; 
stroke-linecap:round; stroke-linejoin:round;">
</g>
<g style="fill:#000000; fill-opacity:1.0000; 
stroke:#000000; stroke-width:0.0000; stroke-opacity:1; 
stroke-linecap:round; stroke-linejoin:round;">
<circle cx="17.3276" cy="7.6781" r="0.2000" /> 
</g>
<g style="fill:#000000; fill-opacity:1.0000; 
stroke:#000000; stroke-width:0.0212; stroke-opacity:1; 
stroke-linecap:round; stroke-linejoin:round;">
</g>
<g style="fill:#000000; fill-opacity:1.0000; 
stroke:#000000; stroke-width:0.0000; stroke-opacity:1; 
stroke-linecap:round; stroke-linejoin:round;">
<circle cx="11.3640" cy="6.8111" r="0.2000" /> 
</g>
<g style="fill:#000000; fill-opacity:1.0000; 
stroke:#000000; stroke-width:0.0212; stroke-opacity:1; 
stroke-linecap:round; stroke-linejoin:round;">
</g>
<g style="fill:#000000; fill-opacity:1.0000; 
stroke:#000000; stroke-width:0.0000; stroke-opacity:1; 
stroke-linecap:round; stroke-linejoin:round;">
<circle cx="10.3649" cy="6.8387" r="0.2000" /> 
</g>
<g style="fill:#000000; fill-opacity:1.0000; 
stroke:#000000; stroke-width:0.0212; stroke-opacity:1; 
stroke-linecap:round; stroke-linejoin:round;">
</g>
<g style="fill:#000000; fill-opacity:1.0000; 
stroke:#000000; stroke-width:0.0000; stroke-opacity:1; 
stroke-linecap:round; stroke-linejoin:round;">
<circle cx="1.8250" cy="16.2107" r="0.5000" /> 
</g>
<g style="fill:#000000; fill-opacity:1.0000; 
stroke:#000000; stroke-width:0.0212; stroke-opacity:1; 
stroke-linecap:round; stroke-linejoin:round;">
</g>
<g style="fill:#000000; fill-opacity:1.0000; 
stroke:#000000; stroke-width:0.0000; stroke-opacity:1; 
stroke-linecap:round; stroke-linejoin:round;">
<circle cx="4.3650" cy="16.2107" r="0.5000" /> 
</g>
<g style="fill:#000000; fill-opacity:1.0000; 
stroke:#000000; stroke-width:0.0212; stroke-opacity:1; 
stroke-linecap:round; stroke-linejoin:round;">
</g>
<g style="fill:#000000; fill-opacity:1.0000; 
stroke:#000000; stroke-width:0.0000; stroke-opacity:1; 
stroke-linecap:round; stroke-linejoin:round;">
<circle cx="6.9050" cy="16.2107" r="0.5000" /> 
</g>
<g style="fill:#000000; fill-opacity:1.0000; 
stroke:#000000; stroke-width:0.0212; stroke-opacity:1; 
stroke-linecap:round; stroke-linejoin:round;">
</g>
<g style="fill:#000000; fill-opacity:1.0000; 
stroke:#000000; stroke-width:0.0000; stroke-opacity:1; 
stroke-linecap:round; stroke-linejoin:round;">
<circle cx="9.4450" cy="16.2107" r="0.5000" /> 
</g>
<g style="fill:#000000; fill-opacity:1.0000; 
stroke:#000000; stroke-width:0.0212; stroke-opacity:1; 
stroke-linecap:round; stroke-linejoin:round;">
</g>
<g style="fill:#000000; fill-opacity:1.0000; 
stroke:#000000; stroke-width:0.0000; stroke-opacity:1; 
stroke-linecap:round; stroke-linejoin:round;">
<circle cx="11.9850" cy="16.2107" r="0.5000" /> 
</g>
<g style="fill:#000000; fill-opacity:1.0000; 
stroke:#000000; stroke-width:0.0212; stroke-opacity:1; 
stroke-linecap:round; stroke-linejoin:round;">
</g>
<g style="fill:#000000; fill-opacity:1.0000; 
stroke:#000000; stroke-width:0.0000; stroke-opacity:1; 
stroke-linecap:round; stroke-linejoin:round;">
<circle cx="14.5250" cy="16.2107" r="0.5000" /> 
</g>
<g style="fill:#000000; fill-opacity:1.0000; 
stroke:#000000; stroke-width:0.0212; stroke-opacity:1; 
stroke-linecap:round; stroke-linejoin:round;">
</g>
<g style="fill:#000000; fill-opacity:1.0000; 
stroke:#000000; stroke-width:0.0000; stroke-opacity:1; 
stroke-linecap:round; stroke-linejoin:round;">
<circle cx="17.0650" cy="16.2107" r="0.5000" /> 
</g>
<g style="fill:#000000; fill-opacity:1.0000; 
stroke:#000000; stroke-width:0.0212; stroke-opacity:1; 
stroke-linecap:round; stroke-linejoin:round;">
</g>
<g style="fill:#000000; fill-opacity:1.0000; 
stroke:#000000; stroke-width:0.0000; stroke-opacity:1; 
stroke-linecap:round; stroke-linejoin:round;">
<circle cx="19.6050" cy="16.2107" r="0.5000" /> 
</g>
<g style="fill:#000000; fill-opacity:1.0000; 
stroke:#000000; stroke-width:0.0212; stroke-opacity:1; 
stroke-linecap:round; stroke-linejoin:round;">
</g>
<g style="fill:#000000; fill-opacity:1.0000; 
stroke:#000000; stroke-width:0.0000; stroke-opacity:1; 
stroke-linecap:round; stroke-linejoin:round;">
<circle cx="22.1450" cy="16.2107" r="0.5000" /> 
</g>
<g style="fill:#000000; fill-opacity:1.0000; 
stroke:#000000; stroke-width:0.0212; stroke-opacity:1; 
stroke-linecap:round; stroke-linejoin:round;">
</g>
<g style="fill:#000000; fill-opacity:1.0000; 
stroke:#000000; stroke-width:0.0000; stroke-opacity:1; 
stroke-linecap:round; stroke-linejoin:round;">
<circle cx="24.6850" cy="16.2107" r="0.5000" /> 
</g>
<g style="fill:#000000; fill-opacity:1.0000; 
stroke:#000000; stroke-width:0.0212; stroke-opacity:1; 
stroke-linecap:round; stroke-linejoin:round;">
</g>
<g style="fill:#000000; fill-opacity:1.0000; 
stroke:#000000; stroke-width:0.0000; stroke-opacity:1; 
stroke-linecap:round; stroke-linejoin:round;">
<circle cx="27.2250" cy="16.2107" r="0.5000" /> 
</g>
<g style="fill:#000000; fill-opacity:1.0000; 
stroke:#000000; stroke-width:0.0212; stroke-opacity:1; 
stroke-linecap:round; stroke-linejoin:round;">
</g>
<g style="fill:#FFFFFF; fill-opacity:1.0000; 
stroke:#FFFFFF; stroke-width:0.0212; stroke-opacity:1; 
stroke-linecap:round; stroke-linejoin:round;">
<g >
</g>
<g style="fill:#37CBCB; fill-opacity:1.0000; 
stroke:#37CBCB; stroke-width:0.0212; stroke-opacity:1; 
stroke-linecap:round; stroke-linejoin:round;">
</g>
<g style="fill:#37CBCB; fill-opacity:1.0000; 
stroke:#37CBCB; stroke-width:0.0000; stroke-opacity:1; 
stroke-linecap:round; stroke-linejoin:round;">
<path style="fill:#37CBCB; fill-opacity:1.0000; 
stroke:#37CBCB; stroke-width:0.0000; stroke-opacity:1; 
stroke-linecap:round; stroke-linejoin:round;fill-rule:evenodd;"
d="M 20.9050,5.7157
20.9157,5.6621
20.9460,5.6167
20.9914,5.5864
21.0450,5.5757
21.3250,5.5757
21.3786,5.5864
21.4240,5.6167
21.4543,5.6621
21.4650,5.7157
21.4650,6.0557
21.4543,6.1093
21.4240,6.1547
21.3786,6.1851
21.3250,6.1957
21.0450,6.1957
20.9914,6.1851
20.9460,6.1547
20.9157,6.1093
20.9050,6.0557
Z" /> 
<path style="fill:#37CBCB; fill-opacity:1.0000; 
stroke:#37CBCB; stroke-width:0.0000; stroke-opacity:1; 
stroke-linecap:round; stroke-linejoin:round;fill-rule:evenodd;"
d="M 21.8650,5.7157
21.8757,5.6621
21.9060,5.6167
21.9514,5.5864
22.0050,5.5757
22.2850,5.5757
22.3386,5.5864
22.3840,5.6167
22.4143,5.6621
22.4250,5.7157
22.4250,6.0557
22.4143,6.1093
22.3840,6.1547
22.3386,6.1851
22.2850,6.1957
22.0050,6.1957
21.9514,6.1851
21.9060,6.1547
21.8757,6.1093
21.8650,6.0557
Z" /> 
</g>
<g >
</g>
<g style="fill:#37CBCB; fill-opacity:1.0000; 
stroke:#37CBCB; stroke-width:0.0000; stroke-opacity:1; 
stroke-linecap:round; stroke-linejoin:round;">
<path style="fill:#37CBCB; fill-opacity:1.0000; 
stroke:#37CBCB; stroke-width:0.0000; stroke-opacity:1; 
stroke-linecap:round; stroke-linejoin:round;fill-rule:evenodd;"
d="M 20.9100,12.2407
20.9207,12.1871
20.9510,12.1417
20.9964,12.1114
21.0500,12.1007
21.3300,12.1007
21.3836,12.1114
21.4290,12.1417
21.4593,12.1871
21.4700,12.2407
21.4700,12.5807
21.4593,12.6343
21.4290,12.6797
21.3836,12.7101
21.3300,12.7207
21.0500,12.7207
20.9964,12.7101
20.9510,12.6797
20.9207,12.6343
20.9100,12.5807
Z" /> 
<path style="fill:#37CBCB; fill-opacity:1.0000; 
stroke:#37CBCB; stroke-width:0.0000; stroke-opacity:1; 
stroke-linecap:round; stroke-linejoin:round;fill-rule:evenodd;"
d="M 21.8700,12.2407
21.8807,12.1871
21.9110,12.1417
21.9564,12.1114
22.0100,12.1007
22.2900,12.1007
22.3436,12.1114
22.3890,12.1417
22.4193,12.1871
22.4300,12.2407
22.4300,12.5807
22.4193,12.6343
22.3890,12.6797
22.3436,12.7101
22.2900,12.7207
22.0100,12.7207
21.9564,12.7101
21.9110,12.6797
21.8807,12.6343
21.8700,12.5807
Z" /> 
</g>
<g >
</g>
<g style="fill:#37CBCB; fill-opacity:1.0000; 
stroke:#37CBCB; stroke-width:0.0000; stroke-opacity:1; 
stroke-linecap:round; stroke-linejoin:round;">
<path style="fill:#37CBCB; fill-opacity:1.0000; 
stroke:#37CBCB; stroke-width:0.0000; stroke-opacity:1; 
stroke-linecap:round; stroke-linejoin:round;fill-rule:evenodd;"
d="M 2.6750,17.0607
0.9750,17.0607
0.9750,15.3607
2.6750,15.3607
Z" /> 
<circle cx="4.3650" cy="16.2107" r="0.8500" /> 
<circle cx="6.9050" cy="16.2107" r="0.8500" /> 
<circle cx="9.4450" cy="16.2107" r="0.8500" /> 
<circle cx="11.9850" cy="16.2107" r="0.8500" /> 
<circle cx="14.5250" cy="16.2107" r="0.8500" /> 
<circle cx="17.0650" cy="16.2107" r="0.8500" /> 
<circle cx="19.6050" cy="16.2107" r="0.8500" /> 
<circle cx="22.1450" cy="16.2107" r="0.8500" /> 
<circle cx="24.6850" cy="16.2107" r="0.8500" /> 
<circle cx="27.2250" cy="16.2107" r="0.8500" /> 
</g>
<g >
</g>
<g style="fill:#37CBCB; fill-opacity:1.0000; 
stroke:#37CBCB; stroke-width:0.0000; stroke-opacity:1; 
stroke-linecap:round; stroke-linejoin:round;">
<path style="fill:#37CBCB; fill-opacity:1.0000; 
stroke:#37CBCB; stroke-width:0.0000; stroke-opacity:1; 
stroke-linecap:round; stroke-linejoin:round;fill-rule:evenodd;"
d="M 25.8050,11.9257
25.8153,11.8741
25.8445,11.8303
25.8883,11.8010
25.9400,11.7907
26.2100,11.7907
26.2617,11.8010
26.3055,11.8303
26.3347,11.8741
26.3450,11.9257
26.3450,12.2957
26.3347,12.3474
26.3055,12.3912
26.2617,12.4204
26.2100,12.4307
25.9400,12.4307
25.8883,12.4204
25.8445,12.3912
25.8153,12.3474
25.8050,12.2957
Z" /> 
<path style="fill:#37CBCB; fill-opacity:1.0000; 
stroke:#37CBCB; stroke-width:0.0000; stroke-opacity:1; 
stroke-linecap:round; stroke-linejoin:round;fill-rule:evenodd;"
d="M 26.8250,11.9257
26.8353,11.8741
26.8645,11.8303
26.9083,11.8010
26.9600,11.7907
27.2300,11.7907
27.2817,11.8010
27.3255,11.8303
27.3547,11.8741
27.3650,11.9257
27.3650,12.2957
27.3547,12.3474
27.3255,12.3912
27.2817,12.4204
27.2300,12.4307
26.9600,12.4307
26.9083,12.4204
26.8645,12.3912
26.8353,12.3474
26.8250,12.2957
Z" /> 
</g>
<g >
</g>
<g style="fill:#37CBCB; fill-opacity:1.0000; 
stroke:#37CBCB; stroke-width:0.0000; stroke-opacity:1; 
stroke-linecap:round; stroke-linejoin:round;">
<path style="fill:#37CBCB; fill-opacity:1.0000; 
stroke:#37CBCB; stroke-width:0.0000; stroke-opacity:1; 
stroke-linecap:round; stroke-linejoin:round;fill-rule:evenodd;"
d="M 18.7950,4.4457
19.2450,4.4457
19.2450,6.1957
18.7950,6.1957
Z" /> 
<path style="fill:#37CBCB; fill-opacity:1.0000; 
stroke:#37CBCB; stroke-width:0.0000; stroke-opacity:1; 
stroke-linecap:round; stroke-linejoin:round;fill-rule:evenodd;"
d="M 18.1450,4.4457
18.5950,4.4457
18.5950,6.1957
18.1450,6.1957
Z" /> 
<path style="fill:#37CBCB; fill-opacity:1.0000; 
stroke:#37CBCB; stroke-width:0.0000; stroke-opacity:1; 
stroke-linecap:round; stroke-linejoin:round;fill-rule:evenodd;"
d="M 17.4950,4.4457
17.9450,4.4457
17.9450,6.1957
17.4950,6.1957
Z" /> 
<path style="fill:#37CBCB; fill-opacity:1.0000; 
stroke:#37CBCB; stroke-width:0.0000; stroke-opacity:1; 
stroke-linecap:round; stroke-linejoin:round;fill-rule:evenodd;"
d="M 16.8450,4.4457
17.2950,4.4457
17.2950,6.1957
16.8450,6.1957
Z" /> 
<path style="fill:#37CBCB; fill-opacity:1.0000; 
stroke:#37CBCB; stroke-width:0.0000; stroke-opacity:1; 
stroke-linecap:round; stroke-linejoin:round;fill-rule:evenodd;"
d="M 16.1950,4.4457
16.6450,4.4457
16.6450,6.1957
16.1950,6.1957
Z" /> 
<path style="fill:#37CBCB; fill-opacity:1.0000; 
stroke:#37CBCB; stroke-width:0.0000; stroke-opacity:1; 
stroke-linecap:round; stroke-linejoin:round;fill-rule:evenodd;"
d="M 15.5450,4.4457
15.9950,4.4457
15.9950,6.1957
15.5450,6.1957
Z" /> 
<path style="fill:#37CBCB; fill-opacity:1.0000; 
stroke:#37CBCB; stroke-width:0.0000; stroke-opacity:1; 
stroke-linecap:round; stroke-linejoin:round;fill-rule:evenodd;"
d="M 14.8950,4.4457
15.3450,4.4457
15.3450,6.1957
14.8950,6.1957
Z" /> 
<path style="fill:#37CBCB; fill-opacity:1.0000; 
stroke:#37CBCB; stroke-width:0.0000; stroke-opacity:1; 
stroke-linecap:round; stroke-linejoin:round;fill-rule:evenodd;"
d="M 14.2450,4.4457
14.6950,4.4457
14.6950,6.1957
14.2450,6.1957
Z" /> 
<path style="fill:#37CBCB; fill-opacity:1.0000; 
stroke:#37CBCB; stroke-width:0.0000; stroke-opacity:1; 
stroke-linecap:round; stroke-linejoin:round;fill-rule:evenodd;"
d="M 13.5950,4.4457
14.0450,4.4457
14.0450,6.1957
13.5950,6.1957
Z" /> 
<path style="fill:#37CBCB; fill-opacity:1.0000; 
stroke:#37CBCB; stroke-width:0.0000; stroke-opacity:1; 
stroke-linecap:round; stroke-linejoin:round;fill-rule:evenodd;"
d="M 12.9450,4.4457
13.3950,4.4457
13.3950,6.1957
12.9450,6.1957
Z" /> 
<path style="fill:#37CBCB; fill-opacity:1.0000; 
stroke:#37CBCB; stroke-width:0.0000; stroke-opacity:1; 
stroke-linecap:round; stroke-linejoin:round;fill-rule:evenodd;"
d="M 12.2950,4.4457
12.7450,4.4457
12.7450,6.1957
12.2950,6.1957
Z" /> 
<path style="fill:#37CBCB; fill-opacity:1.0000; 
stroke:#37CBCB; stroke-width:0.0000; stroke-opacity:1; 
stroke-linecap:round; stroke-linejoin:round;fill-rule:evenodd;"
d="M 11.6450,4.4457
12.0950,4.4457
12.0950,6.1957
11.6450,6.1957
Z" /> 
<path style="fill:#37CBCB; fill-opacity:1.0000; 
stroke:#37CBCB; stroke-width:0.0000; stroke-opacity:1; 
stroke-linecap:round; stroke-linejoin:round;fill-rule:evenodd;"
d="M 10.9950,4.4457
11.4450,4.4457
11.4450,6.1957
10.9950,6.1957
Z" /> 
<path style="fill:#37CBCB; fill-opacity:1.0000; 
stroke:#37CBCB; stroke-width:0.0000; stroke-opacity:1; 
stroke-linecap:round; stroke-linejoin:round;fill-rule:evenodd;"
d="M 10.3450,4.4457
10.7950,4.4457
10.7950,6.1957
10.3450,6.1957
Z" /> 
<path style="fill:#37CBCB; fill-opacity:1.0000; 
stroke:#37CBCB; stroke-width:0.0000; stroke-opacity:1; 
stroke-linecap:round; stroke-linejoin:round;fill-rule:evenodd;"
d="M 10.3450,11.6457
10.7950,11.6457
10.7950,13.3957
10.3450,13.3957
Z" /> 
<path style="fill:#37CBCB; fill-opacity:1.0000; 
stroke:#37CBCB; stroke-width:0.0000; stroke-opacity:1; 
stroke-linecap:round; stroke-linejoin:round;fill-rule:evenodd;"
d="M 10.9950,11.6457
11.4450,11.6457
11.4450,13.3957
10.9950,13.3957
Z" /> 
<path style="fill:#37CBCB; fill-opacity:1.0000; 
stroke:#37CBCB; stroke-width:0.0000; stroke-opacity:1; 
stroke-linecap:round; stroke-linejoin:round;fill-rule:evenodd;"
d="M 11.6450,11.6457
12.0950,11.6457
12.0950,13.3957
11.6450,13.3957
Z" /> 
<path style="fill:#37CBCB; fill-opacity:1.0000; 
stroke:#37CBCB; stroke-width:0.0000; stroke-opacity:1; 
stroke-linecap:round; stroke-linejoin:round;fill-rule:evenodd;"
d="M 12.2950,11.6457
12.7450,11.6457
12.7450,13.3957
12.2950,13.3957
Z" /> 
<path style="fill:#37CBCB; fill-opacity:1.0000; 
stroke:#37CBCB; stroke-width:0.0000; stroke-opacity:1; 
stroke-linecap:round; stroke-linejoin:round;fill-rule:evenodd;"
d="M 12.9450,11.6457
13.3950,11.6457
13.3950,13.3957
12.9450,13.3957
Z" /> 
<path style="fill:#37CBCB; fill-opacity:1.0000; 
stroke:#37CBCB; stroke-width:0.0000; stroke-opacity:1; 
stroke-linecap:round; stroke-linejoin:round;fill-rule:evenodd;"
d="M 13.5950,11.6457
14.0450,11.6457
14.0450,13.3957
13.5950,13.3957
Z" /> 
<path style="fill:#37CBCB; fill-opacity:1.0000; 
stroke:#37CBCB; stroke-width:0.0000; stroke-opacity:1; 
stroke-linecap:round; stroke-linejoin:round;fill-rule:evenodd;"
d="M 14.2450,11.6457
14.6950,11.6457
14.6950,13.3957
14.2450,13.3957
Z" /> 
<path style="fill:#37CBCB; fill-opacity:1.0000; 
stroke:#37CBCB; stroke-width:0.0000; stroke-opacity:1; 
stroke-linecap:round; stroke-linejoin:round;fill-rule:evenodd;"
d="M 14.8950,11.6457
15.3450,11.6457
15.3450,13.3957
14.8950,13.3957
Z" /> 
<path style="fill:#37CBCB; fill-opacity:1.0000; 
stroke:#37CBCB; stroke-width:0.0000; stroke-opacity:1; 
stroke-linecap:round; stroke-linejoin:round;fill-rule:evenodd;"
d="M 15.5450,11.6457
15.9950,11.6457
15.9950,13.3957
15.5450,13.3957
Z" /> 
<path style="fill:#37CBCB; fill-opacity:1.0000; 
stroke:#37CBCB; stroke-width:0.0000; stroke-opacity:1; 
stroke-linecap:round; stroke-linejoin:round;fill-rule:evenodd;"
d="M 16.1950,11.6457
16.6450,11.6457
16.6450,13.3957
16.1950,13.3957
Z" /> 
<path style="fill:#37CBCB; fill-opacity:1.0000; 
stroke:#37CBCB; stroke-width:0.0000; stroke-opacity:1; 
stroke-linecap:round; stroke-linejoin:round;fill-rule:evenodd;"
d="M 16.8450,11.6457
17.2950,11.6457
17.2950,13.3957
16.8450,13.3957
Z" /> 
<path style="fill:#37CBCB; fill-opacity:1.0000; 
stroke:#37CBCB; stroke-width:0.0000; stroke-opacity:1; 
stroke-linecap:round; stroke-linejoin:round;fill-rule:evenodd;"
d="M 17.4950,11.6457
17.9450,11.6457
17.9450,13.3957
17.4950,13.3957
Z" /> 
<path style="fill:#37CBCB; fill-opacity:1.0000; 
stroke:#37CBCB; stroke-width:0.0000; stroke-opacity:1; 
stroke-linecap:round; stroke-linejoin:round;fill-rule:evenodd;"
d="M 18.1450,11.6457
18.5950,11.6457
18.5950,13.3957
18.1450,13.3957
Z" /> 
<path style="fill:#37CBCB; fill-opacity:1.0000; 
stroke:#37CBCB; stroke-width:0.0000; stroke-opacity:1; 
stroke-linecap:round; stroke-linejoin:round;fill-rule:evenodd;"
d="M 18.7950,11.6457
19.2450,11.6457
19.2450,13.3957
18.7950,13.3957
Z" /> 
</g>
<g >
</g>
<g style="fill:#37CBCB; fill-opacity:1.0000; 
stroke:#37CBCB; stroke-width:0.0000; stroke-opacity:1; 
stroke-linecap:round; stroke-linejoin:round;">
<path style="fill:#37CBCB; fill-opacity:1.0000; 
stroke:#37CBCB; stroke-width:0.0000; stroke-opacity:1; 
stroke-linecap:round; stroke-linejoin:round;fill-rule:evenodd;"
d="M 22.7150,9.5107
22.6576,9.4993
22.6089,9.4668
22.5764,9.4181
22.5650,9.3607
22.5650,9.0607
22.5764,9.0033
22.6089,8.9546
22.6576,8.9221
22.7150,8.9107
23.4150,8.9107
23.4724,8.9221
23.5211,8.9546
23.5536,9.0033
23.5650,9.0607
23.5650,9.3607
23.5536,9.4181
23.5211,9.4668
23.4724,9.4993
23.4150,9.5107
Z" /> 
<path style="fill:#37CBCB; fill-opacity:1.0000; 
stroke:#37CBCB; stroke-width:0.0000; stroke-opacity:1; 
stroke-linecap:round; stroke-linejoin:round;fill-rule:evenodd;"
d="M 22.7150,8.5107
22.6576,8.4993
22.6089,8.4668
22.5764,8.4181
22.5650,8.3607
22.5650,8.0607
22.5764,8.0033
22.6089,7.9546
22.6576,7.9221
22.7150,7.9107
23.4150,7.9107
23.4724,7.9221
23.5211,7.9546
23.5536,8.0033
23.5650,8.0607
23.5650,8.3607
23.5536,8.4181
23.5211,8.4668
23.4724,8.4993
23.4150,8.5107
Z" /> 
<path style="fill:#37CBCB; fill-opacity:1.0000; 
stroke:#37CBCB; stroke-width:0.0000; stroke-opacity:1; 
stroke-linecap:round; stroke-linejoin:round;fill-rule:evenodd;"
d="M 22.7150,7.5107
22.6576,7.4993
22.6089,7.4668
22.5764,7.4181
22.5650,7.3607
22.5650,7.0607
22.5764,7.0033
22.6089,6.9546
22.6576,6.9221
22.7150,6.9107
23.4150,6.9107
23.4724,6.9221
23.5211,6.9546
23.5536,7.0033
23.5650,7.0607
23.5650,7.3607
23.5536,7.4181
23.5211,7.4668
23.4724,7.4993
23.4150,7.5107
Z" /> 
<path style="fill:#37CBCB; fill-opacity:1.0000; 
stroke:#37CBCB; stroke-width:0.0000; stroke-opacity:1; 
stroke-linecap:round; stroke-linejoin:round;fill-rule:evenodd;"
d="M 24.4400,11.8607
24.3539,11.8436
24.2809,11.7948
24.2321,11.7218
24.2150,11.6357
24.2150,11.0857
24.2321,10.9996
24.2809,10.9266
24.3539,10.8778
24.4400,10.8607
24.8900,10.8607
24.9761,10.8778
25.0491,10.9266
25.0979,10.9996
25.1150,11.0857
25.1150,11.6357
25.0979,11.7218
25.0491,11.7948
24.9761,11.8436
24.8900,11.8607
Z" /> 
<path style="fill:#37CBCB; fill-opacity:1.0000; 
stroke:#37CBCB; stroke-width:0.0000; stroke-opacity:1; 
stroke-linecap:round; stroke-linejoin:round;fill-rule:evenodd;"
d="M 24.4400,5.5607
24.3539,5.5436
24.2809,5.4948
24.2321,5.4218
24.2150,5.3357
24.2150,4.7857
24.2321,4.6996
24.2809,4.6266
24.3539,4.5778
24.4400,4.5607
24.8900,4.5607
24.9761,4.5778
25.0491,4.6266
25.0979,4.6996
25.1150,4.7857
25.1150,5.3357
25.0979,5.4218
25.0491,5.4948
24.9761,5.5436
24.8900,5.5607
Z" /> 
</g>
<g >
</g>
<g style="fill:#37CBCB; fill-opacity:1.0000; 
stroke:#37CBCB; stroke-width:0.0000; stroke-opacity:1; 
stroke-linecap:round; stroke-linejoin:round;">
<path style="fill:#37CBCB; fill-opacity:1.0000; 
stroke:#37CBCB; stroke-width:0.0000; stroke-opacity:1; 
stroke-linecap:round; stroke-linejoin:round;fill-rule:evenodd;"
d="M 8.5250,6.6407
8.5786,6.6514
8.6240,6.6817
8.6543,6.7271
8.6650,6.7807
8.6650,7.0607
8.6543,7.1143
8.6240,7.1597
8.5786,7.1901
8.5250,7.2007
8.1850,7.2007
8.1314,7.1901
8.0860,7.1597
8.0557,7.1143
8.0450,7.0607
8.0450,6.7807
8.0557,6.7271
8.0860,6.6817
8.1314,6.6514
8.1850,6.6407
Z" /> 
<path style="fill:#37CBCB; fill-opacity:1.0000; 
stroke:#37CBCB; stroke-width:0.0000; stroke-opacity:1; 
stroke-linecap:round; stroke-linejoin:round;fill-rule:evenodd;"
d="M 8.5250,7.6007
8.5786,7.6114
8.6240,7.6417
8.6543,7.6871
8.6650,7.7407
8.6650,8.0207
8.6543,8.0743
8.6240,8.1197
8.5786,8.1501
8.5250,8.1607
8.1850,8.1607
8.1314,8.1501
8.0860,8.1197
8.0557,8.0743
8.0450,8.0207
8.0450,7.7407
8.0557,7.6871
8.0860,7.6417
8.1314,7.6114
8.1850,7.6007
Z" /> 
</g>
<g >
</g>
<g style="fill:#37CBCB; fill-opacity:1.0000; 
stroke:#37CBCB; stroke-width:0.0000; stroke-opacity:1; 
stroke-linecap:round; stroke-linejoin:round;">
<path style="fill:#37CBCB; fill-opacity:1.0000; 
stroke:#37CBCB; stroke-width:0.0000; stroke-opacity:1; 
stroke-linecap:round; stroke-linejoin:round;fill-rule:evenodd;"
d="M 8.2050,10.2007
8.1514,10.1901
8.1060,10.1597
8.0757,10.1143
8.0650,10.0607
8.0650,9.7807
8.0757,9.7271
8.1060,9.6817
8.1514,9.6514
8.2050,9.6407
8.5450,9.6407
8.5986,9.6514
8.6440,9.6817
8.6743,9.7271
8.6850,9.7807
8.6850,10.0607
8.6743,10.1143
8.6440,10.1597
8.5986,10.1901
8.5450,10.2007
Z" /> 
<path style="fill:#37CBCB; fill-opacity:1.0000; 
stroke:#37CBCB; stroke-width:0.0000; stroke-opacity:1; 
stroke-linecap:round; stroke-linejoin:round;fill-rule:evenodd;"
d="M 8.2050,9.2407
8.1514,9.2301
8.1060,9.1997
8.0757,9.1543
8.0650,9.1007
8.0650,8.8207
8.0757,8.7671
8.1060,8.7217
8.1514,8.6914
8.2050,8.6807
8.5450,8.6807
8.5986,8.6914
8.6440,8.7217
8.6743,8.7671
8.6850,8.8207
8.6850,9.1007
8.6743,9.1543
8.6440,9.1997
8.5986,9.2301
8.5450,9.2407
Z" /> 
</g>
<g >
</g>
<g style="fill:#37CBCB; fill-opacity:1.0000; 
stroke:#37CBCB; stroke-width:0.0000; stroke-opacity:1; 
stroke-linecap:round; stroke-linejoin:round;">
<path style="fill:#37CBCB; fill-opacity:1.0000; 
stroke:#37CBCB; stroke-width:0.0000; stroke-opacity:1; 
stroke-linecap:round; stroke-linejoin:round;fill-rule:evenodd;"
d="M 4.4250,6.6107
5.6250,6.6107
5.6250,8.0107
4.4250,8.0107
Z" /> 
<path style="fill:#37CBCB; fill-opacity:1.0000; 
stroke:#37CBCB; stroke-width:0.0000; stroke-opacity:1; 
stroke-linecap:round; stroke-linejoin:round;fill-rule:evenodd;"
d="M 4.4250,8.8107
5.6250,8.8107
5.6250,10.2107
4.4250,10.2107
Z" /> 
<path style="fill:#37CBCB; fill-opacity:1.0000; 
stroke:#37CBCB; stroke-width:0.0000; stroke-opacity:1; 
stroke-linecap:round; stroke-linejoin:round;fill-rule:evenodd;"
d="M 6.0250,8.8107
7.2250,8.8107
7.2250,10.2107
6.0250,10.2107
Z" /> 
<path style="fill:#37CBCB; fill-opacity:1.0000; 
stroke:#37CBCB; stroke-width:0.0000; stroke-opacity:1; 
stroke-linecap:round; stroke-linejoin:round;fill-rule:evenodd;"
d="M 6.0250,6.6107
7.2250,6.6107
7.2250,8.0107
6.0250,8.0107
Z" /> 
</g>
<g >
</g>
<g style="fill:#37CBCB; fill-opacity:1.0000; 
stroke:#37CBCB; stroke-width:0.0000; stroke-opacity:1; 
stroke-linecap:round; stroke-linejoin:round;">
<path style="fill:#37CBCB; fill-opacity:1.0000; 
stroke:#37CBCB; stroke-width:0.0000; stroke-opacity:1; 
stroke-linecap:round; stroke-linejoin:round;fill-rule:evenodd;"
d="M 16.5150,15.0257
16.5047,15.0774
16.4755,15.1212
16.4317,15.1504
16.3800,15.1607
16.1100,15.1607
16.0583,15.1504
16.0145,15.1212
15.9853,15.0774
15.9750,15.0257
15.9750,14.6557
15.9853,14.6041
16.0145,14.5603
16.0583,14.5310
16.1100,14.5207
16.3800,14.5207
16.4317,14.5310
16.4755,14.5603
16.5047,14.6041
16.5150,14.6557
Z" /> 
<path style="fill:#37CBCB; fill-opacity:1.0000; 
stroke:#37CBCB; stroke-width:0.0000; stroke-opacity:1; 
stroke-linecap:round; stroke-linejoin:round;fill-rule:evenodd;"
d="M 15.4950,15.0257
15.4847,15.0774
15.4555,15.1212
15.4117,15.1504
15.3600,15.1607
15.0900,15.1607
15.0383,15.1504
14.9945,15.1212
14.9653,15.0774
14.9550,15.0257
14.9550,14.6557
14.9653,14.6041
14.9945,14.5603
15.0383,14.5310
15.0900,14.5207
15.3600,14.5207
15.4117,14.5310
15.4555,14.5603
15.4847,14.6041
15.4950,14.6557
Z" /> 
</g>
<g >
</g>
<g style="fill:#121212; fill-opacity:1.0000; 
stroke:#121212; stroke-width:0.0000; stroke-opacity:1; 
stroke-linecap:round; stroke-linejoin:round;">
<circle cx="21.6150" cy="7.3207" r="0.4000" /> 
</g>
<g style="fill:#121212; fill-opacity:1.0000; 
stroke:#121212; stroke-width:0.0212; stroke-opacity:1; 
stroke-linecap:round; stroke-linejoin:round;">
</g>
<g style="fill:#121212; fill-opacity:1.0000; 
stroke:#121212; stroke-width:0.0000; stroke-opacity:1; 
stroke-linecap:round; stroke-linejoin:round;">
<circle cx="9.5150" cy="4.5507" r="0.4000" /> 
</g>
<g style="fill:#121212; fill-opacity:1.0000; 
stroke:#121212; stroke-width:0.0212; stroke-opacity:1; 
stroke-linecap:round; stroke-linejoin:round;">
</g>
<g style="fill:#121212; fill-opacity:1.0000; 
stroke:#121212; stroke-width:0.0000; stroke-opacity:1; 
stroke-linecap:round; stroke-linejoin:round;">
<circle cx="7.9250" cy="11.3907" r="0.4000" /> 
</g>
<g style="fill:#121212; fill-opacity:1.0000; 
stroke:#121212; stroke-width:0.0212; stroke-opacity:1; 
stroke-linecap:round; stroke-linejoin:round;">
</g>
<g style="fill:#121212; fill-opacity:1.0000; 
stroke:#121212; stroke-width:0.0000; stroke-opacity:1; 
stroke-linecap:round; stroke-linejoin:round;">
<circle cx="12.7150" cy="9.0907" r="0.4000" /> 
</g>
<g style="fill:#121212; fill-opacity:1.0000; 
stroke:#121212; stroke-width:0.0212; stroke-opacity:1; 
stroke-linecap:round; stroke-linejoin:round;">
</g>
<g style="fill:#121212; fill-opacity:1.0000; 
stroke:#121212; stroke-width:0.0000; stroke-opacity:1; 
stroke-linecap:round; stroke-linejoin:round;">
<circle cx="5.7250" cy="14.1107" r="0.4000" /> 
</g>
<g style="fill:#121212; fill-opacity:1.0000; 
stroke:#121212; stroke-width:0.0212; stroke-opacity:1; 
stroke-linecap:round; stroke-linejoin:round;">
</g>
<g style="fill:#121212; fill-opacity:1.0000; 
stroke:#121212; stroke-width:0.0000; stroke-opacity:1; 
stroke-linecap:round; stroke-linejoin:round;">
<circle cx="17.1577" cy="10.0481" r="0.4000" /> 
</g>
<g style="fill:#121212; fill-opacity:1.0000; 
stroke:#121212; stroke-width:0.0212; stroke-opacity:1; 
stroke-linecap:round; stroke-linejoin:round;">
</g>
<g style="fill:#121212; fill-opacity:1.0000; 
stroke:#121212; stroke-width:0.0000; stroke-opacity:1; 
stroke-linecap:round; stroke-linejoin:round;">
<circle cx="7.6050" cy="7.8807" r="0.4000" /> 
</g>
<g style="fill:#121212; fill-opacity:1.0000; 
stroke:#121212; stroke-width:0.0212; stroke-opacity:1; 
stroke-linecap:round; stroke-linejoin:round;">
</g>
<g style="fill:#121212; fill-opacity:1.0000; 
stroke:#121212; stroke-width:0.0000; stroke-opacity:1; 
stroke-linecap:round; stroke-linejoin:round;">
<circle cx="26.8150" cy="4.7507" r="0.4000" /> 
</g>
<g style="fill:#121212; fill-opacity:1.0000; 
stroke:#121212; stroke-width:0.0212; stroke-opacity:1; 
stroke-linecap:round; stroke-linejoin:round;">
</g>
<g style="fill:#121212; fill-opacity:1.0000; 
stroke:#121212; stroke-width:0.0000; stroke-opacity:1; 
stroke-linecap:round; stroke-linejoin:round;">
<circle cx="27.5250" cy="9.0907" r="0.4000" /> 
</g>
<g style="fill:#121212; fill-opacity:1.0000; 
stroke:#121212; stroke-width:0.0212; stroke-opacity:1; 
stroke-linecap:round; stroke-linejoin:round;">
</g>
<g style="fill:#121212; fill-opacity:1.0000; 
stroke:#121212; stroke-width:0.0000; stroke-opacity:1; 
stroke-linecap:round; stroke-linejoin:round;">
<circle cx="1.6250" cy="13.5107" r="0.4000" /> 
</g>
<g style="fill:#121212; fill-opacity:1.0000; 
stroke:#121212; stroke-width:0.0212; stroke-opacity:1; 
stroke-linecap:round; stroke-linejoin:round;">
</g>
<g style="fill:#121212; fill-opacity:1.0000; 
stroke:#121212; stroke-width:0.0000; stroke-opacity:1; 
stroke-linecap:round; stroke-linejoin:round;">
<circle cx="24.8750" cy="12.9807" r="0.4000" /> 
</g>
<g style="fill:#121212; fill-opacity:1.0000; 
stroke:#121212; stroke-width:0.0212; stroke-opacity:1; 
stroke-linecap:round; stroke-linejoin:round;">
</g>
<g style="fill:#121212; fill-opacity:1.0000; 
stroke:#121212; stroke-width:0.0000; stroke-opacity:1; 
stroke-linecap:round; stroke-linejoin:round;">
<circle cx="10.3450" cy="9.4607" r="0.4000" /> 
</g>
<g style="fill:#121212; fill-opacity:1.0000; 
stroke:#121212; stroke-width:0.0212; stroke-opacity:1; 
stroke-linecap:round; stroke-linejoin:round;">
</g>
<g style="fill:#121212; fill-opacity:1.0000; 
stroke:#121212; stroke-width:0.0000; stroke-opacity:1; 
stroke-linecap:round; stroke-linejoin:round;">
<circle cx="16.0195" cy="6.8612" r="0.4000" /> 
</g>
<g style="fill:#121212; fill-opacity:1.0000; 
stroke:#121212; stroke-width:0.0212; stroke-opacity:1; 
stroke-linecap:round; stroke-linejoin:round;">
</g>
<g style="fill:#121212; fill-opacity:1.0000; 
stroke:#121212; stroke-width:0.0000; stroke-opacity:1; 
stroke-linecap:round; stroke-linejoin:round;">
<circle cx="4.8650" cy="11.1907" r="0.4000" /> 
</g>
<g style="fill:#121212; fill-opacity:1.0000; 
stroke:#121212; stroke-width:0.0212; stroke-opacity:1; 
stroke-linecap:round; stroke-linejoin:round;">
</g>
<g style="fill:#121212; fill-opacity:1.0000; 
stroke:#121212; stroke-width:0.0000; stroke-opacity:1; 
stroke-linecap:round; stroke-linejoin:round;">
<circle cx="23.3800" cy="5.8857" r="0.4000" /> 
</g>
<g style="fill:#121212; fill-opacity:1.0000; 
stroke:#121212; stroke-width:0.0212; stroke-opacity:1; 
stroke-linecap:round; stroke-linejoin:round;">
</g>
<g style="fill:#121212; fill-opacity:1.0000; 
stroke:#121212; stroke-width:0.0000; stroke-opacity:1; 
stroke-linecap:round; stroke-linejoin:round;">
<circle cx="1.5250" cy="7.2507" r="0.4000" /> 
</g>
<g style="fill:#121212; fill-opacity:1.0000; 
stroke:#121212; stroke-width:0.0212; stroke-opacity:1; 
stroke-linecap:round; stroke-linejoin:round;">
</g>
<g style="fill:#121212; fill-opacity:1.0000; 
stroke:#121212; stroke-width:0.0000; stroke-opacity:1; 
stroke-linecap:round; stroke-linejoin:round;">
<circle cx="17.3276" cy="7.6781" r="0.4000" /> 
</g>
<g style="fill:#121212; fill-opacity:1.0000; 
stroke:#121212; stroke-width:0.0212; stroke-opacity:1; 
stroke-linecap:round; stroke-linejoin:round;">
</g>
<g style="fill:#121212; fill-opacity:1.0000; 
stroke:#121212; stroke-width:0.0000; stroke-opacity:1; 
stroke-linecap:round; stroke-linejoin:round;">
<circle cx="11.3640" cy="6.8111" r="0.4000" /> 
</g>
<g style="fill:#121212; fill-opacity:1.0000; 
stroke:#121212; stroke-width:0.0212; stroke-opacity:1; 
stroke-linecap:round; stroke-linejoin:round;">
</g>
<g style="fill:#121212; fill-opacity:1.0000; 
stroke:#121212; stroke-width:0.0000; stroke-opacity:1; 
stroke-linecap:round; stroke-linejoin:round;">
<circle cx="10.3649" cy="6.8387" r="0.4000" /> 
</g>
<g style="fill:#121212; fill-opacity:1.0000; 
stroke:#121212; stroke-width:0.0212; stroke-opacity:1; 
stroke-linecap:round; stroke-linejoin:round;">
</g>
<g >
</g>
<g style="fill:#37CBCB; fill-opacity:1.0000; 
stroke:#37CBCB; stroke-width:0.0212; stroke-opacity:1; 
stroke-linecap:round; stroke-linejoin:round;">
</g>
<g style="fill:#37CBCB; fill-opacity:1.0000; 
stroke:#37CBCB; stroke-width:0.2500; stroke-opacity:1; 
stroke-linecap:round; stroke-linejoin:round;">
</g>
<g style="fill:#37CBCB; fill-opacity:0.0; 
stroke:#37CBCB; stroke-width:0.2500; stroke-opacity:1; 
stroke-linecap:round; stroke-linejoin:round;">
<path d="M22.1450 5.8857
L23.8400 5.8857
" />
<path d="M22.1500 12.4107
L22.1500 15.0304
" />
<path d="M22.1500 15.0304
L22.1450 15.0354
" />
<path d="M6.6250 7.6607
L6.6250 7.3107
" />
<path d="M16.4200 6.5210
L16.3597 6.5210
" />
<path d="M23.8400 5.8857
L24.6650 5.0607
" />
<path d="M17.7332 11.3204
L17.7200 11.3204
" />
<path d="M17.7200 10.6104
L17.1577 10.0481
" />
<path d="M16.4200 4.1204
L13.1700 4.1204
" />
<path d="M5.0250 9.2607
L6.6250 7.6607
" />
<path d="M22.1450 5.8857
L22.1450 9.4313
" />
<path d="M13.1700 5.3207
L13.1700 4.1204
" />
<path d="M16.4200 5.3207
L16.4200 4.1204
" />
<path d="M22.1450 9.4313
L20.8511 10.7252
" />
<path d="M5.0250 9.5107
L5.0250 9.2607
" />
<path d="M8.3550 8.9407
L8.3750 8.9607
" />
<path d="M7.6050 7.8807
L7.1950 7.8807
" />
<path d="M16.4200 5.3207
L16.4200 6.5210
" />
<path d="M8.3550 7.8807
L8.3550 8.9407
" />
<path d="M20.8511 10.7252
L20.7062 10.8701
" />
<path d="M8.3550 7.8807
L7.6050 7.8807
" />
<path d="M16.3597 6.5210
L16.0195 6.8612
" />
<path d="M17.7332 11.3203
L17.7332 11.3204
" />
<path d="M22.1450 16.2107
L22.1450 15.0354
" />
<path d="M17.7200 12.5207
L17.7200 11.3204
" />
<path d="M17.7200 12.5207
L17.7200 10.6104
" />
<path d="M7.1950 7.8807
L6.6250 7.3107
" />
<path d="M13.1700 11.2831
L13.6134 10.8397
" />
<path d="M13.6297 14.1807
L15.5850 14.1807
" />
<path d="M13.6134 10.8397
L15.2360 10.8397
" />
<path d="M20.6621 6.4086
L19.0200 6.4086
" />
<path d="M21.1850 5.8857
L20.6621 6.4086
" />
<path d="M19.0200 7.0557
L19.0200 6.4086
" />
<path d="M16.2450 15.3907
L17.0650 16.2107
" />
<path d="M15.2360 10.8397
L19.0200 7.0557
" />
<path d="M13.1700 12.5207
L13.1700 13.7210
" />
<path d="M19.0200 5.3207
L19.0200 6.4086
" />
<path d="M13.1700 12.5207
L13.1700 11.2831
" />
<path d="M15.5850 14.1807
L16.2450 14.8407
" />
<path d="M13.1700 13.7210
L13.6297 14.1807
" />
<path d="M16.2450 14.8407
L16.2450 15.3907
" />
<path d="M20.0997 11.3204
L21.1900 12.4107
" />
<path d="M21.1900 12.4107
L19.6050 13.9957
" />
<path d="M18.3700 12.5207
L18.3700 11.3204
" />
<path d="M18.3700 11.3204
L20.0997 11.3204
" />
<path d="M19.6050 13.9957
L19.6050 16.2107
" />
<path d="M25.0039 4.1204
L25.4764 4.5929
" />
<path d="M17.7200 4.1204
L25.0039 4.1204
" />
<path d="M25.4764 4.5929
L25.4764 6.9760
" />
<path d="M27.2250 16.2107
L27.2250 15.0354
" />
<path d="M17.7200 5.3207
L17.7200 4.1204
" />
<path d="M27.7085 14.5519
L27.7085 11.6775
" />
<path d="M27.7085 11.6775
L24.2417 8.2107
" />
<path d="M25.4764 6.9760
L24.2417 8.2107
" />
<path d="M27.2250 15.0354
L27.7085 14.5519
" />
<path d="M24.2417 8.2107
L23.0650 8.2107
" />
<path d="M24.6850 16.2107
L24.6850 15.0354
" />
<path d="M17.0700 7.4204
L17.0700 5.3207
" />
<path d="M26.0750 13.6454
L24.6850 15.0354
" />
<path d="M26.0750 12.1107
L26.0750 13.6454
" />
<path d="M17.3276 7.6781
L17.0700 7.4204
" />
<path d="M11.2200 6.6671
L11.3640 6.8111
" />
<path d="M11.2200 5.3207
L11.2200 6.6671
" />
<path d="M11.8700 12.5207
L11.8700 13.7857
" />
<path d="M11.8700 13.7857
L9.4450 16.2107
" />
<path d="M7.7130 16.2107
L10.2027 13.7210
" />
<path d="M10.2027 13.7210
L10.5700 13.7210
" />
<path d="M10.5700 13.7210
L10.5700 12.5207
" />
<path d="M6.9050 16.2107
L7.7130 16.2107
" />
<path d="M5.2427 16.2107
L10.2427 11.2107
" />
<path d="M11.0100 11.2107
L11.2200 11.4207
" />
<path d="M10.2427 11.2107
L11.0100 11.2107
" />
<path d="M11.2200 11.4207
L11.2200 12.5207
" />
<path d="M4.3650 16.2107
L5.2427 16.2107
" />
<path d="M10.5700 6.6336
L10.5700 5.3207
" />
<path d="M10.3649 6.8387
L10.5700 6.6336
" />
<path d="M14.4700 12.5207
L14.4700 13.7210
" />
<path d="M19.0200 12.5207
L19.0200 13.7210
" />
<path d="M14.4700 13.7210
L19.0200 13.7210
" />
<path d="M13.8200 11.3204
L16.4200 11.3204
" />
<path d="M16.4200 12.5207
L16.4200 11.3204
" />
<path d="M13.8200 12.5207
L13.8200 11.3204
" />
<path d="M24.1950 9.2107
L23.0650 9.2107
" />
<path d="M27.0950 12.1107
L24.1950 9.2107
" />
<path d="M14.5250 16.2107
L14.5250 16.0407
" />
<path d="M12.5200 14.0357
L12.5200 12.5207
" />
<path d="M14.5250 16.0407
L12.5200 14.0357
" />
<path d="M15.2250 15.5107
L14.5250 16.2107
" />
<path d="M15.2250 14.8407
L15.2250 15.5107
" />
<path d="M14.4700 6.5074
L14.4700 5.3207
" />
<path d="M8.3750 9.9207
L7.0350 9.9207
" />
<path d="M12.9642 8.0132
L14.4700 6.5074
" />
<path d="M12.9642 8.0132
L12.9642 8.0132
" />
<path d="M10.2901 8.0132
L12.9642 8.0132
" />
<path d="M7.0350 9.9207
L6.6250 9.5107
" />
<path d="M8.3826 9.7407
L8.3750 9.7407
" />
<path d="M8.3826 9.9207
L10.2901 8.0132
" />
<path d="M8.3750 9.9207
L8.3826 9.9207
" />
<path d="M9.8117 7.5632
L9.1692 6.9207
" />
<path d="M5.1000 6.2857
L7.7200 6.2857
" />
<path d="M5.0250 6.3607
L5.1000 6.2857
" />
<path d="M13.8200 6.5210
L12.7778 7.5632
" />
<path d="M13.8200 5.3207
L13.8200 6.5210
" />
<path d="M12.7778 7.5632
L9.8117 7.5632
" />
<path d="M5.0250 7.3107
L5.0250 6.3607
" />
<path d="M9.1692 6.9207
L8.3550 6.9207
" />
<path d="M7.7200 6.2857
L8.3550 6.9207
" />
</g>
<g >
</g>
<g style="fill:#37CBCB; fill-opacity:0.0; 
stroke:#37CBCB; stroke-width:0.2500; stroke-opacity:1; 
stroke-linecap:round; stroke-linejoin:round;">
<g >
</g>
<g style="fill:#37CBCB; fill-opacity:1.0000; 
stroke:#37CBCB; stroke-width:0.0000; stroke-opacity:1; 
stroke-linecap:round; stroke-linejoin:round;">
<path style="fill:#37CBCB; fill-opacity:1.0000; 
stroke:#37CBCB; stroke-width:0.0000; stroke-opacity:1; 
stroke-linecap:round; stroke-linejoin:round;fill-rule:evenodd;"
d="M 21.7296,6.6457
21.7456,6.6551
21.9028,6.7008
21.9028,6.7008
21.9396,6.7037
21.9652,6.7037
22.0333,6.7237
22.0798,6.7774
22.0899,6.8476
22.0862,6.8649
22.0594,6.9569
22.0594,6.9569
22.0565,6.9942
22.0565,7.4272
22.0594,7.4645
22.1059,7.6243
22.1190,7.6466
22.1365,7.7154
22.1190,7.7749
22.1059,7.7971
22.0594,7.9569
22.0565,7.9942
22.0565,8.4272
22.0594,8.4645
22.1059,8.6243
22.1190,8.6466
22.1365,8.7154
22.1190,8.7749
22.1059,8.7971
22.0594,8.9569
22.0565,8.9942
22.0565,9.4272
22.0594,9.4645
22.1059,9.6243
22.1905,9.7675
22.1905,9.7675
22.3082,9.8852
22.3082,9.8852
22.4514,9.9699
22.4514,9.9699
22.4514,9.9699
22.6112,10.0163
22.6186,10.0169
22.6485,10.0192
22.6485,10.0192
23.4815,10.0192
23.5064,10.0173
23.5188,10.0163
23.6786,9.9699
23.6786,9.9699
23.6786,9.9699
23.8286,9.8811
23.8297,9.8830
23.8856,9.8610
23.9552,9.8749
23.9858,9.8974
24.2669,10.1786
24.3010,10.2409
24.2959,10.3117
24.2534,10.3685
24.2175,10.3873
24.1281,10.4169
23.9823,10.5068
23.9823,10.5068
23.8611,10.6280
23.8611,10.6280
23.7712,10.7738
23.7173,10.9365
23.7173,10.9365
23.7070,11.0369
23.7070,11.1067
24.7930,11.1067
24.8611,11.1267
24.9076,11.1804
24.9190,11.2327
24.9190,12.3687
24.9389,12.3687
24.9389,12.3687
25.0392,12.3585
25.0392,12.3585
25.1421,12.3244
25.2131,12.3219
25.2741,12.3582
25.3028,12.4088
25.3161,12.4547
25.3447,12.5533
25.4240,12.6873
25.4415,12.7514
25.4415,13.3308
25.4215,13.3989
25.4046,13.4199
24.2963,14.5282
24.2839,14.5381
24.2841,14.5384
24.2780,14.5434
24.2300,14.5945
24.2089,14.6156
24.2046,14.6212
24.2007,14.6257
24.1684,14.6601
24.1684,14.6601
24.1587,14.6779
24.1478,14.6944
24.1354,14.7104
24.1166,14.7537
24.1140,14.7590
24.0913,14.8004
24.0913,14.8004
24.0863,14.8200
24.0799,14.8387
24.0718,14.8573
24.0644,14.9039
24.0632,14.9097
24.0495,14.9631
24.0464,14.9623
24.0239,15.0137
23.9873,15.0436
23.9394,15.0695
23.9394,15.0695
23.7618,15.2078
23.6093,15.3734
23.5202,15.5098
23.4662,15.5559
23.3958,15.5655
23.3315,15.5355
23.3092,15.5098
23.2203,15.3738
23.0679,15.2082
22.8903,15.0699
22.8903,15.0699
22.6924,14.9628
22.6924,14.9628
22.4795,14.8898
22.4795,14.8898
22.3990,14.8763
22.3990,15.7770
22.2873,15.7260
22.1808,15.7107
22.1092,15.7107
22.0027,15.7260
21.8910,15.7770
21.8910,14.8763
21.8910,14.8763
21.8105,14.8898
21.8105,14.8898
21.5976,14.9628
21.5976,14.9628
21.3997,15.0699
21.3997,15.0699
21.2221,15.2082
21.0697,15.3738
20.9808,15.5098
20.9268,15.5559
20.8564,15.5655
20.7921,15.5355
20.7698,15.5098
20.7309,15.4502
20.6807,15.3735
20.6807,15.3734
20.5512,15.2328
20.5282,15.2078
20.5282,15.2078
20.5282,15.2078
20.4225,15.1255
20.3506,15.0695
20.3226,15.0544
20.3045,15.0446
20.2541,14.9946
20.2385,14.9338
20.2385,14.3103
20.2585,14.2422
20.2754,14.2212
21.2305,13.2661
21.2928,13.2321
21.3196,13.2292
21.3955,13.2292
21.4200,13.2273
21.4323,13.2263
21.5896,13.1806
21.6063,13.1707
21.6752,13.1532
21.7346,13.1707
21.7506,13.1801
21.8960,13.2224
21.8960,12.9321
21.9135,12.8680
21.9299,12.8403
21.9756,12.6830
21.9770,12.6647
22.4040,12.6647
22.4040,13.2224
22.5494,13.1801
22.6903,13.0968
22.6903,13.0968
22.8061,12.9810
22.8061,12.9810
22.8894,12.8401
22.9351,12.6829
22.9365,12.6647
22.4040,12.6647
21.9770,12.6647
21.9785,12.6462
21.9785,12.1752
21.9784,12.1743
21.9756,12.1385
21.9756,12.1385
21.9299,11.9811
21.9299,11.9811
21.9135,11.9535
21.8960,11.8893
21.8960,11.5990
22.4040,11.5990
22.4040,12.1567
22.9365,12.1567
22.9365,12.1567
22.9351,12.1385
22.8894,11.9813
22.8061,11.8404
22.8061,11.8404
22.6903,11.7246
22.6903,11.7246
22.5494,11.6413
22.5494,11.6413
22.4579,11.6147
23.7070,11.6147
23.7070,11.6846
23.7173,11.7849
23.7173,11.7850
23.7712,11.9476
23.8611,12.0934
23.8611,12.0934
23.9823,12.2146
23.9823,12.2146
24.1281,12.3046
24.2908,12.3585
24.2908,12.3585
24.3911,12.3687
24.3911,12.3687
24.4110,12.3687
24.4110,11.6147
23.7070,11.6147
22.4579,11.6147
22.4040,11.5990
21.8960,11.5990
21.7506,11.6413
21.7346,11.6507
21.6658,11.6682
21.6064,11.6507
21.5896,11.6408
21.4323,11.5951
21.3955,11.5922
21.3955,11.5922
21.3196,11.5922
21.2515,11.5722
21.2305,11.5553
20.6069,10.9318
20.5970,10.9193
20.5968,10.9195
20.5917,10.9134
20.5406,10.8654
20.5195,10.8443
20.5195,10.8443
20.5139,10.8400
20.5094,10.8361
20.4750,10.8038
20.4750,10.8038
20.4573,10.7941
20.4407,10.7832
20.4247,10.7708
20.3918,10.7565
20.3814,10.7521
20.3761,10.7495
20.3348,10.7267
20.3151,10.7217
20.2964,10.7153
20.2778,10.7072
20.2778,10.7072
20.2778,10.7072
20.2312,10.6999
20.2254,10.6986
20.1797,10.6869
20.1595,10.6869
20.1398,10.6854
20.1198,10.6822
20.1198,10.6822
20.0728,10.6866
20.0668,10.6869
18.4418,10.6869
18.4182,10.6847
18.4163,10.6843
18.4101,10.6831
18.4101,10.6831
18.3956,10.6841
18.3520,10.6868
18.3481,10.6869
18.3301,10.6869
18.3123,10.6892
18.3084,10.6895
18.2504,10.6932
18.2503,10.6932
18.2425,10.6957
18.2194,10.7009
18.2112,10.7019
18.2112,10.7019
18.1572,10.7233
18.1534,10.7247
18.0981,10.7427
18.0912,10.7471
18.0700,10.7578
18.0624,10.7609
18.0154,10.7950
18.0121,10.7973
17.9630,10.8284
17.9630,10.8284
17.9573,10.8344
17.9396,10.8501
17.9329,10.8549
17.9329,10.8549
17.8958,10.8997
17.8932,10.9027
17.8534,10.9451
17.8534,10.9451
17.8494,10.9523
17.8361,10.9719
17.8309,10.9783
17.8309,10.9783
17.8061,11.0309
17.8043,11.0344
17.7763,11.0854
17.7763,11.0854
17.7743,11.0933
17.7662,11.1156
17.7627,11.1231
17.7627,11.1231
17.7609,11.1328
17.7284,11.1960
17.6670,11.2316
17.5961,11.2284
17.5616,11.2101
17.5455,11.1980
17.5162,11.1589
17.4950,11.1377
17.4464,11.1377
17.4108,11.1415
17.3839,11.1415
17.3436,11.1372
17.3436,11.1372
17.1181,11.1372
17.0500,11.1172
17.0035,11.0636
16.9983,11.0502
16.9978,11.0485
16.9933,11.0416
16.9826,11.0205
16.9804,11.0150
16.9796,11.0128
16.9761,11.0080
16.9454,10.9658
16.9432,10.9625
16.9120,10.9134
16.9060,10.9078
16.9060,10.9078
16.8903,10.8900
16.8855,10.8833
16.8855,10.8833
16.8512,10.8549
16.8407,10.8462
16.8377,10.8436
16.8215,10.8284
16.7953,10.8038
16.7881,10.7999
16.7685,10.7865
16.7621,10.7813
16.7095,10.7565
16.7060,10.7547
16.6729,10.7365
16.6551,10.7267
16.6551,10.7267
16.6551,10.7267
16.6471,10.7247
16.6248,10.7166
16.6173,10.7131
16.5602,10.7022
16.5563,10.7014
16.5427,10.6979
16.4816,10.6615
16.4500,10.5980
16.4577,10.5274
16.4849,10.4867
19.4087,7.5630
19.4211,7.5530
19.4209,7.5528
19.4270,7.5477
19.4270,7.5477
19.4750,7.4966
19.4961,7.4755
19.5004,7.4699
19.5043,7.4654
19.5366,7.4310
19.5463,7.4133
19.5572,7.3968
19.5696,7.3808
19.5884,7.3374
19.5910,7.3321
19.6137,7.2908
19.6187,7.2711
19.6251,7.2524
19.6332,7.2339
19.6332,7.2339
19.6332,7.2339
19.6399,7.1915
19.6406,7.1873
19.6418,7.1815
19.6532,7.1368
19.6896,7.0758
19.7531,7.0441
19.7753,7.0421
20.5782,7.0421
20.5941,7.0439
20.5941,7.0436
20.6020,7.0443
20.6020,7.0443
20.6721,7.0421
20.7020,7.0421
20.7089,7.0412
20.7148,7.0408
20.7620,7.0393
20.7814,7.0336
20.8008,7.0296
20.8209,7.0271
20.8240,7.0259
20.8294,7.0237
20.8648,7.0097
20.8704,7.0078
20.9000,6.9992
20.9157,6.9946
20.9157,6.9946
20.9331,6.9843
20.9509,6.9756
20.9697,6.9682
21.0079,6.9404
21.0128,6.9372
21.0535,6.9132
21.0678,6.8988
21.0828,6.8860
21.0873,6.8827
21.0992,6.8741
21.1293,6.8377
21.1333,6.8334
21.1775,6.7892
21.2255,6.7411
21.2878,6.7071
21.3146,6.7042
21.3905,6.7042
21.4150,6.7023
21.4273,6.7013
21.5846,6.6556
21.6013,6.6457
21.6702,6.6282
Z" /> 
<path style="fill:#37CBCB; fill-opacity:1.0000; 
stroke:#37CBCB; stroke-width:0.0000; stroke-opacity:1; 
stroke-linecap:round; stroke-linejoin:round;fill-rule:evenodd;"
d="M 9.8535,4.0297
9.9000,4.0834
9.9101,4.1536
9.8960,4.1961
9.8941,4.1995
9.8430,4.3365
9.8430,4.3365
9.8365,4.3971
9.8365,6.0354
9.8165,6.1036
9.7846,6.1374
9.7536,6.1599
9.6258,6.3018
9.6258,6.3018
9.6236,6.3056
9.5722,6.3546
9.5025,6.3680
9.4645,6.3582
9.4509,6.3524
9.4456,6.3498
9.4043,6.3270
9.4043,6.3270
9.3846,6.3220
9.3659,6.3156
9.3653,6.3153
9.3473,6.3075
9.3473,6.3075
9.3473,6.3075
9.3007,6.3002
9.2949,6.2989
9.2492,6.2872
9.2290,6.2872
9.2093,6.2857
9.1893,6.2825
9.1893,6.2825
9.1423,6.2869
9.1364,6.2872
8.9984,6.2872
8.9327,6.2679
8.9325,6.2683
8.9311,6.2674
8.9303,6.2672
8.9283,6.2658
8.7846,6.1808
8.7846,6.1808
8.7846,6.1808
8.7057,6.1579
8.6273,6.1351
8.5905,6.1322
8.5905,6.1322
8.5146,6.1322
8.4465,6.1122
8.4255,6.0953
8.2272,5.8971
8.2173,5.8846
8.2171,5.8848
8.2120,5.8787
8.1609,5.8307
8.1398,5.8096
8.1398,5.8096
8.1342,5.8053
8.1297,5.8014
8.0953,5.7691
8.0953,5.7691
8.0776,5.7594
8.0610,5.7485
8.0450,5.7361
8.0143,5.7228
8.0017,5.7174
7.9964,5.7148
7.9551,5.6920
7.9354,5.6870
7.9167,5.6806
7.8981,5.6725
7.8981,5.6725
7.8981,5.6725
7.8515,5.6652
7.8457,5.6639
7.8000,5.6522
7.7798,5.6522
7.7601,5.6507
7.7401,5.6475
7.7401,5.6475
7.6931,5.6519
7.6871,5.6522
5.1839,5.6522
5.1680,5.6505
5.1680,5.6508
5.1601,5.6500
5.1601,5.6500
5.0900,5.6522
5.0601,5.6522
5.0601,5.6522
5.0601,5.6522
5.0532,5.6531
5.0473,5.6536
5.0001,5.6550
5.0001,5.6550
4.9807,5.6607
4.9613,5.6647
4.9412,5.6672
4.9412,5.6672
4.9412,5.6672
4.9412,5.6672
4.9412,5.6672
4.8973,5.6846
4.8917,5.6865
4.8464,5.6997
4.8290,5.7100
4.8112,5.7187
4.7924,5.7262
4.7542,5.7539
4.7492,5.7572
4.7086,5.7812
4.6943,5.7955
4.6793,5.8083
4.6629,5.8202
4.6629,5.8202
4.6408,5.8469
4.6241,5.8637
4.6180,5.8687
4.5700,5.9198
4.5489,5.9409
4.5446,5.9465
4.5407,5.9510
4.5084,5.9854
4.5084,5.9854
4.4987,6.0032
4.4878,6.0197
4.4754,6.0357
4.4722,6.0410
4.4204,6.0894
4.3773,6.1021
4.3158,6.1087
4.3158,6.1087
4.1788,6.1598
4.1788,6.1598
4.0617,6.2475
3.9741,6.3645
3.9741,6.3645
3.9230,6.5015
3.9230,6.5015
3.9165,6.5621
3.9165,8.0594
3.9230,8.1199
3.9230,8.1199
3.9741,8.2569
3.9741,8.2569
4.0330,8.3356
4.0578,8.4021
4.0427,8.4715
4.0330,8.4866
3.9746,8.5648
3.9235,8.7016
3.9170,8.7621
3.9170,9.2567
5.1530,9.2567
5.2211,9.2767
5.2676,9.3304
5.2790,9.3827
5.2790,10.7187
5.6736,10.7187
5.6736,10.7187
5.7341,10.7122
5.7341,10.7122
5.7802,10.6950
5.8511,10.6899
5.8683,10.6950
5.8869,10.7019
5.9158,10.7127
5.9158,10.7127
5.9764,10.7192
5.9764,10.7192
5.9764,10.7192
5.9764,10.7192
7.2736,10.7192
7.2736,10.7192
7.2736,10.7192
7.2736,10.7192
7.3342,10.7127
7.3342,10.7127
7.3342,10.7127
7.3489,10.7072
7.3631,10.7019
7.4712,10.6616
7.4713,10.6615
7.5811,10.5793
7.6476,10.5545
7.6566,10.5542
7.7316,10.5542
7.7973,10.5735
7.7975,10.5732
7.7989,10.5740
7.7997,10.5742
7.8017,10.5756
7.8044,10.5772
7.8044,10.5772
7.9454,10.6606
8.1027,10.7063
8.1101,10.7069
8.1395,10.7092
8.1395,10.7092
8.6105,10.7092
8.6357,10.7072
8.6473,10.7063
8.8046,10.6606
8.9456,10.5772
9.0615,10.4613
9.1449,10.3203
9.1906,10.1630
9.1935,10.1262
9.1935,10.0579
9.2135,9.9898
9.2304,9.9688
10.5156,8.6836
10.5779,8.6496
10.6047,8.6467
12.8803,8.6467
12.8962,8.6485
12.8962,8.6482
12.9041,8.6489
12.9041,8.6489
12.9041,8.6489
12.9041,8.6489
12.9057,8.6489
12.9123,8.6487
12.9360,8.6502
12.9441,8.6514
12.9775,8.6483
12.9912,8.6470
12.9972,8.6467
13.0040,8.6467
13.0040,8.6467
13.0109,8.6458
13.0168,8.6454
13.0578,8.6441
13.0641,8.6439
13.0720,8.6416
13.0953,8.6372
13.1035,8.6364
13.1035,8.6364
13.1112,8.6347
13.1113,8.6349
13.1154,8.6340
13.1153,8.6337
13.1230,8.6317
13.1230,8.6317
13.1667,8.6144
13.1723,8.6124
13.2178,8.5992
13.2249,8.5951
13.2463,8.5850
13.2541,8.5822
13.2541,8.5822
13.2612,8.5786
13.2613,8.5788
13.2650,8.5769
13.2649,8.5766
13.2718,8.5728
13.2718,8.5728
13.2718,8.5728
13.3099,8.5451
13.3148,8.5419
13.3149,8.5418
13.3556,8.5178
13.3614,8.5119
13.3797,8.4968
13.3826,8.4948
13.3865,8.4922
13.3865,8.4922
13.3924,8.4870
13.3926,8.4872
13.3957,8.4843
13.3955,8.4841
13.4013,8.4787
13.4013,8.4787
13.4313,8.4424
13.4353,8.4381
14.8587,7.0147
14.8711,7.0047
14.8709,7.0045
14.8770,6.9994
14.8770,6.9994
14.9250,6.9483
14.9461,6.9272
14.9504,6.9216
14.9543,6.9172
14.9866,6.8827
14.9963,6.8650
15.0072,6.8485
15.0196,6.8325
15.0384,6.7891
15.0410,6.7838
15.0488,6.7695
15.0992,6.7195
15.1592,6.7042
15.3936,6.7042
15.3936,6.7042
15.4315,6.7001
15.4585,6.7001
15.4964,6.7042
15.4964,6.7042
16.0436,6.7042
16.0436,6.7042
16.0839,6.6999
16.1108,6.6999
16.1464,6.7037
16.1464,6.7037
16.3105,6.7037
16.3786,6.7237
16.4251,6.7774
16.4365,6.8297
16.4365,7.3366
16.4348,7.3524
16.4350,7.3524
16.4343,7.3603
16.4365,7.4304
16.4365,7.4636
16.4346,7.4816
16.4348,7.4816
16.4141,7.6781
16.4341,7.8680
16.4630,7.9569
16.4931,8.0496
16.4931,8.0496
16.5886,8.2150
16.5886,8.2150
16.6868,8.3241
16.7176,8.3881
16.7088,8.4586
16.6823,8.4975
15.0105,10.1693
14.9482,10.2033
14.9214,10.2062
13.6973,10.2062
13.6814,10.2045
13.6814,10.2048
13.6735,10.2040
13.6735,10.2040
13.6034,10.2062
13.5735,10.2062
13.5735,10.2062
13.5735,10.2062
13.5666,10.2071
13.5607,10.2076
13.5135,10.2090
13.5135,10.2090
13.4941,10.2147
13.4747,10.2187
13.4546,10.2212
13.4546,10.2212
13.4107,10.2386
13.4051,10.2405
13.3598,10.2537
13.3598,10.2537
13.3424,10.2640
13.3246,10.2727
13.3058,10.2802
13.2837,10.2962
13.2676,10.3079
13.2627,10.3111
13.2220,10.3352
13.2077,10.3495
13.1927,10.3623
13.1763,10.3742
13.1763,10.3742
13.1462,10.4106
13.1422,10.4150
12.7813,10.7759
12.7689,10.7858
12.7691,10.7861
12.7630,10.7911
12.7150,10.8422
12.6939,10.8633
12.6896,10.8689
12.6857,10.8734
12.6534,10.9078
12.6534,10.9078
12.6437,10.9256
12.6328,10.9421
12.6204,10.9581
12.6016,11.0014
12.5990,11.0067
12.5763,11.0481
12.5734,11.0554
12.5707,11.0544
12.5414,11.1036
12.4779,11.1352
12.4557,11.1372
12.2464,11.1372
12.2464,11.1372
12.2463,11.1372
12.2085,11.1413
12.1815,11.1413
12.1437,11.1372
12.1436,11.1372
12.1436,11.1372
12.1436,11.1372
11.8613,11.1372
11.7932,11.1172
11.7593,11.0853
11.7518,11.0749
11.7486,11.0700
11.7472,11.0676
11.7245,11.0294
11.7102,11.0150
11.6974,11.0000
11.6855,10.9836
11.6546,10.9581
11.6491,10.9535
11.6447,10.9495
11.5172,10.8221
11.5073,10.8096
11.5071,10.8098
11.5020,10.8037
11.5020,10.8037
11.4509,10.7557
11.4298,10.7346
11.4242,10.7303
11.4197,10.7264
11.3853,10.6941
11.3853,10.6941
11.3676,10.6844
11.3510,10.6735
11.3350,10.6611
11.3043,10.6478
11.2917,10.6424
11.2864,10.6398
11.2451,10.6170
11.2254,10.6120
11.2067,10.6056
11.1881,10.5975
11.1881,10.5975
11.1881,10.5975
11.1415,10.5902
11.1357,10.5889
11.0900,10.5772
11.0698,10.5772
11.0501,10.5757
11.0301,10.5725
11.0301,10.5725
10.9831,10.5769
10.9771,10.5772
10.3266,10.5772
10.3107,10.5755
10.3107,10.5758
10.3028,10.5750
10.2327,10.5772
10.2028,10.5772
10.2028,10.5772
10.2028,10.5772
10.1959,10.5781
10.1900,10.5786
10.1428,10.5800
10.1428,10.5800
10.1233,10.5857
10.1040,10.5897
10.0839,10.5922
10.0839,10.5922
10.0400,10.6096
10.0344,10.6115
9.9891,10.6247
9.9717,10.6350
9.9539,10.6437
9.9351,10.6512
9.8969,10.6789
9.8919,10.6822
9.8513,10.7062
9.8370,10.7205
9.8220,10.7333
9.8056,10.7452
9.8056,10.7452
9.7755,10.7816
9.7715,10.7860
5.4015,15.1560
5.3392,15.1901
5.2684,15.1850
5.2350,15.1664
5.1106,15.0695
4.9126,14.9624
4.9126,14.9624
4.9126,14.9624
4.6996,14.8893
4.6996,14.8893
4.6220,14.8763
4.4776,14.8522
4.2524,14.8522
4.1080,14.8763
4.0304,14.8893
4.0304,14.8893
3.8174,14.9624
3.8174,14.9624
3.6194,15.0695
3.6194,15.0695
3.6194,15.0695
3.4418,15.2078
3.3808,15.2741
3.3199,15.3106
3.2489,15.3085
3.1904,15.2684
3.1700,15.2328
3.1427,15.1595
3.1259,15.1145
3.1259,15.1145
3.1259,15.1145
3.0383,14.9975
2.9212,14.9098
2.9212,14.9098
2.7842,14.8587
2.7842,14.8587
2.7236,14.8522
2.7236,14.8522
1.1815,14.8522
1.1134,14.8322
1.0669,14.7786
1.0555,14.7262
1.0555,9.7647
3.9170,9.7647
3.9170,10.2593
3.9235,10.3198
3.9746,10.4567
3.9746,10.4567
4.0621,10.5736
4.1790,10.6612
4.3159,10.7122
4.3764,10.7187
4.3764,10.7187
4.7710,10.7187
4.7710,9.7647
3.9170,9.7647
1.0555,9.7647
1.0555,6.0107
1.0559,6.0032
1.0563,6.0004
1.0563,6.0003
1.0555,5.9376
1.0555,5.9358
1.0556,5.9324
1.0684,5.6904
1.0694,5.6823
1.0722,5.6672
1.1133,5.4461
1.1153,5.4381
1.1897,5.2097
1.1927,5.2020
1.1939,5.1996
1.2963,4.9852
1.3003,4.9781
1.4313,4.7766
1.4362,4.7701
1.5924,4.5875
1.5981,4.5816
1.7767,4.4209
1.7832,4.4158
1.9813,4.2799
1.9884,4.2757
2.2025,4.1667
2.2100,4.1635
2.4365,4.0834
2.4445,4.0812
2.6795,4.0314
2.6876,4.0302
2.9284,4.0114
2.9332,4.0112
9.7853,4.0097
Z" /> 
<path style="fill:#37CBCB; fill-opacity:1.0000; 
stroke:#37CBCB; stroke-width:0.0000; stroke-opacity:1; 
stroke-linecap:round; stroke-linejoin:round;fill-rule:evenodd;"
d="M 26.3109,4.0192
26.3191,4.0201
26.5559,4.0642
26.5639,4.0662
26.7930,4.1408
26.8006,4.1438
27.0064,4.2422
27.0180,4.2477
27.0252,4.2517
27.0368,4.2593
27.2271,4.3830
27.2337,4.3880
27.4168,4.5445
27.4227,4.5503
27.5837,4.7294
27.5888,4.7359
27.7252,4.9345
27.7294,4.9416
27.7582,4.9982
27.8386,5.1562
27.8418,5.1638
27.9221,5.3909
27.9244,5.3989
27.9743,5.6345
27.9755,5.6427
27.9943,5.8840
27.9945,5.8889
27.9945,10.7634
27.9745,10.8315
27.9208,10.8780
27.8506,10.8881
27.7860,10.8586
27.7794,10.8525
25.2267,8.2998
25.1927,8.2375
25.1977,8.1667
25.2267,8.1216
25.8651,7.4833
25.8775,7.4733
25.8773,7.4731
25.8834,7.4680
25.8834,7.4680
25.9314,7.4169
25.9525,7.3958
25.9568,7.3902
25.9607,7.3857
25.9930,7.3513
26.0027,7.3336
26.0136,7.3171
26.0260,7.3011
26.0373,7.2749
26.0447,7.2578
26.0474,7.2524
26.0701,7.2111
26.0701,7.2111
26.0751,7.1915
26.0815,7.1727
26.0896,7.1542
26.0970,7.1075
26.0982,7.1018
26.1099,7.0560
26.1099,7.0358
26.1115,7.0161
26.1125,7.0097
26.1146,6.9961
26.1144,6.9942
26.1102,6.9491
26.1099,6.9432
26.1099,4.6768
26.1116,4.6609
26.1114,4.6609
26.1121,4.6530
26.1099,4.5829
26.1099,4.5531
26.1099,4.5531
26.1090,4.5461
26.1086,4.5402
26.1071,4.4930
26.1014,4.4736
26.0974,4.4542
26.0949,4.4341
26.0775,4.3902
26.0756,4.3846
26.0624,4.3393
26.0521,4.3219
26.0434,4.3041
26.0360,4.2853
26.0082,4.2471
26.0050,4.2422
25.9809,4.2016
25.9786,4.1976
25.9611,4.1288
25.9837,4.0614
26.0390,4.0170
26.0937,4.0076
Z" /> 
<path style="fill:#37CBCB; fill-opacity:1.0000; 
stroke:#37CBCB; stroke-width:0.0000; stroke-opacity:1; 
stroke-linecap:round; stroke-linejoin:round;fill-rule:evenodd;"
d="M 8.5511,7.7292
8.5976,7.7829
8.6090,7.8352
8.6090,8.1468
8.6261,8.1781
8.6290,8.2049
8.6290,8.7262
8.6090,8.7943
8.5921,8.8153
8.3361,9.0713
8.2738,9.1053
8.2030,9.1003
8.1461,9.0577
8.1213,8.9912
8.1210,8.9822
8.1210,8.6947
8.1039,8.6633
8.1010,8.6365
8.1010,7.8352
8.1210,7.7671
8.1747,7.7206
8.2270,7.7092
8.4830,7.7092
Z" /> 
<path style="fill:#37CBCB; fill-opacity:1.0000; 
stroke:#37CBCB; stroke-width:0.0000; stroke-opacity:1; 
stroke-linecap:round; stroke-linejoin:round;fill-rule:evenodd;"
d="M 23.6701,4.7739
23.6911,4.7908
23.7070,4.8067
24.7169,4.8067
24.7850,4.8267
24.8315,4.8804
24.8429,4.9327
24.8429,6.6614
24.8229,6.7295
24.8060,6.7505
24.2886,7.2679
24.2263,7.3019
24.1555,7.2969
24.0986,7.2543
24.0738,7.1878
24.0735,7.1788
24.0735,6.9942
24.0706,6.9569
24.0706,6.9569
24.0241,6.7971
24.0241,6.7971
24.0241,6.7971
23.9395,6.6539
23.9394,6.6539
23.8218,6.5363
23.8218,6.5363
23.6786,6.4516
23.5188,6.4052
23.4815,6.4022
23.4815,6.4022
23.0269,6.4022
22.9588,6.3822
22.9123,6.3286
22.9022,6.2583
22.9059,6.2411
22.9301,6.1579
22.9315,6.1397
22.0995,6.1397
22.0314,6.1197
21.9849,6.0661
21.9735,6.0137
21.9735,5.6502
21.9706,5.6135
21.9706,5.6135
21.9249,5.4561
21.9249,5.4561
21.9085,5.4285
21.8910,5.3643
21.8910,5.0740
22.3990,5.0740
22.3990,5.6317
22.9315,5.6317
22.9315,5.6317
22.9301,5.6135
22.8844,5.4563
22.8011,5.3154
22.8011,5.3154
22.8004,5.3147
23.7070,5.3147
23.7070,5.3846
23.7173,5.4849
23.7173,5.4850
23.7712,5.6476
23.8611,5.7934
23.8611,5.7934
23.9823,5.9146
23.9823,5.9146
24.1281,6.0046
24.2908,6.0585
24.2908,6.0585
24.3911,6.0687
24.3911,6.0687
24.4110,6.0687
24.4110,5.3147
23.7070,5.3147
22.8004,5.3147
22.6853,5.1996
22.6853,5.1996
22.5444,5.1163
22.5444,5.1163
22.3990,5.0740
21.8910,5.0740
21.7456,5.1163
21.7296,5.1257
21.6608,5.1432
21.6014,5.1257
21.5846,5.1158
21.4273,5.0701
21.3905,5.0672
21.3905,5.0672
20.9795,5.0672
20.9795,5.0672
20.9427,5.0701
20.7854,5.1158
20.6444,5.1992
20.6444,5.1992
20.5285,5.3151
20.5285,5.3151
20.4451,5.4561
20.3994,5.6135
20.3965,5.6502
20.3965,5.6491
20.3765,5.7172
20.3228,5.7637
20.2705,5.7751
19.8795,5.7751
19.8114,5.7551
19.7649,5.7015
19.7535,5.6491
19.7535,4.8799
19.7735,4.8118
19.8272,4.7653
19.8795,4.7539
23.6020,4.7539
Z" /> 
</g>
</g>
</g>
<g style="fill:#000000; fill-opacity:1.0000; 
stroke:#000000; stroke-width:0.0000; stroke-opacity:1; 
stroke-linecap:round; stroke-linejoin:round;">
<circle cx="21.6150" cy="7.3207" r="0.2000" /> 
</g>
<g style="fill:#000000; fill-opacity:1.0000; 
stroke:#000000; stroke-width:0.0212; stroke-opacity:1; 
stroke-linecap:round; stroke-linejoin:round;">
</g>
<g style="fill:#000000; fill-opacity:1.0000; 
stroke:#000000; stroke-width:0.0000; stroke-opacity:1; 
stroke-linecap:round; stroke-linejoin:round;">
<circle cx="9.5150" cy="4.5507" r="0.2000" /> 
</g>
<g style="fill:#000000; fill-opacity:1.0000; 
stroke:#000000; stroke-width:0.0212; stroke-opacity:1; 
stroke-linecap:round; stroke-linejoin:round;">
</g>
<g style="fill:#000000; fill-opacity:1.0000; 
stroke:#000000; stroke-width:0.0000; stroke-opacity:1; 
stroke-linecap:round; stroke-linejoin:round;">
<circle cx="7.9250" cy="11.3907" r="0.2000" /> 
</g>
<g style="fill:#000000; fill-opacity:1.0000; 
stroke:#000000; stroke-width:0.0212; stroke-opacity:1; 
stroke-linecap:round; stroke-linejoin:round;">
</g>
<g style="fill:#000000; fill-opacity:1.0000; 
stroke:#000000; stroke-width:0.0000; stroke-opacity:1; 
stroke-linecap:round; stroke-linejoin:round;">
<circle cx="12.7150" cy="9.0907" r="0.2000" /> 
</g>
<g style="fill:#000000; fill-opacity:1.0000; 
stroke:#000000; stroke-width:0.0212; stroke-opacity:1; 
stroke-linecap:round; stroke-linejoin:round;">
</g>
<g style="fill:#000000; fill-opacity:1.0000; 
stroke:#000000; stroke-width:0.0000; stroke-opacity:1; 
stroke-linecap:round; stroke-linejoin:round;">
<circle cx="5.7250" cy="14.1107" r="0.2000" /> 
</g>
<g style="fill:#000000; fill-opacity:1.0000; 
stroke:#000000; stroke-width:0.0212; stroke-opacity:1; 
stroke-linecap:round; stroke-linejoin:round;">
</g>
<g style="fill:#000000; fill-opacity:1.0000; 
stroke:#000000; stroke-width:0.0000; stroke-opacity:1; 
stroke-linecap:round; stroke-linejoin:round;">
<circle cx="17.1577" cy="10.0481" r="0.2000" /> 
</g>
<g style="fill:#000000; fill-opacity:1.0000; 
stroke:#000000; stroke-width:0.0212; stroke-opacity:1; 
stroke-linecap:round; stroke-linejoin:round;">
</g>
<g style="fill:#000000; fill-opacity:1.0000; 
stroke:#000000; stroke-width:0.0000; stroke-opacity:1; 
stroke-linecap:round; stroke-linejoin:round;">
<circle cx="7.6050" cy="7.8807" r="0.2000" /> 
</g>
<g style="fill:#000000; fill-opacity:1.0000; 
stroke:#000000; stroke-width:0.0212; stroke-opacity:1; 
stroke-linecap:round; stroke-linejoin:round;">
</g>
<g style="fill:#000000; fill-opacity:1.0000; 
stroke:#000000; stroke-width:0.0000; stroke-opacity:1; 
stroke-linecap:round; stroke-linejoin:round;">
<circle cx="26.8150" cy="4.7507" r="0.2000" /> 
</g>
<g style="fill:#000000; fill-opacity:1.0000; 
stroke:#000000; stroke-width:0.0212; stroke-opacity:1; 
stroke-linecap:round; stroke-linejoin:round;">
</g>
<g style="fill:#000000; fill-opacity:1.0000; 
stroke:#000000; stroke-width:0.0000; stroke-opacity:1; 
stroke-linecap:round; stroke-linejoin:round;">
<circle cx="27.5250" cy="9.0907" r="0.2000" /> 
</g>
<g style="fill:#000000; fill-opacity:1.0000; 
stroke:#000000; stroke-width:0.0212; stroke-opacity:1; 
stroke-linecap:round; stroke-linejoin:round;">
</g>
<g style="fill:#000000; fill-opacity:1.0000; 
stroke:#000000; stroke-width:0.0000; stroke-opacity:1; 
stroke-linecap:round; stroke-linejoin:round;">
<circle cx="1.6250" cy="13.5107" r="0.2000" /> 
</g>
<g style="fill:#000000; fill-opacity:1.0000; 
stroke:#000000; stroke-width:0.0212; stroke-opacity:1; 
stroke-linecap:round; stroke-linejoin:round;">
</g>
<g style="fill:#000000; fill-opacity:1.0000; 
stroke:#000000; stroke-width:0.0000; stroke-opacity:1; 
stroke-linecap:round; stroke-linejoin:round;">
<circle cx="24.8750" cy="12.9807" r="0.2000" /> 
</g>
<g style="fill:#000000; fill-opacity:1.0000; 
stroke:#000000; stroke-width:0.0212; stroke-opacity:1; 
stroke-linecap:round; stroke-linejoin:round;">
</g>
<g style="fill:#000000; fill-opacity:1.0000; 
stroke:#000000; stroke-width:0.0000; stroke-opacity:1; 
stroke-linecap:round; stroke-linejoin:round;">
<circle cx="10.3450" cy="9.4607" r="0.2000" /> 
</g>
<g style="fill:#000000; fill-opacity:1.0000; 
stroke:#000000; stroke-width:0.0212; stroke-opacity:1; 
stroke-linecap:round; stroke-linejoin:round;">
</g>
<g style="fill:#000000; fill-opacity:1.0000; 
stroke:#000000; stroke-width:0.0000; stroke-opacity:1; 
stroke-linecap:round; stroke-linejoin:round;">
<circle cx="16.0195" cy="6.8612" r="0.2000" /> 
</g>
<g style="fill:#000000; fill-opacity:1.0000; 
stroke:#000000; stroke-width:0.0212; stroke-opacity:1; 
stroke-linecap:round; stroke-linejoin:round;">
</g>
<g style="fill:#000000; fill-opacity:1.0000; 
stroke:#000000; stroke-width:0.0000; stroke-opacity:1; 
stroke-linecap:round; stroke-linejoin:round;">
<circle cx="4.8650" cy="11.1907" r="0.2000" /> 
</g>
<g style="fill:#000000; fill-opacity:1.0000; 
stroke:#000000; stroke-width:0.0212; stroke-opacity:1; 
stroke-linecap:round; stroke-linejoin:round;">
</g>
<g style="fill:#000000; fill-opacity:1.0000; 
stroke:#000000; stroke-width:0.0000; stroke-opacity:1; 
stroke-linecap:round; stroke-linejoin:round;">
<circle cx="23.3800" cy="5.8857" r="0.2000" /> 
</g>
<g style="fill:#000000; fill-opacity:1.0000; 
stroke:#000000; stroke-width:0.0212; stroke-opacity:1; 
stroke-linecap:round; stroke-linejoin:round;">
</g>
<g style="fill:#000000; fill-opacity:1.0000; 
stroke:#000000; stroke-width:0.0000; stroke-opacity:1; 
stroke-linecap:round; stroke-linejoin:round;">
<circle cx="1.5250" cy="7.2507" r="0.2000" /> 
</g>
<g style="fill:#000000; fill-opacity:1.0000; 
stroke:#000000; stroke-width:0.0212; stroke-opacity:1; 
stroke-linecap:round; stroke-linejoin:round;">
</g>
<g style="fill:#000000; fill-opacity:1.0000; 
stroke:#000000; stroke-width:0.0000; stroke-opacity:1; 
stroke-linecap:round; stroke-linejoin:round;">
<circle cx="17.3276" cy="7.6781" r="0.2000" /> 
</g>
<g style="fill:#000000; fill-opacity:1.0000; 
stroke:#000000; stroke-width:0.0212; stroke-opacity:1; 
stroke-linecap:round; stroke-linejoin:round;">
</g>
<g style="fill:#000000; fill-opacity:1.0000; 
stroke:#000000; stroke-width:0.0000; stroke-opacity:1; 
stroke-linecap:round; stroke-linejoin:round;">
<circle cx="11.3640" cy="6.8111" r="0.2000" /> 
</g>
<g style="fill:#000000; fill-opacity:1.0000; 
stroke:#000000; stroke-width:0.0212; stroke-opacity:1; 
stroke-linecap:round; stroke-linejoin:round;">
</g>
<g style="fill:#000000; fill-opacity:1.0000; 
stroke:#000000; stroke-width:0.0000; stroke-opacity:1; 
stroke-linecap:round; stroke-linejoin:round;">
<circle cx="10.3649" cy="6.8387" r="0.2000" /> 
</g>
<g style="fill:#000000; fill-opacity:1.0000; 
stroke:#000000; stroke-width:0.0212; stroke-opacity:1; 
stroke-linecap:round; stroke-linejoin:round;">
</g>
<g style="fill:#000000; fill-opacity:1.0000; 
stroke:#000000; stroke-width:0.0000; stroke-opacity:1; 
stroke-linecap:round; stroke-linejoin:round;">
<circle cx="1.8250" cy="16.2107" r="0.5000" /> 
</g>
<g style="fill:#000000; fill-opacity:1.0000; 
stroke:#000000; stroke-width:0.0212; stroke-opacity:1; 
stroke-linecap:round; stroke-linejoin:round;">
</g>
<g style="fill:#000000; fill-opacity:1.0000; 
stroke:#000000; stroke-width:0.0000; stroke-opacity:1; 
stroke-linecap:round; stroke-linejoin:round;">
<circle cx="4.3650" cy="16.2107" r="0.5000" /> 
</g>
<g style="fill:#000000; fill-opacity:1.0000; 
stroke:#000000; stroke-width:0.0212; stroke-opacity:1; 
stroke-linecap:round; stroke-linejoin:round;">
</g>
<g style="fill:#000000; fill-opacity:1.0000; 
stroke:#000000; stroke-width:0.0000; stroke-opacity:1; 
stroke-linecap:round; stroke-linejoin:round;">
<circle cx="6.9050" cy="16.2107" r="0.5000" /> 
</g>
<g style="fill:#000000; fill-opacity:1.0000; 
stroke:#000000; stroke-width:0.0212; stroke-opacity:1; 
stroke-linecap:round; stroke-linejoin:round;">
</g>
<g style="fill:#000000; fill-opacity:1.0000; 
stroke:#000000; stroke-width:0.0000; stroke-opacity:1; 
stroke-linecap:round; stroke-linejoin:round;">
<circle cx="9.4450" cy="16.2107" r="0.5000" /> 
</g>
<g style="fill:#000000; fill-opacity:1.0000; 
stroke:#000000; stroke-width:0.0212; stroke-opacity:1; 
stroke-linecap:round; stroke-linejoin:round;">
</g>
<g style="fill:#000000; fill-opacity:1.0000; 
stroke:#000000; stroke-width:0.0000; stroke-opacity:1; 
stroke-linecap:round; stroke-linejoin:round;">
<circle cx="11.9850" cy="16.2107" r="0.5000" /> 
</g>
<g style="fill:#000000; fill-opacity:1.0000; 
stroke:#000000; stroke-width:0.0212; stroke-opacity:1; 
stroke-linecap:round; stroke-linejoin:round;">
</g>
<g style="fill:#000000; fill-opacity:1.0000; 
stroke:#000000; stroke-width:0.0000; stroke-opacity:1; 
stroke-linecap:round; stroke-linejoin:round;">
<circle cx="14.5250" cy="16.2107" r="0.5000" /> 
</g>
<g style="fill:#000000; fill-opacity:1.0000; 
stroke:#000000; stroke-width:0.0212; stroke-opacity:1; 
stroke-linecap:round; stroke-linejoin:round;">
</g>
<g style="fill:#000000; fill-opacity:1.0000; 
stroke:#000000; stroke-width:0.0000; stroke-opacity:1; 
stroke-linecap:round; stroke-linejoin:round;">
<circle cx="17.0650" cy="16.2107" r="0.5000" /> 
</g>
<g style="fill:#000000; fill-opacity:1.0000; 
stroke:#000000; stroke-width:0.0212; stroke-opacity:1; 
stroke-linecap:round; stroke-linejoin:round;">
</g>
<g style="fill:#000000; fill-opacity:1.0000; 
stroke:#000000; stroke-width:0.0000; stroke-opacity:1; 
stroke-linecap:round; stroke-linejoin:round;">
<circle cx="19.6050" cy="16.2107" r="0.5000" /> 
</g>
<g style="fill:#000000; fill-opacity:1.0000; 
stroke:#000000; stroke-width:0.0212; stroke-opacity:1; 
stroke-linecap:round; stroke-linejoin:round;">
</g>
<g style="fill:#000000; fill-opacity:1.0000; 
stroke:#000000; stroke-width:0.0000; stroke-opacity:1; 
stroke-linecap:round; stroke-linejoin:round;">
<circle cx="22.1450" cy="16.2107" r="0.5000" /> 
</g>
<g style="fill:#000000; fill-opacity:1.0000; 
stroke:#000000; stroke-width:0.0212; stroke-opacity:1; 
stroke-linecap:round; stroke-linejoin:round;">
</g>
<g style="fill:#000000; fill-opacity:1.0000; 
stroke:#000000; stroke-width:0.0000; stroke-opacity:1; 
stroke-linecap:round; stroke-linejoin:round;">
<circle cx="24.6850" cy="16.2107" r="0.5000" /> 
</g>
<g style="fill:#000000; fill-opacity:1.0000; 
stroke:#000000; stroke-width:0.0212; stroke-opacity:1; 
stroke-linecap:round; stroke-linejoin:round;">
</g>
<g style="fill:#000000; fill-opacity:1.0000; 
stroke:#000000; stroke-width:0.0000; stroke-opacity:1; 
stroke-linecap:round; stroke-linejoin:round;">
<circle cx="27.2250" cy="16.2107" r="0.5000" /> 
</g>
<g style="fill:#000000; fill-opacity:1.0000; 
stroke:#000000; stroke-width:0.0212; stroke-opacity:1; 
stroke-linecap:round; stroke-linejoin:round;">
</g>
<g style="fill:#FFFFFF; fill-opacity:1.0000; 
stroke:#FFFFFF; stroke-width:0.0212; stroke-opacity:1; 
stroke-linecap:round; stroke-linejoin:round;">
<g >
</g>
<g >
</g>
<g >
</g>
<g >
</g>
<g >
</g>
<g >
</g>
<g >
</g>
<g >
</g>
<g >
</g>
<g >
</g>
<g >
</g>
<g >
</g>
<g >
</g>
</g>
<g style="fill:#FFFFFF; fill-opacity:1.0000; 
stroke:#FFFFFF; stroke-width:0.0212; stroke-opacity:1; 
stroke-linecap:round; stroke-linejoin:round;">
</g>
<g style="fill:#2F2D31; fill-opacity:1.0000; 
stroke:#2F2D31; stroke-width:0.0212; stroke-opacity:1; 
stroke-linecap:round; stroke-linejoin:round;">
</g>
<g style="fill:#2F2D31; fill-opacity:1.0000; 
stroke:#2F2D31; stroke-width:0.0500; stroke-opacity:1; 
stroke-linecap:round; stroke-linejoin:round;">
</g>
<g style="fill:#2F2D31; fill-opacity:0.0; 
stroke:#2F2D31; stroke-width:0.0500; stroke-opacity:1; 
stroke-linecap:round; stroke-linejoin:round;">
<path d="M0.5550 5.9407
L0.5550 17.4807
" />
<path d="M28.4950 5.8807 A2.4052 2.4052 0.0 0 0 26.0600 3.5057" />
<path d="M26.0600 3.5057
L2.9250 3.5107
" />
<path d="M0.5550 17.4807
L28.4950 17.4807
" />
<path d="M28.4950 17.4807
L28.4950 5.8807
" />
<path d="M2.9250 3.5107 A2.4002 2.4002 0.0 0 0 0.5550 5.9407" />
<g >
</g>
<g >
</g>
<g >
</g>
<g >
</g>
<g >
</g>
<g >
</g>
<g >
</g>
<g >
</g>
<g >
</g>
<g >
</g>
<g >
</g>
<g >
</g>
<g >
</g>
</g> 
</svg>
