<?xml version="1.0" standalone="no"?>
 <!DOCTYPE svg PUBLIC "-//W3C//DTD SVG 1.1//EN" 
 "http://www.w3.org/Graphics/SVG/1.1/DTD/svg11.dtd"> 
<svg
  xmlns:svg="http://www.w3.org/2000/svg"
  xmlns="http://www.w3.org/2000/svg"
  xmlns:xlink="http://www.w3.org/1999/xlink"
  version="1.1"
  width="33.8836mm" height="19.4818mm" viewBox="0.0000 0.0000 33.8836 19.4818">
<title>SVG Image created as working-brd.svg date 2023/09/27 15:51:28 </title>
  <desc>Image generated by PCBNEW </desc>
<g style="fill:#000000; fill-opacity:1.0000;stroke:#000000; stroke-opacity:1.0000;
stroke-linecap:round; stroke-linejoin:round;"
 transform="translate(0 0) scale(1 1)">
</g>
<g style="fill:#000000; fill-opacity:0.0; 
stroke:#000000; stroke-width:0.0000; stroke-opacity:1; 
stroke-linecap:round; stroke-linejoin:round;">
</g>
<g style="fill:#000000; fill-opacity:1.0000; 
stroke:#000000; stroke-width:0.0212; stroke-opacity:1; 
stroke-linecap:round; stroke-linejoin:round;">
<rect x="-5.000000" y="-5.000000" width="43.900000" height="29.500000" rx="0.000000" />
</g>
<g style="fill:#FFFFFF; fill-opacity:1.0000; 
stroke:#FFFFFF; stroke-width:0.0212; stroke-opacity:1; 
stroke-linecap:round; stroke-linejoin:round;">
<g >
</g>
<g >
</g>
<g >
</g>
<g style="fill:#B2803A; fill-opacity:1.0000; 
stroke:#B2803A; stroke-width:0.0212; stroke-opacity:1; 
stroke-linecap:round; stroke-linejoin:round;">
</g>
<g style="fill:#B2803A; fill-opacity:1.0000; 
stroke:#B2803A; stroke-width:0.0000; stroke-opacity:1; 
stroke-linecap:round; stroke-linejoin:round;">
<circle cx="27.2000" cy="8.3000" r="0.8500" /> 
<path style="fill:#B2803A; fill-opacity:1.0000; 
stroke:#B2803A; stroke-width:0.0000; stroke-opacity:1; 
stroke-linecap:round; stroke-linejoin:round;fill-rule:evenodd;"
d="M 26.3500,11.6900
26.3500,9.9900
28.0500,9.9900
28.0500,11.6900
Z" /> 
</g>
<g >
</g>
<g style="fill:#B2803A; fill-opacity:1.0000; 
stroke:#B2803A; stroke-width:0.0000; stroke-opacity:1; 
stroke-linecap:round; stroke-linejoin:round;">
<path style="fill:#B2803A; fill-opacity:1.0000; 
stroke:#B2803A; stroke-width:0.0000; stroke-opacity:1; 
stroke-linecap:round; stroke-linejoin:round;fill-rule:evenodd;"
d="M 11.0500,9.9500
11.0500,11.6500
9.3500,11.6500
9.3500,9.9500
Z" /> 
<circle cx="10.2000" cy="8.2600" r="0.8500" /> 
</g>
<g >
</g>
<g >
</g>
<g >
</g>
<g >
</g>
<g style="fill:#B2803A; fill-opacity:1.0000; 
stroke:#B2803A; stroke-width:0.0000; stroke-opacity:1; 
stroke-linecap:round; stroke-linejoin:round;">
<path style="fill:#B2803A; fill-opacity:1.0000; 
stroke:#B2803A; stroke-width:0.0000; stroke-opacity:1; 
stroke-linecap:round; stroke-linejoin:round;fill-rule:evenodd;"
d="M 8.7000,6.2500
8.7000,2.7500
28.7000,2.7500
28.7000,6.2500
Z" /> 
</g>
<g >
</g>
<g style="fill:#B2803A; fill-opacity:1.0000; 
stroke:#B2803A; stroke-width:0.0000; stroke-opacity:1; 
stroke-linecap:round; stroke-linejoin:round;">
<path style="fill:#B2803A; fill-opacity:1.0000; 
stroke:#B2803A; stroke-width:0.0000; stroke-opacity:1; 
stroke-linecap:round; stroke-linejoin:round;fill-rule:evenodd;"
d="M 8.7000,16.3500
8.7000,12.8500
17.7000,12.8500
17.7000,16.3500
Z" /> 
</g>
<g >
</g>
<g style="fill:#B2803A; fill-opacity:1.0000; 
stroke:#B2803A; stroke-width:0.0000; stroke-opacity:1; 
stroke-linecap:round; stroke-linejoin:round;">
<path style="fill:#B2803A; fill-opacity:1.0000; 
stroke:#B2803A; stroke-width:0.0000; stroke-opacity:1; 
stroke-linecap:round; stroke-linejoin:round;fill-rule:evenodd;"
d="M 18.8000,16.3500
18.8000,12.8500
28.8000,12.8500
28.8000,16.3500
Z" /> 
</g>
<g >
</g>
<g style="fill:#121212; fill-opacity:1.0000; 
stroke:#121212; stroke-width:0.0000; stroke-opacity:1; 
stroke-linecap:round; stroke-linejoin:round;">
<circle cx="26.3000" cy="14.3000" r="0.4000" /> 
</g>
<g style="fill:#121212; fill-opacity:1.0000; 
stroke:#121212; stroke-width:0.0212; stroke-opacity:1; 
stroke-linecap:round; stroke-linejoin:round;">
</g>
<g style="fill:#121212; fill-opacity:1.0000; 
stroke:#121212; stroke-width:0.0000; stroke-opacity:1; 
stroke-linecap:round; stroke-linejoin:round;">
<circle cx="18.3000" cy="11.3000" r="0.4000" /> 
</g>
<g style="fill:#121212; fill-opacity:1.0000; 
stroke:#121212; stroke-width:0.0212; stroke-opacity:1; 
stroke-linecap:round; stroke-linejoin:round;">
</g>
<g style="fill:#121212; fill-opacity:1.0000; 
stroke:#121212; stroke-width:0.0000; stroke-opacity:1; 
stroke-linecap:round; stroke-linejoin:round;">
<circle cx="15.7000" cy="14.3000" r="0.4000" /> 
</g>
<g style="fill:#121212; fill-opacity:1.0000; 
stroke:#121212; stroke-width:0.0212; stroke-opacity:1; 
stroke-linecap:round; stroke-linejoin:round;">
</g>
<g style="fill:#121212; fill-opacity:1.0000; 
stroke:#121212; stroke-width:0.0000; stroke-opacity:1; 
stroke-linecap:round; stroke-linejoin:round;">
<circle cx="21.2602" cy="9.8000" r="0.4000" /> 
</g>
<g style="fill:#121212; fill-opacity:1.0000; 
stroke:#121212; stroke-width:0.0212; stroke-opacity:1; 
stroke-linecap:round; stroke-linejoin:round;">
</g>
<g style="fill:#121212; fill-opacity:1.0000; 
stroke:#121212; stroke-width:0.0000; stroke-opacity:1; 
stroke-linecap:round; stroke-linejoin:round;">
<circle cx="14.2602" cy="9.8000" r="0.4000" /> 
</g>
<g style="fill:#121212; fill-opacity:1.0000; 
stroke:#121212; stroke-width:0.0212; stroke-opacity:1; 
stroke-linecap:round; stroke-linejoin:round;">
</g>
<g style="fill:#121212; fill-opacity:1.0000; 
stroke:#121212; stroke-width:0.0000; stroke-opacity:1; 
stroke-linecap:round; stroke-linejoin:round;">
<circle cx="18.7000" cy="4.8000" r="0.4000" /> 
</g>
<g style="fill:#121212; fill-opacity:1.0000; 
stroke:#121212; stroke-width:0.0212; stroke-opacity:1; 
stroke-linecap:round; stroke-linejoin:round;">
</g>
<g style="fill:#121212; fill-opacity:1.0000; 
stroke:#121212; stroke-width:0.0000; stroke-opacity:1; 
stroke-linecap:round; stroke-linejoin:round;">
<circle cx="22.6000" cy="7.2000" r="0.4000" /> 
</g>
<g style="fill:#121212; fill-opacity:1.0000; 
stroke:#121212; stroke-width:0.0212; stroke-opacity:1; 
stroke-linecap:round; stroke-linejoin:round;">
</g>
<g style="fill:#121212; fill-opacity:1.0000; 
stroke:#121212; stroke-width:0.0000; stroke-opacity:1; 
stroke-linecap:round; stroke-linejoin:round;">
<circle cx="15.7000" cy="7.2000" r="0.4000" /> 
</g>
<g style="fill:#121212; fill-opacity:1.0000; 
stroke:#121212; stroke-width:0.0212; stroke-opacity:1; 
stroke-linecap:round; stroke-linejoin:round;">
</g>
<g >
</g>
<g style="fill:#B2803A; fill-opacity:1.0000; 
stroke:#B2803A; stroke-width:0.0212; stroke-opacity:1; 
stroke-linecap:round; stroke-linejoin:round;">
</g>
<g style="fill:#B2803A; fill-opacity:1.0000; 
stroke:#B2803A; stroke-width:1.0000; stroke-opacity:1; 
stroke-linecap:round; stroke-linejoin:round;">
</g>
<g style="fill:#B2803A; fill-opacity:0.0; 
stroke:#B2803A; stroke-width:1.0000; stroke-opacity:1; 
stroke-linecap:round; stroke-linejoin:round;">
<path d="M20.8000 11.3000
L23.8000 14.3000
" />
<path d="M19.7000 11.3000
L23.3000 11.3000
" />
<path d="M23.8000 11.8000
L23.8000 14.3000
" />
<path d="M27.2000 10.9000
L23.8000 14.3000
" />
<path d="M19.7000 11.3000
L26.7400 11.3000
" />
<path d="M26.7400 11.3000
L27.2000 10.8400
" />
<path d="M18.3000 11.3000
L20.8000 11.3000
" />
<path d="M18.3000 11.3000
L19.7000 11.3000
" />
<path d="M27.2000 10.8400
L27.2000 10.9000
" />
<path d="M23.3000 11.3000
L23.8000 11.8000
" />
<path d="M14.2602 13.2398
L13.2000 14.3000
" />
<path d="M14.2602 9.8000
L21.2602 9.8000
" />
<path d="M10.2000 11.3000
L13.2000 14.3000
" />
<path d="M14.2602 9.8000
L14.2602 13.2398
" />
</g>
<g style="fill:#B2803A; fill-opacity:0.0; 
stroke:#B2803A; stroke-width:0.8000; stroke-opacity:1; 
stroke-linecap:round; stroke-linejoin:round;">
<path d="M12.9000 10.8000
L13.2602 10.8000
" />
</g>
<g style="fill:#B2803A; fill-opacity:0.0; 
stroke:#B2803A; stroke-width:1.0000; stroke-opacity:1; 
stroke-linecap:round; stroke-linejoin:round;">
<path d="M10.2000 10.8000
L10.2000 11.3000
" />
</g>
<g style="fill:#B2803A; fill-opacity:0.0; 
stroke:#B2803A; stroke-width:0.8000; stroke-opacity:1; 
stroke-linecap:round; stroke-linejoin:round;">
<path d="M13.2602 10.8000
L14.2602 9.8000
" />
<path d="M10.2000 10.8000
L12.9000 10.8000
" />
</g>
<g style="fill:#B2803A; fill-opacity:0.0; 
stroke:#B2803A; stroke-width:1.0000; stroke-opacity:1; 
stroke-linecap:round; stroke-linejoin:round;">
<path d="M17.7400 8.2600
L18.7000 7.3000
" />
<path d="M10.2000 8.2600
L17.7400 8.2600
" />
</g>
<g style="fill:#B2803A; fill-opacity:0.0; 
stroke:#B2803A; stroke-width:0.8000; stroke-opacity:1; 
stroke-linecap:round; stroke-linejoin:round;">
<path d="M21.5400 8.2600
L22.6000 7.2000
" />
<path d="M27.1600 8.2600
L27.2000 8.3000
" />
<path d="M14.1000 8.2600
L14.7400 8.2600
" />
</g>
<g style="fill:#B2803A; fill-opacity:0.0; 
stroke:#B2803A; stroke-width:1.0000; stroke-opacity:1; 
stroke-linecap:round; stroke-linejoin:round;">
<path d="M18.7000 7.3000
L19.7000 8.3000
" />
</g>
<g style="fill:#B2803A; fill-opacity:0.0; 
stroke:#B2803A; stroke-width:0.8000; stroke-opacity:1; 
stroke-linecap:round; stroke-linejoin:round;">
<path d="M20.9000 8.2600
L21.5400 8.2600
" />
<path d="M14.6400 8.2600
L15.7000 7.2000
" />
<path d="M20.9000 8.2600
L27.1600 8.2600
" />
</g>
<g style="fill:#B2803A; fill-opacity:0.0; 
stroke:#B2803A; stroke-width:1.0000; stroke-opacity:1; 
stroke-linecap:round; stroke-linejoin:round;">
<path d="M25.3500 8.3000
L27.2000 8.3000
" />
</g>
<g style="fill:#B2803A; fill-opacity:0.0; 
stroke:#B2803A; stroke-width:0.8000; stroke-opacity:1; 
stroke-linecap:round; stroke-linejoin:round;">
<path d="M10.2000 8.2600
L20.9000 8.2600
" />
</g>
<g style="fill:#B2803A; fill-opacity:0.0; 
stroke:#B2803A; stroke-width:1.0000; stroke-opacity:1; 
stroke-linecap:round; stroke-linejoin:round;">
<path d="M19.7000 8.3000
L25.3500 8.3000
" />
</g>
<g style="fill:#B2803A; fill-opacity:0.0; 
stroke:#B2803A; stroke-width:0.8000; stroke-opacity:1; 
stroke-linecap:round; stroke-linejoin:round;">
<path d="M14.1000 8.2600
L14.6400 8.2600
" />
<path d="M10.2000 8.2600
L14.1000 8.2600
" />
</g>
<g style="fill:#B2803A; fill-opacity:0.0; 
stroke:#B2803A; stroke-width:1.0000; stroke-opacity:1; 
stroke-linecap:round; stroke-linejoin:round;">
<path d="M21.1000 7.2000
L18.7000 4.8000
" />
<path d="M22.6000 7.2000
L21.1000 7.2000
" />
<path d="M18.7000 4.8000
L18.7000 7.3000
" />
</g>
<g >
</g>
<g style="fill:#B2803A; fill-opacity:0.0; 
stroke:#B2803A; stroke-width:1.0000; stroke-opacity:1; 
stroke-linecap:round; stroke-linejoin:round;">
<g >
</g>
<g style="fill:#B2803A; fill-opacity:1.0000; 
stroke:#B2803A; stroke-width:0.0000; stroke-opacity:1; 
stroke-linecap:round; stroke-linejoin:round;">
<path style="fill:#B2803A; fill-opacity:1.0000; 
stroke:#B2803A; stroke-width:0.0000; stroke-opacity:1; 
stroke-linecap:round; stroke-linejoin:round;fill-rule:evenodd;"
d="M 29.3416,2.7205
29.3881,2.7742
29.3995,2.8265
29.3995,7.8740
29.3795,7.9421
29.3258,7.9886
29.2735,8.0000
8.0265,8.0000
7.9584,7.9800
7.9119,7.9263
7.9005,7.8740
7.9005,2.8265
7.9205,2.7584
7.9742,2.7119
8.0265,2.7005
29.2735,2.7005
Z" /> 
</g>
</g>
<g style="fill:#B2803A; fill-opacity:1.0000; 
stroke:#B2803A; stroke-width:0.0000; stroke-opacity:1; 
stroke-linecap:round; stroke-linejoin:round;">
<g >
<path style="fill:#B2803A; fill-opacity:1.0000; 
stroke:#B2803A; stroke-width:0.0000; stroke-opacity:1; 
stroke-linecap:round; stroke-linejoin:round;fill-rule:evenodd;"
d="M 29.3416,9.6200
29.3881,9.6737
29.3995,9.7260
29.3995,16.0735
29.3795,16.1416
29.3258,16.1881
29.2735,16.1995
18.8260,16.1995
18.7579,16.1795
18.7114,16.1258
18.7000,16.0735
18.7000,10.6265
18.7200,10.5584
18.7737,10.5119
18.8260,10.5005
21.3026,10.5005
21.3026,10.5005
21.4291,10.4851
21.5881,10.4248
21.7281,10.3282
21.8409,10.2009
21.9200,10.0502
21.9607,9.8851
21.9607,9.7260
21.9807,9.6579
22.0344,9.6114
22.0867,9.6000
29.2735,9.6000
Z" /> 
</g>
</g>
<g style="fill:#B2803A; fill-opacity:1.0000; 
stroke:#B2803A; stroke-width:0.0000; stroke-opacity:1; 
stroke-linecap:round; stroke-linejoin:round;">
<g >
<path style="fill:#B2803A; fill-opacity:1.0000; 
stroke:#B2803A; stroke-width:0.0000; stroke-opacity:1; 
stroke-linecap:round; stroke-linejoin:round;fill-rule:evenodd;"
d="M 17.7421,9.6200
17.7886,9.6737
17.8000,9.7260
17.8000,10.7602
17.7800,10.8284
17.7683,10.8438
17.7193,10.8991
17.7193,10.8991
17.6402,11.0498
17.6402,11.0498
17.5995,11.2149
17.5995,11.3851
17.6402,11.5502
17.6402,11.5502
17.7193,11.7009
17.7683,11.7562
17.7985,11.8205
17.8000,11.8398
17.8000,16.0735
17.7800,16.1416
17.7263,16.1881
17.6740,16.1995
8.0265,16.1995
7.9584,16.1795
7.9119,16.1258
7.9005,16.0735
7.9005,9.7260
7.9205,9.6579
7.9742,9.6114
8.0265,9.6000
17.6740,9.6000
Z" /> 
</g>
</g>
</g>
<g style="fill:#000000; fill-opacity:1.0000; 
stroke:#000000; stroke-width:0.0000; stroke-opacity:1; 
stroke-linecap:round; stroke-linejoin:round;">
<circle cx="26.3000" cy="14.3000" r="0.2000" /> 
</g>
<g style="fill:#000000; fill-opacity:1.0000; 
stroke:#000000; stroke-width:0.0212; stroke-opacity:1; 
stroke-linecap:round; stroke-linejoin:round;">
</g>
<g style="fill:#000000; fill-opacity:1.0000; 
stroke:#000000; stroke-width:0.0000; stroke-opacity:1; 
stroke-linecap:round; stroke-linejoin:round;">
<circle cx="18.3000" cy="11.3000" r="0.2000" /> 
</g>
<g style="fill:#000000; fill-opacity:1.0000; 
stroke:#000000; stroke-width:0.0212; stroke-opacity:1; 
stroke-linecap:round; stroke-linejoin:round;">
</g>
<g style="fill:#000000; fill-opacity:1.0000; 
stroke:#000000; stroke-width:0.0000; stroke-opacity:1; 
stroke-linecap:round; stroke-linejoin:round;">
<circle cx="15.7000" cy="14.3000" r="0.2000" /> 
</g>
<g style="fill:#000000; fill-opacity:1.0000; 
stroke:#000000; stroke-width:0.0212; stroke-opacity:1; 
stroke-linecap:round; stroke-linejoin:round;">
</g>
<g style="fill:#000000; fill-opacity:1.0000; 
stroke:#000000; stroke-width:0.0000; stroke-opacity:1; 
stroke-linecap:round; stroke-linejoin:round;">
<circle cx="21.2602" cy="9.8000" r="0.2000" /> 
</g>
<g style="fill:#000000; fill-opacity:1.0000; 
stroke:#000000; stroke-width:0.0212; stroke-opacity:1; 
stroke-linecap:round; stroke-linejoin:round;">
</g>
<g style="fill:#000000; fill-opacity:1.0000; 
stroke:#000000; stroke-width:0.0000; stroke-opacity:1; 
stroke-linecap:round; stroke-linejoin:round;">
<circle cx="14.2602" cy="9.8000" r="0.2000" /> 
</g>
<g style="fill:#000000; fill-opacity:1.0000; 
stroke:#000000; stroke-width:0.0212; stroke-opacity:1; 
stroke-linecap:round; stroke-linejoin:round;">
</g>
<g style="fill:#000000; fill-opacity:1.0000; 
stroke:#000000; stroke-width:0.0000; stroke-opacity:1; 
stroke-linecap:round; stroke-linejoin:round;">
<circle cx="18.7000" cy="4.8000" r="0.2000" /> 
</g>
<g style="fill:#000000; fill-opacity:1.0000; 
stroke:#000000; stroke-width:0.0212; stroke-opacity:1; 
stroke-linecap:round; stroke-linejoin:round;">
</g>
<g style="fill:#000000; fill-opacity:1.0000; 
stroke:#000000; stroke-width:0.0000; stroke-opacity:1; 
stroke-linecap:round; stroke-linejoin:round;">
<circle cx="22.6000" cy="7.2000" r="0.2000" /> 
</g>
<g style="fill:#000000; fill-opacity:1.0000; 
stroke:#000000; stroke-width:0.0212; stroke-opacity:1; 
stroke-linecap:round; stroke-linejoin:round;">
</g>
<g style="fill:#000000; fill-opacity:1.0000; 
stroke:#000000; stroke-width:0.0000; stroke-opacity:1; 
stroke-linecap:round; stroke-linejoin:round;">
<circle cx="15.7000" cy="7.2000" r="0.2000" /> 
</g>
<g style="fill:#000000; fill-opacity:1.0000; 
stroke:#000000; stroke-width:0.0212; stroke-opacity:1; 
stroke-linecap:round; stroke-linejoin:round;">
</g>
<g style="fill:#000000; fill-opacity:1.0000; 
stroke:#000000; stroke-width:0.0000; stroke-opacity:1; 
stroke-linecap:round; stroke-linejoin:round;">
<circle cx="27.2000" cy="8.3000" r="0.5000" /> 
</g>
<g style="fill:#000000; fill-opacity:1.0000; 
stroke:#000000; stroke-width:0.0212; stroke-opacity:1; 
stroke-linecap:round; stroke-linejoin:round;">
</g>
<g style="fill:#000000; fill-opacity:1.0000; 
stroke:#000000; stroke-width:0.0000; stroke-opacity:1; 
stroke-linecap:round; stroke-linejoin:round;">
<circle cx="27.2000" cy="10.8400" r="0.5000" /> 
</g>
<g style="fill:#000000; fill-opacity:1.0000; 
stroke:#000000; stroke-width:0.0212; stroke-opacity:1; 
stroke-linecap:round; stroke-linejoin:round;">
</g>
<g style="fill:#000000; fill-opacity:1.0000; 
stroke:#000000; stroke-width:0.0000; stroke-opacity:1; 
stroke-linecap:round; stroke-linejoin:round;">
<circle cx="10.2000" cy="10.8000" r="0.5000" /> 
</g>
<g style="fill:#000000; fill-opacity:1.0000; 
stroke:#000000; stroke-width:0.0212; stroke-opacity:1; 
stroke-linecap:round; stroke-linejoin:round;">
</g>
<g style="fill:#000000; fill-opacity:1.0000; 
stroke:#000000; stroke-width:0.0000; stroke-opacity:1; 
stroke-linecap:round; stroke-linejoin:round;">
<circle cx="10.2000" cy="8.2600" r="0.5000" /> 
</g>
<g style="fill:#000000; fill-opacity:1.0000; 
stroke:#000000; stroke-width:0.0212; stroke-opacity:1; 
stroke-linecap:round; stroke-linejoin:round;">
</g>
<g style="fill:#FFFFFF; fill-opacity:1.0000; 
stroke:#FFFFFF; stroke-width:0.0212; stroke-opacity:1; 
stroke-linecap:round; stroke-linejoin:round;">
<g >
</g>
<g style="fill:#37CBCB; fill-opacity:1.0000; 
stroke:#37CBCB; stroke-width:0.0212; stroke-opacity:1; 
stroke-linecap:round; stroke-linejoin:round;">
</g>
<g style="fill:#37CBCB; fill-opacity:1.0000; 
stroke:#37CBCB; stroke-width:0.0000; stroke-opacity:1; 
stroke-linecap:round; stroke-linejoin:round;">
<path style="fill:#37CBCB; fill-opacity:1.0000; 
stroke:#37CBCB; stroke-width:0.0000; stroke-opacity:1; 
stroke-linecap:round; stroke-linejoin:round;fill-rule:evenodd;"
d="M 24.8048,11.7228
23.4052,11.7228
23.4052,10.9252
24.8048,10.9252
Z" /> 
<path style="fill:#37CBCB; fill-opacity:1.0000; 
stroke:#37CBCB; stroke-width:0.0000; stroke-opacity:1; 
stroke-linecap:round; stroke-linejoin:round;fill-rule:evenodd;"
d="M 23.0852,10.8160
19.4352,10.8160
19.4352,8.7840
23.0852,8.7840
Z" /> 
<path style="fill:#37CBCB; fill-opacity:1.0000; 
stroke:#37CBCB; stroke-width:0.0000; stroke-opacity:1; 
stroke-linecap:round; stroke-linejoin:round;fill-rule:evenodd;"
d="M 24.8010,10.1988
22.9010,10.1988
22.9010,9.4012
24.8010,9.4012
Z" /> 
<path style="fill:#37CBCB; fill-opacity:1.0000; 
stroke:#37CBCB; stroke-width:0.0000; stroke-opacity:1; 
stroke-linecap:round; stroke-linejoin:round;fill-rule:evenodd;"
d="M 24.8048,8.6748
23.4052,8.6748
23.4052,7.8772
24.8048,7.8772
Z" /> 
</g>
<g >
</g>
<g style="fill:#37CBCB; fill-opacity:1.0000; 
stroke:#37CBCB; stroke-width:0.0000; stroke-opacity:1; 
stroke-linecap:round; stroke-linejoin:round;">
<path style="fill:#37CBCB; fill-opacity:1.0000; 
stroke:#37CBCB; stroke-width:0.0000; stroke-opacity:1; 
stroke-linecap:round; stroke-linejoin:round;fill-rule:evenodd;"
d="M 8.7000,16.3500
8.7000,12.8500
22.7000,12.8500
22.7000,16.3500
Z" /> 
</g>
<g >
</g>
<g style="fill:#37CBCB; fill-opacity:1.0000; 
stroke:#37CBCB; stroke-width:0.0000; stroke-opacity:1; 
stroke-linecap:round; stroke-linejoin:round;">
<circle cx="27.2000" cy="8.3000" r="0.8500" /> 
<path style="fill:#37CBCB; fill-opacity:1.0000; 
stroke:#37CBCB; stroke-width:0.0000; stroke-opacity:1; 
stroke-linecap:round; stroke-linejoin:round;fill-rule:evenodd;"
d="M 26.3500,11.6900
26.3500,9.9900
28.0500,9.9900
28.0500,11.6900
Z" /> 
</g>
<g >
</g>
<g style="fill:#37CBCB; fill-opacity:1.0000; 
stroke:#37CBCB; stroke-width:0.0000; stroke-opacity:1; 
stroke-linecap:round; stroke-linejoin:round;">
<path style="fill:#37CBCB; fill-opacity:1.0000; 
stroke:#37CBCB; stroke-width:0.0000; stroke-opacity:1; 
stroke-linecap:round; stroke-linejoin:round;fill-rule:evenodd;"
d="M 11.0500,9.9500
11.0500,11.6500
9.3500,11.6500
9.3500,9.9500
Z" /> 
<circle cx="10.2000" cy="8.2600" r="0.8500" /> 
</g>
<g >
</g>
<g style="fill:#37CBCB; fill-opacity:1.0000; 
stroke:#37CBCB; stroke-width:0.0000; stroke-opacity:1; 
stroke-linecap:round; stroke-linejoin:round;">
<path style="fill:#37CBCB; fill-opacity:1.0000; 
stroke:#37CBCB; stroke-width:0.0000; stroke-opacity:1; 
stroke-linecap:round; stroke-linejoin:round;fill-rule:evenodd;"
d="M 8.7000,6.2500
8.7000,2.7500
28.7000,2.7500
28.7000,6.2500
Z" /> 
</g>
<g >
</g>
<g style="fill:#37CBCB; fill-opacity:1.0000; 
stroke:#37CBCB; stroke-width:0.0000; stroke-opacity:1; 
stroke-linecap:round; stroke-linejoin:round;">
<path style="fill:#37CBCB; fill-opacity:1.0000; 
stroke:#37CBCB; stroke-width:0.0000; stroke-opacity:1; 
stroke-linecap:round; stroke-linejoin:round;fill-rule:evenodd;"
d="M 23.8000,16.3500
23.8000,12.8500
28.8000,12.8500
28.8000,16.3500
Z" /> 
</g>
<g >
</g>
<g style="fill:#37CBCB; fill-opacity:1.0000; 
stroke:#37CBCB; stroke-width:0.0000; stroke-opacity:1; 
stroke-linecap:round; stroke-linejoin:round;">
<path style="fill:#37CBCB; fill-opacity:1.0000; 
stroke:#37CBCB; stroke-width:0.0000; stroke-opacity:1; 
stroke-linecap:round; stroke-linejoin:round;fill-rule:evenodd;"
d="M 17.8048,11.7228
16.4052,11.7228
16.4052,10.9252
17.8048,10.9252
Z" /> 
<path style="fill:#37CBCB; fill-opacity:1.0000; 
stroke:#37CBCB; stroke-width:0.0000; stroke-opacity:1; 
stroke-linecap:round; stroke-linejoin:round;fill-rule:evenodd;"
d="M 16.0852,10.8160
12.4352,10.8160
12.4352,8.7840
16.0852,8.7840
Z" /> 
<path style="fill:#37CBCB; fill-opacity:1.0000; 
stroke:#37CBCB; stroke-width:0.0000; stroke-opacity:1; 
stroke-linecap:round; stroke-linejoin:round;fill-rule:evenodd;"
d="M 17.8010,10.1988
15.9010,10.1988
15.9010,9.4012
17.8010,9.4012
Z" /> 
<path style="fill:#37CBCB; fill-opacity:1.0000; 
stroke:#37CBCB; stroke-width:0.0000; stroke-opacity:1; 
stroke-linecap:round; stroke-linejoin:round;fill-rule:evenodd;"
d="M 17.8048,8.6748
16.4052,8.6748
16.4052,7.8772
17.8048,7.8772
Z" /> 
</g>
<g >
</g>
<g >
</g>
<g >
</g>
<g >
</g>
<g style="fill:#121212; fill-opacity:1.0000; 
stroke:#121212; stroke-width:0.0000; stroke-opacity:1; 
stroke-linecap:round; stroke-linejoin:round;">
<circle cx="26.3000" cy="14.3000" r="0.4000" /> 
</g>
<g style="fill:#121212; fill-opacity:1.0000; 
stroke:#121212; stroke-width:0.0212; stroke-opacity:1; 
stroke-linecap:round; stroke-linejoin:round;">
</g>
<g style="fill:#121212; fill-opacity:1.0000; 
stroke:#121212; stroke-width:0.0000; stroke-opacity:1; 
stroke-linecap:round; stroke-linejoin:round;">
<circle cx="18.3000" cy="11.3000" r="0.4000" /> 
</g>
<g style="fill:#121212; fill-opacity:1.0000; 
stroke:#121212; stroke-width:0.0212; stroke-opacity:1; 
stroke-linecap:round; stroke-linejoin:round;">
</g>
<g style="fill:#121212; fill-opacity:1.0000; 
stroke:#121212; stroke-width:0.0000; stroke-opacity:1; 
stroke-linecap:round; stroke-linejoin:round;">
<circle cx="15.7000" cy="14.3000" r="0.4000" /> 
</g>
<g style="fill:#121212; fill-opacity:1.0000; 
stroke:#121212; stroke-width:0.0212; stroke-opacity:1; 
stroke-linecap:round; stroke-linejoin:round;">
</g>
<g style="fill:#121212; fill-opacity:1.0000; 
stroke:#121212; stroke-width:0.0000; stroke-opacity:1; 
stroke-linecap:round; stroke-linejoin:round;">
<circle cx="21.2602" cy="9.8000" r="0.4000" /> 
</g>
<g style="fill:#121212; fill-opacity:1.0000; 
stroke:#121212; stroke-width:0.0212; stroke-opacity:1; 
stroke-linecap:round; stroke-linejoin:round;">
</g>
<g style="fill:#121212; fill-opacity:1.0000; 
stroke:#121212; stroke-width:0.0000; stroke-opacity:1; 
stroke-linecap:round; stroke-linejoin:round;">
<circle cx="14.2602" cy="9.8000" r="0.4000" /> 
</g>
<g style="fill:#121212; fill-opacity:1.0000; 
stroke:#121212; stroke-width:0.0212; stroke-opacity:1; 
stroke-linecap:round; stroke-linejoin:round;">
</g>
<g style="fill:#121212; fill-opacity:1.0000; 
stroke:#121212; stroke-width:0.0000; stroke-opacity:1; 
stroke-linecap:round; stroke-linejoin:round;">
<circle cx="18.7000" cy="4.8000" r="0.4000" /> 
</g>
<g style="fill:#121212; fill-opacity:1.0000; 
stroke:#121212; stroke-width:0.0212; stroke-opacity:1; 
stroke-linecap:round; stroke-linejoin:round;">
</g>
<g style="fill:#121212; fill-opacity:1.0000; 
stroke:#121212; stroke-width:0.0000; stroke-opacity:1; 
stroke-linecap:round; stroke-linejoin:round;">
<circle cx="22.6000" cy="7.2000" r="0.4000" /> 
</g>
<g style="fill:#121212; fill-opacity:1.0000; 
stroke:#121212; stroke-width:0.0212; stroke-opacity:1; 
stroke-linecap:round; stroke-linejoin:round;">
</g>
<g style="fill:#121212; fill-opacity:1.0000; 
stroke:#121212; stroke-width:0.0000; stroke-opacity:1; 
stroke-linecap:round; stroke-linejoin:round;">
<circle cx="15.7000" cy="7.2000" r="0.4000" /> 
</g>
<g style="fill:#121212; fill-opacity:1.0000; 
stroke:#121212; stroke-width:0.0212; stroke-opacity:1; 
stroke-linecap:round; stroke-linejoin:round;">
</g>
<g >
</g>
<g style="fill:#37CBCB; fill-opacity:1.0000; 
stroke:#37CBCB; stroke-width:0.0212; stroke-opacity:1; 
stroke-linecap:round; stroke-linejoin:round;">
</g>
<g style="fill:#37CBCB; fill-opacity:1.0000; 
stroke:#37CBCB; stroke-width:0.8000; stroke-opacity:1; 
stroke-linecap:round; stroke-linejoin:round;">
</g>
<g style="fill:#37CBCB; fill-opacity:0.0; 
stroke:#37CBCB; stroke-width:0.8000; stroke-opacity:1; 
stroke-linecap:round; stroke-linejoin:round;">
<path d="M17.1000 11.3290
L17.1050 11.3240
" />
</g>
<g style="fill:#37CBCB; fill-opacity:0.0; 
stroke:#37CBCB; stroke-width:1.0000; stroke-opacity:1; 
stroke-linecap:round; stroke-linejoin:round;">
<path d="M18.2760 11.3240
L18.3000 11.3000
" />
<path d="M26.3000 13.5190
L24.1050 11.3240
" />
<path d="M26.7160 11.3240
L24.1050 11.3240
" />
<path d="M27.2000 13.4000
L26.3000 14.3000
" />
<path d="M27.2000 10.8400
L27.2000 13.4000
" />
<path d="M26.3000 14.3000
L26.3000 13.5190
" />
<path d="M17.1050 11.3240
L18.2760 11.3240
" />
<path d="M27.2000 10.8400
L26.7160 11.3240
" />
</g>
<g style="fill:#37CBCB; fill-opacity:0.0; 
stroke:#37CBCB; stroke-width:0.8000; stroke-opacity:1; 
stroke-linecap:round; stroke-linejoin:round;">
<path d="M23.8040 11.3240
L24.1050 11.3240
" />
</g>
<g style="fill:#37CBCB; fill-opacity:0.0; 
stroke:#37CBCB; stroke-width:1.0000; stroke-opacity:1; 
stroke-linecap:round; stroke-linejoin:round;">
<path d="M21.2602 11.7398
L18.7000 14.3000
" />
<path d="M18.7000 14.3000
L15.7000 14.3000
" />
<path d="M21.2602 9.8000
L21.2602 11.7398
" />
</g>
<g style="fill:#37CBCB; fill-opacity:0.0; 
stroke:#37CBCB; stroke-width:0.2500; stroke-opacity:1; 
stroke-linecap:round; stroke-linejoin:round;">
<path d="M17.8942 14.7000
L18.7000 14.7000
" />
</g>
<g style="fill:#37CBCB; fill-opacity:0.0; 
stroke:#37CBCB; stroke-width:1.0000; stroke-opacity:1; 
stroke-linecap:round; stroke-linejoin:round;">
<path d="M14.2602 12.8602
L15.7000 14.3000
" />
<path d="M14.2602 9.8000
L14.2602 12.8602
" />
</g>
<g style="fill:#37CBCB; fill-opacity:0.0; 
stroke:#37CBCB; stroke-width:0.8000; stroke-opacity:1; 
stroke-linecap:round; stroke-linejoin:round;">
<path d="M23.8510 9.8000
L21.2602 9.8000
" />
<path d="M18.6010 9.8000
L16.8510 9.8000
" />
<path d="M14.2602 9.8000
L11.2000 9.8000
" />
<path d="M21.2602 9.8000
L16.8510 9.8000
" />
</g>
<g style="fill:#37CBCB; fill-opacity:0.0; 
stroke:#37CBCB; stroke-width:1.0000; stroke-opacity:1; 
stroke-linecap:round; stroke-linejoin:round;">
<path d="M16.7442 14.3000
L18.7000 14.3000
" />
</g>
<g style="fill:#37CBCB; fill-opacity:0.0; 
stroke:#37CBCB; stroke-width:0.8000; stroke-opacity:1; 
stroke-linecap:round; stroke-linejoin:round;">
<path d="M11.2000 9.8000
L10.2000 10.8000
" />
<path d="M14.2602 9.8000
L16.8510 9.8000
" />
<path d="M16.8040 8.2760
L17.1050 8.2760
" />
<path d="M22.6000 7.2000
L23.0290 7.2000
" />
</g>
<g style="fill:#37CBCB; fill-opacity:0.0; 
stroke:#37CBCB; stroke-width:1.0000; stroke-opacity:1; 
stroke-linecap:round; stroke-linejoin:round;">
<path d="M15.7000 7.2000
L16.3000 7.2000
" />
</g>
<g style="fill:#37CBCB; fill-opacity:0.0; 
stroke:#37CBCB; stroke-width:0.8000; stroke-opacity:1; 
stroke-linecap:round; stroke-linejoin:round;">
<path d="M24.1050 8.2760
L27.1760 8.2760
" />
<path d="M27.1760 8.2760
L27.2000 8.3000
" />
</g>
<g style="fill:#37CBCB; fill-opacity:0.0; 
stroke:#37CBCB; stroke-width:1.0000; stroke-opacity:1; 
stroke-linecap:round; stroke-linejoin:round;">
<path d="M22.6000 7.2000
L21.1000 7.2000
" />
<path d="M27.2000 8.3000
L27.2000 6.4500
" />
<path d="M17.1050 8.2760
L17.1050 6.3950
" />
<path d="M20.6290 4.8000
L18.7000 4.8000
" />
<path d="M24.1050 8.2760
L20.6290 4.8000
" />
</g>
<g style="fill:#37CBCB; fill-opacity:0.0; 
stroke:#37CBCB; stroke-width:0.8000; stroke-opacity:1; 
stroke-linecap:round; stroke-linejoin:round;">
<path d="M16.0290 7.2000
L17.1050 8.2760
" />
</g>
<g style="fill:#37CBCB; fill-opacity:0.0; 
stroke:#37CBCB; stroke-width:1.0000; stroke-opacity:1; 
stroke-linecap:round; stroke-linejoin:round;">
<path d="M10.2000 8.2600
L13.6600 4.8000
" />
<path d="M25.5500 4.8000
L18.7000 4.8000
" />
<path d="M17.1050 6.3950
L18.7000 4.8000
" />
<path d="M27.2000 6.4500
L25.5500 4.8000
" />
<path d="M16.3000 7.2000
L18.7000 4.8000
" />
<path d="M21.1000 7.2000
L18.7000 4.8000
" />
<path d="M13.6600 4.8000
L18.7000 4.8000
" />
</g>
<g style="fill:#37CBCB; fill-opacity:0.0; 
stroke:#37CBCB; stroke-width:0.8000; stroke-opacity:1; 
stroke-linecap:round; stroke-linejoin:round;">
<path d="M23.0290 7.2000
L24.1050 8.2760
" />
<path d="M15.7000 7.2000
L16.0290 7.2000
" />
<path d="M23.8040 8.2760
L24.1050 8.2760
" />
</g>
<g >
</g>
<g style="fill:#37CBCB; fill-opacity:0.0; 
stroke:#37CBCB; stroke-width:0.8000; stroke-opacity:1; 
stroke-linecap:round; stroke-linejoin:round;">
<g >
</g>
<g style="fill:#37CBCB; fill-opacity:1.0000; 
stroke:#37CBCB; stroke-width:0.0000; stroke-opacity:1; 
stroke-linecap:round; stroke-linejoin:round;">
<path style="fill:#37CBCB; fill-opacity:1.0000; 
stroke:#37CBCB; stroke-width:0.0000; stroke-opacity:1; 
stroke-linecap:round; stroke-linejoin:round;fill-rule:evenodd;"
d="M 29.3416,8.7200
29.3881,8.7737
29.3995,8.8260
29.3995,16.0735
29.3795,16.1416
29.3258,16.1881
29.2735,16.1995
23.8260,16.1995
23.7579,16.1795
23.7114,16.1258
23.7000,16.0735
23.7000,10.5265
23.7200,10.4584
23.7737,10.4119
23.8260,10.4005
23.8904,10.4005
23.8904,10.4005
23.8955,10.3998
23.9038,10.3993
24.8207,10.3993
24.8207,10.3993
24.8792,10.3876
24.9455,10.3433
24.9898,10.2770
25.0015,10.2185
25.0015,9.3815
24.9898,9.3230
24.9455,9.2567
24.8792,9.2124
24.8792,9.2124
24.8207,9.2007
24.8207,9.2007
24.3199,9.2007
24.2518,9.1807
24.2053,9.1271
24.1952,9.0568
24.2247,8.9922
24.2825,8.9544
24.3946,8.9195
24.3946,8.9195
24.4356,8.8947
24.5008,8.8765
26.2546,8.8765
26.3227,8.8965
26.3520,8.9226
26.4536,9.0464
26.5025,9.0866
26.6136,9.1777
26.7960,9.2752
26.9941,9.3353
26.9941,9.3353
26.9941,9.3353
27.2000,9.3556
27.2000,9.3556
27.2000,9.3556
27.4059,9.3353
27.4059,9.3353
27.4059,9.3353
27.6040,9.2752
27.7864,9.1777
27.9464,9.0464
28.0777,8.8864
28.1417,8.7666
28.1915,8.7160
28.2529,8.7000
29.2735,8.7000
Z" /> 
</g>
</g>
<g style="fill:#37CBCB; fill-opacity:1.0000; 
stroke:#37CBCB; stroke-width:0.0000; stroke-opacity:1; 
stroke-linecap:round; stroke-linejoin:round;">
<g >
<path style="fill:#37CBCB; fill-opacity:1.0000; 
stroke:#37CBCB; stroke-width:0.0000; stroke-opacity:1; 
stroke-linecap:round; stroke-linejoin:round;fill-rule:evenodd;"
d="M 29.3416,2.7205
29.3881,2.7742
29.3995,2.8265
29.3995,7.8613
29.3795,7.9295
29.3258,7.9760
29.2731,7.9873
8.0261,7.9237
7.9581,7.9035
7.9117,7.8497
7.9005,7.7977
7.9005,2.8265
7.9205,2.7584
7.9742,2.7119
8.0265,2.7005
29.2735,2.7005
Z" /> 
</g>
</g>
<g style="fill:#37CBCB; fill-opacity:1.0000; 
stroke:#37CBCB; stroke-width:0.0000; stroke-opacity:1; 
stroke-linecap:round; stroke-linejoin:round;">
<g >
<path style="fill:#37CBCB; fill-opacity:1.0000; 
stroke:#37CBCB; stroke-width:0.0000; stroke-opacity:1; 
stroke-linecap:round; stroke-linejoin:round;fill-rule:evenodd;"
d="M 9.2366,8.7200
9.2796,8.7666
9.3223,8.8464
9.4536,9.0064
9.6136,9.1377
9.7960,9.2352
9.9941,9.2953
9.9941,9.2953
9.9941,9.2953
10.2000,9.3156
10.2000,9.3156
10.2000,9.3156
10.4059,9.2953
10.4059,9.2953
10.4059,9.2953
10.6040,9.2352
10.7865,9.1377
10.9464,9.0064
11.0777,8.8464
11.1204,8.7666
11.1701,8.7160
11.2315,8.7000
16.1136,8.7000
16.1817,8.7200
16.2184,8.7560
16.2486,8.8013
16.2607,8.8193
16.3270,8.8636
16.3855,8.8753
16.7084,8.8753
16.7670,8.8897
16.8548,8.9358
16.8548,8.9358
16.8548,8.9358
16.9112,8.9497
17.0199,8.9765
17.0199,8.9765
17.1901,8.9765
17.1901,8.9765
17.3552,8.9358
17.4430,8.8897
17.5016,8.8753
17.8245,8.8753
17.8245,8.8753
17.8830,8.8636
17.9493,8.8193
17.9916,8.7560
18.0461,8.7105
18.0964,8.7000
22.7740,8.7000
22.8421,8.7200
22.8886,8.7737
22.9000,8.8260
22.9000,16.0735
22.8800,16.1416
22.8263,16.1881
22.7740,16.1995
8.0265,16.1995
7.9584,16.1795
7.9119,16.1258
7.9005,16.0735
7.9005,11.7425
16.2047,11.7425
16.2093,11.7654
16.2164,11.8010
16.2607,11.8673
16.3270,11.9116
16.3855,11.9233
16.7008,11.9233
16.7689,11.9433
16.7724,11.9456
16.7771,11.9488
16.7771,11.9488
16.8662,11.9826
16.9361,12.0091
17.0626,12.0245
18.2529,12.0245
18.2567,12.0246
18.3186,12.0284
18.3796,12.0172
18.3833,12.0166
18.4449,12.0091
18.4542,12.0056
18.4761,11.9995
18.4859,11.9977
18.5425,11.9722
18.5459,11.9708
18.6039,11.9488
18.6121,11.9432
18.6320,11.9320
18.6411,11.9279
18.6899,11.8896
18.6929,11.8874
18.7439,11.8522
18.7850,11.8058
18.7876,11.8030
18.8253,11.7654
18.9039,11.6651
18.9737,11.5099
19.0044,11.3426
18.9941,11.1728
18.9435,11.0104
18.8555,10.8648
18.8555,10.8648
18.8555,10.8648
18.7352,10.7445
18.7352,10.7445
18.7217,10.7364
18.5896,10.6565
18.5896,10.6565
18.5896,10.6565
18.4672,10.6184
18.4272,10.6059
18.4272,10.6059
18.2768,10.5968
18.2574,10.5956
18.2574,10.5956
18.2574,10.5956
18.1166,10.6214
18.0939,10.6235
17.0626,10.6235
16.9361,10.6389
16.7771,10.6992
16.7771,10.6992
16.7724,10.7024
16.7050,10.7247
16.7008,10.7247
16.3855,10.7247
16.3270,10.7364
16.3270,10.7364
16.2607,10.7807
16.2164,10.8470
16.2164,10.8470
16.2047,10.9055
16.2047,11.7425
7.9005,11.7425
7.9005,8.8260
7.9205,8.7579
7.9742,8.7114
8.0265,8.7000
9.1685,8.7000
Z" /> 
</g>
</g>
</g>
<g style="fill:#000000; fill-opacity:1.0000; 
stroke:#000000; stroke-width:0.0000; stroke-opacity:1; 
stroke-linecap:round; stroke-linejoin:round;">
<circle cx="26.3000" cy="14.3000" r="0.2000" /> 
</g>
<g style="fill:#000000; fill-opacity:1.0000; 
stroke:#000000; stroke-width:0.0212; stroke-opacity:1; 
stroke-linecap:round; stroke-linejoin:round;">
</g>
<g style="fill:#000000; fill-opacity:1.0000; 
stroke:#000000; stroke-width:0.0000; stroke-opacity:1; 
stroke-linecap:round; stroke-linejoin:round;">
<circle cx="18.3000" cy="11.3000" r="0.2000" /> 
</g>
<g style="fill:#000000; fill-opacity:1.0000; 
stroke:#000000; stroke-width:0.0212; stroke-opacity:1; 
stroke-linecap:round; stroke-linejoin:round;">
</g>
<g style="fill:#000000; fill-opacity:1.0000; 
stroke:#000000; stroke-width:0.0000; stroke-opacity:1; 
stroke-linecap:round; stroke-linejoin:round;">
<circle cx="15.7000" cy="14.3000" r="0.2000" /> 
</g>
<g style="fill:#000000; fill-opacity:1.0000; 
stroke:#000000; stroke-width:0.0212; stroke-opacity:1; 
stroke-linecap:round; stroke-linejoin:round;">
</g>
<g style="fill:#000000; fill-opacity:1.0000; 
stroke:#000000; stroke-width:0.0000; stroke-opacity:1; 
stroke-linecap:round; stroke-linejoin:round;">
<circle cx="21.2602" cy="9.8000" r="0.2000" /> 
</g>
<g style="fill:#000000; fill-opacity:1.0000; 
stroke:#000000; stroke-width:0.0212; stroke-opacity:1; 
stroke-linecap:round; stroke-linejoin:round;">
</g>
<g style="fill:#000000; fill-opacity:1.0000; 
stroke:#000000; stroke-width:0.0000; stroke-opacity:1; 
stroke-linecap:round; stroke-linejoin:round;">
<circle cx="14.2602" cy="9.8000" r="0.2000" /> 
</g>
<g style="fill:#000000; fill-opacity:1.0000; 
stroke:#000000; stroke-width:0.0212; stroke-opacity:1; 
stroke-linecap:round; stroke-linejoin:round;">
</g>
<g style="fill:#000000; fill-opacity:1.0000; 
stroke:#000000; stroke-width:0.0000; stroke-opacity:1; 
stroke-linecap:round; stroke-linejoin:round;">
<circle cx="18.7000" cy="4.8000" r="0.2000" /> 
</g>
<g style="fill:#000000; fill-opacity:1.0000; 
stroke:#000000; stroke-width:0.0212; stroke-opacity:1; 
stroke-linecap:round; stroke-linejoin:round;">
</g>
<g style="fill:#000000; fill-opacity:1.0000; 
stroke:#000000; stroke-width:0.0000; stroke-opacity:1; 
stroke-linecap:round; stroke-linejoin:round;">
<circle cx="22.6000" cy="7.2000" r="0.2000" /> 
</g>
<g style="fill:#000000; fill-opacity:1.0000; 
stroke:#000000; stroke-width:0.0212; stroke-opacity:1; 
stroke-linecap:round; stroke-linejoin:round;">
</g>
<g style="fill:#000000; fill-opacity:1.0000; 
stroke:#000000; stroke-width:0.0000; stroke-opacity:1; 
stroke-linecap:round; stroke-linejoin:round;">
<circle cx="15.7000" cy="7.2000" r="0.2000" /> 
</g>
<g style="fill:#000000; fill-opacity:1.0000; 
stroke:#000000; stroke-width:0.0212; stroke-opacity:1; 
stroke-linecap:round; stroke-linejoin:round;">
</g>
<g style="fill:#000000; fill-opacity:1.0000; 
stroke:#000000; stroke-width:0.0000; stroke-opacity:1; 
stroke-linecap:round; stroke-linejoin:round;">
<circle cx="27.2000" cy="8.3000" r="0.5000" /> 
</g>
<g style="fill:#000000; fill-opacity:1.0000; 
stroke:#000000; stroke-width:0.0212; stroke-opacity:1; 
stroke-linecap:round; stroke-linejoin:round;">
</g>
<g style="fill:#000000; fill-opacity:1.0000; 
stroke:#000000; stroke-width:0.0000; stroke-opacity:1; 
stroke-linecap:round; stroke-linejoin:round;">
<circle cx="27.2000" cy="10.8400" r="0.5000" /> 
</g>
<g style="fill:#000000; fill-opacity:1.0000; 
stroke:#000000; stroke-width:0.0212; stroke-opacity:1; 
stroke-linecap:round; stroke-linejoin:round;">
</g>
<g style="fill:#000000; fill-opacity:1.0000; 
stroke:#000000; stroke-width:0.0000; stroke-opacity:1; 
stroke-linecap:round; stroke-linejoin:round;">
<circle cx="10.2000" cy="10.8000" r="0.5000" /> 
</g>
<g style="fill:#000000; fill-opacity:1.0000; 
stroke:#000000; stroke-width:0.0212; stroke-opacity:1; 
stroke-linecap:round; stroke-linejoin:round;">
</g>
<g style="fill:#000000; fill-opacity:1.0000; 
stroke:#000000; stroke-width:0.0000; stroke-opacity:1; 
stroke-linecap:round; stroke-linejoin:round;">
<circle cx="10.2000" cy="8.2600" r="0.5000" /> 
</g>
<g style="fill:#000000; fill-opacity:1.0000; 
stroke:#000000; stroke-width:0.0212; stroke-opacity:1; 
stroke-linecap:round; stroke-linejoin:round;">
</g>
<g style="fill:#FFFFFF; fill-opacity:1.0000; 
stroke:#FFFFFF; stroke-width:0.0212; stroke-opacity:1; 
stroke-linecap:round; stroke-linejoin:round;">
<g >
</g>
<g >
</g>
<g >
</g>
<g >
</g>
<g >
</g>
<g >
</g>
<g >
</g>
<g >
</g>
<g >
</g>
<g >
</g>
<g >
</g>
<g >
</g>
<g >
</g>
</g>
<g style="fill:#FFFFFF; fill-opacity:1.0000; 
stroke:#FFFFFF; stroke-width:0.0212; stroke-opacity:1; 
stroke-linecap:round; stroke-linejoin:round;">
</g>
<g style="fill:#2F2D31; fill-opacity:1.0000; 
stroke:#2F2D31; stroke-width:0.0212; stroke-opacity:1; 
stroke-linecap:round; stroke-linejoin:round;">
</g>
<g style="fill:#2F2D31; fill-opacity:1.0000; 
stroke:#2F2D31; stroke-width:0.1500; stroke-opacity:1; 
stroke-linecap:round; stroke-linejoin:round;">
</g>
<g style="fill:#2F2D31; fill-opacity:0.0; 
stroke:#2F2D31; stroke-width:0.1500; stroke-opacity:1; 
stroke-linecap:round; stroke-linejoin:round;">
<path d="M29.9000 2.2000
L29.9000 16.7000
" />
<path d="M7.4000 16.7000
L7.4000 2.2000
" />
<path d="M7.4000 2.2000
L29.9000 2.2000
" />
<path d="M29.9000 16.7000
L7.4000 16.7000
" />
<g >
</g>
<g >
</g>
<g >
</g>
<g >
</g>
<g >
</g>
<g >
</g>
<g >
</g>
<g >
</g>
<g >
</g>
<g >
</g>
<g >
</g>
<g >
</g>
<g >
</g>
</g> 
</svg>
