<?xml version="1.0" standalone="no"?>
 <!DOCTYPE svg PUBLIC "-//W3C//DTD SVG 1.1//EN" 
 "http://www.w3.org/Graphics/SVG/1.1/DTD/svg11.dtd"> 
<svg
  xmlns:svg="http://www.w3.org/2000/svg"
  xmlns="http://www.w3.org/2000/svg"
  xmlns:xlink="http://www.w3.org/1999/xlink"
  version="1.1"
  width="60.9346mm" height="132.5880mm" viewBox="0.0000 0.0000 60.9346 132.5880">
<title>SVG Image created as working-brd.svg date 2023/09/30 00:55:53 </title>
  <desc>Image generated by PCBNEW </desc>
<g style="fill:#000000; fill-opacity:1.0000;stroke:#000000; stroke-opacity:1.0000;
stroke-linecap:round; stroke-linejoin:round;"
 transform="translate(0 0) scale(1 1)">
</g>
<g style="fill:#000000; fill-opacity:0.0; 
stroke:#000000; stroke-width:0.0000; stroke-opacity:1; 
stroke-linecap:round; stroke-linejoin:round;">
</g>
<g style="fill:#000000; fill-opacity:1.0000; 
stroke:#000000; stroke-width:0.0212; stroke-opacity:1; 
stroke-linecap:round; stroke-linejoin:round;">
<rect x="-5.000000" y="-5.000000" width="70.950000" height="142.600000" rx="0.000000" />
</g>
<g style="fill:#FFFFFF; fill-opacity:1.0000; 
stroke:#FFFFFF; stroke-width:0.0212; stroke-opacity:1; 
stroke-linecap:round; stroke-linejoin:round;">
</g>
<g style="fill:#B2803A; fill-opacity:1.0000; 
stroke:#B2803A; stroke-width:0.0212; stroke-opacity:1; 
stroke-linecap:round; stroke-linejoin:round;">
</g>
<g style="fill:#B2803A; fill-opacity:1.0000; 
stroke:#B2803A; stroke-width:0.1000; stroke-opacity:1; 
stroke-linecap:round; stroke-linejoin:round;">
<path style="fill:#B2803A; fill-opacity:1.0000; 
stroke:#B2803A; stroke-width:0.1000; stroke-opacity:1; 
stroke-linecap:round; stroke-linejoin:round;fill-rule:evenodd;"
d="M 19.9750,105.5500
40.9750,105.5500
45.4750,99.5500
59.4750,99.5500
59.4750,123.0500
49.9750,123.0500
48.4750,121.0500
12.4750,121.0500
10.9750,123.0500
1.4750,123.0500
1.4750,99.5500
14.9750,99.5500
Z" /> 
<path style="fill:#B2803A; fill-opacity:1.0000; 
stroke:#B2803A; stroke-width:0.1000; stroke-opacity:1; 
stroke-linecap:round; stroke-linejoin:round;fill-rule:evenodd;"
d="M 48.4750,4.5500
48.4750,5.5500
46.4750,8.5500
14.4750,8.5500
12.4750,5.5500
12.4750,4.5500
14.4750,1.5500
46.4750,1.5500
Z" /> 
<path style="fill:#B2803A; fill-opacity:1.0000; 
stroke:#B2803A; stroke-width:0.1000; stroke-opacity:1; 
stroke-linecap:round; stroke-linejoin:round;fill-rule:evenodd;"
d="M 49.9750,124.5500
49.9750,125.5500
47.4750,128.0500
12.9750,128.0500
10.9750,125.5500
10.9750,124.5500
12.9750,122.0500
47.9750,122.0500
Z" /> 
<path style="fill:#B2803A; fill-opacity:1.0000; 
stroke:#B2803A; stroke-width:0.1000; stroke-opacity:1; 
stroke-linecap:round; stroke-linejoin:round;fill-rule:evenodd;"
d="M 13.9750,9.5500
46.9750,9.5500
48.9750,6.5500
59.4750,6.5500
59.4750,58.5500
41.4750,58.5500
35.4750,52.5500
25.4750,52.5500
19.4750,58.5500
1.4750,58.5500
1.4750,6.5500
11.9750,6.5500
Z" /> 
<path style="fill:#B2803A; fill-opacity:1.0000; 
stroke:#B2803A; stroke-width:0.1000; stroke-opacity:1; 
stroke-linecap:round; stroke-linejoin:round;fill-rule:evenodd;"
d="M 25.4750,79.5500
35.4750,79.5500
41.4750,73.5500
59.4750,73.5500
59.4750,98.5500
44.9750,98.5500
40.4750,104.5500
20.4750,104.5500
15.4750,98.5500
1.4750,98.5500
1.4750,73.5500
19.4750,73.5500
Z" /> 
<path style="fill:#B2803A; fill-opacity:1.0000; 
stroke:#B2803A; stroke-width:0.1000; stroke-opacity:1; 
stroke-linecap:round; stroke-linejoin:round;fill-rule:evenodd;"
d="M 40.9750,59.5500
59.4750,59.5500
59.4750,72.5500
40.9750,72.5500
34.9750,78.5500
25.9750,78.5500
19.9750,72.5500
1.4750,72.5500
1.4750,59.5500
19.9750,59.5500
25.9750,53.5500
34.9750,53.5500
Z" /> 
<g >
</g>
<g >
</g>
<g >
</g>
<g >
</g>
<g >
</g>
<g >
</g>
<g >
</g>
<g >
</g>
<g >
</g>
<g >
</g>
<g >
</g>
<g >
</g>
<g >
</g>
<g >
</g>
<g >
</g>
<g >
</g>
<g >
</g>
<g >
</g>
<g >
</g>
<g >
</g>
<g >
</g>
<g >
</g>
<g >
</g>
<g >
</g>
<g >
</g>
</g>
<g style="fill:#000000; fill-opacity:1.0000; 
stroke:#000000; stroke-width:0.1000; stroke-opacity:1; 
stroke-linecap:round; stroke-linejoin:round;">
</g>
<g style="fill:#000000; fill-opacity:1.0000; 
stroke:#000000; stroke-width:3.2000; stroke-opacity:1; 
stroke-linecap:round; stroke-linejoin:round;">
</g>
<g style="fill:#000000; fill-opacity:0.0; 
stroke:#000000; stroke-width:3.2000; stroke-opacity:1; 
stroke-linecap:round; stroke-linejoin:round;">
<path d="M52.4750 3.4500
L54.2750 3.4500
" />
<path d="M6.6750 3.4500
L8.4750 3.4500
" />
<path d="M52.4750 125.9500
L54.2750 125.9500
" />
<path d="M6.6750 125.9500
L8.4750 125.9500
" />
</g>
<g style="fill:#000000; fill-opacity:1.0000; 
stroke:#000000; stroke-width:0.0000; stroke-opacity:1; 
stroke-linecap:round; stroke-linejoin:round;">
<circle cx="14.4750" cy="25.0500" r="3.5000" /> 
</g>
<g style="fill:#000000; fill-opacity:1.0000; 
stroke:#000000; stroke-width:0.0212; stroke-opacity:1; 
stroke-linecap:round; stroke-linejoin:round;">
</g>
<g style="fill:#000000; fill-opacity:1.0000; 
stroke:#000000; stroke-width:0.0000; stroke-opacity:1; 
stroke-linecap:round; stroke-linejoin:round;">
<circle cx="46.4750" cy="25.0500" r="3.5000" /> 
</g>
<g style="fill:#000000; fill-opacity:1.0000; 
stroke:#000000; stroke-width:0.0212; stroke-opacity:1; 
stroke-linecap:round; stroke-linejoin:round;">
</g>
<g style="fill:#000000; fill-opacity:1.0000; 
stroke:#000000; stroke-width:0.0000; stroke-opacity:1; 
stroke-linecap:round; stroke-linejoin:round;">
<circle cx="30.4750" cy="43.5500" r="3.5000" /> 
</g>
<g style="fill:#000000; fill-opacity:1.0000; 
stroke:#000000; stroke-width:0.0212; stroke-opacity:1; 
stroke-linecap:round; stroke-linejoin:round;">
</g>
<g style="fill:#000000; fill-opacity:1.0000; 
stroke:#000000; stroke-width:0.0000; stroke-opacity:1; 
stroke-linecap:round; stroke-linejoin:round;">
<circle cx="30.4750" cy="65.5500" r="3.5000" /> 
</g>
<g style="fill:#000000; fill-opacity:1.0000; 
stroke:#000000; stroke-width:0.0212; stroke-opacity:1; 
stroke-linecap:round; stroke-linejoin:round;">
</g>
<g style="fill:#000000; fill-opacity:1.0000; 
stroke:#000000; stroke-width:0.0000; stroke-opacity:1; 
stroke-linecap:round; stroke-linejoin:round;">
<circle cx="14.4750" cy="85.0500" r="3.5000" /> 
</g>
<g style="fill:#000000; fill-opacity:1.0000; 
stroke:#000000; stroke-width:0.0212; stroke-opacity:1; 
stroke-linecap:round; stroke-linejoin:round;">
</g>
<g style="fill:#000000; fill-opacity:1.0000; 
stroke:#000000; stroke-width:0.0000; stroke-opacity:1; 
stroke-linecap:round; stroke-linejoin:round;">
<circle cx="46.4750" cy="85.0500" r="3.5000" /> 
</g>
<g style="fill:#000000; fill-opacity:1.0000; 
stroke:#000000; stroke-width:0.0212; stroke-opacity:1; 
stroke-linecap:round; stroke-linejoin:round;">
</g>
<g style="fill:#000000; fill-opacity:1.0000; 
stroke:#000000; stroke-width:0.0000; stroke-opacity:1; 
stroke-linecap:round; stroke-linejoin:round;">
<circle cx="5.4750" cy="111.0500" r="3.0000" /> 
</g>
<g style="fill:#000000; fill-opacity:1.0000; 
stroke:#000000; stroke-width:0.0212; stroke-opacity:1; 
stroke-linecap:round; stroke-linejoin:round;">
</g>
<g style="fill:#000000; fill-opacity:1.0000; 
stroke:#000000; stroke-width:0.0000; stroke-opacity:1; 
stroke-linecap:round; stroke-linejoin:round;">
<circle cx="15.4750" cy="111.0500" r="3.0000" /> 
</g>
<g style="fill:#000000; fill-opacity:1.0000; 
stroke:#000000; stroke-width:0.0212; stroke-opacity:1; 
stroke-linecap:round; stroke-linejoin:round;">
</g>
<g style="fill:#000000; fill-opacity:1.0000; 
stroke:#000000; stroke-width:0.0000; stroke-opacity:1; 
stroke-linecap:round; stroke-linejoin:round;">
<circle cx="25.4750" cy="111.0500" r="3.0000" /> 
</g>
<g style="fill:#000000; fill-opacity:1.0000; 
stroke:#000000; stroke-width:0.0212; stroke-opacity:1; 
stroke-linecap:round; stroke-linejoin:round;">
</g>
<g style="fill:#000000; fill-opacity:1.0000; 
stroke:#000000; stroke-width:0.0000; stroke-opacity:1; 
stroke-linecap:round; stroke-linejoin:round;">
<circle cx="35.4750" cy="111.0500" r="3.0000" /> 
</g>
<g style="fill:#000000; fill-opacity:1.0000; 
stroke:#000000; stroke-width:0.0212; stroke-opacity:1; 
stroke-linecap:round; stroke-linejoin:round;">
</g>
<g style="fill:#000000; fill-opacity:1.0000; 
stroke:#000000; stroke-width:0.0000; stroke-opacity:1; 
stroke-linecap:round; stroke-linejoin:round;">
<circle cx="45.4750" cy="111.0500" r="3.0000" /> 
</g>
<g style="fill:#000000; fill-opacity:1.0000; 
stroke:#000000; stroke-width:0.0212; stroke-opacity:1; 
stroke-linecap:round; stroke-linejoin:round;">
</g>
<g style="fill:#000000; fill-opacity:1.0000; 
stroke:#000000; stroke-width:0.0000; stroke-opacity:1; 
stroke-linecap:round; stroke-linejoin:round;">
<circle cx="55.4750" cy="111.0500" r="3.0000" /> 
</g>
<g style="fill:#000000; fill-opacity:1.0000; 
stroke:#000000; stroke-width:0.0212; stroke-opacity:1; 
stroke-linecap:round; stroke-linejoin:round;">
</g>
<g style="fill:#000000; fill-opacity:1.0000; 
stroke:#000000; stroke-width:0.0000; stroke-opacity:1; 
stroke-linecap:round; stroke-linejoin:round;">
<circle cx="11.9750" cy="45.0000" r="2.5000" /> 
</g>
<g style="fill:#000000; fill-opacity:1.0000; 
stroke:#000000; stroke-width:0.0212; stroke-opacity:1; 
stroke-linecap:round; stroke-linejoin:round;">
</g>
<g style="fill:#000000; fill-opacity:1.0000; 
stroke:#000000; stroke-width:0.0000; stroke-opacity:1; 
stroke-linecap:round; stroke-linejoin:round;">
<circle cx="48.9750" cy="45.0000" r="2.5000" /> 
</g>
<g style="fill:#000000; fill-opacity:1.0000; 
stroke:#000000; stroke-width:0.0212; stroke-opacity:1; 
stroke-linecap:round; stroke-linejoin:round;">
</g>
<g style="fill:#000000; fill-opacity:1.0000; 
stroke:#000000; stroke-width:0.0000; stroke-opacity:1; 
stroke-linecap:round; stroke-linejoin:round;">
<circle cx="13.2250" cy="65.8000" r="1.7500" /> 
</g>
<g style="fill:#000000; fill-opacity:1.0000; 
stroke:#000000; stroke-width:0.0212; stroke-opacity:1; 
stroke-linecap:round; stroke-linejoin:round;">
</g>
<g style="fill:#000000; fill-opacity:1.0000; 
stroke:#000000; stroke-width:0.0000; stroke-opacity:1; 
stroke-linecap:round; stroke-linejoin:round;">
<circle cx="47.7250" cy="65.8000" r="1.7500" /> 
</g>
<g style="fill:#000000; fill-opacity:1.0000; 
stroke:#000000; stroke-width:0.0212; stroke-opacity:1; 
stroke-linecap:round; stroke-linejoin:round;">
</g>
<g style="fill:#FFFFFF; fill-opacity:1.0000; 
stroke:#FFFFFF; stroke-width:0.0212; stroke-opacity:1; 
stroke-linecap:round; stroke-linejoin:round;">
<g >
</g>
<g >
</g>
<g >
</g>
<g >
</g>
<g >
</g>
<g >
</g>
<g >
</g>
<g >
</g>
<g >
</g>
<g >
</g>
<g >
</g>
<g >
</g>
<g >
</g>
<g >
</g>
<g >
</g>
<g >
</g>
<g >
</g>
<g >
</g>
<g >
</g>
<g >
</g>
<g >
</g>
<g style="fill:#37CBCB; fill-opacity:1.0000; 
stroke:#37CBCB; stroke-width:0.0212; stroke-opacity:1; 
stroke-linecap:round; stroke-linejoin:round;">
</g>
<g style="fill:#37CBCB; fill-opacity:1.0000; 
stroke:#37CBCB; stroke-width:0.0000; stroke-opacity:1; 
stroke-linecap:round; stroke-linejoin:round;">
<path style="fill:#37CBCB; fill-opacity:1.0000; 
stroke:#37CBCB; stroke-width:0.0000; stroke-opacity:1; 
stroke-linecap:round; stroke-linejoin:round;fill-rule:evenodd;"
d="M 28.9050,16.5000
28.9050,15.6000
29.4050,15.6000
29.4050,16.5000
Z" /> 
<path style="fill:#37CBCB; fill-opacity:1.0000; 
stroke:#37CBCB; stroke-width:0.0000; stroke-opacity:1; 
stroke-linecap:round; stroke-linejoin:round;fill-rule:evenodd;"
d="M 30.4050,16.5000
30.4050,15.6000
30.9050,15.6000
30.9050,16.5000
Z" /> 
</g>
<g >
</g>
<g >
</g>
<g >
</g>
<g >
</g>
<g style="fill:#37CBCB; fill-opacity:1.0000; 
stroke:#37CBCB; stroke-width:0.0000; stroke-opacity:1; 
stroke-linecap:round; stroke-linejoin:round;">
<g >
<path style="fill:#37CBCB; fill-opacity:1.0000; 
stroke:#37CBCB; stroke-width:0.0000; stroke-opacity:1; 
stroke-linecap:round; stroke-linejoin:round;fill-rule:evenodd;"
d="M 60.7666,0.5205
60.8131,0.5742
60.8245,0.6265
60.8245,128.7735
60.8045,128.8416
60.7508,128.8881
60.6985,128.8995
0.2515,128.8995
0.1834,128.8795
0.1369,128.8258
0.1255,128.7735
0.1255,126.0178
4.8208,126.0178
4.8504,126.2870
4.9189,126.5491
5.0249,126.7984
5.0249,126.7984
5.1660,127.0296
5.3393,127.2378
5.5410,127.4186
5.7669,127.5680
6.0122,127.6830
6.2716,127.7611
6.2716,127.7611
6.2716,127.7611
6.5396,127.8005
6.5396,127.8005
8.5426,127.8005
8.5774,127.7980
8.7452,127.7857
8.7452,127.7857
8.7452,127.7857
8.8557,127.7611
9.0096,127.7268
9.2626,127.6300
9.4988,127.4974
9.7132,127.3319
9.9012,127.1369
10.0588,126.9166
10.1827,126.6757
10.2701,126.4193
10.3193,126.1529
10.3243,126.0178
50.6208,126.0178
50.6504,126.2870
50.7189,126.5491
50.8249,126.7984
50.8249,126.7984
50.9660,127.0296
51.1393,127.2378
51.3410,127.4186
51.5669,127.5680
51.8122,127.6830
52.0716,127.7611
52.0716,127.7611
52.0716,127.7611
52.3396,127.8005
52.3396,127.8005
54.3426,127.8005
54.3774,127.7980
54.5452,127.7857
54.5452,127.7857
54.5452,127.7857
54.6557,127.7611
54.8096,127.7268
55.0626,127.6300
55.2988,127.4974
55.5132,127.3319
55.7012,127.1369
55.8588,126.9166
55.9827,126.6757
56.0701,126.4193
56.1193,126.1529
56.1292,125.8822
56.1143,125.7471
56.0996,125.6130
56.0311,125.3509
55.9251,125.1016
55.9251,125.1016
55.7840,124.8704
55.6107,124.6622
55.6107,124.6622
55.6107,124.6622
55.4090,124.4814
55.4090,124.4814
55.1831,124.3320
54.9378,124.2170
54.7804,124.1696
54.6784,124.1389
54.4104,124.0995
54.4104,124.0995
52.4074,124.0995
52.4074,124.0995
52.2048,124.1143
52.2048,124.1143
51.9405,124.1732
51.9404,124.1732
51.6874,124.2700
51.4512,124.4026
51.4512,124.4026
51.2368,124.5681
51.0488,124.7631
51.0488,124.7631
50.8912,124.9834
50.8912,124.9834
50.7673,125.2243
50.7673,125.2243
50.6799,125.4807
50.6799,125.4807
50.6307,125.7471
50.6307,125.7471
50.6208,126.0178
10.3243,126.0178
10.3292,125.8822
10.3143,125.7471
10.2996,125.6130
10.2311,125.3509
10.1251,125.1016
10.1251,125.1016
9.9840,124.8704
9.8107,124.6622
9.8107,124.6622
9.8107,124.6622
9.6090,124.4814
9.6090,124.4814
9.3831,124.3320
9.1378,124.2170
8.9804,124.1696
8.8784,124.1389
8.6104,124.0995
8.6104,124.0995
6.6074,124.0995
6.6074,124.0995
6.4048,124.1143
6.4048,124.1143
6.1405,124.1732
6.1404,124.1732
5.8874,124.2700
5.6512,124.4026
5.6512,124.4026
5.4368,124.5681
5.2488,124.7631
5.2488,124.7631
5.0912,124.9834
5.0912,124.9834
4.9673,125.2243
4.9673,125.2243
4.8799,125.4807
4.8799,125.4807
4.8307,125.7471
4.8307,125.7471
4.8208,126.0178
0.1255,126.0178
0.1255,110.9603
2.2208,110.9603
2.2307,111.3188
2.2307,111.3188
2.2799,111.6741
2.3680,112.0218
2.4315,112.1915
2.4938,112.3577
2.6557,112.6777
2.8519,112.9780
3.0799,113.2549
3.3370,113.5050
3.6200,113.7253
3.9256,113.9131
4.2499,114.0661
4.5892,114.1826
4.5892,114.1826
4.5892,114.1826
4.9392,114.2610
4.9392,114.2610
4.9392,114.2610
5.2957,114.3005
5.2957,114.3005
5.5646,114.3005
5.5646,114.3005
5.8331,114.2857
6.1869,114.2266
6.5320,114.1291
6.8643,113.9941
7.1798,113.8234
7.4745,113.6190
7.7450,113.3834
7.9879,113.1196
8.2003,112.8306
8.3797,112.5199
8.5238,112.1915
8.6308,111.8492
8.6996,111.4971
8.7292,111.1397
8.7243,110.9603
12.2208,110.9603
12.2307,111.3188
12.2307,111.3188
12.2799,111.6741
12.3680,112.0218
12.4315,112.1915
12.4938,112.3577
12.6557,112.6777
12.8519,112.9780
13.0799,113.2549
13.3370,113.5050
13.6200,113.7253
13.9256,113.9131
14.2499,114.0661
14.5892,114.1826
14.5892,114.1826
14.5892,114.1826
14.9392,114.2610
14.9392,114.2610
14.9392,114.2610
15.2957,114.3005
15.2957,114.3005
15.5646,114.3005
15.5646,114.3005
15.8331,114.2857
16.1869,114.2266
16.5320,114.1291
16.8643,113.9941
17.1798,113.8234
17.4745,113.6190
17.7450,113.3834
17.9879,113.1196
18.2003,112.8306
18.3797,112.5199
18.5238,112.1915
18.6308,111.8492
18.6996,111.4971
18.7292,111.1397
18.7243,110.9603
22.2208,110.9603
22.2307,111.3188
22.2307,111.3188
22.2799,111.6741
22.3680,112.0218
22.4315,112.1915
22.4938,112.3577
22.6557,112.6777
22.8519,112.9780
23.0799,113.2549
23.3370,113.5050
23.6200,113.7253
23.9256,113.9131
24.2499,114.0661
24.5892,114.1826
24.5892,114.1826
24.5892,114.1826
24.9392,114.2610
24.9392,114.2610
24.9392,114.2610
25.2957,114.3005
25.2957,114.3005
25.5646,114.3005
25.5646,114.3005
25.8331,114.2857
26.1869,114.2266
26.5320,114.1291
26.8643,113.9941
27.1798,113.8234
27.4745,113.6190
27.7450,113.3834
27.9879,113.1196
28.2003,112.8306
28.3797,112.5199
28.5238,112.1915
28.6308,111.8492
28.6996,111.4971
28.7292,111.1397
28.7243,110.9603
32.2208,110.9603
32.2307,111.3188
32.2307,111.3188
32.2799,111.6741
32.3680,112.0218
32.4315,112.1915
32.4938,112.3577
32.6557,112.6777
32.8519,112.9780
33.0799,113.2549
33.3370,113.5050
33.6200,113.7253
33.9256,113.9131
34.2499,114.0661
34.5892,114.1826
34.5892,114.1826
34.5892,114.1826
34.9392,114.2610
34.9392,114.2610
34.9392,114.2610
35.2957,114.3005
35.2957,114.3005
35.5646,114.3005
35.5646,114.3005
35.8331,114.2857
36.1869,114.2266
36.5320,114.1291
36.8643,113.9941
37.1798,113.8234
37.4745,113.6190
37.7450,113.3834
37.9879,113.1196
38.2003,112.8306
38.3797,112.5199
38.5238,112.1915
38.6308,111.8492
38.6996,111.4971
38.7292,111.1397
38.7243,110.9603
42.2208,110.9603
42.2307,111.3188
42.2307,111.3188
42.2799,111.6741
42.3680,112.0218
42.4315,112.1915
42.4938,112.3577
42.6557,112.6777
42.8519,112.9780
43.0799,113.2549
43.3370,113.5050
43.6200,113.7253
43.9256,113.9131
44.2499,114.0661
44.5892,114.1826
44.5892,114.1826
44.5892,114.1826
44.9392,114.2610
44.9392,114.2610
44.9392,114.2610
45.2957,114.3005
45.2957,114.3005
45.5646,114.3005
45.5646,114.3005
45.8331,114.2857
46.1869,114.2266
46.5320,114.1291
46.8643,113.9941
47.1798,113.8234
47.4745,113.6190
47.7450,113.3834
47.9879,113.1196
48.2003,112.8306
48.3797,112.5199
48.5238,112.1915
48.6308,111.8492
48.6996,111.4971
48.7292,111.1397
48.7243,110.9603
52.2208,110.9603
52.2307,111.3188
52.2307,111.3188
52.2799,111.6741
52.3680,112.0218
52.4315,112.1915
52.4938,112.3577
52.6557,112.6777
52.8519,112.9780
53.0799,113.2549
53.3370,113.5050
53.6200,113.7253
53.9256,113.9131
54.2499,114.0661
54.5892,114.1826
54.5892,114.1826
54.5892,114.1826
54.9392,114.2610
54.9392,114.2610
54.9392,114.2610
55.2957,114.3005
55.2957,114.3005
55.5646,114.3005
55.5646,114.3005
55.8331,114.2857
56.1869,114.2266
56.5320,114.1291
56.8643,113.9941
57.1798,113.8234
57.4745,113.6190
57.7450,113.3834
57.9879,113.1196
58.2003,112.8306
58.3797,112.5199
58.5238,112.1915
58.6308,111.8492
58.6996,111.4971
58.7292,111.1397
58.7193,110.7812
58.6701,110.4259
58.6257,110.2508
58.5820,110.0782
58.4562,109.7423
58.4562,109.7423
58.2943,109.4223
58.0981,109.1220
57.8701,108.8451
57.6130,108.5950
57.3300,108.3747
57.3300,108.3747
57.3300,108.3747
57.0244,108.1869
56.7001,108.0339
56.7001,108.0339
56.7001,108.0339
56.6717,108.0241
56.3608,107.9174
56.3608,107.9174
56.0108,107.8390
56.0108,107.8390
56.0108,107.8390
56.0108,107.8390
56.0108,107.8390
55.7882,107.8143
55.6543,107.7995
55.3854,107.7995
55.1169,107.8143
55.1169,107.8143
54.7631,107.8734
54.4180,107.9709
54.4180,107.9709
54.0857,108.1059
54.0856,108.1059
53.7702,108.2766
53.7702,108.2766
53.4755,108.4810
53.2050,108.7166
53.2050,108.7166
52.9621,108.9804
52.9621,108.9804
52.7497,109.2694
52.7496,109.2695
52.5703,109.5801
52.5703,109.5801
52.4262,109.9085
52.4262,109.9085
52.3192,110.2508
52.3192,110.2508
52.2504,110.6028
52.2208,110.9603
48.7243,110.9603
48.7193,110.7812
48.6701,110.4259
48.6257,110.2508
48.5820,110.0782
48.4562,109.7423
48.4562,109.7423
48.2943,109.4223
48.0981,109.1220
47.8701,108.8451
47.6130,108.5950
47.3300,108.3747
47.3300,108.3747
47.3300,108.3747
47.0244,108.1869
46.7001,108.0339
46.7001,108.0339
46.7001,108.0339
46.6717,108.0241
46.3608,107.9174
46.3608,107.9174
46.0108,107.8390
46.0108,107.8390
46.0108,107.8390
46.0108,107.8390
46.0108,107.8390
45.7882,107.8143
45.6543,107.7995
45.3854,107.7995
45.1169,107.8143
45.1169,107.8143
44.7631,107.8734
44.4180,107.9709
44.4180,107.9709
44.0857,108.1059
44.0856,108.1059
43.7702,108.2766
43.7702,108.2766
43.4755,108.4810
43.2050,108.7166
43.2050,108.7166
42.9621,108.9804
42.9621,108.9804
42.7497,109.2694
42.7496,109.2695
42.5703,109.5801
42.5703,109.5801
42.4262,109.9085
42.4262,109.9085
42.3192,110.2508
42.3192,110.2508
42.2504,110.6028
42.2208,110.9603
38.7243,110.9603
38.7193,110.7812
38.6701,110.4259
38.6257,110.2508
38.5820,110.0782
38.4562,109.7423
38.4562,109.7423
38.2943,109.4223
38.0981,109.1220
37.8701,108.8451
37.6130,108.5950
37.3300,108.3747
37.3300,108.3747
37.3300,108.3747
37.0244,108.1869
36.7001,108.0339
36.7001,108.0339
36.7001,108.0339
36.6717,108.0241
36.3608,107.9174
36.3608,107.9174
36.0108,107.8390
36.0108,107.8390
36.0108,107.8390
36.0108,107.8390
36.0108,107.8390
35.7882,107.8143
35.6543,107.7995
35.3854,107.7995
35.1169,107.8143
35.1169,107.8143
34.7631,107.8734
34.4180,107.9709
34.4180,107.9709
34.0857,108.1059
34.0856,108.1059
33.7702,108.2766
33.7702,108.2766
33.4755,108.4810
33.2050,108.7166
33.2050,108.7166
32.9621,108.9804
32.9621,108.9804
32.7497,109.2694
32.7496,109.2695
32.5703,109.5801
32.5703,109.5801
32.4262,109.9085
32.4262,109.9085
32.3192,110.2508
32.3192,110.2508
32.2504,110.6028
32.2208,110.9603
28.7243,110.9603
28.7193,110.7812
28.6701,110.4259
28.6257,110.2508
28.5820,110.0782
28.4562,109.7423
28.4562,109.7423
28.2943,109.4223
28.0981,109.1220
27.8701,108.8451
27.6130,108.5950
27.3300,108.3747
27.3300,108.3747
27.3300,108.3747
27.0244,108.1869
26.7001,108.0339
26.7001,108.0339
26.7001,108.0339
26.6717,108.0241
26.3608,107.9174
26.3608,107.9174
26.0108,107.8390
26.0108,107.8390
26.0108,107.8390
26.0108,107.8390
26.0108,107.8390
25.7882,107.8143
25.6543,107.7995
25.3854,107.7995
25.1169,107.8143
25.1169,107.8143
24.7631,107.8734
24.4180,107.9709
24.4180,107.9709
24.0857,108.1059
24.0856,108.1059
23.7702,108.2766
23.7702,108.2766
23.4755,108.4810
23.2050,108.7166
23.2050,108.7166
22.9621,108.9804
22.9621,108.9804
22.7497,109.2694
22.7496,109.2695
22.5703,109.5801
22.5703,109.5801
22.4262,109.9085
22.4262,109.9085
22.3192,110.2508
22.3192,110.2508
22.2504,110.6028
22.2208,110.9603
18.7243,110.9603
18.7193,110.7812
18.6701,110.4259
18.6257,110.2508
18.5820,110.0782
18.4562,109.7423
18.4562,109.7423
18.2943,109.4223
18.0981,109.1220
17.8701,108.8451
17.6130,108.5950
17.3300,108.3747
17.3300,108.3747
17.3300,108.3747
17.0244,108.1869
16.7001,108.0339
16.7001,108.0339
16.7001,108.0339
16.6717,108.0241
16.3608,107.9174
16.3608,107.9174
16.0108,107.8390
16.0108,107.8390
16.0108,107.8390
16.0108,107.8390
16.0108,107.8390
15.7882,107.8143
15.6543,107.7995
15.3854,107.7995
15.1169,107.8143
15.1169,107.8143
14.7631,107.8734
14.4180,107.9709
14.4180,107.9709
14.0857,108.1059
14.0856,108.1059
13.7702,108.2766
13.7702,108.2766
13.4755,108.4810
13.2050,108.7166
13.2050,108.7166
12.9621,108.9804
12.9621,108.9804
12.7497,109.2694
12.7496,109.2695
12.5703,109.5801
12.5703,109.5801
12.4262,109.9085
12.4262,109.9085
12.3192,110.2508
12.3192,110.2508
12.2504,110.6028
12.2208,110.9603
8.7243,110.9603
8.7193,110.7812
8.6701,110.4259
8.6257,110.2508
8.5820,110.0782
8.4562,109.7423
8.4562,109.7423
8.2943,109.4223
8.0981,109.1220
7.8701,108.8451
7.6130,108.5950
7.3300,108.3747
7.3300,108.3747
7.3300,108.3747
7.0244,108.1869
6.7001,108.0339
6.7001,108.0339
6.7001,108.0339
6.6717,108.0241
6.3608,107.9174
6.3608,107.9174
6.0108,107.8390
6.0108,107.8390
6.0108,107.8390
6.0108,107.8390
6.0108,107.8390
5.7882,107.8143
5.6543,107.7995
5.3854,107.7995
5.1169,107.8143
5.1169,107.8143
4.7631,107.8734
4.4180,107.9709
4.4180,107.9709
4.0857,108.1059
4.0856,108.1059
3.7702,108.2766
3.7702,108.2766
3.4755,108.4810
3.2050,108.7166
3.2050,108.7166
2.9621,108.9804
2.9621,108.9804
2.7497,109.2694
2.7496,109.2695
2.5703,109.5801
2.5703,109.5801
2.4262,109.9085
2.4262,109.9085
2.3192,110.2508
2.3192,110.2508
2.2504,110.6028
2.2208,110.9603
0.1255,110.9603
0.1255,84.9533
10.7208,84.9533
10.7307,85.3398
10.7307,85.3398
10.7804,85.7233
10.7804,85.7233
10.8692,86.0996
10.8692,86.0996
10.9962,86.4648
11.1601,86.8150
11.3592,87.1465
11.5912,87.4557
11.8539,87.7395
12.1443,87.9947
12.4594,88.2188
12.7959,88.4092
13.1502,88.5641
13.5186,88.6817
13.8971,88.7607
14.1373,88.7856
14.2817,88.8005
14.2817,88.8005
14.5716,88.8005
14.5716,88.8005
14.8322,88.7871
14.8611,88.7856
14.8611,88.7856
15.0206,88.7607
15.2432,88.7261
15.6171,88.6276
15.8653,88.5340
15.9789,88.4912
15.9789,88.4912
15.9789,88.4912
16.3248,88.3183
16.6510,88.1108
16.9542,87.8709
17.2311,87.6010
17.4788,87.3041
17.6946,86.9833
17.8763,86.6420
18.0220,86.2838
18.1301,85.9126
18.1994,85.5322
18.2292,85.1467
18.2243,84.9533
42.7208,84.9533
42.7307,85.3398
42.7307,85.3398
42.7804,85.7233
42.7804,85.7233
42.8692,86.0996
42.8692,86.0996
42.9962,86.4648
43.1601,86.8150
43.3592,87.1465
43.5912,87.4557
43.8539,87.7395
44.1443,87.9947
44.4594,88.2188
44.7959,88.4092
45.1502,88.5641
45.5186,88.6817
45.8971,88.7607
46.1373,88.7856
46.2817,88.8005
46.2817,88.8005
46.5716,88.8005
46.5716,88.8005
46.8322,88.7871
46.8611,88.7856
46.8611,88.7856
47.0206,88.7607
47.2432,88.7261
47.6171,88.6276
47.8653,88.5340
47.9789,88.4912
47.9789,88.4912
47.9789,88.4912
48.3248,88.3183
48.6510,88.1108
48.9542,87.8709
49.2311,87.6010
49.4788,87.3041
49.6946,86.9833
49.8763,86.6420
50.0220,86.2838
50.1301,85.9126
50.1994,85.5322
50.2292,85.1467
50.2193,84.7602
50.1696,84.3767
50.0808,84.0004
49.9538,83.6352
49.7899,83.2850
49.5908,82.9535
49.3588,82.6443
49.0961,82.3605
48.8057,82.1053
48.4906,81.8812
48.1541,81.6908
48.1540,81.6908
48.1540,81.6908
47.9955,81.6215
47.7998,81.5359
47.7997,81.5359
47.7997,81.5359
47.4314,81.4183
47.0529,81.3393
46.6683,81.2995
46.6683,81.2995
46.3784,81.2995
46.2927,81.3039
46.0889,81.3144
46.0889,81.3144
45.7068,81.3739
45.3329,81.4724
45.3329,81.4724
44.9711,81.6088
44.9711,81.6088
44.6253,81.7817
44.6252,81.7817
44.2990,81.9892
44.2990,81.9892
43.9958,82.2291
43.7189,82.4990
43.4712,82.7959
43.2554,83.1167
43.2554,83.1167
43.0737,83.4580
43.0737,83.4580
42.9280,83.8162
42.9280,83.8162
42.8199,84.1874
42.8199,84.1874
42.7506,84.5678
42.7506,84.5678
42.7506,84.5678
42.7208,84.9533
18.2243,84.9533
18.2193,84.7602
18.1696,84.3767
18.0808,84.0004
17.9538,83.6352
17.7899,83.2850
17.5908,82.9535
17.3588,82.6443
17.0961,82.3605
16.8057,82.1053
16.4906,81.8812
16.1541,81.6908
16.1540,81.6908
16.1540,81.6908
15.9955,81.6215
15.7998,81.5359
15.7997,81.5359
15.7997,81.5359
15.4314,81.4183
15.0529,81.3393
14.6683,81.2995
14.6683,81.2995
14.3784,81.2995
14.2927,81.3039
14.0889,81.3144
14.0888,81.3144
13.7068,81.3739
13.3329,81.4724
13.3329,81.4724
12.9711,81.6088
12.9711,81.6088
12.6253,81.7817
12.6252,81.7817
12.2990,81.9892
12.2990,81.9892
11.9958,82.2291
11.7189,82.4990
11.4712,82.7959
11.2554,83.1167
11.2554,83.1167
11.0737,83.4580
11.0737,83.4580
10.9280,83.8162
10.9280,83.8162
10.8199,84.1874
10.8199,84.1874
10.7506,84.5678
10.7506,84.5678
10.7506,84.5678
10.7208,84.9533
0.1255,84.9533
0.1255,65.8000
11.2194,65.8000
11.2398,66.0854
11.3006,66.3650
11.4006,66.6332
11.4006,66.6332
11.5378,66.8843
11.5378,66.8843
11.7093,67.1134
11.7093,67.1134
11.9116,67.3157
11.9116,67.3157
11.9116,67.3157
12.1407,67.4872
12.1407,67.4872
12.1407,67.4872
12.3918,67.6244
12.3918,67.6244
12.6600,67.7244
12.9396,67.7852
13.1536,67.8005
13.1536,67.8005
13.2964,67.8005
13.2964,67.8005
13.5104,67.7852
13.7900,67.7244
14.0582,67.6244
14.0881,67.6080
14.3093,67.4872
14.3093,67.4872
14.3093,67.4872
14.5384,67.3157
14.7407,67.1134
14.9122,66.8843
14.9122,66.8843
14.9122,66.8843
15.0494,66.6332
15.0494,66.6332
15.1494,66.3650
15.2102,66.0854
15.2306,65.8000
15.2102,65.5146
15.1969,65.4533
26.7208,65.4533
26.7307,65.8398
26.7307,65.8398
26.7804,66.2233
26.7804,66.2233
26.8692,66.5996
26.8692,66.5996
26.9962,66.9648
27.1601,67.3150
27.3592,67.6465
27.5912,67.9557
27.8539,68.2395
28.1443,68.4947
28.4594,68.7188
28.7959,68.9092
29.1502,69.0641
29.5186,69.1817
29.8971,69.2607
30.1373,69.2856
30.2817,69.3005
30.2817,69.3005
30.5716,69.3005
30.5716,69.3005
30.8322,69.2871
30.8611,69.2856
30.8611,69.2856
31.0206,69.2607
31.2432,69.2261
31.6171,69.1276
31.8653,69.0340
31.9789,68.9912
31.9789,68.9912
31.9789,68.9912
32.3248,68.8183
32.6510,68.6108
32.9542,68.3709
33.2311,68.1010
33.4788,67.8041
33.6946,67.4833
33.8763,67.1420
34.0220,66.7838
34.1301,66.4126
34.1994,66.0322
34.2174,65.8000
45.7194,65.8000
45.7398,66.0854
45.8006,66.3650
45.9006,66.6332
45.9006,66.6332
46.0378,66.8843
46.0378,66.8843
46.2093,67.1134
46.2093,67.1134
46.4116,67.3157
46.4116,67.3157
46.4116,67.3157
46.6407,67.4872
46.6407,67.4872
46.6407,67.4872
46.8918,67.6244
46.8918,67.6244
47.1600,67.7244
47.4396,67.7852
47.6536,67.8005
47.6536,67.8005
47.7964,67.8005
47.7964,67.8005
48.0104,67.7852
48.2900,67.7244
48.5582,67.6244
48.5881,67.6080
48.8093,67.4872
48.8093,67.4872
48.8093,67.4872
49.0384,67.3157
49.2407,67.1134
49.4122,66.8843
49.4122,66.8843
49.4122,66.8843
49.5494,66.6332
49.5494,66.6332
49.6494,66.3650
49.7102,66.0854
49.7306,65.8000
49.7102,65.5146
49.6494,65.2350
49.5494,64.9668
49.5494,64.9668
49.4122,64.7157
49.4122,64.7157
49.4122,64.7157
49.2407,64.4866
49.2407,64.4866
49.2407,64.4866
49.0384,64.2843
49.0384,64.2843
48.8393,64.1352
48.8093,64.1128
48.8093,64.1128
48.8093,64.1128
48.8093,64.1128
48.5582,63.9756
48.5582,63.9756
48.2900,63.8756
48.0104,63.8148
47.8768,63.8052
47.7964,63.7995
47.6536,63.7995
47.5780,63.8049
47.4396,63.8148
47.1600,63.8756
46.8918,63.9756
46.8918,63.9756
46.6407,64.1128
46.6407,64.1128
46.4116,64.2843
46.4116,64.2843
46.2093,64.4866
46.2093,64.4866
46.0378,64.7157
46.0378,64.7157
45.9006,64.9668
45.9006,64.9668
45.8006,65.2350
45.7398,65.5146
45.7194,65.8000
34.2174,65.8000
34.2292,65.6467
34.2193,65.2602
34.1696,64.8767
34.0808,64.5004
33.9538,64.1352
33.7899,63.7850
33.5908,63.4535
33.3588,63.1443
33.0961,62.8605
32.8057,62.6053
32.4906,62.3812
32.1541,62.1908
32.1540,62.1908
32.1540,62.1908
31.9955,62.1215
31.7998,62.0359
31.7997,62.0359
31.7997,62.0359
31.4314,61.9183
31.0529,61.8393
30.6683,61.7995
30.6683,61.7995
30.3784,61.7995
30.2927,61.8039
30.0889,61.8144
30.0888,61.8144
29.7068,61.8739
29.3329,61.9724
29.3329,61.9724
28.9711,62.1088
28.9711,62.1088
28.6253,62.2817
28.6252,62.2817
28.2990,62.4892
28.2990,62.4892
27.9958,62.7291
27.7189,62.9990
27.4712,63.2959
27.2554,63.6167
27.2554,63.6167
27.0737,63.9580
27.0737,63.9580
26.9280,64.3162
26.9280,64.3162
26.8199,64.6874
26.8026,64.7825
26.7506,65.0678
26.7506,65.0678
26.7506,65.0678
26.7208,65.4533
15.1969,65.4533
15.1494,65.2350
15.0494,64.9668
15.0494,64.9668
14.9122,64.7157
14.9122,64.7157
14.9122,64.7157
14.7407,64.4866
14.7407,64.4866
14.7407,64.4866
14.5384,64.2843
14.5384,64.2843
14.3393,64.1352
14.3093,64.1128
14.3093,64.1128
14.3093,64.1128
14.3093,64.1128
14.0582,63.9756
14.0582,63.9756
13.7900,63.8756
13.5104,63.8148
13.3768,63.8052
13.2964,63.7995
13.1536,63.7995
13.0780,63.8049
12.9396,63.8148
12.6600,63.8756
12.3918,63.9756
12.3918,63.9756
12.1407,64.1128
12.1407,64.1128
11.9116,64.2843
11.9116,64.2843
11.7093,64.4866
11.7093,64.4866
11.5378,64.7157
11.5378,64.7157
11.4006,64.9668
11.4006,64.9668
11.3006,65.2350
11.2398,65.5146
11.2194,65.8000
0.1255,65.8000
0.1255,45.0000
9.2195,45.0000
9.2396,45.3321
9.2396,45.3321
9.2995,45.6594
9.3985,45.9771
9.5351,46.2805
9.5351,46.2806
9.7072,46.5653
9.9125,46.8272
9.9125,46.8273
10.1477,47.0625
10.1478,47.0625
10.3565,47.2261
10.4097,47.2678
10.6944,47.4399
10.6944,47.4399
10.6944,47.4399
10.6945,47.4399
10.9979,47.5765
10.9979,47.5765
10.9979,47.5765
11.3156,47.6755
11.6429,47.7354
11.8919,47.7505
12.0581,47.7505
12.3071,47.7354
12.6344,47.6755
12.9521,47.5765
13.2556,47.4399
13.5403,47.2678
13.8023,47.0625
14.0375,46.8273
14.0445,46.8183
14.0943,46.7548
14.2428,46.5653
14.4149,46.2806
14.5515,45.9771
14.6505,45.6594
14.7104,45.3321
14.7305,45.0000
14.7284,44.9648
14.7175,44.7838
14.7104,44.6679
14.6505,44.3406
14.5515,44.0229
14.5515,44.0229
14.4149,43.7195
14.4149,43.7194
14.2540,43.4533
26.7208,43.4533
26.7307,43.8398
26.7307,43.8398
26.7804,44.2233
26.7804,44.2233
26.8692,44.5996
26.8692,44.5996
26.9962,44.9648
27.1601,45.3150
27.3592,45.6465
27.5912,45.9557
27.8539,46.2395
28.1443,46.4947
28.4594,46.7188
28.7959,46.9092
29.1502,47.0641
29.5186,47.1817
29.8971,47.2607
30.1373,47.2856
30.2817,47.3005
30.2817,47.3005
30.5716,47.3005
30.5716,47.3005
30.8322,47.2871
30.8611,47.2856
30.8611,47.2856
31.0206,47.2607
31.2432,47.2261
31.6171,47.1276
31.8653,47.0340
31.9789,46.9912
31.9789,46.9912
31.9789,46.9912
32.3248,46.8183
32.6510,46.6108
32.9542,46.3709
33.2311,46.1010
33.4788,45.8041
33.6946,45.4833
33.8763,45.1420
33.9341,45.0000
46.2195,45.0000
46.2396,45.3321
46.2396,45.3321
46.2995,45.6594
46.3985,45.9771
46.5351,46.2805
46.5351,46.2806
46.7072,46.5653
46.9125,46.8272
46.9125,46.8273
47.1477,47.0625
47.1478,47.0625
47.3565,47.2261
47.4097,47.2678
47.6944,47.4399
47.6944,47.4399
47.6944,47.4399
47.6945,47.4399
47.9979,47.5765
47.9979,47.5765
47.9979,47.5765
48.3156,47.6755
48.6429,47.7354
48.8919,47.7505
49.0581,47.7505
49.3071,47.7354
49.6344,47.6755
49.9521,47.5765
50.2556,47.4399
50.5403,47.2678
50.8023,47.0625
51.0375,46.8273
51.0445,46.8183
51.0943,46.7548
51.2428,46.5653
51.4149,46.2806
51.5515,45.9771
51.6505,45.6594
51.7104,45.3321
51.7305,45.0000
51.7284,44.9648
51.7175,44.7838
51.7104,44.6679
51.6505,44.3406
51.5515,44.0229
51.5515,44.0229
51.4149,43.7195
51.4149,43.7194
51.2428,43.4347
51.0375,43.1728
51.0375,43.1727
50.8023,42.9375
50.8022,42.9375
50.5403,42.7322
50.2556,42.5601
50.2555,42.5601
49.9521,42.4235
49.6344,42.3245
49.3071,42.2646
49.3071,42.2646
49.0581,42.2495
48.8919,42.2495
48.6429,42.2646
48.6429,42.2646
48.3156,42.3245
47.9979,42.4235
47.6945,42.5601
47.6944,42.5601
47.4097,42.7322
47.1478,42.9375
47.1477,42.9375
46.9125,43.1727
46.9125,43.1728
46.7072,43.4347
46.5351,43.7194
46.5351,43.7195
46.3985,44.0229
46.2995,44.3406
46.2396,44.6679
46.2396,44.6679
46.2195,45.0000
46.2195,45.0000
33.9341,45.0000
34.0220,44.7838
34.1301,44.4126
34.1994,44.0322
34.2292,43.6467
34.2193,43.2602
34.1696,42.8767
34.0808,42.5004
33.9538,42.1352
33.7899,41.7850
33.5908,41.4535
33.3588,41.1443
33.0961,40.8605
32.8057,40.6053
32.4906,40.3812
32.1541,40.1908
32.1540,40.1908
32.1540,40.1908
31.9955,40.1215
31.7998,40.0359
31.7997,40.0359
31.7997,40.0359
31.4314,39.9183
31.0529,39.8393
30.6683,39.7995
30.6683,39.7995
30.3784,39.7995
30.2927,39.8039
30.0889,39.8144
30.0888,39.8144
29.7068,39.8739
29.3329,39.9724
29.3329,39.9724
28.9711,40.1088
28.9711,40.1088
28.6253,40.2817
28.6252,40.2817
28.2990,40.4892
28.2990,40.4892
27.9958,40.7291
27.7189,40.9990
27.4712,41.2959
27.2554,41.6167
27.2554,41.6167
27.0737,41.9580
27.0737,41.9580
26.9280,42.3162
26.9280,42.3162
26.8199,42.6874
26.8199,42.6874
26.7506,43.0678
26.7506,43.0678
26.7506,43.0678
26.7208,43.4533
14.2540,43.4533
14.2428,43.4347
14.0375,43.1728
14.0375,43.1727
13.8023,42.9375
13.8022,42.9375
13.5403,42.7322
13.2556,42.5601
13.2555,42.5601
12.9521,42.4235
12.6344,42.3245
12.3071,42.2646
12.3071,42.2646
12.0581,42.2495
11.8919,42.2495
11.6429,42.2646
11.6429,42.2646
11.3156,42.3245
10.9979,42.4235
10.6945,42.5601
10.6944,42.5601
10.4097,42.7322
10.1478,42.9375
10.1477,42.9375
9.9125,43.1727
9.9125,43.1728
9.7072,43.4347
9.5351,43.7194
9.5351,43.7195
9.3985,44.0229
9.2995,44.3406
9.2396,44.6679
9.2396,44.6679
9.2195,45.0000
9.2195,45.0000
0.1255,45.0000
0.1255,24.9533
10.7208,24.9533
10.7307,25.3398
10.7307,25.3398
10.7804,25.7233
10.7804,25.7233
10.8692,26.0996
10.8692,26.0996
10.9962,26.4648
11.1601,26.8150
11.3592,27.1465
11.5912,27.4557
11.8539,27.7395
12.1443,27.9947
12.4594,28.2188
12.7959,28.4092
13.1502,28.5641
13.5186,28.6817
13.8971,28.7607
14.1373,28.7856
14.2817,28.8005
14.2817,28.8005
14.5716,28.8005
14.5716,28.8005
14.8322,28.7871
14.8611,28.7856
14.8611,28.7856
15.0206,28.7607
15.2432,28.7261
15.6171,28.6276
15.8653,28.5340
15.9789,28.4912
15.9789,28.4912
15.9789,28.4912
16.3248,28.3183
16.6510,28.1108
16.9542,27.8709
17.2311,27.6010
17.4788,27.3041
17.6946,26.9833
17.8763,26.6420
18.0220,26.2838
18.1301,25.9126
18.1994,25.5322
18.2292,25.1467
18.2243,24.9533
42.7208,24.9533
42.7307,25.3398
42.7307,25.3398
42.7804,25.7233
42.7804,25.7233
42.8692,26.0996
42.8692,26.0996
42.9962,26.4648
43.1601,26.8150
43.3592,27.1465
43.5912,27.4557
43.8539,27.7395
44.1443,27.9947
44.4594,28.2188
44.7959,28.4092
45.1502,28.5641
45.5186,28.6817
45.8971,28.7607
46.1373,28.7856
46.2817,28.8005
46.2817,28.8005
46.5716,28.8005
46.5716,28.8005
46.8322,28.7871
46.8611,28.7856
46.8611,28.7856
47.0206,28.7607
47.2432,28.7261
47.6171,28.6276
47.8653,28.5340
47.9789,28.4912
47.9789,28.4912
47.9789,28.4912
48.3248,28.3183
48.6510,28.1108
48.9542,27.8709
49.2311,27.6010
49.4788,27.3041
49.6946,26.9833
49.8763,26.6420
50.0220,26.2838
50.1301,25.9126
50.1994,25.5322
50.2292,25.1467
50.2193,24.7602
50.1696,24.3767
50.0808,24.0004
49.9538,23.6352
49.7899,23.2850
49.5908,22.9535
49.3588,22.6443
49.0961,22.3605
48.8057,22.1053
48.4906,21.8812
48.1541,21.6908
48.1540,21.6908
48.1540,21.6908
47.9955,21.6215
47.7998,21.5359
47.7997,21.5359
47.7997,21.5359
47.4314,21.4183
47.0529,21.3393
46.6683,21.2995
46.6683,21.2995
46.3784,21.2995
46.2927,21.3039
46.0889,21.3144
46.0889,21.3144
45.7068,21.3739
45.3329,21.4724
45.3329,21.4724
44.9711,21.6088
44.9711,21.6088
44.6253,21.7817
44.6252,21.7817
44.2990,21.9892
44.2990,21.9892
43.9958,22.2291
43.7189,22.4990
43.4712,22.7959
43.2554,23.1167
43.2554,23.1167
43.0737,23.4580
43.0737,23.4580
42.9280,23.8162
42.9280,23.8162
42.8199,24.1874
42.8199,24.1874
42.7506,24.5678
42.7506,24.5678
42.7506,24.5678
42.7208,24.9533
18.2243,24.9533
18.2193,24.7602
18.1696,24.3767
18.0808,24.0004
17.9538,23.6352
17.7899,23.2850
17.5908,22.9535
17.3588,22.6443
17.0961,22.3605
16.8057,22.1053
16.4906,21.8812
16.1541,21.6908
16.1540,21.6908
16.1540,21.6908
15.9955,21.6215
15.7998,21.5359
15.7997,21.5359
15.7997,21.5359
15.4314,21.4183
15.0529,21.3393
14.6683,21.2995
14.6683,21.2995
14.3784,21.2995
14.2927,21.3039
14.0889,21.3144
14.0888,21.3144
13.7068,21.3739
13.3329,21.4724
13.3329,21.4724
12.9711,21.6088
12.9711,21.6088
12.6253,21.7817
12.6252,21.7817
12.2990,21.9892
12.2990,21.9892
11.9958,22.2291
11.7189,22.4990
11.4712,22.7959
11.2554,23.1167
11.2554,23.1167
11.0737,23.4580
11.0737,23.4580
10.9280,23.8162
10.9280,23.8162
10.8199,24.1874
10.8199,24.1874
10.7506,24.5678
10.7506,24.5678
10.7506,24.5678
10.7208,24.9533
0.1255,24.9533
0.1255,16.5486
28.3965,16.5486
28.4030,16.6092
28.4030,16.6092
28.4541,16.7462
28.4541,16.7462
28.5417,16.8633
28.6588,16.9509
28.6588,16.9509
28.6588,16.9509
28.7179,16.9729
28.7958,17.0020
28.7958,17.0020
28.8563,17.0085
28.8564,17.0085
28.8564,17.0085
28.8564,17.0085
29.4536,17.0085
29.4536,17.0085
29.4536,17.0085
29.4536,17.0085
29.5142,17.0020
29.5142,17.0020
29.5142,17.0020
29.6512,16.9509
29.7683,16.8633
29.8041,16.8153
29.8610,16.7728
29.9318,16.7677
29.9941,16.8018
30.0059,16.8153
30.0417,16.8633
30.1588,16.9509
30.1588,16.9509
30.1588,16.9509
30.2179,16.9729
30.2958,17.0020
30.2958,17.0020
30.3563,17.0085
30.3564,17.0085
30.3564,17.0085
30.3564,17.0085
30.9536,17.0085
30.9536,17.0085
30.9536,17.0085
30.9536,17.0085
31.0142,17.0020
31.0142,17.0020
31.0142,17.0020
31.1512,16.9509
31.2683,16.8633
31.3143,16.8018
31.3559,16.7462
31.3559,16.7462
31.3559,16.7462
31.4070,16.6092
31.4135,16.5486
31.4135,15.5514
31.4135,15.5513
31.4070,15.4908
31.4070,15.4908
31.3559,15.3538
31.3559,15.3538
31.2683,15.2367
31.1512,15.1491
31.1512,15.1491
31.0142,15.0980
31.0142,15.0980
30.9536,15.0915
30.9536,15.0915
30.3564,15.0915
30.3563,15.0915
30.2958,15.0980
30.2958,15.0980
30.1588,15.1491
30.1588,15.1491
30.0417,15.2367
30.0059,15.2847
29.9490,15.3272
29.8782,15.3323
29.8159,15.2982
29.8041,15.2847
29.7683,15.2367
29.7683,15.2367
29.6512,15.1491
29.6512,15.1491
29.5142,15.0980
29.5142,15.0980
29.4536,15.0915
29.4536,15.0915
28.8564,15.0915
28.8563,15.0915
28.7958,15.0980
28.7958,15.0980
28.6588,15.1491
28.6588,15.1491
28.5417,15.2367
28.4541,15.3538
28.4541,15.3538
28.4030,15.4908
28.4030,15.4908
28.3965,15.5513
28.3965,16.5486
0.1255,16.5486
0.1255,3.5178
4.8208,3.5178
4.8504,3.7870
4.9189,4.0491
5.0249,4.2984
5.0249,4.2984
5.1660,4.5296
5.3393,4.7378
5.5410,4.9186
5.7669,5.0680
6.0122,5.1830
6.2716,5.2611
6.2716,5.2611
6.2716,5.2611
6.5396,5.3005
6.5396,5.3005
8.5426,5.3005
8.5774,5.2980
8.7452,5.2857
8.7452,5.2857
8.7452,5.2857
8.8557,5.2611
9.0096,5.2268
9.2626,5.1300
9.4988,4.9974
9.7132,4.8319
9.9012,4.6369
10.0588,4.4166
10.1827,4.1757
10.2701,3.9193
10.3193,3.6529
10.3243,3.5178
50.6208,3.5178
50.6504,3.7870
50.7189,4.0491
50.8249,4.2984
50.8249,4.2984
50.9660,4.5296
51.1393,4.7378
51.3410,4.9186
51.5669,5.0680
51.8122,5.1830
52.0716,5.2611
52.0716,5.2611
52.0716,5.2611
52.3396,5.3005
52.3396,5.3005
54.3426,5.3005
54.3774,5.2980
54.5452,5.2857
54.5452,5.2857
54.5452,5.2857
54.6557,5.2611
54.8096,5.2268
55.0626,5.1300
55.2988,4.9974
55.5132,4.8319
55.7012,4.6369
55.8588,4.4166
55.9827,4.1757
56.0701,3.9193
56.1193,3.6529
56.1292,3.3822
56.1143,3.2471
56.0996,3.1130
56.0311,2.8509
55.9251,2.6016
55.9251,2.6016
55.7840,2.3704
55.6107,2.1622
55.6107,2.1622
55.6107,2.1622
55.4090,1.9814
55.4090,1.9814
55.1831,1.8320
54.9378,1.7170
54.7804,1.6696
54.6784,1.6389
54.4104,1.5995
54.4104,1.5995
52.4074,1.5995
52.4074,1.5995
52.2048,1.6143
52.2048,1.6143
51.9405,1.6732
51.9404,1.6732
51.6874,1.7700
51.4512,1.9026
51.4512,1.9026
51.2368,2.0681
51.0488,2.2631
51.0488,2.2631
50.8912,2.4834
50.8912,2.4834
50.7673,2.7243
50.7673,2.7243
50.6799,2.9807
50.6799,2.9807
50.6307,3.2471
50.6307,3.2471
50.6208,3.5178
10.3243,3.5178
10.3292,3.3822
10.3143,3.2471
10.2996,3.1130
10.2311,2.8509
10.1251,2.6016
10.1251,2.6016
9.9840,2.3704
9.8107,2.1622
9.8107,2.1622
9.8107,2.1622
9.6090,1.9814
9.6090,1.9814
9.3831,1.8320
9.1378,1.7170
8.9804,1.6696
8.8784,1.6389
8.6104,1.5995
8.6104,1.5995
6.6074,1.5995
6.6074,1.5995
6.4048,1.6143
6.4048,1.6143
6.1405,1.6732
6.1404,1.6732
5.8874,1.7700
5.6512,1.9026
5.6512,1.9026
5.4368,2.0681
5.2488,2.2631
5.2488,2.2631
5.0912,2.4834
5.0912,2.4834
4.9673,2.7243
4.9673,2.7243
4.8799,2.9807
4.8799,2.9807
4.8307,3.2471
4.8307,3.2471
4.8208,3.5178
0.1255,3.5178
0.1255,0.6265
0.1455,0.5584
0.1992,0.5119
0.2515,0.5005
60.6985,0.5005
Z" /> 
</g>
</g>
</g>
<g style="fill:#000000; fill-opacity:1.0000; 
stroke:#000000; stroke-width:0.0000; stroke-opacity:1; 
stroke-linecap:round; stroke-linejoin:round;">
</g>
<g style="fill:#000000; fill-opacity:1.0000; 
stroke:#000000; stroke-width:3.2000; stroke-opacity:1; 
stroke-linecap:round; stroke-linejoin:round;">
</g>
<g style="fill:#000000; fill-opacity:0.0; 
stroke:#000000; stroke-width:3.2000; stroke-opacity:1; 
stroke-linecap:round; stroke-linejoin:round;">
<path d="M52.4750 3.4500
L54.2750 3.4500
" />
<path d="M6.6750 3.4500
L8.4750 3.4500
" />
<path d="M52.4750 125.9500
L54.2750 125.9500
" />
<path d="M6.6750 125.9500
L8.4750 125.9500
" />
</g>
<g style="fill:#000000; fill-opacity:1.0000; 
stroke:#000000; stroke-width:0.0000; stroke-opacity:1; 
stroke-linecap:round; stroke-linejoin:round;">
<circle cx="14.4750" cy="25.0500" r="3.5000" /> 
</g>
<g style="fill:#000000; fill-opacity:1.0000; 
stroke:#000000; stroke-width:0.0212; stroke-opacity:1; 
stroke-linecap:round; stroke-linejoin:round;">
</g>
<g style="fill:#000000; fill-opacity:1.0000; 
stroke:#000000; stroke-width:0.0000; stroke-opacity:1; 
stroke-linecap:round; stroke-linejoin:round;">
<circle cx="46.4750" cy="25.0500" r="3.5000" /> 
</g>
<g style="fill:#000000; fill-opacity:1.0000; 
stroke:#000000; stroke-width:0.0212; stroke-opacity:1; 
stroke-linecap:round; stroke-linejoin:round;">
</g>
<g style="fill:#000000; fill-opacity:1.0000; 
stroke:#000000; stroke-width:0.0000; stroke-opacity:1; 
stroke-linecap:round; stroke-linejoin:round;">
<circle cx="30.4750" cy="43.5500" r="3.5000" /> 
</g>
<g style="fill:#000000; fill-opacity:1.0000; 
stroke:#000000; stroke-width:0.0212; stroke-opacity:1; 
stroke-linecap:round; stroke-linejoin:round;">
</g>
<g style="fill:#000000; fill-opacity:1.0000; 
stroke:#000000; stroke-width:0.0000; stroke-opacity:1; 
stroke-linecap:round; stroke-linejoin:round;">
<circle cx="30.4750" cy="65.5500" r="3.5000" /> 
</g>
<g style="fill:#000000; fill-opacity:1.0000; 
stroke:#000000; stroke-width:0.0212; stroke-opacity:1; 
stroke-linecap:round; stroke-linejoin:round;">
</g>
<g style="fill:#000000; fill-opacity:1.0000; 
stroke:#000000; stroke-width:0.0000; stroke-opacity:1; 
stroke-linecap:round; stroke-linejoin:round;">
<circle cx="14.4750" cy="85.0500" r="3.5000" /> 
</g>
<g style="fill:#000000; fill-opacity:1.0000; 
stroke:#000000; stroke-width:0.0212; stroke-opacity:1; 
stroke-linecap:round; stroke-linejoin:round;">
</g>
<g style="fill:#000000; fill-opacity:1.0000; 
stroke:#000000; stroke-width:0.0000; stroke-opacity:1; 
stroke-linecap:round; stroke-linejoin:round;">
<circle cx="46.4750" cy="85.0500" r="3.5000" /> 
</g>
<g style="fill:#000000; fill-opacity:1.0000; 
stroke:#000000; stroke-width:0.0212; stroke-opacity:1; 
stroke-linecap:round; stroke-linejoin:round;">
</g>
<g style="fill:#000000; fill-opacity:1.0000; 
stroke:#000000; stroke-width:0.0000; stroke-opacity:1; 
stroke-linecap:round; stroke-linejoin:round;">
<circle cx="5.4750" cy="111.0500" r="3.0000" /> 
</g>
<g style="fill:#000000; fill-opacity:1.0000; 
stroke:#000000; stroke-width:0.0212; stroke-opacity:1; 
stroke-linecap:round; stroke-linejoin:round;">
</g>
<g style="fill:#000000; fill-opacity:1.0000; 
stroke:#000000; stroke-width:0.0000; stroke-opacity:1; 
stroke-linecap:round; stroke-linejoin:round;">
<circle cx="15.4750" cy="111.0500" r="3.0000" /> 
</g>
<g style="fill:#000000; fill-opacity:1.0000; 
stroke:#000000; stroke-width:0.0212; stroke-opacity:1; 
stroke-linecap:round; stroke-linejoin:round;">
</g>
<g style="fill:#000000; fill-opacity:1.0000; 
stroke:#000000; stroke-width:0.0000; stroke-opacity:1; 
stroke-linecap:round; stroke-linejoin:round;">
<circle cx="25.4750" cy="111.0500" r="3.0000" /> 
</g>
<g style="fill:#000000; fill-opacity:1.0000; 
stroke:#000000; stroke-width:0.0212; stroke-opacity:1; 
stroke-linecap:round; stroke-linejoin:round;">
</g>
<g style="fill:#000000; fill-opacity:1.0000; 
stroke:#000000; stroke-width:0.0000; stroke-opacity:1; 
stroke-linecap:round; stroke-linejoin:round;">
<circle cx="35.4750" cy="111.0500" r="3.0000" /> 
</g>
<g style="fill:#000000; fill-opacity:1.0000; 
stroke:#000000; stroke-width:0.0212; stroke-opacity:1; 
stroke-linecap:round; stroke-linejoin:round;">
</g>
<g style="fill:#000000; fill-opacity:1.0000; 
stroke:#000000; stroke-width:0.0000; stroke-opacity:1; 
stroke-linecap:round; stroke-linejoin:round;">
<circle cx="45.4750" cy="111.0500" r="3.0000" /> 
</g>
<g style="fill:#000000; fill-opacity:1.0000; 
stroke:#000000; stroke-width:0.0212; stroke-opacity:1; 
stroke-linecap:round; stroke-linejoin:round;">
</g>
<g style="fill:#000000; fill-opacity:1.0000; 
stroke:#000000; stroke-width:0.0000; stroke-opacity:1; 
stroke-linecap:round; stroke-linejoin:round;">
<circle cx="55.4750" cy="111.0500" r="3.0000" /> 
</g>
<g style="fill:#000000; fill-opacity:1.0000; 
stroke:#000000; stroke-width:0.0212; stroke-opacity:1; 
stroke-linecap:round; stroke-linejoin:round;">
</g>
<g style="fill:#000000; fill-opacity:1.0000; 
stroke:#000000; stroke-width:0.0000; stroke-opacity:1; 
stroke-linecap:round; stroke-linejoin:round;">
<circle cx="11.9750" cy="45.0000" r="2.5000" /> 
</g>
<g style="fill:#000000; fill-opacity:1.0000; 
stroke:#000000; stroke-width:0.0212; stroke-opacity:1; 
stroke-linecap:round; stroke-linejoin:round;">
</g>
<g style="fill:#000000; fill-opacity:1.0000; 
stroke:#000000; stroke-width:0.0000; stroke-opacity:1; 
stroke-linecap:round; stroke-linejoin:round;">
<circle cx="48.9750" cy="45.0000" r="2.5000" /> 
</g>
<g style="fill:#000000; fill-opacity:1.0000; 
stroke:#000000; stroke-width:0.0212; stroke-opacity:1; 
stroke-linecap:round; stroke-linejoin:round;">
</g>
<g style="fill:#000000; fill-opacity:1.0000; 
stroke:#000000; stroke-width:0.0000; stroke-opacity:1; 
stroke-linecap:round; stroke-linejoin:round;">
<circle cx="13.2250" cy="65.8000" r="1.7500" /> 
</g>
<g style="fill:#000000; fill-opacity:1.0000; 
stroke:#000000; stroke-width:0.0212; stroke-opacity:1; 
stroke-linecap:round; stroke-linejoin:round;">
</g>
<g style="fill:#000000; fill-opacity:1.0000; 
stroke:#000000; stroke-width:0.0000; stroke-opacity:1; 
stroke-linecap:round; stroke-linejoin:round;">
<circle cx="47.7250" cy="65.8000" r="1.7500" /> 
</g>
<g style="fill:#000000; fill-opacity:1.0000; 
stroke:#000000; stroke-width:0.0212; stroke-opacity:1; 
stroke-linecap:round; stroke-linejoin:round;">
</g>
<g style="fill:#FFFFFF; fill-opacity:1.0000; 
stroke:#FFFFFF; stroke-width:0.0212; stroke-opacity:1; 
stroke-linecap:round; stroke-linejoin:round;">
</g>
<g style="fill:#2F2D31; fill-opacity:1.0000; 
stroke:#2F2D31; stroke-width:0.0212; stroke-opacity:1; 
stroke-linecap:round; stroke-linejoin:round;">
</g>
<g style="fill:#2F2D31; fill-opacity:1.0000; 
stroke:#2F2D31; stroke-width:0.1000; stroke-opacity:1; 
stroke-linecap:round; stroke-linejoin:round;">
</g>
<g style="fill:#2F2D31; fill-opacity:0.0; 
stroke:#2F2D31; stroke-width:0.1000; stroke-opacity:1; 
stroke-linecap:round; stroke-linejoin:round;">
<path d="M0.0750 0.4500
L0.0750 128.9500
" />
<path d="M0.0750 128.9500
L60.8750 128.9500
" />
<path d="M0.0750 0.4500
L60.8750 0.4500
" />
<path d="M60.8750 0.4500
L60.8750 128.9500
" />
<g >
</g>
<g >
</g>
<g >
</g>
<g >
</g>
<g >
</g>
<g >
</g>
<g >
</g>
<g >
</g>
<g >
</g>
<g >
</g>
<g >
</g>
<g >
</g>
<g >
</g>
<g >
</g>
<g >
</g>
<g >
</g>
<g >
</g>
<g >
</g>
<g >
</g>
<g >
</g>
<g >
</g>
<g >
</g>
<g >
</g>
<g >
</g>
<g >
</g>
</g> 
</svg>
