<?xml version="1.0" standalone="no"?>
 <!DOCTYPE svg PUBLIC "-//W3C//DTD SVG 1.1//EN" 
 "http://www.w3.org/Graphics/SVG/1.1/DTD/svg11.dtd"> 
<svg
  xmlns:svg="http://www.w3.org/2000/svg"
  xmlns="http://www.w3.org/2000/svg"
  xmlns:xlink="http://www.w3.org/1999/xlink"
  version="1.1"
  width="261.9248mm" height="103.1748mm" viewBox="0.0000 0.0000 261.9248 103.1748">
<title>SVG Image created as working-brd.svg date 2023/09/23 05:04:44 </title>
  <desc>Image generated by PCBNEW </desc>
<g style="fill:#000000; fill-opacity:1.0000;stroke:#000000; stroke-opacity:1.0000;
stroke-linecap:round; stroke-linejoin:round;"
 transform="translate(0 0) scale(1 1)">
</g>
<g style="fill:#000000; fill-opacity:0.0; 
stroke:#000000; stroke-width:0.0000; stroke-opacity:1; 
stroke-linecap:round; stroke-linejoin:round;">
</g>
<g style="fill:#000000; fill-opacity:1.0000; 
stroke:#000000; stroke-width:0.0212; stroke-opacity:1; 
stroke-linecap:round; stroke-linejoin:round;">
<rect x="-5.000000" y="-5.000000" width="271.937500" height="113.187500" rx="0.000000" />
</g>
<g style="fill:#FFFFFF; fill-opacity:1.0000; 
stroke:#FFFFFF; stroke-width:0.0212; stroke-opacity:1; 
stroke-linecap:round; stroke-linejoin:round;">
</g>
<g style="fill:#B2803A; fill-opacity:1.0000; 
stroke:#B2803A; stroke-width:0.0212; stroke-opacity:1; 
stroke-linecap:round; stroke-linejoin:round;">
</g>
<g style="fill:#B2803A; fill-opacity:1.0000; 
stroke:#B2803A; stroke-width:0.0100; stroke-opacity:1; 
stroke-linecap:round; stroke-linejoin:round;">
<path style="fill:#B2803A; fill-opacity:1.0000; 
stroke:#B2803A; stroke-width:0.0100; stroke-opacity:1; 
stroke-linecap:round; stroke-linejoin:round;fill-rule:evenodd;"
d="M 18.8674,85.8847
18.4626,85.8847
18.4626,85.4799
18.8674,85.4799
Z" /> 
<path style="fill:#B2803A; fill-opacity:1.0000; 
stroke:#B2803A; stroke-width:0.0100; stroke-opacity:1; 
stroke-linecap:round; stroke-linejoin:round;fill-rule:evenodd;"
d="M 18.4626,85.0989
18.0578,85.0989
18.0578,84.6941
18.4626,84.6941
Z" /> 
<path style="fill:#B2803A; fill-opacity:1.0000; 
stroke:#B2803A; stroke-width:0.0100; stroke-opacity:1; 
stroke-linecap:round; stroke-linejoin:round;fill-rule:evenodd;"
d="M 18.0578,84.2893
17.6768,84.2893
17.6768,83.9083
18.0578,83.9083
Z" /> 
<path style="fill:#B2803A; fill-opacity:1.0000; 
stroke:#B2803A; stroke-width:0.0100; stroke-opacity:1; 
stroke-linecap:round; stroke-linejoin:round;fill-rule:evenodd;"
d="M 17.6768,85.0989
17.2720,85.0989
17.2720,84.6941
17.6768,84.6941
Z" /> 
<path style="fill:#B2803A; fill-opacity:1.0000; 
stroke:#B2803A; stroke-width:0.0100; stroke-opacity:1; 
stroke-linecap:round; stroke-linejoin:round;fill-rule:evenodd;"
d="M 17.6768,83.5035
17.2720,83.5035
17.2720,83.0987
17.6768,83.0987
Z" /> 
<path style="fill:#B2803A; fill-opacity:1.0000; 
stroke:#B2803A; stroke-width:0.0100; stroke-opacity:1; 
stroke-linecap:round; stroke-linejoin:round;fill-rule:evenodd;"
d="M 17.2720,84.2893
16.8672,84.2893
16.8672,83.9083
17.2720,83.9083
Z" /> 
<path style="fill:#B2803A; fill-opacity:1.0000; 
stroke:#B2803A; stroke-width:0.0100; stroke-opacity:1; 
stroke-linecap:round; stroke-linejoin:round;fill-rule:evenodd;"
d="M 16.8672,85.0989
16.4862,85.0989
16.4862,84.6941
16.8672,84.6941
Z" /> 
<path style="fill:#B2803A; fill-opacity:1.0000; 
stroke:#B2803A; stroke-width:0.0100; stroke-opacity:1; 
stroke-linecap:round; stroke-linejoin:round;fill-rule:evenodd;"
d="M 16.4862,85.8847
16.0814,85.8847
16.0814,85.4799
16.4862,85.4799
Z" /> 
<path style="fill:#B2803A; fill-opacity:1.0000; 
stroke:#B2803A; stroke-width:0.0100; stroke-opacity:1; 
stroke-linecap:round; stroke-linejoin:round;fill-rule:evenodd;"
d="M 20.4345,84.5870
20.4342,84.6428
20.4316,84.7611
20.4261,84.8685
20.4173,84.9681
20.4046,85.0634
20.3878,85.1575
20.3664,85.2538
20.3401,85.3556
20.3279,85.3987
20.2592,85.6080
20.1767,85.8095
20.0806,86.0031
19.9712,86.1882
19.8486,86.3646
19.7130,86.5320
19.5648,86.6901
19.4042,86.8384
19.2312,86.9768
19.0803,87.0818
18.8975,87.1912
18.7070,87.2872
18.5096,87.3694
18.3063,87.4375
18.0978,87.4912
17.8850,87.5302
17.6689,87.5541
17.6681,87.5542
17.6481,87.5551
17.6156,87.5560
17.5737,87.5568
17.5256,87.5575
17.4744,87.5580
17.3839,87.5574
17.2279,87.5499
17.0737,87.5336
16.9166,87.5079
16.7521,87.4723
16.6695,87.4516
16.5781,87.4257
16.4910,87.3972
16.4022,87.3642
16.3060,87.3246
16.2446,87.2982
16.1898,87.2740
16.1428,87.2520
16.0997,87.2305
16.0571,87.2077
16.0112,87.1817
15.9583,87.1508
15.7760,87.0342
15.6010,86.9044
15.4374,86.7635
15.2852,86.6115
15.1440,86.4482
15.0139,86.2734
14.8947,86.0872
14.8656,86.0375
14.8394,85.9913
14.8164,85.9485
14.7949,85.9056
14.7730,85.8589
14.7490,85.8048
14.7209,85.7395
14.6567,85.5756
14.5921,85.3715
14.5430,85.1638
14.5093,84.9526
14.4911,84.7378
14.4884,84.5195
14.4890,84.4941
14.4891,84.4919
15.0226,84.4919
15.0234,84.6849
15.0397,84.8785
15.0716,85.0718
15.1190,85.2646
15.1818,85.4561
15.1953,85.4900
15.2183,85.5425
15.2462,85.6021
15.2772,85.6654
15.3095,85.7285
15.3412,85.7879
15.3705,85.8401
15.3956,85.8813
15.5039,86.0369
15.6260,86.1888
15.7563,86.3276
15.8956,86.4540
16.0445,86.5687
16.2040,86.6724
16.3746,86.7659
16.4715,86.8121
16.6431,86.8819
16.8175,86.9373
16.9971,86.9791
17.1844,87.0080
17.2509,87.0150
17.4350,87.0246
17.6182,87.0197
17.8019,87.0001
17.9877,86.9656
18.1769,86.9162
18.2419,86.8962
18.3062,86.8746
18.3664,86.8519
18.4269,86.8264
18.4921,86.7962
18.5665,86.7595
18.6123,86.7358
18.7729,86.6421
18.9273,86.5353
19.0730,86.4173
19.2073,86.2903
19.2296,86.2670
19.3612,86.1174
19.4790,85.9598
19.5830,85.7947
19.6729,85.6223
19.7485,85.4432
19.8098,85.2577
19.8564,85.0660
19.8883,84.8687
19.8920,84.8331
19.8967,84.7665
19.8999,84.6914
19.9016,84.6117
19.9017,84.5316
19.9002,84.4551
19.8971,84.3862
19.8923,84.3290
19.8839,84.2605
19.8600,84.1121
19.8286,83.9711
19.7883,83.8332
19.7381,83.6939
19.6767,83.5491
19.6419,83.4762
19.5585,83.3256
19.4616,83.1784
19.3530,83.0365
19.2342,82.9018
19.1068,82.7763
18.9726,82.6618
18.8332,82.5602
18.7325,82.4960
18.5616,82.4005
18.3881,82.3204
18.2112,82.2556
18.0302,82.2057
17.8443,82.1705
17.6527,82.1499
17.4546,82.1435
17.3917,82.1444
17.2043,82.1557
17.0238,82.1801
16.8484,82.2181
16.6758,82.2701
16.5042,82.3365
16.3600,82.4040
16.1906,82.4989
16.0297,82.6064
15.8780,82.7260
15.7365,82.8569
15.6057,82.9984
15.4865,83.1497
15.3797,83.3101
15.2860,83.4790
15.2483,83.5564
15.1948,83.6790
15.1499,83.8006
15.1115,83.9268
15.0779,84.0631
15.0681,84.1091
15.0375,84.2997
15.0226,84.4919
14.4891,84.4919
14.4957,84.3540
14.5079,84.2220
14.5263,84.0927
14.5516,83.9608
14.5847,83.8208
14.6335,83.6528
14.7045,83.4594
14.7899,83.2704
14.8891,83.0868
15.0013,82.9096
15.1259,82.7399
15.2622,82.5788
15.4096,82.4273
15.5672,82.2866
15.7194,82.1686
15.8975,82.0494
16.0844,81.9430
16.2792,81.8500
16.4813,81.7707
16.6899,81.7054
16.7351,81.6933
16.8342,81.6691
16.9291,81.6498
17.0233,81.6349
17.1201,81.6239
17.2227,81.6166
17.3344,81.6124
17.4585,81.6110
17.4702,81.6110
17.5871,81.6122
17.6919,81.6158
17.7878,81.6222
17.8781,81.6317
17.9662,81.6445
18.0551,81.6612
18.1484,81.6820
18.1802,81.6899
18.2626,81.7125
18.3512,81.7396
18.4417,81.7695
18.5298,81.8010
18.6109,81.8323
18.6809,81.8622
18.6869,81.8650
18.7949,81.9175
18.9057,81.9771
19.0158,82.0414
19.1214,82.1084
19.2189,82.1757
19.3047,82.2412
19.4116,82.3314
19.5738,82.4838
19.7226,82.6440
19.8576,82.8116
19.9788,82.9864
20.0859,83.1681
20.1788,83.3564
20.2572,83.5511
20.2729,83.5954
20.3155,83.7237
20.3506,83.8441
20.3787,83.9598
20.4004,84.0744
20.4163,84.1910
20.4268,84.3131
20.4327,84.4440
20.4338,84.5316
Z" /> 
<g >
</g>
<g style="fill:#B2803A; fill-opacity:1.0000; 
stroke:#B2803A; stroke-width:0.0000; stroke-opacity:1; 
stroke-linecap:round; stroke-linejoin:round;">
<circle cx="133.5087" cy="95.8850" r="0.7620" /> 
</g>
<g style="fill:#B2803A; fill-opacity:1.0000; 
stroke:#B2803A; stroke-width:0.0212; stroke-opacity:1; 
stroke-linecap:round; stroke-linejoin:round;">
</g>
<g >
</g>
<g >
</g>
<g >
</g>
<g >
</g>
<g >
</g>
<g style="fill:#B2803A; fill-opacity:1.0000; 
stroke:#B2803A; stroke-width:0.0212; stroke-opacity:1; 
stroke-linecap:round; stroke-linejoin:round;">
<g >
</g>
<g style="fill:#B2803A; fill-opacity:1.0000; 
stroke:#B2803A; stroke-width:0.0000; stroke-opacity:1; 
stroke-linecap:round; stroke-linejoin:round;">
<path style="fill:#B2803A; fill-opacity:1.0000; 
stroke:#B2803A; stroke-width:0.0000; stroke-opacity:1; 
stroke-linecap:round; stroke-linejoin:round;fill-rule:evenodd;"
d="M 254.1593,6.6616
254.3087,6.6689
254.4977,6.6782
254.5038,6.6788
254.8374,6.7283
254.8434,6.7295
255.1697,6.8112
255.1706,6.8114
255.1765,6.8132
255.4940,6.9269
255.4997,6.9292
255.8046,7.0734
255.8100,7.0763
256.0993,7.2497
256.0993,7.2497
256.1044,7.2531
256.3753,7.4540
256.3801,7.4579
256.6299,7.6844
256.6343,7.6888
256.8608,7.9387
256.8647,7.9434
257.0656,8.2143
257.0690,8.2195
257.2424,8.5087
257.2453,8.5142
257.3895,8.8190
257.3919,8.8247
257.5055,9.1422
257.5073,9.1482
257.5892,9.4753
257.5904,9.4814
257.6399,9.8149
257.6405,9.8211
257.6572,10.1605
257.6572,10.1636
257.6572,94.3595
257.6572,94.3625
257.6405,94.7009
257.6399,94.7071
257.5905,95.0407
257.5893,95.0467
257.5073,95.3738
257.5055,95.3798
257.3919,95.6973
257.3895,95.7030
257.2454,96.0079
257.2424,96.0133
257.0691,96.3026
257.0656,96.3077
256.8647,96.5786
256.8608,96.5834
256.6343,96.8332
256.6300,96.8376
256.3801,97.0641
256.3753,97.0680
256.1045,97.2689
256.0993,97.2723
255.8101,97.4457
255.8046,97.4486
255.4997,97.5928
255.4940,97.5952
255.1765,97.7088
255.1706,97.7106
254.8435,97.7925
254.8374,97.7938
254.5038,97.8432
254.4977,97.8438
254.1805,97.8594
254.1603,97.8604
254.1572,97.8605
8.0343,97.8605
8.0312,97.8604
7.9982,97.8588
7.6928,97.8438
7.6867,97.8432
7.3531,97.7937
7.3470,97.7925
7.0199,97.7106
7.0140,97.7088
6.6965,97.5952
6.6908,97.5928
6.3859,97.4486
6.3804,97.4457
6.0912,97.2723
6.0860,97.2689
5.8152,97.0680
5.8104,97.0641
5.6855,96.9508
5.5605,96.8376
5.5562,96.8332
5.3297,96.5834
5.3297,96.5834
5.3258,96.5786
5.1249,96.3077
5.1214,96.3026
4.9481,96.0133
4.9451,96.0079
4.8010,95.7030
4.7986,95.6973
4.6850,95.3798
4.6832,95.3739
4.6012,95.0467
4.6000,95.0407
4.5864,94.9490
4.5506,94.7071
4.5499,94.7009
4.5333,94.3625
4.5333,94.3610
6.3275,94.3610
6.3465,94.6152
6.4032,94.8636
6.4964,95.1009
6.4964,95.1009
6.6238,95.3216
6.6238,95.3216
6.6238,95.3216
6.6654,95.3738
6.7827,95.5209
6.9205,95.6487
6.9695,95.6942
6.9695,95.6942
7.1801,95.8378
7.1801,95.8378
7.1801,95.8378
7.3125,95.9016
7.4097,95.9484
7.4098,95.9484
7.6533,96.0235
7.6533,96.0235
7.6533,96.0235
7.9053,96.0615
7.9053,96.0615
8.1602,96.0615
8.1602,96.0615
8.4122,96.0235
8.4452,96.0133
8.6557,95.9484
8.6557,95.9484
8.6558,95.9484
8.8854,95.8378
9.0960,95.6942
9.2828,95.5209
9.4417,95.3216
9.5691,95.1009
9.6623,94.8636
9.7190,94.6152
9.7380,94.3610
88.3691,94.3610
88.3882,94.6152
88.4449,94.8636
88.5380,95.1009
88.5380,95.1009
88.6655,95.3216
88.6655,95.3216
88.6655,95.3216
88.7071,95.3738
88.8244,95.5209
88.9622,95.6487
89.0112,95.6942
89.0112,95.6942
89.2218,95.8378
89.2218,95.8378
89.2218,95.8378
89.3542,95.9016
89.4514,95.9484
89.4514,95.9484
89.6949,96.0235
89.6950,96.0235
89.6950,96.0235
89.9470,96.0615
89.9470,96.0615
90.2018,96.0615
90.2019,96.0615
90.4539,96.0235
90.4869,96.0133
90.6974,95.9484
90.6974,95.9484
90.6974,95.9484
90.9271,95.8378
91.1376,95.6942
91.3245,95.5209
91.4834,95.3216
91.6108,95.1009
91.7039,94.8636
91.7606,94.6152
91.7797,94.3610
91.7797,94.3610
170.4108,94.3610
170.4299,94.6152
170.4866,94.8636
170.5797,95.1009
170.5797,95.1009
170.7071,95.3216
170.7071,95.3216
170.7071,95.3216
170.7488,95.3738
170.8660,95.5209
171.0038,95.6487
171.0529,95.6942
171.0529,95.6942
171.2634,95.8378
171.2634,95.8378
171.2634,95.8378
171.3958,95.9016
171.4931,95.9484
171.4931,95.9484
171.7366,96.0235
171.7366,96.0235
171.7366,96.0235
171.9886,96.0615
171.9887,96.0615
172.2435,96.0615
172.2435,96.0615
172.4955,96.0235
172.5286,96.0133
172.7391,95.9484
172.7391,95.9484
172.7391,95.9484
172.9687,95.8378
173.1793,95.6942
173.3661,95.5209
173.5250,95.3216
173.6525,95.1009
173.7456,94.8636
173.8023,94.6152
173.8214,94.3610
252.4525,94.3610
252.4715,94.6152
252.5282,94.8636
252.6214,95.1009
252.6214,95.1009
252.7488,95.3216
252.7488,95.3216
252.7488,95.3216
252.7904,95.3738
252.9077,95.5209
253.0455,95.6487
253.0945,95.6942
253.0945,95.6942
253.3051,95.8378
253.3051,95.8378
253.3051,95.8378
253.4375,95.9016
253.5347,95.9484
253.5348,95.9484
253.7783,96.0235
253.7783,96.0235
253.7783,96.0235
254.0303,96.0615
254.0303,96.0615
254.2852,96.0615
254.2852,96.0615
254.5372,96.0235
254.5702,96.0133
254.7807,95.9484
254.7807,95.9484
254.7808,95.9484
255.0104,95.8378
255.2210,95.6942
255.4078,95.5209
255.5667,95.3216
255.6941,95.1009
255.7873,94.8636
255.8440,94.6152
255.8630,94.3610
255.8440,94.1068
255.7873,93.8584
255.6941,93.6211
255.6941,93.6211
255.6941,93.6211
255.5667,93.4004
255.4078,93.2011
255.2210,93.0278
255.2210,93.0278
255.2210,93.0278
255.0104,92.8842
255.0104,92.8842
254.7808,92.7736
254.7807,92.7736
254.5372,92.6985
254.5372,92.6985
254.5372,92.6985
254.2852,92.6605
254.0303,92.6605
253.8203,92.6922
253.7783,92.6985
253.7783,92.6985
253.5348,92.7736
253.5347,92.7736
253.3051,92.8842
253.3051,92.8842
253.0945,93.0278
253.0945,93.0278
252.9077,93.2011
252.7488,93.4004
252.6214,93.6211
252.6214,93.6211
252.5282,93.8584
252.4715,94.1068
252.4525,94.3610
173.8214,94.3610
173.8023,94.1068
173.7456,93.8584
173.6525,93.6211
173.6525,93.6211
173.6525,93.6211
173.5250,93.4004
173.3661,93.2011
173.1793,93.0278
173.1793,93.0278
173.1793,93.0278
172.9687,92.8842
172.9687,92.8842
172.7391,92.7736
172.7391,92.7736
172.4956,92.6985
172.4955,92.6985
172.4955,92.6985
172.2435,92.6605
171.9886,92.6605
171.7786,92.6922
171.7366,92.6985
171.7366,92.6985
171.4931,92.7736
171.4931,92.7736
171.2634,92.8842
171.2634,92.8842
171.0529,93.0278
171.0529,93.0278
170.8660,93.2011
170.7071,93.4004
170.5797,93.6211
170.5797,93.6211
170.4866,93.8584
170.4299,94.1068
170.4108,94.3610
91.7797,94.3610
91.7606,94.1068
91.7039,93.8584
91.6108,93.6211
91.6108,93.6211
91.6108,93.6211
91.4834,93.4004
91.3245,93.2011
91.1376,93.0278
91.1376,93.0278
91.1376,93.0278
90.9271,92.8842
90.9271,92.8842
90.6974,92.7736
90.6974,92.7736
90.4539,92.6985
90.4539,92.6985
90.4539,92.6985
90.2019,92.6605
89.9470,92.6605
89.7370,92.6922
89.6950,92.6985
89.6949,92.6985
89.4514,92.7736
89.4514,92.7736
89.2218,92.8842
89.2218,92.8842
89.0112,93.0278
89.0112,93.0278
88.8244,93.2011
88.6655,93.4004
88.5380,93.6211
88.5380,93.6211
88.4449,93.8584
88.3882,94.1068
88.3691,94.3610
9.7380,94.3610
9.7190,94.1068
9.6623,93.8584
9.5691,93.6211
9.5691,93.6211
9.5691,93.6211
9.4417,93.4004
9.2828,93.2011
9.0960,93.0278
9.0960,93.0278
9.0960,93.0278
8.8854,92.8842
8.8854,92.8842
8.6558,92.7736
8.6557,92.7736
8.4122,92.6985
8.4122,92.6985
8.4122,92.6985
8.1602,92.6605
7.9053,92.6605
7.6953,92.6922
7.6533,92.6985
7.6533,92.6985
7.4098,92.7736
7.4097,92.7736
7.1801,92.8842
7.1801,92.8842
6.9695,93.0278
6.9695,93.0278
6.7827,93.2011
6.6238,93.4004
6.4964,93.6211
6.4964,93.6211
6.4032,93.8584
6.3465,94.1068
6.3275,94.3610
4.5333,94.3610
4.5332,94.3595
4.5332,84.5400
14.1012,84.5400
14.1012,84.5400
14.1017,84.5436
14.1022,84.5511
14.1038,84.6792
14.1044,84.7235
14.1042,84.7288
14.1034,84.7401
14.1034,84.7401
14.1046,84.7543
14.1048,84.7588
14.1050,84.7730
14.1069,84.7842
14.1076,84.7895
14.1226,84.9665
14.1228,84.9717
14.1228,84.9834
14.1250,84.9971
14.1256,85.0017
14.1267,85.0155
14.1295,85.0268
14.1306,85.0320
14.1583,85.2063
14.1590,85.2114
14.1598,85.2232
14.1598,85.2232
14.1630,85.2365
14.1639,85.2411
14.1661,85.2547
14.1661,85.2547
14.1697,85.2659
14.1711,85.2709
14.2117,85.4423
14.2127,85.4474
14.2144,85.4591
14.2144,85.4591
14.2186,85.4722
14.2198,85.4767
14.2230,85.4901
14.2230,85.4901
14.2230,85.4901
14.2239,85.4923
14.2275,85.5010
14.2292,85.5059
14.2821,85.6728
14.2835,85.6783
14.2857,85.6882
14.2857,85.6882
14.2913,85.7025
14.2927,85.7065
14.2974,85.7212
14.2974,85.7212
14.3019,85.7302
14.3042,85.7354
14.3066,85.7416
14.3508,85.8544
14.3532,85.8619
14.3538,85.8641
14.3538,85.8643
14.3633,85.8864
14.3687,85.9000
14.3721,85.9087
14.3721,85.9088
14.3734,85.9109
14.3769,85.9179
14.3809,85.9273
14.3824,85.9312
14.3834,85.9339
14.3834,85.9339
14.3948,85.9596
14.4007,85.9733
14.4068,85.9874
14.4090,85.9922
14.4101,85.9953
14.4214,86.0193
14.4329,86.0452
14.4348,86.0493
14.4357,86.0516
14.4471,86.0742
14.4578,86.0971
14.4581,86.0976
14.4609,86.1033
14.4615,86.1046
14.4733,86.1266
14.4845,86.1489
14.4853,86.1503
14.4875,86.1543
14.4882,86.1556
14.4882,86.1556
14.5010,86.1781
14.5133,86.2009
14.5133,86.2009
14.5133,86.2009
14.5146,86.2031
14.5168,86.2069
14.5308,86.2307
14.5356,86.2391
14.5469,86.2590
14.5466,86.2592
14.5502,86.2657
14.5505,86.2655
14.5528,86.2699
14.5528,86.2699
14.5652,86.2892
14.5710,86.2991
14.5768,86.3090
14.5768,86.3090
14.5792,86.3119
14.5835,86.3179
14.6779,86.4654
14.6807,86.4701
14.6858,86.4799
14.6858,86.4799
14.6944,86.4915
14.6970,86.4952
14.7048,86.5074
14.7048,86.5074
14.7121,86.5156
14.7155,86.5198
14.8227,86.6638
14.8257,86.6681
14.8317,86.6778
14.8317,86.6778
14.8409,86.6885
14.8438,86.6921
14.8522,86.7034
14.8522,86.7034
14.8604,86.7114
14.8640,86.7152
14.9804,86.8500
14.9837,86.8541
14.9906,86.8635
14.9906,86.8635
14.9906,86.8635
15.0004,86.8733
15.0035,86.8767
15.0126,86.8872
15.0126,86.8872
15.0215,86.8947
15.0254,86.8982
15.1511,87.0237
15.1546,87.0276
15.1622,87.0365
15.1672,87.0408
15.1727,87.0455
15.1761,87.0487
15.1859,87.0585
15.1953,87.0653
15.1994,87.0686
15.3344,87.1848
15.3382,87.1885
15.3462,87.1966
15.3576,87.2050
15.3611,87.2078
15.3718,87.2171
15.3718,87.2171
15.3815,87.2231
15.3859,87.2261
15.5299,87.3329
15.5341,87.3364
15.5422,87.3436
15.5422,87.3436
15.5422,87.3436
15.5422,87.3436
15.5546,87.3515
15.5582,87.3540
15.5701,87.3627
15.5701,87.3627
15.5797,87.3677
15.5844,87.3705
15.7277,87.4621
15.7338,87.4665
15.7366,87.4688
15.7565,87.4805
15.7699,87.4890
15.7759,87.4928
15.7802,87.4952
15.7801,87.4954
15.7900,87.5008
15.7901,87.5007
15.7944,87.5032
15.7944,87.5032
15.8183,87.5167
15.8286,87.5227
15.8462,87.5330
15.8480,87.5342
15.8480,87.5342
15.8560,87.5385
15.8708,87.5464
15.8941,87.5596
15.8986,87.5620
15.9000,87.5628
15.9000,87.5628
15.9073,87.5664
15.9223,87.5739
15.9395,87.5831
15.9443,87.5857
15.9443,87.5857
15.9443,87.5857
15.9456,87.5863
15.9514,87.5892
15.9518,87.5894
15.9748,87.6001
15.9972,87.6113
15.9975,87.6114
15.9975,87.6114
15.9998,87.6124
16.0038,87.6142
16.0299,87.6258
16.0486,87.6346
16.0541,87.6371
16.0541,87.6371
16.0572,87.6383
16.0619,87.6404
16.0900,87.6525
16.1065,87.6598
16.1159,87.6639
16.1159,87.6639
16.1185,87.6649
16.1261,87.6681
16.1310,87.6705
16.1310,87.6705
16.1563,87.6809
16.1813,87.6917
16.1813,87.6917
16.1861,87.6933
16.1898,87.6947
16.2296,87.7111
16.2366,87.7145
16.2389,87.7158
16.2613,87.7241
16.2835,87.7332
16.2860,87.7338
16.2934,87.7361
16.3315,87.7502
16.3382,87.7532
16.3419,87.7551
16.3634,87.7621
16.3846,87.7700
16.3887,87.7709
16.3958,87.7727
16.4329,87.7849
16.4398,87.7876
16.4435,87.7893
16.4435,87.7893
16.4653,87.7955
16.4759,87.7989
16.4869,87.8025
16.4909,87.8032
16.4981,87.8047
16.5367,87.8157
16.5442,87.8183
16.5459,87.8191
16.5698,87.8250
16.5934,87.8318
16.5953,87.8320
16.6031,87.8334
16.6180,87.8371
16.6309,87.8404
16.6384,87.8428
16.6407,87.8437
16.6642,87.8487
16.6875,87.8546
16.6900,87.8548
16.6977,87.8560
16.7191,87.8606
16.8116,87.8806
16.8181,87.8824
16.8242,87.8844
16.8242,87.8844
16.8242,87.8844
16.8430,87.8875
16.8461,87.8881
16.8647,87.8921
16.8712,87.8924
16.8779,87.8932
16.9890,87.9113
16.9952,87.9127
17.0027,87.9147
17.0204,87.9166
17.0239,87.9170
17.0414,87.9199
17.0492,87.9199
17.0555,87.9203
17.1649,87.9319
17.1711,87.9328
17.1789,87.9345
17.1964,87.9353
17.2000,87.9356
17.2175,87.9374
17.2254,87.9370
17.2317,87.9370
17.3393,87.9422
17.3465,87.9430
17.3510,87.9437
17.3714,87.9439
17.3733,87.9439
17.3744,87.9439
17.3956,87.9450
17.4001,87.9445
17.4073,87.9441
17.4387,87.9443
17.4426,87.9444
17.4479,87.9448
17.4479,87.9448
17.4479,87.9448
17.4749,87.9445
17.4751,87.9445
17.4772,87.9445
17.5024,87.9447
17.5024,87.9447
17.5024,87.9447
17.5024,87.9447
17.5061,87.9444
17.5097,87.9443
17.5296,87.9440
17.5303,87.9440
17.5313,87.9440
17.5480,87.9438
17.5500,87.9438
17.5510,87.9438
17.5510,87.9438
17.5571,87.9437
17.5599,87.9437
17.5599,87.9437
17.5614,87.9437
17.5626,87.9436
17.5805,87.9432
17.5917,87.9431
17.5958,87.9431
17.5959,87.9432
17.5959,87.9432
17.6054,87.9429
17.6068,87.9428
17.6109,87.9428
17.6125,87.9427
17.6247,87.9424
17.6258,87.9423
17.6294,87.9423
17.6351,87.9425
17.6351,87.9425
17.6506,87.9418
17.6537,87.9418
17.6537,87.9418
17.6591,87.9417
17.6642,87.9418
17.6652,87.9418
17.6652,87.9419
17.6699,87.9415
17.6773,87.9414
17.6812,87.9416
17.6965,87.9399
17.7006,87.9396
17.7158,87.9389
17.7158,87.9389
17.7158,87.9389
17.7168,87.9387
17.7249,87.9376
17.7267,87.9375
17.7305,87.9366
17.7378,87.9353
17.9084,87.9164
17.9137,87.9161
17.9248,87.9158
17.9390,87.9132
17.9435,87.9125
17.9439,87.9125
17.9578,87.9110
17.9685,87.9080
17.9738,87.9068
18.1484,87.8748
18.1538,87.8741
18.1648,87.8730
18.1788,87.8694
18.1831,87.8685
18.1974,87.8659
18.2078,87.8622
18.2130,87.8606
18.3840,87.8166
18.3892,87.8155
18.4002,87.8136
18.4139,87.8090
18.4182,87.8078
18.4322,87.8042
18.4423,87.7997
18.4474,87.7978
18.6141,87.7420
18.6193,87.7405
18.6301,87.7379
18.6434,87.7323
18.6476,87.7308
18.6612,87.7262
18.6711,87.7210
18.6760,87.7188
18.8379,87.6513
18.8429,87.6495
18.8537,87.6460
18.8664,87.6396
18.8705,87.6377
18.8721,87.6371
18.8837,87.6323
18.8933,87.6264
18.8979,87.6238
19.0544,87.5449
19.0592,87.5428
19.0699,87.5385
19.0819,87.5313
19.0859,87.5291
19.0985,87.5227
19.1078,87.5160
19.1122,87.5131
19.2617,87.4237
19.2666,87.4210
19.2760,87.4165
19.2884,87.4079
19.2920,87.4056
19.3049,87.3978
19.3129,87.3911
19.3174,87.3877
19.3695,87.3515
19.4353,87.3056
19.4401,87.3026
19.4489,87.2976
19.4609,87.2880
19.4643,87.2855
19.4769,87.2767
19.4843,87.2696
19.4885,87.2659
19.6305,87.1524
19.6348,87.1492
19.6440,87.1431
19.6547,87.1332
19.6580,87.1303
19.6694,87.1212
19.6768,87.1131
19.6806,87.1093
19.7594,87.0365
19.8130,86.9870
19.8170,86.9836
19.8260,86.9767
19.8357,86.9663
19.8389,86.9631
19.8494,86.9534
19.8564,86.9446
19.8599,86.9405
19.9820,86.8103
19.9858,86.8065
19.9943,86.7989
19.9943,86.7989
20.0032,86.7879
20.0062,86.7845
20.0158,86.7742
20.0222,86.7647
20.0254,86.7605
20.1371,86.6225
20.1406,86.6185
20.1486,86.6102
20.1566,86.5987
20.1593,86.5950
20.1681,86.5842
20.1739,86.5741
20.1767,86.5697
20.2778,86.4242
20.2810,86.4200
20.2821,86.4187
20.2884,86.4111
20.2955,86.3991
20.2980,86.3952
20.3059,86.3838
20.3110,86.3733
20.3134,86.3687
20.4037,86.2160
20.4066,86.2116
20.4133,86.2022
20.4195,86.1896
20.4217,86.1856
20.4288,86.1736
20.4331,86.1628
20.4352,86.1581
20.5144,85.9985
20.5170,85.9938
20.5229,85.9841
20.5283,85.9710
20.5301,85.9669
20.5364,85.9542
20.5398,85.9433
20.5416,85.9383
20.6096,85.7722
20.6119,85.7673
20.6170,85.7574
20.6170,85.7574
20.6215,85.7437
20.6230,85.7395
20.6285,85.7262
20.6310,85.7154
20.6325,85.7102
20.6871,85.5438
20.6897,85.5370
20.6917,85.5329
20.6977,85.5115
20.7046,85.4903
20.7046,85.4903
20.7050,85.4891
20.7057,85.4855
20.7066,85.4820
20.7066,85.4820
20.7132,85.4566
20.7203,85.4313
20.7203,85.4313
20.7205,85.4304
20.7219,85.4230
20.7337,85.3773
20.7361,85.3700
20.7372,85.3673
20.7423,85.3442
20.7482,85.3213
20.7485,85.3184
20.7497,85.3108
20.7595,85.2666
20.7615,85.2596
20.7630,85.2554
20.7631,85.2547
20.7669,85.2334
20.7684,85.2266
20.7717,85.2116
20.7720,85.2071
20.7729,85.1999
20.7807,85.1562
20.7823,85.1493
20.7825,85.1488
20.7838,85.1443
20.7865,85.1241
20.7869,85.1214
20.7905,85.1013
20.7906,85.0962
20.7911,85.0892
20.7970,85.0443
20.7984,85.0373
20.7996,85.0327
20.8015,85.0107
20.8044,84.9888
20.8043,84.9840
20.8045,84.9768
20.8087,84.9295
20.8098,84.9221
20.8106,84.9186
20.8118,84.8955
20.8138,84.8724
20.8136,84.8689
20.8135,84.8614
20.8162,84.8095
20.8171,84.8016
20.8174,84.7998
20.8179,84.7752
20.8192,84.7505
20.8190,84.7488
20.8187,84.7408
20.8190,84.7262
20.8199,84.6843
20.8201,84.6804
20.8205,84.6752
20.8205,84.6752
20.8207,84.6479
20.8212,84.6207
20.8212,84.6207
20.8212,84.6205
20.8213,84.6130
20.8213,84.6127
20.8213,84.6127
20.8210,84.5856
20.8211,84.5664
20.8226,84.5473
20.8251,84.5316
20.8213,84.5079
20.8198,84.4897
20.8198,84.4881
20.8195,84.4672
20.8199,84.4594
20.8202,84.4570
20.8198,84.4494
20.8191,84.4330
20.8188,84.4109
20.8188,84.4088
20.8184,84.4064
20.8176,84.3987
20.8162,84.3686
20.8141,84.3217
20.8142,84.3145
20.8145,84.3107
20.8145,84.3101
20.8126,84.2878
20.8116,84.2654
20.8107,84.2611
20.8096,84.2538
20.8056,84.2073
20.8034,84.1820
20.8032,84.1752
20.8033,84.1691
20.8007,84.1498
20.8004,84.1468
20.8001,84.1436
20.7987,84.1274
20.7972,84.1215
20.7960,84.1148
20.7866,84.0457
20.7860,84.0392
20.7858,84.0324
20.7823,84.0140
20.7818,84.0108
20.7793,83.9922
20.7773,83.9857
20.7758,83.9793
20.7629,83.9114
20.7620,83.9047
20.7618,83.9015
20.7615,83.8982
20.7570,83.8798
20.7563,83.8767
20.7553,83.8712
20.7528,83.8580
20.7506,83.8518
20.7487,83.8455
20.7321,83.7773
20.7308,83.7703
20.7302,83.7651
20.7273,83.7553
20.7245,83.7457
20.7238,83.7429
20.7190,83.7233
20.7170,83.7184
20.7146,83.7118
20.6941,83.6414
20.6924,83.6340
20.6919,83.6306
20.6919,83.6306
20.6845,83.6086
20.6780,83.5863
20.6766,83.5832
20.6738,83.5762
20.6529,83.5135
20.6507,83.5069
20.6489,83.4996
20.6486,83.4997
20.6473,83.4949
20.6384,83.4698
20.6384,83.4698
20.6300,83.4446
20.6300,83.4446
20.6285,83.4400
20.6274,83.4361
20.6271,83.4350
20.6271,83.4350
20.6187,83.4143
20.6113,83.3933
20.6091,83.3893
20.6060,83.3828
20.6028,83.3747
20.5442,83.2291
20.5425,83.2243
20.5389,83.2128
20.5329,83.2007
20.5310,83.1964
20.5260,83.1839
20.5198,83.1735
20.5173,83.1690
20.4408,83.0138
20.4387,83.0091
20.4343,82.9980
20.4343,82.9980
20.4274,82.9862
20.4252,82.9821
20.4192,82.9699
20.4191,82.9699
20.4191,82.9699
20.4123,82.9602
20.4095,82.9558
20.3886,82.9205
20.3213,82.8063
20.3188,82.8017
20.3138,82.7912
20.3059,82.7798
20.3034,82.7759
20.2963,82.7639
20.2889,82.7549
20.2857,82.7507
20.2819,82.7452
20.1862,82.6071
20.1833,82.6026
20.1777,82.5928
20.1777,82.5928
20.1777,82.5928
20.1687,82.5817
20.1660,82.5781
20.1579,82.5664
20.1579,82.5664
20.1579,82.5664
20.1501,82.5582
20.1466,82.5542
20.0358,82.4167
20.0325,82.4123
20.0265,82.4033
20.0265,82.4033
20.0265,82.4033
20.0165,82.3925
20.0136,82.3892
20.0044,82.3778
19.9964,82.3705
19.9925,82.3667
19.8707,82.2355
19.8670,82.2312
19.8607,82.2230
19.8607,82.2230
19.8496,82.2126
19.8466,82.2096
19.8363,82.1985
19.8282,82.1921
19.8239,82.1885
19.6933,82.0657
19.6887,82.0610
19.6841,82.0556
19.6700,82.0437
19.6675,82.0415
19.6541,82.0289
19.6541,82.0289
19.6541,82.0289
19.6482,82.0249
19.6430,82.0209
19.5726,81.9615
19.5676,81.9568
19.5634,81.9524
19.5480,81.9406
19.5456,81.9387
19.5308,81.9262
19.5308,81.9262
19.5308,81.9262
19.5308,81.9262
19.5308,81.9262
19.5255,81.9230
19.5199,81.9192
19.4729,81.8834
19.4677,81.8789
19.4635,81.8749
19.4635,81.8749
19.4473,81.8637
19.4448,81.8619
19.4292,81.8500
19.4241,81.8472
19.4182,81.8436
19.3872,81.8222
19.3628,81.8053
19.3569,81.8008
19.3540,81.7982
19.3540,81.7982
19.3488,81.7949
19.3347,81.7860
19.3159,81.7730
19.3124,81.7713
19.3059,81.7677
19.2457,81.7296
19.2396,81.7251
19.2371,81.7231
19.2371,81.7231
19.2371,81.7231
19.2261,81.7167
19.2169,81.7113
19.1970,81.6987
19.1970,81.6987
19.1970,81.6987
19.1941,81.6974
19.1873,81.6940
19.1243,81.6572
19.1180,81.6529
19.1155,81.6510
19.1155,81.6510
19.0948,81.6399
19.0746,81.6281
19.0746,81.6281
19.0746,81.6281
19.0746,81.6281
19.0716,81.6269
19.0647,81.6237
19.0342,81.6073
19.0010,81.5895
18.9947,81.5856
18.9914,81.5833
18.9914,81.5833
18.9914,81.5833
18.9914,81.5833
18.9710,81.5734
18.9510,81.5626
18.9510,81.5626
18.9510,81.5626
18.9471,81.5613
18.9403,81.5584
18.8829,81.5305
18.8757,81.5264
18.8752,81.5261
18.8752,81.5260
18.8685,81.5230
18.8612,81.5191
18.8607,81.5187
18.8459,81.5124
18.8431,81.5111
18.8287,81.5041
18.8287,81.5041
18.8287,81.5041
18.8281,81.5039
18.8203,81.5010
18.8138,81.4980
18.8138,81.4980
18.8131,81.4978
18.8053,81.4951
18.7890,81.4881
18.7881,81.4877
18.7812,81.4843
18.7787,81.4828
18.7787,81.4828
18.7566,81.4743
18.7348,81.4649
18.7347,81.4649
18.7320,81.4642
18.7246,81.4619
18.6966,81.4511
18.6892,81.4476
18.6883,81.4472
18.6883,81.4472
18.6644,81.4386
18.6408,81.4295
18.6407,81.4295
18.6398,81.4293
18.6319,81.4270
18.6065,81.4180
18.6001,81.4157
18.5923,81.4123
18.5921,81.4122
18.5921,81.4122
18.5921,81.4122
18.5675,81.4040
18.5430,81.3953
18.5429,81.3953
18.5428,81.3953
18.5346,81.3931
18.5013,81.3821
18.4935,81.3789
18.4932,81.3788
18.4932,81.3788
18.4932,81.3788
18.4932,81.3788
18.4684,81.3712
18.4438,81.3631
18.4438,81.3631
18.4438,81.3631
18.4434,81.3630
18.4353,81.3611
18.4032,81.3513
18.3956,81.3485
18.3944,81.3479
18.3944,81.3479
18.3814,81.3443
18.3703,81.3413
18.3583,81.3376
18.3463,81.3340
18.3463,81.3340
18.3450,81.3338
18.3370,81.3321
18.3200,81.3275
18.3112,81.3250
18.3034,81.3223
18.3026,81.3220
18.2779,81.3159
18.2735,81.3147
18.2681,81.3132
18.2621,81.3113
18.2599,81.3109
18.2569,81.3101
18.2534,81.3091
18.2534,81.3091
18.2534,81.3091
18.2512,81.3087
18.2477,81.3081
18.2368,81.3057
18.2117,81.2995
18.2117,81.2995
18.2117,81.2995
18.2116,81.2995
18.2113,81.2994
18.2030,81.2982
18.1662,81.2900
18.1588,81.2878
18.1562,81.2869
18.1562,81.2869
18.1432,81.2845
18.1327,81.2825
18.1202,81.2797
18.1095,81.2773
18.1095,81.2773
18.1067,81.2772
18.0990,81.2762
18.0633,81.2695
18.0561,81.2677
18.0523,81.2665
18.0393,81.2646
18.0297,81.2632
18.0223,81.2618
18.0074,81.2590
18.0056,81.2590
18.0034,81.2589
17.9960,81.2583
17.9600,81.2530
17.9528,81.2515
17.9520,81.2513
17.9487,81.2504
17.9487,81.2504
17.9486,81.2504
17.9263,81.2481
17.9041,81.2448
17.9041,81.2448
17.8997,81.2449
17.8924,81.2445
17.8547,81.2406
17.8473,81.2394
17.8471,81.2393
17.8438,81.2386
17.8438,81.2386
17.8438,81.2386
17.8208,81.2370
17.7978,81.2346
17.7978,81.2346
17.7942,81.2348
17.7867,81.2348
17.7456,81.2320
17.7378,81.2310
17.7356,81.2306
17.7356,81.2306
17.7114,81.2298
17.6872,81.2282
17.6871,81.2282
17.6849,81.2284
17.6770,81.2286
17.6303,81.2270
17.6220,81.2261
17.6215,81.2261
17.6215,81.2261
17.5957,81.2258
17.5925,81.2257
17.5700,81.2249
17.5700,81.2249
17.5700,81.2249
17.5700,81.2249
17.5695,81.2250
17.5611,81.2254
17.5070,81.2249
17.5027,81.2247
17.5006,81.2245
17.4914,81.2245
17.4871,81.2244
17.4847,81.2242
17.4644,81.2245
17.4640,81.2245
17.4611,81.2244
17.4437,81.2243
17.4437,81.2243
17.4437,81.2243
17.4416,81.2244
17.4373,81.2245
17.4281,81.2245
17.4281,81.2245
17.4256,81.2247
17.4214,81.2249
17.3926,81.2252
17.3596,81.2256
17.3514,81.2252
17.3505,81.2251
17.3504,81.2250
17.3251,81.2260
17.2997,81.2263
17.2997,81.2263
17.2987,81.2264
17.2906,81.2273
17.2359,81.2293
17.2282,81.2291
17.2254,81.2289
17.2254,81.2289
17.2017,81.2306
17.1779,81.2315
17.1779,81.2315
17.1752,81.2320
17.1675,81.2330
17.1299,81.2357
17.1185,81.2365
17.1112,81.2366
17.1105,81.2366
17.1069,81.2364
17.1069,81.2364
17.1052,81.2366
17.0846,81.2390
17.0814,81.2392
17.0622,81.2406
17.0621,81.2406
17.0579,81.2416
17.0507,81.2428
17.0051,81.2480
16.9980,81.2484
16.9929,81.2484
16.9799,81.2504
16.9713,81.2518
16.9677,81.2522
16.9497,81.2542
16.9448,81.2556
16.9378,81.2571
16.8938,81.2641
16.8867,81.2648
16.8818,81.2650
16.8818,81.2650
16.8603,81.2694
16.8386,81.2728
16.8339,81.2743
16.8270,81.2762
16.7832,81.2851
16.7758,81.2861
16.7721,81.2864
16.7625,81.2888
16.7498,81.2919
16.7313,81.2956
16.7272,81.2965
16.7272,81.2965
16.7238,81.2978
16.7166,81.3000
16.6730,81.3106
16.6647,81.3121
16.6645,81.3121
16.6645,81.3121
16.6393,81.3188
16.6076,81.3266
16.6065,81.3268
16.6035,81.3275
16.5821,81.3342
16.5604,81.3400
16.5604,81.3400
16.5564,81.3417
16.5496,81.3443
16.3844,81.3960
16.3792,81.3974
16.3684,81.3998
16.3684,81.3998
16.3549,81.4051
16.3507,81.4065
16.3369,81.4109
16.3369,81.4109
16.3270,81.4158
16.3220,81.4180
16.1559,81.4832
16.1508,81.4849
16.1402,81.4881
16.1272,81.4943
16.1231,81.4961
16.1097,81.5013
16.1001,81.5070
16.0953,81.5095
15.9351,81.5860
15.9302,81.5881
15.9197,81.5921
15.9196,81.5921
15.9073,81.5991
15.9032,81.6012
15.8904,81.6073
15.8904,81.6073
15.8811,81.6137
15.8766,81.6166
15.7229,81.7041
15.7181,81.7065
15.7078,81.7113
15.6960,81.7191
15.6922,81.7215
15.6799,81.7285
15.6799,81.7285
15.6710,81.7356
15.6667,81.7388
15.5207,81.8365
15.5160,81.8394
15.5066,81.8446
15.5065,81.8446
15.4949,81.8536
15.4913,81.8562
15.4791,81.8644
15.4791,81.8644
15.4712,81.8717
15.4670,81.8753
15.3460,81.9691
15.3415,81.9723
15.3326,81.9780
15.3214,81.9879
15.3181,81.9907
15.3063,81.9998
15.3063,81.9999
15.2991,82.0076
15.2951,82.0114
15.1667,82.1260
15.1625,82.1295
15.1538,82.1360
15.1436,82.1465
15.1404,82.1496
15.1295,82.1592
15.1295,82.1592
15.1226,82.1677
15.1190,82.1718
14.9990,82.2951
14.9949,82.2989
14.9868,82.3059
14.9868,82.3059
14.9773,82.3172
14.9743,82.3204
14.9640,82.3311
14.9640,82.3311
14.9578,82.3398
14.9544,82.3442
14.8437,82.4751
14.8399,82.4791
14.8324,82.4866
14.8324,82.4866
14.8235,82.4986
14.8209,82.5020
14.8112,82.5134
14.8112,82.5134
14.8057,82.5225
14.8027,82.5271
14.7015,82.6648
14.6980,82.6691
14.6911,82.6771
14.6831,82.6897
14.6806,82.6933
14.6718,82.7053
14.6718,82.7053
14.6669,82.7147
14.6642,82.7195
14.5731,82.8633
14.5699,82.8678
14.5634,82.8764
14.5634,82.8764
14.5564,82.8894
14.5542,82.8931
14.5463,82.9057
14.5420,82.9155
14.5396,82.9205
14.4590,83.0697
14.4562,83.0743
14.4502,83.0835
14.4502,83.0835
14.4442,83.0968
14.4422,83.1008
14.4353,83.1135
14.4353,83.1135
14.4317,83.1239
14.4297,83.1289
14.3601,83.2830
14.3577,83.2877
14.3521,83.2977
14.3473,83.3109
14.3455,83.3151
14.3397,83.3280
14.3397,83.3280
14.3367,83.3390
14.3351,83.3441
14.2774,83.5011
14.2753,83.5062
14.2708,83.5159
14.2666,83.5301
14.2653,83.5342
14.2602,83.5481
14.2602,83.5481
14.2581,83.5587
14.2568,83.5640
14.2202,83.6900
14.2180,83.6964
14.2156,83.7023
14.2156,83.7023
14.2112,83.7209
14.2104,83.7240
14.2050,83.7423
14.2042,83.7487
14.2031,83.7553
14.1814,83.8467
14.1794,83.8537
14.1778,83.8579
14.1778,83.8580
14.1736,83.8798
14.1685,83.9015
14.1685,83.9015
14.1682,83.9061
14.1672,83.9132
14.1513,83.9958
14.1497,84.0024
14.1479,84.0082
14.1479,84.0082
14.1452,84.0275
14.1447,84.0305
14.1410,84.0496
14.1410,84.0496
14.1408,84.0556
14.1402,84.0625
14.1287,84.1436
14.1273,84.1502
14.1258,84.1562
14.1258,84.1562
14.1240,84.1755
14.1237,84.1786
14.1228,84.1850
14.1210,84.1977
14.1211,84.2039
14.1208,84.2106
14.1132,84.2932
14.1121,84.3002
14.1111,84.3052
14.1111,84.3052
14.1101,84.3270
14.1081,84.3488
14.1081,84.3488
14.1084,84.3538
14.1085,84.3609
14.1044,84.4453
14.1035,84.4536
14.1035,84.4537
14.1034,84.4538
14.1031,84.4672
14.1028,84.4799
14.1027,84.4814
14.1025,84.4851
14.1019,84.4911
14.1015,84.4939
14.1015,84.4939
14.1016,84.5015
14.1016,84.5053
14.1015,84.5061
14.1016,84.5083
14.1017,84.5108
14.1018,84.5159
14.1018,84.5169
14.1012,84.5400
4.5332,84.5400
4.5332,10.1625
4.5333,10.1610
6.3275,10.1610
6.3465,10.4152
6.4032,10.6636
6.4964,10.9009
6.4964,10.9009
6.6238,11.1216
6.7827,11.3209
6.9205,11.4487
6.9695,11.4942
6.9695,11.4942
7.1801,11.6378
7.1801,11.6378
7.1801,11.6378
7.3125,11.7016
7.4097,11.7484
7.4098,11.7484
7.6533,11.8235
7.6533,11.8235
7.6533,11.8235
7.9053,11.8615
7.9053,11.8615
8.1602,11.8615
8.1602,11.8615
8.4122,11.8235
8.4122,11.8235
8.6557,11.7484
8.6557,11.7484
8.6558,11.7484
8.8854,11.6378
9.0960,11.4942
9.2828,11.3209
9.4417,11.1216
9.5691,10.9009
9.6623,10.6636
9.7190,10.4152
9.7380,10.1610
88.3691,10.1610
88.3739,10.2245
88.3882,10.4152
88.4449,10.6636
88.5380,10.9009
88.5380,10.9009
88.6655,11.1216
88.8244,11.3209
88.9622,11.4487
89.0112,11.4942
89.0112,11.4942
89.2218,11.6378
89.2218,11.6378
89.2218,11.6378
89.3542,11.7016
89.4514,11.7484
89.4514,11.7484
89.6949,11.8235
89.6950,11.8235
89.6950,11.8235
89.9470,11.8615
89.9470,11.8615
90.2018,11.8615
90.2019,11.8615
90.4539,11.8235
90.4539,11.8235
90.6974,11.7484
90.6974,11.7484
90.6974,11.7484
90.9271,11.6378
91.1376,11.4942
91.3245,11.3209
91.4834,11.1216
91.6108,10.9009
91.7039,10.6636
91.7606,10.4152
91.7797,10.1610
170.4108,10.1610
170.4156,10.2245
170.4299,10.4152
170.4866,10.6636
170.5797,10.9009
170.5797,10.9009
170.7071,11.1216
170.8660,11.3209
171.0038,11.4487
171.0529,11.4942
171.0529,11.4942
171.2634,11.6378
171.2634,11.6378
171.2634,11.6378
171.3958,11.7016
171.4931,11.7484
171.4931,11.7484
171.7366,11.8235
171.7366,11.8235
171.7366,11.8235
171.9886,11.8615
171.9887,11.8615
172.2435,11.8615
172.2435,11.8615
172.4955,11.8235
172.4956,11.8235
172.7391,11.7484
172.7391,11.7484
172.7391,11.7484
172.9687,11.6378
173.1793,11.4942
173.3661,11.3209
173.5250,11.1216
173.6525,10.9009
173.7456,10.6636
173.8023,10.4152
173.8214,10.1610
252.4525,10.1610
252.4715,10.4152
252.5282,10.6636
252.6214,10.9009
252.6214,10.9009
252.7488,11.1216
252.9077,11.3209
253.0455,11.4487
253.0945,11.4942
253.0945,11.4942
253.3051,11.6378
253.3051,11.6378
253.3051,11.6378
253.4375,11.7016
253.5347,11.7484
253.5348,11.7484
253.7783,11.8235
253.7783,11.8235
253.7783,11.8235
254.0303,11.8615
254.0303,11.8615
254.2852,11.8615
254.2852,11.8615
254.5372,11.8235
254.5372,11.8235
254.7807,11.7484
254.7807,11.7484
254.7808,11.7484
255.0104,11.6378
255.2210,11.4942
255.4078,11.3209
255.5667,11.1216
255.6941,10.9009
255.7873,10.6636
255.8440,10.4152
255.8630,10.1610
255.8440,9.9068
255.7873,9.6584
255.6941,9.4211
255.6941,9.4211
255.6941,9.4211
255.5667,9.2004
255.5227,9.1452
255.4078,9.0011
255.4078,9.0011
255.4078,9.0011
255.2210,8.8278
255.2210,8.8278
255.2210,8.8278
255.0104,8.6842
255.0104,8.6842
254.7808,8.5736
254.7807,8.5736
254.5372,8.4985
254.5372,8.4985
254.5372,8.4985
254.2852,8.4605
254.0303,8.4605
253.8203,8.4922
253.7783,8.4985
253.7783,8.4985
253.5348,8.5736
253.5347,8.5736
253.3051,8.6842
253.3051,8.6842
253.0945,8.8278
253.0945,8.8278
252.9077,9.0011
252.7488,9.2004
252.6214,9.4211
252.6214,9.4211
252.5282,9.6584
252.4715,9.9068
252.4525,10.1610
173.8214,10.1610
173.8023,9.9068
173.7456,9.6584
173.6525,9.4211
173.6525,9.4211
173.6525,9.4211
173.5250,9.2004
173.4810,9.1452
173.3661,9.0011
173.3661,9.0011
173.3661,9.0011
173.1793,8.8278
173.1793,8.8278
173.1793,8.8278
172.9687,8.6842
172.9687,8.6842
172.7391,8.5736
172.7391,8.5736
172.4956,8.4985
172.4955,8.4985
172.4955,8.4985
172.2435,8.4605
171.9886,8.4605
171.7786,8.4922
171.7366,8.4985
171.7366,8.4985
171.4931,8.5736
171.4931,8.5736
171.2634,8.6842
171.2634,8.6842
171.0529,8.8278
171.0529,8.8278
170.8660,9.0011
170.7071,9.2004
170.5797,9.4211
170.5797,9.4211
170.4866,9.6584
170.4299,9.9068
170.4135,10.1249
170.4108,10.1610
91.7797,10.1610
91.7606,9.9068
91.7039,9.6584
91.6108,9.4211
91.6108,9.4211
91.6108,9.4211
91.4834,9.2004
91.4393,9.1452
91.3245,9.0011
91.3245,9.0011
91.3245,9.0011
91.1376,8.8278
91.1376,8.8278
91.1376,8.8278
90.9271,8.6842
90.9271,8.6842
90.6974,8.5736
90.6974,8.5736
90.4539,8.4985
90.4539,8.4985
90.2019,8.4605
89.9470,8.4605
89.7370,8.4922
89.6950,8.4985
89.6949,8.4985
89.4514,8.5736
89.4514,8.5736
89.2218,8.6842
89.2218,8.6842
89.0112,8.8278
89.0112,8.8278
88.8244,9.0011
88.6655,9.2004
88.5380,9.4211
88.5380,9.4211
88.4449,9.6584
88.3882,9.9068
88.3719,10.1249
88.3691,10.1610
9.7380,10.1610
9.7190,9.9068
9.6623,9.6584
9.5691,9.4211
9.5691,9.4211
9.5691,9.4211
9.4417,9.2004
9.3977,9.1452
9.2828,9.0011
9.2828,9.0011
9.2828,9.0011
9.0960,8.8278
9.0960,8.8278
9.0960,8.8278
8.8854,8.6842
8.8854,8.6842
8.6558,8.5736
8.6557,8.5736
8.4122,8.4985
8.4122,8.4985
8.4122,8.4985
8.1602,8.4605
7.9053,8.4605
7.6953,8.4922
7.6533,8.4985
7.6533,8.4985
7.4098,8.5736
7.4097,8.5736
7.1801,8.6842
7.1801,8.6842
6.9695,8.8278
6.9695,8.8278
6.7827,9.0011
6.6238,9.2004
6.4964,9.4211
6.4964,9.4211
6.4032,9.6584
6.3465,9.9068
6.3275,10.1610
4.5333,10.1610
4.5333,10.1594
4.5499,9.8211
4.5506,9.8149
4.6000,9.4813
4.6012,9.4753
4.6832,9.1481
4.6850,9.1422
4.7986,8.8247
4.8010,8.8190
4.9451,8.5141
4.9481,8.5087
4.9910,8.4371
5.1214,8.2194
5.1249,8.2143
5.3258,7.9434
5.3297,7.9386
5.5562,7.6888
5.5605,7.6844
5.8104,7.4579
5.8152,7.4540
6.0861,7.2531
6.0912,7.2497
6.3804,7.0763
6.3859,7.0734
6.5101,7.0147
6.6908,6.9292
6.6964,6.9268
7.0140,6.8132
7.0199,6.8114
7.1827,6.7707
7.3470,6.7295
7.3531,6.7283
7.6867,6.6788
7.6928,6.6782
8.0312,6.6616
8.0343,6.6615
8.0986,6.6615
254.1562,6.6615
Z" /> 
</g>
</g>
</g>
<g style="fill:#000000; fill-opacity:1.0000; 
stroke:#000000; stroke-width:0.0000; stroke-opacity:1; 
stroke-linecap:round; stroke-linejoin:round;">
</g>
<g style="fill:#FFFFFF; fill-opacity:1.0000; 
stroke:#FFFFFF; stroke-width:0.0000; stroke-opacity:1; 
stroke-linecap:round; stroke-linejoin:round;">
<g >
</g>
<g style="fill:#37CBCB; fill-opacity:1.0000; 
stroke:#37CBCB; stroke-width:0.0000; stroke-opacity:1; 
stroke-linecap:round; stroke-linejoin:round;">
<circle cx="133.5087" cy="95.8850" r="0.7620" /> 
</g>
<g style="fill:#37CBCB; fill-opacity:1.0000; 
stroke:#37CBCB; stroke-width:0.0212; stroke-opacity:1; 
stroke-linecap:round; stroke-linejoin:round;">
</g>
<g >
</g>
<g >
</g>
<g >
</g>
<g >
</g>
<g >
</g>
<g style="fill:#37CBCB; fill-opacity:1.0000; 
stroke:#37CBCB; stroke-width:0.0212; stroke-opacity:1; 
stroke-linecap:round; stroke-linejoin:round;">
<g >
</g>
<g style="fill:#37CBCB; fill-opacity:1.0000; 
stroke:#37CBCB; stroke-width:0.0000; stroke-opacity:1; 
stroke-linecap:round; stroke-linejoin:round;">
<path style="fill:#37CBCB; fill-opacity:1.0000; 
stroke:#37CBCB; stroke-width:0.0000; stroke-opacity:1; 
stroke-linecap:round; stroke-linejoin:round;fill-rule:evenodd;"
d="M 254.1593,6.6616
254.3087,6.6689
254.4977,6.6782
254.5038,6.6788
254.8374,6.7283
254.8434,6.7295
255.1697,6.8112
255.1706,6.8114
255.1765,6.8132
255.4940,6.9269
255.4997,6.9292
255.8046,7.0734
255.8100,7.0763
256.0993,7.2497
256.0993,7.2497
256.1044,7.2531
256.3753,7.4540
256.3801,7.4579
256.6299,7.6844
256.6343,7.6888
256.8608,7.9387
256.8647,7.9434
257.0656,8.2143
257.0690,8.2195
257.2424,8.5087
257.2453,8.5142
257.3895,8.8190
257.3919,8.8247
257.5055,9.1422
257.5073,9.1482
257.5892,9.4753
257.5904,9.4814
257.6399,9.8149
257.6405,9.8211
257.6572,10.1605
257.6572,10.1636
257.6572,94.3595
257.6572,94.3625
257.6405,94.7009
257.6399,94.7071
257.5905,95.0407
257.5893,95.0467
257.5073,95.3738
257.5055,95.3798
257.3919,95.6973
257.3895,95.7030
257.2454,96.0079
257.2424,96.0133
257.0691,96.3026
257.0656,96.3077
256.8647,96.5786
256.8608,96.5834
256.6343,96.8332
256.6300,96.8376
256.3801,97.0641
256.3753,97.0680
256.1045,97.2689
256.0993,97.2723
255.8101,97.4457
255.8046,97.4486
255.4997,97.5928
255.4940,97.5952
255.1765,97.7088
255.1706,97.7106
254.8435,97.7925
254.8374,97.7938
254.5038,97.8432
254.4977,97.8438
254.1805,97.8594
254.1603,97.8604
254.1572,97.8605
8.0343,97.8605
8.0312,97.8604
7.9982,97.8588
7.6928,97.8438
7.6867,97.8432
7.3531,97.7937
7.3470,97.7925
7.0199,97.7106
7.0140,97.7088
6.6965,97.5952
6.6908,97.5928
6.3859,97.4486
6.3804,97.4457
6.0912,97.2723
6.0860,97.2689
5.8152,97.0680
5.8104,97.0641
5.6855,96.9508
5.5605,96.8376
5.5562,96.8332
5.3297,96.5834
5.3297,96.5834
5.3258,96.5786
5.1249,96.3077
5.1214,96.3026
4.9481,96.0133
4.9451,96.0079
4.8010,95.7030
4.7986,95.6973
4.6850,95.3798
4.6832,95.3739
4.6012,95.0467
4.6000,95.0407
4.5864,94.9490
4.5506,94.7071
4.5499,94.7009
4.5333,94.3625
4.5333,94.3610
6.3275,94.3610
6.3465,94.6152
6.4032,94.8636
6.4964,95.1009
6.4964,95.1009
6.6238,95.3216
6.6238,95.3216
6.6238,95.3216
6.6654,95.3738
6.7827,95.5209
6.9205,95.6487
6.9695,95.6942
6.9695,95.6942
7.1801,95.8378
7.1801,95.8378
7.1801,95.8378
7.3125,95.9016
7.4097,95.9484
7.4098,95.9484
7.6533,96.0235
7.6533,96.0235
7.6533,96.0235
7.9053,96.0615
7.9053,96.0615
8.1602,96.0615
8.1602,96.0615
8.4122,96.0235
8.4452,96.0133
8.6557,95.9484
8.6557,95.9484
8.6558,95.9484
8.8854,95.8378
9.0960,95.6942
9.2828,95.5209
9.4417,95.3216
9.5691,95.1009
9.6623,94.8636
9.7190,94.6152
9.7380,94.3610
88.3691,94.3610
88.3882,94.6152
88.4449,94.8636
88.5380,95.1009
88.5380,95.1009
88.6655,95.3216
88.6655,95.3216
88.6655,95.3216
88.7071,95.3738
88.8244,95.5209
88.9622,95.6487
89.0112,95.6942
89.0112,95.6942
89.2218,95.8378
89.2218,95.8378
89.2218,95.8378
89.3542,95.9016
89.4514,95.9484
89.4514,95.9484
89.6949,96.0235
89.6950,96.0235
89.6950,96.0235
89.9470,96.0615
89.9470,96.0615
90.2018,96.0615
90.2019,96.0615
90.4539,96.0235
90.4869,96.0133
90.6974,95.9484
90.6974,95.9484
90.6974,95.9484
90.9271,95.8378
91.1376,95.6942
91.3245,95.5209
91.4834,95.3216
91.6108,95.1009
91.7039,94.8636
91.7606,94.6152
91.7797,94.3610
91.7797,94.3610
170.4108,94.3610
170.4299,94.6152
170.4866,94.8636
170.5797,95.1009
170.5797,95.1009
170.7071,95.3216
170.7071,95.3216
170.7071,95.3216
170.7488,95.3738
170.8660,95.5209
171.0038,95.6487
171.0529,95.6942
171.0529,95.6942
171.2634,95.8378
171.2634,95.8378
171.2634,95.8378
171.3958,95.9016
171.4931,95.9484
171.4931,95.9484
171.7366,96.0235
171.7366,96.0235
171.7366,96.0235
171.9886,96.0615
171.9887,96.0615
172.2435,96.0615
172.2435,96.0615
172.4955,96.0235
172.5286,96.0133
172.7391,95.9484
172.7391,95.9484
172.7391,95.9484
172.9687,95.8378
173.1793,95.6942
173.3661,95.5209
173.5250,95.3216
173.6525,95.1009
173.7456,94.8636
173.8023,94.6152
173.8214,94.3610
252.4525,94.3610
252.4715,94.6152
252.5282,94.8636
252.6214,95.1009
252.6214,95.1009
252.7488,95.3216
252.7488,95.3216
252.7488,95.3216
252.7904,95.3738
252.9077,95.5209
253.0455,95.6487
253.0945,95.6942
253.0945,95.6942
253.3051,95.8378
253.3051,95.8378
253.3051,95.8378
253.4375,95.9016
253.5347,95.9484
253.5348,95.9484
253.7783,96.0235
253.7783,96.0235
253.7783,96.0235
254.0303,96.0615
254.0303,96.0615
254.2852,96.0615
254.2852,96.0615
254.5372,96.0235
254.5702,96.0133
254.7807,95.9484
254.7807,95.9484
254.7808,95.9484
255.0104,95.8378
255.2210,95.6942
255.4078,95.5209
255.5667,95.3216
255.6941,95.1009
255.7873,94.8636
255.8440,94.6152
255.8630,94.3610
255.8440,94.1068
255.7873,93.8584
255.6941,93.6211
255.6941,93.6211
255.6941,93.6211
255.5667,93.4004
255.4078,93.2011
255.2210,93.0278
255.2210,93.0278
255.2210,93.0278
255.0104,92.8842
255.0104,92.8842
254.7808,92.7736
254.7807,92.7736
254.5372,92.6985
254.5372,92.6985
254.5372,92.6985
254.2852,92.6605
254.0303,92.6605
253.8203,92.6922
253.7783,92.6985
253.7783,92.6985
253.5348,92.7736
253.5347,92.7736
253.3051,92.8842
253.3051,92.8842
253.0945,93.0278
253.0945,93.0278
252.9077,93.2011
252.7488,93.4004
252.6214,93.6211
252.6214,93.6211
252.5282,93.8584
252.4715,94.1068
252.4525,94.3610
173.8214,94.3610
173.8023,94.1068
173.7456,93.8584
173.6525,93.6211
173.6525,93.6211
173.6525,93.6211
173.5250,93.4004
173.3661,93.2011
173.1793,93.0278
173.1793,93.0278
173.1793,93.0278
172.9687,92.8842
172.9687,92.8842
172.7391,92.7736
172.7391,92.7736
172.4956,92.6985
172.4955,92.6985
172.4955,92.6985
172.2435,92.6605
171.9886,92.6605
171.7786,92.6922
171.7366,92.6985
171.7366,92.6985
171.4931,92.7736
171.4931,92.7736
171.2634,92.8842
171.2634,92.8842
171.0529,93.0278
171.0529,93.0278
170.8660,93.2011
170.7071,93.4004
170.5797,93.6211
170.5797,93.6211
170.4866,93.8584
170.4299,94.1068
170.4108,94.3610
91.7797,94.3610
91.7606,94.1068
91.7039,93.8584
91.6108,93.6211
91.6108,93.6211
91.6108,93.6211
91.4834,93.4004
91.3245,93.2011
91.1376,93.0278
91.1376,93.0278
91.1376,93.0278
90.9271,92.8842
90.9271,92.8842
90.6974,92.7736
90.6974,92.7736
90.4539,92.6985
90.4539,92.6985
90.4539,92.6985
90.2019,92.6605
89.9470,92.6605
89.7370,92.6922
89.6950,92.6985
89.6949,92.6985
89.4514,92.7736
89.4514,92.7736
89.2218,92.8842
89.2218,92.8842
89.0112,93.0278
89.0112,93.0278
88.8244,93.2011
88.6655,93.4004
88.5380,93.6211
88.5380,93.6211
88.4449,93.8584
88.3882,94.1068
88.3691,94.3610
9.7380,94.3610
9.7190,94.1068
9.6623,93.8584
9.5691,93.6211
9.5691,93.6211
9.5691,93.6211
9.4417,93.4004
9.2828,93.2011
9.0960,93.0278
9.0960,93.0278
9.0960,93.0278
8.8854,92.8842
8.8854,92.8842
8.6558,92.7736
8.6557,92.7736
8.4122,92.6985
8.4122,92.6985
8.4122,92.6985
8.1602,92.6605
7.9053,92.6605
7.6953,92.6922
7.6533,92.6985
7.6533,92.6985
7.4098,92.7736
7.4097,92.7736
7.1801,92.8842
7.1801,92.8842
6.9695,93.0278
6.9695,93.0278
6.7827,93.2011
6.6238,93.4004
6.4964,93.6211
6.4964,93.6211
6.4032,93.8584
6.3465,94.1068
6.3275,94.3610
4.5333,94.3610
4.5332,94.3595
4.5332,10.1625
4.5333,10.1610
6.3275,10.1610
6.3465,10.4152
6.4032,10.6636
6.4964,10.9009
6.4964,10.9009
6.6238,11.1216
6.7827,11.3209
6.9205,11.4487
6.9695,11.4942
6.9695,11.4942
7.1801,11.6378
7.1801,11.6378
7.1801,11.6378
7.3125,11.7016
7.4097,11.7484
7.4098,11.7484
7.6533,11.8235
7.6533,11.8235
7.6533,11.8235
7.9053,11.8615
7.9053,11.8615
8.1602,11.8615
8.1602,11.8615
8.4122,11.8235
8.4122,11.8235
8.6557,11.7484
8.6557,11.7484
8.6558,11.7484
8.8854,11.6378
9.0960,11.4942
9.2828,11.3209
9.4417,11.1216
9.5691,10.9009
9.6623,10.6636
9.7190,10.4152
9.7380,10.1610
88.3691,10.1610
88.3739,10.2245
88.3882,10.4152
88.4449,10.6636
88.5380,10.9009
88.5380,10.9009
88.6655,11.1216
88.8244,11.3209
88.9622,11.4487
89.0112,11.4942
89.0112,11.4942
89.2218,11.6378
89.2218,11.6378
89.2218,11.6378
89.3542,11.7016
89.4514,11.7484
89.4514,11.7484
89.6949,11.8235
89.6950,11.8235
89.6950,11.8235
89.9470,11.8615
89.9470,11.8615
90.2018,11.8615
90.2019,11.8615
90.4539,11.8235
90.4539,11.8235
90.6974,11.7484
90.6974,11.7484
90.6974,11.7484
90.9271,11.6378
91.1376,11.4942
91.3245,11.3209
91.4834,11.1216
91.6108,10.9009
91.7039,10.6636
91.7606,10.4152
91.7797,10.1610
170.4108,10.1610
170.4156,10.2245
170.4299,10.4152
170.4866,10.6636
170.5797,10.9009
170.5797,10.9009
170.7071,11.1216
170.8660,11.3209
171.0038,11.4487
171.0529,11.4942
171.0529,11.4942
171.2634,11.6378
171.2634,11.6378
171.2634,11.6378
171.3958,11.7016
171.4931,11.7484
171.4931,11.7484
171.7366,11.8235
171.7366,11.8235
171.7366,11.8235
171.9886,11.8615
171.9887,11.8615
172.2435,11.8615
172.2435,11.8615
172.4955,11.8235
172.4956,11.8235
172.7391,11.7484
172.7391,11.7484
172.7391,11.7484
172.9687,11.6378
173.1793,11.4942
173.3661,11.3209
173.5250,11.1216
173.6525,10.9009
173.7456,10.6636
173.8023,10.4152
173.8214,10.1610
252.4525,10.1610
252.4715,10.4152
252.5282,10.6636
252.6214,10.9009
252.6214,10.9009
252.7488,11.1216
252.9077,11.3209
253.0455,11.4487
253.0945,11.4942
253.0945,11.4942
253.3051,11.6378
253.3051,11.6378
253.3051,11.6378
253.4375,11.7016
253.5347,11.7484
253.5348,11.7484
253.7783,11.8235
253.7783,11.8235
253.7783,11.8235
254.0303,11.8615
254.0303,11.8615
254.2852,11.8615
254.2852,11.8615
254.5372,11.8235
254.5372,11.8235
254.7807,11.7484
254.7807,11.7484
254.7808,11.7484
255.0104,11.6378
255.2210,11.4942
255.4078,11.3209
255.5667,11.1216
255.6941,10.9009
255.7873,10.6636
255.8440,10.4152
255.8630,10.1610
255.8440,9.9068
255.7873,9.6584
255.6941,9.4211
255.6941,9.4211
255.6941,9.4211
255.5667,9.2004
255.5227,9.1452
255.4078,9.0011
255.4078,9.0011
255.4078,9.0011
255.2210,8.8278
255.2210,8.8278
255.2210,8.8278
255.0104,8.6842
255.0104,8.6842
254.7808,8.5736
254.7807,8.5736
254.5372,8.4985
254.5372,8.4985
254.5372,8.4985
254.2852,8.4605
254.0303,8.4605
253.8203,8.4922
253.7783,8.4985
253.7783,8.4985
253.5348,8.5736
253.5347,8.5736
253.3051,8.6842
253.3051,8.6842
253.0945,8.8278
253.0945,8.8278
252.9077,9.0011
252.7488,9.2004
252.6214,9.4211
252.6214,9.4211
252.5282,9.6584
252.4715,9.9068
252.4525,10.1610
173.8214,10.1610
173.8023,9.9068
173.7456,9.6584
173.6525,9.4211
173.6525,9.4211
173.6525,9.4211
173.5250,9.2004
173.4810,9.1452
173.3661,9.0011
173.3661,9.0011
173.3661,9.0011
173.1793,8.8278
173.1793,8.8278
173.1793,8.8278
172.9687,8.6842
172.9687,8.6842
172.7391,8.5736
172.7391,8.5736
172.4956,8.4985
172.4955,8.4985
172.4955,8.4985
172.2435,8.4605
171.9886,8.4605
171.7786,8.4922
171.7366,8.4985
171.7366,8.4985
171.4931,8.5736
171.4931,8.5736
171.2634,8.6842
171.2634,8.6842
171.0529,8.8278
171.0529,8.8278
170.8660,9.0011
170.7071,9.2004
170.5797,9.4211
170.5797,9.4211
170.4866,9.6584
170.4299,9.9068
170.4135,10.1249
170.4108,10.1610
91.7797,10.1610
91.7606,9.9068
91.7039,9.6584
91.6108,9.4211
91.6108,9.4211
91.6108,9.4211
91.4834,9.2004
91.4393,9.1452
91.3245,9.0011
91.3245,9.0011
91.3245,9.0011
91.1376,8.8278
91.1376,8.8278
91.1376,8.8278
90.9271,8.6842
90.9271,8.6842
90.6974,8.5736
90.6974,8.5736
90.4539,8.4985
90.4539,8.4985
90.2019,8.4605
89.9470,8.4605
89.7370,8.4922
89.6950,8.4985
89.6949,8.4985
89.4514,8.5736
89.4514,8.5736
89.2218,8.6842
89.2218,8.6842
89.0112,8.8278
89.0112,8.8278
88.8244,9.0011
88.6655,9.2004
88.5380,9.4211
88.5380,9.4211
88.4449,9.6584
88.3882,9.9068
88.3719,10.1249
88.3691,10.1610
9.7380,10.1610
9.7190,9.9068
9.6623,9.6584
9.5691,9.4211
9.5691,9.4211
9.5691,9.4211
9.4417,9.2004
9.3977,9.1452
9.2828,9.0011
9.2828,9.0011
9.2828,9.0011
9.0960,8.8278
9.0960,8.8278
9.0960,8.8278
8.8854,8.6842
8.8854,8.6842
8.6558,8.5736
8.6557,8.5736
8.4122,8.4985
8.4122,8.4985
8.4122,8.4985
8.1602,8.4605
7.9053,8.4605
7.6953,8.4922
7.6533,8.4985
7.6533,8.4985
7.4098,8.5736
7.4097,8.5736
7.1801,8.6842
7.1801,8.6842
6.9695,8.8278
6.9695,8.8278
6.7827,9.0011
6.6238,9.2004
6.4964,9.4211
6.4964,9.4211
6.4032,9.6584
6.3465,9.9068
6.3275,10.1610
4.5333,10.1610
4.5333,10.1594
4.5499,9.8211
4.5506,9.8149
4.6000,9.4813
4.6012,9.4753
4.6832,9.1481
4.6850,9.1422
4.7986,8.8247
4.8010,8.8190
4.9451,8.5141
4.9481,8.5087
4.9910,8.4371
5.1214,8.2194
5.1249,8.2143
5.3258,7.9434
5.3297,7.9386
5.5562,7.6888
5.5605,7.6844
5.8104,7.4579
5.8152,7.4540
6.0861,7.2531
6.0912,7.2497
6.3804,7.0763
6.3859,7.0734
6.5101,7.0147
6.6908,6.9292
6.6964,6.9268
7.0140,6.8132
7.0199,6.8114
7.1827,6.7707
7.3470,6.7295
7.3531,6.7283
7.6867,6.6788
7.6928,6.6782
8.0312,6.6616
8.0343,6.6615
8.0986,6.6615
254.1562,6.6615
Z" /> 
</g>
</g>
</g>
<g style="fill:#000000; fill-opacity:1.0000; 
stroke:#000000; stroke-width:0.0000; stroke-opacity:1; 
stroke-linecap:round; stroke-linejoin:round;">
</g>
<g style="fill:#FFFFFF; fill-opacity:1.0000; 
stroke:#FFFFFF; stroke-width:0.0000; stroke-opacity:1; 
stroke-linecap:round; stroke-linejoin:round;">
</g>
<g style="fill:#3D3D3D; fill-opacity:1.0000; 
stroke:#3D3D3D; stroke-width:0.0000; stroke-opacity:1; 
stroke-linecap:round; stroke-linejoin:round;">
</g>
<g style="fill:#3D3D3D; fill-opacity:1.0000; 
stroke:#3D3D3D; stroke-width:0.1500; stroke-opacity:1; 
stroke-linecap:round; stroke-linejoin:round;">
</g>
<g style="fill:#3D3D3D; fill-opacity:0.0; 
stroke:#3D3D3D; stroke-width:0.1500; stroke-opacity:1; 
stroke-linecap:round; stroke-linejoin:round;">
<text x="3.9688" y="99.4250"
textLength="1.9643" font-size="1.3333" lengthAdjust="spacingAndGlyphs"
text-anchor="middle" opacity="0">J1</text>
<g class="stroked-text"><desc>J1</desc>
<path d="M3.6354 98.3798
L3.6354 99.0941
" />
<path d="M3.6354 99.0941
L3.5878 99.2370
" />
<path d="M3.5878 99.2370
L3.4926 99.3322
" />
<path d="M3.4926 99.3322
L3.3497 99.3798
" />
<path d="M3.3497 99.3798
L3.2545 99.3798
" />
<path d="M4.6354 99.3798
L4.0640 99.3798
" />
<path d="M4.3497 99.3798
L4.3497 98.3798
" />
<path d="M4.3497 98.3798
L4.2545 98.5227
" />
<path d="M4.2545 98.5227
L4.1592 98.6179
" />
<path d="M4.1592 98.6179
L4.0640 98.6655
" />
</g><g >
</g>
<g >
</g>
<g >
</g>
<g >
</g>
<g >
</g>
<g >
</g>
</g>
<g style="fill:#FFFFFF; fill-opacity:0.0; 
stroke:#FFFFFF; stroke-width:0.1500; stroke-opacity:1; 
stroke-linecap:round; stroke-linejoin:round;">
</g>
<g style="fill:#2F2D31; fill-opacity:0.0; 
stroke:#2F2D31; stroke-width:0.1500; stroke-opacity:1; 
stroke-linecap:round; stroke-linejoin:round;">
</g>
<g style="fill:#2F2D31; fill-opacity:0.0; 
stroke:#2F2D31; stroke-width:0.2000; stroke-opacity:1; 
stroke-linecap:round; stroke-linejoin:round;">
<path d="M4.0328 94.3610
L4.0328 10.1610
" />
<path d="M8.0328 6.1610
L254.1577 6.1610
" />
<path d="M254.1577 98.3610
L8.0328 98.3610
" />
<path d="M258.1577 10.1610
L258.1577 94.3610
" />
<path d="M8.0328 6.1610 A4.0000 4.0000 0.0 0 0 4.0328 10.1610" />
<path d="M4.0328 94.3610 A4.0000 4.0000 0.0 0 0 8.0328 98.3610" />
<path d="M258.1577 10.1610 A4.0000 4.0000 0.0 0 0 254.1577 6.1610" />
<path d="M254.1577 98.3610 A4.0000 4.0000 0.0 0 0 258.1577 94.3610" />
<circle cx="8.0328" cy="10.1610" r="1.2000" /> 
<circle cx="8.0328" cy="94.3610" r="1.2000" /> 
<circle cx="90.0744" cy="10.1610" r="1.2000" /> 
<circle cx="90.0744" cy="94.3610" r="1.2000" /> 
<circle cx="172.1161" cy="10.1610" r="1.2000" /> 
<circle cx="172.1161" cy="94.3610" r="1.2000" /> 
<circle cx="254.1577" cy="10.1610" r="1.2000" /> 
<circle cx="254.1577" cy="94.3610" r="1.2000" /> 
<g >
</g>
<g >
</g>
<g >
</g>
<g >
</g>
<g >
</g>
<g >
</g>
</g> 
</svg>
