<?xml version="1.0" standalone="no"?>
 <!DOCTYPE svg PUBLIC "-//W3C//DTD SVG 1.1//EN" 
 "http://www.w3.org/Graphics/SVG/1.1/DTD/svg11.dtd"> 
<svg
  xmlns:svg="http://www.w3.org/2000/svg"
  xmlns="http://www.w3.org/2000/svg"
  xmlns:xlink="http://www.w3.org/1999/xlink"
  version="1.1"
  width="11.9634mm" height="13.5890mm" viewBox="0.0000 0.0000 11.9634 13.5890">
<title>SVG Image created as working-brd.svg date 2023/09/12 05:56:45 </title>
  <desc>Image generated by PCBNEW </desc>
<g style="fill:#000000; fill-opacity:1.0000;stroke:#000000; stroke-opacity:1.0000;
stroke-linecap:round; stroke-linejoin:round;"
 transform="translate(0 0) scale(1 1)">
</g>
<g style="fill:#000000; fill-opacity:0.0; 
stroke:#000000; stroke-width:0.0000; stroke-opacity:1; 
stroke-linecap:round; stroke-linejoin:round;">
</g>
<g style="fill:#000000; fill-opacity:1.0000; 
stroke:#000000; stroke-width:0.0212; stroke-opacity:1; 
stroke-linecap:round; stroke-linejoin:round;">
<rect x="-5.000000" y="-5.000000" width="21.964286" height="23.598250" rx="0.000000" />
</g>
<g style="fill:#FFFFFF; fill-opacity:1.0000; 
stroke:#FFFFFF; stroke-width:0.0212; stroke-opacity:1; 
stroke-linecap:round; stroke-linejoin:round;">
<g >
</g>
<g >
</g>
<g >
</g>
<g >
</g>
<g >
</g>
<g >
</g>
<g >
</g>
<g >
</g>
<g >
</g>
<g >
</g>
</g>
<g style="fill:#FFFFFF; fill-opacity:1.0000; 
stroke:#FFFFFF; stroke-width:0.0212; stroke-opacity:1; 
stroke-linecap:round; stroke-linejoin:round;">
<g >
</g>
<g >
</g>
<g >
</g>
<g >
</g>
<g >
</g>
<g >
</g>
<g >
</g>
<g >
</g>
<g >
</g>
<g >
</g>
</g>
<g style="fill:#FFFFFF; fill-opacity:1.0000; 
stroke:#FFFFFF; stroke-width:0.0212; stroke-opacity:1; 
stroke-linecap:round; stroke-linejoin:round;">
<g >
</g>
<g >
</g>
<g >
</g>
<g >
</g>
<g >
</g>
<g >
</g>
<g >
</g>
<g >
</g>
<g >
</g>
<g >
</g>
</g>
<g style="fill:#FFFFFF; fill-opacity:1.0000; 
stroke:#FFFFFF; stroke-width:0.0212; stroke-opacity:1; 
stroke-linecap:round; stroke-linejoin:round;">
<g >
</g>
<g >
</g>
<g >
</g>
<g >
</g>
<g >
</g>
<g >
</g>
<g >
</g>
<g >
</g>
<g >
</g>
<g >
</g>
</g>
<g style="fill:#000000; fill-opacity:1.0000; 
stroke:#000000; stroke-width:0.0212; stroke-opacity:1; 
stroke-linecap:round; stroke-linejoin:round;">
</g>
<g style="fill:#000000; fill-opacity:1.0000; 
stroke:#000000; stroke-width:0.0000; stroke-opacity:1; 
stroke-linecap:round; stroke-linejoin:round;">
<circle cx="10.4821" cy="4.7982" r="0.2500" /> 
</g>
<g style="fill:#000000; fill-opacity:1.0000; 
stroke:#000000; stroke-width:0.0212; stroke-opacity:1; 
stroke-linecap:round; stroke-linejoin:round;">
</g>
<g style="fill:#000000; fill-opacity:1.0000; 
stroke:#000000; stroke-width:0.0000; stroke-opacity:1; 
stroke-linecap:round; stroke-linejoin:round;">
<circle cx="1.4821" cy="4.7982" r="0.2500" /> 
</g>
<g style="fill:#000000; fill-opacity:1.0000; 
stroke:#000000; stroke-width:0.0212; stroke-opacity:1; 
stroke-linecap:round; stroke-linejoin:round;">
</g>
<g style="fill:#000000; fill-opacity:1.0000; 
stroke:#000000; stroke-width:0.0000; stroke-opacity:1; 
stroke-linecap:round; stroke-linejoin:round;">
<circle cx="10.4821" cy="2.2982" r="0.2500" /> 
</g>
<g style="fill:#000000; fill-opacity:1.0000; 
stroke:#000000; stroke-width:0.0212; stroke-opacity:1; 
stroke-linecap:round; stroke-linejoin:round;">
</g>
<g style="fill:#000000; fill-opacity:1.0000; 
stroke:#000000; stroke-width:0.0000; stroke-opacity:1; 
stroke-linecap:round; stroke-linejoin:round;">
<circle cx="1.4821" cy="2.2982" r="0.2500" /> 
</g>
<g style="fill:#000000; fill-opacity:1.0000; 
stroke:#000000; stroke-width:0.0212; stroke-opacity:1; 
stroke-linecap:round; stroke-linejoin:round;">
</g>
<g style="fill:#000000; fill-opacity:1.0000; 
stroke:#000000; stroke-width:0.0000; stroke-opacity:1; 
stroke-linecap:round; stroke-linejoin:round;">
<circle cx="1.4821" cy="7.3982" r="0.2500" /> 
</g>
<g style="fill:#000000; fill-opacity:1.0000; 
stroke:#000000; stroke-width:0.0212; stroke-opacity:1; 
stroke-linecap:round; stroke-linejoin:round;">
</g>
<g style="fill:#000000; fill-opacity:1.0000; 
stroke:#000000; stroke-width:0.0000; stroke-opacity:1; 
stroke-linecap:round; stroke-linejoin:round;">
<circle cx="10.4821" cy="7.3982" r="0.2500" /> 
</g>
<g style="fill:#000000; fill-opacity:1.0000; 
stroke:#000000; stroke-width:0.0212; stroke-opacity:1; 
stroke-linecap:round; stroke-linejoin:round;">
</g>
<g style="fill:#FFFFFF; fill-opacity:1.0000; 
stroke:#FFFFFF; stroke-width:0.0212; stroke-opacity:1; 
stroke-linecap:round; stroke-linejoin:round;">
<g >
</g>
<g >
</g>
<g >
</g>
<g >
</g>
<g >
</g>
<g >
</g>
<g >
</g>
<g >
</g>
<g >
</g>
<g >
</g>
</g>
<g style="fill:#FFFFFF; fill-opacity:1.0000; 
stroke:#FFFFFF; stroke-width:0.0212; stroke-opacity:1; 
stroke-linecap:round; stroke-linejoin:round;">
<g >
</g>
<g style="fill:#FD0010; fill-opacity:0.4000; 
stroke:#FD0010; stroke-width:0.0212; stroke-opacity:1; 
stroke-linecap:round; stroke-linejoin:round;">
</g>
<g style="fill:#FD0010; fill-opacity:0.4000; 
stroke:#FD0010; stroke-width:0.0000; stroke-opacity:1; 
stroke-linecap:round; stroke-linejoin:round;">
<path style="fill:#FD0010; fill-opacity:0.4000; 
stroke:#FD0010; stroke-width:0.0000; stroke-opacity:1; 
stroke-linecap:round; stroke-linejoin:round;fill-rule:evenodd;"
d="M 9.9821,5.2982
9.9821,4.2982
10.9821,4.2982
10.9821,5.2982
Z" /> 
</g>
<g >
</g>
<g style="fill:#FD0010; fill-opacity:0.4000; 
stroke:#FD0010; stroke-width:0.0000; stroke-opacity:1; 
stroke-linecap:round; stroke-linejoin:round;">
<path style="fill:#FD0010; fill-opacity:0.4000; 
stroke:#FD0010; stroke-width:0.0000; stroke-opacity:1; 
stroke-linecap:round; stroke-linejoin:round;fill-rule:evenodd;"
d="M 0.9821,5.2982
0.9821,4.2982
1.9821,4.2982
1.9821,5.2982
Z" /> 
</g>
<g >
</g>
<g style="fill:#FD0010; fill-opacity:0.4000; 
stroke:#FD0010; stroke-width:0.0000; stroke-opacity:1; 
stroke-linecap:round; stroke-linejoin:round;">
<path style="fill:#FD0010; fill-opacity:0.4000; 
stroke:#FD0010; stroke-width:0.0000; stroke-opacity:1; 
stroke-linecap:round; stroke-linejoin:round;fill-rule:evenodd;"
d="M 9.9821,2.7982
9.9821,1.7982
10.9821,1.7982
10.9821,2.7982
Z" /> 
</g>
<g >
</g>
<g style="fill:#FD0010; fill-opacity:0.4000; 
stroke:#FD0010; stroke-width:0.0000; stroke-opacity:1; 
stroke-linecap:round; stroke-linejoin:round;">
<path style="fill:#FD0010; fill-opacity:0.4000; 
stroke:#FD0010; stroke-width:0.0000; stroke-opacity:1; 
stroke-linecap:round; stroke-linejoin:round;fill-rule:evenodd;"
d="M 0.9821,2.7982
0.9821,1.7982
1.9821,1.7982
1.9821,2.7982
Z" /> 
</g>
<g >
</g>
<g >
</g>
<g style="fill:#FD0010; fill-opacity:0.4000; 
stroke:#FD0010; stroke-width:0.0000; stroke-opacity:1; 
stroke-linecap:round; stroke-linejoin:round;">
<path style="fill:#FD0010; fill-opacity:0.4000; 
stroke:#FD0010; stroke-width:0.0000; stroke-opacity:1; 
stroke-linecap:round; stroke-linejoin:round;fill-rule:evenodd;"
d="M 0.9821,7.8982
0.9821,6.8982
1.9821,6.8982
1.9821,7.8982
Z" /> 
</g>
<g >
</g>
<g style="fill:#FD0010; fill-opacity:0.4000; 
stroke:#FD0010; stroke-width:0.0000; stroke-opacity:1; 
stroke-linecap:round; stroke-linejoin:round;">
<path style="fill:#FD0010; fill-opacity:0.4000; 
stroke:#FD0010; stroke-width:0.0000; stroke-opacity:1; 
stroke-linecap:round; stroke-linejoin:round;fill-rule:evenodd;"
d="M 9.9821,7.8982
9.9821,6.8982
10.9821,6.8982
10.9821,7.8982
Z" /> 
</g>
<g >
</g>
<g >
</g>
<g >
</g>
</g>
<g style="fill:#FFFFFF; fill-opacity:1.0000; 
stroke:#FFFFFF; stroke-width:0.0000; stroke-opacity:1; 
stroke-linecap:round; stroke-linejoin:round;">
<g >
</g>
<g style="fill:#B2803A; fill-opacity:1.0000; 
stroke:#B2803A; stroke-width:0.0000; stroke-opacity:1; 
stroke-linecap:round; stroke-linejoin:round;">
<path style="fill:#B2803A; fill-opacity:1.0000; 
stroke:#B2803A; stroke-width:0.0000; stroke-opacity:1; 
stroke-linecap:round; stroke-linejoin:round;fill-rule:evenodd;"
d="M 9.9821,5.2982
9.9821,4.2982
10.9821,4.2982
10.9821,5.2982
Z" /> 
</g>
<g >
</g>
<g style="fill:#B2803A; fill-opacity:1.0000; 
stroke:#B2803A; stroke-width:0.0000; stroke-opacity:1; 
stroke-linecap:round; stroke-linejoin:round;">
<path style="fill:#B2803A; fill-opacity:1.0000; 
stroke:#B2803A; stroke-width:0.0000; stroke-opacity:1; 
stroke-linecap:round; stroke-linejoin:round;fill-rule:evenodd;"
d="M 0.9821,5.2982
0.9821,4.2982
1.9821,4.2982
1.9821,5.2982
Z" /> 
</g>
<g >
</g>
<g style="fill:#B2803A; fill-opacity:1.0000; 
stroke:#B2803A; stroke-width:0.0000; stroke-opacity:1; 
stroke-linecap:round; stroke-linejoin:round;">
<path style="fill:#B2803A; fill-opacity:1.0000; 
stroke:#B2803A; stroke-width:0.0000; stroke-opacity:1; 
stroke-linecap:round; stroke-linejoin:round;fill-rule:evenodd;"
d="M 9.9821,2.7982
9.9821,1.7982
10.9821,1.7982
10.9821,2.7982
Z" /> 
</g>
<g >
</g>
<g style="fill:#B2803A; fill-opacity:1.0000; 
stroke:#B2803A; stroke-width:0.0000; stroke-opacity:1; 
stroke-linecap:round; stroke-linejoin:round;">
<path style="fill:#B2803A; fill-opacity:1.0000; 
stroke:#B2803A; stroke-width:0.0000; stroke-opacity:1; 
stroke-linecap:round; stroke-linejoin:round;fill-rule:evenodd;"
d="M 0.9821,2.7982
0.9821,1.7982
1.9821,1.7982
1.9821,2.7982
Z" /> 
</g>
<g >
</g>
<g >
</g>
<g style="fill:#B2803A; fill-opacity:1.0000; 
stroke:#B2803A; stroke-width:0.0000; stroke-opacity:1; 
stroke-linecap:round; stroke-linejoin:round;">
<path style="fill:#B2803A; fill-opacity:1.0000; 
stroke:#B2803A; stroke-width:0.0000; stroke-opacity:1; 
stroke-linecap:round; stroke-linejoin:round;fill-rule:evenodd;"
d="M 0.9821,7.8982
0.9821,6.8982
1.9821,6.8982
1.9821,7.8982
Z" /> 
</g>
<g >
</g>
<g style="fill:#B2803A; fill-opacity:1.0000; 
stroke:#B2803A; stroke-width:0.0000; stroke-opacity:1; 
stroke-linecap:round; stroke-linejoin:round;">
<path style="fill:#B2803A; fill-opacity:1.0000; 
stroke:#B2803A; stroke-width:0.0000; stroke-opacity:1; 
stroke-linecap:round; stroke-linejoin:round;fill-rule:evenodd;"
d="M 9.9821,7.8982
9.9821,6.8982
10.9821,6.8982
10.9821,7.8982
Z" /> 
</g>
<g >
</g>
<g >
</g>
<g >
</g>
</g>
<g style="fill:#000000; fill-opacity:1.0000; 
stroke:#000000; stroke-width:0.0000; stroke-opacity:1; 
stroke-linecap:round; stroke-linejoin:round;">
<circle cx="10.4821" cy="4.7982" r="0.2500" /> 
</g>
<g style="fill:#000000; fill-opacity:1.0000; 
stroke:#000000; stroke-width:0.0212; stroke-opacity:1; 
stroke-linecap:round; stroke-linejoin:round;">
</g>
<g style="fill:#000000; fill-opacity:1.0000; 
stroke:#000000; stroke-width:0.0000; stroke-opacity:1; 
stroke-linecap:round; stroke-linejoin:round;">
<circle cx="1.4821" cy="4.7982" r="0.2500" /> 
</g>
<g style="fill:#000000; fill-opacity:1.0000; 
stroke:#000000; stroke-width:0.0212; stroke-opacity:1; 
stroke-linecap:round; stroke-linejoin:round;">
</g>
<g style="fill:#000000; fill-opacity:1.0000; 
stroke:#000000; stroke-width:0.0000; stroke-opacity:1; 
stroke-linecap:round; stroke-linejoin:round;">
<circle cx="10.4821" cy="2.2982" r="0.2500" /> 
</g>
<g style="fill:#000000; fill-opacity:1.0000; 
stroke:#000000; stroke-width:0.0212; stroke-opacity:1; 
stroke-linecap:round; stroke-linejoin:round;">
</g>
<g style="fill:#000000; fill-opacity:1.0000; 
stroke:#000000; stroke-width:0.0000; stroke-opacity:1; 
stroke-linecap:round; stroke-linejoin:round;">
<circle cx="1.4821" cy="2.2982" r="0.2500" /> 
</g>
<g style="fill:#000000; fill-opacity:1.0000; 
stroke:#000000; stroke-width:0.0212; stroke-opacity:1; 
stroke-linecap:round; stroke-linejoin:round;">
</g>
<g style="fill:#000000; fill-opacity:1.0000; 
stroke:#000000; stroke-width:0.0000; stroke-opacity:1; 
stroke-linecap:round; stroke-linejoin:round;">
<circle cx="1.4821" cy="7.3982" r="0.2500" /> 
</g>
<g style="fill:#000000; fill-opacity:1.0000; 
stroke:#000000; stroke-width:0.0212; stroke-opacity:1; 
stroke-linecap:round; stroke-linejoin:round;">
</g>
<g style="fill:#000000; fill-opacity:1.0000; 
stroke:#000000; stroke-width:0.0000; stroke-opacity:1; 
stroke-linecap:round; stroke-linejoin:round;">
<circle cx="10.4821" cy="7.3982" r="0.2500" /> 
</g>
<g style="fill:#000000; fill-opacity:1.0000; 
stroke:#000000; stroke-width:0.0212; stroke-opacity:1; 
stroke-linecap:round; stroke-linejoin:round;">
</g>
<g style="fill:#FFFFFF; fill-opacity:1.0000; 
stroke:#FFFFFF; stroke-width:0.0212; stroke-opacity:1; 
stroke-linecap:round; stroke-linejoin:round;">
<g >
</g>
<g style="fill:#37CBCB; fill-opacity:1.0000; 
stroke:#37CBCB; stroke-width:0.0212; stroke-opacity:1; 
stroke-linecap:round; stroke-linejoin:round;">
</g>
<g style="fill:#37CBCB; fill-opacity:1.0000; 
stroke:#37CBCB; stroke-width:0.0000; stroke-opacity:1; 
stroke-linecap:round; stroke-linejoin:round;">
<path style="fill:#37CBCB; fill-opacity:1.0000; 
stroke:#37CBCB; stroke-width:0.0000; stroke-opacity:1; 
stroke-linecap:round; stroke-linejoin:round;fill-rule:evenodd;"
d="M 9.9821,5.2982
9.9821,4.2982
10.9821,4.2982
10.9821,5.2982
Z" /> 
</g>
<g >
</g>
<g style="fill:#37CBCB; fill-opacity:1.0000; 
stroke:#37CBCB; stroke-width:0.0000; stroke-opacity:1; 
stroke-linecap:round; stroke-linejoin:round;">
<path style="fill:#37CBCB; fill-opacity:1.0000; 
stroke:#37CBCB; stroke-width:0.0000; stroke-opacity:1; 
stroke-linecap:round; stroke-linejoin:round;fill-rule:evenodd;"
d="M 0.9821,5.2982
0.9821,4.2982
1.9821,4.2982
1.9821,5.2982
Z" /> 
</g>
<g >
</g>
<g style="fill:#37CBCB; fill-opacity:1.0000; 
stroke:#37CBCB; stroke-width:0.0000; stroke-opacity:1; 
stroke-linecap:round; stroke-linejoin:round;">
<path style="fill:#37CBCB; fill-opacity:1.0000; 
stroke:#37CBCB; stroke-width:0.0000; stroke-opacity:1; 
stroke-linecap:round; stroke-linejoin:round;fill-rule:evenodd;"
d="M 9.9821,2.7982
9.9821,1.7982
10.9821,1.7982
10.9821,2.7982
Z" /> 
</g>
<g >
</g>
<g style="fill:#37CBCB; fill-opacity:1.0000; 
stroke:#37CBCB; stroke-width:0.0000; stroke-opacity:1; 
stroke-linecap:round; stroke-linejoin:round;">
<path style="fill:#37CBCB; fill-opacity:1.0000; 
stroke:#37CBCB; stroke-width:0.0000; stroke-opacity:1; 
stroke-linecap:round; stroke-linejoin:round;fill-rule:evenodd;"
d="M 0.9821,2.7982
0.9821,1.7982
1.9821,1.7982
1.9821,2.7982
Z" /> 
</g>
<g >
</g>
<g style="fill:#37CBCB; fill-opacity:1.0000; 
stroke:#37CBCB; stroke-width:0.0000; stroke-opacity:1; 
stroke-linecap:round; stroke-linejoin:round;">
<path style="fill:#37CBCB; fill-opacity:1.0000; 
stroke:#37CBCB; stroke-width:0.0000; stroke-opacity:1; 
stroke-linecap:round; stroke-linejoin:round;fill-rule:evenodd;"
d="M 3.0671,3.2607
2.9601,3.2452
2.8492,3.1909
2.7619,3.1037
2.7077,2.9928
2.6921,2.8857
2.6921,2.1357
2.7077,2.0287
2.7619,1.9178
2.8492,1.8306
2.9601,1.7763
3.0671,1.7607
3.8171,1.7607
3.9241,1.7763
4.0350,1.8306
4.1223,1.9178
4.1766,2.0287
4.1921,2.1357
4.1921,2.8857
4.1766,2.9928
4.1223,3.1037
4.0350,3.1909
3.9241,3.2452
3.8171,3.2607
Z" /> 
<path style="fill:#37CBCB; fill-opacity:1.0000; 
stroke:#37CBCB; stroke-width:0.0000; stroke-opacity:1; 
stroke-linecap:round; stroke-linejoin:round;fill-rule:evenodd;"
d="M 5.6071,3.2607
5.5001,3.2452
5.3892,3.1909
5.3019,3.1037
5.2477,2.9928
5.2321,2.8857
5.2321,2.1357
5.2477,2.0287
5.3019,1.9178
5.3892,1.8306
5.5001,1.7763
5.6071,1.7607
6.3571,1.7607
6.4641,1.7763
6.5750,1.8306
6.6623,1.9178
6.7166,2.0287
6.7321,2.1357
6.7321,2.8857
6.7166,2.9928
6.6623,3.1037
6.5750,3.1909
6.4641,3.2452
6.3571,3.2607
Z" /> 
<path style="fill:#37CBCB; fill-opacity:1.0000; 
stroke:#37CBCB; stroke-width:0.0000; stroke-opacity:1; 
stroke-linecap:round; stroke-linejoin:round;fill-rule:evenodd;"
d="M 8.1471,3.2607
8.0401,3.2452
7.9292,3.1909
7.8419,3.1037
7.7877,2.9928
7.7721,2.8857
7.7721,2.1357
7.7877,2.0287
7.8419,1.9178
7.9292,1.8306
8.0401,1.7763
8.1471,1.7607
8.8971,1.7607
9.0041,1.7763
9.1150,1.8306
9.2023,1.9178
9.2566,2.0287
9.2721,2.1357
9.2721,2.8857
9.2566,2.9928
9.2023,3.1037
9.1150,3.1909
9.0041,3.2452
8.8971,3.2607
Z" /> 
<path style="fill:#37CBCB; fill-opacity:1.0000; 
stroke:#37CBCB; stroke-width:0.0000; stroke-opacity:1; 
stroke-linecap:round; stroke-linejoin:round;fill-rule:evenodd;"
d="M 8.1471,13.2357
8.0401,13.2202
7.9292,13.1659
7.8419,13.0787
7.7877,12.9678
7.7721,12.8607
7.7721,12.1107
7.7877,12.0037
7.8419,11.8928
7.9292,11.8056
8.0401,11.7513
8.1471,11.7357
8.8971,11.7357
9.0041,11.7513
9.1150,11.8056
9.2023,11.8928
9.2566,12.0037
9.2721,12.1107
9.2721,12.8607
9.2566,12.9678
9.2023,13.0787
9.1150,13.1659
9.0041,13.2202
8.8971,13.2357
Z" /> 
<path style="fill:#37CBCB; fill-opacity:1.0000; 
stroke:#37CBCB; stroke-width:0.0000; stroke-opacity:1; 
stroke-linecap:round; stroke-linejoin:round;fill-rule:evenodd;"
d="M 5.6071,13.2357
5.5001,13.2202
5.3892,13.1659
5.3019,13.0787
5.2477,12.9678
5.2321,12.8607
5.2321,12.1107
5.2477,12.0037
5.3019,11.8928
5.3892,11.8056
5.5001,11.7513
5.6071,11.7357
6.3571,11.7357
6.4641,11.7513
6.5750,11.8056
6.6623,11.8928
6.7166,12.0037
6.7321,12.1107
6.7321,12.8607
6.7166,12.9678
6.6623,13.0787
6.5750,13.1659
6.4641,13.2202
6.3571,13.2357
Z" /> 
<path style="fill:#37CBCB; fill-opacity:1.0000; 
stroke:#37CBCB; stroke-width:0.0000; stroke-opacity:1; 
stroke-linecap:round; stroke-linejoin:round;fill-rule:evenodd;"
d="M 3.0671,13.2357
2.9601,13.2202
2.8492,13.1659
2.7619,13.0787
2.7077,12.9678
2.6921,12.8607
2.6921,12.1107
2.7077,12.0037
2.7619,11.8928
2.8492,11.8056
2.9601,11.7513
3.0671,11.7357
3.8171,11.7357
3.9241,11.7513
4.0350,11.8056
4.1223,11.8928
4.1766,12.0037
4.1921,12.1107
4.1921,12.8607
4.1766,12.9678
4.1223,13.0787
4.0350,13.1659
3.9241,13.2202
3.8171,13.2357
Z" /> 
</g>
<g >
</g>
<g style="fill:#37CBCB; fill-opacity:1.0000; 
stroke:#37CBCB; stroke-width:0.0000; stroke-opacity:1; 
stroke-linecap:round; stroke-linejoin:round;">
<path style="fill:#37CBCB; fill-opacity:1.0000; 
stroke:#37CBCB; stroke-width:0.0000; stroke-opacity:1; 
stroke-linecap:round; stroke-linejoin:round;fill-rule:evenodd;"
d="M 0.9821,7.8982
0.9821,6.8982
1.9821,6.8982
1.9821,7.8982
Z" /> 
</g>
<g >
</g>
<g style="fill:#37CBCB; fill-opacity:1.0000; 
stroke:#37CBCB; stroke-width:0.0000; stroke-opacity:1; 
stroke-linecap:round; stroke-linejoin:round;">
<path style="fill:#37CBCB; fill-opacity:1.0000; 
stroke:#37CBCB; stroke-width:0.0000; stroke-opacity:1; 
stroke-linecap:round; stroke-linejoin:round;fill-rule:evenodd;"
d="M 9.9821,7.8982
9.9821,6.8982
10.9821,6.8982
10.9821,7.8982
Z" /> 
</g>
<g >
</g>
<g >
</g>
<g style="fill:#37CBCB; fill-opacity:1.0000; 
stroke:#37CBCB; stroke-width:0.0000; stroke-opacity:1; 
stroke-linecap:round; stroke-linejoin:round;">
</g>
<g style="fill:#37CBCB; fill-opacity:1.0000; 
stroke:#37CBCB; stroke-width:0.2500; stroke-opacity:1; 
stroke-linecap:round; stroke-linejoin:round;">
</g>
<g style="fill:#37CBCB; fill-opacity:0.0; 
stroke:#37CBCB; stroke-width:0.2500; stroke-opacity:1; 
stroke-linecap:round; stroke-linejoin:round;">
<path d="M7.8821 9.7982
L10.2821 7.3982
" />
<path d="M7.8821 11.8457
L7.8821 9.7982
" />
<path d="M10.2821 7.3982
L10.3571 7.3982
" />
<path d="M8.5221 12.4857
L7.8821 11.8457
" />
<path d="M5.9821 9.1732
L10.3571 4.7982
" />
<path d="M5.9821 12.4857
L5.9821 9.1732
" />
<path d="M10.3571 2.6233
L10.3571 2.2982
" />
<path d="M3.4421 9.5382
L10.3571 2.6233
" />
<path d="M3.4421 12.4857
L3.4421 9.5382
" />
<path d="M1.6072 2.4233
L1.6072 2.2982
" />
<path d="M1.6946 2.5107
L1.6072 2.4233
" />
<path d="M3.4421 2.5107
L1.6946 2.5107
" />
<path d="M3.5821 5.5983
L2.4072 5.5983
" />
<path d="M2.4072 5.5983
L1.6072 4.7982
" />
<path d="M5.9821 3.1982
L3.5821 5.5983
" />
<path d="M5.9821 2.5107
L5.9821 3.1982
" />
<path d="M8.5221 2.5107
L3.6346 7.3982
" />
<path d="M3.6346 7.3982
L1.6072 7.3982
" />
</g>
<g >
</g>
</g>
<g style="fill:#000000; fill-opacity:0.0; 
stroke:#000000; stroke-width:0.2500; stroke-opacity:1; 
stroke-linecap:round; stroke-linejoin:round;">
</g>
<g style="fill:#000000; fill-opacity:1.0000; 
stroke:#000000; stroke-width:0.0000; stroke-opacity:1; 
stroke-linecap:round; stroke-linejoin:round;">
<circle cx="10.4821" cy="4.7982" r="0.2500" /> 
</g>
<g style="fill:#000000; fill-opacity:1.0000; 
stroke:#000000; stroke-width:0.0212; stroke-opacity:1; 
stroke-linecap:round; stroke-linejoin:round;">
</g>
<g style="fill:#000000; fill-opacity:1.0000; 
stroke:#000000; stroke-width:0.0000; stroke-opacity:1; 
stroke-linecap:round; stroke-linejoin:round;">
<circle cx="1.4821" cy="4.7982" r="0.2500" /> 
</g>
<g style="fill:#000000; fill-opacity:1.0000; 
stroke:#000000; stroke-width:0.0212; stroke-opacity:1; 
stroke-linecap:round; stroke-linejoin:round;">
</g>
<g style="fill:#000000; fill-opacity:1.0000; 
stroke:#000000; stroke-width:0.0000; stroke-opacity:1; 
stroke-linecap:round; stroke-linejoin:round;">
<circle cx="10.4821" cy="2.2982" r="0.2500" /> 
</g>
<g style="fill:#000000; fill-opacity:1.0000; 
stroke:#000000; stroke-width:0.0212; stroke-opacity:1; 
stroke-linecap:round; stroke-linejoin:round;">
</g>
<g style="fill:#000000; fill-opacity:1.0000; 
stroke:#000000; stroke-width:0.0000; stroke-opacity:1; 
stroke-linecap:round; stroke-linejoin:round;">
<circle cx="1.4821" cy="2.2982" r="0.2500" /> 
</g>
<g style="fill:#000000; fill-opacity:1.0000; 
stroke:#000000; stroke-width:0.0212; stroke-opacity:1; 
stroke-linecap:round; stroke-linejoin:round;">
</g>
<g style="fill:#000000; fill-opacity:1.0000; 
stroke:#000000; stroke-width:0.0000; stroke-opacity:1; 
stroke-linecap:round; stroke-linejoin:round;">
<circle cx="1.4821" cy="7.3982" r="0.2500" /> 
</g>
<g style="fill:#000000; fill-opacity:1.0000; 
stroke:#000000; stroke-width:0.0212; stroke-opacity:1; 
stroke-linecap:round; stroke-linejoin:round;">
</g>
<g style="fill:#000000; fill-opacity:1.0000; 
stroke:#000000; stroke-width:0.0000; stroke-opacity:1; 
stroke-linecap:round; stroke-linejoin:round;">
<circle cx="10.4821" cy="7.3982" r="0.2500" /> 
</g>
<g style="fill:#000000; fill-opacity:1.0000; 
stroke:#000000; stroke-width:0.0212; stroke-opacity:1; 
stroke-linecap:round; stroke-linejoin:round;">
</g>
<g style="fill:#FFFFFF; fill-opacity:1.0000; 
stroke:#FFFFFF; stroke-width:0.0212; stroke-opacity:1; 
stroke-linecap:round; stroke-linejoin:round;">
<g >
</g>
<g style="fill:#279B00; fill-opacity:0.4000; 
stroke:#279B00; stroke-width:0.0212; stroke-opacity:1; 
stroke-linecap:round; stroke-linejoin:round;">
</g>
<g style="fill:#279B00; fill-opacity:0.4000; 
stroke:#279B00; stroke-width:0.0000; stroke-opacity:1; 
stroke-linecap:round; stroke-linejoin:round;">
<path style="fill:#279B00; fill-opacity:0.4000; 
stroke:#279B00; stroke-width:0.0000; stroke-opacity:1; 
stroke-linecap:round; stroke-linejoin:round;fill-rule:evenodd;"
d="M 9.9821,5.2982
9.9821,4.2982
10.9821,4.2982
10.9821,5.2982
Z" /> 
</g>
<g >
</g>
<g style="fill:#279B00; fill-opacity:0.4000; 
stroke:#279B00; stroke-width:0.0000; stroke-opacity:1; 
stroke-linecap:round; stroke-linejoin:round;">
<path style="fill:#279B00; fill-opacity:0.4000; 
stroke:#279B00; stroke-width:0.0000; stroke-opacity:1; 
stroke-linecap:round; stroke-linejoin:round;fill-rule:evenodd;"
d="M 0.9821,5.2982
0.9821,4.2982
1.9821,4.2982
1.9821,5.2982
Z" /> 
</g>
<g >
</g>
<g style="fill:#279B00; fill-opacity:0.4000; 
stroke:#279B00; stroke-width:0.0000; stroke-opacity:1; 
stroke-linecap:round; stroke-linejoin:round;">
<path style="fill:#279B00; fill-opacity:0.4000; 
stroke:#279B00; stroke-width:0.0000; stroke-opacity:1; 
stroke-linecap:round; stroke-linejoin:round;fill-rule:evenodd;"
d="M 9.9821,2.7982
9.9821,1.7982
10.9821,1.7982
10.9821,2.7982
Z" /> 
</g>
<g >
</g>
<g style="fill:#279B00; fill-opacity:0.4000; 
stroke:#279B00; stroke-width:0.0000; stroke-opacity:1; 
stroke-linecap:round; stroke-linejoin:round;">
<path style="fill:#279B00; fill-opacity:0.4000; 
stroke:#279B00; stroke-width:0.0000; stroke-opacity:1; 
stroke-linecap:round; stroke-linejoin:round;fill-rule:evenodd;"
d="M 0.9821,2.7982
0.9821,1.7982
1.9821,1.7982
1.9821,2.7982
Z" /> 
</g>
<g >
</g>
<g style="fill:#279B00; fill-opacity:0.4000; 
stroke:#279B00; stroke-width:0.0000; stroke-opacity:1; 
stroke-linecap:round; stroke-linejoin:round;">
<path style="fill:#279B00; fill-opacity:0.4000; 
stroke:#279B00; stroke-width:0.0000; stroke-opacity:1; 
stroke-linecap:round; stroke-linejoin:round;fill-rule:evenodd;"
d="M 3.0671,3.2607
2.9601,3.2452
2.8492,3.1909
2.7619,3.1037
2.7077,2.9928
2.6921,2.8857
2.6921,2.1357
2.7077,2.0287
2.7619,1.9178
2.8492,1.8306
2.9601,1.7763
3.0671,1.7607
3.8171,1.7607
3.9241,1.7763
4.0350,1.8306
4.1223,1.9178
4.1766,2.0287
4.1921,2.1357
4.1921,2.8857
4.1766,2.9928
4.1223,3.1037
4.0350,3.1909
3.9241,3.2452
3.8171,3.2607
Z" /> 
<path style="fill:#279B00; fill-opacity:0.4000; 
stroke:#279B00; stroke-width:0.0000; stroke-opacity:1; 
stroke-linecap:round; stroke-linejoin:round;fill-rule:evenodd;"
d="M 5.6071,3.2607
5.5001,3.2452
5.3892,3.1909
5.3019,3.1037
5.2477,2.9928
5.2321,2.8857
5.2321,2.1357
5.2477,2.0287
5.3019,1.9178
5.3892,1.8306
5.5001,1.7763
5.6071,1.7607
6.3571,1.7607
6.4641,1.7763
6.5750,1.8306
6.6623,1.9178
6.7166,2.0287
6.7321,2.1357
6.7321,2.8857
6.7166,2.9928
6.6623,3.1037
6.5750,3.1909
6.4641,3.2452
6.3571,3.2607
Z" /> 
<path style="fill:#279B00; fill-opacity:0.4000; 
stroke:#279B00; stroke-width:0.0000; stroke-opacity:1; 
stroke-linecap:round; stroke-linejoin:round;fill-rule:evenodd;"
d="M 8.1471,3.2607
8.0401,3.2452
7.9292,3.1909
7.8419,3.1037
7.7877,2.9928
7.7721,2.8857
7.7721,2.1357
7.7877,2.0287
7.8419,1.9178
7.9292,1.8306
8.0401,1.7763
8.1471,1.7607
8.8971,1.7607
9.0041,1.7763
9.1150,1.8306
9.2023,1.9178
9.2566,2.0287
9.2721,2.1357
9.2721,2.8857
9.2566,2.9928
9.2023,3.1037
9.1150,3.1909
9.0041,3.2452
8.8971,3.2607
Z" /> 
<path style="fill:#279B00; fill-opacity:0.4000; 
stroke:#279B00; stroke-width:0.0000; stroke-opacity:1; 
stroke-linecap:round; stroke-linejoin:round;fill-rule:evenodd;"
d="M 8.1471,13.2357
8.0401,13.2202
7.9292,13.1659
7.8419,13.0787
7.7877,12.9678
7.7721,12.8607
7.7721,12.1107
7.7877,12.0037
7.8419,11.8928
7.9292,11.8056
8.0401,11.7513
8.1471,11.7357
8.8971,11.7357
9.0041,11.7513
9.1150,11.8056
9.2023,11.8928
9.2566,12.0037
9.2721,12.1107
9.2721,12.8607
9.2566,12.9678
9.2023,13.0787
9.1150,13.1659
9.0041,13.2202
8.8971,13.2357
Z" /> 
<path style="fill:#279B00; fill-opacity:0.4000; 
stroke:#279B00; stroke-width:0.0000; stroke-opacity:1; 
stroke-linecap:round; stroke-linejoin:round;fill-rule:evenodd;"
d="M 5.6071,13.2357
5.5001,13.2202
5.3892,13.1659
5.3019,13.0787
5.2477,12.9678
5.2321,12.8607
5.2321,12.1107
5.2477,12.0037
5.3019,11.8928
5.3892,11.8056
5.5001,11.7513
5.6071,11.7357
6.3571,11.7357
6.4641,11.7513
6.5750,11.8056
6.6623,11.8928
6.7166,12.0037
6.7321,12.1107
6.7321,12.8607
6.7166,12.9678
6.6623,13.0787
6.5750,13.1659
6.4641,13.2202
6.3571,13.2357
Z" /> 
<path style="fill:#279B00; fill-opacity:0.4000; 
stroke:#279B00; stroke-width:0.0000; stroke-opacity:1; 
stroke-linecap:round; stroke-linejoin:round;fill-rule:evenodd;"
d="M 3.0671,13.2357
2.9601,13.2202
2.8492,13.1659
2.7619,13.0787
2.7077,12.9678
2.6921,12.8607
2.6921,12.1107
2.7077,12.0037
2.7619,11.8928
2.8492,11.8056
2.9601,11.7513
3.0671,11.7357
3.8171,11.7357
3.9241,11.7513
4.0350,11.8056
4.1223,11.8928
4.1766,12.0037
4.1921,12.1107
4.1921,12.8607
4.1766,12.9678
4.1223,13.0787
4.0350,13.1659
3.9241,13.2202
3.8171,13.2357
Z" /> 
</g>
<g >
</g>
<g style="fill:#279B00; fill-opacity:0.4000; 
stroke:#279B00; stroke-width:0.0000; stroke-opacity:1; 
stroke-linecap:round; stroke-linejoin:round;">
<path style="fill:#279B00; fill-opacity:0.4000; 
stroke:#279B00; stroke-width:0.0000; stroke-opacity:1; 
stroke-linecap:round; stroke-linejoin:round;fill-rule:evenodd;"
d="M 0.9821,7.8982
0.9821,6.8982
1.9821,6.8982
1.9821,7.8982
Z" /> 
</g>
<g >
</g>
<g style="fill:#279B00; fill-opacity:0.4000; 
stroke:#279B00; stroke-width:0.0000; stroke-opacity:1; 
stroke-linecap:round; stroke-linejoin:round;">
<path style="fill:#279B00; fill-opacity:0.4000; 
stroke:#279B00; stroke-width:0.0000; stroke-opacity:1; 
stroke-linecap:round; stroke-linejoin:round;fill-rule:evenodd;"
d="M 9.9821,7.8982
9.9821,6.8982
10.9821,6.8982
10.9821,7.8982
Z" /> 
</g>
<g >
</g>
<g >
</g>
<g >
</g>
</g>
<g style="fill:#FFFFFF; fill-opacity:1.0000; 
stroke:#FFFFFF; stroke-width:0.0000; stroke-opacity:1; 
stroke-linecap:round; stroke-linejoin:round;">
<g >
</g>
<g >
</g>
<g >
</g>
<g >
</g>
<g >
</g>
<g style="fill:#4A5F65; fill-opacity:0.9000; 
stroke:#4A5F65; stroke-width:0.0000; stroke-opacity:1; 
stroke-linecap:round; stroke-linejoin:round;">
<path style="fill:#4A5F65; fill-opacity:0.9000; 
stroke:#4A5F65; stroke-width:0.0000; stroke-opacity:1; 
stroke-linecap:round; stroke-linejoin:round;fill-rule:evenodd;"
d="M 3.0671,3.2607
2.9601,3.2452
2.8492,3.1909
2.7619,3.1037
2.7077,2.9928
2.6921,2.8857
2.6921,2.1357
2.7077,2.0287
2.7619,1.9178
2.8492,1.8306
2.9601,1.7763
3.0671,1.7607
3.8171,1.7607
3.9241,1.7763
4.0350,1.8306
4.1223,1.9178
4.1766,2.0287
4.1921,2.1357
4.1921,2.8857
4.1766,2.9928
4.1223,3.1037
4.0350,3.1909
3.9241,3.2452
3.8171,3.2607
Z" /> 
<path style="fill:#4A5F65; fill-opacity:0.9000; 
stroke:#4A5F65; stroke-width:0.0000; stroke-opacity:1; 
stroke-linecap:round; stroke-linejoin:round;fill-rule:evenodd;"
d="M 5.6071,3.2607
5.5001,3.2452
5.3892,3.1909
5.3019,3.1037
5.2477,2.9928
5.2321,2.8857
5.2321,2.1357
5.2477,2.0287
5.3019,1.9178
5.3892,1.8306
5.5001,1.7763
5.6071,1.7607
6.3571,1.7607
6.4641,1.7763
6.5750,1.8306
6.6623,1.9178
6.7166,2.0287
6.7321,2.1357
6.7321,2.8857
6.7166,2.9928
6.6623,3.1037
6.5750,3.1909
6.4641,3.2452
6.3571,3.2607
Z" /> 
<path style="fill:#4A5F65; fill-opacity:0.9000; 
stroke:#4A5F65; stroke-width:0.0000; stroke-opacity:1; 
stroke-linecap:round; stroke-linejoin:round;fill-rule:evenodd;"
d="M 8.1471,3.2607
8.0401,3.2452
7.9292,3.1909
7.8419,3.1037
7.7877,2.9928
7.7721,2.8857
7.7721,2.1357
7.7877,2.0287
7.8419,1.9178
7.9292,1.8306
8.0401,1.7763
8.1471,1.7607
8.8971,1.7607
9.0041,1.7763
9.1150,1.8306
9.2023,1.9178
9.2566,2.0287
9.2721,2.1357
9.2721,2.8857
9.2566,2.9928
9.2023,3.1037
9.1150,3.1909
9.0041,3.2452
8.8971,3.2607
Z" /> 
<path style="fill:#4A5F65; fill-opacity:0.9000; 
stroke:#4A5F65; stroke-width:0.0000; stroke-opacity:1; 
stroke-linecap:round; stroke-linejoin:round;fill-rule:evenodd;"
d="M 8.1471,13.2357
8.0401,13.2202
7.9292,13.1659
7.8419,13.0787
7.7877,12.9678
7.7721,12.8607
7.7721,12.1107
7.7877,12.0037
7.8419,11.8928
7.9292,11.8056
8.0401,11.7513
8.1471,11.7357
8.8971,11.7357
9.0041,11.7513
9.1150,11.8056
9.2023,11.8928
9.2566,12.0037
9.2721,12.1107
9.2721,12.8607
9.2566,12.9678
9.2023,13.0787
9.1150,13.1659
9.0041,13.2202
8.8971,13.2357
Z" /> 
<path style="fill:#4A5F65; fill-opacity:0.9000; 
stroke:#4A5F65; stroke-width:0.0000; stroke-opacity:1; 
stroke-linecap:round; stroke-linejoin:round;fill-rule:evenodd;"
d="M 5.6071,13.2357
5.5001,13.2202
5.3892,13.1659
5.3019,13.0787
5.2477,12.9678
5.2321,12.8607
5.2321,12.1107
5.2477,12.0037
5.3019,11.8928
5.3892,11.8056
5.5001,11.7513
5.6071,11.7357
6.3571,11.7357
6.4641,11.7513
6.5750,11.8056
6.6623,11.8928
6.7166,12.0037
6.7321,12.1107
6.7321,12.8607
6.7166,12.9678
6.6623,13.0787
6.5750,13.1659
6.4641,13.2202
6.3571,13.2357
Z" /> 
<path style="fill:#4A5F65; fill-opacity:0.9000; 
stroke:#4A5F65; stroke-width:0.0000; stroke-opacity:1; 
stroke-linecap:round; stroke-linejoin:round;fill-rule:evenodd;"
d="M 3.0671,13.2357
2.9601,13.2202
2.8492,13.1659
2.7619,13.0787
2.7077,12.9678
2.6921,12.8607
2.6921,12.1107
2.7077,12.0037
2.7619,11.8928
2.8492,11.8056
2.9601,11.7513
3.0671,11.7357
3.8171,11.7357
3.9241,11.7513
4.0350,11.8056
4.1223,11.8928
4.1766,12.0037
4.1921,12.1107
4.1921,12.8607
4.1766,12.9678
4.1223,13.0787
4.0350,13.1659
3.9241,13.2202
3.8171,13.2357
Z" /> 
</g>
<g >
</g>
<g >
</g>
<g >
</g>
<g >
</g>
<g >
</g>
</g>
<g style="fill:#FFFFFF; fill-opacity:1.0000; 
stroke:#FFFFFF; stroke-width:0.0000; stroke-opacity:1; 
stroke-linecap:round; stroke-linejoin:round;">
</g>
<g style="fill:#0D115E; fill-opacity:1.0000; 
stroke:#0D115E; stroke-width:0.0000; stroke-opacity:1; 
stroke-linecap:round; stroke-linejoin:round;">
</g>
<g style="fill:#0D115E; fill-opacity:1.0000; 
stroke:#0D115E; stroke-width:0.1000; stroke-opacity:1; 
stroke-linecap:round; stroke-linejoin:round;">
</g>
<g style="fill:#0D115E; fill-opacity:0.0; 
stroke:#0D115E; stroke-width:0.1000; stroke-opacity:1; 
stroke-linecap:round; stroke-linejoin:round;">
<g transform="rotate(-90.000000 2.0821 12.1982)">
<text x="2.0821" y="12.4982"
textLength="1.3800" font-size="0.8000" lengthAdjust="spacingAndGlyphs"
text-anchor="middle" opacity="0">U1</text>
</g>
<g class="stroked-text"><desc>U1</desc>
<path d="M1.7545 12.6554
L2.2402 12.6554
" />
<path d="M2.2402 12.6554
L2.2974 12.6268
" />
<path d="M2.2974 12.6268
L2.3259 12.5983
" />
<path d="M2.3259 12.5983
L2.3545 12.5411
" />
<path d="M2.3545 12.5411
L2.3545 12.4268
" />
<path d="M2.3545 12.4268
L2.3259 12.3697
" />
<path d="M2.3259 12.3697
L2.2974 12.3411
" />
<path d="M2.2974 12.3411
L2.2402 12.3125
" />
<path d="M2.2402 12.3125
L1.7545 12.3125
" />
<path d="M2.3545 11.7125
L2.3545 12.0554
" />
<path d="M2.3545 11.8840
L1.7545 11.8840
" />
<path d="M1.7545 11.8840
L1.8402 11.9411
" />
<path d="M1.8402 11.9411
L1.8974 11.9982
" />
<path d="M1.8974 11.9982
L1.9259 12.0554
" />
</g></g>
<g style="fill:#0D115E; fill-opacity:0.0; 
stroke:#0D115E; stroke-width:0.1200; stroke-opacity:1; 
stroke-linecap:round; stroke-linejoin:round;">
<path d="M9.7821 4.0983
L11.1821 4.0983
" />
<path d="M9.7821 5.4982
L9.7821 4.0983
" />
<path d="M11.1821 4.0983
L11.1821 5.4982
" />
<path d="M11.1821 5.4982
L9.7821 5.4982
" />
<path d="M0.7821 4.0983
L2.1821 4.0983
" />
<path d="M0.7821 5.4982
L0.7821 4.0983
" />
<path d="M2.1821 4.0983
L2.1821 5.4982
" />
<path d="M2.1821 5.4982
L0.7821 5.4982
" />
<path d="M9.7821 1.5982
L11.1821 1.5982
" />
<path d="M9.7821 2.9983
L9.7821 1.5982
" />
<path d="M11.1821 1.5982
L11.1821 2.9983
" />
<path d="M11.1821 2.9983
L9.7821 2.9983
" />
<path d="M0.7821 1.5982
L2.1821 1.5982
" />
<path d="M0.7821 2.9983
L0.7821 1.5982
" />
<path d="M2.1821 1.5982
L2.1821 2.9983
" />
<path d="M2.1821 2.9983
L0.7821 2.9983
" />
<path d="M2.3721 11.1082
L2.5396 11.1082
" />
<path d="M2.5396 11.1082
L2.5396 13.0983
" />
<path d="M9.5921 11.1082
L9.2571 11.1082
" />
<path d="M2.3721 7.4982
L2.3721 11.1082
" />
<path d="M2.3721 7.4982
L2.3721 3.8882
" />
<path d="M9.5921 7.4982
L9.5921 11.1082
" />
<path d="M9.5921 7.4982
L9.5921 3.8882
" />
<path d="M2.3721 3.8882
L2.7071 3.8882
" />
<path d="M9.5921 3.8882
L9.2571 3.8882
" />
<path d="M2.3821 8.4982 A1.0000 1.0000 0.0 0 0 2.3721 6.4983" />
<path d="M0.7821 6.6982
L2.1821 6.6982
" />
<path d="M0.7821 8.0983
L0.7821 6.6982
" />
<path d="M2.1821 6.6982
L2.1821 8.0983
" />
<path d="M2.1821 8.0983
L0.7821 8.0983
" />
<path d="M9.7821 6.6982
L11.1821 6.6982
" />
<path d="M9.7821 8.0983
L9.7821 6.6982
" />
<path d="M11.1821 6.6982
L11.1821 8.0983
" />
<path d="M11.1821 8.0983
L9.7821 8.0983
" />
<g >
</g>
<g >
</g>
<g >
</g>
<g >
</g>
<g >
</g>
<g >
</g>
<g >
</g>
<g >
</g>
<g >
</g>
<g >
</g>
</g>
<g style="fill:#000000; fill-opacity:0.0; 
stroke:#000000; stroke-width:0.1200; stroke-opacity:1; 
stroke-linecap:round; stroke-linejoin:round;">
</g>
<g style="fill:#000000; fill-opacity:1.0000; 
stroke:#000000; stroke-width:0.0000; stroke-opacity:1; 
stroke-linecap:round; stroke-linejoin:round;">
<circle cx="10.4821" cy="4.7982" r="0.2500" /> 
</g>
<g style="fill:#000000; fill-opacity:1.0000; 
stroke:#000000; stroke-width:0.0212; stroke-opacity:1; 
stroke-linecap:round; stroke-linejoin:round;">
</g>
<g style="fill:#000000; fill-opacity:1.0000; 
stroke:#000000; stroke-width:0.0000; stroke-opacity:1; 
stroke-linecap:round; stroke-linejoin:round;">
<circle cx="1.4821" cy="4.7982" r="0.2500" /> 
</g>
<g style="fill:#000000; fill-opacity:1.0000; 
stroke:#000000; stroke-width:0.0212; stroke-opacity:1; 
stroke-linecap:round; stroke-linejoin:round;">
</g>
<g style="fill:#000000; fill-opacity:1.0000; 
stroke:#000000; stroke-width:0.0000; stroke-opacity:1; 
stroke-linecap:round; stroke-linejoin:round;">
<circle cx="10.4821" cy="2.2982" r="0.2500" /> 
</g>
<g style="fill:#000000; fill-opacity:1.0000; 
stroke:#000000; stroke-width:0.0212; stroke-opacity:1; 
stroke-linecap:round; stroke-linejoin:round;">
</g>
<g style="fill:#000000; fill-opacity:1.0000; 
stroke:#000000; stroke-width:0.0000; stroke-opacity:1; 
stroke-linecap:round; stroke-linejoin:round;">
<circle cx="1.4821" cy="2.2982" r="0.2500" /> 
</g>
<g style="fill:#000000; fill-opacity:1.0000; 
stroke:#000000; stroke-width:0.0212; stroke-opacity:1; 
stroke-linecap:round; stroke-linejoin:round;">
</g>
<g style="fill:#000000; fill-opacity:1.0000; 
stroke:#000000; stroke-width:0.0000; stroke-opacity:1; 
stroke-linecap:round; stroke-linejoin:round;">
<circle cx="1.4821" cy="7.3982" r="0.2500" /> 
</g>
<g style="fill:#000000; fill-opacity:1.0000; 
stroke:#000000; stroke-width:0.0212; stroke-opacity:1; 
stroke-linecap:round; stroke-linejoin:round;">
</g>
<g style="fill:#000000; fill-opacity:1.0000; 
stroke:#000000; stroke-width:0.0000; stroke-opacity:1; 
stroke-linecap:round; stroke-linejoin:round;">
<circle cx="10.4821" cy="7.3982" r="0.2500" /> 
</g>
<g style="fill:#000000; fill-opacity:1.0000; 
stroke:#000000; stroke-width:0.0212; stroke-opacity:1; 
stroke-linecap:round; stroke-linejoin:round;">
</g>
<g style="fill:#FFFFFF; fill-opacity:1.0000; 
stroke:#FFFFFF; stroke-width:0.0212; stroke-opacity:1; 
stroke-linecap:round; stroke-linejoin:round;">
<g >
</g>
<g >
</g>
<g >
</g>
<g >
</g>
<g >
</g>
<g >
</g>
<g >
</g>
<g >
</g>
<g >
</g>
<g >
</g>
</g>
<g style="fill:#FFFFFF; fill-opacity:1.0000; 
stroke:#FFFFFF; stroke-width:0.0212; stroke-opacity:1; 
stroke-linecap:round; stroke-linejoin:round;">
</g>
<g style="fill:#00D91D; fill-opacity:1.0000; 
stroke:#00D91D; stroke-width:0.0212; stroke-opacity:1; 
stroke-linecap:round; stroke-linejoin:round;">
</g>
<g style="fill:#00D91D; fill-opacity:1.0000; 
stroke:#00D91D; stroke-width:0.0500; stroke-opacity:1; 
stroke-linecap:round; stroke-linejoin:round;">
</g>
<g style="fill:#00D91D; fill-opacity:0.0; 
stroke:#00D91D; stroke-width:0.0500; stroke-opacity:1; 
stroke-linecap:round; stroke-linejoin:round;">
<path d="M9.4821 3.7982
L9.4821 5.7982
" />
<path d="M9.4821 3.7982
L11.4821 3.7982
" />
<path d="M11.4821 5.7982
L9.4821 5.7982
" />
<path d="M11.4821 5.7982
L11.4821 3.7982
" />
<path d="M0.4821 3.7982
L0.4821 5.7982
" />
<path d="M0.4821 3.7982
L2.4821 3.7982
" />
<path d="M2.4821 5.7982
L0.4821 5.7982
" />
<path d="M2.4821 5.7982
L2.4821 3.7982
" />
<path d="M9.4821 1.2982
L9.4821 3.2982
" />
<path d="M9.4821 1.2982
L11.4821 1.2982
" />
<path d="M11.4821 3.2982
L9.4821 3.2982
" />
<path d="M11.4821 3.2982
L11.4821 1.2982
" />
<path d="M0.4821 1.2982
L0.4821 3.2982
" />
<path d="M0.4821 1.2982
L2.4821 1.2982
" />
<path d="M2.4821 3.2982
L0.4821 3.2982
" />
<path d="M2.4821 3.2982
L2.4821 1.2982
" />
<path d="M2.2321 13.3483
L9.7321 13.3483
" />
<path d="M9.7321 13.3483
L9.7321 1.6482
" />
<path d="M2.2321 1.6482
L2.2321 13.3483
" />
<path d="M9.7321 1.6482
L2.2321 1.6482
" />
<path d="M0.4821 6.3982
L0.4821 8.3982
" />
<path d="M0.4821 6.3982
L2.4821 6.3982
" />
<path d="M2.4821 8.3982
L0.4821 8.3982
" />
<path d="M2.4821 8.3982
L2.4821 6.3982
" />
<path d="M9.4821 6.3982
L9.4821 8.3982
" />
<path d="M9.4821 6.3982
L11.4821 6.3982
" />
<path d="M11.4821 8.3982
L9.4821 8.3982
" />
<path d="M11.4821 8.3982
L11.4821 6.3982
" />
<g >
</g>
<g >
</g>
<g >
</g>
<g >
</g>
<g >
</g>
<g >
</g>
<g >
</g>
<g >
</g>
<g >
</g>
<g >
</g>
</g>
<g style="fill:#FFFFFF; fill-opacity:0.0; 
stroke:#FFFFFF; stroke-width:0.0500; stroke-opacity:1; 
stroke-linecap:round; stroke-linejoin:round;">
</g>
<g style="fill:#505050; fill-opacity:0.0; 
stroke:#505050; stroke-width:0.0500; stroke-opacity:1; 
stroke-linecap:round; stroke-linejoin:round;">
</g>
<g style="fill:#505050; fill-opacity:0.0; 
stroke:#505050; stroke-width:0.1500; stroke-opacity:1; 
stroke-linecap:round; stroke-linejoin:round;">
<text x="10.4821" y="6.8482"
textLength="7.1071" font-size="1.3333" lengthAdjust="spacingAndGlyphs"
text-anchor="middle" opacity="0">TestPoint</text>
<g class="stroked-text"><desc>TestPoint</desc>
<path d="M7.1488 5.8031
L7.7202 5.8031
" />
<path d="M7.4345 6.8031
L7.4345 5.8031
" />
<path d="M8.4345 6.7554
L8.3393 6.8031
" />
<path d="M8.3393 6.8031
L8.1488 6.8031
" />
<path d="M8.1488 6.8031
L8.0536 6.7554
" />
<path d="M8.0536 6.7554
L8.0060 6.6602
" />
<path d="M8.0060 6.6602
L8.0060 6.2793
" />
<path d="M8.0060 6.2793
L8.0536 6.1840
" />
<path d="M8.0536 6.1840
L8.1488 6.1364
" />
<path d="M8.1488 6.1364
L8.3393 6.1364
" />
<path d="M8.3393 6.1364
L8.4345 6.1840
" />
<path d="M8.4345 6.1840
L8.4821 6.2793
" />
<path d="M8.4821 6.2793
L8.4821 6.3745
" />
<path d="M8.4821 6.3745
L8.0060 6.4697
" />
<path d="M8.8631 6.7554
L8.9583 6.8031
" />
<path d="M8.9583 6.8031
L9.1488 6.8031
" />
<path d="M9.1488 6.8031
L9.2440 6.7554
" />
<path d="M9.2440 6.7554
L9.2917 6.6602
" />
<path d="M9.2917 6.6602
L9.2917 6.6126
" />
<path d="M9.2917 6.6126
L9.2440 6.5174
" />
<path d="M9.2440 6.5174
L9.1488 6.4697
" />
<path d="M9.1488 6.4697
L9.0060 6.4697
" />
<path d="M9.0060 6.4697
L8.9107 6.4221
" />
<path d="M8.9107 6.4221
L8.8631 6.3269
" />
<path d="M8.8631 6.3269
L8.8631 6.2793
" />
<path d="M8.8631 6.2793
L8.9107 6.1840
" />
<path d="M8.9107 6.1840
L9.0060 6.1364
" />
<path d="M9.0060 6.1364
L9.1488 6.1364
" />
<path d="M9.1488 6.1364
L9.2440 6.1840
" />
<path d="M9.5774 6.1364
L9.9583 6.1364
" />
<path d="M9.7202 5.8031
L9.7202 6.6602
" />
<path d="M9.7202 6.6602
L9.7679 6.7554
" />
<path d="M9.7679 6.7554
L9.8631 6.8031
" />
<path d="M9.8631 6.8031
L9.9583 6.8031
" />
<path d="M10.2917 6.8031
L10.2917 5.8031
" />
<path d="M10.2917 5.8031
L10.6726 5.8031
" />
<path d="M10.6726 5.8031
L10.7679 5.8507
" />
<path d="M10.7679 5.8507
L10.8155 5.8983
" />
<path d="M10.8155 5.8983
L10.8631 5.9935
" />
<path d="M10.8631 5.9935
L10.8631 6.1364
" />
<path d="M10.8631 6.1364
L10.8155 6.2316
" />
<path d="M10.8155 6.2316
L10.7679 6.2793
" />
<path d="M10.7679 6.2793
L10.6726 6.3269
" />
<path d="M10.6726 6.3269
L10.2917 6.3269
" />
<path d="M11.4345 6.8031
L11.3393 6.7554
" />
<path d="M11.3393 6.7554
L11.2917 6.7078
" />
<path d="M11.2917 6.7078
L11.2440 6.6126
" />
<path d="M11.2440 6.6126
L11.2440 6.3269
" />
<path d="M11.2440 6.3269
L11.2917 6.2316
" />
<path d="M11.2917 6.2316
L11.3393 6.1840
" />
<path d="M11.3393 6.1840
L11.4345 6.1364
" />
<path d="M11.4345 6.1364
L11.5774 6.1364
" />
<path d="M11.5774 6.1364
L11.6726 6.1840
" />
<path d="M11.6726 6.1840
L11.7202 6.2316
" />
<path d="M11.7202 6.2316
L11.7679 6.3269
" />
<path d="M11.7679 6.3269
L11.7679 6.6126
" />
<path d="M11.7679 6.6126
L11.7202 6.7078
" />
<path d="M11.7202 6.7078
L11.6726 6.7554
" />
<path d="M11.6726 6.7554
L11.5774 6.8031
" />
<path d="M11.5774 6.8031
L11.4345 6.8031
" />
<path d="M12.1964 6.8031
L12.1964 6.1364
" />
<path d="M12.1964 5.8031
L12.1488 5.8507
" />
<path d="M12.1488 5.8507
L12.1964 5.8983
" />
<path d="M12.1964 5.8983
L12.2440 5.8507
" />
<path d="M12.2440 5.8507
L12.1964 5.8031
" />
<path d="M12.1964 5.8031
L12.1964 5.8983
" />
<path d="M12.6726 6.1364
L12.6726 6.8031
" />
<path d="M12.6726 6.2316
L12.7202 6.1840
" />
<path d="M12.7202 6.1840
L12.8155 6.1364
" />
<path d="M12.8155 6.1364
L12.9583 6.1364
" />
<path d="M12.9583 6.1364
L13.0536 6.1840
" />
<path d="M13.0536 6.1840
L13.1012 6.2793
" />
<path d="M13.1012 6.2793
L13.1012 6.8031
" />
<path d="M13.4345 6.1364
L13.8155 6.1364
" />
<path d="M13.5774 5.8031
L13.5774 6.6602
" />
<path d="M13.5774 6.6602
L13.6250 6.7554
" />
<path d="M13.6250 6.7554
L13.7202 6.8031
" />
<path d="M13.7202 6.8031
L13.8155 6.8031
" />
</g><text x="10.4821" y="3.8482"
textLength="2.9643" font-size="1.3333" lengthAdjust="spacingAndGlyphs"
text-anchor="middle" opacity="0">TP3</text>
<g class="stroked-text"><desc>TP3</desc>
<path d="M9.2202 2.8031
L9.7917 2.8031
" />
<path d="M9.5060 3.8031
L9.5060 2.8031
" />
<path d="M10.1250 3.8031
L10.1250 2.8031
" />
<path d="M10.1250 2.8031
L10.5060 2.8031
" />
<path d="M10.5060 2.8031
L10.6012 2.8507
" />
<path d="M10.6012 2.8507
L10.6488 2.8983
" />
<path d="M10.6488 2.8983
L10.6964 2.9935
" />
<path d="M10.6964 2.9935
L10.6964 3.1364
" />
<path d="M10.6964 3.1364
L10.6488 3.2316
" />
<path d="M10.6488 3.2316
L10.6012 3.2793
" />
<path d="M10.6012 3.2793
L10.5060 3.3269
" />
<path d="M10.5060 3.3269
L10.1250 3.3269
" />
<path d="M11.0298 2.8031
L11.6488 2.8031
" />
<path d="M11.6488 2.8031
L11.3155 3.1840
" />
<path d="M11.3155 3.1840
L11.4583 3.1840
" />
<path d="M11.4583 3.1840
L11.5536 3.2316
" />
<path d="M11.5536 3.2316
L11.6012 3.2793
" />
<path d="M11.6012 3.2793
L11.6488 3.3745
" />
<path d="M11.6488 3.3745
L11.6488 3.6126
" />
<path d="M11.6488 3.6126
L11.6012 3.7078
" />
<path d="M11.6012 3.7078
L11.5536 3.7554
" />
<path d="M11.5536 3.7554
L11.4583 3.8031
" />
<path d="M11.4583 3.8031
L11.1726 3.8031
" />
<path d="M11.1726 3.8031
L11.0774 3.7554
" />
<path d="M11.0774 3.7554
L11.0298 3.7078
" />
</g><text x="1.4821" y="6.8482"
textLength="7.1071" font-size="1.3333" lengthAdjust="spacingAndGlyphs"
text-anchor="middle" opacity="0">TestPoint</text>
<g class="stroked-text"><desc>TestPoint</desc>
<path d="M-1.8512 5.8031
L-1.2798 5.8031
" />
<path d="M-1.5655 6.8031
L-1.5655 5.8031
" />
<path d="M-0.5655 6.7554
L-0.6607 6.8031
" />
<path d="M-0.6607 6.8031
L-0.8512 6.8031
" />
<path d="M-0.8512 6.8031
L-0.9464 6.7554
" />
<path d="M-0.9464 6.7554
L-0.9940 6.6602
" />
<path d="M-0.9940 6.6602
L-0.9940 6.2793
" />
<path d="M-0.9940 6.2793
L-0.9464 6.1840
" />
<path d="M-0.9464 6.1840
L-0.8512 6.1364
" />
<path d="M-0.8512 6.1364
L-0.6607 6.1364
" />
<path d="M-0.6607 6.1364
L-0.5655 6.1840
" />
<path d="M-0.5655 6.1840
L-0.5179 6.2793
" />
<path d="M-0.5179 6.2793
L-0.5179 6.3745
" />
<path d="M-0.5179 6.3745
L-0.9940 6.4697
" />
<path d="M-0.1369 6.7554
L-0.0417 6.8031
" />
<path d="M-0.0417 6.8031
L0.1488 6.8031
" />
<path d="M0.1488 6.8031
L0.2440 6.7554
" />
<path d="M0.2440 6.7554
L0.2917 6.6602
" />
<path d="M0.2917 6.6602
L0.2917 6.6126
" />
<path d="M0.2917 6.6126
L0.2440 6.5174
" />
<path d="M0.2440 6.5174
L0.1488 6.4697
" />
<path d="M0.1488 6.4697
L0.0060 6.4697
" />
<path d="M0.0060 6.4697
L-0.0893 6.4221
" />
<path d="M-0.0893 6.4221
L-0.1369 6.3269
" />
<path d="M-0.1369 6.3269
L-0.1369 6.2793
" />
<path d="M-0.1369 6.2793
L-0.0893 6.1840
" />
<path d="M-0.0893 6.1840
L0.0060 6.1364
" />
<path d="M0.0060 6.1364
L0.1488 6.1364
" />
<path d="M0.1488 6.1364
L0.2440 6.1840
" />
<path d="M0.5774 6.1364
L0.9583 6.1364
" />
<path d="M0.7202 5.8031
L0.7202 6.6602
" />
<path d="M0.7202 6.6602
L0.7679 6.7554
" />
<path d="M0.7679 6.7554
L0.8631 6.8031
" />
<path d="M0.8631 6.8031
L0.9583 6.8031
" />
<path d="M1.2917 6.8031
L1.2917 5.8031
" />
<path d="M1.2917 5.8031
L1.6726 5.8031
" />
<path d="M1.6726 5.8031
L1.7679 5.8507
" />
<path d="M1.7679 5.8507
L1.8155 5.8983
" />
<path d="M1.8155 5.8983
L1.8631 5.9935
" />
<path d="M1.8631 5.9935
L1.8631 6.1364
" />
<path d="M1.8631 6.1364
L1.8155 6.2316
" />
<path d="M1.8155 6.2316
L1.7679 6.2793
" />
<path d="M1.7679 6.2793
L1.6726 6.3269
" />
<path d="M1.6726 6.3269
L1.2917 6.3269
" />
<path d="M2.4345 6.8031
L2.3393 6.7554
" />
<path d="M2.3393 6.7554
L2.2917 6.7078
" />
<path d="M2.2917 6.7078
L2.2440 6.6126
" />
<path d="M2.2440 6.6126
L2.2440 6.3269
" />
<path d="M2.2440 6.3269
L2.2917 6.2316
" />
<path d="M2.2917 6.2316
L2.3393 6.1840
" />
<path d="M2.3393 6.1840
L2.4345 6.1364
" />
<path d="M2.4345 6.1364
L2.5774 6.1364
" />
<path d="M2.5774 6.1364
L2.6726 6.1840
" />
<path d="M2.6726 6.1840
L2.7202 6.2316
" />
<path d="M2.7202 6.2316
L2.7679 6.3269
" />
<path d="M2.7679 6.3269
L2.7679 6.6126
" />
<path d="M2.7679 6.6126
L2.7202 6.7078
" />
<path d="M2.7202 6.7078
L2.6726 6.7554
" />
<path d="M2.6726 6.7554
L2.5774 6.8031
" />
<path d="M2.5774 6.8031
L2.4345 6.8031
" />
<path d="M3.1964 6.8031
L3.1964 6.1364
" />
<path d="M3.1964 5.8031
L3.1488 5.8507
" />
<path d="M3.1488 5.8507
L3.1964 5.8983
" />
<path d="M3.1964 5.8983
L3.2440 5.8507
" />
<path d="M3.2440 5.8507
L3.1964 5.8031
" />
<path d="M3.1964 5.8031
L3.1964 5.8983
" />
<path d="M3.6726 6.1364
L3.6726 6.8031
" />
<path d="M3.6726 6.2316
L3.7202 6.1840
" />
<path d="M3.7202 6.1840
L3.8155 6.1364
" />
<path d="M3.8155 6.1364
L3.9583 6.1364
" />
<path d="M3.9583 6.1364
L4.0536 6.1840
" />
<path d="M4.0536 6.1840
L4.1012 6.2793
" />
<path d="M4.1012 6.2793
L4.1012 6.8031
" />
<path d="M4.4345 6.1364
L4.8155 6.1364
" />
<path d="M4.5774 5.8031
L4.5774 6.6602
" />
<path d="M4.5774 6.6602
L4.6250 6.7554
" />
<path d="M4.6250 6.7554
L4.7202 6.8031
" />
<path d="M4.7202 6.8031
L4.8155 6.8031
" />
</g><text x="1.4821" y="3.8482"
textLength="2.9643" font-size="1.3333" lengthAdjust="spacingAndGlyphs"
text-anchor="middle" opacity="0">TP5</text>
<g class="stroked-text"><desc>TP5</desc>
<path d="M0.2202 2.8031
L0.7917 2.8031
" />
<path d="M0.5060 3.8031
L0.5060 2.8031
" />
<path d="M1.1250 3.8031
L1.1250 2.8031
" />
<path d="M1.1250 2.8031
L1.5060 2.8031
" />
<path d="M1.5060 2.8031
L1.6012 2.8507
" />
<path d="M1.6012 2.8507
L1.6488 2.8983
" />
<path d="M1.6488 2.8983
L1.6964 2.9935
" />
<path d="M1.6964 2.9935
L1.6964 3.1364
" />
<path d="M1.6964 3.1364
L1.6488 3.2316
" />
<path d="M1.6488 3.2316
L1.6012 3.2793
" />
<path d="M1.6012 3.2793
L1.5060 3.3269
" />
<path d="M1.5060 3.3269
L1.1250 3.3269
" />
<path d="M2.6012 2.8031
L2.1250 2.8031
" />
<path d="M2.1250 2.8031
L2.0774 3.2793
" />
<path d="M2.0774 3.2793
L2.1250 3.2316
" />
<path d="M2.1250 3.2316
L2.2202 3.1840
" />
<path d="M2.2202 3.1840
L2.4583 3.1840
" />
<path d="M2.4583 3.1840
L2.5536 3.2316
" />
<path d="M2.5536 3.2316
L2.6012 3.2793
" />
<path d="M2.6012 3.2793
L2.6488 3.3745
" />
<path d="M2.6488 3.3745
L2.6488 3.6126
" />
<path d="M2.6488 3.6126
L2.6012 3.7078
" />
<path d="M2.6012 3.7078
L2.5536 3.7554
" />
<path d="M2.5536 3.7554
L2.4583 3.8031
" />
<path d="M2.4583 3.8031
L2.2202 3.8031
" />
<path d="M2.2202 3.8031
L2.1250 3.7554
" />
<path d="M2.1250 3.7554
L2.0774 3.7078
" />
</g><text x="10.4821" y="4.3483"
textLength="7.1071" font-size="1.3333" lengthAdjust="spacingAndGlyphs"
text-anchor="middle" opacity="0">TestPoint</text>
<g class="stroked-text"><desc>TestPoint</desc>
<path d="M7.1488 3.3031
L7.7202 3.3031
" />
<path d="M7.4345 4.3031
L7.4345 3.3031
" />
<path d="M8.4345 4.2554
L8.3393 4.3031
" />
<path d="M8.3393 4.3031
L8.1488 4.3031
" />
<path d="M8.1488 4.3031
L8.0536 4.2554
" />
<path d="M8.0536 4.2554
L8.0060 4.1602
" />
<path d="M8.0060 4.1602
L8.0060 3.7793
" />
<path d="M8.0060 3.7793
L8.0536 3.6840
" />
<path d="M8.0536 3.6840
L8.1488 3.6364
" />
<path d="M8.1488 3.6364
L8.3393 3.6364
" />
<path d="M8.3393 3.6364
L8.4345 3.6840
" />
<path d="M8.4345 3.6840
L8.4821 3.7793
" />
<path d="M8.4821 3.7793
L8.4821 3.8745
" />
<path d="M8.4821 3.8745
L8.0060 3.9697
" />
<path d="M8.8631 4.2554
L8.9583 4.3031
" />
<path d="M8.9583 4.3031
L9.1488 4.3031
" />
<path d="M9.1488 4.3031
L9.2440 4.2554
" />
<path d="M9.2440 4.2554
L9.2917 4.1602
" />
<path d="M9.2917 4.1602
L9.2917 4.1126
" />
<path d="M9.2917 4.1126
L9.2440 4.0174
" />
<path d="M9.2440 4.0174
L9.1488 3.9697
" />
<path d="M9.1488 3.9697
L9.0060 3.9697
" />
<path d="M9.0060 3.9697
L8.9107 3.9221
" />
<path d="M8.9107 3.9221
L8.8631 3.8269
" />
<path d="M8.8631 3.8269
L8.8631 3.7793
" />
<path d="M8.8631 3.7793
L8.9107 3.6840
" />
<path d="M8.9107 3.6840
L9.0060 3.6364
" />
<path d="M9.0060 3.6364
L9.1488 3.6364
" />
<path d="M9.1488 3.6364
L9.2440 3.6840
" />
<path d="M9.5774 3.6364
L9.9583 3.6364
" />
<path d="M9.7202 3.3031
L9.7202 4.1602
" />
<path d="M9.7202 4.1602
L9.7679 4.2554
" />
<path d="M9.7679 4.2554
L9.8631 4.3031
" />
<path d="M9.8631 4.3031
L9.9583 4.3031
" />
<path d="M10.2917 4.3031
L10.2917 3.3031
" />
<path d="M10.2917 3.3031
L10.6726 3.3031
" />
<path d="M10.6726 3.3031
L10.7679 3.3507
" />
<path d="M10.7679 3.3507
L10.8155 3.3983
" />
<path d="M10.8155 3.3983
L10.8631 3.4935
" />
<path d="M10.8631 3.4935
L10.8631 3.6364
" />
<path d="M10.8631 3.6364
L10.8155 3.7316
" />
<path d="M10.8155 3.7316
L10.7679 3.7793
" />
<path d="M10.7679 3.7793
L10.6726 3.8269
" />
<path d="M10.6726 3.8269
L10.2917 3.8269
" />
<path d="M11.4345 4.3031
L11.3393 4.2554
" />
<path d="M11.3393 4.2554
L11.2917 4.2078
" />
<path d="M11.2917 4.2078
L11.2440 4.1126
" />
<path d="M11.2440 4.1126
L11.2440 3.8269
" />
<path d="M11.2440 3.8269
L11.2917 3.7316
" />
<path d="M11.2917 3.7316
L11.3393 3.6840
" />
<path d="M11.3393 3.6840
L11.4345 3.6364
" />
<path d="M11.4345 3.6364
L11.5774 3.6364
" />
<path d="M11.5774 3.6364
L11.6726 3.6840
" />
<path d="M11.6726 3.6840
L11.7202 3.7316
" />
<path d="M11.7202 3.7316
L11.7679 3.8269
" />
<path d="M11.7679 3.8269
L11.7679 4.1126
" />
<path d="M11.7679 4.1126
L11.7202 4.2078
" />
<path d="M11.7202 4.2078
L11.6726 4.2554
" />
<path d="M11.6726 4.2554
L11.5774 4.3031
" />
<path d="M11.5774 4.3031
L11.4345 4.3031
" />
<path d="M12.1964 4.3031
L12.1964 3.6364
" />
<path d="M12.1964 3.3031
L12.1488 3.3507
" />
<path d="M12.1488 3.3507
L12.1964 3.3983
" />
<path d="M12.1964 3.3983
L12.2440 3.3507
" />
<path d="M12.2440 3.3507
L12.1964 3.3031
" />
<path d="M12.1964 3.3031
L12.1964 3.3983
" />
<path d="M12.6726 3.6364
L12.6726 4.3031
" />
<path d="M12.6726 3.7316
L12.7202 3.6840
" />
<path d="M12.7202 3.6840
L12.8155 3.6364
" />
<path d="M12.8155 3.6364
L12.9583 3.6364
" />
<path d="M12.9583 3.6364
L13.0536 3.6840
" />
<path d="M13.0536 3.6840
L13.1012 3.7793
" />
<path d="M13.1012 3.7793
L13.1012 4.3031
" />
<path d="M13.4345 3.6364
L13.8155 3.6364
" />
<path d="M13.5774 3.3031
L13.5774 4.1602
" />
<path d="M13.5774 4.1602
L13.6250 4.2554
" />
<path d="M13.6250 4.2554
L13.7202 4.3031
" />
<path d="M13.7202 4.3031
L13.8155 4.3031
" />
</g><text x="10.4821" y="1.3482"
textLength="2.9643" font-size="1.3333" lengthAdjust="spacingAndGlyphs"
text-anchor="middle" opacity="0">TP1</text>
<g class="stroked-text"><desc>TP1</desc>
<path d="M9.2202 0.3031
L9.7917 0.3031
" />
<path d="M9.5060 1.3031
L9.5060 0.3031
" />
<path d="M10.1250 1.3031
L10.1250 0.3031
" />
<path d="M10.1250 0.3031
L10.5060 0.3031
" />
<path d="M10.5060 0.3031
L10.6012 0.3507
" />
<path d="M10.6012 0.3507
L10.6488 0.3983
" />
<path d="M10.6488 0.3983
L10.6964 0.4935
" />
<path d="M10.6964 0.4935
L10.6964 0.6364
" />
<path d="M10.6964 0.6364
L10.6488 0.7316
" />
<path d="M10.6488 0.7316
L10.6012 0.7793
" />
<path d="M10.6012 0.7793
L10.5060 0.8269
" />
<path d="M10.5060 0.8269
L10.1250 0.8269
" />
<path d="M11.6488 1.3031
L11.0774 1.3031
" />
<path d="M11.3631 1.3031
L11.3631 0.3031
" />
<path d="M11.3631 0.3031
L11.2679 0.4459
" />
<path d="M11.2679 0.4459
L11.1726 0.5412
" />
<path d="M11.1726 0.5412
L11.0774 0.5888
" />
</g><text x="1.4821" y="4.3483"
textLength="7.1071" font-size="1.3333" lengthAdjust="spacingAndGlyphs"
text-anchor="middle" opacity="0">TestPoint</text>
<g class="stroked-text"><desc>TestPoint</desc>
<path d="M-1.8512 3.3031
L-1.2798 3.3031
" />
<path d="M-1.5655 4.3031
L-1.5655 3.3031
" />
<path d="M-0.5655 4.2554
L-0.6607 4.3031
" />
<path d="M-0.6607 4.3031
L-0.8512 4.3031
" />
<path d="M-0.8512 4.3031
L-0.9464 4.2554
" />
<path d="M-0.9464 4.2554
L-0.9940 4.1602
" />
<path d="M-0.9940 4.1602
L-0.9940 3.7793
" />
<path d="M-0.9940 3.7793
L-0.9464 3.6840
" />
<path d="M-0.9464 3.6840
L-0.8512 3.6364
" />
<path d="M-0.8512 3.6364
L-0.6607 3.6364
" />
<path d="M-0.6607 3.6364
L-0.5655 3.6840
" />
<path d="M-0.5655 3.6840
L-0.5179 3.7793
" />
<path d="M-0.5179 3.7793
L-0.5179 3.8745
" />
<path d="M-0.5179 3.8745
L-0.9940 3.9697
" />
<path d="M-0.1369 4.2554
L-0.0417 4.3031
" />
<path d="M-0.0417 4.3031
L0.1488 4.3031
" />
<path d="M0.1488 4.3031
L0.2440 4.2554
" />
<path d="M0.2440 4.2554
L0.2917 4.1602
" />
<path d="M0.2917 4.1602
L0.2917 4.1126
" />
<path d="M0.2917 4.1126
L0.2440 4.0174
" />
<path d="M0.2440 4.0174
L0.1488 3.9697
" />
<path d="M0.1488 3.9697
L0.0060 3.9697
" />
<path d="M0.0060 3.9697
L-0.0893 3.9221
" />
<path d="M-0.0893 3.9221
L-0.1369 3.8269
" />
<path d="M-0.1369 3.8269
L-0.1369 3.7793
" />
<path d="M-0.1369 3.7793
L-0.0893 3.6840
" />
<path d="M-0.0893 3.6840
L0.0060 3.6364
" />
<path d="M0.0060 3.6364
L0.1488 3.6364
" />
<path d="M0.1488 3.6364
L0.2440 3.6840
" />
<path d="M0.5774 3.6364
L0.9583 3.6364
" />
<path d="M0.7202 3.3031
L0.7202 4.1602
" />
<path d="M0.7202 4.1602
L0.7679 4.2554
" />
<path d="M0.7679 4.2554
L0.8631 4.3031
" />
<path d="M0.8631 4.3031
L0.9583 4.3031
" />
<path d="M1.2917 4.3031
L1.2917 3.3031
" />
<path d="M1.2917 3.3031
L1.6726 3.3031
" />
<path d="M1.6726 3.3031
L1.7679 3.3507
" />
<path d="M1.7679 3.3507
L1.8155 3.3983
" />
<path d="M1.8155 3.3983
L1.8631 3.4935
" />
<path d="M1.8631 3.4935
L1.8631 3.6364
" />
<path d="M1.8631 3.6364
L1.8155 3.7316
" />
<path d="M1.8155 3.7316
L1.7679 3.7793
" />
<path d="M1.7679 3.7793
L1.6726 3.8269
" />
<path d="M1.6726 3.8269
L1.2917 3.8269
" />
<path d="M2.4345 4.3031
L2.3393 4.2554
" />
<path d="M2.3393 4.2554
L2.2917 4.2078
" />
<path d="M2.2917 4.2078
L2.2440 4.1126
" />
<path d="M2.2440 4.1126
L2.2440 3.8269
" />
<path d="M2.2440 3.8269
L2.2917 3.7316
" />
<path d="M2.2917 3.7316
L2.3393 3.6840
" />
<path d="M2.3393 3.6840
L2.4345 3.6364
" />
<path d="M2.4345 3.6364
L2.5774 3.6364
" />
<path d="M2.5774 3.6364
L2.6726 3.6840
" />
<path d="M2.6726 3.6840
L2.7202 3.7316
" />
<path d="M2.7202 3.7316
L2.7679 3.8269
" />
<path d="M2.7679 3.8269
L2.7679 4.1126
" />
<path d="M2.7679 4.1126
L2.7202 4.2078
" />
<path d="M2.7202 4.2078
L2.6726 4.2554
" />
<path d="M2.6726 4.2554
L2.5774 4.3031
" />
<path d="M2.5774 4.3031
L2.4345 4.3031
" />
<path d="M3.1964 4.3031
L3.1964 3.6364
" />
<path d="M3.1964 3.3031
L3.1488 3.3507
" />
<path d="M3.1488 3.3507
L3.1964 3.3983
" />
<path d="M3.1964 3.3983
L3.2440 3.3507
" />
<path d="M3.2440 3.3507
L3.1964 3.3031
" />
<path d="M3.1964 3.3031
L3.1964 3.3983
" />
<path d="M3.6726 3.6364
L3.6726 4.3031
" />
<path d="M3.6726 3.7316
L3.7202 3.6840
" />
<path d="M3.7202 3.6840
L3.8155 3.6364
" />
<path d="M3.8155 3.6364
L3.9583 3.6364
" />
<path d="M3.9583 3.6364
L4.0536 3.6840
" />
<path d="M4.0536 3.6840
L4.1012 3.7793
" />
<path d="M4.1012 3.7793
L4.1012 4.3031
" />
<path d="M4.4345 3.6364
L4.8155 3.6364
" />
<path d="M4.5774 3.3031
L4.5774 4.1602
" />
<path d="M4.5774 4.1602
L4.6250 4.2554
" />
<path d="M4.6250 4.2554
L4.7202 4.3031
" />
<path d="M4.7202 4.3031
L4.8155 4.3031
" />
</g><text x="1.4821" y="1.3482"
textLength="2.9643" font-size="1.3333" lengthAdjust="spacingAndGlyphs"
text-anchor="middle" opacity="0">TP4</text>
<g class="stroked-text"><desc>TP4</desc>
<path d="M0.2202 0.3031
L0.7917 0.3031
" />
<path d="M0.5060 1.3031
L0.5060 0.3031
" />
<path d="M1.1250 1.3031
L1.1250 0.3031
" />
<path d="M1.1250 0.3031
L1.5060 0.3031
" />
<path d="M1.5060 0.3031
L1.6012 0.3507
" />
<path d="M1.6012 0.3507
L1.6488 0.3983
" />
<path d="M1.6488 0.3983
L1.6964 0.4935
" />
<path d="M1.6964 0.4935
L1.6964 0.6364
" />
<path d="M1.6964 0.6364
L1.6488 0.7316
" />
<path d="M1.6488 0.7316
L1.6012 0.7793
" />
<path d="M1.6012 0.7793
L1.5060 0.8269
" />
<path d="M1.5060 0.8269
L1.1250 0.8269
" />
<path d="M2.5536 0.6364
L2.5536 1.3031
" />
<path d="M2.3155 0.2555
L2.0774 0.9697
" />
<path d="M2.0774 0.9697
L2.6964 0.9697
" />
</g><g transform="rotate(-90.000000 10.4321 7.4982)">
<text x="10.4321" y="7.9982"
textLength="4.1548" font-size="1.3333" lengthAdjust="spacingAndGlyphs"
text-anchor="middle" opacity="0">XGZP</text>
</g>
<g class="stroked-text"><desc>XGZP</desc>
<path d="M9.8870 9.3078
L10.8870 8.6411
" />
<path d="M9.8870 8.6411
L10.8870 9.3078
" />
<path d="M9.9346 7.7363
L9.8870 7.8316
" />
<path d="M9.8870 7.8316
L9.8870 7.9744
" />
<path d="M9.8870 7.9744
L9.9346 8.1173
" />
<path d="M9.9346 8.1173
L10.0298 8.2125
" />
<path d="M10.0298 8.2125
L10.1251 8.2602
" />
<path d="M10.1251 8.2602
L10.3155 8.3078
" />
<path d="M10.3155 8.3078
L10.4584 8.3078
" />
<path d="M10.4584 8.3078
L10.6489 8.2602
" />
<path d="M10.6489 8.2602
L10.7441 8.2125
" />
<path d="M10.7441 8.2125
L10.8393 8.1173
" />
<path d="M10.8393 8.1173
L10.8870 7.9744
" />
<path d="M10.8870 7.9744
L10.8870 7.8792
" />
<path d="M10.8870 7.8792
L10.8393 7.7363
" />
<path d="M10.8393 7.7363
L10.7917 7.6887
" />
<path d="M10.7917 7.6887
L10.4584 7.6887
" />
<path d="M10.4584 7.6887
L10.4584 7.8792
" />
<path d="M9.8870 7.3554
L9.8870 6.6887
" />
<path d="M9.8870 6.6887
L10.8870 7.3554
" />
<path d="M10.8870 7.3554
L10.8870 6.6887
" />
<path d="M10.8870 6.3078
L9.8870 6.3078
" />
<path d="M9.8870 6.3078
L9.8870 5.9268
" />
<path d="M9.8870 5.9268
L9.9346 5.8316
" />
<path d="M9.9346 5.8316
L9.9822 5.7840
" />
<path d="M9.9822 5.7840
L10.0774 5.7363
" />
<path d="M10.0774 5.7363
L10.2203 5.7363
" />
<path d="M10.2203 5.7363
L10.3155 5.7840
" />
<path d="M10.3155 5.7840
L10.3632 5.8316
" />
<path d="M10.3632 5.8316
L10.4108 5.9268
" />
<path d="M10.4108 5.9268
L10.4108 6.3078
" />
</g><g transform="rotate(-90.000000 5.9821 7.4982)">
<text x="5.9821" y="7.9982"
textLength="2.2500" font-size="1.3333" lengthAdjust="spacingAndGlyphs"
text-anchor="middle" opacity="0">U1</text>
</g>
<g class="stroked-text"><desc>U1</desc>
<path d="M5.4370 8.2602
L6.2465 8.2602
" />
<path d="M6.2465 8.2602
L6.3417 8.2125
" />
<path d="M6.3417 8.2125
L6.3893 8.1649
" />
<path d="M6.3893 8.1649
L6.4370 8.0697
" />
<path d="M6.4370 8.0697
L6.4370 7.8792
" />
<path d="M6.4370 7.8792
L6.3893 7.7840
" />
<path d="M6.3893 7.7840
L6.3417 7.7363
" />
<path d="M6.3417 7.7363
L6.2465 7.6887
" />
<path d="M6.2465 7.6887
L5.4370 7.6887
" />
<path d="M6.4370 6.6887
L6.4370 7.2602
" />
<path d="M6.4370 6.9744
L5.4370 6.9744
" />
<path d="M5.4370 6.9744
L5.5798 7.0697
" />
<path d="M5.5798 7.0697
L5.6751 7.1649
" />
<path d="M5.6751 7.1649
L5.7227 7.2602
" />
</g><text x="1.4821" y="9.4482"
textLength="7.1071" font-size="1.3333" lengthAdjust="spacingAndGlyphs"
text-anchor="middle" opacity="0">TestPoint</text>
<g class="stroked-text"><desc>TestPoint</desc>
<path d="M-1.8512 8.4031
L-1.2798 8.4031
" />
<path d="M-1.5655 9.4031
L-1.5655 8.4031
" />
<path d="M-0.5655 9.3554
L-0.6607 9.4031
" />
<path d="M-0.6607 9.4031
L-0.8512 9.4031
" />
<path d="M-0.8512 9.4031
L-0.9464 9.3554
" />
<path d="M-0.9464 9.3554
L-0.9940 9.2602
" />
<path d="M-0.9940 9.2602
L-0.9940 8.8793
" />
<path d="M-0.9940 8.8793
L-0.9464 8.7840
" />
<path d="M-0.9464 8.7840
L-0.8512 8.7364
" />
<path d="M-0.8512 8.7364
L-0.6607 8.7364
" />
<path d="M-0.6607 8.7364
L-0.5655 8.7840
" />
<path d="M-0.5655 8.7840
L-0.5179 8.8793
" />
<path d="M-0.5179 8.8793
L-0.5179 8.9745
" />
<path d="M-0.5179 8.9745
L-0.9940 9.0697
" />
<path d="M-0.1369 9.3554
L-0.0417 9.4031
" />
<path d="M-0.0417 9.4031
L0.1488 9.4031
" />
<path d="M0.1488 9.4031
L0.2440 9.3554
" />
<path d="M0.2440 9.3554
L0.2917 9.2602
" />
<path d="M0.2917 9.2602
L0.2917 9.2126
" />
<path d="M0.2917 9.2126
L0.2440 9.1174
" />
<path d="M0.2440 9.1174
L0.1488 9.0697
" />
<path d="M0.1488 9.0697
L0.0060 9.0697
" />
<path d="M0.0060 9.0697
L-0.0893 9.0221
" />
<path d="M-0.0893 9.0221
L-0.1369 8.9269
" />
<path d="M-0.1369 8.9269
L-0.1369 8.8793
" />
<path d="M-0.1369 8.8793
L-0.0893 8.7840
" />
<path d="M-0.0893 8.7840
L0.0060 8.7364
" />
<path d="M0.0060 8.7364
L0.1488 8.7364
" />
<path d="M0.1488 8.7364
L0.2440 8.7840
" />
<path d="M0.5774 8.7364
L0.9583 8.7364
" />
<path d="M0.7202 8.4031
L0.7202 9.2602
" />
<path d="M0.7202 9.2602
L0.7679 9.3554
" />
<path d="M0.7679 9.3554
L0.8631 9.4031
" />
<path d="M0.8631 9.4031
L0.9583 9.4031
" />
<path d="M1.2917 9.4031
L1.2917 8.4031
" />
<path d="M1.2917 8.4031
L1.6726 8.4031
" />
<path d="M1.6726 8.4031
L1.7679 8.4507
" />
<path d="M1.7679 8.4507
L1.8155 8.4983
" />
<path d="M1.8155 8.4983
L1.8631 8.5935
" />
<path d="M1.8631 8.5935
L1.8631 8.7364
" />
<path d="M1.8631 8.7364
L1.8155 8.8316
" />
<path d="M1.8155 8.8316
L1.7679 8.8793
" />
<path d="M1.7679 8.8793
L1.6726 8.9269
" />
<path d="M1.6726 8.9269
L1.2917 8.9269
" />
<path d="M2.4345 9.4031
L2.3393 9.3554
" />
<path d="M2.3393 9.3554
L2.2917 9.3078
" />
<path d="M2.2917 9.3078
L2.2440 9.2126
" />
<path d="M2.2440 9.2126
L2.2440 8.9269
" />
<path d="M2.2440 8.9269
L2.2917 8.8316
" />
<path d="M2.2917 8.8316
L2.3393 8.7840
" />
<path d="M2.3393 8.7840
L2.4345 8.7364
" />
<path d="M2.4345 8.7364
L2.5774 8.7364
" />
<path d="M2.5774 8.7364
L2.6726 8.7840
" />
<path d="M2.6726 8.7840
L2.7202 8.8316
" />
<path d="M2.7202 8.8316
L2.7679 8.9269
" />
<path d="M2.7679 8.9269
L2.7679 9.2126
" />
<path d="M2.7679 9.2126
L2.7202 9.3078
" />
<path d="M2.7202 9.3078
L2.6726 9.3554
" />
<path d="M2.6726 9.3554
L2.5774 9.4031
" />
<path d="M2.5774 9.4031
L2.4345 9.4031
" />
<path d="M3.1964 9.4031
L3.1964 8.7364
" />
<path d="M3.1964 8.4031
L3.1488 8.4507
" />
<path d="M3.1488 8.4507
L3.1964 8.4983
" />
<path d="M3.1964 8.4983
L3.2440 8.4507
" />
<path d="M3.2440 8.4507
L3.1964 8.4031
" />
<path d="M3.1964 8.4031
L3.1964 8.4983
" />
<path d="M3.6726 8.7364
L3.6726 9.4031
" />
<path d="M3.6726 8.8316
L3.7202 8.7840
" />
<path d="M3.7202 8.7840
L3.8155 8.7364
" />
<path d="M3.8155 8.7364
L3.9583 8.7364
" />
<path d="M3.9583 8.7364
L4.0536 8.7840
" />
<path d="M4.0536 8.7840
L4.1012 8.8793
" />
<path d="M4.1012 8.8793
L4.1012 9.4031
" />
<path d="M4.4345 8.7364
L4.8155 8.7364
" />
<path d="M4.5774 8.4031
L4.5774 9.2602
" />
<path d="M4.5774 9.2602
L4.6250 9.3554
" />
<path d="M4.6250 9.3554
L4.7202 9.4031
" />
<path d="M4.7202 9.4031
L4.8155 9.4031
" />
</g><text x="1.4821" y="6.4482"
textLength="2.9643" font-size="1.3333" lengthAdjust="spacingAndGlyphs"
text-anchor="middle" opacity="0">TP6</text>
<g class="stroked-text"><desc>TP6</desc>
<path d="M0.2202 5.4031
L0.7917 5.4031
" />
<path d="M0.5060 6.4031
L0.5060 5.4031
" />
<path d="M1.1250 6.4031
L1.1250 5.4031
" />
<path d="M1.1250 5.4031
L1.5060 5.4031
" />
<path d="M1.5060 5.4031
L1.6012 5.4507
" />
<path d="M1.6012 5.4507
L1.6488 5.4983
" />
<path d="M1.6488 5.4983
L1.6964 5.5935
" />
<path d="M1.6964 5.5935
L1.6964 5.7364
" />
<path d="M1.6964 5.7364
L1.6488 5.8316
" />
<path d="M1.6488 5.8316
L1.6012 5.8793
" />
<path d="M1.6012 5.8793
L1.5060 5.9269
" />
<path d="M1.5060 5.9269
L1.1250 5.9269
" />
<path d="M2.5536 5.4031
L2.3631 5.4031
" />
<path d="M2.3631 5.4031
L2.2679 5.4507
" />
<path d="M2.2679 5.4507
L2.2202 5.4983
" />
<path d="M2.2202 5.4983
L2.1250 5.6412
" />
<path d="M2.1250 5.6412
L2.0774 5.8316
" />
<path d="M2.0774 5.8316
L2.0774 6.2126
" />
<path d="M2.0774 6.2126
L2.1250 6.3078
" />
<path d="M2.1250 6.3078
L2.1726 6.3554
" />
<path d="M2.1726 6.3554
L2.2679 6.4031
" />
<path d="M2.2679 6.4031
L2.4583 6.4031
" />
<path d="M2.4583 6.4031
L2.5536 6.3554
" />
<path d="M2.5536 6.3554
L2.6012 6.3078
" />
<path d="M2.6012 6.3078
L2.6488 6.2126
" />
<path d="M2.6488 6.2126
L2.6488 5.9745
" />
<path d="M2.6488 5.9745
L2.6012 5.8793
" />
<path d="M2.6012 5.8793
L2.5536 5.8316
" />
<path d="M2.5536 5.8316
L2.4583 5.7840
" />
<path d="M2.4583 5.7840
L2.2679 5.7840
" />
<path d="M2.2679 5.7840
L2.1726 5.8316
" />
<path d="M2.1726 5.8316
L2.1250 5.8793
" />
<path d="M2.1250 5.8793
L2.0774 5.9745
" />
</g><text x="10.4821" y="9.4482"
textLength="7.1071" font-size="1.3333" lengthAdjust="spacingAndGlyphs"
text-anchor="middle" opacity="0">TestPoint</text>
<g class="stroked-text"><desc>TestPoint</desc>
<path d="M7.1488 8.4031
L7.7202 8.4031
" />
<path d="M7.4345 9.4031
L7.4345 8.4031
" />
<path d="M8.4345 9.3554
L8.3393 9.4031
" />
<path d="M8.3393 9.4031
L8.1488 9.4031
" />
<path d="M8.1488 9.4031
L8.0536 9.3554
" />
<path d="M8.0536 9.3554
L8.0060 9.2602
" />
<path d="M8.0060 9.2602
L8.0060 8.8793
" />
<path d="M8.0060 8.8793
L8.0536 8.7840
" />
<path d="M8.0536 8.7840
L8.1488 8.7364
" />
<path d="M8.1488 8.7364
L8.3393 8.7364
" />
<path d="M8.3393 8.7364
L8.4345 8.7840
" />
<path d="M8.4345 8.7840
L8.4821 8.8793
" />
<path d="M8.4821 8.8793
L8.4821 8.9745
" />
<path d="M8.4821 8.9745
L8.0060 9.0697
" />
<path d="M8.8631 9.3554
L8.9583 9.4031
" />
<path d="M8.9583 9.4031
L9.1488 9.4031
" />
<path d="M9.1488 9.4031
L9.2440 9.3554
" />
<path d="M9.2440 9.3554
L9.2917 9.2602
" />
<path d="M9.2917 9.2602
L9.2917 9.2126
" />
<path d="M9.2917 9.2126
L9.2440 9.1174
" />
<path d="M9.2440 9.1174
L9.1488 9.0697
" />
<path d="M9.1488 9.0697
L9.0060 9.0697
" />
<path d="M9.0060 9.0697
L8.9107 9.0221
" />
<path d="M8.9107 9.0221
L8.8631 8.9269
" />
<path d="M8.8631 8.9269
L8.8631 8.8793
" />
<path d="M8.8631 8.8793
L8.9107 8.7840
" />
<path d="M8.9107 8.7840
L9.0060 8.7364
" />
<path d="M9.0060 8.7364
L9.1488 8.7364
" />
<path d="M9.1488 8.7364
L9.2440 8.7840
" />
<path d="M9.5774 8.7364
L9.9583 8.7364
" />
<path d="M9.7202 8.4031
L9.7202 9.2602
" />
<path d="M9.7202 9.2602
L9.7679 9.3554
" />
<path d="M9.7679 9.3554
L9.8631 9.4031
" />
<path d="M9.8631 9.4031
L9.9583 9.4031
" />
<path d="M10.2917 9.4031
L10.2917 8.4031
" />
<path d="M10.2917 8.4031
L10.6726 8.4031
" />
<path d="M10.6726 8.4031
L10.7679 8.4507
" />
<path d="M10.7679 8.4507
L10.8155 8.4983
" />
<path d="M10.8155 8.4983
L10.8631 8.5935
" />
<path d="M10.8631 8.5935
L10.8631 8.7364
" />
<path d="M10.8631 8.7364
L10.8155 8.8316
" />
<path d="M10.8155 8.8316
L10.7679 8.8793
" />
<path d="M10.7679 8.8793
L10.6726 8.9269
" />
<path d="M10.6726 8.9269
L10.2917 8.9269
" />
<path d="M11.4345 9.4031
L11.3393 9.3554
" />
<path d="M11.3393 9.3554
L11.2917 9.3078
" />
<path d="M11.2917 9.3078
L11.2440 9.2126
" />
<path d="M11.2440 9.2126
L11.2440 8.9269
" />
<path d="M11.2440 8.9269
L11.2917 8.8316
" />
<path d="M11.2917 8.8316
L11.3393 8.7840
" />
<path d="M11.3393 8.7840
L11.4345 8.7364
" />
<path d="M11.4345 8.7364
L11.5774 8.7364
" />
<path d="M11.5774 8.7364
L11.6726 8.7840
" />
<path d="M11.6726 8.7840
L11.7202 8.8316
" />
<path d="M11.7202 8.8316
L11.7679 8.9269
" />
<path d="M11.7679 8.9269
L11.7679 9.2126
" />
<path d="M11.7679 9.2126
L11.7202 9.3078
" />
<path d="M11.7202 9.3078
L11.6726 9.3554
" />
<path d="M11.6726 9.3554
L11.5774 9.4031
" />
<path d="M11.5774 9.4031
L11.4345 9.4031
" />
<path d="M12.1964 9.4031
L12.1964 8.7364
" />
<path d="M12.1964 8.4031
L12.1488 8.4507
" />
<path d="M12.1488 8.4507
L12.1964 8.4983
" />
<path d="M12.1964 8.4983
L12.2440 8.4507
" />
<path d="M12.2440 8.4507
L12.1964 8.4031
" />
<path d="M12.1964 8.4031
L12.1964 8.4983
" />
<path d="M12.6726 8.7364
L12.6726 9.4031
" />
<path d="M12.6726 8.8316
L12.7202 8.7840
" />
<path d="M12.7202 8.7840
L12.8155 8.7364
" />
<path d="M12.8155 8.7364
L12.9583 8.7364
" />
<path d="M12.9583 8.7364
L13.0536 8.7840
" />
<path d="M13.0536 8.7840
L13.1012 8.8793
" />
<path d="M13.1012 8.8793
L13.1012 9.4031
" />
<path d="M13.4345 8.7364
L13.8155 8.7364
" />
<path d="M13.5774 8.4031
L13.5774 9.2602
" />
<path d="M13.5774 9.2602
L13.6250 9.3554
" />
<path d="M13.6250 9.3554
L13.7202 9.4031
" />
<path d="M13.7202 9.4031
L13.8155 9.4031
" />
</g><text x="10.4821" y="6.4482"
textLength="2.9643" font-size="1.3333" lengthAdjust="spacingAndGlyphs"
text-anchor="middle" opacity="0">TP2</text>
<g class="stroked-text"><desc>TP2</desc>
<path d="M9.2202 5.4031
L9.7917 5.4031
" />
<path d="M9.5060 6.4031
L9.5060 5.4031
" />
<path d="M10.1250 6.4031
L10.1250 5.4031
" />
<path d="M10.1250 5.4031
L10.5060 5.4031
" />
<path d="M10.5060 5.4031
L10.6012 5.4507
" />
<path d="M10.6012 5.4507
L10.6488 5.4983
" />
<path d="M10.6488 5.4983
L10.6964 5.5935
" />
<path d="M10.6964 5.5935
L10.6964 5.7364
" />
<path d="M10.6964 5.7364
L10.6488 5.8316
" />
<path d="M10.6488 5.8316
L10.6012 5.8793
" />
<path d="M10.6012 5.8793
L10.5060 5.9269
" />
<path d="M10.5060 5.9269
L10.1250 5.9269
" />
<path d="M11.0774 5.4983
L11.1250 5.4507
" />
<path d="M11.1250 5.4507
L11.2202 5.4031
" />
<path d="M11.2202 5.4031
L11.4583 5.4031
" />
<path d="M11.4583 5.4031
L11.5536 5.4507
" />
<path d="M11.5536 5.4507
L11.6012 5.4983
" />
<path d="M11.6012 5.4983
L11.6488 5.5935
" />
<path d="M11.6488 5.5935
L11.6488 5.6888
" />
<path d="M11.6488 5.6888
L11.6012 5.8316
" />
<path d="M11.6012 5.8316
L11.0298 6.4031
" />
<path d="M11.0298 6.4031
L11.6488 6.4031
" />
</g></g>
<g style="fill:#505050; fill-opacity:0.0; 
stroke:#505050; stroke-width:0.1000; stroke-opacity:1; 
stroke-linecap:round; stroke-linejoin:round;">
<path d="M3.4821 10.9982
L2.4821 9.9982
" />
<path d="M9.4821 10.9982
L3.4821 10.9982
" />
<path d="M2.4821 9.9982
L2.4821 3.9982
" />
<path d="M2.4821 3.9982
L9.4821 3.9982
" />
<path d="M9.4821 3.9982
L9.4821 10.9982
" />
<g >
</g>
<g >
</g>
<g >
</g>
<g >
</g>
<g >
</g>
<g >
</g>
<g >
</g>
<g >
</g>
<g >
</g>
<g >
</g>
</g>
<g style="fill:#FFFFFF; fill-opacity:0.0; 
stroke:#FFFFFF; stroke-width:0.1000; stroke-opacity:1; 
stroke-linecap:round; stroke-linejoin:round;">
<g >
</g>
<g >
</g>
<g >
</g>
<g >
</g>
<g >
</g>
<g >
</g>
<g >
</g>
<g >
</g>
<g >
</g>
<g >
</g>
</g>
<g style="fill:#FFFFFF; fill-opacity:0.0; 
stroke:#FFFFFF; stroke-width:0.1000; stroke-opacity:1; 
stroke-linecap:round; stroke-linejoin:round;">
<g >
</g>
<g >
</g>
<g >
</g>
<g >
</g>
<g >
</g>
<g >
</g>
<g >
</g>
<g >
</g>
<g >
</g>
<g >
</g>
</g>
<g style="fill:#FFFFFF; fill-opacity:0.0; 
stroke:#FFFFFF; stroke-width:0.1000; stroke-opacity:1; 
stroke-linecap:round; stroke-linejoin:round;">
<g >
</g>
<g >
</g>
<g >
</g>
<g >
</g>
<g >
</g>
<g >
</g>
<g >
</g>
<g >
</g>
<g >
</g>
<g >
</g>
</g>
<g style="fill:#FFFFFF; fill-opacity:0.0; 
stroke:#FFFFFF; stroke-width:0.1000; stroke-opacity:1; 
stroke-linecap:round; stroke-linejoin:round;">
<g >
</g>
<g >
</g>
<g >
</g>
<g >
</g>
<g >
</g>
<g >
</g>
<g >
</g>
<g >
</g>
<g >
</g>
<g >
</g>
</g>
<g style="fill:#FFFFFF; fill-opacity:0.0; 
stroke:#FFFFFF; stroke-width:0.1000; stroke-opacity:1; 
stroke-linecap:round; stroke-linejoin:round;">
<g >
</g>
<g >
</g>
<g >
</g>
<g >
</g>
<g >
</g>
<g >
</g>
<g >
</g>
<g >
</g>
<g >
</g>
<g >
</g>
</g>
<g style="fill:#FFFFFF; fill-opacity:0.0; 
stroke:#FFFFFF; stroke-width:0.1000; stroke-opacity:1; 
stroke-linecap:round; stroke-linejoin:round;">
</g>
<g style="fill:#2F2D31; fill-opacity:0.0; 
stroke:#2F2D31; stroke-width:0.1000; stroke-opacity:1; 
stroke-linecap:round; stroke-linejoin:round;">
<path d="M1.4821 1.6482
L1.4821 12.5482
" />
<path d="M10.4821 1.6482
L1.4821 1.6482
" />
<path d="M2.4821 13.5482
L9.4821 13.5482
" />
<path d="M10.4821 12.5482
L10.4821 1.6482
" />
<path d="M9.4821 13.5482 A1.0000 1.0000 0.0 0 0 10.4821 12.5482" />
<path d="M1.4821 12.5482 A1.0000 1.0000 0.0 0 0 2.4821 13.5482" />
</g>
<g style="fill:#2F2D31; fill-opacity:0.0; 
stroke:#2F2D31; stroke-width:0.1200; stroke-opacity:1; 
stroke-linecap:round; stroke-linejoin:round;">
<circle cx="8.9821" cy="10.4982" r="0.5000" /> 
<circle cx="2.9821" cy="4.4982" r="0.5000" /> 
<g >
</g>
<g >
</g>
<g >
</g>
<g >
</g>
<g >
</g>
<g >
</g>
<g >
</g>
<g >
</g>
<g >
</g>
<g >
</g>
</g> 
</svg>
