<?xml version="1.0" standalone="no"?>
 <!DOCTYPE svg PUBLIC "-//W3C//DTD SVG 1.1//EN" 
 "http://www.w3.org/Graphics/SVG/1.1/DTD/svg11.dtd"> 
<svg
  xmlns:svg="http://www.w3.org/2000/svg"
  xmlns="http://www.w3.org/2000/svg"
  xmlns:xlink="http://www.w3.org/1999/xlink"
  version="1.1"
  width="26.1874mm" height="28.1432mm" viewBox="0.0000 0.0000 26.1874 28.1432">
<title>SVG Image created as working-brd.svg date 2023/09/25 20:34:37 </title>
  <desc>Image generated by PCBNEW </desc>
<g style="fill:#000000; fill-opacity:1.0000;stroke:#000000; stroke-opacity:1.0000;
stroke-linecap:round; stroke-linejoin:round;"
 transform="translate(0 0) scale(1 1)">
</g>
<g style="fill:#000000; fill-opacity:0.0; 
stroke:#000000; stroke-width:0.0000; stroke-opacity:1; 
stroke-linecap:round; stroke-linejoin:round;">
</g>
<g style="fill:#000000; fill-opacity:1.0000; 
stroke:#000000; stroke-width:0.0212; stroke-opacity:1; 
stroke-linecap:round; stroke-linejoin:round;">
<rect x="-5.000000" y="-5.000000" width="36.197008" height="38.148250" rx="0.000000" />
</g>
<g style="fill:#FFFFFF; fill-opacity:1.0000; 
stroke:#FFFFFF; stroke-width:0.0212; stroke-opacity:1; 
stroke-linecap:round; stroke-linejoin:round;">
<g >
</g>
<g style="fill:#B2803A; fill-opacity:1.0000; 
stroke:#B2803A; stroke-width:0.0212; stroke-opacity:1; 
stroke-linecap:round; stroke-linejoin:round;">
</g>
<g style="fill:#B2803A; fill-opacity:1.0000; 
stroke:#B2803A; stroke-width:0.0000; stroke-opacity:1; 
stroke-linecap:round; stroke-linejoin:round;">
<path style="fill:#B2803A; fill-opacity:1.0000; 
stroke:#B2803A; stroke-width:0.0000; stroke-opacity:1; 
stroke-linecap:round; stroke-linejoin:round;fill-rule:evenodd;"
d="M 11.4871,11.4620
11.4871,9.9380
13.0111,9.9380
13.0111,11.4620
Z" /> 
<circle cx="12.2492" cy="12.7000" r="0.7620" /> 
</g>
<g style="fill:#B2803A; fill-opacity:1.0000; 
stroke:#B2803A; stroke-width:0.0212; stroke-opacity:1; 
stroke-linecap:round; stroke-linejoin:round;">
</g>
<g style="fill:#B2803A; fill-opacity:1.0000; 
stroke:#B2803A; stroke-width:0.0000; stroke-opacity:1; 
stroke-linecap:round; stroke-linejoin:round;">
<circle cx="12.2492" cy="14.7000" r="0.7620" /> 
</g>
<g style="fill:#B2803A; fill-opacity:1.0000; 
stroke:#B2803A; stroke-width:0.0212; stroke-opacity:1; 
stroke-linecap:round; stroke-linejoin:round;">
</g>
<g style="fill:#B2803A; fill-opacity:1.0000; 
stroke:#B2803A; stroke-width:0.0000; stroke-opacity:1; 
stroke-linecap:round; stroke-linejoin:round;">
<circle cx="12.2492" cy="16.7000" r="0.7620" /> 
</g>
<g style="fill:#B2803A; fill-opacity:1.0000; 
stroke:#B2803A; stroke-width:0.0212; stroke-opacity:1; 
stroke-linecap:round; stroke-linejoin:round;">
</g>
<g >
</g>
<g style="fill:#B2803A; fill-opacity:1.0000; 
stroke:#B2803A; stroke-width:0.0212; stroke-opacity:1; 
stroke-linecap:round; stroke-linejoin:round;">
</g>
<g style="fill:#B2803A; fill-opacity:1.0000; 
stroke:#B2803A; stroke-width:0.0000; stroke-opacity:1; 
stroke-linecap:round; stroke-linejoin:round;">
<circle cx="14.9291" cy="4.0250" r="3.2000" /> 
</g>
<g style="fill:#B2803A; fill-opacity:1.0000; 
stroke:#B2803A; stroke-width:0.0212; stroke-opacity:1; 
stroke-linecap:round; stroke-linejoin:round;">
</g>
<g >
</g>
<g style="fill:#B2803A; fill-opacity:1.0000; 
stroke:#B2803A; stroke-width:0.0212; stroke-opacity:1; 
stroke-linecap:round; stroke-linejoin:round;">
</g>
<g style="fill:#B2803A; fill-opacity:1.0000; 
stroke:#B2803A; stroke-width:0.0000; stroke-opacity:1; 
stroke-linecap:round; stroke-linejoin:round;">
<circle cx="14.6291" cy="23.1000" r="3.2000" /> 
</g>
<g style="fill:#B2803A; fill-opacity:1.0000; 
stroke:#B2803A; stroke-width:0.0212; stroke-opacity:1; 
stroke-linecap:round; stroke-linejoin:round;">
</g>
<g >
</g>
<g style="fill:#B2803A; fill-opacity:1.0000; 
stroke:#B2803A; stroke-width:0.0212; stroke-opacity:1; 
stroke-linecap:round; stroke-linejoin:round;">
</g>
<g style="fill:#B2803A; fill-opacity:1.0000; 
stroke:#B2803A; stroke-width:0.0000; stroke-opacity:1; 
stroke-linecap:round; stroke-linejoin:round;">
<path style="fill:#B2803A; fill-opacity:1.0000; 
stroke:#B2803A; stroke-width:0.0000; stroke-opacity:1; 
stroke-linecap:round; stroke-linejoin:round;fill-rule:evenodd;"
d="M 14.6421,11.4370
14.6421,9.9130
16.1661,9.9130
16.1661,11.4370
Z" /> 
<circle cx="15.4041" cy="12.6750" r="0.7620" /> 
</g>
<g style="fill:#B2803A; fill-opacity:1.0000; 
stroke:#B2803A; stroke-width:0.0212; stroke-opacity:1; 
stroke-linecap:round; stroke-linejoin:round;">
</g>
<g style="fill:#B2803A; fill-opacity:1.0000; 
stroke:#B2803A; stroke-width:0.0000; stroke-opacity:1; 
stroke-linecap:round; stroke-linejoin:round;">
<circle cx="15.4041" cy="14.6750" r="0.7620" /> 
</g>
<g style="fill:#B2803A; fill-opacity:1.0000; 
stroke:#B2803A; stroke-width:0.0212; stroke-opacity:1; 
stroke-linecap:round; stroke-linejoin:round;">
</g>
<g style="fill:#B2803A; fill-opacity:1.0000; 
stroke:#B2803A; stroke-width:0.0000; stroke-opacity:1; 
stroke-linecap:round; stroke-linejoin:round;">
<circle cx="15.4041" cy="16.6750" r="0.7620" /> 
</g>
<g style="fill:#B2803A; fill-opacity:1.0000; 
stroke:#B2803A; stroke-width:0.0212; stroke-opacity:1; 
stroke-linecap:round; stroke-linejoin:round;">
</g>
<g >
</g>
<g style="fill:#B2803A; fill-opacity:1.0000; 
stroke:#B2803A; stroke-width:0.0212; stroke-opacity:1; 
stroke-linecap:round; stroke-linejoin:round;">
</g>
<g style="fill:#B2803A; fill-opacity:1.0000; 
stroke:#B2803A; stroke-width:0.0000; stroke-opacity:1; 
stroke-linecap:round; stroke-linejoin:round;">
<path style="fill:#B2803A; fill-opacity:1.0000; 
stroke:#B2803A; stroke-width:0.0000; stroke-opacity:1; 
stroke-linecap:round; stroke-linejoin:round;fill-rule:evenodd;"
d="M 10.7161,9.9130
10.7161,11.4370
9.1921,11.4370
9.1921,9.9130
Z" /> 
<circle cx="9.9542" cy="12.6750" r="0.7620" /> 
</g>
<g style="fill:#B2803A; fill-opacity:1.0000; 
stroke:#B2803A; stroke-width:0.0212; stroke-opacity:1; 
stroke-linecap:round; stroke-linejoin:round;">
</g>
<g style="fill:#B2803A; fill-opacity:1.0000; 
stroke:#B2803A; stroke-width:0.0000; stroke-opacity:1; 
stroke-linecap:round; stroke-linejoin:round;">
<circle cx="9.9542" cy="14.6750" r="0.7620" /> 
</g>
<g style="fill:#B2803A; fill-opacity:1.0000; 
stroke:#B2803A; stroke-width:0.0212; stroke-opacity:1; 
stroke-linecap:round; stroke-linejoin:round;">
</g>
<g style="fill:#B2803A; fill-opacity:1.0000; 
stroke:#B2803A; stroke-width:0.0000; stroke-opacity:1; 
stroke-linecap:round; stroke-linejoin:round;">
<circle cx="9.9542" cy="16.6750" r="0.7620" /> 
</g>
<g style="fill:#B2803A; fill-opacity:1.0000; 
stroke:#B2803A; stroke-width:0.0212; stroke-opacity:1; 
stroke-linecap:round; stroke-linejoin:round;">
</g>
<g >
</g>
<g >
</g>
<g >
</g>
<g style="fill:#B2803A; fill-opacity:1.0000; 
stroke:#B2803A; stroke-width:0.0212; stroke-opacity:1; 
stroke-linecap:round; stroke-linejoin:round;">
<g >
</g>
<g style="fill:#B2803A; fill-opacity:1.0000; 
stroke:#B2803A; stroke-width:0.0000; stroke-opacity:1; 
stroke-linecap:round; stroke-linejoin:round;">
<path style="fill:#B2803A; fill-opacity:1.0000; 
stroke:#B2803A; stroke-width:0.0000; stroke-opacity:1; 
stroke-linecap:round; stroke-linejoin:round;fill-rule:evenodd;"
d="M 11.1791,15.3915
11.1961,15.4112
11.2722,15.5198
11.2722,15.5198
11.4294,15.6770
11.4294,15.6770
11.4294,15.6770
11.5333,15.7497
11.6115,15.8045
11.7813,15.8837
11.8171,15.9088
12.0816,16.1733
12.1157,16.2356
12.1106,16.3064
12.0681,16.3633
12.0525,16.3732
12.0119,16.3952
11.9258,16.4887
11.9258,16.4887
11.9245,16.4916
11.9217,16.4949
11.9201,16.4975
11.9198,16.4973
11.8788,16.5460
11.8110,16.5670
11.7426,16.5480
11.7200,16.5301
11.1893,15.9994
11.1679,16.0013
11.1581,16.0090
11.0875,16.0164
11.0242,15.9843
11.0157,15.9745
11.0140,15.9744
10.4811,16.5073
10.4188,16.5413
10.3479,16.5362
10.2911,16.4937
10.2865,16.4871
10.2383,16.4134
10.2383,16.4134
10.1828,16.3702
10.1380,16.3353
10.1380,16.3353
10.1362,16.3339
10.0948,16.2763
10.0910,16.2054
10.1245,16.1454
10.3862,15.8838
10.4220,15.8587
10.5918,15.7795
10.7739,15.6520
10.9311,15.4948
10.9897,15.4111
11.0451,15.3668
11.1158,15.3595
Z" /> 
<path style="fill:#B2803A; fill-opacity:1.0000; 
stroke:#B2803A; stroke-width:0.0000; stroke-opacity:1; 
stroke-linecap:round; stroke-linejoin:round;fill-rule:evenodd;"
d="M 14.6965,0.0950
14.7430,0.1487
14.7531,0.2189
14.7236,0.2835
14.6639,0.3219
14.6350,0.3268
14.5410,0.3318
14.1571,0.3926
13.7816,0.4932
13.4187,0.6325
13.4187,0.6325
13.0724,0.8089
12.7464,1.0206
12.7463,1.0206
12.4443,1.2653
12.4443,1.2653
12.1694,1.5401
12.1694,1.5401
11.9248,1.8422
11.9248,1.8422
11.7131,2.1682
11.5366,2.5145
11.5366,2.5146
11.3973,2.8774
11.2967,3.2529
11.2359,3.6368
11.2156,4.0250
11.2156,4.0250
11.2359,4.4132
11.2967,4.7971
11.3973,5.1726
11.5366,5.5354
11.5366,5.5355
11.7131,5.8818
11.9248,6.2078
11.9248,6.2078
12.1694,6.5099
12.1694,6.5099
12.4443,6.7847
12.4443,6.7847
12.7463,7.0293
12.7464,7.0294
12.9303,7.1488
13.0724,7.2411
13.4187,7.4175
13.4187,7.4175
13.4187,7.4175
13.7816,7.5568
13.7816,7.5568
13.7816,7.5568
14.1571,7.6574
14.5410,7.7182
14.5410,7.7182
14.5410,7.7182
14.9291,7.7386
14.9291,7.7386
14.9292,7.7386
15.3173,7.7182
15.3173,7.7182
15.3173,7.7182
15.7012,7.6574
16.0767,7.5568
16.0767,7.5568
16.0767,7.5568
16.4396,7.4175
16.4396,7.4175
16.4396,7.4175
16.7859,7.2411
17.1119,7.0294
17.1120,7.0293
17.4140,6.7847
17.4140,6.7847
17.4140,6.7847
17.6889,6.5099
17.6889,6.5099
17.6889,6.5099
17.9335,6.2078
17.9335,6.2078
17.9335,6.2078
18.1452,5.8818
18.3217,5.5355
18.4610,5.1726
18.5616,4.7971
18.6224,4.4132
18.6224,4.4132
18.6224,4.4132
18.6427,4.0250
18.6427,4.0250
18.6224,3.6368
18.5616,3.2529
18.4610,2.8774
18.3217,2.5146
18.3217,2.5145
18.3217,2.5145
18.1452,2.1682
17.9335,1.8422
17.9335,1.8422
17.9335,1.8422
17.6889,1.5401
17.6889,1.5401
17.4140,1.2653
17.4140,1.2653
17.1120,1.0206
17.1119,1.0206
16.7859,0.8089
16.4396,0.6325
16.4396,0.6325
16.0767,0.4932
15.7012,0.3926
15.3173,0.3318
15.2233,0.3268
15.1563,0.3033
15.1127,0.2473
15.1063,0.1766
15.1391,0.1136
15.2008,0.0784
15.2299,0.0750
20.3284,0.0750
20.3965,0.0950
20.4430,0.1487
20.4544,0.2008
20.5039,26.8556
20.5039,26.8733
20.4840,26.9414
20.4305,26.9880
20.3779,26.9995
15.3161,26.9995
15.2479,26.9795
15.2015,26.9258
15.1914,26.8556
15.2208,26.7910
15.2806,26.7526
15.2964,26.7491
15.3127,26.7465
15.4012,26.7324
15.7767,26.6318
15.7767,26.6318
15.7767,26.6318
16.1396,26.4925
16.1396,26.4925
16.1396,26.4925
16.4859,26.3161
16.8119,26.1044
16.8120,26.1044
17.1140,25.8597
17.1140,25.8597
17.1140,25.8597
17.3889,25.5849
17.3889,25.5849
17.3889,25.5849
17.6335,25.2828
17.6335,25.2828
17.6335,25.2828
17.8452,24.9568
18.0217,24.6105
18.1610,24.2476
18.2616,23.8721
18.3224,23.4882
18.3224,23.4882
18.3224,23.4882
18.3427,23.1000
18.3427,23.1000
18.3224,22.7118
18.2616,22.3279
18.1610,21.9524
18.0217,21.5896
18.0217,21.5895
18.0217,21.5895
17.8452,21.2432
17.6335,20.9172
17.6335,20.9172
17.6335,20.9172
17.3889,20.6151
17.3889,20.6151
17.1140,20.3403
17.1140,20.3403
16.8120,20.0956
16.8119,20.0956
16.4859,19.8839
16.1396,19.7075
16.1396,19.7075
15.7767,19.5682
15.4012,19.4676
15.0173,19.4068
14.6292,19.3864
14.6291,19.3864
14.2410,19.4068
13.8571,19.4676
13.4816,19.5682
13.1187,19.7075
13.1187,19.7075
12.7724,19.8839
12.4464,20.0956
12.4463,20.0956
12.1443,20.3403
12.1443,20.3403
11.8694,20.6151
11.8694,20.6151
11.6248,20.9172
11.6248,20.9172
11.4131,21.2432
11.2366,21.5895
11.2366,21.5896
11.0973,21.9524
10.9967,22.3279
10.9359,22.7118
10.9156,23.1000
10.9156,23.1000
10.9359,23.4882
10.9967,23.8721
11.0973,24.2476
11.2366,24.6104
11.2366,24.6105
11.4131,24.9568
11.6248,25.2828
11.6248,25.2828
11.8694,25.5849
11.8694,25.5849
12.1443,25.8597
12.1443,25.8597
12.4463,26.1044
12.4464,26.1044
12.6303,26.2238
12.7724,26.3161
13.1187,26.4925
13.1187,26.4925
13.1187,26.4925
13.4816,26.6318
13.4816,26.6318
13.4816,26.6318
13.8571,26.7324
13.9336,26.7446
13.9619,26.7491
14.0261,26.7795
14.0636,26.8397
14.0626,26.9107
14.0234,26.9699
13.9584,26.9985
13.9422,26.9995
1.7806,26.9995
1.7125,26.9795
1.6660,26.9258
1.6546,26.8735
1.6546,14.6750
8.6788,14.6750
8.6982,14.8965
8.7049,14.9215
8.7557,15.1112
8.7557,15.1112
8.8497,15.3127
8.8497,15.3127
8.9772,15.4948
8.9772,15.4948
8.9772,15.4948
9.1344,15.6520
9.1344,15.6520
9.1344,15.6520
9.1701,15.6770
9.3165,15.7795
9.4863,15.8587
9.5221,15.8838
9.7866,16.1483
9.8207,16.2106
9.8156,16.2814
9.7731,16.3382
9.7575,16.3482
9.7169,16.3702
9.6308,16.4637
9.6308,16.4637
9.6295,16.4666
9.6267,16.4699
9.6251,16.4725
9.6248,16.4723
9.5838,16.5210
9.5160,16.5420
9.4476,16.5230
9.4250,16.5051
8.8943,15.9744
8.8501,16.0376
8.7562,16.2390
8.7562,16.2390
8.6987,16.4536
8.6793,16.6750
8.6987,16.8964
8.7562,17.1110
8.7562,17.1110
8.8501,17.3124
8.8943,17.3756
8.8943,17.3756
9.4272,16.8427
9.4895,16.8087
9.5603,16.8138
9.6172,16.8563
9.6218,16.8629
9.6700,16.9366
9.6700,16.9366
9.6700,16.9366
9.6700,16.9366
9.7703,17.0147
9.7703,17.0147
9.7721,17.0161
9.8135,17.0737
9.8173,17.1446
9.7838,17.2046
9.2535,17.7348
9.2535,17.7348
9.3167,17.7791
9.3167,17.7791
9.5181,17.8730
9.5181,17.8730
9.7328,17.9305
9.9542,17.9498
10.1755,17.9305
10.3902,17.8730
10.3902,17.8730
10.5916,17.7791
10.5916,17.7791
10.6548,17.7348
10.6548,17.7348
10.1217,17.2017
10.0876,17.1394
10.0927,17.0686
10.1352,17.0117
10.1508,17.0018
10.1914,16.9798
10.2775,16.8863
10.2788,16.8834
10.2816,16.8801
10.2832,16.8775
10.2835,16.8777
10.3245,16.8290
10.3923,16.8080
10.4607,16.8270
10.4833,16.8449
11.0140,17.3756
11.0354,17.3737
11.0451,17.3660
11.1158,17.3586
11.1791,17.3907
11.1876,17.4005
11.1893,17.4006
11.7222,16.8677
11.7845,16.8337
11.8553,16.8388
11.9122,16.8813
11.9168,16.8879
11.9650,16.9616
11.9650,16.9616
11.9650,16.9616
11.9650,16.9616
12.0653,17.0397
12.0653,17.0397
12.0671,17.0411
12.1085,17.0987
12.1123,17.1696
12.0788,17.2296
11.5485,17.7598
11.5485,17.7598
11.6117,17.8041
11.6117,17.8041
11.8131,17.8980
11.8131,17.8980
12.0278,17.9555
12.2492,17.9748
12.4705,17.9555
12.6852,17.8980
12.6852,17.8980
12.8866,17.8041
12.8866,17.8041
12.9498,17.7598
12.9498,17.7598
12.4167,17.2267
12.3826,17.1644
12.3877,17.0936
12.4302,17.0367
12.4458,17.0268
12.4864,17.0048
12.5725,16.9113
12.5738,16.9084
12.5766,16.9051
12.5782,16.9025
12.5785,16.9027
12.6195,16.8540
12.6873,16.8330
12.7557,16.8520
12.7783,16.8699
13.3090,17.4006
13.3090,17.4006
13.3532,17.3374
13.3532,17.3374
13.4471,17.1360
13.4471,17.1360
13.5046,16.9214
13.5240,16.7000
13.5046,16.4786
13.4471,16.2640
13.4471,16.2640
13.3532,16.0626
13.3090,15.9994
13.3090,15.9994
12.7761,16.5323
12.7138,16.5663
12.6429,16.5612
12.5861,16.5187
12.5815,16.5121
12.5333,16.4384
12.5333,16.4384
12.5333,16.4384
12.4330,16.3603
12.4330,16.3603
12.4312,16.3589
12.3898,16.3013
12.3860,16.2304
12.4195,16.1704
12.6812,15.9088
12.7170,15.8837
12.8868,15.8045
13.0689,15.6770
13.2261,15.5198
13.3536,15.3377
13.4476,15.1362
13.5051,14.9215
13.5245,14.7000
13.5223,14.6750
14.1288,14.6750
14.1482,14.8965
14.1549,14.9215
14.2057,15.1112
14.2057,15.1112
14.2997,15.3127
14.2997,15.3127
14.4272,15.4948
14.4272,15.4948
14.4272,15.4948
14.5844,15.6520
14.5844,15.6520
14.5844,15.6520
14.6201,15.6770
14.7665,15.7795
14.9363,15.8587
14.9721,15.8838
15.2366,16.1483
15.2707,16.2106
15.2656,16.2814
15.2231,16.3382
15.2075,16.3482
15.1669,16.3702
15.0808,16.4637
15.0808,16.4637
15.0795,16.4666
15.0767,16.4699
15.0751,16.4725
15.0748,16.4723
15.0338,16.5210
14.9660,16.5420
14.8976,16.5230
14.8750,16.5051
14.3443,15.9744
14.3001,16.0376
14.2062,16.2390
14.2062,16.2390
14.1487,16.4536
14.1293,16.6750
14.1487,16.8964
14.2062,17.1110
14.2062,17.1110
14.3001,17.3124
14.3443,17.3756
14.3443,17.3756
14.8772,16.8427
14.9395,16.8087
15.0103,16.8138
15.0672,16.8563
15.0718,16.8629
15.1200,16.9366
15.1200,16.9366
15.1200,16.9366
15.1200,16.9366
15.2203,17.0147
15.2203,17.0147
15.2221,17.0161
15.2635,17.0737
15.2673,17.1446
15.2338,17.2046
14.7035,17.7348
14.7035,17.7348
14.7667,17.7791
14.7667,17.7791
14.9681,17.8730
14.9681,17.8730
15.1828,17.9305
15.4041,17.9498
15.6255,17.9305
15.8402,17.8730
15.8402,17.8730
16.0416,17.7791
16.0416,17.7791
16.1048,17.7348
16.1048,17.7348
15.5717,17.2017
15.5376,17.1394
15.5427,17.0686
15.5852,17.0117
15.6008,17.0018
15.6414,16.9798
15.7275,16.8863
15.7288,16.8834
15.7316,16.8801
15.7332,16.8775
15.7335,16.8777
15.7745,16.8290
15.8423,16.8080
15.9107,16.8270
15.9333,16.8449
16.4640,17.3756
16.4640,17.3756
16.5082,17.3124
16.5082,17.3124
16.6021,17.1110
16.6021,17.1110
16.6596,16.8964
16.6790,16.6750
16.6596,16.4536
16.6021,16.2390
16.6021,16.2390
16.5082,16.0376
16.4640,15.9744
16.4640,15.9744
15.9311,16.5073
15.8688,16.5413
15.7979,16.5362
15.7411,16.4937
15.7365,16.4871
15.6883,16.4134
15.6883,16.4134
15.6328,16.3702
15.5880,16.3353
15.5880,16.3353
15.5862,16.3339
15.5448,16.2763
15.5410,16.2054
15.5745,16.1454
15.8362,15.8838
15.8720,15.8587
16.0418,15.7795
16.2239,15.6520
16.3811,15.4948
16.5086,15.3127
16.6026,15.1112
16.6601,14.8965
16.6795,14.6750
16.6601,14.4535
16.6026,14.2388
16.5086,14.0373
16.3811,13.8552
16.2900,13.7641
16.2560,13.7018
16.2610,13.6310
16.2900,13.5859
16.2900,13.5859
16.3811,13.4948
16.5086,13.3127
16.6026,13.1112
16.6601,12.8965
16.6795,12.6750
16.6601,12.4535
16.6026,12.2388
16.5086,12.0373
16.4769,11.9920
16.4542,11.9247
16.4715,11.8558
16.5046,11.8188
16.5294,11.8003
16.6170,11.6832
16.6681,11.5462
16.6720,11.5106
16.6746,11.4856
16.6746,11.4856
16.6746,9.8644
16.6746,9.8643
16.6681,9.8038
16.6681,9.8038
16.6264,9.6918
16.6170,9.6668
16.6170,9.6668
16.6170,9.6668
16.5294,9.5497
16.4124,9.4621
16.4124,9.4621
16.2754,9.4110
16.2753,9.4110
16.2148,9.4045
16.2148,9.4045
14.5935,9.4045
14.5935,9.4045
14.5330,9.4110
14.5329,9.4110
14.3959,9.4621
14.3959,9.4621
14.2789,9.5497
14.1913,9.6668
14.1913,9.6668
14.1402,9.8038
14.1402,9.8038
14.1336,9.8643
14.1336,11.4856
14.1402,11.5462
14.1402,11.5462
14.1913,11.6832
14.1913,11.6832
14.2789,11.8003
14.3037,11.8188
14.3463,11.8757
14.3513,11.9465
14.3314,11.9920
14.2997,12.0373
14.2057,12.2388
14.2057,12.2388
14.1790,12.3385
14.1482,12.4535
14.1288,12.6750
14.1482,12.8965
14.1549,12.9215
14.2057,13.1112
14.2057,13.1112
14.2997,13.3127
14.2997,13.3127
14.4272,13.4948
14.4272,13.4948
14.4272,13.4948
14.5183,13.5859
14.5523,13.6482
14.5473,13.7190
14.5183,13.7641
14.4272,13.8552
14.2997,14.0373
14.2057,14.2388
14.2057,14.2388
14.1790,14.3385
14.1482,14.4535
14.1288,14.6750
13.5223,14.6750
13.5051,14.4785
13.4476,14.2638
13.3536,14.0623
13.2261,13.8802
13.1350,13.7891
13.1010,13.7268
13.1060,13.6560
13.1350,13.6109
13.2261,13.5198
13.3536,13.3377
13.4476,13.1362
13.5051,12.9215
13.5245,12.7000
13.5051,12.4785
13.4476,12.2638
13.3536,12.0623
13.3219,12.0170
13.2992,11.9497
13.3165,11.8808
13.3496,11.8438
13.3744,11.8253
13.4620,11.7082
13.5131,11.5712
13.5158,11.5462
13.5196,11.5106
13.5196,11.5106
13.5196,9.8894
13.5196,9.8894
13.5131,9.8288
13.5131,9.8288
13.4620,9.6918
13.4620,9.6918
13.3744,9.5747
13.2574,9.4871
13.2574,9.4871
13.1204,9.4360
13.1203,9.4360
13.0598,9.4295
13.0598,9.4295
11.4385,9.4295
11.4385,9.4295
11.3780,9.4360
11.3779,9.4360
11.2409,9.4871
11.2409,9.4871
11.1939,9.5224
11.1273,9.5472
11.0580,9.5321
11.0428,9.5224
10.9624,9.4621
10.9624,9.4621
10.8254,9.4110
10.8253,9.4110
10.7648,9.4045
10.7648,9.4045
9.1435,9.4045
9.1435,9.4045
9.0830,9.4110
9.0829,9.4110
8.9459,9.4621
8.9459,9.4621
8.8289,9.5497
8.7413,9.6668
8.7413,9.6668
8.6902,9.8038
8.6902,9.8038
8.6837,9.8643
8.6837,11.4856
8.6902,11.5462
8.6902,11.5462
8.7413,11.6832
8.7413,11.6832
8.8289,11.8003
8.8537,11.8188
8.8963,11.8757
8.9013,11.9465
8.8814,11.9920
8.8497,12.0373
8.7557,12.2388
8.7557,12.2388
8.7290,12.3385
8.6982,12.4535
8.6788,12.6750
8.6982,12.8965
8.7049,12.9215
8.7557,13.1112
8.7557,13.1112
8.8497,13.3127
8.8497,13.3127
8.9772,13.4948
8.9772,13.4948
8.9772,13.4948
9.0683,13.5859
9.0683,13.5859
9.1023,13.6482
9.0973,13.7190
9.0683,13.7641
8.9772,13.8552
8.8497,14.0373
8.7557,14.2388
8.7557,14.2388
8.7290,14.3385
8.6982,14.4535
8.6788,14.6750
1.6546,14.6750
1.6546,0.2010
1.6747,0.1329
1.7283,0.0864
1.7806,0.0750
14.6284,0.0750
Z" /> 
</g>
</g>
</g>
<g style="fill:#000000; fill-opacity:1.0000; 
stroke:#000000; stroke-width:0.0000; stroke-opacity:1; 
stroke-linecap:round; stroke-linejoin:round;">
<circle cx="12.2492" cy="10.7000" r="0.3810" /> 
</g>
<g style="fill:#000000; fill-opacity:1.0000; 
stroke:#000000; stroke-width:0.0212; stroke-opacity:1; 
stroke-linecap:round; stroke-linejoin:round;">
</g>
<g style="fill:#000000; fill-opacity:1.0000; 
stroke:#000000; stroke-width:0.0000; stroke-opacity:1; 
stroke-linecap:round; stroke-linejoin:round;">
<circle cx="12.2492" cy="12.7000" r="0.3810" /> 
</g>
<g style="fill:#000000; fill-opacity:1.0000; 
stroke:#000000; stroke-width:0.0212; stroke-opacity:1; 
stroke-linecap:round; stroke-linejoin:round;">
</g>
<g style="fill:#000000; fill-opacity:1.0000; 
stroke:#000000; stroke-width:0.0000; stroke-opacity:1; 
stroke-linecap:round; stroke-linejoin:round;">
<circle cx="12.2492" cy="14.7000" r="0.3810" /> 
</g>
<g style="fill:#000000; fill-opacity:1.0000; 
stroke:#000000; stroke-width:0.0212; stroke-opacity:1; 
stroke-linecap:round; stroke-linejoin:round;">
</g>
<g style="fill:#000000; fill-opacity:1.0000; 
stroke:#000000; stroke-width:0.0000; stroke-opacity:1; 
stroke-linecap:round; stroke-linejoin:round;">
<circle cx="12.2492" cy="16.7000" r="0.3810" /> 
</g>
<g style="fill:#000000; fill-opacity:1.0000; 
stroke:#000000; stroke-width:0.0212; stroke-opacity:1; 
stroke-linecap:round; stroke-linejoin:round;">
</g>
<g style="fill:#000000; fill-opacity:1.0000; 
stroke:#000000; stroke-width:0.0000; stroke-opacity:1; 
stroke-linecap:round; stroke-linejoin:round;">
<circle cx="14.9291" cy="4.0250" r="1.6000" /> 
</g>
<g style="fill:#000000; fill-opacity:1.0000; 
stroke:#000000; stroke-width:0.0212; stroke-opacity:1; 
stroke-linecap:round; stroke-linejoin:round;">
</g>
<g style="fill:#000000; fill-opacity:1.0000; 
stroke:#000000; stroke-width:0.0000; stroke-opacity:1; 
stroke-linecap:round; stroke-linejoin:round;">
<circle cx="14.6291" cy="23.1000" r="1.6000" /> 
</g>
<g style="fill:#000000; fill-opacity:1.0000; 
stroke:#000000; stroke-width:0.0212; stroke-opacity:1; 
stroke-linecap:round; stroke-linejoin:round;">
</g>
<g style="fill:#000000; fill-opacity:1.0000; 
stroke:#000000; stroke-width:0.0000; stroke-opacity:1; 
stroke-linecap:round; stroke-linejoin:round;">
<circle cx="15.4041" cy="10.6750" r="0.3810" /> 
</g>
<g style="fill:#000000; fill-opacity:1.0000; 
stroke:#000000; stroke-width:0.0212; stroke-opacity:1; 
stroke-linecap:round; stroke-linejoin:round;">
</g>
<g style="fill:#000000; fill-opacity:1.0000; 
stroke:#000000; stroke-width:0.0000; stroke-opacity:1; 
stroke-linecap:round; stroke-linejoin:round;">
<circle cx="15.4041" cy="12.6750" r="0.3810" /> 
</g>
<g style="fill:#000000; fill-opacity:1.0000; 
stroke:#000000; stroke-width:0.0212; stroke-opacity:1; 
stroke-linecap:round; stroke-linejoin:round;">
</g>
<g style="fill:#000000; fill-opacity:1.0000; 
stroke:#000000; stroke-width:0.0000; stroke-opacity:1; 
stroke-linecap:round; stroke-linejoin:round;">
<circle cx="15.4041" cy="14.6750" r="0.3810" /> 
</g>
<g style="fill:#000000; fill-opacity:1.0000; 
stroke:#000000; stroke-width:0.0212; stroke-opacity:1; 
stroke-linecap:round; stroke-linejoin:round;">
</g>
<g style="fill:#000000; fill-opacity:1.0000; 
stroke:#000000; stroke-width:0.0000; stroke-opacity:1; 
stroke-linecap:round; stroke-linejoin:round;">
<circle cx="15.4041" cy="16.6750" r="0.3810" /> 
</g>
<g style="fill:#000000; fill-opacity:1.0000; 
stroke:#000000; stroke-width:0.0212; stroke-opacity:1; 
stroke-linecap:round; stroke-linejoin:round;">
</g>
<g style="fill:#000000; fill-opacity:1.0000; 
stroke:#000000; stroke-width:0.0000; stroke-opacity:1; 
stroke-linecap:round; stroke-linejoin:round;">
<circle cx="9.9542" cy="10.6750" r="0.3810" /> 
</g>
<g style="fill:#000000; fill-opacity:1.0000; 
stroke:#000000; stroke-width:0.0212; stroke-opacity:1; 
stroke-linecap:round; stroke-linejoin:round;">
</g>
<g style="fill:#000000; fill-opacity:1.0000; 
stroke:#000000; stroke-width:0.0000; stroke-opacity:1; 
stroke-linecap:round; stroke-linejoin:round;">
<circle cx="9.9542" cy="12.6750" r="0.3810" /> 
</g>
<g style="fill:#000000; fill-opacity:1.0000; 
stroke:#000000; stroke-width:0.0212; stroke-opacity:1; 
stroke-linecap:round; stroke-linejoin:round;">
</g>
<g style="fill:#000000; fill-opacity:1.0000; 
stroke:#000000; stroke-width:0.0000; stroke-opacity:1; 
stroke-linecap:round; stroke-linejoin:round;">
<circle cx="9.9542" cy="14.6750" r="0.3810" /> 
</g>
<g style="fill:#000000; fill-opacity:1.0000; 
stroke:#000000; stroke-width:0.0212; stroke-opacity:1; 
stroke-linecap:round; stroke-linejoin:round;">
</g>
<g style="fill:#000000; fill-opacity:1.0000; 
stroke:#000000; stroke-width:0.0000; stroke-opacity:1; 
stroke-linecap:round; stroke-linejoin:round;">
<circle cx="9.9542" cy="16.6750" r="0.3810" /> 
</g>
<g style="fill:#000000; fill-opacity:1.0000; 
stroke:#000000; stroke-width:0.0212; stroke-opacity:1; 
stroke-linecap:round; stroke-linejoin:round;">
</g>
<g style="fill:#FFFFFF; fill-opacity:1.0000; 
stroke:#FFFFFF; stroke-width:0.0212; stroke-opacity:1; 
stroke-linecap:round; stroke-linejoin:round;">
<g >
</g>
<g style="fill:#37CBCB; fill-opacity:1.0000; 
stroke:#37CBCB; stroke-width:0.0212; stroke-opacity:1; 
stroke-linecap:round; stroke-linejoin:round;">
</g>
<g style="fill:#37CBCB; fill-opacity:1.0000; 
stroke:#37CBCB; stroke-width:0.0000; stroke-opacity:1; 
stroke-linecap:round; stroke-linejoin:round;">
<path style="fill:#37CBCB; fill-opacity:1.0000; 
stroke:#37CBCB; stroke-width:0.0000; stroke-opacity:1; 
stroke-linecap:round; stroke-linejoin:round;fill-rule:evenodd;"
d="M 11.4871,11.4620
11.4871,9.9380
13.0111,9.9380
13.0111,11.4620
Z" /> 
<circle cx="12.2492" cy="12.7000" r="0.7620" /> 
</g>
<g style="fill:#37CBCB; fill-opacity:1.0000; 
stroke:#37CBCB; stroke-width:0.0212; stroke-opacity:1; 
stroke-linecap:round; stroke-linejoin:round;">
</g>
<g style="fill:#37CBCB; fill-opacity:1.0000; 
stroke:#37CBCB; stroke-width:0.0000; stroke-opacity:1; 
stroke-linecap:round; stroke-linejoin:round;">
<circle cx="12.2492" cy="14.7000" r="0.7620" /> 
</g>
<g style="fill:#37CBCB; fill-opacity:1.0000; 
stroke:#37CBCB; stroke-width:0.0212; stroke-opacity:1; 
stroke-linecap:round; stroke-linejoin:round;">
</g>
<g style="fill:#37CBCB; fill-opacity:1.0000; 
stroke:#37CBCB; stroke-width:0.0000; stroke-opacity:1; 
stroke-linecap:round; stroke-linejoin:round;">
<circle cx="12.2492" cy="16.7000" r="0.7620" /> 
</g>
<g style="fill:#37CBCB; fill-opacity:1.0000; 
stroke:#37CBCB; stroke-width:0.0212; stroke-opacity:1; 
stroke-linecap:round; stroke-linejoin:round;">
</g>
<g >
</g>
<g style="fill:#37CBCB; fill-opacity:1.0000; 
stroke:#37CBCB; stroke-width:0.0212; stroke-opacity:1; 
stroke-linecap:round; stroke-linejoin:round;">
</g>
<g style="fill:#37CBCB; fill-opacity:1.0000; 
stroke:#37CBCB; stroke-width:0.0000; stroke-opacity:1; 
stroke-linecap:round; stroke-linejoin:round;">
<circle cx="14.9291" cy="4.0250" r="3.2000" /> 
</g>
<g style="fill:#37CBCB; fill-opacity:1.0000; 
stroke:#37CBCB; stroke-width:0.0212; stroke-opacity:1; 
stroke-linecap:round; stroke-linejoin:round;">
</g>
<g >
</g>
<g style="fill:#37CBCB; fill-opacity:1.0000; 
stroke:#37CBCB; stroke-width:0.0212; stroke-opacity:1; 
stroke-linecap:round; stroke-linejoin:round;">
</g>
<g style="fill:#37CBCB; fill-opacity:1.0000; 
stroke:#37CBCB; stroke-width:0.0000; stroke-opacity:1; 
stroke-linecap:round; stroke-linejoin:round;">
<circle cx="14.6291" cy="23.1000" r="3.2000" /> 
</g>
<g style="fill:#37CBCB; fill-opacity:1.0000; 
stroke:#37CBCB; stroke-width:0.0212; stroke-opacity:1; 
stroke-linecap:round; stroke-linejoin:round;">
</g>
<g >
</g>
<g style="fill:#37CBCB; fill-opacity:1.0000; 
stroke:#37CBCB; stroke-width:0.0212; stroke-opacity:1; 
stroke-linecap:round; stroke-linejoin:round;">
</g>
<g style="fill:#37CBCB; fill-opacity:1.0000; 
stroke:#37CBCB; stroke-width:0.0000; stroke-opacity:1; 
stroke-linecap:round; stroke-linejoin:round;">
<path style="fill:#37CBCB; fill-opacity:1.0000; 
stroke:#37CBCB; stroke-width:0.0000; stroke-opacity:1; 
stroke-linecap:round; stroke-linejoin:round;fill-rule:evenodd;"
d="M 14.6421,11.4370
14.6421,9.9130
16.1661,9.9130
16.1661,11.4370
Z" /> 
<circle cx="15.4041" cy="12.6750" r="0.7620" /> 
</g>
<g style="fill:#37CBCB; fill-opacity:1.0000; 
stroke:#37CBCB; stroke-width:0.0212; stroke-opacity:1; 
stroke-linecap:round; stroke-linejoin:round;">
</g>
<g style="fill:#37CBCB; fill-opacity:1.0000; 
stroke:#37CBCB; stroke-width:0.0000; stroke-opacity:1; 
stroke-linecap:round; stroke-linejoin:round;">
<circle cx="15.4041" cy="14.6750" r="0.7620" /> 
</g>
<g style="fill:#37CBCB; fill-opacity:1.0000; 
stroke:#37CBCB; stroke-width:0.0212; stroke-opacity:1; 
stroke-linecap:round; stroke-linejoin:round;">
</g>
<g style="fill:#37CBCB; fill-opacity:1.0000; 
stroke:#37CBCB; stroke-width:0.0000; stroke-opacity:1; 
stroke-linecap:round; stroke-linejoin:round;">
<circle cx="15.4041" cy="16.6750" r="0.7620" /> 
</g>
<g style="fill:#37CBCB; fill-opacity:1.0000; 
stroke:#37CBCB; stroke-width:0.0212; stroke-opacity:1; 
stroke-linecap:round; stroke-linejoin:round;">
</g>
<g >
</g>
<g style="fill:#37CBCB; fill-opacity:1.0000; 
stroke:#37CBCB; stroke-width:0.0212; stroke-opacity:1; 
stroke-linecap:round; stroke-linejoin:round;">
</g>
<g style="fill:#37CBCB; fill-opacity:1.0000; 
stroke:#37CBCB; stroke-width:0.0000; stroke-opacity:1; 
stroke-linecap:round; stroke-linejoin:round;">
<path style="fill:#37CBCB; fill-opacity:1.0000; 
stroke:#37CBCB; stroke-width:0.0000; stroke-opacity:1; 
stroke-linecap:round; stroke-linejoin:round;fill-rule:evenodd;"
d="M 10.7161,9.9130
10.7161,11.4370
9.1921,11.4370
9.1921,9.9130
Z" /> 
<circle cx="9.9542" cy="12.6750" r="0.7620" /> 
</g>
<g style="fill:#37CBCB; fill-opacity:1.0000; 
stroke:#37CBCB; stroke-width:0.0212; stroke-opacity:1; 
stroke-linecap:round; stroke-linejoin:round;">
</g>
<g style="fill:#37CBCB; fill-opacity:1.0000; 
stroke:#37CBCB; stroke-width:0.0000; stroke-opacity:1; 
stroke-linecap:round; stroke-linejoin:round;">
<circle cx="9.9542" cy="14.6750" r="0.7620" /> 
</g>
<g style="fill:#37CBCB; fill-opacity:1.0000; 
stroke:#37CBCB; stroke-width:0.0212; stroke-opacity:1; 
stroke-linecap:round; stroke-linejoin:round;">
</g>
<g style="fill:#37CBCB; fill-opacity:1.0000; 
stroke:#37CBCB; stroke-width:0.0000; stroke-opacity:1; 
stroke-linecap:round; stroke-linejoin:round;">
<circle cx="9.9542" cy="16.6750" r="0.7620" /> 
</g>
<g style="fill:#37CBCB; fill-opacity:1.0000; 
stroke:#37CBCB; stroke-width:0.0212; stroke-opacity:1; 
stroke-linecap:round; stroke-linejoin:round;">
</g>
<g >
</g>
<g >
</g>
<g style="fill:#37CBCB; fill-opacity:1.0000; 
stroke:#37CBCB; stroke-width:0.0212; stroke-opacity:1; 
stroke-linecap:round; stroke-linejoin:round;">
</g>
<g style="fill:#37CBCB; fill-opacity:1.0000; 
stroke:#37CBCB; stroke-width:0.2500; stroke-opacity:1; 
stroke-linecap:round; stroke-linejoin:round;">
</g>
<g style="fill:#37CBCB; fill-opacity:0.0; 
stroke:#37CBCB; stroke-width:0.2500; stroke-opacity:1; 
stroke-linecap:round; stroke-linejoin:round;">
<path d="M15.3791 16.7000
L15.4041 16.6750
" />
<path d="M9.9542 16.6750
L12.2241 16.6750
" />
<path d="M12.2492 16.7000
L15.3791 16.7000
" />
<path d="M12.2241 16.6750
L12.2492 16.7000
" />
<path d="M12.2741 14.6750
L12.2492 14.7000
" />
<path d="M15.4041 14.6750
L12.2741 14.6750
" />
<path d="M12.2492 14.7000
L9.9791 14.7000
" />
<path d="M9.9791 14.7000
L9.9542 14.6750
" />
<path d="M9.9542 12.6750
L12.2241 12.6750
" />
<path d="M15.3791 12.7000
L15.4041 12.6750
" />
<path d="M12.2241 12.6750
L12.2492 12.7000
" />
<path d="M12.2492 12.7000
L15.3791 12.7000
" />
<path d="M12.2741 10.6750
L12.2492 10.7000
" />
<path d="M15.4041 10.6750
L12.2741 10.6750
" />
<path d="M12.2241 10.6750
L12.2492 10.7000
" />
<path d="M9.9542 10.6750
L12.2241 10.6750
" />
</g>
<g >
</g>
<g style="fill:#37CBCB; fill-opacity:0.0; 
stroke:#37CBCB; stroke-width:0.2500; stroke-opacity:1; 
stroke-linecap:round; stroke-linejoin:round;">
<g >
</g>
<g style="fill:#37CBCB; fill-opacity:1.0000; 
stroke:#37CBCB; stroke-width:0.0000; stroke-opacity:1; 
stroke-linecap:round; stroke-linejoin:round;">
<path style="fill:#37CBCB; fill-opacity:1.0000; 
stroke:#37CBCB; stroke-width:0.0000; stroke-opacity:1; 
stroke-linecap:round; stroke-linejoin:round;fill-rule:evenodd;"
d="M 11.1791,15.3915
11.1961,15.4112
11.2547,15.4948
11.2722,15.5198
11.4294,15.6770
11.4294,15.6770
11.4294,15.6770
11.5333,15.7497
11.6115,15.8045
11.7813,15.8837
11.8171,15.9088
12.0816,16.1733
12.1157,16.2356
12.1106,16.3064
12.0681,16.3633
12.0525,16.3732
12.0119,16.3952
11.9258,16.4887
11.9258,16.4887
11.9245,16.4916
11.9217,16.4949
11.9201,16.4975
11.9198,16.4973
11.8788,16.5460
11.8110,16.5670
11.7426,16.5480
11.7200,16.5301
11.1893,15.9994
11.1679,16.0013
11.1581,16.0090
11.0875,16.0164
11.0242,15.9843
11.0157,15.9745
11.0140,15.9744
10.4811,16.5073
10.4188,16.5413
10.3479,16.5362
10.2911,16.4937
10.2865,16.4871
10.2383,16.4134
10.2383,16.4134
10.1828,16.3702
10.1380,16.3353
10.1380,16.3353
10.1362,16.3339
10.0948,16.2763
10.0910,16.2054
10.1245,16.1454
10.3862,15.8838
10.4220,15.8587
10.5918,15.7795
10.7739,15.6520
10.9311,15.4948
10.9897,15.4112
11.0451,15.3668
11.1158,15.3595
Z" /> 
<path style="fill:#37CBCB; fill-opacity:1.0000; 
stroke:#37CBCB; stroke-width:0.0000; stroke-opacity:1; 
stroke-linecap:round; stroke-linejoin:round;fill-rule:evenodd;"
d="M 14.6965,0.0950
14.7430,0.1487
14.7531,0.2189
14.7236,0.2835
14.6639,0.3219
14.6350,0.3268
14.5410,0.3318
14.1571,0.3926
13.7816,0.4932
13.4187,0.6325
13.4187,0.6325
13.0724,0.8089
12.7464,1.0206
12.7463,1.0206
12.4443,1.2653
12.4443,1.2653
12.1694,1.5401
12.1694,1.5401
11.9248,1.8422
11.9248,1.8422
11.7131,2.1682
11.5366,2.5145
11.5366,2.5146
11.3973,2.8774
11.2967,3.2529
11.2359,3.6368
11.2156,4.0250
11.2156,4.0250
11.2359,4.4132
11.2967,4.7971
11.3973,5.1726
11.5366,5.5354
11.5366,5.5355
11.7131,5.8818
11.9248,6.2078
11.9248,6.2078
12.1694,6.5099
12.1694,6.5099
12.4443,6.7847
12.4443,6.7847
12.7463,7.0293
12.7464,7.0294
12.9303,7.1488
13.0724,7.2411
13.4187,7.4175
13.4187,7.4175
13.4187,7.4175
13.7816,7.5568
13.7816,7.5568
13.7816,7.5568
14.1571,7.6574
14.5410,7.7182
14.5410,7.7182
14.5410,7.7182
14.9291,7.7386
14.9291,7.7386
14.9292,7.7386
15.3173,7.7182
15.3173,7.7182
15.3173,7.7182
15.7012,7.6574
16.0767,7.5568
16.0767,7.5568
16.0767,7.5568
16.4396,7.4175
16.4396,7.4175
16.4396,7.4175
16.7859,7.2411
17.1119,7.0294
17.1120,7.0293
17.4140,6.7847
17.4140,6.7847
17.4140,6.7847
17.6889,6.5099
17.6889,6.5099
17.6889,6.5099
17.9335,6.2078
17.9335,6.2078
17.9335,6.2078
18.1452,5.8818
18.3217,5.5355
18.4610,5.1726
18.5616,4.7971
18.6224,4.4132
18.6224,4.4132
18.6224,4.4132
18.6427,4.0250
18.6427,4.0250
18.6224,3.6368
18.5616,3.2529
18.4610,2.8774
18.3217,2.5146
18.3217,2.5145
18.3217,2.5145
18.1452,2.1682
17.9335,1.8422
17.9335,1.8422
17.9335,1.8422
17.6889,1.5401
17.6889,1.5401
17.4140,1.2653
17.4140,1.2653
17.1120,1.0206
17.1119,1.0206
16.7859,0.8089
16.4396,0.6325
16.4396,0.6325
16.0767,0.4932
15.7012,0.3926
15.3173,0.3318
15.2233,0.3268
15.1563,0.3033
15.1127,0.2473
15.1063,0.1766
15.1391,0.1136
15.2008,0.0784
15.2299,0.0750
20.3284,0.0750
20.3965,0.0950
20.4430,0.1487
20.4544,0.2008
20.5039,26.8556
20.5039,26.8733
20.4840,26.9414
20.4305,26.9880
20.3779,26.9995
15.3161,26.9995
15.2479,26.9795
15.2015,26.9258
15.1914,26.8556
15.2208,26.7910
15.2806,26.7526
15.2964,26.7491
15.3127,26.7465
15.4012,26.7324
15.7767,26.6318
15.7767,26.6318
15.7767,26.6318
16.1396,26.4925
16.1396,26.4925
16.1396,26.4925
16.4859,26.3161
16.8119,26.1044
16.8120,26.1044
17.1140,25.8597
17.1140,25.8597
17.1140,25.8597
17.3889,25.5849
17.3889,25.5849
17.3889,25.5849
17.6335,25.2828
17.6335,25.2828
17.6335,25.2828
17.8452,24.9568
18.0217,24.6105
18.1610,24.2476
18.2616,23.8721
18.3224,23.4882
18.3224,23.4882
18.3224,23.4882
18.3427,23.1000
18.3427,23.1000
18.3224,22.7118
18.2616,22.3279
18.1610,21.9524
18.0217,21.5896
18.0217,21.5895
18.0217,21.5895
17.8452,21.2432
17.6335,20.9172
17.6335,20.9172
17.6335,20.9172
17.3889,20.6151
17.3889,20.6151
17.1140,20.3403
17.1140,20.3403
16.8120,20.0956
16.8119,20.0956
16.4859,19.8839
16.1396,19.7075
16.1396,19.7075
15.7767,19.5682
15.4012,19.4676
15.0173,19.4068
14.6292,19.3864
14.6291,19.3864
14.2410,19.4068
13.8571,19.4676
13.4816,19.5682
13.1187,19.7075
13.1187,19.7075
12.7724,19.8839
12.4464,20.0956
12.4463,20.0956
12.1443,20.3403
12.1443,20.3403
11.8694,20.6151
11.8694,20.6151
11.6248,20.9172
11.6248,20.9172
11.4131,21.2432
11.2366,21.5895
11.2366,21.5896
11.0973,21.9524
10.9967,22.3279
10.9359,22.7118
10.9156,23.1000
10.9156,23.1000
10.9359,23.4882
10.9967,23.8721
11.0973,24.2476
11.2366,24.6104
11.2366,24.6105
11.4131,24.9568
11.6248,25.2828
11.6248,25.2828
11.8694,25.5849
11.8694,25.5849
12.1443,25.8597
12.1443,25.8597
12.4463,26.1044
12.4464,26.1044
12.6303,26.2238
12.7724,26.3161
13.1187,26.4925
13.1187,26.4925
13.1187,26.4925
13.4816,26.6318
13.4816,26.6318
13.4816,26.6318
13.8571,26.7324
13.9336,26.7446
13.9619,26.7491
14.0261,26.7795
14.0636,26.8397
14.0626,26.9107
14.0234,26.9699
13.9584,26.9985
13.9422,26.9995
1.7806,26.9995
1.7125,26.9795
1.6660,26.9258
1.6546,26.8735
1.6546,14.6750
8.6788,14.6750
8.6982,14.8965
8.7444,15.0691
8.7557,15.1112
8.7557,15.1112
8.8497,15.3127
8.8497,15.3127
8.9772,15.4948
8.9772,15.4948
8.9772,15.4948
9.1344,15.6520
9.1344,15.6520
9.1344,15.6520
9.1701,15.6770
9.3165,15.7795
9.4863,15.8587
9.5221,15.8838
9.7866,16.1483
9.8207,16.2106
9.8156,16.2814
9.7731,16.3382
9.7575,16.3482
9.7169,16.3702
9.6308,16.4637
9.6308,16.4637
9.6295,16.4666
9.6267,16.4699
9.6251,16.4725
9.6248,16.4723
9.5838,16.5210
9.5160,16.5420
9.4476,16.5230
9.4250,16.5051
8.8943,15.9744
8.8501,16.0376
8.7562,16.2390
8.7562,16.2390
8.6987,16.4536
8.6793,16.6750
8.6987,16.8964
8.7562,17.1110
8.7562,17.1110
8.8501,17.3124
8.8943,17.3756
8.8943,17.3756
9.4272,16.8427
9.4895,16.8087
9.5603,16.8138
9.6172,16.8563
9.6218,16.8629
9.6700,16.9366
9.6700,16.9366
9.6700,16.9366
9.6700,16.9366
9.7703,17.0147
9.7703,17.0147
9.7721,17.0161
9.8135,17.0737
9.8173,17.1446
9.7838,17.2046
9.2535,17.7348
9.2535,17.7348
9.3167,17.7791
9.3167,17.7791
9.5181,17.8730
9.5181,17.8730
9.7328,17.9305
9.9542,17.9498
10.1755,17.9305
10.3902,17.8730
10.3902,17.8730
10.5916,17.7791
10.5916,17.7791
10.6548,17.7348
10.6548,17.7348
10.1217,17.2017
10.0876,17.1394
10.0927,17.0686
10.1352,17.0117
10.1508,17.0018
10.1914,16.9798
10.2775,16.8863
10.2788,16.8834
10.2816,16.8801
10.2832,16.8775
10.2835,16.8777
10.3245,16.8290
10.3923,16.8080
10.4607,16.8270
10.4833,16.8449
11.0140,17.3756
11.0354,17.3737
11.0451,17.3660
11.1158,17.3586
11.1791,17.3907
11.1876,17.4005
11.1893,17.4006
11.7222,16.8677
11.7845,16.8337
11.8553,16.8388
11.9122,16.8813
11.9168,16.8879
11.9650,16.9616
11.9650,16.9616
11.9650,16.9616
11.9650,16.9616
12.0653,17.0397
12.0653,17.0397
12.0671,17.0411
12.1085,17.0987
12.1123,17.1696
12.0788,17.2296
11.5485,17.7598
11.5485,17.7598
11.6117,17.8041
11.6117,17.8041
11.8131,17.8980
11.8131,17.8980
12.0278,17.9555
12.2492,17.9748
12.4705,17.9555
12.6852,17.8980
12.6852,17.8980
12.8866,17.8041
12.8866,17.8041
12.9498,17.7598
12.9498,17.7598
12.4167,17.2267
12.3826,17.1644
12.3877,17.0936
12.4302,17.0367
12.4458,17.0268
12.4864,17.0048
12.5725,16.9113
12.5738,16.9084
12.5766,16.9051
12.5782,16.9025
12.5785,16.9027
12.6195,16.8540
12.6873,16.8330
12.7557,16.8520
12.7783,16.8699
13.3090,17.4006
13.3090,17.4006
13.3532,17.3374
13.3532,17.3374
13.4471,17.1360
13.4471,17.1360
13.5046,16.9214
13.5240,16.7000
13.5046,16.4786
13.4471,16.2640
13.4471,16.2640
13.3532,16.0626
13.3090,15.9994
13.3090,15.9994
12.7761,16.5323
12.7138,16.5663
12.6429,16.5612
12.5861,16.5187
12.5815,16.5121
12.5333,16.4384
12.5333,16.4384
12.5333,16.4384
12.4330,16.3603
12.4330,16.3603
12.4312,16.3589
12.3898,16.3013
12.3860,16.2304
12.4195,16.1704
12.6812,15.9088
12.7170,15.8837
12.8868,15.8045
13.0689,15.6770
13.2261,15.5198
13.2915,15.4264
13.3364,15.3622
13.3919,15.3179
13.4397,15.3085
14.2311,15.3085
14.2993,15.3285
14.3344,15.3622
14.4272,15.4948
14.4272,15.4948
14.5844,15.6520
14.5844,15.6520
14.5844,15.6520
14.6201,15.6770
14.7665,15.7795
14.9363,15.8587
14.9721,15.8838
15.2366,16.1483
15.2707,16.2106
15.2656,16.2814
15.2231,16.3382
15.2075,16.3482
15.1669,16.3702
15.0808,16.4637
15.0808,16.4637
15.0795,16.4666
15.0767,16.4699
15.0751,16.4725
15.0748,16.4723
15.0338,16.5210
14.9660,16.5420
14.8976,16.5230
14.8750,16.5051
14.3443,15.9744
14.3001,16.0376
14.2062,16.2390
14.2062,16.2390
14.1487,16.4536
14.1293,16.6750
14.1487,16.8964
14.2062,17.1110
14.2062,17.1110
14.3001,17.3124
14.3443,17.3756
14.3443,17.3756
14.8772,16.8427
14.9395,16.8087
15.0103,16.8138
15.0672,16.8563
15.0718,16.8629
15.1200,16.9366
15.1200,16.9366
15.1200,16.9366
15.1200,16.9366
15.2203,17.0147
15.2203,17.0147
15.2221,17.0161
15.2635,17.0737
15.2673,17.1446
15.2338,17.2046
14.7035,17.7348
14.7035,17.7348
14.7667,17.7791
14.7667,17.7791
14.9681,17.8730
14.9681,17.8730
15.1828,17.9305
15.4041,17.9498
15.6255,17.9305
15.8402,17.8730
15.8402,17.8730
16.0416,17.7791
16.0416,17.7791
16.1048,17.7348
16.1048,17.7348
15.5717,17.2017
15.5376,17.1394
15.5427,17.0686
15.5852,17.0117
15.6008,17.0018
15.6414,16.9798
15.7275,16.8863
15.7288,16.8834
15.7316,16.8801
15.7332,16.8775
15.7335,16.8777
15.7745,16.8290
15.8423,16.8080
15.9107,16.8270
15.9333,16.8449
16.4640,17.3756
16.4640,17.3756
16.5082,17.3124
16.5082,17.3124
16.6021,17.1110
16.6021,17.1110
16.6596,16.8964
16.6790,16.6750
16.6596,16.4536
16.6021,16.2390
16.6021,16.2390
16.5082,16.0376
16.4640,15.9744
16.4640,15.9744
15.9311,16.5073
15.8688,16.5413
15.7979,16.5362
15.7411,16.4937
15.7365,16.4871
15.6883,16.4134
15.6883,16.4134
15.6328,16.3702
15.5880,16.3353
15.5880,16.3353
15.5862,16.3339
15.5448,16.2763
15.5410,16.2054
15.5745,16.1454
15.8362,15.8838
15.8720,15.8587
16.0418,15.7795
16.2239,15.6520
16.3811,15.4948
16.5086,15.3127
16.6026,15.1112
16.6601,14.8965
16.6795,14.6750
16.6601,14.4535
16.6026,14.2388
16.5086,14.0373
16.3811,13.8552
16.2900,13.7641
16.2560,13.7018
16.2610,13.6310
16.2900,13.5859
16.2900,13.5859
16.3811,13.4948
16.5086,13.3127
16.6026,13.1112
16.6601,12.8965
16.6795,12.6750
16.6601,12.4535
16.6026,12.2388
16.5086,12.0373
16.4769,11.9920
16.4542,11.9247
16.4715,11.8558
16.5046,11.8188
16.5294,11.8003
16.6170,11.6832
16.6681,11.5462
16.6720,11.5106
16.6746,11.4856
16.6746,11.4856
16.6746,9.8644
16.6746,9.8643
16.6681,9.8038
16.6681,9.8038
16.6264,9.6918
16.6170,9.6668
16.6170,9.6668
16.6170,9.6668
16.5294,9.5497
16.4124,9.4621
16.4124,9.4621
16.2754,9.4110
16.2753,9.4110
16.2148,9.4045
16.2148,9.4045
14.5935,9.4045
14.5935,9.4045
14.5330,9.4110
14.5329,9.4110
14.3959,9.4621
14.3959,9.4621
14.2789,9.5497
14.1913,9.6668
14.1913,9.6668
14.1402,9.8038
14.1402,9.8038
14.1336,9.8643
14.1336,9.9155
14.1136,9.9836
14.0600,10.0301
14.0076,10.0415
13.6456,10.0415
13.5775,10.0215
13.5310,9.9678
13.5196,9.9155
13.5196,9.8894
13.5196,9.8894
13.5131,9.8288
13.5131,9.8288
13.4620,9.6918
13.4620,9.6918
13.3744,9.5747
13.2574,9.4871
13.2574,9.4871
13.1204,9.4360
13.1203,9.4360
13.0598,9.4295
13.0598,9.4295
11.4385,9.4295
11.4385,9.4295
11.3780,9.4360
11.3779,9.4360
11.2409,9.4871
11.2409,9.4871
11.1939,9.5224
11.1273,9.5472
11.0580,9.5321
11.0428,9.5224
10.9624,9.4621
10.9624,9.4621
10.8254,9.4110
10.8253,9.4110
10.7648,9.4045
10.7648,9.4045
9.1435,9.4045
9.1435,9.4045
9.0830,9.4110
9.0829,9.4110
8.9459,9.4621
8.9459,9.4621
8.8289,9.5497
8.7413,9.6668
8.7413,9.6668
8.6902,9.8038
8.6902,9.8038
8.6837,9.8643
8.6837,11.4856
8.6902,11.5462
8.6902,11.5462
8.7413,11.6832
8.7413,11.6832
8.8289,11.8003
8.8537,11.8188
8.8963,11.8757
8.9013,11.9465
8.8814,11.9920
8.8497,12.0373
8.7557,12.2388
8.7557,12.2388
8.6982,12.4535
8.6788,12.6750
8.6982,12.8965
8.7444,13.0691
8.7557,13.1112
8.7557,13.1112
8.8497,13.3127
8.8497,13.3127
8.9772,13.4948
8.9772,13.4948
8.9772,13.4948
9.0683,13.5859
9.0683,13.5859
9.1023,13.6482
9.0973,13.7190
9.0683,13.7641
8.9772,13.8552
8.8497,14.0373
8.8380,14.0623
8.7557,14.2388
8.6982,14.4535
8.6788,14.6750
1.6546,14.6750
1.6546,0.2010
1.6747,0.1329
1.7283,0.0864
1.7806,0.0750
14.6284,0.0750
Z" /> 
</g>
</g>
</g>
<g style="fill:#000000; fill-opacity:1.0000; 
stroke:#000000; stroke-width:0.0000; stroke-opacity:1; 
stroke-linecap:round; stroke-linejoin:round;">
<circle cx="12.2492" cy="10.7000" r="0.3810" /> 
</g>
<g style="fill:#000000; fill-opacity:1.0000; 
stroke:#000000; stroke-width:0.0212; stroke-opacity:1; 
stroke-linecap:round; stroke-linejoin:round;">
</g>
<g style="fill:#000000; fill-opacity:1.0000; 
stroke:#000000; stroke-width:0.0000; stroke-opacity:1; 
stroke-linecap:round; stroke-linejoin:round;">
<circle cx="12.2492" cy="12.7000" r="0.3810" /> 
</g>
<g style="fill:#000000; fill-opacity:1.0000; 
stroke:#000000; stroke-width:0.0212; stroke-opacity:1; 
stroke-linecap:round; stroke-linejoin:round;">
</g>
<g style="fill:#000000; fill-opacity:1.0000; 
stroke:#000000; stroke-width:0.0000; stroke-opacity:1; 
stroke-linecap:round; stroke-linejoin:round;">
<circle cx="12.2492" cy="14.7000" r="0.3810" /> 
</g>
<g style="fill:#000000; fill-opacity:1.0000; 
stroke:#000000; stroke-width:0.0212; stroke-opacity:1; 
stroke-linecap:round; stroke-linejoin:round;">
</g>
<g style="fill:#000000; fill-opacity:1.0000; 
stroke:#000000; stroke-width:0.0000; stroke-opacity:1; 
stroke-linecap:round; stroke-linejoin:round;">
<circle cx="12.2492" cy="16.7000" r="0.3810" /> 
</g>
<g style="fill:#000000; fill-opacity:1.0000; 
stroke:#000000; stroke-width:0.0212; stroke-opacity:1; 
stroke-linecap:round; stroke-linejoin:round;">
</g>
<g style="fill:#000000; fill-opacity:1.0000; 
stroke:#000000; stroke-width:0.0000; stroke-opacity:1; 
stroke-linecap:round; stroke-linejoin:round;">
<circle cx="14.9291" cy="4.0250" r="1.6000" /> 
</g>
<g style="fill:#000000; fill-opacity:1.0000; 
stroke:#000000; stroke-width:0.0212; stroke-opacity:1; 
stroke-linecap:round; stroke-linejoin:round;">
</g>
<g style="fill:#000000; fill-opacity:1.0000; 
stroke:#000000; stroke-width:0.0000; stroke-opacity:1; 
stroke-linecap:round; stroke-linejoin:round;">
<circle cx="14.6291" cy="23.1000" r="1.6000" /> 
</g>
<g style="fill:#000000; fill-opacity:1.0000; 
stroke:#000000; stroke-width:0.0212; stroke-opacity:1; 
stroke-linecap:round; stroke-linejoin:round;">
</g>
<g style="fill:#000000; fill-opacity:1.0000; 
stroke:#000000; stroke-width:0.0000; stroke-opacity:1; 
stroke-linecap:round; stroke-linejoin:round;">
<circle cx="15.4041" cy="10.6750" r="0.3810" /> 
</g>
<g style="fill:#000000; fill-opacity:1.0000; 
stroke:#000000; stroke-width:0.0212; stroke-opacity:1; 
stroke-linecap:round; stroke-linejoin:round;">
</g>
<g style="fill:#000000; fill-opacity:1.0000; 
stroke:#000000; stroke-width:0.0000; stroke-opacity:1; 
stroke-linecap:round; stroke-linejoin:round;">
<circle cx="15.4041" cy="12.6750" r="0.3810" /> 
</g>
<g style="fill:#000000; fill-opacity:1.0000; 
stroke:#000000; stroke-width:0.0212; stroke-opacity:1; 
stroke-linecap:round; stroke-linejoin:round;">
</g>
<g style="fill:#000000; fill-opacity:1.0000; 
stroke:#000000; stroke-width:0.0000; stroke-opacity:1; 
stroke-linecap:round; stroke-linejoin:round;">
<circle cx="15.4041" cy="14.6750" r="0.3810" /> 
</g>
<g style="fill:#000000; fill-opacity:1.0000; 
stroke:#000000; stroke-width:0.0212; stroke-opacity:1; 
stroke-linecap:round; stroke-linejoin:round;">
</g>
<g style="fill:#000000; fill-opacity:1.0000; 
stroke:#000000; stroke-width:0.0000; stroke-opacity:1; 
stroke-linecap:round; stroke-linejoin:round;">
<circle cx="15.4041" cy="16.6750" r="0.3810" /> 
</g>
<g style="fill:#000000; fill-opacity:1.0000; 
stroke:#000000; stroke-width:0.0212; stroke-opacity:1; 
stroke-linecap:round; stroke-linejoin:round;">
</g>
<g style="fill:#000000; fill-opacity:1.0000; 
stroke:#000000; stroke-width:0.0000; stroke-opacity:1; 
stroke-linecap:round; stroke-linejoin:round;">
<circle cx="9.9542" cy="10.6750" r="0.3810" /> 
</g>
<g style="fill:#000000; fill-opacity:1.0000; 
stroke:#000000; stroke-width:0.0212; stroke-opacity:1; 
stroke-linecap:round; stroke-linejoin:round;">
</g>
<g style="fill:#000000; fill-opacity:1.0000; 
stroke:#000000; stroke-width:0.0000; stroke-opacity:1; 
stroke-linecap:round; stroke-linejoin:round;">
<circle cx="9.9542" cy="12.6750" r="0.3810" /> 
</g>
<g style="fill:#000000; fill-opacity:1.0000; 
stroke:#000000; stroke-width:0.0212; stroke-opacity:1; 
stroke-linecap:round; stroke-linejoin:round;">
</g>
<g style="fill:#000000; fill-opacity:1.0000; 
stroke:#000000; stroke-width:0.0000; stroke-opacity:1; 
stroke-linecap:round; stroke-linejoin:round;">
<circle cx="9.9542" cy="14.6750" r="0.3810" /> 
</g>
<g style="fill:#000000; fill-opacity:1.0000; 
stroke:#000000; stroke-width:0.0212; stroke-opacity:1; 
stroke-linecap:round; stroke-linejoin:round;">
</g>
<g style="fill:#000000; fill-opacity:1.0000; 
stroke:#000000; stroke-width:0.0000; stroke-opacity:1; 
stroke-linecap:round; stroke-linejoin:round;">
<circle cx="9.9542" cy="16.6750" r="0.3810" /> 
</g>
<g style="fill:#000000; fill-opacity:1.0000; 
stroke:#000000; stroke-width:0.0212; stroke-opacity:1; 
stroke-linecap:round; stroke-linejoin:round;">
</g>
<g style="fill:#FFFFFF; fill-opacity:1.0000; 
stroke:#FFFFFF; stroke-width:0.0212; stroke-opacity:1; 
stroke-linecap:round; stroke-linejoin:round;">
<g >
</g>
<g >
</g>
<g >
</g>
<g >
</g>
<g >
</g>
<g >
</g>
<g >
</g>
<g >
</g>
</g>
<g style="fill:#FFFFFF; fill-opacity:1.0000; 
stroke:#FFFFFF; stroke-width:0.0212; stroke-opacity:1; 
stroke-linecap:round; stroke-linejoin:round;">
</g>
<g style="fill:#2F2D31; fill-opacity:1.0000; 
stroke:#2F2D31; stroke-width:0.0212; stroke-opacity:1; 
stroke-linecap:round; stroke-linejoin:round;">
</g>
<g style="fill:#2F2D31; fill-opacity:1.0000; 
stroke:#2F2D31; stroke-width:0.0500; stroke-opacity:1; 
stroke-linecap:round; stroke-linejoin:round;">
</g>
<g style="fill:#2F2D31; fill-opacity:0.0; 
stroke:#2F2D31; stroke-width:0.0500; stroke-opacity:1; 
stroke-linecap:round; stroke-linejoin:round;">
<path d="M1.6291 0.0250
L1.6291 27.0250
" />
<path d="M20.6291 27.0250
L20.6291 0.0250
" />
<path d="M1.6291 27.0250
L20.6291 27.0250
" />
<path d="M20.6291 0.0250
L1.6291 0.0250
" />
<g >
</g>
<g >
</g>
<g >
</g>
<g >
</g>
<g >
</g>
<g >
</g>
<g >
</g>
<g >
</g>
</g> 
</svg>
