<?xml version="1.0" standalone="no"?>
 <!DOCTYPE svg PUBLIC "-//W3C//DTD SVG 1.1//EN" 
 "http://www.w3.org/Graphics/SVG/1.1/DTD/svg11.dtd"> 
<svg
  xmlns:svg="http://www.w3.org/2000/svg"
  xmlns="http://www.w3.org/2000/svg"
  xmlns:xlink="http://www.w3.org/1999/xlink"
  version="1.1"
  width="26.4160mm" height="10.0584mm" viewBox="0.0000 0.0000 26.4160 10.0584">
<title>SVG Image created as working-brd.svg date 2023/09/25 22:49:00 </title>
  <desc>Image generated by PCBNEW </desc>
<g style="fill:#000000; fill-opacity:1.0000;stroke:#000000; stroke-opacity:1.0000;
stroke-linecap:round; stroke-linejoin:round;"
 transform="translate(0 0) scale(1 1)">
</g>
<g style="fill:#000000; fill-opacity:0.0; 
stroke:#000000; stroke-width:0.0000; stroke-opacity:1; 
stroke-linecap:round; stroke-linejoin:round;">
</g>
<g style="fill:#000000; fill-opacity:1.0000; 
stroke:#000000; stroke-width:0.0212; stroke-opacity:1; 
stroke-linecap:round; stroke-linejoin:round;">
<rect x="-5.000000" y="-5.000000" width="36.440478" height="20.083250" rx="0.000000" />
</g>
<g style="fill:#FFFFFF; fill-opacity:1.0000; 
stroke:#FFFFFF; stroke-width:0.0212; stroke-opacity:1; 
stroke-linecap:round; stroke-linejoin:round;">
<g >
</g>
<g >
</g>
<g >
</g>
<g >
</g>
<g >
</g>
<g style="fill:#B2803A; fill-opacity:1.0000; 
stroke:#B2803A; stroke-width:0.0212; stroke-opacity:1; 
stroke-linecap:round; stroke-linejoin:round;">
</g>
<g style="fill:#B2803A; fill-opacity:1.0000; 
stroke:#B2803A; stroke-width:0.0000; stroke-opacity:1; 
stroke-linecap:round; stroke-linejoin:round;">
<path style="fill:#B2803A; fill-opacity:1.0000; 
stroke:#B2803A; stroke-width:0.0000; stroke-opacity:1; 
stroke-linecap:round; stroke-linejoin:round;fill-rule:evenodd;"
d="M 5.2402,2.6750
5.2402,0.9750
6.9402,0.9750
6.9402,2.6750
Z" /> 
<circle cx="6.0902" cy="4.3650" r="0.8500" /> 
<circle cx="6.0902" cy="6.9050" r="0.8500" /> 
</g>
<g >
</g>
<g >
</g>
<g >
</g>
<g >
</g>
<g style="fill:#121212; fill-opacity:1.0000; 
stroke:#121212; stroke-width:0.0000; stroke-opacity:1; 
stroke-linecap:round; stroke-linejoin:round;">
<circle cx="8.8202" cy="4.4550" r="0.4000" /> 
</g>
<g style="fill:#121212; fill-opacity:1.0000; 
stroke:#121212; stroke-width:0.0212; stroke-opacity:1; 
stroke-linecap:round; stroke-linejoin:round;">
</g>
<g style="fill:#121212; fill-opacity:1.0000; 
stroke:#121212; stroke-width:0.0000; stroke-opacity:1; 
stroke-linecap:round; stroke-linejoin:round;">
<circle cx="14.3827" cy="7.1050" r="0.4000" /> 
</g>
<g style="fill:#121212; fill-opacity:1.0000; 
stroke:#121212; stroke-width:0.0212; stroke-opacity:1; 
stroke-linecap:round; stroke-linejoin:round;">
</g>
<g style="fill:#121212; fill-opacity:1.0000; 
stroke:#121212; stroke-width:0.0000; stroke-opacity:1; 
stroke-linecap:round; stroke-linejoin:round;">
<circle cx="12.0827" cy="2.5800" r="0.4000" /> 
</g>
<g style="fill:#121212; fill-opacity:1.0000; 
stroke:#121212; stroke-width:0.0212; stroke-opacity:1; 
stroke-linecap:round; stroke-linejoin:round;">
</g>
<g style="fill:#121212; fill-opacity:1.0000; 
stroke:#121212; stroke-width:0.0000; stroke-opacity:1; 
stroke-linecap:round; stroke-linejoin:round;">
<circle cx="10.1202" cy="7.3550" r="0.4000" /> 
</g>
<g style="fill:#121212; fill-opacity:1.0000; 
stroke:#121212; stroke-width:0.0212; stroke-opacity:1; 
stroke-linecap:round; stroke-linejoin:round;">
</g>
<g style="fill:#121212; fill-opacity:1.0000; 
stroke:#121212; stroke-width:0.0000; stroke-opacity:1; 
stroke-linecap:round; stroke-linejoin:round;">
<circle cx="8.5702" cy="1.5050" r="0.4000" /> 
</g>
<g style="fill:#121212; fill-opacity:1.0000; 
stroke:#121212; stroke-width:0.0212; stroke-opacity:1; 
stroke-linecap:round; stroke-linejoin:round;">
</g>
<g style="fill:#121212; fill-opacity:1.0000; 
stroke:#121212; stroke-width:0.0000; stroke-opacity:1; 
stroke-linecap:round; stroke-linejoin:round;">
<circle cx="12.0433" cy="1.5808" r="0.4000" /> 
</g>
<g style="fill:#121212; fill-opacity:1.0000; 
stroke:#121212; stroke-width:0.0212; stroke-opacity:1; 
stroke-linecap:round; stroke-linejoin:round;">
</g>
<g >
</g>
<g style="fill:#B2803A; fill-opacity:1.0000; 
stroke:#B2803A; stroke-width:0.0212; stroke-opacity:1; 
stroke-linecap:round; stroke-linejoin:round;">
</g>
<g style="fill:#B2803A; fill-opacity:1.0000; 
stroke:#B2803A; stroke-width:0.2500; stroke-opacity:1; 
stroke-linecap:round; stroke-linejoin:round;">
</g>
<g style="fill:#B2803A; fill-opacity:0.0; 
stroke:#B2803A; stroke-width:0.2500; stroke-opacity:1; 
stroke-linecap:round; stroke-linejoin:round;">
<path d="M10.6952 2.5800
L8.8202 4.4550
" />
<path d="M12.0827 4.8050
L14.3827 7.1050
" />
<path d="M12.0827 2.5800
L12.0827 4.8050
" />
<path d="M12.0827 2.5800
L10.6952 2.5800
" />
<path d="M10.1202 7.3550
L9.0802 7.3550
" />
<path d="M9.0802 7.3550
L6.0902 4.3650
" />
<path d="M8.2252 1.8250
L8.7452 1.3050
" />
<path d="M12.0433 1.5808
L8.6460 1.5808
" />
<path d="M8.6460 1.5808
L8.5702 1.5050
" />
<path d="M6.0902 1.8250
L8.2252 1.8250
" />
</g>
<g >
</g>
<g style="fill:#B2803A; fill-opacity:0.0; 
stroke:#B2803A; stroke-width:0.2500; stroke-opacity:1; 
stroke-linecap:round; stroke-linejoin:round;">
<g >
</g>
<g style="fill:#B2803A; fill-opacity:1.0000; 
stroke:#B2803A; stroke-width:0.0000; stroke-opacity:1; 
stroke-linecap:round; stroke-linejoin:round;">
<path style="fill:#B2803A; fill-opacity:1.0000; 
stroke:#B2803A; stroke-width:0.0000; stroke-opacity:1; 
stroke-linecap:round; stroke-linejoin:round;fill-rule:evenodd;"
d="M 14.7369,1.0755
14.7834,1.1292
14.7947,1.1815
14.7947,7.5532
14.7747,7.6213
14.7211,7.6678
14.6687,7.6792
11.1397,7.6775
11.0716,7.6575
11.0251,7.6038
11.0145,7.5383
11.0162,7.5222
11.0337,7.3550
11.0138,7.1651
10.9548,6.9834
10.8593,6.8181
10.8593,6.8181
10.8593,6.8180
10.7315,6.6761
10.5770,6.5639
10.4025,6.4862
10.2157,6.4465
10.0248,6.4465
9.8379,6.4862
9.6635,6.5639
9.5090,6.6761
9.5057,6.6798
9.4452,6.7170
9.4120,6.7215
9.3948,6.7215
9.3267,6.7015
9.3057,6.6846
7.4401,4.8190
7.4061,4.7566
7.4071,4.6989
7.4348,4.5894
7.4534,4.3650
7.4348,4.1406
7.3795,3.9224
7.2891,3.7162
7.2824,3.7059
7.1660,3.5277
7.1660,3.5277
7.0228,3.3722
6.9913,3.3085
6.9993,3.2380
7.0442,3.1829
7.0714,3.1688
7.1864,3.1259
7.3035,3.0383
7.3911,2.9212
7.4422,2.7842
7.4487,2.7236
7.4487,2.5845
7.4687,2.5164
7.5224,2.4699
7.5747,2.4585
8.1414,2.4585
8.1572,2.4602
8.1573,2.4600
8.1651,2.4607
8.1651,2.4607
8.2352,2.4585
8.2651,2.4585
8.2721,2.4576
8.2780,2.4572
8.3251,2.4557
8.3446,2.4500
8.3639,2.4460
8.3840,2.4435
8.4279,2.4261
8.4335,2.4242
8.4531,2.4185
8.4882,2.4135
8.6657,2.4135
8.8525,2.3738
9.0270,2.2961
9.1065,2.2383
9.1734,2.2145
9.1806,2.2143
11.3351,2.2143
11.4032,2.2343
11.4287,2.2560
11.4320,2.2596
11.5865,2.3719
11.7610,2.4496
11.9478,2.4893
12.1388,2.4893
12.3256,2.4496
12.5000,2.3719
12.6545,2.2596
12.6579,2.2560
12.7823,2.1177
12.7823,2.1177
12.7823,2.1177
12.8778,1.9523
12.9368,1.7707
12.9568,1.5808
12.9368,1.3908
12.8815,1.2204
12.8794,1.1495
12.9161,1.0887
12.9798,1.0573
13.0013,1.0555
14.6687,1.0555
Z" /> 
<path style="fill:#B2803A; fill-opacity:1.0000; 
stroke:#B2803A; stroke-width:0.0000; stroke-opacity:1; 
stroke-linecap:round; stroke-linejoin:round;fill-rule:evenodd;"
d="M 7.4963,6.6710
7.5172,6.6879
8.2904,7.4610
8.3244,7.5233
8.3193,7.5941
8.2768,7.6510
8.2102,7.6758
8.2012,7.6761
7.4279,7.6757
7.3597,7.6557
7.3133,7.6020
7.3032,7.5318
7.3125,7.4991
7.3791,7.3475
7.3791,7.3474
7.4268,7.1590
6.5214,7.1590
6.5497,7.1148
6.5902,6.9769
6.5902,6.8331
6.5497,6.6952
6.5214,6.6510
7.4281,6.6510
Z" /> 
</g>
</g>
</g>
<g style="fill:#000000; fill-opacity:1.0000; 
stroke:#000000; stroke-width:0.0000; stroke-opacity:1; 
stroke-linecap:round; stroke-linejoin:round;">
<circle cx="8.8202" cy="4.4550" r="0.2000" /> 
</g>
<g style="fill:#000000; fill-opacity:1.0000; 
stroke:#000000; stroke-width:0.0212; stroke-opacity:1; 
stroke-linecap:round; stroke-linejoin:round;">
</g>
<g style="fill:#000000; fill-opacity:1.0000; 
stroke:#000000; stroke-width:0.0000; stroke-opacity:1; 
stroke-linecap:round; stroke-linejoin:round;">
<circle cx="14.3827" cy="7.1050" r="0.2000" /> 
</g>
<g style="fill:#000000; fill-opacity:1.0000; 
stroke:#000000; stroke-width:0.0212; stroke-opacity:1; 
stroke-linecap:round; stroke-linejoin:round;">
</g>
<g style="fill:#000000; fill-opacity:1.0000; 
stroke:#000000; stroke-width:0.0000; stroke-opacity:1; 
stroke-linecap:round; stroke-linejoin:round;">
<circle cx="12.0827" cy="2.5800" r="0.2000" /> 
</g>
<g style="fill:#000000; fill-opacity:1.0000; 
stroke:#000000; stroke-width:0.0212; stroke-opacity:1; 
stroke-linecap:round; stroke-linejoin:round;">
</g>
<g style="fill:#000000; fill-opacity:1.0000; 
stroke:#000000; stroke-width:0.0000; stroke-opacity:1; 
stroke-linecap:round; stroke-linejoin:round;">
<circle cx="10.1202" cy="7.3550" r="0.2000" /> 
</g>
<g style="fill:#000000; fill-opacity:1.0000; 
stroke:#000000; stroke-width:0.0212; stroke-opacity:1; 
stroke-linecap:round; stroke-linejoin:round;">
</g>
<g style="fill:#000000; fill-opacity:1.0000; 
stroke:#000000; stroke-width:0.0000; stroke-opacity:1; 
stroke-linecap:round; stroke-linejoin:round;">
<circle cx="8.5702" cy="1.5050" r="0.2000" /> 
</g>
<g style="fill:#000000; fill-opacity:1.0000; 
stroke:#000000; stroke-width:0.0212; stroke-opacity:1; 
stroke-linecap:round; stroke-linejoin:round;">
</g>
<g style="fill:#000000; fill-opacity:1.0000; 
stroke:#000000; stroke-width:0.0000; stroke-opacity:1; 
stroke-linecap:round; stroke-linejoin:round;">
<circle cx="12.0433" cy="1.5808" r="0.2000" /> 
</g>
<g style="fill:#000000; fill-opacity:1.0000; 
stroke:#000000; stroke-width:0.0212; stroke-opacity:1; 
stroke-linecap:round; stroke-linejoin:round;">
</g>
<g style="fill:#000000; fill-opacity:1.0000; 
stroke:#000000; stroke-width:0.0000; stroke-opacity:1; 
stroke-linecap:round; stroke-linejoin:round;">
<circle cx="6.0902" cy="1.8250" r="0.5000" /> 
</g>
<g style="fill:#000000; fill-opacity:1.0000; 
stroke:#000000; stroke-width:0.0212; stroke-opacity:1; 
stroke-linecap:round; stroke-linejoin:round;">
</g>
<g style="fill:#000000; fill-opacity:1.0000; 
stroke:#000000; stroke-width:0.0000; stroke-opacity:1; 
stroke-linecap:round; stroke-linejoin:round;">
<circle cx="6.0902" cy="4.3650" r="0.5000" /> 
</g>
<g style="fill:#000000; fill-opacity:1.0000; 
stroke:#000000; stroke-width:0.0212; stroke-opacity:1; 
stroke-linecap:round; stroke-linejoin:round;">
</g>
<g style="fill:#000000; fill-opacity:1.0000; 
stroke:#000000; stroke-width:0.0000; stroke-opacity:1; 
stroke-linecap:round; stroke-linejoin:round;">
<circle cx="6.0902" cy="6.9050" r="0.5000" /> 
</g>
<g style="fill:#000000; fill-opacity:1.0000; 
stroke:#000000; stroke-width:0.0212; stroke-opacity:1; 
stroke-linecap:round; stroke-linejoin:round;">
</g>
<g style="fill:#FFFFFF; fill-opacity:1.0000; 
stroke:#FFFFFF; stroke-width:0.0212; stroke-opacity:1; 
stroke-linecap:round; stroke-linejoin:round;">
<g >
</g>
<g style="fill:#37CBCB; fill-opacity:1.0000; 
stroke:#37CBCB; stroke-width:0.0212; stroke-opacity:1; 
stroke-linecap:round; stroke-linejoin:round;">
</g>
<g style="fill:#37CBCB; fill-opacity:1.0000; 
stroke:#37CBCB; stroke-width:0.0000; stroke-opacity:1; 
stroke-linecap:round; stroke-linejoin:round;">
<path style="fill:#37CBCB; fill-opacity:1.0000; 
stroke:#37CBCB; stroke-width:0.0000; stroke-opacity:1; 
stroke-linecap:round; stroke-linejoin:round;fill-rule:evenodd;"
d="M 10.5702,7.6050
10.5531,7.6911
10.5043,7.7641
10.4313,7.8129
10.3452,7.8300
9.8952,7.8300
9.8091,7.8129
9.7361,7.7641
9.6874,7.6911
9.6702,7.6050
9.6702,7.1050
9.6874,7.0189
9.7361,6.9459
9.8091,6.8971
9.8952,6.8800
10.3452,6.8800
10.4313,6.8971
10.5043,6.9459
10.5531,7.0189
10.5702,7.1050
Z" /> 
<path style="fill:#37CBCB; fill-opacity:1.0000; 
stroke:#37CBCB; stroke-width:0.0000; stroke-opacity:1; 
stroke-linecap:round; stroke-linejoin:round;fill-rule:evenodd;"
d="M 9.0202,7.6050
9.0031,7.6911
8.9543,7.7641
8.8813,7.8129
8.7952,7.8300
8.3452,7.8300
8.2591,7.8129
8.1861,7.7641
8.1374,7.6911
8.1202,7.6050
8.1202,7.1050
8.1374,7.0189
8.1861,6.9459
8.2591,6.8971
8.3452,6.8800
8.7952,6.8800
8.8813,6.8971
8.9543,6.9459
9.0031,7.0189
9.0202,7.1050
Z" /> 
</g>
<g >
</g>
<g style="fill:#37CBCB; fill-opacity:1.0000; 
stroke:#37CBCB; stroke-width:0.0000; stroke-opacity:1; 
stroke-linecap:round; stroke-linejoin:round;">
<path style="fill:#37CBCB; fill-opacity:1.0000; 
stroke:#37CBCB; stroke-width:0.0000; stroke-opacity:1; 
stroke-linecap:round; stroke-linejoin:round;fill-rule:evenodd;"
d="M 10.5702,4.6800
10.5531,4.7661
10.5043,4.8391
10.4313,4.8879
10.3452,4.9050
9.8952,4.9050
9.8091,4.8879
9.7361,4.8391
9.6874,4.7661
9.6702,4.6800
9.6702,4.1800
9.6874,4.0939
9.7361,4.0209
9.8091,3.9721
9.8952,3.9550
10.3452,3.9550
10.4313,3.9721
10.5043,4.0209
10.5531,4.0939
10.5702,4.1800
Z" /> 
<path style="fill:#37CBCB; fill-opacity:1.0000; 
stroke:#37CBCB; stroke-width:0.0000; stroke-opacity:1; 
stroke-linecap:round; stroke-linejoin:round;fill-rule:evenodd;"
d="M 9.0202,4.6800
9.0031,4.7661
8.9543,4.8391
8.8813,4.8879
8.7952,4.9050
8.3452,4.9050
8.2591,4.8879
8.1861,4.8391
8.1374,4.7661
8.1202,4.6800
8.1202,4.1800
8.1374,4.0939
8.1861,4.0209
8.2591,3.9721
8.3452,3.9550
8.7952,3.9550
8.8813,3.9721
8.9543,4.0209
9.0031,4.0939
9.0202,4.1800
Z" /> 
</g>
<g >
</g>
<g style="fill:#37CBCB; fill-opacity:1.0000; 
stroke:#37CBCB; stroke-width:0.0000; stroke-opacity:1; 
stroke-linecap:round; stroke-linejoin:round;">
<path style="fill:#37CBCB; fill-opacity:1.0000; 
stroke:#37CBCB; stroke-width:0.0000; stroke-opacity:1; 
stroke-linecap:round; stroke-linejoin:round;fill-rule:evenodd;"
d="M 8.1202,1.2550
8.1374,1.1689
8.1861,1.0959
8.2591,1.0471
8.3452,1.0300
8.7952,1.0300
8.8813,1.0471
8.9543,1.0959
9.0031,1.1689
9.0202,1.2550
9.0202,1.7550
9.0031,1.8411
8.9543,1.9141
8.8813,1.9629
8.7952,1.9800
8.3452,1.9800
8.2591,1.9629
8.1861,1.9141
8.1374,1.8411
8.1202,1.7550
Z" /> 
<path style="fill:#37CBCB; fill-opacity:1.0000; 
stroke:#37CBCB; stroke-width:0.0000; stroke-opacity:1; 
stroke-linecap:round; stroke-linejoin:round;fill-rule:evenodd;"
d="M 9.6702,1.2550
9.6874,1.1689
9.7361,1.0959
9.8091,1.0471
9.8952,1.0300
10.3452,1.0300
10.4313,1.0471
10.5043,1.0959
10.5531,1.1689
10.5702,1.2550
10.5702,1.7550
10.5531,1.8411
10.5043,1.9141
10.4313,1.9629
10.3452,1.9800
9.8952,1.9800
9.8091,1.9629
9.7361,1.9141
9.6874,1.8411
9.6702,1.7550
Z" /> 
</g>
<g >
</g>
<g style="fill:#37CBCB; fill-opacity:1.0000; 
stroke:#37CBCB; stroke-width:0.0000; stroke-opacity:1; 
stroke-linecap:round; stroke-linejoin:round;">
<path style="fill:#37CBCB; fill-opacity:1.0000; 
stroke:#37CBCB; stroke-width:0.0000; stroke-opacity:1; 
stroke-linecap:round; stroke-linejoin:round;fill-rule:evenodd;"
d="M 10.5702,6.1550
10.5531,6.2411
10.5043,6.3141
10.4313,6.3629
10.3452,6.3800
9.8952,6.3800
9.8091,6.3629
9.7361,6.3141
9.6874,6.2411
9.6702,6.1550
9.6702,5.6550
9.6874,5.5689
9.7361,5.4959
9.8091,5.4471
9.8952,5.4300
10.3452,5.4300
10.4313,5.4471
10.5043,5.4959
10.5531,5.5689
10.5702,5.6550
Z" /> 
<path style="fill:#37CBCB; fill-opacity:1.0000; 
stroke:#37CBCB; stroke-width:0.0000; stroke-opacity:1; 
stroke-linecap:round; stroke-linejoin:round;fill-rule:evenodd;"
d="M 9.0202,6.1550
9.0031,6.2411
8.9543,6.3141
8.8813,6.3629
8.7952,6.3800
8.3452,6.3800
8.2591,6.3629
8.1861,6.3141
8.1374,6.2411
8.1202,6.1550
8.1202,5.6550
8.1374,5.5689
8.1861,5.4959
8.2591,5.4471
8.3452,5.4300
8.7952,5.4300
8.8813,5.4471
8.9543,5.4959
9.0031,5.5689
9.0202,5.6550
Z" /> 
</g>
<g >
</g>
<g style="fill:#37CBCB; fill-opacity:1.0000; 
stroke:#37CBCB; stroke-width:0.0000; stroke-opacity:1; 
stroke-linecap:round; stroke-linejoin:round;">
<path style="fill:#37CBCB; fill-opacity:1.0000; 
stroke:#37CBCB; stroke-width:0.0000; stroke-opacity:1; 
stroke-linecap:round; stroke-linejoin:round;fill-rule:evenodd;"
d="M 5.2402,2.6750
5.2402,0.9750
6.9402,0.9750
6.9402,2.6750
Z" /> 
<circle cx="6.0902" cy="4.3650" r="0.8500" /> 
<circle cx="6.0902" cy="6.9050" r="0.8500" /> 
</g>
<g >
</g>
<g style="fill:#37CBCB; fill-opacity:1.0000; 
stroke:#37CBCB; stroke-width:0.0000; stroke-opacity:1; 
stroke-linecap:round; stroke-linejoin:round;">
<path style="fill:#37CBCB; fill-opacity:1.0000; 
stroke:#37CBCB; stroke-width:0.0000; stroke-opacity:1; 
stroke-linecap:round; stroke-linejoin:round;fill-rule:evenodd;"
d="M 8.1202,2.7050
8.1355,2.6285
8.1788,2.5636
8.2437,2.5202
8.3202,2.5050
8.7202,2.5050
8.7968,2.5202
8.8617,2.5636
8.9050,2.6285
8.9202,2.7050
8.9202,3.2550
8.9050,3.3315
8.8617,3.3964
8.7968,3.4398
8.7202,3.4550
8.3202,3.4550
8.2437,3.4398
8.1788,3.3964
8.1355,3.3315
8.1202,3.2550
Z" /> 
<path style="fill:#37CBCB; fill-opacity:1.0000; 
stroke:#37CBCB; stroke-width:0.0000; stroke-opacity:1; 
stroke-linecap:round; stroke-linejoin:round;fill-rule:evenodd;"
d="M 9.7702,2.7050
9.7855,2.6285
9.8288,2.5636
9.8937,2.5202
9.9702,2.5050
10.3702,2.5050
10.4468,2.5202
10.5117,2.5636
10.5550,2.6285
10.5702,2.7050
10.5702,3.2550
10.5550,3.3315
10.5117,3.3964
10.4468,3.4398
10.3702,3.4550
9.9702,3.4550
9.8937,3.4398
9.8288,3.3964
9.7855,3.3315
9.7702,3.2550
Z" /> 
</g>
<g >
</g>
<g style="fill:#37CBCB; fill-opacity:1.0000; 
stroke:#37CBCB; stroke-width:0.0000; stroke-opacity:1; 
stroke-linecap:round; stroke-linejoin:round;">
<path style="fill:#37CBCB; fill-opacity:1.0000; 
stroke:#37CBCB; stroke-width:0.0000; stroke-opacity:1; 
stroke-linecap:round; stroke-linejoin:round;fill-rule:evenodd;"
d="M 15.0202,7.2550
15.0088,7.3124
14.9763,7.3611
14.9276,7.3936
14.8702,7.4050
13.8452,7.4050
13.7878,7.3936
13.7392,7.3611
13.7067,7.3124
13.6952,7.2550
13.6952,6.9550
13.7067,6.8976
13.7392,6.8489
13.7878,6.8164
13.8452,6.8050
14.8702,6.8050
14.9276,6.8164
14.9763,6.8489
15.0088,6.8976
15.0202,6.9550
Z" /> 
<path style="fill:#37CBCB; fill-opacity:1.0000; 
stroke:#37CBCB; stroke-width:0.0000; stroke-opacity:1; 
stroke-linecap:round; stroke-linejoin:round;fill-rule:evenodd;"
d="M 15.0202,6.3050
15.0088,6.3624
14.9763,6.4111
14.9276,6.4436
14.8702,6.4550
13.8452,6.4550
13.7878,6.4436
13.7392,6.4111
13.7067,6.3624
13.6952,6.3050
13.6952,6.0050
13.7067,5.9476
13.7392,5.8989
13.7878,5.8664
13.8452,5.8550
14.8702,5.8550
14.9276,5.8664
14.9763,5.8989
15.0088,5.9476
15.0202,6.0050
Z" /> 
<path style="fill:#37CBCB; fill-opacity:1.0000; 
stroke:#37CBCB; stroke-width:0.0000; stroke-opacity:1; 
stroke-linecap:round; stroke-linejoin:round;fill-rule:evenodd;"
d="M 15.0202,5.3550
15.0088,5.4124
14.9763,5.4611
14.9276,5.4936
14.8702,5.5050
13.8452,5.5050
13.7878,5.4936
13.7392,5.4611
13.7067,5.4124
13.6952,5.3550
13.6952,5.0550
13.7067,4.9976
13.7392,4.9489
13.7878,4.9164
13.8452,4.9050
14.8702,4.9050
14.9276,4.9164
14.9763,4.9489
15.0088,4.9976
15.0202,5.0550
Z" /> 
<path style="fill:#37CBCB; fill-opacity:1.0000; 
stroke:#37CBCB; stroke-width:0.0000; stroke-opacity:1; 
stroke-linecap:round; stroke-linejoin:round;fill-rule:evenodd;"
d="M 12.7452,5.3550
12.7338,5.4124
12.7013,5.4611
12.6526,5.4936
12.5952,5.5050
11.5702,5.5050
11.5128,5.4936
11.4642,5.4611
11.4317,5.4124
11.4202,5.3550
11.4202,5.0550
11.4317,4.9976
11.4642,4.9489
11.5128,4.9164
11.5702,4.9050
12.5952,4.9050
12.6526,4.9164
12.7013,4.9489
12.7338,4.9976
12.7452,5.0550
Z" /> 
<path style="fill:#37CBCB; fill-opacity:1.0000; 
stroke:#37CBCB; stroke-width:0.0000; stroke-opacity:1; 
stroke-linecap:round; stroke-linejoin:round;fill-rule:evenodd;"
d="M 12.7452,7.2550
12.7338,7.3124
12.7013,7.3611
12.6526,7.3936
12.5952,7.4050
11.5702,7.4050
11.5128,7.3936
11.4642,7.3611
11.4317,7.3124
11.4202,7.2550
11.4202,6.9550
11.4317,6.8976
11.4642,6.8489
11.5128,6.8164
11.5702,6.8050
12.5952,6.8050
12.6526,6.8164
12.7013,6.8489
12.7338,6.8976
12.7452,6.9550
Z" /> 
</g>
<g >
</g>
<g style="fill:#37CBCB; fill-opacity:1.0000; 
stroke:#37CBCB; stroke-width:0.0000; stroke-opacity:1; 
stroke-linecap:round; stroke-linejoin:round;">
<path style="fill:#37CBCB; fill-opacity:1.0000; 
stroke:#37CBCB; stroke-width:0.0000; stroke-opacity:1; 
stroke-linecap:round; stroke-linejoin:round;fill-rule:evenodd;"
d="M 11.4202,1.4800
11.4317,1.4226
11.4642,1.3739
11.5128,1.3414
11.5702,1.3300
12.5952,1.3300
12.6526,1.3414
12.7013,1.3739
12.7338,1.4226
12.7452,1.4800
12.7452,1.7800
12.7338,1.8374
12.7013,1.8861
12.6526,1.9186
12.5952,1.9300
11.5702,1.9300
11.5128,1.9186
11.4642,1.8861
11.4317,1.8374
11.4202,1.7800
Z" /> 
<path style="fill:#37CBCB; fill-opacity:1.0000; 
stroke:#37CBCB; stroke-width:0.0000; stroke-opacity:1; 
stroke-linecap:round; stroke-linejoin:round;fill-rule:evenodd;"
d="M 11.4202,2.4300
11.4317,2.3726
11.4642,2.3239
11.5128,2.2914
11.5702,2.2800
12.5952,2.2800
12.6526,2.2914
12.7013,2.3239
12.7338,2.3726
12.7452,2.4300
12.7452,2.7300
12.7338,2.7874
12.7013,2.8361
12.6526,2.8686
12.5952,2.8800
11.5702,2.8800
11.5128,2.8686
11.4642,2.8361
11.4317,2.7874
11.4202,2.7300
Z" /> 
<path style="fill:#37CBCB; fill-opacity:1.0000; 
stroke:#37CBCB; stroke-width:0.0000; stroke-opacity:1; 
stroke-linecap:round; stroke-linejoin:round;fill-rule:evenodd;"
d="M 11.4202,3.3800
11.4317,3.3226
11.4642,3.2739
11.5128,3.2414
11.5702,3.2300
12.5952,3.2300
12.6526,3.2414
12.7013,3.2739
12.7338,3.3226
12.7452,3.3800
12.7452,3.6800
12.7338,3.7374
12.7013,3.7861
12.6526,3.8186
12.5952,3.8300
11.5702,3.8300
11.5128,3.8186
11.4642,3.7861
11.4317,3.7374
11.4202,3.6800
Z" /> 
<path style="fill:#37CBCB; fill-opacity:1.0000; 
stroke:#37CBCB; stroke-width:0.0000; stroke-opacity:1; 
stroke-linecap:round; stroke-linejoin:round;fill-rule:evenodd;"
d="M 13.6952,3.3800
13.7067,3.3226
13.7392,3.2739
13.7878,3.2414
13.8452,3.2300
14.8702,3.2300
14.9276,3.2414
14.9763,3.2739
15.0088,3.3226
15.0202,3.3800
15.0202,3.6800
15.0088,3.7374
14.9763,3.7861
14.9276,3.8186
14.8702,3.8300
13.8452,3.8300
13.7878,3.8186
13.7392,3.7861
13.7067,3.7374
13.6952,3.6800
Z" /> 
<path style="fill:#37CBCB; fill-opacity:1.0000; 
stroke:#37CBCB; stroke-width:0.0000; stroke-opacity:1; 
stroke-linecap:round; stroke-linejoin:round;fill-rule:evenodd;"
d="M 13.6952,1.4800
13.7067,1.4226
13.7392,1.3739
13.7878,1.3414
13.8452,1.3300
14.8702,1.3300
14.9276,1.3414
14.9763,1.3739
15.0088,1.4226
15.0202,1.4800
15.0202,1.7800
15.0088,1.8374
14.9763,1.8861
14.9276,1.9186
14.8702,1.9300
13.8452,1.9300
13.7878,1.9186
13.7392,1.8861
13.7067,1.8374
13.6952,1.7800
Z" /> 
</g>
<g >
</g>
<g style="fill:#121212; fill-opacity:1.0000; 
stroke:#121212; stroke-width:0.0000; stroke-opacity:1; 
stroke-linecap:round; stroke-linejoin:round;">
<circle cx="8.8202" cy="4.4550" r="0.4000" /> 
</g>
<g style="fill:#121212; fill-opacity:1.0000; 
stroke:#121212; stroke-width:0.0212; stroke-opacity:1; 
stroke-linecap:round; stroke-linejoin:round;">
</g>
<g style="fill:#121212; fill-opacity:1.0000; 
stroke:#121212; stroke-width:0.0000; stroke-opacity:1; 
stroke-linecap:round; stroke-linejoin:round;">
<circle cx="14.3827" cy="7.1050" r="0.4000" /> 
</g>
<g style="fill:#121212; fill-opacity:1.0000; 
stroke:#121212; stroke-width:0.0212; stroke-opacity:1; 
stroke-linecap:round; stroke-linejoin:round;">
</g>
<g style="fill:#121212; fill-opacity:1.0000; 
stroke:#121212; stroke-width:0.0000; stroke-opacity:1; 
stroke-linecap:round; stroke-linejoin:round;">
<circle cx="12.0827" cy="2.5800" r="0.4000" /> 
</g>
<g style="fill:#121212; fill-opacity:1.0000; 
stroke:#121212; stroke-width:0.0212; stroke-opacity:1; 
stroke-linecap:round; stroke-linejoin:round;">
</g>
<g style="fill:#121212; fill-opacity:1.0000; 
stroke:#121212; stroke-width:0.0000; stroke-opacity:1; 
stroke-linecap:round; stroke-linejoin:round;">
<circle cx="10.1202" cy="7.3550" r="0.4000" /> 
</g>
<g style="fill:#121212; fill-opacity:1.0000; 
stroke:#121212; stroke-width:0.0212; stroke-opacity:1; 
stroke-linecap:round; stroke-linejoin:round;">
</g>
<g style="fill:#121212; fill-opacity:1.0000; 
stroke:#121212; stroke-width:0.0000; stroke-opacity:1; 
stroke-linecap:round; stroke-linejoin:round;">
<circle cx="8.5702" cy="1.5050" r="0.4000" /> 
</g>
<g style="fill:#121212; fill-opacity:1.0000; 
stroke:#121212; stroke-width:0.0212; stroke-opacity:1; 
stroke-linecap:round; stroke-linejoin:round;">
</g>
<g style="fill:#121212; fill-opacity:1.0000; 
stroke:#121212; stroke-width:0.0000; stroke-opacity:1; 
stroke-linecap:round; stroke-linejoin:round;">
<circle cx="12.0433" cy="1.5808" r="0.4000" /> 
</g>
<g style="fill:#121212; fill-opacity:1.0000; 
stroke:#121212; stroke-width:0.0212; stroke-opacity:1; 
stroke-linecap:round; stroke-linejoin:round;">
</g>
<g >
</g>
<g style="fill:#37CBCB; fill-opacity:1.0000; 
stroke:#37CBCB; stroke-width:0.0212; stroke-opacity:1; 
stroke-linecap:round; stroke-linejoin:round;">
</g>
<g style="fill:#37CBCB; fill-opacity:1.0000; 
stroke:#37CBCB; stroke-width:0.2500; stroke-opacity:1; 
stroke-linecap:round; stroke-linejoin:round;">
</g>
<g style="fill:#37CBCB; fill-opacity:0.0; 
stroke:#37CBCB; stroke-width:0.2500; stroke-opacity:1; 
stroke-linecap:round; stroke-linejoin:round;">
<path d="M6.0902 6.9050
L8.1202 6.9050
" />
<path d="M11.5702 2.5800
L10.2952 1.3050
" />
<path d="M12.0827 2.5800
L11.5702 2.5800
" />
<path d="M8.1202 6.9050
L8.5702 7.3550
" />
<path d="M10.3702 7.1050
L10.1202 7.3550
" />
<path d="M12.0827 7.1050
L10.3702 7.1050
" />
<path d="M13.0702 2.9175
L13.0702 4.2425
" />
<path d="M11.1452 5.2050
L10.3452 6.0050
" />
<path d="M12.1077 5.2050
L11.1202 5.2050
" />
<path d="M11.1202 5.2050
L10.3702 4.4550
" />
<path d="M13.0702 4.2425
L12.1077 5.2050
" />
<path d="M12.1077 5.2050
L11.1452 5.2050
" />
<path d="M14.3577 1.6300
L13.0702 2.9175
" />
<path d="M12.0827 1.6300
L12.0827 1.6202
" />
<path d="M12.0827 1.6202
L12.0433 1.5808
" />
<path d="M8.7452 1.3050
L8.7452 2.8300
" />
<path d="M8.7452 2.8300
L8.7202 2.8550
" />
<path d="M12.0827 3.5300
L11.0452 3.5300
" />
<path d="M11.0452 3.5300
L10.3702 2.8550
" />
</g>
<g >
</g>
<g style="fill:#37CBCB; fill-opacity:0.0; 
stroke:#37CBCB; stroke-width:0.2500; stroke-opacity:1; 
stroke-linecap:round; stroke-linejoin:round;">
<g >
</g>
<g style="fill:#37CBCB; fill-opacity:1.0000; 
stroke:#37CBCB; stroke-width:0.0000; stroke-opacity:1; 
stroke-linecap:round; stroke-linejoin:round;">
<path style="fill:#37CBCB; fill-opacity:1.0000; 
stroke:#37CBCB; stroke-width:0.0000; stroke-opacity:1; 
stroke-linecap:round; stroke-linejoin:round;fill-rule:evenodd;"
d="M 8.7664,4.1960
8.8129,4.2497
8.8242,4.3020
8.8242,7.4830
8.8042,7.5511
8.7506,7.5976
8.6982,7.6090
7.6122,7.6090
7.5824,7.6389
7.5201,7.6729
7.4932,7.6758
7.4279,7.6757
7.3597,7.6557
7.3133,7.6020
7.3032,7.5318
7.3125,7.4991
7.3791,7.3475
7.4215,7.1797
7.4577,7.1186
7.5211,7.0867
7.5917,7.0941
7.6020,7.1010
8.3162,7.1010
8.3162,6.1590
7.6122,6.1590
7.6122,6.2039
7.6225,6.3042
7.6225,6.3042
7.6764,6.4669
7.7362,6.5639
7.7549,6.6323
7.7362,6.6961
7.6725,6.7994
7.6698,6.7977
7.6323,6.8402
7.5640,6.8596
7.4961,6.8390
7.4501,6.7849
7.4396,6.7440
7.4343,6.6807
7.3791,6.4625
7.3791,6.4625
7.2887,6.2565
7.1656,6.0680
7.0131,5.9025
6.8355,5.7642
6.8355,5.7642
6.8020,5.7461
6.7516,5.6961
6.7363,5.6268
6.7609,5.5602
6.8020,5.5245
6.8358,5.5062
7.0135,5.3679
7.1660,5.2023
7.2891,5.0138
7.3795,4.8076
7.3795,4.8076
7.3816,4.8028
7.3831,4.8035
7.4200,4.7514
7.4858,4.7248
7.5556,4.7381
7.6071,4.7869
7.6213,4.8238
7.6225,4.8292
7.6764,4.9919
7.7439,5.1014
7.7626,5.1698
7.7439,5.2336
7.6764,5.3431
7.6225,5.5058
7.6225,5.5058
7.6122,5.6061
7.6122,5.6510
8.3162,5.6510
8.3162,4.3020
8.3362,4.2339
8.3899,4.1874
8.4422,4.1760
8.6982,4.1760
Z" /> 
</g>
</g>
</g>
<g style="fill:#000000; fill-opacity:1.0000; 
stroke:#000000; stroke-width:0.0000; stroke-opacity:1; 
stroke-linecap:round; stroke-linejoin:round;">
<circle cx="8.8202" cy="4.4550" r="0.2000" /> 
</g>
<g style="fill:#000000; fill-opacity:1.0000; 
stroke:#000000; stroke-width:0.0212; stroke-opacity:1; 
stroke-linecap:round; stroke-linejoin:round;">
</g>
<g style="fill:#000000; fill-opacity:1.0000; 
stroke:#000000; stroke-width:0.0000; stroke-opacity:1; 
stroke-linecap:round; stroke-linejoin:round;">
<circle cx="14.3827" cy="7.1050" r="0.2000" /> 
</g>
<g style="fill:#000000; fill-opacity:1.0000; 
stroke:#000000; stroke-width:0.0212; stroke-opacity:1; 
stroke-linecap:round; stroke-linejoin:round;">
</g>
<g style="fill:#000000; fill-opacity:1.0000; 
stroke:#000000; stroke-width:0.0000; stroke-opacity:1; 
stroke-linecap:round; stroke-linejoin:round;">
<circle cx="12.0827" cy="2.5800" r="0.2000" /> 
</g>
<g style="fill:#000000; fill-opacity:1.0000; 
stroke:#000000; stroke-width:0.0212; stroke-opacity:1; 
stroke-linecap:round; stroke-linejoin:round;">
</g>
<g style="fill:#000000; fill-opacity:1.0000; 
stroke:#000000; stroke-width:0.0000; stroke-opacity:1; 
stroke-linecap:round; stroke-linejoin:round;">
<circle cx="10.1202" cy="7.3550" r="0.2000" /> 
</g>
<g style="fill:#000000; fill-opacity:1.0000; 
stroke:#000000; stroke-width:0.0212; stroke-opacity:1; 
stroke-linecap:round; stroke-linejoin:round;">
</g>
<g style="fill:#000000; fill-opacity:1.0000; 
stroke:#000000; stroke-width:0.0000; stroke-opacity:1; 
stroke-linecap:round; stroke-linejoin:round;">
<circle cx="8.5702" cy="1.5050" r="0.2000" /> 
</g>
<g style="fill:#000000; fill-opacity:1.0000; 
stroke:#000000; stroke-width:0.0212; stroke-opacity:1; 
stroke-linecap:round; stroke-linejoin:round;">
</g>
<g style="fill:#000000; fill-opacity:1.0000; 
stroke:#000000; stroke-width:0.0000; stroke-opacity:1; 
stroke-linecap:round; stroke-linejoin:round;">
<circle cx="12.0433" cy="1.5808" r="0.2000" /> 
</g>
<g style="fill:#000000; fill-opacity:1.0000; 
stroke:#000000; stroke-width:0.0212; stroke-opacity:1; 
stroke-linecap:round; stroke-linejoin:round;">
</g>
<g style="fill:#000000; fill-opacity:1.0000; 
stroke:#000000; stroke-width:0.0000; stroke-opacity:1; 
stroke-linecap:round; stroke-linejoin:round;">
<circle cx="6.0902" cy="1.8250" r="0.5000" /> 
</g>
<g style="fill:#000000; fill-opacity:1.0000; 
stroke:#000000; stroke-width:0.0212; stroke-opacity:1; 
stroke-linecap:round; stroke-linejoin:round;">
</g>
<g style="fill:#000000; fill-opacity:1.0000; 
stroke:#000000; stroke-width:0.0000; stroke-opacity:1; 
stroke-linecap:round; stroke-linejoin:round;">
<circle cx="6.0902" cy="4.3650" r="0.5000" /> 
</g>
<g style="fill:#000000; fill-opacity:1.0000; 
stroke:#000000; stroke-width:0.0212; stroke-opacity:1; 
stroke-linecap:round; stroke-linejoin:round;">
</g>
<g style="fill:#000000; fill-opacity:1.0000; 
stroke:#000000; stroke-width:0.0000; stroke-opacity:1; 
stroke-linecap:round; stroke-linejoin:round;">
<circle cx="6.0902" cy="6.9050" r="0.5000" /> 
</g>
<g style="fill:#000000; fill-opacity:1.0000; 
stroke:#000000; stroke-width:0.0212; stroke-opacity:1; 
stroke-linecap:round; stroke-linejoin:round;">
</g>
<g style="fill:#FFFFFF; fill-opacity:1.0000; 
stroke:#FFFFFF; stroke-width:0.0212; stroke-opacity:1; 
stroke-linecap:round; stroke-linejoin:round;">
<g >
</g>
<g >
</g>
<g >
</g>
<g >
</g>
<g >
</g>
<g >
</g>
<g >
</g>
<g >
</g>
<g >
</g>
<g >
</g>
<g >
</g>
</g>
<g style="fill:#FFFFFF; fill-opacity:1.0000; 
stroke:#FFFFFF; stroke-width:0.0212; stroke-opacity:1; 
stroke-linecap:round; stroke-linejoin:round;">
</g>
<g style="fill:#2F2D31; fill-opacity:1.0000; 
stroke:#2F2D31; stroke-width:0.0212; stroke-opacity:1; 
stroke-linecap:round; stroke-linejoin:round;">
</g>
<g style="fill:#2F2D31; fill-opacity:1.0000; 
stroke:#2F2D31; stroke-width:0.0500; stroke-opacity:1; 
stroke-linecap:round; stroke-linejoin:round;">
</g>
<g style="fill:#2F2D31; fill-opacity:0.0; 
stroke:#2F2D31; stroke-width:0.0500; stroke-opacity:1; 
stroke-linecap:round; stroke-linejoin:round;">
<path d="M4.8202 0.5550
L4.8202 8.1750
" />
<path d="M15.2952 8.1800
L15.2952 0.5550
" />
<path d="M15.2952 0.5550
L4.8202 0.5550
" />
<path d="M4.8202 8.1750
L15.2952 8.1800
" />
<g >
</g>
<g >
</g>
<g >
</g>
<g >
</g>
<g >
</g>
<g >
</g>
<g >
</g>
<g >
</g>
<g >
</g>
<g >
</g>
<g >
</g>
</g> 
</svg>
