<?xml version="1.0" standalone="no"?>
 <!DOCTYPE svg PUBLIC "-//W3C//DTD SVG 1.1//EN" 
 "http://www.w3.org/Graphics/SVG/1.1/DTD/svg11.dtd"> 
<svg
  xmlns:svg="http://www.w3.org/2000/svg"
  xmlns="http://www.w3.org/2000/svg"
  xmlns:xlink="http://www.w3.org/1999/xlink"
  version="1.1"
  width="64.7954mm" height="63.8302mm" viewBox="0.0000 0.0000 64.7954 63.8302">
<title>SVG Image created as working-brd.svg date 2023/09/27 20:05:08 </title>
  <desc>Image generated by PCBNEW </desc>
<g style="fill:#000000; fill-opacity:1.0000;stroke:#000000; stroke-opacity:1.0000;
stroke-linecap:round; stroke-linejoin:round;"
 transform="translate(0 0) scale(1 1)">
</g>
<g style="fill:#000000; fill-opacity:0.0; 
stroke:#000000; stroke-width:0.0000; stroke-opacity:1; 
stroke-linecap:round; stroke-linejoin:round;">
</g>
<g style="fill:#000000; fill-opacity:1.0000; 
stroke:#000000; stroke-width:0.0212; stroke-opacity:1; 
stroke-linecap:round; stroke-linejoin:round;">
<rect x="-5.000000" y="-5.000000" width="74.808000" height="73.844500" rx="0.000000" />
</g>
<g style="fill:#FFFFFF; fill-opacity:1.0000; 
stroke:#FFFFFF; stroke-width:0.0212; stroke-opacity:1; 
stroke-linecap:round; stroke-linejoin:round;">
<g >
</g>
<g >
</g>
<g >
</g>
<g >
</g>
<g >
</g>
<g >
</g>
<g >
</g>
<g >
</g>
</g>
<g style="fill:#000000; fill-opacity:1.0000; 
stroke:#000000; stroke-width:0.0212; stroke-opacity:1; 
stroke-linecap:round; stroke-linejoin:round;">
</g>
<g style="fill:#000000; fill-opacity:1.0000; 
stroke:#000000; stroke-width:0.0000; stroke-opacity:1; 
stroke-linecap:round; stroke-linejoin:round;">
<circle cx="18.0990" cy="14.8800" r="1.6000" /> 
</g>
<g style="fill:#000000; fill-opacity:1.0000; 
stroke:#000000; stroke-width:0.0212; stroke-opacity:1; 
stroke-linecap:round; stroke-linejoin:round;">
</g>
<g style="fill:#000000; fill-opacity:1.0000; 
stroke:#000000; stroke-width:0.0000; stroke-opacity:1; 
stroke-linecap:round; stroke-linejoin:round;">
<circle cx="46.0990" cy="14.8800" r="1.6000" /> 
</g>
<g style="fill:#000000; fill-opacity:1.0000; 
stroke:#000000; stroke-width:0.0212; stroke-opacity:1; 
stroke-linecap:round; stroke-linejoin:round;">
</g>
<g style="fill:#000000; fill-opacity:1.0000; 
stroke:#000000; stroke-width:0.0000; stroke-opacity:1; 
stroke-linecap:round; stroke-linejoin:round;">
<circle cx="18.0990" cy="42.8800" r="1.6000" /> 
</g>
<g style="fill:#000000; fill-opacity:1.0000; 
stroke:#000000; stroke-width:0.0212; stroke-opacity:1; 
stroke-linecap:round; stroke-linejoin:round;">
</g>
<g style="fill:#000000; fill-opacity:1.0000; 
stroke:#000000; stroke-width:0.0000; stroke-opacity:1; 
stroke-linecap:round; stroke-linejoin:round;">
<circle cx="46.0990" cy="42.8800" r="1.6000" /> 
</g>
<g style="fill:#000000; fill-opacity:1.0000; 
stroke:#000000; stroke-width:0.0212; stroke-opacity:1; 
stroke-linecap:round; stroke-linejoin:round;">
</g>
<g style="fill:#FFFFFF; fill-opacity:1.0000; 
stroke:#FFFFFF; stroke-width:0.0212; stroke-opacity:1; 
stroke-linecap:round; stroke-linejoin:round;">
<g >
</g>
<g >
</g>
<g >
</g>
<g >
</g>
<g >
</g>
<g >
</g>
<g >
</g>
<g >
</g>
</g>
<g style="fill:#000000; fill-opacity:1.0000; 
stroke:#000000; stroke-width:0.0212; stroke-opacity:1; 
stroke-linecap:round; stroke-linejoin:round;">
</g>
<g style="fill:#000000; fill-opacity:1.0000; 
stroke:#000000; stroke-width:0.0000; stroke-opacity:1; 
stroke-linecap:round; stroke-linejoin:round;">
<circle cx="18.0990" cy="14.8800" r="1.6000" /> 
</g>
<g style="fill:#000000; fill-opacity:1.0000; 
stroke:#000000; stroke-width:0.0212; stroke-opacity:1; 
stroke-linecap:round; stroke-linejoin:round;">
</g>
<g style="fill:#000000; fill-opacity:1.0000; 
stroke:#000000; stroke-width:0.0000; stroke-opacity:1; 
stroke-linecap:round; stroke-linejoin:round;">
<circle cx="46.0990" cy="14.8800" r="1.6000" /> 
</g>
<g style="fill:#000000; fill-opacity:1.0000; 
stroke:#000000; stroke-width:0.0212; stroke-opacity:1; 
stroke-linecap:round; stroke-linejoin:round;">
</g>
<g style="fill:#000000; fill-opacity:1.0000; 
stroke:#000000; stroke-width:0.0000; stroke-opacity:1; 
stroke-linecap:round; stroke-linejoin:round;">
<circle cx="18.0990" cy="42.8800" r="1.6000" /> 
</g>
<g style="fill:#000000; fill-opacity:1.0000; 
stroke:#000000; stroke-width:0.0212; stroke-opacity:1; 
stroke-linecap:round; stroke-linejoin:round;">
</g>
<g style="fill:#000000; fill-opacity:1.0000; 
stroke:#000000; stroke-width:0.0000; stroke-opacity:1; 
stroke-linecap:round; stroke-linejoin:round;">
<circle cx="46.0990" cy="42.8800" r="1.6000" /> 
</g>
<g style="fill:#000000; fill-opacity:1.0000; 
stroke:#000000; stroke-width:0.0212; stroke-opacity:1; 
stroke-linecap:round; stroke-linejoin:round;">
</g>
<g style="fill:#FFFFFF; fill-opacity:1.0000; 
stroke:#FFFFFF; stroke-width:0.0212; stroke-opacity:1; 
stroke-linecap:round; stroke-linejoin:round;">
</g>
<g style="fill:#3D3D3D; fill-opacity:1.0000; 
stroke:#3D3D3D; stroke-width:0.0212; stroke-opacity:1; 
stroke-linecap:round; stroke-linejoin:round;">
</g>
<g style="fill:#3D3D3D; fill-opacity:1.0000; 
stroke:#3D3D3D; stroke-width:0.3000; stroke-opacity:1; 
stroke-linecap:round; stroke-linejoin:round;">
</g>
<g style="fill:#3D3D3D; fill-opacity:0.0; 
stroke:#3D3D3D; stroke-width:0.3000; stroke-opacity:1; 
stroke-linecap:round; stroke-linejoin:round;">
<g transform="rotate(-90.000000 1.4040 26.2330)">
<text x="1.4040" y="26.9830"
textLength="20.7429" font-size="2.0000" lengthAdjust="spacingAndGlyphs"
text-anchor="middle" opacity="0">NO CONNECTORS </text>
</g>
<g class="stroked-text"><desc>NO CONNECTORS </desc>
<path d="M2.0823 35.9473
L0.5823 35.9473
" />
<path d="M0.5823 35.9473
L2.0823 35.0901
" />
<path d="M2.0823 35.0901
L0.5823 35.0901
" />
<path d="M0.5823 34.0901
L0.5823 33.8044
" />
<path d="M0.5823 33.8044
L0.6538 33.6616
" />
<path d="M0.6538 33.6616
L0.7966 33.5187
" />
<path d="M0.7966 33.5187
L1.0823 33.4473
" />
<path d="M1.0823 33.4473
L1.5823 33.4473
" />
<path d="M1.5823 33.4473
L1.8680 33.5187
" />
<path d="M1.8680 33.5187
L2.0109 33.6616
" />
<path d="M2.0109 33.6616
L2.0823 33.8044
" />
<path d="M2.0823 33.8044
L2.0823 34.0901
" />
<path d="M2.0823 34.0901
L2.0109 34.2330
" />
<path d="M2.0109 34.2330
L1.8680 34.3759
" />
<path d="M1.8680 34.3759
L1.5823 34.4473
" />
<path d="M1.5823 34.4473
L1.0823 34.4473
" />
<path d="M1.0823 34.4473
L0.7966 34.3759
" />
<path d="M0.7966 34.3759
L0.6538 34.2330
" />
<path d="M0.6538 34.2330
L0.5823 34.0901
" />
<path d="M1.9395 30.8044
L2.0109 30.8759
" />
<path d="M2.0109 30.8759
L2.0823 31.0901
" />
<path d="M2.0823 31.0901
L2.0823 31.2330
" />
<path d="M2.0823 31.2330
L2.0109 31.4473
" />
<path d="M2.0109 31.4473
L1.8680 31.5901
" />
<path d="M1.8680 31.5901
L1.7252 31.6616
" />
<path d="M1.7252 31.6616
L1.4395 31.7330
" />
<path d="M1.4395 31.7330
L1.2252 31.7330
" />
<path d="M1.2252 31.7330
L0.9395 31.6616
" />
<path d="M0.9395 31.6616
L0.7966 31.5901
" />
<path d="M0.7966 31.5901
L0.6538 31.4473
" />
<path d="M0.6538 31.4473
L0.5823 31.2330
" />
<path d="M0.5823 31.2330
L0.5823 31.0901
" />
<path d="M0.5823 31.0901
L0.6538 30.8759
" />
<path d="M0.6538 30.8759
L0.7252 30.8044
" />
<path d="M0.5823 29.8759
L0.5823 29.5901
" />
<path d="M0.5823 29.5901
L0.6538 29.4473
" />
<path d="M0.6538 29.4473
L0.7966 29.3044
" />
<path d="M0.7966 29.3044
L1.0823 29.2330
" />
<path d="M1.0823 29.2330
L1.5823 29.2330
" />
<path d="M1.5823 29.2330
L1.8680 29.3044
" />
<path d="M1.8680 29.3044
L2.0109 29.4473
" />
<path d="M2.0109 29.4473
L2.0823 29.5901
" />
<path d="M2.0823 29.5901
L2.0823 29.8759
" />
<path d="M2.0823 29.8759
L2.0109 30.0187
" />
<path d="M2.0109 30.0187
L1.8680 30.1616
" />
<path d="M1.8680 30.1616
L1.5823 30.2330
" />
<path d="M1.5823 30.2330
L1.0823 30.2330
" />
<path d="M1.0823 30.2330
L0.7966 30.1616
" />
<path d="M0.7966 30.1616
L0.6538 30.0187
" />
<path d="M0.6538 30.0187
L0.5823 29.8759
" />
<path d="M2.0823 28.5901
L0.5823 28.5901
" />
<path d="M0.5823 28.5901
L2.0823 27.7330
" />
<path d="M2.0823 27.7330
L0.5823 27.7330
" />
<path d="M2.0823 27.0187
L0.5823 27.0187
" />
<path d="M0.5823 27.0187
L2.0823 26.1616
" />
<path d="M2.0823 26.1616
L0.5823 26.1616
" />
<path d="M1.2966 25.4473
L1.2966 24.9473
" />
<path d="M2.0823 24.7330
L2.0823 25.4473
" />
<path d="M2.0823 25.4473
L0.5823 25.4473
" />
<path d="M0.5823 25.4473
L0.5823 24.7330
" />
<path d="M1.9395 23.2330
L2.0109 23.3044
" />
<path d="M2.0109 23.3044
L2.0823 23.5187
" />
<path d="M2.0823 23.5187
L2.0823 23.6616
" />
<path d="M2.0823 23.6616
L2.0109 23.8759
" />
<path d="M2.0109 23.8759
L1.8680 24.0187
" />
<path d="M1.8680 24.0187
L1.7252 24.0901
" />
<path d="M1.7252 24.0901
L1.4395 24.1616
" />
<path d="M1.4395 24.1616
L1.2252 24.1616
" />
<path d="M1.2252 24.1616
L0.9395 24.0901
" />
<path d="M0.9395 24.0901
L0.7966 24.0187
" />
<path d="M0.7966 24.0187
L0.6538 23.8759
" />
<path d="M0.6538 23.8759
L0.5823 23.6616
" />
<path d="M0.5823 23.6616
L0.5823 23.5187
" />
<path d="M0.5823 23.5187
L0.6538 23.3044
" />
<path d="M0.6538 23.3044
L0.7252 23.2330
" />
<path d="M0.5823 22.8044
L0.5823 21.9473
" />
<path d="M2.0823 22.3759
L0.5823 22.3759
" />
<path d="M0.5823 21.1616
L0.5823 20.8759
" />
<path d="M0.5823 20.8759
L0.6538 20.7330
" />
<path d="M0.6538 20.7330
L0.7966 20.5901
" />
<path d="M0.7966 20.5901
L1.0823 20.5187
" />
<path d="M1.0823 20.5187
L1.5823 20.5187
" />
<path d="M1.5823 20.5187
L1.8680 20.5901
" />
<path d="M1.8680 20.5901
L2.0109 20.7330
" />
<path d="M2.0109 20.7330
L2.0823 20.8759
" />
<path d="M2.0823 20.8759
L2.0823 21.1616
" />
<path d="M2.0823 21.1616
L2.0109 21.3044
" />
<path d="M2.0109 21.3044
L1.8680 21.4473
" />
<path d="M1.8680 21.4473
L1.5823 21.5187
" />
<path d="M1.5823 21.5187
L1.0823 21.5187
" />
<path d="M1.0823 21.5187
L0.7966 21.4473
" />
<path d="M0.7966 21.4473
L0.6538 21.3044
" />
<path d="M0.6538 21.3044
L0.5823 21.1616
" />
<path d="M2.0823 19.0187
L1.3680 19.5187
" />
<path d="M2.0823 19.8759
L0.5823 19.8759
" />
<path d="M0.5823 19.8759
L0.5823 19.3044
" />
<path d="M0.5823 19.3044
L0.6538 19.1616
" />
<path d="M0.6538 19.1616
L0.7252 19.0901
" />
<path d="M0.7252 19.0901
L0.8680 19.0187
" />
<path d="M0.8680 19.0187
L1.0823 19.0187
" />
<path d="M1.0823 19.0187
L1.2252 19.0901
" />
<path d="M1.2252 19.0901
L1.2966 19.1616
" />
<path d="M1.2966 19.1616
L1.3680 19.3044
" />
<path d="M1.3680 19.3044
L1.3680 19.8759
" />
<path d="M2.0109 18.4473
L2.0823 18.2330
" />
<path d="M2.0823 18.2330
L2.0823 17.8759
" />
<path d="M2.0823 17.8759
L2.0109 17.7330
" />
<path d="M2.0109 17.7330
L1.9395 17.6616
" />
<path d="M1.9395 17.6616
L1.7966 17.5901
" />
<path d="M1.7966 17.5901
L1.6538 17.5901
" />
<path d="M1.6538 17.5901
L1.5109 17.6616
" />
<path d="M1.5109 17.6616
L1.4395 17.7330
" />
<path d="M1.4395 17.7330
L1.3680 17.8759
" />
<path d="M1.3680 17.8759
L1.2966 18.1616
" />
<path d="M1.2966 18.1616
L1.2252 18.3044
" />
<path d="M1.2252 18.3044
L1.1538 18.3759
" />
<path d="M1.1538 18.3759
L1.0109 18.4473
" />
<path d="M1.0109 18.4473
L0.8680 18.4473
" />
<path d="M0.8680 18.4473
L0.7252 18.3759
" />
<path d="M0.7252 18.3759
L0.6538 18.3044
" />
<path d="M0.6538 18.3044
L0.5823 18.1616
" />
<path d="M0.5823 18.1616
L0.5823 17.8044
" />
<path d="M0.5823 17.8044
L0.6538 17.5901
" />
</g><g transform="rotate(-90.000000 63.4040 26.2330)">
<text x="63.4040" y="26.9830"
textLength="20.7429" font-size="2.0000" lengthAdjust="spacingAndGlyphs"
text-anchor="middle" opacity="0">NO CONNECTORS </text>
</g>
<g class="stroked-text"><desc>NO CONNECTORS </desc>
<path d="M64.0823 35.9473
L62.5823 35.9473
" />
<path d="M62.5823 35.9473
L64.0823 35.0901
" />
<path d="M64.0823 35.0901
L62.5823 35.0901
" />
<path d="M62.5823 34.0901
L62.5823 33.8044
" />
<path d="M62.5823 33.8044
L62.6538 33.6616
" />
<path d="M62.6538 33.6616
L62.7966 33.5187
" />
<path d="M62.7966 33.5187
L63.0823 33.4473
" />
<path d="M63.0823 33.4473
L63.5823 33.4473
" />
<path d="M63.5823 33.4473
L63.8680 33.5187
" />
<path d="M63.8680 33.5187
L64.0109 33.6616
" />
<path d="M64.0109 33.6616
L64.0823 33.8044
" />
<path d="M64.0823 33.8044
L64.0823 34.0901
" />
<path d="M64.0823 34.0901
L64.0109 34.2330
" />
<path d="M64.0109 34.2330
L63.8680 34.3759
" />
<path d="M63.8680 34.3759
L63.5823 34.4473
" />
<path d="M63.5823 34.4473
L63.0823 34.4473
" />
<path d="M63.0823 34.4473
L62.7966 34.3759
" />
<path d="M62.7966 34.3759
L62.6538 34.2330
" />
<path d="M62.6538 34.2330
L62.5823 34.0901
" />
<path d="M63.9395 30.8044
L64.0109 30.8759
" />
<path d="M64.0109 30.8759
L64.0823 31.0901
" />
<path d="M64.0823 31.0901
L64.0823 31.2330
" />
<path d="M64.0823 31.2330
L64.0109 31.4473
" />
<path d="M64.0109 31.4473
L63.8680 31.5901
" />
<path d="M63.8680 31.5901
L63.7252 31.6616
" />
<path d="M63.7252 31.6616
L63.4395 31.7330
" />
<path d="M63.4395 31.7330
L63.2252 31.7330
" />
<path d="M63.2252 31.7330
L62.9395 31.6616
" />
<path d="M62.9395 31.6616
L62.7966 31.5901
" />
<path d="M62.7966 31.5901
L62.6538 31.4473
" />
<path d="M62.6538 31.4473
L62.5823 31.2330
" />
<path d="M62.5823 31.2330
L62.5823 31.0901
" />
<path d="M62.5823 31.0901
L62.6538 30.8759
" />
<path d="M62.6538 30.8759
L62.7252 30.8044
" />
<path d="M62.5823 29.8759
L62.5823 29.5901
" />
<path d="M62.5823 29.5901
L62.6538 29.4473
" />
<path d="M62.6538 29.4473
L62.7966 29.3044
" />
<path d="M62.7966 29.3044
L63.0823 29.2330
" />
<path d="M63.0823 29.2330
L63.5823 29.2330
" />
<path d="M63.5823 29.2330
L63.8680 29.3044
" />
<path d="M63.8680 29.3044
L64.0109 29.4473
" />
<path d="M64.0109 29.4473
L64.0823 29.5901
" />
<path d="M64.0823 29.5901
L64.0823 29.8759
" />
<path d="M64.0823 29.8759
L64.0109 30.0187
" />
<path d="M64.0109 30.0187
L63.8680 30.1616
" />
<path d="M63.8680 30.1616
L63.5823 30.2330
" />
<path d="M63.5823 30.2330
L63.0823 30.2330
" />
<path d="M63.0823 30.2330
L62.7966 30.1616
" />
<path d="M62.7966 30.1616
L62.6538 30.0187
" />
<path d="M62.6538 30.0187
L62.5823 29.8759
" />
<path d="M64.0823 28.5901
L62.5823 28.5901
" />
<path d="M62.5823 28.5901
L64.0823 27.7330
" />
<path d="M64.0823 27.7330
L62.5823 27.7330
" />
<path d="M64.0823 27.0187
L62.5823 27.0187
" />
<path d="M62.5823 27.0187
L64.0823 26.1616
" />
<path d="M64.0823 26.1616
L62.5823 26.1616
" />
<path d="M63.2966 25.4473
L63.2966 24.9473
" />
<path d="M64.0823 24.7330
L64.0823 25.4473
" />
<path d="M64.0823 25.4473
L62.5823 25.4473
" />
<path d="M62.5823 25.4473
L62.5823 24.7330
" />
<path d="M63.9395 23.2330
L64.0109 23.3044
" />
<path d="M64.0109 23.3044
L64.0823 23.5187
" />
<path d="M64.0823 23.5187
L64.0823 23.6616
" />
<path d="M64.0823 23.6616
L64.0109 23.8759
" />
<path d="M64.0109 23.8759
L63.8680 24.0187
" />
<path d="M63.8680 24.0187
L63.7252 24.0901
" />
<path d="M63.7252 24.0901
L63.4395 24.1616
" />
<path d="M63.4395 24.1616
L63.2252 24.1616
" />
<path d="M63.2252 24.1616
L62.9395 24.0901
" />
<path d="M62.9395 24.0901
L62.7966 24.0187
" />
<path d="M62.7966 24.0187
L62.6538 23.8759
" />
<path d="M62.6538 23.8759
L62.5823 23.6616
" />
<path d="M62.5823 23.6616
L62.5823 23.5187
" />
<path d="M62.5823 23.5187
L62.6538 23.3044
" />
<path d="M62.6538 23.3044
L62.7252 23.2330
" />
<path d="M62.5823 22.8044
L62.5823 21.9473
" />
<path d="M64.0823 22.3759
L62.5823 22.3759
" />
<path d="M62.5823 21.1616
L62.5823 20.8759
" />
<path d="M62.5823 20.8759
L62.6538 20.7330
" />
<path d="M62.6538 20.7330
L62.7966 20.5901
" />
<path d="M62.7966 20.5901
L63.0823 20.5187
" />
<path d="M63.0823 20.5187
L63.5823 20.5187
" />
<path d="M63.5823 20.5187
L63.8680 20.5901
" />
<path d="M63.8680 20.5901
L64.0109 20.7330
" />
<path d="M64.0109 20.7330
L64.0823 20.8759
" />
<path d="M64.0823 20.8759
L64.0823 21.1616
" />
<path d="M64.0823 21.1616
L64.0109 21.3044
" />
<path d="M64.0109 21.3044
L63.8680 21.4473
" />
<path d="M63.8680 21.4473
L63.5823 21.5187
" />
<path d="M63.5823 21.5187
L63.0823 21.5187
" />
<path d="M63.0823 21.5187
L62.7966 21.4473
" />
<path d="M62.7966 21.4473
L62.6538 21.3044
" />
<path d="M62.6538 21.3044
L62.5823 21.1616
" />
<path d="M64.0823 19.0187
L63.3680 19.5187
" />
<path d="M64.0823 19.8759
L62.5823 19.8759
" />
<path d="M62.5823 19.8759
L62.5823 19.3044
" />
<path d="M62.5823 19.3044
L62.6538 19.1616
" />
<path d="M62.6538 19.1616
L62.7252 19.0901
" />
<path d="M62.7252 19.0901
L62.8680 19.0187
" />
<path d="M62.8680 19.0187
L63.0823 19.0187
" />
<path d="M63.0823 19.0187
L63.2252 19.0901
" />
<path d="M63.2252 19.0901
L63.2966 19.1616
" />
<path d="M63.2966 19.1616
L63.3680 19.3044
" />
<path d="M63.3680 19.3044
L63.3680 19.8759
" />
<path d="M64.0109 18.4473
L64.0823 18.2330
" />
<path d="M64.0823 18.2330
L64.0823 17.8759
" />
<path d="M64.0823 17.8759
L64.0109 17.7330
" />
<path d="M64.0109 17.7330
L63.9395 17.6616
" />
<path d="M63.9395 17.6616
L63.7966 17.5901
" />
<path d="M63.7966 17.5901
L63.6538 17.5901
" />
<path d="M63.6538 17.5901
L63.5109 17.6616
" />
<path d="M63.5109 17.6616
L63.4395 17.7330
" />
<path d="M63.4395 17.7330
L63.3680 17.8759
" />
<path d="M63.3680 17.8759
L63.2966 18.1616
" />
<path d="M63.2966 18.1616
L63.2252 18.3044
" />
<path d="M63.2252 18.3044
L63.1538 18.3759
" />
<path d="M63.1538 18.3759
L63.0109 18.4473
" />
<path d="M63.0109 18.4473
L62.8680 18.4473
" />
<path d="M62.8680 18.4473
L62.7252 18.3759
" />
<path d="M62.7252 18.3759
L62.6538 18.3044
" />
<path d="M62.6538 18.3044
L62.5823 18.1616
" />
<path d="M62.5823 18.1616
L62.5823 17.8044
" />
<path d="M62.5823 17.8044
L62.6538 17.5901
" />
</g><text x="32.4040" y="60.7755"
textLength="36.3857" font-size="2.0000" lengthAdjust="spacingAndGlyphs"
text-anchor="middle" opacity="0">RIGHT ANGLE CONNECTORS ON </text>
<g class="stroked-text"><desc>RIGHT ANGLE CONNECTORS ON </desc>
<path d="M15.7254 60.7038
L15.2254 59.9895
" />
<path d="M14.8683 60.7038
L14.8683 59.2038
" />
<path d="M14.8683 59.2038
L15.4397 59.2038
" />
<path d="M15.4397 59.2038
L15.5826 59.2753
" />
<path d="M15.5826 59.2753
L15.6540 59.3467
" />
<path d="M15.6540 59.3467
L15.7254 59.4895
" />
<path d="M15.7254 59.4895
L15.7254 59.7038
" />
<path d="M15.7254 59.7038
L15.6540 59.8467
" />
<path d="M15.6540 59.8467
L15.5826 59.9181
" />
<path d="M15.5826 59.9181
L15.4397 59.9895
" />
<path d="M15.4397 59.9895
L14.8683 59.9895
" />
<path d="M16.3683 60.7038
L16.3683 59.2038
" />
<path d="M17.8683 59.2753
L17.7254 59.2038
" />
<path d="M17.7254 59.2038
L17.5111 59.2038
" />
<path d="M17.5111 59.2038
L17.2969 59.2753
" />
<path d="M17.2969 59.2753
L17.1540 59.4181
" />
<path d="M17.1540 59.4181
L17.0826 59.5610
" />
<path d="M17.0826 59.5610
L17.0111 59.8467
" />
<path d="M17.0111 59.8467
L17.0111 60.0610
" />
<path d="M17.0111 60.0610
L17.0826 60.3467
" />
<path d="M17.0826 60.3467
L17.1540 60.4895
" />
<path d="M17.1540 60.4895
L17.2969 60.6324
" />
<path d="M17.2969 60.6324
L17.5111 60.7038
" />
<path d="M17.5111 60.7038
L17.6540 60.7038
" />
<path d="M17.6540 60.7038
L17.8683 60.6324
" />
<path d="M17.8683 60.6324
L17.9397 60.5610
" />
<path d="M17.9397 60.5610
L17.9397 60.0610
" />
<path d="M17.9397 60.0610
L17.6540 60.0610
" />
<path d="M18.5826 60.7038
L18.5826 59.2038
" />
<path d="M18.5826 59.9181
L19.4397 59.9181
" />
<path d="M19.4397 60.7038
L19.4397 59.2038
" />
<path d="M19.9397 59.2038
L20.7969 59.2038
" />
<path d="M20.3683 60.7038
L20.3683 59.2038
" />
<path d="M22.3683 60.2753
L23.0826 60.2753
" />
<path d="M22.2254 60.7038
L22.7254 59.2038
" />
<path d="M22.7254 59.2038
L23.2254 60.7038
" />
<path d="M23.7254 60.7038
L23.7254 59.2038
" />
<path d="M23.7254 59.2038
L24.5826 60.7038
" />
<path d="M24.5826 60.7038
L24.5826 59.2038
" />
<path d="M26.0826 59.2753
L25.9397 59.2038
" />
<path d="M25.9397 59.2038
L25.7254 59.2038
" />
<path d="M25.7254 59.2038
L25.5111 59.2753
" />
<path d="M25.5111 59.2753
L25.3683 59.4181
" />
<path d="M25.3683 59.4181
L25.2969 59.5610
" />
<path d="M25.2969 59.5610
L25.2254 59.8467
" />
<path d="M25.2254 59.8467
L25.2254 60.0610
" />
<path d="M25.2254 60.0610
L25.2969 60.3467
" />
<path d="M25.2969 60.3467
L25.3683 60.4895
" />
<path d="M25.3683 60.4895
L25.5111 60.6324
" />
<path d="M25.5111 60.6324
L25.7254 60.7038
" />
<path d="M25.7254 60.7038
L25.8683 60.7038
" />
<path d="M25.8683 60.7038
L26.0826 60.6324
" />
<path d="M26.0826 60.6324
L26.1540 60.5610
" />
<path d="M26.1540 60.5610
L26.1540 60.0610
" />
<path d="M26.1540 60.0610
L25.8683 60.0610
" />
<path d="M27.5111 60.7038
L26.7969 60.7038
" />
<path d="M26.7969 60.7038
L26.7969 59.2038
" />
<path d="M28.0111 59.9181
L28.5111 59.9181
" />
<path d="M28.7254 60.7038
L28.0111 60.7038
" />
<path d="M28.0111 60.7038
L28.0111 59.2038
" />
<path d="M28.0111 59.2038
L28.7254 59.2038
" />
<path d="M31.3683 60.5610
L31.2969 60.6324
" />
<path d="M31.2969 60.6324
L31.0826 60.7038
" />
<path d="M31.0826 60.7038
L30.9397 60.7038
" />
<path d="M30.9397 60.7038
L30.7254 60.6324
" />
<path d="M30.7254 60.6324
L30.5826 60.4895
" />
<path d="M30.5826 60.4895
L30.5111 60.3467
" />
<path d="M30.5111 60.3467
L30.4397 60.0610
" />
<path d="M30.4397 60.0610
L30.4397 59.8467
" />
<path d="M30.4397 59.8467
L30.5111 59.5610
" />
<path d="M30.5111 59.5610
L30.5826 59.4181
" />
<path d="M30.5826 59.4181
L30.7254 59.2753
" />
<path d="M30.7254 59.2753
L30.9397 59.2038
" />
<path d="M30.9397 59.2038
L31.0826 59.2038
" />
<path d="M31.0826 59.2038
L31.2969 59.2753
" />
<path d="M31.2969 59.2753
L31.3683 59.3467
" />
<path d="M32.2969 59.2038
L32.5826 59.2038
" />
<path d="M32.5826 59.2038
L32.7254 59.2753
" />
<path d="M32.7254 59.2753
L32.8683 59.4181
" />
<path d="M32.8683 59.4181
L32.9397 59.7038
" />
<path d="M32.9397 59.7038
L32.9397 60.2038
" />
<path d="M32.9397 60.2038
L32.8683 60.4895
" />
<path d="M32.8683 60.4895
L32.7254 60.6324
" />
<path d="M32.7254 60.6324
L32.5826 60.7038
" />
<path d="M32.5826 60.7038
L32.2969 60.7038
" />
<path d="M32.2969 60.7038
L32.1540 60.6324
" />
<path d="M32.1540 60.6324
L32.0111 60.4895
" />
<path d="M32.0111 60.4895
L31.9397 60.2038
" />
<path d="M31.9397 60.2038
L31.9397 59.7038
" />
<path d="M31.9397 59.7038
L32.0111 59.4181
" />
<path d="M32.0111 59.4181
L32.1540 59.2753
" />
<path d="M32.1540 59.2753
L32.2969 59.2038
" />
<path d="M33.5826 60.7038
L33.5826 59.2038
" />
<path d="M33.5826 59.2038
L34.4397 60.7038
" />
<path d="M34.4397 60.7038
L34.4397 59.2038
" />
<path d="M35.1540 60.7038
L35.1540 59.2038
" />
<path d="M35.1540 59.2038
L36.0111 60.7038
" />
<path d="M36.0111 60.7038
L36.0111 59.2038
" />
<path d="M36.7254 59.9181
L37.2254 59.9181
" />
<path d="M37.4397 60.7038
L36.7254 60.7038
" />
<path d="M36.7254 60.7038
L36.7254 59.2038
" />
<path d="M36.7254 59.2038
L37.4397 59.2038
" />
<path d="M38.9397 60.5610
L38.8683 60.6324
" />
<path d="M38.8683 60.6324
L38.6540 60.7038
" />
<path d="M38.6540 60.7038
L38.5111 60.7038
" />
<path d="M38.5111 60.7038
L38.2969 60.6324
" />
<path d="M38.2969 60.6324
L38.1540 60.4895
" />
<path d="M38.1540 60.4895
L38.0826 60.3467
" />
<path d="M38.0826 60.3467
L38.0111 60.0610
" />
<path d="M38.0111 60.0610
L38.0111 59.8467
" />
<path d="M38.0111 59.8467
L38.0826 59.5610
" />
<path d="M38.0826 59.5610
L38.1540 59.4181
" />
<path d="M38.1540 59.4181
L38.2969 59.2753
" />
<path d="M38.2969 59.2753
L38.5111 59.2038
" />
<path d="M38.5111 59.2038
L38.6540 59.2038
" />
<path d="M38.6540 59.2038
L38.8683 59.2753
" />
<path d="M38.8683 59.2753
L38.9397 59.3467
" />
<path d="M39.3683 59.2038
L40.2254 59.2038
" />
<path d="M39.7969 60.7038
L39.7969 59.2038
" />
<path d="M41.0111 59.2038
L41.2969 59.2038
" />
<path d="M41.2969 59.2038
L41.4397 59.2753
" />
<path d="M41.4397 59.2753
L41.5826 59.4181
" />
<path d="M41.5826 59.4181
L41.6540 59.7038
" />
<path d="M41.6540 59.7038
L41.6540 60.2038
" />
<path d="M41.6540 60.2038
L41.5826 60.4895
" />
<path d="M41.5826 60.4895
L41.4397 60.6324
" />
<path d="M41.4397 60.6324
L41.2969 60.7038
" />
<path d="M41.2969 60.7038
L41.0111 60.7038
" />
<path d="M41.0111 60.7038
L40.8683 60.6324
" />
<path d="M40.8683 60.6324
L40.7254 60.4895
" />
<path d="M40.7254 60.4895
L40.6540 60.2038
" />
<path d="M40.6540 60.2038
L40.6540 59.7038
" />
<path d="M40.6540 59.7038
L40.7254 59.4181
" />
<path d="M40.7254 59.4181
L40.8683 59.2753
" />
<path d="M40.8683 59.2753
L41.0111 59.2038
" />
<path d="M43.1540 60.7038
L42.6540 59.9895
" />
<path d="M42.2969 60.7038
L42.2969 59.2038
" />
<path d="M42.2969 59.2038
L42.8683 59.2038
" />
<path d="M42.8683 59.2038
L43.0111 59.2753
" />
<path d="M43.0111 59.2753
L43.0826 59.3467
" />
<path d="M43.0826 59.3467
L43.1540 59.4895
" />
<path d="M43.1540 59.4895
L43.1540 59.7038
" />
<path d="M43.1540 59.7038
L43.0826 59.8467
" />
<path d="M43.0826 59.8467
L43.0111 59.9181
" />
<path d="M43.0111 59.9181
L42.8683 59.9895
" />
<path d="M42.8683 59.9895
L42.2969 59.9895
" />
<path d="M43.7254 60.6324
L43.9397 60.7038
" />
<path d="M43.9397 60.7038
L44.2969 60.7038
" />
<path d="M44.2969 60.7038
L44.4397 60.6324
" />
<path d="M44.4397 60.6324
L44.5111 60.5610
" />
<path d="M44.5111 60.5610
L44.5826 60.4181
" />
<path d="M44.5826 60.4181
L44.5826 60.2753
" />
<path d="M44.5826 60.2753
L44.5111 60.1324
" />
<path d="M44.5111 60.1324
L44.4397 60.0610
" />
<path d="M44.4397 60.0610
L44.2969 59.9895
" />
<path d="M44.2969 59.9895
L44.0111 59.9181
" />
<path d="M44.0111 59.9181
L43.8683 59.8467
" />
<path d="M43.8683 59.8467
L43.7969 59.7753
" />
<path d="M43.7969 59.7753
L43.7254 59.6324
" />
<path d="M43.7254 59.6324
L43.7254 59.4895
" />
<path d="M43.7254 59.4895
L43.7969 59.3467
" />
<path d="M43.7969 59.3467
L43.8683 59.2753
" />
<path d="M43.8683 59.2753
L44.0111 59.2038
" />
<path d="M44.0111 59.2038
L44.3683 59.2038
" />
<path d="M44.3683 59.2038
L44.5826 59.2753
" />
<path d="M46.6540 59.2038
L46.9397 59.2038
" />
<path d="M46.9397 59.2038
L47.0826 59.2753
" />
<path d="M47.0826 59.2753
L47.2254 59.4181
" />
<path d="M47.2254 59.4181
L47.2969 59.7038
" />
<path d="M47.2969 59.7038
L47.2969 60.2038
" />
<path d="M47.2969 60.2038
L47.2254 60.4895
" />
<path d="M47.2254 60.4895
L47.0826 60.6324
" />
<path d="M47.0826 60.6324
L46.9397 60.7038
" />
<path d="M46.9397 60.7038
L46.6540 60.7038
" />
<path d="M46.6540 60.7038
L46.5111 60.6324
" />
<path d="M46.5111 60.6324
L46.3683 60.4895
" />
<path d="M46.3683 60.4895
L46.2969 60.2038
" />
<path d="M46.2969 60.2038
L46.2969 59.7038
" />
<path d="M46.2969 59.7038
L46.3683 59.4181
" />
<path d="M46.3683 59.4181
L46.5111 59.2753
" />
<path d="M46.5111 59.2753
L46.6540 59.2038
" />
<path d="M47.9397 60.7038
L47.9397 59.2038
" />
<path d="M47.9397 59.2038
L48.7969 60.7038
" />
<path d="M48.7969 60.7038
L48.7969 59.2038
" />
</g><text x="32.4040" y="63.1905"
textLength="26.8857" font-size="2.0000" lengthAdjust="spacingAndGlyphs"
text-anchor="middle" opacity="0">FRONT AND BACK ONLY</text>
<g class="stroked-text"><desc>FRONT AND BACK ONLY</desc>
<path d="M20.1183 62.3331
L19.6183 62.3331
" />
<path d="M19.6183 63.1188
L19.6183 61.6188
" />
<path d="M19.6183 61.6188
L20.3326 61.6188
" />
<path d="M21.7611 63.1188
L21.2611 62.4045
" />
<path d="M20.9040 63.1188
L20.9040 61.6188
" />
<path d="M20.9040 61.6188
L21.4754 61.6188
" />
<path d="M21.4754 61.6188
L21.6183 61.6903
" />
<path d="M21.6183 61.6903
L21.6897 61.7617
" />
<path d="M21.6897 61.7617
L21.7611 61.9045
" />
<path d="M21.7611 61.9045
L21.7611 62.1188
" />
<path d="M21.7611 62.1188
L21.6897 62.2617
" />
<path d="M21.6897 62.2617
L21.6183 62.3331
" />
<path d="M21.6183 62.3331
L21.4754 62.4045
" />
<path d="M21.4754 62.4045
L20.9040 62.4045
" />
<path d="M22.6897 61.6188
L22.9754 61.6188
" />
<path d="M22.9754 61.6188
L23.1183 61.6903
" />
<path d="M23.1183 61.6903
L23.2611 61.8331
" />
<path d="M23.2611 61.8331
L23.3326 62.1188
" />
<path d="M23.3326 62.1188
L23.3326 62.6188
" />
<path d="M23.3326 62.6188
L23.2611 62.9045
" />
<path d="M23.2611 62.9045
L23.1183 63.0474
" />
<path d="M23.1183 63.0474
L22.9754 63.1188
" />
<path d="M22.9754 63.1188
L22.6897 63.1188
" />
<path d="M22.6897 63.1188
L22.5469 63.0474
" />
<path d="M22.5469 63.0474
L22.4040 62.9045
" />
<path d="M22.4040 62.9045
L22.3326 62.6188
" />
<path d="M22.3326 62.6188
L22.3326 62.1188
" />
<path d="M22.3326 62.1188
L22.4040 61.8331
" />
<path d="M22.4040 61.8331
L22.5469 61.6903
" />
<path d="M22.5469 61.6903
L22.6897 61.6188
" />
<path d="M23.9754 63.1188
L23.9754 61.6188
" />
<path d="M23.9754 61.6188
L24.8326 63.1188
" />
<path d="M24.8326 63.1188
L24.8326 61.6188
" />
<path d="M25.3326 61.6188
L26.1897 61.6188
" />
<path d="M25.7611 63.1188
L25.7611 61.6188
" />
<path d="M27.7611 62.6903
L28.4754 62.6903
" />
<path d="M27.6183 63.1188
L28.1183 61.6188
" />
<path d="M28.1183 61.6188
L28.6183 63.1188
" />
<path d="M29.1183 63.1188
L29.1183 61.6188
" />
<path d="M29.1183 61.6188
L29.9754 63.1188
" />
<path d="M29.9754 63.1188
L29.9754 61.6188
" />
<path d="M30.6897 63.1188
L30.6897 61.6188
" />
<path d="M30.6897 61.6188
L31.0469 61.6188
" />
<path d="M31.0469 61.6188
L31.2611 61.6903
" />
<path d="M31.2611 61.6903
L31.4040 61.8331
" />
<path d="M31.4040 61.8331
L31.4754 61.9760
" />
<path d="M31.4754 61.9760
L31.5469 62.2617
" />
<path d="M31.5469 62.2617
L31.5469 62.4760
" />
<path d="M31.5469 62.4760
L31.4754 62.7617
" />
<path d="M31.4754 62.7617
L31.4040 62.9045
" />
<path d="M31.4040 62.9045
L31.2611 63.0474
" />
<path d="M31.2611 63.0474
L31.0469 63.1188
" />
<path d="M31.0469 63.1188
L30.6897 63.1188
" />
<path d="M33.8326 62.3331
L34.0469 62.4045
" />
<path d="M34.0469 62.4045
L34.1183 62.4760
" />
<path d="M34.1183 62.4760
L34.1897 62.6188
" />
<path d="M34.1897 62.6188
L34.1897 62.8331
" />
<path d="M34.1897 62.8331
L34.1183 62.9760
" />
<path d="M34.1183 62.9760
L34.0469 63.0474
" />
<path d="M34.0469 63.0474
L33.9040 63.1188
" />
<path d="M33.9040 63.1188
L33.3326 63.1188
" />
<path d="M33.3326 63.1188
L33.3326 61.6188
" />
<path d="M33.3326 61.6188
L33.8326 61.6188
" />
<path d="M33.8326 61.6188
L33.9754 61.6903
" />
<path d="M33.9754 61.6903
L34.0469 61.7617
" />
<path d="M34.0469 61.7617
L34.1183 61.9045
" />
<path d="M34.1183 61.9045
L34.1183 62.0474
" />
<path d="M34.1183 62.0474
L34.0469 62.1903
" />
<path d="M34.0469 62.1903
L33.9754 62.2617
" />
<path d="M33.9754 62.2617
L33.8326 62.3331
" />
<path d="M33.8326 62.3331
L33.3326 62.3331
" />
<path d="M34.7611 62.6903
L35.4754 62.6903
" />
<path d="M34.6183 63.1188
L35.1183 61.6188
" />
<path d="M35.1183 61.6188
L35.6183 63.1188
" />
<path d="M36.9754 62.9760
L36.9040 63.0474
" />
<path d="M36.9040 63.0474
L36.6897 63.1188
" />
<path d="M36.6897 63.1188
L36.5469 63.1188
" />
<path d="M36.5469 63.1188
L36.3326 63.0474
" />
<path d="M36.3326 63.0474
L36.1897 62.9045
" />
<path d="M36.1897 62.9045
L36.1183 62.7617
" />
<path d="M36.1183 62.7617
L36.0469 62.4760
" />
<path d="M36.0469 62.4760
L36.0469 62.2617
" />
<path d="M36.0469 62.2617
L36.1183 61.9760
" />
<path d="M36.1183 61.9760
L36.1897 61.8331
" />
<path d="M36.1897 61.8331
L36.3326 61.6903
" />
<path d="M36.3326 61.6903
L36.5469 61.6188
" />
<path d="M36.5469 61.6188
L36.6897 61.6188
" />
<path d="M36.6897 61.6188
L36.9040 61.6903
" />
<path d="M36.9040 61.6903
L36.9754 61.7617
" />
<path d="M37.6183 63.1188
L37.6183 61.6188
" />
<path d="M38.4754 63.1188
L37.8326 62.2617
" />
<path d="M38.4754 61.6188
L37.6183 62.4760
" />
<path d="M40.5469 61.6188
L40.8326 61.6188
" />
<path d="M40.8326 61.6188
L40.9754 61.6903
" />
<path d="M40.9754 61.6903
L41.1183 61.8331
" />
<path d="M41.1183 61.8331
L41.1897 62.1188
" />
<path d="M41.1897 62.1188
L41.1897 62.6188
" />
<path d="M41.1897 62.6188
L41.1183 62.9045
" />
<path d="M41.1183 62.9045
L40.9754 63.0474
" />
<path d="M40.9754 63.0474
L40.8326 63.1188
" />
<path d="M40.8326 63.1188
L40.5469 63.1188
" />
<path d="M40.5469 63.1188
L40.4040 63.0474
" />
<path d="M40.4040 63.0474
L40.2611 62.9045
" />
<path d="M40.2611 62.9045
L40.1897 62.6188
" />
<path d="M40.1897 62.6188
L40.1897 62.1188
" />
<path d="M40.1897 62.1188
L40.2611 61.8331
" />
<path d="M40.2611 61.8331
L40.4040 61.6903
" />
<path d="M40.4040 61.6903
L40.5469 61.6188
" />
<path d="M41.8326 63.1188
L41.8326 61.6188
" />
<path d="M41.8326 61.6188
L42.6897 63.1188
" />
<path d="M42.6897 63.1188
L42.6897 61.6188
" />
<path d="M44.1183 63.1188
L43.4040 63.1188
" />
<path d="M43.4040 63.1188
L43.4040 61.6188
" />
<path d="M44.9040 62.4045
L44.9040 63.1188
" />
<path d="M44.4040 61.6188
L44.9040 62.4045
" />
<path d="M44.9040 62.4045
L45.4040 61.6188
" />
</g><g >
</g>
<g >
</g>
<g >
</g>
<g >
</g>
<g >
</g>
<g >
</g>
<g >
</g>
<g >
</g>
</g>
<g style="fill:#FFFFFF; fill-opacity:0.0; 
stroke:#FFFFFF; stroke-width:0.3000; stroke-opacity:1; 
stroke-linecap:round; stroke-linejoin:round;">
</g>
<g style="fill:#2F2D31; fill-opacity:0.0; 
stroke:#2F2D31; stroke-width:0.3000; stroke-opacity:1; 
stroke-linecap:round; stroke-linejoin:round;">
</g>
<g style="fill:#2F2D31; fill-opacity:0.0; 
stroke:#2F2D31; stroke-width:0.1000; stroke-opacity:1; 
stroke-linecap:round; stroke-linejoin:round;">
<path d="M7.0990 24.8630 A3.3150 3.3150 0.0 0 0 7.0990 18.2330" />
<path d="M60.4040 57.7100
L60.4040 24.8630
" />
<path d="M7.0990 24.8630
L3.7940 24.8630
" />
<path d="M3.7940 57.7100
L60.4040 57.7100
" />
<path d="M57.0990 18.2330 A3.3150 3.3150 0.0 0 0 57.0990 24.8630" />
<path d="M3.7940 24.8630
L3.7940 57.7100
" />
<path d="M60.4040 24.8630
L57.0990 24.8630
" />
<path d="M60.4040 18.2330
L60.4040 0.0500
" />
<path d="M3.7940 18.2330
L7.0990 18.2330
" />
<path d="M3.7940 0.0500
L3.7940 18.2330
" />
<path d="M60.4040 0.0500
L3.7940 0.0500
" />
<path d="M57.0990 18.2330
L60.4040 18.2330
" />
<g >
</g>
<g >
</g>
<g >
</g>
<g >
</g>
<g >
</g>
<g >
</g>
<g >
</g>
<g >
</g>
</g> 
</svg>
