<?xml version="1.0" standalone="no"?>
 <!DOCTYPE svg PUBLIC "-//W3C//DTD SVG 1.1//EN" 
 "http://www.w3.org/Graphics/SVG/1.1/DTD/svg11.dtd"> 
<svg
  xmlns:svg="http://www.w3.org/2000/svg"
  xmlns="http://www.w3.org/2000/svg"
  xmlns:xlink="http://www.w3.org/1999/xlink"
  version="1.1"
  width="32.1310mm" height="25.6286mm" viewBox="0.0000 0.0000 32.1310 25.6286">
<title>SVG Image created as working-brd.svg date 2023/09/21 22:47:19 </title>
  <desc>Image generated by PCBNEW </desc>
<g style="fill:#000000; fill-opacity:1.0000;stroke:#000000; stroke-opacity:1.0000;
stroke-linecap:round; stroke-linejoin:round;"
 transform="translate(0 0) scale(1 1)">
</g>
<g style="fill:#000000; fill-opacity:0.0; 
stroke:#000000; stroke-width:0.0000; stroke-opacity:1; 
stroke-linecap:round; stroke-linejoin:round;">
</g>
<g style="fill:#000000; fill-opacity:1.0000; 
stroke:#000000; stroke-width:0.0212; stroke-opacity:1; 
stroke-linecap:round; stroke-linejoin:round;">
<rect x="-5.000000" y="-5.000000" width="42.148409" height="35.653250" rx="0.000000" />
</g>
<g style="fill:#FFFFFF; fill-opacity:1.0000; 
stroke:#FFFFFF; stroke-width:0.0212; stroke-opacity:1; 
stroke-linecap:round; stroke-linejoin:round;">
<g >
</g>
<g style="fill:#B2803A; fill-opacity:1.0000; 
stroke:#B2803A; stroke-width:0.0212; stroke-opacity:1; 
stroke-linecap:round; stroke-linejoin:round;">
</g>
<g style="fill:#B2803A; fill-opacity:1.0000; 
stroke:#B2803A; stroke-width:0.0000; stroke-opacity:1; 
stroke-linecap:round; stroke-linejoin:round;">
<path style="fill:#B2803A; fill-opacity:1.0000; 
stroke:#B2803A; stroke-width:0.0000; stroke-opacity:1; 
stroke-linecap:round; stroke-linejoin:round;fill-rule:evenodd;"
d="M 15.3388,10.8483
15.3388,9.1482
17.0388,9.1482
17.0388,10.8483
Z" /> 
</g>
<g >
</g>
<g style="fill:#B2803A; fill-opacity:1.0000; 
stroke:#B2803A; stroke-width:0.0000; stroke-opacity:1; 
stroke-linecap:round; stroke-linejoin:round;">
<path style="fill:#B2803A; fill-opacity:1.0000; 
stroke:#B2803A; stroke-width:0.0000; stroke-opacity:1; 
stroke-linecap:round; stroke-linejoin:round;fill-rule:evenodd;"
d="M 12.7988,10.8483
12.7988,9.1482
14.4988,9.1482
14.4988,10.8483
Z" /> 
</g>
<g >
</g>
<g style="fill:#B2803A; fill-opacity:1.0000; 
stroke:#B2803A; stroke-width:0.0000; stroke-opacity:1; 
stroke-linecap:round; stroke-linejoin:round;">
<path style="fill:#B2803A; fill-opacity:1.0000; 
stroke:#B2803A; stroke-width:0.0000; stroke-opacity:1; 
stroke-linecap:round; stroke-linejoin:round;fill-rule:evenodd;"
d="M 10.2588,10.8483
10.2588,9.1482
11.9588,9.1482
11.9588,10.8483
Z" /> 
</g>
<g >
</g>
<g style="fill:#B2803A; fill-opacity:1.0000; 
stroke:#B2803A; stroke-width:0.0000; stroke-opacity:1; 
stroke-linecap:round; stroke-linejoin:round;">
<path style="fill:#B2803A; fill-opacity:1.0000; 
stroke:#B2803A; stroke-width:0.0000; stroke-opacity:1; 
stroke-linecap:round; stroke-linejoin:round;fill-rule:evenodd;"
d="M 15.3388,14.2282
17.0388,14.2282
17.0388,15.9282
15.3388,15.9282
Z" /> 
<circle cx="13.6488" cy="15.0782" r="0.8500" /> 
<circle cx="11.1088" cy="15.0782" r="0.8500" /> 
</g>
<g >
</g>
<g >
</g>
<g >
</g>
<g >
</g>
<g >
</g>
</g>
<g style="fill:#000000; fill-opacity:1.0000; 
stroke:#000000; stroke-width:0.0000; stroke-opacity:1; 
stroke-linecap:round; stroke-linejoin:round;">
<circle cx="16.1888" cy="9.9982" r="0.5000" /> 
</g>
<g style="fill:#000000; fill-opacity:1.0000; 
stroke:#000000; stroke-width:0.0212; stroke-opacity:1; 
stroke-linecap:round; stroke-linejoin:round;">
</g>
<g style="fill:#000000; fill-opacity:1.0000; 
stroke:#000000; stroke-width:0.0000; stroke-opacity:1; 
stroke-linecap:round; stroke-linejoin:round;">
<circle cx="13.6488" cy="9.9982" r="0.5000" /> 
</g>
<g style="fill:#000000; fill-opacity:1.0000; 
stroke:#000000; stroke-width:0.0212; stroke-opacity:1; 
stroke-linecap:round; stroke-linejoin:round;">
</g>
<g style="fill:#000000; fill-opacity:1.0000; 
stroke:#000000; stroke-width:0.0000; stroke-opacity:1; 
stroke-linecap:round; stroke-linejoin:round;">
<circle cx="11.1088" cy="9.9982" r="0.5000" /> 
</g>
<g style="fill:#000000; fill-opacity:1.0000; 
stroke:#000000; stroke-width:0.0212; stroke-opacity:1; 
stroke-linecap:round; stroke-linejoin:round;">
</g>
<g style="fill:#000000; fill-opacity:1.0000; 
stroke:#000000; stroke-width:0.0000; stroke-opacity:1; 
stroke-linecap:round; stroke-linejoin:round;">
<circle cx="16.1888" cy="15.0782" r="0.5000" /> 
</g>
<g style="fill:#000000; fill-opacity:1.0000; 
stroke:#000000; stroke-width:0.0212; stroke-opacity:1; 
stroke-linecap:round; stroke-linejoin:round;">
</g>
<g style="fill:#000000; fill-opacity:1.0000; 
stroke:#000000; stroke-width:0.0000; stroke-opacity:1; 
stroke-linecap:round; stroke-linejoin:round;">
<circle cx="13.6488" cy="15.0782" r="0.5000" /> 
</g>
<g style="fill:#000000; fill-opacity:1.0000; 
stroke:#000000; stroke-width:0.0212; stroke-opacity:1; 
stroke-linecap:round; stroke-linejoin:round;">
</g>
<g style="fill:#000000; fill-opacity:1.0000; 
stroke:#000000; stroke-width:0.0000; stroke-opacity:1; 
stroke-linecap:round; stroke-linejoin:round;">
<circle cx="11.1088" cy="15.0782" r="0.5000" /> 
</g>
<g style="fill:#000000; fill-opacity:1.0000; 
stroke:#000000; stroke-width:0.0212; stroke-opacity:1; 
stroke-linecap:round; stroke-linejoin:round;">
</g>
<g style="fill:#000000; fill-opacity:1.0000; 
stroke:#000000; stroke-width:0.0000; stroke-opacity:1; 
stroke-linecap:round; stroke-linejoin:round;">
<circle cx="5.1488" cy="9.9982" r="1.6000" /> 
</g>
<g style="fill:#000000; fill-opacity:1.0000; 
stroke:#000000; stroke-width:0.0212; stroke-opacity:1; 
stroke-linecap:round; stroke-linejoin:round;">
</g>
<g style="fill:#000000; fill-opacity:1.0000; 
stroke:#000000; stroke-width:0.0000; stroke-opacity:1; 
stroke-linecap:round; stroke-linejoin:round;">
<circle cx="22.1488" cy="9.9982" r="1.6000" /> 
</g>
<g style="fill:#000000; fill-opacity:1.0000; 
stroke:#000000; stroke-width:0.0212; stroke-opacity:1; 
stroke-linecap:round; stroke-linejoin:round;">
</g>
<g style="fill:#FFFFFF; fill-opacity:1.0000; 
stroke:#FFFFFF; stroke-width:0.0212; stroke-opacity:1; 
stroke-linecap:round; stroke-linejoin:round;">
<g >
</g>
<g style="fill:#37CBCB; fill-opacity:1.0000; 
stroke:#37CBCB; stroke-width:0.0212; stroke-opacity:1; 
stroke-linecap:round; stroke-linejoin:round;">
</g>
<g style="fill:#37CBCB; fill-opacity:1.0000; 
stroke:#37CBCB; stroke-width:0.0000; stroke-opacity:1; 
stroke-linecap:round; stroke-linejoin:round;">
<path style="fill:#37CBCB; fill-opacity:1.0000; 
stroke:#37CBCB; stroke-width:0.0000; stroke-opacity:1; 
stroke-linecap:round; stroke-linejoin:round;fill-rule:evenodd;"
d="M 15.3388,10.8483
15.3388,9.1482
17.0388,9.1482
17.0388,10.8483
Z" /> 
</g>
<g >
</g>
<g style="fill:#37CBCB; fill-opacity:1.0000; 
stroke:#37CBCB; stroke-width:0.0000; stroke-opacity:1; 
stroke-linecap:round; stroke-linejoin:round;">
<path style="fill:#37CBCB; fill-opacity:1.0000; 
stroke:#37CBCB; stroke-width:0.0000; stroke-opacity:1; 
stroke-linecap:round; stroke-linejoin:round;fill-rule:evenodd;"
d="M 12.7988,10.8483
12.7988,9.1482
14.4988,9.1482
14.4988,10.8483
Z" /> 
</g>
<g >
</g>
<g style="fill:#37CBCB; fill-opacity:1.0000; 
stroke:#37CBCB; stroke-width:0.0000; stroke-opacity:1; 
stroke-linecap:round; stroke-linejoin:round;">
<path style="fill:#37CBCB; fill-opacity:1.0000; 
stroke:#37CBCB; stroke-width:0.0000; stroke-opacity:1; 
stroke-linecap:round; stroke-linejoin:round;fill-rule:evenodd;"
d="M 10.2588,10.8483
10.2588,9.1482
11.9588,9.1482
11.9588,10.8483
Z" /> 
</g>
<g >
</g>
<g style="fill:#37CBCB; fill-opacity:1.0000; 
stroke:#37CBCB; stroke-width:0.0000; stroke-opacity:1; 
stroke-linecap:round; stroke-linejoin:round;">
<path style="fill:#37CBCB; fill-opacity:1.0000; 
stroke:#37CBCB; stroke-width:0.0000; stroke-opacity:1; 
stroke-linecap:round; stroke-linejoin:round;fill-rule:evenodd;"
d="M 15.3388,14.2282
17.0388,14.2282
17.0388,15.9282
15.3388,15.9282
Z" /> 
<circle cx="13.6488" cy="15.0782" r="0.8500" /> 
<circle cx="11.1088" cy="15.0782" r="0.8500" /> 
</g>
<g >
</g>
<g >
</g>
<g >
</g>
<g >
</g>
<g style="fill:#37CBCB; fill-opacity:1.0000; 
stroke:#37CBCB; stroke-width:0.0000; stroke-opacity:1; 
stroke-linecap:round; stroke-linejoin:round;">
</g>
<g style="fill:#37CBCB; fill-opacity:1.0000; 
stroke:#37CBCB; stroke-width:0.6096; stroke-opacity:1; 
stroke-linecap:round; stroke-linejoin:round;">
</g>
<g style="fill:#37CBCB; fill-opacity:0.0; 
stroke:#37CBCB; stroke-width:0.6096; stroke-opacity:1; 
stroke-linecap:round; stroke-linejoin:round;">
<path d="M16.1888 15.0782
L16.1888 9.9982
" />
<path d="M13.6488 15.0782
L13.6488 9.9982
" />
<path d="M11.1088 15.0782
L11.1088 9.9982
" />
</g>
<g >
</g>
</g>
<g style="fill:#000000; fill-opacity:0.0; 
stroke:#000000; stroke-width:0.6096; stroke-opacity:1; 
stroke-linecap:round; stroke-linejoin:round;">
</g>
<g style="fill:#000000; fill-opacity:1.0000; 
stroke:#000000; stroke-width:0.0000; stroke-opacity:1; 
stroke-linecap:round; stroke-linejoin:round;">
<circle cx="16.1888" cy="9.9982" r="0.5000" /> 
</g>
<g style="fill:#000000; fill-opacity:1.0000; 
stroke:#000000; stroke-width:0.0212; stroke-opacity:1; 
stroke-linecap:round; stroke-linejoin:round;">
</g>
<g style="fill:#000000; fill-opacity:1.0000; 
stroke:#000000; stroke-width:0.0000; stroke-opacity:1; 
stroke-linecap:round; stroke-linejoin:round;">
<circle cx="13.6488" cy="9.9982" r="0.5000" /> 
</g>
<g style="fill:#000000; fill-opacity:1.0000; 
stroke:#000000; stroke-width:0.0212; stroke-opacity:1; 
stroke-linecap:round; stroke-linejoin:round;">
</g>
<g style="fill:#000000; fill-opacity:1.0000; 
stroke:#000000; stroke-width:0.0000; stroke-opacity:1; 
stroke-linecap:round; stroke-linejoin:round;">
<circle cx="11.1088" cy="9.9982" r="0.5000" /> 
</g>
<g style="fill:#000000; fill-opacity:1.0000; 
stroke:#000000; stroke-width:0.0212; stroke-opacity:1; 
stroke-linecap:round; stroke-linejoin:round;">
</g>
<g style="fill:#000000; fill-opacity:1.0000; 
stroke:#000000; stroke-width:0.0000; stroke-opacity:1; 
stroke-linecap:round; stroke-linejoin:round;">
<circle cx="16.1888" cy="15.0782" r="0.5000" /> 
</g>
<g style="fill:#000000; fill-opacity:1.0000; 
stroke:#000000; stroke-width:0.0212; stroke-opacity:1; 
stroke-linecap:round; stroke-linejoin:round;">
</g>
<g style="fill:#000000; fill-opacity:1.0000; 
stroke:#000000; stroke-width:0.0000; stroke-opacity:1; 
stroke-linecap:round; stroke-linejoin:round;">
<circle cx="13.6488" cy="15.0782" r="0.5000" /> 
</g>
<g style="fill:#000000; fill-opacity:1.0000; 
stroke:#000000; stroke-width:0.0212; stroke-opacity:1; 
stroke-linecap:round; stroke-linejoin:round;">
</g>
<g style="fill:#000000; fill-opacity:1.0000; 
stroke:#000000; stroke-width:0.0000; stroke-opacity:1; 
stroke-linecap:round; stroke-linejoin:round;">
<circle cx="11.1088" cy="15.0782" r="0.5000" /> 
</g>
<g style="fill:#000000; fill-opacity:1.0000; 
stroke:#000000; stroke-width:0.0212; stroke-opacity:1; 
stroke-linecap:round; stroke-linejoin:round;">
</g>
<g style="fill:#000000; fill-opacity:1.0000; 
stroke:#000000; stroke-width:0.0000; stroke-opacity:1; 
stroke-linecap:round; stroke-linejoin:round;">
<circle cx="5.1488" cy="9.9982" r="1.6000" /> 
</g>
<g style="fill:#000000; fill-opacity:1.0000; 
stroke:#000000; stroke-width:0.0212; stroke-opacity:1; 
stroke-linecap:round; stroke-linejoin:round;">
</g>
<g style="fill:#000000; fill-opacity:1.0000; 
stroke:#000000; stroke-width:0.0000; stroke-opacity:1; 
stroke-linecap:round; stroke-linejoin:round;">
<circle cx="22.1488" cy="9.9982" r="1.6000" /> 
</g>
<g style="fill:#000000; fill-opacity:1.0000; 
stroke:#000000; stroke-width:0.0212; stroke-opacity:1; 
stroke-linecap:round; stroke-linejoin:round;">
</g>
<g style="fill:#FFFFFF; fill-opacity:1.0000; 
stroke:#FFFFFF; stroke-width:0.0212; stroke-opacity:1; 
stroke-linecap:round; stroke-linejoin:round;">
</g>
<g style="fill:#3D3D3D; fill-opacity:1.0000; 
stroke:#3D3D3D; stroke-width:0.0212; stroke-opacity:1; 
stroke-linecap:round; stroke-linejoin:round;">
</g>
<g style="fill:#3D3D3D; fill-opacity:1.0000; 
stroke:#3D3D3D; stroke-width:0.1500; stroke-opacity:1; 
stroke-linecap:round; stroke-linejoin:round;">
</g>
<g style="fill:#3D3D3D; fill-opacity:0.0; 
stroke:#3D3D3D; stroke-width:0.1500; stroke-opacity:1; 
stroke-linecap:round; stroke-linejoin:round;">
<text x="13.6588" y="1.3482"
textLength="9.8690" font-size="1.3333" lengthAdjust="spacingAndGlyphs"
text-anchor="middle" opacity="0">23.4000 mm</text>
<g class="stroked-text"><desc>23.4000 mm</desc>
<path d="M9.0398 0.3983
L9.0874 0.3507
" />
<path d="M9.0874 0.3507
L9.1826 0.3031
" />
<path d="M9.1826 0.3031
L9.4207 0.3031
" />
<path d="M9.4207 0.3031
L9.5160 0.3507
" />
<path d="M9.5160 0.3507
L9.5636 0.3983
" />
<path d="M9.5636 0.3983
L9.6112 0.4935
" />
<path d="M9.6112 0.4935
L9.6112 0.5888
" />
<path d="M9.6112 0.5888
L9.5636 0.7316
" />
<path d="M9.5636 0.7316
L8.9921 1.3031
" />
<path d="M8.9921 1.3031
L9.6112 1.3031
" />
<path d="M9.9445 0.3031
L10.5636 0.3031
" />
<path d="M10.5636 0.3031
L10.2302 0.6840
" />
<path d="M10.2302 0.6840
L10.3731 0.6840
" />
<path d="M10.3731 0.6840
L10.4683 0.7316
" />
<path d="M10.4683 0.7316
L10.5160 0.7793
" />
<path d="M10.5160 0.7793
L10.5636 0.8745
" />
<path d="M10.5636 0.8745
L10.5636 1.1126
" />
<path d="M10.5636 1.1126
L10.5160 1.2078
" />
<path d="M10.5160 1.2078
L10.4683 1.2554
" />
<path d="M10.4683 1.2554
L10.3731 1.3031
" />
<path d="M10.3731 1.3031
L10.0874 1.3031
" />
<path d="M10.0874 1.3031
L9.9921 1.2554
" />
<path d="M9.9921 1.2554
L9.9445 1.2078
" />
<path d="M10.9921 1.2078
L11.0398 1.2554
" />
<path d="M11.0398 1.2554
L10.9921 1.3031
" />
<path d="M10.9921 1.3031
L10.9445 1.2554
" />
<path d="M10.9445 1.2554
L10.9921 1.2078
" />
<path d="M10.9921 1.2078
L10.9921 1.3031
" />
<path d="M11.8969 0.6364
L11.8969 1.3031
" />
<path d="M11.6588 0.2555
L11.4207 0.9697
" />
<path d="M11.4207 0.9697
L12.0398 0.9697
" />
<path d="M12.6112 0.3031
L12.7064 0.3031
" />
<path d="M12.7064 0.3031
L12.8017 0.3507
" />
<path d="M12.8017 0.3507
L12.8493 0.3983
" />
<path d="M12.8493 0.3983
L12.8969 0.4935
" />
<path d="M12.8969 0.4935
L12.9445 0.6840
" />
<path d="M12.9445 0.6840
L12.9445 0.9221
" />
<path d="M12.9445 0.9221
L12.8969 1.1126
" />
<path d="M12.8969 1.1126
L12.8493 1.2078
" />
<path d="M12.8493 1.2078
L12.8017 1.2554
" />
<path d="M12.8017 1.2554
L12.7064 1.3031
" />
<path d="M12.7064 1.3031
L12.6112 1.3031
" />
<path d="M12.6112 1.3031
L12.5160 1.2554
" />
<path d="M12.5160 1.2554
L12.4683 1.2078
" />
<path d="M12.4683 1.2078
L12.4207 1.1126
" />
<path d="M12.4207 1.1126
L12.3731 0.9221
" />
<path d="M12.3731 0.9221
L12.3731 0.6840
" />
<path d="M12.3731 0.6840
L12.4207 0.4935
" />
<path d="M12.4207 0.4935
L12.4683 0.3983
" />
<path d="M12.4683 0.3983
L12.5160 0.3507
" />
<path d="M12.5160 0.3507
L12.6112 0.3031
" />
<path d="M13.5636 0.3031
L13.6588 0.3031
" />
<path d="M13.6588 0.3031
L13.7540 0.3507
" />
<path d="M13.7540 0.3507
L13.8017 0.3983
" />
<path d="M13.8017 0.3983
L13.8493 0.4935
" />
<path d="M13.8493 0.4935
L13.8969 0.6840
" />
<path d="M13.8969 0.6840
L13.8969 0.9221
" />
<path d="M13.8969 0.9221
L13.8493 1.1126
" />
<path d="M13.8493 1.1126
L13.8017 1.2078
" />
<path d="M13.8017 1.2078
L13.7540 1.2554
" />
<path d="M13.7540 1.2554
L13.6588 1.3031
" />
<path d="M13.6588 1.3031
L13.5636 1.3031
" />
<path d="M13.5636 1.3031
L13.4683 1.2554
" />
<path d="M13.4683 1.2554
L13.4207 1.2078
" />
<path d="M13.4207 1.2078
L13.3731 1.1126
" />
<path d="M13.3731 1.1126
L13.3255 0.9221
" />
<path d="M13.3255 0.9221
L13.3255 0.6840
" />
<path d="M13.3255 0.6840
L13.3731 0.4935
" />
<path d="M13.3731 0.4935
L13.4207 0.3983
" />
<path d="M13.4207 0.3983
L13.4683 0.3507
" />
<path d="M13.4683 0.3507
L13.5636 0.3031
" />
<path d="M14.5160 0.3031
L14.6112 0.3031
" />
<path d="M14.6112 0.3031
L14.7064 0.3507
" />
<path d="M14.7064 0.3507
L14.7540 0.3983
" />
<path d="M14.7540 0.3983
L14.8017 0.4935
" />
<path d="M14.8017 0.4935
L14.8493 0.6840
" />
<path d="M14.8493 0.6840
L14.8493 0.9221
" />
<path d="M14.8493 0.9221
L14.8017 1.1126
" />
<path d="M14.8017 1.1126
L14.7540 1.2078
" />
<path d="M14.7540 1.2078
L14.7064 1.2554
" />
<path d="M14.7064 1.2554
L14.6112 1.3031
" />
<path d="M14.6112 1.3031
L14.5160 1.3031
" />
<path d="M14.5160 1.3031
L14.4207 1.2554
" />
<path d="M14.4207 1.2554
L14.3731 1.2078
" />
<path d="M14.3731 1.2078
L14.3255 1.1126
" />
<path d="M14.3255 1.1126
L14.2779 0.9221
" />
<path d="M14.2779 0.9221
L14.2779 0.6840
" />
<path d="M14.2779 0.6840
L14.3255 0.4935
" />
<path d="M14.3255 0.4935
L14.3731 0.3983
" />
<path d="M14.3731 0.3983
L14.4207 0.3507
" />
<path d="M14.4207 0.3507
L14.5160 0.3031
" />
<path d="M16.0398 1.3031
L16.0398 0.6364
" />
<path d="M16.0398 0.7316
L16.0874 0.6840
" />
<path d="M16.0874 0.6840
L16.1826 0.6364
" />
<path d="M16.1826 0.6364
L16.3255 0.6364
" />
<path d="M16.3255 0.6364
L16.4207 0.6840
" />
<path d="M16.4207 0.6840
L16.4683 0.7793
" />
<path d="M16.4683 0.7793
L16.4683 1.3031
" />
<path d="M16.4683 0.7793
L16.5160 0.6840
" />
<path d="M16.5160 0.6840
L16.6112 0.6364
" />
<path d="M16.6112 0.6364
L16.7540 0.6364
" />
<path d="M16.7540 0.6364
L16.8493 0.6840
" />
<path d="M16.8493 0.6840
L16.8969 0.7793
" />
<path d="M16.8969 0.7793
L16.8969 1.3031
" />
<path d="M17.3731 1.3031
L17.3731 0.6364
" />
<path d="M17.3731 0.7316
L17.4207 0.6840
" />
<path d="M17.4207 0.6840
L17.5160 0.6364
" />
<path d="M17.5160 0.6364
L17.6588 0.6364
" />
<path d="M17.6588 0.6364
L17.7540 0.6840
" />
<path d="M17.7540 0.6840
L17.8017 0.7793
" />
<path d="M17.8017 0.7793
L17.8017 1.3031
" />
<path d="M17.8017 0.7793
L17.8493 0.6840
" />
<path d="M17.8493 0.6840
L17.9445 0.6364
" />
<path d="M17.9445 0.6364
L18.0874 0.6364
" />
<path d="M18.0874 0.6364
L18.1826 0.6840
" />
<path d="M18.1826 0.6840
L18.2302 0.7793
" />
<path d="M18.2302 0.7793
L18.2302 1.3031
" />
</g><path d="M25.3588 5.9982
L25.3588 1.4118
" />
<path d="M1.9588 5.9982
L1.9588 1.4118
" />
<path d="M25.3588 1.9982
L1.9588 1.9982
" />
<path d="M25.3588 1.9982
L1.9588 1.9982
" />
<path d="M25.3588 1.9982
L24.2323 2.5847
" />
<path d="M25.3588 1.9982
L24.2323 1.4118
" />
<path d="M1.9588 1.9982
L3.0853 1.4118
" />
<path d="M1.9588 1.9982
L3.0853 2.5847
" />
<g transform="rotate(-89.955926 27.2139 12.4994)">
<text x="27.2139" y="12.9994"
textLength="9.8690" font-size="1.3333" lengthAdjust="spacingAndGlyphs"
text-anchor="middle" opacity="0">13.0000 mm</text>
</g>
<g class="stroked-text"><desc>13.0000 mm</desc>
<path d="M27.6656 16.5474
L27.6651 17.1188
" />
<path d="M27.6654 16.8331
L26.6654 16.8324
" />
<path d="M26.6654 16.8324
L26.8082 16.9277
" />
<path d="M26.8082 16.9277
L26.9033 17.0230
" />
<path d="M26.9033 17.0230
L26.9509 17.1183
" />
<path d="M26.6658 16.2133
L26.6663 15.5943
" />
<path d="M26.6663 15.5943
L27.0470 15.9279
" />
<path d="M27.0470 15.9279
L27.0471 15.7850
" />
<path d="M27.0471 15.7850
L27.0948 15.6898
" />
<path d="M27.0948 15.6898
L27.1425 15.6423
" />
<path d="M27.1425 15.6423
L27.2377 15.5947
" />
<path d="M27.2377 15.5947
L27.4758 15.5949
" />
<path d="M27.4758 15.5949
L27.5710 15.6426
" />
<path d="M27.5710 15.6426
L27.6186 15.6902
" />
<path d="M27.6186 15.6902
L27.6662 15.7855
" />
<path d="M27.6662 15.7855
L27.6660 16.0712
" />
<path d="M27.6660 16.0712
L27.6183 16.1664
" />
<path d="M27.6183 16.1664
L27.5706 16.2140
" />
<path d="M27.5714 15.1664
L27.6191 15.1188
" />
<path d="M27.6191 15.1188
L27.6667 15.1665
" />
<path d="M27.6667 15.1665
L27.6190 15.2140
" />
<path d="M27.6190 15.2140
L27.5714 15.1664
" />
<path d="M27.5714 15.1664
L27.6667 15.1665
" />
<path d="M26.6672 14.4990
L26.6672 14.4038
" />
<path d="M26.6672 14.4038
L26.7149 14.3086
" />
<path d="M26.7149 14.3086
L26.7626 14.2610
" />
<path d="M26.7626 14.2610
L26.8579 14.2135
" />
<path d="M26.8579 14.2135
L27.0484 14.1660
" />
<path d="M27.0484 14.1660
L27.2865 14.1662
" />
<path d="M27.2865 14.1662
L27.4769 14.2139
" />
<path d="M27.4769 14.2139
L27.5721 14.2616
" />
<path d="M27.5721 14.2616
L27.6197 14.3093
" />
<path d="M27.6197 14.3093
L27.6672 14.4046
" />
<path d="M27.6672 14.4046
L27.6672 14.4998
" />
<path d="M27.6672 14.4998
L27.6195 14.5950
" />
<path d="M27.6195 14.5950
L27.5718 14.6426
" />
<path d="M27.5718 14.6426
L27.4765 14.6901
" />
<path d="M27.4765 14.6901
L27.2860 14.7376
" />
<path d="M27.2860 14.7376
L27.0479 14.7374
" />
<path d="M27.0479 14.7374
L26.8575 14.6897
" />
<path d="M26.8575 14.6897
L26.7623 14.6420
" />
<path d="M26.7623 14.6420
L26.7147 14.5943
" />
<path d="M26.7147 14.5943
L26.6672 14.4990
" />
<path d="M26.6679 13.5466
L26.6680 13.4514
" />
<path d="M26.6680 13.4514
L26.7157 13.3562
" />
<path d="M26.7157 13.3562
L26.7633 13.3086
" />
<path d="M26.7633 13.3086
L26.8586 13.2611
" />
<path d="M26.8586 13.2611
L27.0491 13.2136
" />
<path d="M27.0491 13.2136
L27.2872 13.2138
" />
<path d="M27.2872 13.2138
L27.4776 13.2616
" />
<path d="M27.4776 13.2616
L27.5728 13.3092
" />
<path d="M27.5728 13.3092
L27.6204 13.3569
" />
<path d="M27.6204 13.3569
L27.6680 13.4522
" />
<path d="M27.6680 13.4522
L27.6679 13.5474
" />
<path d="M27.6679 13.5474
L27.6202 13.6426
" />
<path d="M27.6202 13.6426
L27.5725 13.6902
" />
<path d="M27.5725 13.6902
L27.4773 13.7377
" />
<path d="M27.4773 13.7377
L27.2868 13.7852
" />
<path d="M27.2868 13.7852
L27.0487 13.7850
" />
<path d="M27.0487 13.7850
L26.8582 13.7373
" />
<path d="M26.8582 13.7373
L26.7630 13.6896
" />
<path d="M26.7630 13.6896
L26.7154 13.6419
" />
<path d="M26.7154 13.6419
L26.6679 13.5466
" />
<path d="M26.6686 12.5943
L26.6687 12.4990
" />
<path d="M26.6687 12.4990
L26.7164 12.4038
" />
<path d="M26.7164 12.4038
L26.7641 12.3562
" />
<path d="M26.7641 12.3562
L26.8593 12.3087
" />
<path d="M26.8593 12.3087
L27.0498 12.2612
" />
<path d="M27.0498 12.2612
L27.2879 12.2614
" />
<path d="M27.2879 12.2614
L27.4784 12.3092
" />
<path d="M27.4784 12.3092
L27.5736 12.3569
" />
<path d="M27.5736 12.3569
L27.6212 12.4045
" />
<path d="M27.6212 12.4045
L27.6687 12.4998
" />
<path d="M27.6687 12.4998
L27.6686 12.5950
" />
<path d="M27.6686 12.5950
L27.6209 12.6902
" />
<path d="M27.6209 12.6902
L27.5733 12.7378
" />
<path d="M27.5733 12.7378
L27.4780 12.7854
" />
<path d="M27.4780 12.7854
L27.2875 12.8328
" />
<path d="M27.2875 12.8328
L27.0494 12.8327
" />
<path d="M27.0494 12.8327
L26.8590 12.7849
" />
<path d="M26.8590 12.7849
L26.7638 12.7372
" />
<path d="M26.7638 12.7372
L26.7162 12.6895
" />
<path d="M26.7162 12.6895
L26.6686 12.5943
" />
<path d="M26.6694 11.6419
L26.6694 11.5466
" />
<path d="M26.6694 11.5466
L26.7171 11.4514
" />
<path d="M26.7171 11.4514
L26.7648 11.4039
" />
<path d="M26.7648 11.4039
L26.8601 11.3563
" />
<path d="M26.8601 11.3563
L27.0506 11.3088
" />
<path d="M27.0506 11.3088
L27.2887 11.3090
" />
<path d="M27.2887 11.3090
L27.4791 11.3568
" />
<path d="M27.4791 11.3568
L27.5743 11.4045
" />
<path d="M27.5743 11.4045
L27.6219 11.4521
" />
<path d="M27.6219 11.4521
L27.6694 11.5474
" />
<path d="M27.6694 11.5474
L27.6694 11.6427
" />
<path d="M27.6694 11.6427
L27.6217 11.7379
" />
<path d="M27.6217 11.7379
L27.5740 11.7854
" />
<path d="M27.5740 11.7854
L27.4787 11.8330
" />
<path d="M27.4787 11.8330
L27.2882 11.8805
" />
<path d="M27.2882 11.8805
L27.0501 11.8803
" />
<path d="M27.0501 11.8803
L26.8597 11.8325
" />
<path d="M26.8597 11.8325
L26.7645 11.7848
" />
<path d="M26.7645 11.7848
L26.7169 11.7372
" />
<path d="M26.7169 11.7372
L26.6694 11.6419
" />
<path d="M27.6705 10.1188
L27.0039 10.1183
" />
<path d="M27.0991 10.1184
L27.0515 10.0708
" />
<path d="M27.0515 10.0708
L27.0040 9.9755
" />
<path d="M27.0040 9.9755
L27.0041 9.8326
" />
<path d="M27.0041 9.8326
L27.0518 9.7374
" />
<path d="M27.0518 9.7374
L27.1471 9.6899
" />
<path d="M27.1471 9.6899
L27.6709 9.6903
" />
<path d="M27.1471 9.6899
L27.0519 9.6422
" />
<path d="M27.0519 9.6422
L27.0043 9.5469
" />
<path d="M27.0043 9.5469
L27.0044 9.4040
" />
<path d="M27.0044 9.4040
L27.0521 9.3088
" />
<path d="M27.0521 9.3088
L27.1474 9.2613
" />
<path d="M27.1474 9.2613
L27.6712 9.2617
" />
<path d="M27.6716 8.7855
L27.0049 8.7850
" />
<path d="M27.1001 8.7851
L27.0525 8.7374
" />
<path d="M27.0525 8.7374
L27.0050 8.6421
" />
<path d="M27.0050 8.6421
L27.0051 8.4993
" />
<path d="M27.0051 8.4993
L27.0528 8.4041
" />
<path d="M27.0528 8.4041
L27.1481 8.3565
" />
<path d="M27.1481 8.3565
L27.6719 8.3569
" />
<path d="M27.1481 8.3565
L27.0529 8.3088
" />
<path d="M27.0529 8.3088
L27.0053 8.2136
" />
<path d="M27.0053 8.2136
L27.0054 8.0707
" />
<path d="M27.0054 8.0707
L27.0531 7.9755
" />
<path d="M27.0531 7.9755
L27.1484 7.9280
" />
<path d="M27.1484 7.9280
L27.6722 7.9284
" />
</g><path d="M25.6488 18.9982
L28.9453 19.0008
" />
<path d="M25.6588 5.9982
L28.9553 6.0008
" />
<path d="M28.3589 19.0003
L28.3689 6.0003
" />
<path d="M28.3589 19.0003
L28.3689 6.0003
" />
<path d="M28.3589 19.0003
L27.7733 17.8734
" />
<path d="M28.3589 19.0003
L28.9462 17.8743
" />
<path d="M28.3689 6.0003
L28.9544 7.1273
" />
<path d="M28.3689 6.0003
L27.7816 7.1264
" />
<g >
</g>
<g >
</g>
<g >
</g>
<g >
</g>
<g >
</g>
<g >
</g>
<g >
</g>
<g >
</g>
<g >
</g>
</g>
<g style="fill:#FFFFFF; fill-opacity:0.0; 
stroke:#FFFFFF; stroke-width:0.1500; stroke-opacity:1; 
stroke-linecap:round; stroke-linejoin:round;">
</g>
<g style="fill:#2F2D31; fill-opacity:0.0; 
stroke:#2F2D31; stroke-width:0.1500; stroke-opacity:1; 
stroke-linecap:round; stroke-linejoin:round;">
</g>
<g style="fill:#2F2D31; fill-opacity:0.0; 
stroke:#2F2D31; stroke-width:0.0500; stroke-opacity:1; 
stroke-linecap:round; stroke-linejoin:round;">
<path d="M1.9588 18.9982
L1.9588 5.9982
" />
<path d="M13.6488 18.9982
L25.3588 18.9982
" />
<path d="M1.9588 18.9982
L13.6488 18.9982
" />
<path d="M13.6588 5.9982
L25.3588 5.9982
" />
<path d="M1.9588 5.9982
L13.6588 5.9982
" />
<path d="M25.3588 5.9982
L25.3588 18.9982
" />
<g >
</g>
<g >
</g>
<g >
</g>
<g >
</g>
<g >
</g>
<g >
</g>
<g >
</g>
<g >
</g>
<g >
</g>
</g> 
</svg>
