<?xml version="1.0" standalone="no"?>
 <!DOCTYPE svg PUBLIC "-//W3C//DTD SVG 1.1//EN" 
 "http://www.w3.org/Graphics/SVG/1.1/DTD/svg11.dtd"> 
<svg
  xmlns:svg="http://www.w3.org/2000/svg"
  xmlns="http://www.w3.org/2000/svg"
  xmlns:xlink="http://www.w3.org/1999/xlink"
  version="1.1"
  width="15.1892mm" height="13.9954mm" viewBox="0.0000 0.0000 15.1892 13.9954">
<title>SVG Image created as _autosave-working-brd.svg date 2023/09/19 22:24:00 </title>
  <desc>Image generated by PCBNEW </desc>
<g style="fill:#000000; fill-opacity:1.0000;stroke:#000000; stroke-opacity:1.0000;
stroke-linecap:round; stroke-linejoin:round;"
 transform="translate(0 0) scale(1 1)">
</g>
<g style="fill:#000000; fill-opacity:0.0; 
stroke:#000000; stroke-width:0.0000; stroke-opacity:1; 
stroke-linecap:round; stroke-linejoin:round;">
</g>
<g style="fill:#000000; fill-opacity:1.0000; 
stroke:#000000; stroke-width:0.0212; stroke-opacity:1; 
stroke-linecap:round; stroke-linejoin:round;">
<rect x="-5.000000" y="-5.000000" width="25.193332" height="23.996666" rx="0.000000" />
</g>
<g style="fill:#FFFFFF; fill-opacity:1.0000; 
stroke:#FFFFFF; stroke-width:0.0212; stroke-opacity:1; 
stroke-linecap:round; stroke-linejoin:round;">
<g >
</g>
<g style="fill:#B2803A; fill-opacity:1.0000; 
stroke:#B2803A; stroke-width:0.0212; stroke-opacity:1; 
stroke-linecap:round; stroke-linejoin:round;">
</g>
<g style="fill:#B2803A; fill-opacity:1.0000; 
stroke:#B2803A; stroke-width:0.0000; stroke-opacity:1; 
stroke-linecap:round; stroke-linejoin:round;">
<path style="fill:#B2803A; fill-opacity:1.0000; 
stroke:#B2803A; stroke-width:0.0000; stroke-opacity:1; 
stroke-linecap:round; stroke-linejoin:round;fill-rule:evenodd;"
d="M 11.6607,6.6540
11.6607,4.6220
13.6927,4.6220
13.6927,6.6540
Z" /> 
<circle cx="12.6767" cy="8.1780" r="1.0160" /> 
</g>
<g >
</g>
<g >
</g>
<g >
</g>
<g >
</g>
<g style="fill:#B2803A; fill-opacity:1.0000; 
stroke:#B2803A; stroke-width:0.0000; stroke-opacity:1; 
stroke-linecap:round; stroke-linejoin:round;">
<path style="fill:#B2803A; fill-opacity:1.0000; 
stroke:#B2803A; stroke-width:0.0000; stroke-opacity:1; 
stroke-linecap:round; stroke-linejoin:round;fill-rule:evenodd;"
d="M 3.5327,6.8064
3.5327,8.5336
1.5007,8.5336
1.5007,6.8064
Z" /> 
</g>
<g style="fill:#B2803A; fill-opacity:1.0000; 
stroke:#B2803A; stroke-width:1.7272; stroke-opacity:1; 
stroke-linecap:round; stroke-linejoin:round;">
</g>
<g style="fill:#B2803A; fill-opacity:0.0; 
stroke:#B2803A; stroke-width:1.7272; stroke-opacity:1; 
stroke-linecap:round; stroke-linejoin:round;">
<path d="M2.6691 5.1300
L2.3643 5.1300
" />
<path d="M2.6691 2.5900
L2.3643 2.5900
" />
</g>
<g >
</g>
<g style="fill:#B2803A; fill-opacity:0.0; 
stroke:#B2803A; stroke-width:1.7272; stroke-opacity:1; 
stroke-linecap:round; stroke-linejoin:round;">
</g>
<g style="fill:#B2803A; fill-opacity:0.0; 
stroke:#B2803A; stroke-width:0.0000; stroke-opacity:1; 
stroke-linecap:round; stroke-linejoin:round;">
</g>
<g style="fill:#B2803A; fill-opacity:1.0000; 
stroke:#B2803A; stroke-width:0.0000; stroke-opacity:1; 
stroke-linecap:round; stroke-linejoin:round;">
<path style="fill:#B2803A; fill-opacity:1.0000; 
stroke:#B2803A; stroke-width:0.0000; stroke-opacity:1; 
stroke-linecap:round; stroke-linejoin:round;fill-rule:evenodd;"
d="M 6.4791,10.4640
8.2063,10.4640
8.2063,12.4960
6.4791,12.4960
Z" /> 
</g>
<g style="fill:#B2803A; fill-opacity:1.0000; 
stroke:#B2803A; stroke-width:1.7272; stroke-opacity:1; 
stroke-linecap:round; stroke-linejoin:round;">
</g>
<g style="fill:#B2803A; fill-opacity:0.0; 
stroke:#B2803A; stroke-width:1.7272; stroke-opacity:1; 
stroke-linecap:round; stroke-linejoin:round;">
<path d="M4.8027 11.3276
L4.8027 11.6324
" />
<path d="M2.2627 11.3276
L2.2627 11.6324
" />
</g>
<g >
</g>
<g style="fill:#121212; fill-opacity:0.0; 
stroke:#121212; stroke-width:1.7272; stroke-opacity:1; 
stroke-linecap:round; stroke-linejoin:round;">
</g>
<g style="fill:#121212; fill-opacity:1.0000; 
stroke:#121212; stroke-width:0.0000; stroke-opacity:1; 
stroke-linecap:round; stroke-linejoin:round;">
<circle cx="8.1047" cy="5.5110" r="0.3429" /> 
</g>
<g style="fill:#121212; fill-opacity:1.0000; 
stroke:#121212; stroke-width:0.0212; stroke-opacity:1; 
stroke-linecap:round; stroke-linejoin:round;">
</g>
<g style="fill:#121212; fill-opacity:1.0000; 
stroke:#121212; stroke-width:0.0000; stroke-opacity:1; 
stroke-linecap:round; stroke-linejoin:round;">
<circle cx="6.8982" cy="8.6225" r="0.3429" /> 
</g>
<g style="fill:#121212; fill-opacity:1.0000; 
stroke:#121212; stroke-width:0.0212; stroke-opacity:1; 
stroke-linecap:round; stroke-linejoin:round;">
</g>
<g style="fill:#121212; fill-opacity:1.0000; 
stroke:#121212; stroke-width:0.0000; stroke-opacity:1; 
stroke-linecap:round; stroke-linejoin:round;">
<circle cx="9.3112" cy="8.3050" r="0.3429" /> 
</g>
<g style="fill:#121212; fill-opacity:1.0000; 
stroke:#121212; stroke-width:0.0212; stroke-opacity:1; 
stroke-linecap:round; stroke-linejoin:round;">
</g>
<g style="fill:#121212; fill-opacity:1.0000; 
stroke:#121212; stroke-width:0.0000; stroke-opacity:1; 
stroke-linecap:round; stroke-linejoin:round;">
<circle cx="9.0572" cy="9.3210" r="0.3429" /> 
</g>
<g style="fill:#121212; fill-opacity:1.0000; 
stroke:#121212; stroke-width:0.0212; stroke-opacity:1; 
stroke-linecap:round; stroke-linejoin:round;">
</g>
<g style="fill:#121212; fill-opacity:1.0000; 
stroke:#121212; stroke-width:0.0000; stroke-opacity:1; 
stroke-linecap:round; stroke-linejoin:round;">
<circle cx="10.1367" cy="9.0670" r="0.3429" /> 
</g>
<g style="fill:#121212; fill-opacity:1.0000; 
stroke:#121212; stroke-width:0.0212; stroke-opacity:1; 
stroke-linecap:round; stroke-linejoin:round;">
</g>
<g style="fill:#121212; fill-opacity:1.0000; 
stroke:#121212; stroke-width:0.0000; stroke-opacity:1; 
stroke-linecap:round; stroke-linejoin:round;">
<circle cx="7.9142" cy="9.1305" r="0.3429" /> 
</g>
<g style="fill:#121212; fill-opacity:1.0000; 
stroke:#121212; stroke-width:0.0212; stroke-opacity:1; 
stroke-linecap:round; stroke-linejoin:round;">
</g>
<g style="fill:#121212; fill-opacity:1.0000; 
stroke:#121212; stroke-width:0.0000; stroke-opacity:1; 
stroke-linecap:round; stroke-linejoin:round;">
<circle cx="8.1682" cy="8.1145" r="0.3429" /> 
</g>
<g style="fill:#121212; fill-opacity:1.0000; 
stroke:#121212; stroke-width:0.0212; stroke-opacity:1; 
stroke-linecap:round; stroke-linejoin:round;">
</g>
<g >
</g>
<g style="fill:#B2803A; fill-opacity:1.0000; 
stroke:#B2803A; stroke-width:0.0212; stroke-opacity:1; 
stroke-linecap:round; stroke-linejoin:round;">
</g>
<g style="fill:#B2803A; fill-opacity:1.0000; 
stroke:#B2803A; stroke-width:0.1524; stroke-opacity:1; 
stroke-linecap:round; stroke-linejoin:round;">
</g>
<g style="fill:#B2803A; fill-opacity:0.0; 
stroke:#B2803A; stroke-width:0.1524; stroke-opacity:1; 
stroke-linecap:round; stroke-linejoin:round;">
<path d="M8.1047 5.5110
L8.1682 5.5745
" />
<path d="M8.1682 5.5745
L8.1682 8.1145
" />
<path d="M9.3112 8.3050
L10.0732 9.0670
" />
<path d="M10.0732 9.0670
L10.1367 9.0670
" />
<path d="M9.0572 9.3210
L8.8667 9.1305
" />
<path d="M8.8667 9.1305
L7.9142 9.1305
" />
</g>
<g >
</g>
<g style="fill:#B2803A; fill-opacity:0.0; 
stroke:#B2803A; stroke-width:0.1524; stroke-opacity:1; 
stroke-linecap:round; stroke-linejoin:round;">
<g >
</g>
<g style="fill:#B2803A; fill-opacity:1.0000; 
stroke:#B2803A; stroke-width:0.0000; stroke-opacity:1; 
stroke-linecap:round; stroke-linejoin:round;">
<path style="fill:#B2803A; fill-opacity:1.0000; 
stroke:#B2803A; stroke-width:0.0000; stroke-opacity:1; 
stroke-linecap:round; stroke-linejoin:round;fill-rule:evenodd;"
d="M 13.9273,0.5681
13.9530,0.6126
13.9542,0.6257
13.9542,4.4149
13.9366,4.4632
13.8920,4.4890
13.8414,4.4800
13.8372,4.4774
13.7709,4.4331
13.7709,4.4331
13.7124,4.4215
13.7124,4.4215
11.6409,4.4215
11.6409,4.4215
11.5824,4.4331
11.5824,4.4331
11.5161,4.4774
11.4718,4.5438
11.4718,4.5438
11.4602,4.6023
11.4602,6.6737
11.4718,6.7322
11.4718,6.7322
11.5161,6.7986
11.5824,6.8429
11.6117,6.8487
11.6409,6.8545
12.3446,6.8545
12.3930,6.8721
12.4187,6.9166
12.4098,6.9673
12.3704,7.0004
12.3641,7.0023
12.2590,7.0305
12.2590,7.0305
12.2590,7.0305
12.0661,7.1205
12.0661,7.1205
11.8917,7.2425
11.7412,7.3931
11.6191,7.5674
11.6191,7.5674
11.5292,7.7603
11.5292,7.7603
11.4741,7.9660
11.4555,8.1780
11.4741,8.3900
11.5292,8.5957
11.5292,8.5957
11.6191,8.7886
11.7412,8.9629
11.8917,9.1135
11.8917,9.1135
11.8917,9.1135
12.0661,9.2355
12.0661,9.2355
12.0661,9.2355
12.2266,9.3104
12.2590,9.3255
12.4646,9.3806
12.6767,9.3991
12.8887,9.3806
13.0943,9.3255
13.2872,9.2355
13.4616,9.1135
13.6121,8.9629
13.7342,8.7886
13.8108,8.6243
13.8472,8.5879
13.8984,8.5834
13.9406,8.6129
13.9542,8.6561
13.9542,12.6823
13.9366,12.7306
13.8920,12.7564
13.8790,12.7575
8.4134,12.7575
8.3650,12.7399
8.3393,12.6954
8.3482,12.6447
8.3508,12.6405
8.3951,12.5742
8.4068,12.5157
8.4068,10.4443
8.3951,10.3858
8.3508,10.3194
8.2845,10.2751
8.2845,10.2751
8.2260,10.2635
8.2260,10.2635
6.4593,10.2635
6.4593,10.2635
6.4008,10.2751
6.4008,10.2751
6.3345,10.3194
6.2902,10.3858
6.2902,10.3858
6.2786,10.4443
6.2786,12.5157
6.2902,12.5742
6.2902,12.5742
6.3345,12.6405
6.3467,12.6905
6.3240,12.7366
6.2769,12.7573
6.2720,12.7575
5.2553,12.7575
5.2070,12.7399
5.1812,12.6954
5.1902,12.6447
5.2199,12.6160
5.3090,12.5683
5.3967,12.5214
5.5587,12.3885
5.6917,12.2264
5.7905,12.0416
5.8514,11.8410
5.8668,11.6847
5.8668,11.2753
5.8514,11.1190
5.7905,10.9184
5.6917,10.7336
5.6917,10.7336
5.6917,10.7335
5.5587,10.5715
5.3967,10.4386
5.3967,10.4386
5.3967,10.4386
5.3967,10.4385
5.3967,10.4385
5.2119,10.3397
5.2119,10.3397
5.2119,10.3397
5.0113,10.2789
5.0113,10.2789
5.0113,10.2789
4.8027,10.2584
4.5941,10.2789
4.5941,10.2789
4.5941,10.2789
4.3935,10.3397
4.3935,10.3397
4.3935,10.3397
4.2086,10.4385
4.2086,10.4386
4.0466,10.5715
3.9136,10.7335
3.9136,10.7336
3.8148,10.9184
3.7540,11.1190
3.7386,11.2753
3.7386,11.6847
3.7540,11.8410
3.8148,12.0416
3.9136,12.2264
3.9136,12.2264
4.0466,12.3885
4.2086,12.5214
4.2086,12.5214
4.2086,12.5214
4.2086,12.5214
4.2086,12.5214
4.3855,12.6160
4.4198,12.6543
4.4215,12.7057
4.3897,12.7462
4.3500,12.7575
2.7153,12.7575
2.6670,12.7399
2.6412,12.6954
2.6502,12.6447
2.6799,12.6160
2.7690,12.5683
2.8567,12.5214
3.0187,12.3885
3.1517,12.2264
3.2505,12.0416
3.3114,11.8410
3.3268,11.6847
3.3268,11.2753
3.3114,11.1190
3.2505,10.9184
3.1517,10.7336
3.1517,10.7336
3.1517,10.7335
3.0187,10.5715
2.8567,10.4386
2.8567,10.4386
2.8567,10.4386
2.8567,10.4385
2.8567,10.4385
2.6719,10.3397
2.6719,10.3397
2.6719,10.3397
2.4713,10.2789
2.4713,10.2789
2.4713,10.2789
2.2855,10.2606
2.2627,10.2584
2.2627,10.2584
2.0541,10.2789
2.0541,10.2789
2.0541,10.2789
1.8535,10.3397
1.8535,10.3397
1.8535,10.3397
1.6686,10.4385
1.6686,10.4386
1.5066,10.5715
1.3736,10.7335
1.3736,10.7336
1.2748,10.9184
1.2140,11.1190
1.1986,11.2753
1.1986,11.6847
1.2140,11.8410
1.2748,12.0416
1.3736,12.2264
1.3736,12.2264
1.5066,12.3885
1.6686,12.5214
1.6686,12.5214
1.6686,12.5214
1.6686,12.5214
1.6686,12.5214
1.8455,12.6160
1.8798,12.6543
1.8815,12.7057
1.8497,12.7462
1.8100,12.7575
1.0604,12.7575
1.0120,12.7399
0.9863,12.6954
0.9852,12.6823
0.9852,5.1300
1.2950,5.1300
1.3156,5.3386
1.3764,5.5392
1.4752,5.7240
1.4752,5.7241
1.6082,5.8861
1.7702,6.0190
1.7702,6.0190
1.7702,6.0190
1.9551,6.1179
2.1557,6.1787
2.3120,6.1941
2.3120,6.1941
2.7213,6.1941
2.7213,6.1941
2.8777,6.1787
3.0782,6.1179
3.2631,6.0190
3.4251,5.8861
3.5581,5.7240
3.6569,5.5392
3.7178,5.3386
3.7383,5.1300
3.7178,4.9214
3.6569,4.7208
3.5581,4.5360
3.5581,4.5360
3.5581,4.5359
3.4251,4.3739
3.2631,4.2410
3.2631,4.2410
3.2631,4.2410
3.2631,4.2409
3.2631,4.2409
3.0783,4.1421
3.0783,4.1421
3.0782,4.1421
2.8777,4.0813
2.8777,4.0813
2.8777,4.0813
2.7214,4.0659
2.7213,4.0659
2.3120,4.0659
2.3120,4.0659
2.1557,4.0813
2.1557,4.0813
2.1557,4.0813
1.9551,4.1421
1.9551,4.1421
1.9551,4.1421
1.7702,4.2409
1.7702,4.2410
1.6082,4.3739
1.4752,4.5359
1.4752,4.5360
1.3764,4.7208
1.3156,4.9214
1.2950,5.1300
0.9852,5.1300
0.9852,2.5900
1.2950,2.5900
1.3156,2.7986
1.3764,2.9992
1.4752,3.1840
1.4752,3.1841
1.6082,3.3461
1.7702,3.4790
1.7702,3.4790
1.7702,3.4790
1.9551,3.5779
2.1557,3.6387
2.3120,3.6541
2.3120,3.6541
2.7213,3.6541
2.7213,3.6541
2.8777,3.6387
3.0782,3.5779
3.2631,3.4790
3.4251,3.3461
3.5581,3.1840
3.6569,2.9992
3.7178,2.7986
3.7383,2.5900
3.7178,2.3814
3.6569,2.1808
3.5581,1.9960
3.5581,1.9960
3.5581,1.9959
3.4251,1.8339
3.2631,1.7010
3.2631,1.7010
3.2631,1.7010
3.2631,1.7009
3.2631,1.7009
3.0783,1.6021
3.0783,1.6021
3.0782,1.6021
2.8777,1.5413
2.8777,1.5413
2.8777,1.5413
2.7214,1.5259
2.7213,1.5259
2.3120,1.5259
2.3120,1.5259
2.1557,1.5413
2.1557,1.5413
2.1557,1.5413
1.9551,1.6021
1.9551,1.6021
1.9551,1.6021
1.7702,1.7009
1.7702,1.7010
1.6082,1.8339
1.4752,1.9959
1.4752,1.9960
1.3764,2.1808
1.3156,2.3814
1.2950,2.5900
0.9852,2.5900
0.9852,0.6257
1.0028,0.5774
1.0473,0.5516
1.0604,0.5505
13.8790,0.5505
Z" /> 
</g>
</g>
</g>
<g style="fill:#000000; fill-opacity:1.0000; 
stroke:#000000; stroke-width:0.0000; stroke-opacity:1; 
stroke-linecap:round; stroke-linejoin:round;">
<circle cx="8.1047" cy="5.5110" r="0.1651" /> 
</g>
<g style="fill:#000000; fill-opacity:1.0000; 
stroke:#000000; stroke-width:0.0212; stroke-opacity:1; 
stroke-linecap:round; stroke-linejoin:round;">
</g>
<g style="fill:#000000; fill-opacity:1.0000; 
stroke:#000000; stroke-width:0.0000; stroke-opacity:1; 
stroke-linecap:round; stroke-linejoin:round;">
<circle cx="6.8982" cy="8.6225" r="0.1651" /> 
</g>
<g style="fill:#000000; fill-opacity:1.0000; 
stroke:#000000; stroke-width:0.0212; stroke-opacity:1; 
stroke-linecap:round; stroke-linejoin:round;">
</g>
<g style="fill:#000000; fill-opacity:1.0000; 
stroke:#000000; stroke-width:0.0000; stroke-opacity:1; 
stroke-linecap:round; stroke-linejoin:round;">
<circle cx="9.3112" cy="8.3050" r="0.1651" /> 
</g>
<g style="fill:#000000; fill-opacity:1.0000; 
stroke:#000000; stroke-width:0.0212; stroke-opacity:1; 
stroke-linecap:round; stroke-linejoin:round;">
</g>
<g style="fill:#000000; fill-opacity:1.0000; 
stroke:#000000; stroke-width:0.0000; stroke-opacity:1; 
stroke-linecap:round; stroke-linejoin:round;">
<circle cx="9.0572" cy="9.3210" r="0.1651" /> 
</g>
<g style="fill:#000000; fill-opacity:1.0000; 
stroke:#000000; stroke-width:0.0212; stroke-opacity:1; 
stroke-linecap:round; stroke-linejoin:round;">
</g>
<g style="fill:#000000; fill-opacity:1.0000; 
stroke:#000000; stroke-width:0.0000; stroke-opacity:1; 
stroke-linecap:round; stroke-linejoin:round;">
<circle cx="10.1367" cy="9.0670" r="0.1651" /> 
</g>
<g style="fill:#000000; fill-opacity:1.0000; 
stroke:#000000; stroke-width:0.0212; stroke-opacity:1; 
stroke-linecap:round; stroke-linejoin:round;">
</g>
<g style="fill:#000000; fill-opacity:1.0000; 
stroke:#000000; stroke-width:0.0000; stroke-opacity:1; 
stroke-linecap:round; stroke-linejoin:round;">
<circle cx="7.9142" cy="9.1305" r="0.1651" /> 
</g>
<g style="fill:#000000; fill-opacity:1.0000; 
stroke:#000000; stroke-width:0.0212; stroke-opacity:1; 
stroke-linecap:round; stroke-linejoin:round;">
</g>
<g style="fill:#000000; fill-opacity:1.0000; 
stroke:#000000; stroke-width:0.0000; stroke-opacity:1; 
stroke-linecap:round; stroke-linejoin:round;">
<circle cx="8.1682" cy="8.1145" r="0.1651" /> 
</g>
<g style="fill:#000000; fill-opacity:1.0000; 
stroke:#000000; stroke-width:0.0212; stroke-opacity:1; 
stroke-linecap:round; stroke-linejoin:round;">
</g>
<g style="fill:#000000; fill-opacity:1.0000; 
stroke:#000000; stroke-width:0.0000; stroke-opacity:1; 
stroke-linecap:round; stroke-linejoin:round;">
<circle cx="12.6767" cy="5.6380" r="0.5080" /> 
</g>
<g style="fill:#000000; fill-opacity:1.0000; 
stroke:#000000; stroke-width:0.0212; stroke-opacity:1; 
stroke-linecap:round; stroke-linejoin:round;">
</g>
<g style="fill:#000000; fill-opacity:1.0000; 
stroke:#000000; stroke-width:0.0000; stroke-opacity:1; 
stroke-linecap:round; stroke-linejoin:round;">
<circle cx="12.6767" cy="8.1780" r="0.5080" /> 
</g>
<g style="fill:#000000; fill-opacity:1.0000; 
stroke:#000000; stroke-width:0.0212; stroke-opacity:1; 
stroke-linecap:round; stroke-linejoin:round;">
</g>
<g style="fill:#000000; fill-opacity:1.0000; 
stroke:#000000; stroke-width:0.0000; stroke-opacity:1; 
stroke-linecap:round; stroke-linejoin:round;">
<circle cx="2.5167" cy="7.6700" r="0.5080" /> 
</g>
<g style="fill:#000000; fill-opacity:1.0000; 
stroke:#000000; stroke-width:0.0212; stroke-opacity:1; 
stroke-linecap:round; stroke-linejoin:round;">
</g>
<g style="fill:#000000; fill-opacity:1.0000; 
stroke:#000000; stroke-width:0.0000; stroke-opacity:1; 
stroke-linecap:round; stroke-linejoin:round;">
<circle cx="2.5167" cy="5.1300" r="0.5080" /> 
</g>
<g style="fill:#000000; fill-opacity:1.0000; 
stroke:#000000; stroke-width:0.0212; stroke-opacity:1; 
stroke-linecap:round; stroke-linejoin:round;">
</g>
<g style="fill:#000000; fill-opacity:1.0000; 
stroke:#000000; stroke-width:0.0000; stroke-opacity:1; 
stroke-linecap:round; stroke-linejoin:round;">
<circle cx="2.5167" cy="2.5900" r="0.5080" /> 
</g>
<g style="fill:#000000; fill-opacity:1.0000; 
stroke:#000000; stroke-width:0.0212; stroke-opacity:1; 
stroke-linecap:round; stroke-linejoin:round;">
</g>
<g style="fill:#000000; fill-opacity:1.0000; 
stroke:#000000; stroke-width:0.0000; stroke-opacity:1; 
stroke-linecap:round; stroke-linejoin:round;">
<circle cx="7.3427" cy="11.4800" r="0.5080" /> 
</g>
<g style="fill:#000000; fill-opacity:1.0000; 
stroke:#000000; stroke-width:0.0212; stroke-opacity:1; 
stroke-linecap:round; stroke-linejoin:round;">
</g>
<g style="fill:#000000; fill-opacity:1.0000; 
stroke:#000000; stroke-width:0.0000; stroke-opacity:1; 
stroke-linecap:round; stroke-linejoin:round;">
<circle cx="4.8027" cy="11.4800" r="0.5080" /> 
</g>
<g style="fill:#000000; fill-opacity:1.0000; 
stroke:#000000; stroke-width:0.0212; stroke-opacity:1; 
stroke-linecap:round; stroke-linejoin:round;">
</g>
<g style="fill:#000000; fill-opacity:1.0000; 
stroke:#000000; stroke-width:0.0000; stroke-opacity:1; 
stroke-linecap:round; stroke-linejoin:round;">
<circle cx="2.2627" cy="11.4800" r="0.5080" /> 
</g>
<g style="fill:#000000; fill-opacity:1.0000; 
stroke:#000000; stroke-width:0.0212; stroke-opacity:1; 
stroke-linecap:round; stroke-linejoin:round;">
</g>
<g style="fill:#FFFFFF; fill-opacity:1.0000; 
stroke:#FFFFFF; stroke-width:0.0212; stroke-opacity:1; 
stroke-linecap:round; stroke-linejoin:round;">
<g >
</g>
<g style="fill:#37CBCB; fill-opacity:1.0000; 
stroke:#37CBCB; stroke-width:0.0212; stroke-opacity:1; 
stroke-linecap:round; stroke-linejoin:round;">
</g>
<g style="fill:#37CBCB; fill-opacity:1.0000; 
stroke:#37CBCB; stroke-width:0.0000; stroke-opacity:1; 
stroke-linecap:round; stroke-linejoin:round;">
<path style="fill:#37CBCB; fill-opacity:1.0000; 
stroke:#37CBCB; stroke-width:0.0000; stroke-opacity:1; 
stroke-linecap:round; stroke-linejoin:round;fill-rule:evenodd;"
d="M 11.6607,6.6540
11.6607,4.6220
13.6927,4.6220
13.6927,6.6540
Z" /> 
<circle cx="12.6767" cy="8.1780" r="1.0160" /> 
</g>
<g >
</g>
<g style="fill:#37CBCB; fill-opacity:1.0000; 
stroke:#37CBCB; stroke-width:0.0000; stroke-opacity:1; 
stroke-linecap:round; stroke-linejoin:round;">
<path style="fill:#37CBCB; fill-opacity:1.0000; 
stroke:#37CBCB; stroke-width:0.0000; stroke-opacity:1; 
stroke-linecap:round; stroke-linejoin:round;fill-rule:evenodd;"
d="M 8.8047,5.8910
9.3047,5.8910
9.3047,6.1710
8.8047,6.1710
Z" /> 
<path style="fill:#37CBCB; fill-opacity:1.0000; 
stroke:#37CBCB; stroke-width:0.0000; stroke-opacity:1; 
stroke-linecap:round; stroke-linejoin:round;fill-rule:evenodd;"
d="M 8.8047,6.3910
9.3047,6.3910
9.3047,6.6710
8.8047,6.6710
Z" /> 
<path style="fill:#37CBCB; fill-opacity:1.0000; 
stroke:#37CBCB; stroke-width:0.0000; stroke-opacity:1; 
stroke-linecap:round; stroke-linejoin:round;fill-rule:evenodd;"
d="M 8.8047,6.8910
9.3047,6.8910
9.3047,7.1710
8.8047,7.1710
Z" /> 
<path style="fill:#37CBCB; fill-opacity:1.0000; 
stroke:#37CBCB; stroke-width:0.0000; stroke-opacity:1; 
stroke-linecap:round; stroke-linejoin:round;fill-rule:evenodd;"
d="M 7.6547,5.9810
8.5547,5.9810
8.5547,7.5810
7.6547,7.5810
Z" /> 
<path style="fill:#37CBCB; fill-opacity:1.0000; 
stroke:#37CBCB; stroke-width:0.0000; stroke-opacity:1; 
stroke-linecap:round; stroke-linejoin:round;fill-rule:evenodd;"
d="M 8.8047,7.3910
9.3047,7.3910
9.3047,7.6710
8.8047,7.6710
Z" /> 
<path style="fill:#37CBCB; fill-opacity:1.0000; 
stroke:#37CBCB; stroke-width:0.0000; stroke-opacity:1; 
stroke-linecap:round; stroke-linejoin:round;fill-rule:evenodd;"
d="M 6.9047,7.3910
7.4047,7.3910
7.4047,7.6710
6.9047,7.6710
Z" /> 
<path style="fill:#37CBCB; fill-opacity:1.0000; 
stroke:#37CBCB; stroke-width:0.0000; stroke-opacity:1; 
stroke-linecap:round; stroke-linejoin:round;fill-rule:evenodd;"
d="M 6.9047,6.8910
7.4047,6.8910
7.4047,7.1710
6.9047,7.1710
Z" /> 
<path style="fill:#37CBCB; fill-opacity:1.0000; 
stroke:#37CBCB; stroke-width:0.0000; stroke-opacity:1; 
stroke-linecap:round; stroke-linejoin:round;fill-rule:evenodd;"
d="M 6.9047,6.3910
7.4047,6.3910
7.4047,6.6710
6.9047,6.6710
Z" /> 
<path style="fill:#37CBCB; fill-opacity:1.0000; 
stroke:#37CBCB; stroke-width:0.0000; stroke-opacity:1; 
stroke-linecap:round; stroke-linejoin:round;fill-rule:evenodd;"
d="M 6.9047,5.8910
7.4047,5.8910
7.4047,6.1710
6.9047,6.1710
Z" /> 
</g>
<g >
</g>
<g style="fill:#37CBCB; fill-opacity:1.0000; 
stroke:#37CBCB; stroke-width:0.0000; stroke-opacity:1; 
stroke-linecap:round; stroke-linejoin:round;">
<path style="fill:#37CBCB; fill-opacity:1.0000; 
stroke:#37CBCB; stroke-width:0.0000; stroke-opacity:1; 
stroke-linecap:round; stroke-linejoin:round;fill-rule:evenodd;"
d="M 6.1927,4.9970
6.1927,4.2470
6.9927,4.2470
6.9927,4.9970
Z" /> 
<path style="fill:#37CBCB; fill-opacity:1.0000; 
stroke:#37CBCB; stroke-width:0.0000; stroke-opacity:1; 
stroke-linecap:round; stroke-linejoin:round;fill-rule:evenodd;"
d="M 7.6927,4.9970
7.6927,4.2470
8.4927,4.2470
8.4927,4.9970
Z" /> 
</g>
<g >
</g>
<g style="fill:#37CBCB; fill-opacity:1.0000; 
stroke:#37CBCB; stroke-width:0.0000; stroke-opacity:1; 
stroke-linecap:round; stroke-linejoin:round;">
<path style="fill:#37CBCB; fill-opacity:1.0000; 
stroke:#37CBCB; stroke-width:0.0000; stroke-opacity:1; 
stroke-linecap:round; stroke-linejoin:round;fill-rule:evenodd;"
d="M 10.0167,2.7230
10.0167,3.4730
9.2167,3.4730
9.2167,2.7230
Z" /> 
<path style="fill:#37CBCB; fill-opacity:1.0000; 
stroke:#37CBCB; stroke-width:0.0000; stroke-opacity:1; 
stroke-linecap:round; stroke-linejoin:round;fill-rule:evenodd;"
d="M 8.5167,2.7230
8.5167,3.4730
7.7167,3.4730
7.7167,2.7230
Z" /> 
</g>
<g >
</g>
<g style="fill:#37CBCB; fill-opacity:1.0000; 
stroke:#37CBCB; stroke-width:0.0000; stroke-opacity:1; 
stroke-linecap:round; stroke-linejoin:round;">
<path style="fill:#37CBCB; fill-opacity:1.0000; 
stroke:#37CBCB; stroke-width:0.0000; stroke-opacity:1; 
stroke-linecap:round; stroke-linejoin:round;fill-rule:evenodd;"
d="M 3.5327,6.8064
3.5327,8.5336
1.5007,8.5336
1.5007,6.8064
Z" /> 
</g>
<g style="fill:#37CBCB; fill-opacity:1.0000; 
stroke:#37CBCB; stroke-width:1.7272; stroke-opacity:1; 
stroke-linecap:round; stroke-linejoin:round;">
</g>
<g style="fill:#37CBCB; fill-opacity:0.0; 
stroke:#37CBCB; stroke-width:1.7272; stroke-opacity:1; 
stroke-linecap:round; stroke-linejoin:round;">
<path d="M2.6691 5.1300
L2.3643 5.1300
" />
<path d="M2.6691 2.5900
L2.3643 2.5900
" />
</g>
<g >
</g>
<g style="fill:#37CBCB; fill-opacity:0.0; 
stroke:#37CBCB; stroke-width:1.7272; stroke-opacity:1; 
stroke-linecap:round; stroke-linejoin:round;">
</g>
<g style="fill:#37CBCB; fill-opacity:0.0; 
stroke:#37CBCB; stroke-width:0.0000; stroke-opacity:1; 
stroke-linecap:round; stroke-linejoin:round;">
</g>
<g style="fill:#37CBCB; fill-opacity:1.0000; 
stroke:#37CBCB; stroke-width:0.0000; stroke-opacity:1; 
stroke-linecap:round; stroke-linejoin:round;">
<path style="fill:#37CBCB; fill-opacity:1.0000; 
stroke:#37CBCB; stroke-width:0.0000; stroke-opacity:1; 
stroke-linecap:round; stroke-linejoin:round;fill-rule:evenodd;"
d="M 6.4791,10.4640
8.2063,10.4640
8.2063,12.4960
6.4791,12.4960
Z" /> 
</g>
<g style="fill:#37CBCB; fill-opacity:1.0000; 
stroke:#37CBCB; stroke-width:1.7272; stroke-opacity:1; 
stroke-linecap:round; stroke-linejoin:round;">
</g>
<g style="fill:#37CBCB; fill-opacity:0.0; 
stroke:#37CBCB; stroke-width:1.7272; stroke-opacity:1; 
stroke-linecap:round; stroke-linejoin:round;">
<path d="M4.8027 11.3276
L4.8027 11.6324
" />
<path d="M2.2627 11.3276
L2.2627 11.6324
" />
</g>
<g >
</g>
<g style="fill:#121212; fill-opacity:0.0; 
stroke:#121212; stroke-width:1.7272; stroke-opacity:1; 
stroke-linecap:round; stroke-linejoin:round;">
</g>
<g style="fill:#121212; fill-opacity:1.0000; 
stroke:#121212; stroke-width:0.0000; stroke-opacity:1; 
stroke-linecap:round; stroke-linejoin:round;">
<circle cx="8.1047" cy="5.5110" r="0.3429" /> 
</g>
<g style="fill:#121212; fill-opacity:1.0000; 
stroke:#121212; stroke-width:0.0212; stroke-opacity:1; 
stroke-linecap:round; stroke-linejoin:round;">
</g>
<g style="fill:#121212; fill-opacity:1.0000; 
stroke:#121212; stroke-width:0.0000; stroke-opacity:1; 
stroke-linecap:round; stroke-linejoin:round;">
<circle cx="6.8982" cy="8.6225" r="0.3429" /> 
</g>
<g style="fill:#121212; fill-opacity:1.0000; 
stroke:#121212; stroke-width:0.0212; stroke-opacity:1; 
stroke-linecap:round; stroke-linejoin:round;">
</g>
<g style="fill:#121212; fill-opacity:1.0000; 
stroke:#121212; stroke-width:0.0000; stroke-opacity:1; 
stroke-linecap:round; stroke-linejoin:round;">
<circle cx="9.3112" cy="8.3050" r="0.3429" /> 
</g>
<g style="fill:#121212; fill-opacity:1.0000; 
stroke:#121212; stroke-width:0.0212; stroke-opacity:1; 
stroke-linecap:round; stroke-linejoin:round;">
</g>
<g style="fill:#121212; fill-opacity:1.0000; 
stroke:#121212; stroke-width:0.0000; stroke-opacity:1; 
stroke-linecap:round; stroke-linejoin:round;">
<circle cx="9.0572" cy="9.3210" r="0.3429" /> 
</g>
<g style="fill:#121212; fill-opacity:1.0000; 
stroke:#121212; stroke-width:0.0212; stroke-opacity:1; 
stroke-linecap:round; stroke-linejoin:round;">
</g>
<g style="fill:#121212; fill-opacity:1.0000; 
stroke:#121212; stroke-width:0.0000; stroke-opacity:1; 
stroke-linecap:round; stroke-linejoin:round;">
<circle cx="10.1367" cy="9.0670" r="0.3429" /> 
</g>
<g style="fill:#121212; fill-opacity:1.0000; 
stroke:#121212; stroke-width:0.0212; stroke-opacity:1; 
stroke-linecap:round; stroke-linejoin:round;">
</g>
<g style="fill:#121212; fill-opacity:1.0000; 
stroke:#121212; stroke-width:0.0000; stroke-opacity:1; 
stroke-linecap:round; stroke-linejoin:round;">
<circle cx="7.9142" cy="9.1305" r="0.3429" /> 
</g>
<g style="fill:#121212; fill-opacity:1.0000; 
stroke:#121212; stroke-width:0.0212; stroke-opacity:1; 
stroke-linecap:round; stroke-linejoin:round;">
</g>
<g style="fill:#121212; fill-opacity:1.0000; 
stroke:#121212; stroke-width:0.0000; stroke-opacity:1; 
stroke-linecap:round; stroke-linejoin:round;">
<circle cx="8.1682" cy="8.1145" r="0.3429" /> 
</g>
<g style="fill:#121212; fill-opacity:1.0000; 
stroke:#121212; stroke-width:0.0212; stroke-opacity:1; 
stroke-linecap:round; stroke-linejoin:round;">
</g>
<g >
</g>
<g style="fill:#37CBCB; fill-opacity:1.0000; 
stroke:#37CBCB; stroke-width:0.0212; stroke-opacity:1; 
stroke-linecap:round; stroke-linejoin:round;">
</g>
<g style="fill:#37CBCB; fill-opacity:1.0000; 
stroke:#37CBCB; stroke-width:0.1524; stroke-opacity:1; 
stroke-linecap:round; stroke-linejoin:round;">
</g>
<g style="fill:#37CBCB; fill-opacity:0.0; 
stroke:#37CBCB; stroke-width:0.1524; stroke-opacity:1; 
stroke-linecap:round; stroke-linejoin:round;">
<path d="M7.8387 5.2450
L8.1047 5.5110
" />
<path d="M8.1682 8.1145
L8.3587 8.3050
" />
<path d="M8.3587 8.3050
L9.3112 8.3050
" />
<path d="M10.1367 9.0670
L9.8827 9.3210
" />
<path d="M9.8827 9.3210
L9.0572 9.3210
" />
<path d="M7.9142 9.1305
L7.4062 8.6225
" />
<path d="M7.4062 8.6225
L6.8982 8.6225
" />
<path d="M7.8387 4.6220
L7.8387 5.2450
" />
</g>
<g style="fill:#37CBCB; fill-opacity:0.0; 
stroke:#37CBCB; stroke-width:0.3048; stroke-opacity:1; 
stroke-linecap:round; stroke-linejoin:round;">
<path d="M2.2627 10.0195
L2.9612 9.3210
" />
<path d="M2.9612 9.3210
L3.3422 9.3210
" />
<path d="M3.3422 9.3210
L4.6122 8.0510
" />
<path d="M4.6122 8.0510
L4.6122 7.2255
" />
<path d="M4.6122 7.2255
L5.3067 6.5310
" />
<path d="M5.3067 6.5310
L7.1547 6.5310
" />
<path d="M2.2627 11.4800
L2.2627 10.0195
" />
<path d="M7.3427 10.3370
L6.1362 9.1305
" />
<path d="M6.1362 9.1305
L6.1362 7.8605
" />
<path d="M6.1362 7.8605
L6.3902 7.6065
" />
<path d="M6.3902 7.6065
L7.0792 7.6065
" />
<path d="M7.0792 7.6065
L7.1547 7.5310
" />
<path d="M7.3427 11.4800
L7.3427 10.3370
" />
<path d="M5.8227 7.0310
L5.2472 7.6065
" />
<path d="M5.2472 7.6065
L5.2472 8.8130
" />
<path d="M5.2472 8.8130
L4.8027 9.2575
" />
<path d="M4.8027 9.2575
L4.8027 11.4800
" />
<path d="M7.1547 7.0310
L5.8227 7.0310
" />
</g>
<g style="fill:#37CBCB; fill-opacity:0.0; 
stroke:#37CBCB; stroke-width:0.6096; stroke-opacity:1; 
stroke-linecap:round; stroke-linejoin:round;">
<path d="M2.5167 5.1300
L5.3107 5.1300
" />
</g>
<g >
</g>
<g style="fill:#37CBCB; fill-opacity:0.0; 
stroke:#37CBCB; stroke-width:0.6096; stroke-opacity:1; 
stroke-linecap:round; stroke-linejoin:round;">
<g >
</g>
<g style="fill:#37CBCB; fill-opacity:1.0000; 
stroke:#37CBCB; stroke-width:0.0000; stroke-opacity:1; 
stroke-linecap:round; stroke-linejoin:round;">
<path style="fill:#37CBCB; fill-opacity:1.0000; 
stroke:#37CBCB; stroke-width:0.0000; stroke-opacity:1; 
stroke-linecap:round; stroke-linejoin:round;fill-rule:evenodd;"
d="M 10.8663,0.5681
10.8920,0.6126
10.8932,0.6257
10.8932,4.1012
10.8817,4.1411
9.6734,6.0744
9.6542,6.1052
9.6137,6.1368
9.5904,6.1405
9.3572,6.1405
9.3426,6.1391
9.3297,6.1365
8.9419,6.1365
8.8935,6.1189
8.8678,6.0744
8.8667,6.0613
8.8667,5.7439
8.8675,5.7329
8.8722,5.7013
8.8722,2.1445
8.8681,2.1241
8.8667,2.1094
8.8667,1.8280
8.5852,1.8280
8.5706,1.8266
8.5502,1.8225
8.5502,1.8225
7.6592,1.8225
7.6388,1.8266
7.6241,1.8280
7.2997,1.8280
7.2867,1.8269
7.2620,1.8225
4.8722,1.8225
4.8722,1.8225
4.8609,1.8230
4.8422,1.8246
4.8309,1.8259
4.8293,1.8262
4.8131,1.8280
4.5487,1.8280
4.5487,2.1194
4.5475,2.1325
4.5432,2.1572
4.5432,3.5253
4.5256,3.5736
4.4810,3.5994
4.4680,3.6005
1.0604,3.6005
1.0120,3.5829
0.9863,3.5384
0.9852,3.5253
0.9852,0.6257
1.0028,0.5774
1.0473,0.5516
1.0604,0.5505
10.8180,0.5505
Z" /> 
</g>
</g>
<g style="fill:#37CBCB; fill-opacity:1.0000; 
stroke:#37CBCB; stroke-width:0.0000; stroke-opacity:1; 
stroke-linecap:round; stroke-linejoin:round;">
<g >
<path style="fill:#37CBCB; fill-opacity:1.0000; 
stroke:#37CBCB; stroke-width:0.0000; stroke-opacity:1; 
stroke-linecap:round; stroke-linejoin:round;fill-rule:evenodd;"
d="M 7.3103,2.0996
7.3360,2.1441
7.3372,2.1572
7.3372,5.7013
7.3419,5.7329
7.3427,5.7439
7.3427,6.0608
7.3251,6.1091
7.2805,6.1348
7.2557,6.1350
7.1867,6.1241
7.1867,6.1241
5.2746,6.1241
5.2731,6.1241
5.2731,6.1241
5.2422,6.1241
5.2422,6.1241
5.2422,6.1241
5.2170,6.1323
5.2055,6.1350
5.1794,6.1392
5.1737,6.1410
5.1734,6.1399
5.1479,6.1460
4.8027,6.1460
4.8027,6.3248
4.7851,6.3731
4.7405,6.3989
4.7275,6.4000
1.0604,6.4000
1.0120,6.3824
0.9863,6.3379
0.9852,6.3248
0.9852,3.9352
1.0028,3.8869
1.0473,3.8611
1.0604,3.8600
4.8027,3.8600
4.8027,2.1572
4.8203,2.1089
4.8648,2.0831
4.8779,2.0820
7.2620,2.0820
Z" /> 
</g>
</g>
<g style="fill:#37CBCB; fill-opacity:1.0000; 
stroke:#37CBCB; stroke-width:0.0000; stroke-opacity:1; 
stroke-linecap:round; stroke-linejoin:round;">
<g >
<path style="fill:#37CBCB; fill-opacity:1.0000; 
stroke:#37CBCB; stroke-width:0.0000; stroke-opacity:1; 
stroke-linecap:round; stroke-linejoin:round;fill-rule:evenodd;"
d="M 8.5944,2.1003
8.6127,2.1445
8.6127,5.7013
8.6021,5.7360
8.5649,5.7917
8.5649,5.7917
8.5502,5.8659
8.5502,6.1961
8.5502,6.1961
8.5646,6.2688
8.5646,6.2932
8.5502,6.3659
8.5502,6.6961
8.5502,6.6961
8.5646,6.7688
8.5646,6.7932
8.5502,6.8659
8.5502,7.1961
8.5502,7.1961
8.5649,7.2703
8.5649,7.2703
8.6021,7.3260
8.6127,7.3607
8.6127,7.4160
8.7257,7.4160
8.7379,7.4172
8.7796,7.4255
9.3297,7.4255
9.3438,7.4227
9.3560,7.4215
9.5989,7.4215
9.6431,7.4398
9.6509,7.4493
9.9251,7.8607
10.6342,8.9243
10.6447,8.9589
10.6447,9.6395
10.6264,9.6837
10.5822,9.7020
7.3090,9.7020
7.2648,9.6837
6.5614,8.9803
6.5431,8.9361
6.5431,8.2405
6.5614,8.1963
6.6056,8.1780
7.5967,8.1780
7.5967,7.8607
7.6072,7.8260
7.6289,7.7935
7.6444,7.7703
7.6592,7.6961
7.6592,7.3659
7.6447,7.2932
7.6447,7.2688
7.6592,7.1961
7.6592,6.8659
7.6447,6.7932
7.6447,6.7688
7.6592,6.6961
7.6592,6.3659
7.6447,6.2932
7.6447,6.2688
7.6592,6.1961
7.6592,5.8659
7.6444,5.7917
7.6444,5.7917
7.6072,5.7360
7.5967,5.7013
7.5967,2.1445
7.6150,2.1003
7.6592,2.0820
8.5502,2.0820
Z" /> 
</g>
</g>
<g style="fill:#37CBCB; fill-opacity:1.0000; 
stroke:#37CBCB; stroke-width:0.0000; stroke-opacity:1; 
stroke-linecap:round; stroke-linejoin:round;">
<g >
<path style="fill:#37CBCB; fill-opacity:1.0000; 
stroke:#37CBCB; stroke-width:0.0000; stroke-opacity:1; 
stroke-linecap:round; stroke-linejoin:round;fill-rule:evenodd;"
d="M 13.9273,0.5681
13.9530,0.6126
13.9542,0.6257
13.9542,6.5788
13.9366,6.6271
13.8920,6.6529
13.8790,6.6540
8.9419,6.6540
8.8935,6.6364
8.8678,6.5919
8.8667,6.5788
8.8667,6.4752
8.8843,6.4269
8.9288,6.4011
8.9419,6.4000
9.8827,6.4000
9.8827,6.4000
11.1527,4.3680
11.1527,0.6257
11.1703,0.5774
11.2148,0.5516
11.2279,0.5505
13.8790,0.5505
Z" /> 
</g>
</g>
<g style="fill:#37CBCB; fill-opacity:1.0000; 
stroke:#37CBCB; stroke-width:0.0000; stroke-opacity:1; 
stroke-linecap:round; stroke-linejoin:round;">
<g >
<path style="fill:#37CBCB; fill-opacity:1.0000; 
stroke:#37CBCB; stroke-width:0.0000; stroke-opacity:1; 
stroke-linecap:round; stroke-linejoin:round;fill-rule:evenodd;"
d="M 13.9273,6.9256
13.9530,6.9701
13.9542,6.9832
13.9542,12.6823
13.9366,12.7306
13.8920,12.7564
13.8790,12.7575
11.2279,12.7575
11.1795,12.7399
11.1538,12.6954
11.1527,12.6823
11.1527,8.9400
11.1527,8.9400
10.0097,7.1620
8.9419,7.1620
8.8935,7.1444
8.8678,7.0999
8.8667,7.0868
8.8667,6.9832
8.8843,6.9349
8.9288,6.9091
8.9419,6.9080
13.8790,6.9080
Z" /> 
</g>
</g>
</g>
<g style="fill:#000000; fill-opacity:1.0000; 
stroke:#000000; stroke-width:0.0000; stroke-opacity:1; 
stroke-linecap:round; stroke-linejoin:round;">
<circle cx="8.1047" cy="5.5110" r="0.1651" /> 
</g>
<g style="fill:#000000; fill-opacity:1.0000; 
stroke:#000000; stroke-width:0.0212; stroke-opacity:1; 
stroke-linecap:round; stroke-linejoin:round;">
</g>
<g style="fill:#000000; fill-opacity:1.0000; 
stroke:#000000; stroke-width:0.0000; stroke-opacity:1; 
stroke-linecap:round; stroke-linejoin:round;">
<circle cx="6.8982" cy="8.6225" r="0.1651" /> 
</g>
<g style="fill:#000000; fill-opacity:1.0000; 
stroke:#000000; stroke-width:0.0212; stroke-opacity:1; 
stroke-linecap:round; stroke-linejoin:round;">
</g>
<g style="fill:#000000; fill-opacity:1.0000; 
stroke:#000000; stroke-width:0.0000; stroke-opacity:1; 
stroke-linecap:round; stroke-linejoin:round;">
<circle cx="9.3112" cy="8.3050" r="0.1651" /> 
</g>
<g style="fill:#000000; fill-opacity:1.0000; 
stroke:#000000; stroke-width:0.0212; stroke-opacity:1; 
stroke-linecap:round; stroke-linejoin:round;">
</g>
<g style="fill:#000000; fill-opacity:1.0000; 
stroke:#000000; stroke-width:0.0000; stroke-opacity:1; 
stroke-linecap:round; stroke-linejoin:round;">
<circle cx="9.0572" cy="9.3210" r="0.1651" /> 
</g>
<g style="fill:#000000; fill-opacity:1.0000; 
stroke:#000000; stroke-width:0.0212; stroke-opacity:1; 
stroke-linecap:round; stroke-linejoin:round;">
</g>
<g style="fill:#000000; fill-opacity:1.0000; 
stroke:#000000; stroke-width:0.0000; stroke-opacity:1; 
stroke-linecap:round; stroke-linejoin:round;">
<circle cx="10.1367" cy="9.0670" r="0.1651" /> 
</g>
<g style="fill:#000000; fill-opacity:1.0000; 
stroke:#000000; stroke-width:0.0212; stroke-opacity:1; 
stroke-linecap:round; stroke-linejoin:round;">
</g>
<g style="fill:#000000; fill-opacity:1.0000; 
stroke:#000000; stroke-width:0.0000; stroke-opacity:1; 
stroke-linecap:round; stroke-linejoin:round;">
<circle cx="7.9142" cy="9.1305" r="0.1651" /> 
</g>
<g style="fill:#000000; fill-opacity:1.0000; 
stroke:#000000; stroke-width:0.0212; stroke-opacity:1; 
stroke-linecap:round; stroke-linejoin:round;">
</g>
<g style="fill:#000000; fill-opacity:1.0000; 
stroke:#000000; stroke-width:0.0000; stroke-opacity:1; 
stroke-linecap:round; stroke-linejoin:round;">
<circle cx="8.1682" cy="8.1145" r="0.1651" /> 
</g>
<g style="fill:#000000; fill-opacity:1.0000; 
stroke:#000000; stroke-width:0.0212; stroke-opacity:1; 
stroke-linecap:round; stroke-linejoin:round;">
</g>
<g style="fill:#000000; fill-opacity:1.0000; 
stroke:#000000; stroke-width:0.0000; stroke-opacity:1; 
stroke-linecap:round; stroke-linejoin:round;">
<circle cx="12.6767" cy="5.6380" r="0.5080" /> 
</g>
<g style="fill:#000000; fill-opacity:1.0000; 
stroke:#000000; stroke-width:0.0212; stroke-opacity:1; 
stroke-linecap:round; stroke-linejoin:round;">
</g>
<g style="fill:#000000; fill-opacity:1.0000; 
stroke:#000000; stroke-width:0.0000; stroke-opacity:1; 
stroke-linecap:round; stroke-linejoin:round;">
<circle cx="12.6767" cy="8.1780" r="0.5080" /> 
</g>
<g style="fill:#000000; fill-opacity:1.0000; 
stroke:#000000; stroke-width:0.0212; stroke-opacity:1; 
stroke-linecap:round; stroke-linejoin:round;">
</g>
<g style="fill:#000000; fill-opacity:1.0000; 
stroke:#000000; stroke-width:0.0000; stroke-opacity:1; 
stroke-linecap:round; stroke-linejoin:round;">
<circle cx="2.5167" cy="7.6700" r="0.5080" /> 
</g>
<g style="fill:#000000; fill-opacity:1.0000; 
stroke:#000000; stroke-width:0.0212; stroke-opacity:1; 
stroke-linecap:round; stroke-linejoin:round;">
</g>
<g style="fill:#000000; fill-opacity:1.0000; 
stroke:#000000; stroke-width:0.0000; stroke-opacity:1; 
stroke-linecap:round; stroke-linejoin:round;">
<circle cx="2.5167" cy="5.1300" r="0.5080" /> 
</g>
<g style="fill:#000000; fill-opacity:1.0000; 
stroke:#000000; stroke-width:0.0212; stroke-opacity:1; 
stroke-linecap:round; stroke-linejoin:round;">
</g>
<g style="fill:#000000; fill-opacity:1.0000; 
stroke:#000000; stroke-width:0.0000; stroke-opacity:1; 
stroke-linecap:round; stroke-linejoin:round;">
<circle cx="2.5167" cy="2.5900" r="0.5080" /> 
</g>
<g style="fill:#000000; fill-opacity:1.0000; 
stroke:#000000; stroke-width:0.0212; stroke-opacity:1; 
stroke-linecap:round; stroke-linejoin:round;">
</g>
<g style="fill:#000000; fill-opacity:1.0000; 
stroke:#000000; stroke-width:0.0000; stroke-opacity:1; 
stroke-linecap:round; stroke-linejoin:round;">
<circle cx="7.3427" cy="11.4800" r="0.5080" /> 
</g>
<g style="fill:#000000; fill-opacity:1.0000; 
stroke:#000000; stroke-width:0.0212; stroke-opacity:1; 
stroke-linecap:round; stroke-linejoin:round;">
</g>
<g style="fill:#000000; fill-opacity:1.0000; 
stroke:#000000; stroke-width:0.0000; stroke-opacity:1; 
stroke-linecap:round; stroke-linejoin:round;">
<circle cx="4.8027" cy="11.4800" r="0.5080" /> 
</g>
<g style="fill:#000000; fill-opacity:1.0000; 
stroke:#000000; stroke-width:0.0212; stroke-opacity:1; 
stroke-linecap:round; stroke-linejoin:round;">
</g>
<g style="fill:#000000; fill-opacity:1.0000; 
stroke:#000000; stroke-width:0.0000; stroke-opacity:1; 
stroke-linecap:round; stroke-linejoin:round;">
<circle cx="2.2627" cy="11.4800" r="0.5080" /> 
</g>
<g style="fill:#000000; fill-opacity:1.0000; 
stroke:#000000; stroke-width:0.0212; stroke-opacity:1; 
stroke-linecap:round; stroke-linejoin:round;">
</g>
<g style="fill:#FFFFFF; fill-opacity:1.0000; 
stroke:#FFFFFF; stroke-width:0.0212; stroke-opacity:1; 
stroke-linecap:round; stroke-linejoin:round;">
<g >
</g>
<g >
</g>
<g >
</g>
<g >
</g>
<g >
</g>
<g >
</g>
<g >
</g>
<g >
</g>
<g >
</g>
</g>
<g style="fill:#FFFFFF; fill-opacity:1.0000; 
stroke:#FFFFFF; stroke-width:0.0212; stroke-opacity:1; 
stroke-linecap:round; stroke-linejoin:round;">
</g>
<g style="fill:#2F2D31; fill-opacity:1.0000; 
stroke:#2F2D31; stroke-width:0.0212; stroke-opacity:1; 
stroke-linecap:round; stroke-linejoin:round;">
</g>
<g style="fill:#2F2D31; fill-opacity:1.0000; 
stroke:#2F2D31; stroke-width:0.1000; stroke-opacity:1; 
stroke-linecap:round; stroke-linejoin:round;">
</g>
<g style="fill:#2F2D31; fill-opacity:0.0; 
stroke:#2F2D31; stroke-width:0.1000; stroke-opacity:1; 
stroke-linecap:round; stroke-linejoin:round;">
<path d="M14.4547 13.2580
L0.4847 13.2580
" />
<path d="M0.5482 0.0500
L14.4547 0.0500
" />
<path d="M14.4547 0.1135
L14.4547 13.2580
" />
<path d="M14.4547 0.0500
L14.4547 0.1135
" />
<path d="M0.4847 13.2580
L0.4847 0.0500
" />
<g >
</g>
<g >
</g>
<g >
</g>
<g >
</g>
<g >
</g>
<g >
</g>
<g >
</g>
<g >
</g>
<g >
</g>
</g> 
</svg>
