<?xml version="1.0" standalone="no"?>
 <!DOCTYPE svg PUBLIC "-//W3C//DTD SVG 1.1//EN" 
 "http://www.w3.org/Graphics/SVG/1.1/DTD/svg11.dtd"> 
<svg
  xmlns:svg="http://www.w3.org/2000/svg"
  xmlns="http://www.w3.org/2000/svg"
  xmlns:xlink="http://www.w3.org/1999/xlink"
  version="1.1"
  width="15.1892mm" height="13.9954mm" viewBox="0.0000 0.0000 15.1892 13.9954">
<title>SVG Image created as working-brd.svg date 2023/09/19 16:55:37 </title>
  <desc>Image generated by PCBNEW </desc>
<g style="fill:#000000; fill-opacity:1.0000;stroke:#000000; stroke-opacity:1.0000;
stroke-linecap:round; stroke-linejoin:round;"
 transform="translate(0 0) scale(1 1)">
</g>
<g style="fill:#000000; fill-opacity:0.0; 
stroke:#000000; stroke-width:0.0000; stroke-opacity:1; 
stroke-linecap:round; stroke-linejoin:round;">
</g>
<g style="fill:#000000; fill-opacity:1.0000; 
stroke:#000000; stroke-width:0.0212; stroke-opacity:1; 
stroke-linecap:round; stroke-linejoin:round;">
<rect x="-5.000000" y="-5.000000" width="25.193332" height="23.996666" rx="0.000000" />
</g>
<g style="fill:#FFFFFF; fill-opacity:1.0000; 
stroke:#FFFFFF; stroke-width:0.0212; stroke-opacity:1; 
stroke-linecap:round; stroke-linejoin:round;">
<g >
</g>
<g style="fill:#B2803A; fill-opacity:1.0000; 
stroke:#B2803A; stroke-width:0.0212; stroke-opacity:1; 
stroke-linecap:round; stroke-linejoin:round;">
</g>
<g style="fill:#B2803A; fill-opacity:1.0000; 
stroke:#B2803A; stroke-width:0.0000; stroke-opacity:1; 
stroke-linecap:round; stroke-linejoin:round;">
<path style="fill:#B2803A; fill-opacity:1.0000; 
stroke:#B2803A; stroke-width:0.0000; stroke-opacity:1; 
stroke-linecap:round; stroke-linejoin:round;fill-rule:evenodd;"
d="M 11.6607,6.6540
11.6607,4.6220
13.6927,4.6220
13.6927,6.6540
Z" /> 
<circle cx="12.6767" cy="8.1780" r="1.0160" /> 
</g>
<g >
</g>
<g >
</g>
<g >
</g>
<g >
</g>
<g style="fill:#B2803A; fill-opacity:1.0000; 
stroke:#B2803A; stroke-width:0.0000; stroke-opacity:1; 
stroke-linecap:round; stroke-linejoin:round;">
<path style="fill:#B2803A; fill-opacity:1.0000; 
stroke:#B2803A; stroke-width:0.0000; stroke-opacity:1; 
stroke-linecap:round; stroke-linejoin:round;fill-rule:evenodd;"
d="M 3.5327,6.8064
3.5327,8.5336
1.5007,8.5336
1.5007,6.8064
Z" /> 
</g>
<g style="fill:#B2803A; fill-opacity:1.0000; 
stroke:#B2803A; stroke-width:1.7272; stroke-opacity:1; 
stroke-linecap:round; stroke-linejoin:round;">
</g>
<g style="fill:#B2803A; fill-opacity:0.0; 
stroke:#B2803A; stroke-width:1.7272; stroke-opacity:1; 
stroke-linecap:round; stroke-linejoin:round;">
<path d="M2.6691 5.1300
L2.3643 5.1300
" />
<path d="M2.6691 2.5900
L2.3643 2.5900
" />
</g>
<g >
</g>
<g style="fill:#B2803A; fill-opacity:0.0; 
stroke:#B2803A; stroke-width:1.7272; stroke-opacity:1; 
stroke-linecap:round; stroke-linejoin:round;">
</g>
<g style="fill:#B2803A; fill-opacity:0.0; 
stroke:#B2803A; stroke-width:0.0000; stroke-opacity:1; 
stroke-linecap:round; stroke-linejoin:round;">
</g>
<g style="fill:#B2803A; fill-opacity:1.0000; 
stroke:#B2803A; stroke-width:0.0000; stroke-opacity:1; 
stroke-linecap:round; stroke-linejoin:round;">
<path style="fill:#B2803A; fill-opacity:1.0000; 
stroke:#B2803A; stroke-width:0.0000; stroke-opacity:1; 
stroke-linecap:round; stroke-linejoin:round;fill-rule:evenodd;"
d="M 6.4791,10.4640
8.2063,10.4640
8.2063,12.4960
6.4791,12.4960
Z" /> 
</g>
<g style="fill:#B2803A; fill-opacity:1.0000; 
stroke:#B2803A; stroke-width:1.7272; stroke-opacity:1; 
stroke-linecap:round; stroke-linejoin:round;">
</g>
<g style="fill:#B2803A; fill-opacity:0.0; 
stroke:#B2803A; stroke-width:1.7272; stroke-opacity:1; 
stroke-linecap:round; stroke-linejoin:round;">
<path d="M4.8027 11.3276
L4.8027 11.6324
" />
<path d="M2.2627 11.3276
L2.2627 11.6324
" />
</g>
<g >
</g>
<g style="fill:#121212; fill-opacity:0.0; 
stroke:#121212; stroke-width:1.7272; stroke-opacity:1; 
stroke-linecap:round; stroke-linejoin:round;">
</g>
<g style="fill:#121212; fill-opacity:1.0000; 
stroke:#121212; stroke-width:0.0000; stroke-opacity:1; 
stroke-linecap:round; stroke-linejoin:round;">
<circle cx="8.1047" cy="5.5110" r="0.3429" /> 
</g>
<g style="fill:#121212; fill-opacity:1.0000; 
stroke:#121212; stroke-width:0.0212; stroke-opacity:1; 
stroke-linecap:round; stroke-linejoin:round;">
</g>
<g style="fill:#121212; fill-opacity:1.0000; 
stroke:#121212; stroke-width:0.0000; stroke-opacity:1; 
stroke-linecap:round; stroke-linejoin:round;">
<circle cx="6.8982" cy="8.6225" r="0.3429" /> 
</g>
<g style="fill:#121212; fill-opacity:1.0000; 
stroke:#121212; stroke-width:0.0212; stroke-opacity:1; 
stroke-linecap:round; stroke-linejoin:round;">
</g>
<g style="fill:#121212; fill-opacity:1.0000; 
stroke:#121212; stroke-width:0.0000; stroke-opacity:1; 
stroke-linecap:round; stroke-linejoin:round;">
<circle cx="9.3112" cy="8.3050" r="0.3429" /> 
</g>
<g style="fill:#121212; fill-opacity:1.0000; 
stroke:#121212; stroke-width:0.0212; stroke-opacity:1; 
stroke-linecap:round; stroke-linejoin:round;">
</g>
<g style="fill:#121212; fill-opacity:1.0000; 
stroke:#121212; stroke-width:0.0000; stroke-opacity:1; 
stroke-linecap:round; stroke-linejoin:round;">
<circle cx="9.0572" cy="9.3210" r="0.3429" /> 
</g>
<g style="fill:#121212; fill-opacity:1.0000; 
stroke:#121212; stroke-width:0.0212; stroke-opacity:1; 
stroke-linecap:round; stroke-linejoin:round;">
</g>
<g style="fill:#121212; fill-opacity:1.0000; 
stroke:#121212; stroke-width:0.0000; stroke-opacity:1; 
stroke-linecap:round; stroke-linejoin:round;">
<circle cx="10.1367" cy="9.0670" r="0.3429" /> 
</g>
<g style="fill:#121212; fill-opacity:1.0000; 
stroke:#121212; stroke-width:0.0212; stroke-opacity:1; 
stroke-linecap:round; stroke-linejoin:round;">
</g>
<g style="fill:#121212; fill-opacity:1.0000; 
stroke:#121212; stroke-width:0.0000; stroke-opacity:1; 
stroke-linecap:round; stroke-linejoin:round;">
<circle cx="7.9142" cy="9.1305" r="0.3429" /> 
</g>
<g style="fill:#121212; fill-opacity:1.0000; 
stroke:#121212; stroke-width:0.0212; stroke-opacity:1; 
stroke-linecap:round; stroke-linejoin:round;">
</g>
<g style="fill:#121212; fill-opacity:1.0000; 
stroke:#121212; stroke-width:0.0000; stroke-opacity:1; 
stroke-linecap:round; stroke-linejoin:round;">
<circle cx="8.1682" cy="8.1145" r="0.3429" /> 
</g>
<g style="fill:#121212; fill-opacity:1.0000; 
stroke:#121212; stroke-width:0.0212; stroke-opacity:1; 
stroke-linecap:round; stroke-linejoin:round;">
</g>
<g >
</g>
<g style="fill:#B2803A; fill-opacity:1.0000; 
stroke:#B2803A; stroke-width:0.0212; stroke-opacity:1; 
stroke-linecap:round; stroke-linejoin:round;">
</g>
<g style="fill:#B2803A; fill-opacity:1.0000; 
stroke:#B2803A; stroke-width:0.1524; stroke-opacity:1; 
stroke-linecap:round; stroke-linejoin:round;">
</g>
<g style="fill:#B2803A; fill-opacity:0.0; 
stroke:#B2803A; stroke-width:0.1524; stroke-opacity:1; 
stroke-linecap:round; stroke-linejoin:round;">
<path d="M8.1047 5.5110
L8.1682 5.5745
" />
<path d="M8.1682 5.5745
L8.1682 8.1145
" />
<path d="M9.3112 8.3050
L10.0732 9.0670
" />
<path d="M10.0732 9.0670
L10.1367 9.0670
" />
<path d="M9.0572 9.3210
L8.8667 9.1305
" />
<path d="M8.8667 9.1305
L7.9142 9.1305
" />
</g>
<g >
</g>
<g style="fill:#B2803A; fill-opacity:0.0; 
stroke:#B2803A; stroke-width:0.1524; stroke-opacity:1; 
stroke-linecap:round; stroke-linejoin:round;">
<g >
</g>
<g style="fill:#B2803A; fill-opacity:1.0000; 
stroke:#B2803A; stroke-width:0.0000; stroke-opacity:1; 
stroke-linecap:round; stroke-linejoin:round;">
<path style="fill:#B2803A; fill-opacity:1.0000; 
stroke:#B2803A; stroke-width:0.0000; stroke-opacity:1; 
stroke-linecap:round; stroke-linejoin:round;fill-rule:evenodd;"
d="M 14.3773,0.1311
14.4030,0.1756
14.4042,0.1887
14.4042,13.0552
14.3866,13.1036
14.3420,13.1293
14.3286,13.1304
0.6869,13.0678
0.6386,13.0500
0.6131,13.0054
0.6120,12.9923
0.6185,11.6823
1.2462,11.6823
1.2609,11.8317
1.3190,12.0233
1.4134,12.1999
1.4134,12.1999
1.5404,12.3547
1.6952,12.4817
1.6952,12.4817
1.6952,12.4817
1.8336,12.5557
1.8718,12.5761
2.0634,12.6342
2.2627,12.6538
2.4619,12.6342
2.6535,12.5761
2.8301,12.4817
2.9849,12.3547
3.1119,12.1999
3.2063,12.0233
3.2645,11.8317
3.2792,11.6823
3.7862,11.6823
3.8009,11.8317
3.8590,12.0233
3.9534,12.1999
3.9534,12.1999
4.0804,12.3547
4.2352,12.4817
4.2352,12.4817
4.2352,12.4817
4.3736,12.5557
4.4118,12.5761
4.6034,12.6342
4.8027,12.6538
5.0019,12.6342
5.1935,12.5761
5.3152,12.5111
6.3262,12.5111
6.3262,12.5111
6.3350,12.5557
6.3688,12.6062
6.3688,12.6062
6.3688,12.6062
6.4194,12.6400
6.4640,12.6489
8.2213,12.6489
8.2659,12.6400
8.3165,12.6062
8.3503,12.5557
8.3592,12.5111
8.3592,10.4489
8.3503,10.4043
8.3367,10.3839
8.3165,10.3538
8.3165,10.3538
8.2659,10.3200
8.2659,10.3200
8.2213,10.3111
6.4640,10.3111
6.4640,10.3111
6.4194,10.3200
6.3688,10.3538
6.3350,10.4043
6.3350,10.4043
6.3262,10.4489
6.3262,12.5111
5.3152,12.5111
5.3701,12.4817
5.5249,12.3547
5.6519,12.1999
5.7463,12.0233
5.8045,11.8317
5.8192,11.6823
5.8192,11.2777
5.8045,11.1283
5.7463,10.9367
5.6519,10.7601
5.5249,10.6053
5.3701,10.4783
5.3701,10.4783
5.1936,10.3839
5.1935,10.3839
5.1935,10.3839
5.0019,10.3258
5.0019,10.3258
5.0019,10.3258
4.8244,10.3083
4.8027,10.3062
4.8027,10.3062
4.6034,10.3258
4.6034,10.3258
4.6034,10.3258
4.4118,10.3839
4.4118,10.3839
4.4118,10.3839
4.2352,10.4783
4.2352,10.4783
4.0804,10.6053
3.9534,10.7601
3.9534,10.7601
3.8590,10.9367
3.8009,11.1283
3.7862,11.2777
3.7862,11.6823
3.2792,11.6823
3.2792,11.6823
3.2792,11.2777
3.2645,11.1283
3.2063,10.9367
3.1119,10.7601
2.9849,10.6053
2.8301,10.4783
2.8301,10.4783
2.6536,10.3839
2.6535,10.3839
2.6535,10.3839
2.4619,10.3258
2.4619,10.3258
2.4619,10.3258
2.2844,10.3083
2.2627,10.3062
2.2627,10.3062
2.0634,10.3258
2.0634,10.3258
2.0634,10.3258
1.8718,10.3839
1.8718,10.3839
1.8718,10.3839
1.6952,10.4783
1.6952,10.4783
1.5404,10.6053
1.4134,10.7601
1.4134,10.7601
1.3190,10.9367
1.2609,11.1283
1.2462,11.2777
1.2462,11.6823
0.6185,11.6823
0.6356,8.1780
11.5028,8.1780
11.5227,8.3937
11.5227,8.3937
11.5820,8.6021
11.5820,8.6021
11.6786,8.7960
11.8091,8.9689
11.8091,8.9689
11.9692,9.1148
11.9692,9.1148
11.9692,9.1148
12.1534,9.2288
12.3554,9.3071
12.5684,9.3469
12.5684,9.3469
12.7850,9.3469
12.7850,9.3469
12.9979,9.3071
13.1999,9.2288
13.3841,9.1148
13.5442,8.9689
13.6747,8.7960
13.7713,8.6021
13.8306,8.3937
13.8506,8.1780
13.8306,7.9623
13.8306,7.9623
13.8306,7.9623
13.7713,7.7539
13.7713,7.7539
13.7683,7.7478
13.6747,7.5600
13.5442,7.3871
13.5442,7.3871
13.3841,7.2412
13.1999,7.1272
13.1999,7.1272
13.1999,7.1272
12.9979,7.0489
12.9979,7.0489
12.9371,7.0375
12.7850,7.0091
12.5684,7.0091
12.4264,7.0356
12.3554,7.0489
12.1534,7.1272
11.9692,7.2412
11.8091,7.3871
11.8091,7.3871
11.6786,7.5600
11.5820,7.7539
11.5820,7.7539
11.5227,7.9623
11.5227,7.9623
11.5028,8.1780
11.5028,8.1780
0.6356,8.1780
0.6430,6.6691
11.5078,6.6691
11.5078,6.6691
11.5166,6.7137
11.5504,6.7642
11.5504,6.7642
11.5504,6.7642
11.6010,6.7980
11.6456,6.8069
13.7077,6.8069
13.7523,6.7980
13.8029,6.7642
13.8367,6.7137
13.8456,6.6691
13.8456,4.6069
13.8367,4.5623
13.8029,4.5118
13.7523,4.4780
13.7523,4.4780
13.7077,4.4691
11.6456,4.4691
11.6456,4.4691
11.6010,4.4780
11.5504,4.5118
11.5166,4.5623
11.5166,4.5623
11.5078,4.6069
11.5078,6.6691
0.6430,6.6691
0.6506,5.1300
1.3428,5.1300
1.3625,5.3293
1.4206,5.5209
1.5150,5.6975
1.5150,5.6975
1.6420,5.8523
1.7968,5.9793
1.9734,6.0737
2.1650,6.1318
2.3143,6.1465
2.3143,6.1465
2.7190,6.1465
2.7190,6.1465
2.8683,6.1318
3.0599,6.0737
3.2365,5.9793
3.3913,5.8523
3.5183,5.6975
3.6127,5.5209
3.6709,5.3293
3.6905,5.1300
3.6709,4.9307
3.6127,4.7391
3.5183,4.5625
3.3913,4.4077
3.2365,4.2807
3.2365,4.2807
3.0600,4.1863
3.0599,4.1863
3.0599,4.1863
2.8683,4.1282
2.8683,4.1282
2.8683,4.1282
2.7190,4.1135
2.7190,4.1135
2.3143,4.1135
2.3143,4.1135
2.1650,4.1282
2.1650,4.1282
2.1650,4.1282
1.9734,4.1863
1.9734,4.1863
1.9734,4.1863
1.7968,4.2807
1.7968,4.2807
1.6420,4.4077
1.5150,4.5625
1.5150,4.5625
1.4206,4.7391
1.3625,4.9307
1.3428,5.1300
0.6506,5.1300
0.6630,2.5900
1.3428,2.5900
1.3625,2.7893
1.4206,2.9809
1.5150,3.1575
1.5150,3.1575
1.6420,3.3123
1.7968,3.4393
1.9734,3.5337
2.1650,3.5918
2.3143,3.6065
2.3143,3.6065
2.7190,3.6065
2.7190,3.6065
2.8683,3.5918
3.0599,3.5337
3.2365,3.4393
3.3913,3.3123
3.5183,3.1575
3.6127,2.9809
3.6709,2.7893
3.6905,2.5900
3.6709,2.3907
3.6127,2.1991
3.5183,2.0225
3.3913,1.8677
3.2365,1.7407
3.2365,1.7407
3.0600,1.6463
3.0599,1.6463
3.0599,1.6463
2.8683,1.5882
2.8683,1.5882
2.8683,1.5882
2.7190,1.5735
2.7190,1.5735
2.3143,1.5735
2.3143,1.5735
2.1650,1.5882
2.1650,1.5882
2.1650,1.5882
1.9734,1.6463
1.9734,1.6463
1.9734,1.6463
1.7968,1.7407
1.7968,1.7407
1.6420,1.8677
1.5150,2.0225
1.5150,2.0225
1.4206,2.1991
1.3625,2.3907
1.3428,2.5900
0.6630,2.5900
0.6748,0.1883
0.6926,0.1401
0.7373,0.1146
0.7500,0.1135
14.3290,0.1135
Z" /> 
</g>
</g>
</g>
<g style="fill:#000000; fill-opacity:1.0000; 
stroke:#000000; stroke-width:0.0000; stroke-opacity:1; 
stroke-linecap:round; stroke-linejoin:round;">
<circle cx="8.1047" cy="5.5110" r="0.1651" /> 
</g>
<g style="fill:#000000; fill-opacity:1.0000; 
stroke:#000000; stroke-width:0.0212; stroke-opacity:1; 
stroke-linecap:round; stroke-linejoin:round;">
</g>
<g style="fill:#000000; fill-opacity:1.0000; 
stroke:#000000; stroke-width:0.0000; stroke-opacity:1; 
stroke-linecap:round; stroke-linejoin:round;">
<circle cx="6.8982" cy="8.6225" r="0.1651" /> 
</g>
<g style="fill:#000000; fill-opacity:1.0000; 
stroke:#000000; stroke-width:0.0212; stroke-opacity:1; 
stroke-linecap:round; stroke-linejoin:round;">
</g>
<g style="fill:#000000; fill-opacity:1.0000; 
stroke:#000000; stroke-width:0.0000; stroke-opacity:1; 
stroke-linecap:round; stroke-linejoin:round;">
<circle cx="9.3112" cy="8.3050" r="0.1651" /> 
</g>
<g style="fill:#000000; fill-opacity:1.0000; 
stroke:#000000; stroke-width:0.0212; stroke-opacity:1; 
stroke-linecap:round; stroke-linejoin:round;">
</g>
<g style="fill:#000000; fill-opacity:1.0000; 
stroke:#000000; stroke-width:0.0000; stroke-opacity:1; 
stroke-linecap:round; stroke-linejoin:round;">
<circle cx="9.0572" cy="9.3210" r="0.1651" /> 
</g>
<g style="fill:#000000; fill-opacity:1.0000; 
stroke:#000000; stroke-width:0.0212; stroke-opacity:1; 
stroke-linecap:round; stroke-linejoin:round;">
</g>
<g style="fill:#000000; fill-opacity:1.0000; 
stroke:#000000; stroke-width:0.0000; stroke-opacity:1; 
stroke-linecap:round; stroke-linejoin:round;">
<circle cx="10.1367" cy="9.0670" r="0.1651" /> 
</g>
<g style="fill:#000000; fill-opacity:1.0000; 
stroke:#000000; stroke-width:0.0212; stroke-opacity:1; 
stroke-linecap:round; stroke-linejoin:round;">
</g>
<g style="fill:#000000; fill-opacity:1.0000; 
stroke:#000000; stroke-width:0.0000; stroke-opacity:1; 
stroke-linecap:round; stroke-linejoin:round;">
<circle cx="7.9142" cy="9.1305" r="0.1651" /> 
</g>
<g style="fill:#000000; fill-opacity:1.0000; 
stroke:#000000; stroke-width:0.0212; stroke-opacity:1; 
stroke-linecap:round; stroke-linejoin:round;">
</g>
<g style="fill:#000000; fill-opacity:1.0000; 
stroke:#000000; stroke-width:0.0000; stroke-opacity:1; 
stroke-linecap:round; stroke-linejoin:round;">
<circle cx="8.1682" cy="8.1145" r="0.1651" /> 
</g>
<g style="fill:#000000; fill-opacity:1.0000; 
stroke:#000000; stroke-width:0.0212; stroke-opacity:1; 
stroke-linecap:round; stroke-linejoin:round;">
</g>
<g style="fill:#000000; fill-opacity:1.0000; 
stroke:#000000; stroke-width:0.0000; stroke-opacity:1; 
stroke-linecap:round; stroke-linejoin:round;">
<circle cx="12.6767" cy="5.6380" r="0.5080" /> 
</g>
<g style="fill:#000000; fill-opacity:1.0000; 
stroke:#000000; stroke-width:0.0212; stroke-opacity:1; 
stroke-linecap:round; stroke-linejoin:round;">
</g>
<g style="fill:#000000; fill-opacity:1.0000; 
stroke:#000000; stroke-width:0.0000; stroke-opacity:1; 
stroke-linecap:round; stroke-linejoin:round;">
<circle cx="12.6767" cy="8.1780" r="0.5080" /> 
</g>
<g style="fill:#000000; fill-opacity:1.0000; 
stroke:#000000; stroke-width:0.0212; stroke-opacity:1; 
stroke-linecap:round; stroke-linejoin:round;">
</g>
<g style="fill:#000000; fill-opacity:1.0000; 
stroke:#000000; stroke-width:0.0000; stroke-opacity:1; 
stroke-linecap:round; stroke-linejoin:round;">
<circle cx="2.5167" cy="7.6700" r="0.5080" /> 
</g>
<g style="fill:#000000; fill-opacity:1.0000; 
stroke:#000000; stroke-width:0.0212; stroke-opacity:1; 
stroke-linecap:round; stroke-linejoin:round;">
</g>
<g style="fill:#000000; fill-opacity:1.0000; 
stroke:#000000; stroke-width:0.0000; stroke-opacity:1; 
stroke-linecap:round; stroke-linejoin:round;">
<circle cx="2.5167" cy="5.1300" r="0.5080" /> 
</g>
<g style="fill:#000000; fill-opacity:1.0000; 
stroke:#000000; stroke-width:0.0212; stroke-opacity:1; 
stroke-linecap:round; stroke-linejoin:round;">
</g>
<g style="fill:#000000; fill-opacity:1.0000; 
stroke:#000000; stroke-width:0.0000; stroke-opacity:1; 
stroke-linecap:round; stroke-linejoin:round;">
<circle cx="2.5167" cy="2.5900" r="0.5080" /> 
</g>
<g style="fill:#000000; fill-opacity:1.0000; 
stroke:#000000; stroke-width:0.0212; stroke-opacity:1; 
stroke-linecap:round; stroke-linejoin:round;">
</g>
<g style="fill:#000000; fill-opacity:1.0000; 
stroke:#000000; stroke-width:0.0000; stroke-opacity:1; 
stroke-linecap:round; stroke-linejoin:round;">
<circle cx="7.3427" cy="11.4800" r="0.5080" /> 
</g>
<g style="fill:#000000; fill-opacity:1.0000; 
stroke:#000000; stroke-width:0.0212; stroke-opacity:1; 
stroke-linecap:round; stroke-linejoin:round;">
</g>
<g style="fill:#000000; fill-opacity:1.0000; 
stroke:#000000; stroke-width:0.0000; stroke-opacity:1; 
stroke-linecap:round; stroke-linejoin:round;">
<circle cx="4.8027" cy="11.4800" r="0.5080" /> 
</g>
<g style="fill:#000000; fill-opacity:1.0000; 
stroke:#000000; stroke-width:0.0212; stroke-opacity:1; 
stroke-linecap:round; stroke-linejoin:round;">
</g>
<g style="fill:#000000; fill-opacity:1.0000; 
stroke:#000000; stroke-width:0.0000; stroke-opacity:1; 
stroke-linecap:round; stroke-linejoin:round;">
<circle cx="2.2627" cy="11.4800" r="0.5080" /> 
</g>
<g style="fill:#000000; fill-opacity:1.0000; 
stroke:#000000; stroke-width:0.0212; stroke-opacity:1; 
stroke-linecap:round; stroke-linejoin:round;">
</g>
<g style="fill:#FFFFFF; fill-opacity:1.0000; 
stroke:#FFFFFF; stroke-width:0.0212; stroke-opacity:1; 
stroke-linecap:round; stroke-linejoin:round;">
<g >
</g>
<g style="fill:#37CBCB; fill-opacity:1.0000; 
stroke:#37CBCB; stroke-width:0.0212; stroke-opacity:1; 
stroke-linecap:round; stroke-linejoin:round;">
</g>
<g style="fill:#37CBCB; fill-opacity:1.0000; 
stroke:#37CBCB; stroke-width:0.0000; stroke-opacity:1; 
stroke-linecap:round; stroke-linejoin:round;">
<path style="fill:#37CBCB; fill-opacity:1.0000; 
stroke:#37CBCB; stroke-width:0.0000; stroke-opacity:1; 
stroke-linecap:round; stroke-linejoin:round;fill-rule:evenodd;"
d="M 11.6607,6.6540
11.6607,4.6220
13.6927,4.6220
13.6927,6.6540
Z" /> 
<circle cx="12.6767" cy="8.1780" r="1.0160" /> 
</g>
<g >
</g>
<g style="fill:#37CBCB; fill-opacity:1.0000; 
stroke:#37CBCB; stroke-width:0.0000; stroke-opacity:1; 
stroke-linecap:round; stroke-linejoin:round;">
<path style="fill:#37CBCB; fill-opacity:1.0000; 
stroke:#37CBCB; stroke-width:0.0000; stroke-opacity:1; 
stroke-linecap:round; stroke-linejoin:round;fill-rule:evenodd;"
d="M 8.8047,5.8910
9.3047,5.8910
9.3047,6.1710
8.8047,6.1710
Z" /> 
<path style="fill:#37CBCB; fill-opacity:1.0000; 
stroke:#37CBCB; stroke-width:0.0000; stroke-opacity:1; 
stroke-linecap:round; stroke-linejoin:round;fill-rule:evenodd;"
d="M 8.8047,6.3910
9.3047,6.3910
9.3047,6.6710
8.8047,6.6710
Z" /> 
<path style="fill:#37CBCB; fill-opacity:1.0000; 
stroke:#37CBCB; stroke-width:0.0000; stroke-opacity:1; 
stroke-linecap:round; stroke-linejoin:round;fill-rule:evenodd;"
d="M 8.8047,6.8910
9.3047,6.8910
9.3047,7.1710
8.8047,7.1710
Z" /> 
<path style="fill:#37CBCB; fill-opacity:1.0000; 
stroke:#37CBCB; stroke-width:0.0000; stroke-opacity:1; 
stroke-linecap:round; stroke-linejoin:round;fill-rule:evenodd;"
d="M 7.6547,5.9810
8.5547,5.9810
8.5547,7.5810
7.6547,7.5810
Z" /> 
<path style="fill:#37CBCB; fill-opacity:1.0000; 
stroke:#37CBCB; stroke-width:0.0000; stroke-opacity:1; 
stroke-linecap:round; stroke-linejoin:round;fill-rule:evenodd;"
d="M 8.8047,7.3910
9.3047,7.3910
9.3047,7.6710
8.8047,7.6710
Z" /> 
<path style="fill:#37CBCB; fill-opacity:1.0000; 
stroke:#37CBCB; stroke-width:0.0000; stroke-opacity:1; 
stroke-linecap:round; stroke-linejoin:round;fill-rule:evenodd;"
d="M 6.9047,7.3910
7.4047,7.3910
7.4047,7.6710
6.9047,7.6710
Z" /> 
<path style="fill:#37CBCB; fill-opacity:1.0000; 
stroke:#37CBCB; stroke-width:0.0000; stroke-opacity:1; 
stroke-linecap:round; stroke-linejoin:round;fill-rule:evenodd;"
d="M 6.9047,6.8910
7.4047,6.8910
7.4047,7.1710
6.9047,7.1710
Z" /> 
<path style="fill:#37CBCB; fill-opacity:1.0000; 
stroke:#37CBCB; stroke-width:0.0000; stroke-opacity:1; 
stroke-linecap:round; stroke-linejoin:round;fill-rule:evenodd;"
d="M 6.9047,6.3910
7.4047,6.3910
7.4047,6.6710
6.9047,6.6710
Z" /> 
<path style="fill:#37CBCB; fill-opacity:1.0000; 
stroke:#37CBCB; stroke-width:0.0000; stroke-opacity:1; 
stroke-linecap:round; stroke-linejoin:round;fill-rule:evenodd;"
d="M 6.9047,5.8910
7.4047,5.8910
7.4047,6.1710
6.9047,6.1710
Z" /> 
</g>
<g >
</g>
<g style="fill:#37CBCB; fill-opacity:1.0000; 
stroke:#37CBCB; stroke-width:0.0000; stroke-opacity:1; 
stroke-linecap:round; stroke-linejoin:round;">
<path style="fill:#37CBCB; fill-opacity:1.0000; 
stroke:#37CBCB; stroke-width:0.0000; stroke-opacity:1; 
stroke-linecap:round; stroke-linejoin:round;fill-rule:evenodd;"
d="M 6.1927,4.9970
6.1927,4.2470
6.9927,4.2470
6.9927,4.9970
Z" /> 
<path style="fill:#37CBCB; fill-opacity:1.0000; 
stroke:#37CBCB; stroke-width:0.0000; stroke-opacity:1; 
stroke-linecap:round; stroke-linejoin:round;fill-rule:evenodd;"
d="M 7.6927,4.9970
7.6927,4.2470
8.4927,4.2470
8.4927,4.9970
Z" /> 
</g>
<g >
</g>
<g style="fill:#37CBCB; fill-opacity:1.0000; 
stroke:#37CBCB; stroke-width:0.0000; stroke-opacity:1; 
stroke-linecap:round; stroke-linejoin:round;">
<path style="fill:#37CBCB; fill-opacity:1.0000; 
stroke:#37CBCB; stroke-width:0.0000; stroke-opacity:1; 
stroke-linecap:round; stroke-linejoin:round;fill-rule:evenodd;"
d="M 10.0167,2.7230
10.0167,3.4730
9.2167,3.4730
9.2167,2.7230
Z" /> 
<path style="fill:#37CBCB; fill-opacity:1.0000; 
stroke:#37CBCB; stroke-width:0.0000; stroke-opacity:1; 
stroke-linecap:round; stroke-linejoin:round;fill-rule:evenodd;"
d="M 8.5167,2.7230
8.5167,3.4730
7.7167,3.4730
7.7167,2.7230
Z" /> 
</g>
<g >
</g>
<g style="fill:#37CBCB; fill-opacity:1.0000; 
stroke:#37CBCB; stroke-width:0.0000; stroke-opacity:1; 
stroke-linecap:round; stroke-linejoin:round;">
<path style="fill:#37CBCB; fill-opacity:1.0000; 
stroke:#37CBCB; stroke-width:0.0000; stroke-opacity:1; 
stroke-linecap:round; stroke-linejoin:round;fill-rule:evenodd;"
d="M 3.5327,6.8064
3.5327,8.5336
1.5007,8.5336
1.5007,6.8064
Z" /> 
</g>
<g style="fill:#37CBCB; fill-opacity:1.0000; 
stroke:#37CBCB; stroke-width:1.7272; stroke-opacity:1; 
stroke-linecap:round; stroke-linejoin:round;">
</g>
<g style="fill:#37CBCB; fill-opacity:0.0; 
stroke:#37CBCB; stroke-width:1.7272; stroke-opacity:1; 
stroke-linecap:round; stroke-linejoin:round;">
<path d="M2.6691 5.1300
L2.3643 5.1300
" />
<path d="M2.6691 2.5900
L2.3643 2.5900
" />
</g>
<g >
</g>
<g style="fill:#37CBCB; fill-opacity:0.0; 
stroke:#37CBCB; stroke-width:1.7272; stroke-opacity:1; 
stroke-linecap:round; stroke-linejoin:round;">
</g>
<g style="fill:#37CBCB; fill-opacity:0.0; 
stroke:#37CBCB; stroke-width:0.0000; stroke-opacity:1; 
stroke-linecap:round; stroke-linejoin:round;">
</g>
<g style="fill:#37CBCB; fill-opacity:1.0000; 
stroke:#37CBCB; stroke-width:0.0000; stroke-opacity:1; 
stroke-linecap:round; stroke-linejoin:round;">
<path style="fill:#37CBCB; fill-opacity:1.0000; 
stroke:#37CBCB; stroke-width:0.0000; stroke-opacity:1; 
stroke-linecap:round; stroke-linejoin:round;fill-rule:evenodd;"
d="M 6.4791,10.4640
8.2063,10.4640
8.2063,12.4960
6.4791,12.4960
Z" /> 
</g>
<g style="fill:#37CBCB; fill-opacity:1.0000; 
stroke:#37CBCB; stroke-width:1.7272; stroke-opacity:1; 
stroke-linecap:round; stroke-linejoin:round;">
</g>
<g style="fill:#37CBCB; fill-opacity:0.0; 
stroke:#37CBCB; stroke-width:1.7272; stroke-opacity:1; 
stroke-linecap:round; stroke-linejoin:round;">
<path d="M4.8027 11.3276
L4.8027 11.6324
" />
<path d="M2.2627 11.3276
L2.2627 11.6324
" />
</g>
<g >
</g>
<g style="fill:#121212; fill-opacity:0.0; 
stroke:#121212; stroke-width:1.7272; stroke-opacity:1; 
stroke-linecap:round; stroke-linejoin:round;">
</g>
<g style="fill:#121212; fill-opacity:1.0000; 
stroke:#121212; stroke-width:0.0000; stroke-opacity:1; 
stroke-linecap:round; stroke-linejoin:round;">
<circle cx="8.1047" cy="5.5110" r="0.3429" /> 
</g>
<g style="fill:#121212; fill-opacity:1.0000; 
stroke:#121212; stroke-width:0.0212; stroke-opacity:1; 
stroke-linecap:round; stroke-linejoin:round;">
</g>
<g style="fill:#121212; fill-opacity:1.0000; 
stroke:#121212; stroke-width:0.0000; stroke-opacity:1; 
stroke-linecap:round; stroke-linejoin:round;">
<circle cx="6.8982" cy="8.6225" r="0.3429" /> 
</g>
<g style="fill:#121212; fill-opacity:1.0000; 
stroke:#121212; stroke-width:0.0212; stroke-opacity:1; 
stroke-linecap:round; stroke-linejoin:round;">
</g>
<g style="fill:#121212; fill-opacity:1.0000; 
stroke:#121212; stroke-width:0.0000; stroke-opacity:1; 
stroke-linecap:round; stroke-linejoin:round;">
<circle cx="9.3112" cy="8.3050" r="0.3429" /> 
</g>
<g style="fill:#121212; fill-opacity:1.0000; 
stroke:#121212; stroke-width:0.0212; stroke-opacity:1; 
stroke-linecap:round; stroke-linejoin:round;">
</g>
<g style="fill:#121212; fill-opacity:1.0000; 
stroke:#121212; stroke-width:0.0000; stroke-opacity:1; 
stroke-linecap:round; stroke-linejoin:round;">
<circle cx="9.0572" cy="9.3210" r="0.3429" /> 
</g>
<g style="fill:#121212; fill-opacity:1.0000; 
stroke:#121212; stroke-width:0.0212; stroke-opacity:1; 
stroke-linecap:round; stroke-linejoin:round;">
</g>
<g style="fill:#121212; fill-opacity:1.0000; 
stroke:#121212; stroke-width:0.0000; stroke-opacity:1; 
stroke-linecap:round; stroke-linejoin:round;">
<circle cx="10.1367" cy="9.0670" r="0.3429" /> 
</g>
<g style="fill:#121212; fill-opacity:1.0000; 
stroke:#121212; stroke-width:0.0212; stroke-opacity:1; 
stroke-linecap:round; stroke-linejoin:round;">
</g>
<g style="fill:#121212; fill-opacity:1.0000; 
stroke:#121212; stroke-width:0.0000; stroke-opacity:1; 
stroke-linecap:round; stroke-linejoin:round;">
<circle cx="7.9142" cy="9.1305" r="0.3429" /> 
</g>
<g style="fill:#121212; fill-opacity:1.0000; 
stroke:#121212; stroke-width:0.0212; stroke-opacity:1; 
stroke-linecap:round; stroke-linejoin:round;">
</g>
<g style="fill:#121212; fill-opacity:1.0000; 
stroke:#121212; stroke-width:0.0000; stroke-opacity:1; 
stroke-linecap:round; stroke-linejoin:round;">
<circle cx="8.1682" cy="8.1145" r="0.3429" /> 
</g>
<g style="fill:#121212; fill-opacity:1.0000; 
stroke:#121212; stroke-width:0.0212; stroke-opacity:1; 
stroke-linecap:round; stroke-linejoin:round;">
</g>
<g >
</g>
<g style="fill:#37CBCB; fill-opacity:1.0000; 
stroke:#37CBCB; stroke-width:0.0212; stroke-opacity:1; 
stroke-linecap:round; stroke-linejoin:round;">
</g>
<g style="fill:#37CBCB; fill-opacity:1.0000; 
stroke:#37CBCB; stroke-width:0.1524; stroke-opacity:1; 
stroke-linecap:round; stroke-linejoin:round;">
</g>
<g style="fill:#37CBCB; fill-opacity:0.0; 
stroke:#37CBCB; stroke-width:0.1524; stroke-opacity:1; 
stroke-linecap:round; stroke-linejoin:round;">
<path d="M7.8387 5.2450
L8.1047 5.5110
" />
<path d="M8.1682 8.1145
L8.3587 8.3050
" />
<path d="M8.3587 8.3050
L9.3112 8.3050
" />
<path d="M10.1367 9.0670
L9.8827 9.3210
" />
<path d="M9.8827 9.3210
L9.0572 9.3210
" />
<path d="M7.9142 9.1305
L7.4062 8.6225
" />
<path d="M7.4062 8.6225
L6.8982 8.6225
" />
<path d="M7.8387 4.6220
L7.8387 5.2450
" />
</g>
<g style="fill:#37CBCB; fill-opacity:0.0; 
stroke:#37CBCB; stroke-width:0.3048; stroke-opacity:1; 
stroke-linecap:round; stroke-linejoin:round;">
<path d="M2.2627 10.0195
L2.9612 9.3210
" />
<path d="M2.9612 9.3210
L3.3422 9.3210
" />
<path d="M3.3422 9.3210
L4.6122 8.0510
" />
<path d="M4.6122 8.0510
L4.6122 7.2255
" />
<path d="M4.6122 7.2255
L5.3067 6.5310
" />
<path d="M5.3067 6.5310
L7.1547 6.5310
" />
<path d="M2.2627 11.4800
L2.2627 10.0195
" />
<path d="M7.3427 10.3370
L6.1362 9.1305
" />
<path d="M6.1362 9.1305
L6.1362 7.8605
" />
<path d="M6.1362 7.8605
L6.3902 7.6065
" />
<path d="M6.3902 7.6065
L7.0792 7.6065
" />
<path d="M7.0792 7.6065
L7.1547 7.5310
" />
<path d="M7.3427 11.4800
L7.3427 10.3370
" />
<path d="M5.8227 7.0310
L5.2472 7.6065
" />
<path d="M5.2472 7.6065
L5.2472 8.8130
" />
<path d="M5.2472 8.8130
L4.8027 9.2575
" />
<path d="M4.8027 9.2575
L4.8027 11.4800
" />
<path d="M7.1547 7.0310
L5.8227 7.0310
" />
</g>
<g style="fill:#37CBCB; fill-opacity:0.0; 
stroke:#37CBCB; stroke-width:0.6096; stroke-opacity:1; 
stroke-linecap:round; stroke-linejoin:round;">
<path d="M2.5167 5.1300
L5.3107 5.1300
" />
</g>
<g >
</g>
<g style="fill:#37CBCB; fill-opacity:0.0; 
stroke:#37CBCB; stroke-width:0.6096; stroke-opacity:1; 
stroke-linecap:round; stroke-linejoin:round;">
<g >
</g>
<g style="fill:#37CBCB; fill-opacity:1.0000; 
stroke:#37CBCB; stroke-width:0.0000; stroke-opacity:1; 
stroke-linecap:round; stroke-linejoin:round;">
<path style="fill:#37CBCB; fill-opacity:1.0000; 
stroke:#37CBCB; stroke-width:0.0000; stroke-opacity:1; 
stroke-linecap:round; stroke-linejoin:round;fill-rule:evenodd;"
d="M 10.8718,0.1181
10.8975,0.1626
10.8987,0.1757
10.8987,0.4684
10.8975,0.4815
10.8932,0.5062
10.8932,4.1012
10.8817,4.1411
9.6734,6.0744
9.6542,6.1052
9.6137,6.1368
9.5904,6.1405
9.3572,6.1405
9.3426,6.1391
9.3297,6.1365
8.9419,6.1365
8.8935,6.1189
8.8678,6.0744
8.8667,6.0613
8.8667,1.8280
4.5487,1.8280
4.5487,3.5308
4.5311,3.5791
4.4865,3.6049
4.4735,3.6060
0.8087,3.6060
0.7603,3.5884
0.7346,3.5439
0.7337,3.5362
0.7333,3.5308
0.6117,1.8280
0.5353,0.7583
0.5352,0.7557
0.5352,0.1757
0.5528,0.1274
0.5973,0.1016
0.6104,0.1005
10.8235,0.1005
Z" /> 
</g>
</g>
<g style="fill:#37CBCB; fill-opacity:1.0000; 
stroke:#37CBCB; stroke-width:0.0000; stroke-opacity:1; 
stroke-linecap:round; stroke-linejoin:round;">
<g >
<path style="fill:#37CBCB; fill-opacity:1.0000; 
stroke:#37CBCB; stroke-width:0.0000; stroke-opacity:1; 
stroke-linecap:round; stroke-linejoin:round;fill-rule:evenodd;"
d="M 7.3158,2.0996
7.3415,2.1441
7.3427,2.1572
7.3427,6.0608
7.3251,6.1091
7.2805,6.1348
7.2557,6.1350
7.1867,6.1241
7.1867,6.1241
5.2746,6.1241
5.2731,6.1241
5.2731,6.1241
5.2422,6.1241
5.2422,6.1241
5.2422,6.1241
5.2170,6.1323
5.2055,6.1350
5.1794,6.1392
5.1737,6.1410
5.1734,6.1399
5.1479,6.1460
4.8027,6.1460
4.8027,6.3248
4.7851,6.3731
4.7405,6.3989
4.7275,6.4000
0.8139,6.4000
0.7655,6.3824
0.7398,6.3379
0.7387,6.3248
0.7387,3.9352
0.7563,3.8869
0.8008,3.8611
0.8139,3.8600
4.8027,3.8600
4.8027,2.1572
4.8203,2.1089
4.8648,2.0831
4.8779,2.0820
7.2675,2.0820
Z" /> 
</g>
</g>
<g style="fill:#37CBCB; fill-opacity:1.0000; 
stroke:#37CBCB; stroke-width:0.0000; stroke-opacity:1; 
stroke-linecap:round; stroke-linejoin:round;">
<g >
<path style="fill:#37CBCB; fill-opacity:1.0000; 
stroke:#37CBCB; stroke-width:0.0000; stroke-opacity:1; 
stroke-linecap:round; stroke-linejoin:round;fill-rule:evenodd;"
d="M 8.5944,2.1003
8.6127,2.1445
8.6127,5.7013
8.6021,5.7360
8.5649,5.7917
8.5649,5.7917
8.5502,5.8659
8.5502,6.1961
8.5502,6.1961
8.5646,6.2688
8.5646,6.2932
8.5502,6.3659
8.5502,6.6961
8.5502,6.6961
8.5646,6.7688
8.5646,6.7932
8.5502,6.8659
8.5502,7.1961
8.5502,7.1961
8.5649,7.2703
8.5649,7.2703
8.6021,7.3260
8.6127,7.3607
8.6127,7.4160
8.7257,7.4160
8.7379,7.4172
8.7796,7.4255
9.3297,7.4255
9.3648,7.4185
9.3715,7.4172
9.3836,7.4160
9.5952,7.4160
9.6394,7.4343
9.6472,7.4438
10.6342,8.9243
10.6447,8.9589
10.6447,9.6395
10.6264,9.6837
10.5822,9.7020
7.3090,9.7020
7.2648,9.6837
6.5614,8.9803
6.5431,8.9361
6.5431,8.2405
6.5614,8.1963
6.6056,8.1780
7.5967,8.1780
7.5967,7.8607
7.6072,7.8260
7.6272,7.7961
7.6444,7.7703
7.6592,7.6961
7.6592,7.3659
7.6447,7.2932
7.6447,7.2688
7.6592,7.1961
7.6592,6.8659
7.6447,6.7932
7.6447,6.7688
7.6592,6.6961
7.6592,6.3659
7.6447,6.2932
7.6447,6.2688
7.6592,6.1961
7.6592,5.8659
7.6444,5.7917
7.6444,5.7917
7.6072,5.7360
7.5967,5.7013
7.5967,2.1445
7.6150,2.1003
7.6592,2.0820
8.5502,2.0820
Z" /> 
</g>
</g>
<g style="fill:#37CBCB; fill-opacity:1.0000; 
stroke:#37CBCB; stroke-width:0.0000; stroke-opacity:1; 
stroke-linecap:round; stroke-linejoin:round;">
<g >
<path style="fill:#37CBCB; fill-opacity:1.0000; 
stroke:#37CBCB; stroke-width:0.0000; stroke-opacity:1; 
stroke-linecap:round; stroke-linejoin:round;fill-rule:evenodd;"
d="M 14.1753,0.4486
14.2010,0.4931
14.2022,0.5047
14.3261,6.5773
14.3095,6.6260
14.2655,6.6526
14.2509,6.6540
8.9419,6.6540
8.8935,6.6364
8.8678,6.5919
8.8667,6.5788
8.8667,6.4752
8.8843,6.4269
8.9288,6.4011
8.9419,6.4000
9.8827,6.4000
9.8827,6.4000
11.1527,4.3680
11.1527,0.5062
11.1703,0.4579
11.2148,0.4321
11.2279,0.4310
14.1270,0.4310
Z" /> 
</g>
</g>
<g style="fill:#37CBCB; fill-opacity:1.0000; 
stroke:#37CBCB; stroke-width:0.0000; stroke-opacity:1; 
stroke-linecap:round; stroke-linejoin:round;">
<g >
<path style="fill:#37CBCB; fill-opacity:1.0000; 
stroke:#37CBCB; stroke-width:0.0000; stroke-opacity:1; 
stroke-linecap:round; stroke-linejoin:round;fill-rule:evenodd;"
d="M 14.3008,6.9256
14.3265,6.9701
14.3277,6.9832
14.3277,13.0558
14.3101,13.1041
14.2655,13.1299
14.2525,13.1310
11.2279,13.1310
11.1795,13.1134
11.1538,13.0689
11.1527,13.0558
11.1527,8.9400
11.1527,8.9400
10.0097,7.1620
8.9419,7.1620
8.8935,7.1444
8.8678,7.0999
8.8667,7.0868
8.8667,6.9832
8.8843,6.9349
8.9288,6.9091
8.9419,6.9080
14.2525,6.9080
Z" /> 
</g>
</g>
</g>
<g style="fill:#000000; fill-opacity:1.0000; 
stroke:#000000; stroke-width:0.0000; stroke-opacity:1; 
stroke-linecap:round; stroke-linejoin:round;">
<circle cx="8.1047" cy="5.5110" r="0.1651" /> 
</g>
<g style="fill:#000000; fill-opacity:1.0000; 
stroke:#000000; stroke-width:0.0212; stroke-opacity:1; 
stroke-linecap:round; stroke-linejoin:round;">
</g>
<g style="fill:#000000; fill-opacity:1.0000; 
stroke:#000000; stroke-width:0.0000; stroke-opacity:1; 
stroke-linecap:round; stroke-linejoin:round;">
<circle cx="6.8982" cy="8.6225" r="0.1651" /> 
</g>
<g style="fill:#000000; fill-opacity:1.0000; 
stroke:#000000; stroke-width:0.0212; stroke-opacity:1; 
stroke-linecap:round; stroke-linejoin:round;">
</g>
<g style="fill:#000000; fill-opacity:1.0000; 
stroke:#000000; stroke-width:0.0000; stroke-opacity:1; 
stroke-linecap:round; stroke-linejoin:round;">
<circle cx="9.3112" cy="8.3050" r="0.1651" /> 
</g>
<g style="fill:#000000; fill-opacity:1.0000; 
stroke:#000000; stroke-width:0.0212; stroke-opacity:1; 
stroke-linecap:round; stroke-linejoin:round;">
</g>
<g style="fill:#000000; fill-opacity:1.0000; 
stroke:#000000; stroke-width:0.0000; stroke-opacity:1; 
stroke-linecap:round; stroke-linejoin:round;">
<circle cx="9.0572" cy="9.3210" r="0.1651" /> 
</g>
<g style="fill:#000000; fill-opacity:1.0000; 
stroke:#000000; stroke-width:0.0212; stroke-opacity:1; 
stroke-linecap:round; stroke-linejoin:round;">
</g>
<g style="fill:#000000; fill-opacity:1.0000; 
stroke:#000000; stroke-width:0.0000; stroke-opacity:1; 
stroke-linecap:round; stroke-linejoin:round;">
<circle cx="10.1367" cy="9.0670" r="0.1651" /> 
</g>
<g style="fill:#000000; fill-opacity:1.0000; 
stroke:#000000; stroke-width:0.0212; stroke-opacity:1; 
stroke-linecap:round; stroke-linejoin:round;">
</g>
<g style="fill:#000000; fill-opacity:1.0000; 
stroke:#000000; stroke-width:0.0000; stroke-opacity:1; 
stroke-linecap:round; stroke-linejoin:round;">
<circle cx="7.9142" cy="9.1305" r="0.1651" /> 
</g>
<g style="fill:#000000; fill-opacity:1.0000; 
stroke:#000000; stroke-width:0.0212; stroke-opacity:1; 
stroke-linecap:round; stroke-linejoin:round;">
</g>
<g style="fill:#000000; fill-opacity:1.0000; 
stroke:#000000; stroke-width:0.0000; stroke-opacity:1; 
stroke-linecap:round; stroke-linejoin:round;">
<circle cx="8.1682" cy="8.1145" r="0.1651" /> 
</g>
<g style="fill:#000000; fill-opacity:1.0000; 
stroke:#000000; stroke-width:0.0212; stroke-opacity:1; 
stroke-linecap:round; stroke-linejoin:round;">
</g>
<g style="fill:#000000; fill-opacity:1.0000; 
stroke:#000000; stroke-width:0.0000; stroke-opacity:1; 
stroke-linecap:round; stroke-linejoin:round;">
<circle cx="12.6767" cy="5.6380" r="0.5080" /> 
</g>
<g style="fill:#000000; fill-opacity:1.0000; 
stroke:#000000; stroke-width:0.0212; stroke-opacity:1; 
stroke-linecap:round; stroke-linejoin:round;">
</g>
<g style="fill:#000000; fill-opacity:1.0000; 
stroke:#000000; stroke-width:0.0000; stroke-opacity:1; 
stroke-linecap:round; stroke-linejoin:round;">
<circle cx="12.6767" cy="8.1780" r="0.5080" /> 
</g>
<g style="fill:#000000; fill-opacity:1.0000; 
stroke:#000000; stroke-width:0.0212; stroke-opacity:1; 
stroke-linecap:round; stroke-linejoin:round;">
</g>
<g style="fill:#000000; fill-opacity:1.0000; 
stroke:#000000; stroke-width:0.0000; stroke-opacity:1; 
stroke-linecap:round; stroke-linejoin:round;">
<circle cx="2.5167" cy="7.6700" r="0.5080" /> 
</g>
<g style="fill:#000000; fill-opacity:1.0000; 
stroke:#000000; stroke-width:0.0212; stroke-opacity:1; 
stroke-linecap:round; stroke-linejoin:round;">
</g>
<g style="fill:#000000; fill-opacity:1.0000; 
stroke:#000000; stroke-width:0.0000; stroke-opacity:1; 
stroke-linecap:round; stroke-linejoin:round;">
<circle cx="2.5167" cy="5.1300" r="0.5080" /> 
</g>
<g style="fill:#000000; fill-opacity:1.0000; 
stroke:#000000; stroke-width:0.0212; stroke-opacity:1; 
stroke-linecap:round; stroke-linejoin:round;">
</g>
<g style="fill:#000000; fill-opacity:1.0000; 
stroke:#000000; stroke-width:0.0000; stroke-opacity:1; 
stroke-linecap:round; stroke-linejoin:round;">
<circle cx="2.5167" cy="2.5900" r="0.5080" /> 
</g>
<g style="fill:#000000; fill-opacity:1.0000; 
stroke:#000000; stroke-width:0.0212; stroke-opacity:1; 
stroke-linecap:round; stroke-linejoin:round;">
</g>
<g style="fill:#000000; fill-opacity:1.0000; 
stroke:#000000; stroke-width:0.0000; stroke-opacity:1; 
stroke-linecap:round; stroke-linejoin:round;">
<circle cx="7.3427" cy="11.4800" r="0.5080" /> 
</g>
<g style="fill:#000000; fill-opacity:1.0000; 
stroke:#000000; stroke-width:0.0212; stroke-opacity:1; 
stroke-linecap:round; stroke-linejoin:round;">
</g>
<g style="fill:#000000; fill-opacity:1.0000; 
stroke:#000000; stroke-width:0.0000; stroke-opacity:1; 
stroke-linecap:round; stroke-linejoin:round;">
<circle cx="4.8027" cy="11.4800" r="0.5080" /> 
</g>
<g style="fill:#000000; fill-opacity:1.0000; 
stroke:#000000; stroke-width:0.0212; stroke-opacity:1; 
stroke-linecap:round; stroke-linejoin:round;">
</g>
<g style="fill:#000000; fill-opacity:1.0000; 
stroke:#000000; stroke-width:0.0000; stroke-opacity:1; 
stroke-linecap:round; stroke-linejoin:round;">
<circle cx="2.2627" cy="11.4800" r="0.5080" /> 
</g>
<g style="fill:#000000; fill-opacity:1.0000; 
stroke:#000000; stroke-width:0.0212; stroke-opacity:1; 
stroke-linecap:round; stroke-linejoin:round;">
</g>
<g style="fill:#FFFFFF; fill-opacity:1.0000; 
stroke:#FFFFFF; stroke-width:0.0212; stroke-opacity:1; 
stroke-linecap:round; stroke-linejoin:round;">
<g >
</g>
<g >
</g>
<g >
</g>
<g >
</g>
<g >
</g>
<g >
</g>
<g >
</g>
<g >
</g>
<g >
</g>
</g>
<g style="fill:#FFFFFF; fill-opacity:1.0000; 
stroke:#FFFFFF; stroke-width:0.0212; stroke-opacity:1; 
stroke-linecap:round; stroke-linejoin:round;">
</g>
<g style="fill:#2F2D31; fill-opacity:1.0000; 
stroke:#2F2D31; stroke-width:0.0212; stroke-opacity:1; 
stroke-linecap:round; stroke-linejoin:round;">
</g>
<g style="fill:#2F2D31; fill-opacity:1.0000; 
stroke:#2F2D31; stroke-width:0.1000; stroke-opacity:1; 
stroke-linecap:round; stroke-linejoin:round;">
</g>
<g style="fill:#2F2D31; fill-opacity:0.0; 
stroke:#2F2D31; stroke-width:0.1000; stroke-opacity:1; 
stroke-linecap:round; stroke-linejoin:round;">
<path d="M14.4547 13.2580
L0.4847 13.2580
" />
<path d="M0.5482 0.0500
L14.4547 0.0500
" />
<path d="M14.4547 0.1135
L14.4547 13.2580
" />
<path d="M14.4547 0.0500
L14.4547 0.1135
" />
<path d="M0.4847 13.2580
L0.4847 0.0500
" />
<g >
</g>
<g >
</g>
<g >
</g>
<g >
</g>
<g >
</g>
<g >
</g>
<g >
</g>
<g >
</g>
<g >
</g>
</g> 
</svg>
