<?xml version="1.0" standalone="no"?>
 <!DOCTYPE svg PUBLIC "-//W3C//DTD SVG 1.1//EN" 
 "http://www.w3.org/Graphics/SVG/1.1/DTD/svg11.dtd"> 
<svg
  xmlns:svg="http://www.w3.org/2000/svg"
  xmlns="http://www.w3.org/2000/svg"
  xmlns:xlink="http://www.w3.org/1999/xlink"
  version="1.1"
  width="22.1996mm" height="26.6700mm" viewBox="0.0000 0.0000 22.1996 26.6700">
<title>SVG Image created as _autosave-working-brd.svg date 2023/09/18 09:04:23 </title>
  <desc>Image generated by PCBNEW </desc>
<g style="fill:#000000; fill-opacity:1.0000;stroke:#000000; stroke-opacity:1.0000;
stroke-linecap:round; stroke-linejoin:round;"
 transform="translate(0 0) scale(1 1)">
</g>
<g style="fill:#000000; fill-opacity:0.0; 
stroke:#000000; stroke-width:0.0000; stroke-opacity:1; 
stroke-linecap:round; stroke-linejoin:round;">
</g>
<g style="fill:#000000; fill-opacity:1.0000; 
stroke:#000000; stroke-width:0.0212; stroke-opacity:1; 
stroke-linecap:round; stroke-linejoin:round;">
<rect x="-5.000000" y="-5.000000" width="32.204284" height="36.670000" rx="0.000000" />
</g>
<g style="fill:#FFFFFF; fill-opacity:1.0000; 
stroke:#FFFFFF; stroke-width:0.0212; stroke-opacity:1; 
stroke-linecap:round; stroke-linejoin:round;">
<g >
</g>
<g >
</g>
<g style="fill:#B2803A; fill-opacity:1.0000; 
stroke:#B2803A; stroke-width:0.0212; stroke-opacity:1; 
stroke-linecap:round; stroke-linejoin:round;">
</g>
<g style="fill:#B2803A; fill-opacity:1.0000; 
stroke:#B2803A; stroke-width:0.0000; stroke-opacity:1; 
stroke-linecap:round; stroke-linejoin:round;">
<circle cx="14.2240" cy="23.8760" r="0.9652" /> 
</g>
<g style="fill:#B2803A; fill-opacity:1.0000; 
stroke:#B2803A; stroke-width:0.0212; stroke-opacity:1; 
stroke-linecap:round; stroke-linejoin:round;">
</g>
<g style="fill:#B2803A; fill-opacity:1.0000; 
stroke:#B2803A; stroke-width:0.0000; stroke-opacity:1; 
stroke-linecap:round; stroke-linejoin:round;">
<circle cx="11.6840" cy="23.8760" r="0.9652" /> 
</g>
<g style="fill:#B2803A; fill-opacity:1.0000; 
stroke:#B2803A; stroke-width:0.0212; stroke-opacity:1; 
stroke-linecap:round; stroke-linejoin:round;">
</g>
<g style="fill:#B2803A; fill-opacity:1.0000; 
stroke:#B2803A; stroke-width:0.0000; stroke-opacity:1; 
stroke-linecap:round; stroke-linejoin:round;">
<circle cx="9.1440" cy="23.8760" r="0.9652" /> 
</g>
<g style="fill:#B2803A; fill-opacity:1.0000; 
stroke:#B2803A; stroke-width:0.0212; stroke-opacity:1; 
stroke-linecap:round; stroke-linejoin:round;">
</g>
<g style="fill:#B2803A; fill-opacity:1.0000; 
stroke:#B2803A; stroke-width:0.0000; stroke-opacity:1; 
stroke-linecap:round; stroke-linejoin:round;">
<circle cx="6.6040" cy="23.8760" r="0.9652" /> 
</g>
<g style="fill:#B2803A; fill-opacity:1.0000; 
stroke:#B2803A; stroke-width:0.0212; stroke-opacity:1; 
stroke-linecap:round; stroke-linejoin:round;">
</g>
<g style="fill:#B2803A; fill-opacity:1.0000; 
stroke:#B2803A; stroke-width:0.0000; stroke-opacity:1; 
stroke-linecap:round; stroke-linejoin:round;">
<circle cx="4.0640" cy="23.8760" r="0.9652" /> 
</g>
<g style="fill:#B2803A; fill-opacity:1.0000; 
stroke:#B2803A; stroke-width:0.0212; stroke-opacity:1; 
stroke-linecap:round; stroke-linejoin:round;">
</g>
<g >
</g>
<g >
</g>
<g style="fill:#B2803A; fill-opacity:1.0000; 
stroke:#B2803A; stroke-width:0.0212; stroke-opacity:1; 
stroke-linecap:round; stroke-linejoin:round;">
</g>
<g style="fill:#B2803A; fill-opacity:1.0000; 
stroke:#B2803A; stroke-width:0.0000; stroke-opacity:1; 
stroke-linecap:round; stroke-linejoin:round;">
<circle cx="19.3040" cy="23.8760" r="1.5000" /> 
</g>
<g style="fill:#B2803A; fill-opacity:1.0000; 
stroke:#B2803A; stroke-width:0.0212; stroke-opacity:1; 
stroke-linecap:round; stroke-linejoin:round;">
</g>
<g >
</g>
<g >
</g>
<g style="fill:#B2803A; fill-opacity:1.0000; 
stroke:#B2803A; stroke-width:0.0212; stroke-opacity:1; 
stroke-linecap:round; stroke-linejoin:round;">
</g>
<g style="fill:#B2803A; fill-opacity:1.0000; 
stroke:#B2803A; stroke-width:0.0000; stroke-opacity:1; 
stroke-linecap:round; stroke-linejoin:round;">
<circle cx="2.7940" cy="3.5560" r="1.5000" /> 
</g>
<g style="fill:#B2803A; fill-opacity:1.0000; 
stroke:#B2803A; stroke-width:0.0212; stroke-opacity:1; 
stroke-linecap:round; stroke-linejoin:round;">
</g>
<g >
</g>
<g >
</g>
<g >
</g>
<g >
</g>
<g >
</g>
<g >
</g>
<g >
</g>
<g style="fill:#B2803A; fill-opacity:1.0000; 
stroke:#B2803A; stroke-width:0.0212; stroke-opacity:1; 
stroke-linecap:round; stroke-linejoin:round;">
</g>
<g style="fill:#B2803A; fill-opacity:1.0000; 
stroke:#B2803A; stroke-width:0.0000; stroke-opacity:1; 
stroke-linecap:round; stroke-linejoin:round;">
<path style="fill:#B2803A; fill-opacity:1.0000; 
stroke:#B2803A; stroke-width:0.0000; stroke-opacity:1; 
stroke-linecap:round; stroke-linejoin:round;fill-rule:evenodd;"
d="M 1.9939,14.4018
3.5941,14.4018
3.5941,15.5702
1.9939,15.5702
Z" /> 
<path style="fill:#B2803A; fill-opacity:1.0000; 
stroke:#B2803A; stroke-width:0.0000; stroke-opacity:1; 
stroke-linecap:round; stroke-linejoin:round;fill-rule:evenodd;"
d="M 1.9939,15.9258
3.5941,15.9258
3.5941,17.0942
1.9939,17.0942
Z" /> 
<path style="fill:#B2803A; fill-opacity:1.0000; 
stroke:#B2803A; stroke-width:0.0000; stroke-opacity:1; 
stroke-linecap:round; stroke-linejoin:round;fill-rule:evenodd;"
d="M 2.6924,15.4305
2.8956,15.4305
2.8956,16.0655
2.6924,16.0655
Z" /> 
</g>
<g >
</g>
<g >
</g>
<g style="fill:#B2803A; fill-opacity:1.0000; 
stroke:#B2803A; stroke-width:0.0000; stroke-opacity:1; 
stroke-linecap:round; stroke-linejoin:round;">
<path style="fill:#B2803A; fill-opacity:1.0000; 
stroke:#B2803A; stroke-width:0.0000; stroke-opacity:1; 
stroke-linecap:round; stroke-linejoin:round;fill-rule:evenodd;"
d="M 3.5941,20.9042
1.9939,20.9042
1.9939,19.7358
3.5941,19.7358
Z" /> 
<path style="fill:#B2803A; fill-opacity:1.0000; 
stroke:#B2803A; stroke-width:0.0000; stroke-opacity:1; 
stroke-linecap:round; stroke-linejoin:round;fill-rule:evenodd;"
d="M 3.5941,19.3802
1.9939,19.3802
1.9939,18.2118
3.5941,18.2118
Z" /> 
<path style="fill:#B2803A; fill-opacity:1.0000; 
stroke:#B2803A; stroke-width:0.0000; stroke-opacity:1; 
stroke-linecap:round; stroke-linejoin:round;fill-rule:evenodd;"
d="M 2.8956,19.8755
2.6924,19.8755
2.6924,19.2405
2.8956,19.2405
Z" /> 
</g>
<g >
</g>
<g >
</g>
<g style="fill:#121212; fill-opacity:1.0000; 
stroke:#121212; stroke-width:0.0000; stroke-opacity:1; 
stroke-linecap:round; stroke-linejoin:round;">
<circle cx="5.2070" cy="14.7320" r="0.4532" /> 
</g>
<g style="fill:#121212; fill-opacity:1.0000; 
stroke:#121212; stroke-width:0.0212; stroke-opacity:1; 
stroke-linecap:round; stroke-linejoin:round;">
</g>
<g style="fill:#121212; fill-opacity:1.0000; 
stroke:#121212; stroke-width:0.0000; stroke-opacity:1; 
stroke-linecap:round; stroke-linejoin:round;">
<circle cx="7.6200" cy="20.1930" r="0.4532" /> 
</g>
<g style="fill:#121212; fill-opacity:1.0000; 
stroke:#121212; stroke-width:0.0212; stroke-opacity:1; 
stroke-linecap:round; stroke-linejoin:round;">
</g>
<g style="fill:#121212; fill-opacity:1.0000; 
stroke:#121212; stroke-width:0.0000; stroke-opacity:1; 
stroke-linecap:round; stroke-linejoin:round;">
<circle cx="1.2700" cy="20.3200" r="0.4532" /> 
</g>
<g style="fill:#121212; fill-opacity:1.0000; 
stroke:#121212; stroke-width:0.0212; stroke-opacity:1; 
stroke-linecap:round; stroke-linejoin:round;">
</g>
<g style="fill:#121212; fill-opacity:1.0000; 
stroke:#121212; stroke-width:0.0000; stroke-opacity:1; 
stroke-linecap:round; stroke-linejoin:round;">
<circle cx="1.2700" cy="14.9860" r="0.4532" /> 
</g>
<g style="fill:#121212; fill-opacity:1.0000; 
stroke:#121212; stroke-width:0.0212; stroke-opacity:1; 
stroke-linecap:round; stroke-linejoin:round;">
</g>
<g >
</g>
<g style="fill:#B2803A; fill-opacity:1.0000; 
stroke:#B2803A; stroke-width:0.0212; stroke-opacity:1; 
stroke-linecap:round; stroke-linejoin:round;">
</g>
<g style="fill:#B2803A; fill-opacity:1.0000; 
stroke:#B2803A; stroke-width:0.2540; stroke-opacity:1; 
stroke-linecap:round; stroke-linejoin:round;">
</g>
<g style="fill:#B2803A; fill-opacity:0.0; 
stroke:#B2803A; stroke-width:0.2540; stroke-opacity:1; 
stroke-linecap:round; stroke-linejoin:round;">
<path d="M6.6040 23.8760
L6.6040 22.2250
" />
<path d="M4.5720 20.1930
L4.5720 18.1610
" />
<path d="M2.7940 17.6530
L2.7940 16.5100
" />
<path d="M4.0640 17.6530
L2.7940 17.6530
" />
<path d="M6.6040 22.2250
L4.5720 20.1930
" />
<path d="M2.7940 18.7960
L2.7940 17.6530
" />
<path d="M4.5720 18.1610
L4.0640 17.6530
" />
<path d="M9.1440 23.8760
L5.2070 19.9390
" />
<path d="M5.2070 19.9390
L5.2070 14.7320
" />
<path d="M9.7790 22.3520
L7.6200 20.1930
" />
<path d="M13.3350 22.3520
L9.7790 22.3520
" />
<path d="M14.2240 23.8760
L14.2240 23.2410
" />
<path d="M14.2240 23.2410
L13.3350 22.3520
" />
<path d="M2.7940 20.3200
L1.2700 20.3200
" />
<path d="M2.7940 14.9860
L1.2700 14.9860
" />
</g>
<g >
</g>
</g>
<g style="fill:#000000; fill-opacity:0.0; 
stroke:#000000; stroke-width:0.2540; stroke-opacity:1; 
stroke-linecap:round; stroke-linejoin:round;">
</g>
<g style="fill:#000000; fill-opacity:1.0000; 
stroke:#000000; stroke-width:0.0000; stroke-opacity:1; 
stroke-linecap:round; stroke-linejoin:round;">
<circle cx="5.2070" cy="14.7320" r="0.2500" /> 
</g>
<g style="fill:#000000; fill-opacity:1.0000; 
stroke:#000000; stroke-width:0.0212; stroke-opacity:1; 
stroke-linecap:round; stroke-linejoin:round;">
</g>
<g style="fill:#000000; fill-opacity:1.0000; 
stroke:#000000; stroke-width:0.0000; stroke-opacity:1; 
stroke-linecap:round; stroke-linejoin:round;">
<circle cx="7.6200" cy="20.1930" r="0.2500" /> 
</g>
<g style="fill:#000000; fill-opacity:1.0000; 
stroke:#000000; stroke-width:0.0212; stroke-opacity:1; 
stroke-linecap:round; stroke-linejoin:round;">
</g>
<g style="fill:#000000; fill-opacity:1.0000; 
stroke:#000000; stroke-width:0.0000; stroke-opacity:1; 
stroke-linecap:round; stroke-linejoin:round;">
<circle cx="1.2700" cy="20.3200" r="0.2500" /> 
</g>
<g style="fill:#000000; fill-opacity:1.0000; 
stroke:#000000; stroke-width:0.0212; stroke-opacity:1; 
stroke-linecap:round; stroke-linejoin:round;">
</g>
<g style="fill:#000000; fill-opacity:1.0000; 
stroke:#000000; stroke-width:0.0000; stroke-opacity:1; 
stroke-linecap:round; stroke-linejoin:round;">
<circle cx="1.2700" cy="14.9860" r="0.2500" /> 
</g>
<g style="fill:#000000; fill-opacity:1.0000; 
stroke:#000000; stroke-width:0.0212; stroke-opacity:1; 
stroke-linecap:round; stroke-linejoin:round;">
</g>
<g style="fill:#000000; fill-opacity:1.0000; 
stroke:#000000; stroke-width:0.0000; stroke-opacity:1; 
stroke-linecap:round; stroke-linejoin:round;">
<circle cx="14.2240" cy="23.8760" r="0.5000" /> 
</g>
<g style="fill:#000000; fill-opacity:1.0000; 
stroke:#000000; stroke-width:0.0212; stroke-opacity:1; 
stroke-linecap:round; stroke-linejoin:round;">
</g>
<g style="fill:#000000; fill-opacity:1.0000; 
stroke:#000000; stroke-width:0.0000; stroke-opacity:1; 
stroke-linecap:round; stroke-linejoin:round;">
<circle cx="11.6840" cy="23.8760" r="0.5000" /> 
</g>
<g style="fill:#000000; fill-opacity:1.0000; 
stroke:#000000; stroke-width:0.0212; stroke-opacity:1; 
stroke-linecap:round; stroke-linejoin:round;">
</g>
<g style="fill:#000000; fill-opacity:1.0000; 
stroke:#000000; stroke-width:0.0000; stroke-opacity:1; 
stroke-linecap:round; stroke-linejoin:round;">
<circle cx="9.1440" cy="23.8760" r="0.5000" /> 
</g>
<g style="fill:#000000; fill-opacity:1.0000; 
stroke:#000000; stroke-width:0.0212; stroke-opacity:1; 
stroke-linecap:round; stroke-linejoin:round;">
</g>
<g style="fill:#000000; fill-opacity:1.0000; 
stroke:#000000; stroke-width:0.0000; stroke-opacity:1; 
stroke-linecap:round; stroke-linejoin:round;">
<circle cx="6.6040" cy="23.8760" r="0.5000" /> 
</g>
<g style="fill:#000000; fill-opacity:1.0000; 
stroke:#000000; stroke-width:0.0212; stroke-opacity:1; 
stroke-linecap:round; stroke-linejoin:round;">
</g>
<g style="fill:#000000; fill-opacity:1.0000; 
stroke:#000000; stroke-width:0.0000; stroke-opacity:1; 
stroke-linecap:round; stroke-linejoin:round;">
<circle cx="4.0640" cy="23.8760" r="0.5000" /> 
</g>
<g style="fill:#000000; fill-opacity:1.0000; 
stroke:#000000; stroke-width:0.0212; stroke-opacity:1; 
stroke-linecap:round; stroke-linejoin:round;">
</g>
<g style="fill:#000000; fill-opacity:1.0000; 
stroke:#000000; stroke-width:0.0000; stroke-opacity:1; 
stroke-linecap:round; stroke-linejoin:round;">
<circle cx="19.3040" cy="23.8760" r="1.1000" /> 
</g>
<g style="fill:#000000; fill-opacity:1.0000; 
stroke:#000000; stroke-width:0.0212; stroke-opacity:1; 
stroke-linecap:round; stroke-linejoin:round;">
</g>
<g style="fill:#000000; fill-opacity:1.0000; 
stroke:#000000; stroke-width:0.0000; stroke-opacity:1; 
stroke-linecap:round; stroke-linejoin:round;">
<circle cx="2.7940" cy="3.5560" r="1.1000" /> 
</g>
<g style="fill:#000000; fill-opacity:1.0000; 
stroke:#000000; stroke-width:0.0212; stroke-opacity:1; 
stroke-linecap:round; stroke-linejoin:round;">
</g>
<g style="fill:#FFFFFF; fill-opacity:1.0000; 
stroke:#FFFFFF; stroke-width:0.0212; stroke-opacity:1; 
stroke-linecap:round; stroke-linejoin:round;">
<g >
</g>
<g style="fill:#37CBCB; fill-opacity:1.0000; 
stroke:#37CBCB; stroke-width:0.0212; stroke-opacity:1; 
stroke-linecap:round; stroke-linejoin:round;">
</g>
<g style="fill:#37CBCB; fill-opacity:1.0000; 
stroke:#37CBCB; stroke-width:0.0000; stroke-opacity:1; 
stroke-linecap:round; stroke-linejoin:round;">
<path style="fill:#37CBCB; fill-opacity:1.0000; 
stroke:#37CBCB; stroke-width:0.0000; stroke-opacity:1; 
stroke-linecap:round; stroke-linejoin:round;fill-rule:evenodd;"
d="M 3.5440,21.0010
2.0440,21.0010
2.0440,19.7610
3.5440,19.7610
Z" /> 
<path style="fill:#37CBCB; fill-opacity:1.0000; 
stroke:#37CBCB; stroke-width:0.0000; stroke-opacity:1; 
stroke-linecap:round; stroke-linejoin:round;fill-rule:evenodd;"
d="M 3.5440,19.1010
2.0440,19.1010
2.0440,17.8610
3.5440,17.8610
Z" /> 
</g>
<g >
</g>
<g style="fill:#37CBCB; fill-opacity:1.0000; 
stroke:#37CBCB; stroke-width:0.0000; stroke-opacity:1; 
stroke-linecap:round; stroke-linejoin:round;">
<circle cx="14.2240" cy="23.8760" r="0.9652" /> 
</g>
<g style="fill:#37CBCB; fill-opacity:1.0000; 
stroke:#37CBCB; stroke-width:0.0212; stroke-opacity:1; 
stroke-linecap:round; stroke-linejoin:round;">
</g>
<g style="fill:#37CBCB; fill-opacity:1.0000; 
stroke:#37CBCB; stroke-width:0.0000; stroke-opacity:1; 
stroke-linecap:round; stroke-linejoin:round;">
<circle cx="11.6840" cy="23.8760" r="0.9652" /> 
</g>
<g style="fill:#37CBCB; fill-opacity:1.0000; 
stroke:#37CBCB; stroke-width:0.0212; stroke-opacity:1; 
stroke-linecap:round; stroke-linejoin:round;">
</g>
<g style="fill:#37CBCB; fill-opacity:1.0000; 
stroke:#37CBCB; stroke-width:0.0000; stroke-opacity:1; 
stroke-linecap:round; stroke-linejoin:round;">
<circle cx="9.1440" cy="23.8760" r="0.9652" /> 
</g>
<g style="fill:#37CBCB; fill-opacity:1.0000; 
stroke:#37CBCB; stroke-width:0.0212; stroke-opacity:1; 
stroke-linecap:round; stroke-linejoin:round;">
</g>
<g style="fill:#37CBCB; fill-opacity:1.0000; 
stroke:#37CBCB; stroke-width:0.0000; stroke-opacity:1; 
stroke-linecap:round; stroke-linejoin:round;">
<circle cx="6.6040" cy="23.8760" r="0.9652" /> 
</g>
<g style="fill:#37CBCB; fill-opacity:1.0000; 
stroke:#37CBCB; stroke-width:0.0212; stroke-opacity:1; 
stroke-linecap:round; stroke-linejoin:round;">
</g>
<g style="fill:#37CBCB; fill-opacity:1.0000; 
stroke:#37CBCB; stroke-width:0.0000; stroke-opacity:1; 
stroke-linecap:round; stroke-linejoin:round;">
<circle cx="4.0640" cy="23.8760" r="0.9652" /> 
</g>
<g style="fill:#37CBCB; fill-opacity:1.0000; 
stroke:#37CBCB; stroke-width:0.0212; stroke-opacity:1; 
stroke-linecap:round; stroke-linejoin:round;">
</g>
<g >
</g>
<g style="fill:#37CBCB; fill-opacity:1.0000; 
stroke:#37CBCB; stroke-width:0.0212; stroke-opacity:1; 
stroke-linecap:round; stroke-linejoin:round;">
</g>
<g style="fill:#37CBCB; fill-opacity:1.0000; 
stroke:#37CBCB; stroke-width:0.0000; stroke-opacity:1; 
stroke-linecap:round; stroke-linejoin:round;">
<path style="fill:#37CBCB; fill-opacity:1.0000; 
stroke:#37CBCB; stroke-width:0.0000; stroke-opacity:1; 
stroke-linecap:round; stroke-linejoin:round;fill-rule:evenodd;"
d="M 3.5440,17.3180
2.0440,17.3180
2.0440,16.0780
3.5440,16.0780
Z" /> 
<path style="fill:#37CBCB; fill-opacity:1.0000; 
stroke:#37CBCB; stroke-width:0.0000; stroke-opacity:1; 
stroke-linecap:round; stroke-linejoin:round;fill-rule:evenodd;"
d="M 3.5440,15.4180
2.0440,15.4180
2.0440,14.1780
3.5440,14.1780
Z" /> 
</g>
<g >
</g>
<g style="fill:#37CBCB; fill-opacity:1.0000; 
stroke:#37CBCB; stroke-width:0.0000; stroke-opacity:1; 
stroke-linecap:round; stroke-linejoin:round;">
<circle cx="19.3040" cy="23.8760" r="1.5000" /> 
</g>
<g style="fill:#37CBCB; fill-opacity:1.0000; 
stroke:#37CBCB; stroke-width:0.0212; stroke-opacity:1; 
stroke-linecap:round; stroke-linejoin:round;">
</g>
<g >
</g>
<g style="fill:#37CBCB; fill-opacity:1.0000; 
stroke:#37CBCB; stroke-width:0.0212; stroke-opacity:1; 
stroke-linecap:round; stroke-linejoin:round;">
</g>
<g style="fill:#37CBCB; fill-opacity:1.0000; 
stroke:#37CBCB; stroke-width:0.0000; stroke-opacity:1; 
stroke-linecap:round; stroke-linejoin:round;">
<path style="fill:#37CBCB; fill-opacity:1.0000; 
stroke:#37CBCB; stroke-width:0.0000; stroke-opacity:1; 
stroke-linecap:round; stroke-linejoin:round;fill-rule:evenodd;"
d="M 12.9830,21.4730
12.9830,19.5730
14.2830,19.5730
14.2830,21.4730
Z" /> 
<path style="fill:#37CBCB; fill-opacity:1.0000; 
stroke:#37CBCB; stroke-width:0.0000; stroke-opacity:1; 
stroke-linecap:round; stroke-linejoin:round;fill-rule:evenodd;"
d="M 18.4830,21.4730
18.4830,19.5730
19.7830,19.5730
19.7830,21.4730
Z" /> 
<path style="fill:#37CBCB; fill-opacity:1.0000; 
stroke:#37CBCB; stroke-width:0.0000; stroke-opacity:1; 
stroke-linecap:round; stroke-linejoin:round;fill-rule:evenodd;"
d="M 18.4830,18.2730
18.4830,16.3730
19.7830,16.3730
19.7830,18.2730
Z" /> 
<path style="fill:#37CBCB; fill-opacity:1.0000; 
stroke:#37CBCB; stroke-width:0.0000; stroke-opacity:1; 
stroke-linecap:round; stroke-linejoin:round;fill-rule:evenodd;"
d="M 12.9830,18.2730
12.9830,16.3730
14.2830,16.3730
14.2830,18.2730
Z" /> 
</g>
<g >
</g>
<g style="fill:#37CBCB; fill-opacity:1.0000; 
stroke:#37CBCB; stroke-width:0.0000; stroke-opacity:1; 
stroke-linecap:round; stroke-linejoin:round;">
<circle cx="2.7940" cy="3.5560" r="1.5000" /> 
</g>
<g style="fill:#37CBCB; fill-opacity:1.0000; 
stroke:#37CBCB; stroke-width:0.0212; stroke-opacity:1; 
stroke-linecap:round; stroke-linejoin:round;">
</g>
<g >
</g>
<g style="fill:#37CBCB; fill-opacity:1.0000; 
stroke:#37CBCB; stroke-width:0.0212; stroke-opacity:1; 
stroke-linecap:round; stroke-linejoin:round;">
</g>
<g style="fill:#37CBCB; fill-opacity:1.0000; 
stroke:#37CBCB; stroke-width:0.0000; stroke-opacity:1; 
stroke-linecap:round; stroke-linejoin:round;">
<path style="fill:#37CBCB; fill-opacity:1.0000; 
stroke:#37CBCB; stroke-width:0.0000; stroke-opacity:1; 
stroke-linecap:round; stroke-linejoin:round;fill-rule:evenodd;"
d="M 11.7010,19.9850
9.5010,19.9850
9.5010,19.3850
11.7010,19.3850
Z" /> 
<path style="fill:#37CBCB; fill-opacity:1.0000; 
stroke:#37CBCB; stroke-width:0.0000; stroke-opacity:1; 
stroke-linecap:round; stroke-linejoin:round;fill-rule:evenodd;"
d="M 11.7010,18.7150
9.5010,18.7150
9.5010,18.1150
11.7010,18.1150
Z" /> 
<path style="fill:#37CBCB; fill-opacity:1.0000; 
stroke:#37CBCB; stroke-width:0.0000; stroke-opacity:1; 
stroke-linecap:round; stroke-linejoin:round;fill-rule:evenodd;"
d="M 11.7010,17.4450
9.5010,17.4450
9.5010,16.8450
11.7010,16.8450
Z" /> 
<path style="fill:#37CBCB; fill-opacity:1.0000; 
stroke:#37CBCB; stroke-width:0.0000; stroke-opacity:1; 
stroke-linecap:round; stroke-linejoin:round;fill-rule:evenodd;"
d="M 11.7010,16.1750
9.5010,16.1750
9.5010,15.5750
11.7010,15.5750
Z" /> 
<path style="fill:#37CBCB; fill-opacity:1.0000; 
stroke:#37CBCB; stroke-width:0.0000; stroke-opacity:1; 
stroke-linecap:round; stroke-linejoin:round;fill-rule:evenodd;"
d="M 6.5010,16.1750
4.3010,16.1750
4.3010,15.5750
6.5010,15.5750
Z" /> 
<path style="fill:#37CBCB; fill-opacity:1.0000; 
stroke:#37CBCB; stroke-width:0.0000; stroke-opacity:1; 
stroke-linecap:round; stroke-linejoin:round;fill-rule:evenodd;"
d="M 6.5010,17.4450
4.3010,17.4450
4.3010,16.8450
6.5010,16.8450
Z" /> 
<path style="fill:#37CBCB; fill-opacity:1.0000; 
stroke:#37CBCB; stroke-width:0.0000; stroke-opacity:1; 
stroke-linecap:round; stroke-linejoin:round;fill-rule:evenodd;"
d="M 6.5010,18.7150
4.3010,18.7150
4.3010,18.1150
6.5010,18.1150
Z" /> 
<path style="fill:#37CBCB; fill-opacity:1.0000; 
stroke:#37CBCB; stroke-width:0.0000; stroke-opacity:1; 
stroke-linecap:round; stroke-linejoin:round;fill-rule:evenodd;"
d="M 6.5010,19.9850
4.3010,19.9850
4.3010,19.3850
6.5010,19.3850
Z" /> 
</g>
<g >
</g>
<g style="fill:#37CBCB; fill-opacity:1.0000; 
stroke:#37CBCB; stroke-width:0.0000; stroke-opacity:1; 
stroke-linecap:round; stroke-linejoin:round;">
<path style="fill:#37CBCB; fill-opacity:1.0000; 
stroke:#37CBCB; stroke-width:0.0000; stroke-opacity:1; 
stroke-linecap:round; stroke-linejoin:round;fill-rule:evenodd;"
d="M 16.8910,19.2960
16.7847,19.2846
16.6514,19.2348
16.5374,19.1496
16.4522,19.0356
16.4024,18.9023
16.3910,18.7960
16.4024,18.6897
16.4522,18.5564
16.5374,18.4424
16.6514,18.3572
16.7847,18.3074
16.8910,18.2960
16.9973,18.3074
17.1306,18.3572
17.2446,18.4424
17.3298,18.5564
17.3796,18.6897
17.3910,18.7960
17.3796,18.9023
17.3298,19.0356
17.2446,19.1496
17.1306,19.2348
16.9973,19.2846
16.8910,19.2960
Z" /> 
</g>
<g >
</g>
<g >
</g>
<g style="fill:#37CBCB; fill-opacity:1.0000; 
stroke:#37CBCB; stroke-width:0.0000; stroke-opacity:1; 
stroke-linecap:round; stroke-linejoin:round;">
<path style="fill:#37CBCB; fill-opacity:1.0000; 
stroke:#37CBCB; stroke-width:0.0000; stroke-opacity:1; 
stroke-linecap:round; stroke-linejoin:round;fill-rule:evenodd;"
d="M 7.2850,20.8400
7.2850,22.3400
6.0450,22.3400
6.0450,20.8400
Z" /> 
<path style="fill:#37CBCB; fill-opacity:1.0000; 
stroke:#37CBCB; stroke-width:0.0000; stroke-opacity:1; 
stroke-linecap:round; stroke-linejoin:round;fill-rule:evenodd;"
d="M 5.3850,20.8400
5.3850,22.3400
4.1450,22.3400
4.1450,20.8400
Z" /> 
</g>
<g >
</g>
<g style="fill:#37CBCB; fill-opacity:1.0000; 
stroke:#37CBCB; stroke-width:0.0000; stroke-opacity:1; 
stroke-linecap:round; stroke-linejoin:round;">
<path style="fill:#37CBCB; fill-opacity:1.0000; 
stroke:#37CBCB; stroke-width:0.0000; stroke-opacity:1; 
stroke-linecap:round; stroke-linejoin:round;fill-rule:evenodd;"
d="M 6.0960,3.2940
5.9897,3.2826
5.8564,3.2328
5.7424,3.1476
5.6572,3.0336
5.6074,2.9003
5.5960,2.7940
5.6074,2.6877
5.6572,2.5544
5.7424,2.4404
5.8564,2.3552
5.9897,2.3054
6.0960,2.2940
6.2023,2.3054
6.3356,2.3552
6.4496,2.4404
6.5348,2.5544
6.5846,2.6877
6.5960,2.7940
6.5846,2.9003
6.5348,3.0336
6.4496,3.1476
6.3356,3.2328
6.2023,3.2826
6.0960,3.2940
Z" /> 
</g>
<g >
</g>
<g style="fill:#37CBCB; fill-opacity:1.0000; 
stroke:#37CBCB; stroke-width:0.0000; stroke-opacity:1; 
stroke-linecap:round; stroke-linejoin:round;">
<path style="fill:#37CBCB; fill-opacity:1.0000; 
stroke:#37CBCB; stroke-width:0.0000; stroke-opacity:1; 
stroke-linecap:round; stroke-linejoin:round;fill-rule:evenodd;"
d="M 1.7316,9.4740
1.7316,6.2740
4.9316,6.2740
4.9316,9.4740
Z" /> 
<path style="fill:#37CBCB; fill-opacity:1.0000; 
stroke:#37CBCB; stroke-width:0.0000; stroke-opacity:1; 
stroke-linecap:round; stroke-linejoin:round;fill-rule:evenodd;"
d="M 18.1824,9.4740
18.1824,6.2740
21.3824,6.2740
21.3824,9.4740
Z" /> 
<path style="fill:#37CBCB; fill-opacity:1.0000; 
stroke:#37CBCB; stroke-width:0.0000; stroke-opacity:1; 
stroke-linecap:round; stroke-linejoin:round;fill-rule:evenodd;"
d="M 8.3820,7.8740
8.4020,7.5185
8.4616,7.1675
8.5602,6.8254
8.6964,6.4964
8.8687,6.1848
9.0747,5.8944
9.3119,5.6289
9.5774,5.3917
9.8678,5.1857
10.1794,5.0134
10.5084,4.8772
10.8505,4.7786
11.2015,4.7190
11.5570,4.6990
11.9125,4.7190
12.2635,4.7786
12.6056,4.8772
12.9346,5.0134
13.2462,5.1857
13.5366,5.3917
13.8021,5.6289
14.0393,5.8944
14.2453,6.1848
14.4176,6.4964
14.5538,6.8254
14.6524,7.1675
14.7120,7.5185
14.7320,7.8740
14.7120,8.2295
14.6524,8.5805
14.5538,8.9226
14.4176,9.2516
14.2453,9.5632
14.0393,9.8536
13.8021,10.1191
13.5366,10.3563
13.2462,10.5623
12.9346,10.7346
12.6056,10.8708
12.2635,10.9694
11.9125,11.0290
11.5570,11.0490
11.2015,11.0290
10.8505,10.9694
10.5084,10.8708
10.1794,10.7346
9.8678,10.5623
9.5774,10.3563
9.3119,10.1191
9.0747,9.8536
8.8687,9.5632
8.6964,9.2516
8.5602,8.9226
8.4616,8.5805
8.4020,8.2295
8.3820,7.8740
Z" /> 
</g>
<g >
</g>
<g >
</g>
<g >
</g>
<g >
</g>
<g >
</g>
<g style="fill:#121212; fill-opacity:1.0000; 
stroke:#121212; stroke-width:0.0000; stroke-opacity:1; 
stroke-linecap:round; stroke-linejoin:round;">
<circle cx="5.2070" cy="14.7320" r="0.4532" /> 
</g>
<g style="fill:#121212; fill-opacity:1.0000; 
stroke:#121212; stroke-width:0.0212; stroke-opacity:1; 
stroke-linecap:round; stroke-linejoin:round;">
</g>
<g style="fill:#121212; fill-opacity:1.0000; 
stroke:#121212; stroke-width:0.0000; stroke-opacity:1; 
stroke-linecap:round; stroke-linejoin:round;">
<circle cx="7.6200" cy="20.1930" r="0.4532" /> 
</g>
<g style="fill:#121212; fill-opacity:1.0000; 
stroke:#121212; stroke-width:0.0212; stroke-opacity:1; 
stroke-linecap:round; stroke-linejoin:round;">
</g>
<g style="fill:#121212; fill-opacity:1.0000; 
stroke:#121212; stroke-width:0.0000; stroke-opacity:1; 
stroke-linecap:round; stroke-linejoin:round;">
<circle cx="1.2700" cy="20.3200" r="0.4532" /> 
</g>
<g style="fill:#121212; fill-opacity:1.0000; 
stroke:#121212; stroke-width:0.0212; stroke-opacity:1; 
stroke-linecap:round; stroke-linejoin:round;">
</g>
<g style="fill:#121212; fill-opacity:1.0000; 
stroke:#121212; stroke-width:0.0000; stroke-opacity:1; 
stroke-linecap:round; stroke-linejoin:round;">
<circle cx="1.2700" cy="14.9860" r="0.4532" /> 
</g>
<g style="fill:#121212; fill-opacity:1.0000; 
stroke:#121212; stroke-width:0.0212; stroke-opacity:1; 
stroke-linecap:round; stroke-linejoin:round;">
</g>
<g >
</g>
<g style="fill:#37CBCB; fill-opacity:1.0000; 
stroke:#37CBCB; stroke-width:0.0212; stroke-opacity:1; 
stroke-linecap:round; stroke-linejoin:round;">
</g>
<g style="fill:#37CBCB; fill-opacity:1.0000; 
stroke:#37CBCB; stroke-width:0.4064; stroke-opacity:1; 
stroke-linecap:round; stroke-linejoin:round;">
</g>
<g style="fill:#37CBCB; fill-opacity:0.0; 
stroke:#37CBCB; stroke-width:0.4064; stroke-opacity:1; 
stroke-linecap:round; stroke-linejoin:round;">
<path d="M6.0960 19.6850
L5.4010 19.6850
" />
<path d="M6.6040 23.8760
L6.6040 21.6510
" />
<path d="M6.6650 20.2540
L6.0960 19.6850
" />
<path d="M6.6650 21.5900
L6.6650 20.2540
" />
<path d="M6.6040 21.6510
L6.6650 21.5900
" />
</g>
<g style="fill:#37CBCB; fill-opacity:0.0; 
stroke:#37CBCB; stroke-width:0.2540; stroke-opacity:1; 
stroke-linecap:round; stroke-linejoin:round;">
<path d="M2.7940 16.6980
L3.3680 16.6980
" />
<path d="M5.2070 15.6810
L5.4010 15.8750
" />
<path d="M5.2070 14.7320
L5.2070 15.6810
" />
<path d="M4.1910 15.8750
L5.4010 15.8750
" />
<path d="M3.3680 16.6980
L4.1910 15.8750
" />
<path d="M8.5090 20.5740
L8.5090 17.7800
" />
<path d="M8.5090 17.7800
L7.8740 17.1450
" />
<path d="M3.2360 18.4810
L4.5720 17.1450
" />
<path d="M11.6840 23.8760
L11.6840 23.7490
" />
<path d="M11.6840 23.7490
L8.5090 20.5740
" />
<path d="M4.5720 17.1450
L5.4010 17.1450
" />
<path d="M2.7940 18.4810
L3.2360 18.4810
" />
<path d="M7.8740 17.1450
L5.4010 17.1450
" />
</g>
<g style="fill:#37CBCB; fill-opacity:0.0; 
stroke:#37CBCB; stroke-width:0.4064; stroke-opacity:1; 
stroke-linecap:round; stroke-linejoin:round;">
<path d="M9.2710 17.1450
L3.3316 11.2056
" />
<path d="M9.2710 17.1450
L10.6010 17.1450
" />
<path d="M3.3316 11.2056
L3.3316 7.8740
" />
</g>
<g style="fill:#37CBCB; fill-opacity:0.0; 
stroke:#37CBCB; stroke-width:0.2540; stroke-opacity:1; 
stroke-linecap:round; stroke-linejoin:round;">
<path d="M7.6200 19.0500
L6.9850 18.4150
" />
<path d="M7.6200 20.1930
L7.6200 19.0500
" />
<path d="M5.4010 18.4150
L6.9850 18.4150
" />
<path d="M1.3310 20.3810
L2.7940 20.3810
" />
<path d="M1.2700 20.3200
L1.3310 20.3810
" />
<path d="M1.4580 14.7980
L2.7940 14.7980
" />
<path d="M1.2700 14.9860
L1.4580 14.7980
" />
</g>
<g style="fill:#37CBCB; fill-opacity:0.0; 
stroke:#37CBCB; stroke-width:0.4064; stroke-opacity:1; 
stroke-linecap:round; stroke-linejoin:round;">
<path d="M10.6010 19.6850
L12.7950 19.6850
" />
<path d="M12.7950 19.6850
L13.6330 20.5230
" />
<path d="M12.5410 18.4150
L13.6330 17.3230
" />
<path d="M10.6010 18.4150
L12.5410 18.4150
" />
</g>
<g >
</g>
<g style="fill:#37CBCB; fill-opacity:0.0; 
stroke:#37CBCB; stroke-width:0.4064; stroke-opacity:1; 
stroke-linecap:round; stroke-linejoin:round;">
<g >
</g>
<g style="fill:#37CBCB; fill-opacity:1.0000; 
stroke:#37CBCB; stroke-width:0.0000; stroke-opacity:1; 
stroke-linecap:round; stroke-linejoin:round;">
<path style="fill:#37CBCB; fill-opacity:1.0000; 
stroke:#37CBCB; stroke-width:0.0000; stroke-opacity:1; 
stroke-linecap:round; stroke-linejoin:round;fill-rule:evenodd;"
d="M 5.9070,1.5348
6.4055,2.0333
6.4238,2.0775
6.4055,2.1217
6.3613,2.1400
6.3427,2.1371
6.2232,2.0999
6.2232,2.0999
6.1526,2.0935
6.1526,2.0935
6.0394,2.0935
6.0394,2.0935
5.9688,2.0999
5.8064,2.1505
5.6608,2.2385
5.5405,2.3588
5.4525,2.5044
5.4019,2.6668
5.3955,2.7374
5.3955,2.8506
5.4019,2.9212
5.4329,3.0207
5.4525,3.0836
5.5405,3.2292
5.6608,3.3495
5.8064,3.4375
5.9688,3.4881
6.0394,3.4945
6.0394,3.4945
6.0394,3.4945
6.1526,3.4945
6.1526,3.4945
6.2232,3.4881
6.3856,3.4375
6.5312,3.3495
6.6515,3.2292
6.7395,3.0836
6.7901,2.9212
6.7965,2.8506
6.7965,2.8506
6.7965,2.7374
6.7965,2.7374
6.7901,2.6668
6.7742,2.6159
6.7529,2.5473
6.7572,2.4997
6.7939,2.4691
6.8416,2.4734
6.8567,2.4845
7.3928,3.0206
7.3928,3.0207
7.4111,3.0390
7.5168,3.1446
7.7477,3.3341
7.9961,3.5001
7.9961,3.5001
7.9961,3.5001
8.0962,3.5536
8.2596,3.6409
8.5355,3.7552
8.5355,3.7552
8.5355,3.7552
8.5356,3.7552
8.8214,3.8419
8.8214,3.8419
8.8214,3.8419
8.8996,3.8575
9.1144,3.9002
9.1144,3.9002
9.1144,3.9002
9.1144,3.9002
9.2659,3.9151
9.4117,3.9295
9.4117,3.9295
13.5898,3.9295
13.5898,3.9295
13.7023,3.9295
13.7023,3.9295
13.8955,3.9105
13.9996,3.9002
13.9996,3.9002
13.9996,3.9002
14.2926,3.8419
14.5784,3.7552
14.8544,3.6409
15.1179,3.5001
15.3663,3.3341
15.5972,3.1446
15.7029,3.0390
15.7494,2.9924
15.7790,2.9628
15.7790,2.9628
17.2070,1.5348
17.2512,1.5165
19.2381,1.5165
19.3030,1.5165
19.3050,1.5166
19.3661,1.5206
19.5682,1.5338
19.5722,1.5343
19.5745,1.5348
19.8299,1.5856
19.8338,1.5866
20.0415,1.6572
20.0825,1.6711
20.0863,1.6727
20.3219,1.7888
20.3255,1.7909
20.4084,1.8463
20.5439,1.9368
20.5471,1.9393
20.7446,2.1125
20.7475,2.1154
20.8555,2.2385
20.9207,2.3129
20.9232,2.3161
20.9517,2.3588
21.0490,2.5044
21.0691,2.5345
21.0712,2.5381
21.1873,2.7737
21.1889,2.7775
21.2228,2.8774
21.2733,3.0262
21.2744,3.0301
21.3257,3.2878
21.3262,3.2918
21.3434,3.5550
21.3435,3.5570
21.3435,6.0110
21.3252,6.0552
21.2810,6.0735
18.1627,6.0735
18.1042,6.0851
18.1042,6.0851
18.0378,6.1294
17.9935,6.1958
17.9935,6.1958
17.9819,6.2543
17.9819,9.4937
17.9935,9.5522
17.9935,9.5522
18.0378,9.6186
18.1042,9.6629
18.1042,9.6629
18.1627,9.6745
21.2810,9.6745
21.3252,9.6928
21.3435,9.7370
21.3435,23.2344
21.3252,23.2786
21.2810,23.2969
21.2368,23.2786
21.2223,23.2550
21.2221,23.2550
21.2217,23.2540
21.2216,23.2537
21.2213,23.2530
21.2213,23.2530
21.1160,22.9922
20.9753,22.7487
20.8022,22.5270
20.5999,22.3317
20.3723,22.1663
20.3723,22.1663
20.3723,22.1663
20.1240,22.0343
20.1240,22.0343
19.8597,21.9381
19.8597,21.9381
19.8597,21.9381
19.8243,21.9306
19.5846,21.8796
19.5846,21.8796
19.3268,21.8616
19.3040,21.8600
19.3040,21.8600
19.0234,21.8796
19.0234,21.8796
18.7483,21.9381
18.7483,21.9381
18.7483,21.9381
18.7483,21.9381
18.4840,22.0343
18.4840,22.0343
18.2357,22.1663
18.2357,22.1663
18.0081,22.3317
17.8058,22.5270
17.6327,22.7487
17.4920,22.9922
17.4920,22.9922
17.3867,23.2530
17.3186,23.5259
17.2892,23.8056
17.2917,23.8760
17.2990,24.0867
17.2990,24.0867
17.3479,24.3637
17.3479,24.3637
17.4348,24.6312
17.5581,24.8840
17.5581,24.8840
17.7154,25.1172
17.9036,25.3262
17.9036,25.3262
18.1190,25.5070
18.2622,25.5965
18.3575,25.6560
18.3575,25.6560
18.3575,25.6560
18.6145,25.7704
18.6930,25.7929
18.7304,25.8227
18.7358,25.8702
18.7060,25.9077
18.6757,25.9155
2.7950,25.9155
2.7930,25.9154
2.7815,25.9147
2.5298,25.8982
2.5258,25.8977
2.3090,25.8545
2.2681,25.8464
2.2642,25.8453
2.1687,25.8129
2.0155,25.7609
2.0117,25.7593
1.7761,25.6432
1.7725,25.6411
1.5541,25.4952
1.5509,25.4927
1.3534,25.3195
1.3505,25.3166
1.1773,25.1191
1.1748,25.1159
1.0466,24.9240
1.0289,24.8974
1.0268,24.8939
1.0219,24.8840
0.9107,24.6583
0.9091,24.6545
0.8952,24.6135
0.8246,24.4058
0.8236,24.4019
0.7723,24.1442
0.7718,24.1402
0.7546,23.8770
0.7545,23.8750
0.7545,20.8755
0.7728,20.8313
0.8170,20.8130
0.8584,20.8287
0.8959,20.8619
1.0365,20.9357
1.1906,20.9737
1.3494,20.9737
1.5035,20.9357
1.6441,20.8619
1.7396,20.7773
1.7848,20.7617
1.8278,20.7827
1.8435,20.8241
1.8435,21.0207
1.8551,21.0792
1.8551,21.0792
1.8994,21.1456
1.9658,21.1899
1.9658,21.1899
2.0243,21.2015
3.5637,21.2015
3.6222,21.1899
3.6886,21.1456
3.7265,21.0887
3.7663,21.0621
3.8132,21.0715
3.8398,21.1112
3.8410,21.1234
3.8410,22.2990
4.5500,21.5900
4.9800,21.5900
5.6890,22.2990
5.6890,22.2990
5.6890,20.8810
5.6890,20.8810
4.9800,21.5900
4.9800,21.5900
4.5500,21.5900
4.5500,21.5900
3.8410,20.8810
3.8309,20.8851
3.7831,20.8851
3.7493,20.8513
3.7445,20.8274
3.7445,20.5834
3.9734,20.5834
4.7650,21.3750
5.5566,20.5834
5.4558,20.5389
5.4558,20.5389
5.4304,20.5360
4.0996,20.5360
4.0742,20.5389
4.0742,20.5389
3.9734,20.5834
3.9734,20.5834
3.7445,20.5834
3.7445,19.7413
3.7329,19.6828
3.7329,19.6828
3.6886,19.6164
3.6222,19.5721
3.6222,19.5721
3.5637,19.5605
2.0243,19.5605
1.9658,19.5721
1.9658,19.5721
1.8994,19.6164
1.8551,19.6828
1.8551,19.6828
1.8435,19.7413
1.8435,19.8159
1.8252,19.8601
1.7810,19.8784
1.7396,19.8627
1.6441,19.7781
1.5035,19.7043
1.5035,19.7043
1.5035,19.7043
1.3978,19.6782
1.3494,19.6663
1.3494,19.6663
1.1906,19.6663
1.1906,19.6663
1.1238,19.6828
1.0365,19.7043
1.0365,19.7043
1.0365,19.7043
0.8959,19.7781
0.8584,19.8113
0.8132,19.8269
0.7702,19.8059
0.7545,19.7645
0.7545,15.5415
0.7728,15.4973
0.8170,15.4790
0.8584,15.4947
0.8959,15.5279
1.0365,15.6017
1.1906,15.6397
1.3494,15.6397
1.5035,15.6017
1.6441,15.5279
1.7474,15.4364
1.7926,15.4208
1.8356,15.4418
1.8501,15.4710
1.8551,15.4962
1.8551,15.4962
1.8994,15.5626
1.9658,15.6069
1.9658,15.6069
2.0243,15.6185
3.5637,15.6185
3.6222,15.6069
3.6886,15.5626
3.7329,15.4962
3.7445,15.4377
3.7445,14.1583
3.7329,14.0998
3.7329,14.0998
3.6886,14.0334
3.6222,13.9891
3.6222,13.9891
3.5637,13.9775
2.0243,13.9775
1.9658,13.9891
1.9658,13.9891
1.8994,14.0334
1.8551,14.0998
1.8551,14.0998
1.8435,14.1583
1.8435,14.4080
1.8252,14.4522
1.7810,14.4705
1.6976,14.4705
1.6562,14.4548
1.6441,14.4441
1.5035,14.3703
1.5035,14.3703
1.5035,14.3703
1.3998,14.3447
1.3494,14.3323
1.3494,14.3323
1.1906,14.3323
1.1906,14.3323
1.0898,14.3572
1.0365,14.3703
1.0365,14.3703
1.0365,14.3703
0.8959,14.4441
0.8584,14.4773
0.8132,14.4929
0.7702,14.4719
0.7545,14.4305
0.7545,9.4937
1.5311,9.4937
1.5427,9.5522
1.5427,9.5522
1.5870,9.6186
1.6534,9.6629
1.6534,9.6629
1.7119,9.6745
2.8654,9.6745
2.9096,9.6928
2.9279,9.7370
2.9279,11.2695
2.9363,11.2955
2.9386,11.3050
2.9429,11.3319
2.9429,11.3319
2.9552,11.3562
2.9590,11.3652
2.9674,11.3912
2.9834,11.4132
2.9886,11.4216
3.0009,11.4458
5.6360,14.0809
5.6543,14.1251
5.6360,14.1693
5.5918,14.1876
5.5628,14.1805
5.4405,14.1163
5.4405,14.1163
5.4405,14.1163
5.2970,14.0809
5.2864,14.0783
5.2864,14.0783
5.1276,14.0783
5.1276,14.0783
5.0268,14.1032
4.9735,14.1163
4.9735,14.1163
4.9735,14.1163
4.8329,14.1901
4.7141,14.2953
4.7141,14.2953
4.6239,14.4260
4.5676,14.5744
4.5676,14.5744
4.5485,14.7320
4.5485,14.7320
4.5676,14.8896
4.5676,14.8896
4.5676,14.8896
4.5676,14.8896
4.6121,15.0068
4.6239,15.0380
4.7141,15.1687
4.7141,15.1687
4.8231,15.2652
4.8440,15.3082
4.8284,15.3534
4.7854,15.3744
4.7816,15.3745
4.2813,15.3745
4.2228,15.3861
4.2228,15.3861
4.1564,15.4304
4.1121,15.4968
4.1121,15.4968
4.1074,15.5205
4.0808,15.5603
4.0774,15.5624
4.0717,15.5657
4.0567,15.5719
4.0505,15.5736
4.0160,15.5977
4.0137,15.5992
3.9772,15.6202
3.9772,15.6203
3.9502,15.6525
3.9483,15.6545
3.7133,15.8895
3.6691,15.9078
3.6344,15.8973
3.6222,15.8891
3.6222,15.8891
3.5637,15.8775
2.0243,15.8775
1.9658,15.8891
1.9658,15.8891
1.8994,15.9334
1.8551,15.9998
1.8551,15.9998
1.8435,16.0583
1.8435,17.3377
1.8551,17.3962
1.8551,17.3962
1.8994,17.4626
1.9658,17.5069
1.9658,17.5069
2.0243,17.5185
3.5637,17.5185
3.5637,17.5185
3.5759,17.5161
3.6228,17.5254
3.6494,17.5652
3.6400,17.6121
3.6323,17.6216
3.6116,17.6423
3.5674,17.6606
3.5662,17.6605
3.5637,17.6605
2.0243,17.6605
1.9658,17.6721
1.9658,17.6721
1.8994,17.7164
1.8551,17.7828
1.8551,17.7828
1.8435,17.8413
1.8435,19.1207
1.8551,19.1792
1.8551,19.1792
1.8994,19.2456
1.9658,19.2899
1.9658,19.2899
2.0243,19.3015
3.5637,19.3015
3.6222,19.2899
3.6886,19.2456
3.7329,19.1792
3.7445,19.1207
3.7445,18.4615
3.7628,18.4173
3.9938,18.1863
4.0380,18.1680
4.0822,18.1863
4.1005,18.2305
4.1005,18.7347
4.1121,18.7932
4.1121,18.7932
4.1564,18.8596
4.2228,18.9039
4.2228,18.9039
4.2813,18.9155
6.5207,18.9155
6.5792,18.9039
6.6456,18.8596
6.6899,18.7932
6.6900,18.7928
6.6902,18.7924
6.6922,18.7875
6.6932,18.7879
6.7165,18.7530
6.7512,18.7425
6.8235,18.7425
6.8677,18.7608
7.2742,19.1673
7.2925,19.2115
7.2925,19.5888
7.2742,19.6330
7.2590,19.6442
7.2459,19.6511
7.1271,19.7563
7.1271,19.7563
7.0369,19.8870
7.0250,19.9184
6.9922,19.9533
6.9444,19.9547
6.9224,19.9405
6.9140,19.9321
6.9140,19.9321
6.7198,19.7379
6.7015,19.6937
6.7015,19.3653
6.6899,19.3068
6.6899,19.3068
6.6456,19.2404
6.5792,19.1961
6.5792,19.1961
6.5207,19.1845
4.2813,19.1845
4.2228,19.1961
4.2228,19.1961
4.1564,19.2404
4.1121,19.3068
4.1121,19.3068
4.1005,19.3653
4.1005,20.0047
4.1121,20.0632
4.1121,20.0632
4.1564,20.1296
4.2228,20.1739
4.2228,20.1739
4.2813,20.1855
5.9997,20.1855
6.0439,20.2038
6.2430,20.4029
6.2613,20.4471
6.2613,20.5770
6.2430,20.6212
6.1988,20.6395
6.0253,20.6395
5.9668,20.6511
5.9668,20.6511
5.9004,20.6954
5.8561,20.7618
5.8561,20.7618
5.8445,20.8203
5.8445,22.3597
5.8561,22.4182
5.8561,22.4182
5.9004,22.4846
5.9668,22.5289
5.9668,22.5289
6.0253,22.5405
6.1378,22.5405
6.1820,22.5588
6.2003,22.6030
6.2003,22.7395
6.1820,22.7837
6.1604,22.7977
6.0822,22.8280
5.8985,22.9418
5.7388,23.0873
5.7388,23.0873
5.6087,23.2597
5.5124,23.4531
5.4532,23.6609
5.4532,23.6609
5.4483,23.7139
5.4260,23.7562
5.3803,23.7703
5.3380,23.7480
5.3238,23.7135
5.3187,23.6548
5.3187,23.6548
5.2612,23.4403
5.2612,23.4403
5.1674,23.2390
5.0638,23.0911
4.5099,23.6450
4.4458,23.5452
4.3371,23.4510
4.2938,23.4313
4.8489,22.8762
4.7010,22.7726
4.6807,22.7631
4.6483,22.7279
4.6504,22.6801
4.6857,22.6478
4.7071,22.6440
5.4304,22.6440
5.4558,22.6410
5.4558,22.6410
5.5566,22.5966
4.7650,21.8050
3.9666,22.6034
3.9666,22.6034
3.9666,22.6034
3.9404,22.6296
3.8962,22.6479
3.8520,22.6296
3.8453,22.6213
3.8449,22.6211
3.8428,22.6213
3.6283,22.6788
3.6283,22.6788
3.4270,22.7726
3.2791,22.8762
3.2791,22.8762
3.8342,23.4313
3.7909,23.4510
3.6822,23.5452
3.6181,23.6450
3.0642,23.0911
3.0642,23.0911
2.9606,23.2390
2.8668,23.4403
2.8668,23.4403
2.8093,23.6548
2.8093,23.6548
2.7900,23.8760
2.7900,23.8760
2.8093,24.0972
2.8093,24.0972
2.8668,24.3117
2.8668,24.3117
2.9606,24.5130
3.0642,24.6609
3.6181,24.1070
3.6822,24.2068
3.7909,24.3010
3.8342,24.3207
3.2791,24.8758
3.4270,24.9794
3.6283,25.0732
3.6283,25.0732
3.8428,25.1307
3.8428,25.1307
4.0640,25.1500
4.0640,25.1500
4.2852,25.1307
4.2852,25.1307
4.4997,25.0732
4.4997,25.0732
4.7010,24.9794
4.8489,24.8758
4.2938,24.3207
4.3371,24.3010
4.4458,24.2068
4.5099,24.1070
5.0638,24.6609
5.1674,24.5130
5.2612,24.3117
5.2612,24.3117
5.3187,24.0972
5.3187,24.0972
5.3238,24.0385
5.3459,23.9960
5.3915,23.9816
5.4340,24.0037
5.4483,24.0381
5.4532,24.0911
5.4532,24.0911
5.5124,24.2989
5.6087,24.4923
5.7090,24.6252
5.7383,24.6640
5.7388,24.6647
5.8471,24.7634
5.8985,24.8102
5.8985,24.8102
5.8985,24.8102
6.0822,24.9240
6.0822,24.9240
6.0822,24.9240
6.0822,24.9240
6.2252,24.9794
6.2836,25.0020
6.4960,25.0417
6.4960,25.0417
6.7120,25.0417
6.7120,25.0417
6.9244,25.0020
7.1258,24.9240
7.3095,24.8102
7.4692,24.6647
7.5993,24.4923
7.6956,24.2989
7.7548,24.0911
7.7548,24.0910
7.7747,23.8760
7.9733,23.8760
7.9932,24.0911
7.9932,24.0911
8.0524,24.2989
8.0524,24.2989
8.1487,24.4923
8.2490,24.6252
8.2783,24.6640
8.2788,24.6647
8.3871,24.7634
8.4385,24.8102
8.4385,24.8102
8.4385,24.8102
8.6222,24.9240
8.6222,24.9240
8.6222,24.9240
8.6222,24.9240
8.7652,24.9794
8.8236,25.0020
9.0360,25.0417
9.0360,25.0417
9.2520,25.0417
9.2520,25.0417
9.4644,25.0020
9.6658,24.9240
9.8495,24.8102
10.0092,24.6647
10.1393,24.4923
10.2356,24.2989
10.2948,24.0911
10.2948,24.0910
10.3147,23.8760
10.3147,23.8760
10.2948,23.6609
10.2948,23.6609
10.2618,23.5452
10.2356,23.4531
10.1393,23.2597
10.0092,23.0873
9.9049,22.9922
9.8495,22.9418
9.8495,22.9418
9.8495,22.9418
9.6658,22.8280
9.6658,22.8280
9.6658,22.8280
9.6658,22.8280
9.4644,22.7500
9.2520,22.7103
9.2520,22.7103
9.0360,22.7103
9.0360,22.7103
8.8236,22.7500
8.6222,22.8280
8.4385,22.9418
8.2788,23.0873
8.2788,23.0873
8.1487,23.2597
8.0524,23.4531
7.9932,23.6609
7.9932,23.6609
7.9733,23.8760
7.9733,23.8760
7.7747,23.8760
7.7747,23.8760
7.7548,23.6609
7.7548,23.6609
7.7218,23.5452
7.6956,23.4531
7.5993,23.2597
7.4692,23.0873
7.3649,22.9922
7.3095,22.9418
7.3095,22.9418
7.3095,22.9418
7.1258,22.8280
7.1258,22.8280
7.1258,22.8280
7.0476,22.7977
7.0130,22.7647
7.0077,22.7395
7.0077,22.6030
7.0260,22.5588
7.0702,22.5405
7.3047,22.5405
7.3632,22.5289
7.4296,22.4846
7.4739,22.4182
7.4855,22.3597
7.4855,20.9092
7.5038,20.8650
7.5480,20.8467
7.6994,20.8467
7.8535,20.8087
7.9941,20.7349
8.0927,20.6475
8.1380,20.6319
8.1810,20.6529
8.1957,20.6834
8.1963,20.6867
8.1965,20.6877
8.1997,20.6933
8.2059,20.7084
8.2076,20.7145
8.2076,20.7145
8.2317,20.7490
8.2332,20.7513
8.2542,20.7878
8.2843,20.8130
8.2865,20.8148
8.2885,20.8166
9.5061,22.0343
10.6711,23.1993
10.6894,23.2435
10.6829,23.2713
10.5924,23.4531
10.5332,23.6609
10.5332,23.6609
10.5133,23.8760
10.5133,23.8760
10.5332,24.0911
10.5332,24.0911
10.5924,24.2989
10.5924,24.2989
10.6887,24.4923
10.7890,24.6252
10.8183,24.6640
10.8188,24.6647
10.9271,24.7634
10.9785,24.8102
10.9785,24.8102
10.9785,24.8102
11.1622,24.9240
11.1622,24.9240
11.1622,24.9240
11.1622,24.9240
11.3052,24.9794
11.3636,25.0020
11.5760,25.0417
11.5760,25.0417
11.7920,25.0417
11.7920,25.0417
12.0044,25.0020
12.2058,24.9240
12.3895,24.8102
12.5492,24.6647
12.6793,24.4923
12.7756,24.2989
12.8348,24.0911
12.8348,24.0910
12.8547,23.8760
13.0533,23.8760
13.0732,24.0911
13.0732,24.0911
13.1324,24.2989
13.1324,24.2989
13.2287,24.4923
13.3290,24.6252
13.3583,24.6640
13.3588,24.6647
13.4671,24.7634
13.5185,24.8102
13.5185,24.8102
13.5185,24.8102
13.7022,24.9240
13.7022,24.9240
13.7022,24.9240
13.7022,24.9240
13.8452,24.9794
13.9036,25.0020
14.1160,25.0417
14.1160,25.0417
14.3320,25.0417
14.3320,25.0417
14.5444,25.0020
14.7458,24.9240
14.9295,24.8102
15.0892,24.6647
15.2193,24.4923
15.3156,24.2989
15.3748,24.0911
15.3748,24.0910
15.3947,23.8760
15.3947,23.8760
15.3748,23.6609
15.3748,23.6609
15.3418,23.5452
15.3156,23.4531
15.2193,23.2597
15.0892,23.0873
14.9849,22.9922
14.9295,22.9418
14.9295,22.9418
14.9295,22.9418
14.7458,22.8280
14.7458,22.8280
14.7458,22.8280
14.7458,22.8280
14.5444,22.7500
14.3320,22.7103
14.3320,22.7103
14.1160,22.7103
14.1160,22.7103
13.9036,22.7500
13.7022,22.8280
13.5185,22.9418
13.3588,23.0873
13.3588,23.0873
13.2287,23.2597
13.1324,23.4531
13.0732,23.6609
13.0732,23.6609
13.0533,23.8760
13.0533,23.8760
12.8547,23.8760
12.8547,23.8760
12.8348,23.6609
12.8348,23.6609
12.8018,23.5452
12.7756,23.4531
12.6793,23.2597
12.5492,23.0873
12.4449,22.9922
12.3895,22.9418
12.3895,22.9418
12.3895,22.9418
12.2058,22.8280
12.2058,22.8280
12.2058,22.8280
12.2058,22.8280
12.0044,22.7500
11.7920,22.7103
11.7920,22.7103
11.5760,22.7103
11.5760,22.7103
11.3636,22.7500
11.2463,22.7955
11.1985,22.7943
11.1795,22.7814
8.8548,20.4567
8.8365,20.4125
8.8365,20.0047
9.3005,20.0047
9.3121,20.0632
9.3121,20.0632
9.3564,20.1296
9.4228,20.1739
9.4228,20.1739
9.4813,20.1855
11.7207,20.1855
11.7792,20.1739
11.8456,20.1296
11.8543,20.1165
11.8941,20.0899
11.9063,20.0887
12.6019,20.0887
12.6461,20.1070
12.7642,20.2251
12.7825,20.2693
12.7825,21.4927
12.7941,21.5512
12.7941,21.5512
12.8384,21.6176
12.9048,21.6619
12.9048,21.6619
12.9633,21.6735
14.3027,21.6735
14.3612,21.6619
14.4276,21.6176
14.4719,21.5512
14.4835,21.4927
18.2825,21.4927
18.2941,21.5512
18.2941,21.5512
18.3384,21.6176
18.4048,21.6619
18.4048,21.6619
18.4633,21.6735
19.8027,21.6735
19.8612,21.6619
19.9276,21.6176
19.9719,21.5512
19.9835,21.4927
19.9835,19.5533
19.9719,19.4948
19.9687,19.4901
19.9276,19.4284
19.8612,19.3841
19.8612,19.3841
19.8027,19.3725
18.4633,19.3725
18.4048,19.3841
18.4048,19.3841
18.3384,19.4284
18.2941,19.4948
18.2941,19.4948
18.2825,19.5533
18.2825,21.4927
14.4835,21.4927
14.4835,19.5533
14.4719,19.4948
14.4687,19.4901
14.4276,19.4284
14.3612,19.3841
14.3612,19.3841
14.3027,19.3725
13.0793,19.3725
13.0400,19.3562
13.0392,19.3572
13.0352,19.3543
13.0110,19.3420
13.0026,19.3368
12.9806,19.3208
12.9546,19.3124
12.9456,19.3086
12.9213,19.2963
12.9213,19.2963
12.8944,19.2920
12.8849,19.2897
12.8589,19.2813
12.8268,19.2813
11.9063,19.2813
11.8621,19.2630
11.8543,19.2535
11.8456,19.2404
11.7792,19.1961
11.7792,19.1961
11.7207,19.1845
9.4813,19.1845
9.4228,19.1961
9.4228,19.1961
9.3564,19.2404
9.3121,19.3068
9.3121,19.3068
9.3005,19.3653
9.3005,20.0047
8.8365,20.0047
8.8365,18.7347
9.3005,18.7347
9.3121,18.7932
9.3121,18.7932
9.3564,18.8596
9.4228,18.9039
9.4228,18.9039
9.4813,18.9155
11.7207,18.9155
11.7792,18.9039
11.8456,18.8596
11.8502,18.8526
16.1905,18.8526
16.1969,18.9232
16.2409,19.0643
16.2475,19.0856
16.3355,19.2312
16.4558,19.3515
16.6014,19.4395
16.7638,19.4901
16.8344,19.4965
16.8344,19.4965
16.8344,19.4965
16.9476,19.4965
16.9476,19.4965
17.0182,19.4901
17.1806,19.4395
17.3262,19.3515
17.4465,19.2312
17.5345,19.0856
17.5851,18.9232
17.5915,18.8526
17.5915,18.8526
17.5915,18.7394
17.5915,18.7394
17.5851,18.6688
17.5851,18.6688
17.5345,18.5064
17.4465,18.3608
17.3784,18.2927
18.2825,18.2927
18.2941,18.3512
18.2941,18.3512
18.3384,18.4176
18.4048,18.4619
18.4048,18.4619
18.4633,18.4735
19.8027,18.4735
19.8612,18.4619
19.9276,18.4176
19.9719,18.3512
19.9835,18.2927
19.9835,16.3533
19.9810,16.3408
19.9719,16.2948
19.9719,16.2948
19.9276,16.2284
19.8612,16.1841
19.8612,16.1841
19.8027,16.1725
18.4633,16.1725
18.4048,16.1841
18.4048,16.1841
18.3384,16.2284
18.2941,16.2948
18.2941,16.2948
18.2825,16.3533
18.2825,18.2927
17.3784,18.2927
17.3262,18.2405
17.1806,18.1525
17.0557,18.1136
17.0182,18.1019
17.0182,18.1019
16.9476,18.0955
16.9476,18.0955
16.8344,18.0955
16.8344,18.0955
16.7638,18.1019
16.6014,18.1525
16.4558,18.2405
16.3355,18.3608
16.2475,18.5064
16.1969,18.6688
16.1905,18.7394
16.1905,18.8526
11.8502,18.8526
11.8543,18.8465
11.8941,18.8199
11.9063,18.8187
12.6049,18.8187
12.6049,18.8187
12.6309,18.8103
12.6404,18.8080
12.6673,18.8037
12.6916,18.7913
12.7006,18.7876
12.7266,18.7792
12.7486,18.7632
12.7570,18.7580
12.7812,18.7457
12.8717,18.6552
13.0351,18.4918
13.0793,18.4735
14.3027,18.4735
14.3612,18.4619
14.4276,18.4176
14.4719,18.3512
14.4835,18.2927
14.4835,16.3533
14.4810,16.3408
14.4719,16.2948
14.4719,16.2948
14.4276,16.2284
14.3612,16.1841
14.3612,16.1841
14.3027,16.1725
12.9633,16.1725
12.9048,16.1841
12.9048,16.1841
12.8384,16.2284
12.7941,16.2948
12.7941,16.2948
12.7825,16.3533
12.7825,17.5767
12.7642,17.6209
12.3921,17.9930
12.3479,18.0113
11.9063,18.0113
11.8621,17.9930
11.8543,17.9835
11.8456,17.9704
11.7792,17.9261
11.7792,17.9261
11.7207,17.9145
9.4813,17.9145
9.4228,17.9261
9.4228,17.9261
9.3564,17.9704
9.3121,18.0368
9.3121,18.0368
9.3005,18.0953
9.3005,18.7347
8.8365,18.7347
8.8365,17.7957
8.8366,17.7929
8.8403,17.7510
8.8403,17.7510
8.8294,17.7103
8.8288,17.7077
8.8215,17.6663
8.8183,17.6607
8.8121,17.6456
8.8120,17.6455
8.8104,17.6395
8.7862,17.6050
8.7848,17.6027
8.7637,17.5662
8.7637,17.5662
8.7315,17.5392
8.7295,17.5374
8.1166,16.9245
8.1148,16.9225
8.1144,16.9221
8.0878,16.8902
8.0513,16.8692
8.0490,16.8677
8.0145,16.8436
8.0145,16.8436
8.0084,16.8419
7.9933,16.8357
7.9877,16.8325
7.9805,16.8312
7.9463,16.8252
7.9436,16.8246
7.9287,16.8206
7.9030,16.8137
7.8641,16.8171
7.8611,16.8174
7.8583,16.8175
6.7512,16.8175
6.7071,16.7992
6.6927,16.7723
6.6922,16.7725
6.6904,16.7679
6.6900,16.7672
6.6899,16.7668
6.6896,16.7663
6.6456,16.7004
6.5792,16.6561
6.5792,16.6561
6.5207,16.6445
4.2813,16.6445
4.2228,16.6561
4.2228,16.6561
4.1564,16.7004
4.1121,16.7668
4.1121,16.7668
4.1005,16.8253
4.1005,17.1275
4.0822,17.1717
3.8476,17.4063
3.8034,17.4246
3.7592,17.4063
3.7409,17.3621
3.7421,17.3499
3.7445,17.3377
3.7445,16.8105
3.7628,16.7663
4.1526,16.3766
4.1968,16.3583
4.2207,16.3630
4.2228,16.3639
4.2228,16.3639
4.2813,16.3755
6.5207,16.3755
6.5792,16.3639
6.6456,16.3196
6.6899,16.2532
6.7015,16.1947
6.7015,15.5553
6.6899,15.4968
6.6899,15.4968
6.6456,15.4304
6.5792,15.3861
6.5792,15.3861
6.5207,15.3745
5.6324,15.3745
5.5882,15.3562
5.5699,15.3120
5.5882,15.2678
5.5909,15.2652
5.6999,15.1687
5.7901,15.0380
5.8464,14.8896
5.8655,14.7320
5.8473,14.5821
5.8464,14.5744
5.8464,14.5744
5.8464,14.5744
5.7901,14.4260
5.7901,14.4260
5.7901,14.4260
5.7552,14.3754
5.7451,14.3287
5.7711,14.2885
5.8179,14.2784
5.8508,14.2957
9.0308,17.4757
9.0550,17.4880
9.0634,17.4932
9.0854,17.5092
9.1114,17.5176
9.1204,17.5214
9.1447,17.5337
9.1716,17.5380
9.1811,17.5403
9.2071,17.5487
9.2392,17.5487
9.2957,17.5487
9.3399,17.5670
9.3477,17.5765
9.3564,17.5896
9.4228,17.6339
9.4228,17.6339
9.4813,17.6455
11.7207,17.6455
11.7792,17.6339
11.8456,17.5896
11.8899,17.5232
11.9015,17.4647
11.9015,16.8253
11.9014,16.8246
11.8899,16.7668
11.8899,16.7668
11.8456,16.7004
11.7792,16.6561
11.7792,16.6561
11.7207,16.6445
9.4813,16.6445
9.4228,16.6561
9.4171,16.6585
9.4165,16.6570
9.3767,16.6649
9.3447,16.6478
8.9173,16.2204
9.1970,16.2204
9.1999,16.2458
9.1999,16.2458
9.2459,16.3498
9.3262,16.4301
9.4302,16.4761
9.4556,16.4790
9.7820,16.4790
9.7820,16.4790
10.2120,16.4790
10.2120,16.4790
10.9900,16.4790
10.6010,16.0900
10.2120,16.4790
9.7820,16.4790
10.3860,15.8750
10.8160,15.8750
11.4200,16.4790
11.7464,16.4790
11.7718,16.4761
11.7718,16.4761
11.8758,16.4301
11.9561,16.3498
12.0021,16.2458
12.0050,16.2204
12.0050,15.5296
12.0020,15.5042
12.0020,15.5042
11.9561,15.4002
11.8758,15.3199
11.7718,15.2739
11.7464,15.2710
11.4200,15.2710
10.8160,15.8750
10.8160,15.8750
10.3860,15.8750
10.3860,15.8750
9.7820,15.2710
10.2120,15.2710
10.6010,15.6600
10.9900,15.2710
10.2120,15.2710
9.7820,15.2710
9.4556,15.2710
9.4302,15.2739
9.4302,15.2739
9.3262,15.3199
9.2459,15.4002
9.1999,15.5042
9.1970,15.5296
9.1970,16.2204
8.9173,16.2204
3.7536,11.0567
3.7353,11.0125
3.7353,10.4415
9.2045,10.4415
9.2281,10.4651
9.5167,10.6980
9.5167,10.6980
9.8284,10.8989
9.8284,10.8989
10.1597,11.0655
10.1598,11.0655
10.5069,11.1959
10.8660,11.2887
11.2328,11.3428
11.2328,11.3428
11.4511,11.3530
11.6629,11.3530
11.8812,11.3428
11.8812,11.3428
12.2480,11.2887
12.2480,11.2887
12.6071,11.1959
12.9542,11.0655
12.9543,11.0655
13.2856,10.8989
13.2856,10.8989
13.5973,10.6980
13.5973,10.6980
13.8859,10.4651
13.9095,10.4415
11.5570,8.0890
9.2045,10.4415
3.7353,10.4415
3.7353,9.7370
3.7536,9.6928
3.7978,9.6745
4.9513,9.6745
5.0098,9.6629
5.0762,9.6186
5.1205,9.5522
5.1321,9.4937
5.1321,7.9799
8.0780,7.9799
8.0882,8.1982
8.0882,8.1982
8.1423,8.5650
8.1423,8.5650
8.2351,8.9241
8.3655,9.2712
8.3655,9.2713
8.5321,9.6026
8.5321,9.6026
8.7330,9.9143
8.7330,9.9143
8.9659,10.2029
8.9895,10.2265
11.3420,7.8740
11.7720,7.8740
14.1245,10.2265
14.1245,10.2265
14.1481,10.2029
14.3810,9.9143
14.3810,9.9143
14.5819,9.6026
14.5819,9.6026
14.7485,9.2713
14.7485,9.2712
14.8789,8.9241
14.9717,8.5650
14.9717,8.5650
15.0258,8.1982
15.0258,8.1982
15.0360,7.9799
15.0360,7.7681
15.0258,7.5498
15.0258,7.5498
14.9717,7.1830
14.9717,7.1830
14.8789,6.8239
14.7485,6.4768
14.7485,6.4767
14.5819,6.1454
14.5819,6.1454
14.3810,5.8337
14.3810,5.8337
14.1481,5.5451
14.1245,5.5215
11.7720,7.8740
11.7720,7.8740
11.3420,7.8740
11.3420,7.8740
8.9895,5.5215
8.9659,5.5451
8.9659,5.5451
8.7330,5.8337
8.7330,5.8337
8.5321,6.1454
8.5321,6.1454
8.3655,6.4767
8.3655,6.4768
8.2351,6.8239
8.1423,7.1830
8.1423,7.1830
8.0882,7.5498
8.0882,7.5498
8.0780,7.7681
8.0780,7.9799
5.1321,7.9799
5.1321,6.2543
5.1205,6.1958
5.1205,6.1958
5.0762,6.1294
5.0098,6.0851
5.0098,6.0851
4.9513,6.0735
1.7119,6.0735
1.6534,6.0851
1.6534,6.0851
1.5870,6.1294
1.5427,6.1958
1.5427,6.1958
1.5311,6.2543
1.5311,9.4937
0.7545,9.4937
0.7545,4.1817
0.7728,4.1375
0.8170,4.1192
0.8612,4.1375
0.8764,4.1624
0.9248,4.3112
1.0481,4.5640
1.0481,4.5640
1.2054,4.7972
1.3936,5.0062
1.3936,5.0062
1.6090,5.1870
1.7522,5.2765
1.8475,5.3360
1.8475,5.3360
1.8475,5.3360
2.1045,5.4504
2.3748,5.5279
2.5420,5.5514
2.6534,5.5671
2.6534,5.5671
2.9346,5.5671
3.0275,5.5540
3.2131,5.5279
3.4835,5.4504
3.7405,5.3360
3.7877,5.3065
9.2045,5.3065
11.5570,7.6590
13.9095,5.3065
13.9095,5.3065
13.8859,5.2829
13.5973,5.0500
13.5973,5.0500
13.2856,4.8491
13.2856,4.8491
12.9543,4.6825
12.9542,4.6825
12.6071,4.5521
12.2480,4.4593
11.8812,4.4052
11.8812,4.4052
11.6629,4.3950
11.4511,4.3950
11.2328,4.4052
11.2328,4.4052
10.8660,4.4593
10.8660,4.4593
10.5069,4.5521
10.1598,4.6825
10.1597,4.6825
9.8284,4.8491
9.8284,4.8491
9.5167,5.0500
9.5167,5.0500
9.2281,5.2829
9.2281,5.2829
9.2045,5.3065
3.7877,5.3065
3.9790,5.1870
4.1944,5.0062
4.3826,4.7972
4.5399,4.5640
4.6632,4.3112
4.7501,4.0437
4.7990,3.7667
4.8088,3.4856
4.7794,3.2059
4.7113,2.9330
4.6780,2.8506
4.6060,2.6722
4.6060,2.6722
4.5734,2.6159
4.4653,2.4287
4.2922,2.2070
4.2577,2.1737
4.0899,2.0117
3.8623,1.8463
3.8623,1.8463
3.6140,1.7143
3.6140,1.7143
3.6140,1.7143
3.4036,1.6377
3.3684,1.6054
3.3663,1.5576
3.3986,1.5224
3.4250,1.5165
5.8628,1.5165
Z" /> 
</g>
</g>
</g>
<g style="fill:#000000; fill-opacity:1.0000; 
stroke:#000000; stroke-width:0.0000; stroke-opacity:1; 
stroke-linecap:round; stroke-linejoin:round;">
<circle cx="5.2070" cy="14.7320" r="0.2500" /> 
</g>
<g style="fill:#000000; fill-opacity:1.0000; 
stroke:#000000; stroke-width:0.0212; stroke-opacity:1; 
stroke-linecap:round; stroke-linejoin:round;">
</g>
<g style="fill:#000000; fill-opacity:1.0000; 
stroke:#000000; stroke-width:0.0000; stroke-opacity:1; 
stroke-linecap:round; stroke-linejoin:round;">
<circle cx="7.6200" cy="20.1930" r="0.2500" /> 
</g>
<g style="fill:#000000; fill-opacity:1.0000; 
stroke:#000000; stroke-width:0.0212; stroke-opacity:1; 
stroke-linecap:round; stroke-linejoin:round;">
</g>
<g style="fill:#000000; fill-opacity:1.0000; 
stroke:#000000; stroke-width:0.0000; stroke-opacity:1; 
stroke-linecap:round; stroke-linejoin:round;">
<circle cx="1.2700" cy="20.3200" r="0.2500" /> 
</g>
<g style="fill:#000000; fill-opacity:1.0000; 
stroke:#000000; stroke-width:0.0212; stroke-opacity:1; 
stroke-linecap:round; stroke-linejoin:round;">
</g>
<g style="fill:#000000; fill-opacity:1.0000; 
stroke:#000000; stroke-width:0.0000; stroke-opacity:1; 
stroke-linecap:round; stroke-linejoin:round;">
<circle cx="1.2700" cy="14.9860" r="0.2500" /> 
</g>
<g style="fill:#000000; fill-opacity:1.0000; 
stroke:#000000; stroke-width:0.0212; stroke-opacity:1; 
stroke-linecap:round; stroke-linejoin:round;">
</g>
<g style="fill:#000000; fill-opacity:1.0000; 
stroke:#000000; stroke-width:0.0000; stroke-opacity:1; 
stroke-linecap:round; stroke-linejoin:round;">
<circle cx="14.2240" cy="23.8760" r="0.5000" /> 
</g>
<g style="fill:#000000; fill-opacity:1.0000; 
stroke:#000000; stroke-width:0.0212; stroke-opacity:1; 
stroke-linecap:round; stroke-linejoin:round;">
</g>
<g style="fill:#000000; fill-opacity:1.0000; 
stroke:#000000; stroke-width:0.0000; stroke-opacity:1; 
stroke-linecap:round; stroke-linejoin:round;">
<circle cx="11.6840" cy="23.8760" r="0.5000" /> 
</g>
<g style="fill:#000000; fill-opacity:1.0000; 
stroke:#000000; stroke-width:0.0212; stroke-opacity:1; 
stroke-linecap:round; stroke-linejoin:round;">
</g>
<g style="fill:#000000; fill-opacity:1.0000; 
stroke:#000000; stroke-width:0.0000; stroke-opacity:1; 
stroke-linecap:round; stroke-linejoin:round;">
<circle cx="9.1440" cy="23.8760" r="0.5000" /> 
</g>
<g style="fill:#000000; fill-opacity:1.0000; 
stroke:#000000; stroke-width:0.0212; stroke-opacity:1; 
stroke-linecap:round; stroke-linejoin:round;">
</g>
<g style="fill:#000000; fill-opacity:1.0000; 
stroke:#000000; stroke-width:0.0000; stroke-opacity:1; 
stroke-linecap:round; stroke-linejoin:round;">
<circle cx="6.6040" cy="23.8760" r="0.5000" /> 
</g>
<g style="fill:#000000; fill-opacity:1.0000; 
stroke:#000000; stroke-width:0.0212; stroke-opacity:1; 
stroke-linecap:round; stroke-linejoin:round;">
</g>
<g style="fill:#000000; fill-opacity:1.0000; 
stroke:#000000; stroke-width:0.0000; stroke-opacity:1; 
stroke-linecap:round; stroke-linejoin:round;">
<circle cx="4.0640" cy="23.8760" r="0.5000" /> 
</g>
<g style="fill:#000000; fill-opacity:1.0000; 
stroke:#000000; stroke-width:0.0212; stroke-opacity:1; 
stroke-linecap:round; stroke-linejoin:round;">
</g>
<g style="fill:#000000; fill-opacity:1.0000; 
stroke:#000000; stroke-width:0.0000; stroke-opacity:1; 
stroke-linecap:round; stroke-linejoin:round;">
<circle cx="19.3040" cy="23.8760" r="1.1000" /> 
</g>
<g style="fill:#000000; fill-opacity:1.0000; 
stroke:#000000; stroke-width:0.0212; stroke-opacity:1; 
stroke-linecap:round; stroke-linejoin:round;">
</g>
<g style="fill:#000000; fill-opacity:1.0000; 
stroke:#000000; stroke-width:0.0000; stroke-opacity:1; 
stroke-linecap:round; stroke-linejoin:round;">
<circle cx="2.7940" cy="3.5560" r="1.1000" /> 
</g>
<g style="fill:#000000; fill-opacity:1.0000; 
stroke:#000000; stroke-width:0.0212; stroke-opacity:1; 
stroke-linecap:round; stroke-linejoin:round;">
</g>
<g style="fill:#FFFFFF; fill-opacity:1.0000; 
stroke:#FFFFFF; stroke-width:0.0212; stroke-opacity:1; 
stroke-linecap:round; stroke-linejoin:round;">
<g >
</g>
<g >
</g>
<g >
</g>
<g >
</g>
<g >
</g>
<g >
</g>
<g >
</g>
<g >
</g>
<g >
</g>
<g >
</g>
<g >
</g>
<g >
</g>
<g >
</g>
<g >
</g>
<g >
</g>
<g >
</g>
<g >
</g>
<g >
</g>
<g >
</g>
</g>
<g style="fill:#FFFFFF; fill-opacity:1.0000; 
stroke:#FFFFFF; stroke-width:0.0212; stroke-opacity:1; 
stroke-linecap:round; stroke-linejoin:round;">
</g>
<g style="fill:#2F2D31; fill-opacity:1.0000; 
stroke:#2F2D31; stroke-width:0.0212; stroke-opacity:1; 
stroke-linecap:round; stroke-linejoin:round;">
</g>
<g style="fill:#2F2D31; fill-opacity:1.0000; 
stroke:#2F2D31; stroke-width:0.0500; stroke-opacity:1; 
stroke-linecap:round; stroke-linejoin:round;">
</g>
<g style="fill:#2F2D31; fill-opacity:0.0; 
stroke:#2F2D31; stroke-width:0.0500; stroke-opacity:1; 
stroke-linecap:round; stroke-linejoin:round;">
<path d="M21.8440 3.5560
L21.8440 23.8760
" />
<path d="M17.0180 1.0160
L19.3040 1.0160
" />
<path d="M7.7650 2.6851 A2.5400 2.5400 0.0 0 0 9.5611 3.4290" />
<path d="M2.7940 1.0160 A2.5400 2.5400 0.0 0 0 0.2540 3.5560" />
<path d="M19.3040 26.4160
L2.7940 26.4160
" />
<path d="M6.0960 1.0160
L7.7650 2.6850
" />
<path d="M13.5529 3.4290 A2.5400 2.5400 0.0 0 0 15.3489 2.6850" />
<path d="M21.8440 3.5560 A2.5400 2.5400 0.0 0 0 19.3040 1.0160" />
<path d="M2.7940 1.0160
L6.0960 1.0160
" />
<path d="M15.3489 2.6850
L17.0180 1.0160
" />
<path d="M0.2540 23.8760 A2.5400 2.5400 0.0 0 0 2.7940 26.4160" />
<path d="M19.3040 26.4160 A2.5400 2.5400 0.0 0 0 21.8440 23.8760" />
<path d="M0.2540 23.8760
L0.2540 3.5560
" />
<path d="M9.5611 3.4290
L13.5529 3.4290
" />
<g >
</g>
<g >
</g>
<g >
</g>
<g >
</g>
<g >
</g>
<g >
</g>
<g >
</g>
<g >
</g>
<g >
</g>
<g >
</g>
<g >
</g>
<g >
</g>
<g >
</g>
<g >
</g>
<g >
</g>
<g >
</g>
<g >
</g>
<g >
</g>
<g >
</g>
</g> 
</svg>
