<?xml version="1.0" standalone="no"?>
 <!DOCTYPE svg PUBLIC "-//W3C//DTD SVG 1.1//EN" 
 "http://www.w3.org/Graphics/SVG/1.1/DTD/svg11.dtd"> 
<svg
  xmlns:svg="http://www.w3.org/2000/svg"
  xmlns="http://www.w3.org/2000/svg"
  xmlns:xlink="http://www.w3.org/1999/xlink"
  version="1.1"
  width="44.3230mm" height="14.1478mm" viewBox="0.0000 0.0000 44.3230 14.1478">
<title>SVG Image created as _autosave-working-brd.svg date 2023/09/28 15:11:53 </title>
  <desc>Image generated by PCBNEW </desc>
<g style="fill:#000000; fill-opacity:1.0000;stroke:#000000; stroke-opacity:1.0000;
stroke-linecap:round; stroke-linejoin:round;"
 transform="translate(0 0) scale(1 1)">
</g>
<g style="fill:#000000; fill-opacity:0.0; 
stroke:#000000; stroke-width:0.0000; stroke-opacity:1; 
stroke-linecap:round; stroke-linejoin:round;">
</g>
<g style="fill:#000000; fill-opacity:1.0000; 
stroke:#000000; stroke-width:0.0212; stroke-opacity:1; 
stroke-linecap:round; stroke-linejoin:round;">
<rect x="-5.000000" y="-5.000000" width="54.326200" height="24.150000" rx="0.000000" />
</g>
<g style="fill:#FFFFFF; fill-opacity:1.0000; 
stroke:#FFFFFF; stroke-width:0.0212; stroke-opacity:1; 
stroke-linecap:round; stroke-linejoin:round;">
<g >
</g>
<g style="fill:#B2803A; fill-opacity:1.0000; 
stroke:#B2803A; stroke-width:0.0212; stroke-opacity:1; 
stroke-linecap:round; stroke-linejoin:round;">
</g>
<g style="fill:#B2803A; fill-opacity:1.0000; 
stroke:#B2803A; stroke-width:1.0000; stroke-opacity:1; 
stroke-linecap:round; stroke-linejoin:round;">
</g>
<g style="fill:#B2803A; fill-opacity:0.0; 
stroke:#B2803A; stroke-width:1.0000; stroke-opacity:1; 
stroke-linecap:round; stroke-linejoin:round;">
<path d="M24.5262 5.9000
L24.5262 8.2000
" />
<path d="M41.5262 5.9000
L41.5262 8.2000
" />
</g>
<g style="fill:#B2803A; fill-opacity:1.0000; 
stroke:#B2803A; stroke-width:0.0000; stroke-opacity:1; 
stroke-linecap:round; stroke-linejoin:round;">
<circle cx="27.3012" cy="5.7250" r="0.4699" /> 
</g>
<g style="fill:#B2803A; fill-opacity:1.0000; 
stroke:#B2803A; stroke-width:0.0212; stroke-opacity:1; 
stroke-linecap:round; stroke-linejoin:round;">
</g>
<g style="fill:#B2803A; fill-opacity:1.0000; 
stroke:#B2803A; stroke-width:0.0000; stroke-opacity:1; 
stroke-linecap:round; stroke-linejoin:round;">
<circle cx="28.4012" cy="5.7250" r="0.4699" /> 
</g>
<g style="fill:#B2803A; fill-opacity:1.0000; 
stroke:#B2803A; stroke-width:0.0212; stroke-opacity:1; 
stroke-linecap:round; stroke-linejoin:round;">
</g>
<g style="fill:#B2803A; fill-opacity:1.0000; 
stroke:#B2803A; stroke-width:0.0000; stroke-opacity:1; 
stroke-linecap:round; stroke-linejoin:round;">
<circle cx="29.5012" cy="5.7250" r="0.4699" /> 
</g>
<g style="fill:#B2803A; fill-opacity:1.0000; 
stroke:#B2803A; stroke-width:0.0212; stroke-opacity:1; 
stroke-linecap:round; stroke-linejoin:round;">
</g>
<g style="fill:#B2803A; fill-opacity:1.0000; 
stroke:#B2803A; stroke-width:0.0000; stroke-opacity:1; 
stroke-linecap:round; stroke-linejoin:round;">
<circle cx="30.6012" cy="5.7250" r="0.4699" /> 
</g>
<g style="fill:#B2803A; fill-opacity:1.0000; 
stroke:#B2803A; stroke-width:0.0212; stroke-opacity:1; 
stroke-linecap:round; stroke-linejoin:round;">
</g>
<g style="fill:#B2803A; fill-opacity:1.0000; 
stroke:#B2803A; stroke-width:0.0000; stroke-opacity:1; 
stroke-linecap:round; stroke-linejoin:round;">
<circle cx="31.3512" cy="6.5250" r="0.4699" /> 
</g>
<g style="fill:#B2803A; fill-opacity:1.0000; 
stroke:#B2803A; stroke-width:0.0212; stroke-opacity:1; 
stroke-linecap:round; stroke-linejoin:round;">
</g>
<g style="fill:#B2803A; fill-opacity:1.0000; 
stroke:#B2803A; stroke-width:0.0000; stroke-opacity:1; 
stroke-linecap:round; stroke-linejoin:round;">
<circle cx="32.1012" cy="5.7250" r="0.4699" /> 
</g>
<g style="fill:#B2803A; fill-opacity:1.0000; 
stroke:#B2803A; stroke-width:0.0212; stroke-opacity:1; 
stroke-linecap:round; stroke-linejoin:round;">
</g>
<g style="fill:#B2803A; fill-opacity:1.0000; 
stroke:#B2803A; stroke-width:0.0000; stroke-opacity:1; 
stroke-linecap:round; stroke-linejoin:round;">
<circle cx="33.9512" cy="5.7250" r="0.4699" /> 
</g>
<g style="fill:#B2803A; fill-opacity:1.0000; 
stroke:#B2803A; stroke-width:0.0212; stroke-opacity:1; 
stroke-linecap:round; stroke-linejoin:round;">
</g>
<g style="fill:#B2803A; fill-opacity:1.0000; 
stroke:#B2803A; stroke-width:0.0000; stroke-opacity:1; 
stroke-linecap:round; stroke-linejoin:round;">
<circle cx="34.7012" cy="6.5250" r="0.4699" /> 
</g>
<g style="fill:#B2803A; fill-opacity:1.0000; 
stroke:#B2803A; stroke-width:0.0212; stroke-opacity:1; 
stroke-linecap:round; stroke-linejoin:round;">
</g>
<g style="fill:#B2803A; fill-opacity:1.0000; 
stroke:#B2803A; stroke-width:0.0000; stroke-opacity:1; 
stroke-linecap:round; stroke-linejoin:round;">
<circle cx="35.4512" cy="5.7250" r="0.4699" /> 
</g>
<g style="fill:#B2803A; fill-opacity:1.0000; 
stroke:#B2803A; stroke-width:0.0212; stroke-opacity:1; 
stroke-linecap:round; stroke-linejoin:round;">
</g>
<g style="fill:#B2803A; fill-opacity:1.0000; 
stroke:#B2803A; stroke-width:0.0000; stroke-opacity:1; 
stroke-linecap:round; stroke-linejoin:round;">
<circle cx="36.5512" cy="5.7250" r="0.4699" /> 
</g>
<g style="fill:#B2803A; fill-opacity:1.0000; 
stroke:#B2803A; stroke-width:0.0212; stroke-opacity:1; 
stroke-linecap:round; stroke-linejoin:round;">
</g>
<g style="fill:#B2803A; fill-opacity:1.0000; 
stroke:#B2803A; stroke-width:0.0000; stroke-opacity:1; 
stroke-linecap:round; stroke-linejoin:round;">
<circle cx="37.6512" cy="5.7250" r="0.4699" /> 
</g>
<g style="fill:#B2803A; fill-opacity:1.0000; 
stroke:#B2803A; stroke-width:0.0212; stroke-opacity:1; 
stroke-linecap:round; stroke-linejoin:round;">
</g>
<g style="fill:#B2803A; fill-opacity:1.0000; 
stroke:#B2803A; stroke-width:0.0000; stroke-opacity:1; 
stroke-linecap:round; stroke-linejoin:round;">
<circle cx="38.7512" cy="5.7250" r="0.4699" /> 
</g>
<g style="fill:#B2803A; fill-opacity:1.0000; 
stroke:#B2803A; stroke-width:0.0212; stroke-opacity:1; 
stroke-linecap:round; stroke-linejoin:round;">
</g>
<g style="fill:#B2803A; fill-opacity:1.0000; 
stroke:#B2803A; stroke-width:0.0000; stroke-opacity:1; 
stroke-linecap:round; stroke-linejoin:round;">
<circle cx="38.3762" cy="8.3750" r="0.4699" /> 
</g>
<g style="fill:#B2803A; fill-opacity:1.0000; 
stroke:#B2803A; stroke-width:0.0212; stroke-opacity:1; 
stroke-linecap:round; stroke-linejoin:round;">
</g>
<g style="fill:#B2803A; fill-opacity:1.0000; 
stroke:#B2803A; stroke-width:0.0000; stroke-opacity:1; 
stroke-linecap:round; stroke-linejoin:round;">
<circle cx="37.2762" cy="8.3750" r="0.4699" /> 
</g>
<g style="fill:#B2803A; fill-opacity:1.0000; 
stroke:#B2803A; stroke-width:0.0212; stroke-opacity:1; 
stroke-linecap:round; stroke-linejoin:round;">
</g>
<g style="fill:#B2803A; fill-opacity:1.0000; 
stroke:#B2803A; stroke-width:0.0000; stroke-opacity:1; 
stroke-linecap:round; stroke-linejoin:round;">
<circle cx="36.1762" cy="8.3750" r="0.4699" /> 
</g>
<g style="fill:#B2803A; fill-opacity:1.0000; 
stroke:#B2803A; stroke-width:0.0212; stroke-opacity:1; 
stroke-linecap:round; stroke-linejoin:round;">
</g>
<g style="fill:#B2803A; fill-opacity:1.0000; 
stroke:#B2803A; stroke-width:0.0000; stroke-opacity:1; 
stroke-linecap:round; stroke-linejoin:round;">
<circle cx="35.0762" cy="8.3750" r="0.4699" /> 
</g>
<g style="fill:#B2803A; fill-opacity:1.0000; 
stroke:#B2803A; stroke-width:0.0212; stroke-opacity:1; 
stroke-linecap:round; stroke-linejoin:round;">
</g>
<g style="fill:#B2803A; fill-opacity:1.0000; 
stroke:#B2803A; stroke-width:0.0000; stroke-opacity:1; 
stroke-linecap:round; stroke-linejoin:round;">
<circle cx="34.3262" cy="7.5750" r="0.4699" /> 
</g>
<g style="fill:#B2803A; fill-opacity:1.0000; 
stroke:#B2803A; stroke-width:0.0212; stroke-opacity:1; 
stroke-linecap:round; stroke-linejoin:round;">
</g>
<g style="fill:#B2803A; fill-opacity:1.0000; 
stroke:#B2803A; stroke-width:0.0000; stroke-opacity:1; 
stroke-linecap:round; stroke-linejoin:round;">
<circle cx="33.5762" cy="8.3750" r="0.4699" /> 
</g>
<g style="fill:#B2803A; fill-opacity:1.0000; 
stroke:#B2803A; stroke-width:0.0212; stroke-opacity:1; 
stroke-linecap:round; stroke-linejoin:round;">
</g>
<g style="fill:#B2803A; fill-opacity:1.0000; 
stroke:#B2803A; stroke-width:0.0000; stroke-opacity:1; 
stroke-linecap:round; stroke-linejoin:round;">
<circle cx="32.4762" cy="8.3750" r="0.4699" /> 
</g>
<g style="fill:#B2803A; fill-opacity:1.0000; 
stroke:#B2803A; stroke-width:0.0212; stroke-opacity:1; 
stroke-linecap:round; stroke-linejoin:round;">
</g>
<g style="fill:#B2803A; fill-opacity:1.0000; 
stroke:#B2803A; stroke-width:0.0000; stroke-opacity:1; 
stroke-linecap:round; stroke-linejoin:round;">
<circle cx="31.7262" cy="7.5750" r="0.4699" /> 
</g>
<g style="fill:#B2803A; fill-opacity:1.0000; 
stroke:#B2803A; stroke-width:0.0212; stroke-opacity:1; 
stroke-linecap:round; stroke-linejoin:round;">
</g>
<g style="fill:#B2803A; fill-opacity:1.0000; 
stroke:#B2803A; stroke-width:0.0000; stroke-opacity:1; 
stroke-linecap:round; stroke-linejoin:round;">
<circle cx="30.9762" cy="8.3750" r="0.4699" /> 
</g>
<g style="fill:#B2803A; fill-opacity:1.0000; 
stroke:#B2803A; stroke-width:0.0212; stroke-opacity:1; 
stroke-linecap:round; stroke-linejoin:round;">
</g>
<g style="fill:#B2803A; fill-opacity:1.0000; 
stroke:#B2803A; stroke-width:0.0000; stroke-opacity:1; 
stroke-linecap:round; stroke-linejoin:round;">
<circle cx="29.8762" cy="8.3750" r="0.4699" /> 
</g>
<g style="fill:#B2803A; fill-opacity:1.0000; 
stroke:#B2803A; stroke-width:0.0212; stroke-opacity:1; 
stroke-linecap:round; stroke-linejoin:round;">
</g>
<g style="fill:#B2803A; fill-opacity:1.0000; 
stroke:#B2803A; stroke-width:0.0000; stroke-opacity:1; 
stroke-linecap:round; stroke-linejoin:round;">
<circle cx="28.7762" cy="8.3750" r="0.4699" /> 
</g>
<g style="fill:#B2803A; fill-opacity:1.0000; 
stroke:#B2803A; stroke-width:0.0212; stroke-opacity:1; 
stroke-linecap:round; stroke-linejoin:round;">
</g>
<g style="fill:#B2803A; fill-opacity:1.0000; 
stroke:#B2803A; stroke-width:0.0000; stroke-opacity:1; 
stroke-linecap:round; stroke-linejoin:round;">
<circle cx="27.6762" cy="8.3750" r="0.4699" /> 
</g>
<g style="fill:#B2803A; fill-opacity:1.0000; 
stroke:#B2803A; stroke-width:0.0212; stroke-opacity:1; 
stroke-linecap:round; stroke-linejoin:round;">
</g>
<g style="fill:#B2803A; fill-opacity:1.0000; 
stroke:#B2803A; stroke-width:0.0000; stroke-opacity:1; 
stroke-linecap:round; stroke-linejoin:round;">
<circle cx="28.0762" cy="7.0500" r="0.4699" /> 
</g>
<g style="fill:#B2803A; fill-opacity:1.0000; 
stroke:#B2803A; stroke-width:0.0212; stroke-opacity:1; 
stroke-linecap:round; stroke-linejoin:round;">
</g>
<g style="fill:#B2803A; fill-opacity:1.0000; 
stroke:#B2803A; stroke-width:0.0000; stroke-opacity:1; 
stroke-linecap:round; stroke-linejoin:round;">
<circle cx="29.1762" cy="7.0500" r="0.4699" /> 
</g>
<g style="fill:#B2803A; fill-opacity:1.0000; 
stroke:#B2803A; stroke-width:0.0212; stroke-opacity:1; 
stroke-linecap:round; stroke-linejoin:round;">
</g>
<g style="fill:#B2803A; fill-opacity:1.0000; 
stroke:#B2803A; stroke-width:0.0000; stroke-opacity:1; 
stroke-linecap:round; stroke-linejoin:round;">
<circle cx="30.2762" cy="7.0500" r="0.4699" /> 
</g>
<g style="fill:#B2803A; fill-opacity:1.0000; 
stroke:#B2803A; stroke-width:0.0212; stroke-opacity:1; 
stroke-linecap:round; stroke-linejoin:round;">
</g>
<g style="fill:#B2803A; fill-opacity:1.0000; 
stroke:#B2803A; stroke-width:0.0000; stroke-opacity:1; 
stroke-linecap:round; stroke-linejoin:round;">
<circle cx="35.7762" cy="7.0500" r="0.4699" /> 
</g>
<g style="fill:#B2803A; fill-opacity:1.0000; 
stroke:#B2803A; stroke-width:0.0212; stroke-opacity:1; 
stroke-linecap:round; stroke-linejoin:round;">
</g>
<g style="fill:#B2803A; fill-opacity:1.0000; 
stroke:#B2803A; stroke-width:0.0000; stroke-opacity:1; 
stroke-linecap:round; stroke-linejoin:round;">
<circle cx="36.8762" cy="7.0500" r="0.4699" /> 
</g>
<g style="fill:#B2803A; fill-opacity:1.0000; 
stroke:#B2803A; stroke-width:0.0212; stroke-opacity:1; 
stroke-linecap:round; stroke-linejoin:round;">
</g>
<g style="fill:#B2803A; fill-opacity:1.0000; 
stroke:#B2803A; stroke-width:0.0000; stroke-opacity:1; 
stroke-linecap:round; stroke-linejoin:round;">
<circle cx="37.9762" cy="7.0500" r="0.4699" /> 
</g>
<g style="fill:#B2803A; fill-opacity:1.0000; 
stroke:#B2803A; stroke-width:0.0212; stroke-opacity:1; 
stroke-linecap:round; stroke-linejoin:round;">
</g>
<g >
</g>
<g >
</g>
<g >
</g>
<g style="fill:#B2803A; fill-opacity:1.0000; 
stroke:#B2803A; stroke-width:0.0212; stroke-opacity:1; 
stroke-linecap:round; stroke-linejoin:round;">
</g>
<g style="fill:#B2803A; fill-opacity:1.0000; 
stroke:#B2803A; stroke-width:0.0000; stroke-opacity:1; 
stroke-linecap:round; stroke-linejoin:round;">
<circle cx="3.2512" cy="5.5350" r="0.7620" /> 
</g>
<g style="fill:#B2803A; fill-opacity:1.0000; 
stroke:#B2803A; stroke-width:0.0212; stroke-opacity:1; 
stroke-linecap:round; stroke-linejoin:round;">
</g>
<g style="fill:#B2803A; fill-opacity:1.0000; 
stroke:#B2803A; stroke-width:0.0000; stroke-opacity:1; 
stroke-linecap:round; stroke-linejoin:round;">
<circle cx="3.2512" cy="8.0750" r="0.7620" /> 
</g>
<g style="fill:#B2803A; fill-opacity:1.0000; 
stroke:#B2803A; stroke-width:0.0212; stroke-opacity:1; 
stroke-linecap:round; stroke-linejoin:round;">
</g>
<g >
</g>
<g style="fill:#121212; fill-opacity:1.0000; 
stroke:#121212; stroke-width:0.0212; stroke-opacity:1; 
stroke-linecap:round; stroke-linejoin:round;">
</g>
<g style="fill:#121212; fill-opacity:1.0000; 
stroke:#121212; stroke-width:0.0000; stroke-opacity:1; 
stroke-linecap:round; stroke-linejoin:round;">
<circle cx="10.2512" cy="8.0750" r="0.3000" /> 
</g>
<g style="fill:#121212; fill-opacity:1.0000; 
stroke:#121212; stroke-width:0.0212; stroke-opacity:1; 
stroke-linecap:round; stroke-linejoin:round;">
</g>
<g style="fill:#121212; fill-opacity:1.0000; 
stroke:#121212; stroke-width:0.0000; stroke-opacity:1; 
stroke-linecap:round; stroke-linejoin:round;">
<circle cx="19.7512" cy="8.0750" r="0.3000" /> 
</g>
<g style="fill:#121212; fill-opacity:1.0000; 
stroke:#121212; stroke-width:0.0212; stroke-opacity:1; 
stroke-linecap:round; stroke-linejoin:round;">
</g>
<g style="fill:#121212; fill-opacity:1.0000; 
stroke:#121212; stroke-width:0.0000; stroke-opacity:1; 
stroke-linecap:round; stroke-linejoin:round;">
<circle cx="28.2512" cy="3.5750" r="0.3000" /> 
</g>
<g style="fill:#121212; fill-opacity:1.0000; 
stroke:#121212; stroke-width:0.0212; stroke-opacity:1; 
stroke-linecap:round; stroke-linejoin:round;">
</g>
<g >
</g>
<g style="fill:#B2803A; fill-opacity:1.0000; 
stroke:#B2803A; stroke-width:0.0212; stroke-opacity:1; 
stroke-linecap:round; stroke-linejoin:round;">
</g>
<g style="fill:#B2803A; fill-opacity:1.0000; 
stroke:#B2803A; stroke-width:0.2500; stroke-opacity:1; 
stroke-linecap:round; stroke-linejoin:round;">
</g>
<g style="fill:#B2803A; fill-opacity:0.0; 
stroke:#B2803A; stroke-width:0.2500; stroke-opacity:1; 
stroke-linecap:round; stroke-linejoin:round;">
<path d="M31.3512 6.5250
L31.3512 5.1750
" />
<path d="M29.5012 4.5750
L30.7512 4.5750
" />
<path d="M30.7512 4.5750
L31.3512 5.1750
" />
<path d="M28.5012 3.5750
L28.2512 3.5750
" />
<path d="M31.3512 6.5250
L31.3512 6.5250
" />
<path d="M29.2512 4.3250
L28.5012 3.5750
" />
<path d="M29.2512 4.3250
L29.5012 4.5750
" />
</g>
<g >
</g>
<g style="fill:#B2803A; fill-opacity:0.0; 
stroke:#B2803A; stroke-width:0.2500; stroke-opacity:1; 
stroke-linecap:round; stroke-linejoin:round;">
<g >
</g>
<g style="fill:#B2803A; fill-opacity:1.0000; 
stroke:#B2803A; stroke-width:0.0000; stroke-opacity:1; 
stroke-linecap:round; stroke-linejoin:round;">
<path style="fill:#B2803A; fill-opacity:1.0000; 
stroke:#B2803A; stroke-width:0.0000; stroke-opacity:1; 
stroke-linecap:round; stroke-linejoin:round;fill-rule:evenodd;"
d="M 43.6928,0.5955
43.7393,0.6492
43.7507,0.7015
43.7507,13.4485
43.7307,13.5166
43.6770,13.5631
43.6247,13.5745
0.8777,13.5745
0.8096,13.5545
0.7631,13.5008
0.7517,13.4485
0.7517,9.2823
27.2992,9.2823
27.3002,9.2828
27.4845,9.3388
27.6762,9.3576
27.6762,9.3576
27.8679,9.3388
28.0522,9.2828
28.0532,9.2823
37.9992,9.2823
38.0002,9.2828
38.1845,9.3388
38.3762,9.3576
38.3762,9.3576
38.5679,9.3388
38.7522,9.2828
38.7532,9.2823
38.3762,8.9053
38.3762,8.9053
37.9992,9.2823
28.0532,9.2823
28.0532,9.2823
27.6762,8.9053
27.6762,8.9053
27.2992,9.2823
0.7517,9.2823
0.7517,8.0750
2.2840,8.0750
2.3026,8.2637
2.3026,8.2637
2.3026,8.2637
2.3577,8.4451
2.4470,8.6123
2.5673,8.7589
2.7139,8.8792
2.8811,8.9685
3.0625,9.0236
3.0625,9.0236
3.0625,9.0236
3.2512,9.0422
3.2512,9.0422
3.2512,9.0422
3.4399,9.0236
3.4399,9.0236
3.4399,9.0236
3.6213,8.9685
3.7885,8.8792
3.9351,8.7589
4.0554,8.6123
4.1447,8.4451
4.1998,8.2637
4.2012,8.2495
4.2184,8.0750
4.2184,8.0750
4.1998,7.8863
4.1998,7.8863
4.1998,7.8863
4.1447,7.7049
4.0554,7.5377
3.9629,7.4250
23.5182,7.4250
23.5182,8.2495
23.5328,8.3976
23.5328,8.3976
23.5904,8.5876
23.5904,8.5876
23.6840,8.7627
23.8100,8.9162
23.9635,9.0422
24.1386,9.1358
24.1512,9.1396
24.1512,9.1396
24.1512,8.2034
24.2012,8.2034
24.2161,8.2879
24.2734,8.3871
24.3612,8.4608
24.4689,8.5000
24.5835,8.5000
24.6912,8.4608
24.7790,8.3871
24.8363,8.2879
24.8512,8.2034
24.8512,7.4250
24.9012,7.4250
24.9012,9.1396
24.9138,9.1358
24.9138,9.1358
25.0889,9.0422
25.2424,8.9162
25.3684,8.7627
25.4620,8.5876
25.4620,8.5876
25.5196,8.3976
25.5196,8.3976
25.5218,8.3750
26.6936,8.3750
26.7124,8.5667
26.7684,8.7510
26.7689,8.7520
27.1459,8.3750
27.4043,8.3750
27.4250,8.4791
27.4839,8.5673
27.5721,8.6262
27.6499,8.6417
27.7025,8.6417
27.7803,8.6262
27.8685,8.5673
27.9274,8.4791
27.9481,8.3750
27.9274,8.2709
27.8685,8.1827
27.7803,8.1238
27.7025,8.1083
27.6499,8.1083
27.5721,8.1238
27.4839,8.1827
27.4250,8.2709
27.4043,8.3750
27.1459,8.3750
27.1459,8.3750
26.7689,7.9980
26.7689,7.9980
26.7684,7.9990
26.7684,7.9990
26.7124,8.1833
26.6936,8.3750
26.6936,8.3750
25.5218,8.3750
25.5342,8.2495
25.5342,8.2495
25.5342,7.4250
24.9012,7.4250
24.8512,7.4250
24.8512,5.8966
24.8363,5.8121
24.7790,5.7129
24.6912,5.6392
24.5835,5.6000
24.4689,5.6000
24.3612,5.6392
24.2734,5.7129
24.2161,5.8121
24.2012,5.8966
24.2012,8.2034
24.1512,8.2034
24.1512,7.4250
23.5182,7.4250
3.9629,7.4250
3.9351,7.3911
3.7885,7.2708
3.6213,7.1815
3.4399,7.1264
3.4399,7.1264
3.4399,7.1264
3.2512,7.1078
3.2512,7.1078
3.0625,7.1264
2.8811,7.1815
2.7139,7.2708
2.5673,7.3911
2.4470,7.5377
2.3577,7.7049
2.3026,7.8863
2.2840,8.0750
2.2840,8.0750
0.7517,8.0750
0.7517,6.6593
2.6572,6.6593
2.8152,6.7330
2.8152,6.7330
3.0298,6.7905
3.2512,6.8098
3.4726,6.7905
3.6872,6.7330
3.6872,6.7330
3.8115,6.6750
23.5182,6.6750
24.1512,6.6750
24.1512,4.9604
24.9012,4.9604
24.9012,6.6750
25.5342,6.6750
25.5342,6.6323
26.9242,6.6323
26.9252,6.6328
27.0387,6.6673
27.0981,6.7062
27.1270,6.7710
27.1227,6.8244
27.1124,6.8583
27.0936,7.0500
27.0936,7.0500
27.1124,7.2417
27.1684,7.4260
27.1684,7.4260
27.1744,7.4373
27.2371,7.4466
27.2369,7.4481
27.2656,7.4502
27.3107,7.4792
27.6762,7.8447
27.6762,7.8447
28.0084,7.5125
28.0084,7.5125
27.6350,7.1391
27.6009,7.0768
27.6029,7.0500
27.8043,7.0500
27.8250,7.1541
27.8839,7.2423
27.9721,7.3012
28.0499,7.3167
28.1025,7.3167
28.1803,7.3012
28.2685,7.2423
28.3274,7.1541
28.3481,7.0500
28.3481,7.0500
28.6065,7.0500
28.6262,7.0697
28.6459,7.0500
28.9043,7.0500
28.9250,7.1541
28.9839,7.2423
29.0721,7.3012
29.1499,7.3167
29.2025,7.3167
29.2803,7.3012
29.3685,7.2423
29.4274,7.1541
29.4481,7.0500
29.4481,7.0500
29.7065,7.0500
29.7262,7.0697
29.7459,7.0500
30.0043,7.0500
30.0250,7.1541
30.0839,7.2423
30.1721,7.3012
30.2499,7.3167
30.3025,7.3167
30.3803,7.3012
30.4685,7.2423
30.5274,7.1541
30.5481,7.0500
30.5274,6.9459
30.4685,6.8577
30.3803,6.7988
30.3025,6.7833
30.2499,6.7833
30.1721,6.7988
30.0839,6.8577
30.0250,6.9459
30.0043,7.0500
29.7459,7.0500
29.7459,7.0500
29.7459,7.0500
29.7262,7.0303
29.7262,7.0303
29.7065,7.0500
29.4481,7.0500
29.4274,6.9459
29.3685,6.8577
29.2803,6.7988
29.2025,6.7833
29.1499,6.7833
29.0721,6.7988
28.9839,6.8577
28.9250,6.9459
28.9043,7.0500
28.6459,7.0500
28.6459,7.0500
28.6262,7.0303
28.6262,7.0303
28.6065,7.0500
28.3481,7.0500
28.3274,6.9459
28.2685,6.8577
28.1803,6.7988
28.1025,6.7833
28.0499,6.7833
27.9721,6.7988
27.8839,6.8577
27.8250,6.9459
27.8043,7.0500
27.6029,7.0500
27.6060,7.0060
27.6350,6.9609
28.0762,6.5197
28.1738,6.4221
28.2361,6.3880
28.2931,6.3888
28.3057,6.3919
28.3198,6.3954
28.3198,6.3954
28.4826,6.3954
28.4826,6.3954
28.6407,6.3564
28.7848,6.2808
28.7848,6.2808
28.7886,6.2782
28.8560,6.2559
28.9248,6.2737
28.9493,6.2928
29.1762,6.5197
29.4168,6.2791
29.4791,6.2451
29.5059,6.2422
29.5366,6.2422
29.5366,6.2422
29.6199,6.2307
29.6421,6.2277
29.7725,6.1711
29.7725,6.1711
29.7798,6.1666
29.7810,6.1685
29.8352,6.1458
29.9052,6.1580
29.9384,6.1819
30.2762,6.5197
30.7174,6.9609
30.7515,7.0232
30.7464,7.0940
30.7174,7.1391
30.1638,7.6928
30.1014,7.7268
30.0445,7.7260
29.9576,7.7046
29.9576,7.7046
29.7948,7.7046
29.7948,7.7046
29.6367,7.7436
29.5238,7.8028
29.4542,7.8167
29.3881,7.7908
29.3762,7.7803
29.1762,7.5803
29.0638,7.6928
29.0014,7.7268
28.9445,7.7260
28.8576,7.7046
28.8576,7.7046
28.6948,7.7046
28.6948,7.7046
28.5367,7.7436
28.3926,7.8192
28.3926,7.8192
28.2707,7.9272
28.1782,8.0612
28.1205,8.2134
28.1009,8.3750
28.1009,8.3750
28.1205,8.5366
28.1782,8.6888
28.2707,8.8228
28.2707,8.8228
28.2707,8.8228
28.3926,8.9308
28.5367,9.0064
28.6948,9.0454
28.6948,9.0454
28.8576,9.0454
28.8576,9.0454
29.0157,9.0064
29.1598,8.9308
29.2426,8.8574
29.3069,8.8272
29.3773,8.8365
29.4097,8.8574
29.4926,8.9308
29.6367,9.0064
29.7948,9.0454
29.7948,9.0454
29.9576,9.0454
29.9576,9.0454
30.1157,9.0064
30.2598,8.9308
30.3426,8.8574
30.4069,8.8272
30.4773,8.8365
30.5097,8.8574
30.5926,8.9308
30.7367,9.0064
30.8948,9.0454
30.8948,9.0454
31.0576,9.0454
31.0576,9.0454
31.2157,9.0064
31.3598,8.9308
31.4817,8.8228
31.5742,8.6888
31.6084,8.5986
31.6512,8.5420
31.7179,8.5176
31.7872,8.5330
31.8371,8.5835
31.8440,8.5986
31.8782,8.6888
31.9707,8.8228
31.9707,8.8228
31.9707,8.8228
32.0926,8.9308
32.2367,9.0064
32.3948,9.0454
32.3948,9.0454
32.5576,9.0454
32.5576,9.0454
32.7157,9.0064
32.8598,8.9308
32.9427,8.8574
33.0069,8.8272
33.0773,8.8365
33.1097,8.8574
33.1926,8.9308
33.3367,9.0064
33.4948,9.0454
33.4948,9.0454
33.6576,9.0454
33.6576,9.0454
33.8157,9.0064
33.9598,8.9308
34.0817,8.8228
34.1742,8.6888
34.2084,8.5986
34.2512,8.5420
34.3179,8.5176
34.3872,8.5330
34.4371,8.5835
34.4440,8.5986
34.4782,8.6888
34.5707,8.8228
34.5707,8.8228
34.5707,8.8228
34.6926,8.9308
34.8367,9.0064
34.9948,9.0454
34.9948,9.0454
35.1576,9.0454
35.1576,9.0454
35.3157,9.0064
35.4598,8.9308
35.5427,8.8574
35.6069,8.8272
35.6773,8.8365
35.7097,8.8574
35.7926,8.9308
35.9367,9.0064
36.0948,9.0454
36.0948,9.0454
36.2576,9.0454
36.2576,9.0454
36.4157,9.0064
36.5598,8.9308
36.6426,8.8574
36.7069,8.8272
36.7773,8.8365
36.8097,8.8574
36.8926,8.9308
37.0367,9.0064
37.1948,9.0454
37.1948,9.0454
37.3576,9.0454
37.3576,9.0454
37.5157,9.0064
37.6598,8.9308
37.7817,8.8228
37.8742,8.6888
37.9319,8.5366
37.9515,8.3750
38.1043,8.3750
38.1250,8.4791
38.1839,8.5673
38.2721,8.6262
38.3499,8.6417
38.4025,8.6417
38.4803,8.6262
38.5685,8.5673
38.6274,8.4791
38.6481,8.3750
38.9065,8.3750
39.2835,8.7520
39.2840,8.7510
39.3400,8.5667
39.3588,8.3750
39.3588,8.3750
39.3400,8.1833
39.2840,7.9990
39.2835,7.9980
38.9065,8.3750
38.9065,8.3750
38.6481,8.3750
38.6274,8.2709
38.5685,8.1827
38.4803,8.1238
38.4025,8.1083
38.3499,8.1083
38.2721,8.1238
38.1839,8.1827
38.1250,8.2709
38.1043,8.3750
37.9515,8.3750
37.9409,8.2879
37.9319,8.2134
37.9203,8.1827
37.8742,8.0612
37.7817,7.9272
37.6598,7.8192
37.6598,7.8192
37.6598,7.8192
37.5157,7.7436
37.3576,7.7046
37.3576,7.7046
37.1948,7.7046
37.1948,7.7046
37.1079,7.7260
37.0370,7.7229
36.9886,7.6928
36.8762,7.5803
36.8762,7.5803
36.6762,7.7803
36.6139,7.8144
36.5431,7.8093
36.5286,7.8028
36.4157,7.7436
36.3445,7.7260
36.2576,7.7046
36.2576,7.7046
36.0948,7.7046
36.0948,7.7046
36.0079,7.7260
35.9370,7.7229
35.8886,7.6928
35.3350,7.1391
35.3009,7.0768
35.3029,7.0500
35.5043,7.0500
35.5250,7.1541
35.5839,7.2423
35.6721,7.3012
35.7499,7.3167
35.8025,7.3167
35.8803,7.3012
35.9685,7.2423
36.0274,7.1541
36.0481,7.0500
36.3065,7.0500
36.3262,7.0697
36.3262,7.0697
36.3459,7.0500
36.3459,7.0500
36.6043,7.0500
36.6250,7.1541
36.6839,7.2423
36.7721,7.3012
36.8499,7.3167
36.9025,7.3167
36.9803,7.3012
37.0685,7.2423
37.1274,7.1541
37.1481,7.0500
37.4065,7.0500
37.4262,7.0697
37.4459,7.0500
37.7043,7.0500
37.7250,7.1541
37.7839,7.2423
37.8721,7.3012
37.9499,7.3167
38.0025,7.3167
38.0803,7.3012
38.1685,7.2423
38.2274,7.1541
38.2481,7.0500
38.2274,6.9459
38.1685,6.8577
38.0803,6.7988
38.0025,6.7833
37.9499,6.7833
37.8721,6.7988
37.7839,6.8577
37.7250,6.9459
37.7043,7.0500
37.4459,7.0500
37.4262,7.0303
37.4065,7.0500
37.1481,7.0500
37.1274,6.9459
37.0685,6.8577
36.9803,6.7988
36.9025,6.7833
36.8499,6.7833
36.7721,6.7988
36.6839,6.8577
36.6250,6.9459
36.6043,7.0500
36.3459,7.0500
36.3459,7.0500
36.3262,7.0303
36.3262,7.0303
36.3065,7.0500
36.3065,7.0500
36.0481,7.0500
36.0481,7.0500
36.0274,6.9459
35.9685,6.8577
35.8803,6.7988
35.8025,6.7833
35.7499,6.7833
35.6721,6.7988
35.5839,6.8577
35.5250,6.9459
35.5043,7.0500
35.3029,7.0500
35.3060,7.0060
35.3350,6.9609
35.7762,6.5197
36.0031,6.2928
36.0654,6.2587
36.1362,6.2638
36.1638,6.2782
36.1676,6.2808
36.1676,6.2808
36.3117,6.3564
36.4698,6.3954
36.4698,6.3954
36.6326,6.3954
36.6326,6.3954
36.6593,6.3888
36.7303,6.3919
36.7786,6.4221
36.8762,6.5197
37.1031,6.2928
37.1654,6.2587
37.2362,6.2638
37.2638,6.2782
37.2676,6.2808
37.2676,6.2808
37.4117,6.3564
37.5698,6.3954
37.5698,6.3954
37.7326,6.3954
37.7326,6.3954
37.7593,6.3888
37.8303,6.3919
37.8786,6.4221
38.4174,6.9609
38.4515,7.0232
38.4464,7.0940
38.4174,7.1391
38.0440,7.5125
38.3762,7.8447
38.7417,7.4792
38.8040,7.4451
38.8182,7.4462
38.8780,7.4373
38.8840,7.4260
38.8840,7.4260
38.8843,7.4250
40.5182,7.4250
40.5182,8.2495
40.5328,8.3976
40.5328,8.3976
40.5904,8.5876
40.5904,8.5876
40.6840,8.7627
40.8100,8.9162
40.9635,9.0422
41.1386,9.1358
41.1512,9.1396
41.1512,9.1396
41.1512,8.2034
41.2012,8.2034
41.2161,8.2879
41.2734,8.3871
41.3612,8.4608
41.4689,8.5000
41.5835,8.5000
41.6912,8.4608
41.7790,8.3871
41.8363,8.2879
41.8512,8.2034
41.8512,7.4250
41.9012,7.4250
41.9012,9.1396
41.9138,9.1358
41.9138,9.1358
42.0889,9.0422
42.2424,8.9162
42.3684,8.7627
42.4620,8.5876
42.4620,8.5876
42.5196,8.3976
42.5196,8.3976
42.5342,8.2495
42.5342,8.2495
42.5342,7.4250
41.9012,7.4250
41.8512,7.4250
41.8512,5.8966
41.8363,5.8121
41.7790,5.7129
41.6912,5.6392
41.5835,5.6000
41.4689,5.6000
41.3612,5.6392
41.2734,5.7129
41.2161,5.8121
41.2012,5.8966
41.2012,8.2034
41.1512,8.2034
41.1512,7.4250
40.5182,7.4250
38.8843,7.4250
38.9400,7.2417
38.9588,7.0500
38.9588,7.0500
38.9400,6.8583
38.9297,6.8244
38.9290,6.7534
38.9669,6.6934
38.9998,6.6750
40.5182,6.6750
41.1512,6.6750
41.1512,4.9604
41.9012,4.9604
41.9012,6.6750
42.5342,6.6750
42.5342,5.8505
42.5342,5.8505
42.5196,5.7024
42.5196,5.7024
42.4620,5.5124
42.4620,5.5124
42.3684,5.3373
42.2424,5.1838
42.0889,5.0578
41.9138,4.9642
41.9012,4.9604
41.1512,4.9604
41.1386,4.9642
40.9635,5.0578
40.8100,5.1838
40.6840,5.3373
40.5904,5.5124
40.5904,5.5124
40.5328,5.7024
40.5328,5.7024
40.5182,5.8505
40.5182,6.6750
38.9998,6.6750
39.0137,6.6673
39.1272,6.6328
39.1282,6.6323
38.7512,6.2553
38.3585,5.8626
38.3244,5.8003
38.3225,5.7583
38.3265,5.7250
38.4793,5.7250
38.5000,5.8291
38.5589,5.9173
38.6471,5.9762
38.7249,5.9917
38.7775,5.9917
38.8553,5.9762
38.9435,5.9173
39.0024,5.8291
39.0231,5.7250
39.2815,5.7250
39.6585,6.1020
39.6590,6.1010
39.7150,5.9167
39.7338,5.7250
39.7338,5.7250
39.7150,5.5333
39.6590,5.3490
39.6585,5.3480
39.2815,5.7250
39.2815,5.7250
39.0231,5.7250
39.0231,5.7250
39.0024,5.6209
38.9435,5.5327
38.8553,5.4738
38.7775,5.4583
38.7249,5.4583
38.6471,5.4738
38.5589,5.5327
38.5000,5.6209
38.4793,5.7250
38.3265,5.7250
38.3265,5.7250
38.3069,5.5634
38.2891,5.5165
38.2492,5.4112
38.1875,5.3218
38.1567,5.2772
38.0348,5.1692
38.0348,5.1692
37.8907,5.0936
37.7326,5.0546
37.7326,5.0546
37.5698,5.0546
37.5698,5.0546
37.4117,5.0936
37.2676,5.1692
37.2676,5.1692
37.1848,5.2426
37.1205,5.2728
37.0501,5.2635
37.0176,5.2426
36.9348,5.1692
36.9348,5.1692
36.7907,5.0936
36.6326,5.0546
36.6326,5.0546
36.4698,5.0546
36.4698,5.0546
36.3117,5.0936
36.1676,5.1692
36.1676,5.1692
36.0848,5.2426
36.0205,5.2728
35.9501,5.2635
35.9176,5.2426
35.8348,5.1692
35.8348,5.1692
35.6907,5.0936
35.5326,5.0546
35.5326,5.0546
35.3698,5.0546
35.3698,5.0546
35.2117,5.0936
35.0676,5.1692
35.0676,5.1692
34.9457,5.2772
34.8532,5.4112
34.8190,5.5014
34.7762,5.5580
34.7095,5.5824
34.6402,5.5670
34.5903,5.5165
34.5834,5.5014
34.5670,5.4583
34.5492,5.4112
34.4875,5.3218
34.4567,5.2772
34.3348,5.1692
34.3348,5.1692
34.1907,5.0936
34.0326,5.0546
34.0326,5.0546
33.8698,5.0546
33.8698,5.0546
33.7117,5.0936
33.5676,5.1692
33.5676,5.1692
33.4457,5.2772
33.3532,5.4112
33.2955,5.5634
33.2759,5.7250
33.2759,5.7250
33.2955,5.8866
33.3532,6.0388
33.4457,6.1728
33.4457,6.1728
33.4457,6.1728
33.5676,6.2808
33.7117,6.3564
33.8698,6.3954
33.8698,6.3954
33.8999,6.3954
33.9680,6.4154
34.0145,6.4691
34.0259,6.5214
34.0259,6.5250
34.0455,6.6866
34.0708,6.7534
34.0940,6.8146
34.0940,6.8146
34.0995,6.8854
34.0658,6.9479
34.0348,6.9708
33.9426,7.0192
33.9426,7.0192
33.8207,7.1272
33.7282,7.2612
33.6705,7.4134
33.6509,7.5750
33.6509,7.5786
33.6501,7.5811
33.6500,7.5826
33.6497,7.5825
33.6309,7.6467
33.5772,7.6932
33.5249,7.7046
33.4948,7.7046
33.3367,7.7436
33.1926,7.8192
33.1926,7.8192
33.1342,7.8709
33.1168,7.8863
33.1098,7.8926
33.0455,7.9228
32.9751,7.9135
32.9426,7.8926
32.9356,7.8863
32.8598,7.8192
32.8598,7.8192
32.8598,7.8192
32.7157,7.7436
32.5576,7.7046
32.5576,7.7046
32.5275,7.7046
32.4594,7.6846
32.4129,7.6309
32.4015,7.5786
32.4015,7.5750
32.3819,7.4134
32.3452,7.3167
32.3242,7.2612
32.2502,7.1541
32.2317,7.1272
32.1098,7.0192
32.0176,6.9708
31.9666,6.9215
31.9504,6.8523
31.9584,6.8146
32.0069,6.6866
32.0265,6.5250
32.0259,6.5197
32.0093,6.3834
32.0210,6.3134
32.0686,6.2607
32.1323,6.2428
32.1323,6.2425
32.1337,6.2424
32.1344,6.2422
32.1366,6.2422
32.1366,6.2422
32.2199,6.2307
32.2421,6.2277
32.3725,6.1711
32.4827,6.0813
32.5647,5.9652
32.6123,5.8312
32.6220,5.6894
32.5931,5.5502
32.5931,5.5502
32.5931,5.5502
32.5593,5.4848
32.5277,5.4239
32.4307,5.3200
32.4307,5.3200
32.3092,5.2462
32.3092,5.2462
32.3092,5.2462
32.1723,5.2078
32.0658,5.2078
32.0658,5.2078
31.9604,5.2223
31.9603,5.2223
31.8567,5.2673
31.7862,5.2761
31.7222,5.2454
31.6849,5.1850
31.6824,5.1571
31.6814,5.1572
31.6805,5.1462
31.6805,5.1462
31.6700,5.1071
31.6688,5.1018
31.6618,5.0620
31.6618,5.0619
31.6597,5.0562
31.6533,5.0409
31.6508,5.0353
31.6276,5.0022
31.6246,4.9976
31.6044,4.9625
31.5734,4.9365
31.5694,4.9328
31.4542,4.8177
38.3742,4.8177
38.7512,5.1947
38.7512,5.1947
39.1282,4.8177
39.1282,4.8177
39.1272,4.8172
38.9429,4.7612
38.7512,4.7424
38.7512,4.7424
38.5595,4.7612
38.3752,4.8172
38.3752,4.8172
38.3742,4.8177
38.3742,4.8177
31.4542,4.8177
30.9934,4.3568
30.9896,4.3528
30.9637,4.3218
30.9637,4.3218
30.9286,4.3016
30.9240,4.2986
30.8909,4.2754
30.8854,4.2729
30.8700,4.2665
30.8642,4.2644
30.8401,4.2601
30.8244,4.2574
30.8191,4.2562
30.7800,4.2457
30.7800,4.2457
30.7683,4.2468
30.7397,4.2493
30.7342,4.2495
29.6882,4.2495
29.6201,4.2295
29.5991,4.2126
28.7434,3.3568
28.7396,3.3528
28.7137,3.3218
28.7137,3.3218
28.6928,3.3098
28.6606,3.2832
28.5823,3.1929
28.4613,3.1150
28.3232,3.0745
28.1792,3.0745
28.0411,3.1150
27.9201,3.1929
27.8258,3.3016
27.7660,3.4325
27.7456,3.5750
27.7660,3.7175
27.8258,3.8484
27.9201,3.9571
27.9806,3.9960
28.0411,4.0350
28.1792,4.0755
28.3232,4.0755
28.3232,4.0755
28.4201,4.0470
28.4911,4.0470
28.5447,4.0788
28.7645,4.2986
29.0412,4.5753
29.0412,4.5753
29.2591,4.7932
29.2628,4.7972
29.2799,4.8177
29.2887,4.8282
29.3238,4.8484
29.3284,4.8514
29.3615,4.8746
29.3671,4.8771
29.3824,4.8835
29.3882,4.8856
29.4280,4.8926
29.4333,4.8938
29.4724,4.9043
29.5032,4.9016
29.5127,4.9007
29.5182,4.9005
30.5642,4.9005
30.6323,4.9205
30.6533,4.9374
30.7086,4.9927
30.7426,5.0550
30.7375,5.1258
30.6950,5.1827
30.6285,5.2075
30.6195,5.2078
30.5658,5.2078
30.4604,5.2223
30.4603,5.2223
30.3299,5.2789
30.3299,5.2789
30.2197,5.3687
30.2197,5.3687
30.1543,5.4613
30.0986,5.5054
30.0280,5.5125
29.9648,5.4802
29.9395,5.4466
29.9277,5.4239
29.9277,5.4239
29.9277,5.4239
29.8307,5.3200
29.8307,5.3200
29.7092,5.2462
29.7092,5.2462
29.7092,5.2462
29.5723,5.2078
29.4658,5.2078
29.4658,5.2078
29.3604,5.2223
29.3603,5.2223
29.2299,5.2789
29.2299,5.2789
29.1295,5.3607
29.0640,5.3881
28.9941,5.3759
28.9463,5.3345
28.9067,5.2772
28.7848,5.1692
28.7848,5.1692
28.7848,5.1692
28.6407,5.0936
28.4826,5.0546
28.4826,5.0546
28.3198,5.0546
28.3198,5.0546
28.1617,5.0936
28.0176,5.1692
28.0176,5.1692
27.8957,5.2772
27.8032,5.4112
27.7455,5.5634
27.7259,5.7250
27.7259,5.7250
27.7299,5.7583
27.7183,5.8283
27.6939,5.8626
27.3012,6.2553
26.9242,6.6323
25.5342,6.6323
25.5342,5.8505
25.5342,5.8505
25.5218,5.7250
26.3186,5.7250
26.3374,5.9167
26.3934,6.1010
26.3939,6.1020
26.7709,5.7250
27.0293,5.7250
27.0500,5.8291
27.1089,5.9173
27.1971,5.9762
27.2749,5.9917
27.3275,5.9917
27.4053,5.9762
27.4935,5.9173
27.5524,5.8291
27.5731,5.7250
27.5524,5.6209
27.4935,5.5327
27.4053,5.4738
27.3275,5.4583
27.2749,5.4583
27.1971,5.4738
27.1089,5.5327
27.0500,5.6209
27.0293,5.7250
26.7709,5.7250
26.7709,5.7250
26.3939,5.3480
26.3939,5.3480
26.3934,5.3490
26.3934,5.3490
26.3374,5.5333
26.3186,5.7250
26.3186,5.7250
25.5218,5.7250
25.5196,5.7024
25.5196,5.7024
25.4620,5.5124
25.4620,5.5124
25.3684,5.3373
25.2424,5.1838
25.0889,5.0578
24.9138,4.9642
24.9012,4.9604
24.1512,4.9604
24.1386,4.9642
23.9635,5.0578
23.8100,5.1838
23.6840,5.3373
23.5904,5.5124
23.5904,5.5124
23.5328,5.7024
23.5328,5.7024
23.5182,5.8505
23.5182,6.6750
3.8115,6.6750
3.8452,6.6593
3.2512,6.0653
2.6572,6.6593
2.6572,6.6593
0.7517,6.6593
0.7517,5.5350
1.9763,5.5350
1.9957,5.7564
2.0532,5.9710
2.0532,5.9710
2.1269,6.1290
2.1269,6.1290
2.6478,5.6080
2.7432,5.6080
2.7844,5.7482
2.8633,5.8711
2.9737,5.9668
3.1066,6.0274
3.2149,6.0430
3.2875,6.0430
3.3958,6.0274
3.5287,5.9668
3.6391,5.8711
3.7180,5.7482
3.7592,5.6080
3.7592,5.5350
3.7815,5.5350
4.3755,6.1290
4.4492,5.9710
4.4492,5.9710
4.5067,5.7564
4.5260,5.5350
4.5067,5.3136
4.4492,5.0990
4.4492,5.0990
4.3755,4.9410
3.7815,5.5350
3.7592,5.5350
3.7592,5.4620
3.7180,5.3218
3.6391,5.1989
3.5287,5.1032
3.3958,5.0426
3.2875,5.0270
3.2149,5.0270
3.1066,5.0426
2.9737,5.1032
2.8633,5.1989
2.7844,5.3218
2.7432,5.4620
2.7432,5.6080
2.6478,5.6080
2.7209,5.5350
2.1269,4.9410
2.0532,5.0990
2.0532,5.0990
1.9957,5.3136
1.9763,5.5350
0.7517,5.5350
0.7517,4.4107
2.6572,4.4107
3.2512,5.0047
3.2512,5.0047
3.4382,4.8177
26.9242,4.8177
27.3012,5.1947
27.3012,5.1947
27.6782,4.8177
27.6782,4.8177
27.6772,4.8172
27.4929,4.7612
27.3012,4.7424
27.3012,4.7424
27.1095,4.7612
26.9252,4.8172
26.9242,4.8177
3.4382,4.8177
3.8452,4.4107
3.8452,4.4107
3.6872,4.3370
3.6872,4.3370
3.4726,4.2795
3.2512,4.2601
3.0298,4.2795
2.8152,4.3370
2.8152,4.3370
2.6572,4.4107
0.7517,4.4107
0.7517,0.7015
0.7717,0.6334
0.8254,0.5869
0.8777,0.5755
43.6247,0.5755
Z" /> 
</g>
</g>
</g>
<g style="fill:#000000; fill-opacity:1.0000; 
stroke:#000000; stroke-width:0.0000; stroke-opacity:1; 
stroke-linecap:round; stroke-linejoin:round;">
<circle cx="10.2512" cy="8.0750" r="0.2000" /> 
</g>
<g style="fill:#000000; fill-opacity:1.0000; 
stroke:#000000; stroke-width:0.0212; stroke-opacity:1; 
stroke-linecap:round; stroke-linejoin:round;">
</g>
<g style="fill:#000000; fill-opacity:1.0000; 
stroke:#000000; stroke-width:0.0000; stroke-opacity:1; 
stroke-linecap:round; stroke-linejoin:round;">
<circle cx="19.7512" cy="8.0750" r="0.2000" /> 
</g>
<g style="fill:#000000; fill-opacity:1.0000; 
stroke:#000000; stroke-width:0.0212; stroke-opacity:1; 
stroke-linecap:round; stroke-linejoin:round;">
</g>
<g style="fill:#000000; fill-opacity:1.0000; 
stroke:#000000; stroke-width:0.0000; stroke-opacity:1; 
stroke-linecap:round; stroke-linejoin:round;">
<circle cx="28.2512" cy="3.5750" r="0.2000" /> 
</g>
<g style="fill:#000000; fill-opacity:1.0000; 
stroke:#000000; stroke-width:0.0212; stroke-opacity:1; 
stroke-linecap:round; stroke-linejoin:round;">
</g>
<g style="fill:#000000; fill-opacity:1.0000; 
stroke:#000000; stroke-width:0.6500; stroke-opacity:1; 
stroke-linecap:round; stroke-linejoin:round;">
</g>
<g style="fill:#000000; fill-opacity:0.0; 
stroke:#000000; stroke-width:0.6500; stroke-opacity:1; 
stroke-linecap:round; stroke-linejoin:round;">
<path d="M24.5262 5.9250
L24.5262 8.1750
" />
<path d="M41.5262 5.9250
L41.5262 8.1750
" />
</g>
<g style="fill:#000000; fill-opacity:1.0000; 
stroke:#000000; stroke-width:0.0000; stroke-opacity:1; 
stroke-linecap:round; stroke-linejoin:round;">
<circle cx="27.3012" cy="5.7250" r="0.2667" /> 
</g>
<g style="fill:#000000; fill-opacity:1.0000; 
stroke:#000000; stroke-width:0.0212; stroke-opacity:1; 
stroke-linecap:round; stroke-linejoin:round;">
</g>
<g style="fill:#000000; fill-opacity:1.0000; 
stroke:#000000; stroke-width:0.0000; stroke-opacity:1; 
stroke-linecap:round; stroke-linejoin:round;">
<circle cx="28.4012" cy="5.7250" r="0.2667" /> 
</g>
<g style="fill:#000000; fill-opacity:1.0000; 
stroke:#000000; stroke-width:0.0212; stroke-opacity:1; 
stroke-linecap:round; stroke-linejoin:round;">
</g>
<g style="fill:#000000; fill-opacity:1.0000; 
stroke:#000000; stroke-width:0.0000; stroke-opacity:1; 
stroke-linecap:round; stroke-linejoin:round;">
<circle cx="29.5012" cy="5.7250" r="0.2667" /> 
</g>
<g style="fill:#000000; fill-opacity:1.0000; 
stroke:#000000; stroke-width:0.0212; stroke-opacity:1; 
stroke-linecap:round; stroke-linejoin:round;">
</g>
<g style="fill:#000000; fill-opacity:1.0000; 
stroke:#000000; stroke-width:0.0000; stroke-opacity:1; 
stroke-linecap:round; stroke-linejoin:round;">
<circle cx="30.6012" cy="5.7250" r="0.2667" /> 
</g>
<g style="fill:#000000; fill-opacity:1.0000; 
stroke:#000000; stroke-width:0.0212; stroke-opacity:1; 
stroke-linecap:round; stroke-linejoin:round;">
</g>
<g style="fill:#000000; fill-opacity:1.0000; 
stroke:#000000; stroke-width:0.0000; stroke-opacity:1; 
stroke-linecap:round; stroke-linejoin:round;">
<circle cx="31.3512" cy="6.5250" r="0.2667" /> 
</g>
<g style="fill:#000000; fill-opacity:1.0000; 
stroke:#000000; stroke-width:0.0212; stroke-opacity:1; 
stroke-linecap:round; stroke-linejoin:round;">
</g>
<g style="fill:#000000; fill-opacity:1.0000; 
stroke:#000000; stroke-width:0.0000; stroke-opacity:1; 
stroke-linecap:round; stroke-linejoin:round;">
<circle cx="32.1012" cy="5.7250" r="0.2667" /> 
</g>
<g style="fill:#000000; fill-opacity:1.0000; 
stroke:#000000; stroke-width:0.0212; stroke-opacity:1; 
stroke-linecap:round; stroke-linejoin:round;">
</g>
<g style="fill:#000000; fill-opacity:1.0000; 
stroke:#000000; stroke-width:0.0000; stroke-opacity:1; 
stroke-linecap:round; stroke-linejoin:round;">
<circle cx="33.9512" cy="5.7250" r="0.2667" /> 
</g>
<g style="fill:#000000; fill-opacity:1.0000; 
stroke:#000000; stroke-width:0.0212; stroke-opacity:1; 
stroke-linecap:round; stroke-linejoin:round;">
</g>
<g style="fill:#000000; fill-opacity:1.0000; 
stroke:#000000; stroke-width:0.0000; stroke-opacity:1; 
stroke-linecap:round; stroke-linejoin:round;">
<circle cx="34.7012" cy="6.5250" r="0.2667" /> 
</g>
<g style="fill:#000000; fill-opacity:1.0000; 
stroke:#000000; stroke-width:0.0212; stroke-opacity:1; 
stroke-linecap:round; stroke-linejoin:round;">
</g>
<g style="fill:#000000; fill-opacity:1.0000; 
stroke:#000000; stroke-width:0.0000; stroke-opacity:1; 
stroke-linecap:round; stroke-linejoin:round;">
<circle cx="35.4512" cy="5.7250" r="0.2667" /> 
</g>
<g style="fill:#000000; fill-opacity:1.0000; 
stroke:#000000; stroke-width:0.0212; stroke-opacity:1; 
stroke-linecap:round; stroke-linejoin:round;">
</g>
<g style="fill:#000000; fill-opacity:1.0000; 
stroke:#000000; stroke-width:0.0000; stroke-opacity:1; 
stroke-linecap:round; stroke-linejoin:round;">
<circle cx="36.5512" cy="5.7250" r="0.2667" /> 
</g>
<g style="fill:#000000; fill-opacity:1.0000; 
stroke:#000000; stroke-width:0.0212; stroke-opacity:1; 
stroke-linecap:round; stroke-linejoin:round;">
</g>
<g style="fill:#000000; fill-opacity:1.0000; 
stroke:#000000; stroke-width:0.0000; stroke-opacity:1; 
stroke-linecap:round; stroke-linejoin:round;">
<circle cx="37.6512" cy="5.7250" r="0.2667" /> 
</g>
<g style="fill:#000000; fill-opacity:1.0000; 
stroke:#000000; stroke-width:0.0212; stroke-opacity:1; 
stroke-linecap:round; stroke-linejoin:round;">
</g>
<g style="fill:#000000; fill-opacity:1.0000; 
stroke:#000000; stroke-width:0.0000; stroke-opacity:1; 
stroke-linecap:round; stroke-linejoin:round;">
<circle cx="38.7512" cy="5.7250" r="0.2667" /> 
</g>
<g style="fill:#000000; fill-opacity:1.0000; 
stroke:#000000; stroke-width:0.0212; stroke-opacity:1; 
stroke-linecap:round; stroke-linejoin:round;">
</g>
<g style="fill:#000000; fill-opacity:1.0000; 
stroke:#000000; stroke-width:0.0000; stroke-opacity:1; 
stroke-linecap:round; stroke-linejoin:round;">
<circle cx="38.3762" cy="8.3750" r="0.2667" /> 
</g>
<g style="fill:#000000; fill-opacity:1.0000; 
stroke:#000000; stroke-width:0.0212; stroke-opacity:1; 
stroke-linecap:round; stroke-linejoin:round;">
</g>
<g style="fill:#000000; fill-opacity:1.0000; 
stroke:#000000; stroke-width:0.0000; stroke-opacity:1; 
stroke-linecap:round; stroke-linejoin:round;">
<circle cx="37.2762" cy="8.3750" r="0.2667" /> 
</g>
<g style="fill:#000000; fill-opacity:1.0000; 
stroke:#000000; stroke-width:0.0212; stroke-opacity:1; 
stroke-linecap:round; stroke-linejoin:round;">
</g>
<g style="fill:#000000; fill-opacity:1.0000; 
stroke:#000000; stroke-width:0.0000; stroke-opacity:1; 
stroke-linecap:round; stroke-linejoin:round;">
<circle cx="36.1762" cy="8.3750" r="0.2667" /> 
</g>
<g style="fill:#000000; fill-opacity:1.0000; 
stroke:#000000; stroke-width:0.0212; stroke-opacity:1; 
stroke-linecap:round; stroke-linejoin:round;">
</g>
<g style="fill:#000000; fill-opacity:1.0000; 
stroke:#000000; stroke-width:0.0000; stroke-opacity:1; 
stroke-linecap:round; stroke-linejoin:round;">
<circle cx="35.0762" cy="8.3750" r="0.2667" /> 
</g>
<g style="fill:#000000; fill-opacity:1.0000; 
stroke:#000000; stroke-width:0.0212; stroke-opacity:1; 
stroke-linecap:round; stroke-linejoin:round;">
</g>
<g style="fill:#000000; fill-opacity:1.0000; 
stroke:#000000; stroke-width:0.0000; stroke-opacity:1; 
stroke-linecap:round; stroke-linejoin:round;">
<circle cx="34.3262" cy="7.5750" r="0.2667" /> 
</g>
<g style="fill:#000000; fill-opacity:1.0000; 
stroke:#000000; stroke-width:0.0212; stroke-opacity:1; 
stroke-linecap:round; stroke-linejoin:round;">
</g>
<g style="fill:#000000; fill-opacity:1.0000; 
stroke:#000000; stroke-width:0.0000; stroke-opacity:1; 
stroke-linecap:round; stroke-linejoin:round;">
<circle cx="33.5762" cy="8.3750" r="0.2667" /> 
</g>
<g style="fill:#000000; fill-opacity:1.0000; 
stroke:#000000; stroke-width:0.0212; stroke-opacity:1; 
stroke-linecap:round; stroke-linejoin:round;">
</g>
<g style="fill:#000000; fill-opacity:1.0000; 
stroke:#000000; stroke-width:0.0000; stroke-opacity:1; 
stroke-linecap:round; stroke-linejoin:round;">
<circle cx="32.4762" cy="8.3750" r="0.2667" /> 
</g>
<g style="fill:#000000; fill-opacity:1.0000; 
stroke:#000000; stroke-width:0.0212; stroke-opacity:1; 
stroke-linecap:round; stroke-linejoin:round;">
</g>
<g style="fill:#000000; fill-opacity:1.0000; 
stroke:#000000; stroke-width:0.0000; stroke-opacity:1; 
stroke-linecap:round; stroke-linejoin:round;">
<circle cx="31.7262" cy="7.5750" r="0.2667" /> 
</g>
<g style="fill:#000000; fill-opacity:1.0000; 
stroke:#000000; stroke-width:0.0212; stroke-opacity:1; 
stroke-linecap:round; stroke-linejoin:round;">
</g>
<g style="fill:#000000; fill-opacity:1.0000; 
stroke:#000000; stroke-width:0.0000; stroke-opacity:1; 
stroke-linecap:round; stroke-linejoin:round;">
<circle cx="30.9762" cy="8.3750" r="0.2667" /> 
</g>
<g style="fill:#000000; fill-opacity:1.0000; 
stroke:#000000; stroke-width:0.0212; stroke-opacity:1; 
stroke-linecap:round; stroke-linejoin:round;">
</g>
<g style="fill:#000000; fill-opacity:1.0000; 
stroke:#000000; stroke-width:0.0000; stroke-opacity:1; 
stroke-linecap:round; stroke-linejoin:round;">
<circle cx="29.8762" cy="8.3750" r="0.2667" /> 
</g>
<g style="fill:#000000; fill-opacity:1.0000; 
stroke:#000000; stroke-width:0.0212; stroke-opacity:1; 
stroke-linecap:round; stroke-linejoin:round;">
</g>
<g style="fill:#000000; fill-opacity:1.0000; 
stroke:#000000; stroke-width:0.0000; stroke-opacity:1; 
stroke-linecap:round; stroke-linejoin:round;">
<circle cx="28.7762" cy="8.3750" r="0.2667" /> 
</g>
<g style="fill:#000000; fill-opacity:1.0000; 
stroke:#000000; stroke-width:0.0212; stroke-opacity:1; 
stroke-linecap:round; stroke-linejoin:round;">
</g>
<g style="fill:#000000; fill-opacity:1.0000; 
stroke:#000000; stroke-width:0.0000; stroke-opacity:1; 
stroke-linecap:round; stroke-linejoin:round;">
<circle cx="27.6762" cy="8.3750" r="0.2667" /> 
</g>
<g style="fill:#000000; fill-opacity:1.0000; 
stroke:#000000; stroke-width:0.0212; stroke-opacity:1; 
stroke-linecap:round; stroke-linejoin:round;">
</g>
<g style="fill:#000000; fill-opacity:1.0000; 
stroke:#000000; stroke-width:0.0000; stroke-opacity:1; 
stroke-linecap:round; stroke-linejoin:round;">
<circle cx="28.0762" cy="7.0500" r="0.2667" /> 
</g>
<g style="fill:#000000; fill-opacity:1.0000; 
stroke:#000000; stroke-width:0.0212; stroke-opacity:1; 
stroke-linecap:round; stroke-linejoin:round;">
</g>
<g style="fill:#000000; fill-opacity:1.0000; 
stroke:#000000; stroke-width:0.0000; stroke-opacity:1; 
stroke-linecap:round; stroke-linejoin:round;">
<circle cx="29.1762" cy="7.0500" r="0.2667" /> 
</g>
<g style="fill:#000000; fill-opacity:1.0000; 
stroke:#000000; stroke-width:0.0212; stroke-opacity:1; 
stroke-linecap:round; stroke-linejoin:round;">
</g>
<g style="fill:#000000; fill-opacity:1.0000; 
stroke:#000000; stroke-width:0.0000; stroke-opacity:1; 
stroke-linecap:round; stroke-linejoin:round;">
<circle cx="30.2762" cy="7.0500" r="0.2667" /> 
</g>
<g style="fill:#000000; fill-opacity:1.0000; 
stroke:#000000; stroke-width:0.0212; stroke-opacity:1; 
stroke-linecap:round; stroke-linejoin:round;">
</g>
<g style="fill:#000000; fill-opacity:1.0000; 
stroke:#000000; stroke-width:0.0000; stroke-opacity:1; 
stroke-linecap:round; stroke-linejoin:round;">
<circle cx="35.7762" cy="7.0500" r="0.2667" /> 
</g>
<g style="fill:#000000; fill-opacity:1.0000; 
stroke:#000000; stroke-width:0.0212; stroke-opacity:1; 
stroke-linecap:round; stroke-linejoin:round;">
</g>
<g style="fill:#000000; fill-opacity:1.0000; 
stroke:#000000; stroke-width:0.0000; stroke-opacity:1; 
stroke-linecap:round; stroke-linejoin:round;">
<circle cx="36.8762" cy="7.0500" r="0.2667" /> 
</g>
<g style="fill:#000000; fill-opacity:1.0000; 
stroke:#000000; stroke-width:0.0212; stroke-opacity:1; 
stroke-linecap:round; stroke-linejoin:round;">
</g>
<g style="fill:#000000; fill-opacity:1.0000; 
stroke:#000000; stroke-width:0.0000; stroke-opacity:1; 
stroke-linecap:round; stroke-linejoin:round;">
<circle cx="37.9762" cy="7.0500" r="0.2667" /> 
</g>
<g style="fill:#000000; fill-opacity:1.0000; 
stroke:#000000; stroke-width:0.0212; stroke-opacity:1; 
stroke-linecap:round; stroke-linejoin:round;">
</g>
<g style="fill:#000000; fill-opacity:1.0000; 
stroke:#000000; stroke-width:0.0000; stroke-opacity:1; 
stroke-linecap:round; stroke-linejoin:round;">
<circle cx="3.2512" cy="5.5350" r="0.5080" /> 
</g>
<g style="fill:#000000; fill-opacity:1.0000; 
stroke:#000000; stroke-width:0.0212; stroke-opacity:1; 
stroke-linecap:round; stroke-linejoin:round;">
</g>
<g style="fill:#000000; fill-opacity:1.0000; 
stroke:#000000; stroke-width:0.0000; stroke-opacity:1; 
stroke-linecap:round; stroke-linejoin:round;">
<circle cx="3.2512" cy="8.0750" r="0.5080" /> 
</g>
<g style="fill:#000000; fill-opacity:1.0000; 
stroke:#000000; stroke-width:0.0212; stroke-opacity:1; 
stroke-linecap:round; stroke-linejoin:round;">
</g>
<g style="fill:#FFFFFF; fill-opacity:1.0000; 
stroke:#FFFFFF; stroke-width:0.0212; stroke-opacity:1; 
stroke-linecap:round; stroke-linejoin:round;">
<g >
</g>
<g style="fill:#37CBCB; fill-opacity:1.0000; 
stroke:#37CBCB; stroke-width:0.0212; stroke-opacity:1; 
stroke-linecap:round; stroke-linejoin:round;">
</g>
<g style="fill:#37CBCB; fill-opacity:1.0000; 
stroke:#37CBCB; stroke-width:1.0000; stroke-opacity:1; 
stroke-linecap:round; stroke-linejoin:round;">
</g>
<g style="fill:#37CBCB; fill-opacity:0.0; 
stroke:#37CBCB; stroke-width:1.0000; stroke-opacity:1; 
stroke-linecap:round; stroke-linejoin:round;">
<path d="M24.5262 5.9000
L24.5262 8.2000
" />
<path d="M41.5262 5.9000
L41.5262 8.2000
" />
</g>
<g style="fill:#37CBCB; fill-opacity:1.0000; 
stroke:#37CBCB; stroke-width:0.0000; stroke-opacity:1; 
stroke-linecap:round; stroke-linejoin:round;">
<circle cx="27.3012" cy="5.7250" r="0.4699" /> 
</g>
<g style="fill:#37CBCB; fill-opacity:1.0000; 
stroke:#37CBCB; stroke-width:0.0212; stroke-opacity:1; 
stroke-linecap:round; stroke-linejoin:round;">
</g>
<g style="fill:#37CBCB; fill-opacity:1.0000; 
stroke:#37CBCB; stroke-width:0.0000; stroke-opacity:1; 
stroke-linecap:round; stroke-linejoin:round;">
<circle cx="28.4012" cy="5.7250" r="0.4699" /> 
</g>
<g style="fill:#37CBCB; fill-opacity:1.0000; 
stroke:#37CBCB; stroke-width:0.0212; stroke-opacity:1; 
stroke-linecap:round; stroke-linejoin:round;">
</g>
<g style="fill:#37CBCB; fill-opacity:1.0000; 
stroke:#37CBCB; stroke-width:0.0000; stroke-opacity:1; 
stroke-linecap:round; stroke-linejoin:round;">
<circle cx="29.5012" cy="5.7250" r="0.4699" /> 
</g>
<g style="fill:#37CBCB; fill-opacity:1.0000; 
stroke:#37CBCB; stroke-width:0.0212; stroke-opacity:1; 
stroke-linecap:round; stroke-linejoin:round;">
</g>
<g style="fill:#37CBCB; fill-opacity:1.0000; 
stroke:#37CBCB; stroke-width:0.0000; stroke-opacity:1; 
stroke-linecap:round; stroke-linejoin:round;">
<circle cx="30.6012" cy="5.7250" r="0.4699" /> 
</g>
<g style="fill:#37CBCB; fill-opacity:1.0000; 
stroke:#37CBCB; stroke-width:0.0212; stroke-opacity:1; 
stroke-linecap:round; stroke-linejoin:round;">
</g>
<g style="fill:#37CBCB; fill-opacity:1.0000; 
stroke:#37CBCB; stroke-width:0.0000; stroke-opacity:1; 
stroke-linecap:round; stroke-linejoin:round;">
<circle cx="31.3512" cy="6.5250" r="0.4699" /> 
</g>
<g style="fill:#37CBCB; fill-opacity:1.0000; 
stroke:#37CBCB; stroke-width:0.0212; stroke-opacity:1; 
stroke-linecap:round; stroke-linejoin:round;">
</g>
<g style="fill:#37CBCB; fill-opacity:1.0000; 
stroke:#37CBCB; stroke-width:0.0000; stroke-opacity:1; 
stroke-linecap:round; stroke-linejoin:round;">
<circle cx="32.1012" cy="5.7250" r="0.4699" /> 
</g>
<g style="fill:#37CBCB; fill-opacity:1.0000; 
stroke:#37CBCB; stroke-width:0.0212; stroke-opacity:1; 
stroke-linecap:round; stroke-linejoin:round;">
</g>
<g style="fill:#37CBCB; fill-opacity:1.0000; 
stroke:#37CBCB; stroke-width:0.0000; stroke-opacity:1; 
stroke-linecap:round; stroke-linejoin:round;">
<circle cx="33.9512" cy="5.7250" r="0.4699" /> 
</g>
<g style="fill:#37CBCB; fill-opacity:1.0000; 
stroke:#37CBCB; stroke-width:0.0212; stroke-opacity:1; 
stroke-linecap:round; stroke-linejoin:round;">
</g>
<g style="fill:#37CBCB; fill-opacity:1.0000; 
stroke:#37CBCB; stroke-width:0.0000; stroke-opacity:1; 
stroke-linecap:round; stroke-linejoin:round;">
<circle cx="34.7012" cy="6.5250" r="0.4699" /> 
</g>
<g style="fill:#37CBCB; fill-opacity:1.0000; 
stroke:#37CBCB; stroke-width:0.0212; stroke-opacity:1; 
stroke-linecap:round; stroke-linejoin:round;">
</g>
<g style="fill:#37CBCB; fill-opacity:1.0000; 
stroke:#37CBCB; stroke-width:0.0000; stroke-opacity:1; 
stroke-linecap:round; stroke-linejoin:round;">
<circle cx="35.4512" cy="5.7250" r="0.4699" /> 
</g>
<g style="fill:#37CBCB; fill-opacity:1.0000; 
stroke:#37CBCB; stroke-width:0.0212; stroke-opacity:1; 
stroke-linecap:round; stroke-linejoin:round;">
</g>
<g style="fill:#37CBCB; fill-opacity:1.0000; 
stroke:#37CBCB; stroke-width:0.0000; stroke-opacity:1; 
stroke-linecap:round; stroke-linejoin:round;">
<circle cx="36.5512" cy="5.7250" r="0.4699" /> 
</g>
<g style="fill:#37CBCB; fill-opacity:1.0000; 
stroke:#37CBCB; stroke-width:0.0212; stroke-opacity:1; 
stroke-linecap:round; stroke-linejoin:round;">
</g>
<g style="fill:#37CBCB; fill-opacity:1.0000; 
stroke:#37CBCB; stroke-width:0.0000; stroke-opacity:1; 
stroke-linecap:round; stroke-linejoin:round;">
<circle cx="37.6512" cy="5.7250" r="0.4699" /> 
</g>
<g style="fill:#37CBCB; fill-opacity:1.0000; 
stroke:#37CBCB; stroke-width:0.0212; stroke-opacity:1; 
stroke-linecap:round; stroke-linejoin:round;">
</g>
<g style="fill:#37CBCB; fill-opacity:1.0000; 
stroke:#37CBCB; stroke-width:0.0000; stroke-opacity:1; 
stroke-linecap:round; stroke-linejoin:round;">
<circle cx="38.7512" cy="5.7250" r="0.4699" /> 
</g>
<g style="fill:#37CBCB; fill-opacity:1.0000; 
stroke:#37CBCB; stroke-width:0.0212; stroke-opacity:1; 
stroke-linecap:round; stroke-linejoin:round;">
</g>
<g style="fill:#37CBCB; fill-opacity:1.0000; 
stroke:#37CBCB; stroke-width:0.0000; stroke-opacity:1; 
stroke-linecap:round; stroke-linejoin:round;">
<circle cx="38.3762" cy="8.3750" r="0.4699" /> 
</g>
<g style="fill:#37CBCB; fill-opacity:1.0000; 
stroke:#37CBCB; stroke-width:0.0212; stroke-opacity:1; 
stroke-linecap:round; stroke-linejoin:round;">
</g>
<g style="fill:#37CBCB; fill-opacity:1.0000; 
stroke:#37CBCB; stroke-width:0.0000; stroke-opacity:1; 
stroke-linecap:round; stroke-linejoin:round;">
<circle cx="37.2762" cy="8.3750" r="0.4699" /> 
</g>
<g style="fill:#37CBCB; fill-opacity:1.0000; 
stroke:#37CBCB; stroke-width:0.0212; stroke-opacity:1; 
stroke-linecap:round; stroke-linejoin:round;">
</g>
<g style="fill:#37CBCB; fill-opacity:1.0000; 
stroke:#37CBCB; stroke-width:0.0000; stroke-opacity:1; 
stroke-linecap:round; stroke-linejoin:round;">
<circle cx="36.1762" cy="8.3750" r="0.4699" /> 
</g>
<g style="fill:#37CBCB; fill-opacity:1.0000; 
stroke:#37CBCB; stroke-width:0.0212; stroke-opacity:1; 
stroke-linecap:round; stroke-linejoin:round;">
</g>
<g style="fill:#37CBCB; fill-opacity:1.0000; 
stroke:#37CBCB; stroke-width:0.0000; stroke-opacity:1; 
stroke-linecap:round; stroke-linejoin:round;">
<circle cx="35.0762" cy="8.3750" r="0.4699" /> 
</g>
<g style="fill:#37CBCB; fill-opacity:1.0000; 
stroke:#37CBCB; stroke-width:0.0212; stroke-opacity:1; 
stroke-linecap:round; stroke-linejoin:round;">
</g>
<g style="fill:#37CBCB; fill-opacity:1.0000; 
stroke:#37CBCB; stroke-width:0.0000; stroke-opacity:1; 
stroke-linecap:round; stroke-linejoin:round;">
<circle cx="34.3262" cy="7.5750" r="0.4699" /> 
</g>
<g style="fill:#37CBCB; fill-opacity:1.0000; 
stroke:#37CBCB; stroke-width:0.0212; stroke-opacity:1; 
stroke-linecap:round; stroke-linejoin:round;">
</g>
<g style="fill:#37CBCB; fill-opacity:1.0000; 
stroke:#37CBCB; stroke-width:0.0000; stroke-opacity:1; 
stroke-linecap:round; stroke-linejoin:round;">
<circle cx="33.5762" cy="8.3750" r="0.4699" /> 
</g>
<g style="fill:#37CBCB; fill-opacity:1.0000; 
stroke:#37CBCB; stroke-width:0.0212; stroke-opacity:1; 
stroke-linecap:round; stroke-linejoin:round;">
</g>
<g style="fill:#37CBCB; fill-opacity:1.0000; 
stroke:#37CBCB; stroke-width:0.0000; stroke-opacity:1; 
stroke-linecap:round; stroke-linejoin:round;">
<circle cx="32.4762" cy="8.3750" r="0.4699" /> 
</g>
<g style="fill:#37CBCB; fill-opacity:1.0000; 
stroke:#37CBCB; stroke-width:0.0212; stroke-opacity:1; 
stroke-linecap:round; stroke-linejoin:round;">
</g>
<g style="fill:#37CBCB; fill-opacity:1.0000; 
stroke:#37CBCB; stroke-width:0.0000; stroke-opacity:1; 
stroke-linecap:round; stroke-linejoin:round;">
<circle cx="31.7262" cy="7.5750" r="0.4699" /> 
</g>
<g style="fill:#37CBCB; fill-opacity:1.0000; 
stroke:#37CBCB; stroke-width:0.0212; stroke-opacity:1; 
stroke-linecap:round; stroke-linejoin:round;">
</g>
<g style="fill:#37CBCB; fill-opacity:1.0000; 
stroke:#37CBCB; stroke-width:0.0000; stroke-opacity:1; 
stroke-linecap:round; stroke-linejoin:round;">
<circle cx="30.9762" cy="8.3750" r="0.4699" /> 
</g>
<g style="fill:#37CBCB; fill-opacity:1.0000; 
stroke:#37CBCB; stroke-width:0.0212; stroke-opacity:1; 
stroke-linecap:round; stroke-linejoin:round;">
</g>
<g style="fill:#37CBCB; fill-opacity:1.0000; 
stroke:#37CBCB; stroke-width:0.0000; stroke-opacity:1; 
stroke-linecap:round; stroke-linejoin:round;">
<circle cx="29.8762" cy="8.3750" r="0.4699" /> 
</g>
<g style="fill:#37CBCB; fill-opacity:1.0000; 
stroke:#37CBCB; stroke-width:0.0212; stroke-opacity:1; 
stroke-linecap:round; stroke-linejoin:round;">
</g>
<g style="fill:#37CBCB; fill-opacity:1.0000; 
stroke:#37CBCB; stroke-width:0.0000; stroke-opacity:1; 
stroke-linecap:round; stroke-linejoin:round;">
<circle cx="28.7762" cy="8.3750" r="0.4699" /> 
</g>
<g style="fill:#37CBCB; fill-opacity:1.0000; 
stroke:#37CBCB; stroke-width:0.0212; stroke-opacity:1; 
stroke-linecap:round; stroke-linejoin:round;">
</g>
<g style="fill:#37CBCB; fill-opacity:1.0000; 
stroke:#37CBCB; stroke-width:0.0000; stroke-opacity:1; 
stroke-linecap:round; stroke-linejoin:round;">
<circle cx="27.6762" cy="8.3750" r="0.4699" /> 
</g>
<g style="fill:#37CBCB; fill-opacity:1.0000; 
stroke:#37CBCB; stroke-width:0.0212; stroke-opacity:1; 
stroke-linecap:round; stroke-linejoin:round;">
</g>
<g style="fill:#37CBCB; fill-opacity:1.0000; 
stroke:#37CBCB; stroke-width:0.0000; stroke-opacity:1; 
stroke-linecap:round; stroke-linejoin:round;">
<circle cx="28.0762" cy="7.0500" r="0.4699" /> 
</g>
<g style="fill:#37CBCB; fill-opacity:1.0000; 
stroke:#37CBCB; stroke-width:0.0212; stroke-opacity:1; 
stroke-linecap:round; stroke-linejoin:round;">
</g>
<g style="fill:#37CBCB; fill-opacity:1.0000; 
stroke:#37CBCB; stroke-width:0.0000; stroke-opacity:1; 
stroke-linecap:round; stroke-linejoin:round;">
<circle cx="29.1762" cy="7.0500" r="0.4699" /> 
</g>
<g style="fill:#37CBCB; fill-opacity:1.0000; 
stroke:#37CBCB; stroke-width:0.0212; stroke-opacity:1; 
stroke-linecap:round; stroke-linejoin:round;">
</g>
<g style="fill:#37CBCB; fill-opacity:1.0000; 
stroke:#37CBCB; stroke-width:0.0000; stroke-opacity:1; 
stroke-linecap:round; stroke-linejoin:round;">
<circle cx="30.2762" cy="7.0500" r="0.4699" /> 
</g>
<g style="fill:#37CBCB; fill-opacity:1.0000; 
stroke:#37CBCB; stroke-width:0.0212; stroke-opacity:1; 
stroke-linecap:round; stroke-linejoin:round;">
</g>
<g style="fill:#37CBCB; fill-opacity:1.0000; 
stroke:#37CBCB; stroke-width:0.0000; stroke-opacity:1; 
stroke-linecap:round; stroke-linejoin:round;">
<circle cx="35.7762" cy="7.0500" r="0.4699" /> 
</g>
<g style="fill:#37CBCB; fill-opacity:1.0000; 
stroke:#37CBCB; stroke-width:0.0212; stroke-opacity:1; 
stroke-linecap:round; stroke-linejoin:round;">
</g>
<g style="fill:#37CBCB; fill-opacity:1.0000; 
stroke:#37CBCB; stroke-width:0.0000; stroke-opacity:1; 
stroke-linecap:round; stroke-linejoin:round;">
<circle cx="36.8762" cy="7.0500" r="0.4699" /> 
</g>
<g style="fill:#37CBCB; fill-opacity:1.0000; 
stroke:#37CBCB; stroke-width:0.0212; stroke-opacity:1; 
stroke-linecap:round; stroke-linejoin:round;">
</g>
<g style="fill:#37CBCB; fill-opacity:1.0000; 
stroke:#37CBCB; stroke-width:0.0000; stroke-opacity:1; 
stroke-linecap:round; stroke-linejoin:round;">
<circle cx="37.9762" cy="7.0500" r="0.4699" /> 
</g>
<g style="fill:#37CBCB; fill-opacity:1.0000; 
stroke:#37CBCB; stroke-width:0.0212; stroke-opacity:1; 
stroke-linecap:round; stroke-linejoin:round;">
</g>
<g >
</g>
<g style="fill:#37CBCB; fill-opacity:1.0000; 
stroke:#37CBCB; stroke-width:0.0212; stroke-opacity:1; 
stroke-linecap:round; stroke-linejoin:round;">
</g>
<g style="fill:#37CBCB; fill-opacity:1.0000; 
stroke:#37CBCB; stroke-width:0.0000; stroke-opacity:1; 
stroke-linecap:round; stroke-linejoin:round;">
<path style="fill:#37CBCB; fill-opacity:1.0000; 
stroke:#37CBCB; stroke-width:0.0000; stroke-opacity:1; 
stroke-linecap:round; stroke-linejoin:round;fill-rule:evenodd;"
d="M 16.6012,5.7750
17.9012,5.7750
17.9012,6.4750
16.6012,6.4750
Z" /> 
<path style="fill:#37CBCB; fill-opacity:1.0000; 
stroke:#37CBCB; stroke-width:0.0000; stroke-opacity:1; 
stroke-linecap:round; stroke-linejoin:round;fill-rule:evenodd;"
d="M 16.6012,7.6750
17.9012,7.6750
17.9012,8.3750
16.6012,8.3750
Z" /> 
</g>
<g >
</g>
<g style="fill:#37CBCB; fill-opacity:1.0000; 
stroke:#37CBCB; stroke-width:0.0000; stroke-opacity:1; 
stroke-linecap:round; stroke-linejoin:round;">
<path style="fill:#37CBCB; fill-opacity:1.0000; 
stroke:#37CBCB; stroke-width:0.0000; stroke-opacity:1; 
stroke-linecap:round; stroke-linejoin:round;fill-rule:evenodd;"
d="M 12.6012,5.7750
13.9012,5.7750
13.9012,6.4750
12.6012,6.4750
Z" /> 
<path style="fill:#37CBCB; fill-opacity:1.0000; 
stroke:#37CBCB; stroke-width:0.0000; stroke-opacity:1; 
stroke-linecap:round; stroke-linejoin:round;fill-rule:evenodd;"
d="M 12.6012,7.6750
13.9012,7.6750
13.9012,8.3750
12.6012,8.3750
Z" /> 
</g>
<g >
</g>
<g style="fill:#37CBCB; fill-opacity:1.0000; 
stroke:#37CBCB; stroke-width:0.0000; stroke-opacity:1; 
stroke-linecap:round; stroke-linejoin:round;">
<circle cx="3.2512" cy="5.5350" r="0.7620" /> 
</g>
<g style="fill:#37CBCB; fill-opacity:1.0000; 
stroke:#37CBCB; stroke-width:0.0212; stroke-opacity:1; 
stroke-linecap:round; stroke-linejoin:round;">
</g>
<g style="fill:#37CBCB; fill-opacity:1.0000; 
stroke:#37CBCB; stroke-width:0.0000; stroke-opacity:1; 
stroke-linecap:round; stroke-linejoin:round;">
<circle cx="3.2512" cy="8.0750" r="0.7620" /> 
</g>
<g style="fill:#37CBCB; fill-opacity:1.0000; 
stroke:#37CBCB; stroke-width:0.0212; stroke-opacity:1; 
stroke-linecap:round; stroke-linejoin:round;">
</g>
<g >
</g>
<g style="fill:#121212; fill-opacity:1.0000; 
stroke:#121212; stroke-width:0.0212; stroke-opacity:1; 
stroke-linecap:round; stroke-linejoin:round;">
</g>
<g style="fill:#121212; fill-opacity:1.0000; 
stroke:#121212; stroke-width:0.0000; stroke-opacity:1; 
stroke-linecap:round; stroke-linejoin:round;">
<circle cx="10.2512" cy="8.0750" r="0.3000" /> 
</g>
<g style="fill:#121212; fill-opacity:1.0000; 
stroke:#121212; stroke-width:0.0212; stroke-opacity:1; 
stroke-linecap:round; stroke-linejoin:round;">
</g>
<g style="fill:#121212; fill-opacity:1.0000; 
stroke:#121212; stroke-width:0.0000; stroke-opacity:1; 
stroke-linecap:round; stroke-linejoin:round;">
<circle cx="19.7512" cy="8.0750" r="0.3000" /> 
</g>
<g style="fill:#121212; fill-opacity:1.0000; 
stroke:#121212; stroke-width:0.0212; stroke-opacity:1; 
stroke-linecap:round; stroke-linejoin:round;">
</g>
<g style="fill:#121212; fill-opacity:1.0000; 
stroke:#121212; stroke-width:0.0000; stroke-opacity:1; 
stroke-linecap:round; stroke-linejoin:round;">
<circle cx="28.2512" cy="3.5750" r="0.3000" /> 
</g>
<g style="fill:#121212; fill-opacity:1.0000; 
stroke:#121212; stroke-width:0.0212; stroke-opacity:1; 
stroke-linecap:round; stroke-linejoin:round;">
</g>
<g >
</g>
<g style="fill:#37CBCB; fill-opacity:1.0000; 
stroke:#37CBCB; stroke-width:0.0212; stroke-opacity:1; 
stroke-linecap:round; stroke-linejoin:round;">
</g>
<g style="fill:#37CBCB; fill-opacity:1.0000; 
stroke:#37CBCB; stroke-width:0.7500; stroke-opacity:1; 
stroke-linecap:round; stroke-linejoin:round;">
</g>
<g style="fill:#37CBCB; fill-opacity:0.0; 
stroke:#37CBCB; stroke-width:0.7500; stroke-opacity:1; 
stroke-linecap:round; stroke-linejoin:round;">
<path d="M37.9762 7.0500
L38.3762 7.4500
" />
<path d="M38.3762 7.4500
L38.3762 8.3750
" />
<path d="M38.7512 6.2750
L38.7512 5.7250
" />
<path d="M28.0762 7.0500
L27.6762 7.4500
" />
<path d="M27.6762 7.4500
L27.6762 8.3750
" />
<path d="M27.3012 6.2750
L27.3012 5.7250
" />
<path d="M29.1762 7.0500
L28.0762 7.0500
" />
</g>
<g style="fill:#37CBCB; fill-opacity:0.0; 
stroke:#37CBCB; stroke-width:0.2500; stroke-opacity:1; 
stroke-linecap:round; stroke-linejoin:round;">
<path d="M19.7012 8.0250
L19.7512 8.0750
" />
<path d="M10.3012 8.0250
L10.2512 8.0750
" />
</g>
<g style="fill:#37CBCB; fill-opacity:0.0; 
stroke:#37CBCB; stroke-width:0.7500; stroke-opacity:1; 
stroke-linecap:round; stroke-linejoin:round;">
<path d="M28.0762 7.0500
L27.3012 6.2750
" />
</g>
<g style="fill:#37CBCB; fill-opacity:0.0; 
stroke:#37CBCB; stroke-width:0.2500; stroke-opacity:1; 
stroke-linecap:round; stroke-linejoin:round;">
<path d="M17.2512 8.0250
L19.7012 8.0250
" />
</g>
<g style="fill:#37CBCB; fill-opacity:0.0; 
stroke:#37CBCB; stroke-width:0.7500; stroke-opacity:1; 
stroke-linecap:round; stroke-linejoin:round;">
<path d="M35.7762 7.0500
L36.8762 7.0500
" />
<path d="M30.2762 7.0500
L29.1762 7.0500
" />
</g>
<g style="fill:#37CBCB; fill-opacity:0.0; 
stroke:#37CBCB; stroke-width:0.2500; stroke-opacity:1; 
stroke-linecap:round; stroke-linejoin:round;">
<path d="M13.2512 8.0250
L10.3012 8.0250
" />
</g>
<g style="fill:#37CBCB; fill-opacity:0.0; 
stroke:#37CBCB; stroke-width:0.7500; stroke-opacity:1; 
stroke-linecap:round; stroke-linejoin:round;">
<path d="M37.9762 7.0500
L38.7512 6.2750
" />
<path d="M36.8762 7.0500
L37.9762 7.0500
" />
</g>
<g style="fill:#37CBCB; fill-opacity:0.0; 
stroke:#37CBCB; stroke-width:0.2500; stroke-opacity:1; 
stroke-linecap:round; stroke-linejoin:round;">
<path d="M28.2512 3.5750
L18.2512 3.5750
" />
<path d="M18.2512 3.5750
L17.2512 4.5750
" />
<path d="M17.2512 4.5750
L17.2512 6.1250
" />
<path d="M33.0012 5.3250
L33.0012 4.5750
" />
<path d="M33.8262 7.0750
L33.5012 7.0750
" />
<path d="M33.5012 7.0750
L33.0012 6.5750
" />
<path d="M33.0012 6.5750
L33.0012 5.3250
" />
<path d="M31.0012 2.5750
L27.7512 2.5750
" />
<path d="M14.7512 2.5750
L13.2512 4.0750
" />
<path d="M13.2512 4.0750
L13.2512 6.1250
" />
<path d="M33.0012 4.5750
L31.0012 2.5750
" />
<path d="M34.3262 7.5750
L33.8262 7.0750
" />
<path d="M27.7512 2.5750
L14.7512 2.5750
" />
</g>
<g >
</g>
<g style="fill:#37CBCB; fill-opacity:0.0; 
stroke:#37CBCB; stroke-width:0.2500; stroke-opacity:1; 
stroke-linecap:round; stroke-linejoin:round;">
<g >
</g>
<g style="fill:#37CBCB; fill-opacity:1.0000; 
stroke:#37CBCB; stroke-width:0.0000; stroke-opacity:1; 
stroke-linecap:round; stroke-linejoin:round;">
<path style="fill:#37CBCB; fill-opacity:1.0000; 
stroke:#37CBCB; stroke-width:0.0000; stroke-opacity:1; 
stroke-linecap:round; stroke-linejoin:round;fill-rule:evenodd;"
d="M 43.6928,0.5955
43.7393,0.6492
43.7507,0.7015
43.7507,13.4485
43.7307,13.5166
43.6770,13.5631
43.6247,13.5745
0.8777,13.5745
0.8096,13.5545
0.7631,13.5008
0.7517,13.4485
0.7517,9.1993
2.6572,9.1993
2.8152,9.2730
2.8152,9.2730
3.0298,9.3305
3.2512,9.3498
3.4726,9.3305
3.6872,9.2730
3.6872,9.2730
3.8452,9.1993
3.2512,8.6053
2.6572,9.1993
2.6572,9.1993
0.7517,9.1993
0.7517,8.0750
1.9763,8.0750
1.9957,8.2964
2.0532,8.5110
2.0532,8.5110
2.1269,8.6690
2.1269,8.6690
2.6478,8.1480
2.7432,8.1480
2.7844,8.2882
2.8633,8.4111
2.9737,8.5068
3.1066,8.5674
3.2149,8.5830
3.2875,8.5830
3.3958,8.5674
3.5287,8.5068
3.6391,8.4111
3.7180,8.2882
3.7592,8.1480
3.7592,8.0750
3.7815,8.0750
4.3755,8.6690
4.3755,8.6690
4.4492,8.5110
4.4492,8.5110
4.5067,8.2964
4.5260,8.0750
9.7456,8.0750
9.7660,8.2175
9.8258,8.3484
9.8653,8.3940
9.9201,8.4571
9.9542,8.4791
10.0411,8.5350
10.1792,8.5755
10.3232,8.5755
10.4613,8.5350
10.5823,8.4571
10.6222,8.4111
10.6371,8.3940
10.6968,8.3556
10.7323,8.3505
12.2885,8.3505
12.3566,8.3705
12.4031,8.4242
12.4121,8.4519
12.4123,8.4532
12.4566,8.5196
12.5230,8.5639
12.5815,8.5755
12.5815,8.5755
13.9209,8.5755
13.9209,8.5755
13.9794,8.5639
14.0458,8.5196
14.0901,8.4532
14.1017,8.3948
16.4007,8.3948
16.4116,8.4493
16.4123,8.4532
16.4566,8.5196
16.5230,8.5639
16.5815,8.5755
16.5815,8.5755
17.9209,8.5755
17.9209,8.5755
17.9794,8.5639
18.0458,8.5196
18.0901,8.4532
18.0903,8.4519
18.0917,8.4493
18.0948,8.4418
18.0955,8.4420
18.1232,8.3890
18.1849,8.3539
18.2139,8.3505
19.2701,8.3505
19.3382,8.3705
19.3653,8.3940
19.4201,8.4571
19.4542,8.4791
19.5411,8.5350
19.6792,8.5755
19.8232,8.5755
19.9613,8.5350
20.0823,8.4571
20.1766,8.3484
20.2250,8.2424
23.8257,8.2424
23.8411,8.3689
23.9014,8.5279
23.9014,8.5279
23.9980,8.6679
23.9980,8.6679
24.1111,8.7681
24.1253,8.7807
24.2760,8.8598
24.2760,8.8598
24.2760,8.8598
24.4327,8.8984
24.4411,8.9005
24.4411,8.9005
24.6113,8.9005
24.6113,8.9005
24.7764,8.8598
24.9271,8.7807
25.0544,8.6679
25.1510,8.5279
25.2113,8.3689
25.2267,8.2424
25.2267,5.8576
25.2113,5.7311
25.1732,5.6304
25.1510,5.5721
25.1510,5.5721
25.0544,5.4321
25.0544,5.4321
24.9271,5.3193
24.9271,5.3193
24.7764,5.2402
24.7764,5.2402
24.6113,5.1995
24.6113,5.1995
24.4411,5.1995
24.4411,5.1995
24.2760,5.2402
24.2760,5.2402
24.1253,5.3193
24.1253,5.3193
23.9980,5.4321
23.9980,5.4321
23.9014,5.5721
23.9014,5.5721
23.8411,5.7311
23.8257,5.8576
23.8257,8.2424
20.2250,8.2424
20.2364,8.2175
20.2568,8.0750
20.2364,7.9325
20.1766,7.8016
20.0823,7.6929
20.0823,7.6929
20.0823,7.6929
19.9613,7.6150
19.8232,7.5745
19.6792,7.5745
19.5411,7.6150
19.4409,7.6795
19.3727,7.6995
18.2139,7.6995
18.1458,7.6795
18.0993,7.6258
18.0903,7.5981
18.0903,7.5977
18.0901,7.5968
18.0458,7.5304
17.9794,7.4861
17.9794,7.4861
17.9209,7.4745
17.9209,7.4745
16.5815,7.4745
16.5814,7.4745
16.5230,7.4861
16.5230,7.4861
16.4566,7.5304
16.4123,7.5968
16.4123,7.5968
16.4007,7.6552
16.4007,8.3948
14.1017,8.3948
14.1017,8.3947
14.1017,7.6553
14.0901,7.5968
14.0458,7.5304
13.9794,7.4861
13.9794,7.4861
13.9209,7.4745
13.9209,7.4745
12.5815,7.4745
12.5814,7.4745
12.5230,7.4861
12.5230,7.4861
12.4566,7.5304
12.4123,7.5968
12.4123,7.5968
12.4121,7.5981
12.4107,7.6007
12.4076,7.6082
12.4069,7.6080
12.3792,7.6610
12.3175,7.6961
12.2885,7.6995
10.6297,7.6995
10.5615,7.6795
10.4613,7.6150
10.3232,7.5745
10.1792,7.5745
10.0411,7.6150
9.9201,7.6929
9.8258,7.8016
9.8258,7.8016
9.7660,7.9325
9.7456,8.0750
4.5260,8.0750
4.5260,8.0750
4.5067,7.8536
4.4492,7.6390
4.4492,7.6390
4.3755,7.4810
3.7815,8.0750
3.7815,8.0750
3.7592,8.0750
3.7592,8.0020
3.7180,7.8618
3.6391,7.7389
3.5287,7.6432
3.3958,7.5826
3.2875,7.5670
3.2149,7.5670
3.1066,7.5826
2.9737,7.6432
2.8633,7.7389
2.7844,7.8618
2.7432,8.0020
2.7432,8.1480
2.6478,8.1480
2.7209,8.0750
2.7209,8.0750
2.1269,7.4810
2.0532,7.6390
2.0532,7.6390
1.9957,7.8536
1.9763,8.0750
0.7517,8.0750
0.7517,6.9507
2.6572,6.9507
3.2512,7.5447
3.2512,7.5447
3.8452,6.9507
3.8452,6.9507
3.6872,6.8770
3.6872,6.8770
3.4726,6.8195
3.2512,6.8001
3.0298,6.8195
2.8152,6.8770
2.8152,6.8770
2.6572,6.9507
0.7517,6.9507
0.7517,5.5350
2.2840,5.5350
2.3026,5.7237
2.3026,5.7237
2.3026,5.7237
2.3577,5.9051
2.4470,6.0723
2.5673,6.2189
2.7139,6.3392
2.8811,6.4285
3.0625,6.4836
3.0625,6.4836
3.0625,6.4836
3.2512,6.5022
3.2512,6.5022
3.2512,6.5022
3.3264,6.4947
12.4007,6.4947
12.4067,6.5250
12.4123,6.5532
12.4566,6.6196
12.5230,6.6639
12.5815,6.6755
12.5815,6.6755
13.9209,6.6755
13.9209,6.6755
13.9794,6.6639
14.0458,6.6196
14.0901,6.5532
14.1017,6.4947
14.1017,5.7553
14.0901,5.6968
14.0458,5.6304
13.9794,5.5861
13.9794,5.5861
13.9209,5.5745
13.9209,5.5745
13.7027,5.5745
13.6346,5.5545
13.5881,5.5008
13.5767,5.4485
13.5767,4.2620
13.5967,4.1939
13.6136,4.1729
14.8491,2.9374
14.9114,2.9034
14.9382,2.9005
27.7227,2.9005
27.9459,2.9005
28.0140,2.9205
28.0605,2.9742
28.0706,3.0444
28.0411,3.1090
28.0140,3.1325
27.9201,3.1929
27.9201,3.1929
27.9087,3.2060
27.8489,3.2444
27.8134,3.2495
18.2682,3.2495
18.2627,3.2493
18.2341,3.2468
18.2224,3.2457
18.2224,3.2457
18.1833,3.2562
18.1780,3.2574
18.1382,3.2644
18.1324,3.2665
18.1170,3.2729
18.1115,3.2754
18.0784,3.2986
18.0738,3.3016
18.0387,3.3218
18.0387,3.3218
18.0127,3.3528
18.0090,3.3568
17.0330,4.3328
17.0290,4.3365
16.9980,4.3625
16.9980,4.3625
16.9778,4.3976
16.9748,4.4022
16.9516,4.4353
16.9491,4.4408
16.9427,4.4562
16.9406,4.4620
16.9336,4.5018
16.9324,4.5071
16.9219,4.5462
16.9219,4.5462
16.9255,4.5864
16.9255,4.5865
16.9257,4.5920
16.9257,5.4485
16.9057,5.5166
16.8520,5.5631
16.7997,5.5745
16.5814,5.5745
16.5230,5.5861
16.5230,5.5861
16.4566,5.6304
16.4123,5.6968
16.4123,5.6968
16.4007,5.7552
16.4007,6.4947
16.4067,6.5250
16.4123,6.5532
16.4566,6.6196
16.5230,6.6639
16.5815,6.6755
16.5815,6.6755
17.9209,6.6755
17.9209,6.6755
17.9794,6.6639
18.0458,6.6196
18.0901,6.5532
18.1017,6.4947
18.1017,5.7553
18.0901,5.6968
18.0458,5.6304
17.9794,5.5861
17.9794,5.5861
17.9209,5.5745
17.9209,5.5745
17.7027,5.5745
17.6346,5.5545
17.5881,5.5008
17.5767,5.4485
17.5767,4.7620
17.5967,4.6939
17.6136,4.6729
18.3491,3.9374
18.4114,3.9034
18.4382,3.9005
27.8134,3.9005
27.8816,3.9205
27.9087,3.9440
27.9201,3.9571
27.9201,3.9571
27.9806,3.9960
28.0411,4.0350
28.1792,4.0755
28.3232,4.0755
28.4613,4.0350
28.5823,3.9571
28.6766,3.8484
28.7364,3.7175
28.7568,3.5750
28.7364,3.4325
28.6766,3.3016
28.5823,3.1929
28.5823,3.1929
28.5823,3.1929
28.4884,3.1325
28.4419,3.0788
28.4318,3.0086
28.4613,2.9440
28.5210,2.9056
28.5565,2.9005
30.8142,2.9005
30.8823,2.9205
30.9033,2.9374
32.6388,4.6729
32.6728,4.7352
32.6757,4.7620
32.6757,5.2629
32.6557,5.3310
32.6020,5.3775
32.5318,5.3876
32.4672,5.3581
32.4576,5.3489
32.4307,5.3200
32.3092,5.2462
32.3092,5.2462
32.3092,5.2462
32.1723,5.2078
32.0658,5.2078
32.0658,5.2078
31.9604,5.2223
31.9603,5.2223
31.8299,5.2789
31.8299,5.2789
31.7197,5.3687
31.7138,5.3750
31.7114,5.3728
31.6679,5.4073
31.5972,5.4143
31.5340,5.3820
31.5095,5.3498
31.5085,5.3480
31.5085,5.3480
30.6903,6.1662
30.6280,6.2003
30.5572,6.1952
30.5121,6.1662
30.0709,5.7250
30.3293,5.7250
30.3500,5.8291
30.4089,5.9173
30.4971,5.9762
30.5749,5.9917
30.6275,5.9917
30.7053,5.9762
30.7935,5.9173
30.8524,5.8291
30.8731,5.7250
30.8524,5.6209
30.7935,5.5327
30.7053,5.4738
30.6275,5.4583
30.5749,5.4583
30.4971,5.4738
30.4089,5.5327
30.3500,5.6209
30.3293,5.7250
30.0709,5.7250
30.0452,5.6993
30.0112,5.6370
30.0109,5.6359
30.0006,5.5861
29.9931,5.5502
29.9931,5.5502
29.9931,5.5502
29.9573,5.4811
29.9277,5.4239
29.8307,5.3200
29.8307,5.3200
29.7092,5.2462
29.7092,5.2462
29.7092,5.2462
29.5723,5.2078
29.4658,5.2078
29.4658,5.2078
29.3604,5.2223
29.3603,5.2223
29.2299,5.2789
29.2299,5.2789
29.1295,5.3607
29.0640,5.3881
28.9941,5.3759
28.9463,5.3345
28.9067,5.2772
28.7936,5.1770
28.7559,5.1169
28.7512,5.0827
28.7512,4.8177
30.2242,4.8177
30.6012,5.1947
30.6012,5.1947
30.9782,4.8177
30.9782,4.8177
30.9772,4.8172
30.7929,4.7612
30.6012,4.7424
30.6012,4.7424
30.4095,4.7612
30.2252,4.8172
30.2252,4.8172
30.2242,4.8177
30.2242,4.8177
28.7512,4.8177
28.7512,4.5750
28.2512,4.5750
26.2512,4.5750
26.2512,9.5750
28.7512,9.5750
28.7512,9.2823
30.5992,9.2823
30.6002,9.2828
30.7845,9.3388
30.9762,9.3576
30.9762,9.3576
31.1679,9.3388
31.3522,9.2828
31.3532,9.2823
34.6992,9.2823
34.7002,9.2828
34.8845,9.3388
35.0762,9.3576
35.0762,9.3576
35.2679,9.3388
35.4522,9.2828
35.4532,9.2823
35.0762,8.9053
35.0762,8.9053
34.6992,9.2823
31.3532,9.2823
31.3532,9.2823
30.9762,8.9053
30.9762,8.9053
30.5992,9.2823
28.7512,9.2823
28.7512,9.1699
28.7712,9.1018
28.8249,9.0553
28.8504,9.0481
28.8502,9.0472
28.8576,9.0454
29.0157,9.0064
29.1598,8.9308
29.2426,8.8574
29.3069,8.8272
29.3773,8.8365
29.4097,8.8574
29.4926,8.9308
29.6367,9.0064
29.7948,9.0454
29.7948,9.0454
29.9576,9.0454
29.9576,9.0454
30.1157,9.0064
30.2598,8.9308
30.3817,8.8228
30.4742,8.6888
30.5319,8.5366
30.5491,8.3947
30.5515,8.3750
30.5515,8.3750
30.7043,8.3750
30.7250,8.4791
30.7839,8.5673
30.8721,8.6262
30.9499,8.6417
31.0025,8.6417
31.0803,8.6262
31.1685,8.5673
31.2274,8.4791
31.2481,8.3750
31.2274,8.2709
31.1685,8.1827
31.0803,8.1238
31.0025,8.1083
30.9499,8.1083
30.8721,8.1238
30.7839,8.1827
30.7250,8.2709
30.7043,8.3750
30.5515,8.3750
30.5515,8.3750
30.5475,8.3417
30.5591,8.2717
30.5835,8.2374
30.8871,7.9338
30.9494,7.8997
31.0202,7.9048
31.0653,7.9338
31.8978,8.7663
31.9110,8.7681
31.9628,8.8114
31.9707,8.8228
31.9707,8.8228
31.9707,8.8228
32.0926,8.9308
32.2367,9.0064
32.3948,9.0454
32.3948,9.0454
32.5576,9.0454
32.5576,9.0454
32.7157,9.0064
32.8598,8.9308
32.9427,8.8574
33.0069,8.8272
33.0773,8.8365
33.1097,8.8574
33.1926,8.9308
33.3367,9.0064
33.4948,9.0454
33.4948,9.0454
33.6576,9.0454
33.6576,9.0454
33.8157,9.0064
33.9598,8.9308
34.0817,8.8228
34.0895,8.8114
34.1447,8.7667
34.1555,8.7654
34.5459,8.3750
34.8043,8.3750
34.8250,8.4791
34.8839,8.5673
34.9721,8.6262
35.0499,8.6417
35.1025,8.6417
35.1803,8.6262
35.2685,8.5673
35.3274,8.4791
35.3481,8.3750
35.3274,8.2709
35.2685,8.1827
35.1803,8.1238
35.1025,8.1083
35.0499,8.1083
34.9721,8.1238
34.8839,8.1827
34.8250,8.2709
34.8043,8.3750
34.5459,8.3750
34.9871,7.9338
35.0494,7.8997
35.1202,7.9048
35.1653,7.9338
35.4689,8.2374
35.5030,8.2997
35.5049,8.3417
35.5009,8.3750
35.5205,8.5366
35.5782,8.6888
35.6707,8.8228
35.6707,8.8228
35.6707,8.8228
35.7926,8.9308
35.9367,9.0064
36.0948,9.0454
36.0948,9.0454
36.2576,9.0454
36.2576,9.0454
36.4157,9.0064
36.5598,8.9308
36.6426,8.8574
36.7069,8.8272
36.7773,8.8365
36.8097,8.8574
36.8926,8.9308
37.0367,9.0064
37.1554,9.0357
37.2167,9.0714
37.2490,9.1346
37.2512,9.1580
37.2512,9.5750
39.7512,9.5750
39.7512,8.2424
40.8257,8.2424
40.8411,8.3689
40.9014,8.5279
40.9014,8.5279
40.9980,8.6679
40.9980,8.6679
41.1111,8.7681
41.1253,8.7807
41.2760,8.8598
41.2760,8.8598
41.2760,8.8598
41.4327,8.8984
41.4411,8.9005
41.4411,8.9005
41.6113,8.9005
41.6113,8.9005
41.7764,8.8598
41.9271,8.7807
42.0544,8.6679
42.1510,8.5279
42.2113,8.3689
42.2267,8.2424
42.2267,5.8576
42.2113,5.7311
42.1732,5.6304
42.1510,5.5721
42.1510,5.5721
42.0544,5.4321
42.0544,5.4321
41.9271,5.3193
41.9271,5.3193
41.7764,5.2402
41.7764,5.2402
41.6113,5.1995
41.6113,5.1995
41.4411,5.1995
41.4411,5.1995
41.2760,5.2402
41.2760,5.2402
41.1253,5.3193
41.1253,5.3193
40.9980,5.4321
40.9980,5.4321
40.9014,5.5721
40.9014,5.5721
40.8411,5.7311
40.8257,5.8576
40.8257,8.2424
39.7512,8.2424
39.7512,4.5750
37.2512,4.5750
37.2512,5.1270
37.2312,5.1951
37.2088,5.2213
37.2042,5.2254
37.1848,5.2426
37.1205,5.2728
37.0501,5.2635
37.0176,5.2426
37.0150,5.2402
36.9436,5.1770
36.9348,5.1692
36.9348,5.1692
36.7907,5.0936
36.6326,5.0546
36.6326,5.0546
36.4698,5.0546
36.4698,5.0546
36.3117,5.0936
36.1676,5.1692
36.1676,5.1692
36.0457,5.2772
35.9532,5.4112
35.8955,5.5634
35.8759,5.7250
35.8759,5.7250
35.8799,5.7583
35.8683,5.8283
35.8439,5.8626
35.5403,6.1662
35.4780,6.2003
35.4072,6.1952
35.3621,6.1662
34.9209,5.7250
35.1793,5.7250
35.2000,5.8291
35.2589,5.9173
35.3471,5.9762
35.4249,5.9917
35.4775,5.9917
35.5553,5.9762
35.6435,5.9173
35.7024,5.8291
35.7231,5.7250
35.7024,5.6209
35.6435,5.5327
35.5553,5.4738
35.4775,5.4583
35.4249,5.4583
35.3471,5.4738
35.2589,5.5327
35.2000,5.6209
35.1793,5.7250
34.9209,5.7250
34.5295,5.3337
34.5165,5.3319
34.4645,5.2886
34.4567,5.2772
34.3348,5.1692
34.3348,5.1692
34.1907,5.0936
34.0326,5.0546
34.0326,5.0546
33.8698,5.0546
33.8698,5.0546
33.7117,5.0936
33.5676,5.1692
33.5676,5.1692
33.5363,5.1970
33.4720,5.2272
33.4016,5.2178
33.3475,5.1719
33.3267,5.1040
33.3267,5.1027
33.3267,4.8177
35.0742,4.8177
35.4512,5.1947
35.4512,5.1947
35.8282,4.8177
35.8282,4.8177
35.8272,4.8172
35.6429,4.7612
35.4512,4.7424
35.4512,4.7424
35.2595,4.7612
35.0752,4.8172
35.0752,4.8172
35.0742,4.8177
35.0742,4.8177
33.3267,4.8177
33.3267,4.5920
33.3269,4.5865
33.3286,4.5678
33.3305,4.5462
33.3200,4.5071
33.3188,4.5018
33.3118,4.4620
33.3118,4.4619
33.3097,4.4562
33.3033,4.4409
33.3008,4.4353
33.2776,4.4022
33.2746,4.3976
33.2544,4.3625
33.2234,4.3365
33.2194,4.3328
31.2434,2.3568
31.2396,2.3528
31.2137,2.3218
31.2137,2.3218
31.1786,2.3016
31.1740,2.2986
31.1409,2.2754
31.1354,2.2729
31.1200,2.2665
31.1142,2.2644
31.0904,2.2602
31.0744,2.2574
31.0691,2.2562
31.0300,2.2457
31.0300,2.2457
31.0183,2.2468
30.9897,2.2493
30.9842,2.2495
14.7682,2.2495
14.7627,2.2493
14.7224,2.2457
14.7224,2.2457
14.6833,2.2562
14.6780,2.2574
14.6382,2.2644
14.6324,2.2665
14.6170,2.2729
14.6115,2.2754
14.5784,2.2986
14.5738,2.3016
14.5387,2.3218
14.5387,2.3218
14.5128,2.3528
14.5090,2.3568
13.0330,3.8328
13.0290,3.8365
12.9980,3.8625
12.9980,3.8625
12.9778,3.8976
12.9748,3.9022
12.9516,3.9353
12.9491,3.9408
12.9427,3.9562
12.9406,3.9620
12.9336,4.0018
12.9324,4.0071
12.9219,4.0462
12.9219,4.0462
12.9255,4.0865
12.9257,4.0920
12.9257,5.4485
12.9057,5.5166
12.8520,5.5631
12.7997,5.5745
12.5814,5.5745
12.5230,5.5861
12.5230,5.5861
12.4566,5.6304
12.4123,5.6968
12.4123,5.6968
12.4007,5.7552
12.4007,6.4947
3.3264,6.4947
3.4399,6.4836
3.4399,6.4836
3.4399,6.4836
3.6213,6.4285
3.7885,6.3392
3.9351,6.2189
4.0554,6.0723
4.1447,5.9051
4.1998,5.7237
4.2032,5.6894
4.2184,5.5350
4.2184,5.5350
4.1998,5.3463
4.1998,5.3463
4.1998,5.3463
4.1447,5.1649
4.0554,4.9977
3.9351,4.8511
3.7885,4.7308
3.6213,4.6415
3.4399,4.5864
3.4399,4.5864
3.4399,4.5864
3.2512,4.5678
3.2512,4.5678
3.0625,4.5864
2.8811,4.6415
2.7139,4.7308
2.5673,4.8511
2.4470,4.9977
2.3577,5.1649
2.3026,5.3463
2.2840,5.5350
2.2840,5.5350
0.7517,5.5350
0.7517,0.7015
0.7717,0.6334
0.8254,0.5869
0.8777,0.5755
43.6247,0.5755
Z" /> 
</g>
</g>
</g>
<g style="fill:#000000; fill-opacity:1.0000; 
stroke:#000000; stroke-width:0.0000; stroke-opacity:1; 
stroke-linecap:round; stroke-linejoin:round;">
<circle cx="10.2512" cy="8.0750" r="0.2000" /> 
</g>
<g style="fill:#000000; fill-opacity:1.0000; 
stroke:#000000; stroke-width:0.0212; stroke-opacity:1; 
stroke-linecap:round; stroke-linejoin:round;">
</g>
<g style="fill:#000000; fill-opacity:1.0000; 
stroke:#000000; stroke-width:0.0000; stroke-opacity:1; 
stroke-linecap:round; stroke-linejoin:round;">
<circle cx="19.7512" cy="8.0750" r="0.2000" /> 
</g>
<g style="fill:#000000; fill-opacity:1.0000; 
stroke:#000000; stroke-width:0.0212; stroke-opacity:1; 
stroke-linecap:round; stroke-linejoin:round;">
</g>
<g style="fill:#000000; fill-opacity:1.0000; 
stroke:#000000; stroke-width:0.0000; stroke-opacity:1; 
stroke-linecap:round; stroke-linejoin:round;">
<circle cx="28.2512" cy="3.5750" r="0.2000" /> 
</g>
<g style="fill:#000000; fill-opacity:1.0000; 
stroke:#000000; stroke-width:0.0212; stroke-opacity:1; 
stroke-linecap:round; stroke-linejoin:round;">
</g>
<g style="fill:#000000; fill-opacity:1.0000; 
stroke:#000000; stroke-width:0.6500; stroke-opacity:1; 
stroke-linecap:round; stroke-linejoin:round;">
</g>
<g style="fill:#000000; fill-opacity:0.0; 
stroke:#000000; stroke-width:0.6500; stroke-opacity:1; 
stroke-linecap:round; stroke-linejoin:round;">
<path d="M24.5262 5.9250
L24.5262 8.1750
" />
<path d="M41.5262 5.9250
L41.5262 8.1750
" />
</g>
<g style="fill:#000000; fill-opacity:1.0000; 
stroke:#000000; stroke-width:0.0000; stroke-opacity:1; 
stroke-linecap:round; stroke-linejoin:round;">
<circle cx="27.3012" cy="5.7250" r="0.2667" /> 
</g>
<g style="fill:#000000; fill-opacity:1.0000; 
stroke:#000000; stroke-width:0.0212; stroke-opacity:1; 
stroke-linecap:round; stroke-linejoin:round;">
</g>
<g style="fill:#000000; fill-opacity:1.0000; 
stroke:#000000; stroke-width:0.0000; stroke-opacity:1; 
stroke-linecap:round; stroke-linejoin:round;">
<circle cx="28.4012" cy="5.7250" r="0.2667" /> 
</g>
<g style="fill:#000000; fill-opacity:1.0000; 
stroke:#000000; stroke-width:0.0212; stroke-opacity:1; 
stroke-linecap:round; stroke-linejoin:round;">
</g>
<g style="fill:#000000; fill-opacity:1.0000; 
stroke:#000000; stroke-width:0.0000; stroke-opacity:1; 
stroke-linecap:round; stroke-linejoin:round;">
<circle cx="29.5012" cy="5.7250" r="0.2667" /> 
</g>
<g style="fill:#000000; fill-opacity:1.0000; 
stroke:#000000; stroke-width:0.0212; stroke-opacity:1; 
stroke-linecap:round; stroke-linejoin:round;">
</g>
<g style="fill:#000000; fill-opacity:1.0000; 
stroke:#000000; stroke-width:0.0000; stroke-opacity:1; 
stroke-linecap:round; stroke-linejoin:round;">
<circle cx="30.6012" cy="5.7250" r="0.2667" /> 
</g>
<g style="fill:#000000; fill-opacity:1.0000; 
stroke:#000000; stroke-width:0.0212; stroke-opacity:1; 
stroke-linecap:round; stroke-linejoin:round;">
</g>
<g style="fill:#000000; fill-opacity:1.0000; 
stroke:#000000; stroke-width:0.0000; stroke-opacity:1; 
stroke-linecap:round; stroke-linejoin:round;">
<circle cx="31.3512" cy="6.5250" r="0.2667" /> 
</g>
<g style="fill:#000000; fill-opacity:1.0000; 
stroke:#000000; stroke-width:0.0212; stroke-opacity:1; 
stroke-linecap:round; stroke-linejoin:round;">
</g>
<g style="fill:#000000; fill-opacity:1.0000; 
stroke:#000000; stroke-width:0.0000; stroke-opacity:1; 
stroke-linecap:round; stroke-linejoin:round;">
<circle cx="32.1012" cy="5.7250" r="0.2667" /> 
</g>
<g style="fill:#000000; fill-opacity:1.0000; 
stroke:#000000; stroke-width:0.0212; stroke-opacity:1; 
stroke-linecap:round; stroke-linejoin:round;">
</g>
<g style="fill:#000000; fill-opacity:1.0000; 
stroke:#000000; stroke-width:0.0000; stroke-opacity:1; 
stroke-linecap:round; stroke-linejoin:round;">
<circle cx="33.9512" cy="5.7250" r="0.2667" /> 
</g>
<g style="fill:#000000; fill-opacity:1.0000; 
stroke:#000000; stroke-width:0.0212; stroke-opacity:1; 
stroke-linecap:round; stroke-linejoin:round;">
</g>
<g style="fill:#000000; fill-opacity:1.0000; 
stroke:#000000; stroke-width:0.0000; stroke-opacity:1; 
stroke-linecap:round; stroke-linejoin:round;">
<circle cx="34.7012" cy="6.5250" r="0.2667" /> 
</g>
<g style="fill:#000000; fill-opacity:1.0000; 
stroke:#000000; stroke-width:0.0212; stroke-opacity:1; 
stroke-linecap:round; stroke-linejoin:round;">
</g>
<g style="fill:#000000; fill-opacity:1.0000; 
stroke:#000000; stroke-width:0.0000; stroke-opacity:1; 
stroke-linecap:round; stroke-linejoin:round;">
<circle cx="35.4512" cy="5.7250" r="0.2667" /> 
</g>
<g style="fill:#000000; fill-opacity:1.0000; 
stroke:#000000; stroke-width:0.0212; stroke-opacity:1; 
stroke-linecap:round; stroke-linejoin:round;">
</g>
<g style="fill:#000000; fill-opacity:1.0000; 
stroke:#000000; stroke-width:0.0000; stroke-opacity:1; 
stroke-linecap:round; stroke-linejoin:round;">
<circle cx="36.5512" cy="5.7250" r="0.2667" /> 
</g>
<g style="fill:#000000; fill-opacity:1.0000; 
stroke:#000000; stroke-width:0.0212; stroke-opacity:1; 
stroke-linecap:round; stroke-linejoin:round;">
</g>
<g style="fill:#000000; fill-opacity:1.0000; 
stroke:#000000; stroke-width:0.0000; stroke-opacity:1; 
stroke-linecap:round; stroke-linejoin:round;">
<circle cx="37.6512" cy="5.7250" r="0.2667" /> 
</g>
<g style="fill:#000000; fill-opacity:1.0000; 
stroke:#000000; stroke-width:0.0212; stroke-opacity:1; 
stroke-linecap:round; stroke-linejoin:round;">
</g>
<g style="fill:#000000; fill-opacity:1.0000; 
stroke:#000000; stroke-width:0.0000; stroke-opacity:1; 
stroke-linecap:round; stroke-linejoin:round;">
<circle cx="38.7512" cy="5.7250" r="0.2667" /> 
</g>
<g style="fill:#000000; fill-opacity:1.0000; 
stroke:#000000; stroke-width:0.0212; stroke-opacity:1; 
stroke-linecap:round; stroke-linejoin:round;">
</g>
<g style="fill:#000000; fill-opacity:1.0000; 
stroke:#000000; stroke-width:0.0000; stroke-opacity:1; 
stroke-linecap:round; stroke-linejoin:round;">
<circle cx="38.3762" cy="8.3750" r="0.2667" /> 
</g>
<g style="fill:#000000; fill-opacity:1.0000; 
stroke:#000000; stroke-width:0.0212; stroke-opacity:1; 
stroke-linecap:round; stroke-linejoin:round;">
</g>
<g style="fill:#000000; fill-opacity:1.0000; 
stroke:#000000; stroke-width:0.0000; stroke-opacity:1; 
stroke-linecap:round; stroke-linejoin:round;">
<circle cx="37.2762" cy="8.3750" r="0.2667" /> 
</g>
<g style="fill:#000000; fill-opacity:1.0000; 
stroke:#000000; stroke-width:0.0212; stroke-opacity:1; 
stroke-linecap:round; stroke-linejoin:round;">
</g>
<g style="fill:#000000; fill-opacity:1.0000; 
stroke:#000000; stroke-width:0.0000; stroke-opacity:1; 
stroke-linecap:round; stroke-linejoin:round;">
<circle cx="36.1762" cy="8.3750" r="0.2667" /> 
</g>
<g style="fill:#000000; fill-opacity:1.0000; 
stroke:#000000; stroke-width:0.0212; stroke-opacity:1; 
stroke-linecap:round; stroke-linejoin:round;">
</g>
<g style="fill:#000000; fill-opacity:1.0000; 
stroke:#000000; stroke-width:0.0000; stroke-opacity:1; 
stroke-linecap:round; stroke-linejoin:round;">
<circle cx="35.0762" cy="8.3750" r="0.2667" /> 
</g>
<g style="fill:#000000; fill-opacity:1.0000; 
stroke:#000000; stroke-width:0.0212; stroke-opacity:1; 
stroke-linecap:round; stroke-linejoin:round;">
</g>
<g style="fill:#000000; fill-opacity:1.0000; 
stroke:#000000; stroke-width:0.0000; stroke-opacity:1; 
stroke-linecap:round; stroke-linejoin:round;">
<circle cx="34.3262" cy="7.5750" r="0.2667" /> 
</g>
<g style="fill:#000000; fill-opacity:1.0000; 
stroke:#000000; stroke-width:0.0212; stroke-opacity:1; 
stroke-linecap:round; stroke-linejoin:round;">
</g>
<g style="fill:#000000; fill-opacity:1.0000; 
stroke:#000000; stroke-width:0.0000; stroke-opacity:1; 
stroke-linecap:round; stroke-linejoin:round;">
<circle cx="33.5762" cy="8.3750" r="0.2667" /> 
</g>
<g style="fill:#000000; fill-opacity:1.0000; 
stroke:#000000; stroke-width:0.0212; stroke-opacity:1; 
stroke-linecap:round; stroke-linejoin:round;">
</g>
<g style="fill:#000000; fill-opacity:1.0000; 
stroke:#000000; stroke-width:0.0000; stroke-opacity:1; 
stroke-linecap:round; stroke-linejoin:round;">
<circle cx="32.4762" cy="8.3750" r="0.2667" /> 
</g>
<g style="fill:#000000; fill-opacity:1.0000; 
stroke:#000000; stroke-width:0.0212; stroke-opacity:1; 
stroke-linecap:round; stroke-linejoin:round;">
</g>
<g style="fill:#000000; fill-opacity:1.0000; 
stroke:#000000; stroke-width:0.0000; stroke-opacity:1; 
stroke-linecap:round; stroke-linejoin:round;">
<circle cx="31.7262" cy="7.5750" r="0.2667" /> 
</g>
<g style="fill:#000000; fill-opacity:1.0000; 
stroke:#000000; stroke-width:0.0212; stroke-opacity:1; 
stroke-linecap:round; stroke-linejoin:round;">
</g>
<g style="fill:#000000; fill-opacity:1.0000; 
stroke:#000000; stroke-width:0.0000; stroke-opacity:1; 
stroke-linecap:round; stroke-linejoin:round;">
<circle cx="30.9762" cy="8.3750" r="0.2667" /> 
</g>
<g style="fill:#000000; fill-opacity:1.0000; 
stroke:#000000; stroke-width:0.0212; stroke-opacity:1; 
stroke-linecap:round; stroke-linejoin:round;">
</g>
<g style="fill:#000000; fill-opacity:1.0000; 
stroke:#000000; stroke-width:0.0000; stroke-opacity:1; 
stroke-linecap:round; stroke-linejoin:round;">
<circle cx="29.8762" cy="8.3750" r="0.2667" /> 
</g>
<g style="fill:#000000; fill-opacity:1.0000; 
stroke:#000000; stroke-width:0.0212; stroke-opacity:1; 
stroke-linecap:round; stroke-linejoin:round;">
</g>
<g style="fill:#000000; fill-opacity:1.0000; 
stroke:#000000; stroke-width:0.0000; stroke-opacity:1; 
stroke-linecap:round; stroke-linejoin:round;">
<circle cx="28.7762" cy="8.3750" r="0.2667" /> 
</g>
<g style="fill:#000000; fill-opacity:1.0000; 
stroke:#000000; stroke-width:0.0212; stroke-opacity:1; 
stroke-linecap:round; stroke-linejoin:round;">
</g>
<g style="fill:#000000; fill-opacity:1.0000; 
stroke:#000000; stroke-width:0.0000; stroke-opacity:1; 
stroke-linecap:round; stroke-linejoin:round;">
<circle cx="27.6762" cy="8.3750" r="0.2667" /> 
</g>
<g style="fill:#000000; fill-opacity:1.0000; 
stroke:#000000; stroke-width:0.0212; stroke-opacity:1; 
stroke-linecap:round; stroke-linejoin:round;">
</g>
<g style="fill:#000000; fill-opacity:1.0000; 
stroke:#000000; stroke-width:0.0000; stroke-opacity:1; 
stroke-linecap:round; stroke-linejoin:round;">
<circle cx="28.0762" cy="7.0500" r="0.2667" /> 
</g>
<g style="fill:#000000; fill-opacity:1.0000; 
stroke:#000000; stroke-width:0.0212; stroke-opacity:1; 
stroke-linecap:round; stroke-linejoin:round;">
</g>
<g style="fill:#000000; fill-opacity:1.0000; 
stroke:#000000; stroke-width:0.0000; stroke-opacity:1; 
stroke-linecap:round; stroke-linejoin:round;">
<circle cx="29.1762" cy="7.0500" r="0.2667" /> 
</g>
<g style="fill:#000000; fill-opacity:1.0000; 
stroke:#000000; stroke-width:0.0212; stroke-opacity:1; 
stroke-linecap:round; stroke-linejoin:round;">
</g>
<g style="fill:#000000; fill-opacity:1.0000; 
stroke:#000000; stroke-width:0.0000; stroke-opacity:1; 
stroke-linecap:round; stroke-linejoin:round;">
<circle cx="30.2762" cy="7.0500" r="0.2667" /> 
</g>
<g style="fill:#000000; fill-opacity:1.0000; 
stroke:#000000; stroke-width:0.0212; stroke-opacity:1; 
stroke-linecap:round; stroke-linejoin:round;">
</g>
<g style="fill:#000000; fill-opacity:1.0000; 
stroke:#000000; stroke-width:0.0000; stroke-opacity:1; 
stroke-linecap:round; stroke-linejoin:round;">
<circle cx="35.7762" cy="7.0500" r="0.2667" /> 
</g>
<g style="fill:#000000; fill-opacity:1.0000; 
stroke:#000000; stroke-width:0.0212; stroke-opacity:1; 
stroke-linecap:round; stroke-linejoin:round;">
</g>
<g style="fill:#000000; fill-opacity:1.0000; 
stroke:#000000; stroke-width:0.0000; stroke-opacity:1; 
stroke-linecap:round; stroke-linejoin:round;">
<circle cx="36.8762" cy="7.0500" r="0.2667" /> 
</g>
<g style="fill:#000000; fill-opacity:1.0000; 
stroke:#000000; stroke-width:0.0212; stroke-opacity:1; 
stroke-linecap:round; stroke-linejoin:round;">
</g>
<g style="fill:#000000; fill-opacity:1.0000; 
stroke:#000000; stroke-width:0.0000; stroke-opacity:1; 
stroke-linecap:round; stroke-linejoin:round;">
<circle cx="37.9762" cy="7.0500" r="0.2667" /> 
</g>
<g style="fill:#000000; fill-opacity:1.0000; 
stroke:#000000; stroke-width:0.0212; stroke-opacity:1; 
stroke-linecap:round; stroke-linejoin:round;">
</g>
<g style="fill:#000000; fill-opacity:1.0000; 
stroke:#000000; stroke-width:0.0000; stroke-opacity:1; 
stroke-linecap:round; stroke-linejoin:round;">
<circle cx="3.2512" cy="5.5350" r="0.5080" /> 
</g>
<g style="fill:#000000; fill-opacity:1.0000; 
stroke:#000000; stroke-width:0.0212; stroke-opacity:1; 
stroke-linecap:round; stroke-linejoin:round;">
</g>
<g style="fill:#000000; fill-opacity:1.0000; 
stroke:#000000; stroke-width:0.0000; stroke-opacity:1; 
stroke-linecap:round; stroke-linejoin:round;">
<circle cx="3.2512" cy="8.0750" r="0.5080" /> 
</g>
<g style="fill:#000000; fill-opacity:1.0000; 
stroke:#000000; stroke-width:0.0212; stroke-opacity:1; 
stroke-linecap:round; stroke-linejoin:round;">
</g>
<g style="fill:#FFFFFF; fill-opacity:1.0000; 
stroke:#FFFFFF; stroke-width:0.0212; stroke-opacity:1; 
stroke-linecap:round; stroke-linejoin:round;">
</g>
<g style="fill:#2F2D31; fill-opacity:1.0000; 
stroke:#2F2D31; stroke-width:0.0212; stroke-opacity:1; 
stroke-linecap:round; stroke-linejoin:round;">
</g>
<g style="fill:#2F2D31; fill-opacity:1.0000; 
stroke:#2F2D31; stroke-width:0.1500; stroke-opacity:1; 
stroke-linecap:round; stroke-linejoin:round;">
</g>
<g style="fill:#2F2D31; fill-opacity:0.0; 
stroke:#2F2D31; stroke-width:0.1500; stroke-opacity:1; 
stroke-linecap:round; stroke-linejoin:round;">
<path d="M0.2512 14.0750
L44.2512 14.0750
" />
<path d="M0.2512 0.0750
L0.2512 14.0750
" />
<path d="M44.2512 14.0750
L44.2512 0.0750
" />
<path d="M44.2512 0.0750
L0.2512 0.0750
" />
<g >
</g>
<g >
</g>
<g >
</g>
<g >
</g>
<g >
</g>
<g >
</g>
<g >
</g>
</g> 
</svg>
