<?xml version="1.0" standalone="no"?>
 <!DOCTYPE svg PUBLIC "-//W3C//DTD SVG 1.1//EN" 
 "http://www.w3.org/Graphics/SVG/1.1/DTD/svg11.dtd"> 
<svg
  xmlns:svg="http://www.w3.org/2000/svg"
  xmlns="http://www.w3.org/2000/svg"
  xmlns:xlink="http://www.w3.org/1999/xlink"
  version="1.1"
  width="44.3230mm" height="14.1478mm" viewBox="0.0000 0.0000 44.3230 14.1478">
<title>SVG Image created as working-brd.svg date 2023/09/27 22:12:02 </title>
  <desc>Image generated by PCBNEW </desc>
<g style="fill:#000000; fill-opacity:1.0000;stroke:#000000; stroke-opacity:1.0000;
stroke-linecap:round; stroke-linejoin:round;"
 transform="translate(0 0) scale(1 1)">
</g>
<g style="fill:#000000; fill-opacity:0.0; 
stroke:#000000; stroke-width:0.0000; stroke-opacity:1; 
stroke-linecap:round; stroke-linejoin:round;">
</g>
<g style="fill:#000000; fill-opacity:1.0000; 
stroke:#000000; stroke-width:0.0212; stroke-opacity:1; 
stroke-linecap:round; stroke-linejoin:round;">
<rect x="-5.000000" y="-5.000000" width="54.326200" height="24.150000" rx="0.000000" />
</g>
<g style="fill:#FFFFFF; fill-opacity:1.0000; 
stroke:#FFFFFF; stroke-width:0.0212; stroke-opacity:1; 
stroke-linecap:round; stroke-linejoin:round;">
<g >
</g>
<g style="fill:#B2803A; fill-opacity:1.0000; 
stroke:#B2803A; stroke-width:0.0212; stroke-opacity:1; 
stroke-linecap:round; stroke-linejoin:round;">
</g>
<g style="fill:#B2803A; fill-opacity:1.0000; 
stroke:#B2803A; stroke-width:1.0000; stroke-opacity:1; 
stroke-linecap:round; stroke-linejoin:round;">
</g>
<g style="fill:#B2803A; fill-opacity:0.0; 
stroke:#B2803A; stroke-width:1.0000; stroke-opacity:1; 
stroke-linecap:round; stroke-linejoin:round;">
<path d="M24.5262 5.9000
L24.5262 8.2000
" />
<path d="M41.5262 5.9000
L41.5262 8.2000
" />
</g>
<g style="fill:#B2803A; fill-opacity:1.0000; 
stroke:#B2803A; stroke-width:0.0000; stroke-opacity:1; 
stroke-linecap:round; stroke-linejoin:round;">
<circle cx="27.3012" cy="5.7250" r="0.4699" /> 
</g>
<g style="fill:#B2803A; fill-opacity:1.0000; 
stroke:#B2803A; stroke-width:0.0212; stroke-opacity:1; 
stroke-linecap:round; stroke-linejoin:round;">
</g>
<g style="fill:#B2803A; fill-opacity:1.0000; 
stroke:#B2803A; stroke-width:0.0000; stroke-opacity:1; 
stroke-linecap:round; stroke-linejoin:round;">
<circle cx="28.4012" cy="5.7250" r="0.4699" /> 
</g>
<g style="fill:#B2803A; fill-opacity:1.0000; 
stroke:#B2803A; stroke-width:0.0212; stroke-opacity:1; 
stroke-linecap:round; stroke-linejoin:round;">
</g>
<g style="fill:#B2803A; fill-opacity:1.0000; 
stroke:#B2803A; stroke-width:0.0000; stroke-opacity:1; 
stroke-linecap:round; stroke-linejoin:round;">
<circle cx="29.5012" cy="5.7250" r="0.4699" /> 
</g>
<g style="fill:#B2803A; fill-opacity:1.0000; 
stroke:#B2803A; stroke-width:0.0212; stroke-opacity:1; 
stroke-linecap:round; stroke-linejoin:round;">
</g>
<g style="fill:#B2803A; fill-opacity:1.0000; 
stroke:#B2803A; stroke-width:0.0000; stroke-opacity:1; 
stroke-linecap:round; stroke-linejoin:round;">
<circle cx="30.6012" cy="5.7250" r="0.4699" /> 
</g>
<g style="fill:#B2803A; fill-opacity:1.0000; 
stroke:#B2803A; stroke-width:0.0212; stroke-opacity:1; 
stroke-linecap:round; stroke-linejoin:round;">
</g>
<g style="fill:#B2803A; fill-opacity:1.0000; 
stroke:#B2803A; stroke-width:0.0000; stroke-opacity:1; 
stroke-linecap:round; stroke-linejoin:round;">
<circle cx="31.3512" cy="6.5250" r="0.4699" /> 
</g>
<g style="fill:#B2803A; fill-opacity:1.0000; 
stroke:#B2803A; stroke-width:0.0212; stroke-opacity:1; 
stroke-linecap:round; stroke-linejoin:round;">
</g>
<g style="fill:#B2803A; fill-opacity:1.0000; 
stroke:#B2803A; stroke-width:0.0000; stroke-opacity:1; 
stroke-linecap:round; stroke-linejoin:round;">
<circle cx="32.1012" cy="5.7250" r="0.4699" /> 
</g>
<g style="fill:#B2803A; fill-opacity:1.0000; 
stroke:#B2803A; stroke-width:0.0212; stroke-opacity:1; 
stroke-linecap:round; stroke-linejoin:round;">
</g>
<g style="fill:#B2803A; fill-opacity:1.0000; 
stroke:#B2803A; stroke-width:0.0000; stroke-opacity:1; 
stroke-linecap:round; stroke-linejoin:round;">
<circle cx="33.9512" cy="5.7250" r="0.4699" /> 
</g>
<g style="fill:#B2803A; fill-opacity:1.0000; 
stroke:#B2803A; stroke-width:0.0212; stroke-opacity:1; 
stroke-linecap:round; stroke-linejoin:round;">
</g>
<g style="fill:#B2803A; fill-opacity:1.0000; 
stroke:#B2803A; stroke-width:0.0000; stroke-opacity:1; 
stroke-linecap:round; stroke-linejoin:round;">
<circle cx="34.7012" cy="6.5250" r="0.4699" /> 
</g>
<g style="fill:#B2803A; fill-opacity:1.0000; 
stroke:#B2803A; stroke-width:0.0212; stroke-opacity:1; 
stroke-linecap:round; stroke-linejoin:round;">
</g>
<g style="fill:#B2803A; fill-opacity:1.0000; 
stroke:#B2803A; stroke-width:0.0000; stroke-opacity:1; 
stroke-linecap:round; stroke-linejoin:round;">
<circle cx="35.4512" cy="5.7250" r="0.4699" /> 
</g>
<g style="fill:#B2803A; fill-opacity:1.0000; 
stroke:#B2803A; stroke-width:0.0212; stroke-opacity:1; 
stroke-linecap:round; stroke-linejoin:round;">
</g>
<g style="fill:#B2803A; fill-opacity:1.0000; 
stroke:#B2803A; stroke-width:0.0000; stroke-opacity:1; 
stroke-linecap:round; stroke-linejoin:round;">
<circle cx="36.5512" cy="5.7250" r="0.4699" /> 
</g>
<g style="fill:#B2803A; fill-opacity:1.0000; 
stroke:#B2803A; stroke-width:0.0212; stroke-opacity:1; 
stroke-linecap:round; stroke-linejoin:round;">
</g>
<g style="fill:#B2803A; fill-opacity:1.0000; 
stroke:#B2803A; stroke-width:0.0000; stroke-opacity:1; 
stroke-linecap:round; stroke-linejoin:round;">
<circle cx="37.6512" cy="5.7250" r="0.4699" /> 
</g>
<g style="fill:#B2803A; fill-opacity:1.0000; 
stroke:#B2803A; stroke-width:0.0212; stroke-opacity:1; 
stroke-linecap:round; stroke-linejoin:round;">
</g>
<g style="fill:#B2803A; fill-opacity:1.0000; 
stroke:#B2803A; stroke-width:0.0000; stroke-opacity:1; 
stroke-linecap:round; stroke-linejoin:round;">
<circle cx="38.7512" cy="5.7250" r="0.4699" /> 
</g>
<g style="fill:#B2803A; fill-opacity:1.0000; 
stroke:#B2803A; stroke-width:0.0212; stroke-opacity:1; 
stroke-linecap:round; stroke-linejoin:round;">
</g>
<g style="fill:#B2803A; fill-opacity:1.0000; 
stroke:#B2803A; stroke-width:0.0000; stroke-opacity:1; 
stroke-linecap:round; stroke-linejoin:round;">
<circle cx="38.3762" cy="8.3750" r="0.4699" /> 
</g>
<g style="fill:#B2803A; fill-opacity:1.0000; 
stroke:#B2803A; stroke-width:0.0212; stroke-opacity:1; 
stroke-linecap:round; stroke-linejoin:round;">
</g>
<g style="fill:#B2803A; fill-opacity:1.0000; 
stroke:#B2803A; stroke-width:0.0000; stroke-opacity:1; 
stroke-linecap:round; stroke-linejoin:round;">
<circle cx="37.2762" cy="8.3750" r="0.4699" /> 
</g>
<g style="fill:#B2803A; fill-opacity:1.0000; 
stroke:#B2803A; stroke-width:0.0212; stroke-opacity:1; 
stroke-linecap:round; stroke-linejoin:round;">
</g>
<g style="fill:#B2803A; fill-opacity:1.0000; 
stroke:#B2803A; stroke-width:0.0000; stroke-opacity:1; 
stroke-linecap:round; stroke-linejoin:round;">
<circle cx="36.1762" cy="8.3750" r="0.4699" /> 
</g>
<g style="fill:#B2803A; fill-opacity:1.0000; 
stroke:#B2803A; stroke-width:0.0212; stroke-opacity:1; 
stroke-linecap:round; stroke-linejoin:round;">
</g>
<g style="fill:#B2803A; fill-opacity:1.0000; 
stroke:#B2803A; stroke-width:0.0000; stroke-opacity:1; 
stroke-linecap:round; stroke-linejoin:round;">
<circle cx="35.0762" cy="8.3750" r="0.4699" /> 
</g>
<g style="fill:#B2803A; fill-opacity:1.0000; 
stroke:#B2803A; stroke-width:0.0212; stroke-opacity:1; 
stroke-linecap:round; stroke-linejoin:round;">
</g>
<g style="fill:#B2803A; fill-opacity:1.0000; 
stroke:#B2803A; stroke-width:0.0000; stroke-opacity:1; 
stroke-linecap:round; stroke-linejoin:round;">
<circle cx="34.3262" cy="7.5750" r="0.4699" /> 
</g>
<g style="fill:#B2803A; fill-opacity:1.0000; 
stroke:#B2803A; stroke-width:0.0212; stroke-opacity:1; 
stroke-linecap:round; stroke-linejoin:round;">
</g>
<g style="fill:#B2803A; fill-opacity:1.0000; 
stroke:#B2803A; stroke-width:0.0000; stroke-opacity:1; 
stroke-linecap:round; stroke-linejoin:round;">
<circle cx="33.5762" cy="8.3750" r="0.4699" /> 
</g>
<g style="fill:#B2803A; fill-opacity:1.0000; 
stroke:#B2803A; stroke-width:0.0212; stroke-opacity:1; 
stroke-linecap:round; stroke-linejoin:round;">
</g>
<g style="fill:#B2803A; fill-opacity:1.0000; 
stroke:#B2803A; stroke-width:0.0000; stroke-opacity:1; 
stroke-linecap:round; stroke-linejoin:round;">
<circle cx="32.4762" cy="8.3750" r="0.4699" /> 
</g>
<g style="fill:#B2803A; fill-opacity:1.0000; 
stroke:#B2803A; stroke-width:0.0212; stroke-opacity:1; 
stroke-linecap:round; stroke-linejoin:round;">
</g>
<g style="fill:#B2803A; fill-opacity:1.0000; 
stroke:#B2803A; stroke-width:0.0000; stroke-opacity:1; 
stroke-linecap:round; stroke-linejoin:round;">
<circle cx="31.7262" cy="7.5750" r="0.4699" /> 
</g>
<g style="fill:#B2803A; fill-opacity:1.0000; 
stroke:#B2803A; stroke-width:0.0212; stroke-opacity:1; 
stroke-linecap:round; stroke-linejoin:round;">
</g>
<g style="fill:#B2803A; fill-opacity:1.0000; 
stroke:#B2803A; stroke-width:0.0000; stroke-opacity:1; 
stroke-linecap:round; stroke-linejoin:round;">
<circle cx="30.9762" cy="8.3750" r="0.4699" /> 
</g>
<g style="fill:#B2803A; fill-opacity:1.0000; 
stroke:#B2803A; stroke-width:0.0212; stroke-opacity:1; 
stroke-linecap:round; stroke-linejoin:round;">
</g>
<g style="fill:#B2803A; fill-opacity:1.0000; 
stroke:#B2803A; stroke-width:0.0000; stroke-opacity:1; 
stroke-linecap:round; stroke-linejoin:round;">
<circle cx="29.8762" cy="8.3750" r="0.4699" /> 
</g>
<g style="fill:#B2803A; fill-opacity:1.0000; 
stroke:#B2803A; stroke-width:0.0212; stroke-opacity:1; 
stroke-linecap:round; stroke-linejoin:round;">
</g>
<g style="fill:#B2803A; fill-opacity:1.0000; 
stroke:#B2803A; stroke-width:0.0000; stroke-opacity:1; 
stroke-linecap:round; stroke-linejoin:round;">
<circle cx="28.7762" cy="8.3750" r="0.4699" /> 
</g>
<g style="fill:#B2803A; fill-opacity:1.0000; 
stroke:#B2803A; stroke-width:0.0212; stroke-opacity:1; 
stroke-linecap:round; stroke-linejoin:round;">
</g>
<g style="fill:#B2803A; fill-opacity:1.0000; 
stroke:#B2803A; stroke-width:0.0000; stroke-opacity:1; 
stroke-linecap:round; stroke-linejoin:round;">
<circle cx="27.6762" cy="8.3750" r="0.4699" /> 
</g>
<g style="fill:#B2803A; fill-opacity:1.0000; 
stroke:#B2803A; stroke-width:0.0212; stroke-opacity:1; 
stroke-linecap:round; stroke-linejoin:round;">
</g>
<g style="fill:#B2803A; fill-opacity:1.0000; 
stroke:#B2803A; stroke-width:0.0000; stroke-opacity:1; 
stroke-linecap:round; stroke-linejoin:round;">
<circle cx="28.0762" cy="7.0500" r="0.4699" /> 
</g>
<g style="fill:#B2803A; fill-opacity:1.0000; 
stroke:#B2803A; stroke-width:0.0212; stroke-opacity:1; 
stroke-linecap:round; stroke-linejoin:round;">
</g>
<g style="fill:#B2803A; fill-opacity:1.0000; 
stroke:#B2803A; stroke-width:0.0000; stroke-opacity:1; 
stroke-linecap:round; stroke-linejoin:round;">
<circle cx="29.1762" cy="7.0500" r="0.4699" /> 
</g>
<g style="fill:#B2803A; fill-opacity:1.0000; 
stroke:#B2803A; stroke-width:0.0212; stroke-opacity:1; 
stroke-linecap:round; stroke-linejoin:round;">
</g>
<g style="fill:#B2803A; fill-opacity:1.0000; 
stroke:#B2803A; stroke-width:0.0000; stroke-opacity:1; 
stroke-linecap:round; stroke-linejoin:round;">
<circle cx="30.2762" cy="7.0500" r="0.4699" /> 
</g>
<g style="fill:#B2803A; fill-opacity:1.0000; 
stroke:#B2803A; stroke-width:0.0212; stroke-opacity:1; 
stroke-linecap:round; stroke-linejoin:round;">
</g>
<g style="fill:#B2803A; fill-opacity:1.0000; 
stroke:#B2803A; stroke-width:0.0000; stroke-opacity:1; 
stroke-linecap:round; stroke-linejoin:round;">
<circle cx="35.7762" cy="7.0500" r="0.4699" /> 
</g>
<g style="fill:#B2803A; fill-opacity:1.0000; 
stroke:#B2803A; stroke-width:0.0212; stroke-opacity:1; 
stroke-linecap:round; stroke-linejoin:round;">
</g>
<g style="fill:#B2803A; fill-opacity:1.0000; 
stroke:#B2803A; stroke-width:0.0000; stroke-opacity:1; 
stroke-linecap:round; stroke-linejoin:round;">
<circle cx="36.8762" cy="7.0500" r="0.4699" /> 
</g>
<g style="fill:#B2803A; fill-opacity:1.0000; 
stroke:#B2803A; stroke-width:0.0212; stroke-opacity:1; 
stroke-linecap:round; stroke-linejoin:round;">
</g>
<g style="fill:#B2803A; fill-opacity:1.0000; 
stroke:#B2803A; stroke-width:0.0000; stroke-opacity:1; 
stroke-linecap:round; stroke-linejoin:round;">
<circle cx="37.9762" cy="7.0500" r="0.4699" /> 
</g>
<g style="fill:#B2803A; fill-opacity:1.0000; 
stroke:#B2803A; stroke-width:0.0212; stroke-opacity:1; 
stroke-linecap:round; stroke-linejoin:round;">
</g>
<g >
</g>
<g >
</g>
<g >
</g>
<g style="fill:#B2803A; fill-opacity:1.0000; 
stroke:#B2803A; stroke-width:0.0212; stroke-opacity:1; 
stroke-linecap:round; stroke-linejoin:round;">
</g>
<g style="fill:#B2803A; fill-opacity:1.0000; 
stroke:#B2803A; stroke-width:0.0000; stroke-opacity:1; 
stroke-linecap:round; stroke-linejoin:round;">
<circle cx="3.2512" cy="5.5350" r="0.7620" /> 
</g>
<g style="fill:#B2803A; fill-opacity:1.0000; 
stroke:#B2803A; stroke-width:0.0212; stroke-opacity:1; 
stroke-linecap:round; stroke-linejoin:round;">
</g>
<g style="fill:#B2803A; fill-opacity:1.0000; 
stroke:#B2803A; stroke-width:0.0000; stroke-opacity:1; 
stroke-linecap:round; stroke-linejoin:round;">
<circle cx="3.2512" cy="8.0750" r="0.7620" /> 
</g>
<g style="fill:#B2803A; fill-opacity:1.0000; 
stroke:#B2803A; stroke-width:0.0212; stroke-opacity:1; 
stroke-linecap:round; stroke-linejoin:round;">
</g>
<g >
</g>
<g style="fill:#121212; fill-opacity:1.0000; 
stroke:#121212; stroke-width:0.0212; stroke-opacity:1; 
stroke-linecap:round; stroke-linejoin:round;">
</g>
<g style="fill:#121212; fill-opacity:1.0000; 
stroke:#121212; stroke-width:0.0000; stroke-opacity:1; 
stroke-linecap:round; stroke-linejoin:round;">
<circle cx="10.2512" cy="8.0750" r="0.3000" /> 
</g>
<g style="fill:#121212; fill-opacity:1.0000; 
stroke:#121212; stroke-width:0.0212; stroke-opacity:1; 
stroke-linecap:round; stroke-linejoin:round;">
</g>
<g style="fill:#121212; fill-opacity:1.0000; 
stroke:#121212; stroke-width:0.0000; stroke-opacity:1; 
stroke-linecap:round; stroke-linejoin:round;">
<circle cx="19.7512" cy="8.0750" r="0.3000" /> 
</g>
<g style="fill:#121212; fill-opacity:1.0000; 
stroke:#121212; stroke-width:0.0212; stroke-opacity:1; 
stroke-linecap:round; stroke-linejoin:round;">
</g>
<g style="fill:#121212; fill-opacity:1.0000; 
stroke:#121212; stroke-width:0.0000; stroke-opacity:1; 
stroke-linecap:round; stroke-linejoin:round;">
<circle cx="28.2512" cy="3.5750" r="0.3000" /> 
</g>
<g style="fill:#121212; fill-opacity:1.0000; 
stroke:#121212; stroke-width:0.0212; stroke-opacity:1; 
stroke-linecap:round; stroke-linejoin:round;">
</g>
<g >
</g>
<g style="fill:#B2803A; fill-opacity:1.0000; 
stroke:#B2803A; stroke-width:0.0212; stroke-opacity:1; 
stroke-linecap:round; stroke-linejoin:round;">
</g>
<g style="fill:#B2803A; fill-opacity:1.0000; 
stroke:#B2803A; stroke-width:0.2500; stroke-opacity:1; 
stroke-linecap:round; stroke-linejoin:round;">
</g>
<g style="fill:#B2803A; fill-opacity:0.0; 
stroke:#B2803A; stroke-width:0.2500; stroke-opacity:1; 
stroke-linecap:round; stroke-linejoin:round;">
<path d="M31.3512 6.5250
L31.3512 5.1750
" />
<path d="M29.5012 4.5750
L30.7512 4.5750
" />
<path d="M30.7512 4.5750
L31.3512 5.1750
" />
<path d="M28.5012 3.5750
L28.2512 3.5750
" />
<path d="M31.3512 6.5250
L31.3512 6.5250
" />
<path d="M29.2512 4.3250
L28.5012 3.5750
" />
<path d="M29.2512 4.3250
L29.5012 4.5750
" />
</g>
<g >
</g>
<g style="fill:#B2803A; fill-opacity:0.0; 
stroke:#B2803A; stroke-width:0.2500; stroke-opacity:1; 
stroke-linecap:round; stroke-linejoin:round;">
<g >
</g>
<g style="fill:#B2803A; fill-opacity:1.0000; 
stroke:#B2803A; stroke-width:0.0000; stroke-opacity:1; 
stroke-linecap:round; stroke-linejoin:round;">
<path style="fill:#B2803A; fill-opacity:1.0000; 
stroke:#B2803A; stroke-width:0.0000; stroke-opacity:1; 
stroke-linecap:round; stroke-linejoin:round;fill-rule:evenodd;"
d="M 43.6933,0.5950
43.7398,0.6487
43.7512,0.7010
43.7512,13.4490
43.7312,13.5171
43.6775,13.5636
43.6252,13.5750
0.8772,13.5750
0.8091,13.5550
0.7626,13.5013
0.7512,13.4490
0.7512,9.2823
27.2992,9.2823
27.3002,9.2828
27.4845,9.3388
27.6762,9.3576
27.6762,9.3576
27.8679,9.3388
28.0522,9.2828
28.0532,9.2823
37.9992,9.2823
38.0002,9.2828
38.1845,9.3388
38.3762,9.3576
38.3762,9.3576
38.5679,9.3388
38.7522,9.2828
38.7532,9.2823
38.3762,8.9053
38.3762,8.9053
37.9992,9.2823
28.0532,9.2823
28.0532,9.2823
27.6762,8.9053
27.6762,8.9053
27.2992,9.2823
0.7512,9.2823
0.7512,8.0750
2.3337,8.0750
2.3537,8.2658
2.4130,8.4482
2.4130,8.4482
2.5089,8.6143
2.5089,8.6143
2.6373,8.7569
2.7924,8.8696
2.7924,8.8696
2.7924,8.8696
2.9677,8.9476
3.1553,8.9875
3.1553,8.9875
3.3471,8.9875
3.3471,8.9875
3.5347,8.9476
3.7100,8.8696
3.8651,8.7569
3.9935,8.6143
4.0894,8.4482
4.0983,8.4208
4.1487,8.2658
4.1504,8.2495
23.5182,8.2495
23.5328,8.3976
23.5328,8.3976
23.5904,8.5876
23.5904,8.5876
23.6840,8.7627
23.8100,8.9162
23.9635,9.0422
24.1386,9.1358
24.1512,9.1396
24.1512,9.1396
24.1512,8.5548
24.1712,8.4867
24.2249,8.4402
24.2951,8.4301
24.3516,8.4553
24.3516,8.4553
24.3522,8.4556
24.3582,8.4583
24.3612,8.4608
24.3612,8.4608
24.4689,8.5000
24.4689,8.5000
24.5835,8.5000
24.6410,8.4791
24.6912,8.4608
24.6942,8.4583
24.6998,8.4558
24.7008,8.4553
24.7008,8.4554
24.7592,8.4298
24.8294,8.4410
24.8823,8.4884
24.9012,8.5548
24.9012,9.1396
24.9138,9.1358
24.9138,9.1358
25.0889,9.0422
25.2424,8.9162
25.3684,8.7627
25.4620,8.5876
25.4620,8.5876
25.5196,8.3976
25.5196,8.3976
25.5218,8.3750
26.6936,8.3750
26.7124,8.5667
26.7684,8.7510
26.7689,8.7520
27.1459,8.3750
26.7689,7.9980
26.7689,7.9980
26.7684,7.9990
26.7684,7.9990
26.7124,8.1833
26.6936,8.3750
26.6936,8.3750
25.5218,8.3750
25.5342,8.2495
25.5342,8.2495
25.5342,7.4250
24.9772,7.4250
24.9091,7.4050
24.8626,7.3513
24.8512,7.2990
24.8512,6.8010
24.8712,6.7329
24.9249,6.6864
24.9772,6.6750
25.5342,6.6750
25.5342,6.6323
26.9242,6.6323
26.9252,6.6328
27.0387,6.6673
27.0981,6.7062
27.1270,6.7710
27.1227,6.8244
27.1124,6.8583
27.0936,7.0500
27.0936,7.0500
27.1124,7.2417
27.1684,7.4260
27.1684,7.4260
27.1744,7.4373
27.2371,7.4466
27.2369,7.4481
27.2656,7.4502
27.3107,7.4792
27.6762,7.8447
27.6762,7.8447
28.0084,7.5125
28.0084,7.4971
27.9929,7.4688
27.9980,7.3979
28.0405,7.3411
28.0967,7.3193
28.0964,7.3179
28.1106,7.3151
28.1803,7.3012
28.2685,7.2423
28.3274,7.1541
28.3481,7.0500
28.3481,7.0500
28.6065,7.0500
28.6262,7.0697
28.6459,7.0500
28.9043,7.0500
28.9250,7.1541
28.9250,7.1541
28.9839,7.2423
29.0410,7.2804
29.0721,7.3012
29.1499,7.3167
29.1499,7.3167
29.2025,7.3167
29.2025,7.3167
29.2803,7.3012
29.3685,7.2423
29.4274,7.1541
29.4481,7.0500
29.4481,7.0500
29.7065,7.0500
29.7262,7.0697
29.7459,7.0500
29.7459,7.0500
29.7262,7.0303
29.7262,7.0303
29.7065,7.0500
29.4481,7.0500
29.4481,7.0500
29.4274,6.9459
29.4274,6.9459
29.4262,6.9441
29.3800,6.8750
29.3685,6.8577
29.2803,6.7988
29.2025,6.7833
29.2025,6.7833
29.1499,6.7833
29.1499,6.7833
29.0721,6.7988
28.9839,6.8577
28.9250,6.9459
28.9250,6.9459
28.9043,7.0500
28.9043,7.0500
28.6459,7.0500
28.6459,7.0500
28.6262,7.0303
28.6262,7.0303
28.6065,7.0500
28.3481,7.0500
28.3481,7.0500
28.3274,6.9459
28.3274,6.9459
28.3262,6.9441
28.2800,6.8750
28.2685,6.8577
28.1803,6.7988
28.0964,6.7821
28.0967,6.7806
28.0379,6.7568
27.9968,6.6989
27.9937,6.6280
28.0269,6.5689
28.0762,6.5197
28.2153,6.3806
28.2776,6.3466
28.3195,6.3446
28.3259,6.3454
28.3259,6.3454
28.4765,6.3454
28.4765,6.3454
28.6228,6.3093
28.7562,6.2393
28.7562,6.2393
28.7630,6.2358
28.7642,6.2381
28.8198,6.2197
28.8885,6.2374
28.9131,6.2566
29.1762,6.5197
29.4168,6.2791
29.4791,6.2451
29.5059,6.2422
29.5366,6.2422
29.5366,6.2422
29.6199,6.2307
29.6421,6.2277
29.7725,6.1711
29.7725,6.1711
29.7798,6.1666
29.7810,6.1685
29.8352,6.1458
29.9052,6.1580
29.9384,6.1819
30.2762,6.5197
30.3255,6.5689
30.3595,6.6312
30.3544,6.7021
30.3119,6.7589
30.2557,6.7807
30.2560,6.7821
30.1721,6.7988
30.0839,6.8577
30.0250,6.9459
30.0250,6.9459
30.0043,7.0500
30.0043,7.0500
30.0250,7.1541
30.0250,7.1541
30.0839,7.2423
30.1410,7.2804
30.1721,7.3012
30.2390,7.3145
30.2560,7.3179
30.2557,7.3194
30.3145,7.3432
30.3556,7.4011
30.3587,7.4720
30.3255,7.5311
30.1224,7.7341
30.0601,7.7681
30.0032,7.7673
29.9515,7.7546
29.9515,7.7546
29.9515,7.7546
29.8009,7.7546
29.8009,7.7546
29.6546,7.7907
29.5609,7.8398
29.4913,7.8538
29.4252,7.8279
29.4132,7.8174
29.1762,7.5803
29.0224,7.7341
28.9601,7.7681
28.9032,7.7673
28.8515,7.7546
28.8515,7.7546
28.8515,7.7546
28.7009,7.7546
28.7009,7.7546
28.5546,7.7907
28.4212,7.8607
28.4212,7.8607
28.3084,7.9606
28.2228,8.0846
28.2228,8.0846
28.1694,8.2254
28.1681,8.2360
28.1401,8.3012
28.0812,8.3409
28.0102,8.3424
27.9497,8.3054
27.9344,8.2812
27.9343,8.2813
27.8685,8.1827
27.7803,8.1238
27.7025,8.1083
27.7025,8.1083
27.6499,8.1083
27.6499,8.1083
27.5721,8.1238
27.4839,8.1827
27.4250,8.2709
27.4250,8.2709
27.4043,8.3750
27.4043,8.3750
27.4250,8.4791
27.4250,8.4791
27.4839,8.5673
27.5144,8.5876
27.5721,8.6262
27.6499,8.6417
27.6499,8.6417
27.7025,8.6417
27.7025,8.6417
27.7803,8.6262
27.8685,8.5673
27.9274,8.4791
27.9274,8.4791
27.9343,8.4687
27.9357,8.4697
27.9712,8.4257
28.0385,8.4033
28.1073,8.4208
28.1557,8.4728
28.1681,8.5140
28.1694,8.5246
28.2080,8.6262
28.2228,8.6654
28.3084,8.7894
28.4212,8.8893
28.5546,8.9593
28.7009,8.9954
28.7009,8.9954
28.8515,8.9954
28.8515,8.9954
28.9978,8.9593
29.1312,8.8893
29.2426,8.7906
29.3069,8.7604
29.3773,8.7697
29.4097,8.7906
29.5212,8.8893
29.6546,8.9593
29.8009,8.9954
29.8009,8.9954
29.9515,8.9954
29.9515,8.9954
30.0978,8.9593
30.2312,8.8893
30.3426,8.7906
30.4069,8.7604
30.4773,8.7697
30.5098,8.7906
30.6212,8.8893
30.7546,8.9593
30.9009,8.9954
30.9009,8.9954
31.0515,8.9954
31.0515,8.9954
31.1978,8.9593
31.3312,8.8893
31.4440,8.7894
31.5296,8.6654
31.5830,8.5246
31.5830,8.5246
31.5830,8.5246
31.6011,8.3753
31.6292,8.3101
31.6881,8.2704
31.7590,8.2689
31.8196,8.3059
31.8505,8.3698
31.8513,8.3753
31.8694,8.5246
31.9080,8.6262
31.9228,8.6654
32.0084,8.7894
32.1212,8.8893
32.2546,8.9593
32.4009,8.9954
32.4009,8.9954
32.5515,8.9954
32.5515,8.9954
32.6978,8.9593
32.8312,8.8893
32.9426,8.7906
33.0069,8.7604
33.0773,8.7697
33.1097,8.7906
33.2212,8.8893
33.3546,8.9593
33.5009,8.9954
33.5009,8.9954
33.6515,8.9954
33.6515,8.9954
33.7978,8.9593
33.9312,8.8893
34.0440,8.7894
34.1296,8.6654
34.1830,8.5246
34.1830,8.5246
34.1830,8.5246
34.2011,8.3753
34.2292,8.3101
34.2881,8.2704
34.3590,8.2689
34.4196,8.3059
34.4505,8.3698
34.4513,8.3753
34.4694,8.5246
34.5080,8.6262
34.5228,8.6654
34.6084,8.7894
34.7212,8.8893
34.8546,8.9593
35.0009,8.9954
35.0009,8.9954
35.1515,8.9954
35.1515,8.9954
35.2978,8.9593
35.4312,8.8893
35.5426,8.7906
35.6069,8.7604
35.6773,8.7697
35.7097,8.7906
35.8212,8.8893
35.9546,8.9593
36.1009,8.9954
36.1009,8.9954
36.2515,8.9954
36.2515,8.9954
36.3978,8.9593
36.5312,8.8893
36.6426,8.7906
36.7069,8.7604
36.7773,8.7697
36.8098,8.7906
36.9212,8.8893
37.0546,8.9593
37.2009,8.9954
37.2009,8.9954
37.3515,8.9954
37.3515,8.9954
37.4978,8.9593
37.6312,8.8893
37.7440,8.7894
37.8296,8.6654
37.8830,8.5246
37.8843,8.5140
37.9123,8.4488
37.9712,8.4091
38.0422,8.4075
38.1027,8.4446
38.1180,8.4688
38.1181,8.4687
38.1839,8.5673
38.2144,8.5876
38.2721,8.6262
38.3499,8.6417
38.3499,8.6417
38.4025,8.6417
38.4025,8.6417
38.4803,8.6262
38.5685,8.5673
38.6274,8.4791
38.6481,8.3750
38.9065,8.3750
39.2835,8.7520
39.2840,8.7510
39.3400,8.5667
39.3588,8.3750
39.3588,8.3750
39.3465,8.2495
40.5182,8.2495
40.5328,8.3976
40.5328,8.3976
40.5904,8.5876
40.5904,8.5876
40.6840,8.7627
40.8100,8.9162
40.9635,9.0422
41.1386,9.1358
41.1512,9.1396
41.1512,9.1396
41.1512,8.5548
41.1712,8.4867
41.2249,8.4402
41.2951,8.4301
41.3516,8.4553
41.3516,8.4553
41.3522,8.4556
41.3582,8.4583
41.3612,8.4608
41.3612,8.4608
41.4689,8.5000
41.4689,8.5000
41.5835,8.5000
41.6410,8.4791
41.6912,8.4608
41.6942,8.4583
41.6998,8.4558
41.7008,8.4553
41.7008,8.4554
41.7592,8.4298
41.8294,8.4410
41.8823,8.4884
41.9012,8.5548
41.9012,9.1396
41.9138,9.1358
41.9138,9.1358
42.0889,9.0422
42.2424,8.9162
42.3684,8.7627
42.4620,8.5876
42.4620,8.5876
42.5196,8.3976
42.5196,8.3976
42.5342,8.2495
42.5342,8.2495
42.5342,7.4250
41.9772,7.4250
41.9091,7.4050
41.8626,7.3513
41.8512,7.2990
41.8512,6.8010
41.8712,6.7329
41.9249,6.6864
41.9772,6.6750
42.5342,6.6750
42.5342,5.8505
42.5342,5.8505
42.5196,5.7024
42.5196,5.7024
42.4620,5.5124
42.4620,5.5124
42.3684,5.3373
42.2424,5.1838
42.0889,5.0578
41.9138,4.9642
41.9012,4.9604
41.9012,5.5452
41.8812,5.6133
41.8275,5.6598
41.7573,5.6699
41.7008,5.6447
41.7008,5.6447
41.7002,5.6444
41.6942,5.6417
41.6912,5.6392
41.6912,5.6392
41.5835,5.6000
41.5835,5.6000
41.4689,5.6000
41.4689,5.6000
41.3612,5.6392
41.3582,5.6417
41.3526,5.6442
41.3516,5.6447
41.3516,5.6446
41.2931,5.6702
41.2230,5.6590
41.1701,5.6116
41.1512,5.5452
41.1512,4.9604
41.1386,4.9642
40.9635,5.0578
40.8100,5.1838
40.6840,5.3373
40.5904,5.5124
40.5904,5.5124
40.5328,5.7024
40.5328,5.7024
40.5182,5.8505
40.5182,6.6750
41.0752,6.6750
41.1433,6.6950
41.1898,6.7487
41.2012,6.8010
41.2012,7.2990
41.1812,7.3671
41.1275,7.4136
41.0752,7.4250
40.5182,7.4250
40.5182,8.2495
39.3465,8.2495
39.3400,8.1833
39.2840,7.9990
39.2835,7.9980
38.9065,8.3750
38.9065,8.3750
38.6481,8.3750
38.6274,8.2709
38.5823,8.2034
38.5685,8.1827
38.4803,8.1238
38.4025,8.1083
38.4025,8.1083
38.3499,8.1083
38.3499,8.1083
38.2721,8.1238
38.1839,8.1827
38.1181,8.2813
38.1167,8.2803
38.0812,8.3243
38.0138,8.3467
37.9451,8.3292
37.8967,8.2772
37.8843,8.2360
37.8830,8.2254
37.8716,8.1954
37.8296,8.0846
37.7440,7.9606
37.6312,7.8607
37.6039,7.8463
37.4978,7.7907
37.3515,7.7546
37.3515,7.7546
37.2009,7.7546
37.2009,7.7546
37.1492,7.7673
37.0783,7.7642
37.0300,7.7341
36.8762,7.5803
36.6392,7.8174
36.5769,7.8514
36.5060,7.8463
36.4915,7.8398
36.3978,7.7907
36.2515,7.7546
36.2515,7.7546
36.1009,7.7546
36.1009,7.7546
36.0492,7.7673
35.9783,7.7642
35.9300,7.7341
35.7269,7.5311
35.6929,7.4688
35.6980,7.3979
35.7405,7.3411
35.7967,7.3193
35.7964,7.3179
35.8106,7.3151
35.8803,7.3012
35.9685,7.2423
36.0274,7.1541
36.0481,7.0500
36.3065,7.0500
36.3262,7.0697
36.3262,7.0697
36.3459,7.0500
36.3459,7.0500
36.6043,7.0500
36.6250,7.1541
36.6250,7.1541
36.6839,7.2423
36.7410,7.2804
36.7721,7.3012
36.8499,7.3167
36.8499,7.3167
36.9025,7.3167
36.9025,7.3167
36.9803,7.3012
37.0685,7.2423
37.1274,7.1541
37.1481,7.0500
37.4065,7.0500
37.4262,7.0697
37.4459,7.0500
37.4262,7.0303
37.4065,7.0500
37.1481,7.0500
37.1481,7.0500
37.1274,6.9459
37.1274,6.9459
37.1262,6.9441
37.0800,6.8750
37.0685,6.8577
36.9803,6.7988
36.9025,6.7833
36.9025,6.7833
36.8499,6.7833
36.8499,6.7833
36.7721,6.7988
36.6839,6.8577
36.6250,6.9459
36.6250,6.9459
36.6043,7.0500
36.6043,7.0500
36.3459,7.0500
36.3459,7.0500
36.3262,7.0303
36.3262,7.0303
36.3065,7.0500
36.3065,7.0500
36.0481,7.0500
36.0481,7.0500
36.0481,7.0500
36.0274,6.9459
36.0274,6.9459
36.0262,6.9441
35.9800,6.8750
35.9685,6.8577
35.8803,6.7988
35.7964,6.7821
35.7967,6.7806
35.7379,6.7568
35.6968,6.6989
35.6937,6.6280
35.7269,6.5689
35.7762,6.5197
36.0393,6.2566
36.1016,6.2225
36.1724,6.2276
36.1892,6.2363
36.1894,6.2358
36.2370,6.2607
36.3296,6.3093
36.4759,6.3454
36.4759,6.3454
36.6265,6.3454
36.6329,6.3446
36.7029,6.3563
36.7371,6.3806
36.8762,6.5197
37.1393,6.2566
37.2016,6.2225
37.2724,6.2276
37.2892,6.2363
37.2894,6.2358
37.3370,6.2607
37.4296,6.3093
37.5759,6.3454
37.5759,6.3454
37.7265,6.3454
37.7329,6.3446
37.8029,6.3563
37.8371,6.3806
38.0255,6.5689
38.0595,6.6312
38.0544,6.7021
38.0119,6.7589
37.9557,6.7807
37.9560,6.7821
37.8721,6.7988
37.7839,6.8577
37.7250,6.9459
37.7250,6.9459
37.7043,7.0500
37.7043,7.0500
37.7250,7.1541
37.7250,7.1541
37.7839,7.2423
37.8410,7.2804
37.8721,7.3012
37.9390,7.3145
37.9560,7.3179
37.9557,7.3194
38.0145,7.3431
38.0556,7.4011
38.0587,7.4720
38.0440,7.4981
38.0440,7.5125
38.3762,7.8447
38.7417,7.4792
38.8040,7.4451
38.8182,7.4462
38.8780,7.4373
38.8840,7.4260
38.8840,7.4260
38.9400,7.2417
38.9588,7.0500
38.9588,7.0500
38.9400,6.8583
38.9297,6.8244
38.9290,6.7534
38.9669,6.6934
39.0137,6.6673
39.1272,6.6328
39.1282,6.6323
38.7512,6.2553
38.7019,6.2061
38.6679,6.1438
38.6730,6.0729
38.7155,6.0161
38.7717,5.9943
38.7714,5.9929
38.7856,5.9901
38.8553,5.9762
38.9435,5.9173
39.0024,5.8291
39.0231,5.7250
39.2815,5.7250
39.6585,6.1020
39.6590,6.1010
39.7150,5.9167
39.7338,5.7250
39.7338,5.7250
39.7150,5.5333
39.6590,5.3490
39.6585,5.3480
39.2815,5.7250
39.2815,5.7250
39.0231,5.7250
39.0231,5.7250
39.0207,5.7129
39.0024,5.6209
39.0024,5.6209
38.9962,5.6116
38.9697,5.5720
38.9435,5.5327
38.8553,5.4738
38.7775,5.4583
38.7775,5.4583
38.7249,5.4583
38.7249,5.4583
38.6471,5.4738
38.5589,5.5327
38.4931,5.6313
38.4917,5.6303
38.4562,5.6743
38.3888,5.6967
38.3201,5.6792
38.2717,5.6272
38.2593,5.5860
38.2580,5.5754
38.2427,5.5350
38.2046,5.4346
38.1190,5.3106
38.0062,5.2107
37.9838,5.1989
37.8728,5.1407
37.7265,5.1046
37.7265,5.1046
37.5759,5.1046
37.5759,5.1046
37.4296,5.1407
37.2962,5.2107
37.2962,5.2107
37.1848,5.3094
37.1205,5.3396
37.0501,5.3303
37.0176,5.3094
36.9062,5.2107
36.7728,5.1407
36.6265,5.1046
36.6265,5.1046
36.4759,5.1046
36.4759,5.1046
36.3296,5.1407
36.1962,5.2107
36.1962,5.2107
36.0848,5.3094
36.0205,5.3396
35.9501,5.3303
35.9176,5.3094
35.8062,5.2107
35.6728,5.1407
35.5265,5.1046
35.5265,5.1046
35.3759,5.1046
35.3759,5.1046
35.2296,5.1407
35.0962,5.2107
35.0962,5.2107
34.9834,5.3106
34.8978,5.4346
34.8978,5.4346
34.8444,5.5754
34.8263,5.7247
34.7982,5.7899
34.7393,5.8296
34.6684,5.8311
34.6078,5.7941
34.5769,5.7302
34.5761,5.7247
34.5580,5.5754
34.5219,5.4802
34.5046,5.4346
34.4190,5.3106
34.3062,5.2107
34.2838,5.1989
34.1728,5.1407
34.0265,5.1046
34.0265,5.1046
33.8759,5.1046
33.8759,5.1046
33.7296,5.1407
33.5962,5.2107
33.5962,5.2107
33.4834,5.3106
33.3978,5.4346
33.3978,5.4346
33.3444,5.5754
33.3262,5.7250
33.3262,5.7250
33.3444,5.8746
33.3978,6.0154
33.3978,6.0154
33.3997,6.0181
33.4834,6.1394
33.5962,6.2393
33.7296,6.3093
33.8759,6.3454
33.8759,6.3454
33.9558,6.3454
34.0239,6.3654
34.0704,6.4191
34.0809,6.4866
34.0762,6.5250
34.0762,6.5250
34.0944,6.6746
34.1256,6.7568
34.1478,6.8154
34.1478,6.8154
34.1514,6.8222
34.1487,6.8236
34.1666,6.8778
34.1488,6.9465
34.0992,6.9935
33.9712,7.0607
33.9712,7.0607
33.8584,7.1606
33.7728,7.2846
33.7728,7.2846
33.7194,7.4254
33.7012,7.5750
33.7012,7.5750
33.7059,7.6134
33.6943,7.6834
33.6466,7.7361
33.5808,7.7546
33.5009,7.7546
33.3546,7.7907
33.2212,7.8607
33.2212,7.8607
33.1098,7.9594
33.0455,7.9896
32.9751,7.9803
32.9426,7.9594
32.8312,7.8607
32.6978,7.7907
32.5515,7.7546
32.5515,7.7546
32.4716,7.7546
32.4035,7.7346
32.3570,7.6809
32.3465,7.6134
32.3512,7.5750
32.3512,7.5750
32.3330,7.4254
32.3049,7.3513
32.2796,7.2846
32.1940,7.1606
32.0812,7.0607
32.0812,7.0607
32.0812,7.0607
32.0234,7.0303
31.9532,6.9935
31.9022,6.9441
31.8860,6.8750
31.9036,6.8235
31.9010,6.8222
31.9046,6.8154
31.9046,6.8154
31.9580,6.6746
31.9580,6.6746
31.9580,6.6746
31.9762,6.5250
31.9762,6.5250
31.9590,6.3834
31.9706,6.3134
32.0183,6.2607
32.0840,6.2422
32.1366,6.2422
32.1366,6.2422
32.2199,6.2307
32.2421,6.2277
32.3725,6.1711
32.4827,6.0813
32.5647,5.9652
32.6123,5.8312
32.6220,5.6894
32.5931,5.5502
32.5931,5.5502
32.5931,5.5502
32.5593,5.4848
32.5277,5.4239
32.4307,5.3200
32.4307,5.3200
32.3092,5.2462
32.3092,5.2462
32.3092,5.2462
32.1723,5.2078
32.0658,5.2078
32.0658,5.2078
31.9604,5.2223
31.9603,5.2223
31.8299,5.2789
31.8236,5.2828
31.7550,5.3011
31.6874,5.2794
31.6422,5.2246
31.6346,5.1872
31.6345,5.1872
31.6333,5.1809
31.6321,5.1752
31.6321,5.1750
31.6253,5.1407
31.6181,5.1046
31.6107,5.0675
31.6107,5.0675
31.6107,5.0675
31.5498,4.9764
31.5498,4.9764
31.5371,4.9679
31.5180,4.9522
31.3835,4.8177
38.3742,4.8177
38.7512,5.1947
38.7512,5.1947
39.1282,4.8177
39.1282,4.8177
39.1272,4.8172
38.9429,4.7612
38.7512,4.7424
38.7512,4.7424
38.5595,4.7612
38.3752,4.8172
38.3752,4.8172
38.3742,4.8177
38.3742,4.8177
31.3835,4.8177
30.9740,4.4082
30.9583,4.3891
30.9498,4.3764
30.9320,4.3644
30.9320,4.3644
30.9007,4.3435
30.8587,4.3155
30.7722,4.2983
30.7722,4.2983
30.7512,4.2941
30.7512,4.2941
30.7362,4.2971
30.7117,4.2995
29.6675,4.2995
29.5994,4.2795
29.5784,4.2626
28.7240,3.4082
28.7083,3.3891
28.6998,3.3764
28.6768,3.3610
28.6554,3.3467
28.6302,3.3244
28.5493,3.2310
28.4403,3.1610
28.4403,3.1610
28.4403,3.1610
28.4403,3.1610
28.3160,3.1245
28.3160,3.1245
28.3160,3.1245
28.1864,3.1245
28.1864,3.1245
28.1864,3.1245
28.0621,3.1610
28.0621,3.1610
27.9532,3.2310
27.8722,3.3244
27.8683,3.3289
27.8145,3.4468
27.7961,3.5750
27.8145,3.7032
27.8683,3.8211
27.9531,3.9190
27.9532,3.9190
28.0102,3.9556
28.0621,3.9890
28.1864,4.0255
28.1864,4.0255
28.3160,4.0255
28.3160,4.0255
28.4345,3.9907
28.5055,3.9907
28.5591,4.0225
29.2784,4.7418
29.2941,4.7609
29.3026,4.7736
29.3227,4.7870
29.3227,4.7871
29.3602,4.8122
29.3937,4.8345
29.4741,4.8505
29.4741,4.8505
29.4763,4.8509
29.4763,4.8509
29.5012,4.8559
29.5162,4.8529
29.5407,4.8505
30.5849,4.8505
30.6530,4.8705
30.6740,4.8874
30.7808,4.9942
30.8148,5.0565
30.8097,5.1273
30.7672,5.1841
30.7007,5.2090
30.6745,5.2081
30.6723,5.2078
30.6723,5.2078
30.5658,5.2078
30.5658,5.2078
30.4604,5.2223
30.4603,5.2223
30.3299,5.2789
30.3299,5.2789
30.2197,5.3687
30.2197,5.3687
30.1543,5.4613
30.0986,5.5054
30.0280,5.5125
29.9648,5.4802
29.9395,5.4466
29.9277,5.4239
29.9277,5.4239
29.9277,5.4239
29.8307,5.3200
29.8307,5.3200
29.7092,5.2462
29.7092,5.2462
29.7092,5.2462
29.5723,5.2078
29.4658,5.2078
29.4658,5.2078
29.3604,5.2223
29.3603,5.2223
29.2299,5.2789
29.2299,5.2789
29.1197,5.3687
29.1197,5.3687
29.1173,5.3720
29.1143,5.3744
29.1138,5.3750
29.1137,5.3749
29.0617,5.4161
28.9910,5.4232
28.9278,5.3909
28.9107,5.3709
28.9091,5.3687
28.8690,5.3106
28.7562,5.2107
28.7338,5.1989
28.6228,5.1407
28.4765,5.1046
28.4765,5.1046
28.3259,5.1046
28.3259,5.1046
28.1796,5.1407
28.0462,5.2107
28.0462,5.2107
27.9334,5.3106
27.8478,5.4346
27.8478,5.4346
27.7944,5.5754
27.7931,5.5860
27.7651,5.6512
27.7062,5.6909
27.6352,5.6924
27.5747,5.6554
27.5594,5.6312
27.5593,5.6313
27.4935,5.5327
27.4053,5.4738
27.3275,5.4583
27.3275,5.4583
27.2749,5.4583
27.2749,5.4583
27.1971,5.4738
27.1089,5.5327
27.0500,5.6209
27.0500,5.6209
27.0293,5.7250
27.0293,5.7250
27.0500,5.8291
27.0500,5.8291
27.1089,5.9173
27.1679,5.9567
27.1971,5.9762
27.2640,5.9895
27.2810,5.9929
27.2807,5.9944
27.3395,6.0181
27.3806,6.0761
27.3837,6.1470
27.3505,6.2061
27.3012,6.2553
26.9242,6.6323
25.5342,6.6323
25.5342,5.8505
25.5342,5.8505
25.5218,5.7250
26.3186,5.7250
26.3374,5.9167
26.3934,6.1010
26.3939,6.1020
26.3939,6.1020
26.7709,5.7250
26.3939,5.3480
26.3939,5.3480
26.3934,5.3490
26.3934,5.3490
26.3374,5.5333
26.3186,5.7250
26.3186,5.7250
25.5218,5.7250
25.5196,5.7024
25.5196,5.7024
25.4620,5.5124
25.4620,5.5124
25.3684,5.3373
25.2424,5.1838
25.0889,5.0578
24.9138,4.9642
24.9012,4.9604
24.9012,5.5452
24.8812,5.6133
24.8275,5.6598
24.7573,5.6699
24.7008,5.6447
24.7008,5.6447
24.7002,5.6444
24.6942,5.6417
24.6912,5.6392
24.6912,5.6392
24.5835,5.6000
24.5835,5.6000
24.4689,5.6000
24.4689,5.6000
24.3612,5.6392
24.3582,5.6417
24.3526,5.6442
24.3516,5.6447
24.3516,5.6446
24.2931,5.6702
24.2230,5.6590
24.1701,5.6116
24.1512,5.5452
24.1512,4.9604
24.1386,4.9642
23.9635,5.0578
23.8100,5.1838
23.6840,5.3373
23.5904,5.5124
23.5904,5.5124
23.5328,5.7024
23.5328,5.7024
23.5182,5.8505
23.5182,6.6750
24.0752,6.6750
24.1433,6.6950
24.1898,6.7487
24.2012,6.8010
24.2012,7.2990
24.1812,7.3671
24.1275,7.4136
24.0752,7.4250
23.5182,7.4250
23.5182,8.2495
4.1504,8.2495
4.1687,8.0750
4.1487,7.8842
4.1364,7.8463
4.0894,7.7018
4.0894,7.7018
4.0162,7.5750
3.9935,7.5357
3.8651,7.3931
3.8651,7.3931
3.7100,7.2804
3.5347,7.2024
3.5347,7.2024
3.3471,7.1625
3.1553,7.1625
3.0052,7.1944
2.9677,7.2024
2.7924,7.2804
2.6373,7.3931
2.5089,7.5357
2.5089,7.5357
2.4130,7.7018
2.4130,7.7018
2.3537,7.8842
2.3337,8.0750
0.7512,8.0750
0.7512,5.5350
1.9763,5.5350
1.9957,5.7564
2.0532,5.9710
2.0532,5.9710
2.1269,6.1290
2.1269,6.1290
2.5714,5.6845
2.6337,5.6505
2.7045,5.6555
2.7614,5.6981
2.7814,5.7381
2.7844,5.7482
2.7923,5.7606
2.8377,5.8312
2.8633,5.8711
2.9737,5.9668
3.0668,6.0093
3.1205,6.0558
3.1405,6.1239
3.1205,6.1920
3.1036,6.2130
2.6572,6.6593
2.6572,6.6593
2.8152,6.7330
2.8152,6.7330
3.0298,6.7905
3.2512,6.8098
3.4726,6.7905
3.6872,6.7330
3.6872,6.7330
3.8452,6.6593
3.3988,6.2130
3.3648,6.1507
3.3699,6.0798
3.4124,6.0230
3.4356,6.0093
3.5287,5.9668
3.6391,5.8711
3.7180,5.7482
3.7210,5.7381
3.7594,5.6784
3.8240,5.6489
3.8942,5.6590
3.9310,5.6845
4.3755,6.1290
4.4492,5.9710
4.4492,5.9710
4.5067,5.7564
4.5260,5.5350
4.5067,5.3136
4.4492,5.0990
4.4492,5.0990
4.3755,4.9410
3.9310,5.3855
3.8687,5.4195
3.7979,5.4145
3.7410,5.3719
3.7210,5.3319
3.7180,5.3218
3.7180,5.3218
3.6391,5.1989
3.5287,5.1032
3.4356,5.0607
3.3819,5.0142
3.3619,4.9461
3.3819,4.8780
3.3988,4.8570
3.4382,4.8177
26.9242,4.8177
27.3012,5.1947
27.3012,5.1947
27.6782,4.8177
27.6782,4.8177
27.6772,4.8172
27.4929,4.7612
27.3012,4.7424
27.3012,4.7424
27.1095,4.7612
26.9252,4.8172
26.9242,4.8177
3.4382,4.8177
3.8452,4.4107
3.8452,4.4107
3.6872,4.3370
3.6872,4.3370
3.4726,4.2795
3.2512,4.2601
3.0298,4.2795
2.8152,4.3370
2.8152,4.3370
2.6572,4.4107
3.1036,4.8570
3.1376,4.9193
3.1325,4.9902
3.0900,5.0470
3.0668,5.0607
2.9737,5.1032
2.8633,5.1989
2.7844,5.3218
2.7844,5.3218
2.7814,5.3319
2.7430,5.3917
2.6784,5.4211
2.6081,5.4110
2.5714,5.3855
2.1269,4.9410
2.0532,5.0990
2.0532,5.0990
1.9957,5.3136
1.9763,5.5350
0.7512,5.5350
0.7512,0.7010
0.7712,0.6329
0.8249,0.5864
0.8772,0.5750
43.6252,0.5750
Z" /> 
</g>
</g>
</g>
<g style="fill:#000000; fill-opacity:1.0000; 
stroke:#000000; stroke-width:0.0000; stroke-opacity:1; 
stroke-linecap:round; stroke-linejoin:round;">
<circle cx="10.2512" cy="8.0750" r="0.2000" /> 
</g>
<g style="fill:#000000; fill-opacity:1.0000; 
stroke:#000000; stroke-width:0.0212; stroke-opacity:1; 
stroke-linecap:round; stroke-linejoin:round;">
</g>
<g style="fill:#000000; fill-opacity:1.0000; 
stroke:#000000; stroke-width:0.0000; stroke-opacity:1; 
stroke-linecap:round; stroke-linejoin:round;">
<circle cx="19.7512" cy="8.0750" r="0.2000" /> 
</g>
<g style="fill:#000000; fill-opacity:1.0000; 
stroke:#000000; stroke-width:0.0212; stroke-opacity:1; 
stroke-linecap:round; stroke-linejoin:round;">
</g>
<g style="fill:#000000; fill-opacity:1.0000; 
stroke:#000000; stroke-width:0.0000; stroke-opacity:1; 
stroke-linecap:round; stroke-linejoin:round;">
<circle cx="28.2512" cy="3.5750" r="0.2000" /> 
</g>
<g style="fill:#000000; fill-opacity:1.0000; 
stroke:#000000; stroke-width:0.0212; stroke-opacity:1; 
stroke-linecap:round; stroke-linejoin:round;">
</g>
<g style="fill:#000000; fill-opacity:1.0000; 
stroke:#000000; stroke-width:0.6500; stroke-opacity:1; 
stroke-linecap:round; stroke-linejoin:round;">
</g>
<g style="fill:#000000; fill-opacity:0.0; 
stroke:#000000; stroke-width:0.6500; stroke-opacity:1; 
stroke-linecap:round; stroke-linejoin:round;">
<path d="M24.5262 5.9250
L24.5262 8.1750
" />
<path d="M41.5262 5.9250
L41.5262 8.1750
" />
</g>
<g style="fill:#000000; fill-opacity:1.0000; 
stroke:#000000; stroke-width:0.0000; stroke-opacity:1; 
stroke-linecap:round; stroke-linejoin:round;">
<circle cx="27.3012" cy="5.7250" r="0.2667" /> 
</g>
<g style="fill:#000000; fill-opacity:1.0000; 
stroke:#000000; stroke-width:0.0212; stroke-opacity:1; 
stroke-linecap:round; stroke-linejoin:round;">
</g>
<g style="fill:#000000; fill-opacity:1.0000; 
stroke:#000000; stroke-width:0.0000; stroke-opacity:1; 
stroke-linecap:round; stroke-linejoin:round;">
<circle cx="28.4012" cy="5.7250" r="0.2667" /> 
</g>
<g style="fill:#000000; fill-opacity:1.0000; 
stroke:#000000; stroke-width:0.0212; stroke-opacity:1; 
stroke-linecap:round; stroke-linejoin:round;">
</g>
<g style="fill:#000000; fill-opacity:1.0000; 
stroke:#000000; stroke-width:0.0000; stroke-opacity:1; 
stroke-linecap:round; stroke-linejoin:round;">
<circle cx="29.5012" cy="5.7250" r="0.2667" /> 
</g>
<g style="fill:#000000; fill-opacity:1.0000; 
stroke:#000000; stroke-width:0.0212; stroke-opacity:1; 
stroke-linecap:round; stroke-linejoin:round;">
</g>
<g style="fill:#000000; fill-opacity:1.0000; 
stroke:#000000; stroke-width:0.0000; stroke-opacity:1; 
stroke-linecap:round; stroke-linejoin:round;">
<circle cx="30.6012" cy="5.7250" r="0.2667" /> 
</g>
<g style="fill:#000000; fill-opacity:1.0000; 
stroke:#000000; stroke-width:0.0212; stroke-opacity:1; 
stroke-linecap:round; stroke-linejoin:round;">
</g>
<g style="fill:#000000; fill-opacity:1.0000; 
stroke:#000000; stroke-width:0.0000; stroke-opacity:1; 
stroke-linecap:round; stroke-linejoin:round;">
<circle cx="31.3512" cy="6.5250" r="0.2667" /> 
</g>
<g style="fill:#000000; fill-opacity:1.0000; 
stroke:#000000; stroke-width:0.0212; stroke-opacity:1; 
stroke-linecap:round; stroke-linejoin:round;">
</g>
<g style="fill:#000000; fill-opacity:1.0000; 
stroke:#000000; stroke-width:0.0000; stroke-opacity:1; 
stroke-linecap:round; stroke-linejoin:round;">
<circle cx="32.1012" cy="5.7250" r="0.2667" /> 
</g>
<g style="fill:#000000; fill-opacity:1.0000; 
stroke:#000000; stroke-width:0.0212; stroke-opacity:1; 
stroke-linecap:round; stroke-linejoin:round;">
</g>
<g style="fill:#000000; fill-opacity:1.0000; 
stroke:#000000; stroke-width:0.0000; stroke-opacity:1; 
stroke-linecap:round; stroke-linejoin:round;">
<circle cx="33.9512" cy="5.7250" r="0.2667" /> 
</g>
<g style="fill:#000000; fill-opacity:1.0000; 
stroke:#000000; stroke-width:0.0212; stroke-opacity:1; 
stroke-linecap:round; stroke-linejoin:round;">
</g>
<g style="fill:#000000; fill-opacity:1.0000; 
stroke:#000000; stroke-width:0.0000; stroke-opacity:1; 
stroke-linecap:round; stroke-linejoin:round;">
<circle cx="34.7012" cy="6.5250" r="0.2667" /> 
</g>
<g style="fill:#000000; fill-opacity:1.0000; 
stroke:#000000; stroke-width:0.0212; stroke-opacity:1; 
stroke-linecap:round; stroke-linejoin:round;">
</g>
<g style="fill:#000000; fill-opacity:1.0000; 
stroke:#000000; stroke-width:0.0000; stroke-opacity:1; 
stroke-linecap:round; stroke-linejoin:round;">
<circle cx="35.4512" cy="5.7250" r="0.2667" /> 
</g>
<g style="fill:#000000; fill-opacity:1.0000; 
stroke:#000000; stroke-width:0.0212; stroke-opacity:1; 
stroke-linecap:round; stroke-linejoin:round;">
</g>
<g style="fill:#000000; fill-opacity:1.0000; 
stroke:#000000; stroke-width:0.0000; stroke-opacity:1; 
stroke-linecap:round; stroke-linejoin:round;">
<circle cx="36.5512" cy="5.7250" r="0.2667" /> 
</g>
<g style="fill:#000000; fill-opacity:1.0000; 
stroke:#000000; stroke-width:0.0212; stroke-opacity:1; 
stroke-linecap:round; stroke-linejoin:round;">
</g>
<g style="fill:#000000; fill-opacity:1.0000; 
stroke:#000000; stroke-width:0.0000; stroke-opacity:1; 
stroke-linecap:round; stroke-linejoin:round;">
<circle cx="37.6512" cy="5.7250" r="0.2667" /> 
</g>
<g style="fill:#000000; fill-opacity:1.0000; 
stroke:#000000; stroke-width:0.0212; stroke-opacity:1; 
stroke-linecap:round; stroke-linejoin:round;">
</g>
<g style="fill:#000000; fill-opacity:1.0000; 
stroke:#000000; stroke-width:0.0000; stroke-opacity:1; 
stroke-linecap:round; stroke-linejoin:round;">
<circle cx="38.7512" cy="5.7250" r="0.2667" /> 
</g>
<g style="fill:#000000; fill-opacity:1.0000; 
stroke:#000000; stroke-width:0.0212; stroke-opacity:1; 
stroke-linecap:round; stroke-linejoin:round;">
</g>
<g style="fill:#000000; fill-opacity:1.0000; 
stroke:#000000; stroke-width:0.0000; stroke-opacity:1; 
stroke-linecap:round; stroke-linejoin:round;">
<circle cx="38.3762" cy="8.3750" r="0.2667" /> 
</g>
<g style="fill:#000000; fill-opacity:1.0000; 
stroke:#000000; stroke-width:0.0212; stroke-opacity:1; 
stroke-linecap:round; stroke-linejoin:round;">
</g>
<g style="fill:#000000; fill-opacity:1.0000; 
stroke:#000000; stroke-width:0.0000; stroke-opacity:1; 
stroke-linecap:round; stroke-linejoin:round;">
<circle cx="37.2762" cy="8.3750" r="0.2667" /> 
</g>
<g style="fill:#000000; fill-opacity:1.0000; 
stroke:#000000; stroke-width:0.0212; stroke-opacity:1; 
stroke-linecap:round; stroke-linejoin:round;">
</g>
<g style="fill:#000000; fill-opacity:1.0000; 
stroke:#000000; stroke-width:0.0000; stroke-opacity:1; 
stroke-linecap:round; stroke-linejoin:round;">
<circle cx="36.1762" cy="8.3750" r="0.2667" /> 
</g>
<g style="fill:#000000; fill-opacity:1.0000; 
stroke:#000000; stroke-width:0.0212; stroke-opacity:1; 
stroke-linecap:round; stroke-linejoin:round;">
</g>
<g style="fill:#000000; fill-opacity:1.0000; 
stroke:#000000; stroke-width:0.0000; stroke-opacity:1; 
stroke-linecap:round; stroke-linejoin:round;">
<circle cx="35.0762" cy="8.3750" r="0.2667" /> 
</g>
<g style="fill:#000000; fill-opacity:1.0000; 
stroke:#000000; stroke-width:0.0212; stroke-opacity:1; 
stroke-linecap:round; stroke-linejoin:round;">
</g>
<g style="fill:#000000; fill-opacity:1.0000; 
stroke:#000000; stroke-width:0.0000; stroke-opacity:1; 
stroke-linecap:round; stroke-linejoin:round;">
<circle cx="34.3262" cy="7.5750" r="0.2667" /> 
</g>
<g style="fill:#000000; fill-opacity:1.0000; 
stroke:#000000; stroke-width:0.0212; stroke-opacity:1; 
stroke-linecap:round; stroke-linejoin:round;">
</g>
<g style="fill:#000000; fill-opacity:1.0000; 
stroke:#000000; stroke-width:0.0000; stroke-opacity:1; 
stroke-linecap:round; stroke-linejoin:round;">
<circle cx="33.5762" cy="8.3750" r="0.2667" /> 
</g>
<g style="fill:#000000; fill-opacity:1.0000; 
stroke:#000000; stroke-width:0.0212; stroke-opacity:1; 
stroke-linecap:round; stroke-linejoin:round;">
</g>
<g style="fill:#000000; fill-opacity:1.0000; 
stroke:#000000; stroke-width:0.0000; stroke-opacity:1; 
stroke-linecap:round; stroke-linejoin:round;">
<circle cx="32.4762" cy="8.3750" r="0.2667" /> 
</g>
<g style="fill:#000000; fill-opacity:1.0000; 
stroke:#000000; stroke-width:0.0212; stroke-opacity:1; 
stroke-linecap:round; stroke-linejoin:round;">
</g>
<g style="fill:#000000; fill-opacity:1.0000; 
stroke:#000000; stroke-width:0.0000; stroke-opacity:1; 
stroke-linecap:round; stroke-linejoin:round;">
<circle cx="31.7262" cy="7.5750" r="0.2667" /> 
</g>
<g style="fill:#000000; fill-opacity:1.0000; 
stroke:#000000; stroke-width:0.0212; stroke-opacity:1; 
stroke-linecap:round; stroke-linejoin:round;">
</g>
<g style="fill:#000000; fill-opacity:1.0000; 
stroke:#000000; stroke-width:0.0000; stroke-opacity:1; 
stroke-linecap:round; stroke-linejoin:round;">
<circle cx="30.9762" cy="8.3750" r="0.2667" /> 
</g>
<g style="fill:#000000; fill-opacity:1.0000; 
stroke:#000000; stroke-width:0.0212; stroke-opacity:1; 
stroke-linecap:round; stroke-linejoin:round;">
</g>
<g style="fill:#000000; fill-opacity:1.0000; 
stroke:#000000; stroke-width:0.0000; stroke-opacity:1; 
stroke-linecap:round; stroke-linejoin:round;">
<circle cx="29.8762" cy="8.3750" r="0.2667" /> 
</g>
<g style="fill:#000000; fill-opacity:1.0000; 
stroke:#000000; stroke-width:0.0212; stroke-opacity:1; 
stroke-linecap:round; stroke-linejoin:round;">
</g>
<g style="fill:#000000; fill-opacity:1.0000; 
stroke:#000000; stroke-width:0.0000; stroke-opacity:1; 
stroke-linecap:round; stroke-linejoin:round;">
<circle cx="28.7762" cy="8.3750" r="0.2667" /> 
</g>
<g style="fill:#000000; fill-opacity:1.0000; 
stroke:#000000; stroke-width:0.0212; stroke-opacity:1; 
stroke-linecap:round; stroke-linejoin:round;">
</g>
<g style="fill:#000000; fill-opacity:1.0000; 
stroke:#000000; stroke-width:0.0000; stroke-opacity:1; 
stroke-linecap:round; stroke-linejoin:round;">
<circle cx="27.6762" cy="8.3750" r="0.2667" /> 
</g>
<g style="fill:#000000; fill-opacity:1.0000; 
stroke:#000000; stroke-width:0.0212; stroke-opacity:1; 
stroke-linecap:round; stroke-linejoin:round;">
</g>
<g style="fill:#000000; fill-opacity:1.0000; 
stroke:#000000; stroke-width:0.0000; stroke-opacity:1; 
stroke-linecap:round; stroke-linejoin:round;">
<circle cx="28.0762" cy="7.0500" r="0.2667" /> 
</g>
<g style="fill:#000000; fill-opacity:1.0000; 
stroke:#000000; stroke-width:0.0212; stroke-opacity:1; 
stroke-linecap:round; stroke-linejoin:round;">
</g>
<g style="fill:#000000; fill-opacity:1.0000; 
stroke:#000000; stroke-width:0.0000; stroke-opacity:1; 
stroke-linecap:round; stroke-linejoin:round;">
<circle cx="29.1762" cy="7.0500" r="0.2667" /> 
</g>
<g style="fill:#000000; fill-opacity:1.0000; 
stroke:#000000; stroke-width:0.0212; stroke-opacity:1; 
stroke-linecap:round; stroke-linejoin:round;">
</g>
<g style="fill:#000000; fill-opacity:1.0000; 
stroke:#000000; stroke-width:0.0000; stroke-opacity:1; 
stroke-linecap:round; stroke-linejoin:round;">
<circle cx="30.2762" cy="7.0500" r="0.2667" /> 
</g>
<g style="fill:#000000; fill-opacity:1.0000; 
stroke:#000000; stroke-width:0.0212; stroke-opacity:1; 
stroke-linecap:round; stroke-linejoin:round;">
</g>
<g style="fill:#000000; fill-opacity:1.0000; 
stroke:#000000; stroke-width:0.0000; stroke-opacity:1; 
stroke-linecap:round; stroke-linejoin:round;">
<circle cx="35.7762" cy="7.0500" r="0.2667" /> 
</g>
<g style="fill:#000000; fill-opacity:1.0000; 
stroke:#000000; stroke-width:0.0212; stroke-opacity:1; 
stroke-linecap:round; stroke-linejoin:round;">
</g>
<g style="fill:#000000; fill-opacity:1.0000; 
stroke:#000000; stroke-width:0.0000; stroke-opacity:1; 
stroke-linecap:round; stroke-linejoin:round;">
<circle cx="36.8762" cy="7.0500" r="0.2667" /> 
</g>
<g style="fill:#000000; fill-opacity:1.0000; 
stroke:#000000; stroke-width:0.0212; stroke-opacity:1; 
stroke-linecap:round; stroke-linejoin:round;">
</g>
<g style="fill:#000000; fill-opacity:1.0000; 
stroke:#000000; stroke-width:0.0000; stroke-opacity:1; 
stroke-linecap:round; stroke-linejoin:round;">
<circle cx="37.9762" cy="7.0500" r="0.2667" /> 
</g>
<g style="fill:#000000; fill-opacity:1.0000; 
stroke:#000000; stroke-width:0.0212; stroke-opacity:1; 
stroke-linecap:round; stroke-linejoin:round;">
</g>
<g style="fill:#000000; fill-opacity:1.0000; 
stroke:#000000; stroke-width:0.0000; stroke-opacity:1; 
stroke-linecap:round; stroke-linejoin:round;">
<circle cx="3.2512" cy="5.5350" r="0.5080" /> 
</g>
<g style="fill:#000000; fill-opacity:1.0000; 
stroke:#000000; stroke-width:0.0212; stroke-opacity:1; 
stroke-linecap:round; stroke-linejoin:round;">
</g>
<g style="fill:#000000; fill-opacity:1.0000; 
stroke:#000000; stroke-width:0.0000; stroke-opacity:1; 
stroke-linecap:round; stroke-linejoin:round;">
<circle cx="3.2512" cy="8.0750" r="0.5080" /> 
</g>
<g style="fill:#000000; fill-opacity:1.0000; 
stroke:#000000; stroke-width:0.0212; stroke-opacity:1; 
stroke-linecap:round; stroke-linejoin:round;">
</g>
<g style="fill:#FFFFFF; fill-opacity:1.0000; 
stroke:#FFFFFF; stroke-width:0.0212; stroke-opacity:1; 
stroke-linecap:round; stroke-linejoin:round;">
<g >
</g>
<g style="fill:#37CBCB; fill-opacity:1.0000; 
stroke:#37CBCB; stroke-width:0.0212; stroke-opacity:1; 
stroke-linecap:round; stroke-linejoin:round;">
</g>
<g style="fill:#37CBCB; fill-opacity:1.0000; 
stroke:#37CBCB; stroke-width:1.0000; stroke-opacity:1; 
stroke-linecap:round; stroke-linejoin:round;">
</g>
<g style="fill:#37CBCB; fill-opacity:0.0; 
stroke:#37CBCB; stroke-width:1.0000; stroke-opacity:1; 
stroke-linecap:round; stroke-linejoin:round;">
<path d="M24.5262 5.9000
L24.5262 8.2000
" />
<path d="M41.5262 5.9000
L41.5262 8.2000
" />
</g>
<g style="fill:#37CBCB; fill-opacity:1.0000; 
stroke:#37CBCB; stroke-width:0.0000; stroke-opacity:1; 
stroke-linecap:round; stroke-linejoin:round;">
<circle cx="27.3012" cy="5.7250" r="0.4699" /> 
</g>
<g style="fill:#37CBCB; fill-opacity:1.0000; 
stroke:#37CBCB; stroke-width:0.0212; stroke-opacity:1; 
stroke-linecap:round; stroke-linejoin:round;">
</g>
<g style="fill:#37CBCB; fill-opacity:1.0000; 
stroke:#37CBCB; stroke-width:0.0000; stroke-opacity:1; 
stroke-linecap:round; stroke-linejoin:round;">
<circle cx="28.4012" cy="5.7250" r="0.4699" /> 
</g>
<g style="fill:#37CBCB; fill-opacity:1.0000; 
stroke:#37CBCB; stroke-width:0.0212; stroke-opacity:1; 
stroke-linecap:round; stroke-linejoin:round;">
</g>
<g style="fill:#37CBCB; fill-opacity:1.0000; 
stroke:#37CBCB; stroke-width:0.0000; stroke-opacity:1; 
stroke-linecap:round; stroke-linejoin:round;">
<circle cx="29.5012" cy="5.7250" r="0.4699" /> 
</g>
<g style="fill:#37CBCB; fill-opacity:1.0000; 
stroke:#37CBCB; stroke-width:0.0212; stroke-opacity:1; 
stroke-linecap:round; stroke-linejoin:round;">
</g>
<g style="fill:#37CBCB; fill-opacity:1.0000; 
stroke:#37CBCB; stroke-width:0.0000; stroke-opacity:1; 
stroke-linecap:round; stroke-linejoin:round;">
<circle cx="30.6012" cy="5.7250" r="0.4699" /> 
</g>
<g style="fill:#37CBCB; fill-opacity:1.0000; 
stroke:#37CBCB; stroke-width:0.0212; stroke-opacity:1; 
stroke-linecap:round; stroke-linejoin:round;">
</g>
<g style="fill:#37CBCB; fill-opacity:1.0000; 
stroke:#37CBCB; stroke-width:0.0000; stroke-opacity:1; 
stroke-linecap:round; stroke-linejoin:round;">
<circle cx="31.3512" cy="6.5250" r="0.4699" /> 
</g>
<g style="fill:#37CBCB; fill-opacity:1.0000; 
stroke:#37CBCB; stroke-width:0.0212; stroke-opacity:1; 
stroke-linecap:round; stroke-linejoin:round;">
</g>
<g style="fill:#37CBCB; fill-opacity:1.0000; 
stroke:#37CBCB; stroke-width:0.0000; stroke-opacity:1; 
stroke-linecap:round; stroke-linejoin:round;">
<circle cx="32.1012" cy="5.7250" r="0.4699" /> 
</g>
<g style="fill:#37CBCB; fill-opacity:1.0000; 
stroke:#37CBCB; stroke-width:0.0212; stroke-opacity:1; 
stroke-linecap:round; stroke-linejoin:round;">
</g>
<g style="fill:#37CBCB; fill-opacity:1.0000; 
stroke:#37CBCB; stroke-width:0.0000; stroke-opacity:1; 
stroke-linecap:round; stroke-linejoin:round;">
<circle cx="33.9512" cy="5.7250" r="0.4699" /> 
</g>
<g style="fill:#37CBCB; fill-opacity:1.0000; 
stroke:#37CBCB; stroke-width:0.0212; stroke-opacity:1; 
stroke-linecap:round; stroke-linejoin:round;">
</g>
<g style="fill:#37CBCB; fill-opacity:1.0000; 
stroke:#37CBCB; stroke-width:0.0000; stroke-opacity:1; 
stroke-linecap:round; stroke-linejoin:round;">
<circle cx="34.7012" cy="6.5250" r="0.4699" /> 
</g>
<g style="fill:#37CBCB; fill-opacity:1.0000; 
stroke:#37CBCB; stroke-width:0.0212; stroke-opacity:1; 
stroke-linecap:round; stroke-linejoin:round;">
</g>
<g style="fill:#37CBCB; fill-opacity:1.0000; 
stroke:#37CBCB; stroke-width:0.0000; stroke-opacity:1; 
stroke-linecap:round; stroke-linejoin:round;">
<circle cx="35.4512" cy="5.7250" r="0.4699" /> 
</g>
<g style="fill:#37CBCB; fill-opacity:1.0000; 
stroke:#37CBCB; stroke-width:0.0212; stroke-opacity:1; 
stroke-linecap:round; stroke-linejoin:round;">
</g>
<g style="fill:#37CBCB; fill-opacity:1.0000; 
stroke:#37CBCB; stroke-width:0.0000; stroke-opacity:1; 
stroke-linecap:round; stroke-linejoin:round;">
<circle cx="36.5512" cy="5.7250" r="0.4699" /> 
</g>
<g style="fill:#37CBCB; fill-opacity:1.0000; 
stroke:#37CBCB; stroke-width:0.0212; stroke-opacity:1; 
stroke-linecap:round; stroke-linejoin:round;">
</g>
<g style="fill:#37CBCB; fill-opacity:1.0000; 
stroke:#37CBCB; stroke-width:0.0000; stroke-opacity:1; 
stroke-linecap:round; stroke-linejoin:round;">
<circle cx="37.6512" cy="5.7250" r="0.4699" /> 
</g>
<g style="fill:#37CBCB; fill-opacity:1.0000; 
stroke:#37CBCB; stroke-width:0.0212; stroke-opacity:1; 
stroke-linecap:round; stroke-linejoin:round;">
</g>
<g style="fill:#37CBCB; fill-opacity:1.0000; 
stroke:#37CBCB; stroke-width:0.0000; stroke-opacity:1; 
stroke-linecap:round; stroke-linejoin:round;">
<circle cx="38.7512" cy="5.7250" r="0.4699" /> 
</g>
<g style="fill:#37CBCB; fill-opacity:1.0000; 
stroke:#37CBCB; stroke-width:0.0212; stroke-opacity:1; 
stroke-linecap:round; stroke-linejoin:round;">
</g>
<g style="fill:#37CBCB; fill-opacity:1.0000; 
stroke:#37CBCB; stroke-width:0.0000; stroke-opacity:1; 
stroke-linecap:round; stroke-linejoin:round;">
<circle cx="38.3762" cy="8.3750" r="0.4699" /> 
</g>
<g style="fill:#37CBCB; fill-opacity:1.0000; 
stroke:#37CBCB; stroke-width:0.0212; stroke-opacity:1; 
stroke-linecap:round; stroke-linejoin:round;">
</g>
<g style="fill:#37CBCB; fill-opacity:1.0000; 
stroke:#37CBCB; stroke-width:0.0000; stroke-opacity:1; 
stroke-linecap:round; stroke-linejoin:round;">
<circle cx="37.2762" cy="8.3750" r="0.4699" /> 
</g>
<g style="fill:#37CBCB; fill-opacity:1.0000; 
stroke:#37CBCB; stroke-width:0.0212; stroke-opacity:1; 
stroke-linecap:round; stroke-linejoin:round;">
</g>
<g style="fill:#37CBCB; fill-opacity:1.0000; 
stroke:#37CBCB; stroke-width:0.0000; stroke-opacity:1; 
stroke-linecap:round; stroke-linejoin:round;">
<circle cx="36.1762" cy="8.3750" r="0.4699" /> 
</g>
<g style="fill:#37CBCB; fill-opacity:1.0000; 
stroke:#37CBCB; stroke-width:0.0212; stroke-opacity:1; 
stroke-linecap:round; stroke-linejoin:round;">
</g>
<g style="fill:#37CBCB; fill-opacity:1.0000; 
stroke:#37CBCB; stroke-width:0.0000; stroke-opacity:1; 
stroke-linecap:round; stroke-linejoin:round;">
<circle cx="35.0762" cy="8.3750" r="0.4699" /> 
</g>
<g style="fill:#37CBCB; fill-opacity:1.0000; 
stroke:#37CBCB; stroke-width:0.0212; stroke-opacity:1; 
stroke-linecap:round; stroke-linejoin:round;">
</g>
<g style="fill:#37CBCB; fill-opacity:1.0000; 
stroke:#37CBCB; stroke-width:0.0000; stroke-opacity:1; 
stroke-linecap:round; stroke-linejoin:round;">
<circle cx="34.3262" cy="7.5750" r="0.4699" /> 
</g>
<g style="fill:#37CBCB; fill-opacity:1.0000; 
stroke:#37CBCB; stroke-width:0.0212; stroke-opacity:1; 
stroke-linecap:round; stroke-linejoin:round;">
</g>
<g style="fill:#37CBCB; fill-opacity:1.0000; 
stroke:#37CBCB; stroke-width:0.0000; stroke-opacity:1; 
stroke-linecap:round; stroke-linejoin:round;">
<circle cx="33.5762" cy="8.3750" r="0.4699" /> 
</g>
<g style="fill:#37CBCB; fill-opacity:1.0000; 
stroke:#37CBCB; stroke-width:0.0212; stroke-opacity:1; 
stroke-linecap:round; stroke-linejoin:round;">
</g>
<g style="fill:#37CBCB; fill-opacity:1.0000; 
stroke:#37CBCB; stroke-width:0.0000; stroke-opacity:1; 
stroke-linecap:round; stroke-linejoin:round;">
<circle cx="32.4762" cy="8.3750" r="0.4699" /> 
</g>
<g style="fill:#37CBCB; fill-opacity:1.0000; 
stroke:#37CBCB; stroke-width:0.0212; stroke-opacity:1; 
stroke-linecap:round; stroke-linejoin:round;">
</g>
<g style="fill:#37CBCB; fill-opacity:1.0000; 
stroke:#37CBCB; stroke-width:0.0000; stroke-opacity:1; 
stroke-linecap:round; stroke-linejoin:round;">
<circle cx="31.7262" cy="7.5750" r="0.4699" /> 
</g>
<g style="fill:#37CBCB; fill-opacity:1.0000; 
stroke:#37CBCB; stroke-width:0.0212; stroke-opacity:1; 
stroke-linecap:round; stroke-linejoin:round;">
</g>
<g style="fill:#37CBCB; fill-opacity:1.0000; 
stroke:#37CBCB; stroke-width:0.0000; stroke-opacity:1; 
stroke-linecap:round; stroke-linejoin:round;">
<circle cx="30.9762" cy="8.3750" r="0.4699" /> 
</g>
<g style="fill:#37CBCB; fill-opacity:1.0000; 
stroke:#37CBCB; stroke-width:0.0212; stroke-opacity:1; 
stroke-linecap:round; stroke-linejoin:round;">
</g>
<g style="fill:#37CBCB; fill-opacity:1.0000; 
stroke:#37CBCB; stroke-width:0.0000; stroke-opacity:1; 
stroke-linecap:round; stroke-linejoin:round;">
<circle cx="29.8762" cy="8.3750" r="0.4699" /> 
</g>
<g style="fill:#37CBCB; fill-opacity:1.0000; 
stroke:#37CBCB; stroke-width:0.0212; stroke-opacity:1; 
stroke-linecap:round; stroke-linejoin:round;">
</g>
<g style="fill:#37CBCB; fill-opacity:1.0000; 
stroke:#37CBCB; stroke-width:0.0000; stroke-opacity:1; 
stroke-linecap:round; stroke-linejoin:round;">
<circle cx="28.7762" cy="8.3750" r="0.4699" /> 
</g>
<g style="fill:#37CBCB; fill-opacity:1.0000; 
stroke:#37CBCB; stroke-width:0.0212; stroke-opacity:1; 
stroke-linecap:round; stroke-linejoin:round;">
</g>
<g style="fill:#37CBCB; fill-opacity:1.0000; 
stroke:#37CBCB; stroke-width:0.0000; stroke-opacity:1; 
stroke-linecap:round; stroke-linejoin:round;">
<circle cx="27.6762" cy="8.3750" r="0.4699" /> 
</g>
<g style="fill:#37CBCB; fill-opacity:1.0000; 
stroke:#37CBCB; stroke-width:0.0212; stroke-opacity:1; 
stroke-linecap:round; stroke-linejoin:round;">
</g>
<g style="fill:#37CBCB; fill-opacity:1.0000; 
stroke:#37CBCB; stroke-width:0.0000; stroke-opacity:1; 
stroke-linecap:round; stroke-linejoin:round;">
<circle cx="28.0762" cy="7.0500" r="0.4699" /> 
</g>
<g style="fill:#37CBCB; fill-opacity:1.0000; 
stroke:#37CBCB; stroke-width:0.0212; stroke-opacity:1; 
stroke-linecap:round; stroke-linejoin:round;">
</g>
<g style="fill:#37CBCB; fill-opacity:1.0000; 
stroke:#37CBCB; stroke-width:0.0000; stroke-opacity:1; 
stroke-linecap:round; stroke-linejoin:round;">
<circle cx="29.1762" cy="7.0500" r="0.4699" /> 
</g>
<g style="fill:#37CBCB; fill-opacity:1.0000; 
stroke:#37CBCB; stroke-width:0.0212; stroke-opacity:1; 
stroke-linecap:round; stroke-linejoin:round;">
</g>
<g style="fill:#37CBCB; fill-opacity:1.0000; 
stroke:#37CBCB; stroke-width:0.0000; stroke-opacity:1; 
stroke-linecap:round; stroke-linejoin:round;">
<circle cx="30.2762" cy="7.0500" r="0.4699" /> 
</g>
<g style="fill:#37CBCB; fill-opacity:1.0000; 
stroke:#37CBCB; stroke-width:0.0212; stroke-opacity:1; 
stroke-linecap:round; stroke-linejoin:round;">
</g>
<g style="fill:#37CBCB; fill-opacity:1.0000; 
stroke:#37CBCB; stroke-width:0.0000; stroke-opacity:1; 
stroke-linecap:round; stroke-linejoin:round;">
<circle cx="35.7762" cy="7.0500" r="0.4699" /> 
</g>
<g style="fill:#37CBCB; fill-opacity:1.0000; 
stroke:#37CBCB; stroke-width:0.0212; stroke-opacity:1; 
stroke-linecap:round; stroke-linejoin:round;">
</g>
<g style="fill:#37CBCB; fill-opacity:1.0000; 
stroke:#37CBCB; stroke-width:0.0000; stroke-opacity:1; 
stroke-linecap:round; stroke-linejoin:round;">
<circle cx="36.8762" cy="7.0500" r="0.4699" /> 
</g>
<g style="fill:#37CBCB; fill-opacity:1.0000; 
stroke:#37CBCB; stroke-width:0.0212; stroke-opacity:1; 
stroke-linecap:round; stroke-linejoin:round;">
</g>
<g style="fill:#37CBCB; fill-opacity:1.0000; 
stroke:#37CBCB; stroke-width:0.0000; stroke-opacity:1; 
stroke-linecap:round; stroke-linejoin:round;">
<circle cx="37.9762" cy="7.0500" r="0.4699" /> 
</g>
<g style="fill:#37CBCB; fill-opacity:1.0000; 
stroke:#37CBCB; stroke-width:0.0212; stroke-opacity:1; 
stroke-linecap:round; stroke-linejoin:round;">
</g>
<g >
</g>
<g style="fill:#37CBCB; fill-opacity:1.0000; 
stroke:#37CBCB; stroke-width:0.0212; stroke-opacity:1; 
stroke-linecap:round; stroke-linejoin:round;">
</g>
<g style="fill:#37CBCB; fill-opacity:1.0000; 
stroke:#37CBCB; stroke-width:0.0000; stroke-opacity:1; 
stroke-linecap:round; stroke-linejoin:round;">
<path style="fill:#37CBCB; fill-opacity:1.0000; 
stroke:#37CBCB; stroke-width:0.0000; stroke-opacity:1; 
stroke-linecap:round; stroke-linejoin:round;fill-rule:evenodd;"
d="M 16.6012,5.7750
17.9012,5.7750
17.9012,6.4750
16.6012,6.4750
Z" /> 
<path style="fill:#37CBCB; fill-opacity:1.0000; 
stroke:#37CBCB; stroke-width:0.0000; stroke-opacity:1; 
stroke-linecap:round; stroke-linejoin:round;fill-rule:evenodd;"
d="M 16.6012,7.6750
17.9012,7.6750
17.9012,8.3750
16.6012,8.3750
Z" /> 
</g>
<g >
</g>
<g style="fill:#37CBCB; fill-opacity:1.0000; 
stroke:#37CBCB; stroke-width:0.0000; stroke-opacity:1; 
stroke-linecap:round; stroke-linejoin:round;">
<path style="fill:#37CBCB; fill-opacity:1.0000; 
stroke:#37CBCB; stroke-width:0.0000; stroke-opacity:1; 
stroke-linecap:round; stroke-linejoin:round;fill-rule:evenodd;"
d="M 12.6012,5.7750
13.9012,5.7750
13.9012,6.4750
12.6012,6.4750
Z" /> 
<path style="fill:#37CBCB; fill-opacity:1.0000; 
stroke:#37CBCB; stroke-width:0.0000; stroke-opacity:1; 
stroke-linecap:round; stroke-linejoin:round;fill-rule:evenodd;"
d="M 12.6012,7.6750
13.9012,7.6750
13.9012,8.3750
12.6012,8.3750
Z" /> 
</g>
<g >
</g>
<g style="fill:#37CBCB; fill-opacity:1.0000; 
stroke:#37CBCB; stroke-width:0.0000; stroke-opacity:1; 
stroke-linecap:round; stroke-linejoin:round;">
<circle cx="3.2512" cy="5.5350" r="0.7620" /> 
</g>
<g style="fill:#37CBCB; fill-opacity:1.0000; 
stroke:#37CBCB; stroke-width:0.0212; stroke-opacity:1; 
stroke-linecap:round; stroke-linejoin:round;">
</g>
<g style="fill:#37CBCB; fill-opacity:1.0000; 
stroke:#37CBCB; stroke-width:0.0000; stroke-opacity:1; 
stroke-linecap:round; stroke-linejoin:round;">
<circle cx="3.2512" cy="8.0750" r="0.7620" /> 
</g>
<g style="fill:#37CBCB; fill-opacity:1.0000; 
stroke:#37CBCB; stroke-width:0.0212; stroke-opacity:1; 
stroke-linecap:round; stroke-linejoin:round;">
</g>
<g >
</g>
<g style="fill:#121212; fill-opacity:1.0000; 
stroke:#121212; stroke-width:0.0212; stroke-opacity:1; 
stroke-linecap:round; stroke-linejoin:round;">
</g>
<g style="fill:#121212; fill-opacity:1.0000; 
stroke:#121212; stroke-width:0.0000; stroke-opacity:1; 
stroke-linecap:round; stroke-linejoin:round;">
<circle cx="10.2512" cy="8.0750" r="0.3000" /> 
</g>
<g style="fill:#121212; fill-opacity:1.0000; 
stroke:#121212; stroke-width:0.0212; stroke-opacity:1; 
stroke-linecap:round; stroke-linejoin:round;">
</g>
<g style="fill:#121212; fill-opacity:1.0000; 
stroke:#121212; stroke-width:0.0000; stroke-opacity:1; 
stroke-linecap:round; stroke-linejoin:round;">
<circle cx="19.7512" cy="8.0750" r="0.3000" /> 
</g>
<g style="fill:#121212; fill-opacity:1.0000; 
stroke:#121212; stroke-width:0.0212; stroke-opacity:1; 
stroke-linecap:round; stroke-linejoin:round;">
</g>
<g style="fill:#121212; fill-opacity:1.0000; 
stroke:#121212; stroke-width:0.0000; stroke-opacity:1; 
stroke-linecap:round; stroke-linejoin:round;">
<circle cx="28.2512" cy="3.5750" r="0.3000" /> 
</g>
<g style="fill:#121212; fill-opacity:1.0000; 
stroke:#121212; stroke-width:0.0212; stroke-opacity:1; 
stroke-linecap:round; stroke-linejoin:round;">
</g>
<g >
</g>
<g style="fill:#37CBCB; fill-opacity:1.0000; 
stroke:#37CBCB; stroke-width:0.0212; stroke-opacity:1; 
stroke-linecap:round; stroke-linejoin:round;">
</g>
<g style="fill:#37CBCB; fill-opacity:1.0000; 
stroke:#37CBCB; stroke-width:0.7500; stroke-opacity:1; 
stroke-linecap:round; stroke-linejoin:round;">
</g>
<g style="fill:#37CBCB; fill-opacity:0.0; 
stroke:#37CBCB; stroke-width:0.7500; stroke-opacity:1; 
stroke-linecap:round; stroke-linejoin:round;">
<path d="M37.9762 7.0500
L38.3762 7.4500
" />
<path d="M38.3762 7.4500
L38.3762 8.3750
" />
<path d="M38.7512 6.2750
L38.7512 5.7250
" />
<path d="M28.0762 7.0500
L27.6762 7.4500
" />
<path d="M27.6762 7.4500
L27.6762 8.3750
" />
<path d="M27.3012 6.2750
L27.3012 5.7250
" />
<path d="M29.1762 7.0500
L28.0762 7.0500
" />
</g>
<g style="fill:#37CBCB; fill-opacity:0.0; 
stroke:#37CBCB; stroke-width:0.2500; stroke-opacity:1; 
stroke-linecap:round; stroke-linejoin:round;">
<path d="M19.7012 8.0250
L19.7512 8.0750
" />
<path d="M10.3012 8.0250
L10.2512 8.0750
" />
</g>
<g style="fill:#37CBCB; fill-opacity:0.0; 
stroke:#37CBCB; stroke-width:0.7500; stroke-opacity:1; 
stroke-linecap:round; stroke-linejoin:round;">
<path d="M28.0762 7.0500
L27.3012 6.2750
" />
</g>
<g style="fill:#37CBCB; fill-opacity:0.0; 
stroke:#37CBCB; stroke-width:0.2500; stroke-opacity:1; 
stroke-linecap:round; stroke-linejoin:round;">
<path d="M17.2512 8.0250
L19.7012 8.0250
" />
</g>
<g style="fill:#37CBCB; fill-opacity:0.0; 
stroke:#37CBCB; stroke-width:0.7500; stroke-opacity:1; 
stroke-linecap:round; stroke-linejoin:round;">
<path d="M35.7762 7.0500
L36.8762 7.0500
" />
<path d="M30.2762 7.0500
L29.1762 7.0500
" />
</g>
<g style="fill:#37CBCB; fill-opacity:0.0; 
stroke:#37CBCB; stroke-width:0.2500; stroke-opacity:1; 
stroke-linecap:round; stroke-linejoin:round;">
<path d="M13.2512 8.0250
L10.3012 8.0250
" />
</g>
<g style="fill:#37CBCB; fill-opacity:0.0; 
stroke:#37CBCB; stroke-width:0.7500; stroke-opacity:1; 
stroke-linecap:round; stroke-linejoin:round;">
<path d="M37.9762 7.0500
L38.7512 6.2750
" />
<path d="M36.8762 7.0500
L37.9762 7.0500
" />
</g>
<g style="fill:#37CBCB; fill-opacity:0.0; 
stroke:#37CBCB; stroke-width:0.2500; stroke-opacity:1; 
stroke-linecap:round; stroke-linejoin:round;">
<path d="M28.2512 3.5750
L18.2512 3.5750
" />
<path d="M18.2512 3.5750
L17.2512 4.5750
" />
<path d="M17.2512 4.5750
L17.2512 6.1250
" />
<path d="M33.0012 5.3250
L33.0012 4.5750
" />
<path d="M33.8262 7.0750
L33.5012 7.0750
" />
<path d="M33.5012 7.0750
L33.0012 6.5750
" />
<path d="M33.0012 6.5750
L33.0012 5.3250
" />
<path d="M31.0012 2.5750
L27.7512 2.5750
" />
<path d="M14.7512 2.5750
L13.2512 4.0750
" />
<path d="M13.2512 4.0750
L13.2512 6.1250
" />
<path d="M33.0012 4.5750
L31.0012 2.5750
" />
<path d="M34.3262 7.5750
L33.8262 7.0750
" />
<path d="M27.7512 2.5750
L14.7512 2.5750
" />
</g>
<g >
</g>
<g style="fill:#37CBCB; fill-opacity:0.0; 
stroke:#37CBCB; stroke-width:0.2500; stroke-opacity:1; 
stroke-linecap:round; stroke-linejoin:round;">
<g >
</g>
<g style="fill:#37CBCB; fill-opacity:1.0000; 
stroke:#37CBCB; stroke-width:0.0000; stroke-opacity:1; 
stroke-linecap:round; stroke-linejoin:round;">
<path style="fill:#37CBCB; fill-opacity:1.0000; 
stroke:#37CBCB; stroke-width:0.0000; stroke-opacity:1; 
stroke-linecap:round; stroke-linejoin:round;fill-rule:evenodd;"
d="M 43.6933,0.5950
43.7398,0.6487
43.7512,0.7010
43.7512,13.4490
43.7312,13.5171
43.6775,13.5636
43.6252,13.5750
0.8772,13.5750
0.8091,13.5550
0.7626,13.5013
0.7512,13.4490
0.7512,8.0750
1.9763,8.0750
1.9957,8.2964
2.0532,8.5110
2.0532,8.5110
2.1269,8.6690
2.5714,8.2245
2.6337,8.1905
2.7045,8.1955
2.7614,8.2381
2.7814,8.2781
2.7844,8.2882
2.7844,8.2882
2.8621,8.4091
2.8633,8.4111
2.9737,8.5068
3.0668,8.5493
3.1205,8.5958
3.1405,8.6639
3.1205,8.7320
3.1036,8.7530
2.6572,9.1993
2.6572,9.1993
2.8152,9.2730
2.8152,9.2730
3.0298,9.3305
3.2512,9.3498
3.4726,9.3305
3.6872,9.2730
3.6872,9.2730
3.8452,9.1993
3.3988,8.7530
3.3648,8.6907
3.3699,8.6198
3.4124,8.5630
3.4356,8.5493
3.5287,8.5068
3.6391,8.4111
3.7180,8.2882
3.7210,8.2781
3.7594,8.2184
3.8240,8.1889
3.8942,8.1990
3.9310,8.2245
4.3755,8.6690
4.3755,8.6690
4.4492,8.5110
4.4492,8.5110
4.5067,8.2964
4.5260,8.0750
9.7961,8.0750
9.8145,8.2032
9.8683,8.3211
9.9286,8.3907
9.9532,8.4190
10.0369,8.4728
10.0621,8.4890
10.1864,8.5255
10.1864,8.5255
10.3160,8.5255
10.3160,8.5255
10.4403,8.4890
10.5492,8.4190
10.6142,8.3440
10.6739,8.3056
10.7094,8.3005
12.3295,8.3005
12.3976,8.3205
12.4441,8.3742
12.4531,8.4019
12.4545,8.4091
12.4594,8.4337
12.4594,8.4337
12.4927,8.4835
12.5425,8.5168
12.5425,8.5168
12.5864,8.5255
12.5864,8.5255
13.9160,8.5255
13.9160,8.5255
13.9599,8.5168
14.0097,8.4835
14.0430,8.4337
14.0517,8.3898
16.4507,8.3898
16.4594,8.4337
16.4594,8.4337
16.4927,8.4835
16.5425,8.5168
16.5425,8.5168
16.5864,8.5255
16.5864,8.5255
17.9160,8.5255
17.9160,8.5255
17.9599,8.5168
18.0097,8.4835
18.0430,8.4337
18.0493,8.4019
18.0822,8.3390
18.1439,8.3039
18.1729,8.3005
19.2930,8.3005
19.3611,8.3205
19.3882,8.3440
19.4286,8.3907
19.4532,8.4190
19.5369,8.4728
19.5621,8.4890
19.6864,8.5255
19.6864,8.5255
19.8160,8.5255
19.8160,8.5255
19.9403,8.4890
20.0492,8.4190
20.1341,8.3211
20.1707,8.2409
23.8757,8.2409
23.8757,8.2409
23.8911,8.3631
23.8911,8.3631
23.9516,8.5159
23.9516,8.5159
24.0482,8.6488
24.0482,8.6488
24.0482,8.6488
24.1749,8.7536
24.3236,8.8236
24.3236,8.8236
24.3236,8.8236
24.4850,8.8544
24.4850,8.8544
24.4850,8.8544
24.4850,8.8544
24.4850,8.8544
24.5670,8.8492
24.6491,8.8441
24.6491,8.8441
24.7272,8.8187
24.8054,8.7933
24.9019,8.7320
24.9441,8.7052
24.9441,8.7052
25.0566,8.5854
25.1358,8.4414
25.1378,8.4337
25.1767,8.2822
25.1767,8.2822
25.1767,5.8591
25.1715,5.8178
25.1613,5.7369
25.1613,5.7369
25.1613,5.7369
25.1008,5.5841
25.0651,5.5350
25.0042,5.4512
25.0042,5.4512
24.8775,5.3464
24.7744,5.2979
24.7288,5.2764
24.7288,5.2764
24.7288,5.2764
24.7288,5.2764
24.5674,5.2456
24.5674,5.2456
24.4033,5.2559
24.4033,5.2559
24.2470,5.3067
24.1083,5.3948
23.9958,5.5146
23.9958,5.5146
23.9166,5.6586
23.9166,5.6586
23.8757,5.8178
23.8757,5.8178
23.8757,8.2409
20.1707,8.2409
20.1879,8.2032
20.2063,8.0750
20.1879,7.9468
20.1341,7.8289
20.0492,7.7310
20.0492,7.7310
19.9403,7.6610
19.9403,7.6610
19.9403,7.6610
19.9375,7.6602
19.8160,7.6245
19.8160,7.6245
19.8160,7.6245
19.6864,7.6245
19.6864,7.6245
19.6864,7.6245
19.5621,7.6610
19.5621,7.6610
19.4555,7.7295
19.3874,7.7495
18.1729,7.7495
18.1048,7.7295
18.0583,7.6758
18.0493,7.6481
18.0446,7.6245
18.0430,7.6163
18.0430,7.6163
18.0097,7.5665
17.9599,7.5332
17.9599,7.5332
17.9160,7.5245
16.5864,7.5245
16.5864,7.5245
16.5425,7.5332
16.5425,7.5332
16.4927,7.5665
16.4594,7.6163
16.4594,7.6163
16.4507,7.6602
16.4507,8.3898
14.0517,8.3898
14.0517,7.6602
14.0430,7.6163
14.0430,7.6163
14.0097,7.5665
13.9599,7.5332
13.9599,7.5332
13.9160,7.5245
12.5864,7.5245
12.5864,7.5245
12.5425,7.5332
12.5425,7.5332
12.4927,7.5665
12.4594,7.6163
12.4594,7.6163
12.4531,7.6481
12.4202,7.7110
12.3585,7.7461
12.3295,7.7495
10.6150,7.7495
10.5469,7.7295
10.4403,7.6610
10.4403,7.6610
10.4403,7.6610
10.4375,7.6602
10.3160,7.6245
10.3160,7.6245
10.3160,7.6245
10.1864,7.6245
10.1864,7.6245
10.1864,7.6245
10.0621,7.6610
10.0621,7.6610
9.9532,7.7310
9.9072,7.7840
9.8683,7.8289
9.8145,7.9468
9.7961,8.0750
4.5260,8.0750
4.5260,8.0750
4.5067,7.8536
4.4492,7.6390
4.4492,7.6390
4.3755,7.4810
3.9310,7.9255
3.8687,7.9595
3.7979,7.9545
3.7410,7.9119
3.7210,7.8719
3.7180,7.8618
3.6391,7.7389
3.5287,7.6432
3.5287,7.6432
3.4356,7.6007
3.3819,7.5542
3.3619,7.4861
3.3819,7.4180
3.3988,7.3970
3.8452,6.9507
3.6872,6.8770
3.6872,6.8770
3.4726,6.8195
3.2512,6.8001
3.0298,6.8195
2.8152,6.8770
2.8152,6.8770
2.6572,6.9507
3.1036,7.3970
3.1376,7.4593
3.1325,7.5302
3.0900,7.5870
3.0668,7.6007
2.9737,7.6432
2.9737,7.6432
2.8633,7.7389
2.7844,7.8618
2.7844,7.8618
2.7814,7.8719
2.7430,7.9317
2.6784,7.9611
2.6081,7.9510
2.5714,7.9255
2.1269,7.4810
2.0532,7.6390
2.0532,7.6390
1.9957,7.8536
1.9763,8.0750
0.7512,8.0750
0.7512,6.4898
12.4507,6.4898
12.4594,6.5337
12.4594,6.5337
12.4927,6.5835
12.5425,6.6168
12.5425,6.6168
12.5864,6.6255
12.5864,6.6255
13.9160,6.6255
13.9160,6.6255
13.9599,6.6168
14.0097,6.5835
14.0430,6.5337
14.0517,6.4898
16.4507,6.4898
16.4594,6.5337
16.4594,6.5337
16.4927,6.5835
16.5425,6.6168
16.5425,6.6168
16.5864,6.6255
16.5864,6.6255
17.9160,6.6255
17.9160,6.6255
17.9599,6.6168
18.0097,6.5835
18.0430,6.5337
18.0517,6.4898
18.0517,5.7602
18.0430,5.7163
18.0430,5.7163
18.0097,5.6665
17.9599,5.6332
17.9599,5.6332
17.9160,5.6245
17.6527,5.6245
17.5846,5.6045
17.5381,5.5508
17.5267,5.4985
17.5267,4.7413
17.5467,4.6732
17.5636,4.6522
18.3284,3.8874
18.3907,3.8534
18.4175,3.8505
27.8363,3.8505
27.9044,3.8705
27.9315,3.8940
27.9531,3.9190
28.0439,3.9773
28.0621,3.9890
28.1864,4.0255
28.1864,4.0255
28.3160,4.0255
28.3160,4.0255
28.4403,3.9890
28.5492,3.9190
28.6341,3.8211
28.6879,3.7032
28.7063,3.5750
28.6879,3.4468
28.6341,3.3289
28.5492,3.2310
28.5492,3.2310
28.4403,3.1610
28.4403,3.1610
28.4403,3.1610
28.4403,3.1610
28.3160,3.1245
28.3160,3.1245
28.3160,3.1245
28.1864,3.1245
28.1864,3.1245
28.1864,3.1245
28.0621,3.1610
28.0621,3.1610
27.9531,3.2310
27.9315,3.2560
27.8718,3.2944
27.8363,3.2995
18.2907,3.2995
18.2662,3.2971
18.2512,3.2941
18.2512,3.2941
18.1437,3.3155
18.0805,3.3577
18.0805,3.3577
18.0526,3.3764
18.0441,3.3891
18.0284,3.4082
17.0844,4.3522
17.0653,4.3679
17.0526,4.3764
16.9986,4.4572
16.9829,4.4763
16.9819,4.4773
16.9846,4.5028
16.9842,4.5050
16.9703,4.5750
16.9733,4.5900
16.9757,4.6145
16.9757,5.4985
16.9557,5.5666
16.9020,5.6131
16.8497,5.6245
16.5864,5.6245
16.5425,5.6332
16.5425,5.6332
16.4927,5.6665
16.4594,5.7163
16.4594,5.7163
16.4507,5.7602
16.4507,6.4898
14.0517,6.4898
14.0517,5.7602
14.0430,5.7163
14.0430,5.7163
14.0097,5.6665
13.9599,5.6332
13.9599,5.6332
13.9160,5.6245
13.6527,5.6245
13.5846,5.6045
13.5381,5.5508
13.5267,5.4985
13.5267,4.2413
13.5467,4.1732
13.5636,4.1522
14.8284,2.8874
14.8907,2.8534
14.9175,2.8505
27.7241,2.8505
30.8349,2.8505
30.9030,2.8705
30.9240,2.8874
32.6888,4.6522
32.7228,4.7145
32.7257,4.7413
32.7257,5.3164
32.7057,5.3845
32.6520,5.4310
32.5818,5.4411
32.5172,5.4116
32.5076,5.4024
32.4307,5.3200
32.3092,5.2462
32.3092,5.2462
32.3092,5.2462
32.1723,5.2078
32.0658,5.2078
32.0658,5.2078
31.9604,5.2223
31.9603,5.2223
31.8299,5.2789
31.8299,5.2789
31.7197,5.3687
31.7138,5.3750
31.7114,5.3728
31.6679,5.4073
31.5972,5.4143
31.5340,5.3820
31.5095,5.3498
31.5085,5.3480
31.5085,5.3480
31.0827,5.7738
31.0204,5.8079
30.9496,5.8028
30.8927,5.7603
30.8700,5.7093
30.8599,5.6586
30.8524,5.6209
30.8056,5.5508
30.7935,5.5327
30.7053,5.4738
30.6275,5.4583
30.6275,5.4583
30.5749,5.4583
30.5749,5.4583
30.4971,5.4738
30.4089,5.5327
30.3500,5.6209
30.3324,5.7093
30.2995,5.7722
30.2378,5.8074
30.1669,5.8036
30.1197,5.7738
30.0452,5.6993
30.0112,5.6370
30.0109,5.6359
30.0104,5.6332
29.9931,5.5502
29.9931,5.5502
29.9931,5.5502
29.9593,5.4848
29.9277,5.4239
29.8307,5.3200
29.8307,5.3200
29.7092,5.2462
29.7092,5.2462
29.7092,5.2462
29.5723,5.2078
29.4658,5.2078
29.4658,5.2078
29.3604,5.2223
29.3603,5.2223
29.2299,5.2789
29.2299,5.2789
29.1197,5.3687
29.1197,5.3687
29.1173,5.3720
29.1143,5.3744
29.1138,5.3750
29.1137,5.3749
29.0617,5.4161
28.9910,5.4232
28.9278,5.3909
28.9107,5.3709
28.9091,5.3687
28.8690,5.3106
28.7936,5.2438
28.7559,5.1837
28.7512,5.1495
28.7512,4.8177
30.2242,4.8177
30.6012,5.1947
30.6012,5.1947
30.9782,4.8177
30.9782,4.8177
30.9772,4.8172
30.7929,4.7612
30.6012,4.7424
30.6012,4.7424
30.4095,4.7612
30.2252,4.8172
30.2252,4.8172
30.2242,4.8177
30.2242,4.8177
28.7512,4.8177
28.7512,4.5750
28.2512,4.5750
26.2512,4.5750
26.2512,9.5750
28.7512,9.5750
28.7512,9.2823
30.5992,9.2823
30.6002,9.2828
30.7845,9.3388
30.9762,9.3576
30.9762,9.3576
31.1679,9.3388
31.3522,9.2828
31.3532,9.2823
34.6992,9.2823
34.7002,9.2828
34.8845,9.3388
35.0762,9.3576
35.0762,9.3576
35.2679,9.3388
35.4522,9.2828
35.4532,9.2823
35.0762,8.9053
35.0762,8.9053
34.6992,9.2823
31.3532,9.2823
31.3532,9.2823
30.9762,8.9053
30.9762,8.9053
30.5992,9.2823
28.7512,9.2823
28.7512,9.1188
28.7712,9.0507
28.8249,9.0042
28.8470,8.9965
28.8515,8.9954
28.8515,8.9954
28.9978,8.9593
29.1312,8.8893
29.2426,8.7906
29.3069,8.7604
29.3773,8.7697
29.4097,8.7906
29.5212,8.8893
29.6546,8.9593
29.8009,8.9954
29.8009,8.9954
29.9515,8.9954
29.9515,8.9954
30.0978,8.9593
30.2312,8.8893
30.3440,8.7894
30.4296,8.6654
30.4830,8.5246
30.4843,8.5140
30.5123,8.4488
30.5712,8.4091
30.6422,8.4075
30.7027,8.4446
30.7180,8.4688
30.7181,8.4687
30.7839,8.5673
30.8110,8.5854
30.8721,8.6262
30.9499,8.6417
30.9499,8.6417
31.0025,8.6417
31.0025,8.6417
31.0803,8.6262
31.1685,8.5673
31.2274,8.4791
31.2450,8.3907
31.2779,8.3278
31.3396,8.2926
31.4105,8.2964
31.4577,8.3262
31.8835,8.7520
31.8971,8.7500
31.9674,8.7598
32.0019,8.7852
32.0027,8.7844
32.0084,8.7894
32.0084,8.7894
32.1212,8.8893
32.2546,8.9593
32.4009,8.9954
32.4009,8.9954
32.5515,8.9954
32.5515,8.9954
32.6978,8.9593
32.8312,8.8893
32.9426,8.7906
33.0069,8.7604
33.0773,8.7697
33.1097,8.7906
33.2212,8.8893
33.3546,8.9593
33.5009,8.9954
33.5009,8.9954
33.6515,8.9954
33.6515,8.9954
33.7978,8.9593
33.9312,8.8893
34.0440,8.7894
34.0440,8.7894
34.0497,8.7844
34.0509,8.7858
34.1027,8.7533
34.1554,8.7500
34.1689,8.7520
34.5947,8.3262
34.6570,8.2921
34.7278,8.2972
34.7847,8.3397
34.8074,8.3907
34.8250,8.4791
34.8839,8.5673
34.9110,8.5854
34.9721,8.6262
35.0499,8.6417
35.0499,8.6417
35.1025,8.6417
35.1025,8.6417
35.1803,8.6262
35.2685,8.5673
35.2805,8.5493
35.3343,8.4687
35.3357,8.4697
35.3712,8.4257
35.4385,8.4033
35.5073,8.4208
35.5557,8.4728
35.5681,8.5140
35.5694,8.5246
35.5925,8.5854
35.6228,8.6654
35.7084,8.7894
35.8212,8.8893
35.9546,8.9593
36.1009,8.9954
36.1009,8.9954
36.2515,8.9954
36.2515,8.9954
36.3978,8.9593
36.5312,8.8893
36.6426,8.7906
36.7069,8.7604
36.7773,8.7697
36.8098,8.7906
36.9212,8.8893
36.9517,8.9053
37.0546,8.9593
37.1554,8.9842
37.2167,9.0199
37.2490,9.0831
37.2512,9.1065
37.2512,9.5750
39.7512,9.5750
39.7512,8.2409
40.8757,8.2409
40.8757,8.2409
40.8911,8.3631
40.8911,8.3631
40.9516,8.5159
40.9516,8.5159
41.0482,8.6488
41.0482,8.6488
41.0482,8.6488
41.1749,8.7536
41.3236,8.8236
41.3236,8.8236
41.3236,8.8236
41.4850,8.8544
41.4850,8.8544
41.4850,8.8544
41.4850,8.8544
41.4850,8.8544
41.5670,8.8492
41.6491,8.8441
41.6491,8.8441
41.7272,8.8187
41.8054,8.7933
41.9019,8.7320
41.9441,8.7052
41.9441,8.7052
42.0566,8.5854
42.1358,8.4414
42.1378,8.4337
42.1767,8.2822
42.1767,8.2822
42.1767,5.8591
42.1715,5.8178
42.1613,5.7369
42.1613,5.7369
42.1613,5.7369
42.1008,5.5841
42.0651,5.5350
42.0042,5.4512
42.0042,5.4512
41.8775,5.3464
41.7744,5.2979
41.7288,5.2764
41.7288,5.2764
41.7288,5.2764
41.7288,5.2764
41.5674,5.2456
41.5674,5.2456
41.4033,5.2559
41.4033,5.2559
41.2470,5.3067
41.1083,5.3948
40.9958,5.5146
40.9958,5.5146
40.9166,5.6586
40.9166,5.6586
40.8757,5.8178
40.8757,5.8178
40.8757,8.2409
39.7512,8.2409
39.7512,4.5750
37.2512,4.5750
37.2512,5.1938
37.2312,5.2619
37.2088,5.2881
37.1848,5.3094
37.1205,5.3396
37.0501,5.3303
37.0176,5.3094
36.9062,5.2107
36.8936,5.2040
36.7728,5.1407
36.6265,5.1046
36.6265,5.1046
36.4759,5.1046
36.4759,5.1046
36.3296,5.1407
36.1962,5.2107
36.1962,5.2107
36.0834,5.3106
35.9978,5.4346
35.9978,5.4346
35.9444,5.5754
35.9431,5.5860
35.9151,5.6512
35.8562,5.6909
35.7852,5.6924
35.7247,5.6554
35.7094,5.6312
35.7093,5.6313
35.6435,5.5327
35.5553,5.4738
35.4775,5.4583
35.4775,5.4583
35.4249,5.4583
35.4249,5.4583
35.3471,5.4738
35.2589,5.5327
35.2000,5.6209
35.2000,5.6209
35.1824,5.7093
35.1495,5.7722
35.0878,5.8074
35.0169,5.8036
34.9697,5.7738
34.5439,5.3480
34.5304,5.3500
34.4601,5.3403
34.4255,5.3148
34.4247,5.3156
34.4190,5.3106
34.4190,5.3106
34.3062,5.2107
34.2936,5.2040
34.1728,5.1407
34.0265,5.1046
34.0265,5.1046
33.8759,5.1046
33.8759,5.1046
33.7296,5.1407
33.5962,5.2107
33.5962,5.2107
33.4863,5.3081
33.4220,5.3383
33.3516,5.3289
33.2975,5.2830
33.2767,5.2151
33.2767,5.2137
33.2767,4.8177
35.0742,4.8177
35.4512,5.1947
35.4512,5.1947
35.8282,4.8177
35.8282,4.8177
35.8272,4.8172
35.6429,4.7612
35.4512,4.7424
35.4512,4.7424
35.2595,4.7612
35.0752,4.8172
35.0752,4.8172
35.0742,4.8177
35.0742,4.8177
33.2767,4.8177
33.2767,4.6145
33.2791,4.5900
33.2821,4.5750
33.2631,4.4797
33.2625,4.4735
33.2607,4.4675
33.1998,4.3764
33.1998,4.3764
33.1871,4.3679
33.1680,4.3522
31.2240,2.4082
31.2083,2.3891
31.1998,2.3764
31.1820,2.3644
31.1820,2.3644
31.1507,2.3435
31.1087,2.3155
31.0222,2.2983
31.0222,2.2983
31.0012,2.2941
31.0012,2.2941
30.9862,2.2971
30.9617,2.2995
14.7907,2.2995
14.7662,2.2971
14.7512,2.2941
14.6437,2.3155
14.6437,2.3155
14.5773,2.3599
14.5773,2.3599
14.5526,2.3764
14.5441,2.3891
14.5284,2.4082
13.0844,3.8522
13.0653,3.8679
13.0526,3.8764
12.9986,3.9572
12.9829,3.9763
12.9819,3.9773
12.9846,4.0028
12.9842,4.0050
12.9703,4.0750
12.9733,4.0900
12.9757,4.1145
12.9757,5.4985
12.9557,5.5666
12.9020,5.6131
12.8497,5.6245
12.5864,5.6245
12.5425,5.6332
12.5425,5.6332
12.4927,5.6665
12.4594,5.7163
12.4594,5.7163
12.4507,5.7602
12.4507,6.4898
0.7512,6.4898
0.7512,5.5350
2.3337,5.5350
2.3537,5.7258
2.4130,5.9082
2.4130,5.9082
2.4906,6.0426
2.5089,6.0743
2.5960,6.1711
2.6373,6.2169
2.7924,6.3296
2.7924,6.3296
2.7924,6.3296
2.9677,6.4076
3.1553,6.4475
3.1553,6.4475
3.3471,6.4475
3.3471,6.4475
3.5347,6.4076
3.7100,6.3296
3.8651,6.2169
3.9935,6.0743
4.0894,5.9082
4.1487,5.7258
4.1687,5.5350
4.1516,5.3720
4.1487,5.3442
4.0894,5.1618
4.0894,5.1618
3.9935,4.9957
3.9935,4.9957
3.8651,4.8531
3.8651,4.8531
3.7100,4.7404
3.5347,4.6624
3.5347,4.6624
3.3471,4.6225
3.1553,4.6225
3.0052,4.6544
2.9677,4.6624
2.7924,4.7404
2.6373,4.8531
2.5089,4.9957
2.5089,4.9957
2.4130,5.1618
2.4130,5.1618
2.3537,5.3442
2.3337,5.5350
0.7512,5.5350
0.7512,0.7010
0.7712,0.6329
0.8249,0.5864
0.8772,0.5750
43.6252,0.5750
Z" /> 
</g>
</g>
</g>
<g style="fill:#000000; fill-opacity:1.0000; 
stroke:#000000; stroke-width:0.0000; stroke-opacity:1; 
stroke-linecap:round; stroke-linejoin:round;">
<circle cx="10.2512" cy="8.0750" r="0.2000" /> 
</g>
<g style="fill:#000000; fill-opacity:1.0000; 
stroke:#000000; stroke-width:0.0212; stroke-opacity:1; 
stroke-linecap:round; stroke-linejoin:round;">
</g>
<g style="fill:#000000; fill-opacity:1.0000; 
stroke:#000000; stroke-width:0.0000; stroke-opacity:1; 
stroke-linecap:round; stroke-linejoin:round;">
<circle cx="19.7512" cy="8.0750" r="0.2000" /> 
</g>
<g style="fill:#000000; fill-opacity:1.0000; 
stroke:#000000; stroke-width:0.0212; stroke-opacity:1; 
stroke-linecap:round; stroke-linejoin:round;">
</g>
<g style="fill:#000000; fill-opacity:1.0000; 
stroke:#000000; stroke-width:0.0000; stroke-opacity:1; 
stroke-linecap:round; stroke-linejoin:round;">
<circle cx="28.2512" cy="3.5750" r="0.2000" /> 
</g>
<g style="fill:#000000; fill-opacity:1.0000; 
stroke:#000000; stroke-width:0.0212; stroke-opacity:1; 
stroke-linecap:round; stroke-linejoin:round;">
</g>
<g style="fill:#000000; fill-opacity:1.0000; 
stroke:#000000; stroke-width:0.6500; stroke-opacity:1; 
stroke-linecap:round; stroke-linejoin:round;">
</g>
<g style="fill:#000000; fill-opacity:0.0; 
stroke:#000000; stroke-width:0.6500; stroke-opacity:1; 
stroke-linecap:round; stroke-linejoin:round;">
<path d="M24.5262 5.9250
L24.5262 8.1750
" />
<path d="M41.5262 5.9250
L41.5262 8.1750
" />
</g>
<g style="fill:#000000; fill-opacity:1.0000; 
stroke:#000000; stroke-width:0.0000; stroke-opacity:1; 
stroke-linecap:round; stroke-linejoin:round;">
<circle cx="27.3012" cy="5.7250" r="0.2667" /> 
</g>
<g style="fill:#000000; fill-opacity:1.0000; 
stroke:#000000; stroke-width:0.0212; stroke-opacity:1; 
stroke-linecap:round; stroke-linejoin:round;">
</g>
<g style="fill:#000000; fill-opacity:1.0000; 
stroke:#000000; stroke-width:0.0000; stroke-opacity:1; 
stroke-linecap:round; stroke-linejoin:round;">
<circle cx="28.4012" cy="5.7250" r="0.2667" /> 
</g>
<g style="fill:#000000; fill-opacity:1.0000; 
stroke:#000000; stroke-width:0.0212; stroke-opacity:1; 
stroke-linecap:round; stroke-linejoin:round;">
</g>
<g style="fill:#000000; fill-opacity:1.0000; 
stroke:#000000; stroke-width:0.0000; stroke-opacity:1; 
stroke-linecap:round; stroke-linejoin:round;">
<circle cx="29.5012" cy="5.7250" r="0.2667" /> 
</g>
<g style="fill:#000000; fill-opacity:1.0000; 
stroke:#000000; stroke-width:0.0212; stroke-opacity:1; 
stroke-linecap:round; stroke-linejoin:round;">
</g>
<g style="fill:#000000; fill-opacity:1.0000; 
stroke:#000000; stroke-width:0.0000; stroke-opacity:1; 
stroke-linecap:round; stroke-linejoin:round;">
<circle cx="30.6012" cy="5.7250" r="0.2667" /> 
</g>
<g style="fill:#000000; fill-opacity:1.0000; 
stroke:#000000; stroke-width:0.0212; stroke-opacity:1; 
stroke-linecap:round; stroke-linejoin:round;">
</g>
<g style="fill:#000000; fill-opacity:1.0000; 
stroke:#000000; stroke-width:0.0000; stroke-opacity:1; 
stroke-linecap:round; stroke-linejoin:round;">
<circle cx="31.3512" cy="6.5250" r="0.2667" /> 
</g>
<g style="fill:#000000; fill-opacity:1.0000; 
stroke:#000000; stroke-width:0.0212; stroke-opacity:1; 
stroke-linecap:round; stroke-linejoin:round;">
</g>
<g style="fill:#000000; fill-opacity:1.0000; 
stroke:#000000; stroke-width:0.0000; stroke-opacity:1; 
stroke-linecap:round; stroke-linejoin:round;">
<circle cx="32.1012" cy="5.7250" r="0.2667" /> 
</g>
<g style="fill:#000000; fill-opacity:1.0000; 
stroke:#000000; stroke-width:0.0212; stroke-opacity:1; 
stroke-linecap:round; stroke-linejoin:round;">
</g>
<g style="fill:#000000; fill-opacity:1.0000; 
stroke:#000000; stroke-width:0.0000; stroke-opacity:1; 
stroke-linecap:round; stroke-linejoin:round;">
<circle cx="33.9512" cy="5.7250" r="0.2667" /> 
</g>
<g style="fill:#000000; fill-opacity:1.0000; 
stroke:#000000; stroke-width:0.0212; stroke-opacity:1; 
stroke-linecap:round; stroke-linejoin:round;">
</g>
<g style="fill:#000000; fill-opacity:1.0000; 
stroke:#000000; stroke-width:0.0000; stroke-opacity:1; 
stroke-linecap:round; stroke-linejoin:round;">
<circle cx="34.7012" cy="6.5250" r="0.2667" /> 
</g>
<g style="fill:#000000; fill-opacity:1.0000; 
stroke:#000000; stroke-width:0.0212; stroke-opacity:1; 
stroke-linecap:round; stroke-linejoin:round;">
</g>
<g style="fill:#000000; fill-opacity:1.0000; 
stroke:#000000; stroke-width:0.0000; stroke-opacity:1; 
stroke-linecap:round; stroke-linejoin:round;">
<circle cx="35.4512" cy="5.7250" r="0.2667" /> 
</g>
<g style="fill:#000000; fill-opacity:1.0000; 
stroke:#000000; stroke-width:0.0212; stroke-opacity:1; 
stroke-linecap:round; stroke-linejoin:round;">
</g>
<g style="fill:#000000; fill-opacity:1.0000; 
stroke:#000000; stroke-width:0.0000; stroke-opacity:1; 
stroke-linecap:round; stroke-linejoin:round;">
<circle cx="36.5512" cy="5.7250" r="0.2667" /> 
</g>
<g style="fill:#000000; fill-opacity:1.0000; 
stroke:#000000; stroke-width:0.0212; stroke-opacity:1; 
stroke-linecap:round; stroke-linejoin:round;">
</g>
<g style="fill:#000000; fill-opacity:1.0000; 
stroke:#000000; stroke-width:0.0000; stroke-opacity:1; 
stroke-linecap:round; stroke-linejoin:round;">
<circle cx="37.6512" cy="5.7250" r="0.2667" /> 
</g>
<g style="fill:#000000; fill-opacity:1.0000; 
stroke:#000000; stroke-width:0.0212; stroke-opacity:1; 
stroke-linecap:round; stroke-linejoin:round;">
</g>
<g style="fill:#000000; fill-opacity:1.0000; 
stroke:#000000; stroke-width:0.0000; stroke-opacity:1; 
stroke-linecap:round; stroke-linejoin:round;">
<circle cx="38.7512" cy="5.7250" r="0.2667" /> 
</g>
<g style="fill:#000000; fill-opacity:1.0000; 
stroke:#000000; stroke-width:0.0212; stroke-opacity:1; 
stroke-linecap:round; stroke-linejoin:round;">
</g>
<g style="fill:#000000; fill-opacity:1.0000; 
stroke:#000000; stroke-width:0.0000; stroke-opacity:1; 
stroke-linecap:round; stroke-linejoin:round;">
<circle cx="38.3762" cy="8.3750" r="0.2667" /> 
</g>
<g style="fill:#000000; fill-opacity:1.0000; 
stroke:#000000; stroke-width:0.0212; stroke-opacity:1; 
stroke-linecap:round; stroke-linejoin:round;">
</g>
<g style="fill:#000000; fill-opacity:1.0000; 
stroke:#000000; stroke-width:0.0000; stroke-opacity:1; 
stroke-linecap:round; stroke-linejoin:round;">
<circle cx="37.2762" cy="8.3750" r="0.2667" /> 
</g>
<g style="fill:#000000; fill-opacity:1.0000; 
stroke:#000000; stroke-width:0.0212; stroke-opacity:1; 
stroke-linecap:round; stroke-linejoin:round;">
</g>
<g style="fill:#000000; fill-opacity:1.0000; 
stroke:#000000; stroke-width:0.0000; stroke-opacity:1; 
stroke-linecap:round; stroke-linejoin:round;">
<circle cx="36.1762" cy="8.3750" r="0.2667" /> 
</g>
<g style="fill:#000000; fill-opacity:1.0000; 
stroke:#000000; stroke-width:0.0212; stroke-opacity:1; 
stroke-linecap:round; stroke-linejoin:round;">
</g>
<g style="fill:#000000; fill-opacity:1.0000; 
stroke:#000000; stroke-width:0.0000; stroke-opacity:1; 
stroke-linecap:round; stroke-linejoin:round;">
<circle cx="35.0762" cy="8.3750" r="0.2667" /> 
</g>
<g style="fill:#000000; fill-opacity:1.0000; 
stroke:#000000; stroke-width:0.0212; stroke-opacity:1; 
stroke-linecap:round; stroke-linejoin:round;">
</g>
<g style="fill:#000000; fill-opacity:1.0000; 
stroke:#000000; stroke-width:0.0000; stroke-opacity:1; 
stroke-linecap:round; stroke-linejoin:round;">
<circle cx="34.3262" cy="7.5750" r="0.2667" /> 
</g>
<g style="fill:#000000; fill-opacity:1.0000; 
stroke:#000000; stroke-width:0.0212; stroke-opacity:1; 
stroke-linecap:round; stroke-linejoin:round;">
</g>
<g style="fill:#000000; fill-opacity:1.0000; 
stroke:#000000; stroke-width:0.0000; stroke-opacity:1; 
stroke-linecap:round; stroke-linejoin:round;">
<circle cx="33.5762" cy="8.3750" r="0.2667" /> 
</g>
<g style="fill:#000000; fill-opacity:1.0000; 
stroke:#000000; stroke-width:0.0212; stroke-opacity:1; 
stroke-linecap:round; stroke-linejoin:round;">
</g>
<g style="fill:#000000; fill-opacity:1.0000; 
stroke:#000000; stroke-width:0.0000; stroke-opacity:1; 
stroke-linecap:round; stroke-linejoin:round;">
<circle cx="32.4762" cy="8.3750" r="0.2667" /> 
</g>
<g style="fill:#000000; fill-opacity:1.0000; 
stroke:#000000; stroke-width:0.0212; stroke-opacity:1; 
stroke-linecap:round; stroke-linejoin:round;">
</g>
<g style="fill:#000000; fill-opacity:1.0000; 
stroke:#000000; stroke-width:0.0000; stroke-opacity:1; 
stroke-linecap:round; stroke-linejoin:round;">
<circle cx="31.7262" cy="7.5750" r="0.2667" /> 
</g>
<g style="fill:#000000; fill-opacity:1.0000; 
stroke:#000000; stroke-width:0.0212; stroke-opacity:1; 
stroke-linecap:round; stroke-linejoin:round;">
</g>
<g style="fill:#000000; fill-opacity:1.0000; 
stroke:#000000; stroke-width:0.0000; stroke-opacity:1; 
stroke-linecap:round; stroke-linejoin:round;">
<circle cx="30.9762" cy="8.3750" r="0.2667" /> 
</g>
<g style="fill:#000000; fill-opacity:1.0000; 
stroke:#000000; stroke-width:0.0212; stroke-opacity:1; 
stroke-linecap:round; stroke-linejoin:round;">
</g>
<g style="fill:#000000; fill-opacity:1.0000; 
stroke:#000000; stroke-width:0.0000; stroke-opacity:1; 
stroke-linecap:round; stroke-linejoin:round;">
<circle cx="29.8762" cy="8.3750" r="0.2667" /> 
</g>
<g style="fill:#000000; fill-opacity:1.0000; 
stroke:#000000; stroke-width:0.0212; stroke-opacity:1; 
stroke-linecap:round; stroke-linejoin:round;">
</g>
<g style="fill:#000000; fill-opacity:1.0000; 
stroke:#000000; stroke-width:0.0000; stroke-opacity:1; 
stroke-linecap:round; stroke-linejoin:round;">
<circle cx="28.7762" cy="8.3750" r="0.2667" /> 
</g>
<g style="fill:#000000; fill-opacity:1.0000; 
stroke:#000000; stroke-width:0.0212; stroke-opacity:1; 
stroke-linecap:round; stroke-linejoin:round;">
</g>
<g style="fill:#000000; fill-opacity:1.0000; 
stroke:#000000; stroke-width:0.0000; stroke-opacity:1; 
stroke-linecap:round; stroke-linejoin:round;">
<circle cx="27.6762" cy="8.3750" r="0.2667" /> 
</g>
<g style="fill:#000000; fill-opacity:1.0000; 
stroke:#000000; stroke-width:0.0212; stroke-opacity:1; 
stroke-linecap:round; stroke-linejoin:round;">
</g>
<g style="fill:#000000; fill-opacity:1.0000; 
stroke:#000000; stroke-width:0.0000; stroke-opacity:1; 
stroke-linecap:round; stroke-linejoin:round;">
<circle cx="28.0762" cy="7.0500" r="0.2667" /> 
</g>
<g style="fill:#000000; fill-opacity:1.0000; 
stroke:#000000; stroke-width:0.0212; stroke-opacity:1; 
stroke-linecap:round; stroke-linejoin:round;">
</g>
<g style="fill:#000000; fill-opacity:1.0000; 
stroke:#000000; stroke-width:0.0000; stroke-opacity:1; 
stroke-linecap:round; stroke-linejoin:round;">
<circle cx="29.1762" cy="7.0500" r="0.2667" /> 
</g>
<g style="fill:#000000; fill-opacity:1.0000; 
stroke:#000000; stroke-width:0.0212; stroke-opacity:1; 
stroke-linecap:round; stroke-linejoin:round;">
</g>
<g style="fill:#000000; fill-opacity:1.0000; 
stroke:#000000; stroke-width:0.0000; stroke-opacity:1; 
stroke-linecap:round; stroke-linejoin:round;">
<circle cx="30.2762" cy="7.0500" r="0.2667" /> 
</g>
<g style="fill:#000000; fill-opacity:1.0000; 
stroke:#000000; stroke-width:0.0212; stroke-opacity:1; 
stroke-linecap:round; stroke-linejoin:round;">
</g>
<g style="fill:#000000; fill-opacity:1.0000; 
stroke:#000000; stroke-width:0.0000; stroke-opacity:1; 
stroke-linecap:round; stroke-linejoin:round;">
<circle cx="35.7762" cy="7.0500" r="0.2667" /> 
</g>
<g style="fill:#000000; fill-opacity:1.0000; 
stroke:#000000; stroke-width:0.0212; stroke-opacity:1; 
stroke-linecap:round; stroke-linejoin:round;">
</g>
<g style="fill:#000000; fill-opacity:1.0000; 
stroke:#000000; stroke-width:0.0000; stroke-opacity:1; 
stroke-linecap:round; stroke-linejoin:round;">
<circle cx="36.8762" cy="7.0500" r="0.2667" /> 
</g>
<g style="fill:#000000; fill-opacity:1.0000; 
stroke:#000000; stroke-width:0.0212; stroke-opacity:1; 
stroke-linecap:round; stroke-linejoin:round;">
</g>
<g style="fill:#000000; fill-opacity:1.0000; 
stroke:#000000; stroke-width:0.0000; stroke-opacity:1; 
stroke-linecap:round; stroke-linejoin:round;">
<circle cx="37.9762" cy="7.0500" r="0.2667" /> 
</g>
<g style="fill:#000000; fill-opacity:1.0000; 
stroke:#000000; stroke-width:0.0212; stroke-opacity:1; 
stroke-linecap:round; stroke-linejoin:round;">
</g>
<g style="fill:#000000; fill-opacity:1.0000; 
stroke:#000000; stroke-width:0.0000; stroke-opacity:1; 
stroke-linecap:round; stroke-linejoin:round;">
<circle cx="3.2512" cy="5.5350" r="0.5080" /> 
</g>
<g style="fill:#000000; fill-opacity:1.0000; 
stroke:#000000; stroke-width:0.0212; stroke-opacity:1; 
stroke-linecap:round; stroke-linejoin:round;">
</g>
<g style="fill:#000000; fill-opacity:1.0000; 
stroke:#000000; stroke-width:0.0000; stroke-opacity:1; 
stroke-linecap:round; stroke-linejoin:round;">
<circle cx="3.2512" cy="8.0750" r="0.5080" /> 
</g>
<g style="fill:#000000; fill-opacity:1.0000; 
stroke:#000000; stroke-width:0.0212; stroke-opacity:1; 
stroke-linecap:round; stroke-linejoin:round;">
</g>
<g style="fill:#FFFFFF; fill-opacity:1.0000; 
stroke:#FFFFFF; stroke-width:0.0212; stroke-opacity:1; 
stroke-linecap:round; stroke-linejoin:round;">
</g>
<g style="fill:#3D3D3D; fill-opacity:1.0000; 
stroke:#3D3D3D; stroke-width:0.0212; stroke-opacity:1; 
stroke-linecap:round; stroke-linejoin:round;">
</g>
<g style="fill:#3D3D3D; fill-opacity:1.0000; 
stroke:#3D3D3D; stroke-width:0.1524; stroke-opacity:1; 
stroke-linecap:round; stroke-linejoin:round;">
</g>
<g style="fill:#3D3D3D; fill-opacity:0.0; 
stroke:#3D3D3D; stroke-width:0.1524; stroke-opacity:1; 
stroke-linecap:round; stroke-linejoin:round;">
<path d="M3.7592 4.2650
L3.7592 9.3450
" />
<path d="M0.2032 4.2650
L3.7592 4.2650
" />
<path d="M3.7592 9.3450
L0.2032 9.3450
" />
<path d="M0.2032 9.3450
L0.2032 4.2650
" />
<circle cx="3.2512" cy="3.5030" r="0.3810" /> 
<g >
</g>
<g >
</g>
<g >
</g>
<g >
</g>
<g >
</g>
<g >
</g>
<g >
</g>
</g>
<g style="fill:#FFFFFF; fill-opacity:0.0; 
stroke:#FFFFFF; stroke-width:0.1524; stroke-opacity:1; 
stroke-linecap:round; stroke-linejoin:round;">
</g>
<g style="fill:#2F2D31; fill-opacity:0.0; 
stroke:#2F2D31; stroke-width:0.1524; stroke-opacity:1; 
stroke-linecap:round; stroke-linejoin:round;">
</g>
<g style="fill:#2F2D31; fill-opacity:0.0; 
stroke:#2F2D31; stroke-width:0.1500; stroke-opacity:1; 
stroke-linecap:round; stroke-linejoin:round;">
<path d="M0.2512 14.0750
L44.2512 14.0750
" />
<path d="M0.2512 0.0750
L0.2512 14.0750
" />
<path d="M44.2512 14.0750
L44.2512 0.0750
" />
<path d="M44.2512 0.0750
L0.2512 0.0750
" />
<g >
</g>
<g >
</g>
<g >
</g>
<g >
</g>
<g >
</g>
<g >
</g>
<g >
</g>
</g> 
</svg>
