<?xml version="1.0" standalone="no"?>
 <!DOCTYPE svg PUBLIC "-//W3C//DTD SVG 1.1//EN" 
 "http://www.w3.org/Graphics/SVG/1.1/DTD/svg11.dtd"> 
<svg
  xmlns:svg="http://www.w3.org/2000/svg"
  xmlns="http://www.w3.org/2000/svg"
  xmlns:xlink="http://www.w3.org/1999/xlink"
  version="1.1"
  width="38.6080mm" height="34.5440mm" viewBox="0.0000 0.0000 38.6080 34.5440">
<title>SVG Image created as working-brd.svg date 2023/09/27 17:34:34 </title>
  <desc>Image generated by PCBNEW </desc>
<g style="fill:#000000; fill-opacity:1.0000;stroke:#000000; stroke-opacity:1.0000;
stroke-linecap:round; stroke-linejoin:round;"
 transform="translate(0 0) scale(1 1)">
</g>
<g style="fill:#000000; fill-opacity:0.0; 
stroke:#000000; stroke-width:0.0000; stroke-opacity:1; 
stroke-linecap:round; stroke-linejoin:round;">
</g>
<g style="fill:#000000; fill-opacity:1.0000; 
stroke:#000000; stroke-width:0.0212; stroke-opacity:1; 
stroke-linecap:round; stroke-linejoin:round;">
<rect x="-5.000000" y="-5.000000" width="48.608000" height="44.553764" rx="0.000000" />
</g>
<g style="fill:#FFFFFF; fill-opacity:1.0000; 
stroke:#FFFFFF; stroke-width:0.0212; stroke-opacity:1; 
stroke-linecap:round; stroke-linejoin:round;">
<g >
</g>
<g style="fill:#B2803A; fill-opacity:1.0000; 
stroke:#B2803A; stroke-width:0.0212; stroke-opacity:1; 
stroke-linecap:round; stroke-linejoin:round;">
</g>
<g style="fill:#B2803A; fill-opacity:1.0000; 
stroke:#B2803A; stroke-width:0.0000; stroke-opacity:1; 
stroke-linecap:round; stroke-linejoin:round;">
<path style="fill:#B2803A; fill-opacity:1.0000; 
stroke:#B2803A; stroke-width:0.0000; stroke-opacity:1; 
stroke-linecap:round; stroke-linejoin:round;fill-rule:evenodd;"
d="M 21.3320,7.4424
21.4277,7.4614
21.5088,7.5156
21.5630,7.5967
21.5820,7.6924
21.5820,8.1924
21.5630,8.2881
21.5088,8.3692
21.4277,8.4234
21.3320,8.4424
20.8320,8.4424
20.7363,8.4234
20.6552,8.3692
20.6010,8.2881
20.5820,8.1924
20.5820,7.6924
20.6010,7.5967
20.6552,7.5156
20.7363,7.4614
20.8320,7.4424
Z" /> 
<path style="fill:#B2803A; fill-opacity:1.0000; 
stroke:#B2803A; stroke-width:0.0000; stroke-opacity:1; 
stroke-linecap:round; stroke-linejoin:round;fill-rule:evenodd;"
d="M 21.3320,8.7124
21.4277,8.7314
21.5088,8.7856
21.5630,8.8667
21.5820,8.9624
21.5820,9.4624
21.5630,9.5581
21.5088,9.6392
21.4277,9.6934
21.3320,9.7124
20.8320,9.7124
20.7363,9.6934
20.6552,9.6392
20.6010,9.5581
20.5820,9.4624
20.5820,8.9624
20.6010,8.8667
20.6552,8.7856
20.7363,8.7314
20.8320,8.7124
Z" /> 
<path style="fill:#B2803A; fill-opacity:1.0000; 
stroke:#B2803A; stroke-width:0.0000; stroke-opacity:1; 
stroke-linecap:round; stroke-linejoin:round;fill-rule:evenodd;"
d="M 20.0620,7.4424
20.1577,7.4614
20.2388,7.5156
20.2930,7.5967
20.3120,7.6924
20.3120,8.1924
20.2930,8.2881
20.2388,8.3692
20.1577,8.4234
20.0620,8.4424
19.5620,8.4424
19.4663,8.4234
19.3852,8.3692
19.3310,8.2881
19.3120,8.1924
19.3120,7.6924
19.3310,7.5967
19.3852,7.5156
19.4663,7.4614
19.5620,7.4424
Z" /> 
<path style="fill:#B2803A; fill-opacity:1.0000; 
stroke:#B2803A; stroke-width:0.0000; stroke-opacity:1; 
stroke-linecap:round; stroke-linejoin:round;fill-rule:evenodd;"
d="M 20.0620,8.7124
20.1577,8.7314
20.2388,8.7856
20.2930,8.8667
20.3120,8.9624
20.3120,9.4624
20.2930,9.5581
20.2388,9.6392
20.1577,9.6934
20.0620,9.7124
19.5620,9.7124
19.4663,9.6934
19.3852,9.6392
19.3310,9.5581
19.3120,9.4624
19.3120,8.9624
19.3310,8.8667
19.3852,8.7856
19.4663,8.7314
19.5620,8.7124
Z" /> 
<path style="fill:#B2803A; fill-opacity:1.0000; 
stroke:#B2803A; stroke-width:0.0000; stroke-opacity:1; 
stroke-linecap:round; stroke-linejoin:round;fill-rule:evenodd;"
d="M 18.0420,7.4424
18.0420,8.4424
19.0420,8.4424
19.0420,7.4424
Z" /> 
<path style="fill:#B2803A; fill-opacity:1.0000; 
stroke:#B2803A; stroke-width:0.0000; stroke-opacity:1; 
stroke-linecap:round; stroke-linejoin:round;fill-rule:evenodd;"
d="M 18.7920,8.7124
18.8877,8.7314
18.9688,8.7856
19.0230,8.8667
19.0420,8.9624
19.0420,9.4624
19.0230,9.5581
18.9688,9.6392
18.8877,9.6934
18.7920,9.7124
18.2920,9.7124
18.1963,9.6934
18.1152,9.6392
18.0610,9.5581
18.0420,9.4624
18.0420,8.9624
18.0610,8.8667
18.1152,8.7856
18.1963,8.7314
18.2920,8.7124
Z" /> 
<path style="fill:#B2803A; fill-opacity:1.0000; 
stroke:#B2803A; stroke-width:0.0000; stroke-opacity:1; 
stroke-linecap:round; stroke-linejoin:round;fill-rule:evenodd;"
d="M 16.7720,7.4424
16.7720,8.4424
17.7720,8.4424
17.7720,7.4424
Z" /> 
<path style="fill:#B2803A; fill-opacity:1.0000; 
stroke:#B2803A; stroke-width:0.0000; stroke-opacity:1; 
stroke-linecap:round; stroke-linejoin:round;fill-rule:evenodd;"
d="M 17.5220,8.7124
17.6177,8.7314
17.6988,8.7856
17.7530,8.8667
17.7720,8.9624
17.7720,9.4624
17.7530,9.5581
17.6988,9.6392
17.6177,9.6934
17.5220,9.7124
17.0220,9.7124
16.9263,9.6934
16.8452,9.6392
16.7910,9.5581
16.7720,9.4624
16.7720,8.9624
16.7910,8.8667
16.8452,8.7856
16.9263,8.7314
17.0220,8.7124
Z" /> 
<path style="fill:#B2803A; fill-opacity:1.0000; 
stroke:#B2803A; stroke-width:0.0000; stroke-opacity:1; 
stroke-linecap:round; stroke-linejoin:round;fill-rule:evenodd;"
d="M 16.2520,7.4424
16.3477,7.4614
16.4288,7.5156
16.4830,7.5967
16.5020,7.6924
16.5020,8.1924
16.4830,8.2881
16.4288,8.3692
16.3477,8.4234
16.2520,8.4424
15.7520,8.4424
15.6563,8.4234
15.5752,8.3692
15.5210,8.2881
15.5020,8.1924
15.5020,7.6924
15.5210,7.5967
15.5752,7.5156
15.6563,7.4614
15.7520,7.4424
Z" /> 
<path style="fill:#B2803A; fill-opacity:1.0000; 
stroke:#B2803A; stroke-width:0.0000; stroke-opacity:1; 
stroke-linecap:round; stroke-linejoin:round;fill-rule:evenodd;"
d="M 16.2520,8.7124
16.3477,8.7314
16.4288,8.7856
16.4830,8.8667
16.5020,8.9624
16.5020,9.4624
16.4830,9.5581
16.4288,9.6392
16.3477,9.6934
16.2520,9.7124
15.7520,9.7124
15.6563,9.6934
15.5752,9.6392
15.5210,9.5581
15.5020,9.4624
15.5020,8.9624
15.5210,8.8667
15.5752,8.7856
15.6563,8.7314
15.7520,8.7124
Z" /> 
<path style="fill:#B2803A; fill-opacity:1.0000; 
stroke:#B2803A; stroke-width:0.0000; stroke-opacity:1; 
stroke-linecap:round; stroke-linejoin:round;fill-rule:evenodd;"
d="M 14.9820,7.4424
15.0777,7.4614
15.1588,7.5156
15.2130,7.5967
15.2320,7.6924
15.2320,8.1924
15.2130,8.2881
15.1588,8.3692
15.0777,8.4234
14.9820,8.4424
14.4820,8.4424
14.3863,8.4234
14.3052,8.3692
14.2510,8.2881
14.2320,8.1924
14.2320,7.6924
14.2510,7.5967
14.3052,7.5156
14.3863,7.4614
14.4820,7.4424
Z" /> 
<path style="fill:#B2803A; fill-opacity:1.0000; 
stroke:#B2803A; stroke-width:0.0000; stroke-opacity:1; 
stroke-linecap:round; stroke-linejoin:round;fill-rule:evenodd;"
d="M 14.9820,8.7124
15.0777,8.7314
15.1588,8.7856
15.2130,8.8667
15.2320,8.9624
15.2320,9.4624
15.2130,9.5581
15.1588,9.6392
15.0777,9.6934
14.9820,9.7124
14.4820,9.7124
14.3863,9.6934
14.3052,9.6392
14.2510,9.5581
14.2320,9.4624
14.2320,8.9624
14.2510,8.8667
14.3052,8.7856
14.3863,8.7314
14.4820,8.7124
Z" /> 
<path style="fill:#B2803A; fill-opacity:1.0000; 
stroke:#B2803A; stroke-width:0.0000; stroke-opacity:1; 
stroke-linecap:round; stroke-linejoin:round;fill-rule:evenodd;"
d="M 13.7120,7.4424
13.8077,7.4614
13.8888,7.5156
13.9430,7.5967
13.9620,7.6924
13.9620,8.1924
13.9430,8.2881
13.8888,8.3692
13.8077,8.4234
13.7120,8.4424
13.2120,8.4424
13.1163,8.4234
13.0352,8.3692
12.9810,8.2881
12.9620,8.1924
12.9620,7.6924
12.9810,7.5967
13.0352,7.5156
13.1163,7.4614
13.2120,7.4424
Z" /> 
<path style="fill:#B2803A; fill-opacity:1.0000; 
stroke:#B2803A; stroke-width:0.0000; stroke-opacity:1; 
stroke-linecap:round; stroke-linejoin:round;fill-rule:evenodd;"
d="M 13.7120,8.7124
13.8077,8.7314
13.8888,8.7856
13.9430,8.8667
13.9620,8.9624
13.9620,9.4624
13.9430,9.5581
13.8888,9.6392
13.8077,9.6934
13.7120,9.7124
13.2120,9.7124
13.1163,9.6934
13.0352,9.6392
12.9810,9.5581
12.9620,9.4624
12.9620,8.9624
12.9810,8.8667
13.0352,8.7856
13.1163,8.7314
13.2120,8.7124
Z" /> 
</g>
<g >
</g>
<g style="fill:#B2803A; fill-opacity:1.0000; 
stroke:#B2803A; stroke-width:0.0000; stroke-opacity:1; 
stroke-linecap:round; stroke-linejoin:round;">
<path style="fill:#B2803A; fill-opacity:1.0000; 
stroke:#B2803A; stroke-width:0.0000; stroke-opacity:1; 
stroke-linecap:round; stroke-linejoin:round;fill-rule:evenodd;"
d="M 32.9320,7.7714
32.9528,7.6400
33.0132,7.5216
33.1072,7.4276
33.2257,7.3672
33.3570,7.3464
34.2070,7.3464
34.3383,7.3672
34.4568,7.4276
34.5508,7.5216
34.6112,7.6400
34.6320,7.7714
34.6320,8.6214
34.6112,8.7527
34.5508,8.8712
34.4568,8.9652
34.3383,9.0256
34.2070,9.0464
33.3570,9.0464
33.2257,9.0256
33.1072,8.9652
33.0132,8.8712
32.9528,8.7527
32.9320,8.6214
Z" /> 
<path style="fill:#B2803A; fill-opacity:1.0000; 
stroke:#B2803A; stroke-width:0.0000; stroke-opacity:1; 
stroke-linecap:round; stroke-linejoin:round;fill-rule:evenodd;"
d="M 32.9320,10.3114
32.9528,10.1800
33.0132,10.0616
33.1072,9.9675
33.2257,9.9072
33.3570,9.8864
34.2070,9.8864
34.3383,9.9072
34.4568,9.9675
34.5508,10.0616
34.6112,10.1800
34.6320,10.3114
34.6320,11.1614
34.6112,11.2927
34.5508,11.4112
34.4568,11.5052
34.3383,11.5656
34.2070,11.5864
33.3570,11.5864
33.2257,11.5656
33.1072,11.5052
33.0132,11.4112
32.9528,11.2927
32.9320,11.1614
Z" /> 
<path style="fill:#B2803A; fill-opacity:1.0000; 
stroke:#B2803A; stroke-width:0.0000; stroke-opacity:1; 
stroke-linecap:round; stroke-linejoin:round;fill-rule:evenodd;"
d="M 32.9320,14.1264
34.6320,14.1264
34.6320,12.4264
32.9320,12.4264
Z" /> 
<path style="fill:#B2803A; fill-opacity:1.0000; 
stroke:#B2803A; stroke-width:0.0000; stroke-opacity:1; 
stroke-linecap:round; stroke-linejoin:round;fill-rule:evenodd;"
d="M 32.9320,15.3914
32.9528,15.2600
33.0132,15.1416
33.1072,15.0475
33.2257,14.9872
33.3570,14.9664
34.2070,14.9664
34.3383,14.9872
34.4568,15.0475
34.5508,15.1416
34.6112,15.2600
34.6320,15.3914
34.6320,16.2414
34.6112,16.3727
34.5508,16.4912
34.4568,16.5852
34.3383,16.6456
34.2070,16.6664
33.3570,16.6664
33.2257,16.6456
33.1072,16.5852
33.0132,16.4912
32.9528,16.3727
32.9320,16.2414
Z" /> 
<path style="fill:#B2803A; fill-opacity:1.0000; 
stroke:#B2803A; stroke-width:0.0000; stroke-opacity:1; 
stroke-linecap:round; stroke-linejoin:round;fill-rule:evenodd;"
d="M 32.9320,17.9314
32.9528,17.8000
33.0132,17.6816
33.1072,17.5876
33.2257,17.5272
33.3570,17.5064
34.2070,17.5064
34.3383,17.5272
34.4568,17.5876
34.5508,17.6816
34.6112,17.8000
34.6320,17.9314
34.6320,18.7814
34.6112,18.9127
34.5508,19.0312
34.4568,19.1252
34.3383,19.1856
34.2070,19.2064
33.3570,19.2064
33.2257,19.1856
33.1072,19.1252
33.0132,19.0312
32.9528,18.9127
32.9320,18.7814
Z" /> 
<path style="fill:#B2803A; fill-opacity:1.0000; 
stroke:#B2803A; stroke-width:0.0000; stroke-opacity:1; 
stroke-linecap:round; stroke-linejoin:round;fill-rule:evenodd;"
d="M 32.9320,20.4714
32.9528,20.3400
33.0132,20.2216
33.1072,20.1275
33.2257,20.0672
33.3570,20.0464
34.2070,20.0464
34.3383,20.0672
34.4568,20.1275
34.5508,20.2216
34.6112,20.3400
34.6320,20.4714
34.6320,21.3214
34.6112,21.4527
34.5508,21.5712
34.4568,21.6652
34.3383,21.7256
34.2070,21.7464
33.3570,21.7464
33.2257,21.7256
33.1072,21.6652
33.0132,21.5712
32.9528,21.4527
32.9320,21.3214
Z" /> 
</g>
<g >
</g>
<g style="fill:#B2803A; fill-opacity:1.0000; 
stroke:#B2803A; stroke-width:0.0000; stroke-opacity:1; 
stroke-linecap:round; stroke-linejoin:round;">
<circle cx="28.7020" cy="24.7064" r="0.8500" /> 
<circle cx="28.7020" cy="27.2464" r="0.8500" /> 
<circle cx="26.1620" cy="24.7064" r="0.8500" /> 
<path style="fill:#B2803A; fill-opacity:1.0000; 
stroke:#B2803A; stroke-width:0.0000; stroke-opacity:1; 
stroke-linecap:round; stroke-linejoin:round;fill-rule:evenodd;"
d="M 25.3120,26.3964
27.0120,26.3964
27.0120,28.0964
25.3120,28.0964
Z" /> 
<circle cx="23.6220" cy="24.7064" r="0.8500" /> 
<path style="fill:#B2803A; fill-opacity:1.0000; 
stroke:#B2803A; stroke-width:0.0000; stroke-opacity:1; 
stroke-linecap:round; stroke-linejoin:round;fill-rule:evenodd;"
d="M 22.7720,26.3964
24.4720,26.3964
24.4720,28.0964
22.7720,28.0964
Z" /> 
<circle cx="21.0820" cy="24.7064" r="0.8500" /> 
<path style="fill:#B2803A; fill-opacity:1.0000; 
stroke:#B2803A; stroke-width:0.0000; stroke-opacity:1; 
stroke-linecap:round; stroke-linejoin:round;fill-rule:evenodd;"
d="M 20.2320,26.3964
21.9320,26.3964
21.9320,28.0964
20.2320,28.0964
Z" /> 
<circle cx="18.5420" cy="24.7064" r="0.8500" /> 
<path style="fill:#B2803A; fill-opacity:1.0000; 
stroke:#B2803A; stroke-width:0.0000; stroke-opacity:1; 
stroke-linecap:round; stroke-linejoin:round;fill-rule:evenodd;"
d="M 17.6920,26.3964
19.3920,26.3964
19.3920,28.0964
17.6920,28.0964
Z" /> 
<circle cx="16.0020" cy="24.7064" r="0.8500" /> 
<path style="fill:#B2803A; fill-opacity:1.0000; 
stroke:#B2803A; stroke-width:0.0000; stroke-opacity:1; 
stroke-linecap:round; stroke-linejoin:round;fill-rule:evenodd;"
d="M 15.1520,26.3964
16.8520,26.3964
16.8520,28.0964
15.1520,28.0964
Z" /> 
<circle cx="13.4620" cy="24.7064" r="0.8500" /> 
<path style="fill:#B2803A; fill-opacity:1.0000; 
stroke:#B2803A; stroke-width:0.0000; stroke-opacity:1; 
stroke-linecap:round; stroke-linejoin:round;fill-rule:evenodd;"
d="M 12.6120,26.3964
14.3120,26.3964
14.3120,28.0964
12.6120,28.0964
Z" /> 
<circle cx="10.9220" cy="24.7064" r="0.8500" /> 
<path style="fill:#B2803A; fill-opacity:1.0000; 
stroke:#B2803A; stroke-width:0.0000; stroke-opacity:1; 
stroke-linecap:round; stroke-linejoin:round;fill-rule:evenodd;"
d="M 10.0720,26.3964
11.7720,26.3964
11.7720,28.0964
10.0720,28.0964
Z" /> 
<circle cx="8.3820" cy="24.7064" r="0.8500" /> 
<path style="fill:#B2803A; fill-opacity:1.0000; 
stroke:#B2803A; stroke-width:0.0000; stroke-opacity:1; 
stroke-linecap:round; stroke-linejoin:round;fill-rule:evenodd;"
d="M 7.5320,26.3964
9.2320,26.3964
9.2320,28.0964
7.5320,28.0964
Z" /> 
<circle cx="5.8420" cy="24.7064" r="0.8500" /> 
<path style="fill:#B2803A; fill-opacity:1.0000; 
stroke:#B2803A; stroke-width:0.0000; stroke-opacity:1; 
stroke-linecap:round; stroke-linejoin:round;fill-rule:evenodd;"
d="M 4.9920,26.3964
6.6920,26.3964
6.6920,28.0964
4.9920,28.0964
Z" /> 
</g>
<g >
</g>
<g >
</g>
<g >
</g>
<g >
</g>
<g style="fill:#121212; fill-opacity:1.0000; 
stroke:#121212; stroke-width:0.0000; stroke-opacity:1; 
stroke-linecap:round; stroke-linejoin:round;">
<circle cx="16.0020" cy="17.0864" r="0.4000" /> 
</g>
<g style="fill:#121212; fill-opacity:1.0000; 
stroke:#121212; stroke-width:0.0212; stroke-opacity:1; 
stroke-linecap:round; stroke-linejoin:round;">
</g>
<g >
</g>
<g style="fill:#B2803A; fill-opacity:1.0000; 
stroke:#B2803A; stroke-width:0.0212; stroke-opacity:1; 
stroke-linecap:round; stroke-linejoin:round;">
</g>
<g style="fill:#B2803A; fill-opacity:1.0000; 
stroke:#B2803A; stroke-width:0.4000; stroke-opacity:1; 
stroke-linecap:round; stroke-linejoin:round;">
</g>
<g style="fill:#B2803A; fill-opacity:0.0; 
stroke:#B2803A; stroke-width:0.4000; stroke-opacity:1; 
stroke-linecap:round; stroke-linejoin:round;">
<path d="M13.4620 9.2124
L13.4620 9.9195
" />
<path d="M19.3589 15.8164
L33.7820 15.8164
" />
<path d="M13.4620 9.9195
L19.3589 15.8164
" />
<path d="M12.4460 9.7520
L21.0504 18.3564
" />
<path d="M21.0504 18.3564
L33.7820 18.3564
" />
<path d="M12.4460 8.2513
L12.4460 9.7520
" />
<path d="M13.4620 7.9424
L12.7549 7.9424
" />
<path d="M12.7549 7.9424
L12.4460 8.2513
" />
<path d="M11.8460 8.0027
L11.8460 10.0006
" />
<path d="M14.7320 7.2353
L14.5391 7.0424
" />
<path d="M14.5391 7.0424
L12.8064 7.0424
" />
<path d="M22.7418 20.8964
L33.7820 20.8964
" />
<path d="M14.7320 7.9424
L14.7320 7.2353
" />
<path d="M11.8460 10.0006
L22.7418 20.8964
" />
<path d="M12.8064 7.0424
L11.8460 8.0027
" />
<path d="M16.0020 17.0864
L23.6220 24.7064
" />
<path d="M16.0020 7.9424
L16.0020 7.2353
" />
<path d="M11.2460 19.9504
L16.0020 24.7064
" />
<path d="M11.2460 7.7542
L11.2460 19.9504
" />
<path d="M12.5578 6.4424
L11.2460 7.7542
" />
<path d="M15.2091 6.4424
L12.5578 6.4424
" />
<path d="M16.0020 7.2353
L15.2091 6.4424
" />
<path d="M10.9220 27.2464
L13.4620 27.2464
" />
<path d="M35.8140 23.1824
L35.8140 15.3084
" />
<path d="M5.8420 27.2464
L8.3820 27.2464
" />
<path d="M8.3820 27.2464
L10.9220 27.2464
" />
<path d="M18.5420 27.2464
L21.0820 27.2464
" />
<path d="M21.0820 27.2464
L23.6220 27.2464
" />
<path d="M26.1620 27.2464
L27.9400 29.0244
" />
<path d="M23.6220 27.2464
L26.1620 27.2464
" />
<path d="M27.9400 29.0244
L29.9720 29.0244
" />
<path d="M35.8140 15.3084
L33.7820 13.2764
" />
<path d="M16.0020 27.2464
L18.5420 27.2464
" />
<path d="M13.4620 27.2464
L16.0020 27.2464
" />
<path d="M29.9720 29.0244
L35.8140 23.1824
" />
<path d="M10.6460 19.9024
L5.8420 24.7064
" />
<path d="M10.6460 7.5057
L10.6460 19.9024
" />
<path d="M12.3093 5.8424
L10.6460 7.5057
" />
<path d="M31.4280 5.8424
L12.3093 5.8424
" />
<path d="M33.7820 8.1964
L31.4280 5.8424
" />
</g>
<g >
</g>
<g style="fill:#B2803A; fill-opacity:0.0; 
stroke:#B2803A; stroke-width:0.4000; stroke-opacity:1; 
stroke-linecap:round; stroke-linejoin:round;">
<g >
</g>
<g style="fill:#B2803A; fill-opacity:1.0000; 
stroke:#B2803A; stroke-width:0.0000; stroke-opacity:1; 
stroke-linecap:round; stroke-linejoin:round;">
<path style="fill:#B2803A; fill-opacity:1.0000; 
stroke:#B2803A; stroke-width:0.0000; stroke-opacity:1; 
stroke-linecap:round; stroke-linejoin:round;fill-rule:evenodd;"
d="M 7.8285,5.6483
7.8328,5.6485
7.8382,5.6489
7.8631,5.6489
7.9181,5.6513
7.9181,5.6513
7.9181,5.6513
7.9181,5.6513
7.9263,5.6506
7.9263,5.6507
7.9427,5.6489
11.1966,5.6489
11.2647,5.6689
11.3112,5.7225
11.3213,5.7928
11.2918,5.8574
11.2857,5.8640
10.1615,6.9882
10.1587,6.9908
10.1118,7.0324
10.0761,7.0840
10.0739,7.0871
10.0352,7.1364
10.0352,7.1365
10.0310,7.1458
10.0198,7.1656
10.0140,7.1740
9.9918,7.2326
9.9903,7.2362
9.9646,7.2933
9.9646,7.2934
9.9627,7.3034
9.9566,7.3253
9.9530,7.3349
9.9530,7.3349
9.9454,7.3971
9.9449,7.4009
9.9336,7.4626
9.9374,7.5252
9.9375,7.5290
9.9375,19.5567
9.9175,19.6249
9.9006,19.6458
6.2095,23.3369
6.1472,23.3709
6.0997,23.3721
6.0295,23.3604
5.9546,23.3479
5.7294,23.3479
5.5913,23.3709
5.5074,23.3849
5.5074,23.3849
5.2944,23.4580
5.2944,23.4580
5.0964,23.5652
5.0964,23.5652
4.9188,23.7035
4.7663,23.8691
4.7663,23.8691
4.6431,24.0576
4.5527,24.2638
4.5527,24.2638
4.4974,24.4820
4.4788,24.7064
4.4974,24.9308
4.5527,25.1490
4.5527,25.1490
4.6431,25.3552
4.7663,25.5436
4.7663,25.5437
4.9098,25.6996
4.9413,25.7633
4.9333,25.8338
4.8884,25.8888
4.8612,25.9030
4.7460,25.9459
4.7460,25.9459
4.6291,26.0335
4.5416,26.1504
4.5416,26.1504
4.4905,26.2873
4.4840,26.3478
4.4840,26.9924
5.4109,26.9924
5.3825,27.0365
5.3420,27.1745
5.3420,27.3183
5.3825,27.4562
5.4109,27.5004
4.4840,27.5004
4.4840,28.1450
4.4905,28.2055
4.5416,28.3423
4.5416,28.3423
4.6291,28.4593
4.7460,28.5468
4.8829,28.5979
4.9434,28.6044
4.9434,28.6044
5.5880,28.6044
5.5880,27.6801
5.6997,27.7311
5.8062,27.7464
5.8778,27.7464
5.9843,27.7311
6.0960,27.6801
6.0960,28.6044
6.7406,28.6044
6.7406,28.6044
6.8011,28.5979
6.9380,28.5468
6.9380,28.5468
7.0365,28.4731
7.1030,28.4483
7.1724,28.4633
7.1875,28.4731
7.2860,28.5468
7.2860,28.5468
7.4229,28.5979
7.4834,28.6044
7.4834,28.6044
8.1280,28.6044
8.1280,27.6801
8.2397,27.7311
8.3462,27.7464
8.4178,27.7464
8.5243,27.7311
8.6360,27.6801
8.6360,28.6044
9.2806,28.6044
9.2806,28.6044
9.3411,28.5979
9.4780,28.5468
9.4780,28.5468
9.5765,28.4731
9.6430,28.4483
9.7124,28.4633
9.7275,28.4731
9.8260,28.5468
9.8260,28.5468
9.9629,28.5979
10.0234,28.6044
10.0234,28.6044
10.6680,28.6044
10.6680,27.6801
10.7797,27.7311
10.8862,27.7464
10.9578,27.7464
11.0643,27.7311
11.1760,27.6801
11.1760,28.6044
11.8206,28.6044
11.8206,28.6044
11.8811,28.5979
12.0180,28.5468
12.0180,28.5468
12.1165,28.4731
12.1830,28.4483
12.2524,28.4633
12.2675,28.4731
12.3660,28.5468
12.3660,28.5468
12.5029,28.5979
12.5634,28.6044
12.5634,28.6044
13.2080,28.6044
13.2080,27.6801
13.3197,27.7311
13.4262,27.7464
13.4978,27.7464
13.6043,27.7311
13.7160,27.6801
13.7160,28.6044
14.3606,28.6044
14.3606,28.6044
14.4211,28.5979
14.5580,28.5468
14.5580,28.5468
14.6565,28.4731
14.7230,28.4483
14.7924,28.4633
14.8075,28.4731
14.9060,28.5468
14.9060,28.5468
15.0429,28.5979
15.1034,28.6044
15.1034,28.6044
15.7480,28.6044
15.7480,27.6801
15.8597,27.7311
15.9662,27.7464
16.0378,27.7464
16.1443,27.7311
16.2560,27.6801
16.2560,28.6044
16.9006,28.6044
16.9006,28.6044
16.9611,28.5979
17.0980,28.5468
17.0980,28.5468
17.1965,28.4731
17.2630,28.4483
17.3324,28.4633
17.3475,28.4731
17.4460,28.5468
17.4460,28.5468
17.5829,28.5979
17.6434,28.6044
17.6434,28.6044
18.2880,28.6044
18.2880,27.6801
18.3997,27.7311
18.5062,27.7464
18.5778,27.7464
18.6843,27.7311
18.7960,27.6801
18.7960,28.6044
19.4406,28.6044
19.4406,28.6044
19.5011,28.5979
19.6380,28.5468
19.6380,28.5468
19.7365,28.4731
19.8030,28.4483
19.8724,28.4633
19.8875,28.4731
19.9860,28.5468
19.9860,28.5468
20.1229,28.5979
20.1834,28.6044
20.1834,28.6044
20.8280,28.6044
20.8280,27.6801
20.9397,27.7311
21.0462,27.7464
21.1178,27.7464
21.2243,27.7311
21.3360,27.6801
21.3360,28.6044
21.9806,28.6044
21.9806,28.6044
22.0411,28.5979
22.1780,28.5468
22.1780,28.5468
22.2765,28.4731
22.3430,28.4483
22.4124,28.4633
22.4275,28.4731
22.5260,28.5468
22.5260,28.5468
22.6629,28.5979
22.7234,28.6044
22.7234,28.6044
23.3680,28.6044
23.3680,27.6801
23.4797,27.7311
23.5862,27.7464
23.6578,27.7464
23.7643,27.7311
23.8760,27.6801
23.8760,28.6044
24.5206,28.6044
24.5206,28.6044
24.5811,28.5979
24.7180,28.5468
24.7180,28.5468
24.8165,28.4731
24.8830,28.4483
24.9524,28.4633
24.9675,28.4731
25.0660,28.5468
25.0660,28.5468
25.2029,28.5979
25.2634,28.6044
25.2634,28.6044
25.9080,28.6044
25.9080,27.6801
26.0197,27.7311
26.1262,27.7464
26.1978,27.7464
26.3043,27.7311
26.4160,27.6801
26.4160,28.6044
27.0606,28.6044
27.0606,28.6044
27.1211,28.5979
27.2580,28.5468
27.2580,28.5468
27.3749,28.4593
27.4624,28.3423
27.5066,28.2239
27.5492,28.1671
27.6157,28.1423
27.6851,28.1574
27.7174,28.1826
27.7384,28.2055
27.7788,28.2493
27.8333,28.2918
27.9564,28.3876
28.1544,28.4947
28.1544,28.4947
28.1544,28.4947
28.2657,28.5329
28.3674,28.5678
28.5894,28.6049
28.5894,28.6049
28.8146,28.6049
28.8146,28.6049
29.0366,28.5678
29.2496,28.4947
29.4476,28.3876
29.6252,28.2493
29.7777,28.0836
29.9009,27.8952
29.9913,27.6890
30.0466,27.4707
30.0652,27.2464
30.0466,27.0220
29.9958,26.8214
29.9913,26.8038
29.9913,26.8038
29.9913,26.8038
29.9009,26.5976
29.8703,26.5509
29.7777,26.4091
29.7777,26.4091
29.6252,26.2435
29.5057,26.1504
29.4476,26.1052
29.4143,26.0872
29.3639,26.0372
29.3486,25.9679
29.3731,25.9013
29.4143,25.8656
29.4476,25.8476
29.6252,25.7093
29.7777,25.5436
29.9009,25.3552
29.9913,25.1490
30.0466,24.9307
30.0652,24.7064
30.0466,24.4820
29.9913,24.2638
29.9009,24.0576
29.8941,24.0473
29.7777,23.8691
29.7777,23.8691
29.6252,23.7035
29.5434,23.6398
29.4476,23.5652
29.2496,23.4580
29.2496,23.4580
29.2496,23.4580
29.0366,23.3849
29.0366,23.3849
28.9925,23.3776
28.8146,23.3479
28.5894,23.3479
28.4513,23.3709
28.3674,23.3849
28.3674,23.3849
28.1544,23.4580
28.1544,23.4580
27.9564,23.5652
27.9564,23.5652
27.7788,23.7035
27.6263,23.8691
27.5375,24.0050
27.4835,24.0511
27.4131,24.0607
27.3488,24.0307
27.3265,24.0050
27.2377,23.8691
27.0852,23.7035
27.0034,23.6398
26.9076,23.5652
26.7096,23.4580
26.7096,23.4580
26.7096,23.4580
26.4966,23.3849
26.4966,23.3849
26.4525,23.3776
26.2746,23.3479
26.0494,23.3479
25.9113,23.3709
25.8274,23.3849
25.8274,23.3849
25.6144,23.4580
25.6144,23.4580
25.4164,23.5652
25.4164,23.5652
25.2388,23.7035
25.0863,23.8691
24.9975,24.0050
24.9435,24.0511
24.8731,24.0607
24.8088,24.0307
24.7865,24.0050
24.6977,23.8691
24.5452,23.7035
24.4634,23.6398
24.3676,23.5652
24.1696,23.4580
24.1696,23.4580
24.1696,23.4580
23.9566,23.3849
23.9566,23.3849
23.9125,23.3776
23.7346,23.3479
23.5094,23.3479
23.4455,23.3585
23.3643,23.3721
23.2938,23.3636
23.2545,23.3369
16.9367,17.0191
16.9026,16.9568
16.9004,16.9431
16.8964,16.9051
16.8955,16.8965
16.8365,16.7148
16.7410,16.5494
16.7410,16.5494
16.7410,16.5494
16.6133,16.4075
16.4588,16.2953
16.2843,16.2176
16.0975,16.1779
15.9065,16.1779
15.7197,16.2176
15.5452,16.2953
15.3907,16.4075
15.2630,16.5494
15.2630,16.5494
15.1675,16.7148
15.1675,16.7148
15.1085,16.8965
15.0885,17.0864
15.1085,17.2763
15.1410,17.3765
15.1430,17.4474
15.1064,17.5082
15.0427,17.5396
14.9751,17.5327
14.7414,17.4410
14.7414,17.4410
14.4856,17.3826
14.2895,17.3679
14.2895,17.3679
14.1585,17.3679
14.1585,17.3679
13.9624,17.3826
13.7066,17.4410
13.7066,17.4410
13.4624,17.5368
13.4624,17.5368
13.2351,17.6680
13.0300,17.8316
12.8516,18.0239
12.8516,18.0239
12.7038,18.2407
12.7038,18.2407
12.5899,18.4771
12.5899,18.4771
12.5126,18.7278
12.4947,18.8467
12.4735,18.9872
12.4735,19.2496
12.4952,19.3937
12.5126,19.5090
12.5899,19.7597
12.5899,19.7597
12.7038,19.9961
12.7038,19.9961
12.8255,20.1747
12.8474,20.2422
12.8292,20.3108
12.7769,20.3588
12.7069,20.3708
12.6415,20.3431
12.6323,20.3347
11.9914,19.6938
11.9574,19.6315
11.9545,19.6047
11.9545,11.4152
11.9745,11.3471
12.0281,11.3006
12.0984,11.2905
12.1630,11.3200
12.1696,11.3261
22.2243,21.3809
22.2269,21.3836
22.2685,21.4306
22.3202,21.4662
22.3232,21.4685
22.3726,21.5072
22.3819,21.5113
22.4017,21.5225
22.4101,21.5283
22.4101,21.5283
22.4101,21.5283
22.4101,21.5283
22.4101,21.5283
22.4363,21.5382
22.4688,21.5506
22.4723,21.5520
22.5295,21.5778
22.5395,21.5796
22.5615,21.5857
22.5710,21.5893
22.5710,21.5893
22.6333,21.5969
22.6370,21.5975
22.6987,21.6088
22.7613,21.6050
22.7651,21.6049
32.3765,21.6049
32.4447,21.6249
32.4888,21.6737
32.5698,21.8326
32.5698,21.8326
32.6933,21.9851
32.8458,22.1086
32.8458,22.1086
32.8458,22.1086
33.0206,22.1977
33.2102,22.2485
33.2816,22.2541
33.2917,22.2549
33.2917,22.2549
33.2917,22.2549
33.7831,22.2549
34.2723,22.2549
34.3212,22.2510
34.3538,22.2485
34.5434,22.1977
34.7182,22.1086
34.7182,22.1086
34.7182,22.1086
34.8707,21.9851
34.9942,21.8326
34.9942,21.8326
34.9942,21.8326
35.0833,21.6578
35.1341,21.4682
35.1405,21.3867
35.1405,20.4060
35.1404,20.4052
35.1341,20.3245
35.0939,20.1747
35.0833,20.1350
34.9942,19.9602
34.9942,19.9602
34.9942,19.9602
34.8707,19.8077
34.8707,19.8077
34.7678,19.7243
34.7274,19.6659
34.7251,19.5949
34.7614,19.5340
34.7678,19.5285
34.8707,19.4451
34.9190,19.3855
34.9942,19.2926
34.9942,19.2926
34.9942,19.2926
35.0833,19.1178
35.1341,18.9282
35.1405,18.8467
35.1405,17.8660
35.1341,17.7845
35.0833,17.5950
34.9942,17.4202
34.9942,17.4202
34.9942,17.4202
34.8707,17.2677
34.8707,17.2677
34.7678,17.1843
34.7274,17.1259
34.7251,17.0549
34.7614,16.9940
34.7678,16.9885
34.8707,16.9051
34.9190,16.8455
34.9942,16.7526
34.9942,16.7526
34.9942,16.7526
35.0833,16.5778
35.1341,16.3882
35.1405,16.3067
35.1405,15.3260
35.1341,15.2445
35.0833,15.0550
34.9942,14.8802
34.8798,14.7388
34.8525,14.6733
34.8649,14.6034
34.9022,14.5587
34.9949,14.4893
35.0824,14.3723
35.0824,14.3723
35.1335,14.2355
35.1400,14.1750
35.1400,14.1750
35.1400,13.5304
34.2131,13.5304
34.2415,13.4862
34.2820,13.3483
34.2820,13.2045
34.2415,13.0665
34.2131,13.0224
35.1400,13.0224
35.1400,12.3778
35.1400,12.3778
35.1335,12.3173
35.0824,12.1804
35.0824,12.1804
34.9949,12.0635
34.9022,11.9941
34.8596,11.9372
34.8546,11.8664
34.8798,11.8139
34.9942,11.6726
35.0833,11.4978
35.1341,11.3082
35.1405,11.2267
35.1405,10.2460
35.1403,10.2432
35.1341,10.1645
35.1314,10.1545
35.0833,9.9750
34.9942,9.8002
34.9942,9.8002
34.9942,9.8002
34.8707,9.6477
34.8707,9.6477
34.7678,9.5643
34.7274,9.5059
34.7251,9.4349
34.7614,9.3740
34.7678,9.3685
34.8707,9.2851
34.9190,9.2255
34.9942,9.1326
34.9942,9.1326
34.9942,9.1326
35.0833,8.9578
35.1341,8.7682
35.1405,8.6867
35.1405,7.7060
35.1341,7.6245
35.0833,7.4350
34.9942,7.2602
34.9942,7.2602
34.9942,7.2602
34.8707,7.1077
34.7182,6.9842
34.7182,6.9842
34.5434,6.8951
34.3540,6.8443
34.3538,6.8443
34.2916,6.8394
34.2723,6.8379
34.2723,6.8379
33.4777,6.8379
33.4095,6.8179
33.3886,6.8010
32.4516,5.8640
32.4175,5.8017
32.4226,5.7308
32.4652,5.6740
32.5317,5.6492
32.5407,5.6489
36.2037,5.6489
36.2718,5.6689
36.3183,5.7225
36.3297,5.7748
36.3350,23.9429
36.3350,23.9444
36.3304,24.0576
36.3177,24.3729
36.3173,24.3780
36.2658,24.8013
36.2650,24.8063
36.1795,25.2240
36.1783,25.2289
36.0595,25.6384
36.0579,25.6432
36.0006,25.7939
35.9064,26.0417
35.9044,26.0464
35.7213,26.4315
35.7189,26.4360
35.5053,26.8050
35.5026,26.8093
35.2600,27.1599
35.2569,27.1640
34.9868,27.4939
34.9835,27.4977
34.6876,27.8047
34.6840,27.8082
34.3644,28.0904
34.3604,28.0936
34.0191,28.3491
34.0149,28.3520
33.6541,28.5792
33.6497,28.5817
33.2717,28.7791
33.2671,28.7812
32.8745,28.9474
32.8697,28.9492
32.4650,29.0833
32.4601,29.0847
32.0459,29.1856
32.0409,29.1866
31.6199,29.2538
31.6148,29.2544
31.1897,29.2875
31.1846,29.2877
31.0980,29.2874
30.7795,29.2864
30.7752,29.2863
30.7698,29.2859
30.7698,29.2859
30.7449,29.2859
30.6899,29.2835
30.6817,29.2842
30.6817,29.2841
30.6653,29.2859
2.4043,29.2859
2.3362,29.2659
2.2897,29.2122
2.2783,29.1599
2.2783,29.0833
2.2730,10.9904
2.2903,10.5618
2.2907,10.5568
2.3422,10.1335
2.3430,10.1285
2.4285,9.7108
2.4297,9.7059
2.5485,9.2964
2.5501,9.2916
2.7016,8.8930
2.7036,8.8883
2.8256,8.6319
2.8867,8.5033
2.8891,8.4988
3.1027,8.1298
3.1054,8.1255
3.3480,7.7749
3.3511,7.7708
3.6212,7.4409
3.6245,7.4371
3.9204,7.1300
3.9240,7.1266
4.2436,6.8443
4.2476,6.8411
4.5889,6.5856
4.5931,6.5828
4.9539,6.3556
4.9583,6.3531
5.3363,6.1557
5.3409,6.1535
5.7335,5.9873
5.7382,5.9855
6.1430,5.8515
6.1479,5.8501
6.5621,5.7492
6.5671,5.7482
6.9882,5.6809
6.9932,5.6803
7.4183,5.6473
7.4233,5.6471
Z" /> 
<path style="fill:#B2803A; fill-opacity:1.0000; 
stroke:#B2803A; stroke-width:0.0000; stroke-opacity:1; 
stroke-linecap:round; stroke-linejoin:round;fill-rule:evenodd;"
d="M 7.9225,27.0365
7.8820,27.1745
7.8820,27.3183
7.9225,27.4562
7.9509,27.5004
6.2731,27.5004
6.3015,27.4562
6.3420,27.3183
6.3420,27.1745
6.3015,27.0365
6.2731,26.9924
7.9509,26.9924
Z" /> 
<path style="fill:#B2803A; fill-opacity:1.0000; 
stroke:#B2803A; stroke-width:0.0000; stroke-opacity:1; 
stroke-linecap:round; stroke-linejoin:round;fill-rule:evenodd;"
d="M 10.4625,27.0365
10.4220,27.1745
10.4220,27.3183
10.4625,27.4562
10.4909,27.5004
8.8131,27.5004
8.8415,27.4562
8.8820,27.3183
8.8820,27.1745
8.8415,27.0365
8.8131,26.9924
10.4909,26.9924
Z" /> 
<path style="fill:#B2803A; fill-opacity:1.0000; 
stroke:#B2803A; stroke-width:0.0000; stroke-opacity:1; 
stroke-linecap:round; stroke-linejoin:round;fill-rule:evenodd;"
d="M 13.0025,27.0365
12.9620,27.1745
12.9620,27.3183
13.0025,27.4562
13.0309,27.5004
11.3531,27.5004
11.3815,27.4562
11.4220,27.3183
11.4220,27.1745
11.3815,27.0365
11.3531,26.9924
13.0309,26.9924
Z" /> 
<path style="fill:#B2803A; fill-opacity:1.0000; 
stroke:#B2803A; stroke-width:0.0000; stroke-opacity:1; 
stroke-linecap:round; stroke-linejoin:round;fill-rule:evenodd;"
d="M 15.5425,27.0365
15.5020,27.1745
15.5020,27.3183
15.5425,27.4562
15.5709,27.5004
13.8931,27.5004
13.9215,27.4562
13.9620,27.3183
13.9620,27.1745
13.9215,27.0365
13.8931,26.9924
15.5709,26.9924
Z" /> 
<path style="fill:#B2803A; fill-opacity:1.0000; 
stroke:#B2803A; stroke-width:0.0000; stroke-opacity:1; 
stroke-linecap:round; stroke-linejoin:round;fill-rule:evenodd;"
d="M 18.0825,27.0365
18.0420,27.1745
18.0420,27.3183
18.0825,27.4562
18.1109,27.5004
16.4331,27.5004
16.4615,27.4562
16.5020,27.3183
16.5020,27.1745
16.4615,27.0365
16.4331,26.9924
18.1109,26.9924
Z" /> 
<path style="fill:#B2803A; fill-opacity:1.0000; 
stroke:#B2803A; stroke-width:0.0000; stroke-opacity:1; 
stroke-linecap:round; stroke-linejoin:round;fill-rule:evenodd;"
d="M 20.6225,27.0365
20.5820,27.1745
20.5820,27.3183
20.6225,27.4562
20.6509,27.5004
18.9731,27.5004
19.0015,27.4562
19.0420,27.3183
19.0420,27.1745
19.0015,27.0365
18.9731,26.9924
20.6509,26.9924
Z" /> 
<path style="fill:#B2803A; fill-opacity:1.0000; 
stroke:#B2803A; stroke-width:0.0000; stroke-opacity:1; 
stroke-linecap:round; stroke-linejoin:round;fill-rule:evenodd;"
d="M 23.1625,27.0365
23.1220,27.1745
23.1220,27.3183
23.1625,27.4562
23.1909,27.5004
21.5131,27.5004
21.5415,27.4562
21.5820,27.3183
21.5820,27.1745
21.5415,27.0365
21.5131,26.9924
23.1909,26.9924
Z" /> 
<path style="fill:#B2803A; fill-opacity:1.0000; 
stroke:#B2803A; stroke-width:0.0000; stroke-opacity:1; 
stroke-linecap:round; stroke-linejoin:round;fill-rule:evenodd;"
d="M 25.7025,27.0365
25.6620,27.1745
25.6620,27.3183
25.7025,27.4562
25.7309,27.5004
24.0531,27.5004
24.0815,27.4562
24.1220,27.3183
24.1220,27.1745
24.0815,27.0365
24.0531,26.9924
25.7309,26.9924
Z" /> 
<path style="fill:#B2803A; fill-opacity:1.0000; 
stroke:#B2803A; stroke-width:0.0000; stroke-opacity:1; 
stroke-linecap:round; stroke-linejoin:round;fill-rule:evenodd;"
d="M 31.1504,6.5709
31.1714,6.5878
32.3866,7.8029
32.4206,7.8653
32.4235,7.8920
32.4235,8.6867
32.4299,8.7682
32.4807,8.9578
32.5698,9.1326
32.5698,9.1326
32.6933,9.2851
32.7962,9.3685
32.8366,9.4269
32.8389,9.4978
32.8026,9.5588
32.7962,9.5643
32.6933,9.6477
32.5698,9.8002
32.5698,9.8002
32.4807,9.9750
32.4329,10.1535
32.4299,10.1645
32.4263,10.2103
32.4235,10.2460
32.4235,11.2267
32.4299,11.3082
32.4807,11.4978
32.5698,11.6726
32.5698,11.6726
32.6842,11.8139
32.7115,11.8794
32.6991,11.9493
32.6618,11.9941
32.5691,12.0635
32.4816,12.1804
32.4816,12.1804
32.4305,12.3173
32.4240,12.3778
32.4240,13.0224
33.3509,13.0224
33.3225,13.0665
33.2820,13.2045
33.2820,13.3483
33.3225,13.4862
33.3509,13.5304
32.4240,13.5304
32.4240,14.1750
32.4305,14.2355
32.4816,14.3723
32.4816,14.3723
32.5691,14.4893
32.6618,14.5587
32.7044,14.6155
32.7094,14.6863
32.6842,14.7389
32.5698,14.8802
32.5698,14.8802
32.4888,15.0391
32.4401,15.0907
32.3765,15.1079
19.7046,15.1079
19.6364,15.0879
19.6155,15.0710
16.1740,11.6296
23.9035,11.6296
23.9426,11.8890
24.0199,12.1397
24.0199,12.1397
24.1338,12.3761
24.1338,12.3761
24.2816,12.5929
24.2816,12.5929
24.4600,12.7852
24.6651,12.9488
24.6651,12.9488
24.8924,13.0799
24.8924,13.0799
24.8924,13.0800
25.1366,13.1758
25.3924,13.2342
25.5444,13.2456
25.5885,13.2489
25.5885,13.2489
25.7195,13.2489
25.7605,13.2458
25.9156,13.2342
26.1714,13.1758
26.4156,13.0800
26.4156,13.0799
26.4156,13.0799
26.5292,13.0144
26.6429,12.9488
26.8480,12.7852
27.0264,12.5929
27.1742,12.3761
27.2881,12.1397
27.3019,12.0949
27.3654,11.8890
27.3654,11.8890
27.4045,11.6296
27.4045,11.3672
27.3654,11.1078
27.3654,11.1078
27.3654,11.1078
27.2881,10.8571
27.2881,10.8571
27.2347,10.7463
27.1742,10.6207
27.1742,10.6207
27.1742,10.6207
27.0264,10.4039
27.0264,10.4039
26.8480,10.2116
26.6429,10.0480
26.6429,10.0480
26.6429,10.0480
26.4156,9.9168
26.4156,9.9168
26.1714,9.8210
26.1714,9.8210
25.9156,9.7626
25.7195,9.7479
25.7195,9.7479
25.5885,9.7479
25.5885,9.7479
25.3924,9.7626
25.1366,9.8210
25.1366,9.8210
24.8924,9.9168
24.8924,9.9168
24.6651,10.0480
24.4600,10.2116
24.2816,10.4039
24.2816,10.4039
24.1338,10.6207
24.1338,10.6207
24.0199,10.8571
24.0199,10.8571
23.9426,11.1078
23.9035,11.3672
23.9035,11.6296
16.1740,11.6296
14.9776,10.4331
14.9436,10.3708
14.9487,10.3000
14.9912,10.2432
15.0539,10.2187
15.1364,10.2103
15.3047,10.1545
15.3047,10.1545
15.3114,10.1514
15.3125,10.1537
15.3693,10.1382
15.4216,10.1535
15.4226,10.1514
15.4293,10.1545
15.4293,10.1545
15.4293,10.1545
15.5976,10.2103
15.7015,10.2209
16.3025,10.2209
16.4064,10.2103
16.5747,10.1545
16.5747,10.1545
16.5814,10.1514
16.5825,10.1537
16.6393,10.1382
16.6916,10.1535
16.6926,10.1514
16.6993,10.1545
16.6993,10.1545
16.6993,10.1545
16.8676,10.2103
16.9715,10.2209
17.5725,10.2209
17.6764,10.2103
17.8447,10.1545
17.8447,10.1545
17.8514,10.1514
17.8525,10.1537
17.9093,10.1382
17.9616,10.1535
17.9626,10.1514
17.9693,10.1545
17.9693,10.1545
17.9693,10.1545
18.1376,10.2103
18.2415,10.2209
18.8425,10.2209
18.9464,10.2103
19.1147,10.1545
19.1147,10.1545
19.1214,10.1514
19.1225,10.1537
19.1793,10.1382
19.2316,10.1535
19.2326,10.1514
19.2393,10.1545
19.2393,10.1545
19.2393,10.1545
19.4076,10.2103
19.5115,10.2209
20.1125,10.2209
20.2164,10.2103
20.3847,10.1545
20.3847,10.1545
20.3914,10.1514
20.3925,10.1537
20.4493,10.1382
20.5016,10.1535
20.5026,10.1514
20.5093,10.1545
20.5093,10.1545
20.5093,10.1545
20.6776,10.2103
20.7815,10.2209
21.3825,10.2209
21.4864,10.2103
21.6547,10.1545
21.8057,10.0614
21.9310,9.9360
22.0241,9.7851
22.0799,9.6168
22.0905,9.5129
22.0905,8.9118
22.0799,8.8080
22.0241,8.6396
22.0241,8.6396
22.0241,8.6396
22.0210,8.6330
22.0233,8.6319
22.0078,8.5751
22.0231,8.5228
22.0210,8.5218
22.0241,8.5151
22.0241,8.5151
22.0241,8.5151
22.0799,8.3468
22.0905,8.2429
22.0905,7.6418
22.0799,7.5380
22.0241,7.3696
21.9310,7.2187
21.9310,7.2187
21.9310,7.2187
21.8057,7.0934
21.8057,7.0934
21.7931,7.0856
21.6547,7.0003
21.5453,6.9640
21.4864,6.9445
21.4864,6.9445
21.3826,6.9339
20.7815,6.9339
20.6776,6.9445
20.6776,6.9445
20.5093,7.0003
20.5026,7.0034
20.5015,7.0011
20.4446,7.0166
20.3924,7.0013
20.3914,7.0034
20.3847,7.0003
20.3847,7.0003
20.3847,7.0003
20.2164,6.9445
20.2164,6.9445
20.1126,6.9339
19.5115,6.9339
19.4076,6.9445
19.3190,6.9738
19.2480,6.9763
19.2353,6.9723
19.1511,6.9409
19.0906,6.9344
18.7960,6.9344
18.7960,7.7395
18.7541,7.6896
18.6549,7.6323
18.5704,7.6174
18.5136,7.6174
18.4291,7.6323
18.3299,7.6896
18.2562,7.7774
18.2170,7.8851
18.2170,7.9997
18.2562,8.1074
18.3299,8.1952
18.3319,8.1964
17.4821,8.1964
17.4841,8.1952
17.5578,8.1074
17.5970,7.9997
17.5970,7.8851
17.5578,7.7774
17.4841,7.6896
17.3849,7.6323
17.3004,7.6174
17.2436,7.6174
17.1591,7.6323
17.0599,7.6896
17.0180,7.7395
17.0180,6.9344
17.5260,6.9344
17.5260,7.6884
18.2880,7.6884
18.2880,6.9344
17.9934,6.9344
17.9251,6.9417
17.9249,6.9402
17.8891,6.9402
17.8889,6.9417
17.8206,6.9344
17.5260,6.9344
17.0180,6.9344
16.7250,6.9344
16.6569,6.9144
16.6193,6.8710
16.6167,6.8726
16.6128,6.8661
16.5933,6.8411
16.5741,6.8167
16.5718,6.8136
16.5362,6.7620
16.5362,6.7620
16.5348,6.7604
16.5341,6.7590
16.5319,6.7557
16.5324,6.7554
16.5046,6.6962
16.5139,6.6258
16.5598,6.5716
16.6277,6.5509
16.6291,6.5509
31.0823,6.5509
Z" /> 
</g>
</g>
</g>
<g style="fill:#000000; fill-opacity:1.0000; 
stroke:#000000; stroke-width:0.0000; stroke-opacity:1; 
stroke-linecap:round; stroke-linejoin:round;">
<circle cx="16.0020" cy="17.0864" r="0.2000" /> 
</g>
<g style="fill:#000000; fill-opacity:1.0000; 
stroke:#000000; stroke-width:0.0212; stroke-opacity:1; 
stroke-linecap:round; stroke-linejoin:round;">
</g>
<g style="fill:#000000; fill-opacity:1.0000; 
stroke:#000000; stroke-width:0.0000; stroke-opacity:1; 
stroke-linecap:round; stroke-linejoin:round;">
<circle cx="21.0820" cy="7.9424" r="0.3250" /> 
</g>
<g style="fill:#000000; fill-opacity:1.0000; 
stroke:#000000; stroke-width:0.0212; stroke-opacity:1; 
stroke-linecap:round; stroke-linejoin:round;">
</g>
<g style="fill:#000000; fill-opacity:1.0000; 
stroke:#000000; stroke-width:0.0000; stroke-opacity:1; 
stroke-linecap:round; stroke-linejoin:round;">
<circle cx="21.0820" cy="9.2124" r="0.3250" /> 
</g>
<g style="fill:#000000; fill-opacity:1.0000; 
stroke:#000000; stroke-width:0.0212; stroke-opacity:1; 
stroke-linecap:round; stroke-linejoin:round;">
</g>
<g style="fill:#000000; fill-opacity:1.0000; 
stroke:#000000; stroke-width:0.0000; stroke-opacity:1; 
stroke-linecap:round; stroke-linejoin:round;">
<circle cx="19.8120" cy="7.9424" r="0.3250" /> 
</g>
<g style="fill:#000000; fill-opacity:1.0000; 
stroke:#000000; stroke-width:0.0212; stroke-opacity:1; 
stroke-linecap:round; stroke-linejoin:round;">
</g>
<g style="fill:#000000; fill-opacity:1.0000; 
stroke:#000000; stroke-width:0.0000; stroke-opacity:1; 
stroke-linecap:round; stroke-linejoin:round;">
<circle cx="19.8120" cy="9.2124" r="0.3250" /> 
</g>
<g style="fill:#000000; fill-opacity:1.0000; 
stroke:#000000; stroke-width:0.0212; stroke-opacity:1; 
stroke-linecap:round; stroke-linejoin:round;">
</g>
<g style="fill:#000000; fill-opacity:1.0000; 
stroke:#000000; stroke-width:0.0000; stroke-opacity:1; 
stroke-linecap:round; stroke-linejoin:round;">
<circle cx="18.5420" cy="7.9424" r="0.3250" /> 
</g>
<g style="fill:#000000; fill-opacity:1.0000; 
stroke:#000000; stroke-width:0.0212; stroke-opacity:1; 
stroke-linecap:round; stroke-linejoin:round;">
</g>
<g style="fill:#000000; fill-opacity:1.0000; 
stroke:#000000; stroke-width:0.0000; stroke-opacity:1; 
stroke-linecap:round; stroke-linejoin:round;">
<circle cx="18.5420" cy="9.2124" r="0.3250" /> 
</g>
<g style="fill:#000000; fill-opacity:1.0000; 
stroke:#000000; stroke-width:0.0212; stroke-opacity:1; 
stroke-linecap:round; stroke-linejoin:round;">
</g>
<g style="fill:#000000; fill-opacity:1.0000; 
stroke:#000000; stroke-width:0.0000; stroke-opacity:1; 
stroke-linecap:round; stroke-linejoin:round;">
<circle cx="17.2720" cy="7.9424" r="0.3250" /> 
</g>
<g style="fill:#000000; fill-opacity:1.0000; 
stroke:#000000; stroke-width:0.0212; stroke-opacity:1; 
stroke-linecap:round; stroke-linejoin:round;">
</g>
<g style="fill:#000000; fill-opacity:1.0000; 
stroke:#000000; stroke-width:0.0000; stroke-opacity:1; 
stroke-linecap:round; stroke-linejoin:round;">
<circle cx="17.2720" cy="9.2124" r="0.3250" /> 
</g>
<g style="fill:#000000; fill-opacity:1.0000; 
stroke:#000000; stroke-width:0.0212; stroke-opacity:1; 
stroke-linecap:round; stroke-linejoin:round;">
</g>
<g style="fill:#000000; fill-opacity:1.0000; 
stroke:#000000; stroke-width:0.0000; stroke-opacity:1; 
stroke-linecap:round; stroke-linejoin:round;">
<circle cx="16.0020" cy="7.9424" r="0.3250" /> 
</g>
<g style="fill:#000000; fill-opacity:1.0000; 
stroke:#000000; stroke-width:0.0212; stroke-opacity:1; 
stroke-linecap:round; stroke-linejoin:round;">
</g>
<g style="fill:#000000; fill-opacity:1.0000; 
stroke:#000000; stroke-width:0.0000; stroke-opacity:1; 
stroke-linecap:round; stroke-linejoin:round;">
<circle cx="16.0020" cy="9.2124" r="0.3250" /> 
</g>
<g style="fill:#000000; fill-opacity:1.0000; 
stroke:#000000; stroke-width:0.0212; stroke-opacity:1; 
stroke-linecap:round; stroke-linejoin:round;">
</g>
<g style="fill:#000000; fill-opacity:1.0000; 
stroke:#000000; stroke-width:0.0000; stroke-opacity:1; 
stroke-linecap:round; stroke-linejoin:round;">
<circle cx="14.7320" cy="7.9424" r="0.3250" /> 
</g>
<g style="fill:#000000; fill-opacity:1.0000; 
stroke:#000000; stroke-width:0.0212; stroke-opacity:1; 
stroke-linecap:round; stroke-linejoin:round;">
</g>
<g style="fill:#000000; fill-opacity:1.0000; 
stroke:#000000; stroke-width:0.0000; stroke-opacity:1; 
stroke-linecap:round; stroke-linejoin:round;">
<circle cx="14.7320" cy="9.2124" r="0.3250" /> 
</g>
<g style="fill:#000000; fill-opacity:1.0000; 
stroke:#000000; stroke-width:0.0212; stroke-opacity:1; 
stroke-linecap:round; stroke-linejoin:round;">
</g>
<g style="fill:#000000; fill-opacity:1.0000; 
stroke:#000000; stroke-width:0.0000; stroke-opacity:1; 
stroke-linecap:round; stroke-linejoin:round;">
<circle cx="13.4620" cy="7.9424" r="0.3250" /> 
</g>
<g style="fill:#000000; fill-opacity:1.0000; 
stroke:#000000; stroke-width:0.0212; stroke-opacity:1; 
stroke-linecap:round; stroke-linejoin:round;">
</g>
<g style="fill:#000000; fill-opacity:1.0000; 
stroke:#000000; stroke-width:0.0000; stroke-opacity:1; 
stroke-linecap:round; stroke-linejoin:round;">
<circle cx="13.4620" cy="9.2124" r="0.3250" /> 
</g>
<g style="fill:#000000; fill-opacity:1.0000; 
stroke:#000000; stroke-width:0.0212; stroke-opacity:1; 
stroke-linecap:round; stroke-linejoin:round;">
</g>
<g style="fill:#000000; fill-opacity:1.0000; 
stroke:#000000; stroke-width:0.0000; stroke-opacity:1; 
stroke-linecap:round; stroke-linejoin:round;">
<circle cx="33.7820" cy="8.1964" r="0.5000" /> 
</g>
<g style="fill:#000000; fill-opacity:1.0000; 
stroke:#000000; stroke-width:0.0212; stroke-opacity:1; 
stroke-linecap:round; stroke-linejoin:round;">
</g>
<g style="fill:#000000; fill-opacity:1.0000; 
stroke:#000000; stroke-width:0.0000; stroke-opacity:1; 
stroke-linecap:round; stroke-linejoin:round;">
<circle cx="33.7820" cy="10.7364" r="0.5000" /> 
</g>
<g style="fill:#000000; fill-opacity:1.0000; 
stroke:#000000; stroke-width:0.0212; stroke-opacity:1; 
stroke-linecap:round; stroke-linejoin:round;">
</g>
<g style="fill:#000000; fill-opacity:1.0000; 
stroke:#000000; stroke-width:0.0000; stroke-opacity:1; 
stroke-linecap:round; stroke-linejoin:round;">
<circle cx="33.7820" cy="13.2764" r="0.5000" /> 
</g>
<g style="fill:#000000; fill-opacity:1.0000; 
stroke:#000000; stroke-width:0.0212; stroke-opacity:1; 
stroke-linecap:round; stroke-linejoin:round;">
</g>
<g style="fill:#000000; fill-opacity:1.0000; 
stroke:#000000; stroke-width:0.0000; stroke-opacity:1; 
stroke-linecap:round; stroke-linejoin:round;">
<circle cx="33.7820" cy="15.8164" r="0.5000" /> 
</g>
<g style="fill:#000000; fill-opacity:1.0000; 
stroke:#000000; stroke-width:0.0212; stroke-opacity:1; 
stroke-linecap:round; stroke-linejoin:round;">
</g>
<g style="fill:#000000; fill-opacity:1.0000; 
stroke:#000000; stroke-width:0.0000; stroke-opacity:1; 
stroke-linecap:round; stroke-linejoin:round;">
<circle cx="33.7820" cy="18.3564" r="0.5000" /> 
</g>
<g style="fill:#000000; fill-opacity:1.0000; 
stroke:#000000; stroke-width:0.0212; stroke-opacity:1; 
stroke-linecap:round; stroke-linejoin:round;">
</g>
<g style="fill:#000000; fill-opacity:1.0000; 
stroke:#000000; stroke-width:0.0000; stroke-opacity:1; 
stroke-linecap:round; stroke-linejoin:round;">
<circle cx="33.7820" cy="20.8964" r="0.5000" /> 
</g>
<g style="fill:#000000; fill-opacity:1.0000; 
stroke:#000000; stroke-width:0.0212; stroke-opacity:1; 
stroke-linecap:round; stroke-linejoin:round;">
</g>
<g style="fill:#000000; fill-opacity:1.0000; 
stroke:#000000; stroke-width:0.0000; stroke-opacity:1; 
stroke-linecap:round; stroke-linejoin:round;">
<circle cx="28.7020" cy="24.7064" r="0.5000" /> 
</g>
<g style="fill:#000000; fill-opacity:1.0000; 
stroke:#000000; stroke-width:0.0212; stroke-opacity:1; 
stroke-linecap:round; stroke-linejoin:round;">
</g>
<g style="fill:#000000; fill-opacity:1.0000; 
stroke:#000000; stroke-width:0.0000; stroke-opacity:1; 
stroke-linecap:round; stroke-linejoin:round;">
<circle cx="28.7020" cy="27.2464" r="0.5000" /> 
</g>
<g style="fill:#000000; fill-opacity:1.0000; 
stroke:#000000; stroke-width:0.0212; stroke-opacity:1; 
stroke-linecap:round; stroke-linejoin:round;">
</g>
<g style="fill:#000000; fill-opacity:1.0000; 
stroke:#000000; stroke-width:0.0000; stroke-opacity:1; 
stroke-linecap:round; stroke-linejoin:round;">
<circle cx="26.1620" cy="24.7064" r="0.5000" /> 
</g>
<g style="fill:#000000; fill-opacity:1.0000; 
stroke:#000000; stroke-width:0.0212; stroke-opacity:1; 
stroke-linecap:round; stroke-linejoin:round;">
</g>
<g style="fill:#000000; fill-opacity:1.0000; 
stroke:#000000; stroke-width:0.0000; stroke-opacity:1; 
stroke-linecap:round; stroke-linejoin:round;">
<circle cx="26.1620" cy="27.2464" r="0.5000" /> 
</g>
<g style="fill:#000000; fill-opacity:1.0000; 
stroke:#000000; stroke-width:0.0212; stroke-opacity:1; 
stroke-linecap:round; stroke-linejoin:round;">
</g>
<g style="fill:#000000; fill-opacity:1.0000; 
stroke:#000000; stroke-width:0.0000; stroke-opacity:1; 
stroke-linecap:round; stroke-linejoin:round;">
<circle cx="23.6220" cy="24.7064" r="0.5000" /> 
</g>
<g style="fill:#000000; fill-opacity:1.0000; 
stroke:#000000; stroke-width:0.0212; stroke-opacity:1; 
stroke-linecap:round; stroke-linejoin:round;">
</g>
<g style="fill:#000000; fill-opacity:1.0000; 
stroke:#000000; stroke-width:0.0000; stroke-opacity:1; 
stroke-linecap:round; stroke-linejoin:round;">
<circle cx="23.6220" cy="27.2464" r="0.5000" /> 
</g>
<g style="fill:#000000; fill-opacity:1.0000; 
stroke:#000000; stroke-width:0.0212; stroke-opacity:1; 
stroke-linecap:round; stroke-linejoin:round;">
</g>
<g style="fill:#000000; fill-opacity:1.0000; 
stroke:#000000; stroke-width:0.0000; stroke-opacity:1; 
stroke-linecap:round; stroke-linejoin:round;">
<circle cx="21.0820" cy="24.7064" r="0.5000" /> 
</g>
<g style="fill:#000000; fill-opacity:1.0000; 
stroke:#000000; stroke-width:0.0212; stroke-opacity:1; 
stroke-linecap:round; stroke-linejoin:round;">
</g>
<g style="fill:#000000; fill-opacity:1.0000; 
stroke:#000000; stroke-width:0.0000; stroke-opacity:1; 
stroke-linecap:round; stroke-linejoin:round;">
<circle cx="21.0820" cy="27.2464" r="0.5000" /> 
</g>
<g style="fill:#000000; fill-opacity:1.0000; 
stroke:#000000; stroke-width:0.0212; stroke-opacity:1; 
stroke-linecap:round; stroke-linejoin:round;">
</g>
<g style="fill:#000000; fill-opacity:1.0000; 
stroke:#000000; stroke-width:0.0000; stroke-opacity:1; 
stroke-linecap:round; stroke-linejoin:round;">
<circle cx="18.5420" cy="24.7064" r="0.5000" /> 
</g>
<g style="fill:#000000; fill-opacity:1.0000; 
stroke:#000000; stroke-width:0.0212; stroke-opacity:1; 
stroke-linecap:round; stroke-linejoin:round;">
</g>
<g style="fill:#000000; fill-opacity:1.0000; 
stroke:#000000; stroke-width:0.0000; stroke-opacity:1; 
stroke-linecap:round; stroke-linejoin:round;">
<circle cx="18.5420" cy="27.2464" r="0.5000" /> 
</g>
<g style="fill:#000000; fill-opacity:1.0000; 
stroke:#000000; stroke-width:0.0212; stroke-opacity:1; 
stroke-linecap:round; stroke-linejoin:round;">
</g>
<g style="fill:#000000; fill-opacity:1.0000; 
stroke:#000000; stroke-width:0.0000; stroke-opacity:1; 
stroke-linecap:round; stroke-linejoin:round;">
<circle cx="16.0020" cy="24.7064" r="0.5000" /> 
</g>
<g style="fill:#000000; fill-opacity:1.0000; 
stroke:#000000; stroke-width:0.0212; stroke-opacity:1; 
stroke-linecap:round; stroke-linejoin:round;">
</g>
<g style="fill:#000000; fill-opacity:1.0000; 
stroke:#000000; stroke-width:0.0000; stroke-opacity:1; 
stroke-linecap:round; stroke-linejoin:round;">
<circle cx="16.0020" cy="27.2464" r="0.5000" /> 
</g>
<g style="fill:#000000; fill-opacity:1.0000; 
stroke:#000000; stroke-width:0.0212; stroke-opacity:1; 
stroke-linecap:round; stroke-linejoin:round;">
</g>
<g style="fill:#000000; fill-opacity:1.0000; 
stroke:#000000; stroke-width:0.0000; stroke-opacity:1; 
stroke-linecap:round; stroke-linejoin:round;">
<circle cx="13.4620" cy="24.7064" r="0.5000" /> 
</g>
<g style="fill:#000000; fill-opacity:1.0000; 
stroke:#000000; stroke-width:0.0212; stroke-opacity:1; 
stroke-linecap:round; stroke-linejoin:round;">
</g>
<g style="fill:#000000; fill-opacity:1.0000; 
stroke:#000000; stroke-width:0.0000; stroke-opacity:1; 
stroke-linecap:round; stroke-linejoin:round;">
<circle cx="13.4620" cy="27.2464" r="0.5000" /> 
</g>
<g style="fill:#000000; fill-opacity:1.0000; 
stroke:#000000; stroke-width:0.0212; stroke-opacity:1; 
stroke-linecap:round; stroke-linejoin:round;">
</g>
<g style="fill:#000000; fill-opacity:1.0000; 
stroke:#000000; stroke-width:0.0000; stroke-opacity:1; 
stroke-linecap:round; stroke-linejoin:round;">
<circle cx="10.9220" cy="24.7064" r="0.5000" /> 
</g>
<g style="fill:#000000; fill-opacity:1.0000; 
stroke:#000000; stroke-width:0.0212; stroke-opacity:1; 
stroke-linecap:round; stroke-linejoin:round;">
</g>
<g style="fill:#000000; fill-opacity:1.0000; 
stroke:#000000; stroke-width:0.0000; stroke-opacity:1; 
stroke-linecap:round; stroke-linejoin:round;">
<circle cx="10.9220" cy="27.2464" r="0.5000" /> 
</g>
<g style="fill:#000000; fill-opacity:1.0000; 
stroke:#000000; stroke-width:0.0212; stroke-opacity:1; 
stroke-linecap:round; stroke-linejoin:round;">
</g>
<g style="fill:#000000; fill-opacity:1.0000; 
stroke:#000000; stroke-width:0.0000; stroke-opacity:1; 
stroke-linecap:round; stroke-linejoin:round;">
<circle cx="8.3820" cy="24.7064" r="0.5000" /> 
</g>
<g style="fill:#000000; fill-opacity:1.0000; 
stroke:#000000; stroke-width:0.0212; stroke-opacity:1; 
stroke-linecap:round; stroke-linejoin:round;">
</g>
<g style="fill:#000000; fill-opacity:1.0000; 
stroke:#000000; stroke-width:0.0000; stroke-opacity:1; 
stroke-linecap:round; stroke-linejoin:round;">
<circle cx="8.3820" cy="27.2464" r="0.5000" /> 
</g>
<g style="fill:#000000; fill-opacity:1.0000; 
stroke:#000000; stroke-width:0.0212; stroke-opacity:1; 
stroke-linecap:round; stroke-linejoin:round;">
</g>
<g style="fill:#000000; fill-opacity:1.0000; 
stroke:#000000; stroke-width:0.0000; stroke-opacity:1; 
stroke-linecap:round; stroke-linejoin:round;">
<circle cx="5.8420" cy="24.7064" r="0.5000" /> 
</g>
<g style="fill:#000000; fill-opacity:1.0000; 
stroke:#000000; stroke-width:0.0212; stroke-opacity:1; 
stroke-linecap:round; stroke-linejoin:round;">
</g>
<g style="fill:#000000; fill-opacity:1.0000; 
stroke:#000000; stroke-width:0.0000; stroke-opacity:1; 
stroke-linecap:round; stroke-linejoin:round;">
<circle cx="5.8420" cy="27.2464" r="0.5000" /> 
</g>
<g style="fill:#000000; fill-opacity:1.0000; 
stroke:#000000; stroke-width:0.0212; stroke-opacity:1; 
stroke-linecap:round; stroke-linejoin:round;">
</g>
<g style="fill:#000000; fill-opacity:1.0000; 
stroke:#000000; stroke-width:0.0000; stroke-opacity:1; 
stroke-linecap:round; stroke-linejoin:round;">
<circle cx="14.2240" cy="19.1184" r="1.5000" /> 
</g>
<g style="fill:#000000; fill-opacity:1.0000; 
stroke:#000000; stroke-width:0.0212; stroke-opacity:1; 
stroke-linecap:round; stroke-linejoin:round;">
</g>
<g style="fill:#000000; fill-opacity:1.0000; 
stroke:#000000; stroke-width:0.0000; stroke-opacity:1; 
stroke-linecap:round; stroke-linejoin:round;">
<circle cx="25.6540" cy="11.4984" r="1.5000" /> 
</g>
<g style="fill:#000000; fill-opacity:1.0000; 
stroke:#000000; stroke-width:0.0212; stroke-opacity:1; 
stroke-linecap:round; stroke-linejoin:round;">
</g>
<g style="fill:#FFFFFF; fill-opacity:1.0000; 
stroke:#FFFFFF; stroke-width:0.0212; stroke-opacity:1; 
stroke-linecap:round; stroke-linejoin:round;">
<g >
</g>
<g style="fill:#37CBCB; fill-opacity:1.0000; 
stroke:#37CBCB; stroke-width:0.0212; stroke-opacity:1; 
stroke-linecap:round; stroke-linejoin:round;">
</g>
<g style="fill:#37CBCB; fill-opacity:1.0000; 
stroke:#37CBCB; stroke-width:0.0000; stroke-opacity:1; 
stroke-linecap:round; stroke-linejoin:round;">
<path style="fill:#37CBCB; fill-opacity:1.0000; 
stroke:#37CBCB; stroke-width:0.0000; stroke-opacity:1; 
stroke-linecap:round; stroke-linejoin:round;fill-rule:evenodd;"
d="M 21.3320,7.4424
21.4277,7.4614
21.5088,7.5156
21.5630,7.5967
21.5820,7.6924
21.5820,8.1924
21.5630,8.2881
21.5088,8.3692
21.4277,8.4234
21.3320,8.4424
20.8320,8.4424
20.7363,8.4234
20.6552,8.3692
20.6010,8.2881
20.5820,8.1924
20.5820,7.6924
20.6010,7.5967
20.6552,7.5156
20.7363,7.4614
20.8320,7.4424
Z" /> 
<path style="fill:#37CBCB; fill-opacity:1.0000; 
stroke:#37CBCB; stroke-width:0.0000; stroke-opacity:1; 
stroke-linecap:round; stroke-linejoin:round;fill-rule:evenodd;"
d="M 21.3320,8.7124
21.4277,8.7314
21.5088,8.7856
21.5630,8.8667
21.5820,8.9624
21.5820,9.4624
21.5630,9.5581
21.5088,9.6392
21.4277,9.6934
21.3320,9.7124
20.8320,9.7124
20.7363,9.6934
20.6552,9.6392
20.6010,9.5581
20.5820,9.4624
20.5820,8.9624
20.6010,8.8667
20.6552,8.7856
20.7363,8.7314
20.8320,8.7124
Z" /> 
<path style="fill:#37CBCB; fill-opacity:1.0000; 
stroke:#37CBCB; stroke-width:0.0000; stroke-opacity:1; 
stroke-linecap:round; stroke-linejoin:round;fill-rule:evenodd;"
d="M 20.0620,7.4424
20.1577,7.4614
20.2388,7.5156
20.2930,7.5967
20.3120,7.6924
20.3120,8.1924
20.2930,8.2881
20.2388,8.3692
20.1577,8.4234
20.0620,8.4424
19.5620,8.4424
19.4663,8.4234
19.3852,8.3692
19.3310,8.2881
19.3120,8.1924
19.3120,7.6924
19.3310,7.5967
19.3852,7.5156
19.4663,7.4614
19.5620,7.4424
Z" /> 
<path style="fill:#37CBCB; fill-opacity:1.0000; 
stroke:#37CBCB; stroke-width:0.0000; stroke-opacity:1; 
stroke-linecap:round; stroke-linejoin:round;fill-rule:evenodd;"
d="M 20.0620,8.7124
20.1577,8.7314
20.2388,8.7856
20.2930,8.8667
20.3120,8.9624
20.3120,9.4624
20.2930,9.5581
20.2388,9.6392
20.1577,9.6934
20.0620,9.7124
19.5620,9.7124
19.4663,9.6934
19.3852,9.6392
19.3310,9.5581
19.3120,9.4624
19.3120,8.9624
19.3310,8.8667
19.3852,8.7856
19.4663,8.7314
19.5620,8.7124
Z" /> 
<path style="fill:#37CBCB; fill-opacity:1.0000; 
stroke:#37CBCB; stroke-width:0.0000; stroke-opacity:1; 
stroke-linecap:round; stroke-linejoin:round;fill-rule:evenodd;"
d="M 18.0420,7.4424
18.0420,8.4424
19.0420,8.4424
19.0420,7.4424
Z" /> 
<path style="fill:#37CBCB; fill-opacity:1.0000; 
stroke:#37CBCB; stroke-width:0.0000; stroke-opacity:1; 
stroke-linecap:round; stroke-linejoin:round;fill-rule:evenodd;"
d="M 18.7920,8.7124
18.8877,8.7314
18.9688,8.7856
19.0230,8.8667
19.0420,8.9624
19.0420,9.4624
19.0230,9.5581
18.9688,9.6392
18.8877,9.6934
18.7920,9.7124
18.2920,9.7124
18.1963,9.6934
18.1152,9.6392
18.0610,9.5581
18.0420,9.4624
18.0420,8.9624
18.0610,8.8667
18.1152,8.7856
18.1963,8.7314
18.2920,8.7124
Z" /> 
<path style="fill:#37CBCB; fill-opacity:1.0000; 
stroke:#37CBCB; stroke-width:0.0000; stroke-opacity:1; 
stroke-linecap:round; stroke-linejoin:round;fill-rule:evenodd;"
d="M 16.7720,7.4424
16.7720,8.4424
17.7720,8.4424
17.7720,7.4424
Z" /> 
<path style="fill:#37CBCB; fill-opacity:1.0000; 
stroke:#37CBCB; stroke-width:0.0000; stroke-opacity:1; 
stroke-linecap:round; stroke-linejoin:round;fill-rule:evenodd;"
d="M 17.5220,8.7124
17.6177,8.7314
17.6988,8.7856
17.7530,8.8667
17.7720,8.9624
17.7720,9.4624
17.7530,9.5581
17.6988,9.6392
17.6177,9.6934
17.5220,9.7124
17.0220,9.7124
16.9263,9.6934
16.8452,9.6392
16.7910,9.5581
16.7720,9.4624
16.7720,8.9624
16.7910,8.8667
16.8452,8.7856
16.9263,8.7314
17.0220,8.7124
Z" /> 
<path style="fill:#37CBCB; fill-opacity:1.0000; 
stroke:#37CBCB; stroke-width:0.0000; stroke-opacity:1; 
stroke-linecap:round; stroke-linejoin:round;fill-rule:evenodd;"
d="M 16.2520,7.4424
16.3477,7.4614
16.4288,7.5156
16.4830,7.5967
16.5020,7.6924
16.5020,8.1924
16.4830,8.2881
16.4288,8.3692
16.3477,8.4234
16.2520,8.4424
15.7520,8.4424
15.6563,8.4234
15.5752,8.3692
15.5210,8.2881
15.5020,8.1924
15.5020,7.6924
15.5210,7.5967
15.5752,7.5156
15.6563,7.4614
15.7520,7.4424
Z" /> 
<path style="fill:#37CBCB; fill-opacity:1.0000; 
stroke:#37CBCB; stroke-width:0.0000; stroke-opacity:1; 
stroke-linecap:round; stroke-linejoin:round;fill-rule:evenodd;"
d="M 16.2520,8.7124
16.3477,8.7314
16.4288,8.7856
16.4830,8.8667
16.5020,8.9624
16.5020,9.4624
16.4830,9.5581
16.4288,9.6392
16.3477,9.6934
16.2520,9.7124
15.7520,9.7124
15.6563,9.6934
15.5752,9.6392
15.5210,9.5581
15.5020,9.4624
15.5020,8.9624
15.5210,8.8667
15.5752,8.7856
15.6563,8.7314
15.7520,8.7124
Z" /> 
<path style="fill:#37CBCB; fill-opacity:1.0000; 
stroke:#37CBCB; stroke-width:0.0000; stroke-opacity:1; 
stroke-linecap:round; stroke-linejoin:round;fill-rule:evenodd;"
d="M 14.9820,7.4424
15.0777,7.4614
15.1588,7.5156
15.2130,7.5967
15.2320,7.6924
15.2320,8.1924
15.2130,8.2881
15.1588,8.3692
15.0777,8.4234
14.9820,8.4424
14.4820,8.4424
14.3863,8.4234
14.3052,8.3692
14.2510,8.2881
14.2320,8.1924
14.2320,7.6924
14.2510,7.5967
14.3052,7.5156
14.3863,7.4614
14.4820,7.4424
Z" /> 
<path style="fill:#37CBCB; fill-opacity:1.0000; 
stroke:#37CBCB; stroke-width:0.0000; stroke-opacity:1; 
stroke-linecap:round; stroke-linejoin:round;fill-rule:evenodd;"
d="M 14.9820,8.7124
15.0777,8.7314
15.1588,8.7856
15.2130,8.8667
15.2320,8.9624
15.2320,9.4624
15.2130,9.5581
15.1588,9.6392
15.0777,9.6934
14.9820,9.7124
14.4820,9.7124
14.3863,9.6934
14.3052,9.6392
14.2510,9.5581
14.2320,9.4624
14.2320,8.9624
14.2510,8.8667
14.3052,8.7856
14.3863,8.7314
14.4820,8.7124
Z" /> 
<path style="fill:#37CBCB; fill-opacity:1.0000; 
stroke:#37CBCB; stroke-width:0.0000; stroke-opacity:1; 
stroke-linecap:round; stroke-linejoin:round;fill-rule:evenodd;"
d="M 13.7120,7.4424
13.8077,7.4614
13.8888,7.5156
13.9430,7.5967
13.9620,7.6924
13.9620,8.1924
13.9430,8.2881
13.8888,8.3692
13.8077,8.4234
13.7120,8.4424
13.2120,8.4424
13.1163,8.4234
13.0352,8.3692
12.9810,8.2881
12.9620,8.1924
12.9620,7.6924
12.9810,7.5967
13.0352,7.5156
13.1163,7.4614
13.2120,7.4424
Z" /> 
<path style="fill:#37CBCB; fill-opacity:1.0000; 
stroke:#37CBCB; stroke-width:0.0000; stroke-opacity:1; 
stroke-linecap:round; stroke-linejoin:round;fill-rule:evenodd;"
d="M 13.7120,8.7124
13.8077,8.7314
13.8888,8.7856
13.9430,8.8667
13.9620,8.9624
13.9620,9.4624
13.9430,9.5581
13.8888,9.6392
13.8077,9.6934
13.7120,9.7124
13.2120,9.7124
13.1163,9.6934
13.0352,9.6392
12.9810,9.5581
12.9620,9.4624
12.9620,8.9624
12.9810,8.8667
13.0352,8.7856
13.1163,8.7314
13.2120,8.7124
Z" /> 
</g>
<g >
</g>
<g style="fill:#37CBCB; fill-opacity:1.0000; 
stroke:#37CBCB; stroke-width:0.0000; stroke-opacity:1; 
stroke-linecap:round; stroke-linejoin:round;">
<path style="fill:#37CBCB; fill-opacity:1.0000; 
stroke:#37CBCB; stroke-width:0.0000; stroke-opacity:1; 
stroke-linecap:round; stroke-linejoin:round;fill-rule:evenodd;"
d="M 32.9320,7.7714
32.9528,7.6400
33.0132,7.5216
33.1072,7.4276
33.2257,7.3672
33.3570,7.3464
34.2070,7.3464
34.3383,7.3672
34.4568,7.4276
34.5508,7.5216
34.6112,7.6400
34.6320,7.7714
34.6320,8.6214
34.6112,8.7527
34.5508,8.8712
34.4568,8.9652
34.3383,9.0256
34.2070,9.0464
33.3570,9.0464
33.2257,9.0256
33.1072,8.9652
33.0132,8.8712
32.9528,8.7527
32.9320,8.6214
Z" /> 
<path style="fill:#37CBCB; fill-opacity:1.0000; 
stroke:#37CBCB; stroke-width:0.0000; stroke-opacity:1; 
stroke-linecap:round; stroke-linejoin:round;fill-rule:evenodd;"
d="M 32.9320,10.3114
32.9528,10.1800
33.0132,10.0616
33.1072,9.9675
33.2257,9.9072
33.3570,9.8864
34.2070,9.8864
34.3383,9.9072
34.4568,9.9675
34.5508,10.0616
34.6112,10.1800
34.6320,10.3114
34.6320,11.1614
34.6112,11.2927
34.5508,11.4112
34.4568,11.5052
34.3383,11.5656
34.2070,11.5864
33.3570,11.5864
33.2257,11.5656
33.1072,11.5052
33.0132,11.4112
32.9528,11.2927
32.9320,11.1614
Z" /> 
<path style="fill:#37CBCB; fill-opacity:1.0000; 
stroke:#37CBCB; stroke-width:0.0000; stroke-opacity:1; 
stroke-linecap:round; stroke-linejoin:round;fill-rule:evenodd;"
d="M 32.9320,14.1264
34.6320,14.1264
34.6320,12.4264
32.9320,12.4264
Z" /> 
<path style="fill:#37CBCB; fill-opacity:1.0000; 
stroke:#37CBCB; stroke-width:0.0000; stroke-opacity:1; 
stroke-linecap:round; stroke-linejoin:round;fill-rule:evenodd;"
d="M 32.9320,15.3914
32.9528,15.2600
33.0132,15.1416
33.1072,15.0475
33.2257,14.9872
33.3570,14.9664
34.2070,14.9664
34.3383,14.9872
34.4568,15.0475
34.5508,15.1416
34.6112,15.2600
34.6320,15.3914
34.6320,16.2414
34.6112,16.3727
34.5508,16.4912
34.4568,16.5852
34.3383,16.6456
34.2070,16.6664
33.3570,16.6664
33.2257,16.6456
33.1072,16.5852
33.0132,16.4912
32.9528,16.3727
32.9320,16.2414
Z" /> 
<path style="fill:#37CBCB; fill-opacity:1.0000; 
stroke:#37CBCB; stroke-width:0.0000; stroke-opacity:1; 
stroke-linecap:round; stroke-linejoin:round;fill-rule:evenodd;"
d="M 32.9320,17.9314
32.9528,17.8000
33.0132,17.6816
33.1072,17.5876
33.2257,17.5272
33.3570,17.5064
34.2070,17.5064
34.3383,17.5272
34.4568,17.5876
34.5508,17.6816
34.6112,17.8000
34.6320,17.9314
34.6320,18.7814
34.6112,18.9127
34.5508,19.0312
34.4568,19.1252
34.3383,19.1856
34.2070,19.2064
33.3570,19.2064
33.2257,19.1856
33.1072,19.1252
33.0132,19.0312
32.9528,18.9127
32.9320,18.7814
Z" /> 
<path style="fill:#37CBCB; fill-opacity:1.0000; 
stroke:#37CBCB; stroke-width:0.0000; stroke-opacity:1; 
stroke-linecap:round; stroke-linejoin:round;fill-rule:evenodd;"
d="M 32.9320,20.4714
32.9528,20.3400
33.0132,20.2216
33.1072,20.1275
33.2257,20.0672
33.3570,20.0464
34.2070,20.0464
34.3383,20.0672
34.4568,20.1275
34.5508,20.2216
34.6112,20.3400
34.6320,20.4714
34.6320,21.3214
34.6112,21.4527
34.5508,21.5712
34.4568,21.6652
34.3383,21.7256
34.2070,21.7464
33.3570,21.7464
33.2257,21.7256
33.1072,21.6652
33.0132,21.5712
32.9528,21.4527
32.9320,21.3214
Z" /> 
</g>
<g >
</g>
<g style="fill:#37CBCB; fill-opacity:1.0000; 
stroke:#37CBCB; stroke-width:0.0000; stroke-opacity:1; 
stroke-linecap:round; stroke-linejoin:round;">
<circle cx="28.7020" cy="24.7064" r="0.8500" /> 
<circle cx="28.7020" cy="27.2464" r="0.8500" /> 
<circle cx="26.1620" cy="24.7064" r="0.8500" /> 
<path style="fill:#37CBCB; fill-opacity:1.0000; 
stroke:#37CBCB; stroke-width:0.0000; stroke-opacity:1; 
stroke-linecap:round; stroke-linejoin:round;fill-rule:evenodd;"
d="M 25.3120,26.3964
27.0120,26.3964
27.0120,28.0964
25.3120,28.0964
Z" /> 
<circle cx="23.6220" cy="24.7064" r="0.8500" /> 
<path style="fill:#37CBCB; fill-opacity:1.0000; 
stroke:#37CBCB; stroke-width:0.0000; stroke-opacity:1; 
stroke-linecap:round; stroke-linejoin:round;fill-rule:evenodd;"
d="M 22.7720,26.3964
24.4720,26.3964
24.4720,28.0964
22.7720,28.0964
Z" /> 
<circle cx="21.0820" cy="24.7064" r="0.8500" /> 
<path style="fill:#37CBCB; fill-opacity:1.0000; 
stroke:#37CBCB; stroke-width:0.0000; stroke-opacity:1; 
stroke-linecap:round; stroke-linejoin:round;fill-rule:evenodd;"
d="M 20.2320,26.3964
21.9320,26.3964
21.9320,28.0964
20.2320,28.0964
Z" /> 
<circle cx="18.5420" cy="24.7064" r="0.8500" /> 
<path style="fill:#37CBCB; fill-opacity:1.0000; 
stroke:#37CBCB; stroke-width:0.0000; stroke-opacity:1; 
stroke-linecap:round; stroke-linejoin:round;fill-rule:evenodd;"
d="M 17.6920,26.3964
19.3920,26.3964
19.3920,28.0964
17.6920,28.0964
Z" /> 
<circle cx="16.0020" cy="24.7064" r="0.8500" /> 
<path style="fill:#37CBCB; fill-opacity:1.0000; 
stroke:#37CBCB; stroke-width:0.0000; stroke-opacity:1; 
stroke-linecap:round; stroke-linejoin:round;fill-rule:evenodd;"
d="M 15.1520,26.3964
16.8520,26.3964
16.8520,28.0964
15.1520,28.0964
Z" /> 
<circle cx="13.4620" cy="24.7064" r="0.8500" /> 
<path style="fill:#37CBCB; fill-opacity:1.0000; 
stroke:#37CBCB; stroke-width:0.0000; stroke-opacity:1; 
stroke-linecap:round; stroke-linejoin:round;fill-rule:evenodd;"
d="M 12.6120,26.3964
14.3120,26.3964
14.3120,28.0964
12.6120,28.0964
Z" /> 
<circle cx="10.9220" cy="24.7064" r="0.8500" /> 
<path style="fill:#37CBCB; fill-opacity:1.0000; 
stroke:#37CBCB; stroke-width:0.0000; stroke-opacity:1; 
stroke-linecap:round; stroke-linejoin:round;fill-rule:evenodd;"
d="M 10.0720,26.3964
11.7720,26.3964
11.7720,28.0964
10.0720,28.0964
Z" /> 
<circle cx="8.3820" cy="24.7064" r="0.8500" /> 
<path style="fill:#37CBCB; fill-opacity:1.0000; 
stroke:#37CBCB; stroke-width:0.0000; stroke-opacity:1; 
stroke-linecap:round; stroke-linejoin:round;fill-rule:evenodd;"
d="M 7.5320,26.3964
9.2320,26.3964
9.2320,28.0964
7.5320,28.0964
Z" /> 
<circle cx="5.8420" cy="24.7064" r="0.8500" /> 
<path style="fill:#37CBCB; fill-opacity:1.0000; 
stroke:#37CBCB; stroke-width:0.0000; stroke-opacity:1; 
stroke-linecap:round; stroke-linejoin:round;fill-rule:evenodd;"
d="M 4.9920,26.3964
6.6920,26.3964
6.6920,28.0964
4.9920,28.0964
Z" /> 
</g>
<g >
</g>
<g >
</g>
<g >
</g>
<g style="fill:#37CBCB; fill-opacity:1.0000; 
stroke:#37CBCB; stroke-width:0.0000; stroke-opacity:1; 
stroke-linecap:round; stroke-linejoin:round;">
<path style="fill:#37CBCB; fill-opacity:1.0000; 
stroke:#37CBCB; stroke-width:0.0000; stroke-opacity:1; 
stroke-linecap:round; stroke-linejoin:round;fill-rule:evenodd;"
d="M 7.5960,9.9924
8.5960,9.9924
8.5960,12.7924
7.5960,12.7924
Z" /> 
<path style="fill:#37CBCB; fill-opacity:1.0000; 
stroke:#37CBCB; stroke-width:0.0000; stroke-opacity:1; 
stroke-linecap:round; stroke-linejoin:round;fill-rule:evenodd;"
d="M 7.5960,15.7924
8.5960,15.7924
8.5960,18.5924
7.5960,18.5924
Z" /> 
<path style="fill:#37CBCB; fill-opacity:1.0000; 
stroke:#37CBCB; stroke-width:0.0000; stroke-opacity:1; 
stroke-linecap:round; stroke-linejoin:round;fill-rule:evenodd;"
d="M 3.5960,9.9924
4.5960,9.9924
4.5960,12.7924
3.5960,12.7924
Z" /> 
<path style="fill:#37CBCB; fill-opacity:1.0000; 
stroke:#37CBCB; stroke-width:0.0000; stroke-opacity:1; 
stroke-linecap:round; stroke-linejoin:round;fill-rule:evenodd;"
d="M 3.5960,15.7924
4.5960,15.7924
4.5960,18.5924
3.5960,18.5924
Z" /> 
</g>
<g >
</g>
<g style="fill:#121212; fill-opacity:1.0000; 
stroke:#121212; stroke-width:0.0000; stroke-opacity:1; 
stroke-linecap:round; stroke-linejoin:round;">
<circle cx="16.0020" cy="17.0864" r="0.4000" /> 
</g>
<g style="fill:#121212; fill-opacity:1.0000; 
stroke:#121212; stroke-width:0.0212; stroke-opacity:1; 
stroke-linecap:round; stroke-linejoin:round;">
</g>
<g >
</g>
<g style="fill:#37CBCB; fill-opacity:1.0000; 
stroke:#37CBCB; stroke-width:0.0212; stroke-opacity:1; 
stroke-linecap:round; stroke-linejoin:round;">
</g>
<g style="fill:#37CBCB; fill-opacity:1.0000; 
stroke:#37CBCB; stroke-width:0.4000; stroke-opacity:1; 
stroke-linecap:round; stroke-linejoin:round;">
</g>
<g style="fill:#37CBCB; fill-opacity:0.0; 
stroke:#37CBCB; stroke-width:0.4000; stroke-opacity:1; 
stroke-linecap:round; stroke-linejoin:round;">
<path d="M13.5520 10.8924
L14.7320 9.7124
" />
<path d="M8.0960 21.8804
L10.9220 24.7064
" />
<path d="M8.0960 10.8924
L13.5520 10.8924
" />
<path d="M8.0960 17.6924
L8.0960 21.8804
" />
<path d="M14.7320 9.7124
L14.7320 9.2124
" />
<path d="M8.0960 10.8924
L8.0960 17.6924
" />
<path d="M16.0020 9.2124
L16.0020 17.0864
" />
<path d="M17.2720 9.2124
L17.2720 20.8964
" />
<path d="M17.2720 20.8964
L13.4620 24.7064
" />
<path d="M4.0960 10.8924
L9.0780 5.9104
" />
<path d="M4.0960 25.5004
L5.8420 27.2464
" />
<path d="M9.0780 5.9104
L15.9471 5.9104
" />
<path d="M4.0960 17.6924
L4.0960 25.5004
" />
<path d="M4.0960 17.6924
L4.0960 10.8924
" />
<path d="M17.2720 7.2353
L17.2720 7.9424
" />
<path d="M17.2720 7.9424
L18.5420 7.9424
" />
<path d="M15.9471 5.9104
L17.2720 7.2353
" />
<path d="M18.5420 24.7064
L18.5420 9.2124
" />
<path d="M19.8120 9.2124
L19.8120 23.4364
" />
<path d="M19.8120 23.4364
L21.0820 24.7064
" />
<path d="M29.4640 6.4184
L33.7820 10.7364
" />
<path d="M35.8140 12.7684
L33.7820 10.7364
" />
<path d="M34.2900 24.7064
L35.8140 23.1824
" />
<path d="M35.8140 23.1824
L35.8140 12.7684
" />
<path d="M19.8120 7.2353
L20.6289 6.4184
" />
<path d="M20.6289 6.4184
L29.4640 6.4184
" />
<path d="M28.7020 24.7064
L34.2900 24.7064
" />
<path d="M19.8120 7.9424
L19.8120 7.2353
" />
</g>
<g >
</g>
<g style="fill:#37CBCB; fill-opacity:0.0; 
stroke:#37CBCB; stroke-width:0.4000; stroke-opacity:1; 
stroke-linecap:round; stroke-linejoin:round;">
<g >
</g>
<g style="fill:#37CBCB; fill-opacity:1.0000; 
stroke:#37CBCB; stroke-width:0.0000; stroke-opacity:1; 
stroke-linecap:round; stroke-linejoin:round;">
<path style="fill:#37CBCB; fill-opacity:1.0000; 
stroke:#37CBCB; stroke-width:0.0000; stroke-opacity:1; 
stroke-linecap:round; stroke-linejoin:round;fill-rule:evenodd;"
d="M 36.2718,5.6689
36.3183,5.7225
36.3297,5.7748
36.3350,23.9429
36.3350,23.9444
36.3304,24.0576
36.3177,24.3729
36.3173,24.3780
36.2658,24.8013
36.2650,24.8063
36.1795,25.2240
36.1783,25.2289
36.0595,25.6384
36.0579,25.6432
35.9624,25.8944
35.9064,26.0417
35.9044,26.0464
35.7213,26.4315
35.7189,26.4360
35.5053,26.8050
35.5026,26.8093
35.2600,27.1599
35.2569,27.1640
34.9868,27.4939
34.9835,27.4977
34.6876,27.8047
34.6840,27.8082
34.3644,28.0904
34.3604,28.0936
34.0191,28.3491
34.0149,28.3520
33.6541,28.5792
33.6497,28.5817
33.2717,28.7791
33.2671,28.7812
32.8745,28.9474
32.8697,28.9492
32.4650,29.0833
32.4601,29.0847
32.0459,29.1856
32.0409,29.1866
31.6199,29.2538
31.6148,29.2544
31.1897,29.2875
31.1846,29.2877
31.0980,29.2874
30.7795,29.2864
30.7752,29.2863
30.7698,29.2859
30.7698,29.2859
30.7449,29.2859
30.6899,29.2835
30.6817,29.2842
30.6817,29.2841
30.6653,29.2859
30.6060,29.2859
30.5379,29.2659
30.4914,29.2122
30.4800,29.1599
30.4800,22.9316
20.6465,22.9292
20.5784,22.9091
20.5319,22.8555
20.5205,22.8032
20.5205,20.4060
32.4235,20.4060
32.4235,21.3867
32.4299,21.4682
32.4807,21.6578
32.5698,21.8326
32.5698,21.8326
32.6933,21.9851
32.8458,22.1086
32.8458,22.1086
32.8458,22.1086
33.0206,22.1977
33.2102,22.2485
33.2816,22.2541
33.2917,22.2549
33.2917,22.2549
33.2917,22.2549
33.7831,22.2549
34.2723,22.2549
34.3212,22.2510
34.3538,22.2485
34.5434,22.1977
34.7182,22.1086
34.7182,22.1086
34.7182,22.1086
34.8707,21.9851
34.9942,21.8326
34.9942,21.8326
34.9942,21.8326
35.0833,21.6578
35.1341,21.4682
35.1405,21.3867
35.1405,20.4060
35.1341,20.3245
35.0833,20.1350
34.9942,19.9602
34.9942,19.9602
34.9942,19.9602
34.8707,19.8077
34.8707,19.8077
34.7678,19.7243
34.7274,19.6659
34.7251,19.5949
34.7614,19.5340
34.7678,19.5285
34.8707,19.4451
34.9190,19.3855
34.9942,19.2926
34.9942,19.2926
34.9942,19.2926
35.0833,19.1178
35.1341,18.9282
35.1405,18.8467
35.1405,17.8660
35.1341,17.7845
35.0833,17.5950
34.9942,17.4202
34.9942,17.4202
34.9942,17.4202
34.8707,17.2677
34.8707,17.2677
34.7678,17.1843
34.7274,17.1259
34.7251,17.0549
34.7614,16.9940
34.7678,16.9885
34.8707,16.9051
34.9190,16.8455
34.9942,16.7526
34.9942,16.7526
34.9942,16.7526
35.0833,16.5778
35.1341,16.3882
35.1405,16.3067
35.1405,15.3260
35.1341,15.2445
35.0833,15.0550
34.9942,14.8802
34.8801,14.7392
34.8528,14.6737
34.8652,14.6038
34.9025,14.5591
34.9953,14.4896
35.0829,14.3726
35.0829,14.3726
35.0829,14.3726
35.1340,14.2356
35.1405,14.1750
35.1405,12.3777
35.1403,12.3761
35.1340,12.3172
35.1340,12.3172
35.0829,12.1802
35.0829,12.1802
34.9953,12.0631
34.9021,11.9934
34.8596,11.9365
34.8545,11.8657
34.8797,11.8132
34.9938,11.6723
34.9938,11.6723
35.0828,11.4976
35.1336,11.3081
35.1400,11.2267
35.1400,10.9904
34.2131,10.9904
34.2415,10.9462
34.2820,10.8083
34.2820,10.6645
34.2415,10.5265
34.2131,10.4824
35.1400,10.4824
35.1400,10.2461
35.1336,10.1646
35.0828,9.9752
34.9938,9.8004
34.9938,9.8004
34.8704,9.6480
34.7674,9.5646
34.7270,9.5062
34.7247,9.4353
34.7610,9.3743
34.7674,9.3688
34.8707,9.2851
34.9190,9.2255
34.9942,9.1326
34.9942,9.1326
34.9942,9.1326
35.0833,8.9578
35.1341,8.7682
35.1405,8.6867
35.1405,7.7060
35.1341,7.6245
35.0833,7.4350
34.9942,7.2602
34.9942,7.2602
34.9942,7.2602
34.8707,7.1077
34.7182,6.9842
34.7182,6.9842
34.6413,6.9450
34.5434,6.8951
34.5434,6.8951
34.5434,6.8951
34.4101,6.8594
34.3538,6.8443
34.2916,6.8394
34.2723,6.8379
34.2723,6.8379
33.7817,6.8379
33.2917,6.8379
33.2102,6.8443
33.0206,6.8951
32.8458,6.9842
32.8458,6.9842
32.6933,7.1077
32.5698,7.2602
32.5698,7.2602
32.4807,7.4350
32.4299,7.6245
32.4299,7.6245
32.4251,7.6852
32.4235,7.7060
32.4235,8.6867
32.4299,8.7682
32.4807,8.9578
32.5698,9.1326
32.5698,9.1326
32.6933,9.2851
32.6933,9.2851
32.6933,9.2851
32.7966,9.3688
32.8370,9.4272
32.8393,9.4982
32.8030,9.5591
32.7966,9.5646
32.6936,9.6480
32.5702,9.8004
32.5702,9.8004
32.4812,9.9752
32.4304,10.1646
32.4240,10.2461
32.4240,10.4824
33.3509,10.4824
33.3225,10.5265
33.2820,10.6645
33.2820,10.8083
33.3225,10.9462
33.3509,10.9904
32.4240,10.9904
32.4240,11.2267
32.4304,11.3081
32.4812,11.4976
32.5702,11.6723
32.5702,11.6723
32.6843,11.8132
32.7116,11.8787
32.6992,11.9486
32.6619,11.9934
32.5687,12.0631
32.4811,12.1802
32.4811,12.1802
32.4300,12.3172
32.4300,12.3172
32.4235,12.3777
32.4235,14.1750
32.4300,14.2356
32.4300,14.2356
32.4811,14.3726
32.4811,14.3726
32.5687,14.4896
32.6615,14.5591
32.7040,14.6159
32.7091,14.6867
32.6839,14.7392
32.5698,14.8802
32.5698,14.8802
32.4807,15.0550
32.4299,15.2445
32.4299,15.2445
32.4251,15.3052
32.4235,15.3260
32.4235,16.3067
32.4299,16.3882
32.4807,16.5778
32.5698,16.7526
32.5698,16.7526
32.6933,16.9051
32.7962,16.9885
32.8366,17.0469
32.8389,17.1178
32.8026,17.1788
32.7962,17.1843
32.6933,17.2677
32.5698,17.4202
32.5698,17.4202
32.4807,17.5950
32.4299,17.7845
32.4299,17.7845
32.4251,17.8452
32.4235,17.8660
32.4235,18.8467
32.4299,18.9282
32.4807,19.1178
32.5698,19.2926
32.5698,19.2926
32.6933,19.4451
32.7962,19.5285
32.8366,19.5869
32.8389,19.6578
32.8026,19.7188
32.7962,19.7243
32.6933,19.8077
32.5698,19.9602
32.5698,19.9602
32.4807,20.1350
32.4299,20.3245
32.4299,20.3245
32.4251,20.3852
32.4235,20.4060
20.5205,20.4060
20.5205,11.6296
23.9035,11.6296
23.9426,11.8890
24.0199,12.1397
24.0199,12.1397
24.1338,12.3761
24.1338,12.3761
24.2816,12.5929
24.2816,12.5929
24.4600,12.7852
24.6651,12.9488
24.6651,12.9488
24.8924,13.0799
24.8924,13.0799
24.8924,13.0800
25.1366,13.1758
25.3924,13.2342
25.5444,13.2456
25.5885,13.2489
25.5885,13.2489
25.7195,13.2489
25.7605,13.2458
25.9156,13.2342
26.1714,13.1758
26.4156,13.0800
26.4156,13.0799
26.4156,13.0799
26.5292,13.0144
26.6429,12.9488
26.8480,12.7852
27.0264,12.5929
27.1742,12.3761
27.2881,12.1397
27.3117,12.0631
27.3654,11.8890
27.3654,11.8890
27.4045,11.6296
27.4045,11.3672
27.3654,11.1078
27.3654,11.1078
27.3654,11.1078
27.2881,10.8571
27.2881,10.8571
27.1953,10.6645
27.1742,10.6207
27.1742,10.6207
27.1742,10.6207
27.0264,10.4039
27.0264,10.4039
26.8480,10.2116
26.6429,10.0480
26.6429,10.0480
26.6429,10.0480
26.4156,9.9168
26.4156,9.9168
26.1714,9.8210
26.1714,9.8210
25.9156,9.7626
25.7195,9.7479
25.7195,9.7479
25.5885,9.7479
25.5885,9.7479
25.3924,9.7626
25.1366,9.8210
25.1366,9.8210
24.8924,9.9168
24.8924,9.9168
24.6651,10.0480
24.4600,10.2116
24.2816,10.4039
24.2816,10.4039
24.1338,10.6207
24.1338,10.6207
24.0199,10.8571
24.0199,10.8571
23.9426,11.1078
23.9035,11.3672
23.9035,11.6296
20.5205,11.6296
20.5205,10.3325
20.5405,10.2644
20.5942,10.2179
20.6644,10.2078
20.6729,10.2093
20.6776,10.2103
20.6776,10.2103
20.7815,10.2209
21.3825,10.2209
21.4864,10.2103
21.6547,10.1545
21.8057,10.0614
21.9310,9.9360
22.0241,9.7851
22.0799,9.6168
22.0905,9.5129
22.0905,8.9118
22.0799,8.8080
22.0241,8.6396
22.0241,8.6396
22.0241,8.6396
22.0210,8.6330
22.0233,8.6319
22.0078,8.5751
22.0231,8.5228
22.0210,8.5218
22.0241,8.5151
22.0241,8.5151
22.0241,8.5151
22.0799,8.3468
22.0905,8.2429
22.0905,7.6418
22.0799,7.5380
22.0241,7.3696
21.9310,7.2187
21.9310,7.2187
21.9310,7.2187
21.8057,7.0934
21.8057,7.0934
21.6817,7.0169
21.6547,7.0003
21.5704,6.9723
21.4864,6.9445
21.4864,6.9445
21.3826,6.9339
20.7815,6.9339
20.6776,6.9445
20.6776,6.9445
20.5093,7.0003
20.5026,7.0034
20.5016,7.0012
20.4442,7.0169
20.3922,7.0016
20.3912,7.0038
20.3845,7.0007
20.2163,6.9450
20.2163,6.9450
20.1125,6.9344
20.0660,6.9344
20.0660,7.7395
20.0241,7.6896
19.9249,7.6323
19.8404,7.6174
19.7836,7.6174
19.6991,7.6323
19.5999,7.6896
19.5580,7.7395
19.5580,6.9344
19.5115,6.9344
19.4077,6.9450
19.3205,6.9739
19.2495,6.9763
19.2368,6.9723
19.1512,6.9404
19.1512,6.9404
19.0906,6.9339
19.0906,6.9339
17.9948,6.9339
17.9266,6.9139
17.8894,6.8709
17.8867,6.8726
17.8828,6.8661
17.8607,6.8379
17.8441,6.8167
17.8418,6.8136
17.8062,6.7620
17.7592,6.7204
17.7565,6.7178
17.5629,6.5242
17.5289,6.4619
17.5260,6.4351
17.5260,5.7749
17.5460,5.7068
17.5997,5.6603
17.6520,5.6489
36.2037,5.6489
Z" /> 
</g>
</g>
</g>
<g style="fill:#000000; fill-opacity:1.0000; 
stroke:#000000; stroke-width:0.0000; stroke-opacity:1; 
stroke-linecap:round; stroke-linejoin:round;">
<circle cx="16.0020" cy="17.0864" r="0.2000" /> 
</g>
<g style="fill:#000000; fill-opacity:1.0000; 
stroke:#000000; stroke-width:0.0212; stroke-opacity:1; 
stroke-linecap:round; stroke-linejoin:round;">
</g>
<g style="fill:#000000; fill-opacity:1.0000; 
stroke:#000000; stroke-width:0.0000; stroke-opacity:1; 
stroke-linecap:round; stroke-linejoin:round;">
<circle cx="21.0820" cy="7.9424" r="0.3250" /> 
</g>
<g style="fill:#000000; fill-opacity:1.0000; 
stroke:#000000; stroke-width:0.0212; stroke-opacity:1; 
stroke-linecap:round; stroke-linejoin:round;">
</g>
<g style="fill:#000000; fill-opacity:1.0000; 
stroke:#000000; stroke-width:0.0000; stroke-opacity:1; 
stroke-linecap:round; stroke-linejoin:round;">
<circle cx="21.0820" cy="9.2124" r="0.3250" /> 
</g>
<g style="fill:#000000; fill-opacity:1.0000; 
stroke:#000000; stroke-width:0.0212; stroke-opacity:1; 
stroke-linecap:round; stroke-linejoin:round;">
</g>
<g style="fill:#000000; fill-opacity:1.0000; 
stroke:#000000; stroke-width:0.0000; stroke-opacity:1; 
stroke-linecap:round; stroke-linejoin:round;">
<circle cx="19.8120" cy="7.9424" r="0.3250" /> 
</g>
<g style="fill:#000000; fill-opacity:1.0000; 
stroke:#000000; stroke-width:0.0212; stroke-opacity:1; 
stroke-linecap:round; stroke-linejoin:round;">
</g>
<g style="fill:#000000; fill-opacity:1.0000; 
stroke:#000000; stroke-width:0.0000; stroke-opacity:1; 
stroke-linecap:round; stroke-linejoin:round;">
<circle cx="19.8120" cy="9.2124" r="0.3250" /> 
</g>
<g style="fill:#000000; fill-opacity:1.0000; 
stroke:#000000; stroke-width:0.0212; stroke-opacity:1; 
stroke-linecap:round; stroke-linejoin:round;">
</g>
<g style="fill:#000000; fill-opacity:1.0000; 
stroke:#000000; stroke-width:0.0000; stroke-opacity:1; 
stroke-linecap:round; stroke-linejoin:round;">
<circle cx="18.5420" cy="7.9424" r="0.3250" /> 
</g>
<g style="fill:#000000; fill-opacity:1.0000; 
stroke:#000000; stroke-width:0.0212; stroke-opacity:1; 
stroke-linecap:round; stroke-linejoin:round;">
</g>
<g style="fill:#000000; fill-opacity:1.0000; 
stroke:#000000; stroke-width:0.0000; stroke-opacity:1; 
stroke-linecap:round; stroke-linejoin:round;">
<circle cx="18.5420" cy="9.2124" r="0.3250" /> 
</g>
<g style="fill:#000000; fill-opacity:1.0000; 
stroke:#000000; stroke-width:0.0212; stroke-opacity:1; 
stroke-linecap:round; stroke-linejoin:round;">
</g>
<g style="fill:#000000; fill-opacity:1.0000; 
stroke:#000000; stroke-width:0.0000; stroke-opacity:1; 
stroke-linecap:round; stroke-linejoin:round;">
<circle cx="17.2720" cy="7.9424" r="0.3250" /> 
</g>
<g style="fill:#000000; fill-opacity:1.0000; 
stroke:#000000; stroke-width:0.0212; stroke-opacity:1; 
stroke-linecap:round; stroke-linejoin:round;">
</g>
<g style="fill:#000000; fill-opacity:1.0000; 
stroke:#000000; stroke-width:0.0000; stroke-opacity:1; 
stroke-linecap:round; stroke-linejoin:round;">
<circle cx="17.2720" cy="9.2124" r="0.3250" /> 
</g>
<g style="fill:#000000; fill-opacity:1.0000; 
stroke:#000000; stroke-width:0.0212; stroke-opacity:1; 
stroke-linecap:round; stroke-linejoin:round;">
</g>
<g style="fill:#000000; fill-opacity:1.0000; 
stroke:#000000; stroke-width:0.0000; stroke-opacity:1; 
stroke-linecap:round; stroke-linejoin:round;">
<circle cx="16.0020" cy="7.9424" r="0.3250" /> 
</g>
<g style="fill:#000000; fill-opacity:1.0000; 
stroke:#000000; stroke-width:0.0212; stroke-opacity:1; 
stroke-linecap:round; stroke-linejoin:round;">
</g>
<g style="fill:#000000; fill-opacity:1.0000; 
stroke:#000000; stroke-width:0.0000; stroke-opacity:1; 
stroke-linecap:round; stroke-linejoin:round;">
<circle cx="16.0020" cy="9.2124" r="0.3250" /> 
</g>
<g style="fill:#000000; fill-opacity:1.0000; 
stroke:#000000; stroke-width:0.0212; stroke-opacity:1; 
stroke-linecap:round; stroke-linejoin:round;">
</g>
<g style="fill:#000000; fill-opacity:1.0000; 
stroke:#000000; stroke-width:0.0000; stroke-opacity:1; 
stroke-linecap:round; stroke-linejoin:round;">
<circle cx="14.7320" cy="7.9424" r="0.3250" /> 
</g>
<g style="fill:#000000; fill-opacity:1.0000; 
stroke:#000000; stroke-width:0.0212; stroke-opacity:1; 
stroke-linecap:round; stroke-linejoin:round;">
</g>
<g style="fill:#000000; fill-opacity:1.0000; 
stroke:#000000; stroke-width:0.0000; stroke-opacity:1; 
stroke-linecap:round; stroke-linejoin:round;">
<circle cx="14.7320" cy="9.2124" r="0.3250" /> 
</g>
<g style="fill:#000000; fill-opacity:1.0000; 
stroke:#000000; stroke-width:0.0212; stroke-opacity:1; 
stroke-linecap:round; stroke-linejoin:round;">
</g>
<g style="fill:#000000; fill-opacity:1.0000; 
stroke:#000000; stroke-width:0.0000; stroke-opacity:1; 
stroke-linecap:round; stroke-linejoin:round;">
<circle cx="13.4620" cy="7.9424" r="0.3250" /> 
</g>
<g style="fill:#000000; fill-opacity:1.0000; 
stroke:#000000; stroke-width:0.0212; stroke-opacity:1; 
stroke-linecap:round; stroke-linejoin:round;">
</g>
<g style="fill:#000000; fill-opacity:1.0000; 
stroke:#000000; stroke-width:0.0000; stroke-opacity:1; 
stroke-linecap:round; stroke-linejoin:round;">
<circle cx="13.4620" cy="9.2124" r="0.3250" /> 
</g>
<g style="fill:#000000; fill-opacity:1.0000; 
stroke:#000000; stroke-width:0.0212; stroke-opacity:1; 
stroke-linecap:round; stroke-linejoin:round;">
</g>
<g style="fill:#000000; fill-opacity:1.0000; 
stroke:#000000; stroke-width:0.0000; stroke-opacity:1; 
stroke-linecap:round; stroke-linejoin:round;">
<circle cx="33.7820" cy="8.1964" r="0.5000" /> 
</g>
<g style="fill:#000000; fill-opacity:1.0000; 
stroke:#000000; stroke-width:0.0212; stroke-opacity:1; 
stroke-linecap:round; stroke-linejoin:round;">
</g>
<g style="fill:#000000; fill-opacity:1.0000; 
stroke:#000000; stroke-width:0.0000; stroke-opacity:1; 
stroke-linecap:round; stroke-linejoin:round;">
<circle cx="33.7820" cy="10.7364" r="0.5000" /> 
</g>
<g style="fill:#000000; fill-opacity:1.0000; 
stroke:#000000; stroke-width:0.0212; stroke-opacity:1; 
stroke-linecap:round; stroke-linejoin:round;">
</g>
<g style="fill:#000000; fill-opacity:1.0000; 
stroke:#000000; stroke-width:0.0000; stroke-opacity:1; 
stroke-linecap:round; stroke-linejoin:round;">
<circle cx="33.7820" cy="13.2764" r="0.5000" /> 
</g>
<g style="fill:#000000; fill-opacity:1.0000; 
stroke:#000000; stroke-width:0.0212; stroke-opacity:1; 
stroke-linecap:round; stroke-linejoin:round;">
</g>
<g style="fill:#000000; fill-opacity:1.0000; 
stroke:#000000; stroke-width:0.0000; stroke-opacity:1; 
stroke-linecap:round; stroke-linejoin:round;">
<circle cx="33.7820" cy="15.8164" r="0.5000" /> 
</g>
<g style="fill:#000000; fill-opacity:1.0000; 
stroke:#000000; stroke-width:0.0212; stroke-opacity:1; 
stroke-linecap:round; stroke-linejoin:round;">
</g>
<g style="fill:#000000; fill-opacity:1.0000; 
stroke:#000000; stroke-width:0.0000; stroke-opacity:1; 
stroke-linecap:round; stroke-linejoin:round;">
<circle cx="33.7820" cy="18.3564" r="0.5000" /> 
</g>
<g style="fill:#000000; fill-opacity:1.0000; 
stroke:#000000; stroke-width:0.0212; stroke-opacity:1; 
stroke-linecap:round; stroke-linejoin:round;">
</g>
<g style="fill:#000000; fill-opacity:1.0000; 
stroke:#000000; stroke-width:0.0000; stroke-opacity:1; 
stroke-linecap:round; stroke-linejoin:round;">
<circle cx="33.7820" cy="20.8964" r="0.5000" /> 
</g>
<g style="fill:#000000; fill-opacity:1.0000; 
stroke:#000000; stroke-width:0.0212; stroke-opacity:1; 
stroke-linecap:round; stroke-linejoin:round;">
</g>
<g style="fill:#000000; fill-opacity:1.0000; 
stroke:#000000; stroke-width:0.0000; stroke-opacity:1; 
stroke-linecap:round; stroke-linejoin:round;">
<circle cx="28.7020" cy="24.7064" r="0.5000" /> 
</g>
<g style="fill:#000000; fill-opacity:1.0000; 
stroke:#000000; stroke-width:0.0212; stroke-opacity:1; 
stroke-linecap:round; stroke-linejoin:round;">
</g>
<g style="fill:#000000; fill-opacity:1.0000; 
stroke:#000000; stroke-width:0.0000; stroke-opacity:1; 
stroke-linecap:round; stroke-linejoin:round;">
<circle cx="28.7020" cy="27.2464" r="0.5000" /> 
</g>
<g style="fill:#000000; fill-opacity:1.0000; 
stroke:#000000; stroke-width:0.0212; stroke-opacity:1; 
stroke-linecap:round; stroke-linejoin:round;">
</g>
<g style="fill:#000000; fill-opacity:1.0000; 
stroke:#000000; stroke-width:0.0000; stroke-opacity:1; 
stroke-linecap:round; stroke-linejoin:round;">
<circle cx="26.1620" cy="24.7064" r="0.5000" /> 
</g>
<g style="fill:#000000; fill-opacity:1.0000; 
stroke:#000000; stroke-width:0.0212; stroke-opacity:1; 
stroke-linecap:round; stroke-linejoin:round;">
</g>
<g style="fill:#000000; fill-opacity:1.0000; 
stroke:#000000; stroke-width:0.0000; stroke-opacity:1; 
stroke-linecap:round; stroke-linejoin:round;">
<circle cx="26.1620" cy="27.2464" r="0.5000" /> 
</g>
<g style="fill:#000000; fill-opacity:1.0000; 
stroke:#000000; stroke-width:0.0212; stroke-opacity:1; 
stroke-linecap:round; stroke-linejoin:round;">
</g>
<g style="fill:#000000; fill-opacity:1.0000; 
stroke:#000000; stroke-width:0.0000; stroke-opacity:1; 
stroke-linecap:round; stroke-linejoin:round;">
<circle cx="23.6220" cy="24.7064" r="0.5000" /> 
</g>
<g style="fill:#000000; fill-opacity:1.0000; 
stroke:#000000; stroke-width:0.0212; stroke-opacity:1; 
stroke-linecap:round; stroke-linejoin:round;">
</g>
<g style="fill:#000000; fill-opacity:1.0000; 
stroke:#000000; stroke-width:0.0000; stroke-opacity:1; 
stroke-linecap:round; stroke-linejoin:round;">
<circle cx="23.6220" cy="27.2464" r="0.5000" /> 
</g>
<g style="fill:#000000; fill-opacity:1.0000; 
stroke:#000000; stroke-width:0.0212; stroke-opacity:1; 
stroke-linecap:round; stroke-linejoin:round;">
</g>
<g style="fill:#000000; fill-opacity:1.0000; 
stroke:#000000; stroke-width:0.0000; stroke-opacity:1; 
stroke-linecap:round; stroke-linejoin:round;">
<circle cx="21.0820" cy="24.7064" r="0.5000" /> 
</g>
<g style="fill:#000000; fill-opacity:1.0000; 
stroke:#000000; stroke-width:0.0212; stroke-opacity:1; 
stroke-linecap:round; stroke-linejoin:round;">
</g>
<g style="fill:#000000; fill-opacity:1.0000; 
stroke:#000000; stroke-width:0.0000; stroke-opacity:1; 
stroke-linecap:round; stroke-linejoin:round;">
<circle cx="21.0820" cy="27.2464" r="0.5000" /> 
</g>
<g style="fill:#000000; fill-opacity:1.0000; 
stroke:#000000; stroke-width:0.0212; stroke-opacity:1; 
stroke-linecap:round; stroke-linejoin:round;">
</g>
<g style="fill:#000000; fill-opacity:1.0000; 
stroke:#000000; stroke-width:0.0000; stroke-opacity:1; 
stroke-linecap:round; stroke-linejoin:round;">
<circle cx="18.5420" cy="24.7064" r="0.5000" /> 
</g>
<g style="fill:#000000; fill-opacity:1.0000; 
stroke:#000000; stroke-width:0.0212; stroke-opacity:1; 
stroke-linecap:round; stroke-linejoin:round;">
</g>
<g style="fill:#000000; fill-opacity:1.0000; 
stroke:#000000; stroke-width:0.0000; stroke-opacity:1; 
stroke-linecap:round; stroke-linejoin:round;">
<circle cx="18.5420" cy="27.2464" r="0.5000" /> 
</g>
<g style="fill:#000000; fill-opacity:1.0000; 
stroke:#000000; stroke-width:0.0212; stroke-opacity:1; 
stroke-linecap:round; stroke-linejoin:round;">
</g>
<g style="fill:#000000; fill-opacity:1.0000; 
stroke:#000000; stroke-width:0.0000; stroke-opacity:1; 
stroke-linecap:round; stroke-linejoin:round;">
<circle cx="16.0020" cy="24.7064" r="0.5000" /> 
</g>
<g style="fill:#000000; fill-opacity:1.0000; 
stroke:#000000; stroke-width:0.0212; stroke-opacity:1; 
stroke-linecap:round; stroke-linejoin:round;">
</g>
<g style="fill:#000000; fill-opacity:1.0000; 
stroke:#000000; stroke-width:0.0000; stroke-opacity:1; 
stroke-linecap:round; stroke-linejoin:round;">
<circle cx="16.0020" cy="27.2464" r="0.5000" /> 
</g>
<g style="fill:#000000; fill-opacity:1.0000; 
stroke:#000000; stroke-width:0.0212; stroke-opacity:1; 
stroke-linecap:round; stroke-linejoin:round;">
</g>
<g style="fill:#000000; fill-opacity:1.0000; 
stroke:#000000; stroke-width:0.0000; stroke-opacity:1; 
stroke-linecap:round; stroke-linejoin:round;">
<circle cx="13.4620" cy="24.7064" r="0.5000" /> 
</g>
<g style="fill:#000000; fill-opacity:1.0000; 
stroke:#000000; stroke-width:0.0212; stroke-opacity:1; 
stroke-linecap:round; stroke-linejoin:round;">
</g>
<g style="fill:#000000; fill-opacity:1.0000; 
stroke:#000000; stroke-width:0.0000; stroke-opacity:1; 
stroke-linecap:round; stroke-linejoin:round;">
<circle cx="13.4620" cy="27.2464" r="0.5000" /> 
</g>
<g style="fill:#000000; fill-opacity:1.0000; 
stroke:#000000; stroke-width:0.0212; stroke-opacity:1; 
stroke-linecap:round; stroke-linejoin:round;">
</g>
<g style="fill:#000000; fill-opacity:1.0000; 
stroke:#000000; stroke-width:0.0000; stroke-opacity:1; 
stroke-linecap:round; stroke-linejoin:round;">
<circle cx="10.9220" cy="24.7064" r="0.5000" /> 
</g>
<g style="fill:#000000; fill-opacity:1.0000; 
stroke:#000000; stroke-width:0.0212; stroke-opacity:1; 
stroke-linecap:round; stroke-linejoin:round;">
</g>
<g style="fill:#000000; fill-opacity:1.0000; 
stroke:#000000; stroke-width:0.0000; stroke-opacity:1; 
stroke-linecap:round; stroke-linejoin:round;">
<circle cx="10.9220" cy="27.2464" r="0.5000" /> 
</g>
<g style="fill:#000000; fill-opacity:1.0000; 
stroke:#000000; stroke-width:0.0212; stroke-opacity:1; 
stroke-linecap:round; stroke-linejoin:round;">
</g>
<g style="fill:#000000; fill-opacity:1.0000; 
stroke:#000000; stroke-width:0.0000; stroke-opacity:1; 
stroke-linecap:round; stroke-linejoin:round;">
<circle cx="8.3820" cy="24.7064" r="0.5000" /> 
</g>
<g style="fill:#000000; fill-opacity:1.0000; 
stroke:#000000; stroke-width:0.0212; stroke-opacity:1; 
stroke-linecap:round; stroke-linejoin:round;">
</g>
<g style="fill:#000000; fill-opacity:1.0000; 
stroke:#000000; stroke-width:0.0000; stroke-opacity:1; 
stroke-linecap:round; stroke-linejoin:round;">
<circle cx="8.3820" cy="27.2464" r="0.5000" /> 
</g>
<g style="fill:#000000; fill-opacity:1.0000; 
stroke:#000000; stroke-width:0.0212; stroke-opacity:1; 
stroke-linecap:round; stroke-linejoin:round;">
</g>
<g style="fill:#000000; fill-opacity:1.0000; 
stroke:#000000; stroke-width:0.0000; stroke-opacity:1; 
stroke-linecap:round; stroke-linejoin:round;">
<circle cx="5.8420" cy="24.7064" r="0.5000" /> 
</g>
<g style="fill:#000000; fill-opacity:1.0000; 
stroke:#000000; stroke-width:0.0212; stroke-opacity:1; 
stroke-linecap:round; stroke-linejoin:round;">
</g>
<g style="fill:#000000; fill-opacity:1.0000; 
stroke:#000000; stroke-width:0.0000; stroke-opacity:1; 
stroke-linecap:round; stroke-linejoin:round;">
<circle cx="5.8420" cy="27.2464" r="0.5000" /> 
</g>
<g style="fill:#000000; fill-opacity:1.0000; 
stroke:#000000; stroke-width:0.0212; stroke-opacity:1; 
stroke-linecap:round; stroke-linejoin:round;">
</g>
<g style="fill:#000000; fill-opacity:1.0000; 
stroke:#000000; stroke-width:0.0000; stroke-opacity:1; 
stroke-linecap:round; stroke-linejoin:round;">
<circle cx="14.2240" cy="19.1184" r="1.5000" /> 
</g>
<g style="fill:#000000; fill-opacity:1.0000; 
stroke:#000000; stroke-width:0.0212; stroke-opacity:1; 
stroke-linecap:round; stroke-linejoin:round;">
</g>
<g style="fill:#000000; fill-opacity:1.0000; 
stroke:#000000; stroke-width:0.0000; stroke-opacity:1; 
stroke-linecap:round; stroke-linejoin:round;">
<circle cx="25.6540" cy="11.4984" r="1.5000" /> 
</g>
<g style="fill:#000000; fill-opacity:1.0000; 
stroke:#000000; stroke-width:0.0212; stroke-opacity:1; 
stroke-linecap:round; stroke-linejoin:round;">
</g>
<g style="fill:#FFFFFF; fill-opacity:1.0000; 
stroke:#FFFFFF; stroke-width:0.0212; stroke-opacity:1; 
stroke-linecap:round; stroke-linejoin:round;">
<g >
</g>
<g >
</g>
<g >
</g>
<g >
</g>
<g >
</g>
<g >
</g>
<g >
</g>
<g >
</g>
<g >
</g>
</g>
<g style="fill:#FFFFFF; fill-opacity:1.0000; 
stroke:#FFFFFF; stroke-width:0.0212; stroke-opacity:1; 
stroke-linecap:round; stroke-linejoin:round;">
</g>
<g style="fill:#2F2D31; fill-opacity:1.0000; 
stroke:#2F2D31; stroke-width:0.0212; stroke-opacity:1; 
stroke-linecap:round; stroke-linejoin:round;">
</g>
<g style="fill:#2F2D31; fill-opacity:0.0; 
stroke:#2F2D31; stroke-width:0.0500; stroke-opacity:1; 
stroke-linecap:round; stroke-linejoin:round;">
<path d="M30.7340 29.7864 A5.8475 5.8475 0.0 0 0 36.8355 23.9444" />
<path d="M30.7340 29.7864
L1.7780 29.7864
" />
<path d="M1.7780 29.7864
L1.7725 10.9904
" />
<path d="M7.8740 5.1484 A5.8475 5.8475 0.0 0 0 1.7725 10.9904" />
<path d="M7.8740 5.1484
L36.8300 5.1484
" />
<path d="M36.8300 5.1484
L36.8355 23.9444
" />
<g >
</g>
<g >
</g>
<g >
</g>
<g >
</g>
<g >
</g>
<g >
</g>
<g >
</g>
<g >
</g>
<g >
</g>
</g> 
</svg>
