<?xml version="1.0" standalone="no"?>
 <!DOCTYPE svg PUBLIC "-//W3C//DTD SVG 1.1//EN" 
 "http://www.w3.org/Graphics/SVG/1.1/DTD/svg11.dtd"> 
<svg
  xmlns:svg="http://www.w3.org/2000/svg"
  xmlns="http://www.w3.org/2000/svg"
  xmlns:xlink="http://www.w3.org/1999/xlink"
  version="1.1"
  width="29.6926mm" height="22.8092mm" viewBox="0.0000 0.0000 29.6926 22.8092">
<title>SVG Image created as working-brd.svg date 2023/09/29 22:39:00 </title>
  <desc>Image generated by PCBNEW </desc>
<g style="fill:#000000; fill-opacity:1.0000;stroke:#000000; stroke-opacity:1.0000;
stroke-linecap:round; stroke-linejoin:round;"
 transform="translate(0 0) scale(1 1)">
</g>
<g style="fill:#000000; fill-opacity:0.0; 
stroke:#000000; stroke-width:0.0000; stroke-opacity:1; 
stroke-linecap:round; stroke-linejoin:round;">
</g>
<g style="fill:#000000; fill-opacity:1.0000; 
stroke:#000000; stroke-width:0.0212; stroke-opacity:1; 
stroke-linecap:round; stroke-linejoin:round;">
<rect x="-5.000000" y="-5.000000" width="39.714284" height="32.816689" rx="0.000000" />
</g>
<g style="fill:#FFFFFF; fill-opacity:1.0000; 
stroke:#FFFFFF; stroke-width:0.0212; stroke-opacity:1; 
stroke-linecap:round; stroke-linejoin:round;">
<g >
</g>
<g >
</g>
<g >
</g>
<g >
</g>
<g >
</g>
<g >
</g>
<g style="fill:#B2803A; fill-opacity:1.0000; 
stroke:#B2803A; stroke-width:0.0212; stroke-opacity:1; 
stroke-linecap:round; stroke-linejoin:round;">
</g>
<g style="fill:#B2803A; fill-opacity:1.0000; 
stroke:#B2803A; stroke-width:0.0000; stroke-opacity:1; 
stroke-linecap:round; stroke-linejoin:round;">
<path style="fill:#B2803A; fill-opacity:1.0000; 
stroke:#B2803A; stroke-width:0.0000; stroke-opacity:1; 
stroke-linecap:round; stroke-linejoin:round;fill-rule:evenodd;"
d="M 17.2643,18.8530
18.2643,18.8530
18.2643,19.5530
17.2643,19.5530
Z" /> 
<path style="fill:#B2803A; fill-opacity:1.0000; 
stroke:#B2803A; stroke-width:0.0000; stroke-opacity:1; 
stroke-linecap:round; stroke-linejoin:round;fill-rule:evenodd;"
d="M 17.2643,20.7530
18.2643,20.7530
18.2643,21.4530
17.2643,21.4530
Z" /> 
<path style="fill:#B2803A; fill-opacity:1.0000; 
stroke:#B2803A; stroke-width:0.0000; stroke-opacity:1; 
stroke-linecap:round; stroke-linejoin:round;fill-rule:evenodd;"
d="M 14.8643,19.8030
15.8643,19.8030
15.8643,20.5030
14.8643,20.5030
Z" /> 
</g>
<g >
</g>
<g style="fill:#121212; fill-opacity:1.0000; 
stroke:#121212; stroke-width:0.0000; stroke-opacity:1; 
stroke-linecap:round; stroke-linejoin:round;">
<circle cx="14.1083" cy="20.1210" r="0.4000" /> 
</g>
<g style="fill:#121212; fill-opacity:1.0000; 
stroke:#121212; stroke-width:0.0212; stroke-opacity:1; 
stroke-linecap:round; stroke-linejoin:round;">
</g>
<g style="fill:#121212; fill-opacity:1.0000; 
stroke:#121212; stroke-width:0.0000; stroke-opacity:1; 
stroke-linecap:round; stroke-linejoin:round;">
<circle cx="18.8073" cy="19.2320" r="0.4000" /> 
</g>
<g style="fill:#121212; fill-opacity:1.0000; 
stroke:#121212; stroke-width:0.0212; stroke-opacity:1; 
stroke-linecap:round; stroke-linejoin:round;">
</g>
<g style="fill:#121212; fill-opacity:1.0000; 
stroke:#121212; stroke-width:0.0000; stroke-opacity:1; 
stroke-linecap:round; stroke-linejoin:round;">
<circle cx="16.6483" cy="21.0100" r="0.4000" /> 
</g>
<g style="fill:#121212; fill-opacity:1.0000; 
stroke:#121212; stroke-width:0.0212; stroke-opacity:1; 
stroke-linecap:round; stroke-linejoin:round;">
</g>
<g >
</g>
<g style="fill:#B2803A; fill-opacity:1.0000; 
stroke:#B2803A; stroke-width:0.0212; stroke-opacity:1; 
stroke-linecap:round; stroke-linejoin:round;">
</g>
<g style="fill:#B2803A; fill-opacity:1.0000; 
stroke:#B2803A; stroke-width:0.3000; stroke-opacity:1; 
stroke-linecap:round; stroke-linejoin:round;">
</g>
<g style="fill:#B2803A; fill-opacity:0.0; 
stroke:#B2803A; stroke-width:0.3000; stroke-opacity:1; 
stroke-linecap:round; stroke-linejoin:round;">
<path d="M14.1403 20.1530
L14.1083 20.1210
" />
<path d="M15.3643 20.1530
L14.1403 20.1530
" />
<path d="M18.7783 19.2030
L18.8073 19.2320
" />
<path d="M17.7643 19.2030
L18.7783 19.2030
" />
<path d="M16.7413 21.1030
L16.6483 21.0100
" />
<path d="M17.7643 21.1030
L16.7413 21.1030
" />
</g>
<g >
</g>
</g>
<g style="fill:#000000; fill-opacity:0.0; 
stroke:#000000; stroke-width:0.3000; stroke-opacity:1; 
stroke-linecap:round; stroke-linejoin:round;">
</g>
<g style="fill:#000000; fill-opacity:1.0000; 
stroke:#000000; stroke-width:0.0000; stroke-opacity:1; 
stroke-linecap:round; stroke-linejoin:round;">
<circle cx="14.1083" cy="20.1210" r="0.1500" /> 
</g>
<g style="fill:#000000; fill-opacity:1.0000; 
stroke:#000000; stroke-width:0.0212; stroke-opacity:1; 
stroke-linecap:round; stroke-linejoin:round;">
</g>
<g style="fill:#000000; fill-opacity:1.0000; 
stroke:#000000; stroke-width:0.0000; stroke-opacity:1; 
stroke-linecap:round; stroke-linejoin:round;">
<circle cx="18.8073" cy="19.2320" r="0.1500" /> 
</g>
<g style="fill:#000000; fill-opacity:1.0000; 
stroke:#000000; stroke-width:0.0212; stroke-opacity:1; 
stroke-linecap:round; stroke-linejoin:round;">
</g>
<g style="fill:#000000; fill-opacity:1.0000; 
stroke:#000000; stroke-width:0.0000; stroke-opacity:1; 
stroke-linecap:round; stroke-linejoin:round;">
<circle cx="16.6483" cy="21.0100" r="0.1500" /> 
</g>
<g style="fill:#000000; fill-opacity:1.0000; 
stroke:#000000; stroke-width:0.0212; stroke-opacity:1; 
stroke-linecap:round; stroke-linejoin:round;">
</g>
<g style="fill:#000000; fill-opacity:1.0000; 
stroke:#000000; stroke-width:0.0000; stroke-opacity:1; 
stroke-linecap:round; stroke-linejoin:round;">
<circle cx="16.5643" cy="14.0030" r="1.1000" /> 
</g>
<g style="fill:#000000; fill-opacity:1.0000; 
stroke:#000000; stroke-width:0.0212; stroke-opacity:1; 
stroke-linecap:round; stroke-linejoin:round;">
</g>
<g style="fill:#FFFFFF; fill-opacity:1.0000; 
stroke:#FFFFFF; stroke-width:0.0212; stroke-opacity:1; 
stroke-linecap:round; stroke-linejoin:round;">
<g >
</g>
<g style="fill:#37CBCB; fill-opacity:1.0000; 
stroke:#37CBCB; stroke-width:0.0212; stroke-opacity:1; 
stroke-linecap:round; stroke-linejoin:round;">
</g>
<g style="fill:#37CBCB; fill-opacity:1.0000; 
stroke:#37CBCB; stroke-width:0.0000; stroke-opacity:1; 
stroke-linecap:round; stroke-linejoin:round;">
<path style="fill:#37CBCB; fill-opacity:1.0000; 
stroke:#37CBCB; stroke-width:0.0000; stroke-opacity:1; 
stroke-linecap:round; stroke-linejoin:round;fill-rule:evenodd;"
d="M 18.2643,18.6530
18.2643,17.6530
18.9643,17.6530
18.9643,18.6530
Z" /> 
<path style="fill:#37CBCB; fill-opacity:1.0000; 
stroke:#37CBCB; stroke-width:0.0000; stroke-opacity:1; 
stroke-linecap:round; stroke-linejoin:round;fill-rule:evenodd;"
d="M 19.6643,18.6530
19.6643,17.6530
20.3643,17.6530
20.3643,18.6530
Z" /> 
</g>
<g >
</g>
<g style="fill:#37CBCB; fill-opacity:1.0000; 
stroke:#37CBCB; stroke-width:0.0000; stroke-opacity:1; 
stroke-linecap:round; stroke-linejoin:round;">
<path style="fill:#37CBCB; fill-opacity:1.0000; 
stroke:#37CBCB; stroke-width:0.0000; stroke-opacity:1; 
stroke-linecap:round; stroke-linejoin:round;fill-rule:evenodd;"
d="M 17.6143,19.4030
17.6143,20.4030
16.9143,20.4030
16.9143,19.4030
Z" /> 
<path style="fill:#37CBCB; fill-opacity:1.0000; 
stroke:#37CBCB; stroke-width:0.0000; stroke-opacity:1; 
stroke-linecap:round; stroke-linejoin:round;fill-rule:evenodd;"
d="M 16.2143,19.4030
16.2143,20.4030
15.5143,20.4030
15.5143,19.4030
Z" /> 
</g>
<g >
</g>
<g style="fill:#37CBCB; fill-opacity:1.0000; 
stroke:#37CBCB; stroke-width:0.0000; stroke-opacity:1; 
stroke-linecap:round; stroke-linejoin:round;">
<path style="fill:#37CBCB; fill-opacity:1.0000; 
stroke:#37CBCB; stroke-width:0.0000; stroke-opacity:1; 
stroke-linecap:round; stroke-linejoin:round;fill-rule:evenodd;"
d="M 17.6143,17.6530
17.6143,18.6530
16.9143,18.6530
16.9143,17.6530
Z" /> 
<path style="fill:#37CBCB; fill-opacity:1.0000; 
stroke:#37CBCB; stroke-width:0.0000; stroke-opacity:1; 
stroke-linecap:round; stroke-linejoin:round;fill-rule:evenodd;"
d="M 16.2143,17.6530
16.2143,18.6530
15.5143,18.6530
15.5143,17.6530
Z" /> 
</g>
<g >
</g>
<g style="fill:#37CBCB; fill-opacity:1.0000; 
stroke:#37CBCB; stroke-width:0.0000; stroke-opacity:1; 
stroke-linecap:round; stroke-linejoin:round;">
<path style="fill:#37CBCB; fill-opacity:1.0000; 
stroke:#37CBCB; stroke-width:0.0000; stroke-opacity:1; 
stroke-linecap:round; stroke-linejoin:round;fill-rule:evenodd;"
d="M 21.4143,5.4780
21.4143,8.5780
19.2143,8.5780
19.2143,5.4780
Z" /> 
<path style="fill:#37CBCB; fill-opacity:1.0000; 
stroke:#37CBCB; stroke-width:0.0000; stroke-opacity:1; 
stroke-linecap:round; stroke-linejoin:round;fill-rule:evenodd;"
d="M 13.9143,5.4780
13.9143,8.5780
11.7143,8.5780
11.7143,5.4780
Z" /> 
<path style="fill:#37CBCB; fill-opacity:1.0000; 
stroke:#37CBCB; stroke-width:0.0000; stroke-opacity:1; 
stroke-linecap:round; stroke-linejoin:round;fill-rule:evenodd;"
d="M 18.2143,9.0280
18.2143,10.5280
17.4143,10.5280
17.4143,9.0280
Z" /> 
<path style="fill:#37CBCB; fill-opacity:1.0000; 
stroke:#37CBCB; stroke-width:0.0000; stroke-opacity:1; 
stroke-linecap:round; stroke-linejoin:round;fill-rule:evenodd;"
d="M 16.9643,9.0280
16.9643,10.5280
16.1643,10.5280
16.1643,9.0280
Z" /> 
<path style="fill:#37CBCB; fill-opacity:1.0000; 
stroke:#37CBCB; stroke-width:0.0000; stroke-opacity:1; 
stroke-linecap:round; stroke-linejoin:round;fill-rule:evenodd;"
d="M 15.7143,9.0280
15.7143,10.5280
14.9143,10.5280
14.9143,9.0280
Z" /> 
</g>
<g >
</g>
<g >
</g>
<g >
</g>
<g style="fill:#121212; fill-opacity:1.0000; 
stroke:#121212; stroke-width:0.0000; stroke-opacity:1; 
stroke-linecap:round; stroke-linejoin:round;">
<circle cx="14.1083" cy="20.1210" r="0.4000" /> 
</g>
<g style="fill:#121212; fill-opacity:1.0000; 
stroke:#121212; stroke-width:0.0212; stroke-opacity:1; 
stroke-linecap:round; stroke-linejoin:round;">
</g>
<g style="fill:#121212; fill-opacity:1.0000; 
stroke:#121212; stroke-width:0.0000; stroke-opacity:1; 
stroke-linecap:round; stroke-linejoin:round;">
<circle cx="18.8073" cy="19.2320" r="0.4000" /> 
</g>
<g style="fill:#121212; fill-opacity:1.0000; 
stroke:#121212; stroke-width:0.0212; stroke-opacity:1; 
stroke-linecap:round; stroke-linejoin:round;">
</g>
<g style="fill:#121212; fill-opacity:1.0000; 
stroke:#121212; stroke-width:0.0000; stroke-opacity:1; 
stroke-linecap:round; stroke-linejoin:round;">
<circle cx="16.6483" cy="21.0100" r="0.4000" /> 
</g>
<g style="fill:#121212; fill-opacity:1.0000; 
stroke:#121212; stroke-width:0.0212; stroke-opacity:1; 
stroke-linecap:round; stroke-linejoin:round;">
</g>
<g >
</g>
<g style="fill:#37CBCB; fill-opacity:1.0000; 
stroke:#37CBCB; stroke-width:0.0212; stroke-opacity:1; 
stroke-linecap:round; stroke-linejoin:round;">
</g>
<g style="fill:#37CBCB; fill-opacity:1.0000; 
stroke:#37CBCB; stroke-width:0.3000; stroke-opacity:1; 
stroke-linecap:round; stroke-linejoin:round;">
</g>
<g style="fill:#37CBCB; fill-opacity:0.0; 
stroke:#37CBCB; stroke-width:0.3000; stroke-opacity:1; 
stroke-linecap:round; stroke-linejoin:round;">
<path d="M18.6143 18.4530
L18.8073 18.6460
" />
<path d="M18.8073 18.6460
L18.8073 19.2320
" />
<path d="M18.6143 17.1030
L19.5643 16.1530
" />
<path d="M19.5643 16.1530
L19.5643 10.9030
" />
<path d="M19.5643 10.9030
L18.4393 9.7780
" />
<path d="M18.4393 9.7780
L17.8143 9.7780
" />
<path d="M17.2643 18.1530
L18.6143 18.1530
" />
<path d="M18.6143 18.1530
L18.6143 18.4530
" />
<path d="M18.6143 18.1530
L18.6143 17.1030
" />
<path d="M16.1713 21.0100
L15.8643 20.7030
" />
<path d="M15.8643 20.7030
L15.8643 19.9030
" />
<path d="M16.5643 10.4030
L15.8143 11.1530
" />
<path d="M15.8143 11.1530
L15.3143 11.1530
" />
<path d="M15.3143 11.1530
L13.5643 12.9030
" />
<path d="M13.5643 12.9030
L13.5643 17.6030
" />
<path d="M13.5643 17.6030
L15.8643 19.9030
" />
<path d="M16.5643 9.7780
L16.5643 10.4030
" />
<path d="M16.6483 21.0100
L16.1713 21.0100
" />
<path d="M17.2643 19.8530
L15.8643 18.4530
" />
<path d="M15.8643 18.4530
L15.8643 18.1530
" />
<path d="M17.2643 19.9030
L17.2643 19.8530
" />
</g>
<g >
</g>
<g style="fill:#37CBCB; fill-opacity:0.0; 
stroke:#37CBCB; stroke-width:0.3000; stroke-opacity:1; 
stroke-linecap:round; stroke-linejoin:round;">
<g >
</g>
<g style="fill:#37CBCB; fill-opacity:1.0000; 
stroke:#37CBCB; stroke-width:0.0000; stroke-opacity:1; 
stroke-linecap:round; stroke-linejoin:round;">
<path style="fill:#37CBCB; fill-opacity:1.0000; 
stroke:#37CBCB; stroke-width:0.0000; stroke-opacity:1; 
stroke-linecap:round; stroke-linejoin:round;fill-rule:evenodd;"
d="M 18.8730,5.6724
18.9089,5.7219
18.9138,5.7525
18.9138,8.6229
18.9138,8.6229
18.9167,8.6480
18.9420,8.7054
18.9621,8.7508
19.0415,8.8302
19.1443,8.8756
19.1694,8.8785
21.2148,8.8785
21.2730,8.8974
21.3089,8.9469
21.3138,8.9775
21.3138,21.5535
21.2949,21.6117
21.2454,21.6477
21.2148,21.6525
17.2405,21.6525
17.1823,21.6336
17.1463,21.5841
17.1463,21.5229
17.1727,21.4826
17.1725,21.4824
17.1738,21.4809
17.1748,21.4794
17.1753,21.4789
17.1765,21.4779
17.2731,21.3379
17.3334,21.1789
17.3539,21.0100
17.3334,20.8411
17.3321,20.8376
17.3291,20.7765
17.3627,20.7253
17.4199,20.7036
17.4247,20.7035
17.6591,20.7035
17.6591,20.7035
17.6843,20.7006
17.7870,20.6552
17.8665,20.5758
17.9119,20.4730
17.9148,20.4479
17.9148,19.3581
17.9119,19.3330
17.8665,19.2302
17.7870,19.1508
17.7141,19.1186
17.6685,19.0778
17.6556,19.0180
17.6803,18.9620
17.7141,18.9374
17.7870,18.9052
17.8665,18.8258
17.8665,18.8258
17.8693,18.8230
17.9238,18.7952
17.9842,18.8048
18.0093,18.8230
18.0121,18.8258
18.0121,18.8258
18.0915,18.9052
18.0915,18.9052
18.0915,18.9052
18.0991,18.9104
18.0968,18.9137
18.1286,18.9420
18.1417,19.0018
18.1358,19.0272
18.1221,19.0631
18.1154,19.1186
18.1016,19.2320
18.1221,19.4009
18.1825,19.5599
18.2791,19.6999
18.4064,19.8127
18.5571,19.8918
18.7222,19.9325
18.7222,19.9325
18.8923,19.9325
18.8923,19.9325
19.0575,19.8918
19.2081,19.8127
19.3355,19.6999
19.4321,19.5599
19.4924,19.4009
19.5129,19.2320
19.4924,19.0631
19.4924,19.0631
19.4922,19.0612
19.5039,19.0012
19.5488,18.9595
19.6019,18.9510
19.6195,18.9530
19.8643,18.9530
19.8643,18.9530
19.8643,18.3030
20.1643,18.3030
20.1643,18.9530
20.1643,18.9530
20.4091,18.9530
20.4091,18.9530
20.4342,18.9501
20.5368,18.9048
20.6161,18.8255
20.6614,18.7229
20.6643,18.6978
20.6643,18.6978
20.6643,18.3030
20.6643,18.3030
20.1643,18.3030
19.8643,18.3030
19.8643,18.0030
20.1643,18.0030
20.1643,18.0030
20.6643,18.0030
20.6643,18.0030
20.6643,17.6082
20.6643,17.6082
20.6614,17.5831
20.6161,17.4805
20.5368,17.4012
20.4342,17.3559
20.4091,17.3530
20.1643,17.3530
20.1643,17.3530
20.1643,18.0030
19.8643,18.0030
19.8643,17.3530
19.6195,17.3530
19.6195,17.3530
19.5944,17.3559
19.4918,17.4012
19.4125,17.4805
19.4051,17.4972
19.3643,17.5428
19.3045,17.5557
19.2485,17.5310
19.2240,17.4972
19.2165,17.4802
19.1370,17.4008
19.1370,17.4008
19.1370,17.4008
19.1295,17.3956
19.1311,17.3932
19.0964,17.3622
19.0835,17.3024
19.1082,17.2464
19.1120,17.2424
19.8630,16.4914
19.8671,16.4877
19.8983,16.4629
19.9318,16.4137
19.9671,16.3659
19.9671,16.3659
19.9705,16.3593
19.9709,16.3595
19.9719,16.3575
19.9715,16.3574
19.9748,16.3507
19.9748,16.3507
19.9923,16.2938
20.0119,16.2377
20.0119,16.2377
20.0133,16.2304
20.0137,16.2305
20.0141,16.2283
20.0137,16.2282
20.0148,16.2209
20.0148,16.1614
20.0149,16.1592
20.0170,16.1020
20.0170,16.1020
20.0162,16.0946
20.0166,16.0946
20.0148,16.0807
20.0148,10.9311
20.0151,10.9255
20.0161,10.9165
20.0196,10.8860
20.0085,10.8275
19.9996,10.7687
19.9996,10.7687
19.9974,10.7616
19.9979,10.7615
19.9972,10.7594
19.9968,10.7595
19.9943,10.7525
19.9665,10.6999
19.9407,10.6464
19.9365,10.6402
19.9369,10.6400
19.9356,10.6382
19.9353,10.6384
19.9309,10.6325
19.9308,10.6325
19.9308,10.6325
19.8888,10.5904
19.8725,10.5729
19.8483,10.5468
19.8425,10.5422
19.8428,10.5418
19.8317,10.5333
18.7777,9.4793
18.7740,9.4752
18.7492,9.4440
18.7000,9.4105
18.6522,9.3752
18.6522,9.3752
18.6456,9.3717
18.6458,9.3714
18.6438,9.3704
18.6436,9.3707
18.6370,9.3675
18.6370,9.3675
18.6370,9.3675
18.5846,9.3514
18.5346,9.3162
18.5148,9.2583
18.5148,9.2568
18.5148,8.9831
18.5148,8.9831
18.5119,8.9580
18.4665,8.8552
18.3870,8.7758
18.2843,8.7304
18.2843,8.7304
18.2843,8.7304
18.2592,8.7275
17.3694,8.7275
17.3694,8.7275
17.3443,8.7304
17.2982,8.7508
17.2415,8.7758
17.2415,8.7758
17.2331,8.7795
17.2321,8.7771
17.1865,8.7905
17.1463,8.7775
17.1454,8.7795
17.1370,8.7758
17.1370,8.7758
17.0343,8.7304
17.0343,8.7304
17.0343,8.7304
17.0092,8.7275
16.1194,8.7275
16.1194,8.7275
16.0943,8.7304
16.0482,8.7508
15.9915,8.7758
15.9915,8.7758
15.9831,8.7795
15.9821,8.7773
15.9361,8.7908
15.8961,8.7778
15.8952,8.7799
15.7842,8.7309
15.7591,8.7280
15.4643,8.7280
15.4643,9.8290
15.4454,9.8872
15.3959,9.9232
15.3653,9.9280
14.6143,9.9280
14.6143,9.9280
14.6143,10.5728
14.6172,10.5979
14.6625,10.7005
14.7418,10.7798
14.8237,10.8159
14.8693,10.8567
14.8822,10.9165
14.8575,10.9725
14.8537,10.9765
13.2656,12.5646
13.2614,12.5683
13.2303,12.5931
13.1968,12.6423
13.1615,12.6901
13.1580,12.6967
13.1576,12.6965
13.1566,12.6985
13.1570,12.6986
13.1538,12.7053
13.1363,12.7622
13.1166,12.8183
13.1153,12.8256
13.1148,12.8255
13.1145,12.8277
13.1149,12.8278
13.1138,12.8351
13.1138,12.8946
13.1116,12.9540
13.1124,12.9614
13.1120,12.9614
13.1138,12.9753
13.1138,17.5749
13.1135,17.5805
13.1090,17.6200
13.1090,17.6200
13.1201,17.6785
13.1289,17.7373
13.1311,17.7444
13.1307,17.7445
13.1314,17.7466
13.1318,17.7465
13.1343,17.7535
13.1621,17.8061
13.1879,17.8596
13.1920,17.8658
13.1917,17.8660
13.1930,17.8678
13.1933,17.8676
13.1977,17.8735
13.2398,17.9156
13.2802,17.9592
13.2860,17.9638
13.2858,17.9642
13.2969,17.9727
15.1848,19.8606
15.2126,19.9151
15.2138,19.9306
15.2138,20.4479
15.2138,20.4479
15.2167,20.4730
15.2394,20.5244
15.2621,20.5758
15.2621,20.5758
15.3415,20.6552
15.3415,20.6552
15.3415,20.6552
15.3542,20.6608
15.3998,20.7016
15.4115,20.7330
15.4201,20.7785
15.4289,20.8373
15.4311,20.8444
15.4307,20.8445
15.4314,20.8466
15.4318,20.8465
15.4343,20.8535
15.4621,20.9061
15.4879,20.9596
15.4920,20.9658
15.4917,20.9660
15.4930,20.9678
15.4933,20.9676
15.4977,20.9735
15.4977,20.9735
15.5398,21.0156
15.5802,21.0592
15.5802,21.0592
15.5802,21.0592
15.5860,21.0638
15.5858,21.0642
15.5969,21.0727
15.8329,21.3087
15.8366,21.3128
15.8614,21.3440
15.9106,21.3775
15.9584,21.4128
15.9584,21.4128
15.9650,21.4163
15.9648,21.4167
15.9667,21.4177
15.9669,21.4173
15.9736,21.4205
15.9736,21.4205
16.0129,21.4326
16.0305,21.4380
16.0446,21.4430
16.0858,21.4574
16.1187,21.4767
16.1218,21.4794
16.1528,21.5322
16.1469,21.5931
16.1063,21.6388
16.0561,21.6525
11.9138,21.6525
11.8556,21.6336
11.8196,21.5841
11.8148,21.5535
11.8148,9.6280
14.6143,9.6280
14.6143,9.6280
15.1643,9.6280
15.1643,9.6280
15.1643,8.7280
15.1643,8.7280
14.8695,8.7280
14.8695,8.7280
14.8444,8.7309
14.7418,8.7762
14.6625,8.8555
14.6172,8.9581
14.6143,8.9832
14.6143,9.6280
11.8148,9.6280
11.8148,8.9775
11.8337,8.9193
11.8832,8.8833
11.9138,8.8785
13.9591,8.8785
13.9591,8.8785
13.9843,8.8756
14.0870,8.8302
14.1665,8.7508
14.2119,8.6480
14.2148,8.6229
14.2148,5.7525
14.2337,5.6943
14.2832,5.6583
14.3138,5.6535
18.8148,5.6535
Z" /> 
</g>
</g>
</g>
<g style="fill:#000000; fill-opacity:1.0000; 
stroke:#000000; stroke-width:0.0000; stroke-opacity:1; 
stroke-linecap:round; stroke-linejoin:round;">
<circle cx="14.1083" cy="20.1210" r="0.1500" /> 
</g>
<g style="fill:#000000; fill-opacity:1.0000; 
stroke:#000000; stroke-width:0.0212; stroke-opacity:1; 
stroke-linecap:round; stroke-linejoin:round;">
</g>
<g style="fill:#000000; fill-opacity:1.0000; 
stroke:#000000; stroke-width:0.0000; stroke-opacity:1; 
stroke-linecap:round; stroke-linejoin:round;">
<circle cx="18.8073" cy="19.2320" r="0.1500" /> 
</g>
<g style="fill:#000000; fill-opacity:1.0000; 
stroke:#000000; stroke-width:0.0212; stroke-opacity:1; 
stroke-linecap:round; stroke-linejoin:round;">
</g>
<g style="fill:#000000; fill-opacity:1.0000; 
stroke:#000000; stroke-width:0.0000; stroke-opacity:1; 
stroke-linecap:round; stroke-linejoin:round;">
<circle cx="16.6483" cy="21.0100" r="0.1500" /> 
</g>
<g style="fill:#000000; fill-opacity:1.0000; 
stroke:#000000; stroke-width:0.0212; stroke-opacity:1; 
stroke-linecap:round; stroke-linejoin:round;">
</g>
<g style="fill:#000000; fill-opacity:1.0000; 
stroke:#000000; stroke-width:0.0000; stroke-opacity:1; 
stroke-linecap:round; stroke-linejoin:round;">
<circle cx="16.5643" cy="14.0030" r="1.1000" /> 
</g>
<g style="fill:#000000; fill-opacity:1.0000; 
stroke:#000000; stroke-width:0.0212; stroke-opacity:1; 
stroke-linecap:round; stroke-linejoin:round;">
</g>
<g style="fill:#FFFFFF; fill-opacity:1.0000; 
stroke:#FFFFFF; stroke-width:0.0212; stroke-opacity:1; 
stroke-linecap:round; stroke-linejoin:round;">
</g>
<g style="fill:#2F2D31; fill-opacity:1.0000; 
stroke:#2F2D31; stroke-width:0.0212; stroke-opacity:1; 
stroke-linecap:round; stroke-linejoin:round;">
</g>
<g style="fill:#2F2D31; fill-opacity:1.0000; 
stroke:#2F2D31; stroke-width:0.1000; stroke-opacity:1; 
stroke-linecap:round; stroke-linejoin:round;">
</g>
<g style="fill:#2F2D31; fill-opacity:0.0; 
stroke:#2F2D31; stroke-width:0.1000; stroke-opacity:1; 
stroke-linecap:round; stroke-linejoin:round;">
<path d="M11.3143 5.1530
L11.3143 22.1530
" />
<path d="M11.3143 22.1530
L21.8143 22.1530
" />
<path d="M21.8143 22.1530
L21.8143 5.1530
" />
<path d="M21.8143 5.1530
L11.3143 5.1530
" />
<g >
</g>
<g >
</g>
<g >
</g>
<g >
</g>
<g >
</g>
<g >
</g>
<g >
</g>
<g >
</g>
<g >
</g>
</g> 
</svg>
