<?xml version="1.0" standalone="no"?>
 <!DOCTYPE svg PUBLIC "-//W3C//DTD SVG 1.1//EN" 
 "http://www.w3.org/Graphics/SVG/1.1/DTD/svg11.dtd"> 
<svg
  xmlns:svg="http://www.w3.org/2000/svg"
  xmlns="http://www.w3.org/2000/svg"
  xmlns:xlink="http://www.w3.org/1999/xlink"
  version="1.1"
  width="36.9824mm" height="51.9938mm" viewBox="0.0000 0.0000 36.9824 51.9938">
<title>SVG Image created as _autosave-working-brd.svg date 2023/09/30 19:56:04 </title>
  <desc>Image generated by PCBNEW </desc>
<g style="fill:#000000; fill-opacity:1.0000;stroke:#000000; stroke-opacity:1.0000;
stroke-linecap:round; stroke-linejoin:round;"
 transform="translate(0 0) scale(1 1)">
</g>
<g style="fill:#000000; fill-opacity:0.0; 
stroke:#000000; stroke-width:0.0000; stroke-opacity:1; 
stroke-linecap:round; stroke-linejoin:round;">
</g>
<g style="fill:#000000; fill-opacity:1.0000; 
stroke:#000000; stroke-width:0.0212; stroke-opacity:1; 
stroke-linecap:round; stroke-linejoin:round;">
<rect x="-5.000000" y="-5.000000" width="47.000000" height="62.000000" rx="0.000000" />
</g>
<g style="fill:#FFFFFF; fill-opacity:1.0000; 
stroke:#FFFFFF; stroke-width:0.0212; stroke-opacity:1; 
stroke-linecap:round; stroke-linejoin:round;">
<g >
</g>
<g style="fill:#B2803A; fill-opacity:1.0000; 
stroke:#B2803A; stroke-width:0.0212; stroke-opacity:1; 
stroke-linecap:round; stroke-linejoin:round;">
</g>
<g style="fill:#B2803A; fill-opacity:1.0000; 
stroke:#B2803A; stroke-width:0.0000; stroke-opacity:1; 
stroke-linecap:round; stroke-linejoin:round;">
<circle cx="6.7440" cy="5.4340" r="0.9995" /> 
</g>
<g style="fill:#B2803A; fill-opacity:1.0000; 
stroke:#B2803A; stroke-width:0.0212; stroke-opacity:1; 
stroke-linecap:round; stroke-linejoin:round;">
</g>
<g style="fill:#B2803A; fill-opacity:1.0000; 
stroke:#B2803A; stroke-width:0.0000; stroke-opacity:1; 
stroke-linecap:round; stroke-linejoin:round;">
<circle cx="6.7440" cy="20.4340" r="0.9995" /> 
</g>
<g style="fill:#B2803A; fill-opacity:1.0000; 
stroke:#B2803A; stroke-width:0.0212; stroke-opacity:1; 
stroke-linecap:round; stroke-linejoin:round;">
</g>
<g >
</g>
<g style="fill:#B2803A; fill-opacity:1.0000; 
stroke:#B2803A; stroke-width:0.0212; stroke-opacity:1; 
stroke-linecap:round; stroke-linejoin:round;">
</g>
<g style="fill:#B2803A; fill-opacity:1.0000; 
stroke:#B2803A; stroke-width:0.0000; stroke-opacity:1; 
stroke-linecap:round; stroke-linejoin:round;">
<path style="fill:#B2803A; fill-opacity:1.0000; 
stroke:#B2803A; stroke-width:0.0000; stroke-opacity:1; 
stroke-linecap:round; stroke-linejoin:round;fill-rule:evenodd;"
d="M 5.2040,38.5720
3.2040,38.5720
3.2040,36.5720
5.2040,36.5720
Z" /> 
<circle cx="4.2040" cy="35.0320" r="1.0000" /> 
</g>
<g style="fill:#B2803A; fill-opacity:1.0000; 
stroke:#B2803A; stroke-width:0.0212; stroke-opacity:1; 
stroke-linecap:round; stroke-linejoin:round;">
</g>
<g style="fill:#B2803A; fill-opacity:1.0000; 
stroke:#B2803A; stroke-width:0.0000; stroke-opacity:1; 
stroke-linecap:round; stroke-linejoin:round;">
<circle cx="4.2040" cy="32.4920" r="1.0000" /> 
</g>
<g style="fill:#B2803A; fill-opacity:1.0000; 
stroke:#B2803A; stroke-width:0.0212; stroke-opacity:1; 
stroke-linecap:round; stroke-linejoin:round;">
</g>
<g >
</g>
<g style="fill:#B2803A; fill-opacity:1.0000; 
stroke:#B2803A; stroke-width:0.0212; stroke-opacity:1; 
stroke-linecap:round; stroke-linejoin:round;">
</g>
<g style="fill:#B2803A; fill-opacity:1.0000; 
stroke:#B2803A; stroke-width:0.0000; stroke-opacity:1; 
stroke-linecap:round; stroke-linejoin:round;">
<circle cx="12.1100" cy="10.7600" r="0.9500" /> 
</g>
<g style="fill:#B2803A; fill-opacity:1.0000; 
stroke:#B2803A; stroke-width:0.0212; stroke-opacity:1; 
stroke-linecap:round; stroke-linejoin:round;">
</g>
<g style="fill:#B2803A; fill-opacity:1.0000; 
stroke:#B2803A; stroke-width:0.0000; stroke-opacity:1; 
stroke-linecap:round; stroke-linejoin:round;">
<circle cx="12.1100" cy="13.3000" r="0.9500" /> 
</g>
<g style="fill:#B2803A; fill-opacity:1.0000; 
stroke:#B2803A; stroke-width:0.0212; stroke-opacity:1; 
stroke-linecap:round; stroke-linejoin:round;">
</g>
<g style="fill:#B2803A; fill-opacity:1.0000; 
stroke:#B2803A; stroke-width:0.0000; stroke-opacity:1; 
stroke-linecap:round; stroke-linejoin:round;">
<circle cx="12.1100" cy="15.8400" r="0.9500" /> 
</g>
<g style="fill:#B2803A; fill-opacity:1.0000; 
stroke:#B2803A; stroke-width:0.0212; stroke-opacity:1; 
stroke-linecap:round; stroke-linejoin:round;">
</g>
<g style="fill:#B2803A; fill-opacity:1.0000; 
stroke:#B2803A; stroke-width:0.0000; stroke-opacity:1; 
stroke-linecap:round; stroke-linejoin:round;">
<circle cx="12.1100" cy="18.3800" r="0.9500" /> 
</g>
<g style="fill:#B2803A; fill-opacity:1.0000; 
stroke:#B2803A; stroke-width:0.0212; stroke-opacity:1; 
stroke-linecap:round; stroke-linejoin:round;">
</g>
<g style="fill:#B2803A; fill-opacity:1.0000; 
stroke:#B2803A; stroke-width:0.0000; stroke-opacity:1; 
stroke-linecap:round; stroke-linejoin:round;">
<circle cx="12.1100" cy="20.9200" r="0.9500" /> 
</g>
<g style="fill:#B2803A; fill-opacity:1.0000; 
stroke:#B2803A; stroke-width:0.0212; stroke-opacity:1; 
stroke-linecap:round; stroke-linejoin:round;">
</g>
<g style="fill:#B2803A; fill-opacity:1.0000; 
stroke:#B2803A; stroke-width:0.0000; stroke-opacity:1; 
stroke-linecap:round; stroke-linejoin:round;">
<circle cx="12.1100" cy="23.4600" r="0.9500" /> 
</g>
<g style="fill:#B2803A; fill-opacity:1.0000; 
stroke:#B2803A; stroke-width:0.0212; stroke-opacity:1; 
stroke-linecap:round; stroke-linejoin:round;">
</g>
<g style="fill:#B2803A; fill-opacity:1.0000; 
stroke:#B2803A; stroke-width:0.0000; stroke-opacity:1; 
stroke-linecap:round; stroke-linejoin:round;">
<circle cx="12.1100" cy="26.0000" r="0.9500" /> 
</g>
<g style="fill:#B2803A; fill-opacity:1.0000; 
stroke:#B2803A; stroke-width:0.0212; stroke-opacity:1; 
stroke-linecap:round; stroke-linejoin:round;">
</g>
<g style="fill:#B2803A; fill-opacity:1.0000; 
stroke:#B2803A; stroke-width:0.0000; stroke-opacity:1; 
stroke-linecap:round; stroke-linejoin:round;">
<circle cx="12.1100" cy="28.5400" r="0.9500" /> 
</g>
<g style="fill:#B2803A; fill-opacity:1.0000; 
stroke:#B2803A; stroke-width:0.0212; stroke-opacity:1; 
stroke-linecap:round; stroke-linejoin:round;">
</g>
<g style="fill:#B2803A; fill-opacity:1.0000; 
stroke:#B2803A; stroke-width:0.0000; stroke-opacity:1; 
stroke-linecap:round; stroke-linejoin:round;">
<circle cx="12.1100" cy="31.0800" r="0.9500" /> 
</g>
<g style="fill:#B2803A; fill-opacity:1.0000; 
stroke:#B2803A; stroke-width:0.0212; stroke-opacity:1; 
stroke-linecap:round; stroke-linejoin:round;">
</g>
<g style="fill:#B2803A; fill-opacity:1.0000; 
stroke:#B2803A; stroke-width:0.0000; stroke-opacity:1; 
stroke-linecap:round; stroke-linejoin:round;">
<circle cx="12.1100" cy="33.6200" r="0.9500" /> 
</g>
<g style="fill:#B2803A; fill-opacity:1.0000; 
stroke:#B2803A; stroke-width:0.0212; stroke-opacity:1; 
stroke-linecap:round; stroke-linejoin:round;">
</g>
<g style="fill:#B2803A; fill-opacity:1.0000; 
stroke:#B2803A; stroke-width:0.0000; stroke-opacity:1; 
stroke-linecap:round; stroke-linejoin:round;">
<circle cx="12.1100" cy="36.1600" r="0.9500" /> 
</g>
<g style="fill:#B2803A; fill-opacity:1.0000; 
stroke:#B2803A; stroke-width:0.0212; stroke-opacity:1; 
stroke-linecap:round; stroke-linejoin:round;">
</g>
<g style="fill:#B2803A; fill-opacity:1.0000; 
stroke:#B2803A; stroke-width:0.0000; stroke-opacity:1; 
stroke-linecap:round; stroke-linejoin:round;">
<circle cx="12.1100" cy="38.7000" r="0.9500" /> 
</g>
<g style="fill:#B2803A; fill-opacity:1.0000; 
stroke:#B2803A; stroke-width:0.0212; stroke-opacity:1; 
stroke-linecap:round; stroke-linejoin:round;">
</g>
<g style="fill:#B2803A; fill-opacity:1.0000; 
stroke:#B2803A; stroke-width:0.0000; stroke-opacity:1; 
stroke-linecap:round; stroke-linejoin:round;">
<circle cx="29.8900" cy="38.7000" r="0.9500" /> 
</g>
<g style="fill:#B2803A; fill-opacity:1.0000; 
stroke:#B2803A; stroke-width:0.0212; stroke-opacity:1; 
stroke-linecap:round; stroke-linejoin:round;">
</g>
<g style="fill:#B2803A; fill-opacity:1.0000; 
stroke:#B2803A; stroke-width:0.0000; stroke-opacity:1; 
stroke-linecap:round; stroke-linejoin:round;">
<circle cx="29.8900" cy="36.1600" r="0.9500" /> 
</g>
<g style="fill:#B2803A; fill-opacity:1.0000; 
stroke:#B2803A; stroke-width:0.0212; stroke-opacity:1; 
stroke-linecap:round; stroke-linejoin:round;">
</g>
<g style="fill:#B2803A; fill-opacity:1.0000; 
stroke:#B2803A; stroke-width:0.0000; stroke-opacity:1; 
stroke-linecap:round; stroke-linejoin:round;">
<circle cx="29.8900" cy="33.6200" r="0.9500" /> 
</g>
<g style="fill:#B2803A; fill-opacity:1.0000; 
stroke:#B2803A; stroke-width:0.0212; stroke-opacity:1; 
stroke-linecap:round; stroke-linejoin:round;">
</g>
<g style="fill:#B2803A; fill-opacity:1.0000; 
stroke:#B2803A; stroke-width:0.0000; stroke-opacity:1; 
stroke-linecap:round; stroke-linejoin:round;">
<circle cx="29.8900" cy="31.0800" r="0.9500" /> 
</g>
<g style="fill:#B2803A; fill-opacity:1.0000; 
stroke:#B2803A; stroke-width:0.0212; stroke-opacity:1; 
stroke-linecap:round; stroke-linejoin:round;">
</g>
<g style="fill:#B2803A; fill-opacity:1.0000; 
stroke:#B2803A; stroke-width:0.0000; stroke-opacity:1; 
stroke-linecap:round; stroke-linejoin:round;">
<circle cx="29.8900" cy="28.5400" r="0.9500" /> 
</g>
<g style="fill:#B2803A; fill-opacity:1.0000; 
stroke:#B2803A; stroke-width:0.0212; stroke-opacity:1; 
stroke-linecap:round; stroke-linejoin:round;">
</g>
<g style="fill:#B2803A; fill-opacity:1.0000; 
stroke:#B2803A; stroke-width:0.0000; stroke-opacity:1; 
stroke-linecap:round; stroke-linejoin:round;">
<circle cx="29.8900" cy="26.0000" r="0.9500" /> 
</g>
<g style="fill:#B2803A; fill-opacity:1.0000; 
stroke:#B2803A; stroke-width:0.0212; stroke-opacity:1; 
stroke-linecap:round; stroke-linejoin:round;">
</g>
<g style="fill:#B2803A; fill-opacity:1.0000; 
stroke:#B2803A; stroke-width:0.0000; stroke-opacity:1; 
stroke-linecap:round; stroke-linejoin:round;">
<circle cx="29.8900" cy="23.4600" r="0.9500" /> 
</g>
<g style="fill:#B2803A; fill-opacity:1.0000; 
stroke:#B2803A; stroke-width:0.0212; stroke-opacity:1; 
stroke-linecap:round; stroke-linejoin:round;">
</g>
<g style="fill:#B2803A; fill-opacity:1.0000; 
stroke:#B2803A; stroke-width:0.0000; stroke-opacity:1; 
stroke-linecap:round; stroke-linejoin:round;">
<circle cx="29.8900" cy="20.9200" r="0.9500" /> 
</g>
<g style="fill:#B2803A; fill-opacity:1.0000; 
stroke:#B2803A; stroke-width:0.0212; stroke-opacity:1; 
stroke-linecap:round; stroke-linejoin:round;">
</g>
<g style="fill:#B2803A; fill-opacity:1.0000; 
stroke:#B2803A; stroke-width:0.0000; stroke-opacity:1; 
stroke-linecap:round; stroke-linejoin:round;">
<circle cx="29.8900" cy="18.3800" r="0.9500" /> 
</g>
<g style="fill:#B2803A; fill-opacity:1.0000; 
stroke:#B2803A; stroke-width:0.0212; stroke-opacity:1; 
stroke-linecap:round; stroke-linejoin:round;">
</g>
<g style="fill:#B2803A; fill-opacity:1.0000; 
stroke:#B2803A; stroke-width:0.0000; stroke-opacity:1; 
stroke-linecap:round; stroke-linejoin:round;">
<circle cx="29.8900" cy="15.8400" r="0.9500" /> 
</g>
<g style="fill:#B2803A; fill-opacity:1.0000; 
stroke:#B2803A; stroke-width:0.0212; stroke-opacity:1; 
stroke-linecap:round; stroke-linejoin:round;">
</g>
<g style="fill:#B2803A; fill-opacity:1.0000; 
stroke:#B2803A; stroke-width:0.0000; stroke-opacity:1; 
stroke-linecap:round; stroke-linejoin:round;">
<circle cx="29.8900" cy="13.3000" r="0.9500" /> 
</g>
<g style="fill:#B2803A; fill-opacity:1.0000; 
stroke:#B2803A; stroke-width:0.0212; stroke-opacity:1; 
stroke-linecap:round; stroke-linejoin:round;">
</g>
<g style="fill:#B2803A; fill-opacity:1.0000; 
stroke:#B2803A; stroke-width:0.0000; stroke-opacity:1; 
stroke-linecap:round; stroke-linejoin:round;">
<circle cx="29.8900" cy="10.7600" r="0.9500" /> 
</g>
<g style="fill:#B2803A; fill-opacity:1.0000; 
stroke:#B2803A; stroke-width:0.0212; stroke-opacity:1; 
stroke-linecap:round; stroke-linejoin:round;">
</g>
<g >
</g>
<g >
</g>
<g >
</g>
<g >
</g>
</g>
<g style="fill:#000000; fill-opacity:1.0000; 
stroke:#000000; stroke-width:0.0212; stroke-opacity:1; 
stroke-linecap:round; stroke-linejoin:round;">
</g>
<g style="fill:#000000; fill-opacity:1.0000; 
stroke:#000000; stroke-width:0.0000; stroke-opacity:1; 
stroke-linecap:round; stroke-linejoin:round;">
<circle cx="6.7440" cy="5.4340" r="0.5004" /> 
</g>
<g style="fill:#000000; fill-opacity:1.0000; 
stroke:#000000; stroke-width:0.0212; stroke-opacity:1; 
stroke-linecap:round; stroke-linejoin:round;">
</g>
<g style="fill:#000000; fill-opacity:1.0000; 
stroke:#000000; stroke-width:0.0000; stroke-opacity:1; 
stroke-linecap:round; stroke-linejoin:round;">
<circle cx="6.7440" cy="20.4340" r="0.5004" /> 
</g>
<g style="fill:#000000; fill-opacity:1.0000; 
stroke:#000000; stroke-width:0.0212; stroke-opacity:1; 
stroke-linecap:round; stroke-linejoin:round;">
</g>
<g style="fill:#000000; fill-opacity:1.0000; 
stroke:#000000; stroke-width:0.0000; stroke-opacity:1; 
stroke-linecap:round; stroke-linejoin:round;">
<circle cx="4.2040" cy="37.5720" r="0.5080" /> 
</g>
<g style="fill:#000000; fill-opacity:1.0000; 
stroke:#000000; stroke-width:0.0212; stroke-opacity:1; 
stroke-linecap:round; stroke-linejoin:round;">
</g>
<g style="fill:#000000; fill-opacity:1.0000; 
stroke:#000000; stroke-width:0.0000; stroke-opacity:1; 
stroke-linecap:round; stroke-linejoin:round;">
<circle cx="4.2040" cy="35.0320" r="0.5080" /> 
</g>
<g style="fill:#000000; fill-opacity:1.0000; 
stroke:#000000; stroke-width:0.0212; stroke-opacity:1; 
stroke-linecap:round; stroke-linejoin:round;">
</g>
<g style="fill:#000000; fill-opacity:1.0000; 
stroke:#000000; stroke-width:0.0000; stroke-opacity:1; 
stroke-linecap:round; stroke-linejoin:round;">
<circle cx="4.2040" cy="32.4920" r="0.5080" /> 
</g>
<g style="fill:#000000; fill-opacity:1.0000; 
stroke:#000000; stroke-width:0.0212; stroke-opacity:1; 
stroke-linecap:round; stroke-linejoin:round;">
</g>
<g style="fill:#000000; fill-opacity:1.0000; 
stroke:#000000; stroke-width:0.0000; stroke-opacity:1; 
stroke-linecap:round; stroke-linejoin:round;">
<circle cx="12.1100" cy="10.7600" r="0.5100" /> 
</g>
<g style="fill:#000000; fill-opacity:1.0000; 
stroke:#000000; stroke-width:0.0212; stroke-opacity:1; 
stroke-linecap:round; stroke-linejoin:round;">
</g>
<g style="fill:#000000; fill-opacity:1.0000; 
stroke:#000000; stroke-width:0.0000; stroke-opacity:1; 
stroke-linecap:round; stroke-linejoin:round;">
<circle cx="12.1100" cy="13.3000" r="0.5100" /> 
</g>
<g style="fill:#000000; fill-opacity:1.0000; 
stroke:#000000; stroke-width:0.0212; stroke-opacity:1; 
stroke-linecap:round; stroke-linejoin:round;">
</g>
<g style="fill:#000000; fill-opacity:1.0000; 
stroke:#000000; stroke-width:0.0000; stroke-opacity:1; 
stroke-linecap:round; stroke-linejoin:round;">
<circle cx="12.1100" cy="15.8400" r="0.5100" /> 
</g>
<g style="fill:#000000; fill-opacity:1.0000; 
stroke:#000000; stroke-width:0.0212; stroke-opacity:1; 
stroke-linecap:round; stroke-linejoin:round;">
</g>
<g style="fill:#000000; fill-opacity:1.0000; 
stroke:#000000; stroke-width:0.0000; stroke-opacity:1; 
stroke-linecap:round; stroke-linejoin:round;">
<circle cx="12.1100" cy="18.3800" r="0.5100" /> 
</g>
<g style="fill:#000000; fill-opacity:1.0000; 
stroke:#000000; stroke-width:0.0212; stroke-opacity:1; 
stroke-linecap:round; stroke-linejoin:round;">
</g>
<g style="fill:#000000; fill-opacity:1.0000; 
stroke:#000000; stroke-width:0.0000; stroke-opacity:1; 
stroke-linecap:round; stroke-linejoin:round;">
<circle cx="12.1100" cy="20.9200" r="0.5100" /> 
</g>
<g style="fill:#000000; fill-opacity:1.0000; 
stroke:#000000; stroke-width:0.0212; stroke-opacity:1; 
stroke-linecap:round; stroke-linejoin:round;">
</g>
<g style="fill:#000000; fill-opacity:1.0000; 
stroke:#000000; stroke-width:0.0000; stroke-opacity:1; 
stroke-linecap:round; stroke-linejoin:round;">
<circle cx="12.1100" cy="23.4600" r="0.5100" /> 
</g>
<g style="fill:#000000; fill-opacity:1.0000; 
stroke:#000000; stroke-width:0.0212; stroke-opacity:1; 
stroke-linecap:round; stroke-linejoin:round;">
</g>
<g style="fill:#000000; fill-opacity:1.0000; 
stroke:#000000; stroke-width:0.0000; stroke-opacity:1; 
stroke-linecap:round; stroke-linejoin:round;">
<circle cx="12.1100" cy="26.0000" r="0.5100" /> 
</g>
<g style="fill:#000000; fill-opacity:1.0000; 
stroke:#000000; stroke-width:0.0212; stroke-opacity:1; 
stroke-linecap:round; stroke-linejoin:round;">
</g>
<g style="fill:#000000; fill-opacity:1.0000; 
stroke:#000000; stroke-width:0.0000; stroke-opacity:1; 
stroke-linecap:round; stroke-linejoin:round;">
<circle cx="12.1100" cy="28.5400" r="0.5100" /> 
</g>
<g style="fill:#000000; fill-opacity:1.0000; 
stroke:#000000; stroke-width:0.0212; stroke-opacity:1; 
stroke-linecap:round; stroke-linejoin:round;">
</g>
<g style="fill:#000000; fill-opacity:1.0000; 
stroke:#000000; stroke-width:0.0000; stroke-opacity:1; 
stroke-linecap:round; stroke-linejoin:round;">
<circle cx="12.1100" cy="31.0800" r="0.5100" /> 
</g>
<g style="fill:#000000; fill-opacity:1.0000; 
stroke:#000000; stroke-width:0.0212; stroke-opacity:1; 
stroke-linecap:round; stroke-linejoin:round;">
</g>
<g style="fill:#000000; fill-opacity:1.0000; 
stroke:#000000; stroke-width:0.0000; stroke-opacity:1; 
stroke-linecap:round; stroke-linejoin:round;">
<circle cx="12.1100" cy="33.6200" r="0.5100" /> 
</g>
<g style="fill:#000000; fill-opacity:1.0000; 
stroke:#000000; stroke-width:0.0212; stroke-opacity:1; 
stroke-linecap:round; stroke-linejoin:round;">
</g>
<g style="fill:#000000; fill-opacity:1.0000; 
stroke:#000000; stroke-width:0.0000; stroke-opacity:1; 
stroke-linecap:round; stroke-linejoin:round;">
<circle cx="12.1100" cy="36.1600" r="0.5100" /> 
</g>
<g style="fill:#000000; fill-opacity:1.0000; 
stroke:#000000; stroke-width:0.0212; stroke-opacity:1; 
stroke-linecap:round; stroke-linejoin:round;">
</g>
<g style="fill:#000000; fill-opacity:1.0000; 
stroke:#000000; stroke-width:0.0000; stroke-opacity:1; 
stroke-linecap:round; stroke-linejoin:round;">
<circle cx="12.1100" cy="38.7000" r="0.5100" /> 
</g>
<g style="fill:#000000; fill-opacity:1.0000; 
stroke:#000000; stroke-width:0.0212; stroke-opacity:1; 
stroke-linecap:round; stroke-linejoin:round;">
</g>
<g style="fill:#000000; fill-opacity:1.0000; 
stroke:#000000; stroke-width:0.0000; stroke-opacity:1; 
stroke-linecap:round; stroke-linejoin:round;">
<circle cx="29.8900" cy="38.7000" r="0.5100" /> 
</g>
<g style="fill:#000000; fill-opacity:1.0000; 
stroke:#000000; stroke-width:0.0212; stroke-opacity:1; 
stroke-linecap:round; stroke-linejoin:round;">
</g>
<g style="fill:#000000; fill-opacity:1.0000; 
stroke:#000000; stroke-width:0.0000; stroke-opacity:1; 
stroke-linecap:round; stroke-linejoin:round;">
<circle cx="29.8900" cy="36.1600" r="0.5100" /> 
</g>
<g style="fill:#000000; fill-opacity:1.0000; 
stroke:#000000; stroke-width:0.0212; stroke-opacity:1; 
stroke-linecap:round; stroke-linejoin:round;">
</g>
<g style="fill:#000000; fill-opacity:1.0000; 
stroke:#000000; stroke-width:0.0000; stroke-opacity:1; 
stroke-linecap:round; stroke-linejoin:round;">
<circle cx="29.8900" cy="33.6200" r="0.5100" /> 
</g>
<g style="fill:#000000; fill-opacity:1.0000; 
stroke:#000000; stroke-width:0.0212; stroke-opacity:1; 
stroke-linecap:round; stroke-linejoin:round;">
</g>
<g style="fill:#000000; fill-opacity:1.0000; 
stroke:#000000; stroke-width:0.0000; stroke-opacity:1; 
stroke-linecap:round; stroke-linejoin:round;">
<circle cx="29.8900" cy="31.0800" r="0.5100" /> 
</g>
<g style="fill:#000000; fill-opacity:1.0000; 
stroke:#000000; stroke-width:0.0212; stroke-opacity:1; 
stroke-linecap:round; stroke-linejoin:round;">
</g>
<g style="fill:#000000; fill-opacity:1.0000; 
stroke:#000000; stroke-width:0.0000; stroke-opacity:1; 
stroke-linecap:round; stroke-linejoin:round;">
<circle cx="29.8900" cy="28.5400" r="0.5100" /> 
</g>
<g style="fill:#000000; fill-opacity:1.0000; 
stroke:#000000; stroke-width:0.0212; stroke-opacity:1; 
stroke-linecap:round; stroke-linejoin:round;">
</g>
<g style="fill:#000000; fill-opacity:1.0000; 
stroke:#000000; stroke-width:0.0000; stroke-opacity:1; 
stroke-linecap:round; stroke-linejoin:round;">
<circle cx="29.8900" cy="26.0000" r="0.5100" /> 
</g>
<g style="fill:#000000; fill-opacity:1.0000; 
stroke:#000000; stroke-width:0.0212; stroke-opacity:1; 
stroke-linecap:round; stroke-linejoin:round;">
</g>
<g style="fill:#000000; fill-opacity:1.0000; 
stroke:#000000; stroke-width:0.0000; stroke-opacity:1; 
stroke-linecap:round; stroke-linejoin:round;">
<circle cx="29.8900" cy="23.4600" r="0.5100" /> 
</g>
<g style="fill:#000000; fill-opacity:1.0000; 
stroke:#000000; stroke-width:0.0212; stroke-opacity:1; 
stroke-linecap:round; stroke-linejoin:round;">
</g>
<g style="fill:#000000; fill-opacity:1.0000; 
stroke:#000000; stroke-width:0.0000; stroke-opacity:1; 
stroke-linecap:round; stroke-linejoin:round;">
<circle cx="29.8900" cy="20.9200" r="0.5100" /> 
</g>
<g style="fill:#000000; fill-opacity:1.0000; 
stroke:#000000; stroke-width:0.0212; stroke-opacity:1; 
stroke-linecap:round; stroke-linejoin:round;">
</g>
<g style="fill:#000000; fill-opacity:1.0000; 
stroke:#000000; stroke-width:0.0000; stroke-opacity:1; 
stroke-linecap:round; stroke-linejoin:round;">
<circle cx="29.8900" cy="18.3800" r="0.5100" /> 
</g>
<g style="fill:#000000; fill-opacity:1.0000; 
stroke:#000000; stroke-width:0.0212; stroke-opacity:1; 
stroke-linecap:round; stroke-linejoin:round;">
</g>
<g style="fill:#000000; fill-opacity:1.0000; 
stroke:#000000; stroke-width:0.0000; stroke-opacity:1; 
stroke-linecap:round; stroke-linejoin:round;">
<circle cx="29.8900" cy="15.8400" r="0.5100" /> 
</g>
<g style="fill:#000000; fill-opacity:1.0000; 
stroke:#000000; stroke-width:0.0212; stroke-opacity:1; 
stroke-linecap:round; stroke-linejoin:round;">
</g>
<g style="fill:#000000; fill-opacity:1.0000; 
stroke:#000000; stroke-width:0.0000; stroke-opacity:1; 
stroke-linecap:round; stroke-linejoin:round;">
<circle cx="29.8900" cy="13.3000" r="0.5100" /> 
</g>
<g style="fill:#000000; fill-opacity:1.0000; 
stroke:#000000; stroke-width:0.0212; stroke-opacity:1; 
stroke-linecap:round; stroke-linejoin:round;">
</g>
<g style="fill:#000000; fill-opacity:1.0000; 
stroke:#000000; stroke-width:0.0000; stroke-opacity:1; 
stroke-linecap:round; stroke-linejoin:round;">
<circle cx="29.8900" cy="10.7600" r="0.5100" /> 
</g>
<g style="fill:#000000; fill-opacity:1.0000; 
stroke:#000000; stroke-width:0.0212; stroke-opacity:1; 
stroke-linecap:round; stroke-linejoin:round;">
</g>
<g style="fill:#FFFFFF; fill-opacity:1.0000; 
stroke:#FFFFFF; stroke-width:0.0212; stroke-opacity:1; 
stroke-linecap:round; stroke-linejoin:round;">
<g >
</g>
<g style="fill:#37CBCB; fill-opacity:1.0000; 
stroke:#37CBCB; stroke-width:0.0212; stroke-opacity:1; 
stroke-linecap:round; stroke-linejoin:round;">
</g>
<g style="fill:#37CBCB; fill-opacity:1.0000; 
stroke:#37CBCB; stroke-width:0.0000; stroke-opacity:1; 
stroke-linecap:round; stroke-linejoin:round;">
<circle cx="6.7440" cy="5.4340" r="0.9995" /> 
</g>
<g style="fill:#37CBCB; fill-opacity:1.0000; 
stroke:#37CBCB; stroke-width:0.0212; stroke-opacity:1; 
stroke-linecap:round; stroke-linejoin:round;">
</g>
<g style="fill:#37CBCB; fill-opacity:1.0000; 
stroke:#37CBCB; stroke-width:0.0000; stroke-opacity:1; 
stroke-linecap:round; stroke-linejoin:round;">
<circle cx="6.7440" cy="20.4340" r="0.9995" /> 
</g>
<g style="fill:#37CBCB; fill-opacity:1.0000; 
stroke:#37CBCB; stroke-width:0.0212; stroke-opacity:1; 
stroke-linecap:round; stroke-linejoin:round;">
</g>
<g >
</g>
<g style="fill:#37CBCB; fill-opacity:1.0000; 
stroke:#37CBCB; stroke-width:0.0212; stroke-opacity:1; 
stroke-linecap:round; stroke-linejoin:round;">
</g>
<g style="fill:#37CBCB; fill-opacity:1.0000; 
stroke:#37CBCB; stroke-width:0.0000; stroke-opacity:1; 
stroke-linecap:round; stroke-linejoin:round;">
<path style="fill:#37CBCB; fill-opacity:1.0000; 
stroke:#37CBCB; stroke-width:0.0000; stroke-opacity:1; 
stroke-linecap:round; stroke-linejoin:round;fill-rule:evenodd;"
d="M 5.2040,38.5720
3.2040,38.5720
3.2040,36.5720
5.2040,36.5720
Z" /> 
<circle cx="4.2040" cy="35.0320" r="1.0000" /> 
</g>
<g style="fill:#37CBCB; fill-opacity:1.0000; 
stroke:#37CBCB; stroke-width:0.0212; stroke-opacity:1; 
stroke-linecap:round; stroke-linejoin:round;">
</g>
<g style="fill:#37CBCB; fill-opacity:1.0000; 
stroke:#37CBCB; stroke-width:0.0000; stroke-opacity:1; 
stroke-linecap:round; stroke-linejoin:round;">
<circle cx="4.2040" cy="32.4920" r="1.0000" /> 
</g>
<g style="fill:#37CBCB; fill-opacity:1.0000; 
stroke:#37CBCB; stroke-width:0.0212; stroke-opacity:1; 
stroke-linecap:round; stroke-linejoin:round;">
</g>
<g >
</g>
<g style="fill:#37CBCB; fill-opacity:1.0000; 
stroke:#37CBCB; stroke-width:0.0212; stroke-opacity:1; 
stroke-linecap:round; stroke-linejoin:round;">
</g>
<g style="fill:#37CBCB; fill-opacity:1.0000; 
stroke:#37CBCB; stroke-width:0.0000; stroke-opacity:1; 
stroke-linecap:round; stroke-linejoin:round;">
<circle cx="12.1100" cy="10.7600" r="0.9500" /> 
</g>
<g style="fill:#37CBCB; fill-opacity:1.0000; 
stroke:#37CBCB; stroke-width:0.0212; stroke-opacity:1; 
stroke-linecap:round; stroke-linejoin:round;">
</g>
<g style="fill:#37CBCB; fill-opacity:1.0000; 
stroke:#37CBCB; stroke-width:0.0000; stroke-opacity:1; 
stroke-linecap:round; stroke-linejoin:round;">
<circle cx="12.1100" cy="13.3000" r="0.9500" /> 
</g>
<g style="fill:#37CBCB; fill-opacity:1.0000; 
stroke:#37CBCB; stroke-width:0.0212; stroke-opacity:1; 
stroke-linecap:round; stroke-linejoin:round;">
</g>
<g style="fill:#37CBCB; fill-opacity:1.0000; 
stroke:#37CBCB; stroke-width:0.0000; stroke-opacity:1; 
stroke-linecap:round; stroke-linejoin:round;">
<circle cx="12.1100" cy="15.8400" r="0.9500" /> 
</g>
<g style="fill:#37CBCB; fill-opacity:1.0000; 
stroke:#37CBCB; stroke-width:0.0212; stroke-opacity:1; 
stroke-linecap:round; stroke-linejoin:round;">
</g>
<g style="fill:#37CBCB; fill-opacity:1.0000; 
stroke:#37CBCB; stroke-width:0.0000; stroke-opacity:1; 
stroke-linecap:round; stroke-linejoin:round;">
<circle cx="12.1100" cy="18.3800" r="0.9500" /> 
</g>
<g style="fill:#37CBCB; fill-opacity:1.0000; 
stroke:#37CBCB; stroke-width:0.0212; stroke-opacity:1; 
stroke-linecap:round; stroke-linejoin:round;">
</g>
<g style="fill:#37CBCB; fill-opacity:1.0000; 
stroke:#37CBCB; stroke-width:0.0000; stroke-opacity:1; 
stroke-linecap:round; stroke-linejoin:round;">
<circle cx="12.1100" cy="20.9200" r="0.9500" /> 
</g>
<g style="fill:#37CBCB; fill-opacity:1.0000; 
stroke:#37CBCB; stroke-width:0.0212; stroke-opacity:1; 
stroke-linecap:round; stroke-linejoin:round;">
</g>
<g style="fill:#37CBCB; fill-opacity:1.0000; 
stroke:#37CBCB; stroke-width:0.0000; stroke-opacity:1; 
stroke-linecap:round; stroke-linejoin:round;">
<circle cx="12.1100" cy="23.4600" r="0.9500" /> 
</g>
<g style="fill:#37CBCB; fill-opacity:1.0000; 
stroke:#37CBCB; stroke-width:0.0212; stroke-opacity:1; 
stroke-linecap:round; stroke-linejoin:round;">
</g>
<g style="fill:#37CBCB; fill-opacity:1.0000; 
stroke:#37CBCB; stroke-width:0.0000; stroke-opacity:1; 
stroke-linecap:round; stroke-linejoin:round;">
<circle cx="12.1100" cy="26.0000" r="0.9500" /> 
</g>
<g style="fill:#37CBCB; fill-opacity:1.0000; 
stroke:#37CBCB; stroke-width:0.0212; stroke-opacity:1; 
stroke-linecap:round; stroke-linejoin:round;">
</g>
<g style="fill:#37CBCB; fill-opacity:1.0000; 
stroke:#37CBCB; stroke-width:0.0000; stroke-opacity:1; 
stroke-linecap:round; stroke-linejoin:round;">
<circle cx="12.1100" cy="28.5400" r="0.9500" /> 
</g>
<g style="fill:#37CBCB; fill-opacity:1.0000; 
stroke:#37CBCB; stroke-width:0.0212; stroke-opacity:1; 
stroke-linecap:round; stroke-linejoin:round;">
</g>
<g style="fill:#37CBCB; fill-opacity:1.0000; 
stroke:#37CBCB; stroke-width:0.0000; stroke-opacity:1; 
stroke-linecap:round; stroke-linejoin:round;">
<circle cx="12.1100" cy="31.0800" r="0.9500" /> 
</g>
<g style="fill:#37CBCB; fill-opacity:1.0000; 
stroke:#37CBCB; stroke-width:0.0212; stroke-opacity:1; 
stroke-linecap:round; stroke-linejoin:round;">
</g>
<g style="fill:#37CBCB; fill-opacity:1.0000; 
stroke:#37CBCB; stroke-width:0.0000; stroke-opacity:1; 
stroke-linecap:round; stroke-linejoin:round;">
<circle cx="12.1100" cy="33.6200" r="0.9500" /> 
</g>
<g style="fill:#37CBCB; fill-opacity:1.0000; 
stroke:#37CBCB; stroke-width:0.0212; stroke-opacity:1; 
stroke-linecap:round; stroke-linejoin:round;">
</g>
<g style="fill:#37CBCB; fill-opacity:1.0000; 
stroke:#37CBCB; stroke-width:0.0000; stroke-opacity:1; 
stroke-linecap:round; stroke-linejoin:round;">
<circle cx="12.1100" cy="36.1600" r="0.9500" /> 
</g>
<g style="fill:#37CBCB; fill-opacity:1.0000; 
stroke:#37CBCB; stroke-width:0.0212; stroke-opacity:1; 
stroke-linecap:round; stroke-linejoin:round;">
</g>
<g style="fill:#37CBCB; fill-opacity:1.0000; 
stroke:#37CBCB; stroke-width:0.0000; stroke-opacity:1; 
stroke-linecap:round; stroke-linejoin:round;">
<circle cx="12.1100" cy="38.7000" r="0.9500" /> 
</g>
<g style="fill:#37CBCB; fill-opacity:1.0000; 
stroke:#37CBCB; stroke-width:0.0212; stroke-opacity:1; 
stroke-linecap:round; stroke-linejoin:round;">
</g>
<g style="fill:#37CBCB; fill-opacity:1.0000; 
stroke:#37CBCB; stroke-width:0.0000; stroke-opacity:1; 
stroke-linecap:round; stroke-linejoin:round;">
<circle cx="29.8900" cy="38.7000" r="0.9500" /> 
</g>
<g style="fill:#37CBCB; fill-opacity:1.0000; 
stroke:#37CBCB; stroke-width:0.0212; stroke-opacity:1; 
stroke-linecap:round; stroke-linejoin:round;">
</g>
<g style="fill:#37CBCB; fill-opacity:1.0000; 
stroke:#37CBCB; stroke-width:0.0000; stroke-opacity:1; 
stroke-linecap:round; stroke-linejoin:round;">
<circle cx="29.8900" cy="36.1600" r="0.9500" /> 
</g>
<g style="fill:#37CBCB; fill-opacity:1.0000; 
stroke:#37CBCB; stroke-width:0.0212; stroke-opacity:1; 
stroke-linecap:round; stroke-linejoin:round;">
</g>
<g style="fill:#37CBCB; fill-opacity:1.0000; 
stroke:#37CBCB; stroke-width:0.0000; stroke-opacity:1; 
stroke-linecap:round; stroke-linejoin:round;">
<circle cx="29.8900" cy="33.6200" r="0.9500" /> 
</g>
<g style="fill:#37CBCB; fill-opacity:1.0000; 
stroke:#37CBCB; stroke-width:0.0212; stroke-opacity:1; 
stroke-linecap:round; stroke-linejoin:round;">
</g>
<g style="fill:#37CBCB; fill-opacity:1.0000; 
stroke:#37CBCB; stroke-width:0.0000; stroke-opacity:1; 
stroke-linecap:round; stroke-linejoin:round;">
<circle cx="29.8900" cy="31.0800" r="0.9500" /> 
</g>
<g style="fill:#37CBCB; fill-opacity:1.0000; 
stroke:#37CBCB; stroke-width:0.0212; stroke-opacity:1; 
stroke-linecap:round; stroke-linejoin:round;">
</g>
<g style="fill:#37CBCB; fill-opacity:1.0000; 
stroke:#37CBCB; stroke-width:0.0000; stroke-opacity:1; 
stroke-linecap:round; stroke-linejoin:round;">
<circle cx="29.8900" cy="28.5400" r="0.9500" /> 
</g>
<g style="fill:#37CBCB; fill-opacity:1.0000; 
stroke:#37CBCB; stroke-width:0.0212; stroke-opacity:1; 
stroke-linecap:round; stroke-linejoin:round;">
</g>
<g style="fill:#37CBCB; fill-opacity:1.0000; 
stroke:#37CBCB; stroke-width:0.0000; stroke-opacity:1; 
stroke-linecap:round; stroke-linejoin:round;">
<circle cx="29.8900" cy="26.0000" r="0.9500" /> 
</g>
<g style="fill:#37CBCB; fill-opacity:1.0000; 
stroke:#37CBCB; stroke-width:0.0212; stroke-opacity:1; 
stroke-linecap:round; stroke-linejoin:round;">
</g>
<g style="fill:#37CBCB; fill-opacity:1.0000; 
stroke:#37CBCB; stroke-width:0.0000; stroke-opacity:1; 
stroke-linecap:round; stroke-linejoin:round;">
<circle cx="29.8900" cy="23.4600" r="0.9500" /> 
</g>
<g style="fill:#37CBCB; fill-opacity:1.0000; 
stroke:#37CBCB; stroke-width:0.0212; stroke-opacity:1; 
stroke-linecap:round; stroke-linejoin:round;">
</g>
<g style="fill:#37CBCB; fill-opacity:1.0000; 
stroke:#37CBCB; stroke-width:0.0000; stroke-opacity:1; 
stroke-linecap:round; stroke-linejoin:round;">
<circle cx="29.8900" cy="20.9200" r="0.9500" /> 
</g>
<g style="fill:#37CBCB; fill-opacity:1.0000; 
stroke:#37CBCB; stroke-width:0.0212; stroke-opacity:1; 
stroke-linecap:round; stroke-linejoin:round;">
</g>
<g style="fill:#37CBCB; fill-opacity:1.0000; 
stroke:#37CBCB; stroke-width:0.0000; stroke-opacity:1; 
stroke-linecap:round; stroke-linejoin:round;">
<circle cx="29.8900" cy="18.3800" r="0.9500" /> 
</g>
<g style="fill:#37CBCB; fill-opacity:1.0000; 
stroke:#37CBCB; stroke-width:0.0212; stroke-opacity:1; 
stroke-linecap:round; stroke-linejoin:round;">
</g>
<g style="fill:#37CBCB; fill-opacity:1.0000; 
stroke:#37CBCB; stroke-width:0.0000; stroke-opacity:1; 
stroke-linecap:round; stroke-linejoin:round;">
<circle cx="29.8900" cy="15.8400" r="0.9500" /> 
</g>
<g style="fill:#37CBCB; fill-opacity:1.0000; 
stroke:#37CBCB; stroke-width:0.0212; stroke-opacity:1; 
stroke-linecap:round; stroke-linejoin:round;">
</g>
<g style="fill:#37CBCB; fill-opacity:1.0000; 
stroke:#37CBCB; stroke-width:0.0000; stroke-opacity:1; 
stroke-linecap:round; stroke-linejoin:round;">
<circle cx="29.8900" cy="13.3000" r="0.9500" /> 
</g>
<g style="fill:#37CBCB; fill-opacity:1.0000; 
stroke:#37CBCB; stroke-width:0.0212; stroke-opacity:1; 
stroke-linecap:round; stroke-linejoin:round;">
</g>
<g style="fill:#37CBCB; fill-opacity:1.0000; 
stroke:#37CBCB; stroke-width:0.0000; stroke-opacity:1; 
stroke-linecap:round; stroke-linejoin:round;">
<circle cx="29.8900" cy="10.7600" r="0.9500" /> 
</g>
<g style="fill:#37CBCB; fill-opacity:1.0000; 
stroke:#37CBCB; stroke-width:0.0212; stroke-opacity:1; 
stroke-linecap:round; stroke-linejoin:round;">
</g>
<g >
</g>
<g style="fill:#37CBCB; fill-opacity:1.0000; 
stroke:#37CBCB; stroke-width:0.0212; stroke-opacity:1; 
stroke-linecap:round; stroke-linejoin:round;">
</g>
<g style="fill:#37CBCB; fill-opacity:1.0000; 
stroke:#37CBCB; stroke-width:0.0000; stroke-opacity:1; 
stroke-linecap:round; stroke-linejoin:round;">
<path style="fill:#37CBCB; fill-opacity:1.0000; 
stroke:#37CBCB; stroke-width:0.0000; stroke-opacity:1; 
stroke-linecap:round; stroke-linejoin:round;fill-rule:evenodd;"
d="M 16.1801,18.9487
16.1801,20.1273
17.6787,20.4067
17.6787,18.6693
Z" /> 
<path style="fill:#37CBCB; fill-opacity:1.0000; 
stroke:#37CBCB; stroke-width:0.0000; stroke-opacity:1; 
stroke-linecap:round; stroke-linejoin:round;fill-rule:evenodd;"
d="M 18.0380,15.6476
17.2046,16.4810
18.0667,17.7382
19.2952,16.5097
Z" /> 
<path style="fill:#37CBCB; fill-opacity:1.0000; 
stroke:#37CBCB; stroke-width:0.0000; stroke-opacity:1; 
stroke-linecap:round; stroke-linejoin:round;fill-rule:evenodd;"
d="M 17.2046,22.5950
18.0380,23.4284
19.2952,22.5663
18.0667,21.3378
Z" /> 
<path style="fill:#37CBCB; fill-opacity:1.0000; 
stroke:#37CBCB; stroke-width:0.0000; stroke-opacity:1; 
stroke-linecap:round; stroke-linejoin:round;fill-rule:evenodd;"
d="M 17.5542,18.7900
17.5542,20.2860
19.8453,19.8720
19.8453,19.2040
Z" /> 
<path style="fill:#37CBCB; fill-opacity:1.0000; 
stroke:#37CBCB; stroke-width:0.0000; stroke-opacity:1; 
stroke-linecap:round; stroke-linejoin:round;fill-rule:evenodd;"
d="M 18.1106,17.4941
17.5381,18.8763
19.8132,19.3706
20.0688,18.7534
Z" /> 
<path style="fill:#37CBCB; fill-opacity:1.0000; 
stroke:#37CBCB; stroke-width:0.0000; stroke-opacity:1; 
stroke-linecap:round; stroke-linejoin:round;fill-rule:evenodd;"
d="M 17.5381,20.1997
18.1106,21.5819
20.0688,20.3226
19.8132,19.7054
Z" /> 
<path style="fill:#37CBCB; fill-opacity:1.0000; 
stroke:#37CBCB; stroke-width:0.0000; stroke-opacity:1; 
stroke-linecap:round; stroke-linejoin:round;fill-rule:evenodd;"
d="M 19.1223,16.5074
18.0644,17.5653
19.9772,18.8926
20.4496,18.4202
Z" /> 
<path style="fill:#37CBCB; fill-opacity:1.0000; 
stroke:#37CBCB; stroke-width:0.0000; stroke-opacity:1; 
stroke-linecap:round; stroke-linejoin:round;fill-rule:evenodd;"
d="M 18.0644,21.5107
19.1223,22.5686
20.4496,20.6558
19.9772,20.1834
Z" /> 
<path style="fill:#37CBCB; fill-opacity:1.0000; 
stroke:#37CBCB; stroke-width:0.0000; stroke-opacity:1; 
stroke-linecap:round; stroke-linejoin:round;fill-rule:evenodd;"
d="M 18.8193,22.2745
19.4427,22.6903
20.5406,20.6686
20.2638,20.4840
Z" /> 
<path style="fill:#37CBCB; fill-opacity:1.0000; 
stroke:#37CBCB; stroke-width:0.0000; stroke-opacity:1; 
stroke-linecap:round; stroke-linejoin:round;fill-rule:evenodd;"
d="M 20.4333,15.9811
19.0511,16.5536
20.3104,18.5118
20.9276,18.2562
Z" /> 
<path style="fill:#37CBCB; fill-opacity:1.0000; 
stroke:#37CBCB; stroke-width:0.0000; stroke-opacity:1; 
stroke-linecap:round; stroke-linejoin:round;fill-rule:evenodd;"
d="M 21.6843,14.6231
20.5057,14.6231
20.2263,16.1217
21.9637,16.1217
Z" /> 
<path style="fill:#37CBCB; fill-opacity:1.0000; 
stroke:#37CBCB; stroke-width:0.0000; stroke-opacity:1; 
stroke-linecap:round; stroke-linejoin:round;fill-rule:evenodd;"
d="M 21.8430,15.9972
20.3470,15.9972
20.7610,18.2883
21.4290,18.2883
Z" /> 
<path style="fill:#37CBCB; fill-opacity:1.0000; 
stroke:#37CBCB; stroke-width:0.0000; stroke-opacity:1; 
stroke-linecap:round; stroke-linejoin:round;fill-rule:evenodd;"
d="M 23.1389,16.5536
21.7567,15.9811
21.2624,18.2562
21.8796,18.5118
Z" /> 
<path style="fill:#37CBCB; fill-opacity:1.0000; 
stroke:#37CBCB; stroke-width:0.0000; stroke-opacity:1; 
stroke-linecap:round; stroke-linejoin:round;fill-rule:evenodd;"
d="M 22.7473,22.6903
23.3707,22.2745
21.9262,20.4840
21.6494,20.6686
Z" /> 
<path style="fill:#37CBCB; fill-opacity:1.0000; 
stroke:#37CBCB; stroke-width:0.0000; stroke-opacity:1; 
stroke-linecap:round; stroke-linejoin:round;fill-rule:evenodd;"
d="M 24.1256,17.5653
23.0677,16.5074
21.7404,18.4202
22.2128,18.8926
Z" /> 
<path style="fill:#37CBCB; fill-opacity:1.0000; 
stroke:#37CBCB; stroke-width:0.0000; stroke-opacity:1; 
stroke-linecap:round; stroke-linejoin:round;fill-rule:evenodd;"
d="M 23.0677,22.5686
24.1256,21.5107
22.2128,20.1834
21.7404,20.6558
Z" /> 
<path style="fill:#37CBCB; fill-opacity:1.0000; 
stroke:#37CBCB; stroke-width:0.0000; stroke-opacity:1; 
stroke-linecap:round; stroke-linejoin:round;fill-rule:evenodd;"
d="M 24.6519,18.8763
24.0794,17.4941
22.1212,18.7534
22.3768,19.3706
Z" /> 
<path style="fill:#37CBCB; fill-opacity:1.0000; 
stroke:#37CBCB; stroke-width:0.0000; stroke-opacity:1; 
stroke-linecap:round; stroke-linejoin:round;fill-rule:evenodd;"
d="M 24.0794,21.5819
24.6519,20.1997
22.3768,19.7054
22.1212,20.3226
Z" /> 
<path style="fill:#37CBCB; fill-opacity:1.0000; 
stroke:#37CBCB; stroke-width:0.0000; stroke-opacity:1; 
stroke-linecap:round; stroke-linejoin:round;fill-rule:evenodd;"
d="M 24.6358,20.2860
24.6358,18.7900
22.3447,19.2040
22.3447,19.8720
Z" /> 
<path style="fill:#37CBCB; fill-opacity:1.0000; 
stroke:#37CBCB; stroke-width:0.0000; stroke-opacity:1; 
stroke-linecap:round; stroke-linejoin:round;fill-rule:evenodd;"
d="M 24.9854,16.4810
24.1520,15.6476
22.8948,16.5097
24.1233,17.7382
Z" /> 
<path style="fill:#37CBCB; fill-opacity:1.0000; 
stroke:#37CBCB; stroke-width:0.0000; stroke-opacity:1; 
stroke-linecap:round; stroke-linejoin:round;fill-rule:evenodd;"
d="M 24.1520,23.4284
24.9854,22.5950
24.1233,21.3378
22.8948,22.5663
Z" /> 
<path style="fill:#37CBCB; fill-opacity:1.0000; 
stroke:#37CBCB; stroke-width:0.0000; stroke-opacity:1; 
stroke-linecap:round; stroke-linejoin:round;fill-rule:evenodd;"
d="M 26.0099,20.1273
26.0099,18.9487
24.5113,18.6693
24.5113,20.4067
Z" /> 
</g>
<g >
</g>
<g >
</g>
<g style="fill:#37CBCB; fill-opacity:1.0000; 
stroke:#37CBCB; stroke-width:0.0000; stroke-opacity:1; 
stroke-linecap:round; stroke-linejoin:round;">
</g>
<g style="fill:#37CBCB; fill-opacity:1.0000; 
stroke:#37CBCB; stroke-width:1.0000; stroke-opacity:1; 
stroke-linecap:round; stroke-linejoin:round;">
</g>
<g style="fill:#37CBCB; fill-opacity:0.0; 
stroke:#37CBCB; stroke-width:1.0000; stroke-opacity:1; 
stroke-linecap:round; stroke-linejoin:round;">
<path d="M4.2040 24.8720
L3.1880 22.8400
" />
<path d="M3.1880 7.3460
L4.9660 5.5680
" />
<path d="M29.8900 10.7600
L26.1600 10.7600
" />
<path d="M20.8340 5.4340
L6.7440 5.4340
" />
<path d="M3.1880 22.8400
L3.1880 7.3460
" />
<path d="M26.1600 10.7600
L20.8340 5.4340
" />
<path d="M4.2040 32.4920
L4.2040 24.8720
" />
<path d="M6.7440 5.4340
L4.9660 5.5680
" />
<path d="M6.7440 35.0320
L4.2040 35.0320
" />
<path d="M8.2680 33.5080
L8.2680 23.8560
" />
<path d="M8.2680 23.8560
L6.7440 20.4340
" />
<path d="M8.2680 36.5560
L8.2680 38.5880
" />
<path d="M8.2680 38.5880
L8.2680 47.2240
" />
<path d="M8.2680 47.2240
L9.7920 48.7480
" />
<path d="M9.7920 48.7480
L32.1440 48.7480
" />
<path d="M32.1440 48.7480
L33.6680 47.2240
" />
<path d="M33.6680 47.2240
L33.6680 43.9220
" />
<path d="M32.5100 38.7000
L33.6680 39.8580
" />
<path d="M33.6680 39.8580
L33.6680 43.9220
" />
<path d="M29.8900 38.7000
L32.5100 38.7000
" />
<path d="M6.7440 35.0320
L8.2680 33.5080
" />
<path d="M8.2680 36.5560
L6.7440 35.0320
" />
</g>
<g style="fill:#37CBCB; fill-opacity:0.0; 
stroke:#37CBCB; stroke-width:0.2540; stroke-opacity:1; 
stroke-linecap:round; stroke-linejoin:round;">
<path d="M30.0500 36.0000
L29.8900 36.1600
" />
</g>
<g >
</g>
<g style="fill:#37CBCB; fill-opacity:0.0; 
stroke:#37CBCB; stroke-width:0.2540; stroke-opacity:1; 
stroke-linecap:round; stroke-linejoin:round;">
<g >
</g>
<g style="fill:#37CBCB; fill-opacity:1.0000; 
stroke:#37CBCB; stroke-width:0.0000; stroke-opacity:1; 
stroke-linecap:round; stroke-linejoin:round;">
<path style="fill:#37CBCB; fill-opacity:1.0000; 
stroke:#37CBCB; stroke-width:0.0000; stroke-opacity:1; 
stroke-linecap:round; stroke-linejoin:round;fill-rule:evenodd;"
d="M 20.4848,6.3355
20.5058,6.3524
25.5095,11.3562
25.5130,11.3599
25.5502,11.4037
25.6171,11.4546
25.6824,11.5071
25.6824,11.5071
25.6825,11.5071
25.6825,11.5071
25.6825,11.5071
25.7028,11.5197
25.7029,11.5198
25.7029,11.5198
25.7791,11.5550
25.8038,11.5673
25.8542,11.5923
25.8543,11.5923
25.8768,11.6003
25.8769,11.6003
25.9588,11.6183
25.9588,11.6183
26.0403,11.6386
26.0403,11.6386
26.0403,11.6386
26.0404,11.6386
26.0641,11.6415
26.0641,11.6415
26.0641,11.6415
26.1481,11.6415
26.2320,11.6438
26.2320,11.6438
26.2558,11.6415
28.8363,11.6415
28.9044,11.6615
28.9254,11.6784
29.0309,11.7839
29.0309,11.7839
29.2217,11.9175
29.2265,11.9203
29.2253,11.9222
29.2713,11.9627
29.2908,12.0310
29.2702,12.0990
29.2254,12.1378
29.2265,12.1397
29.2217,12.1425
29.0309,12.2761
29.0309,12.2761
28.8661,12.4409
28.8661,12.4409
28.7325,12.6317
28.6340,12.8429
28.6340,12.8429
28.5899,13.0076
28.5737,13.0679
28.5534,13.3000
28.5737,13.5321
28.6019,13.6374
28.6277,13.7335
28.6340,13.7571
28.7325,13.9683
28.8661,14.1591
29.0309,14.3239
29.0309,14.3239
29.2217,14.4575
29.2265,14.4603
29.2253,14.4622
29.2713,14.5027
29.2908,14.5710
29.2702,14.6390
29.2254,14.6778
29.2265,14.6797
29.2217,14.6825
29.0309,14.8161
29.0309,14.8161
28.8661,14.9809
28.8661,14.9809
28.7325,15.1717
28.6340,15.3829
28.6340,15.3829
28.5899,15.5476
28.5737,15.6079
28.5534,15.8400
28.5737,16.0721
28.6060,16.1927
28.6340,16.2971
28.6340,16.2971
28.7325,16.5083
28.8336,16.6528
28.8661,16.6991
29.0309,16.8639
29.0309,16.8639
29.2217,16.9975
29.2265,17.0003
29.2254,17.0021
29.2719,17.0430
29.2914,17.1113
29.2708,17.1792
29.2257,17.2184
29.2267,17.2202
29.2220,17.2229
29.0928,17.3134
29.0928,17.3134
29.6901,17.9106
29.6114,17.9465
29.5006,18.0426
29.4213,18.1660
29.4180,18.1774
28.8234,17.5828
28.8234,17.5828
28.7329,17.7120
28.6345,17.9230
28.6345,17.9230
28.5742,18.1480
28.5539,18.3800
28.5742,18.6120
28.6345,18.8370
28.6345,18.8370
28.7329,19.0480
28.8234,19.1772
28.8234,19.1772
29.4180,18.5826
29.4213,18.5940
29.5006,18.7174
29.6114,18.8135
29.6901,18.8494
29.0928,19.4466
29.0928,19.4466
29.2220,19.5371
29.2267,19.5398
29.2256,19.5417
29.2719,19.5824
29.2914,19.6507
29.2708,19.7187
29.2255,19.7580
29.2265,19.7597
29.2217,19.7625
29.0309,19.8961
29.0309,19.8961
28.8661,20.0609
28.8661,20.0609
28.7325,20.2517
28.6340,20.4629
28.6340,20.4629
28.5899,20.6276
28.5737,20.6879
28.5534,20.9200
28.5737,21.1521
28.6060,21.2727
28.6223,21.3336
28.6340,21.3771
28.7325,21.5883
28.7325,21.5883
28.8573,21.7666
28.8661,21.7791
29.0309,21.9439
29.0309,21.9439
29.2217,22.0775
29.2265,22.0803
29.2253,22.0822
29.2713,22.1227
29.2908,22.1910
29.2702,22.2590
29.2254,22.2978
29.2265,22.2997
29.2217,22.3025
29.0309,22.4361
29.0309,22.4361
28.8661,22.6009
28.8661,22.6009
28.7325,22.7917
28.6340,23.0029
28.6340,23.0029
28.5950,23.1485
28.5737,23.2279
28.5534,23.4600
28.5737,23.6921
28.6340,23.9171
28.7325,24.1283
28.8661,24.3191
29.0309,24.4839
29.0309,24.4839
29.2217,24.6175
29.2265,24.6203
29.2253,24.6222
29.2713,24.6627
29.2908,24.7310
29.2702,24.7990
29.2254,24.8378
29.2265,24.8397
29.2217,24.8425
29.0309,24.9761
29.0309,24.9761
28.8661,25.1409
28.8661,25.1409
28.7325,25.3317
28.6340,25.5429
28.6340,25.5429
28.5899,25.7076
28.5737,25.7679
28.5534,26.0000
28.5737,26.2321
28.6340,26.4571
28.7325,26.6683
28.8661,26.8591
29.0309,27.0239
29.0309,27.0239
29.2217,27.1575
29.2265,27.1603
29.2253,27.1622
29.2713,27.2027
29.2908,27.2710
29.2702,27.3390
29.2254,27.3778
29.2265,27.3797
29.2217,27.3825
29.0309,27.5161
29.0309,27.5161
28.8661,27.6809
28.8661,27.6809
28.7325,27.8717
28.6340,28.0829
28.6340,28.0829
28.5899,28.2476
28.5737,28.3079
28.5534,28.5400
28.5737,28.7721
28.6340,28.9971
28.7325,29.2083
28.8661,29.3991
29.0309,29.5639
29.0309,29.5639
29.2217,29.6975
29.2265,29.7003
29.2253,29.7022
29.2713,29.7427
29.2908,29.8110
29.2702,29.8790
29.2254,29.9178
29.2265,29.9197
29.2217,29.9225
29.0309,30.0561
29.0309,30.0561
28.8661,30.2209
28.8661,30.2209
28.7325,30.4117
28.6340,30.6229
28.6340,30.6229
28.5899,30.7876
28.5737,30.8479
28.5534,31.0800
28.5737,31.3121
28.5881,31.3659
28.6166,31.4721
28.6340,31.5371
28.7325,31.7483
28.8661,31.9391
29.0309,32.1039
29.0309,32.1039
29.2217,32.2375
29.2265,32.2403
29.2253,32.2422
29.2713,32.2827
29.2908,32.3510
29.2702,32.4190
29.2254,32.4578
29.2265,32.4597
29.2217,32.4625
29.0309,32.5961
29.0309,32.5961
28.8661,32.7609
28.8661,32.7609
28.7325,32.9517
28.6340,33.1629
28.6340,33.1629
28.5899,33.3276
28.5737,33.3879
28.5534,33.6200
28.5737,33.8521
28.5782,33.8686
28.6166,34.0121
28.6340,34.0771
28.7325,34.2883
28.8661,34.4791
29.0309,34.6439
29.0309,34.6439
29.2217,34.7775
29.2265,34.7803
29.2253,34.7822
29.2713,34.8227
29.2908,34.8910
29.2702,34.9590
29.2254,34.9978
29.2265,34.9997
29.2217,35.0025
29.0309,35.1361
29.0309,35.1361
28.8661,35.3009
28.8661,35.3009
28.7325,35.4917
28.6340,35.7029
28.6340,35.7029
28.5906,35.8649
28.5765,35.9176
28.5737,35.9279
28.5630,36.0501
28.5534,36.1600
28.5737,36.3921
28.5924,36.4618
28.6340,36.6171
28.6340,36.6171
28.7325,36.8283
28.7716,36.8842
28.8661,37.0191
29.0309,37.1839
29.0309,37.1839
29.2217,37.3175
29.2265,37.3203
29.2253,37.3222
29.2713,37.3627
29.2908,37.4309
29.2703,37.4989
29.2254,37.5379
29.2265,37.5397
29.2217,37.5425
29.0309,37.6761
29.0309,37.6761
28.8661,37.8409
28.8661,37.8409
28.7325,38.0317
28.6340,38.2429
28.6340,38.2429
28.5899,38.4076
28.5737,38.4679
28.5534,38.7000
28.5737,38.9321
28.6340,39.1571
28.7325,39.3683
28.8661,39.5591
29.0309,39.7239
29.2217,39.8575
29.4329,39.9560
29.6579,40.0163
29.8900,40.0366
30.1221,40.0163
30.3471,39.9560
30.5583,39.8575
30.7491,39.7239
30.8546,39.6184
30.9169,39.5844
30.9437,39.5815
32.0927,39.5815
32.1608,39.6015
32.1818,39.6184
32.7496,40.1862
32.7836,40.2485
32.7865,40.2753
32.7865,46.8067
32.7665,46.8748
32.7496,46.8958
31.8158,47.8296
31.7535,47.8636
31.7267,47.8665
10.2093,47.8665
10.1412,47.8465
10.1202,47.8296
9.1864,46.8958
9.1524,46.8335
9.1495,46.8067
9.1495,38.7000
10.7734,38.7000
10.7937,38.9321
10.8540,39.1571
10.9525,39.3683
11.0861,39.5591
11.2509,39.7239
11.4417,39.8575
11.6529,39.9560
11.8779,40.0163
12.1100,40.0366
12.3421,40.0163
12.5671,39.9560
12.7783,39.8575
12.9691,39.7239
13.1339,39.5591
13.2675,39.3683
13.3660,39.1571
13.4263,38.9321
13.4466,38.7000
13.4263,38.4679
13.3660,38.2429
13.2675,38.0317
13.1339,37.8409
12.9691,37.6761
12.9691,37.6761
12.7783,37.5425
12.7735,37.5397
12.7747,37.5378
12.7287,37.4973
12.7092,37.4290
12.7298,37.3611
12.7746,37.3222
12.7735,37.3203
12.7783,37.3175
12.7783,37.3175
12.9691,37.1839
13.1339,37.0191
13.2675,36.8283
13.3660,36.6171
13.4263,36.3921
13.4466,36.1600
13.4263,35.9279
13.3660,35.7029
13.2675,35.4917
13.1339,35.3009
12.9691,35.1361
12.9477,35.1211
12.7783,35.0025
12.7735,34.9997
12.7747,34.9978
12.7287,34.9573
12.7092,34.8890
12.7298,34.8211
12.7746,34.7822
12.7735,34.7803
12.7783,34.7775
12.7783,34.7775
12.9691,34.6439
13.1339,34.4791
13.2675,34.2883
13.3660,34.0771
13.4263,33.8521
13.4466,33.6200
13.4263,33.3879
13.3660,33.1629
13.2675,32.9517
13.1339,32.7609
12.9691,32.5961
12.9691,32.5961
12.7783,32.4625
12.7735,32.4597
12.7747,32.4578
12.7287,32.4173
12.7092,32.3490
12.7298,32.2811
12.7746,32.2422
12.7735,32.2403
12.7783,32.2375
12.7783,32.2375
12.9691,32.1039
13.1339,31.9391
13.2675,31.7483
13.3660,31.5371
13.4263,31.3121
13.4466,31.0800
13.4263,30.8479
13.3660,30.6229
13.2675,30.4117
13.1339,30.2209
12.9691,30.0561
12.9691,30.0561
12.7783,29.9225
12.7735,29.9197
12.7747,29.9178
12.7287,29.8773
12.7092,29.8090
12.7298,29.7411
12.7746,29.7022
12.7735,29.7003
12.7783,29.6975
12.7783,29.6975
12.9691,29.5639
13.1339,29.3991
13.2675,29.2083
13.3660,28.9971
13.4263,28.7721
13.4466,28.5400
13.4263,28.3079
13.3660,28.0829
13.2675,27.8717
13.1339,27.6809
12.9691,27.5161
12.9691,27.5161
12.7783,27.3825
12.7735,27.3797
12.7747,27.3778
12.7287,27.3373
12.7092,27.2690
12.7298,27.2011
12.7746,27.1622
12.7735,27.1603
12.7783,27.1575
12.7783,27.1575
12.9691,27.0239
13.1339,26.8591
13.2675,26.6683
13.3660,26.4571
13.4263,26.2321
13.4466,26.0000
13.4263,25.7679
13.3660,25.5429
13.2675,25.3317
13.1339,25.1409
12.9691,24.9761
12.9381,24.9544
12.7783,24.8425
12.7735,24.8397
12.7747,24.8378
12.7287,24.7973
12.7092,24.7290
12.7298,24.6611
12.7746,24.6222
12.7735,24.6203
12.7783,24.6175
12.7783,24.6175
12.9691,24.4839
13.1339,24.3191
13.2675,24.1283
13.3660,23.9171
13.4263,23.6921
13.4466,23.4600
13.4263,23.2279
13.3660,23.0029
13.2675,22.7917
13.1339,22.6009
12.9691,22.4361
12.9691,22.4361
12.7783,22.3025
12.7735,22.2997
12.7747,22.2978
12.7287,22.2573
12.7092,22.1890
12.7298,22.1211
12.7746,22.0822
12.7735,22.0803
12.7783,22.0775
12.7783,22.0775
12.9691,21.9439
13.1339,21.7791
13.2675,21.5883
13.3660,21.3771
13.4263,21.1521
13.4466,20.9200
13.4263,20.6879
13.3660,20.4629
13.2675,20.2517
13.2177,20.1806
15.7986,20.1806
15.8008,20.2031
15.8460,20.3221
15.9273,20.4200
16.0361,20.4862
16.0361,20.4862
16.0577,20.4925
17.2787,20.7202
17.3420,20.7523
17.3721,20.7958
17.5733,21.2816
17.5808,21.3522
17.5608,21.4010
16.8598,22.4232
16.8490,22.4430
16.8490,22.4430
16.8189,22.5667
16.8189,22.5667
16.8306,22.6935
16.8306,22.6935
16.8542,22.7459
16.8828,22.8096
16.8972,22.8271
17.8059,23.7359
17.8234,23.7502
17.9395,23.8024
18.0663,23.8141
18.1900,23.7840
18.2098,23.7732
19.2296,23.0739
19.2971,23.0518
19.3324,23.0558
19.4086,23.0755
19.5356,23.0657
19.6524,23.0152
19.7466,22.9295
19.7483,22.9270
20.8964,20.8129
20.9150,20.7656
20.9262,20.6388
20.8956,20.5152
20.8956,20.5152
20.8956,20.5152
20.8266,20.4082
20.7881,20.3751
20.7881,20.3751
20.7880,20.3751
20.5593,20.2225
20.5401,20.2068
20.3763,20.0431
20.3490,20.0022
20.3415,19.9841
20.2364,19.7303
20.2268,19.6821
20.2268,19.3939
20.2364,19.3457
20.2661,19.2739
20.3490,19.0738
20.3763,19.0329
20.5899,18.8193
20.6308,18.7920
20.9027,18.6794
20.9509,18.6698
21.2391,18.6698
21.2873,18.6794
21.5592,18.7920
21.6001,18.8193
21.8137,19.0329
21.8410,19.0738
21.9536,19.3457
21.9632,19.3939
21.9632,19.6821
21.9536,19.7303
21.8410,20.0022
21.8137,20.0431
21.6499,20.2068
21.6307,20.2225
21.4020,20.3751
21.4020,20.3751
21.3634,20.4082
21.2944,20.5152
21.2944,20.5152
21.2638,20.6388
21.2750,20.7656
21.2750,20.7656
21.2750,20.7656
21.2936,20.8129
21.8184,21.7791
22.4417,22.9270
22.4434,22.9295
22.4434,22.9295
22.5376,23.0152
22.6544,23.0657
22.7814,23.0755
22.8576,23.0558
22.9285,23.0581
22.9604,23.0739
23.9062,23.7224
23.9802,23.7732
24.0000,23.7840
24.0000,23.7840
24.1237,23.8141
24.1237,23.8141
24.1237,23.8141
24.2505,23.8024
24.3666,23.7502
24.3841,23.7358
25.2929,22.8271
25.3072,22.8096
25.3594,22.6935
25.3711,22.5667
25.3410,22.4430
25.3302,22.4232
24.6292,21.4010
24.6072,21.3336
24.6167,21.2816
24.6704,21.1521
24.8179,20.7958
24.8625,20.7406
24.9113,20.7202
26.1322,20.4925
26.1539,20.4862
26.2627,20.4200
26.3440,20.3221
26.3892,20.2031
26.3914,20.1806
26.3914,18.8954
26.3892,18.8729
26.3440,18.7539
26.2627,18.6560
26.2627,18.6560
26.1539,18.5898
26.1450,18.5872
26.1323,18.5835
25.5486,18.4746
24.9113,18.3558
24.8480,18.3237
24.8179,18.2802
24.7632,18.1480
24.6167,17.7944
24.6092,17.7238
24.6292,17.6750
25.3302,16.6528
25.3410,16.6330
25.3711,16.5093
25.3594,16.3825
25.3072,16.2664
25.2928,16.2489
24.3841,15.3401
24.3666,15.3258
24.3666,15.3258
24.2913,15.2920
24.2505,15.2736
24.2188,15.2707
24.1237,15.2619
24.1237,15.2619
24.0000,15.2920
24.0000,15.2920
24.0000,15.2920
23.9803,15.3028
23.9802,15.3028
22.9580,16.0038
22.8906,16.0258
22.8386,16.0163
22.3528,15.8151
22.2976,15.7705
22.2772,15.7217
22.2560,15.6079
22.0495,14.5008
22.0432,14.4791
22.0301,14.4575
21.9770,14.3703
21.9770,14.3703
21.8791,14.2890
21.8791,14.2890
21.7601,14.2438
21.7451,14.2423
21.7376,14.2416
20.4524,14.2416
20.4299,14.2438
20.3109,14.2890
20.2130,14.3703
20.1468,14.4791
20.1468,14.4791
20.1405,14.5007
20.1066,14.6825
19.9128,15.7217
19.8807,15.7850
19.8372,15.8151
19.3514,16.0163
19.2808,16.0238
19.2320,16.0038
18.3265,15.3829
18.2098,15.3028
18.1900,15.2920
18.1900,15.2920
18.0663,15.2619
18.0663,15.2619
17.9395,15.2736
17.9395,15.2736
17.8234,15.3258
17.8234,15.3258
17.8059,15.3402
16.8971,16.2489
16.8828,16.2664
16.8690,16.2971
16.8306,16.3825
16.8189,16.5093
16.8490,16.6330
16.8490,16.6330
16.8490,16.6330
16.8598,16.6527
17.5608,17.6750
17.5828,17.7424
17.5733,17.7944
17.3721,18.2802
17.3275,18.3354
17.2787,18.3558
16.0578,18.5835
16.0361,18.5898
16.0361,18.5898
15.9273,18.6560
15.9273,18.6560
15.9273,18.6560
15.9158,18.6698
15.8460,18.7539
15.8008,18.8729
15.8008,18.8729
15.7986,18.8954
15.7986,20.1806
13.2177,20.1806
13.1339,20.0609
12.9691,19.8961
12.9691,19.8961
12.7783,19.7625
12.7735,19.7597
12.7747,19.7578
12.7287,19.7173
12.7092,19.6490
12.7298,19.5811
12.7746,19.5422
12.7735,19.5403
12.7783,19.5375
12.7789,19.5371
12.9691,19.4039
13.1339,19.2391
13.2675,19.0483
13.3660,18.8371
13.4263,18.6121
13.4466,18.3800
13.4263,18.1479
13.3660,17.9229
13.2675,17.7117
13.1339,17.5209
12.9691,17.3561
12.9081,17.3134
12.7783,17.2225
12.7735,17.2197
12.7747,17.2178
12.7287,17.1773
12.7092,17.1090
12.7298,17.0411
12.7746,17.0022
12.7735,17.0003
12.7783,16.9975
12.7783,16.9975
12.9691,16.8639
13.1339,16.6991
13.2675,16.5083
13.3660,16.2971
13.4263,16.0721
13.4466,15.8400
13.4263,15.6079
13.3660,15.3829
13.2675,15.1717
13.1339,14.9809
12.9691,14.8161
12.9691,14.8161
12.7783,14.6825
12.7735,14.6797
12.7746,14.6779
12.7281,14.6370
12.7086,14.5687
12.7292,14.5008
12.7743,14.4617
12.7733,14.4598
12.7780,14.4571
12.9072,14.3666
12.9072,14.3666
12.3099,13.7694
12.3886,13.7335
12.4994,13.6374
12.5787,13.5140
12.5820,13.5026
13.1766,14.0972
13.1766,14.0972
13.2671,13.9680
13.3655,13.7570
13.3655,13.7570
13.4258,13.5320
13.4461,13.3000
13.4258,13.0680
13.3655,12.8430
13.3655,12.8430
13.2671,12.6320
13.2671,12.6320
13.1766,12.5028
13.1766,12.5028
12.5820,13.0974
12.5787,13.0860
12.4994,12.9626
12.3886,12.8665
12.3099,12.8306
12.9072,12.2334
12.9072,12.2334
12.7780,12.1429
12.7733,12.1402
12.7744,12.1383
12.7281,12.0975
12.7086,12.0293
12.7292,11.9613
12.7745,11.9220
12.7735,11.9203
12.7783,11.9175
12.7783,11.9175
12.9691,11.7839
13.1339,11.6191
13.2675,11.4283
13.3660,11.2171
13.4263,10.9921
13.4466,10.7600
13.4263,10.5279
13.3660,10.3029
13.2675,10.0917
13.1339,9.9009
12.9691,9.7361
12.7783,9.6025
12.5671,9.5040
12.5671,9.5040
12.4627,9.4760
12.3421,9.4437
12.1100,9.4234
12.1100,9.4234
11.9940,9.4336
11.8779,9.4437
11.8176,9.4599
11.6529,9.5040
11.6529,9.5040
11.4417,9.6025
11.2509,9.7361
11.2509,9.7361
11.0861,9.9009
11.0861,9.9009
10.9525,10.0917
10.8540,10.3029
10.8540,10.3029
10.8099,10.4676
10.7937,10.5279
10.7734,10.7600
10.7937,10.9921
10.8260,11.1127
10.8540,11.2171
10.8540,11.2171
10.9525,11.4283
11.0729,11.6003
11.0861,11.6191
11.2509,11.7839
11.2509,11.7839
11.4417,11.9175
11.4465,11.9203
11.4454,11.9221
11.4919,11.9630
11.5114,12.0313
11.4908,12.0992
11.4457,12.1384
11.4467,12.1402
11.4420,12.1429
11.3128,12.2334
11.3128,12.2334
11.9101,12.8306
11.8314,12.8665
11.7206,12.9626
11.6413,13.0860
11.6380,13.0974
11.0434,12.5028
11.0434,12.5028
10.9529,12.6320
10.8545,12.8430
10.8545,12.8430
10.7942,13.0680
10.7739,13.3000
10.7942,13.5320
10.8545,13.7570
10.8545,13.7570
10.9529,13.9680
11.0434,14.0972
11.0434,14.0972
11.6380,13.5026
11.6413,13.5140
11.7206,13.6374
11.8314,13.7335
11.9101,13.7694
11.3128,14.3666
11.3128,14.3666
11.4420,14.4571
11.4467,14.4598
11.4456,14.4617
11.4919,14.5024
11.5114,14.5707
11.4908,14.6387
11.4455,14.6780
11.4465,14.6797
11.4417,14.6825
11.2509,14.8161
11.2509,14.8161
11.0861,14.9809
11.0861,14.9809
10.9525,15.1717
10.8540,15.3829
10.8540,15.3829
10.8099,15.5476
10.7937,15.6079
10.7734,15.8400
10.7937,16.0721
10.8260,16.1927
10.8540,16.2971
10.8540,16.2971
10.9525,16.5083
11.0536,16.6528
11.0861,16.6991
11.2509,16.8639
11.2509,16.8639
11.4417,16.9975
11.4465,17.0003
11.4453,17.0022
11.4913,17.0427
11.5108,17.1110
11.4902,17.1790
11.4454,17.2178
11.4465,17.2197
11.4417,17.2225
11.2509,17.3561
11.2509,17.3561
11.0861,17.5209
11.0861,17.5209
10.9525,17.7117
10.8540,17.9229
10.8540,17.9229
10.8099,18.0876
10.7937,18.1479
10.7734,18.3800
10.7937,18.6121
10.8055,18.6560
10.8493,18.8193
10.8540,18.8371
10.9525,19.0483
11.0861,19.2391
11.2509,19.4039
11.2509,19.4039
11.4417,19.5375
11.4465,19.5403
11.4453,19.5422
11.4913,19.5827
11.5108,19.6510
11.4902,19.7190
11.4454,19.7578
11.4465,19.7597
11.4417,19.7625
11.2509,19.8961
11.2509,19.8961
11.0861,20.0609
11.0861,20.0609
10.9525,20.2517
10.8540,20.4629
10.8540,20.4629
10.8099,20.6276
10.7937,20.6879
10.7734,20.9200
10.7937,21.1521
10.8260,21.2727
10.8423,21.3336
10.8540,21.3771
10.9525,21.5883
10.9525,21.5883
11.0773,21.7666
11.0861,21.7791
11.2509,21.9439
11.2509,21.9439
11.4417,22.0775
11.4465,22.0803
11.4453,22.0822
11.4913,22.1227
11.5108,22.1910
11.4902,22.2590
11.4454,22.2978
11.4465,22.2997
11.4417,22.3025
11.2509,22.4361
11.2509,22.4361
11.0861,22.6009
11.0861,22.6009
10.9525,22.7917
10.8540,23.0029
10.8540,23.0029
10.8150,23.1485
10.7937,23.2279
10.7734,23.4600
10.7937,23.6921
10.8540,23.9171
10.9525,24.1283
11.0861,24.3191
11.2509,24.4839
11.2509,24.4839
11.4417,24.6175
11.4465,24.6203
11.4453,24.6222
11.4913,24.6627
11.5108,24.7310
11.4902,24.7990
11.4454,24.8378
11.4465,24.8397
11.4417,24.8425
11.2509,24.9761
11.2509,24.9761
11.0861,25.1409
11.0861,25.1409
10.9525,25.3317
10.8540,25.5429
10.8540,25.5429
10.8099,25.7076
10.7937,25.7679
10.7734,26.0000
10.7937,26.2321
10.8540,26.4571
10.9525,26.6683
11.0861,26.8591
11.2509,27.0239
11.2509,27.0239
11.4417,27.1575
11.4465,27.1603
11.4453,27.1622
11.4913,27.2027
11.5108,27.2710
11.4902,27.3390
11.4454,27.3778
11.4465,27.3797
11.4417,27.3825
11.2509,27.5161
11.2509,27.5161
11.0861,27.6809
11.0861,27.6809
10.9525,27.8717
10.8540,28.0829
10.8540,28.0829
10.8099,28.2476
10.7937,28.3079
10.7734,28.5400
10.7937,28.7721
10.8540,28.9971
10.9525,29.2083
11.0861,29.3991
11.2509,29.5639
11.2509,29.5639
11.4417,29.6975
11.4465,29.7003
11.4453,29.7022
11.4913,29.7427
11.5108,29.8110
11.4902,29.8790
11.4454,29.9178
11.4465,29.9197
11.4417,29.9225
11.2509,30.0561
11.2509,30.0561
11.0861,30.2209
11.0861,30.2209
10.9525,30.4117
10.8540,30.6229
10.8540,30.6229
10.8099,30.7876
10.7937,30.8479
10.7734,31.0800
10.7937,31.3121
10.8081,31.3659
10.8366,31.4721
10.8540,31.5371
10.9525,31.7483
11.0861,31.9391
11.2509,32.1039
11.2509,32.1039
11.4417,32.2375
11.4465,32.2403
11.4453,32.2422
11.4913,32.2827
11.5108,32.3510
11.4902,32.4190
11.4454,32.4578
11.4465,32.4597
11.4417,32.4625
11.2509,32.5961
11.2509,32.5961
11.0861,32.7609
11.0861,32.7609
10.9525,32.9517
10.8540,33.1629
10.8540,33.1629
10.8099,33.3276
10.7937,33.3879
10.7734,33.6200
10.7937,33.8521
10.7982,33.8686
10.8366,34.0121
10.8540,34.0771
10.9525,34.2883
11.0861,34.4791
11.2509,34.6439
11.2509,34.6439
11.4417,34.7775
11.4465,34.7803
11.4453,34.7822
11.4913,34.8227
11.5108,34.8910
11.4902,34.9590
11.4454,34.9978
11.4465,34.9997
11.4417,35.0025
11.2509,35.1361
11.2509,35.1361
11.0861,35.3009
11.0861,35.3009
10.9525,35.4917
10.8540,35.7029
10.8540,35.7029
10.8106,35.8649
10.7965,35.9176
10.7937,35.9279
10.7830,36.0501
10.7734,36.1600
10.7937,36.3921
10.8124,36.4618
10.8540,36.6171
10.8540,36.6171
10.9525,36.8283
10.9916,36.8842
11.0861,37.0191
11.2509,37.1839
11.2509,37.1839
11.4417,37.3175
11.4465,37.3203
11.4453,37.3222
11.4913,37.3627
11.5108,37.4310
11.4902,37.4990
11.4454,37.5378
11.4465,37.5397
11.4417,37.5425
11.2509,37.6761
11.2509,37.6761
11.0861,37.8409
11.0861,37.8409
10.9525,38.0317
10.8540,38.2429
10.8540,38.2429
10.8099,38.4076
10.7937,38.4679
10.7734,38.7000
9.1495,38.7000
9.1495,38.5402
9.1495,37.6450
9.1495,36.5944
9.1497,36.5893
9.1544,36.5320
9.1430,36.4488
9.1340,36.3654
9.1339,36.3653
9.1285,36.3421
9.1285,36.3420
9.0995,36.2632
9.0977,36.2576
9.0727,36.1837
9.0727,36.1836
9.0624,36.1621
9.0624,36.1620
9.0624,36.1620
9.0172,36.0913
8.9934,36.0519
8.9739,36.0194
8.9738,36.0193
8.9591,36.0005
8.9591,36.0005
8.9591,36.0005
8.8998,35.9411
8.8420,35.8802
8.8420,35.8802
8.8420,35.8801
8.8236,35.8649
8.0797,35.1211
8.0457,35.0588
8.0508,34.9880
8.0797,34.9429
8.8642,34.1585
8.8679,34.1550
8.9117,34.1178
8.9626,34.0509
9.0151,33.9855
9.0151,33.9855
9.0277,33.9652
9.0278,33.9651
9.0630,33.8889
9.1003,33.8138
9.1003,33.8137
9.1083,33.7912
9.1083,33.7911
9.1146,33.7625
9.1263,33.7092
9.1466,33.6277
9.1466,33.6277
9.1466,33.6277
9.1466,33.6276
9.1495,33.6039
9.1495,33.6039
9.1495,33.5199
9.1518,33.4360
9.1518,33.4360
9.1518,33.4360
9.1518,33.4360
9.1518,33.4359
9.1495,33.4122
9.1495,23.8623
9.1508,23.7728
9.1461,23.7502
9.1404,23.7224
9.1395,23.7165
9.1340,23.6654
9.1219,23.6295
9.1199,23.6220
9.1123,23.5850
9.1075,23.5742
9.0913,23.5379
9.0892,23.5325
9.0727,23.4837
9.0532,23.4512
9.0497,23.4444
8.0288,21.1521
8.0052,21.0992
7.9958,21.0288
8.0049,20.9973
8.0546,20.8839
8.1108,20.6621
8.1297,20.4340
8.1108,20.2059
8.1101,20.2031
8.0546,19.9841
8.0546,19.9841
8.0161,19.8961
7.9627,19.7745
7.8818,19.6507
7.8375,19.5829
7.8375,19.5829
7.8375,19.5829
7.6825,19.4145
7.5019,19.2739
7.5019,19.2739
7.4096,19.2239
7.3006,19.1650
7.3006,19.1650
7.3006,19.1650
7.0842,19.0907
7.0842,19.0907
6.9831,19.0738
6.8584,19.0530
6.6296,19.0530
6.5166,19.0719
6.4038,19.0907
6.4038,19.0907
6.1874,19.1650
6.1874,19.1650
5.9861,19.2739
5.9861,19.2739
5.8055,19.4145
5.6505,19.5829
5.5253,19.7745
5.4334,19.9841
5.4334,19.9841
5.3772,20.2059
5.3772,20.2059
5.3583,20.4340
5.3772,20.6621
5.3772,20.6621
5.4334,20.8839
5.4334,20.8839
5.5253,21.0935
5.5253,21.0935
5.6505,21.2851
5.8055,21.4535
5.9861,21.5941
6.1874,21.7030
6.1874,21.7030
6.1874,21.7030
6.3206,21.7488
6.3786,21.7898
6.3948,21.8167
7.1267,23.4600
7.2792,23.8024
7.3756,24.0189
7.3865,24.0702
7.3865,33.0907
7.3665,33.1588
7.3496,33.1798
6.4158,34.1136
6.3535,34.1476
6.3267,34.1505
5.3255,34.1505
5.2574,34.1305
5.2328,34.1098
5.1786,34.0509
5.1429,34.0121
4.9622,33.8715
4.9578,33.8686
4.9589,33.8671
4.9142,33.8228
4.8989,33.7534
4.9235,33.6868
4.9586,33.6565
4.9578,33.6554
4.9622,33.6525
4.9622,33.6525
5.1429,33.5119
5.2346,33.4122
5.2979,33.3434
5.4232,33.1518
5.5151,32.9421
5.5713,32.7202
5.5902,32.4920
5.5713,32.2638
5.5713,32.2638
5.5713,32.2638
5.5151,32.0419
5.5151,32.0419
5.4232,31.8322
5.2979,31.6406
5.1429,31.4721
5.1429,31.4721
5.1341,31.4653
5.0926,31.4077
5.0855,31.3659
5.0855,24.9661
5.0877,24.9428
5.0880,24.9411
5.0855,24.8586
5.0855,24.8242
5.0843,24.8133
5.0840,24.8085
5.0822,24.7494
5.0748,24.7201
5.0732,24.7115
5.0700,24.6814
5.0511,24.6254
5.0497,24.6208
5.0353,24.5635
5.0218,24.5364
5.0184,24.5284
5.0087,24.4997
4.9783,24.4491
4.9760,24.4448
4.0828,22.6585
4.0695,22.6022
4.0695,7.7633
4.0895,7.6952
4.1064,7.6742
4.6358,7.1448
5.3251,6.4555
5.3875,6.4215
5.4048,6.4189
5.6889,6.3975
5.7583,6.4123
5.7910,6.4378
5.8055,6.4535
5.8055,6.4535
5.9861,6.5941
6.1874,6.7030
6.1874,6.7030
6.1874,6.7030
6.2841,6.7362
6.4038,6.7773
6.6296,6.8150
6.6296,6.8150
6.8584,6.8150
6.8584,6.8150
7.0842,6.7773
7.3006,6.7030
7.5019,6.5941
7.6825,6.4535
7.6825,6.4535
7.7721,6.3562
7.8330,6.3196
7.8648,6.3155
20.4167,6.3155
Z" /> 
<path style="fill:#37CBCB; fill-opacity:1.0000; 
stroke:#37CBCB; stroke-width:0.0000; stroke-opacity:1; 
stroke-linecap:round; stroke-linejoin:round;fill-rule:evenodd;"
d="M 35.4416,1.5205
35.4881,1.5742
35.4995,1.6265
35.4995,50.3735
35.4795,50.4416
35.4258,50.4881
35.3735,50.4995
1.6265,50.4995
1.5584,50.4795
1.5119,50.4258
1.5005,50.3735
1.5005,22.7709
2.3040,22.7709
2.3065,22.8534
2.3065,22.8878
2.3077,22.8987
2.3080,22.9036
2.3098,22.9626
2.3098,22.9626
2.3172,22.9919
2.3188,23.0005
2.3220,23.0306
2.3220,23.0306
2.3409,23.0865
2.3423,23.0913
2.3567,23.1485
2.3567,23.1485
2.3702,23.1756
2.3736,23.1836
2.3833,23.2123
2.4137,23.2629
2.4160,23.2672
3.3092,25.0535
3.3225,25.1098
3.3225,31.3659
3.3025,31.4340
3.2739,31.4653
3.2651,31.4721
3.2651,31.4721
3.1101,31.6406
2.9848,31.8322
2.8929,32.0419
2.8929,32.0419
2.8367,32.2638
2.8367,32.2638
2.8178,32.4920
2.8367,32.7202
2.8367,32.7202
2.8929,32.9421
2.8929,32.9421
2.9848,33.1518
3.1101,33.3434
3.2651,33.5119
3.2651,33.5119
3.2651,33.5119
3.4458,33.6525
3.4458,33.6525
3.4502,33.6554
3.4491,33.6569
3.4938,33.7012
3.5091,33.7705
3.4845,33.8371
3.4494,33.8675
3.4502,33.8686
3.4458,33.8715
3.2651,34.0121
3.1101,34.1806
2.9848,34.3722
2.8929,34.5819
2.8929,34.5819
2.8367,34.8038
2.8367,34.8038
2.8178,35.0320
2.8367,35.2602
2.8367,35.2602
2.8929,35.4821
2.8929,35.4821
2.9848,35.6918
3.1079,35.8802
3.1101,35.8834
3.1510,35.9279
3.2049,35.9864
3.2363,36.0501
3.2283,36.1207
3.1835,36.1757
3.1303,36.1965
3.0938,36.2018
3.0938,36.2018
2.9795,36.2576
2.9795,36.2576
2.8896,36.3475
2.8896,36.3475
2.8338,36.4618
2.8338,36.4618
2.8230,36.5358
2.8230,37.3815
3.7305,37.3815
3.6960,37.4990
3.6960,37.6450
3.7305,37.7625
2.8230,37.7625
2.8230,38.6082
2.8338,38.6822
2.8338,38.6822
2.8896,38.7965
2.8896,38.7965
2.9795,38.8864
2.9795,38.8864
3.0938,38.9422
3.0938,38.9422
3.1678,38.9530
3.1678,38.9530
4.0135,38.9530
4.0135,38.0435
4.0594,38.0644
4.1677,38.0800
4.2403,38.0800
4.3486,38.0644
4.3945,38.0435
4.3945,38.9530
5.2402,38.9530
5.2402,38.9530
5.3142,38.9422
5.3142,38.9422
5.4284,38.8864
5.4285,38.8864
5.5184,38.7965
5.5184,38.7965
5.5742,38.6822
5.5742,38.6822
5.5850,38.6082
5.5850,38.6082
5.5850,37.7625
4.6775,37.7625
4.7120,37.6450
4.7120,37.4990
4.6775,37.3815
5.5850,37.3815
5.5850,36.5358
5.5850,36.5358
5.5742,36.4618
5.5742,36.4618
5.5184,36.3475
5.5184,36.3475
5.4285,36.2576
5.4284,36.2576
5.3142,36.2018
5.3142,36.2018
5.2777,36.1965
5.2131,36.1668
5.1749,36.1071
5.1750,36.0361
5.2031,35.9864
5.2328,35.9542
5.2937,35.9176
5.3255,35.9135
6.3267,35.9135
6.3948,35.9335
6.4158,35.9504
7.3496,36.8842
7.3836,36.9465
7.3865,36.9733
7.3865,38.5172
7.3865,38.5172
7.3865,47.1856
7.3863,47.1907
7.3816,47.2480
7.3816,47.2480
7.3930,47.3312
7.4020,47.4146
7.4021,47.4147
7.4075,47.4379
7.4075,47.4380
7.4365,47.5168
7.4633,47.5963
7.4633,47.5963
7.4633,47.5964
7.4736,47.6179
7.4736,47.6180
7.4736,47.6180
7.5188,47.6887
7.5621,47.7606
7.5621,47.7606
7.5622,47.7607
7.5769,47.7795
7.5769,47.7795
7.5769,47.7795
7.5769,47.7795
7.6362,47.8389
7.6700,47.8745
7.6940,47.8998
7.6940,47.8999
7.7124,47.9150
9.1415,49.3442
9.1450,49.3479
9.1822,49.3917
9.2491,49.4426
9.3144,49.4951
9.3144,49.4951
9.3145,49.4951
9.3145,49.4951
9.3145,49.4951
9.3348,49.5077
9.3349,49.5078
9.4111,49.5430
9.4862,49.5803
9.4863,49.5803
9.5088,49.5883
9.5089,49.5883
9.5089,49.5883
9.5089,49.5883
9.5908,49.6063
9.6723,49.6266
9.6723,49.6266
9.6723,49.6266
9.6724,49.6266
9.6961,49.6295
9.6961,49.6295
9.6961,49.6295
9.7801,49.6295
9.8640,49.6318
9.8640,49.6318
9.8878,49.6295
32.1056,49.6295
32.1107,49.6297
32.1359,49.6318
32.1680,49.6344
32.1680,49.6344
32.1680,49.6344
32.1680,49.6344
32.2512,49.6230
32.3346,49.6140
32.3347,49.6139
32.3579,49.6085
32.3580,49.6085
32.4368,49.5795
32.5163,49.5527
32.5164,49.5527
32.5379,49.5424
32.5380,49.5424
32.6087,49.4972
32.6806,49.4539
32.6807,49.4538
32.6995,49.4391
32.6995,49.4391
32.6995,49.4391
32.6995,49.4391
32.7589,49.3798
32.8198,49.3220
32.8199,49.3220
32.8350,49.3036
34.2642,47.8744
34.2679,47.8710
34.3117,47.8338
34.3626,47.7669
34.4151,47.7015
34.4151,47.7015
34.4277,47.6812
34.4278,47.6811
34.4630,47.6049
34.5003,47.5298
34.5003,47.5297
34.5083,47.5072
34.5083,47.5071
34.5263,47.4252
34.5289,47.4146
34.5466,47.3437
34.5466,47.3437
34.5466,47.3437
34.5466,47.3436
34.5495,47.3199
34.5495,47.3199
34.5495,47.2359
34.5518,47.1520
34.5518,47.1520
34.5518,47.1520
34.5518,47.1520
34.5518,47.1519
34.5495,47.1282
34.5495,39.8964
34.5497,39.8913
34.5544,39.8340
34.5544,39.8340
34.5430,39.7508
34.5340,39.6674
34.5340,39.6674
34.5339,39.6673
34.5285,39.6441
34.5285,39.6440
34.4995,39.5652
34.4727,39.4857
34.4727,39.4857
34.4727,39.4856
34.4624,39.4641
34.4624,39.4640
34.4172,39.3933
34.3739,39.3214
34.3738,39.3213
34.3591,39.3025
34.3591,39.3025
34.3591,39.3025
34.2998,39.2431
34.2420,39.1822
34.2420,39.1822
34.2420,39.1821
34.2236,39.1669
33.1605,38.1038
33.1570,38.1001
33.1198,38.0563
33.0529,38.0055
33.0202,37.9792
32.9875,37.9529
32.9875,37.9529
32.9875,37.9529
32.9875,37.9528
32.9672,37.9403
32.9671,37.9402
32.8910,37.9050
32.8158,37.8677
32.8158,37.8677
32.8157,37.8677
32.7932,37.8598
32.7931,37.8597
32.7931,37.8597
32.7112,37.8417
32.6297,37.8214
32.6297,37.8214
32.6297,37.8214
32.6297,37.8214
32.6296,37.8214
32.6060,37.8185
32.6059,37.8185
32.6059,37.8185
32.5219,37.8185
32.4380,37.8162
32.4380,37.8162
32.4142,37.8185
30.9437,37.8185
30.8756,37.7985
30.8546,37.7816
30.7491,37.6761
30.7491,37.6761
30.5583,37.5425
30.5535,37.5397
30.5547,37.5378
30.5086,37.4972
30.4892,37.4289
30.5098,37.3610
30.5546,37.3222
30.5535,37.3203
30.5583,37.3175
30.5583,37.3175
30.7491,37.1839
30.9139,37.0191
31.0475,36.8283
31.1460,36.6171
31.2063,36.3921
31.2266,36.1600
31.2063,35.9279
31.1460,35.7029
31.0475,35.4917
30.9139,35.3009
30.7491,35.1361
30.7277,35.1211
30.5583,35.0025
30.5535,34.9997
30.5547,34.9978
30.5087,34.9573
30.4892,34.8890
30.5098,34.8211
30.5546,34.7822
30.5535,34.7803
30.5583,34.7775
30.5583,34.7775
30.7491,34.6439
30.9139,34.4791
31.0475,34.2883
31.1460,34.0771
31.2063,33.8521
31.2266,33.6200
31.2063,33.3879
31.1460,33.1629
31.0475,32.9517
30.9139,32.7609
30.7491,32.5961
30.7491,32.5961
30.5583,32.4625
30.5535,32.4597
30.5547,32.4578
30.5087,32.4173
30.4892,32.3490
30.5098,32.2811
30.5546,32.2422
30.5535,32.2403
30.5583,32.2375
30.5583,32.2375
30.7491,32.1039
30.9139,31.9391
31.0475,31.7483
31.1460,31.5371
31.2063,31.3121
31.2266,31.0800
31.2063,30.8479
31.1460,30.6229
31.0475,30.4117
30.9139,30.2209
30.7491,30.0561
30.7491,30.0561
30.5583,29.9225
30.5535,29.9197
30.5547,29.9178
30.5087,29.8773
30.4892,29.8090
30.5098,29.7411
30.5546,29.7022
30.5535,29.7003
30.5583,29.6975
30.5583,29.6975
30.7491,29.5639
30.9139,29.3991
31.0475,29.2083
31.1460,28.9971
31.2063,28.7721
31.2266,28.5400
31.2063,28.3079
31.1460,28.0829
31.0475,27.8717
30.9139,27.6809
30.7491,27.5161
30.7491,27.5161
30.5583,27.3825
30.5535,27.3797
30.5547,27.3778
30.5087,27.3373
30.4892,27.2690
30.5098,27.2011
30.5546,27.1622
30.5535,27.1603
30.5583,27.1575
30.5583,27.1575
30.7491,27.0239
30.9139,26.8591
31.0475,26.6683
31.1460,26.4571
31.2063,26.2321
31.2266,26.0000
31.2063,25.7679
31.1460,25.5429
31.0475,25.3317
30.9139,25.1409
30.7491,24.9761
30.7181,24.9544
30.5583,24.8425
30.5535,24.8397
30.5547,24.8378
30.5087,24.7973
30.4892,24.7290
30.5098,24.6611
30.5546,24.6222
30.5535,24.6203
30.5583,24.6175
30.5583,24.6175
30.7491,24.4839
30.9139,24.3191
31.0475,24.1283
31.1460,23.9171
31.2063,23.6921
31.2266,23.4600
31.2063,23.2279
31.1460,23.0029
31.0475,22.7917
30.9139,22.6009
30.7491,22.4361
30.7491,22.4361
30.5583,22.3025
30.5535,22.2997
30.5547,22.2978
30.5087,22.2573
30.4892,22.1890
30.5098,22.1211
30.5546,22.0822
30.5535,22.0803
30.5583,22.0775
30.5583,22.0775
30.7491,21.9439
30.9139,21.7791
31.0475,21.5883
31.1460,21.3771
31.2063,21.1521
31.2266,20.9200
31.2063,20.6879
31.1460,20.4629
31.0475,20.2517
30.9139,20.0609
30.7491,19.8961
30.7491,19.8961
30.5583,19.7625
30.5535,19.7597
30.5546,19.7579
30.5081,19.7170
30.4886,19.6487
30.5092,19.5808
30.5543,19.5417
30.5533,19.5398
30.5580,19.5371
30.6872,19.4466
30.6872,19.4466
30.0899,18.8494
30.1686,18.8135
30.2794,18.7174
30.3587,18.5940
30.3620,18.5826
30.9566,19.1772
30.9566,19.1772
31.0471,19.0480
31.1455,18.8370
31.1455,18.8370
31.2058,18.6120
31.2261,18.3800
31.2058,18.1480
31.1455,17.9230
31.1455,17.9230
31.0471,17.7120
31.0471,17.7120
30.9566,17.5828
30.9566,17.5828
30.3620,18.1774
30.3587,18.1660
30.2794,18.0426
30.1686,17.9465
30.0899,17.9106
30.6872,17.3134
30.6872,17.3134
30.5580,17.2229
30.5533,17.2202
30.5544,17.2183
30.5081,17.1775
30.4886,17.1093
30.5092,17.0413
30.5545,17.0020
30.5535,17.0003
30.5583,16.9975
30.5583,16.9975
30.7491,16.8639
30.9139,16.6991
31.0475,16.5083
31.1460,16.2971
31.2063,16.0721
31.2266,15.8400
31.2063,15.6079
31.1460,15.3829
31.0475,15.1717
30.9139,14.9809
30.7491,14.8161
30.7491,14.8161
30.5583,14.6825
30.5535,14.6797
30.5547,14.6778
30.5087,14.6373
30.4892,14.5690
30.5098,14.5011
30.5546,14.4622
30.5535,14.4603
30.5583,14.4575
30.5589,14.4571
30.7491,14.3239
30.9139,14.1591
31.0475,13.9683
31.1460,13.7571
31.2063,13.5321
31.2266,13.3000
31.2063,13.0679
31.1460,12.8429
31.0475,12.6317
30.9139,12.4409
30.7491,12.2761
30.6881,12.2334
30.5583,12.1425
30.5535,12.1397
30.5547,12.1378
30.5087,12.0973
30.4892,12.0290
30.5098,11.9611
30.5546,11.9222
30.5535,11.9203
30.5583,11.9175
30.5583,11.9175
30.7491,11.7839
30.9139,11.6191
31.0475,11.4283
31.1460,11.2171
31.2063,10.9921
31.2266,10.7600
31.2063,10.5279
31.1460,10.3029
31.0475,10.0917
30.9139,9.9009
30.7491,9.7361
30.5583,9.6025
30.3471,9.5040
30.3471,9.5040
30.2427,9.4760
30.1221,9.4437
29.8900,9.4234
29.6579,9.4437
29.5976,9.4599
29.4329,9.5040
29.4329,9.5040
29.2217,9.6025
29.0309,9.7361
29.0309,9.7361
28.9254,9.8416
28.8631,9.8756
28.8363,9.8785
26.5773,9.8785
26.5092,9.8585
26.4882,9.8416
21.4845,4.8378
21.4810,4.8341
21.4465,4.7935
21.4438,4.7903
21.4438,4.7903
21.3769,4.7395
21.3442,4.7132
21.3115,4.6869
21.3115,4.6869
21.3115,4.6869
21.3115,4.6868
21.2912,4.6743
21.2911,4.6742
21.2150,4.6390
21.1398,4.6017
21.1398,4.6017
21.1397,4.6017
21.1172,4.5938
21.1171,4.5937
21.1171,4.5937
21.0352,4.5757
20.9537,4.5554
20.9537,4.5554
20.9537,4.5554
20.9537,4.5554
20.9536,4.5554
20.9300,4.5525
20.9299,4.5525
20.9299,4.5525
20.8459,4.5525
20.7620,4.5502
20.7620,4.5502
20.7382,4.5525
7.8648,4.5525
7.7967,4.5325
7.7721,4.5118
7.6825,4.4145
7.5019,4.2739
7.5019,4.2739
7.4096,4.2239
7.3006,4.1650
7.3006,4.1650
7.3006,4.1650
7.0842,4.0907
7.0842,4.0907
6.9876,4.0746
6.8584,4.0530
6.6296,4.0530
6.5166,4.0719
6.4038,4.0907
6.4038,4.0907
6.1874,4.1650
6.1874,4.1650
5.9861,4.2739
5.9861,4.2739
5.8055,4.4145
5.6505,4.5829
5.6505,4.5829
5.6504,4.5829
5.6504,4.5830
5.6473,4.5870
5.6464,4.5863
5.5964,4.6290
5.5544,4.6397
4.9785,4.6831
4.9588,4.6830
4.9459,4.6819
4.9420,4.6816
4.9420,4.6816
4.9420,4.6816
4.8751,4.6907
4.8714,4.6911
4.8521,4.6926
4.8521,4.6926
4.8521,4.6926
4.8521,4.6926
4.8521,4.6926
4.8275,4.6972
4.8245,4.6976
4.7520,4.7075
4.7520,4.7075
4.7419,4.7112
4.7214,4.7168
4.7108,4.7188
4.7108,4.7188
4.6435,4.7473
4.6407,4.7484
4.5720,4.7736
4.5681,4.7761
4.5629,4.7794
4.5442,4.7893
4.5343,4.7935
4.5343,4.7935
4.4746,4.8358
4.4721,4.8375
4.4105,4.8769
4.4105,4.8769
4.4028,4.8845
4.3867,4.8982
4.3779,4.9044
4.3779,4.9044
4.3287,4.9586
4.3266,4.9608
2.5918,6.6955
2.5881,6.6990
2.5443,6.7362
2.5443,6.7362
2.4935,6.8031
2.4409,6.8685
2.4409,6.8685
2.4408,6.8685
2.4283,6.8888
2.4282,6.8889
2.3930,6.9650
2.3557,7.0402
2.3557,7.0402
2.3557,7.0403
2.3478,7.0628
2.3477,7.0629
2.3297,7.1448
2.3094,7.2263
2.3094,7.2264
2.3065,7.2500
2.3065,7.2501
2.3065,7.3341
2.3042,7.4180
2.3042,7.4181
2.3065,7.4418
2.3065,22.7459
2.3043,22.7692
2.3040,22.7709
1.5005,22.7709
1.5005,1.6265
1.5205,1.5584
1.5742,1.5119
1.6265,1.5005
35.3735,1.5005
Z" /> 
</g>
</g>
</g>
<g style="fill:#000000; fill-opacity:1.0000; 
stroke:#000000; stroke-width:0.0000; stroke-opacity:1; 
stroke-linecap:round; stroke-linejoin:round;">
<circle cx="6.7440" cy="5.4340" r="0.5004" /> 
</g>
<g style="fill:#000000; fill-opacity:1.0000; 
stroke:#000000; stroke-width:0.0212; stroke-opacity:1; 
stroke-linecap:round; stroke-linejoin:round;">
</g>
<g style="fill:#000000; fill-opacity:1.0000; 
stroke:#000000; stroke-width:0.0000; stroke-opacity:1; 
stroke-linecap:round; stroke-linejoin:round;">
<circle cx="6.7440" cy="20.4340" r="0.5004" /> 
</g>
<g style="fill:#000000; fill-opacity:1.0000; 
stroke:#000000; stroke-width:0.0212; stroke-opacity:1; 
stroke-linecap:round; stroke-linejoin:round;">
</g>
<g style="fill:#000000; fill-opacity:1.0000; 
stroke:#000000; stroke-width:0.0000; stroke-opacity:1; 
stroke-linecap:round; stroke-linejoin:round;">
<circle cx="4.2040" cy="37.5720" r="0.5080" /> 
</g>
<g style="fill:#000000; fill-opacity:1.0000; 
stroke:#000000; stroke-width:0.0212; stroke-opacity:1; 
stroke-linecap:round; stroke-linejoin:round;">
</g>
<g style="fill:#000000; fill-opacity:1.0000; 
stroke:#000000; stroke-width:0.0000; stroke-opacity:1; 
stroke-linecap:round; stroke-linejoin:round;">
<circle cx="4.2040" cy="35.0320" r="0.5080" /> 
</g>
<g style="fill:#000000; fill-opacity:1.0000; 
stroke:#000000; stroke-width:0.0212; stroke-opacity:1; 
stroke-linecap:round; stroke-linejoin:round;">
</g>
<g style="fill:#000000; fill-opacity:1.0000; 
stroke:#000000; stroke-width:0.0000; stroke-opacity:1; 
stroke-linecap:round; stroke-linejoin:round;">
<circle cx="4.2040" cy="32.4920" r="0.5080" /> 
</g>
<g style="fill:#000000; fill-opacity:1.0000; 
stroke:#000000; stroke-width:0.0212; stroke-opacity:1; 
stroke-linecap:round; stroke-linejoin:round;">
</g>
<g style="fill:#000000; fill-opacity:1.0000; 
stroke:#000000; stroke-width:0.0000; stroke-opacity:1; 
stroke-linecap:round; stroke-linejoin:round;">
<circle cx="12.1100" cy="10.7600" r="0.5100" /> 
</g>
<g style="fill:#000000; fill-opacity:1.0000; 
stroke:#000000; stroke-width:0.0212; stroke-opacity:1; 
stroke-linecap:round; stroke-linejoin:round;">
</g>
<g style="fill:#000000; fill-opacity:1.0000; 
stroke:#000000; stroke-width:0.0000; stroke-opacity:1; 
stroke-linecap:round; stroke-linejoin:round;">
<circle cx="12.1100" cy="13.3000" r="0.5100" /> 
</g>
<g style="fill:#000000; fill-opacity:1.0000; 
stroke:#000000; stroke-width:0.0212; stroke-opacity:1; 
stroke-linecap:round; stroke-linejoin:round;">
</g>
<g style="fill:#000000; fill-opacity:1.0000; 
stroke:#000000; stroke-width:0.0000; stroke-opacity:1; 
stroke-linecap:round; stroke-linejoin:round;">
<circle cx="12.1100" cy="15.8400" r="0.5100" /> 
</g>
<g style="fill:#000000; fill-opacity:1.0000; 
stroke:#000000; stroke-width:0.0212; stroke-opacity:1; 
stroke-linecap:round; stroke-linejoin:round;">
</g>
<g style="fill:#000000; fill-opacity:1.0000; 
stroke:#000000; stroke-width:0.0000; stroke-opacity:1; 
stroke-linecap:round; stroke-linejoin:round;">
<circle cx="12.1100" cy="18.3800" r="0.5100" /> 
</g>
<g style="fill:#000000; fill-opacity:1.0000; 
stroke:#000000; stroke-width:0.0212; stroke-opacity:1; 
stroke-linecap:round; stroke-linejoin:round;">
</g>
<g style="fill:#000000; fill-opacity:1.0000; 
stroke:#000000; stroke-width:0.0000; stroke-opacity:1; 
stroke-linecap:round; stroke-linejoin:round;">
<circle cx="12.1100" cy="20.9200" r="0.5100" /> 
</g>
<g style="fill:#000000; fill-opacity:1.0000; 
stroke:#000000; stroke-width:0.0212; stroke-opacity:1; 
stroke-linecap:round; stroke-linejoin:round;">
</g>
<g style="fill:#000000; fill-opacity:1.0000; 
stroke:#000000; stroke-width:0.0000; stroke-opacity:1; 
stroke-linecap:round; stroke-linejoin:round;">
<circle cx="12.1100" cy="23.4600" r="0.5100" /> 
</g>
<g style="fill:#000000; fill-opacity:1.0000; 
stroke:#000000; stroke-width:0.0212; stroke-opacity:1; 
stroke-linecap:round; stroke-linejoin:round;">
</g>
<g style="fill:#000000; fill-opacity:1.0000; 
stroke:#000000; stroke-width:0.0000; stroke-opacity:1; 
stroke-linecap:round; stroke-linejoin:round;">
<circle cx="12.1100" cy="26.0000" r="0.5100" /> 
</g>
<g style="fill:#000000; fill-opacity:1.0000; 
stroke:#000000; stroke-width:0.0212; stroke-opacity:1; 
stroke-linecap:round; stroke-linejoin:round;">
</g>
<g style="fill:#000000; fill-opacity:1.0000; 
stroke:#000000; stroke-width:0.0000; stroke-opacity:1; 
stroke-linecap:round; stroke-linejoin:round;">
<circle cx="12.1100" cy="28.5400" r="0.5100" /> 
</g>
<g style="fill:#000000; fill-opacity:1.0000; 
stroke:#000000; stroke-width:0.0212; stroke-opacity:1; 
stroke-linecap:round; stroke-linejoin:round;">
</g>
<g style="fill:#000000; fill-opacity:1.0000; 
stroke:#000000; stroke-width:0.0000; stroke-opacity:1; 
stroke-linecap:round; stroke-linejoin:round;">
<circle cx="12.1100" cy="31.0800" r="0.5100" /> 
</g>
<g style="fill:#000000; fill-opacity:1.0000; 
stroke:#000000; stroke-width:0.0212; stroke-opacity:1; 
stroke-linecap:round; stroke-linejoin:round;">
</g>
<g style="fill:#000000; fill-opacity:1.0000; 
stroke:#000000; stroke-width:0.0000; stroke-opacity:1; 
stroke-linecap:round; stroke-linejoin:round;">
<circle cx="12.1100" cy="33.6200" r="0.5100" /> 
</g>
<g style="fill:#000000; fill-opacity:1.0000; 
stroke:#000000; stroke-width:0.0212; stroke-opacity:1; 
stroke-linecap:round; stroke-linejoin:round;">
</g>
<g style="fill:#000000; fill-opacity:1.0000; 
stroke:#000000; stroke-width:0.0000; stroke-opacity:1; 
stroke-linecap:round; stroke-linejoin:round;">
<circle cx="12.1100" cy="36.1600" r="0.5100" /> 
</g>
<g style="fill:#000000; fill-opacity:1.0000; 
stroke:#000000; stroke-width:0.0212; stroke-opacity:1; 
stroke-linecap:round; stroke-linejoin:round;">
</g>
<g style="fill:#000000; fill-opacity:1.0000; 
stroke:#000000; stroke-width:0.0000; stroke-opacity:1; 
stroke-linecap:round; stroke-linejoin:round;">
<circle cx="12.1100" cy="38.7000" r="0.5100" /> 
</g>
<g style="fill:#000000; fill-opacity:1.0000; 
stroke:#000000; stroke-width:0.0212; stroke-opacity:1; 
stroke-linecap:round; stroke-linejoin:round;">
</g>
<g style="fill:#000000; fill-opacity:1.0000; 
stroke:#000000; stroke-width:0.0000; stroke-opacity:1; 
stroke-linecap:round; stroke-linejoin:round;">
<circle cx="29.8900" cy="38.7000" r="0.5100" /> 
</g>
<g style="fill:#000000; fill-opacity:1.0000; 
stroke:#000000; stroke-width:0.0212; stroke-opacity:1; 
stroke-linecap:round; stroke-linejoin:round;">
</g>
<g style="fill:#000000; fill-opacity:1.0000; 
stroke:#000000; stroke-width:0.0000; stroke-opacity:1; 
stroke-linecap:round; stroke-linejoin:round;">
<circle cx="29.8900" cy="36.1600" r="0.5100" /> 
</g>
<g style="fill:#000000; fill-opacity:1.0000; 
stroke:#000000; stroke-width:0.0212; stroke-opacity:1; 
stroke-linecap:round; stroke-linejoin:round;">
</g>
<g style="fill:#000000; fill-opacity:1.0000; 
stroke:#000000; stroke-width:0.0000; stroke-opacity:1; 
stroke-linecap:round; stroke-linejoin:round;">
<circle cx="29.8900" cy="33.6200" r="0.5100" /> 
</g>
<g style="fill:#000000; fill-opacity:1.0000; 
stroke:#000000; stroke-width:0.0212; stroke-opacity:1; 
stroke-linecap:round; stroke-linejoin:round;">
</g>
<g style="fill:#000000; fill-opacity:1.0000; 
stroke:#000000; stroke-width:0.0000; stroke-opacity:1; 
stroke-linecap:round; stroke-linejoin:round;">
<circle cx="29.8900" cy="31.0800" r="0.5100" /> 
</g>
<g style="fill:#000000; fill-opacity:1.0000; 
stroke:#000000; stroke-width:0.0212; stroke-opacity:1; 
stroke-linecap:round; stroke-linejoin:round;">
</g>
<g style="fill:#000000; fill-opacity:1.0000; 
stroke:#000000; stroke-width:0.0000; stroke-opacity:1; 
stroke-linecap:round; stroke-linejoin:round;">
<circle cx="29.8900" cy="28.5400" r="0.5100" /> 
</g>
<g style="fill:#000000; fill-opacity:1.0000; 
stroke:#000000; stroke-width:0.0212; stroke-opacity:1; 
stroke-linecap:round; stroke-linejoin:round;">
</g>
<g style="fill:#000000; fill-opacity:1.0000; 
stroke:#000000; stroke-width:0.0000; stroke-opacity:1; 
stroke-linecap:round; stroke-linejoin:round;">
<circle cx="29.8900" cy="26.0000" r="0.5100" /> 
</g>
<g style="fill:#000000; fill-opacity:1.0000; 
stroke:#000000; stroke-width:0.0212; stroke-opacity:1; 
stroke-linecap:round; stroke-linejoin:round;">
</g>
<g style="fill:#000000; fill-opacity:1.0000; 
stroke:#000000; stroke-width:0.0000; stroke-opacity:1; 
stroke-linecap:round; stroke-linejoin:round;">
<circle cx="29.8900" cy="23.4600" r="0.5100" /> 
</g>
<g style="fill:#000000; fill-opacity:1.0000; 
stroke:#000000; stroke-width:0.0212; stroke-opacity:1; 
stroke-linecap:round; stroke-linejoin:round;">
</g>
<g style="fill:#000000; fill-opacity:1.0000; 
stroke:#000000; stroke-width:0.0000; stroke-opacity:1; 
stroke-linecap:round; stroke-linejoin:round;">
<circle cx="29.8900" cy="20.9200" r="0.5100" /> 
</g>
<g style="fill:#000000; fill-opacity:1.0000; 
stroke:#000000; stroke-width:0.0212; stroke-opacity:1; 
stroke-linecap:round; stroke-linejoin:round;">
</g>
<g style="fill:#000000; fill-opacity:1.0000; 
stroke:#000000; stroke-width:0.0000; stroke-opacity:1; 
stroke-linecap:round; stroke-linejoin:round;">
<circle cx="29.8900" cy="18.3800" r="0.5100" /> 
</g>
<g style="fill:#000000; fill-opacity:1.0000; 
stroke:#000000; stroke-width:0.0212; stroke-opacity:1; 
stroke-linecap:round; stroke-linejoin:round;">
</g>
<g style="fill:#000000; fill-opacity:1.0000; 
stroke:#000000; stroke-width:0.0000; stroke-opacity:1; 
stroke-linecap:round; stroke-linejoin:round;">
<circle cx="29.8900" cy="15.8400" r="0.5100" /> 
</g>
<g style="fill:#000000; fill-opacity:1.0000; 
stroke:#000000; stroke-width:0.0212; stroke-opacity:1; 
stroke-linecap:round; stroke-linejoin:round;">
</g>
<g style="fill:#000000; fill-opacity:1.0000; 
stroke:#000000; stroke-width:0.0000; stroke-opacity:1; 
stroke-linecap:round; stroke-linejoin:round;">
<circle cx="29.8900" cy="13.3000" r="0.5100" /> 
</g>
<g style="fill:#000000; fill-opacity:1.0000; 
stroke:#000000; stroke-width:0.0212; stroke-opacity:1; 
stroke-linecap:round; stroke-linejoin:round;">
</g>
<g style="fill:#000000; fill-opacity:1.0000; 
stroke:#000000; stroke-width:0.0000; stroke-opacity:1; 
stroke-linecap:round; stroke-linejoin:round;">
<circle cx="29.8900" cy="10.7600" r="0.5100" /> 
</g>
<g style="fill:#000000; fill-opacity:1.0000; 
stroke:#000000; stroke-width:0.0212; stroke-opacity:1; 
stroke-linecap:round; stroke-linejoin:round;">
</g>
<g style="fill:#FFFFFF; fill-opacity:1.0000; 
stroke:#FFFFFF; stroke-width:0.0212; stroke-opacity:1; 
stroke-linecap:round; stroke-linejoin:round;">
</g>
<g style="fill:#2F2D31; fill-opacity:1.0000; 
stroke:#2F2D31; stroke-width:0.0212; stroke-opacity:1; 
stroke-linecap:round; stroke-linejoin:round;">
</g>
<g style="fill:#2F2D31; fill-opacity:1.0000; 
stroke:#2F2D31; stroke-width:0.1000; stroke-opacity:1; 
stroke-linecap:round; stroke-linejoin:round;">
</g>
<g style="fill:#2F2D31; fill-opacity:0.0; 
stroke:#2F2D31; stroke-width:0.1000; stroke-opacity:1; 
stroke-linecap:round; stroke-linejoin:round;">
<path d="M36.0000 1.0000
L36.0000 51.0000
" />
<path d="M1.0000 51.0000
L1.0000 1.0000
" />
<path d="M36.0000 51.0000
L1.0000 51.0000
" />
<path d="M1.0000 1.0000
L36.0000 1.0000
" />
<g >
</g>
<g >
</g>
<g >
</g>
<g >
</g>
<g >
</g>
<g >
</g>
<g >
</g>
</g> 
</svg>
