<?xml version="1.0" standalone="no"?>
 <!DOCTYPE svg PUBLIC "-//W3C//DTD SVG 1.1//EN" 
 "http://www.w3.org/Graphics/SVG/1.1/DTD/svg11.dtd"> 
<svg
  xmlns:svg="http://www.w3.org/2000/svg"
  xmlns="http://www.w3.org/2000/svg"
  xmlns:xlink="http://www.w3.org/1999/xlink"
  version="1.1"
  width="25.4254mm" height="5.0292mm" viewBox="0.0000 0.0000 25.4254 5.0292">
<title>SVG Image created as working-brd.svg date 2023/09/12 04:01:22 </title>
  <desc>Image generated by PCBNEW </desc>
<g style="fill:#000000; fill-opacity:1.0000;stroke:#000000; stroke-opacity:1.0000;
stroke-linecap:round; stroke-linejoin:round;"
 transform="translate(0 0) scale(1 1)">
</g>
<g style="fill:#000000; fill-opacity:0.0; 
stroke:#000000; stroke-width:0.0000; stroke-opacity:1; 
stroke-linecap:round; stroke-linejoin:round;">
</g>
<g style="fill:#000000; fill-opacity:1.0000; 
stroke:#000000; stroke-width:0.0212; stroke-opacity:1; 
stroke-linecap:round; stroke-linejoin:round;">
<rect x="-5.000000" y="-5.000000" width="35.440475" height="15.048250" rx="0.000000" />
</g>
<g style="fill:#FFFFFF; fill-opacity:1.0000; 
stroke:#FFFFFF; stroke-width:0.0212; stroke-opacity:1; 
stroke-linecap:round; stroke-linejoin:round;">
<g >
</g>
<g >
</g>
<g >
</g>
<g >
</g>
<g >
</g>
<g >
</g>
</g>
<g style="fill:#FFFFFF; fill-opacity:1.0000; 
stroke:#FFFFFF; stroke-width:0.0212; stroke-opacity:1; 
stroke-linecap:round; stroke-linejoin:round;">
<g >
</g>
<g >
</g>
<g >
</g>
<g >
</g>
<g >
</g>
<g >
</g>
</g>
<g style="fill:#FFFFFF; fill-opacity:1.0000; 
stroke:#FFFFFF; stroke-width:0.0212; stroke-opacity:1; 
stroke-linecap:round; stroke-linejoin:round;">
<g >
</g>
<g >
</g>
<g >
</g>
<g >
</g>
<g >
</g>
<g >
</g>
</g>
<g style="fill:#FFFFFF; fill-opacity:1.0000; 
stroke:#FFFFFF; stroke-width:0.0212; stroke-opacity:1; 
stroke-linecap:round; stroke-linejoin:round;">
</g>
<g style="fill:#174D58; fill-opacity:1.0000; 
stroke:#174D58; stroke-width:0.0212; stroke-opacity:1; 
stroke-linecap:round; stroke-linejoin:round;">
</g>
<g style="fill:#174D58; fill-opacity:1.0000; 
stroke:#174D58; stroke-width:0.1000; stroke-opacity:1; 
stroke-linecap:round; stroke-linejoin:round;">
</g>
<g style="fill:#174D58; fill-opacity:0.0; 
stroke:#174D58; stroke-width:0.1000; stroke-opacity:1; 
stroke-linecap:round; stroke-linejoin:round;">
<text x="12.7202" y="1.9712"
transform="scale(-1 1) translate(-25.440474 0)"
textLength="7.8643" font-size="1.0000" lengthAdjust="spacingAndGlyphs"
text-anchor="middle" opacity="0">8mm Fiducial</text>
<g class="stroked-text"><desc>8mm Fiducial</desc>
<path d="M16.2917 1.5094
L16.3631 1.4737
" />
<path d="M16.3631 1.4737
L16.3988 1.4380
" />
<path d="M16.3988 1.4380
L16.4345 1.3666
" />
<path d="M16.4345 1.3666
L16.4345 1.3309
" />
<path d="M16.4345 1.3309
L16.3988 1.2594
" />
<path d="M16.3988 1.2594
L16.3631 1.2237
" />
<path d="M16.3631 1.2237
L16.2917 1.1880
" />
<path d="M16.2917 1.1880
L16.1488 1.1880
" />
<path d="M16.1488 1.1880
L16.0774 1.2237
" />
<path d="M16.0774 1.2237
L16.0417 1.2594
" />
<path d="M16.0417 1.2594
L16.0059 1.3309
" />
<path d="M16.0059 1.3309
L16.0059 1.3666
" />
<path d="M16.0059 1.3666
L16.0417 1.4380
" />
<path d="M16.0417 1.4380
L16.0774 1.4737
" />
<path d="M16.0774 1.4737
L16.1488 1.5094
" />
<path d="M16.1488 1.5094
L16.2917 1.5094
" />
<path d="M16.2917 1.5094
L16.3631 1.5452
" />
<path d="M16.3631 1.5452
L16.3988 1.5809
" />
<path d="M16.3988 1.5809
L16.4345 1.6523
" />
<path d="M16.4345 1.6523
L16.4345 1.7952
" />
<path d="M16.4345 1.7952
L16.3988 1.8666
" />
<path d="M16.3988 1.8666
L16.3631 1.9023
" />
<path d="M16.3631 1.9023
L16.2917 1.9380
" />
<path d="M16.2917 1.9380
L16.1488 1.9380
" />
<path d="M16.1488 1.9380
L16.0774 1.9023
" />
<path d="M16.0774 1.9023
L16.0417 1.8666
" />
<path d="M16.0417 1.8666
L16.0059 1.7952
" />
<path d="M16.0059 1.7952
L16.0059 1.6523
" />
<path d="M16.0059 1.6523
L16.0417 1.5809
" />
<path d="M16.0417 1.5809
L16.0774 1.5452
" />
<path d="M16.0774 1.5452
L16.1488 1.5094
" />
<path d="M15.6845 1.9380
L15.6845 1.4380
" />
<path d="M15.6845 1.5094
L15.6488 1.4737
" />
<path d="M15.6488 1.4737
L15.5774 1.4380
" />
<path d="M15.5774 1.4380
L15.4702 1.4380
" />
<path d="M15.4702 1.4380
L15.3988 1.4737
" />
<path d="M15.3988 1.4737
L15.3631 1.5452
" />
<path d="M15.3631 1.5452
L15.3631 1.9380
" />
<path d="M15.3631 1.5452
L15.3274 1.4737
" />
<path d="M15.3274 1.4737
L15.2559 1.4380
" />
<path d="M15.2559 1.4380
L15.1488 1.4380
" />
<path d="M15.1488 1.4380
L15.0774 1.4737
" />
<path d="M15.0774 1.4737
L15.0417 1.5452
" />
<path d="M15.0417 1.5452
L15.0417 1.9380
" />
<path d="M14.6845 1.9380
L14.6845 1.4380
" />
<path d="M14.6845 1.5094
L14.6488 1.4737
" />
<path d="M14.6488 1.4737
L14.5774 1.4380
" />
<path d="M14.5774 1.4380
L14.4702 1.4380
" />
<path d="M14.4702 1.4380
L14.3988 1.4737
" />
<path d="M14.3988 1.4737
L14.3631 1.5452
" />
<path d="M14.3631 1.5452
L14.3631 1.9380
" />
<path d="M14.3631 1.5452
L14.3274 1.4737
" />
<path d="M14.3274 1.4737
L14.2559 1.4380
" />
<path d="M14.2559 1.4380
L14.1488 1.4380
" />
<path d="M14.1488 1.4380
L14.0774 1.4737
" />
<path d="M14.0774 1.4737
L14.0417 1.5452
" />
<path d="M14.0417 1.5452
L14.0417 1.9380
" />
<path d="M12.8631 1.5452
L13.1131 1.5452
" />
<path d="M13.1131 1.9380
L13.1131 1.1880
" />
<path d="M13.1131 1.1880
L12.7559 1.1880
" />
<path d="M12.4702 1.9380
L12.4702 1.4380
" />
<path d="M12.4702 1.1880
L12.5059 1.2237
" />
<path d="M12.5059 1.2237
L12.4702 1.2594
" />
<path d="M12.4702 1.2594
L12.4345 1.2237
" />
<path d="M12.4345 1.2237
L12.4702 1.1880
" />
<path d="M12.4702 1.1880
L12.4702 1.2594
" />
<path d="M11.7917 1.9380
L11.7917 1.1880
" />
<path d="M11.7917 1.9023
L11.8631 1.9380
" />
<path d="M11.8631 1.9380
L12.0059 1.9380
" />
<path d="M12.0059 1.9380
L12.0774 1.9023
" />
<path d="M12.0774 1.9023
L12.1131 1.8666
" />
<path d="M12.1131 1.8666
L12.1488 1.7952
" />
<path d="M12.1488 1.7952
L12.1488 1.5809
" />
<path d="M12.1488 1.5809
L12.1131 1.5094
" />
<path d="M12.1131 1.5094
L12.0774 1.4737
" />
<path d="M12.0774 1.4737
L12.0059 1.4380
" />
<path d="M12.0059 1.4380
L11.8631 1.4380
" />
<path d="M11.8631 1.4380
L11.7917 1.4737
" />
<path d="M11.1131 1.4380
L11.1131 1.9380
" />
<path d="M11.4345 1.4380
L11.4345 1.8309
" />
<path d="M11.4345 1.8309
L11.3988 1.9023
" />
<path d="M11.3988 1.9023
L11.3274 1.9380
" />
<path d="M11.3274 1.9380
L11.2202 1.9380
" />
<path d="M11.2202 1.9380
L11.1488 1.9023
" />
<path d="M11.1488 1.9023
L11.1131 1.8666
" />
<path d="M10.4345 1.9023
L10.5060 1.9380
" />
<path d="M10.5060 1.9380
L10.6488 1.9380
" />
<path d="M10.6488 1.9380
L10.7202 1.9023
" />
<path d="M10.7202 1.9023
L10.7560 1.8666
" />
<path d="M10.7560 1.8666
L10.7917 1.7952
" />
<path d="M10.7917 1.7952
L10.7917 1.5809
" />
<path d="M10.7917 1.5809
L10.7560 1.5094
" />
<path d="M10.7560 1.5094
L10.7202 1.4737
" />
<path d="M10.7202 1.4737
L10.6488 1.4380
" />
<path d="M10.6488 1.4380
L10.5060 1.4380
" />
<path d="M10.5060 1.4380
L10.4345 1.4737
" />
<path d="M10.1131 1.9380
L10.1131 1.4380
" />
<path d="M10.1131 1.1880
L10.1488 1.2237
" />
<path d="M10.1488 1.2237
L10.1131 1.2594
" />
<path d="M10.1131 1.2594
L10.0774 1.2237
" />
<path d="M10.0774 1.2237
L10.1131 1.1880
" />
<path d="M10.1131 1.1880
L10.1131 1.2594
" />
<path d="M9.4345 1.9380
L9.4345 1.5452
" />
<path d="M9.4345 1.5452
L9.4702 1.4737
" />
<path d="M9.4702 1.4737
L9.5417 1.4380
" />
<path d="M9.5417 1.4380
L9.6845 1.4380
" />
<path d="M9.6845 1.4380
L9.7560 1.4737
" />
<path d="M9.4345 1.9023
L9.5060 1.9380
" />
<path d="M9.5060 1.9380
L9.6845 1.9380
" />
<path d="M9.6845 1.9380
L9.7560 1.9023
" />
<path d="M9.7560 1.9023
L9.7917 1.8309
" />
<path d="M9.7917 1.8309
L9.7917 1.7594
" />
<path d="M9.7917 1.7594
L9.7560 1.6880
" />
<path d="M9.7560 1.6880
L9.6845 1.6523
" />
<path d="M9.6845 1.6523
L9.5060 1.6523
" />
<path d="M9.5060 1.6523
L9.4345 1.6166
" />
<path d="M8.9702 1.9380
L9.0417 1.9023
" />
<path d="M9.0417 1.9023
L9.0774 1.8309
" />
<path d="M9.0774 1.8309
L9.0774 1.1880
" />
</g><text x="12.7202" y="3.1787"
transform="scale(-1 1) translate(-25.440474 0)"
textLength="3.6500" font-size="1.0000" lengthAdjust="spacingAndGlyphs"
text-anchor="middle" opacity="0">REV01</text>
<g class="stroked-text"><desc>REV01</desc>
<path d="M13.8631 3.1455
L14.1131 2.7884
" />
<path d="M14.2917 3.1455
L14.2917 2.3955
" />
<path d="M14.2917 2.3955
L14.0060 2.3955
" />
<path d="M14.0060 2.3955
L13.9345 2.4312
" />
<path d="M13.9345 2.4312
L13.8988 2.4669
" />
<path d="M13.8988 2.4669
L13.8631 2.5384
" />
<path d="M13.8631 2.5384
L13.8631 2.6455
" />
<path d="M13.8631 2.6455
L13.8988 2.7169
" />
<path d="M13.8988 2.7169
L13.9345 2.7527
" />
<path d="M13.9345 2.7527
L14.0060 2.7884
" />
<path d="M14.0060 2.7884
L14.2917 2.7884
" />
<path d="M13.5417 2.7527
L13.2917 2.7527
" />
<path d="M13.1845 3.1455
L13.5417 3.1455
" />
<path d="M13.5417 3.1455
L13.5417 2.3955
" />
<path d="M13.5417 2.3955
L13.1845 2.3955
" />
<path d="M12.9702 2.3955
L12.7202 3.1455
" />
<path d="M12.7202 3.1455
L12.4702 2.3955
" />
<path d="M12.0774 2.3955
L12.0060 2.3955
" />
<path d="M12.0060 2.3955
L11.9345 2.4312
" />
<path d="M11.9345 2.4312
L11.8988 2.4669
" />
<path d="M11.8988 2.4669
L11.8631 2.5384
" />
<path d="M11.8631 2.5384
L11.8274 2.6812
" />
<path d="M11.8274 2.6812
L11.8274 2.8598
" />
<path d="M11.8274 2.8598
L11.8631 3.0027
" />
<path d="M11.8631 3.0027
L11.8988 3.0741
" />
<path d="M11.8988 3.0741
L11.9345 3.1098
" />
<path d="M11.9345 3.1098
L12.0060 3.1455
" />
<path d="M12.0060 3.1455
L12.0774 3.1455
" />
<path d="M12.0774 3.1455
L12.1488 3.1098
" />
<path d="M12.1488 3.1098
L12.1845 3.0741
" />
<path d="M12.1845 3.0741
L12.2202 3.0027
" />
<path d="M12.2202 3.0027
L12.2560 2.8598
" />
<path d="M12.2560 2.8598
L12.2560 2.6812
" />
<path d="M12.2560 2.6812
L12.2202 2.5384
" />
<path d="M12.2202 2.5384
L12.1845 2.4669
" />
<path d="M12.1845 2.4669
L12.1488 2.4312
" />
<path d="M12.1488 2.4312
L12.0774 2.3955
" />
<path d="M11.1131 3.1455
L11.5417 3.1455
" />
<path d="M11.3274 3.1455
L11.3274 2.3955
" />
<path d="M11.3274 2.3955
L11.3988 2.5027
" />
<path d="M11.3988 2.5027
L11.4702 2.5741
" />
<path d="M11.4702 2.5741
L11.5417 2.6098
" />
</g><g >
</g>
<g >
</g>
<g >
</g>
<g >
</g>
<g >
</g>
<g >
</g>
</g>
<g style="fill:#000000; fill-opacity:0.0; 
stroke:#000000; stroke-width:0.1000; stroke-opacity:1; 
stroke-linecap:round; stroke-linejoin:round;">
</g>
<g style="fill:#FFFFFF; fill-opacity:0.0; 
stroke:#FFFFFF; stroke-width:0.1000; stroke-opacity:1; 
stroke-linecap:round; stroke-linejoin:round;">
<g >
</g>
<g >
</g>
<g >
</g>
<g >
</g>
<g >
</g>
<g >
</g>
</g>
<g style="fill:#FFFFFF; fill-opacity:0.0; 
stroke:#FFFFFF; stroke-width:0.1000; stroke-opacity:1; 
stroke-linecap:round; stroke-linejoin:round;">
<g >
</g>
<g >
</g>
<g >
</g>
<g >
</g>
<g >
</g>
<g >
</g>
</g>
<g style="fill:#FFFFFF; fill-opacity:0.0; 
stroke:#FFFFFF; stroke-width:0.1000; stroke-opacity:1; 
stroke-linecap:round; stroke-linejoin:round;">
<g >
</g>
<g >
</g>
<g >
</g>
<g >
</g>
<g >
</g>
<g >
</g>
<g style="fill:#B2803A; fill-opacity:0.0; 
stroke:#B2803A; stroke-width:0.1000; stroke-opacity:1; 
stroke-linecap:round; stroke-linejoin:round;">
<g >
</g>
<g style="fill:#B2803A; fill-opacity:1.0000; 
stroke:#B2803A; stroke-width:0.0000; stroke-opacity:1; 
stroke-linecap:round; stroke-linejoin:round;">
<path style="fill:#B2803A; fill-opacity:1.0000; 
stroke:#B2803A; stroke-width:0.0000; stroke-opacity:1; 
stroke-linecap:round; stroke-linejoin:round;fill-rule:evenodd;"
d="M 18.6628,0.2202
18.7085,0.2730
18.7197,0.3245
18.7197,4.0755
18.7001,4.1425
18.6472,4.1883
18.5957,4.1995
6.8447,4.1995
6.7777,4.1798
6.7319,4.1270
6.7207,4.0755
6.7207,0.3245
6.7404,0.2575
6.7932,0.2117
6.8447,0.2005
18.5957,0.2005
Z" /> 
</g>
</g>
</g>
<g style="fill:#000000; fill-opacity:1.0000; 
stroke:#000000; stroke-width:0.0000; stroke-opacity:1; 
stroke-linecap:round; stroke-linejoin:round;">
</g>
<g style="fill:#FFFFFF; fill-opacity:1.0000; 
stroke:#FFFFFF; stroke-width:0.0000; stroke-opacity:1; 
stroke-linecap:round; stroke-linejoin:round;">
<g >
</g>
<g style="fill:#37CBCB; fill-opacity:1.0000; 
stroke:#37CBCB; stroke-width:0.0000; stroke-opacity:1; 
stroke-linecap:round; stroke-linejoin:round;">
<circle cx="12.7202" cy="2.2000" r="0.5000" /> 
</g>
<g style="fill:#37CBCB; fill-opacity:1.0000; 
stroke:#37CBCB; stroke-width:0.0212; stroke-opacity:1; 
stroke-linecap:round; stroke-linejoin:round;">
</g>
<g >
</g>
<g style="fill:#37CBCB; fill-opacity:1.0000; 
stroke:#37CBCB; stroke-width:0.0212; stroke-opacity:1; 
stroke-linecap:round; stroke-linejoin:round;">
</g>
<g style="fill:#37CBCB; fill-opacity:1.0000; 
stroke:#37CBCB; stroke-width:0.0000; stroke-opacity:1; 
stroke-linecap:round; stroke-linejoin:round;">
<circle cx="14.7202" cy="2.2000" r="0.2500" /> 
</g>
<g style="fill:#37CBCB; fill-opacity:1.0000; 
stroke:#37CBCB; stroke-width:0.0212; stroke-opacity:1; 
stroke-linecap:round; stroke-linejoin:round;">
</g>
<g >
</g>
<g style="fill:#37CBCB; fill-opacity:1.0000; 
stroke:#37CBCB; stroke-width:0.0212; stroke-opacity:1; 
stroke-linecap:round; stroke-linejoin:round;">
</g>
<g style="fill:#37CBCB; fill-opacity:1.0000; 
stroke:#37CBCB; stroke-width:0.0000; stroke-opacity:1; 
stroke-linecap:round; stroke-linejoin:round;">
<circle cx="10.7202" cy="2.2000" r="0.2500" /> 
</g>
<g style="fill:#37CBCB; fill-opacity:1.0000; 
stroke:#37CBCB; stroke-width:0.0212; stroke-opacity:1; 
stroke-linecap:round; stroke-linejoin:round;">
</g>
<g >
</g>
<g >
</g>
<g >
</g>
<g style="fill:#37CBCB; fill-opacity:1.0000; 
stroke:#37CBCB; stroke-width:0.0212; stroke-opacity:1; 
stroke-linecap:round; stroke-linejoin:round;">
<g >
</g>
<g style="fill:#37CBCB; fill-opacity:1.0000; 
stroke:#37CBCB; stroke-width:0.0000; stroke-opacity:1; 
stroke-linecap:round; stroke-linejoin:round;">
<path style="fill:#37CBCB; fill-opacity:1.0000; 
stroke:#37CBCB; stroke-width:0.0000; stroke-opacity:1; 
stroke-linecap:round; stroke-linejoin:round;fill-rule:evenodd;"
d="M 18.6628,0.2202
18.7085,0.2730
18.7197,0.3245
18.7197,4.0755
18.7001,4.1425
18.6472,4.1883
18.5957,4.1995
6.8447,4.1995
6.7777,4.1798
6.7319,4.1270
6.7207,4.0755
6.7207,2.2000
9.9650,2.2000
9.9839,2.3681
10.0398,2.5277
10.0398,2.5277
10.1298,2.6709
10.1298,2.6709
10.2493,2.7905
10.2494,2.7905
10.3925,2.8805
10.3925,2.8805
10.5522,2.9363
10.7202,2.9552
10.7202,2.9552
10.7202,2.9552
10.8883,2.9363
11.0479,2.8805
11.0479,2.8805
11.1911,2.7905
11.1911,2.7905
11.3107,2.6709
11.3107,2.6709
11.4007,2.5277
11.4007,2.5277
11.4566,2.3681
11.4717,2.2334
11.4856,2.2003
11.4854,2.1999
11.7042,2.1999
11.7171,2.2258
11.7184,2.2351
11.7342,2.3961
11.7914,2.5847
11.8843,2.7585
11.8843,2.7585
12.0094,2.9109
12.1617,3.0359
12.1617,3.0359
12.3355,3.1288
12.5241,3.1860
12.7202,3.2053
12.9164,3.1860
12.9792,3.1670
13.1050,3.1288
13.1050,3.1288
13.2788,3.0359
13.2788,3.0359
13.4311,2.9109
13.5561,2.7585
13.5561,2.7585
13.6490,2.5847
13.6490,2.5847
13.6491,2.5847
13.7063,2.3961
13.7221,2.2351
13.7362,2.2001
13.7360,2.1997
13.9549,2.1997
13.9674,2.2241
13.9687,2.2334
13.9839,2.3681
14.0398,2.5277
14.0398,2.5277
14.1298,2.6709
14.1298,2.6709
14.2493,2.7905
14.2494,2.7905
14.3925,2.8805
14.3925,2.8805
14.5522,2.9363
14.7202,2.9552
14.7202,2.9552
14.7202,2.9552
14.8883,2.9363
15.0479,2.8805
15.0479,2.8805
15.1911,2.7905
15.1911,2.7905
15.3107,2.6709
15.3107,2.6709
15.4007,2.5277
15.4007,2.5277
15.4566,2.3681
15.4755,2.2000
15.4755,2.2000
15.4566,2.0319
15.4467,2.0039
15.4007,1.8723
15.4007,1.8723
15.4007,1.8723
15.4007,1.8723
15.3107,1.7291
15.3107,1.7291
15.3107,1.7291
15.1911,1.6095
15.1911,1.6095
15.0479,1.5195
15.0479,1.5195
15.0479,1.5195
15.0479,1.5195
14.8883,1.4637
14.8883,1.4637
14.8883,1.4637
14.7202,1.4448
14.7202,1.4448
14.5522,1.4637
14.4795,1.4891
14.3925,1.5195
14.3925,1.5195
14.3925,1.5195
14.3925,1.5195
14.2494,1.6095
14.2493,1.6095
14.1298,1.7291
14.1298,1.7291
14.0398,1.8723
14.0398,1.8723
13.9839,2.0319
13.9687,2.1666
13.9549,2.1997
13.7360,2.1997
13.7234,2.1742
13.7221,2.1649
13.7063,2.0039
13.6491,1.8153
13.5561,1.6415
13.4311,1.4891
13.2788,1.3641
13.1050,1.2712
12.9164,1.2140
12.7202,1.1947
12.5241,1.2140
12.3355,1.2712
12.3355,1.2712
12.3355,1.2712
12.1617,1.3641
12.1617,1.3641
12.0094,1.4891
11.8843,1.6415
11.8843,1.6415
11.7914,1.8153
11.7342,2.0039
11.7184,2.1649
11.7042,2.1999
11.4854,2.1999
11.4731,2.1759
11.4717,2.1666
11.4566,2.0319
11.4467,2.0039
11.4007,1.8723
11.4007,1.8723
11.4007,1.8723
11.4007,1.8723
11.3107,1.7291
11.3107,1.7291
11.3107,1.7291
11.1911,1.6095
11.1911,1.6095
11.0479,1.5195
11.0479,1.5195
11.0479,1.5195
11.0479,1.5195
10.8883,1.4637
10.8883,1.4637
10.8883,1.4637
10.7202,1.4448
10.7202,1.4448
10.5522,1.4637
10.4795,1.4891
10.3925,1.5195
10.3925,1.5195
10.3925,1.5195
10.3925,1.5195
10.2494,1.6095
10.2493,1.6095
10.1298,1.7291
10.1298,1.7291
10.0398,1.8723
10.0398,1.8723
9.9839,2.0319
9.9650,2.2000
9.9650,2.2000
6.7207,2.2000
6.7207,0.3245
6.7404,0.2575
6.7932,0.2117
6.8447,0.2005
18.5957,0.2005
Z" /> 
</g>
</g>
</g>
<g style="fill:#000000; fill-opacity:1.0000; 
stroke:#000000; stroke-width:0.0000; stroke-opacity:1; 
stroke-linecap:round; stroke-linejoin:round;">
</g>
<g style="fill:#FFFFFF; fill-opacity:1.0000; 
stroke:#FFFFFF; stroke-width:0.0000; stroke-opacity:1; 
stroke-linecap:round; stroke-linejoin:round;">
<g >
</g>
<g style="fill:#279B00; fill-opacity:0.4000; 
stroke:#279B00; stroke-width:0.0000; stroke-opacity:1; 
stroke-linecap:round; stroke-linejoin:round;">
<circle cx="12.7202" cy="2.2000" r="1.0000" /> 
</g>
<g style="fill:#279B00; fill-opacity:0.4000; 
stroke:#279B00; stroke-width:0.0212; stroke-opacity:1; 
stroke-linecap:round; stroke-linejoin:round;">
</g>
<g >
</g>
<g style="fill:#279B00; fill-opacity:0.4000; 
stroke:#279B00; stroke-width:0.0212; stroke-opacity:1; 
stroke-linecap:round; stroke-linejoin:round;">
</g>
<g style="fill:#279B00; fill-opacity:0.4000; 
stroke:#279B00; stroke-width:0.0000; stroke-opacity:1; 
stroke-linecap:round; stroke-linejoin:round;">
<circle cx="14.7202" cy="2.2000" r="0.7500" /> 
</g>
<g style="fill:#279B00; fill-opacity:0.4000; 
stroke:#279B00; stroke-width:0.0212; stroke-opacity:1; 
stroke-linecap:round; stroke-linejoin:round;">
</g>
<g >
</g>
<g style="fill:#279B00; fill-opacity:0.4000; 
stroke:#279B00; stroke-width:0.0212; stroke-opacity:1; 
stroke-linecap:round; stroke-linejoin:round;">
</g>
<g style="fill:#279B00; fill-opacity:0.4000; 
stroke:#279B00; stroke-width:0.0000; stroke-opacity:1; 
stroke-linecap:round; stroke-linejoin:round;">
<circle cx="10.7202" cy="2.2000" r="0.7500" /> 
</g>
<g style="fill:#279B00; fill-opacity:0.4000; 
stroke:#279B00; stroke-width:0.0212; stroke-opacity:1; 
stroke-linecap:round; stroke-linejoin:round;">
</g>
<g >
</g>
<g >
</g>
<g >
</g>
</g>
<g style="fill:#FFFFFF; fill-opacity:1.0000; 
stroke:#FFFFFF; stroke-width:0.0212; stroke-opacity:1; 
stroke-linecap:round; stroke-linejoin:round;">
<g >
</g>
<g >
</g>
<g >
</g>
<g >
</g>
<g >
</g>
<g >
</g>
</g>
<g style="fill:#FFFFFF; fill-opacity:1.0000; 
stroke:#FFFFFF; stroke-width:0.0212; stroke-opacity:1; 
stroke-linecap:round; stroke-linejoin:round;">
<g >
</g>
<g >
</g>
<g >
</g>
<g >
</g>
<g >
</g>
<g >
</g>
</g>
<g style="fill:#000000; fill-opacity:1.0000; 
stroke:#000000; stroke-width:0.0212; stroke-opacity:1; 
stroke-linecap:round; stroke-linejoin:round;">
</g>
<g style="fill:#FFFFFF; fill-opacity:1.0000; 
stroke:#FFFFFF; stroke-width:0.0212; stroke-opacity:1; 
stroke-linecap:round; stroke-linejoin:round;">
<g >
</g>
<g >
</g>
<g >
</g>
<g >
</g>
<g >
</g>
<g >
</g>
</g>
<g style="fill:#FFFFFF; fill-opacity:1.0000; 
stroke:#FFFFFF; stroke-width:0.0212; stroke-opacity:1; 
stroke-linecap:round; stroke-linejoin:round;">
</g>
<g style="fill:#00D91D; fill-opacity:1.0000; 
stroke:#00D91D; stroke-width:0.0212; stroke-opacity:1; 
stroke-linecap:round; stroke-linejoin:round;">
</g>
<g style="fill:#00D91D; fill-opacity:0.0; 
stroke:#00D91D; stroke-width:0.0500; stroke-opacity:1; 
stroke-linecap:round; stroke-linejoin:round;">
<circle cx="12.7202" cy="2.2000" r="1.2500" /> 
<circle cx="14.7202" cy="2.2000" r="1.0000" /> 
<circle cx="10.7202" cy="2.2000" r="1.0000" /> 
<g >
</g>
<g >
</g>
<g >
</g>
<g >
</g>
<g >
</g>
<g >
</g>
</g>
<g style="fill:#FFFFFF; fill-opacity:0.0; 
stroke:#FFFFFF; stroke-width:0.0500; stroke-opacity:1; 
stroke-linecap:round; stroke-linejoin:round;">
</g>
<g style="fill:#505050; fill-opacity:0.0; 
stroke:#505050; stroke-width:0.0500; stroke-opacity:1; 
stroke-linecap:round; stroke-linejoin:round;">
</g>
<g style="fill:#505050; fill-opacity:0.0; 
stroke:#505050; stroke-width:0.1500; stroke-opacity:1; 
stroke-linecap:round; stroke-linejoin:round;">
<text x="12.7202" y="4.7000"
textLength="18.5833" font-size="1.3333" lengthAdjust="spacingAndGlyphs"
text-anchor="middle" opacity="0">Fiducial_1mm_Mask2mm</text>
<g class="stroked-text"><desc>Fiducial_1mm_Mask2mm</desc>
<path d="M4.1250 4.1310
L3.7917 4.1310
" />
<path d="M3.7917 4.6548
L3.7917 3.6548
" />
<path d="M3.7917 3.6548
L4.2679 3.6548
" />
<path d="M4.6488 4.6548
L4.6488 3.9882
" />
<path d="M4.6488 3.6548
L4.6012 3.7024
" />
<path d="M4.6012 3.7024
L4.6488 3.7501
" />
<path d="M4.6488 3.7501
L4.6964 3.7024
" />
<path d="M4.6964 3.7024
L4.6488 3.6548
" />
<path d="M4.6488 3.6548
L4.6488 3.7501
" />
<path d="M5.5536 4.6548
L5.5536 3.6548
" />
<path d="M5.5536 4.6072
L5.4583 4.6548
" />
<path d="M5.4583 4.6548
L5.2679 4.6548
" />
<path d="M5.2679 4.6548
L5.1726 4.6072
" />
<path d="M5.1726 4.6072
L5.1250 4.5596
" />
<path d="M5.1250 4.5596
L5.0774 4.4643
" />
<path d="M5.0774 4.4643
L5.0774 4.1786
" />
<path d="M5.0774 4.1786
L5.1250 4.0834
" />
<path d="M5.1250 4.0834
L5.1726 4.0358
" />
<path d="M5.1726 4.0358
L5.2679 3.9882
" />
<path d="M5.2679 3.9882
L5.4583 3.9882
" />
<path d="M5.4583 3.9882
L5.5536 4.0358
" />
<path d="M6.4583 3.9882
L6.4583 4.6548
" />
<path d="M6.0298 3.9882
L6.0298 4.5120
" />
<path d="M6.0298 4.5120
L6.0774 4.6072
" />
<path d="M6.0774 4.6072
L6.1726 4.6548
" />
<path d="M6.1726 4.6548
L6.3155 4.6548
" />
<path d="M6.3155 4.6548
L6.4107 4.6072
" />
<path d="M6.4107 4.6072
L6.4583 4.5596
" />
<path d="M7.3631 4.6072
L7.2679 4.6548
" />
<path d="M7.2679 4.6548
L7.0774 4.6548
" />
<path d="M7.0774 4.6548
L6.9821 4.6072
" />
<path d="M6.9821 4.6072
L6.9345 4.5596
" />
<path d="M6.9345 4.5596
L6.8869 4.4643
" />
<path d="M6.8869 4.4643
L6.8869 4.1786
" />
<path d="M6.8869 4.1786
L6.9345 4.0834
" />
<path d="M6.9345 4.0834
L6.9821 4.0358
" />
<path d="M6.9821 4.0358
L7.0774 3.9882
" />
<path d="M7.0774 3.9882
L7.2679 3.9882
" />
<path d="M7.2679 3.9882
L7.3631 4.0358
" />
<path d="M7.7917 4.6548
L7.7917 3.9882
" />
<path d="M7.7917 3.6548
L7.7440 3.7024
" />
<path d="M7.7440 3.7024
L7.7917 3.7501
" />
<path d="M7.7917 3.7501
L7.8393 3.7024
" />
<path d="M7.8393 3.7024
L7.7917 3.6548
" />
<path d="M7.7917 3.6548
L7.7917 3.7501
" />
<path d="M8.6964 4.6548
L8.6964 4.1310
" />
<path d="M8.6964 4.1310
L8.6488 4.0358
" />
<path d="M8.6488 4.0358
L8.5536 3.9882
" />
<path d="M8.5536 3.9882
L8.3631 3.9882
" />
<path d="M8.3631 3.9882
L8.2679 4.0358
" />
<path d="M8.6964 4.6072
L8.6012 4.6548
" />
<path d="M8.6012 4.6548
L8.3631 4.6548
" />
<path d="M8.3631 4.6548
L8.2679 4.6072
" />
<path d="M8.2679 4.6072
L8.2202 4.5120
" />
<path d="M8.2202 4.5120
L8.2202 4.4167
" />
<path d="M8.2202 4.4167
L8.2679 4.3215
" />
<path d="M8.2679 4.3215
L8.3631 4.2739
" />
<path d="M8.3631 4.2739
L8.6012 4.2739
" />
<path d="M8.6012 4.2739
L8.6964 4.2262
" />
<path d="M9.3155 4.6548
L9.2202 4.6072
" />
<path d="M9.2202 4.6072
L9.1726 4.5120
" />
<path d="M9.1726 4.5120
L9.1726 3.6548
" />
<path d="M9.4583 4.7501
L10.2202 4.7501
" />
<path d="M10.9821 4.6548
L10.4107 4.6548
" />
<path d="M10.6964 4.6548
L10.6964 3.6548
" />
<path d="M10.6964 3.6548
L10.6012 3.7977
" />
<path d="M10.6012 3.7977
L10.5060 3.8929
" />
<path d="M10.5060 3.8929
L10.4107 3.9405
" />
<path d="M11.4107 4.6548
L11.4107 3.9882
" />
<path d="M11.4107 4.0834
L11.4583 4.0358
" />
<path d="M11.4583 4.0358
L11.5536 3.9882
" />
<path d="M11.5536 3.9882
L11.6964 3.9882
" />
<path d="M11.6964 3.9882
L11.7917 4.0358
" />
<path d="M11.7917 4.0358
L11.8393 4.1310
" />
<path d="M11.8393 4.1310
L11.8393 4.6548
" />
<path d="M11.8393 4.1310
L11.8869 4.0358
" />
<path d="M11.8869 4.0358
L11.9821 3.9882
" />
<path d="M11.9821 3.9882
L12.1250 3.9882
" />
<path d="M12.1250 3.9882
L12.2202 4.0358
" />
<path d="M12.2202 4.0358
L12.2679 4.1310
" />
<path d="M12.2679 4.1310
L12.2679 4.6548
" />
<path d="M12.7440 4.6548
L12.7440 3.9882
" />
<path d="M12.7440 4.0834
L12.7917 4.0358
" />
<path d="M12.7917 4.0358
L12.8869 3.9882
" />
<path d="M12.8869 3.9882
L13.0298 3.9882
" />
<path d="M13.0298 3.9882
L13.1250 4.0358
" />
<path d="M13.1250 4.0358
L13.1726 4.1310
" />
<path d="M13.1726 4.1310
L13.1726 4.6548
" />
<path d="M13.1726 4.1310
L13.2202 4.0358
" />
<path d="M13.2202 4.0358
L13.3155 3.9882
" />
<path d="M13.3155 3.9882
L13.4583 3.9882
" />
<path d="M13.4583 3.9882
L13.5536 4.0358
" />
<path d="M13.5536 4.0358
L13.6012 4.1310
" />
<path d="M13.6012 4.1310
L13.6012 4.6548
" />
<path d="M13.8393 4.7501
L14.6012 4.7501
" />
<path d="M14.8393 4.6548
L14.8393 3.6548
" />
<path d="M14.8393 3.6548
L15.1726 4.3691
" />
<path d="M15.1726 4.3691
L15.5060 3.6548
" />
<path d="M15.5060 3.6548
L15.5060 4.6548
" />
<path d="M16.4107 4.6548
L16.4107 4.1310
" />
<path d="M16.4107 4.1310
L16.3631 4.0358
" />
<path d="M16.3631 4.0358
L16.2679 3.9882
" />
<path d="M16.2679 3.9882
L16.0774 3.9882
" />
<path d="M16.0774 3.9882
L15.9821 4.0358
" />
<path d="M16.4107 4.6072
L16.3155 4.6548
" />
<path d="M16.3155 4.6548
L16.0774 4.6548
" />
<path d="M16.0774 4.6548
L15.9821 4.6072
" />
<path d="M15.9821 4.6072
L15.9345 4.5120
" />
<path d="M15.9345 4.5120
L15.9345 4.4167
" />
<path d="M15.9345 4.4167
L15.9821 4.3215
" />
<path d="M15.9821 4.3215
L16.0774 4.2739
" />
<path d="M16.0774 4.2739
L16.3155 4.2739
" />
<path d="M16.3155 4.2739
L16.4107 4.2262
" />
<path d="M16.8393 4.6072
L16.9345 4.6548
" />
<path d="M16.9345 4.6548
L17.1250 4.6548
" />
<path d="M17.1250 4.6548
L17.2202 4.6072
" />
<path d="M17.2202 4.6072
L17.2679 4.5120
" />
<path d="M17.2679 4.5120
L17.2679 4.4643
" />
<path d="M17.2679 4.4643
L17.2202 4.3691
" />
<path d="M17.2202 4.3691
L17.1250 4.3215
" />
<path d="M17.1250 4.3215
L16.9821 4.3215
" />
<path d="M16.9821 4.3215
L16.8869 4.2739
" />
<path d="M16.8869 4.2739
L16.8393 4.1786
" />
<path d="M16.8393 4.1786
L16.8393 4.1310
" />
<path d="M16.8393 4.1310
L16.8869 4.0358
" />
<path d="M16.8869 4.0358
L16.9821 3.9882
" />
<path d="M16.9821 3.9882
L17.1250 3.9882
" />
<path d="M17.1250 3.9882
L17.2202 4.0358
" />
<path d="M17.6964 4.6548
L17.6964 3.6548
" />
<path d="M17.7917 4.2739
L18.0774 4.6548
" />
<path d="M18.0774 3.9882
L17.6964 4.3691
" />
<path d="M18.4583 3.7501
L18.5060 3.7024
" />
<path d="M18.5060 3.7024
L18.6012 3.6548
" />
<path d="M18.6012 3.6548
L18.8393 3.6548
" />
<path d="M18.8393 3.6548
L18.9345 3.7024
" />
<path d="M18.9345 3.7024
L18.9821 3.7501
" />
<path d="M18.9821 3.7501
L19.0298 3.8453
" />
<path d="M19.0298 3.8453
L19.0298 3.9405
" />
<path d="M19.0298 3.9405
L18.9821 4.0834
" />
<path d="M18.9821 4.0834
L18.4107 4.6548
" />
<path d="M18.4107 4.6548
L19.0298 4.6548
" />
<path d="M19.4583 4.6548
L19.4583 3.9882
" />
<path d="M19.4583 4.0834
L19.5060 4.0358
" />
<path d="M19.5060 4.0358
L19.6012 3.9882
" />
<path d="M19.6012 3.9882
L19.7440 3.9882
" />
<path d="M19.7440 3.9882
L19.8393 4.0358
" />
<path d="M19.8393 4.0358
L19.8869 4.1310
" />
<path d="M19.8869 4.1310
L19.8869 4.6548
" />
<path d="M19.8869 4.1310
L19.9345 4.0358
" />
<path d="M19.9345 4.0358
L20.0298 3.9882
" />
<path d="M20.0298 3.9882
L20.1726 3.9882
" />
<path d="M20.1726 3.9882
L20.2679 4.0358
" />
<path d="M20.2679 4.0358
L20.3155 4.1310
" />
<path d="M20.3155 4.1310
L20.3155 4.6548
" />
<path d="M20.7917 4.6548
L20.7917 3.9882
" />
<path d="M20.7917 4.0834
L20.8393 4.0358
" />
<path d="M20.8393 4.0358
L20.9345 3.9882
" />
<path d="M20.9345 3.9882
L21.0774 3.9882
" />
<path d="M21.0774 3.9882
L21.1726 4.0358
" />
<path d="M21.1726 4.0358
L21.2202 4.1310
" />
<path d="M21.2202 4.1310
L21.2202 4.6548
" />
<path d="M21.2202 4.1310
L21.2679 4.0358
" />
<path d="M21.2679 4.0358
L21.3631 3.9882
" />
<path d="M21.3631 3.9882
L21.5060 3.9882
" />
<path d="M21.5060 3.9882
L21.6012 4.0358
" />
<path d="M21.6012 4.0358
L21.6488 4.1310
" />
<path d="M21.6488 4.1310
L21.6488 4.6548
" />
</g></g>
<g style="fill:#505050; fill-opacity:0.0; 
stroke:#505050; stroke-width:0.0600; stroke-opacity:1; 
stroke-linecap:round; stroke-linejoin:round;">
<text x="12.7202" y="2.4000"
textLength="1.8143" font-size="0.5333" lengthAdjust="spacingAndGlyphs"
text-anchor="middle" opacity="0">REF**</text>
<g class="stroked-text"><desc>REF**</desc>
<path d="M12.1869 2.3819
L12.0536 2.1915
" />
<path d="M11.9583 2.3819
L11.9583 1.9819
" />
<path d="M11.9583 1.9819
L12.1107 1.9819
" />
<path d="M12.1107 1.9819
L12.1488 2.0010
" />
<path d="M12.1488 2.0010
L12.1679 2.0200
" />
<path d="M12.1679 2.0200
L12.1869 2.0581
" />
<path d="M12.1869 2.0581
L12.1869 2.1153
" />
<path d="M12.1869 2.1153
L12.1679 2.1534
" />
<path d="M12.1679 2.1534
L12.1488 2.1724
" />
<path d="M12.1488 2.1724
L12.1107 2.1915
" />
<path d="M12.1107 2.1915
L11.9583 2.1915
" />
<path d="M12.3583 2.1724
L12.4917 2.1724
" />
<path d="M12.5488 2.3819
L12.3583 2.3819
" />
<path d="M12.3583 2.3819
L12.3583 1.9819
" />
<path d="M12.3583 1.9819
L12.5488 1.9819
" />
<path d="M12.8536 2.1724
L12.7202 2.1724
" />
<path d="M12.7202 2.3819
L12.7202 1.9819
" />
<path d="M12.7202 1.9819
L12.9107 1.9819
" />
<path d="M13.1202 1.9819
L13.1202 2.0772
" />
<path d="M13.0250 2.0391
L13.1202 2.0772
" />
<path d="M13.1202 2.0772
L13.2155 2.0391
" />
<path d="M13.0631 2.1534
L13.1202 2.0772
" />
<path d="M13.1202 2.0772
L13.1774 2.1534
" />
<path d="M13.4250 1.9819
L13.4250 2.0772
" />
<path d="M13.3298 2.0391
L13.4250 2.0772
" />
<path d="M13.4250 2.0772
L13.5202 2.0391
" />
<path d="M13.3679 2.1534
L13.4250 2.0772
" />
<path d="M13.4250 2.0772
L13.4821 2.1534
" />
</g></g>
<g style="fill:#505050; fill-opacity:0.0; 
stroke:#505050; stroke-width:0.1500; stroke-opacity:1; 
stroke-linecap:round; stroke-linejoin:round;">
<text x="14.7202" y="4.4145"
textLength="21.4405" font-size="1.3333" lengthAdjust="spacingAndGlyphs"
text-anchor="middle" opacity="0">Fiducial_0.5mm_Mask1.5mm</text>
<g class="stroked-text"><desc>Fiducial_0.5mm_Mask1.5mm</desc>
<path d="M4.6964 3.8455
L4.3631 3.8455
" />
<path d="M4.3631 4.3693
L4.3631 3.3693
" />
<path d="M4.3631 3.3693
L4.8393 3.3693
" />
<path d="M5.2202 4.3693
L5.2202 3.7027
" />
<path d="M5.2202 3.3693
L5.1726 3.4169
" />
<path d="M5.1726 3.4169
L5.2202 3.4646
" />
<path d="M5.2202 3.4646
L5.2679 3.4169
" />
<path d="M5.2679 3.4169
L5.2202 3.3693
" />
<path d="M5.2202 3.3693
L5.2202 3.4646
" />
<path d="M6.1250 4.3693
L6.1250 3.3693
" />
<path d="M6.1250 4.3217
L6.0298 4.3693
" />
<path d="M6.0298 4.3693
L5.8393 4.3693
" />
<path d="M5.8393 4.3693
L5.7440 4.3217
" />
<path d="M5.7440 4.3217
L5.6964 4.2741
" />
<path d="M5.6964 4.2741
L5.6488 4.1788
" />
<path d="M5.6488 4.1788
L5.6488 3.8931
" />
<path d="M5.6488 3.8931
L5.6964 3.7979
" />
<path d="M5.6964 3.7979
L5.7440 3.7503
" />
<path d="M5.7440 3.7503
L5.8393 3.7027
" />
<path d="M5.8393 3.7027
L6.0298 3.7027
" />
<path d="M6.0298 3.7027
L6.1250 3.7503
" />
<path d="M7.0298 3.7027
L7.0298 4.3693
" />
<path d="M6.6012 3.7027
L6.6012 4.2265
" />
<path d="M6.6012 4.2265
L6.6488 4.3217
" />
<path d="M6.6488 4.3217
L6.7440 4.3693
" />
<path d="M6.7440 4.3693
L6.8869 4.3693
" />
<path d="M6.8869 4.3693
L6.9821 4.3217
" />
<path d="M6.9821 4.3217
L7.0298 4.2741
" />
<path d="M7.9345 4.3217
L7.8393 4.3693
" />
<path d="M7.8393 4.3693
L7.6488 4.3693
" />
<path d="M7.6488 4.3693
L7.5536 4.3217
" />
<path d="M7.5536 4.3217
L7.5060 4.2741
" />
<path d="M7.5060 4.2741
L7.4583 4.1788
" />
<path d="M7.4583 4.1788
L7.4583 3.8931
" />
<path d="M7.4583 3.8931
L7.5060 3.7979
" />
<path d="M7.5060 3.7979
L7.5536 3.7503
" />
<path d="M7.5536 3.7503
L7.6488 3.7027
" />
<path d="M7.6488 3.7027
L7.8393 3.7027
" />
<path d="M7.8393 3.7027
L7.9345 3.7503
" />
<path d="M8.3631 4.3693
L8.3631 3.7027
" />
<path d="M8.3631 3.3693
L8.3155 3.4169
" />
<path d="M8.3155 3.4169
L8.3631 3.4646
" />
<path d="M8.3631 3.4646
L8.4107 3.4169
" />
<path d="M8.4107 3.4169
L8.3631 3.3693
" />
<path d="M8.3631 3.3693
L8.3631 3.4646
" />
<path d="M9.2679 4.3693
L9.2679 3.8455
" />
<path d="M9.2679 3.8455
L9.2202 3.7503
" />
<path d="M9.2202 3.7503
L9.1250 3.7027
" />
<path d="M9.1250 3.7027
L8.9345 3.7027
" />
<path d="M8.9345 3.7027
L8.8393 3.7503
" />
<path d="M9.2679 4.3217
L9.1726 4.3693
" />
<path d="M9.1726 4.3693
L8.9345 4.3693
" />
<path d="M8.9345 4.3693
L8.8393 4.3217
" />
<path d="M8.8393 4.3217
L8.7917 4.2265
" />
<path d="M8.7917 4.2265
L8.7917 4.1312
" />
<path d="M8.7917 4.1312
L8.8393 4.0360
" />
<path d="M8.8393 4.0360
L8.9345 3.9884
" />
<path d="M8.9345 3.9884
L9.1726 3.9884
" />
<path d="M9.1726 3.9884
L9.2679 3.9407
" />
<path d="M9.8869 4.3693
L9.7917 4.3217
" />
<path d="M9.7917 4.3217
L9.7440 4.2265
" />
<path d="M9.7440 4.2265
L9.7440 3.3693
" />
<path d="M10.0298 4.4646
L10.7917 4.4646
" />
<path d="M11.2202 3.3693
L11.3155 3.3693
" />
<path d="M11.3155 3.3693
L11.4107 3.4169
" />
<path d="M11.4107 3.4169
L11.4583 3.4646
" />
<path d="M11.4583 3.4646
L11.5060 3.5598
" />
<path d="M11.5060 3.5598
L11.5536 3.7503
" />
<path d="M11.5536 3.7503
L11.5536 3.9884
" />
<path d="M11.5536 3.9884
L11.5060 4.1788
" />
<path d="M11.5060 4.1788
L11.4583 4.2741
" />
<path d="M11.4583 4.2741
L11.4107 4.3217
" />
<path d="M11.4107 4.3217
L11.3155 4.3693
" />
<path d="M11.3155 4.3693
L11.2202 4.3693
" />
<path d="M11.2202 4.3693
L11.1250 4.3217
" />
<path d="M11.1250 4.3217
L11.0774 4.2741
" />
<path d="M11.0774 4.2741
L11.0298 4.1788
" />
<path d="M11.0298 4.1788
L10.9821 3.9884
" />
<path d="M10.9821 3.9884
L10.9821 3.7503
" />
<path d="M10.9821 3.7503
L11.0298 3.5598
" />
<path d="M11.0298 3.5598
L11.0774 3.4646
" />
<path d="M11.0774 3.4646
L11.1250 3.4169
" />
<path d="M11.1250 3.4169
L11.2202 3.3693
" />
<path d="M11.9821 4.2741
L12.0298 4.3217
" />
<path d="M12.0298 4.3217
L11.9821 4.3693
" />
<path d="M11.9821 4.3693
L11.9345 4.3217
" />
<path d="M11.9345 4.3217
L11.9821 4.2741
" />
<path d="M11.9821 4.2741
L11.9821 4.3693
" />
<path d="M12.9345 3.3693
L12.4583 3.3693
" />
<path d="M12.4583 3.3693
L12.4107 3.8455
" />
<path d="M12.4107 3.8455
L12.4583 3.7979
" />
<path d="M12.4583 3.7979
L12.5536 3.7503
" />
<path d="M12.5536 3.7503
L12.7917 3.7503
" />
<path d="M12.7917 3.7503
L12.8869 3.7979
" />
<path d="M12.8869 3.7979
L12.9345 3.8455
" />
<path d="M12.9345 3.8455
L12.9821 3.9407
" />
<path d="M12.9821 3.9407
L12.9821 4.1788
" />
<path d="M12.9821 4.1788
L12.9345 4.2741
" />
<path d="M12.9345 4.2741
L12.8869 4.3217
" />
<path d="M12.8869 4.3217
L12.7917 4.3693
" />
<path d="M12.7917 4.3693
L12.5536 4.3693
" />
<path d="M12.5536 4.3693
L12.4583 4.3217
" />
<path d="M12.4583 4.3217
L12.4107 4.2741
" />
<path d="M13.4107 4.3693
L13.4107 3.7027
" />
<path d="M13.4107 3.7979
L13.4583 3.7503
" />
<path d="M13.4583 3.7503
L13.5536 3.7027
" />
<path d="M13.5536 3.7027
L13.6964 3.7027
" />
<path d="M13.6964 3.7027
L13.7917 3.7503
" />
<path d="M13.7917 3.7503
L13.8393 3.8455
" />
<path d="M13.8393 3.8455
L13.8393 4.3693
" />
<path d="M13.8393 3.8455
L13.8869 3.7503
" />
<path d="M13.8869 3.7503
L13.9821 3.7027
" />
<path d="M13.9821 3.7027
L14.1250 3.7027
" />
<path d="M14.1250 3.7027
L14.2202 3.7503
" />
<path d="M14.2202 3.7503
L14.2679 3.8455
" />
<path d="M14.2679 3.8455
L14.2679 4.3693
" />
<path d="M14.7440 4.3693
L14.7440 3.7027
" />
<path d="M14.7440 3.7979
L14.7917 3.7503
" />
<path d="M14.7917 3.7503
L14.8869 3.7027
" />
<path d="M14.8869 3.7027
L15.0298 3.7027
" />
<path d="M15.0298 3.7027
L15.1250 3.7503
" />
<path d="M15.1250 3.7503
L15.1726 3.8455
" />
<path d="M15.1726 3.8455
L15.1726 4.3693
" />
<path d="M15.1726 3.8455
L15.2202 3.7503
" />
<path d="M15.2202 3.7503
L15.3155 3.7027
" />
<path d="M15.3155 3.7027
L15.4583 3.7027
" />
<path d="M15.4583 3.7027
L15.5536 3.7503
" />
<path d="M15.5536 3.7503
L15.6012 3.8455
" />
<path d="M15.6012 3.8455
L15.6012 4.3693
" />
<path d="M15.8393 4.4646
L16.6012 4.4646
" />
<path d="M16.8393 4.3693
L16.8393 3.3693
" />
<path d="M16.8393 3.3693
L17.1726 4.0836
" />
<path d="M17.1726 4.0836
L17.5060 3.3693
" />
<path d="M17.5060 3.3693
L17.5060 4.3693
" />
<path d="M18.4107 4.3693
L18.4107 3.8455
" />
<path d="M18.4107 3.8455
L18.3631 3.7503
" />
<path d="M18.3631 3.7503
L18.2679 3.7027
" />
<path d="M18.2679 3.7027
L18.0774 3.7027
" />
<path d="M18.0774 3.7027
L17.9821 3.7503
" />
<path d="M18.4107 4.3217
L18.3155 4.3693
" />
<path d="M18.3155 4.3693
L18.0774 4.3693
" />
<path d="M18.0774 4.3693
L17.9821 4.3217
" />
<path d="M17.9821 4.3217
L17.9345 4.2265
" />
<path d="M17.9345 4.2265
L17.9345 4.1312
" />
<path d="M17.9345 4.1312
L17.9821 4.0360
" />
<path d="M17.9821 4.0360
L18.0774 3.9884
" />
<path d="M18.0774 3.9884
L18.3155 3.9884
" />
<path d="M18.3155 3.9884
L18.4107 3.9407
" />
<path d="M18.8393 4.3217
L18.9345 4.3693
" />
<path d="M18.9345 4.3693
L19.1250 4.3693
" />
<path d="M19.1250 4.3693
L19.2202 4.3217
" />
<path d="M19.2202 4.3217
L19.2679 4.2265
" />
<path d="M19.2679 4.2265
L19.2679 4.1788
" />
<path d="M19.2679 4.1788
L19.2202 4.0836
" />
<path d="M19.2202 4.0836
L19.1250 4.0360
" />
<path d="M19.1250 4.0360
L18.9821 4.0360
" />
<path d="M18.9821 4.0360
L18.8869 3.9884
" />
<path d="M18.8869 3.9884
L18.8393 3.8931
" />
<path d="M18.8393 3.8931
L18.8393 3.8455
" />
<path d="M18.8393 3.8455
L18.8869 3.7503
" />
<path d="M18.8869 3.7503
L18.9821 3.7027
" />
<path d="M18.9821 3.7027
L19.1250 3.7027
" />
<path d="M19.1250 3.7027
L19.2202 3.7503
" />
<path d="M19.6964 4.3693
L19.6964 3.3693
" />
<path d="M19.7917 3.9884
L20.0774 4.3693
" />
<path d="M20.0774 3.7027
L19.6964 4.0836
" />
<path d="M21.0298 4.3693
L20.4583 4.3693
" />
<path d="M20.7440 4.3693
L20.7440 3.3693
" />
<path d="M20.7440 3.3693
L20.6488 3.5122
" />
<path d="M20.6488 3.5122
L20.5536 3.6074
" />
<path d="M20.5536 3.6074
L20.4583 3.6550
" />
<path d="M21.4583 4.2741
L21.5060 4.3217
" />
<path d="M21.5060 4.3217
L21.4583 4.3693
" />
<path d="M21.4583 4.3693
L21.4107 4.3217
" />
<path d="M21.4107 4.3217
L21.4583 4.2741
" />
<path d="M21.4583 4.2741
L21.4583 4.3693
" />
<path d="M22.4107 3.3693
L21.9345 3.3693
" />
<path d="M21.9345 3.3693
L21.8869 3.8455
" />
<path d="M21.8869 3.8455
L21.9345 3.7979
" />
<path d="M21.9345 3.7979
L22.0298 3.7503
" />
<path d="M22.0298 3.7503
L22.2679 3.7503
" />
<path d="M22.2679 3.7503
L22.3631 3.7979
" />
<path d="M22.3631 3.7979
L22.4107 3.8455
" />
<path d="M22.4107 3.8455
L22.4583 3.9407
" />
<path d="M22.4583 3.9407
L22.4583 4.1788
" />
<path d="M22.4583 4.1788
L22.4107 4.2741
" />
<path d="M22.4107 4.2741
L22.3631 4.3217
" />
<path d="M22.3631 4.3217
L22.2679 4.3693
" />
<path d="M22.2679 4.3693
L22.0298 4.3693
" />
<path d="M22.0298 4.3693
L21.9345 4.3217
" />
<path d="M21.9345 4.3217
L21.8869 4.2741
" />
<path d="M22.8869 4.3693
L22.8869 3.7027
" />
<path d="M22.8869 3.7979
L22.9345 3.7503
" />
<path d="M22.9345 3.7503
L23.0298 3.7027
" />
<path d="M23.0298 3.7027
L23.1726 3.7027
" />
<path d="M23.1726 3.7027
L23.2679 3.7503
" />
<path d="M23.2679 3.7503
L23.3155 3.8455
" />
<path d="M23.3155 3.8455
L23.3155 4.3693
" />
<path d="M23.3155 3.8455
L23.3631 3.7503
" />
<path d="M23.3631 3.7503
L23.4583 3.7027
" />
<path d="M23.4583 3.7027
L23.6012 3.7027
" />
<path d="M23.6012 3.7027
L23.6964 3.7503
" />
<path d="M23.6964 3.7503
L23.7440 3.8455
" />
<path d="M23.7440 3.8455
L23.7440 4.3693
" />
<path d="M24.2202 4.3693
L24.2202 3.7027
" />
<path d="M24.2202 3.7979
L24.2679 3.7503
" />
<path d="M24.2679 3.7503
L24.3631 3.7027
" />
<path d="M24.3631 3.7027
L24.5060 3.7027
" />
<path d="M24.5060 3.7027
L24.6012 3.7503
" />
<path d="M24.6012 3.7503
L24.6488 3.8455
" />
<path d="M24.6488 3.8455
L24.6488 4.3693
" />
<path d="M24.6488 3.8455
L24.6964 3.7503
" />
<path d="M24.6964 3.7503
L24.7917 3.7027
" />
<path d="M24.7917 3.7027
L24.9345 3.7027
" />
<path d="M24.9345 3.7027
L25.0298 3.7503
" />
<path d="M25.0298 3.7503
L25.0774 3.8455
" />
<path d="M25.0774 3.8455
L25.0774 4.3693
" />
</g></g>
<g style="fill:#505050; fill-opacity:0.0; 
stroke:#505050; stroke-width:0.0400; stroke-opacity:1; 
stroke-linecap:round; stroke-linejoin:round;">
<text x="14.7202" y="2.3000"
textLength="0.9371" font-size="0.2667" lengthAdjust="spacingAndGlyphs"
text-anchor="middle" opacity="0">REF**</text>
<g class="stroked-text"><desc>REF**</desc>
<path d="M14.4536 2.2904
L14.3869 2.1952
" />
<path d="M14.3393 2.2904
L14.3393 2.0904
" />
<path d="M14.3393 2.0904
L14.4155 2.0904
" />
<path d="M14.4155 2.0904
L14.4345 2.1000
" />
<path d="M14.4345 2.1000
L14.4440 2.1095
" />
<path d="M14.4440 2.1095
L14.4536 2.1285
" />
<path d="M14.4536 2.1285
L14.4536 2.1571
" />
<path d="M14.4536 2.1571
L14.4440 2.1762
" />
<path d="M14.4440 2.1762
L14.4345 2.1857
" />
<path d="M14.4345 2.1857
L14.4155 2.1952
" />
<path d="M14.4155 2.1952
L14.3393 2.1952
" />
<path d="M14.5393 2.1857
L14.6060 2.1857
" />
<path d="M14.6345 2.2904
L14.5393 2.2904
" />
<path d="M14.5393 2.2904
L14.5393 2.0904
" />
<path d="M14.5393 2.0904
L14.6345 2.0904
" />
<path d="M14.7869 2.1857
L14.7202 2.1857
" />
<path d="M14.7202 2.2904
L14.7202 2.0904
" />
<path d="M14.7202 2.0904
L14.8155 2.0904
" />
<path d="M14.9202 2.0904
L14.9202 2.1381
" />
<path d="M14.8726 2.1190
L14.9202 2.1381
" />
<path d="M14.9202 2.1381
L14.9679 2.1190
" />
<path d="M14.8917 2.1762
L14.9202 2.1381
" />
<path d="M14.9202 2.1381
L14.9488 2.1762
" />
<path d="M15.0726 2.0904
L15.0726 2.1381
" />
<path d="M15.0250 2.1190
L15.0726 2.1381
" />
<path d="M15.0726 2.1381
L15.1202 2.1190
" />
<path d="M15.0440 2.1762
L15.0726 2.1381
" />
<path d="M15.0726 2.1381
L15.1012 2.1762
" />
</g></g>
<g style="fill:#505050; fill-opacity:0.0; 
stroke:#505050; stroke-width:0.1500; stroke-opacity:1; 
stroke-linecap:round; stroke-linejoin:round;">
<text x="10.7202" y="4.4145"
textLength="21.4405" font-size="1.3333" lengthAdjust="spacingAndGlyphs"
text-anchor="middle" opacity="0">Fiducial_0.5mm_Mask1.5mm</text>
<g class="stroked-text"><desc>Fiducial_0.5mm_Mask1.5mm</desc>
<path d="M0.6964 3.8455
L0.3631 3.8455
" />
<path d="M0.3631 4.3693
L0.3631 3.3693
" />
<path d="M0.3631 3.3693
L0.8393 3.3693
" />
<path d="M1.2202 4.3693
L1.2202 3.7027
" />
<path d="M1.2202 3.3693
L1.1726 3.4169
" />
<path d="M1.1726 3.4169
L1.2202 3.4646
" />
<path d="M1.2202 3.4646
L1.2679 3.4169
" />
<path d="M1.2679 3.4169
L1.2202 3.3693
" />
<path d="M1.2202 3.3693
L1.2202 3.4646
" />
<path d="M2.1250 4.3693
L2.1250 3.3693
" />
<path d="M2.1250 4.3217
L2.0298 4.3693
" />
<path d="M2.0298 4.3693
L1.8393 4.3693
" />
<path d="M1.8393 4.3693
L1.7440 4.3217
" />
<path d="M1.7440 4.3217
L1.6964 4.2741
" />
<path d="M1.6964 4.2741
L1.6488 4.1788
" />
<path d="M1.6488 4.1788
L1.6488 3.8931
" />
<path d="M1.6488 3.8931
L1.6964 3.7979
" />
<path d="M1.6964 3.7979
L1.7440 3.7503
" />
<path d="M1.7440 3.7503
L1.8393 3.7027
" />
<path d="M1.8393 3.7027
L2.0298 3.7027
" />
<path d="M2.0298 3.7027
L2.1250 3.7503
" />
<path d="M3.0298 3.7027
L3.0298 4.3693
" />
<path d="M2.6012 3.7027
L2.6012 4.2265
" />
<path d="M2.6012 4.2265
L2.6488 4.3217
" />
<path d="M2.6488 4.3217
L2.7440 4.3693
" />
<path d="M2.7440 4.3693
L2.8869 4.3693
" />
<path d="M2.8869 4.3693
L2.9821 4.3217
" />
<path d="M2.9821 4.3217
L3.0298 4.2741
" />
<path d="M3.9345 4.3217
L3.8393 4.3693
" />
<path d="M3.8393 4.3693
L3.6488 4.3693
" />
<path d="M3.6488 4.3693
L3.5536 4.3217
" />
<path d="M3.5536 4.3217
L3.5060 4.2741
" />
<path d="M3.5060 4.2741
L3.4583 4.1788
" />
<path d="M3.4583 4.1788
L3.4583 3.8931
" />
<path d="M3.4583 3.8931
L3.5060 3.7979
" />
<path d="M3.5060 3.7979
L3.5536 3.7503
" />
<path d="M3.5536 3.7503
L3.6488 3.7027
" />
<path d="M3.6488 3.7027
L3.8393 3.7027
" />
<path d="M3.8393 3.7027
L3.9345 3.7503
" />
<path d="M4.3631 4.3693
L4.3631 3.7027
" />
<path d="M4.3631 3.3693
L4.3155 3.4169
" />
<path d="M4.3155 3.4169
L4.3631 3.4646
" />
<path d="M4.3631 3.4646
L4.4107 3.4169
" />
<path d="M4.4107 3.4169
L4.3631 3.3693
" />
<path d="M4.3631 3.3693
L4.3631 3.4646
" />
<path d="M5.2679 4.3693
L5.2679 3.8455
" />
<path d="M5.2679 3.8455
L5.2202 3.7503
" />
<path d="M5.2202 3.7503
L5.1250 3.7027
" />
<path d="M5.1250 3.7027
L4.9345 3.7027
" />
<path d="M4.9345 3.7027
L4.8393 3.7503
" />
<path d="M5.2679 4.3217
L5.1726 4.3693
" />
<path d="M5.1726 4.3693
L4.9345 4.3693
" />
<path d="M4.9345 4.3693
L4.8393 4.3217
" />
<path d="M4.8393 4.3217
L4.7917 4.2265
" />
<path d="M4.7917 4.2265
L4.7917 4.1312
" />
<path d="M4.7917 4.1312
L4.8393 4.0360
" />
<path d="M4.8393 4.0360
L4.9345 3.9884
" />
<path d="M4.9345 3.9884
L5.1726 3.9884
" />
<path d="M5.1726 3.9884
L5.2679 3.9407
" />
<path d="M5.8869 4.3693
L5.7917 4.3217
" />
<path d="M5.7917 4.3217
L5.7440 4.2265
" />
<path d="M5.7440 4.2265
L5.7440 3.3693
" />
<path d="M6.0298 4.4646
L6.7917 4.4646
" />
<path d="M7.2202 3.3693
L7.3155 3.3693
" />
<path d="M7.3155 3.3693
L7.4107 3.4169
" />
<path d="M7.4107 3.4169
L7.4583 3.4646
" />
<path d="M7.4583 3.4646
L7.5060 3.5598
" />
<path d="M7.5060 3.5598
L7.5536 3.7503
" />
<path d="M7.5536 3.7503
L7.5536 3.9884
" />
<path d="M7.5536 3.9884
L7.5060 4.1788
" />
<path d="M7.5060 4.1788
L7.4583 4.2741
" />
<path d="M7.4583 4.2741
L7.4107 4.3217
" />
<path d="M7.4107 4.3217
L7.3155 4.3693
" />
<path d="M7.3155 4.3693
L7.2202 4.3693
" />
<path d="M7.2202 4.3693
L7.1250 4.3217
" />
<path d="M7.1250 4.3217
L7.0774 4.2741
" />
<path d="M7.0774 4.2741
L7.0298 4.1788
" />
<path d="M7.0298 4.1788
L6.9821 3.9884
" />
<path d="M6.9821 3.9884
L6.9821 3.7503
" />
<path d="M6.9821 3.7503
L7.0298 3.5598
" />
<path d="M7.0298 3.5598
L7.0774 3.4646
" />
<path d="M7.0774 3.4646
L7.1250 3.4169
" />
<path d="M7.1250 3.4169
L7.2202 3.3693
" />
<path d="M7.9821 4.2741
L8.0298 4.3217
" />
<path d="M8.0298 4.3217
L7.9821 4.3693
" />
<path d="M7.9821 4.3693
L7.9345 4.3217
" />
<path d="M7.9345 4.3217
L7.9821 4.2741
" />
<path d="M7.9821 4.2741
L7.9821 4.3693
" />
<path d="M8.9345 3.3693
L8.4583 3.3693
" />
<path d="M8.4583 3.3693
L8.4107 3.8455
" />
<path d="M8.4107 3.8455
L8.4583 3.7979
" />
<path d="M8.4583 3.7979
L8.5536 3.7503
" />
<path d="M8.5536 3.7503
L8.7917 3.7503
" />
<path d="M8.7917 3.7503
L8.8869 3.7979
" />
<path d="M8.8869 3.7979
L8.9345 3.8455
" />
<path d="M8.9345 3.8455
L8.9821 3.9407
" />
<path d="M8.9821 3.9407
L8.9821 4.1788
" />
<path d="M8.9821 4.1788
L8.9345 4.2741
" />
<path d="M8.9345 4.2741
L8.8869 4.3217
" />
<path d="M8.8869 4.3217
L8.7917 4.3693
" />
<path d="M8.7917 4.3693
L8.5536 4.3693
" />
<path d="M8.5536 4.3693
L8.4583 4.3217
" />
<path d="M8.4583 4.3217
L8.4107 4.2741
" />
<path d="M9.4107 4.3693
L9.4107 3.7027
" />
<path d="M9.4107 3.7979
L9.4583 3.7503
" />
<path d="M9.4583 3.7503
L9.5536 3.7027
" />
<path d="M9.5536 3.7027
L9.6964 3.7027
" />
<path d="M9.6964 3.7027
L9.7917 3.7503
" />
<path d="M9.7917 3.7503
L9.8393 3.8455
" />
<path d="M9.8393 3.8455
L9.8393 4.3693
" />
<path d="M9.8393 3.8455
L9.8869 3.7503
" />
<path d="M9.8869 3.7503
L9.9821 3.7027
" />
<path d="M9.9821 3.7027
L10.1250 3.7027
" />
<path d="M10.1250 3.7027
L10.2202 3.7503
" />
<path d="M10.2202 3.7503
L10.2679 3.8455
" />
<path d="M10.2679 3.8455
L10.2679 4.3693
" />
<path d="M10.7440 4.3693
L10.7440 3.7027
" />
<path d="M10.7440 3.7979
L10.7917 3.7503
" />
<path d="M10.7917 3.7503
L10.8869 3.7027
" />
<path d="M10.8869 3.7027
L11.0298 3.7027
" />
<path d="M11.0298 3.7027
L11.1250 3.7503
" />
<path d="M11.1250 3.7503
L11.1726 3.8455
" />
<path d="M11.1726 3.8455
L11.1726 4.3693
" />
<path d="M11.1726 3.8455
L11.2202 3.7503
" />
<path d="M11.2202 3.7503
L11.3155 3.7027
" />
<path d="M11.3155 3.7027
L11.4583 3.7027
" />
<path d="M11.4583 3.7027
L11.5536 3.7503
" />
<path d="M11.5536 3.7503
L11.6012 3.8455
" />
<path d="M11.6012 3.8455
L11.6012 4.3693
" />
<path d="M11.8393 4.4646
L12.6012 4.4646
" />
<path d="M12.8393 4.3693
L12.8393 3.3693
" />
<path d="M12.8393 3.3693
L13.1726 4.0836
" />
<path d="M13.1726 4.0836
L13.5060 3.3693
" />
<path d="M13.5060 3.3693
L13.5060 4.3693
" />
<path d="M14.4107 4.3693
L14.4107 3.8455
" />
<path d="M14.4107 3.8455
L14.3631 3.7503
" />
<path d="M14.3631 3.7503
L14.2679 3.7027
" />
<path d="M14.2679 3.7027
L14.0774 3.7027
" />
<path d="M14.0774 3.7027
L13.9821 3.7503
" />
<path d="M14.4107 4.3217
L14.3155 4.3693
" />
<path d="M14.3155 4.3693
L14.0774 4.3693
" />
<path d="M14.0774 4.3693
L13.9821 4.3217
" />
<path d="M13.9821 4.3217
L13.9345 4.2265
" />
<path d="M13.9345 4.2265
L13.9345 4.1312
" />
<path d="M13.9345 4.1312
L13.9821 4.0360
" />
<path d="M13.9821 4.0360
L14.0774 3.9884
" />
<path d="M14.0774 3.9884
L14.3155 3.9884
" />
<path d="M14.3155 3.9884
L14.4107 3.9407
" />
<path d="M14.8393 4.3217
L14.9345 4.3693
" />
<path d="M14.9345 4.3693
L15.1250 4.3693
" />
<path d="M15.1250 4.3693
L15.2202 4.3217
" />
<path d="M15.2202 4.3217
L15.2679 4.2265
" />
<path d="M15.2679 4.2265
L15.2679 4.1788
" />
<path d="M15.2679 4.1788
L15.2202 4.0836
" />
<path d="M15.2202 4.0836
L15.1250 4.0360
" />
<path d="M15.1250 4.0360
L14.9821 4.0360
" />
<path d="M14.9821 4.0360
L14.8869 3.9884
" />
<path d="M14.8869 3.9884
L14.8393 3.8931
" />
<path d="M14.8393 3.8931
L14.8393 3.8455
" />
<path d="M14.8393 3.8455
L14.8869 3.7503
" />
<path d="M14.8869 3.7503
L14.9821 3.7027
" />
<path d="M14.9821 3.7027
L15.1250 3.7027
" />
<path d="M15.1250 3.7027
L15.2202 3.7503
" />
<path d="M15.6964 4.3693
L15.6964 3.3693
" />
<path d="M15.7917 3.9884
L16.0774 4.3693
" />
<path d="M16.0774 3.7027
L15.6964 4.0836
" />
<path d="M17.0298 4.3693
L16.4583 4.3693
" />
<path d="M16.7440 4.3693
L16.7440 3.3693
" />
<path d="M16.7440 3.3693
L16.6488 3.5122
" />
<path d="M16.6488 3.5122
L16.5536 3.6074
" />
<path d="M16.5536 3.6074
L16.4583 3.6550
" />
<path d="M17.4583 4.2741
L17.5060 4.3217
" />
<path d="M17.5060 4.3217
L17.4583 4.3693
" />
<path d="M17.4583 4.3693
L17.4107 4.3217
" />
<path d="M17.4107 4.3217
L17.4583 4.2741
" />
<path d="M17.4583 4.2741
L17.4583 4.3693
" />
<path d="M18.4107 3.3693
L17.9345 3.3693
" />
<path d="M17.9345 3.3693
L17.8869 3.8455
" />
<path d="M17.8869 3.8455
L17.9345 3.7979
" />
<path d="M17.9345 3.7979
L18.0298 3.7503
" />
<path d="M18.0298 3.7503
L18.2679 3.7503
" />
<path d="M18.2679 3.7503
L18.3631 3.7979
" />
<path d="M18.3631 3.7979
L18.4107 3.8455
" />
<path d="M18.4107 3.8455
L18.4583 3.9407
" />
<path d="M18.4583 3.9407
L18.4583 4.1788
" />
<path d="M18.4583 4.1788
L18.4107 4.2741
" />
<path d="M18.4107 4.2741
L18.3631 4.3217
" />
<path d="M18.3631 4.3217
L18.2679 4.3693
" />
<path d="M18.2679 4.3693
L18.0298 4.3693
" />
<path d="M18.0298 4.3693
L17.9345 4.3217
" />
<path d="M17.9345 4.3217
L17.8869 4.2741
" />
<path d="M18.8869 4.3693
L18.8869 3.7027
" />
<path d="M18.8869 3.7979
L18.9345 3.7503
" />
<path d="M18.9345 3.7503
L19.0298 3.7027
" />
<path d="M19.0298 3.7027
L19.1726 3.7027
" />
<path d="M19.1726 3.7027
L19.2679 3.7503
" />
<path d="M19.2679 3.7503
L19.3155 3.8455
" />
<path d="M19.3155 3.8455
L19.3155 4.3693
" />
<path d="M19.3155 3.8455
L19.3631 3.7503
" />
<path d="M19.3631 3.7503
L19.4583 3.7027
" />
<path d="M19.4583 3.7027
L19.6012 3.7027
" />
<path d="M19.6012 3.7027
L19.6964 3.7503
" />
<path d="M19.6964 3.7503
L19.7440 3.8455
" />
<path d="M19.7440 3.8455
L19.7440 4.3693
" />
<path d="M20.2202 4.3693
L20.2202 3.7027
" />
<path d="M20.2202 3.7979
L20.2679 3.7503
" />
<path d="M20.2679 3.7503
L20.3631 3.7027
" />
<path d="M20.3631 3.7027
L20.5060 3.7027
" />
<path d="M20.5060 3.7027
L20.6012 3.7503
" />
<path d="M20.6012 3.7503
L20.6488 3.8455
" />
<path d="M20.6488 3.8455
L20.6488 4.3693
" />
<path d="M20.6488 3.8455
L20.6964 3.7503
" />
<path d="M20.6964 3.7503
L20.7917 3.7027
" />
<path d="M20.7917 3.7027
L20.9345 3.7027
" />
<path d="M20.9345 3.7027
L21.0298 3.7503
" />
<path d="M21.0298 3.7503
L21.0774 3.8455
" />
<path d="M21.0774 3.8455
L21.0774 4.3693
" />
</g></g>
<g style="fill:#505050; fill-opacity:0.0; 
stroke:#505050; stroke-width:0.0400; stroke-opacity:1; 
stroke-linecap:round; stroke-linejoin:round;">
<text x="10.7202" y="2.3000"
textLength="0.9371" font-size="0.2667" lengthAdjust="spacingAndGlyphs"
text-anchor="middle" opacity="0">REF**</text>
<g class="stroked-text"><desc>REF**</desc>
<path d="M10.4536 2.2904
L10.3869 2.1952
" />
<path d="M10.3393 2.2904
L10.3393 2.0904
" />
<path d="M10.3393 2.0904
L10.4155 2.0904
" />
<path d="M10.4155 2.0904
L10.4345 2.1000
" />
<path d="M10.4345 2.1000
L10.4440 2.1095
" />
<path d="M10.4440 2.1095
L10.4536 2.1285
" />
<path d="M10.4536 2.1285
L10.4536 2.1571
" />
<path d="M10.4536 2.1571
L10.4440 2.1762
" />
<path d="M10.4440 2.1762
L10.4345 2.1857
" />
<path d="M10.4345 2.1857
L10.4155 2.1952
" />
<path d="M10.4155 2.1952
L10.3393 2.1952
" />
<path d="M10.5393 2.1857
L10.6060 2.1857
" />
<path d="M10.6345 2.2904
L10.5393 2.2904
" />
<path d="M10.5393 2.2904
L10.5393 2.0904
" />
<path d="M10.5393 2.0904
L10.6345 2.0904
" />
<path d="M10.7869 2.1857
L10.7202 2.1857
" />
<path d="M10.7202 2.2904
L10.7202 2.0904
" />
<path d="M10.7202 2.0904
L10.8155 2.0904
" />
<path d="M10.9202 2.0904
L10.9202 2.1381
" />
<path d="M10.8726 2.1190
L10.9202 2.1381
" />
<path d="M10.9202 2.1381
L10.9679 2.1190
" />
<path d="M10.8917 2.1762
L10.9202 2.1381
" />
<path d="M10.9202 2.1381
L10.9488 2.1762
" />
<path d="M11.0726 2.0904
L11.0726 2.1381
" />
<path d="M11.0250 2.1190
L11.0726 2.1381
" />
<path d="M11.0726 2.1381
L11.1202 2.1190
" />
<path d="M11.0440 2.1762
L11.0726 2.1381
" />
<path d="M11.0726 2.1381
L11.1012 2.1762
" />
</g></g>
<g style="fill:#505050; fill-opacity:0.0; 
stroke:#505050; stroke-width:0.1000; stroke-opacity:1; 
stroke-linecap:round; stroke-linejoin:round;">
<circle cx="12.7202" cy="2.2000" r="1.0000" /> 
<circle cx="14.7202" cy="2.2000" r="0.7500" /> 
<circle cx="10.7202" cy="2.2000" r="0.7500" /> 
<g >
</g>
<g >
</g>
<g >
</g>
<g >
</g>
<g >
</g>
<g >
</g>
</g>
<g style="fill:#FFFFFF; fill-opacity:0.0; 
stroke:#FFFFFF; stroke-width:0.1000; stroke-opacity:1; 
stroke-linecap:round; stroke-linejoin:round;">
<g >
</g>
<g >
</g>
<g >
</g>
<g >
</g>
<g >
</g>
<g >
</g>
</g>
<g style="fill:#FFFFFF; fill-opacity:0.0; 
stroke:#FFFFFF; stroke-width:0.1000; stroke-opacity:1; 
stroke-linecap:round; stroke-linejoin:round;">
<g >
</g>
<g >
</g>
<g >
</g>
<g >
</g>
<g >
</g>
<g >
</g>
</g>
<g style="fill:#FFFFFF; fill-opacity:0.0; 
stroke:#FFFFFF; stroke-width:0.1000; stroke-opacity:1; 
stroke-linecap:round; stroke-linejoin:round;">
<g >
</g>
<g >
</g>
<g >
</g>
<g >
</g>
<g >
</g>
<g >
</g>
</g>
<g style="fill:#FFFFFF; fill-opacity:0.0; 
stroke:#FFFFFF; stroke-width:0.1000; stroke-opacity:1; 
stroke-linecap:round; stroke-linejoin:round;">
<g >
</g>
<g >
</g>
<g >
</g>
<g >
</g>
<g >
</g>
<g >
</g>
</g>
<g style="fill:#FFFFFF; fill-opacity:0.0; 
stroke:#FFFFFF; stroke-width:0.1000; stroke-opacity:1; 
stroke-linecap:round; stroke-linejoin:round;">
<g >
</g>
<g >
</g>
<g >
</g>
<g >
</g>
<g >
</g>
<g >
</g>
</g>
<g style="fill:#FFFFFF; fill-opacity:0.0; 
stroke:#FFFFFF; stroke-width:0.1000; stroke-opacity:1; 
stroke-linecap:round; stroke-linejoin:round;">
</g>
<g style="fill:#2F2D31; fill-opacity:0.0; 
stroke:#2F2D31; stroke-width:0.1000; stroke-opacity:1; 
stroke-linecap:round; stroke-linejoin:round;">
<path d="M6.7202 4.2000
L18.7202 4.2000
" />
<path d="M6.7202 0.2000
L6.7202 4.2000
" />
<path d="M18.7202 0.2000
L6.7202 0.2000
" />
<path d="M18.7202 4.2000
L18.7202 0.2000
" />
<g >
</g>
<g >
</g>
<g >
</g>
<g >
</g>
<g >
</g>
<g >
</g>
</g> 
</svg>
