<?xml version="1.0" standalone="no"?>
 <!DOCTYPE svg PUBLIC "-//W3C//DTD SVG 1.1//EN" 
 "http://www.w3.org/Graphics/SVG/1.1/DTD/svg11.dtd"> 
<svg
  xmlns:svg="http://www.w3.org/2000/svg"
  xmlns="http://www.w3.org/2000/svg"
  xmlns:xlink="http://www.w3.org/1999/xlink"
  version="1.1"
  width="38.9382mm" height="127.9906mm" viewBox="0.0000 0.0000 38.9382 127.9906">
<title>SVG Image created as working-brd.svg date 2023/09/08 22:28:38 </title>
  <desc>Image generated by PCBNEW </desc>
<g style="fill:#000000; fill-opacity:1.0000;stroke:#000000; stroke-opacity:1.0000;
stroke-linecap:round; stroke-linejoin:round;"
 transform="translate(0 0) scale(1 1)">
</g>
<g style="fill:#000000; fill-opacity:0.0; 
stroke:#000000; stroke-width:0.0000; stroke-opacity:1; 
stroke-linecap:round; stroke-linejoin:round;">
</g>
<g style="fill:#000000; fill-opacity:1.0000; 
stroke:#000000; stroke-width:0.0212; stroke-opacity:1; 
stroke-linecap:round; stroke-linejoin:round;">
<rect x="-5.000000" y="-5.000000" width="48.959318" height="138.002886" rx="0.000000" />
</g>
<g style="fill:#FFFFFF; fill-opacity:1.0000; 
stroke:#FFFFFF; stroke-width:0.0212; stroke-opacity:1; 
stroke-linecap:round; stroke-linejoin:round;">
<g >
</g>
<g >
</g>
<g >
</g>
<g >
</g>
<g >
</g>
</g>
<g style="fill:#FFFFFF; fill-opacity:1.0000; 
stroke:#FFFFFF; stroke-width:0.0212; stroke-opacity:1; 
stroke-linecap:round; stroke-linejoin:round;">
<g >
</g>
<g >
</g>
<g >
</g>
<g >
</g>
<g >
</g>
</g>
<g style="fill:#FFFFFF; fill-opacity:1.0000; 
stroke:#FFFFFF; stroke-width:0.0212; stroke-opacity:1; 
stroke-linecap:round; stroke-linejoin:round;">
<g >
</g>
<g >
</g>
<g >
</g>
<g >
</g>
<g >
</g>
</g>
<g style="fill:#FFFFFF; fill-opacity:1.0000; 
stroke:#FFFFFF; stroke-width:0.0212; stroke-opacity:1; 
stroke-linecap:round; stroke-linejoin:round;">
<g >
</g>
<g >
</g>
<g >
</g>
<g >
</g>
<g >
</g>
</g>
<g style="fill:#000000; fill-opacity:1.0000; 
stroke:#000000; stroke-width:0.0212; stroke-opacity:1; 
stroke-linecap:round; stroke-linejoin:round;">
</g>
<g style="fill:#FFFFFF; fill-opacity:1.0000; 
stroke:#FFFFFF; stroke-width:0.0212; stroke-opacity:1; 
stroke-linecap:round; stroke-linejoin:round;">
<g >
</g>
<g >
</g>
<g >
</g>
<g >
</g>
<g >
</g>
</g>
<g style="fill:#FFFFFF; fill-opacity:1.0000; 
stroke:#FFFFFF; stroke-width:0.0212; stroke-opacity:1; 
stroke-linecap:round; stroke-linejoin:round;">
<g >
</g>
<g >
</g>
<g >
</g>
<g >
</g>
<g >
</g>
</g>
<g style="fill:#FFFFFF; fill-opacity:1.0000; 
stroke:#FFFFFF; stroke-width:0.0212; stroke-opacity:1; 
stroke-linecap:round; stroke-linejoin:round;">
<g >
</g>
<g >
</g>
<g >
</g>
<g >
</g>
<g >
</g>
</g>
<g style="fill:#000000; fill-opacity:1.0000; 
stroke:#000000; stroke-width:0.0212; stroke-opacity:1; 
stroke-linecap:round; stroke-linejoin:round;">
</g>
<g style="fill:#FFFFFF; fill-opacity:1.0000; 
stroke:#FFFFFF; stroke-width:0.0212; stroke-opacity:1; 
stroke-linecap:round; stroke-linejoin:round;">
<g >
</g>
<g >
</g>
<g >
</g>
<g >
</g>
<g >
</g>
</g>
<g style="fill:#000000; fill-opacity:1.0000; 
stroke:#000000; stroke-width:0.0212; stroke-opacity:1; 
stroke-linecap:round; stroke-linejoin:round;">
</g>
<g style="fill:#FFFFFF; fill-opacity:1.0000; 
stroke:#FFFFFF; stroke-width:0.0212; stroke-opacity:1; 
stroke-linecap:round; stroke-linejoin:round;">
<g >
</g>
<g >
</g>
<g >
</g>
<g >
</g>
<g >
</g>
</g>
<g style="fill:#FFFFFF; fill-opacity:1.0000; 
stroke:#FFFFFF; stroke-width:0.0212; stroke-opacity:1; 
stroke-linecap:round; stroke-linejoin:round;">
<g >
</g>
<g >
</g>
<g >
</g>
<g >
</g>
<g >
</g>
</g>
<g style="fill:#FFFFFF; fill-opacity:1.0000; 
stroke:#FFFFFF; stroke-width:0.0212; stroke-opacity:1; 
stroke-linecap:round; stroke-linejoin:round;">
</g>
<g style="fill:#0D115E; fill-opacity:1.0000; 
stroke:#0D115E; stroke-width:0.0212; stroke-opacity:1; 
stroke-linecap:round; stroke-linejoin:round;">
</g>
<g style="fill:#0D115E; fill-opacity:1.0000; 
stroke:#0D115E; stroke-width:0.0100; stroke-opacity:1; 
stroke-linecap:round; stroke-linejoin:round;">
<path style="fill:#0D115E; fill-opacity:1.0000; 
stroke:#0D115E; stroke-width:0.0100; stroke-opacity:1; 
stroke-linecap:round; stroke-linejoin:round;fill-rule:evenodd;"
d="M 12.0279,0.0052
12.9388,0.0056
13.9188,0.0063
14.9707,0.0071
16.0969,0.0081
17.3004,0.0092
18.5836,0.0104
19.6783,0.0114
21.0120,0.0125
22.2637,0.0137
23.4360,0.0148
24.5316,0.0160
25.5531,0.0171
26.5033,0.0183
27.3846,0.0195
28.1999,0.0208
28.9517,0.0222
29.6427,0.0237
30.2755,0.0253
30.8529,0.0270
31.3774,0.0288
31.8517,0.0308
32.2784,0.0329
32.6603,0.0353
32.9999,0.0378
33.2999,0.0406
33.5629,0.0436
33.7917,0.0468
33.9888,0.0503
34.1570,0.0540
34.2988,0.0581
34.4169,0.0624
34.5140,0.0671
34.5927,0.0721
34.6556,0.0775
34.7055,0.0832
34.7450,0.0893
34.7766,0.0958
34.7833,0.0974
35.4644,0.3045
36.0910,0.5756
36.6623,0.9102
37.1774,1.3075
37.6353,1.7668
38.0353,2.2876
38.3765,2.8690
38.3920,2.8997
38.5609,3.2829
38.7093,3.7087
38.8241,4.1371
38.8753,4.4022
38.8786,4.4654
38.8818,4.6110
38.8850,4.8368
38.8880,5.1406
38.8910,5.5201
38.8938,5.9731
38.8966,6.4974
38.8993,7.0909
38.9019,7.7513
38.9044,8.4764
38.9068,9.2639
38.9092,10.1118
38.9114,11.0177
38.9136,11.9795
38.9156,12.9949
38.9176,14.0618
38.9195,15.1779
38.9213,16.3410
38.9230,17.5489
38.9246,18.7994
38.9262,20.0904
38.9276,21.4194
38.9290,22.7845
38.9303,24.1833
38.9314,25.6137
38.9325,27.0734
38.9335,28.5602
38.9345,30.0719
38.9353,31.6064
38.9360,33.1613
38.9367,34.7346
38.9373,36.3239
38.9378,37.9270
38.9382,39.5419
38.9385,41.1662
38.9387,42.7977
38.9388,44.4342
38.9388,46.0736
38.9388,47.7135
38.9387,49.3519
38.9385,50.9865
38.9381,52.6150
38.9378,54.2353
38.9373,55.8451
38.9367,57.4423
38.9360,59.0246
38.9353,60.5899
38.9345,62.1359
38.9336,63.6603
38.9326,65.1611
38.9315,66.6360
38.9303,68.0827
38.9290,69.4991
38.9277,70.8829
38.9262,72.2320
38.9247,73.5442
38.9231,74.8171
38.9214,76.0487
38.9196,77.2367
38.9177,78.3788
38.9158,79.4730
38.9137,80.5169
38.9116,81.5084
38.9093,82.4452
38.9070,83.3252
38.9046,84.1462
38.9022,84.9058
38.8996,85.6020
38.8969,86.2324
38.8942,86.7950
38.8914,87.2874
38.8885,87.7075
38.8855,88.0531
38.8824,88.3219
38.8792,88.5118
38.8759,88.6205
38.8740,88.6455
38.7190,89.2979
38.4991,89.9013
38.2088,90.4669
37.8430,91.0058
37.6197,91.2808
37.3381,91.6089
38.9543,91.6089
38.9300,123.4224
38.8349,123.8349
38.6509,124.4830
38.4092,125.0738
38.1052,125.6158
37.7342,126.1174
37.4088,126.4728
36.9222,126.9048
36.3903,127.2682
35.8094,127.5649
35.1762,127.7968
34.7833,127.9024
34.4023,127.9925
19.6703,127.9972
18.5568,127.9975
17.4644,127.9977
16.3959,127.9978
15.3547,127.9979
14.3436,127.9978
13.3659,127.9977
12.4245,127.9975
11.5227,127.9972
10.6634,127.9968
9.8497,127.9963
9.0848,127.9958
8.3717,127.9952
7.7135,127.9946
7.1133,127.9938
6.5742,127.9930
6.0993,127.9922
5.6916,127.9912
5.3542,127.9903
5.0902,127.9892
4.9028,127.9881
4.7949,127.9870
4.7690,127.9862
4.1149,127.8838
3.4843,127.7015
2.8837,127.4424
2.3193,127.1093
1.7976,126.7055
1.5304,126.4535
1.1235,125.9977
0.7837,125.5165
0.5043,124.9976
0.2785,124.4287
0.1061,123.8245
0.0995,123.7943
0.0932,123.7588
0.0874,123.7154
0.0819,123.6614
0.0768,123.5945
0.0719,123.5120
0.0674,123.4113
0.0632,123.2899
0.0593,123.1452
0.0557,122.9747
0.0524,122.7758
0.0492,122.5459
0.0464,122.2825
0.0437,121.9830
0.0412,121.6448
0.0390,121.2654
0.0369,120.8423
0.0350,120.3728
0.0332,119.8544
0.0316,119.2846
0.0301,118.6607
0.0287,117.9803
0.0274,117.2407
0.0262,116.4394
0.0250,115.5738
0.0239,114.6414
0.0228,113.6395
0.0223,113.1142
3.9011,113.1142
3.9011,117.8005
4.3702,117.8290
4.9396,117.8884
5.5125,117.9946
6.0651,118.1419
6.5731,118.3242
6.8010,118.4257
6.9456,118.4937
7.0603,118.5451
7.1241,118.5704
7.1290,118.5716
7.1345,118.5311
7.1397,118.4129
7.1445,118.2242
7.1489,117.9720
7.1527,117.6632
7.1558,117.3050
7.1583,116.9045
7.1599,116.4685
7.1607,116.0043
7.1608,115.8447
7.1608,113.1142
7.2455,113.1142
7.2455,118.6530
7.4042,118.7493
7.7085,118.9552
8.0310,119.2109
8.3454,119.4942
8.5617,119.7134
8.6984,119.8596
8.8125,119.9802
8.8928,120.0635
8.9277,120.0974
8.9282,120.0976
8.9298,120.0565
8.9314,119.9371
8.9328,119.7454
8.9342,119.4878
8.9354,119.1704
8.9364,118.7996
8.9373,118.3815
8.9380,117.9224
8.9385,117.4286
8.9387,116.9061
8.9388,116.6067
8.9388,113.1142
9.0235,113.1142
9.0235,120.2327
9.2568,120.6237
9.5781,121.2439
9.8272,121.9037
10.0009,122.5939
10.0607,122.9637
10.0866,123.1786
10.1075,123.3826
10.1207,123.5493
10.1241,123.6362
10.1284,123.7491
10.1391,123.8163
10.1453,123.8245
10.1479,123.7831
10.1505,123.6619
10.1529,123.4662
10.1552,123.2010
10.1573,122.8712
10.1593,122.4820
10.1610,122.0383
10.1626,121.5452
10.1639,121.0078
10.1650,120.4311
10.1658,119.8201
10.1663,119.1798
10.1664,118.5154
10.1665,118.4694
10.1665,113.1142
10.2511,113.1142
10.2511,123.8245
19.3951,123.8245
19.3951,119.0532
19.5221,119.0532
19.5221,123.8245
28.4439,123.8245
28.4703,123.6923
28.4858,123.5729
28.4960,123.4141
28.4981,123.3218
28.5051,123.1721
28.5227,122.9724
28.5477,122.7561
28.5608,122.6604
28.5708,122.5785
28.5798,122.4762
28.5877,122.3486
28.5946,122.1909
28.6006,121.9982
28.6057,121.7657
28.6100,121.4886
28.6136,121.1620
28.6165,120.7812
28.6188,120.3412
28.6205,119.8372
28.6217,119.2644
28.6225,118.6180
28.6229,117.8931
28.6230,117.6756
28.6238,113.1142
28.7085,113.1142
28.7106,117.5063
28.7127,121.8984
28.8518,121.5174
28.9289,121.3165
29.0126,121.1144
29.0884,120.9460
29.1092,120.9035
29.2302,120.6830
29.3800,120.4363
29.5396,120.1931
29.6900,119.9828
29.7515,119.9044
29.8938,119.7307
29.8938,113.1142
30.0208,113.1142
30.0208,119.5987
30.3065,119.3367
30.4834,119.1850
30.6929,119.0207
30.8949,118.8750
30.9310,118.8508
31.5305,118.5013
32.1786,118.2145
32.8783,117.9892
33.6325,117.8248
34.4440,117.7202
34.6457,117.7040
35.0585,117.6746
35.0585,113.1142
30.0208,113.1142
29.8938,113.1142
28.7085,113.1142
28.6238,113.1142
25.5017,113.1142
25.4752,113.2465
25.4568,113.3842
25.4488,113.5334
25.4488,113.5373
25.4362,113.7232
25.4015,113.9662
25.3491,114.2429
25.2835,114.5302
25.2093,114.8048
25.1933,114.8579
25.0537,115.2440
24.8680,115.6579
24.6516,116.0689
24.4199,116.4465
24.3445,116.5559
24.1389,116.8176
23.8820,117.1028
23.5943,117.3915
23.2966,117.6638
23.0092,117.8997
22.8178,118.0374
22.2316,118.3818
21.6142,118.6582
20.9782,118.8625
20.3358,118.9902
19.9349,119.0295
19.5221,119.0532
19.3951,119.0532
19.3951,119.0409
19.1517,119.0407
18.9933,119.0334
18.7896,119.0141
18.5782,118.9867
18.5260,118.9785
17.8603,118.8300
17.2131,118.6060
16.5948,118.3121
16.0154,117.9540
15.4853,117.5373
15.0146,117.0675
14.9818,117.0300
14.5366,116.4564
14.1693,115.8500
13.8792,115.2095
13.6657,114.5336
13.5283,113.8208
13.4891,113.4635
13.4743,113.2887
13.7225,113.2887
13.7415,113.5924
13.7950,113.9485
13.8772,114.3347
13.9825,114.7288
14.1051,115.1085
14.2395,115.4517
14.3166,115.6175
14.6578,116.2068
15.0662,116.7497
15.5348,117.2409
16.0568,117.6750
16.6252,118.0467
17.2332,118.3505
17.8737,118.5811
18.2521,118.6780
18.5096,118.7262
18.8174,118.7711
19.1409,118.8079
19.3210,118.8236
19.3361,118.8210
19.3490,118.8066
19.3598,118.7743
19.3688,118.7180
19.3762,118.6316
19.3820,118.5090
19.3865,118.3440
19.3899,118.1307
19.3922,117.8627
19.3937,117.5342
19.3946,117.1388
19.3950,116.6706
19.3951,116.1645
19.3951,113.4998
19.5221,113.4998
19.5221,118.8260
19.8079,118.8031
19.9895,118.7847
20.2120,118.7568
20.4329,118.7248
20.4746,118.7182
21.1124,118.5724
21.7297,118.3483
22.3193,118.0516
22.8738,117.6876
23.3859,117.2619
23.8482,116.7798
24.2534,116.2469
24.5942,115.6686
24.6093,115.6387
24.8710,115.0403
25.0607,114.4238
25.1828,113.7726
25.2189,113.4423
25.2471,113.1142
19.9243,113.1175
19.8389,113.2532
19.7493,113.3608
19.6462,113.4401
19.6378,113.4444
19.5221,113.4998
19.3951,113.4998
19.2794,113.4444
19.1774,113.3698
19.0847,113.2630
19.0783,113.2532
19.0168,113.1553
19.2459,113.1553
19.2923,113.2170
19.3573,113.2643
19.3874,113.2432
19.3827,113.2098
19.5301,113.2098
19.5422,113.2578
19.5891,113.2564
19.6429,113.2135
19.6669,113.1714
19.6636,113.1238
19.6177,113.1222
19.5472,113.1710
19.5301,113.2098
19.3827,113.2098
19.3772,113.1698
19.3612,113.1481
19.2905,113.1187
19.2662,113.1219
19.2459,113.1553
19.0168,113.1553
18.9930,113.1175
13.7225,113.1142
13.7225,113.2887
13.4743,113.2887
13.4596,113.1142
10.2511,113.1142
10.1665,113.1142
9.0235,113.1142
8.9388,113.1142
7.2455,113.1142
7.1608,113.1142
3.9011,113.1142
0.0223,113.1142
0.0218,112.5658
0.0208,111.4175
0.0197,110.1921
0.0187,108.8870
0.0177,107.5580
0.0072,93.8737
3.8490,93.8737
3.8751,100.9187
3.8780,101.7323
3.8809,102.5519
3.8836,103.3706
3.8862,104.1815
3.8887,104.9781
3.8910,105.7534
3.8931,106.5008
3.8950,107.2135
3.8967,107.8846
3.8981,108.5075
3.8993,109.0753
3.9002,109.5813
3.9008,110.0188
3.9011,110.3809
3.9011,110.4966
3.9011,113.0295
7.1608,113.0295
7.1608,92.8365
7.2455,92.8365
7.2455,102.9048
7.2456,103.8223
7.2459,104.7175
7.2465,105.5868
7.2472,106.4264
7.2482,107.2327
7.2494,108.0019
7.2507,108.7304
7.2522,109.4145
7.2538,110.0505
7.2556,110.6347
7.2575,111.1634
7.2596,111.6329
7.2617,112.0396
7.2640,112.3798
7.2664,112.6497
7.2688,112.8457
7.2713,112.9641
7.2737,113.0013
7.3229,113.0101
7.4433,113.0177
7.6214,113.0238
7.8437,113.0279
8.0967,113.0295
8.1203,113.0295
8.9388,113.0295
8.9388,92.8365
9.0235,92.8365
9.0235,102.9048
9.0236,103.8223
9.0239,104.7175
9.0245,105.5868
9.0252,106.4264
9.0262,107.2327
9.0274,108.0019
9.0287,108.7304
9.0302,109.4145
9.0318,110.0505
9.0336,110.6347
9.0355,111.1634
9.0376,111.6329
9.0397,112.0396
9.0420,112.3798
9.0444,112.6497
9.0468,112.8457
9.0493,112.9641
9.0517,113.0013
9.1024,113.0119
9.2209,113.0207
9.3902,113.0269
9.5933,113.0295
9.6232,113.0295
10.1665,113.0295
10.1665,92.8365
10.2511,92.8365
10.2511,113.0295
13.4584,113.0295
13.7098,113.0295
16.3090,113.0289
16.7711,113.0283
17.2085,113.0268
17.6136,113.0244
17.9792,113.0213
18.2979,113.0175
18.5621,113.0132
18.7645,113.0084
18.8977,113.0031
18.9542,112.9976
18.9553,112.9971
18.9970,112.9501
19.2258,112.9501
19.2545,112.9852
19.3153,112.9796
19.3704,112.9403
19.3805,112.9219
19.3829,112.9025
19.5221,112.9025
19.5521,112.9733
19.6068,112.9872
19.6756,112.9730
19.6915,112.9533
19.6610,112.8922
19.5976,112.8341
19.5560,112.8179
19.5284,112.8534
19.5221,112.9025
19.3829,112.9025
19.3893,112.8515
19.3802,112.8312
19.3336,112.8335
19.2716,112.8764
19.2294,112.9328
19.2258,112.9501
18.9970,112.9501
19.0056,112.9403
19.0648,112.8439
19.0697,112.8344
19.1550,112.7259
19.2658,112.6495
19.2661,112.6494
19.3951,112.5959
19.3951,107.3145
19.5221,107.3145
19.5221,112.5959
19.6511,112.6494
19.7618,112.7256
19.8473,112.8341
19.8475,112.8344
19.9062,112.9326
19.9584,112.9946
19.9619,112.9971
20.0115,113.0027
20.1384,113.0079
20.3352,113.0127
20.5946,113.0171
20.9091,113.0209
21.2713,113.0241
21.6740,113.0265
22.1097,113.0282
22.5710,113.0289
22.6285,113.0289
25.2480,113.0295
25.2183,112.6803
25.1184,111.9746
24.9436,111.3006
24.6976,110.6628
24.3839,110.0658
24.0062,109.5143
23.5681,109.0129
23.0732,108.5661
22.5250,108.1785
21.9272,107.8548
21.2834,107.5995
21.2155,107.5775
20.8919,107.4864
20.5508,107.4100
20.2186,107.3530
19.9219,107.3204
19.7687,107.3145
19.5221,107.3145
19.3951,107.3145
19.3951,107.3018
19.0035,107.3291
18.3345,107.4177
17.6858,107.5874
17.0619,107.8360
16.4673,108.1614
15.9066,108.5616
15.4133,109.0052
14.9443,109.5320
14.5486,110.0989
14.2280,110.7024
13.9842,111.3385
13.8189,112.0038
13.7368,112.6492
13.7098,113.0295
13.4584,113.0295
13.4877,112.6591
13.5843,111.9506
13.7579,111.2688
14.0048,110.6188
14.3212,110.0061
14.7032,109.4359
15.1470,108.9136
15.6489,108.4444
16.2050,108.0337
16.8115,107.6867
17.1696,107.5232
17.7882,107.3065
18.4438,107.1554
18.8952,107.0935
19.3951,107.0435
19.3951,92.8365
19.5221,92.8365
19.5221,107.0484
19.9087,107.0776
20.6145,107.1720
21.2933,107.3447
21.9402,107.5919
22.5501,107.9101
23.1178,108.2956
23.6384,108.7448
24.1069,109.2542
24.5180,109.8201
24.8669,110.4389
24.9927,110.7115
25.1144,111.0267
25.2264,111.3803
25.3211,111.7432
25.3908,112.0865
25.4258,112.3536
25.4423,112.5393
25.4598,112.7191
25.4743,112.8502
25.4965,113.0306
28.6026,113.0084
28.6133,102.9225
28.6240,92.8365
28.7085,92.8365
28.7085,113.0295
29.8938,113.0295
29.8938,92.8365
30.0208,92.8365
30.0208,113.0295
35.0585,113.0295
35.0585,93.6512
34.1720,93.2439
33.2856,92.8365
30.0208,92.8365
29.8938,92.8365
28.7085,92.8365
28.6240,92.8365
19.5221,92.8365
19.3951,92.8365
10.2511,92.8365
10.1665,92.8365
9.0235,92.8365
8.9388,92.8365
7.2455,92.8365
7.1608,92.8365
5.8397,92.8365
4.8443,93.3551
3.8490,93.8737
0.0072,93.8737
0.0063,92.7523
19.5221,92.7523
19.6827,92.7519
28.7085,92.7519
29.8938,92.7519
29.8938,92.0745
30.0208,92.0745
30.0208,92.7519
31.5342,92.7502
31.9312,92.7495
32.2509,92.7483
32.5006,92.7462
32.6878,92.7428
32.8198,92.7377
32.9040,92.7306
32.9478,92.7210
32.9585,92.7087
32.9434,92.6932
32.9212,92.6801
32.8259,92.6319
32.6716,92.5578
32.4689,92.4627
32.2284,92.3513
31.9608,92.2284
31.6766,92.0989
31.3866,91.9675
31.1011,91.8390
30.8310,91.7182
30.5868,91.6100
30.3791,91.5190
30.2185,91.4502
30.1156,91.4082
30.0821,91.3972
30.0586,91.4099
30.0418,91.4553
30.0307,91.5447
30.0241,91.6892
30.0212,91.9000
30.0208,92.0745
29.8938,92.0745
29.8938,91.4027
29.4599,91.3829
29.2571,91.3714
29.0685,91.3568
28.9215,91.3414
28.8672,91.3332
28.7085,91.3033
28.7085,92.7519
19.6827,92.7519
28.6026,92.7307
28.6258,91.3125
19.5221,91.3125
19.5221,92.7523
0.0063,92.7523
0.0063,92.7341
6.0601,92.7341
6.0998,92.7407
6.2085,92.7462
6.3704,92.7501
6.5698,92.7518
6.6105,92.7519
7.1608,92.7519
7.1608,92.5498
7.2448,92.5498
7.2543,92.6657
7.2737,92.7237
7.3229,92.7324
7.4433,92.7401
7.6214,92.7461
7.8437,92.7502
8.0967,92.7519
8.1203,92.7519
8.9388,92.7519
8.9388,92.2353
9.0301,92.2353
9.0303,92.4334
9.0333,92.5869
9.0388,92.6796
9.0421,92.6971
9.0750,92.7212
9.1587,92.7376
9.3032,92.7475
9.5187,92.7516
9.6148,92.7519
10.1665,92.7519
10.1665,91.3125
10.2511,91.3125
10.2511,92.7519
19.3951,92.7519
19.3951,91.3125
10.2511,91.3125
10.1665,91.3125
10.1665,91.3059
9.8384,91.3313
9.6394,91.3456
9.4364,91.3582
9.2775,91.3664
9.0446,91.3760
9.0329,92.0092
9.0301,92.2353
8.9388,92.2353
8.9388,91.3549
8.7950,91.3549
8.6934,91.3751
8.5321,91.4368
8.3072,91.5416
8.0153,91.6911
8.0013,91.6985
7.7851,91.8136
7.5932,91.9173
7.4387,92.0024
7.3353,92.0614
7.2984,92.0847
7.2734,92.1448
7.2554,92.2612
7.2455,92.4056
7.2448,92.5498
7.1608,92.5498
7.1608,92.4555
7.1586,92.3095
7.1529,92.2036
7.1448,92.1594
7.1442,92.1592
7.0996,92.1778
6.9984,92.2276
6.8565,92.3003
6.6903,92.3871
6.5160,92.4794
6.3497,92.5688
6.2076,92.6465
6.1060,92.7041
6.0610,92.7328
6.0601,92.7341
0.0063,92.7341
0.0055,91.6089
1.6182,91.6089
1.3493,91.3005
0.9292,90.7581
0.5876,90.1845
0.3248,89.5807
0.1412,88.9475
0.0488,88.3956
0.0465,88.3332
0.0443,88.1884
0.0421,87.9635
0.0400,87.6606
0.0379,87.2818
0.0359,86.8296
0.0340,86.3060
0.0321,85.7133
0.0318,85.5986
7.2434,85.5986
7.6488,85.9862
8.1069,86.4692
8.4999,86.9775
8.7419,87.3611
8.8231,87.5017
8.8872,87.6089
8.9238,87.6657
8.9282,87.6705
8.9312,87.6305
8.9338,87.5176
8.9360,87.3433
8.9377,87.1194
8.9386,86.8579
9.0235,86.8579
9.0235,87.8270
9.1918,88.2990
9.2879,88.5920
9.3743,88.9001
9.4463,89.2023
9.4991,89.4779
9.5280,89.7059
9.5320,89.7952
9.5367,89.9738
9.5594,90.0841
9.6154,90.1426
9.7198,90.1656
9.8785,90.1695
10.1734,90.1695
10.1544,89.6510
10.1277,89.1959
10.2511,89.1959
10.2511,90.1695
19.3951,90.1695
19.3951,89.1959
19.5221,89.1959
19.5221,90.1695
28.6238,90.1695
28.6188,89.1641
28.6156,88.8328
28.6096,88.5861
28.6008,88.4239
28.5893,88.3463
28.5750,88.3530
28.5579,88.4441
28.5379,88.6196
28.5160,88.8678
28.4896,89.1959
19.5221,89.1959
19.3951,89.1959
10.2511,89.1959
10.1277,89.1959
10.1175,89.0233
10.0536,88.4624
9.9600,87.9538
9.8341,87.4832
9.6732,87.0361
9.6650,87.0161
9.5865,86.8382
9.4908,86.6402
9.3867,86.4382
9.2829,86.2483
9.1884,86.0867
9.1118,85.9695
9.0620,85.9127
9.0618,85.9126
9.0500,85.9456
9.0399,86.0544
9.0319,86.2300
9.0264,86.4634
9.0237,86.7457
9.0235,86.8579
8.9386,86.8579
8.9386,86.8576
8.9388,86.6796
8.9388,85.6873
8.4756,85.2055
8.2799,85.0105
8.0666,84.8121
7.8587,84.6309
7.6787,84.4870
7.6396,84.4584
7.2666,84.1931
7.2550,84.8959
7.2434,85.5986
0.0318,85.5986
0.0303,85.0537
0.0286,84.3295
0.0269,83.5427
0.0253,82.6958
0.0237,81.7908
0.0223,80.8299
0.0208,79.8155
0.0195,78.7497
0.0193,78.6125
2.8005,78.6125
2.8005,84.1030
3.3190,84.1302
4.0761,84.2121
4.8229,84.3770
5.0865,84.4561
5.3520,84.5523
5.6528,84.6794
5.9678,84.8267
6.2756,84.9835
6.5550,85.1395
6.7847,85.2838
6.8645,85.3409
6.9928,85.4374
7.0920,85.5109
7.1455,85.5492
7.1502,85.5521
7.1537,85.5131
7.1567,85.4031
7.1590,85.2358
7.1604,85.0249
7.1608,84.8363
7.1608,84.1174
6.7269,83.9068
6.0560,83.6265
5.3653,83.4281
4.6507,83.3103
4.2983,83.2821
3.8165,83.2563
3.8165,78.6125
4.0281,78.6125
4.0281,83.0451
4.5171,83.0947
5.2035,83.1925
5.8307,83.3417
6.4086,83.5452
6.7798,83.7166
6.9356,83.7957
7.0597,83.8581
7.1353,83.8953
7.1502,83.9021
7.1521,83.8613
7.1538,83.7431
7.1554,83.5545
7.1569,83.3027
7.1582,82.9949
7.1592,82.6382
7.1600,82.2398
7.1606,81.8069
7.1608,81.3466
7.1608,81.2584
7.1608,78.6125
7.2455,78.6125
7.2455,83.9419
7.6370,84.2081
7.8386,84.3576
8.0696,84.5489
8.3042,84.7598
8.4731,84.9238
8.6291,85.0812
8.7626,85.2155
8.8630,85.3158
8.9197,85.3717
8.9282,85.3795
8.9298,85.3393
8.9314,85.2206
8.9329,85.0300
8.9342,84.7737
8.9355,84.4579
8.9365,84.0891
8.9374,83.6736
8.9381,83.2176
8.9385,82.7276
8.9388,82.2097
8.9388,81.9992
8.9388,78.6125
9.0235,78.6125
9.0235,85.4928
9.2405,85.8097
9.3957,86.0562
9.5586,86.3490
9.7176,86.6642
9.8609,86.9776
9.9768,87.2651
10.0425,87.4616
10.0885,87.6159
10.1263,87.7331
10.1496,87.7942
10.1532,87.7989
10.1550,87.7575
10.1567,87.6368
10.1583,87.4424
10.1598,87.1796
10.1612,86.8539
10.1625,86.4708
10.1636,86.0356
10.1646,85.5539
10.1654,85.0310
10.1659,84.4724
10.1663,83.8836
10.1664,83.2699
10.1665,83.2057
10.1665,78.6125
10.2511,78.6125
10.2511,83.4745
10.2514,84.1159
10.2520,84.7382
10.2532,85.3356
10.2547,85.9023
10.2565,86.4326
10.2587,86.9206
10.2612,87.3607
10.2640,87.7470
10.2670,88.0738
10.2702,88.3353
10.2736,88.5258
10.2772,88.6394
10.2785,88.6603
10.3059,88.9842
19.3951,88.9842
19.3951,84.5940
19.5221,84.5940
19.5221,88.9842
28.3150,88.9842
28.3426,88.5905
28.3651,88.3838
28.4044,88.1310
28.4544,87.8677
28.4970,87.6778
28.5175,87.5940
28.7085,87.5940
28.7085,90.1695
29.0346,90.1695
29.0590,89.7991
29.1360,89.1912
29.2838,88.5740
29.4958,87.9722
29.6824,87.5654
29.8954,87.1471
29.8840,86.2559
29.8726,85.3647
29.6315,85.7034
29.3868,86.0800
29.1561,86.4964
28.9575,86.9182
28.8394,87.2202
28.7085,87.5940
28.5175,87.5940
28.6238,87.1588
28.6238,78.6125
28.7085,78.6125
28.7108,82.7718
28.7132,86.9310
28.8772,86.5823
28.9806,86.3782
29.1090,86.1472
29.2386,85.9318
29.2694,85.8838
29.3962,85.6962
29.5347,85.5021
29.6607,85.3351
29.6957,85.2912
29.7847,85.1821
30.0208,85.1821
30.0208,86.9615
30.2168,86.6923
30.3192,86.5638
30.4658,86.3959
30.6393,86.2075
30.8226,86.0175
30.8836,85.9565
31.4310,85.4667
32.0118,85.0513
32.6340,84.7059
33.3053,84.4258
33.7461,84.2839
34.4357,84.1208
35.1223,84.0335
35.5558,84.0157
36.1167,84.0100
36.1167,81.3113
36.1168,78.6125
35.1431,78.6125
35.1431,83.1739
34.4129,83.1965
34.0922,83.2092
33.8326,83.2270
33.6107,83.2525
33.4029,83.2881
33.2271,83.3267
32.5301,83.5339
31.8679,83.8180
31.2396,84.1795
30.6445,84.6187
30.3277,84.8966
30.0208,85.1821
29.7847,85.1821
29.8938,85.0484
29.8938,78.6125
30.0208,78.6125
30.0208,84.9105
30.1795,84.7632
30.3020,84.6521
30.4503,84.5210
30.5500,84.4347
30.9318,84.1420
31.3725,83.8617
31.8464,83.6084
32.3278,83.3964
32.5433,83.3172
33.1650,83.1386
33.7968,83.0281
34.3494,82.9844
34.9315,82.9610
34.9315,78.6125
30.0208,78.6125
29.8938,78.6125
28.7085,78.6125
28.6238,78.6125
25.5017,78.6125
25.4752,78.7448
25.4576,78.8778
25.4488,79.0307
25.4486,79.0518
25.4344,79.2617
25.3948,79.5281
25.3345,79.8279
25.2582,80.1385
25.1706,80.4363
24.9171,81.0879
24.5906,81.6982
24.1896,82.2698
23.7343,82.7831
23.2019,83.2654
22.6300,83.6729
22.0191,84.0053
21.3696,84.2624
20.6819,84.4440
20.0195,84.5439
19.5221,84.5940
19.3951,84.5940
19.3951,84.5901
19.0882,84.5617
18.3467,84.4537
17.6424,84.2714
16.9783,84.0166
16.3572,83.6910
15.7820,83.2964
15.2558,82.8345
14.7814,82.3071
14.3914,81.7625
14.0884,81.2169
13.8403,80.6163
13.6512,79.9737
13.5252,79.3018
13.4875,78.9618
13.4575,78.6125
13.7103,78.6125
13.7398,79.0041
13.8320,79.6838
14.0016,80.3375
14.2440,80.9601
14.5546,81.5463
14.9286,82.0909
15.3615,82.5887
15.8486,83.0345
16.3853,83.4229
16.9670,83.7489
17.5890,84.0071
18.2467,84.1923
18.3580,84.2154
18.6092,84.2624
18.8115,84.2929
18.9981,84.3110
19.1940,84.3208
19.3951,84.3275
19.3951,79.0381
19.3268,79.0027
19.5221,79.0027
19.5221,84.3275
19.7020,84.3273
19.8234,84.3207
19.9992,84.3034
20.2002,84.2783
20.3037,84.2635
20.9850,84.1221
21.6262,83.9082
22.2336,83.6189
22.8137,83.2513
23.1781,82.9698
23.6758,82.5033
24.1090,81.9838
24.4754,81.4153
24.7732,80.8020
25.0002,80.1479
25.1543,79.4570
25.2189,78.9406
25.2471,78.6125
22.6255,78.6125
22.0830,78.6125
21.6187,78.6126
21.2263,78.6134
20.8993,78.6155
20.6313,78.6192
20.4159,78.6252
20.2467,78.6339
20.1173,78.6457
20.0213,78.6614
19.9522,78.6812
19.9037,78.7058
19.8693,78.7356
19.8426,78.7711
19.8172,78.8129
19.8044,78.8341
19.7207,78.9254
19.6274,78.9763
19.5221,79.0027
19.3268,79.0027
19.2688,78.9728
19.1584,78.8882
19.0799,78.7863
19.0153,78.6928
18.9800,78.6641
19.2441,78.6641
19.2564,78.7037
19.2681,78.7184
19.3292,78.7716
19.3580,78.7819
19.3909,78.7475
19.3951,78.7184
19.5221,78.7184
19.5422,78.7748
19.5593,78.7819
19.6144,78.7529
19.6491,78.7184
19.6764,78.6697
19.6325,78.6552
19.6120,78.6549
19.5390,78.6802
19.5221,78.7184
19.3951,78.7184
19.3593,78.6668
19.3053,78.6549
19.2441,78.6641
18.9800,78.6641
18.9487,78.6388
18.8951,78.6342
18.7644,78.6297
18.5641,78.6257
18.3015,78.6220
17.9844,78.6188
17.6202,78.6162
17.2164,78.6143
16.7805,78.6130
16.3200,78.6125
16.2952,78.6125
13.7103,78.6125
13.4575,78.6125
10.2511,78.6125
10.1665,78.6125
9.0235,78.6125
8.9388,78.6125
7.2455,78.6125
7.1608,78.6125
4.0281,78.6125
3.8165,78.6125
2.8005,78.6125
0.0193,78.6125
0.0192,78.5279
2.8002,78.5279
3.8165,78.5279
4.0281,78.5279
7.1608,78.5279
7.1608,73.9277
7.2530,73.9277
7.2531,74.6142
7.2534,75.2581
7.2539,75.8553
7.2546,76.4018
7.2554,76.8936
7.2565,77.3265
7.2577,77.6965
7.2591,77.9996
7.2606,78.2318
7.2624,78.3889
7.2643,78.4669
7.2650,78.4750
7.2947,78.4944
7.3724,78.5089
7.5064,78.5189
7.7051,78.5250
7.9766,78.5276
8.1120,78.5279
8.9388,78.5279
8.9388,73.9277
9.0310,73.9277
9.0311,74.6142
9.0314,75.2581
9.0319,75.8553
9.0326,76.4018
9.0334,76.8936
9.0345,77.3265
9.0357,77.6965
9.0371,77.9996
9.0386,78.2318
9.0404,78.3889
9.0423,78.4669
9.0430,78.4750
9.0789,78.4986
9.1713,78.5147
9.3290,78.5242
9.5608,78.5278
9.6148,78.5279
10.1665,78.5279
10.1665,70.2940
10.2511,70.2940
10.2511,78.5279
13.4596,78.5279
13.7103,78.5279
16.2952,78.5279
16.7569,78.5275
17.1944,78.5262
17.6002,78.5242
17.9669,78.5216
18.2869,78.5184
18.5527,78.5146
18.7567,78.5105
18.8916,78.5060
18.9496,78.5012
18.9504,78.5009
18.9860,78.4707
19.2408,78.4707
19.2847,78.4852
19.3053,78.4855
19.3783,78.4603
19.3951,78.4220
19.5221,78.4220
19.5579,78.4736
19.6120,78.4855
19.6731,78.4763
19.6608,78.4368
19.6491,78.4220
19.5880,78.3688
19.5593,78.3585
19.5263,78.3929
19.5221,78.4220
19.3951,78.4220
19.3750,78.3657
19.3580,78.3585
19.3028,78.3875
19.2681,78.4220
19.2408,78.4707
18.9860,78.4707
19.0190,78.4427
19.0590,78.3729
19.1200,78.2860
19.2218,78.1995
19.2463,78.1840
19.3951,78.0962
19.5221,78.0962
19.6709,78.1840
19.7772,78.2659
19.8505,78.3567
19.8587,78.3742
19.9085,78.4606
19.9533,78.4989
20.0045,78.5029
20.1329,78.5068
20.3312,78.5105
20.5919,78.5139
20.9076,78.5170
21.2709,78.5196
21.6744,78.5218
22.1107,78.5234
22.5724,78.5245
22.6274,78.5245
25.2459,78.5279
25.2170,78.1786
25.1176,77.4684
24.9407,76.7902
24.6873,76.1468
24.3589,75.5409
23.9567,74.9752
23.5110,74.4812
22.9905,74.0228
22.4251,73.6357
21.8175,73.3211
21.1702,73.0801
20.4858,72.9140
19.8714,72.8320
19.5221,72.8019
19.5221,78.0962
19.3951,78.0962
19.3951,72.8041
19.0459,72.8339
18.5166,72.9045
17.9812,73.0226
17.5536,73.1535
16.9207,73.4209
16.3320,73.7573
15.7917,74.1570
15.3042,74.6142
14.8739,75.1234
14.5051,75.6789
14.2023,76.2748
13.9696,76.9057
13.8115,77.5657
13.7397,78.1363
13.7103,78.5279
13.4596,78.5279
13.4893,78.1786
13.5908,77.4537
13.7675,76.7609
14.0164,76.1048
14.3344,75.4896
14.7184,74.9196
15.1653,74.3993
15.6721,73.9330
16.2356,73.5251
16.8529,73.1798
17.1100,73.0620
17.4512,72.9263
17.7908,72.8164
18.1489,72.7278
18.5455,72.6556
19.0005,72.5951
19.1517,72.5785
19.3951,72.5528
19.3951,61.5522
19.5221,61.5522
19.5221,72.5521
19.8079,72.5782
20.5208,72.6737
21.1797,72.8276
21.7957,73.0444
22.3801,73.3286
22.9440,73.6846
23.3495,73.9927
23.6682,74.2834
23.9907,74.6348
24.3006,75.0256
24.5816,75.4343
24.8173,75.8394
24.9161,76.0408
25.0504,76.3660
25.1735,76.7220
25.2801,77.0883
25.3650,77.4446
25.4227,77.7702
25.4480,78.0449
25.4486,78.0887
25.4555,78.2392
25.4723,78.3797
25.4753,78.3961
25.5019,78.5289
27.0523,78.5178
28.6026,78.5067
28.6133,70.3020
28.6134,70.2546
28.7085,70.2546
28.7085,78.5279
29.8938,78.5279
29.8938,61.5522
30.0208,61.5522
30.0208,78.5279
34.9315,78.5279
34.9315,61.5522
35.1431,61.5522
35.1431,78.5279
36.1168,78.5279
36.1168,61.5522
35.1431,61.5522
34.9315,61.5522
30.0208,61.5522
29.8938,61.5522
29.5356,61.5522
29.3214,61.5591
29.1850,61.5794
29.1341,61.6051
29.0805,61.6713
29.0022,61.7687
28.9824,61.7934
28.8928,61.8869
28.8073,61.9483
28.7913,61.9550
28.7814,61.9592
28.7724,61.9677
28.7641,61.9840
28.7566,62.0116
28.7498,62.0539
28.7437,62.1146
28.7382,62.1971
28.7333,62.3049
28.7290,62.4416
28.7252,62.6106
28.7219,62.8154
28.7191,63.0596
28.7167,63.3466
28.7147,63.6800
28.7130,64.0633
28.7117,64.4999
28.7106,64.9934
28.7098,65.5473
28.7093,66.1652
28.7089,66.8504
28.7086,67.6065
28.7085,68.4371
28.7085,69.3456
28.7085,70.2546
28.6134,70.2546
28.6146,69.1875
28.6153,68.1568
28.6155,67.2091
28.6153,66.3436
28.6145,65.5596
28.6131,64.8562
28.6113,64.2325
28.6089,63.6878
28.6060,63.2212
28.6025,62.8320
28.5986,62.5194
28.5940,62.2824
28.5890,62.1203
28.5833,62.0323
28.5801,62.0153
28.5251,61.9495
28.4874,61.9332
28.4169,61.9028
28.3324,61.8315
28.2645,61.7493
28.2428,61.6945
28.2094,61.6327
28.1883,61.6167
28.4603,61.6167
28.4735,61.6754
28.5053,61.7131
28.5602,61.7587
28.5795,61.7327
28.5815,61.6792
28.5789,61.6727
28.7177,61.6727
28.7302,61.7147
28.7741,61.7150
28.8484,61.6744
28.8686,61.6434
28.8561,61.6014
28.8121,61.6011
28.7378,61.6417
28.7177,61.6727
28.5789,61.6727
28.5550,61.6103
28.5180,61.5945
28.4603,61.6167
28.1883,61.6167
28.1609,61.5960
28.1036,61.5877
27.9643,61.5803
27.7426,61.5737
27.4383,61.5681
27.0510,61.5633
26.5806,61.5593
26.0266,61.5563
25.3889,61.5541
24.6671,61.5527
23.8610,61.5522
23.8006,61.5522
19.5221,61.5522
19.3951,61.5522
15.0771,61.5522
14.3775,61.5523
13.7576,61.5524
13.2126,61.5529
12.7375,61.5536
12.3274,61.5548
11.9774,61.5564
11.6826,61.5586
11.4381,61.5616
11.2390,61.5653
11.0803,61.5698
10.9572,61.5753
10.8647,61.5819
10.7979,61.5895
10.7520,61.5984
10.7219,61.6086
10.7028,61.6202
10.6908,61.6321
10.5698,61.7634
10.4266,61.9050
10.3310,61.9919
10.3215,62.0018
10.3127,62.0169
10.3047,62.0407
10.2975,62.0768
10.2909,62.1287
10.2850,62.1999
10.2797,62.2939
10.2750,62.4143
10.2708,62.5646
10.2672,62.7484
10.2640,62.9691
10.2613,63.2304
10.2589,63.5357
10.2570,63.8885
10.2554,64.2925
10.2542,64.7511
10.2532,65.2678
10.2524,65.8463
10.2519,66.4899
10.2515,67.2023
10.2513,67.9870
10.2512,68.8476
10.2511,69.7874
10.2511,70.2940
10.1665,70.2940
10.1664,69.3113
10.1663,68.4097
10.1661,67.5857
10.1657,66.8359
10.1652,66.1567
10.1645,65.5445
10.1635,64.9960
10.1623,64.5074
10.1608,64.0755
10.1589,63.6965
10.1567,63.3671
10.1541,63.0837
10.1511,62.8427
10.1476,62.6407
10.1436,62.4742
10.1391,62.3396
10.1341,62.2334
10.1285,62.1521
10.1222,62.0922
10.1154,62.0502
10.1078,62.0226
10.0996,62.0058
10.0924,61.9977
9.9723,61.8877
9.8352,61.7499
9.7307,61.6360
9.7092,61.6167
10.0030,61.6167
10.0162,61.6754
10.0479,61.7131
10.1029,61.7587
10.1222,61.7327
10.1239,61.6844
10.2935,61.6844
10.3027,61.7456
10.3422,61.7333
10.3570,61.7215
10.4102,61.6604
10.4205,61.6317
10.3861,61.5987
10.3570,61.5945
10.3054,61.6303
10.2935,61.6844
10.1239,61.6844
10.1241,61.6792
10.0976,61.6103
10.0606,61.5945
10.0030,61.6167
9.7092,61.6167
9.6793,61.5900
9.6107,61.5653
9.5020,61.5574
9.3497,61.5610
9.0446,61.5734
9.0338,69.9977
9.0328,70.8365
9.0320,71.6530
9.0315,72.4430
9.0312,73.2026
9.0310,73.9277
8.9388,73.9277
8.9388,61.5504
8.1027,61.5619
7.2666,61.5734
7.2558,69.9977
7.2548,70.8365
7.2540,71.6530
7.2535,72.4430
7.2532,73.2026
7.2530,73.9277
7.1608,73.9277
7.1608,61.5522
4.0281,61.5522
4.0281,78.5279
3.8165,78.5279
3.8165,61.5522
3.8165,61.5495
2.8216,61.5734
2.8002,78.5279
0.0192,78.5279
0.0181,77.6348
0.0169,76.4729
0.0157,75.2663
0.0146,74.0171
0.0135,72.7277
0.0125,71.4002
0.0116,70.0369
0.0107,68.6398
0.0099,67.2114
0.0092,65.7538
0.0085,64.2692
0.0079,62.7598
0.0073,61.2278
0.0068,59.6755
0.0064,58.1051
0.0060,56.5187
0.0057,54.9187
0.0054,53.3072
0.0052,51.6865
0.0051,50.0587
0.0050,48.4261
0.0050,46.7908
0.0050,45.1552
0.0052,43.5215
0.0053,41.8917
0.0056,40.2683
0.0056,39.8775
2.8005,39.8775
2.8005,61.4675
3.8165,61.4675
3.8165,39.8775
4.0281,39.8775
4.0281,61.4675
7.1608,61.4675
7.1608,39.8775
7.2455,39.8775
7.2455,61.4675
8.9388,61.4675
8.9388,39.8775
9.0235,39.8775
9.0235,61.4675
9.3822,61.4675
9.5568,61.4664
9.6667,61.4591
9.7317,61.4396
9.7415,61.4304
9.9971,61.4304
10.0315,61.4634
10.0606,61.4675
10.1122,61.4318
10.1241,61.3777
10.2935,61.3777
10.3187,61.4507
10.3570,61.4675
10.4133,61.4474
10.4205,61.4304
10.3915,61.3752
10.3570,61.3405
10.3083,61.3133
10.2938,61.3572
10.2935,61.3777
10.1241,61.3777
10.1148,61.3165
10.0753,61.3288
10.0606,61.3405
10.0074,61.4017
9.9971,61.4304
9.7415,61.4304
9.7717,61.4020
9.8064,61.3409
9.8900,61.2262
9.9874,61.1408
10.0780,61.0764
10.1339,61.0242
10.1341,61.0240
10.1368,60.9784
10.1395,60.8517
10.1422,60.6476
10.1447,60.3696
10.1472,60.0214
10.1496,59.6066
10.1518,59.1288
10.1539,58.5915
10.1559,57.9985
10.1577,57.3533
10.1594,56.6595
10.1609,55.9208
10.1622,55.1407
10.1634,54.3229
10.1643,53.4710
10.1650,52.5885
10.1655,51.6791
10.1658,50.7464
10.1658,50.4291
10.1665,39.8775
10.2511,39.8775
10.2518,50.4291
10.2519,51.3688
10.2524,52.2864
10.2530,53.1783
10.2539,54.0409
10.2549,54.8706
10.2562,55.6637
10.2576,56.4167
10.2593,57.1260
10.2610,57.7879
10.2630,58.3988
10.2650,58.9551
10.2673,59.4532
10.2696,59.8896
10.2720,60.2605
10.2745,60.5624
10.2771,60.7917
10.2798,60.9448
10.2826,61.0180
10.2835,61.0240
10.3392,61.0761
10.4297,61.1406
10.4302,61.1408
10.5344,61.2337
10.6112,61.3409
10.6766,61.4675
19.3951,61.4675
19.5221,61.4675
28.2025,61.4675
28.2103,61.4471
28.4315,61.4471
28.4708,61.4668
28.4953,61.4675
28.5671,61.4384
28.5815,61.3829
28.5785,61.3709
28.7121,61.3709
28.7492,61.4361
28.8119,61.4675
28.8130,61.4675
28.8702,61.4478
28.8778,61.4304
28.8502,61.3756
28.7909,61.3251
28.7351,61.3061
28.7234,61.3115
28.7121,61.3709
28.5785,61.3709
28.5643,61.3141
28.5406,61.2982
28.4906,61.3312
28.4545,61.3829
28.4315,61.4471
28.2103,61.4471
28.2407,61.3673
28.3012,61.2719
28.3949,61.1799
28.3984,61.1772
28.4952,61.1032
28.5678,61.0456
28.5709,61.0430
28.5767,61.0230
28.5821,60.9712
28.5870,60.8851
28.5916,60.7619
28.5959,60.5991
28.5998,60.3939
28.6033,60.1438
28.6065,59.8461
28.6094,59.4981
28.6119,59.0972
28.6142,58.6407
28.6162,58.1261
28.6179,57.5506
28.6194,56.9116
28.6207,56.2065
28.6217,55.4326
28.6225,54.5873
28.6231,53.6679
28.6235,52.6717
28.6237,51.5962
28.6238,50.4387
28.6238,39.8775
28.7085,39.8775
28.7085,61.0709
28.8517,61.1392
28.9711,61.2259
29.0526,61.3375
29.1101,61.4675
29.8938,61.4675
29.8938,39.8775
30.0208,39.8775
30.0208,61.4675
34.9315,61.4675
34.9315,39.8775
35.1431,39.8775
35.1431,61.4675
36.1168,61.4675
36.1168,39.8775
35.1431,39.8775
34.9315,39.8775
30.0208,39.8775
29.8938,39.8775
28.7085,39.8775
28.6238,39.8775
24.2740,39.8778
19.9243,39.8781
19.8515,40.0061
19.7601,40.1202
19.6506,40.2069
19.5227,40.2797
19.5224,50.8736
19.5221,61.4675
19.3951,61.4675
19.3948,50.8736
19.3946,40.2797
19.2666,40.2069
19.1525,40.1155
19.0658,40.0061
19.0160,39.9186
19.2459,39.9186
19.2923,39.9804
19.3573,40.0277
19.3874,40.0065
19.3827,39.9731
19.5301,39.9731
19.5422,40.0211
19.5891,40.0197
19.6429,39.9769
19.6669,39.9347
19.6636,39.8871
19.6177,39.8855
19.5472,39.9343
19.5301,39.9731
19.3827,39.9731
19.3772,39.9331
19.3612,39.9114
19.2905,39.8820
19.2662,39.8853
19.2459,39.9186
19.0160,39.9186
18.9930,39.8781
14.6220,39.8778
10.2511,39.8775
10.1665,39.8775
9.0235,39.8775
8.9388,39.8775
7.2455,39.8775
7.1608,39.8775
4.0281,39.8775
3.8165,39.8775
2.8005,39.8775
0.0056,39.8775
0.0059,38.6533
0.0062,37.0490
0.0066,35.4576
0.0071,33.8814
0.0074,33.1505
2.8081,33.1505
2.8082,33.9811
2.8084,34.7698
2.8088,35.5131
2.8093,36.2078
2.8099,36.8504
2.8106,37.4377
2.8115,37.9662
2.8125,38.4327
2.8137,38.8337
2.8149,39.1658
2.8163,39.4259
2.8178,39.6104
2.8193,39.7160
2.8206,39.7414
2.8534,39.7661
2.9364,39.7808
3.0808,39.7865
3.2976,39.7842
3.3182,39.7837
3.7953,39.7717
3.8059,27.5043
3.8166,15.2395
4.0281,15.2395
4.0281,39.7929
7.1608,39.7929
7.1608,33.1503
7.2531,33.1503
7.2531,33.9808
7.2533,34.7694
7.2536,35.5127
7.2541,36.2073
7.2547,36.8498
7.2554,37.4370
7.2563,37.9655
7.2572,38.4318
7.2583,38.8327
7.2595,39.1648
7.2609,39.4247
7.2623,39.6091
7.2638,39.7147
7.2650,39.7400
7.2947,39.7594
7.3724,39.7739
7.5064,39.7839
7.7050,39.7900
7.9766,39.7926
8.1120,39.7929
8.9388,39.7929
8.9388,27.7420
9.0235,27.7420
9.0236,28.7443
9.0239,29.7247
9.0243,30.6796
9.0250,31.6058
9.0259,32.4999
9.0269,33.3585
9.0281,34.1782
9.0294,34.9556
9.0309,35.6874
9.0325,36.3701
9.0342,37.0005
9.0360,37.5751
9.0380,38.0905
9.0400,38.5434
9.0422,38.9304
9.0444,39.2481
9.0467,39.4931
9.0491,39.6621
9.0515,39.7517
9.0529,39.7659
9.1042,39.7762
9.2229,39.7830
9.3919,39.7857
9.5940,39.7839
9.6138,39.7835
10.1453,39.7717
10.1559,27.5056
10.1560,27.4880
10.2511,27.4880
10.2512,28.5010
10.2515,29.4920
10.2520,30.4577
10.2526,31.3947
10.2534,32.2997
10.2544,33.1694
10.2555,34.0004
10.2567,34.7894
10.2581,35.5330
10.2596,36.2279
10.2612,36.8708
10.2630,37.4583
10.2648,37.9870
10.2667,38.4536
10.2688,38.8549
10.2709,39.1873
10.2730,39.4477
10.2753,39.6326
10.2776,39.7388
10.2793,39.7647
10.3247,39.7686
10.4491,39.7723
10.6468,39.7759
10.9121,39.7792
11.2395,39.7822
11.6232,39.7850
12.0576,39.7874
12.5369,39.7894
13.0556,39.7910
13.6080,39.7921
14.1884,39.7927
14.6168,39.7929
15.3447,39.7927
15.9920,39.7920
16.5628,39.7909
17.0612,39.7893
17.4914,39.7870
17.8574,39.7842
18.1633,39.7806
18.4132,39.7763
18.6113,39.7713
18.7616,39.7654
18.8682,39.7586
18.9352,39.7509
18.9667,39.7422
18.9695,39.7400
18.9986,39.7041
19.2289,39.7041
19.2582,39.7440
19.3105,39.7505
19.3812,39.7206
19.3951,39.6659
19.5221,39.6659
19.5521,39.7366
19.6068,39.7505
19.6756,39.7363
19.6915,39.7167
19.6610,39.6556
19.5976,39.5975
19.5560,39.5812
19.5284,39.6167
19.5221,39.6659
19.3951,39.6659
19.3762,39.5922
19.3224,39.5947
19.2766,39.6320
19.2289,39.7041
18.9986,39.7041
19.0231,39.6738
19.1014,39.5764
19.1212,39.5517
19.2107,39.4582
19.2962,39.3968
19.3123,39.3901
19.3205,39.3866
19.3282,39.3794
19.3353,39.3657
19.3419,39.3425
19.3479,39.3071
19.3535,39.2563
19.3587,39.1875
19.3634,39.0976
19.3677,38.9837
19.3715,38.8430
19.3750,38.6726
19.3782,38.4695
19.3809,38.2309
19.3834,37.9538
19.3856,37.6353
19.3874,37.2726
19.3891,36.8628
19.3904,36.4029
19.3916,35.8900
19.3925,35.3212
19.3933,34.6937
19.3939,34.0045
19.3943,33.2508
19.3946,32.4296
19.3949,31.5380
19.3950,30.5731
19.3951,29.5321
19.3951,28.4120
19.3951,27.3017
19.3951,27.3015
19.5221,27.3015
19.5221,28.4974
19.5222,29.6116
19.5222,30.6469
19.5224,31.6063
19.5226,32.4926
19.5229,33.3087
19.5234,34.0576
19.5240,34.7421
19.5248,35.3652
19.5257,35.9297
19.5269,36.4386
19.5283,36.8947
19.5299,37.3010
19.5318,37.6603
19.5340,37.9756
19.5365,38.2498
19.5393,38.4857
19.5425,38.6863
19.5460,38.8544
19.5499,38.9930
19.5542,39.1050
19.5589,39.1933
19.5641,39.2607
19.5697,39.3102
19.5758,39.3446
19.5825,39.3670
19.5896,39.3801
19.5973,39.3869
19.6049,39.3901
19.6841,39.4392
19.7759,39.5277
19.7961,39.5517
19.8762,39.6515
19.9386,39.7287
19.9479,39.7402
19.9710,39.7491
20.0276,39.7569
20.1217,39.7637
20.2575,39.7695
20.4392,39.7743
20.6710,39.7782
20.9569,39.7812
21.3012,39.7834
21.7080,39.7848
22.1815,39.7854
22.7257,39.7853
23.3449,39.7845
24.0433,39.7831
24.2971,39.7825
28.6026,39.7717
28.6026,15.2607
19.6831,15.2395
28.7085,15.2395
28.7085,39.7929
29.8938,39.7929
29.8938,27.7307
29.8938,26.5348
29.8937,25.4206
29.8937,24.3853
29.8935,23.4260
29.8933,22.5397
29.8930,21.7236
29.8925,20.9747
29.8919,20.2902
29.8911,19.6671
29.8902,19.1026
29.8890,18.5938
29.8876,18.1376
29.8860,17.7314
29.8841,17.3720
29.8819,17.0568
29.8794,16.7826
29.8766,16.5467
29.8734,16.3461
29.8699,16.1780
29.8660,16.0394
29.8617,15.9274
29.8570,15.8392
29.8518,15.7717
29.8462,15.7223
29.8401,15.6878
29.8334,15.6654
29.8309,15.6608
30.0208,15.6608
30.0208,39.7929
34.9315,39.7929
34.9315,15.2395
35.1431,15.2395
35.1431,39.7929
36.1168,39.7929
36.1168,15.2395
35.1431,15.2395
34.9315,15.2395
32.7106,15.2395
32.1953,15.2400
31.7590,15.2414
31.3962,15.2438
31.1013,15.2475
30.8688,15.2525
30.6929,15.2590
30.5683,15.2671
30.4892,15.2770
30.4500,15.2887
30.4453,15.2925
30.3900,15.3619
30.3160,15.4584
30.3111,15.4650
30.2201,15.5591
30.1240,15.6215
30.1211,15.6227
30.0208,15.6608
29.8309,15.6608
29.8263,15.6523
29.8186,15.6455
29.8110,15.6423
29.7318,15.5932
29.6400,15.5047
29.6198,15.4807
29.5398,15.3810
29.4922,15.3221
29.7245,15.3221
29.7542,15.3688
29.8176,15.4144
29.8757,15.4334
29.8881,15.4287
29.8893,15.3811
29.8846,15.3652
30.0208,15.3652
30.0451,15.4209
30.0987,15.4199
30.1527,15.3667
30.1643,15.3421
30.1541,15.2922
30.1041,15.2819
30.0341,15.3126
30.0208,15.3652
29.8846,15.3652
29.8792,15.3472
29.8334,15.2979
29.7702,15.2821
29.7276,15.3059
29.7245,15.3221
29.4922,15.3221
29.4775,15.3039
29.4681,15.2925
29.3963,15.2617
29.2441,15.2440
29.0666,15.2395
28.7085,15.2395
19.6831,15.2395
19.5221,15.2392
19.5221,27.3015
19.3951,27.3015
19.3951,15.2395
10.2511,15.2395
10.2511,27.4880
10.1560,27.4880
10.1666,15.2395
9.8674,15.2395
9.6379,15.2513
9.4874,15.2871
9.4134,15.3478
9.4045,15.3872
9.3724,15.4517
9.2954,15.5228
9.2946,15.5233
9.1861,15.6045
9.1041,15.6735
9.0961,15.6823
9.0886,15.6953
9.0817,15.7156
9.0752,15.7459
9.0693,15.7893
9.0638,15.8487
9.0588,15.9269
9.0542,16.0269
9.0501,16.1516
9.0463,16.3040
9.0429,16.4869
9.0399,16.7033
9.0371,16.9561
9.0348,17.2482
9.0327,17.5825
9.0308,17.9620
9.0293,18.3896
9.0279,18.8682
9.0268,19.4007
9.0259,19.9900
9.0252,20.6391
9.0246,21.3509
9.0242,22.1282
9.0239,22.9741
9.0237,23.8915
9.0235,24.8832
9.0235,25.9521
9.0235,27.1013
9.0235,27.7420
8.9388,27.7420
8.9388,15.6608
8.8385,15.6227
8.7432,15.5621
8.6511,15.4685
8.6485,15.4650
8.5741,15.3677
8.5192,15.2988
8.7901,15.2988
8.7953,15.3423
8.8383,15.3922
8.8943,15.4080
8.9299,15.3863
8.9288,15.3665
9.0658,15.3665
9.0719,15.4355
9.0804,15.4512
9.1161,15.4236
9.1716,15.3665
9.2222,15.3052
9.2111,15.2842
9.1570,15.2819
9.0820,15.3085
9.0658,15.3665
8.9288,15.3665
8.9282,15.3560
8.8759,15.3024
8.8402,15.2894
8.7901,15.2988
8.5192,15.2988
8.5157,15.2943
8.5132,15.2913
8.4691,15.2686
8.3758,15.2541
8.2230,15.2471
8.0006,15.2469
7.8671,15.2490
7.2666,15.2607
7.2558,27.4739
7.2549,28.4857
7.2543,29.4757
7.2537,30.4405
7.2534,31.3768
7.2531,32.2811
7.2531,33.1503
7.1608,33.1503
7.1608,15.2395
4.0281,15.2395
3.8166,15.2395
3.8166,15.2369
3.3191,15.2488
2.8216,15.2607
2.8108,27.4739
2.8099,28.4857
2.8093,29.4757
2.8088,30.4406
2.8084,31.3769
2.8082,32.2813
2.8081,33.1505
0.0074,33.1505
0.0077,32.3224
0.0083,30.7831
0.0089,29.2656
0.0096,27.7720
0.0104,26.3046
0.0113,24.8657
0.0122,23.4575
0.0131,22.0821
0.0142,20.7418
0.0152,19.4387
0.0164,18.1752
0.0176,16.9535
0.0189,15.7757
0.0202,14.6440
0.0216,13.5607
0.0230,12.5281
0.0245,11.5482
0.0261,10.6234
0.0277,9.7559
0.0284,9.4399
2.8005,9.4399
2.8005,15.1549
3.8165,15.1549
3.8168,10.4688
4.0281,10.4688
4.0281,15.1549
7.1608,15.1549
7.1608,12.3997
7.1603,11.9258
7.1589,11.4780
7.1568,11.0635
7.1538,10.6891
7.1503,10.3619
7.1462,10.0888
7.1415,9.8768
7.1365,9.7328
7.1311,9.6639
7.1290,9.6588
7.0765,9.6851
6.9747,9.7377
6.8856,9.7842
6.4859,9.9671
6.0297,10.1309
5.5445,10.2682
5.0575,10.3715
4.5963,10.4332
4.4832,10.4416
4.0281,10.4688
3.8168,10.4688
3.8169,10.2654
4.2294,10.2543
4.7792,10.2096
5.3485,10.1087
5.9111,9.9584
6.4408,9.7653
6.7772,9.6075
7.2455,9.6075
7.2455,15.1549
8.5421,15.1549
8.5598,15.1177
8.7695,15.1177
8.7981,15.1529
8.8590,15.1473
8.9140,15.1079
8.9242,15.0896
8.9266,15.0702
9.0658,15.0702
9.0957,15.1410
9.1505,15.1549
9.2193,15.1407
9.2351,15.1210
9.2046,15.0599
9.1413,15.0018
9.0997,14.9855
9.0721,15.0211
9.0658,15.0702
8.9266,15.0702
8.9330,15.0192
8.9239,14.9989
8.8773,15.0011
8.8152,15.0440
8.7730,15.1004
8.7695,15.1177
8.5598,15.1177
8.6118,15.0086
8.6940,14.8911
8.8004,14.8013
8.8102,14.7959
8.9388,14.7294
8.9388,11.9875
9.0234,11.9875
9.0235,12.5243
9.0239,12.9876
9.0252,13.3828
9.0276,13.7154
9.0313,13.9911
9.0369,14.2154
9.0445,14.3938
9.0545,14.5317
9.0673,14.6349
9.0831,14.7088
9.1024,14.7589
9.1253,14.7908
9.1523,14.8100
9.1837,14.8221
9.2199,14.8326
9.2292,14.8355
9.2992,14.8872
9.3729,14.9836
9.3867,15.0076
9.4660,15.1549
10.1665,15.1549
10.2464,15.1549
19.3951,15.1549
19.3951,4.0635
19.5221,4.0635
19.5221,15.1549
28.6238,15.1549
28.6238,10.7179
28.6238,10.0081
28.6236,9.3780
28.6232,8.8221
28.6226,8.3356
28.6215,7.9131
28.6199,7.5496
28.6177,7.2398
28.6148,6.9788
28.6111,6.7612
28.6065,6.5821
28.6034,6.4999
28.7085,6.4999
28.7085,15.1549
29.5025,15.1549
29.5179,15.1177
29.7245,15.1177
29.7531,15.1529
29.8140,15.1473
29.8690,15.1079
29.8792,15.0896
29.8816,15.0702
30.0208,15.0702
30.0505,15.1407
30.1069,15.1549
30.1663,15.1437
30.1601,15.0946
30.1478,15.0702
30.0960,15.0032
30.0616,14.9855
30.0284,15.0210
30.0208,15.0702
29.8816,15.0702
29.8880,15.0192
29.8789,14.9989
29.8323,15.0011
29.7702,15.0440
29.7280,15.1004
29.7245,15.1177
29.5179,15.1177
29.5567,15.0240
29.6422,14.9042
29.7524,14.8256
29.8938,14.7582
29.8938,8.5425
30.0208,8.5425
30.0211,11.6476
30.0213,14.7527
30.1493,14.8255
30.2634,14.9169
30.3501,15.0264
30.4230,15.1543
32.6772,15.1546
34.9315,15.1549
34.9315,10.4682
34.3070,10.4431
33.5826,10.3734
32.8835,10.2233
32.2091,9.9925
31.5588,9.6808
30.9320,9.2879
30.3280,8.8136
30.2770,8.7689
30.0208,8.5425
29.8938,8.5425
29.8938,8.3644
29.7709,8.2354
29.7649,8.2283
30.0190,8.2283
30.1998,8.4148
30.7128,8.8837
31.2789,9.2890
31.8927,9.6283
32.5489,9.8992
33.2421,10.0994
33.9670,10.2264
34.3600,10.2631
34.6012,10.2746
34.7738,10.2687
34.8927,10.2398
34.9732,10.1824
35.0304,10.0912
35.0629,10.0091
35.0778,9.9691
35.0905,9.9440
35.1013,9.9394
35.1103,9.9609
35.1177,10.0143
35.1236,10.1050
35.1283,10.2389
35.1319,10.4214
35.1345,10.6583
35.1365,10.9552
35.1378,11.3176
35.1388,11.7514
35.1396,12.2620
35.1398,12.4773
35.1431,15.1549
36.1168,15.1549
36.1168,9.4520
35.4712,9.4284
34.7986,9.3778
34.1737,9.2739
33.5742,9.1109
32.9777,8.8833
32.5820,8.6984
32.3383,8.5702
32.0790,8.4225
31.8349,8.2734
31.6365,8.1410
31.6327,8.1383
31.3431,7.9135
31.0405,7.6485
30.7460,7.3639
30.4809,7.0801
30.2660,6.8175
30.2536,6.8007
30.0420,6.5121
30.0305,7.3702
30.0190,8.2283
29.7649,8.2283
29.6076,8.0428
29.4263,7.7935
29.2411,7.5090
29.0662,7.2109
28.9372,6.9650
28.7085,6.4999
28.6034,6.4999
28.6010,6.4361
28.5944,6.3183
28.5865,6.2234
28.5775,6.1463
28.5670,6.0818
28.5551,6.0249
28.5417,5.9703
28.5350,5.9448
28.4000,5.3168
28.3342,4.7199
28.3276,4.4763
28.3275,4.0635
19.5221,4.0635
19.3951,4.0635
10.2914,4.0635
10.2896,4.2223
10.2893,4.2838
10.2886,4.4248
10.2876,4.6399
10.2864,4.9241
10.2849,5.2721
10.2833,5.6785
10.2814,6.1384
10.2794,6.6463
10.2772,7.1971
10.2748,7.7855
10.2724,8.4064
10.2699,9.0545
10.2673,9.7246
10.2671,9.7680
10.2464,15.1549
10.1665,15.1549
10.1636,10.4241
10.1607,5.6934
10.0637,6.0109
9.8669,6.5690
9.6256,7.0895
9.3244,7.6046
9.2607,7.7021
9.0235,8.0599
9.0235,11.3715
9.0234,11.9875
8.9388,11.9875
8.9388,8.1659
8.5472,8.5611
8.3370,8.7672
8.1390,8.9462
7.9310,9.1163
7.6911,9.2956
7.4428,9.4708
7.2455,9.6075
6.7772,9.6075
6.8010,9.5963
7.1396,9.4187
7.1629,7.9918
7.0031,8.1177
6.5734,8.4149
6.0791,8.6855
5.5374,8.9238
4.9658,9.1239
4.3816,9.2798
3.8024,9.3857
3.2454,9.4358
3.0862,9.4391
2.8005,9.4399
0.0284,9.4399
0.0294,8.9478
0.0312,8.2014
0.0318,7.9686
7.2455,7.9686
7.2455,8.6407
7.2476,8.8685
7.2534,9.0632
7.2623,9.2107
7.2734,9.2967
7.2811,9.3129
7.3299,9.2899
7.4289,9.2289
7.5597,9.1411
7.6092,9.1065
7.9571,8.8368
8.3075,8.5215
8.6267,8.1917
8.7083,8.0980
8.9388,7.8264
8.9372,5.8627
8.8191,6.0769
8.5453,6.5185
8.2111,6.9559
7.8067,7.4021
7.7439,7.4660
7.2455,7.9686
0.0318,7.9686
0.0330,7.5189
0.0348,6.9025
0.0368,6.3545
0.0387,5.8770
0.0395,5.7288
9.0235,5.7288
9.0235,6.6742
9.0249,6.9468
9.0289,7.1887
9.0351,7.3878
9.0430,7.5321
9.0522,7.6096
9.0570,7.6195
9.0911,7.5852
9.1561,7.4927
9.2415,7.3575
9.3061,7.2491
9.6232,6.6306
9.8579,6.0042
10.0125,5.3619
10.0892,4.6954
10.0988,4.3917
10.1027,4.1891
10.1104,4.0212
10.1208,3.9038
10.1328,3.8529
10.1347,3.8519
10.1470,3.8123
10.1570,3.7044
10.1639,3.5445
10.1664,3.3491
10.1665,3.3439
10.1665,2.8359
10.2511,2.8359
10.2511,3.8519
19.3951,3.8519
19.3951,2.8359
19.5221,2.8359
19.5221,3.8519
28.5196,3.8519
28.5201,4.3493
28.5238,4.5708
28.5337,4.7839
28.5481,4.9614
28.5616,5.0584
28.5741,5.1040
28.5845,5.0961
28.5930,5.0295
28.5999,4.8987
28.6056,4.6987
28.6103,4.4240
28.6139,4.1065
28.6161,3.7991
28.6168,3.5184
28.6159,3.2756
28.6136,3.0824
28.6099,2.9502
28.6050,2.8904
28.6046,2.8894
28.5862,2.8806
28.5351,2.8728
28.4474,2.8659
28.3190,2.8598
28.1458,2.8546
27.9238,2.8501
27.6488,2.8463
27.3169,2.8432
26.9240,2.8407
26.4659,2.8388
25.9387,2.8374
25.3382,2.8365
24.6604,2.8360
24.0531,2.8359
28.7085,2.8359
28.7085,5.8485
28.8194,6.1731
29.0248,6.6840
29.2880,7.1971
29.5906,7.6775
29.6996,7.8280
29.8726,8.0576
29.8841,7.1765
29.8955,6.2953
29.6876,5.8885
29.4421,5.3533
29.2621,4.8287
29.1414,4.2905
29.0738,3.7144
29.0599,3.4603
29.0356,2.8359
28.7085,2.8359
24.0531,2.8359
19.5221,2.8359
19.3951,2.8359
10.2511,2.8359
10.1665,2.8359
9.5869,2.8359
9.5607,3.3825
9.4971,4.0483
9.3685,4.6841
9.1918,5.2568
9.0235,5.7288
0.0395,5.7288
0.0408,5.4722
0.0429,5.1425
0.0451,4.8900
0.0473,4.7169
0.0496,4.6254
0.0504,4.6128
0.1720,3.9497
0.3695,3.3240
0.6430,2.7358
0.9922,2.1853
1.4173,1.6725
1.5462,1.5393
2.0232,1.1105
2.5239,0.7575
3.0617,0.4723
3.6500,0.2467
3.6895,0.2341
3.7542,0.2132
3.8130,0.1936
3.8686,0.1752
3.9235,0.1580
3.9804,0.1419
4.0421,0.1269
4.1113,0.1131
4.1905,0.1003
4.2826,0.0884
4.3901,0.0776
4.5158,0.0677
4.6623,0.0586
4.8323,0.0505
5.0285,0.0431
5.2536,0.0365
5.5103,0.0307
5.8012,0.0256
6.1290,0.0211
6.4964,0.0173
6.9061,0.0141
7.3608,0.0114
7.8631,0.0093
8.4158,0.0076
9.0215,0.0064
9.6828,0.0056
10.4026,0.0051
11.1833,0.0050
Z" /> 
<g >
</g>
<g >
</g>
<g >
</g>
<g >
</g>
<g >
</g>
</g>
<g style="fill:#000000; fill-opacity:1.0000; 
stroke:#000000; stroke-width:0.0100; stroke-opacity:1; 
stroke-linecap:round; stroke-linejoin:round;">
</g>
<g style="fill:#FFFFFF; fill-opacity:1.0000; 
stroke:#FFFFFF; stroke-width:0.0100; stroke-opacity:1; 
stroke-linecap:round; stroke-linejoin:round;">
<g >
</g>
<g >
</g>
<g >
</g>
<g >
</g>
<g >
</g>
</g>
<g style="fill:#FFFFFF; fill-opacity:1.0000; 
stroke:#FFFFFF; stroke-width:0.0100; stroke-opacity:1; 
stroke-linecap:round; stroke-linejoin:round;">
<g >
</g>
<g >
</g>
<g >
</g>
<g >
</g>
<g >
</g>
</g>
<g style="fill:#FFFFFF; fill-opacity:1.0000; 
stroke:#FFFFFF; stroke-width:0.0100; stroke-opacity:1; 
stroke-linecap:round; stroke-linejoin:round;">
<g >
</g>
<g >
</g>
<g >
</g>
<g >
</g>
<g >
</g>
</g>
<g style="fill:#FFFFFF; fill-opacity:1.0000; 
stroke:#FFFFFF; stroke-width:0.0100; stroke-opacity:1; 
stroke-linecap:round; stroke-linejoin:round;">
<g >
</g>
<g >
</g>
<g >
</g>
<g >
</g>
<g >
</g>
</g>
<g style="fill:#FFFFFF; fill-opacity:1.0000; 
stroke:#FFFFFF; stroke-width:0.0100; stroke-opacity:1; 
stroke-linecap:round; stroke-linejoin:round;">
<g >
</g>
<g >
</g>
<g >
</g>
<g >
</g>
<g >
</g>
</g>
<g style="fill:#FFFFFF; fill-opacity:1.0000; 
stroke:#FFFFFF; stroke-width:0.0100; stroke-opacity:1; 
stroke-linecap:round; stroke-linejoin:round;">
<g >
</g>
<g >
</g>
<g >
</g>
<g >
</g>
<g >
</g>
</g>
<g style="fill:#FFFFFF; fill-opacity:1.0000; 
stroke:#FFFFFF; stroke-width:0.0100; stroke-opacity:1; 
stroke-linecap:round; stroke-linejoin:round;">
<g >
</g>
<g >
</g>
<g >
</g>
<g >
</g>
<g >
</g>
</g>
<g style="fill:#FFFFFF; fill-opacity:1.0000; 
stroke:#FFFFFF; stroke-width:0.0100; stroke-opacity:1; 
stroke-linecap:round; stroke-linejoin:round;">
<g >
</g>
<g >
</g>
<g >
</g>
<g >
</g>
<g >
</g>
</g>
<g style="fill:#FFFFFF; fill-opacity:1.0000; 
stroke:#FFFFFF; stroke-width:0.0100; stroke-opacity:1; 
stroke-linecap:round; stroke-linejoin:round;">
</g>
<g style="fill:#2F2D31; fill-opacity:1.0000; 
stroke:#2F2D31; stroke-width:0.0100; stroke-opacity:1; 
stroke-linecap:round; stroke-linejoin:round;">
</g>
<g style="fill:#2F2D31; fill-opacity:1.0000; 
stroke:#2F2D31; stroke-width:0.1000; stroke-opacity:1; 
stroke-linecap:round; stroke-linejoin:round;">
</g>
<g style="fill:#2F2D31; fill-opacity:0.0; 
stroke:#2F2D31; stroke-width:0.1000; stroke-opacity:1; 
stroke-linecap:round; stroke-linejoin:round;">
<path d="M27.6492 120.9411
L27.7556 120.6539
" />
<path d="M32.5440 87.0480
L36.1253 83.9427
" />
<path d="M20.1305 91.3422
L4.5015 116.7150
" />
<path d="M4.5743 116.7120
L4.9116 116.7200
" />
<path d="M10.5621 91.3424
L9.5451 91.3424
" />
<path d="M32.0364 116.8836
L32.3511 116.8004
" />
<path d="M7.1303 117.1863
L7.7063 117.4404
" />
<path d="M20.1305 90.0965
L26.6338 90.0965
" />
<path d="M28.0114 120.1000
L28.1597 119.8337
" />
<path d="M33.3312 116.6384
L33.6680 116.6141
" />
<path d="M5.2446 116.7431
L5.5731 116.7817
" />
<path d="M20.1305 91.3422
L20.1305 90.0965
" />
<path d="M4.5014 93.9782
L4.5014 116.7146
" />
<path d="M34.4314 93.9682
L29.0438 91.3422
" />
<path d="M11.2456 122.7794
L27.3350 122.7794
" />
<path d="M11.2285 122.4652
L11.2456 122.7794
" />
<path d="M4.9116 116.7200
L5.2446 116.7431
" />
<path d="M28.1597 119.8337
L28.3212 119.5752
" />
<path d="M28.3212 119.5752
L28.4953 119.3249
" />
<path d="M34.4319 116.6254
L34.4319 93.9672
" />
<path d="M9.6620 118.9104
L10.0473 119.3773
" />
<path d="M27.4811 121.5331
L27.5577 121.2344
" />
<path d="M9.5451 2.7799
L2.8809 9.3708
" />
<path d="M2.8081 84.0316
L9.5523 90.0966
" />
<path d="M11.9164 90.0965
L18.7762 90.0965
" />
<path d="M31.4256 117.0909
L31.7277 116.9806
" />
<path d="M11.9164 91.3422
L20.1305 91.3422
" />
<path d="M18.7762 90.0965
L18.7762 91.3422
" />
<path d="M10.7959 120.6842
L10.9050 120.9665
" />
<path d="M10.6724 120.4081
L10.7959 120.6842
" />
<path d="M34.4319 93.9672
L34.4314 93.9682
" />
<path d="M36.1253 83.9427
L36.1253 9.3550
" />
<path d="M2.8809 9.3708
L2.8081 9.3668
" />
<path d="M18.7762 91.3422
L11.9164 91.3422
" />
<path d="M10.3858 119.8773
L10.5357 120.1391
" />
<path d="M32.9993 116.6775
L33.3312 116.6384
" />
<path d="M29.0438 2.7799
L9.5451 2.7799
" />
<path d="M27.8769 120.3734
L28.0114 120.1000
" />
<path d="M11.0803 121.5502
L11.1453 121.8501
" />
<path d="M2.8081 9.3668
L2.8081 84.0316
" />
<path d="M10.5357 120.1391
L10.6724 120.4081
" />
<path d="M7.7063 117.4404
L8.2504 117.7424
" />
<path d="M29.0438 91.3422
L27.9882 91.3422
" />
<path d="M29.3111 118.4116
L29.7841 118.0136
" />
<path d="M27.7556 120.6539
L27.8769 120.3734
" />
<path d="M29.7841 118.0136
L30.2967 117.6592
" />
<path d="M33.6680 116.6141
L34.0097 116.6061
" />
<path d="M11.0004 121.2553
L11.0803 121.5502
" />
<path d="M36.1253 9.3550
L36.1247 9.3570
" />
<path d="M10.5621 90.0966
L10.5621 91.3424
" />
<path d="M28.4953 119.3249
L28.8801 118.8498
" />
<path d="M26.6338 90.0965
L26.6338 91.3422
" />
<path d="M27.3753 122.1472
L27.4199 121.8379
" />
<path d="M28.8801 118.8498
L29.3111 118.4116
" />
<path d="M9.5451 91.3424
L4.5742 93.9822
" />
<path d="M4.5014 116.7146
L11.9164 91.3422
" />
<path d="M11.1949 122.1554
L11.2285 122.4652
" />
<path d="M27.3466 122.4614
L27.3753 122.1472
" />
<path d="M8.7602 118.0908
L9.2315 118.4810
" />
<path d="M9.5523 90.0966
L10.5621 90.0966
" />
<path d="M10.0473 119.3773
L10.3858 119.8773
" />
<path d="M4.5015 116.7150
L4.5743 116.7120
" />
<path d="M11.9164 91.3422
L11.9164 90.0965
" />
<path d="M9.2315 118.4810
L9.6620 118.9104
" />
<path d="M34.0097 116.6061
L34.4319 116.6254
" />
<path d="M32.3511 116.8004
L32.6725 116.7315
" />
<path d="M27.9882 90.0964
L29.0284 90.0964
" />
<path d="M30.8452 117.3505
L31.4256 117.0909
" />
<path d="M31.7277 116.9806
L32.0364 116.8836
" />
<path d="M27.9882 91.3422
L27.9882 90.0964
" />
<path d="M27.4199 121.8379
L27.4811 121.5331
" />
<path d="M29.0284 90.0964
L32.5440 87.0480
" />
<path d="M11.1453 121.8501
L11.1949 122.1554
" />
<path d="M6.5256 116.9834
L7.1303 117.1863
" />
<path d="M36.1247 9.3570
L29.0438 2.7799
" />
<path d="M8.2504 117.7424
L8.7602 118.0908
" />
<path d="M26.6338 91.3422
L20.1305 91.3422
" />
<path d="M5.5731 116.7817
L5.8961 116.8346
" />
<path d="M27.5577 121.2344
L27.6492 120.9411
" />
<path d="M4.5742 93.9822
L4.5014 93.9782
" />
<path d="M5.8961 116.8346
L6.5256 116.9834
" />
<path d="M10.9050 120.9665
L11.0004 121.2553
" />
<path d="M32.6725 116.7315
L32.9993 116.6775
" />
<path d="M27.3350 122.7794
L27.3466 122.4614
" />
<path d="M30.2967 117.6592
L30.8452 117.3505
" />
<g >
</g>
<g >
</g>
<g >
</g>
<g >
</g>
<g >
</g>
</g> 
</svg>
