<?xml version="1.0" standalone="no"?>
 <!DOCTYPE svg PUBLIC "-//W3C//DTD SVG 1.1//EN" 
 "http://www.w3.org/Graphics/SVG/1.1/DTD/svg11.dtd"> 
<svg
  xmlns:svg="http://www.w3.org/2000/svg"
  xmlns="http://www.w3.org/2000/svg"
  xmlns:xlink="http://www.w3.org/1999/xlink"
  version="1.1"
  width="134.1120mm" height="91.9226mm" viewBox="0.0000 0.0000 134.1120 91.9226">
<title>SVG Image created as working-brd.svg date 2023/09/08 20:37:13 </title>
  <desc>Image generated by PCBNEW </desc>
<g style="fill:#000000; fill-opacity:1.0000;stroke:#000000; stroke-opacity:1.0000;
stroke-linecap:round; stroke-linejoin:round;"
 transform="translate(0 0) scale(1 1)">
</g>
<g style="fill:#000000; fill-opacity:0.0; 
stroke:#000000; stroke-width:0.0000; stroke-opacity:1; 
stroke-linecap:round; stroke-linejoin:round;">
</g>
<g style="fill:#000000; fill-opacity:1.0000; 
stroke:#000000; stroke-width:0.0212; stroke-opacity:1; 
stroke-linecap:round; stroke-linejoin:round;">
<rect x="-5.000000" y="-5.000000" width="144.125151" height="101.925000" rx="0.000000" />
</g>
<g style="fill:#FFFFFF; fill-opacity:1.0000; 
stroke:#FFFFFF; stroke-width:0.0212; stroke-opacity:1; 
stroke-linecap:round; stroke-linejoin:round;">
<g >
</g>
<g >
</g>
<g >
</g>
<g >
</g>
<g >
</g>
<g >
</g>
<g >
</g>
<g >
</g>
<g >
</g>
<g >
</g>
</g>
<g style="fill:#FFFFFF; fill-opacity:1.0000; 
stroke:#FFFFFF; stroke-width:0.0212; stroke-opacity:1; 
stroke-linecap:round; stroke-linejoin:round;">
<g >
</g>
<g >
</g>
<g >
</g>
<g >
</g>
<g >
</g>
<g >
</g>
<g >
</g>
<g >
</g>
<g >
</g>
<g >
</g>
</g>
<g style="fill:#FFFFFF; fill-opacity:1.0000; 
stroke:#FFFFFF; stroke-width:0.0212; stroke-opacity:1; 
stroke-linecap:round; stroke-linejoin:round;">
<g >
</g>
<g >
</g>
<g >
</g>
<g >
</g>
<g >
</g>
<g >
</g>
<g >
</g>
<g >
</g>
<g >
</g>
<g >
</g>
</g>
<g style="fill:#FFFFFF; fill-opacity:1.0000; 
stroke:#FFFFFF; stroke-width:0.0212; stroke-opacity:1; 
stroke-linecap:round; stroke-linejoin:round;">
<g >
</g>
<g >
</g>
<g >
</g>
<g >
</g>
<g >
</g>
<g >
</g>
<g >
</g>
<g >
</g>
<g >
</g>
<g >
</g>
</g>
<g style="fill:#000000; fill-opacity:1.0000; 
stroke:#000000; stroke-width:0.0212; stroke-opacity:1; 
stroke-linecap:round; stroke-linejoin:round;">
</g>
<g style="fill:#000000; fill-opacity:1.0000; 
stroke:#000000; stroke-width:0.0000; stroke-opacity:1; 
stroke-linecap:round; stroke-linejoin:round;">
<circle cx="18.8000" cy="25.8500" r="1.1500" /> 
</g>
<g style="fill:#000000; fill-opacity:1.0000; 
stroke:#000000; stroke-width:0.0212; stroke-opacity:1; 
stroke-linecap:round; stroke-linejoin:round;">
</g>
<g style="fill:#000000; fill-opacity:1.0000; 
stroke:#000000; stroke-width:0.0000; stroke-opacity:1; 
stroke-linecap:round; stroke-linejoin:round;">
<circle cx="18.8000" cy="44.6000" r="1.1500" /> 
</g>
<g style="fill:#000000; fill-opacity:1.0000; 
stroke:#000000; stroke-width:0.0212; stroke-opacity:1; 
stroke-linecap:round; stroke-linejoin:round;">
</g>
<g style="fill:#000000; fill-opacity:1.0000; 
stroke:#000000; stroke-width:0.0000; stroke-opacity:1; 
stroke-linecap:round; stroke-linejoin:round;">
<circle cx="94.8000" cy="22.1000" r="1.1500" /> 
</g>
<g style="fill:#000000; fill-opacity:1.0000; 
stroke:#000000; stroke-width:0.0212; stroke-opacity:1; 
stroke-linecap:round; stroke-linejoin:round;">
</g>
<g style="fill:#000000; fill-opacity:1.0000; 
stroke:#000000; stroke-width:0.0000; stroke-opacity:1; 
stroke-linecap:round; stroke-linejoin:round;">
<circle cx="62.0500" cy="61.8500" r="1.1500" /> 
</g>
<g style="fill:#000000; fill-opacity:1.0000; 
stroke:#000000; stroke-width:0.0212; stroke-opacity:1; 
stroke-linecap:round; stroke-linejoin:round;">
</g>
<g style="fill:#000000; fill-opacity:1.0000; 
stroke:#000000; stroke-width:0.0000; stroke-opacity:1; 
stroke-linecap:round; stroke-linejoin:round;">
<circle cx="108.5500" cy="69.6000" r="1.1500" /> 
</g>
<g style="fill:#000000; fill-opacity:1.0000; 
stroke:#000000; stroke-width:0.0212; stroke-opacity:1; 
stroke-linecap:round; stroke-linejoin:round;">
</g>
<g style="fill:#FFFFFF; fill-opacity:1.0000; 
stroke:#FFFFFF; stroke-width:0.0212; stroke-opacity:1; 
stroke-linecap:round; stroke-linejoin:round;">
<g >
</g>
<g >
</g>
<g >
</g>
<g >
</g>
<g >
</g>
<g >
</g>
<g >
</g>
<g >
</g>
<g >
</g>
<g >
</g>
</g>
<g style="fill:#FFFFFF; fill-opacity:1.0000; 
stroke:#FFFFFF; stroke-width:0.0212; stroke-opacity:1; 
stroke-linecap:round; stroke-linejoin:round;">
</g>
<g style="fill:#FD0010; fill-opacity:0.4000; 
stroke:#FD0010; stroke-width:0.0212; stroke-opacity:1; 
stroke-linecap:round; stroke-linejoin:round;">
</g>
<g style="fill:#FD0010; fill-opacity:0.4000; 
stroke:#FD0010; stroke-width:0.0100; stroke-opacity:1; 
stroke-linecap:round; stroke-linejoin:round;">
<path style="fill:#FD0010; fill-opacity:0.4000; 
stroke:#FD0010; stroke-width:0.0100; stroke-opacity:1; 
stroke-linecap:round; stroke-linejoin:round;fill-rule:evenodd;"
d="M 45.9967,42.3187
38.6307,42.3187
38.6307,41.6413
45.3193,41.6413
45.3193,35.5477
42.5888,35.5253
39.8583,35.5030
39.8321,35.1855
39.8058,34.8680
45.3193,34.8680
45.3193,29.6187
38.8000,29.6187
38.8000,28.9413
45.9967,28.9413
Z" /> 
<path style="fill:#FD0010; fill-opacity:0.4000; 
stroke:#FD0010; stroke-width:0.0100; stroke-opacity:1; 
stroke-linecap:round; stroke-linejoin:round;fill-rule:evenodd;"
d="M 50.6372,35.1150
50.6334,36.0457
50.6298,37.0040
50.6269,37.8989
50.6246,38.7171
50.6229,39.4453
50.6219,40.0704
50.6215,40.5791
50.6219,40.9582
50.6231,41.1944
50.6250,41.2745
50.6256,41.2738
50.6765,41.1899
50.7984,40.9843
50.9781,40.6795
51.2021,40.2983
51.4571,39.8633
51.4740,39.8345
51.6733,39.4970
51.9491,39.0337
52.2908,38.4616
52.6884,37.7979
53.1316,37.0597
53.6099,36.2641
54.1133,35.4282
54.6315,34.5690
55.1541,33.7038
58.0331,28.9413
58.7813,28.9413
58.7813,42.3187
58.0967,42.3187
58.1215,36.1845
58.1246,35.2814
58.1264,34.3274
58.1266,33.4376
58.1253,32.6251
58.1226,31.9030
58.1185,31.2846
58.1131,30.7829
58.1065,30.4110
58.0987,30.1823
58.0898,30.1097
58.0397,30.1856
57.9141,30.3899
57.7259,30.7018
57.4869,31.1016
57.2091,31.5692
56.9045,32.0848
56.8255,32.2187
56.5343,32.7102
56.1734,33.3175
55.7557,34.0183
55.2945,34.7908
54.8030,35.6129
54.2943,36.4624
53.7816,37.3175
53.2780,38.1560
50.7803,42.3114
50.3782,42.3150
49.9760,42.3187
49.9760,28.9413
50.6634,28.9413
Z" /> 
<path style="fill:#FD0010; fill-opacity:0.4000; 
stroke:#FD0010; stroke-width:0.0100; stroke-opacity:1; 
stroke-linecap:round; stroke-linejoin:round;fill-rule:evenodd;"
d="M 89.6361,28.7598
90.2136,28.8053
90.7083,28.8943
90.8802,28.9417
91.7240,29.2769
92.4946,29.7595
93.1778,30.3791
93.7594,31.1251
93.9284,31.3982
94.3248,32.2015
94.6150,33.0818
94.8052,34.0618
94.9021,35.1643
94.9137,35.6592
94.8551,36.8114
94.6778,37.8858
94.3872,38.8730
93.9888,39.7638
93.4883,40.5490
92.8909,41.2192
92.2024,41.7653
91.4282,42.1780
90.5737,42.4479
90.4273,42.4775
89.5880,42.5613
88.7319,42.5141
87.9063,42.3415
87.1584,42.0491
87.0776,42.0058
86.7389,41.7911
86.3681,41.5169
86.0322,41.2319
85.4426,40.6861
85.8989,40.2097
86.4153,40.6771
86.6110,40.8454
87.3299,41.3342
88.0996,41.6709
88.9040,41.8499
89.7270,41.8652
90.5030,41.7425
91.2382,41.4844
91.9059,41.0826
92.5322,40.5246
92.9815,39.9766
93.4378,39.1900
93.7865,38.2866
94.0237,37.2773
94.1453,36.1731
94.1507,36.0646
94.1423,34.9502
94.0183,33.9094
93.7843,32.9523
93.4461,32.0890
93.0092,31.3295
92.4795,30.6839
91.8626,30.1623
91.1641,29.7746
90.3899,29.5310
90.2962,29.5145
89.9441,29.4780
89.5206,29.4600
89.0977,29.4639
89.0187,29.4673
88.6160,29.4949
88.3079,29.5443
88.0301,29.6293
87.7184,29.7640
87.4119,29.9292
87.0400,30.1731
86.7378,30.4158
86.3264,30.8006
86.0853,30.5489
85.8441,30.2971
86.2588,29.9164
86.5489,29.6786
87.0935,29.3276
87.6826,29.0393
88.2453,28.8517
88.5067,28.8038
89.0443,28.7589
Z" /> 
<path style="fill:#FD0010; fill-opacity:0.4000; 
stroke:#FD0010; stroke-width:0.0100; stroke-opacity:1; 
stroke-linecap:round; stroke-linejoin:round;fill-rule:evenodd;"
d="M 69.5980,35.6512
69.6197,42.3187
68.8567,42.3187
68.8567,36.0533
65.9357,36.0585
64.0730,39.1860
62.2103,42.3135
61.8082,42.3161
61.6752,42.3140
61.4820,42.2964
61.4060,42.2664
61.4138,42.2484
61.4900,42.1095
61.6401,41.8474
61.8550,41.4777
62.1256,41.0160
62.4429,40.4777
62.7976,39.8785
63.1807,39.2338
63.3396,38.9669
63.7153,38.3341
64.0607,37.7503
64.3664,37.2316
64.6229,36.7940
64.8209,36.4536
64.9509,36.2265
65.0034,36.1287
65.0100,36.0961
64.9600,36.0278
64.7942,35.9686
64.4861,35.9070
64.0635,35.8098
63.3594,35.5249
62.7413,35.1108
62.2296,34.5826
61.8446,33.9551
61.7952,33.8473
61.7146,33.6434
61.6628,33.4406
61.6335,33.1963
61.6206,32.8678
61.6177,32.4127
61.6180,32.2630
62.3711,32.2630
62.3776,32.7983
62.4406,33.2927
62.5603,33.6870
62.5831,33.7359
62.9095,34.2606
63.3442,34.6811
63.9028,35.0093
64.6007,35.2572
64.7844,35.2976
65.1322,35.3449
65.6025,35.3832
66.2108,35.4137
66.9728,35.4374
68.8567,35.4839
68.8567,29.6187
67.0861,29.6187
66.5236,29.6231
65.6430,29.6551
64.9047,29.7227
64.2929,29.8314
63.7917,29.9867
63.3851,30.1943
63.0574,30.4595
62.7925,30.7879
62.5747,31.1850
62.5258,31.3072
62.4206,31.7462
62.3711,32.2630
61.6180,32.2630
61.6181,32.2078
61.6245,31.8083
61.6437,31.5186
61.6815,31.2963
61.7442,31.0991
61.8379,30.8848
61.8521,30.8548
62.1737,30.3095
62.5694,29.8890
63.0752,29.5545
63.1122,29.5349
63.4066,29.3871
63.6846,29.2686
63.9693,29.1763
64.2841,29.1068
64.6522,29.0569
65.0967,29.0233
65.6408,29.0029
66.3079,28.9924
67.1210,28.9884
69.5763,28.9837
69.5784,29.6187
Z" /> 
<path style="fill:#FD0010; fill-opacity:0.4000; 
stroke:#FD0010; stroke-width:0.0100; stroke-opacity:1; 
stroke-linecap:round; stroke-linejoin:round;fill-rule:evenodd;"
d="M 83.5188,36.5973
83.3428,37.7117
83.0465,38.7689
82.6363,39.7322
82.6320,39.7405
82.3622,40.2014
82.0338,40.6350
81.6037,41.0985
81.1428,41.5242
80.5594,41.9437
79.9488,42.2413
79.2707,42.4400
78.5678,42.5435
77.6483,42.5364
76.7513,42.3706
75.9020,42.0490
75.6322,41.9016
75.0345,41.4677
74.4685,40.9170
73.9684,40.2851
73.5681,39.6075
73.4476,39.3507
73.0572,38.2771
72.8082,37.1273
72.7036,35.9194
72.7187,35.4798
73.4634,35.4798
73.4942,36.3830
73.5986,37.2731
73.7710,38.0779
73.8216,38.2521
74.1633,39.1460
74.6073,39.9305
75.1440,40.5953
75.7639,41.1305
76.4577,41.5257
77.2158,41.7709
77.3406,41.7957
78.1926,41.8751
79.0048,41.7920
79.7683,41.5491
80.4743,41.1491
81.1142,40.5947
81.1496,40.5573
81.6956,39.8760
82.1278,39.1091
82.4514,38.2425
82.6718,37.2621
82.7943,36.1541
82.8119,35.7320
82.7730,34.6892
82.6203,33.6945
82.3606,32.7656
82.0009,31.9198
81.5480,31.1746
81.0088,30.5475
80.3902,30.0559
80.3173,30.0103
79.7884,29.7334
79.2481,29.5582
78.6484,29.4732
77.9413,29.4668
77.7255,29.4753
77.3624,29.4968
77.0900,29.5330
76.8545,29.5965
76.6024,29.6998
76.2801,29.8555
76.1354,29.9303
75.4338,30.4001
74.8393,30.9955
74.3507,31.7184
73.9666,32.5710
73.6860,33.5553
73.5076,34.6734
73.4634,35.4798
72.7187,35.4798
72.7464,34.6711
72.8652,33.7836
73.1232,32.7221
73.4987,31.7762
73.9943,30.9400
74.6124,30.2077
75.0336,29.8195
75.7165,29.3363
76.4425,29.0039
77.2375,28.8114
78.1277,28.7481
78.2874,28.7497
79.1949,28.8446
80.0256,29.0882
80.7899,29.4845
81.4981,30.0375
81.6926,30.2256
82.2696,30.9059
82.7344,31.6733
83.0935,32.5422
83.3534,33.5275
83.5204,34.6438
83.5680,35.4626
83.5563,35.7320
Z" /> 
<g >
</g>
<g style="fill:#FD0010; fill-opacity:0.4000; 
stroke:#FD0010; stroke-width:0.0000; stroke-opacity:1; 
stroke-linecap:round; stroke-linejoin:round;">
<circle cx="18.8000" cy="25.8500" r="2.3000" /> 
</g>
<g style="fill:#FD0010; fill-opacity:0.4000; 
stroke:#FD0010; stroke-width:0.0212; stroke-opacity:1; 
stroke-linecap:round; stroke-linejoin:round;">
</g>
<g >
</g>
<g style="fill:#FD0010; fill-opacity:0.4000; 
stroke:#FD0010; stroke-width:0.0212; stroke-opacity:1; 
stroke-linecap:round; stroke-linejoin:round;">
</g>
<g style="fill:#FD0010; fill-opacity:0.4000; 
stroke:#FD0010; stroke-width:0.0000; stroke-opacity:1; 
stroke-linecap:round; stroke-linejoin:round;">
<circle cx="18.8000" cy="44.6000" r="2.3000" /> 
</g>
<g style="fill:#FD0010; fill-opacity:0.4000; 
stroke:#FD0010; stroke-width:0.0212; stroke-opacity:1; 
stroke-linecap:round; stroke-linejoin:round;">
</g>
<g >
</g>
<g style="fill:#FD0010; fill-opacity:0.4000; 
stroke:#FD0010; stroke-width:0.0212; stroke-opacity:1; 
stroke-linecap:round; stroke-linejoin:round;">
</g>
<g style="fill:#FD0010; fill-opacity:0.4000; 
stroke:#FD0010; stroke-width:0.0000; stroke-opacity:1; 
stroke-linecap:round; stroke-linejoin:round;">
<circle cx="94.8000" cy="22.1000" r="2.3000" /> 
</g>
<g style="fill:#FD0010; fill-opacity:0.4000; 
stroke:#FD0010; stroke-width:0.0212; stroke-opacity:1; 
stroke-linecap:round; stroke-linejoin:round;">
</g>
<g >
</g>
<g style="fill:#FD0010; fill-opacity:0.4000; 
stroke:#FD0010; stroke-width:0.0212; stroke-opacity:1; 
stroke-linecap:round; stroke-linejoin:round;">
</g>
<g style="fill:#FD0010; fill-opacity:0.4000; 
stroke:#FD0010; stroke-width:0.0000; stroke-opacity:1; 
stroke-linecap:round; stroke-linejoin:round;">
<circle cx="62.0500" cy="61.8500" r="2.3000" /> 
</g>
<g style="fill:#FD0010; fill-opacity:0.4000; 
stroke:#FD0010; stroke-width:0.0212; stroke-opacity:1; 
stroke-linecap:round; stroke-linejoin:round;">
</g>
<g >
</g>
<g style="fill:#FD0010; fill-opacity:0.4000; 
stroke:#FD0010; stroke-width:0.0212; stroke-opacity:1; 
stroke-linecap:round; stroke-linejoin:round;">
</g>
<g style="fill:#FD0010; fill-opacity:0.4000; 
stroke:#FD0010; stroke-width:0.0000; stroke-opacity:1; 
stroke-linecap:round; stroke-linejoin:round;">
<circle cx="108.5500" cy="69.6000" r="2.3000" /> 
</g>
<g style="fill:#FD0010; fill-opacity:0.4000; 
stroke:#FD0010; stroke-width:0.0212; stroke-opacity:1; 
stroke-linecap:round; stroke-linejoin:round;">
</g>
<g >
</g>
<g >
</g>
<g >
</g>
<g >
</g>
<g >
</g>
</g>
<g style="fill:#FFFFFF; fill-opacity:1.0000; 
stroke:#FFFFFF; stroke-width:0.0212; stroke-opacity:1; 
stroke-linecap:round; stroke-linejoin:round;">
<g >
</g>
<g style="fill:#B2803A; fill-opacity:1.0000; 
stroke:#B2803A; stroke-width:0.0212; stroke-opacity:1; 
stroke-linecap:round; stroke-linejoin:round;">
</g>
<g style="fill:#B2803A; fill-opacity:1.0000; 
stroke:#B2803A; stroke-width:0.0000; stroke-opacity:1; 
stroke-linecap:round; stroke-linejoin:round;">
<circle cx="18.8000" cy="25.8500" r="2.1000" /> 
</g>
<g style="fill:#B2803A; fill-opacity:1.0000; 
stroke:#B2803A; stroke-width:0.0212; stroke-opacity:1; 
stroke-linecap:round; stroke-linejoin:round;">
</g>
<g >
</g>
<g style="fill:#B2803A; fill-opacity:1.0000; 
stroke:#B2803A; stroke-width:0.0212; stroke-opacity:1; 
stroke-linecap:round; stroke-linejoin:round;">
</g>
<g style="fill:#B2803A; fill-opacity:1.0000; 
stroke:#B2803A; stroke-width:0.0000; stroke-opacity:1; 
stroke-linecap:round; stroke-linejoin:round;">
<circle cx="18.8000" cy="44.6000" r="2.1000" /> 
</g>
<g style="fill:#B2803A; fill-opacity:1.0000; 
stroke:#B2803A; stroke-width:0.0212; stroke-opacity:1; 
stroke-linecap:round; stroke-linejoin:round;">
</g>
<g >
</g>
<g style="fill:#B2803A; fill-opacity:1.0000; 
stroke:#B2803A; stroke-width:0.0212; stroke-opacity:1; 
stroke-linecap:round; stroke-linejoin:round;">
</g>
<g style="fill:#B2803A; fill-opacity:1.0000; 
stroke:#B2803A; stroke-width:0.0000; stroke-opacity:1; 
stroke-linecap:round; stroke-linejoin:round;">
<circle cx="94.8000" cy="22.1000" r="2.1000" /> 
</g>
<g style="fill:#B2803A; fill-opacity:1.0000; 
stroke:#B2803A; stroke-width:0.0212; stroke-opacity:1; 
stroke-linecap:round; stroke-linejoin:round;">
</g>
<g >
</g>
<g style="fill:#B2803A; fill-opacity:1.0000; 
stroke:#B2803A; stroke-width:0.0212; stroke-opacity:1; 
stroke-linecap:round; stroke-linejoin:round;">
</g>
<g style="fill:#B2803A; fill-opacity:1.0000; 
stroke:#B2803A; stroke-width:0.0000; stroke-opacity:1; 
stroke-linecap:round; stroke-linejoin:round;">
<circle cx="62.0500" cy="61.8500" r="2.1000" /> 
</g>
<g style="fill:#B2803A; fill-opacity:1.0000; 
stroke:#B2803A; stroke-width:0.0212; stroke-opacity:1; 
stroke-linecap:round; stroke-linejoin:round;">
</g>
<g >
</g>
<g style="fill:#B2803A; fill-opacity:1.0000; 
stroke:#B2803A; stroke-width:0.0212; stroke-opacity:1; 
stroke-linecap:round; stroke-linejoin:round;">
</g>
<g style="fill:#B2803A; fill-opacity:1.0000; 
stroke:#B2803A; stroke-width:0.0000; stroke-opacity:1; 
stroke-linecap:round; stroke-linejoin:round;">
<circle cx="108.5500" cy="69.6000" r="2.1000" /> 
</g>
<g style="fill:#B2803A; fill-opacity:1.0000; 
stroke:#B2803A; stroke-width:0.0212; stroke-opacity:1; 
stroke-linecap:round; stroke-linejoin:round;">
</g>
<g >
</g>
<g >
</g>
<g >
</g>
<g >
</g>
<g >
</g>
<g style="fill:#B2803A; fill-opacity:1.0000; 
stroke:#B2803A; stroke-width:0.0212; stroke-opacity:1; 
stroke-linecap:round; stroke-linejoin:round;">
<g >
</g>
<g style="fill:#B2803A; fill-opacity:1.0000; 
stroke:#B2803A; stroke-width:0.0000; stroke-opacity:1; 
stroke-linecap:round; stroke-linejoin:round;">
<path style="fill:#B2803A; fill-opacity:1.0000; 
stroke:#B2803A; stroke-width:0.0000; stroke-opacity:1; 
stroke-linecap:round; stroke-linejoin:round;fill-rule:evenodd;"
d="M 74.7416,0.6205
74.7881,0.6742
74.7995,0.7265
74.7995,1.7841
74.7995,1.8500
74.7995,1.9375
74.8060,1.9744
74.8299,2.1099
74.8299,2.1099
74.8898,2.2744
74.8898,2.2744
74.8898,2.2744
74.9773,2.4261
75.0898,2.5602
75.2239,2.6727
75.3756,2.7602
75.5401,2.8201
75.7125,2.8505
75.7642,2.8505
93.6735,2.8505
93.7416,2.8705
93.7881,2.9242
93.7995,2.9765
93.7995,4.2841
93.7995,4.2841
93.7995,4.3500
93.7995,4.4375
93.8060,4.4744
93.8299,4.6099
93.8299,4.6099
93.8898,4.7744
93.8898,4.7744
93.8898,4.7744
93.9773,4.9261
94.0898,5.0602
94.2239,5.1727
94.3756,5.2602
94.5401,5.3201
94.7125,5.3505
94.7642,5.3505
112.6735,5.3505
112.7416,5.3705
112.7881,5.4242
112.7995,5.4765
112.7995,6.5341
112.7995,6.6000
112.7995,6.6875
112.8060,6.7244
112.8299,6.8599
112.8299,6.8599
112.8898,7.0244
112.8898,7.0244
112.8898,7.0244
112.9773,7.1761
113.0898,7.3102
113.2239,7.4227
113.3756,7.5102
113.5401,7.5701
113.7125,7.6005
113.7642,7.6005
133.4235,7.6005
133.4916,7.6205
133.5381,7.6742
133.5495,7.7265
133.5495,67.0050
133.5491,67.0124
133.5487,67.0158
133.5495,67.0784
133.5495,67.0803
133.5494,67.0838
133.5411,67.2382
133.5401,67.2466
133.5117,67.3964
133.5095,67.4046
133.4613,67.5493
133.4581,67.5571
133.3901,67.6958
133.3881,67.6995
133.3562,67.7549
133.3531,67.7625
133.3525,67.7623
133.3449,67.7807
120.1821,90.5995
120.1703,90.6165
120.0785,90.7284
120.0610,90.7459
119.9455,90.8405
119.9249,90.8542
119.7932,90.9244
119.7703,90.9339
119.6273,90.9769
119.6030,90.9817
119.4545,90.9960
119.4297,90.9959
119.2812,90.9809
119.2569,90.9760
119.1142,90.9322
119.0913,90.9226
118.9653,90.8546
118.9546,90.8478
118.9544,90.8481
118.9507,90.8455
118.9365,90.8373
118.9328,90.8350
118.8943,90.8091
118.8943,90.8091
118.8893,90.8074
118.8672,90.7973
114.6871,88.3815
104.6322,82.5706
104.5828,82.5400
104.5828,82.5400
104.5828,82.5400
104.5435,82.5281
104.5382,82.5262
104.5016,82.5115
104.4944,82.5087
104.4944,82.5087
104.4944,82.5087
104.4847,82.5077
104.4603,82.5029
104.4406,82.4970
104.3975,82.4839
104.1486,82.4261
103.8965,82.3847
103.7773,82.3730
67.1516,77.6085
67.1434,77.6069
67.1159,77.5995
67.1077,77.5984
67.1081,77.5955
67.0536,77.5795
67.0200,77.5477
61.2240,69.6000
105.9367,69.6000
105.9558,69.9150
105.9558,69.9150
106.0127,70.2254
106.1066,70.5267
106.2361,70.8144
106.2361,70.8144
106.3993,71.0845
106.3993,71.0845
106.5939,71.3329
106.5939,71.3329
106.8171,71.5561
106.8171,71.5561
107.0655,71.7507
107.0655,71.7507
107.3356,71.9139
107.3356,71.9139
107.3356,71.9139
107.6233,72.0434
107.6233,72.0434
107.6233,72.0434
107.9246,72.1373
108.2350,72.1942
108.4450,72.2069
108.5500,72.2133
108.5500,72.2133
108.5500,72.2133
108.6287,72.2085
108.8650,72.1942
109.1754,72.1373
109.4767,72.0434
109.7644,71.9139
110.0345,71.7507
110.2829,71.5561
110.5061,71.3329
110.7007,71.0845
110.8639,70.8144
110.9934,70.5267
111.0873,70.2254
111.1442,69.9150
111.1633,69.6000
111.1442,69.2850
111.0873,68.9746
110.9934,68.6733
110.8639,68.3856
110.7007,68.1155
110.6847,68.0951
110.5061,67.8671
110.5061,67.8671
110.2829,67.6439
110.2829,67.6439
110.0345,67.4493
110.0345,67.4493
109.7644,67.2861
109.7644,67.2861
109.4767,67.1566
109.1754,67.0627
108.8650,67.0058
108.8650,67.0058
108.5500,66.9867
108.5500,66.9867
108.2350,67.0058
108.2350,67.0058
107.9246,67.0627
107.6233,67.1566
107.3356,67.2861
107.3356,67.2861
107.0655,67.4493
107.0655,67.4493
106.8171,67.6439
106.8171,67.6439
106.5939,67.8671
106.5939,67.8671
106.3993,68.1155
106.3993,68.1155
106.2361,68.3856
106.2361,68.3856
106.1066,68.6733
106.0127,68.9746
105.9558,69.2850
105.9558,69.2850
105.9367,69.6000
105.9367,69.6000
61.2240,69.6000
59.8785,67.7549
56.5756,63.2258
56.5720,63.2202
56.5541,63.1891
56.5541,63.1891
56.5540,63.1891
56.5097,63.1448
56.4865,63.1210
56.4616,63.0955
56.4616,63.0955
56.4616,63.0955
56.4596,63.0939
56.4535,63.0885
56.4518,63.0869
56.3244,62.9943
56.3244,62.9943
56.3244,62.9943
56.1841,62.9228
56.1092,62.8985
56.0343,62.8741
55.9565,62.8618
55.8787,62.8495
55.8787,62.8495
0.9265,62.8495
0.8584,62.8295
0.8119,62.7758
0.8005,62.7235
0.8005,61.8500
59.4367,61.8500
59.4558,62.1650
59.4558,62.1650
59.5127,62.4754
59.6066,62.7767
59.7361,63.0644
59.7361,63.0644
59.8993,63.3345
59.8993,63.3345
60.0939,63.5829
60.0939,63.5829
60.3171,63.8061
60.3171,63.8061
60.5655,64.0007
60.5655,64.0007
60.8356,64.1639
60.8356,64.1639
60.8356,64.1639
61.1233,64.2934
61.1233,64.2934
61.1233,64.2934
61.4246,64.3873
61.7350,64.4442
61.9450,64.4569
62.0500,64.4633
62.0500,64.4633
62.0500,64.4633
62.1287,64.4585
62.3650,64.4442
62.6754,64.3873
62.9767,64.2934
63.2644,64.1639
63.5345,64.0007
63.7829,63.8061
64.0061,63.5829
64.2007,63.3345
64.3639,63.0644
64.4934,62.7767
64.5873,62.4754
64.6442,62.1650
64.6633,61.8500
64.6442,61.5350
64.5873,61.2246
64.4934,60.9233
64.3639,60.6356
64.2007,60.3655
64.2007,60.3655
64.0061,60.1171
64.0061,60.1171
63.7829,59.8939
63.7829,59.8939
63.5345,59.6993
63.5345,59.6993
63.2644,59.5361
63.2644,59.5361
62.9767,59.4066
62.6754,59.3127
62.3650,59.2558
62.3650,59.2558
62.0500,59.2367
62.0500,59.2367
61.7350,59.2558
61.7350,59.2558
61.4246,59.3127
61.1233,59.4066
60.8356,59.5361
60.8356,59.5361
60.5655,59.6993
60.5655,59.6993
60.3171,59.8939
60.3171,59.8939
60.0939,60.1171
60.0939,60.1171
59.8993,60.3655
59.8993,60.3655
59.7361,60.6356
59.7361,60.6356
59.6066,60.9233
59.5127,61.2246
59.4558,61.5350
59.4558,61.5350
59.4367,61.8500
59.4367,61.8500
0.8005,61.8500
0.8005,44.6000
16.1867,44.6000
16.2058,44.9150
16.2058,44.9150
16.2627,45.2254
16.3566,45.5267
16.4861,45.8144
16.4861,45.8144
16.6493,46.0845
16.6493,46.0845
16.8439,46.3329
16.8439,46.3329
17.0671,46.5561
17.0671,46.5561
17.3155,46.7507
17.3155,46.7507
17.5856,46.9139
17.5856,46.9139
17.5856,46.9139
17.8733,47.0434
17.8733,47.0434
17.8733,47.0434
18.1746,47.1373
18.4850,47.1942
18.6950,47.2069
18.8000,47.2133
18.8000,47.2133
18.8000,47.2133
18.8787,47.2085
19.1150,47.1942
19.4254,47.1373
19.7267,47.0434
20.0144,46.9139
20.2845,46.7507
20.5329,46.5561
20.7561,46.3329
20.9507,46.0845
21.1139,45.8144
21.2434,45.5267
21.3373,45.2254
21.3942,44.9150
21.4133,44.6000
21.3942,44.2850
21.3373,43.9746
21.2434,43.6733
21.1139,43.3856
20.9507,43.1155
20.7561,42.8671
20.7561,42.8671
20.5329,42.6439
20.5329,42.6439
20.2845,42.4493
20.2845,42.4493
20.0144,42.2861
20.0144,42.2861
19.7267,42.1566
19.4254,42.0627
19.1150,42.0058
19.1150,42.0058
18.8000,41.9867
18.8000,41.9867
18.4850,42.0058
18.4850,42.0058
18.1746,42.0627
17.8733,42.1566
17.5856,42.2861
17.5856,42.2861
17.3155,42.4493
17.3155,42.4493
17.0671,42.6439
17.0671,42.6439
16.8439,42.8671
16.8439,42.8671
16.6493,43.1155
16.6493,43.1155
16.4861,43.3856
16.4861,43.3856
16.3566,43.6733
16.2627,43.9746
16.2058,44.2850
16.2058,44.2850
16.1867,44.6000
16.1867,44.6000
0.8005,44.6000
0.8005,25.8500
16.1867,25.8500
16.2058,26.1650
16.2058,26.1650
16.2627,26.4754
16.3566,26.7767
16.4861,27.0644
16.4861,27.0644
16.6493,27.3345
16.6493,27.3345
16.8439,27.5829
16.8439,27.5829
17.0671,27.8061
17.0671,27.8061
17.3155,28.0007
17.5856,28.1639
17.5856,28.1639
17.5856,28.1639
17.8733,28.2934
17.8733,28.2934
17.8733,28.2934
18.1746,28.3873
18.4850,28.4442
18.6950,28.4569
18.8000,28.4633
18.8000,28.4633
18.8000,28.4633
18.8787,28.4585
19.1150,28.4442
19.4254,28.3873
19.7267,28.2934
20.0144,28.1639
20.2845,28.0007
20.5329,27.8061
20.7561,27.5829
20.9507,27.3345
21.1139,27.0644
21.2434,26.7767
21.3373,26.4754
21.3942,26.1650
21.4133,25.8500
21.3942,25.5350
21.3373,25.2246
21.2434,24.9233
21.2434,24.9233
21.1139,24.6356
21.1139,24.6356
21.0583,24.5434
20.9507,24.3655
20.9507,24.3655
20.7561,24.1171
20.7561,24.1171
20.5329,23.8939
20.5329,23.8939
20.2845,23.6993
20.2845,23.6993
20.0144,23.5361
20.0144,23.5361
19.7267,23.4066
19.4254,23.3127
19.1150,23.2558
19.1150,23.2558
18.8000,23.2367
18.8000,23.2367
18.4850,23.2558
18.4850,23.2558
18.1746,23.3127
17.8733,23.4066
17.5856,23.5361
17.5856,23.5361
17.3155,23.6993
17.3155,23.6993
17.0671,23.8939
17.0671,23.8939
16.8439,24.1171
16.8439,24.1171
16.6493,24.3655
16.6493,24.3655
16.4861,24.6356
16.4861,24.6356
16.3566,24.9233
16.2627,25.2246
16.2058,25.5350
16.2058,25.5350
16.1867,25.8500
16.1867,25.8500
0.8005,25.8500
0.8005,22.1000
92.1867,22.1000
92.2058,22.4150
92.2058,22.4150
92.2627,22.7254
92.3566,23.0267
92.4861,23.3144
92.4861,23.3144
92.6493,23.5845
92.6493,23.5845
92.8439,23.8329
92.8439,23.8329
93.0671,24.0561
93.0671,24.0561
93.3155,24.2507
93.3155,24.2507
93.5856,24.4139
93.5856,24.4139
93.5856,24.4139
93.8733,24.5434
93.8733,24.5434
93.8733,24.5434
94.1746,24.6373
94.4850,24.6942
94.6950,24.7069
94.8000,24.7133
94.8000,24.7133
94.8000,24.7133
94.8787,24.7085
95.1150,24.6942
95.4254,24.6373
95.7267,24.5434
96.0144,24.4139
96.2845,24.2507
96.5329,24.0561
96.7561,23.8329
96.9507,23.5845
97.1139,23.3144
97.2434,23.0267
97.3373,22.7254
97.3942,22.4150
97.4133,22.1000
97.3942,21.7850
97.3373,21.4746
97.2434,21.1733
97.1139,20.8856
96.9507,20.6155
96.9507,20.6155
96.7561,20.3671
96.7561,20.3671
96.5329,20.1439
96.5329,20.1439
96.2845,19.9493
96.2845,19.9493
96.0144,19.7861
96.0144,19.7861
95.7267,19.6566
95.4254,19.5627
95.1150,19.5058
95.1150,19.5058
94.8000,19.4867
94.8000,19.4867
94.4850,19.5058
94.4850,19.5058
94.1746,19.5627
93.8733,19.6566
93.5856,19.7861
93.5856,19.7861
93.3155,19.9493
93.3155,19.9493
93.0671,20.1439
93.0671,20.1439
92.8439,20.3671
92.8439,20.3671
92.6493,20.6155
92.6493,20.6155
92.4861,20.8856
92.4861,20.8856
92.3566,21.1733
92.2627,21.4746
92.2058,21.7850
92.2058,21.7850
92.1867,22.1000
92.1867,22.1000
0.8005,22.1000
0.8005,7.7265
0.8205,7.6584
0.8742,7.6119
0.9265,7.6005
37.8875,7.6005
37.8875,7.6005
38.0599,7.5701
38.2244,7.5102
38.3761,7.4227
38.5102,7.3102
38.6227,7.1761
38.7102,7.0244
38.7701,6.8599
38.8005,6.6875
38.8005,6.6000
38.8005,6.5341
38.8005,2.9765
38.8205,2.9084
38.8742,2.8619
38.9265,2.8505
56.8875,2.8505
56.8875,2.8505
57.0599,2.8201
57.2244,2.7602
57.3761,2.6727
57.5102,2.5602
57.6227,2.4261
57.7102,2.2744
57.7701,2.1099
57.8005,1.9375
57.8005,1.8500
57.8005,1.7841
57.8005,0.7265
57.8205,0.6584
57.8742,0.6119
57.9265,0.6005
74.6735,0.6005
Z" /> 
</g>
</g>
</g>
<g style="fill:#000000; fill-opacity:1.0000; 
stroke:#000000; stroke-width:0.0000; stroke-opacity:1; 
stroke-linecap:round; stroke-linejoin:round;">
<circle cx="18.8000" cy="25.8500" r="1.1500" /> 
</g>
<g style="fill:#000000; fill-opacity:1.0000; 
stroke:#000000; stroke-width:0.0212; stroke-opacity:1; 
stroke-linecap:round; stroke-linejoin:round;">
</g>
<g style="fill:#000000; fill-opacity:1.0000; 
stroke:#000000; stroke-width:0.0000; stroke-opacity:1; 
stroke-linecap:round; stroke-linejoin:round;">
<circle cx="18.8000" cy="44.6000" r="1.1500" /> 
</g>
<g style="fill:#000000; fill-opacity:1.0000; 
stroke:#000000; stroke-width:0.0212; stroke-opacity:1; 
stroke-linecap:round; stroke-linejoin:round;">
</g>
<g style="fill:#000000; fill-opacity:1.0000; 
stroke:#000000; stroke-width:0.0000; stroke-opacity:1; 
stroke-linecap:round; stroke-linejoin:round;">
<circle cx="94.8000" cy="22.1000" r="1.1500" /> 
</g>
<g style="fill:#000000; fill-opacity:1.0000; 
stroke:#000000; stroke-width:0.0212; stroke-opacity:1; 
stroke-linecap:round; stroke-linejoin:round;">
</g>
<g style="fill:#000000; fill-opacity:1.0000; 
stroke:#000000; stroke-width:0.0000; stroke-opacity:1; 
stroke-linecap:round; stroke-linejoin:round;">
<circle cx="62.0500" cy="61.8500" r="1.1500" /> 
</g>
<g style="fill:#000000; fill-opacity:1.0000; 
stroke:#000000; stroke-width:0.0212; stroke-opacity:1; 
stroke-linecap:round; stroke-linejoin:round;">
</g>
<g style="fill:#000000; fill-opacity:1.0000; 
stroke:#000000; stroke-width:0.0000; stroke-opacity:1; 
stroke-linecap:round; stroke-linejoin:round;">
<circle cx="108.5500" cy="69.6000" r="1.1500" /> 
</g>
<g style="fill:#000000; fill-opacity:1.0000; 
stroke:#000000; stroke-width:0.0212; stroke-opacity:1; 
stroke-linecap:round; stroke-linejoin:round;">
</g>
<g style="fill:#FFFFFF; fill-opacity:1.0000; 
stroke:#FFFFFF; stroke-width:0.0212; stroke-opacity:1; 
stroke-linecap:round; stroke-linejoin:round;">
<g >
</g>
<g style="fill:#37CBCB; fill-opacity:1.0000; 
stroke:#37CBCB; stroke-width:0.0212; stroke-opacity:1; 
stroke-linecap:round; stroke-linejoin:round;">
</g>
<g style="fill:#37CBCB; fill-opacity:1.0000; 
stroke:#37CBCB; stroke-width:0.0000; stroke-opacity:1; 
stroke-linecap:round; stroke-linejoin:round;">
<circle cx="18.8000" cy="25.8500" r="2.1000" /> 
</g>
<g style="fill:#37CBCB; fill-opacity:1.0000; 
stroke:#37CBCB; stroke-width:0.0212; stroke-opacity:1; 
stroke-linecap:round; stroke-linejoin:round;">
</g>
<g >
</g>
<g style="fill:#37CBCB; fill-opacity:1.0000; 
stroke:#37CBCB; stroke-width:0.0212; stroke-opacity:1; 
stroke-linecap:round; stroke-linejoin:round;">
</g>
<g style="fill:#37CBCB; fill-opacity:1.0000; 
stroke:#37CBCB; stroke-width:0.0000; stroke-opacity:1; 
stroke-linecap:round; stroke-linejoin:round;">
<circle cx="18.8000" cy="44.6000" r="2.1000" /> 
</g>
<g style="fill:#37CBCB; fill-opacity:1.0000; 
stroke:#37CBCB; stroke-width:0.0212; stroke-opacity:1; 
stroke-linecap:round; stroke-linejoin:round;">
</g>
<g >
</g>
<g style="fill:#37CBCB; fill-opacity:1.0000; 
stroke:#37CBCB; stroke-width:0.0212; stroke-opacity:1; 
stroke-linecap:round; stroke-linejoin:round;">
</g>
<g style="fill:#37CBCB; fill-opacity:1.0000; 
stroke:#37CBCB; stroke-width:0.0000; stroke-opacity:1; 
stroke-linecap:round; stroke-linejoin:round;">
<circle cx="94.8000" cy="22.1000" r="2.1000" /> 
</g>
<g style="fill:#37CBCB; fill-opacity:1.0000; 
stroke:#37CBCB; stroke-width:0.0212; stroke-opacity:1; 
stroke-linecap:round; stroke-linejoin:round;">
</g>
<g >
</g>
<g style="fill:#37CBCB; fill-opacity:1.0000; 
stroke:#37CBCB; stroke-width:0.0212; stroke-opacity:1; 
stroke-linecap:round; stroke-linejoin:round;">
</g>
<g style="fill:#37CBCB; fill-opacity:1.0000; 
stroke:#37CBCB; stroke-width:0.0000; stroke-opacity:1; 
stroke-linecap:round; stroke-linejoin:round;">
<circle cx="62.0500" cy="61.8500" r="2.1000" /> 
</g>
<g style="fill:#37CBCB; fill-opacity:1.0000; 
stroke:#37CBCB; stroke-width:0.0212; stroke-opacity:1; 
stroke-linecap:round; stroke-linejoin:round;">
</g>
<g >
</g>
<g style="fill:#37CBCB; fill-opacity:1.0000; 
stroke:#37CBCB; stroke-width:0.0212; stroke-opacity:1; 
stroke-linecap:round; stroke-linejoin:round;">
</g>
<g style="fill:#37CBCB; fill-opacity:1.0000; 
stroke:#37CBCB; stroke-width:0.0000; stroke-opacity:1; 
stroke-linecap:round; stroke-linejoin:round;">
<circle cx="108.5500" cy="69.6000" r="2.1000" /> 
</g>
<g style="fill:#37CBCB; fill-opacity:1.0000; 
stroke:#37CBCB; stroke-width:0.0212; stroke-opacity:1; 
stroke-linecap:round; stroke-linejoin:round;">
</g>
<g >
</g>
<g >
</g>
<g >
</g>
<g >
</g>
<g >
</g>
<g style="fill:#37CBCB; fill-opacity:1.0000; 
stroke:#37CBCB; stroke-width:0.0212; stroke-opacity:1; 
stroke-linecap:round; stroke-linejoin:round;">
<g >
</g>
<g style="fill:#37CBCB; fill-opacity:1.0000; 
stroke:#37CBCB; stroke-width:0.0000; stroke-opacity:1; 
stroke-linecap:round; stroke-linejoin:round;">
<path style="fill:#37CBCB; fill-opacity:1.0000; 
stroke:#37CBCB; stroke-width:0.0000; stroke-opacity:1; 
stroke-linecap:round; stroke-linejoin:round;fill-rule:evenodd;"
d="M 74.7416,0.6205
74.7881,0.6742
74.7995,0.7265
74.7995,1.7841
74.7995,1.8500
74.7995,1.9375
74.8060,1.9744
74.8299,2.1099
74.8299,2.1099
74.8898,2.2744
74.8898,2.2744
74.8898,2.2744
74.9773,2.4261
75.0898,2.5602
75.2239,2.6727
75.3756,2.7602
75.5401,2.8201
75.7125,2.8505
75.7642,2.8505
93.6735,2.8505
93.7416,2.8705
93.7881,2.9242
93.7995,2.9765
93.7995,4.2841
93.7995,4.2841
93.7995,4.3500
93.7995,4.4375
93.8060,4.4744
93.8299,4.6099
93.8299,4.6099
93.8898,4.7744
93.8898,4.7744
93.8898,4.7744
93.9773,4.9261
94.0898,5.0602
94.2239,5.1727
94.3756,5.2602
94.5401,5.3201
94.7125,5.3505
94.7642,5.3505
112.6735,5.3505
112.7416,5.3705
112.7881,5.4242
112.7995,5.4765
112.7995,6.5341
112.7995,6.6000
112.7995,6.6875
112.8060,6.7244
112.8299,6.8599
112.8299,6.8599
112.8898,7.0244
112.8898,7.0244
112.8898,7.0244
112.9773,7.1761
113.0898,7.3102
113.2239,7.4227
113.3756,7.5102
113.5401,7.5701
113.7125,7.6005
113.7642,7.6005
133.4235,7.6005
133.4916,7.6205
133.5381,7.6742
133.5495,7.7265
133.5495,67.0050
133.5491,67.0124
133.5487,67.0158
133.5495,67.0784
133.5495,67.0803
133.5494,67.0838
133.5411,67.2382
133.5401,67.2466
133.5117,67.3964
133.5095,67.4046
133.4613,67.5493
133.4581,67.5571
133.3901,67.6958
133.3881,67.6995
133.3562,67.7549
133.3531,67.7625
133.3525,67.7623
133.3449,67.7807
120.1821,90.5995
120.1703,90.6165
120.0785,90.7284
120.0610,90.7459
119.9455,90.8405
119.9249,90.8542
119.7932,90.9244
119.7703,90.9339
119.6273,90.9769
119.6030,90.9817
119.4545,90.9960
119.4297,90.9959
119.2812,90.9809
119.2569,90.9760
119.1142,90.9322
119.0913,90.9226
118.9653,90.8546
118.9546,90.8478
118.9544,90.8481
118.9507,90.8455
118.9365,90.8373
118.9328,90.8350
118.8943,90.8091
118.8943,90.8091
118.8893,90.8074
118.8672,90.7973
114.6871,88.3815
104.6322,82.5706
104.5828,82.5400
104.5828,82.5400
104.5828,82.5400
104.5435,82.5281
104.5382,82.5262
104.5016,82.5115
104.4944,82.5087
104.4944,82.5087
104.4944,82.5087
104.4847,82.5077
104.4603,82.5029
104.4406,82.4970
104.3975,82.4839
104.1486,82.4261
103.8965,82.3847
103.7773,82.3730
67.1516,77.6085
67.1434,77.6069
67.1159,77.5995
67.1077,77.5984
67.1081,77.5955
67.0536,77.5795
67.0200,77.5477
61.2240,69.6000
105.9367,69.6000
105.9558,69.9150
105.9558,69.9150
106.0127,70.2254
106.1066,70.5267
106.2361,70.8144
106.2361,70.8144
106.3993,71.0845
106.3993,71.0845
106.5939,71.3329
106.5939,71.3329
106.8171,71.5561
106.8171,71.5561
107.0655,71.7507
107.0655,71.7507
107.3356,71.9139
107.3356,71.9139
107.3356,71.9139
107.6233,72.0434
107.6233,72.0434
107.6233,72.0434
107.9246,72.1373
108.2350,72.1942
108.4450,72.2069
108.5500,72.2133
108.5500,72.2133
108.5500,72.2133
108.6287,72.2085
108.8650,72.1942
109.1754,72.1373
109.4767,72.0434
109.7644,71.9139
110.0345,71.7507
110.2829,71.5561
110.5061,71.3329
110.7007,71.0845
110.8639,70.8144
110.9934,70.5267
111.0873,70.2254
111.1442,69.9150
111.1633,69.6000
111.1442,69.2850
111.0873,68.9746
110.9934,68.6733
110.8639,68.3856
110.7007,68.1155
110.6847,68.0951
110.5061,67.8671
110.5061,67.8671
110.2829,67.6439
110.2829,67.6439
110.0345,67.4493
110.0345,67.4493
109.7644,67.2861
109.7644,67.2861
109.4767,67.1566
109.1754,67.0627
108.8650,67.0058
108.8650,67.0058
108.5500,66.9867
108.5500,66.9867
108.2350,67.0058
108.2350,67.0058
107.9246,67.0627
107.6233,67.1566
107.3356,67.2861
107.3356,67.2861
107.0655,67.4493
107.0655,67.4493
106.8171,67.6439
106.8171,67.6439
106.5939,67.8671
106.5939,67.8671
106.3993,68.1155
106.3993,68.1155
106.2361,68.3856
106.2361,68.3856
106.1066,68.6733
106.0127,68.9746
105.9558,69.2850
105.9558,69.2850
105.9367,69.6000
105.9367,69.6000
61.2240,69.6000
59.8785,67.7549
56.5756,63.2258
56.5720,63.2202
56.5541,63.1891
56.5541,63.1891
56.5540,63.1891
56.5097,63.1448
56.4865,63.1210
56.4616,63.0955
56.4616,63.0955
56.4616,63.0955
56.4596,63.0939
56.4535,63.0885
56.4518,63.0869
56.3244,62.9943
56.3244,62.9943
56.3244,62.9943
56.1841,62.9228
56.1092,62.8985
56.0343,62.8741
55.9565,62.8618
55.8787,62.8495
55.8787,62.8495
0.9265,62.8495
0.8584,62.8295
0.8119,62.7758
0.8005,62.7235
0.8005,61.8500
59.4367,61.8500
59.4558,62.1650
59.4558,62.1650
59.5127,62.4754
59.6066,62.7767
59.7361,63.0644
59.7361,63.0644
59.8993,63.3345
59.8993,63.3345
60.0939,63.5829
60.0939,63.5829
60.3171,63.8061
60.3171,63.8061
60.5655,64.0007
60.5655,64.0007
60.8356,64.1639
60.8356,64.1639
60.8356,64.1639
61.1233,64.2934
61.1233,64.2934
61.1233,64.2934
61.4246,64.3873
61.7350,64.4442
61.9450,64.4569
62.0500,64.4633
62.0500,64.4633
62.0500,64.4633
62.1287,64.4585
62.3650,64.4442
62.6754,64.3873
62.9767,64.2934
63.2644,64.1639
63.5345,64.0007
63.7829,63.8061
64.0061,63.5829
64.2007,63.3345
64.3639,63.0644
64.4934,62.7767
64.5873,62.4754
64.6442,62.1650
64.6633,61.8500
64.6442,61.5350
64.5873,61.2246
64.4934,60.9233
64.3639,60.6356
64.2007,60.3655
64.2007,60.3655
64.0061,60.1171
64.0061,60.1171
63.7829,59.8939
63.7829,59.8939
63.5345,59.6993
63.5345,59.6993
63.2644,59.5361
63.2644,59.5361
62.9767,59.4066
62.6754,59.3127
62.3650,59.2558
62.3650,59.2558
62.0500,59.2367
62.0500,59.2367
61.7350,59.2558
61.7350,59.2558
61.4246,59.3127
61.1233,59.4066
60.8356,59.5361
60.8356,59.5361
60.5655,59.6993
60.5655,59.6993
60.3171,59.8939
60.3171,59.8939
60.0939,60.1171
60.0939,60.1171
59.8993,60.3655
59.8993,60.3655
59.7361,60.6356
59.7361,60.6356
59.6066,60.9233
59.5127,61.2246
59.4558,61.5350
59.4558,61.5350
59.4367,61.8500
59.4367,61.8500
0.8005,61.8500
0.8005,44.6000
16.1867,44.6000
16.2058,44.9150
16.2058,44.9150
16.2627,45.2254
16.3566,45.5267
16.4861,45.8144
16.4861,45.8144
16.6493,46.0845
16.6493,46.0845
16.8439,46.3329
16.8439,46.3329
17.0671,46.5561
17.0671,46.5561
17.3155,46.7507
17.3155,46.7507
17.5856,46.9139
17.5856,46.9139
17.5856,46.9139
17.8733,47.0434
17.8733,47.0434
17.8733,47.0434
18.1746,47.1373
18.4850,47.1942
18.6950,47.2069
18.8000,47.2133
18.8000,47.2133
18.8000,47.2133
18.8787,47.2085
19.1150,47.1942
19.4254,47.1373
19.7267,47.0434
20.0144,46.9139
20.2845,46.7507
20.5329,46.5561
20.7561,46.3329
20.9507,46.0845
21.1139,45.8144
21.2434,45.5267
21.3373,45.2254
21.3942,44.9150
21.4133,44.6000
21.3942,44.2850
21.3373,43.9746
21.2434,43.6733
21.1139,43.3856
20.9507,43.1155
20.7561,42.8671
20.7561,42.8671
20.5329,42.6439
20.5329,42.6439
20.2845,42.4493
20.2845,42.4493
20.0144,42.2861
20.0144,42.2861
19.7267,42.1566
19.4254,42.0627
19.1150,42.0058
19.1150,42.0058
18.8000,41.9867
18.8000,41.9867
18.4850,42.0058
18.4850,42.0058
18.1746,42.0627
17.8733,42.1566
17.5856,42.2861
17.5856,42.2861
17.3155,42.4493
17.3155,42.4493
17.0671,42.6439
17.0671,42.6439
16.8439,42.8671
16.8439,42.8671
16.6493,43.1155
16.6493,43.1155
16.4861,43.3856
16.4861,43.3856
16.3566,43.6733
16.2627,43.9746
16.2058,44.2850
16.2058,44.2850
16.1867,44.6000
16.1867,44.6000
0.8005,44.6000
0.8005,25.8500
16.1867,25.8500
16.2058,26.1650
16.2058,26.1650
16.2627,26.4754
16.3566,26.7767
16.4861,27.0644
16.4861,27.0644
16.6493,27.3345
16.6493,27.3345
16.8439,27.5829
16.8439,27.5829
17.0671,27.8061
17.0671,27.8061
17.3155,28.0007
17.5856,28.1639
17.5856,28.1639
17.5856,28.1639
17.8733,28.2934
17.8733,28.2934
17.8733,28.2934
18.1746,28.3873
18.4850,28.4442
18.6950,28.4569
18.8000,28.4633
18.8000,28.4633
18.8000,28.4633
18.8787,28.4585
19.1150,28.4442
19.4254,28.3873
19.7267,28.2934
20.0144,28.1639
20.2845,28.0007
20.5329,27.8061
20.7561,27.5829
20.9507,27.3345
21.1139,27.0644
21.2434,26.7767
21.3373,26.4754
21.3942,26.1650
21.4133,25.8500
21.3942,25.5350
21.3373,25.2246
21.2434,24.9233
21.2434,24.9233
21.1139,24.6356
21.1139,24.6356
21.0583,24.5434
20.9507,24.3655
20.9507,24.3655
20.7561,24.1171
20.7561,24.1171
20.5329,23.8939
20.5329,23.8939
20.2845,23.6993
20.2845,23.6993
20.0144,23.5361
20.0144,23.5361
19.7267,23.4066
19.4254,23.3127
19.1150,23.2558
19.1150,23.2558
18.8000,23.2367
18.8000,23.2367
18.4850,23.2558
18.4850,23.2558
18.1746,23.3127
17.8733,23.4066
17.5856,23.5361
17.5856,23.5361
17.3155,23.6993
17.3155,23.6993
17.0671,23.8939
17.0671,23.8939
16.8439,24.1171
16.8439,24.1171
16.6493,24.3655
16.6493,24.3655
16.4861,24.6356
16.4861,24.6356
16.3566,24.9233
16.2627,25.2246
16.2058,25.5350
16.2058,25.5350
16.1867,25.8500
16.1867,25.8500
0.8005,25.8500
0.8005,22.1000
92.1867,22.1000
92.2058,22.4150
92.2058,22.4150
92.2627,22.7254
92.3566,23.0267
92.4861,23.3144
92.4861,23.3144
92.6493,23.5845
92.6493,23.5845
92.8439,23.8329
92.8439,23.8329
93.0671,24.0561
93.0671,24.0561
93.3155,24.2507
93.3155,24.2507
93.5856,24.4139
93.5856,24.4139
93.5856,24.4139
93.8733,24.5434
93.8733,24.5434
93.8733,24.5434
94.1746,24.6373
94.4850,24.6942
94.6950,24.7069
94.8000,24.7133
94.8000,24.7133
94.8000,24.7133
94.8787,24.7085
95.1150,24.6942
95.4254,24.6373
95.7267,24.5434
96.0144,24.4139
96.2845,24.2507
96.5329,24.0561
96.7561,23.8329
96.9507,23.5845
97.1139,23.3144
97.2434,23.0267
97.3373,22.7254
97.3942,22.4150
97.4133,22.1000
97.3942,21.7850
97.3373,21.4746
97.2434,21.1733
97.1139,20.8856
96.9507,20.6155
96.9507,20.6155
96.7561,20.3671
96.7561,20.3671
96.5329,20.1439
96.5329,20.1439
96.2845,19.9493
96.2845,19.9493
96.0144,19.7861
96.0144,19.7861
95.7267,19.6566
95.4254,19.5627
95.1150,19.5058
95.1150,19.5058
94.8000,19.4867
94.8000,19.4867
94.4850,19.5058
94.4850,19.5058
94.1746,19.5627
93.8733,19.6566
93.5856,19.7861
93.5856,19.7861
93.3155,19.9493
93.3155,19.9493
93.0671,20.1439
93.0671,20.1439
92.8439,20.3671
92.8439,20.3671
92.6493,20.6155
92.6493,20.6155
92.4861,20.8856
92.4861,20.8856
92.3566,21.1733
92.2627,21.4746
92.2058,21.7850
92.2058,21.7850
92.1867,22.1000
92.1867,22.1000
0.8005,22.1000
0.8005,7.7265
0.8205,7.6584
0.8742,7.6119
0.9265,7.6005
37.8875,7.6005
37.8875,7.6005
38.0599,7.5701
38.2244,7.5102
38.3761,7.4227
38.5102,7.3102
38.6227,7.1761
38.7102,7.0244
38.7701,6.8599
38.8005,6.6875
38.8005,6.6000
38.8005,6.5341
38.8005,2.9765
38.8205,2.9084
38.8742,2.8619
38.9265,2.8505
56.8875,2.8505
56.8875,2.8505
57.0599,2.8201
57.2244,2.7602
57.3761,2.6727
57.5102,2.5602
57.6227,2.4261
57.7102,2.2744
57.7701,2.1099
57.8005,1.9375
57.8005,1.8500
57.8005,1.7841
57.8005,0.7265
57.8205,0.6584
57.8742,0.6119
57.9265,0.6005
74.6735,0.6005
Z" /> 
</g>
</g>
</g>
<g style="fill:#000000; fill-opacity:1.0000; 
stroke:#000000; stroke-width:0.0000; stroke-opacity:1; 
stroke-linecap:round; stroke-linejoin:round;">
<circle cx="18.8000" cy="25.8500" r="1.1500" /> 
</g>
<g style="fill:#000000; fill-opacity:1.0000; 
stroke:#000000; stroke-width:0.0212; stroke-opacity:1; 
stroke-linecap:round; stroke-linejoin:round;">
</g>
<g style="fill:#000000; fill-opacity:1.0000; 
stroke:#000000; stroke-width:0.0000; stroke-opacity:1; 
stroke-linecap:round; stroke-linejoin:round;">
<circle cx="18.8000" cy="44.6000" r="1.1500" /> 
</g>
<g style="fill:#000000; fill-opacity:1.0000; 
stroke:#000000; stroke-width:0.0212; stroke-opacity:1; 
stroke-linecap:round; stroke-linejoin:round;">
</g>
<g style="fill:#000000; fill-opacity:1.0000; 
stroke:#000000; stroke-width:0.0000; stroke-opacity:1; 
stroke-linecap:round; stroke-linejoin:round;">
<circle cx="94.8000" cy="22.1000" r="1.1500" /> 
</g>
<g style="fill:#000000; fill-opacity:1.0000; 
stroke:#000000; stroke-width:0.0212; stroke-opacity:1; 
stroke-linecap:round; stroke-linejoin:round;">
</g>
<g style="fill:#000000; fill-opacity:1.0000; 
stroke:#000000; stroke-width:0.0000; stroke-opacity:1; 
stroke-linecap:round; stroke-linejoin:round;">
<circle cx="62.0500" cy="61.8500" r="1.1500" /> 
</g>
<g style="fill:#000000; fill-opacity:1.0000; 
stroke:#000000; stroke-width:0.0212; stroke-opacity:1; 
stroke-linecap:round; stroke-linejoin:round;">
</g>
<g style="fill:#000000; fill-opacity:1.0000; 
stroke:#000000; stroke-width:0.0000; stroke-opacity:1; 
stroke-linecap:round; stroke-linejoin:round;">
<circle cx="108.5500" cy="69.6000" r="1.1500" /> 
</g>
<g style="fill:#000000; fill-opacity:1.0000; 
stroke:#000000; stroke-width:0.0212; stroke-opacity:1; 
stroke-linecap:round; stroke-linejoin:round;">
</g>
<g style="fill:#FFFFFF; fill-opacity:1.0000; 
stroke:#FFFFFF; stroke-width:0.0212; stroke-opacity:1; 
stroke-linecap:round; stroke-linejoin:round;">
</g>
<g style="fill:#279B00; fill-opacity:0.4000; 
stroke:#279B00; stroke-width:0.0212; stroke-opacity:1; 
stroke-linecap:round; stroke-linejoin:round;">
</g>
<g style="fill:#279B00; fill-opacity:0.4000; 
stroke:#279B00; stroke-width:0.0100; stroke-opacity:1; 
stroke-linecap:round; stroke-linejoin:round;">
<path style="fill:#279B00; fill-opacity:0.4000; 
stroke:#279B00; stroke-width:0.0100; stroke-opacity:1; 
stroke-linecap:round; stroke-linejoin:round;fill-rule:evenodd;"
d="M 94.7600,29.6187
88.2407,29.6187
88.2407,34.8680
93.7542,34.8680
93.7279,35.1855
93.7017,35.5030
90.9712,35.5253
88.2407,35.5477
88.2407,41.6413
94.9293,41.6413
94.9293,42.3187
87.5633,42.3187
87.5633,28.9413
94.7600,28.9413
Z" /> 
<path style="fill:#279B00; fill-opacity:0.4000; 
stroke:#279B00; stroke-width:0.0100; stroke-opacity:1; 
stroke-linecap:round; stroke-linejoin:round;fill-rule:evenodd;"
d="M 78.4059,33.7038
78.9285,34.5690
79.4467,35.4282
79.9501,36.2641
80.4284,37.0597
80.8716,37.7979
81.2692,38.4616
81.6109,39.0337
81.8867,39.4970
82.0860,39.8345
82.1029,39.8633
82.3579,40.2983
82.5819,40.6795
82.7616,40.9843
82.8835,41.1899
82.9344,41.2738
82.9350,41.2745
82.9369,41.1944
82.9381,40.9582
82.9385,40.5791
82.9381,40.0704
82.9371,39.4453
82.9354,38.7171
82.9331,37.8989
82.9302,37.0040
82.9266,36.0457
82.9228,35.1150
82.8966,28.9413
83.5840,28.9413
83.5840,42.3187
83.1818,42.3150
82.7797,42.3114
80.2820,38.1560
79.7784,37.3175
79.2657,36.4624
78.7570,35.6129
78.2655,34.7908
77.8043,34.0183
77.3866,33.3175
77.0257,32.7102
76.7345,32.2187
76.6555,32.0848
76.3509,31.5692
76.0731,31.1016
75.8341,30.7018
75.6459,30.3899
75.5203,30.1856
75.4702,30.1097
75.4613,30.1823
75.4535,30.4110
75.4469,30.7829
75.4415,31.2846
75.4374,31.9030
75.4347,32.6251
75.4334,33.4376
75.4336,34.3274
75.4354,35.2814
75.4385,36.1845
75.4633,42.3187
74.7787,42.3187
74.7787,28.9413
75.5269,28.9413
Z" /> 
<path style="fill:#279B00; fill-opacity:0.4000; 
stroke:#279B00; stroke-width:0.0100; stroke-opacity:1; 
stroke-linecap:round; stroke-linejoin:round;fill-rule:evenodd;"
d="M 45.0533,28.8038
45.3147,28.8517
45.8774,29.0393
46.4665,29.3276
47.0111,29.6786
47.3012,29.9164
47.7159,30.2971
47.4747,30.5489
47.2336,30.8006
46.8222,30.4158
46.5200,30.1731
46.1481,29.9292
45.8416,29.7640
45.5299,29.6293
45.2521,29.5443
44.9440,29.4949
44.5413,29.4673
44.4624,29.4639
44.0394,29.4600
43.6159,29.4780
43.2638,29.5145
43.1701,29.5310
42.3959,29.7746
41.6974,30.1623
41.0805,30.6839
40.5508,31.3295
40.1139,32.0890
39.7757,32.9523
39.5417,33.9094
39.4177,34.9502
39.4093,36.0646
39.4147,36.1731
39.5363,37.2773
39.7735,38.2866
40.1222,39.1900
40.5785,39.9766
41.0278,40.5246
41.6541,41.0826
42.3218,41.4844
43.0570,41.7425
43.8330,41.8652
44.6560,41.8499
45.4604,41.6709
46.2301,41.3342
46.9490,40.8454
47.1447,40.6771
47.6611,40.2097
48.1174,40.6861
47.5278,41.2319
47.1919,41.5169
46.8211,41.7911
46.4824,42.0058
46.4016,42.0491
45.6537,42.3415
44.8281,42.5141
43.9720,42.5613
43.1327,42.4775
42.9863,42.4479
42.1318,42.1780
41.3576,41.7653
40.6691,41.2192
40.0717,40.5490
39.5712,39.7638
39.1728,38.8730
38.8822,37.8858
38.7049,36.8114
38.6463,35.6592
38.6579,35.1643
38.7548,34.0618
38.9450,33.0818
39.2352,32.2015
39.6316,31.3982
39.8006,31.1251
40.3822,30.3791
41.0654,29.7595
41.8360,29.2769
42.6798,28.9417
42.8517,28.8943
43.3464,28.8053
43.9239,28.7598
44.5157,28.7589
Z" /> 
<path style="fill:#279B00; fill-opacity:0.4000; 
stroke:#279B00; stroke-width:0.0100; stroke-opacity:1; 
stroke-linecap:round; stroke-linejoin:round;fill-rule:evenodd;"
d="M 66.4390,28.9884
67.2521,28.9924
67.9192,29.0029
68.4633,29.0233
68.9078,29.0569
69.2759,29.1068
69.5907,29.1763
69.8754,29.2686
70.1534,29.3871
70.4478,29.5349
70.4848,29.5545
70.9906,29.8890
71.3863,30.3095
71.7079,30.8548
71.7221,30.8848
71.8158,31.0991
71.8785,31.2963
71.9163,31.5186
71.9355,31.8083
71.9419,32.2078
71.9423,32.4127
71.9394,32.8678
71.9265,33.1963
71.8972,33.4406
71.8454,33.6434
71.7648,33.8473
71.7154,33.9551
71.3303,34.5826
70.8187,35.1108
70.2006,35.5249
69.4965,35.8098
69.0739,35.9070
68.7658,35.9686
68.6000,36.0278
68.5500,36.0961
68.5566,36.1287
68.6091,36.2265
68.7391,36.4536
68.9371,36.7940
69.1936,37.2316
69.4993,37.7503
69.8447,38.3341
70.2204,38.9669
70.3793,39.2338
70.7624,39.8785
71.1171,40.4777
71.4344,41.0160
71.7050,41.4777
71.9199,41.8474
72.0700,42.1095
72.1462,42.2484
72.1540,42.2664
72.0780,42.2964
71.8848,42.3140
71.7518,42.3161
71.3497,42.3135
69.4870,39.1860
67.6243,36.0585
64.7033,36.0533
64.7033,42.3187
63.9403,42.3187
63.9620,35.6512
63.9816,29.6187
64.7033,29.6187
64.7033,35.4839
66.5872,35.4374
67.3492,35.4137
67.9575,35.3832
68.4278,35.3449
68.7756,35.2976
68.9593,35.2572
69.6572,35.0093
70.2158,34.6811
70.6505,34.2606
70.9769,33.7359
70.9997,33.6870
71.1194,33.2927
71.1824,32.7983
71.1889,32.2630
71.1394,31.7462
71.0342,31.3072
70.9853,31.1850
70.7674,30.7879
70.5026,30.4595
70.1748,30.1943
69.7683,29.9867
69.2671,29.8314
68.6553,29.7227
67.9170,29.6551
67.0364,29.6231
66.4739,29.6187
64.7033,29.6187
63.9816,29.6187
63.9837,28.9837
Z" /> 
<path style="fill:#279B00; fill-opacity:0.4000; 
stroke:#279B00; stroke-width:0.0100; stroke-opacity:1; 
stroke-linecap:round; stroke-linejoin:round;fill-rule:evenodd;"
d="M 56.3225,28.8114
57.1175,29.0039
57.8435,29.3363
58.5264,29.8195
58.9476,30.2077
59.5657,30.9400
60.0613,31.7762
60.4368,32.7221
60.6948,33.7836
60.8136,34.6711
60.8564,35.9194
60.7518,37.1273
60.5028,38.2771
60.1124,39.3507
59.9919,39.6075
59.5916,40.2851
59.0915,40.9170
58.5255,41.4677
57.9278,41.9016
57.6580,42.0490
56.8087,42.3706
55.9117,42.5364
54.9922,42.5435
54.2893,42.4400
53.6112,42.2413
53.0006,41.9437
52.4172,41.5242
51.9563,41.0985
51.5262,40.6350
51.1978,40.2014
50.9280,39.7405
50.9237,39.7322
50.5135,38.7689
50.2172,37.7117
50.0412,36.5973
50.0037,35.7320
50.7481,35.7320
50.7657,36.1541
50.8882,37.2621
51.1086,38.2425
51.4322,39.1091
51.8644,39.8760
52.4104,40.5573
52.4458,40.5947
53.0857,41.1491
53.7917,41.5491
54.5552,41.7920
55.3674,41.8751
56.2194,41.7957
56.3442,41.7709
57.1023,41.5257
57.7961,41.1305
58.4160,40.5953
58.9527,39.9305
59.3967,39.1460
59.7384,38.2521
59.7890,38.0779
59.9614,37.2731
60.0658,36.3830
60.0966,35.4798
60.0524,34.6734
59.8740,33.5553
59.5934,32.5710
59.2093,31.7184
58.7207,30.9955
58.1262,30.4001
57.4246,29.9303
57.2799,29.8555
56.9576,29.6998
56.7055,29.5965
56.4700,29.5330
56.1976,29.4968
55.8345,29.4753
55.6187,29.4668
54.9116,29.4732
54.3119,29.5582
53.7716,29.7334
53.2427,30.0103
53.1698,30.0559
52.5512,30.5475
52.0120,31.1746
51.5591,31.9198
51.1994,32.7656
50.9397,33.6945
50.7870,34.6892
50.7481,35.7320
50.0037,35.7320
49.9920,35.4626
50.0396,34.6438
50.2066,33.5275
50.4665,32.5422
50.8256,31.6733
51.2904,30.9059
51.8674,30.2256
52.0619,30.0375
52.7701,29.4845
53.5344,29.0882
54.3651,28.8446
55.2726,28.7497
55.4323,28.7481
Z" /> 
<g >
</g>
<g style="fill:#279B00; fill-opacity:0.4000; 
stroke:#279B00; stroke-width:0.0000; stroke-opacity:1; 
stroke-linecap:round; stroke-linejoin:round;">
<circle cx="18.8000" cy="25.8500" r="2.3000" /> 
</g>
<g style="fill:#279B00; fill-opacity:0.4000; 
stroke:#279B00; stroke-width:0.0212; stroke-opacity:1; 
stroke-linecap:round; stroke-linejoin:round;">
</g>
<g >
</g>
<g style="fill:#279B00; fill-opacity:0.4000; 
stroke:#279B00; stroke-width:0.0212; stroke-opacity:1; 
stroke-linecap:round; stroke-linejoin:round;">
</g>
<g style="fill:#279B00; fill-opacity:0.4000; 
stroke:#279B00; stroke-width:0.0000; stroke-opacity:1; 
stroke-linecap:round; stroke-linejoin:round;">
<circle cx="18.8000" cy="44.6000" r="2.3000" /> 
</g>
<g style="fill:#279B00; fill-opacity:0.4000; 
stroke:#279B00; stroke-width:0.0212; stroke-opacity:1; 
stroke-linecap:round; stroke-linejoin:round;">
</g>
<g >
</g>
<g style="fill:#279B00; fill-opacity:0.4000; 
stroke:#279B00; stroke-width:0.0212; stroke-opacity:1; 
stroke-linecap:round; stroke-linejoin:round;">
</g>
<g style="fill:#279B00; fill-opacity:0.4000; 
stroke:#279B00; stroke-width:0.0000; stroke-opacity:1; 
stroke-linecap:round; stroke-linejoin:round;">
<circle cx="94.8000" cy="22.1000" r="2.3000" /> 
</g>
<g style="fill:#279B00; fill-opacity:0.4000; 
stroke:#279B00; stroke-width:0.0212; stroke-opacity:1; 
stroke-linecap:round; stroke-linejoin:round;">
</g>
<g >
</g>
<g style="fill:#279B00; fill-opacity:0.4000; 
stroke:#279B00; stroke-width:0.0212; stroke-opacity:1; 
stroke-linecap:round; stroke-linejoin:round;">
</g>
<g style="fill:#279B00; fill-opacity:0.4000; 
stroke:#279B00; stroke-width:0.0000; stroke-opacity:1; 
stroke-linecap:round; stroke-linejoin:round;">
<circle cx="62.0500" cy="61.8500" r="2.3000" /> 
</g>
<g style="fill:#279B00; fill-opacity:0.4000; 
stroke:#279B00; stroke-width:0.0212; stroke-opacity:1; 
stroke-linecap:round; stroke-linejoin:round;">
</g>
<g >
</g>
<g style="fill:#279B00; fill-opacity:0.4000; 
stroke:#279B00; stroke-width:0.0212; stroke-opacity:1; 
stroke-linecap:round; stroke-linejoin:round;">
</g>
<g style="fill:#279B00; fill-opacity:0.4000; 
stroke:#279B00; stroke-width:0.0000; stroke-opacity:1; 
stroke-linecap:round; stroke-linejoin:round;">
<circle cx="108.5500" cy="69.6000" r="2.3000" /> 
</g>
<g style="fill:#279B00; fill-opacity:0.4000; 
stroke:#279B00; stroke-width:0.0212; stroke-opacity:1; 
stroke-linecap:round; stroke-linejoin:round;">
</g>
<g >
</g>
<g >
</g>
<g >
</g>
<g >
</g>
<g >
</g>
</g>
<g style="fill:#FFFFFF; fill-opacity:1.0000; 
stroke:#FFFFFF; stroke-width:0.0212; stroke-opacity:1; 
stroke-linecap:round; stroke-linejoin:round;">
<g >
</g>
<g >
</g>
<g >
</g>
<g >
</g>
<g >
</g>
<g >
</g>
<g >
</g>
<g >
</g>
<g >
</g>
<g >
</g>
</g>
<g style="fill:#FFFFFF; fill-opacity:1.0000; 
stroke:#FFFFFF; stroke-width:0.0212; stroke-opacity:1; 
stroke-linecap:round; stroke-linejoin:round;">
<g >
</g>
<g >
</g>
<g >
</g>
<g >
</g>
<g >
</g>
<g >
</g>
<g >
</g>
<g >
</g>
<g >
</g>
<g >
</g>
</g>
<g style="fill:#000000; fill-opacity:1.0000; 
stroke:#000000; stroke-width:0.0212; stroke-opacity:1; 
stroke-linecap:round; stroke-linejoin:round;">
</g>
<g style="fill:#000000; fill-opacity:1.0000; 
stroke:#000000; stroke-width:0.0000; stroke-opacity:1; 
stroke-linecap:round; stroke-linejoin:round;">
<circle cx="18.8000" cy="25.8500" r="1.1500" /> 
</g>
<g style="fill:#000000; fill-opacity:1.0000; 
stroke:#000000; stroke-width:0.0212; stroke-opacity:1; 
stroke-linecap:round; stroke-linejoin:round;">
</g>
<g style="fill:#000000; fill-opacity:1.0000; 
stroke:#000000; stroke-width:0.0000; stroke-opacity:1; 
stroke-linecap:round; stroke-linejoin:round;">
<circle cx="18.8000" cy="44.6000" r="1.1500" /> 
</g>
<g style="fill:#000000; fill-opacity:1.0000; 
stroke:#000000; stroke-width:0.0212; stroke-opacity:1; 
stroke-linecap:round; stroke-linejoin:round;">
</g>
<g style="fill:#000000; fill-opacity:1.0000; 
stroke:#000000; stroke-width:0.0000; stroke-opacity:1; 
stroke-linecap:round; stroke-linejoin:round;">
<circle cx="94.8000" cy="22.1000" r="1.1500" /> 
</g>
<g style="fill:#000000; fill-opacity:1.0000; 
stroke:#000000; stroke-width:0.0212; stroke-opacity:1; 
stroke-linecap:round; stroke-linejoin:round;">
</g>
<g style="fill:#000000; fill-opacity:1.0000; 
stroke:#000000; stroke-width:0.0000; stroke-opacity:1; 
stroke-linecap:round; stroke-linejoin:round;">
<circle cx="62.0500" cy="61.8500" r="1.1500" /> 
</g>
<g style="fill:#000000; fill-opacity:1.0000; 
stroke:#000000; stroke-width:0.0212; stroke-opacity:1; 
stroke-linecap:round; stroke-linejoin:round;">
</g>
<g style="fill:#000000; fill-opacity:1.0000; 
stroke:#000000; stroke-width:0.0000; stroke-opacity:1; 
stroke-linecap:round; stroke-linejoin:round;">
<circle cx="108.5500" cy="69.6000" r="1.1500" /> 
</g>
<g style="fill:#000000; fill-opacity:1.0000; 
stroke:#000000; stroke-width:0.0212; stroke-opacity:1; 
stroke-linecap:round; stroke-linejoin:round;">
</g>
<g style="fill:#FFFFFF; fill-opacity:1.0000; 
stroke:#FFFFFF; stroke-width:0.0212; stroke-opacity:1; 
stroke-linecap:round; stroke-linejoin:round;">
<g >
</g>
<g >
</g>
<g >
</g>
<g >
</g>
<g >
</g>
<g >
</g>
<g >
</g>
<g >
</g>
<g >
</g>
<g >
</g>
</g>
<g style="fill:#FFFFFF; fill-opacity:1.0000; 
stroke:#FFFFFF; stroke-width:0.0212; stroke-opacity:1; 
stroke-linecap:round; stroke-linejoin:round;">
<g >
</g>
<g >
</g>
<g >
</g>
<g >
</g>
<g >
</g>
<g >
</g>
<g >
</g>
<g >
</g>
<g >
</g>
<g >
</g>
</g>
<g style="fill:#FFFFFF; fill-opacity:1.0000; 
stroke:#FFFFFF; stroke-width:0.0212; stroke-opacity:1; 
stroke-linecap:round; stroke-linejoin:round;">
</g>
<g style="fill:#505050; fill-opacity:1.0000; 
stroke:#505050; stroke-width:0.0212; stroke-opacity:1; 
stroke-linecap:round; stroke-linejoin:round;">
</g>
<g style="fill:#505050; fill-opacity:1.0000; 
stroke:#505050; stroke-width:0.1000; stroke-opacity:1; 
stroke-linecap:round; stroke-linejoin:round;">
</g>
<g style="fill:#505050; fill-opacity:0.0; 
stroke:#505050; stroke-width:0.1000; stroke-opacity:1; 
stroke-linecap:round; stroke-linejoin:round;">
<path d="M16.3500 25.8500
L21.2500 25.8500
" />
<path d="M18.8000 23.4000
L18.8000 28.3001
" />
<path d="M16.3500 44.6000
L21.2500 44.6000
" />
<path d="M18.8000 42.1500
L18.8000 47.0501
" />
<path d="M59.6000 61.8500
L64.5000 61.8500
" />
<path d="M62.0500 59.4000
L62.0500 64.3001
" />
<path d="M106.1000 69.6000
L111.0000 69.6000
" />
<path d="M108.5500 67.1500
L108.5500 72.0501
" />
<path d="M94.8000 19.6500
L94.8000 24.5501
" />
<path d="M92.3500 22.1000
L97.2500 22.1000
" />
<g >
</g>
<g >
</g>
<g >
</g>
<g >
</g>
<g >
</g>
<g >
</g>
<g >
</g>
<g >
</g>
<g >
</g>
<g >
</g>
</g>
<g style="fill:#FFFFFF; fill-opacity:0.0; 
stroke:#FFFFFF; stroke-width:0.1000; stroke-opacity:1; 
stroke-linecap:round; stroke-linejoin:round;">
<g >
</g>
<g >
</g>
<g >
</g>
<g >
</g>
<g >
</g>
<g >
</g>
<g >
</g>
<g >
</g>
<g >
</g>
<g >
</g>
</g>
<g style="fill:#FFFFFF; fill-opacity:0.0; 
stroke:#FFFFFF; stroke-width:0.1000; stroke-opacity:1; 
stroke-linecap:round; stroke-linejoin:round;">
<g >
</g>
<g >
</g>
<g >
</g>
<g >
</g>
<g >
</g>
<g >
</g>
<g >
</g>
<g >
</g>
<g >
</g>
<g >
</g>
</g>
<g style="fill:#FFFFFF; fill-opacity:0.0; 
stroke:#FFFFFF; stroke-width:0.1000; stroke-opacity:1; 
stroke-linecap:round; stroke-linejoin:round;">
<g >
</g>
<g >
</g>
<g >
</g>
<g >
</g>
<g >
</g>
<g >
</g>
<g >
</g>
<g >
</g>
<g >
</g>
<g >
</g>
</g>
<g style="fill:#FFFFFF; fill-opacity:0.0; 
stroke:#FFFFFF; stroke-width:0.1000; stroke-opacity:1; 
stroke-linecap:round; stroke-linejoin:round;">
</g>
<g style="fill:#2737AD; fill-opacity:0.0; 
stroke:#2737AD; stroke-width:0.1000; stroke-opacity:1; 
stroke-linecap:round; stroke-linejoin:round;">
</g>
<g style="fill:#2737AD; fill-opacity:0.0; 
stroke:#2737AD; stroke-width:2.5000; stroke-opacity:1; 
stroke-linecap:round; stroke-linejoin:round;">
<path d="M18.8000 44.6000
L18.8100 44.6000
" />
<path d="M94.8100 22.1000
L94.8000 22.1000
" />
<path d="M62.0600 61.8500
L62.0500 61.8500
" />
<path d="M108.5600 69.6000
L108.5500 69.6000
" />
<path d="M18.8000 25.8500
L18.8100 25.8500
" />
<g >
</g>
<g >
</g>
<g >
</g>
<g >
</g>
<g >
</g>
<g >
</g>
<g >
</g>
<g >
</g>
<g >
</g>
<g >
</g>
</g>
<g style="fill:#FFFFFF; fill-opacity:0.0; 
stroke:#FFFFFF; stroke-width:2.5000; stroke-opacity:1; 
stroke-linecap:round; stroke-linejoin:round;">
<g >
</g>
<g >
</g>
<g >
</g>
<g >
</g>
<g >
</g>
<g >
</g>
<g >
</g>
<g >
</g>
<g >
</g>
<g >
</g>
</g>
<g style="fill:#FFFFFF; fill-opacity:0.0; 
stroke:#FFFFFF; stroke-width:2.5000; stroke-opacity:1; 
stroke-linecap:round; stroke-linejoin:round;">
</g>
<g style="fill:#2F2D31; fill-opacity:0.0; 
stroke:#2F2D31; stroke-width:2.5000; stroke-opacity:1; 
stroke-linecap:round; stroke-linejoin:round;">
</g>
<g style="fill:#2F2D31; fill-opacity:0.0; 
stroke:#2F2D31; stroke-width:0.1500; stroke-opacity:1; 
stroke-linecap:round; stroke-linejoin:round;">
<path d="M0.3000 62.8500 A0.5000 0.5000 0.0 0 0 0.8000 63.3500" />
<path d="M0.3000 7.6000
L0.3000 62.8500
" />
<path d="M74.8000 0.1000
L57.8000 0.1000
" />
<path d="M57.8000 0.1000 A0.5000 0.5000 0.0 0 0 57.3000 0.6000" />
<path d="M56.8000 2.3500
L38.8000 2.3500
" />
<path d="M94.3000 4.3500 A0.5000 0.5000 0.0 0 0 94.8000 4.8500" />
<path d="M113.3000 5.3500 A0.5000 0.5000 0.0 0 0 112.8000 4.8500" />
<path d="M67.0500 78.1000
L103.7206 82.8703
" />
<path d="M38.8000 2.3500 A0.5000 0.5000 0.0 0 0 38.3000 2.8500" />
<path d="M56.1536 63.4964 A0.5000 0.5000 0.0 0 0 55.8000 63.3500" />
<path d="M37.8000 7.1000 A0.5000 0.5000 0.0 0 0 38.3000 6.6000" />
<path d="M38.3000 2.8500
L38.3000 6.6000
" />
<path d="M0.8000 7.1000 A0.5000 0.5000 0.0 0 0 0.3000 7.6000" />
<path d="M75.3000 1.8500
L75.3000 0.6000
" />
<path d="M93.8000 2.3500
L75.8000 2.3500
" />
<path d="M75.3000 0.6000 A0.5000 0.5000 0.0 0 0 74.8000 0.1000" />
<path d="M37.8000 7.1000
L0.8000 7.1000
" />
<path d="M104.3750 83.0000
L118.6693 91.2610
" />
<path d="M55.8000 63.3500
L0.8000 63.3500
" />
<path d="M57.3000 0.6000
L57.3000 1.8500
" />
<path d="M104.3750 83.0000 A3.4143 3.4143 0.0 0 0 103.7206 82.8703" />
<path d="M134.0500 7.6000 A0.5000 0.5000 0.0 0 0 133.5500 7.1000" />
<path d="M133.8228 67.9477 A1.7025 1.7025 0.0 0 0 134.0500 67.0750" />
<path d="M75.3000 1.8500 A0.5000 0.5000 0.0 0 0 75.8000 2.3500" />
<path d="M134.0500 7.6000
L134.0500 67.0750
" />
<path d="M113.3000 6.6000 A0.5000 0.5000 0.0 0 0 113.8000 7.1000" />
<path d="M113.3000 5.3500
L113.3000 6.6000
" />
<path d="M56.8000 2.3500 A0.5000 0.5000 0.0 0 0 57.3000 1.8500" />
<path d="M94.3000 4.3500
L94.3000 2.8500
" />
<path d="M56.1536 63.4964
L66.6964 77.9536
" />
<path d="M120.5973 90.8815
L133.8250 67.9500
" />
<path d="M133.5500 7.1000
L113.8000 7.1000
" />
<path d="M66.6964 77.9536 A0.5000 0.5000 0.0 0 0 67.0500 78.1000" />
<path d="M112.8000 4.8500
L94.8000 4.8500
" />
<path d="M94.3000 2.8500 A0.5000 0.5000 0.0 0 0 93.8000 2.3500" />
<path d="M118.6693 91.2609 A1.3867 1.3867 0.0 0 0 120.5973 90.8815" />
<g >
</g>
<g >
</g>
<g >
</g>
<g >
</g>
<g >
</g>
<g >
</g>
<g >
</g>
<g >
</g>
<g >
</g>
<g >
</g>
</g> 
</svg>
