<?xml version="1.0" standalone="no"?>
 <!DOCTYPE svg PUBLIC "-//W3C//DTD SVG 1.1//EN" 
 "http://www.w3.org/Graphics/SVG/1.1/DTD/svg11.dtd"> 
<svg
  xmlns:svg="http://www.w3.org/2000/svg"
  xmlns="http://www.w3.org/2000/svg"
  xmlns:xlink="http://www.w3.org/1999/xlink"
  version="1.1"
  width="53.4924mm" height="49.4284mm" viewBox="0.0000 0.0000 53.4924 49.4284">
<title>SVG Image created as _autosave-working-brd.svg date 2023/09/27 13:23:28 </title>
  <desc>Image generated by PCBNEW </desc>
<g style="fill:#000000; fill-opacity:1.0000;stroke:#000000; stroke-opacity:1.0000;
stroke-linecap:round; stroke-linejoin:round;"
 transform="translate(0 0) scale(1 1)">
</g>
<g style="fill:#000000; fill-opacity:0.0; 
stroke:#000000; stroke-width:0.0000; stroke-opacity:1; 
stroke-linecap:round; stroke-linejoin:round;">
</g>
<g style="fill:#000000; fill-opacity:1.0000; 
stroke:#000000; stroke-width:0.0212; stroke-opacity:1; 
stroke-linecap:round; stroke-linejoin:round;">
<rect x="-5.000000" y="-5.000000" width="63.496750" height="59.432750" rx="0.000000" />
</g>
<g style="fill:#FFFFFF; fill-opacity:1.0000; 
stroke:#FFFFFF; stroke-width:0.0212; stroke-opacity:1; 
stroke-linecap:round; stroke-linejoin:round;">
<g >
</g>
<g style="fill:#B2803A; fill-opacity:1.0000; 
stroke:#B2803A; stroke-width:0.0212; stroke-opacity:1; 
stroke-linecap:round; stroke-linejoin:round;">
</g>
<g style="fill:#B2803A; fill-opacity:1.0000; 
stroke:#B2803A; stroke-width:0.0000; stroke-opacity:1; 
stroke-linecap:round; stroke-linejoin:round;">
<path style="fill:#B2803A; fill-opacity:1.0000; 
stroke:#B2803A; stroke-width:0.0000; stroke-opacity:1; 
stroke-linecap:round; stroke-linejoin:round;fill-rule:evenodd;"
d="M 21.3835,10.5885
19.3835,10.5885
19.3835,8.5885
21.3835,8.5885
Z" /> 
<circle cx="20.3835" cy="4.5885" r="1.0000" /> 
</g>
<g style="fill:#B2803A; fill-opacity:1.0000; 
stroke:#B2803A; stroke-width:0.0212; stroke-opacity:1; 
stroke-linecap:round; stroke-linejoin:round;">
</g>
<g >
</g>
<g style="fill:#B2803A; fill-opacity:1.0000; 
stroke:#B2803A; stroke-width:0.0212; stroke-opacity:1; 
stroke-linecap:round; stroke-linejoin:round;">
</g>
<g style="fill:#B2803A; fill-opacity:1.0000; 
stroke:#B2803A; stroke-width:0.0000; stroke-opacity:1; 
stroke-linecap:round; stroke-linejoin:round;">
<circle cx="15.9385" cy="34.9885" r="0.8000" /> 
</g>
<g style="fill:#B2803A; fill-opacity:1.0000; 
stroke:#B2803A; stroke-width:0.0212; stroke-opacity:1; 
stroke-linecap:round; stroke-linejoin:round;">
</g>
<g style="fill:#B2803A; fill-opacity:1.0000; 
stroke:#B2803A; stroke-width:0.0000; stroke-opacity:1; 
stroke-linecap:round; stroke-linejoin:round;">
<circle cx="15.9385" cy="29.9885" r="0.8000" /> 
</g>
<g style="fill:#B2803A; fill-opacity:1.0000; 
stroke:#B2803A; stroke-width:0.0212; stroke-opacity:1; 
stroke-linecap:round; stroke-linejoin:round;">
</g>
<g >
</g>
<g style="fill:#B2803A; fill-opacity:1.0000; 
stroke:#B2803A; stroke-width:0.0212; stroke-opacity:1; 
stroke-linecap:round; stroke-linejoin:round;">
</g>
<g style="fill:#B2803A; fill-opacity:1.0000; 
stroke:#B2803A; stroke-width:0.0000; stroke-opacity:1; 
stroke-linecap:round; stroke-linejoin:round;">
<circle cx="3.8735" cy="3.8735" r="2.8000" /> 
</g>
<g style="fill:#B2803A; fill-opacity:1.0000; 
stroke:#B2803A; stroke-width:0.0212; stroke-opacity:1; 
stroke-linecap:round; stroke-linejoin:round;">
</g>
<g >
</g>
<g style="fill:#B2803A; fill-opacity:1.0000; 
stroke:#B2803A; stroke-width:0.0212; stroke-opacity:1; 
stroke-linecap:round; stroke-linejoin:round;">
</g>
<g style="fill:#B2803A; fill-opacity:1.0000; 
stroke:#B2803A; stroke-width:0.0000; stroke-opacity:1; 
stroke-linecap:round; stroke-linejoin:round;">
<circle cx="48.3235" cy="3.8735" r="2.8000" /> 
</g>
<g style="fill:#B2803A; fill-opacity:1.0000; 
stroke:#B2803A; stroke-width:0.0212; stroke-opacity:1; 
stroke-linecap:round; stroke-linejoin:round;">
</g>
<g >
</g>
<g style="fill:#B2803A; fill-opacity:1.0000; 
stroke:#B2803A; stroke-width:0.0212; stroke-opacity:1; 
stroke-linecap:round; stroke-linejoin:round;">
</g>
<g style="fill:#B2803A; fill-opacity:1.0000; 
stroke:#B2803A; stroke-width:0.0000; stroke-opacity:1; 
stroke-linecap:round; stroke-linejoin:round;">
<circle cx="48.3235" cy="42.6085" r="2.8000" /> 
</g>
<g style="fill:#B2803A; fill-opacity:1.0000; 
stroke:#B2803A; stroke-width:0.0212; stroke-opacity:1; 
stroke-linecap:round; stroke-linejoin:round;">
</g>
<g >
</g>
<g style="fill:#B2803A; fill-opacity:1.0000; 
stroke:#B2803A; stroke-width:0.0212; stroke-opacity:1; 
stroke-linecap:round; stroke-linejoin:round;">
</g>
<g style="fill:#B2803A; fill-opacity:1.0000; 
stroke:#B2803A; stroke-width:0.0000; stroke-opacity:1; 
stroke-linecap:round; stroke-linejoin:round;">
<circle cx="15.0495" cy="17.8435" r="0.8000" /> 
</g>
<g style="fill:#B2803A; fill-opacity:1.0000; 
stroke:#B2803A; stroke-width:0.0212; stroke-opacity:1; 
stroke-linecap:round; stroke-linejoin:round;">
</g>
<g style="fill:#B2803A; fill-opacity:1.0000; 
stroke:#B2803A; stroke-width:0.0000; stroke-opacity:1; 
stroke-linecap:round; stroke-linejoin:round;">
<circle cx="15.0495" cy="25.4635" r="0.8000" /> 
</g>
<g >
</g>
<g style="fill:#B2803A; fill-opacity:1.0000; 
stroke:#B2803A; stroke-width:0.0000; stroke-opacity:1; 
stroke-linecap:round; stroke-linejoin:round;">
<circle cx="34.9885" cy="5.7785" r="0.8000" /> 
</g>
<g style="fill:#B2803A; fill-opacity:1.0000; 
stroke:#B2803A; stroke-width:0.0212; stroke-opacity:1; 
stroke-linecap:round; stroke-linejoin:round;">
</g>
<g style="fill:#B2803A; fill-opacity:1.0000; 
stroke:#B2803A; stroke-width:0.0000; stroke-opacity:1; 
stroke-linecap:round; stroke-linejoin:round;">
<circle cx="27.3685" cy="5.7785" r="0.8000" /> 
</g>
<g >
</g>
<g style="fill:#B2803A; fill-opacity:1.0000; 
stroke:#B2803A; stroke-width:0.0000; stroke-opacity:1; 
stroke-linecap:round; stroke-linejoin:round;">
<circle cx="43.2435" cy="27.3685" r="0.8000" /> 
</g>
<g style="fill:#B2803A; fill-opacity:1.0000; 
stroke:#B2803A; stroke-width:0.0212; stroke-opacity:1; 
stroke-linecap:round; stroke-linejoin:round;">
</g>
<g style="fill:#B2803A; fill-opacity:1.0000; 
stroke:#B2803A; stroke-width:0.0000; stroke-opacity:1; 
stroke-linecap:round; stroke-linejoin:round;">
<circle cx="43.2435" cy="34.9885" r="0.8000" /> 
</g>
<g >
</g>
<g style="fill:#B2803A; fill-opacity:1.0000; 
stroke:#B2803A; stroke-width:0.0000; stroke-opacity:1; 
stroke-linecap:round; stroke-linejoin:round;">
<path style="fill:#B2803A; fill-opacity:1.0000; 
stroke:#B2803A; stroke-width:0.0000; stroke-opacity:1; 
stroke-linecap:round; stroke-linejoin:round;fill-rule:evenodd;"
d="M 5.5485,21.1695
8.5485,21.1695
8.5485,24.1695
5.5485,24.1695
Z" /> 
<circle cx="7.0485" cy="27.6695" r="1.5000" /> 
</g>
<g style="fill:#B2803A; fill-opacity:1.0000; 
stroke:#B2803A; stroke-width:0.0212; stroke-opacity:1; 
stroke-linecap:round; stroke-linejoin:round;">
</g>
<g >
</g>
<g style="fill:#B2803A; fill-opacity:1.0000; 
stroke:#B2803A; stroke-width:0.0212; stroke-opacity:1; 
stroke-linecap:round; stroke-linejoin:round;">
</g>
<g style="fill:#B2803A; fill-opacity:1.0000; 
stroke:#B2803A; stroke-width:0.0000; stroke-opacity:1; 
stroke-linecap:round; stroke-linejoin:round;">
<path style="fill:#B2803A; fill-opacity:1.0000; 
stroke:#B2803A; stroke-width:0.0000; stroke-opacity:1; 
stroke-linecap:round; stroke-linejoin:round;fill-rule:evenodd;"
d="M 5.5485,9.1045
8.5485,9.1045
8.5485,12.1045
5.5485,12.1045
Z" /> 
<circle cx="7.0485" cy="15.6045" r="1.5000" /> 
</g>
<g style="fill:#B2803A; fill-opacity:1.0000; 
stroke:#B2803A; stroke-width:0.0212; stroke-opacity:1; 
stroke-linecap:round; stroke-linejoin:round;">
</g>
<g >
</g>
<g style="fill:#B2803A; fill-opacity:1.0000; 
stroke:#B2803A; stroke-width:0.0212; stroke-opacity:1; 
stroke-linecap:round; stroke-linejoin:round;">
</g>
<g style="fill:#B2803A; fill-opacity:1.0000; 
stroke:#B2803A; stroke-width:0.0000; stroke-opacity:1; 
stroke-linecap:round; stroke-linejoin:round;">
<path style="fill:#B2803A; fill-opacity:1.0000; 
stroke:#B2803A; stroke-width:0.0000; stroke-opacity:1; 
stroke-linecap:round; stroke-linejoin:round;fill-rule:evenodd;"
d="M 22.8205,42.5845
22.8205,39.5845
25.8205,39.5845
25.8205,42.5845
Z" /> 
<circle cx="29.3205" cy="41.0845" r="1.5000" /> 
</g>
<g style="fill:#B2803A; fill-opacity:1.0000; 
stroke:#B2803A; stroke-width:0.0212; stroke-opacity:1; 
stroke-linecap:round; stroke-linejoin:round;">
</g>
<g >
</g>
<g style="fill:#B2803A; fill-opacity:1.0000; 
stroke:#B2803A; stroke-width:0.0212; stroke-opacity:1; 
stroke-linecap:round; stroke-linejoin:round;">
</g>
<g style="fill:#B2803A; fill-opacity:1.0000; 
stroke:#B2803A; stroke-width:0.0000; stroke-opacity:1; 
stroke-linecap:round; stroke-linejoin:round;">
<circle cx="12.7635" cy="34.9885" r="0.8000" /> 
</g>
<g style="fill:#B2803A; fill-opacity:1.0000; 
stroke:#B2803A; stroke-width:0.0212; stroke-opacity:1; 
stroke-linecap:round; stroke-linejoin:round;">
</g>
<g style="fill:#B2803A; fill-opacity:1.0000; 
stroke:#B2803A; stroke-width:0.0000; stroke-opacity:1; 
stroke-linecap:round; stroke-linejoin:round;">
<circle cx="5.1435" cy="34.9885" r="0.8000" /> 
</g>
<g >
</g>
<g style="fill:#B2803A; fill-opacity:1.0000; 
stroke:#B2803A; stroke-width:0.0000; stroke-opacity:1; 
stroke-linecap:round; stroke-linejoin:round;">
<circle cx="31.4535" cy="28.3585" r="1.0150" /> 
</g>
<g style="fill:#B2803A; fill-opacity:1.0000; 
stroke:#B2803A; stroke-width:0.0212; stroke-opacity:1; 
stroke-linecap:round; stroke-linejoin:round;">
</g>
<g style="fill:#B2803A; fill-opacity:1.0000; 
stroke:#B2803A; stroke-width:0.0000; stroke-opacity:1; 
stroke-linecap:round; stroke-linejoin:round;">
<circle cx="33.6035" cy="25.4285" r="1.0150" /> 
</g>
<g style="fill:#B2803A; fill-opacity:1.0000; 
stroke:#B2803A; stroke-width:0.0212; stroke-opacity:1; 
stroke-linecap:round; stroke-linejoin:round;">
</g>
<g style="fill:#B2803A; fill-opacity:1.0000; 
stroke:#B2803A; stroke-width:0.0000; stroke-opacity:1; 
stroke-linecap:round; stroke-linejoin:round;">
<circle cx="33.6035" cy="21.7785" r="1.0150" /> 
</g>
<g style="fill:#B2803A; fill-opacity:1.0000; 
stroke:#B2803A; stroke-width:0.0212; stroke-opacity:1; 
stroke-linecap:round; stroke-linejoin:round;">
</g>
<g style="fill:#B2803A; fill-opacity:1.0000; 
stroke:#B2803A; stroke-width:0.0000; stroke-opacity:1; 
stroke-linecap:round; stroke-linejoin:round;">
<circle cx="31.4535" cy="18.8485" r="1.0150" /> 
</g>
<g style="fill:#B2803A; fill-opacity:1.0000; 
stroke:#B2803A; stroke-width:0.0212; stroke-opacity:1; 
stroke-linecap:round; stroke-linejoin:round;">
</g>
<g style="fill:#B2803A; fill-opacity:1.0000; 
stroke:#B2803A; stroke-width:0.0000; stroke-opacity:1; 
stroke-linecap:round; stroke-linejoin:round;">
<circle cx="28.0035" cy="17.7085" r="1.0150" /> 
</g>
<g style="fill:#B2803A; fill-opacity:1.0000; 
stroke:#B2803A; stroke-width:0.0212; stroke-opacity:1; 
stroke-linecap:round; stroke-linejoin:round;">
</g>
<g style="fill:#B2803A; fill-opacity:1.0000; 
stroke:#B2803A; stroke-width:0.0000; stroke-opacity:1; 
stroke-linecap:round; stroke-linejoin:round;">
<circle cx="24.5435" cy="18.8485" r="1.0150" /> 
</g>
<g style="fill:#B2803A; fill-opacity:1.0000; 
stroke:#B2803A; stroke-width:0.0212; stroke-opacity:1; 
stroke-linecap:round; stroke-linejoin:round;">
</g>
<g style="fill:#B2803A; fill-opacity:1.0000; 
stroke:#B2803A; stroke-width:0.0000; stroke-opacity:1; 
stroke-linecap:round; stroke-linejoin:round;">
<circle cx="22.3935" cy="21.7785" r="1.0150" /> 
</g>
<g style="fill:#B2803A; fill-opacity:1.0000; 
stroke:#B2803A; stroke-width:0.0212; stroke-opacity:1; 
stroke-linecap:round; stroke-linejoin:round;">
</g>
<g style="fill:#B2803A; fill-opacity:1.0000; 
stroke:#B2803A; stroke-width:0.0000; stroke-opacity:1; 
stroke-linecap:round; stroke-linejoin:round;">
<circle cx="22.3935" cy="25.3885" r="1.0150" /> 
</g>
<g style="fill:#B2803A; fill-opacity:1.0000; 
stroke:#B2803A; stroke-width:0.0212; stroke-opacity:1; 
stroke-linecap:round; stroke-linejoin:round;">
</g>
<g style="fill:#B2803A; fill-opacity:1.0000; 
stroke:#B2803A; stroke-width:0.0000; stroke-opacity:1; 
stroke-linecap:round; stroke-linejoin:round;">
<circle cx="24.5435" cy="28.3585" r="1.0150" /> 
</g>
<g style="fill:#B2803A; fill-opacity:1.0000; 
stroke:#B2803A; stroke-width:0.0212; stroke-opacity:1; 
stroke-linecap:round; stroke-linejoin:round;">
</g>
<g >
</g>
<g style="fill:#B2803A; fill-opacity:1.0000; 
stroke:#B2803A; stroke-width:0.0212; stroke-opacity:1; 
stroke-linecap:round; stroke-linejoin:round;">
</g>
<g style="fill:#B2803A; fill-opacity:1.0000; 
stroke:#B2803A; stroke-width:0.0000; stroke-opacity:1; 
stroke-linecap:round; stroke-linejoin:round;">
<path style="fill:#B2803A; fill-opacity:1.0000; 
stroke:#B2803A; stroke-width:0.0000; stroke-opacity:1; 
stroke-linecap:round; stroke-linejoin:round;fill-rule:evenodd;"
d="M 46.6485,16.8035
43.6485,16.8035
43.6485,13.8035
46.6485,13.8035
Z" /> 
<circle cx="45.1485" cy="10.3035" r="1.5000" /> 
</g>
<g style="fill:#B2803A; fill-opacity:1.0000; 
stroke:#B2803A; stroke-width:0.0212; stroke-opacity:1; 
stroke-linecap:round; stroke-linejoin:round;">
</g>
<g >
</g>
<g style="fill:#B2803A; fill-opacity:1.0000; 
stroke:#B2803A; stroke-width:0.0212; stroke-opacity:1; 
stroke-linecap:round; stroke-linejoin:round;">
</g>
<g style="fill:#B2803A; fill-opacity:1.0000; 
stroke:#B2803A; stroke-width:0.0000; stroke-opacity:1; 
stroke-linecap:round; stroke-linejoin:round;">
<circle cx="3.8735" cy="42.6085" r="2.8000" /> 
</g>
<g style="fill:#B2803A; fill-opacity:1.0000; 
stroke:#B2803A; stroke-width:0.0212; stroke-opacity:1; 
stroke-linecap:round; stroke-linejoin:round;">
</g>
<g >
</g>
<g >
</g>
<g style="fill:#B2803A; fill-opacity:1.0000; 
stroke:#B2803A; stroke-width:0.0212; stroke-opacity:1; 
stroke-linecap:round; stroke-linejoin:round;">
</g>
<g style="fill:#B2803A; fill-opacity:1.0000; 
stroke:#B2803A; stroke-width:0.8000; stroke-opacity:1; 
stroke-linecap:round; stroke-linejoin:round;">
</g>
<g style="fill:#B2803A; fill-opacity:0.0; 
stroke:#B2803A; stroke-width:0.8000; stroke-opacity:1; 
stroke-linecap:round; stroke-linejoin:round;">
<path d="M18.3515 9.5885
L20.3835 9.5885
" />
<path d="M18.2245 9.7155
L18.3515 9.5885
" />
<path d="M23.5585 9.5885
L20.3835 9.5885
" />
<path d="M18.2245 9.7155
L7.9375 9.7155
" />
<path d="M24.5491 10.5791
L23.5585 9.5885
" />
<path d="M24.5491 18.8036
L24.5491 10.5791
" />
<path d="M7.9375 9.7155
L7.0485 10.6045
" />
<path d="M12.6365 33.7185
L12.6365 32.7307
" />
<path d="M12.6365 34.8615
L12.6365 33.7185
" />
<path d="M12.6365 32.7307
L10.8585 30.9527
" />
<path d="M12.7635 34.9885
L12.6365 34.8615
" />
<path d="M10.8585 24.3159
L9.2121 22.6695
" />
<path d="M10.8585 30.9527
L10.8585 24.3159
" />
<path d="M9.2121 22.6695
L7.0485 22.6695
" />
<path d="M15.9385 34.9885
L12.7635 34.9885
" />
<path d="M15.0495 25.4635
L15.9385 25.4635
" />
<path d="M15.9385 29.9085
L15.9385 25.4635
" />
<path d="M15.9385 25.4635
L22.2783 25.4635
" />
<path d="M22.2783 25.4635
L22.3952 25.3467
" />
<path d="M40.1955 16.3995
L40.1955 21.3741
" />
<path d="M36.1823 25.3873
L38.1635 27.3685
" />
<path d="M40.1955 21.3741
L36.1823 25.3873
" />
<path d="M43.3705 10.1765
L42.0705 11.4765
" />
<path d="M41.2285 11.4765
L40.1955 12.5095
" />
<path d="M33.6118 25.3873
L36.1823 25.3873
" />
<path d="M38.1635 27.3685
L43.2435 27.3685
" />
<path d="M40.1955 12.5095
L40.1955 16.3995
" />
<path d="M42.0705 11.4765
L41.2285 11.4765
" />
<path d="M24.5491 37.1924
L24.5491 36.3855
" />
<path d="M24.5491 28.3134
L24.5491 34.4805
" />
<path d="M24.1465 39.4335
L24.1465 37.5950
" />
<path d="M24.1465 37.5950
L24.5491 37.1924
" />
<path d="M24.5491 34.4805
L24.5491 36.3855
" />
<path d="M28.0035 17.6657
L30.3200 17.6657
" />
<path d="M28.6385 21.0185
L28.6385 34.7345
" />
<path d="M28.0035 20.3835
L28.6385 21.0185
" />
<path d="M29.3205 41.0845
L29.3205 35.4165
" />
<path d="M30.3200 17.6657
L31.4579 18.8036
" />
<path d="M28.0035 17.6657
L28.0035 20.3835
" />
<path d="M29.3205 35.4165
L28.6385 34.7345
" />
<path d="M15.3035 31.8135
L17.8435 34.3535
" />
<path d="M12.7635 19.1135
L12.7635 26.0985
" />
<path d="M31.0293 43.9488
L33.7185 41.2596
" />
<path d="M14.6685 17.8435
L14.0335 17.8435
" />
<path d="M14.2875 27.6225
L14.2875 30.9245
" />
<path d="M33.7185 30.5740
L31.4579 28.3134
" />
<path d="M15.1765 31.8135
L15.3035 31.8135
" />
<path d="M22.3952 21.7297
L20.4597 21.7297
" />
<path d="M14.0335 17.8435
L12.7635 19.1135
" />
<path d="M14.6685 17.8435
L16.5735 17.8435
" />
<path d="M17.8435 34.3535
L17.8435 42.1344
" />
<path d="M17.8435 42.1344
L19.6580 43.9488
" />
<path d="M33.7185 41.2596
L33.7185 30.5740
" />
<path d="M14.2875 30.9245
L15.1765 31.8135
" />
<path d="M19.6580 43.9488
L31.0293 43.9488
" />
<path d="M12.7635 26.0985
L14.2875 27.6225
" />
<path d="M20.4597 21.7297
L16.5735 17.8435
" />
<path d="M34.9885 20.3935
L33.6035 21.7785
" />
<path d="M34.9885 5.7785
L34.9885 20.3935
" />
</g>
<g >
</g>
<g style="fill:#B2803A; fill-opacity:0.0; 
stroke:#B2803A; stroke-width:0.8000; stroke-opacity:1; 
stroke-linecap:round; stroke-linejoin:round;">
<g >
</g>
<g style="fill:#B2803A; fill-opacity:1.0000; 
stroke:#B2803A; stroke-width:0.0000; stroke-opacity:1; 
stroke-linecap:round; stroke-linejoin:round;">
<path style="fill:#B2803A; fill-opacity:1.0000; 
stroke:#B2803A; stroke-width:0.0000; stroke-opacity:1; 
stroke-linecap:round; stroke-linejoin:round;fill-rule:evenodd;"
d="M 45.7422,1.2384
45.8082,1.2908
45.8450,1.3667
45.8452,1.4510
45.8088,1.5271
45.8048,1.5320
45.7533,1.5926
45.5845,1.7914
45.3754,2.0997
45.2009,2.4289
45.0631,2.7749
45.0631,2.7749
45.0631,2.7749
44.9634,3.1339
44.9031,3.5015
44.8830,3.8735
44.9031,4.2455
44.9634,4.6131
45.0153,4.8000
45.0631,4.9721
45.0631,4.9721
45.1980,5.3108
45.2009,5.3181
45.3754,5.6473
45.5845,5.9556
45.8257,6.2396
45.8257,6.2396
45.8257,6.2396
46.0961,6.4958
46.0961,6.4958
46.3927,6.7212
46.3927,6.7212
46.7119,6.9133
46.7119,6.9133
46.7119,6.9133
47.0500,7.0697
47.4031,7.1886
47.7669,7.2687
48.1372,7.3090
48.1372,7.3090
48.5098,7.3090
48.5098,7.3090
48.8801,7.2687
49.2439,7.1886
49.5970,7.0697
49.9351,6.9133
50.2543,6.7212
50.5509,6.4958
50.5509,6.4957
50.5513,6.4954
50.5515,6.4953
50.5549,6.4926
50.5554,6.4932
50.6261,6.4564
50.7104,6.4538
50.7875,6.4880
50.8421,6.5523
50.8634,6.6339
50.8635,6.6398
50.8635,39.8422
50.8447,39.9244
50.7922,39.9904
50.7162,40.0270
50.6318,40.0270
50.5558,39.9904
50.5513,39.9866
50.5509,39.9863
50.5509,39.9862
50.2543,39.7608
50.2543,39.7608
50.2543,39.7608
50.2543,39.7608
49.9351,39.5687
49.5970,39.4123
49.5970,39.4123
49.2439,39.2934
49.2439,39.2934
49.0762,39.2564
48.8801,39.2133
48.8801,39.2133
48.8801,39.2133
48.5098,39.1730
48.5098,39.1730
48.1372,39.1730
48.1372,39.1730
47.7669,39.2133
47.7669,39.2133
47.7669,39.2133
47.6135,39.2470
47.4031,39.2934
47.4031,39.2934
47.0500,39.4123
47.0500,39.4123
46.7119,39.5687
46.3927,39.7608
46.3927,39.7608
46.0961,39.9862
46.0961,39.9862
45.8257,40.2424
45.5845,40.5264
45.3754,40.8347
45.2009,41.1639
45.0631,41.5099
45.0631,41.5099
45.0220,41.6578
44.9634,41.8689
44.9031,42.2365
44.8830,42.6085
44.8994,42.9127
44.9031,42.9805
44.9634,43.3481
45.0631,43.7071
45.0631,43.7071
45.2009,44.0531
45.3754,44.3823
45.5804,44.6846
45.5845,44.6906
45.8257,44.9746
46.0961,45.2308
46.3755,45.4431
46.4296,45.5078
46.4503,45.5896
46.4334,45.6722
46.3824,45.7394
46.3073,45.7777
46.2608,45.7835
5.9362,45.7835
5.8539,45.7647
5.7880,45.7122
5.7514,45.6362
5.7514,45.5518
5.7880,45.4758
5.8215,45.4431
6.1009,45.2308
6.3713,44.9746
6.6125,44.6906
6.8216,44.3823
6.9961,44.0531
7.1339,43.7071
7.2336,43.3481
7.2939,42.9805
7.3140,42.6085
7.2939,42.2365
7.2336,41.8689
7.1339,41.5099
6.9961,41.1639
6.8216,40.8347
6.6125,40.5264
6.3713,40.2424
6.3600,40.2317
6.1009,39.9862
6.1009,39.9862
5.8043,39.7608
5.8043,39.7608
5.4851,39.5687
5.1470,39.4123
5.1470,39.4123
4.7939,39.2934
4.7939,39.2934
4.6262,39.2564
4.4301,39.2133
4.4301,39.2133
4.4301,39.2133
4.0598,39.1730
4.0598,39.1730
3.6872,39.1730
3.6872,39.1730
3.3169,39.2133
3.3169,39.2133
3.3169,39.2133
3.1635,39.2470
2.9531,39.2934
2.9531,39.2934
2.6000,39.4123
2.6000,39.4123
2.2619,39.5687
1.9427,39.7608
1.9427,39.7608
1.6461,39.9863
1.6457,39.9866
1.6455,39.9867
1.6421,39.9894
1.6416,39.9888
1.5708,40.0256
1.4866,40.0282
1.4095,39.9939
1.3549,39.9297
1.3336,39.8481
1.3335,39.8422
1.3335,35.2387
4.1180,35.2387
4.1650,35.3938
4.1650,35.3938
4.2629,35.5769
4.2629,35.5769
4.3946,35.7374
4.3946,35.7374
4.5551,35.8691
4.5551,35.8691
4.7382,35.9670
4.7382,35.9670
4.8933,36.0140
4.8933,36.0140
4.8933,35.3040
4.9055,35.3161
5.0184,35.3737
5.1120,35.3885
5.1750,35.3885
5.2686,35.3737
5.3815,35.3161
5.3937,35.3040
5.3937,36.0140
5.5488,35.9670
5.5488,35.9670
5.7319,35.8691
5.7319,35.8691
5.8924,35.7374
5.8924,35.7374
6.0241,35.5769
6.0241,35.5769
6.1220,35.3938
6.1220,35.3938
6.1690,35.2387
5.4590,35.2387
5.4711,35.2265
5.5287,35.1136
5.5485,34.9885
5.5287,34.8634
5.4711,34.7505
5.4590,34.7383
6.1690,34.7383
6.1690,34.7383
6.1220,34.5832
6.1220,34.5832
6.0241,34.4001
6.0241,34.4001
5.8924,34.2396
5.8924,34.2396
5.7319,34.1079
5.7319,34.1079
5.5488,34.0100
5.3937,33.9630
5.3937,34.6730
5.3815,34.6609
5.2686,34.6033
5.1750,34.5885
5.1120,34.5885
5.0184,34.6033
4.9055,34.6609
4.8933,34.6730
4.8933,33.9630
4.7382,34.0100
4.5551,34.1079
4.5551,34.1079
4.3946,34.2396
4.3946,34.2396
4.2629,34.4001
4.2629,34.4001
4.1650,34.5832
4.1650,34.5832
4.1180,34.7383
4.1180,34.7383
4.8280,34.7383
4.8159,34.7505
4.7583,34.8634
4.7385,34.9885
4.7583,35.1136
4.8159,35.2265
4.8280,35.2387
4.1180,35.2387
1.3335,35.2387
1.3335,27.6695
5.2896,27.6695
5.3092,27.9317
5.3092,27.9317
5.3677,28.1879
5.4638,28.4327
5.5952,28.6603
5.6434,28.7208
6.3712,27.9930
6.3946,28.0471
6.4993,28.1877
6.6336,28.3004
6.7253,28.3465
5.9966,29.0752
6.1690,29.1928
6.1690,29.1928
6.4059,29.3068
6.6571,29.3843
6.9170,29.4235
6.9171,29.4235
7.1799,29.4235
7.1799,29.4235
7.4399,29.3843
7.6911,29.3068
7.9280,29.1928
7.9280,29.1928
8.1004,29.0752
7.3742,28.3491
7.3874,28.3443
7.5339,28.2479
7.6542,28.1204
7.7270,27.9942
8.4536,28.7208
8.5018,28.6603
8.6332,28.4327
8.7293,28.1879
8.7878,27.9317
8.7878,27.9317
8.8074,27.6695
8.8074,27.6695
8.7878,27.4073
8.7878,27.4073
8.7293,27.1510
8.6332,26.9063
8.5018,26.6787
8.5018,26.6787
8.4536,26.6182
7.7258,27.3460
7.7024,27.2919
7.5977,27.1513
7.4634,27.0386
7.3717,26.9925
8.1004,26.2638
7.9280,26.1462
7.9280,26.1462
7.6911,26.0322
7.4399,25.9547
7.1799,25.9155
6.9170,25.9155
6.6571,25.9547
6.4059,26.0322
6.1690,26.1462
6.1690,26.1462
5.9966,26.2638
6.7228,26.9899
6.7096,26.9947
6.5631,27.0911
6.4428,27.2186
6.3700,27.3448
5.6434,26.6182
5.5952,26.6787
5.5952,26.6787
5.4638,26.9063
5.3677,27.1510
5.3092,27.4073
5.3092,27.4073
5.2896,27.6695
5.2896,27.6695
1.3335,27.6695
1.3335,21.1053
4.9130,21.1053
4.9130,24.2337
4.9158,24.2697
4.9158,24.2697
4.9158,24.2697
4.9158,24.2697
4.9606,24.4239
5.0424,24.5621
5.1559,24.6756
5.1559,24.6756
5.1559,24.6756
5.2449,24.7283
5.2941,24.7574
5.4483,24.8022
5.4794,24.8046
5.4843,24.8050
5.4843,24.8050
5.4843,24.8050
8.6127,24.8050
8.6487,24.8022
8.8029,24.7574
8.9411,24.6756
9.0546,24.5621
9.1364,24.4239
9.1364,24.4239
9.1424,24.4136
9.1436,24.4143
9.1859,24.3566
9.2604,24.3169
9.3447,24.3135
9.4221,24.3470
9.4440,24.3658
9.7675,24.6893
9.8124,24.7607
9.8230,24.8233
9.8230,30.8971
9.8225,30.9064
9.8180,30.9527
9.8221,30.9942
9.8221,30.9942
9.8230,31.0035
9.8230,31.0035
9.8307,31.0814
9.8380,31.1557
9.8622,31.2354
9.8886,31.3227
9.8972,31.3509
9.9933,31.5307
10.0312,31.5769
10.0457,31.5945
10.1227,31.6884
10.1227,31.6884
10.1227,31.6884
10.1587,31.7179
10.1655,31.7241
11.5455,33.1041
11.5904,33.1755
11.6010,33.2381
11.6010,33.6676
11.6010,33.6676
11.6010,34.0869
11.5822,34.1691
11.5701,34.1905
11.4967,34.3029
11.4967,34.3029
11.4011,34.5208
11.4011,34.5208
11.3427,34.7514
11.3427,34.7514
11.3231,34.9885
11.3427,35.2256
11.3427,35.2256
11.4011,35.4562
11.4011,35.4562
11.4967,35.6741
11.4967,35.6741
11.6268,35.8732
11.6268,35.8732
11.6268,35.8732
11.7879,36.0482
11.7879,36.0483
11.8940,36.1308
11.9757,36.1944
12.1849,36.3076
12.1849,36.3076
12.4099,36.3848
12.6445,36.4240
12.6445,36.4240
12.6446,36.4240
12.8825,36.4240
12.8825,36.4240
13.1171,36.3848
13.3421,36.3076
13.5513,36.1944
13.7189,36.0640
13.7953,36.0283
13.8353,36.0240
14.8667,36.0240
14.9489,36.0428
14.9831,36.0640
15.1507,36.1944
15.3599,36.3076
15.5849,36.3848
15.8195,36.4240
15.8195,36.4240
15.8196,36.4240
16.0575,36.4240
16.0575,36.4240
16.2921,36.3848
16.5171,36.3076
16.5283,36.3015
16.6095,36.2789
16.6926,36.2938
16.7609,36.3432
16.8011,36.4173
16.8080,36.4682
16.8080,42.0788
16.8075,42.0881
16.8030,42.1343
16.8071,42.1759
16.8071,42.1759
16.8080,42.1852
16.8080,42.1852
16.8131,42.2365
16.8230,42.3374
16.8632,42.4700
16.8822,42.5325
16.8822,42.5325
16.9783,42.7124
16.9783,42.7124
17.0104,42.7514
17.0480,42.7973
17.1077,42.8701
17.1437,42.8996
17.1505,42.9058
18.8865,44.6418
18.8927,44.6487
18.9222,44.6846
18.9222,44.6846
18.9600,44.7156
18.9600,44.7156
19.0799,44.8140
19.0799,44.8140
19.2598,44.9101
19.4550,44.9693
19.6580,44.9893
19.6580,44.9893
19.6580,44.9893
19.7042,44.9848
19.7135,44.9843
30.9738,44.9843
30.9831,44.9848
31.0293,44.9893
31.0293,44.9893
31.0293,44.9893
31.0355,44.9887
31.0802,44.9843
31.0802,44.9843
31.2323,44.9693
31.2323,44.9693
31.2323,44.9693
31.2839,44.9537
31.4275,44.9101
31.4275,44.9101
31.4681,44.8978
31.5016,44.8705
31.5570,44.8409
31.6074,44.8140
31.6923,44.7443
31.7651,44.6846
31.7946,44.6487
31.8008,44.6418
34.4115,42.0311
34.4183,42.0249
34.4543,41.9954
34.5140,41.9226
34.5837,41.8377
34.6798,41.6578
34.6965,41.6030
34.7390,41.4626
34.7540,41.3105
34.7540,41.3105
34.7590,41.2596
34.7545,41.2134
34.7540,41.2041
34.7540,35.2387
42.2180,35.2387
42.2650,35.3938
42.2650,35.3938
42.3629,35.5769
42.3629,35.5769
42.4946,35.7374
42.4946,35.7374
42.6551,35.8691
42.6551,35.8691
42.8382,35.9670
42.8382,35.9670
42.9933,36.0140
42.9933,36.0140
42.9933,35.3040
43.0055,35.3161
43.1184,35.3737
43.2120,35.3885
43.2750,35.3885
43.3686,35.3737
43.4815,35.3161
43.4937,35.3040
43.4937,36.0140
43.6488,35.9670
43.6488,35.9670
43.8319,35.8691
43.8319,35.8691
43.9924,35.7374
43.9924,35.7374
44.1241,35.5769
44.1241,35.5769
44.2220,35.3938
44.2220,35.3938
44.2690,35.2387
43.5590,35.2387
43.5711,35.2265
43.6287,35.1136
43.6485,34.9885
43.6287,34.8634
43.5711,34.7505
43.5590,34.7383
44.2690,34.7383
44.2690,34.7383
44.2220,34.5832
44.2220,34.5832
44.1241,34.4001
44.1241,34.4001
43.9924,34.2396
43.9924,34.2396
43.8319,34.1079
43.8319,34.1079
43.6488,34.0100
43.4937,33.9630
43.4937,34.6730
43.4815,34.6609
43.3686,34.6033
43.2750,34.5885
43.2120,34.5885
43.1184,34.6033
43.0055,34.6609
42.9933,34.6730
42.9933,33.9630
42.8382,34.0100
42.6551,34.1079
42.6551,34.1079
42.4946,34.2396
42.4946,34.2396
42.3629,34.4001
42.3629,34.4001
42.2650,34.5832
42.2650,34.5832
42.2180,34.7383
42.2180,34.7383
42.9280,34.7383
42.9159,34.7505
42.8583,34.8634
42.8385,34.9885
42.8583,35.1136
42.9159,35.2265
42.9280,35.2387
42.2180,35.2387
34.7540,35.2387
34.7540,30.6295
34.7545,30.6202
34.7585,30.5793
34.7590,30.5740
34.7540,30.5231
34.7390,30.3710
34.7390,30.3710
34.6798,30.1758
34.6798,30.1758
34.6798,30.1758
34.6403,30.1018
34.6176,30.0593
34.5837,29.9959
34.5837,29.9959
34.5776,29.9885
34.5082,29.9040
34.4543,29.8382
34.4542,29.8382
34.4183,29.8088
34.4114,29.8025
33.1605,28.5516
33.1157,28.4802
33.1056,28.4027
33.1091,28.3585
33.0887,28.0995
33.0281,27.8469
32.9287,27.6069
32.9287,27.6069
32.9286,27.6069
32.7929,27.3854
32.7929,27.3854
32.7929,27.3854
32.6366,27.2024
32.5975,27.1277
32.5947,27.0434
32.6287,26.9662
32.6928,26.9114
32.7743,26.8899
32.8532,26.9042
33.0919,27.0031
33.3445,27.0637
33.6035,27.0841
33.8625,27.0637
34.1151,27.0031
34.3551,26.9037
34.5766,26.7679
34.7742,26.5992
34.8244,26.5403
34.8681,26.4892
34.9358,26.4389
35.0122,26.4228
35.6749,26.4228
35.7571,26.4416
35.8089,26.4783
37.3920,28.0614
37.3983,28.0683
37.4277,28.1042
37.4277,28.1042
37.4277,28.1043
37.4673,28.1367
37.5854,28.2337
37.7103,28.3004
37.7346,28.3134
37.7653,28.3298
37.9605,28.3890
37.9605,28.3890
37.9605,28.3890
38.0651,28.3993
38.1635,28.4090
38.1635,28.4090
38.1635,28.4090
38.2097,28.4045
38.2190,28.4040
42.1717,28.4040
42.2539,28.4228
42.2881,28.4440
42.4557,28.5744
42.6649,28.6876
42.8899,28.7648
43.1245,28.8040
43.1245,28.8040
43.1246,28.8040
43.3625,28.8040
43.3625,28.8040
43.5971,28.7648
43.8221,28.6876
44.0313,28.5744
44.2191,28.4283
44.3802,28.2532
44.5103,28.0541
44.5134,28.0471
44.5485,27.9669
44.6059,27.8362
44.6643,27.6056
44.6839,27.3685
44.6643,27.1314
44.6059,26.9008
44.6011,26.8899
44.5103,26.6829
44.4556,26.5992
44.3802,26.4838
44.3802,26.4838
44.3802,26.4838
44.2191,26.3088
44.2191,26.3088
44.2191,26.3087
44.0538,26.1801
44.0313,26.1626
43.8221,26.0494
43.5971,25.9722
43.5971,25.9722
43.5971,25.9722
43.5971,25.9722
43.5971,25.9722
43.3625,25.9330
43.3624,25.9330
43.1246,25.9330
43.1245,25.9330
42.8899,25.9722
42.8899,25.9722
42.6649,26.0494
42.4557,26.1626
42.2881,26.2930
42.2117,26.3287
42.1717,26.3330
38.6709,26.3330
38.5887,26.3142
38.5369,26.2775
38.1595,25.9001
37.7807,25.5213
37.7358,25.4499
37.7264,25.3661
37.7543,25.2865
37.7807,25.2533
40.8885,22.1456
40.8953,22.1393
40.9313,22.1099
40.9910,22.0370
41.0607,21.9522
41.1568,21.7723
41.1568,21.7723
41.1768,21.7349
41.1812,21.6919
41.2160,21.5771
41.2272,21.4637
41.2288,21.4474
41.2360,21.3741
41.2360,21.3741
41.2315,21.3278
41.2310,21.3186
41.2310,16.3486
41.2310,15.0533
43.3945,15.0533
43.3945,15.0533
44.4405,15.0533
44.4049,15.1724
44.3947,15.3474
44.4251,15.5201
44.4396,15.5537
43.3945,15.5537
43.3945,16.8285
43.4092,16.9026
43.4654,16.9866
43.4654,16.9866
43.5494,17.0428
43.6235,17.0575
44.8983,17.0575
44.8983,16.0150
45.0608,16.0535
45.1922,16.0535
45.3226,16.0383
45.3987,16.0106
45.3987,17.0575
45.3987,17.0575
46.6735,17.0575
46.7476,17.0428
46.8316,16.9866
46.8316,16.9866
46.8878,16.9026
46.9025,16.8285
46.9025,16.8285
46.9025,15.5537
46.9025,15.5537
45.8565,15.5537
45.8921,15.4346
45.9023,15.2596
45.8719,15.0869
45.8574,15.0533
46.9025,15.0533
46.9025,15.0533
46.9025,13.7785
46.8878,13.7044
46.8316,13.6204
46.8316,13.6204
46.7476,13.5642
46.6735,13.5495
45.3987,13.5495
45.3987,14.5920
45.2362,14.5535
45.1048,14.5535
44.9744,14.5687
44.8983,14.5964
44.8983,13.5495
43.6235,13.5495
43.5494,13.5642
43.4654,13.6204
43.4654,13.6204
43.4092,13.7044
43.3945,13.7785
43.3945,15.0533
41.2310,15.0533
41.2310,13.0169
41.2498,12.9347
41.2865,12.8829
41.6019,12.5675
41.6733,12.5226
41.7359,12.5120
42.0150,12.5120
42.0243,12.5125
42.0705,12.5170
42.0705,12.5170
42.0705,12.5170
42.0766,12.5164
42.1214,12.5120
42.1214,12.5120
42.2735,12.4970
42.2735,12.4970
42.2735,12.4970
42.4687,12.4378
42.4687,12.4378
42.4687,12.4378
42.5216,12.4095
42.5409,12.3992
42.6486,12.3417
42.6486,12.3417
42.6486,12.3417
42.6486,12.3417
42.7163,12.2860
42.7667,12.2447
42.8062,12.2123
42.8062,12.2123
42.8063,12.2123
42.8357,12.1763
42.8420,12.1695
43.2862,11.7252
43.3576,11.6804
43.4414,11.6709
43.5210,11.6988
43.5587,11.7299
43.6875,11.8678
43.6875,11.8679
43.6875,11.8679
43.9141,12.0522
43.9141,12.0522
44.1637,12.2040
44.1637,12.2040
44.1637,12.2040
44.1637,12.2040
44.1637,12.2040
44.4317,12.3204
44.4317,12.3204
44.4317,12.3204
44.7130,12.3992
45.0024,12.4390
45.0024,12.4390
45.2946,12.4390
45.2946,12.4390
45.5840,12.3992
45.8653,12.3204
45.8653,12.3204
45.8653,12.3204
46.1143,12.2122
46.1333,12.2040
46.3829,12.0522
46.6095,11.8678
46.8089,11.6543
46.9774,11.4157
47.1118,11.1563
47.2096,10.8810
47.2496,10.6887
47.2691,10.5950
47.2691,10.5950
47.2691,10.5950
47.2890,10.3035
47.2691,10.0120
47.2691,10.0120
47.2691,10.0120
47.2279,9.8139
47.2096,9.7260
47.1118,9.4507
46.9774,9.1913
46.8089,8.9527
46.6095,8.7392
46.6095,8.7391
46.6095,8.7391
46.3829,8.5548
46.3829,8.5548
46.1333,8.4030
46.1333,8.4030
45.8653,8.2866
45.8653,8.2866
45.8124,8.2718
45.5840,8.2078
45.5840,8.2078
45.5840,8.2078
45.2946,8.1680
45.2946,8.1680
45.0024,8.1680
45.0024,8.1680
44.7130,8.2078
44.7130,8.2078
44.7130,8.2078
44.6073,8.2374
44.4317,8.2866
44.4317,8.2866
44.1637,8.4030
44.1637,8.4030
43.9141,8.5548
43.9141,8.5548
43.6875,8.7391
43.6875,8.7392
43.4881,8.9527
43.4078,9.0664
43.3450,9.1228
43.2716,9.1457
43.1675,9.1560
43.1675,9.1560
42.9723,9.2152
42.7924,9.3113
42.7924,9.3113
42.6743,9.4083
42.6743,9.4083
41.6971,10.3855
41.6257,10.4304
41.5631,10.4410
41.2840,10.4410
41.2747,10.4405
41.2285,10.4360
41.2285,10.4360
41.2166,10.4372
41.1823,10.4405
41.1823,10.4405
41.1776,10.4410
41.1776,10.4410
41.0407,10.4545
41.0255,10.4560
40.7897,10.5275
40.7562,10.5548
40.6504,10.6113
40.5869,10.6635
40.4928,10.7407
40.4927,10.7408
40.4633,10.7767
40.4570,10.7836
39.5026,11.7380
39.4957,11.7443
39.4598,11.7737
39.4597,11.7738
39.4273,11.8133
39.3303,11.9314
39.2990,11.9900
39.2342,12.1113
39.2342,12.1113
39.1750,12.3065
39.1619,12.4390
39.1550,12.5095
39.1550,12.5095
39.1595,12.5557
39.1600,12.5650
39.1600,20.8667
39.1412,20.9489
39.1045,21.0007
35.8089,24.2963
35.7375,24.3412
35.6749,24.3518
34.9418,24.3518
34.8596,24.3330
34.7977,24.2854
34.7742,24.2578
34.7742,24.2578
34.7742,24.2578
34.5766,24.0891
34.5766,24.0891
34.5766,24.0891
34.5766,24.0891
34.3551,23.9534
34.3551,23.9533
34.1151,23.8539
33.8625,23.7933
33.8625,23.7933
33.8515,23.7924
33.7710,23.7673
33.7094,23.7097
33.6789,23.6310
33.6855,23.5470
33.7280,23.4741
33.7978,23.4268
33.8515,23.4146
33.8553,23.4143
33.8625,23.4137
34.1151,23.3531
34.3551,23.2537
34.5766,23.1179
34.7742,22.9492
34.9429,22.7516
35.0787,22.5301
35.1781,22.2901
35.2387,22.0375
35.2591,21.7785
35.2520,21.6884
35.2643,21.6049
35.3069,21.5395
35.6815,21.1650
35.6883,21.1587
35.6929,21.1550
35.7243,21.1293
35.8029,21.0335
35.8537,20.9716
35.9498,20.7917
35.9498,20.7917
35.9543,20.7769
36.0090,20.5965
36.0090,20.5965
36.0090,20.5965
36.0240,20.4444
36.0290,20.3935
36.0283,20.3862
36.0245,20.3473
36.0240,20.3380
36.0240,6.8471
36.0428,6.7649
36.0741,6.7187
36.1252,6.6632
36.2553,6.4641
36.3509,6.2462
36.4093,6.0156
36.4289,5.7785
36.4093,5.5414
36.3509,5.3108
36.2979,5.1901
36.2553,5.0929
36.2424,5.0732
36.1252,4.8938
36.1252,4.8938
36.1252,4.8938
35.9641,4.7188
35.9641,4.7188
35.9641,4.7187
35.8284,4.6131
35.7763,4.5726
35.5671,4.4594
35.3421,4.3822
35.3421,4.3822
35.3421,4.3822
35.3421,4.3822
35.3421,4.3822
35.1075,4.3430
35.1074,4.3430
34.8696,4.3430
34.8695,4.3430
34.6349,4.3822
34.6349,4.3822
34.4099,4.4594
34.2007,4.5726
34.0129,4.7187
34.0129,4.7188
33.8518,4.8938
33.7217,5.0929
33.6261,5.3108
33.6261,5.3108
33.5677,5.5414
33.5677,5.5414
33.5481,5.7785
33.5677,6.0156
33.5677,6.0156
33.6261,6.2462
33.6261,6.2462
33.7217,6.4641
33.7631,6.5274
33.8518,6.6632
33.9029,6.7187
33.9448,6.7919
33.9530,6.8471
33.9530,19.8861
33.9342,19.9683
33.8975,20.0201
33.8425,20.0751
33.7711,20.1199
33.6936,20.1300
33.6035,20.1229
33.3445,20.1433
33.0919,20.2039
32.8532,20.3028
32.7701,20.3169
32.6890,20.2936
32.6262,20.2374
32.5939,20.1594
32.5986,20.0752
32.6366,20.0046
32.7929,19.8216
32.9287,19.6001
33.0281,19.3601
33.0887,19.1075
33.1091,18.8485
33.0887,18.5895
33.0281,18.3369
32.9287,18.0969
32.9287,18.0969
32.9286,18.0969
32.7929,17.8754
32.7929,17.8754
32.7929,17.8754
32.7929,17.8754
32.6242,17.6778
32.4266,17.5091
32.4266,17.5091
32.4266,17.5091
32.4266,17.5091
32.2051,17.3733
32.2051,17.3733
31.9651,17.2739
31.7125,17.2133
31.7125,17.2133
31.4739,17.1945
31.4535,17.1929
31.4535,17.1929
31.4090,17.1964
31.3256,17.1841
31.2602,17.1415
31.0914,16.9727
31.0852,16.9659
31.0557,16.9299
31.0557,16.9299
31.0557,16.9299
30.9254,16.8230
30.8981,16.8005
30.8981,16.8005
30.8981,16.8005
30.7202,16.7055
30.7184,16.7045
30.5230,16.6452
30.5230,16.6452
30.5230,16.6452
30.3708,16.6302
30.3708,16.6302
30.3615,16.6293
30.3615,16.6293
30.3336,16.6265
30.3200,16.6252
30.3200,16.6252
30.3200,16.6252
30.2738,16.6297
30.2645,16.6302
29.3405,16.6302
29.2582,16.6114
29.1964,16.5638
29.1742,16.5378
28.9766,16.3691
28.9766,16.3691
28.9766,16.3691
28.9766,16.3691
28.7551,16.2333
28.7551,16.2333
28.5151,16.1339
28.2625,16.0733
28.2625,16.0733
28.0239,16.0545
28.0035,16.0529
28.0035,16.0529
27.7445,16.0733
27.4919,16.1339
27.2519,16.2333
27.2519,16.2333
27.0304,16.3691
27.0304,16.3691
26.8328,16.5378
26.6641,16.7354
26.6641,16.7354
26.5283,16.9569
26.5283,16.9569
26.4289,17.1969
26.3683,17.4495
26.3479,17.7085
26.3683,17.9675
26.3687,17.9704
26.3686,17.9720
26.3689,17.9749
26.3684,17.9749
26.3631,18.0546
26.3214,18.1279
26.2521,18.1759
26.1688,18.1891
26.0881,18.1649
26.0258,18.1080
26.0200,18.0991
25.9927,18.0546
25.8829,17.8754
25.7142,17.6778
25.6510,17.6239
25.6007,17.5562
25.5846,17.4798
25.5846,10.6346
25.5851,10.6253
25.5896,10.5791
25.5846,10.5282
25.5760,10.4410
25.5696,10.3761
25.5104,10.1809
25.4745,10.1137
25.4201,10.0120
25.4143,10.0010
25.3173,9.8829
25.2849,9.8433
25.2848,9.8433
25.2848,9.8433
25.2489,9.8139
25.2420,9.8076
24.3300,8.8955
24.3237,8.8887
24.2943,8.8527
24.2214,8.7930
24.1558,8.7392
24.1366,8.7233
24.1366,8.7233
23.9942,8.6473
23.9787,8.6339
23.7615,8.5680
23.7615,8.5680
23.7615,8.5680
23.6094,8.5530
23.6094,8.5530
23.6001,8.5521
23.6001,8.5521
23.5722,8.5493
23.5585,8.5480
23.5585,8.5480
23.5585,8.5480
23.5123,8.5525
23.5030,8.5530
22.1772,8.5530
22.0950,8.5342
22.0291,8.4817
21.9953,8.4164
21.9714,8.3341
21.8896,8.1959
21.7761,8.0824
21.7761,8.0824
21.7761,8.0824
21.6379,8.0006
21.6379,8.0006
21.6379,8.0006
21.4837,7.9558
21.4717,7.9549
21.4477,7.9530
21.4477,7.9530
19.3205,7.9530
19.3193,7.9530
19.2833,7.9558
19.2833,7.9558
19.2833,7.9558
19.1291,8.0006
19.1291,8.0006
18.9909,8.0824
18.8774,8.1959
18.7956,8.3341
18.7717,8.4164
18.7308,8.4901
18.6619,8.5387
18.5898,8.5530
18.4070,8.5530
18.3977,8.5525
18.3515,8.5480
18.3515,8.5480
18.3396,8.5492
18.3053,8.5525
18.3053,8.5525
18.3006,8.5530
18.3006,8.5530
18.2033,8.5626
18.1485,8.5680
17.8061,8.6718
17.7511,8.6800
9.1012,8.6800
9.0190,8.6612
8.9672,8.6245
8.9411,8.5984
8.9411,8.5984
8.9411,8.5984
8.8029,8.5166
8.8029,8.5166
8.8029,8.5166
8.6487,8.4718
8.6367,8.4709
8.6127,8.4690
8.6127,8.4690
5.5251,8.4690
5.4843,8.4690
5.4483,8.4718
5.4483,8.4718
5.4483,8.4718
5.2941,8.5166
5.2941,8.5166
5.1559,8.5984
5.0424,8.7119
4.9606,8.8501
4.9606,8.8501
4.9606,8.8501
4.9308,8.9527
4.9158,9.0043
4.9130,9.0403
4.9130,12.1687
4.9158,12.2047
4.9158,12.2047
4.9158,12.2047
4.9158,12.2047
4.9494,12.3204
4.9606,12.3589
5.0423,12.4970
5.0424,12.4971
5.1559,12.6106
5.1559,12.6106
5.1559,12.6106
5.2449,12.6633
5.2941,12.6924
5.4483,12.7372
5.4794,12.7396
5.4843,12.7400
5.4843,12.7400
5.4843,12.7400
8.6127,12.7400
8.6487,12.7372
8.8029,12.6924
8.9411,12.6106
9.0546,12.4971
9.1364,12.3589
9.1812,12.2047
9.1840,12.1687
9.1840,10.9405
9.2028,10.8583
9.2553,10.7923
9.3313,10.7558
9.3735,10.7510
18.1690,10.7510
18.1783,10.7515
18.2245,10.7560
18.2245,10.7560
18.2245,10.7560
18.2306,10.7554
18.2754,10.7510
18.2754,10.7510
18.4275,10.7360
18.5538,10.6977
18.6379,10.6918
18.7163,10.7230
18.7734,10.7851
18.7908,10.8262
18.7956,10.8429
18.7956,10.8429
18.8182,10.8810
18.8774,10.9811
18.9909,11.0946
18.9909,11.0946
18.9909,11.0946
19.0799,11.1473
19.1291,11.1764
19.2833,11.2212
19.3144,11.2236
19.3193,11.2240
19.3193,11.2240
19.3193,11.2240
21.4477,11.2240
21.4837,11.2212
21.6379,11.1764
21.7761,11.0946
21.8896,10.9811
21.9714,10.8429
21.9953,10.7606
22.0362,10.6869
22.1051,10.6383
22.1772,10.6240
23.0511,10.6240
23.1333,10.6428
23.1851,10.6795
23.4581,10.9525
23.5030,11.0239
23.5136,11.0865
23.5136,17.4702
23.4948,17.5524
23.4472,17.6143
23.3728,17.6778
23.3728,17.6778
23.2041,17.8754
23.2041,17.8754
23.0683,18.0969
23.0683,18.0969
22.9689,18.3369
22.9083,18.5895
22.8879,18.8485
22.9083,19.1075
22.9689,19.3601
23.0683,19.6001
23.0683,19.6001
23.2041,19.8216
23.2041,19.8216
23.2041,19.8216
23.3604,20.0046
23.3995,20.0793
23.4023,20.1636
23.3683,20.2408
23.3042,20.2956
23.2227,20.3171
23.1438,20.3028
23.0954,20.2827
22.9051,20.2039
22.8384,20.1879
22.6525,20.1433
22.6525,20.1433
22.4139,20.1245
22.3935,20.1229
22.3935,20.1229
22.1345,20.1433
21.8819,20.2039
21.6419,20.3033
21.6419,20.3033
21.4204,20.4391
21.4204,20.4391
21.2228,20.6078
21.2058,20.6278
21.1381,20.6781
21.0617,20.6942
20.9671,20.6942
20.8849,20.6754
20.8331,20.6387
17.3450,17.1505
17.3387,17.1437
17.3093,17.1077
17.2364,17.0480
17.2364,17.0480
17.1516,16.9783
17.1516,16.9783
16.9717,16.8822
16.7765,16.8230
16.7213,16.8175
16.6244,16.8080
16.6244,16.8080
16.6151,16.8071
16.6151,16.8071
16.5871,16.8043
16.5735,16.8030
16.5735,16.8030
16.5735,16.8030
16.5273,16.8075
16.5180,16.8080
16.1213,16.8080
16.0391,16.7892
16.0049,16.7680
15.9231,16.7044
15.8373,16.6376
15.7592,16.5953
15.6281,16.5244
15.4031,16.4472
15.4031,16.4472
15.4031,16.4472
15.4031,16.4472
15.4031,16.4472
15.1685,16.4080
15.1684,16.4080
14.9306,16.4080
14.9305,16.4080
14.6959,16.4472
14.6959,16.4472
14.4709,16.5244
14.2617,16.6376
14.0947,16.7675
14.0183,16.8032
13.9969,16.8066
13.9919,16.8071
13.9873,16.8075
13.9873,16.8075
13.9826,16.8080
13.9826,16.8080
13.8853,16.8176
13.8305,16.8230
13.6353,16.8822
13.4554,16.9783
13.4554,16.9783
13.3706,17.0480
13.2977,17.1077
13.2977,17.1078
13.2683,17.1437
13.2620,17.1506
12.0706,18.3420
12.0637,18.3483
12.0278,18.3777
12.0277,18.3778
11.9953,18.4173
11.8983,18.5354
11.8983,18.5354
11.8960,18.5397
11.8022,18.7153
11.8022,18.7153
11.7430,18.9105
11.7294,19.0479
11.7230,19.1135
11.7230,19.1135
11.7275,19.1597
11.7280,19.1690
11.7280,23.2635
11.7092,23.3457
11.6566,23.4116
11.5807,23.4482
11.4963,23.4482
11.4203,23.4116
11.4045,23.3975
9.9836,21.9765
9.9773,21.9697
9.9479,21.9337
9.8750,21.8740
9.8750,21.8740
9.7902,21.8043
9.7902,21.8043
9.6103,21.7082
9.4151,21.6490
9.3549,21.6431
9.2749,21.6163
9.2145,21.5575
9.1855,21.4783
9.1840,21.4545
9.1840,21.1053
9.1812,21.0693
9.1812,21.0693
9.1812,21.0693
9.1812,21.0693
9.1364,20.9151
9.0546,20.7769
8.9411,20.6634
8.9411,20.6634
8.9411,20.6634
8.8029,20.5816
8.8029,20.5816
8.8029,20.5816
8.6487,20.5368
8.6367,20.5359
8.6127,20.5340
8.6127,20.5340
5.4596,20.5340
5.4843,20.5340
5.4483,20.5368
5.4483,20.5368
5.4483,20.5368
5.2941,20.5816
5.2941,20.5816
5.1559,20.6634
5.0424,20.7769
4.9606,20.9151
4.9606,20.9151
4.9606,20.9151
4.9508,20.9489
4.9158,21.0693
4.9130,21.1053
1.3335,21.1053
1.3335,15.6045
5.2896,15.6045
5.3092,15.8667
5.3092,15.8667
5.3677,16.1229
5.4638,16.3677
5.5952,16.5953
5.6434,16.6558
6.3712,15.9280
6.3946,15.9821
6.4993,16.1227
6.6336,16.2354
6.7253,16.2815
5.9966,17.0102
6.1690,17.1278
6.1690,17.1278
6.4059,17.2418
6.6571,17.3193
6.9170,17.3585
6.9171,17.3585
7.1799,17.3585
7.1799,17.3585
7.4399,17.3193
7.6911,17.2418
7.9280,17.1278
7.9280,17.1278
8.1004,17.0102
7.3742,16.2841
7.3874,16.2793
7.5339,16.1829
7.6542,16.0554
7.7270,15.9292
8.4536,16.6558
8.5018,16.5953
8.6332,16.3677
8.7293,16.1229
8.7878,15.8667
8.7878,15.8667
8.8074,15.6045
8.8074,15.6045
8.7878,15.3423
8.7878,15.3423
8.7293,15.0860
8.6332,14.8413
8.5018,14.6137
8.5018,14.6137
8.4536,14.5532
7.7258,15.2810
7.7024,15.2269
7.5977,15.0863
7.4634,14.9736
7.3717,14.9275
8.1004,14.1988
7.9280,14.0812
7.9280,14.0812
7.6911,13.9672
7.4399,13.8897
7.1799,13.8505
6.9170,13.8505
6.6571,13.8897
6.4059,13.9672
6.1690,14.0812
6.1690,14.0812
5.9966,14.1988
6.7228,14.9249
6.7096,14.9297
6.5631,15.0261
6.4428,15.1536
6.3700,15.2798
5.6434,14.5532
5.5952,14.6137
5.5952,14.6137
5.4638,14.8413
5.3677,15.0860
5.3092,15.3423
5.3092,15.3423
5.2896,15.6045
5.2896,15.6045
1.3335,15.6045
1.3335,6.6398
1.3523,6.5576
1.4048,6.4916
1.4808,6.4550
1.5652,6.4550
1.6412,6.4916
1.6457,6.4954
1.6461,6.4957
1.6461,6.4958
1.8664,6.6632
1.9427,6.7212
1.9427,6.7212
2.2619,6.9133
2.2619,6.9133
2.2619,6.9133
2.6000,7.0697
2.9531,7.1886
3.3169,7.2687
3.6872,7.3090
3.6872,7.3090
4.0598,7.3090
4.0598,7.3090
4.4301,7.2687
4.7939,7.1886
5.1470,7.0697
5.4851,6.9133
5.8043,6.7212
6.1009,6.4958
6.3713,6.2396
6.5504,6.0287
26.3430,6.0287
26.3900,6.1838
26.3900,6.1838
26.4879,6.3669
26.4879,6.3669
26.6196,6.5274
26.6196,6.5274
26.7801,6.6591
26.7801,6.6591
26.9632,6.7570
26.9632,6.7570
27.1183,6.8040
27.1183,6.8040
27.1183,6.0940
27.1305,6.1061
27.2434,6.1637
27.3370,6.1785
27.4000,6.1785
27.4936,6.1637
27.6065,6.1061
27.6187,6.0940
27.6187,6.8040
27.7738,6.7570
27.7738,6.7570
27.9569,6.6591
27.9569,6.6591
28.1174,6.5274
28.1174,6.5274
28.2491,6.3669
28.2491,6.3669
28.3470,6.1838
28.3470,6.1838
28.3940,6.0287
27.6840,6.0287
27.6961,6.0165
27.7537,5.9036
27.7735,5.7785
27.7537,5.6534
27.6961,5.5405
27.6840,5.5283
28.3940,5.5283
28.3940,5.5283
28.3470,5.3732
28.3470,5.3732
28.2491,5.1901
28.2491,5.1901
28.1174,5.0296
28.1174,5.0296
27.9569,4.8979
27.9569,4.8979
27.7738,4.8000
27.6187,4.7530
27.6187,5.4630
27.6065,5.4509
27.4936,5.3933
27.4000,5.3785
27.3370,5.3785
27.2434,5.3933
27.1305,5.4509
27.1183,5.4630
27.1183,4.7530
26.9632,4.8000
26.7801,4.8979
26.7801,4.8979
26.6196,5.0296
26.6196,5.0296
26.4879,5.1901
26.4879,5.1901
26.3900,5.3732
26.3900,5.3732
26.3430,5.5283
26.3430,5.5283
27.0530,5.5283
27.0409,5.5405
26.9833,5.6534
26.9635,5.7785
26.9833,5.9036
27.0409,6.0165
27.0530,6.0287
26.3430,6.0287
6.5504,6.0287
6.6125,5.9556
6.8216,5.6473
6.9961,5.3181
7.1339,4.9721
7.2336,4.6131
7.2376,4.5885
19.1247,4.5885
19.1438,4.8071
19.1438,4.8071
19.2006,5.0190
19.2006,5.0190
19.2934,5.2179
19.2934,5.2179
19.3374,5.2808
19.9004,4.7178
19.9240,4.7983
20.0017,4.9193
20.1104,5.0135
20.2412,5.0732
20.2512,5.0746
19.6912,5.6346
19.7541,5.6786
19.7541,5.6786
19.9530,5.7714
19.9530,5.7714
20.1649,5.8282
20.1649,5.8282
20.3835,5.8473
20.6021,5.8282
20.6021,5.8282
20.8140,5.7714
20.8140,5.7714
21.0129,5.6786
21.0129,5.6786
21.0758,5.6346
20.5158,5.0746
20.5258,5.0732
20.6566,5.0135
20.7653,4.9193
20.8430,4.7983
20.8666,4.7178
21.4296,5.2808
21.4736,5.2179
21.4736,5.2179
21.5664,5.0190
21.5664,5.0190
21.6232,4.8071
21.6232,4.8071
21.6423,4.5885
21.6232,4.3699
21.6232,4.3699
21.5664,4.1580
21.5664,4.1580
21.4736,3.9591
21.4296,3.8962
20.8666,4.4592
20.8430,4.3787
20.7653,4.2577
20.6566,4.1635
20.5258,4.1038
20.5158,4.1024
21.0758,3.5424
21.0129,3.4984
21.0129,3.4984
20.8140,3.4056
20.8140,3.4056
20.6021,3.3488
20.6021,3.3488
20.3835,3.3297
20.1649,3.3488
20.1649,3.3488
19.9530,3.4056
19.9530,3.4056
19.7541,3.4984
19.7541,3.4984
19.6912,3.5424
20.2512,4.1024
20.2412,4.1038
20.1104,4.1635
20.0017,4.2577
19.9240,4.3787
19.9004,4.4592
19.3374,3.8962
19.2934,3.9591
19.2934,3.9591
19.2006,4.1580
19.2006,4.1580
19.1438,4.3699
19.1438,4.3699
19.1247,4.5885
7.2376,4.5885
7.2939,4.2455
7.3140,3.8735
7.2939,3.5015
7.2336,3.1339
7.1339,2.7749
6.9961,2.4289
6.8216,2.0997
6.6125,1.7914
6.4772,1.6321
6.4383,1.5573
6.4357,1.4730
6.4699,1.3959
6.5342,1.3413
6.6158,1.3200
6.6210,1.3199
45.6599,1.2198
Z" /> 
</g>
</g>
</g>
<g style="fill:#000000; fill-opacity:1.0000; 
stroke:#000000; stroke-width:0.0000; stroke-opacity:1; 
stroke-linecap:round; stroke-linejoin:round;">
<circle cx="20.3835" cy="9.5885" r="0.5000" /> 
</g>
<g style="fill:#000000; fill-opacity:1.0000; 
stroke:#000000; stroke-width:0.0212; stroke-opacity:1; 
stroke-linecap:round; stroke-linejoin:round;">
</g>
<g style="fill:#000000; fill-opacity:1.0000; 
stroke:#000000; stroke-width:0.0000; stroke-opacity:1; 
stroke-linecap:round; stroke-linejoin:round;">
<circle cx="20.3835" cy="4.5885" r="0.5000" /> 
</g>
<g style="fill:#000000; fill-opacity:1.0000; 
stroke:#000000; stroke-width:0.0212; stroke-opacity:1; 
stroke-linecap:round; stroke-linejoin:round;">
</g>
<g style="fill:#000000; fill-opacity:1.0000; 
stroke:#000000; stroke-width:0.0000; stroke-opacity:1; 
stroke-linecap:round; stroke-linejoin:round;">
<circle cx="15.9385" cy="34.9885" r="0.4000" /> 
</g>
<g style="fill:#000000; fill-opacity:1.0000; 
stroke:#000000; stroke-width:0.0212; stroke-opacity:1; 
stroke-linecap:round; stroke-linejoin:round;">
</g>
<g style="fill:#000000; fill-opacity:1.0000; 
stroke:#000000; stroke-width:0.0000; stroke-opacity:1; 
stroke-linecap:round; stroke-linejoin:round;">
<circle cx="15.9385" cy="29.9885" r="0.4000" /> 
</g>
<g style="fill:#000000; fill-opacity:1.0000; 
stroke:#000000; stroke-width:0.0212; stroke-opacity:1; 
stroke-linecap:round; stroke-linejoin:round;">
</g>
<g style="fill:#000000; fill-opacity:1.0000; 
stroke:#000000; stroke-width:0.0000; stroke-opacity:1; 
stroke-linecap:round; stroke-linejoin:round;">
<circle cx="3.8735" cy="3.8735" r="1.6000" /> 
</g>
<g style="fill:#000000; fill-opacity:1.0000; 
stroke:#000000; stroke-width:0.0212; stroke-opacity:1; 
stroke-linecap:round; stroke-linejoin:round;">
</g>
<g style="fill:#000000; fill-opacity:1.0000; 
stroke:#000000; stroke-width:0.0000; stroke-opacity:1; 
stroke-linecap:round; stroke-linejoin:round;">
<circle cx="48.3235" cy="3.8735" r="1.6000" /> 
</g>
<g style="fill:#000000; fill-opacity:1.0000; 
stroke:#000000; stroke-width:0.0212; stroke-opacity:1; 
stroke-linecap:round; stroke-linejoin:round;">
</g>
<g style="fill:#000000; fill-opacity:1.0000; 
stroke:#000000; stroke-width:0.0000; stroke-opacity:1; 
stroke-linecap:round; stroke-linejoin:round;">
<circle cx="48.3235" cy="42.6085" r="1.6000" /> 
</g>
<g style="fill:#000000; fill-opacity:1.0000; 
stroke:#000000; stroke-width:0.0212; stroke-opacity:1; 
stroke-linecap:round; stroke-linejoin:round;">
</g>
<g style="fill:#000000; fill-opacity:1.0000; 
stroke:#000000; stroke-width:0.0000; stroke-opacity:1; 
stroke-linecap:round; stroke-linejoin:round;">
<circle cx="15.0495" cy="17.8435" r="0.4000" /> 
</g>
<g style="fill:#000000; fill-opacity:1.0000; 
stroke:#000000; stroke-width:0.0212; stroke-opacity:1; 
stroke-linecap:round; stroke-linejoin:round;">
</g>
<g style="fill:#000000; fill-opacity:1.0000; 
stroke:#000000; stroke-width:0.0000; stroke-opacity:1; 
stroke-linecap:round; stroke-linejoin:round;">
<circle cx="15.0495" cy="25.4635" r="0.4000" /> 
</g>
<g style="fill:#000000; fill-opacity:1.0000; 
stroke:#000000; stroke-width:0.0212; stroke-opacity:1; 
stroke-linecap:round; stroke-linejoin:round;">
</g>
<g style="fill:#000000; fill-opacity:1.0000; 
stroke:#000000; stroke-width:0.0000; stroke-opacity:1; 
stroke-linecap:round; stroke-linejoin:round;">
<circle cx="34.9885" cy="5.7785" r="0.4000" /> 
</g>
<g style="fill:#000000; fill-opacity:1.0000; 
stroke:#000000; stroke-width:0.0212; stroke-opacity:1; 
stroke-linecap:round; stroke-linejoin:round;">
</g>
<g style="fill:#000000; fill-opacity:1.0000; 
stroke:#000000; stroke-width:0.0000; stroke-opacity:1; 
stroke-linecap:round; stroke-linejoin:round;">
<circle cx="27.3685" cy="5.7785" r="0.4000" /> 
</g>
<g style="fill:#000000; fill-opacity:1.0000; 
stroke:#000000; stroke-width:0.0212; stroke-opacity:1; 
stroke-linecap:round; stroke-linejoin:round;">
</g>
<g style="fill:#000000; fill-opacity:1.0000; 
stroke:#000000; stroke-width:0.0000; stroke-opacity:1; 
stroke-linecap:round; stroke-linejoin:round;">
<circle cx="43.2435" cy="27.3685" r="0.4000" /> 
</g>
<g style="fill:#000000; fill-opacity:1.0000; 
stroke:#000000; stroke-width:0.0212; stroke-opacity:1; 
stroke-linecap:round; stroke-linejoin:round;">
</g>
<g style="fill:#000000; fill-opacity:1.0000; 
stroke:#000000; stroke-width:0.0000; stroke-opacity:1; 
stroke-linecap:round; stroke-linejoin:round;">
<circle cx="43.2435" cy="34.9885" r="0.4000" /> 
</g>
<g style="fill:#000000; fill-opacity:1.0000; 
stroke:#000000; stroke-width:0.0212; stroke-opacity:1; 
stroke-linecap:round; stroke-linejoin:round;">
</g>
<g style="fill:#000000; fill-opacity:1.0000; 
stroke:#000000; stroke-width:0.0000; stroke-opacity:1; 
stroke-linecap:round; stroke-linejoin:round;">
<circle cx="7.0485" cy="22.6695" r="0.7500" /> 
</g>
<g style="fill:#000000; fill-opacity:1.0000; 
stroke:#000000; stroke-width:0.0212; stroke-opacity:1; 
stroke-linecap:round; stroke-linejoin:round;">
</g>
<g style="fill:#000000; fill-opacity:1.0000; 
stroke:#000000; stroke-width:0.0000; stroke-opacity:1; 
stroke-linecap:round; stroke-linejoin:round;">
<circle cx="7.0485" cy="27.6695" r="0.7500" /> 
</g>
<g style="fill:#000000; fill-opacity:1.0000; 
stroke:#000000; stroke-width:0.0212; stroke-opacity:1; 
stroke-linecap:round; stroke-linejoin:round;">
</g>
<g style="fill:#000000; fill-opacity:1.0000; 
stroke:#000000; stroke-width:0.0000; stroke-opacity:1; 
stroke-linecap:round; stroke-linejoin:round;">
<circle cx="7.0485" cy="10.6045" r="0.7500" /> 
</g>
<g style="fill:#000000; fill-opacity:1.0000; 
stroke:#000000; stroke-width:0.0212; stroke-opacity:1; 
stroke-linecap:round; stroke-linejoin:round;">
</g>
<g style="fill:#000000; fill-opacity:1.0000; 
stroke:#000000; stroke-width:0.0000; stroke-opacity:1; 
stroke-linecap:round; stroke-linejoin:round;">
<circle cx="7.0485" cy="15.6045" r="0.7500" /> 
</g>
<g style="fill:#000000; fill-opacity:1.0000; 
stroke:#000000; stroke-width:0.0212; stroke-opacity:1; 
stroke-linecap:round; stroke-linejoin:round;">
</g>
<g style="fill:#000000; fill-opacity:1.0000; 
stroke:#000000; stroke-width:0.0000; stroke-opacity:1; 
stroke-linecap:round; stroke-linejoin:round;">
<circle cx="24.3205" cy="41.0845" r="0.7500" /> 
</g>
<g style="fill:#000000; fill-opacity:1.0000; 
stroke:#000000; stroke-width:0.0212; stroke-opacity:1; 
stroke-linecap:round; stroke-linejoin:round;">
</g>
<g style="fill:#000000; fill-opacity:1.0000; 
stroke:#000000; stroke-width:0.0000; stroke-opacity:1; 
stroke-linecap:round; stroke-linejoin:round;">
<circle cx="29.3205" cy="41.0845" r="0.7500" /> 
</g>
<g style="fill:#000000; fill-opacity:1.0000; 
stroke:#000000; stroke-width:0.0212; stroke-opacity:1; 
stroke-linecap:round; stroke-linejoin:round;">
</g>
<g style="fill:#000000; fill-opacity:1.0000; 
stroke:#000000; stroke-width:0.0000; stroke-opacity:1; 
stroke-linecap:round; stroke-linejoin:round;">
<circle cx="12.7635" cy="34.9885" r="0.4000" /> 
</g>
<g style="fill:#000000; fill-opacity:1.0000; 
stroke:#000000; stroke-width:0.0212; stroke-opacity:1; 
stroke-linecap:round; stroke-linejoin:round;">
</g>
<g style="fill:#000000; fill-opacity:1.0000; 
stroke:#000000; stroke-width:0.0000; stroke-opacity:1; 
stroke-linecap:round; stroke-linejoin:round;">
<circle cx="5.1435" cy="34.9885" r="0.4000" /> 
</g>
<g style="fill:#000000; fill-opacity:1.0000; 
stroke:#000000; stroke-width:0.0212; stroke-opacity:1; 
stroke-linecap:round; stroke-linejoin:round;">
</g>
<g style="fill:#000000; fill-opacity:1.0000; 
stroke:#000000; stroke-width:0.0000; stroke-opacity:1; 
stroke-linecap:round; stroke-linejoin:round;">
<circle cx="31.4535" cy="28.3585" r="0.5100" /> 
</g>
<g style="fill:#000000; fill-opacity:1.0000; 
stroke:#000000; stroke-width:0.0212; stroke-opacity:1; 
stroke-linecap:round; stroke-linejoin:round;">
</g>
<g style="fill:#000000; fill-opacity:1.0000; 
stroke:#000000; stroke-width:0.0000; stroke-opacity:1; 
stroke-linecap:round; stroke-linejoin:round;">
<circle cx="33.6035" cy="25.4285" r="0.5100" /> 
</g>
<g style="fill:#000000; fill-opacity:1.0000; 
stroke:#000000; stroke-width:0.0212; stroke-opacity:1; 
stroke-linecap:round; stroke-linejoin:round;">
</g>
<g style="fill:#000000; fill-opacity:1.0000; 
stroke:#000000; stroke-width:0.0000; stroke-opacity:1; 
stroke-linecap:round; stroke-linejoin:round;">
<circle cx="33.6035" cy="21.7785" r="0.5100" /> 
</g>
<g style="fill:#000000; fill-opacity:1.0000; 
stroke:#000000; stroke-width:0.0212; stroke-opacity:1; 
stroke-linecap:round; stroke-linejoin:round;">
</g>
<g style="fill:#000000; fill-opacity:1.0000; 
stroke:#000000; stroke-width:0.0000; stroke-opacity:1; 
stroke-linecap:round; stroke-linejoin:round;">
<circle cx="31.4535" cy="18.8485" r="0.5100" /> 
</g>
<g style="fill:#000000; fill-opacity:1.0000; 
stroke:#000000; stroke-width:0.0212; stroke-opacity:1; 
stroke-linecap:round; stroke-linejoin:round;">
</g>
<g style="fill:#000000; fill-opacity:1.0000; 
stroke:#000000; stroke-width:0.0000; stroke-opacity:1; 
stroke-linecap:round; stroke-linejoin:round;">
<circle cx="28.0035" cy="17.7085" r="0.5100" /> 
</g>
<g style="fill:#000000; fill-opacity:1.0000; 
stroke:#000000; stroke-width:0.0212; stroke-opacity:1; 
stroke-linecap:round; stroke-linejoin:round;">
</g>
<g style="fill:#000000; fill-opacity:1.0000; 
stroke:#000000; stroke-width:0.0000; stroke-opacity:1; 
stroke-linecap:round; stroke-linejoin:round;">
<circle cx="24.5435" cy="18.8485" r="0.5100" /> 
</g>
<g style="fill:#000000; fill-opacity:1.0000; 
stroke:#000000; stroke-width:0.0212; stroke-opacity:1; 
stroke-linecap:round; stroke-linejoin:round;">
</g>
<g style="fill:#000000; fill-opacity:1.0000; 
stroke:#000000; stroke-width:0.0000; stroke-opacity:1; 
stroke-linecap:round; stroke-linejoin:round;">
<circle cx="22.3935" cy="21.7785" r="0.5100" /> 
</g>
<g style="fill:#000000; fill-opacity:1.0000; 
stroke:#000000; stroke-width:0.0212; stroke-opacity:1; 
stroke-linecap:round; stroke-linejoin:round;">
</g>
<g style="fill:#000000; fill-opacity:1.0000; 
stroke:#000000; stroke-width:0.0000; stroke-opacity:1; 
stroke-linecap:round; stroke-linejoin:round;">
<circle cx="22.3935" cy="25.3885" r="0.5100" /> 
</g>
<g style="fill:#000000; fill-opacity:1.0000; 
stroke:#000000; stroke-width:0.0212; stroke-opacity:1; 
stroke-linecap:round; stroke-linejoin:round;">
</g>
<g style="fill:#000000; fill-opacity:1.0000; 
stroke:#000000; stroke-width:0.0000; stroke-opacity:1; 
stroke-linecap:round; stroke-linejoin:round;">
<circle cx="24.5435" cy="28.3585" r="0.5100" /> 
</g>
<g style="fill:#000000; fill-opacity:1.0000; 
stroke:#000000; stroke-width:0.0212; stroke-opacity:1; 
stroke-linecap:round; stroke-linejoin:round;">
</g>
<g style="fill:#000000; fill-opacity:1.0000; 
stroke:#000000; stroke-width:0.0000; stroke-opacity:1; 
stroke-linecap:round; stroke-linejoin:round;">
<circle cx="45.1485" cy="15.3035" r="0.7500" /> 
</g>
<g style="fill:#000000; fill-opacity:1.0000; 
stroke:#000000; stroke-width:0.0212; stroke-opacity:1; 
stroke-linecap:round; stroke-linejoin:round;">
</g>
<g style="fill:#000000; fill-opacity:1.0000; 
stroke:#000000; stroke-width:0.0000; stroke-opacity:1; 
stroke-linecap:round; stroke-linejoin:round;">
<circle cx="45.1485" cy="10.3035" r="0.7500" /> 
</g>
<g style="fill:#000000; fill-opacity:1.0000; 
stroke:#000000; stroke-width:0.0212; stroke-opacity:1; 
stroke-linecap:round; stroke-linejoin:round;">
</g>
<g style="fill:#000000; fill-opacity:1.0000; 
stroke:#000000; stroke-width:0.0000; stroke-opacity:1; 
stroke-linecap:round; stroke-linejoin:round;">
<circle cx="3.8735" cy="42.6085" r="1.6000" /> 
</g>
<g style="fill:#000000; fill-opacity:1.0000; 
stroke:#000000; stroke-width:0.0212; stroke-opacity:1; 
stroke-linecap:round; stroke-linejoin:round;">
</g>
<g style="fill:#FFFFFF; fill-opacity:1.0000; 
stroke:#FFFFFF; stroke-width:0.0212; stroke-opacity:1; 
stroke-linecap:round; stroke-linejoin:round;">
<g >
</g>
<g style="fill:#37CBCB; fill-opacity:1.0000; 
stroke:#37CBCB; stroke-width:0.0212; stroke-opacity:1; 
stroke-linecap:round; stroke-linejoin:round;">
</g>
<g style="fill:#37CBCB; fill-opacity:1.0000; 
stroke:#37CBCB; stroke-width:0.0000; stroke-opacity:1; 
stroke-linecap:round; stroke-linejoin:round;">
<path style="fill:#37CBCB; fill-opacity:1.0000; 
stroke:#37CBCB; stroke-width:0.0000; stroke-opacity:1; 
stroke-linecap:round; stroke-linejoin:round;fill-rule:evenodd;"
d="M 21.3835,10.5885
19.3835,10.5885
19.3835,8.5885
21.3835,8.5885
Z" /> 
<circle cx="20.3835" cy="4.5885" r="1.0000" /> 
</g>
<g style="fill:#37CBCB; fill-opacity:1.0000; 
stroke:#37CBCB; stroke-width:0.0212; stroke-opacity:1; 
stroke-linecap:round; stroke-linejoin:round;">
</g>
<g >
</g>
<g style="fill:#37CBCB; fill-opacity:1.0000; 
stroke:#37CBCB; stroke-width:0.0212; stroke-opacity:1; 
stroke-linecap:round; stroke-linejoin:round;">
</g>
<g style="fill:#37CBCB; fill-opacity:1.0000; 
stroke:#37CBCB; stroke-width:0.0000; stroke-opacity:1; 
stroke-linecap:round; stroke-linejoin:round;">
<circle cx="15.9385" cy="34.9885" r="0.8000" /> 
</g>
<g style="fill:#37CBCB; fill-opacity:1.0000; 
stroke:#37CBCB; stroke-width:0.0212; stroke-opacity:1; 
stroke-linecap:round; stroke-linejoin:round;">
</g>
<g style="fill:#37CBCB; fill-opacity:1.0000; 
stroke:#37CBCB; stroke-width:0.0000; stroke-opacity:1; 
stroke-linecap:round; stroke-linejoin:round;">
<circle cx="15.9385" cy="29.9885" r="0.8000" /> 
</g>
<g style="fill:#37CBCB; fill-opacity:1.0000; 
stroke:#37CBCB; stroke-width:0.0212; stroke-opacity:1; 
stroke-linecap:round; stroke-linejoin:round;">
</g>
<g >
</g>
<g style="fill:#37CBCB; fill-opacity:1.0000; 
stroke:#37CBCB; stroke-width:0.0212; stroke-opacity:1; 
stroke-linecap:round; stroke-linejoin:round;">
</g>
<g style="fill:#37CBCB; fill-opacity:1.0000; 
stroke:#37CBCB; stroke-width:0.0000; stroke-opacity:1; 
stroke-linecap:round; stroke-linejoin:round;">
<circle cx="3.8735" cy="3.8735" r="2.8000" /> 
</g>
<g style="fill:#37CBCB; fill-opacity:1.0000; 
stroke:#37CBCB; stroke-width:0.0212; stroke-opacity:1; 
stroke-linecap:round; stroke-linejoin:round;">
</g>
<g >
</g>
<g style="fill:#37CBCB; fill-opacity:1.0000; 
stroke:#37CBCB; stroke-width:0.0212; stroke-opacity:1; 
stroke-linecap:round; stroke-linejoin:round;">
</g>
<g style="fill:#37CBCB; fill-opacity:1.0000; 
stroke:#37CBCB; stroke-width:0.0000; stroke-opacity:1; 
stroke-linecap:round; stroke-linejoin:round;">
<circle cx="48.3235" cy="3.8735" r="2.8000" /> 
</g>
<g style="fill:#37CBCB; fill-opacity:1.0000; 
stroke:#37CBCB; stroke-width:0.0212; stroke-opacity:1; 
stroke-linecap:round; stroke-linejoin:round;">
</g>
<g >
</g>
<g style="fill:#37CBCB; fill-opacity:1.0000; 
stroke:#37CBCB; stroke-width:0.0212; stroke-opacity:1; 
stroke-linecap:round; stroke-linejoin:round;">
</g>
<g style="fill:#37CBCB; fill-opacity:1.0000; 
stroke:#37CBCB; stroke-width:0.0000; stroke-opacity:1; 
stroke-linecap:round; stroke-linejoin:round;">
<circle cx="48.3235" cy="42.6085" r="2.8000" /> 
</g>
<g style="fill:#37CBCB; fill-opacity:1.0000; 
stroke:#37CBCB; stroke-width:0.0212; stroke-opacity:1; 
stroke-linecap:round; stroke-linejoin:round;">
</g>
<g >
</g>
<g style="fill:#37CBCB; fill-opacity:1.0000; 
stroke:#37CBCB; stroke-width:0.0212; stroke-opacity:1; 
stroke-linecap:round; stroke-linejoin:round;">
</g>
<g style="fill:#37CBCB; fill-opacity:1.0000; 
stroke:#37CBCB; stroke-width:0.0000; stroke-opacity:1; 
stroke-linecap:round; stroke-linejoin:round;">
<circle cx="15.0495" cy="17.8435" r="0.8000" /> 
</g>
<g style="fill:#37CBCB; fill-opacity:1.0000; 
stroke:#37CBCB; stroke-width:0.0212; stroke-opacity:1; 
stroke-linecap:round; stroke-linejoin:round;">
</g>
<g style="fill:#37CBCB; fill-opacity:1.0000; 
stroke:#37CBCB; stroke-width:0.0000; stroke-opacity:1; 
stroke-linecap:round; stroke-linejoin:round;">
<circle cx="15.0495" cy="25.4635" r="0.8000" /> 
</g>
<g >
</g>
<g style="fill:#37CBCB; fill-opacity:1.0000; 
stroke:#37CBCB; stroke-width:0.0000; stroke-opacity:1; 
stroke-linecap:round; stroke-linejoin:round;">
<circle cx="34.9885" cy="5.7785" r="0.8000" /> 
</g>
<g style="fill:#37CBCB; fill-opacity:1.0000; 
stroke:#37CBCB; stroke-width:0.0212; stroke-opacity:1; 
stroke-linecap:round; stroke-linejoin:round;">
</g>
<g style="fill:#37CBCB; fill-opacity:1.0000; 
stroke:#37CBCB; stroke-width:0.0000; stroke-opacity:1; 
stroke-linecap:round; stroke-linejoin:round;">
<circle cx="27.3685" cy="5.7785" r="0.8000" /> 
</g>
<g >
</g>
<g style="fill:#37CBCB; fill-opacity:1.0000; 
stroke:#37CBCB; stroke-width:0.0000; stroke-opacity:1; 
stroke-linecap:round; stroke-linejoin:round;">
<circle cx="43.2435" cy="27.3685" r="0.8000" /> 
</g>
<g style="fill:#37CBCB; fill-opacity:1.0000; 
stroke:#37CBCB; stroke-width:0.0212; stroke-opacity:1; 
stroke-linecap:round; stroke-linejoin:round;">
</g>
<g style="fill:#37CBCB; fill-opacity:1.0000; 
stroke:#37CBCB; stroke-width:0.0000; stroke-opacity:1; 
stroke-linecap:round; stroke-linejoin:round;">
<circle cx="43.2435" cy="34.9885" r="0.8000" /> 
</g>
<g >
</g>
<g style="fill:#37CBCB; fill-opacity:1.0000; 
stroke:#37CBCB; stroke-width:0.0000; stroke-opacity:1; 
stroke-linecap:round; stroke-linejoin:round;">
<path style="fill:#37CBCB; fill-opacity:1.0000; 
stroke:#37CBCB; stroke-width:0.0000; stroke-opacity:1; 
stroke-linecap:round; stroke-linejoin:round;fill-rule:evenodd;"
d="M 5.5485,21.1695
8.5485,21.1695
8.5485,24.1695
5.5485,24.1695
Z" /> 
<circle cx="7.0485" cy="27.6695" r="1.5000" /> 
</g>
<g style="fill:#37CBCB; fill-opacity:1.0000; 
stroke:#37CBCB; stroke-width:0.0212; stroke-opacity:1; 
stroke-linecap:round; stroke-linejoin:round;">
</g>
<g >
</g>
<g style="fill:#37CBCB; fill-opacity:1.0000; 
stroke:#37CBCB; stroke-width:0.0212; stroke-opacity:1; 
stroke-linecap:round; stroke-linejoin:round;">
</g>
<g style="fill:#37CBCB; fill-opacity:1.0000; 
stroke:#37CBCB; stroke-width:0.0000; stroke-opacity:1; 
stroke-linecap:round; stroke-linejoin:round;">
<path style="fill:#37CBCB; fill-opacity:1.0000; 
stroke:#37CBCB; stroke-width:0.0000; stroke-opacity:1; 
stroke-linecap:round; stroke-linejoin:round;fill-rule:evenodd;"
d="M 5.5485,9.1045
8.5485,9.1045
8.5485,12.1045
5.5485,12.1045
Z" /> 
<circle cx="7.0485" cy="15.6045" r="1.5000" /> 
</g>
<g style="fill:#37CBCB; fill-opacity:1.0000; 
stroke:#37CBCB; stroke-width:0.0212; stroke-opacity:1; 
stroke-linecap:round; stroke-linejoin:round;">
</g>
<g >
</g>
<g style="fill:#37CBCB; fill-opacity:1.0000; 
stroke:#37CBCB; stroke-width:0.0212; stroke-opacity:1; 
stroke-linecap:round; stroke-linejoin:round;">
</g>
<g style="fill:#37CBCB; fill-opacity:1.0000; 
stroke:#37CBCB; stroke-width:0.0000; stroke-opacity:1; 
stroke-linecap:round; stroke-linejoin:round;">
<path style="fill:#37CBCB; fill-opacity:1.0000; 
stroke:#37CBCB; stroke-width:0.0000; stroke-opacity:1; 
stroke-linecap:round; stroke-linejoin:round;fill-rule:evenodd;"
d="M 22.8205,42.5845
22.8205,39.5845
25.8205,39.5845
25.8205,42.5845
Z" /> 
<circle cx="29.3205" cy="41.0845" r="1.5000" /> 
</g>
<g style="fill:#37CBCB; fill-opacity:1.0000; 
stroke:#37CBCB; stroke-width:0.0212; stroke-opacity:1; 
stroke-linecap:round; stroke-linejoin:round;">
</g>
<g >
</g>
<g style="fill:#37CBCB; fill-opacity:1.0000; 
stroke:#37CBCB; stroke-width:0.0212; stroke-opacity:1; 
stroke-linecap:round; stroke-linejoin:round;">
</g>
<g style="fill:#37CBCB; fill-opacity:1.0000; 
stroke:#37CBCB; stroke-width:0.0000; stroke-opacity:1; 
stroke-linecap:round; stroke-linejoin:round;">
<circle cx="12.7635" cy="34.9885" r="0.8000" /> 
</g>
<g style="fill:#37CBCB; fill-opacity:1.0000; 
stroke:#37CBCB; stroke-width:0.0212; stroke-opacity:1; 
stroke-linecap:round; stroke-linejoin:round;">
</g>
<g style="fill:#37CBCB; fill-opacity:1.0000; 
stroke:#37CBCB; stroke-width:0.0000; stroke-opacity:1; 
stroke-linecap:round; stroke-linejoin:round;">
<circle cx="5.1435" cy="34.9885" r="0.8000" /> 
</g>
<g >
</g>
<g style="fill:#37CBCB; fill-opacity:1.0000; 
stroke:#37CBCB; stroke-width:0.0000; stroke-opacity:1; 
stroke-linecap:round; stroke-linejoin:round;">
<circle cx="31.4535" cy="28.3585" r="1.0150" /> 
</g>
<g style="fill:#37CBCB; fill-opacity:1.0000; 
stroke:#37CBCB; stroke-width:0.0212; stroke-opacity:1; 
stroke-linecap:round; stroke-linejoin:round;">
</g>
<g style="fill:#37CBCB; fill-opacity:1.0000; 
stroke:#37CBCB; stroke-width:0.0000; stroke-opacity:1; 
stroke-linecap:round; stroke-linejoin:round;">
<circle cx="33.6035" cy="25.4285" r="1.0150" /> 
</g>
<g style="fill:#37CBCB; fill-opacity:1.0000; 
stroke:#37CBCB; stroke-width:0.0212; stroke-opacity:1; 
stroke-linecap:round; stroke-linejoin:round;">
</g>
<g style="fill:#37CBCB; fill-opacity:1.0000; 
stroke:#37CBCB; stroke-width:0.0000; stroke-opacity:1; 
stroke-linecap:round; stroke-linejoin:round;">
<circle cx="33.6035" cy="21.7785" r="1.0150" /> 
</g>
<g style="fill:#37CBCB; fill-opacity:1.0000; 
stroke:#37CBCB; stroke-width:0.0212; stroke-opacity:1; 
stroke-linecap:round; stroke-linejoin:round;">
</g>
<g style="fill:#37CBCB; fill-opacity:1.0000; 
stroke:#37CBCB; stroke-width:0.0000; stroke-opacity:1; 
stroke-linecap:round; stroke-linejoin:round;">
<circle cx="31.4535" cy="18.8485" r="1.0150" /> 
</g>
<g style="fill:#37CBCB; fill-opacity:1.0000; 
stroke:#37CBCB; stroke-width:0.0212; stroke-opacity:1; 
stroke-linecap:round; stroke-linejoin:round;">
</g>
<g style="fill:#37CBCB; fill-opacity:1.0000; 
stroke:#37CBCB; stroke-width:0.0000; stroke-opacity:1; 
stroke-linecap:round; stroke-linejoin:round;">
<circle cx="28.0035" cy="17.7085" r="1.0150" /> 
</g>
<g style="fill:#37CBCB; fill-opacity:1.0000; 
stroke:#37CBCB; stroke-width:0.0212; stroke-opacity:1; 
stroke-linecap:round; stroke-linejoin:round;">
</g>
<g style="fill:#37CBCB; fill-opacity:1.0000; 
stroke:#37CBCB; stroke-width:0.0000; stroke-opacity:1; 
stroke-linecap:round; stroke-linejoin:round;">
<circle cx="24.5435" cy="18.8485" r="1.0150" /> 
</g>
<g style="fill:#37CBCB; fill-opacity:1.0000; 
stroke:#37CBCB; stroke-width:0.0212; stroke-opacity:1; 
stroke-linecap:round; stroke-linejoin:round;">
</g>
<g style="fill:#37CBCB; fill-opacity:1.0000; 
stroke:#37CBCB; stroke-width:0.0000; stroke-opacity:1; 
stroke-linecap:round; stroke-linejoin:round;">
<circle cx="22.3935" cy="21.7785" r="1.0150" /> 
</g>
<g style="fill:#37CBCB; fill-opacity:1.0000; 
stroke:#37CBCB; stroke-width:0.0212; stroke-opacity:1; 
stroke-linecap:round; stroke-linejoin:round;">
</g>
<g style="fill:#37CBCB; fill-opacity:1.0000; 
stroke:#37CBCB; stroke-width:0.0000; stroke-opacity:1; 
stroke-linecap:round; stroke-linejoin:round;">
<circle cx="22.3935" cy="25.3885" r="1.0150" /> 
</g>
<g style="fill:#37CBCB; fill-opacity:1.0000; 
stroke:#37CBCB; stroke-width:0.0212; stroke-opacity:1; 
stroke-linecap:round; stroke-linejoin:round;">
</g>
<g style="fill:#37CBCB; fill-opacity:1.0000; 
stroke:#37CBCB; stroke-width:0.0000; stroke-opacity:1; 
stroke-linecap:round; stroke-linejoin:round;">
<circle cx="24.5435" cy="28.3585" r="1.0150" /> 
</g>
<g style="fill:#37CBCB; fill-opacity:1.0000; 
stroke:#37CBCB; stroke-width:0.0212; stroke-opacity:1; 
stroke-linecap:round; stroke-linejoin:round;">
</g>
<g >
</g>
<g style="fill:#37CBCB; fill-opacity:1.0000; 
stroke:#37CBCB; stroke-width:0.0212; stroke-opacity:1; 
stroke-linecap:round; stroke-linejoin:round;">
</g>
<g style="fill:#37CBCB; fill-opacity:1.0000; 
stroke:#37CBCB; stroke-width:0.0000; stroke-opacity:1; 
stroke-linecap:round; stroke-linejoin:round;">
<path style="fill:#37CBCB; fill-opacity:1.0000; 
stroke:#37CBCB; stroke-width:0.0000; stroke-opacity:1; 
stroke-linecap:round; stroke-linejoin:round;fill-rule:evenodd;"
d="M 46.6485,16.8035
43.6485,16.8035
43.6485,13.8035
46.6485,13.8035
Z" /> 
<circle cx="45.1485" cy="10.3035" r="1.5000" /> 
</g>
<g style="fill:#37CBCB; fill-opacity:1.0000; 
stroke:#37CBCB; stroke-width:0.0212; stroke-opacity:1; 
stroke-linecap:round; stroke-linejoin:round;">
</g>
<g >
</g>
<g style="fill:#37CBCB; fill-opacity:1.0000; 
stroke:#37CBCB; stroke-width:0.0212; stroke-opacity:1; 
stroke-linecap:round; stroke-linejoin:round;">
</g>
<g style="fill:#37CBCB; fill-opacity:1.0000; 
stroke:#37CBCB; stroke-width:0.0000; stroke-opacity:1; 
stroke-linecap:round; stroke-linejoin:round;">
<circle cx="3.8735" cy="42.6085" r="2.8000" /> 
</g>
<g style="fill:#37CBCB; fill-opacity:1.0000; 
stroke:#37CBCB; stroke-width:0.0212; stroke-opacity:1; 
stroke-linecap:round; stroke-linejoin:round;">
</g>
<g >
</g>
<g >
</g>
<g >
</g>
</g>
<g style="fill:#000000; fill-opacity:1.0000; 
stroke:#000000; stroke-width:0.0212; stroke-opacity:1; 
stroke-linecap:round; stroke-linejoin:round;">
</g>
<g style="fill:#000000; fill-opacity:1.0000; 
stroke:#000000; stroke-width:0.0000; stroke-opacity:1; 
stroke-linecap:round; stroke-linejoin:round;">
<circle cx="20.3835" cy="9.5885" r="0.5000" /> 
</g>
<g style="fill:#000000; fill-opacity:1.0000; 
stroke:#000000; stroke-width:0.0212; stroke-opacity:1; 
stroke-linecap:round; stroke-linejoin:round;">
</g>
<g style="fill:#000000; fill-opacity:1.0000; 
stroke:#000000; stroke-width:0.0000; stroke-opacity:1; 
stroke-linecap:round; stroke-linejoin:round;">
<circle cx="20.3835" cy="4.5885" r="0.5000" /> 
</g>
<g style="fill:#000000; fill-opacity:1.0000; 
stroke:#000000; stroke-width:0.0212; stroke-opacity:1; 
stroke-linecap:round; stroke-linejoin:round;">
</g>
<g style="fill:#000000; fill-opacity:1.0000; 
stroke:#000000; stroke-width:0.0000; stroke-opacity:1; 
stroke-linecap:round; stroke-linejoin:round;">
<circle cx="15.9385" cy="34.9885" r="0.4000" /> 
</g>
<g style="fill:#000000; fill-opacity:1.0000; 
stroke:#000000; stroke-width:0.0212; stroke-opacity:1; 
stroke-linecap:round; stroke-linejoin:round;">
</g>
<g style="fill:#000000; fill-opacity:1.0000; 
stroke:#000000; stroke-width:0.0000; stroke-opacity:1; 
stroke-linecap:round; stroke-linejoin:round;">
<circle cx="15.9385" cy="29.9885" r="0.4000" /> 
</g>
<g style="fill:#000000; fill-opacity:1.0000; 
stroke:#000000; stroke-width:0.0212; stroke-opacity:1; 
stroke-linecap:round; stroke-linejoin:round;">
</g>
<g style="fill:#000000; fill-opacity:1.0000; 
stroke:#000000; stroke-width:0.0000; stroke-opacity:1; 
stroke-linecap:round; stroke-linejoin:round;">
<circle cx="3.8735" cy="3.8735" r="1.6000" /> 
</g>
<g style="fill:#000000; fill-opacity:1.0000; 
stroke:#000000; stroke-width:0.0212; stroke-opacity:1; 
stroke-linecap:round; stroke-linejoin:round;">
</g>
<g style="fill:#000000; fill-opacity:1.0000; 
stroke:#000000; stroke-width:0.0000; stroke-opacity:1; 
stroke-linecap:round; stroke-linejoin:round;">
<circle cx="48.3235" cy="3.8735" r="1.6000" /> 
</g>
<g style="fill:#000000; fill-opacity:1.0000; 
stroke:#000000; stroke-width:0.0212; stroke-opacity:1; 
stroke-linecap:round; stroke-linejoin:round;">
</g>
<g style="fill:#000000; fill-opacity:1.0000; 
stroke:#000000; stroke-width:0.0000; stroke-opacity:1; 
stroke-linecap:round; stroke-linejoin:round;">
<circle cx="48.3235" cy="42.6085" r="1.6000" /> 
</g>
<g style="fill:#000000; fill-opacity:1.0000; 
stroke:#000000; stroke-width:0.0212; stroke-opacity:1; 
stroke-linecap:round; stroke-linejoin:round;">
</g>
<g style="fill:#000000; fill-opacity:1.0000; 
stroke:#000000; stroke-width:0.0000; stroke-opacity:1; 
stroke-linecap:round; stroke-linejoin:round;">
<circle cx="15.0495" cy="17.8435" r="0.4000" /> 
</g>
<g style="fill:#000000; fill-opacity:1.0000; 
stroke:#000000; stroke-width:0.0212; stroke-opacity:1; 
stroke-linecap:round; stroke-linejoin:round;">
</g>
<g style="fill:#000000; fill-opacity:1.0000; 
stroke:#000000; stroke-width:0.0000; stroke-opacity:1; 
stroke-linecap:round; stroke-linejoin:round;">
<circle cx="15.0495" cy="25.4635" r="0.4000" /> 
</g>
<g style="fill:#000000; fill-opacity:1.0000; 
stroke:#000000; stroke-width:0.0212; stroke-opacity:1; 
stroke-linecap:round; stroke-linejoin:round;">
</g>
<g style="fill:#000000; fill-opacity:1.0000; 
stroke:#000000; stroke-width:0.0000; stroke-opacity:1; 
stroke-linecap:round; stroke-linejoin:round;">
<circle cx="34.9885" cy="5.7785" r="0.4000" /> 
</g>
<g style="fill:#000000; fill-opacity:1.0000; 
stroke:#000000; stroke-width:0.0212; stroke-opacity:1; 
stroke-linecap:round; stroke-linejoin:round;">
</g>
<g style="fill:#000000; fill-opacity:1.0000; 
stroke:#000000; stroke-width:0.0000; stroke-opacity:1; 
stroke-linecap:round; stroke-linejoin:round;">
<circle cx="27.3685" cy="5.7785" r="0.4000" /> 
</g>
<g style="fill:#000000; fill-opacity:1.0000; 
stroke:#000000; stroke-width:0.0212; stroke-opacity:1; 
stroke-linecap:round; stroke-linejoin:round;">
</g>
<g style="fill:#000000; fill-opacity:1.0000; 
stroke:#000000; stroke-width:0.0000; stroke-opacity:1; 
stroke-linecap:round; stroke-linejoin:round;">
<circle cx="43.2435" cy="27.3685" r="0.4000" /> 
</g>
<g style="fill:#000000; fill-opacity:1.0000; 
stroke:#000000; stroke-width:0.0212; stroke-opacity:1; 
stroke-linecap:round; stroke-linejoin:round;">
</g>
<g style="fill:#000000; fill-opacity:1.0000; 
stroke:#000000; stroke-width:0.0000; stroke-opacity:1; 
stroke-linecap:round; stroke-linejoin:round;">
<circle cx="43.2435" cy="34.9885" r="0.4000" /> 
</g>
<g style="fill:#000000; fill-opacity:1.0000; 
stroke:#000000; stroke-width:0.0212; stroke-opacity:1; 
stroke-linecap:round; stroke-linejoin:round;">
</g>
<g style="fill:#000000; fill-opacity:1.0000; 
stroke:#000000; stroke-width:0.0000; stroke-opacity:1; 
stroke-linecap:round; stroke-linejoin:round;">
<circle cx="7.0485" cy="22.6695" r="0.7500" /> 
</g>
<g style="fill:#000000; fill-opacity:1.0000; 
stroke:#000000; stroke-width:0.0212; stroke-opacity:1; 
stroke-linecap:round; stroke-linejoin:round;">
</g>
<g style="fill:#000000; fill-opacity:1.0000; 
stroke:#000000; stroke-width:0.0000; stroke-opacity:1; 
stroke-linecap:round; stroke-linejoin:round;">
<circle cx="7.0485" cy="27.6695" r="0.7500" /> 
</g>
<g style="fill:#000000; fill-opacity:1.0000; 
stroke:#000000; stroke-width:0.0212; stroke-opacity:1; 
stroke-linecap:round; stroke-linejoin:round;">
</g>
<g style="fill:#000000; fill-opacity:1.0000; 
stroke:#000000; stroke-width:0.0000; stroke-opacity:1; 
stroke-linecap:round; stroke-linejoin:round;">
<circle cx="7.0485" cy="10.6045" r="0.7500" /> 
</g>
<g style="fill:#000000; fill-opacity:1.0000; 
stroke:#000000; stroke-width:0.0212; stroke-opacity:1; 
stroke-linecap:round; stroke-linejoin:round;">
</g>
<g style="fill:#000000; fill-opacity:1.0000; 
stroke:#000000; stroke-width:0.0000; stroke-opacity:1; 
stroke-linecap:round; stroke-linejoin:round;">
<circle cx="7.0485" cy="15.6045" r="0.7500" /> 
</g>
<g style="fill:#000000; fill-opacity:1.0000; 
stroke:#000000; stroke-width:0.0212; stroke-opacity:1; 
stroke-linecap:round; stroke-linejoin:round;">
</g>
<g style="fill:#000000; fill-opacity:1.0000; 
stroke:#000000; stroke-width:0.0000; stroke-opacity:1; 
stroke-linecap:round; stroke-linejoin:round;">
<circle cx="24.3205" cy="41.0845" r="0.7500" /> 
</g>
<g style="fill:#000000; fill-opacity:1.0000; 
stroke:#000000; stroke-width:0.0212; stroke-opacity:1; 
stroke-linecap:round; stroke-linejoin:round;">
</g>
<g style="fill:#000000; fill-opacity:1.0000; 
stroke:#000000; stroke-width:0.0000; stroke-opacity:1; 
stroke-linecap:round; stroke-linejoin:round;">
<circle cx="29.3205" cy="41.0845" r="0.7500" /> 
</g>
<g style="fill:#000000; fill-opacity:1.0000; 
stroke:#000000; stroke-width:0.0212; stroke-opacity:1; 
stroke-linecap:round; stroke-linejoin:round;">
</g>
<g style="fill:#000000; fill-opacity:1.0000; 
stroke:#000000; stroke-width:0.0000; stroke-opacity:1; 
stroke-linecap:round; stroke-linejoin:round;">
<circle cx="12.7635" cy="34.9885" r="0.4000" /> 
</g>
<g style="fill:#000000; fill-opacity:1.0000; 
stroke:#000000; stroke-width:0.0212; stroke-opacity:1; 
stroke-linecap:round; stroke-linejoin:round;">
</g>
<g style="fill:#000000; fill-opacity:1.0000; 
stroke:#000000; stroke-width:0.0000; stroke-opacity:1; 
stroke-linecap:round; stroke-linejoin:round;">
<circle cx="5.1435" cy="34.9885" r="0.4000" /> 
</g>
<g style="fill:#000000; fill-opacity:1.0000; 
stroke:#000000; stroke-width:0.0212; stroke-opacity:1; 
stroke-linecap:round; stroke-linejoin:round;">
</g>
<g style="fill:#000000; fill-opacity:1.0000; 
stroke:#000000; stroke-width:0.0000; stroke-opacity:1; 
stroke-linecap:round; stroke-linejoin:round;">
<circle cx="31.4535" cy="28.3585" r="0.5100" /> 
</g>
<g style="fill:#000000; fill-opacity:1.0000; 
stroke:#000000; stroke-width:0.0212; stroke-opacity:1; 
stroke-linecap:round; stroke-linejoin:round;">
</g>
<g style="fill:#000000; fill-opacity:1.0000; 
stroke:#000000; stroke-width:0.0000; stroke-opacity:1; 
stroke-linecap:round; stroke-linejoin:round;">
<circle cx="33.6035" cy="25.4285" r="0.5100" /> 
</g>
<g style="fill:#000000; fill-opacity:1.0000; 
stroke:#000000; stroke-width:0.0212; stroke-opacity:1; 
stroke-linecap:round; stroke-linejoin:round;">
</g>
<g style="fill:#000000; fill-opacity:1.0000; 
stroke:#000000; stroke-width:0.0000; stroke-opacity:1; 
stroke-linecap:round; stroke-linejoin:round;">
<circle cx="33.6035" cy="21.7785" r="0.5100" /> 
</g>
<g style="fill:#000000; fill-opacity:1.0000; 
stroke:#000000; stroke-width:0.0212; stroke-opacity:1; 
stroke-linecap:round; stroke-linejoin:round;">
</g>
<g style="fill:#000000; fill-opacity:1.0000; 
stroke:#000000; stroke-width:0.0000; stroke-opacity:1; 
stroke-linecap:round; stroke-linejoin:round;">
<circle cx="31.4535" cy="18.8485" r="0.5100" /> 
</g>
<g style="fill:#000000; fill-opacity:1.0000; 
stroke:#000000; stroke-width:0.0212; stroke-opacity:1; 
stroke-linecap:round; stroke-linejoin:round;">
</g>
<g style="fill:#000000; fill-opacity:1.0000; 
stroke:#000000; stroke-width:0.0000; stroke-opacity:1; 
stroke-linecap:round; stroke-linejoin:round;">
<circle cx="28.0035" cy="17.7085" r="0.5100" /> 
</g>
<g style="fill:#000000; fill-opacity:1.0000; 
stroke:#000000; stroke-width:0.0212; stroke-opacity:1; 
stroke-linecap:round; stroke-linejoin:round;">
</g>
<g style="fill:#000000; fill-opacity:1.0000; 
stroke:#000000; stroke-width:0.0000; stroke-opacity:1; 
stroke-linecap:round; stroke-linejoin:round;">
<circle cx="24.5435" cy="18.8485" r="0.5100" /> 
</g>
<g style="fill:#000000; fill-opacity:1.0000; 
stroke:#000000; stroke-width:0.0212; stroke-opacity:1; 
stroke-linecap:round; stroke-linejoin:round;">
</g>
<g style="fill:#000000; fill-opacity:1.0000; 
stroke:#000000; stroke-width:0.0000; stroke-opacity:1; 
stroke-linecap:round; stroke-linejoin:round;">
<circle cx="22.3935" cy="21.7785" r="0.5100" /> 
</g>
<g style="fill:#000000; fill-opacity:1.0000; 
stroke:#000000; stroke-width:0.0212; stroke-opacity:1; 
stroke-linecap:round; stroke-linejoin:round;">
</g>
<g style="fill:#000000; fill-opacity:1.0000; 
stroke:#000000; stroke-width:0.0000; stroke-opacity:1; 
stroke-linecap:round; stroke-linejoin:round;">
<circle cx="22.3935" cy="25.3885" r="0.5100" /> 
</g>
<g style="fill:#000000; fill-opacity:1.0000; 
stroke:#000000; stroke-width:0.0212; stroke-opacity:1; 
stroke-linecap:round; stroke-linejoin:round;">
</g>
<g style="fill:#000000; fill-opacity:1.0000; 
stroke:#000000; stroke-width:0.0000; stroke-opacity:1; 
stroke-linecap:round; stroke-linejoin:round;">
<circle cx="24.5435" cy="28.3585" r="0.5100" /> 
</g>
<g style="fill:#000000; fill-opacity:1.0000; 
stroke:#000000; stroke-width:0.0212; stroke-opacity:1; 
stroke-linecap:round; stroke-linejoin:round;">
</g>
<g style="fill:#000000; fill-opacity:1.0000; 
stroke:#000000; stroke-width:0.0000; stroke-opacity:1; 
stroke-linecap:round; stroke-linejoin:round;">
<circle cx="45.1485" cy="15.3035" r="0.7500" /> 
</g>
<g style="fill:#000000; fill-opacity:1.0000; 
stroke:#000000; stroke-width:0.0212; stroke-opacity:1; 
stroke-linecap:round; stroke-linejoin:round;">
</g>
<g style="fill:#000000; fill-opacity:1.0000; 
stroke:#000000; stroke-width:0.0000; stroke-opacity:1; 
stroke-linecap:round; stroke-linejoin:round;">
<circle cx="45.1485" cy="10.3035" r="0.7500" /> 
</g>
<g style="fill:#000000; fill-opacity:1.0000; 
stroke:#000000; stroke-width:0.0212; stroke-opacity:1; 
stroke-linecap:round; stroke-linejoin:round;">
</g>
<g style="fill:#000000; fill-opacity:1.0000; 
stroke:#000000; stroke-width:0.0000; stroke-opacity:1; 
stroke-linecap:round; stroke-linejoin:round;">
<circle cx="3.8735" cy="42.6085" r="1.6000" /> 
</g>
<g style="fill:#000000; fill-opacity:1.0000; 
stroke:#000000; stroke-width:0.0212; stroke-opacity:1; 
stroke-linecap:round; stroke-linejoin:round;">
</g>
<g style="fill:#FFFFFF; fill-opacity:1.0000; 
stroke:#FFFFFF; stroke-width:0.0212; stroke-opacity:1; 
stroke-linecap:round; stroke-linejoin:round;">
<g >
</g>
<g >
</g>
<g >
</g>
<g >
</g>
<g >
</g>
<g >
</g>
<g >
</g>
<g >
</g>
<g >
</g>
<g >
</g>
<g >
</g>
<g >
</g>
<g >
</g>
<g >
</g>
<g >
</g>
<g >
</g>
<g >
</g>
<g >
</g>
</g>
<g style="fill:#FFFFFF; fill-opacity:1.0000; 
stroke:#FFFFFF; stroke-width:0.0212; stroke-opacity:1; 
stroke-linecap:round; stroke-linejoin:round;">
</g>
<g style="fill:#2F2D31; fill-opacity:1.0000; 
stroke:#2F2D31; stroke-width:0.0212; stroke-opacity:1; 
stroke-linecap:round; stroke-linejoin:round;">
</g>
<g style="fill:#2F2D31; fill-opacity:1.0000; 
stroke:#2F2D31; stroke-width:0.1270; stroke-opacity:1; 
stroke-linecap:round; stroke-linejoin:round;">
</g>
<g style="fill:#2F2D31; fill-opacity:0.0; 
stroke:#2F2D31; stroke-width:0.1270; stroke-opacity:1; 
stroke-linecap:round; stroke-linejoin:round;">
<path d="M52.1335 0.0635
L52.1335 46.4185
" />
<path d="M0.0635 0.0635
L0.0635 46.4185
" />
<path d="M52.1335 0.0635
L0.0635 0.0635
" />
<path d="M0.0635 46.4185
L52.1335 46.4185
" />
<g >
</g>
<g >
</g>
<g >
</g>
<g >
</g>
<g >
</g>
<g >
</g>
<g >
</g>
<g >
</g>
<g >
</g>
<g >
</g>
<g >
</g>
<g >
</g>
<g >
</g>
<g >
</g>
<g >
</g>
<g >
</g>
<g >
</g>
<g >
</g>
</g> 
</svg>
