<?xml version="1.0" standalone="no"?>
 <!DOCTYPE svg PUBLIC "-//W3C//DTD SVG 1.1//EN" 
 "http://www.w3.org/Graphics/SVG/1.1/DTD/svg11.dtd"> 
<svg
  xmlns:svg="http://www.w3.org/2000/svg"
  xmlns="http://www.w3.org/2000/svg"
  xmlns:xlink="http://www.w3.org/1999/xlink"
  version="1.1"
  width="53.4924mm" height="49.4284mm" viewBox="0.0000 0.0000 53.4924 49.4284">
<title>SVG Image created as working-brd.svg date 2023/09/26 21:28:11 </title>
  <desc>Image generated by PCBNEW </desc>
<g style="fill:#000000; fill-opacity:1.0000;stroke:#000000; stroke-opacity:1.0000;
stroke-linecap:round; stroke-linejoin:round;"
 transform="translate(0 0) scale(1 1)">
</g>
<g style="fill:#000000; fill-opacity:0.0; 
stroke:#000000; stroke-width:0.0000; stroke-opacity:1; 
stroke-linecap:round; stroke-linejoin:round;">
</g>
<g style="fill:#000000; fill-opacity:1.0000; 
stroke:#000000; stroke-width:0.0212; stroke-opacity:1; 
stroke-linecap:round; stroke-linejoin:round;">
<rect x="-5.000000" y="-5.000000" width="63.496750" height="59.432750" rx="0.000000" />
</g>
<g style="fill:#FFFFFF; fill-opacity:1.0000; 
stroke:#FFFFFF; stroke-width:0.0212; stroke-opacity:1; 
stroke-linecap:round; stroke-linejoin:round;">
<g >
</g>
<g style="fill:#B2803A; fill-opacity:1.0000; 
stroke:#B2803A; stroke-width:0.0212; stroke-opacity:1; 
stroke-linecap:round; stroke-linejoin:round;">
</g>
<g style="fill:#B2803A; fill-opacity:1.0000; 
stroke:#B2803A; stroke-width:0.0000; stroke-opacity:1; 
stroke-linecap:round; stroke-linejoin:round;">
<path style="fill:#B2803A; fill-opacity:1.0000; 
stroke:#B2803A; stroke-width:0.0000; stroke-opacity:1; 
stroke-linecap:round; stroke-linejoin:round;fill-rule:evenodd;"
d="M 21.3835,10.5885
19.3835,10.5885
19.3835,8.5885
21.3835,8.5885
Z" /> 
<circle cx="20.3835" cy="4.5885" r="1.0000" /> 
</g>
<g style="fill:#B2803A; fill-opacity:1.0000; 
stroke:#B2803A; stroke-width:0.0212; stroke-opacity:1; 
stroke-linecap:round; stroke-linejoin:round;">
</g>
<g >
</g>
<g style="fill:#B2803A; fill-opacity:1.0000; 
stroke:#B2803A; stroke-width:0.0212; stroke-opacity:1; 
stroke-linecap:round; stroke-linejoin:round;">
</g>
<g style="fill:#B2803A; fill-opacity:1.0000; 
stroke:#B2803A; stroke-width:0.0000; stroke-opacity:1; 
stroke-linecap:round; stroke-linejoin:round;">
<circle cx="15.9385" cy="34.9885" r="0.8000" /> 
</g>
<g style="fill:#B2803A; fill-opacity:1.0000; 
stroke:#B2803A; stroke-width:0.0212; stroke-opacity:1; 
stroke-linecap:round; stroke-linejoin:round;">
</g>
<g style="fill:#B2803A; fill-opacity:1.0000; 
stroke:#B2803A; stroke-width:0.0000; stroke-opacity:1; 
stroke-linecap:round; stroke-linejoin:round;">
<circle cx="15.9385" cy="29.9885" r="0.8000" /> 
</g>
<g style="fill:#B2803A; fill-opacity:1.0000; 
stroke:#B2803A; stroke-width:0.0212; stroke-opacity:1; 
stroke-linecap:round; stroke-linejoin:round;">
</g>
<g >
</g>
<g style="fill:#B2803A; fill-opacity:1.0000; 
stroke:#B2803A; stroke-width:0.0212; stroke-opacity:1; 
stroke-linecap:round; stroke-linejoin:round;">
</g>
<g style="fill:#B2803A; fill-opacity:1.0000; 
stroke:#B2803A; stroke-width:0.0000; stroke-opacity:1; 
stroke-linecap:round; stroke-linejoin:round;">
<circle cx="3.8735" cy="3.8735" r="2.8000" /> 
</g>
<g style="fill:#B2803A; fill-opacity:1.0000; 
stroke:#B2803A; stroke-width:0.0212; stroke-opacity:1; 
stroke-linecap:round; stroke-linejoin:round;">
</g>
<g >
</g>
<g style="fill:#B2803A; fill-opacity:1.0000; 
stroke:#B2803A; stroke-width:0.0212; stroke-opacity:1; 
stroke-linecap:round; stroke-linejoin:round;">
</g>
<g style="fill:#B2803A; fill-opacity:1.0000; 
stroke:#B2803A; stroke-width:0.0000; stroke-opacity:1; 
stroke-linecap:round; stroke-linejoin:round;">
<circle cx="48.3235" cy="3.8735" r="2.8000" /> 
</g>
<g style="fill:#B2803A; fill-opacity:1.0000; 
stroke:#B2803A; stroke-width:0.0212; stroke-opacity:1; 
stroke-linecap:round; stroke-linejoin:round;">
</g>
<g >
</g>
<g style="fill:#B2803A; fill-opacity:1.0000; 
stroke:#B2803A; stroke-width:0.0212; stroke-opacity:1; 
stroke-linecap:round; stroke-linejoin:round;">
</g>
<g style="fill:#B2803A; fill-opacity:1.0000; 
stroke:#B2803A; stroke-width:0.0000; stroke-opacity:1; 
stroke-linecap:round; stroke-linejoin:round;">
<circle cx="48.3235" cy="42.6085" r="2.8000" /> 
</g>
<g style="fill:#B2803A; fill-opacity:1.0000; 
stroke:#B2803A; stroke-width:0.0212; stroke-opacity:1; 
stroke-linecap:round; stroke-linejoin:round;">
</g>
<g >
</g>
<g style="fill:#B2803A; fill-opacity:1.0000; 
stroke:#B2803A; stroke-width:0.0212; stroke-opacity:1; 
stroke-linecap:round; stroke-linejoin:round;">
</g>
<g style="fill:#B2803A; fill-opacity:1.0000; 
stroke:#B2803A; stroke-width:0.0000; stroke-opacity:1; 
stroke-linecap:round; stroke-linejoin:round;">
<circle cx="15.0495" cy="17.8435" r="0.8000" /> 
</g>
<g style="fill:#B2803A; fill-opacity:1.0000; 
stroke:#B2803A; stroke-width:0.0212; stroke-opacity:1; 
stroke-linecap:round; stroke-linejoin:round;">
</g>
<g style="fill:#B2803A; fill-opacity:1.0000; 
stroke:#B2803A; stroke-width:0.0000; stroke-opacity:1; 
stroke-linecap:round; stroke-linejoin:round;">
<circle cx="15.0495" cy="25.4635" r="0.8000" /> 
</g>
<g >
</g>
<g style="fill:#B2803A; fill-opacity:1.0000; 
stroke:#B2803A; stroke-width:0.0000; stroke-opacity:1; 
stroke-linecap:round; stroke-linejoin:round;">
<circle cx="34.9885" cy="5.7785" r="0.8000" /> 
</g>
<g style="fill:#B2803A; fill-opacity:1.0000; 
stroke:#B2803A; stroke-width:0.0212; stroke-opacity:1; 
stroke-linecap:round; stroke-linejoin:round;">
</g>
<g style="fill:#B2803A; fill-opacity:1.0000; 
stroke:#B2803A; stroke-width:0.0000; stroke-opacity:1; 
stroke-linecap:round; stroke-linejoin:round;">
<circle cx="27.3685" cy="5.7785" r="0.8000" /> 
</g>
<g >
</g>
<g style="fill:#B2803A; fill-opacity:1.0000; 
stroke:#B2803A; stroke-width:0.0000; stroke-opacity:1; 
stroke-linecap:round; stroke-linejoin:round;">
<circle cx="43.2435" cy="27.3685" r="0.8000" /> 
</g>
<g style="fill:#B2803A; fill-opacity:1.0000; 
stroke:#B2803A; stroke-width:0.0212; stroke-opacity:1; 
stroke-linecap:round; stroke-linejoin:round;">
</g>
<g style="fill:#B2803A; fill-opacity:1.0000; 
stroke:#B2803A; stroke-width:0.0000; stroke-opacity:1; 
stroke-linecap:round; stroke-linejoin:round;">
<circle cx="43.2435" cy="34.9885" r="0.8000" /> 
</g>
<g >
</g>
<g style="fill:#B2803A; fill-opacity:1.0000; 
stroke:#B2803A; stroke-width:0.0000; stroke-opacity:1; 
stroke-linecap:round; stroke-linejoin:round;">
<path style="fill:#B2803A; fill-opacity:1.0000; 
stroke:#B2803A; stroke-width:0.0000; stroke-opacity:1; 
stroke-linecap:round; stroke-linejoin:round;fill-rule:evenodd;"
d="M 5.5485,21.1695
8.5485,21.1695
8.5485,24.1695
5.5485,24.1695
Z" /> 
<circle cx="7.0485" cy="27.6695" r="1.5000" /> 
</g>
<g style="fill:#B2803A; fill-opacity:1.0000; 
stroke:#B2803A; stroke-width:0.0212; stroke-opacity:1; 
stroke-linecap:round; stroke-linejoin:round;">
</g>
<g >
</g>
<g style="fill:#B2803A; fill-opacity:1.0000; 
stroke:#B2803A; stroke-width:0.0212; stroke-opacity:1; 
stroke-linecap:round; stroke-linejoin:round;">
</g>
<g style="fill:#B2803A; fill-opacity:1.0000; 
stroke:#B2803A; stroke-width:0.0000; stroke-opacity:1; 
stroke-linecap:round; stroke-linejoin:round;">
<path style="fill:#B2803A; fill-opacity:1.0000; 
stroke:#B2803A; stroke-width:0.0000; stroke-opacity:1; 
stroke-linecap:round; stroke-linejoin:round;fill-rule:evenodd;"
d="M 5.5485,9.1045
8.5485,9.1045
8.5485,12.1045
5.5485,12.1045
Z" /> 
<circle cx="7.0485" cy="15.6045" r="1.5000" /> 
</g>
<g style="fill:#B2803A; fill-opacity:1.0000; 
stroke:#B2803A; stroke-width:0.0212; stroke-opacity:1; 
stroke-linecap:round; stroke-linejoin:round;">
</g>
<g >
</g>
<g style="fill:#B2803A; fill-opacity:1.0000; 
stroke:#B2803A; stroke-width:0.0212; stroke-opacity:1; 
stroke-linecap:round; stroke-linejoin:round;">
</g>
<g style="fill:#B2803A; fill-opacity:1.0000; 
stroke:#B2803A; stroke-width:0.0000; stroke-opacity:1; 
stroke-linecap:round; stroke-linejoin:round;">
<path style="fill:#B2803A; fill-opacity:1.0000; 
stroke:#B2803A; stroke-width:0.0000; stroke-opacity:1; 
stroke-linecap:round; stroke-linejoin:round;fill-rule:evenodd;"
d="M 22.8205,42.5845
22.8205,39.5845
25.8205,39.5845
25.8205,42.5845
Z" /> 
<circle cx="29.3205" cy="41.0845" r="1.5000" /> 
</g>
<g style="fill:#B2803A; fill-opacity:1.0000; 
stroke:#B2803A; stroke-width:0.0212; stroke-opacity:1; 
stroke-linecap:round; stroke-linejoin:round;">
</g>
<g >
</g>
<g style="fill:#B2803A; fill-opacity:1.0000; 
stroke:#B2803A; stroke-width:0.0212; stroke-opacity:1; 
stroke-linecap:round; stroke-linejoin:round;">
</g>
<g style="fill:#B2803A; fill-opacity:1.0000; 
stroke:#B2803A; stroke-width:0.0000; stroke-opacity:1; 
stroke-linecap:round; stroke-linejoin:round;">
<circle cx="12.7635" cy="34.9885" r="0.8000" /> 
</g>
<g style="fill:#B2803A; fill-opacity:1.0000; 
stroke:#B2803A; stroke-width:0.0212; stroke-opacity:1; 
stroke-linecap:round; stroke-linejoin:round;">
</g>
<g style="fill:#B2803A; fill-opacity:1.0000; 
stroke:#B2803A; stroke-width:0.0000; stroke-opacity:1; 
stroke-linecap:round; stroke-linejoin:round;">
<circle cx="5.1435" cy="34.9885" r="0.8000" /> 
</g>
<g >
</g>
<g style="fill:#B2803A; fill-opacity:1.0000; 
stroke:#B2803A; stroke-width:0.0000; stroke-opacity:1; 
stroke-linecap:round; stroke-linejoin:round;">
<circle cx="31.4535" cy="28.3585" r="1.0150" /> 
</g>
<g style="fill:#B2803A; fill-opacity:1.0000; 
stroke:#B2803A; stroke-width:0.0212; stroke-opacity:1; 
stroke-linecap:round; stroke-linejoin:round;">
</g>
<g style="fill:#B2803A; fill-opacity:1.0000; 
stroke:#B2803A; stroke-width:0.0000; stroke-opacity:1; 
stroke-linecap:round; stroke-linejoin:round;">
<circle cx="33.6035" cy="25.4285" r="1.0150" /> 
</g>
<g style="fill:#B2803A; fill-opacity:1.0000; 
stroke:#B2803A; stroke-width:0.0212; stroke-opacity:1; 
stroke-linecap:round; stroke-linejoin:round;">
</g>
<g style="fill:#B2803A; fill-opacity:1.0000; 
stroke:#B2803A; stroke-width:0.0000; stroke-opacity:1; 
stroke-linecap:round; stroke-linejoin:round;">
<circle cx="33.6035" cy="21.7785" r="1.0150" /> 
</g>
<g style="fill:#B2803A; fill-opacity:1.0000; 
stroke:#B2803A; stroke-width:0.0212; stroke-opacity:1; 
stroke-linecap:round; stroke-linejoin:round;">
</g>
<g style="fill:#B2803A; fill-opacity:1.0000; 
stroke:#B2803A; stroke-width:0.0000; stroke-opacity:1; 
stroke-linecap:round; stroke-linejoin:round;">
<circle cx="31.4535" cy="18.8485" r="1.0150" /> 
</g>
<g style="fill:#B2803A; fill-opacity:1.0000; 
stroke:#B2803A; stroke-width:0.0212; stroke-opacity:1; 
stroke-linecap:round; stroke-linejoin:round;">
</g>
<g style="fill:#B2803A; fill-opacity:1.0000; 
stroke:#B2803A; stroke-width:0.0000; stroke-opacity:1; 
stroke-linecap:round; stroke-linejoin:round;">
<circle cx="28.0035" cy="17.7085" r="1.0150" /> 
</g>
<g style="fill:#B2803A; fill-opacity:1.0000; 
stroke:#B2803A; stroke-width:0.0212; stroke-opacity:1; 
stroke-linecap:round; stroke-linejoin:round;">
</g>
<g style="fill:#B2803A; fill-opacity:1.0000; 
stroke:#B2803A; stroke-width:0.0000; stroke-opacity:1; 
stroke-linecap:round; stroke-linejoin:round;">
<circle cx="24.5435" cy="18.8485" r="1.0150" /> 
</g>
<g style="fill:#B2803A; fill-opacity:1.0000; 
stroke:#B2803A; stroke-width:0.0212; stroke-opacity:1; 
stroke-linecap:round; stroke-linejoin:round;">
</g>
<g style="fill:#B2803A; fill-opacity:1.0000; 
stroke:#B2803A; stroke-width:0.0000; stroke-opacity:1; 
stroke-linecap:round; stroke-linejoin:round;">
<circle cx="22.3935" cy="21.7785" r="1.0150" /> 
</g>
<g style="fill:#B2803A; fill-opacity:1.0000; 
stroke:#B2803A; stroke-width:0.0212; stroke-opacity:1; 
stroke-linecap:round; stroke-linejoin:round;">
</g>
<g style="fill:#B2803A; fill-opacity:1.0000; 
stroke:#B2803A; stroke-width:0.0000; stroke-opacity:1; 
stroke-linecap:round; stroke-linejoin:round;">
<circle cx="22.3935" cy="25.3885" r="1.0150" /> 
</g>
<g style="fill:#B2803A; fill-opacity:1.0000; 
stroke:#B2803A; stroke-width:0.0212; stroke-opacity:1; 
stroke-linecap:round; stroke-linejoin:round;">
</g>
<g style="fill:#B2803A; fill-opacity:1.0000; 
stroke:#B2803A; stroke-width:0.0000; stroke-opacity:1; 
stroke-linecap:round; stroke-linejoin:round;">
<circle cx="24.5435" cy="28.3585" r="1.0150" /> 
</g>
<g style="fill:#B2803A; fill-opacity:1.0000; 
stroke:#B2803A; stroke-width:0.0212; stroke-opacity:1; 
stroke-linecap:round; stroke-linejoin:round;">
</g>
<g >
</g>
<g style="fill:#B2803A; fill-opacity:1.0000; 
stroke:#B2803A; stroke-width:0.0212; stroke-opacity:1; 
stroke-linecap:round; stroke-linejoin:round;">
</g>
<g style="fill:#B2803A; fill-opacity:1.0000; 
stroke:#B2803A; stroke-width:0.0000; stroke-opacity:1; 
stroke-linecap:round; stroke-linejoin:round;">
<path style="fill:#B2803A; fill-opacity:1.0000; 
stroke:#B2803A; stroke-width:0.0000; stroke-opacity:1; 
stroke-linecap:round; stroke-linejoin:round;fill-rule:evenodd;"
d="M 46.6485,16.8035
43.6485,16.8035
43.6485,13.8035
46.6485,13.8035
Z" /> 
<circle cx="45.1485" cy="10.3035" r="1.5000" /> 
</g>
<g style="fill:#B2803A; fill-opacity:1.0000; 
stroke:#B2803A; stroke-width:0.0212; stroke-opacity:1; 
stroke-linecap:round; stroke-linejoin:round;">
</g>
<g >
</g>
<g style="fill:#B2803A; fill-opacity:1.0000; 
stroke:#B2803A; stroke-width:0.0212; stroke-opacity:1; 
stroke-linecap:round; stroke-linejoin:round;">
</g>
<g style="fill:#B2803A; fill-opacity:1.0000; 
stroke:#B2803A; stroke-width:0.0000; stroke-opacity:1; 
stroke-linecap:round; stroke-linejoin:round;">
<circle cx="3.8735" cy="42.6085" r="2.8000" /> 
</g>
<g style="fill:#B2803A; fill-opacity:1.0000; 
stroke:#B2803A; stroke-width:0.0212; stroke-opacity:1; 
stroke-linecap:round; stroke-linejoin:round;">
</g>
<g >
</g>
<g >
</g>
<g style="fill:#B2803A; fill-opacity:1.0000; 
stroke:#B2803A; stroke-width:0.0212; stroke-opacity:1; 
stroke-linecap:round; stroke-linejoin:round;">
</g>
<g style="fill:#B2803A; fill-opacity:1.0000; 
stroke:#B2803A; stroke-width:0.8000; stroke-opacity:1; 
stroke-linecap:round; stroke-linejoin:round;">
</g>
<g style="fill:#B2803A; fill-opacity:0.0; 
stroke:#B2803A; stroke-width:0.8000; stroke-opacity:1; 
stroke-linecap:round; stroke-linejoin:round;">
<path d="M18.3515 9.5885
L20.3835 9.5885
" />
<path d="M18.2245 9.7155
L18.3515 9.5885
" />
<path d="M23.5585 9.5885
L20.3835 9.5885
" />
<path d="M18.2245 9.7155
L7.9375 9.7155
" />
<path d="M24.5491 10.5791
L23.5585 9.5885
" />
<path d="M24.5491 18.8036
L24.5491 10.5791
" />
<path d="M7.9375 9.7155
L7.0485 10.6045
" />
<path d="M12.6365 33.7185
L12.6365 32.7307
" />
<path d="M12.6365 34.8615
L12.6365 33.7185
" />
<path d="M12.6365 32.7307
L10.8585 30.9527
" />
<path d="M12.7635 34.9885
L12.6365 34.8615
" />
<path d="M10.8585 24.3159
L9.2121 22.6695
" />
<path d="M10.8585 30.9527
L10.8585 24.3159
" />
<path d="M9.2121 22.6695
L7.0485 22.6695
" />
<path d="M15.9385 34.9885
L12.7635 34.9885
" />
<path d="M15.0495 25.4635
L15.9385 25.4635
" />
<path d="M15.9385 29.9085
L15.9385 25.4635
" />
<path d="M15.9385 25.4635
L22.2783 25.4635
" />
<path d="M22.2783 25.4635
L22.3952 25.3467
" />
<path d="M40.1955 16.3995
L40.1955 21.3741
" />
<path d="M36.1823 25.3873
L38.1635 27.3685
" />
<path d="M40.1955 21.3741
L36.1823 25.3873
" />
<path d="M43.3705 10.1765
L42.0705 11.4765
" />
<path d="M41.2285 11.4765
L40.1955 12.5095
" />
<path d="M33.6118 25.3873
L36.1823 25.3873
" />
<path d="M38.1635 27.3685
L43.2435 27.3685
" />
<path d="M40.1955 12.5095
L40.1955 16.3995
" />
<path d="M42.0705 11.4765
L41.2285 11.4765
" />
<path d="M24.5491 37.1924
L24.5491 36.3855
" />
<path d="M24.5491 28.3134
L24.5491 34.4805
" />
<path d="M24.1465 39.4335
L24.1465 37.5950
" />
<path d="M24.1465 37.5950
L24.5491 37.1924
" />
<path d="M24.5491 34.4805
L24.5491 36.3855
" />
<path d="M28.0035 17.6657
L30.3200 17.6657
" />
<path d="M28.6385 21.0185
L28.6385 34.7345
" />
<path d="M28.0035 20.3835
L28.6385 21.0185
" />
<path d="M29.3205 41.0845
L29.3205 35.4165
" />
<path d="M30.3200 17.6657
L31.4579 18.8036
" />
<path d="M28.0035 17.6657
L28.0035 20.3835
" />
<path d="M29.3205 35.4165
L28.6385 34.7345
" />
<path d="M15.3035 31.8135
L17.8435 34.3535
" />
<path d="M12.7635 19.1135
L12.7635 26.0985
" />
<path d="M31.0293 43.9488
L33.7185 41.2596
" />
<path d="M14.6685 17.8435
L14.0335 17.8435
" />
<path d="M14.2875 27.6225
L14.2875 30.9245
" />
<path d="M33.7185 30.5740
L31.4579 28.3134
" />
<path d="M15.1765 31.8135
L15.3035 31.8135
" />
<path d="M22.3952 21.7297
L20.4597 21.7297
" />
<path d="M14.0335 17.8435
L12.7635 19.1135
" />
<path d="M14.6685 17.8435
L16.5735 17.8435
" />
<path d="M17.8435 34.3535
L17.8435 42.1344
" />
<path d="M17.8435 42.1344
L19.6580 43.9488
" />
<path d="M33.7185 41.2596
L33.7185 30.5740
" />
<path d="M14.2875 30.9245
L15.1765 31.8135
" />
<path d="M19.6580 43.9488
L31.0293 43.9488
" />
<path d="M12.7635 26.0985
L14.2875 27.6225
" />
<path d="M20.4597 21.7297
L16.5735 17.8435
" />
<path d="M34.9885 20.3935
L33.6035 21.7785
" />
<path d="M34.9885 5.7785
L34.9885 20.3935
" />
</g>
<g >
</g>
<g style="fill:#B2803A; fill-opacity:0.0; 
stroke:#B2803A; stroke-width:0.8000; stroke-opacity:1; 
stroke-linecap:round; stroke-linejoin:round;">
<g >
</g>
<g style="fill:#B2803A; fill-opacity:1.0000; 
stroke:#B2803A; stroke-width:0.0000; stroke-opacity:1; 
stroke-linecap:round; stroke-linejoin:round;">
<path style="fill:#B2803A; fill-opacity:1.0000; 
stroke:#B2803A; stroke-width:0.0000; stroke-opacity:1; 
stroke-linecap:round; stroke-linejoin:round;fill-rule:evenodd;"
d="M 45.7427,1.2384
45.8088,1.2908
45.8456,1.3667
45.8458,1.4510
45.8050,1.5324
45.5903,1.7838
45.3806,2.0912
45.3782,2.0957
45.3782,2.0957
45.2078,2.4150
45.2053,2.4195
45.2034,2.4242
45.2034,2.4242
45.0890,2.7089
45.0666,2.7647
45.0652,2.7697
45.0652,2.7697
45.0620,2.7811
44.9659,3.1230
44.9650,3.1280
44.9650,3.1280
44.9311,3.3306
44.9044,3.4900
44.8830,3.8615
44.9018,4.2331
44.9607,4.6006
45.0589,4.9595
45.0608,4.9643
45.0608,4.9643
45.1174,5.1079
45.1953,5.3057
45.1977,5.3102
45.1977,5.3102
45.3200,5.5432
45.3682,5.6352
45.3711,5.6394
45.3711,5.6394
45.4778,5.7981
45.5758,5.9440
45.8155,6.2287
45.8192,6.2322
45.8192,6.2322
45.9361,6.3439
46.0845,6.4858
46.0886,6.4889
46.0886,6.4889
46.3522,6.6912
46.3797,6.7123
46.3841,6.7150
46.3841,6.7150
46.6004,6.8465
46.6977,6.9056
47.0347,7.0635
47.0395,7.0651
47.0395,7.0651
47.3819,7.1823
47.3819,7.1823
47.3867,7.1840
47.7497,7.2658
48.0530,7.3004
48.1144,7.3074
48.1144,7.3074
48.1195,7.3079
48.1246,7.3080
48.1246,7.3080
48.3055,7.3089
48.4916,7.3099
48.8617,7.2716
48.8941,7.2647
49.2205,7.1947
49.2205,7.1947
49.2256,7.1936
49.5789,7.0768
49.6129,7.0613
49.9128,6.9246
49.9128,6.9246
49.9175,6.9225
50.2374,6.7325
50.2573,6.7176
50.5309,6.5122
50.5309,6.5122
50.5350,6.5091
50.5445,6.5002
50.6174,6.4577
50.7015,6.4510
50.7801,6.4815
50.8377,6.5431
50.8629,6.6236
50.8635,6.6385
50.8635,39.8426
50.8447,39.9248
50.7922,39.9908
50.7162,40.0274
50.6318,40.0274
50.5536,39.9881
50.5534,39.9884
50.5518,39.9873
50.2573,39.7629
49.9387,39.5707
49.9341,39.5686
49.9341,39.5686
49.7700,39.4924
49.6012,39.4140
49.4209,39.3530
49.2536,39.2964
49.2536,39.2964
49.2487,39.2947
48.8854,39.2142
48.8803,39.2136
48.8803,39.2136
48.5950,39.1821
48.5156,39.1734
48.5104,39.1734
48.5104,39.1734
48.3610,39.1731
48.1434,39.1727
47.8321,39.2060
47.7785,39.2117
47.7785,39.2117
47.7734,39.2123
47.4099,39.2915
47.3954,39.2964
47.0618,39.4080
47.0618,39.4080
47.0570,39.4096
46.7189,39.5651
46.7145,39.5677
46.7145,39.5677
46.6963,39.5786
46.3996,39.7562
46.3955,39.7593
46.3955,39.7593
46.1883,39.9160
46.1028,39.9807
46.0991,39.9842
46.0991,39.9842
46.0532,40.0274
45.8320,40.2359
45.5903,40.5188
45.3806,40.8262
45.3782,40.8307
45.3782,40.8307
45.2427,41.0845
45.2053,41.1545
45.2034,41.1592
45.2034,41.1592
45.1793,41.2194
45.0666,41.4997
45.0652,41.5047
45.0652,41.5047
44.9672,41.8530
44.9659,41.8580
44.9650,41.8630
44.9650,41.8630
44.9492,41.9577
44.9044,42.2250
44.8980,42.3365
44.8836,42.5860
44.8830,42.5965
44.9018,42.9681
44.9607,43.3356
45.0589,43.6945
45.0608,43.6993
45.0608,43.6993
45.0742,43.7334
45.1953,44.0407
45.3682,44.3702
45.3711,44.3744
45.3711,44.3744
45.3859,44.3965
45.5758,44.6790
45.6149,44.7255
45.7759,44.9167
45.8155,44.9637
45.8192,44.9672
45.8192,44.9672
45.8465,44.9933
46.0845,45.2208
46.0886,45.2239
46.0886,45.2239
46.3750,45.4437
46.4288,45.5086
46.4491,45.5905
46.4319,45.6730
46.3805,45.7399
46.3052,45.7779
46.2596,45.7835
5.9346,45.7835
5.8523,45.7647
5.7864,45.7122
5.7498,45.6362
5.7498,45.5518
5.7864,45.4758
5.8208,45.4425
6.0809,45.2472
6.0809,45.2472
6.0850,45.2441
6.1044,45.2259
6.3530,44.9933
6.3530,44.9933
6.3567,44.9898
6.5994,44.7077
6.6451,44.6411
6.8072,44.4053
6.8072,44.4053
6.8101,44.4010
6.8126,44.3965
6.8126,44.3965
6.8879,44.2567
6.9866,44.0734
7.1266,43.7286
7.2285,43.3707
7.2294,43.3657
7.2903,43.0090
7.2903,43.0090
7.2912,43.0039
7.2934,42.9681
7.3138,42.6352
7.3139,42.6325
7.3140,42.6085
7.3136,42.6016
7.2942,42.2420
7.2942,42.2420
7.2939,42.2369
7.2926,42.2291
7.2346,41.8748
7.2337,41.8697
7.1343,41.5111
6.9967,41.1654
6.8226,40.8365
6.6140,40.5284
6.5740,40.4813
6.3766,40.2485
6.3766,40.2485
6.3733,40.2446
6.3604,40.2323
6.1456,40.0285
6.1034,39.9884
5.8073,39.7629
5.4887,39.5707
5.4841,39.5686
5.4841,39.5686
5.3200,39.4924
5.1512,39.4140
4.9709,39.3530
4.8036,39.2964
4.8036,39.2964
4.7987,39.2947
4.4354,39.2142
4.4303,39.2136
4.4303,39.2136
4.1450,39.1821
4.0656,39.1734
4.0604,39.1734
4.0604,39.1734
3.9110,39.1731
3.6934,39.1727
3.3821,39.2060
3.3285,39.2117
3.3285,39.2117
3.3234,39.2123
2.9599,39.2915
2.9454,39.2964
2.6118,39.4080
2.6118,39.4080
2.6070,39.4096
2.2689,39.5651
2.2645,39.5677
2.2645,39.5677
2.2463,39.5786
1.9496,39.7562
1.9455,39.7593
1.9455,39.7593
1.7770,39.8867
1.6528,39.9807
1.6491,39.9842
1.6453,39.9874
1.5704,40.0261
1.4861,40.0285
1.4091,39.9941
1.3547,39.9296
1.3335,39.8426
1.3335,35.2425
4.1236,35.2425
4.1236,35.2553
4.1563,35.3694
4.1631,35.3866
4.2491,35.5539
4.2591,35.5694
4.3760,35.7169
4.3888,35.7301
4.5321,35.8521
4.5472,35.8626
4.7114,35.9544
4.7283,35.9618
4.8730,36.0088
4.8900,36.0103
4.8933,36.0000
4.8933,35.2600
4.8909,35.2496
5.3937,35.2496
5.3937,35.9915
5.3975,36.0082
5.4107,36.0082
5.5175,35.9783
5.5347,35.9716
5.7027,35.8868
5.7182,35.8769
5.8665,35.7611
5.8799,35.7484
6.0028,35.6060
6.0134,35.5909
6.1064,35.4273
6.1139,35.4104
6.1643,35.2589
6.1659,35.2420
6.1560,35.2387
5.4150,35.2387
5.3970,35.2428
5.3937,35.2496
4.8909,35.2496
4.8892,35.2420
4.8824,35.2387
4.1402,35.2387
4.1236,35.2425
1.3335,35.2425
1.3335,34.7349
4.1222,34.7349
4.1329,34.7383
4.8720,34.7383
4.8900,34.7342
4.8933,34.7274
4.8933,33.9848
4.8919,33.9787
5.3937,33.9787
5.3937,34.7170
5.3978,34.7350
5.4046,34.7383
6.1475,34.7383
6.1641,34.7345
6.1641,34.7226
6.1253,34.5938
6.1182,34.5768
6.0299,34.4106
6.0197,34.3953
5.9008,34.2495
5.8878,34.2364
5.7428,34.1165
5.7275,34.1061
5.5620,34.0167
5.5450,34.0095
5.4141,33.9690
5.3971,33.9677
5.3937,33.9787
4.8919,33.9787
4.8895,33.9682
4.8772,33.9682
4.7557,34.0040
4.7386,34.0109
4.5718,34.0981
4.5564,34.1082
4.4098,34.2261
4.3966,34.2390
4.2757,34.3831
4.2652,34.3983
4.1746,34.5632
4.1673,34.5801
4.1236,34.7180
4.1222,34.7349
1.3335,34.7349
1.3335,29.0748
6.0029,29.0748
6.0030,29.0749
6.0121,29.0848
6.1107,29.1571
6.1226,29.1645
6.3409,29.2793
6.3537,29.2849
6.5866,29.3662
6.6002,29.3699
6.8425,29.4159
6.8564,29.4175
7.1029,29.4272
7.1169,29.4267
7.3621,29.3998
7.3759,29.3973
7.6144,29.3345
7.6276,29.3299
7.8543,29.2325
7.8667,29.2261
8.0764,29.0963
8.0857,29.0895
8.0964,29.0753
8.0955,29.0718
8.0912,29.0661
7.0636,28.0384
7.0479,28.0286
7.0408,28.0311
6.0127,29.0591
6.0029,29.0748
1.3335,29.0748
1.3335,27.6305
5.2904,27.6305
5.3023,27.8768
5.3040,27.8908
5.3521,28.1327
5.3559,28.1462
5.4392,28.3783
5.4449,28.3911
5.5616,28.6084
5.5692,28.6202
5.6311,28.7032
5.6452,28.7152
5.6458,28.7151
5.6563,28.7079
6.6796,27.6846
6.6887,27.6701
7.4076,27.6701
7.4101,27.6772
8.4412,28.7084
8.4558,28.7176
8.4676,28.7059
8.5905,28.5147
8.5972,28.5024
8.6985,28.2775
8.7033,28.2643
8.7703,28.0270
8.7731,28.0132
8.8045,27.7663
8.8052,27.7568
8.8074,27.6742
8.8071,27.6648
8.7887,27.4165
8.7866,27.4026
8.7322,27.1621
8.7281,27.1487
8.6387,26.9188
8.6327,26.9061
8.5103,26.6920
8.5024,26.6804
8.4667,26.6351
8.4523,26.6234
8.4504,26.6239
8.4420,26.6298
7.4174,27.6544
7.4076,27.6701
6.6887,27.6701
6.6894,27.6689
6.6869,27.6618
5.6573,26.6322
5.6416,26.6223
5.6386,26.6234
5.6326,26.6286
5.6210,26.6426
5.6128,26.6540
5.4849,26.8649
5.4785,26.8774
5.3831,27.1049
5.3787,27.1182
5.3180,27.3572
5.3155,27.3710
5.2908,27.6165
5.2904,27.6305
1.3335,27.6305
1.3335,26.2633
6.0010,26.2633
6.0097,26.2769
7.0334,27.3006
7.0491,27.3104
7.0562,27.3079
8.0850,26.2792
8.0946,26.2639
8.0843,26.2532
7.9470,26.1579
7.9350,26.1508
7.7137,26.0417
7.7007,26.0364
7.4658,25.9612
7.4522,25.9580
7.2087,25.9183
7.1948,25.9171
6.9481,25.9139
6.9342,25.9147
6.6898,25.9480
6.6760,25.9509
6.4392,26.0199
6.4261,26.0248
6.2021,26.1281
6.1898,26.1349
6.0131,26.2508
6.0010,26.2633
1.3335,26.2633
1.3335,17.0098
6.0029,17.0098
6.0030,17.0099
6.0121,17.0198
6.1107,17.0921
6.1226,17.0995
6.3409,17.2143
6.3537,17.2199
6.5866,17.3012
6.6002,17.3049
6.8425,17.3509
6.8564,17.3525
7.1029,17.3622
7.1169,17.3617
7.3621,17.3348
7.3759,17.3323
7.6144,17.2695
7.6276,17.2649
7.8543,17.1675
7.8667,17.1611
8.0764,17.0313
8.0857,17.0245
8.0964,17.0103
8.0955,17.0068
8.0912,17.0011
7.0636,15.9734
7.0479,15.9636
7.0408,15.9661
6.0127,16.9941
6.0029,17.0098
1.3335,17.0098
1.3335,15.5655
5.2904,15.5655
5.3023,15.8118
5.3040,15.8258
5.3521,16.0677
5.3559,16.0812
5.4392,16.3133
5.4449,16.3261
5.5616,16.5434
5.5692,16.5552
5.6311,16.6382
5.6452,16.6502
5.6458,16.6501
5.6563,16.6429
6.6796,15.6196
6.6887,15.6051
7.4076,15.6051
7.4101,15.6122
8.4412,16.6434
8.4558,16.6526
8.4676,16.6409
8.5905,16.4497
8.5972,16.4374
8.6985,16.2125
8.7033,16.1993
8.7703,15.9620
8.7731,15.9482
8.8045,15.7013
8.8052,15.6918
8.8074,15.6092
8.8071,15.5998
8.7887,15.3515
8.7866,15.3376
8.7322,15.0971
8.7281,15.0837
8.6387,14.8538
8.6327,14.8411
8.5103,14.6270
8.5024,14.6154
8.4667,14.5701
8.4523,14.5584
8.4504,14.5589
8.4420,14.5648
7.4174,15.5894
7.4076,15.6051
6.6887,15.6051
6.6894,15.6039
6.6869,15.5968
5.6573,14.5672
5.6416,14.5573
5.6386,14.5584
5.6326,14.5636
5.6210,14.5776
5.6128,14.5890
5.4849,14.7999
5.4785,14.8124
5.3831,15.0399
5.3787,15.0532
5.3180,15.2922
5.3155,15.3060
5.2908,15.5515
5.2904,15.5655
1.3335,15.5655
1.3335,14.1983
6.0010,14.1983
6.0097,14.2119
7.0334,15.2356
7.0491,15.2454
7.0562,15.2429
8.0850,14.2142
8.0946,14.1989
8.0843,14.1882
7.9470,14.0929
7.9350,14.0858
7.7137,13.9767
7.7007,13.9714
7.4658,13.8962
7.4522,13.8930
7.2087,13.8533
7.1948,13.8521
6.9481,13.8489
6.9342,13.8497
6.6898,13.8830
6.6760,13.8859
6.4392,13.9549
6.4261,13.9598
6.2021,14.0631
6.1898,14.0699
6.0131,14.1858
6.0010,14.1983
1.3335,14.1983
1.3335,9.1045
4.9080,9.1045
4.9080,12.1045
4.9093,12.1447
4.9393,12.3024
5.0077,12.4477
5.1100,12.5714
5.2399,12.6658
5.3892,12.7249
5.5485,12.7450
8.5485,12.7450
8.5733,12.7442
8.5813,12.7440
8.5813,12.7440
8.5887,12.7437
8.7464,12.7137
8.8917,12.6453
9.0154,12.5430
9.0343,12.5169
9.1028,12.4227
9.1098,12.4131
9.1689,12.2638
9.1890,12.1045
9.1890,10.9405
9.2078,10.8583
9.2603,10.7923
9.3363,10.7558
9.3785,10.7510
18.1578,10.7510
18.1783,10.7521
18.2136,10.7559
18.2228,10.7551
18.2228,10.7551
18.2655,10.7514
18.2714,10.7510
18.2755,10.7510
18.2934,10.7492
18.3192,10.7467
18.3212,10.7465
18.3444,10.7445
18.4159,10.7382
18.4212,10.7367
18.4266,10.7362
18.4355,10.7335
18.4355,10.7335
18.5177,10.7087
18.5196,10.7081
18.5481,10.6998
18.5559,10.6976
18.6401,10.6927
18.7180,10.7248
18.7744,10.7875
18.7802,10.7989
18.8427,10.9317
18.9450,11.0554
19.0749,11.1498
19.2242,11.2089
19.3835,11.2290
21.3835,11.2290
21.4083,11.2282
21.4163,11.2280
21.4163,11.2280
21.4237,11.2277
21.5814,11.1977
21.7267,11.1293
21.8504,11.0270
21.8642,11.0080
21.9378,10.9067
21.9448,10.8971
22.0039,10.7478
22.0066,10.7489
22.0362,10.6914
22.1035,10.6406
22.1811,10.6240
23.0511,10.6240
23.1333,10.6428
23.1851,10.6795
23.4581,10.9525
23.5030,11.0239
23.5136,11.0865
23.5136,17.4703
23.4948,17.5526
23.4472,17.6144
23.3729,17.6779
23.3681,17.6835
23.3680,17.6835
23.3467,17.7085
23.2042,17.8754
23.0684,18.0969
23.0656,18.1038
23.0290,18.1921
22.9690,18.3369
22.9673,18.3442
22.9226,18.5304
22.9084,18.5895
22.8880,18.8485
22.9084,19.1075
22.9101,19.1147
22.9101,19.1147
22.9374,19.2284
22.9690,19.3601
23.0684,19.6001
23.2042,19.8216
23.3295,19.9683
23.3607,20.0049
23.3999,20.0796
23.4027,20.1639
23.3687,20.2411
23.3046,20.2958
23.2230,20.3174
23.1441,20.3030
22.9120,20.2069
22.9119,20.2069
22.9051,20.2040
22.8538,20.1917
22.6597,20.1451
22.6597,20.1451
22.6525,20.1434
22.3935,20.1230
22.1345,20.1434
22.1273,20.1451
22.1273,20.1451
21.9332,20.1917
21.8819,20.2040
21.8751,20.2069
21.8750,20.2069
21.7202,20.2710
21.6419,20.3034
21.5607,20.3532
21.4740,20.4064
21.4204,20.4392
21.4057,20.4517
21.2438,20.5900
21.2229,20.6079
21.2059,20.6278
21.1382,20.6781
21.0618,20.6942
20.9671,20.6942
20.8849,20.6754
20.8331,20.6387
17.3528,17.1584
17.3392,17.1432
17.3227,17.1227
17.3169,17.1155
17.2770,17.0820
17.2725,17.0781
17.2697,17.0752
17.2661,17.0723
17.2661,17.0723
17.2357,17.0473
17.2342,17.0461
17.1685,16.9909
17.1684,16.9909
17.1613,16.9850
17.1566,16.9823
17.1523,16.9789
17.0890,16.9449
17.0685,16.9339
17.0667,16.9330
16.9915,16.8916
16.9915,16.8916
16.9834,16.8871
16.9782,16.8855
16.9734,16.8829
16.9636,16.8799
16.8823,16.8551
16.8804,16.8545
16.7987,16.8285
16.7987,16.8285
16.7898,16.8257
16.7844,16.8251
16.7792,16.8235
16.6845,16.8139
16.6826,16.8137
16.6317,16.8080
16.6276,16.8080
16.6219,16.8076
16.5771,16.8030
16.5679,16.8039
16.5679,16.8039
16.5332,16.8072
16.5154,16.8080
16.1205,16.8080
16.0383,16.7892
16.0031,16.7672
15.9557,16.7298
15.8467,16.6437
15.8367,16.6382
15.6653,16.5436
15.6400,16.5296
15.4175,16.4508
15.1851,16.4094
14.9490,16.4065
14.7157,16.4422
14.4913,16.5156
14.4844,16.5191
14.4844,16.5191
14.4375,16.5436
14.2819,16.6246
14.2757,16.6292
14.2757,16.6292
14.1067,16.7561
14.0931,16.7663
14.0922,16.7651
14.0265,16.8011
13.9849,16.8080
13.9825,16.8080
13.9575,16.8105
13.9388,16.8123
13.9368,16.8125
13.9136,16.8145
13.8421,16.8208
13.8368,16.8223
13.8314,16.8228
13.7635,16.8433
13.7403,16.8503
13.7384,16.8509
13.6560,16.8748
13.6560,16.8748
13.6471,16.8774
13.6422,16.8799
13.6370,16.8815
13.6288,16.8859
13.5530,16.9262
13.5512,16.9271
13.4668,16.9709
13.4625,16.9743
13.4577,16.9768
13.4505,16.9827
13.4505,16.9827
13.3840,17.0370
13.3825,17.0381
13.3424,17.0701
13.3395,17.0730
13.3352,17.0768
13.3075,17.0993
13.3003,17.1052
13.2722,17.1392
13.2602,17.1524
12.0784,18.3342
12.0632,18.3478
12.0355,18.3701
12.0020,18.4100
11.9981,18.4145
11.9952,18.4173
11.9923,18.4209
11.9923,18.4209
11.9673,18.4513
11.9661,18.4528
11.9109,18.5185
11.9109,18.5186
11.9050,18.5257
11.9023,18.5304
11.8989,18.5347
11.8733,18.5823
11.8539,18.6185
11.8530,18.6203
11.8071,18.7036
11.8055,18.7088
11.8029,18.7136
11.8002,18.7225
11.8002,18.7225
11.7751,18.8047
11.7745,18.8066
11.7457,18.8972
11.7451,18.9026
11.7435,18.9078
11.7399,18.9437
11.7339,19.0025
11.7337,19.0044
11.7280,19.0553
11.7280,19.0594
11.7276,19.0651
11.7230,19.1099
11.7239,19.1191
11.7239,19.1191
11.7272,19.1538
11.7280,19.1716
11.7280,23.2635
11.7092,23.3457
11.6567,23.4116
11.5807,23.4482
11.4963,23.4482
11.4203,23.4116
11.4045,23.3975
9.9914,21.9844
9.9778,21.9692
9.9613,21.9487
9.9555,21.9415
9.9156,21.9080
9.9111,21.9041
9.9083,21.9012
9.9047,21.8983
9.9047,21.8983
9.8743,21.8733
9.8728,21.8721
9.8071,21.8169
9.8070,21.8169
9.7999,21.8110
9.7952,21.8083
9.7909,21.8049
9.7279,21.7711
9.7071,21.7599
9.7053,21.7590
9.6301,21.7176
9.6301,21.7176
9.6220,21.7131
9.6168,21.7115
9.6120,21.7089
9.5209,21.6811
9.5190,21.6805
9.4373,21.6545
9.4373,21.6545
9.4284,21.6517
9.4230,21.6511
9.4178,21.6495
9.3594,21.6436
9.2794,21.6166
9.2192,21.5576
9.1904,21.4783
9.1890,21.4551
9.1890,21.1695
9.1877,21.1293
9.1577,20.9716
9.0893,20.8263
8.9870,20.7026
8.9532,20.6781
8.8667,20.6152
8.8571,20.6082
8.7078,20.5491
8.5485,20.5290
5.5485,20.5290
5.5237,20.5298
5.5157,20.5300
5.5157,20.5300
5.5083,20.5303
5.3506,20.5603
5.3398,20.5654
5.3348,20.5678
5.2053,20.6287
5.0816,20.7310
5.0746,20.7407
5.0746,20.7407
5.0084,20.8318
4.9872,20.8609
4.9281,21.0102
4.9080,21.1695
4.9080,24.1695
4.9093,24.2097
4.9393,24.3674
4.9444,24.3782
4.9487,24.3872
5.0077,24.5127
5.1100,24.6364
5.1197,24.6434
5.1197,24.6434
5.2013,24.7027
5.2399,24.7308
5.3892,24.7899
5.5485,24.8100
8.5485,24.8100
8.5733,24.8092
8.5813,24.8090
8.5813,24.8090
8.5887,24.8087
8.7464,24.7787
8.8917,24.7103
9.0154,24.6080
9.0779,24.5219
9.1028,24.4877
9.1098,24.4781
9.1302,24.4265
9.1779,24.3569
9.2511,24.3150
9.3352,24.3089
9.4136,24.3400
9.4404,24.3622
9.7675,24.6893
9.8124,24.7607
9.8230,24.8233
9.8230,30.8860
9.8219,30.9065
9.8181,30.9418
9.8189,30.9510
9.8189,30.9510
9.8226,30.9937
9.8230,30.9996
9.8230,31.0037
9.8235,31.0083
9.8273,31.0474
9.8275,31.0493
9.8358,31.1441
9.8373,31.1493
9.8378,31.1548
9.8405,31.1636
9.8405,31.1636
9.8653,31.2458
9.8659,31.2478
9.8898,31.3302
9.8924,31.3391
9.8949,31.3439
9.8965,31.3492
9.9412,31.4333
9.9421,31.4349
9.9816,31.5111
9.9816,31.5111
9.9859,31.5194
9.9893,31.5236
9.9918,31.5285
9.9977,31.5357
9.9977,31.5357
10.0520,31.6022
10.0531,31.6036
10.0851,31.6437
10.0880,31.6466
10.0918,31.6510
10.1202,31.6858
10.1273,31.6918
10.1542,31.7140
10.1674,31.7260
11.5455,33.1041
11.5904,33.1755
11.6010,33.2381
11.6010,34.0866
11.5822,34.1688
11.5680,34.1933
11.5387,34.2364
11.5110,34.2770
11.4116,34.4911
11.4095,34.4986
11.3563,34.6905
11.3485,34.7186
11.3234,34.9533
11.3239,34.9611
11.3239,34.9611
11.3341,35.1392
11.3370,35.1890
11.3889,35.4193
11.4777,35.6380
11.6011,35.8393
11.7556,36.0177
11.9373,36.1685
11.9440,36.1724
11.9440,36.1724
12.0277,36.2213
12.1411,36.2876
12.3616,36.3718
12.4770,36.3953
12.5853,36.4173
12.5853,36.4173
12.5929,36.4189
12.6007,36.4192
12.6007,36.4192
12.7529,36.4247
12.8288,36.4275
12.8366,36.4265
12.8366,36.4265
13.0553,36.3985
13.0553,36.3985
13.0630,36.3975
13.0704,36.3953
13.0705,36.3953
13.2816,36.3319
13.2817,36.3319
13.2891,36.3297
13.5011,36.2258
13.6933,36.0887
13.7028,36.0793
13.7743,36.0345
13.8366,36.0240
14.8698,36.0240
14.9520,36.0428
14.9909,36.0677
15.0096,36.0833
15.1123,36.1685
15.1190,36.1724
15.1190,36.1724
15.2027,36.2213
15.3161,36.2876
15.5366,36.3718
15.6520,36.3953
15.7603,36.4173
15.7603,36.4173
15.7679,36.4189
15.7757,36.4192
15.7757,36.4192
15.9279,36.4247
16.0038,36.4275
16.0116,36.4265
16.0116,36.4265
16.2303,36.3985
16.2303,36.3985
16.2380,36.3975
16.2454,36.3953
16.2455,36.3953
16.4566,36.3319
16.4567,36.3319
16.4641,36.3297
16.5351,36.2949
16.6172,36.2756
16.6996,36.2938
16.7659,36.3459
16.8030,36.4217
16.8080,36.4651
16.8080,42.0677
16.8069,42.0882
16.8031,42.1235
16.8039,42.1327
16.8039,42.1327
16.8076,42.1754
16.8080,42.1813
16.8080,42.1853
16.8085,42.1900
16.8123,42.2291
16.8125,42.2310
16.8208,42.3258
16.8223,42.3310
16.8228,42.3365
16.8255,42.3453
16.8255,42.3453
16.8503,42.4275
16.8509,42.4294
16.8774,42.5208
16.8799,42.5256
16.8815,42.5309
16.9262,42.6150
16.9271,42.6165
16.9666,42.6928
16.9666,42.6928
16.9709,42.7010
16.9743,42.7053
16.9768,42.7102
16.9827,42.7173
16.9827,42.7173
17.0370,42.7839
17.0381,42.7853
17.0701,42.8254
17.0730,42.8283
17.0768,42.8327
17.0993,42.8603
17.0993,42.8603
17.1052,42.8675
17.1123,42.8734
17.1392,42.8957
17.1524,42.9077
18.8786,44.6339
18.8923,44.6491
18.9145,44.6768
18.9545,44.7103
18.9589,44.7142
18.9618,44.7171
18.9957,44.7450
18.9972,44.7462
19.0630,44.8014
19.0630,44.8014
19.0701,44.8073
19.0749,44.8100
19.0791,44.8135
19.0873,44.8178
19.0873,44.8178
19.1629,44.8584
19.1647,44.8593
19.1996,44.8785
19.2481,44.9052
19.2533,44.9068
19.2581,44.9094
19.2670,44.9121
19.2670,44.9121
19.3491,44.9372
19.3510,44.9378
19.4328,44.9638
19.4328,44.9638
19.4416,44.9666
19.4471,44.9672
19.4523,44.9688
19.5470,44.9784
19.5489,44.9786
19.5998,44.9843
19.6039,44.9843
19.6096,44.9848
19.6543,44.9893
19.6636,44.9884
19.6636,44.9884
19.6983,44.9852
19.7161,44.9843
30.9627,44.9843
30.9831,44.9854
31.0184,44.9893
31.0277,44.9884
31.0277,44.9884
31.0703,44.9847
31.0762,44.9843
31.0803,44.9843
31.0982,44.9826
31.1240,44.9800
31.1260,44.9798
31.1493,44.9778
31.2207,44.9716
31.2260,44.9700
31.2314,44.9695
31.2403,44.9668
31.2403,44.9668
31.3225,44.9420
31.3244,44.9414
31.4068,44.9175
31.4068,44.9175
31.4157,44.9149
31.4206,44.9124
31.4258,44.9108
31.5099,44.8661
31.5115,44.8653
31.5878,44.8257
31.5878,44.8257
31.5960,44.8214
31.6003,44.8180
31.6051,44.8155
31.6123,44.8096
31.6123,44.8096
31.6789,44.7553
31.6803,44.7542
31.7204,44.7222
31.7233,44.7193
31.7277,44.7155
31.7553,44.6930
31.7553,44.6930
31.7625,44.6871
31.7906,44.6531
31.8026,44.6399
34.4036,42.0390
34.4188,42.0253
34.4393,42.0089
34.4465,42.0031
34.4800,41.9631
34.4839,41.9587
34.4868,41.9558
34.4897,41.9522
34.5147,41.9218
34.5159,41.9203
34.5711,41.8546
34.5711,41.8546
34.5770,41.8475
34.5797,41.8427
34.5831,41.8385
34.6116,41.7853
34.6281,41.7546
34.6290,41.7529
34.6704,41.6777
34.6704,41.6777
34.6749,41.6695
34.6765,41.6643
34.6791,41.6595
34.7069,41.5685
34.7075,41.5666
34.7335,41.4848
34.7335,41.4848
34.7363,41.4760
34.7369,41.4705
34.7385,41.4653
34.7481,41.3706
34.7483,41.3687
34.7494,41.3591
34.7540,41.3178
34.7540,41.3137
34.7544,41.3080
34.7581,41.2725
34.7590,41.2633
34.7548,41.2194
34.7540,41.2015
34.7540,35.2425
42.2236,35.2425
42.2236,35.2553
42.2563,35.3694
42.2631,35.3866
42.3491,35.5539
42.3591,35.5694
42.4760,35.7169
42.4888,35.7301
42.6321,35.8521
42.6472,35.8626
42.8114,35.9544
42.8283,35.9618
42.9730,36.0088
42.9900,36.0103
42.9933,36.0000
42.9933,35.2600
42.9909,35.2496
43.4937,35.2496
43.4937,35.9915
43.4975,36.0082
43.5107,36.0082
43.6175,35.9783
43.6347,35.9716
43.8027,35.8868
43.8182,35.8769
43.9665,35.7611
43.9799,35.7484
44.1028,35.6060
44.1134,35.5909
44.2064,35.4273
44.2139,35.4104
44.2643,35.2589
44.2659,35.2420
44.2560,35.2387
43.5150,35.2387
43.4970,35.2428
43.4937,35.2496
42.9909,35.2496
42.9892,35.2420
42.9824,35.2387
42.2402,35.2387
42.2236,35.2425
34.7540,35.2425
34.7540,34.7349
42.2222,34.7349
42.2329,34.7383
42.9720,34.7383
42.9900,34.7342
42.9933,34.7274
42.9933,33.9848
42.9919,33.9787
43.4937,33.9787
43.4937,34.7170
43.4978,34.7350
43.5046,34.7383
44.2475,34.7383
44.2641,34.7345
44.2641,34.7226
44.2253,34.5938
44.2182,34.5768
44.1299,34.4106
44.1197,34.3953
44.0008,34.2495
43.9878,34.2364
43.8428,34.1165
43.8275,34.1061
43.6620,34.0167
43.6450,34.0095
43.5141,33.9690
43.4971,33.9677
43.4937,33.9787
42.9919,33.9787
42.9895,33.9682
42.9772,33.9682
42.8557,34.0040
42.8386,34.0109
42.6718,34.0981
42.6564,34.1082
42.5098,34.2261
42.4966,34.2390
42.3757,34.3831
42.3652,34.3983
42.2746,34.5632
42.2673,34.5801
42.2236,34.7180
42.2222,34.7349
34.7540,34.7349
34.7540,31.2735
34.7550,31.2537
34.7580,31.2255
34.7580,31.2255
34.7590,31.2162
34.7548,31.1701
34.7540,31.1530
34.7540,30.6406
34.7551,30.6202
34.7579,30.5941
34.7589,30.5849
34.7581,30.5756
34.7544,30.5330
34.7540,30.5271
34.7540,30.5230
34.7497,30.4793
34.7495,30.4773
34.7421,30.3918
34.7412,30.3826
34.7397,30.3773
34.7392,30.3719
34.7117,30.2808
34.7111,30.2789
34.6872,30.1965
34.6872,30.1965
34.6846,30.1876
34.6821,30.1827
34.6805,30.1775
34.6358,30.0935
34.6349,30.0917
34.5954,30.0155
34.5911,30.0073
34.5877,30.0030
34.5852,29.9982
34.5793,29.9910
34.5793,29.9910
34.5250,29.9244
34.5239,29.9230
34.4919,29.8829
34.4890,29.8800
34.4852,29.8757
34.4627,29.8480
34.4627,29.8480
34.4568,29.8408
34.4228,29.8127
34.4096,29.8007
33.1604,28.5515
33.1156,28.4801
33.1055,28.4026
33.1084,28.3659
33.1084,28.3659
33.1090,28.3585
33.0886,28.0995
33.0776,28.0536
33.0297,27.8542
33.0280,27.8469
32.9946,27.7663
32.9339,27.6199
32.9286,27.6069
32.8119,27.4165
32.7967,27.3918
32.7967,27.3918
32.7928,27.3854
32.6363,27.2021
32.5971,27.1274
32.5943,27.0431
32.6283,26.9659
32.6924,26.9112
32.7740,26.8896
32.8529,26.9040
33.0850,27.0001
33.0851,27.0001
33.0919,27.0030
33.0992,27.0047
33.3373,27.0619
33.3373,27.0619
33.3445,27.0636
33.6035,27.0840
33.8625,27.0636
33.8697,27.0619
33.8697,27.0619
34.1078,27.0047
34.1151,27.0030
34.1219,27.0001
34.1220,27.0001
34.3351,26.9118
34.3551,26.9036
34.5766,26.7678
34.7741,26.5991
34.8680,26.4892
34.9356,26.4389
35.0121,26.4228
35.6749,26.4228
35.7571,26.4416
35.8089,26.4783
37.3842,28.0536
37.3978,28.0688
37.4201,28.0965
37.4600,28.1300
37.4645,28.1339
37.4673,28.1368
37.4709,28.1397
37.4709,28.1397
37.5013,28.1647
37.5028,28.1659
37.5685,28.2211
37.5686,28.2211
37.5757,28.2270
37.5804,28.2297
37.5847,28.2331
37.6378,28.2616
37.6685,28.2781
37.6703,28.2790
37.7536,28.3249
37.7588,28.3265
37.7636,28.3291
37.7725,28.3318
37.7725,28.3318
37.8547,28.3569
37.8566,28.3575
37.9472,28.3863
37.9526,28.3869
37.9578,28.3885
38.0525,28.3981
38.0544,28.3983
38.1053,28.4040
38.1094,28.4040
38.1151,28.4044
38.1599,28.4090
38.1691,28.4081
38.1691,28.4081
38.2038,28.4048
38.2216,28.4040
42.1748,28.4040
42.2570,28.4228
42.2959,28.4477
42.3766,28.5147
42.4173,28.5485
42.4240,28.5524
42.4240,28.5524
42.5077,28.6013
42.6211,28.6676
42.8416,28.7518
42.9570,28.7753
43.0653,28.7973
43.0653,28.7973
43.0729,28.7989
43.0807,28.7992
43.0807,28.7992
43.2329,28.8047
43.3088,28.8075
43.3166,28.8065
43.3166,28.8065
43.5353,28.7785
43.5353,28.7785
43.5430,28.7775
43.5504,28.7753
43.5505,28.7753
43.7616,28.7119
43.7617,28.7119
43.7691,28.7097
43.9811,28.6058
44.0207,28.5776
44.1670,28.4733
44.1670,28.4733
44.1733,28.4687
44.3134,28.3291
44.3350,28.3076
44.3350,28.3076
44.3405,28.3021
44.3869,28.2375
44.4737,28.1167
44.4737,28.1167
44.4782,28.1104
44.5828,27.8988
44.6515,27.6729
44.6593,27.6138
44.6816,27.4439
44.6816,27.4439
44.6823,27.4389
44.6840,27.3685
44.6688,27.1830
44.6653,27.1410
44.6653,27.1410
44.6647,27.1332
44.6071,26.9043
44.5130,26.6878
44.4838,26.6426
44.3890,26.4961
44.3890,26.4961
44.3848,26.4896
44.2259,26.3150
44.1806,26.2792
44.0468,26.1735
44.0407,26.1687
44.0145,26.1542
43.8408,26.0583
43.8340,26.0546
43.6115,25.9758
43.3791,25.9344
43.1430,25.9315
42.9097,25.9672
42.6853,26.0406
42.6784,26.0441
42.6784,26.0441
42.5707,26.1002
42.4759,26.1496
42.2871,26.2913
42.2862,26.2900
42.2210,26.3258
42.1691,26.3330
38.6709,26.3330
38.5887,26.3142
38.5369,26.2775
37.7807,25.5213
37.7358,25.4499
37.7264,25.3661
37.7543,25.2865
37.7807,25.2533
40.8806,22.1534
40.8958,22.1398
40.9163,22.1233
40.9235,22.1175
40.9570,22.0776
40.9609,22.0731
40.9638,22.0703
40.9667,22.0667
40.9667,22.0667
40.9916,22.0363
40.9929,22.0348
41.0481,21.9690
41.0481,21.9690
41.0540,21.9619
41.0567,21.9572
41.0601,21.9529
41.1052,21.8690
41.1060,21.8675
41.1519,21.7840
41.1535,21.7788
41.1561,21.7740
41.1605,21.7594
41.1839,21.6829
41.1845,21.6810
41.2105,21.5993
41.2105,21.5993
41.2133,21.5904
41.2139,21.5850
41.2155,21.5798
41.2251,21.4851
41.2253,21.4831
41.2258,21.4783
41.2310,21.4323
41.2310,21.4282
41.2314,21.4225
41.2351,21.3870
41.2360,21.3777
41.2318,21.3338
41.2310,21.3160
41.2310,15.5646
43.3895,15.5646
43.3895,16.7942
43.3913,16.8126
43.4056,16.8843
43.4196,16.9181
43.4550,16.9711
43.4809,16.9970
43.5339,17.0324
43.5677,17.0464
43.6394,17.0607
43.6578,17.0625
44.8770,17.0625
44.8950,17.0584
44.8983,17.0515
44.8983,15.5750
44.8959,15.5646
45.3987,15.5646
45.3987,17.0411
45.4028,17.0592
45.4096,17.0625
46.6392,17.0625
46.6576,17.0607
46.7293,17.0464
46.7631,17.0324
46.8161,16.9970
46.8420,16.9711
46.8774,16.9181
46.8914,16.8843
46.9057,16.8126
46.9075,16.7942
46.9075,15.5750
46.9034,15.5570
46.8965,15.5537
45.4200,15.5537
45.4020,15.5578
45.3987,15.5646
44.8959,15.5646
44.8942,15.5570
44.8874,15.5537
43.4109,15.5537
43.3928,15.5578
43.3895,15.5646
41.2310,15.5646
41.2310,13.8128
43.3895,13.8128
43.3895,15.0320
43.3936,15.0500
43.4004,15.0533
44.8770,15.0533
44.8950,15.0492
44.8983,15.0424
44.8983,13.5659
44.8959,13.5554
45.3987,13.5554
45.3987,15.0320
45.4028,15.0500
45.4096,15.0533
46.8861,15.0533
46.9042,15.0492
46.9075,15.0424
46.9075,13.8128
46.9057,13.7944
46.8914,13.7227
46.8774,13.6889
46.8420,13.6359
46.8161,13.6100
46.7631,13.5746
46.7293,13.5606
46.6576,13.5463
46.6392,13.5445
45.4200,13.5445
45.4020,13.5486
45.3987,13.5554
44.8959,13.5554
44.8942,13.5478
44.8874,13.5445
43.6578,13.5445
43.6394,13.5463
43.5677,13.5606
43.5339,13.5746
43.4809,13.6100
43.4550,13.6359
43.4196,13.6889
43.4056,13.7227
43.3913,13.7944
43.3895,13.8128
41.2310,13.8128
41.2310,13.0169
41.2498,12.9347
41.2865,12.8829
41.6019,12.5675
41.6733,12.5226
41.7359,12.5120
42.0038,12.5120
42.0243,12.5131
42.0596,12.5169
42.0688,12.5161
42.0688,12.5161
42.1115,12.5124
42.1174,12.5120
42.1215,12.5120
42.1394,12.5102
42.1652,12.5077
42.1672,12.5075
42.1904,12.5055
42.2619,12.4992
42.2672,12.4977
42.2726,12.4972
42.2815,12.4945
42.2815,12.4945
42.3637,12.4697
42.3656,12.4691
42.4480,12.4452
42.4480,12.4452
42.4569,12.4426
42.4618,12.4401
42.4670,12.4385
42.5511,12.3938
42.5527,12.3929
42.6290,12.3534
42.6290,12.3534
42.6372,12.3491
42.6415,12.3457
42.6463,12.3432
42.6535,12.3373
42.6535,12.3373
42.7200,12.2830
42.7215,12.2819
42.7616,12.2499
42.7645,12.2470
42.7688,12.2432
42.7965,12.2207
42.7965,12.2207
42.8037,12.2148
42.8318,12.1808
42.8438,12.1676
43.2864,11.7250
43.3578,11.6802
43.4416,11.6707
43.5212,11.6986
43.5606,11.7315
43.6626,11.8436
43.6626,11.8437
43.6670,11.8484
43.6719,11.8526
43.6719,11.8526
43.8677,12.0163
43.8903,12.0352
44.0102,12.1104
44.1014,12.1676
44.1370,12.1899
44.1429,12.1926
44.1429,12.1926
44.3965,12.3071
44.3965,12.3071
44.4024,12.3098
44.4086,12.3116
44.4086,12.3116
44.6754,12.3906
44.6754,12.3906
44.6816,12.3925
44.7338,12.4004
44.9630,12.4355
44.9630,12.4355
44.9694,12.4365
45.0695,12.4381
45.2541,12.4410
45.2541,12.4410
45.2605,12.4411
45.5496,12.4061
45.5558,12.4044
45.5558,12.4044
45.7829,12.3449
45.8312,12.3322
46.0325,12.2488
46.0943,12.2232
46.0943,12.2232
46.1002,12.2208
46.3516,12.0739
46.5808,11.8942
46.6255,11.8480
46.7049,11.7661
46.7834,11.6851
46.9558,11.4504
47.0947,11.1945
47.1143,11.1428
47.1954,10.9282
47.1954,10.9282
47.1976,10.9222
47.2626,10.6383
47.2657,10.6039
47.2882,10.3520
47.2882,10.3520
47.2885,10.3483
47.2890,10.3035
47.2749,10.0969
47.2696,10.0194
47.2696,10.0194
47.2692,10.0130
47.2361,9.8531
47.2115,9.7342
47.2115,9.7342
47.2101,9.7279
47.1130,9.4534
46.9794,9.1947
46.8120,8.9564
46.6138,8.7431
46.3885,8.5587
46.1771,8.4292
46.1457,8.4100
46.1457,8.4100
46.1402,8.4066
45.8736,8.2895
45.7183,8.2453
45.5997,8.2115
45.5997,8.2115
45.5935,8.2098
45.3053,8.1687
45.2988,8.1687
45.2988,8.1687
45.1712,8.1680
45.0141,8.1672
45.0077,8.1681
45.0077,8.1681
44.8824,8.1846
44.7254,8.2052
44.4446,8.2821
44.4386,8.2846
44.4386,8.2846
44.1827,8.3938
44.1827,8.3938
44.1767,8.3963
44.1712,8.3996
44.1712,8.3996
43.9324,8.5425
43.9324,8.5425
43.9269,8.5458
43.8123,8.6376
43.7101,8.7195
43.6996,8.7279
43.6852,8.7431
43.5037,8.9344
43.5037,8.9344
43.4992,8.9391
43.4068,9.0677
43.3436,9.1235
43.2695,9.1458
43.1883,9.1529
43.1791,9.1538
42.9841,9.2104
42.9759,9.2147
42.8120,9.2996
42.8120,9.2996
42.8038,9.3039
42.6794,9.4031
41.6971,10.3855
41.6257,10.4304
41.5631,10.4410
41.2952,10.4410
41.2747,10.4399
41.2394,10.4361
41.2302,10.4369
41.2302,10.4369
41.1875,10.4406
41.1816,10.4410
41.1775,10.4410
41.1596,10.4428
41.1338,10.4453
41.1318,10.4455
41.1086,10.4475
41.0371,10.4538
41.0318,10.4553
41.0264,10.4558
41.0175,10.4585
41.0175,10.4585
40.9353,10.4833
40.9334,10.4839
40.8510,10.5078
40.8510,10.5078
40.8421,10.5104
40.8372,10.5129
40.8320,10.5145
40.7479,10.5592
40.7463,10.5601
40.6700,10.5996
40.6700,10.5996
40.6618,10.6039
40.6575,10.6073
40.6527,10.6098
40.6455,10.6157
40.6455,10.6157
40.5790,10.6700
40.5775,10.6711
40.5374,10.7031
40.5345,10.7060
40.5302,10.7098
40.5118,10.7248
40.4953,10.7382
40.4813,10.7551
40.4672,10.7722
40.4552,10.7854
39.5104,11.7302
39.4952,11.7438
39.4675,11.7661
39.4340,11.8060
39.4301,11.8105
39.4272,11.8133
39.4243,11.8169
39.4243,11.8169
39.3993,11.8473
39.3981,11.8488
39.3429,11.9145
39.3429,11.9146
39.3370,11.9217
39.3343,11.9264
39.3309,11.9307
39.3024,11.9838
39.2859,12.0145
39.2850,12.0163
39.2391,12.0996
39.2375,12.1048
39.2349,12.1096
39.2322,12.1185
39.2322,12.1185
39.2071,12.2007
39.2065,12.2026
39.1777,12.2932
39.1771,12.2986
39.1755,12.3038
39.1664,12.3934
39.1659,12.3985
39.1657,12.4004
39.1600,12.4513
39.1600,12.4554
39.1596,12.4611
39.1550,12.5059
39.1559,12.5151
39.1559,12.5151
39.1592,12.5498
39.1600,12.5676
39.1600,20.8667
39.1412,20.9489
39.1045,21.0007
35.8089,24.2963
35.7375,24.3412
35.6749,24.3518
34.9417,24.3518
34.8595,24.3330
34.7976,24.2854
34.7741,24.2579
34.5766,24.0892
34.5508,24.0734
34.4743,24.0265
34.3551,23.9534
34.2516,23.9106
34.1220,23.8569
34.1219,23.8569
34.1151,23.8540
34.1078,23.8523
33.8697,23.7951
33.8697,23.7951
33.8625,23.7934
33.8502,23.7924
33.7697,23.7673
33.7081,23.7097
33.6776,23.6310
33.6842,23.5470
33.7266,23.4741
33.7965,23.4268
33.8502,23.4146
33.8504,23.4146
33.8625,23.4136
33.8697,23.4119
33.8697,23.4119
34.1078,23.3547
34.1151,23.3530
34.1219,23.3501
34.1220,23.3501
34.3482,23.2564
34.3551,23.2536
34.5766,23.1178
34.7741,22.9491
34.9428,22.7516
34.9797,22.6913
35.0117,22.6393
35.0786,22.5301
35.1780,22.2901
35.2141,22.1398
35.2369,22.0447
35.2369,22.0447
35.2386,22.0375
35.2590,21.7785
35.2519,21.6884
35.2642,21.6050
35.3068,21.5396
35.6736,21.1728
35.6888,21.1592
35.7093,21.1427
35.7165,21.1369
35.7500,21.0970
35.7539,21.0925
35.7568,21.0897
35.7597,21.0861
35.7597,21.0861
35.7846,21.0557
35.7859,21.0542
35.8411,20.9884
35.8411,20.9884
35.8470,20.9813
35.8497,20.9766
35.8531,20.9723
35.8982,20.8884
35.8990,20.8869
35.9449,20.8034
35.9465,20.7982
35.9491,20.7934
35.9577,20.7653
35.9769,20.7023
35.9775,20.7004
36.0035,20.6187
36.0035,20.6187
36.0063,20.6098
36.0069,20.6044
36.0085,20.5992
36.0181,20.5045
36.0183,20.5025
36.0209,20.4792
36.0240,20.4517
36.0240,20.4476
36.0244,20.4419
36.0247,20.4393
36.0290,20.3971
36.0279,20.3859
36.0248,20.3532
36.0240,20.3354
36.0240,6.8521
36.0428,6.7699
36.0754,6.7239
36.0749,6.7235
36.0795,6.7181
36.0797,6.7179
36.0800,6.7176
36.0800,6.7176
36.0855,6.7121
36.1109,6.6768
36.2187,6.5267
36.2187,6.5267
36.2232,6.5204
36.3278,6.3088
36.3965,6.0829
36.4031,6.0325
36.4266,5.8539
36.4266,5.8539
36.4273,5.8489
36.4290,5.7785
36.4181,5.6462
36.4103,5.5510
36.4103,5.5510
36.4097,5.5432
36.3521,5.3143
36.2580,5.0978
36.2381,5.0670
36.1340,4.9061
36.1340,4.9061
36.1298,4.8996
35.9709,4.7250
35.7857,4.5787
35.7595,4.5642
35.5858,4.4683
35.5790,4.4646
35.3565,4.3858
35.1241,4.3444
34.8880,4.3415
34.6547,4.3772
34.4303,4.4506
34.4234,4.4541
34.4234,4.4541
34.3157,4.5102
34.2209,4.5596
34.0321,4.7013
34.0267,4.7069
34.0267,4.7069
33.8744,4.8663
33.8690,4.8720
33.7360,5.0670
33.6366,5.2811
33.5735,5.5086
33.5484,5.7433
33.5489,5.7511
33.5489,5.7511
33.5602,5.9480
33.5620,5.9790
33.6139,6.2093
33.7027,6.4280
33.8261,6.6293
33.9067,6.7224
33.9464,6.7968
33.9530,6.8465
33.9530,19.8861
33.9342,19.9683
33.8975,20.0201
33.8424,20.0752
33.7710,20.1200
33.6936,20.1301
33.6035,20.1230
33.3445,20.1434
33.3373,20.1451
33.3373,20.1451
33.1432,20.1917
33.0919,20.2040
33.0851,20.2069
33.0850,20.2069
32.8529,20.3030
32.7697,20.3172
32.6887,20.2938
32.6258,20.2376
32.5935,20.1597
32.5983,20.0755
32.6363,20.0049
32.6675,19.9683
32.7928,19.8216
32.9286,19.6001
33.0280,19.3601
33.0596,19.2284
33.0869,19.1147
33.0869,19.1147
33.0886,19.1075
33.1090,18.8485
33.0886,18.5895
33.0744,18.5304
33.0297,18.3442
33.0280,18.3369
32.9680,18.1921
32.9314,18.1038
32.9286,18.0969
32.7928,17.8754
32.6241,17.6779
32.4266,17.5092
32.2051,17.3734
32.0396,17.3049
31.9720,17.2769
31.9719,17.2769
31.9651,17.2740
31.9460,17.2695
31.7197,17.2151
31.7197,17.2151
31.7125,17.2134
31.4535,17.1930
31.4091,17.1965
31.3257,17.1842
31.2603,17.1416
31.0993,16.9806
31.0856,16.9654
31.0692,16.9449
31.0634,16.9377
31.0235,16.9042
31.0190,16.9003
31.0161,16.8974
31.0125,16.8945
31.0125,16.8945
30.9822,16.8695
30.9806,16.8683
30.9149,16.8131
30.9149,16.8131
30.9078,16.8072
30.9030,16.8045
30.8988,16.8011
30.8318,16.7651
30.8150,16.7561
30.8132,16.7552
30.7380,16.7138
30.7380,16.7138
30.7299,16.7093
30.7247,16.7077
30.7198,16.7051
30.6288,16.6773
30.6269,16.6767
30.5451,16.6507
30.5451,16.6507
30.5363,16.6479
30.5309,16.6473
30.5256,16.6457
30.4310,16.6361
30.4291,16.6359
30.3782,16.6302
30.3741,16.6302
30.3684,16.6298
30.3236,16.6252
30.3144,16.6261
30.3144,16.6261
30.2797,16.6294
30.2619,16.6302
29.3403,16.6302
29.2581,16.6114
29.1962,16.5638
29.1790,16.5436
29.1790,16.5435
29.1741,16.5379
28.9766,16.3692
28.7551,16.2334
28.6728,16.1993
28.5220,16.1369
28.5219,16.1369
28.5151,16.1340
28.5078,16.1323
28.2697,16.0751
28.2697,16.0751
28.2625,16.0734
28.0035,16.0530
27.7445,16.0734
27.7373,16.0751
27.7373,16.0751
27.4992,16.1323
27.4919,16.1340
27.4851,16.1369
27.4850,16.1369
27.3342,16.1993
27.2519,16.2334
27.0304,16.3692
26.8329,16.5379
26.6642,16.7354
26.6603,16.7418
26.6603,16.7418
26.6266,16.7967
26.5284,16.9569
26.5212,16.9745
26.4439,17.1611
26.4290,17.1969
26.4273,17.2042
26.3895,17.3617
26.3684,17.4495
26.3480,17.7085
26.3486,17.7159
26.3616,17.8818
26.3684,17.9675
26.3699,17.9737
26.3642,18.0575
26.3226,18.1309
26.2533,18.1789
26.1700,18.1921
26.0892,18.1678
26.0270,18.1109
26.0186,18.0969
26.0186,18.0969
25.8867,17.8818
25.8867,17.8818
25.8828,17.8754
25.7141,17.6779
25.7085,17.6730
25.7084,17.6730
25.6510,17.6240
25.6007,17.5563
25.5846,17.4799
25.5846,10.6458
25.5857,10.6253
25.5880,10.6039
25.5895,10.5900
25.5868,10.5591
25.5850,10.5381
25.5846,10.5322
25.5846,10.5281
25.5803,10.4844
25.5801,10.4824
25.5769,10.4455
25.5718,10.3877
25.5703,10.3824
25.5698,10.3770
25.5622,10.3520
25.5423,10.2859
25.5417,10.2840
25.5178,10.2016
25.5178,10.2016
25.5152,10.1927
25.5127,10.1878
25.5111,10.1826
25.4664,10.0985
25.4655,10.0969
25.4260,10.0206
25.4260,10.0206
25.4217,10.0124
25.4183,10.0081
25.4158,10.0033
25.4099,9.9961
25.4099,9.9961
25.3556,9.9296
25.3545,9.9281
25.3225,9.8880
25.3196,9.8851
25.3158,9.8808
25.2933,9.8531
25.2933,9.8531
25.2874,9.8459
25.2534,9.8178
25.2402,9.8058
24.3378,8.9034
24.3242,8.8882
24.3077,8.8677
24.3019,8.8605
24.2620,8.8270
24.2575,8.8231
24.2547,8.8202
24.2511,8.8173
24.2511,8.8173
24.2207,8.7923
24.2192,8.7911
24.1535,8.7359
24.1534,8.7359
24.1463,8.7300
24.1416,8.7273
24.1373,8.7239
24.0555,8.6800
24.0535,8.6789
24.0517,8.6780
23.9765,8.6366
23.9765,8.6366
23.9684,8.6321
23.9632,8.6305
23.9584,8.6279
23.9486,8.6249
23.8673,8.6001
23.8654,8.5995
23.7837,8.5735
23.7837,8.5735
23.7748,8.5707
23.7694,8.5701
23.7642,8.5685
23.6695,8.5589
23.6676,8.5587
23.6167,8.5530
23.6126,8.5530
23.6069,8.5526
23.5621,8.5480
23.5529,8.5489
23.5529,8.5489
23.5182,8.5522
23.5004,8.5530
22.1804,8.5530
22.0982,8.5342
22.0322,8.4817
22.0007,8.4129
21.9986,8.4136
21.9949,8.4023
21.9927,8.3906
21.9243,8.2453
21.8220,8.1216
21.6921,8.0272
21.5428,7.9681
21.3835,7.9480
19.3835,7.9480
19.3587,7.9488
19.3507,7.9490
19.3507,7.9490
19.3433,7.9493
19.1856,7.9793
19.0403,8.0477
18.9166,8.1500
18.9096,8.1597
18.9096,8.1597
18.8474,8.2453
18.8222,8.2799
18.7631,8.4292
18.7604,8.4281
18.7308,8.4856
18.6635,8.5364
18.5859,8.5530
18.4182,8.5530
18.3977,8.5519
18.3624,8.5481
18.3532,8.5489
18.3532,8.5489
18.3105,8.5526
18.3046,8.5530
18.3005,8.5530
18.2826,8.5548
18.2568,8.5573
18.2548,8.5575
18.2316,8.5595
18.1601,8.5658
18.1548,8.5673
18.1494,8.5678
18.1405,8.5705
18.1405,8.5705
18.0583,8.5953
18.0564,8.5959
17.9740,8.6198
17.9740,8.6198
17.9651,8.6224
17.9602,8.6249
17.9550,8.6265
17.9468,8.6309
17.8961,8.6578
17.8071,8.6800
9.1050,8.6800
9.0227,8.6612
8.9874,8.6370
8.9870,8.6376
8.8667,8.5502
8.8571,8.5432
8.7078,8.4841
8.5485,8.4640
5.5485,8.4640
5.5237,8.4648
5.5157,8.4650
5.5157,8.4650
5.5083,8.4653
5.3506,8.4953
5.2053,8.5637
5.0816,8.6660
5.0746,8.6757
5.0746,8.6757
5.0308,8.7359
4.9872,8.7959
4.9281,8.9452
4.9080,9.1045
1.3335,9.1045
1.3335,6.6391
1.3523,6.5568
1.4048,6.4909
1.4808,6.4543
1.5652,6.4543
1.6384,6.4887
1.9257,6.7092
1.9257,6.7092
1.9297,6.7123
1.9341,6.7150
1.9341,6.7150
2.1504,6.8465
2.2477,6.9056
2.5847,7.0635
2.5895,7.0651
2.5895,7.0651
2.9319,7.1823
2.9319,7.1823
2.9367,7.1840
3.2997,7.2658
3.6030,7.3004
3.6644,7.3074
3.6644,7.3074
3.6695,7.3079
3.6746,7.3080
3.6746,7.3080
3.8555,7.3089
4.0416,7.3099
4.4117,7.2716
4.4441,7.2647
4.7705,7.1947
4.7705,7.1947
4.7756,7.1936
5.1289,7.0768
5.1629,7.0613
5.4628,6.9246
5.4628,6.9246
5.4675,6.9225
5.7874,6.7325
5.8073,6.7176
6.0809,6.5122
6.0809,6.5122
6.0850,6.5091
6.1044,6.4909
6.3530,6.2583
6.3530,6.2583
6.3567,6.2548
6.5480,6.0325
26.3486,6.0325
26.3486,6.0453
26.3813,6.1594
26.3881,6.1766
26.4741,6.3439
26.4841,6.3594
26.6010,6.5069
26.6138,6.5201
26.7571,6.6421
26.7722,6.6526
26.9364,6.7444
26.9533,6.7518
27.0980,6.7988
27.1150,6.8003
27.1183,6.7900
27.1183,6.0500
27.1159,6.0396
27.6187,6.0396
27.6187,6.7815
27.6225,6.7981
27.6357,6.7981
27.7425,6.7683
27.7597,6.7616
27.9277,6.6768
27.9432,6.6669
28.0915,6.5511
28.1049,6.5384
28.2278,6.3960
28.2384,6.3809
28.3314,6.2173
28.3389,6.2004
28.3893,6.0489
28.3909,6.0320
28.3810,6.0287
27.6400,6.0287
27.6220,6.0328
27.6187,6.0396
27.1159,6.0396
27.1142,6.0320
27.1074,6.0287
26.3652,6.0287
26.3486,6.0325
6.5480,6.0325
6.5994,5.9727
6.8101,5.6660
6.8126,5.6615
6.8126,5.6615
6.8272,5.6344
19.6965,5.6344
19.7099,5.6473
19.8402,5.7234
19.8554,5.7306
20.0497,5.8017
20.0660,5.8061
20.2698,5.8416
20.2866,5.8430
20.4935,5.8420
20.5103,5.8404
20.7138,5.8027
20.7300,5.7981
20.9236,5.7250
20.9387,5.7177
21.0581,5.6462
21.0700,5.6348
21.0606,5.6194
20.9661,5.5249
26.3472,5.5249
26.3579,5.5283
27.0970,5.5283
27.1150,5.5242
27.1183,5.5174
27.1183,4.7748
27.1169,4.7687
27.6187,4.7687
27.6187,5.5070
27.6228,5.5250
27.6296,5.5283
28.3725,5.5283
28.3891,5.5245
28.3891,5.5126
28.3503,5.3838
28.3432,5.3668
28.2549,5.2006
28.2447,5.1853
28.1258,5.0395
28.1128,5.0264
27.9678,4.9065
27.9525,4.8961
27.7870,4.8067
27.7700,4.7995
27.6391,4.7590
27.6221,4.7577
27.6187,4.7687
27.1169,4.7687
27.1145,4.7582
27.1022,4.7582
26.9807,4.7940
26.9636,4.8009
26.7968,4.8881
26.7814,4.8982
26.6348,5.0161
26.6216,5.0290
26.5007,5.1731
26.4902,5.1883
26.3996,5.3532
26.3923,5.3701
26.3486,5.5080
26.3472,5.5249
20.9661,5.5249
20.3986,4.9574
20.3829,4.9476
20.3758,4.9501
19.7052,5.6206
19.6965,5.6344
6.8272,5.6344
6.8990,5.5011
6.9866,5.3384
6.9933,5.3218
7.1246,4.9984
7.1246,4.9984
7.1266,4.9936
7.1515,4.9061
7.1834,4.7940
7.2218,4.6591
19.1272,4.6591
19.1283,4.6759
19.1596,4.8805
19.1636,4.8968
19.2306,5.0926
19.2374,5.1079
19.3246,5.2645
19.3360,5.2772
19.3472,5.2709
20.0146,4.6036
20.0237,4.5891
20.7426,4.5891
20.7451,4.5962
21.4177,5.2689
21.4321,5.2780
21.4408,5.2693
21.5349,5.0959
21.5416,5.0805
21.6066,4.8840
21.6104,4.8676
21.6400,4.6598
21.6409,4.6489
21.6424,4.5940
21.6420,4.5831
21.6234,4.3740
21.6204,4.3574
21.5658,4.1578
21.5599,4.1420
21.4708,3.9552
21.4622,3.9408
21.4424,3.9132
21.4286,3.9010
21.4170,3.9088
20.7524,4.5734
20.7426,4.5891
20.0237,4.5891
20.0244,4.5879
20.0219,4.5808
19.3525,3.9113
19.3381,3.9023
19.3261,3.9144
19.2662,4.0098
19.2586,4.0248
19.1814,4.2168
19.1765,4.2329
19.1346,4.4355
19.1326,4.4522
19.1272,4.6591
7.2218,4.6591
7.2285,4.6357
7.2294,4.6307
7.2903,4.2740
7.2903,4.2740
7.2912,4.2689
7.2934,4.2331
7.3138,3.9002
7.3139,3.8975
7.3140,3.8735
7.3136,3.8666
7.2960,3.5418
19.6944,3.5418
19.6947,3.5430
19.7013,3.5524
20.3684,4.2196
20.3841,4.2294
20.3912,4.2269
21.0604,3.5578
21.0698,3.5428
21.0590,3.5316
20.9970,3.4899
20.9823,3.4818
20.7928,3.3987
20.7769,3.3933
20.5756,3.3450
20.5590,3.3425
20.3524,3.3306
20.3356,3.3311
20.1301,3.3560
20.1137,3.3595
19.9159,3.4203
19.9003,3.4267
19.7164,3.5216
19.7053,3.5286
19.6944,3.5418
7.2960,3.5418
7.2942,3.5070
7.2942,3.5070
7.2939,3.5019
7.2919,3.4900
7.2346,3.1398
7.2337,3.1347
7.1343,2.7761
6.9967,2.4304
6.8226,2.1015
6.6140,1.7934
6.4771,1.6320
6.4382,1.5572
6.4357,1.4729
6.4700,1.3958
6.5343,1.3413
6.6212,1.3199
21.2609,1.2824
45.6605,1.2198
Z" /> 
</g>
</g>
</g>
<g style="fill:#000000; fill-opacity:1.0000; 
stroke:#000000; stroke-width:0.0000; stroke-opacity:1; 
stroke-linecap:round; stroke-linejoin:round;">
<circle cx="20.3835" cy="9.5885" r="0.5000" /> 
</g>
<g style="fill:#000000; fill-opacity:1.0000; 
stroke:#000000; stroke-width:0.0212; stroke-opacity:1; 
stroke-linecap:round; stroke-linejoin:round;">
</g>
<g style="fill:#000000; fill-opacity:1.0000; 
stroke:#000000; stroke-width:0.0000; stroke-opacity:1; 
stroke-linecap:round; stroke-linejoin:round;">
<circle cx="20.3835" cy="4.5885" r="0.5000" /> 
</g>
<g style="fill:#000000; fill-opacity:1.0000; 
stroke:#000000; stroke-width:0.0212; stroke-opacity:1; 
stroke-linecap:round; stroke-linejoin:round;">
</g>
<g style="fill:#000000; fill-opacity:1.0000; 
stroke:#000000; stroke-width:0.0000; stroke-opacity:1; 
stroke-linecap:round; stroke-linejoin:round;">
<circle cx="15.9385" cy="34.9885" r="0.4000" /> 
</g>
<g style="fill:#000000; fill-opacity:1.0000; 
stroke:#000000; stroke-width:0.0212; stroke-opacity:1; 
stroke-linecap:round; stroke-linejoin:round;">
</g>
<g style="fill:#000000; fill-opacity:1.0000; 
stroke:#000000; stroke-width:0.0000; stroke-opacity:1; 
stroke-linecap:round; stroke-linejoin:round;">
<circle cx="15.9385" cy="29.9885" r="0.4000" /> 
</g>
<g style="fill:#000000; fill-opacity:1.0000; 
stroke:#000000; stroke-width:0.0212; stroke-opacity:1; 
stroke-linecap:round; stroke-linejoin:round;">
</g>
<g style="fill:#000000; fill-opacity:1.0000; 
stroke:#000000; stroke-width:0.0000; stroke-opacity:1; 
stroke-linecap:round; stroke-linejoin:round;">
<circle cx="3.8735" cy="3.8735" r="1.6000" /> 
</g>
<g style="fill:#000000; fill-opacity:1.0000; 
stroke:#000000; stroke-width:0.0212; stroke-opacity:1; 
stroke-linecap:round; stroke-linejoin:round;">
</g>
<g style="fill:#000000; fill-opacity:1.0000; 
stroke:#000000; stroke-width:0.0000; stroke-opacity:1; 
stroke-linecap:round; stroke-linejoin:round;">
<circle cx="48.3235" cy="3.8735" r="1.6000" /> 
</g>
<g style="fill:#000000; fill-opacity:1.0000; 
stroke:#000000; stroke-width:0.0212; stroke-opacity:1; 
stroke-linecap:round; stroke-linejoin:round;">
</g>
<g style="fill:#000000; fill-opacity:1.0000; 
stroke:#000000; stroke-width:0.0000; stroke-opacity:1; 
stroke-linecap:round; stroke-linejoin:round;">
<circle cx="48.3235" cy="42.6085" r="1.6000" /> 
</g>
<g style="fill:#000000; fill-opacity:1.0000; 
stroke:#000000; stroke-width:0.0212; stroke-opacity:1; 
stroke-linecap:round; stroke-linejoin:round;">
</g>
<g style="fill:#000000; fill-opacity:1.0000; 
stroke:#000000; stroke-width:0.0000; stroke-opacity:1; 
stroke-linecap:round; stroke-linejoin:round;">
<circle cx="15.0495" cy="17.8435" r="0.4000" /> 
</g>
<g style="fill:#000000; fill-opacity:1.0000; 
stroke:#000000; stroke-width:0.0212; stroke-opacity:1; 
stroke-linecap:round; stroke-linejoin:round;">
</g>
<g style="fill:#000000; fill-opacity:1.0000; 
stroke:#000000; stroke-width:0.0000; stroke-opacity:1; 
stroke-linecap:round; stroke-linejoin:round;">
<circle cx="15.0495" cy="25.4635" r="0.4000" /> 
</g>
<g style="fill:#000000; fill-opacity:1.0000; 
stroke:#000000; stroke-width:0.0212; stroke-opacity:1; 
stroke-linecap:round; stroke-linejoin:round;">
</g>
<g style="fill:#000000; fill-opacity:1.0000; 
stroke:#000000; stroke-width:0.0000; stroke-opacity:1; 
stroke-linecap:round; stroke-linejoin:round;">
<circle cx="34.9885" cy="5.7785" r="0.4000" /> 
</g>
<g style="fill:#000000; fill-opacity:1.0000; 
stroke:#000000; stroke-width:0.0212; stroke-opacity:1; 
stroke-linecap:round; stroke-linejoin:round;">
</g>
<g style="fill:#000000; fill-opacity:1.0000; 
stroke:#000000; stroke-width:0.0000; stroke-opacity:1; 
stroke-linecap:round; stroke-linejoin:round;">
<circle cx="27.3685" cy="5.7785" r="0.4000" /> 
</g>
<g style="fill:#000000; fill-opacity:1.0000; 
stroke:#000000; stroke-width:0.0212; stroke-opacity:1; 
stroke-linecap:round; stroke-linejoin:round;">
</g>
<g style="fill:#000000; fill-opacity:1.0000; 
stroke:#000000; stroke-width:0.0000; stroke-opacity:1; 
stroke-linecap:round; stroke-linejoin:round;">
<circle cx="43.2435" cy="27.3685" r="0.4000" /> 
</g>
<g style="fill:#000000; fill-opacity:1.0000; 
stroke:#000000; stroke-width:0.0212; stroke-opacity:1; 
stroke-linecap:round; stroke-linejoin:round;">
</g>
<g style="fill:#000000; fill-opacity:1.0000; 
stroke:#000000; stroke-width:0.0000; stroke-opacity:1; 
stroke-linecap:round; stroke-linejoin:round;">
<circle cx="43.2435" cy="34.9885" r="0.4000" /> 
</g>
<g style="fill:#000000; fill-opacity:1.0000; 
stroke:#000000; stroke-width:0.0212; stroke-opacity:1; 
stroke-linecap:round; stroke-linejoin:round;">
</g>
<g style="fill:#000000; fill-opacity:1.0000; 
stroke:#000000; stroke-width:0.0000; stroke-opacity:1; 
stroke-linecap:round; stroke-linejoin:round;">
<circle cx="7.0485" cy="22.6695" r="0.7500" /> 
</g>
<g style="fill:#000000; fill-opacity:1.0000; 
stroke:#000000; stroke-width:0.0212; stroke-opacity:1; 
stroke-linecap:round; stroke-linejoin:round;">
</g>
<g style="fill:#000000; fill-opacity:1.0000; 
stroke:#000000; stroke-width:0.0000; stroke-opacity:1; 
stroke-linecap:round; stroke-linejoin:round;">
<circle cx="7.0485" cy="27.6695" r="0.7500" /> 
</g>
<g style="fill:#000000; fill-opacity:1.0000; 
stroke:#000000; stroke-width:0.0212; stroke-opacity:1; 
stroke-linecap:round; stroke-linejoin:round;">
</g>
<g style="fill:#000000; fill-opacity:1.0000; 
stroke:#000000; stroke-width:0.0000; stroke-opacity:1; 
stroke-linecap:round; stroke-linejoin:round;">
<circle cx="7.0485" cy="10.6045" r="0.7500" /> 
</g>
<g style="fill:#000000; fill-opacity:1.0000; 
stroke:#000000; stroke-width:0.0212; stroke-opacity:1; 
stroke-linecap:round; stroke-linejoin:round;">
</g>
<g style="fill:#000000; fill-opacity:1.0000; 
stroke:#000000; stroke-width:0.0000; stroke-opacity:1; 
stroke-linecap:round; stroke-linejoin:round;">
<circle cx="7.0485" cy="15.6045" r="0.7500" /> 
</g>
<g style="fill:#000000; fill-opacity:1.0000; 
stroke:#000000; stroke-width:0.0212; stroke-opacity:1; 
stroke-linecap:round; stroke-linejoin:round;">
</g>
<g style="fill:#000000; fill-opacity:1.0000; 
stroke:#000000; stroke-width:0.0000; stroke-opacity:1; 
stroke-linecap:round; stroke-linejoin:round;">
<circle cx="24.3205" cy="41.0845" r="0.7500" /> 
</g>
<g style="fill:#000000; fill-opacity:1.0000; 
stroke:#000000; stroke-width:0.0212; stroke-opacity:1; 
stroke-linecap:round; stroke-linejoin:round;">
</g>
<g style="fill:#000000; fill-opacity:1.0000; 
stroke:#000000; stroke-width:0.0000; stroke-opacity:1; 
stroke-linecap:round; stroke-linejoin:round;">
<circle cx="29.3205" cy="41.0845" r="0.7500" /> 
</g>
<g style="fill:#000000; fill-opacity:1.0000; 
stroke:#000000; stroke-width:0.0212; stroke-opacity:1; 
stroke-linecap:round; stroke-linejoin:round;">
</g>
<g style="fill:#000000; fill-opacity:1.0000; 
stroke:#000000; stroke-width:0.0000; stroke-opacity:1; 
stroke-linecap:round; stroke-linejoin:round;">
<circle cx="12.7635" cy="34.9885" r="0.4000" /> 
</g>
<g style="fill:#000000; fill-opacity:1.0000; 
stroke:#000000; stroke-width:0.0212; stroke-opacity:1; 
stroke-linecap:round; stroke-linejoin:round;">
</g>
<g style="fill:#000000; fill-opacity:1.0000; 
stroke:#000000; stroke-width:0.0000; stroke-opacity:1; 
stroke-linecap:round; stroke-linejoin:round;">
<circle cx="5.1435" cy="34.9885" r="0.4000" /> 
</g>
<g style="fill:#000000; fill-opacity:1.0000; 
stroke:#000000; stroke-width:0.0212; stroke-opacity:1; 
stroke-linecap:round; stroke-linejoin:round;">
</g>
<g style="fill:#000000; fill-opacity:1.0000; 
stroke:#000000; stroke-width:0.0000; stroke-opacity:1; 
stroke-linecap:round; stroke-linejoin:round;">
<circle cx="31.4535" cy="28.3585" r="0.5100" /> 
</g>
<g style="fill:#000000; fill-opacity:1.0000; 
stroke:#000000; stroke-width:0.0212; stroke-opacity:1; 
stroke-linecap:round; stroke-linejoin:round;">
</g>
<g style="fill:#000000; fill-opacity:1.0000; 
stroke:#000000; stroke-width:0.0000; stroke-opacity:1; 
stroke-linecap:round; stroke-linejoin:round;">
<circle cx="33.6035" cy="25.4285" r="0.5100" /> 
</g>
<g style="fill:#000000; fill-opacity:1.0000; 
stroke:#000000; stroke-width:0.0212; stroke-opacity:1; 
stroke-linecap:round; stroke-linejoin:round;">
</g>
<g style="fill:#000000; fill-opacity:1.0000; 
stroke:#000000; stroke-width:0.0000; stroke-opacity:1; 
stroke-linecap:round; stroke-linejoin:round;">
<circle cx="33.6035" cy="21.7785" r="0.5100" /> 
</g>
<g style="fill:#000000; fill-opacity:1.0000; 
stroke:#000000; stroke-width:0.0212; stroke-opacity:1; 
stroke-linecap:round; stroke-linejoin:round;">
</g>
<g style="fill:#000000; fill-opacity:1.0000; 
stroke:#000000; stroke-width:0.0000; stroke-opacity:1; 
stroke-linecap:round; stroke-linejoin:round;">
<circle cx="31.4535" cy="18.8485" r="0.5100" /> 
</g>
<g style="fill:#000000; fill-opacity:1.0000; 
stroke:#000000; stroke-width:0.0212; stroke-opacity:1; 
stroke-linecap:round; stroke-linejoin:round;">
</g>
<g style="fill:#000000; fill-opacity:1.0000; 
stroke:#000000; stroke-width:0.0000; stroke-opacity:1; 
stroke-linecap:round; stroke-linejoin:round;">
<circle cx="28.0035" cy="17.7085" r="0.5100" /> 
</g>
<g style="fill:#000000; fill-opacity:1.0000; 
stroke:#000000; stroke-width:0.0212; stroke-opacity:1; 
stroke-linecap:round; stroke-linejoin:round;">
</g>
<g style="fill:#000000; fill-opacity:1.0000; 
stroke:#000000; stroke-width:0.0000; stroke-opacity:1; 
stroke-linecap:round; stroke-linejoin:round;">
<circle cx="24.5435" cy="18.8485" r="0.5100" /> 
</g>
<g style="fill:#000000; fill-opacity:1.0000; 
stroke:#000000; stroke-width:0.0212; stroke-opacity:1; 
stroke-linecap:round; stroke-linejoin:round;">
</g>
<g style="fill:#000000; fill-opacity:1.0000; 
stroke:#000000; stroke-width:0.0000; stroke-opacity:1; 
stroke-linecap:round; stroke-linejoin:round;">
<circle cx="22.3935" cy="21.7785" r="0.5100" /> 
</g>
<g style="fill:#000000; fill-opacity:1.0000; 
stroke:#000000; stroke-width:0.0212; stroke-opacity:1; 
stroke-linecap:round; stroke-linejoin:round;">
</g>
<g style="fill:#000000; fill-opacity:1.0000; 
stroke:#000000; stroke-width:0.0000; stroke-opacity:1; 
stroke-linecap:round; stroke-linejoin:round;">
<circle cx="22.3935" cy="25.3885" r="0.5100" /> 
</g>
<g style="fill:#000000; fill-opacity:1.0000; 
stroke:#000000; stroke-width:0.0212; stroke-opacity:1; 
stroke-linecap:round; stroke-linejoin:round;">
</g>
<g style="fill:#000000; fill-opacity:1.0000; 
stroke:#000000; stroke-width:0.0000; stroke-opacity:1; 
stroke-linecap:round; stroke-linejoin:round;">
<circle cx="24.5435" cy="28.3585" r="0.5100" /> 
</g>
<g style="fill:#000000; fill-opacity:1.0000; 
stroke:#000000; stroke-width:0.0212; stroke-opacity:1; 
stroke-linecap:round; stroke-linejoin:round;">
</g>
<g style="fill:#000000; fill-opacity:1.0000; 
stroke:#000000; stroke-width:0.0000; stroke-opacity:1; 
stroke-linecap:round; stroke-linejoin:round;">
<circle cx="45.1485" cy="15.3035" r="0.7500" /> 
</g>
<g style="fill:#000000; fill-opacity:1.0000; 
stroke:#000000; stroke-width:0.0212; stroke-opacity:1; 
stroke-linecap:round; stroke-linejoin:round;">
</g>
<g style="fill:#000000; fill-opacity:1.0000; 
stroke:#000000; stroke-width:0.0000; stroke-opacity:1; 
stroke-linecap:round; stroke-linejoin:round;">
<circle cx="45.1485" cy="10.3035" r="0.7500" /> 
</g>
<g style="fill:#000000; fill-opacity:1.0000; 
stroke:#000000; stroke-width:0.0212; stroke-opacity:1; 
stroke-linecap:round; stroke-linejoin:round;">
</g>
<g style="fill:#000000; fill-opacity:1.0000; 
stroke:#000000; stroke-width:0.0000; stroke-opacity:1; 
stroke-linecap:round; stroke-linejoin:round;">
<circle cx="3.8735" cy="42.6085" r="1.6000" /> 
</g>
<g style="fill:#000000; fill-opacity:1.0000; 
stroke:#000000; stroke-width:0.0212; stroke-opacity:1; 
stroke-linecap:round; stroke-linejoin:round;">
</g>
<g style="fill:#FFFFFF; fill-opacity:1.0000; 
stroke:#FFFFFF; stroke-width:0.0212; stroke-opacity:1; 
stroke-linecap:round; stroke-linejoin:round;">
<g >
</g>
<g style="fill:#37CBCB; fill-opacity:1.0000; 
stroke:#37CBCB; stroke-width:0.0212; stroke-opacity:1; 
stroke-linecap:round; stroke-linejoin:round;">
</g>
<g style="fill:#37CBCB; fill-opacity:1.0000; 
stroke:#37CBCB; stroke-width:0.0000; stroke-opacity:1; 
stroke-linecap:round; stroke-linejoin:round;">
<path style="fill:#37CBCB; fill-opacity:1.0000; 
stroke:#37CBCB; stroke-width:0.0000; stroke-opacity:1; 
stroke-linecap:round; stroke-linejoin:round;fill-rule:evenodd;"
d="M 21.3835,10.5885
19.3835,10.5885
19.3835,8.5885
21.3835,8.5885
Z" /> 
<circle cx="20.3835" cy="4.5885" r="1.0000" /> 
</g>
<g style="fill:#37CBCB; fill-opacity:1.0000; 
stroke:#37CBCB; stroke-width:0.0212; stroke-opacity:1; 
stroke-linecap:round; stroke-linejoin:round;">
</g>
<g >
</g>
<g style="fill:#37CBCB; fill-opacity:1.0000; 
stroke:#37CBCB; stroke-width:0.0212; stroke-opacity:1; 
stroke-linecap:round; stroke-linejoin:round;">
</g>
<g style="fill:#37CBCB; fill-opacity:1.0000; 
stroke:#37CBCB; stroke-width:0.0000; stroke-opacity:1; 
stroke-linecap:round; stroke-linejoin:round;">
<circle cx="15.9385" cy="34.9885" r="0.8000" /> 
</g>
<g style="fill:#37CBCB; fill-opacity:1.0000; 
stroke:#37CBCB; stroke-width:0.0212; stroke-opacity:1; 
stroke-linecap:round; stroke-linejoin:round;">
</g>
<g style="fill:#37CBCB; fill-opacity:1.0000; 
stroke:#37CBCB; stroke-width:0.0000; stroke-opacity:1; 
stroke-linecap:round; stroke-linejoin:round;">
<circle cx="15.9385" cy="29.9885" r="0.8000" /> 
</g>
<g style="fill:#37CBCB; fill-opacity:1.0000; 
stroke:#37CBCB; stroke-width:0.0212; stroke-opacity:1; 
stroke-linecap:round; stroke-linejoin:round;">
</g>
<g >
</g>
<g style="fill:#37CBCB; fill-opacity:1.0000; 
stroke:#37CBCB; stroke-width:0.0212; stroke-opacity:1; 
stroke-linecap:round; stroke-linejoin:round;">
</g>
<g style="fill:#37CBCB; fill-opacity:1.0000; 
stroke:#37CBCB; stroke-width:0.0000; stroke-opacity:1; 
stroke-linecap:round; stroke-linejoin:round;">
<circle cx="3.8735" cy="3.8735" r="2.8000" /> 
</g>
<g style="fill:#37CBCB; fill-opacity:1.0000; 
stroke:#37CBCB; stroke-width:0.0212; stroke-opacity:1; 
stroke-linecap:round; stroke-linejoin:round;">
</g>
<g >
</g>
<g style="fill:#37CBCB; fill-opacity:1.0000; 
stroke:#37CBCB; stroke-width:0.0212; stroke-opacity:1; 
stroke-linecap:round; stroke-linejoin:round;">
</g>
<g style="fill:#37CBCB; fill-opacity:1.0000; 
stroke:#37CBCB; stroke-width:0.0000; stroke-opacity:1; 
stroke-linecap:round; stroke-linejoin:round;">
<circle cx="48.3235" cy="3.8735" r="2.8000" /> 
</g>
<g style="fill:#37CBCB; fill-opacity:1.0000; 
stroke:#37CBCB; stroke-width:0.0212; stroke-opacity:1; 
stroke-linecap:round; stroke-linejoin:round;">
</g>
<g >
</g>
<g style="fill:#37CBCB; fill-opacity:1.0000; 
stroke:#37CBCB; stroke-width:0.0212; stroke-opacity:1; 
stroke-linecap:round; stroke-linejoin:round;">
</g>
<g style="fill:#37CBCB; fill-opacity:1.0000; 
stroke:#37CBCB; stroke-width:0.0000; stroke-opacity:1; 
stroke-linecap:round; stroke-linejoin:round;">
<circle cx="48.3235" cy="42.6085" r="2.8000" /> 
</g>
<g style="fill:#37CBCB; fill-opacity:1.0000; 
stroke:#37CBCB; stroke-width:0.0212; stroke-opacity:1; 
stroke-linecap:round; stroke-linejoin:round;">
</g>
<g >
</g>
<g style="fill:#37CBCB; fill-opacity:1.0000; 
stroke:#37CBCB; stroke-width:0.0212; stroke-opacity:1; 
stroke-linecap:round; stroke-linejoin:round;">
</g>
<g style="fill:#37CBCB; fill-opacity:1.0000; 
stroke:#37CBCB; stroke-width:0.0000; stroke-opacity:1; 
stroke-linecap:round; stroke-linejoin:round;">
<circle cx="15.0495" cy="17.8435" r="0.8000" /> 
</g>
<g style="fill:#37CBCB; fill-opacity:1.0000; 
stroke:#37CBCB; stroke-width:0.0212; stroke-opacity:1; 
stroke-linecap:round; stroke-linejoin:round;">
</g>
<g style="fill:#37CBCB; fill-opacity:1.0000; 
stroke:#37CBCB; stroke-width:0.0000; stroke-opacity:1; 
stroke-linecap:round; stroke-linejoin:round;">
<circle cx="15.0495" cy="25.4635" r="0.8000" /> 
</g>
<g >
</g>
<g style="fill:#37CBCB; fill-opacity:1.0000; 
stroke:#37CBCB; stroke-width:0.0000; stroke-opacity:1; 
stroke-linecap:round; stroke-linejoin:round;">
<circle cx="34.9885" cy="5.7785" r="0.8000" /> 
</g>
<g style="fill:#37CBCB; fill-opacity:1.0000; 
stroke:#37CBCB; stroke-width:0.0212; stroke-opacity:1; 
stroke-linecap:round; stroke-linejoin:round;">
</g>
<g style="fill:#37CBCB; fill-opacity:1.0000; 
stroke:#37CBCB; stroke-width:0.0000; stroke-opacity:1; 
stroke-linecap:round; stroke-linejoin:round;">
<circle cx="27.3685" cy="5.7785" r="0.8000" /> 
</g>
<g >
</g>
<g style="fill:#37CBCB; fill-opacity:1.0000; 
stroke:#37CBCB; stroke-width:0.0000; stroke-opacity:1; 
stroke-linecap:round; stroke-linejoin:round;">
<circle cx="43.2435" cy="27.3685" r="0.8000" /> 
</g>
<g style="fill:#37CBCB; fill-opacity:1.0000; 
stroke:#37CBCB; stroke-width:0.0212; stroke-opacity:1; 
stroke-linecap:round; stroke-linejoin:round;">
</g>
<g style="fill:#37CBCB; fill-opacity:1.0000; 
stroke:#37CBCB; stroke-width:0.0000; stroke-opacity:1; 
stroke-linecap:round; stroke-linejoin:round;">
<circle cx="43.2435" cy="34.9885" r="0.8000" /> 
</g>
<g >
</g>
<g style="fill:#37CBCB; fill-opacity:1.0000; 
stroke:#37CBCB; stroke-width:0.0000; stroke-opacity:1; 
stroke-linecap:round; stroke-linejoin:round;">
<path style="fill:#37CBCB; fill-opacity:1.0000; 
stroke:#37CBCB; stroke-width:0.0000; stroke-opacity:1; 
stroke-linecap:round; stroke-linejoin:round;fill-rule:evenodd;"
d="M 5.5485,21.1695
8.5485,21.1695
8.5485,24.1695
5.5485,24.1695
Z" /> 
<circle cx="7.0485" cy="27.6695" r="1.5000" /> 
</g>
<g style="fill:#37CBCB; fill-opacity:1.0000; 
stroke:#37CBCB; stroke-width:0.0212; stroke-opacity:1; 
stroke-linecap:round; stroke-linejoin:round;">
</g>
<g >
</g>
<g style="fill:#37CBCB; fill-opacity:1.0000; 
stroke:#37CBCB; stroke-width:0.0212; stroke-opacity:1; 
stroke-linecap:round; stroke-linejoin:round;">
</g>
<g style="fill:#37CBCB; fill-opacity:1.0000; 
stroke:#37CBCB; stroke-width:0.0000; stroke-opacity:1; 
stroke-linecap:round; stroke-linejoin:round;">
<path style="fill:#37CBCB; fill-opacity:1.0000; 
stroke:#37CBCB; stroke-width:0.0000; stroke-opacity:1; 
stroke-linecap:round; stroke-linejoin:round;fill-rule:evenodd;"
d="M 5.5485,9.1045
8.5485,9.1045
8.5485,12.1045
5.5485,12.1045
Z" /> 
<circle cx="7.0485" cy="15.6045" r="1.5000" /> 
</g>
<g style="fill:#37CBCB; fill-opacity:1.0000; 
stroke:#37CBCB; stroke-width:0.0212; stroke-opacity:1; 
stroke-linecap:round; stroke-linejoin:round;">
</g>
<g >
</g>
<g style="fill:#37CBCB; fill-opacity:1.0000; 
stroke:#37CBCB; stroke-width:0.0212; stroke-opacity:1; 
stroke-linecap:round; stroke-linejoin:round;">
</g>
<g style="fill:#37CBCB; fill-opacity:1.0000; 
stroke:#37CBCB; stroke-width:0.0000; stroke-opacity:1; 
stroke-linecap:round; stroke-linejoin:round;">
<path style="fill:#37CBCB; fill-opacity:1.0000; 
stroke:#37CBCB; stroke-width:0.0000; stroke-opacity:1; 
stroke-linecap:round; stroke-linejoin:round;fill-rule:evenodd;"
d="M 22.8205,42.5845
22.8205,39.5845
25.8205,39.5845
25.8205,42.5845
Z" /> 
<circle cx="29.3205" cy="41.0845" r="1.5000" /> 
</g>
<g style="fill:#37CBCB; fill-opacity:1.0000; 
stroke:#37CBCB; stroke-width:0.0212; stroke-opacity:1; 
stroke-linecap:round; stroke-linejoin:round;">
</g>
<g >
</g>
<g style="fill:#37CBCB; fill-opacity:1.0000; 
stroke:#37CBCB; stroke-width:0.0212; stroke-opacity:1; 
stroke-linecap:round; stroke-linejoin:round;">
</g>
<g style="fill:#37CBCB; fill-opacity:1.0000; 
stroke:#37CBCB; stroke-width:0.0000; stroke-opacity:1; 
stroke-linecap:round; stroke-linejoin:round;">
<circle cx="12.7635" cy="34.9885" r="0.8000" /> 
</g>
<g style="fill:#37CBCB; fill-opacity:1.0000; 
stroke:#37CBCB; stroke-width:0.0212; stroke-opacity:1; 
stroke-linecap:round; stroke-linejoin:round;">
</g>
<g style="fill:#37CBCB; fill-opacity:1.0000; 
stroke:#37CBCB; stroke-width:0.0000; stroke-opacity:1; 
stroke-linecap:round; stroke-linejoin:round;">
<circle cx="5.1435" cy="34.9885" r="0.8000" /> 
</g>
<g >
</g>
<g style="fill:#37CBCB; fill-opacity:1.0000; 
stroke:#37CBCB; stroke-width:0.0000; stroke-opacity:1; 
stroke-linecap:round; stroke-linejoin:round;">
<circle cx="31.4535" cy="28.3585" r="1.0150" /> 
</g>
<g style="fill:#37CBCB; fill-opacity:1.0000; 
stroke:#37CBCB; stroke-width:0.0212; stroke-opacity:1; 
stroke-linecap:round; stroke-linejoin:round;">
</g>
<g style="fill:#37CBCB; fill-opacity:1.0000; 
stroke:#37CBCB; stroke-width:0.0000; stroke-opacity:1; 
stroke-linecap:round; stroke-linejoin:round;">
<circle cx="33.6035" cy="25.4285" r="1.0150" /> 
</g>
<g style="fill:#37CBCB; fill-opacity:1.0000; 
stroke:#37CBCB; stroke-width:0.0212; stroke-opacity:1; 
stroke-linecap:round; stroke-linejoin:round;">
</g>
<g style="fill:#37CBCB; fill-opacity:1.0000; 
stroke:#37CBCB; stroke-width:0.0000; stroke-opacity:1; 
stroke-linecap:round; stroke-linejoin:round;">
<circle cx="33.6035" cy="21.7785" r="1.0150" /> 
</g>
<g style="fill:#37CBCB; fill-opacity:1.0000; 
stroke:#37CBCB; stroke-width:0.0212; stroke-opacity:1; 
stroke-linecap:round; stroke-linejoin:round;">
</g>
<g style="fill:#37CBCB; fill-opacity:1.0000; 
stroke:#37CBCB; stroke-width:0.0000; stroke-opacity:1; 
stroke-linecap:round; stroke-linejoin:round;">
<circle cx="31.4535" cy="18.8485" r="1.0150" /> 
</g>
<g style="fill:#37CBCB; fill-opacity:1.0000; 
stroke:#37CBCB; stroke-width:0.0212; stroke-opacity:1; 
stroke-linecap:round; stroke-linejoin:round;">
</g>
<g style="fill:#37CBCB; fill-opacity:1.0000; 
stroke:#37CBCB; stroke-width:0.0000; stroke-opacity:1; 
stroke-linecap:round; stroke-linejoin:round;">
<circle cx="28.0035" cy="17.7085" r="1.0150" /> 
</g>
<g style="fill:#37CBCB; fill-opacity:1.0000; 
stroke:#37CBCB; stroke-width:0.0212; stroke-opacity:1; 
stroke-linecap:round; stroke-linejoin:round;">
</g>
<g style="fill:#37CBCB; fill-opacity:1.0000; 
stroke:#37CBCB; stroke-width:0.0000; stroke-opacity:1; 
stroke-linecap:round; stroke-linejoin:round;">
<circle cx="24.5435" cy="18.8485" r="1.0150" /> 
</g>
<g style="fill:#37CBCB; fill-opacity:1.0000; 
stroke:#37CBCB; stroke-width:0.0212; stroke-opacity:1; 
stroke-linecap:round; stroke-linejoin:round;">
</g>
<g style="fill:#37CBCB; fill-opacity:1.0000; 
stroke:#37CBCB; stroke-width:0.0000; stroke-opacity:1; 
stroke-linecap:round; stroke-linejoin:round;">
<circle cx="22.3935" cy="21.7785" r="1.0150" /> 
</g>
<g style="fill:#37CBCB; fill-opacity:1.0000; 
stroke:#37CBCB; stroke-width:0.0212; stroke-opacity:1; 
stroke-linecap:round; stroke-linejoin:round;">
</g>
<g style="fill:#37CBCB; fill-opacity:1.0000; 
stroke:#37CBCB; stroke-width:0.0000; stroke-opacity:1; 
stroke-linecap:round; stroke-linejoin:round;">
<circle cx="22.3935" cy="25.3885" r="1.0150" /> 
</g>
<g style="fill:#37CBCB; fill-opacity:1.0000; 
stroke:#37CBCB; stroke-width:0.0212; stroke-opacity:1; 
stroke-linecap:round; stroke-linejoin:round;">
</g>
<g style="fill:#37CBCB; fill-opacity:1.0000; 
stroke:#37CBCB; stroke-width:0.0000; stroke-opacity:1; 
stroke-linecap:round; stroke-linejoin:round;">
<circle cx="24.5435" cy="28.3585" r="1.0150" /> 
</g>
<g style="fill:#37CBCB; fill-opacity:1.0000; 
stroke:#37CBCB; stroke-width:0.0212; stroke-opacity:1; 
stroke-linecap:round; stroke-linejoin:round;">
</g>
<g >
</g>
<g style="fill:#37CBCB; fill-opacity:1.0000; 
stroke:#37CBCB; stroke-width:0.0212; stroke-opacity:1; 
stroke-linecap:round; stroke-linejoin:round;">
</g>
<g style="fill:#37CBCB; fill-opacity:1.0000; 
stroke:#37CBCB; stroke-width:0.0000; stroke-opacity:1; 
stroke-linecap:round; stroke-linejoin:round;">
<path style="fill:#37CBCB; fill-opacity:1.0000; 
stroke:#37CBCB; stroke-width:0.0000; stroke-opacity:1; 
stroke-linecap:round; stroke-linejoin:round;fill-rule:evenodd;"
d="M 46.6485,16.8035
43.6485,16.8035
43.6485,13.8035
46.6485,13.8035
Z" /> 
<circle cx="45.1485" cy="10.3035" r="1.5000" /> 
</g>
<g style="fill:#37CBCB; fill-opacity:1.0000; 
stroke:#37CBCB; stroke-width:0.0212; stroke-opacity:1; 
stroke-linecap:round; stroke-linejoin:round;">
</g>
<g >
</g>
<g style="fill:#37CBCB; fill-opacity:1.0000; 
stroke:#37CBCB; stroke-width:0.0212; stroke-opacity:1; 
stroke-linecap:round; stroke-linejoin:round;">
</g>
<g style="fill:#37CBCB; fill-opacity:1.0000; 
stroke:#37CBCB; stroke-width:0.0000; stroke-opacity:1; 
stroke-linecap:round; stroke-linejoin:round;">
<circle cx="3.8735" cy="42.6085" r="2.8000" /> 
</g>
<g style="fill:#37CBCB; fill-opacity:1.0000; 
stroke:#37CBCB; stroke-width:0.0212; stroke-opacity:1; 
stroke-linecap:round; stroke-linejoin:round;">
</g>
<g >
</g>
<g >
</g>
<g >
</g>
</g>
<g style="fill:#000000; fill-opacity:1.0000; 
stroke:#000000; stroke-width:0.0212; stroke-opacity:1; 
stroke-linecap:round; stroke-linejoin:round;">
</g>
<g style="fill:#000000; fill-opacity:1.0000; 
stroke:#000000; stroke-width:0.0000; stroke-opacity:1; 
stroke-linecap:round; stroke-linejoin:round;">
<circle cx="20.3835" cy="9.5885" r="0.5000" /> 
</g>
<g style="fill:#000000; fill-opacity:1.0000; 
stroke:#000000; stroke-width:0.0212; stroke-opacity:1; 
stroke-linecap:round; stroke-linejoin:round;">
</g>
<g style="fill:#000000; fill-opacity:1.0000; 
stroke:#000000; stroke-width:0.0000; stroke-opacity:1; 
stroke-linecap:round; stroke-linejoin:round;">
<circle cx="20.3835" cy="4.5885" r="0.5000" /> 
</g>
<g style="fill:#000000; fill-opacity:1.0000; 
stroke:#000000; stroke-width:0.0212; stroke-opacity:1; 
stroke-linecap:round; stroke-linejoin:round;">
</g>
<g style="fill:#000000; fill-opacity:1.0000; 
stroke:#000000; stroke-width:0.0000; stroke-opacity:1; 
stroke-linecap:round; stroke-linejoin:round;">
<circle cx="15.9385" cy="34.9885" r="0.4000" /> 
</g>
<g style="fill:#000000; fill-opacity:1.0000; 
stroke:#000000; stroke-width:0.0212; stroke-opacity:1; 
stroke-linecap:round; stroke-linejoin:round;">
</g>
<g style="fill:#000000; fill-opacity:1.0000; 
stroke:#000000; stroke-width:0.0000; stroke-opacity:1; 
stroke-linecap:round; stroke-linejoin:round;">
<circle cx="15.9385" cy="29.9885" r="0.4000" /> 
</g>
<g style="fill:#000000; fill-opacity:1.0000; 
stroke:#000000; stroke-width:0.0212; stroke-opacity:1; 
stroke-linecap:round; stroke-linejoin:round;">
</g>
<g style="fill:#000000; fill-opacity:1.0000; 
stroke:#000000; stroke-width:0.0000; stroke-opacity:1; 
stroke-linecap:round; stroke-linejoin:round;">
<circle cx="3.8735" cy="3.8735" r="1.6000" /> 
</g>
<g style="fill:#000000; fill-opacity:1.0000; 
stroke:#000000; stroke-width:0.0212; stroke-opacity:1; 
stroke-linecap:round; stroke-linejoin:round;">
</g>
<g style="fill:#000000; fill-opacity:1.0000; 
stroke:#000000; stroke-width:0.0000; stroke-opacity:1; 
stroke-linecap:round; stroke-linejoin:round;">
<circle cx="48.3235" cy="3.8735" r="1.6000" /> 
</g>
<g style="fill:#000000; fill-opacity:1.0000; 
stroke:#000000; stroke-width:0.0212; stroke-opacity:1; 
stroke-linecap:round; stroke-linejoin:round;">
</g>
<g style="fill:#000000; fill-opacity:1.0000; 
stroke:#000000; stroke-width:0.0000; stroke-opacity:1; 
stroke-linecap:round; stroke-linejoin:round;">
<circle cx="48.3235" cy="42.6085" r="1.6000" /> 
</g>
<g style="fill:#000000; fill-opacity:1.0000; 
stroke:#000000; stroke-width:0.0212; stroke-opacity:1; 
stroke-linecap:round; stroke-linejoin:round;">
</g>
<g style="fill:#000000; fill-opacity:1.0000; 
stroke:#000000; stroke-width:0.0000; stroke-opacity:1; 
stroke-linecap:round; stroke-linejoin:round;">
<circle cx="15.0495" cy="17.8435" r="0.4000" /> 
</g>
<g style="fill:#000000; fill-opacity:1.0000; 
stroke:#000000; stroke-width:0.0212; stroke-opacity:1; 
stroke-linecap:round; stroke-linejoin:round;">
</g>
<g style="fill:#000000; fill-opacity:1.0000; 
stroke:#000000; stroke-width:0.0000; stroke-opacity:1; 
stroke-linecap:round; stroke-linejoin:round;">
<circle cx="15.0495" cy="25.4635" r="0.4000" /> 
</g>
<g style="fill:#000000; fill-opacity:1.0000; 
stroke:#000000; stroke-width:0.0212; stroke-opacity:1; 
stroke-linecap:round; stroke-linejoin:round;">
</g>
<g style="fill:#000000; fill-opacity:1.0000; 
stroke:#000000; stroke-width:0.0000; stroke-opacity:1; 
stroke-linecap:round; stroke-linejoin:round;">
<circle cx="34.9885" cy="5.7785" r="0.4000" /> 
</g>
<g style="fill:#000000; fill-opacity:1.0000; 
stroke:#000000; stroke-width:0.0212; stroke-opacity:1; 
stroke-linecap:round; stroke-linejoin:round;">
</g>
<g style="fill:#000000; fill-opacity:1.0000; 
stroke:#000000; stroke-width:0.0000; stroke-opacity:1; 
stroke-linecap:round; stroke-linejoin:round;">
<circle cx="27.3685" cy="5.7785" r="0.4000" /> 
</g>
<g style="fill:#000000; fill-opacity:1.0000; 
stroke:#000000; stroke-width:0.0212; stroke-opacity:1; 
stroke-linecap:round; stroke-linejoin:round;">
</g>
<g style="fill:#000000; fill-opacity:1.0000; 
stroke:#000000; stroke-width:0.0000; stroke-opacity:1; 
stroke-linecap:round; stroke-linejoin:round;">
<circle cx="43.2435" cy="27.3685" r="0.4000" /> 
</g>
<g style="fill:#000000; fill-opacity:1.0000; 
stroke:#000000; stroke-width:0.0212; stroke-opacity:1; 
stroke-linecap:round; stroke-linejoin:round;">
</g>
<g style="fill:#000000; fill-opacity:1.0000; 
stroke:#000000; stroke-width:0.0000; stroke-opacity:1; 
stroke-linecap:round; stroke-linejoin:round;">
<circle cx="43.2435" cy="34.9885" r="0.4000" /> 
</g>
<g style="fill:#000000; fill-opacity:1.0000; 
stroke:#000000; stroke-width:0.0212; stroke-opacity:1; 
stroke-linecap:round; stroke-linejoin:round;">
</g>
<g style="fill:#000000; fill-opacity:1.0000; 
stroke:#000000; stroke-width:0.0000; stroke-opacity:1; 
stroke-linecap:round; stroke-linejoin:round;">
<circle cx="7.0485" cy="22.6695" r="0.7500" /> 
</g>
<g style="fill:#000000; fill-opacity:1.0000; 
stroke:#000000; stroke-width:0.0212; stroke-opacity:1; 
stroke-linecap:round; stroke-linejoin:round;">
</g>
<g style="fill:#000000; fill-opacity:1.0000; 
stroke:#000000; stroke-width:0.0000; stroke-opacity:1; 
stroke-linecap:round; stroke-linejoin:round;">
<circle cx="7.0485" cy="27.6695" r="0.7500" /> 
</g>
<g style="fill:#000000; fill-opacity:1.0000; 
stroke:#000000; stroke-width:0.0212; stroke-opacity:1; 
stroke-linecap:round; stroke-linejoin:round;">
</g>
<g style="fill:#000000; fill-opacity:1.0000; 
stroke:#000000; stroke-width:0.0000; stroke-opacity:1; 
stroke-linecap:round; stroke-linejoin:round;">
<circle cx="7.0485" cy="10.6045" r="0.7500" /> 
</g>
<g style="fill:#000000; fill-opacity:1.0000; 
stroke:#000000; stroke-width:0.0212; stroke-opacity:1; 
stroke-linecap:round; stroke-linejoin:round;">
</g>
<g style="fill:#000000; fill-opacity:1.0000; 
stroke:#000000; stroke-width:0.0000; stroke-opacity:1; 
stroke-linecap:round; stroke-linejoin:round;">
<circle cx="7.0485" cy="15.6045" r="0.7500" /> 
</g>
<g style="fill:#000000; fill-opacity:1.0000; 
stroke:#000000; stroke-width:0.0212; stroke-opacity:1; 
stroke-linecap:round; stroke-linejoin:round;">
</g>
<g style="fill:#000000; fill-opacity:1.0000; 
stroke:#000000; stroke-width:0.0000; stroke-opacity:1; 
stroke-linecap:round; stroke-linejoin:round;">
<circle cx="24.3205" cy="41.0845" r="0.7500" /> 
</g>
<g style="fill:#000000; fill-opacity:1.0000; 
stroke:#000000; stroke-width:0.0212; stroke-opacity:1; 
stroke-linecap:round; stroke-linejoin:round;">
</g>
<g style="fill:#000000; fill-opacity:1.0000; 
stroke:#000000; stroke-width:0.0000; stroke-opacity:1; 
stroke-linecap:round; stroke-linejoin:round;">
<circle cx="29.3205" cy="41.0845" r="0.7500" /> 
</g>
<g style="fill:#000000; fill-opacity:1.0000; 
stroke:#000000; stroke-width:0.0212; stroke-opacity:1; 
stroke-linecap:round; stroke-linejoin:round;">
</g>
<g style="fill:#000000; fill-opacity:1.0000; 
stroke:#000000; stroke-width:0.0000; stroke-opacity:1; 
stroke-linecap:round; stroke-linejoin:round;">
<circle cx="12.7635" cy="34.9885" r="0.4000" /> 
</g>
<g style="fill:#000000; fill-opacity:1.0000; 
stroke:#000000; stroke-width:0.0212; stroke-opacity:1; 
stroke-linecap:round; stroke-linejoin:round;">
</g>
<g style="fill:#000000; fill-opacity:1.0000; 
stroke:#000000; stroke-width:0.0000; stroke-opacity:1; 
stroke-linecap:round; stroke-linejoin:round;">
<circle cx="5.1435" cy="34.9885" r="0.4000" /> 
</g>
<g style="fill:#000000; fill-opacity:1.0000; 
stroke:#000000; stroke-width:0.0212; stroke-opacity:1; 
stroke-linecap:round; stroke-linejoin:round;">
</g>
<g style="fill:#000000; fill-opacity:1.0000; 
stroke:#000000; stroke-width:0.0000; stroke-opacity:1; 
stroke-linecap:round; stroke-linejoin:round;">
<circle cx="31.4535" cy="28.3585" r="0.5100" /> 
</g>
<g style="fill:#000000; fill-opacity:1.0000; 
stroke:#000000; stroke-width:0.0212; stroke-opacity:1; 
stroke-linecap:round; stroke-linejoin:round;">
</g>
<g style="fill:#000000; fill-opacity:1.0000; 
stroke:#000000; stroke-width:0.0000; stroke-opacity:1; 
stroke-linecap:round; stroke-linejoin:round;">
<circle cx="33.6035" cy="25.4285" r="0.5100" /> 
</g>
<g style="fill:#000000; fill-opacity:1.0000; 
stroke:#000000; stroke-width:0.0212; stroke-opacity:1; 
stroke-linecap:round; stroke-linejoin:round;">
</g>
<g style="fill:#000000; fill-opacity:1.0000; 
stroke:#000000; stroke-width:0.0000; stroke-opacity:1; 
stroke-linecap:round; stroke-linejoin:round;">
<circle cx="33.6035" cy="21.7785" r="0.5100" /> 
</g>
<g style="fill:#000000; fill-opacity:1.0000; 
stroke:#000000; stroke-width:0.0212; stroke-opacity:1; 
stroke-linecap:round; stroke-linejoin:round;">
</g>
<g style="fill:#000000; fill-opacity:1.0000; 
stroke:#000000; stroke-width:0.0000; stroke-opacity:1; 
stroke-linecap:round; stroke-linejoin:round;">
<circle cx="31.4535" cy="18.8485" r="0.5100" /> 
</g>
<g style="fill:#000000; fill-opacity:1.0000; 
stroke:#000000; stroke-width:0.0212; stroke-opacity:1; 
stroke-linecap:round; stroke-linejoin:round;">
</g>
<g style="fill:#000000; fill-opacity:1.0000; 
stroke:#000000; stroke-width:0.0000; stroke-opacity:1; 
stroke-linecap:round; stroke-linejoin:round;">
<circle cx="28.0035" cy="17.7085" r="0.5100" /> 
</g>
<g style="fill:#000000; fill-opacity:1.0000; 
stroke:#000000; stroke-width:0.0212; stroke-opacity:1; 
stroke-linecap:round; stroke-linejoin:round;">
</g>
<g style="fill:#000000; fill-opacity:1.0000; 
stroke:#000000; stroke-width:0.0000; stroke-opacity:1; 
stroke-linecap:round; stroke-linejoin:round;">
<circle cx="24.5435" cy="18.8485" r="0.5100" /> 
</g>
<g style="fill:#000000; fill-opacity:1.0000; 
stroke:#000000; stroke-width:0.0212; stroke-opacity:1; 
stroke-linecap:round; stroke-linejoin:round;">
</g>
<g style="fill:#000000; fill-opacity:1.0000; 
stroke:#000000; stroke-width:0.0000; stroke-opacity:1; 
stroke-linecap:round; stroke-linejoin:round;">
<circle cx="22.3935" cy="21.7785" r="0.5100" /> 
</g>
<g style="fill:#000000; fill-opacity:1.0000; 
stroke:#000000; stroke-width:0.0212; stroke-opacity:1; 
stroke-linecap:round; stroke-linejoin:round;">
</g>
<g style="fill:#000000; fill-opacity:1.0000; 
stroke:#000000; stroke-width:0.0000; stroke-opacity:1; 
stroke-linecap:round; stroke-linejoin:round;">
<circle cx="22.3935" cy="25.3885" r="0.5100" /> 
</g>
<g style="fill:#000000; fill-opacity:1.0000; 
stroke:#000000; stroke-width:0.0212; stroke-opacity:1; 
stroke-linecap:round; stroke-linejoin:round;">
</g>
<g style="fill:#000000; fill-opacity:1.0000; 
stroke:#000000; stroke-width:0.0000; stroke-opacity:1; 
stroke-linecap:round; stroke-linejoin:round;">
<circle cx="24.5435" cy="28.3585" r="0.5100" /> 
</g>
<g style="fill:#000000; fill-opacity:1.0000; 
stroke:#000000; stroke-width:0.0212; stroke-opacity:1; 
stroke-linecap:round; stroke-linejoin:round;">
</g>
<g style="fill:#000000; fill-opacity:1.0000; 
stroke:#000000; stroke-width:0.0000; stroke-opacity:1; 
stroke-linecap:round; stroke-linejoin:round;">
<circle cx="45.1485" cy="15.3035" r="0.7500" /> 
</g>
<g style="fill:#000000; fill-opacity:1.0000; 
stroke:#000000; stroke-width:0.0212; stroke-opacity:1; 
stroke-linecap:round; stroke-linejoin:round;">
</g>
<g style="fill:#000000; fill-opacity:1.0000; 
stroke:#000000; stroke-width:0.0000; stroke-opacity:1; 
stroke-linecap:round; stroke-linejoin:round;">
<circle cx="45.1485" cy="10.3035" r="0.7500" /> 
</g>
<g style="fill:#000000; fill-opacity:1.0000; 
stroke:#000000; stroke-width:0.0212; stroke-opacity:1; 
stroke-linecap:round; stroke-linejoin:round;">
</g>
<g style="fill:#000000; fill-opacity:1.0000; 
stroke:#000000; stroke-width:0.0000; stroke-opacity:1; 
stroke-linecap:round; stroke-linejoin:round;">
<circle cx="3.8735" cy="42.6085" r="1.6000" /> 
</g>
<g style="fill:#000000; fill-opacity:1.0000; 
stroke:#000000; stroke-width:0.0212; stroke-opacity:1; 
stroke-linecap:round; stroke-linejoin:round;">
</g>
<g style="fill:#FFFFFF; fill-opacity:1.0000; 
stroke:#FFFFFF; stroke-width:0.0212; stroke-opacity:1; 
stroke-linecap:round; stroke-linejoin:round;">
<g >
</g>
<g >
</g>
<g >
</g>
<g >
</g>
<g >
</g>
<g >
</g>
<g >
</g>
<g >
</g>
<g >
</g>
<g >
</g>
<g >
</g>
<g >
</g>
<g >
</g>
<g >
</g>
<g >
</g>
<g >
</g>
<g >
</g>
<g >
</g>
</g>
<g style="fill:#FFFFFF; fill-opacity:1.0000; 
stroke:#FFFFFF; stroke-width:0.0212; stroke-opacity:1; 
stroke-linecap:round; stroke-linejoin:round;">
</g>
<g style="fill:#2F2D31; fill-opacity:1.0000; 
stroke:#2F2D31; stroke-width:0.0212; stroke-opacity:1; 
stroke-linecap:round; stroke-linejoin:round;">
</g>
<g style="fill:#2F2D31; fill-opacity:1.0000; 
stroke:#2F2D31; stroke-width:0.1270; stroke-opacity:1; 
stroke-linecap:round; stroke-linejoin:round;">
</g>
<g style="fill:#2F2D31; fill-opacity:0.0; 
stroke:#2F2D31; stroke-width:0.1270; stroke-opacity:1; 
stroke-linecap:round; stroke-linejoin:round;">
<path d="M52.1335 0.0635
L52.1335 46.4185
" />
<path d="M0.0635 0.0635
L0.0635 46.4185
" />
<path d="M52.1335 0.0635
L0.0635 0.0635
" />
<path d="M0.0635 46.4185
L52.1335 46.4185
" />
<g >
</g>
<g >
</g>
<g >
</g>
<g >
</g>
<g >
</g>
<g >
</g>
<g >
</g>
<g >
</g>
<g >
</g>
<g >
</g>
<g >
</g>
<g >
</g>
<g >
</g>
<g >
</g>
<g >
</g>
<g >
</g>
<g >
</g>
<g >
</g>
</g> 
</svg>
