<?xml version="1.0" standalone="no"?>
 <!DOCTYPE svg PUBLIC "-//W3C//DTD SVG 1.1//EN" 
 "http://www.w3.org/Graphics/SVG/1.1/DTD/svg11.dtd"> 
<svg
  xmlns:svg="http://www.w3.org/2000/svg"
  xmlns="http://www.w3.org/2000/svg"
  xmlns:xlink="http://www.w3.org/1999/xlink"
  version="1.1"
  width="10.1600mm" height="5.2578mm" viewBox="0.0000 0.0000 10.1600 5.2578">
<title>SVG Image created as working-brd.svg date 2023/09/12 03:49:37 </title>
  <desc>Image generated by PCBNEW </desc>
<g style="fill:#000000; fill-opacity:1.0000;stroke:#000000; stroke-opacity:1.0000;
stroke-linecap:round; stroke-linejoin:round;"
 transform="translate(0 0) scale(1 1)">
</g>
<g style="fill:#000000; fill-opacity:0.0; 
stroke:#000000; stroke-width:0.0000; stroke-opacity:1; 
stroke-linecap:round; stroke-linejoin:round;">
</g>
<g style="fill:#000000; fill-opacity:1.0000; 
stroke:#000000; stroke-width:0.0212; stroke-opacity:1; 
stroke-linecap:round; stroke-linejoin:round;">
<rect x="-5.000000" y="-5.000000" width="20.174393" height="15.270881" rx="0.000000" />
</g>
<g style="fill:#FFFFFF; fill-opacity:1.0000; 
stroke:#FFFFFF; stroke-width:0.0212; stroke-opacity:1; 
stroke-linecap:round; stroke-linejoin:round;">
<g >
</g>
<g >
</g>
<g >
</g>
<g >
</g>
</g>
<g style="fill:#FFFFFF; fill-opacity:1.0000; 
stroke:#FFFFFF; stroke-width:0.0212; stroke-opacity:1; 
stroke-linecap:round; stroke-linejoin:round;">
<g >
</g>
<g >
</g>
<g >
</g>
<g >
</g>
</g>
<g style="fill:#FFFFFF; fill-opacity:1.0000; 
stroke:#FFFFFF; stroke-width:0.0212; stroke-opacity:1; 
stroke-linecap:round; stroke-linejoin:round;">
<g >
</g>
<g >
</g>
<g >
</g>
<g >
</g>
</g>
<g style="fill:#FFFFFF; fill-opacity:1.0000; 
stroke:#FFFFFF; stroke-width:0.0212; stroke-opacity:1; 
stroke-linecap:round; stroke-linejoin:round;">
<g >
</g>
<g >
</g>
<g >
</g>
<g >
</g>
</g>
<g style="fill:#000000; fill-opacity:1.0000; 
stroke:#000000; stroke-width:0.0212; stroke-opacity:1; 
stroke-linecap:round; stroke-linejoin:round;">
</g>
<g style="fill:#000000; fill-opacity:1.0000; 
stroke:#000000; stroke-width:0.0000; stroke-opacity:1; 
stroke-linecap:round; stroke-linejoin:round;">
<circle cx="1.2192" cy="2.2352" r="0.4064" /> 
</g>
<g style="fill:#000000; fill-opacity:1.0000; 
stroke:#000000; stroke-width:0.0212; stroke-opacity:1; 
stroke-linecap:round; stroke-linejoin:round;">
</g>
<g style="fill:#000000; fill-opacity:1.0000; 
stroke:#000000; stroke-width:0.0000; stroke-opacity:1; 
stroke-linecap:round; stroke-linejoin:round;">
<circle cx="3.2512" cy="2.2352" r="0.4064" /> 
</g>
<g style="fill:#000000; fill-opacity:1.0000; 
stroke:#000000; stroke-width:0.0212; stroke-opacity:1; 
stroke-linecap:round; stroke-linejoin:round;">
</g>
<g style="fill:#FFFFFF; fill-opacity:1.0000; 
stroke:#FFFFFF; stroke-width:0.0212; stroke-opacity:1; 
stroke-linecap:round; stroke-linejoin:round;">
<g >
</g>
<g >
</g>
<g >
</g>
<g >
</g>
</g>
<g style="fill:#FFFFFF; fill-opacity:1.0000; 
stroke:#FFFFFF; stroke-width:0.0212; stroke-opacity:1; 
stroke-linecap:round; stroke-linejoin:round;">
<g >
</g>
<g style="fill:#FD0010; fill-opacity:0.4000; 
stroke:#FD0010; stroke-width:0.0212; stroke-opacity:1; 
stroke-linecap:round; stroke-linejoin:round;">
</g>
<g style="fill:#FD0010; fill-opacity:0.4000; 
stroke:#FD0010; stroke-width:0.0000; stroke-opacity:1; 
stroke-linecap:round; stroke-linejoin:round;">
<circle cx="1.2192" cy="2.2352" r="0.8128" /> 
</g>
<g style="fill:#FD0010; fill-opacity:0.4000; 
stroke:#FD0010; stroke-width:0.0212; stroke-opacity:1; 
stroke-linecap:round; stroke-linejoin:round;">
</g>
<g style="fill:#FD0010; fill-opacity:0.4000; 
stroke:#FD0010; stroke-width:0.0000; stroke-opacity:1; 
stroke-linecap:round; stroke-linejoin:round;">
<path style="fill:#FD0010; fill-opacity:0.4000; 
stroke:#FD0010; stroke-width:0.0000; stroke-opacity:1; 
stroke-linecap:round; stroke-linejoin:round;fill-rule:evenodd;"
d="M 3.6055,1.4418
3.6176,1.4522
4.0342,1.8688
4.0627,1.9247
4.0640,1.9406
4.0640,2.5298
4.0446,2.5895
4.0342,2.6016
3.6176,3.0182
3.5617,3.0467
3.5458,3.0480
2.9566,3.0480
2.8969,3.0286
2.8848,3.0182
2.4682,2.6016
2.4397,2.5457
2.4384,2.5298
2.4384,1.9406
2.4578,1.8809
2.4682,1.8688
2.8848,1.4522
2.9407,1.4237
2.9566,1.4224
3.5458,1.4224
Z" /> 
</g>
<g >
</g>
<g >
</g>
<g >
</g>
</g>
<g style="fill:#FFFFFF; fill-opacity:1.0000; 
stroke:#FFFFFF; stroke-width:0.0000; stroke-opacity:1; 
stroke-linecap:round; stroke-linejoin:round;">
<g >
</g>
<g style="fill:#B2803A; fill-opacity:1.0000; 
stroke:#B2803A; stroke-width:0.0000; stroke-opacity:1; 
stroke-linecap:round; stroke-linejoin:round;">
<circle cx="1.2192" cy="2.2352" r="0.7112" /> 
</g>
<g style="fill:#B2803A; fill-opacity:1.0000; 
stroke:#B2803A; stroke-width:0.0212; stroke-opacity:1; 
stroke-linecap:round; stroke-linejoin:round;">
</g>
<g style="fill:#B2803A; fill-opacity:1.0000; 
stroke:#B2803A; stroke-width:0.0000; stroke-opacity:1; 
stroke-linecap:round; stroke-linejoin:round;">
<path style="fill:#B2803A; fill-opacity:1.0000; 
stroke:#B2803A; stroke-width:0.0000; stroke-opacity:1; 
stroke-linecap:round; stroke-linejoin:round;fill-rule:evenodd;"
d="M 2.5400,1.9406
2.9566,1.5240
3.5458,1.5240
3.9624,1.9406
3.9624,2.5298
3.5458,2.9464
2.9566,2.9464
2.5400,2.5298
Z" /> 
</g>
<g >
</g>
<g >
</g>
<g >
</g>
</g>
<g style="fill:#000000; fill-opacity:1.0000; 
stroke:#000000; stroke-width:0.0000; stroke-opacity:1; 
stroke-linecap:round; stroke-linejoin:round;">
<circle cx="1.2192" cy="2.2352" r="0.4064" /> 
</g>
<g style="fill:#000000; fill-opacity:1.0000; 
stroke:#000000; stroke-width:0.0212; stroke-opacity:1; 
stroke-linecap:round; stroke-linejoin:round;">
</g>
<g style="fill:#000000; fill-opacity:1.0000; 
stroke:#000000; stroke-width:0.0000; stroke-opacity:1; 
stroke-linecap:round; stroke-linejoin:round;">
<circle cx="3.2512" cy="2.2352" r="0.4064" /> 
</g>
<g style="fill:#000000; fill-opacity:1.0000; 
stroke:#000000; stroke-width:0.0212; stroke-opacity:1; 
stroke-linecap:round; stroke-linejoin:round;">
</g>
<g style="fill:#FFFFFF; fill-opacity:1.0000; 
stroke:#FFFFFF; stroke-width:0.0212; stroke-opacity:1; 
stroke-linecap:round; stroke-linejoin:round;">
<g >
</g>
<g style="fill:#37CBCB; fill-opacity:1.0000; 
stroke:#37CBCB; stroke-width:0.0212; stroke-opacity:1; 
stroke-linecap:round; stroke-linejoin:round;">
</g>
<g style="fill:#37CBCB; fill-opacity:1.0000; 
stroke:#37CBCB; stroke-width:0.0000; stroke-opacity:1; 
stroke-linecap:round; stroke-linejoin:round;">
<circle cx="1.2192" cy="2.2352" r="0.7112" /> 
</g>
<g style="fill:#37CBCB; fill-opacity:1.0000; 
stroke:#37CBCB; stroke-width:0.0212; stroke-opacity:1; 
stroke-linecap:round; stroke-linejoin:round;">
</g>
<g style="fill:#37CBCB; fill-opacity:1.0000; 
stroke:#37CBCB; stroke-width:0.0000; stroke-opacity:1; 
stroke-linecap:round; stroke-linejoin:round;">
<path style="fill:#37CBCB; fill-opacity:1.0000; 
stroke:#37CBCB; stroke-width:0.0000; stroke-opacity:1; 
stroke-linecap:round; stroke-linejoin:round;fill-rule:evenodd;"
d="M 2.5400,1.9406
2.9566,1.5240
3.5458,1.5240
3.9624,1.9406
3.9624,2.5298
3.5458,2.9464
2.9566,2.9464
2.5400,2.5298
Z" /> 
</g>
<g >
</g>
<g >
</g>
<g >
</g>
</g>
<g style="fill:#000000; fill-opacity:1.0000; 
stroke:#000000; stroke-width:0.0000; stroke-opacity:1; 
stroke-linecap:round; stroke-linejoin:round;">
<circle cx="1.2192" cy="2.2352" r="0.4064" /> 
</g>
<g style="fill:#000000; fill-opacity:1.0000; 
stroke:#000000; stroke-width:0.0212; stroke-opacity:1; 
stroke-linecap:round; stroke-linejoin:round;">
</g>
<g style="fill:#000000; fill-opacity:1.0000; 
stroke:#000000; stroke-width:0.0000; stroke-opacity:1; 
stroke-linecap:round; stroke-linejoin:round;">
<circle cx="3.2512" cy="2.2352" r="0.4064" /> 
</g>
<g style="fill:#000000; fill-opacity:1.0000; 
stroke:#000000; stroke-width:0.0212; stroke-opacity:1; 
stroke-linecap:round; stroke-linejoin:round;">
</g>
<g style="fill:#FFFFFF; fill-opacity:1.0000; 
stroke:#FFFFFF; stroke-width:0.0212; stroke-opacity:1; 
stroke-linecap:round; stroke-linejoin:round;">
<g >
</g>
<g style="fill:#279B00; fill-opacity:0.4000; 
stroke:#279B00; stroke-width:0.0212; stroke-opacity:1; 
stroke-linecap:round; stroke-linejoin:round;">
</g>
<g style="fill:#279B00; fill-opacity:0.4000; 
stroke:#279B00; stroke-width:0.0000; stroke-opacity:1; 
stroke-linecap:round; stroke-linejoin:round;">
<circle cx="1.2192" cy="2.2352" r="0.8128" /> 
</g>
<g style="fill:#279B00; fill-opacity:0.4000; 
stroke:#279B00; stroke-width:0.0212; stroke-opacity:1; 
stroke-linecap:round; stroke-linejoin:round;">
</g>
<g style="fill:#279B00; fill-opacity:0.4000; 
stroke:#279B00; stroke-width:0.0000; stroke-opacity:1; 
stroke-linecap:round; stroke-linejoin:round;">
<path style="fill:#279B00; fill-opacity:0.4000; 
stroke:#279B00; stroke-width:0.0000; stroke-opacity:1; 
stroke-linecap:round; stroke-linejoin:round;fill-rule:evenodd;"
d="M 3.6055,1.4418
3.6176,1.4522
4.0342,1.8688
4.0627,1.9247
4.0640,1.9406
4.0640,2.5298
4.0446,2.5895
4.0342,2.6016
3.6176,3.0182
3.5617,3.0467
3.5458,3.0480
2.9566,3.0480
2.8969,3.0286
2.8848,3.0182
2.4682,2.6016
2.4397,2.5457
2.4384,2.5298
2.4384,1.9406
2.4578,1.8809
2.4682,1.8688
2.8848,1.4522
2.9407,1.4237
2.9566,1.4224
3.5458,1.4224
Z" /> 
</g>
<g >
</g>
<g >
</g>
<g >
</g>
</g>
<g style="fill:#FFFFFF; fill-opacity:1.0000; 
stroke:#FFFFFF; stroke-width:0.0000; stroke-opacity:1; 
stroke-linecap:round; stroke-linejoin:round;">
<g >
</g>
<g >
</g>
<g >
</g>
<g >
</g>
</g>
<g style="fill:#FFFFFF; fill-opacity:1.0000; 
stroke:#FFFFFF; stroke-width:0.0000; stroke-opacity:1; 
stroke-linecap:round; stroke-linejoin:round;">
</g>
<g style="fill:#0D115E; fill-opacity:1.0000; 
stroke:#0D115E; stroke-width:0.0000; stroke-opacity:1; 
stroke-linecap:round; stroke-linejoin:round;">
</g>
<g style="fill:#0D115E; fill-opacity:1.0000; 
stroke:#0D115E; stroke-width:0.1143; stroke-opacity:1; 
stroke-linecap:round; stroke-linejoin:round;">
</g>
<g style="fill:#0D115E; fill-opacity:0.0; 
stroke:#0D115E; stroke-width:0.1143; stroke-opacity:1; 
stroke-linecap:round; stroke-linejoin:round;">
<text x="4.3942" y="1.9240"
textLength="5.7802" font-size="1.5409" lengthAdjust="spacingAndGlyphs"
text-anchor="start" opacity="0">NAME0</text>
<g class="stroked-text"><desc>NAME0</desc>
<path d="M4.7446 1.8749
L4.7446 0.7192
" />
<path d="M4.7446 0.7192
L5.4050 1.8749
" />
<path d="M5.4050 1.8749
L5.4050 0.7192
" />
<path d="M5.9003 1.5447
L6.4506 1.5447
" />
<path d="M5.7902 1.8749
L6.1754 0.7192
" />
<path d="M6.1754 0.7192
L6.5607 1.8749
" />
<path d="M6.9459 1.8749
L6.9459 0.7192
" />
<path d="M6.9459 0.7192
L7.3311 1.5447
" />
<path d="M7.3311 1.5447
L7.7164 0.7192
" />
<path d="M7.7164 0.7192
L7.7164 1.8749
" />
<path d="M8.2667 1.2695
L8.6519 1.2695
" />
<path d="M8.8170 1.8749
L8.2667 1.8749
" />
<path d="M8.2667 1.8749
L8.2667 0.7192
" />
<path d="M8.2667 0.7192
L8.8170 0.7192
" />
<path d="M9.5325 0.7192
L9.6425 0.7192
" />
<path d="M9.6425 0.7192
L9.7526 0.7742
" />
<path d="M9.7526 0.7742
L9.8076 0.8293
" />
<path d="M9.8076 0.8293
L9.8627 0.9393
" />
<path d="M9.8627 0.9393
L9.9177 1.1595
" />
<path d="M9.9177 1.1595
L9.9177 1.4346
" />
<path d="M9.9177 1.4346
L9.8627 1.6548
" />
<path d="M9.8627 1.6548
L9.8076 1.7648
" />
<path d="M9.8076 1.7648
L9.7526 1.8199
" />
<path d="M9.7526 1.8199
L9.6425 1.8749
" />
<path d="M9.6425 1.8749
L9.5325 1.8749
" />
<path d="M9.5325 1.8749
L9.4224 1.8199
" />
<path d="M9.4224 1.8199
L9.3674 1.7648
" />
<path d="M9.3674 1.7648
L9.3123 1.6548
" />
<path d="M9.3123 1.6548
L9.2573 1.4346
" />
<path d="M9.2573 1.4346
L9.2573 1.1595
" />
<path d="M9.2573 1.1595
L9.3123 0.9393
" />
<path d="M9.3123 0.9393
L9.3674 0.8293
" />
<path d="M9.3674 0.8293
L9.4224 0.7742
" />
<path d="M9.4224 0.7742
L9.5325 0.7192
" />
</g></g>
<g style="fill:#0D115E; fill-opacity:0.0; 
stroke:#0D115E; stroke-width:0.1524; stroke-opacity:1; 
stroke-linecap:round; stroke-linejoin:round;">
<path d="M1.4732 0.7112
L1.9812 0.7112
" />
<path d="M1.7272 0.9652
L1.7272 0.4572
" />
<path d="M2.6162 0.7112
L3.1242 0.7112
" />
<circle cx="2.2352" cy="2.2352" r="2.1590" /> 
<g >
</g>
<g >
</g>
<g >
</g>
<g >
</g>
</g>
<g style="fill:#000000; fill-opacity:0.0; 
stroke:#000000; stroke-width:0.1524; stroke-opacity:1; 
stroke-linecap:round; stroke-linejoin:round;">
</g>
<g style="fill:#000000; fill-opacity:1.0000; 
stroke:#000000; stroke-width:0.0000; stroke-opacity:1; 
stroke-linecap:round; stroke-linejoin:round;">
<circle cx="1.2192" cy="2.2352" r="0.4064" /> 
</g>
<g style="fill:#000000; fill-opacity:1.0000; 
stroke:#000000; stroke-width:0.0212; stroke-opacity:1; 
stroke-linecap:round; stroke-linejoin:round;">
</g>
<g style="fill:#000000; fill-opacity:1.0000; 
stroke:#000000; stroke-width:0.0000; stroke-opacity:1; 
stroke-linecap:round; stroke-linejoin:round;">
<circle cx="3.2512" cy="2.2352" r="0.4064" /> 
</g>
<g style="fill:#000000; fill-opacity:1.0000; 
stroke:#000000; stroke-width:0.0212; stroke-opacity:1; 
stroke-linecap:round; stroke-linejoin:round;">
</g>
<g style="fill:#FFFFFF; fill-opacity:1.0000; 
stroke:#FFFFFF; stroke-width:0.0212; stroke-opacity:1; 
stroke-linecap:round; stroke-linejoin:round;">
<g >
</g>
<g >
</g>
<g >
</g>
<g >
</g>
</g>
<g style="fill:#FFFFFF; fill-opacity:1.0000; 
stroke:#FFFFFF; stroke-width:0.0212; stroke-opacity:1; 
stroke-linecap:round; stroke-linejoin:round;">
<g >
</g>
<g >
</g>
<g >
</g>
<g >
</g>
</g>
<g style="fill:#FFFFFF; fill-opacity:1.0000; 
stroke:#FFFFFF; stroke-width:0.0212; stroke-opacity:1; 
stroke-linecap:round; stroke-linejoin:round;">
</g>
<g style="fill:#505050; fill-opacity:1.0000; 
stroke:#505050; stroke-width:0.0212; stroke-opacity:1; 
stroke-linecap:round; stroke-linejoin:round;">
</g>
<g style="fill:#505050; fill-opacity:1.0000; 
stroke:#505050; stroke-width:0.1143; stroke-opacity:1; 
stroke-linecap:round; stroke-linejoin:round;">
</g>
<g style="fill:#505050; fill-opacity:0.0; 
stroke:#505050; stroke-width:0.1143; stroke-opacity:1; 
stroke-linecap:round; stroke-linejoin:round;">
<text x="4.3942" y="4.9720"
textLength="5.2849" font-size="1.5409" lengthAdjust="spacingAndGlyphs"
text-anchor="start" opacity="0">VALUE</text>
<g class="stroked-text"><desc>VALUE</desc>
<path d="M4.5795 3.7672
L4.9647 4.9229
" />
<path d="M4.9647 4.9229
L5.3499 3.7672
" />
<path d="M5.6801 4.5927
L6.2305 4.5927
" />
<path d="M5.5701 4.9229
L5.9553 3.7672
" />
<path d="M5.9553 3.7672
L6.3405 4.9229
" />
<path d="M7.2761 4.9229
L6.7258 4.9229
" />
<path d="M6.7258 4.9229
L6.7258 3.7672
" />
<path d="M7.6613 3.7672
L7.6613 4.7028
" />
<path d="M7.6613 4.7028
L7.7164 4.8128
" />
<path d="M7.7164 4.8128
L7.7714 4.8679
" />
<path d="M7.7714 4.8679
L7.8815 4.9229
" />
<path d="M7.8815 4.9229
L8.1016 4.9229
" />
<path d="M8.1016 4.9229
L8.2117 4.8679
" />
<path d="M8.2117 4.8679
L8.2667 4.8128
" />
<path d="M8.2667 4.8128
L8.3217 4.7028
" />
<path d="M8.3217 4.7028
L8.3217 3.7672
" />
<path d="M8.8721 4.3175
L9.2573 4.3175
" />
<path d="M9.4224 4.9229
L8.8721 4.9229
" />
<path d="M8.8721 4.9229
L8.8721 3.7672
" />
<path d="M8.8721 3.7672
L9.4224 3.7672
" />
</g></g>
<g style="fill:#505050; fill-opacity:0.0; 
stroke:#505050; stroke-width:0.1524; stroke-opacity:1; 
stroke-linecap:round; stroke-linejoin:round;">
<path d="M0.7112 2.2352
L1.4732 2.2352
" />
<path d="M1.4732 1.2192
L1.4732 2.2352
" />
<path d="M1.4732 2.2352
L1.4732 3.2512
" />
<path d="M1.4732 3.2512
L1.9812 3.2512
" />
<path d="M1.9812 1.2192
L1.4732 1.2192
" />
<path d="M1.9812 3.2512
L1.9812 1.2192
" />
<path d="M2.8702 2.2352
L3.7592 2.2352
" />
</g>
<g style="fill:#505050; fill-opacity:1.0000; 
stroke:#505050; stroke-width:0.0000; stroke-opacity:1; 
stroke-linecap:round; stroke-linejoin:round;">
<path style="fill:#505050; fill-opacity:1.0000; 
stroke:#505050; stroke-width:0.0000; stroke-opacity:1; 
stroke-linecap:round; stroke-linejoin:round;fill-rule:evenodd;"
d="M 2.9972,3.2512
2.4892,3.2512
2.4892,1.2192
2.9972,1.2192
Z" /> 
<g >
</g>
<g >
</g>
<g >
</g>
<g >
</g>
</g>
<g style="fill:#FFFFFF; fill-opacity:1.0000; 
stroke:#FFFFFF; stroke-width:0.0000; stroke-opacity:1; 
stroke-linecap:round; stroke-linejoin:round;">
<g >
</g>
<g >
</g>
<g >
</g>
<g >
</g>
</g>
<g style="fill:#FFFFFF; fill-opacity:1.0000; 
stroke:#FFFFFF; stroke-width:0.0000; stroke-opacity:1; 
stroke-linecap:round; stroke-linejoin:round;">
<g >
</g>
<g >
</g>
<g >
</g>
<g >
</g>
</g>
<g style="fill:#FFFFFF; fill-opacity:1.0000; 
stroke:#FFFFFF; stroke-width:0.0000; stroke-opacity:1; 
stroke-linecap:round; stroke-linejoin:round;">
<g >
</g>
<g >
</g>
<g >
</g>
<g >
</g>
</g>
<g style="fill:#FFFFFF; fill-opacity:1.0000; 
stroke:#FFFFFF; stroke-width:0.0000; stroke-opacity:1; 
stroke-linecap:round; stroke-linejoin:round;">
<g >
</g>
<g >
</g>
<g >
</g>
<g >
</g>
</g>
<g style="fill:#FFFFFF; fill-opacity:1.0000; 
stroke:#FFFFFF; stroke-width:0.0000; stroke-opacity:1; 
stroke-linecap:round; stroke-linejoin:round;">
<g >
</g>
<g >
</g>
<g >
</g>
<g >
</g>
</g>
<g style="fill:#FFFFFF; fill-opacity:1.0000; 
stroke:#FFFFFF; stroke-width:0.0000; stroke-opacity:1; 
stroke-linecap:round; stroke-linejoin:round;">
<g >
</g>
<g >
</g>
<g >
</g>
<g >
</g>
</g> 
</svg>
