<?xml version="1.0" standalone="no"?>
 <!DOCTYPE svg PUBLIC "-//W3C//DTD SVG 1.1//EN" 
 "http://www.w3.org/Graphics/SVG/1.1/DTD/svg11.dtd"> 
<svg
  xmlns:svg="http://www.w3.org/2000/svg"
  xmlns="http://www.w3.org/2000/svg"
  xmlns:xlink="http://www.w3.org/1999/xlink"
  version="1.1"
  width="35.6870mm" height="28.2448mm" viewBox="0.0000 0.0000 35.6870 28.2448">
<title>SVG Image created as _autosave-working-brd.svg date 2023/09/29 12:26:21 </title>
  <desc>Image generated by PCBNEW </desc>
<g style="fill:#000000; fill-opacity:1.0000;stroke:#000000; stroke-opacity:1.0000;
stroke-linecap:round; stroke-linejoin:round;"
 transform="translate(0 0) scale(1 1)">
</g>
<g style="fill:#000000; fill-opacity:0.0; 
stroke:#000000; stroke-width:0.0000; stroke-opacity:1; 
stroke-linecap:round; stroke-linejoin:round;">
</g>
<g style="fill:#000000; fill-opacity:1.0000; 
stroke:#000000; stroke-width:0.0212; stroke-opacity:1; 
stroke-linecap:round; stroke-linejoin:round;">
<rect x="-5.000000" y="-5.000000" width="45.710000" height="38.252536" rx="0.000000" />
</g>
<g style="fill:#FFFFFF; fill-opacity:1.0000; 
stroke:#FFFFFF; stroke-width:0.0212; stroke-opacity:1; 
stroke-linecap:round; stroke-linejoin:round;">
<g >
</g>
<g style="fill:#B2803A; fill-opacity:1.0000; 
stroke:#B2803A; stroke-width:0.0212; stroke-opacity:1; 
stroke-linecap:round; stroke-linejoin:round;">
</g>
<g style="fill:#B2803A; fill-opacity:1.0000; 
stroke:#B2803A; stroke-width:0.0000; stroke-opacity:1; 
stroke-linecap:round; stroke-linejoin:round;">
<path style="fill:#B2803A; fill-opacity:1.0000; 
stroke:#B2803A; stroke-width:0.0000; stroke-opacity:1; 
stroke-linecap:round; stroke-linejoin:round;fill-rule:evenodd;"
d="M 11.5050,7.4832
11.5050,4.9432
12.7750,4.9432
12.7750,7.4832
Z" /> 
<path style="fill:#B2803A; fill-opacity:1.0000; 
stroke:#B2803A; stroke-width:0.0000; stroke-opacity:1; 
stroke-linecap:round; stroke-linejoin:round;fill-rule:evenodd;"
d="M 11.5050,20.8182
11.5050,18.2782
12.7750,18.2782
12.7750,20.8182
Z" /> 
<path style="fill:#B2803A; fill-opacity:1.0000; 
stroke:#B2803A; stroke-width:0.0000; stroke-opacity:1; 
stroke-linecap:round; stroke-linejoin:round;fill-rule:evenodd;"
d="M 11.5050,8.4357
11.5050,7.8007
12.7750,7.8007
12.7750,8.4357
Z" /> 
<path style="fill:#B2803A; fill-opacity:1.0000; 
stroke:#B2803A; stroke-width:0.0000; stroke-opacity:1; 
stroke-linecap:round; stroke-linejoin:round;fill-rule:evenodd;"
d="M 11.5050,12.2457
11.5050,11.6107
12.7750,11.6107
12.7750,12.2457
Z" /> 
<path style="fill:#B2803A; fill-opacity:1.0000; 
stroke:#B2803A; stroke-width:0.0000; stroke-opacity:1; 
stroke-linecap:round; stroke-linejoin:round;fill-rule:evenodd;"
d="M 11.5050,13.3506
11.5050,13.0458
12.7750,13.0458
12.7750,13.3506
Z" /> 
<path style="fill:#B2803A; fill-opacity:1.0000; 
stroke:#B2803A; stroke-width:0.0000; stroke-opacity:1; 
stroke-linecap:round; stroke-linejoin:round;fill-rule:evenodd;"
d="M 11.5050,13.9856
11.5050,13.6808
12.7750,13.6808
12.7750,13.9856
Z" /> 
<path style="fill:#B2803A; fill-opacity:1.0000; 
stroke:#B2803A; stroke-width:0.0000; stroke-opacity:1; 
stroke-linecap:round; stroke-linejoin:round;fill-rule:evenodd;"
d="M 11.5050,14.6206
11.5050,14.3158
12.7750,14.3158
12.7750,14.6206
Z" /> 
<path style="fill:#B2803A; fill-opacity:1.0000; 
stroke:#B2803A; stroke-width:0.0000; stroke-opacity:1; 
stroke-linecap:round; stroke-linejoin:round;fill-rule:evenodd;"
d="M 11.5050,15.2556
11.5050,14.9508
12.7750,14.9508
12.7750,15.2556
Z" /> 
<path style="fill:#B2803A; fill-opacity:1.0000; 
stroke:#B2803A; stroke-width:0.0000; stroke-opacity:1; 
stroke-linecap:round; stroke-linejoin:round;fill-rule:evenodd;"
d="M 11.5050,15.8906
11.5050,15.5858
12.7750,15.5858
12.7750,15.8906
Z" /> 
<path style="fill:#B2803A; fill-opacity:1.0000; 
stroke:#B2803A; stroke-width:0.0000; stroke-opacity:1; 
stroke-linecap:round; stroke-linejoin:round;fill-rule:evenodd;"
d="M 11.5050,16.5256
11.5050,16.2208
12.7750,16.2208
12.7750,16.5256
Z" /> 
<path style="fill:#B2803A; fill-opacity:1.0000; 
stroke:#B2803A; stroke-width:0.0000; stroke-opacity:1; 
stroke-linecap:round; stroke-linejoin:round;fill-rule:evenodd;"
d="M 11.5050,17.1607
11.5050,16.8559
12.7750,16.8559
12.7750,17.1607
Z" /> 
<path style="fill:#B2803A; fill-opacity:1.0000; 
stroke:#B2803A; stroke-width:0.0000; stroke-opacity:1; 
stroke-linecap:round; stroke-linejoin:round;fill-rule:evenodd;"
d="M 11.5050,17.7956
11.5050,17.4908
12.7750,17.4908
12.7750,17.7956
Z" /> 
</g>
<g >
</g>
<g style="fill:#B2803A; fill-opacity:1.0000; 
stroke:#B2803A; stroke-width:0.0000; stroke-opacity:1; 
stroke-linecap:round; stroke-linejoin:round;">
<path style="fill:#B2803A; fill-opacity:1.0000; 
stroke:#B2803A; stroke-width:0.0000; stroke-opacity:1; 
stroke-linecap:round; stroke-linejoin:round;fill-rule:evenodd;"
d="M 22.9350,7.4832
22.9350,4.9432
24.2050,4.9432
24.2050,7.4832
Z" /> 
<path style="fill:#B2803A; fill-opacity:1.0000; 
stroke:#B2803A; stroke-width:0.0000; stroke-opacity:1; 
stroke-linecap:round; stroke-linejoin:round;fill-rule:evenodd;"
d="M 22.9350,20.8182
22.9350,18.2782
24.2050,18.2782
24.2050,20.8182
Z" /> 
<path style="fill:#B2803A; fill-opacity:1.0000; 
stroke:#B2803A; stroke-width:0.0000; stroke-opacity:1; 
stroke-linecap:round; stroke-linejoin:round;fill-rule:evenodd;"
d="M 22.9350,8.4357
22.9350,7.8007
24.2050,7.8007
24.2050,8.4357
Z" /> 
<path style="fill:#B2803A; fill-opacity:1.0000; 
stroke:#B2803A; stroke-width:0.0000; stroke-opacity:1; 
stroke-linecap:round; stroke-linejoin:round;fill-rule:evenodd;"
d="M 22.9350,12.2457
22.9350,11.6107
24.2050,11.6107
24.2050,12.2457
Z" /> 
<path style="fill:#B2803A; fill-opacity:1.0000; 
stroke:#B2803A; stroke-width:0.0000; stroke-opacity:1; 
stroke-linecap:round; stroke-linejoin:round;fill-rule:evenodd;"
d="M 22.9350,13.3506
22.9350,13.0458
24.2050,13.0458
24.2050,13.3506
Z" /> 
<path style="fill:#B2803A; fill-opacity:1.0000; 
stroke:#B2803A; stroke-width:0.0000; stroke-opacity:1; 
stroke-linecap:round; stroke-linejoin:round;fill-rule:evenodd;"
d="M 22.9350,13.9856
22.9350,13.6808
24.2050,13.6808
24.2050,13.9856
Z" /> 
<path style="fill:#B2803A; fill-opacity:1.0000; 
stroke:#B2803A; stroke-width:0.0000; stroke-opacity:1; 
stroke-linecap:round; stroke-linejoin:round;fill-rule:evenodd;"
d="M 22.9350,14.6206
22.9350,14.3158
24.2050,14.3158
24.2050,14.6206
Z" /> 
<path style="fill:#B2803A; fill-opacity:1.0000; 
stroke:#B2803A; stroke-width:0.0000; stroke-opacity:1; 
stroke-linecap:round; stroke-linejoin:round;fill-rule:evenodd;"
d="M 22.9350,15.2556
22.9350,14.9508
24.2050,14.9508
24.2050,15.2556
Z" /> 
<path style="fill:#B2803A; fill-opacity:1.0000; 
stroke:#B2803A; stroke-width:0.0000; stroke-opacity:1; 
stroke-linecap:round; stroke-linejoin:round;fill-rule:evenodd;"
d="M 22.9350,15.8906
22.9350,15.5858
24.2050,15.5858
24.2050,15.8906
Z" /> 
<path style="fill:#B2803A; fill-opacity:1.0000; 
stroke:#B2803A; stroke-width:0.0000; stroke-opacity:1; 
stroke-linecap:round; stroke-linejoin:round;fill-rule:evenodd;"
d="M 22.9350,16.5256
22.9350,16.2208
24.2050,16.2208
24.2050,16.5256
Z" /> 
<path style="fill:#B2803A; fill-opacity:1.0000; 
stroke:#B2803A; stroke-width:0.0000; stroke-opacity:1; 
stroke-linecap:round; stroke-linejoin:round;fill-rule:evenodd;"
d="M 22.9350,17.1607
22.9350,16.8559
24.2050,16.8559
24.2050,17.1607
Z" /> 
<path style="fill:#B2803A; fill-opacity:1.0000; 
stroke:#B2803A; stroke-width:0.0000; stroke-opacity:1; 
stroke-linecap:round; stroke-linejoin:round;fill-rule:evenodd;"
d="M 22.9350,17.7956
22.9350,17.4908
24.2050,17.4908
24.2050,17.7956
Z" /> 
</g>
<g >
</g>
<g style="fill:#B2803A; fill-opacity:1.0000; 
stroke:#B2803A; stroke-width:0.0000; stroke-opacity:1; 
stroke-linecap:round; stroke-linejoin:round;">
<circle cx="15.3150" cy="3.3482" r="1.5000" /> 
</g>
<g style="fill:#B2803A; fill-opacity:1.0000; 
stroke:#B2803A; stroke-width:0.0212; stroke-opacity:1; 
stroke-linecap:round; stroke-linejoin:round;">
</g>
<g style="fill:#B2803A; fill-opacity:1.0000; 
stroke:#B2803A; stroke-width:0.0000; stroke-opacity:1; 
stroke-linecap:round; stroke-linejoin:round;">
<circle cx="15.3150" cy="10.3483" r="1.5000" /> 
</g>
<g style="fill:#B2803A; fill-opacity:1.0000; 
stroke:#B2803A; stroke-width:0.0212; stroke-opacity:1; 
stroke-linecap:round; stroke-linejoin:round;">
</g>
<g style="fill:#B2803A; fill-opacity:1.0000; 
stroke:#B2803A; stroke-width:0.0000; stroke-opacity:1; 
stroke-linecap:round; stroke-linejoin:round;">
<circle cx="20.3150" cy="3.3482" r="1.5000" /> 
</g>
<g style="fill:#B2803A; fill-opacity:1.0000; 
stroke:#B2803A; stroke-width:0.0212; stroke-opacity:1; 
stroke-linecap:round; stroke-linejoin:round;">
</g>
<g style="fill:#B2803A; fill-opacity:1.0000; 
stroke:#B2803A; stroke-width:0.0000; stroke-opacity:1; 
stroke-linecap:round; stroke-linejoin:round;">
<circle cx="20.3150" cy="10.3483" r="1.5000" /> 
</g>
<g style="fill:#B2803A; fill-opacity:1.0000; 
stroke:#B2803A; stroke-width:0.0212; stroke-opacity:1; 
stroke-linecap:round; stroke-linejoin:round;">
</g>
<g >
</g>
<g >
</g>
<g >
</g>
<g >
</g>
<g >
</g>
<g style="fill:#121212; fill-opacity:1.0000; 
stroke:#121212; stroke-width:0.0212; stroke-opacity:1; 
stroke-linecap:round; stroke-linejoin:round;">
</g>
<g style="fill:#121212; fill-opacity:1.0000; 
stroke:#121212; stroke-width:0.0000; stroke-opacity:1; 
stroke-linecap:round; stroke-linejoin:round;">
<circle cx="13.4100" cy="19.5482" r="0.2540" /> 
</g>
<g style="fill:#121212; fill-opacity:1.0000; 
stroke:#121212; stroke-width:0.0212; stroke-opacity:1; 
stroke-linecap:round; stroke-linejoin:round;">
</g>
<g style="fill:#121212; fill-opacity:1.0000; 
stroke:#121212; stroke-width:0.0000; stroke-opacity:1; 
stroke-linecap:round; stroke-linejoin:round;">
<circle cx="21.6650" cy="18.0497" r="0.3810" /> 
</g>
<g style="fill:#121212; fill-opacity:1.0000; 
stroke:#121212; stroke-width:0.0212; stroke-opacity:1; 
stroke-linecap:round; stroke-linejoin:round;">
</g>
<g style="fill:#121212; fill-opacity:1.0000; 
stroke:#121212; stroke-width:0.0000; stroke-opacity:1; 
stroke-linecap:round; stroke-linejoin:round;">
<circle cx="14.2990" cy="13.1982" r="0.2540" /> 
</g>
<g style="fill:#121212; fill-opacity:1.0000; 
stroke:#121212; stroke-width:0.0212; stroke-opacity:1; 
stroke-linecap:round; stroke-linejoin:round;">
</g>
<g >
</g>
<g style="fill:#B2803A; fill-opacity:1.0000; 
stroke:#B2803A; stroke-width:0.0212; stroke-opacity:1; 
stroke-linecap:round; stroke-linejoin:round;">
</g>
<g style="fill:#B2803A; fill-opacity:1.0000; 
stroke:#B2803A; stroke-width:0.2540; stroke-opacity:1; 
stroke-linecap:round; stroke-linejoin:round;">
</g>
<g style="fill:#B2803A; fill-opacity:0.0; 
stroke:#B2803A; stroke-width:0.2540; stroke-opacity:1; 
stroke-linecap:round; stroke-linejoin:round;">
<path d="M22.6810 13.1982
L23.5700 13.1982
" />
<path d="M12.1400 13.8332
L15.3150 13.8332
" />
<path d="M15.9500 13.1982
L22.6810 13.1982
" />
<path d="M15.3150 13.8332
L15.9500 13.1982
" />
<path d="M23.5700 13.8332
L16.5850 13.8332
" />
<path d="M16.5850 13.8332
L15.9500 14.4682
" />
<path d="M15.9500 14.4682
L12.1400 14.4682
" />
<path d="M16.5850 15.1032
L17.2200 14.4682
" />
<path d="M17.2200 14.4682
L23.5700 14.4682
" />
<path d="M12.1400 15.1032
L16.5850 15.1032
" />
<path d="M17.2200 15.7382
L12.1400 15.7382
" />
<path d="M23.5700 15.1032
L17.8550 15.1032
" />
<path d="M17.8550 15.1032
L17.2200 15.7382
" />
<path d="M12.1400 16.3732
L17.8550 16.3732
" />
<path d="M18.4900 15.7382
L23.5700 15.7382
" />
<path d="M17.8550 16.3732
L18.4900 15.7382
" />
<path d="M18.4900 17.0083
L12.1400 17.0083
" />
<path d="M19.1250 16.3732
L18.4900 17.0083
" />
<path d="M23.5700 16.3732
L19.1250 16.3732
" />
</g>
<g style="fill:#B2803A; fill-opacity:0.0; 
stroke:#B2803A; stroke-width:1.5240; stroke-opacity:1; 
stroke-linecap:round; stroke-linejoin:round;">
<path d="M23.5700 19.5482
L23.1636 19.5482
" />
<path d="M23.1636 19.5482
L21.6650 18.0497
" />
</g>
<g style="fill:#B2803A; fill-opacity:0.0; 
stroke:#B2803A; stroke-width:2.5400; stroke-opacity:1; 
stroke-linecap:round; stroke-linejoin:round;">
<path d="M13.4100 19.5482
L12.1400 19.5482
" />
<path d="M23.5700 19.5482
L13.4100 19.5482
" />
</g>
<g style="fill:#B2803A; fill-opacity:0.0; 
stroke:#B2803A; stroke-width:0.2540; stroke-opacity:1; 
stroke-linecap:round; stroke-linejoin:round;">
<path d="M12.1400 13.1982
L12.7750 13.1982
" />
<path d="M12.1400 13.1982
L14.2990 13.1982
" />
</g>
<g style="fill:#B2803A; fill-opacity:0.0; 
stroke:#B2803A; stroke-width:2.5400; stroke-opacity:1; 
stroke-linecap:round; stroke-linejoin:round;">
<path d="M23.5700 6.2132
L23.5126 6.2707
" />
<path d="M12.1974 6.2707
L12.1400 6.2132
" />
<path d="M23.5126 6.2707
L12.1974 6.2707
" />
</g>
<g style="fill:#B2803A; fill-opacity:0.0; 
stroke:#B2803A; stroke-width:0.5080; stroke-opacity:1; 
stroke-linecap:round; stroke-linejoin:round;">
<path d="M12.1400 8.1182
L23.5700 8.1182
" />
</g>
<g style="fill:#B2803A; fill-opacity:0.0; 
stroke:#B2803A; stroke-width:0.6350; stroke-opacity:1; 
stroke-linecap:round; stroke-linejoin:round;">
<path d="M22.3000 11.9283
L23.5700 11.9283
" />
<path d="M14.3694 12.3182
L21.9101 12.3182
" />
<path d="M13.9795 11.9283
L14.3694 12.3182
" />
<path d="M21.9101 12.3182
L22.3000 11.9283
" />
<path d="M12.1400 11.9283
L13.9795 11.9283
" />
</g>
<g style="fill:#B2803A; fill-opacity:0.0; 
stroke:#B2803A; stroke-width:0.2540; stroke-opacity:1; 
stroke-linecap:round; stroke-linejoin:round;">
<path d="M19.7600 17.0083
L22.3965 17.0083
" />
<path d="M12.1400 17.6432
L19.1250 17.6432
" />
<path d="M22.3965 17.0083
L23.5700 17.0083
" />
<path d="M19.1250 17.6432
L19.7600 17.0083
" />
</g>
<g >
</g>
</g>
<g style="fill:#000000; fill-opacity:0.0; 
stroke:#000000; stroke-width:0.2540; stroke-opacity:1; 
stroke-linecap:round; stroke-linejoin:round;">
</g>
<g style="fill:#000000; fill-opacity:1.0000; 
stroke:#000000; stroke-width:0.0000; stroke-opacity:1; 
stroke-linecap:round; stroke-linejoin:round;">
<circle cx="13.4100" cy="19.5482" r="0.1270" /> 
</g>
<g style="fill:#000000; fill-opacity:1.0000; 
stroke:#000000; stroke-width:0.0212; stroke-opacity:1; 
stroke-linecap:round; stroke-linejoin:round;">
</g>
<g style="fill:#000000; fill-opacity:1.0000; 
stroke:#000000; stroke-width:0.0000; stroke-opacity:1; 
stroke-linecap:round; stroke-linejoin:round;">
<circle cx="21.6650" cy="18.0497" r="0.1905" /> 
</g>
<g style="fill:#000000; fill-opacity:1.0000; 
stroke:#000000; stroke-width:0.0212; stroke-opacity:1; 
stroke-linecap:round; stroke-linejoin:round;">
</g>
<g style="fill:#000000; fill-opacity:1.0000; 
stroke:#000000; stroke-width:0.0000; stroke-opacity:1; 
stroke-linecap:round; stroke-linejoin:round;">
<circle cx="14.2990" cy="13.1982" r="0.1270" /> 
</g>
<g style="fill:#000000; fill-opacity:1.0000; 
stroke:#000000; stroke-width:0.0212; stroke-opacity:1; 
stroke-linecap:round; stroke-linejoin:round;">
</g>
<g style="fill:#000000; fill-opacity:1.0000; 
stroke:#000000; stroke-width:0.0000; stroke-opacity:1; 
stroke-linecap:round; stroke-linejoin:round;">
<circle cx="15.3150" cy="3.3482" r="0.9250" /> 
</g>
<g style="fill:#000000; fill-opacity:1.0000; 
stroke:#000000; stroke-width:0.0212; stroke-opacity:1; 
stroke-linecap:round; stroke-linejoin:round;">
</g>
<g style="fill:#000000; fill-opacity:1.0000; 
stroke:#000000; stroke-width:0.0000; stroke-opacity:1; 
stroke-linecap:round; stroke-linejoin:round;">
<circle cx="15.3150" cy="10.3483" r="0.9250" /> 
</g>
<g style="fill:#000000; fill-opacity:1.0000; 
stroke:#000000; stroke-width:0.0212; stroke-opacity:1; 
stroke-linecap:round; stroke-linejoin:round;">
</g>
<g style="fill:#000000; fill-opacity:1.0000; 
stroke:#000000; stroke-width:0.0000; stroke-opacity:1; 
stroke-linecap:round; stroke-linejoin:round;">
<circle cx="20.3150" cy="3.3482" r="0.9250" /> 
</g>
<g style="fill:#000000; fill-opacity:1.0000; 
stroke:#000000; stroke-width:0.0212; stroke-opacity:1; 
stroke-linecap:round; stroke-linejoin:round;">
</g>
<g style="fill:#000000; fill-opacity:1.0000; 
stroke:#000000; stroke-width:0.0000; stroke-opacity:1; 
stroke-linecap:round; stroke-linejoin:round;">
<circle cx="20.3150" cy="10.3483" r="0.9250" /> 
</g>
<g style="fill:#000000; fill-opacity:1.0000; 
stroke:#000000; stroke-width:0.0212; stroke-opacity:1; 
stroke-linecap:round; stroke-linejoin:round;">
</g>
<g style="fill:#FFFFFF; fill-opacity:1.0000; 
stroke:#FFFFFF; stroke-width:0.0212; stroke-opacity:1; 
stroke-linecap:round; stroke-linejoin:round;">
<g >
</g>
<g >
</g>
<g >
</g>
<g style="fill:#37CBCB; fill-opacity:1.0000; 
stroke:#37CBCB; stroke-width:0.0212; stroke-opacity:1; 
stroke-linecap:round; stroke-linejoin:round;">
</g>
<g style="fill:#37CBCB; fill-opacity:1.0000; 
stroke:#37CBCB; stroke-width:0.0000; stroke-opacity:1; 
stroke-linecap:round; stroke-linejoin:round;">
<circle cx="15.3150" cy="3.3482" r="1.5000" /> 
</g>
<g style="fill:#37CBCB; fill-opacity:1.0000; 
stroke:#37CBCB; stroke-width:0.0212; stroke-opacity:1; 
stroke-linecap:round; stroke-linejoin:round;">
</g>
<g style="fill:#37CBCB; fill-opacity:1.0000; 
stroke:#37CBCB; stroke-width:0.0000; stroke-opacity:1; 
stroke-linecap:round; stroke-linejoin:round;">
<circle cx="15.3150" cy="10.3483" r="1.5000" /> 
</g>
<g style="fill:#37CBCB; fill-opacity:1.0000; 
stroke:#37CBCB; stroke-width:0.0212; stroke-opacity:1; 
stroke-linecap:round; stroke-linejoin:round;">
</g>
<g style="fill:#37CBCB; fill-opacity:1.0000; 
stroke:#37CBCB; stroke-width:0.0000; stroke-opacity:1; 
stroke-linecap:round; stroke-linejoin:round;">
<circle cx="20.3150" cy="3.3482" r="1.5000" /> 
</g>
<g style="fill:#37CBCB; fill-opacity:1.0000; 
stroke:#37CBCB; stroke-width:0.0212; stroke-opacity:1; 
stroke-linecap:round; stroke-linejoin:round;">
</g>
<g style="fill:#37CBCB; fill-opacity:1.0000; 
stroke:#37CBCB; stroke-width:0.0000; stroke-opacity:1; 
stroke-linecap:round; stroke-linejoin:round;">
<circle cx="20.3150" cy="10.3483" r="1.5000" /> 
</g>
<g style="fill:#37CBCB; fill-opacity:1.0000; 
stroke:#37CBCB; stroke-width:0.0212; stroke-opacity:1; 
stroke-linecap:round; stroke-linejoin:round;">
</g>
<g >
</g>
<g style="fill:#37CBCB; fill-opacity:1.0000; 
stroke:#37CBCB; stroke-width:0.0212; stroke-opacity:1; 
stroke-linecap:round; stroke-linejoin:round;">
</g>
<g style="fill:#37CBCB; fill-opacity:1.0000; 
stroke:#37CBCB; stroke-width:0.0000; stroke-opacity:1; 
stroke-linecap:round; stroke-linejoin:round;">
<path style="fill:#37CBCB; fill-opacity:1.0000; 
stroke:#37CBCB; stroke-width:0.0000; stroke-opacity:1; 
stroke-linecap:round; stroke-linejoin:round;fill-rule:evenodd;"
d="M 18.2100,20.5232
16.7100,20.5232
16.7100,18.5233
18.2100,18.5233
Z" /> 
<path style="fill:#37CBCB; fill-opacity:1.0000; 
stroke:#37CBCB; stroke-width:0.0000; stroke-opacity:1; 
stroke-linecap:round; stroke-linejoin:round;fill-rule:evenodd;"
d="M 20.5100,20.5232
19.0100,20.5232
19.0100,18.5233
20.5100,18.5233
Z" /> 
<path style="fill:#37CBCB; fill-opacity:1.0000; 
stroke:#37CBCB; stroke-width:0.0000; stroke-opacity:1; 
stroke-linecap:round; stroke-linejoin:round;fill-rule:evenodd;"
d="M 22.8100,20.5232
21.3100,20.5232
21.3100,18.5233
22.8100,18.5233
Z" /> 
<path style="fill:#37CBCB; fill-opacity:1.0000; 
stroke:#37CBCB; stroke-width:0.0000; stroke-opacity:1; 
stroke-linecap:round; stroke-linejoin:round;fill-rule:evenodd;"
d="M 21.6600,14.2233
17.8600,14.2233
17.8600,12.2233
21.6600,12.2233
Z" /> 
</g>
<g >
</g>
<g style="fill:#37CBCB; fill-opacity:1.0000; 
stroke:#37CBCB; stroke-width:0.0000; stroke-opacity:1; 
stroke-linecap:round; stroke-linejoin:round;">
<path style="fill:#37CBCB; fill-opacity:1.0000; 
stroke:#37CBCB; stroke-width:0.0000; stroke-opacity:1; 
stroke-linecap:round; stroke-linejoin:round;fill-rule:evenodd;"
d="M 14.0800,19.4132
15.2800,19.4132
15.2800,20.6133
14.0800,20.6133
Z" /> 
<path style="fill:#37CBCB; fill-opacity:1.0000; 
stroke:#37CBCB; stroke-width:0.0000; stroke-opacity:1; 
stroke-linecap:round; stroke-linejoin:round;fill-rule:evenodd;"
d="M 14.0800,17.2132
15.2800,17.2132
15.2800,18.4132
14.0800,18.4132
Z" /> 
</g>
<g >
</g>
<g style="fill:#37CBCB; fill-opacity:1.0000; 
stroke:#37CBCB; stroke-width:0.0000; stroke-opacity:1; 
stroke-linecap:round; stroke-linejoin:round;">
<path style="fill:#37CBCB; fill-opacity:1.0000; 
stroke:#37CBCB; stroke-width:0.0000; stroke-opacity:1; 
stroke-linecap:round; stroke-linejoin:round;fill-rule:evenodd;"
d="M 14.0600,15.1332
12.7600,15.1332
12.7600,14.4332
14.0600,14.4332
Z" /> 
<path style="fill:#37CBCB; fill-opacity:1.0000; 
stroke:#37CBCB; stroke-width:0.0000; stroke-opacity:1; 
stroke-linecap:round; stroke-linejoin:round;fill-rule:evenodd;"
d="M 14.0600,13.2332
12.7600,13.2332
12.7600,12.5332
14.0600,12.5332
Z" /> 
</g>
<g >
</g>
<g style="fill:#37CBCB; fill-opacity:1.0000; 
stroke:#37CBCB; stroke-width:0.0000; stroke-opacity:1; 
stroke-linecap:round; stroke-linejoin:round;">
<path style="fill:#37CBCB; fill-opacity:1.0000; 
stroke:#37CBCB; stroke-width:0.0000; stroke-opacity:1; 
stroke-linecap:round; stroke-linejoin:round;fill-rule:evenodd;"
d="M 15.9650,15.1332
14.6650,15.1332
14.6650,14.4332
15.9650,14.4332
Z" /> 
<path style="fill:#37CBCB; fill-opacity:1.0000; 
stroke:#37CBCB; stroke-width:0.0000; stroke-opacity:1; 
stroke-linecap:round; stroke-linejoin:round;fill-rule:evenodd;"
d="M 15.9650,13.2332
14.6650,13.2332
14.6650,12.5332
15.9650,12.5332
Z" /> 
</g>
<g >
</g>
<g style="fill:#121212; fill-opacity:1.0000; 
stroke:#121212; stroke-width:0.0000; stroke-opacity:1; 
stroke-linecap:round; stroke-linejoin:round;">
<circle cx="13.4100" cy="19.5482" r="0.2540" /> 
</g>
<g style="fill:#121212; fill-opacity:1.0000; 
stroke:#121212; stroke-width:0.0212; stroke-opacity:1; 
stroke-linecap:round; stroke-linejoin:round;">
</g>
<g style="fill:#121212; fill-opacity:1.0000; 
stroke:#121212; stroke-width:0.0000; stroke-opacity:1; 
stroke-linecap:round; stroke-linejoin:round;">
<circle cx="21.6650" cy="18.0497" r="0.3810" /> 
</g>
<g style="fill:#121212; fill-opacity:1.0000; 
stroke:#121212; stroke-width:0.0212; stroke-opacity:1; 
stroke-linecap:round; stroke-linejoin:round;">
</g>
<g style="fill:#121212; fill-opacity:1.0000; 
stroke:#121212; stroke-width:0.0000; stroke-opacity:1; 
stroke-linecap:round; stroke-linejoin:round;">
<circle cx="14.2990" cy="13.1982" r="0.2540" /> 
</g>
<g style="fill:#121212; fill-opacity:1.0000; 
stroke:#121212; stroke-width:0.0212; stroke-opacity:1; 
stroke-linecap:round; stroke-linejoin:round;">
</g>
<g >
</g>
<g style="fill:#37CBCB; fill-opacity:1.0000; 
stroke:#37CBCB; stroke-width:0.0212; stroke-opacity:1; 
stroke-linecap:round; stroke-linejoin:round;">
</g>
<g style="fill:#37CBCB; fill-opacity:1.0000; 
stroke:#37CBCB; stroke-width:0.2540; stroke-opacity:1; 
stroke-linecap:round; stroke-linejoin:round;">
</g>
<g style="fill:#37CBCB; fill-opacity:0.0; 
stroke:#37CBCB; stroke-width:0.2540; stroke-opacity:1; 
stroke-linecap:round; stroke-linejoin:round;">
<path d="M13.4100 14.7832
L13.4100 17.3972
" />
<path d="M13.8260 17.8133
L14.6800 17.8133
" />
<path d="M13.4100 17.3972
L13.8260 17.8133
" />
</g>
<g style="fill:#37CBCB; fill-opacity:0.0; 
stroke:#37CBCB; stroke-width:1.5240; stroke-opacity:1; 
stroke-linecap:round; stroke-linejoin:round;">
<path d="M22.0600 19.5233
L22.0600 18.4447
" />
</g>
<g style="fill:#37CBCB; fill-opacity:0.0; 
stroke:#37CBCB; stroke-width:0.2540; stroke-opacity:1; 
stroke-linecap:round; stroke-linejoin:round;">
<path d="M14.6800 20.0132
L13.8750 20.0132
" />
<path d="M13.8750 20.0132
L13.4100 19.5482
" />
</g>
<g style="fill:#37CBCB; fill-opacity:0.0; 
stroke:#37CBCB; stroke-width:1.5240; stroke-opacity:1; 
stroke-linecap:round; stroke-linejoin:round;">
<path d="M22.0600 18.4447
L21.6650 18.0497
" />
</g>
<g style="fill:#37CBCB; fill-opacity:0.0; 
stroke:#37CBCB; stroke-width:2.5400; stroke-opacity:1; 
stroke-linecap:round; stroke-linejoin:round;">
<path d="M15.3150 10.3483
L20.3150 10.3483
" />
<path d="M15.3150 10.3483
L15.3150 3.3482
" />
<path d="M20.3150 3.3482
L20.3150 10.3483
" />
</g>
<g style="fill:#37CBCB; fill-opacity:0.0; 
stroke:#37CBCB; stroke-width:1.5240; stroke-opacity:1; 
stroke-linecap:round; stroke-linejoin:round;">
<path d="M19.7600 13.2233
L19.7600 19.5233
" />
</g>
<g style="fill:#37CBCB; fill-opacity:0.0; 
stroke:#37CBCB; stroke-width:2.5400; stroke-opacity:1; 
stroke-linecap:round; stroke-linejoin:round;">
<path d="M19.7600 13.2233
L19.7600 10.9032
" />
<path d="M19.7600 10.9032
L20.3150 10.3483
" />
</g>
<g style="fill:#37CBCB; fill-opacity:0.0; 
stroke:#37CBCB; stroke-width:0.2540; stroke-opacity:1; 
stroke-linecap:round; stroke-linejoin:round;">
<path d="M15.3150 15.3872
L17.4600 17.5322
" />
<path d="M17.4600 18.2692
L17.4600 19.5233
" />
<path d="M15.3150 14.7832
L15.3150 15.3872
" />
<path d="M17.4600 17.5322
L17.4600 18.2692
" />
<path d="M13.4100 12.8832
L13.9840 12.8832
" />
<path d="M13.9840 12.8832
L14.0450 12.9443
" />
<path d="M14.0450 12.9443
L14.2990 13.1982
" />
<path d="M14.2990 12.9952
L14.2990 13.1982
" />
<path d="M14.4110 12.8832
L14.2990 12.9952
" />
<path d="M15.3150 12.8832
L14.4110 12.8832
" />
</g>
<g >
</g>
<g style="fill:#37CBCB; fill-opacity:0.0; 
stroke:#37CBCB; stroke-width:0.2540; stroke-opacity:1; 
stroke-linecap:round; stroke-linejoin:round;">
<g >
</g>
<g style="fill:#37CBCB; fill-opacity:1.0000; 
stroke:#37CBCB; stroke-width:0.0000; stroke-opacity:1; 
stroke-linecap:round; stroke-linejoin:round;">
<path style="fill:#37CBCB; fill-opacity:1.0000; 
stroke:#37CBCB; stroke-width:0.0000; stroke-opacity:1; 
stroke-linecap:round; stroke-linejoin:round;fill-rule:evenodd;"
d="M 14.0277,1.6538
14.0742,1.7074
14.0838,1.7578
14.8656,2.5396
14.7683,2.5958
14.6238,2.7259
14.5095,2.8832
14.5037,2.8962
13.7255,2.1180
13.5953,2.3025
13.4689,2.5464
13.3769,2.8052
13.3769,2.8052
13.3211,3.0742
13.3211,3.0742
13.3023,3.3482
13.3023,3.3483
13.3211,3.6223
13.3211,3.6223
13.3769,3.8913
13.3769,3.8913
13.4689,4.1501
13.5953,4.3940
13.5953,4.3940
13.7255,4.5785
14.5037,3.8003
14.5095,3.8133
14.6238,3.9706
14.7683,4.1007
14.8656,4.1569
14.0857,4.9367
14.0857,4.9367
14.1543,4.9926
14.1543,4.9926
14.3890,5.1353
14.6410,5.2447
14.9055,5.3188
15.1776,5.3562
15.1776,5.3563
15.4524,5.3563
15.4524,5.3562
15.7245,5.3188
15.9890,5.2447
16.2410,5.1353
16.4757,4.9926
16.5443,4.9367
16.5443,4.9367
15.7644,4.1569
15.8617,4.1007
16.0062,3.9706
16.1205,3.8133
16.1263,3.8003
16.9045,4.5785
17.0347,4.3940
17.0347,4.3940
17.1611,4.1501
17.2531,3.8913
17.2531,3.8913
17.3089,3.6223
17.3089,3.6223
17.3277,3.3483
17.3277,3.3482
17.3089,3.0742
17.3089,3.0742
17.2531,2.8052
17.2531,2.8052
17.1611,2.5464
17.0347,2.3025
17.0347,2.3025
16.9045,2.1180
16.1263,2.8962
16.1205,2.8832
16.0062,2.7259
15.8617,2.5958
15.7644,2.5396
16.5467,1.7573
16.5611,1.6971
16.6123,1.6480
16.6704,1.6338
18.9595,1.6338
19.0277,1.6538
19.0742,1.7074
19.0838,1.7578
19.8656,2.5396
19.7683,2.5958
19.6238,2.7259
19.5095,2.8832
19.5037,2.8962
18.7255,2.1180
18.5953,2.3025
18.4689,2.5464
18.3769,2.8052
18.3769,2.8052
18.3211,3.0742
18.3211,3.0742
18.3023,3.3482
18.3023,3.3483
18.3211,3.6223
18.3211,3.6223
18.3769,3.8913
18.3769,3.8913
18.4689,4.1501
18.5953,4.3940
18.5953,4.3940
18.7255,4.5785
19.5037,3.8003
19.5095,3.8133
19.6238,3.9706
19.7683,4.1007
19.8656,4.1569
19.0857,4.9367
19.0857,4.9367
19.1543,4.9926
19.1543,4.9926
19.3890,5.1353
19.6410,5.2447
19.9055,5.3188
20.1776,5.3562
20.1776,5.3563
20.4524,5.3563
20.4524,5.3562
20.7245,5.3188
20.9890,5.2447
21.2410,5.1353
21.4757,4.9926
21.5443,4.9367
21.5443,4.9367
20.7644,4.1569
20.8617,4.1007
21.0062,3.9706
21.1205,3.8133
21.1263,3.8003
21.9045,4.5785
22.0347,4.3940
22.0347,4.3940
22.1611,4.1501
22.2531,3.8913
22.2531,3.8913
22.3089,3.6223
22.3089,3.6223
22.3277,3.3483
22.3277,3.3482
22.3089,3.0742
22.3089,3.0742
22.2531,2.8052
22.2531,2.8052
22.1611,2.5464
22.0347,2.3025
22.0347,2.3025
21.9045,2.1180
21.1263,2.8962
21.1205,2.8832
21.0062,2.7259
20.8617,2.5958
20.7644,2.5396
21.5467,1.7573
21.5611,1.6971
21.6123,1.6480
21.6704,1.6338
23.4440,1.6338
23.5121,1.6538
23.5586,1.7074
23.5700,1.7597
23.5700,18.2230
23.5500,18.2911
23.4963,18.3376
23.4261,18.3477
23.3615,18.3182
23.3231,18.2585
23.3213,18.2506
23.3213,18.2506
23.3188,18.2408
23.3155,18.2213
23.3151,18.2169
23.3151,18.2169
23.3148,18.2156
23.2885,18.1204
23.2640,18.0233
23.2630,18.0210
23.2622,18.0193
23.2555,18.0007
23.2543,17.9964
23.2410,17.9688
23.2109,17.9063
23.1695,17.8151
23.1695,17.8151
23.1669,17.8115
23.1570,17.7944
23.1551,17.7904
23.0962,17.7094
23.0392,17.6271
23.0392,17.6271
23.0392,17.6271
23.0361,17.6240
23.0233,17.6090
23.0206,17.6054
23.0206,17.6054
22.9483,17.5362
22.5230,17.1109
22.5222,17.1102
22.4318,17.0347
22.3915,17.0011
22.3915,17.0011
22.1925,16.8882
22.0449,16.8366
21.9767,16.8127
21.7508,16.7769
21.7508,16.7769
21.5222,16.7820
21.5222,16.7820
21.2981,16.8279
21.1580,16.8841
21.0859,16.9131
20.9220,17.0160
20.8922,17.0347
20.7234,17.1890
20.5849,17.3710
20.4811,17.5747
20.4811,17.5747
20.4811,17.5747
20.4153,17.7938
20.4029,17.9034
20.3754,17.9688
20.3169,18.0090
20.2777,18.0152
20.0140,18.0152
20.0140,19.6512
19.9940,19.7194
19.9403,19.7659
19.8880,19.7772
19.6320,19.7772
19.5639,19.7572
19.5174,19.7036
19.5060,19.6512
19.5060,18.0152
18.9614,18.0152
18.9009,18.0218
18.7640,18.0728
18.6859,18.1313
18.6194,18.1561
18.5500,18.1410
18.5349,18.1313
18.4562,18.0724
18.4562,18.0724
18.3192,18.0213
18.3192,18.0213
18.2586,18.0147
18.2586,18.0147
18.2215,18.0147
18.1534,17.9947
18.1069,17.9411
18.0955,17.8887
18.0955,17.6163
18.0973,17.6005
18.0970,17.6004
18.0977,17.5925
18.0955,17.5223
18.0955,17.4923
18.0955,17.4923
18.0946,17.4853
18.0942,17.4794
18.0927,17.4320
18.0870,17.4125
18.0830,17.3931
18.0804,17.3730
18.0630,17.3289
18.0611,17.3233
18.0479,17.2779
18.0375,17.2603
18.0288,17.2426
18.0213,17.2237
17.9935,17.1854
17.9902,17.1804
17.9661,17.1397
17.9661,17.1396
17.9517,17.1253
17.9389,17.1102
17.9269,17.0938
17.8905,17.0636
17.8861,17.0596
16.4032,15.5767
16.3692,15.5144
16.3742,15.4436
16.3914,15.4121
16.4159,15.3795
16.4670,15.2425
16.4735,15.1819
16.4735,14.3846
16.4679,14.3323
16.4670,14.3241
16.4670,14.3240
16.4159,14.1870
16.4159,14.1870
16.3283,14.0700
16.2112,13.9824
16.2112,13.9824
16.1279,13.9513
16.0711,13.9088
16.0463,13.8422
16.0614,13.7729
16.1116,13.7227
16.1279,13.7152
16.1559,13.7048
16.2112,13.6841
16.3283,13.5965
16.3283,13.5965
16.4159,13.4795
16.4159,13.4795
16.4159,13.4795
16.4167,13.4772
17.3520,13.4772
17.3520,14.2718
17.3585,14.3323
17.4096,14.4692
17.4096,14.4692
17.4971,14.5862
17.6140,14.6737
17.7509,14.7247
17.8114,14.7312
17.8114,14.7312
19.5060,14.7312
19.5060,13.4772
20.0140,13.4772
20.0140,14.7312
21.7086,14.7312
21.7086,14.7312
21.7691,14.7247
21.9060,14.6737
21.9060,14.6737
22.0229,14.5862
22.1104,14.4692
22.1104,14.4692
22.1615,14.3323
22.1680,14.2718
22.1680,14.2718
22.1680,13.4772
20.0140,13.4772
19.5060,13.4772
17.3520,13.4772
16.4167,13.4772
16.4670,13.3425
16.4735,13.2819
16.4735,12.9692
17.3520,12.9692
22.1680,12.9692
22.1680,12.1747
22.1680,12.1747
22.1615,12.1142
22.1104,11.9773
22.1104,11.9773
22.0229,11.8603
21.9133,11.7783
21.8708,11.7215
21.8657,11.6507
21.8859,11.6048
22.0347,11.3940
22.0347,11.3940
22.1611,11.1501
22.2531,10.8913
22.2531,10.8913
22.3089,10.6223
22.3089,10.6223
22.3277,10.3483
22.3277,10.3482
22.3089,10.0742
22.3089,10.0742
22.2531,9.8052
22.2531,9.8052
22.1611,9.5464
22.0347,9.3025
22.0347,9.3025
21.9045,9.1180
21.1263,9.8962
21.1205,9.8832
21.0062,9.7259
20.8617,9.5958
20.7644,9.5396
21.5443,8.7598
21.4757,8.7039
21.2410,8.5612
20.9890,8.4518
20.7245,8.3777
20.4524,8.3402
20.1776,8.3402
19.9055,8.3777
19.6410,8.4518
19.3890,8.5612
19.1543,8.7039
19.0857,8.7598
19.0857,8.7598
19.8656,9.5396
19.7683,9.5958
19.6238,9.7259
19.5095,9.8832
19.5037,9.8962
18.7255,9.1180
18.5953,9.3025
18.4689,9.5464
18.3769,9.8052
18.3769,9.8052
18.3211,10.0742
18.3211,10.0742
18.3023,10.3482
18.3023,10.3483
18.3211,10.6223
18.3211,10.6223
18.3769,10.8913
18.3769,10.8913
18.4689,11.1501
18.5953,11.3940
18.5953,11.3940
18.6818,11.5166
18.7048,11.5838
18.6878,11.6527
18.6362,11.7015
18.5789,11.7152
17.8114,11.7152
17.7509,11.7218
17.6140,11.7728
17.6140,11.7728
17.4971,11.8603
17.4096,11.9773
17.4096,11.9773
17.3585,12.1142
17.3520,12.1747
17.3520,12.9692
16.4735,12.9692
16.4735,12.4846
16.4735,12.4846
16.4670,12.4241
16.4670,12.4240
16.4159,12.2870
16.4159,12.2870
16.4159,12.2870
16.3663,12.2207
16.3414,12.1542
16.3565,12.0848
16.4017,12.0376
16.4757,11.9926
16.5443,11.9367
16.5443,11.9367
15.7644,11.1569
15.8617,11.1007
16.0062,10.9706
16.1205,10.8133
16.1263,10.8003
16.9045,11.5785
17.0347,11.3940
17.0347,11.3940
17.1611,11.1501
17.2531,10.8913
17.2531,10.8913
17.3089,10.6223
17.3089,10.6223
17.3277,10.3483
17.3277,10.3482
17.3089,10.0742
17.3089,10.0742
17.2531,9.8052
17.2531,9.8052
17.1611,9.5464
17.0347,9.3025
17.0347,9.3025
16.9045,9.1180
16.1263,9.8962
16.1205,9.8832
16.0062,9.7259
15.8617,9.5958
15.7644,9.5396
16.5443,8.7598
16.4757,8.7039
16.2410,8.5612
15.9890,8.4518
15.7245,8.3777
15.4524,8.3402
15.1776,8.3402
14.9055,8.3777
14.6410,8.4518
14.3890,8.5612
14.1543,8.7039
14.0857,8.7598
14.0857,8.7598
14.8656,9.5396
14.7683,9.5958
14.6238,9.7259
14.5095,9.8832
14.5037,9.8962
13.7255,9.1180
13.5953,9.3025
13.4689,9.5464
13.3769,9.8052
13.3769,9.8052
13.3211,10.0742
13.3211,10.0742
13.3023,10.3482
13.3023,10.3483
13.3211,10.6223
13.3211,10.6223
13.3769,10.8913
13.3769,10.8913
13.4689,11.1501
13.5953,11.3940
13.5953,11.3940
13.7255,11.5785
14.5037,10.8003
14.5095,10.8133
14.6238,10.9706
14.7683,11.1007
14.8656,11.1569
14.0688,11.9537
14.0669,11.9614
14.0157,12.0105
13.9576,12.0247
12.7113,12.0247
12.6508,12.0313
12.6508,12.0313
12.5138,12.0824
12.5138,12.0824
12.3967,12.1700
12.3669,12.2099
12.3100,12.2524
12.2392,12.2575
12.1769,12.2235
12.1429,12.1612
12.1400,12.1344
12.1400,1.7597
12.1600,1.6916
12.2137,1.6451
12.2660,1.6338
13.9595,1.6338
Z" /> 
</g>
</g>
</g>
<g style="fill:#000000; fill-opacity:1.0000; 
stroke:#000000; stroke-width:0.0000; stroke-opacity:1; 
stroke-linecap:round; stroke-linejoin:round;">
<circle cx="13.4100" cy="19.5482" r="0.1270" /> 
</g>
<g style="fill:#000000; fill-opacity:1.0000; 
stroke:#000000; stroke-width:0.0212; stroke-opacity:1; 
stroke-linecap:round; stroke-linejoin:round;">
</g>
<g style="fill:#000000; fill-opacity:1.0000; 
stroke:#000000; stroke-width:0.0000; stroke-opacity:1; 
stroke-linecap:round; stroke-linejoin:round;">
<circle cx="21.6650" cy="18.0497" r="0.1905" /> 
</g>
<g style="fill:#000000; fill-opacity:1.0000; 
stroke:#000000; stroke-width:0.0212; stroke-opacity:1; 
stroke-linecap:round; stroke-linejoin:round;">
</g>
<g style="fill:#000000; fill-opacity:1.0000; 
stroke:#000000; stroke-width:0.0000; stroke-opacity:1; 
stroke-linecap:round; stroke-linejoin:round;">
<circle cx="14.2990" cy="13.1982" r="0.1270" /> 
</g>
<g style="fill:#000000; fill-opacity:1.0000; 
stroke:#000000; stroke-width:0.0212; stroke-opacity:1; 
stroke-linecap:round; stroke-linejoin:round;">
</g>
<g style="fill:#000000; fill-opacity:1.0000; 
stroke:#000000; stroke-width:0.0000; stroke-opacity:1; 
stroke-linecap:round; stroke-linejoin:round;">
<circle cx="15.3150" cy="3.3482" r="0.9250" /> 
</g>
<g style="fill:#000000; fill-opacity:1.0000; 
stroke:#000000; stroke-width:0.0212; stroke-opacity:1; 
stroke-linecap:round; stroke-linejoin:round;">
</g>
<g style="fill:#000000; fill-opacity:1.0000; 
stroke:#000000; stroke-width:0.0000; stroke-opacity:1; 
stroke-linecap:round; stroke-linejoin:round;">
<circle cx="15.3150" cy="10.3483" r="0.9250" /> 
</g>
<g style="fill:#000000; fill-opacity:1.0000; 
stroke:#000000; stroke-width:0.0212; stroke-opacity:1; 
stroke-linecap:round; stroke-linejoin:round;">
</g>
<g style="fill:#000000; fill-opacity:1.0000; 
stroke:#000000; stroke-width:0.0000; stroke-opacity:1; 
stroke-linecap:round; stroke-linejoin:round;">
<circle cx="20.3150" cy="3.3482" r="0.9250" /> 
</g>
<g style="fill:#000000; fill-opacity:1.0000; 
stroke:#000000; stroke-width:0.0212; stroke-opacity:1; 
stroke-linecap:round; stroke-linejoin:round;">
</g>
<g style="fill:#000000; fill-opacity:1.0000; 
stroke:#000000; stroke-width:0.0000; stroke-opacity:1; 
stroke-linecap:round; stroke-linejoin:round;">
<circle cx="20.3150" cy="10.3483" r="0.9250" /> 
</g>
<g style="fill:#000000; fill-opacity:1.0000; 
stroke:#000000; stroke-width:0.0212; stroke-opacity:1; 
stroke-linecap:round; stroke-linejoin:round;">
</g>
<g style="fill:#FFFFFF; fill-opacity:1.0000; 
stroke:#FFFFFF; stroke-width:0.0212; stroke-opacity:1; 
stroke-linecap:round; stroke-linejoin:round;">
</g>
<g style="fill:#2F2D31; fill-opacity:1.0000; 
stroke:#2F2D31; stroke-width:0.0212; stroke-opacity:1; 
stroke-linecap:round; stroke-linejoin:round;">
</g>
<g style="fill:#2F2D31; fill-opacity:1.0000; 
stroke:#2F2D31; stroke-width:0.1500; stroke-opacity:1; 
stroke-linecap:round; stroke-linejoin:round;">
</g>
<g style="fill:#2F2D31; fill-opacity:0.0; 
stroke:#2F2D31; stroke-width:0.1500; stroke-opacity:1; 
stroke-linecap:round; stroke-linejoin:round;">
<path d="M23.5700 21.4533
L12.1400 21.4533
" />
<path d="M12.1400 1.1332
L23.5700 1.1332
" />
<g >
</g>
<g >
</g>
<g >
</g>
<g >
</g>
<g >
</g>
<g >
</g>
<g >
</g>
<g >
</g>
<g >
</g>
<g >
</g>
</g> 
</svg>
