<?xml version="1.0" standalone="no"?>
 <!DOCTYPE svg PUBLIC "-//W3C//DTD SVG 1.1//EN" 
 "http://www.w3.org/Graphics/SVG/1.1/DTD/svg11.dtd"> 
<svg
  xmlns:svg="http://www.w3.org/2000/svg"
  xmlns="http://www.w3.org/2000/svg"
  xmlns:xlink="http://www.w3.org/1999/xlink"
  version="1.1"
  width="35.6870mm" height="28.2448mm" viewBox="0.0000 0.0000 35.6870 28.2448">
<title>SVG Image created as working-brd.svg date 2023/09/28 17:13:43 </title>
  <desc>Image generated by PCBNEW </desc>
<g style="fill:#000000; fill-opacity:1.0000;stroke:#000000; stroke-opacity:1.0000;
stroke-linecap:round; stroke-linejoin:round;"
 transform="translate(0 0) scale(1 1)">
</g>
<g style="fill:#000000; fill-opacity:0.0; 
stroke:#000000; stroke-width:0.0000; stroke-opacity:1; 
stroke-linecap:round; stroke-linejoin:round;">
</g>
<g style="fill:#000000; fill-opacity:1.0000; 
stroke:#000000; stroke-width:0.0212; stroke-opacity:1; 
stroke-linecap:round; stroke-linejoin:round;">
<rect x="-5.000000" y="-5.000000" width="45.710000" height="38.252536" rx="0.000000" />
</g>
<g style="fill:#FFFFFF; fill-opacity:1.0000; 
stroke:#FFFFFF; stroke-width:0.0212; stroke-opacity:1; 
stroke-linecap:round; stroke-linejoin:round;">
<g >
</g>
<g style="fill:#B2803A; fill-opacity:1.0000; 
stroke:#B2803A; stroke-width:0.0212; stroke-opacity:1; 
stroke-linecap:round; stroke-linejoin:round;">
</g>
<g style="fill:#B2803A; fill-opacity:1.0000; 
stroke:#B2803A; stroke-width:0.0000; stroke-opacity:1; 
stroke-linecap:round; stroke-linejoin:round;">
<path style="fill:#B2803A; fill-opacity:1.0000; 
stroke:#B2803A; stroke-width:0.0000; stroke-opacity:1; 
stroke-linecap:round; stroke-linejoin:round;fill-rule:evenodd;"
d="M 11.5050,7.4832
11.5050,4.9432
12.7750,4.9432
12.7750,7.4832
Z" /> 
<path style="fill:#B2803A; fill-opacity:1.0000; 
stroke:#B2803A; stroke-width:0.0000; stroke-opacity:1; 
stroke-linecap:round; stroke-linejoin:round;fill-rule:evenodd;"
d="M 11.5050,20.8182
11.5050,18.2782
12.7750,18.2782
12.7750,20.8182
Z" /> 
<path style="fill:#B2803A; fill-opacity:1.0000; 
stroke:#B2803A; stroke-width:0.0000; stroke-opacity:1; 
stroke-linecap:round; stroke-linejoin:round;fill-rule:evenodd;"
d="M 11.5050,8.4357
11.5050,7.8007
12.7750,7.8007
12.7750,8.4357
Z" /> 
<path style="fill:#B2803A; fill-opacity:1.0000; 
stroke:#B2803A; stroke-width:0.0000; stroke-opacity:1; 
stroke-linecap:round; stroke-linejoin:round;fill-rule:evenodd;"
d="M 11.5050,12.2457
11.5050,11.6107
12.7750,11.6107
12.7750,12.2457
Z" /> 
<path style="fill:#B2803A; fill-opacity:1.0000; 
stroke:#B2803A; stroke-width:0.0000; stroke-opacity:1; 
stroke-linecap:round; stroke-linejoin:round;fill-rule:evenodd;"
d="M 11.5050,13.3506
11.5050,13.0458
12.7750,13.0458
12.7750,13.3506
Z" /> 
<path style="fill:#B2803A; fill-opacity:1.0000; 
stroke:#B2803A; stroke-width:0.0000; stroke-opacity:1; 
stroke-linecap:round; stroke-linejoin:round;fill-rule:evenodd;"
d="M 11.5050,13.9856
11.5050,13.6808
12.7750,13.6808
12.7750,13.9856
Z" /> 
<path style="fill:#B2803A; fill-opacity:1.0000; 
stroke:#B2803A; stroke-width:0.0000; stroke-opacity:1; 
stroke-linecap:round; stroke-linejoin:round;fill-rule:evenodd;"
d="M 11.5050,14.6206
11.5050,14.3158
12.7750,14.3158
12.7750,14.6206
Z" /> 
<path style="fill:#B2803A; fill-opacity:1.0000; 
stroke:#B2803A; stroke-width:0.0000; stroke-opacity:1; 
stroke-linecap:round; stroke-linejoin:round;fill-rule:evenodd;"
d="M 11.5050,15.2556
11.5050,14.9508
12.7750,14.9508
12.7750,15.2556
Z" /> 
<path style="fill:#B2803A; fill-opacity:1.0000; 
stroke:#B2803A; stroke-width:0.0000; stroke-opacity:1; 
stroke-linecap:round; stroke-linejoin:round;fill-rule:evenodd;"
d="M 11.5050,15.8906
11.5050,15.5858
12.7750,15.5858
12.7750,15.8906
Z" /> 
<path style="fill:#B2803A; fill-opacity:1.0000; 
stroke:#B2803A; stroke-width:0.0000; stroke-opacity:1; 
stroke-linecap:round; stroke-linejoin:round;fill-rule:evenodd;"
d="M 11.5050,16.5256
11.5050,16.2208
12.7750,16.2208
12.7750,16.5256
Z" /> 
<path style="fill:#B2803A; fill-opacity:1.0000; 
stroke:#B2803A; stroke-width:0.0000; stroke-opacity:1; 
stroke-linecap:round; stroke-linejoin:round;fill-rule:evenodd;"
d="M 11.5050,17.1607
11.5050,16.8559
12.7750,16.8559
12.7750,17.1607
Z" /> 
<path style="fill:#B2803A; fill-opacity:1.0000; 
stroke:#B2803A; stroke-width:0.0000; stroke-opacity:1; 
stroke-linecap:round; stroke-linejoin:round;fill-rule:evenodd;"
d="M 11.5050,17.7956
11.5050,17.4908
12.7750,17.4908
12.7750,17.7956
Z" /> 
</g>
<g >
</g>
<g style="fill:#B2803A; fill-opacity:1.0000; 
stroke:#B2803A; stroke-width:0.0000; stroke-opacity:1; 
stroke-linecap:round; stroke-linejoin:round;">
<path style="fill:#B2803A; fill-opacity:1.0000; 
stroke:#B2803A; stroke-width:0.0000; stroke-opacity:1; 
stroke-linecap:round; stroke-linejoin:round;fill-rule:evenodd;"
d="M 22.9350,7.4832
22.9350,4.9432
24.2050,4.9432
24.2050,7.4832
Z" /> 
<path style="fill:#B2803A; fill-opacity:1.0000; 
stroke:#B2803A; stroke-width:0.0000; stroke-opacity:1; 
stroke-linecap:round; stroke-linejoin:round;fill-rule:evenodd;"
d="M 22.9350,20.8182
22.9350,18.2782
24.2050,18.2782
24.2050,20.8182
Z" /> 
<path style="fill:#B2803A; fill-opacity:1.0000; 
stroke:#B2803A; stroke-width:0.0000; stroke-opacity:1; 
stroke-linecap:round; stroke-linejoin:round;fill-rule:evenodd;"
d="M 22.9350,8.4357
22.9350,7.8007
24.2050,7.8007
24.2050,8.4357
Z" /> 
<path style="fill:#B2803A; fill-opacity:1.0000; 
stroke:#B2803A; stroke-width:0.0000; stroke-opacity:1; 
stroke-linecap:round; stroke-linejoin:round;fill-rule:evenodd;"
d="M 22.9350,12.2457
22.9350,11.6107
24.2050,11.6107
24.2050,12.2457
Z" /> 
<path style="fill:#B2803A; fill-opacity:1.0000; 
stroke:#B2803A; stroke-width:0.0000; stroke-opacity:1; 
stroke-linecap:round; stroke-linejoin:round;fill-rule:evenodd;"
d="M 22.9350,13.3506
22.9350,13.0458
24.2050,13.0458
24.2050,13.3506
Z" /> 
<path style="fill:#B2803A; fill-opacity:1.0000; 
stroke:#B2803A; stroke-width:0.0000; stroke-opacity:1; 
stroke-linecap:round; stroke-linejoin:round;fill-rule:evenodd;"
d="M 22.9350,13.9856
22.9350,13.6808
24.2050,13.6808
24.2050,13.9856
Z" /> 
<path style="fill:#B2803A; fill-opacity:1.0000; 
stroke:#B2803A; stroke-width:0.0000; stroke-opacity:1; 
stroke-linecap:round; stroke-linejoin:round;fill-rule:evenodd;"
d="M 22.9350,14.6206
22.9350,14.3158
24.2050,14.3158
24.2050,14.6206
Z" /> 
<path style="fill:#B2803A; fill-opacity:1.0000; 
stroke:#B2803A; stroke-width:0.0000; stroke-opacity:1; 
stroke-linecap:round; stroke-linejoin:round;fill-rule:evenodd;"
d="M 22.9350,15.2556
22.9350,14.9508
24.2050,14.9508
24.2050,15.2556
Z" /> 
<path style="fill:#B2803A; fill-opacity:1.0000; 
stroke:#B2803A; stroke-width:0.0000; stroke-opacity:1; 
stroke-linecap:round; stroke-linejoin:round;fill-rule:evenodd;"
d="M 22.9350,15.8906
22.9350,15.5858
24.2050,15.5858
24.2050,15.8906
Z" /> 
<path style="fill:#B2803A; fill-opacity:1.0000; 
stroke:#B2803A; stroke-width:0.0000; stroke-opacity:1; 
stroke-linecap:round; stroke-linejoin:round;fill-rule:evenodd;"
d="M 22.9350,16.5256
22.9350,16.2208
24.2050,16.2208
24.2050,16.5256
Z" /> 
<path style="fill:#B2803A; fill-opacity:1.0000; 
stroke:#B2803A; stroke-width:0.0000; stroke-opacity:1; 
stroke-linecap:round; stroke-linejoin:round;fill-rule:evenodd;"
d="M 22.9350,17.1607
22.9350,16.8559
24.2050,16.8559
24.2050,17.1607
Z" /> 
<path style="fill:#B2803A; fill-opacity:1.0000; 
stroke:#B2803A; stroke-width:0.0000; stroke-opacity:1; 
stroke-linecap:round; stroke-linejoin:round;fill-rule:evenodd;"
d="M 22.9350,17.7956
22.9350,17.4908
24.2050,17.4908
24.2050,17.7956
Z" /> 
</g>
<g >
</g>
<g style="fill:#B2803A; fill-opacity:1.0000; 
stroke:#B2803A; stroke-width:0.0000; stroke-opacity:1; 
stroke-linecap:round; stroke-linejoin:round;">
<circle cx="15.3150" cy="3.3482" r="1.5000" /> 
</g>
<g style="fill:#B2803A; fill-opacity:1.0000; 
stroke:#B2803A; stroke-width:0.0212; stroke-opacity:1; 
stroke-linecap:round; stroke-linejoin:round;">
</g>
<g style="fill:#B2803A; fill-opacity:1.0000; 
stroke:#B2803A; stroke-width:0.0000; stroke-opacity:1; 
stroke-linecap:round; stroke-linejoin:round;">
<circle cx="15.3150" cy="10.3483" r="1.5000" /> 
</g>
<g style="fill:#B2803A; fill-opacity:1.0000; 
stroke:#B2803A; stroke-width:0.0212; stroke-opacity:1; 
stroke-linecap:round; stroke-linejoin:round;">
</g>
<g style="fill:#B2803A; fill-opacity:1.0000; 
stroke:#B2803A; stroke-width:0.0000; stroke-opacity:1; 
stroke-linecap:round; stroke-linejoin:round;">
<circle cx="20.3150" cy="3.3482" r="1.5000" /> 
</g>
<g style="fill:#B2803A; fill-opacity:1.0000; 
stroke:#B2803A; stroke-width:0.0212; stroke-opacity:1; 
stroke-linecap:round; stroke-linejoin:round;">
</g>
<g style="fill:#B2803A; fill-opacity:1.0000; 
stroke:#B2803A; stroke-width:0.0000; stroke-opacity:1; 
stroke-linecap:round; stroke-linejoin:round;">
<circle cx="20.3150" cy="10.3483" r="1.5000" /> 
</g>
<g style="fill:#B2803A; fill-opacity:1.0000; 
stroke:#B2803A; stroke-width:0.0212; stroke-opacity:1; 
stroke-linecap:round; stroke-linejoin:round;">
</g>
<g >
</g>
<g >
</g>
<g >
</g>
<g >
</g>
<g >
</g>
<g style="fill:#121212; fill-opacity:1.0000; 
stroke:#121212; stroke-width:0.0212; stroke-opacity:1; 
stroke-linecap:round; stroke-linejoin:round;">
</g>
<g style="fill:#121212; fill-opacity:1.0000; 
stroke:#121212; stroke-width:0.0000; stroke-opacity:1; 
stroke-linecap:round; stroke-linejoin:round;">
<circle cx="13.4100" cy="19.5482" r="0.2540" /> 
</g>
<g style="fill:#121212; fill-opacity:1.0000; 
stroke:#121212; stroke-width:0.0212; stroke-opacity:1; 
stroke-linecap:round; stroke-linejoin:round;">
</g>
<g style="fill:#121212; fill-opacity:1.0000; 
stroke:#121212; stroke-width:0.0000; stroke-opacity:1; 
stroke-linecap:round; stroke-linejoin:round;">
<circle cx="21.6650" cy="18.0497" r="0.3810" /> 
</g>
<g style="fill:#121212; fill-opacity:1.0000; 
stroke:#121212; stroke-width:0.0212; stroke-opacity:1; 
stroke-linecap:round; stroke-linejoin:round;">
</g>
<g style="fill:#121212; fill-opacity:1.0000; 
stroke:#121212; stroke-width:0.0000; stroke-opacity:1; 
stroke-linecap:round; stroke-linejoin:round;">
<circle cx="14.2990" cy="13.1982" r="0.2540" /> 
</g>
<g style="fill:#121212; fill-opacity:1.0000; 
stroke:#121212; stroke-width:0.0212; stroke-opacity:1; 
stroke-linecap:round; stroke-linejoin:round;">
</g>
<g >
</g>
<g style="fill:#B2803A; fill-opacity:1.0000; 
stroke:#B2803A; stroke-width:0.0212; stroke-opacity:1; 
stroke-linecap:round; stroke-linejoin:round;">
</g>
<g style="fill:#B2803A; fill-opacity:1.0000; 
stroke:#B2803A; stroke-width:0.2540; stroke-opacity:1; 
stroke-linecap:round; stroke-linejoin:round;">
</g>
<g style="fill:#B2803A; fill-opacity:0.0; 
stroke:#B2803A; stroke-width:0.2540; stroke-opacity:1; 
stroke-linecap:round; stroke-linejoin:round;">
<path d="M22.6810 13.1982
L23.5700 13.1982
" />
<path d="M12.1400 13.8332
L15.3150 13.8332
" />
<path d="M15.9500 13.1982
L22.6810 13.1982
" />
<path d="M15.3150 13.8332
L15.9500 13.1982
" />
<path d="M23.5700 13.8332
L16.5850 13.8332
" />
<path d="M16.5850 13.8332
L15.9500 14.4682
" />
<path d="M15.9500 14.4682
L12.1400 14.4682
" />
<path d="M16.5850 15.1032
L17.2200 14.4682
" />
<path d="M17.2200 14.4682
L23.5700 14.4682
" />
<path d="M12.1400 15.1032
L16.5850 15.1032
" />
<path d="M17.2200 15.7382
L12.1400 15.7382
" />
<path d="M23.5700 15.1032
L17.8550 15.1032
" />
<path d="M17.8550 15.1032
L17.2200 15.7382
" />
<path d="M12.1400 16.3732
L17.8550 16.3732
" />
<path d="M18.4900 15.7382
L23.5700 15.7382
" />
<path d="M17.8550 16.3732
L18.4900 15.7382
" />
<path d="M18.4900 17.0083
L12.1400 17.0083
" />
<path d="M19.1250 16.3732
L18.4900 17.0083
" />
<path d="M23.5700 16.3732
L19.1250 16.3732
" />
</g>
<g style="fill:#B2803A; fill-opacity:0.0; 
stroke:#B2803A; stroke-width:1.5240; stroke-opacity:1; 
stroke-linecap:round; stroke-linejoin:round;">
<path d="M23.5700 19.5482
L23.1636 19.5482
" />
<path d="M23.1636 19.5482
L21.6650 18.0497
" />
</g>
<g style="fill:#B2803A; fill-opacity:0.0; 
stroke:#B2803A; stroke-width:2.5400; stroke-opacity:1; 
stroke-linecap:round; stroke-linejoin:round;">
<path d="M13.4100 19.5482
L12.1400 19.5482
" />
<path d="M23.5700 19.5482
L13.4100 19.5482
" />
</g>
<g style="fill:#B2803A; fill-opacity:0.0; 
stroke:#B2803A; stroke-width:0.2540; stroke-opacity:1; 
stroke-linecap:round; stroke-linejoin:round;">
<path d="M12.1400 13.1982
L12.7750 13.1982
" />
<path d="M12.1400 13.1982
L14.2990 13.1982
" />
</g>
<g style="fill:#B2803A; fill-opacity:0.0; 
stroke:#B2803A; stroke-width:2.5400; stroke-opacity:1; 
stroke-linecap:round; stroke-linejoin:round;">
<path d="M23.5700 6.2132
L23.5126 6.2707
" />
<path d="M12.1974 6.2707
L12.1400 6.2132
" />
<path d="M23.5126 6.2707
L12.1974 6.2707
" />
</g>
<g style="fill:#B2803A; fill-opacity:0.0; 
stroke:#B2803A; stroke-width:0.5080; stroke-opacity:1; 
stroke-linecap:round; stroke-linejoin:round;">
<path d="M12.1400 8.1182
L23.5700 8.1182
" />
</g>
<g style="fill:#B2803A; fill-opacity:0.0; 
stroke:#B2803A; stroke-width:0.6350; stroke-opacity:1; 
stroke-linecap:round; stroke-linejoin:round;">
<path d="M22.3000 11.9283
L23.5700 11.9283
" />
<path d="M14.3694 12.3182
L21.9101 12.3182
" />
<path d="M13.9795 11.9283
L14.3694 12.3182
" />
<path d="M21.9101 12.3182
L22.3000 11.9283
" />
<path d="M12.1400 11.9283
L13.9795 11.9283
" />
</g>
<g style="fill:#B2803A; fill-opacity:0.0; 
stroke:#B2803A; stroke-width:0.2540; stroke-opacity:1; 
stroke-linecap:round; stroke-linejoin:round;">
<path d="M19.7600 17.0083
L22.3965 17.0083
" />
<path d="M12.1400 17.6432
L19.1250 17.6432
" />
<path d="M22.3965 17.0083
L23.5700 17.0083
" />
<path d="M19.1250 17.6432
L19.7600 17.0083
" />
</g>
<g >
</g>
</g>
<g style="fill:#000000; fill-opacity:0.0; 
stroke:#000000; stroke-width:0.2540; stroke-opacity:1; 
stroke-linecap:round; stroke-linejoin:round;">
</g>
<g style="fill:#000000; fill-opacity:1.0000; 
stroke:#000000; stroke-width:0.0000; stroke-opacity:1; 
stroke-linecap:round; stroke-linejoin:round;">
<circle cx="13.4100" cy="19.5482" r="0.1270" /> 
</g>
<g style="fill:#000000; fill-opacity:1.0000; 
stroke:#000000; stroke-width:0.0212; stroke-opacity:1; 
stroke-linecap:round; stroke-linejoin:round;">
</g>
<g style="fill:#000000; fill-opacity:1.0000; 
stroke:#000000; stroke-width:0.0000; stroke-opacity:1; 
stroke-linecap:round; stroke-linejoin:round;">
<circle cx="21.6650" cy="18.0497" r="0.1905" /> 
</g>
<g style="fill:#000000; fill-opacity:1.0000; 
stroke:#000000; stroke-width:0.0212; stroke-opacity:1; 
stroke-linecap:round; stroke-linejoin:round;">
</g>
<g style="fill:#000000; fill-opacity:1.0000; 
stroke:#000000; stroke-width:0.0000; stroke-opacity:1; 
stroke-linecap:round; stroke-linejoin:round;">
<circle cx="14.2990" cy="13.1982" r="0.1270" /> 
</g>
<g style="fill:#000000; fill-opacity:1.0000; 
stroke:#000000; stroke-width:0.0212; stroke-opacity:1; 
stroke-linecap:round; stroke-linejoin:round;">
</g>
<g style="fill:#000000; fill-opacity:1.0000; 
stroke:#000000; stroke-width:0.0000; stroke-opacity:1; 
stroke-linecap:round; stroke-linejoin:round;">
<circle cx="15.3150" cy="3.3482" r="0.9250" /> 
</g>
<g style="fill:#000000; fill-opacity:1.0000; 
stroke:#000000; stroke-width:0.0212; stroke-opacity:1; 
stroke-linecap:round; stroke-linejoin:round;">
</g>
<g style="fill:#000000; fill-opacity:1.0000; 
stroke:#000000; stroke-width:0.0000; stroke-opacity:1; 
stroke-linecap:round; stroke-linejoin:round;">
<circle cx="15.3150" cy="10.3483" r="0.9250" /> 
</g>
<g style="fill:#000000; fill-opacity:1.0000; 
stroke:#000000; stroke-width:0.0212; stroke-opacity:1; 
stroke-linecap:round; stroke-linejoin:round;">
</g>
<g style="fill:#000000; fill-opacity:1.0000; 
stroke:#000000; stroke-width:0.0000; stroke-opacity:1; 
stroke-linecap:round; stroke-linejoin:round;">
<circle cx="20.3150" cy="3.3482" r="0.9250" /> 
</g>
<g style="fill:#000000; fill-opacity:1.0000; 
stroke:#000000; stroke-width:0.0212; stroke-opacity:1; 
stroke-linecap:round; stroke-linejoin:round;">
</g>
<g style="fill:#000000; fill-opacity:1.0000; 
stroke:#000000; stroke-width:0.0000; stroke-opacity:1; 
stroke-linecap:round; stroke-linejoin:round;">
<circle cx="20.3150" cy="10.3483" r="0.9250" /> 
</g>
<g style="fill:#000000; fill-opacity:1.0000; 
stroke:#000000; stroke-width:0.0212; stroke-opacity:1; 
stroke-linecap:round; stroke-linejoin:round;">
</g>
<g style="fill:#FFFFFF; fill-opacity:1.0000; 
stroke:#FFFFFF; stroke-width:0.0212; stroke-opacity:1; 
stroke-linecap:round; stroke-linejoin:round;">
<g >
</g>
<g >
</g>
<g >
</g>
<g style="fill:#37CBCB; fill-opacity:1.0000; 
stroke:#37CBCB; stroke-width:0.0212; stroke-opacity:1; 
stroke-linecap:round; stroke-linejoin:round;">
</g>
<g style="fill:#37CBCB; fill-opacity:1.0000; 
stroke:#37CBCB; stroke-width:0.0000; stroke-opacity:1; 
stroke-linecap:round; stroke-linejoin:round;">
<circle cx="15.3150" cy="3.3482" r="1.5000" /> 
</g>
<g style="fill:#37CBCB; fill-opacity:1.0000; 
stroke:#37CBCB; stroke-width:0.0212; stroke-opacity:1; 
stroke-linecap:round; stroke-linejoin:round;">
</g>
<g style="fill:#37CBCB; fill-opacity:1.0000; 
stroke:#37CBCB; stroke-width:0.0000; stroke-opacity:1; 
stroke-linecap:round; stroke-linejoin:round;">
<circle cx="15.3150" cy="10.3483" r="1.5000" /> 
</g>
<g style="fill:#37CBCB; fill-opacity:1.0000; 
stroke:#37CBCB; stroke-width:0.0212; stroke-opacity:1; 
stroke-linecap:round; stroke-linejoin:round;">
</g>
<g style="fill:#37CBCB; fill-opacity:1.0000; 
stroke:#37CBCB; stroke-width:0.0000; stroke-opacity:1; 
stroke-linecap:round; stroke-linejoin:round;">
<circle cx="20.3150" cy="3.3482" r="1.5000" /> 
</g>
<g style="fill:#37CBCB; fill-opacity:1.0000; 
stroke:#37CBCB; stroke-width:0.0212; stroke-opacity:1; 
stroke-linecap:round; stroke-linejoin:round;">
</g>
<g style="fill:#37CBCB; fill-opacity:1.0000; 
stroke:#37CBCB; stroke-width:0.0000; stroke-opacity:1; 
stroke-linecap:round; stroke-linejoin:round;">
<circle cx="20.3150" cy="10.3483" r="1.5000" /> 
</g>
<g style="fill:#37CBCB; fill-opacity:1.0000; 
stroke:#37CBCB; stroke-width:0.0212; stroke-opacity:1; 
stroke-linecap:round; stroke-linejoin:round;">
</g>
<g >
</g>
<g style="fill:#37CBCB; fill-opacity:1.0000; 
stroke:#37CBCB; stroke-width:0.0212; stroke-opacity:1; 
stroke-linecap:round; stroke-linejoin:round;">
</g>
<g style="fill:#37CBCB; fill-opacity:1.0000; 
stroke:#37CBCB; stroke-width:0.0000; stroke-opacity:1; 
stroke-linecap:round; stroke-linejoin:round;">
<path style="fill:#37CBCB; fill-opacity:1.0000; 
stroke:#37CBCB; stroke-width:0.0000; stroke-opacity:1; 
stroke-linecap:round; stroke-linejoin:round;fill-rule:evenodd;"
d="M 18.2100,20.5232
16.7100,20.5232
16.7100,18.5233
18.2100,18.5233
Z" /> 
<path style="fill:#37CBCB; fill-opacity:1.0000; 
stroke:#37CBCB; stroke-width:0.0000; stroke-opacity:1; 
stroke-linecap:round; stroke-linejoin:round;fill-rule:evenodd;"
d="M 20.5100,20.5232
19.0100,20.5232
19.0100,18.5233
20.5100,18.5233
Z" /> 
<path style="fill:#37CBCB; fill-opacity:1.0000; 
stroke:#37CBCB; stroke-width:0.0000; stroke-opacity:1; 
stroke-linecap:round; stroke-linejoin:round;fill-rule:evenodd;"
d="M 22.8100,20.5232
21.3100,20.5232
21.3100,18.5233
22.8100,18.5233
Z" /> 
<path style="fill:#37CBCB; fill-opacity:1.0000; 
stroke:#37CBCB; stroke-width:0.0000; stroke-opacity:1; 
stroke-linecap:round; stroke-linejoin:round;fill-rule:evenodd;"
d="M 21.6600,14.2233
17.8600,14.2233
17.8600,12.2233
21.6600,12.2233
Z" /> 
</g>
<g >
</g>
<g style="fill:#37CBCB; fill-opacity:1.0000; 
stroke:#37CBCB; stroke-width:0.0000; stroke-opacity:1; 
stroke-linecap:round; stroke-linejoin:round;">
<path style="fill:#37CBCB; fill-opacity:1.0000; 
stroke:#37CBCB; stroke-width:0.0000; stroke-opacity:1; 
stroke-linecap:round; stroke-linejoin:round;fill-rule:evenodd;"
d="M 14.0800,19.4132
15.2800,19.4132
15.2800,20.6133
14.0800,20.6133
Z" /> 
<path style="fill:#37CBCB; fill-opacity:1.0000; 
stroke:#37CBCB; stroke-width:0.0000; stroke-opacity:1; 
stroke-linecap:round; stroke-linejoin:round;fill-rule:evenodd;"
d="M 14.0800,17.2132
15.2800,17.2132
15.2800,18.4132
14.0800,18.4132
Z" /> 
</g>
<g >
</g>
<g style="fill:#37CBCB; fill-opacity:1.0000; 
stroke:#37CBCB; stroke-width:0.0000; stroke-opacity:1; 
stroke-linecap:round; stroke-linejoin:round;">
<path style="fill:#37CBCB; fill-opacity:1.0000; 
stroke:#37CBCB; stroke-width:0.0000; stroke-opacity:1; 
stroke-linecap:round; stroke-linejoin:round;fill-rule:evenodd;"
d="M 14.0600,15.1332
12.7600,15.1332
12.7600,14.4332
14.0600,14.4332
Z" /> 
<path style="fill:#37CBCB; fill-opacity:1.0000; 
stroke:#37CBCB; stroke-width:0.0000; stroke-opacity:1; 
stroke-linecap:round; stroke-linejoin:round;fill-rule:evenodd;"
d="M 14.0600,13.2332
12.7600,13.2332
12.7600,12.5332
14.0600,12.5332
Z" /> 
</g>
<g >
</g>
<g style="fill:#37CBCB; fill-opacity:1.0000; 
stroke:#37CBCB; stroke-width:0.0000; stroke-opacity:1; 
stroke-linecap:round; stroke-linejoin:round;">
<path style="fill:#37CBCB; fill-opacity:1.0000; 
stroke:#37CBCB; stroke-width:0.0000; stroke-opacity:1; 
stroke-linecap:round; stroke-linejoin:round;fill-rule:evenodd;"
d="M 15.9650,15.1332
14.6650,15.1332
14.6650,14.4332
15.9650,14.4332
Z" /> 
<path style="fill:#37CBCB; fill-opacity:1.0000; 
stroke:#37CBCB; stroke-width:0.0000; stroke-opacity:1; 
stroke-linecap:round; stroke-linejoin:round;fill-rule:evenodd;"
d="M 15.9650,13.2332
14.6650,13.2332
14.6650,12.5332
15.9650,12.5332
Z" /> 
</g>
<g >
</g>
<g style="fill:#121212; fill-opacity:1.0000; 
stroke:#121212; stroke-width:0.0000; stroke-opacity:1; 
stroke-linecap:round; stroke-linejoin:round;">
<circle cx="13.4100" cy="19.5482" r="0.2540" /> 
</g>
<g style="fill:#121212; fill-opacity:1.0000; 
stroke:#121212; stroke-width:0.0212; stroke-opacity:1; 
stroke-linecap:round; stroke-linejoin:round;">
</g>
<g style="fill:#121212; fill-opacity:1.0000; 
stroke:#121212; stroke-width:0.0000; stroke-opacity:1; 
stroke-linecap:round; stroke-linejoin:round;">
<circle cx="21.6650" cy="18.0497" r="0.3810" /> 
</g>
<g style="fill:#121212; fill-opacity:1.0000; 
stroke:#121212; stroke-width:0.0212; stroke-opacity:1; 
stroke-linecap:round; stroke-linejoin:round;">
</g>
<g style="fill:#121212; fill-opacity:1.0000; 
stroke:#121212; stroke-width:0.0000; stroke-opacity:1; 
stroke-linecap:round; stroke-linejoin:round;">
<circle cx="14.2990" cy="13.1982" r="0.2540" /> 
</g>
<g style="fill:#121212; fill-opacity:1.0000; 
stroke:#121212; stroke-width:0.0212; stroke-opacity:1; 
stroke-linecap:round; stroke-linejoin:round;">
</g>
<g >
</g>
<g style="fill:#37CBCB; fill-opacity:1.0000; 
stroke:#37CBCB; stroke-width:0.0212; stroke-opacity:1; 
stroke-linecap:round; stroke-linejoin:round;">
</g>
<g style="fill:#37CBCB; fill-opacity:1.0000; 
stroke:#37CBCB; stroke-width:0.2540; stroke-opacity:1; 
stroke-linecap:round; stroke-linejoin:round;">
</g>
<g style="fill:#37CBCB; fill-opacity:0.0; 
stroke:#37CBCB; stroke-width:0.2540; stroke-opacity:1; 
stroke-linecap:round; stroke-linejoin:round;">
<path d="M13.4100 14.7832
L13.4100 17.3972
" />
<path d="M13.8260 17.8133
L14.6800 17.8133
" />
<path d="M13.4100 17.3972
L13.8260 17.8133
" />
</g>
<g style="fill:#37CBCB; fill-opacity:0.0; 
stroke:#37CBCB; stroke-width:1.5240; stroke-opacity:1; 
stroke-linecap:round; stroke-linejoin:round;">
<path d="M22.0600 19.5233
L22.0600 18.4447
" />
</g>
<g style="fill:#37CBCB; fill-opacity:0.0; 
stroke:#37CBCB; stroke-width:0.2540; stroke-opacity:1; 
stroke-linecap:round; stroke-linejoin:round;">
<path d="M14.6800 20.0132
L13.8750 20.0132
" />
<path d="M13.8750 20.0132
L13.4100 19.5482
" />
</g>
<g style="fill:#37CBCB; fill-opacity:0.0; 
stroke:#37CBCB; stroke-width:1.5240; stroke-opacity:1; 
stroke-linecap:round; stroke-linejoin:round;">
<path d="M22.0600 18.4447
L21.6650 18.0497
" />
</g>
<g style="fill:#37CBCB; fill-opacity:0.0; 
stroke:#37CBCB; stroke-width:2.5400; stroke-opacity:1; 
stroke-linecap:round; stroke-linejoin:round;">
<path d="M15.3150 10.3483
L20.3150 10.3483
" />
<path d="M15.3150 10.3483
L15.3150 3.3482
" />
<path d="M20.3150 3.3482
L20.3150 10.3483
" />
</g>
<g style="fill:#37CBCB; fill-opacity:0.0; 
stroke:#37CBCB; stroke-width:1.5240; stroke-opacity:1; 
stroke-linecap:round; stroke-linejoin:round;">
<path d="M19.7600 13.2233
L19.7600 19.5233
" />
</g>
<g style="fill:#37CBCB; fill-opacity:0.0; 
stroke:#37CBCB; stroke-width:2.5400; stroke-opacity:1; 
stroke-linecap:round; stroke-linejoin:round;">
<path d="M19.7600 13.2233
L19.7600 10.9032
" />
<path d="M19.7600 10.9032
L20.3150 10.3483
" />
</g>
<g style="fill:#37CBCB; fill-opacity:0.0; 
stroke:#37CBCB; stroke-width:0.2540; stroke-opacity:1; 
stroke-linecap:round; stroke-linejoin:round;">
<path d="M15.3150 15.3872
L17.4600 17.5322
" />
<path d="M17.4600 18.2692
L17.4600 19.5233
" />
<path d="M15.3150 14.7832
L15.3150 15.3872
" />
<path d="M17.4600 17.5322
L17.4600 18.2692
" />
<path d="M13.4100 12.8832
L13.9840 12.8832
" />
<path d="M13.9840 12.8832
L14.0450 12.9443
" />
<path d="M14.0450 12.9443
L14.2990 13.1982
" />
<path d="M14.2990 12.9952
L14.2990 13.1982
" />
<path d="M14.4110 12.8832
L14.2990 12.9952
" />
<path d="M15.3150 12.8832
L14.4110 12.8832
" />
</g>
<g >
</g>
<g style="fill:#37CBCB; fill-opacity:0.0; 
stroke:#37CBCB; stroke-width:0.2540; stroke-opacity:1; 
stroke-linecap:round; stroke-linejoin:round;">
<g >
</g>
<g style="fill:#37CBCB; fill-opacity:1.0000; 
stroke:#37CBCB; stroke-width:0.0000; stroke-opacity:1; 
stroke-linecap:round; stroke-linejoin:round;">
<path style="fill:#37CBCB; fill-opacity:1.0000; 
stroke:#37CBCB; stroke-width:0.0000; stroke-opacity:1; 
stroke-linecap:round; stroke-linejoin:round;fill-rule:evenodd;"
d="M 14.6623,1.2288
14.7087,1.2824
14.7188,1.3527
14.6894,1.4173
14.6443,1.4503
14.3890,1.5612
14.1543,1.7039
14.0857,1.7598
14.7552,2.4292
14.7892,2.4915
14.7841,2.5623
14.7504,2.6119
14.6238,2.7259
14.5883,2.7747
14.5321,2.8181
14.4614,2.8242
14.3986,2.7910
14.3973,2.7898
13.7255,2.1180
13.5953,2.3025
13.4689,2.5464
13.3769,2.8052
13.3769,2.8052
13.3211,3.0742
13.3211,3.0742
13.3023,3.3482
13.3023,3.3483
13.3211,3.6223
13.3211,3.6223
13.3769,3.8913
13.3769,3.8913
13.4689,4.1501
13.5953,4.3940
13.5953,4.3940
13.7255,4.5785
14.3973,3.9067
14.4596,3.8727
14.5304,3.8778
14.5873,3.9203
14.5883,3.9218
14.6238,3.9706
14.7504,4.0846
14.7876,4.1450
14.7863,4.2160
14.7552,4.2673
14.0857,4.9367
14.0857,4.9367
14.1543,4.9926
14.1543,4.9926
14.3890,5.1353
14.6410,5.2447
14.9055,5.3188
15.1776,5.3562
15.1776,5.3563
15.4524,5.3563
15.4524,5.3562
15.7245,5.3188
15.9890,5.2447
16.2410,5.1353
16.4757,4.9926
16.5443,4.9367
15.8748,4.2673
15.8408,4.2050
15.8459,4.1342
15.8796,4.0846
16.0062,3.9706
16.0417,3.9218
16.0979,3.8784
16.1686,3.8723
16.2314,3.9055
16.2327,3.9067
16.9045,4.5785
17.0347,4.3940
17.0347,4.3940
17.1611,4.1501
17.2531,3.8913
17.2531,3.8913
17.3089,3.6223
17.3089,3.6223
17.3277,3.3483
17.3277,3.3482
17.3089,3.0742
17.3089,3.0742
17.2531,2.8052
17.2531,2.8052
17.1611,2.5464
17.0347,2.3025
17.0347,2.3025
16.9045,2.1180
16.2327,2.7898
16.1704,2.8238
16.0996,2.8187
16.0427,2.7762
16.0417,2.7748
16.0062,2.7259
15.8796,2.6119
15.8796,2.6119
15.8424,2.5515
15.8437,2.4805
15.8748,2.4292
16.5443,1.7598
16.4757,1.7039
16.2410,1.5612
15.9857,1.4503
15.9312,1.4048
15.9099,1.3371
15.9286,1.2686
15.9814,1.2211
16.0359,1.2087
19.5941,1.2087
19.6623,1.2288
19.7087,1.2824
19.7188,1.3527
19.6894,1.4173
19.6443,1.4503
19.3890,1.5612
19.1543,1.7039
19.0857,1.7598
19.7552,2.4292
19.7892,2.4915
19.7841,2.5623
19.7504,2.6119
19.6238,2.7259
19.5883,2.7747
19.5321,2.8181
19.4614,2.8242
19.3986,2.7910
19.3973,2.7898
18.7255,2.1180
18.5953,2.3025
18.4689,2.5464
18.3769,2.8052
18.3769,2.8052
18.3211,3.0742
18.3211,3.0742
18.3023,3.3482
18.3023,3.3483
18.3211,3.6223
18.3211,3.6223
18.3769,3.8913
18.3769,3.8913
18.4689,4.1501
18.5953,4.3940
18.5953,4.3940
18.7255,4.5785
19.3973,3.9067
19.4596,3.8727
19.5304,3.8778
19.5873,3.9203
19.5883,3.9218
19.6238,3.9706
19.7504,4.0846
19.7876,4.1450
19.7863,4.2160
19.7552,4.2673
19.0857,4.9367
19.0857,4.9367
19.1543,4.9926
19.1543,4.9926
19.3890,5.1353
19.6410,5.2447
19.9055,5.3188
20.1776,5.3562
20.1776,5.3563
20.4524,5.3563
20.4524,5.3562
20.7245,5.3188
20.9890,5.2447
21.2410,5.1353
21.4757,4.9926
21.5443,4.9367
20.8748,4.2673
20.8408,4.2050
20.8459,4.1342
20.8796,4.0846
21.0062,3.9706
21.0417,3.9218
21.0979,3.8784
21.1686,3.8723
21.2314,3.9055
21.2327,3.9067
21.9045,4.5785
22.0347,4.3940
22.0347,4.3940
22.1611,4.1501
22.2531,3.8913
22.2531,3.8913
22.3089,3.6223
22.3089,3.6223
22.3277,3.3483
22.3277,3.3482
22.3089,3.0742
22.3089,3.0742
22.2531,2.8052
22.2531,2.8052
22.1611,2.5464
22.0347,2.3025
22.0347,2.3025
21.9045,2.1180
21.2327,2.7898
21.1704,2.8238
21.0996,2.8187
21.0427,2.7762
21.0417,2.7748
21.0062,2.7259
20.8796,2.6119
20.8796,2.6119
20.8424,2.5515
20.8437,2.4805
20.8748,2.4292
21.5443,1.7598
21.4757,1.7039
21.2410,1.5612
20.9857,1.4503
20.9312,1.4048
20.9099,1.3371
20.9286,1.2686
20.9814,1.2211
21.0359,1.2087
23.4440,1.2087
23.5121,1.2288
23.5586,1.2824
23.5700,1.3347
23.5700,18.2230
23.5500,18.2911
23.4963,18.3376
23.4261,18.3477
23.3615,18.3182
23.3231,18.2585
23.3213,18.2506
23.3213,18.2506
23.3188,18.2408
23.3155,18.2213
23.3151,18.2169
23.3151,18.2169
23.3148,18.2156
23.2885,18.1204
23.2640,18.0233
23.2630,18.0210
23.2622,18.0193
23.2555,18.0007
23.2543,17.9964
23.2410,17.9688
23.2109,17.9063
23.1695,17.8151
23.1695,17.8151
23.1669,17.8115
23.1570,17.7944
23.1551,17.7904
23.0962,17.7094
23.0392,17.6271
23.0392,17.6271
23.0392,17.6271
23.0361,17.6240
23.0233,17.6090
23.0206,17.6054
23.0206,17.6054
22.9483,17.5362
22.5230,17.1109
22.5222,17.1102
22.4318,17.0347
22.3915,17.0011
22.3915,17.0011
22.1925,16.8882
22.0449,16.8366
21.9767,16.8127
21.7508,16.7769
21.7508,16.7769
21.5222,16.7820
21.5222,16.7820
21.2981,16.8279
21.1580,16.8841
21.0859,16.9131
20.9220,17.0160
20.8922,17.0347
20.7234,17.1890
20.5849,17.3710
20.4811,17.5747
20.4811,17.5747
20.4811,17.5747
20.4153,17.7938
20.4029,17.9034
20.3754,17.9688
20.3169,18.0090
20.2777,18.0152
20.0140,18.0152
20.0140,21.0312
20.5586,21.0312
20.5586,21.0312
20.6191,21.0247
20.7560,20.9737
20.7560,20.9737
20.8341,20.9152
20.9006,20.8904
20.9700,20.9055
20.9851,20.9152
21.0638,20.9741
21.0638,20.9741
21.0638,20.9741
21.0702,20.9765
21.2008,21.0252
21.2008,21.0252
21.2614,21.0317
21.2614,21.0317
21.2614,21.0317
21.2614,21.0317
22.8586,21.0317
22.8586,21.0317
22.8586,21.0317
22.8586,21.0317
22.9192,21.0252
22.9192,21.0252
22.9192,21.0252
23.0562,20.9741
23.0568,20.9737
23.1733,20.8865
23.2609,20.7695
23.2609,20.7695
23.2609,20.7695
23.3120,20.6325
23.3185,20.5719
23.3187,20.5698
23.3459,20.5042
23.4042,20.4637
23.4752,20.4612
23.5362,20.4974
23.5680,20.5609
23.5700,20.5833
23.5700,21.2517
23.5500,21.3199
23.4963,21.3664
23.4440,21.3777
12.2660,21.3777
12.1979,21.3577
12.1514,21.3041
12.1400,21.2517
12.1400,15.5321
12.1600,15.4640
12.2137,15.4175
12.2839,15.4074
12.3485,15.4369
12.3669,15.4566
12.3967,15.4965
12.3967,15.4965
12.3967,15.4965
12.5138,15.5841
12.5138,15.5841
12.5138,15.5841
12.5729,15.6062
12.6508,15.6352
12.6508,15.6352
12.6620,15.6364
12.7276,15.6636
12.7681,15.7219
12.7745,15.7617
12.7745,17.3132
12.7727,17.3291
12.7730,17.3291
12.7723,17.3370
12.7723,17.3370
12.7745,17.4072
12.7745,17.4372
12.7745,17.4372
12.7745,17.4372
12.7754,17.4442
12.7758,17.4501
12.7773,17.4975
12.7773,17.4975
12.7830,17.5170
12.7870,17.5364
12.7896,17.5565
12.7896,17.5565
12.8070,17.6006
12.8089,17.6062
12.8221,17.6516
12.8221,17.6516
12.8325,17.6692
12.8412,17.6869
12.8487,17.7058
12.8765,17.7441
12.8798,17.7491
12.8854,17.7586
12.9039,17.7898
12.9182,17.8042
12.9311,17.8193
12.9431,17.8357
12.9431,17.8357
12.9795,17.8659
12.9839,17.8699
13.3172,18.2032
13.3272,18.2156
13.3274,18.2154
13.3324,18.2216
13.3837,18.2697
13.4049,18.2909
13.4049,18.2909
13.4049,18.2909
13.4052,18.2911
13.4105,18.2952
13.4150,18.2991
13.4495,18.3315
13.4495,18.3315
13.4673,18.3413
13.4839,18.3521
13.4999,18.3646
13.5068,18.3686
13.5056,18.3706
13.5512,18.4086
13.5719,18.4653
13.5780,18.5224
13.5780,18.5224
13.5780,18.5224
13.5780,18.5225
13.6143,18.6198
13.6194,18.6906
13.5854,18.7529
13.5231,18.7870
13.4822,18.7891
13.4100,18.7809
13.2393,18.8002
13.0771,18.8569
13.0771,18.8569
12.9316,18.9483
12.9316,18.9483
12.8101,19.0698
12.8101,19.0698
12.7187,19.2153
12.7187,19.2153
12.6619,19.3775
12.6427,19.5482
12.6619,19.7190
12.7187,19.8812
12.7187,19.8812
12.8101,20.0267
12.8101,20.0267
12.9316,20.1482
12.9316,20.1482
13.0771,20.2396
13.0771,20.2396
13.0771,20.2396
13.2393,20.2963
13.2393,20.2963
13.2430,20.2977
13.2905,20.3275
13.3662,20.4032
13.3762,20.4156
13.3764,20.4154
13.3814,20.4216
13.4327,20.4697
13.4539,20.4909
13.4539,20.4909
13.4595,20.4952
13.4640,20.4991
13.4985,20.5315
13.5062,20.5357
13.5563,20.5860
13.5715,20.6461
13.5715,20.6619
13.5780,20.7224
13.5780,20.7225
13.6291,20.8595
13.6291,20.8595
13.7167,20.9765
13.8338,21.0641
13.8338,21.0641
13.8338,21.0641
13.8929,21.0862
13.9708,21.1152
13.9708,21.1152
14.0313,21.1217
14.0314,21.1217
14.0314,21.1217
14.0314,21.1217
15.3286,21.1217
15.3286,21.1217
15.3286,21.1217
15.3286,21.1217
15.3892,21.1152
15.3892,21.1152
15.3892,21.1152
15.5262,21.0641
15.5701,21.0312
15.6433,20.9765
15.7309,20.8595
15.7309,20.8595
15.7309,20.8595
15.7820,20.7225
15.7885,20.6619
15.7885,19.3646
15.7885,19.3646
15.7820,19.3041
15.7820,19.3040
15.7309,19.1670
15.7309,19.1670
15.6433,19.0500
15.5953,19.0141
15.5528,18.9573
15.5477,18.8865
15.5818,18.8242
15.5953,18.8124
15.6433,18.7765
15.7309,18.6595
15.7309,18.6595
15.7309,18.6595
15.7820,18.5225
15.7820,18.5224
15.7820,18.5224
15.7885,18.4619
15.7885,18.4619
15.7885,17.1646
15.7885,17.1646
15.7820,17.1041
15.7820,17.1040
15.7756,17.0868
15.7705,17.0160
15.8045,16.9537
15.8668,16.9197
15.9377,16.9247
15.9827,16.9537
16.7876,17.7586
16.8216,17.8209
16.8245,17.8477
16.8245,17.8887
16.8045,17.9569
16.7508,18.0034
16.6985,18.0147
16.6613,18.0147
16.6008,18.0213
16.6008,18.0213
16.4638,18.0724
16.4638,18.0724
16.3467,18.1600
16.2591,18.2770
16.2591,18.2770
16.2080,18.4140
16.2080,18.4141
16.2015,18.4746
16.2015,20.5719
16.2080,20.6324
16.2080,20.6325
16.2591,20.7695
16.2591,20.7695
16.3467,20.8865
16.4638,20.9741
16.4638,20.9741
16.4638,20.9741
16.4702,20.9765
16.6008,21.0252
16.6008,21.0252
16.6613,21.0317
16.6614,21.0317
16.6614,21.0317
16.6614,21.0317
18.2586,21.0317
18.2586,21.0317
18.2586,21.0317
18.2586,21.0317
18.3192,21.0252
18.3192,21.0252
18.3192,21.0252
18.4562,20.9741
18.5349,20.9152
18.6014,20.8904
18.6708,20.9055
18.6859,20.9152
18.7640,20.9737
18.9009,21.0247
18.9614,21.0312
18.9614,21.0312
19.5060,21.0312
19.5060,18.0152
18.9614,18.0152
18.9009,18.0218
18.7640,18.0728
18.6859,18.1313
18.6194,18.1561
18.5500,18.1410
18.5349,18.1313
18.4562,18.0724
18.4562,18.0724
18.3192,18.0213
18.3192,18.0213
18.2586,18.0147
18.2586,18.0147
18.2215,18.0147
18.1534,17.9947
18.1069,17.9411
18.0955,17.8887
18.0955,17.6163
18.0973,17.6005
18.0970,17.6004
18.0977,17.5925
18.0955,17.5223
18.0955,17.4923
18.0955,17.4923
18.0946,17.4853
18.0942,17.4794
18.0927,17.4320
18.0870,17.4125
18.0830,17.3931
18.0804,17.3730
18.0630,17.3289
18.0611,17.3233
18.0479,17.2779
18.0375,17.2603
18.0288,17.2426
18.0213,17.2237
17.9935,17.1854
17.9902,17.1804
17.9661,17.1397
17.9661,17.1396
17.9517,17.1253
17.9389,17.1102
17.9269,17.0938
17.8905,17.0636
17.8861,17.0596
16.4032,15.5767
16.3692,15.5144
16.3742,15.4436
16.3914,15.4121
16.4159,15.3795
16.4670,15.2425
16.4735,15.1819
16.4735,14.3846
16.4679,14.3323
16.4670,14.3241
16.4670,14.3240
16.4159,14.1870
16.4159,14.1870
16.3283,14.0700
16.2112,13.9824
16.2112,13.9824
16.1279,13.9513
16.0711,13.9088
16.0463,13.8422
16.0614,13.7729
16.1116,13.7227
16.1279,13.7152
16.1559,13.7048
16.2112,13.6841
16.3283,13.5965
16.3283,13.5965
16.4159,13.4795
16.4159,13.4795
16.4159,13.4795
16.4167,13.4772
17.3520,13.4772
17.3520,14.2718
17.3585,14.3323
17.4096,14.4692
17.4096,14.4692
17.4971,14.5862
17.6140,14.6737
17.7509,14.7247
17.8114,14.7312
17.8114,14.7312
19.5060,14.7312
19.5060,13.4772
20.0140,13.4772
20.0140,14.7312
21.7086,14.7312
21.7086,14.7312
21.7691,14.7247
21.9060,14.6737
21.9060,14.6737
22.0229,14.5862
22.1104,14.4692
22.1104,14.4692
22.1615,14.3323
22.1680,14.2718
22.1680,14.2718
22.1680,13.4772
20.0140,13.4772
19.5060,13.4772
17.3520,13.4772
16.4167,13.4772
16.4670,13.3425
16.4735,13.2819
16.4735,12.9692
17.3520,12.9692
22.1680,12.9692
22.1680,12.1747
22.1680,12.1747
22.1615,12.1142
22.1104,11.9773
22.1104,11.9773
22.0229,11.8603
21.9133,11.7783
21.8708,11.7215
21.8657,11.6507
21.8859,11.6048
22.0347,11.3940
22.0347,11.3940
22.1611,11.1501
22.2531,10.8913
22.2531,10.8913
22.3089,10.6223
22.3089,10.6223
22.3277,10.3483
22.3277,10.3482
22.3089,10.0742
22.3089,10.0742
22.2531,9.8052
22.2531,9.8052
22.1611,9.5464
22.0347,9.3025
22.0347,9.3025
21.9045,9.1180
21.2327,9.7898
21.1704,9.8238
21.0996,9.8187
21.0427,9.7762
21.0417,9.7748
21.0062,9.7259
20.8796,9.6119
20.8796,9.6119
20.8424,9.5515
20.8437,9.4805
20.8748,9.4292
21.5443,8.7598
21.4757,8.7039
21.2410,8.5612
20.9890,8.4518
20.7245,8.3777
20.4524,8.3402
20.1776,8.3402
19.9055,8.3777
19.6410,8.4518
19.3890,8.5612
19.1543,8.7039
19.0857,8.7598
19.7552,9.4292
19.7892,9.4915
19.7841,9.5623
19.7504,9.6119
19.6238,9.7259
19.5883,9.7747
19.5321,9.8181
19.4614,9.8242
19.3986,9.7910
19.3973,9.7898
18.7255,9.1180
18.5953,9.3025
18.4689,9.5464
18.3769,9.8052
18.3769,9.8052
18.3211,10.0742
18.3211,10.0742
18.3023,10.3482
18.3023,10.3483
18.3211,10.6223
18.3211,10.6223
18.3769,10.8913
18.3769,10.8913
18.4689,11.1501
18.5953,11.3940
18.5953,11.3940
18.6818,11.5166
18.7048,11.5838
18.6878,11.6527
18.6362,11.7015
18.5789,11.7152
17.8114,11.7152
17.7509,11.7218
17.6140,11.7728
17.6140,11.7728
17.4971,11.8603
17.4096,11.9773
17.4096,11.9773
17.3585,12.1142
17.3520,12.1747
17.3520,12.9692
16.4735,12.9692
16.4735,12.4846
16.4735,12.4846
16.4670,12.4241
16.4670,12.4240
16.4159,12.2870
16.4159,12.2870
16.4159,12.2870
16.3663,12.2207
16.3414,12.1542
16.3565,12.0848
16.4017,12.0376
16.4757,11.9926
16.5443,11.9367
15.8748,11.2673
15.8408,11.2050
15.8459,11.1342
15.8796,11.0846
16.0062,10.9706
16.0417,10.9218
16.0979,10.8784
16.1686,10.8723
16.2314,10.9055
16.2327,10.9067
16.9045,11.5785
17.0347,11.3940
17.0347,11.3940
17.1611,11.1501
17.2531,10.8913
17.2531,10.8913
17.3089,10.6223
17.3089,10.6223
17.3277,10.3483
17.3277,10.3482
17.3089,10.0742
17.3089,10.0742
17.2531,9.8052
17.2531,9.8052
17.1611,9.5464
17.0347,9.3025
17.0347,9.3025
16.9045,9.1180
16.2327,9.7898
16.1704,9.8238
16.0996,9.8187
16.0427,9.7762
16.0417,9.7748
16.0062,9.7259
15.8796,9.6119
15.8796,9.6119
15.8424,9.5515
15.8437,9.4805
15.8748,9.4292
16.5443,8.7598
16.4757,8.7039
16.2410,8.5612
15.9890,8.4518
15.7245,8.3777
15.4524,8.3402
15.1776,8.3402
14.9055,8.3777
14.6410,8.4518
14.3890,8.5612
14.1543,8.7039
14.0857,8.7598
14.7552,9.4292
14.7892,9.4915
14.7841,9.5623
14.7504,9.6119
14.6238,9.7259
14.5883,9.7747
14.5321,9.8181
14.4614,9.8242
14.3986,9.7910
14.3973,9.7898
13.7255,9.1180
13.5953,9.3025
13.4689,9.5464
13.3769,9.8052
13.3769,9.8052
13.3211,10.0742
13.3211,10.0742
13.3023,10.3482
13.3023,10.3483
13.3211,10.6223
13.3211,10.6223
13.3769,10.8913
13.3769,10.8913
13.4689,11.1501
13.5953,11.3940
13.5953,11.3940
13.7255,11.5785
14.3973,10.9067
14.4596,10.8727
14.5304,10.8778
14.5873,10.9203
14.5883,10.9218
14.6238,10.9706
14.7504,11.0846
14.7876,11.1450
14.7863,11.2160
14.7552,11.2673
14.0688,11.9537
14.0669,11.9614
14.0157,12.0105
13.9576,12.0247
12.7113,12.0247
12.6508,12.0313
12.6508,12.0313
12.5138,12.0824
12.5138,12.0824
12.3967,12.1700
12.3669,12.2099
12.3100,12.2524
12.2392,12.2575
12.1769,12.2235
12.1429,12.1612
12.1400,12.1344
12.1400,1.3347
12.1600,1.2666
12.2137,1.2201
12.2660,1.2087
14.5941,1.2087
Z" /> 
</g>
</g>
</g>
<g style="fill:#000000; fill-opacity:1.0000; 
stroke:#000000; stroke-width:0.0000; stroke-opacity:1; 
stroke-linecap:round; stroke-linejoin:round;">
<circle cx="13.4100" cy="19.5482" r="0.1270" /> 
</g>
<g style="fill:#000000; fill-opacity:1.0000; 
stroke:#000000; stroke-width:0.0212; stroke-opacity:1; 
stroke-linecap:round; stroke-linejoin:round;">
</g>
<g style="fill:#000000; fill-opacity:1.0000; 
stroke:#000000; stroke-width:0.0000; stroke-opacity:1; 
stroke-linecap:round; stroke-linejoin:round;">
<circle cx="21.6650" cy="18.0497" r="0.1905" /> 
</g>
<g style="fill:#000000; fill-opacity:1.0000; 
stroke:#000000; stroke-width:0.0212; stroke-opacity:1; 
stroke-linecap:round; stroke-linejoin:round;">
</g>
<g style="fill:#000000; fill-opacity:1.0000; 
stroke:#000000; stroke-width:0.0000; stroke-opacity:1; 
stroke-linecap:round; stroke-linejoin:round;">
<circle cx="14.2990" cy="13.1982" r="0.1270" /> 
</g>
<g style="fill:#000000; fill-opacity:1.0000; 
stroke:#000000; stroke-width:0.0212; stroke-opacity:1; 
stroke-linecap:round; stroke-linejoin:round;">
</g>
<g style="fill:#000000; fill-opacity:1.0000; 
stroke:#000000; stroke-width:0.0000; stroke-opacity:1; 
stroke-linecap:round; stroke-linejoin:round;">
<circle cx="15.3150" cy="3.3482" r="0.9250" /> 
</g>
<g style="fill:#000000; fill-opacity:1.0000; 
stroke:#000000; stroke-width:0.0212; stroke-opacity:1; 
stroke-linecap:round; stroke-linejoin:round;">
</g>
<g style="fill:#000000; fill-opacity:1.0000; 
stroke:#000000; stroke-width:0.0000; stroke-opacity:1; 
stroke-linecap:round; stroke-linejoin:round;">
<circle cx="15.3150" cy="10.3483" r="0.9250" /> 
</g>
<g style="fill:#000000; fill-opacity:1.0000; 
stroke:#000000; stroke-width:0.0212; stroke-opacity:1; 
stroke-linecap:round; stroke-linejoin:round;">
</g>
<g style="fill:#000000; fill-opacity:1.0000; 
stroke:#000000; stroke-width:0.0000; stroke-opacity:1; 
stroke-linecap:round; stroke-linejoin:round;">
<circle cx="20.3150" cy="3.3482" r="0.9250" /> 
</g>
<g style="fill:#000000; fill-opacity:1.0000; 
stroke:#000000; stroke-width:0.0212; stroke-opacity:1; 
stroke-linecap:round; stroke-linejoin:round;">
</g>
<g style="fill:#000000; fill-opacity:1.0000; 
stroke:#000000; stroke-width:0.0000; stroke-opacity:1; 
stroke-linecap:round; stroke-linejoin:round;">
<circle cx="20.3150" cy="10.3483" r="0.9250" /> 
</g>
<g style="fill:#000000; fill-opacity:1.0000; 
stroke:#000000; stroke-width:0.0212; stroke-opacity:1; 
stroke-linecap:round; stroke-linejoin:round;">
</g>
<g style="fill:#FFFFFF; fill-opacity:1.0000; 
stroke:#FFFFFF; stroke-width:0.0212; stroke-opacity:1; 
stroke-linecap:round; stroke-linejoin:round;">
</g>
<g style="fill:#2F2D31; fill-opacity:1.0000; 
stroke:#2F2D31; stroke-width:0.0212; stroke-opacity:1; 
stroke-linecap:round; stroke-linejoin:round;">
</g>
<g style="fill:#2F2D31; fill-opacity:1.0000; 
stroke:#2F2D31; stroke-width:0.1500; stroke-opacity:1; 
stroke-linecap:round; stroke-linejoin:round;">
</g>
<g style="fill:#2F2D31; fill-opacity:0.0; 
stroke:#2F2D31; stroke-width:0.1500; stroke-opacity:1; 
stroke-linecap:round; stroke-linejoin:round;">
<path d="M23.5700 21.4533
L12.1400 21.4533
" />
<path d="M12.1400 1.1332
L23.5700 1.1332
" />
<g >
</g>
<g >
</g>
<g >
</g>
<g >
</g>
<g >
</g>
<g >
</g>
<g >
</g>
<g >
</g>
<g >
</g>
<g >
</g>
</g> 
</svg>
