<?xml version="1.0" standalone="no"?>
 <!DOCTYPE svg PUBLIC "-//W3C//DTD SVG 1.1//EN" 
 "http://www.w3.org/Graphics/SVG/1.1/DTD/svg11.dtd"> 
<svg
  xmlns:svg="http://www.w3.org/2000/svg"
  xmlns="http://www.w3.org/2000/svg"
  xmlns:xlink="http://www.w3.org/1999/xlink"
  version="1.1"
  width="30.8356mm" height="13.6144mm" viewBox="0.0000 0.0000 30.8356 13.6144">
<title>SVG Image created as working-brd.svg date 2023/09/25 23:04:48 </title>
  <desc>Image generated by PCBNEW </desc>
<g style="fill:#000000; fill-opacity:1.0000;stroke:#000000; stroke-opacity:1.0000;
stroke-linecap:round; stroke-linejoin:round;"
 transform="translate(0 0) scale(1 1)">
</g>
<g style="fill:#000000; fill-opacity:0.0; 
stroke:#000000; stroke-width:0.0000; stroke-opacity:1; 
stroke-linecap:round; stroke-linejoin:round;">
</g>
<g style="fill:#000000; fill-opacity:1.0000; 
stroke:#000000; stroke-width:0.0212; stroke-opacity:1; 
stroke-linecap:round; stroke-linejoin:round;">
<rect x="-5.000000" y="-5.000000" width="40.857457" height="23.620869" rx="0.000000" />
</g>
<g style="fill:#FFFFFF; fill-opacity:1.0000; 
stroke:#FFFFFF; stroke-width:0.0212; stroke-opacity:1; 
stroke-linecap:round; stroke-linejoin:round;">
<g >
</g>
<g >
</g>
<g >
</g>
<g style="fill:#B2803A; fill-opacity:1.0000; 
stroke:#B2803A; stroke-width:0.0212; stroke-opacity:1; 
stroke-linecap:round; stroke-linejoin:round;">
</g>
<g style="fill:#B2803A; fill-opacity:1.0000; 
stroke:#B2803A; stroke-width:0.0000; stroke-opacity:1; 
stroke-linecap:round; stroke-linejoin:round;">
<path style="fill:#B2803A; fill-opacity:1.0000; 
stroke:#B2803A; stroke-width:0.0000; stroke-opacity:1; 
stroke-linecap:round; stroke-linejoin:round;fill-rule:evenodd;"
d="M 20.1082,8.0983
21.8082,8.0983
21.8082,9.7982
20.1082,9.7982
Z" /> 
<circle cx="18.4183" cy="8.9482" r="0.8500" /> 
<circle cx="15.8782" cy="8.9482" r="0.8500" /> 
<circle cx="13.3382" cy="8.9482" r="0.8500" /> 
<circle cx="10.7982" cy="8.9482" r="0.8500" /> 
<circle cx="8.2583" cy="8.9482" r="0.8500" /> 
<circle cx="5.7182" cy="8.9482" r="0.8500" /> 
<circle cx="3.1782" cy="8.9482" r="0.8500" /> 
</g>
<g >
</g>
<g >
</g>
<g >
</g>
<g style="fill:#121212; fill-opacity:1.0000; 
stroke:#121212; stroke-width:0.0000; stroke-opacity:1; 
stroke-linecap:round; stroke-linejoin:round;">
<circle cx="11.2332" cy="6.1732" r="0.4000" /> 
</g>
<g style="fill:#121212; fill-opacity:1.0000; 
stroke:#121212; stroke-width:0.0212; stroke-opacity:1; 
stroke-linecap:round; stroke-linejoin:round;">
</g>
<g style="fill:#121212; fill-opacity:1.0000; 
stroke:#121212; stroke-width:0.0000; stroke-opacity:1; 
stroke-linecap:round; stroke-linejoin:round;">
<circle cx="9.4832" cy="7.3232" r="0.4000" /> 
</g>
<g style="fill:#121212; fill-opacity:1.0000; 
stroke:#121212; stroke-width:0.0212; stroke-opacity:1; 
stroke-linecap:round; stroke-linejoin:round;">
</g>
<g style="fill:#121212; fill-opacity:1.0000; 
stroke:#121212; stroke-width:0.0000; stroke-opacity:1; 
stroke-linecap:round; stroke-linejoin:round;">
<circle cx="14.1582" cy="2.4482" r="0.4000" /> 
</g>
<g style="fill:#121212; fill-opacity:1.0000; 
stroke:#121212; stroke-width:0.0212; stroke-opacity:1; 
stroke-linecap:round; stroke-linejoin:round;">
</g>
<g style="fill:#121212; fill-opacity:1.0000; 
stroke:#121212; stroke-width:0.0000; stroke-opacity:1; 
stroke-linecap:round; stroke-linejoin:round;">
<circle cx="7.1582" cy="7.4482" r="0.4000" /> 
</g>
<g style="fill:#121212; fill-opacity:1.0000; 
stroke:#121212; stroke-width:0.0212; stroke-opacity:1; 
stroke-linecap:round; stroke-linejoin:round;">
</g>
<g style="fill:#121212; fill-opacity:1.0000; 
stroke:#121212; stroke-width:0.0000; stroke-opacity:1; 
stroke-linecap:round; stroke-linejoin:round;">
<circle cx="20.7583" cy="3.5482" r="0.4000" /> 
</g>
<g style="fill:#121212; fill-opacity:1.0000; 
stroke:#121212; stroke-width:0.0212; stroke-opacity:1; 
stroke-linecap:round; stroke-linejoin:round;">
</g>
<g style="fill:#121212; fill-opacity:1.0000; 
stroke:#121212; stroke-width:0.0000; stroke-opacity:1; 
stroke-linecap:round; stroke-linejoin:round;">
<circle cx="3.0582" cy="6.0482" r="0.4000" /> 
</g>
<g style="fill:#121212; fill-opacity:1.0000; 
stroke:#121212; stroke-width:0.0212; stroke-opacity:1; 
stroke-linecap:round; stroke-linejoin:round;">
</g>
<g >
</g>
<g style="fill:#B2803A; fill-opacity:1.0000; 
stroke:#B2803A; stroke-width:0.0212; stroke-opacity:1; 
stroke-linecap:round; stroke-linejoin:round;">
</g>
<g style="fill:#B2803A; fill-opacity:1.0000; 
stroke:#B2803A; stroke-width:0.2500; stroke-opacity:1; 
stroke-linecap:round; stroke-linejoin:round;">
</g>
<g style="fill:#B2803A; fill-opacity:0.0; 
stroke:#B2803A; stroke-width:0.2500; stroke-opacity:1; 
stroke-linecap:round; stroke-linejoin:round;">
<path d="M11.2332 6.1732
L5.9532 6.1732
" />
<path d="M5.9532 6.1732
L3.1782 8.9482
" />
<path d="M19.6582 2.4482
L20.7583 3.5482
" />
<path d="M5.7182 8.9482
L5.7182 8.8882
" />
<path d="M14.1582 2.4482
L19.6582 2.4482
" />
<path d="M5.7182 8.8882
L7.1582 7.4482
" />
</g>
<g >
</g>
<g style="fill:#B2803A; fill-opacity:0.0; 
stroke:#B2803A; stroke-width:0.2500; stroke-opacity:1; 
stroke-linecap:round; stroke-linejoin:round;">
<g >
</g>
<g style="fill:#B2803A; fill-opacity:1.0000; 
stroke:#B2803A; stroke-width:0.0000; stroke-opacity:1; 
stroke-linecap:round; stroke-linejoin:round;">
<path style="fill:#B2803A; fill-opacity:1.0000; 
stroke:#B2803A; stroke-width:0.0000; stroke-opacity:1; 
stroke-linecap:round; stroke-linejoin:round;fill-rule:evenodd;"
d="M 21.2418,1.8291
21.3353,1.8397
21.3628,1.8460
21.4416,1.8735
21.4670,1.8858
21.5377,1.9302
21.5597,1.9478
21.6187,2.0068
21.6363,2.0288
21.6807,2.0995
21.6930,2.1249
21.7205,2.2037
21.7268,2.2312
21.7374,2.3247
21.7377,2.3318
21.7377,7.4637
21.7177,7.5319
21.6641,7.5784
21.6118,7.5897
20.0596,7.5897
19.9991,7.5963
19.9990,7.5963
19.8620,7.6474
19.8620,7.6474
19.7450,7.7350
19.6574,7.8520
19.6574,7.8520
19.6133,7.9703
19.5707,8.0271
19.5042,8.0520
19.4348,8.0369
19.4025,8.0116
19.3415,7.9453
19.3415,7.9453
19.3415,7.9453
19.2216,7.8520
19.1638,7.8071
18.9658,7.6999
18.9658,7.6999
18.9658,7.6999
18.7529,7.6268
18.7529,7.6268
18.6753,7.6139
18.5308,7.5897
18.3057,7.5897
18.1612,7.6139
18.0836,7.6268
18.0836,7.6268
17.8707,7.6999
17.8707,7.6999
17.6727,7.8071
17.6727,7.8071
17.4950,7.9453
17.3425,8.1110
17.2537,8.2469
17.1997,8.2930
17.1294,8.3026
17.0650,8.2726
17.0428,8.2469
16.9540,8.1110
16.8245,7.9703
16.8015,7.9453
16.8015,7.9453
16.8015,7.9453
16.6816,7.8520
16.6238,7.8071
16.4258,7.6999
16.4258,7.6999
16.4258,7.6999
16.2129,7.6268
16.2129,7.6268
16.1353,7.6139
15.9908,7.5897
15.7657,7.5897
15.6212,7.6139
15.5436,7.6268
15.5436,7.6268
15.3307,7.6999
15.3307,7.6999
15.1327,7.8071
15.1327,7.8071
14.9550,7.9453
14.8025,8.1110
14.7137,8.2469
14.6597,8.2930
14.5894,8.3026
14.5250,8.2726
14.5028,8.2469
14.4140,8.1110
14.2845,7.9703
14.2615,7.9453
14.2615,7.9453
14.2615,7.9453
14.1416,7.8520
14.0838,7.8071
13.8858,7.6999
13.8858,7.6999
13.8858,7.6999
13.6729,7.6268
13.6729,7.6268
13.5953,7.6139
13.4508,7.5897
13.2257,7.5897
13.0812,7.6139
13.0036,7.6268
13.0036,7.6268
12.7907,7.6999
12.7907,7.6999
12.5927,7.8071
12.5927,7.8071
12.4150,7.9453
12.2625,8.1110
12.1737,8.2469
12.1197,8.2930
12.0494,8.3026
11.9850,8.2726
11.9628,8.2469
11.8740,8.1110
11.7445,7.9703
11.7215,7.9453
11.7215,7.9453
11.7215,7.9453
11.6016,7.8520
11.5438,7.8071
11.3458,7.6999
11.3458,7.6999
11.3458,7.6999
11.1329,7.6268
11.1329,7.6268
11.0553,7.6139
10.9108,7.5897
10.6857,7.5897
10.5412,7.6139
10.4636,7.6268
10.4636,7.6268
10.2507,7.6999
10.2507,7.6999
10.0527,7.8071
10.0527,7.8071
9.8750,7.9453
9.7225,8.1110
9.6337,8.2469
9.5797,8.2930
9.5094,8.3026
9.4450,8.2726
9.4228,8.2469
9.3340,8.1110
9.2045,7.9703
9.1815,7.9453
9.1815,7.9453
9.1815,7.9453
9.0616,7.8520
9.0038,7.8071
8.8058,7.6999
8.8058,7.6999
8.8058,7.6999
8.5929,7.6268
8.5929,7.6268
8.5153,7.6139
8.3708,7.5897
8.1457,7.5897
8.0012,7.6139
7.9236,7.6268
7.9236,7.6268
7.7107,7.6999
7.7107,7.6999
7.5127,7.8071
7.5127,7.8071
7.3350,7.9453
7.1825,8.1110
7.0934,8.2474
7.0394,8.2934
6.9691,8.3030
6.9047,8.2730
6.8825,8.2473
6.7936,8.1113
6.6412,7.9457
6.4636,7.8075
6.4635,7.8075
6.2656,7.7004
6.2656,7.7004
6.0528,7.6273
6.0528,7.6273
5.9722,7.6139
5.9722,8.5146
5.8606,8.4636
5.7540,8.4482
5.6825,8.4482
5.5759,8.4636
5.4642,8.5146
5.4642,7.6103
5.4843,7.5422
5.5012,7.5213
6.1787,6.8437
6.2411,6.8096
6.2678,6.8068
10.5251,6.8068
10.5932,6.8268
10.6187,6.8484
10.6220,6.8521
10.7765,6.9644
10.9510,7.0420
11.1378,7.0817
11.3287,7.0817
11.5155,7.0420
11.6900,6.9644
11.8445,6.8521
11.8673,6.8268
11.9723,6.7102
11.9723,6.7102
11.9723,6.7102
12.0678,6.5448
12.1268,6.3632
12.1468,6.1732
12.1268,5.9833
12.0678,5.8017
11.9723,5.6363
11.9723,5.6363
11.9723,5.6363
11.8445,5.4944
11.6900,5.3821
11.5155,5.3045
11.3287,5.2647
11.1378,5.2647
10.9510,5.3045
10.7765,5.3821
10.6220,5.4944
10.6187,5.4981
10.5582,5.5353
10.5251,5.5397
6.0371,5.5397
6.0213,5.5380
6.0212,5.5383
6.0133,5.5375
5.9433,5.5397
5.9134,5.5397
5.9134,5.5397
5.9134,5.5398
5.9064,5.5406
5.9005,5.5411
5.8534,5.5426
5.8339,5.5482
5.8146,5.5522
5.7945,5.5548
5.7945,5.5548
5.7506,5.5721
5.7450,5.5741
5.6997,5.5872
5.6997,5.5872
5.6822,5.5975
5.6645,5.6062
5.6456,5.6137
5.6456,5.6137
5.6075,5.6414
5.6025,5.6447
5.5619,5.6687
5.5619,5.6687
5.5476,5.6830
5.5325,5.6959
5.5161,5.7078
5.4861,5.7441
5.4821,5.7485
3.6360,7.5945
3.5737,7.6286
3.5180,7.6276
3.5180,7.6277
3.5178,7.6276
3.5160,7.6276
3.5129,7.6268
3.5129,7.6268
3.2908,7.5897
3.0657,7.5897
2.9212,7.6139
2.8436,7.6268
2.8436,7.6268
2.6307,7.6999
2.6307,7.6999
2.5947,7.7194
2.5253,7.7342
2.4589,7.7091
2.4165,7.6521
2.4087,7.6086
2.4087,2.3318
2.4091,2.3247
2.4197,2.2312
2.4260,2.2037
2.4535,2.1249
2.4658,2.0995
2.5102,2.0288
2.5278,2.0068
2.5868,1.9478
2.6088,1.9302
2.6795,1.8858
2.7049,1.8735
2.7837,1.8460
2.8112,1.8397
2.9047,1.8291
2.9118,1.8287
2.9741,1.8287
21.1724,1.8287
21.2347,1.8287
Z" /> 
</g>
</g>
</g>
<g style="fill:#000000; fill-opacity:1.0000; 
stroke:#000000; stroke-width:0.0000; stroke-opacity:1; 
stroke-linecap:round; stroke-linejoin:round;">
<circle cx="11.2332" cy="6.1732" r="0.2000" /> 
</g>
<g style="fill:#000000; fill-opacity:1.0000; 
stroke:#000000; stroke-width:0.0212; stroke-opacity:1; 
stroke-linecap:round; stroke-linejoin:round;">
</g>
<g style="fill:#000000; fill-opacity:1.0000; 
stroke:#000000; stroke-width:0.0000; stroke-opacity:1; 
stroke-linecap:round; stroke-linejoin:round;">
<circle cx="9.4832" cy="7.3232" r="0.2000" /> 
</g>
<g style="fill:#000000; fill-opacity:1.0000; 
stroke:#000000; stroke-width:0.0212; stroke-opacity:1; 
stroke-linecap:round; stroke-linejoin:round;">
</g>
<g style="fill:#000000; fill-opacity:1.0000; 
stroke:#000000; stroke-width:0.0000; stroke-opacity:1; 
stroke-linecap:round; stroke-linejoin:round;">
<circle cx="14.1582" cy="2.4482" r="0.2000" /> 
</g>
<g style="fill:#000000; fill-opacity:1.0000; 
stroke:#000000; stroke-width:0.0212; stroke-opacity:1; 
stroke-linecap:round; stroke-linejoin:round;">
</g>
<g style="fill:#000000; fill-opacity:1.0000; 
stroke:#000000; stroke-width:0.0000; stroke-opacity:1; 
stroke-linecap:round; stroke-linejoin:round;">
<circle cx="7.1582" cy="7.4482" r="0.2000" /> 
</g>
<g style="fill:#000000; fill-opacity:1.0000; 
stroke:#000000; stroke-width:0.0212; stroke-opacity:1; 
stroke-linecap:round; stroke-linejoin:round;">
</g>
<g style="fill:#000000; fill-opacity:1.0000; 
stroke:#000000; stroke-width:0.0000; stroke-opacity:1; 
stroke-linecap:round; stroke-linejoin:round;">
<circle cx="20.7583" cy="3.5482" r="0.2000" /> 
</g>
<g style="fill:#000000; fill-opacity:1.0000; 
stroke:#000000; stroke-width:0.0212; stroke-opacity:1; 
stroke-linecap:round; stroke-linejoin:round;">
</g>
<g style="fill:#000000; fill-opacity:1.0000; 
stroke:#000000; stroke-width:0.0000; stroke-opacity:1; 
stroke-linecap:round; stroke-linejoin:round;">
<circle cx="3.0582" cy="6.0482" r="0.2000" /> 
</g>
<g style="fill:#000000; fill-opacity:1.0000; 
stroke:#000000; stroke-width:0.0212; stroke-opacity:1; 
stroke-linecap:round; stroke-linejoin:round;">
</g>
<g style="fill:#000000; fill-opacity:1.0000; 
stroke:#000000; stroke-width:0.0000; stroke-opacity:1; 
stroke-linecap:round; stroke-linejoin:round;">
<circle cx="20.9582" cy="8.9482" r="0.5000" /> 
</g>
<g style="fill:#000000; fill-opacity:1.0000; 
stroke:#000000; stroke-width:0.0212; stroke-opacity:1; 
stroke-linecap:round; stroke-linejoin:round;">
</g>
<g style="fill:#000000; fill-opacity:1.0000; 
stroke:#000000; stroke-width:0.0000; stroke-opacity:1; 
stroke-linecap:round; stroke-linejoin:round;">
<circle cx="18.4183" cy="8.9482" r="0.5000" /> 
</g>
<g style="fill:#000000; fill-opacity:1.0000; 
stroke:#000000; stroke-width:0.0212; stroke-opacity:1; 
stroke-linecap:round; stroke-linejoin:round;">
</g>
<g style="fill:#000000; fill-opacity:1.0000; 
stroke:#000000; stroke-width:0.0000; stroke-opacity:1; 
stroke-linecap:round; stroke-linejoin:round;">
<circle cx="15.8782" cy="8.9482" r="0.5000" /> 
</g>
<g style="fill:#000000; fill-opacity:1.0000; 
stroke:#000000; stroke-width:0.0212; stroke-opacity:1; 
stroke-linecap:round; stroke-linejoin:round;">
</g>
<g style="fill:#000000; fill-opacity:1.0000; 
stroke:#000000; stroke-width:0.0000; stroke-opacity:1; 
stroke-linecap:round; stroke-linejoin:round;">
<circle cx="13.3382" cy="8.9482" r="0.5000" /> 
</g>
<g style="fill:#000000; fill-opacity:1.0000; 
stroke:#000000; stroke-width:0.0212; stroke-opacity:1; 
stroke-linecap:round; stroke-linejoin:round;">
</g>
<g style="fill:#000000; fill-opacity:1.0000; 
stroke:#000000; stroke-width:0.0000; stroke-opacity:1; 
stroke-linecap:round; stroke-linejoin:round;">
<circle cx="10.7982" cy="8.9482" r="0.5000" /> 
</g>
<g style="fill:#000000; fill-opacity:1.0000; 
stroke:#000000; stroke-width:0.0212; stroke-opacity:1; 
stroke-linecap:round; stroke-linejoin:round;">
</g>
<g style="fill:#000000; fill-opacity:1.0000; 
stroke:#000000; stroke-width:0.0000; stroke-opacity:1; 
stroke-linecap:round; stroke-linejoin:round;">
<circle cx="8.2583" cy="8.9482" r="0.5000" /> 
</g>
<g style="fill:#000000; fill-opacity:1.0000; 
stroke:#000000; stroke-width:0.0212; stroke-opacity:1; 
stroke-linecap:round; stroke-linejoin:round;">
</g>
<g style="fill:#000000; fill-opacity:1.0000; 
stroke:#000000; stroke-width:0.0000; stroke-opacity:1; 
stroke-linecap:round; stroke-linejoin:round;">
<circle cx="5.7182" cy="8.9482" r="0.5000" /> 
</g>
<g style="fill:#000000; fill-opacity:1.0000; 
stroke:#000000; stroke-width:0.0212; stroke-opacity:1; 
stroke-linecap:round; stroke-linejoin:round;">
</g>
<g style="fill:#000000; fill-opacity:1.0000; 
stroke:#000000; stroke-width:0.0000; stroke-opacity:1; 
stroke-linecap:round; stroke-linejoin:round;">
<circle cx="3.1782" cy="8.9482" r="0.5000" /> 
</g>
<g style="fill:#000000; fill-opacity:1.0000; 
stroke:#000000; stroke-width:0.0212; stroke-opacity:1; 
stroke-linecap:round; stroke-linejoin:round;">
</g>
<g style="fill:#FFFFFF; fill-opacity:1.0000; 
stroke:#FFFFFF; stroke-width:0.0212; stroke-opacity:1; 
stroke-linecap:round; stroke-linejoin:round;">
</g>
<g style="fill:#37CBCB; fill-opacity:1.0000; 
stroke:#37CBCB; stroke-width:0.0212; stroke-opacity:1; 
stroke-linecap:round; stroke-linejoin:round;">
</g>
<g style="fill:#37CBCB; fill-opacity:1.0000; 
stroke:#37CBCB; stroke-width:0.0000; stroke-opacity:1; 
stroke-linecap:round; stroke-linejoin:round;">
<path style="fill:#37CBCB; fill-opacity:1.0000; 
stroke:#37CBCB; stroke-width:0.0000; stroke-opacity:1; 
stroke-linecap:round; stroke-linejoin:round;fill-rule:evenodd;"
d="M 8.1082,4.0057
7.6082,4.0057
7.6082,3.7212
8.1082,3.7212
Z" /> 
<g >
<path style="fill:#37CBCB; fill-opacity:1.0000; 
stroke:#37CBCB; stroke-width:0.0000; stroke-opacity:1; 
stroke-linecap:round; stroke-linejoin:round;fill-rule:evenodd;"
d="M 6.2632,6.0882
6.2735,6.0366
6.3028,5.9928
6.3466,5.9635
6.3982,5.9532
6.6682,5.9532
6.7199,5.9635
6.7637,5.9928
6.7930,6.0366
6.8032,6.0882
6.8032,6.4582
6.7930,6.5099
6.7637,6.5537
6.7199,6.5830
6.6682,6.5932
6.3982,6.5932
6.3466,6.5830
6.3028,6.5537
6.2735,6.5099
6.2632,6.4582
Z" /> 
<path style="fill:#37CBCB; fill-opacity:1.0000; 
stroke:#37CBCB; stroke-width:0.0000; stroke-opacity:1; 
stroke-linecap:round; stroke-linejoin:round;fill-rule:evenodd;"
d="M 7.2832,6.0882
7.2935,6.0366
7.3228,5.9928
7.3666,5.9635
7.4182,5.9532
7.6883,5.9532
7.7399,5.9635
7.7837,5.9928
7.8130,6.0366
7.8232,6.0882
7.8232,6.4582
7.8130,6.5099
7.7837,6.5537
7.7399,6.5830
7.6883,6.5932
7.4182,6.5932
7.3666,6.5830
7.3228,6.5537
7.2935,6.5099
7.2832,6.4582
Z" /> 
</g>
<g >
</g>
<g style="fill:#37CBCB; fill-opacity:1.0000; 
stroke:#37CBCB; stroke-width:0.0000; stroke-opacity:1; 
stroke-linecap:round; stroke-linejoin:round;">
<path style="fill:#37CBCB; fill-opacity:1.0000; 
stroke:#37CBCB; stroke-width:0.0000; stroke-opacity:1; 
stroke-linecap:round; stroke-linejoin:round;fill-rule:evenodd;"
d="M 18.0882,6.3032
18.0768,6.3607
18.0443,6.4093
17.9957,6.4418
17.9383,6.4532
16.2882,6.4532
16.2308,6.4418
16.1822,6.4093
16.1497,6.3607
16.1382,6.3032
16.1382,6.0032
16.1497,5.9458
16.1822,5.8972
16.2308,5.8647
16.2882,5.8533
17.9383,5.8533
17.9957,5.8647
18.0443,5.8972
18.0768,5.9458
18.0882,6.0032
Z" /> 
<path style="fill:#37CBCB; fill-opacity:1.0000; 
stroke:#37CBCB; stroke-width:0.0000; stroke-opacity:1; 
stroke-linecap:round; stroke-linejoin:round;fill-rule:evenodd;"
d="M 18.0882,5.0332
18.0768,5.0907
18.0443,5.1393
17.9957,5.1718
17.9383,5.1833
16.2882,5.1833
16.2308,5.1718
16.1822,5.1393
16.1497,5.0907
16.1382,5.0332
16.1382,4.7332
16.1497,4.6758
16.1822,4.6272
16.2308,4.5947
16.2882,4.5832
17.9383,4.5832
17.9957,4.5947
18.0443,4.6272
18.0768,4.6758
18.0882,4.7332
Z" /> 
<path style="fill:#37CBCB; fill-opacity:1.0000; 
stroke:#37CBCB; stroke-width:0.0000; stroke-opacity:1; 
stroke-linecap:round; stroke-linejoin:round;fill-rule:evenodd;"
d="M 18.0882,3.7632
18.0768,3.8207
18.0443,3.8693
17.9957,3.9018
17.9383,3.9132
16.2882,3.9132
16.2308,3.9018
16.1822,3.8693
16.1497,3.8207
16.1382,3.7632
16.1382,3.4632
16.1497,3.4058
16.1822,3.3572
16.2308,3.3247
16.2882,3.3133
17.9383,3.3133
17.9957,3.3247
18.0443,3.3572
18.0768,3.4058
18.0882,3.4632
Z" /> 
<path style="fill:#37CBCB; fill-opacity:1.0000; 
stroke:#37CBCB; stroke-width:0.0000; stroke-opacity:1; 
stroke-linecap:round; stroke-linejoin:round;fill-rule:evenodd;"
d="M 18.0882,2.4932
18.0768,2.5507
18.0443,2.5993
17.9957,2.6318
17.9383,2.6433
16.2882,2.6433
16.2308,2.6318
16.1822,2.5993
16.1497,2.5507
16.1382,2.4932
16.1382,2.1932
16.1497,2.1358
16.1822,2.0872
16.2308,2.0547
16.2882,2.0433
17.9383,2.0433
17.9957,2.0547
18.0443,2.0872
18.0768,2.1358
18.0882,2.1932
Z" /> 
<path style="fill:#37CBCB; fill-opacity:1.0000; 
stroke:#37CBCB; stroke-width:0.0000; stroke-opacity:1; 
stroke-linecap:round; stroke-linejoin:round;fill-rule:evenodd;"
d="M 13.1382,2.4932
13.1268,2.5507
13.0943,2.5993
13.0457,2.6318
12.9882,2.6433
11.3382,2.6433
11.2808,2.6318
11.2322,2.5993
11.1997,2.5507
11.1883,2.4932
11.1883,2.1932
11.1997,2.1358
11.2322,2.0872
11.2808,2.0547
11.3382,2.0433
12.9882,2.0433
13.0457,2.0547
13.0943,2.0872
13.1268,2.1358
13.1382,2.1932
Z" /> 
<path style="fill:#37CBCB; fill-opacity:1.0000; 
stroke:#37CBCB; stroke-width:0.0000; stroke-opacity:1; 
stroke-linecap:round; stroke-linejoin:round;fill-rule:evenodd;"
d="M 13.1382,3.7632
13.1268,3.8207
13.0943,3.8693
13.0457,3.9018
12.9882,3.9132
11.3382,3.9132
11.2808,3.9018
11.2322,3.8693
11.1997,3.8207
11.1883,3.7632
11.1883,3.4632
11.1997,3.4058
11.2322,3.3572
11.2808,3.3247
11.3382,3.3133
12.9882,3.3133
13.0457,3.3247
13.0943,3.3572
13.1268,3.4058
13.1382,3.4632
Z" /> 
<path style="fill:#37CBCB; fill-opacity:1.0000; 
stroke:#37CBCB; stroke-width:0.0000; stroke-opacity:1; 
stroke-linecap:round; stroke-linejoin:round;fill-rule:evenodd;"
d="M 13.1382,5.0332
13.1268,5.0907
13.0943,5.1393
13.0457,5.1718
12.9882,5.1833
11.3382,5.1833
11.2808,5.1718
11.2322,5.1393
11.1997,5.0907
11.1883,5.0332
11.1883,4.7332
11.1997,4.6758
11.2322,4.6272
11.2808,4.5947
11.3382,4.5832
12.9882,4.5832
13.0457,4.5947
13.0943,4.6272
13.1268,4.6758
13.1382,4.7332
Z" /> 
<path style="fill:#37CBCB; fill-opacity:1.0000; 
stroke:#37CBCB; stroke-width:0.0000; stroke-opacity:1; 
stroke-linecap:round; stroke-linejoin:round;fill-rule:evenodd;"
d="M 13.1382,6.3032
13.1268,6.3607
13.0943,6.4093
13.0457,6.4418
12.9882,6.4532
11.3382,6.4532
11.2808,6.4418
11.2322,6.4093
11.1997,6.3607
11.1883,6.3032
11.1883,6.0032
11.1997,5.9458
11.2322,5.8972
11.2808,5.8647
11.3382,5.8533
12.9882,5.8533
13.0457,5.8647
13.0943,5.8972
13.1268,5.9458
13.1382,6.0032
Z" /> 
</g>
<g >
</g>
<g style="fill:#37CBCB; fill-opacity:1.0000; 
stroke:#37CBCB; stroke-width:0.0000; stroke-opacity:1; 
stroke-linecap:round; stroke-linejoin:round;">
<path style="fill:#37CBCB; fill-opacity:1.0000; 
stroke:#37CBCB; stroke-width:0.0000; stroke-opacity:1; 
stroke-linecap:round; stroke-linejoin:round;fill-rule:evenodd;"
d="M 20.1082,8.0983
21.8082,8.0983
21.8082,9.7982
20.1082,9.7982
Z" /> 
<circle cx="18.4183" cy="8.9482" r="0.8500" /> 
<circle cx="15.8782" cy="8.9482" r="0.8500" /> 
<circle cx="13.3382" cy="8.9482" r="0.8500" /> 
<circle cx="10.7982" cy="8.9482" r="0.8500" /> 
<circle cx="8.2583" cy="8.9482" r="0.8500" /> 
<circle cx="5.7182" cy="8.9482" r="0.8500" /> 
<circle cx="3.1782" cy="8.9482" r="0.8500" /> 
</g>
<g >
</g>
<g style="fill:#37CBCB; fill-opacity:1.0000; 
stroke:#37CBCB; stroke-width:0.0000; stroke-opacity:1; 
stroke-linecap:round; stroke-linejoin:round;">
<path style="fill:#37CBCB; fill-opacity:1.0000; 
stroke:#37CBCB; stroke-width:0.0000; stroke-opacity:1; 
stroke-linecap:round; stroke-linejoin:round;fill-rule:evenodd;"
d="M 8.0083,3.0982
8.5083,3.0982
8.5083,3.1033
8.5794,3.1033
8.7160,3.1434
8.8357,3.2204
8.9289,3.3279
8.9880,3.4574
9.0083,3.5982
9.0083,4.0983
8.9880,4.2391
8.9289,4.3686
8.8357,4.4761
8.7160,4.5531
8.5794,4.5932
8.5083,4.5932
8.5083,4.5983
8.0083,4.5983
Z" /> 
<path style="fill:#37CBCB; fill-opacity:1.0000; 
stroke:#37CBCB; stroke-width:0.0000; stroke-opacity:1; 
stroke-linecap:round; stroke-linejoin:round;fill-rule:evenodd;"
d="M 7.2082,4.5932
7.1371,4.5932
7.0005,4.5531
6.8808,4.4761
6.7876,4.3686
6.7285,4.2391
6.7082,4.0983
6.7082,3.5982
6.7285,3.4574
6.7876,3.3279
6.8808,3.2204
7.0005,3.1434
7.1371,3.1033
7.2082,3.1033
7.2082,3.0982
7.7082,3.0982
7.7082,4.5983
7.2082,4.5983
Z" /> 
</g>
<g >
</g>
<g style="fill:#37CBCB; fill-opacity:1.0000; 
stroke:#37CBCB; stroke-width:0.0000; stroke-opacity:1; 
stroke-linecap:round; stroke-linejoin:round;">
<path style="fill:#37CBCB; fill-opacity:1.0000; 
stroke:#37CBCB; stroke-width:0.0000; stroke-opacity:1; 
stroke-linecap:round; stroke-linejoin:round;fill-rule:evenodd;"
d="M 10.3133,6.4682
10.3026,6.5218
10.2722,6.5672
10.2268,6.5976
10.1732,6.6082
9.8933,6.6082
9.8397,6.5976
9.7943,6.5672
9.7639,6.5218
9.7532,6.4682
9.7532,6.1282
9.7639,6.0747
9.7943,6.0293
9.8397,5.9989
9.8933,5.9882
10.1732,5.9882
10.2268,5.9989
10.2722,6.0293
10.3026,6.0747
10.3133,6.1282
Z" /> 
<path style="fill:#37CBCB; fill-opacity:1.0000; 
stroke:#37CBCB; stroke-width:0.0000; stroke-opacity:1; 
stroke-linecap:round; stroke-linejoin:round;fill-rule:evenodd;"
d="M 9.3532,6.4682
9.3426,6.5218
9.3122,6.5672
9.2668,6.5976
9.2133,6.6082
8.9332,6.6082
8.8797,6.5976
8.8343,6.5672
8.8039,6.5218
8.7933,6.4682
8.7933,6.1282
8.8039,6.0747
8.8343,6.0293
8.8797,5.9989
8.9332,5.9882
9.2133,5.9882
9.2668,5.9989
9.3122,6.0293
9.3426,6.0747
9.3532,6.1282
Z" /> 
</g>
<g >
</g>
<g style="fill:#121212; fill-opacity:1.0000; 
stroke:#121212; stroke-width:0.0000; stroke-opacity:1; 
stroke-linecap:round; stroke-linejoin:round;">
<circle cx="11.2332" cy="6.1732" r="0.4000" /> 
</g>
<g style="fill:#121212; fill-opacity:1.0000; 
stroke:#121212; stroke-width:0.0212; stroke-opacity:1; 
stroke-linecap:round; stroke-linejoin:round;">
</g>
<g style="fill:#121212; fill-opacity:1.0000; 
stroke:#121212; stroke-width:0.0000; stroke-opacity:1; 
stroke-linecap:round; stroke-linejoin:round;">
<circle cx="9.4832" cy="7.3232" r="0.4000" /> 
</g>
<g style="fill:#121212; fill-opacity:1.0000; 
stroke:#121212; stroke-width:0.0212; stroke-opacity:1; 
stroke-linecap:round; stroke-linejoin:round;">
</g>
<g style="fill:#121212; fill-opacity:1.0000; 
stroke:#121212; stroke-width:0.0000; stroke-opacity:1; 
stroke-linecap:round; stroke-linejoin:round;">
<circle cx="14.1582" cy="2.4482" r="0.4000" /> 
</g>
<g style="fill:#121212; fill-opacity:1.0000; 
stroke:#121212; stroke-width:0.0212; stroke-opacity:1; 
stroke-linecap:round; stroke-linejoin:round;">
</g>
<g style="fill:#121212; fill-opacity:1.0000; 
stroke:#121212; stroke-width:0.0000; stroke-opacity:1; 
stroke-linecap:round; stroke-linejoin:round;">
<circle cx="7.1582" cy="7.4482" r="0.4000" /> 
</g>
<g style="fill:#121212; fill-opacity:1.0000; 
stroke:#121212; stroke-width:0.0212; stroke-opacity:1; 
stroke-linecap:round; stroke-linejoin:round;">
</g>
<g style="fill:#121212; fill-opacity:1.0000; 
stroke:#121212; stroke-width:0.0000; stroke-opacity:1; 
stroke-linecap:round; stroke-linejoin:round;">
<circle cx="20.7583" cy="3.5482" r="0.4000" /> 
</g>
<g style="fill:#121212; fill-opacity:1.0000; 
stroke:#121212; stroke-width:0.0212; stroke-opacity:1; 
stroke-linecap:round; stroke-linejoin:round;">
</g>
<g style="fill:#121212; fill-opacity:1.0000; 
stroke:#121212; stroke-width:0.0000; stroke-opacity:1; 
stroke-linecap:round; stroke-linejoin:round;">
<circle cx="3.0582" cy="6.0482" r="0.4000" /> 
</g>
<g style="fill:#121212; fill-opacity:1.0000; 
stroke:#121212; stroke-width:0.0212; stroke-opacity:1; 
stroke-linecap:round; stroke-linejoin:round;">
</g>
<g >
</g>
<g style="fill:#37CBCB; fill-opacity:1.0000; 
stroke:#37CBCB; stroke-width:0.0212; stroke-opacity:1; 
stroke-linecap:round; stroke-linejoin:round;">
</g>
<g style="fill:#37CBCB; fill-opacity:1.0000; 
stroke:#37CBCB; stroke-width:0.2500; stroke-opacity:1; 
stroke-linecap:round; stroke-linejoin:round;">
</g>
<g style="fill:#37CBCB; fill-opacity:0.0; 
stroke:#37CBCB; stroke-width:0.2500; stroke-opacity:1; 
stroke-linecap:round; stroke-linejoin:round;">
<path d="M17.1133 2.3432
L16.6955 2.3432
" />
<path d="M16.6955 2.3432
L14.5135 4.5252
" />
<path d="M14.5135 4.5252
L14.5135 6.5976
" />
<path d="M14.5135 6.5976
L13.3382 7.7729
" />
<path d="M13.3382 8.9482
L13.3382 7.7729
" />
<path d="M15.3289 5.0085
L16.7242 3.6132
" />
<path d="M16.7242 3.6132
L17.1133 3.6132
" />
<path d="M15.8782 7.7729
L15.3289 7.2236
" />
<path d="M15.3289 7.2236
L15.3289 5.0085
" />
<path d="M15.8782 8.9482
L15.8782 7.7729
" />
<path d="M18.4183 8.9482
L17.2430 8.9482
" />
<path d="M15.7793 6.4666
L17.2430 7.9303
" />
<path d="M15.7793 5.7856
L15.7793 6.4666
" />
<path d="M17.1133 4.8832
L16.6818 4.8832
" />
<path d="M16.6818 4.8832
L15.7793 5.7856
" />
<path d="M17.2430 7.9303
L17.2430 8.9482
" />
<path d="M17.1133 6.1532
L17.3758 6.1532
" />
<path d="M17.3758 6.1532
L19.7829 8.5604
" />
<path d="M20.9582 8.9482
L19.7829 8.9482
" />
<path d="M19.7829 8.5604
L19.7829 8.9482
" />
<path d="M10.0332 6.2982
L11.1082 6.2982
" />
<path d="M11.1082 6.2982
L11.2332 6.1732
" />
<path d="M11.2532 6.1532
L11.2332 6.1732
" />
<path d="M12.1632 6.1532
L11.2532 6.1532
" />
<path d="M5.7182 8.9482
L3.0582 6.2882
" />
<path d="M12.1632 2.3432
L14.0533 2.3432
" />
<path d="M6.9977 2.3432
L5.7182 3.6227
" />
<path d="M5.7182 3.6227
L5.7182 8.9482
" />
<path d="M9.0732 6.9132
L9.4832 7.3232
" />
<path d="M14.0533 2.3432
L14.1582 2.4482
" />
<path d="M9.0732 6.2982
L9.0732 6.9132
" />
<path d="M12.1632 2.3432
L6.9977 2.3432
" />
<path d="M3.0582 6.2882
L3.0582 6.0482
" />
<path d="M8.9432 4.8832
L7.5532 6.2732
" />
<path d="M7.5532 6.2732
L7.8232 6.2732
" />
<path d="M12.1632 4.8832
L8.9432 4.8832
" />
<path d="M8.2583 6.7082
L8.2583 8.9482
" />
<path d="M7.8232 6.2732
L8.2583 6.7082
" />
<path d="M12.5963 3.6132
L13.4647 4.4817
" />
<path d="M13.4647 4.4817
L13.4647 6.5371
" />
<path d="M10.7982 8.9482
L11.9735 8.9482
" />
<path d="M8.5083 3.8482
L8.7432 3.6132
" />
<path d="M12.1632 3.6132
L12.5963 3.6132
" />
<path d="M11.9735 8.0283
L11.9735 8.9482
" />
<path d="M8.7432 3.6132
L12.1632 3.6132
" />
<path d="M13.4647 6.5371
L11.9735 8.0283
" />
<path d="M6.5332 6.2732
L6.5332 4.5232
" />
<path d="M6.5332 4.5232
L7.2082 3.8482
" />
</g>
<g >
</g>
<g style="fill:#37CBCB; fill-opacity:0.0; 
stroke:#37CBCB; stroke-width:0.2500; stroke-opacity:1; 
stroke-linecap:round; stroke-linejoin:round;">
<g >
</g>
<g style="fill:#37CBCB; fill-opacity:1.0000; 
stroke:#37CBCB; stroke-width:0.0000; stroke-opacity:1; 
stroke-linecap:round; stroke-linejoin:round;">
<path style="fill:#37CBCB; fill-opacity:1.0000; 
stroke:#37CBCB; stroke-width:0.0000; stroke-opacity:1; 
stroke-linecap:round; stroke-linejoin:round;fill-rule:evenodd;"
d="M 10.6592,1.8488
10.7057,1.9024
10.7158,1.9727
10.7121,1.9899
10.6833,2.0892
13.6432,2.0892
13.6144,1.9899
13.6146,1.9189
13.6531,1.8593
13.7178,1.8300
13.7354,1.8287
15.5406,1.8287
15.6087,1.8488
15.6552,1.9024
15.6653,1.9727
15.6616,1.9899
15.6327,2.0894
15.6327,2.0894
15.6297,2.1267
15.6297,2.4609
15.6097,2.5290
15.5928,2.5499
14.1249,4.0179
14.1124,4.0279
14.1126,4.0281
14.1065,4.0332
14.1044,4.0354
14.1023,4.0366
14.1004,4.0382
14.1002,4.0379
14.0432,4.0714
13.9723,4.0685
13.9323,4.0462
13.8939,4.0145
13.8895,4.0105
13.6837,3.8046
13.6496,3.7423
13.6467,3.7156
13.6467,3.3967
13.6438,3.3594
13.6438,3.3594
13.5974,3.1996
13.5974,3.1996
13.5974,3.1996
13.5127,3.0564
13.5116,3.0551
13.5111,3.0538
13.5087,3.0496
13.5093,3.0492
13.4857,2.9890
13.4996,2.9194
13.5116,2.9006
13.5123,2.8997
13.5969,2.7567
13.6432,2.5972
10.6833,2.5972
10.7296,2.7567
10.7491,2.7896
10.7665,2.8584
10.7440,2.9258
10.6887,2.9702
10.6406,2.9797
9.3712,2.9797
9.3031,2.9597
9.2760,2.9363
9.2288,2.8817
9.2280,2.8809
9.2273,2.8801
9.1720,2.8322
9.1168,2.7843
9.0737,2.7567
8.9958,2.7066
8.8628,2.6458
8.7249,2.6053
8.7249,2.6053
8.7249,2.6053
8.5801,2.5845
8.0083,2.5845
7.9824,2.5864
7.9351,2.5897
7.9351,2.5897
7.8988,2.6004
7.8454,2.6042
7.7083,2.5845
7.7082,2.5845
7.1364,2.5845
6.9992,2.6042
6.9916,2.6053
6.9916,2.6053
6.8537,2.6458
6.7207,2.7066
6.7207,2.7066
6.5997,2.7843
6.5997,2.7843
6.4892,2.8801
6.3950,2.9887
6.3160,3.1117
6.3160,3.1117
6.2561,3.2429
6.2556,3.2447
6.2151,3.3828
6.2151,3.3828
6.1946,3.5251
6.1946,3.5817
6.1945,3.5820
6.1945,3.9139
6.1745,3.9820
6.1576,4.0030
6.1446,4.0160
6.1322,4.0260
6.1323,4.0262
6.1262,4.0312
6.0783,4.0823
6.0571,4.1035
6.0528,4.1090
6.0490,4.1135
6.0167,4.1479
6.0167,4.1479
6.0069,4.1657
5.9961,4.1822
5.9836,4.1982
5.9649,4.2415
5.9623,4.2468
5.9396,4.2882
5.9396,4.2882
5.9345,4.3078
5.9281,4.3265
5.9201,4.3451
5.9127,4.3917
5.9115,4.3975
5.8998,4.4432
5.8998,4.4635
5.8982,4.4832
5.8950,4.5032
5.8950,4.5032
5.8995,4.5502
5.8998,4.5561
5.8998,5.6326
5.8822,5.6967
5.8030,5.8306
5.7576,5.9868
5.7547,6.0233
5.7548,6.5232
5.7576,6.5597
5.8030,6.7158
5.8857,6.8558
5.8857,6.8558
6.0007,6.9708
6.0007,6.9708
6.1406,7.0535
6.1407,7.0535
6.1407,7.0535
6.2378,7.0817
6.2968,7.0989
6.3333,7.1018
6.3333,7.1017
6.3333,7.1018
6.6000,7.1017
6.7332,7.1017
6.7515,7.1003
6.7697,7.0989
6.9258,7.0535
6.9791,7.0220
7.0479,7.0046
7.1074,7.0220
7.1607,7.0535
7.3168,7.0989
7.3168,7.0989
7.3533,7.1018
7.3533,7.1017
7.3533,7.1018
7.4987,7.1017
7.5669,7.1218
7.6134,7.1754
7.6247,7.2277
7.6247,7.6713
7.6047,7.7394
7.5587,7.7821
7.5127,7.8071
7.5127,7.8071
7.3350,7.9453
7.1825,8.1110
7.0934,8.2474
7.0394,8.2934
6.9691,8.3030
6.9047,8.2730
6.8825,8.2473
6.7936,8.1113
6.6412,7.9457
6.4636,7.8075
6.4635,7.8075
6.2656,7.7004
6.2656,7.7004
6.0528,7.6273
6.0528,7.6273
5.9722,7.6139
5.9722,8.5146
5.8606,8.4636
5.7540,8.4482
5.6825,8.4482
5.5759,8.4636
5.4642,8.5146
5.4642,7.6139
5.4642,7.6139
5.3837,7.6273
5.3837,7.6273
5.1709,7.7004
5.1709,7.7004
4.9729,7.8075
4.9729,7.8075
4.7953,7.9457
4.6429,8.1113
4.5540,8.2474
4.5000,8.2934
4.4297,8.3030
4.3653,8.2730
4.3431,8.2474
4.3041,8.1878
4.2540,8.1110
4.2540,8.1110
4.1378,7.9848
4.1015,7.9453
4.1015,7.9453
4.1015,7.9453
4.0196,7.8816
3.9238,7.8071
3.7258,7.6999
3.7258,7.6999
3.7258,7.6999
3.5129,7.6268
3.5129,7.6268
3.4687,7.6194
3.2908,7.5897
3.0657,7.5897
2.9212,7.6139
2.8436,7.6268
2.8436,7.6268
2.6307,7.6999
2.6307,7.6999
2.6244,7.7033
2.5947,7.7194
2.5253,7.7342
2.4589,7.7091
2.4165,7.6521
2.4087,7.6086
2.4087,2.3318
2.4091,2.3247
2.4197,2.2312
2.4260,2.2037
2.4529,2.1267
2.4535,2.1249
2.4658,2.0995
2.5102,2.0288
2.5278,2.0068
2.5868,1.9478
2.6088,1.9302
2.6795,1.8858
2.7049,1.8735
2.7837,1.8460
2.8112,1.8397
2.9047,1.8291
2.9118,1.8287
2.9741,1.8287
10.5911,1.8287
Z" /> 
<path style="fill:#37CBCB; fill-opacity:1.0000; 
stroke:#37CBCB; stroke-width:0.0000; stroke-opacity:1; 
stroke-linecap:round; stroke-linejoin:round;fill-rule:evenodd;"
d="M 9.1869,6.0643
9.2334,6.1179
9.2447,6.1702
9.2447,6.5337
9.2476,6.5705
9.2705,6.6492
9.2899,6.7158
9.2934,6.7278
9.3097,6.7555
9.3272,6.8196
9.3272,7.1099
9.4726,7.0677
9.4886,7.0582
9.5574,7.0408
9.6169,7.0582
9.6337,7.0681
9.7910,7.1139
9.7983,7.1144
9.8278,7.1167
9.8278,7.1167
10.2387,7.1167
10.2632,7.1148
10.2755,7.1139
10.4328,7.0681
10.5739,6.9847
10.5769,6.9818
10.5900,6.9687
10.6523,6.9346
10.6791,6.9318
10.6907,6.9318
10.7588,6.9518
10.7647,6.9558
10.7765,6.9644
10.9510,7.0420
11.1378,7.0817
11.3287,7.0817
11.5155,7.0420
11.6714,6.9726
11.7227,6.9617
11.8401,6.9617
11.9082,6.9818
11.9547,7.0354
11.9648,7.1057
11.9353,7.1703
11.9291,7.1768
11.5849,7.5211
11.5725,7.5311
11.5726,7.5313
11.5665,7.5364
11.5186,7.5874
11.4974,7.6086
11.4974,7.6086
11.4931,7.6141
11.4893,7.6186
11.4523,7.6580
11.3911,7.6939
11.3202,7.6911
11.3196,7.6909
11.1329,7.6268
11.1329,7.6268
11.0887,7.6194
10.9108,7.5897
10.6857,7.5897
10.5412,7.6139
10.4636,7.6268
10.4636,7.6268
10.2507,7.6999
10.2507,7.6999
10.0527,7.8071
10.0527,7.8071
9.8750,7.9453
9.7225,8.1110
9.6337,8.2469
9.5797,8.2930
9.5094,8.3026
9.4450,8.2726
9.4228,8.2469
9.3340,8.1110
9.2178,7.9848
9.1815,7.9453
9.1815,7.9453
9.1815,7.9453
9.0996,7.8816
9.0038,7.8071
8.9759,7.7919
8.9578,7.7821
8.9074,7.7321
8.8918,7.6713
8.8918,6.7921
8.8935,6.7763
8.8932,6.7762
8.8940,6.7683
8.8918,6.6983
8.8918,6.6684
8.8918,6.6684
8.8909,6.6614
8.8904,6.6555
8.8889,6.6084
8.8833,6.5889
8.8793,6.5695
8.8767,6.5495
8.8593,6.5056
8.8574,6.5000
8.8443,6.4547
8.8410,6.4492
8.8368,6.4420
8.8193,6.3779
8.8193,6.1702
8.8393,6.1021
8.8929,6.0556
8.9452,6.0442
9.1188,6.0442
Z" /> 
<path style="fill:#37CBCB; fill-opacity:1.0000; 
stroke:#37CBCB; stroke-width:0.0000; stroke-opacity:1; 
stroke-linecap:round; stroke-linejoin:round;fill-rule:evenodd;"
d="M 21.2418,1.8291
21.3353,1.8397
21.3628,1.8460
21.4416,1.8735
21.4670,1.8858
21.5377,1.9302
21.5597,1.9478
21.6187,2.0068
21.6363,2.0288
21.6807,2.0995
21.6930,2.1249
21.7205,2.2037
21.7268,2.2312
21.7374,2.3247
21.7377,2.3318
21.7377,7.4637
21.7177,7.5319
21.6641,7.5784
21.6118,7.5897
20.0596,7.5897
19.9991,7.5963
19.9990,7.5963
19.8678,7.6452
19.7970,7.6503
19.7347,7.6163
18.6299,6.5115
18.5959,6.4492
18.5934,6.4125
18.5938,6.4071
18.5938,6.4071
18.5968,6.3698
18.5968,5.9367
18.5938,5.8994
18.5474,5.7396
18.5474,5.7396
18.5474,5.7396
18.4627,5.5964
18.4627,5.5964
18.4627,5.5964
18.4627,5.5964
18.4620,5.5955
18.4616,5.5946
18.4587,5.5896
18.4595,5.5891
18.4360,5.5294
18.4499,5.4598
18.4620,5.4410
18.4627,5.4401
18.4627,5.4401
18.5314,5.3239
18.5474,5.2969
18.5474,5.2969
18.5474,5.2969
18.5938,5.1371
18.5968,5.0998
18.5968,4.6667
18.5938,4.6294
18.5474,4.4696
18.5474,4.4696
18.5474,4.4696
18.4627,4.3264
18.4627,4.3264
18.4627,4.3264
18.4627,4.3264
18.4620,4.3255
18.4616,4.3246
18.4587,4.3196
18.4595,4.3191
18.4360,4.2594
18.4499,4.1898
18.4620,4.1710
18.4627,4.1701
18.4627,4.1701
18.5211,4.0714
18.5474,4.0269
18.5474,4.0269
18.5474,4.0269
18.5938,3.8671
18.5968,3.8298
18.5968,3.3967
18.5938,3.3594
18.5474,3.1996
18.5474,3.1996
18.5474,3.1996
18.4627,3.0564
18.4627,3.0564
18.4627,3.0564
18.4627,3.0564
18.4620,3.0555
18.4616,3.0546
18.4587,3.0496
18.4595,3.0491
18.4360,2.9894
18.4499,2.9198
18.4620,2.9010
18.4627,2.9001
18.4627,2.9001
18.5474,2.7569
18.5938,2.5971
18.5968,2.5598
18.5968,2.1267
18.5966,2.1249
18.5938,2.0894
18.5938,2.0894
18.5938,2.0892
18.5649,1.9899
18.5651,1.9189
18.6037,1.8593
18.6683,1.8300
18.6859,1.8287
21.1724,1.8287
21.2347,1.8287
Z" /> 
</g>
</g>
</g>
<g style="fill:#000000; fill-opacity:1.0000; 
stroke:#000000; stroke-width:0.0000; stroke-opacity:1; 
stroke-linecap:round; stroke-linejoin:round;">
<circle cx="11.2332" cy="6.1732" r="0.2000" /> 
</g>
<g style="fill:#000000; fill-opacity:1.0000; 
stroke:#000000; stroke-width:0.0212; stroke-opacity:1; 
stroke-linecap:round; stroke-linejoin:round;">
</g>
<g style="fill:#000000; fill-opacity:1.0000; 
stroke:#000000; stroke-width:0.0000; stroke-opacity:1; 
stroke-linecap:round; stroke-linejoin:round;">
<circle cx="9.4832" cy="7.3232" r="0.2000" /> 
</g>
<g style="fill:#000000; fill-opacity:1.0000; 
stroke:#000000; stroke-width:0.0212; stroke-opacity:1; 
stroke-linecap:round; stroke-linejoin:round;">
</g>
<g style="fill:#000000; fill-opacity:1.0000; 
stroke:#000000; stroke-width:0.0000; stroke-opacity:1; 
stroke-linecap:round; stroke-linejoin:round;">
<circle cx="14.1582" cy="2.4482" r="0.2000" /> 
</g>
<g style="fill:#000000; fill-opacity:1.0000; 
stroke:#000000; stroke-width:0.0212; stroke-opacity:1; 
stroke-linecap:round; stroke-linejoin:round;">
</g>
<g style="fill:#000000; fill-opacity:1.0000; 
stroke:#000000; stroke-width:0.0000; stroke-opacity:1; 
stroke-linecap:round; stroke-linejoin:round;">
<circle cx="7.1582" cy="7.4482" r="0.2000" /> 
</g>
<g style="fill:#000000; fill-opacity:1.0000; 
stroke:#000000; stroke-width:0.0212; stroke-opacity:1; 
stroke-linecap:round; stroke-linejoin:round;">
</g>
<g style="fill:#000000; fill-opacity:1.0000; 
stroke:#000000; stroke-width:0.0000; stroke-opacity:1; 
stroke-linecap:round; stroke-linejoin:round;">
<circle cx="20.7583" cy="3.5482" r="0.2000" /> 
</g>
<g style="fill:#000000; fill-opacity:1.0000; 
stroke:#000000; stroke-width:0.0212; stroke-opacity:1; 
stroke-linecap:round; stroke-linejoin:round;">
</g>
<g style="fill:#000000; fill-opacity:1.0000; 
stroke:#000000; stroke-width:0.0000; stroke-opacity:1; 
stroke-linecap:round; stroke-linejoin:round;">
<circle cx="3.0582" cy="6.0482" r="0.2000" /> 
</g>
<g style="fill:#000000; fill-opacity:1.0000; 
stroke:#000000; stroke-width:0.0212; stroke-opacity:1; 
stroke-linecap:round; stroke-linejoin:round;">
</g>
<g style="fill:#000000; fill-opacity:1.0000; 
stroke:#000000; stroke-width:0.0000; stroke-opacity:1; 
stroke-linecap:round; stroke-linejoin:round;">
<circle cx="20.9582" cy="8.9482" r="0.5000" /> 
</g>
<g style="fill:#000000; fill-opacity:1.0000; 
stroke:#000000; stroke-width:0.0212; stroke-opacity:1; 
stroke-linecap:round; stroke-linejoin:round;">
</g>
<g style="fill:#000000; fill-opacity:1.0000; 
stroke:#000000; stroke-width:0.0000; stroke-opacity:1; 
stroke-linecap:round; stroke-linejoin:round;">
<circle cx="18.4183" cy="8.9482" r="0.5000" /> 
</g>
<g style="fill:#000000; fill-opacity:1.0000; 
stroke:#000000; stroke-width:0.0212; stroke-opacity:1; 
stroke-linecap:round; stroke-linejoin:round;">
</g>
<g style="fill:#000000; fill-opacity:1.0000; 
stroke:#000000; stroke-width:0.0000; stroke-opacity:1; 
stroke-linecap:round; stroke-linejoin:round;">
<circle cx="15.8782" cy="8.9482" r="0.5000" /> 
</g>
<g style="fill:#000000; fill-opacity:1.0000; 
stroke:#000000; stroke-width:0.0212; stroke-opacity:1; 
stroke-linecap:round; stroke-linejoin:round;">
</g>
<g style="fill:#000000; fill-opacity:1.0000; 
stroke:#000000; stroke-width:0.0000; stroke-opacity:1; 
stroke-linecap:round; stroke-linejoin:round;">
<circle cx="13.3382" cy="8.9482" r="0.5000" /> 
</g>
<g style="fill:#000000; fill-opacity:1.0000; 
stroke:#000000; stroke-width:0.0212; stroke-opacity:1; 
stroke-linecap:round; stroke-linejoin:round;">
</g>
<g style="fill:#000000; fill-opacity:1.0000; 
stroke:#000000; stroke-width:0.0000; stroke-opacity:1; 
stroke-linecap:round; stroke-linejoin:round;">
<circle cx="10.7982" cy="8.9482" r="0.5000" /> 
</g>
<g style="fill:#000000; fill-opacity:1.0000; 
stroke:#000000; stroke-width:0.0212; stroke-opacity:1; 
stroke-linecap:round; stroke-linejoin:round;">
</g>
<g style="fill:#000000; fill-opacity:1.0000; 
stroke:#000000; stroke-width:0.0000; stroke-opacity:1; 
stroke-linecap:round; stroke-linejoin:round;">
<circle cx="8.2583" cy="8.9482" r="0.5000" /> 
</g>
<g style="fill:#000000; fill-opacity:1.0000; 
stroke:#000000; stroke-width:0.0212; stroke-opacity:1; 
stroke-linecap:round; stroke-linejoin:round;">
</g>
<g style="fill:#000000; fill-opacity:1.0000; 
stroke:#000000; stroke-width:0.0000; stroke-opacity:1; 
stroke-linecap:round; stroke-linejoin:round;">
<circle cx="5.7182" cy="8.9482" r="0.5000" /> 
</g>
<g style="fill:#000000; fill-opacity:1.0000; 
stroke:#000000; stroke-width:0.0212; stroke-opacity:1; 
stroke-linecap:round; stroke-linejoin:round;">
</g>
<g style="fill:#000000; fill-opacity:1.0000; 
stroke:#000000; stroke-width:0.0000; stroke-opacity:1; 
stroke-linecap:round; stroke-linejoin:round;">
<circle cx="3.1782" cy="8.9482" r="0.5000" /> 
</g>
<g style="fill:#000000; fill-opacity:1.0000; 
stroke:#000000; stroke-width:0.0212; stroke-opacity:1; 
stroke-linecap:round; stroke-linejoin:round;">
</g>
<g style="fill:#FFFFFF; fill-opacity:1.0000; 
stroke:#FFFFFF; stroke-width:0.0212; stroke-opacity:1; 
stroke-linecap:round; stroke-linejoin:round;">
</g>
<g style="fill:#3D3D3D; fill-opacity:1.0000; 
stroke:#3D3D3D; stroke-width:0.0212; stroke-opacity:1; 
stroke-linecap:round; stroke-linejoin:round;">
</g>
<g style="fill:#3D3D3D; fill-opacity:1.0000; 
stroke:#3D3D3D; stroke-width:0.1500; stroke-opacity:1; 
stroke-linecap:round; stroke-linejoin:round;">
</g>
<g style="fill:#3D3D3D; fill-opacity:0.0; 
stroke:#3D3D3D; stroke-width:0.1500; stroke-opacity:1; 
stroke-linecap:round; stroke-linejoin:round;">
<g transform="rotate(89.871534 26.3991 5.7767)">
<text x="26.3991" y="6.2767"
textLength="8.9167" font-size="1.3333" lengthAdjust="spacingAndGlyphs"
text-anchor="middle" opacity="0">8.9200 mm</text>
</g>
<g class="stroked-text"><desc>8.9200 mm</desc>
<path d="M26.5069 1.8241
L26.5543 1.7287
" />
<path d="M26.5543 1.7287
L26.6018 1.6810
" />
<path d="M26.6018 1.6810
L26.6969 1.6332
" />
<path d="M26.6969 1.6332
L26.7445 1.6331
" />
<path d="M26.7445 1.6331
L26.8399 1.6805
" />
<path d="M26.8399 1.6805
L26.8876 1.7280
" />
<path d="M26.8876 1.7280
L26.9354 1.8231
" />
<path d="M26.9354 1.8231
L26.9359 2.0136
" />
<path d="M26.9359 2.0136
L26.8885 2.1089
" />
<path d="M26.8885 2.1089
L26.8409 2.1567
" />
<path d="M26.8409 2.1567
L26.7458 2.2045
" />
<path d="M26.7458 2.2045
L26.6982 2.2046
" />
<path d="M26.6982 2.2046
L26.6029 2.1572
" />
<path d="M26.6029 2.1572
L26.5551 2.1097
" />
<path d="M26.5551 2.1097
L26.5073 2.0145
" />
<path d="M26.5073 2.0145
L26.5069 1.8241
" />
<path d="M26.5069 1.8241
L26.4590 1.7289
" />
<path d="M26.4590 1.7289
L26.4113 1.6814
" />
<path d="M26.4113 1.6814
L26.3160 1.6340
" />
<path d="M26.3160 1.6340
L26.1255 1.6344
" />
<path d="M26.1255 1.6344
L26.0304 1.6823
" />
<path d="M26.0304 1.6823
L25.9828 1.7300
" />
<path d="M25.9828 1.7300
L25.9354 1.8254
" />
<path d="M25.9354 1.8254
L25.9359 2.0158
" />
<path d="M25.9359 2.0158
L25.9837 2.1110
" />
<path d="M25.9837 2.1110
L26.0314 2.1585
" />
<path d="M26.0314 2.1585
L26.1268 2.2059
" />
<path d="M26.1268 2.2059
L26.3172 2.2054
" />
<path d="M26.3172 2.2054
L26.4124 2.1576
" />
<path d="M26.4124 2.1576
L26.4599 2.1099
" />
<path d="M26.4599 2.1099
L26.5073 2.0145
" />
<path d="M26.0325 2.6347
L25.9850 2.6824
" />
<path d="M25.9850 2.6824
L25.9373 2.6349
" />
<path d="M25.9373 2.6349
L25.9848 2.5871
" />
<path d="M25.9848 2.5871
L26.0325 2.6347
" />
<path d="M26.0325 2.6347
L25.9373 2.6349
" />
<path d="M25.9384 3.1587
L25.9389 3.3492
" />
<path d="M25.9389 3.3492
L25.9867 3.4443
" />
<path d="M25.9867 3.4443
L26.0344 3.4918
" />
<path d="M26.0344 3.4918
L26.1775 3.5867
" />
<path d="M26.1775 3.5867
L26.3681 3.6339
" />
<path d="M26.3681 3.6339
L26.7490 3.6331
" />
<path d="M26.7490 3.6331
L26.8442 3.5852
" />
<path d="M26.8442 3.5852
L26.8917 3.5375
" />
<path d="M26.8917 3.5375
L26.9391 3.4422
" />
<path d="M26.9391 3.4422
L26.9386 3.2517
" />
<path d="M26.9386 3.2517
L26.8908 3.1565
" />
<path d="M26.8908 3.1565
L26.8431 3.1090
" />
<path d="M26.8431 3.1090
L26.7477 3.0616
" />
<path d="M26.7477 3.0616
L26.5096 3.0622
" />
<path d="M26.5096 3.0622
L26.4145 3.1100
" />
<path d="M26.4145 3.1100
L26.3670 3.1577
" />
<path d="M26.3670 3.1577
L26.3196 3.2531
" />
<path d="M26.3196 3.2531
L26.3200 3.4435
" />
<path d="M26.3200 3.4435
L26.3679 3.5387
" />
<path d="M26.3679 3.5387
L26.4156 3.5862
" />
<path d="M26.4156 3.5862
L26.5109 3.6336
" />
<path d="M26.8451 4.0138
L26.8928 4.0613
" />
<path d="M26.8928 4.0613
L26.9407 4.1564
" />
<path d="M26.9407 4.1564
L26.9412 4.3945
" />
<path d="M26.9412 4.3945
L26.8938 4.4899
" />
<path d="M26.8938 4.4899
L26.8463 4.5376
" />
<path d="M26.8463 4.5376
L26.7512 4.5854
" />
<path d="M26.7512 4.5854
L26.6559 4.5856
" />
<path d="M26.6559 4.5856
L26.5130 4.5383
" />
<path d="M26.5130 4.5383
L25.9402 3.9682
" />
<path d="M25.9402 3.9682
L25.9416 4.5872
" />
<path d="M26.9430 5.2041
L26.9432 5.2993
" />
<path d="M26.9432 5.2993
L26.8958 5.3946
" />
<path d="M26.8958 5.3946
L26.8483 5.4424
" />
<path d="M26.8483 5.4424
L26.7532 5.4902
" />
<path d="M26.7532 5.4902
L26.5628 5.5382
" />
<path d="M26.5628 5.5382
L26.3247 5.5388
" />
<path d="M26.3247 5.5388
L26.1341 5.4916
" />
<path d="M26.1341 5.4916
L26.0388 5.4442
" />
<path d="M26.0388 5.4442
L25.9911 5.3967
" />
<path d="M25.9911 5.3967
L25.9432 5.3015
" />
<path d="M25.9432 5.3015
L25.9430 5.2063
" />
<path d="M25.9430 5.2063
L25.9904 5.1109
" />
<path d="M25.9904 5.1109
L26.0379 5.0632
" />
<path d="M26.0379 5.0632
L26.1331 5.0154
" />
<path d="M26.1331 5.0154
L26.3234 4.9673
" />
<path d="M26.3234 4.9673
L26.5615 4.9668
" />
<path d="M26.5615 4.9668
L26.7521 5.0140
" />
<path d="M26.7521 5.0140
L26.8475 5.0614
" />
<path d="M26.8475 5.0614
L26.8952 5.1089
" />
<path d="M26.8952 5.1089
L26.9430 5.2041
" />
<path d="M26.9452 6.1564
L26.9454 6.2517
" />
<path d="M26.9454 6.2517
L26.8980 6.3470
" />
<path d="M26.8980 6.3470
L26.8505 6.3947
" />
<path d="M26.8505 6.3947
L26.7553 6.4426
" />
<path d="M26.7553 6.4426
L26.5650 6.4906
" />
<path d="M26.5650 6.4906
L26.3269 6.4911
" />
<path d="M26.3269 6.4911
L26.1363 6.4440
" />
<path d="M26.1363 6.4440
L26.0409 6.3966
" />
<path d="M26.0409 6.3966
L25.9932 6.3490
" />
<path d="M25.9932 6.3490
L25.9454 6.2539
" />
<path d="M25.9454 6.2539
L25.9452 6.1587
" />
<path d="M25.9452 6.1587
L25.9926 6.0633
" />
<path d="M25.9926 6.0633
L26.0401 6.0156
" />
<path d="M26.0401 6.0156
L26.1352 5.9678
" />
<path d="M26.1352 5.9678
L26.3256 5.9197
" />
<path d="M26.3256 5.9197
L26.5637 5.9192
" />
<path d="M26.5637 5.9192
L26.7543 5.9664
" />
<path d="M26.7543 5.9664
L26.8496 6.0138
" />
<path d="M26.8496 6.0138
L26.8973 6.0613
" />
<path d="M26.8973 6.0613
L26.9452 6.1564
" />
<path d="M25.9486 7.6825
L26.6152 7.6810
" />
<path d="M26.5200 7.6812
L26.5677 7.7287
" />
<path d="M26.5677 7.7287
L26.6156 7.8238
" />
<path d="M26.6156 7.8238
L26.6159 7.9667
" />
<path d="M26.6159 7.9667
L26.5685 8.0620
" />
<path d="M26.5685 8.0620
L26.4733 8.1099
" />
<path d="M26.4733 8.1099
L25.9495 8.1110
" />
<path d="M26.4733 8.1099
L26.5687 8.1573
" />
<path d="M26.5687 8.1573
L26.6165 8.2524
" />
<path d="M26.6165 8.2524
L26.6168 8.3953
" />
<path d="M26.6168 8.3953
L26.5694 8.4906
" />
<path d="M26.5694 8.4906
L26.4743 8.5384
" />
<path d="M26.4743 8.5384
L25.9505 8.5396
" />
<path d="M25.9516 9.0158
L26.6182 9.0143
" />
<path d="M26.5230 9.0145
L26.5707 9.0620
" />
<path d="M26.5707 9.0620
L26.6185 9.1572
" />
<path d="M26.6185 9.1572
L26.6189 9.3000
" />
<path d="M26.6189 9.3000
L26.5715 9.3954
" />
<path d="M26.5715 9.3954
L26.4763 9.4432
" />
<path d="M26.4763 9.4432
L25.9525 9.4444
" />
<path d="M26.4763 9.4432
L26.5717 9.4906
" />
<path d="M26.5717 9.4906
L26.6195 9.5857
" />
<path d="M26.6195 9.5857
L26.6198 9.7286
" />
<path d="M26.6198 9.7286
L26.5724 9.8239
" />
<path d="M26.5724 9.8239
L26.4773 9.8718
" />
<path d="M26.4773 9.8718
L25.9535 9.8729
" />
</g><path d="M21.2583 10.2482
L25.8455 10.2380
" />
<path d="M21.2383 1.3282
L25.8255 1.3180
" />
<path d="M25.2591 10.2393
L25.2391 1.3193
" />
<path d="M25.2591 10.2393
L25.2391 1.3193
" />
<path d="M25.2591 10.2393
L24.6702 9.1141
" />
<path d="M25.2591 10.2393
L25.8430 9.1115
" />
<path d="M25.2391 1.3193
L25.8281 2.4445
" />
<path d="M25.2391 1.3193
L24.6552 2.4471
" />
<text x="12.0732" y="12.2482"
textLength="9.8690" font-size="1.3333" lengthAdjust="spacingAndGlyphs"
text-anchor="middle" opacity="0">20.3300 mm</text>
<g class="stroked-text"><desc>20.3300 mm</desc>
<path d="M7.4542 11.2983
L7.5018 11.2507
" />
<path d="M7.5018 11.2507
L7.5971 11.2031
" />
<path d="M7.5971 11.2031
L7.8352 11.2031
" />
<path d="M7.8352 11.2031
L7.9304 11.2507
" />
<path d="M7.9304 11.2507
L7.9780 11.2983
" />
<path d="M7.9780 11.2983
L8.0256 11.3935
" />
<path d="M8.0256 11.3935
L8.0256 11.4888
" />
<path d="M8.0256 11.4888
L7.9780 11.6316
" />
<path d="M7.9780 11.6316
L7.4066 12.2031
" />
<path d="M7.4066 12.2031
L8.0256 12.2031
" />
<path d="M8.6447 11.2031
L8.7399 11.2031
" />
<path d="M8.7399 11.2031
L8.8352 11.2507
" />
<path d="M8.8352 11.2507
L8.8828 11.2983
" />
<path d="M8.8828 11.2983
L8.9304 11.3935
" />
<path d="M8.9304 11.3935
L8.9780 11.5840
" />
<path d="M8.9780 11.5840
L8.9780 11.8221
" />
<path d="M8.9780 11.8221
L8.9304 12.0126
" />
<path d="M8.9304 12.0126
L8.8828 12.1078
" />
<path d="M8.8828 12.1078
L8.8352 12.1555
" />
<path d="M8.8352 12.1555
L8.7399 12.2031
" />
<path d="M8.7399 12.2031
L8.6447 12.2031
" />
<path d="M8.6447 12.2031
L8.5494 12.1555
" />
<path d="M8.5494 12.1555
L8.5018 12.1078
" />
<path d="M8.5018 12.1078
L8.4542 12.0126
" />
<path d="M8.4542 12.0126
L8.4066 11.8221
" />
<path d="M8.4066 11.8221
L8.4066 11.5840
" />
<path d="M8.4066 11.5840
L8.4542 11.3935
" />
<path d="M8.4542 11.3935
L8.5018 11.2983
" />
<path d="M8.5018 11.2983
L8.5494 11.2507
" />
<path d="M8.5494 11.2507
L8.6447 11.2031
" />
<path d="M9.4066 12.1078
L9.4542 12.1555
" />
<path d="M9.4542 12.1555
L9.4066 12.2031
" />
<path d="M9.4066 12.2031
L9.3590 12.1555
" />
<path d="M9.3590 12.1555
L9.4066 12.1078
" />
<path d="M9.4066 12.1078
L9.4066 12.2031
" />
<path d="M9.7875 11.2031
L10.4066 11.2031
" />
<path d="M10.4066 11.2031
L10.0732 11.5840
" />
<path d="M10.0732 11.5840
L10.2161 11.5840
" />
<path d="M10.2161 11.5840
L10.3113 11.6316
" />
<path d="M10.3113 11.6316
L10.3590 11.6793
" />
<path d="M10.3590 11.6793
L10.4066 11.7745
" />
<path d="M10.4066 11.7745
L10.4066 12.0126
" />
<path d="M10.4066 12.0126
L10.3590 12.1078
" />
<path d="M10.3590 12.1078
L10.3113 12.1555
" />
<path d="M10.3113 12.1555
L10.2161 12.2031
" />
<path d="M10.2161 12.2031
L9.9304 12.2031
" />
<path d="M9.9304 12.2031
L9.8352 12.1555
" />
<path d="M9.8352 12.1555
L9.7875 12.1078
" />
<path d="M10.7399 11.2031
L11.3590 11.2031
" />
<path d="M11.3590 11.2031
L11.0256 11.5840
" />
<path d="M11.0256 11.5840
L11.1685 11.5840
" />
<path d="M11.1685 11.5840
L11.2637 11.6316
" />
<path d="M11.2637 11.6316
L11.3113 11.6793
" />
<path d="M11.3113 11.6793
L11.3590 11.7745
" />
<path d="M11.3590 11.7745
L11.3590 12.0126
" />
<path d="M11.3590 12.0126
L11.3113 12.1078
" />
<path d="M11.3113 12.1078
L11.2637 12.1555
" />
<path d="M11.2637 12.1555
L11.1685 12.2031
" />
<path d="M11.1685 12.2031
L10.8828 12.2031
" />
<path d="M10.8828 12.2031
L10.7875 12.1555
" />
<path d="M10.7875 12.1555
L10.7399 12.1078
" />
<path d="M11.9780 11.2031
L12.0732 11.2031
" />
<path d="M12.0732 11.2031
L12.1685 11.2507
" />
<path d="M12.1685 11.2507
L12.2161 11.2983
" />
<path d="M12.2161 11.2983
L12.2637 11.3935
" />
<path d="M12.2637 11.3935
L12.3113 11.5840
" />
<path d="M12.3113 11.5840
L12.3113 11.8221
" />
<path d="M12.3113 11.8221
L12.2637 12.0126
" />
<path d="M12.2637 12.0126
L12.2161 12.1078
" />
<path d="M12.2161 12.1078
L12.1685 12.1555
" />
<path d="M12.1685 12.1555
L12.0732 12.2031
" />
<path d="M12.0732 12.2031
L11.9780 12.2031
" />
<path d="M11.9780 12.2031
L11.8828 12.1555
" />
<path d="M11.8828 12.1555
L11.8352 12.1078
" />
<path d="M11.8352 12.1078
L11.7875 12.0126
" />
<path d="M11.7875 12.0126
L11.7399 11.8221
" />
<path d="M11.7399 11.8221
L11.7399 11.5840
" />
<path d="M11.7399 11.5840
L11.7875 11.3935
" />
<path d="M11.7875 11.3935
L11.8352 11.2983
" />
<path d="M11.8352 11.2983
L11.8828 11.2507
" />
<path d="M11.8828 11.2507
L11.9780 11.2031
" />
<path d="M12.9304 11.2031
L13.0256 11.2031
" />
<path d="M13.0256 11.2031
L13.1209 11.2507
" />
<path d="M13.1209 11.2507
L13.1685 11.2983
" />
<path d="M13.1685 11.2983
L13.2161 11.3935
" />
<path d="M13.2161 11.3935
L13.2637 11.5840
" />
<path d="M13.2637 11.5840
L13.2637 11.8221
" />
<path d="M13.2637 11.8221
L13.2161 12.0126
" />
<path d="M13.2161 12.0126
L13.1685 12.1078
" />
<path d="M13.1685 12.1078
L13.1209 12.1555
" />
<path d="M13.1209 12.1555
L13.0256 12.2031
" />
<path d="M13.0256 12.2031
L12.9304 12.2031
" />
<path d="M12.9304 12.2031
L12.8352 12.1555
" />
<path d="M12.8352 12.1555
L12.7875 12.1078
" />
<path d="M12.7875 12.1078
L12.7399 12.0126
" />
<path d="M12.7399 12.0126
L12.6923 11.8221
" />
<path d="M12.6923 11.8221
L12.6923 11.5840
" />
<path d="M12.6923 11.5840
L12.7399 11.3935
" />
<path d="M12.7399 11.3935
L12.7875 11.2983
" />
<path d="M12.7875 11.2983
L12.8352 11.2507
" />
<path d="M12.8352 11.2507
L12.9304 11.2031
" />
<path d="M14.4542 12.2031
L14.4542 11.5364
" />
<path d="M14.4542 11.6316
L14.5018 11.5840
" />
<path d="M14.5018 11.5840
L14.5971 11.5364
" />
<path d="M14.5971 11.5364
L14.7399 11.5364
" />
<path d="M14.7399 11.5364
L14.8352 11.5840
" />
<path d="M14.8352 11.5840
L14.8828 11.6793
" />
<path d="M14.8828 11.6793
L14.8828 12.2031
" />
<path d="M14.8828 11.6793
L14.9304 11.5840
" />
<path d="M14.9304 11.5840
L15.0256 11.5364
" />
<path d="M15.0256 11.5364
L15.1685 11.5364
" />
<path d="M15.1685 11.5364
L15.2637 11.5840
" />
<path d="M15.2637 11.5840
L15.3113 11.6793
" />
<path d="M15.3113 11.6793
L15.3113 12.2031
" />
<path d="M15.7875 12.2031
L15.7875 11.5364
" />
<path d="M15.7875 11.6316
L15.8352 11.5840
" />
<path d="M15.8352 11.5840
L15.9304 11.5364
" />
<path d="M15.9304 11.5364
L16.0732 11.5364
" />
<path d="M16.0732 11.5364
L16.1685 11.5840
" />
<path d="M16.1685 11.5840
L16.2161 11.6793
" />
<path d="M16.2161 11.6793
L16.2161 12.2031
" />
<path d="M16.2161 11.6793
L16.2637 11.5840
" />
<path d="M16.2637 11.5840
L16.3590 11.5364
" />
<path d="M16.3590 11.5364
L16.5018 11.5364
" />
<path d="M16.5018 11.5364
L16.5971 11.5840
" />
<path d="M16.5971 11.5840
L16.6447 11.6793
" />
<path d="M16.6447 11.6793
L16.6447 12.2031
" />
</g><path d="M22.2383 10.2182
L22.2383 13.4847
" />
<path d="M1.9083 10.2182
L1.9083 13.4847
" />
<path d="M22.2383 12.8982
L1.9083 12.8982
" />
<path d="M22.2383 12.8982
L1.9083 12.8982
" />
<path d="M22.2383 12.8982
L21.1117 13.4847
" />
<path d="M22.2383 12.8982
L21.1117 12.3118
" />
<path d="M1.9083 12.8982
L3.0348 12.3118
" />
<path d="M1.9083 12.8982
L3.0348 13.4847
" />
<g >
</g>
<g >
</g>
<g >
</g>
<g >
</g>
<g >
</g>
<g >
</g>
<g >
</g>
<g >
</g>
</g>
<g style="fill:#FFFFFF; fill-opacity:0.0; 
stroke:#FFFFFF; stroke-width:0.1500; stroke-opacity:1; 
stroke-linecap:round; stroke-linejoin:round;">
</g>
<g style="fill:#2F2D31; fill-opacity:0.0; 
stroke:#2F2D31; stroke-width:0.1500; stroke-opacity:1; 
stroke-linecap:round; stroke-linejoin:round;">
</g>
<g style="fill:#2F2D31; fill-opacity:0.0; 
stroke:#2F2D31; stroke-width:0.0500; stroke-opacity:1; 
stroke-linecap:round; stroke-linejoin:round;">
<path d="M1.9083 2.3282
L1.9083 10.2182
" />
<path d="M22.2383 2.3282 A1.0000 1.0000 0.0 0 0 21.2383 1.3282" />
<path d="M2.9082 1.3282 A1.0000 1.0000 0.0 0 0 1.9082 2.3282" />
<path d="M21.2383 1.3282
L2.9082 1.3282
" />
<path d="M1.9083 10.2182
L22.2383 10.2182
" />
<path d="M22.2383 10.2182
L22.2383 2.3282
" />
<g >
</g>
<g >
</g>
<g >
</g>
<g >
</g>
<g >
</g>
<g >
</g>
<g >
</g>
<g >
</g>
</g> 
</svg>
