<?xml version="1.0" standalone="no"?>
 <!DOCTYPE svg PUBLIC "-//W3C//DTD SVG 1.1//EN" 
 "http://www.w3.org/Graphics/SVG/1.1/DTD/svg11.dtd"> 
<svg
  xmlns:svg="http://www.w3.org/2000/svg"
  xmlns="http://www.w3.org/2000/svg"
  xmlns:xlink="http://www.w3.org/1999/xlink"
  version="1.1"
  width="82.0674mm" height="69.4690mm" viewBox="0.0000 0.0000 82.0674 69.4690">
<title>SVG Image created as working-brd.svg date 2023/09/25 16:13:52 </title>
  <desc>Image generated by PCBNEW </desc>
<g style="fill:#000000; fill-opacity:1.0000;stroke:#000000; stroke-opacity:1.0000;
stroke-linecap:round; stroke-linejoin:round;"
 transform="translate(0 0) scale(1 1)">
</g>
<g style="fill:#000000; fill-opacity:0.0; 
stroke:#000000; stroke-width:0.0000; stroke-opacity:1; 
stroke-linecap:round; stroke-linejoin:round;">
</g>
<g style="fill:#000000; fill-opacity:1.0000; 
stroke:#000000; stroke-width:0.0212; stroke-opacity:1; 
stroke-linecap:round; stroke-linejoin:round;">
<rect x="-5.000000" y="-5.000000" width="92.068570" height="79.470051" rx="0.000000" />
</g>
<g style="fill:#FFFFFF; fill-opacity:1.0000; 
stroke:#FFFFFF; stroke-width:0.0212; stroke-opacity:1; 
stroke-linecap:round; stroke-linejoin:round;">
<g >
</g>
<g style="fill:#B2803A; fill-opacity:1.0000; 
stroke:#B2803A; stroke-width:0.0212; stroke-opacity:1; 
stroke-linecap:round; stroke-linejoin:round;">
</g>
<g style="fill:#B2803A; fill-opacity:1.0000; 
stroke:#B2803A; stroke-width:0.0000; stroke-opacity:1; 
stroke-linecap:round; stroke-linejoin:round;">
<circle cx="30.2093" cy="26.6350" r="2.8750" /> 
</g>
<g style="fill:#B2803A; fill-opacity:1.0000; 
stroke:#B2803A; stroke-width:0.0212; stroke-opacity:1; 
stroke-linecap:round; stroke-linejoin:round;">
</g>
<g style="fill:#B2803A; fill-opacity:1.0000; 
stroke:#B2803A; stroke-width:0.0000; stroke-opacity:1; 
stroke-linecap:round; stroke-linejoin:round;">
<circle cx="30.2093" cy="54.6350" r="2.8750" /> 
</g>
<g style="fill:#B2803A; fill-opacity:1.0000; 
stroke:#B2803A; stroke-width:0.0212; stroke-opacity:1; 
stroke-linecap:round; stroke-linejoin:round;">
</g>
<g style="fill:#B2803A; fill-opacity:1.0000; 
stroke:#B2803A; stroke-width:0.0000; stroke-opacity:1; 
stroke-linecap:round; stroke-linejoin:round;">
<circle cx="58.2093" cy="26.6350" r="2.8750" /> 
</g>
<g style="fill:#B2803A; fill-opacity:1.0000; 
stroke:#B2803A; stroke-width:0.0212; stroke-opacity:1; 
stroke-linecap:round; stroke-linejoin:round;">
</g>
<g style="fill:#B2803A; fill-opacity:1.0000; 
stroke:#B2803A; stroke-width:0.0000; stroke-opacity:1; 
stroke-linecap:round; stroke-linejoin:round;">
<circle cx="58.2093" cy="54.6350" r="2.8750" /> 
</g>
<g style="fill:#B2803A; fill-opacity:1.0000; 
stroke:#B2803A; stroke-width:0.0212; stroke-opacity:1; 
stroke-linecap:round; stroke-linejoin:round;">
</g>
<g >
</g>
<g >
</g>
<g >
</g>
</g>
<g style="fill:#000000; fill-opacity:1.0000; 
stroke:#000000; stroke-width:0.0212; stroke-opacity:1; 
stroke-linecap:round; stroke-linejoin:round;">
</g>
<g style="fill:#000000; fill-opacity:1.0000; 
stroke:#000000; stroke-width:0.0000; stroke-opacity:1; 
stroke-linecap:round; stroke-linejoin:round;">
<circle cx="30.2093" cy="26.6350" r="1.6000" /> 
</g>
<g style="fill:#000000; fill-opacity:1.0000; 
stroke:#000000; stroke-width:0.0212; stroke-opacity:1; 
stroke-linecap:round; stroke-linejoin:round;">
</g>
<g style="fill:#000000; fill-opacity:1.0000; 
stroke:#000000; stroke-width:0.0000; stroke-opacity:1; 
stroke-linecap:round; stroke-linejoin:round;">
<circle cx="30.2093" cy="54.6350" r="1.6000" /> 
</g>
<g style="fill:#000000; fill-opacity:1.0000; 
stroke:#000000; stroke-width:0.0212; stroke-opacity:1; 
stroke-linecap:round; stroke-linejoin:round;">
</g>
<g style="fill:#000000; fill-opacity:1.0000; 
stroke:#000000; stroke-width:0.0000; stroke-opacity:1; 
stroke-linecap:round; stroke-linejoin:round;">
<circle cx="58.2093" cy="26.6350" r="1.6000" /> 
</g>
<g style="fill:#000000; fill-opacity:1.0000; 
stroke:#000000; stroke-width:0.0212; stroke-opacity:1; 
stroke-linecap:round; stroke-linejoin:round;">
</g>
<g style="fill:#000000; fill-opacity:1.0000; 
stroke:#000000; stroke-width:0.0000; stroke-opacity:1; 
stroke-linecap:round; stroke-linejoin:round;">
<circle cx="58.2093" cy="54.6350" r="1.6000" /> 
</g>
<g style="fill:#000000; fill-opacity:1.0000; 
stroke:#000000; stroke-width:0.0212; stroke-opacity:1; 
stroke-linecap:round; stroke-linejoin:round;">
</g>
<g style="fill:#FFFFFF; fill-opacity:1.0000; 
stroke:#FFFFFF; stroke-width:0.0212; stroke-opacity:1; 
stroke-linecap:round; stroke-linejoin:round;">
<g >
</g>
<g style="fill:#37CBCB; fill-opacity:1.0000; 
stroke:#37CBCB; stroke-width:0.0212; stroke-opacity:1; 
stroke-linecap:round; stroke-linejoin:round;">
</g>
<g style="fill:#37CBCB; fill-opacity:1.0000; 
stroke:#37CBCB; stroke-width:0.0000; stroke-opacity:1; 
stroke-linecap:round; stroke-linejoin:round;">
<circle cx="30.2093" cy="26.6350" r="2.8750" /> 
</g>
<g style="fill:#37CBCB; fill-opacity:1.0000; 
stroke:#37CBCB; stroke-width:0.0212; stroke-opacity:1; 
stroke-linecap:round; stroke-linejoin:round;">
</g>
<g style="fill:#37CBCB; fill-opacity:1.0000; 
stroke:#37CBCB; stroke-width:0.0000; stroke-opacity:1; 
stroke-linecap:round; stroke-linejoin:round;">
<circle cx="30.2093" cy="54.6350" r="2.8750" /> 
</g>
<g style="fill:#37CBCB; fill-opacity:1.0000; 
stroke:#37CBCB; stroke-width:0.0212; stroke-opacity:1; 
stroke-linecap:round; stroke-linejoin:round;">
</g>
<g style="fill:#37CBCB; fill-opacity:1.0000; 
stroke:#37CBCB; stroke-width:0.0000; stroke-opacity:1; 
stroke-linecap:round; stroke-linejoin:round;">
<circle cx="58.2093" cy="26.6350" r="2.8750" /> 
</g>
<g style="fill:#37CBCB; fill-opacity:1.0000; 
stroke:#37CBCB; stroke-width:0.0212; stroke-opacity:1; 
stroke-linecap:round; stroke-linejoin:round;">
</g>
<g style="fill:#37CBCB; fill-opacity:1.0000; 
stroke:#37CBCB; stroke-width:0.0000; stroke-opacity:1; 
stroke-linecap:round; stroke-linejoin:round;">
<circle cx="58.2093" cy="54.6350" r="2.8750" /> 
</g>
<g style="fill:#37CBCB; fill-opacity:1.0000; 
stroke:#37CBCB; stroke-width:0.0212; stroke-opacity:1; 
stroke-linecap:round; stroke-linejoin:round;">
</g>
<g >
</g>
<g >
</g>
<g >
</g>
</g>
<g style="fill:#000000; fill-opacity:1.0000; 
stroke:#000000; stroke-width:0.0212; stroke-opacity:1; 
stroke-linecap:round; stroke-linejoin:round;">
</g>
<g style="fill:#000000; fill-opacity:1.0000; 
stroke:#000000; stroke-width:0.0000; stroke-opacity:1; 
stroke-linecap:round; stroke-linejoin:round;">
<circle cx="30.2093" cy="26.6350" r="1.6000" /> 
</g>
<g style="fill:#000000; fill-opacity:1.0000; 
stroke:#000000; stroke-width:0.0212; stroke-opacity:1; 
stroke-linecap:round; stroke-linejoin:round;">
</g>
<g style="fill:#000000; fill-opacity:1.0000; 
stroke:#000000; stroke-width:0.0000; stroke-opacity:1; 
stroke-linecap:round; stroke-linejoin:round;">
<circle cx="30.2093" cy="54.6350" r="1.6000" /> 
</g>
<g style="fill:#000000; fill-opacity:1.0000; 
stroke:#000000; stroke-width:0.0212; stroke-opacity:1; 
stroke-linecap:round; stroke-linejoin:round;">
</g>
<g style="fill:#000000; fill-opacity:1.0000; 
stroke:#000000; stroke-width:0.0000; stroke-opacity:1; 
stroke-linecap:round; stroke-linejoin:round;">
<circle cx="58.2093" cy="26.6350" r="1.6000" /> 
</g>
<g style="fill:#000000; fill-opacity:1.0000; 
stroke:#000000; stroke-width:0.0212; stroke-opacity:1; 
stroke-linecap:round; stroke-linejoin:round;">
</g>
<g style="fill:#000000; fill-opacity:1.0000; 
stroke:#000000; stroke-width:0.0000; stroke-opacity:1; 
stroke-linecap:round; stroke-linejoin:round;">
<circle cx="58.2093" cy="54.6350" r="1.6000" /> 
</g>
<g style="fill:#000000; fill-opacity:1.0000; 
stroke:#000000; stroke-width:0.0212; stroke-opacity:1; 
stroke-linecap:round; stroke-linejoin:round;">
</g>
<g style="fill:#FFFFFF; fill-opacity:1.0000; 
stroke:#FFFFFF; stroke-width:0.0212; stroke-opacity:1; 
stroke-linecap:round; stroke-linejoin:round;">
</g>
<g style="fill:#3D3D3D; fill-opacity:1.0000; 
stroke:#3D3D3D; stroke-width:0.0212; stroke-opacity:1; 
stroke-linecap:round; stroke-linejoin:round;">
</g>
<g style="fill:#3D3D3D; fill-opacity:1.0000; 
stroke:#3D3D3D; stroke-width:0.0100; stroke-opacity:1; 
stroke-linecap:round; stroke-linejoin:round;">
</g>
<g style="fill:#3D3D3D; fill-opacity:0.0; 
stroke:#3D3D3D; stroke-width:0.0100; stroke-opacity:1; 
stroke-linecap:round; stroke-linejoin:round;">
<g transform="rotate(-90.000000 74.9893 40.6350)">
<text x="74.9893" y="41.3850"
textLength="14.1586" font-size="2.0000" lengthAdjust="spacingAndGlyphs"
text-anchor="middle" opacity="0">28.0000 mm</text>
</g>
<g class="stroked-text"><desc>28.0000 mm</desc>
<path d="M74.3255 47.5636
L74.2541 47.4922
" />
<path d="M74.2541 47.4922
L74.1827 47.3493
" />
<path d="M74.1827 47.3493
L74.1827 46.9922
" />
<path d="M74.1827 46.9922
L74.2541 46.8493
" />
<path d="M74.2541 46.8493
L74.3255 46.7779
" />
<path d="M74.3255 46.7779
L74.4684 46.7065
" />
<path d="M74.4684 46.7065
L74.6113 46.7065
" />
<path d="M74.6113 46.7065
L74.8255 46.7779
" />
<path d="M74.8255 46.7779
L75.6827 47.6350
" />
<path d="M75.6827 47.6350
L75.6827 46.7065
" />
<path d="M74.8255 45.8493
L74.7541 45.9922
" />
<path d="M74.7541 45.9922
L74.6827 46.0636
" />
<path d="M74.6827 46.0636
L74.5398 46.1350
" />
<path d="M74.5398 46.1350
L74.4684 46.1350
" />
<path d="M74.4684 46.1350
L74.3255 46.0636
" />
<path d="M74.3255 46.0636
L74.2541 45.9922
" />
<path d="M74.2541 45.9922
L74.1827 45.8493
" />
<path d="M74.1827 45.8493
L74.1827 45.5636
" />
<path d="M74.1827 45.5636
L74.2541 45.4208
" />
<path d="M74.2541 45.4208
L74.3255 45.3493
" />
<path d="M74.3255 45.3493
L74.4684 45.2779
" />
<path d="M74.4684 45.2779
L74.5398 45.2779
" />
<path d="M74.5398 45.2779
L74.6827 45.3493
" />
<path d="M74.6827 45.3493
L74.7541 45.4208
" />
<path d="M74.7541 45.4208
L74.8255 45.5636
" />
<path d="M74.8255 45.5636
L74.8255 45.8493
" />
<path d="M74.8255 45.8493
L74.8970 45.9922
" />
<path d="M74.8970 45.9922
L74.9684 46.0636
" />
<path d="M74.9684 46.0636
L75.1113 46.1350
" />
<path d="M75.1113 46.1350
L75.3970 46.1350
" />
<path d="M75.3970 46.1350
L75.5398 46.0636
" />
<path d="M75.5398 46.0636
L75.6113 45.9922
" />
<path d="M75.6113 45.9922
L75.6827 45.8493
" />
<path d="M75.6827 45.8493
L75.6827 45.5636
" />
<path d="M75.6827 45.5636
L75.6113 45.4208
" />
<path d="M75.6113 45.4208
L75.5398 45.3493
" />
<path d="M75.5398 45.3493
L75.3970 45.2779
" />
<path d="M75.3970 45.2779
L75.1113 45.2779
" />
<path d="M75.1113 45.2779
L74.9684 45.3493
" />
<path d="M74.9684 45.3493
L74.8970 45.4208
" />
<path d="M74.8970 45.4208
L74.8255 45.5636
" />
<path d="M75.5398 44.6350
L75.6113 44.5636
" />
<path d="M75.6113 44.5636
L75.6827 44.6350
" />
<path d="M75.6827 44.6350
L75.6113 44.7065
" />
<path d="M75.6113 44.7065
L75.5398 44.6350
" />
<path d="M75.5398 44.6350
L75.6827 44.6350
" />
<path d="M74.1827 43.6350
L74.1827 43.4922
" />
<path d="M74.1827 43.4922
L74.2541 43.3493
" />
<path d="M74.2541 43.3493
L74.3255 43.2779
" />
<path d="M74.3255 43.2779
L74.4684 43.2065
" />
<path d="M74.4684 43.2065
L74.7541 43.1350
" />
<path d="M74.7541 43.1350
L75.1113 43.1350
" />
<path d="M75.1113 43.1350
L75.3970 43.2065
" />
<path d="M75.3970 43.2065
L75.5398 43.2779
" />
<path d="M75.5398 43.2779
L75.6113 43.3493
" />
<path d="M75.6113 43.3493
L75.6827 43.4922
" />
<path d="M75.6827 43.4922
L75.6827 43.6350
" />
<path d="M75.6827 43.6350
L75.6113 43.7779
" />
<path d="M75.6113 43.7779
L75.5398 43.8493
" />
<path d="M75.5398 43.8493
L75.3970 43.9208
" />
<path d="M75.3970 43.9208
L75.1113 43.9922
" />
<path d="M75.1113 43.9922
L74.7541 43.9922
" />
<path d="M74.7541 43.9922
L74.4684 43.9208
" />
<path d="M74.4684 43.9208
L74.3255 43.8493
" />
<path d="M74.3255 43.8493
L74.2541 43.7779
" />
<path d="M74.2541 43.7779
L74.1827 43.6350
" />
<path d="M74.1827 42.2065
L74.1827 42.0636
" />
<path d="M74.1827 42.0636
L74.2541 41.9208
" />
<path d="M74.2541 41.9208
L74.3255 41.8493
" />
<path d="M74.3255 41.8493
L74.4684 41.7779
" />
<path d="M74.4684 41.7779
L74.7541 41.7065
" />
<path d="M74.7541 41.7065
L75.1113 41.7065
" />
<path d="M75.1113 41.7065
L75.3970 41.7779
" />
<path d="M75.3970 41.7779
L75.5398 41.8493
" />
<path d="M75.5398 41.8493
L75.6113 41.9208
" />
<path d="M75.6113 41.9208
L75.6827 42.0636
" />
<path d="M75.6827 42.0636
L75.6827 42.2065
" />
<path d="M75.6827 42.2065
L75.6113 42.3493
" />
<path d="M75.6113 42.3493
L75.5398 42.4208
" />
<path d="M75.5398 42.4208
L75.3970 42.4922
" />
<path d="M75.3970 42.4922
L75.1113 42.5636
" />
<path d="M75.1113 42.5636
L74.7541 42.5636
" />
<path d="M74.7541 42.5636
L74.4684 42.4922
" />
<path d="M74.4684 42.4922
L74.3255 42.4208
" />
<path d="M74.3255 42.4208
L74.2541 42.3493
" />
<path d="M74.2541 42.3493
L74.1827 42.2065
" />
<path d="M74.1827 40.7779
L74.1827 40.6350
" />
<path d="M74.1827 40.6350
L74.2541 40.4922
" />
<path d="M74.2541 40.4922
L74.3255 40.4208
" />
<path d="M74.3255 40.4208
L74.4684 40.3493
" />
<path d="M74.4684 40.3493
L74.7541 40.2779
" />
<path d="M74.7541 40.2779
L75.1113 40.2779
" />
<path d="M75.1113 40.2779
L75.3970 40.3493
" />
<path d="M75.3970 40.3493
L75.5398 40.4208
" />
<path d="M75.5398 40.4208
L75.6113 40.4922
" />
<path d="M75.6113 40.4922
L75.6827 40.6350
" />
<path d="M75.6827 40.6350
L75.6827 40.7779
" />
<path d="M75.6827 40.7779
L75.6113 40.9208
" />
<path d="M75.6113 40.9208
L75.5398 40.9922
" />
<path d="M75.5398 40.9922
L75.3970 41.0636
" />
<path d="M75.3970 41.0636
L75.1113 41.1350
" />
<path d="M75.1113 41.1350
L74.7541 41.1350
" />
<path d="M74.7541 41.1350
L74.4684 41.0636
" />
<path d="M74.4684 41.0636
L74.3255 40.9922
" />
<path d="M74.3255 40.9922
L74.2541 40.9208
" />
<path d="M74.2541 40.9208
L74.1827 40.7779
" />
<path d="M74.1827 39.3493
L74.1827 39.2065
" />
<path d="M74.1827 39.2065
L74.2541 39.0636
" />
<path d="M74.2541 39.0636
L74.3255 38.9922
" />
<path d="M74.3255 38.9922
L74.4684 38.9208
" />
<path d="M74.4684 38.9208
L74.7541 38.8493
" />
<path d="M74.7541 38.8493
L75.1113 38.8493
" />
<path d="M75.1113 38.8493
L75.3970 38.9208
" />
<path d="M75.3970 38.9208
L75.5398 38.9922
" />
<path d="M75.5398 38.9922
L75.6113 39.0636
" />
<path d="M75.6113 39.0636
L75.6827 39.2065
" />
<path d="M75.6827 39.2065
L75.6827 39.3493
" />
<path d="M75.6827 39.3493
L75.6113 39.4922
" />
<path d="M75.6113 39.4922
L75.5398 39.5636
" />
<path d="M75.5398 39.5636
L75.3970 39.6350
" />
<path d="M75.3970 39.6350
L75.1113 39.7065
" />
<path d="M75.1113 39.7065
L74.7541 39.7065
" />
<path d="M74.7541 39.7065
L74.4684 39.6350
" />
<path d="M74.4684 39.6350
L74.3255 39.5636
" />
<path d="M74.3255 39.5636
L74.2541 39.4922
" />
<path d="M74.2541 39.4922
L74.1827 39.3493
" />
<path d="M75.6827 37.0636
L74.6827 37.0636
" />
<path d="M74.8255 37.0636
L74.7541 36.9922
" />
<path d="M74.7541 36.9922
L74.6827 36.8493
" />
<path d="M74.6827 36.8493
L74.6827 36.6350
" />
<path d="M74.6827 36.6350
L74.7541 36.4922
" />
<path d="M74.7541 36.4922
L74.8970 36.4208
" />
<path d="M74.8970 36.4208
L75.6827 36.4208
" />
<path d="M74.8970 36.4208
L74.7541 36.3493
" />
<path d="M74.7541 36.3493
L74.6827 36.2065
" />
<path d="M74.6827 36.2065
L74.6827 35.9922
" />
<path d="M74.6827 35.9922
L74.7541 35.8493
" />
<path d="M74.7541 35.8493
L74.8970 35.7779
" />
<path d="M74.8970 35.7779
L75.6827 35.7779
" />
<path d="M75.6827 35.0636
L74.6827 35.0636
" />
<path d="M74.8255 35.0636
L74.7541 34.9922
" />
<path d="M74.7541 34.9922
L74.6827 34.8493
" />
<path d="M74.6827 34.8493
L74.6827 34.6350
" />
<path d="M74.6827 34.6350
L74.7541 34.4922
" />
<path d="M74.7541 34.4922
L74.8970 34.4208
" />
<path d="M74.8970 34.4208
L75.6827 34.4208
" />
<path d="M74.8970 34.4208
L74.7541 34.3493
" />
<path d="M74.7541 34.3493
L74.6827 34.2065
" />
<path d="M74.6827 34.2065
L74.6827 33.9922
" />
<path d="M74.6827 33.9922
L74.7541 33.8493
" />
<path d="M74.7541 33.8493
L74.8970 33.7779
" />
<path d="M74.8970 33.7779
L75.6827 33.7779
" />
</g><path d="M15.8993 26.6350
L77.0857 26.6350
" />
<path d="M15.8993 54.6350
L77.0857 54.6350
" />
<path d="M76.4993 26.6350
L76.4993 54.6350
" />
<path d="M76.4993 26.6350
L76.4993 54.6350
" />
<path d="M76.4993 26.6350
L77.0857 27.7616
" />
<path d="M76.4993 26.6350
L75.9129 27.7616
" />
<path d="M76.4993 54.6350
L75.9129 53.5085
" />
<path d="M76.4993 54.6350
L77.0857 53.5085
" />
<text x="23.0543" y="7.5450"
textLength="14.1586" font-size="2.0000" lengthAdjust="spacingAndGlyphs"
text-anchor="middle" opacity="0">14.3100 mm</text>
<g class="stroked-text"><desc>14.3100 mm</desc>
<path d="M16.9829 7.4885
L16.1257 7.4885
" />
<path d="M16.5543 7.4885
L16.5543 5.9885
" />
<path d="M16.5543 5.9885
L16.4114 6.2027
" />
<path d="M16.4114 6.2027
L16.2686 6.3456
" />
<path d="M16.2686 6.3456
L16.1257 6.4170
" />
<path d="M18.2686 6.4885
L18.2686 7.4885
" />
<path d="M17.9114 5.9170
L17.5543 6.9885
" />
<path d="M17.5543 6.9885
L18.4829 6.9885
" />
<path d="M19.0543 7.3456
L19.1257 7.4170
" />
<path d="M19.1257 7.4170
L19.0543 7.4885
" />
<path d="M19.0543 7.4885
L18.9829 7.4170
" />
<path d="M18.9829 7.4170
L19.0543 7.3456
" />
<path d="M19.0543 7.3456
L19.0543 7.4885
" />
<path d="M19.6257 5.9885
L20.5543 5.9885
" />
<path d="M20.5543 5.9885
L20.0543 6.5599
" />
<path d="M20.0543 6.5599
L20.2686 6.5599
" />
<path d="M20.2686 6.5599
L20.4114 6.6313
" />
<path d="M20.4114 6.6313
L20.4829 6.7027
" />
<path d="M20.4829 6.7027
L20.5543 6.8456
" />
<path d="M20.5543 6.8456
L20.5543 7.2027
" />
<path d="M20.5543 7.2027
L20.4829 7.3456
" />
<path d="M20.4829 7.3456
L20.4114 7.4170
" />
<path d="M20.4114 7.4170
L20.2686 7.4885
" />
<path d="M20.2686 7.4885
L19.8400 7.4885
" />
<path d="M19.8400 7.4885
L19.6971 7.4170
" />
<path d="M19.6971 7.4170
L19.6257 7.3456
" />
<path d="M21.9829 7.4885
L21.1257 7.4885
" />
<path d="M21.5543 7.4885
L21.5543 5.9885
" />
<path d="M21.5543 5.9885
L21.4114 6.2027
" />
<path d="M21.4114 6.2027
L21.2686 6.3456
" />
<path d="M21.2686 6.3456
L21.1257 6.4170
" />
<path d="M22.9114 5.9885
L23.0543 5.9885
" />
<path d="M23.0543 5.9885
L23.1971 6.0599
" />
<path d="M23.1971 6.0599
L23.2686 6.1313
" />
<path d="M23.2686 6.1313
L23.3400 6.2742
" />
<path d="M23.3400 6.2742
L23.4114 6.5599
" />
<path d="M23.4114 6.5599
L23.4114 6.9170
" />
<path d="M23.4114 6.9170
L23.3400 7.2027
" />
<path d="M23.3400 7.2027
L23.2686 7.3456
" />
<path d="M23.2686 7.3456
L23.1971 7.4170
" />
<path d="M23.1971 7.4170
L23.0543 7.4885
" />
<path d="M23.0543 7.4885
L22.9114 7.4885
" />
<path d="M22.9114 7.4885
L22.7686 7.4170
" />
<path d="M22.7686 7.4170
L22.6971 7.3456
" />
<path d="M22.6971 7.3456
L22.6257 7.2027
" />
<path d="M22.6257 7.2027
L22.5543 6.9170
" />
<path d="M22.5543 6.9170
L22.5543 6.5599
" />
<path d="M22.5543 6.5599
L22.6257 6.2742
" />
<path d="M22.6257 6.2742
L22.6971 6.1313
" />
<path d="M22.6971 6.1313
L22.7686 6.0599
" />
<path d="M22.7686 6.0599
L22.9114 5.9885
" />
<path d="M24.3400 5.9885
L24.4829 5.9885
" />
<path d="M24.4829 5.9885
L24.6257 6.0599
" />
<path d="M24.6257 6.0599
L24.6971 6.1313
" />
<path d="M24.6971 6.1313
L24.7686 6.2742
" />
<path d="M24.7686 6.2742
L24.8400 6.5599
" />
<path d="M24.8400 6.5599
L24.8400 6.9170
" />
<path d="M24.8400 6.9170
L24.7686 7.2027
" />
<path d="M24.7686 7.2027
L24.6971 7.3456
" />
<path d="M24.6971 7.3456
L24.6257 7.4170
" />
<path d="M24.6257 7.4170
L24.4829 7.4885
" />
<path d="M24.4829 7.4885
L24.3400 7.4885
" />
<path d="M24.3400 7.4885
L24.1971 7.4170
" />
<path d="M24.1971 7.4170
L24.1257 7.3456
" />
<path d="M24.1257 7.3456
L24.0543 7.2027
" />
<path d="M24.0543 7.2027
L23.9829 6.9170
" />
<path d="M23.9829 6.9170
L23.9829 6.5599
" />
<path d="M23.9829 6.5599
L24.0543 6.2742
" />
<path d="M24.0543 6.2742
L24.1257 6.1313
" />
<path d="M24.1257 6.1313
L24.1971 6.0599
" />
<path d="M24.1971 6.0599
L24.3400 5.9885
" />
<path d="M26.6257 7.4885
L26.6257 6.4885
" />
<path d="M26.6257 6.6313
L26.6971 6.5599
" />
<path d="M26.6971 6.5599
L26.8400 6.4885
" />
<path d="M26.8400 6.4885
L27.0543 6.4885
" />
<path d="M27.0543 6.4885
L27.1971 6.5599
" />
<path d="M27.1971 6.5599
L27.2686 6.7027
" />
<path d="M27.2686 6.7027
L27.2686 7.4885
" />
<path d="M27.2686 6.7027
L27.3400 6.5599
" />
<path d="M27.3400 6.5599
L27.4829 6.4885
" />
<path d="M27.4829 6.4885
L27.6971 6.4885
" />
<path d="M27.6971 6.4885
L27.8400 6.5599
" />
<path d="M27.8400 6.5599
L27.9114 6.7027
" />
<path d="M27.9114 6.7027
L27.9114 7.4885
" />
<path d="M28.6257 7.4885
L28.6257 6.4885
" />
<path d="M28.6257 6.6313
L28.6971 6.5599
" />
<path d="M28.6971 6.5599
L28.8400 6.4885
" />
<path d="M28.8400 6.4885
L29.0543 6.4885
" />
<path d="M29.0543 6.4885
L29.1971 6.5599
" />
<path d="M29.1971 6.5599
L29.2686 6.7027
" />
<path d="M29.2686 6.7027
L29.2686 7.4885
" />
<path d="M29.2686 6.7027
L29.3400 6.5599
" />
<path d="M29.3400 6.5599
L29.4829 6.4885
" />
<path d="M29.4829 6.4885
L29.6971 6.4885
" />
<path d="M29.6971 6.4885
L29.8400 6.5599
" />
<path d="M29.8400 6.5599
L29.9114 6.7027
" />
<path d="M29.9114 6.7027
L29.9114 7.4885
" />
</g><path d="M30.2093 69.4650
L30.2093 7.7186
" />
<path d="M15.8993 69.4650
L15.8993 7.7186
" />
<path d="M30.2093 8.3050
L15.8993 8.3050
" />
<path d="M30.2093 8.3050
L15.8993 8.3050
" />
<path d="M30.2093 8.3050
L29.0828 8.8915
" />
<path d="M30.2093 8.3050
L29.0828 7.7186
" />
<path d="M15.8993 8.3050
L17.0258 7.7186
" />
<path d="M15.8993 8.3050
L17.0258 8.8915
" />
<text x="44.2093" y="7.5751"
textLength="14.1586" font-size="2.0000" lengthAdjust="spacingAndGlyphs"
text-anchor="middle" opacity="0">28.0000 mm</text>
<g class="stroked-text"><desc>28.0000 mm</desc>
<path d="M37.2807 6.1613
L37.3521 6.0899
" />
<path d="M37.3521 6.0899
L37.4950 6.0185
" />
<path d="M37.4950 6.0185
L37.8521 6.0185
" />
<path d="M37.8521 6.0185
L37.9950 6.0899
" />
<path d="M37.9950 6.0899
L38.0664 6.1613
" />
<path d="M38.0664 6.1613
L38.1379 6.3042
" />
<path d="M38.1379 6.3042
L38.1379 6.4470
" />
<path d="M38.1379 6.4470
L38.0664 6.6613
" />
<path d="M38.0664 6.6613
L37.2093 7.5185
" />
<path d="M37.2093 7.5185
L38.1379 7.5185
" />
<path d="M38.9950 6.6613
L38.8521 6.5899
" />
<path d="M38.8521 6.5899
L38.7807 6.5185
" />
<path d="M38.7807 6.5185
L38.7093 6.3756
" />
<path d="M38.7093 6.3756
L38.7093 6.3042
" />
<path d="M38.7093 6.3042
L38.7807 6.1613
" />
<path d="M38.7807 6.1613
L38.8521 6.0899
" />
<path d="M38.8521 6.0899
L38.9950 6.0185
" />
<path d="M38.9950 6.0185
L39.2807 6.0185
" />
<path d="M39.2807 6.0185
L39.4236 6.0899
" />
<path d="M39.4236 6.0899
L39.4950 6.1613
" />
<path d="M39.4950 6.1613
L39.5664 6.3042
" />
<path d="M39.5664 6.3042
L39.5664 6.3756
" />
<path d="M39.5664 6.3756
L39.4950 6.5185
" />
<path d="M39.4950 6.5185
L39.4236 6.5899
" />
<path d="M39.4236 6.5899
L39.2807 6.6613
" />
<path d="M39.2807 6.6613
L38.9950 6.6613
" />
<path d="M38.9950 6.6613
L38.8521 6.7327
" />
<path d="M38.8521 6.7327
L38.7807 6.8042
" />
<path d="M38.7807 6.8042
L38.7093 6.9470
" />
<path d="M38.7093 6.9470
L38.7093 7.2327
" />
<path d="M38.7093 7.2327
L38.7807 7.3756
" />
<path d="M38.7807 7.3756
L38.8521 7.4470
" />
<path d="M38.8521 7.4470
L38.9950 7.5185
" />
<path d="M38.9950 7.5185
L39.2807 7.5185
" />
<path d="M39.2807 7.5185
L39.4236 7.4470
" />
<path d="M39.4236 7.4470
L39.4950 7.3756
" />
<path d="M39.4950 7.3756
L39.5664 7.2327
" />
<path d="M39.5664 7.2327
L39.5664 6.9470
" />
<path d="M39.5664 6.9470
L39.4950 6.8042
" />
<path d="M39.4950 6.8042
L39.4236 6.7327
" />
<path d="M39.4236 6.7327
L39.2807 6.6613
" />
<path d="M40.2093 7.3756
L40.2807 7.4470
" />
<path d="M40.2807 7.4470
L40.2093 7.5185
" />
<path d="M40.2093 7.5185
L40.1379 7.4470
" />
<path d="M40.1379 7.4470
L40.2093 7.3756
" />
<path d="M40.2093 7.3756
L40.2093 7.5185
" />
<path d="M41.2093 6.0185
L41.3521 6.0185
" />
<path d="M41.3521 6.0185
L41.4950 6.0899
" />
<path d="M41.4950 6.0899
L41.5664 6.1613
" />
<path d="M41.5664 6.1613
L41.6379 6.3042
" />
<path d="M41.6379 6.3042
L41.7093 6.5899
" />
<path d="M41.7093 6.5899
L41.7093 6.9470
" />
<path d="M41.7093 6.9470
L41.6379 7.2327
" />
<path d="M41.6379 7.2327
L41.5664 7.3756
" />
<path d="M41.5664 7.3756
L41.4950 7.4470
" />
<path d="M41.4950 7.4470
L41.3521 7.5185
" />
<path d="M41.3521 7.5185
L41.2093 7.5185
" />
<path d="M41.2093 7.5185
L41.0664 7.4470
" />
<path d="M41.0664 7.4470
L40.9950 7.3756
" />
<path d="M40.9950 7.3756
L40.9236 7.2327
" />
<path d="M40.9236 7.2327
L40.8521 6.9470
" />
<path d="M40.8521 6.9470
L40.8521 6.5899
" />
<path d="M40.8521 6.5899
L40.9236 6.3042
" />
<path d="M40.9236 6.3042
L40.9950 6.1613
" />
<path d="M40.9950 6.1613
L41.0664 6.0899
" />
<path d="M41.0664 6.0899
L41.2093 6.0185
" />
<path d="M42.6379 6.0185
L42.7807 6.0185
" />
<path d="M42.7807 6.0185
L42.9236 6.0899
" />
<path d="M42.9236 6.0899
L42.9950 6.1613
" />
<path d="M42.9950 6.1613
L43.0664 6.3042
" />
<path d="M43.0664 6.3042
L43.1379 6.5899
" />
<path d="M43.1379 6.5899
L43.1379 6.9470
" />
<path d="M43.1379 6.9470
L43.0664 7.2327
" />
<path d="M43.0664 7.2327
L42.9950 7.3756
" />
<path d="M42.9950 7.3756
L42.9236 7.4470
" />
<path d="M42.9236 7.4470
L42.7807 7.5185
" />
<path d="M42.7807 7.5185
L42.6379 7.5185
" />
<path d="M42.6379 7.5185
L42.4950 7.4470
" />
<path d="M42.4950 7.4470
L42.4236 7.3756
" />
<path d="M42.4236 7.3756
L42.3521 7.2327
" />
<path d="M42.3521 7.2327
L42.2807 6.9470
" />
<path d="M42.2807 6.9470
L42.2807 6.5899
" />
<path d="M42.2807 6.5899
L42.3521 6.3042
" />
<path d="M42.3521 6.3042
L42.4236 6.1613
" />
<path d="M42.4236 6.1613
L42.4950 6.0899
" />
<path d="M42.4950 6.0899
L42.6379 6.0185
" />
<path d="M44.0664 6.0185
L44.2093 6.0185
" />
<path d="M44.2093 6.0185
L44.3521 6.0899
" />
<path d="M44.3521 6.0899
L44.4236 6.1613
" />
<path d="M44.4236 6.1613
L44.4950 6.3042
" />
<path d="M44.4950 6.3042
L44.5664 6.5899
" />
<path d="M44.5664 6.5899
L44.5664 6.9470
" />
<path d="M44.5664 6.9470
L44.4950 7.2327
" />
<path d="M44.4950 7.2327
L44.4236 7.3756
" />
<path d="M44.4236 7.3756
L44.3521 7.4470
" />
<path d="M44.3521 7.4470
L44.2093 7.5185
" />
<path d="M44.2093 7.5185
L44.0664 7.5185
" />
<path d="M44.0664 7.5185
L43.9236 7.4470
" />
<path d="M43.9236 7.4470
L43.8521 7.3756
" />
<path d="M43.8521 7.3756
L43.7807 7.2327
" />
<path d="M43.7807 7.2327
L43.7093 6.9470
" />
<path d="M43.7093 6.9470
L43.7093 6.5899
" />
<path d="M43.7093 6.5899
L43.7807 6.3042
" />
<path d="M43.7807 6.3042
L43.8521 6.1613
" />
<path d="M43.8521 6.1613
L43.9236 6.0899
" />
<path d="M43.9236 6.0899
L44.0664 6.0185
" />
<path d="M45.4950 6.0185
L45.6379 6.0185
" />
<path d="M45.6379 6.0185
L45.7807 6.0899
" />
<path d="M45.7807 6.0899
L45.8521 6.1613
" />
<path d="M45.8521 6.1613
L45.9236 6.3042
" />
<path d="M45.9236 6.3042
L45.9950 6.5899
" />
<path d="M45.9950 6.5899
L45.9950 6.9470
" />
<path d="M45.9950 6.9470
L45.9236 7.2327
" />
<path d="M45.9236 7.2327
L45.8521 7.3756
" />
<path d="M45.8521 7.3756
L45.7807 7.4470
" />
<path d="M45.7807 7.4470
L45.6379 7.5185
" />
<path d="M45.6379 7.5185
L45.4950 7.5185
" />
<path d="M45.4950 7.5185
L45.3521 7.4470
" />
<path d="M45.3521 7.4470
L45.2807 7.3756
" />
<path d="M45.2807 7.3756
L45.2093 7.2327
" />
<path d="M45.2093 7.2327
L45.1379 6.9470
" />
<path d="M45.1379 6.9470
L45.1379 6.5899
" />
<path d="M45.1379 6.5899
L45.2093 6.3042
" />
<path d="M45.2093 6.3042
L45.2807 6.1613
" />
<path d="M45.2807 6.1613
L45.3521 6.0899
" />
<path d="M45.3521 6.0899
L45.4950 6.0185
" />
<path d="M47.7807 7.5185
L47.7807 6.5185
" />
<path d="M47.7807 6.6613
L47.8521 6.5899
" />
<path d="M47.8521 6.5899
L47.9950 6.5185
" />
<path d="M47.9950 6.5185
L48.2093 6.5185
" />
<path d="M48.2093 6.5185
L48.3521 6.5899
" />
<path d="M48.3521 6.5899
L48.4236 6.7327
" />
<path d="M48.4236 6.7327
L48.4236 7.5185
" />
<path d="M48.4236 6.7327
L48.4950 6.5899
" />
<path d="M48.4950 6.5899
L48.6379 6.5185
" />
<path d="M48.6379 6.5185
L48.8521 6.5185
" />
<path d="M48.8521 6.5185
L48.9950 6.5899
" />
<path d="M48.9950 6.5899
L49.0664 6.7327
" />
<path d="M49.0664 6.7327
L49.0664 7.5185
" />
<path d="M49.7807 7.5185
L49.7807 6.5185
" />
<path d="M49.7807 6.6613
L49.8521 6.5899
" />
<path d="M49.8521 6.5899
L49.9950 6.5185
" />
<path d="M49.9950 6.5185
L50.2093 6.5185
" />
<path d="M50.2093 6.5185
L50.3521 6.5899
" />
<path d="M50.3521 6.5899
L50.4236 6.7327
" />
<path d="M50.4236 6.7327
L50.4236 7.5185
" />
<path d="M50.4236 6.7327
L50.4950 6.5899
" />
<path d="M50.4950 6.5899
L50.6379 6.5185
" />
<path d="M50.6379 6.5185
L50.8521 6.5185
" />
<path d="M50.8521 6.5185
L50.9950 6.5899
" />
<path d="M50.9950 6.5899
L51.0664 6.7327
" />
<path d="M51.0664 6.7327
L51.0664 7.5185
" />
</g><path d="M58.2093 69.4650
L58.2093 7.7486
" />
<path d="M30.2093 69.4650
L30.2093 7.7486
" />
<path d="M58.2093 8.3350
L30.2093 8.3350
" />
<path d="M58.2093 8.3350
L30.2093 8.3350
" />
<path d="M58.2093 8.3350
L57.0828 8.9215
" />
<path d="M58.2093 8.3350
L57.0828 7.7486
" />
<path d="M30.2093 8.3350
L31.3358 7.7486
" />
<path d="M30.2093 8.3350
L31.3358 8.9215
" />
<text x="19.2093" y="38.2751"
textLength="12.7300" font-size="2.0000" lengthAdjust="spacingAndGlyphs"
text-anchor="middle" opacity="0">6.6200 mm</text>
<g class="stroked-text"><desc>6.6200 mm</desc>
<path d="M13.7093 36.7185
L13.4236 36.7185
" />
<path d="M13.4236 36.7185
L13.2807 36.7899
" />
<path d="M13.2807 36.7899
L13.2093 36.8613
" />
<path d="M13.2093 36.8613
L13.0664 37.0756
" />
<path d="M13.0664 37.0756
L12.9950 37.3613
" />
<path d="M12.9950 37.3613
L12.9950 37.9327
" />
<path d="M12.9950 37.9327
L13.0664 38.0756
" />
<path d="M13.0664 38.0756
L13.1379 38.1470
" />
<path d="M13.1379 38.1470
L13.2807 38.2185
" />
<path d="M13.2807 38.2185
L13.5664 38.2185
" />
<path d="M13.5664 38.2185
L13.7093 38.1470
" />
<path d="M13.7093 38.1470
L13.7807 38.0756
" />
<path d="M13.7807 38.0756
L13.8521 37.9327
" />
<path d="M13.8521 37.9327
L13.8521 37.5756
" />
<path d="M13.8521 37.5756
L13.7807 37.4327
" />
<path d="M13.7807 37.4327
L13.7093 37.3613
" />
<path d="M13.7093 37.3613
L13.5664 37.2899
" />
<path d="M13.5664 37.2899
L13.2807 37.2899
" />
<path d="M13.2807 37.2899
L13.1379 37.3613
" />
<path d="M13.1379 37.3613
L13.0664 37.4327
" />
<path d="M13.0664 37.4327
L12.9950 37.5756
" />
<path d="M14.4950 38.0756
L14.5664 38.1470
" />
<path d="M14.5664 38.1470
L14.4950 38.2185
" />
<path d="M14.4950 38.2185
L14.4236 38.1470
" />
<path d="M14.4236 38.1470
L14.4950 38.0756
" />
<path d="M14.4950 38.0756
L14.4950 38.2185
" />
<path d="M15.8521 36.7185
L15.5664 36.7185
" />
<path d="M15.5664 36.7185
L15.4236 36.7899
" />
<path d="M15.4236 36.7899
L15.3521 36.8613
" />
<path d="M15.3521 36.8613
L15.2093 37.0756
" />
<path d="M15.2093 37.0756
L15.1379 37.3613
" />
<path d="M15.1379 37.3613
L15.1379 37.9327
" />
<path d="M15.1379 37.9327
L15.2093 38.0756
" />
<path d="M15.2093 38.0756
L15.2807 38.1470
" />
<path d="M15.2807 38.1470
L15.4236 38.2185
" />
<path d="M15.4236 38.2185
L15.7093 38.2185
" />
<path d="M15.7093 38.2185
L15.8521 38.1470
" />
<path d="M15.8521 38.1470
L15.9236 38.0756
" />
<path d="M15.9236 38.0756
L15.9950 37.9327
" />
<path d="M15.9950 37.9327
L15.9950 37.5756
" />
<path d="M15.9950 37.5756
L15.9236 37.4327
" />
<path d="M15.9236 37.4327
L15.8521 37.3613
" />
<path d="M15.8521 37.3613
L15.7093 37.2899
" />
<path d="M15.7093 37.2899
L15.4236 37.2899
" />
<path d="M15.4236 37.2899
L15.2807 37.3613
" />
<path d="M15.2807 37.3613
L15.2093 37.4327
" />
<path d="M15.2093 37.4327
L15.1379 37.5756
" />
<path d="M16.5664 36.8613
L16.6379 36.7899
" />
<path d="M16.6379 36.7899
L16.7807 36.7185
" />
<path d="M16.7807 36.7185
L17.1379 36.7185
" />
<path d="M17.1379 36.7185
L17.2807 36.7899
" />
<path d="M17.2807 36.7899
L17.3521 36.8613
" />
<path d="M17.3521 36.8613
L17.4236 37.0042
" />
<path d="M17.4236 37.0042
L17.4236 37.1470
" />
<path d="M17.4236 37.1470
L17.3521 37.3613
" />
<path d="M17.3521 37.3613
L16.4950 38.2185
" />
<path d="M16.4950 38.2185
L17.4236 38.2185
" />
<path d="M18.3521 36.7185
L18.4950 36.7185
" />
<path d="M18.4950 36.7185
L18.6379 36.7899
" />
<path d="M18.6379 36.7899
L18.7093 36.8613
" />
<path d="M18.7093 36.8613
L18.7807 37.0042
" />
<path d="M18.7807 37.0042
L18.8521 37.2899
" />
<path d="M18.8521 37.2899
L18.8521 37.6470
" />
<path d="M18.8521 37.6470
L18.7807 37.9327
" />
<path d="M18.7807 37.9327
L18.7093 38.0756
" />
<path d="M18.7093 38.0756
L18.6379 38.1470
" />
<path d="M18.6379 38.1470
L18.4950 38.2185
" />
<path d="M18.4950 38.2185
L18.3521 38.2185
" />
<path d="M18.3521 38.2185
L18.2093 38.1470
" />
<path d="M18.2093 38.1470
L18.1379 38.0756
" />
<path d="M18.1379 38.0756
L18.0664 37.9327
" />
<path d="M18.0664 37.9327
L17.9950 37.6470
" />
<path d="M17.9950 37.6470
L17.9950 37.2899
" />
<path d="M17.9950 37.2899
L18.0664 37.0042
" />
<path d="M18.0664 37.0042
L18.1379 36.8613
" />
<path d="M18.1379 36.8613
L18.2093 36.7899
" />
<path d="M18.2093 36.7899
L18.3521 36.7185
" />
<path d="M19.7807 36.7185
L19.9236 36.7185
" />
<path d="M19.9236 36.7185
L20.0664 36.7899
" />
<path d="M20.0664 36.7899
L20.1379 36.8613
" />
<path d="M20.1379 36.8613
L20.2093 37.0042
" />
<path d="M20.2093 37.0042
L20.2807 37.2899
" />
<path d="M20.2807 37.2899
L20.2807 37.6470
" />
<path d="M20.2807 37.6470
L20.2093 37.9327
" />
<path d="M20.2093 37.9327
L20.1379 38.0756
" />
<path d="M20.1379 38.0756
L20.0664 38.1470
" />
<path d="M20.0664 38.1470
L19.9236 38.2185
" />
<path d="M19.9236 38.2185
L19.7807 38.2185
" />
<path d="M19.7807 38.2185
L19.6379 38.1470
" />
<path d="M19.6379 38.1470
L19.5664 38.0756
" />
<path d="M19.5664 38.0756
L19.4950 37.9327
" />
<path d="M19.4950 37.9327
L19.4236 37.6470
" />
<path d="M19.4236 37.6470
L19.4236 37.2899
" />
<path d="M19.4236 37.2899
L19.4950 37.0042
" />
<path d="M19.4950 37.0042
L19.5664 36.8613
" />
<path d="M19.5664 36.8613
L19.6379 36.7899
" />
<path d="M19.6379 36.7899
L19.7807 36.7185
" />
<path d="M22.0664 38.2185
L22.0664 37.2185
" />
<path d="M22.0664 37.3613
L22.1379 37.2899
" />
<path d="M22.1379 37.2899
L22.2807 37.2185
" />
<path d="M22.2807 37.2185
L22.4950 37.2185
" />
<path d="M22.4950 37.2185
L22.6379 37.2899
" />
<path d="M22.6379 37.2899
L22.7093 37.4327
" />
<path d="M22.7093 37.4327
L22.7093 38.2185
" />
<path d="M22.7093 37.4327
L22.7807 37.2899
" />
<path d="M22.7807 37.2899
L22.9236 37.2185
" />
<path d="M22.9236 37.2185
L23.1379 37.2185
" />
<path d="M23.1379 37.2185
L23.2807 37.2899
" />
<path d="M23.2807 37.2899
L23.3521 37.4327
" />
<path d="M23.3521 37.4327
L23.3521 38.2185
" />
<path d="M24.0664 38.2185
L24.0664 37.2185
" />
<path d="M24.0664 37.3613
L24.1379 37.2899
" />
<path d="M24.1379 37.2899
L24.2807 37.2185
" />
<path d="M24.2807 37.2185
L24.4950 37.2185
" />
<path d="M24.4950 37.2185
L24.6379 37.2899
" />
<path d="M24.6379 37.2899
L24.7093 37.4327
" />
<path d="M24.7093 37.4327
L24.7093 38.2185
" />
<path d="M24.7093 37.4327
L24.7807 37.2899
" />
<path d="M24.7807 37.2899
L24.9236 37.2185
" />
<path d="M24.9236 37.2185
L25.1379 37.2185
" />
<path d="M25.1379 37.2185
L25.2807 37.2899
" />
<path d="M25.2807 37.2899
L25.3521 37.4327
" />
<path d="M25.3521 37.4327
L25.3521 38.2185
" />
</g><path d="M22.5193 11.8050
L22.5193 39.6215
" />
<path d="M15.8993 11.8050
L15.8993 39.6215
" />
<path d="M22.5193 39.0350
L15.8993 39.0350
" />
<path d="M22.5193 39.0350
L15.8993 39.0350
" />
<path d="M22.5193 39.0350
L21.3928 39.6215
" />
<path d="M22.5193 39.0350
L21.3928 38.4486
" />
<path d="M15.8993 39.0350
L17.0258 38.4486
" />
<path d="M15.8993 39.0350
L17.0258 39.6215
" />
<g transform="rotate(-90.000000 7.0793 20.8950)">
<text x="7.0793" y="21.6450"
textLength="14.1586" font-size="2.0000" lengthAdjust="spacingAndGlyphs"
text-anchor="middle" opacity="0">18.1800 mm</text>
</g>
<g class="stroked-text"><desc>18.1800 mm</desc>
<path d="M7.7727 26.9665
L7.7727 27.8236
" />
<path d="M7.7727 27.3950
L6.2727 27.3950
" />
<path d="M6.2727 27.3950
L6.4870 27.5379
" />
<path d="M6.4870 27.5379
L6.6298 27.6808
" />
<path d="M6.6298 27.6808
L6.7013 27.8236
" />
<path d="M6.9155 26.1093
L6.8441 26.2522
" />
<path d="M6.8441 26.2522
L6.7727 26.3236
" />
<path d="M6.7727 26.3236
L6.6298 26.3950
" />
<path d="M6.6298 26.3950
L6.5584 26.3950
" />
<path d="M6.5584 26.3950
L6.4155 26.3236
" />
<path d="M6.4155 26.3236
L6.3441 26.2522
" />
<path d="M6.3441 26.2522
L6.2727 26.1093
" />
<path d="M6.2727 26.1093
L6.2727 25.8236
" />
<path d="M6.2727 25.8236
L6.3441 25.6808
" />
<path d="M6.3441 25.6808
L6.4155 25.6093
" />
<path d="M6.4155 25.6093
L6.5584 25.5379
" />
<path d="M6.5584 25.5379
L6.6298 25.5379
" />
<path d="M6.6298 25.5379
L6.7727 25.6093
" />
<path d="M6.7727 25.6093
L6.8441 25.6808
" />
<path d="M6.8441 25.6808
L6.9155 25.8236
" />
<path d="M6.9155 25.8236
L6.9155 26.1093
" />
<path d="M6.9155 26.1093
L6.9870 26.2522
" />
<path d="M6.9870 26.2522
L7.0584 26.3236
" />
<path d="M7.0584 26.3236
L7.2013 26.3950
" />
<path d="M7.2013 26.3950
L7.4870 26.3950
" />
<path d="M7.4870 26.3950
L7.6298 26.3236
" />
<path d="M7.6298 26.3236
L7.7013 26.2522
" />
<path d="M7.7013 26.2522
L7.7727 26.1093
" />
<path d="M7.7727 26.1093
L7.7727 25.8236
" />
<path d="M7.7727 25.8236
L7.7013 25.6808
" />
<path d="M7.7013 25.6808
L7.6298 25.6093
" />
<path d="M7.6298 25.6093
L7.4870 25.5379
" />
<path d="M7.4870 25.5379
L7.2013 25.5379
" />
<path d="M7.2013 25.5379
L7.0584 25.6093
" />
<path d="M7.0584 25.6093
L6.9870 25.6808
" />
<path d="M6.9870 25.6808
L6.9155 25.8236
" />
<path d="M7.6298 24.8950
L7.7013 24.8236
" />
<path d="M7.7013 24.8236
L7.7727 24.8950
" />
<path d="M7.7727 24.8950
L7.7013 24.9665
" />
<path d="M7.7013 24.9665
L7.6298 24.8950
" />
<path d="M7.6298 24.8950
L7.7727 24.8950
" />
<path d="M7.7727 23.3950
L7.7727 24.2522
" />
<path d="M7.7727 23.8236
L6.2727 23.8236
" />
<path d="M6.2727 23.8236
L6.4870 23.9665
" />
<path d="M6.4870 23.9665
L6.6298 24.1093
" />
<path d="M6.6298 24.1093
L6.7013 24.2522
" />
<path d="M6.9155 22.5379
L6.8441 22.6808
" />
<path d="M6.8441 22.6808
L6.7727 22.7522
" />
<path d="M6.7727 22.7522
L6.6298 22.8236
" />
<path d="M6.6298 22.8236
L6.5584 22.8236
" />
<path d="M6.5584 22.8236
L6.4155 22.7522
" />
<path d="M6.4155 22.7522
L6.3441 22.6808
" />
<path d="M6.3441 22.6808
L6.2727 22.5379
" />
<path d="M6.2727 22.5379
L6.2727 22.2522
" />
<path d="M6.2727 22.2522
L6.3441 22.1093
" />
<path d="M6.3441 22.1093
L6.4155 22.0379
" />
<path d="M6.4155 22.0379
L6.5584 21.9665
" />
<path d="M6.5584 21.9665
L6.6298 21.9665
" />
<path d="M6.6298 21.9665
L6.7727 22.0379
" />
<path d="M6.7727 22.0379
L6.8441 22.1093
" />
<path d="M6.8441 22.1093
L6.9155 22.2522
" />
<path d="M6.9155 22.2522
L6.9155 22.5379
" />
<path d="M6.9155 22.5379
L6.9870 22.6808
" />
<path d="M6.9870 22.6808
L7.0584 22.7522
" />
<path d="M7.0584 22.7522
L7.2013 22.8236
" />
<path d="M7.2013 22.8236
L7.4870 22.8236
" />
<path d="M7.4870 22.8236
L7.6298 22.7522
" />
<path d="M7.6298 22.7522
L7.7013 22.6808
" />
<path d="M7.7013 22.6808
L7.7727 22.5379
" />
<path d="M7.7727 22.5379
L7.7727 22.2522
" />
<path d="M7.7727 22.2522
L7.7013 22.1093
" />
<path d="M7.7013 22.1093
L7.6298 22.0379
" />
<path d="M7.6298 22.0379
L7.4870 21.9665
" />
<path d="M7.4870 21.9665
L7.2013 21.9665
" />
<path d="M7.2013 21.9665
L7.0584 22.0379
" />
<path d="M7.0584 22.0379
L6.9870 22.1093
" />
<path d="M6.9870 22.1093
L6.9155 22.2522
" />
<path d="M6.2727 21.0379
L6.2727 20.8950
" />
<path d="M6.2727 20.8950
L6.3441 20.7522
" />
<path d="M6.3441 20.7522
L6.4155 20.6808
" />
<path d="M6.4155 20.6808
L6.5584 20.6093
" />
<path d="M6.5584 20.6093
L6.8441 20.5379
" />
<path d="M6.8441 20.5379
L7.2013 20.5379
" />
<path d="M7.2013 20.5379
L7.4870 20.6093
" />
<path d="M7.4870 20.6093
L7.6298 20.6808
" />
<path d="M7.6298 20.6808
L7.7013 20.7522
" />
<path d="M7.7013 20.7522
L7.7727 20.8950
" />
<path d="M7.7727 20.8950
L7.7727 21.0379
" />
<path d="M7.7727 21.0379
L7.7013 21.1808
" />
<path d="M7.7013 21.1808
L7.6298 21.2522
" />
<path d="M7.6298 21.2522
L7.4870 21.3236
" />
<path d="M7.4870 21.3236
L7.2013 21.3950
" />
<path d="M7.2013 21.3950
L6.8441 21.3950
" />
<path d="M6.8441 21.3950
L6.5584 21.3236
" />
<path d="M6.5584 21.3236
L6.4155 21.2522
" />
<path d="M6.4155 21.2522
L6.3441 21.1808
" />
<path d="M6.3441 21.1808
L6.2727 21.0379
" />
<path d="M6.2727 19.6093
L6.2727 19.4665
" />
<path d="M6.2727 19.4665
L6.3441 19.3236
" />
<path d="M6.3441 19.3236
L6.4155 19.2522
" />
<path d="M6.4155 19.2522
L6.5584 19.1808
" />
<path d="M6.5584 19.1808
L6.8441 19.1093
" />
<path d="M6.8441 19.1093
L7.2013 19.1093
" />
<path d="M7.2013 19.1093
L7.4870 19.1808
" />
<path d="M7.4870 19.1808
L7.6298 19.2522
" />
<path d="M7.6298 19.2522
L7.7013 19.3236
" />
<path d="M7.7013 19.3236
L7.7727 19.4665
" />
<path d="M7.7727 19.4665
L7.7727 19.6093
" />
<path d="M7.7727 19.6093
L7.7013 19.7522
" />
<path d="M7.7013 19.7522
L7.6298 19.8236
" />
<path d="M7.6298 19.8236
L7.4870 19.8950
" />
<path d="M7.4870 19.8950
L7.2013 19.9665
" />
<path d="M7.2013 19.9665
L6.8441 19.9665
" />
<path d="M6.8441 19.9665
L6.5584 19.8950
" />
<path d="M6.5584 19.8950
L6.4155 19.8236
" />
<path d="M6.4155 19.8236
L6.3441 19.7522
" />
<path d="M6.3441 19.7522
L6.2727 19.6093
" />
<path d="M7.7727 17.3236
L6.7727 17.3236
" />
<path d="M6.9155 17.3236
L6.8441 17.2522
" />
<path d="M6.8441 17.2522
L6.7727 17.1093
" />
<path d="M6.7727 17.1093
L6.7727 16.8950
" />
<path d="M6.7727 16.8950
L6.8441 16.7522
" />
<path d="M6.8441 16.7522
L6.9870 16.6808
" />
<path d="M6.9870 16.6808
L7.7727 16.6808
" />
<path d="M6.9870 16.6808
L6.8441 16.6093
" />
<path d="M6.8441 16.6093
L6.7727 16.4665
" />
<path d="M6.7727 16.4665
L6.7727 16.2522
" />
<path d="M6.7727 16.2522
L6.8441 16.1093
" />
<path d="M6.8441 16.1093
L6.9870 16.0379
" />
<path d="M6.9870 16.0379
L7.7727 16.0379
" />
<path d="M7.7727 15.3236
L6.7727 15.3236
" />
<path d="M6.9155 15.3236
L6.8441 15.2522
" />
<path d="M6.8441 15.2522
L6.7727 15.1093
" />
<path d="M6.7727 15.1093
L6.7727 14.8950
" />
<path d="M6.7727 14.8950
L6.8441 14.7522
" />
<path d="M6.8441 14.7522
L6.9870 14.6808
" />
<path d="M6.9870 14.6808
L7.7727 14.6808
" />
<path d="M6.9870 14.6808
L6.8441 14.6093
" />
<path d="M6.8441 14.6093
L6.7727 14.4665
" />
<path d="M6.7727 14.4665
L6.7727 14.2522
" />
<path d="M6.7727 14.2522
L6.8441 14.1093
" />
<path d="M6.8441 14.1093
L6.9870 14.0379
" />
<path d="M6.9870 14.0379
L7.7727 14.0379
" />
</g><path d="M72.5093 29.9850
L8.0029 29.9850
" />
<path d="M72.5093 11.8050
L8.0029 11.8050
" />
<path d="M8.5893 29.9850
L8.5893 11.8050
" />
<path d="M8.5893 29.9850
L8.5893 11.8050
" />
<path d="M8.5893 29.9850
L8.0029 28.8585
" />
<path d="M8.5893 29.9850
L9.1757 28.8585
" />
<path d="M8.5893 11.8050
L9.1757 12.9316
" />
<path d="M8.5893 11.8050
L8.0029 12.9316
" />
<text x="69.1993" y="37.7351"
textLength="12.7300" font-size="2.0000" lengthAdjust="spacingAndGlyphs"
text-anchor="middle" opacity="0">6.6200 mm</text>
<g class="stroked-text"><desc>6.6200 mm</desc>
<path d="M63.6993 36.1785
L63.4136 36.1785
" />
<path d="M63.4136 36.1785
L63.2707 36.2499
" />
<path d="M63.2707 36.2499
L63.1993 36.3213
" />
<path d="M63.1993 36.3213
L63.0564 36.5356
" />
<path d="M63.0564 36.5356
L62.9850 36.8213
" />
<path d="M62.9850 36.8213
L62.9850 37.3927
" />
<path d="M62.9850 37.3927
L63.0564 37.5356
" />
<path d="M63.0564 37.5356
L63.1279 37.6070
" />
<path d="M63.1279 37.6070
L63.2707 37.6785
" />
<path d="M63.2707 37.6785
L63.5564 37.6785
" />
<path d="M63.5564 37.6785
L63.6993 37.6070
" />
<path d="M63.6993 37.6070
L63.7707 37.5356
" />
<path d="M63.7707 37.5356
L63.8421 37.3927
" />
<path d="M63.8421 37.3927
L63.8421 37.0356
" />
<path d="M63.8421 37.0356
L63.7707 36.8927
" />
<path d="M63.7707 36.8927
L63.6993 36.8213
" />
<path d="M63.6993 36.8213
L63.5564 36.7499
" />
<path d="M63.5564 36.7499
L63.2707 36.7499
" />
<path d="M63.2707 36.7499
L63.1279 36.8213
" />
<path d="M63.1279 36.8213
L63.0564 36.8927
" />
<path d="M63.0564 36.8927
L62.9850 37.0356
" />
<path d="M64.4850 37.5356
L64.5564 37.6070
" />
<path d="M64.5564 37.6070
L64.4850 37.6785
" />
<path d="M64.4850 37.6785
L64.4136 37.6070
" />
<path d="M64.4136 37.6070
L64.4850 37.5356
" />
<path d="M64.4850 37.5356
L64.4850 37.6785
" />
<path d="M65.8421 36.1785
L65.5564 36.1785
" />
<path d="M65.5564 36.1785
L65.4136 36.2499
" />
<path d="M65.4136 36.2499
L65.3421 36.3213
" />
<path d="M65.3421 36.3213
L65.1993 36.5356
" />
<path d="M65.1993 36.5356
L65.1279 36.8213
" />
<path d="M65.1279 36.8213
L65.1279 37.3927
" />
<path d="M65.1279 37.3927
L65.1993 37.5356
" />
<path d="M65.1993 37.5356
L65.2707 37.6070
" />
<path d="M65.2707 37.6070
L65.4136 37.6785
" />
<path d="M65.4136 37.6785
L65.6993 37.6785
" />
<path d="M65.6993 37.6785
L65.8421 37.6070
" />
<path d="M65.8421 37.6070
L65.9136 37.5356
" />
<path d="M65.9136 37.5356
L65.9850 37.3927
" />
<path d="M65.9850 37.3927
L65.9850 37.0356
" />
<path d="M65.9850 37.0356
L65.9136 36.8927
" />
<path d="M65.9136 36.8927
L65.8421 36.8213
" />
<path d="M65.8421 36.8213
L65.6993 36.7499
" />
<path d="M65.6993 36.7499
L65.4136 36.7499
" />
<path d="M65.4136 36.7499
L65.2707 36.8213
" />
<path d="M65.2707 36.8213
L65.1993 36.8927
" />
<path d="M65.1993 36.8927
L65.1279 37.0356
" />
<path d="M66.5564 36.3213
L66.6279 36.2499
" />
<path d="M66.6279 36.2499
L66.7707 36.1785
" />
<path d="M66.7707 36.1785
L67.1279 36.1785
" />
<path d="M67.1279 36.1785
L67.2707 36.2499
" />
<path d="M67.2707 36.2499
L67.3421 36.3213
" />
<path d="M67.3421 36.3213
L67.4136 36.4642
" />
<path d="M67.4136 36.4642
L67.4136 36.6070
" />
<path d="M67.4136 36.6070
L67.3421 36.8213
" />
<path d="M67.3421 36.8213
L66.4850 37.6785
" />
<path d="M66.4850 37.6785
L67.4136 37.6785
" />
<path d="M68.3421 36.1785
L68.4850 36.1785
" />
<path d="M68.4850 36.1785
L68.6279 36.2499
" />
<path d="M68.6279 36.2499
L68.6993 36.3213
" />
<path d="M68.6993 36.3213
L68.7707 36.4642
" />
<path d="M68.7707 36.4642
L68.8421 36.7499
" />
<path d="M68.8421 36.7499
L68.8421 37.1070
" />
<path d="M68.8421 37.1070
L68.7707 37.3927
" />
<path d="M68.7707 37.3927
L68.6993 37.5356
" />
<path d="M68.6993 37.5356
L68.6279 37.6070
" />
<path d="M68.6279 37.6070
L68.4850 37.6785
" />
<path d="M68.4850 37.6785
L68.3421 37.6785
" />
<path d="M68.3421 37.6785
L68.1993 37.6070
" />
<path d="M68.1993 37.6070
L68.1279 37.5356
" />
<path d="M68.1279 37.5356
L68.0564 37.3927
" />
<path d="M68.0564 37.3927
L67.9850 37.1070
" />
<path d="M67.9850 37.1070
L67.9850 36.7499
" />
<path d="M67.9850 36.7499
L68.0564 36.4642
" />
<path d="M68.0564 36.4642
L68.1279 36.3213
" />
<path d="M68.1279 36.3213
L68.1993 36.2499
" />
<path d="M68.1993 36.2499
L68.3421 36.1785
" />
<path d="M69.7707 36.1785
L69.9136 36.1785
" />
<path d="M69.9136 36.1785
L70.0564 36.2499
" />
<path d="M70.0564 36.2499
L70.1279 36.3213
" />
<path d="M70.1279 36.3213
L70.1993 36.4642
" />
<path d="M70.1993 36.4642
L70.2707 36.7499
" />
<path d="M70.2707 36.7499
L70.2707 37.1070
" />
<path d="M70.2707 37.1070
L70.1993 37.3927
" />
<path d="M70.1993 37.3927
L70.1279 37.5356
" />
<path d="M70.1279 37.5356
L70.0564 37.6070
" />
<path d="M70.0564 37.6070
L69.9136 37.6785
" />
<path d="M69.9136 37.6785
L69.7707 37.6785
" />
<path d="M69.7707 37.6785
L69.6279 37.6070
" />
<path d="M69.6279 37.6070
L69.5564 37.5356
" />
<path d="M69.5564 37.5356
L69.4850 37.3927
" />
<path d="M69.4850 37.3927
L69.4136 37.1070
" />
<path d="M69.4136 37.1070
L69.4136 36.7499
" />
<path d="M69.4136 36.7499
L69.4850 36.4642
" />
<path d="M69.4850 36.4642
L69.5564 36.3213
" />
<path d="M69.5564 36.3213
L69.6279 36.2499
" />
<path d="M69.6279 36.2499
L69.7707 36.1785
" />
<path d="M72.0564 37.6785
L72.0564 36.6785
" />
<path d="M72.0564 36.8213
L72.1279 36.7499
" />
<path d="M72.1279 36.7499
L72.2707 36.6785
" />
<path d="M72.2707 36.6785
L72.4850 36.6785
" />
<path d="M72.4850 36.6785
L72.6279 36.7499
" />
<path d="M72.6279 36.7499
L72.6993 36.8927
" />
<path d="M72.6993 36.8927
L72.6993 37.6785
" />
<path d="M72.6993 36.8927
L72.7707 36.7499
" />
<path d="M72.7707 36.7499
L72.9136 36.6785
" />
<path d="M72.9136 36.6785
L73.1279 36.6785
" />
<path d="M73.1279 36.6785
L73.2707 36.7499
" />
<path d="M73.2707 36.7499
L73.3421 36.8927
" />
<path d="M73.3421 36.8927
L73.3421 37.6785
" />
<path d="M74.0564 37.6785
L74.0564 36.6785
" />
<path d="M74.0564 36.8213
L74.1279 36.7499
" />
<path d="M74.1279 36.7499
L74.2707 36.6785
" />
<path d="M74.2707 36.6785
L74.4850 36.6785
" />
<path d="M74.4850 36.6785
L74.6279 36.7499
" />
<path d="M74.6279 36.7499
L74.6993 36.8927
" />
<path d="M74.6993 36.8927
L74.6993 37.6785
" />
<path d="M74.6993 36.8927
L74.7707 36.7499
" />
<path d="M74.7707 36.7499
L74.9136 36.6785
" />
<path d="M74.9136 36.6785
L75.1279 36.6785
" />
<path d="M75.1279 36.6785
L75.2707 36.7499
" />
<path d="M75.2707 36.7499
L75.3421 36.8927
" />
<path d="M75.3421 36.8927
L75.3421 37.6785
" />
</g><path d="M65.8893 11.8050
L65.8893 39.0815
" />
<path d="M72.5093 11.8050
L72.5093 39.0815
" />
<path d="M65.8893 38.4950
L72.5093 38.4950
" />
<path d="M65.8893 38.4950
L72.5093 38.4950
" />
<path d="M65.8893 38.4950
L67.0158 37.9086
" />
<path d="M65.8893 38.4950
L67.0158 39.0815
" />
<path d="M72.5093 38.4950
L71.3828 39.0815
" />
<path d="M72.5093 38.4950
L71.3828 37.9086
" />
<text x="44.2043" y="1.6450"
textLength="14.1586" font-size="2.0000" lengthAdjust="spacingAndGlyphs"
text-anchor="middle" opacity="0">56.6100 mm</text>
<g class="stroked-text"><desc>56.6100 mm</desc>
<path d="M38.0614 0.0885
L37.3471 0.0885
" />
<path d="M37.3471 0.0885
L37.2757 0.8027
" />
<path d="M37.2757 0.8027
L37.3471 0.7313
" />
<path d="M37.3471 0.7313
L37.4900 0.6599
" />
<path d="M37.4900 0.6599
L37.8471 0.6599
" />
<path d="M37.8471 0.6599
L37.9900 0.7313
" />
<path d="M37.9900 0.7313
L38.0614 0.8027
" />
<path d="M38.0614 0.8027
L38.1329 0.9456
" />
<path d="M38.1329 0.9456
L38.1329 1.3027
" />
<path d="M38.1329 1.3027
L38.0614 1.4456
" />
<path d="M38.0614 1.4456
L37.9900 1.5170
" />
<path d="M37.9900 1.5170
L37.8471 1.5885
" />
<path d="M37.8471 1.5885
L37.4900 1.5885
" />
<path d="M37.4900 1.5885
L37.3471 1.5170
" />
<path d="M37.3471 1.5170
L37.2757 1.4456
" />
<path d="M39.4186 0.0885
L39.1329 0.0885
" />
<path d="M39.1329 0.0885
L38.9900 0.1599
" />
<path d="M38.9900 0.1599
L38.9186 0.2313
" />
<path d="M38.9186 0.2313
L38.7757 0.4456
" />
<path d="M38.7757 0.4456
L38.7043 0.7313
" />
<path d="M38.7043 0.7313
L38.7043 1.3027
" />
<path d="M38.7043 1.3027
L38.7757 1.4456
" />
<path d="M38.7757 1.4456
L38.8471 1.5170
" />
<path d="M38.8471 1.5170
L38.9900 1.5885
" />
<path d="M38.9900 1.5885
L39.2757 1.5885
" />
<path d="M39.2757 1.5885
L39.4186 1.5170
" />
<path d="M39.4186 1.5170
L39.4900 1.4456
" />
<path d="M39.4900 1.4456
L39.5614 1.3027
" />
<path d="M39.5614 1.3027
L39.5614 0.9456
" />
<path d="M39.5614 0.9456
L39.4900 0.8027
" />
<path d="M39.4900 0.8027
L39.4186 0.7313
" />
<path d="M39.4186 0.7313
L39.2757 0.6599
" />
<path d="M39.2757 0.6599
L38.9900 0.6599
" />
<path d="M38.9900 0.6599
L38.8471 0.7313
" />
<path d="M38.8471 0.7313
L38.7757 0.8027
" />
<path d="M38.7757 0.8027
L38.7043 0.9456
" />
<path d="M40.2043 1.4456
L40.2757 1.5170
" />
<path d="M40.2757 1.5170
L40.2043 1.5885
" />
<path d="M40.2043 1.5885
L40.1329 1.5170
" />
<path d="M40.1329 1.5170
L40.2043 1.4456
" />
<path d="M40.2043 1.4456
L40.2043 1.5885
" />
<path d="M41.5614 0.0885
L41.2757 0.0885
" />
<path d="M41.2757 0.0885
L41.1329 0.1599
" />
<path d="M41.1329 0.1599
L41.0614 0.2313
" />
<path d="M41.0614 0.2313
L40.9186 0.4456
" />
<path d="M40.9186 0.4456
L40.8471 0.7313
" />
<path d="M40.8471 0.7313
L40.8471 1.3027
" />
<path d="M40.8471 1.3027
L40.9186 1.4456
" />
<path d="M40.9186 1.4456
L40.9900 1.5170
" />
<path d="M40.9900 1.5170
L41.1329 1.5885
" />
<path d="M41.1329 1.5885
L41.4186 1.5885
" />
<path d="M41.4186 1.5885
L41.5614 1.5170
" />
<path d="M41.5614 1.5170
L41.6329 1.4456
" />
<path d="M41.6329 1.4456
L41.7043 1.3027
" />
<path d="M41.7043 1.3027
L41.7043 0.9456
" />
<path d="M41.7043 0.9456
L41.6329 0.8027
" />
<path d="M41.6329 0.8027
L41.5614 0.7313
" />
<path d="M41.5614 0.7313
L41.4186 0.6599
" />
<path d="M41.4186 0.6599
L41.1329 0.6599
" />
<path d="M41.1329 0.6599
L40.9900 0.7313
" />
<path d="M40.9900 0.7313
L40.9186 0.8027
" />
<path d="M40.9186 0.8027
L40.8471 0.9456
" />
<path d="M43.1329 1.5885
L42.2757 1.5885
" />
<path d="M42.7043 1.5885
L42.7043 0.0885
" />
<path d="M42.7043 0.0885
L42.5614 0.3027
" />
<path d="M42.5614 0.3027
L42.4186 0.4456
" />
<path d="M42.4186 0.4456
L42.2757 0.5170
" />
<path d="M44.0614 0.0885
L44.2043 0.0885
" />
<path d="M44.2043 0.0885
L44.3471 0.1599
" />
<path d="M44.3471 0.1599
L44.4186 0.2313
" />
<path d="M44.4186 0.2313
L44.4900 0.3742
" />
<path d="M44.4900 0.3742
L44.5614 0.6599
" />
<path d="M44.5614 0.6599
L44.5614 1.0170
" />
<path d="M44.5614 1.0170
L44.4900 1.3027
" />
<path d="M44.4900 1.3027
L44.4186 1.4456
" />
<path d="M44.4186 1.4456
L44.3471 1.5170
" />
<path d="M44.3471 1.5170
L44.2043 1.5885
" />
<path d="M44.2043 1.5885
L44.0614 1.5885
" />
<path d="M44.0614 1.5885
L43.9186 1.5170
" />
<path d="M43.9186 1.5170
L43.8471 1.4456
" />
<path d="M43.8471 1.4456
L43.7757 1.3027
" />
<path d="M43.7757 1.3027
L43.7043 1.0170
" />
<path d="M43.7043 1.0170
L43.7043 0.6599
" />
<path d="M43.7043 0.6599
L43.7757 0.3742
" />
<path d="M43.7757 0.3742
L43.8471 0.2313
" />
<path d="M43.8471 0.2313
L43.9186 0.1599
" />
<path d="M43.9186 0.1599
L44.0614 0.0885
" />
<path d="M45.4900 0.0885
L45.6329 0.0885
" />
<path d="M45.6329 0.0885
L45.7757 0.1599
" />
<path d="M45.7757 0.1599
L45.8471 0.2313
" />
<path d="M45.8471 0.2313
L45.9186 0.3742
" />
<path d="M45.9186 0.3742
L45.9900 0.6599
" />
<path d="M45.9900 0.6599
L45.9900 1.0170
" />
<path d="M45.9900 1.0170
L45.9186 1.3027
" />
<path d="M45.9186 1.3027
L45.8471 1.4456
" />
<path d="M45.8471 1.4456
L45.7757 1.5170
" />
<path d="M45.7757 1.5170
L45.6329 1.5885
" />
<path d="M45.6329 1.5885
L45.4900 1.5885
" />
<path d="M45.4900 1.5885
L45.3471 1.5170
" />
<path d="M45.3471 1.5170
L45.2757 1.4456
" />
<path d="M45.2757 1.4456
L45.2043 1.3027
" />
<path d="M45.2043 1.3027
L45.1329 1.0170
" />
<path d="M45.1329 1.0170
L45.1329 0.6599
" />
<path d="M45.1329 0.6599
L45.2043 0.3742
" />
<path d="M45.2043 0.3742
L45.2757 0.2313
" />
<path d="M45.2757 0.2313
L45.3471 0.1599
" />
<path d="M45.3471 0.1599
L45.4900 0.0885
" />
<path d="M47.7757 1.5885
L47.7757 0.5885
" />
<path d="M47.7757 0.7313
L47.8471 0.6599
" />
<path d="M47.8471 0.6599
L47.9900 0.5885
" />
<path d="M47.9900 0.5885
L48.2043 0.5885
" />
<path d="M48.2043 0.5885
L48.3471 0.6599
" />
<path d="M48.3471 0.6599
L48.4186 0.8027
" />
<path d="M48.4186 0.8027
L48.4186 1.5885
" />
<path d="M48.4186 0.8027
L48.4900 0.6599
" />
<path d="M48.4900 0.6599
L48.6329 0.5885
" />
<path d="M48.6329 0.5885
L48.8471 0.5885
" />
<path d="M48.8471 0.5885
L48.9900 0.6599
" />
<path d="M48.9900 0.6599
L49.0614 0.8027
" />
<path d="M49.0614 0.8027
L49.0614 1.5885
" />
<path d="M49.7757 1.5885
L49.7757 0.5885
" />
<path d="M49.7757 0.7313
L49.8471 0.6599
" />
<path d="M49.8471 0.6599
L49.9900 0.5885
" />
<path d="M49.9900 0.5885
L50.2043 0.5885
" />
<path d="M50.2043 0.5885
L50.3471 0.6599
" />
<path d="M50.3471 0.6599
L50.4186 0.8027
" />
<path d="M50.4186 0.8027
L50.4186 1.5885
" />
<path d="M50.4186 0.8027
L50.4900 0.6599
" />
<path d="M50.4900 0.6599
L50.6329 0.5885
" />
<path d="M50.6329 0.5885
L50.8471 0.5885
" />
<path d="M50.8471 0.5885
L50.9900 0.6599
" />
<path d="M50.9900 0.6599
L51.0614 0.8027
" />
<path d="M51.0614 0.8027
L51.0614 1.5885
" />
</g><path d="M72.5093 69.4650
L72.5093 1.8186
" />
<path d="M15.8993 69.4650
L15.8993 1.8186
" />
<path d="M72.5093 2.4050
L15.8993 2.4050
" />
<path d="M72.5093 2.4050
L15.8993 2.4050
" />
<path d="M72.5093 2.4050
L71.3828 2.9915
" />
<path d="M72.5093 2.4050
L71.3828 1.8186
" />
<path d="M15.8993 2.4050
L17.0258 1.8186
" />
<path d="M15.8993 2.4050
L17.0258 2.9915
" />
<g transform="rotate(-90.000000 74.7993 62.0500)">
<text x="74.7993" y="62.8000"
textLength="14.1586" font-size="2.0000" lengthAdjust="spacingAndGlyphs"
text-anchor="middle" opacity="0">14.8300 mm</text>
</g>
<g class="stroked-text"><desc>14.8300 mm</desc>
<path d="M75.4927 68.1215
L75.4927 68.9786
" />
<path d="M75.4927 68.5500
L73.9927 68.5500
" />
<path d="M73.9927 68.5500
L74.2070 68.6929
" />
<path d="M74.2070 68.6929
L74.3498 68.8358
" />
<path d="M74.3498 68.8358
L74.4213 68.9786
" />
<path d="M74.4927 66.8358
L75.4927 66.8358
" />
<path d="M73.9213 67.1929
L74.9927 67.5500
" />
<path d="M74.9927 67.5500
L74.9927 66.6215
" />
<path d="M75.3498 66.0500
L75.4213 65.9786
" />
<path d="M75.4213 65.9786
L75.4927 66.0500
" />
<path d="M75.4927 66.0500
L75.4213 66.1215
" />
<path d="M75.4213 66.1215
L75.3498 66.0500
" />
<path d="M75.3498 66.0500
L75.4927 66.0500
" />
<path d="M74.6355 65.1215
L74.5641 65.2643
" />
<path d="M74.5641 65.2643
L74.4927 65.3358
" />
<path d="M74.4927 65.3358
L74.3498 65.4072
" />
<path d="M74.3498 65.4072
L74.2784 65.4072
" />
<path d="M74.2784 65.4072
L74.1355 65.3358
" />
<path d="M74.1355 65.3358
L74.0641 65.2643
" />
<path d="M74.0641 65.2643
L73.9927 65.1215
" />
<path d="M73.9927 65.1215
L73.9927 64.8358
" />
<path d="M73.9927 64.8358
L74.0641 64.6929
" />
<path d="M74.0641 64.6929
L74.1355 64.6215
" />
<path d="M74.1355 64.6215
L74.2784 64.5500
" />
<path d="M74.2784 64.5500
L74.3498 64.5500
" />
<path d="M74.3498 64.5500
L74.4927 64.6215
" />
<path d="M74.4927 64.6215
L74.5641 64.6929
" />
<path d="M74.5641 64.6929
L74.6355 64.8358
" />
<path d="M74.6355 64.8358
L74.6355 65.1215
" />
<path d="M74.6355 65.1215
L74.7070 65.2643
" />
<path d="M74.7070 65.2643
L74.7784 65.3358
" />
<path d="M74.7784 65.3358
L74.9213 65.4072
" />
<path d="M74.9213 65.4072
L75.2070 65.4072
" />
<path d="M75.2070 65.4072
L75.3498 65.3358
" />
<path d="M75.3498 65.3358
L75.4213 65.2643
" />
<path d="M75.4213 65.2643
L75.4927 65.1215
" />
<path d="M75.4927 65.1215
L75.4927 64.8358
" />
<path d="M75.4927 64.8358
L75.4213 64.6929
" />
<path d="M75.4213 64.6929
L75.3498 64.6215
" />
<path d="M75.3498 64.6215
L75.2070 64.5500
" />
<path d="M75.2070 64.5500
L74.9213 64.5500
" />
<path d="M74.9213 64.5500
L74.7784 64.6215
" />
<path d="M74.7784 64.6215
L74.7070 64.6929
" />
<path d="M74.7070 64.6929
L74.6355 64.8358
" />
<path d="M73.9927 64.0500
L73.9927 63.1215
" />
<path d="M73.9927 63.1215
L74.5641 63.6215
" />
<path d="M74.5641 63.6215
L74.5641 63.4072
" />
<path d="M74.5641 63.4072
L74.6355 63.2643
" />
<path d="M74.6355 63.2643
L74.7070 63.1929
" />
<path d="M74.7070 63.1929
L74.8498 63.1215
" />
<path d="M74.8498 63.1215
L75.2070 63.1215
" />
<path d="M75.2070 63.1215
L75.3498 63.1929
" />
<path d="M75.3498 63.1929
L75.4213 63.2643
" />
<path d="M75.4213 63.2643
L75.4927 63.4072
" />
<path d="M75.4927 63.4072
L75.4927 63.8358
" />
<path d="M75.4927 63.8358
L75.4213 63.9786
" />
<path d="M75.4213 63.9786
L75.3498 64.0500
" />
<path d="M73.9927 62.1929
L73.9927 62.0500
" />
<path d="M73.9927 62.0500
L74.0641 61.9072
" />
<path d="M74.0641 61.9072
L74.1355 61.8358
" />
<path d="M74.1355 61.8358
L74.2784 61.7643
" />
<path d="M74.2784 61.7643
L74.5641 61.6929
" />
<path d="M74.5641 61.6929
L74.9213 61.6929
" />
<path d="M74.9213 61.6929
L75.2070 61.7643
" />
<path d="M75.2070 61.7643
L75.3498 61.8358
" />
<path d="M75.3498 61.8358
L75.4213 61.9072
" />
<path d="M75.4213 61.9072
L75.4927 62.0500
" />
<path d="M75.4927 62.0500
L75.4927 62.1929
" />
<path d="M75.4927 62.1929
L75.4213 62.3358
" />
<path d="M75.4213 62.3358
L75.3498 62.4072
" />
<path d="M75.3498 62.4072
L75.2070 62.4786
" />
<path d="M75.2070 62.4786
L74.9213 62.5500
" />
<path d="M74.9213 62.5500
L74.5641 62.5500
" />
<path d="M74.5641 62.5500
L74.2784 62.4786
" />
<path d="M74.2784 62.4786
L74.1355 62.4072
" />
<path d="M74.1355 62.4072
L74.0641 62.3358
" />
<path d="M74.0641 62.3358
L73.9927 62.1929
" />
<path d="M73.9927 60.7643
L73.9927 60.6215
" />
<path d="M73.9927 60.6215
L74.0641 60.4786
" />
<path d="M74.0641 60.4786
L74.1355 60.4072
" />
<path d="M74.1355 60.4072
L74.2784 60.3358
" />
<path d="M74.2784 60.3358
L74.5641 60.2643
" />
<path d="M74.5641 60.2643
L74.9213 60.2643
" />
<path d="M74.9213 60.2643
L75.2070 60.3358
" />
<path d="M75.2070 60.3358
L75.3498 60.4072
" />
<path d="M75.3498 60.4072
L75.4213 60.4786
" />
<path d="M75.4213 60.4786
L75.4927 60.6215
" />
<path d="M75.4927 60.6215
L75.4927 60.7643
" />
<path d="M75.4927 60.7643
L75.4213 60.9072
" />
<path d="M75.4213 60.9072
L75.3498 60.9786
" />
<path d="M75.3498 60.9786
L75.2070 61.0500
" />
<path d="M75.2070 61.0500
L74.9213 61.1215
" />
<path d="M74.9213 61.1215
L74.5641 61.1215
" />
<path d="M74.5641 61.1215
L74.2784 61.0500
" />
<path d="M74.2784 61.0500
L74.1355 60.9786
" />
<path d="M74.1355 60.9786
L74.0641 60.9072
" />
<path d="M74.0641 60.9072
L73.9927 60.7643
" />
<path d="M75.4927 58.4786
L74.4927 58.4786
" />
<path d="M74.6355 58.4786
L74.5641 58.4072
" />
<path d="M74.5641 58.4072
L74.4927 58.2643
" />
<path d="M74.4927 58.2643
L74.4927 58.0500
" />
<path d="M74.4927 58.0500
L74.5641 57.9072
" />
<path d="M74.5641 57.9072
L74.7070 57.8358
" />
<path d="M74.7070 57.8358
L75.4927 57.8358
" />
<path d="M74.7070 57.8358
L74.5641 57.7643
" />
<path d="M74.5641 57.7643
L74.4927 57.6215
" />
<path d="M74.4927 57.6215
L74.4927 57.4072
" />
<path d="M74.4927 57.4072
L74.5641 57.2643
" />
<path d="M74.5641 57.2643
L74.7070 57.1929
" />
<path d="M74.7070 57.1929
L75.4927 57.1929
" />
<path d="M75.4927 56.4786
L74.4927 56.4786
" />
<path d="M74.6355 56.4786
L74.5641 56.4072
" />
<path d="M74.5641 56.4072
L74.4927 56.2643
" />
<path d="M74.4927 56.2643
L74.4927 56.0500
" />
<path d="M74.4927 56.0500
L74.5641 55.9072
" />
<path d="M74.5641 55.9072
L74.7070 55.8358
" />
<path d="M74.7070 55.8358
L75.4927 55.8358
" />
<path d="M74.7070 55.8358
L74.5641 55.7643
" />
<path d="M74.5641 55.7643
L74.4927 55.6215
" />
<path d="M74.4927 55.6215
L74.4927 55.4072
" />
<path d="M74.4927 55.4072
L74.5641 55.2643
" />
<path d="M74.5641 55.2643
L74.7070 55.1929
" />
<path d="M74.7070 55.1929
L75.4927 55.1929
" />
</g><path d="M15.8993 54.6350
L76.8957 54.6350
" />
<path d="M15.8993 69.4650
L76.8957 69.4650
" />
<path d="M76.3093 54.6350
L76.3093 69.4650
" />
<path d="M76.3093 54.6350
L76.3093 69.4650
" />
<path d="M76.3093 54.6350
L76.8957 55.7616
" />
<path d="M76.3093 54.6350
L75.7229 55.7616
" />
<path d="M76.3093 69.4650
L75.7229 68.3385
" />
<path d="M76.3093 69.4650
L76.8957 68.3385
" />
<g transform="rotate(-90.000000 6.5293 33.3000)">
<text x="6.5293" y="34.0500"
textLength="12.7300" font-size="2.0000" lengthAdjust="spacingAndGlyphs"
text-anchor="middle" opacity="0">6.6300 mm</text>
</g>
<g class="stroked-text"><desc>6.6300 mm</desc>
<path d="M5.7227 38.8000
L5.7227 39.0858
" />
<path d="M5.7227 39.0858
L5.7941 39.2286
" />
<path d="M5.7941 39.2286
L5.8655 39.3000
" />
<path d="M5.8655 39.3000
L6.0798 39.4429
" />
<path d="M6.0798 39.4429
L6.3655 39.5143
" />
<path d="M6.3655 39.5143
L6.9370 39.5143
" />
<path d="M6.9370 39.5143
L7.0798 39.4429
" />
<path d="M7.0798 39.4429
L7.1513 39.3715
" />
<path d="M7.1513 39.3715
L7.2227 39.2286
" />
<path d="M7.2227 39.2286
L7.2227 38.9429
" />
<path d="M7.2227 38.9429
L7.1513 38.8000
" />
<path d="M7.1513 38.8000
L7.0798 38.7286
" />
<path d="M7.0798 38.7286
L6.9370 38.6572
" />
<path d="M6.9370 38.6572
L6.5798 38.6572
" />
<path d="M6.5798 38.6572
L6.4370 38.7286
" />
<path d="M6.4370 38.7286
L6.3655 38.8000
" />
<path d="M6.3655 38.8000
L6.2941 38.9429
" />
<path d="M6.2941 38.9429
L6.2941 39.2286
" />
<path d="M6.2941 39.2286
L6.3655 39.3715
" />
<path d="M6.3655 39.3715
L6.4370 39.4429
" />
<path d="M6.4370 39.4429
L6.5798 39.5143
" />
<path d="M7.0798 38.0143
L7.1513 37.9429
" />
<path d="M7.1513 37.9429
L7.2227 38.0143
" />
<path d="M7.2227 38.0143
L7.1513 38.0858
" />
<path d="M7.1513 38.0858
L7.0798 38.0143
" />
<path d="M7.0798 38.0143
L7.2227 38.0143
" />
<path d="M5.7227 36.6572
L5.7227 36.9429
" />
<path d="M5.7227 36.9429
L5.7941 37.0858
" />
<path d="M5.7941 37.0858
L5.8655 37.1572
" />
<path d="M5.8655 37.1572
L6.0798 37.3000
" />
<path d="M6.0798 37.3000
L6.3655 37.3715
" />
<path d="M6.3655 37.3715
L6.9370 37.3715
" />
<path d="M6.9370 37.3715
L7.0798 37.3000
" />
<path d="M7.0798 37.3000
L7.1513 37.2286
" />
<path d="M7.1513 37.2286
L7.2227 37.0858
" />
<path d="M7.2227 37.0858
L7.2227 36.8000
" />
<path d="M7.2227 36.8000
L7.1513 36.6572
" />
<path d="M7.1513 36.6572
L7.0798 36.5858
" />
<path d="M7.0798 36.5858
L6.9370 36.5143
" />
<path d="M6.9370 36.5143
L6.5798 36.5143
" />
<path d="M6.5798 36.5143
L6.4370 36.5858
" />
<path d="M6.4370 36.5858
L6.3655 36.6572
" />
<path d="M6.3655 36.6572
L6.2941 36.8000
" />
<path d="M6.2941 36.8000
L6.2941 37.0858
" />
<path d="M6.2941 37.0858
L6.3655 37.2286
" />
<path d="M6.3655 37.2286
L6.4370 37.3000
" />
<path d="M6.4370 37.3000
L6.5798 37.3715
" />
<path d="M5.7227 36.0143
L5.7227 35.0858
" />
<path d="M5.7227 35.0858
L6.2941 35.5858
" />
<path d="M6.2941 35.5858
L6.2941 35.3715
" />
<path d="M6.2941 35.3715
L6.3655 35.2286
" />
<path d="M6.3655 35.2286
L6.4370 35.1572
" />
<path d="M6.4370 35.1572
L6.5798 35.0858
" />
<path d="M6.5798 35.0858
L6.9370 35.0858
" />
<path d="M6.9370 35.0858
L7.0798 35.1572
" />
<path d="M7.0798 35.1572
L7.1513 35.2286
" />
<path d="M7.1513 35.2286
L7.2227 35.3715
" />
<path d="M7.2227 35.3715
L7.2227 35.8000
" />
<path d="M7.2227 35.8000
L7.1513 35.9429
" />
<path d="M7.1513 35.9429
L7.0798 36.0143
" />
<path d="M5.7227 34.1572
L5.7227 34.0143
" />
<path d="M5.7227 34.0143
L5.7941 33.8715
" />
<path d="M5.7941 33.8715
L5.8655 33.8000
" />
<path d="M5.8655 33.8000
L6.0084 33.7286
" />
<path d="M6.0084 33.7286
L6.2941 33.6572
" />
<path d="M6.2941 33.6572
L6.6513 33.6572
" />
<path d="M6.6513 33.6572
L6.9370 33.7286
" />
<path d="M6.9370 33.7286
L7.0798 33.8000
" />
<path d="M7.0798 33.8000
L7.1513 33.8715
" />
<path d="M7.1513 33.8715
L7.2227 34.0143
" />
<path d="M7.2227 34.0143
L7.2227 34.1572
" />
<path d="M7.2227 34.1572
L7.1513 34.3000
" />
<path d="M7.1513 34.3000
L7.0798 34.3715
" />
<path d="M7.0798 34.3715
L6.9370 34.4429
" />
<path d="M6.9370 34.4429
L6.6513 34.5143
" />
<path d="M6.6513 34.5143
L6.2941 34.5143
" />
<path d="M6.2941 34.5143
L6.0084 34.4429
" />
<path d="M6.0084 34.4429
L5.8655 34.3715
" />
<path d="M5.8655 34.3715
L5.7941 34.3000
" />
<path d="M5.7941 34.3000
L5.7227 34.1572
" />
<path d="M5.7227 32.7286
L5.7227 32.5858
" />
<path d="M5.7227 32.5858
L5.7941 32.4429
" />
<path d="M5.7941 32.4429
L5.8655 32.3715
" />
<path d="M5.8655 32.3715
L6.0084 32.3000
" />
<path d="M6.0084 32.3000
L6.2941 32.2286
" />
<path d="M6.2941 32.2286
L6.6513 32.2286
" />
<path d="M6.6513 32.2286
L6.9370 32.3000
" />
<path d="M6.9370 32.3000
L7.0798 32.3715
" />
<path d="M7.0798 32.3715
L7.1513 32.4429
" />
<path d="M7.1513 32.4429
L7.2227 32.5858
" />
<path d="M7.2227 32.5858
L7.2227 32.7286
" />
<path d="M7.2227 32.7286
L7.1513 32.8715
" />
<path d="M7.1513 32.8715
L7.0798 32.9429
" />
<path d="M7.0798 32.9429
L6.9370 33.0143
" />
<path d="M6.9370 33.0143
L6.6513 33.0858
" />
<path d="M6.6513 33.0858
L6.2941 33.0858
" />
<path d="M6.2941 33.0858
L6.0084 33.0143
" />
<path d="M6.0084 33.0143
L5.8655 32.9429
" />
<path d="M5.8655 32.9429
L5.7941 32.8715
" />
<path d="M5.7941 32.8715
L5.7227 32.7286
" />
<path d="M7.2227 30.4429
L6.2227 30.4429
" />
<path d="M6.3655 30.4429
L6.2941 30.3715
" />
<path d="M6.2941 30.3715
L6.2227 30.2286
" />
<path d="M6.2227 30.2286
L6.2227 30.0143
" />
<path d="M6.2227 30.0143
L6.2941 29.8715
" />
<path d="M6.2941 29.8715
L6.4370 29.8001
" />
<path d="M6.4370 29.8001
L7.2227 29.8001
" />
<path d="M6.4370 29.8001
L6.2941 29.7286
" />
<path d="M6.2941 29.7286
L6.2227 29.5858
" />
<path d="M6.2227 29.5858
L6.2227 29.3715
" />
<path d="M6.2227 29.3715
L6.2941 29.2286
" />
<path d="M6.2941 29.2286
L6.4370 29.1572
" />
<path d="M6.4370 29.1572
L7.2227 29.1572
" />
<path d="M7.2227 28.4429
L6.2227 28.4429
" />
<path d="M6.3655 28.4429
L6.2941 28.3715
" />
<path d="M6.2941 28.3715
L6.2227 28.2286
" />
<path d="M6.2227 28.2286
L6.2227 28.0143
" />
<path d="M6.2227 28.0143
L6.2941 27.8715
" />
<path d="M6.2941 27.8715
L6.4370 27.8001
" />
<path d="M6.4370 27.8001
L7.2227 27.8001
" />
<path d="M6.4370 27.8001
L6.2941 27.7286
" />
<path d="M6.2941 27.7286
L6.2227 27.5858
" />
<path d="M6.2227 27.5858
L6.2227 27.3715
" />
<path d="M6.2227 27.3715
L6.2941 27.2286
" />
<path d="M6.2941 27.2286
L6.4370 27.1572
" />
<path d="M6.4370 27.1572
L7.2227 27.1572
" />
</g><path d="M72.5093 36.6150
L7.4529 36.6150
" />
<path d="M72.5093 29.9850
L7.4529 29.9850
" />
<path d="M8.0393 36.6150
L8.0393 29.9850
" />
<path d="M8.0393 36.6150
L8.0393 29.9850
" />
<path d="M8.0393 36.6150
L7.4529 35.4885
" />
<path d="M8.0393 36.6150
L8.6257 35.4885
" />
<path d="M8.0393 29.9850
L8.6257 31.1116
" />
<path d="M8.0393 29.9850
L7.4529 31.1116
" />
<g transform="rotate(-90.000000 11.0993 40.6350)">
<text x="11.0993" y="41.3850"
textLength="14.1586" font-size="2.0000" lengthAdjust="spacingAndGlyphs"
text-anchor="middle" opacity="0">57.6600 mm</text>
</g>
<g class="stroked-text"><desc>57.6600 mm</desc>
<path d="M10.2927 46.7779
L10.2927 47.4922
" />
<path d="M10.2927 47.4922
L11.0070 47.5636
" />
<path d="M11.0070 47.5636
L10.9355 47.4922
" />
<path d="M10.9355 47.4922
L10.8641 47.3493
" />
<path d="M10.8641 47.3493
L10.8641 46.9922
" />
<path d="M10.8641 46.9922
L10.9355 46.8493
" />
<path d="M10.9355 46.8493
L11.0070 46.7779
" />
<path d="M11.0070 46.7779
L11.1498 46.7065
" />
<path d="M11.1498 46.7065
L11.5070 46.7065
" />
<path d="M11.5070 46.7065
L11.6498 46.7779
" />
<path d="M11.6498 46.7779
L11.7213 46.8493
" />
<path d="M11.7213 46.8493
L11.7927 46.9922
" />
<path d="M11.7927 46.9922
L11.7927 47.3493
" />
<path d="M11.7927 47.3493
L11.7213 47.4922
" />
<path d="M11.7213 47.4922
L11.6498 47.5636
" />
<path d="M10.2927 46.2065
L10.2927 45.2065
" />
<path d="M10.2927 45.2065
L11.7927 45.8493
" />
<path d="M11.6498 44.6350
L11.7213 44.5636
" />
<path d="M11.7213 44.5636
L11.7927 44.6350
" />
<path d="M11.7927 44.6350
L11.7213 44.7065
" />
<path d="M11.7213 44.7065
L11.6498 44.6350
" />
<path d="M11.6498 44.6350
L11.7927 44.6350
" />
<path d="M10.2927 43.2779
L10.2927 43.5636
" />
<path d="M10.2927 43.5636
L10.3641 43.7065
" />
<path d="M10.3641 43.7065
L10.4355 43.7779
" />
<path d="M10.4355 43.7779
L10.6498 43.9208
" />
<path d="M10.6498 43.9208
L10.9355 43.9922
" />
<path d="M10.9355 43.9922
L11.5070 43.9922
" />
<path d="M11.5070 43.9922
L11.6498 43.9208
" />
<path d="M11.6498 43.9208
L11.7213 43.8493
" />
<path d="M11.7213 43.8493
L11.7927 43.7065
" />
<path d="M11.7927 43.7065
L11.7927 43.4208
" />
<path d="M11.7927 43.4208
L11.7213 43.2779
" />
<path d="M11.7213 43.2779
L11.6498 43.2065
" />
<path d="M11.6498 43.2065
L11.5070 43.1350
" />
<path d="M11.5070 43.1350
L11.1498 43.1350
" />
<path d="M11.1498 43.1350
L11.0070 43.2065
" />
<path d="M11.0070 43.2065
L10.9355 43.2779
" />
<path d="M10.9355 43.2779
L10.8641 43.4208
" />
<path d="M10.8641 43.4208
L10.8641 43.7065
" />
<path d="M10.8641 43.7065
L10.9355 43.8493
" />
<path d="M10.9355 43.8493
L11.0070 43.9208
" />
<path d="M11.0070 43.9208
L11.1498 43.9922
" />
<path d="M10.2927 41.8493
L10.2927 42.1350
" />
<path d="M10.2927 42.1350
L10.3641 42.2779
" />
<path d="M10.3641 42.2779
L10.4355 42.3493
" />
<path d="M10.4355 42.3493
L10.6498 42.4922
" />
<path d="M10.6498 42.4922
L10.9355 42.5636
" />
<path d="M10.9355 42.5636
L11.5070 42.5636
" />
<path d="M11.5070 42.5636
L11.6498 42.4922
" />
<path d="M11.6498 42.4922
L11.7213 42.4208
" />
<path d="M11.7213 42.4208
L11.7927 42.2779
" />
<path d="M11.7927 42.2779
L11.7927 41.9922
" />
<path d="M11.7927 41.9922
L11.7213 41.8493
" />
<path d="M11.7213 41.8493
L11.6498 41.7779
" />
<path d="M11.6498 41.7779
L11.5070 41.7065
" />
<path d="M11.5070 41.7065
L11.1498 41.7065
" />
<path d="M11.1498 41.7065
L11.0070 41.7779
" />
<path d="M11.0070 41.7779
L10.9355 41.8493
" />
<path d="M10.9355 41.8493
L10.8641 41.9922
" />
<path d="M10.8641 41.9922
L10.8641 42.2779
" />
<path d="M10.8641 42.2779
L10.9355 42.4208
" />
<path d="M10.9355 42.4208
L11.0070 42.4922
" />
<path d="M11.0070 42.4922
L11.1498 42.5636
" />
<path d="M10.2927 40.7779
L10.2927 40.6350
" />
<path d="M10.2927 40.6350
L10.3641 40.4922
" />
<path d="M10.3641 40.4922
L10.4355 40.4208
" />
<path d="M10.4355 40.4208
L10.5784 40.3493
" />
<path d="M10.5784 40.3493
L10.8641 40.2779
" />
<path d="M10.8641 40.2779
L11.2213 40.2779
" />
<path d="M11.2213 40.2779
L11.5070 40.3493
" />
<path d="M11.5070 40.3493
L11.6498 40.4208
" />
<path d="M11.6498 40.4208
L11.7213 40.4922
" />
<path d="M11.7213 40.4922
L11.7927 40.6350
" />
<path d="M11.7927 40.6350
L11.7927 40.7779
" />
<path d="M11.7927 40.7779
L11.7213 40.9208
" />
<path d="M11.7213 40.9208
L11.6498 40.9922
" />
<path d="M11.6498 40.9922
L11.5070 41.0636
" />
<path d="M11.5070 41.0636
L11.2213 41.1350
" />
<path d="M11.2213 41.1350
L10.8641 41.1350
" />
<path d="M10.8641 41.1350
L10.5784 41.0636
" />
<path d="M10.5784 41.0636
L10.4355 40.9922
" />
<path d="M10.4355 40.9922
L10.3641 40.9208
" />
<path d="M10.3641 40.9208
L10.2927 40.7779
" />
<path d="M10.2927 39.3493
L10.2927 39.2065
" />
<path d="M10.2927 39.2065
L10.3641 39.0636
" />
<path d="M10.3641 39.0636
L10.4355 38.9922
" />
<path d="M10.4355 38.9922
L10.5784 38.9208
" />
<path d="M10.5784 38.9208
L10.8641 38.8493
" />
<path d="M10.8641 38.8493
L11.2213 38.8493
" />
<path d="M11.2213 38.8493
L11.5070 38.9208
" />
<path d="M11.5070 38.9208
L11.6498 38.9922
" />
<path d="M11.6498 38.9922
L11.7213 39.0636
" />
<path d="M11.7213 39.0636
L11.7927 39.2065
" />
<path d="M11.7927 39.2065
L11.7927 39.3493
" />
<path d="M11.7927 39.3493
L11.7213 39.4922
" />
<path d="M11.7213 39.4922
L11.6498 39.5636
" />
<path d="M11.6498 39.5636
L11.5070 39.6350
" />
<path d="M11.5070 39.6350
L11.2213 39.7065
" />
<path d="M11.2213 39.7065
L10.8641 39.7065
" />
<path d="M10.8641 39.7065
L10.5784 39.6350
" />
<path d="M10.5784 39.6350
L10.4355 39.5636
" />
<path d="M10.4355 39.5636
L10.3641 39.4922
" />
<path d="M10.3641 39.4922
L10.2927 39.3493
" />
<path d="M11.7927 37.0636
L10.7927 37.0636
" />
<path d="M10.9355 37.0636
L10.8641 36.9922
" />
<path d="M10.8641 36.9922
L10.7927 36.8493
" />
<path d="M10.7927 36.8493
L10.7927 36.6350
" />
<path d="M10.7927 36.6350
L10.8641 36.4922
" />
<path d="M10.8641 36.4922
L11.0070 36.4208
" />
<path d="M11.0070 36.4208
L11.7927 36.4208
" />
<path d="M11.0070 36.4208
L10.8641 36.3493
" />
<path d="M10.8641 36.3493
L10.7927 36.2065
" />
<path d="M10.7927 36.2065
L10.7927 35.9922
" />
<path d="M10.7927 35.9922
L10.8641 35.8493
" />
<path d="M10.8641 35.8493
L11.0070 35.7779
" />
<path d="M11.0070 35.7779
L11.7927 35.7779
" />
<path d="M11.7927 35.0636
L10.7927 35.0636
" />
<path d="M10.9355 35.0636
L10.8641 34.9922
" />
<path d="M10.8641 34.9922
L10.7927 34.8493
" />
<path d="M10.7927 34.8493
L10.7927 34.6350
" />
<path d="M10.7927 34.6350
L10.8641 34.4922
" />
<path d="M10.8641 34.4922
L11.0070 34.4208
" />
<path d="M11.0070 34.4208
L11.7927 34.4208
" />
<path d="M11.0070 34.4208
L10.8641 34.3493
" />
<path d="M10.8641 34.3493
L10.7927 34.2065
" />
<path d="M10.7927 34.2065
L10.7927 33.9922
" />
<path d="M10.7927 33.9922
L10.8641 33.8493
" />
<path d="M10.8641 33.8493
L11.0070 33.7779
" />
<path d="M11.0070 33.7779
L11.7927 33.7779
" />
</g><path d="M15.8993 11.8050
L12.0229 11.8050
" />
<path d="M15.8993 69.4650
L12.0229 69.4650
" />
<path d="M12.6093 11.8050
L12.6093 69.4650
" />
<path d="M12.6093 11.8050
L12.6093 69.4650
" />
<path d="M12.6093 11.8050
L13.1957 12.9316
" />
<path d="M12.6093 11.8050
L12.0229 12.9316
" />
<path d="M12.6093 69.4650
L12.0229 68.3385
" />
<path d="M12.6093 69.4650
L13.1957 68.3385
" />
<g >
</g>
<g >
</g>
<g >
</g>
<g >
</g>
</g>
<g style="fill:#FFFFFF; fill-opacity:0.0; 
stroke:#FFFFFF; stroke-width:0.0100; stroke-opacity:1; 
stroke-linecap:round; stroke-linejoin:round;">
</g>
<g style="fill:#2F2D31; fill-opacity:0.0; 
stroke:#2F2D31; stroke-width:0.0100; stroke-opacity:1; 
stroke-linecap:round; stroke-linejoin:round;">
<path d="M72.5090 69.4645
L15.8990 69.4645
" />
<path d="M65.8893 29.9850
L65.8893 36.6150
" />
<path d="M22.5190 29.9845
L15.8990 29.9845
" />
<path d="M22.5190 36.6145
L22.5190 29.9845
" />
<path d="M15.8990 36.6145
L22.5190 36.6145
" />
<path d="M72.5090 11.8045
L72.5090 29.9845
" />
<path d="M15.8990 29.9845
L15.8990 11.8045
" />
<path d="M65.8893 36.6150
L72.5090 36.6145
" />
<path d="M15.8990 69.4645
L15.8990 36.6145
" />
<path d="M72.5090 29.9845
L65.8893 29.9850
" />
<path d="M72.5090 36.6145
L72.5090 69.4645
" />
<path d="M15.8990 11.8045
L72.5090 11.8045
" />
<g >
</g>
<g >
</g>
<g >
</g>
<g >
</g>
</g> 
</svg>
