<?xml version="1.0" standalone="no"?>
 <!DOCTYPE svg PUBLIC "-//W3C//DTD SVG 1.1//EN" 
 "http://www.w3.org/Graphics/SVG/1.1/DTD/svg11.dtd"> 
<svg
  xmlns:svg="http://www.w3.org/2000/svg"
  xmlns="http://www.w3.org/2000/svg"
  xmlns:xlink="http://www.w3.org/1999/xlink"
  version="1.1"
  width="35.8648mm" height="14.4780mm" viewBox="0.0000 0.0000 35.8648 14.4780">
<title>SVG Image created as _autosave-working-brd.svg date 2023/09/29 14:25:11 </title>
  <desc>Image generated by PCBNEW </desc>
<g style="fill:#000000; fill-opacity:1.0000;stroke:#000000; stroke-opacity:1.0000;
stroke-linecap:round; stroke-linejoin:round;"
 transform="translate(0 0) scale(1 1)">
</g>
<g style="fill:#000000; fill-opacity:0.0; 
stroke:#000000; stroke-width:0.0000; stroke-opacity:1; 
stroke-linecap:round; stroke-linejoin:round;">
</g>
<g style="fill:#000000; fill-opacity:1.0000; 
stroke:#000000; stroke-width:0.0212; stroke-opacity:1; 
stroke-linecap:round; stroke-linejoin:round;">
<rect x="-5.000000" y="-5.000000" width="45.869049" height="24.500000" rx="0.000000" />
</g>
<g style="fill:#FFFFFF; fill-opacity:1.0000; 
stroke:#FFFFFF; stroke-width:0.0212; stroke-opacity:1; 
stroke-linecap:round; stroke-linejoin:round;">
<g >
</g>
<g style="fill:#B2803A; fill-opacity:1.0000; 
stroke:#B2803A; stroke-width:0.0212; stroke-opacity:1; 
stroke-linecap:round; stroke-linejoin:round;">
</g>
<g style="fill:#B2803A; fill-opacity:1.0000; 
stroke:#B2803A; stroke-width:0.0000; stroke-opacity:1; 
stroke-linecap:round; stroke-linejoin:round;">
<circle cx="4.5345" cy="7.2500" r="0.4000" /> 
</g>
<g style="fill:#B2803A; fill-opacity:1.0000; 
stroke:#B2803A; stroke-width:0.0212; stroke-opacity:1; 
stroke-linecap:round; stroke-linejoin:round;">
</g>
<g style="fill:#B2803A; fill-opacity:1.0000; 
stroke:#B2803A; stroke-width:0.0000; stroke-opacity:1; 
stroke-linecap:round; stroke-linejoin:round;">
<circle cx="5.2375" cy="5.5529" r="0.4000" /> 
</g>
<g style="fill:#B2803A; fill-opacity:1.0000; 
stroke:#B2803A; stroke-width:0.0212; stroke-opacity:1; 
stroke-linecap:round; stroke-linejoin:round;">
</g>
<g style="fill:#B2803A; fill-opacity:1.0000; 
stroke:#B2803A; stroke-width:0.0000; stroke-opacity:1; 
stroke-linecap:round; stroke-linejoin:round;">
<circle cx="5.2375" cy="8.9471" r="0.4000" /> 
</g>
<g style="fill:#B2803A; fill-opacity:1.0000; 
stroke:#B2803A; stroke-width:0.0212; stroke-opacity:1; 
stroke-linecap:round; stroke-linejoin:round;">
</g>
<g style="fill:#B2803A; fill-opacity:1.0000; 
stroke:#B2803A; stroke-width:0.0000; stroke-opacity:1; 
stroke-linecap:round; stroke-linejoin:round;">
<circle cx="6.9345" cy="4.8500" r="0.4000" /> 
</g>
<g style="fill:#B2803A; fill-opacity:1.0000; 
stroke:#B2803A; stroke-width:0.0212; stroke-opacity:1; 
stroke-linecap:round; stroke-linejoin:round;">
</g>
<g style="fill:#B2803A; fill-opacity:1.0000; 
stroke:#B2803A; stroke-width:0.0000; stroke-opacity:1; 
stroke-linecap:round; stroke-linejoin:round;">
<circle cx="6.9345" cy="7.2500" r="3.2000" /> 
</g>
<g style="fill:#B2803A; fill-opacity:1.0000; 
stroke:#B2803A; stroke-width:0.0212; stroke-opacity:1; 
stroke-linecap:round; stroke-linejoin:round;">
</g>
<g style="fill:#B2803A; fill-opacity:1.0000; 
stroke:#B2803A; stroke-width:0.0000; stroke-opacity:1; 
stroke-linecap:round; stroke-linejoin:round;">
<circle cx="6.9345" cy="9.6500" r="0.4000" /> 
</g>
<g style="fill:#B2803A; fill-opacity:1.0000; 
stroke:#B2803A; stroke-width:0.0212; stroke-opacity:1; 
stroke-linecap:round; stroke-linejoin:round;">
</g>
<g style="fill:#B2803A; fill-opacity:1.0000; 
stroke:#B2803A; stroke-width:0.0000; stroke-opacity:1; 
stroke-linecap:round; stroke-linejoin:round;">
<circle cx="8.6316" cy="5.5529" r="0.4000" /> 
</g>
<g style="fill:#B2803A; fill-opacity:1.0000; 
stroke:#B2803A; stroke-width:0.0212; stroke-opacity:1; 
stroke-linecap:round; stroke-linejoin:round;">
</g>
<g style="fill:#B2803A; fill-opacity:1.0000; 
stroke:#B2803A; stroke-width:0.0000; stroke-opacity:1; 
stroke-linecap:round; stroke-linejoin:round;">
<circle cx="8.6316" cy="8.9471" r="0.4000" /> 
</g>
<g style="fill:#B2803A; fill-opacity:1.0000; 
stroke:#B2803A; stroke-width:0.0212; stroke-opacity:1; 
stroke-linecap:round; stroke-linejoin:round;">
</g>
<g style="fill:#B2803A; fill-opacity:1.0000; 
stroke:#B2803A; stroke-width:0.0000; stroke-opacity:1; 
stroke-linecap:round; stroke-linejoin:round;">
<circle cx="9.3345" cy="7.2500" r="0.4000" /> 
</g>
<g style="fill:#B2803A; fill-opacity:1.0000; 
stroke:#B2803A; stroke-width:0.0212; stroke-opacity:1; 
stroke-linecap:round; stroke-linejoin:round;">
</g>
<g >
</g>
<g style="fill:#B2803A; fill-opacity:1.0000; 
stroke:#B2803A; stroke-width:0.0212; stroke-opacity:1; 
stroke-linecap:round; stroke-linejoin:round;">
</g>
<g style="fill:#B2803A; fill-opacity:1.0000; 
stroke:#B2803A; stroke-width:0.0000; stroke-opacity:1; 
stroke-linecap:round; stroke-linejoin:round;">
<circle cx="26.5345" cy="7.2500" r="0.4000" /> 
</g>
<g style="fill:#B2803A; fill-opacity:1.0000; 
stroke:#B2803A; stroke-width:0.0212; stroke-opacity:1; 
stroke-linecap:round; stroke-linejoin:round;">
</g>
<g style="fill:#B2803A; fill-opacity:1.0000; 
stroke:#B2803A; stroke-width:0.0000; stroke-opacity:1; 
stroke-linecap:round; stroke-linejoin:round;">
<circle cx="27.2375" cy="5.5529" r="0.4000" /> 
</g>
<g style="fill:#B2803A; fill-opacity:1.0000; 
stroke:#B2803A; stroke-width:0.0212; stroke-opacity:1; 
stroke-linecap:round; stroke-linejoin:round;">
</g>
<g style="fill:#B2803A; fill-opacity:1.0000; 
stroke:#B2803A; stroke-width:0.0000; stroke-opacity:1; 
stroke-linecap:round; stroke-linejoin:round;">
<circle cx="27.2375" cy="8.9471" r="0.4000" /> 
</g>
<g style="fill:#B2803A; fill-opacity:1.0000; 
stroke:#B2803A; stroke-width:0.0212; stroke-opacity:1; 
stroke-linecap:round; stroke-linejoin:round;">
</g>
<g style="fill:#B2803A; fill-opacity:1.0000; 
stroke:#B2803A; stroke-width:0.0000; stroke-opacity:1; 
stroke-linecap:round; stroke-linejoin:round;">
<circle cx="28.9345" cy="4.8500" r="0.4000" /> 
</g>
<g style="fill:#B2803A; fill-opacity:1.0000; 
stroke:#B2803A; stroke-width:0.0212; stroke-opacity:1; 
stroke-linecap:round; stroke-linejoin:round;">
</g>
<g style="fill:#B2803A; fill-opacity:1.0000; 
stroke:#B2803A; stroke-width:0.0000; stroke-opacity:1; 
stroke-linecap:round; stroke-linejoin:round;">
<circle cx="28.9345" cy="7.2500" r="3.2000" /> 
</g>
<g style="fill:#B2803A; fill-opacity:1.0000; 
stroke:#B2803A; stroke-width:0.0212; stroke-opacity:1; 
stroke-linecap:round; stroke-linejoin:round;">
</g>
<g style="fill:#B2803A; fill-opacity:1.0000; 
stroke:#B2803A; stroke-width:0.0000; stroke-opacity:1; 
stroke-linecap:round; stroke-linejoin:round;">
<circle cx="28.9345" cy="9.6500" r="0.4000" /> 
</g>
<g style="fill:#B2803A; fill-opacity:1.0000; 
stroke:#B2803A; stroke-width:0.0212; stroke-opacity:1; 
stroke-linecap:round; stroke-linejoin:round;">
</g>
<g style="fill:#B2803A; fill-opacity:1.0000; 
stroke:#B2803A; stroke-width:0.0000; stroke-opacity:1; 
stroke-linecap:round; stroke-linejoin:round;">
<circle cx="30.6316" cy="5.5529" r="0.4000" /> 
</g>
<g style="fill:#B2803A; fill-opacity:1.0000; 
stroke:#B2803A; stroke-width:0.0212; stroke-opacity:1; 
stroke-linecap:round; stroke-linejoin:round;">
</g>
<g style="fill:#B2803A; fill-opacity:1.0000; 
stroke:#B2803A; stroke-width:0.0000; stroke-opacity:1; 
stroke-linecap:round; stroke-linejoin:round;">
<circle cx="30.6316" cy="8.9471" r="0.4000" /> 
</g>
<g style="fill:#B2803A; fill-opacity:1.0000; 
stroke:#B2803A; stroke-width:0.0212; stroke-opacity:1; 
stroke-linecap:round; stroke-linejoin:round;">
</g>
<g style="fill:#B2803A; fill-opacity:1.0000; 
stroke:#B2803A; stroke-width:0.0000; stroke-opacity:1; 
stroke-linecap:round; stroke-linejoin:round;">
<circle cx="31.3345" cy="7.2500" r="0.4000" /> 
</g>
<g style="fill:#B2803A; fill-opacity:1.0000; 
stroke:#B2803A; stroke-width:0.0212; stroke-opacity:1; 
stroke-linecap:round; stroke-linejoin:round;">
</g>
<g >
</g>
<g style="fill:#B2803A; fill-opacity:1.0000; 
stroke:#B2803A; stroke-width:0.0212; stroke-opacity:1; 
stroke-linecap:round; stroke-linejoin:round;">
</g>
<g style="fill:#B2803A; fill-opacity:1.0000; 
stroke:#B2803A; stroke-width:0.0000; stroke-opacity:1; 
stroke-linecap:round; stroke-linejoin:round;">
<circle cx="15.6845" cy="10.5000" r="1.0000" /> 
</g>
<g style="fill:#B2803A; fill-opacity:1.0000; 
stroke:#B2803A; stroke-width:0.0212; stroke-opacity:1; 
stroke-linecap:round; stroke-linejoin:round;">
</g>
<g style="fill:#B2803A; fill-opacity:1.0000; 
stroke:#B2803A; stroke-width:0.0000; stroke-opacity:1; 
stroke-linecap:round; stroke-linejoin:round;">
<circle cx="15.6845" cy="4.0000" r="1.0000" /> 
</g>
<g style="fill:#B2803A; fill-opacity:1.0000; 
stroke:#B2803A; stroke-width:0.0212; stroke-opacity:1; 
stroke-linecap:round; stroke-linejoin:round;">
</g>
<g style="fill:#B2803A; fill-opacity:1.0000; 
stroke:#B2803A; stroke-width:0.0000; stroke-opacity:1; 
stroke-linecap:round; stroke-linejoin:round;">
<circle cx="20.1845" cy="10.5000" r="1.0000" /> 
</g>
<g style="fill:#B2803A; fill-opacity:1.0000; 
stroke:#B2803A; stroke-width:0.0212; stroke-opacity:1; 
stroke-linecap:round; stroke-linejoin:round;">
</g>
<g style="fill:#B2803A; fill-opacity:1.0000; 
stroke:#B2803A; stroke-width:0.0000; stroke-opacity:1; 
stroke-linecap:round; stroke-linejoin:round;">
<circle cx="20.1845" cy="4.0000" r="1.0000" /> 
</g>
<g style="fill:#B2803A; fill-opacity:1.0000; 
stroke:#B2803A; stroke-width:0.0212; stroke-opacity:1; 
stroke-linecap:round; stroke-linejoin:round;">
</g>
<g >
</g>
<g >
</g>
<g >
</g>
<g style="fill:#B2803A; fill-opacity:1.0000; 
stroke:#B2803A; stroke-width:0.0212; stroke-opacity:1; 
stroke-linecap:round; stroke-linejoin:round;">
<g >
</g>
<g style="fill:#B2803A; fill-opacity:1.0000; 
stroke:#B2803A; stroke-width:0.0000; stroke-opacity:1; 
stroke-linecap:round; stroke-linejoin:round;">
<path style="fill:#B2803A; fill-opacity:1.0000; 
stroke:#B2803A; stroke-width:0.0000; stroke-opacity:1; 
stroke-linecap:round; stroke-linejoin:round;fill-rule:evenodd;"
d="M 19.1993,0.8755
19.2054,0.8767
19.8355,1.0346
28.0008,3.4195
28.0606,3.4578
28.0901,3.5223
28.0801,3.5926
28.0337,3.6463
27.9981,3.6621
27.7871,3.7186
27.4243,3.8579
27.4243,3.8579
27.0780,4.0344
26.7520,4.2460
26.4966,4.4529
27.4139,5.3701
27.3350,5.3174
27.2621,5.3029
27.2128,5.3029
27.1399,5.3174
27.0572,5.3727
27.0020,5.4554
26.9826,5.5529
27.0020,5.6505
27.0547,5.7294
26.1374,4.8121
25.9306,5.0675
25.7189,5.3935
25.5424,5.7398
25.5424,5.7398
25.4032,6.1026
25.3026,6.4780
25.2418,6.8619
25.2214,7.2500
25.2214,7.2500
25.2418,7.6381
25.3026,8.0220
25.4032,8.3974
25.5424,8.7602
25.5424,8.7602
25.7189,9.1065
25.7189,9.1065
25.9306,9.4325
25.9306,9.4325
26.1374,9.6879
26.1374,9.6879
27.0547,8.7706
27.0020,8.8495
26.9826,8.9471
27.0020,9.0446
27.0572,9.1273
27.1399,9.1826
27.2128,9.1971
27.2621,9.1971
27.3350,9.1826
27.4139,9.1299
26.4966,10.0471
26.4966,10.0471
26.7520,10.2539
26.7520,10.2540
27.0780,10.4656
27.0780,10.4656
27.4243,10.6421
27.4243,10.6421
27.7871,10.7814
27.9981,10.8379
28.0587,10.8748
28.0897,10.9387
28.0813,11.0092
28.0361,11.0639
28.0008,11.0805
19.8355,13.4654
19.2054,13.6233
19.1993,13.6245
18.8290,13.6794
18.7587,13.6696
18.7048,13.6234
18.6845,13.5553
18.6845,13.5548
18.6845,11.3851
18.7045,11.3170
18.7582,11.2705
18.8285,11.2604
18.8930,11.2899
18.9180,11.3193
18.9514,11.3739
19.6576,10.6677
19.6614,10.6859
19.7310,10.8202
19.8342,10.9307
19.9633,11.0092
20.0189,11.0248
19.3106,11.7331
19.3106,11.7331
19.4978,11.8478
19.7171,11.9386
19.9479,11.9940
20.1845,12.0127
20.4212,11.9940
20.6520,11.9386
20.8713,11.8478
21.0584,11.7331
21.0584,11.7331
20.3521,11.0268
20.4730,10.9743
20.5903,10.8789
20.6775,10.7554
20.7094,10.6656
21.4176,11.3739
21.4176,11.3739
21.5323,11.1867
21.6232,10.9674
21.6786,10.7366
21.6972,10.5000
21.6786,10.2634
21.6232,10.0326
21.5323,9.8133
21.4176,9.6261
21.4176,9.6261
20.7114,10.3323
20.7076,10.3141
20.6381,10.1798
20.5349,10.0693
20.4057,9.9908
20.3501,9.9752
21.0584,9.2669
20.8713,9.1522
20.6520,9.0614
20.4212,9.0060
20.1845,8.9873
19.9479,9.0060
19.7171,9.0614
19.4978,9.1522
19.3106,9.2669
19.3106,9.2669
20.0169,9.9732
19.8961,10.0257
19.7788,10.1211
19.6916,10.2446
19.6597,10.3344
18.9514,9.6261
18.9514,9.6261
18.9180,9.6807
18.8653,9.7283
18.7953,9.7400
18.7301,9.7119
18.6904,9.6530
18.6845,9.6149
18.6845,4.8851
18.7045,4.8170
18.7582,4.7705
18.8285,4.7604
18.8930,4.7899
18.9180,4.8193
18.9514,4.8739
19.6576,4.1677
19.6614,4.1859
19.7310,4.3202
19.8342,4.4307
19.9633,4.5092
20.0189,4.5248
19.3106,5.2331
19.3106,5.2331
19.4978,5.3478
19.7171,5.4386
19.9479,5.4940
20.1845,5.5127
20.4212,5.4940
20.6520,5.4386
20.8713,5.3478
21.0584,5.2331
21.0584,5.2331
20.3521,4.5268
20.4730,4.4743
20.5903,4.3789
20.6775,4.2554
20.7094,4.1656
21.4176,4.8739
21.4176,4.8739
21.5323,4.6867
21.6232,4.4674
21.6786,4.2366
21.6972,4.0000
21.6786,3.7634
21.6232,3.5326
21.5323,3.3133
21.4176,3.1261
21.4176,3.1261
20.7114,3.8323
20.7076,3.8141
20.6381,3.6798
20.5349,3.5693
20.4057,3.4908
20.3501,3.4752
21.0584,2.7669
20.8713,2.6522
20.6520,2.5614
20.4212,2.5060
20.1845,2.4873
19.9479,2.5060
19.7171,2.5614
19.4978,2.6522
19.3106,2.7669
19.3106,2.7669
20.0169,3.4732
19.8961,3.5257
19.7788,3.6211
19.6916,3.7446
19.6597,3.8344
18.9514,3.1261
18.9514,3.1261
18.9180,3.1807
18.8653,3.2283
18.7953,3.2400
18.7301,3.2119
18.6904,3.1530
18.6845,3.1149
18.6845,0.9452
18.7045,0.8771
18.7582,0.8306
18.8285,0.8205
Z" /> 
<path style="fill:#B2803A; fill-opacity:1.0000; 
stroke:#B2803A; stroke-width:0.0000; stroke-opacity:1; 
stroke-linecap:round; stroke-linejoin:round;fill-rule:evenodd;"
d="M 27.6361,8.1934
27.7997,8.3849
27.9912,8.5484
27.9937,8.5500
27.4203,9.1235
27.4730,9.0446
27.4924,8.9471
27.4730,8.8495
27.4177,8.7668
27.3350,8.7116
27.2621,8.6971
27.2128,8.6971
27.1399,8.7116
27.0611,8.7643
27.6345,8.1908
Z" /> 
<path style="fill:#B2803A; fill-opacity:1.0000; 
stroke:#B2803A; stroke-width:0.0000; stroke-opacity:1; 
stroke-linecap:round; stroke-linejoin:round;fill-rule:evenodd;"
d="M 27.9937,5.9500
27.9912,5.9516
27.7997,6.1151
27.6361,6.3066
27.6345,6.3092
27.0611,5.7357
27.1399,5.7884
27.2128,5.8029
27.2621,5.8029
27.3350,5.7884
27.4177,5.7332
27.4730,5.6505
27.4924,5.5529
27.4730,5.4554
27.4203,5.3765
Z" /> 
</g>
</g>
<g style="fill:#B2803A; fill-opacity:1.0000; 
stroke:#B2803A; stroke-width:0.0000; stroke-opacity:1; 
stroke-linecap:round; stroke-linejoin:round;">
<g >
<path style="fill:#B2803A; fill-opacity:1.0000; 
stroke:#B2803A; stroke-width:0.0000; stroke-opacity:1; 
stroke-linecap:round; stroke-linejoin:round;fill-rule:evenodd;"
d="M 17.1104,0.8304
17.1642,0.8766
17.1845,0.9447
17.1845,0.9452
17.1845,3.1149
17.1645,3.1830
17.1109,3.2295
17.0406,3.2396
16.9760,3.2101
16.9511,3.1807
16.9176,3.1261
16.9176,3.1261
16.2114,3.8323
16.2076,3.8141
16.1381,3.6798
16.0349,3.5693
15.9057,3.4908
15.8501,3.4752
16.5584,2.7669
16.3713,2.6522
16.1520,2.5614
15.9212,2.5060
15.6845,2.4873
15.4479,2.5060
15.2171,2.5614
14.9978,2.6522
14.8106,2.7669
14.8106,2.7669
15.5169,3.4732
15.3961,3.5257
15.2788,3.6211
15.1916,3.7446
15.1597,3.8344
14.4514,3.1261
14.4514,3.1261
14.3367,3.3133
14.2459,3.5326
14.1905,3.7634
14.1719,4.0000
14.1905,4.2366
14.2459,4.4674
14.3367,4.6867
14.4514,4.8739
15.1576,4.1677
15.1614,4.1859
15.2310,4.3202
15.3342,4.4307
15.4633,4.5092
15.5189,4.5248
14.8106,5.2331
14.8106,5.2331
14.9978,5.3478
15.2171,5.4386
15.4479,5.4940
15.6845,5.5127
15.9212,5.4940
16.1520,5.4386
16.3713,5.3478
16.5584,5.2331
16.5584,5.2331
15.8521,4.5268
15.9730,4.4743
16.0903,4.3789
16.1775,4.2554
16.2094,4.1656
16.9176,4.8739
16.9511,4.8193
17.0037,4.7717
17.0738,4.7600
17.1390,4.7881
17.1786,4.8470
17.1845,4.8851
17.1845,9.6149
17.1645,9.6830
17.1109,9.7295
17.0406,9.7396
16.9760,9.7101
16.9511,9.6807
16.9176,9.6261
16.9176,9.6261
16.2114,10.3323
16.2076,10.3141
16.1381,10.1798
16.0349,10.0693
15.9057,9.9908
15.8501,9.9752
16.5584,9.2669
16.3713,9.1522
16.1520,9.0614
15.9212,9.0060
15.6845,8.9873
15.4479,9.0060
15.2171,9.0614
14.9978,9.1522
14.8106,9.2669
14.8106,9.2669
15.5169,9.9732
15.3961,10.0257
15.2788,10.1211
15.1916,10.2446
15.1597,10.3344
14.4514,9.6261
14.4514,9.6261
14.3367,9.8133
14.2459,10.0326
14.1905,10.2634
14.1719,10.5000
14.1905,10.7366
14.2459,10.9674
14.3367,11.1867
14.4514,11.3739
15.1576,10.6677
15.1614,10.6859
15.2310,10.8202
15.3342,10.9307
15.4633,11.0092
15.5189,11.0248
14.8106,11.7331
14.8106,11.7331
14.9978,11.8478
15.2171,11.9386
15.4479,11.9940
15.6845,12.0127
15.9212,11.9940
16.1520,11.9386
16.3713,11.8478
16.5584,11.7331
16.5584,11.7331
15.8521,11.0268
15.9730,10.9743
16.0903,10.8789
16.1775,10.7554
16.2094,10.6656
16.9176,11.3739
16.9511,11.3193
17.0037,11.2716
17.0738,11.2600
17.1390,11.2881
17.1786,11.3470
17.1845,11.3851
17.1845,13.5548
17.1645,13.6229
17.1109,13.6694
17.0406,13.6795
17.0400,13.6794
16.8380,13.6494
16.6697,13.6245
16.6637,13.6233
16.0336,13.4654
7.8683,11.0805
7.8085,11.0422
7.7789,10.9777
7.7889,10.9074
7.8353,10.8537
7.8710,10.8379
8.0819,10.7814
8.4448,10.6421
8.4448,10.6421
8.7911,10.4656
8.7911,10.4656
9.1170,10.2539
9.3724,10.0471
8.4552,9.1299
8.5340,9.1826
8.6070,9.1971
8.6562,9.1971
8.7291,9.1826
8.8118,9.1273
8.8671,9.0446
8.8865,8.9471
8.8671,8.8495
8.8144,8.7706
9.7316,9.6879
9.9385,9.4325
10.1502,9.1065
10.1502,9.1065
10.3266,8.7602
10.3266,8.7602
10.4659,8.3974
10.5665,8.0220
10.6273,7.6381
10.6476,7.2500
10.6476,7.2500
10.6273,6.8619
10.5665,6.4780
10.4659,6.1026
10.3266,5.7398
10.3266,5.7398
10.1502,5.3935
9.9385,5.0675
9.9385,5.0675
9.7316,4.8121
9.7316,4.8121
8.8144,5.7293
8.8671,5.6505
8.8865,5.5529
8.8671,5.4554
8.8118,5.3727
8.7291,5.3174
8.6562,5.3029
8.6070,5.3029
8.5340,5.3174
8.4552,5.3701
9.3724,4.4529
9.3724,4.4529
9.1170,4.2461
9.1170,4.2460
8.7911,4.0344
8.7911,4.0344
8.4448,3.8579
8.4448,3.8579
8.0819,3.7186
7.8710,3.6621
7.8104,3.6252
7.7793,3.5613
7.7878,3.4908
7.8330,3.4361
7.8683,3.4195
16.0336,1.0346
16.6637,0.8767
16.6697,0.8755
17.0400,0.8206
Z" /> 
<path style="fill:#B2803A; fill-opacity:1.0000; 
stroke:#B2803A; stroke-width:0.0000; stroke-opacity:1; 
stroke-linecap:round; stroke-linejoin:round;fill-rule:evenodd;"
d="M 8.8080,8.7643
8.7291,8.7116
8.6562,8.6971
8.6070,8.6971
8.5340,8.7116
8.4513,8.7668
8.3961,8.8495
8.3767,8.9471
8.3961,9.0446
8.4488,9.1235
7.8753,8.5500
7.8779,8.5484
8.0694,8.3849
8.2330,8.1934
8.2345,8.1908
Z" /> 
<path style="fill:#B2803A; fill-opacity:1.0000; 
stroke:#B2803A; stroke-width:0.0000; stroke-opacity:1; 
stroke-linecap:round; stroke-linejoin:round;fill-rule:evenodd;"
d="M 8.3961,5.4554
8.3767,5.5529
8.3961,5.6505
8.4513,5.7332
8.5340,5.7884
8.6070,5.8029
8.6562,5.8029
8.7291,5.7884
8.8080,5.7357
8.2345,6.3092
8.2330,6.3066
8.0694,6.1151
7.8779,5.9516
7.8753,5.9500
8.4488,5.3765
Z" /> 
</g>
</g>
</g>
<g style="fill:#000000; fill-opacity:1.0000; 
stroke:#000000; stroke-width:0.0000; stroke-opacity:1; 
stroke-linecap:round; stroke-linejoin:round;">
<circle cx="4.5345" cy="7.2500" r="0.2500" /> 
</g>
<g style="fill:#000000; fill-opacity:1.0000; 
stroke:#000000; stroke-width:0.0212; stroke-opacity:1; 
stroke-linecap:round; stroke-linejoin:round;">
</g>
<g style="fill:#000000; fill-opacity:1.0000; 
stroke:#000000; stroke-width:0.0000; stroke-opacity:1; 
stroke-linecap:round; stroke-linejoin:round;">
<circle cx="5.2375" cy="5.5529" r="0.2500" /> 
</g>
<g style="fill:#000000; fill-opacity:1.0000; 
stroke:#000000; stroke-width:0.0212; stroke-opacity:1; 
stroke-linecap:round; stroke-linejoin:round;">
</g>
<g style="fill:#000000; fill-opacity:1.0000; 
stroke:#000000; stroke-width:0.0000; stroke-opacity:1; 
stroke-linecap:round; stroke-linejoin:round;">
<circle cx="5.2375" cy="8.9471" r="0.2500" /> 
</g>
<g style="fill:#000000; fill-opacity:1.0000; 
stroke:#000000; stroke-width:0.0212; stroke-opacity:1; 
stroke-linecap:round; stroke-linejoin:round;">
</g>
<g style="fill:#000000; fill-opacity:1.0000; 
stroke:#000000; stroke-width:0.0000; stroke-opacity:1; 
stroke-linecap:round; stroke-linejoin:round;">
<circle cx="6.9345" cy="4.8500" r="0.2500" /> 
</g>
<g style="fill:#000000; fill-opacity:1.0000; 
stroke:#000000; stroke-width:0.0212; stroke-opacity:1; 
stroke-linecap:round; stroke-linejoin:round;">
</g>
<g style="fill:#000000; fill-opacity:1.0000; 
stroke:#000000; stroke-width:0.0000; stroke-opacity:1; 
stroke-linecap:round; stroke-linejoin:round;">
<circle cx="6.9345" cy="7.2500" r="1.6000" /> 
</g>
<g style="fill:#000000; fill-opacity:1.0000; 
stroke:#000000; stroke-width:0.0212; stroke-opacity:1; 
stroke-linecap:round; stroke-linejoin:round;">
</g>
<g style="fill:#000000; fill-opacity:1.0000; 
stroke:#000000; stroke-width:0.0000; stroke-opacity:1; 
stroke-linecap:round; stroke-linejoin:round;">
<circle cx="6.9345" cy="9.6500" r="0.2500" /> 
</g>
<g style="fill:#000000; fill-opacity:1.0000; 
stroke:#000000; stroke-width:0.0212; stroke-opacity:1; 
stroke-linecap:round; stroke-linejoin:round;">
</g>
<g style="fill:#000000; fill-opacity:1.0000; 
stroke:#000000; stroke-width:0.0000; stroke-opacity:1; 
stroke-linecap:round; stroke-linejoin:round;">
<circle cx="8.6316" cy="5.5529" r="0.2500" /> 
</g>
<g style="fill:#000000; fill-opacity:1.0000; 
stroke:#000000; stroke-width:0.0212; stroke-opacity:1; 
stroke-linecap:round; stroke-linejoin:round;">
</g>
<g style="fill:#000000; fill-opacity:1.0000; 
stroke:#000000; stroke-width:0.0000; stroke-opacity:1; 
stroke-linecap:round; stroke-linejoin:round;">
<circle cx="8.6316" cy="8.9471" r="0.2500" /> 
</g>
<g style="fill:#000000; fill-opacity:1.0000; 
stroke:#000000; stroke-width:0.0212; stroke-opacity:1; 
stroke-linecap:round; stroke-linejoin:round;">
</g>
<g style="fill:#000000; fill-opacity:1.0000; 
stroke:#000000; stroke-width:0.0000; stroke-opacity:1; 
stroke-linecap:round; stroke-linejoin:round;">
<circle cx="9.3345" cy="7.2500" r="0.2500" /> 
</g>
<g style="fill:#000000; fill-opacity:1.0000; 
stroke:#000000; stroke-width:0.0212; stroke-opacity:1; 
stroke-linecap:round; stroke-linejoin:round;">
</g>
<g style="fill:#000000; fill-opacity:1.0000; 
stroke:#000000; stroke-width:0.0000; stroke-opacity:1; 
stroke-linecap:round; stroke-linejoin:round;">
<circle cx="26.5345" cy="7.2500" r="0.2500" /> 
</g>
<g style="fill:#000000; fill-opacity:1.0000; 
stroke:#000000; stroke-width:0.0212; stroke-opacity:1; 
stroke-linecap:round; stroke-linejoin:round;">
</g>
<g style="fill:#000000; fill-opacity:1.0000; 
stroke:#000000; stroke-width:0.0000; stroke-opacity:1; 
stroke-linecap:round; stroke-linejoin:round;">
<circle cx="27.2375" cy="5.5529" r="0.2500" /> 
</g>
<g style="fill:#000000; fill-opacity:1.0000; 
stroke:#000000; stroke-width:0.0212; stroke-opacity:1; 
stroke-linecap:round; stroke-linejoin:round;">
</g>
<g style="fill:#000000; fill-opacity:1.0000; 
stroke:#000000; stroke-width:0.0000; stroke-opacity:1; 
stroke-linecap:round; stroke-linejoin:round;">
<circle cx="27.2375" cy="8.9471" r="0.2500" /> 
</g>
<g style="fill:#000000; fill-opacity:1.0000; 
stroke:#000000; stroke-width:0.0212; stroke-opacity:1; 
stroke-linecap:round; stroke-linejoin:round;">
</g>
<g style="fill:#000000; fill-opacity:1.0000; 
stroke:#000000; stroke-width:0.0000; stroke-opacity:1; 
stroke-linecap:round; stroke-linejoin:round;">
<circle cx="28.9345" cy="4.8500" r="0.2500" /> 
</g>
<g style="fill:#000000; fill-opacity:1.0000; 
stroke:#000000; stroke-width:0.0212; stroke-opacity:1; 
stroke-linecap:round; stroke-linejoin:round;">
</g>
<g style="fill:#000000; fill-opacity:1.0000; 
stroke:#000000; stroke-width:0.0000; stroke-opacity:1; 
stroke-linecap:round; stroke-linejoin:round;">
<circle cx="28.9345" cy="7.2500" r="1.6000" /> 
</g>
<g style="fill:#000000; fill-opacity:1.0000; 
stroke:#000000; stroke-width:0.0212; stroke-opacity:1; 
stroke-linecap:round; stroke-linejoin:round;">
</g>
<g style="fill:#000000; fill-opacity:1.0000; 
stroke:#000000; stroke-width:0.0000; stroke-opacity:1; 
stroke-linecap:round; stroke-linejoin:round;">
<circle cx="28.9345" cy="9.6500" r="0.2500" /> 
</g>
<g style="fill:#000000; fill-opacity:1.0000; 
stroke:#000000; stroke-width:0.0212; stroke-opacity:1; 
stroke-linecap:round; stroke-linejoin:round;">
</g>
<g style="fill:#000000; fill-opacity:1.0000; 
stroke:#000000; stroke-width:0.0000; stroke-opacity:1; 
stroke-linecap:round; stroke-linejoin:round;">
<circle cx="30.6316" cy="5.5529" r="0.2500" /> 
</g>
<g style="fill:#000000; fill-opacity:1.0000; 
stroke:#000000; stroke-width:0.0212; stroke-opacity:1; 
stroke-linecap:round; stroke-linejoin:round;">
</g>
<g style="fill:#000000; fill-opacity:1.0000; 
stroke:#000000; stroke-width:0.0000; stroke-opacity:1; 
stroke-linecap:round; stroke-linejoin:round;">
<circle cx="30.6316" cy="8.9471" r="0.2500" /> 
</g>
<g style="fill:#000000; fill-opacity:1.0000; 
stroke:#000000; stroke-width:0.0212; stroke-opacity:1; 
stroke-linecap:round; stroke-linejoin:round;">
</g>
<g style="fill:#000000; fill-opacity:1.0000; 
stroke:#000000; stroke-width:0.0000; stroke-opacity:1; 
stroke-linecap:round; stroke-linejoin:round;">
<circle cx="31.3345" cy="7.2500" r="0.2500" /> 
</g>
<g style="fill:#000000; fill-opacity:1.0000; 
stroke:#000000; stroke-width:0.0212; stroke-opacity:1; 
stroke-linecap:round; stroke-linejoin:round;">
</g>
<g style="fill:#000000; fill-opacity:1.0000; 
stroke:#000000; stroke-width:0.0000; stroke-opacity:1; 
stroke-linecap:round; stroke-linejoin:round;">
<circle cx="15.6845" cy="10.5000" r="0.5500" /> 
</g>
<g style="fill:#000000; fill-opacity:1.0000; 
stroke:#000000; stroke-width:0.0212; stroke-opacity:1; 
stroke-linecap:round; stroke-linejoin:round;">
</g>
<g style="fill:#000000; fill-opacity:1.0000; 
stroke:#000000; stroke-width:0.0000; stroke-opacity:1; 
stroke-linecap:round; stroke-linejoin:round;">
<circle cx="15.6845" cy="4.0000" r="0.5500" /> 
</g>
<g style="fill:#000000; fill-opacity:1.0000; 
stroke:#000000; stroke-width:0.0212; stroke-opacity:1; 
stroke-linecap:round; stroke-linejoin:round;">
</g>
<g style="fill:#000000; fill-opacity:1.0000; 
stroke:#000000; stroke-width:0.0000; stroke-opacity:1; 
stroke-linecap:round; stroke-linejoin:round;">
<circle cx="20.1845" cy="10.5000" r="0.5500" /> 
</g>
<g style="fill:#000000; fill-opacity:1.0000; 
stroke:#000000; stroke-width:0.0212; stroke-opacity:1; 
stroke-linecap:round; stroke-linejoin:round;">
</g>
<g style="fill:#000000; fill-opacity:1.0000; 
stroke:#000000; stroke-width:0.0000; stroke-opacity:1; 
stroke-linecap:round; stroke-linejoin:round;">
<circle cx="20.1845" cy="4.0000" r="0.5500" /> 
</g>
<g style="fill:#000000; fill-opacity:1.0000; 
stroke:#000000; stroke-width:0.0212; stroke-opacity:1; 
stroke-linecap:round; stroke-linejoin:round;">
</g>
<g style="fill:#FFFFFF; fill-opacity:1.0000; 
stroke:#FFFFFF; stroke-width:0.0212; stroke-opacity:1; 
stroke-linecap:round; stroke-linejoin:round;">
<g >
</g>
<g style="fill:#37CBCB; fill-opacity:1.0000; 
stroke:#37CBCB; stroke-width:0.0212; stroke-opacity:1; 
stroke-linecap:round; stroke-linejoin:round;">
</g>
<g style="fill:#37CBCB; fill-opacity:1.0000; 
stroke:#37CBCB; stroke-width:0.0000; stroke-opacity:1; 
stroke-linecap:round; stroke-linejoin:round;">
<circle cx="4.5345" cy="7.2500" r="0.4000" /> 
</g>
<g style="fill:#37CBCB; fill-opacity:1.0000; 
stroke:#37CBCB; stroke-width:0.0212; stroke-opacity:1; 
stroke-linecap:round; stroke-linejoin:round;">
</g>
<g style="fill:#37CBCB; fill-opacity:1.0000; 
stroke:#37CBCB; stroke-width:0.0000; stroke-opacity:1; 
stroke-linecap:round; stroke-linejoin:round;">
<circle cx="5.2375" cy="5.5529" r="0.4000" /> 
</g>
<g style="fill:#37CBCB; fill-opacity:1.0000; 
stroke:#37CBCB; stroke-width:0.0212; stroke-opacity:1; 
stroke-linecap:round; stroke-linejoin:round;">
</g>
<g style="fill:#37CBCB; fill-opacity:1.0000; 
stroke:#37CBCB; stroke-width:0.0000; stroke-opacity:1; 
stroke-linecap:round; stroke-linejoin:round;">
<circle cx="5.2375" cy="8.9471" r="0.4000" /> 
</g>
<g style="fill:#37CBCB; fill-opacity:1.0000; 
stroke:#37CBCB; stroke-width:0.0212; stroke-opacity:1; 
stroke-linecap:round; stroke-linejoin:round;">
</g>
<g style="fill:#37CBCB; fill-opacity:1.0000; 
stroke:#37CBCB; stroke-width:0.0000; stroke-opacity:1; 
stroke-linecap:round; stroke-linejoin:round;">
<circle cx="6.9345" cy="4.8500" r="0.4000" /> 
</g>
<g style="fill:#37CBCB; fill-opacity:1.0000; 
stroke:#37CBCB; stroke-width:0.0212; stroke-opacity:1; 
stroke-linecap:round; stroke-linejoin:round;">
</g>
<g style="fill:#37CBCB; fill-opacity:1.0000; 
stroke:#37CBCB; stroke-width:0.0000; stroke-opacity:1; 
stroke-linecap:round; stroke-linejoin:round;">
<circle cx="6.9345" cy="7.2500" r="3.2000" /> 
</g>
<g style="fill:#37CBCB; fill-opacity:1.0000; 
stroke:#37CBCB; stroke-width:0.0212; stroke-opacity:1; 
stroke-linecap:round; stroke-linejoin:round;">
</g>
<g style="fill:#37CBCB; fill-opacity:1.0000; 
stroke:#37CBCB; stroke-width:0.0000; stroke-opacity:1; 
stroke-linecap:round; stroke-linejoin:round;">
<circle cx="6.9345" cy="9.6500" r="0.4000" /> 
</g>
<g style="fill:#37CBCB; fill-opacity:1.0000; 
stroke:#37CBCB; stroke-width:0.0212; stroke-opacity:1; 
stroke-linecap:round; stroke-linejoin:round;">
</g>
<g style="fill:#37CBCB; fill-opacity:1.0000; 
stroke:#37CBCB; stroke-width:0.0000; stroke-opacity:1; 
stroke-linecap:round; stroke-linejoin:round;">
<circle cx="8.6316" cy="5.5529" r="0.4000" /> 
</g>
<g style="fill:#37CBCB; fill-opacity:1.0000; 
stroke:#37CBCB; stroke-width:0.0212; stroke-opacity:1; 
stroke-linecap:round; stroke-linejoin:round;">
</g>
<g style="fill:#37CBCB; fill-opacity:1.0000; 
stroke:#37CBCB; stroke-width:0.0000; stroke-opacity:1; 
stroke-linecap:round; stroke-linejoin:round;">
<circle cx="8.6316" cy="8.9471" r="0.4000" /> 
</g>
<g style="fill:#37CBCB; fill-opacity:1.0000; 
stroke:#37CBCB; stroke-width:0.0212; stroke-opacity:1; 
stroke-linecap:round; stroke-linejoin:round;">
</g>
<g style="fill:#37CBCB; fill-opacity:1.0000; 
stroke:#37CBCB; stroke-width:0.0000; stroke-opacity:1; 
stroke-linecap:round; stroke-linejoin:round;">
<circle cx="9.3345" cy="7.2500" r="0.4000" /> 
</g>
<g style="fill:#37CBCB; fill-opacity:1.0000; 
stroke:#37CBCB; stroke-width:0.0212; stroke-opacity:1; 
stroke-linecap:round; stroke-linejoin:round;">
</g>
<g >
</g>
<g style="fill:#37CBCB; fill-opacity:1.0000; 
stroke:#37CBCB; stroke-width:0.0212; stroke-opacity:1; 
stroke-linecap:round; stroke-linejoin:round;">
</g>
<g style="fill:#37CBCB; fill-opacity:1.0000; 
stroke:#37CBCB; stroke-width:0.0000; stroke-opacity:1; 
stroke-linecap:round; stroke-linejoin:round;">
<circle cx="26.5345" cy="7.2500" r="0.4000" /> 
</g>
<g style="fill:#37CBCB; fill-opacity:1.0000; 
stroke:#37CBCB; stroke-width:0.0212; stroke-opacity:1; 
stroke-linecap:round; stroke-linejoin:round;">
</g>
<g style="fill:#37CBCB; fill-opacity:1.0000; 
stroke:#37CBCB; stroke-width:0.0000; stroke-opacity:1; 
stroke-linecap:round; stroke-linejoin:round;">
<circle cx="27.2375" cy="5.5529" r="0.4000" /> 
</g>
<g style="fill:#37CBCB; fill-opacity:1.0000; 
stroke:#37CBCB; stroke-width:0.0212; stroke-opacity:1; 
stroke-linecap:round; stroke-linejoin:round;">
</g>
<g style="fill:#37CBCB; fill-opacity:1.0000; 
stroke:#37CBCB; stroke-width:0.0000; stroke-opacity:1; 
stroke-linecap:round; stroke-linejoin:round;">
<circle cx="27.2375" cy="8.9471" r="0.4000" /> 
</g>
<g style="fill:#37CBCB; fill-opacity:1.0000; 
stroke:#37CBCB; stroke-width:0.0212; stroke-opacity:1; 
stroke-linecap:round; stroke-linejoin:round;">
</g>
<g style="fill:#37CBCB; fill-opacity:1.0000; 
stroke:#37CBCB; stroke-width:0.0000; stroke-opacity:1; 
stroke-linecap:round; stroke-linejoin:round;">
<circle cx="28.9345" cy="4.8500" r="0.4000" /> 
</g>
<g style="fill:#37CBCB; fill-opacity:1.0000; 
stroke:#37CBCB; stroke-width:0.0212; stroke-opacity:1; 
stroke-linecap:round; stroke-linejoin:round;">
</g>
<g style="fill:#37CBCB; fill-opacity:1.0000; 
stroke:#37CBCB; stroke-width:0.0000; stroke-opacity:1; 
stroke-linecap:round; stroke-linejoin:round;">
<circle cx="28.9345" cy="7.2500" r="3.2000" /> 
</g>
<g style="fill:#37CBCB; fill-opacity:1.0000; 
stroke:#37CBCB; stroke-width:0.0212; stroke-opacity:1; 
stroke-linecap:round; stroke-linejoin:round;">
</g>
<g style="fill:#37CBCB; fill-opacity:1.0000; 
stroke:#37CBCB; stroke-width:0.0000; stroke-opacity:1; 
stroke-linecap:round; stroke-linejoin:round;">
<circle cx="28.9345" cy="9.6500" r="0.4000" /> 
</g>
<g style="fill:#37CBCB; fill-opacity:1.0000; 
stroke:#37CBCB; stroke-width:0.0212; stroke-opacity:1; 
stroke-linecap:round; stroke-linejoin:round;">
</g>
<g style="fill:#37CBCB; fill-opacity:1.0000; 
stroke:#37CBCB; stroke-width:0.0000; stroke-opacity:1; 
stroke-linecap:round; stroke-linejoin:round;">
<circle cx="30.6316" cy="5.5529" r="0.4000" /> 
</g>
<g style="fill:#37CBCB; fill-opacity:1.0000; 
stroke:#37CBCB; stroke-width:0.0212; stroke-opacity:1; 
stroke-linecap:round; stroke-linejoin:round;">
</g>
<g style="fill:#37CBCB; fill-opacity:1.0000; 
stroke:#37CBCB; stroke-width:0.0000; stroke-opacity:1; 
stroke-linecap:round; stroke-linejoin:round;">
<circle cx="30.6316" cy="8.9471" r="0.4000" /> 
</g>
<g style="fill:#37CBCB; fill-opacity:1.0000; 
stroke:#37CBCB; stroke-width:0.0212; stroke-opacity:1; 
stroke-linecap:round; stroke-linejoin:round;">
</g>
<g style="fill:#37CBCB; fill-opacity:1.0000; 
stroke:#37CBCB; stroke-width:0.0000; stroke-opacity:1; 
stroke-linecap:round; stroke-linejoin:round;">
<circle cx="31.3345" cy="7.2500" r="0.4000" /> 
</g>
<g style="fill:#37CBCB; fill-opacity:1.0000; 
stroke:#37CBCB; stroke-width:0.0212; stroke-opacity:1; 
stroke-linecap:round; stroke-linejoin:round;">
</g>
<g >
</g>
<g style="fill:#37CBCB; fill-opacity:1.0000; 
stroke:#37CBCB; stroke-width:0.0212; stroke-opacity:1; 
stroke-linecap:round; stroke-linejoin:round;">
</g>
<g style="fill:#37CBCB; fill-opacity:1.0000; 
stroke:#37CBCB; stroke-width:0.0000; stroke-opacity:1; 
stroke-linecap:round; stroke-linejoin:round;">
<circle cx="15.6845" cy="10.5000" r="1.0000" /> 
</g>
<g style="fill:#37CBCB; fill-opacity:1.0000; 
stroke:#37CBCB; stroke-width:0.0212; stroke-opacity:1; 
stroke-linecap:round; stroke-linejoin:round;">
</g>
<g style="fill:#37CBCB; fill-opacity:1.0000; 
stroke:#37CBCB; stroke-width:0.0000; stroke-opacity:1; 
stroke-linecap:round; stroke-linejoin:round;">
<circle cx="15.6845" cy="4.0000" r="1.0000" /> 
</g>
<g style="fill:#37CBCB; fill-opacity:1.0000; 
stroke:#37CBCB; stroke-width:0.0212; stroke-opacity:1; 
stroke-linecap:round; stroke-linejoin:round;">
</g>
<g style="fill:#37CBCB; fill-opacity:1.0000; 
stroke:#37CBCB; stroke-width:0.0000; stroke-opacity:1; 
stroke-linecap:round; stroke-linejoin:round;">
<circle cx="20.1845" cy="10.5000" r="1.0000" /> 
</g>
<g style="fill:#37CBCB; fill-opacity:1.0000; 
stroke:#37CBCB; stroke-width:0.0212; stroke-opacity:1; 
stroke-linecap:round; stroke-linejoin:round;">
</g>
<g style="fill:#37CBCB; fill-opacity:1.0000; 
stroke:#37CBCB; stroke-width:0.0000; stroke-opacity:1; 
stroke-linecap:round; stroke-linejoin:round;">
<circle cx="20.1845" cy="4.0000" r="1.0000" /> 
</g>
<g style="fill:#37CBCB; fill-opacity:1.0000; 
stroke:#37CBCB; stroke-width:0.0212; stroke-opacity:1; 
stroke-linecap:round; stroke-linejoin:round;">
</g>
<g >
</g>
<g >
</g>
<g >
</g>
</g>
<g style="fill:#000000; fill-opacity:1.0000; 
stroke:#000000; stroke-width:0.0212; stroke-opacity:1; 
stroke-linecap:round; stroke-linejoin:round;">
</g>
<g style="fill:#000000; fill-opacity:1.0000; 
stroke:#000000; stroke-width:0.0000; stroke-opacity:1; 
stroke-linecap:round; stroke-linejoin:round;">
<circle cx="4.5345" cy="7.2500" r="0.2500" /> 
</g>
<g style="fill:#000000; fill-opacity:1.0000; 
stroke:#000000; stroke-width:0.0212; stroke-opacity:1; 
stroke-linecap:round; stroke-linejoin:round;">
</g>
<g style="fill:#000000; fill-opacity:1.0000; 
stroke:#000000; stroke-width:0.0000; stroke-opacity:1; 
stroke-linecap:round; stroke-linejoin:round;">
<circle cx="5.2375" cy="5.5529" r="0.2500" /> 
</g>
<g style="fill:#000000; fill-opacity:1.0000; 
stroke:#000000; stroke-width:0.0212; stroke-opacity:1; 
stroke-linecap:round; stroke-linejoin:round;">
</g>
<g style="fill:#000000; fill-opacity:1.0000; 
stroke:#000000; stroke-width:0.0000; stroke-opacity:1; 
stroke-linecap:round; stroke-linejoin:round;">
<circle cx="5.2375" cy="8.9471" r="0.2500" /> 
</g>
<g style="fill:#000000; fill-opacity:1.0000; 
stroke:#000000; stroke-width:0.0212; stroke-opacity:1; 
stroke-linecap:round; stroke-linejoin:round;">
</g>
<g style="fill:#000000; fill-opacity:1.0000; 
stroke:#000000; stroke-width:0.0000; stroke-opacity:1; 
stroke-linecap:round; stroke-linejoin:round;">
<circle cx="6.9345" cy="4.8500" r="0.2500" /> 
</g>
<g style="fill:#000000; fill-opacity:1.0000; 
stroke:#000000; stroke-width:0.0212; stroke-opacity:1; 
stroke-linecap:round; stroke-linejoin:round;">
</g>
<g style="fill:#000000; fill-opacity:1.0000; 
stroke:#000000; stroke-width:0.0000; stroke-opacity:1; 
stroke-linecap:round; stroke-linejoin:round;">
<circle cx="6.9345" cy="7.2500" r="1.6000" /> 
</g>
<g style="fill:#000000; fill-opacity:1.0000; 
stroke:#000000; stroke-width:0.0212; stroke-opacity:1; 
stroke-linecap:round; stroke-linejoin:round;">
</g>
<g style="fill:#000000; fill-opacity:1.0000; 
stroke:#000000; stroke-width:0.0000; stroke-opacity:1; 
stroke-linecap:round; stroke-linejoin:round;">
<circle cx="6.9345" cy="9.6500" r="0.2500" /> 
</g>
<g style="fill:#000000; fill-opacity:1.0000; 
stroke:#000000; stroke-width:0.0212; stroke-opacity:1; 
stroke-linecap:round; stroke-linejoin:round;">
</g>
<g style="fill:#000000; fill-opacity:1.0000; 
stroke:#000000; stroke-width:0.0000; stroke-opacity:1; 
stroke-linecap:round; stroke-linejoin:round;">
<circle cx="8.6316" cy="5.5529" r="0.2500" /> 
</g>
<g style="fill:#000000; fill-opacity:1.0000; 
stroke:#000000; stroke-width:0.0212; stroke-opacity:1; 
stroke-linecap:round; stroke-linejoin:round;">
</g>
<g style="fill:#000000; fill-opacity:1.0000; 
stroke:#000000; stroke-width:0.0000; stroke-opacity:1; 
stroke-linecap:round; stroke-linejoin:round;">
<circle cx="8.6316" cy="8.9471" r="0.2500" /> 
</g>
<g style="fill:#000000; fill-opacity:1.0000; 
stroke:#000000; stroke-width:0.0212; stroke-opacity:1; 
stroke-linecap:round; stroke-linejoin:round;">
</g>
<g style="fill:#000000; fill-opacity:1.0000; 
stroke:#000000; stroke-width:0.0000; stroke-opacity:1; 
stroke-linecap:round; stroke-linejoin:round;">
<circle cx="9.3345" cy="7.2500" r="0.2500" /> 
</g>
<g style="fill:#000000; fill-opacity:1.0000; 
stroke:#000000; stroke-width:0.0212; stroke-opacity:1; 
stroke-linecap:round; stroke-linejoin:round;">
</g>
<g style="fill:#000000; fill-opacity:1.0000; 
stroke:#000000; stroke-width:0.0000; stroke-opacity:1; 
stroke-linecap:round; stroke-linejoin:round;">
<circle cx="26.5345" cy="7.2500" r="0.2500" /> 
</g>
<g style="fill:#000000; fill-opacity:1.0000; 
stroke:#000000; stroke-width:0.0212; stroke-opacity:1; 
stroke-linecap:round; stroke-linejoin:round;">
</g>
<g style="fill:#000000; fill-opacity:1.0000; 
stroke:#000000; stroke-width:0.0000; stroke-opacity:1; 
stroke-linecap:round; stroke-linejoin:round;">
<circle cx="27.2375" cy="5.5529" r="0.2500" /> 
</g>
<g style="fill:#000000; fill-opacity:1.0000; 
stroke:#000000; stroke-width:0.0212; stroke-opacity:1; 
stroke-linecap:round; stroke-linejoin:round;">
</g>
<g style="fill:#000000; fill-opacity:1.0000; 
stroke:#000000; stroke-width:0.0000; stroke-opacity:1; 
stroke-linecap:round; stroke-linejoin:round;">
<circle cx="27.2375" cy="8.9471" r="0.2500" /> 
</g>
<g style="fill:#000000; fill-opacity:1.0000; 
stroke:#000000; stroke-width:0.0212; stroke-opacity:1; 
stroke-linecap:round; stroke-linejoin:round;">
</g>
<g style="fill:#000000; fill-opacity:1.0000; 
stroke:#000000; stroke-width:0.0000; stroke-opacity:1; 
stroke-linecap:round; stroke-linejoin:round;">
<circle cx="28.9345" cy="4.8500" r="0.2500" /> 
</g>
<g style="fill:#000000; fill-opacity:1.0000; 
stroke:#000000; stroke-width:0.0212; stroke-opacity:1; 
stroke-linecap:round; stroke-linejoin:round;">
</g>
<g style="fill:#000000; fill-opacity:1.0000; 
stroke:#000000; stroke-width:0.0000; stroke-opacity:1; 
stroke-linecap:round; stroke-linejoin:round;">
<circle cx="28.9345" cy="7.2500" r="1.6000" /> 
</g>
<g style="fill:#000000; fill-opacity:1.0000; 
stroke:#000000; stroke-width:0.0212; stroke-opacity:1; 
stroke-linecap:round; stroke-linejoin:round;">
</g>
<g style="fill:#000000; fill-opacity:1.0000; 
stroke:#000000; stroke-width:0.0000; stroke-opacity:1; 
stroke-linecap:round; stroke-linejoin:round;">
<circle cx="28.9345" cy="9.6500" r="0.2500" /> 
</g>
<g style="fill:#000000; fill-opacity:1.0000; 
stroke:#000000; stroke-width:0.0212; stroke-opacity:1; 
stroke-linecap:round; stroke-linejoin:round;">
</g>
<g style="fill:#000000; fill-opacity:1.0000; 
stroke:#000000; stroke-width:0.0000; stroke-opacity:1; 
stroke-linecap:round; stroke-linejoin:round;">
<circle cx="30.6316" cy="5.5529" r="0.2500" /> 
</g>
<g style="fill:#000000; fill-opacity:1.0000; 
stroke:#000000; stroke-width:0.0212; stroke-opacity:1; 
stroke-linecap:round; stroke-linejoin:round;">
</g>
<g style="fill:#000000; fill-opacity:1.0000; 
stroke:#000000; stroke-width:0.0000; stroke-opacity:1; 
stroke-linecap:round; stroke-linejoin:round;">
<circle cx="30.6316" cy="8.9471" r="0.2500" /> 
</g>
<g style="fill:#000000; fill-opacity:1.0000; 
stroke:#000000; stroke-width:0.0212; stroke-opacity:1; 
stroke-linecap:round; stroke-linejoin:round;">
</g>
<g style="fill:#000000; fill-opacity:1.0000; 
stroke:#000000; stroke-width:0.0000; stroke-opacity:1; 
stroke-linecap:round; stroke-linejoin:round;">
<circle cx="31.3345" cy="7.2500" r="0.2500" /> 
</g>
<g style="fill:#000000; fill-opacity:1.0000; 
stroke:#000000; stroke-width:0.0212; stroke-opacity:1; 
stroke-linecap:round; stroke-linejoin:round;">
</g>
<g style="fill:#000000; fill-opacity:1.0000; 
stroke:#000000; stroke-width:0.0000; stroke-opacity:1; 
stroke-linecap:round; stroke-linejoin:round;">
<circle cx="15.6845" cy="10.5000" r="0.5500" /> 
</g>
<g style="fill:#000000; fill-opacity:1.0000; 
stroke:#000000; stroke-width:0.0212; stroke-opacity:1; 
stroke-linecap:round; stroke-linejoin:round;">
</g>
<g style="fill:#000000; fill-opacity:1.0000; 
stroke:#000000; stroke-width:0.0000; stroke-opacity:1; 
stroke-linecap:round; stroke-linejoin:round;">
<circle cx="15.6845" cy="4.0000" r="0.5500" /> 
</g>
<g style="fill:#000000; fill-opacity:1.0000; 
stroke:#000000; stroke-width:0.0212; stroke-opacity:1; 
stroke-linecap:round; stroke-linejoin:round;">
</g>
<g style="fill:#000000; fill-opacity:1.0000; 
stroke:#000000; stroke-width:0.0000; stroke-opacity:1; 
stroke-linecap:round; stroke-linejoin:round;">
<circle cx="20.1845" cy="10.5000" r="0.5500" /> 
</g>
<g style="fill:#000000; fill-opacity:1.0000; 
stroke:#000000; stroke-width:0.0212; stroke-opacity:1; 
stroke-linecap:round; stroke-linejoin:round;">
</g>
<g style="fill:#000000; fill-opacity:1.0000; 
stroke:#000000; stroke-width:0.0000; stroke-opacity:1; 
stroke-linecap:round; stroke-linejoin:round;">
<circle cx="20.1845" cy="4.0000" r="0.5500" /> 
</g>
<g style="fill:#000000; fill-opacity:1.0000; 
stroke:#000000; stroke-width:0.0212; stroke-opacity:1; 
stroke-linecap:round; stroke-linejoin:round;">
</g>
<g style="fill:#FFFFFF; fill-opacity:1.0000; 
stroke:#FFFFFF; stroke-width:0.0212; stroke-opacity:1; 
stroke-linecap:round; stroke-linejoin:round;">
</g>
<g style="fill:#2F2D31; fill-opacity:1.0000; 
stroke:#2F2D31; stroke-width:0.0212; stroke-opacity:1; 
stroke-linecap:round; stroke-linejoin:round;">
</g>
<g style="fill:#2F2D31; fill-opacity:1.0000; 
stroke:#2F2D31; stroke-width:0.2000; stroke-opacity:1; 
stroke-linecap:round; stroke-linejoin:round;">
</g>
<g style="fill:#2F2D31; fill-opacity:0.0; 
stroke:#2F2D31; stroke-width:0.2000; stroke-opacity:1; 
stroke-linecap:round; stroke-linejoin:round;">
<path d="M16.5689 0.3845
L15.9025 0.5514
" />
<path d="M5.7978 10.9972
L15.9025 13.9486
" />
<path d="M18.6206 14.2163
L19.3002 14.1155
" />
<path d="M32.1904 9.4255
L32.3879 9.0959
" />
<path d="M5.4360 3.6322
L5.0886 3.7965
" />
<path d="M3.0939 6.4861
L3.0375 6.8662
" />
<path d="M19.9665 0.5514
L19.3002 0.3845
" />
<path d="M17.9345 14.2500
L18.6206 14.2163
" />
<path d="M3.9075 9.7342
L4.1656 10.0189
" />
<path d="M31.7034 10.0189
L31.9615 9.7342
" />
<path d="M3.1873 6.1133
L3.0939 6.4861
" />
<path d="M30.7804 3.7965
L30.4330 3.6322
" />
<path d="M4.7590 10.5059
L5.0886 10.7035
" />
<path d="M18.6206 0.2837
L17.9345 0.2500
" />
<path d="M32.6817 6.1133
L32.5523 5.7515
" />
<path d="M3.6786 9.4255
L3.9075 9.7342
" />
<path d="M17.9345 0.2500
L17.2484 0.2837
" />
<path d="M32.6817 8.3867
L32.7751 8.0139
" />
<path d="M3.3167 8.7485
L3.4811 9.0959
" />
<path d="M30.0712 3.5028
L19.9665 0.5514
" />
<path d="M3.1873 8.3867
L3.3167 8.7485
" />
<path d="M3.0375 6.8662
L3.0187 7.2500
" />
<path d="M31.1100 3.9941
L30.7804 3.7965
" />
<path d="M32.7751 8.0139
L32.8315 7.6338
" />
<path d="M31.7034 4.4811
L31.4187 4.2230
" />
<path d="M32.8315 6.8662
L32.7751 6.4861
" />
<path d="M19.3002 0.3845
L18.6206 0.2837
" />
<path d="M32.8315 7.6338
L32.8503 7.2500
" />
<path d="M31.4187 4.2230
L31.1100 3.9941
" />
<path d="M3.4811 9.0959
L3.6786 9.4255
" />
<path d="M32.7751 6.4861
L32.6817 6.1133
" />
<path d="M30.7804 10.7035
L31.1100 10.5059
" />
<path d="M17.2484 14.2163
L17.9345 14.2500
" />
<path d="M31.9615 9.7342
L32.1904 9.4255
" />
<path d="M17.2484 0.2837
L16.5689 0.3845
" />
<path d="M19.3002 14.1155
L19.9665 13.9486
" />
<path d="M32.3879 5.4041
L32.1904 5.0745
" />
<path d="M3.3167 5.7515
L3.1873 6.1133
" />
<path d="M4.1656 4.4811
L3.9075 4.7658
" />
<path d="M4.1656 10.0189
L4.4503 10.2770
" />
<path d="M3.9075 4.7658
L3.6786 5.0745
" />
<path d="M19.9665 13.9486
L30.0712 10.9972
" />
<path d="M31.4187 10.2770
L31.7034 10.0189
" />
<path d="M4.4503 4.2230
L4.1656 4.4811
" />
<path d="M31.1100 10.5059
L31.4187 10.2770
" />
<path d="M5.4360 10.8677
L5.7978 10.9972
" />
<path d="M3.4811 5.4041
L3.3167 5.7515
" />
<path d="M30.4330 3.6322
L30.0712 3.5028
" />
<path d="M4.4503 10.2770
L4.7590 10.5059
" />
<path d="M5.0886 3.7965
L4.7590 3.9941
" />
<path d="M30.4330 10.8677
L30.7804 10.7035
" />
<path d="M15.9025 0.5514
L5.7978 3.5028
" />
<path d="M3.6786 5.0745
L3.4811 5.4041
" />
<path d="M32.3879 9.0959
L32.5523 8.7485
" />
<path d="M16.5689 14.1155
L17.2484 14.2163
" />
<path d="M31.9615 4.7658
L31.7034 4.4811
" />
<path d="M32.8503 7.2500
L32.8315 6.8662
" />
<path d="M15.9025 13.9486
L16.5689 14.1155
" />
<path d="M30.0712 10.9972
L30.4330 10.8677
" />
<path d="M32.5523 5.7515
L32.3879 5.4041
" />
<path d="M3.0375 7.6338
L3.0939 8.0139
" />
<path d="M5.7978 3.5028
L5.4360 3.6322
" />
<path d="M32.5523 8.7485
L32.6817 8.3867
" />
<path d="M32.1904 5.0745
L31.9615 4.7658
" />
<path d="M3.0187 7.2500
L3.0375 7.6338
" />
<path d="M5.0886 10.7035
L5.4360 10.8677
" />
<path d="M3.0939 8.0139
L3.1873 8.3867
" />
<path d="M4.7590 3.9941
L4.4503 4.2230
" />
<g >
</g>
<g >
</g>
<g >
</g>
<g >
</g>
<g >
</g>
<g >
</g>
</g> 
</svg>
