<?xml version="1.0" standalone="no"?>
 <!DOCTYPE svg PUBLIC "-//W3C//DTD SVG 1.1//EN" 
 "http://www.w3.org/Graphics/SVG/1.1/DTD/svg11.dtd"> 
<svg
  xmlns:svg="http://www.w3.org/2000/svg"
  xmlns="http://www.w3.org/2000/svg"
  xmlns:xlink="http://www.w3.org/1999/xlink"
  version="1.1"
  width="35.8648mm" height="14.4780mm" viewBox="0.0000 0.0000 35.8648 14.4780">
<title>SVG Image created as working-brd.svg date 2023/09/28 19:43:54 </title>
  <desc>Image generated by PCBNEW </desc>
<g style="fill:#000000; fill-opacity:1.0000;stroke:#000000; stroke-opacity:1.0000;
stroke-linecap:round; stroke-linejoin:round;"
 transform="translate(0 0) scale(1 1)">
</g>
<g style="fill:#000000; fill-opacity:0.0; 
stroke:#000000; stroke-width:0.0000; stroke-opacity:1; 
stroke-linecap:round; stroke-linejoin:round;">
</g>
<g style="fill:#000000; fill-opacity:1.0000; 
stroke:#000000; stroke-width:0.0212; stroke-opacity:1; 
stroke-linecap:round; stroke-linejoin:round;">
<rect x="-5.000000" y="-5.000000" width="45.869049" height="24.500000" rx="0.000000" />
</g>
<g style="fill:#FFFFFF; fill-opacity:1.0000; 
stroke:#FFFFFF; stroke-width:0.0212; stroke-opacity:1; 
stroke-linecap:round; stroke-linejoin:round;">
<g >
</g>
<g style="fill:#B2803A; fill-opacity:1.0000; 
stroke:#B2803A; stroke-width:0.0212; stroke-opacity:1; 
stroke-linecap:round; stroke-linejoin:round;">
</g>
<g style="fill:#B2803A; fill-opacity:1.0000; 
stroke:#B2803A; stroke-width:0.0000; stroke-opacity:1; 
stroke-linecap:round; stroke-linejoin:round;">
<circle cx="4.5345" cy="7.2500" r="0.4000" /> 
</g>
<g style="fill:#B2803A; fill-opacity:1.0000; 
stroke:#B2803A; stroke-width:0.0212; stroke-opacity:1; 
stroke-linecap:round; stroke-linejoin:round;">
</g>
<g style="fill:#B2803A; fill-opacity:1.0000; 
stroke:#B2803A; stroke-width:0.0000; stroke-opacity:1; 
stroke-linecap:round; stroke-linejoin:round;">
<circle cx="5.2375" cy="5.5529" r="0.4000" /> 
</g>
<g style="fill:#B2803A; fill-opacity:1.0000; 
stroke:#B2803A; stroke-width:0.0212; stroke-opacity:1; 
stroke-linecap:round; stroke-linejoin:round;">
</g>
<g style="fill:#B2803A; fill-opacity:1.0000; 
stroke:#B2803A; stroke-width:0.0000; stroke-opacity:1; 
stroke-linecap:round; stroke-linejoin:round;">
<circle cx="5.2375" cy="8.9471" r="0.4000" /> 
</g>
<g style="fill:#B2803A; fill-opacity:1.0000; 
stroke:#B2803A; stroke-width:0.0212; stroke-opacity:1; 
stroke-linecap:round; stroke-linejoin:round;">
</g>
<g style="fill:#B2803A; fill-opacity:1.0000; 
stroke:#B2803A; stroke-width:0.0000; stroke-opacity:1; 
stroke-linecap:round; stroke-linejoin:round;">
<circle cx="6.9345" cy="4.8500" r="0.4000" /> 
</g>
<g style="fill:#B2803A; fill-opacity:1.0000; 
stroke:#B2803A; stroke-width:0.0212; stroke-opacity:1; 
stroke-linecap:round; stroke-linejoin:round;">
</g>
<g style="fill:#B2803A; fill-opacity:1.0000; 
stroke:#B2803A; stroke-width:0.0000; stroke-opacity:1; 
stroke-linecap:round; stroke-linejoin:round;">
<circle cx="6.9345" cy="7.2500" r="3.2000" /> 
</g>
<g style="fill:#B2803A; fill-opacity:1.0000; 
stroke:#B2803A; stroke-width:0.0212; stroke-opacity:1; 
stroke-linecap:round; stroke-linejoin:round;">
</g>
<g style="fill:#B2803A; fill-opacity:1.0000; 
stroke:#B2803A; stroke-width:0.0000; stroke-opacity:1; 
stroke-linecap:round; stroke-linejoin:round;">
<circle cx="6.9345" cy="9.6500" r="0.4000" /> 
</g>
<g style="fill:#B2803A; fill-opacity:1.0000; 
stroke:#B2803A; stroke-width:0.0212; stroke-opacity:1; 
stroke-linecap:round; stroke-linejoin:round;">
</g>
<g style="fill:#B2803A; fill-opacity:1.0000; 
stroke:#B2803A; stroke-width:0.0000; stroke-opacity:1; 
stroke-linecap:round; stroke-linejoin:round;">
<circle cx="8.6316" cy="5.5529" r="0.4000" /> 
</g>
<g style="fill:#B2803A; fill-opacity:1.0000; 
stroke:#B2803A; stroke-width:0.0212; stroke-opacity:1; 
stroke-linecap:round; stroke-linejoin:round;">
</g>
<g style="fill:#B2803A; fill-opacity:1.0000; 
stroke:#B2803A; stroke-width:0.0000; stroke-opacity:1; 
stroke-linecap:round; stroke-linejoin:round;">
<circle cx="8.6316" cy="8.9471" r="0.4000" /> 
</g>
<g style="fill:#B2803A; fill-opacity:1.0000; 
stroke:#B2803A; stroke-width:0.0212; stroke-opacity:1; 
stroke-linecap:round; stroke-linejoin:round;">
</g>
<g style="fill:#B2803A; fill-opacity:1.0000; 
stroke:#B2803A; stroke-width:0.0000; stroke-opacity:1; 
stroke-linecap:round; stroke-linejoin:round;">
<circle cx="9.3345" cy="7.2500" r="0.4000" /> 
</g>
<g style="fill:#B2803A; fill-opacity:1.0000; 
stroke:#B2803A; stroke-width:0.0212; stroke-opacity:1; 
stroke-linecap:round; stroke-linejoin:round;">
</g>
<g >
</g>
<g style="fill:#B2803A; fill-opacity:1.0000; 
stroke:#B2803A; stroke-width:0.0212; stroke-opacity:1; 
stroke-linecap:round; stroke-linejoin:round;">
</g>
<g style="fill:#B2803A; fill-opacity:1.0000; 
stroke:#B2803A; stroke-width:0.0000; stroke-opacity:1; 
stroke-linecap:round; stroke-linejoin:round;">
<circle cx="26.5345" cy="7.2500" r="0.4000" /> 
</g>
<g style="fill:#B2803A; fill-opacity:1.0000; 
stroke:#B2803A; stroke-width:0.0212; stroke-opacity:1; 
stroke-linecap:round; stroke-linejoin:round;">
</g>
<g style="fill:#B2803A; fill-opacity:1.0000; 
stroke:#B2803A; stroke-width:0.0000; stroke-opacity:1; 
stroke-linecap:round; stroke-linejoin:round;">
<circle cx="27.2375" cy="5.5529" r="0.4000" /> 
</g>
<g style="fill:#B2803A; fill-opacity:1.0000; 
stroke:#B2803A; stroke-width:0.0212; stroke-opacity:1; 
stroke-linecap:round; stroke-linejoin:round;">
</g>
<g style="fill:#B2803A; fill-opacity:1.0000; 
stroke:#B2803A; stroke-width:0.0000; stroke-opacity:1; 
stroke-linecap:round; stroke-linejoin:round;">
<circle cx="27.2375" cy="8.9471" r="0.4000" /> 
</g>
<g style="fill:#B2803A; fill-opacity:1.0000; 
stroke:#B2803A; stroke-width:0.0212; stroke-opacity:1; 
stroke-linecap:round; stroke-linejoin:round;">
</g>
<g style="fill:#B2803A; fill-opacity:1.0000; 
stroke:#B2803A; stroke-width:0.0000; stroke-opacity:1; 
stroke-linecap:round; stroke-linejoin:round;">
<circle cx="28.9345" cy="4.8500" r="0.4000" /> 
</g>
<g style="fill:#B2803A; fill-opacity:1.0000; 
stroke:#B2803A; stroke-width:0.0212; stroke-opacity:1; 
stroke-linecap:round; stroke-linejoin:round;">
</g>
<g style="fill:#B2803A; fill-opacity:1.0000; 
stroke:#B2803A; stroke-width:0.0000; stroke-opacity:1; 
stroke-linecap:round; stroke-linejoin:round;">
<circle cx="28.9345" cy="7.2500" r="3.2000" /> 
</g>
<g style="fill:#B2803A; fill-opacity:1.0000; 
stroke:#B2803A; stroke-width:0.0212; stroke-opacity:1; 
stroke-linecap:round; stroke-linejoin:round;">
</g>
<g style="fill:#B2803A; fill-opacity:1.0000; 
stroke:#B2803A; stroke-width:0.0000; stroke-opacity:1; 
stroke-linecap:round; stroke-linejoin:round;">
<circle cx="28.9345" cy="9.6500" r="0.4000" /> 
</g>
<g style="fill:#B2803A; fill-opacity:1.0000; 
stroke:#B2803A; stroke-width:0.0212; stroke-opacity:1; 
stroke-linecap:round; stroke-linejoin:round;">
</g>
<g style="fill:#B2803A; fill-opacity:1.0000; 
stroke:#B2803A; stroke-width:0.0000; stroke-opacity:1; 
stroke-linecap:round; stroke-linejoin:round;">
<circle cx="30.6316" cy="5.5529" r="0.4000" /> 
</g>
<g style="fill:#B2803A; fill-opacity:1.0000; 
stroke:#B2803A; stroke-width:0.0212; stroke-opacity:1; 
stroke-linecap:round; stroke-linejoin:round;">
</g>
<g style="fill:#B2803A; fill-opacity:1.0000; 
stroke:#B2803A; stroke-width:0.0000; stroke-opacity:1; 
stroke-linecap:round; stroke-linejoin:round;">
<circle cx="30.6316" cy="8.9471" r="0.4000" /> 
</g>
<g style="fill:#B2803A; fill-opacity:1.0000; 
stroke:#B2803A; stroke-width:0.0212; stroke-opacity:1; 
stroke-linecap:round; stroke-linejoin:round;">
</g>
<g style="fill:#B2803A; fill-opacity:1.0000; 
stroke:#B2803A; stroke-width:0.0000; stroke-opacity:1; 
stroke-linecap:round; stroke-linejoin:round;">
<circle cx="31.3345" cy="7.2500" r="0.4000" /> 
</g>
<g style="fill:#B2803A; fill-opacity:1.0000; 
stroke:#B2803A; stroke-width:0.0212; stroke-opacity:1; 
stroke-linecap:round; stroke-linejoin:round;">
</g>
<g >
</g>
<g style="fill:#B2803A; fill-opacity:1.0000; 
stroke:#B2803A; stroke-width:0.0212; stroke-opacity:1; 
stroke-linecap:round; stroke-linejoin:round;">
</g>
<g style="fill:#B2803A; fill-opacity:1.0000; 
stroke:#B2803A; stroke-width:0.0000; stroke-opacity:1; 
stroke-linecap:round; stroke-linejoin:round;">
<circle cx="15.6845" cy="10.5000" r="1.0000" /> 
</g>
<g style="fill:#B2803A; fill-opacity:1.0000; 
stroke:#B2803A; stroke-width:0.0212; stroke-opacity:1; 
stroke-linecap:round; stroke-linejoin:round;">
</g>
<g style="fill:#B2803A; fill-opacity:1.0000; 
stroke:#B2803A; stroke-width:0.0000; stroke-opacity:1; 
stroke-linecap:round; stroke-linejoin:round;">
<circle cx="15.6845" cy="4.0000" r="1.0000" /> 
</g>
<g style="fill:#B2803A; fill-opacity:1.0000; 
stroke:#B2803A; stroke-width:0.0212; stroke-opacity:1; 
stroke-linecap:round; stroke-linejoin:round;">
</g>
<g style="fill:#B2803A; fill-opacity:1.0000; 
stroke:#B2803A; stroke-width:0.0000; stroke-opacity:1; 
stroke-linecap:round; stroke-linejoin:round;">
<circle cx="20.1845" cy="10.5000" r="1.0000" /> 
</g>
<g style="fill:#B2803A; fill-opacity:1.0000; 
stroke:#B2803A; stroke-width:0.0212; stroke-opacity:1; 
stroke-linecap:round; stroke-linejoin:round;">
</g>
<g style="fill:#B2803A; fill-opacity:1.0000; 
stroke:#B2803A; stroke-width:0.0000; stroke-opacity:1; 
stroke-linecap:round; stroke-linejoin:round;">
<circle cx="20.1845" cy="4.0000" r="1.0000" /> 
</g>
<g style="fill:#B2803A; fill-opacity:1.0000; 
stroke:#B2803A; stroke-width:0.0212; stroke-opacity:1; 
stroke-linecap:round; stroke-linejoin:round;">
</g>
<g >
</g>
<g >
</g>
<g >
</g>
<g style="fill:#B2803A; fill-opacity:1.0000; 
stroke:#B2803A; stroke-width:0.0212; stroke-opacity:1; 
stroke-linecap:round; stroke-linejoin:round;">
<g >
</g>
<g style="fill:#B2803A; fill-opacity:1.0000; 
stroke:#B2803A; stroke-width:0.0000; stroke-opacity:1; 
stroke-linecap:round; stroke-linejoin:round;">
<path style="fill:#B2803A; fill-opacity:1.0000; 
stroke:#B2803A; stroke-width:0.0000; stroke-opacity:1; 
stroke-linecap:round; stroke-linejoin:round;fill-rule:evenodd;"
d="M 19.2775,0.4827
19.2835,0.4839
19.9402,0.6484
28.9865,3.2907
29.0463,3.3290
29.0759,3.3935
29.0659,3.4638
29.0194,3.5175
28.9514,3.5376
28.9446,3.5374
28.9345,3.5369
28.5464,3.5572
28.1625,3.6181
27.7871,3.7186
27.4243,3.8579
27.4243,3.8579
27.0780,4.0344
26.7520,4.2460
26.4966,4.4529
27.1640,5.1203
27.1980,5.1826
27.1930,5.2534
27.1504,5.3102
27.1449,5.3141
27.0572,5.3727
26.9986,5.4604
26.9442,5.5059
26.8737,5.5148
26.8097,5.4841
26.8048,5.4795
26.1374,4.8121
25.9306,5.0675
25.7189,5.3935
25.5424,5.7398
25.5424,5.7398
25.4032,6.1026
25.3026,6.4780
25.2418,6.8619
25.2214,7.2500
25.2214,7.2500
25.2418,7.6381
25.3026,8.0220
25.4032,8.3974
25.5424,8.7602
25.5424,8.7602
25.7189,9.1065
25.7189,9.1065
25.9306,9.4325
25.9306,9.4325
26.1374,9.6879
26.8048,9.0205
26.8671,8.9865
26.9379,8.9916
26.9947,9.0341
26.9986,9.0396
27.0572,9.1273
27.1449,9.1859
27.1904,9.2404
27.1993,9.3108
27.1686,9.3748
27.1640,9.3797
26.4966,10.0471
26.4966,10.0471
26.7520,10.2539
26.7520,10.2540
27.0780,10.4656
27.0780,10.4656
27.4243,10.6421
27.4243,10.6421
27.7871,10.7814
28.1625,10.8819
28.5464,10.9427
28.9345,10.9631
28.9345,10.9631
28.9446,10.9626
29.0136,10.9790
29.0629,11.0301
29.0767,11.0998
29.0506,11.1658
28.9930,11.2073
28.9865,11.2093
19.9402,13.8516
19.2835,14.0160
19.2775,14.0173
19.2505,14.0213
18.8290,14.0838
18.7587,14.0740
18.7048,14.0277
18.6845,13.9597
18.6845,13.9591
18.6845,11.3851
18.7045,11.3170
18.7582,11.2705
18.8285,11.2604
18.8930,11.2899
18.9180,11.3193
18.9514,11.3739
19.5321,10.7932
19.5945,10.7591
19.6653,10.7642
19.7221,10.8068
19.7269,10.8144
19.7310,10.8202
19.8342,10.9307
19.8706,10.9528
19.9184,11.0053
19.9302,11.0753
19.9023,11.1406
19.8942,11.1495
19.3106,11.7331
19.3106,11.7331
19.4978,11.8478
19.7171,11.9386
19.9479,11.9940
20.1845,12.0127
20.4212,11.9940
20.6520,11.9386
20.8713,11.8478
21.0584,11.7331
21.0584,11.7331
20.4761,11.1508
20.4421,11.0885
20.4472,11.0177
20.4857,10.9640
20.5903,10.8789
20.6415,10.8063
20.6972,10.7622
20.7678,10.7551
20.8311,10.7874
20.8336,10.7898
21.4176,11.3739
21.4176,11.3739
21.5323,11.1867
21.6232,10.9674
21.6786,10.7366
21.6972,10.5000
21.6786,10.2634
21.6232,10.0326
21.5323,9.8133
21.4176,9.6261
21.4176,9.6261
20.8369,10.2068
20.7746,10.2409
20.7038,10.2358
20.6469,10.1932
20.6422,10.1856
20.6381,10.1798
20.6381,10.1798
20.5349,10.0693
20.5349,10.0693
20.4985,10.0472
20.4507,9.9947
20.4388,9.9247
20.4667,9.8594
20.4749,9.8505
21.0584,9.2669
20.8713,9.1522
20.6520,9.0614
20.4212,9.0060
20.1845,8.9873
19.9479,9.0060
19.7171,9.0614
19.4978,9.1522
19.3106,9.2669
19.3106,9.2669
19.8929,9.8492
19.9269,9.9115
19.9219,9.9823
19.8833,10.0360
19.7788,10.1211
19.7788,10.1211
19.7275,10.1937
19.6719,10.2378
19.6012,10.2449
19.5380,10.2126
19.5355,10.2102
18.9514,9.6261
18.9514,9.6261
18.9180,9.6807
18.8653,9.7283
18.7953,9.7400
18.7301,9.7119
18.6904,9.6530
18.6845,9.6149
18.6845,4.8851
18.7045,4.8170
18.7582,4.7705
18.8285,4.7604
18.8930,4.7899
18.9180,4.8193
18.9514,4.8739
19.5321,4.2932
19.5945,4.2591
19.6653,4.2642
19.7221,4.3068
19.7269,4.3144
19.7310,4.3202
19.8342,4.4307
19.8706,4.4528
19.9184,4.5053
19.9302,4.5753
19.9023,4.6406
19.8942,4.6495
19.3106,5.2331
19.3106,5.2331
19.4978,5.3478
19.7171,5.4386
19.9479,5.4940
20.1845,5.5127
20.4212,5.4940
20.6520,5.4386
20.8713,5.3478
21.0584,5.2331
21.0584,5.2331
20.4761,4.6508
20.4421,4.5885
20.4472,4.5177
20.4857,4.4640
20.5903,4.3789
20.6415,4.3063
20.6972,4.2622
20.7678,4.2551
20.8311,4.2874
20.8336,4.2898
21.4176,4.8739
21.4176,4.8739
21.5323,4.6867
21.6232,4.4674
21.6786,4.2366
21.6972,4.0000
21.6786,3.7634
21.6232,3.5326
21.5323,3.3133
21.4176,3.1261
21.4176,3.1261
20.8369,3.7068
20.7746,3.7409
20.7038,3.7358
20.6469,3.6932
20.6422,3.6856
20.6381,3.6798
20.6381,3.6798
20.5349,3.5693
20.5349,3.5693
20.4985,3.5472
20.4507,3.4947
20.4388,3.4247
20.4667,3.3594
20.4749,3.3505
21.0584,2.7669
20.8713,2.6522
20.6520,2.5614
20.4212,2.5060
20.1845,2.4873
19.9479,2.5060
19.7171,2.5614
19.4978,2.6522
19.3106,2.7669
19.3106,2.7669
19.8929,3.3492
19.9269,3.4115
19.9219,3.4823
19.8833,3.5360
19.7788,3.6211
19.7788,3.6211
19.7275,3.6937
19.6719,3.7378
19.6012,3.7449
19.5380,3.7126
19.5355,3.7102
18.9514,3.1261
18.9514,3.1261
18.9180,3.1807
18.8653,3.2283
18.7953,3.2400
18.7301,3.2119
18.6904,3.1530
18.6845,3.1149
18.6845,0.5409
18.7045,0.4727
18.7582,0.4262
18.8285,0.4161
Z" /> 
<path style="fill:#B2803A; fill-opacity:1.0000; 
stroke:#B2803A; stroke-width:0.0000; stroke-opacity:1; 
stroke-linecap:round; stroke-linejoin:round;fill-rule:evenodd;"
d="M 27.6709,8.2585
27.7227,8.2948
27.7763,8.3575
27.7997,8.3849
27.8897,8.4618
27.9286,8.5213
27.9291,8.5923
27.8970,8.6467
27.6701,8.8736
27.6078,8.9076
27.5370,8.9025
27.4802,8.8600
27.4763,8.8545
27.4730,8.8495
27.4730,8.8495
27.4177,8.7668
27.4177,8.7668
27.4177,8.7668
27.3300,8.7082
27.2845,8.6538
27.2757,8.5833
27.3063,8.5193
27.3109,8.5144
27.5378,8.2875
27.6001,8.2535
Z" /> 
<path style="fill:#B2803A; fill-opacity:1.0000; 
stroke:#B2803A; stroke-width:0.0000; stroke-opacity:1; 
stroke-linecap:round; stroke-linejoin:round;fill-rule:evenodd;"
d="M 27.6653,5.6218
27.6701,5.6264
27.8970,5.8533
27.9310,5.9156
27.9260,5.9864
27.8897,6.0382
27.7997,6.1151
27.7227,6.2052
27.6633,6.2440
27.5923,6.2445
27.5378,6.2125
27.3109,5.9856
27.2769,5.9233
27.2820,5.8525
27.3245,5.7957
27.3300,5.7918
27.3350,5.7884
27.3350,5.7884
27.4177,5.7332
27.4730,5.6505
27.4730,5.6505
27.4763,5.6455
27.5308,5.6000
27.6012,5.5911
Z" /> 
</g>
</g>
<g style="fill:#B2803A; fill-opacity:1.0000; 
stroke:#B2803A; stroke-width:0.0000; stroke-opacity:1; 
stroke-linecap:round; stroke-linejoin:round;">
<g >
<path style="fill:#B2803A; fill-opacity:1.0000; 
stroke:#B2803A; stroke-width:0.0000; stroke-opacity:1; 
stroke-linecap:round; stroke-linejoin:round;fill-rule:evenodd;"
d="M 17.1104,0.4260
17.1642,0.4723
17.1845,0.5403
17.1845,0.5409
17.1845,3.1149
17.1645,3.1830
17.1109,3.2295
17.0406,3.2396
16.9760,3.2101
16.9511,3.1807
16.9176,3.1261
16.9176,3.1261
16.3369,3.7068
16.2746,3.7409
16.2038,3.7358
16.1469,3.6932
16.1422,3.6856
16.1381,3.6798
16.1381,3.6798
16.0349,3.5693
16.0349,3.5693
15.9985,3.5472
15.9507,3.4947
15.9388,3.4247
15.9667,3.3594
15.9749,3.3505
16.5584,2.7669
16.3713,2.6522
16.1520,2.5614
15.9212,2.5060
15.6845,2.4873
15.4479,2.5060
15.2171,2.5614
14.9978,2.6522
14.8106,2.7669
14.8106,2.7669
15.3929,3.3492
15.4269,3.4115
15.4219,3.4823
15.3833,3.5360
15.2788,3.6211
15.2788,3.6211
15.2275,3.6937
15.1719,3.7378
15.1012,3.7449
15.0380,3.7126
15.0355,3.7102
14.4514,3.1261
14.4514,3.1261
14.3367,3.3133
14.2459,3.5326
14.1905,3.7634
14.1719,4.0000
14.1905,4.2366
14.2459,4.4674
14.3367,4.6867
14.4514,4.8739
15.0321,4.2932
15.0945,4.2591
15.1653,4.2642
15.2221,4.3068
15.2269,4.3144
15.2310,4.3202
15.3342,4.4307
15.3706,4.4528
15.4184,4.5053
15.4302,4.5753
15.4023,4.6406
15.3942,4.6495
14.8106,5.2331
14.8106,5.2331
14.9978,5.3478
15.2171,5.4386
15.4479,5.4940
15.6845,5.5127
15.9212,5.4940
16.1520,5.4386
16.3713,5.3478
16.5584,5.2331
16.5584,5.2331
15.9761,4.6508
15.9421,4.5885
15.9472,4.5177
15.9857,4.4640
16.0903,4.3789
16.1415,4.3063
16.1972,4.2622
16.2678,4.2551
16.3311,4.2874
16.3336,4.2898
16.9176,4.8739
16.9511,4.8193
17.0037,4.7717
17.0738,4.7600
17.1390,4.7881
17.1786,4.8470
17.1845,4.8851
17.1845,9.6149
17.1645,9.6830
17.1109,9.7295
17.0406,9.7396
16.9760,9.7101
16.9511,9.6807
16.9176,9.6261
16.9176,9.6261
16.3369,10.2068
16.2746,10.2409
16.2038,10.2358
16.1469,10.1932
16.1422,10.1856
16.1381,10.1798
16.1381,10.1798
16.0349,10.0693
16.0349,10.0693
15.9985,10.0472
15.9507,9.9947
15.9388,9.9247
15.9667,9.8594
15.9749,9.8505
16.5584,9.2669
16.3713,9.1522
16.1520,9.0614
15.9212,9.0060
15.6845,8.9873
15.4479,9.0060
15.2171,9.0614
14.9978,9.1522
14.8106,9.2669
14.8106,9.2669
15.3929,9.8492
15.4269,9.9115
15.4219,9.9823
15.3833,10.0360
15.2788,10.1211
15.2788,10.1211
15.2275,10.1937
15.1719,10.2378
15.1012,10.2449
15.0380,10.2126
15.0355,10.2102
14.4514,9.6261
14.4514,9.6261
14.3367,9.8133
14.2459,10.0326
14.1905,10.2634
14.1719,10.5000
14.1905,10.7366
14.2459,10.9674
14.3367,11.1867
14.4514,11.3739
15.0321,10.7932
15.0945,10.7591
15.1653,10.7642
15.2221,10.8068
15.2269,10.8144
15.2310,10.8202
15.3342,10.9307
15.3706,10.9528
15.4184,11.0053
15.4302,11.0753
15.4023,11.1406
15.3942,11.1495
14.8106,11.7331
14.8106,11.7331
14.9978,11.8478
15.2171,11.9386
15.4479,11.9940
15.6845,12.0127
15.9212,11.9940
16.1520,11.9386
16.3713,11.8478
16.5584,11.7331
16.5584,11.7331
15.9761,11.1508
15.9421,11.0885
15.9472,11.0177
15.9857,10.9640
16.0903,10.8789
16.1415,10.8063
16.1972,10.7622
16.2678,10.7551
16.3311,10.7874
16.3336,10.7898
16.9176,11.3739
16.9511,11.3193
17.0037,11.2716
17.0738,11.2600
17.1390,11.2881
17.1786,11.3470
17.1845,11.3851
17.1845,13.9591
17.1645,14.0273
17.1109,14.0737
17.0406,14.0839
17.0400,14.0838
16.6571,14.0270
16.5916,14.0173
16.5855,14.0160
15.9289,13.8516
6.8826,11.2093
6.8228,11.1710
6.7932,11.1065
6.8032,11.0362
6.8496,10.9825
6.9177,10.9624
6.9245,10.9626
6.9345,10.9631
6.9345,10.9631
7.3226,10.9427
7.7065,10.8819
8.0819,10.7814
8.4448,10.6421
8.4448,10.6421
8.7911,10.4656
8.7911,10.4656
9.1170,10.2539
9.3724,10.0471
8.7051,9.3797
8.6710,9.3174
8.6761,9.2466
8.7186,9.1898
8.7241,9.1859
8.7291,9.1826
8.7291,9.1826
8.8118,9.1273
8.8671,9.0446
8.8671,9.0446
8.8704,9.0396
8.9249,8.9941
8.9953,8.9852
9.0594,9.0159
9.0643,9.0205
9.7316,9.6879
9.9385,9.4325
10.1502,9.1065
10.1502,9.1065
10.3266,8.7602
10.3266,8.7602
10.4659,8.3974
10.5665,8.0220
10.6273,7.6381
10.6476,7.2500
10.6476,7.2500
10.6273,6.8619
10.5665,6.4780
10.4659,6.1026
10.3266,5.7398
10.3266,5.7398
10.1502,5.3935
9.9385,5.0675
9.9385,5.0675
9.7316,4.8121
9.7316,4.8121
9.0643,5.4795
9.0019,5.5135
8.9311,5.5084
8.8743,5.4659
8.8704,5.4604
8.8118,5.3727
8.7241,5.3141
8.6786,5.2596
8.6698,5.1892
8.7004,5.1252
8.7051,5.1203
9.3724,4.4529
9.1170,4.2461
9.1170,4.2460
8.7911,4.0344
8.7911,4.0344
8.4448,3.8579
8.4448,3.8579
8.0819,3.7186
7.7065,3.6181
7.3226,3.5572
6.9345,3.5369
6.9345,3.5369
6.9245,3.5374
6.8554,3.5210
6.8062,3.4699
6.7924,3.4002
6.8185,3.3342
6.8761,3.2927
6.8825,3.2907
15.9289,0.6484
16.5855,0.4839
16.5916,0.4827
17.0400,0.4162
Z" /> 
<path style="fill:#B2803A; fill-opacity:1.0000; 
stroke:#B2803A; stroke-width:0.0000; stroke-opacity:1; 
stroke-linecap:round; stroke-linejoin:round;fill-rule:evenodd;"
d="M 8.3312,8.2875
8.5581,8.5144
8.5921,8.5767
8.5871,8.6475
8.5445,8.7043
8.5390,8.7082
8.4513,8.7668
8.3928,8.8545
8.3383,8.9000
8.2678,8.9089
8.2038,8.8782
8.1989,8.8736
7.9720,8.6467
7.9380,8.5844
7.9431,8.5136
7.9793,8.4618
8.0694,8.3849
8.1463,8.2948
8.2058,8.2560
8.2768,8.2555
Z" /> 
<path style="fill:#B2803A; fill-opacity:1.0000; 
stroke:#B2803A; stroke-width:0.0000; stroke-opacity:1; 
stroke-linecap:round; stroke-linejoin:round;fill-rule:evenodd;"
d="M 8.3320,5.5975
8.3889,5.6400
8.3928,5.6455
8.4513,5.7332
8.4513,5.7332
8.4513,5.7332
8.5340,5.7884
8.5340,5.7884
8.5390,5.7918
8.5845,5.8462
8.5934,5.9167
8.5627,5.9807
8.5581,5.9856
8.3312,6.2125
8.2689,6.2465
8.1981,6.2414
8.1463,6.2052
8.0694,6.1151
8.0694,6.1151
7.9793,6.0382
7.9405,5.9787
7.9400,5.9077
7.9720,5.8533
8.1989,5.6264
8.2612,5.5924
Z" /> 
</g>
</g>
</g>
<g style="fill:#000000; fill-opacity:1.0000; 
stroke:#000000; stroke-width:0.0000; stroke-opacity:1; 
stroke-linecap:round; stroke-linejoin:round;">
<circle cx="4.5345" cy="7.2500" r="0.2500" /> 
</g>
<g style="fill:#000000; fill-opacity:1.0000; 
stroke:#000000; stroke-width:0.0212; stroke-opacity:1; 
stroke-linecap:round; stroke-linejoin:round;">
</g>
<g style="fill:#000000; fill-opacity:1.0000; 
stroke:#000000; stroke-width:0.0000; stroke-opacity:1; 
stroke-linecap:round; stroke-linejoin:round;">
<circle cx="5.2375" cy="5.5529" r="0.2500" /> 
</g>
<g style="fill:#000000; fill-opacity:1.0000; 
stroke:#000000; stroke-width:0.0212; stroke-opacity:1; 
stroke-linecap:round; stroke-linejoin:round;">
</g>
<g style="fill:#000000; fill-opacity:1.0000; 
stroke:#000000; stroke-width:0.0000; stroke-opacity:1; 
stroke-linecap:round; stroke-linejoin:round;">
<circle cx="5.2375" cy="8.9471" r="0.2500" /> 
</g>
<g style="fill:#000000; fill-opacity:1.0000; 
stroke:#000000; stroke-width:0.0212; stroke-opacity:1; 
stroke-linecap:round; stroke-linejoin:round;">
</g>
<g style="fill:#000000; fill-opacity:1.0000; 
stroke:#000000; stroke-width:0.0000; stroke-opacity:1; 
stroke-linecap:round; stroke-linejoin:round;">
<circle cx="6.9345" cy="4.8500" r="0.2500" /> 
</g>
<g style="fill:#000000; fill-opacity:1.0000; 
stroke:#000000; stroke-width:0.0212; stroke-opacity:1; 
stroke-linecap:round; stroke-linejoin:round;">
</g>
<g style="fill:#000000; fill-opacity:1.0000; 
stroke:#000000; stroke-width:0.0000; stroke-opacity:1; 
stroke-linecap:round; stroke-linejoin:round;">
<circle cx="6.9345" cy="7.2500" r="1.6000" /> 
</g>
<g style="fill:#000000; fill-opacity:1.0000; 
stroke:#000000; stroke-width:0.0212; stroke-opacity:1; 
stroke-linecap:round; stroke-linejoin:round;">
</g>
<g style="fill:#000000; fill-opacity:1.0000; 
stroke:#000000; stroke-width:0.0000; stroke-opacity:1; 
stroke-linecap:round; stroke-linejoin:round;">
<circle cx="6.9345" cy="9.6500" r="0.2500" /> 
</g>
<g style="fill:#000000; fill-opacity:1.0000; 
stroke:#000000; stroke-width:0.0212; stroke-opacity:1; 
stroke-linecap:round; stroke-linejoin:round;">
</g>
<g style="fill:#000000; fill-opacity:1.0000; 
stroke:#000000; stroke-width:0.0000; stroke-opacity:1; 
stroke-linecap:round; stroke-linejoin:round;">
<circle cx="8.6316" cy="5.5529" r="0.2500" /> 
</g>
<g style="fill:#000000; fill-opacity:1.0000; 
stroke:#000000; stroke-width:0.0212; stroke-opacity:1; 
stroke-linecap:round; stroke-linejoin:round;">
</g>
<g style="fill:#000000; fill-opacity:1.0000; 
stroke:#000000; stroke-width:0.0000; stroke-opacity:1; 
stroke-linecap:round; stroke-linejoin:round;">
<circle cx="8.6316" cy="8.9471" r="0.2500" /> 
</g>
<g style="fill:#000000; fill-opacity:1.0000; 
stroke:#000000; stroke-width:0.0212; stroke-opacity:1; 
stroke-linecap:round; stroke-linejoin:round;">
</g>
<g style="fill:#000000; fill-opacity:1.0000; 
stroke:#000000; stroke-width:0.0000; stroke-opacity:1; 
stroke-linecap:round; stroke-linejoin:round;">
<circle cx="9.3345" cy="7.2500" r="0.2500" /> 
</g>
<g style="fill:#000000; fill-opacity:1.0000; 
stroke:#000000; stroke-width:0.0212; stroke-opacity:1; 
stroke-linecap:round; stroke-linejoin:round;">
</g>
<g style="fill:#000000; fill-opacity:1.0000; 
stroke:#000000; stroke-width:0.0000; stroke-opacity:1; 
stroke-linecap:round; stroke-linejoin:round;">
<circle cx="26.5345" cy="7.2500" r="0.2500" /> 
</g>
<g style="fill:#000000; fill-opacity:1.0000; 
stroke:#000000; stroke-width:0.0212; stroke-opacity:1; 
stroke-linecap:round; stroke-linejoin:round;">
</g>
<g style="fill:#000000; fill-opacity:1.0000; 
stroke:#000000; stroke-width:0.0000; stroke-opacity:1; 
stroke-linecap:round; stroke-linejoin:round;">
<circle cx="27.2375" cy="5.5529" r="0.2500" /> 
</g>
<g style="fill:#000000; fill-opacity:1.0000; 
stroke:#000000; stroke-width:0.0212; stroke-opacity:1; 
stroke-linecap:round; stroke-linejoin:round;">
</g>
<g style="fill:#000000; fill-opacity:1.0000; 
stroke:#000000; stroke-width:0.0000; stroke-opacity:1; 
stroke-linecap:round; stroke-linejoin:round;">
<circle cx="27.2375" cy="8.9471" r="0.2500" /> 
</g>
<g style="fill:#000000; fill-opacity:1.0000; 
stroke:#000000; stroke-width:0.0212; stroke-opacity:1; 
stroke-linecap:round; stroke-linejoin:round;">
</g>
<g style="fill:#000000; fill-opacity:1.0000; 
stroke:#000000; stroke-width:0.0000; stroke-opacity:1; 
stroke-linecap:round; stroke-linejoin:round;">
<circle cx="28.9345" cy="4.8500" r="0.2500" /> 
</g>
<g style="fill:#000000; fill-opacity:1.0000; 
stroke:#000000; stroke-width:0.0212; stroke-opacity:1; 
stroke-linecap:round; stroke-linejoin:round;">
</g>
<g style="fill:#000000; fill-opacity:1.0000; 
stroke:#000000; stroke-width:0.0000; stroke-opacity:1; 
stroke-linecap:round; stroke-linejoin:round;">
<circle cx="28.9345" cy="7.2500" r="1.6000" /> 
</g>
<g style="fill:#000000; fill-opacity:1.0000; 
stroke:#000000; stroke-width:0.0212; stroke-opacity:1; 
stroke-linecap:round; stroke-linejoin:round;">
</g>
<g style="fill:#000000; fill-opacity:1.0000; 
stroke:#000000; stroke-width:0.0000; stroke-opacity:1; 
stroke-linecap:round; stroke-linejoin:round;">
<circle cx="28.9345" cy="9.6500" r="0.2500" /> 
</g>
<g style="fill:#000000; fill-opacity:1.0000; 
stroke:#000000; stroke-width:0.0212; stroke-opacity:1; 
stroke-linecap:round; stroke-linejoin:round;">
</g>
<g style="fill:#000000; fill-opacity:1.0000; 
stroke:#000000; stroke-width:0.0000; stroke-opacity:1; 
stroke-linecap:round; stroke-linejoin:round;">
<circle cx="30.6316" cy="5.5529" r="0.2500" /> 
</g>
<g style="fill:#000000; fill-opacity:1.0000; 
stroke:#000000; stroke-width:0.0212; stroke-opacity:1; 
stroke-linecap:round; stroke-linejoin:round;">
</g>
<g style="fill:#000000; fill-opacity:1.0000; 
stroke:#000000; stroke-width:0.0000; stroke-opacity:1; 
stroke-linecap:round; stroke-linejoin:round;">
<circle cx="30.6316" cy="8.9471" r="0.2500" /> 
</g>
<g style="fill:#000000; fill-opacity:1.0000; 
stroke:#000000; stroke-width:0.0212; stroke-opacity:1; 
stroke-linecap:round; stroke-linejoin:round;">
</g>
<g style="fill:#000000; fill-opacity:1.0000; 
stroke:#000000; stroke-width:0.0000; stroke-opacity:1; 
stroke-linecap:round; stroke-linejoin:round;">
<circle cx="31.3345" cy="7.2500" r="0.2500" /> 
</g>
<g style="fill:#000000; fill-opacity:1.0000; 
stroke:#000000; stroke-width:0.0212; stroke-opacity:1; 
stroke-linecap:round; stroke-linejoin:round;">
</g>
<g style="fill:#000000; fill-opacity:1.0000; 
stroke:#000000; stroke-width:0.0000; stroke-opacity:1; 
stroke-linecap:round; stroke-linejoin:round;">
<circle cx="15.6845" cy="10.5000" r="0.5500" /> 
</g>
<g style="fill:#000000; fill-opacity:1.0000; 
stroke:#000000; stroke-width:0.0212; stroke-opacity:1; 
stroke-linecap:round; stroke-linejoin:round;">
</g>
<g style="fill:#000000; fill-opacity:1.0000; 
stroke:#000000; stroke-width:0.0000; stroke-opacity:1; 
stroke-linecap:round; stroke-linejoin:round;">
<circle cx="15.6845" cy="4.0000" r="0.5500" /> 
</g>
<g style="fill:#000000; fill-opacity:1.0000; 
stroke:#000000; stroke-width:0.0212; stroke-opacity:1; 
stroke-linecap:round; stroke-linejoin:round;">
</g>
<g style="fill:#000000; fill-opacity:1.0000; 
stroke:#000000; stroke-width:0.0000; stroke-opacity:1; 
stroke-linecap:round; stroke-linejoin:round;">
<circle cx="20.1845" cy="10.5000" r="0.5500" /> 
</g>
<g style="fill:#000000; fill-opacity:1.0000; 
stroke:#000000; stroke-width:0.0212; stroke-opacity:1; 
stroke-linecap:round; stroke-linejoin:round;">
</g>
<g style="fill:#000000; fill-opacity:1.0000; 
stroke:#000000; stroke-width:0.0000; stroke-opacity:1; 
stroke-linecap:round; stroke-linejoin:round;">
<circle cx="20.1845" cy="4.0000" r="0.5500" /> 
</g>
<g style="fill:#000000; fill-opacity:1.0000; 
stroke:#000000; stroke-width:0.0212; stroke-opacity:1; 
stroke-linecap:round; stroke-linejoin:round;">
</g>
<g style="fill:#FFFFFF; fill-opacity:1.0000; 
stroke:#FFFFFF; stroke-width:0.0212; stroke-opacity:1; 
stroke-linecap:round; stroke-linejoin:round;">
<g >
</g>
<g style="fill:#37CBCB; fill-opacity:1.0000; 
stroke:#37CBCB; stroke-width:0.0212; stroke-opacity:1; 
stroke-linecap:round; stroke-linejoin:round;">
</g>
<g style="fill:#37CBCB; fill-opacity:1.0000; 
stroke:#37CBCB; stroke-width:0.0000; stroke-opacity:1; 
stroke-linecap:round; stroke-linejoin:round;">
<circle cx="4.5345" cy="7.2500" r="0.4000" /> 
</g>
<g style="fill:#37CBCB; fill-opacity:1.0000; 
stroke:#37CBCB; stroke-width:0.0212; stroke-opacity:1; 
stroke-linecap:round; stroke-linejoin:round;">
</g>
<g style="fill:#37CBCB; fill-opacity:1.0000; 
stroke:#37CBCB; stroke-width:0.0000; stroke-opacity:1; 
stroke-linecap:round; stroke-linejoin:round;">
<circle cx="5.2375" cy="5.5529" r="0.4000" /> 
</g>
<g style="fill:#37CBCB; fill-opacity:1.0000; 
stroke:#37CBCB; stroke-width:0.0212; stroke-opacity:1; 
stroke-linecap:round; stroke-linejoin:round;">
</g>
<g style="fill:#37CBCB; fill-opacity:1.0000; 
stroke:#37CBCB; stroke-width:0.0000; stroke-opacity:1; 
stroke-linecap:round; stroke-linejoin:round;">
<circle cx="5.2375" cy="8.9471" r="0.4000" /> 
</g>
<g style="fill:#37CBCB; fill-opacity:1.0000; 
stroke:#37CBCB; stroke-width:0.0212; stroke-opacity:1; 
stroke-linecap:round; stroke-linejoin:round;">
</g>
<g style="fill:#37CBCB; fill-opacity:1.0000; 
stroke:#37CBCB; stroke-width:0.0000; stroke-opacity:1; 
stroke-linecap:round; stroke-linejoin:round;">
<circle cx="6.9345" cy="4.8500" r="0.4000" /> 
</g>
<g style="fill:#37CBCB; fill-opacity:1.0000; 
stroke:#37CBCB; stroke-width:0.0212; stroke-opacity:1; 
stroke-linecap:round; stroke-linejoin:round;">
</g>
<g style="fill:#37CBCB; fill-opacity:1.0000; 
stroke:#37CBCB; stroke-width:0.0000; stroke-opacity:1; 
stroke-linecap:round; stroke-linejoin:round;">
<circle cx="6.9345" cy="7.2500" r="3.2000" /> 
</g>
<g style="fill:#37CBCB; fill-opacity:1.0000; 
stroke:#37CBCB; stroke-width:0.0212; stroke-opacity:1; 
stroke-linecap:round; stroke-linejoin:round;">
</g>
<g style="fill:#37CBCB; fill-opacity:1.0000; 
stroke:#37CBCB; stroke-width:0.0000; stroke-opacity:1; 
stroke-linecap:round; stroke-linejoin:round;">
<circle cx="6.9345" cy="9.6500" r="0.4000" /> 
</g>
<g style="fill:#37CBCB; fill-opacity:1.0000; 
stroke:#37CBCB; stroke-width:0.0212; stroke-opacity:1; 
stroke-linecap:round; stroke-linejoin:round;">
</g>
<g style="fill:#37CBCB; fill-opacity:1.0000; 
stroke:#37CBCB; stroke-width:0.0000; stroke-opacity:1; 
stroke-linecap:round; stroke-linejoin:round;">
<circle cx="8.6316" cy="5.5529" r="0.4000" /> 
</g>
<g style="fill:#37CBCB; fill-opacity:1.0000; 
stroke:#37CBCB; stroke-width:0.0212; stroke-opacity:1; 
stroke-linecap:round; stroke-linejoin:round;">
</g>
<g style="fill:#37CBCB; fill-opacity:1.0000; 
stroke:#37CBCB; stroke-width:0.0000; stroke-opacity:1; 
stroke-linecap:round; stroke-linejoin:round;">
<circle cx="8.6316" cy="8.9471" r="0.4000" /> 
</g>
<g style="fill:#37CBCB; fill-opacity:1.0000; 
stroke:#37CBCB; stroke-width:0.0212; stroke-opacity:1; 
stroke-linecap:round; stroke-linejoin:round;">
</g>
<g style="fill:#37CBCB; fill-opacity:1.0000; 
stroke:#37CBCB; stroke-width:0.0000; stroke-opacity:1; 
stroke-linecap:round; stroke-linejoin:round;">
<circle cx="9.3345" cy="7.2500" r="0.4000" /> 
</g>
<g style="fill:#37CBCB; fill-opacity:1.0000; 
stroke:#37CBCB; stroke-width:0.0212; stroke-opacity:1; 
stroke-linecap:round; stroke-linejoin:round;">
</g>
<g >
</g>
<g style="fill:#37CBCB; fill-opacity:1.0000; 
stroke:#37CBCB; stroke-width:0.0212; stroke-opacity:1; 
stroke-linecap:round; stroke-linejoin:round;">
</g>
<g style="fill:#37CBCB; fill-opacity:1.0000; 
stroke:#37CBCB; stroke-width:0.0000; stroke-opacity:1; 
stroke-linecap:round; stroke-linejoin:round;">
<circle cx="26.5345" cy="7.2500" r="0.4000" /> 
</g>
<g style="fill:#37CBCB; fill-opacity:1.0000; 
stroke:#37CBCB; stroke-width:0.0212; stroke-opacity:1; 
stroke-linecap:round; stroke-linejoin:round;">
</g>
<g style="fill:#37CBCB; fill-opacity:1.0000; 
stroke:#37CBCB; stroke-width:0.0000; stroke-opacity:1; 
stroke-linecap:round; stroke-linejoin:round;">
<circle cx="27.2375" cy="5.5529" r="0.4000" /> 
</g>
<g style="fill:#37CBCB; fill-opacity:1.0000; 
stroke:#37CBCB; stroke-width:0.0212; stroke-opacity:1; 
stroke-linecap:round; stroke-linejoin:round;">
</g>
<g style="fill:#37CBCB; fill-opacity:1.0000; 
stroke:#37CBCB; stroke-width:0.0000; stroke-opacity:1; 
stroke-linecap:round; stroke-linejoin:round;">
<circle cx="27.2375" cy="8.9471" r="0.4000" /> 
</g>
<g style="fill:#37CBCB; fill-opacity:1.0000; 
stroke:#37CBCB; stroke-width:0.0212; stroke-opacity:1; 
stroke-linecap:round; stroke-linejoin:round;">
</g>
<g style="fill:#37CBCB; fill-opacity:1.0000; 
stroke:#37CBCB; stroke-width:0.0000; stroke-opacity:1; 
stroke-linecap:round; stroke-linejoin:round;">
<circle cx="28.9345" cy="4.8500" r="0.4000" /> 
</g>
<g style="fill:#37CBCB; fill-opacity:1.0000; 
stroke:#37CBCB; stroke-width:0.0212; stroke-opacity:1; 
stroke-linecap:round; stroke-linejoin:round;">
</g>
<g style="fill:#37CBCB; fill-opacity:1.0000; 
stroke:#37CBCB; stroke-width:0.0000; stroke-opacity:1; 
stroke-linecap:round; stroke-linejoin:round;">
<circle cx="28.9345" cy="7.2500" r="3.2000" /> 
</g>
<g style="fill:#37CBCB; fill-opacity:1.0000; 
stroke:#37CBCB; stroke-width:0.0212; stroke-opacity:1; 
stroke-linecap:round; stroke-linejoin:round;">
</g>
<g style="fill:#37CBCB; fill-opacity:1.0000; 
stroke:#37CBCB; stroke-width:0.0000; stroke-opacity:1; 
stroke-linecap:round; stroke-linejoin:round;">
<circle cx="28.9345" cy="9.6500" r="0.4000" /> 
</g>
<g style="fill:#37CBCB; fill-opacity:1.0000; 
stroke:#37CBCB; stroke-width:0.0212; stroke-opacity:1; 
stroke-linecap:round; stroke-linejoin:round;">
</g>
<g style="fill:#37CBCB; fill-opacity:1.0000; 
stroke:#37CBCB; stroke-width:0.0000; stroke-opacity:1; 
stroke-linecap:round; stroke-linejoin:round;">
<circle cx="30.6316" cy="5.5529" r="0.4000" /> 
</g>
<g style="fill:#37CBCB; fill-opacity:1.0000; 
stroke:#37CBCB; stroke-width:0.0212; stroke-opacity:1; 
stroke-linecap:round; stroke-linejoin:round;">
</g>
<g style="fill:#37CBCB; fill-opacity:1.0000; 
stroke:#37CBCB; stroke-width:0.0000; stroke-opacity:1; 
stroke-linecap:round; stroke-linejoin:round;">
<circle cx="30.6316" cy="8.9471" r="0.4000" /> 
</g>
<g style="fill:#37CBCB; fill-opacity:1.0000; 
stroke:#37CBCB; stroke-width:0.0212; stroke-opacity:1; 
stroke-linecap:round; stroke-linejoin:round;">
</g>
<g style="fill:#37CBCB; fill-opacity:1.0000; 
stroke:#37CBCB; stroke-width:0.0000; stroke-opacity:1; 
stroke-linecap:round; stroke-linejoin:round;">
<circle cx="31.3345" cy="7.2500" r="0.4000" /> 
</g>
<g style="fill:#37CBCB; fill-opacity:1.0000; 
stroke:#37CBCB; stroke-width:0.0212; stroke-opacity:1; 
stroke-linecap:round; stroke-linejoin:round;">
</g>
<g >
</g>
<g style="fill:#37CBCB; fill-opacity:1.0000; 
stroke:#37CBCB; stroke-width:0.0212; stroke-opacity:1; 
stroke-linecap:round; stroke-linejoin:round;">
</g>
<g style="fill:#37CBCB; fill-opacity:1.0000; 
stroke:#37CBCB; stroke-width:0.0000; stroke-opacity:1; 
stroke-linecap:round; stroke-linejoin:round;">
<circle cx="15.6845" cy="10.5000" r="1.0000" /> 
</g>
<g style="fill:#37CBCB; fill-opacity:1.0000; 
stroke:#37CBCB; stroke-width:0.0212; stroke-opacity:1; 
stroke-linecap:round; stroke-linejoin:round;">
</g>
<g style="fill:#37CBCB; fill-opacity:1.0000; 
stroke:#37CBCB; stroke-width:0.0000; stroke-opacity:1; 
stroke-linecap:round; stroke-linejoin:round;">
<circle cx="15.6845" cy="4.0000" r="1.0000" /> 
</g>
<g style="fill:#37CBCB; fill-opacity:1.0000; 
stroke:#37CBCB; stroke-width:0.0212; stroke-opacity:1; 
stroke-linecap:round; stroke-linejoin:round;">
</g>
<g style="fill:#37CBCB; fill-opacity:1.0000; 
stroke:#37CBCB; stroke-width:0.0000; stroke-opacity:1; 
stroke-linecap:round; stroke-linejoin:round;">
<circle cx="20.1845" cy="10.5000" r="1.0000" /> 
</g>
<g style="fill:#37CBCB; fill-opacity:1.0000; 
stroke:#37CBCB; stroke-width:0.0212; stroke-opacity:1; 
stroke-linecap:round; stroke-linejoin:round;">
</g>
<g style="fill:#37CBCB; fill-opacity:1.0000; 
stroke:#37CBCB; stroke-width:0.0000; stroke-opacity:1; 
stroke-linecap:round; stroke-linejoin:round;">
<circle cx="20.1845" cy="4.0000" r="1.0000" /> 
</g>
<g style="fill:#37CBCB; fill-opacity:1.0000; 
stroke:#37CBCB; stroke-width:0.0212; stroke-opacity:1; 
stroke-linecap:round; stroke-linejoin:round;">
</g>
<g >
</g>
<g >
</g>
<g >
</g>
</g>
<g style="fill:#000000; fill-opacity:1.0000; 
stroke:#000000; stroke-width:0.0212; stroke-opacity:1; 
stroke-linecap:round; stroke-linejoin:round;">
</g>
<g style="fill:#000000; fill-opacity:1.0000; 
stroke:#000000; stroke-width:0.0000; stroke-opacity:1; 
stroke-linecap:round; stroke-linejoin:round;">
<circle cx="4.5345" cy="7.2500" r="0.2500" /> 
</g>
<g style="fill:#000000; fill-opacity:1.0000; 
stroke:#000000; stroke-width:0.0212; stroke-opacity:1; 
stroke-linecap:round; stroke-linejoin:round;">
</g>
<g style="fill:#000000; fill-opacity:1.0000; 
stroke:#000000; stroke-width:0.0000; stroke-opacity:1; 
stroke-linecap:round; stroke-linejoin:round;">
<circle cx="5.2375" cy="5.5529" r="0.2500" /> 
</g>
<g style="fill:#000000; fill-opacity:1.0000; 
stroke:#000000; stroke-width:0.0212; stroke-opacity:1; 
stroke-linecap:round; stroke-linejoin:round;">
</g>
<g style="fill:#000000; fill-opacity:1.0000; 
stroke:#000000; stroke-width:0.0000; stroke-opacity:1; 
stroke-linecap:round; stroke-linejoin:round;">
<circle cx="5.2375" cy="8.9471" r="0.2500" /> 
</g>
<g style="fill:#000000; fill-opacity:1.0000; 
stroke:#000000; stroke-width:0.0212; stroke-opacity:1; 
stroke-linecap:round; stroke-linejoin:round;">
</g>
<g style="fill:#000000; fill-opacity:1.0000; 
stroke:#000000; stroke-width:0.0000; stroke-opacity:1; 
stroke-linecap:round; stroke-linejoin:round;">
<circle cx="6.9345" cy="4.8500" r="0.2500" /> 
</g>
<g style="fill:#000000; fill-opacity:1.0000; 
stroke:#000000; stroke-width:0.0212; stroke-opacity:1; 
stroke-linecap:round; stroke-linejoin:round;">
</g>
<g style="fill:#000000; fill-opacity:1.0000; 
stroke:#000000; stroke-width:0.0000; stroke-opacity:1; 
stroke-linecap:round; stroke-linejoin:round;">
<circle cx="6.9345" cy="7.2500" r="1.6000" /> 
</g>
<g style="fill:#000000; fill-opacity:1.0000; 
stroke:#000000; stroke-width:0.0212; stroke-opacity:1; 
stroke-linecap:round; stroke-linejoin:round;">
</g>
<g style="fill:#000000; fill-opacity:1.0000; 
stroke:#000000; stroke-width:0.0000; stroke-opacity:1; 
stroke-linecap:round; stroke-linejoin:round;">
<circle cx="6.9345" cy="9.6500" r="0.2500" /> 
</g>
<g style="fill:#000000; fill-opacity:1.0000; 
stroke:#000000; stroke-width:0.0212; stroke-opacity:1; 
stroke-linecap:round; stroke-linejoin:round;">
</g>
<g style="fill:#000000; fill-opacity:1.0000; 
stroke:#000000; stroke-width:0.0000; stroke-opacity:1; 
stroke-linecap:round; stroke-linejoin:round;">
<circle cx="8.6316" cy="5.5529" r="0.2500" /> 
</g>
<g style="fill:#000000; fill-opacity:1.0000; 
stroke:#000000; stroke-width:0.0212; stroke-opacity:1; 
stroke-linecap:round; stroke-linejoin:round;">
</g>
<g style="fill:#000000; fill-opacity:1.0000; 
stroke:#000000; stroke-width:0.0000; stroke-opacity:1; 
stroke-linecap:round; stroke-linejoin:round;">
<circle cx="8.6316" cy="8.9471" r="0.2500" /> 
</g>
<g style="fill:#000000; fill-opacity:1.0000; 
stroke:#000000; stroke-width:0.0212; stroke-opacity:1; 
stroke-linecap:round; stroke-linejoin:round;">
</g>
<g style="fill:#000000; fill-opacity:1.0000; 
stroke:#000000; stroke-width:0.0000; stroke-opacity:1; 
stroke-linecap:round; stroke-linejoin:round;">
<circle cx="9.3345" cy="7.2500" r="0.2500" /> 
</g>
<g style="fill:#000000; fill-opacity:1.0000; 
stroke:#000000; stroke-width:0.0212; stroke-opacity:1; 
stroke-linecap:round; stroke-linejoin:round;">
</g>
<g style="fill:#000000; fill-opacity:1.0000; 
stroke:#000000; stroke-width:0.0000; stroke-opacity:1; 
stroke-linecap:round; stroke-linejoin:round;">
<circle cx="26.5345" cy="7.2500" r="0.2500" /> 
</g>
<g style="fill:#000000; fill-opacity:1.0000; 
stroke:#000000; stroke-width:0.0212; stroke-opacity:1; 
stroke-linecap:round; stroke-linejoin:round;">
</g>
<g style="fill:#000000; fill-opacity:1.0000; 
stroke:#000000; stroke-width:0.0000; stroke-opacity:1; 
stroke-linecap:round; stroke-linejoin:round;">
<circle cx="27.2375" cy="5.5529" r="0.2500" /> 
</g>
<g style="fill:#000000; fill-opacity:1.0000; 
stroke:#000000; stroke-width:0.0212; stroke-opacity:1; 
stroke-linecap:round; stroke-linejoin:round;">
</g>
<g style="fill:#000000; fill-opacity:1.0000; 
stroke:#000000; stroke-width:0.0000; stroke-opacity:1; 
stroke-linecap:round; stroke-linejoin:round;">
<circle cx="27.2375" cy="8.9471" r="0.2500" /> 
</g>
<g style="fill:#000000; fill-opacity:1.0000; 
stroke:#000000; stroke-width:0.0212; stroke-opacity:1; 
stroke-linecap:round; stroke-linejoin:round;">
</g>
<g style="fill:#000000; fill-opacity:1.0000; 
stroke:#000000; stroke-width:0.0000; stroke-opacity:1; 
stroke-linecap:round; stroke-linejoin:round;">
<circle cx="28.9345" cy="4.8500" r="0.2500" /> 
</g>
<g style="fill:#000000; fill-opacity:1.0000; 
stroke:#000000; stroke-width:0.0212; stroke-opacity:1; 
stroke-linecap:round; stroke-linejoin:round;">
</g>
<g style="fill:#000000; fill-opacity:1.0000; 
stroke:#000000; stroke-width:0.0000; stroke-opacity:1; 
stroke-linecap:round; stroke-linejoin:round;">
<circle cx="28.9345" cy="7.2500" r="1.6000" /> 
</g>
<g style="fill:#000000; fill-opacity:1.0000; 
stroke:#000000; stroke-width:0.0212; stroke-opacity:1; 
stroke-linecap:round; stroke-linejoin:round;">
</g>
<g style="fill:#000000; fill-opacity:1.0000; 
stroke:#000000; stroke-width:0.0000; stroke-opacity:1; 
stroke-linecap:round; stroke-linejoin:round;">
<circle cx="28.9345" cy="9.6500" r="0.2500" /> 
</g>
<g style="fill:#000000; fill-opacity:1.0000; 
stroke:#000000; stroke-width:0.0212; stroke-opacity:1; 
stroke-linecap:round; stroke-linejoin:round;">
</g>
<g style="fill:#000000; fill-opacity:1.0000; 
stroke:#000000; stroke-width:0.0000; stroke-opacity:1; 
stroke-linecap:round; stroke-linejoin:round;">
<circle cx="30.6316" cy="5.5529" r="0.2500" /> 
</g>
<g style="fill:#000000; fill-opacity:1.0000; 
stroke:#000000; stroke-width:0.0212; stroke-opacity:1; 
stroke-linecap:round; stroke-linejoin:round;">
</g>
<g style="fill:#000000; fill-opacity:1.0000; 
stroke:#000000; stroke-width:0.0000; stroke-opacity:1; 
stroke-linecap:round; stroke-linejoin:round;">
<circle cx="30.6316" cy="8.9471" r="0.2500" /> 
</g>
<g style="fill:#000000; fill-opacity:1.0000; 
stroke:#000000; stroke-width:0.0212; stroke-opacity:1; 
stroke-linecap:round; stroke-linejoin:round;">
</g>
<g style="fill:#000000; fill-opacity:1.0000; 
stroke:#000000; stroke-width:0.0000; stroke-opacity:1; 
stroke-linecap:round; stroke-linejoin:round;">
<circle cx="31.3345" cy="7.2500" r="0.2500" /> 
</g>
<g style="fill:#000000; fill-opacity:1.0000; 
stroke:#000000; stroke-width:0.0212; stroke-opacity:1; 
stroke-linecap:round; stroke-linejoin:round;">
</g>
<g style="fill:#000000; fill-opacity:1.0000; 
stroke:#000000; stroke-width:0.0000; stroke-opacity:1; 
stroke-linecap:round; stroke-linejoin:round;">
<circle cx="15.6845" cy="10.5000" r="0.5500" /> 
</g>
<g style="fill:#000000; fill-opacity:1.0000; 
stroke:#000000; stroke-width:0.0212; stroke-opacity:1; 
stroke-linecap:round; stroke-linejoin:round;">
</g>
<g style="fill:#000000; fill-opacity:1.0000; 
stroke:#000000; stroke-width:0.0000; stroke-opacity:1; 
stroke-linecap:round; stroke-linejoin:round;">
<circle cx="15.6845" cy="4.0000" r="0.5500" /> 
</g>
<g style="fill:#000000; fill-opacity:1.0000; 
stroke:#000000; stroke-width:0.0212; stroke-opacity:1; 
stroke-linecap:round; stroke-linejoin:round;">
</g>
<g style="fill:#000000; fill-opacity:1.0000; 
stroke:#000000; stroke-width:0.0000; stroke-opacity:1; 
stroke-linecap:round; stroke-linejoin:round;">
<circle cx="20.1845" cy="10.5000" r="0.5500" /> 
</g>
<g style="fill:#000000; fill-opacity:1.0000; 
stroke:#000000; stroke-width:0.0212; stroke-opacity:1; 
stroke-linecap:round; stroke-linejoin:round;">
</g>
<g style="fill:#000000; fill-opacity:1.0000; 
stroke:#000000; stroke-width:0.0000; stroke-opacity:1; 
stroke-linecap:round; stroke-linejoin:round;">
<circle cx="20.1845" cy="4.0000" r="0.5500" /> 
</g>
<g style="fill:#000000; fill-opacity:1.0000; 
stroke:#000000; stroke-width:0.0212; stroke-opacity:1; 
stroke-linecap:round; stroke-linejoin:round;">
</g>
<g style="fill:#FFFFFF; fill-opacity:1.0000; 
stroke:#FFFFFF; stroke-width:0.0212; stroke-opacity:1; 
stroke-linecap:round; stroke-linejoin:round;">
</g>
<g style="fill:#2F2D31; fill-opacity:1.0000; 
stroke:#2F2D31; stroke-width:0.0212; stroke-opacity:1; 
stroke-linecap:round; stroke-linejoin:round;">
</g>
<g style="fill:#2F2D31; fill-opacity:1.0000; 
stroke:#2F2D31; stroke-width:0.2000; stroke-opacity:1; 
stroke-linecap:round; stroke-linejoin:round;">
</g>
<g style="fill:#2F2D31; fill-opacity:0.0; 
stroke:#2F2D31; stroke-width:0.2000; stroke-opacity:1; 
stroke-linecap:round; stroke-linejoin:round;">
<path d="M16.5689 0.3845
L15.9025 0.5514
" />
<path d="M5.7978 10.9972
L15.9025 13.9486
" />
<path d="M18.6206 14.2163
L19.3002 14.1155
" />
<path d="M32.1904 9.4255
L32.3879 9.0959
" />
<path d="M5.4360 3.6322
L5.0886 3.7965
" />
<path d="M3.0939 6.4861
L3.0375 6.8662
" />
<path d="M19.9665 0.5514
L19.3002 0.3845
" />
<path d="M17.9345 14.2500
L18.6206 14.2163
" />
<path d="M3.9075 9.7342
L4.1656 10.0189
" />
<path d="M31.7034 10.0189
L31.9615 9.7342
" />
<path d="M3.1873 6.1133
L3.0939 6.4861
" />
<path d="M30.7804 3.7965
L30.4330 3.6322
" />
<path d="M4.7590 10.5059
L5.0886 10.7035
" />
<path d="M18.6206 0.2837
L17.9345 0.2500
" />
<path d="M32.6817 6.1133
L32.5523 5.7515
" />
<path d="M3.6786 9.4255
L3.9075 9.7342
" />
<path d="M17.9345 0.2500
L17.2484 0.2837
" />
<path d="M32.6817 8.3867
L32.7751 8.0139
" />
<path d="M3.3167 8.7485
L3.4811 9.0959
" />
<path d="M30.0712 3.5028
L19.9665 0.5514
" />
<path d="M3.1873 8.3867
L3.3167 8.7485
" />
<path d="M3.0375 6.8662
L3.0187 7.2500
" />
<path d="M31.1100 3.9941
L30.7804 3.7965
" />
<path d="M32.7751 8.0139
L32.8315 7.6338
" />
<path d="M31.7034 4.4811
L31.4187 4.2230
" />
<path d="M32.8315 6.8662
L32.7751 6.4861
" />
<path d="M19.3002 0.3845
L18.6206 0.2837
" />
<path d="M32.8315 7.6338
L32.8503 7.2500
" />
<path d="M31.4187 4.2230
L31.1100 3.9941
" />
<path d="M3.4811 9.0959
L3.6786 9.4255
" />
<path d="M32.7751 6.4861
L32.6817 6.1133
" />
<path d="M30.7804 10.7035
L31.1100 10.5059
" />
<path d="M17.2484 14.2163
L17.9345 14.2500
" />
<path d="M31.9615 9.7342
L32.1904 9.4255
" />
<path d="M17.2484 0.2837
L16.5689 0.3845
" />
<path d="M19.3002 14.1155
L19.9665 13.9486
" />
<path d="M32.3879 5.4041
L32.1904 5.0745
" />
<path d="M3.3167 5.7515
L3.1873 6.1133
" />
<path d="M4.1656 4.4811
L3.9075 4.7658
" />
<path d="M4.1656 10.0189
L4.4503 10.2770
" />
<path d="M3.9075 4.7658
L3.6786 5.0745
" />
<path d="M19.9665 13.9486
L30.0712 10.9972
" />
<path d="M31.4187 10.2770
L31.7034 10.0189
" />
<path d="M4.4503 4.2230
L4.1656 4.4811
" />
<path d="M31.1100 10.5059
L31.4187 10.2770
" />
<path d="M5.4360 10.8677
L5.7978 10.9972
" />
<path d="M3.4811 5.4041
L3.3167 5.7515
" />
<path d="M30.4330 3.6322
L30.0712 3.5028
" />
<path d="M4.4503 10.2770
L4.7590 10.5059
" />
<path d="M5.0886 3.7965
L4.7590 3.9941
" />
<path d="M30.4330 10.8677
L30.7804 10.7035
" />
<path d="M15.9025 0.5514
L5.7978 3.5028
" />
<path d="M3.6786 5.0745
L3.4811 5.4041
" />
<path d="M32.3879 9.0959
L32.5523 8.7485
" />
<path d="M16.5689 14.1155
L17.2484 14.2163
" />
<path d="M31.9615 4.7658
L31.7034 4.4811
" />
<path d="M32.8503 7.2500
L32.8315 6.8662
" />
<path d="M15.9025 13.9486
L16.5689 14.1155
" />
<path d="M30.0712 10.9972
L30.4330 10.8677
" />
<path d="M32.5523 5.7515
L32.3879 5.4041
" />
<path d="M3.0375 7.6338
L3.0939 8.0139
" />
<path d="M5.7978 3.5028
L5.4360 3.6322
" />
<path d="M32.5523 8.7485
L32.6817 8.3867
" />
<path d="M32.1904 5.0745
L31.9615 4.7658
" />
<path d="M3.0187 7.2500
L3.0375 7.6338
" />
<path d="M5.0886 10.7035
L5.4360 10.8677
" />
<path d="M3.0939 8.0139
L3.1873 8.3867
" />
<path d="M4.7590 3.9941
L4.4503 4.2230
" />
<g >
</g>
<g >
</g>
<g >
</g>
<g >
</g>
<g >
</g>
<g >
</g>
</g> 
</svg>
