<?xml version="1.0" standalone="no"?>
 <!DOCTYPE svg PUBLIC "-//W3C//DTD SVG 1.1//EN" 
 "http://www.w3.org/Graphics/SVG/1.1/DTD/svg11.dtd"> 
<svg
  xmlns:svg="http://www.w3.org/2000/svg"
  xmlns="http://www.w3.org/2000/svg"
  xmlns:xlink="http://www.w3.org/1999/xlink"
  version="1.1"
  width="22.0980mm" height="12.5984mm" viewBox="0.0000 0.0000 22.0980 12.5984">
<title>SVG Image created as working-brd.svg date 2023/09/17 22:37:57 </title>
  <desc>Image generated by PCBNEW </desc>
<g style="fill:#000000; fill-opacity:1.0000;stroke:#000000; stroke-opacity:1.0000;
stroke-linecap:round; stroke-linejoin:round;"
 transform="translate(0 0) scale(1 1)">
</g>
<g style="fill:#000000; fill-opacity:0.0; 
stroke:#000000; stroke-width:0.0000; stroke-opacity:1; 
stroke-linecap:round; stroke-linejoin:round;">
</g>
<g style="fill:#000000; fill-opacity:1.0000; 
stroke:#000000; stroke-width:0.0212; stroke-opacity:1; 
stroke-linecap:round; stroke-linejoin:round;">
<rect x="-5.000000" y="-5.000000" width="32.100000" height="22.600000" rx="0.000000" />
</g>
<g style="fill:#FFFFFF; fill-opacity:1.0000; 
stroke:#FFFFFF; stroke-width:0.0212; stroke-opacity:1; 
stroke-linecap:round; stroke-linejoin:round;">
<g >
</g>
<g >
</g>
<g >
</g>
<g >
</g>
<g >
</g>
<g >
</g>
<g >
</g>
<g >
</g>
<g >
</g>
</g>
<g style="fill:#FFFFFF; fill-opacity:1.0000; 
stroke:#FFFFFF; stroke-width:0.0212; stroke-opacity:1; 
stroke-linecap:round; stroke-linejoin:round;">
<g >
</g>
<g >
</g>
<g >
</g>
<g >
</g>
<g >
</g>
<g >
</g>
<g >
</g>
<g >
</g>
<g >
</g>
</g>
<g style="fill:#FFFFFF; fill-opacity:1.0000; 
stroke:#FFFFFF; stroke-width:0.0212; stroke-opacity:1; 
stroke-linecap:round; stroke-linejoin:round;">
<g >
</g>
<g style="fill:#FD0010; fill-opacity:0.4000; 
stroke:#FD0010; stroke-width:0.0212; stroke-opacity:1; 
stroke-linecap:round; stroke-linejoin:round;">
</g>
<g style="fill:#FD0010; fill-opacity:0.4000; 
stroke:#FD0010; stroke-width:0.0000; stroke-opacity:1; 
stroke-linecap:round; stroke-linejoin:round;">
<circle cx="11.0500" cy="3.0500" r="2.0000" /> 
</g>
<g style="fill:#FD0010; fill-opacity:0.4000; 
stroke:#FD0010; stroke-width:0.0212; stroke-opacity:1; 
stroke-linecap:round; stroke-linejoin:round;">
</g>
<g >
</g>
<g style="fill:#FD0010; fill-opacity:0.4000; 
stroke:#FD0010; stroke-width:0.0212; stroke-opacity:1; 
stroke-linecap:round; stroke-linejoin:round;">
</g>
<g style="fill:#FD0010; fill-opacity:0.4000; 
stroke:#FD0010; stroke-width:0.0000; stroke-opacity:1; 
stroke-linecap:round; stroke-linejoin:round;">
<circle cx="11.0500" cy="9.5500" r="2.0000" /> 
</g>
<g style="fill:#FD0010; fill-opacity:0.4000; 
stroke:#FD0010; stroke-width:0.0212; stroke-opacity:1; 
stroke-linecap:round; stroke-linejoin:round;">
</g>
<g >
</g>
<g style="fill:#FD0010; fill-opacity:0.4000; 
stroke:#FD0010; stroke-width:0.0212; stroke-opacity:1; 
stroke-linecap:round; stroke-linejoin:round;">
</g>
<g style="fill:#FD0010; fill-opacity:0.4000; 
stroke:#FD0010; stroke-width:0.0000; stroke-opacity:1; 
stroke-linecap:round; stroke-linejoin:round;">
<circle cx="19.0500" cy="9.5500" r="2.0000" /> 
</g>
<g style="fill:#FD0010; fill-opacity:0.4000; 
stroke:#FD0010; stroke-width:0.0212; stroke-opacity:1; 
stroke-linecap:round; stroke-linejoin:round;">
</g>
<g >
</g>
<g style="fill:#FD0010; fill-opacity:0.4000; 
stroke:#FD0010; stroke-width:0.0212; stroke-opacity:1; 
stroke-linecap:round; stroke-linejoin:round;">
</g>
<g style="fill:#FD0010; fill-opacity:0.4000; 
stroke:#FD0010; stroke-width:0.0000; stroke-opacity:1; 
stroke-linecap:round; stroke-linejoin:round;">
<circle cx="3.0500" cy="3.0500" r="2.0000" /> 
</g>
<g style="fill:#FD0010; fill-opacity:0.4000; 
stroke:#FD0010; stroke-width:0.0212; stroke-opacity:1; 
stroke-linecap:round; stroke-linejoin:round;">
</g>
<g >
</g>
<g style="fill:#FD0010; fill-opacity:0.4000; 
stroke:#FD0010; stroke-width:0.0212; stroke-opacity:1; 
stroke-linecap:round; stroke-linejoin:round;">
</g>
<g style="fill:#FD0010; fill-opacity:0.4000; 
stroke:#FD0010; stroke-width:0.0000; stroke-opacity:1; 
stroke-linecap:round; stroke-linejoin:round;">
<circle cx="3.0500" cy="9.5500" r="2.0000" /> 
</g>
<g style="fill:#FD0010; fill-opacity:0.4000; 
stroke:#FD0010; stroke-width:0.0212; stroke-opacity:1; 
stroke-linecap:round; stroke-linejoin:round;">
</g>
<g >
</g>
<g style="fill:#FD0010; fill-opacity:0.4000; 
stroke:#FD0010; stroke-width:0.0212; stroke-opacity:1; 
stroke-linecap:round; stroke-linejoin:round;">
</g>
<g style="fill:#FD0010; fill-opacity:0.4000; 
stroke:#FD0010; stroke-width:0.0000; stroke-opacity:1; 
stroke-linecap:round; stroke-linejoin:round;">
<circle cx="19.0500" cy="3.0500" r="2.0000" /> 
</g>
<g style="fill:#FD0010; fill-opacity:0.4000; 
stroke:#FD0010; stroke-width:0.0212; stroke-opacity:1; 
stroke-linecap:round; stroke-linejoin:round;">
</g>
<g >
</g>
<g >
</g>
<g >
</g>
</g>
<g style="fill:#FFFFFF; fill-opacity:1.0000; 
stroke:#FFFFFF; stroke-width:0.0212; stroke-opacity:1; 
stroke-linecap:round; stroke-linejoin:round;">
<g >
</g>
<g style="fill:#B2803A; fill-opacity:1.0000; 
stroke:#B2803A; stroke-width:0.0212; stroke-opacity:1; 
stroke-linecap:round; stroke-linejoin:round;">
</g>
<g style="fill:#B2803A; fill-opacity:1.0000; 
stroke:#B2803A; stroke-width:0.0000; stroke-opacity:1; 
stroke-linecap:round; stroke-linejoin:round;">
<circle cx="11.0500" cy="3.0500" r="2.0000" /> 
</g>
<g style="fill:#B2803A; fill-opacity:1.0000; 
stroke:#B2803A; stroke-width:0.0212; stroke-opacity:1; 
stroke-linecap:round; stroke-linejoin:round;">
</g>
<g >
</g>
<g style="fill:#B2803A; fill-opacity:1.0000; 
stroke:#B2803A; stroke-width:0.0212; stroke-opacity:1; 
stroke-linecap:round; stroke-linejoin:round;">
</g>
<g style="fill:#B2803A; fill-opacity:1.0000; 
stroke:#B2803A; stroke-width:0.0000; stroke-opacity:1; 
stroke-linecap:round; stroke-linejoin:round;">
<circle cx="11.0500" cy="9.5500" r="2.0000" /> 
</g>
<g style="fill:#B2803A; fill-opacity:1.0000; 
stroke:#B2803A; stroke-width:0.0212; stroke-opacity:1; 
stroke-linecap:round; stroke-linejoin:round;">
</g>
<g >
</g>
<g style="fill:#B2803A; fill-opacity:1.0000; 
stroke:#B2803A; stroke-width:0.0212; stroke-opacity:1; 
stroke-linecap:round; stroke-linejoin:round;">
</g>
<g style="fill:#B2803A; fill-opacity:1.0000; 
stroke:#B2803A; stroke-width:0.0000; stroke-opacity:1; 
stroke-linecap:round; stroke-linejoin:round;">
<circle cx="19.0500" cy="9.5500" r="2.0000" /> 
</g>
<g style="fill:#B2803A; fill-opacity:1.0000; 
stroke:#B2803A; stroke-width:0.0212; stroke-opacity:1; 
stroke-linecap:round; stroke-linejoin:round;">
</g>
<g >
</g>
<g style="fill:#B2803A; fill-opacity:1.0000; 
stroke:#B2803A; stroke-width:0.0212; stroke-opacity:1; 
stroke-linecap:round; stroke-linejoin:round;">
</g>
<g style="fill:#B2803A; fill-opacity:1.0000; 
stroke:#B2803A; stroke-width:0.0000; stroke-opacity:1; 
stroke-linecap:round; stroke-linejoin:round;">
<circle cx="3.0500" cy="3.0500" r="2.0000" /> 
</g>
<g style="fill:#B2803A; fill-opacity:1.0000; 
stroke:#B2803A; stroke-width:0.0212; stroke-opacity:1; 
stroke-linecap:round; stroke-linejoin:round;">
</g>
<g >
</g>
<g style="fill:#B2803A; fill-opacity:1.0000; 
stroke:#B2803A; stroke-width:0.0212; stroke-opacity:1; 
stroke-linecap:round; stroke-linejoin:round;">
</g>
<g style="fill:#B2803A; fill-opacity:1.0000; 
stroke:#B2803A; stroke-width:0.0000; stroke-opacity:1; 
stroke-linecap:round; stroke-linejoin:round;">
<circle cx="3.0500" cy="9.5500" r="2.0000" /> 
</g>
<g style="fill:#B2803A; fill-opacity:1.0000; 
stroke:#B2803A; stroke-width:0.0212; stroke-opacity:1; 
stroke-linecap:round; stroke-linejoin:round;">
</g>
<g >
</g>
<g style="fill:#B2803A; fill-opacity:1.0000; 
stroke:#B2803A; stroke-width:0.0212; stroke-opacity:1; 
stroke-linecap:round; stroke-linejoin:round;">
</g>
<g style="fill:#B2803A; fill-opacity:1.0000; 
stroke:#B2803A; stroke-width:0.0000; stroke-opacity:1; 
stroke-linecap:round; stroke-linejoin:round;">
<circle cx="19.0500" cy="3.0500" r="2.0000" /> 
</g>
<g style="fill:#B2803A; fill-opacity:1.0000; 
stroke:#B2803A; stroke-width:0.0212; stroke-opacity:1; 
stroke-linecap:round; stroke-linejoin:round;">
</g>
<g >
</g>
<g >
</g>
<g >
</g>
<g style="fill:#B2803A; fill-opacity:1.0000; 
stroke:#B2803A; stroke-width:0.0212; stroke-opacity:1; 
stroke-linecap:round; stroke-linejoin:round;">
<g >
</g>
<g style="fill:#B2803A; fill-opacity:1.0000; 
stroke:#B2803A; stroke-width:0.0000; stroke-opacity:1; 
stroke-linecap:round; stroke-linejoin:round;">
<path style="fill:#B2803A; fill-opacity:1.0000; 
stroke:#B2803A; stroke-width:0.0000; stroke-opacity:1; 
stroke-linecap:round; stroke-linejoin:round;fill-rule:evenodd;"
d="M 21.0575,0.0507
21.1423,0.0591
21.2354,0.0683
21.2544,0.0720
21.4234,0.1233
21.4413,0.1307
21.5970,0.2139
21.6131,0.2247
21.7088,0.3032
21.7496,0.3367
21.7633,0.3504
21.8753,0.4869
21.8861,0.5030
21.9693,0.6587
21.9767,0.6766
22.0280,0.8456
22.0317,0.8646
22.0493,1.0425
22.0495,1.0474
22.0495,11.5526
22.0493,11.5575
22.0317,11.7354
22.0280,11.7544
21.9767,11.9234
21.9693,11.9413
21.8861,12.0970
21.8753,12.1131
21.7633,12.2496
21.7496,12.2633
21.6131,12.3753
21.5970,12.3861
21.4413,12.4693
21.4234,12.4767
21.2544,12.5280
21.2354,12.5317
21.0575,12.5493
21.0526,12.5495
15.5474,12.5495
15.5425,12.5493
15.3646,12.5317
15.3456,12.5280
15.1766,12.4767
15.1587,12.4693
15.0030,12.3861
14.9869,12.3753
14.9187,12.3193
14.8504,12.2633
14.8367,12.2496
14.8032,12.2088
14.7247,12.1131
14.7139,12.0970
14.6307,11.9413
14.6233,11.9234
14.5720,11.7544
14.5683,11.7354
14.5502,11.5524
14.5500,11.5476
14.5500,1.0524
14.5502,1.0476
14.5683,0.8646
14.5720,0.8456
14.6233,0.6766
14.6307,0.6587
14.7139,0.5030
14.7247,0.4869
14.8367,0.3504
14.8504,0.3367
14.9869,0.2247
15.0030,0.2139
15.1587,0.1307
15.1766,0.1233
15.3456,0.0720
15.3646,0.0683
15.5425,0.0507
15.5474,0.0505
21.0526,0.0505
Z" /> 
</g>
</g>
<g style="fill:#B2803A; fill-opacity:1.0000; 
stroke:#B2803A; stroke-width:0.0000; stroke-opacity:1; 
stroke-linecap:round; stroke-linejoin:round;">
<g >
<path style="fill:#B2803A; fill-opacity:1.0000; 
stroke:#B2803A; stroke-width:0.0000; stroke-opacity:1; 
stroke-linecap:round; stroke-linejoin:round;fill-rule:evenodd;"
d="M 6.5575,0.0507
6.6423,0.0591
6.7354,0.0683
6.7544,0.0720
6.9234,0.1233
6.9413,0.1307
7.0970,0.2139
7.1131,0.2247
7.2088,0.3032
7.2496,0.3367
7.2633,0.3504
7.3753,0.4869
7.3861,0.5030
7.4693,0.6587
7.4767,0.6766
7.5280,0.8456
7.5317,0.8646
7.5498,1.0476
7.5500,1.0524
7.5500,11.5476
7.5498,11.5524
7.5317,11.7354
7.5280,11.7544
7.4767,11.9234
7.4693,11.9413
7.3861,12.0970
7.3753,12.1131
7.2633,12.2496
7.2496,12.2633
7.1131,12.3753
7.0970,12.3861
6.9413,12.4693
6.9234,12.4767
6.7544,12.5280
6.7354,12.5317
6.5575,12.5493
6.5526,12.5495
1.0474,12.5495
1.0425,12.5493
0.8646,12.5317
0.8456,12.5280
0.6766,12.4767
0.6587,12.4693
0.5030,12.3861
0.4869,12.3753
0.4187,12.3193
0.3504,12.2633
0.3367,12.2496
0.3032,12.2088
0.2247,12.1131
0.2139,12.0970
0.1307,11.9413
0.1233,11.9234
0.0720,11.7544
0.0683,11.7354
0.0507,11.5575
0.0505,11.5526
0.0505,1.0474
0.0507,1.0425
0.0683,0.8646
0.0720,0.8456
0.1233,0.6766
0.1307,0.6587
0.2139,0.5030
0.2247,0.4869
0.3367,0.3504
0.3504,0.3367
0.4869,0.2247
0.5030,0.2139
0.6587,0.1307
0.6766,0.1233
0.8456,0.0720
0.8646,0.0683
1.0425,0.0507
1.0474,0.0505
6.5526,0.0505
Z" /> 
</g>
</g>
<g style="fill:#B2803A; fill-opacity:1.0000; 
stroke:#B2803A; stroke-width:0.0000; stroke-opacity:1; 
stroke-linecap:round; stroke-linejoin:round;">
<g >
<path style="fill:#B2803A; fill-opacity:1.0000; 
stroke:#B2803A; stroke-width:0.0000; stroke-opacity:1; 
stroke-linecap:round; stroke-linejoin:round;fill-rule:evenodd;"
d="M 12.8075,0.0507
12.8923,0.0591
12.9854,0.0683
13.0044,0.0720
13.1734,0.1233
13.1913,0.1307
13.3470,0.2139
13.3631,0.2247
13.4588,0.3032
13.4996,0.3367
13.5133,0.3504
13.6253,0.4869
13.6361,0.5030
13.7193,0.6587
13.7267,0.6766
13.7780,0.8456
13.7817,0.8646
13.7998,1.0476
13.8000,1.0524
13.8000,11.5476
13.7998,11.5524
13.7817,11.7354
13.7780,11.7544
13.7267,11.9234
13.7193,11.9413
13.6361,12.0970
13.6253,12.1131
13.5133,12.2496
13.4996,12.2633
13.3631,12.3753
13.3470,12.3861
13.1913,12.4693
13.1734,12.4767
13.0044,12.5280
12.9854,12.5317
12.8075,12.5493
12.8026,12.5495
9.2974,12.5495
9.2925,12.5493
9.1146,12.5317
9.0956,12.5280
8.9266,12.4767
8.9087,12.4693
8.7530,12.3861
8.7369,12.3753
8.6687,12.3193
8.6004,12.2633
8.5867,12.2496
8.5532,12.2088
8.4747,12.1131
8.4639,12.0970
8.3807,11.9413
8.3733,11.9234
8.3220,11.7544
8.3183,11.7354
8.3002,11.5524
8.3000,11.5476
8.3000,1.0524
8.3002,1.0476
8.3183,0.8646
8.3220,0.8456
8.3733,0.6766
8.3807,0.6587
8.4639,0.5030
8.4747,0.4869
8.5867,0.3504
8.6004,0.3367
8.7369,0.2247
8.7530,0.2139
8.9087,0.1307
8.9266,0.1233
9.0956,0.0720
9.1146,0.0683
9.2925,0.0507
9.2974,0.0505
12.8026,0.0505
Z" /> 
</g>
</g>
</g>
<g style="fill:#000000; fill-opacity:1.0000; 
stroke:#000000; stroke-width:0.0000; stroke-opacity:1; 
stroke-linecap:round; stroke-linejoin:round;">
<circle cx="11.0500" cy="3.0500" r="1.1000" /> 
</g>
<g style="fill:#000000; fill-opacity:1.0000; 
stroke:#000000; stroke-width:0.0212; stroke-opacity:1; 
stroke-linecap:round; stroke-linejoin:round;">
</g>
<g style="fill:#000000; fill-opacity:1.0000; 
stroke:#000000; stroke-width:0.0000; stroke-opacity:1; 
stroke-linecap:round; stroke-linejoin:round;">
<circle cx="11.0500" cy="9.5500" r="1.1000" /> 
</g>
<g style="fill:#000000; fill-opacity:1.0000; 
stroke:#000000; stroke-width:0.0212; stroke-opacity:1; 
stroke-linecap:round; stroke-linejoin:round;">
</g>
<g style="fill:#000000; fill-opacity:1.0000; 
stroke:#000000; stroke-width:0.0000; stroke-opacity:1; 
stroke-linecap:round; stroke-linejoin:round;">
<circle cx="19.0500" cy="9.5500" r="1.1000" /> 
</g>
<g style="fill:#000000; fill-opacity:1.0000; 
stroke:#000000; stroke-width:0.0212; stroke-opacity:1; 
stroke-linecap:round; stroke-linejoin:round;">
</g>
<g style="fill:#000000; fill-opacity:1.0000; 
stroke:#000000; stroke-width:0.0000; stroke-opacity:1; 
stroke-linecap:round; stroke-linejoin:round;">
<circle cx="3.0500" cy="3.0500" r="1.1000" /> 
</g>
<g style="fill:#000000; fill-opacity:1.0000; 
stroke:#000000; stroke-width:0.0212; stroke-opacity:1; 
stroke-linecap:round; stroke-linejoin:round;">
</g>
<g style="fill:#000000; fill-opacity:1.0000; 
stroke:#000000; stroke-width:0.0000; stroke-opacity:1; 
stroke-linecap:round; stroke-linejoin:round;">
<circle cx="3.0500" cy="9.5500" r="1.1000" /> 
</g>
<g style="fill:#000000; fill-opacity:1.0000; 
stroke:#000000; stroke-width:0.0212; stroke-opacity:1; 
stroke-linecap:round; stroke-linejoin:round;">
</g>
<g style="fill:#000000; fill-opacity:1.0000; 
stroke:#000000; stroke-width:0.0000; stroke-opacity:1; 
stroke-linecap:round; stroke-linejoin:round;">
<circle cx="19.0500" cy="3.0500" r="1.1000" /> 
</g>
<g style="fill:#000000; fill-opacity:1.0000; 
stroke:#000000; stroke-width:0.0212; stroke-opacity:1; 
stroke-linecap:round; stroke-linejoin:round;">
</g>
<g style="fill:#FFFFFF; fill-opacity:1.0000; 
stroke:#FFFFFF; stroke-width:0.0212; stroke-opacity:1; 
stroke-linecap:round; stroke-linejoin:round;">
<g >
</g>
<g style="fill:#37CBCB; fill-opacity:1.0000; 
stroke:#37CBCB; stroke-width:0.0212; stroke-opacity:1; 
stroke-linecap:round; stroke-linejoin:round;">
</g>
<g style="fill:#37CBCB; fill-opacity:1.0000; 
stroke:#37CBCB; stroke-width:0.0000; stroke-opacity:1; 
stroke-linecap:round; stroke-linejoin:round;">
<circle cx="11.0500" cy="3.0500" r="2.0000" /> 
</g>
<g style="fill:#37CBCB; fill-opacity:1.0000; 
stroke:#37CBCB; stroke-width:0.0212; stroke-opacity:1; 
stroke-linecap:round; stroke-linejoin:round;">
</g>
<g >
</g>
<g style="fill:#37CBCB; fill-opacity:1.0000; 
stroke:#37CBCB; stroke-width:0.0212; stroke-opacity:1; 
stroke-linecap:round; stroke-linejoin:round;">
</g>
<g style="fill:#37CBCB; fill-opacity:1.0000; 
stroke:#37CBCB; stroke-width:0.0000; stroke-opacity:1; 
stroke-linecap:round; stroke-linejoin:round;">
<circle cx="11.0500" cy="9.5500" r="2.0000" /> 
</g>
<g style="fill:#37CBCB; fill-opacity:1.0000; 
stroke:#37CBCB; stroke-width:0.0212; stroke-opacity:1; 
stroke-linecap:round; stroke-linejoin:round;">
</g>
<g >
</g>
<g style="fill:#37CBCB; fill-opacity:1.0000; 
stroke:#37CBCB; stroke-width:0.0212; stroke-opacity:1; 
stroke-linecap:round; stroke-linejoin:round;">
</g>
<g style="fill:#37CBCB; fill-opacity:1.0000; 
stroke:#37CBCB; stroke-width:0.0000; stroke-opacity:1; 
stroke-linecap:round; stroke-linejoin:round;">
<circle cx="19.0500" cy="9.5500" r="2.0000" /> 
</g>
<g style="fill:#37CBCB; fill-opacity:1.0000; 
stroke:#37CBCB; stroke-width:0.0212; stroke-opacity:1; 
stroke-linecap:round; stroke-linejoin:round;">
</g>
<g >
</g>
<g style="fill:#37CBCB; fill-opacity:1.0000; 
stroke:#37CBCB; stroke-width:0.0212; stroke-opacity:1; 
stroke-linecap:round; stroke-linejoin:round;">
</g>
<g style="fill:#37CBCB; fill-opacity:1.0000; 
stroke:#37CBCB; stroke-width:0.0000; stroke-opacity:1; 
stroke-linecap:round; stroke-linejoin:round;">
<circle cx="3.0500" cy="3.0500" r="2.0000" /> 
</g>
<g style="fill:#37CBCB; fill-opacity:1.0000; 
stroke:#37CBCB; stroke-width:0.0212; stroke-opacity:1; 
stroke-linecap:round; stroke-linejoin:round;">
</g>
<g >
</g>
<g style="fill:#37CBCB; fill-opacity:1.0000; 
stroke:#37CBCB; stroke-width:0.0212; stroke-opacity:1; 
stroke-linecap:round; stroke-linejoin:round;">
</g>
<g style="fill:#37CBCB; fill-opacity:1.0000; 
stroke:#37CBCB; stroke-width:0.0000; stroke-opacity:1; 
stroke-linecap:round; stroke-linejoin:round;">
<circle cx="3.0500" cy="9.5500" r="2.0000" /> 
</g>
<g style="fill:#37CBCB; fill-opacity:1.0000; 
stroke:#37CBCB; stroke-width:0.0212; stroke-opacity:1; 
stroke-linecap:round; stroke-linejoin:round;">
</g>
<g >
</g>
<g style="fill:#37CBCB; fill-opacity:1.0000; 
stroke:#37CBCB; stroke-width:0.0212; stroke-opacity:1; 
stroke-linecap:round; stroke-linejoin:round;">
</g>
<g style="fill:#37CBCB; fill-opacity:1.0000; 
stroke:#37CBCB; stroke-width:0.0000; stroke-opacity:1; 
stroke-linecap:round; stroke-linejoin:round;">
<circle cx="19.0500" cy="3.0500" r="2.0000" /> 
</g>
<g style="fill:#37CBCB; fill-opacity:1.0000; 
stroke:#37CBCB; stroke-width:0.0212; stroke-opacity:1; 
stroke-linecap:round; stroke-linejoin:round;">
</g>
<g >
</g>
<g >
</g>
<g >
</g>
<g style="fill:#37CBCB; fill-opacity:1.0000; 
stroke:#37CBCB; stroke-width:0.0212; stroke-opacity:1; 
stroke-linecap:round; stroke-linejoin:round;">
<g >
</g>
<g style="fill:#37CBCB; fill-opacity:1.0000; 
stroke:#37CBCB; stroke-width:0.0000; stroke-opacity:1; 
stroke-linecap:round; stroke-linejoin:round;">
<path style="fill:#37CBCB; fill-opacity:1.0000; 
stroke:#37CBCB; stroke-width:0.0000; stroke-opacity:1; 
stroke-linecap:round; stroke-linejoin:round;fill-rule:evenodd;"
d="M 21.0575,0.0507
21.1423,0.0591
21.2354,0.0683
21.2544,0.0720
21.4234,0.1233
21.4413,0.1307
21.5970,0.2139
21.6131,0.2247
21.7088,0.3032
21.7496,0.3367
21.7633,0.3504
21.8753,0.4869
21.8861,0.5030
21.9693,0.6587
21.9767,0.6766
22.0280,0.8456
22.0317,0.8646
22.0493,1.0425
22.0495,1.0474
22.0495,11.5526
22.0493,11.5575
22.0317,11.7354
22.0280,11.7544
21.9767,11.9234
21.9693,11.9413
21.8861,12.0970
21.8753,12.1131
21.7633,12.2496
21.7496,12.2633
21.6131,12.3753
21.5970,12.3861
21.4413,12.4693
21.4234,12.4767
21.2544,12.5280
21.2354,12.5317
21.0575,12.5493
21.0526,12.5495
15.5474,12.5495
15.5425,12.5493
15.3646,12.5317
15.3456,12.5280
15.1766,12.4767
15.1587,12.4693
15.0030,12.3861
14.9869,12.3753
14.9187,12.3193
14.8504,12.2633
14.8367,12.2496
14.8032,12.2088
14.7247,12.1131
14.7139,12.0970
14.6307,11.9413
14.6233,11.9234
14.5720,11.7544
14.5683,11.7354
14.5502,11.5524
14.5500,11.5476
14.5500,1.0524
14.5502,1.0476
14.5683,0.8646
14.5720,0.8456
14.6233,0.6766
14.6307,0.6587
14.7139,0.5030
14.7247,0.4869
14.8367,0.3504
14.8504,0.3367
14.9869,0.2247
15.0030,0.2139
15.1587,0.1307
15.1766,0.1233
15.3456,0.0720
15.3646,0.0683
15.5425,0.0507
15.5474,0.0505
21.0526,0.0505
Z" /> 
</g>
</g>
<g style="fill:#37CBCB; fill-opacity:1.0000; 
stroke:#37CBCB; stroke-width:0.0000; stroke-opacity:1; 
stroke-linecap:round; stroke-linejoin:round;">
<g >
<path style="fill:#37CBCB; fill-opacity:1.0000; 
stroke:#37CBCB; stroke-width:0.0000; stroke-opacity:1; 
stroke-linecap:round; stroke-linejoin:round;fill-rule:evenodd;"
d="M 6.5575,0.0507
6.6423,0.0591
6.7354,0.0683
6.7544,0.0720
6.9234,0.1233
6.9413,0.1307
7.0970,0.2139
7.1131,0.2247
7.2088,0.3032
7.2496,0.3367
7.2633,0.3504
7.3753,0.4869
7.3861,0.5030
7.4693,0.6587
7.4767,0.6766
7.5280,0.8456
7.5317,0.8646
7.5498,1.0476
7.5500,1.0524
7.5500,11.5476
7.5498,11.5524
7.5317,11.7354
7.5280,11.7544
7.4767,11.9234
7.4693,11.9413
7.3861,12.0970
7.3753,12.1131
7.2633,12.2496
7.2496,12.2633
7.1131,12.3753
7.0970,12.3861
6.9413,12.4693
6.9234,12.4767
6.7544,12.5280
6.7354,12.5317
6.5575,12.5493
6.5526,12.5495
1.0474,12.5495
1.0425,12.5493
0.8646,12.5317
0.8456,12.5280
0.6766,12.4767
0.6587,12.4693
0.5030,12.3861
0.4869,12.3753
0.4187,12.3193
0.3504,12.2633
0.3367,12.2496
0.3032,12.2088
0.2247,12.1131
0.2139,12.0970
0.1307,11.9413
0.1233,11.9234
0.0720,11.7544
0.0683,11.7354
0.0507,11.5575
0.0505,11.5526
0.0505,1.0474
0.0507,1.0425
0.0683,0.8646
0.0720,0.8456
0.1233,0.6766
0.1307,0.6587
0.2139,0.5030
0.2247,0.4869
0.3367,0.3504
0.3504,0.3367
0.4869,0.2247
0.5030,0.2139
0.6587,0.1307
0.6766,0.1233
0.8456,0.0720
0.8646,0.0683
1.0425,0.0507
1.0474,0.0505
6.5526,0.0505
Z" /> 
</g>
</g>
<g style="fill:#37CBCB; fill-opacity:1.0000; 
stroke:#37CBCB; stroke-width:0.0000; stroke-opacity:1; 
stroke-linecap:round; stroke-linejoin:round;">
<g >
<path style="fill:#37CBCB; fill-opacity:1.0000; 
stroke:#37CBCB; stroke-width:0.0000; stroke-opacity:1; 
stroke-linecap:round; stroke-linejoin:round;fill-rule:evenodd;"
d="M 12.8075,0.0507
12.8923,0.0591
12.9854,0.0683
13.0044,0.0720
13.1734,0.1233
13.1913,0.1307
13.3470,0.2139
13.3631,0.2247
13.4588,0.3032
13.4996,0.3367
13.5133,0.3504
13.6253,0.4869
13.6361,0.5030
13.7193,0.6587
13.7267,0.6766
13.7780,0.8456
13.7817,0.8646
13.7998,1.0476
13.8000,1.0524
13.8000,11.5476
13.7998,11.5524
13.7817,11.7354
13.7780,11.7544
13.7267,11.9234
13.7193,11.9413
13.6361,12.0970
13.6253,12.1131
13.5133,12.2496
13.4996,12.2633
13.3631,12.3753
13.3470,12.3861
13.1913,12.4693
13.1734,12.4767
13.0044,12.5280
12.9854,12.5317
12.8075,12.5493
12.8026,12.5495
9.2974,12.5495
9.2925,12.5493
9.1146,12.5317
9.0956,12.5280
8.9266,12.4767
8.9087,12.4693
8.7530,12.3861
8.7369,12.3753
8.6687,12.3193
8.6004,12.2633
8.5867,12.2496
8.5532,12.2088
8.4747,12.1131
8.4639,12.0970
8.3807,11.9413
8.3733,11.9234
8.3220,11.7544
8.3183,11.7354
8.3002,11.5524
8.3000,11.5476
8.3000,1.0524
8.3002,1.0476
8.3183,0.8646
8.3220,0.8456
8.3733,0.6766
8.3807,0.6587
8.4639,0.5030
8.4747,0.4869
8.5867,0.3504
8.6004,0.3367
8.7369,0.2247
8.7530,0.2139
8.9087,0.1307
8.9266,0.1233
9.0956,0.0720
9.1146,0.0683
9.2925,0.0507
9.2974,0.0505
12.8026,0.0505
Z" /> 
</g>
</g>
</g>
<g style="fill:#000000; fill-opacity:1.0000; 
stroke:#000000; stroke-width:0.0000; stroke-opacity:1; 
stroke-linecap:round; stroke-linejoin:round;">
<circle cx="11.0500" cy="3.0500" r="1.1000" /> 
</g>
<g style="fill:#000000; fill-opacity:1.0000; 
stroke:#000000; stroke-width:0.0212; stroke-opacity:1; 
stroke-linecap:round; stroke-linejoin:round;">
</g>
<g style="fill:#000000; fill-opacity:1.0000; 
stroke:#000000; stroke-width:0.0000; stroke-opacity:1; 
stroke-linecap:round; stroke-linejoin:round;">
<circle cx="11.0500" cy="9.5500" r="1.1000" /> 
</g>
<g style="fill:#000000; fill-opacity:1.0000; 
stroke:#000000; stroke-width:0.0212; stroke-opacity:1; 
stroke-linecap:round; stroke-linejoin:round;">
</g>
<g style="fill:#000000; fill-opacity:1.0000; 
stroke:#000000; stroke-width:0.0000; stroke-opacity:1; 
stroke-linecap:round; stroke-linejoin:round;">
<circle cx="19.0500" cy="9.5500" r="1.1000" /> 
</g>
<g style="fill:#000000; fill-opacity:1.0000; 
stroke:#000000; stroke-width:0.0212; stroke-opacity:1; 
stroke-linecap:round; stroke-linejoin:round;">
</g>
<g style="fill:#000000; fill-opacity:1.0000; 
stroke:#000000; stroke-width:0.0000; stroke-opacity:1; 
stroke-linecap:round; stroke-linejoin:round;">
<circle cx="3.0500" cy="3.0500" r="1.1000" /> 
</g>
<g style="fill:#000000; fill-opacity:1.0000; 
stroke:#000000; stroke-width:0.0212; stroke-opacity:1; 
stroke-linecap:round; stroke-linejoin:round;">
</g>
<g style="fill:#000000; fill-opacity:1.0000; 
stroke:#000000; stroke-width:0.0000; stroke-opacity:1; 
stroke-linecap:round; stroke-linejoin:round;">
<circle cx="3.0500" cy="9.5500" r="1.1000" /> 
</g>
<g style="fill:#000000; fill-opacity:1.0000; 
stroke:#000000; stroke-width:0.0212; stroke-opacity:1; 
stroke-linecap:round; stroke-linejoin:round;">
</g>
<g style="fill:#000000; fill-opacity:1.0000; 
stroke:#000000; stroke-width:0.0000; stroke-opacity:1; 
stroke-linecap:round; stroke-linejoin:round;">
<circle cx="19.0500" cy="3.0500" r="1.1000" /> 
</g>
<g style="fill:#000000; fill-opacity:1.0000; 
stroke:#000000; stroke-width:0.0212; stroke-opacity:1; 
stroke-linecap:round; stroke-linejoin:round;">
</g>
<g style="fill:#FFFFFF; fill-opacity:1.0000; 
stroke:#FFFFFF; stroke-width:0.0212; stroke-opacity:1; 
stroke-linecap:round; stroke-linejoin:round;">
<g >
</g>
<g style="fill:#279B00; fill-opacity:0.4000; 
stroke:#279B00; stroke-width:0.0212; stroke-opacity:1; 
stroke-linecap:round; stroke-linejoin:round;">
</g>
<g style="fill:#279B00; fill-opacity:0.4000; 
stroke:#279B00; stroke-width:0.0000; stroke-opacity:1; 
stroke-linecap:round; stroke-linejoin:round;">
<circle cx="11.0500" cy="3.0500" r="2.0000" /> 
</g>
<g style="fill:#279B00; fill-opacity:0.4000; 
stroke:#279B00; stroke-width:0.0212; stroke-opacity:1; 
stroke-linecap:round; stroke-linejoin:round;">
</g>
<g >
</g>
<g style="fill:#279B00; fill-opacity:0.4000; 
stroke:#279B00; stroke-width:0.0212; stroke-opacity:1; 
stroke-linecap:round; stroke-linejoin:round;">
</g>
<g style="fill:#279B00; fill-opacity:0.4000; 
stroke:#279B00; stroke-width:0.0000; stroke-opacity:1; 
stroke-linecap:round; stroke-linejoin:round;">
<circle cx="11.0500" cy="9.5500" r="2.0000" /> 
</g>
<g style="fill:#279B00; fill-opacity:0.4000; 
stroke:#279B00; stroke-width:0.0212; stroke-opacity:1; 
stroke-linecap:round; stroke-linejoin:round;">
</g>
<g >
</g>
<g style="fill:#279B00; fill-opacity:0.4000; 
stroke:#279B00; stroke-width:0.0212; stroke-opacity:1; 
stroke-linecap:round; stroke-linejoin:round;">
</g>
<g style="fill:#279B00; fill-opacity:0.4000; 
stroke:#279B00; stroke-width:0.0000; stroke-opacity:1; 
stroke-linecap:round; stroke-linejoin:round;">
<circle cx="19.0500" cy="9.5500" r="2.0000" /> 
</g>
<g style="fill:#279B00; fill-opacity:0.4000; 
stroke:#279B00; stroke-width:0.0212; stroke-opacity:1; 
stroke-linecap:round; stroke-linejoin:round;">
</g>
<g >
</g>
<g style="fill:#279B00; fill-opacity:0.4000; 
stroke:#279B00; stroke-width:0.0212; stroke-opacity:1; 
stroke-linecap:round; stroke-linejoin:round;">
</g>
<g style="fill:#279B00; fill-opacity:0.4000; 
stroke:#279B00; stroke-width:0.0000; stroke-opacity:1; 
stroke-linecap:round; stroke-linejoin:round;">
<circle cx="3.0500" cy="3.0500" r="2.0000" /> 
</g>
<g style="fill:#279B00; fill-opacity:0.4000; 
stroke:#279B00; stroke-width:0.0212; stroke-opacity:1; 
stroke-linecap:round; stroke-linejoin:round;">
</g>
<g >
</g>
<g style="fill:#279B00; fill-opacity:0.4000; 
stroke:#279B00; stroke-width:0.0212; stroke-opacity:1; 
stroke-linecap:round; stroke-linejoin:round;">
</g>
<g style="fill:#279B00; fill-opacity:0.4000; 
stroke:#279B00; stroke-width:0.0000; stroke-opacity:1; 
stroke-linecap:round; stroke-linejoin:round;">
<circle cx="3.0500" cy="9.5500" r="2.0000" /> 
</g>
<g style="fill:#279B00; fill-opacity:0.4000; 
stroke:#279B00; stroke-width:0.0212; stroke-opacity:1; 
stroke-linecap:round; stroke-linejoin:round;">
</g>
<g >
</g>
<g style="fill:#279B00; fill-opacity:0.4000; 
stroke:#279B00; stroke-width:0.0212; stroke-opacity:1; 
stroke-linecap:round; stroke-linejoin:round;">
</g>
<g style="fill:#279B00; fill-opacity:0.4000; 
stroke:#279B00; stroke-width:0.0000; stroke-opacity:1; 
stroke-linecap:round; stroke-linejoin:round;">
<circle cx="19.0500" cy="3.0500" r="2.0000" /> 
</g>
<g style="fill:#279B00; fill-opacity:0.4000; 
stroke:#279B00; stroke-width:0.0212; stroke-opacity:1; 
stroke-linecap:round; stroke-linejoin:round;">
</g>
<g >
</g>
<g >
</g>
<g >
</g>
</g>
<g style="fill:#FFFFFF; fill-opacity:1.0000; 
stroke:#FFFFFF; stroke-width:0.0212; stroke-opacity:1; 
stroke-linecap:round; stroke-linejoin:round;">
<g >
</g>
<g >
</g>
<g >
</g>
<g >
</g>
<g >
</g>
<g >
</g>
<g >
</g>
<g >
</g>
<g >
</g>
</g>
<g style="fill:#FFFFFF; fill-opacity:1.0000; 
stroke:#FFFFFF; stroke-width:0.0212; stroke-opacity:1; 
stroke-linecap:round; stroke-linejoin:round;">
<g >
</g>
<g >
</g>
<g >
</g>
<g >
</g>
<g >
</g>
<g >
</g>
<g >
</g>
<g >
</g>
<g >
</g>
</g>
<g style="fill:#000000; fill-opacity:1.0000; 
stroke:#000000; stroke-width:0.0212; stroke-opacity:1; 
stroke-linecap:round; stroke-linejoin:round;">
</g>
<g style="fill:#000000; fill-opacity:1.0000; 
stroke:#000000; stroke-width:0.0000; stroke-opacity:1; 
stroke-linecap:round; stroke-linejoin:round;">
<circle cx="11.0500" cy="3.0500" r="1.1000" /> 
</g>
<g style="fill:#000000; fill-opacity:1.0000; 
stroke:#000000; stroke-width:0.0212; stroke-opacity:1; 
stroke-linecap:round; stroke-linejoin:round;">
</g>
<g style="fill:#000000; fill-opacity:1.0000; 
stroke:#000000; stroke-width:0.0000; stroke-opacity:1; 
stroke-linecap:round; stroke-linejoin:round;">
<circle cx="11.0500" cy="9.5500" r="1.1000" /> 
</g>
<g style="fill:#000000; fill-opacity:1.0000; 
stroke:#000000; stroke-width:0.0212; stroke-opacity:1; 
stroke-linecap:round; stroke-linejoin:round;">
</g>
<g style="fill:#000000; fill-opacity:1.0000; 
stroke:#000000; stroke-width:0.0000; stroke-opacity:1; 
stroke-linecap:round; stroke-linejoin:round;">
<circle cx="19.0500" cy="9.5500" r="1.1000" /> 
</g>
<g style="fill:#000000; fill-opacity:1.0000; 
stroke:#000000; stroke-width:0.0212; stroke-opacity:1; 
stroke-linecap:round; stroke-linejoin:round;">
</g>
<g style="fill:#000000; fill-opacity:1.0000; 
stroke:#000000; stroke-width:0.0000; stroke-opacity:1; 
stroke-linecap:round; stroke-linejoin:round;">
<circle cx="3.0500" cy="3.0500" r="1.1000" /> 
</g>
<g style="fill:#000000; fill-opacity:1.0000; 
stroke:#000000; stroke-width:0.0212; stroke-opacity:1; 
stroke-linecap:round; stroke-linejoin:round;">
</g>
<g style="fill:#000000; fill-opacity:1.0000; 
stroke:#000000; stroke-width:0.0000; stroke-opacity:1; 
stroke-linecap:round; stroke-linejoin:round;">
<circle cx="3.0500" cy="9.5500" r="1.1000" /> 
</g>
<g style="fill:#000000; fill-opacity:1.0000; 
stroke:#000000; stroke-width:0.0212; stroke-opacity:1; 
stroke-linecap:round; stroke-linejoin:round;">
</g>
<g style="fill:#000000; fill-opacity:1.0000; 
stroke:#000000; stroke-width:0.0000; stroke-opacity:1; 
stroke-linecap:round; stroke-linejoin:round;">
<circle cx="19.0500" cy="3.0500" r="1.1000" /> 
</g>
<g style="fill:#000000; fill-opacity:1.0000; 
stroke:#000000; stroke-width:0.0212; stroke-opacity:1; 
stroke-linecap:round; stroke-linejoin:round;">
</g>
<g style="fill:#FFFFFF; fill-opacity:1.0000; 
stroke:#FFFFFF; stroke-width:0.0212; stroke-opacity:1; 
stroke-linecap:round; stroke-linejoin:round;">
</g>
<g style="fill:#00D91D; fill-opacity:1.0000; 
stroke:#00D91D; stroke-width:0.0212; stroke-opacity:1; 
stroke-linecap:round; stroke-linejoin:round;">
</g>
<g style="fill:#00D91D; fill-opacity:1.0000; 
stroke:#00D91D; stroke-width:0.0100; stroke-opacity:1; 
stroke-linecap:round; stroke-linejoin:round;">
</g>
<g style="fill:#00D91D; fill-opacity:0.0; 
stroke:#00D91D; stroke-width:0.0100; stroke-opacity:1; 
stroke-linecap:round; stroke-linejoin:round;">
<path d="M8.3000 0.3000
L13.8000 0.3000
" />
<path d="M8.3000 5.8000
L8.3000 0.3000
" />
<path d="M13.8000 0.3000
L13.8000 5.8000
" />
<path d="M13.8000 5.8000
L8.3000 5.8000
" />
<path d="M8.3000 6.8000
L13.8000 6.8000
" />
<path d="M8.3000 12.3000
L8.3000 6.8000
" />
<path d="M13.8000 6.8000
L13.8000 12.3000
" />
<path d="M13.8000 12.3000
L8.3000 12.3000
" />
<path d="M16.3000 6.8000
L21.8000 6.8000
" />
<path d="M16.3000 12.3000
L16.3000 6.8000
" />
<path d="M21.8000 6.8000
L21.8000 12.3000
" />
<path d="M21.8000 12.3000
L16.3000 12.3000
" />
<path d="M0.3000 0.3000
L5.8000 0.3000
" />
<path d="M0.3000 5.8000
L0.3000 0.3000
" />
<path d="M5.8000 0.3000
L5.8000 5.8000
" />
<path d="M5.8000 5.8000
L0.3000 5.8000
" />
<path d="M0.3000 6.8000
L5.8000 6.8000
" />
<path d="M0.3000 12.3000
L0.3000 6.8000
" />
<path d="M5.8000 6.8000
L5.8000 12.3000
" />
<path d="M5.8000 12.3000
L0.3000 12.3000
" />
<path d="M16.3000 0.3000
L21.8000 0.3000
" />
<path d="M16.3000 5.8000
L16.3000 0.3000
" />
<path d="M21.8000 0.3000
L21.8000 5.8000
" />
<path d="M21.8000 5.8000
L16.3000 5.8000
" />
<g >
</g>
<g >
</g>
<g >
</g>
<g >
</g>
<g >
</g>
<g >
</g>
<g >
</g>
<g >
</g>
<g >
</g>
</g>
<g style="fill:#FFFFFF; fill-opacity:0.0; 
stroke:#FFFFFF; stroke-width:0.0100; stroke-opacity:1; 
stroke-linecap:round; stroke-linejoin:round;">
<g >
</g>
<g >
</g>
<g >
</g>
<g >
</g>
<g >
</g>
<g >
</g>
<g >
</g>
<g >
</g>
<g >
</g>
</g>
<g style="fill:#FFFFFF; fill-opacity:0.0; 
stroke:#FFFFFF; stroke-width:0.0100; stroke-opacity:1; 
stroke-linecap:round; stroke-linejoin:round;">
</g>
<g style="fill:#3D3D3D; fill-opacity:0.0; 
stroke:#3D3D3D; stroke-width:0.0100; stroke-opacity:1; 
stroke-linecap:round; stroke-linejoin:round;">
</g>
<g style="fill:#3D3D3D; fill-opacity:0.0; 
stroke:#3D3D3D; stroke-width:0.1500; stroke-opacity:1; 
stroke-linecap:round; stroke-linejoin:round;">
<path d="M21.5500 6.0500
L0.5500 6.0500
" />
<path d="M0.5500 6.5500
L21.5500 6.5500
" />
<g >
</g>
<g >
</g>
<g >
</g>
<g >
</g>
<g >
</g>
<g >
</g>
<g >
</g>
<g >
</g>
<g >
</g>
</g>
<g style="fill:#FFFFFF; fill-opacity:0.0; 
stroke:#FFFFFF; stroke-width:0.1500; stroke-opacity:1; 
stroke-linecap:round; stroke-linejoin:round;">
<g >
</g>
<g >
</g>
<g >
</g>
<g >
</g>
<g >
</g>
<g >
</g>
<g >
</g>
<g >
</g>
<g >
</g>
</g>
<g style="fill:#FFFFFF; fill-opacity:0.0; 
stroke:#FFFFFF; stroke-width:0.1500; stroke-opacity:1; 
stroke-linecap:round; stroke-linejoin:round;">
</g>
<g style="fill:#2F2D31; fill-opacity:0.0; 
stroke:#2F2D31; stroke-width:0.1500; stroke-opacity:1; 
stroke-linecap:round; stroke-linejoin:round;">
</g>
<g style="fill:#2F2D31; fill-opacity:0.0; 
stroke:#2F2D31; stroke-width:0.1000; stroke-opacity:1; 
stroke-linecap:round; stroke-linejoin:round;">
<path d="M0.0500 12.5500
L0.0500 0.0500
" />
<path d="M0.0500 0.0500
L22.0500 0.0500
" />
<path d="M22.0500 12.5500
L0.0500 12.5500
" />
<path d="M22.0500 0.0500
L22.0500 12.5500
" />
<g >
</g>
<g >
</g>
<g >
</g>
<g >
</g>
<g >
</g>
<g >
</g>
<g >
</g>
<g >
</g>
<g >
</g>
</g> 
</svg>
