<?xml version="1.0" standalone="no"?>
 <!DOCTYPE svg PUBLIC "-//W3C//DTD SVG 1.1//EN" 
 "http://www.w3.org/Graphics/SVG/1.1/DTD/svg11.dtd"> 
<svg
  xmlns:svg="http://www.w3.org/2000/svg"
  xmlns="http://www.w3.org/2000/svg"
  xmlns:xlink="http://www.w3.org/1999/xlink"
  version="1.1"
  width="292.4048mm" height="120.9548mm" viewBox="0.0000 0.0000 292.4048 120.9548">
<title>SVG Image created as working-brd.svg date 2023/09/26 19:35:00 </title>
  <desc>Image generated by PCBNEW </desc>
<g style="fill:#000000; fill-opacity:1.0000;stroke:#000000; stroke-opacity:1.0000;
stroke-linecap:round; stroke-linejoin:round;"
 transform="translate(0 0) scale(1 1)">
</g>
<g style="fill:#000000; fill-opacity:0.0; 
stroke:#000000; stroke-width:0.0000; stroke-opacity:1; 
stroke-linecap:round; stroke-linejoin:round;">
</g>
<g style="fill:#000000; fill-opacity:1.0000; 
stroke:#000000; stroke-width:0.0212; stroke-opacity:1; 
stroke-linecap:round; stroke-linejoin:round;">
<rect x="-5.000000" y="-5.000000" width="302.404800" height="130.954800" rx="0.000000" />
</g>
<g style="fill:#FFFFFF; fill-opacity:1.0000; 
stroke:#FFFFFF; stroke-width:0.0212; stroke-opacity:1; 
stroke-linecap:round; stroke-linejoin:round;">
<g >
</g>
<g >
</g>
<g >
</g>
<g >
</g>
<g >
</g>
<g >
</g>
<g >
</g>
</g>
<g style="fill:#000000; fill-opacity:1.0000; 
stroke:#000000; stroke-width:0.0212; stroke-opacity:1; 
stroke-linecap:round; stroke-linejoin:round;">
</g>
<g style="fill:#FFFFFF; fill-opacity:1.0000; 
stroke:#FFFFFF; stroke-width:0.0212; stroke-opacity:1; 
stroke-linecap:round; stroke-linejoin:round;">
</g>
<g style="fill:#37CBCB; fill-opacity:1.0000; 
stroke:#37CBCB; stroke-width:0.0212; stroke-opacity:1; 
stroke-linecap:round; stroke-linejoin:round;">
</g>
<g style="fill:#37CBCB; fill-opacity:1.0000; 
stroke:#37CBCB; stroke-width:0.3048; stroke-opacity:1; 
stroke-linecap:round; stroke-linejoin:round;">
<path style="fill:#37CBCB; fill-opacity:1.0000; 
stroke:#37CBCB; stroke-width:0.3048; stroke-opacity:1; 
stroke-linecap:round; stroke-linejoin:round;fill-rule:evenodd;"
d="M 204.4979,62.6542
205.0009,62.6593
205.5038,62.6720
206.0067,62.6923
206.5096,62.7202
207.0125,62.7583
207.5155,62.8091
208.0184,62.8726
208.5213,62.9514
209.0242,63.0403
209.5271,63.1368
210.0301,63.2333
210.5330,63.3247
211.0359,63.4009
211.5388,63.4619
212.0417,63.5051
212.5447,63.5381
213.0450,63.5584
213.5480,63.5711
214.0509,63.5762
214.5538,63.5711
215.0567,63.5584
215.5596,63.5381
216.0626,63.5051
216.5655,63.4619
217.0684,63.4009
217.5713,63.3247
218.0742,63.2333
218.5772,63.1368
219.0801,63.0403
219.5830,62.9514
220.0859,62.8752
220.5888,62.8117
221.0918,62.7634
221.5947,62.7278
222.0951,62.7024
222.5980,62.6847
223.1009,62.6720
223.6038,62.6669
224.1067,62.6669
224.6097,62.6720
225.1126,62.6796
225.6155,62.6948
226.1184,62.7177
226.6213,62.7456
227.1243,62.7863
227.6272,62.8345
228.1301,62.8955
228.6330,62.9641
229.1359,63.0403
229.6389,63.1190
230.1418,63.1977
230.6447,63.2714
231.1451,63.3324
231.6480,63.3857
232.1509,63.4238
232.6538,63.4543
233.1568,63.4721
233.6597,63.4797
234.1626,63.4797
234.6655,63.4721
235.1684,63.4568
235.6714,63.4314
236.1743,63.3959
236.6772,63.3527
237.1801,63.2968
237.6830,63.2358
238.1860,63.1723
238.6889,63.1038
239.1918,63.0403
239.6947,62.9793
240.1951,62.9260
240.6980,62.8802
241.2009,62.8421
241.7039,62.8142
242.2068,62.7913
242.7097,62.7736
243.2126,62.7634
243.7155,62.7583
244.2185,62.7583
244.7214,62.7634
245.2243,62.7761
245.7272,62.7913
246.2301,62.8117
246.7331,62.8396
247.2360,62.8701
247.7389,62.9082
248.2418,62.9488
248.7447,62.9945
249.2451,63.0403
249.7480,63.0860
250.2510,63.1317
250.7539,63.1749
251.2568,63.2130
251.7597,63.2435
252.2626,63.2689
252.7656,63.2866
253.2685,63.2993
253.7714,63.3019
254.2743,63.3019
254.7772,63.2917
255.2802,63.2790
255.7831,63.2587
256.2860,63.2358
256.7889,63.2054
257.2918,63.1749
257.7948,63.1419
258.2951,63.1063
258.7981,63.0733
259.3010,63.0403
259.8039,63.0098
260.3068,62.9844
260.8097,62.9590
261.3127,62.9412
261.8156,62.9234
262.3185,62.9133
262.8214,62.9031
263.3243,62.9006
263.8273,62.8980
264.3302,62.9006
264.8331,62.9082
265.3360,62.9158
265.8389,62.9260
266.3419,62.9412
266.8448,62.9564
267.3452,62.9717
267.8481,62.9895
268.3510,63.0072
268.8539,63.0250
269.3568,63.0403
269.8598,63.0555
270.3627,63.0682
270.8656,63.0784
271.3685,63.0885
271.8714,63.0936
272.3744,63.0987
272.8773,63.0987
273.3802,63.0987
273.8831,63.0961
274.3860,63.0911
274.8890,63.0860
275.3919,63.0784
275.8948,63.0707
276.3952,63.0657
276.8981,63.0580
277.4010,63.0530
277.9039,63.0479
278.4069,63.0428
278.9098,63.0403
279.4127,63.0403
279.4127,64.2645
278.9098,64.2645
278.4069,64.2620
277.9039,64.2569
277.4010,64.2518
276.8981,64.2468
276.3952,64.2391
275.8948,64.2341
275.3919,64.2264
274.8890,64.2188
274.3860,64.2137
273.8831,64.2087
273.3802,64.2061
272.8773,64.2061
272.3744,64.2061
271.8714,64.2112
271.3685,64.2163
270.8656,64.2264
270.3627,64.2366
269.8598,64.2493
269.3568,64.2645
268.8539,64.2798
268.3510,64.2976
267.8481,64.3153
267.3452,64.3331
266.8448,64.3484
266.3419,64.3636
265.8389,64.3788
265.3360,64.3890
264.8331,64.3966
264.3302,64.4042
263.8273,64.4068
263.3243,64.4042
262.8214,64.4017
262.3185,64.3915
261.8156,64.3814
261.3127,64.3636
260.8097,64.3458
260.3068,64.3204
259.8039,64.2950
259.3010,64.2645
258.7981,64.2315
258.2951,64.1985
257.7948,64.1629
257.2918,64.1299
256.7889,64.0994
256.2860,64.0690
255.7831,64.0461
255.2802,64.0258
254.7772,64.0131
254.2743,64.0029
253.7714,64.0029
253.2685,64.0055
252.7656,64.0182
252.2626,64.0359
251.7597,64.0613
251.2568,64.0918
250.7539,64.1299
250.2510,64.1731
249.7480,64.2188
249.2451,64.2645
248.7447,64.3103
248.2418,64.3560
247.7389,64.3966
247.2360,64.4347
246.7331,64.4652
246.2301,64.4931
245.7272,64.5135
245.2243,64.5287
244.7214,64.5414
244.2185,64.5465
243.7155,64.5465
243.2126,64.5414
242.7097,64.5312
242.2068,64.5135
241.7039,64.4906
241.2009,64.4627
240.6980,64.4246
240.1951,64.3788
239.6947,64.3255
239.1918,64.2645
238.6889,64.2010
238.1860,64.1325
237.6830,64.0690
237.1801,64.0080
236.6772,63.9521
236.1743,63.9089
235.6714,63.8734
235.1684,63.8480
234.6655,63.8327
234.1626,63.8251
233.6597,63.8251
233.1568,63.8327
232.6538,63.8505
232.1509,63.8810
231.6480,63.9191
231.1451,63.9724
230.6447,64.0334
230.1418,64.1071
229.6389,64.1858
229.1359,64.2645
228.6330,64.3407
228.1301,64.4093
227.6272,64.4703
227.1243,64.5185
226.6213,64.5592
226.1184,64.5871
225.6155,64.6100
225.1126,64.6252
224.6097,64.6328
224.1067,64.6379
223.6038,64.6379
223.1009,64.6328
222.5980,64.6201
222.0951,64.6024
221.5947,64.5770
221.0918,64.5414
220.5888,64.4931
220.0859,64.4296
219.5830,64.3534
219.0801,64.2645
218.5772,64.1680
218.0742,64.0715
217.5713,63.9801
217.0684,63.9039
216.5655,63.8429
216.0626,63.7997
215.5596,63.7667
215.0567,63.7464
214.5538,63.7337
214.0509,63.7286
213.5480,63.7337
213.0450,63.7464
212.5447,63.7667
212.0417,63.7997
211.5388,63.8429
211.0359,63.9039
210.5330,63.9801
210.0301,64.0715
209.5271,64.1680
209.0242,64.2645
208.5213,64.3534
208.0184,64.4322
207.5155,64.4957
207.0125,64.5465
206.5096,64.5846
206.0067,64.6125
205.5038,64.6328
205.0009,64.6455
204.4979,64.6506
203.9950,64.6532
203.4946,64.6506
202.9917,64.6455
202.4888,64.6328
201.9859,64.6125
201.4830,64.5846
200.9800,64.5465
200.4771,64.4957
199.9742,64.4322
199.4713,64.3534
198.9684,64.2645
198.4654,64.1680
197.9625,64.0715
197.4596,63.9801
196.9567,63.9039
196.4538,63.8429
195.9508,63.7997
195.4479,63.7667
194.9450,63.7464
194.4421,63.7337
193.9417,63.7286
193.4388,63.7337
192.9359,63.7464
192.4329,63.7667
191.9300,63.7997
191.4271,63.8429
190.9242,63.9039
190.4213,63.9801
189.9183,64.0715
189.4154,64.1680
188.9125,64.2645
188.4096,64.3534
187.9067,64.4322
187.4037,64.4957
186.9008,64.5465
186.3979,64.5846
185.8950,64.6125
185.3921,64.6328
184.8917,64.6455
184.3888,64.6506
183.8858,64.6532
183.3829,64.6506
182.8800,64.6455
182.3771,64.6328
181.8742,64.6125
181.3712,64.5846
180.8683,64.5465
180.3654,64.4957
179.8625,64.4322
179.3596,64.3534
178.8566,64.2645
178.3537,64.1680
177.8508,64.0715
177.3479,63.9801
176.8450,63.9039
176.3420,63.8429
175.8417,63.7997
175.3387,63.7667
174.8358,63.7464
174.3329,63.7337
173.8300,63.7286
173.3271,63.7337
172.8241,63.7464
172.3212,63.7667
171.8183,63.7997
171.3154,63.8429
170.8125,63.9039
170.3095,63.9801
169.8066,64.0715
169.3037,64.1680
168.8008,64.2645
168.2979,64.3534
167.7949,64.4322
167.2920,64.4957
166.7916,64.5465
166.2887,64.5846
165.7858,64.6125
165.2829,64.6328
164.7800,64.6455
164.2770,64.6506
163.7741,64.6532
163.2712,64.6506
162.7683,64.6455
162.2654,64.6328
161.7624,64.6125
161.2595,64.5846
160.7566,64.5465
160.2537,64.4957
159.7508,64.4322
159.2478,64.3534
158.7449,64.2645
158.2420,64.1680
157.7416,64.0715
157.2387,63.9801
156.7358,63.9039
156.2329,63.8429
155.7299,63.7997
155.2270,63.7667
154.7241,63.7464
154.2212,63.7337
153.7183,63.7286
153.2153,63.7337
152.7124,63.7464
152.2095,63.7667
151.7066,63.7997
151.2037,63.8429
150.7007,63.9039
150.1978,63.9801
149.6949,64.0715
149.1920,64.1680
148.6916,64.2645
148.1887,64.3534
147.6858,64.4322
147.1828,64.4957
146.6799,64.5465
146.1770,64.5846
145.6741,64.6125
145.1712,64.6328
144.6682,64.6455
144.1653,64.6506
143.6624,64.6532
143.1595,64.6506
142.6566,64.6455
142.1536,64.6328
141.6507,64.6125
141.1478,64.5846
140.6449,64.5465
140.1420,64.4957
139.6416,64.4322
139.1387,64.3534
138.6357,64.2645
138.1328,64.1680
137.6299,64.0715
137.1270,63.9801
136.6241,63.9039
136.1211,63.8429
135.6182,63.7997
135.1153,63.7667
134.6124,63.7464
134.1095,63.7337
133.6065,63.7286
133.1036,63.7337
132.6007,63.7464
132.0978,63.7667
131.5949,63.7997
131.0919,63.8429
130.5916,63.9039
130.0886,63.9801
129.5857,64.0715
129.0828,64.1680
128.5799,64.2645
128.0770,64.3534
127.5740,64.4322
127.0711,64.4957
126.5682,64.5465
126.0653,64.5846
125.5624,64.6125
125.0594,64.6328
124.5565,64.6455
124.0536,64.6506
123.5507,64.6532
123.0478,64.6506
122.5448,64.6455
122.0419,64.6328
121.5415,64.6125
121.0386,64.5846
120.5357,64.5465
120.0328,64.4957
119.5299,64.4322
119.0269,64.3534
118.5240,64.2645
118.0211,64.1680
117.5182,64.0715
117.0153,63.9801
116.5123,63.9039
116.0094,63.8429
115.5065,63.7997
115.0036,63.7667
114.5007,63.7464
113.9977,63.7337
113.4948,63.7286
112.9919,63.7337
112.4915,63.7464
111.9886,63.7667
111.4857,63.7997
110.9828,63.8429
110.4798,63.9039
109.9769,63.9801
109.4740,64.0715
108.9711,64.1680
108.4682,64.2645
107.9652,64.3534
107.4623,64.4322
106.9594,64.4957
106.4565,64.5465
105.9536,64.5846
105.4506,64.6125
104.9477,64.6328
104.4448,64.6455
103.9419,64.6506
103.4390,64.6532
102.9386,64.6506
102.4357,64.6455
101.9327,64.6328
101.4298,64.6125
100.9269,64.5846
100.4240,64.5465
99.9211,64.4957
99.4181,64.4322
98.9152,64.3534
98.4123,64.2645
97.9094,64.1680
97.4065,64.0715
96.9035,63.9801
96.4006,63.9039
95.8977,63.8429
95.3948,63.7997
94.8919,63.7667
94.3889,63.7464
93.8886,63.7337
93.3856,63.7286
92.8827,63.7337
92.3798,63.7464
91.8769,63.7667
91.3740,63.7997
90.8710,63.8429
90.3681,63.9039
89.8652,63.9801
89.3623,64.0715
88.8594,64.1680
88.3564,64.2645
87.8535,64.3534
87.3506,64.4322
86.8477,64.4957
86.3448,64.5465
85.8418,64.5846
85.3389,64.6125
84.8385,64.6328
84.3356,64.6455
83.8327,64.6506
83.3298,64.6532
82.8269,64.6506
82.3239,64.6455
81.8210,64.6328
81.3181,64.6125
80.8152,64.5846
80.3123,64.5465
79.8093,64.4957
79.3064,64.4322
78.8035,64.3534
78.3006,64.2645
77.7977,64.1680
77.2947,64.0715
76.7918,63.9801
76.2889,63.9039
75.7885,63.8429
75.2856,63.7997
74.7827,63.7667
74.2798,63.7464
73.7768,63.7337
73.2739,63.7286
72.7710,63.7337
72.2681,63.7464
71.7652,63.7667
71.2622,63.7997
70.7593,63.8429
70.2564,63.9039
69.7535,63.9801
69.2506,64.0715
68.7476,64.1680
68.2447,64.2645
67.7418,64.3534
67.2389,64.4296
66.7385,64.4931
66.2356,64.5414
65.7327,64.5770
65.2297,64.6024
64.7268,64.6201
64.2239,64.6328
63.7210,64.6379
63.2181,64.6379
62.7151,64.6328
62.2122,64.6252
61.7093,64.6100
61.2064,64.5871
60.7035,64.5592
60.2005,64.5185
59.6976,64.4703
59.1947,64.4093
58.6918,64.3407
58.1889,64.2645
57.6885,64.1858
57.1856,64.1071
56.6826,64.0334
56.1797,63.9724
55.6768,63.9191
55.1739,63.8810
54.6710,63.8505
54.1680,63.8327
53.6651,63.8251
53.1622,63.8251
52.6593,63.8327
52.1564,63.8480
51.6534,63.8734
51.1505,63.9089
50.6476,63.9521
50.1447,64.0080
49.6418,64.0690
49.1388,64.1325
48.6385,64.2010
48.1355,64.2645
47.6326,64.3255
47.1297,64.3788
46.6268,64.4246
46.1239,64.4627
45.6209,64.4906
45.1180,64.5135
44.6151,64.5312
44.1122,64.5414
43.6093,64.5465
43.1063,64.5465
42.6034,64.5414
42.1005,64.5287
41.5976,64.5135
41.0947,64.4931
40.5917,64.4652
40.0888,64.4347
39.5884,64.3966
39.0855,64.3560
38.5826,64.3103
38.0797,64.2645
37.5768,64.2188
37.0738,64.1731
36.5709,64.1299
36.0680,64.0918
35.5651,64.0613
35.0622,64.0359
34.5592,64.0182
34.0563,64.0055
33.5534,64.0029
33.0505,64.0029
32.5476,64.0131
32.0446,64.0258
31.5417,64.0461
31.0388,64.0690
30.5384,64.0994
30.0355,64.1299
29.5326,64.1629
29.0297,64.1985
28.5267,64.2315
28.0238,64.2645
27.5209,64.2950
27.0180,64.3204
26.5151,64.3458
26.0121,64.3636
25.5092,64.3814
25.0063,64.3915
24.5034,64.4017
24.0005,64.4042
23.4975,64.4068
22.9946,64.4042
22.4917,64.3966
21.9888,64.3890
21.4884,64.3788
20.9855,64.3636
20.4826,64.3484
19.9796,64.3331
19.4767,64.3153
18.9738,64.2976
18.4709,64.2798
17.9680,64.2645
17.4650,64.2493
16.9621,64.2366
16.4592,64.2264
15.9563,64.2163
15.4534,64.2112
14.9504,64.2061
14.4475,64.2061
13.9446,64.2061
13.4417,64.2087
12.9388,64.2137
12.4384,64.2188
11.9355,64.2264
11.4325,64.2341
10.9296,64.2391
10.4267,64.2468
9.9238,64.2518
9.4209,64.2569
8.9179,64.2620
8.4150,64.2645
7.9121,64.2645
7.9121,63.6524
7.9121,63.0403
8.4150,63.0403
8.9179,63.0428
9.4209,63.0479
9.9238,63.0530
10.4267,63.0580
10.9296,63.0657
11.4325,63.0707
11.9355,63.0784
12.4384,63.0860
12.9388,63.0911
13.4417,63.0961
13.9446,63.0987
14.4475,63.0987
14.9504,63.0987
15.4534,63.0936
15.9563,63.0885
16.4592,63.0784
16.9621,63.0682
17.4650,63.0555
17.9680,63.0403
18.4709,63.0250
18.9738,63.0072
19.4767,62.9895
19.9796,62.9717
20.4826,62.9564
20.9855,62.9412
21.4884,62.9260
21.9888,62.9158
22.4917,62.9082
22.9946,62.9006
23.4975,62.8980
24.0005,62.9006
24.5034,62.9031
25.0063,62.9133
25.5092,62.9234
26.0121,62.9412
26.5151,62.9590
27.0180,62.9844
27.5209,63.0098
28.0238,63.0403
28.5267,63.0733
29.0297,63.1063
29.5326,63.1419
30.0355,63.1749
30.5384,63.2054
31.0388,63.2358
31.5417,63.2587
32.0446,63.2790
32.5476,63.2917
33.0505,63.3019
33.5534,63.3019
34.0563,63.2993
34.5592,63.2866
35.0622,63.2689
35.5651,63.2435
36.0680,63.2130
36.5709,63.1749
37.0738,63.1317
37.5768,63.0860
38.0797,63.0403
38.5826,62.9945
39.0855,62.9488
39.5884,62.9082
40.0888,62.8701
40.5917,62.8396
41.0947,62.8117
41.5976,62.7913
42.1005,62.7761
42.6034,62.7634
43.1063,62.7583
43.6093,62.7583
44.1122,62.7634
44.6151,62.7736
45.1180,62.7913
45.6209,62.8142
46.1239,62.8421
46.6268,62.8802
47.1297,62.9260
47.6326,62.9793
48.1355,63.0403
48.6385,63.1038
49.1388,63.1723
49.6418,63.2358
50.1447,63.2968
50.6476,63.3527
51.1505,63.3959
51.6534,63.4314
52.1564,63.4568
52.6593,63.4721
53.1622,63.4797
53.6651,63.4797
54.1680,63.4721
54.6710,63.4543
55.1739,63.4238
55.6768,63.3857
56.1797,63.3324
56.6826,63.2714
57.1856,63.1977
57.6885,63.1190
58.1889,63.0403
58.6918,62.9641
59.1947,62.8955
59.6976,62.8345
60.2005,62.7863
60.7035,62.7456
61.2064,62.7177
61.7093,62.6948
62.2122,62.6796
62.7151,62.6720
63.2181,62.6669
63.7210,62.6669
64.2239,62.6720
64.7268,62.6847
65.2297,62.7024
65.7327,62.7278
66.2356,62.7634
66.7385,62.8117
67.2389,62.8752
67.7418,62.9514
68.2447,63.0403
68.7476,63.1368
69.2506,63.2333
69.7535,63.3247
70.2564,63.4009
70.7593,63.4619
71.2622,63.5051
71.7652,63.5381
72.2681,63.5584
72.7710,63.5711
73.2739,63.5762
73.7768,63.5711
74.2798,63.5584
74.7827,63.5381
75.2856,63.5051
75.7885,63.4619
76.2889,63.4009
76.7918,63.3247
77.2947,63.2333
77.7977,63.1368
78.3006,63.0403
78.8035,62.9514
79.3064,62.8726
79.8093,62.8091
80.3123,62.7583
80.8152,62.7202
81.3181,62.6923
81.8210,62.6720
82.3239,62.6593
82.8269,62.6542
83.3298,62.6516
83.8327,62.6542
84.3356,62.6593
84.8385,62.6720
85.3389,62.6923
85.8418,62.7202
86.3448,62.7583
86.8477,62.8091
87.3506,62.8726
87.8535,62.9514
88.3564,63.0403
88.8594,63.1368
89.3623,63.2333
89.8652,63.3247
90.3681,63.4009
90.8710,63.4619
91.3740,63.5051
91.8769,63.5381
92.3798,63.5584
92.8827,63.5711
93.3856,63.5762
93.8886,63.5711
94.3889,63.5584
94.8919,63.5381
95.3948,63.5051
95.8977,63.4619
96.4006,63.4009
96.9035,63.3247
97.4065,63.2333
97.9094,63.1368
98.4123,63.0403
98.9152,62.9514
99.4181,62.8726
99.9211,62.8091
100.4240,62.7583
100.9269,62.7202
101.4298,62.6923
101.9327,62.6720
102.4357,62.6593
102.9386,62.6542
103.4390,62.6516
103.9419,62.6542
104.4448,62.6593
104.9477,62.6720
105.4506,62.6923
105.9536,62.7202
106.4565,62.7583
106.9594,62.8091
107.4623,62.8726
107.9652,62.9514
108.4682,63.0403
108.9711,63.1368
109.4740,63.2333
109.9769,63.3247
110.4798,63.4009
110.9828,63.4619
111.4857,63.5051
111.9886,63.5381
112.4915,63.5584
112.9919,63.5711
113.4948,63.5762
113.9977,63.5711
114.5007,63.5584
115.0036,63.5381
115.5065,63.5051
116.0094,63.4619
116.5123,63.4009
117.0153,63.3247
117.5182,63.2333
118.0211,63.1368
118.5240,63.0403
119.0269,62.9514
119.5299,62.8726
120.0328,62.8091
120.5357,62.7583
121.0386,62.7202
121.5415,62.6923
122.0419,62.6720
122.5448,62.6593
123.0478,62.6542
123.5507,62.6516
124.0536,62.6542
124.5565,62.6593
125.0594,62.6720
125.5624,62.6923
126.0653,62.7202
126.5682,62.7583
127.0711,62.8091
127.5740,62.8726
128.0770,62.9514
128.5799,63.0403
129.0828,63.1368
129.5857,63.2333
130.0886,63.3247
130.5916,63.4009
131.0919,63.4619
131.5949,63.5051
132.0978,63.5381
132.6007,63.5584
133.1036,63.5711
133.6065,63.5762
134.1095,63.5711
134.6124,63.5584
135.1153,63.5381
135.6182,63.5051
136.1211,63.4619
136.6241,63.4009
137.1270,63.3247
137.6299,63.2333
138.1328,63.1368
138.6357,63.0403
139.1387,62.9514
139.6416,62.8726
140.1420,62.8091
140.6449,62.7583
141.1478,62.7202
141.6507,62.6923
142.1536,62.6720
142.6566,62.6593
143.1595,62.6542
143.6624,62.6516
144.1653,62.6542
144.6682,62.6593
145.1712,62.6720
145.6741,62.6923
146.1770,62.7202
146.6799,62.7583
147.1828,62.8091
147.6858,62.8726
148.1887,62.9514
148.6916,63.0403
149.1920,63.1368
149.6949,63.2333
150.1978,63.3247
150.7007,63.4009
151.2037,63.4619
151.7066,63.5051
152.2095,63.5381
152.7124,63.5584
153.2153,63.5711
153.7183,63.5762
154.2212,63.5711
154.7241,63.5584
155.2270,63.5381
155.7299,63.5051
156.2329,63.4619
156.7358,63.4009
157.2387,63.3247
157.7416,63.2333
158.2420,63.1368
158.7449,63.0403
159.2478,62.9514
159.7508,62.8726
160.2537,62.8091
160.7566,62.7583
161.2595,62.7202
161.7624,62.6923
162.2654,62.6720
162.7683,62.6593
163.2712,62.6542
163.7741,62.6516
164.2770,62.6542
164.7800,62.6593
165.2829,62.6720
165.7858,62.6923
166.2887,62.7202
166.7916,62.7583
167.2920,62.8091
167.7949,62.8726
168.2979,62.9514
168.8008,63.0403
169.3037,63.1368
169.8066,63.2333
170.3095,63.3247
170.8125,63.4009
171.3154,63.4619
171.8183,63.5051
172.3212,63.5381
172.8241,63.5584
173.3271,63.5711
173.8300,63.5762
174.3329,63.5711
174.8358,63.5584
175.3387,63.5381
175.8417,63.5051
176.3420,63.4619
176.8450,63.4009
177.3479,63.3247
177.8508,63.2333
178.3537,63.1368
178.8566,63.0403
179.3596,62.9514
179.8625,62.8726
180.3654,62.8091
180.8683,62.7583
181.3712,62.7202
181.8742,62.6923
182.3771,62.6720
182.8800,62.6593
183.3829,62.6542
183.8858,62.6516
184.3888,62.6542
184.8917,62.6593
185.3921,62.6720
185.8950,62.6923
186.3979,62.7202
186.9008,62.7583
187.4037,62.8091
187.9067,62.8726
188.4096,62.9514
188.9125,63.0403
189.4154,63.1368
189.9183,63.2333
190.4213,63.3247
190.9242,63.4009
191.4271,63.4619
191.9300,63.5051
192.4329,63.5381
192.9359,63.5584
193.4388,63.5711
193.9417,63.5762
194.4421,63.5711
194.9450,63.5584
195.4479,63.5381
195.9508,63.5051
196.4538,63.4619
196.9567,63.4009
197.4596,63.3247
197.9625,63.2333
198.4654,63.1368
198.9684,63.0403
199.4713,62.9514
199.9742,62.8726
200.4771,62.8091
200.9800,62.7583
201.4830,62.7202
201.9859,62.6923
202.4888,62.6720
202.9917,62.6593
203.4946,62.6542
203.9950,62.6516
Z" /> 
<path style="fill:#37CBCB; fill-opacity:1.0000; 
stroke:#37CBCB; stroke-width:0.3048; stroke-opacity:1; 
stroke-linecap:round; stroke-linejoin:round;fill-rule:evenodd;"
d="M 279.3924,36.6954
278.8895,36.6954
278.3865,36.6928
277.8836,36.6878
277.3807,36.6827
276.8778,36.6776
276.3749,36.6700
275.8745,36.6649
275.3716,36.6573
274.8686,36.6497
274.3657,36.6446
273.8628,36.6395
273.3599,36.6370
272.8570,36.6370
272.3540,36.6370
271.8511,36.6420
271.3482,36.6471
270.8453,36.6573
270.3424,36.6674
269.8394,36.6801
269.3365,36.6954
268.8336,36.7106
268.3307,36.7284
267.8278,36.7462
267.3248,36.7640
266.8245,36.7792
266.3215,36.7944
265.8186,36.8097
265.3157,36.8198
264.8128,36.8275
264.3099,36.8351
263.8069,36.8376
263.3040,36.8351
262.8011,36.8325
262.2982,36.8224
261.7953,36.8122
261.2923,36.7944
260.7894,36.7767
260.2865,36.7513
259.7836,36.7259
259.2807,36.6954
258.7777,36.6624
258.2748,36.6293
257.7744,36.5938
257.2715,36.5608
256.7686,36.5303
256.2657,36.4998
255.7628,36.4769
255.2598,36.4566
254.7569,36.4439
254.2540,36.4338
253.7511,36.4338
253.2482,36.4363
252.7452,36.4490
252.2423,36.4668
251.7394,36.4922
251.2365,36.5227
250.7336,36.5608
250.2306,36.6039
249.7277,36.6497
249.2248,36.6954
248.7244,36.7411
248.2215,36.7868
247.7186,36.8275
247.2157,36.8656
246.7127,36.8960
246.2098,36.9240
245.7069,36.9443
245.2040,36.9595
244.7011,36.9722
244.1981,36.9773
243.6952,36.9773
243.1923,36.9722
242.6894,36.9621
242.1865,36.9443
241.6835,36.9214
241.1806,36.8935
240.6777,36.8554
240.1748,36.8097
239.6744,36.7563
239.1715,36.6954
238.6686,36.6319
238.1656,36.5633
237.6627,36.4998
237.1598,36.4388
236.6569,36.3830
236.1540,36.3398
235.6510,36.3042
235.1481,36.2788
234.6452,36.2636
234.1423,36.2560
233.6394,36.2560
233.1364,36.2636
232.6335,36.2814
232.1306,36.3118
231.6277,36.3499
231.1248,36.4033
230.6244,36.4642
230.1215,36.5379
229.6185,36.6166
229.1156,36.6954
228.6127,36.7716
228.1098,36.8402
227.6069,36.9011
227.1039,36.9494
226.6010,36.9900
226.0981,37.0180
225.5952,37.0408
225.0923,37.0561
224.5893,37.0637
224.0864,37.0688
223.5835,37.0688
223.0806,37.0637
222.5777,37.0510
222.0747,37.0332
221.5744,37.0078
221.0714,36.9722
220.5685,36.9240
220.0656,36.8605
219.5627,36.7843
219.0598,36.6954
218.5568,36.5989
218.0539,36.5023
217.5510,36.4109
217.0481,36.3347
216.5452,36.2737
216.0422,36.2306
215.5393,36.1975
215.0364,36.1772
214.5335,36.1645
214.0306,36.1594
213.5276,36.1645
213.0247,36.1772
212.5243,36.1975
212.0214,36.2306
211.5185,36.2737
211.0156,36.3347
210.5127,36.4109
210.0097,36.5023
209.5068,36.5989
209.0039,36.6954
208.5010,36.7843
207.9981,36.8630
207.4951,36.9265
206.9922,36.9773
206.4893,37.0154
205.9864,37.0434
205.4835,37.0637
204.9805,37.0764
204.4776,37.0815
203.9747,37.0840
203.4743,37.0815
202.9714,37.0764
202.4685,37.0637
201.9656,37.0434
201.4626,37.0154
200.9597,36.9773
200.4568,36.9265
199.9539,36.8630
199.4510,36.7843
198.9480,36.6954
198.4451,36.5989
197.9422,36.5023
197.4393,36.4109
196.9364,36.3347
196.4334,36.2737
195.9305,36.2306
195.4276,36.1975
194.9247,36.1772
194.4218,36.1645
193.9214,36.1594
193.4185,36.1645
192.9155,36.1772
192.4126,36.1975
191.9097,36.2306
191.4068,36.2737
190.9039,36.3347
190.4009,36.4109
189.8980,36.5023
189.3951,36.5989
188.8922,36.6954
188.3893,36.7843
187.8863,36.8630
187.3834,36.9265
186.8805,36.9773
186.3776,37.0154
185.8747,37.0434
185.3717,37.0637
184.8714,37.0764
184.3684,37.0815
183.8655,37.0840
183.3626,37.0815
182.8597,37.0764
182.3568,37.0637
181.8538,37.0434
181.3509,37.0154
180.8480,36.9773
180.3451,36.9265
179.8422,36.8630
179.3392,36.7843
178.8363,36.6954
178.3334,36.5989
177.8305,36.5023
177.3276,36.4109
176.8246,36.3347
176.3217,36.2737
175.8213,36.2306
175.3184,36.1975
174.8155,36.1772
174.3126,36.1645
173.8097,36.1594
173.3067,36.1645
172.8038,36.1772
172.3009,36.1975
171.7980,36.2306
171.2951,36.2737
170.7921,36.3347
170.2892,36.4109
169.7863,36.5023
169.2834,36.5989
168.7805,36.6954
168.2775,36.7843
167.7746,36.8630
167.2717,36.9265
166.7713,36.9773
166.2684,37.0154
165.7655,37.0434
165.2626,37.0637
164.7596,37.0764
164.2567,37.0815
163.7538,37.0840
163.2509,37.0815
162.7480,37.0764
162.2450,37.0637
161.7421,37.0434
161.2392,37.0154
160.7363,36.9773
160.2334,36.9265
159.7304,36.8630
159.2275,36.7843
158.7246,36.6954
158.2217,36.5989
157.7213,36.5023
157.2184,36.4109
156.7155,36.3347
156.2125,36.2737
155.7096,36.2306
155.2067,36.1975
154.7038,36.1772
154.2009,36.1645
153.6979,36.1594
153.1950,36.1645
152.6921,36.1772
152.1892,36.1975
151.6863,36.2306
151.1833,36.2737
150.6804,36.3347
150.1775,36.4109
149.6746,36.5023
149.1717,36.5989
148.6713,36.6954
148.1684,36.7843
147.6654,36.8630
147.1625,36.9265
146.6596,36.9773
146.1567,37.0154
145.6538,37.0434
145.1508,37.0637
144.6479,37.0764
144.1450,37.0815
143.6421,37.0840
143.1392,37.0815
142.6362,37.0764
142.1333,37.0637
141.6304,37.0434
141.1275,37.0154
140.6246,36.9773
140.1216,36.9265
139.6213,36.8630
139.1183,36.7843
138.6154,36.6954
138.1125,36.5989
137.6096,36.5023
137.1067,36.4109
136.6037,36.3347
136.1008,36.2737
135.5979,36.2306
135.0950,36.1975
134.5921,36.1772
134.0891,36.1645
133.5862,36.1594
133.0833,36.1645
132.5804,36.1772
132.0775,36.1975
131.5745,36.2306
131.0716,36.2737
130.5712,36.3347
130.0683,36.4109
129.5654,36.5023
129.0625,36.5989
128.5596,36.6954
128.0566,36.7843
127.5537,36.8630
127.0508,36.9265
126.5479,36.9773
126.0450,37.0154
125.5420,37.0434
125.0391,37.0637
124.5362,37.0764
124.0333,37.0815
123.5304,37.0840
123.0274,37.0815
122.5245,37.0764
122.0216,37.0637
121.5212,37.0434
121.0183,37.0154
120.5154,36.9773
120.0125,36.9265
119.5095,36.8630
119.0066,36.7843
118.5037,36.6954
118.0008,36.5989
117.4979,36.5023
116.9949,36.4109
116.4920,36.3347
115.9891,36.2737
115.4862,36.2306
114.9833,36.1975
114.4803,36.1772
113.9774,36.1645
113.4745,36.1594
112.9716,36.1645
112.4712,36.1772
111.9683,36.1975
111.4654,36.2306
110.9624,36.2737
110.4595,36.3347
109.9566,36.4109
109.4537,36.5023
108.9508,36.5989
108.4478,36.6954
107.9449,36.7843
107.4420,36.8630
106.9391,36.9265
106.4362,36.9773
105.9332,37.0154
105.4303,37.0434
104.9274,37.0637
104.4245,37.0764
103.9216,37.0815
103.4186,37.0840
102.9183,37.0815
102.4153,37.0764
101.9124,37.0637
101.4095,37.0434
100.9066,37.0154
100.4037,36.9773
99.9007,36.9265
99.3978,36.8630
98.8949,36.7843
98.3920,36.6954
97.8891,36.5989
97.3861,36.5023
96.8832,36.4109
96.3803,36.3347
95.8774,36.2737
95.3745,36.2306
94.8715,36.1975
94.3686,36.1772
93.8682,36.1645
93.3653,36.1594
92.8624,36.1645
92.3595,36.1772
91.8566,36.1975
91.3536,36.2306
90.8507,36.2737
90.3478,36.3347
89.8449,36.4109
89.3420,36.5023
88.8390,36.5989
88.3361,36.6954
87.8332,36.7843
87.3303,36.8630
86.8274,36.9265
86.3244,36.9773
85.8215,37.0154
85.3186,37.0434
84.8182,37.0637
84.3153,37.0764
83.8124,37.0815
83.3095,37.0840
82.8065,37.0815
82.3036,37.0764
81.8007,37.0637
81.2978,37.0434
80.7949,37.0154
80.2919,36.9773
79.7890,36.9265
79.2861,36.8630
78.7832,36.7843
78.2803,36.6954
77.7773,36.5989
77.2744,36.5023
76.7715,36.4109
76.2686,36.3347
75.7682,36.2737
75.2653,36.2306
74.7624,36.1975
74.2594,36.1772
73.7565,36.1645
73.2536,36.1594
72.7507,36.1645
72.2478,36.1772
71.7448,36.1975
71.2419,36.2306
70.7390,36.2737
70.2361,36.3347
69.7332,36.4109
69.2302,36.5023
68.7273,36.5989
68.2244,36.6954
67.7215,36.7843
67.2186,36.8605
66.7182,36.9240
66.2153,36.9722
65.7123,37.0078
65.2094,37.0332
64.7065,37.0510
64.2036,37.0637
63.7007,37.0688
63.1977,37.0688
62.6948,37.0637
62.1919,37.0561
61.6890,37.0408
61.1861,37.0180
60.6831,36.9900
60.1802,36.9494
59.6773,36.9011
59.1744,36.8402
58.6715,36.7716
58.1685,36.6954
57.6682,36.6166
57.1652,36.5379
56.6623,36.4642
56.1594,36.4033
55.6565,36.3499
55.1536,36.3118
54.6506,36.2814
54.1477,36.2636
53.6448,36.2560
53.1419,36.2560
52.6390,36.2636
52.1360,36.2788
51.6331,36.3042
51.1302,36.3398
50.6273,36.3830
50.1244,36.4388
49.6214,36.4998
49.1185,36.5633
48.6181,36.6319
48.1152,36.6954
47.6123,36.7563
47.1094,36.8097
46.6065,36.8554
46.1035,36.8935
45.6006,36.9214
45.0977,36.9443
44.5948,36.9621
44.0919,36.9722
43.5889,36.9773
43.0860,36.9773
42.5831,36.9722
42.0802,36.9595
41.5773,36.9443
41.0743,36.9240
40.5714,36.8960
40.0685,36.8656
39.5681,36.8275
39.0652,36.7868
38.5623,36.7411
38.0594,36.6954
37.5564,36.6497
37.0535,36.6039
36.5506,36.5608
36.0477,36.5227
35.5448,36.4922
35.0418,36.4668
34.5389,36.4490
34.0360,36.4363
33.5331,36.4338
33.0302,36.4338
32.5272,36.4439
32.0243,36.4566
31.5214,36.4769
31.0185,36.4998
30.5181,36.5303
30.0152,36.5608
29.5123,36.5938
29.0093,36.6293
28.5064,36.6624
28.0035,36.6954
27.5006,36.7259
26.9977,36.7513
26.4947,36.7767
25.9918,36.7944
25.4889,36.8122
24.9860,36.8224
24.4831,36.8325
23.9801,36.8351
23.4772,36.8376
22.9743,36.8351
22.4714,36.8275
21.9685,36.8198
21.4681,36.8097
20.9652,36.7944
20.4622,36.7792
19.9593,36.7640
19.4564,36.7462
18.9535,36.7284
18.4506,36.7106
17.9476,36.6954
17.4447,36.6801
16.9418,36.6674
16.4389,36.6573
15.9360,36.6471
15.4330,36.6420
14.9301,36.6370
14.4272,36.6370
13.9243,36.6370
13.4214,36.6395
12.9184,36.6446
12.4181,36.6497
11.9151,36.6573
11.4122,36.6649
10.9093,36.6700
10.4064,36.6776
9.9035,36.6827
9.4005,36.6878
8.8976,36.6928
8.3947,36.6954
7.8918,36.6954
7.8918,36.0832
279.3924,36.0832
Z" /> 
<path style="fill:#37CBCB; fill-opacity:1.0000; 
stroke:#37CBCB; stroke-width:0.3048; stroke-opacity:1; 
stroke-linecap:round; stroke-linejoin:round;fill-rule:evenodd;"
d="M 204.4979,37.2542
205.0009,37.2593
205.5038,37.2720
206.0067,37.2923
206.5096,37.3202
207.0125,37.3583
207.5155,37.4091
208.0184,37.4726
208.5213,37.5514
209.0242,37.6403
209.5271,37.7368
210.0301,37.8333
210.5330,37.9247
211.0359,38.0009
211.5388,38.0619
212.0417,38.1051
212.5447,38.1381
213.0450,38.1584
213.5480,38.1711
214.0509,38.1762
214.5538,38.1711
215.0567,38.1584
215.5596,38.1381
216.0626,38.1051
216.5655,38.0619
217.0684,38.0009
217.5713,37.9247
218.0742,37.8333
218.5772,37.7368
219.0801,37.6403
219.5830,37.5514
220.0859,37.4752
220.5888,37.4117
221.0918,37.3634
221.5947,37.3278
222.0951,37.3024
222.5980,37.2847
223.1009,37.2720
223.6038,37.2669
224.1067,37.2669
224.6097,37.2720
225.1126,37.2796
225.6155,37.2948
226.1184,37.3177
226.6213,37.3456
227.1243,37.3863
227.6272,37.4345
228.1301,37.4955
228.6330,37.5641
229.1359,37.6403
229.6389,37.7190
230.1418,37.7977
230.6447,37.8714
231.1451,37.9324
231.6480,37.9857
232.1509,38.0238
232.6538,38.0543
233.1568,38.0721
233.6597,38.0797
234.1626,38.0797
234.6655,38.0721
235.1684,38.0568
235.6714,38.0314
236.1743,37.9959
236.6772,37.9527
237.1801,37.8968
237.6830,37.8358
238.1860,37.7723
238.6889,37.7038
239.1918,37.6403
239.6947,37.5793
240.1951,37.5260
240.6980,37.4802
241.2009,37.4421
241.7039,37.4142
242.2068,37.3913
242.7097,37.3736
243.2126,37.3634
243.7155,37.3583
244.2185,37.3583
244.7214,37.3634
245.2243,37.3761
245.7272,37.3913
246.2301,37.4117
246.7331,37.4396
247.2360,37.4701
247.7389,37.5082
248.2418,37.5488
248.7447,37.5945
249.2451,37.6403
249.7480,37.6860
250.2510,37.7317
250.7539,37.7749
251.2568,37.8130
251.7597,37.8435
252.2626,37.8689
252.7656,37.8866
253.2685,37.8993
253.7714,37.9019
254.2743,37.9019
254.7772,37.8917
255.2802,37.8790
255.7831,37.8587
256.2860,37.8358
256.7889,37.8054
257.2918,37.7749
257.7948,37.7419
258.2951,37.7063
258.7981,37.6733
259.3010,37.6403
259.8039,37.6098
260.3068,37.5844
260.8097,37.5590
261.3127,37.5412
261.8156,37.5234
262.3185,37.5133
262.8214,37.5031
263.3243,37.5006
263.8273,37.4980
264.3302,37.5006
264.8331,37.5082
265.3360,37.5158
265.8389,37.5260
266.3419,37.5412
266.8448,37.5564
267.3452,37.5717
267.8481,37.5895
268.3510,37.6072
268.8539,37.6250
269.3568,37.6403
269.8598,37.6555
270.3627,37.6682
270.8656,37.6784
271.3685,37.6885
271.8714,37.6936
272.3744,37.6987
272.8773,37.6987
273.3802,37.6987
273.8831,37.6961
274.3860,37.6911
274.8890,37.6860
275.3919,37.6784
275.8948,37.6707
276.3952,37.6657
276.8981,37.6580
277.4010,37.6530
277.9039,37.6479
278.4069,37.6428
278.9098,37.6403
279.4127,37.6403
279.4127,38.8645
278.9098,38.8645
278.4069,38.8620
277.9039,38.8569
277.4010,38.8518
276.8981,38.8468
276.3952,38.8391
275.8948,38.8341
275.3919,38.8264
274.8890,38.8188
274.3860,38.8137
273.8831,38.8087
273.3802,38.8061
272.8773,38.8061
272.3744,38.8061
271.8714,38.8112
271.3685,38.8163
270.8656,38.8264
270.3627,38.8366
269.8598,38.8493
269.3568,38.8645
268.8539,38.8798
268.3510,38.8976
267.8481,38.9153
267.3452,38.9331
266.8448,38.9484
266.3419,38.9636
265.8389,38.9788
265.3360,38.9890
264.8331,38.9966
264.3302,39.0042
263.8273,39.0068
263.3243,39.0042
262.8214,39.0017
262.3185,38.9915
261.8156,38.9814
261.3127,38.9636
260.8097,38.9458
260.3068,38.9204
259.8039,38.8950
259.3010,38.8645
258.7981,38.8315
258.2951,38.7985
257.7948,38.7629
257.2918,38.7299
256.7889,38.6994
256.2860,38.6690
255.7831,38.6461
255.2802,38.6258
254.7772,38.6131
254.2743,38.6029
253.7714,38.6029
253.2685,38.6055
252.7656,38.6182
252.2626,38.6359
251.7597,38.6613
251.2568,38.6918
250.7539,38.7299
250.2510,38.7731
249.7480,38.8188
249.2451,38.8645
248.7447,38.9103
248.2418,38.9560
247.7389,38.9966
247.2360,39.0347
246.7331,39.0652
246.2301,39.0931
245.7272,39.1135
245.2243,39.1287
244.7214,39.1414
244.2185,39.1465
243.7155,39.1465
243.2126,39.1414
242.7097,39.1312
242.2068,39.1135
241.7039,39.0906
241.2009,39.0627
240.6980,39.0246
240.1951,38.9788
239.6947,38.9255
239.1918,38.8645
238.6889,38.8010
238.1860,38.7325
237.6830,38.6690
237.1801,38.6080
236.6772,38.5521
236.1743,38.5089
235.6714,38.4734
235.1684,38.4480
234.6655,38.4327
234.1626,38.4251
233.6597,38.4251
233.1568,38.4327
232.6538,38.4505
232.1509,38.4810
231.6480,38.5191
231.1451,38.5724
230.6447,38.6334
230.1418,38.7071
229.6389,38.7858
229.1359,38.8645
228.6330,38.9407
228.1301,39.0093
227.6272,39.0703
227.1243,39.1185
226.6213,39.1592
226.1184,39.1871
225.6155,39.2100
225.1126,39.2252
224.6097,39.2328
224.1067,39.2379
223.6038,39.2379
223.1009,39.2328
222.5980,39.2201
222.0951,39.2024
221.5947,39.1770
221.0918,39.1414
220.5888,39.0931
220.0859,39.0296
219.5830,38.9534
219.0801,38.8645
218.5772,38.7680
218.0742,38.6715
217.5713,38.5801
217.0684,38.5039
216.5655,38.4429
216.0626,38.3997
215.5596,38.3667
215.0567,38.3464
214.5538,38.3337
214.0509,38.3286
213.5480,38.3337
213.0450,38.3464
212.5447,38.3667
212.0417,38.3997
211.5388,38.4429
211.0359,38.5039
210.5330,38.5801
210.0301,38.6715
209.5271,38.7680
209.0242,38.8645
208.5213,38.9534
208.0184,39.0322
207.5155,39.0957
207.0125,39.1465
206.5096,39.1846
206.0067,39.2125
205.5038,39.2328
205.0009,39.2455
204.4979,39.2506
203.9950,39.2532
203.4946,39.2506
202.9917,39.2455
202.4888,39.2328
201.9859,39.2125
201.4830,39.1846
200.9800,39.1465
200.4771,39.0957
199.9742,39.0322
199.4713,38.9534
198.9684,38.8645
198.4654,38.7680
197.9625,38.6715
197.4596,38.5801
196.9567,38.5039
196.4538,38.4429
195.9508,38.3997
195.4479,38.3667
194.9450,38.3464
194.4421,38.3337
193.9417,38.3286
193.4388,38.3337
192.9359,38.3464
192.4329,38.3667
191.9300,38.3997
191.4271,38.4429
190.9242,38.5039
190.4213,38.5801
189.9183,38.6715
189.4154,38.7680
188.9125,38.8645
188.4096,38.9534
187.9067,39.0322
187.4037,39.0957
186.9008,39.1465
186.3979,39.1846
185.8950,39.2125
185.3921,39.2328
184.8917,39.2455
184.3888,39.2506
183.8858,39.2532
183.3829,39.2506
182.8800,39.2455
182.3771,39.2328
181.8742,39.2125
181.3712,39.1846
180.8683,39.1465
180.3654,39.0957
179.8625,39.0322
179.3596,38.9534
178.8566,38.8645
178.3537,38.7680
177.8508,38.6715
177.3479,38.5801
176.8450,38.5039
176.3420,38.4429
175.8417,38.3997
175.3387,38.3667
174.8358,38.3464
174.3329,38.3337
173.8300,38.3286
173.3271,38.3337
172.8241,38.3464
172.3212,38.3667
171.8183,38.3997
171.3154,38.4429
170.8125,38.5039
170.3095,38.5801
169.8066,38.6715
169.3037,38.7680
168.8008,38.8645
168.2979,38.9534
167.7949,39.0322
167.2920,39.0957
166.7916,39.1465
166.2887,39.1846
165.7858,39.2125
165.2829,39.2328
164.7800,39.2455
164.2770,39.2506
163.7741,39.2532
163.2712,39.2506
162.7683,39.2455
162.2654,39.2328
161.7624,39.2125
161.2595,39.1846
160.7566,39.1465
160.2537,39.0957
159.7508,39.0322
159.2478,38.9534
158.7449,38.8645
158.2420,38.7680
157.7416,38.6715
157.2387,38.5801
156.7358,38.5039
156.2329,38.4429
155.7299,38.3997
155.2270,38.3667
154.7241,38.3464
154.2212,38.3337
153.7183,38.3286
153.2153,38.3337
152.7124,38.3464
152.2095,38.3667
151.7066,38.3997
151.2037,38.4429
150.7007,38.5039
150.1978,38.5801
149.6949,38.6715
149.1920,38.7680
148.6916,38.8645
148.1887,38.9534
147.6858,39.0322
147.1828,39.0957
146.6799,39.1465
146.1770,39.1846
145.6741,39.2125
145.1712,39.2328
144.6682,39.2455
144.1653,39.2506
143.6624,39.2532
143.1595,39.2506
142.6566,39.2455
142.1536,39.2328
141.6507,39.2125
141.1478,39.1846
140.6449,39.1465
140.1420,39.0957
139.6416,39.0322
139.1387,38.9534
138.6357,38.8645
138.1328,38.7680
137.6299,38.6715
137.1270,38.5801
136.6241,38.5039
136.1211,38.4429
135.6182,38.3997
135.1153,38.3667
134.6124,38.3464
134.1095,38.3337
133.6065,38.3286
133.1036,38.3337
132.6007,38.3464
132.0978,38.3667
131.5949,38.3997
131.0919,38.4429
130.5916,38.5039
130.0886,38.5801
129.5857,38.6715
129.0828,38.7680
128.5799,38.8645
128.0770,38.9534
127.5740,39.0322
127.0711,39.0957
126.5682,39.1465
126.0653,39.1846
125.5624,39.2125
125.0594,39.2328
124.5565,39.2455
124.0536,39.2506
123.5507,39.2532
123.0478,39.2506
122.5448,39.2455
122.0419,39.2328
121.5415,39.2125
121.0386,39.1846
120.5357,39.1465
120.0328,39.0957
119.5299,39.0322
119.0269,38.9534
118.5240,38.8645
118.0211,38.7680
117.5182,38.6715
117.0153,38.5801
116.5123,38.5039
116.0094,38.4429
115.5065,38.3997
115.0036,38.3667
114.5007,38.3464
113.9977,38.3337
113.4948,38.3286
112.9919,38.3337
112.4915,38.3464
111.9886,38.3667
111.4857,38.3997
110.9828,38.4429
110.4798,38.5039
109.9769,38.5801
109.4740,38.6715
108.9711,38.7680
108.4682,38.8645
107.9652,38.9534
107.4623,39.0322
106.9594,39.0957
106.4565,39.1465
105.9536,39.1846
105.4506,39.2125
104.9477,39.2328
104.4448,39.2455
103.9419,39.2506
103.4390,39.2532
102.9386,39.2506
102.4357,39.2455
101.9327,39.2328
101.4298,39.2125
100.9269,39.1846
100.4240,39.1465
99.9211,39.0957
99.4181,39.0322
98.9152,38.9534
98.4123,38.8645
97.9094,38.7680
97.4065,38.6715
96.9035,38.5801
96.4006,38.5039
95.8977,38.4429
95.3948,38.3997
94.8919,38.3667
94.3889,38.3464
93.8886,38.3337
93.3856,38.3286
92.8827,38.3337
92.3798,38.3464
91.8769,38.3667
91.3740,38.3997
90.8710,38.4429
90.3681,38.5039
89.8652,38.5801
89.3623,38.6715
88.8594,38.7680
88.3564,38.8645
87.8535,38.9534
87.3506,39.0322
86.8477,39.0957
86.3448,39.1465
85.8418,39.1846
85.3389,39.2125
84.8385,39.2328
84.3356,39.2455
83.8327,39.2506
83.3298,39.2532
82.8269,39.2506
82.3239,39.2455
81.8210,39.2328
81.3181,39.2125
80.8152,39.1846
80.3123,39.1465
79.8093,39.0957
79.3064,39.0322
78.8035,38.9534
78.3006,38.8645
77.7977,38.7680
77.2947,38.6715
76.7918,38.5801
76.2889,38.5039
75.7885,38.4429
75.2856,38.3997
74.7827,38.3667
74.2798,38.3464
73.7768,38.3337
73.2739,38.3286
72.7710,38.3337
72.2681,38.3464
71.7652,38.3667
71.2622,38.3997
70.7593,38.4429
70.2564,38.5039
69.7535,38.5801
69.2506,38.6715
68.7476,38.7680
68.2447,38.8645
67.7418,38.9534
67.2389,39.0296
66.7385,39.0931
66.2356,39.1414
65.7327,39.1770
65.2297,39.2024
64.7268,39.2201
64.2239,39.2328
63.7210,39.2379
63.2181,39.2379
62.7151,39.2328
62.2122,39.2252
61.7093,39.2100
61.2064,39.1871
60.7035,39.1592
60.2005,39.1185
59.6976,39.0703
59.1947,39.0093
58.6918,38.9407
58.1889,38.8645
57.6885,38.7858
57.1856,38.7071
56.6826,38.6334
56.1797,38.5724
55.6768,38.5191
55.1739,38.4810
54.6710,38.4505
54.1680,38.4327
53.6651,38.4251
53.1622,38.4251
52.6593,38.4327
52.1564,38.4480
51.6534,38.4734
51.1505,38.5089
50.6476,38.5521
50.1447,38.6080
49.6418,38.6690
49.1388,38.7325
48.6385,38.8010
48.1355,38.8645
47.6326,38.9255
47.1297,38.9788
46.6268,39.0246
46.1239,39.0627
45.6209,39.0906
45.1180,39.1135
44.6151,39.1312
44.1122,39.1414
43.6093,39.1465
43.1063,39.1465
42.6034,39.1414
42.1005,39.1287
41.5976,39.1135
41.0947,39.0931
40.5917,39.0652
40.0888,39.0347
39.5884,38.9966
39.0855,38.9560
38.5826,38.9103
38.0797,38.8645
37.5768,38.8188
37.0738,38.7731
36.5709,38.7299
36.0680,38.6918
35.5651,38.6613
35.0622,38.6359
34.5592,38.6182
34.0563,38.6055
33.5534,38.6029
33.0505,38.6029
32.5476,38.6131
32.0446,38.6258
31.5417,38.6461
31.0388,38.6690
30.5384,38.6994
30.0355,38.7299
29.5326,38.7629
29.0297,38.7985
28.5267,38.8315
28.0238,38.8645
27.5209,38.8950
27.0180,38.9204
26.5151,38.9458
26.0121,38.9636
25.5092,38.9814
25.0063,38.9915
24.5034,39.0017
24.0005,39.0042
23.4975,39.0068
22.9946,39.0042
22.4917,38.9966
21.9888,38.9890
21.4884,38.9788
20.9855,38.9636
20.4826,38.9484
19.9796,38.9331
19.4767,38.9153
18.9738,38.8976
18.4709,38.8798
17.9680,38.8645
17.4650,38.8493
16.9621,38.8366
16.4592,38.8264
15.9563,38.8163
15.4534,38.8112
14.9504,38.8061
14.4475,38.8061
13.9446,38.8061
13.4417,38.8087
12.9388,38.8137
12.4384,38.8188
11.9355,38.8264
11.4325,38.8341
10.9296,38.8391
10.4267,38.8468
9.9238,38.8518
9.4209,38.8569
8.9179,38.8620
8.4150,38.8645
7.9121,38.8645
7.9121,38.2524
7.9121,37.6403
8.4150,37.6403
8.9179,37.6428
9.4209,37.6479
9.9238,37.6530
10.4267,37.6580
10.9296,37.6657
11.4325,37.6707
11.9355,37.6784
12.4384,37.6860
12.9388,37.6911
13.4417,37.6961
13.9446,37.6987
14.4475,37.6987
14.9504,37.6987
15.4534,37.6936
15.9563,37.6885
16.4592,37.6784
16.9621,37.6682
17.4650,37.6555
17.9680,37.6403
18.4709,37.6250
18.9738,37.6072
19.4767,37.5895
19.9796,37.5717
20.4826,37.5564
20.9855,37.5412
21.4884,37.5260
21.9888,37.5158
22.4917,37.5082
22.9946,37.5006
23.4975,37.4980
24.0005,37.5006
24.5034,37.5031
25.0063,37.5133
25.5092,37.5234
26.0121,37.5412
26.5151,37.5590
27.0180,37.5844
27.5209,37.6098
28.0238,37.6403
28.5267,37.6733
29.0297,37.7063
29.5326,37.7419
30.0355,37.7749
30.5384,37.8054
31.0388,37.8358
31.5417,37.8587
32.0446,37.8790
32.5476,37.8917
33.0505,37.9019
33.5534,37.9019
34.0563,37.8993
34.5592,37.8866
35.0622,37.8689
35.5651,37.8435
36.0680,37.8130
36.5709,37.7749
37.0738,37.7317
37.5768,37.6860
38.0797,37.6403
38.5826,37.5945
39.0855,37.5488
39.5884,37.5082
40.0888,37.4701
40.5917,37.4396
41.0947,37.4117
41.5976,37.3913
42.1005,37.3761
42.6034,37.3634
43.1063,37.3583
43.6093,37.3583
44.1122,37.3634
44.6151,37.3736
45.1180,37.3913
45.6209,37.4142
46.1239,37.4421
46.6268,37.4802
47.1297,37.5260
47.6326,37.5793
48.1355,37.6403
48.6385,37.7038
49.1388,37.7723
49.6418,37.8358
50.1447,37.8968
50.6476,37.9527
51.1505,37.9959
51.6534,38.0314
52.1564,38.0568
52.6593,38.0721
53.1622,38.0797
53.6651,38.0797
54.1680,38.0721
54.6710,38.0543
55.1739,38.0238
55.6768,37.9857
56.1797,37.9324
56.6826,37.8714
57.1856,37.7977
57.6885,37.7190
58.1889,37.6403
58.6918,37.5641
59.1947,37.4955
59.6976,37.4345
60.2005,37.3863
60.7035,37.3456
61.2064,37.3177
61.7093,37.2948
62.2122,37.2796
62.7151,37.2720
63.2181,37.2669
63.7210,37.2669
64.2239,37.2720
64.7268,37.2847
65.2297,37.3024
65.7327,37.3278
66.2356,37.3634
66.7385,37.4117
67.2389,37.4752
67.7418,37.5514
68.2447,37.6403
68.7476,37.7368
69.2506,37.8333
69.7535,37.9247
70.2564,38.0009
70.7593,38.0619
71.2622,38.1051
71.7652,38.1381
72.2681,38.1584
72.7710,38.1711
73.2739,38.1762
73.7768,38.1711
74.2798,38.1584
74.7827,38.1381
75.2856,38.1051
75.7885,38.0619
76.2889,38.0009
76.7918,37.9247
77.2947,37.8333
77.7977,37.7368
78.3006,37.6403
78.8035,37.5514
79.3064,37.4726
79.8093,37.4091
80.3123,37.3583
80.8152,37.3202
81.3181,37.2923
81.8210,37.2720
82.3239,37.2593
82.8269,37.2542
83.3298,37.2516
83.8327,37.2542
84.3356,37.2593
84.8385,37.2720
85.3389,37.2923
85.8418,37.3202
86.3448,37.3583
86.8477,37.4091
87.3506,37.4726
87.8535,37.5514
88.3564,37.6403
88.8594,37.7368
89.3623,37.8333
89.8652,37.9247
90.3681,38.0009
90.8710,38.0619
91.3740,38.1051
91.8769,38.1381
92.3798,38.1584
92.8827,38.1711
93.3856,38.1762
93.8886,38.1711
94.3889,38.1584
94.8919,38.1381
95.3948,38.1051
95.8977,38.0619
96.4006,38.0009
96.9035,37.9247
97.4065,37.8333
97.9094,37.7368
98.4123,37.6403
98.9152,37.5514
99.4181,37.4726
99.9211,37.4091
100.4240,37.3583
100.9269,37.3202
101.4298,37.2923
101.9327,37.2720
102.4357,37.2593
102.9386,37.2542
103.4390,37.2516
103.9419,37.2542
104.4448,37.2593
104.9477,37.2720
105.4506,37.2923
105.9536,37.3202
106.4565,37.3583
106.9594,37.4091
107.4623,37.4726
107.9652,37.5514
108.4682,37.6403
108.9711,37.7368
109.4740,37.8333
109.9769,37.9247
110.4798,38.0009
110.9828,38.0619
111.4857,38.1051
111.9886,38.1381
112.4915,38.1584
112.9919,38.1711
113.4948,38.1762
113.9977,38.1711
114.5007,38.1584
115.0036,38.1381
115.5065,38.1051
116.0094,38.0619
116.5123,38.0009
117.0153,37.9247
117.5182,37.8333
118.0211,37.7368
118.5240,37.6403
119.0269,37.5514
119.5299,37.4726
120.0328,37.4091
120.5357,37.3583
121.0386,37.3202
121.5415,37.2923
122.0419,37.2720
122.5448,37.2593
123.0478,37.2542
123.5507,37.2516
124.0536,37.2542
124.5565,37.2593
125.0594,37.2720
125.5624,37.2923
126.0653,37.3202
126.5682,37.3583
127.0711,37.4091
127.5740,37.4726
128.0770,37.5514
128.5799,37.6403
129.0828,37.7368
129.5857,37.8333
130.0886,37.9247
130.5916,38.0009
131.0919,38.0619
131.5949,38.1051
132.0978,38.1381
132.6007,38.1584
133.1036,38.1711
133.6065,38.1762
134.1095,38.1711
134.6124,38.1584
135.1153,38.1381
135.6182,38.1051
136.1211,38.0619
136.6241,38.0009
137.1270,37.9247
137.6299,37.8333
138.1328,37.7368
138.6357,37.6403
139.1387,37.5514
139.6416,37.4726
140.1420,37.4091
140.6449,37.3583
141.1478,37.3202
141.6507,37.2923
142.1536,37.2720
142.6566,37.2593
143.1595,37.2542
143.6624,37.2516
144.1653,37.2542
144.6682,37.2593
145.1712,37.2720
145.6741,37.2923
146.1770,37.3202
146.6799,37.3583
147.1828,37.4091
147.6858,37.4726
148.1887,37.5514
148.6916,37.6403
149.1920,37.7368
149.6949,37.8333
150.1978,37.9247
150.7007,38.0009
151.2037,38.0619
151.7066,38.1051
152.2095,38.1381
152.7124,38.1584
153.2153,38.1711
153.7183,38.1762
154.2212,38.1711
154.7241,38.1584
155.2270,38.1381
155.7299,38.1051
156.2329,38.0619
156.7358,38.0009
157.2387,37.9247
157.7416,37.8333
158.2420,37.7368
158.7449,37.6403
159.2478,37.5514
159.7508,37.4726
160.2537,37.4091
160.7566,37.3583
161.2595,37.3202
161.7624,37.2923
162.2654,37.2720
162.7683,37.2593
163.2712,37.2542
163.7741,37.2516
164.2770,37.2542
164.7800,37.2593
165.2829,37.2720
165.7858,37.2923
166.2887,37.3202
166.7916,37.3583
167.2920,37.4091
167.7949,37.4726
168.2979,37.5514
168.8008,37.6403
169.3037,37.7368
169.8066,37.8333
170.3095,37.9247
170.8125,38.0009
171.3154,38.0619
171.8183,38.1051
172.3212,38.1381
172.8241,38.1584
173.3271,38.1711
173.8300,38.1762
174.3329,38.1711
174.8358,38.1584
175.3387,38.1381
175.8417,38.1051
176.3420,38.0619
176.8450,38.0009
177.3479,37.9247
177.8508,37.8333
178.3537,37.7368
178.8566,37.6403
179.3596,37.5514
179.8625,37.4726
180.3654,37.4091
180.8683,37.3583
181.3712,37.3202
181.8742,37.2923
182.3771,37.2720
182.8800,37.2593
183.3829,37.2542
183.8858,37.2516
184.3888,37.2542
184.8917,37.2593
185.3921,37.2720
185.8950,37.2923
186.3979,37.3202
186.9008,37.3583
187.4037,37.4091
187.9067,37.4726
188.4096,37.5514
188.9125,37.6403
189.4154,37.7368
189.9183,37.8333
190.4213,37.9247
190.9242,38.0009
191.4271,38.0619
191.9300,38.1051
192.4329,38.1381
192.9359,38.1584
193.4388,38.1711
193.9417,38.1762
194.4421,38.1711
194.9450,38.1584
195.4479,38.1381
195.9508,38.1051
196.4538,38.0619
196.9567,38.0009
197.4596,37.9247
197.9625,37.8333
198.4654,37.7368
198.9684,37.6403
199.4713,37.5514
199.9742,37.4726
200.4771,37.4091
200.9800,37.3583
201.4830,37.3202
201.9859,37.2923
202.4888,37.2720
202.9917,37.2593
203.4946,37.2542
203.9950,37.2516
Z" /> 
<path style="fill:#37CBCB; fill-opacity:1.0000; 
stroke:#37CBCB; stroke-width:0.3048; stroke-opacity:1; 
stroke-linecap:round; stroke-linejoin:round;fill-rule:evenodd;"
d="M 204.4878,39.4183
204.9907,39.4233
205.4936,39.4360
205.9965,39.4564
206.4995,39.4843
207.0024,39.5224
207.5053,39.5732
208.0082,39.6367
208.5111,39.7154
209.0141,39.8043
209.5170,39.9009
210.0199,39.9974
210.5228,40.0888
211.0257,40.1650
211.5287,40.2260
212.0316,40.2692
212.5345,40.3022
213.0349,40.3225
213.5378,40.3352
214.0407,40.3403
214.5436,40.3352
215.0466,40.3225
215.5495,40.3022
216.0524,40.2692
216.5553,40.2260
217.0582,40.1650
217.5612,40.0888
218.0641,39.9974
218.5670,39.9009
219.0699,39.8043
219.5728,39.7154
220.0758,39.6392
220.5787,39.5757
221.0816,39.5275
221.5845,39.4919
222.0849,39.4665
222.5878,39.4487
223.0907,39.4360
223.5937,39.4310
224.0966,39.4310
224.5995,39.4360
225.1024,39.4437
225.6053,39.4589
226.1083,39.4818
226.6112,39.5097
227.1141,39.5503
227.6170,39.5986
228.1199,39.6596
228.6229,39.7281
229.1258,39.8043
229.6287,39.8831
230.1316,39.9618
230.6345,40.0355
231.1349,40.0964
231.6378,40.1498
232.1408,40.1879
232.6437,40.2184
233.1466,40.2361
233.6495,40.2438
234.1524,40.2438
234.6554,40.2361
235.1583,40.2209
235.6612,40.1955
236.1641,40.1599
236.6670,40.1168
237.1700,40.0609
237.6729,39.9999
238.1758,39.9364
238.6787,39.8678
239.1816,39.8043
239.6846,39.7434
240.1849,39.6900
240.6879,39.6443
241.1908,39.6062
241.6937,39.5783
242.1966,39.5554
242.6995,39.5376
243.2025,39.5275
243.7054,39.5224
244.2083,39.5224
244.7112,39.5275
245.2141,39.5402
245.7171,39.5554
246.2200,39.5757
246.7229,39.6037
247.2258,39.6342
247.7287,39.6723
248.2317,39.7129
248.7346,39.7586
249.2350,39.8043
249.7379,39.8501
250.2408,39.8958
250.7437,39.9390
251.2466,39.9771
251.7496,40.0075
252.2525,40.0329
252.7554,40.0507
253.2583,40.0634
253.7612,40.0660
254.2642,40.0660
254.7671,40.0558
255.2700,40.0431
255.7729,40.0228
256.2758,39.9999
256.7788,39.9694
257.2817,39.9390
257.7846,39.9059
258.2850,39.8704
258.7879,39.8374
259.2908,39.8043
259.7937,39.7739
260.2967,39.7485
260.7996,39.7231
261.3025,39.7053
261.8054,39.6875
262.3083,39.6773
262.8113,39.6672
263.3142,39.6646
263.8171,39.6621
264.3200,39.6646
264.8229,39.6723
265.3259,39.6799
265.8288,39.6900
266.3317,39.7053
266.8346,39.7205
267.3350,39.7358
267.8379,39.7535
268.3408,39.7713
268.8438,39.7891
269.3467,39.8043
269.8496,39.8196
270.3525,39.8323
270.8554,39.8424
271.3584,39.8526
271.8613,39.8577
272.3642,39.8628
272.8671,39.8628
273.3700,39.8628
273.8730,39.8602
274.3759,39.8551
274.8788,39.8501
275.3817,39.8424
275.8846,39.8348
276.3850,39.8297
276.8879,39.8221
277.3909,39.8170
277.8938,39.8120
278.3967,39.8069
278.8996,39.8043
279.4025,39.8043
279.4025,40.4165
7.9019,40.4165
7.9019,39.8043
8.4049,39.8043
8.9078,39.8069
9.4107,39.8120
9.9136,39.8170
10.4165,39.8221
10.9195,39.8297
11.4224,39.8348
11.9253,39.8424
12.4282,39.8501
12.9286,39.8551
13.4315,39.8602
13.9344,39.8628
14.4374,39.8628
14.9403,39.8628
15.4432,39.8577
15.9461,39.8526
16.4490,39.8424
16.9520,39.8323
17.4549,39.8196
17.9578,39.8043
18.4607,39.7891
18.9636,39.7713
19.4666,39.7535
19.9695,39.7358
20.4724,39.7205
20.9753,39.7053
21.4782,39.6900
21.9786,39.6799
22.4815,39.6723
22.9845,39.6646
23.4874,39.6621
23.9903,39.6646
24.4932,39.6672
24.9961,39.6773
25.4991,39.6875
26.0020,39.7053
26.5049,39.7231
27.0078,39.7485
27.5107,39.7739
28.0137,39.8043
28.5166,39.8374
29.0195,39.8704
29.5224,39.9059
30.0253,39.9390
30.5283,39.9694
31.0286,39.9999
31.5316,40.0228
32.0345,40.0431
32.5374,40.0558
33.0403,40.0660
33.5432,40.0660
34.0462,40.0634
34.5491,40.0507
35.0520,40.0329
35.5549,40.0075
36.0578,39.9771
36.5608,39.9390
37.0637,39.8958
37.5666,39.8501
38.0695,39.8043
38.5724,39.7586
39.0754,39.7129
39.5783,39.6723
40.0787,39.6342
40.5816,39.6037
41.0845,39.5757
41.5874,39.5554
42.0903,39.5402
42.5933,39.5275
43.0962,39.5224
43.5991,39.5224
44.1020,39.5275
44.6049,39.5376
45.1079,39.5554
45.6108,39.5783
46.1137,39.6062
46.6166,39.6443
47.1195,39.6900
47.6225,39.7434
48.1254,39.8043
48.6283,39.8678
49.1287,39.9364
49.6316,39.9999
50.1345,40.0609
50.6374,40.1168
51.1404,40.1599
51.6433,40.1955
52.1462,40.2209
52.6491,40.2361
53.1520,40.2438
53.6550,40.2438
54.1579,40.2361
54.6608,40.2184
55.1637,40.1879
55.6666,40.1498
56.1696,40.0964
56.6725,40.0355
57.1754,39.9618
57.6783,39.8831
58.1787,39.8043
58.6816,39.7281
59.1845,39.6596
59.6875,39.5986
60.1904,39.5503
60.6933,39.5097
61.1962,39.4818
61.6991,39.4589
62.2021,39.4437
62.7050,39.4360
63.2079,39.4310
63.7108,39.4310
64.2137,39.4360
64.7167,39.4487
65.2196,39.4665
65.7225,39.4919
66.2254,39.5275
66.7283,39.5757
67.2287,39.6392
67.7316,39.7154
68.2346,39.8043
68.7375,39.9009
69.2404,39.9974
69.7433,40.0888
70.2462,40.1650
70.7492,40.2260
71.2521,40.2692
71.7550,40.3022
72.2579,40.3225
72.7608,40.3352
73.2638,40.3403
73.7667,40.3352
74.2696,40.3225
74.7725,40.3022
75.2754,40.2692
75.7784,40.2260
76.2787,40.1650
76.7817,40.0888
77.2846,39.9974
77.7875,39.9009
78.2904,39.8043
78.7933,39.7154
79.2963,39.6367
79.7992,39.5732
80.3021,39.5224
80.8050,39.4843
81.3079,39.4564
81.8109,39.4360
82.3138,39.4233
82.8167,39.4183
83.3196,39.4157
83.8225,39.4183
84.3255,39.4233
84.8284,39.4360
85.3288,39.4564
85.8317,39.4843
86.3346,39.5224
86.8375,39.5732
87.3404,39.6367
87.8434,39.7154
88.3463,39.8043
88.8492,39.9009
89.3521,39.9974
89.8550,40.0888
90.3580,40.1650
90.8609,40.2260
91.3638,40.2692
91.8667,40.3022
92.3696,40.3225
92.8726,40.3352
93.3755,40.3403
93.8784,40.3352
94.3788,40.3225
94.8817,40.3022
95.3846,40.2692
95.8875,40.2260
96.3905,40.1650
96.8934,40.0888
97.3963,39.9974
97.8992,39.9009
98.4021,39.8043
98.9051,39.7154
99.4080,39.6367
99.9109,39.5732
100.4138,39.5224
100.9167,39.4843
101.4197,39.4564
101.9226,39.4360
102.4255,39.4233
102.9284,39.4183
103.4288,39.4157
103.9317,39.4183
104.4346,39.4233
104.9376,39.4360
105.4405,39.4564
105.9434,39.4843
106.4463,39.5224
106.9492,39.5732
107.4522,39.6367
107.9551,39.7154
108.4580,39.8043
108.9609,39.9009
109.4638,39.9974
109.9668,40.0888
110.4697,40.1650
110.9726,40.2260
111.4755,40.2692
111.9784,40.3022
112.4814,40.3225
112.9817,40.3352
113.4847,40.3403
113.9876,40.3352
114.4905,40.3225
114.9934,40.3022
115.4963,40.2692
115.9993,40.2260
116.5022,40.1650
117.0051,40.0888
117.5080,39.9974
118.0109,39.9009
118.5139,39.8043
119.0168,39.7154
119.5197,39.6367
120.0226,39.5732
120.5255,39.5224
121.0285,39.4843
121.5314,39.4564
122.0318,39.4360
122.5347,39.4233
123.0376,39.4183
123.5405,39.4157
124.0434,39.4183
124.5464,39.4233
125.0493,39.4360
125.5522,39.4564
126.0551,39.4843
126.5580,39.5224
127.0610,39.5732
127.5639,39.6367
128.0668,39.7154
128.5697,39.8043
129.0726,39.9009
129.5756,39.9974
130.0785,40.0888
130.5814,40.1650
131.0818,40.2260
131.5847,40.2692
132.0876,40.3022
132.5905,40.3225
133.0935,40.3352
133.5964,40.3403
134.0993,40.3352
134.6022,40.3225
135.1051,40.3022
135.6081,40.2692
136.1110,40.2260
136.6139,40.1650
137.1168,40.0888
137.6197,39.9974
138.1227,39.9009
138.6256,39.8043
139.1285,39.7154
139.6314,39.6367
140.1318,39.5732
140.6347,39.5224
141.1376,39.4843
141.6406,39.4564
142.1435,39.4360
142.6464,39.4233
143.1493,39.4183
143.6522,39.4157
144.1552,39.4183
144.6581,39.4233
145.1610,39.4360
145.6639,39.4564
146.1668,39.4843
146.6698,39.5224
147.1727,39.5732
147.6756,39.6367
148.1785,39.7154
148.6814,39.8043
149.1818,39.9009
149.6847,39.9974
150.1877,40.0888
150.6906,40.1650
151.1935,40.2260
151.6964,40.2692
152.1993,40.3022
152.7023,40.3225
153.2052,40.3352
153.7081,40.3403
154.2110,40.3352
154.7139,40.3225
155.2169,40.3022
155.7198,40.2692
156.2227,40.2260
156.7256,40.1650
157.2285,40.0888
157.7315,39.9974
158.2318,39.9009
158.7348,39.8043
159.2377,39.7154
159.7406,39.6367
160.2435,39.5732
160.7464,39.5224
161.2494,39.4843
161.7523,39.4564
162.2552,39.4360
162.7581,39.4233
163.2610,39.4183
163.7640,39.4157
164.2669,39.4183
164.7698,39.4233
165.2727,39.4360
165.7756,39.4564
166.2786,39.4843
166.7815,39.5224
167.2819,39.5732
167.7848,39.6367
168.2877,39.7154
168.7906,39.8043
169.2935,39.9009
169.7965,39.9974
170.2994,40.0888
170.8023,40.1650
171.3052,40.2260
171.8081,40.2692
172.3111,40.3022
172.8140,40.3225
173.3169,40.3352
173.8198,40.3403
174.3227,40.3352
174.8257,40.3225
175.3286,40.3022
175.8315,40.2692
176.3319,40.2260
176.8348,40.1650
177.3377,40.0888
177.8406,39.9974
178.3436,39.9009
178.8465,39.8043
179.3494,39.7154
179.8523,39.6367
180.3552,39.5732
180.8582,39.5224
181.3611,39.4843
181.8640,39.4564
182.3669,39.4360
182.8698,39.4233
183.3728,39.4183
183.8757,39.4157
184.3786,39.4183
184.8815,39.4233
185.3819,39.4360
185.8848,39.4564
186.3877,39.4843
186.8907,39.5224
187.3936,39.5732
187.8965,39.6367
188.3994,39.7154
188.9023,39.8043
189.4053,39.9009
189.9082,39.9974
190.4111,40.0888
190.9140,40.1650
191.4169,40.2260
191.9199,40.2692
192.4228,40.3022
192.9257,40.3225
193.4286,40.3352
193.9315,40.3403
194.4319,40.3352
194.9348,40.3225
195.4378,40.3022
195.9407,40.2692
196.4436,40.2260
196.9465,40.1650
197.4494,40.0888
197.9524,39.9974
198.4553,39.9009
198.9582,39.8043
199.4611,39.7154
199.9640,39.6367
200.4670,39.5732
200.9699,39.5224
201.4728,39.4843
201.9757,39.4564
202.4786,39.4360
202.9816,39.4233
203.4845,39.4183
203.9849,39.4157
Z" /> 
<g >
</g>
<g style="fill:#37CBCB; fill-opacity:1.0000; 
stroke:#37CBCB; stroke-width:0.0000; stroke-opacity:1; 
stroke-linecap:round; stroke-linejoin:round;">
<path style="fill:#37CBCB; fill-opacity:1.0000; 
stroke:#37CBCB; stroke-width:0.0000; stroke-opacity:1; 
stroke-linecap:round; stroke-linejoin:round;fill-rule:evenodd;"
d="M 278.8006,64.2645
278.8006,63.0403
280.0248,63.0403
280.0248,64.2645
Z" /> 
<path style="fill:#37CBCB; fill-opacity:1.0000; 
stroke:#37CBCB; stroke-width:0.0000; stroke-opacity:1; 
stroke-linecap:round; stroke-linejoin:round;fill-rule:evenodd;"
d="M 7.3000,64.2645
7.3000,63.0403
8.5242,63.0403
8.5242,64.2645
Z" /> 
</g>
<g >
</g>
<g style="fill:#37CBCB; fill-opacity:1.0000; 
stroke:#37CBCB; stroke-width:0.0000; stroke-opacity:1; 
stroke-linecap:round; stroke-linejoin:round;">
<path style="fill:#37CBCB; fill-opacity:1.0000; 
stroke:#37CBCB; stroke-width:0.0000; stroke-opacity:1; 
stroke-linecap:round; stroke-linejoin:round;fill-rule:evenodd;"
d="M 279.0863,36.6941
279.0863,36.0820
279.6984,36.0820
279.6984,36.6941
Z" /> 
<path style="fill:#37CBCB; fill-opacity:1.0000; 
stroke:#37CBCB; stroke-width:0.0000; stroke-opacity:1; 
stroke-linecap:round; stroke-linejoin:round;fill-rule:evenodd;"
d="M 7.5857,36.6941
7.5857,36.0820
8.1978,36.0820
8.1978,36.6941
Z" /> 
</g>
<g >
</g>
<g style="fill:#37CBCB; fill-opacity:1.0000; 
stroke:#37CBCB; stroke-width:0.0000; stroke-opacity:1; 
stroke-linecap:round; stroke-linejoin:round;">
<path style="fill:#37CBCB; fill-opacity:1.0000; 
stroke:#37CBCB; stroke-width:0.0000; stroke-opacity:1; 
stroke-linecap:round; stroke-linejoin:round;fill-rule:evenodd;"
d="M 278.8006,38.8645
278.8006,37.6403
280.0248,37.6403
280.0248,38.8645
Z" /> 
<path style="fill:#37CBCB; fill-opacity:1.0000; 
stroke:#37CBCB; stroke-width:0.0000; stroke-opacity:1; 
stroke-linecap:round; stroke-linejoin:round;fill-rule:evenodd;"
d="M 7.3000,38.8645
7.3000,37.6403
8.5242,37.6403
8.5242,38.8645
Z" /> 
</g>
<g >
</g>
<g style="fill:#37CBCB; fill-opacity:1.0000; 
stroke:#37CBCB; stroke-width:0.0000; stroke-opacity:1; 
stroke-linecap:round; stroke-linejoin:round;">
<path style="fill:#37CBCB; fill-opacity:1.0000; 
stroke:#37CBCB; stroke-width:0.0000; stroke-opacity:1; 
stroke-linecap:round; stroke-linejoin:round;fill-rule:evenodd;"
d="M 279.0965,40.4177
279.0965,39.8056
279.7086,39.8056
279.7086,40.4177
Z" /> 
<path style="fill:#37CBCB; fill-opacity:1.0000; 
stroke:#37CBCB; stroke-width:0.0000; stroke-opacity:1; 
stroke-linecap:round; stroke-linejoin:round;fill-rule:evenodd;"
d="M 7.5959,40.4177
7.5959,39.8056
8.2080,39.8056
8.2080,40.4177
Z" /> 
</g>
<g >
</g>
<g >
</g>
<g >
</g>
</g>
<g style="fill:#000000; fill-opacity:1.0000; 
stroke:#000000; stroke-width:0.0000; stroke-opacity:1; 
stroke-linecap:round; stroke-linejoin:round;">
</g>
<g style="fill:#FFFFFF; fill-opacity:1.0000; 
stroke:#FFFFFF; stroke-width:0.0000; stroke-opacity:1; 
stroke-linecap:round; stroke-linejoin:round;">
</g>
<g style="fill:#3D3D3D; fill-opacity:1.0000; 
stroke:#3D3D3D; stroke-width:0.0000; stroke-opacity:1; 
stroke-linecap:round; stroke-linejoin:round;">
</g>
<g style="fill:#3D3D3D; fill-opacity:1.0000; 
stroke:#3D3D3D; stroke-width:0.3048; stroke-opacity:1; 
stroke-linecap:round; stroke-linejoin:round;">
</g>
<g style="fill:#3D3D3D; fill-opacity:0.0; 
stroke:#3D3D3D; stroke-width:0.3048; stroke-opacity:1; 
stroke-linecap:round; stroke-linejoin:round;">
<path d="M102.8700 39.2532
L104.5642 39.2532
" />
<path d="M143.9723 39.4157
L143.9723 39.4259
" />
<path d="M143.3093 39.4157
L143.9723 39.4157
" />
<g >
</g>
<g >
</g>
<g >
</g>
<g >
</g>
<g >
</g>
<g >
</g>
<g >
</g>
</g>
<g style="fill:#FFFFFF; fill-opacity:0.0; 
stroke:#FFFFFF; stroke-width:0.3048; stroke-opacity:1; 
stroke-linecap:round; stroke-linejoin:round;">
</g>
<g style="fill:#2F2D31; fill-opacity:0.0; 
stroke:#2F2D31; stroke-width:0.3048; stroke-opacity:1; 
stroke-linecap:round; stroke-linejoin:round;">
<path d="M292.2524 0.1524
L292.2524 120.8024
" />
<path d="M292.2524 120.8024
L0.1524 120.8024
" />
<path d="M0.1524 0.1524
L292.2524 0.1524
" />
<path d="M0.1524 120.8024
L0.1524 0.1524
" />
<g >
</g>
<g >
</g>
<g >
</g>
<g >
</g>
<g >
</g>
<g >
</g>
<g >
</g>
</g> 
</svg>
