<?xml version="1.0" standalone="no"?>
 <!DOCTYPE svg PUBLIC "-//W3C//DTD SVG 1.1//EN" 
 "http://www.w3.org/Graphics/SVG/1.1/DTD/svg11.dtd"> 
<svg
  xmlns:svg="http://www.w3.org/2000/svg"
  xmlns="http://www.w3.org/2000/svg"
  xmlns:xlink="http://www.w3.org/1999/xlink"
  version="1.1"
  width="19.3294mm" height="18.8468mm" viewBox="0.0000 0.0000 19.3294 18.8468">
<title>SVG Image created as _autosave-_autosave-_autosave-working-brd.svg date 2023/09/19 08:09:26 </title>
  <desc>Image generated by PCBNEW </desc>
<g style="fill:#000000; fill-opacity:1.0000;stroke:#000000; stroke-opacity:1.0000;
stroke-linecap:round; stroke-linejoin:round;"
 transform="translate(0 0) scale(1 1)">
</g>
<g style="fill:#000000; fill-opacity:0.0; 
stroke:#000000; stroke-width:0.0000; stroke-opacity:1; 
stroke-linecap:round; stroke-linejoin:round;">
</g>
<g style="fill:#000000; fill-opacity:1.0000; 
stroke:#000000; stroke-width:0.0212; stroke-opacity:1; 
stroke-linecap:round; stroke-linejoin:round;">
<rect x="-5.000000" y="-5.000000" width="29.333638" height="28.854193" rx="0.000000" />
</g>
<g style="fill:#FFFFFF; fill-opacity:1.0000; 
stroke:#FFFFFF; stroke-width:0.0212; stroke-opacity:1; 
stroke-linecap:round; stroke-linejoin:round;">
<g >
</g>
<g >
</g>
<g >
</g>
<g >
</g>
<g >
</g>
<g >
</g>
<g >
</g>
<g >
</g>
<g style="fill:#B2803A; fill-opacity:1.0000; 
stroke:#B2803A; stroke-width:0.0212; stroke-opacity:1; 
stroke-linecap:round; stroke-linejoin:round;">
</g>
<g style="fill:#B2803A; fill-opacity:1.0000; 
stroke:#B2803A; stroke-width:0.0000; stroke-opacity:1; 
stroke-linecap:round; stroke-linejoin:round;">
<circle cx="16.7671" cy="16.4095" r="0.9652" /> 
</g>
<g style="fill:#B2803A; fill-opacity:1.0000; 
stroke:#B2803A; stroke-width:0.0212; stroke-opacity:1; 
stroke-linecap:round; stroke-linejoin:round;">
</g>
<g style="fill:#B2803A; fill-opacity:1.0000; 
stroke:#B2803A; stroke-width:0.0000; stroke-opacity:1; 
stroke-linecap:round; stroke-linejoin:round;">
<circle cx="14.2271" cy="16.4095" r="0.9652" /> 
</g>
<g style="fill:#B2803A; fill-opacity:1.0000; 
stroke:#B2803A; stroke-width:0.0212; stroke-opacity:1; 
stroke-linecap:round; stroke-linejoin:round;">
</g>
<g style="fill:#B2803A; fill-opacity:1.0000; 
stroke:#B2803A; stroke-width:0.0000; stroke-opacity:1; 
stroke-linecap:round; stroke-linejoin:round;">
<circle cx="11.6871" cy="16.4095" r="0.9652" /> 
</g>
<g style="fill:#B2803A; fill-opacity:1.0000; 
stroke:#B2803A; stroke-width:0.0212; stroke-opacity:1; 
stroke-linecap:round; stroke-linejoin:round;">
</g>
<g style="fill:#B2803A; fill-opacity:1.0000; 
stroke:#B2803A; stroke-width:0.0000; stroke-opacity:1; 
stroke-linecap:round; stroke-linejoin:round;">
<circle cx="9.1471" cy="16.4095" r="0.9652" /> 
</g>
<g style="fill:#B2803A; fill-opacity:1.0000; 
stroke:#B2803A; stroke-width:0.0212; stroke-opacity:1; 
stroke-linecap:round; stroke-linejoin:round;">
</g>
<g style="fill:#B2803A; fill-opacity:1.0000; 
stroke:#B2803A; stroke-width:0.0000; stroke-opacity:1; 
stroke-linecap:round; stroke-linejoin:round;">
<circle cx="6.6071" cy="16.4095" r="0.9652" /> 
</g>
<g style="fill:#B2803A; fill-opacity:1.0000; 
stroke:#B2803A; stroke-width:0.0212; stroke-opacity:1; 
stroke-linecap:round; stroke-linejoin:round;">
</g>
<g style="fill:#B2803A; fill-opacity:1.0000; 
stroke:#B2803A; stroke-width:0.0000; stroke-opacity:1; 
stroke-linecap:round; stroke-linejoin:round;">
<circle cx="4.0671" cy="16.4095" r="0.9652" /> 
</g>
<g style="fill:#B2803A; fill-opacity:1.0000; 
stroke:#B2803A; stroke-width:0.0212; stroke-opacity:1; 
stroke-linecap:round; stroke-linejoin:round;">
</g>
<g >
</g>
<g >
</g>
<g style="fill:#B2803A; fill-opacity:1.0000; 
stroke:#B2803A; stroke-width:0.0212; stroke-opacity:1; 
stroke-linecap:round; stroke-linejoin:round;">
</g>
<g style="fill:#B2803A; fill-opacity:1.0000; 
stroke:#B2803A; stroke-width:0.0000; stroke-opacity:1; 
stroke-linecap:round; stroke-linejoin:round;">
<circle cx="16.1321" cy="2.9475" r="1.6000" /> 
</g>
<g style="fill:#B2803A; fill-opacity:1.0000; 
stroke:#B2803A; stroke-width:0.0212; stroke-opacity:1; 
stroke-linecap:round; stroke-linejoin:round;">
</g>
<g >
</g>
<g >
</g>
<g >
</g>
<g >
</g>
<g style="fill:#B2803A; fill-opacity:1.0000; 
stroke:#B2803A; stroke-width:0.0212; stroke-opacity:1; 
stroke-linecap:round; stroke-linejoin:round;">
</g>
<g style="fill:#B2803A; fill-opacity:1.0000; 
stroke:#B2803A; stroke-width:0.0000; stroke-opacity:1; 
stroke-linecap:round; stroke-linejoin:round;">
<circle cx="4.7021" cy="2.9475" r="1.6000" /> 
</g>
<g style="fill:#B2803A; fill-opacity:1.0000; 
stroke:#B2803A; stroke-width:0.0212; stroke-opacity:1; 
stroke-linecap:round; stroke-linejoin:round;">
</g>
<g >
</g>
<g >
</g>
<g >
</g>
<g style="fill:#121212; fill-opacity:1.0000; 
stroke:#121212; stroke-width:0.0212; stroke-opacity:1; 
stroke-linecap:round; stroke-linejoin:round;">
</g>
<g style="fill:#121212; fill-opacity:1.0000; 
stroke:#121212; stroke-width:0.0000; stroke-opacity:1; 
stroke-linecap:round; stroke-linejoin:round;">
<circle cx="17.6561" cy="11.2025" r="0.4532" /> 
</g>
<g style="fill:#121212; fill-opacity:1.0000; 
stroke:#121212; stroke-width:0.0212; stroke-opacity:1; 
stroke-linecap:round; stroke-linejoin:round;">
</g>
<g style="fill:#121212; fill-opacity:1.0000; 
stroke:#121212; stroke-width:0.0000; stroke-opacity:1; 
stroke-linecap:round; stroke-linejoin:round;">
<circle cx="10.4171" cy="8.0275" r="0.4532" /> 
</g>
<g style="fill:#121212; fill-opacity:1.0000; 
stroke:#121212; stroke-width:0.0212; stroke-opacity:1; 
stroke-linecap:round; stroke-linejoin:round;">
</g>
<g style="fill:#121212; fill-opacity:1.0000; 
stroke:#121212; stroke-width:0.0000; stroke-opacity:1; 
stroke-linecap:round; stroke-linejoin:round;">
<circle cx="7.8771" cy="12.8535" r="0.4532" /> 
</g>
<g style="fill:#121212; fill-opacity:1.0000; 
stroke:#121212; stroke-width:0.0212; stroke-opacity:1; 
stroke-linecap:round; stroke-linejoin:round;">
</g>
<g style="fill:#121212; fill-opacity:1.0000; 
stroke:#121212; stroke-width:0.0000; stroke-opacity:1; 
stroke-linecap:round; stroke-linejoin:round;">
<circle cx="17.7831" cy="5.6145" r="0.4532" /> 
</g>
<g style="fill:#121212; fill-opacity:1.0000; 
stroke:#121212; stroke-width:0.0212; stroke-opacity:1; 
stroke-linecap:round; stroke-linejoin:round;">
</g>
<g style="fill:#121212; fill-opacity:1.0000; 
stroke:#121212; stroke-width:0.0000; stroke-opacity:1; 
stroke-linecap:round; stroke-linejoin:round;">
<circle cx="3.0511" cy="5.1065" r="0.4532" /> 
</g>
<g style="fill:#121212; fill-opacity:1.0000; 
stroke:#121212; stroke-width:0.0212; stroke-opacity:1; 
stroke-linecap:round; stroke-linejoin:round;">
</g>
<g style="fill:#121212; fill-opacity:1.0000; 
stroke:#121212; stroke-width:0.0000; stroke-opacity:1; 
stroke-linecap:round; stroke-linejoin:round;">
<circle cx="13.2111" cy="13.6155" r="0.4532" /> 
</g>
<g style="fill:#121212; fill-opacity:1.0000; 
stroke:#121212; stroke-width:0.0212; stroke-opacity:1; 
stroke-linecap:round; stroke-linejoin:round;">
</g>
<g style="fill:#121212; fill-opacity:1.0000; 
stroke:#121212; stroke-width:0.0000; stroke-opacity:1; 
stroke-linecap:round; stroke-linejoin:round;">
<circle cx="15.2431" cy="12.9805" r="0.4532" /> 
</g>
<g style="fill:#121212; fill-opacity:1.0000; 
stroke:#121212; stroke-width:0.0212; stroke-opacity:1; 
stroke-linecap:round; stroke-linejoin:round;">
</g>
<g style="fill:#121212; fill-opacity:1.0000; 
stroke:#121212; stroke-width:0.0000; stroke-opacity:1; 
stroke-linecap:round; stroke-linejoin:round;">
<circle cx="10.1631" cy="13.3615" r="0.4532" /> 
</g>
<g style="fill:#121212; fill-opacity:1.0000; 
stroke:#121212; stroke-width:0.0212; stroke-opacity:1; 
stroke-linecap:round; stroke-linejoin:round;">
</g>
<g >
</g>
<g style="fill:#B2803A; fill-opacity:1.0000; 
stroke:#B2803A; stroke-width:0.0212; stroke-opacity:1; 
stroke-linecap:round; stroke-linejoin:round;">
</g>
<g style="fill:#B2803A; fill-opacity:1.0000; 
stroke:#B2803A; stroke-width:0.4064; stroke-opacity:1; 
stroke-linecap:round; stroke-linejoin:round;">
</g>
<g style="fill:#B2803A; fill-opacity:0.0; 
stroke:#B2803A; stroke-width:0.4064; stroke-opacity:1; 
stroke-linecap:round; stroke-linejoin:round;">
<path d="M3.0511 5.1065
L3.0511 12.3455
" />
<path d="M6.6071 15.9015
L6.6071 16.4095
" />
</g>
<g style="fill:#B2803A; fill-opacity:0.0; 
stroke:#B2803A; stroke-width:0.3048; stroke-opacity:1; 
stroke-linecap:round; stroke-linejoin:round;">
<path d="M6.6071 16.3485
L6.6071 16.4095
" />
</g>
<g style="fill:#B2803A; fill-opacity:0.0; 
stroke:#B2803A; stroke-width:0.4064; stroke-opacity:1; 
stroke-linecap:round; stroke-linejoin:round;">
<path d="M3.0511 12.3455
L6.6071 15.9015
" />
</g>
<g style="fill:#B2803A; fill-opacity:0.0; 
stroke:#B2803A; stroke-width:0.3048; stroke-opacity:1; 
stroke-linecap:round; stroke-linejoin:round;">
<path d="M17.7831 5.6145
L16.3861 7.0115
" />
<path d="M4.9561 7.0115
L3.0511 5.1065
" />
<path d="M16.3861 7.0115
L4.9561 7.0115
" />
<path d="M13.2111 13.6155
L13.2111 14.8855
" />
<path d="M13.2111 14.8855
L11.6871 16.4095
" />
<path d="M10.7981 11.9645
L10.1631 12.5995
" />
<path d="M15.2431 12.9805
L14.2271 11.9645
" />
<path d="M14.2271 11.9645
L10.7981 11.9645
" />
<path d="M10.1631 12.5995
L10.1631 13.3615
" />
</g>
<g >
</g>
<g style="fill:#B2803A; fill-opacity:0.0; 
stroke:#B2803A; stroke-width:0.3048; stroke-opacity:1; 
stroke-linecap:round; stroke-linejoin:round;">
<g >
</g>
<g style="fill:#B2803A; fill-opacity:1.0000; 
stroke:#B2803A; stroke-width:0.0000; stroke-opacity:1; 
stroke-linecap:round; stroke-linejoin:round;">
<path style="fill:#B2803A; fill-opacity:1.0000; 
stroke:#B2803A; stroke-width:0.0000; stroke-opacity:1; 
stroke-linecap:round; stroke-linejoin:round;fill-rule:evenodd;"
d="M 16.1333,0.4331
16.2649,0.4411
16.4330,0.4512
16.4375,0.4518
16.7317,0.5057
16.7361,0.5068
17.0216,0.5958
17.0259,0.5974
17.2986,0.7201
17.3026,0.7222
17.5586,0.8770
17.5623,0.8795
17.7978,1.0640
17.8012,1.0670
18.0127,1.2785
18.0157,1.2819
18.2001,1.5174
18.2027,1.5211
18.3574,1.7770
18.3596,1.7811
18.4823,2.0538
18.4839,2.0581
18.5729,2.3436
18.5740,2.3480
18.6279,2.6422
18.6284,2.6467
18.6466,2.9464
18.6466,2.9487
18.6466,15.6464
18.6466,15.6487
18.6284,15.9484
18.6279,15.9529
18.6273,15.9564
18.5902,16.1587
18.5740,16.2471
18.5729,16.2515
18.4839,16.5370
18.4823,16.5413
18.3596,16.8140
18.3574,16.8180
18.2027,17.0740
18.2001,17.0777
18.0157,17.3132
18.0127,17.3166
17.8012,17.5281
17.7978,17.5311
17.5623,17.7155
17.5586,17.7181
17.3026,17.8728
17.2986,17.8750
17.0259,17.9977
17.0216,17.9993
16.7361,18.0883
16.7317,18.0894
16.5265,18.1270
16.4375,18.1433
16.4330,18.1438
16.1333,18.1620
16.1310,18.1620
4.7033,18.1620
4.7010,18.1620
4.4013,18.1438
4.3968,18.1433
4.1026,18.0894
4.0982,18.0883
3.8127,17.9993
3.8084,17.9977
3.5357,17.8750
3.5317,17.8728
3.2757,17.7181
3.2720,17.7155
3.0365,17.5311
3.0331,17.5281
2.8216,17.3166
2.8186,17.3132
2.6341,17.0777
2.6316,17.0740
2.4768,16.8180
2.4747,16.8140
2.3520,16.5413
2.3504,16.5370
2.2614,16.2515
2.2603,16.2471
2.2064,15.9529
2.2058,15.9484
2.1888,15.6674
2.1877,15.6487
2.1876,15.6464
2.1876,5.1065
2.3382,5.1065
2.3590,5.2771
2.3590,5.2772
2.3590,5.2772
2.4199,5.4378
2.4199,5.4378
2.5175,5.5793
2.5175,5.5793
2.5175,5.5793
2.5175,5.5793
2.5175,5.5793
2.5681,5.6241
2.5926,5.6693
2.5934,5.6804
2.5934,12.3177
2.5932,12.3219
2.5886,12.3628
2.5886,12.3629
2.5998,12.4222
2.6088,12.4820
2.6105,12.4874
2.6105,12.4874
2.6123,12.4931
2.6124,12.4931
2.6142,12.4984
2.6425,12.5518
2.6687,12.6063
2.6719,12.6109
2.6718,12.6110
2.6753,12.6159
2.6754,12.6159
2.6787,12.6204
2.7076,12.6492
2.7215,12.6631
2.7626,12.7074
2.7626,12.7074
2.7670,12.7109
2.7669,12.7110
2.7771,12.7188
5.6294,15.5711
5.6511,15.6177
5.6378,15.6674
5.5821,15.7470
5.5508,15.7916
5.5468,15.7974
5.4566,15.9908
5.4566,15.9908
5.4495,16.0174
5.4098,16.1656
5.3803,16.2077
5.3306,16.2211
5.2840,16.1993
5.2645,16.1656
5.2626,16.1587
5.2177,15.9908
5.1680,15.8842
5.1275,15.7974
5.1275,15.7974
5.1275,15.7974
5.0051,15.6225
5.0051,15.6225
5.0051,15.6225
4.8542,15.4716
4.8541,15.4716
4.6793,15.3492
4.6793,15.3492
4.4859,15.2590
4.4859,15.2590
4.4859,15.2590
4.2798,15.2038
4.2798,15.2038
4.2797,15.2038
4.0957,15.1877
4.0671,15.1852
4.0671,15.1852
3.8545,15.2038
3.6484,15.2590
3.6484,15.2590
3.4550,15.3492
3.2801,15.4716
3.1292,15.6225
3.0068,15.7974
2.9166,15.9908
2.9166,15.9908
2.9118,16.0089
2.8614,16.1969
2.8428,16.4095
2.8614,16.6221
2.8614,16.6221
2.8614,16.6221
2.9128,16.8140
2.9166,16.8283
2.9166,16.8283
3.0068,17.0217
3.0068,17.0217
3.1292,17.1965
3.1292,17.1966
3.2801,17.3474
3.2801,17.3475
3.4550,17.4699
3.4550,17.4699
3.6484,17.5601
3.8545,17.6153
4.0671,17.6339
4.2798,17.6153
4.4859,17.5601
4.6793,17.4699
4.8541,17.3475
5.0051,17.1965
5.1275,17.0217
5.2177,16.8283
5.2645,16.6535
5.2940,16.6113
5.3437,16.5980
5.3903,16.6198
5.4098,16.6535
5.4528,16.8140
5.4566,16.8283
5.4566,16.8283
5.5468,17.0217
5.5468,17.0217
5.6692,17.1965
5.6692,17.1966
5.8201,17.3474
5.8201,17.3475
5.9950,17.4699
5.9950,17.4699
6.1884,17.5601
6.3945,17.6153
6.6071,17.6339
6.8198,17.6153
7.0259,17.5601
7.2193,17.4699
7.3941,17.3475
7.5451,17.1965
7.6675,17.0217
7.7416,16.8627
7.7562,16.8315
7.7925,16.7952
7.8438,16.7907
7.8859,16.8202
7.8970,16.8438
7.9020,16.8627
7.9020,16.8627
7.9996,17.0721
7.9996,17.0721
8.0960,17.2098
8.0960,17.2098
8.6874,16.6184
8.6877,16.6194
8.7654,16.7403
8.8740,16.8345
8.9420,16.8655
8.3469,17.4606
8.3469,17.4606
8.4846,17.5571
8.4846,17.5571
8.6939,17.6547
8.6940,17.6547
8.9171,17.7145
9.1471,17.7346
9.3772,17.7145
9.6003,17.6547
9.6003,17.6547
9.8097,17.5571
9.9474,17.4606
9.9474,17.4606
9.3523,16.8655
9.4202,16.8345
9.5289,16.7403
9.6066,16.6194
9.6069,16.6184
10.1982,17.2098
10.1982,17.2098
10.2947,17.0721
10.3923,16.8627
10.3923,16.8627
10.3973,16.8438
10.4268,16.8017
10.4765,16.7884
10.5231,16.8101
10.5381,16.8315
10.6268,17.0217
10.6268,17.0217
10.7492,17.1965
10.7492,17.1966
10.9001,17.3474
10.9001,17.3475
11.0750,17.4699
11.0750,17.4699
11.2684,17.5601
11.4745,17.6153
11.6871,17.6339
11.8998,17.6153
12.1059,17.5601
12.2993,17.4699
12.4741,17.3475
12.6251,17.1965
12.7475,17.0217
12.8377,16.8283
12.8845,16.6535
12.9140,16.6113
12.9637,16.5980
13.0103,16.6198
13.0298,16.6535
13.0728,16.8140
13.0766,16.8283
13.0766,16.8283
13.1668,17.0217
13.1668,17.0217
13.2892,17.1965
13.2892,17.1966
13.4401,17.3474
13.4401,17.3475
13.6150,17.4699
13.6150,17.4699
13.8084,17.5601
14.0145,17.6153
14.2271,17.6339
14.4398,17.6153
14.6459,17.5601
14.8393,17.4699
15.0141,17.3475
15.1651,17.1965
15.2875,17.0217
15.3777,16.8283
15.4245,16.6535
15.4540,16.6113
15.5037,16.5980
15.5503,16.6198
15.5698,16.6535
15.6128,16.8140
15.6166,16.8283
15.6166,16.8283
15.7068,17.0217
15.7068,17.0217
15.8292,17.1965
15.8292,17.1966
15.9801,17.3474
15.9801,17.3475
16.1550,17.4699
16.1550,17.4699
16.3484,17.5601
16.5545,17.6153
16.7671,17.6339
16.9798,17.6153
17.1859,17.5601
17.3793,17.4699
17.5541,17.3475
17.7051,17.1965
17.8275,17.0217
17.9177,16.8283
17.9729,16.6221
17.9915,16.4095
17.9729,16.1969
17.9177,15.9908
17.8680,15.8842
17.8275,15.7974
17.8275,15.7974
17.8275,15.7974
17.7051,15.6225
17.7051,15.6225
17.7051,15.6225
17.5542,15.4716
17.5541,15.4716
17.3793,15.3492
17.3793,15.3492
17.1859,15.2590
17.1859,15.2590
17.1859,15.2590
16.9798,15.2038
16.9798,15.2038
16.9797,15.2038
16.7957,15.1877
16.7671,15.1852
16.7671,15.1852
16.5545,15.2038
16.3484,15.2590
16.3484,15.2590
16.1550,15.3492
15.9801,15.4716
15.8292,15.6225
15.7068,15.7974
15.6166,15.9908
15.6166,15.9908
15.6095,16.0174
15.5698,16.1656
15.5403,16.2077
15.4906,16.2211
15.4440,16.1993
15.4245,16.1656
15.4226,16.1587
15.3777,15.9908
15.3280,15.8842
15.2875,15.7974
15.2875,15.7974
15.2875,15.7974
15.1651,15.6225
15.1651,15.6225
15.1651,15.6225
15.0142,15.4716
15.0141,15.4716
14.8393,15.3492
14.8393,15.3492
14.6459,15.2590
14.6459,15.2590
14.6459,15.2590
14.4398,15.2038
14.4398,15.2038
14.4397,15.2038
14.2557,15.1877
14.2271,15.1852
14.2271,15.1852
14.0145,15.2038
13.8084,15.2590
13.8084,15.2590
13.6150,15.3492
13.4401,15.4716
13.2892,15.6225
13.1668,15.7974
13.0766,15.9908
13.0766,15.9908
13.0695,16.0174
13.0298,16.1656
13.0003,16.2077
12.9506,16.2211
12.9040,16.1993
12.8845,16.1656
12.8826,16.1587
12.8377,15.9908
12.8216,15.9564
12.8102,15.9319
12.8057,15.8807
12.8252,15.8469
13.5215,15.1506
13.5215,15.1506
13.5258,15.1463
13.5258,15.1463
13.5444,15.1277
13.5565,15.1041
13.5626,15.0940
13.5695,15.0845
13.5782,15.0726
13.5864,15.0474
13.5909,15.0365
13.6030,15.0128
13.6071,14.9867
13.6099,14.9752
13.6180,14.9500
13.6180,14.9191
13.6180,14.9191
13.6180,14.2344
13.6356,14.1860
13.6434,14.1781
13.7448,14.0883
13.8424,13.9468
13.9033,13.7861
13.9240,13.6155
13.9033,13.4449
13.8424,13.2842
13.8424,13.2842
13.7448,13.1428
13.7448,13.1428
13.7448,13.1428
13.7448,13.1428
13.7448,13.1428
13.6161,13.0288
13.6161,13.0288
13.4639,12.9490
13.4639,12.9490
13.4639,12.9490
13.2971,12.9078
13.1252,12.9078
12.9583,12.9490
12.9583,12.9490
12.9583,12.9490
12.8062,13.0288
12.8062,13.0288
12.6775,13.1428
12.6775,13.1428
12.5799,13.2842
12.5799,13.2842
12.5190,13.4449
12.5190,13.4449
12.5190,13.4449
12.4982,13.6155
12.5190,13.7861
12.5190,13.7862
12.5190,13.7862
12.5799,13.9468
12.5799,13.9468
12.6775,14.0883
12.6775,14.0883
12.6775,14.0883
12.7789,14.1781
12.8034,14.2233
12.8042,14.2344
12.8042,14.6858
12.7867,14.7342
12.7822,14.7390
12.2497,15.2715
12.2031,15.2932
12.1648,15.2865
12.1059,15.2590
12.1059,15.2590
12.1059,15.2590
11.8998,15.2038
11.8998,15.2038
11.8997,15.2038
11.6871,15.1852
11.4745,15.2038
11.2684,15.2590
11.2684,15.2590
11.0750,15.3492
10.9001,15.4716
10.7492,15.6225
10.6268,15.7974
10.5381,15.9876
10.5018,16.0239
10.4505,16.0284
10.4084,15.9989
10.3973,15.9752
10.3923,15.9564
10.3923,15.9563
10.2947,15.7470
10.2947,15.7470
10.1982,15.6093
10.1982,15.6093
9.6069,16.2006
9.6066,16.1997
9.5289,16.0787
9.4202,15.9846
9.3523,15.9535
9.9474,15.3584
9.9474,15.3584
9.8097,15.2620
9.8097,15.2620
9.6003,15.1644
9.6003,15.1644
9.3772,15.1046
9.1471,15.0845
8.9171,15.1046
8.6940,15.1644
8.6939,15.1644
8.4846,15.2620
8.4846,15.2620
8.3469,15.3584
8.3469,15.3584
8.9420,15.9535
8.8740,15.9846
8.7654,16.0787
8.6877,16.1997
8.6874,16.2006
8.0960,15.6093
8.0960,15.6093
7.9996,15.7470
7.9996,15.7470
7.9020,15.9563
7.9020,15.9564
7.8970,15.9752
7.8674,16.0174
7.8178,16.0307
7.7711,16.0089
7.7562,15.9876
7.6675,15.7974
7.6675,15.7974
7.6675,15.7974
7.5451,15.6225
7.5451,15.6225
7.5451,15.6225
7.3942,15.4716
7.3941,15.4716
7.2193,15.3492
7.2193,15.3492
7.0259,15.2590
7.0259,15.2590
7.0259,15.2590
6.8198,15.2038
6.8198,15.2038
6.8197,15.2038
6.6576,15.1896
6.6071,15.1852
6.6071,15.1852
6.6071,15.1852
6.5786,15.1877
6.5289,15.1744
6.5188,15.1659
4.7144,13.3615
9.4502,13.3615
9.4710,13.5321
9.4710,13.5322
9.4710,13.5322
9.5319,13.6928
9.5319,13.6928
9.6295,13.8343
9.6295,13.8343
9.7566,13.9468
9.7582,13.9482
9.9103,14.0281
10.0772,14.0692
10.0772,14.0692
10.2491,14.0692
10.2491,14.0692
10.4159,14.0281
10.5681,13.9482
10.6968,13.8343
10.7944,13.6928
10.8553,13.5321
10.8760,13.3615
10.8553,13.1909
10.7944,13.0302
10.7099,12.9078
10.6968,12.8888
10.6968,12.8888
10.6968,12.8888
10.6968,12.8888
10.6968,12.8888
10.6254,12.8255
10.6008,12.7803
10.6111,12.7299
10.6220,12.7161
10.9447,12.3935
10.9913,12.3717
10.9978,12.3714
14.0275,12.3714
14.0758,12.3890
14.0806,12.3935
14.5192,12.8321
14.5410,12.8787
14.5407,12.8943
14.5391,12.9078
14.5302,12.9805
14.5510,13.1511
14.5510,13.1512
14.5510,13.1512
14.6119,13.3118
14.6119,13.3118
14.7095,13.4533
14.7095,13.4533
14.7986,13.5321
14.8382,13.5672
14.9903,13.6471
15.1572,13.6882
15.1572,13.6882
15.3291,13.6882
15.3291,13.6882
15.4959,13.6471
15.6481,13.5672
15.7768,13.4533
15.8744,13.3118
15.9353,13.1511
15.9560,12.9805
15.9353,12.8099
15.8744,12.6492
15.8545,12.6204
15.7768,12.5078
15.7768,12.5078
15.7768,12.5078
15.7768,12.5078
15.7768,12.5078
15.6481,12.3938
15.6481,12.3938
15.4959,12.3140
15.4959,12.3140
15.4959,12.3140
15.3291,12.2728
15.1572,12.2728
15.1572,12.2728
15.1527,12.2734
15.1524,12.2709
15.1100,12.2663
15.0901,12.2520
14.9629,12.1248
14.4922,11.6542
14.4808,11.6427
14.4693,11.6312
14.4693,11.6312
14.4457,11.6192
14.4356,11.6131
14.4142,11.5975
14.4142,11.5975
14.3890,11.5893
14.3781,11.5848
14.3721,11.5817
14.3545,11.5727
14.3544,11.5727
14.3283,11.5686
14.3168,11.5658
14.2916,11.5576
14.2916,11.5576
14.2592,11.5576
10.8626,11.5576
10.7337,11.5576
10.7337,11.5576
10.7085,11.5658
10.6970,11.5686
10.6708,11.5727
10.6472,11.5848
10.6363,11.5893
10.6111,11.5975
10.6111,11.5975
10.5897,11.6131
10.5796,11.6192
10.5560,11.6312
10.4975,11.6897
9.8990,12.2883
9.8990,12.2883
9.8299,12.3574
9.8299,12.3574
9.8178,12.3810
9.8117,12.3911
9.7961,12.4125
9.7961,12.4125
9.7879,12.4377
9.7834,12.4486
9.7713,12.4722
9.7672,12.4984
9.7644,12.5099
9.7562,12.5351
9.7562,12.7427
9.7387,12.7910
9.7309,12.7990
9.6295,12.8888
9.6295,12.8888
9.5319,13.0302
9.5319,13.0302
9.4710,13.1909
9.4710,13.1909
9.4710,13.1909
9.4502,13.3615
4.7144,13.3615
3.5309,12.1780
3.5091,12.1314
3.5088,12.1248
3.5088,6.3212
3.5264,6.2729
3.5710,6.2472
3.6216,6.2561
3.6372,6.2681
4.6229,7.2537
4.7140,7.3448
4.7376,7.3569
4.7477,7.3630
4.7628,7.3740
4.7691,7.3786
4.7691,7.3786
4.7943,7.3868
4.8052,7.3913
4.8288,7.4033
4.8377,7.4047
4.8550,7.4075
4.8665,7.4102
4.8917,7.4184
4.8917,7.4184
16.4506,7.4184
16.4506,7.4184
16.4758,7.4102
16.4873,7.4075
16.5135,7.4033
16.5371,7.3913
16.5480,7.3868
16.5732,7.3786
16.5946,7.3630
16.6047,7.3569
16.6283,7.3448
16.7194,7.2537
16.7194,7.2537
17.6301,6.3431
17.6767,6.3213
17.6926,6.3226
17.6927,6.3217
17.6972,6.3222
17.6972,6.3222
17.8691,6.3222
17.8691,6.3222
18.0359,6.2811
18.1881,6.2012
18.3168,6.0873
18.4144,5.9458
18.4753,5.7851
18.4960,5.6145
18.4753,5.4439
18.4144,5.2832
18.3770,5.2291
18.3168,5.1418
18.3168,5.1418
18.3168,5.1418
18.3168,5.1418
18.3168,5.1418
18.1881,5.0278
18.1881,5.0278
18.0359,4.9480
18.0359,4.9480
18.0359,4.9480
17.8691,4.9068
17.6972,4.9068
17.5303,4.9480
17.5303,4.9480
17.5303,4.9480
17.3782,5.0278
17.3782,5.0278
17.2495,5.1418
17.2495,5.1418
17.1519,5.2832
17.1519,5.2832
17.0910,5.4439
17.0910,5.4439
17.0910,5.4439
17.0745,5.5793
17.0702,5.6145
17.0807,5.7008
17.0691,5.7509
17.0592,5.7630
16.2396,6.5826
16.1930,6.6044
16.1865,6.6046
5.1558,6.6046
5.1075,6.5870
5.1027,6.5826
3.7750,5.2550
3.7533,5.2084
3.7536,5.1928
3.7640,5.1065
3.7433,4.9359
3.7090,4.8453
3.7083,4.7939
3.7408,4.7540
3.7913,4.7444
3.8122,4.7510
3.9469,4.8167
4.2144,4.9037
4.4914,4.9525
4.7725,4.9623
5.0522,4.9329
5.3251,4.8649
5.4442,4.8167
5.5859,4.7595
5.5859,4.7595
5.5859,4.7595
5.8295,4.6189
6.0511,4.4457
6.2465,4.2434
6.4118,4.0159
6.5439,3.7675
6.6400,3.5032
6.6985,3.2281
6.7083,3.0882
14.1211,3.0882
14.1602,3.3667
14.2377,3.6371
14.3521,3.8940
14.5012,4.1325
14.5012,4.1325
14.5012,4.1325
14.6820,4.3480
14.8910,4.5362
15.1241,4.6934
15.3769,4.8167
15.6444,4.9037
15.9214,4.9525
16.2025,4.9623
16.4822,4.9329
16.7551,4.8649
16.8742,4.8167
17.0159,4.7595
17.0159,4.7595
17.0159,4.7595
17.2595,4.6189
17.4811,4.4457
17.6765,4.2434
17.8418,4.0159
17.9739,3.7675
18.0700,3.5032
18.1285,3.2281
18.1481,2.9475
18.1285,2.6670
18.0700,2.3919
17.9739,2.1276
17.8418,1.8792
17.8418,1.8792
17.8418,1.8792
17.6765,1.6517
17.6765,1.6517
17.6765,1.6517
17.4811,1.4494
17.4811,1.4494
17.4811,1.4494
17.2595,1.2762
17.0159,1.1356
17.0159,1.1356
16.7551,1.0302
16.7551,1.0302
16.4822,0.9622
16.2025,0.9328
15.9214,0.9426
15.6444,0.9914
15.6444,0.9914
15.6444,0.9914
15.5622,1.0181
15.3769,1.0783
15.1241,1.2016
14.8910,1.3589
14.8910,1.3589
14.6820,1.5471
14.5012,1.7626
14.5012,1.7626
14.3521,2.0011
14.2377,2.2580
14.1602,2.5284
14.1211,2.8069
14.1211,3.0882
6.7083,3.0882
6.7181,2.9475
6.6985,2.6670
6.6400,2.3919
6.5439,2.1276
6.4118,1.8792
6.4118,1.8792
6.4118,1.8792
6.2465,1.6517
6.2465,1.6517
6.0511,1.4494
6.0511,1.4494
6.0511,1.4494
5.8295,1.2762
5.5859,1.1356
5.5859,1.1356
5.3251,1.0302
5.3251,1.0302
5.0522,0.9622
4.7725,0.9328
4.4914,0.9426
4.2144,0.9914
4.2144,0.9914
4.2144,0.9914
4.1322,1.0181
3.9469,1.0783
3.6941,1.2016
3.4610,1.3589
3.4610,1.3589
3.2520,1.5471
3.0712,1.7626
3.0712,1.7626
2.9221,2.0011
2.8077,2.2580
2.7302,2.5284
2.6911,2.8069
2.6911,3.0882
2.7302,3.3667
2.8077,3.6371
2.9221,3.8940
3.0712,4.1325
3.0712,4.1325
3.0712,4.1325
3.1910,4.2753
3.2086,4.3236
3.1910,4.3720
3.1464,4.3977
3.1334,4.3988
2.9652,4.3988
2.7983,4.4400
2.7983,4.4400
2.7983,4.4400
2.6462,4.5198
2.6462,4.5198
2.5175,4.6338
2.5175,4.6338
2.4199,4.7752
2.4199,4.7752
2.3590,4.9359
2.3590,4.9359
2.3590,4.9359
2.3382,5.1065
2.1876,5.1065
2.1876,2.9487
2.1877,2.9464
2.1964,2.8035
2.2058,2.6467
2.2064,2.6422
2.2603,2.3480
2.2614,2.3436
2.3504,2.0581
2.3520,2.0538
2.3951,1.9580
2.4747,1.7811
2.4768,1.7770
2.6316,1.5211
2.6341,1.5174
2.8186,1.2819
2.8216,1.2785
3.0331,1.0670
3.0365,1.0640
3.2720,0.8795
3.2757,0.8770
3.5317,0.7222
3.5357,0.7201
3.5835,0.6986
3.8084,0.5974
3.8127,0.5958
4.0982,0.5068
4.1026,0.5057
4.3968,0.4518
4.4013,0.4512
4.5751,0.4407
4.7010,0.4331
4.7033,0.4330
4.7104,0.4330
16.1239,0.4330
16.1310,0.4330
Z" /> 
</g>
</g>
</g>
<g style="fill:#000000; fill-opacity:1.0000; 
stroke:#000000; stroke-width:0.0000; stroke-opacity:1; 
stroke-linecap:round; stroke-linejoin:round;">
<circle cx="17.6561" cy="11.2025" r="0.2500" /> 
</g>
<g style="fill:#000000; fill-opacity:1.0000; 
stroke:#000000; stroke-width:0.0212; stroke-opacity:1; 
stroke-linecap:round; stroke-linejoin:round;">
</g>
<g style="fill:#000000; fill-opacity:1.0000; 
stroke:#000000; stroke-width:0.0000; stroke-opacity:1; 
stroke-linecap:round; stroke-linejoin:round;">
<circle cx="10.4171" cy="8.0275" r="0.2500" /> 
</g>
<g style="fill:#000000; fill-opacity:1.0000; 
stroke:#000000; stroke-width:0.0212; stroke-opacity:1; 
stroke-linecap:round; stroke-linejoin:round;">
</g>
<g style="fill:#000000; fill-opacity:1.0000; 
stroke:#000000; stroke-width:0.0000; stroke-opacity:1; 
stroke-linecap:round; stroke-linejoin:round;">
<circle cx="7.8771" cy="12.8535" r="0.2500" /> 
</g>
<g style="fill:#000000; fill-opacity:1.0000; 
stroke:#000000; stroke-width:0.0212; stroke-opacity:1; 
stroke-linecap:round; stroke-linejoin:round;">
</g>
<g style="fill:#000000; fill-opacity:1.0000; 
stroke:#000000; stroke-width:0.0000; stroke-opacity:1; 
stroke-linecap:round; stroke-linejoin:round;">
<circle cx="17.7831" cy="5.6145" r="0.2500" /> 
</g>
<g style="fill:#000000; fill-opacity:1.0000; 
stroke:#000000; stroke-width:0.0212; stroke-opacity:1; 
stroke-linecap:round; stroke-linejoin:round;">
</g>
<g style="fill:#000000; fill-opacity:1.0000; 
stroke:#000000; stroke-width:0.0000; stroke-opacity:1; 
stroke-linecap:round; stroke-linejoin:round;">
<circle cx="3.0511" cy="5.1065" r="0.2500" /> 
</g>
<g style="fill:#000000; fill-opacity:1.0000; 
stroke:#000000; stroke-width:0.0212; stroke-opacity:1; 
stroke-linecap:round; stroke-linejoin:round;">
</g>
<g style="fill:#000000; fill-opacity:1.0000; 
stroke:#000000; stroke-width:0.0000; stroke-opacity:1; 
stroke-linecap:round; stroke-linejoin:round;">
<circle cx="13.2111" cy="13.6155" r="0.2500" /> 
</g>
<g style="fill:#000000; fill-opacity:1.0000; 
stroke:#000000; stroke-width:0.0212; stroke-opacity:1; 
stroke-linecap:round; stroke-linejoin:round;">
</g>
<g style="fill:#000000; fill-opacity:1.0000; 
stroke:#000000; stroke-width:0.0000; stroke-opacity:1; 
stroke-linecap:round; stroke-linejoin:round;">
<circle cx="15.2431" cy="12.9805" r="0.2500" /> 
</g>
<g style="fill:#000000; fill-opacity:1.0000; 
stroke:#000000; stroke-width:0.0212; stroke-opacity:1; 
stroke-linecap:round; stroke-linejoin:round;">
</g>
<g style="fill:#000000; fill-opacity:1.0000; 
stroke:#000000; stroke-width:0.0000; stroke-opacity:1; 
stroke-linecap:round; stroke-linejoin:round;">
<circle cx="10.1631" cy="13.3615" r="0.2500" /> 
</g>
<g style="fill:#000000; fill-opacity:1.0000; 
stroke:#000000; stroke-width:0.0212; stroke-opacity:1; 
stroke-linecap:round; stroke-linejoin:round;">
</g>
<g style="fill:#000000; fill-opacity:1.0000; 
stroke:#000000; stroke-width:0.0000; stroke-opacity:1; 
stroke-linecap:round; stroke-linejoin:round;">
<circle cx="16.7671" cy="16.4095" r="0.5000" /> 
</g>
<g style="fill:#000000; fill-opacity:1.0000; 
stroke:#000000; stroke-width:0.0212; stroke-opacity:1; 
stroke-linecap:round; stroke-linejoin:round;">
</g>
<g style="fill:#000000; fill-opacity:1.0000; 
stroke:#000000; stroke-width:0.0000; stroke-opacity:1; 
stroke-linecap:round; stroke-linejoin:round;">
<circle cx="14.2271" cy="16.4095" r="0.5000" /> 
</g>
<g style="fill:#000000; fill-opacity:1.0000; 
stroke:#000000; stroke-width:0.0212; stroke-opacity:1; 
stroke-linecap:round; stroke-linejoin:round;">
</g>
<g style="fill:#000000; fill-opacity:1.0000; 
stroke:#000000; stroke-width:0.0000; stroke-opacity:1; 
stroke-linecap:round; stroke-linejoin:round;">
<circle cx="11.6871" cy="16.4095" r="0.5000" /> 
</g>
<g style="fill:#000000; fill-opacity:1.0000; 
stroke:#000000; stroke-width:0.0212; stroke-opacity:1; 
stroke-linecap:round; stroke-linejoin:round;">
</g>
<g style="fill:#000000; fill-opacity:1.0000; 
stroke:#000000; stroke-width:0.0000; stroke-opacity:1; 
stroke-linecap:round; stroke-linejoin:round;">
<circle cx="9.1471" cy="16.4095" r="0.5000" /> 
</g>
<g style="fill:#000000; fill-opacity:1.0000; 
stroke:#000000; stroke-width:0.0212; stroke-opacity:1; 
stroke-linecap:round; stroke-linejoin:round;">
</g>
<g style="fill:#000000; fill-opacity:1.0000; 
stroke:#000000; stroke-width:0.0000; stroke-opacity:1; 
stroke-linecap:round; stroke-linejoin:round;">
<circle cx="6.6071" cy="16.4095" r="0.5000" /> 
</g>
<g style="fill:#000000; fill-opacity:1.0000; 
stroke:#000000; stroke-width:0.0212; stroke-opacity:1; 
stroke-linecap:round; stroke-linejoin:round;">
</g>
<g style="fill:#000000; fill-opacity:1.0000; 
stroke:#000000; stroke-width:0.0000; stroke-opacity:1; 
stroke-linecap:round; stroke-linejoin:round;">
<circle cx="4.0671" cy="16.4095" r="0.5000" /> 
</g>
<g style="fill:#000000; fill-opacity:1.0000; 
stroke:#000000; stroke-width:0.0212; stroke-opacity:1; 
stroke-linecap:round; stroke-linejoin:round;">
</g>
<g style="fill:#000000; fill-opacity:1.0000; 
stroke:#000000; stroke-width:0.0000; stroke-opacity:1; 
stroke-linecap:round; stroke-linejoin:round;">
<circle cx="16.1321" cy="2.9475" r="1.2500" /> 
</g>
<g style="fill:#000000; fill-opacity:1.0000; 
stroke:#000000; stroke-width:0.0212; stroke-opacity:1; 
stroke-linecap:round; stroke-linejoin:round;">
</g>
<g style="fill:#000000; fill-opacity:1.0000; 
stroke:#000000; stroke-width:0.0000; stroke-opacity:1; 
stroke-linecap:round; stroke-linejoin:round;">
<circle cx="4.7021" cy="2.9475" r="1.2500" /> 
</g>
<g style="fill:#000000; fill-opacity:1.0000; 
stroke:#000000; stroke-width:0.0212; stroke-opacity:1; 
stroke-linecap:round; stroke-linejoin:round;">
</g>
<g style="fill:#FFFFFF; fill-opacity:1.0000; 
stroke:#FFFFFF; stroke-width:0.0212; stroke-opacity:1; 
stroke-linecap:round; stroke-linejoin:round;">
<g >
</g>
<g style="fill:#37CBCB; fill-opacity:1.0000; 
stroke:#37CBCB; stroke-width:0.0212; stroke-opacity:1; 
stroke-linecap:round; stroke-linejoin:round;">
</g>
<g style="fill:#37CBCB; fill-opacity:1.0000; 
stroke:#37CBCB; stroke-width:0.0000; stroke-opacity:1; 
stroke-linecap:round; stroke-linejoin:round;">
<path style="fill:#37CBCB; fill-opacity:1.0000; 
stroke:#37CBCB; stroke-width:0.0000; stroke-opacity:1; 
stroke-linecap:round; stroke-linejoin:round;fill-rule:evenodd;"
d="M 2.4671,12.0795
2.4671,10.5795
3.7671,10.5795
3.7671,12.0795
Z" /> 
<path style="fill:#37CBCB; fill-opacity:1.0000; 
stroke:#37CBCB; stroke-width:0.0000; stroke-opacity:1; 
stroke-linecap:round; stroke-linejoin:round;fill-rule:evenodd;"
d="M 4.3671,12.0795
4.3671,10.5795
5.6671,10.5795
5.6671,12.0795
Z" /> 
</g>
<g >
</g>
<g style="fill:#37CBCB; fill-opacity:1.0000; 
stroke:#37CBCB; stroke-width:0.0000; stroke-opacity:1; 
stroke-linecap:round; stroke-linejoin:round;">
<path style="fill:#37CBCB; fill-opacity:1.0000; 
stroke:#37CBCB; stroke-width:0.0000; stroke-opacity:1; 
stroke-linecap:round; stroke-linejoin:round;fill-rule:evenodd;"
d="M 15.5091,6.4275
17.0091,6.4275
17.0091,7.7275
15.5091,7.7275
Z" /> 
<path style="fill:#37CBCB; fill-opacity:1.0000; 
stroke:#37CBCB; stroke-width:0.0000; stroke-opacity:1; 
stroke-linecap:round; stroke-linejoin:round;fill-rule:evenodd;"
d="M 15.5091,8.3275
17.0091,8.3275
17.0091,9.6275
15.5091,9.6275
Z" /> 
</g>
<g >
</g>
<g style="fill:#37CBCB; fill-opacity:1.0000; 
stroke:#37CBCB; stroke-width:0.0000; stroke-opacity:1; 
stroke-linecap:round; stroke-linejoin:round;">
<path style="fill:#37CBCB; fill-opacity:1.0000; 
stroke:#37CBCB; stroke-width:0.0000; stroke-opacity:1; 
stroke-linecap:round; stroke-linejoin:round;fill-rule:evenodd;"
d="M 9.0921,10.2025
8.7421,10.2025
8.7421,9.3975
9.0921,9.3975
Z" /> 
<path style="fill:#37CBCB; fill-opacity:1.0000; 
stroke:#37CBCB; stroke-width:0.0000; stroke-opacity:1; 
stroke-linecap:round; stroke-linejoin:round;fill-rule:evenodd;"
d="M 9.8421,10.2025
9.4921,10.2025
9.4921,9.3975
9.8421,9.3975
Z" /> 
<path style="fill:#37CBCB; fill-opacity:1.0000; 
stroke:#37CBCB; stroke-width:0.0000; stroke-opacity:1; 
stroke-linecap:round; stroke-linejoin:round;fill-rule:evenodd;"
d="M 10.5921,10.2025
10.2421,10.2025
10.2421,9.3975
10.5921,9.3975
Z" /> 
<path style="fill:#37CBCB; fill-opacity:1.0000; 
stroke:#37CBCB; stroke-width:0.0000; stroke-opacity:1; 
stroke-linecap:round; stroke-linejoin:round;fill-rule:evenodd;"
d="M 11.3421,10.2025
10.9921,10.2025
10.9921,9.3975
11.3421,9.3975
Z" /> 
<path style="fill:#37CBCB; fill-opacity:1.0000; 
stroke:#37CBCB; stroke-width:0.0000; stroke-opacity:1; 
stroke-linecap:round; stroke-linejoin:round;fill-rule:evenodd;"
d="M 12.0921,10.2025
11.7421,10.2025
11.7421,9.3975
12.0921,9.3975
Z" /> 
<path style="fill:#37CBCB; fill-opacity:1.0000; 
stroke:#37CBCB; stroke-width:0.0000; stroke-opacity:1; 
stroke-linecap:round; stroke-linejoin:round;fill-rule:evenodd;"
d="M 11.7871,9.0275
11.7871,8.6275
12.5921,8.6275
12.5921,9.0275
Z" /> 
<path style="fill:#37CBCB; fill-opacity:1.0000; 
stroke:#37CBCB; stroke-width:0.0000; stroke-opacity:1; 
stroke-linecap:round; stroke-linejoin:round;fill-rule:evenodd;"
d="M 11.7421,5.8525
12.0921,5.8525
12.0921,6.6575
11.7421,6.6575
Z" /> 
<path style="fill:#37CBCB; fill-opacity:1.0000; 
stroke:#37CBCB; stroke-width:0.0000; stroke-opacity:1; 
stroke-linecap:round; stroke-linejoin:round;fill-rule:evenodd;"
d="M 10.9921,5.8525
11.3421,5.8525
11.3421,6.6575
10.9921,6.6575
Z" /> 
<path style="fill:#37CBCB; fill-opacity:1.0000; 
stroke:#37CBCB; stroke-width:0.0000; stroke-opacity:1; 
stroke-linecap:round; stroke-linejoin:round;fill-rule:evenodd;"
d="M 10.2421,5.8525
10.5921,5.8525
10.5921,6.6575
10.2421,6.6575
Z" /> 
<path style="fill:#37CBCB; fill-opacity:1.0000; 
stroke:#37CBCB; stroke-width:0.0000; stroke-opacity:1; 
stroke-linecap:round; stroke-linejoin:round;fill-rule:evenodd;"
d="M 9.4921,5.8525
9.8421,5.8525
9.8421,6.6575
9.4921,6.6575
Z" /> 
<path style="fill:#37CBCB; fill-opacity:1.0000; 
stroke:#37CBCB; stroke-width:0.0000; stroke-opacity:1; 
stroke-linecap:round; stroke-linejoin:round;fill-rule:evenodd;"
d="M 8.7421,5.8525
9.0921,5.8525
9.0921,6.6575
8.7421,6.6575
Z" /> 
<path style="fill:#37CBCB; fill-opacity:1.0000; 
stroke:#37CBCB; stroke-width:0.0000; stroke-opacity:1; 
stroke-linecap:round; stroke-linejoin:round;fill-rule:evenodd;"
d="M 8.2421,8.4025
8.2421,8.0025
9.0471,8.0025
9.0471,8.4025
Z" /> 
<path style="fill:#37CBCB; fill-opacity:1.0000; 
stroke:#37CBCB; stroke-width:0.0000; stroke-opacity:1; 
stroke-linecap:round; stroke-linejoin:round;fill-rule:evenodd;"
d="M 11.7871,8.2275
11.7871,7.8275
12.5921,7.8275
12.5921,8.2275
Z" /> 
</g>
<g >
</g>
<g style="fill:#37CBCB; fill-opacity:1.0000; 
stroke:#37CBCB; stroke-width:0.0000; stroke-opacity:1; 
stroke-linecap:round; stroke-linejoin:round;">
<path style="fill:#37CBCB; fill-opacity:1.0000; 
stroke:#37CBCB; stroke-width:0.0000; stroke-opacity:1; 
stroke-linecap:round; stroke-linejoin:round;fill-rule:evenodd;"
d="M 11.7631,10.8335
11.7631,12.3335
10.4631,12.3335
10.4631,10.8335
Z" /> 
<path style="fill:#37CBCB; fill-opacity:1.0000; 
stroke:#37CBCB; stroke-width:0.0000; stroke-opacity:1; 
stroke-linecap:round; stroke-linejoin:round;fill-rule:evenodd;"
d="M 9.8631,10.8335
9.8631,12.3335
8.5631,12.3335
8.5631,10.8335
Z" /> 
</g>
<g >
</g>
<g style="fill:#37CBCB; fill-opacity:1.0000; 
stroke:#37CBCB; stroke-width:0.0000; stroke-opacity:1; 
stroke-linecap:round; stroke-linejoin:round;">
<path style="fill:#37CBCB; fill-opacity:1.0000; 
stroke:#37CBCB; stroke-width:0.0000; stroke-opacity:1; 
stroke-linecap:round; stroke-linejoin:round;fill-rule:evenodd;"
d="M 2.8421,9.6736
2.8421,8.4736
3.3921,8.4736
3.3921,9.6736
Z" /> 
<path style="fill:#37CBCB; fill-opacity:1.0000; 
stroke:#37CBCB; stroke-width:0.0000; stroke-opacity:1; 
stroke-linecap:round; stroke-linejoin:round;fill-rule:evenodd;"
d="M 3.7921,9.6736
3.7921,8.4736
4.3421,8.4736
4.3421,9.6736
Z" /> 
<path style="fill:#37CBCB; fill-opacity:1.0000; 
stroke:#37CBCB; stroke-width:0.0000; stroke-opacity:1; 
stroke-linecap:round; stroke-linejoin:round;fill-rule:evenodd;"
d="M 4.7421,9.6736
4.7421,8.4736
5.2921,8.4736
5.2921,9.6736
Z" /> 
<path style="fill:#37CBCB; fill-opacity:1.0000; 
stroke:#37CBCB; stroke-width:0.0000; stroke-opacity:1; 
stroke-linecap:round; stroke-linejoin:round;fill-rule:evenodd;"
d="M 4.7421,7.0734
4.7421,5.8734
5.2921,5.8734
5.2921,7.0734
Z" /> 
<path style="fill:#37CBCB; fill-opacity:1.0000; 
stroke:#37CBCB; stroke-width:0.0000; stroke-opacity:1; 
stroke-linecap:round; stroke-linejoin:round;fill-rule:evenodd;"
d="M 2.8421,7.0734
2.8421,5.8734
3.3921,5.8734
3.3921,7.0734
Z" /> 
</g>
<g >
</g>
<g style="fill:#37CBCB; fill-opacity:1.0000; 
stroke:#37CBCB; stroke-width:0.0000; stroke-opacity:1; 
stroke-linecap:round; stroke-linejoin:round;">
<path style="fill:#37CBCB; fill-opacity:1.0000; 
stroke:#37CBCB; stroke-width:0.0000; stroke-opacity:1; 
stroke-linecap:round; stroke-linejoin:round;fill-rule:evenodd;"
d="M 6.1111,8.9675
7.6111,8.9675
7.6111,10.2675
6.1111,10.2675
Z" /> 
<path style="fill:#37CBCB; fill-opacity:1.0000; 
stroke:#37CBCB; stroke-width:0.0000; stroke-opacity:1; 
stroke-linecap:round; stroke-linejoin:round;fill-rule:evenodd;"
d="M 6.1111,10.8675
7.6111,10.8675
7.6111,12.1675
6.1111,12.1675
Z" /> 
</g>
<g >
</g>
<g style="fill:#37CBCB; fill-opacity:1.0000; 
stroke:#37CBCB; stroke-width:0.0000; stroke-opacity:1; 
stroke-linecap:round; stroke-linejoin:round;">
<path style="fill:#37CBCB; fill-opacity:1.0000; 
stroke:#37CBCB; stroke-width:0.0000; stroke-opacity:1; 
stroke-linecap:round; stroke-linejoin:round;fill-rule:evenodd;"
d="M 5.0911,13.2345
5.1026,13.1283
5.1523,12.9949
5.2376,12.8810
5.3515,12.7957
5.4849,12.7460
5.5911,12.7345
5.6974,12.7460
5.8308,12.7957
5.9447,12.8810
6.0300,12.9949
6.0797,13.1283
6.0911,13.2345
6.0797,13.3408
6.0300,13.4742
5.9447,13.5881
5.8308,13.6734
5.6974,13.7231
5.5911,13.7345
5.4849,13.7231
5.3515,13.6734
5.2376,13.5881
5.1523,13.4742
5.1026,13.3408
5.0911,13.2345
Z" /> 
</g>
<g >
</g>
<g style="fill:#37CBCB; fill-opacity:1.0000; 
stroke:#37CBCB; stroke-width:0.0000; stroke-opacity:1; 
stroke-linecap:round; stroke-linejoin:round;">
<circle cx="16.7671" cy="16.4095" r="0.9652" /> 
</g>
<g style="fill:#37CBCB; fill-opacity:1.0000; 
stroke:#37CBCB; stroke-width:0.0212; stroke-opacity:1; 
stroke-linecap:round; stroke-linejoin:round;">
</g>
<g style="fill:#37CBCB; fill-opacity:1.0000; 
stroke:#37CBCB; stroke-width:0.0000; stroke-opacity:1; 
stroke-linecap:round; stroke-linejoin:round;">
<circle cx="14.2271" cy="16.4095" r="0.9652" /> 
</g>
<g style="fill:#37CBCB; fill-opacity:1.0000; 
stroke:#37CBCB; stroke-width:0.0212; stroke-opacity:1; 
stroke-linecap:round; stroke-linejoin:round;">
</g>
<g style="fill:#37CBCB; fill-opacity:1.0000; 
stroke:#37CBCB; stroke-width:0.0000; stroke-opacity:1; 
stroke-linecap:round; stroke-linejoin:round;">
<circle cx="11.6871" cy="16.4095" r="0.9652" /> 
</g>
<g style="fill:#37CBCB; fill-opacity:1.0000; 
stroke:#37CBCB; stroke-width:0.0212; stroke-opacity:1; 
stroke-linecap:round; stroke-linejoin:round;">
</g>
<g style="fill:#37CBCB; fill-opacity:1.0000; 
stroke:#37CBCB; stroke-width:0.0000; stroke-opacity:1; 
stroke-linecap:round; stroke-linejoin:round;">
<circle cx="9.1471" cy="16.4095" r="0.9652" /> 
</g>
<g style="fill:#37CBCB; fill-opacity:1.0000; 
stroke:#37CBCB; stroke-width:0.0212; stroke-opacity:1; 
stroke-linecap:round; stroke-linejoin:round;">
</g>
<g style="fill:#37CBCB; fill-opacity:1.0000; 
stroke:#37CBCB; stroke-width:0.0000; stroke-opacity:1; 
stroke-linecap:round; stroke-linejoin:round;">
<circle cx="6.6071" cy="16.4095" r="0.9652" /> 
</g>
<g style="fill:#37CBCB; fill-opacity:1.0000; 
stroke:#37CBCB; stroke-width:0.0212; stroke-opacity:1; 
stroke-linecap:round; stroke-linejoin:round;">
</g>
<g style="fill:#37CBCB; fill-opacity:1.0000; 
stroke:#37CBCB; stroke-width:0.0000; stroke-opacity:1; 
stroke-linecap:round; stroke-linejoin:round;">
<circle cx="4.0671" cy="16.4095" r="0.9652" /> 
</g>
<g style="fill:#37CBCB; fill-opacity:1.0000; 
stroke:#37CBCB; stroke-width:0.0212; stroke-opacity:1; 
stroke-linecap:round; stroke-linejoin:round;">
</g>
<g >
</g>
<g style="fill:#37CBCB; fill-opacity:1.0000; 
stroke:#37CBCB; stroke-width:0.0212; stroke-opacity:1; 
stroke-linecap:round; stroke-linejoin:round;">
</g>
<g style="fill:#37CBCB; fill-opacity:1.0000; 
stroke:#37CBCB; stroke-width:0.0000; stroke-opacity:1; 
stroke-linecap:round; stroke-linejoin:round;">
<path style="fill:#37CBCB; fill-opacity:1.0000; 
stroke:#37CBCB; stroke-width:0.0000; stroke-opacity:1; 
stroke-linecap:round; stroke-linejoin:round;fill-rule:evenodd;"
d="M 13.4771,6.4275
14.9771,6.4275
14.9771,7.7275
13.4771,7.7275
Z" /> 
<path style="fill:#37CBCB; fill-opacity:1.0000; 
stroke:#37CBCB; stroke-width:0.0000; stroke-opacity:1; 
stroke-linecap:round; stroke-linejoin:round;fill-rule:evenodd;"
d="M 13.4771,8.3275
14.9771,8.3275
14.9771,9.6275
13.4771,9.6275
Z" /> 
</g>
<g >
</g>
<g style="fill:#37CBCB; fill-opacity:1.0000; 
stroke:#37CBCB; stroke-width:0.0000; stroke-opacity:1; 
stroke-linecap:round; stroke-linejoin:round;">
<circle cx="16.1321" cy="2.9475" r="1.6000" /> 
</g>
<g style="fill:#37CBCB; fill-opacity:1.0000; 
stroke:#37CBCB; stroke-width:0.0212; stroke-opacity:1; 
stroke-linecap:round; stroke-linejoin:round;">
</g>
<g >
</g>
<g style="fill:#37CBCB; fill-opacity:1.0000; 
stroke:#37CBCB; stroke-width:0.0212; stroke-opacity:1; 
stroke-linecap:round; stroke-linejoin:round;">
</g>
<g style="fill:#37CBCB; fill-opacity:1.0000; 
stroke:#37CBCB; stroke-width:0.0000; stroke-opacity:1; 
stroke-linecap:round; stroke-linejoin:round;">
<path style="fill:#37CBCB; fill-opacity:1.0000; 
stroke:#37CBCB; stroke-width:0.0000; stroke-opacity:1; 
stroke-linecap:round; stroke-linejoin:round;fill-rule:evenodd;"
d="M 7.6111,8.6115
6.1111,8.6115
6.1111,7.3115
7.6111,7.3115
Z" /> 
<path style="fill:#37CBCB; fill-opacity:1.0000; 
stroke:#37CBCB; stroke-width:0.0000; stroke-opacity:1; 
stroke-linecap:round; stroke-linejoin:round;fill-rule:evenodd;"
d="M 7.6111,6.7115
6.1111,6.7115
6.1111,5.4115
7.6111,5.4115
Z" /> 
</g>
<g >
</g>
<g style="fill:#37CBCB; fill-opacity:1.0000; 
stroke:#37CBCB; stroke-width:0.0000; stroke-opacity:1; 
stroke-linecap:round; stroke-linejoin:round;">
<path style="fill:#37CBCB; fill-opacity:1.0000; 
stroke:#37CBCB; stroke-width:0.0000; stroke-opacity:1; 
stroke-linecap:round; stroke-linejoin:round;fill-rule:evenodd;"
d="M 13.4731,5.2335
13.4846,5.1273
13.5343,4.9939
13.6196,4.8800
13.7335,4.7947
13.8669,4.7450
13.9731,4.7335
14.0794,4.7450
14.2128,4.7947
14.3267,4.8800
14.4120,4.9939
14.4617,5.1273
14.4731,5.2335
14.4617,5.3398
14.4120,5.4732
14.3267,5.5871
14.2128,5.6724
14.0794,5.7221
13.9731,5.7335
13.8669,5.7221
13.7335,5.6724
13.6196,5.5871
13.5343,5.4732
13.4846,5.3398
13.4731,5.2335
Z" /> 
</g>
<g >
</g>
<g style="fill:#37CBCB; fill-opacity:1.0000; 
stroke:#37CBCB; stroke-width:0.0000; stroke-opacity:1; 
stroke-linecap:round; stroke-linejoin:round;">
<path style="fill:#37CBCB; fill-opacity:1.0000; 
stroke:#37CBCB; stroke-width:0.0000; stroke-opacity:1; 
stroke-linecap:round; stroke-linejoin:round;fill-rule:evenodd;"
d="M 12.1191,12.3335
12.1191,10.8335
13.4191,10.8335
13.4191,12.3335
Z" /> 
<path style="fill:#37CBCB; fill-opacity:1.0000; 
stroke:#37CBCB; stroke-width:0.0000; stroke-opacity:1; 
stroke-linecap:round; stroke-linejoin:round;fill-rule:evenodd;"
d="M 14.0191,12.3335
14.0191,10.8335
15.3191,10.8335
15.3191,12.3335
Z" /> 
</g>
<g >
</g>
<g style="fill:#37CBCB; fill-opacity:1.0000; 
stroke:#37CBCB; stroke-width:0.0000; stroke-opacity:1; 
stroke-linecap:round; stroke-linejoin:round;">
<circle cx="4.7021" cy="2.9475" r="1.6000" /> 
</g>
<g style="fill:#37CBCB; fill-opacity:1.0000; 
stroke:#37CBCB; stroke-width:0.0212; stroke-opacity:1; 
stroke-linecap:round; stroke-linejoin:round;">
</g>
<g >
</g>
<g >
</g>
<g >
</g>
<g style="fill:#121212; fill-opacity:1.0000; 
stroke:#121212; stroke-width:0.0212; stroke-opacity:1; 
stroke-linecap:round; stroke-linejoin:round;">
</g>
<g style="fill:#121212; fill-opacity:1.0000; 
stroke:#121212; stroke-width:0.0000; stroke-opacity:1; 
stroke-linecap:round; stroke-linejoin:round;">
<circle cx="17.6561" cy="11.2025" r="0.4532" /> 
</g>
<g style="fill:#121212; fill-opacity:1.0000; 
stroke:#121212; stroke-width:0.0212; stroke-opacity:1; 
stroke-linecap:round; stroke-linejoin:round;">
</g>
<g style="fill:#121212; fill-opacity:1.0000; 
stroke:#121212; stroke-width:0.0000; stroke-opacity:1; 
stroke-linecap:round; stroke-linejoin:round;">
<circle cx="10.4171" cy="8.0275" r="0.4532" /> 
</g>
<g style="fill:#121212; fill-opacity:1.0000; 
stroke:#121212; stroke-width:0.0212; stroke-opacity:1; 
stroke-linecap:round; stroke-linejoin:round;">
</g>
<g style="fill:#121212; fill-opacity:1.0000; 
stroke:#121212; stroke-width:0.0000; stroke-opacity:1; 
stroke-linecap:round; stroke-linejoin:round;">
<circle cx="7.8771" cy="12.8535" r="0.4532" /> 
</g>
<g style="fill:#121212; fill-opacity:1.0000; 
stroke:#121212; stroke-width:0.0212; stroke-opacity:1; 
stroke-linecap:round; stroke-linejoin:round;">
</g>
<g style="fill:#121212; fill-opacity:1.0000; 
stroke:#121212; stroke-width:0.0000; stroke-opacity:1; 
stroke-linecap:round; stroke-linejoin:round;">
<circle cx="17.7831" cy="5.6145" r="0.4532" /> 
</g>
<g style="fill:#121212; fill-opacity:1.0000; 
stroke:#121212; stroke-width:0.0212; stroke-opacity:1; 
stroke-linecap:round; stroke-linejoin:round;">
</g>
<g style="fill:#121212; fill-opacity:1.0000; 
stroke:#121212; stroke-width:0.0000; stroke-opacity:1; 
stroke-linecap:round; stroke-linejoin:round;">
<circle cx="3.0511" cy="5.1065" r="0.4532" /> 
</g>
<g style="fill:#121212; fill-opacity:1.0000; 
stroke:#121212; stroke-width:0.0212; stroke-opacity:1; 
stroke-linecap:round; stroke-linejoin:round;">
</g>
<g style="fill:#121212; fill-opacity:1.0000; 
stroke:#121212; stroke-width:0.0000; stroke-opacity:1; 
stroke-linecap:round; stroke-linejoin:round;">
<circle cx="13.2111" cy="13.6155" r="0.4532" /> 
</g>
<g style="fill:#121212; fill-opacity:1.0000; 
stroke:#121212; stroke-width:0.0212; stroke-opacity:1; 
stroke-linecap:round; stroke-linejoin:round;">
</g>
<g style="fill:#121212; fill-opacity:1.0000; 
stroke:#121212; stroke-width:0.0000; stroke-opacity:1; 
stroke-linecap:round; stroke-linejoin:round;">
<circle cx="15.2431" cy="12.9805" r="0.4532" /> 
</g>
<g style="fill:#121212; fill-opacity:1.0000; 
stroke:#121212; stroke-width:0.0212; stroke-opacity:1; 
stroke-linecap:round; stroke-linejoin:round;">
</g>
<g style="fill:#121212; fill-opacity:1.0000; 
stroke:#121212; stroke-width:0.0000; stroke-opacity:1; 
stroke-linecap:round; stroke-linejoin:round;">
<circle cx="10.1631" cy="13.3615" r="0.4532" /> 
</g>
<g style="fill:#121212; fill-opacity:1.0000; 
stroke:#121212; stroke-width:0.0212; stroke-opacity:1; 
stroke-linecap:round; stroke-linejoin:round;">
</g>
<g >
</g>
<g style="fill:#37CBCB; fill-opacity:1.0000; 
stroke:#37CBCB; stroke-width:0.0212; stroke-opacity:1; 
stroke-linecap:round; stroke-linejoin:round;">
</g>
<g style="fill:#37CBCB; fill-opacity:1.0000; 
stroke:#37CBCB; stroke-width:0.3048; stroke-opacity:1; 
stroke-linecap:round; stroke-linejoin:round;">
</g>
<g style="fill:#37CBCB; fill-opacity:0.0; 
stroke:#37CBCB; stroke-width:0.3048; stroke-opacity:1; 
stroke-linecap:round; stroke-linejoin:round;">
<path d="M11.9171 6.2550
L12.7396 7.0775
" />
<path d="M12.7396 7.0775
L14.2271 7.0775
" />
</g>
<g style="fill:#37CBCB; fill-opacity:0.0; 
stroke:#37CBCB; stroke-width:0.4064; stroke-opacity:1; 
stroke-linecap:round; stroke-linejoin:round;">
<path d="M3.1171 5.1725
L3.0511 5.1065
" />
</g>
<g style="fill:#37CBCB; fill-opacity:0.0; 
stroke:#37CBCB; stroke-width:0.3048; stroke-opacity:1; 
stroke-linecap:round; stroke-linejoin:round;">
<path d="M16.2591 7.0775
L16.3201 7.0775
" />
</g>
<g style="fill:#37CBCB; fill-opacity:0.0; 
stroke:#37CBCB; stroke-width:0.4064; stroke-opacity:1; 
stroke-linecap:round; stroke-linejoin:round;">
<path d="M14.2271 7.0775
L16.2591 7.0775
" />
</g>
<g style="fill:#37CBCB; fill-opacity:0.0; 
stroke:#37CBCB; stroke-width:0.3048; stroke-opacity:1; 
stroke-linecap:round; stroke-linejoin:round;">
<path d="M16.3201 7.0775
L17.7831 5.6145
" />
</g>
<g style="fill:#37CBCB; fill-opacity:0.0; 
stroke:#37CBCB; stroke-width:0.4064; stroke-opacity:1; 
stroke-linecap:round; stroke-linejoin:round;">
<path d="M3.1171 6.4734
L3.1171 5.1725
" />
</g>
<g style="fill:#37CBCB; fill-opacity:0.0; 
stroke:#37CBCB; stroke-width:0.3048; stroke-opacity:1; 
stroke-linecap:round; stroke-linejoin:round;">
<path d="M11.1671 13.3495
L14.2271 16.4095
" />
<path d="M11.1671 9.8000
L11.1671 11.5835
" />
<path d="M11.1671 11.5835
L11.1671 13.3495
" />
<path d="M11.1671 11.5835
L11.1131 11.5835
" />
<path d="M12.7691 10.6335
L12.7691 11.5835
" />
<path d="M12.7691 11.5835
L12.7691 13.1735
" />
<path d="M12.7691 13.1735
L13.2111 13.6155
" />
<path d="M11.9356 9.8000
L12.7691 10.6335
" />
<path d="M11.9171 9.8000
L11.9356 9.8000
" />
</g>
<g style="fill:#37CBCB; fill-opacity:0.0; 
stroke:#37CBCB; stroke-width:0.4064; stroke-opacity:1; 
stroke-linecap:round; stroke-linejoin:round;">
<path d="M3.3051 7.7735
L3.1171 7.9615
" />
</g>
<g style="fill:#37CBCB; fill-opacity:0.0; 
stroke:#37CBCB; stroke-width:0.3048; stroke-opacity:1; 
stroke-linecap:round; stroke-linejoin:round;">
<path d="M8.9171 9.8000
L8.7346 9.6175
" />
</g>
<g style="fill:#37CBCB; fill-opacity:0.0; 
stroke:#37CBCB; stroke-width:0.4064; stroke-opacity:1; 
stroke-linecap:round; stroke-linejoin:round;">
<path d="M5.0171 7.9615
L4.8291 7.7735
" />
<path d="M4.0671 16.4095
L4.0671 16.0285
" />
</g>
<g style="fill:#37CBCB; fill-opacity:0.0; 
stroke:#37CBCB; stroke-width:0.3048; stroke-opacity:1; 
stroke-linecap:round; stroke-linejoin:round;">
<path d="M9.2131 12.4115
L9.2131 11.5835
" />
</g>
<g style="fill:#37CBCB; fill-opacity:0.0; 
stroke:#37CBCB; stroke-width:0.4064; stroke-opacity:1; 
stroke-linecap:round; stroke-linejoin:round;">
<path d="M4.0671 16.0285
L3.0511 15.0125
" />
<path d="M3.1171 7.9615
L3.1171 9.0736
" />
<path d="M3.0511 15.0125
L3.0511 11.3955
" />
</g>
<g style="fill:#37CBCB; fill-opacity:0.0; 
stroke:#37CBCB; stroke-width:0.3048; stroke-opacity:1; 
stroke-linecap:round; stroke-linejoin:round;">
<path d="M8.7346 9.6175
L6.8611 9.6175
" />
</g>
<g style="fill:#37CBCB; fill-opacity:0.0; 
stroke:#37CBCB; stroke-width:0.4064; stroke-opacity:1; 
stroke-linecap:round; stroke-linejoin:round;">
<path d="M4.8291 7.7735
L3.3051 7.7735
" />
<path d="M5.0171 9.0736
L5.0171 7.9615
" />
</g>
<g style="fill:#37CBCB; fill-opacity:0.0; 
stroke:#37CBCB; stroke-width:0.3048; stroke-opacity:1; 
stroke-linecap:round; stroke-linejoin:round;">
<path d="M8.9171 11.2875
L9.2131 11.5835
" />
</g>
<g style="fill:#37CBCB; fill-opacity:0.0; 
stroke:#37CBCB; stroke-width:0.4064; stroke-opacity:1; 
stroke-linecap:round; stroke-linejoin:round;">
<path d="M3.0511 11.3955
L3.1171 11.3295
" />
<path d="M6.8611 7.9615
L5.0171 7.9615
" />
</g>
<g style="fill:#37CBCB; fill-opacity:0.0; 
stroke:#37CBCB; stroke-width:0.3048; stroke-opacity:1; 
stroke-linecap:round; stroke-linejoin:round;">
<path d="M15.2431 12.1575
L15.2431 12.9805
" />
</g>
<g style="fill:#37CBCB; fill-opacity:0.0; 
stroke:#37CBCB; stroke-width:0.4064; stroke-opacity:1; 
stroke-linecap:round; stroke-linejoin:round;">
<path d="M6.8611 7.9615
L6.8611 9.6175
" />
</g>
<g style="fill:#37CBCB; fill-opacity:0.0; 
stroke:#37CBCB; stroke-width:0.3048; stroke-opacity:1; 
stroke-linecap:round; stroke-linejoin:round;">
<path d="M14.6691 11.5835
L15.2431 12.1575
" />
<path d="M10.1631 13.3615
L9.2131 12.4115
" />
<path d="M8.9171 9.8000
L8.9171 11.2875
" />
</g>
<g style="fill:#37CBCB; fill-opacity:0.0; 
stroke:#37CBCB; stroke-width:0.4064; stroke-opacity:1; 
stroke-linecap:round; stroke-linejoin:round;">
<path d="M3.1171 11.3295
L3.1171 9.0736
" />
</g>
<g style="fill:#37CBCB; fill-opacity:0.0; 
stroke:#37CBCB; stroke-width:0.3048; stroke-opacity:1; 
stroke-linecap:round; stroke-linejoin:round;">
<path d="M12.1896 8.9110
L13.5921 10.3135
" />
<path d="M13.5921 10.3135
L15.4971 10.3135
" />
<path d="M16.2591 15.9015
L16.7671 16.4095
" />
<path d="M12.1896 8.8275
L12.1896 8.9110
" />
<path d="M16.2591 11.0755
L16.2591 15.9015
" />
<path d="M15.4971 10.3135
L16.2591 11.0755
" />
</g>
<g >
</g>
<g style="fill:#37CBCB; fill-opacity:0.0; 
stroke:#37CBCB; stroke-width:0.3048; stroke-opacity:1; 
stroke-linecap:round; stroke-linejoin:round;">
<g >
</g>
<g style="fill:#37CBCB; fill-opacity:1.0000; 
stroke:#37CBCB; stroke-width:0.0000; stroke-opacity:1; 
stroke-linecap:round; stroke-linejoin:round;">
<path style="fill:#37CBCB; fill-opacity:1.0000; 
stroke:#37CBCB; stroke-width:0.0000; stroke-opacity:1; 
stroke-linecap:round; stroke-linejoin:round;fill-rule:evenodd;"
d="M 16.1331,0.4331
16.4334,0.4513
16.4371,0.4517
16.7321,0.5058
16.7357,0.5067
17.0220,0.5959
17.0255,0.5972
17.2990,0.7203
17.3023,0.7220
17.5589,0.8772
17.5620,0.8793
17.7546,1.0302
17.7981,1.0642
17.8009,1.0667
18.0129,1.2788
18.0154,1.2816
18.2004,1.5177
18.2025,1.5208
18.3576,1.7774
18.3594,1.7807
18.4825,2.0542
18.4838,2.0577
18.5730,2.3440
18.5739,2.3476
18.6280,2.6426
18.6284,2.6463
18.6466,2.9466
18.6466,2.9485
18.6466,15.6466
18.6466,15.6485
18.6284,15.9487
18.6280,15.9525
18.6241,15.9738
18.5739,16.2474
18.5730,16.2511
18.4838,16.5374
18.4825,16.5409
18.3594,16.8144
18.3576,16.8177
18.2025,17.0743
18.2004,17.0774
18.0154,17.3135
18.0129,17.3163
17.8009,17.5283
17.7981,17.5308
17.5620,17.7158
17.5589,17.7179
17.3023,17.8730
17.2990,17.8748
17.0255,17.9979
17.0220,17.9992
16.7357,18.0884
16.7320,18.0893
16.5828,18.1167
16.4371,18.1434
16.4333,18.1438
16.1331,18.1620
16.1312,18.1620
4.7031,18.1620
4.7012,18.1620
4.4009,18.1438
4.3972,18.1434
4.2067,18.1084
4.1022,18.0893
4.0986,18.0884
3.8123,17.9992
3.8088,17.9979
3.5353,17.8748
3.5320,17.8730
3.3720,17.7763
3.2754,17.7179
3.2723,17.7158
3.1005,17.5812
3.0362,17.5308
3.0334,17.5283
2.8213,17.3163
2.8188,17.3135
2.6339,17.0774
2.6318,17.0743
2.4766,16.8177
2.4749,16.8144
2.3518,16.5409
2.3505,16.5374
2.2647,16.2620
2.2613,16.2511
2.2604,16.2474
2.2063,15.9525
2.2059,15.9488
2.1877,15.6485
2.1876,15.6466
2.1876,12.3158
2.2060,12.2716
2.2501,12.2533
2.2849,12.2638
2.3678,12.3193
2.4421,12.3340
2.5309,12.3340
2.5751,12.3523
2.5934,12.3965
2.5934,14.9851
2.5932,14.9886
2.5886,15.0298
2.5998,15.0892
2.6088,15.1490
2.6091,15.1494
2.6142,15.1649
2.6142,15.1654
2.6142,15.1654
2.6143,15.1654
2.6143,15.1654
2.6425,15.2188
2.6687,15.2733
2.6687,15.2733
2.6690,15.2737
2.6785,15.2870
2.6787,15.2874
2.6787,15.2874
2.7215,15.3301
2.7625,15.3744
2.7626,15.3744
2.7630,15.3747
2.7759,15.3846
3.0446,15.6533
3.0629,15.6975
3.0516,15.7334
3.0108,15.7916
3.0068,15.7974
2.9166,15.9908
2.9166,15.9908
2.8614,16.1969
2.8614,16.1969
2.8428,16.4095
2.8428,16.4095
2.8614,16.6221
2.8614,16.6222
2.9166,16.8283
3.0068,17.0217
3.0068,17.0217
3.0448,17.0759
3.1292,17.1965
3.2801,17.3475
3.2801,17.3475
3.2801,17.3475
3.4550,17.4699
3.5441,17.5115
3.6484,17.5601
3.8545,17.6153
3.8545,17.6153
3.8545,17.6153
3.9821,17.6265
4.0671,17.6339
4.0671,17.6339
4.0671,17.6339
4.1380,17.6277
4.2798,17.6153
4.2798,17.6153
4.2798,17.6153
4.4859,17.5601
4.4859,17.5601
4.6793,17.4699
4.8541,17.3475
5.0051,17.1965
5.1275,17.0217
5.2177,16.8283
5.2412,16.7403
5.2729,16.6222
5.2729,16.6222
5.2729,16.6221
5.2749,16.5995
5.2970,16.5571
5.3426,16.5427
5.3850,16.5648
5.3994,16.5995
5.4014,16.6221
5.4014,16.6222
5.4566,16.8283
5.5468,17.0217
5.5468,17.0217
5.5848,17.0759
5.6692,17.1965
5.8201,17.3475
5.8201,17.3475
5.8201,17.3475
5.9950,17.4699
6.0841,17.5115
6.1884,17.5601
6.3945,17.6153
6.3945,17.6153
6.3945,17.6153
6.5221,17.6265
6.6071,17.6339
6.6071,17.6339
6.6071,17.6339
6.6780,17.6277
6.8198,17.6153
6.8198,17.6153
6.8198,17.6153
7.0259,17.5601
7.0259,17.5601
7.2193,17.4699
7.3941,17.3475
7.5451,17.1965
7.6675,17.0217
7.7577,16.8283
7.7912,16.7033
7.8203,16.6654
7.8677,16.6591
7.9056,16.6883
7.9119,16.7033
7.9499,16.8453
7.9499,16.8453
8.0438,17.0466
8.1473,17.1944
8.7012,16.6405
8.7654,16.7403
8.8740,16.8345
8.9174,16.8543
8.3623,17.4094
8.5101,17.5129
8.7114,17.6068
8.7114,17.6068
8.9259,17.6642
8.9259,17.6642
9.1471,17.6836
9.1471,17.6836
9.3684,17.6642
9.3684,17.6642
9.5829,17.6068
9.5829,17.6068
9.7842,17.5129
9.9320,17.4094
9.3769,16.8543
9.4202,16.8345
9.5289,16.7403
9.5931,16.6405
10.1470,17.1944
10.2505,17.0466
10.3444,16.8453
10.3444,16.8453
10.3824,16.7033
10.4115,16.6654
10.4589,16.6591
10.4969,16.6883
10.5031,16.7033
10.5366,16.8283
10.6268,17.0217
10.6268,17.0217
10.6648,17.0759
10.7492,17.1965
10.9001,17.3475
10.9001,17.3475
10.9001,17.3475
11.0750,17.4699
11.1641,17.5115
11.2684,17.5601
11.4745,17.6153
11.4745,17.6153
11.4745,17.6153
11.6021,17.6265
11.6871,17.6339
11.6871,17.6339
11.6871,17.6339
11.7580,17.6277
11.8998,17.6153
11.8998,17.6153
11.8998,17.6153
12.1059,17.5601
12.2993,17.4699
12.4741,17.3475
12.6251,17.1965
12.7475,17.0217
12.8377,16.8283
12.8612,16.7403
12.8929,16.6222
12.8929,16.6222
12.8929,16.6221
12.8949,16.5995
12.9170,16.5571
12.9626,16.5427
13.0050,16.5648
13.0194,16.5995
13.0214,16.6221
13.0214,16.6222
13.0766,16.8283
13.1668,17.0217
13.1668,17.0217
13.2048,17.0759
13.2892,17.1965
13.4401,17.3475
13.4401,17.3475
13.4401,17.3475
13.6150,17.4699
13.7041,17.5115
13.8084,17.5601
14.0145,17.6153
14.0145,17.6153
14.0145,17.6153
14.1421,17.6265
14.2271,17.6339
14.2271,17.6339
14.2271,17.6339
14.2980,17.6277
14.4398,17.6153
14.4398,17.6153
14.4398,17.6153
14.6459,17.5601
14.6459,17.5601
14.8393,17.4699
15.0141,17.3475
15.1651,17.1965
15.2875,17.0217
15.3777,16.8283
15.4012,16.7403
15.4329,16.6222
15.4329,16.6222
15.4329,16.6221
15.4349,16.5995
15.4570,16.5571
15.5026,16.5427
15.5450,16.5648
15.5594,16.5995
15.5614,16.6221
15.5614,16.6222
15.6166,16.8283
15.7068,17.0217
15.7068,17.0217
15.7448,17.0759
15.8292,17.1965
15.9801,17.3475
15.9801,17.3475
15.9801,17.3475
16.1550,17.4699
16.2441,17.5115
16.3484,17.5601
16.5545,17.6153
16.5545,17.6153
16.5545,17.6153
16.6821,17.6265
16.7671,17.6339
16.7671,17.6339
16.7671,17.6339
16.8380,17.6277
16.9798,17.6153
16.9798,17.6153
16.9798,17.6153
17.1859,17.5601
17.1859,17.5601
17.3793,17.4699
17.5541,17.3475
17.7051,17.1965
17.8275,17.0217
17.9177,16.8283
17.9412,16.7403
17.9729,16.6222
17.9729,16.6222
17.9729,16.6221
17.9915,16.4095
17.9852,16.3377
17.9776,16.2511
17.9729,16.1969
17.9613,16.1537
17.9177,15.9908
17.9177,15.9908
17.9177,15.9908
17.8275,15.7974
17.8275,15.7974
17.8275,15.7974
17.8275,15.7974
17.7232,15.6485
17.7051,15.6225
17.5542,15.4716
17.5346,15.4580
17.3793,15.3492
17.3384,15.3301
17.1859,15.2590
16.9798,15.2038
16.9797,15.2038
16.7671,15.1852
16.7671,15.1852
16.7340,15.1881
16.6884,15.1737
16.6663,15.1313
16.6660,15.1258
16.6660,11.0111
16.6575,10.9849
16.6553,10.9754
16.6510,10.9482
16.6510,10.9482
16.6385,10.9237
16.6347,10.9147
16.6262,10.8885
16.6100,10.8662
16.6049,10.8579
16.5924,10.8334
16.5013,10.7422
15.7973,10.0382
15.7790,9.9940
15.7973,9.9498
15.8415,9.9315
16.9982,9.9315
16.9982,9.9315
16.2591,9.1925
16.0442,8.9775
16.4741,8.9775
17.2749,9.7783
17.3102,9.6983
17.3131,9.6729
17.3131,8.2822
17.3102,8.2567
17.3102,8.2567
17.2749,8.1768
16.4741,8.9775
16.0442,8.9775
15.2507,8.1841
15.2443,8.1747
15.2420,8.1747
15.2356,8.1841
14.2713,9.1483
14.2271,9.1666
14.1829,9.1483
13.2114,8.1768
13.1761,8.2567
13.1761,8.2567
13.1731,8.2821
13.1731,9.1682
13.1548,9.2124
13.1106,9.2307
13.0665,9.2124
12.8649,9.0109
12.8466,8.9667
12.8466,8.6025
12.8466,8.6025
12.8319,8.5282
12.8161,8.5046
12.8068,8.4577
12.8239,8.4257
12.8473,8.4023
12.8932,8.2983
12.8961,8.2729
12.8961,7.7822
12.8932,7.7567
12.8932,7.7567
12.8473,7.6528
12.7857,7.5911
12.7674,7.5469
12.7857,7.5027
12.8299,7.4844
13.1601,7.4844
13.2043,7.5027
13.2226,7.5469
13.2226,7.7526
13.2374,7.8268
13.2374,7.8268
13.2937,7.9110
13.3778,7.9673
13.3778,7.9673
13.4267,7.9770
13.4587,7.9941
14.2271,8.7626
14.9956,7.9941
15.0276,7.9770
15.0764,7.9673
15.1606,7.9110
15.1912,7.8653
15.2309,7.8387
15.2779,7.8481
15.2951,7.8653
15.3257,7.9110
15.4098,7.9673
15.4098,7.9673
15.4587,7.9770
15.4907,7.9941
16.2591,8.7626
17.0276,7.9941
17.0596,7.9770
17.1084,7.9673
17.1926,7.9110
17.2489,7.8268
17.2636,7.7526
17.2636,6.7354
17.2819,6.6912
17.6351,6.3380
17.6793,6.3197
17.6943,6.3215
17.6972,6.3222
17.6972,6.3222
17.8691,6.3222
18.0359,6.2811
18.1881,6.2012
18.3168,6.0873
18.3853,5.9880
18.4144,5.9458
18.4144,5.9458
18.4144,5.9458
18.4753,5.7851
18.4767,5.7741
18.4960,5.6145
18.4960,5.6145
18.4753,5.4439
18.4753,5.4439
18.4753,5.4439
18.4144,5.2832
18.4144,5.2832
18.4144,5.2832
18.3168,5.1418
18.3168,5.1418
18.1881,5.0278
18.0359,4.9480
18.0359,4.9480
17.8691,4.9068
17.8691,4.9068
17.6972,4.9068
17.6972,4.9068
17.5303,4.9480
17.3782,5.0278
17.2495,5.1418
17.2495,5.1418
17.1519,5.2832
17.0910,5.4439
17.0910,5.4439
17.0702,5.6145
17.0702,5.6145
17.0815,5.7069
17.0686,5.7530
17.0636,5.7586
16.6675,6.1547
16.6233,6.1730
15.4841,6.1730
15.4841,6.1730
15.4098,6.1878
15.4098,6.1878
15.3257,6.2441
15.2951,6.2898
15.2553,6.3164
15.2084,6.3070
15.1912,6.2898
15.1606,6.2441
15.0764,6.1878
15.0764,6.1878
15.0022,6.1730
13.4521,6.1730
13.4521,6.1730
13.3778,6.1878
13.3778,6.1878
13.2937,6.2441
13.2374,6.3282
13.2374,6.3282
13.2226,6.4025
13.2226,6.6081
13.2043,6.6523
13.1601,6.6706
12.9341,6.6706
12.8899,6.6523
12.3649,6.1274
12.3466,6.0832
12.3466,5.8275
12.3466,5.8275
12.3319,5.7532
12.3259,5.7443
12.2756,5.6691
12.1914,5.6128
12.1914,5.6128
12.1172,5.5980
11.7171,5.5980
11.7171,5.5980
11.6428,5.6128
11.6428,5.6128
11.5769,5.6569
11.5300,5.6662
11.5074,5.6569
11.4414,5.6128
11.4414,5.6128
11.3672,5.5980
10.9671,5.5980
10.9671,5.5980
10.8928,5.6128
10.8928,5.6128
10.8269,5.6569
10.7800,5.6662
10.7574,5.6569
10.6914,5.6128
10.6914,5.6128
10.6172,5.5980
10.2171,5.5980
10.2171,5.5980
10.1428,5.6128
10.1428,5.6128
10.0769,5.6569
10.0300,5.6662
10.0074,5.6569
9.9414,5.6128
9.9414,5.6128
9.8672,5.5980
9.4671,5.5980
9.4671,5.5980
9.3928,5.6128
9.3928,5.6128
9.3269,5.6569
9.2800,5.6662
9.2574,5.6569
9.1914,5.6128
9.1914,5.6128
9.1172,5.5980
8.7171,5.5980
8.7171,5.5980
8.6428,5.6128
8.6428,5.6128
8.5587,5.6691
8.5024,5.7532
8.5024,5.7532
8.4876,5.8275
8.4876,6.6826
8.4876,6.6826
8.5024,6.7568
8.5024,6.7568
8.5587,6.8410
8.6428,6.8973
8.6428,6.8973
8.7171,6.9120
9.1172,6.9120
9.1914,6.8973
9.2574,6.8532
9.3043,6.8439
9.3269,6.8532
9.3928,6.8973
9.3928,6.8973
9.4671,6.9120
9.8672,6.9120
9.9414,6.8973
10.0074,6.8532
10.0543,6.8439
10.0769,6.8532
10.1428,6.8973
10.1428,6.8973
10.2171,6.9120
10.6172,6.9120
10.6914,6.8973
10.7574,6.8532
10.8043,6.8439
10.8269,6.8532
10.8928,6.8973
10.9671,6.9120
11.3672,6.9120
11.4414,6.8973
11.5074,6.8532
11.5543,6.8439
11.5769,6.8532
11.6428,6.8973
11.6428,6.8973
11.7171,6.9120
11.9728,6.9120
12.0170,6.9303
12.5010,7.4143
12.5000,7.4153
12.5220,7.4513
12.5108,7.4978
12.4700,7.5228
12.4603,7.5235
11.9006,7.5235
12.3604,7.9833
12.3787,8.0275
12.3604,8.0717
12.2338,8.1983
12.1896,8.2166
12.1455,8.1983
11.5660,7.6188
11.5320,7.6528
11.4861,7.7567
11.4831,7.7822
11.4831,8.2729
11.4861,8.2983
11.4861,8.2983
11.5320,8.4023
11.5554,8.4257
11.5737,8.4699
11.5632,8.5046
11.5474,8.5282
11.5474,8.5282
11.5326,8.6025
11.5326,9.0526
11.5326,9.0526
11.5413,9.0962
11.5320,9.1431
11.4922,9.1697
11.4453,9.1604
11.4430,9.1589
11.4414,9.1578
11.3672,9.1430
10.9671,9.1430
10.9671,9.1430
10.8928,9.1578
10.8928,9.1578
10.8269,9.2019
10.7800,9.2112
10.7574,9.2019
10.6914,9.1578
10.6914,9.1578
10.6172,9.1430
10.2171,9.1430
10.2171,9.1430
10.1428,9.1578
10.1428,9.1578
10.0769,9.2019
10.0300,9.2112
10.0074,9.2019
9.9414,9.1578
9.9414,9.1578
9.8672,9.1430
9.4671,9.1430
9.4671,9.1430
9.3928,9.1578
9.3928,9.1578
9.3269,9.2019
9.2800,9.2112
9.2574,9.2019
9.1914,9.1578
9.1914,9.1578
9.1172,9.1430
8.7171,9.1430
8.7171,9.1430
8.6428,9.1578
8.6428,9.1578
8.5795,9.2001
8.5448,9.2106
7.9281,9.2106
7.8839,9.1923
7.8656,9.1481
7.8656,8.9425
7.8656,8.9425
7.8509,8.8682
7.8215,8.8243
7.8122,8.7773
7.8215,8.7548
7.8509,8.7108
7.8509,8.7108
7.8517,8.7065
8.3556,8.7065
8.3556,8.7065
8.9337,8.7065
8.9337,8.7065
8.6446,8.4175
8.3556,8.7065
7.8517,8.7065
7.8656,8.6366
7.8656,8.5988
7.8839,8.5546
7.9281,8.5363
7.9723,8.5546
7.9853,8.5735
7.9870,8.5773
8.0210,8.6113
8.4297,8.2025
8.8596,8.2025
9.2683,8.6113
9.2683,8.6113
9.3023,8.5773
9.3482,8.4733
9.3511,8.4479
9.3511,7.9572
9.3482,7.9317
9.3482,7.9317
9.3023,7.8278
9.2683,7.7938
8.8596,8.2025
8.8596,8.2025
8.4297,8.2025
8.4297,8.2025
8.0210,7.7938
7.9870,7.8278
7.9853,7.8316
7.9507,7.8646
7.9029,7.8635
7.8699,7.8289
7.8656,7.8063
7.8656,7.6985
8.3556,7.6985
8.6446,7.9876
8.9337,7.6985
8.3556,7.6985
7.8656,7.6985
7.8656,7.2865
7.8656,7.2865
7.8509,7.2122
7.8509,7.2122
7.7946,7.1281
7.7104,7.0718
7.6616,7.0621
7.6296,7.0450
6.8611,6.2765
6.0926,7.0450
6.0606,7.0621
6.0118,7.0718
6.0118,7.0718
5.9277,7.1281
5.8714,7.2122
5.8714,7.2122
5.8566,7.2865
5.8566,7.4413
5.8383,7.4855
5.7941,7.5038
5.2326,7.5038
5.1884,7.4855
5.1722,7.4693
5.1699,7.4667
5.1411,7.4306
5.1429,7.4291
5.1262,7.3928
5.1428,7.3479
5.1863,7.3280
5.1887,7.3279
5.3172,7.3279
5.3172,7.3279
5.3914,7.3132
5.4756,7.2569
5.5319,7.1727
5.5466,7.0985
5.5466,6.7569
5.8071,6.7569
5.8101,6.7823
5.8101,6.7823
5.8454,6.8623
6.6462,6.0615
7.0761,6.0615
7.8769,6.8623
7.8769,6.8623
7.9122,6.7823
7.9151,6.7569
7.9151,5.3662
7.9122,5.3407
7.9122,5.3407
7.8871,5.2838
13.2186,5.2838
13.2186,5.2838
13.2292,5.3871
13.2292,5.3872
13.2847,5.5546
13.3679,5.6894
13.3773,5.7047
13.5020,5.8294
13.6521,5.9220
13.8195,5.9775
13.8195,5.9775
13.8195,5.9775
13.8671,5.9823
13.9229,5.9880
14.0234,5.9880
14.0751,5.9828
14.1267,5.9775
14.1267,5.9775
14.1268,5.9775
14.2942,5.9220
14.4443,5.8294
14.5690,5.7047
14.6616,5.5546
14.7171,5.3872
14.7218,5.3407
14.7276,5.2838
14.7276,5.2838
14.7276,5.1833
14.7234,5.1418
14.7171,5.0799
14.7171,5.0799
14.7171,5.0799
14.6616,4.9125
14.5690,4.7624
14.4443,4.6377
14.4443,4.6377
14.2942,4.5451
14.1268,4.4896
14.0234,4.4790
13.9229,4.4790
13.9229,4.4790
13.8195,4.4896
13.8195,4.4896
13.6521,4.5451
13.5020,4.6377
13.3773,4.7624
13.2847,4.9125
13.2292,5.0799
13.2186,5.1833
13.2186,5.2838
7.8871,5.2838
7.8769,5.2608
7.0761,6.0615
7.0761,6.0615
6.6462,6.0615
6.6462,6.0615
5.8454,5.2608
5.8101,5.3407
5.8101,5.3407
5.8071,5.3661
5.8071,6.7569
5.5466,6.7569
5.5466,5.8484
5.5319,5.7741
5.5319,5.7741
5.4756,5.6900
5.3914,5.6337
5.3914,5.6337
5.3172,5.6189
4.7171,5.6189
4.7171,5.6189
4.6428,5.6337
4.6428,5.6337
4.5587,5.6900
4.5024,5.7741
4.5024,5.7741
4.4876,5.8484
4.4876,7.0985
4.4876,7.0985
4.5024,7.1727
4.5024,7.1727
4.5331,7.2186
4.5424,7.2655
4.5158,7.3053
4.4811,7.3158
3.6532,7.3158
3.6090,7.2975
3.5907,7.2533
3.6012,7.2186
3.6225,7.1868
3.6319,7.1727
3.6466,7.0985
3.6466,5.8484
3.6319,5.7741
3.5855,5.7047
3.5854,5.7045
3.5748,5.6698
3.5748,5.6131
3.5859,5.5776
3.6018,5.5546
3.6824,5.4378
3.7433,5.2771
3.7547,5.1833
3.7639,5.1075
6.1221,5.1075
6.8611,5.8466
7.6002,5.1075
6.1221,5.1075
3.7639,5.1075
3.7640,5.1065
3.7640,5.1065
3.7433,4.9359
3.7433,4.9359
3.7433,4.9359
3.7433,4.9359
3.6976,4.8153
3.6990,4.7675
3.7339,4.7347
3.7817,4.7362
3.7834,4.7370
3.9469,4.8167
3.9469,4.8167
3.9469,4.8167
4.0403,4.8471
4.2144,4.9037
4.4914,4.9525
4.7725,4.9623
5.0522,4.9329
5.3251,4.8649
5.5859,4.7595
5.8295,4.6189
6.0511,4.4457
6.2465,4.2434
6.4118,4.0159
6.5439,3.7675
6.6400,3.5032
6.6985,3.2281
6.7083,3.0882
14.1211,3.0882
14.1602,3.3667
14.2377,3.6371
14.3521,3.8940
14.5012,4.1325
14.6820,4.3480
14.6820,4.3480
14.8275,4.4790
14.8728,4.5198
14.8910,4.5362
14.8910,4.5362
14.8910,4.5362
14.8910,4.5362
15.1241,4.6934
15.3769,4.8167
15.3769,4.8167
15.3769,4.8167
15.4703,4.8471
15.6444,4.9037
15.9214,4.9525
16.2025,4.9623
16.4822,4.9329
16.7551,4.8649
17.0159,4.7595
17.2595,4.6189
17.4811,4.4457
17.6765,4.2434
17.8418,4.0159
17.9739,3.7675
18.0700,3.5032
18.1285,3.2281
18.1481,2.9475
18.1285,2.6670
18.0700,2.3919
17.9739,2.1276
17.9348,2.0542
17.8418,1.8792
17.8418,1.8792
17.6765,1.6517
17.4811,1.4494
17.3653,1.3589
17.2595,1.2762
17.1303,1.2016
17.0159,1.1356
17.0159,1.1356
16.7551,1.0302
16.7551,1.0302
16.7551,1.0302
16.4822,0.9622
16.2025,0.9328
16.2025,0.9328
15.9214,0.9426
15.9214,0.9426
15.6444,0.9914
15.6444,0.9914
15.3769,1.0783
15.1241,1.2016
15.1241,1.2016
14.8910,1.3589
14.6820,1.5471
14.6820,1.5471
14.5012,1.7626
14.3521,2.0011
14.2377,2.2580
14.1602,2.5284
14.1211,2.8069
14.1211,3.0882
6.7083,3.0882
6.7181,2.9475
6.6985,2.6670
6.6400,2.3919
6.5439,2.1276
6.5048,2.0542
6.4118,1.8792
6.4118,1.8792
6.2465,1.6517
6.0511,1.4494
5.9353,1.3589
5.8295,1.2762
5.7003,1.2016
5.5859,1.1356
5.5859,1.1356
5.3251,1.0302
5.3251,1.0302
5.3251,1.0302
5.0522,0.9622
4.7725,0.9328
4.7725,0.9328
4.4914,0.9426
4.4914,0.9426
4.2144,0.9914
4.2144,0.9914
3.9469,1.0783
3.6942,1.2016
3.6941,1.2016
3.4610,1.3589
3.2520,1.5471
3.2520,1.5471
3.0712,1.7626
2.9221,2.0011
2.8077,2.2580
2.7302,2.5284
2.6911,2.8069
2.6911,3.0882
2.7302,3.3667
2.8077,3.6371
2.9221,3.8940
3.0712,4.1325
3.2126,4.3011
3.2270,4.3467
3.2049,4.3892
3.1593,4.4036
3.1498,4.4020
3.1371,4.3988
3.1371,4.3988
2.9652,4.3988
2.9652,4.3988
2.7983,4.4400
2.6462,4.5198
2.5175,4.6338
2.5175,4.6338
2.4199,4.7752
2.3590,4.9359
2.3590,4.9359
2.3382,5.1065
2.3382,5.1065
2.3590,5.2771
2.3590,5.2771
2.3590,5.2771
2.3590,5.2771
2.3927,5.3662
2.4199,5.4378
2.5175,5.5793
2.5175,5.5793
2.6118,5.6628
2.6328,5.7058
2.6223,5.7443
2.6024,5.7741
2.6024,5.7741
2.5876,5.8484
2.5876,7.0985
2.5876,7.0985
2.6024,7.1727
2.6024,7.1727
2.6587,7.2569
2.7428,7.3132
2.7428,7.3132
2.8171,7.3279
2.9526,7.3279
2.9968,7.3462
3.0151,7.3904
2.9968,7.4346
2.9876,7.4438
2.9433,7.4849
2.9433,7.4849
2.9430,7.4854
2.9331,7.4983
2.8129,7.6185
2.8103,7.6208
2.7778,7.6467
2.7778,7.6467
2.7438,7.6966
2.7079,7.7453
2.7079,7.7453
2.7077,7.7457
2.7004,7.7603
2.7001,7.7607
2.7001,7.7607
2.6823,7.8185
2.6623,7.8755
2.6623,7.8755
2.6623,7.8760
2.6596,7.8921
2.6594,7.8925
2.6594,7.9530
2.6572,8.0134
2.6573,8.0138
2.6594,8.0300
2.6594,8.2700
2.6489,8.3047
2.6024,8.3743
2.6024,8.3743
2.5876,8.4486
2.5876,9.6987
2.5876,9.6987
2.6024,9.7729
2.6024,9.7729
2.6489,9.8425
2.6594,9.8773
2.6594,10.2625
2.6411,10.3067
2.5969,10.3250
2.4421,10.3250
2.4421,10.3250
2.3678,10.3398
2.3678,10.3398
2.2849,10.3952
2.2380,10.4046
2.1982,10.3780
2.1876,10.3433
2.1876,2.9485
2.1877,2.9466
2.1881,2.9408
2.2059,2.6463
2.2063,2.6426
2.2604,2.3476
2.2613,2.3440
2.2881,2.2580
2.3505,2.0577
2.3518,2.0542
2.4749,1.7807
2.4766,1.7774
2.6318,1.5207
2.6339,1.5177
2.8189,1.2816
2.8213,1.2788
3.0334,1.0667
3.0362,1.0643
3.2723,0.8793
3.2753,0.8772
3.5320,0.7220
3.5353,0.7203
3.8088,0.5972
3.8123,0.5959
4.0986,0.5067
4.1022,0.5058
4.3972,0.4517
4.4009,0.4513
4.7012,0.4331
4.7031,0.4330
4.7104,0.4330
16.1239,0.4330
16.1312,0.4330
Z" /> 
<path style="fill:#37CBCB; fill-opacity:1.0000; 
stroke:#37CBCB; stroke-width:0.0000; stroke-opacity:1; 
stroke-linecap:round; stroke-linejoin:round;fill-rule:evenodd;"
d="M 5.8383,8.4375
5.8566,8.4817
5.8566,8.6366
5.8714,8.7108
5.8714,8.7108
5.9008,8.7548
5.9101,8.8017
5.9008,8.8243
5.8714,8.8682
5.8714,8.8682
5.8566,8.9425
5.8566,10.2350
5.8383,10.2792
5.7941,10.2975
5.7689,10.2922
5.7380,10.2785
5.7125,10.2755
4.3218,10.2755
4.2963,10.2785
4.2963,10.2785
4.2164,10.3138
4.2164,10.3138
5.1879,11.2853
5.2062,11.3295
5.1879,11.3737
4.2164,12.3453
4.2963,12.3806
4.2963,12.3806
4.3217,12.3835
5.3733,12.3835
5.4175,12.4018
5.4358,12.4460
5.4175,12.4902
5.3930,12.5054
5.2701,12.5461
5.1200,12.6387
4.9953,12.7634
4.9027,12.9135
4.8472,13.0809
4.8366,13.1843
4.8366,13.2848
4.8366,13.2848
4.8472,13.3881
4.8472,13.3882
4.9027,13.5556
4.9873,13.6928
4.9953,13.7057
5.1200,13.8304
5.2701,13.9230
5.4375,13.9785
5.4375,13.9785
5.4375,13.9785
5.4851,13.9833
5.5409,13.9890
5.6414,13.9890
5.6931,13.9838
5.7447,13.9785
5.7447,13.9785
5.7448,13.9785
5.9122,13.9230
6.0623,13.8304
6.1870,13.7057
6.2796,13.5556
6.3351,13.3882
6.3378,13.3615
6.3429,13.3118
6.3456,13.2848
6.3456,13.1843
6.3414,13.1428
6.3351,13.0809
6.3351,13.0809
6.3351,13.0809
6.2796,12.9135
6.1870,12.7634
6.0623,12.6387
6.0623,12.6387
6.0623,12.6387
5.9122,12.5461
5.8356,12.5207
5.7525,12.4932
5.7275,12.4715
6.1221,12.4715
6.1221,12.4715
7.6002,12.4715
7.6002,12.4715
6.8611,11.7325
6.1221,12.4715
5.7275,12.4715
5.7163,12.4619
5.7128,12.4142
5.7441,12.3780
5.7469,12.3766
5.8189,12.3449
6.6462,11.5175
7.0761,11.5175
7.8769,12.3183
7.9122,12.2383
7.9151,12.2129
7.9151,10.8222
7.9122,10.7967
7.9122,10.7967
7.8769,10.7168
7.0761,11.5175
6.6462,11.5175
6.8611,11.3026
7.6296,10.5341
7.6616,10.5170
7.7104,10.5073
7.7946,10.4510
7.8509,10.3668
7.8656,10.2926
7.8656,10.0869
7.8840,10.0427
7.9281,10.0244
8.4251,10.0244
8.4693,10.0427
8.4876,10.0869
8.4876,10.2276
8.5024,10.3018
8.5048,10.3075
8.5029,10.3083
8.5102,10.3325
8.5102,10.5333
8.4919,10.5775
8.4689,10.5898
8.4695,10.5915
8.4638,10.5938
8.3797,10.6501
8.3234,10.7342
8.3234,10.7342
8.3086,10.8085
8.3086,12.3586
8.3086,12.3586
8.3234,12.4328
8.3234,12.4328
8.3797,12.5170
8.4638,12.5733
8.4638,12.5733
8.5381,12.5880
8.8066,12.5880
8.8508,12.6063
8.8571,12.6138
8.8622,12.6208
8.8674,12.6292
8.8799,12.6537
9.4436,13.2174
9.4619,13.2616
9.4615,13.2692
9.4502,13.3615
9.4502,13.3615
9.4710,13.5321
9.4710,13.5321
9.4710,13.5321
9.4710,13.5321
9.4798,13.5556
9.5319,13.6928
9.6295,13.8343
9.6295,13.8343
9.7582,13.9482
9.9103,14.0281
9.9103,14.0281
9.9103,14.0281
10.0772,14.0692
10.2491,14.0692
10.4159,14.0281
10.5681,13.9482
10.6968,13.8343
10.7944,13.6928
10.7988,13.6813
10.8316,13.6464
10.8794,13.6450
10.9014,13.6592
13.0954,15.8532
13.1137,15.8974
13.1078,15.9238
13.0766,15.9908
13.0766,15.9908
13.0214,16.1969
13.0214,16.1969
13.0194,16.2196
12.9973,16.2620
12.9517,16.2764
12.9093,16.2543
12.8949,16.2196
12.8929,16.1969
12.8929,16.1969
12.8813,16.1537
12.8377,15.9908
12.8377,15.9908
12.8377,15.9908
12.7475,15.7974
12.7475,15.7974
12.7475,15.7974
12.7475,15.7974
12.6432,15.6485
12.6251,15.6225
12.4742,15.4716
12.4546,15.4580
12.2993,15.3492
12.2584,15.3301
12.1059,15.2590
11.8998,15.2038
11.8997,15.2038
11.6871,15.1852
11.6871,15.1852
11.4745,15.2038
11.4745,15.2038
11.2684,15.2590
11.2684,15.2590
11.0750,15.3492
11.0750,15.3492
10.9001,15.4716
10.7492,15.6225
10.6268,15.7974
10.6268,15.7974
10.5366,15.9908
10.5366,15.9908
10.5031,16.1158
10.4740,16.1537
10.4266,16.1599
10.3886,16.1308
10.3824,16.1158
10.3444,15.9738
10.3444,15.9738
10.2505,15.7725
10.1470,15.6247
9.5931,16.1786
9.5289,16.0787
9.4202,15.9846
9.3769,15.9648
9.9320,15.4097
9.7842,15.3062
9.5829,15.2123
9.5829,15.2123
9.3684,15.1549
9.3684,15.1548
9.1471,15.1355
9.1471,15.1355
8.9259,15.1548
8.9259,15.1549
8.7114,15.2123
8.7114,15.2123
8.5101,15.3062
8.3623,15.4097
8.3623,15.4097
8.9174,15.9648
8.8740,15.9846
8.7654,16.0787
8.7012,16.1786
8.1473,15.6247
8.1473,15.6247
8.0438,15.7725
7.9499,15.9738
7.9119,16.1158
7.8828,16.1537
7.8353,16.1599
7.7974,16.1308
7.7912,16.1158
7.7577,15.9908
7.7577,15.9908
7.7577,15.9908
7.6675,15.7974
7.6675,15.7974
7.6675,15.7974
7.6675,15.7974
7.5632,15.6485
7.5451,15.6225
7.3942,15.4716
7.3746,15.4580
7.2193,15.3492
7.1784,15.3301
7.0259,15.2590
6.8198,15.2038
6.8197,15.2038
6.6071,15.1852
6.6071,15.1852
6.3945,15.2038
6.3945,15.2038
6.1884,15.2590
6.1884,15.2590
5.9950,15.3492
5.9950,15.3492
5.8201,15.4716
5.6692,15.6225
5.5468,15.7974
5.5468,15.7974
5.4566,15.9908
5.4566,15.9908
5.4014,16.1969
5.4014,16.1969
5.3994,16.2196
5.3773,16.2620
5.3317,16.2764
5.2893,16.2543
5.2749,16.2196
5.2729,16.1969
5.2729,16.1969
5.2613,16.1537
5.2177,15.9908
5.2177,15.9908
5.2177,15.9908
5.1275,15.7974
5.1275,15.7974
5.1275,15.7974
5.1275,15.7974
5.0232,15.6485
5.0051,15.6225
4.8542,15.4716
4.8346,15.4580
4.6793,15.3492
4.6384,15.3301
4.4859,15.2590
4.2798,15.2038
4.2797,15.2038
4.0671,15.1852
4.0671,15.1852
3.9159,15.1984
3.8703,15.1840
3.8662,15.1803
3.5272,14.8413
3.5088,14.7971
3.5088,12.3965
3.5272,12.3523
3.5713,12.3340
3.7922,12.3340
3.7922,12.3340
3.8664,12.3193
3.9506,12.2630
4.0069,12.1788
4.0166,12.1300
4.0337,12.0980
4.8022,11.3295
4.0337,10.5610
4.0166,10.5290
4.0152,10.5220
4.0069,10.4802
3.9874,10.4510
3.9506,10.3961
3.8664,10.3398
3.8664,10.3398
3.7922,10.3250
3.6373,10.3250
3.5932,10.3067
3.5748,10.2625
3.5748,10.0059
3.5932,9.9617
3.6373,9.9434
3.6626,9.9488
3.7213,9.9747
3.7468,9.9776
4.3875,9.9776
4.4130,9.9747
4.4130,9.9747
4.5169,9.9288
4.5403,9.9054
4.5845,9.8871
4.6192,9.8976
4.6428,9.9134
4.6428,9.9134
4.7171,9.9281
5.3172,9.9281
5.3914,9.9134
5.4756,9.8571
5.5319,9.7729
5.5466,9.6987
5.5466,8.4817
5.5649,8.4375
5.6091,8.4192
5.7941,8.4192
Z" /> 
</g>
</g>
</g>
<g style="fill:#000000; fill-opacity:1.0000; 
stroke:#000000; stroke-width:0.0000; stroke-opacity:1; 
stroke-linecap:round; stroke-linejoin:round;">
<circle cx="17.6561" cy="11.2025" r="0.2500" /> 
</g>
<g style="fill:#000000; fill-opacity:1.0000; 
stroke:#000000; stroke-width:0.0212; stroke-opacity:1; 
stroke-linecap:round; stroke-linejoin:round;">
</g>
<g style="fill:#000000; fill-opacity:1.0000; 
stroke:#000000; stroke-width:0.0000; stroke-opacity:1; 
stroke-linecap:round; stroke-linejoin:round;">
<circle cx="10.4171" cy="8.0275" r="0.2500" /> 
</g>
<g style="fill:#000000; fill-opacity:1.0000; 
stroke:#000000; stroke-width:0.0212; stroke-opacity:1; 
stroke-linecap:round; stroke-linejoin:round;">
</g>
<g style="fill:#000000; fill-opacity:1.0000; 
stroke:#000000; stroke-width:0.0000; stroke-opacity:1; 
stroke-linecap:round; stroke-linejoin:round;">
<circle cx="7.8771" cy="12.8535" r="0.2500" /> 
</g>
<g style="fill:#000000; fill-opacity:1.0000; 
stroke:#000000; stroke-width:0.0212; stroke-opacity:1; 
stroke-linecap:round; stroke-linejoin:round;">
</g>
<g style="fill:#000000; fill-opacity:1.0000; 
stroke:#000000; stroke-width:0.0000; stroke-opacity:1; 
stroke-linecap:round; stroke-linejoin:round;">
<circle cx="17.7831" cy="5.6145" r="0.2500" /> 
</g>
<g style="fill:#000000; fill-opacity:1.0000; 
stroke:#000000; stroke-width:0.0212; stroke-opacity:1; 
stroke-linecap:round; stroke-linejoin:round;">
</g>
<g style="fill:#000000; fill-opacity:1.0000; 
stroke:#000000; stroke-width:0.0000; stroke-opacity:1; 
stroke-linecap:round; stroke-linejoin:round;">
<circle cx="3.0511" cy="5.1065" r="0.2500" /> 
</g>
<g style="fill:#000000; fill-opacity:1.0000; 
stroke:#000000; stroke-width:0.0212; stroke-opacity:1; 
stroke-linecap:round; stroke-linejoin:round;">
</g>
<g style="fill:#000000; fill-opacity:1.0000; 
stroke:#000000; stroke-width:0.0000; stroke-opacity:1; 
stroke-linecap:round; stroke-linejoin:round;">
<circle cx="13.2111" cy="13.6155" r="0.2500" /> 
</g>
<g style="fill:#000000; fill-opacity:1.0000; 
stroke:#000000; stroke-width:0.0212; stroke-opacity:1; 
stroke-linecap:round; stroke-linejoin:round;">
</g>
<g style="fill:#000000; fill-opacity:1.0000; 
stroke:#000000; stroke-width:0.0000; stroke-opacity:1; 
stroke-linecap:round; stroke-linejoin:round;">
<circle cx="15.2431" cy="12.9805" r="0.2500" /> 
</g>
<g style="fill:#000000; fill-opacity:1.0000; 
stroke:#000000; stroke-width:0.0212; stroke-opacity:1; 
stroke-linecap:round; stroke-linejoin:round;">
</g>
<g style="fill:#000000; fill-opacity:1.0000; 
stroke:#000000; stroke-width:0.0000; stroke-opacity:1; 
stroke-linecap:round; stroke-linejoin:round;">
<circle cx="10.1631" cy="13.3615" r="0.2500" /> 
</g>
<g style="fill:#000000; fill-opacity:1.0000; 
stroke:#000000; stroke-width:0.0212; stroke-opacity:1; 
stroke-linecap:round; stroke-linejoin:round;">
</g>
<g style="fill:#000000; fill-opacity:1.0000; 
stroke:#000000; stroke-width:0.0000; stroke-opacity:1; 
stroke-linecap:round; stroke-linejoin:round;">
<circle cx="16.7671" cy="16.4095" r="0.5000" /> 
</g>
<g style="fill:#000000; fill-opacity:1.0000; 
stroke:#000000; stroke-width:0.0212; stroke-opacity:1; 
stroke-linecap:round; stroke-linejoin:round;">
</g>
<g style="fill:#000000; fill-opacity:1.0000; 
stroke:#000000; stroke-width:0.0000; stroke-opacity:1; 
stroke-linecap:round; stroke-linejoin:round;">
<circle cx="14.2271" cy="16.4095" r="0.5000" /> 
</g>
<g style="fill:#000000; fill-opacity:1.0000; 
stroke:#000000; stroke-width:0.0212; stroke-opacity:1; 
stroke-linecap:round; stroke-linejoin:round;">
</g>
<g style="fill:#000000; fill-opacity:1.0000; 
stroke:#000000; stroke-width:0.0000; stroke-opacity:1; 
stroke-linecap:round; stroke-linejoin:round;">
<circle cx="11.6871" cy="16.4095" r="0.5000" /> 
</g>
<g style="fill:#000000; fill-opacity:1.0000; 
stroke:#000000; stroke-width:0.0212; stroke-opacity:1; 
stroke-linecap:round; stroke-linejoin:round;">
</g>
<g style="fill:#000000; fill-opacity:1.0000; 
stroke:#000000; stroke-width:0.0000; stroke-opacity:1; 
stroke-linecap:round; stroke-linejoin:round;">
<circle cx="9.1471" cy="16.4095" r="0.5000" /> 
</g>
<g style="fill:#000000; fill-opacity:1.0000; 
stroke:#000000; stroke-width:0.0212; stroke-opacity:1; 
stroke-linecap:round; stroke-linejoin:round;">
</g>
<g style="fill:#000000; fill-opacity:1.0000; 
stroke:#000000; stroke-width:0.0000; stroke-opacity:1; 
stroke-linecap:round; stroke-linejoin:round;">
<circle cx="6.6071" cy="16.4095" r="0.5000" /> 
</g>
<g style="fill:#000000; fill-opacity:1.0000; 
stroke:#000000; stroke-width:0.0212; stroke-opacity:1; 
stroke-linecap:round; stroke-linejoin:round;">
</g>
<g style="fill:#000000; fill-opacity:1.0000; 
stroke:#000000; stroke-width:0.0000; stroke-opacity:1; 
stroke-linecap:round; stroke-linejoin:round;">
<circle cx="4.0671" cy="16.4095" r="0.5000" /> 
</g>
<g style="fill:#000000; fill-opacity:1.0000; 
stroke:#000000; stroke-width:0.0212; stroke-opacity:1; 
stroke-linecap:round; stroke-linejoin:round;">
</g>
<g style="fill:#000000; fill-opacity:1.0000; 
stroke:#000000; stroke-width:0.0000; stroke-opacity:1; 
stroke-linecap:round; stroke-linejoin:round;">
<circle cx="16.1321" cy="2.9475" r="1.2500" /> 
</g>
<g style="fill:#000000; fill-opacity:1.0000; 
stroke:#000000; stroke-width:0.0212; stroke-opacity:1; 
stroke-linecap:round; stroke-linejoin:round;">
</g>
<g style="fill:#000000; fill-opacity:1.0000; 
stroke:#000000; stroke-width:0.0000; stroke-opacity:1; 
stroke-linecap:round; stroke-linejoin:round;">
<circle cx="4.7021" cy="2.9475" r="1.2500" /> 
</g>
<g style="fill:#000000; fill-opacity:1.0000; 
stroke:#000000; stroke-width:0.0212; stroke-opacity:1; 
stroke-linecap:round; stroke-linejoin:round;">
</g>
<g style="fill:#FFFFFF; fill-opacity:1.0000; 
stroke:#FFFFFF; stroke-width:0.0212; stroke-opacity:1; 
stroke-linecap:round; stroke-linejoin:round;">
<g >
</g>
<g >
</g>
<g >
</g>
<g >
</g>
<g >
</g>
<g >
</g>
<g >
</g>
<g >
</g>
<g >
</g>
<g >
</g>
<g >
</g>
<g >
</g>
<g >
</g>
<g >
</g>
<g >
</g>
<g >
</g>
<g >
</g>
<g >
</g>
<g >
</g>
</g>
<g style="fill:#FFFFFF; fill-opacity:1.0000; 
stroke:#FFFFFF; stroke-width:0.0212; stroke-opacity:1; 
stroke-linecap:round; stroke-linejoin:round;">
</g>
<g style="fill:#2F2D31; fill-opacity:1.0000; 
stroke:#2F2D31; stroke-width:0.0212; stroke-opacity:1; 
stroke-linecap:round; stroke-linejoin:round;">
</g>
<g style="fill:#2F2D31; fill-opacity:1.0000; 
stroke:#2F2D31; stroke-width:0.0500; stroke-opacity:1; 
stroke-linecap:round; stroke-linejoin:round;">
</g>
<g style="fill:#2F2D31; fill-opacity:0.0; 
stroke:#2F2D31; stroke-width:0.0500; stroke-opacity:1; 
stroke-linecap:round; stroke-linejoin:round;">
<path d="M16.1321 18.1875
L4.7021 18.1875
" />
<path d="M4.7021 0.4075
L16.1321 0.4075
" />
<path d="M2.1621 15.6475
L2.1621 2.9475
" />
<path d="M16.1321 18.1875 A2.5400 2.5400 0.0 0 0 18.6721 15.6475" />
<path d="M18.6721 2.9475 A2.5400 2.5400 0.0 0 0 16.1321 0.4075" />
<path d="M2.1621 15.6475 A2.5400 2.5400 0.0 0 0 4.7021 18.1875" />
<path d="M4.7021 0.4075 A2.5400 2.5400 0.0 0 0 2.1621 2.9475" />
<path d="M18.6721 2.9475
L18.6721 15.6475
" />
<g >
</g>
<g >
</g>
<g >
</g>
<g >
</g>
<g >
</g>
<g >
</g>
<g >
</g>
<g >
</g>
<g >
</g>
<g >
</g>
<g >
</g>
<g >
</g>
<g >
</g>
<g >
</g>
<g >
</g>
<g >
</g>
<g >
</g>
<g >
</g>
<g >
</g>
</g> 
</svg>
