<?xml version="1.0" standalone="no"?>
 <!DOCTYPE svg PUBLIC "-//W3C//DTD SVG 1.1//EN" 
 "http://www.w3.org/Graphics/SVG/1.1/DTD/svg11.dtd"> 
<svg
  xmlns:svg="http://www.w3.org/2000/svg"
  xmlns="http://www.w3.org/2000/svg"
  xmlns:xlink="http://www.w3.org/1999/xlink"
  version="1.1"
  width="15.0368mm" height="16.0274mm" viewBox="0.0000 0.0000 15.0368 16.0274">
<title>SVG Image created as working-brd.svg date 2023/09/28 21:52:51 </title>
  <desc>Image generated by PCBNEW </desc>
<g style="fill:#000000; fill-opacity:1.0000;stroke:#000000; stroke-opacity:1.0000;
stroke-linecap:round; stroke-linejoin:round;"
 transform="translate(0 0) scale(1 1)">
</g>
<g style="fill:#000000; fill-opacity:0.0; 
stroke:#000000; stroke-width:0.0000; stroke-opacity:1; 
stroke-linecap:round; stroke-linejoin:round;">
</g>
<g style="fill:#000000; fill-opacity:1.0000; 
stroke:#000000; stroke-width:0.0212; stroke-opacity:1; 
stroke-linecap:round; stroke-linejoin:round;">
<rect x="-5.000000" y="-5.000000" width="25.050000" height="26.050000" rx="0.000000" />
</g>
<g style="fill:#FFFFFF; fill-opacity:1.0000; 
stroke:#FFFFFF; stroke-width:0.0212; stroke-opacity:1; 
stroke-linecap:round; stroke-linejoin:round;">
<g >
</g>
<g style="fill:#B2803A; fill-opacity:1.0000; 
stroke:#B2803A; stroke-width:0.0212; stroke-opacity:1; 
stroke-linecap:round; stroke-linejoin:round;">
</g>
<g style="fill:#B2803A; fill-opacity:1.0000; 
stroke:#B2803A; stroke-width:0.0000; stroke-opacity:1; 
stroke-linecap:round; stroke-linejoin:round;">
<circle cx="4.8500" cy="5.6500" r="1.1500" /> 
</g>
<g style="fill:#B2803A; fill-opacity:1.0000; 
stroke:#B2803A; stroke-width:0.0212; stroke-opacity:1; 
stroke-linecap:round; stroke-linejoin:round;">
</g>
<g style="fill:#B2803A; fill-opacity:1.0000; 
stroke:#B2803A; stroke-width:0.0000; stroke-opacity:1; 
stroke-linecap:round; stroke-linejoin:round;">
<circle cx="4.8500" cy="8.1900" r="1.1500" /> 
</g>
<g style="fill:#B2803A; fill-opacity:1.0000; 
stroke:#B2803A; stroke-width:0.0212; stroke-opacity:1; 
stroke-linecap:round; stroke-linejoin:round;">
</g>
<g style="fill:#B2803A; fill-opacity:1.0000; 
stroke:#B2803A; stroke-width:0.0000; stroke-opacity:1; 
stroke-linecap:round; stroke-linejoin:round;">
<circle cx="4.8500" cy="10.7300" r="1.1500" /> 
</g>
<g style="fill:#B2803A; fill-opacity:1.0000; 
stroke:#B2803A; stroke-width:0.0212; stroke-opacity:1; 
stroke-linecap:round; stroke-linejoin:round;">
</g>
<g >
</g>
<g style="fill:#B2803A; fill-opacity:1.0000; 
stroke:#B2803A; stroke-width:0.0212; stroke-opacity:1; 
stroke-linecap:round; stroke-linejoin:round;">
</g>
<g style="fill:#B2803A; fill-opacity:1.0000; 
stroke:#B2803A; stroke-width:0.0000; stroke-opacity:1; 
stroke-linecap:round; stroke-linejoin:round;">
<path style="fill:#B2803A; fill-opacity:1.0000; 
stroke:#B2803A; stroke-width:0.0000; stroke-opacity:1; 
stroke-linecap:round; stroke-linejoin:round;fill-rule:evenodd;"
d="M 11.5750,7.1250
12.8750,7.1250
12.8750,8.1250
11.5750,8.1250
Z" /> 
<path style="fill:#B2803A; fill-opacity:1.0000; 
stroke:#B2803A; stroke-width:0.0000; stroke-opacity:1; 
stroke-linecap:round; stroke-linejoin:round;fill-rule:evenodd;"
d="M 11.5750,8.3950
12.8750,8.3950
12.8750,9.3950
11.5750,9.3950
Z" /> 
<path style="fill:#B2803A; fill-opacity:1.0000; 
stroke:#B2803A; stroke-width:0.0000; stroke-opacity:1; 
stroke-linecap:round; stroke-linejoin:round;fill-rule:evenodd;"
d="M 11.5750,9.6650
12.8750,9.6650
12.8750,10.6650
11.5750,10.6650
Z" /> 
</g>
<g >
</g>
<g style="fill:#B2803A; fill-opacity:1.0000; 
stroke:#B2803A; stroke-width:0.0000; stroke-opacity:1; 
stroke-linecap:round; stroke-linejoin:round;">
<path style="fill:#B2803A; fill-opacity:1.0000; 
stroke:#B2803A; stroke-width:0.0000; stroke-opacity:1; 
stroke-linecap:round; stroke-linejoin:round;fill-rule:evenodd;"
d="M 7.0750,8.5300
8.3750,8.5300
8.3750,10.3200
7.0750,10.3200
Z" /> 
<path style="fill:#B2803A; fill-opacity:1.0000; 
stroke:#B2803A; stroke-width:0.0000; stroke-opacity:1; 
stroke-linecap:round; stroke-linejoin:round;fill-rule:evenodd;"
d="M 7.0750,10.5300
8.3750,10.5300
8.3750,12.3200
7.0750,12.3200
Z" /> 
</g>
<g >
</g>
<g style="fill:#B2803A; fill-opacity:1.0000; 
stroke:#B2803A; stroke-width:0.0000; stroke-opacity:1; 
stroke-linecap:round; stroke-linejoin:round;">
<path style="fill:#B2803A; fill-opacity:1.0000; 
stroke:#B2803A; stroke-width:0.0000; stroke-opacity:1; 
stroke-linecap:round; stroke-linejoin:round;fill-rule:evenodd;"
d="M 8.3750,8.0200
7.0750,8.0200
7.0750,6.2300
8.3750,6.2300
Z" /> 
<path style="fill:#B2803A; fill-opacity:1.0000; 
stroke:#B2803A; stroke-width:0.0000; stroke-opacity:1; 
stroke-linecap:round; stroke-linejoin:round;fill-rule:evenodd;"
d="M 8.3750,6.0200
7.0750,6.0200
7.0750,4.2300
8.3750,4.2300
Z" /> 
</g>
<g >
</g>
<g style="fill:#121212; fill-opacity:1.0000; 
stroke:#121212; stroke-width:0.0000; stroke-opacity:1; 
stroke-linecap:round; stroke-linejoin:round;">
<circle cx="13.0250" cy="14.0250" r="1.5000" /> 
</g>
<g style="fill:#121212; fill-opacity:1.0000; 
stroke:#121212; stroke-width:0.0212; stroke-opacity:1; 
stroke-linecap:round; stroke-linejoin:round;">
</g>
<g style="fill:#121212; fill-opacity:1.0000; 
stroke:#121212; stroke-width:0.0000; stroke-opacity:1; 
stroke-linecap:round; stroke-linejoin:round;">
<circle cx="2.0250" cy="14.0250" r="1.5000" /> 
</g>
<g style="fill:#121212; fill-opacity:1.0000; 
stroke:#121212; stroke-width:0.0212; stroke-opacity:1; 
stroke-linecap:round; stroke-linejoin:round;">
</g>
<g style="fill:#121212; fill-opacity:1.0000; 
stroke:#121212; stroke-width:0.0000; stroke-opacity:1; 
stroke-linecap:round; stroke-linejoin:round;">
<circle cx="13.0250" cy="2.0250" r="1.5000" /> 
</g>
<g style="fill:#121212; fill-opacity:1.0000; 
stroke:#121212; stroke-width:0.0212; stroke-opacity:1; 
stroke-linecap:round; stroke-linejoin:round;">
</g>
<g style="fill:#121212; fill-opacity:1.0000; 
stroke:#121212; stroke-width:0.0000; stroke-opacity:1; 
stroke-linecap:round; stroke-linejoin:round;">
<circle cx="2.0250" cy="2.0250" r="1.5000" /> 
</g>
<g style="fill:#121212; fill-opacity:1.0000; 
stroke:#121212; stroke-width:0.0212; stroke-opacity:1; 
stroke-linecap:round; stroke-linejoin:round;">
</g>
<g >
</g>
<g style="fill:#B2803A; fill-opacity:1.0000; 
stroke:#B2803A; stroke-width:0.0212; stroke-opacity:1; 
stroke-linecap:round; stroke-linejoin:round;">
</g>
<g style="fill:#B2803A; fill-opacity:1.0000; 
stroke:#B2803A; stroke-width:0.4500; stroke-opacity:1; 
stroke-linecap:round; stroke-linejoin:round;">
</g>
<g style="fill:#B2803A; fill-opacity:0.0; 
stroke:#B2803A; stroke-width:0.4500; stroke-opacity:1; 
stroke-linecap:round; stroke-linejoin:round;">
<path d="M6.6600 8.1900
L7.7250 7.1250
" />
<path d="M9.5650 10.1650
L12.2250 10.1650
" />
<path d="M7.7250 9.2550
L6.6600 8.1900
" />
<path d="M8.8250 9.4250
L9.5650 10.1650
" />
<path d="M4.8500 8.1900
L6.6600 8.1900
" />
<path d="M7.7250 9.4250
L7.7250 9.2550
" />
<path d="M7.7250 9.4250
L8.8250 9.4250
" />
<path d="M5.5450 11.4250
L7.7250 11.4250
" />
<path d="M7.7250 11.4250
L13.2250 11.4250
" />
<path d="M13.8250 9.2250
L13.4950 8.8950
" />
<path d="M13.8250 10.8250
L13.8250 9.2250
" />
<path d="M4.8500 10.7300
L5.5450 11.4250
" />
<path d="M13.2250 11.4250
L13.8250 10.8250
" />
<path d="M13.4950 8.8950
L12.2250 8.8950
" />
<path d="M4.8500 5.6500
L7.2000 5.6500
" />
<path d="M7.7250 5.1250
L9.7250 5.1250
" />
<path d="M7.2000 5.6500
L7.7250 5.1250
" />
<path d="M9.7250 5.1250
L12.2250 7.6250
" />
</g>
<g >
</g>
</g>
<g style="fill:#000000; fill-opacity:0.0; 
stroke:#000000; stroke-width:0.4500; stroke-opacity:1; 
stroke-linecap:round; stroke-linejoin:round;">
</g>
<g style="fill:#000000; fill-opacity:1.0000; 
stroke:#000000; stroke-width:0.0000; stroke-opacity:1; 
stroke-linecap:round; stroke-linejoin:round;">
<circle cx="13.0250" cy="14.0250" r="1.2500" /> 
</g>
<g style="fill:#000000; fill-opacity:1.0000; 
stroke:#000000; stroke-width:0.0212; stroke-opacity:1; 
stroke-linecap:round; stroke-linejoin:round;">
</g>
<g style="fill:#000000; fill-opacity:1.0000; 
stroke:#000000; stroke-width:0.0000; stroke-opacity:1; 
stroke-linecap:round; stroke-linejoin:round;">
<circle cx="2.0250" cy="14.0250" r="1.2500" /> 
</g>
<g style="fill:#000000; fill-opacity:1.0000; 
stroke:#000000; stroke-width:0.0212; stroke-opacity:1; 
stroke-linecap:round; stroke-linejoin:round;">
</g>
<g style="fill:#000000; fill-opacity:1.0000; 
stroke:#000000; stroke-width:0.0000; stroke-opacity:1; 
stroke-linecap:round; stroke-linejoin:round;">
<circle cx="13.0250" cy="2.0250" r="1.2500" /> 
</g>
<g style="fill:#000000; fill-opacity:1.0000; 
stroke:#000000; stroke-width:0.0212; stroke-opacity:1; 
stroke-linecap:round; stroke-linejoin:round;">
</g>
<g style="fill:#000000; fill-opacity:1.0000; 
stroke:#000000; stroke-width:0.0000; stroke-opacity:1; 
stroke-linecap:round; stroke-linejoin:round;">
<circle cx="2.0250" cy="2.0250" r="1.2500" /> 
</g>
<g style="fill:#000000; fill-opacity:1.0000; 
stroke:#000000; stroke-width:0.0212; stroke-opacity:1; 
stroke-linecap:round; stroke-linejoin:round;">
</g>
<g style="fill:#000000; fill-opacity:1.0000; 
stroke:#000000; stroke-width:0.0000; stroke-opacity:1; 
stroke-linecap:round; stroke-linejoin:round;">
<circle cx="4.8500" cy="5.6500" r="0.5000" /> 
</g>
<g style="fill:#000000; fill-opacity:1.0000; 
stroke:#000000; stroke-width:0.0212; stroke-opacity:1; 
stroke-linecap:round; stroke-linejoin:round;">
</g>
<g style="fill:#000000; fill-opacity:1.0000; 
stroke:#000000; stroke-width:0.0000; stroke-opacity:1; 
stroke-linecap:round; stroke-linejoin:round;">
<circle cx="4.8500" cy="8.1900" r="0.5000" /> 
</g>
<g style="fill:#000000; fill-opacity:1.0000; 
stroke:#000000; stroke-width:0.0212; stroke-opacity:1; 
stroke-linecap:round; stroke-linejoin:round;">
</g>
<g style="fill:#000000; fill-opacity:1.0000; 
stroke:#000000; stroke-width:0.0000; stroke-opacity:1; 
stroke-linecap:round; stroke-linejoin:round;">
<circle cx="4.8500" cy="10.7300" r="0.5000" /> 
</g>
<g style="fill:#000000; fill-opacity:1.0000; 
stroke:#000000; stroke-width:0.0212; stroke-opacity:1; 
stroke-linecap:round; stroke-linejoin:round;">
</g>
<g style="fill:#000000; fill-opacity:1.0000; 
stroke:#000000; stroke-width:0.0000; stroke-opacity:1; 
stroke-linecap:round; stroke-linejoin:round;">
<circle cx="12.2250" cy="7.6250" r="0.3000" /> 
</g>
<g style="fill:#000000; fill-opacity:1.0000; 
stroke:#000000; stroke-width:0.0212; stroke-opacity:1; 
stroke-linecap:round; stroke-linejoin:round;">
</g>
<g style="fill:#000000; fill-opacity:1.0000; 
stroke:#000000; stroke-width:0.0000; stroke-opacity:1; 
stroke-linecap:round; stroke-linejoin:round;">
<circle cx="12.2250" cy="8.8950" r="0.3000" /> 
</g>
<g style="fill:#000000; fill-opacity:1.0000; 
stroke:#000000; stroke-width:0.0212; stroke-opacity:1; 
stroke-linecap:round; stroke-linejoin:round;">
</g>
<g style="fill:#000000; fill-opacity:1.0000; 
stroke:#000000; stroke-width:0.0000; stroke-opacity:1; 
stroke-linecap:round; stroke-linejoin:round;">
<circle cx="12.2250" cy="10.1650" r="0.3000" /> 
</g>
<g style="fill:#000000; fill-opacity:1.0000; 
stroke:#000000; stroke-width:0.0212; stroke-opacity:1; 
stroke-linecap:round; stroke-linejoin:round;">
</g>
<g style="fill:#FFFFFF; fill-opacity:1.0000; 
stroke:#FFFFFF; stroke-width:0.0212; stroke-opacity:1; 
stroke-linecap:round; stroke-linejoin:round;">
</g>
<g style="fill:#37CBCB; fill-opacity:1.0000; 
stroke:#37CBCB; stroke-width:0.0212; stroke-opacity:1; 
stroke-linecap:round; stroke-linejoin:round;">
</g>
<g style="fill:#37CBCB; fill-opacity:1.0000; 
stroke:#37CBCB; stroke-width:0.2500; stroke-opacity:1; 
stroke-linecap:round; stroke-linejoin:round;">
</g>
<g style="fill:#37CBCB; fill-opacity:0.0; 
stroke:#37CBCB; stroke-width:0.2500; stroke-opacity:1; 
stroke-linecap:round; stroke-linejoin:round;">
<text x="4.0250" y="1.7200"
textLength="6.9310" font-size="1.3333" lengthAdjust="spacingAndGlyphs"
text-anchor="start" opacity="0">kazatsky</text>
<g class="stroked-text"><desc>kazatsky</desc>
<path d="M4.4276 1.6696
L4.4276 0.6696
" />
<path d="M4.5228 1.2887
L4.8085 1.6696
" />
<path d="M4.8085 1.0030
L4.4276 1.3839
" />
<path d="M5.6657 1.6696
L5.6657 1.1458
" />
<path d="M5.6657 1.1458
L5.6180 1.0506
" />
<path d="M5.6180 1.0506
L5.5228 1.0030
" />
<path d="M5.5228 1.0030
L5.3323 1.0030
" />
<path d="M5.3323 1.0030
L5.2371 1.0506
" />
<path d="M5.6657 1.6220
L5.5704 1.6696
" />
<path d="M5.5704 1.6696
L5.3323 1.6696
" />
<path d="M5.3323 1.6696
L5.2371 1.6220
" />
<path d="M5.2371 1.6220
L5.1895 1.5268
" />
<path d="M5.1895 1.5268
L5.1895 1.4315
" />
<path d="M5.1895 1.4315
L5.2371 1.3363
" />
<path d="M5.2371 1.3363
L5.3323 1.2887
" />
<path d="M5.3323 1.2887
L5.5704 1.2887
" />
<path d="M5.5704 1.2887
L5.6657 1.2410
" />
<path d="M6.0466 1.0030
L6.5704 1.0030
" />
<path d="M6.5704 1.0030
L6.0466 1.6696
" />
<path d="M6.0466 1.6696
L6.5704 1.6696
" />
<path d="M7.3799 1.6696
L7.3799 1.1458
" />
<path d="M7.3799 1.1458
L7.3323 1.0506
" />
<path d="M7.3323 1.0506
L7.2371 1.0030
" />
<path d="M7.2371 1.0030
L7.0466 1.0030
" />
<path d="M7.0466 1.0030
L6.9514 1.0506
" />
<path d="M7.3799 1.6220
L7.2847 1.6696
" />
<path d="M7.2847 1.6696
L7.0466 1.6696
" />
<path d="M7.0466 1.6696
L6.9514 1.6220
" />
<path d="M6.9514 1.6220
L6.9038 1.5268
" />
<path d="M6.9038 1.5268
L6.9038 1.4315
" />
<path d="M6.9038 1.4315
L6.9514 1.3363
" />
<path d="M6.9514 1.3363
L7.0466 1.2887
" />
<path d="M7.0466 1.2887
L7.2847 1.2887
" />
<path d="M7.2847 1.2887
L7.3799 1.2410
" />
<path d="M7.7133 1.0030
L8.0942 1.0030
" />
<path d="M7.8561 0.6696
L7.8561 1.5268
" />
<path d="M7.8561 1.5268
L7.9038 1.6220
" />
<path d="M7.9038 1.6220
L7.9990 1.6696
" />
<path d="M7.9990 1.6696
L8.0942 1.6696
" />
<path d="M8.3799 1.6220
L8.4752 1.6696
" />
<path d="M8.4752 1.6696
L8.6657 1.6696
" />
<path d="M8.6657 1.6696
L8.7609 1.6220
" />
<path d="M8.7609 1.6220
L8.8085 1.5268
" />
<path d="M8.8085 1.5268
L8.8085 1.4791
" />
<path d="M8.8085 1.4791
L8.7609 1.3839
" />
<path d="M8.7609 1.3839
L8.6657 1.3363
" />
<path d="M8.6657 1.3363
L8.5228 1.3363
" />
<path d="M8.5228 1.3363
L8.4276 1.2887
" />
<path d="M8.4276 1.2887
L8.3799 1.1934
" />
<path d="M8.3799 1.1934
L8.3799 1.1458
" />
<path d="M8.3799 1.1458
L8.4276 1.0506
" />
<path d="M8.4276 1.0506
L8.5228 1.0030
" />
<path d="M8.5228 1.0030
L8.6657 1.0030
" />
<path d="M8.6657 1.0030
L8.7609 1.0506
" />
<path d="M9.2371 1.6696
L9.2371 0.6696
" />
<path d="M9.3323 1.2887
L9.6180 1.6696
" />
<path d="M9.6180 1.0030
L9.2371 1.3839
" />
<path d="M9.9514 1.0030
L10.1895 1.6696
" />
<path d="M10.4276 1.0030
L10.1895 1.6696
" />
<path d="M10.1895 1.6696
L10.0942 1.9077
" />
<path d="M10.0942 1.9077
L10.0466 1.9553
" />
<path d="M10.0466 1.9553
L9.9514 2.0030
" />
</g><text x="4.0250" y="3.3300"
textLength="6.8833" font-size="1.3333" lengthAdjust="spacingAndGlyphs"
text-anchor="start" opacity="0">HESense</text>
<g class="stroked-text"><desc>HESense</desc>
<path d="M4.4276 3.2796
L4.4276 2.2796
" />
<path d="M4.4276 2.7558
L4.9990 2.7558
" />
<path d="M4.9990 3.2796
L4.9990 2.2796
" />
<path d="M5.4752 2.7558
L5.8085 2.7558
" />
<path d="M5.9514 3.2796
L5.4752 3.2796
" />
<path d="M5.4752 3.2796
L5.4752 2.2796
" />
<path d="M5.4752 2.2796
L5.9514 2.2796
" />
<path d="M6.3323 3.2320
L6.4752 3.2796
" />
<path d="M6.4752 3.2796
L6.7133 3.2796
" />
<path d="M6.7133 3.2796
L6.8085 3.2320
" />
<path d="M6.8085 3.2320
L6.8561 3.1844
" />
<path d="M6.8561 3.1844
L6.9038 3.0891
" />
<path d="M6.9038 3.0891
L6.9038 2.9939
" />
<path d="M6.9038 2.9939
L6.8561 2.8987
" />
<path d="M6.8561 2.8987
L6.8085 2.8510
" />
<path d="M6.8085 2.8510
L6.7133 2.8034
" />
<path d="M6.7133 2.8034
L6.5228 2.7558
" />
<path d="M6.5228 2.7558
L6.4276 2.7082
" />
<path d="M6.4276 2.7082
L6.3799 2.6606
" />
<path d="M6.3799 2.6606
L6.3323 2.5653
" />
<path d="M6.3323 2.5653
L6.3323 2.4701
" />
<path d="M6.3323 2.4701
L6.3799 2.3749
" />
<path d="M6.3799 2.3749
L6.4276 2.3272
" />
<path d="M6.4276 2.3272
L6.5228 2.2796
" />
<path d="M6.5228 2.2796
L6.7609 2.2796
" />
<path d="M6.7609 2.2796
L6.9038 2.3272
" />
<path d="M7.7133 3.2320
L7.6180 3.2796
" />
<path d="M7.6180 3.2796
L7.4276 3.2796
" />
<path d="M7.4276 3.2796
L7.3323 3.2320
" />
<path d="M7.3323 3.2320
L7.2847 3.1368
" />
<path d="M7.2847 3.1368
L7.2847 2.7558
" />
<path d="M7.2847 2.7558
L7.3323 2.6606
" />
<path d="M7.3323 2.6606
L7.4276 2.6130
" />
<path d="M7.4276 2.6130
L7.6180 2.6130
" />
<path d="M7.6180 2.6130
L7.7133 2.6606
" />
<path d="M7.7133 2.6606
L7.7609 2.7558
" />
<path d="M7.7609 2.7558
L7.7609 2.8510
" />
<path d="M7.7609 2.8510
L7.2847 2.9463
" />
<path d="M8.1895 2.6130
L8.1895 3.2796
" />
<path d="M8.1895 2.7082
L8.2371 2.6606
" />
<path d="M8.2371 2.6606
L8.3323 2.6130
" />
<path d="M8.3323 2.6130
L8.4752 2.6130
" />
<path d="M8.4752 2.6130
L8.5704 2.6606
" />
<path d="M8.5704 2.6606
L8.6180 2.7558
" />
<path d="M8.6180 2.7558
L8.6180 3.2796
" />
<path d="M9.0466 3.2320
L9.1419 3.2796
" />
<path d="M9.1419 3.2796
L9.3323 3.2796
" />
<path d="M9.3323 3.2796
L9.4276 3.2320
" />
<path d="M9.4276 3.2320
L9.4752 3.1368
" />
<path d="M9.4752 3.1368
L9.4752 3.0891
" />
<path d="M9.4752 3.0891
L9.4276 2.9939
" />
<path d="M9.4276 2.9939
L9.3323 2.9463
" />
<path d="M9.3323 2.9463
L9.1895 2.9463
" />
<path d="M9.1895 2.9463
L9.0942 2.8987
" />
<path d="M9.0942 2.8987
L9.0466 2.8034
" />
<path d="M9.0466 2.8034
L9.0466 2.7558
" />
<path d="M9.0466 2.7558
L9.0942 2.6606
" />
<path d="M9.0942 2.6606
L9.1895 2.6130
" />
<path d="M9.1895 2.6130
L9.3323 2.6130
" />
<path d="M9.3323 2.6130
L9.4276 2.6606
" />
<path d="M10.2847 3.2320
L10.1895 3.2796
" />
<path d="M10.1895 3.2796
L9.9990 3.2796
" />
<path d="M9.9990 3.2796
L9.9038 3.2320
" />
<path d="M9.9038 3.2320
L9.8561 3.1368
" />
<path d="M9.8561 3.1368
L9.8561 2.7558
" />
<path d="M9.8561 2.7558
L9.9038 2.6606
" />
<path d="M9.9038 2.6606
L9.9990 2.6130
" />
<path d="M9.9990 2.6130
L10.1895 2.6130
" />
<path d="M10.1895 2.6130
L10.2847 2.6606
" />
<path d="M10.2847 2.6606
L10.3323 2.7558
" />
<path d="M10.3323 2.7558
L10.3323 2.8510
" />
<path d="M10.3323 2.8510
L9.8561 2.9463
" />
</g></g>
<g style="fill:#37CBCB; fill-opacity:0.0; 
stroke:#37CBCB; stroke-width:0.3000; stroke-opacity:1; 
stroke-linecap:round; stroke-linejoin:round;">
<text x="2.1250" y="8.7750"
textLength="2.4571" font-size="2.0000" lengthAdjust="spacingAndGlyphs"
text-anchor="middle" opacity="0">-</text>
<g class="stroked-text"><desc>-</desc>
<path d="M1.5536 8.1319
L2.6964 8.1319
" />
</g><g transform="rotate(-180.000000 2.1250 10.8250)">
<text x="2.1250" y="11.5750"
textLength="2.0286" font-size="2.0000" lengthAdjust="spacingAndGlyphs"
text-anchor="middle" opacity="0">S</text>
</g>
<g class="stroked-text"><desc>S</desc>
<path d="M2.5536 10.2181
L2.3393 10.1467
" />
<path d="M2.3393 10.1467
L1.9821 10.1467
" />
<path d="M1.9821 10.1467
L1.8393 10.2181
" />
<path d="M1.8393 10.2181
L1.7679 10.2895
" />
<path d="M1.7679 10.2895
L1.6964 10.4324
" />
<path d="M1.6964 10.4324
L1.6964 10.5752
" />
<path d="M1.6964 10.5752
L1.7679 10.7181
" />
<path d="M1.7679 10.7181
L1.8393 10.7895
" />
<path d="M1.8393 10.7895
L1.9821 10.8610
" />
<path d="M1.9821 10.8610
L2.2679 10.9324
" />
<path d="M2.2679 10.9324
L2.4107 11.0038
" />
<path d="M2.4107 11.0038
L2.4821 11.0752
" />
<path d="M2.4821 11.0752
L2.5536 11.2181
" />
<path d="M2.5536 11.2181
L2.5536 11.3610
" />
<path d="M2.5536 11.3610
L2.4821 11.5038
" />
<path d="M2.4821 11.5038
L2.4107 11.5752
" />
<path d="M2.4107 11.5752
L2.2679 11.6467
" />
<path d="M2.2679 11.6467
L1.9107 11.6467
" />
<path d="M1.9107 11.6467
L1.6964 11.5752
" />
</g><text x="1.8250" y="11.4750"
textLength="1.6714" font-size="2.0000" lengthAdjust="spacingAndGlyphs"
text-anchor="middle" opacity="0">~</text>
<g class="stroked-text"><desc>~</desc>
<path d="M1.4321 10.8319
L1.5036 10.7605
" />
<path d="M1.5036 10.7605
L1.6464 10.6890
" />
<path d="M1.6464 10.6890
L1.9321 10.8319
" />
<path d="M1.9321 10.8319
L2.0750 10.7605
" />
<path d="M2.0750 10.7605
L2.1464 10.6890
" />
</g><text x="11.0250" y="7.1750"
textLength="1.7429" font-size="2.0000" lengthAdjust="spacingAndGlyphs"
text-anchor="middle" opacity="0">*</text>
<g class="stroked-text"><desc>*</desc>
<path d="M11.0250 5.6033
L11.0250 5.9605
" />
<path d="M10.6679 5.8176
L11.0250 5.9605
" />
<path d="M11.0250 5.9605
L11.3821 5.8176
" />
<path d="M10.8107 6.2462
L11.0250 5.9605
" />
<path d="M11.0250 5.9605
L11.2393 6.2462
" />
</g><text x="2.1250" y="6.3750"
textLength="2.4571" font-size="2.0000" lengthAdjust="spacingAndGlyphs"
text-anchor="middle" opacity="0">+</text>
<g class="stroked-text"><desc>+</desc>
<path d="M1.5536 5.7319
L2.6964 5.7319
" />
<path d="M2.1250 6.3033
L2.1250 5.1605
" />
</g></g>
<g style="fill:#37CBCB; fill-opacity:0.0; 
stroke:#37CBCB; stroke-width:0.2500; stroke-opacity:1; 
stroke-linecap:round; stroke-linejoin:round;">
<text x="8.0250" y="13.7200"
textLength="5.5976" font-size="1.3333" lengthAdjust="spacingAndGlyphs"
text-anchor="middle" opacity="0">2020-</text>
<g class="stroked-text"><desc>2020-</desc>
<path d="M5.6917 12.7649
L5.7393 12.7172
" />
<path d="M5.7393 12.7172
L5.8345 12.6696
" />
<path d="M5.8345 12.6696
L6.0726 12.6696
" />
<path d="M6.0726 12.6696
L6.1679 12.7172
" />
<path d="M6.1679 12.7172
L6.2155 12.7649
" />
<path d="M6.2155 12.7649
L6.2631 12.8601
" />
<path d="M6.2631 12.8601
L6.2631 12.9553
" />
<path d="M6.2631 12.9553
L6.2155 13.0982
" />
<path d="M6.2155 13.0982
L5.6440 13.6696
" />
<path d="M5.6440 13.6696
L6.2631 13.6696
" />
<path d="M6.8821 12.6696
L6.9774 12.6696
" />
<path d="M6.9774 12.6696
L7.0726 12.7172
" />
<path d="M7.0726 12.7172
L7.1202 12.7649
" />
<path d="M7.1202 12.7649
L7.1679 12.8601
" />
<path d="M7.1679 12.8601
L7.2155 13.0506
" />
<path d="M7.2155 13.0506
L7.2155 13.2887
" />
<path d="M7.2155 13.2887
L7.1679 13.4791
" />
<path d="M7.1679 13.4791
L7.1202 13.5744
" />
<path d="M7.1202 13.5744
L7.0726 13.6220
" />
<path d="M7.0726 13.6220
L6.9774 13.6696
" />
<path d="M6.9774 13.6696
L6.8821 13.6696
" />
<path d="M6.8821 13.6696
L6.7869 13.6220
" />
<path d="M6.7869 13.6220
L6.7393 13.5744
" />
<path d="M6.7393 13.5744
L6.6917 13.4791
" />
<path d="M6.6917 13.4791
L6.6440 13.2887
" />
<path d="M6.6440 13.2887
L6.6440 13.0506
" />
<path d="M6.6440 13.0506
L6.6917 12.8601
" />
<path d="M6.6917 12.8601
L6.7393 12.7649
" />
<path d="M6.7393 12.7649
L6.7869 12.7172
" />
<path d="M6.7869 12.7172
L6.8821 12.6696
" />
<path d="M7.5964 12.7649
L7.6440 12.7172
" />
<path d="M7.6440 12.7172
L7.7393 12.6696
" />
<path d="M7.7393 12.6696
L7.9774 12.6696
" />
<path d="M7.9774 12.6696
L8.0726 12.7172
" />
<path d="M8.0726 12.7172
L8.1202 12.7649
" />
<path d="M8.1202 12.7649
L8.1679 12.8601
" />
<path d="M8.1679 12.8601
L8.1679 12.9553
" />
<path d="M8.1679 12.9553
L8.1202 13.0982
" />
<path d="M8.1202 13.0982
L7.5488 13.6696
" />
<path d="M7.5488 13.6696
L8.1679 13.6696
" />
<path d="M8.7869 12.6696
L8.8821 12.6696
" />
<path d="M8.8821 12.6696
L8.9774 12.7172
" />
<path d="M8.9774 12.7172
L9.0250 12.7649
" />
<path d="M9.0250 12.7649
L9.0726 12.8601
" />
<path d="M9.0726 12.8601
L9.1202 13.0506
" />
<path d="M9.1202 13.0506
L9.1202 13.2887
" />
<path d="M9.1202 13.2887
L9.0726 13.4791
" />
<path d="M9.0726 13.4791
L9.0250 13.5744
" />
<path d="M9.0250 13.5744
L8.9774 13.6220
" />
<path d="M8.9774 13.6220
L8.8821 13.6696
" />
<path d="M8.8821 13.6696
L8.7869 13.6696
" />
<path d="M8.7869 13.6696
L8.6917 13.6220
" />
<path d="M8.6917 13.6220
L8.6440 13.5744
" />
<path d="M8.6440 13.5744
L8.5964 13.4791
" />
<path d="M8.5964 13.4791
L8.5488 13.2887
" />
<path d="M8.5488 13.2887
L8.5488 13.0506
" />
<path d="M8.5488 13.0506
L8.5964 12.8601
" />
<path d="M8.5964 12.8601
L8.6440 12.7649
" />
<path d="M8.6440 12.7649
L8.6917 12.7172
" />
<path d="M8.6917 12.7172
L8.7869 12.6696
" />
<path d="M9.5488 13.2887
L10.3107 13.2887
" />
</g><text x="8.0250" y="15.3300"
textLength="5.5976" font-size="1.3333" lengthAdjust="spacingAndGlyphs"
text-anchor="middle" opacity="0">03-08</text>
<g class="stroked-text"><desc>03-08</desc>
<path d="M5.9298 14.2796
L6.0250 14.2796
" />
<path d="M6.0250 14.2796
L6.1202 14.3272
" />
<path d="M6.1202 14.3272
L6.1679 14.3749
" />
<path d="M6.1679 14.3749
L6.2155 14.4701
" />
<path d="M6.2155 14.4701
L6.2631 14.6606
" />
<path d="M6.2631 14.6606
L6.2631 14.8987
" />
<path d="M6.2631 14.8987
L6.2155 15.0891
" />
<path d="M6.2155 15.0891
L6.1679 15.1844
" />
<path d="M6.1679 15.1844
L6.1202 15.2320
" />
<path d="M6.1202 15.2320
L6.0250 15.2796
" />
<path d="M6.0250 15.2796
L5.9298 15.2796
" />
<path d="M5.9298 15.2796
L5.8345 15.2320
" />
<path d="M5.8345 15.2320
L5.7869 15.1844
" />
<path d="M5.7869 15.1844
L5.7393 15.0891
" />
<path d="M5.7393 15.0891
L5.6917 14.8987
" />
<path d="M5.6917 14.8987
L5.6917 14.6606
" />
<path d="M5.6917 14.6606
L5.7393 14.4701
" />
<path d="M5.7393 14.4701
L5.7869 14.3749
" />
<path d="M5.7869 14.3749
L5.8345 14.3272
" />
<path d="M5.8345 14.3272
L5.9298 14.2796
" />
<path d="M6.5964 14.2796
L7.2155 14.2796
" />
<path d="M7.2155 14.2796
L6.8821 14.6606
" />
<path d="M6.8821 14.6606
L7.0250 14.6606
" />
<path d="M7.0250 14.6606
L7.1202 14.7082
" />
<path d="M7.1202 14.7082
L7.1679 14.7558
" />
<path d="M7.1679 14.7558
L7.2155 14.8510
" />
<path d="M7.2155 14.8510
L7.2155 15.0891
" />
<path d="M7.2155 15.0891
L7.1679 15.1844
" />
<path d="M7.1679 15.1844
L7.1202 15.2320
" />
<path d="M7.1202 15.2320
L7.0250 15.2796
" />
<path d="M7.0250 15.2796
L6.7393 15.2796
" />
<path d="M6.7393 15.2796
L6.6440 15.2320
" />
<path d="M6.6440 15.2320
L6.5964 15.1844
" />
<path d="M7.6440 14.8987
L8.4060 14.8987
" />
<path d="M9.0726 14.2796
L9.1679 14.2796
" />
<path d="M9.1679 14.2796
L9.2631 14.3272
" />
<path d="M9.2631 14.3272
L9.3107 14.3749
" />
<path d="M9.3107 14.3749
L9.3583 14.4701
" />
<path d="M9.3583 14.4701
L9.4060 14.6606
" />
<path d="M9.4060 14.6606
L9.4060 14.8987
" />
<path d="M9.4060 14.8987
L9.3583 15.0891
" />
<path d="M9.3583 15.0891
L9.3107 15.1844
" />
<path d="M9.3107 15.1844
L9.2631 15.2320
" />
<path d="M9.2631 15.2320
L9.1679 15.2796
" />
<path d="M9.1679 15.2796
L9.0726 15.2796
" />
<path d="M9.0726 15.2796
L8.9774 15.2320
" />
<path d="M8.9774 15.2320
L8.9298 15.1844
" />
<path d="M8.9298 15.1844
L8.8821 15.0891
" />
<path d="M8.8821 15.0891
L8.8345 14.8987
" />
<path d="M8.8345 14.8987
L8.8345 14.6606
" />
<path d="M8.8345 14.6606
L8.8821 14.4701
" />
<path d="M8.8821 14.4701
L8.9298 14.3749
" />
<path d="M8.9298 14.3749
L8.9774 14.3272
" />
<path d="M8.9774 14.3272
L9.0726 14.2796
" />
<path d="M9.9774 14.7082
L9.8821 14.6606
" />
<path d="M9.8821 14.6606
L9.8345 14.6130
" />
<path d="M9.8345 14.6130
L9.7869 14.5177
" />
<path d="M9.7869 14.5177
L9.7869 14.4701
" />
<path d="M9.7869 14.4701
L9.8345 14.3749
" />
<path d="M9.8345 14.3749
L9.8821 14.3272
" />
<path d="M9.8821 14.3272
L9.9774 14.2796
" />
<path d="M9.9774 14.2796
L10.1679 14.2796
" />
<path d="M10.1679 14.2796
L10.2631 14.3272
" />
<path d="M10.2631 14.3272
L10.3107 14.3749
" />
<path d="M10.3107 14.3749
L10.3583 14.4701
" />
<path d="M10.3583 14.4701
L10.3583 14.5177
" />
<path d="M10.3583 14.5177
L10.3107 14.6130
" />
<path d="M10.3107 14.6130
L10.2631 14.6606
" />
<path d="M10.2631 14.6606
L10.1679 14.7082
" />
<path d="M10.1679 14.7082
L9.9774 14.7082
" />
<path d="M9.9774 14.7082
L9.8821 14.7558
" />
<path d="M9.8821 14.7558
L9.8345 14.8034
" />
<path d="M9.8345 14.8034
L9.7869 14.8987
" />
<path d="M9.7869 14.8987
L9.7869 15.0891
" />
<path d="M9.7869 15.0891
L9.8345 15.1844
" />
<path d="M9.8345 15.1844
L9.8821 15.2320
" />
<path d="M9.8821 15.2320
L9.9774 15.2796
" />
<path d="M9.9774 15.2796
L10.1679 15.2796
" />
<path d="M10.1679 15.2796
L10.2631 15.2320
" />
<path d="M10.2631 15.2320
L10.3107 15.1844
" />
<path d="M10.3107 15.1844
L10.3583 15.0891
" />
<path d="M10.3583 15.0891
L10.3583 14.8987
" />
<path d="M10.3583 14.8987
L10.3107 14.8034
" />
<path d="M10.3107 14.8034
L10.2631 14.7558
" />
<path d="M10.2631 14.7558
L10.1679 14.7082
" />
</g><g >
</g>
<g style="fill:#37CBCB; fill-opacity:1.0000; 
stroke:#37CBCB; stroke-width:0.0000; stroke-opacity:1; 
stroke-linecap:round; stroke-linejoin:round;">
<circle cx="4.8500" cy="5.6500" r="1.1500" /> 
</g>
<g style="fill:#37CBCB; fill-opacity:1.0000; 
stroke:#37CBCB; stroke-width:0.0212; stroke-opacity:1; 
stroke-linecap:round; stroke-linejoin:round;">
</g>
<g style="fill:#37CBCB; fill-opacity:1.0000; 
stroke:#37CBCB; stroke-width:0.0000; stroke-opacity:1; 
stroke-linecap:round; stroke-linejoin:round;">
<circle cx="4.8500" cy="8.1900" r="1.1500" /> 
</g>
<g style="fill:#37CBCB; fill-opacity:1.0000; 
stroke:#37CBCB; stroke-width:0.0212; stroke-opacity:1; 
stroke-linecap:round; stroke-linejoin:round;">
</g>
<g style="fill:#37CBCB; fill-opacity:1.0000; 
stroke:#37CBCB; stroke-width:0.0000; stroke-opacity:1; 
stroke-linecap:round; stroke-linejoin:round;">
<circle cx="4.8500" cy="10.7300" r="1.1500" /> 
</g>
<g style="fill:#37CBCB; fill-opacity:1.0000; 
stroke:#37CBCB; stroke-width:0.0212; stroke-opacity:1; 
stroke-linecap:round; stroke-linejoin:round;">
</g>
<g >
</g>
<g style="fill:#37CBCB; fill-opacity:1.0000; 
stroke:#37CBCB; stroke-width:0.0212; stroke-opacity:1; 
stroke-linecap:round; stroke-linejoin:round;">
</g>
<g style="fill:#37CBCB; fill-opacity:1.0000; 
stroke:#37CBCB; stroke-width:0.0000; stroke-opacity:1; 
stroke-linecap:round; stroke-linejoin:round;">
<path style="fill:#37CBCB; fill-opacity:1.0000; 
stroke:#37CBCB; stroke-width:0.0000; stroke-opacity:1; 
stroke-linecap:round; stroke-linejoin:round;fill-rule:evenodd;"
d="M 11.5750,7.1250
12.8750,7.1250
12.8750,8.1250
11.5750,8.1250
Z" /> 
<path style="fill:#37CBCB; fill-opacity:1.0000; 
stroke:#37CBCB; stroke-width:0.0000; stroke-opacity:1; 
stroke-linecap:round; stroke-linejoin:round;fill-rule:evenodd;"
d="M 11.5750,8.3950
12.8750,8.3950
12.8750,9.3950
11.5750,9.3950
Z" /> 
<path style="fill:#37CBCB; fill-opacity:1.0000; 
stroke:#37CBCB; stroke-width:0.0000; stroke-opacity:1; 
stroke-linecap:round; stroke-linejoin:round;fill-rule:evenodd;"
d="M 11.5750,9.6650
12.8750,9.6650
12.8750,10.6650
11.5750,10.6650
Z" /> 
</g>
<g >
</g>
<g >
</g>
<g >
</g>
<g style="fill:#121212; fill-opacity:1.0000; 
stroke:#121212; stroke-width:0.0000; stroke-opacity:1; 
stroke-linecap:round; stroke-linejoin:round;">
<circle cx="13.0250" cy="14.0250" r="1.5000" /> 
</g>
<g style="fill:#121212; fill-opacity:1.0000; 
stroke:#121212; stroke-width:0.0212; stroke-opacity:1; 
stroke-linecap:round; stroke-linejoin:round;">
</g>
<g style="fill:#121212; fill-opacity:1.0000; 
stroke:#121212; stroke-width:0.0000; stroke-opacity:1; 
stroke-linecap:round; stroke-linejoin:round;">
<circle cx="2.0250" cy="14.0250" r="1.5000" /> 
</g>
<g style="fill:#121212; fill-opacity:1.0000; 
stroke:#121212; stroke-width:0.0212; stroke-opacity:1; 
stroke-linecap:round; stroke-linejoin:round;">
</g>
<g style="fill:#121212; fill-opacity:1.0000; 
stroke:#121212; stroke-width:0.0000; stroke-opacity:1; 
stroke-linecap:round; stroke-linejoin:round;">
<circle cx="13.0250" cy="2.0250" r="1.5000" /> 
</g>
<g style="fill:#121212; fill-opacity:1.0000; 
stroke:#121212; stroke-width:0.0212; stroke-opacity:1; 
stroke-linecap:round; stroke-linejoin:round;">
</g>
<g style="fill:#121212; fill-opacity:1.0000; 
stroke:#121212; stroke-width:0.0000; stroke-opacity:1; 
stroke-linecap:round; stroke-linejoin:round;">
<circle cx="2.0250" cy="2.0250" r="1.5000" /> 
</g>
<g style="fill:#121212; fill-opacity:1.0000; 
stroke:#121212; stroke-width:0.0212; stroke-opacity:1; 
stroke-linecap:round; stroke-linejoin:round;">
</g>
<g >
</g>
<g >
</g>
</g>
<g style="fill:#000000; fill-opacity:1.0000; 
stroke:#000000; stroke-width:0.0212; stroke-opacity:1; 
stroke-linecap:round; stroke-linejoin:round;">
</g>
<g style="fill:#000000; fill-opacity:1.0000; 
stroke:#000000; stroke-width:0.0000; stroke-opacity:1; 
stroke-linecap:round; stroke-linejoin:round;">
<circle cx="13.0250" cy="14.0250" r="1.2500" /> 
</g>
<g style="fill:#000000; fill-opacity:1.0000; 
stroke:#000000; stroke-width:0.0212; stroke-opacity:1; 
stroke-linecap:round; stroke-linejoin:round;">
</g>
<g style="fill:#000000; fill-opacity:1.0000; 
stroke:#000000; stroke-width:0.0000; stroke-opacity:1; 
stroke-linecap:round; stroke-linejoin:round;">
<circle cx="2.0250" cy="14.0250" r="1.2500" /> 
</g>
<g style="fill:#000000; fill-opacity:1.0000; 
stroke:#000000; stroke-width:0.0212; stroke-opacity:1; 
stroke-linecap:round; stroke-linejoin:round;">
</g>
<g style="fill:#000000; fill-opacity:1.0000; 
stroke:#000000; stroke-width:0.0000; stroke-opacity:1; 
stroke-linecap:round; stroke-linejoin:round;">
<circle cx="13.0250" cy="2.0250" r="1.2500" /> 
</g>
<g style="fill:#000000; fill-opacity:1.0000; 
stroke:#000000; stroke-width:0.0212; stroke-opacity:1; 
stroke-linecap:round; stroke-linejoin:round;">
</g>
<g style="fill:#000000; fill-opacity:1.0000; 
stroke:#000000; stroke-width:0.0000; stroke-opacity:1; 
stroke-linecap:round; stroke-linejoin:round;">
<circle cx="2.0250" cy="2.0250" r="1.2500" /> 
</g>
<g style="fill:#000000; fill-opacity:1.0000; 
stroke:#000000; stroke-width:0.0212; stroke-opacity:1; 
stroke-linecap:round; stroke-linejoin:round;">
</g>
<g style="fill:#000000; fill-opacity:1.0000; 
stroke:#000000; stroke-width:0.0000; stroke-opacity:1; 
stroke-linecap:round; stroke-linejoin:round;">
<circle cx="4.8500" cy="5.6500" r="0.5000" /> 
</g>
<g style="fill:#000000; fill-opacity:1.0000; 
stroke:#000000; stroke-width:0.0212; stroke-opacity:1; 
stroke-linecap:round; stroke-linejoin:round;">
</g>
<g style="fill:#000000; fill-opacity:1.0000; 
stroke:#000000; stroke-width:0.0000; stroke-opacity:1; 
stroke-linecap:round; stroke-linejoin:round;">
<circle cx="4.8500" cy="8.1900" r="0.5000" /> 
</g>
<g style="fill:#000000; fill-opacity:1.0000; 
stroke:#000000; stroke-width:0.0212; stroke-opacity:1; 
stroke-linecap:round; stroke-linejoin:round;">
</g>
<g style="fill:#000000; fill-opacity:1.0000; 
stroke:#000000; stroke-width:0.0000; stroke-opacity:1; 
stroke-linecap:round; stroke-linejoin:round;">
<circle cx="4.8500" cy="10.7300" r="0.5000" /> 
</g>
<g style="fill:#000000; fill-opacity:1.0000; 
stroke:#000000; stroke-width:0.0212; stroke-opacity:1; 
stroke-linecap:round; stroke-linejoin:round;">
</g>
<g style="fill:#000000; fill-opacity:1.0000; 
stroke:#000000; stroke-width:0.0000; stroke-opacity:1; 
stroke-linecap:round; stroke-linejoin:round;">
<circle cx="12.2250" cy="7.6250" r="0.3000" /> 
</g>
<g style="fill:#000000; fill-opacity:1.0000; 
stroke:#000000; stroke-width:0.0212; stroke-opacity:1; 
stroke-linecap:round; stroke-linejoin:round;">
</g>
<g style="fill:#000000; fill-opacity:1.0000; 
stroke:#000000; stroke-width:0.0000; stroke-opacity:1; 
stroke-linecap:round; stroke-linejoin:round;">
<circle cx="12.2250" cy="8.8950" r="0.3000" /> 
</g>
<g style="fill:#000000; fill-opacity:1.0000; 
stroke:#000000; stroke-width:0.0212; stroke-opacity:1; 
stroke-linecap:round; stroke-linejoin:round;">
</g>
<g style="fill:#000000; fill-opacity:1.0000; 
stroke:#000000; stroke-width:0.0000; stroke-opacity:1; 
stroke-linecap:round; stroke-linejoin:round;">
<circle cx="12.2250" cy="10.1650" r="0.3000" /> 
</g>
<g style="fill:#000000; fill-opacity:1.0000; 
stroke:#000000; stroke-width:0.0212; stroke-opacity:1; 
stroke-linecap:round; stroke-linejoin:round;">
</g>
<g style="fill:#FFFFFF; fill-opacity:1.0000; 
stroke:#FFFFFF; stroke-width:0.0212; stroke-opacity:1; 
stroke-linecap:round; stroke-linejoin:round;">
</g>
<g style="fill:#2F2D31; fill-opacity:1.0000; 
stroke:#2F2D31; stroke-width:0.0212; stroke-opacity:1; 
stroke-linecap:round; stroke-linejoin:round;">
</g>
<g style="fill:#2F2D31; fill-opacity:1.0000; 
stroke:#2F2D31; stroke-width:0.0500; stroke-opacity:1; 
stroke-linecap:round; stroke-linejoin:round;">
</g>
<g style="fill:#2F2D31; fill-opacity:0.0; 
stroke:#2F2D31; stroke-width:0.0500; stroke-opacity:1; 
stroke-linecap:round; stroke-linejoin:round;">
<path d="M0.0250 16.0250
L0.0250 0.0250
" />
<path d="M0.0250 0.0250
L15.0250 0.0250
" />
<path d="M15.0250 0.0250
L15.0250 16.0250
" />
<path d="M15.0250 16.0250
L0.0250 16.0250
" />
<g >
</g>
<g >
</g>
<g >
</g>
<g >
</g>
<g >
</g>
<g >
</g>
<g >
</g>
</g> 
</svg>
