<?xml version="1.0" standalone="no"?>
 <!DOCTYPE svg PUBLIC "-//W3C//DTD SVG 1.1//EN" 
 "http://www.w3.org/Graphics/SVG/1.1/DTD/svg11.dtd"> 
<svg
  xmlns:svg="http://www.w3.org/2000/svg"
  xmlns="http://www.w3.org/2000/svg"
  xmlns:xlink="http://www.w3.org/1999/xlink"
  version="1.1"
  width="31.9532mm" height="14.6558mm" viewBox="0.0000 0.0000 31.9532 14.6558">
<title>SVG Image created as working-brd.svg date 2023/09/29 21:51:33 </title>
  <desc>Image generated by PCBNEW </desc>
<g style="fill:#000000; fill-opacity:1.0000;stroke:#000000; stroke-opacity:1.0000;
stroke-linecap:round; stroke-linejoin:round;"
 transform="translate(0 0) scale(1 1)">
</g>
<g style="fill:#000000; fill-opacity:0.0; 
stroke:#000000; stroke-width:0.0000; stroke-opacity:1; 
stroke-linecap:round; stroke-linejoin:round;">
</g>
<g style="fill:#000000; fill-opacity:1.0000; 
stroke:#000000; stroke-width:0.0212; stroke-opacity:1; 
stroke-linecap:round; stroke-linejoin:round;">
<rect x="-5.000000" y="-5.000000" width="41.964286" height="24.676500" rx="0.000000" />
</g>
<g style="fill:#FFFFFF; fill-opacity:1.0000; 
stroke:#FFFFFF; stroke-width:0.0212; stroke-opacity:1; 
stroke-linecap:round; stroke-linejoin:round;">
<g >
</g>
<g >
</g>
<g >
</g>
<g >
</g>
<g >
</g>
<g >
</g>
<g >
</g>
<g >
</g>
<g >
</g>
<g style="fill:#B2803A; fill-opacity:1.0000; 
stroke:#B2803A; stroke-width:0.0212; stroke-opacity:1; 
stroke-linecap:round; stroke-linejoin:round;">
</g>
<g style="fill:#B2803A; fill-opacity:1.0000; 
stroke:#B2803A; stroke-width:0.0000; stroke-opacity:1; 
stroke-linecap:round; stroke-linejoin:round;">
<path style="fill:#B2803A; fill-opacity:1.0000; 
stroke:#B2803A; stroke-width:0.0000; stroke-opacity:1; 
stroke-linecap:round; stroke-linejoin:round;fill-rule:evenodd;"
d="M 14.5571,12.1857
14.5733,12.1044
14.6194,12.0355
14.6883,11.9894
14.7696,11.9733
15.5696,11.9733
15.6510,11.9894
15.7199,12.0355
15.7660,12.1044
15.7821,12.1857
15.7821,12.6107
15.7660,12.6921
15.7199,12.7610
15.6510,12.8071
15.5696,12.8232
14.7696,12.8232
14.6883,12.8071
14.6194,12.7610
14.5733,12.6921
14.5571,12.6107
Z" /> 
<path style="fill:#B2803A; fill-opacity:1.0000; 
stroke:#B2803A; stroke-width:0.0000; stroke-opacity:1; 
stroke-linecap:round; stroke-linejoin:round;fill-rule:evenodd;"
d="M 16.1821,12.1857
16.1983,12.1044
16.2444,12.0355
16.3133,11.9894
16.3946,11.9733
17.1946,11.9733
17.2760,11.9894
17.3449,12.0355
17.3910,12.1044
17.4071,12.1857
17.4071,12.6107
17.3910,12.6921
17.3449,12.7610
17.2760,12.8071
17.1946,12.8232
16.3946,12.8232
16.3133,12.8071
16.2444,12.7610
16.1983,12.6921
16.1821,12.6107
Z" /> 
</g>
<g >
</g>
<g style="fill:#B2803A; fill-opacity:1.0000; 
stroke:#B2803A; stroke-width:0.0000; stroke-opacity:1; 
stroke-linecap:round; stroke-linejoin:round;">
<path style="fill:#B2803A; fill-opacity:1.0000; 
stroke:#B2803A; stroke-width:0.0000; stroke-opacity:1; 
stroke-linecap:round; stroke-linejoin:round;fill-rule:evenodd;"
d="M 13.0821,6.4482
13.0974,6.3717
13.1407,6.3068
13.2056,6.2635
13.2821,6.2482
13.6821,6.2482
13.7587,6.2635
13.8236,6.3068
13.8669,6.3717
13.8821,6.4482
13.8821,7.6482
13.8669,7.7248
13.8236,7.7897
13.7587,7.8330
13.6821,7.8482
13.2821,7.8482
13.2056,7.8330
13.1407,7.7897
13.0974,7.7248
13.0821,7.6482
Z" /> 
<path style="fill:#B2803A; fill-opacity:1.0000; 
stroke:#B2803A; stroke-width:0.0000; stroke-opacity:1; 
stroke-linecap:round; stroke-linejoin:round;fill-rule:evenodd;"
d="M 14.3321,6.4482
14.3474,6.3717
14.3907,6.3068
14.4556,6.2635
14.5321,6.2482
14.9321,6.2482
15.0087,6.2635
15.0736,6.3068
15.1169,6.3717
15.1321,6.4482
15.1321,7.6482
15.1169,7.7248
15.0736,7.7897
15.0087,7.8330
14.9321,7.8482
14.5321,7.8482
14.4556,7.8330
14.3907,7.7897
14.3474,7.7248
14.3321,7.6482
Z" /> 
<path style="fill:#B2803A; fill-opacity:1.0000; 
stroke:#B2803A; stroke-width:0.0000; stroke-opacity:1; 
stroke-linecap:round; stroke-linejoin:round;fill-rule:evenodd;"
d="M 15.5821,6.4482
15.5974,6.3717
15.6407,6.3068
15.7056,6.2635
15.7821,6.2482
16.1821,6.2482
16.2587,6.2635
16.3236,6.3068
16.3669,6.3717
16.3821,6.4482
16.3821,7.6482
16.3669,7.7248
16.3236,7.7897
16.2587,7.8330
16.1821,7.8482
15.7821,7.8482
15.7056,7.8330
15.6407,7.7897
15.5974,7.7248
15.5821,7.6482
Z" /> 
<path style="fill:#B2803A; fill-opacity:1.0000; 
stroke:#B2803A; stroke-width:0.0000; stroke-opacity:1; 
stroke-linecap:round; stroke-linejoin:round;fill-rule:evenodd;"
d="M 16.8321,6.4482
16.8474,6.3717
16.8907,6.3068
16.9556,6.2635
17.0321,6.2482
17.4321,6.2482
17.5087,6.2635
17.5736,6.3068
17.6169,6.3717
17.6321,6.4482
17.6321,7.6482
17.6169,7.7248
17.5736,7.7897
17.5087,7.8330
17.4321,7.8482
17.0321,7.8482
16.9556,7.8330
16.8907,7.7897
16.8474,7.7248
16.8321,7.6482
Z" /> 
<path style="fill:#B2803A; fill-opacity:1.0000; 
stroke:#B2803A; stroke-width:0.0000; stroke-opacity:1; 
stroke-linecap:round; stroke-linejoin:round;fill-rule:evenodd;"
d="M 18.0821,6.4482
18.0974,6.3717
18.1407,6.3068
18.2056,6.2635
18.2821,6.2482
18.6821,6.2482
18.7587,6.2635
18.8236,6.3068
18.8669,6.3717
18.8821,6.4482
18.8821,7.6482
18.8669,7.7248
18.8236,7.7897
18.7587,7.8330
18.6821,7.8482
18.2821,7.8482
18.2056,7.8330
18.1407,7.7897
18.0974,7.7248
18.0821,7.6482
Z" /> 
<path style="fill:#B2803A; fill-opacity:1.0000; 
stroke:#B2803A; stroke-width:0.0000; stroke-opacity:1; 
stroke-linecap:round; stroke-linejoin:round;fill-rule:evenodd;"
d="M 9.8821,2.8983
9.9012,2.8026
9.9554,2.7215
10.0365,2.6673
10.1321,2.6483
11.7321,2.6482
11.8278,2.6673
11.9089,2.7215
11.9631,2.8026
11.9821,2.8983
11.9821,5.3982
11.9631,5.4939
11.9089,5.5750
11.8278,5.6292
11.7321,5.6482
10.1321,5.6482
10.0365,5.6292
9.9554,5.5750
9.9012,5.4939
9.8821,5.3982
Z" /> 
<path style="fill:#B2803A; fill-opacity:1.0000; 
stroke:#B2803A; stroke-width:0.0000; stroke-opacity:1; 
stroke-linecap:round; stroke-linejoin:round;fill-rule:evenodd;"
d="M 19.9821,2.8983
20.0012,2.8026
20.0554,2.7215
20.1365,2.6673
20.2321,2.6483
21.8321,2.6482
21.9278,2.6673
22.0089,2.7215
22.0631,2.8026
22.0821,2.8983
22.0821,5.3982
22.0631,5.4939
22.0089,5.5750
21.9278,5.6292
21.8321,5.6482
20.2321,5.6482
20.1365,5.6292
20.0554,5.5750
20.0012,5.4939
19.9821,5.3982
Z" /> 
</g>
<g >
</g>
<g style="fill:#B2803A; fill-opacity:1.0000; 
stroke:#B2803A; stroke-width:0.0000; stroke-opacity:1; 
stroke-linecap:round; stroke-linejoin:round;">
<path style="fill:#B2803A; fill-opacity:1.0000; 
stroke:#B2803A; stroke-width:0.0000; stroke-opacity:1; 
stroke-linecap:round; stroke-linejoin:round;fill-rule:evenodd;"
d="M 13.3821,12.6357
13.3641,12.7266
13.3126,12.8037
13.2355,12.8552
13.1446,12.8732
12.6446,12.8732
12.5538,12.8552
12.4767,12.8037
12.4252,12.7266
12.4071,12.6357
12.4071,12.1608
12.4252,12.0699
12.4767,11.9928
12.5538,11.9413
12.6446,11.9232
13.1446,11.9232
13.2355,11.9413
13.3126,11.9928
13.3641,12.0699
13.3821,12.1608
Z" /> 
<path style="fill:#B2803A; fill-opacity:1.0000; 
stroke:#B2803A; stroke-width:0.0000; stroke-opacity:1; 
stroke-linecap:round; stroke-linejoin:round;fill-rule:evenodd;"
d="M 11.5571,12.6357
11.5391,12.7266
11.4876,12.8037
11.4105,12.8552
11.3196,12.8732
10.8196,12.8732
10.7288,12.8552
10.6517,12.8037
10.6002,12.7266
10.5821,12.6357
10.5821,12.1608
10.6002,12.0699
10.6517,11.9928
10.7288,11.9413
10.8196,11.9232
11.3196,11.9232
11.4105,11.9413
11.4876,11.9928
11.5391,12.0699
11.5571,12.1608
Z" /> 
</g>
<g >
</g>
<g style="fill:#B2803A; fill-opacity:1.0000; 
stroke:#B2803A; stroke-width:0.0000; stroke-opacity:1; 
stroke-linecap:round; stroke-linejoin:round;">
<path style="fill:#B2803A; fill-opacity:1.0000; 
stroke:#B2803A; stroke-width:0.0000; stroke-opacity:1; 
stroke-linecap:round; stroke-linejoin:round;fill-rule:evenodd;"
d="M 14.4821,9.7107
14.5002,9.6199
14.5517,9.5428
14.6288,9.4913
14.7196,9.4733
15.2196,9.4733
15.3105,9.4913
15.3876,9.5428
15.4391,9.6199
15.4571,9.7107
15.4571,10.1857
15.4391,10.2766
15.3876,10.3537
15.3105,10.4052
15.2196,10.4232
14.7196,10.4232
14.6288,10.4052
14.5517,10.3537
14.5002,10.2766
14.4821,10.1857
Z" /> 
<path style="fill:#B2803A; fill-opacity:1.0000; 
stroke:#B2803A; stroke-width:0.0000; stroke-opacity:1; 
stroke-linecap:round; stroke-linejoin:round;fill-rule:evenodd;"
d="M 16.3071,9.7107
16.3252,9.6199
16.3767,9.5428
16.4538,9.4913
16.5446,9.4733
17.0446,9.4733
17.1355,9.4913
17.2126,9.5428
17.2641,9.6199
17.2821,9.7107
17.2821,10.1857
17.2641,10.2766
17.2126,10.3537
17.1355,10.4052
17.0446,10.4232
16.5446,10.4232
16.4538,10.4052
16.3767,10.3537
16.3252,10.2766
16.3071,10.1857
Z" /> 
</g>
<g >
</g>
<g style="fill:#121212; fill-opacity:1.0000; 
stroke:#121212; stroke-width:0.0000; stroke-opacity:1; 
stroke-linecap:round; stroke-linejoin:round;">
<circle cx="9.9321" cy="10.5482" r="0.2500" /> 
</g>
<g style="fill:#121212; fill-opacity:1.0000; 
stroke:#121212; stroke-width:0.0212; stroke-opacity:1; 
stroke-linecap:round; stroke-linejoin:round;">
</g>
<g style="fill:#121212; fill-opacity:1.0000; 
stroke:#121212; stroke-width:0.0000; stroke-opacity:1; 
stroke-linecap:round; stroke-linejoin:round;">
<circle cx="18.5180" cy="5.5482" r="0.2500" /> 
</g>
<g style="fill:#121212; fill-opacity:1.0000; 
stroke:#121212; stroke-width:0.0212; stroke-opacity:1; 
stroke-linecap:round; stroke-linejoin:round;">
</g>
<g style="fill:#121212; fill-opacity:1.0000; 
stroke:#121212; stroke-width:0.0000; stroke-opacity:1; 
stroke-linecap:round; stroke-linejoin:round;">
<circle cx="16.9821" cy="4.6482" r="0.2500" /> 
</g>
<g style="fill:#121212; fill-opacity:1.0000; 
stroke:#121212; stroke-width:0.0212; stroke-opacity:1; 
stroke-linecap:round; stroke-linejoin:round;">
</g>
<g style="fill:#121212; fill-opacity:1.0000; 
stroke:#121212; stroke-width:0.0000; stroke-opacity:1; 
stroke-linecap:round; stroke-linejoin:round;">
<circle cx="18.6821" cy="3.1482" r="0.2500" /> 
</g>
<g style="fill:#121212; fill-opacity:1.0000; 
stroke:#121212; stroke-width:0.0212; stroke-opacity:1; 
stroke-linecap:round; stroke-linejoin:round;">
</g>
<g style="fill:#121212; fill-opacity:1.0000; 
stroke:#121212; stroke-width:0.0000; stroke-opacity:1; 
stroke-linecap:round; stroke-linejoin:round;">
<circle cx="11.3821" cy="9.6482" r="0.2500" /> 
</g>
<g style="fill:#121212; fill-opacity:1.0000; 
stroke:#121212; stroke-width:0.0212; stroke-opacity:1; 
stroke-linecap:round; stroke-linejoin:round;">
</g>
<g style="fill:#121212; fill-opacity:1.0000; 
stroke:#121212; stroke-width:0.0000; stroke-opacity:1; 
stroke-linecap:round; stroke-linejoin:round;">
<circle cx="20.4821" cy="9.9482" r="0.2500" /> 
</g>
<g style="fill:#121212; fill-opacity:1.0000; 
stroke:#121212; stroke-width:0.0212; stroke-opacity:1; 
stroke-linecap:round; stroke-linejoin:round;">
</g>
<g style="fill:#121212; fill-opacity:1.0000; 
stroke:#121212; stroke-width:0.0000; stroke-opacity:1; 
stroke-linecap:round; stroke-linejoin:round;">
<circle cx="14.6821" cy="3.1482" r="0.2500" /> 
</g>
<g style="fill:#121212; fill-opacity:1.0000; 
stroke:#121212; stroke-width:0.0212; stroke-opacity:1; 
stroke-linecap:round; stroke-linejoin:round;">
</g>
<g style="fill:#121212; fill-opacity:1.0000; 
stroke:#121212; stroke-width:0.0000; stroke-opacity:1; 
stroke-linecap:round; stroke-linejoin:round;">
<circle cx="12.7572" cy="7.9482" r="0.2500" /> 
</g>
<g style="fill:#121212; fill-opacity:1.0000; 
stroke:#121212; stroke-width:0.0212; stroke-opacity:1; 
stroke-linecap:round; stroke-linejoin:round;">
</g>
<g style="fill:#121212; fill-opacity:1.0000; 
stroke:#121212; stroke-width:0.0000; stroke-opacity:1; 
stroke-linecap:round; stroke-linejoin:round;">
<circle cx="12.7572" cy="8.9482" r="0.2500" /> 
</g>
<g style="fill:#121212; fill-opacity:1.0000; 
stroke:#121212; stroke-width:0.0212; stroke-opacity:1; 
stroke-linecap:round; stroke-linejoin:round;">
</g>
<g style="fill:#121212; fill-opacity:1.0000; 
stroke:#121212; stroke-width:0.0000; stroke-opacity:1; 
stroke-linecap:round; stroke-linejoin:round;">
<circle cx="13.2321" cy="9.9982" r="0.2500" /> 
</g>
<g style="fill:#121212; fill-opacity:1.0000; 
stroke:#121212; stroke-width:0.0212; stroke-opacity:1; 
stroke-linecap:round; stroke-linejoin:round;">
</g>
<g >
</g>
<g style="fill:#B2803A; fill-opacity:1.0000; 
stroke:#B2803A; stroke-width:0.0212; stroke-opacity:1; 
stroke-linecap:round; stroke-linejoin:round;">
</g>
<g style="fill:#B2803A; fill-opacity:1.0000; 
stroke:#B2803A; stroke-width:0.3000; stroke-opacity:1; 
stroke-linecap:round; stroke-linejoin:round;">
</g>
<g style="fill:#B2803A; fill-opacity:0.0; 
stroke:#B2803A; stroke-width:0.3000; stroke-opacity:1; 
stroke-linecap:round; stroke-linejoin:round;">
<path d="M17.6180 4.6482
L16.9821 4.6482
" />
<path d="M18.5180 7.0124
L18.4821 7.0482
" />
</g>
<g style="fill:#B2803A; fill-opacity:0.0; 
stroke:#B2803A; stroke-width:0.1500; stroke-opacity:1; 
stroke-linecap:round; stroke-linejoin:round;">
<path d="M9.9321 11.9982
L9.9321 10.5482
" />
</g>
<g style="fill:#B2803A; fill-opacity:0.0; 
stroke:#B2803A; stroke-width:0.3000; stroke-opacity:1; 
stroke-linecap:round; stroke-linejoin:round;">
<path d="M18.5180 5.5482
L17.7680 4.7982
" />
<path d="M17.7680 4.7982
L17.6180 4.6482
" />
</g>
<g style="fill:#B2803A; fill-opacity:0.0; 
stroke:#B2803A; stroke-width:0.1500; stroke-opacity:1; 
stroke-linecap:round; stroke-linejoin:round;">
<path d="M11.0696 12.3982
L10.3321 12.3982
" />
</g>
<g style="fill:#B2803A; fill-opacity:0.0; 
stroke:#B2803A; stroke-width:0.3000; stroke-opacity:1; 
stroke-linecap:round; stroke-linejoin:round;">
<path d="M18.5180 5.5482
L18.5180 7.0124
" />
</g>
<g style="fill:#B2803A; fill-opacity:0.0; 
stroke:#B2803A; stroke-width:0.1500; stroke-opacity:1; 
stroke-linecap:round; stroke-linejoin:round;">
<path d="M10.3321 12.3982
L9.9321 11.9982
" />
<path d="M16.7946 12.3982
L17.6321 12.3982
" />
<path d="M17.2321 8.1982
L17.2321 7.0482
" />
<path d="M17.6321 12.3982
L18.0821 11.9482
" />
<path d="M18.0821 9.0482
L17.2321 8.1982
" />
<path d="M18.0821 11.9482
L18.0821 9.0482
" />
<path d="M15.1696 12.3982
L12.8946 12.3982
" />
<path d="M12.7572 7.7732
L12.7572 7.9482
" />
<path d="M12.8321 7.0482
L12.7572 7.1232
" />
<path d="M12.7572 7.1232
L12.7572 7.9482
" />
<path d="M13.4821 7.0482
L12.8321 7.0482
" />
<path d="M14.7321 7.0482
L14.7321 8.6982
" />
<path d="M14.7321 8.6982
L14.4821 8.9482
" />
<path d="M14.4821 8.9482
L12.7572 8.9482
" />
<path d="M14.9196 9.9982
L14.9696 9.9482
" />
<path d="M13.2321 9.9982
L14.9196 9.9982
" />
<path d="M15.9821 8.3483
L15.9821 7.0482
" />
<path d="M16.7946 9.9482
L16.7946 9.1608
" />
<path d="M16.7946 9.1608
L15.9821 8.3483
" />
</g>
<g >
</g>
<g style="fill:#B2803A; fill-opacity:0.0; 
stroke:#B2803A; stroke-width:0.1500; stroke-opacity:1; 
stroke-linecap:round; stroke-linejoin:round;">
<g >
</g>
<g style="fill:#B2803A; fill-opacity:1.0000; 
stroke:#B2803A; stroke-width:0.0000; stroke-opacity:1; 
stroke-linecap:round; stroke-linejoin:round;">
<path style="fill:#B2803A; fill-opacity:1.0000; 
stroke:#B2803A; stroke-width:0.0000; stroke-opacity:1; 
stroke-linecap:round; stroke-linejoin:round;fill-rule:evenodd;"
d="M 19.7031,2.1927
19.7391,2.2422
19.7391,2.3033
19.7150,2.3428
19.6331,2.4246
19.6331,2.4246
19.6331,2.4246
19.5400,2.5755
19.4843,2.7438
19.4736,2.8477
19.4736,5.4488
19.4843,5.5527
19.5400,5.7210
19.5566,5.7479
19.6331,5.8719
19.7585,5.9973
19.8444,6.0502
19.9094,6.0904
19.9094,6.0904
19.9094,6.0904
20.0777,6.1461
20.0985,6.1483
20.1816,6.1567
20.1816,6.1567
21.8827,6.1567
21.9582,6.1490
21.9866,6.1461
22.1549,6.0904
22.3057,5.9974
22.3651,5.9829
22.4217,6.0061
22.4538,6.0582
22.4566,6.0816
22.4566,6.2041
22.4377,6.2623
22.3882,6.2983
22.3663,6.3027
22.2467,6.3132
22.0185,6.3743
21.8043,6.4742
21.8043,6.4742
21.6107,6.6098
21.4436,6.7769
21.3081,6.9704
21.2082,7.1846
21.1471,7.4128
21.1265,7.6482
21.1265,7.6483
21.1471,7.8836
21.1471,7.8837
21.1471,7.8837
21.1644,7.9482
21.2082,8.1119
21.3081,8.3261
21.3081,8.3261
21.3937,8.4482
21.4436,8.5197
21.6107,8.6867
21.8043,8.8223
21.8043,8.8223
21.8043,8.8223
21.8043,8.8223
21.9573,8.8936
22.0068,8.9167
22.0185,8.9222
22.0185,8.9222
22.2467,8.9833
22.2467,8.9833
22.2467,8.9833
22.3663,8.9938
22.4226,9.0177
22.4541,9.0701
22.4566,9.0924
22.4566,12.6450
22.4562,12.6515
22.4422,12.7581
22.4355,12.7831
22.3981,12.8735
22.3851,12.8958
22.3256,12.9734
22.3073,12.9917
22.2297,13.0512
22.2073,13.0642
22.1170,13.1016
22.0920,13.1083
21.9854,13.1223
21.9789,13.1227
17.9028,13.1227
17.8446,13.1038
17.8086,13.0543
17.8086,12.9932
17.8185,12.9718
17.8521,12.9173
17.8521,12.9173
17.9051,12.7574
17.9051,12.7574
17.9151,12.6588
17.9151,12.5033
17.9151,12.5032
16.7886,12.5032
16.7305,12.4843
16.6945,12.4348
16.6896,12.4042
16.6896,12.2932
16.8996,12.2932
16.8996,12.2932
17.9151,12.2932
17.9151,12.2932
17.9151,12.1377
17.9051,12.0391
17.9051,12.0391
17.8521,11.8792
17.8521,11.8792
17.7637,11.7358
17.6446,11.6167
17.5012,11.5283
17.5012,11.5283
17.3413,11.4753
17.3413,11.4753
17.2427,11.4652
16.8996,11.4652
16.8996,11.4653
16.8996,12.2932
16.6896,12.2932
16.6896,11.4653
16.6896,11.4652
16.3466,11.4652
16.2480,11.4753
16.2479,11.4753
16.0881,11.5283
16.0881,11.5283
16.0346,11.5613
15.9751,11.5758
15.9306,11.5613
15.8764,11.5279
15.8764,11.5279
15.8764,11.5279
15.7164,11.4748
15.7164,11.4748
15.7164,11.4748
15.6177,11.4647
15.6177,11.4647
14.7216,11.4647
14.7216,11.4647
14.6229,11.4748
14.4629,11.5279
14.3194,11.6163
14.2002,11.7355
14.1804,11.7677
14.1337,11.8073
14.0961,11.8148
13.8630,11.8148
13.8048,11.7958
13.7787,11.7677
13.7471,11.7164
13.7338,11.6949
13.6105,11.5716
13.5396,11.5279
13.4621,11.4800
13.2965,11.4252
13.1944,11.4147
12.5949,11.4147
12.4928,11.4252
12.4928,11.4252
12.3272,11.4800
12.1788,11.5716
12.1788,11.5716
12.1788,11.5716
12.1788,11.5716
12.0555,11.6949
12.0555,11.6949
12.0521,11.6982
11.9976,11.7260
11.9372,11.7164
11.9121,11.6982
11.9088,11.6949
11.9088,11.6949
11.7855,11.5716
11.7146,11.5279
11.6371,11.4800
11.4715,11.4252
11.3694,11.4147
10.7699,11.4147
10.6678,11.4252
10.6678,11.4252
10.6458,11.4325
10.5846,11.4328
10.5349,11.3972
10.5156,11.3391
10.5156,11.3385
10.5156,11.3385
10.5156,11.0738
10.5308,11.0211
10.6199,10.8794
10.6763,10.7181
10.6954,10.5482
10.6763,10.3784
10.6199,10.2171
10.5289,10.0723
10.4081,9.9515
10.4080,9.9515
10.4080,9.9515
10.2633,9.8605
10.1020,9.8041
10.1020,9.8041
9.9321,9.7850
9.7623,9.8041
9.7623,9.8041
9.6393,9.8471
9.5782,9.8485
9.5279,9.8136
9.5077,9.7559
9.5076,9.7537
9.5076,9.0924
9.5266,9.0342
9.5761,8.9982
9.5980,8.9938
9.7175,8.9833
9.7175,8.9833
9.7176,8.9833
9.8484,8.9482
11.9939,8.9482
12.0130,9.1181
12.0130,9.1181
12.0695,9.2794
12.0695,9.2794
12.1604,9.4242
12.1604,9.4242
12.2813,9.5450
12.2813,9.5450
12.2813,9.5450
12.3536,9.5905
12.4260,9.6360
12.4478,9.6436
12.4964,9.6806
12.5140,9.7392
12.5085,9.7697
12.4880,9.8284
12.4880,9.8284
12.4688,9.9982
12.4880,10.1681
12.4880,10.1681
12.5444,10.3294
12.5444,10.3294
12.5752,10.3784
12.6354,10.4742
12.7562,10.5950
12.7562,10.5950
12.7562,10.5950
12.8463,10.6516
12.9010,10.6860
12.9656,10.7086
13.0623,10.7424
13.0623,10.7424
13.0623,10.7424
13.2321,10.7615
13.4020,10.7424
13.5633,10.6860
13.6523,10.6300
13.7050,10.5969
13.7577,10.5817
14.0321,10.5817
14.0903,10.6007
14.1164,10.6288
14.1305,10.6516
14.2538,10.7749
14.3382,10.8270
14.4022,10.8665
14.4022,10.8665
14.4022,10.8665
14.5678,10.9213
14.6699,10.9317
15.2694,10.9317
15.2694,10.9317
15.3715,10.9213
15.3715,10.9213
15.3715,10.9213
15.5371,10.8665
15.6855,10.7749
15.8088,10.6516
15.8088,10.6516
15.8121,10.6483
15.8667,10.6205
15.9271,10.6300
15.9521,10.6483
15.9555,10.6516
15.9555,10.6516
16.0788,10.7749
16.1864,10.8413
16.2272,10.8665
16.2272,10.8665
16.2272,10.8665
16.3928,10.9213
16.4949,10.9317
17.0944,10.9317
17.0944,10.9317
17.1965,10.9213
17.1965,10.9213
17.1965,10.9213
17.3621,10.8665
17.5105,10.7749
17.6338,10.6516
17.7254,10.5032
17.7802,10.3376
17.7906,10.2355
17.7906,9.6610
17.7906,9.6610
17.7802,9.5589
17.7802,9.5589
17.7802,9.5589
17.7254,9.3933
17.7071,9.3638
17.7002,9.3526
17.6338,9.2449
17.5105,9.1216
17.4028,9.0551
17.3633,9.0088
17.3487,8.9735
17.3043,8.8665
17.2343,8.7752
17.2343,8.7752
17.2108,8.7446
17.2108,8.7446
17.1828,8.7231
17.1779,8.7188
16.9843,8.5253
16.9566,8.4707
16.9661,8.4103
17.0094,8.3670
17.0543,8.3562
17.1271,8.3562
17.1271,5.7403
17.1271,5.7402
16.9749,5.7402
16.9749,5.7403
16.9036,5.7467
16.9036,5.7467
16.7394,5.7979
16.7394,5.7979
16.6588,5.8466
16.5993,5.8605
16.5564,5.8466
16.4751,5.7974
16.4101,5.7772
16.3108,5.7462
16.2524,5.7409
16.2394,5.7397
16.2394,5.7397
15.7249,5.7397
15.7249,5.7398
15.6535,5.7462
15.4892,5.7974
15.4892,5.7974
15.4084,5.8463
15.3488,5.8602
15.3059,5.8463
15.2251,5.7974
15.1601,5.7772
15.0608,5.7462
15.0024,5.7409
14.9894,5.7397
14.9894,5.7397
14.4749,5.7397
14.4749,5.7398
14.4035,5.7462
14.2392,5.7974
14.2392,5.7974
14.1584,5.8463
14.0988,5.8602
14.0559,5.8463
13.9751,5.7974
13.9101,5.7772
13.8108,5.7462
13.7524,5.7409
13.7394,5.7397
13.7394,5.7397
13.2249,5.7397
13.2249,5.7398
13.1535,5.7462
12.9892,5.7974
12.9892,5.7974
12.8420,5.8864
12.7203,6.0081
12.6313,6.1553
12.6313,6.1553
12.5801,6.3196
12.5736,6.3910
12.5736,6.3910
12.5736,6.4623
12.5547,6.5205
12.5349,6.5408
12.5168,6.5547
12.4160,6.6321
12.4160,6.6321
12.3945,6.6601
12.3902,6.6650
12.3739,6.6813
12.3690,6.6856
12.3410,6.7071
12.3410,6.7071
12.3175,6.7377
12.2475,6.8290
12.1887,6.9709
12.1686,7.1232
12.1686,7.1232
12.1732,7.1582
12.1737,7.1647
12.1737,7.4227
12.1585,7.4754
12.0695,7.6171
12.0695,7.6171
12.0130,7.7784
12.0130,7.7784
11.9939,7.9482
12.0130,8.1181
12.0130,8.1181
12.0695,8.2794
12.0695,8.2794
12.1424,8.3956
12.1574,8.4549
12.1424,8.5009
12.0695,8.6171
12.0695,8.6171
12.0130,8.7784
12.0130,8.7784
11.9939,8.9482
9.8484,8.9482
9.9458,8.9222
10.1600,8.8223
10.3535,8.6867
10.5206,8.5197
10.6562,8.3261
10.7560,8.1119
10.8172,7.8837
10.8264,7.7784
10.8378,7.6483
10.8378,7.6482
10.8172,7.4128
10.8172,7.4128
10.8172,7.4128
10.7560,7.1846
10.7560,7.1846
10.6562,6.9704
10.6562,6.9704
10.5206,6.7769
10.5206,6.7769
10.5206,6.7768
10.3535,6.6098
10.3535,6.6098
10.3535,6.6098
10.1600,6.4742
10.1600,6.4742
9.9458,6.3743
9.9458,6.3743
9.7415,6.3196
9.7176,6.3132
9.7175,6.3132
9.7175,6.3132
9.5980,6.3027
9.5417,6.2788
9.5102,6.2264
9.5076,6.2041
9.5076,6.0816
9.5266,6.0234
9.5761,5.9875
9.6372,5.9875
9.6586,5.9974
9.7354,6.0447
9.8094,6.0904
9.8094,6.0904
9.8094,6.0904
9.9777,6.1461
9.9985,6.1483
10.0816,6.1567
10.0816,6.1567
11.7827,6.1567
11.8582,6.1490
11.8866,6.1461
12.0549,6.0904
12.2058,5.9973
12.3312,5.8719
12.4243,5.7210
12.4800,5.5527
12.4906,5.4488
12.4906,4.6482
16.2188,4.6482
16.2380,4.8181
16.2380,4.8181
16.2944,4.9794
16.2944,4.9794
16.3528,5.0723
16.3854,5.1242
16.5062,5.2450
16.5062,5.2450
16.5062,5.2450
16.6134,5.3124
16.6510,5.3360
16.7156,5.3586
16.8123,5.3924
16.8123,5.3924
16.8123,5.3924
16.9821,5.4115
17.1520,5.3924
17.1920,5.3784
17.2999,5.3407
17.3611,5.3393
17.4026,5.3641
17.6143,5.5758
17.6421,5.6303
17.6325,5.6908
17.5893,5.7340
17.5354,5.7444
17.4894,5.7402
17.3371,5.7402
17.3371,5.7403
17.3371,8.3562
17.3371,8.3562
17.4894,8.3562
17.4894,8.3562
17.5607,8.3498
17.5607,8.3498
17.7248,8.2986
17.7248,8.2986
17.8054,8.2499
17.8650,8.2360
17.9079,8.2499
17.9892,8.2991
18.1535,8.3503
18.2249,8.3567
18.7394,8.3567
18.8108,8.3503
18.9751,8.2991
19.1223,8.2101
19.2440,8.0884
19.3330,7.9412
19.3842,7.7769
19.3906,7.7055
19.3906,6.3910
19.3842,6.3196
19.3330,6.1553
19.3274,6.1461
19.2532,6.0234
19.2440,6.0081
19.2260,5.9901
19.1982,5.9356
19.2056,5.8853
19.2039,5.8847
19.2622,5.7181
19.2622,5.7181
19.2622,5.7181
19.2813,5.5482
19.2622,5.3784
19.2485,5.3393
19.2155,5.2450
19.2057,5.2171
19.1148,5.0723
18.9939,4.9515
18.9939,4.9515
18.9939,4.9515
18.8492,4.8605
18.8492,4.8605
18.7357,4.8208
18.6984,4.7974
18.1428,4.2418
18.1314,4.2276
18.1294,4.2252
18.0763,4.1753
18.0734,4.1723
18.0544,4.1533
18.0480,4.1484
18.0445,4.1454
18.0082,4.1113
17.9875,4.0999
17.9745,4.0914
17.9559,4.0769
17.9559,4.0769
17.9559,4.0769
17.9102,4.0572
17.9060,4.0551
17.8772,4.0393
17.8624,4.0311
17.8624,4.0311
17.8624,4.0311
17.8395,4.0253
17.8248,4.0202
17.8179,4.0172
17.8032,4.0109
17.8032,4.0109
17.7540,4.0031
17.7494,4.0021
17.7012,3.9897
17.7012,3.9897
17.6776,3.9897
17.6621,3.9885
17.6389,3.9848
17.5893,3.9895
17.5846,3.9897
17.3883,3.9897
17.3357,3.9746
17.3133,3.9605
17.1520,3.9041
17.1520,3.9041
16.9821,3.8850
16.8123,3.9041
16.8123,3.9041
16.6510,3.9605
16.6510,3.9605
16.5062,4.0515
16.3854,4.1723
16.2944,4.3171
16.2944,4.3171
16.2380,4.4784
16.2380,4.4784
16.2188,4.6482
12.4906,4.6482
12.4906,2.8477
12.4800,2.7438
12.4243,2.5755
12.3312,2.4246
12.2493,2.3428
12.2215,2.2882
12.2311,2.2278
12.2744,2.1845
12.3193,2.1738
19.6450,2.1738
Z" /> 
</g>
</g>
</g>
<g style="fill:#000000; fill-opacity:1.0000; 
stroke:#000000; stroke-width:0.0000; stroke-opacity:1; 
stroke-linecap:round; stroke-linejoin:round;">
<circle cx="9.9321" cy="10.5482" r="0.1500" /> 
</g>
<g style="fill:#000000; fill-opacity:1.0000; 
stroke:#000000; stroke-width:0.0212; stroke-opacity:1; 
stroke-linecap:round; stroke-linejoin:round;">
</g>
<g style="fill:#000000; fill-opacity:1.0000; 
stroke:#000000; stroke-width:0.0000; stroke-opacity:1; 
stroke-linecap:round; stroke-linejoin:round;">
<circle cx="18.5180" cy="5.5482" r="0.1500" /> 
</g>
<g style="fill:#000000; fill-opacity:1.0000; 
stroke:#000000; stroke-width:0.0212; stroke-opacity:1; 
stroke-linecap:round; stroke-linejoin:round;">
</g>
<g style="fill:#000000; fill-opacity:1.0000; 
stroke:#000000; stroke-width:0.0000; stroke-opacity:1; 
stroke-linecap:round; stroke-linejoin:round;">
<circle cx="16.9821" cy="4.6482" r="0.1500" /> 
</g>
<g style="fill:#000000; fill-opacity:1.0000; 
stroke:#000000; stroke-width:0.0212; stroke-opacity:1; 
stroke-linecap:round; stroke-linejoin:round;">
</g>
<g style="fill:#000000; fill-opacity:1.0000; 
stroke:#000000; stroke-width:0.0000; stroke-opacity:1; 
stroke-linecap:round; stroke-linejoin:round;">
<circle cx="18.6821" cy="3.1482" r="0.1500" /> 
</g>
<g style="fill:#000000; fill-opacity:1.0000; 
stroke:#000000; stroke-width:0.0212; stroke-opacity:1; 
stroke-linecap:round; stroke-linejoin:round;">
</g>
<g style="fill:#000000; fill-opacity:1.0000; 
stroke:#000000; stroke-width:0.0000; stroke-opacity:1; 
stroke-linecap:round; stroke-linejoin:round;">
<circle cx="11.3821" cy="9.6482" r="0.1500" /> 
</g>
<g style="fill:#000000; fill-opacity:1.0000; 
stroke:#000000; stroke-width:0.0212; stroke-opacity:1; 
stroke-linecap:round; stroke-linejoin:round;">
</g>
<g style="fill:#000000; fill-opacity:1.0000; 
stroke:#000000; stroke-width:0.0000; stroke-opacity:1; 
stroke-linecap:round; stroke-linejoin:round;">
<circle cx="20.4821" cy="9.9482" r="0.1500" /> 
</g>
<g style="fill:#000000; fill-opacity:1.0000; 
stroke:#000000; stroke-width:0.0212; stroke-opacity:1; 
stroke-linecap:round; stroke-linejoin:round;">
</g>
<g style="fill:#000000; fill-opacity:1.0000; 
stroke:#000000; stroke-width:0.0000; stroke-opacity:1; 
stroke-linecap:round; stroke-linejoin:round;">
<circle cx="14.6821" cy="3.1482" r="0.1500" /> 
</g>
<g style="fill:#000000; fill-opacity:1.0000; 
stroke:#000000; stroke-width:0.0212; stroke-opacity:1; 
stroke-linecap:round; stroke-linejoin:round;">
</g>
<g style="fill:#000000; fill-opacity:1.0000; 
stroke:#000000; stroke-width:0.0000; stroke-opacity:1; 
stroke-linecap:round; stroke-linejoin:round;">
<circle cx="12.7572" cy="7.9482" r="0.1500" /> 
</g>
<g style="fill:#000000; fill-opacity:1.0000; 
stroke:#000000; stroke-width:0.0212; stroke-opacity:1; 
stroke-linecap:round; stroke-linejoin:round;">
</g>
<g style="fill:#000000; fill-opacity:1.0000; 
stroke:#000000; stroke-width:0.0000; stroke-opacity:1; 
stroke-linecap:round; stroke-linejoin:round;">
<circle cx="12.7572" cy="8.9482" r="0.1500" /> 
</g>
<g style="fill:#000000; fill-opacity:1.0000; 
stroke:#000000; stroke-width:0.0212; stroke-opacity:1; 
stroke-linecap:round; stroke-linejoin:round;">
</g>
<g style="fill:#000000; fill-opacity:1.0000; 
stroke:#000000; stroke-width:0.0000; stroke-opacity:1; 
stroke-linecap:round; stroke-linejoin:round;">
<circle cx="13.2321" cy="9.9982" r="0.1500" /> 
</g>
<g style="fill:#000000; fill-opacity:1.0000; 
stroke:#000000; stroke-width:0.0212; stroke-opacity:1; 
stroke-linecap:round; stroke-linejoin:round;">
</g>
<g style="fill:#000000; fill-opacity:1.0000; 
stroke:#000000; stroke-width:0.0000; stroke-opacity:1; 
stroke-linecap:round; stroke-linejoin:round;">
<circle cx="9.4821" cy="7.6482" r="1.1000" /> 
</g>
<g style="fill:#000000; fill-opacity:1.0000; 
stroke:#000000; stroke-width:0.0212; stroke-opacity:1; 
stroke-linecap:round; stroke-linejoin:round;">
</g>
<g style="fill:#000000; fill-opacity:1.0000; 
stroke:#000000; stroke-width:0.0000; stroke-opacity:1; 
stroke-linecap:round; stroke-linejoin:round;">
<circle cx="22.4821" cy="7.6482" r="1.1000" /> 
</g>
<g style="fill:#000000; fill-opacity:1.0000; 
stroke:#000000; stroke-width:0.0212; stroke-opacity:1; 
stroke-linecap:round; stroke-linejoin:round;">
</g>
<g style="fill:#FFFFFF; fill-opacity:1.0000; 
stroke:#FFFFFF; stroke-width:0.0212; stroke-opacity:1; 
stroke-linecap:round; stroke-linejoin:round;">
</g>
<g style="fill:#37CBCB; fill-opacity:1.0000; 
stroke:#37CBCB; stroke-width:0.0212; stroke-opacity:1; 
stroke-linecap:round; stroke-linejoin:round;">
</g>
<g style="fill:#37CBCB; fill-opacity:1.0000; 
stroke:#37CBCB; stroke-width:0.0000; stroke-opacity:1; 
stroke-linecap:round; stroke-linejoin:round;">
<path style="fill:#37CBCB; fill-opacity:1.0000; 
stroke:#37CBCB; stroke-width:0.0000; stroke-opacity:1; 
stroke-linecap:round; stroke-linejoin:round;fill-rule:evenodd;"
d="M 11.6821,4.2482
11.1821,4.2482
11.1821,3.6482
11.6821,3.6482
Z" /> 
<path style="fill:#37CBCB; fill-opacity:1.0000; 
stroke:#37CBCB; stroke-width:0.0000; stroke-opacity:1; 
stroke-linecap:round; stroke-linejoin:round;fill-rule:evenodd;"
d="M 11.5821,11.5482
11.0821,11.5482
11.0821,10.9482
11.5821,10.9482
Z" /> 
<g >
<path style="fill:#37CBCB; fill-opacity:1.0000; 
stroke:#37CBCB; stroke-width:0.0000; stroke-opacity:1; 
stroke-linecap:round; stroke-linejoin:round;fill-rule:evenodd;"
d="M 18.4821,4.1857
18.4641,4.2766
18.4126,4.3537
18.3355,4.4052
18.2446,4.4232
17.6446,4.4232
17.5538,4.4052
17.4767,4.3537
17.4252,4.2766
17.4071,4.1857
17.4071,3.7107
17.4252,3.6199
17.4767,3.5428
17.5538,3.4913
17.6446,3.4732
18.2446,3.4732
18.3355,3.4913
18.4126,3.5428
18.4641,3.6199
18.4821,3.7107
Z" /> 
<path style="fill:#37CBCB; fill-opacity:1.0000; 
stroke:#37CBCB; stroke-width:0.0000; stroke-opacity:1; 
stroke-linecap:round; stroke-linejoin:round;fill-rule:evenodd;"
d="M 16.7571,4.1857
16.7391,4.2766
16.6876,4.3537
16.6105,4.4052
16.5196,4.4232
15.9196,4.4232
15.8288,4.4052
15.7517,4.3537
15.7002,4.2766
15.6821,4.1857
15.6821,3.7107
15.7002,3.6199
15.7517,3.5428
15.8288,3.4913
15.9196,3.4732
16.5196,3.4732
16.6105,3.4913
16.6876,3.5428
16.7391,3.6199
16.7571,3.7107
Z" /> 
</g>
<g >
</g>
<g style="fill:#37CBCB; fill-opacity:1.0000; 
stroke:#37CBCB; stroke-width:0.0000; stroke-opacity:1; 
stroke-linecap:round; stroke-linejoin:round;">
<path style="fill:#37CBCB; fill-opacity:1.0000; 
stroke:#37CBCB; stroke-width:0.0000; stroke-opacity:1; 
stroke-linecap:round; stroke-linejoin:round;fill-rule:evenodd;"
d="M 21.8821,4.1857
21.8641,4.2766
21.8126,4.3537
21.7355,4.4052
21.6446,4.4232
21.1446,4.4232
21.0538,4.4052
20.9767,4.3537
20.9252,4.2766
20.9071,4.1857
20.9071,3.7107
20.9252,3.6199
20.9767,3.5428
21.0538,3.4913
21.1446,3.4732
21.6446,3.4732
21.7355,3.4913
21.8126,3.5428
21.8641,3.6199
21.8821,3.7107
Z" /> 
<path style="fill:#37CBCB; fill-opacity:1.0000; 
stroke:#37CBCB; stroke-width:0.0000; stroke-opacity:1; 
stroke-linecap:round; stroke-linejoin:round;fill-rule:evenodd;"
d="M 20.0571,4.1857
20.0391,4.2766
19.9876,4.3537
19.9105,4.4052
19.8196,4.4232
19.3196,4.4232
19.2288,4.4052
19.1517,4.3537
19.1002,4.2766
19.0821,4.1857
19.0821,3.7107
19.1002,3.6199
19.1517,3.5428
19.2288,3.4913
19.3196,3.4732
19.8196,3.4732
19.9105,3.4913
19.9876,3.5428
20.0391,3.6199
20.0571,3.7107
Z" /> 
</g>
<g >
</g>
<g style="fill:#37CBCB; fill-opacity:1.0000; 
stroke:#37CBCB; stroke-width:0.0000; stroke-opacity:1; 
stroke-linecap:round; stroke-linejoin:round;">
<path style="fill:#37CBCB; fill-opacity:1.0000; 
stroke:#37CBCB; stroke-width:0.0000; stroke-opacity:1; 
stroke-linecap:round; stroke-linejoin:round;fill-rule:evenodd;"
d="M 13.6071,6.5982
13.6129,6.5695
13.6291,6.5452
13.6534,6.5290
13.6821,6.5232
14.3571,6.5232
14.3858,6.5290
14.4102,6.5452
14.4264,6.5695
14.4321,6.5982
14.4321,6.7482
14.4264,6.7770
14.4102,6.8013
14.3858,6.8175
14.3571,6.8232
13.6821,6.8232
13.6534,6.8175
13.6291,6.8013
13.6129,6.7770
13.6071,6.7482
Z" /> 
<path style="fill:#37CBCB; fill-opacity:1.0000; 
stroke:#37CBCB; stroke-width:0.0000; stroke-opacity:1; 
stroke-linecap:round; stroke-linejoin:round;fill-rule:evenodd;"
d="M 13.6071,7.2482
13.6129,7.2195
13.6291,7.1952
13.6534,7.1790
13.6821,7.1732
14.3571,7.1732
14.3858,7.1790
14.4102,7.1952
14.4264,7.2195
14.4321,7.2482
14.4321,7.3982
14.4264,7.4270
14.4102,7.4513
14.3858,7.4675
14.3571,7.4732
13.6821,7.4732
13.6534,7.4675
13.6291,7.4513
13.6129,7.4270
13.6071,7.3982
Z" /> 
<path style="fill:#37CBCB; fill-opacity:1.0000; 
stroke:#37CBCB; stroke-width:0.0000; stroke-opacity:1; 
stroke-linecap:round; stroke-linejoin:round;fill-rule:evenodd;"
d="M 13.6071,7.8982
13.6129,7.8695
13.6291,7.8452
13.6534,7.8290
13.6821,7.8232
14.3571,7.8232
14.3858,7.8290
14.4102,7.8452
14.4264,7.8695
14.4321,7.8982
14.4321,8.0482
14.4264,8.0770
14.4102,8.1013
14.3858,8.1175
14.3571,8.1232
13.6821,8.1232
13.6534,8.1175
13.6291,8.1013
13.6129,8.0770
13.6071,8.0482
Z" /> 
<path style="fill:#37CBCB; fill-opacity:1.0000; 
stroke:#37CBCB; stroke-width:0.0000; stroke-opacity:1; 
stroke-linecap:round; stroke-linejoin:round;fill-rule:evenodd;"
d="M 13.6071,8.5482
13.6129,8.5195
13.6291,8.4952
13.6534,8.4790
13.6821,8.4733
14.3571,8.4733
14.3858,8.4790
14.4102,8.4952
14.4264,8.5195
14.4321,8.5482
14.4321,8.6982
14.4264,8.7270
14.4102,8.7513
14.3858,8.7675
14.3571,8.7732
13.6821,8.7732
13.6534,8.7675
13.6291,8.7513
13.6129,8.7270
13.6071,8.6982
Z" /> 
<path style="fill:#37CBCB; fill-opacity:1.0000; 
stroke:#37CBCB; stroke-width:0.0000; stroke-opacity:1; 
stroke-linecap:round; stroke-linejoin:round;fill-rule:evenodd;"
d="M 14.8571,9.2732
14.8629,9.2445
14.8791,9.2202
14.9034,9.2040
14.9321,9.1982
15.0821,9.1982
15.1108,9.2040
15.1352,9.2202
15.1514,9.2445
15.1571,9.2732
15.1571,9.9482
15.1514,9.9770
15.1352,10.0013
15.1108,10.0175
15.0821,10.0232
14.9321,10.0232
14.9034,10.0175
14.8791,10.0013
14.8629,9.9770
14.8571,9.9482
Z" /> 
<path style="fill:#37CBCB; fill-opacity:1.0000; 
stroke:#37CBCB; stroke-width:0.0000; stroke-opacity:1; 
stroke-linecap:round; stroke-linejoin:round;fill-rule:evenodd;"
d="M 15.5071,9.2732
15.5129,9.2445
15.5291,9.2202
15.5534,9.2040
15.5821,9.1982
15.7321,9.1982
15.7608,9.2040
15.7852,9.2202
15.8014,9.2445
15.8071,9.2732
15.8071,9.9482
15.8014,9.9770
15.7852,10.0013
15.7608,10.0175
15.7321,10.0232
15.5821,10.0232
15.5534,10.0175
15.5291,10.0013
15.5129,9.9770
15.5071,9.9482
Z" /> 
<path style="fill:#37CBCB; fill-opacity:1.0000; 
stroke:#37CBCB; stroke-width:0.0000; stroke-opacity:1; 
stroke-linecap:round; stroke-linejoin:round;fill-rule:evenodd;"
d="M 16.1571,9.2732
16.1629,9.2445
16.1791,9.2202
16.2034,9.2040
16.2321,9.1982
16.3821,9.1982
16.4108,9.2040
16.4352,9.2202
16.4514,9.2445
16.4571,9.2732
16.4571,9.9482
16.4514,9.9770
16.4352,10.0013
16.4108,10.0175
16.3821,10.0232
16.2321,10.0232
16.2034,10.0175
16.1791,10.0013
16.1629,9.9770
16.1571,9.9482
Z" /> 
<path style="fill:#37CBCB; fill-opacity:1.0000; 
stroke:#37CBCB; stroke-width:0.0000; stroke-opacity:1; 
stroke-linecap:round; stroke-linejoin:round;fill-rule:evenodd;"
d="M 16.8071,9.2732
16.8129,9.2445
16.8291,9.2202
16.8534,9.2040
16.8821,9.1982
17.0321,9.1982
17.0608,9.2040
17.0852,9.2202
17.1014,9.2445
17.1071,9.2732
17.1071,9.9482
17.1014,9.9770
17.0852,10.0013
17.0608,10.0175
17.0321,10.0232
16.8821,10.0232
16.8534,10.0175
16.8291,10.0013
16.8129,9.9770
16.8071,9.9482
Z" /> 
<path style="fill:#37CBCB; fill-opacity:1.0000; 
stroke:#37CBCB; stroke-width:0.0000; stroke-opacity:1; 
stroke-linecap:round; stroke-linejoin:round;fill-rule:evenodd;"
d="M 17.5321,8.5482
17.5379,8.5195
17.5541,8.4952
17.5784,8.4790
17.6071,8.4733
18.2821,8.4733
18.3108,8.4790
18.3352,8.4952
18.3514,8.5195
18.3571,8.5482
18.3571,8.6982
18.3514,8.7270
18.3352,8.7513
18.3108,8.7675
18.2821,8.7732
17.6071,8.7732
17.5784,8.7675
17.5541,8.7513
17.5379,8.7270
17.5321,8.6982
Z" /> 
<path style="fill:#37CBCB; fill-opacity:1.0000; 
stroke:#37CBCB; stroke-width:0.0000; stroke-opacity:1; 
stroke-linecap:round; stroke-linejoin:round;fill-rule:evenodd;"
d="M 17.5321,7.8982
17.5379,7.8695
17.5541,7.8452
17.5784,7.8290
17.6071,7.8232
18.2821,7.8232
18.3108,7.8290
18.3352,7.8452
18.3514,7.8695
18.3571,7.8982
18.3571,8.0482
18.3514,8.0770
18.3352,8.1013
18.3108,8.1175
18.2821,8.1232
17.6071,8.1232
17.5784,8.1175
17.5541,8.1013
17.5379,8.0770
17.5321,8.0482
Z" /> 
<path style="fill:#37CBCB; fill-opacity:1.0000; 
stroke:#37CBCB; stroke-width:0.0000; stroke-opacity:1; 
stroke-linecap:round; stroke-linejoin:round;fill-rule:evenodd;"
d="M 17.5321,7.2482
17.5379,7.2195
17.5541,7.1952
17.5784,7.1790
17.6071,7.1732
18.2821,7.1732
18.3108,7.1790
18.3352,7.1952
18.3514,7.2195
18.3571,7.2482
18.3571,7.3982
18.3514,7.4270
18.3352,7.4513
18.3108,7.4675
18.2821,7.4732
17.6071,7.4732
17.5784,7.4675
17.5541,7.4513
17.5379,7.4270
17.5321,7.3982
Z" /> 
<path style="fill:#37CBCB; fill-opacity:1.0000; 
stroke:#37CBCB; stroke-width:0.0000; stroke-opacity:1; 
stroke-linecap:round; stroke-linejoin:round;fill-rule:evenodd;"
d="M 17.5321,6.5982
17.5379,6.5695
17.5541,6.5452
17.5784,6.5290
17.6071,6.5232
18.2821,6.5232
18.3108,6.5290
18.3352,6.5452
18.3514,6.5695
18.3571,6.5982
18.3571,6.7482
18.3514,6.7770
18.3352,6.8013
18.3108,6.8175
18.2821,6.8232
17.6071,6.8232
17.5784,6.8175
17.5541,6.8013
17.5379,6.7770
17.5321,6.7482
Z" /> 
<path style="fill:#37CBCB; fill-opacity:1.0000; 
stroke:#37CBCB; stroke-width:0.0000; stroke-opacity:1; 
stroke-linecap:round; stroke-linejoin:round;fill-rule:evenodd;"
d="M 16.8071,5.3483
16.8129,5.3195
16.8291,5.2952
16.8534,5.2790
16.8821,5.2732
17.0321,5.2732
17.0608,5.2790
17.0852,5.2952
17.1014,5.3195
17.1071,5.3483
17.1071,6.0232
17.1014,6.0520
17.0852,6.0763
17.0608,6.0925
17.0321,6.0982
16.8821,6.0982
16.8534,6.0925
16.8291,6.0763
16.8129,6.0520
16.8071,6.0232
Z" /> 
<path style="fill:#37CBCB; fill-opacity:1.0000; 
stroke:#37CBCB; stroke-width:0.0000; stroke-opacity:1; 
stroke-linecap:round; stroke-linejoin:round;fill-rule:evenodd;"
d="M 16.1571,5.3483
16.1629,5.3195
16.1791,5.2952
16.2034,5.2790
16.2321,5.2732
16.3821,5.2732
16.4108,5.2790
16.4352,5.2952
16.4514,5.3195
16.4571,5.3483
16.4571,6.0232
16.4514,6.0520
16.4352,6.0763
16.4108,6.0925
16.3821,6.0982
16.2321,6.0982
16.2034,6.0925
16.1791,6.0763
16.1629,6.0520
16.1571,6.0232
Z" /> 
<path style="fill:#37CBCB; fill-opacity:1.0000; 
stroke:#37CBCB; stroke-width:0.0000; stroke-opacity:1; 
stroke-linecap:round; stroke-linejoin:round;fill-rule:evenodd;"
d="M 15.5071,5.3483
15.5129,5.3195
15.5291,5.2952
15.5534,5.2790
15.5821,5.2732
15.7321,5.2732
15.7608,5.2790
15.7852,5.2952
15.8014,5.3195
15.8071,5.3483
15.8071,6.0232
15.8014,6.0520
15.7852,6.0763
15.7608,6.0925
15.7321,6.0982
15.5821,6.0982
15.5534,6.0925
15.5291,6.0763
15.5129,6.0520
15.5071,6.0232
Z" /> 
<path style="fill:#37CBCB; fill-opacity:1.0000; 
stroke:#37CBCB; stroke-width:0.0000; stroke-opacity:1; 
stroke-linecap:round; stroke-linejoin:round;fill-rule:evenodd;"
d="M 14.8571,5.3483
14.8629,5.3195
14.8791,5.2952
14.9034,5.2790
14.9321,5.2732
15.0821,5.2732
15.1108,5.2790
15.1352,5.2952
15.1514,5.3195
15.1571,5.3483
15.1571,6.0232
15.1514,6.0520
15.1352,6.0763
15.1108,6.0925
15.0821,6.0982
14.9321,6.0982
14.9034,6.0925
14.8791,6.0763
14.8629,6.0520
14.8571,6.0232
Z" /> 
<path style="fill:#37CBCB; fill-opacity:1.0000; 
stroke:#37CBCB; stroke-width:0.0000; stroke-opacity:1; 
stroke-linecap:round; stroke-linejoin:round;fill-rule:evenodd;"
d="M 14.6321,8.9982
14.6321,6.2982
17.3321,6.2982
17.3321,8.9982
Z" /> 
</g>
<g >
</g>
<g >
</g>
<g >
</g>
<g style="fill:#37CBCB; fill-opacity:1.0000; 
stroke:#37CBCB; stroke-width:0.0000; stroke-opacity:1; 
stroke-linecap:round; stroke-linejoin:round;">
<path style="fill:#37CBCB; fill-opacity:1.0000; 
stroke:#37CBCB; stroke-width:0.0000; stroke-opacity:1; 
stroke-linecap:round; stroke-linejoin:round;fill-rule:evenodd;"
d="M 19.2446,12.2107
19.1538,12.1927
19.0767,12.1412
19.0252,12.0641
19.0071,11.9733
19.0071,11.3732
19.0252,11.2824
19.0767,11.2053
19.1538,11.1538
19.2446,11.1357
19.7196,11.1357
19.8105,11.1538
19.8876,11.2053
19.9391,11.2824
19.9571,11.3732
19.9571,11.9733
19.9391,12.0641
19.8876,12.1412
19.8105,12.1927
19.7196,12.2107
Z" /> 
<path style="fill:#37CBCB; fill-opacity:1.0000; 
stroke:#37CBCB; stroke-width:0.0000; stroke-opacity:1; 
stroke-linecap:round; stroke-linejoin:round;fill-rule:evenodd;"
d="M 19.2446,10.4857
19.1538,10.4677
19.0767,10.4162
19.0252,10.3391
19.0071,10.2482
19.0071,9.6482
19.0252,9.5574
19.0767,9.4803
19.1538,9.4288
19.2446,9.4108
19.7196,9.4108
19.8105,9.4288
19.8876,9.4803
19.9391,9.5574
19.9571,9.6482
19.9571,10.2482
19.9391,10.3391
19.8876,10.4162
19.8105,10.4677
19.7196,10.4857
Z" /> 
</g>
<g >
</g>
<g style="fill:#37CBCB; fill-opacity:1.0000; 
stroke:#37CBCB; stroke-width:0.0000; stroke-opacity:1; 
stroke-linecap:round; stroke-linejoin:round;">
<path style="fill:#37CBCB; fill-opacity:1.0000; 
stroke:#37CBCB; stroke-width:0.0000; stroke-opacity:1; 
stroke-linecap:round; stroke-linejoin:round;fill-rule:evenodd;"
d="M 11.3321,4.6982
10.7821,4.6982
10.7821,4.6932
10.7110,4.6932
10.5744,4.6531
10.4547,4.5761
10.3615,4.4686
10.3024,4.3391
10.2821,4.1982
10.2821,3.6982
10.3024,3.5574
10.3615,3.4279
10.4547,3.3204
10.5744,3.2434
10.7110,3.2033
10.7821,3.2033
10.7821,3.1982
11.3321,3.1982
Z" /> 
<path style="fill:#37CBCB; fill-opacity:1.0000; 
stroke:#37CBCB; stroke-width:0.0000; stroke-opacity:1; 
stroke-linecap:round; stroke-linejoin:round;fill-rule:evenodd;"
d="M 11.5821,4.6982
11.5821,3.1982
12.5821,3.1982
12.5821,4.6982
Z" /> 
<path style="fill:#37CBCB; fill-opacity:1.0000; 
stroke:#37CBCB; stroke-width:0.0000; stroke-opacity:1; 
stroke-linecap:round; stroke-linejoin:round;fill-rule:evenodd;"
d="M 13.3821,3.2033
13.4533,3.2033
13.5899,3.2434
13.7096,3.3204
13.8028,3.4279
13.8619,3.5574
13.8821,3.6982
13.8821,4.1982
13.8619,4.3391
13.8028,4.4686
13.7096,4.5761
13.5899,4.6531
13.4533,4.6932
13.3821,4.6932
13.3821,4.6982
12.8321,4.6982
12.8321,3.1982
13.3821,3.1982
Z" /> 
</g>
<g >
</g>
<g style="fill:#37CBCB; fill-opacity:1.0000; 
stroke:#37CBCB; stroke-width:0.0000; stroke-opacity:1; 
stroke-linecap:round; stroke-linejoin:round;">
<path style="fill:#37CBCB; fill-opacity:1.0000; 
stroke:#37CBCB; stroke-width:0.0000; stroke-opacity:1; 
stroke-linecap:round; stroke-linejoin:round;fill-rule:evenodd;"
d="M 11.2321,11.9982
10.6821,11.9982
10.6821,11.9932
10.6110,11.9932
10.4744,11.9531
10.3547,11.8761
10.2615,11.7686
10.2024,11.6391
10.1821,11.4982
10.1821,10.9982
10.2024,10.8574
10.2615,10.7279
10.3547,10.6204
10.4744,10.5434
10.6110,10.5033
10.6821,10.5033
10.6821,10.4982
11.2321,10.4982
Z" /> 
<path style="fill:#37CBCB; fill-opacity:1.0000; 
stroke:#37CBCB; stroke-width:0.0000; stroke-opacity:1; 
stroke-linecap:round; stroke-linejoin:round;fill-rule:evenodd;"
d="M 11.4821,11.9982
11.4821,10.4982
12.4821,10.4982
12.4821,11.9982
Z" /> 
<path style="fill:#37CBCB; fill-opacity:1.0000; 
stroke:#37CBCB; stroke-width:0.0000; stroke-opacity:1; 
stroke-linecap:round; stroke-linejoin:round;fill-rule:evenodd;"
d="M 13.2821,10.5033
13.3533,10.5033
13.4899,10.5434
13.6096,10.6204
13.7028,10.7279
13.7619,10.8574
13.7821,10.9982
13.7821,11.4982
13.7619,11.6391
13.7028,11.7686
13.6096,11.8761
13.4899,11.9531
13.3533,11.9932
13.2821,11.9932
13.2821,11.9982
12.7321,11.9982
12.7321,10.4982
13.2821,10.4982
Z" /> 
</g>
<g >
</g>
<g >
</g>
<g >
</g>
<g >
</g>
<g >
</g>
<g style="fill:#121212; fill-opacity:1.0000; 
stroke:#121212; stroke-width:0.0000; stroke-opacity:1; 
stroke-linecap:round; stroke-linejoin:round;">
<circle cx="9.9321" cy="10.5482" r="0.2500" /> 
</g>
<g style="fill:#121212; fill-opacity:1.0000; 
stroke:#121212; stroke-width:0.0212; stroke-opacity:1; 
stroke-linecap:round; stroke-linejoin:round;">
</g>
<g style="fill:#121212; fill-opacity:1.0000; 
stroke:#121212; stroke-width:0.0000; stroke-opacity:1; 
stroke-linecap:round; stroke-linejoin:round;">
<circle cx="18.5180" cy="5.5482" r="0.2500" /> 
</g>
<g style="fill:#121212; fill-opacity:1.0000; 
stroke:#121212; stroke-width:0.0212; stroke-opacity:1; 
stroke-linecap:round; stroke-linejoin:round;">
</g>
<g style="fill:#121212; fill-opacity:1.0000; 
stroke:#121212; stroke-width:0.0000; stroke-opacity:1; 
stroke-linecap:round; stroke-linejoin:round;">
<circle cx="16.9821" cy="4.6482" r="0.2500" /> 
</g>
<g style="fill:#121212; fill-opacity:1.0000; 
stroke:#121212; stroke-width:0.0212; stroke-opacity:1; 
stroke-linecap:round; stroke-linejoin:round;">
</g>
<g style="fill:#121212; fill-opacity:1.0000; 
stroke:#121212; stroke-width:0.0000; stroke-opacity:1; 
stroke-linecap:round; stroke-linejoin:round;">
<circle cx="18.6821" cy="3.1482" r="0.2500" /> 
</g>
<g style="fill:#121212; fill-opacity:1.0000; 
stroke:#121212; stroke-width:0.0212; stroke-opacity:1; 
stroke-linecap:round; stroke-linejoin:round;">
</g>
<g style="fill:#121212; fill-opacity:1.0000; 
stroke:#121212; stroke-width:0.0000; stroke-opacity:1; 
stroke-linecap:round; stroke-linejoin:round;">
<circle cx="11.3821" cy="9.6482" r="0.2500" /> 
</g>
<g style="fill:#121212; fill-opacity:1.0000; 
stroke:#121212; stroke-width:0.0212; stroke-opacity:1; 
stroke-linecap:round; stroke-linejoin:round;">
</g>
<g style="fill:#121212; fill-opacity:1.0000; 
stroke:#121212; stroke-width:0.0000; stroke-opacity:1; 
stroke-linecap:round; stroke-linejoin:round;">
<circle cx="20.4821" cy="9.9482" r="0.2500" /> 
</g>
<g style="fill:#121212; fill-opacity:1.0000; 
stroke:#121212; stroke-width:0.0212; stroke-opacity:1; 
stroke-linecap:round; stroke-linejoin:round;">
</g>
<g style="fill:#121212; fill-opacity:1.0000; 
stroke:#121212; stroke-width:0.0000; stroke-opacity:1; 
stroke-linecap:round; stroke-linejoin:round;">
<circle cx="14.6821" cy="3.1482" r="0.2500" /> 
</g>
<g style="fill:#121212; fill-opacity:1.0000; 
stroke:#121212; stroke-width:0.0212; stroke-opacity:1; 
stroke-linecap:round; stroke-linejoin:round;">
</g>
<g style="fill:#121212; fill-opacity:1.0000; 
stroke:#121212; stroke-width:0.0000; stroke-opacity:1; 
stroke-linecap:round; stroke-linejoin:round;">
<circle cx="12.7572" cy="7.9482" r="0.2500" /> 
</g>
<g style="fill:#121212; fill-opacity:1.0000; 
stroke:#121212; stroke-width:0.0212; stroke-opacity:1; 
stroke-linecap:round; stroke-linejoin:round;">
</g>
<g style="fill:#121212; fill-opacity:1.0000; 
stroke:#121212; stroke-width:0.0000; stroke-opacity:1; 
stroke-linecap:round; stroke-linejoin:round;">
<circle cx="12.7572" cy="8.9482" r="0.2500" /> 
</g>
<g style="fill:#121212; fill-opacity:1.0000; 
stroke:#121212; stroke-width:0.0212; stroke-opacity:1; 
stroke-linecap:round; stroke-linejoin:round;">
</g>
<g style="fill:#121212; fill-opacity:1.0000; 
stroke:#121212; stroke-width:0.0000; stroke-opacity:1; 
stroke-linecap:round; stroke-linejoin:round;">
<circle cx="13.2321" cy="9.9982" r="0.2500" /> 
</g>
<g style="fill:#121212; fill-opacity:1.0000; 
stroke:#121212; stroke-width:0.0212; stroke-opacity:1; 
stroke-linecap:round; stroke-linejoin:round;">
</g>
<g >
</g>
<g style="fill:#37CBCB; fill-opacity:1.0000; 
stroke:#37CBCB; stroke-width:0.0212; stroke-opacity:1; 
stroke-linecap:round; stroke-linejoin:round;">
</g>
<g style="fill:#37CBCB; fill-opacity:1.0000; 
stroke:#37CBCB; stroke-width:0.3000; stroke-opacity:1; 
stroke-linecap:round; stroke-linejoin:round;">
</g>
<g style="fill:#37CBCB; fill-opacity:0.0; 
stroke:#37CBCB; stroke-width:0.3000; stroke-opacity:1; 
stroke-linecap:round; stroke-linejoin:round;">
<path d="M18.4821 6.1482
L18.0821 6.1482
" />
<path d="M17.9446 3.9482
L17.9446 5.4857
" />
<path d="M18.6821 6.5482
L18.5571 6.6732
" />
<path d="M18.6821 6.3482
L18.6821 6.5482
" />
<path d="M18.5571 6.6732
L17.9446 6.6732
" />
<path d="M18.0821 6.1482
L17.9446 6.0107
" />
<path d="M17.9446 6.0107
L17.9446 5.4857
" />
<path d="M19.5696 3.9482
L17.9446 3.9482
" />
<path d="M18.4821 6.1482
L18.6821 6.3482
" />
</g>
<g style="fill:#37CBCB; fill-opacity:0.0; 
stroke:#37CBCB; stroke-width:0.1500; stroke-opacity:1; 
stroke-linecap:round; stroke-linejoin:round;">
<path d="M16.2196 3.9482
L16.8821 3.9482
" />
<path d="M16.9571 4.0232
L16.9571 5.6857
" />
<path d="M13.3821 3.9482
L16.2196 3.9482
" />
<path d="M16.8821 3.9482
L16.9571 4.0232
" />
<path d="M16.3071 4.0358
L16.2196 3.9482
" />
</g>
<g style="fill:#37CBCB; fill-opacity:0.0; 
stroke:#37CBCB; stroke-width:0.3000; stroke-opacity:1; 
stroke-linecap:round; stroke-linejoin:round;">
<path d="M19.4821 7.9482
L19.4821 7.7482
" />
<path d="M21.3946 3.9482
L20.5946 3.1482
" />
<path d="M19.4821 9.9482
L20.4821 9.9482
" />
<path d="M19.4821 7.7482
L19.0571 7.3232
" />
</g>
<g style="fill:#37CBCB; fill-opacity:0.0; 
stroke:#37CBCB; stroke-width:0.1500; stroke-opacity:1; 
stroke-linecap:round; stroke-linejoin:round;">
<path d="M10.7821 2.9482
L11.0321 2.6982
" />
<path d="M10.7821 3.9482
L10.7821 2.9482
" />
<path d="M11.0321 2.6982
L14.2321 2.6982
" />
</g>
<g style="fill:#37CBCB; fill-opacity:0.0; 
stroke:#37CBCB; stroke-width:0.3000; stroke-opacity:1; 
stroke-linecap:round; stroke-linejoin:round;">
<path d="M17.9446 7.9732
L19.4571 7.9732
" />
</g>
<g style="fill:#37CBCB; fill-opacity:0.0; 
stroke:#37CBCB; stroke-width:0.1500; stroke-opacity:1; 
stroke-linecap:round; stroke-linejoin:round;">
<path d="M14.2321 2.6982
L14.6821 3.1482
" />
</g>
<g style="fill:#37CBCB; fill-opacity:0.0; 
stroke:#37CBCB; stroke-width:0.3000; stroke-opacity:1; 
stroke-linecap:round; stroke-linejoin:round;">
<path d="M19.0571 7.3232
L17.9446 7.3232
" />
<path d="M19.4821 9.9482
L19.4821 7.9482
" />
<path d="M20.5946 3.1482
L18.6821 3.1482
" />
</g>
<g style="fill:#37CBCB; fill-opacity:0.0; 
stroke:#37CBCB; stroke-width:0.1500; stroke-opacity:1; 
stroke-linecap:round; stroke-linejoin:round;">
<path d="M10.6821 11.7482
L10.6821 10.3483
" />
<path d="M10.6821 10.3483
L11.3821 9.6482
" />
</g>
<g style="fill:#37CBCB; fill-opacity:0.0; 
stroke:#37CBCB; stroke-width:0.3000; stroke-opacity:1; 
stroke-linecap:round; stroke-linejoin:round;">
<path d="M19.4571 7.9732
L19.4821 7.9482
" />
</g>
<g style="fill:#37CBCB; fill-opacity:0.0; 
stroke:#37CBCB; stroke-width:0.1500; stroke-opacity:1; 
stroke-linecap:round; stroke-linejoin:round;">
<path d="M12.7822 7.9732
L12.7572 7.9482
" />
<path d="M14.0196 7.9732
L12.7822 7.9732
" />
<path d="M14.0196 8.6232
L13.0822 8.6232
" />
<path d="M13.0822 8.6232
L12.7572 8.9482
" />
<path d="M12.5071 7.3232
L14.0196 7.3232
" />
<path d="M12.2822 7.5482
L12.5071 7.3232
" />
<path d="M13.2321 11.6982
L13.2821 11.7482
" />
<path d="M13.2321 9.9982
L13.2321 11.6982
" />
<path d="M12.2822 9.5483
L12.2822 7.5482
" />
<path d="M13.2321 9.9982
L12.7321 9.9982
" />
<path d="M12.7321 9.9982
L12.2822 9.5483
" />
<path d="M16.1821 4.9982
L12.2821 4.9982
" />
<path d="M16.3071 5.1232
L16.1821 4.9982
" />
<path d="M12.0821 4.7982
L12.0821 3.9482
" />
<path d="M16.3071 5.6857
L16.3071 5.1232
" />
<path d="M12.2821 4.9982
L12.0821 4.7982
" />
<path d="M12.3321 6.6982
L13.9946 6.6982
" />
<path d="M11.9821 7.0482
L12.3321 6.6982
" />
<path d="M11.9821 11.7482
L11.9821 7.0482
" />
<path d="M13.9946 6.6982
L14.0196 6.6732
" />
</g>
<g >
</g>
<g style="fill:#37CBCB; fill-opacity:0.0; 
stroke:#37CBCB; stroke-width:0.1500; stroke-opacity:1; 
stroke-linecap:round; stroke-linejoin:round;">
<g >
</g>
<g style="fill:#37CBCB; fill-opacity:1.0000; 
stroke:#37CBCB; stroke-width:0.0000; stroke-opacity:1; 
stroke-linecap:round; stroke-linejoin:round;">
<path style="fill:#37CBCB; fill-opacity:1.0000; 
stroke:#37CBCB; stroke-width:0.0000; stroke-opacity:1; 
stroke-linecap:round; stroke-linejoin:round;fill-rule:evenodd;"
d="M 17.3293,4.4974
17.4377,4.5774
17.4377,4.5774
17.4377,4.5774
17.5278,4.6089
17.5765,4.6460
17.5941,4.7024
17.5941,4.8439
17.5752,4.9021
17.5257,4.9380
17.4645,4.9380
17.4349,4.9224
17.3262,4.8390
17.3262,4.8390
17.1843,4.7803
17.1793,4.7789
17.1280,4.7456
17.1061,4.6885
17.1207,4.6313
17.1863,4.5251
17.2329,4.4855
17.2939,4.4808
Z" /> 
<path style="fill:#37CBCB; fill-opacity:1.0000; 
stroke:#37CBCB; stroke-width:0.0000; stroke-opacity:1; 
stroke-linecap:round; stroke-linejoin:round;fill-rule:evenodd;"
d="M 21.9854,2.1742
21.9997,2.1761
22.0920,2.1882
22.1170,2.1949
22.2074,2.2323
22.2297,2.2453
22.3073,2.3048
22.3256,2.3231
22.3851,2.4007
22.3981,2.4230
22.4355,2.5134
22.4422,2.5384
22.4562,2.6450
22.4566,2.6515
22.4566,6.2041
22.4377,6.2623
22.3882,6.2983
22.3663,6.3027
22.2467,6.3132
22.0185,6.3743
21.8043,6.4742
21.8043,6.4742
21.6107,6.6098
21.4436,6.7769
21.3081,6.9704
21.2082,7.1846
21.1471,7.4128
21.1265,7.6482
21.1265,7.6483
21.1471,7.8836
21.1471,7.8837
21.1471,7.8837
21.1781,7.9993
21.2082,8.1119
21.3081,8.3261
21.3081,8.3261
21.4283,8.4977
21.4436,8.5197
21.6107,8.6867
21.8043,8.8223
21.8043,8.8223
21.8043,8.8223
21.8043,8.8223
21.8647,8.8504
22.0041,8.9154
22.0185,8.9222
22.0185,8.9222
22.2467,8.9833
22.2467,8.9833
22.2467,8.9833
22.3663,8.9938
22.4226,9.0177
22.4541,9.0701
22.4566,9.0924
22.4566,12.6450
22.4562,12.6515
22.4422,12.7581
22.4355,12.7831
22.3981,12.8735
22.3851,12.8958
22.3256,12.9734
22.3073,12.9917
22.2297,13.0512
22.2073,13.0642
22.1170,13.1016
22.0920,13.1083
21.9854,13.1223
21.9789,13.1227
9.9854,13.1227
9.9789,13.1223
9.8723,13.1083
9.8473,13.1016
9.7569,13.0642
9.7346,13.0512
9.6570,12.9917
9.6387,12.9734
9.5791,12.8958
9.5662,12.8735
9.5288,12.7831
9.5221,12.7581
9.5081,12.6515
9.5076,12.6450
9.5076,11.5273
9.9747,11.5273
9.9951,11.6697
9.9951,11.6697
10.0115,11.7255
10.0599,11.8315
10.0712,11.8563
10.0712,11.8563
10.1027,11.9052
10.1027,11.9052
10.1968,12.0139
10.1968,12.0139
10.1969,12.0139
10.1969,12.0139
10.2408,12.0520
10.2408,12.0520
10.3618,12.1297
10.3618,12.1297
10.3618,12.1297
10.4147,12.1539
10.5527,12.1944
10.6103,12.2027
10.6103,12.2027
11.2321,12.2027
11.2321,12.2027
11.3104,12.1871
11.3104,12.1871
11.3193,12.1834
11.3803,12.1786
11.3950,12.1834
11.4039,12.1871
11.4039,12.1871
11.4340,12.1931
11.4624,12.1987
11.4624,12.1987
11.4624,12.1987
11.4624,12.1987
12.5019,12.1987
12.5019,12.1987
12.5604,12.1871
12.5604,12.1871
12.5693,12.1834
12.6303,12.1786
12.6450,12.1834
12.6539,12.1871
12.6539,12.1871
12.6539,12.1871
12.7321,12.2027
12.7321,12.2027
13.3540,12.2027
13.3540,12.2027
13.4116,12.1944
13.5496,12.1539
13.6025,12.1297
13.6356,12.1084
13.7235,12.0520
13.7235,12.0520
13.7235,12.0520
13.7570,12.0229
18.4991,12.0229
18.5096,12.1250
18.5644,12.2905
18.6559,12.4388
18.7791,12.5620
18.9274,12.6535
19.0929,12.7083
19.1950,12.7188
19.3771,12.7188
19.3771,12.7187
19.5871,12.7187
19.5871,12.7188
19.7693,12.7188
19.8714,12.7083
20.0369,12.6535
20.1852,12.5620
20.3084,12.4388
20.3999,12.2905
20.4547,12.1250
20.4651,12.0229
20.4651,11.7783
20.4651,11.7782
19.5871,11.7782
19.5871,11.7783
19.5871,12.7187
19.3771,12.7187
19.3771,11.7783
19.3771,11.7782
18.4991,11.7782
18.4991,11.7783
18.4991,12.0229
13.7570,12.0229
13.7674,12.0139
13.8616,11.9052
13.8930,11.8563
13.9528,11.7255
13.9692,11.6697
13.9779,11.6087
13.9896,11.5273
13.9896,11.4692
13.9876,11.4549
13.9866,11.4408
13.9866,11.0557
13.9876,11.0416
13.9896,11.0273
13.9896,10.9692
13.9692,10.8268
13.9692,10.8268
13.9528,10.7710
13.9528,10.7710
13.8930,10.6402
13.8665,10.5990
13.8616,10.5913
13.8616,10.5913
13.7674,10.4826
13.7674,10.4826
13.7674,10.4826
13.7674,10.4826
13.7235,10.4445
13.7235,10.4445
13.6385,10.3899
13.5998,10.3425
13.5963,10.2815
13.6123,10.2510
13.6112,10.2503
13.6150,10.2443
13.6150,10.2443
13.6150,10.2443
13.6688,10.1265
13.6873,9.9982
13.6840,9.9754
13.6688,9.8700
13.6150,9.7522
13.6150,9.7522
13.5302,9.6543
13.5302,9.6543
13.5302,9.6543
13.4212,9.5842
13.4212,9.5842
13.4212,9.5842
13.4212,9.5842
13.2969,9.5477
13.2969,9.5477
13.1674,9.5477
13.1674,9.5477
13.0431,9.5842
13.0431,9.5842
12.9341,9.6543
12.9341,9.6543
12.9312,9.6577
12.8788,9.6893
12.8178,9.6840
12.7863,9.6628
12.6913,9.5678
12.6635,9.5132
12.6731,9.4528
12.7163,9.4095
12.7613,9.3987
12.8219,9.3987
12.8219,9.3987
12.9462,9.3623
13.0552,9.2922
13.1400,9.1943
13.1939,9.0765
13.2058,8.9938
13.2072,8.9837
13.2342,8.9288
13.2883,8.9002
13.3052,8.8987
13.4563,8.8987
13.5113,8.9154
13.5746,8.9578
13.6550,8.9737
14.3416,8.9737
14.3998,8.9927
14.4357,9.0422
14.4387,9.0534
14.4433,9.0765
14.4433,9.0765
14.4871,9.1420
14.4876,9.1428
14.5539,9.1871
14.5770,9.1917
14.6303,9.2216
14.6560,9.2772
14.6566,9.2888
14.6566,9.9754
14.6566,9.9754
14.6726,10.0557
14.6726,10.0557
14.7335,10.1469
14.7335,10.1469
14.8246,10.2078
14.9050,10.2237
15.1093,10.2237
15.1896,10.2078
15.2771,10.1493
15.3360,10.1327
15.3871,10.1493
15.4746,10.2078
15.5550,10.2237
15.7593,10.2237
15.8396,10.2078
15.9271,10.1493
15.9860,10.1327
16.0371,10.1493
16.1246,10.2078
16.2050,10.2237
16.4093,10.2237
16.4896,10.2078
16.5771,10.1493
16.6360,10.1327
16.6871,10.1493
16.7746,10.2078
16.8550,10.2237
17.0593,10.2237
17.1396,10.2078
17.2308,10.1469
17.2917,10.0557
17.3076,9.9754
17.3076,9.3534
17.3265,9.2952
17.3760,9.2592
17.4372,9.2592
17.4445,9.2619
17.4550,9.2662
17.4550,9.2662
17.5689,9.2812
17.5689,9.2812
17.8396,9.2812
17.8396,9.2812
18.0496,9.2812
18.0496,9.2812
18.3204,9.2812
18.3204,9.2812
18.4343,9.2662
18.4343,9.2662
18.5762,9.2075
18.5762,9.2075
18.6979,9.1141
18.6979,9.1140
18.7914,8.9923
18.7914,8.9923
18.8501,8.8504
18.8501,8.8504
18.8651,8.7365
18.8651,8.7365
18.8651,8.7283
18.8651,8.7282
18.0496,8.7282
18.0496,8.7283
18.0496,9.2812
17.8396,9.2812
17.8396,8.6173
17.8585,8.5591
17.9080,8.5231
17.9386,8.5183
18.8651,8.5183
18.8651,8.5182
18.8651,8.5100
18.8651,8.5100
18.8554,8.4357
18.8665,8.3755
18.9109,8.3334
18.9535,8.3238
19.0326,8.3238
19.0908,8.3427
19.1268,8.3922
19.1316,8.4227
19.1316,9.1535
19.1127,9.2117
19.0653,9.2470
19.0377,9.2566
19.0377,9.2566
18.9314,9.3350
18.9314,9.3350
18.8530,9.4413
18.8094,9.5659
18.8094,9.5659
18.8066,9.5955
18.8066,10.3010
18.8094,10.3306
18.8094,10.3306
18.8530,10.4552
18.9330,10.5636
18.9523,10.6216
18.9339,10.6800
18.9053,10.7066
18.7791,10.7845
18.7791,10.7845
18.6559,10.9077
18.5644,11.0560
18.5096,11.2215
18.4991,11.3236
18.4991,11.5682
18.4991,11.5682
20.4651,11.5682
20.4651,11.5682
20.4651,11.3236
20.4547,11.2215
20.3999,11.0560
20.3084,10.9077
20.1852,10.7845
20.0590,10.7066
20.0194,10.6600
20.0147,10.5990
20.0313,10.5636
20.0329,10.5615
20.0329,10.5615
20.1113,10.4552
20.1298,10.4023
20.1668,10.3537
20.2254,10.3361
20.2767,10.3518
20.2797,10.3537
20.2931,10.3623
20.4174,10.3987
20.4174,10.3987
20.5469,10.3987
20.5469,10.3987
20.6712,10.3623
20.7802,10.2922
20.8650,10.1943
20.9188,10.0765
20.9310,9.9922
20.9373,9.9483
20.9373,9.9482
20.9188,9.8200
20.8879,9.7522
20.8650,9.7022
20.7802,9.6043
20.7802,9.6043
20.7802,9.6043
20.6712,9.5342
20.6712,9.5342
20.6712,9.5342
20.6712,9.5342
20.5469,9.4977
20.5469,9.4977
20.4174,9.4977
20.4174,9.4977
20.2931,9.5342
20.2931,9.5342
20.2767,9.5447
20.2176,9.5603
20.1605,9.5381
20.1298,9.4942
20.1113,9.4413
20.0329,9.3350
20.0329,9.3350
20.0329,9.3350
20.0328,9.3350
19.9266,9.2566
19.9266,9.2566
19.8989,9.2470
19.8503,9.2099
19.8326,9.1535
19.8326,8.0137
19.8346,8.0005
19.8337,8.0003
19.8348,7.9922
19.8326,7.9410
19.8326,7.7949
19.8347,7.7746
19.8348,7.7745
19.8372,7.7629
19.8330,7.7295
19.8326,7.7234
19.8326,7.7192
19.8291,7.6977
19.8229,7.6483
19.8227,7.6469
19.8227,7.6469
19.8227,7.6469
19.8206,7.6398
19.8182,7.6329
19.8182,7.6329
19.7938,7.5878
19.7713,7.5418
19.7713,7.5418
19.7671,7.5358
19.7626,7.5300
19.7249,7.4953
19.5296,7.3000
19.3379,7.1084
19.3251,7.0925
19.3186,7.0826
19.2970,7.0658
19.2920,7.0619
19.2874,7.0579
19.2844,7.0549
19.2667,7.0422
19.2263,7.0107
19.2198,7.0072
19.2132,7.0040
19.2132,7.0040
19.1641,6.9894
19.1156,6.9727
19.1156,6.9727
19.1084,6.9715
19.1011,6.9706
19.1011,6.9706
19.1011,6.9706
19.0499,6.9727
18.9984,6.9727
18.9402,6.9538
18.9042,6.9043
18.9042,6.8432
18.9203,6.8129
18.9231,6.8093
18.9435,6.7831
18.9475,6.7785
18.9505,6.7756
18.9632,6.7578
18.9947,6.7174
18.9947,6.7174
18.9982,6.7109
19.0014,6.7043
19.0014,6.7043
19.0014,6.7043
19.0160,6.6552
19.0326,6.6067
19.0326,6.6067
19.0338,6.5995
19.0348,6.5922
19.0326,6.5410
19.0326,6.3949
19.0347,6.3746
19.0348,6.3743
19.0372,6.3629
19.0330,6.3295
19.0326,6.3234
19.0326,6.3192
19.0291,6.2977
19.0246,6.2623
19.0227,6.2469
19.0227,6.2469
19.0227,6.2469
19.0206,6.2398
19.0182,6.2329
19.0182,6.2329
18.9938,6.1878
18.9713,6.1418
18.9713,6.1418
18.9671,6.1358
18.9626,6.1300
18.9249,6.0953
18.8421,6.0126
18.7629,5.9334
18.7501,5.9175
18.7436,5.9076
18.7170,5.8869
18.7124,5.8829
18.7095,5.8799
18.6917,5.8672
18.6513,5.8357
18.6448,5.8322
18.6382,5.8290
18.6382,5.8290
18.5891,5.8144
18.5406,5.7977
18.5406,5.7977
18.5334,5.7965
18.5261,5.7956
18.5261,5.7956
18.5261,5.7956
18.4749,5.7977
18.3941,5.7977
18.3360,5.7788
18.3000,5.7293
18.2951,5.6987
18.2951,4.7024
18.3140,4.6442
18.3614,4.6089
18.4516,4.5774
18.5579,4.4990
18.6363,4.3927
18.6370,4.3906
18.6459,4.3651
18.6830,4.3164
18.7394,4.2988
18.8249,4.2988
18.8831,4.3177
18.9183,4.3651
18.9280,4.3927
18.9280,4.3927
19.0064,4.4990
19.0064,4.4990
19.0064,4.4990
19.0064,4.4990
19.1127,4.5774
19.1127,4.5774
19.1127,4.5774
19.2373,4.6210
19.2646,4.6235
19.2669,4.6237
19.2669,4.6237
19.2669,4.6237
19.8724,4.6237
19.8724,4.6237
19.9020,4.6210
20.0266,4.5774
20.1329,4.4990
20.2113,4.3927
20.2549,4.2681
20.2576,4.2385
20.2576,3.6580
20.2576,3.6580
20.2576,3.6580
20.2576,3.6580
20.2549,3.6284
20.2549,3.6284
20.2549,3.6284
20.2536,3.6225
20.2554,3.6221
20.2542,3.5693
20.2891,3.5190
20.3468,3.4988
20.3490,3.4987
20.4085,3.4987
20.4666,3.5177
20.4785,3.5277
20.6776,3.7269
20.7054,3.7815
20.7066,3.7969
20.7066,4.2385
20.7094,4.2681
20.7094,4.2681
20.7530,4.3927
20.8181,4.4808
20.8314,4.4990
20.8314,4.4990
20.8314,4.4990
20.9377,4.5774
20.9377,4.5774
20.9377,4.5774
21.0623,4.6210
21.0896,4.6235
21.0919,4.6237
21.0919,4.6237
21.0919,4.6237
21.6974,4.6237
21.6974,4.6237
21.7270,4.6210
21.8516,4.5774
21.9579,4.4990
22.0363,4.3927
22.0799,4.2681
22.0826,4.2385
22.0826,3.6580
22.0826,3.6580
22.0826,3.6580
22.0799,3.6284
22.0799,3.6284
22.0363,3.5038
22.0326,3.4987
21.9579,3.3975
21.9579,3.3975
21.9579,3.3975
21.9535,3.3943
21.8516,3.3191
21.7270,3.2755
21.7270,3.2755
21.7270,3.2755
21.7270,3.2755
21.7270,3.2755
21.6974,3.2727
21.6974,3.2727
21.2558,3.2727
21.1976,3.2538
21.1858,3.2438
20.8754,2.9334
20.8626,2.9175
20.8561,2.9076
20.8295,2.8869
20.8249,2.8829
20.8219,2.8799
20.8042,2.8672
20.7638,2.8357
20.7573,2.8322
20.7507,2.8290
20.7507,2.8290
20.7016,2.8144
20.6531,2.7977
20.6531,2.7977
20.6459,2.7965
20.6386,2.7956
20.6386,2.7956
20.6386,2.7956
20.5874,2.7977
18.9991,2.7977
18.9456,2.7820
18.8712,2.7342
18.8712,2.7342
18.8712,2.7342
18.8712,2.7342
18.7469,2.6978
18.7469,2.6978
18.6174,2.6978
18.6174,2.6978
18.4931,2.7342
18.4931,2.7342
18.3841,2.8043
18.2993,2.9022
18.2454,3.0200
18.2270,3.1482
18.2270,3.1482
18.2287,3.1597
18.2182,3.2200
18.1743,3.2626
18.1307,3.2727
17.5919,3.2727
17.5623,3.2755
17.5623,3.2755
17.4377,3.3191
17.3293,3.3991
17.2713,3.4185
17.2129,3.4000
17.1863,3.3714
17.1084,3.2452
16.9852,3.1220
16.8369,3.0305
16.6714,2.9757
16.5693,2.9652
16.3246,2.9652
16.3246,2.9653
16.3246,3.9543
16.3057,4.0124
16.2562,4.0484
16.2256,4.0533
15.1741,4.0533
15.1741,4.0533
15.1741,4.2354
15.1846,4.3375
15.2394,4.5030
15.2818,4.5718
15.2963,4.6312
15.2730,4.6878
15.2210,4.7199
15.1976,4.7227
14.0668,4.7227
14.0086,4.7038
13.9726,4.6543
13.9726,4.5932
13.9835,4.5702
13.9926,4.5561
13.9926,4.5561
14.0523,4.4253
14.0687,4.3696
14.0687,4.3696
14.0891,4.2273
14.0891,4.1692
14.0871,4.1549
14.0861,4.1408
14.0861,3.7557
14.0871,3.7416
14.0891,3.7273
14.0891,3.6692
14.0687,3.5269
14.0687,3.5269
14.0523,3.4712
13.9926,3.3404
13.9926,3.3404
13.9612,3.2916
13.8671,3.1830
13.8670,3.1829
13.8262,3.1476
13.7946,3.0952
13.7999,3.0342
13.8399,2.9880
13.8910,2.9737
14.0770,2.9737
14.1352,2.9927
14.1470,3.0027
14.2002,3.0559
14.2280,3.1104
14.2282,3.1400
14.2270,3.1482
14.2270,3.1483
14.2454,3.2765
14.2993,3.3943
14.2993,3.3943
14.3659,3.4712
14.3841,3.4922
14.4931,3.5623
14.4931,3.5623
14.6174,3.5987
14.6174,3.5987
14.7469,3.5987
14.7469,3.5987
14.8712,3.5623
14.9802,3.4922
15.0221,3.4438
15.0745,3.4122
15.1355,3.4174
15.1817,3.4575
15.1956,3.5171
15.1909,3.5398
15.1846,3.5590
15.1846,3.5590
15.1741,3.6611
15.1741,3.8432
15.1741,3.8432
16.1146,3.8432
16.1146,3.8432
16.1146,2.9653
16.1146,2.9652
15.8700,2.9652
15.7679,2.9757
15.6024,3.0305
15.4541,3.1220
15.3309,3.2452
15.3103,3.2786
15.2636,3.3182
15.2026,3.3228
15.1506,3.2907
15.1273,3.2341
15.1280,3.2125
15.1373,3.1483
15.1373,3.1482
15.1188,3.0200
15.1042,2.9880
15.0650,2.9022
14.9802,2.8043
14.9802,2.8043
14.9802,2.8043
14.8712,2.7342
14.8712,2.7342
14.8712,2.7342
14.8712,2.7342
14.7469,2.6978
14.7469,2.6978
14.6623,2.6978
14.6041,2.6788
14.5923,2.6688
14.4530,2.5295
14.4407,2.5145
14.4400,2.5134
14.4308,2.4996
14.4078,2.4843
14.4078,2.4843
14.3816,2.4668
14.3396,2.4387
14.3396,2.4387
14.3396,2.4387
14.2533,2.4216
14.2533,2.4216
14.2321,2.4174
14.2321,2.4174
14.2321,2.4174
14.2146,2.4208
14.1953,2.4227
11.0690,2.4227
11.0497,2.4208
11.0321,2.4174
11.0098,2.4218
11.0098,2.4218
10.9092,2.4418
10.8999,2.4550
10.8952,2.4584
10.8591,2.4826
10.8591,2.4826
10.8335,2.4996
10.8335,2.4996
10.8236,2.5145
10.8113,2.5295
10.6134,2.7274
10.5984,2.7397
10.5835,2.7496
10.5835,2.7496
10.5226,2.8408
10.5089,2.9099
10.5012,2.9482
10.5045,2.9647
10.4973,3.0255
10.4609,3.0673
10.3408,3.1445
10.3408,3.1445
10.2969,3.1826
10.2968,3.1826
10.2027,3.2913
10.2027,3.2913
10.1712,3.3402
10.1712,3.3402
10.1115,3.4710
10.0951,3.5268
10.0951,3.5268
10.0747,3.6692
10.0747,3.6692
10.0747,3.7273
10.0767,3.7416
10.0767,3.7416
10.0777,3.7557
10.0777,4.1408
10.0767,4.1549
10.0757,4.1616
10.0747,4.1692
10.0747,4.2273
10.0951,4.3697
10.0951,4.3697
10.1115,4.4255
10.1451,4.4990
10.1712,4.5563
10.1712,4.5563
10.2027,4.6052
10.2027,4.6052
10.2881,4.7038
10.2968,4.7139
10.2969,4.7139
10.2969,4.7139
10.3408,4.7520
10.3408,4.7520
10.4618,4.8297
10.4618,4.8297
10.4618,4.8297
10.5147,4.8539
10.6527,4.8944
10.7103,4.9027
10.7103,4.9027
11.3321,4.9027
11.3321,4.9027
11.4104,4.8871
11.4104,4.8871
11.4193,4.8834
11.4802,4.8786
11.4950,4.8834
11.5039,4.8871
11.5039,4.8871
11.5340,4.8931
11.5624,4.8987
11.5624,4.8987
11.5624,4.8987
11.7650,4.8987
11.8232,4.9177
11.8474,4.9427
11.8835,4.9969
11.8984,5.0068
11.9134,5.0191
12.0613,5.1670
12.0736,5.1820
12.0835,5.1969
12.0835,5.1969
12.0835,5.1969
12.1046,5.2110
12.1047,5.2110
12.1246,5.2243
12.1746,5.2578
12.2550,5.2737
12.2550,5.2737
12.2821,5.2791
12.2997,5.2757
12.3190,5.2737
14.5576,5.2737
14.6158,5.2927
14.6518,5.3422
14.6566,5.3727
14.6566,6.0077
14.6377,6.0659
14.5882,6.1019
14.5770,6.1048
14.5539,6.1094
14.5539,6.1094
14.4876,6.1537
14.4876,6.1537
14.4433,6.2200
14.4433,6.2200
14.4387,6.2431
14.4088,6.2965
14.3532,6.3221
14.3416,6.3228
13.6550,6.3228
13.6550,6.3228
13.5746,6.3387
13.5746,6.3387
13.4754,6.4050
13.4733,6.4019
13.4349,6.4215
13.4194,6.4227
12.3690,6.4227
12.3497,6.4208
12.3321,6.4174
12.3321,6.4174
12.3128,6.4212
12.3128,6.4212
12.2835,6.4270
12.2246,6.4387
12.2246,6.4387
12.2246,6.4387
12.2246,6.4387
12.2114,6.4476
12.1917,6.4608
12.1783,6.4697
12.1591,6.4825
12.1591,6.4825
12.1335,6.4996
12.1335,6.4996
12.1236,6.5145
12.1113,6.5295
11.8134,6.8274
11.7984,6.8397
11.7835,6.8496
11.7835,6.8496
11.7682,6.8726
11.7681,6.8726
11.7681,6.8726
11.7673,6.8739
11.7226,6.9408
11.7226,6.9408
11.7226,6.9408
11.7112,6.9982
11.7066,7.0211
11.7012,7.0482
11.7047,7.0658
11.7066,7.0851
11.7066,9.1420
11.6877,9.2002
11.6382,9.2362
11.5780,9.2362
11.5780,9.2362
11.5779,9.2362
11.5770,9.2362
11.5745,9.2352
11.5712,9.2342
11.5634,9.2319
11.4469,9.1977
11.4469,9.1977
11.3174,9.1977
11.3174,9.1977
11.1931,9.2342
11.1931,9.2342
11.0841,9.3043
10.9993,9.4022
10.9454,9.5200
10.9270,9.6482
10.9270,9.6483
10.9282,9.6565
10.9178,9.7168
10.9002,9.7406
10.5134,10.1274
10.4984,10.1397
10.4835,10.1496
10.4835,10.1496
10.4226,10.2408
10.4226,10.2408
10.4140,10.2843
10.4109,10.2995
10.3810,10.3529
10.3646,10.3647
10.3648,10.3649
10.2408,10.4445
10.2408,10.4445
10.1969,10.4826
10.1968,10.4826
10.1027,10.5913
10.1027,10.5913
10.0712,10.6402
10.0712,10.6402
10.0115,10.7710
9.9951,10.8268
9.9951,10.8268
9.9747,10.9692
9.9747,11.0273
9.9767,11.0416
9.9777,11.0557
9.9777,11.4408
9.9767,11.4549
9.9747,11.4692
9.9747,11.5273
9.5076,11.5273
9.5076,9.0924
9.5266,9.0342
9.5761,8.9982
9.5980,8.9938
9.7175,8.9833
9.7175,8.9833
9.7176,8.9833
9.9458,8.9222
10.1600,8.8223
10.3535,8.6867
10.5206,8.5197
10.6562,8.3261
10.7560,8.1119
10.8172,7.8837
10.8172,7.8836
10.8378,7.6483
10.8378,7.6482
10.8172,7.4128
10.8172,7.4128
10.8172,7.4128
10.7560,7.1846
10.7560,7.1846
10.6562,6.9704
10.6562,6.9704
10.6354,6.9408
10.5250,6.7831
10.5206,6.7769
10.5206,6.7769
10.5206,6.7768
10.3535,6.6098
10.3535,6.6098
10.3535,6.6098
10.1924,6.4970
10.1600,6.4742
10.1600,6.4742
10.1600,6.4742
10.1600,6.4742
9.9458,6.3743
9.9458,6.3743
9.8697,6.3540
9.7176,6.3132
9.7175,6.3132
9.7175,6.3132
9.5980,6.3027
9.5417,6.2788
9.5102,6.2264
9.5076,6.2041
9.5076,2.6515
9.5081,2.6450
9.5154,2.5890
9.5221,2.5384
9.5288,2.5134
9.5662,2.4230
9.5791,2.4007
9.6387,2.3231
9.6570,2.3048
9.7346,2.2453
9.7569,2.2323
9.8473,2.1949
9.8723,2.1882
9.9670,2.1757
9.9789,2.1742
9.9854,2.1738
9.9904,2.1738
21.9739,2.1738
21.9789,2.1738
Z" /> 
</g>
</g>
</g>
<g style="fill:#000000; fill-opacity:1.0000; 
stroke:#000000; stroke-width:0.0000; stroke-opacity:1; 
stroke-linecap:round; stroke-linejoin:round;">
<circle cx="9.9321" cy="10.5482" r="0.1500" /> 
</g>
<g style="fill:#000000; fill-opacity:1.0000; 
stroke:#000000; stroke-width:0.0212; stroke-opacity:1; 
stroke-linecap:round; stroke-linejoin:round;">
</g>
<g style="fill:#000000; fill-opacity:1.0000; 
stroke:#000000; stroke-width:0.0000; stroke-opacity:1; 
stroke-linecap:round; stroke-linejoin:round;">
<circle cx="18.5180" cy="5.5482" r="0.1500" /> 
</g>
<g style="fill:#000000; fill-opacity:1.0000; 
stroke:#000000; stroke-width:0.0212; stroke-opacity:1; 
stroke-linecap:round; stroke-linejoin:round;">
</g>
<g style="fill:#000000; fill-opacity:1.0000; 
stroke:#000000; stroke-width:0.0000; stroke-opacity:1; 
stroke-linecap:round; stroke-linejoin:round;">
<circle cx="16.9821" cy="4.6482" r="0.1500" /> 
</g>
<g style="fill:#000000; fill-opacity:1.0000; 
stroke:#000000; stroke-width:0.0212; stroke-opacity:1; 
stroke-linecap:round; stroke-linejoin:round;">
</g>
<g style="fill:#000000; fill-opacity:1.0000; 
stroke:#000000; stroke-width:0.0000; stroke-opacity:1; 
stroke-linecap:round; stroke-linejoin:round;">
<circle cx="18.6821" cy="3.1482" r="0.1500" /> 
</g>
<g style="fill:#000000; fill-opacity:1.0000; 
stroke:#000000; stroke-width:0.0212; stroke-opacity:1; 
stroke-linecap:round; stroke-linejoin:round;">
</g>
<g style="fill:#000000; fill-opacity:1.0000; 
stroke:#000000; stroke-width:0.0000; stroke-opacity:1; 
stroke-linecap:round; stroke-linejoin:round;">
<circle cx="11.3821" cy="9.6482" r="0.1500" /> 
</g>
<g style="fill:#000000; fill-opacity:1.0000; 
stroke:#000000; stroke-width:0.0212; stroke-opacity:1; 
stroke-linecap:round; stroke-linejoin:round;">
</g>
<g style="fill:#000000; fill-opacity:1.0000; 
stroke:#000000; stroke-width:0.0000; stroke-opacity:1; 
stroke-linecap:round; stroke-linejoin:round;">
<circle cx="20.4821" cy="9.9482" r="0.1500" /> 
</g>
<g style="fill:#000000; fill-opacity:1.0000; 
stroke:#000000; stroke-width:0.0212; stroke-opacity:1; 
stroke-linecap:round; stroke-linejoin:round;">
</g>
<g style="fill:#000000; fill-opacity:1.0000; 
stroke:#000000; stroke-width:0.0000; stroke-opacity:1; 
stroke-linecap:round; stroke-linejoin:round;">
<circle cx="14.6821" cy="3.1482" r="0.1500" /> 
</g>
<g style="fill:#000000; fill-opacity:1.0000; 
stroke:#000000; stroke-width:0.0212; stroke-opacity:1; 
stroke-linecap:round; stroke-linejoin:round;">
</g>
<g style="fill:#000000; fill-opacity:1.0000; 
stroke:#000000; stroke-width:0.0000; stroke-opacity:1; 
stroke-linecap:round; stroke-linejoin:round;">
<circle cx="12.7572" cy="7.9482" r="0.1500" /> 
</g>
<g style="fill:#000000; fill-opacity:1.0000; 
stroke:#000000; stroke-width:0.0212; stroke-opacity:1; 
stroke-linecap:round; stroke-linejoin:round;">
</g>
<g style="fill:#000000; fill-opacity:1.0000; 
stroke:#000000; stroke-width:0.0000; stroke-opacity:1; 
stroke-linecap:round; stroke-linejoin:round;">
<circle cx="12.7572" cy="8.9482" r="0.1500" /> 
</g>
<g style="fill:#000000; fill-opacity:1.0000; 
stroke:#000000; stroke-width:0.0212; stroke-opacity:1; 
stroke-linecap:round; stroke-linejoin:round;">
</g>
<g style="fill:#000000; fill-opacity:1.0000; 
stroke:#000000; stroke-width:0.0000; stroke-opacity:1; 
stroke-linecap:round; stroke-linejoin:round;">
<circle cx="13.2321" cy="9.9982" r="0.1500" /> 
</g>
<g style="fill:#000000; fill-opacity:1.0000; 
stroke:#000000; stroke-width:0.0212; stroke-opacity:1; 
stroke-linecap:round; stroke-linejoin:round;">
</g>
<g style="fill:#000000; fill-opacity:1.0000; 
stroke:#000000; stroke-width:0.0000; stroke-opacity:1; 
stroke-linecap:round; stroke-linejoin:round;">
<circle cx="9.4821" cy="7.6482" r="1.1000" /> 
</g>
<g style="fill:#000000; fill-opacity:1.0000; 
stroke:#000000; stroke-width:0.0212; stroke-opacity:1; 
stroke-linecap:round; stroke-linejoin:round;">
</g>
<g style="fill:#000000; fill-opacity:1.0000; 
stroke:#000000; stroke-width:0.0000; stroke-opacity:1; 
stroke-linecap:round; stroke-linejoin:round;">
<circle cx="22.4821" cy="7.6482" r="1.1000" /> 
</g>
<g style="fill:#000000; fill-opacity:1.0000; 
stroke:#000000; stroke-width:0.0212; stroke-opacity:1; 
stroke-linecap:round; stroke-linejoin:round;">
</g>
<g style="fill:#FFFFFF; fill-opacity:1.0000; 
stroke:#FFFFFF; stroke-width:0.0212; stroke-opacity:1; 
stroke-linecap:round; stroke-linejoin:round;">
</g>
<g style="fill:#2F2D31; fill-opacity:1.0000; 
stroke:#2F2D31; stroke-width:0.0212; stroke-opacity:1; 
stroke-linecap:round; stroke-linejoin:round;">
</g>
<g style="fill:#2F2D31; fill-opacity:1.0000; 
stroke:#2F2D31; stroke-width:0.0500; stroke-opacity:1; 
stroke-linecap:round; stroke-linejoin:round;">
</g>
<g style="fill:#2F2D31; fill-opacity:0.0; 
stroke:#2F2D31; stroke-width:0.0500; stroke-opacity:1; 
stroke-linecap:round; stroke-linejoin:round;">
<path d="M9.4821 12.6482
L9.4821 2.6482
" />
<path d="M9.9821 2.1482 A0.5000 0.5000 0.0 0 0 9.4821 2.6482" />
<path d="M9.9821 2.1482
L21.9821 2.1482
" />
<path d="M9.4821 12.6482 A0.5000 0.5000 0.0 0 0 9.9821 13.1482" />
<path d="M22.4821 2.6482
L22.4821 12.6482
" />
<path d="M21.9821 13.1482 A0.5000 0.5000 0.0 0 0 22.4821 12.6482" />
<path d="M22.4821 2.6482 A0.5000 0.5000 0.0 0 0 21.9821 2.1482" />
<path d="M21.9821 13.1482
L9.9821 13.1482
" />
<g >
</g>
<g >
</g>
<g >
</g>
<g >
</g>
<g >
</g>
<g >
</g>
<g >
</g>
<g >
</g>
<g >
</g>
<g >
</g>
<g >
</g>
<g >
</g>
<g >
</g>
<g >
</g>
<g >
</g>
</g> 
</svg>
