<?xml version="1.0" standalone="no"?>
 <!DOCTYPE svg PUBLIC "-//W3C//DTD SVG 1.1//EN" 
 "http://www.w3.org/Graphics/SVG/1.1/DTD/svg11.dtd"> 
<svg
  xmlns:svg="http://www.w3.org/2000/svg"
  xmlns="http://www.w3.org/2000/svg"
  xmlns:xlink="http://www.w3.org/1999/xlink"
  version="1.1"
  width="59.0804mm" height="59.3090mm" viewBox="0.0000 0.0000 59.0804 59.3090">
<title>SVG Image created as working-brd.svg date 2023/09/19 16:11:46 </title>
  <desc>Image generated by PCBNEW </desc>
<g style="fill:#000000; fill-opacity:1.0000;stroke:#000000; stroke-opacity:1.0000;
stroke-linecap:round; stroke-linejoin:round;"
 transform="translate(0 0) scale(1 1)">
</g>
<g style="fill:#000000; fill-opacity:0.0; 
stroke:#000000; stroke-width:0.0000; stroke-opacity:1; 
stroke-linecap:round; stroke-linejoin:round;">
</g>
<g style="fill:#000000; fill-opacity:1.0000; 
stroke:#000000; stroke-width:0.0212; stroke-opacity:1; 
stroke-linecap:round; stroke-linejoin:round;">
<rect x="-5.000000" y="-5.000000" width="69.102168" height="69.327104" rx="0.000000" />
</g>
<g style="fill:#FFFFFF; fill-opacity:1.0000; 
stroke:#FFFFFF; stroke-width:0.0212; stroke-opacity:1; 
stroke-linecap:round; stroke-linejoin:round;">
<g >
</g>
<g >
</g>
<g >
</g>
<g >
</g>
<g >
</g>
<g >
</g>
<g >
</g>
<g >
</g>
<g >
</g>
<g >
</g>
<g >
</g>
<g >
</g>
</g>
<g style="fill:#000000; fill-opacity:1.0000; 
stroke:#000000; stroke-width:0.0212; stroke-opacity:1; 
stroke-linecap:round; stroke-linejoin:round;">
</g>
<g style="fill:#FFFFFF; fill-opacity:1.0000; 
stroke:#FFFFFF; stroke-width:0.0212; stroke-opacity:1; 
stroke-linecap:round; stroke-linejoin:round;">
<g >
</g>
<g style="fill:#37CBCB; fill-opacity:1.0000; 
stroke:#37CBCB; stroke-width:0.0212; stroke-opacity:1; 
stroke-linecap:round; stroke-linejoin:round;">
</g>
<g style="fill:#37CBCB; fill-opacity:1.0000; 
stroke:#37CBCB; stroke-width:0.0000; stroke-opacity:1; 
stroke-linecap:round; stroke-linejoin:round;">
<path style="fill:#37CBCB; fill-opacity:1.0000; 
stroke:#37CBCB; stroke-width:0.0000; stroke-opacity:1; 
stroke-linecap:round; stroke-linejoin:round;fill-rule:evenodd;"
d="M 12.0403,22.4704
10.7398,22.4704
10.7398,22.1706
12.0403,22.1706
Z" /> 
<path style="fill:#37CBCB; fill-opacity:1.0000; 
stroke:#37CBCB; stroke-width:0.0000; stroke-opacity:1; 
stroke-linecap:round; stroke-linejoin:round;fill-rule:evenodd;"
d="M 12.0403,21.8354
10.7398,21.8354
10.7398,21.5356
12.0403,21.5356
Z" /> 
<path style="fill:#37CBCB; fill-opacity:1.0000; 
stroke:#37CBCB; stroke-width:0.0000; stroke-opacity:1; 
stroke-linecap:round; stroke-linejoin:round;fill-rule:evenodd;"
d="M 12.0403,21.1750
10.7398,21.1750
10.7398,20.8752
12.0403,20.8752
Z" /> 
<path style="fill:#37CBCB; fill-opacity:1.0000; 
stroke:#37CBCB; stroke-width:0.0000; stroke-opacity:1; 
stroke-linecap:round; stroke-linejoin:round;fill-rule:evenodd;"
d="M 12.0403,20.5400
10.7398,20.5400
10.7398,20.2402
12.0403,20.2402
Z" /> 
<path style="fill:#37CBCB; fill-opacity:1.0000; 
stroke:#37CBCB; stroke-width:0.0000; stroke-opacity:1; 
stroke-linecap:round; stroke-linejoin:round;fill-rule:evenodd;"
d="M 12.0403,19.8796
10.7398,19.8796
10.7398,19.5798
12.0403,19.5798
Z" /> 
<path style="fill:#37CBCB; fill-opacity:1.0000; 
stroke:#37CBCB; stroke-width:0.0000; stroke-opacity:1; 
stroke-linecap:round; stroke-linejoin:round;fill-rule:evenodd;"
d="M 12.0403,19.2319
10.7398,19.2319
10.7398,18.9321
12.0403,18.9321
Z" /> 
<path style="fill:#37CBCB; fill-opacity:1.0000; 
stroke:#37CBCB; stroke-width:0.0000; stroke-opacity:1; 
stroke-linecap:round; stroke-linejoin:round;fill-rule:evenodd;"
d="M 12.0403,18.5842
10.7398,18.5842
10.7398,18.2844
12.0403,18.2844
Z" /> 
<path style="fill:#37CBCB; fill-opacity:1.0000; 
stroke:#37CBCB; stroke-width:0.0000; stroke-opacity:1; 
stroke-linecap:round; stroke-linejoin:round;fill-rule:evenodd;"
d="M 6.4523,18.5842
5.1518,18.5842
5.1518,18.2844
6.4523,18.2844
Z" /> 
<path style="fill:#37CBCB; fill-opacity:1.0000; 
stroke:#37CBCB; stroke-width:0.0000; stroke-opacity:1; 
stroke-linecap:round; stroke-linejoin:round;fill-rule:evenodd;"
d="M 6.4523,19.2319
5.1518,19.2319
5.1518,18.9321
6.4523,18.9321
Z" /> 
<path style="fill:#37CBCB; fill-opacity:1.0000; 
stroke:#37CBCB; stroke-width:0.0000; stroke-opacity:1; 
stroke-linecap:round; stroke-linejoin:round;fill-rule:evenodd;"
d="M 6.4523,19.8796
5.1518,19.8796
5.1518,19.5798
6.4523,19.5798
Z" /> 
<path style="fill:#37CBCB; fill-opacity:1.0000; 
stroke:#37CBCB; stroke-width:0.0000; stroke-opacity:1; 
stroke-linecap:round; stroke-linejoin:round;fill-rule:evenodd;"
d="M 6.4523,20.5400
5.1518,20.5400
5.1518,20.2402
6.4523,20.2402
Z" /> 
<path style="fill:#37CBCB; fill-opacity:1.0000; 
stroke:#37CBCB; stroke-width:0.0000; stroke-opacity:1; 
stroke-linecap:round; stroke-linejoin:round;fill-rule:evenodd;"
d="M 6.4523,21.1877
5.1518,21.1877
5.1518,20.8879
6.4523,20.8879
Z" /> 
<path style="fill:#37CBCB; fill-opacity:1.0000; 
stroke:#37CBCB; stroke-width:0.0000; stroke-opacity:1; 
stroke-linecap:round; stroke-linejoin:round;fill-rule:evenodd;"
d="M 6.4523,21.8354
5.1518,21.8354
5.1518,21.5356
6.4523,21.5356
Z" /> 
<path style="fill:#37CBCB; fill-opacity:1.0000; 
stroke:#37CBCB; stroke-width:0.0000; stroke-opacity:1; 
stroke-linecap:round; stroke-linejoin:round;fill-rule:evenodd;"
d="M 6.4523,22.4831
5.1518,22.4831
5.1518,22.1833
6.4523,22.1833
Z" /> 
</g>
<g >
</g>
<g style="fill:#37CBCB; fill-opacity:1.0000; 
stroke:#37CBCB; stroke-width:0.0000; stroke-opacity:1; 
stroke-linecap:round; stroke-linejoin:round;">
<path style="fill:#37CBCB; fill-opacity:1.0000; 
stroke:#37CBCB; stroke-width:0.0000; stroke-opacity:1; 
stroke-linecap:round; stroke-linejoin:round;fill-rule:evenodd;"
d="M 23.9631,46.8061
22.4391,46.8061
22.4391,46.0441
23.9631,46.0441
Z" /> 
<path style="fill:#37CBCB; fill-opacity:1.0000; 
stroke:#37CBCB; stroke-width:0.0000; stroke-opacity:1; 
stroke-linecap:round; stroke-linejoin:round;fill-rule:evenodd;"
d="M 23.9631,45.5361
22.4391,45.5361
22.4391,44.7741
23.9631,44.7741
Z" /> 
<path style="fill:#37CBCB; fill-opacity:1.0000; 
stroke:#37CBCB; stroke-width:0.0000; stroke-opacity:1; 
stroke-linecap:round; stroke-linejoin:round;fill-rule:evenodd;"
d="M 23.9631,44.2661
22.4391,44.2661
22.4391,43.5041
23.9631,43.5041
Z" /> 
<path style="fill:#37CBCB; fill-opacity:1.0000; 
stroke:#37CBCB; stroke-width:0.0000; stroke-opacity:1; 
stroke-linecap:round; stroke-linejoin:round;fill-rule:evenodd;"
d="M 23.9631,42.9961
22.4391,42.9961
22.4391,42.2341
23.9631,42.2341
Z" /> 
<path style="fill:#37CBCB; fill-opacity:1.0000; 
stroke:#37CBCB; stroke-width:0.0000; stroke-opacity:1; 
stroke-linecap:round; stroke-linejoin:round;fill-rule:evenodd;"
d="M 23.9631,41.7261
22.4391,41.7261
22.4391,40.9641
23.9631,40.9641
Z" /> 
<path style="fill:#37CBCB; fill-opacity:1.0000; 
stroke:#37CBCB; stroke-width:0.0000; stroke-opacity:1; 
stroke-linecap:round; stroke-linejoin:round;fill-rule:evenodd;"
d="M 23.9631,40.4561
22.4391,40.4561
22.4391,39.6941
23.9631,39.6941
Z" /> 
<path style="fill:#37CBCB; fill-opacity:1.0000; 
stroke:#37CBCB; stroke-width:0.0000; stroke-opacity:1; 
stroke-linecap:round; stroke-linejoin:round;fill-rule:evenodd;"
d="M 23.9631,39.1861
22.4391,39.1861
22.4391,38.4241
23.9631,38.4241
Z" /> 
<path style="fill:#37CBCB; fill-opacity:1.0000; 
stroke:#37CBCB; stroke-width:0.0000; stroke-opacity:1; 
stroke-linecap:round; stroke-linejoin:round;fill-rule:evenodd;"
d="M 23.9631,37.9161
22.4391,37.9161
22.4391,37.1541
23.9631,37.1541
Z" /> 
<path style="fill:#37CBCB; fill-opacity:1.0000; 
stroke:#37CBCB; stroke-width:0.0000; stroke-opacity:1; 
stroke-linecap:round; stroke-linejoin:round;fill-rule:evenodd;"
d="M 23.9631,36.6461
22.4391,36.6461
22.4391,35.8841
23.9631,35.8841
Z" /> 
<path style="fill:#37CBCB; fill-opacity:1.0000; 
stroke:#37CBCB; stroke-width:0.0000; stroke-opacity:1; 
stroke-linecap:round; stroke-linejoin:round;fill-rule:evenodd;"
d="M 23.9631,35.3761
22.4391,35.3761
22.4391,34.6141
23.9631,34.6141
Z" /> 
<path style="fill:#37CBCB; fill-opacity:1.0000; 
stroke:#37CBCB; stroke-width:0.0000; stroke-opacity:1; 
stroke-linecap:round; stroke-linejoin:round;fill-rule:evenodd;"
d="M 23.9631,34.1061
22.4391,34.1061
22.4391,33.3441
23.9631,33.3441
Z" /> 
<path style="fill:#37CBCB; fill-opacity:1.0000; 
stroke:#37CBCB; stroke-width:0.0000; stroke-opacity:1; 
stroke-linecap:round; stroke-linejoin:round;fill-rule:evenodd;"
d="M 23.9631,32.7091
22.4391,32.7091
22.4391,31.9471
23.9631,31.9471
Z" /> 
<path style="fill:#37CBCB; fill-opacity:1.0000; 
stroke:#37CBCB; stroke-width:0.0000; stroke-opacity:1; 
stroke-linecap:round; stroke-linejoin:round;fill-rule:evenodd;"
d="M 16.3431,32.8361
14.8191,32.8361
14.8191,32.0741
16.3431,32.0741
Z" /> 
<path style="fill:#37CBCB; fill-opacity:1.0000; 
stroke:#37CBCB; stroke-width:0.0000; stroke-opacity:1; 
stroke-linecap:round; stroke-linejoin:round;fill-rule:evenodd;"
d="M 16.3431,34.1061
14.8191,34.1061
14.8191,33.3441
16.3431,33.3441
Z" /> 
<path style="fill:#37CBCB; fill-opacity:1.0000; 
stroke:#37CBCB; stroke-width:0.0000; stroke-opacity:1; 
stroke-linecap:round; stroke-linejoin:round;fill-rule:evenodd;"
d="M 16.3431,35.3761
14.8191,35.3761
14.8191,34.6141
16.3431,34.6141
Z" /> 
<path style="fill:#37CBCB; fill-opacity:1.0000; 
stroke:#37CBCB; stroke-width:0.0000; stroke-opacity:1; 
stroke-linecap:round; stroke-linejoin:round;fill-rule:evenodd;"
d="M 16.3431,36.6461
14.8191,36.6461
14.8191,35.8841
16.3431,35.8841
Z" /> 
<path style="fill:#37CBCB; fill-opacity:1.0000; 
stroke:#37CBCB; stroke-width:0.0000; stroke-opacity:1; 
stroke-linecap:round; stroke-linejoin:round;fill-rule:evenodd;"
d="M 16.3431,37.9161
14.8191,37.9161
14.8191,37.1541
16.3431,37.1541
Z" /> 
<path style="fill:#37CBCB; fill-opacity:1.0000; 
stroke:#37CBCB; stroke-width:0.0000; stroke-opacity:1; 
stroke-linecap:round; stroke-linejoin:round;fill-rule:evenodd;"
d="M 16.3431,39.1861
14.8191,39.1861
14.8191,38.4241
16.3431,38.4241
Z" /> 
<path style="fill:#37CBCB; fill-opacity:1.0000; 
stroke:#37CBCB; stroke-width:0.0000; stroke-opacity:1; 
stroke-linecap:round; stroke-linejoin:round;fill-rule:evenodd;"
d="M 16.3431,40.4561
14.8191,40.4561
14.8191,39.6941
16.3431,39.6941
Z" /> 
<path style="fill:#37CBCB; fill-opacity:1.0000; 
stroke:#37CBCB; stroke-width:0.0000; stroke-opacity:1; 
stroke-linecap:round; stroke-linejoin:round;fill-rule:evenodd;"
d="M 16.3431,41.7261
14.8191,41.7261
14.8191,40.9641
16.3431,40.9641
Z" /> 
<path style="fill:#37CBCB; fill-opacity:1.0000; 
stroke:#37CBCB; stroke-width:0.0000; stroke-opacity:1; 
stroke-linecap:round; stroke-linejoin:round;fill-rule:evenodd;"
d="M 16.3431,42.9961
14.8191,42.9961
14.8191,42.2341
16.3431,42.2341
Z" /> 
<path style="fill:#37CBCB; fill-opacity:1.0000; 
stroke:#37CBCB; stroke-width:0.0000; stroke-opacity:1; 
stroke-linecap:round; stroke-linejoin:round;fill-rule:evenodd;"
d="M 16.3431,44.2661
14.8191,44.2661
14.8191,43.5041
16.3431,43.5041
Z" /> 
<path style="fill:#37CBCB; fill-opacity:1.0000; 
stroke:#37CBCB; stroke-width:0.0000; stroke-opacity:1; 
stroke-linecap:round; stroke-linejoin:round;fill-rule:evenodd;"
d="M 16.3431,45.5361
14.8191,45.5361
14.8191,44.7741
16.3431,44.7741
Z" /> 
<path style="fill:#37CBCB; fill-opacity:1.0000; 
stroke:#37CBCB; stroke-width:0.0000; stroke-opacity:1; 
stroke-linecap:round; stroke-linejoin:round;fill-rule:evenodd;"
d="M 16.3431,46.8061
14.8191,46.8061
14.8191,46.0441
16.3431,46.0441
Z" /> 
</g>
<g >
</g>
<g style="fill:#37CBCB; fill-opacity:1.0000; 
stroke:#37CBCB; stroke-width:0.0000; stroke-opacity:1; 
stroke-linecap:round; stroke-linejoin:round;">
<path style="fill:#37CBCB; fill-opacity:1.0000; 
stroke:#37CBCB; stroke-width:0.0000; stroke-opacity:1; 
stroke-linecap:round; stroke-linejoin:round;fill-rule:evenodd;"
d="M 26.3126,22.6126
26.3126,21.4696
26.9476,21.4696
26.9476,22.6126
Z" /> 
<path style="fill:#37CBCB; fill-opacity:1.0000; 
stroke:#37CBCB; stroke-width:0.0000; stroke-opacity:1; 
stroke-linecap:round; stroke-linejoin:round;fill-rule:evenodd;"
d="M 27.8366,22.6126
27.8366,21.4696
28.4716,21.4696
28.4716,22.6126
Z" /> 
</g>
<g >
</g>
<g style="fill:#37CBCB; fill-opacity:1.0000; 
stroke:#37CBCB; stroke-width:0.0000; stroke-opacity:1; 
stroke-linecap:round; stroke-linejoin:round;">
<path style="fill:#37CBCB; fill-opacity:1.0000; 
stroke:#37CBCB; stroke-width:0.0000; stroke-opacity:1; 
stroke-linecap:round; stroke-linejoin:round;fill-rule:evenodd;"
d="M 32.6626,30.8676
32.6626,29.7246
33.2976,29.7246
33.2976,30.8676
Z" /> 
<path style="fill:#37CBCB; fill-opacity:1.0000; 
stroke:#37CBCB; stroke-width:0.0000; stroke-opacity:1; 
stroke-linecap:round; stroke-linejoin:round;fill-rule:evenodd;"
d="M 34.1866,30.8676
34.1866,29.7246
34.8216,29.7246
34.8216,30.8676
Z" /> 
</g>
<g >
</g>
<g style="fill:#37CBCB; fill-opacity:1.0000; 
stroke:#37CBCB; stroke-width:0.0000; stroke-opacity:1; 
stroke-linecap:round; stroke-linejoin:round;">
<path style="fill:#37CBCB; fill-opacity:1.0000; 
stroke:#37CBCB; stroke-width:0.0000; stroke-opacity:1; 
stroke-linecap:round; stroke-linejoin:round;fill-rule:evenodd;"
d="M 44.2196,40.1386
44.2196,38.9956
44.8546,38.9956
44.8546,40.1386
Z" /> 
<path style="fill:#37CBCB; fill-opacity:1.0000; 
stroke:#37CBCB; stroke-width:0.0000; stroke-opacity:1; 
stroke-linecap:round; stroke-linejoin:round;fill-rule:evenodd;"
d="M 45.7436,40.1386
45.7436,38.9956
46.3786,38.9956
46.3786,40.1386
Z" /> 
</g>
<g >
</g>
<g style="fill:#37CBCB; fill-opacity:1.0000; 
stroke:#37CBCB; stroke-width:0.0000; stroke-opacity:1; 
stroke-linecap:round; stroke-linejoin:round;">
<path style="fill:#37CBCB; fill-opacity:1.0000; 
stroke:#37CBCB; stroke-width:0.0000; stroke-opacity:1; 
stroke-linecap:round; stroke-linejoin:round;fill-rule:evenodd;"
d="M 29.8165,56.7718
28.0157,56.7718
28.0157,55.1741
29.8165,55.1741
Z" /> 
<path style="fill:#37CBCB; fill-opacity:1.0000; 
stroke:#37CBCB; stroke-width:0.0000; stroke-opacity:1; 
stroke-linecap:round; stroke-linejoin:round;fill-rule:evenodd;"
d="M 29.8165,53.9321
28.0157,53.9321
28.0157,52.3344
29.8165,52.3344
Z" /> 
</g>
<g >
</g>
<g style="fill:#37CBCB; fill-opacity:1.0000; 
stroke:#37CBCB; stroke-width:0.0000; stroke-opacity:1; 
stroke-linecap:round; stroke-linejoin:round;">
<path style="fill:#37CBCB; fill-opacity:1.0000; 
stroke:#37CBCB; stroke-width:0.0000; stroke-opacity:1; 
stroke-linecap:round; stroke-linejoin:round;fill-rule:evenodd;"
d="M 44.8584,19.6395
44.8584,17.8387
46.4561,17.8387
46.4561,19.6395
Z" /> 
<path style="fill:#37CBCB; fill-opacity:1.0000; 
stroke:#37CBCB; stroke-width:0.0000; stroke-opacity:1; 
stroke-linecap:round; stroke-linejoin:round;fill-rule:evenodd;"
d="M 47.6981,19.6395
47.6981,17.8387
49.2958,17.8387
49.2958,19.6395
Z" /> 
</g>
<g >
</g>
<g style="fill:#37CBCB; fill-opacity:1.0000; 
stroke:#37CBCB; stroke-width:0.0000; stroke-opacity:1; 
stroke-linecap:round; stroke-linejoin:round;">
<path style="fill:#37CBCB; fill-opacity:1.0000; 
stroke:#37CBCB; stroke-width:0.0000; stroke-opacity:1; 
stroke-linecap:round; stroke-linejoin:round;fill-rule:evenodd;"
d="M 7.2664,55.5805
7.2664,53.7797
8.8641,53.7797
8.8641,55.5805
Z" /> 
<path style="fill:#37CBCB; fill-opacity:1.0000; 
stroke:#37CBCB; stroke-width:0.0000; stroke-opacity:1; 
stroke-linecap:round; stroke-linejoin:round;fill-rule:evenodd;"
d="M 10.1061,55.5805
10.1061,53.7797
11.7038,53.7797
11.7038,55.5805
Z" /> 
</g>
<g >
</g>
<g style="fill:#37CBCB; fill-opacity:1.0000; 
stroke:#37CBCB; stroke-width:0.0000; stroke-opacity:1; 
stroke-linecap:round; stroke-linejoin:round;">
<path style="fill:#37CBCB; fill-opacity:1.0000; 
stroke:#37CBCB; stroke-width:0.0000; stroke-opacity:1; 
stroke-linecap:round; stroke-linejoin:round;fill-rule:evenodd;"
d="M 48.1083,55.6174
46.8078,55.6174
46.8078,55.3176
48.1083,55.3176
Z" /> 
<path style="fill:#37CBCB; fill-opacity:1.0000; 
stroke:#37CBCB; stroke-width:0.0000; stroke-opacity:1; 
stroke-linecap:round; stroke-linejoin:round;fill-rule:evenodd;"
d="M 48.1083,54.9824
46.8078,54.9824
46.8078,54.6826
48.1083,54.6826
Z" /> 
<path style="fill:#37CBCB; fill-opacity:1.0000; 
stroke:#37CBCB; stroke-width:0.0000; stroke-opacity:1; 
stroke-linecap:round; stroke-linejoin:round;fill-rule:evenodd;"
d="M 48.1083,54.3220
46.8078,54.3220
46.8078,54.0222
48.1083,54.0222
Z" /> 
<path style="fill:#37CBCB; fill-opacity:1.0000; 
stroke:#37CBCB; stroke-width:0.0000; stroke-opacity:1; 
stroke-linecap:round; stroke-linejoin:round;fill-rule:evenodd;"
d="M 48.1083,53.6870
46.8078,53.6870
46.8078,53.3872
48.1083,53.3872
Z" /> 
<path style="fill:#37CBCB; fill-opacity:1.0000; 
stroke:#37CBCB; stroke-width:0.0000; stroke-opacity:1; 
stroke-linecap:round; stroke-linejoin:round;fill-rule:evenodd;"
d="M 48.1083,53.0266
46.8078,53.0266
46.8078,52.7268
48.1083,52.7268
Z" /> 
<path style="fill:#37CBCB; fill-opacity:1.0000; 
stroke:#37CBCB; stroke-width:0.0000; stroke-opacity:1; 
stroke-linecap:round; stroke-linejoin:round;fill-rule:evenodd;"
d="M 48.1083,52.3789
46.8078,52.3789
46.8078,52.0791
48.1083,52.0791
Z" /> 
<path style="fill:#37CBCB; fill-opacity:1.0000; 
stroke:#37CBCB; stroke-width:0.0000; stroke-opacity:1; 
stroke-linecap:round; stroke-linejoin:round;fill-rule:evenodd;"
d="M 48.1083,51.7312
46.8078,51.7312
46.8078,51.4314
48.1083,51.4314
Z" /> 
<path style="fill:#37CBCB; fill-opacity:1.0000; 
stroke:#37CBCB; stroke-width:0.0000; stroke-opacity:1; 
stroke-linecap:round; stroke-linejoin:round;fill-rule:evenodd;"
d="M 42.5203,51.7312
41.2198,51.7312
41.2198,51.4314
42.5203,51.4314
Z" /> 
<path style="fill:#37CBCB; fill-opacity:1.0000; 
stroke:#37CBCB; stroke-width:0.0000; stroke-opacity:1; 
stroke-linecap:round; stroke-linejoin:round;fill-rule:evenodd;"
d="M 42.5203,52.3789
41.2198,52.3789
41.2198,52.0791
42.5203,52.0791
Z" /> 
<path style="fill:#37CBCB; fill-opacity:1.0000; 
stroke:#37CBCB; stroke-width:0.0000; stroke-opacity:1; 
stroke-linecap:round; stroke-linejoin:round;fill-rule:evenodd;"
d="M 42.5203,53.0266
41.2198,53.0266
41.2198,52.7268
42.5203,52.7268
Z" /> 
<path style="fill:#37CBCB; fill-opacity:1.0000; 
stroke:#37CBCB; stroke-width:0.0000; stroke-opacity:1; 
stroke-linecap:round; stroke-linejoin:round;fill-rule:evenodd;"
d="M 42.5203,53.6870
41.2198,53.6870
41.2198,53.3872
42.5203,53.3872
Z" /> 
<path style="fill:#37CBCB; fill-opacity:1.0000; 
stroke:#37CBCB; stroke-width:0.0000; stroke-opacity:1; 
stroke-linecap:round; stroke-linejoin:round;fill-rule:evenodd;"
d="M 42.5203,54.3347
41.2198,54.3347
41.2198,54.0349
42.5203,54.0349
Z" /> 
<path style="fill:#37CBCB; fill-opacity:1.0000; 
stroke:#37CBCB; stroke-width:0.0000; stroke-opacity:1; 
stroke-linecap:round; stroke-linejoin:round;fill-rule:evenodd;"
d="M 42.5203,54.9824
41.2198,54.9824
41.2198,54.6826
42.5203,54.6826
Z" /> 
<path style="fill:#37CBCB; fill-opacity:1.0000; 
stroke:#37CBCB; stroke-width:0.0000; stroke-opacity:1; 
stroke-linecap:round; stroke-linejoin:round;fill-rule:evenodd;"
d="M 42.5203,55.6301
41.2198,55.6301
41.2198,55.3303
42.5203,55.3303
Z" /> 
</g>
<g >
</g>
<g >
</g>
<g >
</g>
</g>
<g style="fill:#000000; fill-opacity:1.0000; 
stroke:#000000; stroke-width:0.0000; stroke-opacity:1; 
stroke-linecap:round; stroke-linejoin:round;">
</g>
<g style="fill:#FFFFFF; fill-opacity:1.0000; 
stroke:#FFFFFF; stroke-width:0.0000; stroke-opacity:1; 
stroke-linecap:round; stroke-linejoin:round;">
<g >
</g>
<g >
</g>
<g >
</g>
<g >
</g>
<g >
</g>
<g >
</g>
<g >
</g>
<g >
</g>
<g >
</g>
<g >
</g>
<g >
</g>
<g >
</g>
</g>
<g style="fill:#FFFFFF; fill-opacity:1.0000; 
stroke:#FFFFFF; stroke-width:0.0000; stroke-opacity:1; 
stroke-linecap:round; stroke-linejoin:round;">
</g>
<g style="fill:#2F2D31; fill-opacity:1.0000; 
stroke:#2F2D31; stroke-width:0.0000; stroke-opacity:1; 
stroke-linecap:round; stroke-linejoin:round;">
</g>
<g style="fill:#2F2D31; fill-opacity:1.0000; 
stroke:#2F2D31; stroke-width:0.1500; stroke-opacity:1; 
stroke-linecap:round; stroke-linejoin:round;">
</g>
<g style="fill:#2F2D31; fill-opacity:0.0; 
stroke:#2F2D31; stroke-width:0.1500; stroke-opacity:1; 
stroke-linecap:round; stroke-linejoin:round;">
<path d="M1.4841 59.2521
L57.3641 59.2521
" />
<path d="M1.4841 14.5481
L1.4841 59.2521
" />
<path d="M57.3641 59.2521
L57.3641 14.5481
" />
<path d="M57.3641 14.5481
L1.4841 14.5481
" />
</g>
<g style="fill:#2F2D31; fill-opacity:0.0; 
stroke:#2F2D31; stroke-width:0.3048; stroke-opacity:1; 
stroke-linecap:round; stroke-linejoin:round;">
<text x="29.5511" y="2.1885"
textLength="40.4513" font-size="2.0320" lengthAdjust="spacingAndGlyphs"
text-anchor="middle" opacity="0">NOTE: THIS IS JUST A TEST BOARD</text>
<g class="stroked-text"><desc>NOTE: THIS IS JUST A TEST BOARD</desc>
<path d="M9.9931 2.1156
L9.9931 0.5916
" />
<path d="M9.9931 0.5916
L10.8639 2.1156
" />
<path d="M10.8639 2.1156
L10.8639 0.5916
" />
<path d="M11.8799 0.5916
L12.1702 0.5916
" />
<path d="M12.1702 0.5916
L12.3154 0.6642
" />
<path d="M12.3154 0.6642
L12.4605 0.8094
" />
<path d="M12.4605 0.8094
L12.5331 1.0996
" />
<path d="M12.5331 1.0996
L12.5331 1.6076
" />
<path d="M12.5331 1.6076
L12.4605 1.8979
" />
<path d="M12.4605 1.8979
L12.3154 2.0431
" />
<path d="M12.3154 2.0431
L12.1702 2.1156
" />
<path d="M12.1702 2.1156
L11.8799 2.1156
" />
<path d="M11.8799 2.1156
L11.7348 2.0431
" />
<path d="M11.7348 2.0431
L11.5897 1.8979
" />
<path d="M11.5897 1.8979
L11.5171 1.6076
" />
<path d="M11.5171 1.6076
L11.5171 1.0996
" />
<path d="M11.5171 1.0996
L11.5897 0.8094
" />
<path d="M11.5897 0.8094
L11.7348 0.6642
" />
<path d="M11.7348 0.6642
L11.8799 0.5916
" />
<path d="M12.9685 0.5916
L13.8394 0.5916
" />
<path d="M13.4039 2.1156
L13.4039 0.5916
" />
<path d="M14.3474 1.3174
L14.8554 1.3174
" />
<path d="M15.0731 2.1156
L14.3474 2.1156
" />
<path d="M14.3474 2.1156
L14.3474 0.5916
" />
<path d="M14.3474 0.5916
L15.0731 0.5916
" />
<path d="M15.7262 1.9705
L15.7988 2.0431
" />
<path d="M15.7988 2.0431
L15.7262 2.1156
" />
<path d="M15.7262 2.1156
L15.6537 2.0431
" />
<path d="M15.6537 2.0431
L15.7262 1.9705
" />
<path d="M15.7262 1.9705
L15.7262 2.1156
" />
<path d="M15.7262 1.1722
L15.7988 1.2448
" />
<path d="M15.7988 1.2448
L15.7262 1.3174
" />
<path d="M15.7262 1.3174
L15.6537 1.2448
" />
<path d="M15.6537 1.2448
L15.7262 1.1722
" />
<path d="M15.7262 1.1722
L15.7262 1.3174
" />
<path d="M17.3954 0.5916
L18.2662 0.5916
" />
<path d="M17.8308 2.1156
L17.8308 0.5916
" />
<path d="M18.7742 2.1156
L18.7742 0.5916
" />
<path d="M18.7742 1.3174
L19.6451 1.3174
" />
<path d="M19.6451 2.1156
L19.6451 0.5916
" />
<path d="M20.3708 2.1156
L20.3708 0.5916
" />
<path d="M21.0239 2.0431
L21.2417 2.1156
" />
<path d="M21.2417 2.1156
L21.6045 2.1156
" />
<path d="M21.6045 2.1156
L21.7497 2.0431
" />
<path d="M21.7497 2.0431
L21.8222 1.9705
" />
<path d="M21.8222 1.9705
L21.8948 1.8254
" />
<path d="M21.8948 1.8254
L21.8948 1.6802
" />
<path d="M21.8948 1.6802
L21.8222 1.5351
" />
<path d="M21.8222 1.5351
L21.7497 1.4625
" />
<path d="M21.7497 1.4625
L21.6045 1.3899
" />
<path d="M21.6045 1.3899
L21.3142 1.3174
" />
<path d="M21.3142 1.3174
L21.1691 1.2448
" />
<path d="M21.1691 1.2448
L21.0965 1.1722
" />
<path d="M21.0965 1.1722
L21.0239 1.0271
" />
<path d="M21.0239 1.0271
L21.0239 0.8819
" />
<path d="M21.0239 0.8819
L21.0965 0.7368
" />
<path d="M21.0965 0.7368
L21.1691 0.6642
" />
<path d="M21.1691 0.6642
L21.3142 0.5916
" />
<path d="M21.3142 0.5916
L21.6771 0.5916
" />
<path d="M21.6771 0.5916
L21.8948 0.6642
" />
<path d="M23.7091 2.1156
L23.7091 0.5916
" />
<path d="M24.3622 2.0431
L24.5799 2.1156
" />
<path d="M24.5799 2.1156
L24.9428 2.1156
" />
<path d="M24.9428 2.1156
L25.0879 2.0431
" />
<path d="M25.0879 2.0431
L25.1605 1.9705
" />
<path d="M25.1605 1.9705
L25.2331 1.8254
" />
<path d="M25.2331 1.8254
L25.2331 1.6802
" />
<path d="M25.2331 1.6802
L25.1605 1.5351
" />
<path d="M25.1605 1.5351
L25.0879 1.4625
" />
<path d="M25.0879 1.4625
L24.9428 1.3899
" />
<path d="M24.9428 1.3899
L24.6525 1.3174
" />
<path d="M24.6525 1.3174
L24.5074 1.2448
" />
<path d="M24.5074 1.2448
L24.4348 1.1722
" />
<path d="M24.4348 1.1722
L24.3622 1.0271
" />
<path d="M24.3622 1.0271
L24.3622 0.8819
" />
<path d="M24.3622 0.8819
L24.4348 0.7368
" />
<path d="M24.4348 0.7368
L24.5074 0.6642
" />
<path d="M24.5074 0.6642
L24.6525 0.5916
" />
<path d="M24.6525 0.5916
L25.0154 0.5916
" />
<path d="M25.0154 0.5916
L25.2331 0.6642
" />
<path d="M27.4828 0.5916
L27.4828 1.6802
" />
<path d="M27.4828 1.6802
L27.4102 1.8979
" />
<path d="M27.4102 1.8979
L27.2651 2.0431
" />
<path d="M27.2651 2.0431
L27.0474 2.1156
" />
<path d="M27.0474 2.1156
L26.9022 2.1156
" />
<path d="M28.2085 0.5916
L28.2085 1.8254
" />
<path d="M28.2085 1.8254
L28.2811 1.9705
" />
<path d="M28.2811 1.9705
L28.3537 2.0431
" />
<path d="M28.3537 2.0431
L28.4988 2.1156
" />
<path d="M28.4988 2.1156
L28.7891 2.1156
" />
<path d="M28.7891 2.1156
L28.9342 2.0431
" />
<path d="M28.9342 2.0431
L29.0068 1.9705
" />
<path d="M29.0068 1.9705
L29.0794 1.8254
" />
<path d="M29.0794 1.8254
L29.0794 0.5916
" />
<path d="M29.7325 2.0431
L29.9502 2.1156
" />
<path d="M29.9502 2.1156
L30.3131 2.1156
" />
<path d="M30.3131 2.1156
L30.4582 2.0431
" />
<path d="M30.4582 2.0431
L30.5308 1.9705
" />
<path d="M30.5308 1.9705
L30.6034 1.8254
" />
<path d="M30.6034 1.8254
L30.6034 1.6802
" />
<path d="M30.6034 1.6802
L30.5308 1.5351
" />
<path d="M30.5308 1.5351
L30.4582 1.4625
" />
<path d="M30.4582 1.4625
L30.3131 1.3899
" />
<path d="M30.3131 1.3899
L30.0228 1.3174
" />
<path d="M30.0228 1.3174
L29.8777 1.2448
" />
<path d="M29.8777 1.2448
L29.8051 1.1722
" />
<path d="M29.8051 1.1722
L29.7325 1.0271
" />
<path d="M29.7325 1.0271
L29.7325 0.8819
" />
<path d="M29.7325 0.8819
L29.8051 0.7368
" />
<path d="M29.8051 0.7368
L29.8777 0.6642
" />
<path d="M29.8777 0.6642
L30.0228 0.5916
" />
<path d="M30.0228 0.5916
L30.3857 0.5916
" />
<path d="M30.3857 0.5916
L30.6034 0.6642
" />
<path d="M31.0388 0.5916
L31.9097 0.5916
" />
<path d="M31.4742 2.1156
L31.4742 0.5916
" />
<path d="M33.5062 1.6802
L34.2319 1.6802
" />
<path d="M33.3611 2.1156
L33.8691 0.5916
" />
<path d="M33.8691 0.5916
L34.3771 2.1156
" />
<path d="M35.8285 0.5916
L36.6994 0.5916
" />
<path d="M36.2639 2.1156
L36.2639 0.5916
" />
<path d="M37.2074 1.3174
L37.7154 1.3174
" />
<path d="M37.9331 2.1156
L37.2074 2.1156
" />
<path d="M37.2074 2.1156
L37.2074 0.5916
" />
<path d="M37.2074 0.5916
L37.9331 0.5916
" />
<path d="M38.5137 2.0431
L38.7314 2.1156
" />
<path d="M38.7314 2.1156
L39.0942 2.1156
" />
<path d="M39.0942 2.1156
L39.2394 2.0431
" />
<path d="M39.2394 2.0431
L39.3119 1.9705
" />
<path d="M39.3119 1.9705
L39.3845 1.8254
" />
<path d="M39.3845 1.8254
L39.3845 1.6802
" />
<path d="M39.3845 1.6802
L39.3119 1.5351
" />
<path d="M39.3119 1.5351
L39.2394 1.4625
" />
<path d="M39.2394 1.4625
L39.0942 1.3899
" />
<path d="M39.0942 1.3899
L38.8039 1.3174
" />
<path d="M38.8039 1.3174
L38.6588 1.2448
" />
<path d="M38.6588 1.2448
L38.5862 1.1722
" />
<path d="M38.5862 1.1722
L38.5137 1.0271
" />
<path d="M38.5137 1.0271
L38.5137 0.8819
" />
<path d="M38.5137 0.8819
L38.5862 0.7368
" />
<path d="M38.5862 0.7368
L38.6588 0.6642
" />
<path d="M38.6588 0.6642
L38.8039 0.5916
" />
<path d="M38.8039 0.5916
L39.1668 0.5916
" />
<path d="M39.1668 0.5916
L39.3845 0.6642
" />
<path d="M39.8199 0.5916
L40.6908 0.5916
" />
<path d="M40.2554 2.1156
L40.2554 0.5916
" />
<path d="M42.8679 1.3174
L43.0857 1.3899
" />
<path d="M43.0857 1.3899
L43.1582 1.4625
" />
<path d="M43.1582 1.4625
L43.2308 1.6076
" />
<path d="M43.2308 1.6076
L43.2308 1.8254
" />
<path d="M43.2308 1.8254
L43.1582 1.9705
" />
<path d="M43.1582 1.9705
L43.0857 2.0431
" />
<path d="M43.0857 2.0431
L42.9405 2.1156
" />
<path d="M42.9405 2.1156
L42.3599 2.1156
" />
<path d="M42.3599 2.1156
L42.3599 0.5916
" />
<path d="M42.3599 0.5916
L42.8679 0.5916
" />
<path d="M42.8679 0.5916
L43.0131 0.6642
" />
<path d="M43.0131 0.6642
L43.0857 0.7368
" />
<path d="M43.0857 0.7368
L43.1582 0.8819
" />
<path d="M43.1582 0.8819
L43.1582 1.0271
" />
<path d="M43.1582 1.0271
L43.0857 1.1722
" />
<path d="M43.0857 1.1722
L43.0131 1.2448
" />
<path d="M43.0131 1.2448
L42.8679 1.3174
" />
<path d="M42.8679 1.3174
L42.3599 1.3174
" />
<path d="M44.1742 0.5916
L44.4645 0.5916
" />
<path d="M44.4645 0.5916
L44.6097 0.6642
" />
<path d="M44.6097 0.6642
L44.7548 0.8094
" />
<path d="M44.7548 0.8094
L44.8274 1.0996
" />
<path d="M44.8274 1.0996
L44.8274 1.6076
" />
<path d="M44.8274 1.6076
L44.7548 1.8979
" />
<path d="M44.7548 1.8979
L44.6097 2.0431
" />
<path d="M44.6097 2.0431
L44.4645 2.1156
" />
<path d="M44.4645 2.1156
L44.1742 2.1156
" />
<path d="M44.1742 2.1156
L44.0291 2.0431
" />
<path d="M44.0291 2.0431
L43.8839 1.8979
" />
<path d="M43.8839 1.8979
L43.8114 1.6076
" />
<path d="M43.8114 1.6076
L43.8114 1.0996
" />
<path d="M43.8114 1.0996
L43.8839 0.8094
" />
<path d="M43.8839 0.8094
L44.0291 0.6642
" />
<path d="M44.0291 0.6642
L44.1742 0.5916
" />
<path d="M45.4079 1.6802
L46.1337 1.6802
" />
<path d="M45.2628 2.1156
L45.7708 0.5916
" />
<path d="M45.7708 0.5916
L46.2788 2.1156
" />
<path d="M47.6577 2.1156
L47.1497 1.3899
" />
<path d="M46.7868 2.1156
L46.7868 0.5916
" />
<path d="M46.7868 0.5916
L47.3674 0.5916
" />
<path d="M47.3674 0.5916
L47.5125 0.6642
" />
<path d="M47.5125 0.6642
L47.5851 0.7368
" />
<path d="M47.5851 0.7368
L47.6577 0.8819
" />
<path d="M47.6577 0.8819
L47.6577 1.0996
" />
<path d="M47.6577 1.0996
L47.5851 1.2448
" />
<path d="M47.5851 1.2448
L47.5125 1.3174
" />
<path d="M47.5125 1.3174
L47.3674 1.3899
" />
<path d="M47.3674 1.3899
L46.7868 1.3899
" />
<path d="M48.3108 2.1156
L48.3108 0.5916
" />
<path d="M48.3108 0.5916
L48.6737 0.5916
" />
<path d="M48.6737 0.5916
L48.8914 0.6642
" />
<path d="M48.8914 0.6642
L49.0365 0.8094
" />
<path d="M49.0365 0.8094
L49.1091 0.9545
" />
<path d="M49.1091 0.9545
L49.1817 1.2448
" />
<path d="M49.1817 1.2448
L49.1817 1.4625
" />
<path d="M49.1817 1.4625
L49.1091 1.7528
" />
<path d="M49.1091 1.7528
L49.0365 1.8979
" />
<path d="M49.0365 1.8979
L48.8914 2.0431
" />
<path d="M48.8914 2.0431
L48.6737 2.1156
" />
<path d="M48.6737 2.1156
L48.3108 2.1156
" />
</g><text x="29.5511" y="4.6421"
textLength="59.1022" font-size="2.0320" lengthAdjust="spacingAndGlyphs"
text-anchor="middle" opacity="0">REMOVE ALL COMPONENTS AND CREATE YOUR OWN</text>
<g class="stroked-text"><desc>REMOVE ALL COMPONENTS AND CREATE YOUR OWN</desc>
<path d="M1.5385 4.5693
L1.0305 3.8436
" />
<path d="M0.6677 4.5693
L0.6677 3.0453
" />
<path d="M0.6677 3.0453
L1.2482 3.0453
" />
<path d="M1.2482 3.0453
L1.3934 3.1179
" />
<path d="M1.3934 3.1179
L1.4659 3.1904
" />
<path d="M1.4659 3.1904
L1.5385 3.3356
" />
<path d="M1.5385 3.3356
L1.5385 3.5533
" />
<path d="M1.5385 3.5533
L1.4659 3.6984
" />
<path d="M1.4659 3.6984
L1.3934 3.7710
" />
<path d="M1.3934 3.7710
L1.2482 3.8436
" />
<path d="M1.2482 3.8436
L0.6677 3.8436
" />
<path d="M2.1917 3.7710
L2.6997 3.7710
" />
<path d="M2.9174 4.5693
L2.1917 4.5693
" />
<path d="M2.1917 4.5693
L2.1917 3.0453
" />
<path d="M2.1917 3.0453
L2.9174 3.0453
" />
<path d="M3.5705 4.5693
L3.5705 3.0453
" />
<path d="M3.5705 3.0453
L4.0785 4.1339
" />
<path d="M4.0785 4.1339
L4.5865 3.0453
" />
<path d="M4.5865 3.0453
L4.5865 4.5693
" />
<path d="M5.6025 3.0453
L5.8928 3.0453
" />
<path d="M5.8928 3.0453
L6.0379 3.1179
" />
<path d="M6.0379 3.1179
L6.1831 3.2630
" />
<path d="M6.1831 3.2630
L6.2557 3.5533
" />
<path d="M6.2557 3.5533
L6.2557 4.0613
" />
<path d="M6.2557 4.0613
L6.1831 4.3516
" />
<path d="M6.1831 4.3516
L6.0379 4.4967
" />
<path d="M6.0379 4.4967
L5.8928 4.5693
" />
<path d="M5.8928 4.5693
L5.6025 4.5693
" />
<path d="M5.6025 4.5693
L5.4574 4.4967
" />
<path d="M5.4574 4.4967
L5.3122 4.3516
" />
<path d="M5.3122 4.3516
L5.2397 4.0613
" />
<path d="M5.2397 4.0613
L5.2397 3.5533
" />
<path d="M5.2397 3.5533
L5.3122 3.2630
" />
<path d="M5.3122 3.2630
L5.4574 3.1179
" />
<path d="M5.4574 3.1179
L5.6025 3.0453
" />
<path d="M6.6911 3.0453
L7.1991 4.5693
" />
<path d="M7.1991 4.5693
L7.7071 3.0453
" />
<path d="M8.2151 3.7710
L8.7231 3.7710
" />
<path d="M8.9408 4.5693
L8.2151 4.5693
" />
<path d="M8.2151 4.5693
L8.2151 3.0453
" />
<path d="M8.2151 3.0453
L8.9408 3.0453
" />
<path d="M10.6825 4.1339
L11.4082 4.1339
" />
<path d="M10.5374 4.5693
L11.0454 3.0453
" />
<path d="M11.0454 3.0453
L11.5534 4.5693
" />
<path d="M12.7871 4.5693
L12.0614 4.5693
" />
<path d="M12.0614 4.5693
L12.0614 3.0453
" />
<path d="M14.0208 4.5693
L13.2951 4.5693
" />
<path d="M13.2951 4.5693
L13.2951 3.0453
" />
<path d="M16.5608 4.4241
L16.4882 4.4967
" />
<path d="M16.4882 4.4967
L16.2705 4.5693
" />
<path d="M16.2705 4.5693
L16.1254 4.5693
" />
<path d="M16.1254 4.5693
L15.9077 4.4967
" />
<path d="M15.9077 4.4967
L15.7625 4.3516
" />
<path d="M15.7625 4.3516
L15.6899 4.2064
" />
<path d="M15.6899 4.2064
L15.6174 3.9161
" />
<path d="M15.6174 3.9161
L15.6174 3.6984
" />
<path d="M15.6174 3.6984
L15.6899 3.4081
" />
<path d="M15.6899 3.4081
L15.7625 3.2630
" />
<path d="M15.7625 3.2630
L15.9077 3.1179
" />
<path d="M15.9077 3.1179
L16.1254 3.0453
" />
<path d="M16.1254 3.0453
L16.2705 3.0453
" />
<path d="M16.2705 3.0453
L16.4882 3.1179
" />
<path d="M16.4882 3.1179
L16.5608 3.1904
" />
<path d="M17.5042 3.0453
L17.7945 3.0453
" />
<path d="M17.7945 3.0453
L17.9397 3.1179
" />
<path d="M17.9397 3.1179
L18.0848 3.2630
" />
<path d="M18.0848 3.2630
L18.1574 3.5533
" />
<path d="M18.1574 3.5533
L18.1574 4.0613
" />
<path d="M18.1574 4.0613
L18.0848 4.3516
" />
<path d="M18.0848 4.3516
L17.9397 4.4967
" />
<path d="M17.9397 4.4967
L17.7945 4.5693
" />
<path d="M17.7945 4.5693
L17.5042 4.5693
" />
<path d="M17.5042 4.5693
L17.3591 4.4967
" />
<path d="M17.3591 4.4967
L17.2139 4.3516
" />
<path d="M17.2139 4.3516
L17.1414 4.0613
" />
<path d="M17.1414 4.0613
L17.1414 3.5533
" />
<path d="M17.1414 3.5533
L17.2139 3.2630
" />
<path d="M17.2139 3.2630
L17.3591 3.1179
" />
<path d="M17.3591 3.1179
L17.5042 3.0453
" />
<path d="M18.8105 4.5693
L18.8105 3.0453
" />
<path d="M18.8105 3.0453
L19.3185 4.1339
" />
<path d="M19.3185 4.1339
L19.8265 3.0453
" />
<path d="M19.8265 3.0453
L19.8265 4.5693
" />
<path d="M20.5522 4.5693
L20.5522 3.0453
" />
<path d="M20.5522 3.0453
L21.1328 3.0453
" />
<path d="M21.1328 3.0453
L21.2779 3.1179
" />
<path d="M21.2779 3.1179
L21.3505 3.1904
" />
<path d="M21.3505 3.1904
L21.4231 3.3356
" />
<path d="M21.4231 3.3356
L21.4231 3.5533
" />
<path d="M21.4231 3.5533
L21.3505 3.6984
" />
<path d="M21.3505 3.6984
L21.2779 3.7710
" />
<path d="M21.2779 3.7710
L21.1328 3.8436
" />
<path d="M21.1328 3.8436
L20.5522 3.8436
" />
<path d="M22.3665 3.0453
L22.6568 3.0453
" />
<path d="M22.6568 3.0453
L22.8019 3.1179
" />
<path d="M22.8019 3.1179
L22.9471 3.2630
" />
<path d="M22.9471 3.2630
L23.0197 3.5533
" />
<path d="M23.0197 3.5533
L23.0197 4.0613
" />
<path d="M23.0197 4.0613
L22.9471 4.3516
" />
<path d="M22.9471 4.3516
L22.8019 4.4967
" />
<path d="M22.8019 4.4967
L22.6568 4.5693
" />
<path d="M22.6568 4.5693
L22.3665 4.5693
" />
<path d="M22.3665 4.5693
L22.2214 4.4967
" />
<path d="M22.2214 4.4967
L22.0762 4.3516
" />
<path d="M22.0762 4.3516
L22.0037 4.0613
" />
<path d="M22.0037 4.0613
L22.0037 3.5533
" />
<path d="M22.0037 3.5533
L22.0762 3.2630
" />
<path d="M22.0762 3.2630
L22.2214 3.1179
" />
<path d="M22.2214 3.1179
L22.3665 3.0453
" />
<path d="M23.6728 4.5693
L23.6728 3.0453
" />
<path d="M23.6728 3.0453
L24.5437 4.5693
" />
<path d="M24.5437 4.5693
L24.5437 3.0453
" />
<path d="M25.2694 3.7710
L25.7774 3.7710
" />
<path d="M25.9951 4.5693
L25.2694 4.5693
" />
<path d="M25.2694 4.5693
L25.2694 3.0453
" />
<path d="M25.2694 3.0453
L25.9951 3.0453
" />
<path d="M26.6482 4.5693
L26.6482 3.0453
" />
<path d="M26.6482 3.0453
L27.5191 4.5693
" />
<path d="M27.5191 4.5693
L27.5191 3.0453
" />
<path d="M28.0271 3.0453
L28.8979 3.0453
" />
<path d="M28.4625 4.5693
L28.4625 3.0453
" />
<path d="M29.3334 4.4967
L29.5511 4.5693
" />
<path d="M29.5511 4.5693
L29.9139 4.5693
" />
<path d="M29.9139 4.5693
L30.0591 4.4967
" />
<path d="M30.0591 4.4967
L30.1317 4.4241
" />
<path d="M30.1317 4.4241
L30.2042 4.2790
" />
<path d="M30.2042 4.2790
L30.2042 4.1339
" />
<path d="M30.2042 4.1339
L30.1317 3.9887
" />
<path d="M30.1317 3.9887
L30.0591 3.9161
" />
<path d="M30.0591 3.9161
L29.9139 3.8436
" />
<path d="M29.9139 3.8436
L29.6237 3.7710
" />
<path d="M29.6237 3.7710
L29.4785 3.6984
" />
<path d="M29.4785 3.6984
L29.4059 3.6259
" />
<path d="M29.4059 3.6259
L29.3334 3.4807
" />
<path d="M29.3334 3.4807
L29.3334 3.3356
" />
<path d="M29.3334 3.3356
L29.4059 3.1904
" />
<path d="M29.4059 3.1904
L29.4785 3.1179
" />
<path d="M29.4785 3.1179
L29.6237 3.0453
" />
<path d="M29.6237 3.0453
L29.9865 3.0453
" />
<path d="M29.9865 3.0453
L30.2042 3.1179
" />
<path d="M31.9459 4.1339
L32.6717 4.1339
" />
<path d="M31.8008 4.5693
L32.3088 3.0453
" />
<path d="M32.3088 3.0453
L32.8168 4.5693
" />
<path d="M33.3248 4.5693
L33.3248 3.0453
" />
<path d="M33.3248 3.0453
L34.1957 4.5693
" />
<path d="M34.1957 4.5693
L34.1957 3.0453
" />
<path d="M34.9214 4.5693
L34.9214 3.0453
" />
<path d="M34.9214 3.0453
L35.2842 3.0453
" />
<path d="M35.2842 3.0453
L35.5019 3.1179
" />
<path d="M35.5019 3.1179
L35.6471 3.2630
" />
<path d="M35.6471 3.2630
L35.7197 3.4081
" />
<path d="M35.7197 3.4081
L35.7922 3.6984
" />
<path d="M35.7922 3.6984
L35.7922 3.9161
" />
<path d="M35.7922 3.9161
L35.7197 4.2064
" />
<path d="M35.7197 4.2064
L35.6471 4.3516
" />
<path d="M35.6471 4.3516
L35.5019 4.4967
" />
<path d="M35.5019 4.4967
L35.2842 4.5693
" />
<path d="M35.2842 4.5693
L34.9214 4.5693
" />
<path d="M38.4774 4.4241
L38.4048 4.4967
" />
<path d="M38.4048 4.4967
L38.1871 4.5693
" />
<path d="M38.1871 4.5693
L38.0419 4.5693
" />
<path d="M38.0419 4.5693
L37.8242 4.4967
" />
<path d="M37.8242 4.4967
L37.6791 4.3516
" />
<path d="M37.6791 4.3516
L37.6065 4.2064
" />
<path d="M37.6065 4.2064
L37.5339 3.9161
" />
<path d="M37.5339 3.9161
L37.5339 3.6984
" />
<path d="M37.5339 3.6984
L37.6065 3.4081
" />
<path d="M37.6065 3.4081
L37.6791 3.2630
" />
<path d="M37.6791 3.2630
L37.8242 3.1179
" />
<path d="M37.8242 3.1179
L38.0419 3.0453
" />
<path d="M38.0419 3.0453
L38.1871 3.0453
" />
<path d="M38.1871 3.0453
L38.4048 3.1179
" />
<path d="M38.4048 3.1179
L38.4774 3.1904
" />
<path d="M40.0014 4.5693
L39.4934 3.8436
" />
<path d="M39.1305 4.5693
L39.1305 3.0453
" />
<path d="M39.1305 3.0453
L39.7111 3.0453
" />
<path d="M39.7111 3.0453
L39.8562 3.1179
" />
<path d="M39.8562 3.1179
L39.9288 3.1904
" />
<path d="M39.9288 3.1904
L40.0014 3.3356
" />
<path d="M40.0014 3.3356
L40.0014 3.5533
" />
<path d="M40.0014 3.5533
L39.9288 3.6984
" />
<path d="M39.9288 3.6984
L39.8562 3.7710
" />
<path d="M39.8562 3.7710
L39.7111 3.8436
" />
<path d="M39.7111 3.8436
L39.1305 3.8436
" />
<path d="M40.6545 3.7710
L41.1625 3.7710
" />
<path d="M41.3802 4.5693
L40.6545 4.5693
" />
<path d="M40.6545 4.5693
L40.6545 3.0453
" />
<path d="M40.6545 3.0453
L41.3802 3.0453
" />
<path d="M41.9608 4.1339
L42.6865 4.1339
" />
<path d="M41.8157 4.5693
L42.3237 3.0453
" />
<path d="M42.3237 3.0453
L42.8317 4.5693
" />
<path d="M43.1219 3.0453
L43.9928 3.0453
" />
<path d="M43.5574 4.5693
L43.5574 3.0453
" />
<path d="M44.5008 3.7710
L45.0088 3.7710
" />
<path d="M45.2265 4.5693
L44.5008 4.5693
" />
<path d="M44.5008 4.5693
L44.5008 3.0453
" />
<path d="M44.5008 3.0453
L45.2265 3.0453
" />
<path d="M47.3311 3.8436
L47.3311 4.5693
" />
<path d="M46.8231 3.0453
L47.3311 3.8436
" />
<path d="M47.3311 3.8436
L47.8391 3.0453
" />
<path d="M48.6374 3.0453
L48.9277 3.0453
" />
<path d="M48.9277 3.0453
L49.0728 3.1179
" />
<path d="M49.0728 3.1179
L49.2179 3.2630
" />
<path d="M49.2179 3.2630
L49.2905 3.5533
" />
<path d="M49.2905 3.5533
L49.2905 4.0613
" />
<path d="M49.2905 4.0613
L49.2179 4.3516
" />
<path d="M49.2179 4.3516
L49.0728 4.4967
" />
<path d="M49.0728 4.4967
L48.9277 4.5693
" />
<path d="M48.9277 4.5693
L48.6374 4.5693
" />
<path d="M48.6374 4.5693
L48.4922 4.4967
" />
<path d="M48.4922 4.4967
L48.3471 4.3516
" />
<path d="M48.3471 4.3516
L48.2745 4.0613
" />
<path d="M48.2745 4.0613
L48.2745 3.5533
" />
<path d="M48.2745 3.5533
L48.3471 3.2630
" />
<path d="M48.3471 3.2630
L48.4922 3.1179
" />
<path d="M48.4922 3.1179
L48.6374 3.0453
" />
<path d="M49.9437 3.0453
L49.9437 4.2790
" />
<path d="M49.9437 4.2790
L50.0162 4.4241
" />
<path d="M50.0162 4.4241
L50.0888 4.4967
" />
<path d="M50.0888 4.4967
L50.2339 4.5693
" />
<path d="M50.2339 4.5693
L50.5242 4.5693
" />
<path d="M50.5242 4.5693
L50.6694 4.4967
" />
<path d="M50.6694 4.4967
L50.7419 4.4241
" />
<path d="M50.7419 4.4241
L50.8145 4.2790
" />
<path d="M50.8145 4.2790
L50.8145 3.0453
" />
<path d="M52.4111 4.5693
L51.9031 3.8436
" />
<path d="M51.5402 4.5693
L51.5402 3.0453
" />
<path d="M51.5402 3.0453
L52.1208 3.0453
" />
<path d="M52.1208 3.0453
L52.2659 3.1179
" />
<path d="M52.2659 3.1179
L52.3385 3.1904
" />
<path d="M52.3385 3.1904
L52.4111 3.3356
" />
<path d="M52.4111 3.3356
L52.4111 3.5533
" />
<path d="M52.4111 3.5533
L52.3385 3.6984
" />
<path d="M52.3385 3.6984
L52.2659 3.7710
" />
<path d="M52.2659 3.7710
L52.1208 3.8436
" />
<path d="M52.1208 3.8436
L51.5402 3.8436
" />
<path d="M54.5157 3.0453
L54.8059 3.0453
" />
<path d="M54.8059 3.0453
L54.9511 3.1179
" />
<path d="M54.9511 3.1179
L55.0962 3.2630
" />
<path d="M55.0962 3.2630
L55.1688 3.5533
" />
<path d="M55.1688 3.5533
L55.1688 4.0613
" />
<path d="M55.1688 4.0613
L55.0962 4.3516
" />
<path d="M55.0962 4.3516
L54.9511 4.4967
" />
<path d="M54.9511 4.4967
L54.8059 4.5693
" />
<path d="M54.8059 4.5693
L54.5157 4.5693
" />
<path d="M54.5157 4.5693
L54.3705 4.4967
" />
<path d="M54.3705 4.4967
L54.2254 4.3516
" />
<path d="M54.2254 4.3516
L54.1528 4.0613
" />
<path d="M54.1528 4.0613
L54.1528 3.5533
" />
<path d="M54.1528 3.5533
L54.2254 3.2630
" />
<path d="M54.2254 3.2630
L54.3705 3.1179
" />
<path d="M54.3705 3.1179
L54.5157 3.0453
" />
<path d="M55.6768 3.0453
L56.0397 4.5693
" />
<path d="M56.0397 4.5693
L56.3299 3.4807
" />
<path d="M56.3299 3.4807
L56.6202 4.5693
" />
<path d="M56.6202 4.5693
L56.9831 3.0453
" />
<path d="M57.5637 4.5693
L57.5637 3.0453
" />
<path d="M57.5637 3.0453
L58.4345 4.5693
" />
<path d="M58.4345 4.5693
L58.4345 3.0453
" />
</g><text x="29.5511" y="7.0957"
textLength="46.1119" font-size="2.0320" lengthAdjust="spacingAndGlyphs"
text-anchor="middle" opacity="0">INCLUDE SCHEMATIC HOOKUPS/NETLIST</text>
<g class="stroked-text"><desc>INCLUDE SCHEMATIC HOOKUPS/NETLIST</desc>
<path d="M7.1628 7.0229
L7.1628 5.4989
" />
<path d="M7.8885 7.0229
L7.8885 5.4989
" />
<path d="M7.8885 5.4989
L8.7594 7.0229
" />
<path d="M8.7594 7.0229
L8.7594 5.4989
" />
<path d="M10.3559 6.8778
L10.2834 6.9504
" />
<path d="M10.2834 6.9504
L10.0657 7.0229
" />
<path d="M10.0657 7.0229
L9.9205 7.0229
" />
<path d="M9.9205 7.0229
L9.7028 6.9504
" />
<path d="M9.7028 6.9504
L9.5577 6.8052
" />
<path d="M9.5577 6.8052
L9.4851 6.6601
" />
<path d="M9.4851 6.6601
L9.4125 6.3698
" />
<path d="M9.4125 6.3698
L9.4125 6.1521
" />
<path d="M9.4125 6.1521
L9.4851 5.8618
" />
<path d="M9.4851 5.8618
L9.5577 5.7166
" />
<path d="M9.5577 5.7166
L9.7028 5.5715
" />
<path d="M9.7028 5.5715
L9.9205 5.4989
" />
<path d="M9.9205 5.4989
L10.0657 5.4989
" />
<path d="M10.0657 5.4989
L10.2834 5.5715
" />
<path d="M10.2834 5.5715
L10.3559 5.6441
" />
<path d="M11.7348 7.0229
L11.0091 7.0229
" />
<path d="M11.0091 7.0229
L11.0091 5.4989
" />
<path d="M12.2428 5.4989
L12.2428 6.7326
" />
<path d="M12.2428 6.7326
L12.3154 6.8778
" />
<path d="M12.3154 6.8778
L12.3879 6.9504
" />
<path d="M12.3879 6.9504
L12.5331 7.0229
" />
<path d="M12.5331 7.0229
L12.8234 7.0229
" />
<path d="M12.8234 7.0229
L12.9685 6.9504
" />
<path d="M12.9685 6.9504
L13.0411 6.8778
" />
<path d="M13.0411 6.8778
L13.1137 6.7326
" />
<path d="M13.1137 6.7326
L13.1137 5.4989
" />
<path d="M13.8394 7.0229
L13.8394 5.4989
" />
<path d="M13.8394 5.4989
L14.2022 5.4989
" />
<path d="M14.2022 5.4989
L14.4199 5.5715
" />
<path d="M14.4199 5.5715
L14.5651 5.7166
" />
<path d="M14.5651 5.7166
L14.6377 5.8618
" />
<path d="M14.6377 5.8618
L14.7102 6.1521
" />
<path d="M14.7102 6.1521
L14.7102 6.3698
" />
<path d="M14.7102 6.3698
L14.6377 6.6601
" />
<path d="M14.6377 6.6601
L14.5651 6.8052
" />
<path d="M14.5651 6.8052
L14.4199 6.9504
" />
<path d="M14.4199 6.9504
L14.2022 7.0229
" />
<path d="M14.2022 7.0229
L13.8394 7.0229
" />
<path d="M15.3634 6.2246
L15.8714 6.2246
" />
<path d="M16.0891 7.0229
L15.3634 7.0229
" />
<path d="M15.3634 7.0229
L15.3634 5.4989
" />
<path d="M15.3634 5.4989
L16.0891 5.4989
" />
<path d="M17.8308 6.9504
L18.0485 7.0229
" />
<path d="M18.0485 7.0229
L18.4114 7.0229
" />
<path d="M18.4114 7.0229
L18.5565 6.9504
" />
<path d="M18.5565 6.9504
L18.6291 6.8778
" />
<path d="M18.6291 6.8778
L18.7017 6.7326
" />
<path d="M18.7017 6.7326
L18.7017 6.5875
" />
<path d="M18.7017 6.5875
L18.6291 6.4424
" />
<path d="M18.6291 6.4424
L18.5565 6.3698
" />
<path d="M18.5565 6.3698
L18.4114 6.2972
" />
<path d="M18.4114 6.2972
L18.1211 6.2246
" />
<path d="M18.1211 6.2246
L17.9759 6.1521
" />
<path d="M17.9759 6.1521
L17.9034 6.0795
" />
<path d="M17.9034 6.0795
L17.8308 5.9344
" />
<path d="M17.8308 5.9344
L17.8308 5.7892
" />
<path d="M17.8308 5.7892
L17.9034 5.6441
" />
<path d="M17.9034 5.6441
L17.9759 5.5715
" />
<path d="M17.9759 5.5715
L18.1211 5.4989
" />
<path d="M18.1211 5.4989
L18.4839 5.4989
" />
<path d="M18.4839 5.4989
L18.7017 5.5715
" />
<path d="M20.2257 6.8778
L20.1531 6.9504
" />
<path d="M20.1531 6.9504
L19.9354 7.0229
" />
<path d="M19.9354 7.0229
L19.7902 7.0229
" />
<path d="M19.7902 7.0229
L19.5725 6.9504
" />
<path d="M19.5725 6.9504
L19.4274 6.8052
" />
<path d="M19.4274 6.8052
L19.3548 6.6601
" />
<path d="M19.3548 6.6601
L19.2822 6.3698
" />
<path d="M19.2822 6.3698
L19.2822 6.1521
" />
<path d="M19.2822 6.1521
L19.3548 5.8618
" />
<path d="M19.3548 5.8618
L19.4274 5.7166
" />
<path d="M19.4274 5.7166
L19.5725 5.5715
" />
<path d="M19.5725 5.5715
L19.7902 5.4989
" />
<path d="M19.7902 5.4989
L19.9354 5.4989
" />
<path d="M19.9354 5.4989
L20.1531 5.5715
" />
<path d="M20.1531 5.5715
L20.2257 5.6441
" />
<path d="M20.8788 7.0229
L20.8788 5.4989
" />
<path d="M20.8788 6.2246
L21.7497 6.2246
" />
<path d="M21.7497 7.0229
L21.7497 5.4989
" />
<path d="M22.4754 6.2246
L22.9834 6.2246
" />
<path d="M23.2011 7.0229
L22.4754 7.0229
" />
<path d="M22.4754 7.0229
L22.4754 5.4989
" />
<path d="M22.4754 5.4989
L23.2011 5.4989
" />
<path d="M23.8542 7.0229
L23.8542 5.4989
" />
<path d="M23.8542 5.4989
L24.3622 6.5875
" />
<path d="M24.3622 6.5875
L24.8702 5.4989
" />
<path d="M24.8702 5.4989
L24.8702 7.0229
" />
<path d="M25.5234 6.5875
L26.2491 6.5875
" />
<path d="M25.3782 7.0229
L25.8862 5.4989
" />
<path d="M25.8862 5.4989
L26.3942 7.0229
" />
<path d="M26.6845 5.4989
L27.5554 5.4989
" />
<path d="M27.1199 7.0229
L27.1199 5.4989
" />
<path d="M28.0634 7.0229
L28.0634 5.4989
" />
<path d="M29.6599 6.8778
L29.5874 6.9504
" />
<path d="M29.5874 6.9504
L29.3697 7.0229
" />
<path d="M29.3697 7.0229
L29.2245 7.0229
" />
<path d="M29.2245 7.0229
L29.0068 6.9504
" />
<path d="M29.0068 6.9504
L28.8617 6.8052
" />
<path d="M28.8617 6.8052
L28.7891 6.6601
" />
<path d="M28.7891 6.6601
L28.7165 6.3698
" />
<path d="M28.7165 6.3698
L28.7165 6.1521
" />
<path d="M28.7165 6.1521
L28.7891 5.8618
" />
<path d="M28.7891 5.8618
L28.8617 5.7166
" />
<path d="M28.8617 5.7166
L29.0068 5.5715
" />
<path d="M29.0068 5.5715
L29.2245 5.4989
" />
<path d="M29.2245 5.4989
L29.3697 5.4989
" />
<path d="M29.3697 5.4989
L29.5874 5.5715
" />
<path d="M29.5874 5.5715
L29.6599 5.6441
" />
<path d="M31.4742 7.0229
L31.4742 5.4989
" />
<path d="M31.4742 6.2246
L32.3451 6.2246
" />
<path d="M32.3451 7.0229
L32.3451 5.4989
" />
<path d="M33.3611 5.4989
L33.6514 5.4989
" />
<path d="M33.6514 5.4989
L33.7965 5.5715
" />
<path d="M33.7965 5.5715
L33.9417 5.7166
" />
<path d="M33.9417 5.7166
L34.0142 6.0069
" />
<path d="M34.0142 6.0069
L34.0142 6.5149
" />
<path d="M34.0142 6.5149
L33.9417 6.8052
" />
<path d="M33.9417 6.8052
L33.7965 6.9504
" />
<path d="M33.7965 6.9504
L33.6514 7.0229
" />
<path d="M33.6514 7.0229
L33.3611 7.0229
" />
<path d="M33.3611 7.0229
L33.2159 6.9504
" />
<path d="M33.2159 6.9504
L33.0708 6.8052
" />
<path d="M33.0708 6.8052
L32.9982 6.5149
" />
<path d="M32.9982 6.5149
L32.9982 6.0069
" />
<path d="M32.9982 6.0069
L33.0708 5.7166
" />
<path d="M33.0708 5.7166
L33.2159 5.5715
" />
<path d="M33.2159 5.5715
L33.3611 5.4989
" />
<path d="M34.9577 5.4989
L35.2479 5.4989
" />
<path d="M35.2479 5.4989
L35.3931 5.5715
" />
<path d="M35.3931 5.5715
L35.5382 5.7166
" />
<path d="M35.5382 5.7166
L35.6108 6.0069
" />
<path d="M35.6108 6.0069
L35.6108 6.5149
" />
<path d="M35.6108 6.5149
L35.5382 6.8052
" />
<path d="M35.5382 6.8052
L35.3931 6.9504
" />
<path d="M35.3931 6.9504
L35.2479 7.0229
" />
<path d="M35.2479 7.0229
L34.9577 7.0229
" />
<path d="M34.9577 7.0229
L34.8125 6.9504
" />
<path d="M34.8125 6.9504
L34.6674 6.8052
" />
<path d="M34.6674 6.8052
L34.5948 6.5149
" />
<path d="M34.5948 6.5149
L34.5948 6.0069
" />
<path d="M34.5948 6.0069
L34.6674 5.7166
" />
<path d="M34.6674 5.7166
L34.8125 5.5715
" />
<path d="M34.8125 5.5715
L34.9577 5.4989
" />
<path d="M36.2639 7.0229
L36.2639 5.4989
" />
<path d="M37.1348 7.0229
L36.4817 6.1521
" />
<path d="M37.1348 5.4989
L36.2639 6.3698
" />
<path d="M37.7879 5.4989
L37.7879 6.7326
" />
<path d="M37.7879 6.7326
L37.8605 6.8778
" />
<path d="M37.8605 6.8778
L37.9331 6.9504
" />
<path d="M37.9331 6.9504
L38.0782 7.0229
" />
<path d="M38.0782 7.0229
L38.3685 7.0229
" />
<path d="M38.3685 7.0229
L38.5137 6.9504
" />
<path d="M38.5137 6.9504
L38.5862 6.8778
" />
<path d="M38.5862 6.8778
L38.6588 6.7326
" />
<path d="M38.6588 6.7326
L38.6588 5.4989
" />
<path d="M39.3845 7.0229
L39.3845 5.4989
" />
<path d="M39.3845 5.4989
L39.9651 5.4989
" />
<path d="M39.9651 5.4989
L40.1102 5.5715
" />
<path d="M40.1102 5.5715
L40.1828 5.6441
" />
<path d="M40.1828 5.6441
L40.2554 5.7892
" />
<path d="M40.2554 5.7892
L40.2554 6.0069
" />
<path d="M40.2554 6.0069
L40.1828 6.1521
" />
<path d="M40.1828 6.1521
L40.1102 6.2246
" />
<path d="M40.1102 6.2246
L39.9651 6.2972
" />
<path d="M39.9651 6.2972
L39.3845 6.2972
" />
<path d="M40.8359 6.9504
L41.0537 7.0229
" />
<path d="M41.0537 7.0229
L41.4165 7.0229
" />
<path d="M41.4165 7.0229
L41.5617 6.9504
" />
<path d="M41.5617 6.9504
L41.6342 6.8778
" />
<path d="M41.6342 6.8778
L41.7068 6.7326
" />
<path d="M41.7068 6.7326
L41.7068 6.5875
" />
<path d="M41.7068 6.5875
L41.6342 6.4424
" />
<path d="M41.6342 6.4424
L41.5617 6.3698
" />
<path d="M41.5617 6.3698
L41.4165 6.2972
" />
<path d="M41.4165 6.2972
L41.1262 6.2246
" />
<path d="M41.1262 6.2246
L40.9811 6.1521
" />
<path d="M40.9811 6.1521
L40.9085 6.0795
" />
<path d="M40.9085 6.0795
L40.8359 5.9344
" />
<path d="M40.8359 5.9344
L40.8359 5.7892
" />
<path d="M40.8359 5.7892
L40.9085 5.6441
" />
<path d="M40.9085 5.6441
L40.9811 5.5715
" />
<path d="M40.9811 5.5715
L41.1262 5.4989
" />
<path d="M41.1262 5.4989
L41.4891 5.4989
" />
<path d="M41.4891 5.4989
L41.7068 5.5715
" />
<path d="M43.4485 5.4264
L42.1422 7.3858
" />
<path d="M43.9565 7.0229
L43.9565 5.4989
" />
<path d="M43.9565 5.4989
L44.8274 7.0229
" />
<path d="M44.8274 7.0229
L44.8274 5.4989
" />
<path d="M45.5531 6.2246
L46.0611 6.2246
" />
<path d="M46.2788 7.0229
L45.5531 7.0229
" />
<path d="M45.5531 7.0229
L45.5531 5.4989
" />
<path d="M45.5531 5.4989
L46.2788 5.4989
" />
<path d="M46.7142 5.4989
L47.5851 5.4989
" />
<path d="M47.1497 7.0229
L47.1497 5.4989
" />
<path d="M48.8188 7.0229
L48.0931 7.0229
" />
<path d="M48.0931 7.0229
L48.0931 5.4989
" />
<path d="M49.3268 7.0229
L49.3268 5.4989
" />
<path d="M49.9799 6.9504
L50.1977 7.0229
" />
<path d="M50.1977 7.0229
L50.5605 7.0229
" />
<path d="M50.5605 7.0229
L50.7057 6.9504
" />
<path d="M50.7057 6.9504
L50.7782 6.8778
" />
<path d="M50.7782 6.8778
L50.8508 6.7326
" />
<path d="M50.8508 6.7326
L50.8508 6.5875
" />
<path d="M50.8508 6.5875
L50.7782 6.4424
" />
<path d="M50.7782 6.4424
L50.7057 6.3698
" />
<path d="M50.7057 6.3698
L50.5605 6.2972
" />
<path d="M50.5605 6.2972
L50.2702 6.2246
" />
<path d="M50.2702 6.2246
L50.1251 6.1521
" />
<path d="M50.1251 6.1521
L50.0525 6.0795
" />
<path d="M50.0525 6.0795
L49.9799 5.9344
" />
<path d="M49.9799 5.9344
L49.9799 5.7892
" />
<path d="M49.9799 5.7892
L50.0525 5.6441
" />
<path d="M50.0525 5.6441
L50.1251 5.5715
" />
<path d="M50.1251 5.5715
L50.2702 5.4989
" />
<path d="M50.2702 5.4989
L50.6331 5.4989
" />
<path d="M50.6331 5.4989
L50.8508 5.5715
" />
<path d="M51.2862 5.4989
L52.1571 5.4989
" />
<path d="M51.7217 7.0229
L51.7217 5.4989
" />
</g><g >
</g>
<g >
</g>
<g >
</g>
<g >
</g>
<g >
</g>
<g >
</g>
<g >
</g>
<g >
</g>
<g >
</g>
<g >
</g>
<g >
</g>
<g >
</g>
</g> 
</svg>
