<?xml version="1.0" standalone="no"?>
 <!DOCTYPE svg PUBLIC "-//W3C//DTD SVG 1.1//EN" 
 "http://www.w3.org/Graphics/SVG/1.1/DTD/svg11.dtd"> 
<svg
  xmlns:svg="http://www.w3.org/2000/svg"
  xmlns="http://www.w3.org/2000/svg"
  xmlns:xlink="http://www.w3.org/1999/xlink"
  version="1.1"
  width="30.0990mm" height="30.0990mm" viewBox="0.0000 0.0000 30.0990 30.0990">
<title>SVG Image created as _autosave-working-brd.svg date 2023/10/02 17:11:35 </title>
  <desc>Image generated by PCBNEW </desc>
<g style="fill:#000000; fill-opacity:1.0000;stroke:#000000; stroke-opacity:1.0000;
stroke-linecap:round; stroke-linejoin:round;"
 transform="translate(0 0) scale(1 1)">
</g>
<g style="fill:#000000; fill-opacity:0.0; 
stroke:#000000; stroke-width:0.0000; stroke-opacity:1; 
stroke-linecap:round; stroke-linejoin:round;">
</g>
<g style="fill:#000000; fill-opacity:1.0000; 
stroke:#000000; stroke-width:0.0212; stroke-opacity:1; 
stroke-linecap:round; stroke-linejoin:round;">
<rect x="-5.000000" y="-5.000000" width="40.100000" height="40.100000" rx="0.000000" />
</g>
<g style="fill:#FFFFFF; fill-opacity:1.0000; 
stroke:#FFFFFF; stroke-width:0.0212; stroke-opacity:1; 
stroke-linecap:round; stroke-linejoin:round;">
<g >
</g>
<g style="fill:#B2803A; fill-opacity:1.0000; 
stroke:#B2803A; stroke-width:0.0212; stroke-opacity:1; 
stroke-linecap:round; stroke-linejoin:round;">
</g>
<g style="fill:#B2803A; fill-opacity:1.0000; 
stroke:#B2803A; stroke-width:0.0000; stroke-opacity:1; 
stroke-linecap:round; stroke-linejoin:round;">
<path style="fill:#B2803A; fill-opacity:1.0000; 
stroke:#B2803A; stroke-width:0.0000; stroke-opacity:1; 
stroke-linecap:round; stroke-linejoin:round;fill-rule:evenodd;"
d="M 5.9914,6.0266
5.9505,5.9380
5.9467,5.8406
5.9805,5.7491
6.0467,5.6774
6.6534,5.2366
6.7420,5.1958
6.8395,5.1919
6.9310,5.2257
7.0026,5.2919
7.7374,6.3032
7.7782,6.3918
7.7820,6.4892
7.7483,6.5807
7.6821,6.6524
7.0753,7.0932
6.9867,7.1340
6.8893,7.1379
6.7977,7.1041
6.7261,7.0379
Z" /> 
<path style="fill:#B2803A; fill-opacity:1.0000; 
stroke:#B2803A; stroke-width:0.0000; stroke-opacity:1; 
stroke-linecap:round; stroke-linejoin:round;fill-rule:evenodd;"
d="M 8.2566,4.3808
8.2158,4.2922
8.2120,4.1948
8.2457,4.1033
8.3119,4.0316
8.9187,3.5908
9.0073,3.5500
9.1047,3.5461
9.1963,3.5799
9.2679,3.6461
10.0026,4.6574
10.0435,4.7460
10.0473,4.8434
10.0135,4.9349
9.9473,5.0066
9.3406,5.4474
9.2520,5.4882
9.1545,5.4921
9.0630,5.4583
8.9914,5.3921
Z" /> 
</g>
<g >
</g>
<g style="fill:#B2803A; fill-opacity:1.0000; 
stroke:#B2803A; stroke-width:0.0000; stroke-opacity:1; 
stroke-linecap:round; stroke-linejoin:round;">
<path style="fill:#B2803A; fill-opacity:1.0000; 
stroke:#B2803A; stroke-width:0.0000; stroke-opacity:1; 
stroke-linecap:round; stroke-linejoin:round;fill-rule:evenodd;"
d="M 17.0750,27.6750
17.0560,27.7707
17.0018,27.8518
16.9207,27.9060
16.8250,27.9250
16.0750,27.9250
15.9793,27.9060
15.8982,27.8518
15.8440,27.7707
15.8250,27.6750
15.8250,26.4250
15.8440,26.3293
15.8982,26.2482
15.9793,26.1940
16.0750,26.1750
16.8250,26.1750
16.9207,26.1940
17.0018,26.2482
17.0560,26.3293
17.0750,26.4250
Z" /> 
<path style="fill:#B2803A; fill-opacity:1.0000; 
stroke:#B2803A; stroke-width:0.0000; stroke-opacity:1; 
stroke-linecap:round; stroke-linejoin:round;fill-rule:evenodd;"
d="M 14.2750,27.6750
14.2560,27.7707
14.2018,27.8518
14.1207,27.9060
14.0250,27.9250
13.2750,27.9250
13.1793,27.9060
13.0982,27.8518
13.0440,27.7707
13.0250,27.6750
13.0250,26.4250
13.0440,26.3293
13.0982,26.2482
13.1793,26.1940
13.2750,26.1750
14.0250,26.1750
14.1207,26.1940
14.2018,26.2482
14.2560,26.3293
14.2750,26.4250
Z" /> 
</g>
<g >
</g>
<g style="fill:#B2803A; fill-opacity:1.0000; 
stroke:#B2803A; stroke-width:0.0000; stroke-opacity:1; 
stroke-linecap:round; stroke-linejoin:round;">
<path style="fill:#B2803A; fill-opacity:1.0000; 
stroke:#B2803A; stroke-width:0.0000; stroke-opacity:1; 
stroke-linecap:round; stroke-linejoin:round;fill-rule:evenodd;"
d="M 26.4317,9.2230
26.5285,9.2115
26.6224,9.2380
26.6990,9.2984
26.7467,9.3835
26.9784,10.0968
26.9899,10.1936
26.9634,10.2875
26.9030,10.3641
26.8179,10.4118
25.6291,10.7981
25.5322,10.8095
25.4383,10.7831
25.3617,10.7227
25.3141,10.6376
25.0823,9.9243
25.0709,9.8274
25.0973,9.7335
25.1577,9.6569
25.2428,9.6092
Z" /> 
<path style="fill:#B2803A; fill-opacity:1.0000; 
stroke:#B2803A; stroke-width:0.0000; stroke-opacity:1; 
stroke-linecap:round; stroke-linejoin:round;fill-rule:evenodd;"
d="M 27.2969,11.8859
27.3938,11.8745
27.4877,11.9009
27.5643,11.9613
27.6119,12.0464
27.8437,12.7597
27.8551,12.8566
27.8287,12.9505
27.7683,13.0271
27.6832,13.0748
26.4943,13.4610
26.3975,13.4725
26.3036,13.4460
26.2270,13.3856
26.1793,13.3005
25.9476,12.5872
25.9361,12.4904
25.9626,12.3965
26.0230,12.3199
26.1081,12.2722
Z" /> 
</g>
<g >
</g>
<g style="fill:#B2803A; fill-opacity:1.0000; 
stroke:#B2803A; stroke-width:0.0000; stroke-opacity:1; 
stroke-linecap:round; stroke-linejoin:round;">
<path style="fill:#B2803A; fill-opacity:1.0000; 
stroke:#B2803A; stroke-width:0.0000; stroke-opacity:1; 
stroke-linecap:round; stroke-linejoin:round;fill-rule:evenodd;"
d="M 13.0250,2.4250
13.0440,2.3293
13.0982,2.2482
13.1793,2.1940
13.2750,2.1750
14.0250,2.1750
14.1207,2.1940
14.2018,2.2482
14.2560,2.3293
14.2750,2.4250
14.2750,3.6750
14.2560,3.7707
14.2018,3.8518
14.1207,3.9060
14.0250,3.9250
13.2750,3.9250
13.1793,3.9060
13.0982,3.8518
13.0440,3.7707
13.0250,3.6750
Z" /> 
<path style="fill:#B2803A; fill-opacity:1.0000; 
stroke:#B2803A; stroke-width:0.0000; stroke-opacity:1; 
stroke-linecap:round; stroke-linejoin:round;fill-rule:evenodd;"
d="M 15.8250,2.4250
15.8440,2.3293
15.8982,2.2482
15.9793,2.1940
16.0750,2.1750
16.8250,2.1750
16.9207,2.1940
17.0018,2.2482
17.0560,2.3293
17.0750,2.4250
17.0750,3.6750
17.0560,3.7707
17.0018,3.8518
16.9207,3.9060
16.8250,3.9250
16.0750,3.9250
15.9793,3.9060
15.8982,3.8518
15.8440,3.7707
15.8250,3.6750
Z" /> 
</g>
<g >
</g>
<g style="fill:#B2803A; fill-opacity:1.0000; 
stroke:#B2803A; stroke-width:0.0000; stroke-opacity:1; 
stroke-linecap:round; stroke-linejoin:round;">
<path style="fill:#B2803A; fill-opacity:1.0000; 
stroke:#B2803A; stroke-width:0.0000; stroke-opacity:1; 
stroke-linecap:round; stroke-linejoin:round;fill-rule:evenodd;"
d="M 9.2679,26.4539
9.1963,26.5201
9.1047,26.5539
9.0073,26.5500
8.9187,26.5092
8.3119,26.0684
8.2457,25.9967
8.2120,25.9052
8.2158,25.8078
8.2566,25.7192
8.9914,24.7079
9.0630,24.6417
9.1545,24.6079
9.2520,24.6118
9.3406,24.6526
9.9473,25.0934
10.0135,25.1651
10.0473,25.2566
10.0435,25.3540
10.0026,25.4426
Z" /> 
<path style="fill:#B2803A; fill-opacity:1.0000; 
stroke:#B2803A; stroke-width:0.0000; stroke-opacity:1; 
stroke-linecap:round; stroke-linejoin:round;fill-rule:evenodd;"
d="M 7.0026,24.8081
6.9310,24.8743
6.8395,24.9081
6.7420,24.9042
6.6534,24.8634
6.0467,24.4226
5.9805,24.3509
5.9467,24.2594
5.9505,24.1620
5.9914,24.0734
6.7261,23.0621
6.7977,22.9959
6.8893,22.9621
6.9867,22.9660
7.0753,23.0068
7.6821,23.4476
7.7483,23.5193
7.7820,23.6108
7.7782,23.7082
7.7374,23.7968
Z" /> 
</g>
<g >
</g>
<g style="fill:#B2803A; fill-opacity:1.0000; 
stroke:#B2803A; stroke-width:0.0000; stroke-opacity:1; 
stroke-linecap:round; stroke-linejoin:round;">
<path style="fill:#B2803A; fill-opacity:1.0000; 
stroke:#B2803A; stroke-width:0.0000; stroke-opacity:1; 
stroke-linecap:round; stroke-linejoin:round;fill-rule:evenodd;"
d="M 3.6683,20.8770
3.5715,20.8885
3.4776,20.8620
3.4010,20.8016
3.3533,20.7165
3.1216,20.0032
3.1101,19.9064
3.1366,19.8125
3.1970,19.7359
3.2821,19.6882
4.4709,19.3019
4.5678,19.2905
4.6617,19.3169
4.7383,19.3773
4.7859,19.4624
5.0177,20.1757
5.0291,20.2726
5.0027,20.3665
4.9423,20.4431
4.8572,20.4908
Z" /> 
<path style="fill:#B2803A; fill-opacity:1.0000; 
stroke:#B2803A; stroke-width:0.0000; stroke-opacity:1; 
stroke-linecap:round; stroke-linejoin:round;fill-rule:evenodd;"
d="M 2.8031,18.2141
2.7062,18.2255
2.6123,18.1991
2.5357,18.1387
2.4881,18.0536
2.2563,17.3403
2.2449,17.2434
2.2713,17.1495
2.3317,17.0729
2.4168,17.0252
3.6057,16.6390
3.7025,16.6275
3.7964,16.6540
3.8730,16.7144
3.9207,16.7995
4.1524,17.5128
4.1639,17.6096
4.1374,17.7035
4.0770,17.7801
3.9919,17.8278
Z" /> 
</g>
<g >
</g>
<g style="fill:#B2803A; fill-opacity:1.0000; 
stroke:#B2803A; stroke-width:0.0000; stroke-opacity:1; 
stroke-linecap:round; stroke-linejoin:round;">
<path style="fill:#B2803A; fill-opacity:1.0000; 
stroke:#B2803A; stroke-width:0.0000; stroke-opacity:1; 
stroke-linecap:round; stroke-linejoin:round;fill-rule:evenodd;"
d="M 2.4168,13.0748
2.3317,13.0271
2.2713,12.9505
2.2449,12.8566
2.2563,12.7597
2.4881,12.0464
2.5357,11.9613
2.6123,11.9009
2.7062,11.8745
2.8031,11.8859
3.9919,12.2722
4.0770,12.3199
4.1374,12.3965
4.1639,12.4904
4.1524,12.5872
3.9207,13.3005
3.8730,13.3856
3.7964,13.4460
3.7025,13.4725
3.6057,13.4610
Z" /> 
<path style="fill:#B2803A; fill-opacity:1.0000; 
stroke:#B2803A; stroke-width:0.0000; stroke-opacity:1; 
stroke-linecap:round; stroke-linejoin:round;fill-rule:evenodd;"
d="M 3.2821,10.4118
3.1970,10.3641
3.1366,10.2875
3.1101,10.1936
3.1216,10.0968
3.3533,9.3835
3.4010,9.2984
3.4776,9.2380
3.5715,9.2115
3.6683,9.2230
4.8572,9.6092
4.9423,9.6569
5.0027,9.7335
5.0291,9.8274
5.0177,9.9243
4.7859,10.6376
4.7383,10.7227
4.6617,10.7831
4.5678,10.8095
4.4709,10.7981
Z" /> 
</g>
<g >
</g>
<g style="fill:#B2803A; fill-opacity:1.0000; 
stroke:#B2803A; stroke-width:0.0000; stroke-opacity:1; 
stroke-linecap:round; stroke-linejoin:round;">
<path style="fill:#B2803A; fill-opacity:1.0000; 
stroke:#B2803A; stroke-width:0.0000; stroke-opacity:1; 
stroke-linecap:round; stroke-linejoin:round;fill-rule:evenodd;"
d="M 24.1086,24.0734
24.1495,24.1620
24.1533,24.2594
24.1195,24.3509
24.0533,24.4226
23.4466,24.8634
23.3580,24.9042
23.2605,24.9081
23.1690,24.8743
23.0974,24.8081
22.3626,23.7968
22.3218,23.7082
22.3180,23.6108
22.3517,23.5193
22.4179,23.4476
23.0247,23.0068
23.1133,22.9660
23.2107,22.9621
23.3023,22.9959
23.3739,23.0621
Z" /> 
<path style="fill:#B2803A; fill-opacity:1.0000; 
stroke:#B2803A; stroke-width:0.0000; stroke-opacity:1; 
stroke-linecap:round; stroke-linejoin:round;fill-rule:evenodd;"
d="M 21.8434,25.7192
21.8842,25.8078
21.8880,25.9052
21.8543,25.9967
21.7881,26.0684
21.1813,26.5092
21.0927,26.5500
20.9953,26.5539
20.9037,26.5201
20.8321,26.4539
20.0974,25.4426
20.0565,25.3540
20.0527,25.2566
20.0865,25.1651
20.1527,25.0934
20.7594,24.6526
20.8480,24.6118
20.9455,24.6079
21.0370,24.6417
21.1086,24.7079
Z" /> 
</g>
<g >
</g>
<g style="fill:#B2803A; fill-opacity:1.0000; 
stroke:#B2803A; stroke-width:0.0000; stroke-opacity:1; 
stroke-linecap:round; stroke-linejoin:round;">
<path style="fill:#B2803A; fill-opacity:1.0000; 
stroke:#B2803A; stroke-width:0.0000; stroke-opacity:1; 
stroke-linecap:round; stroke-linejoin:round;fill-rule:evenodd;"
d="M 27.6832,17.0252
27.7683,17.0729
27.8287,17.1495
27.8551,17.2434
27.8437,17.3403
27.6119,18.0536
27.5643,18.1387
27.4877,18.1991
27.3938,18.2255
27.2969,18.2141
26.1081,17.8278
26.0230,17.7801
25.9626,17.7035
25.9361,17.6096
25.9476,17.5128
26.1793,16.7995
26.2270,16.7144
26.3036,16.6540
26.3975,16.6275
26.4943,16.6390
Z" /> 
<path style="fill:#B2803A; fill-opacity:1.0000; 
stroke:#B2803A; stroke-width:0.0000; stroke-opacity:1; 
stroke-linecap:round; stroke-linejoin:round;fill-rule:evenodd;"
d="M 26.8179,19.6882
26.9030,19.7359
26.9634,19.8125
26.9899,19.9064
26.9784,20.0032
26.7467,20.7165
26.6990,20.8016
26.6224,20.8620
26.5285,20.8885
26.4317,20.8770
25.2428,20.4908
25.1577,20.4431
25.0973,20.3665
25.0709,20.2726
25.0823,20.1757
25.3141,19.4624
25.3617,19.3773
25.4383,19.3169
25.5322,19.2905
25.6291,19.3019
Z" /> 
</g>
<g >
</g>
<g style="fill:#B2803A; fill-opacity:1.0000; 
stroke:#B2803A; stroke-width:0.0000; stroke-opacity:1; 
stroke-linecap:round; stroke-linejoin:round;">
<path style="fill:#B2803A; fill-opacity:1.0000; 
stroke:#B2803A; stroke-width:0.0000; stroke-opacity:1; 
stroke-linecap:round; stroke-linejoin:round;fill-rule:evenodd;"
d="M 20.8321,3.6461
20.9037,3.5799
20.9953,3.5461
21.0927,3.5500
21.1813,3.5908
21.7881,4.0316
21.8543,4.1033
21.8880,4.1948
21.8842,4.2922
21.8434,4.3808
21.1086,5.3921
21.0370,5.4583
20.9455,5.4921
20.8480,5.4882
20.7594,5.4474
20.1527,5.0066
20.0865,4.9349
20.0527,4.8434
20.0565,4.7460
20.0974,4.6574
Z" /> 
<path style="fill:#B2803A; fill-opacity:1.0000; 
stroke:#B2803A; stroke-width:0.0000; stroke-opacity:1; 
stroke-linecap:round; stroke-linejoin:round;fill-rule:evenodd;"
d="M 23.0974,5.2919
23.1690,5.2257
23.2605,5.1919
23.3580,5.1958
23.4466,5.2366
24.0533,5.6774
24.1195,5.7491
24.1533,5.8406
24.1495,5.9380
24.1086,6.0266
23.3739,7.0379
23.3023,7.1041
23.2107,7.1379
23.1133,7.1340
23.0247,7.0932
22.4179,6.6524
22.3517,6.5807
22.3180,6.4892
22.3218,6.3918
22.3626,6.3032
Z" /> 
</g>
<g >
</g>
<g >
</g>
<g >
</g>
</g>
<g style="fill:#000000; fill-opacity:1.0000; 
stroke:#000000; stroke-width:0.0000; stroke-opacity:1; 
stroke-linecap:round; stroke-linejoin:round;">
</g>
<g style="fill:#FFFFFF; fill-opacity:1.0000; 
stroke:#FFFFFF; stroke-width:0.0000; stroke-opacity:1; 
stroke-linecap:round; stroke-linejoin:round;">
<g >
</g>
<g >
</g>
<g >
</g>
<g >
</g>
<g >
</g>
<g >
</g>
<g >
</g>
<g >
</g>
<g >
</g>
<g >
</g>
<g >
</g>
<g >
</g>
<g >
</g>
</g>
<g style="fill:#000000; fill-opacity:1.0000; 
stroke:#000000; stroke-width:0.0000; stroke-opacity:1; 
stroke-linecap:round; stroke-linejoin:round;">
</g>
<g style="fill:#FFFFFF; fill-opacity:1.0000; 
stroke:#FFFFFF; stroke-width:0.0000; stroke-opacity:1; 
stroke-linecap:round; stroke-linejoin:round;">
</g>
<g style="fill:#2F2D31; fill-opacity:1.0000; 
stroke:#2F2D31; stroke-width:0.0000; stroke-opacity:1; 
stroke-linecap:round; stroke-linejoin:round;">
</g>
<g style="fill:#2F2D31; fill-opacity:0.0; 
stroke:#2F2D31; stroke-width:0.1000; stroke-opacity:1; 
stroke-linecap:round; stroke-linejoin:round;">
<circle cx="15.0500" cy="15.0500" r="15.0000" /> 
<g >
</g>
<g >
</g>
<g >
</g>
<g >
</g>
<g >
</g>
<g >
</g>
<g >
</g>
<g >
</g>
<g >
</g>
<g >
</g>
<g >
</g>
<g >
</g>
<g >
</g>
</g> 
</svg>
