<?xml version="1.0" standalone="no"?>
 <!DOCTYPE svg PUBLIC "-//W3C//DTD SVG 1.1//EN" 
 "http://www.w3.org/Graphics/SVG/1.1/DTD/svg11.dtd"> 
<svg
  xmlns:svg="http://www.w3.org/2000/svg"
  xmlns="http://www.w3.org/2000/svg"
  xmlns:xlink="http://www.w3.org/1999/xlink"
  version="1.1"
  width="35.6870mm" height="35.6870mm" viewBox="0.0000 0.0000 35.6870 35.6870">
<title>SVG Image created as working-brd.svg date 2023/09/26 22:10:07 </title>
  <desc>Image generated by PCBNEW </desc>
<g style="fill:#000000; fill-opacity:1.0000;stroke:#000000; stroke-opacity:1.0000;
stroke-linecap:round; stroke-linejoin:round;"
 transform="translate(0 0) scale(1 1)">
</g>
<g style="fill:#000000; fill-opacity:0.0; 
stroke:#000000; stroke-width:0.0000; stroke-opacity:1; 
stroke-linecap:round; stroke-linejoin:round;">
</g>
<g style="fill:#000000; fill-opacity:1.0000; 
stroke:#000000; stroke-width:0.0212; stroke-opacity:1; 
stroke-linecap:round; stroke-linejoin:round;">
<rect x="-5.000000" y="-5.000000" width="45.710000" height="45.710000" rx="0.000000" />
</g>
<g style="fill:#FFFFFF; fill-opacity:1.0000; 
stroke:#FFFFFF; stroke-width:0.0212; stroke-opacity:1; 
stroke-linecap:round; stroke-linejoin:round;">
<g >
</g>
<g >
</g>
<g style="fill:#B2803A; fill-opacity:1.0000; 
stroke:#B2803A; stroke-width:0.0212; stroke-opacity:1; 
stroke-linecap:round; stroke-linejoin:round;">
</g>
<g style="fill:#B2803A; fill-opacity:1.0000; 
stroke:#B2803A; stroke-width:0.0000; stroke-opacity:1; 
stroke-linecap:round; stroke-linejoin:round;">
<path style="fill:#B2803A; fill-opacity:1.0000; 
stroke:#B2803A; stroke-width:0.0000; stroke-opacity:1; 
stroke-linecap:round; stroke-linejoin:round;fill-rule:evenodd;"
d="M 18.1250,25.7450
20.1250,25.7450
20.1250,27.7450
18.1250,27.7450
Z" /> 
<circle cx="16.5850" cy="26.7450" r="1.0000" /> 
</g>
<g style="fill:#B2803A; fill-opacity:1.0000; 
stroke:#B2803A; stroke-width:0.0212; stroke-opacity:1; 
stroke-linecap:round; stroke-linejoin:round;">
</g>
<g >
</g>
<g >
</g>
<g >
</g>
<g >
</g>
<g >
</g>
<g style="fill:#B2803A; fill-opacity:1.0000; 
stroke:#B2803A; stroke-width:0.0212; stroke-opacity:1; 
stroke-linecap:round; stroke-linejoin:round;">
</g>
<g style="fill:#B2803A; fill-opacity:1.0000; 
stroke:#B2803A; stroke-width:0.0000; stroke-opacity:1; 
stroke-linecap:round; stroke-linejoin:round;">
<path style="fill:#B2803A; fill-opacity:1.0000; 
stroke:#B2803A; stroke-width:0.0000; stroke-opacity:1; 
stroke-linecap:round; stroke-linejoin:round;fill-rule:evenodd;"
d="M 2.3050,21.2400
2.3050,15.7400
7.8050,15.7400
7.8050,21.2400
Z" /> 
<path style="fill:#B2803A; fill-opacity:1.0000; 
stroke:#B2803A; stroke-width:0.0000; stroke-opacity:1; 
stroke-linecap:round; stroke-linejoin:round;fill-rule:evenodd;"
d="M 27.9050,21.2400
27.9050,15.7400
33.4050,15.7400
33.4050,21.2400
Z" /> 
<path style="fill:#B2803A; fill-opacity:1.0000; 
stroke:#B2803A; stroke-width:0.0000; stroke-opacity:1; 
stroke-linecap:round; stroke-linejoin:round;fill-rule:evenodd;"
d="M 15.8550,20.4900
15.8550,16.4900
19.8550,16.4900
19.8550,20.4900
Z" /> 
</g>
<g >
</g>
<g style="fill:#121212; fill-opacity:1.0000; 
stroke:#121212; stroke-width:0.0000; stroke-opacity:1; 
stroke-linecap:round; stroke-linejoin:round;">
<circle cx="17.8550" cy="22.3000" r="0.3429" /> 
</g>
<g style="fill:#121212; fill-opacity:1.0000; 
stroke:#121212; stroke-width:0.0212; stroke-opacity:1; 
stroke-linecap:round; stroke-linejoin:round;">
</g>
<g style="fill:#121212; fill-opacity:1.0000; 
stroke:#121212; stroke-width:0.0000; stroke-opacity:1; 
stroke-linecap:round; stroke-linejoin:round;">
<circle cx="13.4100" cy="19.1250" r="0.3429" /> 
</g>
<g style="fill:#121212; fill-opacity:1.0000; 
stroke:#121212; stroke-width:0.0212; stroke-opacity:1; 
stroke-linecap:round; stroke-linejoin:round;">
</g>
<g style="fill:#121212; fill-opacity:1.0000; 
stroke:#121212; stroke-width:0.0000; stroke-opacity:1; 
stroke-linecap:round; stroke-linejoin:round;">
<circle cx="19.7600" cy="11.5050" r="0.3429" /> 
</g>
<g style="fill:#121212; fill-opacity:1.0000; 
stroke:#121212; stroke-width:0.0212; stroke-opacity:1; 
stroke-linecap:round; stroke-linejoin:round;">
</g>
<g >
</g>
<g style="fill:#B2803A; fill-opacity:1.0000; 
stroke:#B2803A; stroke-width:0.0212; stroke-opacity:1; 
stroke-linecap:round; stroke-linejoin:round;">
</g>
<g style="fill:#B2803A; fill-opacity:1.0000; 
stroke:#B2803A; stroke-width:0.2540; stroke-opacity:1; 
stroke-linecap:round; stroke-linejoin:round;">
</g>
<g style="fill:#B2803A; fill-opacity:0.0; 
stroke:#B2803A; stroke-width:0.2540; stroke-opacity:1; 
stroke-linecap:round; stroke-linejoin:round;">
<path d="M17.8550 18.4900
L17.8550 22.3000
" />
</g>
<g >
</g>
<g style="fill:#B2803A; fill-opacity:0.0; 
stroke:#B2803A; stroke-width:0.2540; stroke-opacity:1; 
stroke-linecap:round; stroke-linejoin:round;">
<g >
</g>
<g style="fill:#B2803A; fill-opacity:1.0000; 
stroke:#B2803A; stroke-width:0.0000; stroke-opacity:1; 
stroke-linecap:round; stroke-linejoin:round;">
<path style="fill:#B2803A; fill-opacity:1.0000; 
stroke:#B2803A; stroke-width:0.0000; stroke-opacity:1; 
stroke-linecap:round; stroke-linejoin:round;fill-rule:evenodd;"
d="M 35.0766,0.5955
35.1231,0.6492
35.1345,0.7015
35.1345,35.0085
35.1145,35.0766
35.0608,35.1231
35.0085,35.1345
0.7015,35.1345
0.6334,35.1145
0.5869,35.0608
0.5755,35.0085
0.5755,26.7450
15.0718,26.7450
15.0905,26.9817
15.1459,27.2126
15.2368,27.4320
15.3608,27.6344
15.3608,27.6344
15.5150,27.8150
15.6641,27.9422
15.6956,27.9692
15.8980,28.0932
16.1174,28.1841
16.3483,28.2395
16.5850,28.2582
16.8217,28.2395
17.0526,28.1841
17.2720,28.0932
17.4744,27.9692
17.4844,27.9607
17.5492,27.9316
17.6194,27.9422
17.6677,27.9847
17.6687,27.9840
17.6723,27.9888
17.6727,27.9891
17.6731,27.9899
17.7617,28.1083
17.8788,28.1959
17.8788,28.1959
17.8788,28.1959
17.9379,28.2179
18.0158,28.2470
18.0158,28.2470
18.0763,28.2535
18.0764,28.2535
18.0764,28.2535
18.0764,28.2535
20.1736,28.2535
20.1736,28.2535
20.1736,28.2535
20.1736,28.2535
20.2342,28.2470
20.2342,28.2470
20.2342,28.2470
20.3712,28.1959
20.4883,28.1083
20.5759,27.9912
20.6270,27.8542
20.6282,27.8433
20.6335,27.7936
20.6335,27.7936
20.6335,25.6964
20.6335,25.6963
20.6270,25.6358
20.6270,25.6358
20.5979,25.5579
20.5759,25.4988
20.5759,25.4988
20.5759,25.4988
20.4883,25.3817
20.3712,25.2941
20.3712,25.2941
20.2342,25.2430
20.2342,25.2430
20.1736,25.2365
20.1736,25.2365
18.0764,25.2365
18.0763,25.2365
18.0158,25.2430
18.0158,25.2430
17.8788,25.2941
17.8788,25.2941
17.7617,25.3817
17.6687,25.5060
17.6664,25.5043
17.6266,25.5441
17.5572,25.5592
17.4907,25.5344
17.4844,25.5293
17.4761,25.5222
17.4744,25.5208
17.2720,25.3968
17.0526,25.3059
16.8947,25.2680
16.8217,25.2505
16.5850,25.2318
16.5850,25.2318
16.3483,25.2505
16.1174,25.3059
15.8980,25.3968
15.6956,25.5208
15.6956,25.5208
15.5150,25.6750
15.3608,25.8556
15.3608,25.8556
15.2368,26.0580
15.1459,26.2774
15.0905,26.5083
15.0718,26.7450
0.5755,26.7450
0.5755,18.7440
1.7970,18.7440
1.7970,21.2886
1.8035,21.3491
1.8546,21.4860
1.8546,21.4860
1.9421,21.6029
2.0590,21.6904
2.1959,21.7415
2.2564,21.7480
2.2564,21.7480
4.8010,21.7480
4.8010,18.7440
5.3090,18.7440
5.3090,21.7480
7.8536,21.7480
7.8536,21.7480
7.9141,21.7415
8.0510,21.6904
8.0510,21.6904
8.1679,21.6029
8.2554,21.4860
8.2554,21.4860
8.3065,21.3491
8.3130,21.2886
8.3130,21.2886
8.3130,20.5386
15.3465,20.5386
15.3465,20.5386
15.3530,20.5992
15.3530,20.5992
15.4041,20.7362
15.4041,20.7362
15.4917,20.8533
15.6088,20.9409
15.6088,20.9409
15.6088,20.9409
15.6679,20.9629
15.7458,20.9920
15.7458,20.9920
15.8064,20.9985
15.8064,20.9985
15.8064,20.9985
17.0935,20.9985
17.1616,21.0185
17.2081,21.0722
17.2195,21.1245
17.2195,21.6850
17.1995,21.7531
17.1871,21.7693
17.1624,21.7968
17.0729,21.9518
17.0729,21.9518
17.0176,22.1220
16.9989,22.3000
17.0176,22.4780
17.0729,22.6482
17.0729,22.6482
17.1624,22.8032
17.1624,22.8032
17.1624,22.8032
17.2822,22.9362
17.2822,22.9362
17.4269,23.0414
17.4270,23.0414
17.4270,23.0414
17.5905,23.1142
17.7655,23.1514
17.9445,23.1514
18.1195,23.1142
18.2830,23.0414
18.4278,22.9362
18.5476,22.8032
18.6371,22.6482
18.6924,22.4780
18.7111,22.3000
18.6924,22.1220
18.6887,22.1106
18.6371,21.9518
18.6371,21.9518
18.5476,21.7968
18.5476,21.7968
18.5476,21.7968
18.5229,21.7693
18.4921,21.7053
18.4905,21.6850
18.4905,21.1245
18.5105,21.0564
18.5642,21.0099
18.6165,20.9985
19.9036,20.9985
19.9036,20.9985
19.9036,20.9985
19.9036,20.9985
19.9642,20.9920
19.9642,20.9920
19.9642,20.9920
20.1012,20.9409
20.2183,20.8533
20.3059,20.7362
20.3570,20.5992
20.3635,20.5386
20.3635,18.7440
27.3970,18.7440
27.3970,21.2886
27.4035,21.3491
27.4546,21.4860
27.4546,21.4860
27.5421,21.6029
27.6590,21.6904
27.7959,21.7415
27.8564,21.7480
27.8564,21.7480
30.4010,21.7480
30.4010,18.7440
30.9090,18.7440
30.9090,21.7480
33.4536,21.7480
33.4536,21.7480
33.5141,21.7415
33.6510,21.6904
33.6510,21.6904
33.7679,21.6029
33.8554,21.4860
33.8554,21.4860
33.9065,21.3491
33.9130,21.2886
33.9130,21.2886
33.9130,18.7440
30.9090,18.7440
30.4010,18.7440
27.3970,18.7440
20.3635,18.7440
20.3635,18.2360
27.3970,18.2360
30.4010,18.2360
30.4010,15.2320
30.9090,15.2320
30.9090,18.2360
33.9130,18.2360
33.9130,15.6914
33.9130,15.6914
33.9065,15.6309
33.8554,15.4940
33.8554,15.4940
33.7679,15.3771
33.6510,15.2896
33.5141,15.2385
33.4536,15.2320
30.9090,15.2320
30.4010,15.2320
27.8564,15.2320
27.7959,15.2385
27.6590,15.2896
27.6590,15.2896
27.5421,15.3771
27.4546,15.4940
27.4546,15.4940
27.4035,15.6309
27.3970,15.6914
27.3970,18.2360
20.3635,18.2360
20.3635,16.4414
20.3635,16.4413
20.3570,16.3808
20.3570,16.3808
20.3059,16.2438
20.3059,16.2438
20.2183,16.1267
20.1012,16.0391
20.1012,16.0391
19.9642,15.9880
19.9642,15.9880
19.9036,15.9815
19.9036,15.9815
15.8064,15.9815
15.8064,15.9815
15.7458,15.9880
15.7458,15.9880
15.6088,16.0391
15.6088,16.0391
15.4917,16.1267
15.4041,16.2438
15.4041,16.2438
15.3530,16.3808
15.3530,16.3808
15.3465,16.4413
15.3465,16.4414
15.3465,20.5386
8.3130,20.5386
8.3130,18.7440
5.3090,18.7440
4.8010,18.7440
1.7970,18.7440
0.5755,18.7440
0.5755,18.2360
1.7970,18.2360
4.8010,18.2360
4.8010,15.2320
5.3090,15.2320
5.3090,18.2360
8.3130,18.2360
8.3130,15.6914
8.3130,15.6914
8.3065,15.6309
8.2554,15.4940
8.2554,15.4940
8.1679,15.3771
8.0510,15.2896
7.9141,15.2385
7.8536,15.2320
5.3090,15.2320
4.8010,15.2320
2.2564,15.2320
2.1959,15.2385
2.0590,15.2896
2.0590,15.2896
1.9421,15.3771
1.8546,15.4940
1.8546,15.4940
1.8035,15.6309
1.7970,15.6914
1.7970,18.2360
0.5755,18.2360
0.5755,0.7015
0.5955,0.6334
0.6492,0.5869
0.7015,0.5755
35.0085,0.5755
Z" /> 
</g>
</g>
</g>
<g style="fill:#000000; fill-opacity:1.0000; 
stroke:#000000; stroke-width:0.0000; stroke-opacity:1; 
stroke-linecap:round; stroke-linejoin:round;">
<circle cx="17.8550" cy="22.3000" r="0.1651" /> 
</g>
<g style="fill:#000000; fill-opacity:1.0000; 
stroke:#000000; stroke-width:0.0212; stroke-opacity:1; 
stroke-linecap:round; stroke-linejoin:round;">
</g>
<g style="fill:#000000; fill-opacity:1.0000; 
stroke:#000000; stroke-width:0.0000; stroke-opacity:1; 
stroke-linecap:round; stroke-linejoin:round;">
<circle cx="13.4100" cy="19.1250" r="0.1651" /> 
</g>
<g style="fill:#000000; fill-opacity:1.0000; 
stroke:#000000; stroke-width:0.0212; stroke-opacity:1; 
stroke-linecap:round; stroke-linejoin:round;">
</g>
<g style="fill:#000000; fill-opacity:1.0000; 
stroke:#000000; stroke-width:0.0000; stroke-opacity:1; 
stroke-linecap:round; stroke-linejoin:round;">
<circle cx="19.7600" cy="11.5050" r="0.1651" /> 
</g>
<g style="fill:#000000; fill-opacity:1.0000; 
stroke:#000000; stroke-width:0.0212; stroke-opacity:1; 
stroke-linecap:round; stroke-linejoin:round;">
</g>
<g style="fill:#000000; fill-opacity:1.0000; 
stroke:#000000; stroke-width:0.0000; stroke-opacity:1; 
stroke-linecap:round; stroke-linejoin:round;">
<circle cx="19.1250" cy="26.7450" r="0.5004" /> 
</g>
<g style="fill:#000000; fill-opacity:1.0000; 
stroke:#000000; stroke-width:0.0212; stroke-opacity:1; 
stroke-linecap:round; stroke-linejoin:round;">
</g>
<g style="fill:#000000; fill-opacity:1.0000; 
stroke:#000000; stroke-width:0.0000; stroke-opacity:1; 
stroke-linecap:round; stroke-linejoin:round;">
<circle cx="16.5850" cy="26.7450" r="0.5004" /> 
</g>
<g style="fill:#000000; fill-opacity:1.0000; 
stroke:#000000; stroke-width:0.0212; stroke-opacity:1; 
stroke-linecap:round; stroke-linejoin:round;">
</g>
<g style="fill:#FFFFFF; fill-opacity:1.0000; 
stroke:#FFFFFF; stroke-width:0.0212; stroke-opacity:1; 
stroke-linecap:round; stroke-linejoin:round;">
<g >
</g>
<g style="fill:#37CBCB; fill-opacity:1.0000; 
stroke:#37CBCB; stroke-width:0.0212; stroke-opacity:1; 
stroke-linecap:round; stroke-linejoin:round;">
</g>
<g style="fill:#37CBCB; fill-opacity:1.0000; 
stroke:#37CBCB; stroke-width:0.0000; stroke-opacity:1; 
stroke-linecap:round; stroke-linejoin:round;">
<path style="fill:#37CBCB; fill-opacity:1.0000; 
stroke:#37CBCB; stroke-width:0.0000; stroke-opacity:1; 
stroke-linecap:round; stroke-linejoin:round;fill-rule:evenodd;"
d="M 25.9450,22.4750
27.5450,22.4750
27.5450,24.4750
25.9450,24.4750
Z" /> 
<path style="fill:#37CBCB; fill-opacity:1.0000; 
stroke:#37CBCB; stroke-width:0.0000; stroke-opacity:1; 
stroke-linecap:round; stroke-linejoin:round;fill-rule:evenodd;"
d="M 25.9450,26.4750
27.5450,26.4750
27.5450,28.4750
25.9450,28.4750
Z" /> 
</g>
<g >
</g>
<g style="fill:#37CBCB; fill-opacity:1.0000; 
stroke:#37CBCB; stroke-width:0.0000; stroke-opacity:1; 
stroke-linecap:round; stroke-linejoin:round;">
<path style="fill:#37CBCB; fill-opacity:1.0000; 
stroke:#37CBCB; stroke-width:0.0000; stroke-opacity:1; 
stroke-linecap:round; stroke-linejoin:round;fill-rule:evenodd;"
d="M 18.1250,25.7450
20.1250,25.7450
20.1250,27.7450
18.1250,27.7450
Z" /> 
<circle cx="16.5850" cy="26.7450" r="1.0000" /> 
</g>
<g style="fill:#37CBCB; fill-opacity:1.0000; 
stroke:#37CBCB; stroke-width:0.0212; stroke-opacity:1; 
stroke-linecap:round; stroke-linejoin:round;">
</g>
<g >
</g>
<g style="fill:#37CBCB; fill-opacity:1.0000; 
stroke:#37CBCB; stroke-width:0.0212; stroke-opacity:1; 
stroke-linecap:round; stroke-linejoin:round;">
</g>
<g style="fill:#37CBCB; fill-opacity:1.0000; 
stroke:#37CBCB; stroke-width:0.0000; stroke-opacity:1; 
stroke-linecap:round; stroke-linejoin:round;">
<path style="fill:#37CBCB; fill-opacity:1.0000; 
stroke:#37CBCB; stroke-width:0.0000; stroke-opacity:1; 
stroke-linecap:round; stroke-linejoin:round;fill-rule:evenodd;"
d="M 26.0950,4.9600
27.3950,4.9600
27.3950,6.4600
26.0950,6.4600
Z" /> 
<path style="fill:#37CBCB; fill-opacity:1.0000; 
stroke:#37CBCB; stroke-width:0.0000; stroke-opacity:1; 
stroke-linecap:round; stroke-linejoin:round;fill-rule:evenodd;"
d="M 26.0950,7.6600
27.3950,7.6600
27.3950,9.1600
26.0950,9.1600
Z" /> 
</g>
<g >
</g>
<g style="fill:#37CBCB; fill-opacity:1.0000; 
stroke:#37CBCB; stroke-width:0.0000; stroke-opacity:1; 
stroke-linecap:round; stroke-linejoin:round;">
<path style="fill:#37CBCB; fill-opacity:1.0000; 
stroke:#37CBCB; stroke-width:0.0000; stroke-opacity:1; 
stroke-linecap:round; stroke-linejoin:round;fill-rule:evenodd;"
d="M 26.0950,14.4850
27.3950,14.4850
27.3950,15.9850
26.0950,15.9850
Z" /> 
<path style="fill:#37CBCB; fill-opacity:1.0000; 
stroke:#37CBCB; stroke-width:0.0000; stroke-opacity:1; 
stroke-linecap:round; stroke-linejoin:round;fill-rule:evenodd;"
d="M 26.0950,17.1850
27.3950,17.1850
27.3950,18.6850
26.0950,18.6850
Z" /> 
</g>
<g >
</g>
<g style="fill:#37CBCB; fill-opacity:1.0000; 
stroke:#37CBCB; stroke-width:0.0000; stroke-opacity:1; 
stroke-linecap:round; stroke-linejoin:round;">
<path style="fill:#37CBCB; fill-opacity:1.0000; 
stroke:#37CBCB; stroke-width:0.0000; stroke-opacity:1; 
stroke-linecap:round; stroke-linejoin:round;fill-rule:evenodd;"
d="M 10.8550,24.0100
12.1550,24.0100
12.1550,25.5100
10.8550,25.5100
Z" /> 
<path style="fill:#37CBCB; fill-opacity:1.0000; 
stroke:#37CBCB; stroke-width:0.0000; stroke-opacity:1; 
stroke-linecap:round; stroke-linejoin:round;fill-rule:evenodd;"
d="M 10.8550,26.7100
12.1550,26.7100
12.1550,28.2100
10.8550,28.2100
Z" /> 
</g>
<g >
</g>
<g style="fill:#37CBCB; fill-opacity:1.0000; 
stroke:#37CBCB; stroke-width:0.0000; stroke-opacity:1; 
stroke-linecap:round; stroke-linejoin:round;">
<path style="fill:#37CBCB; fill-opacity:1.0000; 
stroke:#37CBCB; stroke-width:0.0000; stroke-opacity:1; 
stroke-linecap:round; stroke-linejoin:round;fill-rule:evenodd;"
d="M 14.3800,14.9800
14.3800,14.3800
15.9300,14.3800
15.9300,14.9800
Z" /> 
<path style="fill:#37CBCB; fill-opacity:1.0000; 
stroke:#37CBCB; stroke-width:0.0000; stroke-opacity:1; 
stroke-linecap:round; stroke-linejoin:round;fill-rule:evenodd;"
d="M 14.3800,16.2500
14.3800,15.6500
15.9300,15.6500
15.9300,16.2500
Z" /> 
<path style="fill:#37CBCB; fill-opacity:1.0000; 
stroke:#37CBCB; stroke-width:0.0000; stroke-opacity:1; 
stroke-linecap:round; stroke-linejoin:round;fill-rule:evenodd;"
d="M 14.3800,17.5200
14.3800,16.9200
15.9300,16.9200
15.9300,17.5200
Z" /> 
<path style="fill:#37CBCB; fill-opacity:1.0000; 
stroke:#37CBCB; stroke-width:0.0000; stroke-opacity:1; 
stroke-linecap:round; stroke-linejoin:round;fill-rule:evenodd;"
d="M 14.3800,18.7900
14.3800,18.1900
15.9300,18.1900
15.9300,18.7900
Z" /> 
<path style="fill:#37CBCB; fill-opacity:1.0000; 
stroke:#37CBCB; stroke-width:0.0000; stroke-opacity:1; 
stroke-linecap:round; stroke-linejoin:round;fill-rule:evenodd;"
d="M 19.7800,18.7900
19.7800,18.1900
21.3300,18.1900
21.3300,18.7900
Z" /> 
<path style="fill:#37CBCB; fill-opacity:1.0000; 
stroke:#37CBCB; stroke-width:0.0000; stroke-opacity:1; 
stroke-linecap:round; stroke-linejoin:round;fill-rule:evenodd;"
d="M 19.7800,17.5200
19.7800,16.9200
21.3300,16.9200
21.3300,17.5200
Z" /> 
<path style="fill:#37CBCB; fill-opacity:1.0000; 
stroke:#37CBCB; stroke-width:0.0000; stroke-opacity:1; 
stroke-linecap:round; stroke-linejoin:round;fill-rule:evenodd;"
d="M 19.7800,16.2500
19.7800,15.6500
21.3300,15.6500
21.3300,16.2500
Z" /> 
<path style="fill:#37CBCB; fill-opacity:1.0000; 
stroke:#37CBCB; stroke-width:0.0000; stroke-opacity:1; 
stroke-linecap:round; stroke-linejoin:round;fill-rule:evenodd;"
d="M 19.7800,14.9800
19.7800,14.3800
21.3300,14.3800
21.3300,14.9800
Z" /> 
</g>
<g >
</g>
<g >
</g>
<g style="fill:#121212; fill-opacity:1.0000; 
stroke:#121212; stroke-width:0.0000; stroke-opacity:1; 
stroke-linecap:round; stroke-linejoin:round;">
<circle cx="17.8550" cy="22.3000" r="0.3429" /> 
</g>
<g style="fill:#121212; fill-opacity:1.0000; 
stroke:#121212; stroke-width:0.0212; stroke-opacity:1; 
stroke-linecap:round; stroke-linejoin:round;">
</g>
<g style="fill:#121212; fill-opacity:1.0000; 
stroke:#121212; stroke-width:0.0000; stroke-opacity:1; 
stroke-linecap:round; stroke-linejoin:round;">
<circle cx="13.4100" cy="19.1250" r="0.3429" /> 
</g>
<g style="fill:#121212; fill-opacity:1.0000; 
stroke:#121212; stroke-width:0.0212; stroke-opacity:1; 
stroke-linecap:round; stroke-linejoin:round;">
</g>
<g style="fill:#121212; fill-opacity:1.0000; 
stroke:#121212; stroke-width:0.0000; stroke-opacity:1; 
stroke-linecap:round; stroke-linejoin:round;">
<circle cx="19.7600" cy="11.5050" r="0.3429" /> 
</g>
<g style="fill:#121212; fill-opacity:1.0000; 
stroke:#121212; stroke-width:0.0212; stroke-opacity:1; 
stroke-linecap:round; stroke-linejoin:round;">
</g>
<g >
</g>
<g style="fill:#37CBCB; fill-opacity:1.0000; 
stroke:#37CBCB; stroke-width:0.0212; stroke-opacity:1; 
stroke-linecap:round; stroke-linejoin:round;">
</g>
<g style="fill:#37CBCB; fill-opacity:1.0000; 
stroke:#37CBCB; stroke-width:0.2540; stroke-opacity:1; 
stroke-linecap:round; stroke-linejoin:round;">
</g>
<g style="fill:#37CBCB; fill-opacity:0.0; 
stroke:#37CBCB; stroke-width:0.2540; stroke-opacity:1; 
stroke-linecap:round; stroke-linejoin:round;">
<path d="M17.2200 15.9500
L18.4900 17.2200
" />
<path d="M18.4900 17.2200
L20.5550 17.2200
" />
<path d="M24.8400 17.2200
L25.4750 17.8550
" />
<path d="M25.4750 17.8550
L26.6650 17.8550
" />
<path d="M26.6650 17.8550
L26.7450 17.9350
" />
<path d="M26.7450 23.4750
L26.7450 17.9350
" />
<path d="M15.1550 15.9500
L17.2200 15.9500
" />
<path d="M20.5550 17.2200
L24.8400 17.2200
" />
<path d="M14.0450 26.7450
L12.7750 27.3800
" />
<path d="M12.7750 27.3800
L11.5050 28.0950
" />
<path d="M16.5850 26.7450
L14.0450 26.7450
" />
<path d="M20.5550 14.5200
L24.2050 10.8700
" />
<path d="M24.2050 10.8700
L24.2050 6.4250
" />
<path d="M24.2050 6.4250
L24.9200 5.7100
" />
<path d="M24.9200 5.7100
L26.7450 5.7100
" />
<path d="M20.5550 12.3000
L19.7600 11.5050
" />
<path d="M13.4100 19.1250
L14.0450 18.4900
" />
<path d="M20.5550 14.6800
L20.5550 14.5200
" />
<path d="M20.5550 14.6800
L20.5550 12.3000
" />
<path d="M14.0450 18.4900
L15.1550 18.4900
" />
<path d="M24.8400 15.9500
L25.5550 15.2350
" />
<path d="M25.5550 15.2350
L26.7450 15.8700
" />
<path d="M26.7450 15.8700
L26.7450 8.4100
" />
<path d="M20.5550 15.9500
L24.8400 15.9500
" />
<path d="M11.5050 17.8550
L12.1400 17.2200
" />
<path d="M12.1400 17.2200
L15.1550 17.2200
" />
<path d="M11.5050 25.3950
L11.5050 17.8550
" />
</g>
<g >
</g>
<g style="fill:#37CBCB; fill-opacity:0.0; 
stroke:#37CBCB; stroke-width:0.2540; stroke-opacity:1; 
stroke-linecap:round; stroke-linejoin:round;">
<g >
</g>
<g style="fill:#37CBCB; fill-opacity:1.0000; 
stroke:#37CBCB; stroke-width:0.0000; stroke-opacity:1; 
stroke-linecap:round; stroke-linejoin:round;">
<path style="fill:#37CBCB; fill-opacity:1.0000; 
stroke:#37CBCB; stroke-width:0.0000; stroke-opacity:1; 
stroke-linecap:round; stroke-linejoin:round;fill-rule:evenodd;"
d="M 35.0766,0.5955
35.1231,0.6492
35.1345,0.7015
35.1345,35.0085
35.1145,35.0766
35.0608,35.1231
35.0085,35.1345
0.7015,35.1345
0.6334,35.1145
0.5869,35.0608
0.5755,35.0085
0.5755,28.2586
10.3465,28.2586
10.3530,28.3192
10.3530,28.3192
10.4041,28.4562
10.4041,28.4562
10.4917,28.5733
10.6088,28.6609
10.6088,28.6609
10.6088,28.6609
10.6679,28.6829
10.7458,28.7120
10.7458,28.7120
10.8064,28.7185
10.8064,28.7185
10.8064,28.7185
11.3639,28.7185
11.3940,28.7221
11.4311,28.7313
11.5917,28.7297
11.6048,28.7261
11.6174,28.7228
11.6500,28.7185
12.2036,28.7185
12.2036,28.7185
12.2036,28.7185
12.2036,28.7185
12.2642,28.7120
12.2642,28.7120
12.2642,28.7120
12.4012,28.6609
12.5183,28.5733
12.6059,28.4562
12.6570,28.3192
12.6635,28.2586
12.6635,28.2457
12.6835,28.1776
12.7277,28.1359
13.0718,27.9422
13.0745,27.9408
14.1684,27.3938
14.2248,27.3805
15.1347,27.3805
15.2028,27.4005
15.2421,27.4407
15.3608,27.6344
15.3608,27.6344
15.5150,27.8150
15.6956,27.9692
15.6956,27.9692
15.8980,28.0932
16.1174,28.1841
16.3483,28.2395
16.5850,28.2582
16.8217,28.2395
17.0526,28.1841
17.2720,28.0932
17.4744,27.9692
17.4848,27.9603
17.5495,27.9313
17.6197,27.9419
17.6682,27.9845
17.6692,27.9837
17.6726,27.9884
17.6731,27.9888
17.6736,27.9897
17.7621,28.1079
17.8790,28.1954
18.0159,28.2465
18.0764,28.2530
18.0764,28.2530
18.8710,28.2530
18.8710,27.1791
18.9826,27.2300
19.0892,27.2454
19.1608,27.2454
19.2674,27.2300
19.3790,27.1791
19.3790,28.2530
20.1736,28.2530
20.1736,28.2530
20.2341,28.2465
20.3710,28.1954
20.3710,28.1954
20.4879,28.1079
20.5754,27.9910
20.5754,27.9910
20.6265,27.8541
20.6330,27.7936
20.6330,27.7936
20.6330,27.7290
25.4370,27.7290
25.4370,28.5236
25.4435,28.5841
25.4946,28.7210
25.4946,28.7210
25.5821,28.8379
25.6990,28.9254
25.8359,28.9765
25.8964,28.9830
25.8964,28.9830
26.4910,28.9830
26.4910,27.7290
26.9990,27.7290
26.9990,28.9830
27.5936,28.9830
27.5936,28.9830
27.6541,28.9765
27.7910,28.9254
27.7910,28.9254
27.9079,28.8379
27.9954,28.7210
27.9954,28.7210
28.0465,28.5841
28.0530,28.5236
28.0530,28.5236
28.0530,27.7290
26.9990,27.7290
26.4910,27.7290
25.4370,27.7290
20.6330,27.7290
20.6330,27.2210
25.4370,27.2210
26.4910,27.2210
26.4910,25.9670
26.9990,25.9670
26.9990,27.2210
28.0530,27.2210
28.0530,26.4264
28.0530,26.4264
28.0465,26.3659
27.9954,26.2290
27.9954,26.2290
27.9079,26.1121
27.7910,26.0246
27.6541,25.9735
27.5936,25.9670
26.9990,25.9670
26.4910,25.9670
25.8964,25.9670
25.8359,25.9735
25.6990,26.0246
25.6990,26.0246
25.5821,26.1121
25.4946,26.2290
25.4946,26.2290
25.4435,26.3659
25.4370,26.4264
25.4370,27.2210
20.6330,27.2210
20.6330,26.9990
19.5566,26.9990
19.5848,26.9550
19.6254,26.8169
19.6254,26.6731
19.5848,26.5350
19.5566,26.4910
20.6330,26.4910
20.6330,25.6964
20.6330,25.6964
20.6265,25.6359
20.5754,25.4990
20.5754,25.4990
20.4879,25.3821
20.3710,25.2946
20.2341,25.2435
20.1736,25.2370
19.3790,25.2370
19.3790,26.3109
19.2674,26.2600
19.1608,26.2446
19.0892,26.2446
18.9826,26.2600
18.8710,26.3109
18.8710,25.2370
18.0764,25.2370
18.0159,25.2435
17.8790,25.2946
17.8790,25.2946
17.7621,25.3821
17.6692,25.5063
17.6669,25.5045
17.6270,25.5444
17.5576,25.5595
17.4911,25.5347
17.4848,25.5297
17.4744,25.5208
17.4744,25.5208
17.4744,25.5208
17.2720,25.3968
17.2366,25.3821
17.0526,25.3059
16.8947,25.2680
16.8217,25.2505
16.5850,25.2318
16.5850,25.2318
16.3483,25.2505
16.1174,25.3059
15.8980,25.3968
15.6956,25.5208
15.6956,25.5208
15.5150,25.6750
15.3608,25.8556
15.3608,25.8556
15.3608,25.8556
15.3608,25.8556
15.2512,26.0345
15.2421,26.0493
15.1894,26.0970
15.1347,26.1095
14.0574,26.1095
13.9896,26.1069
13.9896,26.1069
13.9836,26.1081
13.9407,26.1174
13.9353,26.1183
13.8857,26.1246
13.8857,26.1246
13.8695,26.1310
13.8497,26.1370
13.8326,26.1407
13.8326,26.1407
13.7879,26.1630
13.7829,26.1653
13.7364,26.1837
13.7364,26.1837
13.7223,26.1939
13.7046,26.2047
12.8225,26.6457
12.7527,26.6583
12.6871,26.6311
12.6481,26.5771
12.6059,26.4638
12.6059,26.4638
12.6059,26.4638
12.5183,26.3467
12.4012,26.2591
12.4012,26.2591
12.3179,26.2281
12.2611,26.1855
12.2363,26.1190
12.2514,26.0496
12.3016,25.9994
12.3179,25.9919
12.3459,25.9815
12.4012,25.9609
12.5183,25.8733
12.6059,25.7562
12.6570,25.6192
12.6635,25.5586
12.6635,23.9614
12.6635,23.9613
12.6570,23.9008
12.6570,23.9008
12.6059,23.7638
12.6059,23.7638
12.5183,23.6467
12.4012,23.5591
12.4012,23.5591
12.2642,23.5080
12.2642,23.5080
12.2530,23.5068
12.1874,23.4796
12.1469,23.4213
12.1405,23.3815
12.1405,18.1704
12.1605,18.1023
12.1774,18.0813
12.3663,17.8924
12.4286,17.8584
12.4554,17.8555
13.4766,17.8555
13.5447,17.8755
13.5912,17.9292
13.6013,17.9994
13.5718,18.0640
13.5657,18.0706
13.3992,18.2371
13.3369,18.2711
13.3232,18.2733
13.3205,18.2736
13.1455,18.3108
12.9819,18.3836
12.8372,18.4888
12.7174,18.6218
12.6279,18.7768
12.6279,18.7768
12.5726,18.9470
12.5726,18.9470
12.5726,18.9470
12.5539,19.1250
12.5722,19.2993
12.5726,19.3030
12.6279,19.4732
12.6279,19.4732
12.7174,19.6282
12.7174,19.6282
12.7174,19.6282
12.8372,19.7612
12.8372,19.7612
12.9819,19.8664
12.9820,19.8664
12.9820,19.8664
13.1455,19.9392
13.3205,19.9764
13.4995,19.9764
13.6745,19.9392
13.8380,19.8664
13.9828,19.7612
14.1026,19.6282
14.1921,19.4732
14.2206,19.3856
14.2606,19.3270
14.3260,19.2993
14.3404,19.2985
15.9786,19.2985
15.9786,19.2985
15.9786,19.2985
15.9786,19.2985
16.0392,19.2920
16.0392,19.2920
16.0392,19.2920
16.1762,19.2409
16.2466,19.1882
16.2933,19.1533
16.3809,19.0362
16.3809,19.0362
16.3809,19.0362
16.4320,18.8992
16.4385,18.8386
16.4385,18.1414
16.4385,18.1413
16.4320,18.0808
16.4320,18.0808
16.3809,17.9438
16.3709,17.9305
16.3461,17.8640
16.3612,17.7946
16.3709,17.7795
16.3809,17.7662
16.4320,17.6292
16.4327,17.6224
16.4385,17.5686
16.4385,17.5686
16.4385,16.8714
16.4385,16.8713
16.4320,16.8108
16.4320,16.8108
16.4114,16.7555
16.4063,16.6847
16.4403,16.6224
16.5026,16.5884
16.5294,16.5855
16.9046,16.5855
16.9727,16.6055
16.9937,16.6224
17.9812,17.6099
17.9912,17.6224
17.9914,17.6222
17.9964,17.6283
17.9964,17.6283
18.0277,17.6576
18.0477,17.6764
18.0689,17.6976
18.0689,17.6976
18.0745,17.7020
18.0790,17.7058
18.1135,17.7382
18.1313,17.7480
18.1479,17.7589
18.1639,17.7713
18.2074,17.7901
18.2127,17.7928
18.2542,17.8156
18.2542,17.8156
18.2542,17.8156
18.2739,17.8206
18.2926,17.8270
18.3113,17.8351
18.3113,17.8351
18.3113,17.8351
18.3415,17.8399
18.3580,17.8425
18.3639,17.8437
18.4097,17.8555
18.4301,17.8555
18.4498,17.8570
18.4699,17.8602
18.5040,17.8570
18.5170,17.8558
18.5229,17.8555
19.1806,17.8555
19.2487,17.8755
19.2952,17.9292
19.3053,17.9994
19.2986,18.0255
19.2780,18.0808
19.2780,18.0808
19.2715,18.1413
19.2715,18.8386
19.2780,18.8992
19.2780,18.8992
19.3291,19.0362
19.3291,19.0362
19.4167,19.1533
19.5338,19.2409
19.5338,19.2409
19.5338,19.2409
19.5929,19.2629
19.6708,19.2920
19.6708,19.2920
19.7313,19.2985
19.7314,19.2985
19.7314,19.2985
19.7314,19.2985
21.3786,19.2985
21.3786,19.2985
21.3786,19.2985
21.3786,19.2985
21.4392,19.2920
21.4392,19.2920
21.4392,19.2920
21.5762,19.2409
21.6466,19.1882
21.6933,19.1533
21.7809,19.0362
21.7809,19.0362
21.7809,19.0362
21.8320,18.8992
21.8385,18.8386
21.8385,18.1414
21.8385,18.1413
21.8320,18.0808
21.8320,18.0808
21.8114,18.0255
21.8063,17.9547
21.8403,17.8924
21.9026,17.8584
21.9294,17.8555
24.5246,17.8555
24.5927,17.8755
24.6137,17.8924
24.7919,18.0706
24.9662,18.2449
24.9762,18.2574
24.9764,18.2572
24.9814,18.2633
25.0327,18.3114
25.0539,18.3326
25.0539,18.3326
25.0539,18.3326
25.0595,18.3370
25.0640,18.3408
25.0985,18.3732
25.1163,18.3830
25.1328,18.3939
25.1489,18.4063
25.1924,18.4252
25.1977,18.4278
25.2392,18.4506
25.2589,18.4556
25.2776,18.4620
25.2963,18.4701
25.2963,18.4701
25.2963,18.4701
25.3265,18.4749
25.3430,18.4775
25.3489,18.4787
25.3947,18.4905
25.4151,18.4905
25.4348,18.4920
25.4549,18.4952
25.4549,18.4952
25.4549,18.4952
25.4628,18.4955
25.4627,18.4986
25.5183,18.5093
25.5697,18.5583
25.5865,18.6213
25.5865,18.7336
25.5930,18.7942
25.5930,18.7942
25.6441,18.9312
25.6441,18.9312
25.7317,19.0483
25.8488,19.1359
25.8488,19.1359
25.8488,19.1359
25.8954,19.1533
25.9858,19.1870
25.9858,19.1870
25.9970,19.1882
26.0626,19.2154
26.1031,19.2737
26.1095,19.3135
26.1095,21.8405
26.0895,21.9086
26.0358,21.9551
25.9835,21.9665
25.8963,21.9665
25.8358,21.9730
25.8358,21.9730
25.6988,22.0241
25.6988,22.0241
25.5817,22.1117
25.4941,22.2288
25.4941,22.2288
25.4430,22.3658
25.4430,22.3658
25.4365,22.4263
25.4365,24.5236
25.4430,24.5842
25.4430,24.5842
25.4941,24.7212
25.4941,24.7212
25.5817,24.8383
25.6988,24.9259
25.6988,24.9259
25.6988,24.9259
25.7579,24.9479
25.8358,24.9770
25.8358,24.9770
25.8963,24.9835
25.8964,24.9835
25.8964,24.9835
25.8964,24.9835
27.5936,24.9835
27.5936,24.9835
27.5936,24.9835
27.5936,24.9835
27.6542,24.9770
27.6542,24.9770
27.6542,24.9770
27.7912,24.9259
27.9083,24.8383
27.9959,24.7212
28.0470,24.5842
28.0535,24.5236
28.0535,22.4264
28.0535,22.4263
28.0470,22.3658
28.0470,22.3658
27.9959,22.2288
27.9959,22.2288
27.9083,22.1117
27.7912,22.0241
27.7912,22.0241
27.6542,21.9730
27.6542,21.9730
27.5936,21.9665
27.5936,21.9665
27.5065,21.9665
27.4384,21.9465
27.3919,21.8928
27.3805,21.8405
27.3805,19.3135
27.4005,19.2453
27.4542,19.1989
27.4930,19.1882
27.5042,19.1870
27.5042,19.1870
27.5042,19.1870
27.6412,19.1359
27.7583,19.0483
27.7673,19.0362
27.8459,18.9312
27.8459,18.9312
27.8459,18.9312
27.8970,18.7942
27.8989,18.7768
27.9035,18.7336
27.9035,18.7336
27.9035,17.1364
27.9035,17.1364
27.8970,17.0758
27.8970,17.0758
27.8459,16.9388
27.8459,16.9388
27.7583,16.8217
27.6412,16.7341
27.6412,16.7341
27.5579,16.7031
27.5011,16.6605
27.4763,16.5940
27.4914,16.5246
27.5416,16.4744
27.5579,16.4669
27.5869,16.4561
27.6412,16.4359
27.6698,16.4145
27.7583,16.3483
27.8459,16.2312
27.8459,16.2312
27.8459,16.2312
27.8970,16.0942
27.9035,16.0336
27.9035,14.4364
27.9024,14.4260
27.8970,14.3758
27.8970,14.3758
27.8679,14.2979
27.8459,14.2388
27.8459,14.2388
27.8459,14.2388
27.7583,14.1217
27.6412,14.0341
27.6412,14.0341
27.5042,13.9830
27.5042,13.9830
27.4930,13.9818
27.4274,13.9546
27.3869,13.8963
27.3805,13.8565
27.3805,9.7885
27.4005,9.7203
27.4542,9.6739
27.4930,9.6632
27.5042,9.6620
27.5042,9.6620
27.5042,9.6620
27.6412,9.6109
27.7583,9.5233
27.8459,9.4062
27.8970,9.2692
27.9035,9.2086
27.9035,7.6114
27.9035,7.6113
27.8970,7.5508
27.8970,7.5508
27.8459,7.4138
27.8459,7.4138
27.7583,7.2967
27.6412,7.2091
27.6412,7.2091
27.5579,7.1781
27.5011,7.1355
27.4763,7.0690
27.4914,6.9996
27.5416,6.9494
27.5579,6.9419
27.6412,6.9109
27.7583,6.8233
27.8459,6.7062
27.8970,6.5692
27.9035,6.5086
27.9035,4.9114
27.9035,4.9113
27.8970,4.8508
27.8970,4.8508
27.8459,4.7138
27.8459,4.7138
27.7583,4.5967
27.6412,4.5091
27.6412,4.5091
27.5042,4.4580
27.5042,4.4580
27.4436,4.4515
27.4436,4.4515
26.0464,4.4515
26.0464,4.4515
25.9858,4.4580
25.9858,4.4580
25.8488,4.5091
25.8488,4.5091
25.7317,4.5967
25.6441,4.7138
25.6441,4.7138
25.5930,4.8508
25.5930,4.8508
25.5865,4.9113
25.5865,4.9485
25.5665,5.0166
25.5128,5.0631
25.4605,5.0745
25.0041,5.0745
24.9882,5.0727
24.9882,5.0730
24.9803,5.0723
24.9100,5.0745
24.8800,5.0745
24.8730,5.0754
24.8671,5.0758
24.8198,5.0773
24.8198,5.0773
24.8002,5.0830
24.7809,5.0870
24.7607,5.0896
24.7607,5.0896
24.7167,5.1070
24.7111,5.1089
24.6656,5.1221
24.6481,5.1325
24.6303,5.1412
24.6114,5.1487
24.5731,5.1765
24.5681,5.1798
24.5274,5.2039
24.5130,5.2183
24.4980,5.2311
24.4815,5.2431
24.4513,5.2795
24.4473,5.2839
23.8151,5.9162
23.8026,5.9262
23.8028,5.9264
23.7967,5.9314
23.7486,5.9827
23.7274,6.0039
23.7274,6.0039
23.7230,6.0095
23.7192,6.0140
23.6868,6.0485
23.6868,6.0485
23.6770,6.0663
23.6661,6.0828
23.6537,6.0989
23.6536,6.0989
23.6348,6.1424
23.6322,6.1477
23.6094,6.1892
23.6094,6.1892
23.6044,6.2089
23.5980,6.2276
23.5899,6.2463
23.5899,6.2463
23.5825,6.2931
23.5813,6.2989
23.5695,6.3447
23.5695,6.3651
23.5679,6.3848
23.5648,6.4049
23.5648,6.4049
23.5692,6.4520
23.5695,6.4579
23.5695,10.5546
23.5495,10.6227
23.5326,10.6437
21.4056,12.7707
21.3433,12.8047
21.2725,12.7996
21.2156,12.7571
21.1908,12.6906
21.1905,12.6816
21.1905,12.3841
21.1923,12.3682
21.1920,12.3682
21.1927,12.3603
21.1927,12.3603
21.1905,12.2900
21.1905,12.2600
21.1896,12.2530
21.1892,12.2471
21.1877,12.1998
21.1820,12.1802
21.1780,12.1609
21.1754,12.1407
21.1580,12.0967
21.1561,12.0911
21.1429,12.0456
21.1325,12.0281
21.1238,12.0103
21.1163,11.9914
21.0885,11.9531
21.0852,11.9482
21.0611,11.9074
21.0611,11.9074
21.0467,11.8930
21.0339,11.8780
21.0219,11.8615
20.9855,11.8313
20.9811,11.8273
20.6426,11.4889
20.6086,11.4266
20.6064,11.4130
20.5974,11.3270
20.5421,11.1568
20.5421,11.1568
20.5397,11.1526
20.4526,11.0018
20.3328,10.8688
20.3328,10.8688
20.1880,10.7636
20.0245,10.6908
19.8495,10.6536
19.6705,10.6536
19.4955,10.6908
19.3319,10.7636
19.1872,10.8688
19.0674,11.0018
18.9779,11.1568
18.9779,11.1568
18.9226,11.3270
18.9226,11.3270
18.9226,11.3270
18.9056,11.4889
18.9039,11.5050
18.9226,11.6830
18.9779,11.8532
18.9779,11.8532
19.0674,12.0082
19.0674,12.0082
19.0674,12.0082
19.1867,12.1407
19.1872,12.1412
19.3319,12.2464
19.3320,12.2464
19.3320,12.2464
19.4955,12.3192
19.6705,12.3564
19.6705,12.3564
19.6732,12.3567
19.6747,12.3573
19.6770,12.3578
19.6769,12.3582
19.7389,12.3837
19.7492,12.3929
19.8826,12.5263
19.9166,12.5886
19.9195,12.6154
19.9195,13.7455
19.8995,13.8136
19.8458,13.8601
19.7935,13.8715
19.7313,13.8715
19.6708,13.8780
19.6708,13.8780
19.5338,13.9291
19.5338,13.9291
19.4167,14.0167
19.3291,14.1338
19.3291,14.1338
19.2780,14.2708
19.2780,14.2708
19.2715,14.3313
19.2715,15.0286
19.2780,15.0892
19.2780,15.0892
19.3291,15.2262
19.3291,15.2262
19.3391,15.2395
19.3639,15.3060
19.3488,15.3754
19.3391,15.3905
19.3291,15.4038
19.3291,15.4038
19.2780,15.5408
19.2780,15.5408
19.2715,15.6014
19.2715,16.2986
19.2780,16.3592
19.2780,16.3592
19.2986,16.4145
19.3037,16.4853
19.2697,16.5476
19.2074,16.5816
19.1806,16.5845
18.8054,16.5845
18.7373,16.5645
18.7163,16.5476
17.7288,15.5601
17.7188,15.5476
17.7186,15.5478
17.7136,15.5417
17.6623,15.4936
17.6411,15.4724
17.6411,15.4724
17.6355,15.4680
17.6310,15.4642
17.5965,15.4318
17.5965,15.4318
17.5787,15.4220
17.5621,15.4111
17.5461,15.3986
17.5461,15.3986
17.5026,15.3798
17.4973,15.3772
17.4558,15.3544
17.4558,15.3544
17.4361,15.3494
17.4174,15.3430
17.3987,15.3349
17.3519,15.3275
17.3461,15.3263
17.3309,15.3224
17.3003,15.3145
17.3003,15.3145
17.2799,15.3145
17.2602,15.3129
17.2401,15.3098
17.2401,15.3098
17.1930,15.3142
17.1871,15.3145
16.5289,15.3145
16.4608,15.2945
16.4143,15.2408
16.4042,15.1706
16.4108,15.1445
16.4315,15.0891
16.4380,15.0286
16.4380,15.0286
16.4380,14.9340
13.8720,14.9340
13.8720,15.0286
13.8785,15.0891
13.9296,15.2260
13.9296,15.2260
13.9394,15.2391
13.9642,15.3056
13.9491,15.3750
13.9394,15.3901
13.9291,15.4038
13.9291,15.4038
13.8780,15.5408
13.8780,15.5408
13.8715,15.6014
13.8715,16.2986
13.8780,16.3592
13.8780,16.3592
13.8986,16.4145
13.9037,16.4853
13.8697,16.5476
13.8074,16.5816
13.7806,16.5845
12.2241,16.5845
12.2082,16.5827
12.2082,16.5830
12.2003,16.5823
12.1300,16.5845
12.1000,16.5845
12.0930,16.5854
12.0871,16.5858
12.0398,16.5873
12.0398,16.5873
12.0202,16.5930
12.0009,16.5970
11.9807,16.5996
11.9807,16.5996
11.9367,16.6170
11.9311,16.6189
11.8856,16.6321
11.8681,16.6425
11.8503,16.6512
11.8314,16.6587
11.7931,16.6865
11.7881,16.6898
11.7474,16.7139
11.7330,16.7283
11.7180,16.7411
11.7162,16.7424
11.7015,16.7531
11.6713,16.7895
11.6673,16.7939
11.1151,17.3462
11.1026,17.3562
11.1028,17.3564
11.0967,17.3614
11.0486,17.4127
11.0274,17.4339
11.0274,17.4339
11.0230,17.4395
11.0192,17.4440
10.9868,17.4785
10.9868,17.4785
10.9770,17.4963
10.9661,17.5129
10.9537,17.5289
10.9536,17.5289
10.9348,17.5724
10.9322,17.5777
10.9094,17.6192
10.9094,17.6192
10.9044,17.6389
10.8980,17.6576
10.8899,17.6763
10.8899,17.6763
10.8825,17.7231
10.8813,17.7289
10.8695,17.7747
10.8695,17.7951
10.8679,17.8148
10.8648,17.8349
10.8648,17.8349
10.8692,17.8820
10.8695,17.8879
10.8695,23.3815
10.8495,23.4497
10.7958,23.4961
10.7570,23.5068
10.7458,23.5080
10.7458,23.5080
10.6088,23.5591
10.6088,23.5591
10.4917,23.6467
10.4041,23.7638
10.4041,23.7638
10.3530,23.9008
10.3530,23.9008
10.3465,23.9613
10.3465,25.5586
10.3530,25.6192
10.3530,25.6192
10.4041,25.7562
10.4041,25.7562
10.4917,25.8733
10.6088,25.9609
10.6088,25.9609
10.6088,25.9609
10.6420,25.9733
10.6921,25.9919
10.7489,26.0345
10.7737,26.1010
10.7586,26.1704
10.7084,26.2206
10.6921,26.2281
10.6088,26.2591
10.6088,26.2591
10.4917,26.3467
10.4041,26.4638
10.4041,26.4638
10.3530,26.6008
10.3530,26.6008
10.3465,26.6613
10.3465,28.2586
0.5755,28.2586
0.5755,14.4260
13.8720,14.4260
14.9010,14.4260
14.9010,13.8720
15.4090,13.8720
15.4090,14.4260
16.4380,14.4260
16.4380,14.3314
16.4380,14.3314
16.4315,14.2709
16.3804,14.1340
16.3804,14.1340
16.2929,14.0171
16.1760,13.9296
16.0391,13.8785
15.9786,13.8720
15.4090,13.8720
14.9010,13.8720
14.3314,13.8720
14.2709,13.8785
14.1340,13.9296
14.1340,13.9296
14.0171,14.0171
13.9296,14.1340
13.9296,14.1340
13.8785,14.2709
13.8720,14.3314
13.8720,14.4260
0.5755,14.4260
0.5755,0.7015
0.5955,0.6334
0.6492,0.5869
0.7015,0.5755
35.0085,0.5755
Z" /> 
</g>
</g>
</g>
<g style="fill:#000000; fill-opacity:1.0000; 
stroke:#000000; stroke-width:0.0000; stroke-opacity:1; 
stroke-linecap:round; stroke-linejoin:round;">
<circle cx="17.8550" cy="22.3000" r="0.1651" /> 
</g>
<g style="fill:#000000; fill-opacity:1.0000; 
stroke:#000000; stroke-width:0.0212; stroke-opacity:1; 
stroke-linecap:round; stroke-linejoin:round;">
</g>
<g style="fill:#000000; fill-opacity:1.0000; 
stroke:#000000; stroke-width:0.0000; stroke-opacity:1; 
stroke-linecap:round; stroke-linejoin:round;">
<circle cx="13.4100" cy="19.1250" r="0.1651" /> 
</g>
<g style="fill:#000000; fill-opacity:1.0000; 
stroke:#000000; stroke-width:0.0212; stroke-opacity:1; 
stroke-linecap:round; stroke-linejoin:round;">
</g>
<g style="fill:#000000; fill-opacity:1.0000; 
stroke:#000000; stroke-width:0.0000; stroke-opacity:1; 
stroke-linecap:round; stroke-linejoin:round;">
<circle cx="19.7600" cy="11.5050" r="0.1651" /> 
</g>
<g style="fill:#000000; fill-opacity:1.0000; 
stroke:#000000; stroke-width:0.0212; stroke-opacity:1; 
stroke-linecap:round; stroke-linejoin:round;">
</g>
<g style="fill:#000000; fill-opacity:1.0000; 
stroke:#000000; stroke-width:0.0000; stroke-opacity:1; 
stroke-linecap:round; stroke-linejoin:round;">
<circle cx="19.1250" cy="26.7450" r="0.5004" /> 
</g>
<g style="fill:#000000; fill-opacity:1.0000; 
stroke:#000000; stroke-width:0.0212; stroke-opacity:1; 
stroke-linecap:round; stroke-linejoin:round;">
</g>
<g style="fill:#000000; fill-opacity:1.0000; 
stroke:#000000; stroke-width:0.0000; stroke-opacity:1; 
stroke-linecap:round; stroke-linejoin:round;">
<circle cx="16.5850" cy="26.7450" r="0.5004" /> 
</g>
<g style="fill:#000000; fill-opacity:1.0000; 
stroke:#000000; stroke-width:0.0212; stroke-opacity:1; 
stroke-linecap:round; stroke-linejoin:round;">
</g>
<g style="fill:#FFFFFF; fill-opacity:1.0000; 
stroke:#FFFFFF; stroke-width:0.0212; stroke-opacity:1; 
stroke-linecap:round; stroke-linejoin:round;">
<g >
</g>
<g >
</g>
<g >
</g>
<g >
</g>
<g >
</g>
<g >
</g>
<g >
</g>
<g >
</g>
<g >
</g>
<g >
</g>
</g>
<g style="fill:#FFFFFF; fill-opacity:1.0000; 
stroke:#FFFFFF; stroke-width:0.0212; stroke-opacity:1; 
stroke-linecap:round; stroke-linejoin:round;">
</g>
<g style="fill:#2F2D31; fill-opacity:1.0000; 
stroke:#2F2D31; stroke-width:0.0212; stroke-opacity:1; 
stroke-linecap:round; stroke-linejoin:round;">
</g>
<g style="fill:#2F2D31; fill-opacity:1.0000; 
stroke:#2F2D31; stroke-width:0.1500; stroke-opacity:1; 
stroke-linecap:round; stroke-linejoin:round;">
</g>
<g style="fill:#2F2D31; fill-opacity:0.0; 
stroke:#2F2D31; stroke-width:0.1500; stroke-opacity:1; 
stroke-linecap:round; stroke-linejoin:round;">
<path d="M35.6350 35.6350
L0.0750 35.6350
" />
<path d="M35.6350 0.0750
L35.6350 35.6350
" />
<path d="M0.0750 0.0750
L35.6350 0.0750
" />
<path d="M0.0750 35.6350
L0.0750 0.0750
" />
<g >
</g>
<g >
</g>
<g >
</g>
<g >
</g>
<g >
</g>
<g >
</g>
<g >
</g>
<g >
</g>
<g >
</g>
<g >
</g>
</g> 
</svg>
