<?xml version="1.0" standalone="no"?>
 <!DOCTYPE svg PUBLIC "-//W3C//DTD SVG 1.1//EN" 
 "http://www.w3.org/Graphics/SVG/1.1/DTD/svg11.dtd"> 
<svg
  xmlns:svg="http://www.w3.org/2000/svg"
  xmlns="http://www.w3.org/2000/svg"
  xmlns:xlink="http://www.w3.org/1999/xlink"
  version="1.1"
  width="83.3374mm" height="64.5414mm" viewBox="0.0000 0.0000 83.3374 64.5414">
<title>SVG Image created as working-brd.svg date 2023/09/25 16:56:31 </title>
  <desc>Image generated by PCBNEW </desc>
<g style="fill:#000000; fill-opacity:1.0000;stroke:#000000; stroke-opacity:1.0000;
stroke-linecap:round; stroke-linejoin:round;"
 transform="translate(0 0) scale(1 1)">
</g>
<g style="fill:#000000; fill-opacity:0.0; 
stroke:#000000; stroke-width:0.0000; stroke-opacity:1; 
stroke-linecap:round; stroke-linejoin:round;">
</g>
<g style="fill:#000000; fill-opacity:1.0000; 
stroke:#000000; stroke-width:0.0212; stroke-opacity:1; 
stroke-linecap:round; stroke-linejoin:round;">
<rect x="-5.000000" y="-5.000000" width="93.348570" height="74.546472" rx="0.000000" />
</g>
<g style="fill:#FFFFFF; fill-opacity:1.0000; 
stroke:#FFFFFF; stroke-width:0.0212; stroke-opacity:1; 
stroke-linecap:round; stroke-linejoin:round;">
<g >
</g>
<g >
</g>
<g >
</g>
<g >
</g>
<g >
</g>
<g >
</g>
<g >
</g>
<g style="fill:#B2803A; fill-opacity:1.0000; 
stroke:#B2803A; stroke-width:0.0212; stroke-opacity:1; 
stroke-linecap:round; stroke-linejoin:round;">
<g >
</g>
<g style="fill:#B2803A; fill-opacity:1.0000; 
stroke:#B2803A; stroke-width:0.0000; stroke-opacity:1; 
stroke-linecap:round; stroke-linejoin:round;">
<path style="fill:#B2803A; fill-opacity:1.0000; 
stroke:#B2803A; stroke-width:0.0000; stroke-opacity:1; 
stroke-linecap:round; stroke-linejoin:round;fill-rule:evenodd;"
d="M 58.8642,5.0406
59.0462,5.0501
59.2326,5.0599
59.2722,5.0640
59.6267,5.1202
59.6657,5.1285
59.8588,5.1802
60.0124,5.2214
60.0503,5.2337
60.2540,5.3119
60.3853,5.3623
60.4217,5.3785
60.7415,5.5414
60.7760,5.5614
61.0770,5.7568
61.1092,5.7802
61.3882,6.0061
61.4178,6.0328
61.6716,6.2865
61.6982,6.3162
61.9241,6.5951
61.9475,6.6273
62.1430,6.9283
62.1629,6.9628
62.3258,7.2826
62.3420,7.3190
62.4707,7.6541
62.4830,7.6920
62.5759,8.0386
62.5841,8.0776
62.6403,8.4321
62.6445,8.4717
62.6643,8.8500
62.6643,12.6601
66.4743,12.6601
66.5108,12.6620
66.8526,12.6799
66.8922,12.6840
67.2467,12.7402
67.2857,12.7485
67.4788,12.8002
67.6324,12.8414
67.6703,12.8537
68.0054,12.9823
68.0417,12.9985
68.0617,13.0087
68.2088,13.1067
68.3292,13.2359
68.4167,13.3895
68.4663,13.5590
68.4755,13.7355
68.4438,13.9093
68.3729,14.0711
68.2665,14.2122
68.1305,14.3250
67.9721,14.4033
67.7999,14.4430
67.7604,14.4464
67.5304,14.4598
67.5303,14.4598
67.1861,14.5205
66.8513,14.6207
66.8513,14.6207
66.5304,14.7592
66.5304,14.7592
66.2277,14.9339
65.9473,15.1426
65.6931,15.3825
65.6931,15.3825
65.4684,15.6502
65.2764,15.9423
65.1195,16.2546
65.1195,16.2546
65.0000,16.5830
65.0000,16.5830
64.9194,16.9231
64.9194,16.9231
64.8788,17.2703
64.8788,17.2703
64.8788,17.6198
64.8788,17.6198
64.9194,17.9670
64.9194,17.9670
65.0000,18.3071
65.0000,18.3071
65.1195,18.6355
65.1195,18.6355
65.1195,18.6355
65.2764,18.9478
65.4684,19.2399
65.6931,19.5076
65.9473,19.7475
66.2277,19.9562
66.5304,20.1309
66.5304,20.1309
66.8513,20.2694
66.8513,20.2694
66.8513,20.2694
67.1861,20.3696
67.5304,20.4303
67.5304,20.4303
67.5304,20.4303
67.7072,20.4406
67.7920,20.4456
67.7920,20.4456
67.9666,20.4456
67.9666,20.4456
68.0678,20.4397
68.2282,20.4303
68.2282,20.4303
68.2282,20.4303
68.5724,20.3696
68.9073,20.2694
68.9073,20.2694
68.9073,20.2694
69.2219,20.1337
69.3911,20.0830
69.5675,20.0727
69.7415,20.1034
69.9038,20.1734
70.0455,20.2789
70.1591,20.4143
70.2384,20.5722
70.2791,20.7441
70.2843,20.8324
70.2843,48.2101
70.2838,48.2300
70.2645,48.5984
70.2603,48.6380
70.2041,48.9925
70.1959,49.0315
70.1030,49.3781
70.0907,49.4160
69.9620,49.7511
69.9458,49.7875
69.7829,50.1073
69.7630,50.1418
69.5675,50.4428
69.5441,50.4750
69.3182,50.7539
69.2916,50.7835
69.0378,51.0373
69.0082,51.0640
68.7292,51.2898
68.6970,51.3133
68.3960,51.5087
68.3615,51.5287
68.2180,51.6018
68.0417,51.6916
68.0053,51.7078
67.6703,51.8364
67.6324,51.8487
67.2857,51.9416
67.2467,51.9499
66.8922,52.0061
66.8526,52.0102
66.4743,52.0300
62.6643,52.0300
62.6643,55.8400
62.6643,55.8400
62.6445,56.2184
62.6403,56.2580
62.5841,56.6125
62.5759,56.6515
62.4830,56.9981
62.4707,57.0360
62.3512,57.3471
62.2692,57.5036
62.1533,57.6370
62.0097,57.7400
61.8463,57.8071
61.6718,57.8348
61.4956,57.8214
61.3272,57.7678
61.1758,57.6768
61.0494,57.5533
60.9549,57.4040
60.8973,57.2370
60.8817,57.0924
60.8811,57.0924
60.8803,57.0792
60.8798,57.0744
60.8798,57.0703
60.8798,57.0703
60.8392,56.7231
60.7586,56.3830
60.7586,56.3830
60.6391,56.0546
60.6391,56.0546
60.4822,55.7423
60.2901,55.4502
60.0655,55.1825
59.8112,54.9426
59.5309,54.7339
59.5309,54.7339
59.5309,54.7339
59.3155,54.6095
59.2282,54.5592
59.2282,54.5592
59.2282,54.5592
59.2282,54.5592
58.9073,54.4207
58.9073,54.4207
58.9073,54.4207
58.7642,54.3779
58.5724,54.3205
58.2282,54.2598
58.2282,54.2598
58.2282,54.2598
58.2282,54.2598
58.2282,54.2598
57.9900,54.2459
57.9666,54.2445
57.7920,54.2445
57.7696,54.2459
57.5304,54.2598
57.5303,54.2598
57.1861,54.3205
56.8513,54.4207
56.8513,54.4207
56.5304,54.5592
56.5304,54.5592
56.2277,54.7339
55.9473,54.9426
55.6931,55.1825
55.6931,55.1825
55.4684,55.4502
55.2764,55.7423
55.1195,56.0546
55.1195,56.0546
55.0000,56.3830
55.0000,56.3830
54.9194,56.7231
54.9194,56.7231
54.8788,57.0703
54.8788,57.0703
54.8788,57.4198
54.8788,57.4198
54.9194,57.7669
54.9194,57.7670
55.0000,58.1071
55.0000,58.1071
55.1195,58.4355
55.1195,58.4355
55.1758,58.5475
55.2362,58.7136
55.2567,58.8890
55.2362,59.0645
55.1758,59.2306
55.0787,59.3782
54.9501,59.4995
54.7971,59.5878
54.6279,59.6385
54.4957,59.6501
27.1142,59.6501
27.0943,59.6495
26.7260,59.6302
26.6863,59.6261
26.3319,59.5699
26.2929,59.5616
25.9462,59.4687
25.9083,59.4564
25.5732,59.3278
25.5368,59.3116
25.2171,59.1487
25.1826,59.1287
24.8816,58.9333
24.8493,58.9098
24.7099,58.7969
24.5704,58.6840
24.5408,58.6573
24.2870,58.4035
24.2603,58.3739
24.0345,58.0950
24.0111,58.0628
23.8156,57.7618
23.7957,57.7273
23.6327,57.4075
23.6165,57.3711
23.5095,57.0924
23.4879,57.0360
23.4756,56.9981
23.3827,56.6515
23.3744,56.6125
23.3183,56.2580
23.3141,56.2184
23.2943,55.8400
23.2943,55.8400
23.2943,52.0300
19.4843,52.0300
19.1060,52.0102
19.0663,52.0061
18.7119,51.9499
18.6729,51.9416
18.3262,51.8487
18.2883,51.8364
17.9532,51.7078
17.9168,51.6916
17.8983,51.6821
17.8969,51.6814
17.7498,51.5834
17.6293,51.4542
17.5419,51.3006
17.4922,51.1311
17.4830,50.9546
17.5147,50.7808
17.5857,50.6190
17.6921,50.4779
17.8281,50.3651
17.9865,50.2868
18.1586,50.2470
18.1982,50.2437
18.4282,50.2303
18.7724,50.1696
19.1073,50.0694
19.1073,50.0694
19.1073,50.0694
19.2233,50.0193
19.4282,49.9309
19.7309,49.7562
20.0112,49.5475
20.2655,49.3076
20.4901,49.0399
20.6822,48.7478
20.8391,48.4355
20.9586,48.1071
21.0392,47.7670
21.0798,47.4198
21.0798,47.0703
21.0392,46.7231
20.9586,46.3830
20.9586,46.3830
20.8391,46.0546
20.8391,46.0546
20.6822,45.7423
20.4901,45.4502
20.2655,45.1825
20.0112,44.9426
19.7309,44.7339
19.7309,44.7339
19.7309,44.7339
19.5112,44.6071
19.4282,44.5592
19.4282,44.5592
19.4282,44.5592
19.4282,44.5592
19.1073,44.4207
19.1073,44.4207
19.1073,44.4207
18.9642,44.3779
18.7724,44.3205
18.4282,44.2598
18.4282,44.2598
18.4282,44.2598
18.4282,44.2598
18.4282,44.2598
18.1900,44.2459
18.1666,44.2445
17.9920,44.2445
17.9696,44.2459
17.7304,44.2598
17.7303,44.2598
17.3861,44.3205
17.0513,44.4207
17.0513,44.4207
16.7367,44.5564
16.5674,44.6071
16.3910,44.6174
16.2170,44.5867
16.0548,44.5167
15.9131,44.4112
15.7995,44.2758
15.7202,44.1179
15.6794,43.9460
15.6743,43.8577
15.6743,32.3451
18.2689,32.3451
18.2883,32.5546
18.2883,32.5546
18.2883,32.5546
18.2883,32.5546
18.2903,32.5614
18.2947,32.5884
18.2948,32.5892
18.2948,32.5892
18.3186,32.7358
18.3174,32.8240
18.3062,32.9798
18.3062,32.9798
18.3368,33.1204
18.4058,33.2468
18.5076,33.3485
18.5076,33.3485
18.5076,33.3485
18.6339,33.4175
18.7745,33.4481
18.9181,33.4378
18.9181,33.4378
18.9342,33.4367
19.1107,33.4446
19.1283,33.4477
19.3041,33.4806
19.3041,33.4806
19.5145,33.4806
19.5145,33.4806
19.6903,33.4477
19.8666,33.4356
19.8844,33.4367
19.9005,33.4378
19.9005,33.4378
20.0440,33.4481
20.1847,33.4175
20.3110,33.3485
20.4128,33.2468
20.4817,33.1204
20.5123,32.9798
20.5021,32.8362
20.5021,32.8362
20.5012,32.8240
20.5091,32.6474
20.5283,32.5614
20.5302,32.5546
20.5496,32.3451
20.5302,32.1355
20.5283,32.1287
20.5239,32.1017
20.5238,32.1009
20.5238,32.1009
20.5000,31.9543
20.5012,31.8661
20.5021,31.8538
20.5123,31.7103
20.4817,31.5697
20.4128,31.4433
20.4128,31.4433
20.4128,31.4433
20.3110,31.3416
20.1847,31.2726
20.0912,31.2523
20.0440,31.2420
20.0440,31.2420
19.8844,31.2534
19.7079,31.2455
19.6903,31.2424
19.6389,31.2328
19.5145,31.2096
19.3041,31.2096
19.2581,31.2181
19.1283,31.2424
18.9520,31.2545
18.9342,31.2534
18.7745,31.2420
18.6339,31.2726
18.5076,31.3416
18.4058,31.4433
18.3368,31.5697
18.3062,31.7103
18.3062,31.7103
18.3174,31.8661
18.3094,32.0427
18.2903,32.1287
18.2883,32.1355
18.2883,32.1355
18.2883,32.1355
18.2883,32.1355
18.2689,32.3451
15.6743,32.3451
15.6743,16.4800
15.6748,16.4601
15.6856,16.2546
15.6941,16.0917
15.6983,16.0521
15.7157,15.9423
15.7544,15.6976
15.7627,15.6586
15.8367,15.3825
15.8556,15.3120
15.8679,15.2741
15.9965,14.9390
16.0127,14.9026
16.1757,14.5828
16.1956,14.5483
16.3911,14.2473
16.4145,14.2151
16.6404,13.9362
16.6670,13.9066
16.9208,13.6528
16.9504,13.6261
17.2293,13.4002
17.2615,13.3768
17.5626,13.1813
17.5970,13.1614
17.9169,12.9985
17.9532,12.9823
18.2883,12.8537
18.3262,12.8414
18.6729,12.7485
18.7118,12.7402
19.0663,12.6840
19.1059,12.6799
19.4510,12.6618
19.4843,12.6601
23.2943,12.6601
23.2943,8.8500
23.3141,8.4717
23.3183,8.4321
23.3744,8.0776
23.3827,8.0386
23.4019,7.9670
23.4756,7.6920
23.4879,7.6541
23.6073,7.3430
23.6894,7.1865
23.8053,7.0531
23.9488,6.9501
24.1123,6.8830
24.2868,6.8553
24.4630,6.8687
24.6314,6.9223
24.7828,7.0133
24.9092,7.1368
25.0037,7.2861
25.0612,7.4531
25.0768,7.5977
25.0775,7.5977
25.0783,7.6109
25.0788,7.6157
25.0788,7.6198
25.0788,7.6198
25.1194,7.9669
25.1194,7.9670
25.2000,8.3071
25.2000,8.3071
25.3195,8.6355
25.3195,8.6355
25.3195,8.6355
25.4764,8.9478
25.6684,9.2399
25.8931,9.5076
26.1473,9.7475
26.4277,9.9562
26.7304,10.1309
26.7304,10.1309
27.0513,10.2694
27.0513,10.2694
27.0513,10.2694
27.3861,10.3696
27.7304,10.4303
27.7304,10.4303
27.7304,10.4303
27.9072,10.4406
27.9920,10.4455
27.9920,10.4455
28.1666,10.4455
28.1666,10.4455
28.2678,10.4397
28.4282,10.4303
28.4282,10.4303
28.4282,10.4303
28.7724,10.3696
29.1073,10.2694
29.1073,10.2694
29.1073,10.2694
29.2233,10.2193
29.4282,10.1309
29.7309,9.9562
30.0112,9.7475
30.2655,9.5076
30.4901,9.2399
30.6822,8.9478
30.8391,8.6355
30.9586,8.3071
31.0392,7.9670
31.0798,7.6198
31.0798,7.2703
31.0424,6.9501
31.0392,6.9231
31.0392,6.9231
31.0392,6.9231
31.0110,6.8039
30.9586,6.5830
30.9586,6.5830
30.8391,6.2546
30.8391,6.2546
30.7828,6.1426
30.7224,5.9765
30.7019,5.8011
30.7224,5.6256
30.7828,5.4595
30.8799,5.3119
31.0084,5.1906
31.1614,5.1023
31.3307,5.0516
31.4629,5.0400
58.8443,5.0400
Z" /> 
</g>
</g>
</g>
<g style="fill:#000000; fill-opacity:1.0000; 
stroke:#000000; stroke-width:0.0000; stroke-opacity:1; 
stroke-linecap:round; stroke-linejoin:round;">
<circle cx="28.0793" cy="7.4450" r="1.5000" /> 
</g>
<g style="fill:#000000; fill-opacity:1.0000; 
stroke:#000000; stroke-width:0.0212; stroke-opacity:1; 
stroke-linecap:round; stroke-linejoin:round;">
</g>
<g style="fill:#000000; fill-opacity:1.0000; 
stroke:#000000; stroke-width:0.0000; stroke-opacity:1; 
stroke-linecap:round; stroke-linejoin:round;">
<circle cx="18.0793" cy="47.2450" r="1.5000" /> 
</g>
<g style="fill:#000000; fill-opacity:1.0000; 
stroke:#000000; stroke-width:0.0212; stroke-opacity:1; 
stroke-linecap:round; stroke-linejoin:round;">
</g>
<g style="fill:#000000; fill-opacity:1.0000; 
stroke:#000000; stroke-width:0.0000; stroke-opacity:1; 
stroke-linecap:round; stroke-linejoin:round;">
<circle cx="57.8793" cy="57.2450" r="1.5000" /> 
</g>
<g style="fill:#000000; fill-opacity:1.0000; 
stroke:#000000; stroke-width:0.0212; stroke-opacity:1; 
stroke-linecap:round; stroke-linejoin:round;">
</g>
<g style="fill:#000000; fill-opacity:1.0000; 
stroke:#000000; stroke-width:0.0000; stroke-opacity:1; 
stroke-linecap:round; stroke-linejoin:round;">
<circle cx="67.8793" cy="17.4450" r="1.5000" /> 
</g>
<g style="fill:#000000; fill-opacity:1.0000; 
stroke:#000000; stroke-width:0.0212; stroke-opacity:1; 
stroke-linecap:round; stroke-linejoin:round;">
</g>
<g style="fill:#FFFFFF; fill-opacity:1.0000; 
stroke:#FFFFFF; stroke-width:0.0212; stroke-opacity:1; 
stroke-linecap:round; stroke-linejoin:round;">
<g >
</g>
<g >
</g>
<g >
</g>
<g >
</g>
<g >
</g>
<g >
</g>
<g >
</g>
</g>
<g style="fill:#000000; fill-opacity:1.0000; 
stroke:#000000; stroke-width:0.0212; stroke-opacity:1; 
stroke-linecap:round; stroke-linejoin:round;">
</g>
<g style="fill:#000000; fill-opacity:1.0000; 
stroke:#000000; stroke-width:0.0000; stroke-opacity:1; 
stroke-linecap:round; stroke-linejoin:round;">
<circle cx="28.0793" cy="7.4450" r="1.5000" /> 
</g>
<g style="fill:#000000; fill-opacity:1.0000; 
stroke:#000000; stroke-width:0.0212; stroke-opacity:1; 
stroke-linecap:round; stroke-linejoin:round;">
</g>
<g style="fill:#000000; fill-opacity:1.0000; 
stroke:#000000; stroke-width:0.0000; stroke-opacity:1; 
stroke-linecap:round; stroke-linejoin:round;">
<circle cx="18.0793" cy="47.2450" r="1.5000" /> 
</g>
<g style="fill:#000000; fill-opacity:1.0000; 
stroke:#000000; stroke-width:0.0212; stroke-opacity:1; 
stroke-linecap:round; stroke-linejoin:round;">
</g>
<g style="fill:#000000; fill-opacity:1.0000; 
stroke:#000000; stroke-width:0.0000; stroke-opacity:1; 
stroke-linecap:round; stroke-linejoin:round;">
<circle cx="57.8793" cy="57.2450" r="1.5000" /> 
</g>
<g style="fill:#000000; fill-opacity:1.0000; 
stroke:#000000; stroke-width:0.0212; stroke-opacity:1; 
stroke-linecap:round; stroke-linejoin:round;">
</g>
<g style="fill:#000000; fill-opacity:1.0000; 
stroke:#000000; stroke-width:0.0000; stroke-opacity:1; 
stroke-linecap:round; stroke-linejoin:round;">
<circle cx="67.8793" cy="17.4450" r="1.5000" /> 
</g>
<g style="fill:#000000; fill-opacity:1.0000; 
stroke:#000000; stroke-width:0.0212; stroke-opacity:1; 
stroke-linecap:round; stroke-linejoin:round;">
</g>
<g style="fill:#FFFFFF; fill-opacity:1.0000; 
stroke:#FFFFFF; stroke-width:0.0212; stroke-opacity:1; 
stroke-linecap:round; stroke-linejoin:round;">
</g>
<g style="fill:#3D3D3D; fill-opacity:1.0000; 
stroke:#3D3D3D; stroke-width:0.0212; stroke-opacity:1; 
stroke-linecap:round; stroke-linejoin:round;">
</g>
<g style="fill:#3D3D3D; fill-opacity:0.0; 
stroke:#3D3D3D; stroke-width:0.0100; stroke-opacity:1; 
stroke-linecap:round; stroke-linejoin:round;">
<circle cx="19.4093" cy="8.7751" r="2.6500" /> 
<circle cx="19.4093" cy="55.9151" r="2.6500" /> 
<circle cx="66.5493" cy="55.9151" r="2.6500" /> 
<circle cx="28.0793" cy="7.4450" r="1.5000" /> 
<circle cx="42.9793" cy="32.3451" r="6.0700" /> 
<path d="M42.9793 4.1450
L42.9793 61.6450
" />
<circle cx="66.5493" cy="8.7751" r="2.6500" /> 
<path d="M71.1793 32.3451
L14.7793 32.3451
" />
<g transform="rotate(-90.000000 76.2693 32.3451)">
<text x="76.2693" y="33.0951"
textLength="14.1586" font-size="2.0000" lengthAdjust="spacingAndGlyphs"
text-anchor="middle" opacity="0">56.4000 mm</text>
</g>
<g class="stroked-text"><desc>56.4000 mm</desc>
<path d="M75.4627 38.4879
L75.4627 39.2022
" />
<path d="M75.4627 39.2022
L76.1770 39.2736
" />
<path d="M76.1770 39.2736
L76.1055 39.2022
" />
<path d="M76.1055 39.2022
L76.0341 39.0593
" />
<path d="M76.0341 39.0593
L76.0341 38.7022
" />
<path d="M76.0341 38.7022
L76.1055 38.5593
" />
<path d="M76.1055 38.5593
L76.1770 38.4879
" />
<path d="M76.1770 38.4879
L76.3198 38.4165
" />
<path d="M76.3198 38.4165
L76.6770 38.4165
" />
<path d="M76.6770 38.4165
L76.8198 38.4879
" />
<path d="M76.8198 38.4879
L76.8913 38.5593
" />
<path d="M76.8913 38.5593
L76.9627 38.7022
" />
<path d="M76.9627 38.7022
L76.9627 39.0593
" />
<path d="M76.9627 39.0593
L76.8913 39.2022
" />
<path d="M76.8913 39.2022
L76.8198 39.2736
" />
<path d="M75.4627 37.1308
L75.4627 37.4165
" />
<path d="M75.4627 37.4165
L75.5341 37.5593
" />
<path d="M75.5341 37.5593
L75.6055 37.6308
" />
<path d="M75.6055 37.6308
L75.8198 37.7736
" />
<path d="M75.8198 37.7736
L76.1055 37.8450
" />
<path d="M76.1055 37.8450
L76.6770 37.8450
" />
<path d="M76.6770 37.8450
L76.8198 37.7736
" />
<path d="M76.8198 37.7736
L76.8913 37.7022
" />
<path d="M76.8913 37.7022
L76.9627 37.5593
" />
<path d="M76.9627 37.5593
L76.9627 37.2736
" />
<path d="M76.9627 37.2736
L76.8913 37.1308
" />
<path d="M76.8913 37.1308
L76.8198 37.0593
" />
<path d="M76.8198 37.0593
L76.6770 36.9879
" />
<path d="M76.6770 36.9879
L76.3198 36.9879
" />
<path d="M76.3198 36.9879
L76.1770 37.0593
" />
<path d="M76.1770 37.0593
L76.1055 37.1308
" />
<path d="M76.1055 37.1308
L76.0341 37.2736
" />
<path d="M76.0341 37.2736
L76.0341 37.5593
" />
<path d="M76.0341 37.5593
L76.1055 37.7022
" />
<path d="M76.1055 37.7022
L76.1770 37.7736
" />
<path d="M76.1770 37.7736
L76.3198 37.8450
" />
<path d="M76.8198 36.3450
L76.8913 36.2736
" />
<path d="M76.8913 36.2736
L76.9627 36.3450
" />
<path d="M76.9627 36.3450
L76.8913 36.4165
" />
<path d="M76.8913 36.4165
L76.8198 36.3450
" />
<path d="M76.8198 36.3450
L76.9627 36.3450
" />
<path d="M75.9627 34.9879
L76.9627 34.9879
" />
<path d="M75.3913 35.3450
L76.4627 35.7022
" />
<path d="M76.4627 35.7022
L76.4627 34.7736
" />
<path d="M75.4627 33.9165
L75.4627 33.7736
" />
<path d="M75.4627 33.7736
L75.5341 33.6308
" />
<path d="M75.5341 33.6308
L75.6055 33.5593
" />
<path d="M75.6055 33.5593
L75.7484 33.4879
" />
<path d="M75.7484 33.4879
L76.0341 33.4165
" />
<path d="M76.0341 33.4165
L76.3913 33.4165
" />
<path d="M76.3913 33.4165
L76.6770 33.4879
" />
<path d="M76.6770 33.4879
L76.8198 33.5593
" />
<path d="M76.8198 33.5593
L76.8913 33.6308
" />
<path d="M76.8913 33.6308
L76.9627 33.7736
" />
<path d="M76.9627 33.7736
L76.9627 33.9165
" />
<path d="M76.9627 33.9165
L76.8913 34.0593
" />
<path d="M76.8913 34.0593
L76.8198 34.1308
" />
<path d="M76.8198 34.1308
L76.6770 34.2022
" />
<path d="M76.6770 34.2022
L76.3913 34.2736
" />
<path d="M76.3913 34.2736
L76.0341 34.2736
" />
<path d="M76.0341 34.2736
L75.7484 34.2022
" />
<path d="M75.7484 34.2022
L75.6055 34.1308
" />
<path d="M75.6055 34.1308
L75.5341 34.0593
" />
<path d="M75.5341 34.0593
L75.4627 33.9165
" />
<path d="M75.4627 32.4879
L75.4627 32.3450
" />
<path d="M75.4627 32.3450
L75.5341 32.2022
" />
<path d="M75.5341 32.2022
L75.6055 32.1308
" />
<path d="M75.6055 32.1308
L75.7484 32.0593
" />
<path d="M75.7484 32.0593
L76.0341 31.9879
" />
<path d="M76.0341 31.9879
L76.3913 31.9879
" />
<path d="M76.3913 31.9879
L76.6770 32.0593
" />
<path d="M76.6770 32.0593
L76.8198 32.1308
" />
<path d="M76.8198 32.1308
L76.8913 32.2022
" />
<path d="M76.8913 32.2022
L76.9627 32.3450
" />
<path d="M76.9627 32.3450
L76.9627 32.4879
" />
<path d="M76.9627 32.4879
L76.8913 32.6308
" />
<path d="M76.8913 32.6308
L76.8198 32.7022
" />
<path d="M76.8198 32.7022
L76.6770 32.7736
" />
<path d="M76.6770 32.7736
L76.3913 32.8450
" />
<path d="M76.3913 32.8450
L76.0341 32.8450
" />
<path d="M76.0341 32.8450
L75.7484 32.7736
" />
<path d="M75.7484 32.7736
L75.6055 32.7022
" />
<path d="M75.6055 32.7022
L75.5341 32.6308
" />
<path d="M75.5341 32.6308
L75.4627 32.4879
" />
<path d="M75.4627 31.0593
L75.4627 30.9165
" />
<path d="M75.4627 30.9165
L75.5341 30.7736
" />
<path d="M75.5341 30.7736
L75.6055 30.7022
" />
<path d="M75.6055 30.7022
L75.7484 30.6308
" />
<path d="M75.7484 30.6308
L76.0341 30.5593
" />
<path d="M76.0341 30.5593
L76.3913 30.5593
" />
<path d="M76.3913 30.5593
L76.6770 30.6308
" />
<path d="M76.6770 30.6308
L76.8198 30.7022
" />
<path d="M76.8198 30.7022
L76.8913 30.7736
" />
<path d="M76.8913 30.7736
L76.9627 30.9165
" />
<path d="M76.9627 30.9165
L76.9627 31.0593
" />
<path d="M76.9627 31.0593
L76.8913 31.2022
" />
<path d="M76.8913 31.2022
L76.8198 31.2736
" />
<path d="M76.8198 31.2736
L76.6770 31.3450
" />
<path d="M76.6770 31.3450
L76.3913 31.4165
" />
<path d="M76.3913 31.4165
L76.0341 31.4165
" />
<path d="M76.0341 31.4165
L75.7484 31.3450
" />
<path d="M75.7484 31.3450
L75.6055 31.2736
" />
<path d="M75.6055 31.2736
L75.5341 31.2022
" />
<path d="M75.5341 31.2022
L75.4627 31.0593
" />
<path d="M76.9627 28.7736
L75.9627 28.7736
" />
<path d="M76.1055 28.7736
L76.0341 28.7022
" />
<path d="M76.0341 28.7022
L75.9627 28.5593
" />
<path d="M75.9627 28.5593
L75.9627 28.3450
" />
<path d="M75.9627 28.3450
L76.0341 28.2022
" />
<path d="M76.0341 28.2022
L76.1770 28.1308
" />
<path d="M76.1770 28.1308
L76.9627 28.1308
" />
<path d="M76.1770 28.1308
L76.0341 28.0593
" />
<path d="M76.0341 28.0593
L75.9627 27.9165
" />
<path d="M75.9627 27.9165
L75.9627 27.7022
" />
<path d="M75.9627 27.7022
L76.0341 27.5593
" />
<path d="M76.0341 27.5593
L76.1770 27.4879
" />
<path d="M76.1770 27.4879
L76.9627 27.4879
" />
<path d="M76.9627 26.7736
L75.9627 26.7736
" />
<path d="M76.1055 26.7736
L76.0341 26.7022
" />
<path d="M76.0341 26.7022
L75.9627 26.5593
" />
<path d="M75.9627 26.5593
L75.9627 26.3451
" />
<path d="M75.9627 26.3451
L76.0341 26.2022
" />
<path d="M76.0341 26.2022
L76.1770 26.1308
" />
<path d="M76.1770 26.1308
L76.9627 26.1308
" />
<path d="M76.1770 26.1308
L76.0341 26.0593
" />
<path d="M76.0341 26.0593
L75.9627 25.9165
" />
<path d="M75.9627 25.9165
L75.9627 25.7022
" />
<path d="M75.9627 25.7022
L76.0341 25.5593
" />
<path d="M76.0341 25.5593
L76.1770 25.4879
" />
<path d="M76.1770 25.4879
L76.9627 25.4879
" />
</g><path d="M14.7793 60.5450
L78.3657 60.5450
" />
<path d="M14.7793 4.1450
L78.3657 4.1450
" />
<path d="M77.7793 60.5450
L77.7793 4.1450
" />
<path d="M77.7793 60.5450
L77.7793 4.1450
" />
<path d="M77.7793 60.5450
L77.1929 59.4185
" />
<path d="M77.7793 60.5450
L78.3657 59.4185
" />
<path d="M77.7793 4.1450
L78.3657 5.2716
" />
<path d="M77.7793 4.1450
L77.1929 5.2716
" />
<g transform="rotate(-90.000000 7.0793 32.3451)">
<text x="7.0793" y="33.0951"
textLength="14.1586" font-size="2.0000" lengthAdjust="spacingAndGlyphs"
text-anchor="middle" opacity="0">47.1400 mm</text>
</g>
<g class="stroked-text"><desc>47.1400 mm</desc>
<path d="M6.7727 38.5593
L7.7727 38.5593
" />
<path d="M6.2013 38.9165
L7.2727 39.2736
" />
<path d="M7.2727 39.2736
L7.2727 38.3450
" />
<path d="M6.2727 37.9165
L6.2727 36.9165
" />
<path d="M6.2727 36.9165
L7.7727 37.5593
" />
<path d="M7.6298 36.3450
L7.7013 36.2736
" />
<path d="M7.7013 36.2736
L7.7727 36.3450
" />
<path d="M7.7727 36.3450
L7.7013 36.4165
" />
<path d="M7.7013 36.4165
L7.6298 36.3450
" />
<path d="M7.6298 36.3450
L7.7727 36.3450
" />
<path d="M7.7727 34.8450
L7.7727 35.7022
" />
<path d="M7.7727 35.2736
L6.2727 35.2736
" />
<path d="M6.2727 35.2736
L6.4870 35.4165
" />
<path d="M6.4870 35.4165
L6.6298 35.5593
" />
<path d="M6.6298 35.5593
L6.7013 35.7022
" />
<path d="M6.7727 33.5593
L7.7727 33.5593
" />
<path d="M6.2013 33.9165
L7.2727 34.2736
" />
<path d="M7.2727 34.2736
L7.2727 33.3450
" />
<path d="M6.2727 32.4879
L6.2727 32.3450
" />
<path d="M6.2727 32.3450
L6.3441 32.2022
" />
<path d="M6.3441 32.2022
L6.4155 32.1308
" />
<path d="M6.4155 32.1308
L6.5584 32.0593
" />
<path d="M6.5584 32.0593
L6.8441 31.9879
" />
<path d="M6.8441 31.9879
L7.2013 31.9879
" />
<path d="M7.2013 31.9879
L7.4870 32.0593
" />
<path d="M7.4870 32.0593
L7.6298 32.1308
" />
<path d="M7.6298 32.1308
L7.7013 32.2022
" />
<path d="M7.7013 32.2022
L7.7727 32.3450
" />
<path d="M7.7727 32.3450
L7.7727 32.4879
" />
<path d="M7.7727 32.4879
L7.7013 32.6308
" />
<path d="M7.7013 32.6308
L7.6298 32.7022
" />
<path d="M7.6298 32.7022
L7.4870 32.7736
" />
<path d="M7.4870 32.7736
L7.2013 32.8450
" />
<path d="M7.2013 32.8450
L6.8441 32.8450
" />
<path d="M6.8441 32.8450
L6.5584 32.7736
" />
<path d="M6.5584 32.7736
L6.4155 32.7022
" />
<path d="M6.4155 32.7022
L6.3441 32.6308
" />
<path d="M6.3441 32.6308
L6.2727 32.4879
" />
<path d="M6.2727 31.0593
L6.2727 30.9165
" />
<path d="M6.2727 30.9165
L6.3441 30.7736
" />
<path d="M6.3441 30.7736
L6.4155 30.7022
" />
<path d="M6.4155 30.7022
L6.5584 30.6308
" />
<path d="M6.5584 30.6308
L6.8441 30.5593
" />
<path d="M6.8441 30.5593
L7.2013 30.5593
" />
<path d="M7.2013 30.5593
L7.4870 30.6308
" />
<path d="M7.4870 30.6308
L7.6298 30.7022
" />
<path d="M7.6298 30.7022
L7.7013 30.7736
" />
<path d="M7.7013 30.7736
L7.7727 30.9165
" />
<path d="M7.7727 30.9165
L7.7727 31.0593
" />
<path d="M7.7727 31.0593
L7.7013 31.2022
" />
<path d="M7.7013 31.2022
L7.6298 31.2736
" />
<path d="M7.6298 31.2736
L7.4870 31.3450
" />
<path d="M7.4870 31.3450
L7.2013 31.4165
" />
<path d="M7.2013 31.4165
L6.8441 31.4165
" />
<path d="M6.8441 31.4165
L6.5584 31.3450
" />
<path d="M6.5584 31.3450
L6.4155 31.2736
" />
<path d="M6.4155 31.2736
L6.3441 31.2022
" />
<path d="M6.3441 31.2022
L6.2727 31.0593
" />
<path d="M7.7727 28.7736
L6.7727 28.7736
" />
<path d="M6.9155 28.7736
L6.8441 28.7022
" />
<path d="M6.8441 28.7022
L6.7727 28.5593
" />
<path d="M6.7727 28.5593
L6.7727 28.3450
" />
<path d="M6.7727 28.3450
L6.8441 28.2022
" />
<path d="M6.8441 28.2022
L6.9870 28.1308
" />
<path d="M6.9870 28.1308
L7.7727 28.1308
" />
<path d="M6.9870 28.1308
L6.8441 28.0593
" />
<path d="M6.8441 28.0593
L6.7727 27.9165
" />
<path d="M6.7727 27.9165
L6.7727 27.7022
" />
<path d="M6.7727 27.7022
L6.8441 27.5593
" />
<path d="M6.8441 27.5593
L6.9870 27.4879
" />
<path d="M6.9870 27.4879
L7.7727 27.4879
" />
<path d="M7.7727 26.7736
L6.7727 26.7736
" />
<path d="M6.9155 26.7736
L6.8441 26.7022
" />
<path d="M6.8441 26.7022
L6.7727 26.5593
" />
<path d="M6.7727 26.5593
L6.7727 26.3451
" />
<path d="M6.7727 26.3451
L6.8441 26.2022
" />
<path d="M6.8441 26.2022
L6.9870 26.1308
" />
<path d="M6.9870 26.1308
L7.7727 26.1308
" />
<path d="M6.9870 26.1308
L6.8441 26.0593
" />
<path d="M6.8441 26.0593
L6.7727 25.9165
" />
<path d="M6.7727 25.9165
L6.7727 25.7022
" />
<path d="M6.7727 25.7022
L6.8441 25.5593
" />
<path d="M6.8441 25.5593
L6.9870 25.4879
" />
<path d="M6.9870 25.4879
L7.7727 25.4879
" />
</g><path d="M66.5493 55.9151
L8.0029 55.9151
" />
<path d="M66.5493 8.7751
L8.0029 8.7751
" />
<path d="M8.5893 55.9151
L8.5893 8.7751
" />
<path d="M8.5893 55.9151
L8.5893 8.7751
" />
<path d="M8.5893 55.9151
L8.0029 54.7885
" />
<path d="M8.5893 55.9151
L9.1757 54.7885
" />
<path d="M8.5893 8.7751
L9.1757 9.9016
" />
<path d="M8.5893 8.7751
L8.0029 9.9016
" />
<text x="66.5493" y="1.6450"
textLength="12.7300" font-size="2.0000" lengthAdjust="spacingAndGlyphs"
text-anchor="middle" opacity="0">5.3000 mm</text>
<g class="stroked-text"><desc>5.3000 mm</desc>
<path d="M61.1207 0.0885
L60.4064 0.0885
" />
<path d="M60.4064 0.0885
L60.3350 0.8027
" />
<path d="M60.3350 0.8027
L60.4064 0.7313
" />
<path d="M60.4064 0.7313
L60.5493 0.6599
" />
<path d="M60.5493 0.6599
L60.9064 0.6599
" />
<path d="M60.9064 0.6599
L61.0493 0.7313
" />
<path d="M61.0493 0.7313
L61.1207 0.8027
" />
<path d="M61.1207 0.8027
L61.1921 0.9456
" />
<path d="M61.1921 0.9456
L61.1921 1.3027
" />
<path d="M61.1921 1.3027
L61.1207 1.4456
" />
<path d="M61.1207 1.4456
L61.0493 1.5170
" />
<path d="M61.0493 1.5170
L60.9064 1.5885
" />
<path d="M60.9064 1.5885
L60.5493 1.5885
" />
<path d="M60.5493 1.5885
L60.4064 1.5170
" />
<path d="M60.4064 1.5170
L60.3350 1.4456
" />
<path d="M61.8350 1.4456
L61.9064 1.5170
" />
<path d="M61.9064 1.5170
L61.8350 1.5885
" />
<path d="M61.8350 1.5885
L61.7636 1.5170
" />
<path d="M61.7636 1.5170
L61.8350 1.4456
" />
<path d="M61.8350 1.4456
L61.8350 1.5885
" />
<path d="M62.4064 0.0885
L63.3350 0.0885
" />
<path d="M63.3350 0.0885
L62.8350 0.6599
" />
<path d="M62.8350 0.6599
L63.0493 0.6599
" />
<path d="M63.0493 0.6599
L63.1921 0.7313
" />
<path d="M63.1921 0.7313
L63.2636 0.8027
" />
<path d="M63.2636 0.8027
L63.3350 0.9456
" />
<path d="M63.3350 0.9456
L63.3350 1.3027
" />
<path d="M63.3350 1.3027
L63.2636 1.4456
" />
<path d="M63.2636 1.4456
L63.1921 1.5170
" />
<path d="M63.1921 1.5170
L63.0493 1.5885
" />
<path d="M63.0493 1.5885
L62.6207 1.5885
" />
<path d="M62.6207 1.5885
L62.4779 1.5170
" />
<path d="M62.4779 1.5170
L62.4064 1.4456
" />
<path d="M64.2636 0.0885
L64.4064 0.0885
" />
<path d="M64.4064 0.0885
L64.5493 0.1599
" />
<path d="M64.5493 0.1599
L64.6207 0.2313
" />
<path d="M64.6207 0.2313
L64.6921 0.3742
" />
<path d="M64.6921 0.3742
L64.7636 0.6599
" />
<path d="M64.7636 0.6599
L64.7636 1.0170
" />
<path d="M64.7636 1.0170
L64.6921 1.3027
" />
<path d="M64.6921 1.3027
L64.6207 1.4456
" />
<path d="M64.6207 1.4456
L64.5493 1.5170
" />
<path d="M64.5493 1.5170
L64.4064 1.5885
" />
<path d="M64.4064 1.5885
L64.2636 1.5885
" />
<path d="M64.2636 1.5885
L64.1207 1.5170
" />
<path d="M64.1207 1.5170
L64.0493 1.4456
" />
<path d="M64.0493 1.4456
L63.9779 1.3027
" />
<path d="M63.9779 1.3027
L63.9064 1.0170
" />
<path d="M63.9064 1.0170
L63.9064 0.6599
" />
<path d="M63.9064 0.6599
L63.9779 0.3742
" />
<path d="M63.9779 0.3742
L64.0493 0.2313
" />
<path d="M64.0493 0.2313
L64.1207 0.1599
" />
<path d="M64.1207 0.1599
L64.2636 0.0885
" />
<path d="M65.6921 0.0885
L65.8350 0.0885
" />
<path d="M65.8350 0.0885
L65.9779 0.1599
" />
<path d="M65.9779 0.1599
L66.0493 0.2313
" />
<path d="M66.0493 0.2313
L66.1207 0.3742
" />
<path d="M66.1207 0.3742
L66.1921 0.6599
" />
<path d="M66.1921 0.6599
L66.1921 1.0170
" />
<path d="M66.1921 1.0170
L66.1207 1.3027
" />
<path d="M66.1207 1.3027
L66.0493 1.4456
" />
<path d="M66.0493 1.4456
L65.9779 1.5170
" />
<path d="M65.9779 1.5170
L65.8350 1.5885
" />
<path d="M65.8350 1.5885
L65.6921 1.5885
" />
<path d="M65.6921 1.5885
L65.5493 1.5170
" />
<path d="M65.5493 1.5170
L65.4779 1.4456
" />
<path d="M65.4779 1.4456
L65.4064 1.3027
" />
<path d="M65.4064 1.3027
L65.3350 1.0170
" />
<path d="M65.3350 1.0170
L65.3350 0.6599
" />
<path d="M65.3350 0.6599
L65.4064 0.3742
" />
<path d="M65.4064 0.3742
L65.4779 0.2313
" />
<path d="M65.4779 0.2313
L65.5493 0.1599
" />
<path d="M65.5493 0.1599
L65.6921 0.0885
" />
<path d="M67.1207 0.0885
L67.2636 0.0885
" />
<path d="M67.2636 0.0885
L67.4064 0.1599
" />
<path d="M67.4064 0.1599
L67.4779 0.2313
" />
<path d="M67.4779 0.2313
L67.5493 0.3742
" />
<path d="M67.5493 0.3742
L67.6207 0.6599
" />
<path d="M67.6207 0.6599
L67.6207 1.0170
" />
<path d="M67.6207 1.0170
L67.5493 1.3027
" />
<path d="M67.5493 1.3027
L67.4779 1.4456
" />
<path d="M67.4779 1.4456
L67.4064 1.5170
" />
<path d="M67.4064 1.5170
L67.2636 1.5885
" />
<path d="M67.2636 1.5885
L67.1207 1.5885
" />
<path d="M67.1207 1.5885
L66.9779 1.5170
" />
<path d="M66.9779 1.5170
L66.9064 1.4456
" />
<path d="M66.9064 1.4456
L66.8350 1.3027
" />
<path d="M66.8350 1.3027
L66.7636 1.0170
" />
<path d="M66.7636 1.0170
L66.7636 0.6599
" />
<path d="M66.7636 0.6599
L66.8350 0.3742
" />
<path d="M66.8350 0.3742
L66.9064 0.2313
" />
<path d="M66.9064 0.2313
L66.9779 0.1599
" />
<path d="M66.9779 0.1599
L67.1207 0.0885
" />
<path d="M69.4064 1.5885
L69.4064 0.5885
" />
<path d="M69.4064 0.7313
L69.4779 0.6599
" />
<path d="M69.4779 0.6599
L69.6207 0.5885
" />
<path d="M69.6207 0.5885
L69.8350 0.5885
" />
<path d="M69.8350 0.5885
L69.9779 0.6599
" />
<path d="M69.9779 0.6599
L70.0493 0.8027
" />
<path d="M70.0493 0.8027
L70.0493 1.5885
" />
<path d="M70.0493 0.8027
L70.1207 0.6599
" />
<path d="M70.1207 0.6599
L70.2636 0.5885
" />
<path d="M70.2636 0.5885
L70.4779 0.5885
" />
<path d="M70.4779 0.5885
L70.6207 0.6599
" />
<path d="M70.6207 0.6599
L70.6921 0.8027
" />
<path d="M70.6921 0.8027
L70.6921 1.5885
" />
<path d="M71.4064 1.5885
L71.4064 0.5885
" />
<path d="M71.4064 0.7313
L71.4779 0.6599
" />
<path d="M71.4779 0.6599
L71.6207 0.5885
" />
<path d="M71.6207 0.5885
L71.8350 0.5885
" />
<path d="M71.8350 0.5885
L71.9779 0.6599
" />
<path d="M71.9779 0.6599
L72.0493 0.8027
" />
<path d="M72.0493 0.8027
L72.0493 1.5885
" />
<path d="M72.0493 0.8027
L72.1207 0.6599
" />
<path d="M72.1207 0.6599
L72.2636 0.5885
" />
<path d="M72.2636 0.5885
L72.4779 0.5885
" />
<path d="M72.4779 0.5885
L72.6207 0.6599
" />
<path d="M72.6207 0.6599
L72.6921 0.8027
" />
<path d="M72.6921 0.8027
L72.6921 1.5885
" />
</g><path d="M63.8993 8.7751
L63.8993 1.8186
" />
<path d="M69.1993 8.7751
L69.1993 1.8186
" />
<path d="M63.8993 2.4050
L69.1993 2.4050
" />
<path d="M63.8993 2.4050
L69.1993 2.4050
" />
<path d="M63.8993 2.4050
L65.0258 1.8186
" />
<path d="M63.8993 2.4050
L65.0258 2.9915
" />
<path d="M69.1993 2.4050
L68.0728 2.9915
" />
<path d="M69.1993 2.4050
L68.0728 1.8186
" />
<text x="42.9793" y="22.9650"
textLength="14.1586" font-size="2.0000" lengthAdjust="spacingAndGlyphs"
text-anchor="middle" opacity="0">12.1400 mm</text>
<g class="stroked-text"><desc>12.1400 mm</desc>
<path d="M36.9079 22.9085
L36.0507 22.9085
" />
<path d="M36.4793 22.9085
L36.4793 21.4085
" />
<path d="M36.4793 21.4085
L36.3364 21.6227
" />
<path d="M36.3364 21.6227
L36.1936 21.7656
" />
<path d="M36.1936 21.7656
L36.0507 21.8370
" />
<path d="M37.4793 21.5513
L37.5507 21.4799
" />
<path d="M37.5507 21.4799
L37.6936 21.4085
" />
<path d="M37.6936 21.4085
L38.0507 21.4085
" />
<path d="M38.0507 21.4085
L38.1936 21.4799
" />
<path d="M38.1936 21.4799
L38.2650 21.5513
" />
<path d="M38.2650 21.5513
L38.3364 21.6942
" />
<path d="M38.3364 21.6942
L38.3364 21.8370
" />
<path d="M38.3364 21.8370
L38.2650 22.0513
" />
<path d="M38.2650 22.0513
L37.4079 22.9085
" />
<path d="M37.4079 22.9085
L38.3364 22.9085
" />
<path d="M38.9793 22.7656
L39.0507 22.8370
" />
<path d="M39.0507 22.8370
L38.9793 22.9085
" />
<path d="M38.9793 22.9085
L38.9079 22.8370
" />
<path d="M38.9079 22.8370
L38.9793 22.7656
" />
<path d="M38.9793 22.7656
L38.9793 22.9085
" />
<path d="M40.4793 22.9085
L39.6221 22.9085
" />
<path d="M40.0507 22.9085
L40.0507 21.4085
" />
<path d="M40.0507 21.4085
L39.9079 21.6227
" />
<path d="M39.9079 21.6227
L39.7650 21.7656
" />
<path d="M39.7650 21.7656
L39.6221 21.8370
" />
<path d="M41.7650 21.9085
L41.7650 22.9085
" />
<path d="M41.4079 21.3370
L41.0507 22.4085
" />
<path d="M41.0507 22.4085
L41.9793 22.4085
" />
<path d="M42.8364 21.4085
L42.9793 21.4085
" />
<path d="M42.9793 21.4085
L43.1221 21.4799
" />
<path d="M43.1221 21.4799
L43.1936 21.5513
" />
<path d="M43.1936 21.5513
L43.2650 21.6942
" />
<path d="M43.2650 21.6942
L43.3364 21.9799
" />
<path d="M43.3364 21.9799
L43.3364 22.3370
" />
<path d="M43.3364 22.3370
L43.2650 22.6227
" />
<path d="M43.2650 22.6227
L43.1936 22.7656
" />
<path d="M43.1936 22.7656
L43.1221 22.8370
" />
<path d="M43.1221 22.8370
L42.9793 22.9085
" />
<path d="M42.9793 22.9085
L42.8364 22.9085
" />
<path d="M42.8364 22.9085
L42.6936 22.8370
" />
<path d="M42.6936 22.8370
L42.6221 22.7656
" />
<path d="M42.6221 22.7656
L42.5507 22.6227
" />
<path d="M42.5507 22.6227
L42.4793 22.3370
" />
<path d="M42.4793 22.3370
L42.4793 21.9799
" />
<path d="M42.4793 21.9799
L42.5507 21.6942
" />
<path d="M42.5507 21.6942
L42.6221 21.5513
" />
<path d="M42.6221 21.5513
L42.6936 21.4799
" />
<path d="M42.6936 21.4799
L42.8364 21.4085
" />
<path d="M44.2650 21.4085
L44.4079 21.4085
" />
<path d="M44.4079 21.4085
L44.5507 21.4799
" />
<path d="M44.5507 21.4799
L44.6221 21.5513
" />
<path d="M44.6221 21.5513
L44.6936 21.6942
" />
<path d="M44.6936 21.6942
L44.7650 21.9799
" />
<path d="M44.7650 21.9799
L44.7650 22.3370
" />
<path d="M44.7650 22.3370
L44.6936 22.6227
" />
<path d="M44.6936 22.6227
L44.6221 22.7656
" />
<path d="M44.6221 22.7656
L44.5507 22.8370
" />
<path d="M44.5507 22.8370
L44.4079 22.9085
" />
<path d="M44.4079 22.9085
L44.2650 22.9085
" />
<path d="M44.2650 22.9085
L44.1221 22.8370
" />
<path d="M44.1221 22.8370
L44.0507 22.7656
" />
<path d="M44.0507 22.7656
L43.9793 22.6227
" />
<path d="M43.9793 22.6227
L43.9079 22.3370
" />
<path d="M43.9079 22.3370
L43.9079 21.9799
" />
<path d="M43.9079 21.9799
L43.9793 21.6942
" />
<path d="M43.9793 21.6942
L44.0507 21.5513
" />
<path d="M44.0507 21.5513
L44.1221 21.4799
" />
<path d="M44.1221 21.4799
L44.2650 21.4085
" />
<path d="M46.5507 22.9085
L46.5507 21.9085
" />
<path d="M46.5507 22.0513
L46.6221 21.9799
" />
<path d="M46.6221 21.9799
L46.7650 21.9085
" />
<path d="M46.7650 21.9085
L46.9793 21.9085
" />
<path d="M46.9793 21.9085
L47.1221 21.9799
" />
<path d="M47.1221 21.9799
L47.1936 22.1227
" />
<path d="M47.1936 22.1227
L47.1936 22.9085
" />
<path d="M47.1936 22.1227
L47.2650 21.9799
" />
<path d="M47.2650 21.9799
L47.4079 21.9085
" />
<path d="M47.4079 21.9085
L47.6221 21.9085
" />
<path d="M47.6221 21.9085
L47.7650 21.9799
" />
<path d="M47.7650 21.9799
L47.8364 22.1227
" />
<path d="M47.8364 22.1227
L47.8364 22.9085
" />
<path d="M48.5507 22.9085
L48.5507 21.9085
" />
<path d="M48.5507 22.0513
L48.6221 21.9799
" />
<path d="M48.6221 21.9799
L48.7650 21.9085
" />
<path d="M48.7650 21.9085
L48.9793 21.9085
" />
<path d="M48.9793 21.9085
L49.1221 21.9799
" />
<path d="M49.1221 21.9799
L49.1936 22.1227
" />
<path d="M49.1936 22.1227
L49.1936 22.9085
" />
<path d="M49.1936 22.1227
L49.2650 21.9799
" />
<path d="M49.2650 21.9799
L49.4079 21.9085
" />
<path d="M49.4079 21.9085
L49.6221 21.9085
" />
<path d="M49.6221 21.9085
L49.7650 21.9799
" />
<path d="M49.7650 21.9799
L49.8364 22.1227
" />
<path d="M49.8364 22.1227
L49.8364 22.9085
" />
</g><path d="M36.9093 32.3451
L36.9093 23.1386
" />
<path d="M49.0493 32.3451
L49.0493 23.1386
" />
<path d="M36.9093 23.7250
L49.0493 23.7250
" />
<path d="M36.9093 23.7250
L49.0493 23.7250
" />
<path d="M36.9093 23.7250
L38.0358 23.1386
" />
<path d="M36.9093 23.7250
L38.0358 24.3115
" />
<path d="M49.0493 23.7250
L47.9228 24.3115
" />
<path d="M49.0493 23.7250
L47.9228 23.1386
" />
<text x="42.9793" y="63.1950"
textLength="14.1586" font-size="2.0000" lengthAdjust="spacingAndGlyphs"
text-anchor="middle" opacity="0">47.1400 mm</text>
<g class="stroked-text"><desc>47.1400 mm</desc>
<path d="M36.7650 62.1385
L36.7650 63.1385
" />
<path d="M36.4079 61.5670
L36.0507 62.6385
" />
<path d="M36.0507 62.6385
L36.9793 62.6385
" />
<path d="M37.4079 61.6385
L38.4079 61.6385
" />
<path d="M38.4079 61.6385
L37.7650 63.1385
" />
<path d="M38.9793 62.9956
L39.0507 63.0670
" />
<path d="M39.0507 63.0670
L38.9793 63.1385
" />
<path d="M38.9793 63.1385
L38.9079 63.0670
" />
<path d="M38.9079 63.0670
L38.9793 62.9956
" />
<path d="M38.9793 62.9956
L38.9793 63.1385
" />
<path d="M40.4793 63.1385
L39.6221 63.1385
" />
<path d="M40.0507 63.1385
L40.0507 61.6385
" />
<path d="M40.0507 61.6385
L39.9079 61.8527
" />
<path d="M39.9079 61.8527
L39.7650 61.9956
" />
<path d="M39.7650 61.9956
L39.6221 62.0670
" />
<path d="M41.7650 62.1385
L41.7650 63.1385
" />
<path d="M41.4079 61.5670
L41.0507 62.6385
" />
<path d="M41.0507 62.6385
L41.9793 62.6385
" />
<path d="M42.8364 61.6385
L42.9793 61.6385
" />
<path d="M42.9793 61.6385
L43.1221 61.7099
" />
<path d="M43.1221 61.7099
L43.1936 61.7813
" />
<path d="M43.1936 61.7813
L43.2650 61.9242
" />
<path d="M43.2650 61.9242
L43.3364 62.2099
" />
<path d="M43.3364 62.2099
L43.3364 62.5670
" />
<path d="M43.3364 62.5670
L43.2650 62.8527
" />
<path d="M43.2650 62.8527
L43.1936 62.9956
" />
<path d="M43.1936 62.9956
L43.1221 63.0670
" />
<path d="M43.1221 63.0670
L42.9793 63.1385
" />
<path d="M42.9793 63.1385
L42.8364 63.1385
" />
<path d="M42.8364 63.1385
L42.6936 63.0670
" />
<path d="M42.6936 63.0670
L42.6221 62.9956
" />
<path d="M42.6221 62.9956
L42.5507 62.8527
" />
<path d="M42.5507 62.8527
L42.4793 62.5670
" />
<path d="M42.4793 62.5670
L42.4793 62.2099
" />
<path d="M42.4793 62.2099
L42.5507 61.9242
" />
<path d="M42.5507 61.9242
L42.6221 61.7813
" />
<path d="M42.6221 61.7813
L42.6936 61.7099
" />
<path d="M42.6936 61.7099
L42.8364 61.6385
" />
<path d="M44.2650 61.6385
L44.4079 61.6385
" />
<path d="M44.4079 61.6385
L44.5507 61.7099
" />
<path d="M44.5507 61.7099
L44.6221 61.7813
" />
<path d="M44.6221 61.7813
L44.6936 61.9242
" />
<path d="M44.6936 61.9242
L44.7650 62.2099
" />
<path d="M44.7650 62.2099
L44.7650 62.5670
" />
<path d="M44.7650 62.5670
L44.6936 62.8527
" />
<path d="M44.6936 62.8527
L44.6221 62.9956
" />
<path d="M44.6221 62.9956
L44.5507 63.0670
" />
<path d="M44.5507 63.0670
L44.4079 63.1385
" />
<path d="M44.4079 63.1385
L44.2650 63.1385
" />
<path d="M44.2650 63.1385
L44.1221 63.0670
" />
<path d="M44.1221 63.0670
L44.0507 62.9956
" />
<path d="M44.0507 62.9956
L43.9793 62.8527
" />
<path d="M43.9793 62.8527
L43.9079 62.5670
" />
<path d="M43.9079 62.5670
L43.9079 62.2099
" />
<path d="M43.9079 62.2099
L43.9793 61.9242
" />
<path d="M43.9793 61.9242
L44.0507 61.7813
" />
<path d="M44.0507 61.7813
L44.1221 61.7099
" />
<path d="M44.1221 61.7099
L44.2650 61.6385
" />
<path d="M46.5507 63.1385
L46.5507 62.1385
" />
<path d="M46.5507 62.2813
L46.6221 62.2099
" />
<path d="M46.6221 62.2099
L46.7650 62.1385
" />
<path d="M46.7650 62.1385
L46.9793 62.1385
" />
<path d="M46.9793 62.1385
L47.1221 62.2099
" />
<path d="M47.1221 62.2099
L47.1936 62.3527
" />
<path d="M47.1936 62.3527
L47.1936 63.1385
" />
<path d="M47.1936 62.3527
L47.2650 62.2099
" />
<path d="M47.2650 62.2099
L47.4079 62.1385
" />
<path d="M47.4079 62.1385
L47.6221 62.1385
" />
<path d="M47.6221 62.1385
L47.7650 62.2099
" />
<path d="M47.7650 62.2099
L47.8364 62.3527
" />
<path d="M47.8364 62.3527
L47.8364 63.1385
" />
<path d="M48.5507 63.1385
L48.5507 62.1385
" />
<path d="M48.5507 62.2813
L48.6221 62.2099
" />
<path d="M48.6221 62.2099
L48.7650 62.1385
" />
<path d="M48.7650 62.1385
L48.9793 62.1385
" />
<path d="M48.9793 62.1385
L49.1221 62.2099
" />
<path d="M49.1221 62.2099
L49.1936 62.3527
" />
<path d="M49.1936 62.3527
L49.1936 63.1385
" />
<path d="M49.1936 62.3527
L49.2650 62.2099
" />
<path d="M49.2650 62.2099
L49.4079 62.1385
" />
<path d="M49.4079 62.1385
L49.6221 62.1385
" />
<path d="M49.6221 62.1385
L49.7650 62.2099
" />
<path d="M49.7650 62.2099
L49.8364 62.3527
" />
<path d="M49.8364 62.3527
L49.8364 63.1385
" />
</g><path d="M19.4093 8.7751
L19.4093 64.5415
" />
<path d="M66.5493 8.7751
L66.5493 64.5415
" />
<path d="M19.4093 63.9550
L66.5493 63.9550
" />
<path d="M19.4093 63.9550
L66.5493 63.9550
" />
<path d="M19.4093 63.9550
L20.5358 63.3686
" />
<path d="M19.4093 63.9550
L20.5358 64.5415
" />
<path d="M66.5493 63.9550
L65.4228 64.5415
" />
<path d="M66.5493 63.9550
L65.4228 63.3686
" />
<text x="42.9793" y="60.8850"
textLength="14.1586" font-size="2.0000" lengthAdjust="spacingAndGlyphs"
text-anchor="middle" opacity="0">56.4000 mm</text>
<g class="stroked-text"><desc>56.4000 mm</desc>
<path d="M36.8364 59.3285
L36.1221 59.3285
" />
<path d="M36.1221 59.3285
L36.0507 60.0427
" />
<path d="M36.0507 60.0427
L36.1221 59.9713
" />
<path d="M36.1221 59.9713
L36.2650 59.8999
" />
<path d="M36.2650 59.8999
L36.6221 59.8999
" />
<path d="M36.6221 59.8999
L36.7650 59.9713
" />
<path d="M36.7650 59.9713
L36.8364 60.0427
" />
<path d="M36.8364 60.0427
L36.9079 60.1856
" />
<path d="M36.9079 60.1856
L36.9079 60.5427
" />
<path d="M36.9079 60.5427
L36.8364 60.6856
" />
<path d="M36.8364 60.6856
L36.7650 60.7570
" />
<path d="M36.7650 60.7570
L36.6221 60.8285
" />
<path d="M36.6221 60.8285
L36.2650 60.8285
" />
<path d="M36.2650 60.8285
L36.1221 60.7570
" />
<path d="M36.1221 60.7570
L36.0507 60.6856
" />
<path d="M38.1936 59.3285
L37.9079 59.3285
" />
<path d="M37.9079 59.3285
L37.7650 59.3999
" />
<path d="M37.7650 59.3999
L37.6936 59.4713
" />
<path d="M37.6936 59.4713
L37.5507 59.6856
" />
<path d="M37.5507 59.6856
L37.4793 59.9713
" />
<path d="M37.4793 59.9713
L37.4793 60.5427
" />
<path d="M37.4793 60.5427
L37.5507 60.6856
" />
<path d="M37.5507 60.6856
L37.6221 60.7570
" />
<path d="M37.6221 60.7570
L37.7650 60.8285
" />
<path d="M37.7650 60.8285
L38.0507 60.8285
" />
<path d="M38.0507 60.8285
L38.1936 60.7570
" />
<path d="M38.1936 60.7570
L38.2650 60.6856
" />
<path d="M38.2650 60.6856
L38.3364 60.5427
" />
<path d="M38.3364 60.5427
L38.3364 60.1856
" />
<path d="M38.3364 60.1856
L38.2650 60.0427
" />
<path d="M38.2650 60.0427
L38.1936 59.9713
" />
<path d="M38.1936 59.9713
L38.0507 59.8999
" />
<path d="M38.0507 59.8999
L37.7650 59.8999
" />
<path d="M37.7650 59.8999
L37.6221 59.9713
" />
<path d="M37.6221 59.9713
L37.5507 60.0427
" />
<path d="M37.5507 60.0427
L37.4793 60.1856
" />
<path d="M38.9793 60.6856
L39.0507 60.7570
" />
<path d="M39.0507 60.7570
L38.9793 60.8285
" />
<path d="M38.9793 60.8285
L38.9079 60.7570
" />
<path d="M38.9079 60.7570
L38.9793 60.6856
" />
<path d="M38.9793 60.6856
L38.9793 60.8285
" />
<path d="M40.3364 59.8285
L40.3364 60.8285
" />
<path d="M39.9793 59.2570
L39.6221 60.3285
" />
<path d="M39.6221 60.3285
L40.5507 60.3285
" />
<path d="M41.4079 59.3285
L41.5507 59.3285
" />
<path d="M41.5507 59.3285
L41.6936 59.3999
" />
<path d="M41.6936 59.3999
L41.7650 59.4713
" />
<path d="M41.7650 59.4713
L41.8364 59.6142
" />
<path d="M41.8364 59.6142
L41.9079 59.8999
" />
<path d="M41.9079 59.8999
L41.9079 60.2570
" />
<path d="M41.9079 60.2570
L41.8364 60.5427
" />
<path d="M41.8364 60.5427
L41.7650 60.6856
" />
<path d="M41.7650 60.6856
L41.6936 60.7570
" />
<path d="M41.6936 60.7570
L41.5507 60.8285
" />
<path d="M41.5507 60.8285
L41.4079 60.8285
" />
<path d="M41.4079 60.8285
L41.2650 60.7570
" />
<path d="M41.2650 60.7570
L41.1936 60.6856
" />
<path d="M41.1936 60.6856
L41.1221 60.5427
" />
<path d="M41.1221 60.5427
L41.0507 60.2570
" />
<path d="M41.0507 60.2570
L41.0507 59.8999
" />
<path d="M41.0507 59.8999
L41.1221 59.6142
" />
<path d="M41.1221 59.6142
L41.1936 59.4713
" />
<path d="M41.1936 59.4713
L41.2650 59.3999
" />
<path d="M41.2650 59.3999
L41.4079 59.3285
" />
<path d="M42.8364 59.3285
L42.9793 59.3285
" />
<path d="M42.9793 59.3285
L43.1221 59.3999
" />
<path d="M43.1221 59.3999
L43.1936 59.4713
" />
<path d="M43.1936 59.4713
L43.2650 59.6142
" />
<path d="M43.2650 59.6142
L43.3364 59.8999
" />
<path d="M43.3364 59.8999
L43.3364 60.2570
" />
<path d="M43.3364 60.2570
L43.2650 60.5427
" />
<path d="M43.2650 60.5427
L43.1936 60.6856
" />
<path d="M43.1936 60.6856
L43.1221 60.7570
" />
<path d="M43.1221 60.7570
L42.9793 60.8285
" />
<path d="M42.9793 60.8285
L42.8364 60.8285
" />
<path d="M42.8364 60.8285
L42.6936 60.7570
" />
<path d="M42.6936 60.7570
L42.6221 60.6856
" />
<path d="M42.6221 60.6856
L42.5507 60.5427
" />
<path d="M42.5507 60.5427
L42.4793 60.2570
" />
<path d="M42.4793 60.2570
L42.4793 59.8999
" />
<path d="M42.4793 59.8999
L42.5507 59.6142
" />
<path d="M42.5507 59.6142
L42.6221 59.4713
" />
<path d="M42.6221 59.4713
L42.6936 59.3999
" />
<path d="M42.6936 59.3999
L42.8364 59.3285
" />
<path d="M44.2650 59.3285
L44.4079 59.3285
" />
<path d="M44.4079 59.3285
L44.5507 59.3999
" />
<path d="M44.5507 59.3999
L44.6221 59.4713
" />
<path d="M44.6221 59.4713
L44.6936 59.6142
" />
<path d="M44.6936 59.6142
L44.7650 59.8999
" />
<path d="M44.7650 59.8999
L44.7650 60.2570
" />
<path d="M44.7650 60.2570
L44.6936 60.5427
" />
<path d="M44.6936 60.5427
L44.6221 60.6856
" />
<path d="M44.6221 60.6856
L44.5507 60.7570
" />
<path d="M44.5507 60.7570
L44.4079 60.8285
" />
<path d="M44.4079 60.8285
L44.2650 60.8285
" />
<path d="M44.2650 60.8285
L44.1221 60.7570
" />
<path d="M44.1221 60.7570
L44.0507 60.6856
" />
<path d="M44.0507 60.6856
L43.9793 60.5427
" />
<path d="M43.9793 60.5427
L43.9079 60.2570
" />
<path d="M43.9079 60.2570
L43.9079 59.8999
" />
<path d="M43.9079 59.8999
L43.9793 59.6142
" />
<path d="M43.9793 59.6142
L44.0507 59.4713
" />
<path d="M44.0507 59.4713
L44.1221 59.3999
" />
<path d="M44.1221 59.3999
L44.2650 59.3285
" />
<path d="M46.5507 60.8285
L46.5507 59.8285
" />
<path d="M46.5507 59.9713
L46.6221 59.8999
" />
<path d="M46.6221 59.8999
L46.7650 59.8285
" />
<path d="M46.7650 59.8285
L46.9793 59.8285
" />
<path d="M46.9793 59.8285
L47.1221 59.8999
" />
<path d="M47.1221 59.8999
L47.1936 60.0427
" />
<path d="M47.1936 60.0427
L47.1936 60.8285
" />
<path d="M47.1936 60.0427
L47.2650 59.8999
" />
<path d="M47.2650 59.8999
L47.4079 59.8285
" />
<path d="M47.4079 59.8285
L47.6221 59.8285
" />
<path d="M47.6221 59.8285
L47.7650 59.8999
" />
<path d="M47.7650 59.8999
L47.8364 60.0427
" />
<path d="M47.8364 60.0427
L47.8364 60.8285
" />
<path d="M48.5507 60.8285
L48.5507 59.8285
" />
<path d="M48.5507 59.9713
L48.6221 59.8999
" />
<path d="M48.6221 59.8999
L48.7650 59.8285
" />
<path d="M48.7650 59.8285
L48.9793 59.8285
" />
<path d="M48.9793 59.8285
L49.1221 59.8999
" />
<path d="M49.1221 59.8999
L49.1936 60.0427
" />
<path d="M49.1936 60.0427
L49.1936 60.8285
" />
<path d="M49.1936 60.0427
L49.2650 59.8999
" />
<path d="M49.2650 59.8999
L49.4079 59.8285
" />
<path d="M49.4079 59.8285
L49.6221 59.8285
" />
<path d="M49.6221 59.8285
L49.7650 59.8999
" />
<path d="M49.7650 59.8999
L49.8364 60.0427
" />
<path d="M49.8364 60.0427
L49.8364 60.8285
" />
</g><path d="M71.1793 4.1450
L71.1793 62.2315
" />
<path d="M14.7793 4.1450
L14.7793 62.2315
" />
<path d="M71.1793 61.6450
L14.7793 61.6450
" />
<path d="M71.1793 61.6450
L14.7793 61.6450
" />
<path d="M71.1793 61.6450
L70.0528 62.2315
" />
<path d="M71.1793 61.6450
L70.0528 61.0586
" />
<path d="M14.7793 61.6450
L15.9058 61.0586
" />
<path d="M14.7793 61.6450
L15.9058 62.2315
" />
<g >
</g>
<g >
</g>
<g >
</g>
<g >
</g>
<g >
</g>
<g >
</g>
<g >
</g>
</g>
<g style="fill:#FFFFFF; fill-opacity:0.0; 
stroke:#FFFFFF; stroke-width:0.0100; stroke-opacity:1; 
stroke-linecap:round; stroke-linejoin:round;">
</g>
<g style="fill:#2F2D31; fill-opacity:0.0; 
stroke:#2F2D31; stroke-width:0.0100; stroke-opacity:1; 
stroke-linecap:round; stroke-linejoin:round;">
</g>
<g style="fill:#2F2D31; fill-opacity:0.0; 
stroke:#2F2D31; stroke-width:0.1500; stroke-opacity:1; 
stroke-linecap:round; stroke-linejoin:round;">
<path d="M14.7793 14.1350
L14.7793 50.5550
" />
<path d="M16.7793 12.1450 A2.0000 2.0000 0.0 0 0 14.7793 14.1450" />
<path d="M22.7793 8.7751
L22.7793 6.1551
" />
<path d="M14.7793 50.5450 A2.0000 2.0000 0.0 0 0 16.7793 52.5450" />
<path d="M66.5493 52.5451 A3.3700 3.3700 0.0 0 0 63.1793 55.9151" />
<path d="M24.7893 60.5450
L61.1693 60.5450
" />
<path d="M19.4093 12.1450 A3.3700 3.3700 0.0 0 0 22.7793 8.7751" />
<path d="M69.1793 12.1450
L66.5493 12.1450
" />
<path d="M66.5493 52.5450
L69.1793 52.5450
" />
<path d="M24.7793 4.1450 A2.0000 2.0000 0.0 0 0 22.7793 6.1450" />
<path d="M24.7893 4.1450
L61.1793 4.1450
" />
<path d="M63.1793 8.7751 A3.3700 3.3700 0.0 0 0 66.5493 12.1450" />
<path d="M22.7793 55.9151
L22.7793 58.5450
" />
<path d="M22.7793 55.9151 A3.3700 3.3700 0.0 0 0 19.4093 52.5451" />
<path d="M63.1793 6.1450 A2.0000 2.0000 0.0 0 0 61.1793 4.1450" />
<path d="M61.1793 60.5450 A2.0000 2.0000 0.0 0 0 63.1793 58.5450" />
<path d="M69.1793 52.5450 A2.0000 2.0000 0.0 0 0 71.1793 50.5450" />
<path d="M71.1793 50.5350
L71.1793 14.1550
" />
<path d="M16.7793 12.1450
L19.4093 12.1450
" />
<path d="M71.1793 14.1450 A2.0000 2.0000 0.0 0 0 69.1793 12.1450" />
<path d="M22.7793 58.5450 A2.0000 2.0000 0.0 0 0 24.7793 60.5450" />
<path d="M16.7893 52.5450
L19.4093 52.5450
" />
<path d="M63.1793 58.5350
L63.1793 55.9151
" />
<path d="M63.1793 8.7751
L63.1793 6.1450
" />
</g>
<g style="fill:#2F2D31; fill-opacity:0.0; 
stroke:#2F2D31; stroke-width:0.1524; stroke-opacity:1; 
stroke-linecap:round; stroke-linejoin:round;">
<circle cx="19.4093" cy="32.3451" r="0.6350" /> 
<path d="M18.7743 31.7100
L20.0443 32.9800
" />
<path d="M18.7743 32.9800
L20.0443 31.7100
" />
</g>
<g style="fill:#2F2D31; fill-opacity:0.0; 
stroke:#2F2D31; stroke-width:0.1500; stroke-opacity:1; 
stroke-linecap:round; stroke-linejoin:round;">
</g>
<g style="fill:#2F2D31; fill-opacity:1.0000; 
stroke:#2F2D31; stroke-width:0.0000; stroke-opacity:1; 
stroke-linecap:round; stroke-linejoin:round;">
<circle cx="28.0793" cy="7.4450" r="0.0750" /> 
<circle cx="28.0793" cy="7.4450" r="0.0750" /> 
<circle cx="28.0793" cy="7.4450" r="0.0750" /> 
<g >
</g>
<g >
</g>
<g >
</g>
<g >
</g>
<g >
</g>
<g >
</g>
<g >
</g>
</g> 
</svg>
