<?xml version="1.0" standalone="no"?>
 <!DOCTYPE svg PUBLIC "-//W3C//DTD SVG 1.1//EN" 
 "http://www.w3.org/Graphics/SVG/1.1/DTD/svg11.dtd"> 
<svg
  xmlns:svg="http://www.w3.org/2000/svg"
  xmlns="http://www.w3.org/2000/svg"
  xmlns:xlink="http://www.w3.org/1999/xlink"
  version="1.1"
  width="26.3906mm" height="34.4932mm" viewBox="0.0000 0.0000 26.3906 34.4932">
<title>SVG Image created as working-brd.svg date 2023/09/08 23:06:47 </title>
  <desc>Image generated by PCBNEW </desc>
<g style="fill:#000000; fill-opacity:1.0000;stroke:#000000; stroke-opacity:1.0000;
stroke-linecap:round; stroke-linejoin:round;"
 transform="translate(0 0) scale(1 1)">
</g>
<g style="fill:#000000; fill-opacity:0.0; 
stroke:#000000; stroke-width:0.0000; stroke-opacity:1; 
stroke-linecap:round; stroke-linejoin:round;">
</g>
<g style="fill:#000000; fill-opacity:1.0000; 
stroke:#000000; stroke-width:0.0212; stroke-opacity:1; 
stroke-linecap:round; stroke-linejoin:round;">
<rect x="-5.000000" y="-5.000000" width="36.410000" height="44.501734" rx="0.000000" />
</g>
<g style="fill:#FFFFFF; fill-opacity:1.0000; 
stroke:#FFFFFF; stroke-width:0.0212; stroke-opacity:1; 
stroke-linecap:round; stroke-linejoin:round;">
<g >
</g>
<g >
</g>
<g >
</g>
<g >
</g>
<g >
</g>
<g >
</g>
</g>
<g style="fill:#FFFFFF; fill-opacity:1.0000; 
stroke:#FFFFFF; stroke-width:0.0212; stroke-opacity:1; 
stroke-linecap:round; stroke-linejoin:round;">
<g >
</g>
<g >
</g>
<g >
</g>
<g >
</g>
<g >
</g>
<g >
</g>
</g>
<g style="fill:#FFFFFF; fill-opacity:1.0000; 
stroke:#FFFFFF; stroke-width:0.0212; stroke-opacity:1; 
stroke-linecap:round; stroke-linejoin:round;">
<g >
</g>
<g >
</g>
<g >
</g>
<g >
</g>
<g >
</g>
<g >
</g>
</g>
<g style="fill:#FFFFFF; fill-opacity:1.0000; 
stroke:#FFFFFF; stroke-width:0.0212; stroke-opacity:1; 
stroke-linecap:round; stroke-linejoin:round;">
</g>
<g style="fill:#174D58; fill-opacity:1.0000; 
stroke:#174D58; stroke-width:0.0212; stroke-opacity:1; 
stroke-linecap:round; stroke-linejoin:round;">
</g>
<g style="fill:#174D58; fill-opacity:1.0000; 
stroke:#174D58; stroke-width:0.3000; stroke-opacity:1; 
stroke-linecap:round; stroke-linejoin:round;">
</g>
<g style="fill:#174D58; fill-opacity:0.0; 
stroke:#174D58; stroke-width:0.3000; stroke-opacity:1; 
stroke-linecap:round; stroke-linejoin:round;">
<text x="4.1850" y="8.6017"
transform="scale(-1 1) translate(-8.370000 0)"
textLength="3.1714" font-size="2.0000" lengthAdjust="spacingAndGlyphs"
text-anchor="middle" opacity="0">TX</text>
<g class="stroked-text"><desc>TX</desc>
<path d="M5.3279 7.0301
L4.4707 7.0301
" />
<path d="M4.8993 8.5301
L4.8993 7.0301
" />
<path d="M4.1136 7.0301
L3.1136 8.5301
" />
<path d="M3.1136 7.0301
L4.1136 8.5301
" />
</g><text x="4.3850" y="11.2017"
transform="scale(-1 1) translate(-8.770000 0)"
textLength="3.5286" font-size="2.0000" lengthAdjust="spacingAndGlyphs"
text-anchor="middle" opacity="0">RX</text>
<g class="stroked-text"><desc>RX</desc>
<path d="M4.6350 11.1301
L5.1350 10.4158
" />
<path d="M5.4921 11.1301
L5.4921 9.6301
" />
<path d="M5.4921 9.6301
L4.9207 9.6301
" />
<path d="M4.9207 9.6301
L4.7779 9.7015
" />
<path d="M4.7779 9.7015
L4.7064 9.7729
" />
<path d="M4.7064 9.7729
L4.6350 9.9158
" />
<path d="M4.6350 9.9158
L4.6350 10.1301
" />
<path d="M4.6350 10.1301
L4.7064 10.2729
" />
<path d="M4.7064 10.2729
L4.7779 10.3443
" />
<path d="M4.7779 10.3443
L4.9207 10.4158
" />
<path d="M4.9207 10.4158
L5.4921 10.4158
" />
<path d="M4.1350 9.6301
L3.1350 11.1301
" />
<path d="M3.1350 9.6301
L4.1350 11.1301
" />
</g><text x="4.3850" y="13.6017"
transform="scale(-1 1) translate(-8.770000 0)"
textLength="3.5286" font-size="2.0000" lengthAdjust="spacingAndGlyphs"
text-anchor="middle" opacity="0">D1</text>
<g class="stroked-text"><desc>D1</desc>
<path d="M5.4921 13.5301
L5.4921 12.0301
" />
<path d="M5.4921 12.0301
L5.1350 12.0301
" />
<path d="M5.1350 12.0301
L4.9207 12.1015
" />
<path d="M4.9207 12.1015
L4.7779 12.2443
" />
<path d="M4.7779 12.2443
L4.7064 12.3872
" />
<path d="M4.7064 12.3872
L4.6350 12.6729
" />
<path d="M4.6350 12.6729
L4.6350 12.8872
" />
<path d="M4.6350 12.8872
L4.7064 13.1729
" />
<path d="M4.7064 13.1729
L4.7779 13.3158
" />
<path d="M4.7779 13.3158
L4.9207 13.4586
" />
<path d="M4.9207 13.4586
L5.1350 13.5301
" />
<path d="M5.1350 13.5301
L5.4921 13.5301
" />
<path d="M3.2064 13.5301
L4.0636 13.5301
" />
<path d="M3.6350 13.5301
L3.6350 12.0301
" />
<path d="M3.6350 12.0301
L3.7779 12.2443
" />
<path d="M3.7779 12.2443
L3.9207 12.3872
" />
<path d="M3.9207 12.3872
L4.0636 12.4586
" />
</g><text x="4.3850" y="16.2017"
transform="scale(-1 1) translate(-8.770000 0)"
textLength="3.5286" font-size="2.0000" lengthAdjust="spacingAndGlyphs"
text-anchor="middle" opacity="0">D2</text>
<g class="stroked-text"><desc>D2</desc>
<path d="M5.4921 16.1301
L5.4921 14.6301
" />
<path d="M5.4921 14.6301
L5.1350 14.6301
" />
<path d="M5.1350 14.6301
L4.9207 14.7015
" />
<path d="M4.9207 14.7015
L4.7779 14.8443
" />
<path d="M4.7779 14.8443
L4.7064 14.9872
" />
<path d="M4.7064 14.9872
L4.6350 15.2729
" />
<path d="M4.6350 15.2729
L4.6350 15.4872
" />
<path d="M4.6350 15.4872
L4.7064 15.7729
" />
<path d="M4.7064 15.7729
L4.7779 15.9158
" />
<path d="M4.7779 15.9158
L4.9207 16.0586
" />
<path d="M4.9207 16.0586
L5.1350 16.1301
" />
<path d="M5.1350 16.1301
L5.4921 16.1301
" />
<path d="M4.0636 14.7729
L3.9921 14.7015
" />
<path d="M3.9921 14.7015
L3.8493 14.6301
" />
<path d="M3.8493 14.6301
L3.4921 14.6301
" />
<path d="M3.4921 14.6301
L3.3493 14.7015
" />
<path d="M3.3493 14.7015
L3.2779 14.7729
" />
<path d="M3.2779 14.7729
L3.2064 14.9158
" />
<path d="M3.2064 14.9158
L3.2064 15.0586
" />
<path d="M3.2064 15.0586
L3.2779 15.2729
" />
<path d="M3.2779 15.2729
L4.1350 16.1301
" />
<path d="M4.1350 16.1301
L3.2064 16.1301
" />
</g><text x="4.3850" y="18.8017"
transform="scale(-1 1) translate(-8.770000 0)"
textLength="3.5286" font-size="2.0000" lengthAdjust="spacingAndGlyphs"
text-anchor="middle" opacity="0">D3</text>
<g class="stroked-text"><desc>D3</desc>
<path d="M5.4921 18.7301
L5.4921 17.2301
" />
<path d="M5.4921 17.2301
L5.1350 17.2301
" />
<path d="M5.1350 17.2301
L4.9207 17.3015
" />
<path d="M4.9207 17.3015
L4.7779 17.4443
" />
<path d="M4.7779 17.4443
L4.7064 17.5872
" />
<path d="M4.7064 17.5872
L4.6350 17.8729
" />
<path d="M4.6350 17.8729
L4.6350 18.0872
" />
<path d="M4.6350 18.0872
L4.7064 18.3729
" />
<path d="M4.7064 18.3729
L4.7779 18.5158
" />
<path d="M4.7779 18.5158
L4.9207 18.6586
" />
<path d="M4.9207 18.6586
L5.1350 18.7301
" />
<path d="M5.1350 18.7301
L5.4921 18.7301
" />
<path d="M4.1350 17.2301
L3.2064 17.2301
" />
<path d="M3.2064 17.2301
L3.7064 17.8015
" />
<path d="M3.7064 17.8015
L3.4921 17.8015
" />
<path d="M3.4921 17.8015
L3.3493 17.8729
" />
<path d="M3.3493 17.8729
L3.2779 17.9443
" />
<path d="M3.2779 17.9443
L3.2064 18.0872
" />
<path d="M3.2064 18.0872
L3.2064 18.4443
" />
<path d="M3.2064 18.4443
L3.2779 18.5872
" />
<path d="M3.2779 18.5872
L3.3493 18.6586
" />
<path d="M3.3493 18.6586
L3.4921 18.7301
" />
<path d="M3.4921 18.7301
L3.9207 18.7301
" />
<path d="M3.9207 18.7301
L4.0636 18.6586
" />
<path d="M4.0636 18.6586
L4.1350 18.5872
" />
</g><text x="4.3850" y="21.4017"
transform="scale(-1 1) translate(-8.770000 0)"
textLength="3.5286" font-size="2.0000" lengthAdjust="spacingAndGlyphs"
text-anchor="middle" opacity="0">D4</text>
<g class="stroked-text"><desc>D4</desc>
<path d="M5.4921 21.3301
L5.4921 19.8301
" />
<path d="M5.4921 19.8301
L5.1350 19.8301
" />
<path d="M5.1350 19.8301
L4.9207 19.9015
" />
<path d="M4.9207 19.9015
L4.7779 20.0443
" />
<path d="M4.7779 20.0443
L4.7064 20.1872
" />
<path d="M4.7064 20.1872
L4.6350 20.4729
" />
<path d="M4.6350 20.4729
L4.6350 20.6872
" />
<path d="M4.6350 20.6872
L4.7064 20.9729
" />
<path d="M4.7064 20.9729
L4.7779 21.1158
" />
<path d="M4.7779 21.1158
L4.9207 21.2586
" />
<path d="M4.9207 21.2586
L5.1350 21.3301
" />
<path d="M5.1350 21.3301
L5.4921 21.3301
" />
<path d="M3.3493 20.3301
L3.3493 21.3301
" />
<path d="M3.7064 19.7586
L4.0636 20.8301
" />
<path d="M4.0636 20.8301
L3.1350 20.8301
" />
</g><text x="3.7850" y="23.9017"
transform="scale(-1 1) translate(-7.570000 0)"
textLength="2.1000" font-size="2.0000" lengthAdjust="spacingAndGlyphs"
text-anchor="middle" opacity="0">G</text>
<g class="stroked-text"><desc>G</desc>
<path d="M3.3921 22.4015
L3.5350 22.3301
" />
<path d="M3.5350 22.3301
L3.7493 22.3301
" />
<path d="M3.7493 22.3301
L3.9636 22.4015
" />
<path d="M3.9636 22.4015
L4.1064 22.5443
" />
<path d="M4.1064 22.5443
L4.1779 22.6872
" />
<path d="M4.1779 22.6872
L4.2493 22.9729
" />
<path d="M4.2493 22.9729
L4.2493 23.1872
" />
<path d="M4.2493 23.1872
L4.1779 23.4729
" />
<path d="M4.1779 23.4729
L4.1064 23.6158
" />
<path d="M4.1064 23.6158
L3.9636 23.7586
" />
<path d="M3.9636 23.7586
L3.7493 23.8301
" />
<path d="M3.7493 23.8301
L3.6064 23.8301
" />
<path d="M3.6064 23.8301
L3.3921 23.7586
" />
<path d="M3.3921 23.7586
L3.3207 23.6872
" />
<path d="M3.3207 23.6872
L3.3207 23.1872
" />
<path d="M3.3207 23.1872
L3.6064 23.1872
" />
</g><text x="4.2850" y="26.4017"
transform="scale(-1 1) translate(-8.570000 0)"
textLength="3.3143" font-size="2.0000" lengthAdjust="spacingAndGlyphs"
text-anchor="middle" opacity="0">5V</text>
<g class="stroked-text"><desc>5V</desc>
<path d="M4.5707 24.8301
L5.2850 24.8301
" />
<path d="M5.2850 24.8301
L5.3564 25.5443
" />
<path d="M5.3564 25.5443
L5.2850 25.4729
" />
<path d="M5.2850 25.4729
L5.1421 25.4015
" />
<path d="M5.1421 25.4015
L4.7850 25.4015
" />
<path d="M4.7850 25.4015
L4.6421 25.4729
" />
<path d="M4.6421 25.4729
L4.5707 25.5443
" />
<path d="M4.5707 25.5443
L4.4993 25.6872
" />
<path d="M4.4993 25.6872
L4.4993 26.0443
" />
<path d="M4.4993 26.0443
L4.5707 26.1872
" />
<path d="M4.5707 26.1872
L4.6421 26.2586
" />
<path d="M4.6421 26.2586
L4.7850 26.3301
" />
<path d="M4.7850 26.3301
L5.1421 26.3301
" />
<path d="M5.1421 26.3301
L5.2850 26.2586
" />
<path d="M5.2850 26.2586
L5.3564 26.1872
" />
<path d="M4.0707 24.8301
L3.5707 26.3301
" />
<path d="M3.5707 26.3301
L3.0707 24.8301
" />
</g><text x="21.6850" y="8.5017"
transform="scale(-1 1) translate(-43.370000 0)"
textLength="4.1714" font-size="2.0000" lengthAdjust="spacingAndGlyphs"
text-anchor="middle" opacity="0">Rst</text>
<g class="stroked-text"><desc>Rst</desc>
<path d="M22.2564 8.4301
L22.7564 7.7158
" />
<path d="M23.1136 8.4301
L23.1136 6.9301
" />
<path d="M23.1136 6.9301
L22.5421 6.9301
" />
<path d="M22.5421 6.9301
L22.3993 7.0015
" />
<path d="M22.3993 7.0015
L22.3279 7.0729
" />
<path d="M22.3279 7.0729
L22.2564 7.2158
" />
<path d="M22.2564 7.2158
L22.2564 7.4301
" />
<path d="M22.2564 7.4301
L22.3279 7.5729
" />
<path d="M22.3279 7.5729
L22.3993 7.6443
" />
<path d="M22.3993 7.6443
L22.5421 7.7158
" />
<path d="M22.5421 7.7158
L23.1136 7.7158
" />
<path d="M21.6850 8.3586
L21.5421 8.4301
" />
<path d="M21.5421 8.4301
L21.2564 8.4301
" />
<path d="M21.2564 8.4301
L21.1136 8.3586
" />
<path d="M21.1136 8.3586
L21.0421 8.2158
" />
<path d="M21.0421 8.2158
L21.0421 8.1443
" />
<path d="M21.0421 8.1443
L21.1136 8.0015
" />
<path d="M21.1136 8.0015
L21.2564 7.9301
" />
<path d="M21.2564 7.9301
L21.4707 7.9301
" />
<path d="M21.4707 7.9301
L21.6136 7.8586
" />
<path d="M21.6136 7.8586
L21.6850 7.7158
" />
<path d="M21.6850 7.7158
L21.6850 7.6443
" />
<path d="M21.6850 7.6443
L21.6136 7.5015
" />
<path d="M21.6136 7.5015
L21.4707 7.4301
" />
<path d="M21.4707 7.4301
L21.2564 7.4301
" />
<path d="M21.2564 7.4301
L21.1136 7.5015
" />
<path d="M20.6136 7.4301
L20.0421 7.4301
" />
<path d="M20.3993 6.9301
L20.3993 8.2158
" />
<path d="M20.3993 8.2158
L20.3279 8.3586
" />
<path d="M20.3279 8.3586
L20.1850 8.4301
" />
<path d="M20.1850 8.4301
L20.0421 8.4301
" />
</g><text x="22.0850" y="11.1017"
transform="scale(-1 1) translate(-44.170000 0)"
textLength="3.3143" font-size="2.0000" lengthAdjust="spacingAndGlyphs"
text-anchor="middle" opacity="0">A0</text>
<g class="stroked-text"><desc>A0</desc>
<path d="M23.1564 10.6015
L22.4421 10.6015
" />
<path d="M23.2993 11.0301
L22.7993 9.5301
" />
<path d="M22.7993 9.5301
L22.2993 11.0301
" />
<path d="M21.5136 9.5301
L21.3707 9.5301
" />
<path d="M21.3707 9.5301
L21.2279 9.6015
" />
<path d="M21.2279 9.6015
L21.1564 9.6729
" />
<path d="M21.1564 9.6729
L21.0850 9.8158
" />
<path d="M21.0850 9.8158
L21.0136 10.1015
" />
<path d="M21.0136 10.1015
L21.0136 10.4586
" />
<path d="M21.0136 10.4586
L21.0850 10.7443
" />
<path d="M21.0850 10.7443
L21.1564 10.8872
" />
<path d="M21.1564 10.8872
L21.2279 10.9586
" />
<path d="M21.2279 10.9586
L21.3707 11.0301
" />
<path d="M21.3707 11.0301
L21.5136 11.0301
" />
<path d="M21.5136 11.0301
L21.6564 10.9586
" />
<path d="M21.6564 10.9586
L21.7279 10.8872
" />
<path d="M21.7279 10.8872
L21.7993 10.7443
" />
<path d="M21.7993 10.7443
L21.8707 10.4586
" />
<path d="M21.8707 10.4586
L21.8707 10.1015
" />
<path d="M21.8707 10.1015
L21.7993 9.8158
" />
<path d="M21.7993 9.8158
L21.7279 9.6729
" />
<path d="M21.7279 9.6729
L21.6564 9.6015
" />
<path d="M21.6564 9.6015
L21.5136 9.5301
" />
</g><text x="22.0850" y="13.7017"
transform="scale(-1 1) translate(-44.170000 0)"
textLength="3.5286" font-size="2.0000" lengthAdjust="spacingAndGlyphs"
text-anchor="middle" opacity="0">D0</text>
<g class="stroked-text"><desc>D0</desc>
<path d="M23.1921 13.6301
L23.1921 12.1301
" />
<path d="M23.1921 12.1301
L22.8350 12.1301
" />
<path d="M22.8350 12.1301
L22.6207 12.2015
" />
<path d="M22.6207 12.2015
L22.4779 12.3443
" />
<path d="M22.4779 12.3443
L22.4064 12.4872
" />
<path d="M22.4064 12.4872
L22.3350 12.7729
" />
<path d="M22.3350 12.7729
L22.3350 12.9872
" />
<path d="M22.3350 12.9872
L22.4064 13.2729
" />
<path d="M22.4064 13.2729
L22.4779 13.4158
" />
<path d="M22.4779 13.4158
L22.6207 13.5586
" />
<path d="M22.6207 13.5586
L22.8350 13.6301
" />
<path d="M22.8350 13.6301
L23.1921 13.6301
" />
<path d="M21.4064 12.1301
L21.2636 12.1301
" />
<path d="M21.2636 12.1301
L21.1207 12.2015
" />
<path d="M21.1207 12.2015
L21.0493 12.2729
" />
<path d="M21.0493 12.2729
L20.9779 12.4158
" />
<path d="M20.9779 12.4158
L20.9064 12.7015
" />
<path d="M20.9064 12.7015
L20.9064 13.0586
" />
<path d="M20.9064 13.0586
L20.9779 13.3443
" />
<path d="M20.9779 13.3443
L21.0493 13.4872
" />
<path d="M21.0493 13.4872
L21.1207 13.5586
" />
<path d="M21.1207 13.5586
L21.2636 13.6301
" />
<path d="M21.2636 13.6301
L21.4064 13.6301
" />
<path d="M21.4064 13.6301
L21.5493 13.5586
" />
<path d="M21.5493 13.5586
L21.6207 13.4872
" />
<path d="M21.6207 13.4872
L21.6921 13.3443
" />
<path d="M21.6921 13.3443
L21.7636 13.0586
" />
<path d="M21.7636 13.0586
L21.7636 12.7015
" />
<path d="M21.7636 12.7015
L21.6921 12.4158
" />
<path d="M21.6921 12.4158
L21.6207 12.2729
" />
<path d="M21.6207 12.2729
L21.5493 12.2015
" />
<path d="M21.5493 12.2015
L21.4064 12.1301
" />
</g><text x="22.0850" y="16.3017"
transform="scale(-1 1) translate(-44.170000 0)"
textLength="3.5286" font-size="2.0000" lengthAdjust="spacingAndGlyphs"
text-anchor="middle" opacity="0">D5</text>
<g class="stroked-text"><desc>D5</desc>
<path d="M23.1921 16.2301
L23.1921 14.7301
" />
<path d="M23.1921 14.7301
L22.8350 14.7301
" />
<path d="M22.8350 14.7301
L22.6207 14.8015
" />
<path d="M22.6207 14.8015
L22.4779 14.9443
" />
<path d="M22.4779 14.9443
L22.4064 15.0872
" />
<path d="M22.4064 15.0872
L22.3350 15.3729
" />
<path d="M22.3350 15.3729
L22.3350 15.5872
" />
<path d="M22.3350 15.5872
L22.4064 15.8729
" />
<path d="M22.4064 15.8729
L22.4779 16.0158
" />
<path d="M22.4779 16.0158
L22.6207 16.1586
" />
<path d="M22.6207 16.1586
L22.8350 16.2301
" />
<path d="M22.8350 16.2301
L23.1921 16.2301
" />
<path d="M20.9779 14.7301
L21.6921 14.7301
" />
<path d="M21.6921 14.7301
L21.7636 15.4443
" />
<path d="M21.7636 15.4443
L21.6921 15.3729
" />
<path d="M21.6921 15.3729
L21.5493 15.3015
" />
<path d="M21.5493 15.3015
L21.1921 15.3015
" />
<path d="M21.1921 15.3015
L21.0493 15.3729
" />
<path d="M21.0493 15.3729
L20.9779 15.4443
" />
<path d="M20.9779 15.4443
L20.9064 15.5872
" />
<path d="M20.9064 15.5872
L20.9064 15.9443
" />
<path d="M20.9064 15.9443
L20.9779 16.0872
" />
<path d="M20.9779 16.0872
L21.0493 16.1586
" />
<path d="M21.0493 16.1586
L21.1921 16.2301
" />
<path d="M21.1921 16.2301
L21.5493 16.2301
" />
<path d="M21.5493 16.2301
L21.6921 16.1586
" />
<path d="M21.6921 16.1586
L21.7636 16.0872
" />
</g><text x="22.0850" y="18.8017"
transform="scale(-1 1) translate(-44.170000 0)"
textLength="3.5286" font-size="2.0000" lengthAdjust="spacingAndGlyphs"
text-anchor="middle" opacity="0">D6</text>
<g class="stroked-text"><desc>D6</desc>
<path d="M23.1921 18.7301
L23.1921 17.2301
" />
<path d="M23.1921 17.2301
L22.8350 17.2301
" />
<path d="M22.8350 17.2301
L22.6207 17.3015
" />
<path d="M22.6207 17.3015
L22.4779 17.4443
" />
<path d="M22.4779 17.4443
L22.4064 17.5872
" />
<path d="M22.4064 17.5872
L22.3350 17.8729
" />
<path d="M22.3350 17.8729
L22.3350 18.0872
" />
<path d="M22.3350 18.0872
L22.4064 18.3729
" />
<path d="M22.4064 18.3729
L22.4779 18.5158
" />
<path d="M22.4779 18.5158
L22.6207 18.6586
" />
<path d="M22.6207 18.6586
L22.8350 18.7301
" />
<path d="M22.8350 18.7301
L23.1921 18.7301
" />
<path d="M21.0493 17.2301
L21.3350 17.2301
" />
<path d="M21.3350 17.2301
L21.4779 17.3015
" />
<path d="M21.4779 17.3015
L21.5493 17.3729
" />
<path d="M21.5493 17.3729
L21.6921 17.5872
" />
<path d="M21.6921 17.5872
L21.7636 17.8729
" />
<path d="M21.7636 17.8729
L21.7636 18.4443
" />
<path d="M21.7636 18.4443
L21.6921 18.5872
" />
<path d="M21.6921 18.5872
L21.6207 18.6586
" />
<path d="M21.6207 18.6586
L21.4779 18.7301
" />
<path d="M21.4779 18.7301
L21.1921 18.7301
" />
<path d="M21.1921 18.7301
L21.0493 18.6586
" />
<path d="M21.0493 18.6586
L20.9779 18.5872
" />
<path d="M20.9779 18.5872
L20.9064 18.4443
" />
<path d="M20.9064 18.4443
L20.9064 18.0872
" />
<path d="M20.9064 18.0872
L20.9779 17.9443
" />
<path d="M20.9779 17.9443
L21.0493 17.8729
" />
<path d="M21.0493 17.8729
L21.1921 17.8015
" />
<path d="M21.1921 17.8015
L21.4779 17.8015
" />
<path d="M21.4779 17.8015
L21.6207 17.8729
" />
<path d="M21.6207 17.8729
L21.6921 17.9443
" />
<path d="M21.6921 17.9443
L21.7636 18.0872
" />
</g><text x="22.0850" y="21.2017"
transform="scale(-1 1) translate(-44.170000 0)"
textLength="3.5286" font-size="2.0000" lengthAdjust="spacingAndGlyphs"
text-anchor="middle" opacity="0">D7</text>
<g class="stroked-text"><desc>D7</desc>
<path d="M23.1921 21.1301
L23.1921 19.6301
" />
<path d="M23.1921 19.6301
L22.8350 19.6301
" />
<path d="M22.8350 19.6301
L22.6207 19.7015
" />
<path d="M22.6207 19.7015
L22.4779 19.8443
" />
<path d="M22.4779 19.8443
L22.4064 19.9872
" />
<path d="M22.4064 19.9872
L22.3350 20.2729
" />
<path d="M22.3350 20.2729
L22.3350 20.4872
" />
<path d="M22.3350 20.4872
L22.4064 20.7729
" />
<path d="M22.4064 20.7729
L22.4779 20.9158
" />
<path d="M22.4779 20.9158
L22.6207 21.0586
" />
<path d="M22.6207 21.0586
L22.8350 21.1301
" />
<path d="M22.8350 21.1301
L23.1921 21.1301
" />
<path d="M21.8350 19.6301
L20.8350 19.6301
" />
<path d="M20.8350 19.6301
L21.4779 21.1301
" />
</g><text x="22.0850" y="23.8017"
transform="scale(-1 1) translate(-44.170000 0)"
textLength="3.5286" font-size="2.0000" lengthAdjust="spacingAndGlyphs"
text-anchor="middle" opacity="0">D8</text>
<g class="stroked-text"><desc>D8</desc>
<path d="M23.1921 23.7301
L23.1921 22.2301
" />
<path d="M23.1921 22.2301
L22.8350 22.2301
" />
<path d="M22.8350 22.2301
L22.6207 22.3015
" />
<path d="M22.6207 22.3015
L22.4779 22.4443
" />
<path d="M22.4779 22.4443
L22.4064 22.5872
" />
<path d="M22.4064 22.5872
L22.3350 22.8729
" />
<path d="M22.3350 22.8729
L22.3350 23.0872
" />
<path d="M22.3350 23.0872
L22.4064 23.3729
" />
<path d="M22.4064 23.3729
L22.4779 23.5158
" />
<path d="M22.4779 23.5158
L22.6207 23.6586
" />
<path d="M22.6207 23.6586
L22.8350 23.7301
" />
<path d="M22.8350 23.7301
L23.1921 23.7301
" />
<path d="M21.4779 22.8729
L21.6207 22.8015
" />
<path d="M21.6207 22.8015
L21.6921 22.7301
" />
<path d="M21.6921 22.7301
L21.7636 22.5872
" />
<path d="M21.7636 22.5872
L21.7636 22.5158
" />
<path d="M21.7636 22.5158
L21.6921 22.3729
" />
<path d="M21.6921 22.3729
L21.6207 22.3015
" />
<path d="M21.6207 22.3015
L21.4779 22.2301
" />
<path d="M21.4779 22.2301
L21.1921 22.2301
" />
<path d="M21.1921 22.2301
L21.0493 22.3015
" />
<path d="M21.0493 22.3015
L20.9779 22.3729
" />
<path d="M20.9779 22.3729
L20.9064 22.5158
" />
<path d="M20.9064 22.5158
L20.9064 22.5872
" />
<path d="M20.9064 22.5872
L20.9779 22.7301
" />
<path d="M20.9779 22.7301
L21.0493 22.8015
" />
<path d="M21.0493 22.8015
L21.1921 22.8729
" />
<path d="M21.1921 22.8729
L21.4779 22.8729
" />
<path d="M21.4779 22.8729
L21.6207 22.9443
" />
<path d="M21.6207 22.9443
L21.6921 23.0158
" />
<path d="M21.6921 23.0158
L21.7636 23.1586
" />
<path d="M21.7636 23.1586
L21.7636 23.4443
" />
<path d="M21.7636 23.4443
L21.6921 23.5872
" />
<path d="M21.6921 23.5872
L21.6207 23.6586
" />
<path d="M21.6207 23.6586
L21.4779 23.7301
" />
<path d="M21.4779 23.7301
L21.1921 23.7301
" />
<path d="M21.1921 23.7301
L21.0493 23.6586
" />
<path d="M21.0493 23.6586
L20.9779 23.5872
" />
<path d="M20.9779 23.5872
L20.9064 23.4443
" />
<path d="M20.9064 23.4443
L20.9064 23.1586
" />
<path d="M20.9064 23.1586
L20.9779 23.0158
" />
<path d="M20.9779 23.0158
L21.0493 22.9443
" />
<path d="M21.0493 22.9443
L21.1921 22.8729
" />
</g><text x="21.3850" y="26.3017"
transform="scale(-1 1) translate(-42.770000 0)"
textLength="4.7429" font-size="2.0000" lengthAdjust="spacingAndGlyphs"
text-anchor="middle" opacity="0">3V3</text>
<g class="stroked-text"><desc>3V3</desc>
<path d="M23.2421 24.7301
L22.3136 24.7301
" />
<path d="M22.3136 24.7301
L22.8136 25.3015
" />
<path d="M22.8136 25.3015
L22.5993 25.3015
" />
<path d="M22.5993 25.3015
L22.4564 25.3729
" />
<path d="M22.4564 25.3729
L22.3850 25.4443
" />
<path d="M22.3850 25.4443
L22.3136 25.5872
" />
<path d="M22.3136 25.5872
L22.3136 25.9443
" />
<path d="M22.3136 25.9443
L22.3850 26.0872
" />
<path d="M22.3850 26.0872
L22.4564 26.1586
" />
<path d="M22.4564 26.1586
L22.5993 26.2301
" />
<path d="M22.5993 26.2301
L23.0279 26.2301
" />
<path d="M23.0279 26.2301
L23.1707 26.1586
" />
<path d="M23.1707 26.1586
L23.2421 26.0872
" />
<path d="M21.8850 24.7301
L21.3850 26.2301
" />
<path d="M21.3850 26.2301
L20.8850 24.7301
" />
<path d="M20.5279 24.7301
L19.5993 24.7301
" />
<path d="M19.5993 24.7301
L20.0993 25.3015
" />
<path d="M20.0993 25.3015
L19.8850 25.3015
" />
<path d="M19.8850 25.3015
L19.7421 25.3729
" />
<path d="M19.7421 25.3729
L19.6707 25.4443
" />
<path d="M19.6707 25.4443
L19.5993 25.5872
" />
<path d="M19.5993 25.5872
L19.5993 25.9443
" />
<path d="M19.5993 25.9443
L19.6707 26.0872
" />
<path d="M19.6707 26.0872
L19.7421 26.1586
" />
<path d="M19.7421 26.1586
L19.8850 26.2301
" />
<path d="M19.8850 26.2301
L20.3136 26.2301
" />
<path d="M20.3136 26.2301
L20.4564 26.1586
" />
<path d="M20.4564 26.1586
L20.5279 26.0872
" />
</g><g >
</g>
<g >
</g>
<g >
</g>
<g >
</g>
<g >
</g>
<g >
</g>
</g>
<g style="fill:#000000; fill-opacity:0.0; 
stroke:#000000; stroke-width:0.3000; stroke-opacity:1; 
stroke-linecap:round; stroke-linejoin:round;">
</g>
<g style="fill:#000000; fill-opacity:1.0000; 
stroke:#000000; stroke-width:0.0000; stroke-opacity:1; 
stroke-linecap:round; stroke-linejoin:round;">
<circle cx="1.7750" cy="25.6017" r="0.5080" /> 
</g>
<g style="fill:#000000; fill-opacity:1.0000; 
stroke:#000000; stroke-width:0.0212; stroke-opacity:1; 
stroke-linecap:round; stroke-linejoin:round;">
</g>
<g style="fill:#000000; fill-opacity:1.0000; 
stroke:#000000; stroke-width:0.0000; stroke-opacity:1; 
stroke-linecap:round; stroke-linejoin:round;">
<circle cx="1.7750" cy="23.0617" r="0.5080" /> 
</g>
<g style="fill:#000000; fill-opacity:1.0000; 
stroke:#000000; stroke-width:0.0212; stroke-opacity:1; 
stroke-linecap:round; stroke-linejoin:round;">
</g>
<g style="fill:#000000; fill-opacity:1.0000; 
stroke:#000000; stroke-width:0.0000; stroke-opacity:1; 
stroke-linecap:round; stroke-linejoin:round;">
<circle cx="1.7750" cy="20.5217" r="0.5080" /> 
</g>
<g style="fill:#000000; fill-opacity:1.0000; 
stroke:#000000; stroke-width:0.0212; stroke-opacity:1; 
stroke-linecap:round; stroke-linejoin:round;">
</g>
<g style="fill:#000000; fill-opacity:1.0000; 
stroke:#000000; stroke-width:0.0000; stroke-opacity:1; 
stroke-linecap:round; stroke-linejoin:round;">
<circle cx="1.7750" cy="17.9817" r="0.5080" /> 
</g>
<g style="fill:#000000; fill-opacity:1.0000; 
stroke:#000000; stroke-width:0.0212; stroke-opacity:1; 
stroke-linecap:round; stroke-linejoin:round;">
</g>
<g style="fill:#000000; fill-opacity:1.0000; 
stroke:#000000; stroke-width:0.0000; stroke-opacity:1; 
stroke-linecap:round; stroke-linejoin:round;">
<circle cx="1.7750" cy="15.4417" r="0.5080" /> 
</g>
<g style="fill:#000000; fill-opacity:1.0000; 
stroke:#000000; stroke-width:0.0212; stroke-opacity:1; 
stroke-linecap:round; stroke-linejoin:round;">
</g>
<g style="fill:#000000; fill-opacity:1.0000; 
stroke:#000000; stroke-width:0.0000; stroke-opacity:1; 
stroke-linecap:round; stroke-linejoin:round;">
<circle cx="1.7750" cy="12.9017" r="0.5080" /> 
</g>
<g style="fill:#000000; fill-opacity:1.0000; 
stroke:#000000; stroke-width:0.0212; stroke-opacity:1; 
stroke-linecap:round; stroke-linejoin:round;">
</g>
<g style="fill:#000000; fill-opacity:1.0000; 
stroke:#000000; stroke-width:0.0000; stroke-opacity:1; 
stroke-linecap:round; stroke-linejoin:round;">
<circle cx="1.7750" cy="10.3617" r="0.5080" /> 
</g>
<g style="fill:#000000; fill-opacity:1.0000; 
stroke:#000000; stroke-width:0.0212; stroke-opacity:1; 
stroke-linecap:round; stroke-linejoin:round;">
</g>
<g style="fill:#000000; fill-opacity:1.0000; 
stroke:#000000; stroke-width:0.0000; stroke-opacity:1; 
stroke-linecap:round; stroke-linejoin:round;">
<circle cx="1.7750" cy="7.8217" r="0.5080" /> 
</g>
<g style="fill:#000000; fill-opacity:1.0000; 
stroke:#000000; stroke-width:0.0212; stroke-opacity:1; 
stroke-linecap:round; stroke-linejoin:round;">
</g>
<g style="fill:#000000; fill-opacity:1.0000; 
stroke:#000000; stroke-width:0.0000; stroke-opacity:1; 
stroke-linecap:round; stroke-linejoin:round;">
<circle cx="24.6350" cy="25.6017" r="0.5080" /> 
</g>
<g style="fill:#000000; fill-opacity:1.0000; 
stroke:#000000; stroke-width:0.0212; stroke-opacity:1; 
stroke-linecap:round; stroke-linejoin:round;">
</g>
<g style="fill:#000000; fill-opacity:1.0000; 
stroke:#000000; stroke-width:0.0000; stroke-opacity:1; 
stroke-linecap:round; stroke-linejoin:round;">
<circle cx="24.6350" cy="23.0617" r="0.5080" /> 
</g>
<g style="fill:#000000; fill-opacity:1.0000; 
stroke:#000000; stroke-width:0.0212; stroke-opacity:1; 
stroke-linecap:round; stroke-linejoin:round;">
</g>
<g style="fill:#000000; fill-opacity:1.0000; 
stroke:#000000; stroke-width:0.0000; stroke-opacity:1; 
stroke-linecap:round; stroke-linejoin:round;">
<circle cx="24.6350" cy="20.5217" r="0.5080" /> 
</g>
<g style="fill:#000000; fill-opacity:1.0000; 
stroke:#000000; stroke-width:0.0212; stroke-opacity:1; 
stroke-linecap:round; stroke-linejoin:round;">
</g>
<g style="fill:#000000; fill-opacity:1.0000; 
stroke:#000000; stroke-width:0.0000; stroke-opacity:1; 
stroke-linecap:round; stroke-linejoin:round;">
<circle cx="24.6350" cy="17.9817" r="0.5080" /> 
</g>
<g style="fill:#000000; fill-opacity:1.0000; 
stroke:#000000; stroke-width:0.0212; stroke-opacity:1; 
stroke-linecap:round; stroke-linejoin:round;">
</g>
<g style="fill:#000000; fill-opacity:1.0000; 
stroke:#000000; stroke-width:0.0000; stroke-opacity:1; 
stroke-linecap:round; stroke-linejoin:round;">
<circle cx="24.6350" cy="15.4417" r="0.5080" /> 
</g>
<g style="fill:#000000; fill-opacity:1.0000; 
stroke:#000000; stroke-width:0.0212; stroke-opacity:1; 
stroke-linecap:round; stroke-linejoin:round;">
</g>
<g style="fill:#000000; fill-opacity:1.0000; 
stroke:#000000; stroke-width:0.0000; stroke-opacity:1; 
stroke-linecap:round; stroke-linejoin:round;">
<circle cx="24.6350" cy="12.9017" r="0.5080" /> 
</g>
<g style="fill:#000000; fill-opacity:1.0000; 
stroke:#000000; stroke-width:0.0212; stroke-opacity:1; 
stroke-linecap:round; stroke-linejoin:round;">
</g>
<g style="fill:#000000; fill-opacity:1.0000; 
stroke:#000000; stroke-width:0.0000; stroke-opacity:1; 
stroke-linecap:round; stroke-linejoin:round;">
<circle cx="24.6350" cy="10.3617" r="0.5080" /> 
</g>
<g style="fill:#000000; fill-opacity:1.0000; 
stroke:#000000; stroke-width:0.0212; stroke-opacity:1; 
stroke-linecap:round; stroke-linejoin:round;">
</g>
<g style="fill:#000000; fill-opacity:1.0000; 
stroke:#000000; stroke-width:0.0000; stroke-opacity:1; 
stroke-linecap:round; stroke-linejoin:round;">
<circle cx="24.6350" cy="7.8217" r="0.5080" /> 
</g>
<g style="fill:#000000; fill-opacity:1.0000; 
stroke:#000000; stroke-width:0.0212; stroke-opacity:1; 
stroke-linecap:round; stroke-linejoin:round;">
</g>
<g style="fill:#FFFFFF; fill-opacity:1.0000; 
stroke:#FFFFFF; stroke-width:0.0212; stroke-opacity:1; 
stroke-linecap:round; stroke-linejoin:round;">
<g >
</g>
<g >
</g>
<g >
</g>
<g >
</g>
<g >
</g>
<g >
</g>
</g>
<g style="fill:#FFFFFF; fill-opacity:1.0000; 
stroke:#FFFFFF; stroke-width:0.0212; stroke-opacity:1; 
stroke-linecap:round; stroke-linejoin:round;">
<g >
</g>
<g style="fill:#FD0010; fill-opacity:0.4000; 
stroke:#FD0010; stroke-width:0.0212; stroke-opacity:1; 
stroke-linecap:round; stroke-linejoin:round;">
</g>
<g style="fill:#FD0010; fill-opacity:0.4000; 
stroke:#FD0010; stroke-width:0.0000; stroke-opacity:1; 
stroke-linecap:round; stroke-linejoin:round;">
<path style="fill:#FD0010; fill-opacity:0.4000; 
stroke:#FD0010; stroke-width:0.0000; stroke-opacity:1; 
stroke-linecap:round; stroke-linejoin:round;fill-rule:evenodd;"
d="M 2.8750,26.5017
2.8598,26.5783
2.8164,26.6432
2.7515,26.6865
2.6750,26.7017
0.8750,26.7017
0.7985,26.6865
0.7336,26.6432
0.6902,26.5783
0.6750,26.5017
0.6750,24.7017
0.6902,24.6252
0.7336,24.5603
0.7985,24.5170
0.8750,24.5017
2.6750,24.5017
2.7515,24.5170
2.8164,24.5603
2.8598,24.6252
2.8750,24.7017
Z" /> 
<circle cx="1.7750" cy="23.0617" r="1.1000" /> 
<circle cx="1.7750" cy="20.5217" r="1.1000" /> 
<circle cx="1.7750" cy="17.9817" r="1.1000" /> 
<circle cx="1.7750" cy="15.4417" r="1.1000" /> 
<circle cx="1.7750" cy="12.9017" r="1.1000" /> 
<circle cx="1.7750" cy="10.3617" r="1.1000" /> 
<circle cx="1.7750" cy="7.8217" r="1.1000" /> 
</g>
<g >
</g>
<g style="fill:#FD0010; fill-opacity:0.4000; 
stroke:#FD0010; stroke-width:0.0000; stroke-opacity:1; 
stroke-linecap:round; stroke-linejoin:round;">
<path style="fill:#FD0010; fill-opacity:0.4000; 
stroke:#FD0010; stroke-width:0.0000; stroke-opacity:1; 
stroke-linecap:round; stroke-linejoin:round;fill-rule:evenodd;"
d="M 25.7350,26.5017
25.7198,26.5783
25.6764,26.6432
25.6115,26.6865
25.5350,26.7017
23.7350,26.7017
23.6585,26.6865
23.5936,26.6432
23.5502,26.5783
23.5350,26.5017
23.5350,24.7017
23.5502,24.6252
23.5936,24.5603
23.6585,24.5170
23.7350,24.5017
25.5350,24.5017
25.6115,24.5170
25.6764,24.5603
25.7198,24.6252
25.7350,24.7017
Z" /> 
<circle cx="24.6350" cy="23.0617" r="1.1000" /> 
<circle cx="24.6350" cy="20.5217" r="1.1000" /> 
<circle cx="24.6350" cy="17.9817" r="1.1000" /> 
<circle cx="24.6350" cy="15.4417" r="1.1000" /> 
<circle cx="24.6350" cy="12.9017" r="1.1000" /> 
<circle cx="24.6350" cy="10.3617" r="1.1000" /> 
<circle cx="24.6350" cy="7.8217" r="1.1000" /> 
</g>
<g >
</g>
<g >
</g>
<g >
</g>
<g >
</g>
</g>
<g style="fill:#FFFFFF; fill-opacity:1.0000; 
stroke:#FFFFFF; stroke-width:0.0000; stroke-opacity:1; 
stroke-linecap:round; stroke-linejoin:round;">
<g >
</g>
<g style="fill:#B2803A; fill-opacity:1.0000; 
stroke:#B2803A; stroke-width:0.0000; stroke-opacity:1; 
stroke-linecap:round; stroke-linejoin:round;">
<path style="fill:#B2803A; fill-opacity:1.0000; 
stroke:#B2803A; stroke-width:0.0000; stroke-opacity:1; 
stroke-linecap:round; stroke-linejoin:round;fill-rule:evenodd;"
d="M 2.6750,24.7017
2.6750,26.5017
0.8750,26.5017
0.8750,24.7017
Z" /> 
<circle cx="1.7750" cy="23.0617" r="0.9000" /> 
<circle cx="1.7750" cy="20.5217" r="0.9000" /> 
<circle cx="1.7750" cy="17.9817" r="0.9000" /> 
<circle cx="1.7750" cy="15.4417" r="0.9000" /> 
<circle cx="1.7750" cy="12.9017" r="0.9000" /> 
<circle cx="1.7750" cy="10.3617" r="0.9000" /> 
<circle cx="1.7750" cy="7.8217" r="0.9000" /> 
</g>
<g >
</g>
<g style="fill:#B2803A; fill-opacity:1.0000; 
stroke:#B2803A; stroke-width:0.0000; stroke-opacity:1; 
stroke-linecap:round; stroke-linejoin:round;">
<path style="fill:#B2803A; fill-opacity:1.0000; 
stroke:#B2803A; stroke-width:0.0000; stroke-opacity:1; 
stroke-linecap:round; stroke-linejoin:round;fill-rule:evenodd;"
d="M 25.5350,24.7017
25.5350,26.5017
23.7350,26.5017
23.7350,24.7017
Z" /> 
<circle cx="24.6350" cy="23.0617" r="0.9000" /> 
<circle cx="24.6350" cy="20.5217" r="0.9000" /> 
<circle cx="24.6350" cy="17.9817" r="0.9000" /> 
<circle cx="24.6350" cy="15.4417" r="0.9000" /> 
<circle cx="24.6350" cy="12.9017" r="0.9000" /> 
<circle cx="24.6350" cy="10.3617" r="0.9000" /> 
<circle cx="24.6350" cy="7.8217" r="0.9000" /> 
</g>
<g >
</g>
<g >
</g>
<g >
</g>
<g >
</g>
</g>
<g style="fill:#000000; fill-opacity:1.0000; 
stroke:#000000; stroke-width:0.0000; stroke-opacity:1; 
stroke-linecap:round; stroke-linejoin:round;">
<circle cx="1.7750" cy="25.6017" r="0.5080" /> 
</g>
<g style="fill:#000000; fill-opacity:1.0000; 
stroke:#000000; stroke-width:0.0212; stroke-opacity:1; 
stroke-linecap:round; stroke-linejoin:round;">
</g>
<g style="fill:#000000; fill-opacity:1.0000; 
stroke:#000000; stroke-width:0.0000; stroke-opacity:1; 
stroke-linecap:round; stroke-linejoin:round;">
<circle cx="1.7750" cy="23.0617" r="0.5080" /> 
</g>
<g style="fill:#000000; fill-opacity:1.0000; 
stroke:#000000; stroke-width:0.0212; stroke-opacity:1; 
stroke-linecap:round; stroke-linejoin:round;">
</g>
<g style="fill:#000000; fill-opacity:1.0000; 
stroke:#000000; stroke-width:0.0000; stroke-opacity:1; 
stroke-linecap:round; stroke-linejoin:round;">
<circle cx="1.7750" cy="20.5217" r="0.5080" /> 
</g>
<g style="fill:#000000; fill-opacity:1.0000; 
stroke:#000000; stroke-width:0.0212; stroke-opacity:1; 
stroke-linecap:round; stroke-linejoin:round;">
</g>
<g style="fill:#000000; fill-opacity:1.0000; 
stroke:#000000; stroke-width:0.0000; stroke-opacity:1; 
stroke-linecap:round; stroke-linejoin:round;">
<circle cx="1.7750" cy="17.9817" r="0.5080" /> 
</g>
<g style="fill:#000000; fill-opacity:1.0000; 
stroke:#000000; stroke-width:0.0212; stroke-opacity:1; 
stroke-linecap:round; stroke-linejoin:round;">
</g>
<g style="fill:#000000; fill-opacity:1.0000; 
stroke:#000000; stroke-width:0.0000; stroke-opacity:1; 
stroke-linecap:round; stroke-linejoin:round;">
<circle cx="1.7750" cy="15.4417" r="0.5080" /> 
</g>
<g style="fill:#000000; fill-opacity:1.0000; 
stroke:#000000; stroke-width:0.0212; stroke-opacity:1; 
stroke-linecap:round; stroke-linejoin:round;">
</g>
<g style="fill:#000000; fill-opacity:1.0000; 
stroke:#000000; stroke-width:0.0000; stroke-opacity:1; 
stroke-linecap:round; stroke-linejoin:round;">
<circle cx="1.7750" cy="12.9017" r="0.5080" /> 
</g>
<g style="fill:#000000; fill-opacity:1.0000; 
stroke:#000000; stroke-width:0.0212; stroke-opacity:1; 
stroke-linecap:round; stroke-linejoin:round;">
</g>
<g style="fill:#000000; fill-opacity:1.0000; 
stroke:#000000; stroke-width:0.0000; stroke-opacity:1; 
stroke-linecap:round; stroke-linejoin:round;">
<circle cx="1.7750" cy="10.3617" r="0.5080" /> 
</g>
<g style="fill:#000000; fill-opacity:1.0000; 
stroke:#000000; stroke-width:0.0212; stroke-opacity:1; 
stroke-linecap:round; stroke-linejoin:round;">
</g>
<g style="fill:#000000; fill-opacity:1.0000; 
stroke:#000000; stroke-width:0.0000; stroke-opacity:1; 
stroke-linecap:round; stroke-linejoin:round;">
<circle cx="1.7750" cy="7.8217" r="0.5080" /> 
</g>
<g style="fill:#000000; fill-opacity:1.0000; 
stroke:#000000; stroke-width:0.0212; stroke-opacity:1; 
stroke-linecap:round; stroke-linejoin:round;">
</g>
<g style="fill:#000000; fill-opacity:1.0000; 
stroke:#000000; stroke-width:0.0000; stroke-opacity:1; 
stroke-linecap:round; stroke-linejoin:round;">
<circle cx="24.6350" cy="25.6017" r="0.5080" /> 
</g>
<g style="fill:#000000; fill-opacity:1.0000; 
stroke:#000000; stroke-width:0.0212; stroke-opacity:1; 
stroke-linecap:round; stroke-linejoin:round;">
</g>
<g style="fill:#000000; fill-opacity:1.0000; 
stroke:#000000; stroke-width:0.0000; stroke-opacity:1; 
stroke-linecap:round; stroke-linejoin:round;">
<circle cx="24.6350" cy="23.0617" r="0.5080" /> 
</g>
<g style="fill:#000000; fill-opacity:1.0000; 
stroke:#000000; stroke-width:0.0212; stroke-opacity:1; 
stroke-linecap:round; stroke-linejoin:round;">
</g>
<g style="fill:#000000; fill-opacity:1.0000; 
stroke:#000000; stroke-width:0.0000; stroke-opacity:1; 
stroke-linecap:round; stroke-linejoin:round;">
<circle cx="24.6350" cy="20.5217" r="0.5080" /> 
</g>
<g style="fill:#000000; fill-opacity:1.0000; 
stroke:#000000; stroke-width:0.0212; stroke-opacity:1; 
stroke-linecap:round; stroke-linejoin:round;">
</g>
<g style="fill:#000000; fill-opacity:1.0000; 
stroke:#000000; stroke-width:0.0000; stroke-opacity:1; 
stroke-linecap:round; stroke-linejoin:round;">
<circle cx="24.6350" cy="17.9817" r="0.5080" /> 
</g>
<g style="fill:#000000; fill-opacity:1.0000; 
stroke:#000000; stroke-width:0.0212; stroke-opacity:1; 
stroke-linecap:round; stroke-linejoin:round;">
</g>
<g style="fill:#000000; fill-opacity:1.0000; 
stroke:#000000; stroke-width:0.0000; stroke-opacity:1; 
stroke-linecap:round; stroke-linejoin:round;">
<circle cx="24.6350" cy="15.4417" r="0.5080" /> 
</g>
<g style="fill:#000000; fill-opacity:1.0000; 
stroke:#000000; stroke-width:0.0212; stroke-opacity:1; 
stroke-linecap:round; stroke-linejoin:round;">
</g>
<g style="fill:#000000; fill-opacity:1.0000; 
stroke:#000000; stroke-width:0.0000; stroke-opacity:1; 
stroke-linecap:round; stroke-linejoin:round;">
<circle cx="24.6350" cy="12.9017" r="0.5080" /> 
</g>
<g style="fill:#000000; fill-opacity:1.0000; 
stroke:#000000; stroke-width:0.0212; stroke-opacity:1; 
stroke-linecap:round; stroke-linejoin:round;">
</g>
<g style="fill:#000000; fill-opacity:1.0000; 
stroke:#000000; stroke-width:0.0000; stroke-opacity:1; 
stroke-linecap:round; stroke-linejoin:round;">
<circle cx="24.6350" cy="10.3617" r="0.5080" /> 
</g>
<g style="fill:#000000; fill-opacity:1.0000; 
stroke:#000000; stroke-width:0.0212; stroke-opacity:1; 
stroke-linecap:round; stroke-linejoin:round;">
</g>
<g style="fill:#000000; fill-opacity:1.0000; 
stroke:#000000; stroke-width:0.0000; stroke-opacity:1; 
stroke-linecap:round; stroke-linejoin:round;">
<circle cx="24.6350" cy="7.8217" r="0.5080" /> 
</g>
<g style="fill:#000000; fill-opacity:1.0000; 
stroke:#000000; stroke-width:0.0212; stroke-opacity:1; 
stroke-linecap:round; stroke-linejoin:round;">
</g>
<g style="fill:#FFFFFF; fill-opacity:1.0000; 
stroke:#FFFFFF; stroke-width:0.0212; stroke-opacity:1; 
stroke-linecap:round; stroke-linejoin:round;">
<g >
</g>
<g style="fill:#37CBCB; fill-opacity:1.0000; 
stroke:#37CBCB; stroke-width:0.0212; stroke-opacity:1; 
stroke-linecap:round; stroke-linejoin:round;">
</g>
<g style="fill:#37CBCB; fill-opacity:1.0000; 
stroke:#37CBCB; stroke-width:0.0000; stroke-opacity:1; 
stroke-linecap:round; stroke-linejoin:round;">
<path style="fill:#37CBCB; fill-opacity:1.0000; 
stroke:#37CBCB; stroke-width:0.0000; stroke-opacity:1; 
stroke-linecap:round; stroke-linejoin:round;fill-rule:evenodd;"
d="M 2.6750,24.7017
2.6750,26.5017
0.8750,26.5017
0.8750,24.7017
Z" /> 
<circle cx="1.7750" cy="23.0617" r="0.9000" /> 
<circle cx="1.7750" cy="20.5217" r="0.9000" /> 
<circle cx="1.7750" cy="17.9817" r="0.9000" /> 
<circle cx="1.7750" cy="15.4417" r="0.9000" /> 
<circle cx="1.7750" cy="12.9017" r="0.9000" /> 
<circle cx="1.7750" cy="10.3617" r="0.9000" /> 
<circle cx="1.7750" cy="7.8217" r="0.9000" /> 
</g>
<g >
</g>
<g style="fill:#37CBCB; fill-opacity:1.0000; 
stroke:#37CBCB; stroke-width:0.0000; stroke-opacity:1; 
stroke-linecap:round; stroke-linejoin:round;">
<path style="fill:#37CBCB; fill-opacity:1.0000; 
stroke:#37CBCB; stroke-width:0.0000; stroke-opacity:1; 
stroke-linecap:round; stroke-linejoin:round;fill-rule:evenodd;"
d="M 25.5350,24.7017
25.5350,26.5017
23.7350,26.5017
23.7350,24.7017
Z" /> 
<circle cx="24.6350" cy="23.0617" r="0.9000" /> 
<circle cx="24.6350" cy="20.5217" r="0.9000" /> 
<circle cx="24.6350" cy="17.9817" r="0.9000" /> 
<circle cx="24.6350" cy="15.4417" r="0.9000" /> 
<circle cx="24.6350" cy="12.9017" r="0.9000" /> 
<circle cx="24.6350" cy="10.3617" r="0.9000" /> 
<circle cx="24.6350" cy="7.8217" r="0.9000" /> 
</g>
<g >
</g>
<g >
</g>
<g >
</g>
<g >
</g>
</g>
<g style="fill:#000000; fill-opacity:1.0000; 
stroke:#000000; stroke-width:0.0000; stroke-opacity:1; 
stroke-linecap:round; stroke-linejoin:round;">
<circle cx="1.7750" cy="25.6017" r="0.5080" /> 
</g>
<g style="fill:#000000; fill-opacity:1.0000; 
stroke:#000000; stroke-width:0.0212; stroke-opacity:1; 
stroke-linecap:round; stroke-linejoin:round;">
</g>
<g style="fill:#000000; fill-opacity:1.0000; 
stroke:#000000; stroke-width:0.0000; stroke-opacity:1; 
stroke-linecap:round; stroke-linejoin:round;">
<circle cx="1.7750" cy="23.0617" r="0.5080" /> 
</g>
<g style="fill:#000000; fill-opacity:1.0000; 
stroke:#000000; stroke-width:0.0212; stroke-opacity:1; 
stroke-linecap:round; stroke-linejoin:round;">
</g>
<g style="fill:#000000; fill-opacity:1.0000; 
stroke:#000000; stroke-width:0.0000; stroke-opacity:1; 
stroke-linecap:round; stroke-linejoin:round;">
<circle cx="1.7750" cy="20.5217" r="0.5080" /> 
</g>
<g style="fill:#000000; fill-opacity:1.0000; 
stroke:#000000; stroke-width:0.0212; stroke-opacity:1; 
stroke-linecap:round; stroke-linejoin:round;">
</g>
<g style="fill:#000000; fill-opacity:1.0000; 
stroke:#000000; stroke-width:0.0000; stroke-opacity:1; 
stroke-linecap:round; stroke-linejoin:round;">
<circle cx="1.7750" cy="17.9817" r="0.5080" /> 
</g>
<g style="fill:#000000; fill-opacity:1.0000; 
stroke:#000000; stroke-width:0.0212; stroke-opacity:1; 
stroke-linecap:round; stroke-linejoin:round;">
</g>
<g style="fill:#000000; fill-opacity:1.0000; 
stroke:#000000; stroke-width:0.0000; stroke-opacity:1; 
stroke-linecap:round; stroke-linejoin:round;">
<circle cx="1.7750" cy="15.4417" r="0.5080" /> 
</g>
<g style="fill:#000000; fill-opacity:1.0000; 
stroke:#000000; stroke-width:0.0212; stroke-opacity:1; 
stroke-linecap:round; stroke-linejoin:round;">
</g>
<g style="fill:#000000; fill-opacity:1.0000; 
stroke:#000000; stroke-width:0.0000; stroke-opacity:1; 
stroke-linecap:round; stroke-linejoin:round;">
<circle cx="1.7750" cy="12.9017" r="0.5080" /> 
</g>
<g style="fill:#000000; fill-opacity:1.0000; 
stroke:#000000; stroke-width:0.0212; stroke-opacity:1; 
stroke-linecap:round; stroke-linejoin:round;">
</g>
<g style="fill:#000000; fill-opacity:1.0000; 
stroke:#000000; stroke-width:0.0000; stroke-opacity:1; 
stroke-linecap:round; stroke-linejoin:round;">
<circle cx="1.7750" cy="10.3617" r="0.5080" /> 
</g>
<g style="fill:#000000; fill-opacity:1.0000; 
stroke:#000000; stroke-width:0.0212; stroke-opacity:1; 
stroke-linecap:round; stroke-linejoin:round;">
</g>
<g style="fill:#000000; fill-opacity:1.0000; 
stroke:#000000; stroke-width:0.0000; stroke-opacity:1; 
stroke-linecap:round; stroke-linejoin:round;">
<circle cx="1.7750" cy="7.8217" r="0.5080" /> 
</g>
<g style="fill:#000000; fill-opacity:1.0000; 
stroke:#000000; stroke-width:0.0212; stroke-opacity:1; 
stroke-linecap:round; stroke-linejoin:round;">
</g>
<g style="fill:#000000; fill-opacity:1.0000; 
stroke:#000000; stroke-width:0.0000; stroke-opacity:1; 
stroke-linecap:round; stroke-linejoin:round;">
<circle cx="24.6350" cy="25.6017" r="0.5080" /> 
</g>
<g style="fill:#000000; fill-opacity:1.0000; 
stroke:#000000; stroke-width:0.0212; stroke-opacity:1; 
stroke-linecap:round; stroke-linejoin:round;">
</g>
<g style="fill:#000000; fill-opacity:1.0000; 
stroke:#000000; stroke-width:0.0000; stroke-opacity:1; 
stroke-linecap:round; stroke-linejoin:round;">
<circle cx="24.6350" cy="23.0617" r="0.5080" /> 
</g>
<g style="fill:#000000; fill-opacity:1.0000; 
stroke:#000000; stroke-width:0.0212; stroke-opacity:1; 
stroke-linecap:round; stroke-linejoin:round;">
</g>
<g style="fill:#000000; fill-opacity:1.0000; 
stroke:#000000; stroke-width:0.0000; stroke-opacity:1; 
stroke-linecap:round; stroke-linejoin:round;">
<circle cx="24.6350" cy="20.5217" r="0.5080" /> 
</g>
<g style="fill:#000000; fill-opacity:1.0000; 
stroke:#000000; stroke-width:0.0212; stroke-opacity:1; 
stroke-linecap:round; stroke-linejoin:round;">
</g>
<g style="fill:#000000; fill-opacity:1.0000; 
stroke:#000000; stroke-width:0.0000; stroke-opacity:1; 
stroke-linecap:round; stroke-linejoin:round;">
<circle cx="24.6350" cy="17.9817" r="0.5080" /> 
</g>
<g style="fill:#000000; fill-opacity:1.0000; 
stroke:#000000; stroke-width:0.0212; stroke-opacity:1; 
stroke-linecap:round; stroke-linejoin:round;">
</g>
<g style="fill:#000000; fill-opacity:1.0000; 
stroke:#000000; stroke-width:0.0000; stroke-opacity:1; 
stroke-linecap:round; stroke-linejoin:round;">
<circle cx="24.6350" cy="15.4417" r="0.5080" /> 
</g>
<g style="fill:#000000; fill-opacity:1.0000; 
stroke:#000000; stroke-width:0.0212; stroke-opacity:1; 
stroke-linecap:round; stroke-linejoin:round;">
</g>
<g style="fill:#000000; fill-opacity:1.0000; 
stroke:#000000; stroke-width:0.0000; stroke-opacity:1; 
stroke-linecap:round; stroke-linejoin:round;">
<circle cx="24.6350" cy="12.9017" r="0.5080" /> 
</g>
<g style="fill:#000000; fill-opacity:1.0000; 
stroke:#000000; stroke-width:0.0212; stroke-opacity:1; 
stroke-linecap:round; stroke-linejoin:round;">
</g>
<g style="fill:#000000; fill-opacity:1.0000; 
stroke:#000000; stroke-width:0.0000; stroke-opacity:1; 
stroke-linecap:round; stroke-linejoin:round;">
<circle cx="24.6350" cy="10.3617" r="0.5080" /> 
</g>
<g style="fill:#000000; fill-opacity:1.0000; 
stroke:#000000; stroke-width:0.0212; stroke-opacity:1; 
stroke-linecap:round; stroke-linejoin:round;">
</g>
<g style="fill:#000000; fill-opacity:1.0000; 
stroke:#000000; stroke-width:0.0000; stroke-opacity:1; 
stroke-linecap:round; stroke-linejoin:round;">
<circle cx="24.6350" cy="7.8217" r="0.5080" /> 
</g>
<g style="fill:#000000; fill-opacity:1.0000; 
stroke:#000000; stroke-width:0.0212; stroke-opacity:1; 
stroke-linecap:round; stroke-linejoin:round;">
</g>
<g style="fill:#FFFFFF; fill-opacity:1.0000; 
stroke:#FFFFFF; stroke-width:0.0212; stroke-opacity:1; 
stroke-linecap:round; stroke-linejoin:round;">
<g >
</g>
<g style="fill:#279B00; fill-opacity:0.4000; 
stroke:#279B00; stroke-width:0.0212; stroke-opacity:1; 
stroke-linecap:round; stroke-linejoin:round;">
</g>
<g style="fill:#279B00; fill-opacity:0.4000; 
stroke:#279B00; stroke-width:0.0000; stroke-opacity:1; 
stroke-linecap:round; stroke-linejoin:round;">
<path style="fill:#279B00; fill-opacity:0.4000; 
stroke:#279B00; stroke-width:0.0000; stroke-opacity:1; 
stroke-linecap:round; stroke-linejoin:round;fill-rule:evenodd;"
d="M 2.8750,26.5017
2.8598,26.5783
2.8164,26.6432
2.7515,26.6865
2.6750,26.7017
0.8750,26.7017
0.7985,26.6865
0.7336,26.6432
0.6902,26.5783
0.6750,26.5017
0.6750,24.7017
0.6902,24.6252
0.7336,24.5603
0.7985,24.5170
0.8750,24.5017
2.6750,24.5017
2.7515,24.5170
2.8164,24.5603
2.8598,24.6252
2.8750,24.7017
Z" /> 
<circle cx="1.7750" cy="23.0617" r="1.1000" /> 
<circle cx="1.7750" cy="20.5217" r="1.1000" /> 
<circle cx="1.7750" cy="17.9817" r="1.1000" /> 
<circle cx="1.7750" cy="15.4417" r="1.1000" /> 
<circle cx="1.7750" cy="12.9017" r="1.1000" /> 
<circle cx="1.7750" cy="10.3617" r="1.1000" /> 
<circle cx="1.7750" cy="7.8217" r="1.1000" /> 
</g>
<g >
</g>
<g style="fill:#279B00; fill-opacity:0.4000; 
stroke:#279B00; stroke-width:0.0000; stroke-opacity:1; 
stroke-linecap:round; stroke-linejoin:round;">
<path style="fill:#279B00; fill-opacity:0.4000; 
stroke:#279B00; stroke-width:0.0000; stroke-opacity:1; 
stroke-linecap:round; stroke-linejoin:round;fill-rule:evenodd;"
d="M 25.7350,26.5017
25.7198,26.5783
25.6764,26.6432
25.6115,26.6865
25.5350,26.7017
23.7350,26.7017
23.6585,26.6865
23.5936,26.6432
23.5502,26.5783
23.5350,26.5017
23.5350,24.7017
23.5502,24.6252
23.5936,24.5603
23.6585,24.5170
23.7350,24.5017
25.5350,24.5017
25.6115,24.5170
25.6764,24.5603
25.7198,24.6252
25.7350,24.7017
Z" /> 
<circle cx="24.6350" cy="23.0617" r="1.1000" /> 
<circle cx="24.6350" cy="20.5217" r="1.1000" /> 
<circle cx="24.6350" cy="17.9817" r="1.1000" /> 
<circle cx="24.6350" cy="15.4417" r="1.1000" /> 
<circle cx="24.6350" cy="12.9017" r="1.1000" /> 
<circle cx="24.6350" cy="10.3617" r="1.1000" /> 
<circle cx="24.6350" cy="7.8217" r="1.1000" /> 
</g>
<g >
</g>
<g >
</g>
<g >
</g>
<g >
</g>
</g>
<g style="fill:#FFFFFF; fill-opacity:1.0000; 
stroke:#FFFFFF; stroke-width:0.0000; stroke-opacity:1; 
stroke-linecap:round; stroke-linejoin:round;">
<g >
</g>
<g >
</g>
<g >
</g>
<g >
</g>
<g >
</g>
<g >
</g>
</g>
<g style="fill:#FFFFFF; fill-opacity:1.0000; 
stroke:#FFFFFF; stroke-width:0.0000; stroke-opacity:1; 
stroke-linecap:round; stroke-linejoin:round;">
</g>
<g style="fill:#0D115E; fill-opacity:1.0000; 
stroke:#0D115E; stroke-width:0.0000; stroke-opacity:1; 
stroke-linecap:round; stroke-linejoin:round;">
</g>
<g style="fill:#0D115E; fill-opacity:1.0000; 
stroke:#0D115E; stroke-width:0.3000; stroke-opacity:1; 
stroke-linecap:round; stroke-linejoin:round;">
</g>
<g style="fill:#0D115E; fill-opacity:0.0; 
stroke:#0D115E; stroke-width:0.3000; stroke-opacity:1; 
stroke-linecap:round; stroke-linejoin:round;">
<text x="22.0850" y="21.2017"
textLength="3.5286" font-size="2.0000" lengthAdjust="spacingAndGlyphs"
text-anchor="middle" opacity="0">D7</text>
<g class="stroked-text"><desc>D7</desc>
<path d="M20.9779 21.1301
L20.9779 19.6301
" />
<path d="M20.9779 19.6301
L21.3350 19.6301
" />
<path d="M21.3350 19.6301
L21.5493 19.7015
" />
<path d="M21.5493 19.7015
L21.6921 19.8443
" />
<path d="M21.6921 19.8443
L21.7636 19.9872
" />
<path d="M21.7636 19.9872
L21.8350 20.2729
" />
<path d="M21.8350 20.2729
L21.8350 20.4872
" />
<path d="M21.8350 20.4872
L21.7636 20.7729
" />
<path d="M21.7636 20.7729
L21.6921 20.9158
" />
<path d="M21.6921 20.9158
L21.5493 21.0586
" />
<path d="M21.5493 21.0586
L21.3350 21.1301
" />
<path d="M21.3350 21.1301
L20.9779 21.1301
" />
<path d="M22.3350 19.6301
L23.3350 19.6301
" />
<path d="M23.3350 19.6301
L22.6921 21.1301
" />
</g><text x="21.3850" y="26.3017"
textLength="4.7429" font-size="2.0000" lengthAdjust="spacingAndGlyphs"
text-anchor="middle" opacity="0">3V3</text>
<g class="stroked-text"><desc>3V3</desc>
<path d="M19.5279 24.7301
L20.4564 24.7301
" />
<path d="M20.4564 24.7301
L19.9564 25.3015
" />
<path d="M19.9564 25.3015
L20.1707 25.3015
" />
<path d="M20.1707 25.3015
L20.3136 25.3729
" />
<path d="M20.3136 25.3729
L20.3850 25.4443
" />
<path d="M20.3850 25.4443
L20.4564 25.5872
" />
<path d="M20.4564 25.5872
L20.4564 25.9443
" />
<path d="M20.4564 25.9443
L20.3850 26.0872
" />
<path d="M20.3850 26.0872
L20.3136 26.1586
" />
<path d="M20.3136 26.1586
L20.1707 26.2301
" />
<path d="M20.1707 26.2301
L19.7421 26.2301
" />
<path d="M19.7421 26.2301
L19.5993 26.1586
" />
<path d="M19.5993 26.1586
L19.5279 26.0872
" />
<path d="M20.8850 24.7301
L21.3850 26.2301
" />
<path d="M21.3850 26.2301
L21.8850 24.7301
" />
<path d="M22.2421 24.7301
L23.1707 24.7301
" />
<path d="M23.1707 24.7301
L22.6707 25.3015
" />
<path d="M22.6707 25.3015
L22.8850 25.3015
" />
<path d="M22.8850 25.3015
L23.0279 25.3729
" />
<path d="M23.0279 25.3729
L23.0993 25.4443
" />
<path d="M23.0993 25.4443
L23.1707 25.5872
" />
<path d="M23.1707 25.5872
L23.1707 25.9443
" />
<path d="M23.1707 25.9443
L23.0993 26.0872
" />
<path d="M23.0993 26.0872
L23.0279 26.1586
" />
<path d="M23.0279 26.1586
L22.8850 26.2301
" />
<path d="M22.8850 26.2301
L22.4564 26.2301
" />
<path d="M22.4564 26.2301
L22.3136 26.1586
" />
<path d="M22.3136 26.1586
L22.2421 26.0872
" />
</g><text x="4.2850" y="18.8017"
textLength="3.5286" font-size="2.0000" lengthAdjust="spacingAndGlyphs"
text-anchor="middle" opacity="0">D3</text>
<g class="stroked-text"><desc>D3</desc>
<path d="M3.1779 18.7301
L3.1779 17.2301
" />
<path d="M3.1779 17.2301
L3.5350 17.2301
" />
<path d="M3.5350 17.2301
L3.7493 17.3015
" />
<path d="M3.7493 17.3015
L3.8921 17.4443
" />
<path d="M3.8921 17.4443
L3.9636 17.5872
" />
<path d="M3.9636 17.5872
L4.0350 17.8729
" />
<path d="M4.0350 17.8729
L4.0350 18.0872
" />
<path d="M4.0350 18.0872
L3.9636 18.3729
" />
<path d="M3.9636 18.3729
L3.8921 18.5158
" />
<path d="M3.8921 18.5158
L3.7493 18.6586
" />
<path d="M3.7493 18.6586
L3.5350 18.7301
" />
<path d="M3.5350 18.7301
L3.1779 18.7301
" />
<path d="M4.5350 17.2301
L5.4636 17.2301
" />
<path d="M5.4636 17.2301
L4.9636 17.8015
" />
<path d="M4.9636 17.8015
L5.1779 17.8015
" />
<path d="M5.1779 17.8015
L5.3207 17.8729
" />
<path d="M5.3207 17.8729
L5.3921 17.9443
" />
<path d="M5.3921 17.9443
L5.4636 18.0872
" />
<path d="M5.4636 18.0872
L5.4636 18.4443
" />
<path d="M5.4636 18.4443
L5.3921 18.5872
" />
<path d="M5.3921 18.5872
L5.3207 18.6586
" />
<path d="M5.3207 18.6586
L5.1779 18.7301
" />
<path d="M5.1779 18.7301
L4.7493 18.7301
" />
<path d="M4.7493 18.7301
L4.6064 18.6586
" />
<path d="M4.6064 18.6586
L4.5350 18.5872
" />
</g><text x="22.0850" y="18.8017"
textLength="3.5286" font-size="2.0000" lengthAdjust="spacingAndGlyphs"
text-anchor="middle" opacity="0">D6</text>
<g class="stroked-text"><desc>D6</desc>
<path d="M20.9779 18.7301
L20.9779 17.2301
" />
<path d="M20.9779 17.2301
L21.3350 17.2301
" />
<path d="M21.3350 17.2301
L21.5493 17.3015
" />
<path d="M21.5493 17.3015
L21.6921 17.4443
" />
<path d="M21.6921 17.4443
L21.7636 17.5872
" />
<path d="M21.7636 17.5872
L21.8350 17.8729
" />
<path d="M21.8350 17.8729
L21.8350 18.0872
" />
<path d="M21.8350 18.0872
L21.7636 18.3729
" />
<path d="M21.7636 18.3729
L21.6921 18.5158
" />
<path d="M21.6921 18.5158
L21.5493 18.6586
" />
<path d="M21.5493 18.6586
L21.3350 18.7301
" />
<path d="M21.3350 18.7301
L20.9779 18.7301
" />
<path d="M23.1207 17.2301
L22.8350 17.2301
" />
<path d="M22.8350 17.2301
L22.6921 17.3015
" />
<path d="M22.6921 17.3015
L22.6207 17.3729
" />
<path d="M22.6207 17.3729
L22.4779 17.5872
" />
<path d="M22.4779 17.5872
L22.4064 17.8729
" />
<path d="M22.4064 17.8729
L22.4064 18.4443
" />
<path d="M22.4064 18.4443
L22.4779 18.5872
" />
<path d="M22.4779 18.5872
L22.5493 18.6586
" />
<path d="M22.5493 18.6586
L22.6921 18.7301
" />
<path d="M22.6921 18.7301
L22.9779 18.7301
" />
<path d="M22.9779 18.7301
L23.1207 18.6586
" />
<path d="M23.1207 18.6586
L23.1921 18.5872
" />
<path d="M23.1921 18.5872
L23.2636 18.4443
" />
<path d="M23.2636 18.4443
L23.2636 18.0872
" />
<path d="M23.2636 18.0872
L23.1921 17.9443
" />
<path d="M23.1921 17.9443
L23.1207 17.8729
" />
<path d="M23.1207 17.8729
L22.9779 17.8015
" />
<path d="M22.9779 17.8015
L22.6921 17.8015
" />
<path d="M22.6921 17.8015
L22.5493 17.8729
" />
<path d="M22.5493 17.8729
L22.4779 17.9443
" />
<path d="M22.4779 17.9443
L22.4064 18.0872
" />
</g><text x="4.1850" y="26.4017"
textLength="3.3143" font-size="2.0000" lengthAdjust="spacingAndGlyphs"
text-anchor="middle" opacity="0">5V</text>
<g class="stroked-text"><desc>5V</desc>
<path d="M3.8993 24.8301
L3.1850 24.8301
" />
<path d="M3.1850 24.8301
L3.1136 25.5443
" />
<path d="M3.1136 25.5443
L3.1850 25.4729
" />
<path d="M3.1850 25.4729
L3.3279 25.4015
" />
<path d="M3.3279 25.4015
L3.6850 25.4015
" />
<path d="M3.6850 25.4015
L3.8279 25.4729
" />
<path d="M3.8279 25.4729
L3.8993 25.5443
" />
<path d="M3.8993 25.5443
L3.9707 25.6872
" />
<path d="M3.9707 25.6872
L3.9707 26.0443
" />
<path d="M3.9707 26.0443
L3.8993 26.1872
" />
<path d="M3.8993 26.1872
L3.8279 26.2586
" />
<path d="M3.8279 26.2586
L3.6850 26.3301
" />
<path d="M3.6850 26.3301
L3.3279 26.3301
" />
<path d="M3.3279 26.3301
L3.1850 26.2586
" />
<path d="M3.1850 26.2586
L3.1136 26.1872
" />
<path d="M4.3993 24.8301
L4.8993 26.3301
" />
<path d="M4.8993 26.3301
L5.3993 24.8301
" />
</g><text x="22.0850" y="11.1017"
textLength="3.3143" font-size="2.0000" lengthAdjust="spacingAndGlyphs"
text-anchor="middle" opacity="0">A0</text>
<g class="stroked-text"><desc>A0</desc>
<path d="M21.0136 10.6015
L21.7279 10.6015
" />
<path d="M20.8707 11.0301
L21.3707 9.5301
" />
<path d="M21.3707 9.5301
L21.8707 11.0301
" />
<path d="M22.6564 9.5301
L22.7993 9.5301
" />
<path d="M22.7993 9.5301
L22.9421 9.6015
" />
<path d="M22.9421 9.6015
L23.0136 9.6729
" />
<path d="M23.0136 9.6729
L23.0850 9.8158
" />
<path d="M23.0850 9.8158
L23.1564 10.1015
" />
<path d="M23.1564 10.1015
L23.1564 10.4586
" />
<path d="M23.1564 10.4586
L23.0850 10.7443
" />
<path d="M23.0850 10.7443
L23.0136 10.8872
" />
<path d="M23.0136 10.8872
L22.9421 10.9586
" />
<path d="M22.9421 10.9586
L22.7993 11.0301
" />
<path d="M22.7993 11.0301
L22.6564 11.0301
" />
<path d="M22.6564 11.0301
L22.5136 10.9586
" />
<path d="M22.5136 10.9586
L22.4421 10.8872
" />
<path d="M22.4421 10.8872
L22.3707 10.7443
" />
<path d="M22.3707 10.7443
L22.2993 10.4586
" />
<path d="M22.2993 10.4586
L22.2993 10.1015
" />
<path d="M22.2993 10.1015
L22.3707 9.8158
" />
<path d="M22.3707 9.8158
L22.4421 9.6729
" />
<path d="M22.4421 9.6729
L22.5136 9.6015
" />
<path d="M22.5136 9.6015
L22.6564 9.5301
" />
</g><text x="4.2850" y="13.6017"
textLength="3.5286" font-size="2.0000" lengthAdjust="spacingAndGlyphs"
text-anchor="middle" opacity="0">D1</text>
<g class="stroked-text"><desc>D1</desc>
<path d="M3.1779 13.5301
L3.1779 12.0301
" />
<path d="M3.1779 12.0301
L3.5350 12.0301
" />
<path d="M3.5350 12.0301
L3.7493 12.1015
" />
<path d="M3.7493 12.1015
L3.8921 12.2443
" />
<path d="M3.8921 12.2443
L3.9636 12.3872
" />
<path d="M3.9636 12.3872
L4.0350 12.6729
" />
<path d="M4.0350 12.6729
L4.0350 12.8872
" />
<path d="M4.0350 12.8872
L3.9636 13.1729
" />
<path d="M3.9636 13.1729
L3.8921 13.3158
" />
<path d="M3.8921 13.3158
L3.7493 13.4586
" />
<path d="M3.7493 13.4586
L3.5350 13.5301
" />
<path d="M3.5350 13.5301
L3.1779 13.5301
" />
<path d="M5.4636 13.5301
L4.6064 13.5301
" />
<path d="M5.0350 13.5301
L5.0350 12.0301
" />
<path d="M5.0350 12.0301
L4.8921 12.2443
" />
<path d="M4.8921 12.2443
L4.7493 12.3872
" />
<path d="M4.7493 12.3872
L4.6064 12.4586
" />
</g><text x="3.6850" y="23.9017"
textLength="2.1000" font-size="2.0000" lengthAdjust="spacingAndGlyphs"
text-anchor="middle" opacity="0">G</text>
<g class="stroked-text"><desc>G</desc>
<path d="M4.0779 22.4015
L3.9350 22.3301
" />
<path d="M3.9350 22.3301
L3.7207 22.3301
" />
<path d="M3.7207 22.3301
L3.5064 22.4015
" />
<path d="M3.5064 22.4015
L3.3636 22.5443
" />
<path d="M3.3636 22.5443
L3.2921 22.6872
" />
<path d="M3.2921 22.6872
L3.2207 22.9729
" />
<path d="M3.2207 22.9729
L3.2207 23.1872
" />
<path d="M3.2207 23.1872
L3.2921 23.4729
" />
<path d="M3.2921 23.4729
L3.3636 23.6158
" />
<path d="M3.3636 23.6158
L3.5064 23.7586
" />
<path d="M3.5064 23.7586
L3.7207 23.8301
" />
<path d="M3.7207 23.8301
L3.8636 23.8301
" />
<path d="M3.8636 23.8301
L4.0779 23.7586
" />
<path d="M4.0779 23.7586
L4.1493 23.6872
" />
<path d="M4.1493 23.6872
L4.1493 23.1872
" />
<path d="M4.1493 23.1872
L3.8636 23.1872
" />
</g><text x="4.0850" y="8.6017"
textLength="3.1714" font-size="2.0000" lengthAdjust="spacingAndGlyphs"
text-anchor="middle" opacity="0">TX</text>
<g class="stroked-text"><desc>TX</desc>
<path d="M2.9421 7.0301
L3.7993 7.0301
" />
<path d="M3.3707 8.5301
L3.3707 7.0301
" />
<path d="M4.1564 7.0301
L5.1564 8.5301
" />
<path d="M5.1564 7.0301
L4.1564 8.5301
" />
</g><text x="22.0850" y="13.7017"
textLength="3.5286" font-size="2.0000" lengthAdjust="spacingAndGlyphs"
text-anchor="middle" opacity="0">D0</text>
<g class="stroked-text"><desc>D0</desc>
<path d="M20.9779 13.6301
L20.9779 12.1301
" />
<path d="M20.9779 12.1301
L21.3350 12.1301
" />
<path d="M21.3350 12.1301
L21.5493 12.2015
" />
<path d="M21.5493 12.2015
L21.6921 12.3443
" />
<path d="M21.6921 12.3443
L21.7636 12.4872
" />
<path d="M21.7636 12.4872
L21.8350 12.7729
" />
<path d="M21.8350 12.7729
L21.8350 12.9872
" />
<path d="M21.8350 12.9872
L21.7636 13.2729
" />
<path d="M21.7636 13.2729
L21.6921 13.4158
" />
<path d="M21.6921 13.4158
L21.5493 13.5586
" />
<path d="M21.5493 13.5586
L21.3350 13.6301
" />
<path d="M21.3350 13.6301
L20.9779 13.6301
" />
<path d="M22.7636 12.1301
L22.9064 12.1301
" />
<path d="M22.9064 12.1301
L23.0493 12.2015
" />
<path d="M23.0493 12.2015
L23.1207 12.2729
" />
<path d="M23.1207 12.2729
L23.1921 12.4158
" />
<path d="M23.1921 12.4158
L23.2636 12.7015
" />
<path d="M23.2636 12.7015
L23.2636 13.0586
" />
<path d="M23.2636 13.0586
L23.1921 13.3443
" />
<path d="M23.1921 13.3443
L23.1207 13.4872
" />
<path d="M23.1207 13.4872
L23.0493 13.5586
" />
<path d="M23.0493 13.5586
L22.9064 13.6301
" />
<path d="M22.9064 13.6301
L22.7636 13.6301
" />
<path d="M22.7636 13.6301
L22.6207 13.5586
" />
<path d="M22.6207 13.5586
L22.5493 13.4872
" />
<path d="M22.5493 13.4872
L22.4779 13.3443
" />
<path d="M22.4779 13.3443
L22.4064 13.0586
" />
<path d="M22.4064 13.0586
L22.4064 12.7015
" />
<path d="M22.4064 12.7015
L22.4779 12.4158
" />
<path d="M22.4779 12.4158
L22.5493 12.2729
" />
<path d="M22.5493 12.2729
L22.6207 12.2015
" />
<path d="M22.6207 12.2015
L22.7636 12.1301
" />
</g><text x="4.2850" y="16.2017"
textLength="3.5286" font-size="2.0000" lengthAdjust="spacingAndGlyphs"
text-anchor="middle" opacity="0">D2</text>
<g class="stroked-text"><desc>D2</desc>
<path d="M3.1779 16.1301
L3.1779 14.6301
" />
<path d="M3.1779 14.6301
L3.5350 14.6301
" />
<path d="M3.5350 14.6301
L3.7493 14.7015
" />
<path d="M3.7493 14.7015
L3.8921 14.8443
" />
<path d="M3.8921 14.8443
L3.9636 14.9872
" />
<path d="M3.9636 14.9872
L4.0350 15.2729
" />
<path d="M4.0350 15.2729
L4.0350 15.4872
" />
<path d="M4.0350 15.4872
L3.9636 15.7729
" />
<path d="M3.9636 15.7729
L3.8921 15.9158
" />
<path d="M3.8921 15.9158
L3.7493 16.0586
" />
<path d="M3.7493 16.0586
L3.5350 16.1301
" />
<path d="M3.5350 16.1301
L3.1779 16.1301
" />
<path d="M4.6064 14.7729
L4.6779 14.7015
" />
<path d="M4.6779 14.7015
L4.8207 14.6301
" />
<path d="M4.8207 14.6301
L5.1779 14.6301
" />
<path d="M5.1779 14.6301
L5.3207 14.7015
" />
<path d="M5.3207 14.7015
L5.3921 14.7729
" />
<path d="M5.3921 14.7729
L5.4636 14.9158
" />
<path d="M5.4636 14.9158
L5.4636 15.0586
" />
<path d="M5.4636 15.0586
L5.3921 15.2729
" />
<path d="M5.3921 15.2729
L4.5350 16.1301
" />
<path d="M4.5350 16.1301
L5.4636 16.1301
" />
</g><text x="4.2850" y="21.4017"
textLength="3.5286" font-size="2.0000" lengthAdjust="spacingAndGlyphs"
text-anchor="middle" opacity="0">D4</text>
<g class="stroked-text"><desc>D4</desc>
<path d="M3.1779 21.3301
L3.1779 19.8301
" />
<path d="M3.1779 19.8301
L3.5350 19.8301
" />
<path d="M3.5350 19.8301
L3.7493 19.9015
" />
<path d="M3.7493 19.9015
L3.8921 20.0443
" />
<path d="M3.8921 20.0443
L3.9636 20.1872
" />
<path d="M3.9636 20.1872
L4.0350 20.4729
" />
<path d="M4.0350 20.4729
L4.0350 20.6872
" />
<path d="M4.0350 20.6872
L3.9636 20.9729
" />
<path d="M3.9636 20.9729
L3.8921 21.1158
" />
<path d="M3.8921 21.1158
L3.7493 21.2586
" />
<path d="M3.7493 21.2586
L3.5350 21.3301
" />
<path d="M3.5350 21.3301
L3.1779 21.3301
" />
<path d="M5.3207 20.3301
L5.3207 21.3301
" />
<path d="M4.9636 19.7586
L4.6064 20.8301
" />
<path d="M4.6064 20.8301
L5.5350 20.8301
" />
</g><text x="22.0850" y="23.8017"
textLength="3.5286" font-size="2.0000" lengthAdjust="spacingAndGlyphs"
text-anchor="middle" opacity="0">D8</text>
<g class="stroked-text"><desc>D8</desc>
<path d="M20.9779 23.7301
L20.9779 22.2301
" />
<path d="M20.9779 22.2301
L21.3350 22.2301
" />
<path d="M21.3350 22.2301
L21.5493 22.3015
" />
<path d="M21.5493 22.3015
L21.6921 22.4443
" />
<path d="M21.6921 22.4443
L21.7636 22.5872
" />
<path d="M21.7636 22.5872
L21.8350 22.8729
" />
<path d="M21.8350 22.8729
L21.8350 23.0872
" />
<path d="M21.8350 23.0872
L21.7636 23.3729
" />
<path d="M21.7636 23.3729
L21.6921 23.5158
" />
<path d="M21.6921 23.5158
L21.5493 23.6586
" />
<path d="M21.5493 23.6586
L21.3350 23.7301
" />
<path d="M21.3350 23.7301
L20.9779 23.7301
" />
<path d="M22.6921 22.8729
L22.5493 22.8015
" />
<path d="M22.5493 22.8015
L22.4779 22.7301
" />
<path d="M22.4779 22.7301
L22.4064 22.5872
" />
<path d="M22.4064 22.5872
L22.4064 22.5158
" />
<path d="M22.4064 22.5158
L22.4779 22.3729
" />
<path d="M22.4779 22.3729
L22.5493 22.3015
" />
<path d="M22.5493 22.3015
L22.6921 22.2301
" />
<path d="M22.6921 22.2301
L22.9779 22.2301
" />
<path d="M22.9779 22.2301
L23.1207 22.3015
" />
<path d="M23.1207 22.3015
L23.1921 22.3729
" />
<path d="M23.1921 22.3729
L23.2636 22.5158
" />
<path d="M23.2636 22.5158
L23.2636 22.5872
" />
<path d="M23.2636 22.5872
L23.1921 22.7301
" />
<path d="M23.1921 22.7301
L23.1207 22.8015
" />
<path d="M23.1207 22.8015
L22.9779 22.8729
" />
<path d="M22.9779 22.8729
L22.6921 22.8729
" />
<path d="M22.6921 22.8729
L22.5493 22.9443
" />
<path d="M22.5493 22.9443
L22.4779 23.0158
" />
<path d="M22.4779 23.0158
L22.4064 23.1586
" />
<path d="M22.4064 23.1586
L22.4064 23.4443
" />
<path d="M22.4064 23.4443
L22.4779 23.5872
" />
<path d="M22.4779 23.5872
L22.5493 23.6586
" />
<path d="M22.5493 23.6586
L22.6921 23.7301
" />
<path d="M22.6921 23.7301
L22.9779 23.7301
" />
<path d="M22.9779 23.7301
L23.1207 23.6586
" />
<path d="M23.1207 23.6586
L23.1921 23.5872
" />
<path d="M23.1921 23.5872
L23.2636 23.4443
" />
<path d="M23.2636 23.4443
L23.2636 23.1586
" />
<path d="M23.2636 23.1586
L23.1921 23.0158
" />
<path d="M23.1921 23.0158
L23.1207 22.9443
" />
<path d="M23.1207 22.9443
L22.9779 22.8729
" />
</g><text x="4.2850" y="11.2017"
textLength="3.5286" font-size="2.0000" lengthAdjust="spacingAndGlyphs"
text-anchor="middle" opacity="0">RX</text>
<g class="stroked-text"><desc>RX</desc>
<path d="M4.0350 11.1301
L3.5350 10.4158
" />
<path d="M3.1779 11.1301
L3.1779 9.6301
" />
<path d="M3.1779 9.6301
L3.7493 9.6301
" />
<path d="M3.7493 9.6301
L3.8921 9.7015
" />
<path d="M3.8921 9.7015
L3.9636 9.7729
" />
<path d="M3.9636 9.7729
L4.0350 9.9158
" />
<path d="M4.0350 9.9158
L4.0350 10.1301
" />
<path d="M4.0350 10.1301
L3.9636 10.2729
" />
<path d="M3.9636 10.2729
L3.8921 10.3443
" />
<path d="M3.8921 10.3443
L3.7493 10.4158
" />
<path d="M3.7493 10.4158
L3.1779 10.4158
" />
<path d="M4.5350 9.6301
L5.5350 11.1301
" />
<path d="M5.5350 9.6301
L4.5350 11.1301
" />
</g><text x="22.0850" y="16.3017"
textLength="3.5286" font-size="2.0000" lengthAdjust="spacingAndGlyphs"
text-anchor="middle" opacity="0">D5</text>
<g class="stroked-text"><desc>D5</desc>
<path d="M20.9779 16.2301
L20.9779 14.7301
" />
<path d="M20.9779 14.7301
L21.3350 14.7301
" />
<path d="M21.3350 14.7301
L21.5493 14.8015
" />
<path d="M21.5493 14.8015
L21.6921 14.9443
" />
<path d="M21.6921 14.9443
L21.7636 15.0872
" />
<path d="M21.7636 15.0872
L21.8350 15.3729
" />
<path d="M21.8350 15.3729
L21.8350 15.5872
" />
<path d="M21.8350 15.5872
L21.7636 15.8729
" />
<path d="M21.7636 15.8729
L21.6921 16.0158
" />
<path d="M21.6921 16.0158
L21.5493 16.1586
" />
<path d="M21.5493 16.1586
L21.3350 16.2301
" />
<path d="M21.3350 16.2301
L20.9779 16.2301
" />
<path d="M23.1921 14.7301
L22.4779 14.7301
" />
<path d="M22.4779 14.7301
L22.4064 15.4443
" />
<path d="M22.4064 15.4443
L22.4779 15.3729
" />
<path d="M22.4779 15.3729
L22.6207 15.3015
" />
<path d="M22.6207 15.3015
L22.9779 15.3015
" />
<path d="M22.9779 15.3015
L23.1207 15.3729
" />
<path d="M23.1207 15.3729
L23.1921 15.4443
" />
<path d="M23.1921 15.4443
L23.2636 15.5872
" />
<path d="M23.2636 15.5872
L23.2636 15.9443
" />
<path d="M23.2636 15.9443
L23.1921 16.0872
" />
<path d="M23.1921 16.0872
L23.1207 16.1586
" />
<path d="M23.1207 16.1586
L22.9779 16.2301
" />
<path d="M22.9779 16.2301
L22.6207 16.2301
" />
<path d="M22.6207 16.2301
L22.4779 16.1586
" />
<path d="M22.4779 16.1586
L22.4064 16.0872
" />
</g><text x="21.6850" y="8.5017"
textLength="4.1714" font-size="2.0000" lengthAdjust="spacingAndGlyphs"
text-anchor="middle" opacity="0">Rst</text>
<g class="stroked-text"><desc>Rst</desc>
<path d="M21.1136 8.4301
L20.6136 7.7158
" />
<path d="M20.2564 8.4301
L20.2564 6.9301
" />
<path d="M20.2564 6.9301
L20.8279 6.9301
" />
<path d="M20.8279 6.9301
L20.9707 7.0015
" />
<path d="M20.9707 7.0015
L21.0421 7.0729
" />
<path d="M21.0421 7.0729
L21.1136 7.2158
" />
<path d="M21.1136 7.2158
L21.1136 7.4301
" />
<path d="M21.1136 7.4301
L21.0421 7.5729
" />
<path d="M21.0421 7.5729
L20.9707 7.6443
" />
<path d="M20.9707 7.6443
L20.8279 7.7158
" />
<path d="M20.8279 7.7158
L20.2564 7.7158
" />
<path d="M21.6850 8.3586
L21.8279 8.4301
" />
<path d="M21.8279 8.4301
L22.1136 8.4301
" />
<path d="M22.1136 8.4301
L22.2564 8.3586
" />
<path d="M22.2564 8.3586
L22.3279 8.2158
" />
<path d="M22.3279 8.2158
L22.3279 8.1443
" />
<path d="M22.3279 8.1443
L22.2564 8.0015
" />
<path d="M22.2564 8.0015
L22.1136 7.9301
" />
<path d="M22.1136 7.9301
L21.8993 7.9301
" />
<path d="M21.8993 7.9301
L21.7564 7.8586
" />
<path d="M21.7564 7.8586
L21.6850 7.7158
" />
<path d="M21.6850 7.7158
L21.6850 7.6443
" />
<path d="M21.6850 7.6443
L21.7564 7.5015
" />
<path d="M21.7564 7.5015
L21.8993 7.4301
" />
<path d="M21.8993 7.4301
L22.1136 7.4301
" />
<path d="M22.1136 7.4301
L22.2564 7.5015
" />
<path d="M22.7564 7.4301
L23.3279 7.4301
" />
<path d="M22.9707 6.9301
L22.9707 8.2158
" />
<path d="M22.9707 8.2158
L23.0421 8.3586
" />
<path d="M23.0421 8.3586
L23.1850 8.4301
" />
<path d="M23.1850 8.4301
L23.3279 8.4301
" />
</g></g>
<g style="fill:#0D115E; fill-opacity:0.0; 
stroke:#0D115E; stroke-width:0.1500; stroke-opacity:1; 
stroke-linecap:round; stroke-linejoin:round;">
<text x="1.8850" y="28.5517"
textLength="2.2024" font-size="1.3333" lengthAdjust="spacingAndGlyphs"
text-anchor="middle" opacity="0">P1</text>
<g class="stroked-text"><desc>P1</desc>
<path d="M1.1469 28.5066
L1.1469 27.5066
" />
<path d="M1.1469 27.5066
L1.5279 27.5066
" />
<path d="M1.5279 27.5066
L1.6231 27.5542
" />
<path d="M1.6231 27.5542
L1.6707 27.6018
" />
<path d="M1.6707 27.6018
L1.7183 27.6970
" />
<path d="M1.7183 27.6970
L1.7183 27.8399
" />
<path d="M1.7183 27.8399
L1.6707 27.9351
" />
<path d="M1.6707 27.9351
L1.6231 27.9827
" />
<path d="M1.6231 27.9827
L1.5279 28.0304
" />
<path d="M1.5279 28.0304
L1.1469 28.0304
" />
<path d="M2.6707 28.5066
L2.0993 28.5066
" />
<path d="M2.3850 28.5066
L2.3850 27.5066
" />
<path d="M2.3850 27.5066
L2.2898 27.6494
" />
<path d="M2.2898 27.6494
L2.1945 27.7446
" />
<path d="M2.1945 27.7446
L2.0993 27.7923
" />
</g><text x="24.5850" y="5.9517"
textLength="2.2024" font-size="1.3333" lengthAdjust="spacingAndGlyphs"
text-anchor="middle" opacity="0">P2</text>
<g class="stroked-text"><desc>P2</desc>
<path d="M23.8469 5.9066
L23.8469 4.9066
" />
<path d="M23.8469 4.9066
L24.2279 4.9066
" />
<path d="M24.2279 4.9066
L24.3231 4.9542
" />
<path d="M24.3231 4.9542
L24.3707 5.0018
" />
<path d="M24.3707 5.0018
L24.4183 5.0970
" />
<path d="M24.4183 5.0970
L24.4183 5.2399
" />
<path d="M24.4183 5.2399
L24.3707 5.3351
" />
<path d="M24.3707 5.3351
L24.3231 5.3827
" />
<path d="M24.3231 5.3827
L24.2279 5.4304
" />
<path d="M24.2279 5.4304
L23.8469 5.4304
" />
<path d="M24.7993 5.0018
L24.8469 4.9542
" />
<path d="M24.8469 4.9542
L24.9421 4.9066
" />
<path d="M24.9421 4.9066
L25.1802 4.9066
" />
<path d="M25.1802 4.9066
L25.2755 4.9542
" />
<path d="M25.2755 4.9542
L25.3231 5.0018
" />
<path d="M25.3231 5.0018
L25.3707 5.0970
" />
<path d="M25.3707 5.0970
L25.3707 5.1923
" />
<path d="M25.3707 5.1923
L25.3231 5.3351
" />
<path d="M25.3231 5.3351
L24.7517 5.9066
" />
<path d="M24.7517 5.9066
L25.3707 5.9066
" />
</g><path d="M0.6958 4.0718
L1.2546 4.2724
" />
<path d="M0.7060 3.3707
L0.6958 4.0718
" />
<path d="M1.1454 5.2427
L1.6839 5.7609
" />
<path d="M1.1759 2.2506
L1.4248 2.7916
" />
<path d="M1.2546 3.2717
L0.7060 3.3707
" />
<path d="M1.2546 4.2724
L1.3943 4.6712
" />
<path d="M1.4045 4.6814
L1.1454 5.2427
" />
<path d="M1.4248 2.7916
L1.2546 3.2717
" />
<path d="M1.6839 5.7609
L2.2046 5.4916
" />
<path d="M1.6940 1.7223
L1.1759 2.2506
" />
<path d="M2.1842 3.6527
L2.2350 4.1505
" />
<path d="M2.2046 5.4916
L2.4840 5.6517
" />
<path d="M2.2350 4.1505
L2.4840 4.4528
" />
<path d="M2.2452 1.9915
L1.6940 1.7223
" />
<path d="M2.3341 3.2006
L2.1842 3.6527
" />
<path d="M2.4840 4.4528
L2.8345 4.6509
" />
<path d="M2.6643 1.8213
L2.2452 1.9915
" />
<path d="M2.7354 2.8526
L2.3341 3.2006
" />
<path d="M2.8345 4.6509
L2.4840 5.6517
" />
<path d="M2.8751 1.2727
L2.6643 1.8213
" />
<path d="M3.1342 2.7510
L2.7354 2.8526
" />
<path d="M3.5355 4.6509
L3.8352 4.5010
" />
<path d="M3.5355 4.6509
L3.9343 5.6517
" />
<path d="M3.5660 1.2905
L2.8751 1.2727
" />
<path d="M3.5838 2.8018
L3.1342 2.7510
" />
<path d="M3.7362 1.8315
L3.5660 1.2905
" />
<path d="M3.8352 4.5010
L4.0359 4.3029
" />
<path d="M3.9241 5.6313
L4.2543 5.4408
" />
<path d="M4.0359 3.1523
L3.5838 2.8018
" />
<path d="M4.0359 4.3029
L4.1858 3.9016
" />
<path d="M4.1858 3.5028
L4.0359 3.1523
" />
<path d="M4.1858 3.9016
L4.1858 3.5028
" />
<path d="M4.2061 2.0322
L3.7362 1.8315
" />
<path d="M4.2543 5.4408
L4.6938 5.7710
" />
<path d="M4.6938 5.7710
L5.1662 5.2808
" />
<path d="M4.7242 1.7705
L4.2061 2.0322
" />
<path d="M4.8843 4.8008
L5.0748 4.3309
" />
<path d="M4.9249 2.7510
L5.1941 2.2811
" />
<path d="M5.0748 4.3309
L5.6844 4.1429
" />
<path d="M5.1256 3.3225
L4.9249 2.7510
" />
<path d="M5.1662 5.2808
L4.8843 4.8008
" />
<path d="M5.1941 2.2811
L4.7242 1.7705
" />
<path d="M5.6844 3.4622
L5.1256 3.3225
" />
<path d="M5.6844 4.1429
L5.6844 3.4622
" />
<g >
</g>
<g style="fill:#0D115E; fill-opacity:0.0; 
stroke:#0D115E; stroke-width:0.0000; stroke-opacity:1; 
stroke-linecap:round; stroke-linejoin:round;">
</g>
<g style="fill:#0D115E; fill-opacity:1.0000; 
stroke:#0D115E; stroke-width:0.0000; stroke-opacity:1; 
stroke-linecap:round; stroke-linejoin:round;">
<path style="fill:#0D115E; fill-opacity:1.0000; 
stroke:#0D115E; stroke-width:0.0000; stroke-opacity:1; 
stroke-linecap:round; stroke-linejoin:round;fill-rule:evenodd;"
d="M 2.6750,24.7017
2.6750,26.5017
0.8750,26.5017
0.8750,24.7017
Z" /> 
<circle cx="1.7750" cy="23.0617" r="0.9000" /> 
<circle cx="1.7750" cy="20.5217" r="0.9000" /> 
<circle cx="1.7750" cy="17.9817" r="0.9000" /> 
<circle cx="1.7750" cy="15.4417" r="0.9000" /> 
<circle cx="1.7750" cy="12.9017" r="0.9000" /> 
<circle cx="1.7750" cy="10.3617" r="0.9000" /> 
<circle cx="1.7750" cy="7.8217" r="0.9000" /> 
</g>
<g >
</g>
<g style="fill:#0D115E; fill-opacity:1.0000; 
stroke:#0D115E; stroke-width:0.0000; stroke-opacity:1; 
stroke-linecap:round; stroke-linejoin:round;">
<path style="fill:#0D115E; fill-opacity:1.0000; 
stroke:#0D115E; stroke-width:0.0000; stroke-opacity:1; 
stroke-linecap:round; stroke-linejoin:round;fill-rule:evenodd;"
d="M 25.5350,24.7017
25.5350,26.5017
23.7350,26.5017
23.7350,24.7017
Z" /> 
<circle cx="24.6350" cy="23.0617" r="0.9000" /> 
<circle cx="24.6350" cy="20.5217" r="0.9000" /> 
<circle cx="24.6350" cy="17.9817" r="0.9000" /> 
<circle cx="24.6350" cy="15.4417" r="0.9000" /> 
<circle cx="24.6350" cy="12.9017" r="0.9000" /> 
<circle cx="24.6350" cy="10.3617" r="0.9000" /> 
<circle cx="24.6350" cy="7.8217" r="0.9000" /> 
</g>
<g >
</g>
<g >
</g>
<g >
</g>
<g >
</g>
</g>
<g style="fill:#000000; fill-opacity:1.0000; 
stroke:#000000; stroke-width:0.0000; stroke-opacity:1; 
stroke-linecap:round; stroke-linejoin:round;">
<circle cx="1.7750" cy="25.6017" r="0.5080" /> 
</g>
<g style="fill:#000000; fill-opacity:1.0000; 
stroke:#000000; stroke-width:0.0212; stroke-opacity:1; 
stroke-linecap:round; stroke-linejoin:round;">
</g>
<g style="fill:#000000; fill-opacity:1.0000; 
stroke:#000000; stroke-width:0.0000; stroke-opacity:1; 
stroke-linecap:round; stroke-linejoin:round;">
<circle cx="1.7750" cy="23.0617" r="0.5080" /> 
</g>
<g style="fill:#000000; fill-opacity:1.0000; 
stroke:#000000; stroke-width:0.0212; stroke-opacity:1; 
stroke-linecap:round; stroke-linejoin:round;">
</g>
<g style="fill:#000000; fill-opacity:1.0000; 
stroke:#000000; stroke-width:0.0000; stroke-opacity:1; 
stroke-linecap:round; stroke-linejoin:round;">
<circle cx="1.7750" cy="20.5217" r="0.5080" /> 
</g>
<g style="fill:#000000; fill-opacity:1.0000; 
stroke:#000000; stroke-width:0.0212; stroke-opacity:1; 
stroke-linecap:round; stroke-linejoin:round;">
</g>
<g style="fill:#000000; fill-opacity:1.0000; 
stroke:#000000; stroke-width:0.0000; stroke-opacity:1; 
stroke-linecap:round; stroke-linejoin:round;">
<circle cx="1.7750" cy="17.9817" r="0.5080" /> 
</g>
<g style="fill:#000000; fill-opacity:1.0000; 
stroke:#000000; stroke-width:0.0212; stroke-opacity:1; 
stroke-linecap:round; stroke-linejoin:round;">
</g>
<g style="fill:#000000; fill-opacity:1.0000; 
stroke:#000000; stroke-width:0.0000; stroke-opacity:1; 
stroke-linecap:round; stroke-linejoin:round;">
<circle cx="1.7750" cy="15.4417" r="0.5080" /> 
</g>
<g style="fill:#000000; fill-opacity:1.0000; 
stroke:#000000; stroke-width:0.0212; stroke-opacity:1; 
stroke-linecap:round; stroke-linejoin:round;">
</g>
<g style="fill:#000000; fill-opacity:1.0000; 
stroke:#000000; stroke-width:0.0000; stroke-opacity:1; 
stroke-linecap:round; stroke-linejoin:round;">
<circle cx="1.7750" cy="12.9017" r="0.5080" /> 
</g>
<g style="fill:#000000; fill-opacity:1.0000; 
stroke:#000000; stroke-width:0.0212; stroke-opacity:1; 
stroke-linecap:round; stroke-linejoin:round;">
</g>
<g style="fill:#000000; fill-opacity:1.0000; 
stroke:#000000; stroke-width:0.0000; stroke-opacity:1; 
stroke-linecap:round; stroke-linejoin:round;">
<circle cx="1.7750" cy="10.3617" r="0.5080" /> 
</g>
<g style="fill:#000000; fill-opacity:1.0000; 
stroke:#000000; stroke-width:0.0212; stroke-opacity:1; 
stroke-linecap:round; stroke-linejoin:round;">
</g>
<g style="fill:#000000; fill-opacity:1.0000; 
stroke:#000000; stroke-width:0.0000; stroke-opacity:1; 
stroke-linecap:round; stroke-linejoin:round;">
<circle cx="1.7750" cy="7.8217" r="0.5080" /> 
</g>
<g style="fill:#000000; fill-opacity:1.0000; 
stroke:#000000; stroke-width:0.0212; stroke-opacity:1; 
stroke-linecap:round; stroke-linejoin:round;">
</g>
<g style="fill:#000000; fill-opacity:1.0000; 
stroke:#000000; stroke-width:0.0000; stroke-opacity:1; 
stroke-linecap:round; stroke-linejoin:round;">
<circle cx="24.6350" cy="25.6017" r="0.5080" /> 
</g>
<g style="fill:#000000; fill-opacity:1.0000; 
stroke:#000000; stroke-width:0.0212; stroke-opacity:1; 
stroke-linecap:round; stroke-linejoin:round;">
</g>
<g style="fill:#000000; fill-opacity:1.0000; 
stroke:#000000; stroke-width:0.0000; stroke-opacity:1; 
stroke-linecap:round; stroke-linejoin:round;">
<circle cx="24.6350" cy="23.0617" r="0.5080" /> 
</g>
<g style="fill:#000000; fill-opacity:1.0000; 
stroke:#000000; stroke-width:0.0212; stroke-opacity:1; 
stroke-linecap:round; stroke-linejoin:round;">
</g>
<g style="fill:#000000; fill-opacity:1.0000; 
stroke:#000000; stroke-width:0.0000; stroke-opacity:1; 
stroke-linecap:round; stroke-linejoin:round;">
<circle cx="24.6350" cy="20.5217" r="0.5080" /> 
</g>
<g style="fill:#000000; fill-opacity:1.0000; 
stroke:#000000; stroke-width:0.0212; stroke-opacity:1; 
stroke-linecap:round; stroke-linejoin:round;">
</g>
<g style="fill:#000000; fill-opacity:1.0000; 
stroke:#000000; stroke-width:0.0000; stroke-opacity:1; 
stroke-linecap:round; stroke-linejoin:round;">
<circle cx="24.6350" cy="17.9817" r="0.5080" /> 
</g>
<g style="fill:#000000; fill-opacity:1.0000; 
stroke:#000000; stroke-width:0.0212; stroke-opacity:1; 
stroke-linecap:round; stroke-linejoin:round;">
</g>
<g style="fill:#000000; fill-opacity:1.0000; 
stroke:#000000; stroke-width:0.0000; stroke-opacity:1; 
stroke-linecap:round; stroke-linejoin:round;">
<circle cx="24.6350" cy="15.4417" r="0.5080" /> 
</g>
<g style="fill:#000000; fill-opacity:1.0000; 
stroke:#000000; stroke-width:0.0212; stroke-opacity:1; 
stroke-linecap:round; stroke-linejoin:round;">
</g>
<g style="fill:#000000; fill-opacity:1.0000; 
stroke:#000000; stroke-width:0.0000; stroke-opacity:1; 
stroke-linecap:round; stroke-linejoin:round;">
<circle cx="24.6350" cy="12.9017" r="0.5080" /> 
</g>
<g style="fill:#000000; fill-opacity:1.0000; 
stroke:#000000; stroke-width:0.0212; stroke-opacity:1; 
stroke-linecap:round; stroke-linejoin:round;">
</g>
<g style="fill:#000000; fill-opacity:1.0000; 
stroke:#000000; stroke-width:0.0000; stroke-opacity:1; 
stroke-linecap:round; stroke-linejoin:round;">
<circle cx="24.6350" cy="10.3617" r="0.5080" /> 
</g>
<g style="fill:#000000; fill-opacity:1.0000; 
stroke:#000000; stroke-width:0.0212; stroke-opacity:1; 
stroke-linecap:round; stroke-linejoin:round;">
</g>
<g style="fill:#000000; fill-opacity:1.0000; 
stroke:#000000; stroke-width:0.0000; stroke-opacity:1; 
stroke-linecap:round; stroke-linejoin:round;">
<circle cx="24.6350" cy="7.8217" r="0.5080" /> 
</g>
<g style="fill:#000000; fill-opacity:1.0000; 
stroke:#000000; stroke-width:0.0212; stroke-opacity:1; 
stroke-linecap:round; stroke-linejoin:round;">
</g>
<g style="fill:#FFFFFF; fill-opacity:1.0000; 
stroke:#FFFFFF; stroke-width:0.0212; stroke-opacity:1; 
stroke-linecap:round; stroke-linejoin:round;">
<g >
</g>
<g >
</g>
<g >
</g>
<g >
</g>
<g >
</g>
<g >
</g>
</g>
<g style="fill:#FFFFFF; fill-opacity:1.0000; 
stroke:#FFFFFF; stroke-width:0.0212; stroke-opacity:1; 
stroke-linecap:round; stroke-linejoin:round;">
</g>
<g style="fill:#00D91D; fill-opacity:1.0000; 
stroke:#00D91D; stroke-width:0.0212; stroke-opacity:1; 
stroke-linecap:round; stroke-linejoin:round;">
</g>
<g style="fill:#00D91D; fill-opacity:1.0000; 
stroke:#00D91D; stroke-width:0.0500; stroke-opacity:1; 
stroke-linecap:round; stroke-linejoin:round;">
</g>
<g style="fill:#00D91D; fill-opacity:0.0; 
stroke:#00D91D; stroke-width:0.0500; stroke-opacity:1; 
stroke-linecap:round; stroke-linejoin:round;">
<path d="M3.5250 27.3517
L3.5250 6.0517
" />
<path d="M3.5250 27.3517
L0.0250 27.3517
" />
<path d="M3.5250 6.0517
L0.0250 6.0517
" />
<path d="M0.0250 27.3517
L0.0250 6.0517
" />
<path d="M26.3850 27.3517
L26.3850 6.0517
" />
<path d="M26.3850 27.3517
L22.8850 27.3517
" />
<path d="M26.3850 6.0517
L22.8850 6.0517
" />
<path d="M22.8850 27.3517
L22.8850 6.0517
" />
<g >
</g>
<g >
</g>
<g >
</g>
<g >
</g>
<g >
</g>
<g >
</g>
</g>
<g style="fill:#FFFFFF; fill-opacity:0.0; 
stroke:#FFFFFF; stroke-width:0.0500; stroke-opacity:1; 
stroke-linecap:round; stroke-linejoin:round;">
<g >
</g>
<g >
</g>
<g >
</g>
<g >
</g>
<g >
</g>
<g >
</g>
</g>
<g style="fill:#FFFFFF; fill-opacity:0.0; 
stroke:#FFFFFF; stroke-width:0.0500; stroke-opacity:1; 
stroke-linecap:round; stroke-linejoin:round;">
</g>
<g style="fill:#3D3D3D; fill-opacity:0.0; 
stroke:#3D3D3D; stroke-width:0.0500; stroke-opacity:1; 
stroke-linecap:round; stroke-linejoin:round;">
</g>
<g style="fill:#3D3D3D; fill-opacity:0.0; 
stroke:#3D3D3D; stroke-width:0.1000; stroke-opacity:1; 
stroke-linecap:round; stroke-linejoin:round;">
<path d="M17.2749 28.3932
L17.2749 34.2069
" />
<path d="M10.1353 28.3932
L17.2749 28.3932
" />
<path d="M10.1353 34.2069
L10.1353 28.3932
" />
<path d="M20.7248 28.2732
L20.7248 33.3356
" />
<path d="M24.1115 33.8295
L24.0586 27.7441
" />
<path d="M21.9772 28.2732
L20.7248 28.2732
" />
<path d="M24.7465 31.8187
L24.1292 31.8187
" />
<path d="M24.0939 29.8255
L24.7465 29.8255
" />
<path d="M22.5417 33.8295
L24.1115 33.8295
" />
<path d="M24.0586 27.7441
L22.5064 27.7441
" />
<path d="M22.0125 33.3356
L22.5417 33.8295
" />
<path d="M17.2749 34.2069
L10.1353 34.2069
" />
<path d="M24.7465 29.8255
L24.7465 31.8187
" />
<path d="M22.5064 27.7441
L21.9772 28.2732
" />
<path d="M20.7248 33.3356
L22.0125 33.3356
" />
<g >
</g>
<g >
</g>
<g >
</g>
<g >
</g>
<g >
</g>
<g >
</g>
</g>
<g style="fill:#FFFFFF; fill-opacity:0.0; 
stroke:#FFFFFF; stroke-width:0.1000; stroke-opacity:1; 
stroke-linecap:round; stroke-linejoin:round;">
<g >
</g>
<g >
</g>
<g >
</g>
<g >
</g>
<g >
</g>
<g >
</g>
</g>
<g style="fill:#FFFFFF; fill-opacity:0.0; 
stroke:#FFFFFF; stroke-width:0.1000; stroke-opacity:1; 
stroke-linecap:round; stroke-linejoin:round;">
<g >
</g>
<g >
</g>
<g >
</g>
<g >
</g>
<g >
</g>
<g >
</g>
</g>
<g style="fill:#FFFFFF; fill-opacity:0.0; 
stroke:#FFFFFF; stroke-width:0.1000; stroke-opacity:1; 
stroke-linecap:round; stroke-linejoin:round;">
<g >
</g>
<g >
</g>
<g >
</g>
<g >
</g>
<g >
</g>
<g >
</g>
</g>
<g style="fill:#FFFFFF; fill-opacity:0.0; 
stroke:#FFFFFF; stroke-width:0.1000; stroke-opacity:1; 
stroke-linecap:round; stroke-linejoin:round;">
<g >
</g>
<g >
</g>
<g >
</g>
<g >
</g>
<g >
</g>
<g >
</g>
</g>
<g style="fill:#FFFFFF; fill-opacity:0.0; 
stroke:#FFFFFF; stroke-width:0.1000; stroke-opacity:1; 
stroke-linecap:round; stroke-linejoin:round;">
</g>
<g style="fill:#2F2D31; fill-opacity:0.0; 
stroke:#2F2D31; stroke-width:0.1000; stroke-opacity:1; 
stroke-linecap:round; stroke-linejoin:round;">
<path d="M1.5360 1.1868
L1.9745 0.8190
" />
<path d="M25.6221 2.5021
L25.8505 3.2572
" />
<path d="M25.8505 3.2572
L25.9661 4.1499
" />
<path d="M0.2988 3.2482
L0.5316 2.6454
" />
<path d="M1.9745 0.8190
L2.4656 0.5114
" />
<path d="M0.5316 2.6454
L0.8151 2.1006
" />
<path d="M24.3964 0.9180
L24.8815 1.3471
" />
<path d="M24.0475 27.6659
L24.0850 34.4517
" />
<path d="M0.8151 2.1006
L1.1497 1.6142
" />
<path d="M3.6075 0.0788
L22.6455 0.0500
" />
<path d="M24.8815 1.3471
L25.2946 1.8703
" />
<path d="M9.3636 33.2422
L9.3656 34.4445
" />
<path d="M3.0097 0.2644
L3.6075 0.0788
" />
<path d="M23.2648 0.2840
L23.8530 0.5685
" />
<path d="M24.0850 34.4517
L18.1850 34.4517
" />
<path d="M0.2848 34.4184
L0.2988 3.2482
" />
<path d="M25.9661 4.1499
L25.9910 26.7050
" />
<path d="M23.8530 0.5685
L24.3964 0.9180
" />
<path d="M25.9910 26.7050
L24.0475 27.6659
" />
<path d="M1.1497 1.6142
L1.5360 1.1868
" />
<path d="M25.2946 1.8703
L25.6221 2.5021
" />
<path d="M9.3656 34.4445
L0.2848 34.4184
" />
<path d="M2.4656 0.5114
L3.0097 0.2644
" />
<path d="M22.6455 0.0500
L23.2648 0.2840
" />
<path d="M18.1850 34.4517
L18.1948 33.2355
" />
<path d="M18.1948 33.2355
L9.3636 33.2422
" />
<g >
</g>
<g >
</g>
<g >
</g>
<g >
</g>
<g >
</g>
<g >
</g>
</g> 
</svg>
