<?xml version="1.0" standalone="no"?>
 <!DOCTYPE svg PUBLIC "-//W3C//DTD SVG 1.1//EN" 
 "http://www.w3.org/Graphics/SVG/1.1/DTD/svg11.dtd"> 
<svg
  xmlns:svg="http://www.w3.org/2000/svg"
  xmlns="http://www.w3.org/2000/svg"
  xmlns:xlink="http://www.w3.org/1999/xlink"
  version="1.1"
  width="26.3144mm" height="12.5476mm" viewBox="0.0000 0.0000 26.3144 12.5476">
<title>SVG Image created as working-brd.svg date 2023/09/17 20:12:27 </title>
  <desc>Image generated by PCBNEW </desc>
<g style="fill:#000000; fill-opacity:1.0000;stroke:#000000; stroke-opacity:1.0000;
stroke-linecap:round; stroke-linejoin:round;"
 transform="translate(0 0) scale(1 1)">
</g>
<g style="fill:#000000; fill-opacity:0.0; 
stroke:#000000; stroke-width:0.0000; stroke-opacity:1; 
stroke-linecap:round; stroke-linejoin:round;">
</g>
<g style="fill:#000000; fill-opacity:1.0000; 
stroke:#000000; stroke-width:0.0212; stroke-opacity:1; 
stroke-linecap:round; stroke-linejoin:round;">
<rect x="-5.000000" y="-5.000000" width="36.314600" height="22.553500" rx="0.000000" />
</g>
<g style="fill:#FFFFFF; fill-opacity:1.0000; 
stroke:#FFFFFF; stroke-width:0.0212; stroke-opacity:1; 
stroke-linecap:round; stroke-linejoin:round;">
<g >
</g>
<g >
</g>
<g >
</g>
<g >
</g>
</g>
<g style="fill:#000000; fill-opacity:1.0000; 
stroke:#000000; stroke-width:0.0212; stroke-opacity:1; 
stroke-linecap:round; stroke-linejoin:round;">
</g>
<g style="fill:#000000; fill-opacity:1.0000; 
stroke:#000000; stroke-width:0.0000; stroke-opacity:1; 
stroke-linecap:round; stroke-linejoin:round;">
<circle cx="13.1573" cy="4.1735" r="0.2500" /> 
</g>
<g style="fill:#000000; fill-opacity:1.0000; 
stroke:#000000; stroke-width:0.0212; stroke-opacity:1; 
stroke-linecap:round; stroke-linejoin:round;">
</g>
<g style="fill:#FFFFFF; fill-opacity:1.0000; 
stroke:#FFFFFF; stroke-width:0.0212; stroke-opacity:1; 
stroke-linecap:round; stroke-linejoin:round;">
<g >
</g>
<g style="fill:#37CBCB; fill-opacity:1.0000; 
stroke:#37CBCB; stroke-width:0.0212; stroke-opacity:1; 
stroke-linecap:round; stroke-linejoin:round;">
</g>
<g style="fill:#37CBCB; fill-opacity:1.0000; 
stroke:#37CBCB; stroke-width:0.0000; stroke-opacity:1; 
stroke-linecap:round; stroke-linejoin:round;">
<circle cx="13.1573" cy="4.1735" r="0.4000" /> 
</g>
<g style="fill:#37CBCB; fill-opacity:1.0000; 
stroke:#37CBCB; stroke-width:0.0212; stroke-opacity:1; 
stroke-linecap:round; stroke-linejoin:round;">
</g>
<g >
</g>
<g >
</g>
<g >
</g>
<g style="fill:#37CBCB; fill-opacity:1.0000; 
stroke:#37CBCB; stroke-width:0.0212; stroke-opacity:1; 
stroke-linecap:round; stroke-linejoin:round;">
<g >
</g>
<g style="fill:#37CBCB; fill-opacity:1.0000; 
stroke:#37CBCB; stroke-width:0.0000; stroke-opacity:1; 
stroke-linecap:round; stroke-linejoin:round;">
<path style="fill:#37CBCB; fill-opacity:1.0000; 
stroke:#37CBCB; stroke-width:0.0000; stroke-opacity:1; 
stroke-linecap:round; stroke-linejoin:round;fill-rule:evenodd;"
d="M 15.0851,8.0275
13.1573,8.0275
13.1573,7.7495
15.0851,7.7495
Z" /> 
</g>
</g>
<g style="fill:#37CBCB; fill-opacity:1.0000; 
stroke:#37CBCB; stroke-width:0.0000; stroke-opacity:1; 
stroke-linecap:round; stroke-linejoin:round;">
<g >
<path style="fill:#37CBCB; fill-opacity:1.0000; 
stroke:#37CBCB; stroke-width:0.0000; stroke-opacity:1; 
stroke-linecap:round; stroke-linejoin:round;fill-rule:evenodd;"
d="M 24.1191,7.6455
24.5576,8.0840
24.5646,8.1009
24.5646,10.4435
24.0645,10.4435
24.0645,8.1385
24.0645,8.1385
17.1345,8.1385
17.1345,8.1385
16.8846,8.1385
16.8846,7.6385
16.8846,7.6385
24.1022,7.6385
Z" /> 
</g>
</g>
<g style="fill:#37CBCB; fill-opacity:1.0000; 
stroke:#37CBCB; stroke-width:0.0000; stroke-opacity:1; 
stroke-linecap:round; stroke-linejoin:round;">
<g >
<path style="fill:#37CBCB; fill-opacity:1.0000; 
stroke:#37CBCB; stroke-width:0.0000; stroke-opacity:1; 
stroke-linecap:round; stroke-linejoin:round;fill-rule:evenodd;"
d="M 13.1573,0.5975
11.2295,0.5975
11.2295,0.3195
11.2295,0.3195
13.1573,0.3195
Z" /> 
</g>
</g>
<g style="fill:#37CBCB; fill-opacity:1.0000; 
stroke:#37CBCB; stroke-width:0.0000; stroke-opacity:1; 
stroke-linecap:round; stroke-linejoin:round;">
<g >
<path style="fill:#37CBCB; fill-opacity:1.0000; 
stroke:#37CBCB; stroke-width:0.0000; stroke-opacity:1; 
stroke-linecap:round; stroke-linejoin:round;fill-rule:evenodd;"
d="M 11.2225,0.0070
11.2295,0.0240
11.2295,0.5975
11.2295,0.8930
11.2225,0.9100
11.2055,0.9170
9.4300,0.9170
9.4300,0.0240
9.4370,0.0070
9.4540,0.0000
11.2055,0.0000
Z" /> 
</g>
</g>
<g style="fill:#37CBCB; fill-opacity:1.0000; 
stroke:#37CBCB; stroke-width:0.0000; stroke-opacity:1; 
stroke-linecap:round; stroke-linejoin:round;">
<g >
<path style="fill:#37CBCB; fill-opacity:1.0000; 
stroke:#37CBCB; stroke-width:0.0000; stroke-opacity:1; 
stroke-linecap:round; stroke-linejoin:round;fill-rule:evenodd;"
d="M 23.8075,9.3955
23.8145,9.4125
23.8145,10.4435
23.8145,10.4435
23.8145,10.4435
24.0645,10.4435
24.0645,10.4435
24.8146,10.4435
24.8146,10.4435
24.8146,9.4125
24.8216,9.3955
24.8386,9.3885
26.2906,9.3885
26.3076,9.3955
26.3146,9.4125
26.3146,12.5295
26.3076,12.5465
26.2906,12.5535
22.3386,12.5535
22.3216,12.5465
22.3146,12.5295
22.3146,9.4125
22.3216,9.3955
22.3386,9.3885
23.7905,9.3885
Z" /> 
</g>
</g>
<g style="fill:#37CBCB; fill-opacity:1.0000; 
stroke:#37CBCB; stroke-width:0.0000; stroke-opacity:1; 
stroke-linecap:round; stroke-linejoin:round;">
<g >
<path style="fill:#37CBCB; fill-opacity:1.0000; 
stroke:#37CBCB; stroke-width:0.0000; stroke-opacity:1; 
stroke-linecap:round; stroke-linejoin:round;fill-rule:evenodd;"
d="M 13.1573,8.0275
11.2295,8.0275
11.2295,7.7495
13.1573,7.7495
Z" /> 
</g>
</g>
<g style="fill:#37CBCB; fill-opacity:1.0000; 
stroke:#37CBCB; stroke-width:0.0000; stroke-opacity:1; 
stroke-linecap:round; stroke-linejoin:round;">
<g >
<path style="fill:#37CBCB; fill-opacity:1.0000; 
stroke:#37CBCB; stroke-width:0.0000; stroke-opacity:1; 
stroke-linecap:round; stroke-linejoin:round;fill-rule:evenodd;"
d="M 11.2225,7.4370
11.2295,7.4540
11.2295,8.0275
11.2295,8.3230
11.2225,8.3400
11.2055,8.3470
9.4300,8.3470
9.4300,7.4540
9.4370,7.4370
9.4540,7.4300
11.2055,7.4300
Z" /> 
</g>
</g>
<g style="fill:#37CBCB; fill-opacity:1.0000; 
stroke:#37CBCB; stroke-width:0.0000; stroke-opacity:1; 
stroke-linecap:round; stroke-linejoin:round;">
<g >
<path style="fill:#37CBCB; fill-opacity:1.0000; 
stroke:#37CBCB; stroke-width:0.0000; stroke-opacity:1; 
stroke-linecap:round; stroke-linejoin:round;fill-rule:evenodd;"
d="M 16.3776,9.3955
16.3846,9.4125
16.3846,10.4435
16.6346,10.4435
16.6346,10.4435
17.3845,10.4435
17.3845,10.4435
17.3845,9.4125
17.3915,9.3955
17.4085,9.3885
18.8605,9.3885
18.8775,9.3955
18.8845,9.4125
18.8845,12.5295
18.8775,12.5465
18.8605,12.5535
14.9085,12.5535
14.8915,12.5465
14.8845,12.5295
14.8845,9.4125
14.8915,9.3955
14.9085,9.3885
16.3606,9.3885
Z" /> 
</g>
</g>
<g style="fill:#37CBCB; fill-opacity:1.0000; 
stroke:#37CBCB; stroke-width:0.0000; stroke-opacity:1; 
stroke-linecap:round; stroke-linejoin:round;">
<g >
<path style="fill:#37CBCB; fill-opacity:1.0000; 
stroke:#37CBCB; stroke-width:0.0000; stroke-opacity:1; 
stroke-linecap:round; stroke-linejoin:round;fill-rule:evenodd;"
d="M 16.8776,7.4370
16.8846,7.4540
16.8846,8.3470
15.1091,8.3470
15.0921,8.3400
15.0851,8.3230
15.0851,8.0275
15.0851,7.4540
15.0921,7.4370
15.1091,7.4300
16.8606,7.4300
Z" /> 
</g>
</g>
<g style="fill:#37CBCB; fill-opacity:1.0000; 
stroke:#37CBCB; stroke-width:0.0000; stroke-opacity:1; 
stroke-linecap:round; stroke-linejoin:round;">
<g >
<path style="fill:#37CBCB; fill-opacity:1.0000; 
stroke:#37CBCB; stroke-width:0.0000; stroke-opacity:1; 
stroke-linecap:round; stroke-linejoin:round;fill-rule:evenodd;"
d="M 16.3776,1.9655
16.3846,1.9825
16.3846,3.0135
16.6346,3.0135
16.6346,3.0135
17.3845,3.0135
17.3845,3.0135
17.3845,1.9825
17.3915,1.9655
17.4085,1.9585
18.8605,1.9585
18.8775,1.9655
18.8845,1.9825
18.8845,5.0995
18.8775,5.1165
18.8605,5.1235
14.9085,5.1235
14.8915,5.1165
14.8845,5.0995
14.8845,1.9825
14.8915,1.9655
14.9085,1.9585
16.3606,1.9585
Z" /> 
</g>
</g>
<g style="fill:#37CBCB; fill-opacity:1.0000; 
stroke:#37CBCB; stroke-width:0.0000; stroke-opacity:1; 
stroke-linecap:round; stroke-linejoin:round;">
<g >
<path style="fill:#37CBCB; fill-opacity:1.0000; 
stroke:#37CBCB; stroke-width:0.0000; stroke-opacity:1; 
stroke-linecap:round; stroke-linejoin:round;fill-rule:evenodd;"
d="M 16.8776,0.0070
16.8846,0.0240
16.8846,0.9170
15.1091,0.9170
15.0921,0.9100
15.0851,0.8930
15.0851,0.5975
15.0851,0.0240
15.0921,0.0070
15.1091,0.0000
16.8606,0.0000
Z" /> 
</g>
</g>
<g style="fill:#37CBCB; fill-opacity:1.0000; 
stroke:#37CBCB; stroke-width:0.0000; stroke-opacity:1; 
stroke-linecap:round; stroke-linejoin:round;">
<g >
<path style="fill:#37CBCB; fill-opacity:1.0000; 
stroke:#37CBCB; stroke-width:0.0000; stroke-opacity:1; 
stroke-linecap:round; stroke-linejoin:round;fill-rule:evenodd;"
d="M 8.9231,1.9655
8.9301,1.9825
8.9301,3.0135
9.1801,3.0135
9.1801,3.0135
9.9300,3.0135
9.9300,1.9825
9.9370,1.9655
9.9540,1.9585
11.4061,1.9585
11.4231,1.9655
11.4301,1.9825
11.4301,5.0995
11.4231,5.1165
11.4061,5.1235
7.4541,5.1235
7.4371,5.1165
7.4301,5.0995
7.4301,1.9825
7.4371,1.9655
7.4541,1.9585
8.9061,1.9585
Z" /> 
</g>
</g>
<g style="fill:#37CBCB; fill-opacity:1.0000; 
stroke:#37CBCB; stroke-width:0.0000; stroke-opacity:1; 
stroke-linecap:round; stroke-linejoin:round;">
<g >
<path style="fill:#37CBCB; fill-opacity:1.0000; 
stroke:#37CBCB; stroke-width:0.0000; stroke-opacity:1; 
stroke-linecap:round; stroke-linejoin:round;fill-rule:evenodd;"
d="M 9.4300,0.7085
2.2501,0.7085
2.2501,3.0135
1.7500,3.0135
1.7500,0.6709
1.7570,0.6540
2.1955,0.2155
2.2124,0.2085
9.4300,0.2085
9.4300,0.2085
Z" /> 
</g>
</g>
<g style="fill:#37CBCB; fill-opacity:1.0000; 
stroke:#37CBCB; stroke-width:0.0000; stroke-opacity:1; 
stroke-linecap:round; stroke-linejoin:round;">
<g >
<path style="fill:#37CBCB; fill-opacity:1.0000; 
stroke:#37CBCB; stroke-width:0.0000; stroke-opacity:1; 
stroke-linecap:round; stroke-linejoin:round;fill-rule:evenodd;"
d="M 23.8075,1.9655
23.8145,1.9825
23.8145,3.0135
23.8145,3.0135
24.0645,3.0135
24.0645,3.0135
24.8146,3.0135
24.8146,1.9825
24.8216,1.9655
24.8386,1.9585
26.2906,1.9585
26.3076,1.9655
26.3146,1.9825
26.3146,5.0995
26.3076,5.1165
26.2906,5.1235
22.3386,5.1235
22.3216,5.1165
22.3146,5.0995
22.3146,1.9825
22.3216,1.9655
22.3386,1.9585
23.7905,1.9585
Z" /> 
</g>
</g>
<g style="fill:#37CBCB; fill-opacity:1.0000; 
stroke:#37CBCB; stroke-width:0.0000; stroke-opacity:1; 
stroke-linecap:round; stroke-linejoin:round;">
<g >
<path style="fill:#37CBCB; fill-opacity:1.0000; 
stroke:#37CBCB; stroke-width:0.0000; stroke-opacity:1; 
stroke-linecap:round; stroke-linejoin:round;fill-rule:evenodd;"
d="M 9.6800,10.4435
9.1801,10.4435
9.1801,7.8885
9.6800,7.8885
Z" /> 
</g>
</g>
<g style="fill:#37CBCB; fill-opacity:1.0000; 
stroke:#37CBCB; stroke-width:0.0000; stroke-opacity:1; 
stroke-linecap:round; stroke-linejoin:round;">
<g >
<path style="fill:#37CBCB; fill-opacity:1.0000; 
stroke:#37CBCB; stroke-width:0.0000; stroke-opacity:1; 
stroke-linecap:round; stroke-linejoin:round;fill-rule:evenodd;"
d="M 15.0851,0.5975
13.1573,0.5975
13.1573,0.3195
15.0851,0.3195
Z" /> 
</g>
</g>
<g style="fill:#37CBCB; fill-opacity:1.0000; 
stroke:#37CBCB; stroke-width:0.0000; stroke-opacity:1; 
stroke-linecap:round; stroke-linejoin:round;">
<g >
<path style="fill:#37CBCB; fill-opacity:1.0000; 
stroke:#37CBCB; stroke-width:0.0000; stroke-opacity:1; 
stroke-linecap:round; stroke-linejoin:round;fill-rule:evenodd;"
d="M 13.2963,4.1735
13.0183,4.1735
13.0183,2.2457
13.2963,2.2457
Z" /> 
</g>
</g>
<g style="fill:#37CBCB; fill-opacity:1.0000; 
stroke:#37CBCB; stroke-width:0.0000; stroke-opacity:1; 
stroke-linecap:round; stroke-linejoin:round;">
<g >
<path style="fill:#37CBCB; fill-opacity:1.0000; 
stroke:#37CBCB; stroke-width:0.0000; stroke-opacity:1; 
stroke-linecap:round; stroke-linejoin:round;fill-rule:evenodd;"
d="M 1.4930,9.3955
1.5000,9.4125
1.5000,10.4435
1.7500,10.4435
1.7500,10.4435
2.5001,10.4435
2.5001,10.4435
2.5001,10.4435
2.5001,10.4435
2.5001,9.4125
2.5071,9.3955
2.5241,9.3885
3.9760,9.3885
3.9930,9.3955
4.0000,9.4125
4.0000,12.5295
3.9930,12.5465
3.9760,12.5535
0.0240,12.5535
0.0070,12.5465
0.0000,12.5295
0.0000,9.4125
0.0070,9.3955
0.0240,9.3885
1.4760,9.3885
Z" /> 
</g>
</g>
<g style="fill:#37CBCB; fill-opacity:1.0000; 
stroke:#37CBCB; stroke-width:0.0000; stroke-opacity:1; 
stroke-linecap:round; stroke-linejoin:round;">
<g >
<path style="fill:#37CBCB; fill-opacity:1.0000; 
stroke:#37CBCB; stroke-width:0.0000; stroke-opacity:1; 
stroke-linecap:round; stroke-linejoin:round;fill-rule:evenodd;"
d="M 13.4073,0.5975
13.4073,2.2217
13.4003,2.2387
13.3833,2.2457
12.9313,2.2457
12.9143,2.2387
12.9073,2.2217
12.9073,0.5975
12.9073,0.4585
13.4073,0.4585
Z" /> 
</g>
</g>
<g style="fill:#37CBCB; fill-opacity:1.0000; 
stroke:#37CBCB; stroke-width:0.0000; stroke-opacity:1; 
stroke-linecap:round; stroke-linejoin:round;">
<g >
<path style="fill:#37CBCB; fill-opacity:1.0000; 
stroke:#37CBCB; stroke-width:0.0000; stroke-opacity:1; 
stroke-linecap:round; stroke-linejoin:round;fill-rule:evenodd;"
d="M 9.6800,3.0135
9.1801,3.0135
9.1801,0.4585
9.6800,0.4585
Z" /> 
</g>
</g>
<g style="fill:#37CBCB; fill-opacity:1.0000; 
stroke:#37CBCB; stroke-width:0.0000; stroke-opacity:1; 
stroke-linecap:round; stroke-linejoin:round;">
<g >
<path style="fill:#37CBCB; fill-opacity:1.0000; 
stroke:#37CBCB; stroke-width:0.0000; stroke-opacity:1; 
stroke-linecap:round; stroke-linejoin:round;fill-rule:evenodd;"
d="M 1.4930,1.9655
1.5000,1.9825
1.5000,3.0135
1.7500,3.0135
1.7500,3.0135
2.5001,3.0135
2.5001,3.0135
2.5001,3.0135
2.5001,1.9825
2.5071,1.9655
2.5241,1.9585
3.9760,1.9585
3.9930,1.9655
4.0000,1.9825
4.0000,5.0995
3.9930,5.1165
3.9760,5.1235
0.0240,5.1235
0.0070,5.1165
0.0000,5.0995
0.0000,1.9825
0.0070,1.9655
0.0240,1.9585
1.4760,1.9585
Z" /> 
</g>
</g>
<g style="fill:#37CBCB; fill-opacity:1.0000; 
stroke:#37CBCB; stroke-width:0.0000; stroke-opacity:1; 
stroke-linecap:round; stroke-linejoin:round;">
<g >
<path style="fill:#37CBCB; fill-opacity:1.0000; 
stroke:#37CBCB; stroke-width:0.0000; stroke-opacity:1; 
stroke-linecap:round; stroke-linejoin:round;fill-rule:evenodd;"
d="M 17.1345,3.0135
16.6346,3.0135
16.6346,0.4585
17.1345,0.4585
Z" /> 
</g>
</g>
<g style="fill:#37CBCB; fill-opacity:1.0000; 
stroke:#37CBCB; stroke-width:0.0000; stroke-opacity:1; 
stroke-linecap:round; stroke-linejoin:round;">
<g >
<path style="fill:#37CBCB; fill-opacity:1.0000; 
stroke:#37CBCB; stroke-width:0.0000; stroke-opacity:1; 
stroke-linecap:round; stroke-linejoin:round;fill-rule:evenodd;"
d="M 24.1191,0.2155
24.5576,0.6540
24.5646,0.6709
24.5646,3.0135
24.0645,3.0135
24.0645,0.7085
24.0645,0.7085
17.1345,0.7085
17.1345,0.7085
16.8846,0.7085
16.8846,0.2085
16.8846,0.2085
24.1022,0.2085
Z" /> 
</g>
</g>
<g style="fill:#37CBCB; fill-opacity:1.0000; 
stroke:#37CBCB; stroke-width:0.0000; stroke-opacity:1; 
stroke-linecap:round; stroke-linejoin:round;">
<g >
<path style="fill:#37CBCB; fill-opacity:1.0000; 
stroke:#37CBCB; stroke-width:0.0000; stroke-opacity:1; 
stroke-linecap:round; stroke-linejoin:round;fill-rule:evenodd;"
d="M 13.2963,6.1013
13.0183,6.1013
13.0183,4.1735
13.2963,4.1735
Z" /> 
</g>
</g>
<g style="fill:#37CBCB; fill-opacity:1.0000; 
stroke:#37CBCB; stroke-width:0.0000; stroke-opacity:1; 
stroke-linecap:round; stroke-linejoin:round;">
<g >
<path style="fill:#37CBCB; fill-opacity:1.0000; 
stroke:#37CBCB; stroke-width:0.0000; stroke-opacity:1; 
stroke-linecap:round; stroke-linejoin:round;fill-rule:evenodd;"
d="M 13.4003,6.1083
13.4073,6.1253
13.4073,7.8885
12.9073,7.8885
12.9073,6.1253
12.9143,6.1083
12.9313,6.1013
13.0183,6.1013
13.2963,6.1013
13.2963,6.1013
13.3833,6.1013
Z" /> 
</g>
</g>
<g style="fill:#37CBCB; fill-opacity:1.0000; 
stroke:#37CBCB; stroke-width:0.0000; stroke-opacity:1; 
stroke-linecap:round; stroke-linejoin:round;">
<g >
<path style="fill:#37CBCB; fill-opacity:1.0000; 
stroke:#37CBCB; stroke-width:0.0000; stroke-opacity:1; 
stroke-linecap:round; stroke-linejoin:round;fill-rule:evenodd;"
d="M 9.4300,8.1385
2.2501,8.1385
2.2501,10.4435
1.7500,10.4435
1.7500,8.1009
1.7570,8.0840
2.1955,7.6455
2.2124,7.6385
9.4300,7.6385
9.4300,7.6385
Z" /> 
</g>
</g>
<g style="fill:#37CBCB; fill-opacity:1.0000; 
stroke:#37CBCB; stroke-width:0.0000; stroke-opacity:1; 
stroke-linecap:round; stroke-linejoin:round;">
<g >
<path style="fill:#37CBCB; fill-opacity:1.0000; 
stroke:#37CBCB; stroke-width:0.0000; stroke-opacity:1; 
stroke-linecap:round; stroke-linejoin:round;fill-rule:evenodd;"
d="M 8.9231,9.3955
8.9301,9.4125
8.9301,10.4435
9.1801,10.4435
9.1801,10.4435
9.9300,10.4435
9.9300,10.4435
9.9300,9.4125
9.9370,9.3955
9.9540,9.3885
11.4061,9.3885
11.4231,9.3955
11.4301,9.4125
11.4301,12.5295
11.4231,12.5465
11.4061,12.5535
7.4541,12.5535
7.4371,12.5465
7.4301,12.5295
7.4301,9.4125
7.4371,9.3955
7.4541,9.3885
8.9061,9.3885
Z" /> 
</g>
</g>
<g style="fill:#37CBCB; fill-opacity:1.0000; 
stroke:#37CBCB; stroke-width:0.0000; stroke-opacity:1; 
stroke-linecap:round; stroke-linejoin:round;">
<g >
<path style="fill:#37CBCB; fill-opacity:1.0000; 
stroke:#37CBCB; stroke-width:0.0000; stroke-opacity:1; 
stroke-linecap:round; stroke-linejoin:round;fill-rule:evenodd;"
d="M 17.1345,10.4435
16.6346,10.4435
16.6346,7.8885
17.1345,7.8885
Z" /> 
</g>
</g>
</g>
<g style="fill:#000000; fill-opacity:1.0000; 
stroke:#000000; stroke-width:0.0000; stroke-opacity:1; 
stroke-linecap:round; stroke-linejoin:round;">
<circle cx="13.1573" cy="4.1735" r="0.2500" /> 
</g>
<g style="fill:#000000; fill-opacity:1.0000; 
stroke:#000000; stroke-width:0.0212; stroke-opacity:1; 
stroke-linecap:round; stroke-linejoin:round;">
</g>
<g style="fill:#FFFFFF; fill-opacity:1.0000; 
stroke:#FFFFFF; stroke-width:0.0212; stroke-opacity:1; 
stroke-linecap:round; stroke-linejoin:round;">
<g >
</g>
<g >
</g>
<g >
</g>
<g >
</g>
</g> 
</svg>
