<?xml version="1.0" standalone="no"?>
 <!DOCTYPE svg PUBLIC "-//W3C//DTD SVG 1.1//EN" 
 "http://www.w3.org/Graphics/SVG/1.1/DTD/svg11.dtd"> 
<svg
  xmlns:svg="http://www.w3.org/2000/svg"
  xmlns="http://www.w3.org/2000/svg"
  xmlns:xlink="http://www.w3.org/1999/xlink"
  version="1.1"
  width="26.6446mm" height="19.9644mm" viewBox="0.0000 0.0000 26.6446 19.9644">
<title>SVG Image created as working-brd.svg date 2023/09/19 17:11:00 </title>
  <desc>Image generated by PCBNEW </desc>
<g style="fill:#000000; fill-opacity:1.0000;stroke:#000000; stroke-opacity:1.0000;
stroke-linecap:round; stroke-linejoin:round;"
 transform="translate(0 0) scale(1 1)">
</g>
<g style="fill:#000000; fill-opacity:0.0; 
stroke:#000000; stroke-width:0.0000; stroke-opacity:1; 
stroke-linecap:round; stroke-linejoin:round;">
</g>
<g style="fill:#000000; fill-opacity:1.0000; 
stroke:#000000; stroke-width:0.0212; stroke-opacity:1; 
stroke-linecap:round; stroke-linejoin:round;">
<rect x="-5.000000" y="-5.000000" width="36.645866" height="29.975600" rx="0.000000" />
</g>
<g style="fill:#FFFFFF; fill-opacity:1.0000; 
stroke:#FFFFFF; stroke-width:0.0212; stroke-opacity:1; 
stroke-linecap:round; stroke-linejoin:round;">
<g >
</g>
<g >
</g>
<g style="fill:#B2803A; fill-opacity:1.0000; 
stroke:#B2803A; stroke-width:0.0212; stroke-opacity:1; 
stroke-linecap:round; stroke-linejoin:round;">
</g>
<g style="fill:#B2803A; fill-opacity:1.0000; 
stroke:#B2803A; stroke-width:0.0000; stroke-opacity:1; 
stroke-linecap:round; stroke-linejoin:round;">
<path style="fill:#B2803A; fill-opacity:1.0000; 
stroke:#B2803A; stroke-width:0.0000; stroke-opacity:1; 
stroke-linecap:round; stroke-linejoin:round;fill-rule:evenodd;"
d="M 1.5007,4.5840
1.5007,2.5520
3.5327,2.5520
3.5327,4.5840
Z" /> 
<circle cx="2.5167" cy="6.1080" r="1.0160" /> 
</g>
<g >
</g>
<g style="fill:#B2803A; fill-opacity:1.0000; 
stroke:#B2803A; stroke-width:0.0000; stroke-opacity:1; 
stroke-linecap:round; stroke-linejoin:round;">
<path style="fill:#B2803A; fill-opacity:1.0000; 
stroke:#B2803A; stroke-width:0.0000; stroke-opacity:1; 
stroke-linecap:round; stroke-linejoin:round;fill-rule:evenodd;"
d="M 9.2223,18.3508
7.1903,18.3508
7.1903,16.3188
9.2223,16.3188
Z" /> 
<circle cx="10.7463" cy="17.3348" r="1.0160" /> 
</g>
<g >
</g>
<g >
</g>
<g >
</g>
<g >
</g>
<g >
</g>
<g >
</g>
<g >
</g>
<g >
</g>
<g style="fill:#B2803A; fill-opacity:1.0000; 
stroke:#B2803A; stroke-width:0.0000; stroke-opacity:1; 
stroke-linecap:round; stroke-linejoin:round;">
<circle cx="9.8484" cy="3.6696" r="0.7000" /> 
</g>
<g style="fill:#B2803A; fill-opacity:1.0000; 
stroke:#B2803A; stroke-width:0.0212; stroke-opacity:1; 
stroke-linecap:round; stroke-linejoin:round;">
</g>
<g style="fill:#B2803A; fill-opacity:1.0000; 
stroke:#B2803A; stroke-width:0.0000; stroke-opacity:1; 
stroke-linecap:round; stroke-linejoin:round;">
<circle cx="9.8484" cy="6.2096" r="0.7000" /> 
</g>
<g style="fill:#B2803A; fill-opacity:1.0000; 
stroke:#B2803A; stroke-width:0.0212; stroke-opacity:1; 
stroke-linecap:round; stroke-linejoin:round;">
</g>
<g style="fill:#B2803A; fill-opacity:1.0000; 
stroke:#B2803A; stroke-width:0.0000; stroke-opacity:1; 
stroke-linecap:round; stroke-linejoin:round;">
<circle cx="19.8484" cy="6.2096" r="0.7000" /> 
</g>
<g style="fill:#B2803A; fill-opacity:1.0000; 
stroke:#B2803A; stroke-width:0.0212; stroke-opacity:1; 
stroke-linecap:round; stroke-linejoin:round;">
</g>
<g style="fill:#B2803A; fill-opacity:1.0000; 
stroke:#B2803A; stroke-width:0.0000; stroke-opacity:1; 
stroke-linecap:round; stroke-linejoin:round;">
<circle cx="19.8484" cy="3.6696" r="0.7000" /> 
</g>
<g style="fill:#B2803A; fill-opacity:1.0000; 
stroke:#B2803A; stroke-width:0.0212; stroke-opacity:1; 
stroke-linecap:round; stroke-linejoin:round;">
</g>
<g >
</g>
<g style="fill:#121212; fill-opacity:1.0000; 
stroke:#121212; stroke-width:0.0212; stroke-opacity:1; 
stroke-linecap:round; stroke-linejoin:round;">
</g>
<g style="fill:#121212; fill-opacity:1.0000; 
stroke:#121212; stroke-width:0.0000; stroke-opacity:1; 
stroke-linecap:round; stroke-linejoin:round;">
<circle cx="14.5055" cy="8.8512" r="0.3429" /> 
</g>
<g style="fill:#121212; fill-opacity:1.0000; 
stroke:#121212; stroke-width:0.0212; stroke-opacity:1; 
stroke-linecap:round; stroke-linejoin:round;">
</g>
<g style="fill:#121212; fill-opacity:1.0000; 
stroke:#121212; stroke-width:0.0000; stroke-opacity:1; 
stroke-linecap:round; stroke-linejoin:round;">
<circle cx="22.1763" cy="13.9820" r="0.3429" /> 
</g>
<g style="fill:#121212; fill-opacity:1.0000; 
stroke:#121212; stroke-width:0.0212; stroke-opacity:1; 
stroke-linecap:round; stroke-linejoin:round;">
</g>
<g style="fill:#121212; fill-opacity:1.0000; 
stroke:#121212; stroke-width:0.0000; stroke-opacity:1; 
stroke-linecap:round; stroke-linejoin:round;">
<circle cx="3.3803" cy="9.3592" r="0.3429" /> 
</g>
<g style="fill:#121212; fill-opacity:1.0000; 
stroke:#121212; stroke-width:0.0212; stroke-opacity:1; 
stroke-linecap:round; stroke-linejoin:round;">
</g>
<g >
</g>
<g >
</g>
<g style="fill:#B2803A; fill-opacity:1.0000; 
stroke:#B2803A; stroke-width:0.0212; stroke-opacity:1; 
stroke-linecap:round; stroke-linejoin:round;">
<g >
</g>
<g style="fill:#B2803A; fill-opacity:1.0000; 
stroke:#B2803A; stroke-width:0.0000; stroke-opacity:1; 
stroke-linecap:round; stroke-linejoin:round;">
<path style="fill:#B2803A; fill-opacity:1.0000; 
stroke:#B2803A; stroke-width:0.0000; stroke-opacity:1; 
stroke-linecap:round; stroke-linejoin:round;fill-rule:evenodd;"
d="M 26.0685,1.3937
26.0942,1.4382
26.0954,1.4513
26.0954,19.3499
26.0778,19.3982
26.0332,19.4240
26.0202,19.4251
1.0096,19.4251
0.9612,19.4075
0.9355,19.3630
0.9344,19.3499
0.9344,18.3705
6.9898,18.3705
7.0014,18.4290
7.0014,18.4290
7.0457,18.4954
7.1120,18.5397
7.1413,18.5455
7.1705,18.5513
7.1705,18.5513
9.2420,18.5513
9.2615,18.5474
9.3005,18.5397
9.3668,18.4954
9.4111,18.4290
9.4228,18.3705
9.4228,17.6668
9.4404,17.6185
9.4849,17.5928
9.5356,17.6017
9.5686,17.6411
9.5706,17.6474
9.5988,17.7525
9.5988,17.7525
9.6887,17.9454
9.8108,18.1197
9.9613,18.2703
9.9613,18.2703
9.9613,18.2703
10.1357,18.3923
10.1357,18.3923
10.1357,18.3923
10.2144,18.4290
10.3286,18.4823
10.5342,18.5374
10.7463,18.5559
10.9583,18.5374
11.1639,18.4823
11.3568,18.3923
11.5312,18.2703
11.6817,18.1197
11.8038,17.9454
11.8938,17.7525
11.9489,17.5468
11.9674,17.3348
11.9489,17.1227
11.8938,16.9171
11.8773,16.8818
11.8038,16.7242
11.8038,16.7242
11.6817,16.5499
11.5312,16.3993
11.3568,16.2773
11.1639,16.1873
11.1639,16.1873
11.1639,16.1873
10.9583,16.1322
10.9583,16.1322
10.9583,16.1322
10.7463,16.1137
10.5342,16.1322
10.3286,16.1873
10.3286,16.1873
10.1357,16.2773
10.1357,16.2773
9.9613,16.3993
9.8108,16.5499
9.6887,16.7242
9.6887,16.7242
9.5988,16.9171
9.5988,16.9171
9.5706,17.0222
9.5411,17.0644
9.4914,17.0777
9.4448,17.0559
9.4231,17.0093
9.4228,17.0028
9.4228,16.2991
9.4111,16.2406
9.4111,16.2406
9.3668,16.1742
9.3005,16.1299
9.3005,16.1299
9.2420,16.1183
9.2420,16.1183
7.1705,16.1183
7.1705,16.1183
7.1120,16.1299
7.1120,16.1299
7.0457,16.1742
7.0014,16.2406
7.0014,16.2406
6.9898,16.2991
6.9898,18.3705
0.9344,18.3705
0.9344,7.4984
7.5940,7.4984
7.6043,7.6625
7.6043,7.6625
7.6551,7.8188
7.6551,7.8188
7.7009,7.8909
7.7432,7.9575
7.8630,8.0700
8.0070,8.1492
8.1662,8.1901
8.1662,8.1901
8.2893,8.1901
8.2893,8.1901
8.4114,8.1747
8.5642,8.1142
8.6972,8.0176
8.8020,7.8909
8.8719,7.7422
8.9027,7.5808
8.8924,7.4167
8.8924,7.4167
8.8924,7.4167
8.8416,7.2604
8.8416,7.2604
8.7536,7.1217
8.6993,7.0707
8.6338,7.0092
8.6338,7.0091
8.4897,6.9300
8.4799,6.9275
8.3305,6.8891
8.2074,6.8891
8.1828,6.8922
8.0853,6.9045
8.0853,6.9045
7.9325,6.9650
7.9325,6.9650
7.7995,7.0616
7.6948,7.1883
7.6248,7.3370
7.5940,7.4984
0.9344,7.4984
0.9344,5.9810
1.2529,5.9810
1.2529,5.9810
2.0245,5.9810
2.0087,6.0350
2.0087,6.1810
2.0245,6.2350
1.2529,6.2350
1.2612,6.3294
1.3187,6.5440
1.3187,6.5440
1.4126,6.7454
1.5401,6.9275
1.6972,7.0846
1.8792,7.2121
2.0806,7.3060
2.0806,7.3060
2.2953,7.3635
2.2953,7.3635
2.3897,7.3717
2.3897,7.3717
2.3897,6.6030
2.4803,6.6160
2.5530,6.6160
2.6437,6.6030
2.6437,7.3717
2.7380,7.3635
2.7380,7.3635
2.9527,7.3060
2.9527,7.3060
3.1541,7.2121
3.3361,7.0846
3.4933,6.9275
3.6207,6.7454
3.7146,6.5440
3.7146,6.5440
3.7721,6.3294
3.7804,6.2350
3.0088,6.2350
3.0163,6.2096
8.9429,6.2096
8.9627,6.3979
8.9627,6.3979
9.0212,6.5779
9.0212,6.5779
9.1158,6.7418
9.2425,6.8825
9.2425,6.8825
9.3956,6.9937
9.3956,6.9938
9.5686,7.0707
9.5686,7.0707
9.5686,7.0707
9.5686,7.0707
9.7537,7.1101
9.7537,7.1101
9.9430,7.1101
9.9430,7.1101
10.1282,7.0707
10.1282,7.0707
10.1282,7.0707
10.2665,7.0092
10.3011,6.9938
10.4542,6.8825
10.5809,6.7418
10.6755,6.5779
10.7340,6.3979
10.7538,6.2096
18.9429,6.2096
18.9627,6.3979
18.9627,6.3979
19.0212,6.5779
19.0212,6.5779
19.1158,6.7418
19.2425,6.8825
19.2425,6.8825
19.3956,6.9937
19.3956,6.9938
19.5686,7.0707
19.5686,7.0707
19.5686,7.0707
19.5686,7.0707
19.7537,7.1101
19.7537,7.1101
19.9430,7.1101
19.9430,7.1101
20.1282,7.0707
20.1282,7.0707
20.1282,7.0707
20.2665,7.0092
20.3011,6.9938
20.4542,6.8825
20.5809,6.7418
20.6755,6.5779
20.7340,6.3979
20.7538,6.2096
20.7340,6.0213
20.6903,5.8866
20.6755,5.8413
20.6755,5.8413
20.5809,5.6774
20.4542,5.5367
20.4542,5.5367
20.3011,5.4254
20.3011,5.4254
20.1282,5.3485
20.1282,5.3485
20.0554,5.3330
19.9430,5.3091
19.7537,5.3091
19.6413,5.3330
19.5686,5.3485
19.3956,5.4254
19.3956,5.4254
19.2425,5.5367
19.2425,5.5367
19.1158,5.6774
19.0212,5.8413
19.0212,5.8413
18.9627,6.0213
18.9627,6.0213
18.9429,6.2096
18.9429,6.2096
10.7538,6.2096
10.7340,6.0213
10.6903,5.8866
10.6755,5.8413
10.6755,5.8413
10.5809,5.6774
10.4542,5.5367
10.4542,5.5367
10.3011,5.4254
10.3011,5.4254
10.1282,5.3485
10.1282,5.3485
10.0554,5.3330
9.9430,5.3091
9.7537,5.3091
9.6413,5.3330
9.5686,5.3485
9.3956,5.4254
9.3956,5.4254
9.2425,5.5367
9.2425,5.5367
9.1158,5.6774
9.0212,5.8413
9.0212,5.8413
8.9627,6.0213
8.9627,6.0213
8.9429,6.2096
8.9429,6.2096
3.0163,6.2096
3.0247,6.1810
3.0247,6.0350
3.0088,5.9810
3.7804,5.9810
3.7804,5.9810
3.7721,5.8866
3.7146,5.6720
3.7146,5.6720
3.6207,5.4706
3.6207,5.4706
3.4933,5.2885
3.3361,5.1314
3.1541,5.0039
2.9909,4.9279
2.9545,4.8915
2.9501,4.8402
2.9796,4.7981
3.0227,4.7845
3.5524,4.7845
3.5719,4.7806
3.6109,4.7729
3.6772,4.7286
3.7215,4.6622
3.7332,4.6037
3.7332,3.6696
8.8897,3.6696
8.9082,3.8566
8.9082,3.8566
8.9627,4.0364
8.9627,4.0365
9.0513,4.2022
9.0513,4.2022
9.0896,4.2488
9.4903,3.8480
9.5207,3.9076
9.6103,3.9972
9.6699,4.0276
9.2692,4.4284
9.3158,4.4667
9.3158,4.4667
9.4815,4.5552
9.4815,4.5552
9.6614,4.6098
9.8484,4.6282
10.0354,4.6098
10.0354,4.6098
10.2152,4.5552
10.2152,4.5552
10.3809,4.4667
10.3809,4.4667
10.4276,4.4284
10.0268,4.0276
10.0864,3.9972
10.1760,3.9076
10.2064,3.8480
10.6072,4.2488
10.6454,4.2022
10.6454,4.2022
10.7340,4.0365
10.7340,4.0364
10.7886,3.8566
10.7886,3.8566
10.8070,3.6696
18.9429,3.6696
18.9627,3.8579
18.9627,3.8579
19.0212,4.0379
19.0212,4.0379
19.1158,4.2018
19.2425,4.3425
19.2425,4.3425
19.3956,4.4537
19.3956,4.4538
19.5686,4.5307
19.5686,4.5307
19.5686,4.5307
19.5686,4.5307
19.7537,4.5701
19.7537,4.5701
19.9430,4.5701
19.9430,4.5701
20.1282,4.5307
20.1282,4.5307
20.1282,4.5307
20.1978,4.4998
20.3011,4.4538
20.4542,4.3425
20.5809,4.2018
20.6755,4.0379
20.7340,3.8579
20.7538,3.6696
20.7340,3.4813
20.6888,3.3420
20.6755,3.3013
20.6755,3.3013
20.5809,3.1374
20.4542,2.9967
20.4542,2.9967
20.3011,2.8854
20.3011,2.8854
20.1282,2.8085
20.1282,2.8085
20.0554,2.7930
19.9430,2.7691
19.7537,2.7691
19.6413,2.7930
19.5686,2.8085
19.3956,2.8854
19.3956,2.8854
19.2425,2.9967
19.2425,2.9967
19.1158,3.1374
19.0212,3.3013
19.0212,3.3013
18.9627,3.4813
18.9627,3.4813
18.9429,3.6696
18.9429,3.6696
10.8070,3.6696
10.7886,3.4826
10.7886,3.4826
10.7340,3.3028
10.7340,3.3027
10.6454,3.1370
10.6454,3.1370
10.6072,3.0904
10.2064,3.4912
10.1760,3.4316
10.0864,3.3420
10.0268,3.3116
10.4276,2.9108
10.3809,2.8725
10.3809,2.8725
10.2152,2.7840
10.2152,2.7840
10.0354,2.7294
9.8484,2.7110
9.6614,2.7294
9.6613,2.7294
9.4815,2.7840
9.4815,2.7840
9.3158,2.8725
9.3158,2.8725
9.2692,2.9108
9.6699,3.3116
9.6103,3.3420
9.5207,3.4316
9.4903,3.4912
9.0896,3.0904
9.0513,3.1370
9.0513,3.1370
8.9627,3.3027
8.9627,3.3028
8.9082,3.4826
8.9082,3.4826
8.8897,3.6696
3.7332,3.6696
3.7332,2.5323
3.7215,2.4738
3.6772,2.4074
3.6109,2.3631
3.6109,2.3631
3.5524,2.3515
3.5524,2.3515
1.4809,2.3515
1.4809,2.3515
1.4224,2.3631
1.4224,2.3631
1.3561,2.4074
1.3118,2.4738
1.3118,2.4738
1.3002,2.5323
1.3002,4.6037
1.3118,4.6622
1.3118,4.6622
1.3561,4.7286
1.4224,4.7729
1.4517,4.7787
1.4809,4.7845
2.0106,4.7845
2.0590,4.8021
2.0847,4.8466
2.0758,4.8973
2.0424,4.9279
1.8792,5.0039
1.8792,5.0039
1.6972,5.1314
1.5401,5.2885
1.4126,5.4706
1.4126,5.4706
1.3187,5.6720
1.3187,5.6720
1.2612,5.8866
1.2529,5.9810
0.9344,5.9810
0.9344,2.2984
16.5440,2.2984
16.5543,2.4625
16.5543,2.4625
16.6051,2.6188
16.6051,2.6188
16.6932,2.7575
16.6932,2.7575
16.8130,2.8700
16.9570,2.9492
17.1162,2.9901
17.1162,2.9901
17.2393,2.9901
17.2393,2.9901
17.3614,2.9747
17.5142,2.9142
17.6472,2.8176
17.7520,2.6909
17.8219,2.5422
17.8527,2.3808
17.8424,2.2167
17.8424,2.2167
17.8424,2.2167
17.7916,2.0604
17.7916,2.0604
17.7036,1.9217
17.6953,1.9139
17.5838,1.8092
17.5838,1.8091
17.4397,1.7300
17.4397,1.7300
17.2805,1.6891
17.1574,1.6891
17.1328,1.6922
17.0353,1.7045
17.0353,1.7045
16.8825,1.7650
16.8825,1.7650
16.7495,1.8616
16.6448,1.9883
16.5748,2.1370
16.5440,2.2984
0.9344,2.2984
0.9344,1.4513
0.9520,1.4030
0.9965,1.3772
1.0096,1.3761
26.0202,1.3761
Z" /> 
</g>
</g>
</g>
<g style="fill:#000000; fill-opacity:1.0000; 
stroke:#000000; stroke-width:0.0000; stroke-opacity:1; 
stroke-linecap:round; stroke-linejoin:round;">
<circle cx="14.5055" cy="8.8512" r="0.1651" /> 
</g>
<g style="fill:#000000; fill-opacity:1.0000; 
stroke:#000000; stroke-width:0.0212; stroke-opacity:1; 
stroke-linecap:round; stroke-linejoin:round;">
</g>
<g style="fill:#000000; fill-opacity:1.0000; 
stroke:#000000; stroke-width:0.0000; stroke-opacity:1; 
stroke-linecap:round; stroke-linejoin:round;">
<circle cx="22.1763" cy="13.9820" r="0.1651" /> 
</g>
<g style="fill:#000000; fill-opacity:1.0000; 
stroke:#000000; stroke-width:0.0212; stroke-opacity:1; 
stroke-linecap:round; stroke-linejoin:round;">
</g>
<g style="fill:#000000; fill-opacity:1.0000; 
stroke:#000000; stroke-width:0.0000; stroke-opacity:1; 
stroke-linecap:round; stroke-linejoin:round;">
<circle cx="3.3803" cy="9.3592" r="0.1651" /> 
</g>
<g style="fill:#000000; fill-opacity:1.0000; 
stroke:#000000; stroke-width:0.0212; stroke-opacity:1; 
stroke-linecap:round; stroke-linejoin:round;">
</g>
<g style="fill:#000000; fill-opacity:1.0000; 
stroke:#000000; stroke-width:0.0000; stroke-opacity:1; 
stroke-linecap:round; stroke-linejoin:round;">
<circle cx="2.5167" cy="3.5680" r="0.5080" /> 
</g>
<g style="fill:#000000; fill-opacity:1.0000; 
stroke:#000000; stroke-width:0.0212; stroke-opacity:1; 
stroke-linecap:round; stroke-linejoin:round;">
</g>
<g style="fill:#000000; fill-opacity:1.0000; 
stroke:#000000; stroke-width:0.0000; stroke-opacity:1; 
stroke-linecap:round; stroke-linejoin:round;">
<circle cx="2.5167" cy="6.1080" r="0.5080" /> 
</g>
<g style="fill:#000000; fill-opacity:1.0000; 
stroke:#000000; stroke-width:0.0212; stroke-opacity:1; 
stroke-linecap:round; stroke-linejoin:round;">
</g>
<g style="fill:#000000; fill-opacity:1.0000; 
stroke:#000000; stroke-width:0.0000; stroke-opacity:1; 
stroke-linecap:round; stroke-linejoin:round;">
<circle cx="8.2063" cy="17.3348" r="0.5080" /> 
</g>
<g style="fill:#000000; fill-opacity:1.0000; 
stroke:#000000; stroke-width:0.0212; stroke-opacity:1; 
stroke-linecap:round; stroke-linejoin:round;">
</g>
<g style="fill:#000000; fill-opacity:1.0000; 
stroke:#000000; stroke-width:0.0000; stroke-opacity:1; 
stroke-linecap:round; stroke-linejoin:round;">
<circle cx="10.7463" cy="17.3348" r="0.5080" /> 
</g>
<g style="fill:#000000; fill-opacity:1.0000; 
stroke:#000000; stroke-width:0.0212; stroke-opacity:1; 
stroke-linecap:round; stroke-linejoin:round;">
</g>
<g style="fill:#000000; fill-opacity:1.0000; 
stroke:#000000; stroke-width:0.0000; stroke-opacity:1; 
stroke-linecap:round; stroke-linejoin:round;">
<circle cx="8.2484" cy="7.5396" r="0.4000" /> 
</g>
<g style="fill:#000000; fill-opacity:1.0000; 
stroke:#000000; stroke-width:0.0212; stroke-opacity:1; 
stroke-linecap:round; stroke-linejoin:round;">
</g>
<g style="fill:#000000; fill-opacity:1.0000; 
stroke:#000000; stroke-width:0.0000; stroke-opacity:1; 
stroke-linecap:round; stroke-linejoin:round;">
<circle cx="17.1984" cy="2.3396" r="0.4000" /> 
</g>
<g style="fill:#000000; fill-opacity:1.0000; 
stroke:#000000; stroke-width:0.0212; stroke-opacity:1; 
stroke-linecap:round; stroke-linejoin:round;">
</g>
<g style="fill:#000000; fill-opacity:1.0000; 
stroke:#000000; stroke-width:0.0000; stroke-opacity:1; 
stroke-linecap:round; stroke-linejoin:round;">
<circle cx="9.8484" cy="3.6696" r="0.4000" /> 
</g>
<g style="fill:#000000; fill-opacity:1.0000; 
stroke:#000000; stroke-width:0.0212; stroke-opacity:1; 
stroke-linecap:round; stroke-linejoin:round;">
</g>
<g style="fill:#000000; fill-opacity:1.0000; 
stroke:#000000; stroke-width:0.0000; stroke-opacity:1; 
stroke-linecap:round; stroke-linejoin:round;">
<circle cx="9.8484" cy="6.2096" r="0.4000" /> 
</g>
<g style="fill:#000000; fill-opacity:1.0000; 
stroke:#000000; stroke-width:0.0212; stroke-opacity:1; 
stroke-linecap:round; stroke-linejoin:round;">
</g>
<g style="fill:#000000; fill-opacity:1.0000; 
stroke:#000000; stroke-width:0.0000; stroke-opacity:1; 
stroke-linecap:round; stroke-linejoin:round;">
<circle cx="19.8484" cy="6.2096" r="0.4000" /> 
</g>
<g style="fill:#000000; fill-opacity:1.0000; 
stroke:#000000; stroke-width:0.0212; stroke-opacity:1; 
stroke-linecap:round; stroke-linejoin:round;">
</g>
<g style="fill:#000000; fill-opacity:1.0000; 
stroke:#000000; stroke-width:0.0000; stroke-opacity:1; 
stroke-linecap:round; stroke-linejoin:round;">
<circle cx="19.8484" cy="3.6696" r="0.4000" /> 
</g>
<g style="fill:#000000; fill-opacity:1.0000; 
stroke:#000000; stroke-width:0.0212; stroke-opacity:1; 
stroke-linecap:round; stroke-linejoin:round;">
</g>
<g style="fill:#FFFFFF; fill-opacity:1.0000; 
stroke:#FFFFFF; stroke-width:0.0212; stroke-opacity:1; 
stroke-linecap:round; stroke-linejoin:round;">
<g >
</g>
<g style="fill:#37CBCB; fill-opacity:1.0000; 
stroke:#37CBCB; stroke-width:0.0212; stroke-opacity:1; 
stroke-linecap:round; stroke-linejoin:round;">
</g>
<g style="fill:#37CBCB; fill-opacity:1.0000; 
stroke:#37CBCB; stroke-width:0.0000; stroke-opacity:1; 
stroke-linecap:round; stroke-linejoin:round;">
<path style="fill:#37CBCB; fill-opacity:1.0000; 
stroke:#37CBCB; stroke-width:0.0000; stroke-opacity:1; 
stroke-linecap:round; stroke-linejoin:round;fill-rule:evenodd;"
d="M 17.2807,12.2194
17.2807,10.9694
18.7807,10.9694
18.7807,12.2194
Z" /> 
<path style="fill:#37CBCB; fill-opacity:1.0000; 
stroke:#37CBCB; stroke-width:0.0000; stroke-opacity:1; 
stroke-linecap:round; stroke-linejoin:round;fill-rule:evenodd;"
d="M 19.7807,12.2194
19.7807,10.9694
21.2807,10.9694
21.2807,12.2194
Z" /> 
</g>
<g >
</g>
<g style="fill:#37CBCB; fill-opacity:1.0000; 
stroke:#37CBCB; stroke-width:0.0000; stroke-opacity:1; 
stroke-linecap:round; stroke-linejoin:round;">
<path style="fill:#37CBCB; fill-opacity:1.0000; 
stroke:#37CBCB; stroke-width:0.0000; stroke-opacity:1; 
stroke-linecap:round; stroke-linejoin:round;fill-rule:evenodd;"
d="M 1.5007,4.5840
1.5007,2.5520
3.5327,2.5520
3.5327,4.5840
Z" /> 
<circle cx="2.5167" cy="6.1080" r="1.0160" /> 
</g>
<g >
</g>
<g style="fill:#37CBCB; fill-opacity:1.0000; 
stroke:#37CBCB; stroke-width:0.0000; stroke-opacity:1; 
stroke-linecap:round; stroke-linejoin:round;">
<path style="fill:#37CBCB; fill-opacity:1.0000; 
stroke:#37CBCB; stroke-width:0.0000; stroke-opacity:1; 
stroke-linecap:round; stroke-linejoin:round;fill-rule:evenodd;"
d="M 9.2223,18.3508
7.1903,18.3508
7.1903,16.3188
9.2223,16.3188
Z" /> 
<circle cx="10.7463" cy="17.3348" r="1.0160" /> 
</g>
<g >
</g>
<g style="fill:#37CBCB; fill-opacity:1.0000; 
stroke:#37CBCB; stroke-width:0.0000; stroke-opacity:1; 
stroke-linecap:round; stroke-linejoin:round;">
<path style="fill:#37CBCB; fill-opacity:1.0000; 
stroke:#37CBCB; stroke-width:0.0000; stroke-opacity:1; 
stroke-linecap:round; stroke-linejoin:round;fill-rule:evenodd;"
d="M 7.0783,6.9380
5.7783,6.9380
5.7783,5.4380
7.0783,5.4380
Z" /> 
<path style="fill:#37CBCB; fill-opacity:1.0000; 
stroke:#37CBCB; stroke-width:0.0000; stroke-opacity:1; 
stroke-linecap:round; stroke-linejoin:round;fill-rule:evenodd;"
d="M 7.0783,4.2380
5.7783,4.2380
5.7783,2.7380
7.0783,2.7380
Z" /> 
</g>
<g >
</g>
<g style="fill:#37CBCB; fill-opacity:1.0000; 
stroke:#37CBCB; stroke-width:0.0000; stroke-opacity:1; 
stroke-linecap:round; stroke-linejoin:round;">
<path style="fill:#37CBCB; fill-opacity:1.0000; 
stroke:#37CBCB; stroke-width:0.0000; stroke-opacity:1; 
stroke-linecap:round; stroke-linejoin:round;fill-rule:evenodd;"
d="M 17.1807,10.0092
17.1807,8.7092
18.6807,8.7092
18.6807,10.0092
Z" /> 
<path style="fill:#37CBCB; fill-opacity:1.0000; 
stroke:#37CBCB; stroke-width:0.0000; stroke-opacity:1; 
stroke-linecap:round; stroke-linejoin:round;fill-rule:evenodd;"
d="M 19.8807,10.0092
19.8807,8.7092
21.3807,8.7092
21.3807,10.0092
Z" /> 
</g>
<g >
</g>
<g style="fill:#37CBCB; fill-opacity:1.0000; 
stroke:#37CBCB; stroke-width:0.0000; stroke-opacity:1; 
stroke-linecap:round; stroke-linejoin:round;">
<path style="fill:#37CBCB; fill-opacity:1.0000; 
stroke:#37CBCB; stroke-width:0.0000; stroke-opacity:1; 
stroke-linecap:round; stroke-linejoin:round;fill-rule:evenodd;"
d="M 2.7027,11.5332
2.7027,10.2332
4.2027,10.2332
4.2027,11.5332
Z" /> 
<path style="fill:#37CBCB; fill-opacity:1.0000; 
stroke:#37CBCB; stroke-width:0.0000; stroke-opacity:1; 
stroke-linecap:round; stroke-linejoin:round;fill-rule:evenodd;"
d="M 5.4027,11.5332
5.4027,10.2332
6.9027,10.2332
6.9027,11.5332
Z" /> 
</g>
<g >
</g>
<g style="fill:#37CBCB; fill-opacity:1.0000; 
stroke:#37CBCB; stroke-width:0.0000; stroke-opacity:1; 
stroke-linecap:round; stroke-linejoin:round;">
<path style="fill:#37CBCB; fill-opacity:1.0000; 
stroke:#37CBCB; stroke-width:0.0000; stroke-opacity:1; 
stroke-linecap:round; stroke-linejoin:round;fill-rule:evenodd;"
d="M 6.9535,12.2652
6.9535,13.5652
5.4535,13.5652
5.4535,12.2652
Z" /> 
<path style="fill:#37CBCB; fill-opacity:1.0000; 
stroke:#37CBCB; stroke-width:0.0000; stroke-opacity:1; 
stroke-linecap:round; stroke-linejoin:round;fill-rule:evenodd;"
d="M 4.2535,12.2652
4.2535,13.5652
2.7535,13.5652
2.7535,12.2652
Z" /> 
</g>
<g >
</g>
<g style="fill:#37CBCB; fill-opacity:1.0000; 
stroke:#37CBCB; stroke-width:0.0000; stroke-opacity:1; 
stroke-linecap:round; stroke-linejoin:round;">
<path style="fill:#37CBCB; fill-opacity:1.0000; 
stroke:#37CBCB; stroke-width:0.0000; stroke-opacity:1; 
stroke-linecap:round; stroke-linejoin:round;fill-rule:evenodd;"
d="M 21.3807,13.3828
21.3807,14.6828
19.8807,14.6828
19.8807,13.3828
Z" /> 
<path style="fill:#37CBCB; fill-opacity:1.0000; 
stroke:#37CBCB; stroke-width:0.0000; stroke-opacity:1; 
stroke-linecap:round; stroke-linejoin:round;fill-rule:evenodd;"
d="M 18.6807,13.3828
18.6807,14.6828
17.1807,14.6828
17.1807,13.3828
Z" /> 
</g>
<g >
</g>
<g style="fill:#37CBCB; fill-opacity:1.0000; 
stroke:#37CBCB; stroke-width:0.0000; stroke-opacity:1; 
stroke-linecap:round; stroke-linejoin:round;">
<circle cx="23.0399" cy="6.2096" r="0.7620" /> 
</g>
<g style="fill:#37CBCB; fill-opacity:1.0000; 
stroke:#37CBCB; stroke-width:0.0212; stroke-opacity:1; 
stroke-linecap:round; stroke-linejoin:round;">
</g>
<g >
</g>
<g style="fill:#37CBCB; fill-opacity:1.0000; 
stroke:#37CBCB; stroke-width:0.0212; stroke-opacity:1; 
stroke-linecap:round; stroke-linejoin:round;">
</g>
<g style="fill:#37CBCB; fill-opacity:1.0000; 
stroke:#37CBCB; stroke-width:0.0000; stroke-opacity:1; 
stroke-linecap:round; stroke-linejoin:round;">
<path style="fill:#37CBCB; fill-opacity:1.0000; 
stroke:#37CBCB; stroke-width:0.0000; stroke-opacity:1; 
stroke-linecap:round; stroke-linejoin:round;fill-rule:evenodd;"
d="M 7.7793,10.6498
7.7793,10.0498
9.3293,10.0498
9.3293,10.6498
Z" /> 
<path style="fill:#37CBCB; fill-opacity:1.0000; 
stroke:#37CBCB; stroke-width:0.0000; stroke-opacity:1; 
stroke-linecap:round; stroke-linejoin:round;fill-rule:evenodd;"
d="M 7.7793,11.9198
7.7793,11.3198
9.3293,11.3198
9.3293,11.9198
Z" /> 
<path style="fill:#37CBCB; fill-opacity:1.0000; 
stroke:#37CBCB; stroke-width:0.0000; stroke-opacity:1; 
stroke-linecap:round; stroke-linejoin:round;fill-rule:evenodd;"
d="M 7.7793,13.1898
7.7793,12.5898
9.3293,12.5898
9.3293,13.1898
Z" /> 
<path style="fill:#37CBCB; fill-opacity:1.0000; 
stroke:#37CBCB; stroke-width:0.0000; stroke-opacity:1; 
stroke-linecap:round; stroke-linejoin:round;fill-rule:evenodd;"
d="M 7.7793,14.4598
7.7793,13.8598
9.3293,13.8598
9.3293,14.4598
Z" /> 
<path style="fill:#37CBCB; fill-opacity:1.0000; 
stroke:#37CBCB; stroke-width:0.0000; stroke-opacity:1; 
stroke-linecap:round; stroke-linejoin:round;fill-rule:evenodd;"
d="M 13.1793,14.4598
13.1793,13.8598
14.7293,13.8598
14.7293,14.4598
Z" /> 
<path style="fill:#37CBCB; fill-opacity:1.0000; 
stroke:#37CBCB; stroke-width:0.0000; stroke-opacity:1; 
stroke-linecap:round; stroke-linejoin:round;fill-rule:evenodd;"
d="M 13.1793,13.1898
13.1793,12.5898
14.7293,12.5898
14.7293,13.1898
Z" /> 
<path style="fill:#37CBCB; fill-opacity:1.0000; 
stroke:#37CBCB; stroke-width:0.0000; stroke-opacity:1; 
stroke-linecap:round; stroke-linejoin:round;fill-rule:evenodd;"
d="M 13.1793,11.9198
13.1793,11.3198
14.7293,11.3198
14.7293,11.9198
Z" /> 
<path style="fill:#37CBCB; fill-opacity:1.0000; 
stroke:#37CBCB; stroke-width:0.0000; stroke-opacity:1; 
stroke-linecap:round; stroke-linejoin:round;fill-rule:evenodd;"
d="M 13.1793,10.6498
13.1793,10.0498
14.7293,10.0498
14.7293,10.6498
Z" /> 
</g>
<g >
</g>
<g style="fill:#37CBCB; fill-opacity:1.0000; 
stroke:#37CBCB; stroke-width:0.0000; stroke-opacity:1; 
stroke-linecap:round; stroke-linejoin:round;">
<circle cx="9.8484" cy="3.6696" r="0.7000" /> 
</g>
<g style="fill:#37CBCB; fill-opacity:1.0000; 
stroke:#37CBCB; stroke-width:0.0212; stroke-opacity:1; 
stroke-linecap:round; stroke-linejoin:round;">
</g>
<g style="fill:#37CBCB; fill-opacity:1.0000; 
stroke:#37CBCB; stroke-width:0.0000; stroke-opacity:1; 
stroke-linecap:round; stroke-linejoin:round;">
<circle cx="9.8484" cy="6.2096" r="0.7000" /> 
</g>
<g style="fill:#37CBCB; fill-opacity:1.0000; 
stroke:#37CBCB; stroke-width:0.0212; stroke-opacity:1; 
stroke-linecap:round; stroke-linejoin:round;">
</g>
<g style="fill:#37CBCB; fill-opacity:1.0000; 
stroke:#37CBCB; stroke-width:0.0000; stroke-opacity:1; 
stroke-linecap:round; stroke-linejoin:round;">
<circle cx="19.8484" cy="6.2096" r="0.7000" /> 
</g>
<g style="fill:#37CBCB; fill-opacity:1.0000; 
stroke:#37CBCB; stroke-width:0.0212; stroke-opacity:1; 
stroke-linecap:round; stroke-linejoin:round;">
</g>
<g style="fill:#37CBCB; fill-opacity:1.0000; 
stroke:#37CBCB; stroke-width:0.0000; stroke-opacity:1; 
stroke-linecap:round; stroke-linejoin:round;">
<circle cx="19.8484" cy="3.6696" r="0.7000" /> 
</g>
<g style="fill:#37CBCB; fill-opacity:1.0000; 
stroke:#37CBCB; stroke-width:0.0212; stroke-opacity:1; 
stroke-linecap:round; stroke-linejoin:round;">
</g>
<g >
</g>
<g style="fill:#121212; fill-opacity:1.0000; 
stroke:#121212; stroke-width:0.0212; stroke-opacity:1; 
stroke-linecap:round; stroke-linejoin:round;">
</g>
<g style="fill:#121212; fill-opacity:1.0000; 
stroke:#121212; stroke-width:0.0000; stroke-opacity:1; 
stroke-linecap:round; stroke-linejoin:round;">
<circle cx="14.5055" cy="8.8512" r="0.3429" /> 
</g>
<g style="fill:#121212; fill-opacity:1.0000; 
stroke:#121212; stroke-width:0.0212; stroke-opacity:1; 
stroke-linecap:round; stroke-linejoin:round;">
</g>
<g style="fill:#121212; fill-opacity:1.0000; 
stroke:#121212; stroke-width:0.0000; stroke-opacity:1; 
stroke-linecap:round; stroke-linejoin:round;">
<circle cx="22.1763" cy="13.9820" r="0.3429" /> 
</g>
<g style="fill:#121212; fill-opacity:1.0000; 
stroke:#121212; stroke-width:0.0212; stroke-opacity:1; 
stroke-linecap:round; stroke-linejoin:round;">
</g>
<g style="fill:#121212; fill-opacity:1.0000; 
stroke:#121212; stroke-width:0.0000; stroke-opacity:1; 
stroke-linecap:round; stroke-linejoin:round;">
<circle cx="3.3803" cy="9.3592" r="0.3429" /> 
</g>
<g style="fill:#121212; fill-opacity:1.0000; 
stroke:#121212; stroke-width:0.0212; stroke-opacity:1; 
stroke-linecap:round; stroke-linejoin:round;">
</g>
<g >
</g>
<g style="fill:#37CBCB; fill-opacity:1.0000; 
stroke:#37CBCB; stroke-width:0.0212; stroke-opacity:1; 
stroke-linecap:round; stroke-linejoin:round;">
</g>
<g style="fill:#37CBCB; fill-opacity:1.0000; 
stroke:#37CBCB; stroke-width:0.6096; stroke-opacity:1; 
stroke-linecap:round; stroke-linejoin:round;">
</g>
<g style="fill:#37CBCB; fill-opacity:0.0; 
stroke:#37CBCB; stroke-width:0.6096; stroke-opacity:1; 
stroke-linecap:round; stroke-linejoin:round;">
<path d="M14.0305 10.2736
L13.9543 10.3498
" />
<path d="M15.1659 10.2736
L14.0305 10.2736
" />
<path d="M15.1659 9.5116
L14.5055 8.8512
" />
<path d="M15.1659 10.2228
L15.1659 9.5116
" />
<path d="M15.5723 10.2228
L16.9439 11.5944
" />
<path d="M16.9439 11.5944
L18.0307 11.5944
" />
<path d="M16.4359 9.3592
L15.5723 10.2228
" />
<path d="M22.1255 14.0328
L22.1763 13.9820
" />
<path d="M3.4527 9.4316
L3.3803 9.3592
" />
<path d="M3.4527 10.8832
L3.4527 9.4316
" />
<path d="M20.6307 14.0328
L22.1255 14.0328
" />
<path d="M15.1659 10.2736
L15.1659 10.2228
" />
<path d="M17.9307 9.3592
L16.4359 9.3592
" />
<path d="M15.1659 10.2228
L15.5723 10.2228
" />
<path d="M8.2063 16.1156
L8.9175 15.4044
" />
<path d="M8.9175 15.4044
L9.9335 15.4044
" />
<path d="M9.9335 15.4044
L12.0163 13.3216
" />
<path d="M12.0163 13.3216
L12.0163 12.2040
" />
<path d="M12.0163 12.2040
L12.6005 11.6198
" />
<path d="M12.6005 11.6198
L13.9543 11.6198
" />
<path d="M17.2995 14.0328
L15.9279 12.6612
" />
<path d="M15.9279 12.6612
L15.9279 12.2040
" />
<path d="M15.9279 12.2040
L15.3437 11.6198
" />
<path d="M15.3437 11.6198
L13.9543 11.6198
" />
<path d="M8.2063 17.3348
L8.2063 16.1156
" />
<path d="M17.9307 14.0328
L17.2995 14.0328
" />
<path d="M6.4575 6.2096
L9.8484 6.2096
" />
<path d="M14.1499 6.2096
L11.3559 9.0036
" />
<path d="M11.3559 9.0036
L11.3559 10.9848
" />
<path d="M11.3559 10.9848
L10.7209 11.6198
" />
<path d="M10.7209 11.6198
L8.5543 11.6198
" />
<path d="M20.6307 6.9919
L19.8484 6.2096
" />
<path d="M19.8992 6.2604
L19.8484 6.2096
" />
<path d="M20.6307 9.3592
L20.6307 6.9919
" />
<path d="M23.0399 6.2096
L19.8484 6.2096
" />
<path d="M19.8484 6.2096
L14.1499 6.2096
" />
<path d="M8.5289 12.9152
L8.5543 12.8898
" />
<path d="M6.1527 12.8644
L6.2035 12.9152
" />
<path d="M6.1527 10.8832
L6.1527 12.8644
" />
<path d="M6.2035 12.9152
L8.5289 12.9152
" />
<path d="M13.9543 12.8898
L13.9543 14.1598
" />
</g>
<g >
</g>
<g style="fill:#37CBCB; fill-opacity:0.0; 
stroke:#37CBCB; stroke-width:0.6096; stroke-opacity:1; 
stroke-linecap:round; stroke-linejoin:round;">
<g >
</g>
<g style="fill:#37CBCB; fill-opacity:1.0000; 
stroke:#37CBCB; stroke-width:0.0000; stroke-opacity:1; 
stroke-linecap:round; stroke-linejoin:round;">
<path style="fill:#37CBCB; fill-opacity:1.0000; 
stroke:#37CBCB; stroke-width:0.0000; stroke-opacity:1; 
stroke-linecap:round; stroke-linejoin:round;fill-rule:evenodd;"
d="M 26.0685,1.3937
26.0942,1.4382
26.0954,1.4513
26.0954,19.3499
26.0778,19.3982
26.0332,19.4240
26.0202,19.4251
1.0096,19.4251
0.9612,19.4075
0.9355,19.3630
0.9344,19.3499
0.9344,18.3705
6.9898,18.3705
7.0014,18.4290
7.0014,18.4290
7.0457,18.4954
7.1120,18.5397
7.1413,18.5455
7.1705,18.5513
7.1705,18.5513
9.2420,18.5513
9.2615,18.5474
9.3005,18.5397
9.3668,18.4954
9.4111,18.4290
9.4228,18.3705
9.4228,17.8408
9.4404,17.7925
9.4849,17.7668
9.5356,17.7757
9.5661,17.8090
9.6422,17.9722
9.7697,18.1543
9.9268,18.3114
10.1088,18.4389
10.3102,18.5328
10.3102,18.5328
10.5249,18.5903
10.5249,18.5903
10.6193,18.5985
10.6193,17.8298
10.7099,17.8428
10.7826,17.8428
10.8733,17.8298
10.8733,18.5985
10.9676,18.5903
10.9676,18.5903
11.1823,18.5328
11.1823,18.5328
11.3837,18.4389
11.5657,18.3114
11.7229,18.1543
11.8503,17.9722
11.9442,17.7708
11.9442,17.7708
12.0017,17.5562
12.0100,17.4618
11.2384,17.4618
11.2543,17.4078
11.2543,17.2618
11.2384,17.2078
12.0100,17.2078
12.0100,17.2078
12.0017,17.1134
11.9442,16.8988
11.9442,16.8988
11.8503,16.6974
11.8503,16.6974
11.7229,16.5153
11.5657,16.3582
11.3837,16.2307
11.1823,16.1368
11.1823,16.1368
10.9676,16.0793
10.8733,16.0711
10.8733,16.8398
10.7826,16.8268
10.7099,16.8268
10.6193,16.8398
10.6193,16.0711
10.5249,16.0793
10.3102,16.1368
10.3102,16.1368
10.1088,16.2307
10.1088,16.2307
9.9268,16.3582
9.7697,16.5153
9.6422,16.6974
9.6422,16.6974
9.5661,16.8606
9.5297,16.8969
9.4785,16.9014
9.4364,16.8719
9.4228,16.8288
9.4228,16.2991
9.4111,16.2406
9.4111,16.2406
9.4046,16.2307
9.3668,16.1742
9.3005,16.1299
9.3005,16.1299
9.2420,16.1183
9.2420,16.1183
9.0997,16.1183
9.0514,16.1007
9.0257,16.0562
9.0346,16.0055
9.0465,15.9899
9.1047,15.9317
9.1514,15.9100
9.1579,15.9097
9.8711,15.9097
9.8870,15.9114
9.8970,15.9136
9.9502,15.9098
9.9528,15.9097
9.9696,15.9097
9.9696,15.9097
9.9862,15.9073
9.9888,15.9070
10.0420,15.9032
10.0516,15.8996
10.0672,15.8957
10.0719,15.8950
10.0773,15.8942
10.1257,15.8721
10.1282,15.8711
10.1781,15.8525
10.1863,15.8463
10.2001,15.8381
10.2095,15.8339
10.2497,15.7990
10.2518,15.7973
10.2652,15.7873
10.2771,15.7754
10.2790,15.7736
10.3193,15.7387
10.3248,15.7301
10.3349,15.7176
11.5729,14.4795
12.9788,14.4795
12.9904,14.5380
12.9904,14.5380
13.0347,14.6044
13.1010,14.6487
13.1303,14.6545
13.1595,14.6603
13.1595,14.6603
13.8545,14.6603
13.8756,14.6633
13.8816,14.6651
13.8816,14.6651
14.0269,14.6651
14.0329,14.6633
14.0541,14.6603
14.7490,14.6603
14.7685,14.6564
14.8075,14.6487
14.8738,14.6044
14.9181,14.5380
14.9298,14.4795
14.9298,13.8401
14.9181,13.7816
14.8738,13.7152
14.8075,13.6709
14.8075,13.6709
14.7490,13.6593
14.7490,13.6593
14.5348,13.6593
14.4864,13.6417
14.4607,13.5972
14.4596,13.5841
14.4596,13.4655
14.4772,13.4172
14.5217,13.3914
14.5348,13.3903
14.7490,13.3903
14.7685,13.3864
14.8075,13.3787
14.8738,13.3344
14.9181,13.2680
14.9298,13.2095
14.9298,12.5701
14.9181,12.5116
14.8738,12.4452
14.8075,12.4009
14.8075,12.4009
14.7490,12.3893
14.7490,12.3893
14.0541,12.3893
14.0329,12.3863
14.0269,12.3845
14.0269,12.3845
13.8816,12.3845
13.8816,12.3845
13.8756,12.3863
13.8545,12.3893
13.1595,12.3893
13.1010,12.4009
13.1010,12.4009
13.0347,12.4452
12.9904,12.5116
12.9904,12.5116
12.9788,12.5701
12.9788,13.2095
12.9904,13.2680
12.9904,13.2680
13.0347,13.3344
13.1010,13.3787
13.1303,13.3845
13.1595,13.3903
13.1595,13.3903
13.3738,13.3903
13.4221,13.4079
13.4478,13.4524
13.4490,13.4655
13.4490,13.5841
13.4314,13.6324
13.3868,13.6582
13.3738,13.6593
13.1595,13.6593
13.1010,13.6709
13.1010,13.6709
13.0347,13.7152
12.9904,13.7816
12.9904,13.7816
12.9788,13.8401
12.9788,14.4795
11.5729,14.4795
12.3294,13.7230
12.3419,13.7129
12.3506,13.7074
12.3855,13.6671
12.3873,13.6652
12.3991,13.6533
12.4092,13.6399
12.4108,13.6379
12.4457,13.5976
12.4500,13.5883
12.4582,13.5744
12.4582,13.5744
12.4643,13.5663
12.4829,13.5163
12.4840,13.5139
12.5061,13.4654
12.5061,13.4654
12.5075,13.4553
12.5115,13.4397
12.5151,13.4301
12.5189,13.3770
12.5192,13.3743
12.5193,13.3738
12.5216,13.3577
12.5216,13.3410
12.5217,13.3383
12.5219,13.3344
12.5255,13.2852
12.5233,13.2752
12.5216,13.2592
12.5216,12.4444
12.5392,12.3961
12.5436,12.3913
12.7877,12.1471
12.8344,12.1254
12.8409,12.1251
13.9181,12.1251
15.1032,12.1251
15.1516,12.1427
15.1564,12.1471
15.4005,12.3913
15.4223,12.4379
15.4226,12.4444
15.4226,12.5988
15.4208,12.6148
15.4187,12.6248
15.4187,12.6248
15.4225,12.6779
15.4226,12.6806
15.4226,12.6973
15.4249,12.7139
15.4252,12.7166
15.4263,12.7310
15.4290,12.7697
15.4290,12.7697
15.4326,12.7793
15.4366,12.7949
15.4380,12.8050
15.4602,12.8535
15.4612,12.8559
15.4798,12.9058
15.4798,12.9059
15.4859,12.9140
15.4942,12.9279
15.4984,12.9372
15.5333,12.9775
15.5350,12.9795
15.5450,12.9929
15.5450,12.9929
15.5450,12.9929
15.5569,13.0048
15.5587,13.0067
15.5674,13.0168
15.5936,13.0470
15.5936,13.0470
15.5936,13.0470
15.6022,13.0525
15.6147,13.0626
16.8980,14.3460
16.9081,14.3585
16.9137,14.3671
16.9539,14.4020
16.9559,14.4038
16.9581,14.4061
16.9799,14.4527
16.9802,14.4592
16.9802,14.7025
16.9918,14.7610
16.9918,14.7610
17.0361,14.8274
17.1024,14.8717
17.1296,14.8771
17.1609,14.8833
17.1609,14.8833
18.7004,14.8833
18.7317,14.8771
18.7589,14.8717
18.8252,14.8274
18.8695,14.7610
18.8812,14.7025
19.6802,14.7025
19.6918,14.7610
19.6918,14.7610
19.7361,14.8274
19.8024,14.8717
19.8296,14.8771
19.8609,14.8833
19.8609,14.8833
21.4004,14.8833
21.4317,14.8771
21.4589,14.8717
21.5252,14.8274
21.5695,14.7610
21.5812,14.7025
21.5812,14.6133
21.5988,14.5650
21.6433,14.5392
21.6564,14.5381
22.0631,14.5381
22.0790,14.5398
22.0890,14.5420
22.1422,14.5382
22.1448,14.5381
22.1616,14.5381
22.1616,14.5381
22.1782,14.5357
22.1808,14.5354
22.2340,14.5316
22.2436,14.5280
22.2592,14.5241
22.2693,14.5226
22.2737,14.5206
22.2952,14.5144
22.3181,14.5114
22.3181,14.5114
22.3181,14.5114
22.4503,14.4567
22.5638,14.3696
22.6509,14.2560
22.7057,14.1239
22.7244,13.9820
22.7057,13.8401
22.6509,13.7080
22.6225,13.6709
22.5638,13.5944
22.5638,13.5944
22.4503,13.5073
22.3181,13.4526
22.1763,13.4339
22.0344,13.4526
21.9022,13.5073
21.9022,13.5073
21.8962,13.5120
21.8504,13.5275
21.6564,13.5275
21.6080,13.5099
21.5823,13.4654
21.5812,13.4523
21.5812,13.3631
21.5695,13.3046
21.5695,13.3046
21.5252,13.2382
21.4589,13.1939
21.4589,13.1939
21.4004,13.1823
21.4004,13.1823
19.8609,13.1823
19.8609,13.1823
19.8024,13.1939
19.8024,13.1939
19.7361,13.2382
19.6918,13.3046
19.6918,13.3046
19.6802,13.3631
19.6802,14.7025
18.8812,14.7025
18.8812,13.3631
18.8695,13.3046
18.8252,13.2382
18.7589,13.1939
18.7589,13.1939
18.7004,13.1823
18.7004,13.1823
17.1947,13.1823
17.1464,13.1647
17.1415,13.1603
16.4552,12.4739
16.4335,12.4273
16.4332,12.4207
16.4332,12.2664
16.4349,12.2504
16.4371,12.2404
16.4333,12.1873
16.4332,12.1846
16.4332,12.1679
16.4332,12.1679
16.4329,12.1661
16.4308,12.1513
16.4305,12.1487
16.4267,12.0955
16.4231,12.0859
16.4191,12.0703
16.4177,12.0602
16.3956,12.0117
16.3945,12.0093
16.3759,11.9594
16.3759,11.9593
16.3759,11.9593
16.3759,11.9593
16.3759,11.9593
16.3698,11.9512
16.3616,11.9373
16.3577,11.9288
16.3536,11.8775
16.3835,11.8356
16.4333,11.8227
16.4793,11.8444
16.5424,11.9076
16.5525,11.9201
16.5576,11.9280
16.5581,11.9287
16.5983,11.9636
16.6003,11.9654
16.6121,11.9773
16.6121,11.9773
16.6255,11.9873
16.6276,11.9890
16.6679,12.0239
16.6679,12.0239
16.6679,12.0239
16.6772,12.0281
16.6910,12.0363
16.6992,12.0425
16.7491,12.0611
16.7516,12.0621
16.8000,12.0842
16.8102,12.0857
16.8258,12.0896
16.8354,12.0932
16.8885,12.0970
16.8911,12.0973
16.9077,12.0997
16.9245,12.0997
16.9272,12.0998
16.9803,12.1036
16.9890,12.1017
17.0399,12.1086
17.0746,12.1467
17.0802,12.1752
17.0802,12.2391
17.0918,12.2976
17.0918,12.2976
17.1361,12.3640
17.2024,12.4083
17.2106,12.4099
17.2609,12.4199
17.2609,12.4199
18.8004,12.4199
18.8336,12.4133
18.8589,12.4083
18.9252,12.3640
18.9695,12.2976
18.9812,12.2391
18.9812,11.7214
19.5267,11.7214
19.5267,12.2444
19.5414,12.3185
19.5975,12.4025
19.6816,12.4587
19.6816,12.4587
19.7556,12.4734
20.4037,12.4734
20.4037,11.7214
20.6577,11.7214
20.6577,12.4734
21.3057,12.4734
21.3057,12.4734
21.3798,12.4587
21.4638,12.4025
21.5199,12.3185
21.5199,12.3185
21.5347,12.2444
21.5347,11.7214
20.6577,11.7214
20.4037,11.7214
19.5267,11.7214
18.9812,11.7214
18.9812,11.4674
19.5267,11.4674
20.4037,11.4674
20.4037,10.7154
20.6577,10.7154
20.6577,11.4674
21.5347,11.4674
21.5347,10.9444
21.5347,10.9444
21.5199,10.8703
21.4638,10.7863
21.3798,10.7301
21.3798,10.7301
21.3057,10.7154
20.6577,10.7154
20.4037,10.7154
19.7556,10.7154
19.7556,10.7154
19.6816,10.7301
19.5975,10.7863
19.5414,10.8703
19.5414,10.8703
19.5267,10.9444
19.5267,11.4674
18.9812,11.4674
18.9812,10.9497
18.9809,10.9484
18.9695,10.8912
18.9695,10.8912
18.9252,10.8248
18.8589,10.7805
18.8589,10.7805
18.8004,10.7689
18.8004,10.7689
17.2609,10.7689
17.2609,10.7689
17.2024,10.7805
17.2024,10.7805
17.1361,10.8248
17.0880,10.8968
17.0465,10.9273
16.9952,10.9239
16.9723,10.9082
16.3400,10.2760
16.3183,10.2294
16.3316,10.1797
16.3400,10.1696
16.6231,9.8865
16.6698,9.8648
16.6763,9.8645
16.9050,9.8645
16.9533,9.8821
16.9790,9.9266
16.9802,9.9397
16.9802,10.0289
16.9918,10.0874
16.9918,10.0874
17.0361,10.1538
17.1024,10.1981
17.1317,10.2039
17.1609,10.2097
17.1609,10.2097
18.7004,10.2097
18.7199,10.2058
18.7589,10.1981
18.8252,10.1538
18.8695,10.0874
18.8812,10.0289
18.8812,8.6895
18.8695,8.6310
18.8252,8.5646
18.7589,8.5203
18.7589,8.5203
18.7004,8.5087
18.7004,8.5087
17.1609,8.5087
17.1609,8.5087
17.1024,8.5203
17.1024,8.5203
17.0361,8.5646
16.9918,8.6310
16.9918,8.6310
16.9802,8.6895
16.9802,8.7787
16.9626,8.8270
16.9180,8.8528
16.9050,8.8539
16.4983,8.8539
16.4823,8.8522
16.4757,8.8508
16.4723,8.8500
16.4723,8.8500
16.4445,8.8520
16.4192,8.8538
16.4165,8.8539
16.3997,8.8539
16.3831,8.8563
16.3805,8.8566
16.3274,8.8604
16.3273,8.8604
16.3177,8.8640
16.3022,8.8679
16.2920,8.8694
16.2436,8.8915
16.2411,8.8925
16.1912,8.9111
16.1912,8.9111
16.1830,8.9173
16.1692,8.9255
16.1599,8.9297
16.1196,8.9646
16.1175,8.9663
16.1041,8.9763
16.0923,8.9882
16.0903,8.9900
16.0501,9.0249
16.0501,9.0249
16.0445,9.0335
16.0344,9.0460
15.7509,9.3296
15.7043,9.3513
15.6546,9.3380
15.6272,9.3027
15.6139,9.2669
15.6139,9.2669
15.6139,9.2669
15.6078,9.2588
15.5996,9.2449
15.5968,9.2388
15.5953,9.2356
15.5608,9.1957
15.5604,9.1953
15.5588,9.1933
15.5487,9.1799
15.5450,9.1761
15.5369,9.1680
15.5351,9.1661
15.5269,9.1566
15.5002,9.1258
15.4915,9.1203
15.4790,9.1102
15.0148,8.6459
14.9985,8.6216
14.9801,8.5772
14.8930,8.4636
14.8930,8.4636
14.7795,8.3765
14.6473,8.3218
14.5055,8.3031
14.3636,8.3218
14.2314,8.3765
14.1179,8.4636
14.0308,8.5772
13.9761,8.7093
13.9715,8.7443
13.9574,8.8512
13.9761,8.9931
13.9955,9.0400
14.0246,9.1102
14.0308,9.1252
14.1179,9.2388
14.2314,9.3259
14.2608,9.3380
14.2758,9.3442
14.3002,9.3605
14.5796,9.6399
14.6013,9.6865
14.5880,9.7362
14.5459,9.7657
14.5264,9.7683
14.0929,9.7683
14.0769,9.7666
14.0703,9.7652
14.0669,9.7644
14.0669,9.7644
14.0391,9.7664
14.0138,9.7682
14.0111,9.7683
13.9943,9.7683
13.9777,9.7707
13.9751,9.7710
13.9220,9.7748
13.9219,9.7748
13.9123,9.7784
13.8968,9.7823
13.8866,9.7838
13.8382,9.8059
13.8357,9.8069
13.7858,9.8255
13.7858,9.8255
13.7776,9.8317
13.7638,9.8399
13.7581,9.8425
13.7268,9.8493
13.1595,9.8493
13.1010,9.8609
13.1010,9.8609
13.0347,9.9052
12.9904,9.9716
12.9904,9.9716
12.9788,10.0301
12.9788,10.6695
12.9904,10.7280
12.9904,10.7280
13.0347,10.7944
13.1010,10.8387
13.1303,10.8445
13.1595,10.8503
13.1595,10.8503
13.8698,10.8503
13.8858,10.8520
13.8923,10.8534
13.9178,10.8590
14.0381,10.8504
14.0408,10.8503
14.7490,10.8503
14.7685,10.8464
14.8075,10.8387
14.8161,10.8329
14.8780,10.7916
14.9198,10.7789
15.2385,10.7789
15.2385,10.7789
15.2684,10.7701
15.2789,10.7678
15.3097,10.7634
15.3230,10.7573
15.3743,10.7533
15.4074,10.7726
15.7033,11.0684
15.7250,11.1150
15.7117,11.1647
15.6695,11.1942
15.6188,11.1900
15.6103,11.1861
15.5965,11.1779
15.5883,11.1718
15.5883,11.1717
15.5384,11.1531
15.5359,11.1521
15.4896,11.1309
15.4875,11.1300
15.4875,11.1300
15.4875,11.1300
15.4774,11.1285
15.4618,11.1246
15.4522,11.1210
15.4522,11.1210
15.4135,11.1182
15.3990,11.1172
15.3964,11.1169
15.3798,11.1145
15.3798,11.1145
15.3630,11.1145
15.3604,11.1144
15.3312,11.1123
15.3073,11.1106
15.3072,11.1106
15.3021,11.1117
15.2972,11.1128
15.2813,11.1145
12.6629,11.1145
12.6469,11.1128
12.6401,11.1113
12.6369,11.1106
12.6369,11.1106
12.6064,11.1128
12.5838,11.1144
12.5811,11.1145
12.5643,11.1145
12.5608,11.1150
12.5477,11.1169
12.5451,11.1172
12.4920,11.1210
12.4919,11.1210
12.4823,11.1246
12.4668,11.1285
12.4566,11.1300
12.4082,11.1521
12.4057,11.1531
12.3558,11.1717
12.3558,11.1717
12.3476,11.1779
12.3338,11.1861
12.3245,11.1903
12.3245,11.1903
12.2842,11.2252
12.2821,11.2269
12.2687,11.2369
12.2569,11.2488
12.2549,11.2506
12.2147,11.2855
12.2147,11.2855
12.2091,11.2941
12.1990,11.3066
11.7031,11.8026
11.6906,11.8127
11.6820,11.8182
11.6820,11.8182
11.6471,11.8584
11.6453,11.8604
11.6334,11.8723
11.6234,11.8857
11.6217,11.8877
11.5868,11.9280
11.5868,11.9280
11.5826,11.9373
11.5744,11.9511
11.5682,11.9593
11.5682,11.9593
11.5496,12.0092
11.5486,12.0117
11.5264,12.0602
11.5250,12.0703
11.5210,12.0859
11.5174,12.0955
11.5174,12.0955
11.5136,12.1486
11.5133,12.1513
11.5110,12.1679
11.5110,12.1679
11.5110,12.1846
11.5109,12.1873
11.5071,12.2404
11.5071,12.2404
11.5092,12.2504
11.5110,12.2664
11.5110,13.0811
11.4934,13.1295
11.4889,13.1343
9.7462,14.8771
9.6996,14.8988
9.6930,14.8991
8.9799,14.8991
8.9639,14.8974
8.9571,14.8959
8.9539,14.8952
8.9539,14.8952
8.9234,14.8974
8.9008,14.8990
8.8981,14.8991
8.8813,14.8991
8.8776,14.8996
8.8647,14.9015
8.8621,14.9018
8.8090,14.9056
8.8089,14.9056
8.7993,14.9092
8.7838,14.9131
8.7736,14.9146
8.7252,14.9367
8.7227,14.9377
8.6728,14.9563
8.6728,14.9563
8.6646,14.9625
8.6508,14.9707
8.6415,14.9749
8.6415,14.9749
8.6012,15.0098
8.5991,15.0115
8.5857,15.0215
8.5739,15.0334
8.5719,15.0352
8.5317,15.0701
8.5317,15.0701
8.5261,15.0787
8.5160,15.0912
7.8931,15.7142
7.8806,15.7243
7.8720,15.7298
7.8720,15.7298
7.8371,15.7700
7.8353,15.7720
7.8234,15.7839
7.8134,15.7973
7.8117,15.7993
7.7768,15.8396
7.7768,15.8396
7.7726,15.8489
7.7644,15.8627
7.7582,15.8709
7.7582,15.8709
7.7396,15.9208
7.7386,15.9233
7.7164,15.9718
7.7150,15.9819
7.7110,15.9975
7.7074,16.0071
7.7074,16.0071
7.7045,16.0485
7.6835,16.0954
7.6372,16.1179
7.6295,16.1183
7.1705,16.1183
7.1120,16.1299
7.1120,16.1299
7.0457,16.1742
7.0014,16.2406
7.0014,16.2406
6.9898,16.2991
6.9898,18.3705
0.9344,18.3705
0.9344,14.2868
7.5253,14.2868
7.5253,14.4848
7.5400,14.5589
7.5961,14.6429
7.6802,14.6991
7.6802,14.6991
7.7542,14.7138
8.4273,14.7138
8.4273,14.2868
8.6813,14.2868
8.6813,14.7138
9.3543,14.7138
9.3543,14.7138
9.4284,14.6991
9.5124,14.6429
9.5685,14.5589
9.5685,14.5589
9.5833,14.4848
9.5833,14.2868
8.6813,14.2868
8.4273,14.2868
7.5253,14.2868
0.9344,14.2868
0.9344,14.0328
7.5253,14.0328
8.4273,14.0328
8.4273,13.6058
8.6813,13.6058
8.6813,14.0328
9.5833,14.0328
9.5833,13.8348
9.5833,13.8348
9.5685,13.7607
9.5124,13.6767
9.4284,13.6205
9.4284,13.6205
9.3543,13.6058
8.6813,13.6058
8.4273,13.6058
7.7542,13.6058
7.7542,13.6058
7.6802,13.6205
7.5961,13.6767
7.5400,13.7607
7.5400,13.7607
7.5253,13.8348
7.5253,14.0328
0.9344,14.0328
0.9344,13.0422
2.4995,13.0422
2.4995,13.5902
2.5142,13.6643
2.5703,13.7483
2.6544,13.8045
2.6544,13.8045
2.7284,13.8192
3.3765,13.8192
3.3765,13.0422
3.6305,13.0422
3.6305,13.8192
4.2785,13.8192
4.2785,13.8192
4.3526,13.8045
4.4366,13.7483
4.4927,13.6643
4.4927,13.6643
4.5075,13.5902
4.5075,13.0422
3.6305,13.0422
3.3765,13.0422
2.4995,13.0422
0.9344,13.0422
0.9344,12.7882
2.4995,12.7882
3.3765,12.7882
3.3765,12.0112
3.6305,12.0112
3.6305,12.7882
4.5075,12.7882
4.5075,12.2402
4.5075,12.2402
4.4927,12.1661
4.4366,12.0821
4.3526,12.0259
4.3526,12.0259
4.2785,12.0112
3.6305,12.0112
3.3765,12.0112
2.7285,12.0112
2.7284,12.0112
2.6544,12.0259
2.5703,12.0821
2.5142,12.1661
2.5142,12.1661
2.4995,12.2402
2.4995,12.7882
0.9344,12.7882
0.9344,11.5529
2.5022,11.5529
2.5138,11.6114
2.5138,11.6114
2.5581,11.6778
2.6244,11.7221
2.6537,11.7279
2.6829,11.7337
2.6829,11.7337
4.2224,11.7337
4.2419,11.7298
4.2809,11.7221
4.3472,11.6778
4.3915,11.6114
4.4032,11.5529
5.2022,11.5529
5.2138,11.6114
5.2138,11.6114
5.2581,11.6778
5.3244,11.7221
5.3537,11.7279
5.3829,11.7337
5.3829,11.7337
5.5722,11.7337
5.6205,11.7513
5.6462,11.7958
5.6474,11.8089
5.6474,11.9895
5.6298,12.0378
5.5852,12.0636
5.5722,12.0647
5.4337,12.0647
5.3752,12.0763
5.3752,12.0763
5.3089,12.1206
5.2646,12.1870
5.2646,12.1870
5.2530,12.2455
5.2530,13.5849
5.2646,13.6434
5.2646,13.6434
5.3089,13.7098
5.3752,13.7541
5.4045,13.7599
5.4337,13.7657
5.4337,13.7657
6.9732,13.7657
6.9927,13.7618
7.0317,13.7541
7.0980,13.7098
7.1423,13.6434
7.1540,13.5849
7.1540,13.4957
7.1716,13.4474
7.2161,13.4216
7.2292,13.4205
8.4665,13.4205
8.4824,13.4222
8.4924,13.4244
8.5456,13.4206
8.5482,13.4205
8.5650,13.4205
8.5650,13.4205
8.5816,13.4181
8.5842,13.4178
8.6374,13.4140
8.6470,13.4104
8.6626,13.4065
8.6644,13.4062
8.6727,13.4050
8.6900,13.3971
8.7213,13.3903
9.3490,13.3903
9.3685,13.3864
9.4075,13.3787
9.4738,13.3344
9.5181,13.2680
9.5298,13.2095
9.5298,12.5701
9.5181,12.5116
9.4738,12.4452
9.4075,12.4009
9.4075,12.4009
9.3490,12.3893
9.3490,12.3893
8.6387,12.3893
8.6228,12.3876
8.5907,12.3806
8.5907,12.3806
8.4941,12.3875
8.4704,12.3892
8.4678,12.3893
7.7595,12.3893
7.7010,12.4009
7.6942,12.4038
7.6932,12.4013
7.6648,12.4099
7.2292,12.4099
7.1808,12.3923
7.1551,12.3478
7.1540,12.3347
7.1540,12.2455
7.1423,12.1870
7.1423,12.1870
7.0980,12.1206
7.0317,12.0763
7.0317,12.0763
6.9732,12.0647
6.9732,12.0647
6.7332,12.0647
6.6848,12.0471
6.6591,12.0026
6.6580,11.9895
6.6580,11.9395
7.5788,11.9395
7.5904,11.9980
7.5904,11.9980
7.6347,12.0644
7.7010,12.1087
7.7303,12.1145
7.7595,12.1203
7.7595,12.1203
8.4794,12.1203
8.4901,12.1211
8.5181,12.1251
10.6585,12.1251
10.6744,12.1268
10.6844,12.1290
10.7376,12.1252
10.7402,12.1251
10.7570,12.1251
10.7570,12.1251
10.7736,12.1227
10.7762,12.1224
10.8294,12.1186
10.8390,12.1150
10.8546,12.1111
10.8593,12.1104
10.8647,12.1096
10.9131,12.0875
10.9156,12.0865
10.9655,12.0679
10.9737,12.0617
10.9875,12.0535
10.9969,12.0493
11.0371,12.0144
11.0392,12.0127
11.0526,12.0027
11.0645,11.9908
11.0664,11.9890
11.1067,11.9541
11.1122,11.9455
11.1223,11.9330
11.6690,11.3862
11.6815,11.3761
11.6902,11.3706
11.7251,11.3303
11.7269,11.3284
11.7387,11.3165
11.7488,11.3031
11.7504,11.3011
11.7853,11.2608
11.7896,11.2515
11.7978,11.2377
11.8039,11.2295
11.8049,11.2269
11.8185,11.1903
11.8225,11.1795
11.8235,11.1771
11.8457,11.1286
11.8471,11.1185
11.8511,11.1029
11.8547,11.0933
11.8547,11.0933
11.8547,11.0933
11.8585,11.0402
11.8588,11.0375
11.8612,11.0209
11.8612,11.0209
11.8612,11.0042
11.8613,11.0015
11.8651,10.9484
11.8651,10.9484
11.8629,10.9384
11.8612,10.9224
11.8612,9.2440
11.8788,9.1957
11.8832,9.1909
14.3371,6.7369
14.3838,6.7152
14.3903,6.7149
19.0581,6.7149
19.1065,6.7325
19.1140,6.7398
19.1593,6.7901
19.2347,6.8738
19.2425,6.8825
19.2425,6.8825
19.3956,6.9937
19.3956,6.9938
19.5686,7.0707
19.5686,7.0707
19.5686,7.0707
19.5686,7.0707
19.7537,7.1101
19.7537,7.1101
19.9430,7.1101
19.9430,7.1101
19.9783,7.1026
20.0293,7.1098
20.0471,7.1230
20.1033,7.1792
20.1251,7.2258
20.1254,7.2323
20.1254,8.4335
20.1078,8.4818
20.0632,8.5076
20.0502,8.5087
19.8609,8.5087
19.8024,8.5203
19.8024,8.5203
19.7361,8.5646
19.6918,8.6310
19.6918,8.6310
19.6802,8.6895
19.6802,10.0289
19.6918,10.0874
19.6918,10.0874
19.7361,10.1538
19.8024,10.1981
19.8317,10.2039
19.8609,10.2097
19.8609,10.2097
21.4004,10.2097
21.4199,10.2058
21.4589,10.1981
21.5252,10.1538
21.5695,10.0874
21.5812,10.0289
21.5812,8.6895
21.5695,8.6310
21.5252,8.5646
21.4589,8.5203
21.4589,8.5203
21.4004,8.5087
21.4004,8.5087
21.2112,8.5087
21.1628,8.4911
21.1371,8.4466
21.1360,8.4335
21.1360,7.0543
21.1377,7.0383
21.1399,7.0283
21.1361,6.9752
21.1360,6.9725
21.1360,6.9558
21.1360,6.9558
21.1336,6.9392
21.1333,6.9365
21.1295,6.8834
21.1259,6.8738
21.1219,6.8582
21.1205,6.8481
21.1205,6.8481
21.1205,6.8481
21.1083,6.8213
21.1042,6.7701
21.1340,6.7282
21.1767,6.7149
22.1741,6.7149
22.2224,6.7325
22.2331,6.7443
22.2334,6.7441
22.3560,6.8935
22.4580,6.9772
22.5025,7.0138
22.5921,7.0616
22.6697,7.1031
22.6698,7.1031
22.6927,7.1101
22.8512,7.1582
23.0399,7.1768
23.2285,7.1582
23.4100,7.1031
23.5772,7.0138
23.7237,6.8935
23.8440,6.7469
23.9334,6.5797
23.9884,6.3983
24.0070,6.2096
23.9884,6.0209
23.9507,5.8964
23.9334,5.8395
23.9334,5.8395
23.8680,5.7172
23.8440,5.6723
23.8074,5.6277
23.7237,5.5257
23.5928,5.4183
23.5772,5.4054
23.5772,5.4054
23.5772,5.4054
23.4100,5.3161
23.4100,5.3161
23.2285,5.2610
23.2285,5.2610
23.0399,5.2424
22.8512,5.2610
22.6698,5.3161
22.6697,5.3161
22.5025,5.4054
22.5025,5.4054
22.3560,5.5257
22.2334,5.6751
22.2322,5.6742
22.1952,5.7013
22.1741,5.7043
20.6386,5.7043
20.5903,5.6867
20.5827,5.6794
20.4542,5.5367
20.4542,5.5367
20.3011,5.4254
20.3011,5.4254
20.1282,5.3485
20.1282,5.3485
20.0554,5.3330
19.9430,5.3091
19.7537,5.3091
19.6413,5.3330
19.5686,5.3485
19.3956,5.4254
19.3956,5.4254
19.2425,5.5367
19.2425,5.5367
19.1140,5.6794
19.0686,5.7036
19.0581,5.7043
14.2123,5.7043
14.1963,5.7026
14.1895,5.7011
14.1863,5.7004
14.1863,5.7004
14.1558,5.7026
14.1332,5.7042
14.1305,5.7043
14.1137,5.7043
14.1100,5.7048
14.0971,5.7067
14.0945,5.7070
14.0414,5.7108
14.0413,5.7108
14.0317,5.7144
14.0162,5.7183
14.0060,5.7198
13.9576,5.7419
13.9551,5.7429
13.9052,5.7615
13.9052,5.7615
13.8970,5.7677
13.8832,5.7759
13.8739,5.7801
13.8739,5.7801
13.8336,5.8150
13.8315,5.8167
13.8181,5.8267
13.8063,5.8386
13.8043,5.8404
13.7641,5.8753
13.7641,5.8753
13.7585,5.8839
13.7484,5.8964
11.0427,8.6022
11.0302,8.6123
11.0216,8.6178
11.0216,8.6178
10.9867,8.6580
10.9849,8.6600
10.9730,8.6719
10.9630,8.6853
10.9613,8.6873
10.9264,8.7276
10.9264,8.7276
10.9222,8.7369
10.9140,8.7507
10.9078,8.7589
10.9078,8.7589
10.8892,8.8088
10.8882,8.8113
10.8660,8.8598
10.8646,8.8699
10.8606,8.8855
10.8570,8.8951
10.8570,8.8951
10.8532,8.9482
10.8529,8.9509
10.8506,8.9675
10.8506,8.9842
10.8505,8.9869
10.8487,9.0122
10.8478,9.0249
10.8467,9.0400
10.8480,9.0460
10.8488,9.0500
10.8506,9.0660
10.8506,10.7443
10.8330,10.7927
10.8285,10.7975
10.5336,11.0925
10.4870,11.1142
10.4804,11.1145
8.5181,11.1145
8.4901,11.1185
8.4794,11.1193
7.7595,11.1193
7.7010,11.1309
7.7010,11.1309
7.6347,11.1752
7.5904,11.2416
7.5904,11.2416
7.5788,11.3001
7.5788,11.9395
6.6580,11.9395
6.6580,11.8089
6.6756,11.7606
6.7201,11.7348
6.7332,11.7337
6.9224,11.7337
6.9419,11.7298
6.9809,11.7221
7.0472,11.6778
7.0915,11.6114
7.1032,11.5529
7.1032,10.4768
7.5253,10.4768
7.5253,10.6748
7.5400,10.7489
7.5961,10.8329
7.6802,10.8891
7.6802,10.8891
7.7542,10.9038
8.4273,10.9038
8.4273,10.4768
8.6813,10.4768
8.6813,10.9038
9.3543,10.9038
9.3543,10.9038
9.4284,10.8891
9.5124,10.8329
9.5685,10.7489
9.5685,10.7489
9.5833,10.6748
9.5833,10.4768
8.6813,10.4768
8.4273,10.4768
7.5253,10.4768
7.1032,10.4768
7.1032,10.2228
7.5253,10.2228
8.4273,10.2228
8.4273,9.7958
8.6813,9.7958
8.6813,10.2228
9.5833,10.2228
9.5833,10.0248
9.5833,10.0248
9.5685,9.9507
9.5124,9.8667
9.4284,9.8105
9.4284,9.8105
9.3543,9.7958
8.6813,9.7958
8.4273,9.7958
7.7542,9.7958
7.7542,9.7958
7.6802,9.8105
7.5961,9.8667
7.5400,9.9507
7.5400,9.9507
7.5253,10.0248
7.5253,10.2228
7.1032,10.2228
7.1032,10.2135
7.0915,10.1550
7.0472,10.0886
6.9809,10.0443
6.9809,10.0443
6.9224,10.0327
6.9224,10.0327
5.3829,10.0327
5.3829,10.0327
5.3244,10.0443
5.3244,10.0443
5.2581,10.0886
5.2138,10.1550
5.2138,10.1550
5.2022,10.2135
5.2022,11.5529
4.4032,11.5529
4.4032,10.2135
4.3915,10.1550
4.3472,10.0886
4.2809,10.0443
4.2809,10.0443
4.2224,10.0327
4.2224,10.0327
4.0332,10.0327
3.9848,10.0151
3.9591,9.9706
3.9580,9.9575
3.9580,9.4940
3.9597,9.4780
3.9619,9.4680
3.9581,9.4149
3.9580,9.4122
3.9580,9.3955
3.9580,9.3955
3.9566,9.3859
3.9556,9.3789
3.9553,9.3762
3.9515,9.3231
3.9479,9.3135
3.9439,9.2979
3.9425,9.2878
3.9204,9.2393
3.9193,9.2368
3.9189,9.2356
3.9007,9.1869
3.8982,9.1836
3.8890,9.1674
3.8715,9.1252
3.8549,9.0852
3.8402,9.0660
3.7678,8.9716
3.7678,8.9716
3.6543,8.8845
3.5945,8.8598
3.5221,8.8298
3.5221,8.8298
3.3803,8.8111
3.2384,8.8298
3.1062,8.8845
2.9927,8.9716
2.9056,9.0852
2.8509,9.2173
2.8334,9.3500
2.8322,9.3592
2.8509,9.5011
2.8509,9.5011
2.9056,9.6332
2.9056,9.6332
2.9056,9.6332
2.9318,9.6674
2.9474,9.7132
2.9474,9.9575
2.9298,10.0058
2.8852,10.0316
2.8722,10.0327
2.6829,10.0327
2.6244,10.0443
2.6244,10.0443
2.5581,10.0886
2.5138,10.1550
2.5138,10.1550
2.5022,10.2135
2.5022,11.5529
0.9344,11.5529
0.9344,7.4984
7.5940,7.4984
7.6043,7.6625
7.6043,7.6625
7.6551,7.8188
7.6551,7.8188
7.7009,7.8909
7.7432,7.9575
7.8630,8.0700
8.0070,8.1492
8.1662,8.1901
8.1662,8.1901
8.2893,8.1901
8.2893,8.1901
8.4114,8.1747
8.5642,8.1142
8.6972,8.0176
8.8020,7.8909
8.8719,7.7422
8.9027,7.5808
8.8924,7.4167
8.8924,7.4167
8.8924,7.4167
8.8416,7.2604
8.8416,7.2604
8.7536,7.1217
8.6993,7.0707
8.6338,7.0092
8.6338,7.0091
8.4897,6.9300
8.4897,6.9300
8.3305,6.8891
8.2074,6.8891
8.1828,6.8922
8.0853,6.9045
8.0853,6.9045
7.9325,6.9650
7.9325,6.9650
7.7995,7.0616
7.6948,7.1883
7.6248,7.3370
7.5940,7.4984
0.9344,7.4984
0.9344,3.4410
1.2467,3.4410
2.0245,3.4410
2.0087,3.4950
2.0087,3.6410
2.0245,3.6950
1.2467,3.6950
1.2467,4.6090
1.2614,4.6831
1.3175,4.7671
1.4016,4.8233
1.4016,4.8233
1.4756,4.8380
2.0225,4.8380
2.0708,4.8556
2.0966,4.9001
2.0876,4.9508
2.0543,4.9814
1.9061,5.0505
1.9061,5.0505
1.7317,5.1725
1.5812,5.3231
1.4591,5.4974
1.4591,5.4974
1.3692,5.6903
1.3692,5.6903
1.3501,5.7615
1.3141,5.8960
1.2955,6.1080
1.3141,6.3200
1.3141,6.3200
1.3141,6.3200
1.3692,6.5257
1.3692,6.5257
1.4591,6.7186
1.4591,6.7186
1.4591,6.7186
1.4790,6.7469
1.5812,6.8929
1.7317,7.0434
1.7317,7.0435
1.7317,7.0435
1.9061,7.1655
1.9061,7.1655
1.9061,7.1655
1.9826,7.2012
2.0990,7.2555
2.3046,7.3106
2.5167,7.3291
2.7287,7.3106
2.9343,7.2555
3.0787,7.1882
3.1272,7.1655
3.1272,7.1655
3.1272,7.1655
3.3016,7.0435
3.3873,6.9577
5.5778,6.9577
5.5894,7.0162
5.5894,7.0162
5.6337,7.0826
5.7000,7.1269
5.7293,7.1327
5.7585,7.1385
5.7585,7.1385
7.0980,7.1385
7.1175,7.1346
7.1565,7.1269
7.2228,7.0826
7.2671,7.0162
7.2788,6.9577
7.2788,6.7901
7.2964,6.7418
7.3409,6.7160
7.3540,6.7149
9.0581,6.7149
9.1065,6.7325
9.1140,6.7398
9.1593,6.7901
9.2347,6.8738
9.2425,6.8825
9.2425,6.8825
9.3956,6.9937
9.3956,6.9938
9.5686,7.0707
9.5686,7.0707
9.5686,7.0707
9.5686,7.0707
9.7537,7.1101
9.7537,7.1101
9.9430,7.1101
9.9430,7.1101
10.1282,7.0707
10.1282,7.0707
10.1282,7.0707
10.2235,7.0283
10.3011,6.9938
10.4542,6.8825
10.5809,6.7418
10.6755,6.5779
10.7340,6.3979
10.7538,6.2096
10.7340,6.0213
10.7145,5.9613
10.6755,5.8413
10.6755,5.8413
10.5809,5.6774
10.4542,5.5367
10.4542,5.5367
10.3011,5.4254
10.3011,5.4254
10.1282,5.3485
10.1282,5.3485
10.0554,5.3330
9.9430,5.3091
9.7537,5.3091
9.6413,5.3330
9.5686,5.3485
9.3956,5.4254
9.3956,5.4254
9.2425,5.5367
9.2425,5.5367
9.1140,5.6794
9.0686,5.7036
9.0581,5.7043
7.3540,5.7043
7.3056,5.6867
7.2799,5.6422
7.2788,5.6291
7.2788,5.4183
7.2671,5.3598
7.2671,5.3598
7.2596,5.3485
7.2228,5.2934
7.1565,5.2491
7.1565,5.2491
7.0980,5.2375
7.0980,5.2375
5.7585,5.2375
5.7585,5.2375
5.7000,5.2491
5.7000,5.2491
5.6337,5.2934
5.5894,5.3598
5.5894,5.3598
5.5778,5.4183
5.5778,6.9577
3.3873,6.9577
3.4521,6.8929
3.5742,6.7186
3.6642,6.5257
3.7193,6.3200
3.7378,6.1080
3.7193,5.8960
3.6642,5.6903
3.6356,5.6291
3.5742,5.4974
3.5742,5.4974
3.5238,5.4254
3.4521,5.3231
3.4521,5.3231
3.4521,5.3231
3.3016,5.1725
3.1272,5.0505
2.9790,4.9814
2.9427,4.9450
2.9382,4.8937
2.9677,4.8516
3.0108,4.8380
3.5577,4.8380
3.5577,4.8380
3.6318,4.8233
3.7158,4.7671
3.7719,4.6831
3.7719,4.6831
3.7867,4.6090
3.7867,3.6950
3.0088,3.6950
3.0247,3.6410
3.0247,3.6150
5.5243,3.6150
5.5243,4.2630
5.5390,4.3371
5.5951,4.4211
5.6792,4.4773
5.6792,4.4773
5.7532,4.4920
6.3013,4.4920
6.3013,3.6150
6.5553,3.6150
6.5553,4.4920
7.1033,4.4920
7.1033,4.4920
7.1774,4.4773
7.2614,4.4211
7.3175,4.3371
7.3175,4.3371
7.3323,4.2630
7.3323,3.6696
8.9429,3.6696
8.9627,3.8579
8.9627,3.8579
9.0212,4.0379
9.0212,4.0379
9.1158,4.2018
9.2425,4.3425
9.2425,4.3425
9.3956,4.4537
9.3956,4.4538
9.5686,4.5307
9.5686,4.5307
9.5686,4.5307
9.5686,4.5307
9.7537,4.5701
9.7537,4.5701
9.9430,4.5701
9.9430,4.5701
10.1282,4.5307
10.1282,4.5307
10.1282,4.5307
10.2152,4.4920
10.3011,4.4538
10.4542,4.3425
10.5809,4.2018
10.6755,4.0379
10.7340,3.8579
10.7538,3.6696
18.8897,3.6696
18.9082,3.8566
18.9082,3.8566
18.9627,4.0364
18.9627,4.0365
19.0513,4.2022
19.0513,4.2022
19.0896,4.2488
19.4903,3.8480
19.5207,3.9076
19.6103,3.9972
19.6699,4.0276
19.2692,4.4284
19.3158,4.4667
19.3158,4.4667
19.4815,4.5552
19.4815,4.5552
19.6614,4.6098
19.8484,4.6282
20.0354,4.6098
20.0354,4.6098
20.2152,4.5552
20.2152,4.5552
20.3809,4.4667
20.3809,4.4667
20.4276,4.4284
20.0268,4.0276
20.0864,3.9972
20.1760,3.9076
20.2064,3.8480
20.6072,4.2488
20.6454,4.2022
20.6454,4.2022
20.7340,4.0365
20.7340,4.0364
20.7886,3.8566
20.7886,3.8566
20.8070,3.6696
20.7886,3.4826
20.7886,3.4826
20.7340,3.3028
20.7340,3.3027
20.6454,3.1370
20.6454,3.1370
20.6072,3.0904
20.2064,3.4912
20.1760,3.4316
20.0864,3.3420
20.0268,3.3116
20.4276,2.9108
20.3809,2.8725
20.3809,2.8725
20.2152,2.7840
20.2152,2.7840
20.0354,2.7294
19.8484,2.7110
19.6614,2.7294
19.6613,2.7294
19.4815,2.7840
19.4815,2.7840
19.3158,2.8725
19.3158,2.8725
19.2692,2.9108
19.6699,3.3116
19.6103,3.3420
19.5207,3.4316
19.4903,3.4912
19.0896,3.0904
19.0513,3.1370
19.0513,3.1370
18.9627,3.3027
18.9627,3.3028
18.9082,3.4826
18.9082,3.4826
18.8897,3.6696
10.7538,3.6696
10.7340,3.4813
10.6888,3.3420
10.6755,3.3013
10.6755,3.3013
10.5809,3.1374
10.4542,2.9967
10.4542,2.9967
10.3011,2.8854
10.3011,2.8854
10.1282,2.8085
10.1282,2.8085
10.0554,2.7930
9.9430,2.7691
9.7537,2.7691
9.6413,2.7930
9.5686,2.8085
9.3956,2.8854
9.3956,2.8854
9.2425,2.9967
9.2425,2.9967
9.1158,3.1374
9.0212,3.3013
9.0212,3.3013
8.9627,3.4813
8.9627,3.4813
8.9429,3.6696
8.9429,3.6696
7.3323,3.6696
7.3323,3.6150
6.5553,3.6150
6.3013,3.6150
5.5243,3.6150
3.0247,3.6150
3.0247,3.4950
3.0088,3.4410
3.7867,3.4410
3.7867,3.3610
5.5243,3.3610
6.3013,3.3610
6.3013,2.4840
6.5553,2.4840
6.5553,3.3610
7.3323,3.3610
7.3323,2.7130
7.3323,2.7130
7.3175,2.6389
7.2614,2.5549
7.1774,2.4987
7.1774,2.4987
7.1033,2.4840
6.5553,2.4840
6.3013,2.4840
5.7532,2.4840
5.7532,2.4840
5.6792,2.4987
5.5951,2.5549
5.5390,2.6389
5.5390,2.6389
5.5243,2.7130
5.5243,3.3610
3.7867,3.3610
3.7867,2.5270
3.7867,2.5270
3.7719,2.4529
3.7158,2.3689
3.6318,2.3127
3.6318,2.3127
3.5598,2.2984
16.5440,2.2984
16.5543,2.4625
16.5543,2.4625
16.6051,2.6188
16.6051,2.6188
16.6932,2.7575
16.6932,2.7575
16.8130,2.8700
16.9570,2.9492
17.1162,2.9901
17.1162,2.9901
17.2393,2.9901
17.2393,2.9901
17.3614,2.9747
17.5142,2.9142
17.6472,2.8176
17.7520,2.6909
17.8219,2.5422
17.8527,2.3808
17.8424,2.2167
17.8424,2.2167
17.8424,2.2167
17.7916,2.0604
17.7916,2.0604
17.7036,1.9217
17.6953,1.9139
17.5838,1.8092
17.5838,1.8091
17.4397,1.7300
17.4397,1.7300
17.2805,1.6891
17.1574,1.6891
17.1328,1.6922
17.0353,1.7045
17.0353,1.7045
16.8825,1.7650
16.8825,1.7650
16.7495,1.8616
16.6448,1.9883
16.5748,2.1370
16.5440,2.2984
3.5598,2.2984
3.5577,2.2980
2.6437,2.2980
2.6437,3.0730
2.5530,3.0600
2.4803,3.0600
2.3897,3.0730
2.3897,2.2980
1.4756,2.2980
1.4756,2.2980
1.4016,2.3127
1.3175,2.3689
1.2614,2.4529
1.2614,2.4529
1.2467,2.5270
1.2467,3.4410
0.9344,3.4410
0.9344,1.4513
0.9520,1.4030
0.9965,1.3772
1.0096,1.3761
26.0202,1.3761
Z" /> 
</g>
</g>
</g>
<g style="fill:#000000; fill-opacity:1.0000; 
stroke:#000000; stroke-width:0.0000; stroke-opacity:1; 
stroke-linecap:round; stroke-linejoin:round;">
<circle cx="14.5055" cy="8.8512" r="0.1651" /> 
</g>
<g style="fill:#000000; fill-opacity:1.0000; 
stroke:#000000; stroke-width:0.0212; stroke-opacity:1; 
stroke-linecap:round; stroke-linejoin:round;">
</g>
<g style="fill:#000000; fill-opacity:1.0000; 
stroke:#000000; stroke-width:0.0000; stroke-opacity:1; 
stroke-linecap:round; stroke-linejoin:round;">
<circle cx="22.1763" cy="13.9820" r="0.1651" /> 
</g>
<g style="fill:#000000; fill-opacity:1.0000; 
stroke:#000000; stroke-width:0.0212; stroke-opacity:1; 
stroke-linecap:round; stroke-linejoin:round;">
</g>
<g style="fill:#000000; fill-opacity:1.0000; 
stroke:#000000; stroke-width:0.0000; stroke-opacity:1; 
stroke-linecap:round; stroke-linejoin:round;">
<circle cx="3.3803" cy="9.3592" r="0.1651" /> 
</g>
<g style="fill:#000000; fill-opacity:1.0000; 
stroke:#000000; stroke-width:0.0212; stroke-opacity:1; 
stroke-linecap:round; stroke-linejoin:round;">
</g>
<g style="fill:#000000; fill-opacity:1.0000; 
stroke:#000000; stroke-width:0.0000; stroke-opacity:1; 
stroke-linecap:round; stroke-linejoin:round;">
<circle cx="2.5167" cy="3.5680" r="0.5080" /> 
</g>
<g style="fill:#000000; fill-opacity:1.0000; 
stroke:#000000; stroke-width:0.0212; stroke-opacity:1; 
stroke-linecap:round; stroke-linejoin:round;">
</g>
<g style="fill:#000000; fill-opacity:1.0000; 
stroke:#000000; stroke-width:0.0000; stroke-opacity:1; 
stroke-linecap:round; stroke-linejoin:round;">
<circle cx="2.5167" cy="6.1080" r="0.5080" /> 
</g>
<g style="fill:#000000; fill-opacity:1.0000; 
stroke:#000000; stroke-width:0.0212; stroke-opacity:1; 
stroke-linecap:round; stroke-linejoin:round;">
</g>
<g style="fill:#000000; fill-opacity:1.0000; 
stroke:#000000; stroke-width:0.0000; stroke-opacity:1; 
stroke-linecap:round; stroke-linejoin:round;">
<circle cx="8.2063" cy="17.3348" r="0.5080" /> 
</g>
<g style="fill:#000000; fill-opacity:1.0000; 
stroke:#000000; stroke-width:0.0212; stroke-opacity:1; 
stroke-linecap:round; stroke-linejoin:round;">
</g>
<g style="fill:#000000; fill-opacity:1.0000; 
stroke:#000000; stroke-width:0.0000; stroke-opacity:1; 
stroke-linecap:round; stroke-linejoin:round;">
<circle cx="10.7463" cy="17.3348" r="0.5080" /> 
</g>
<g style="fill:#000000; fill-opacity:1.0000; 
stroke:#000000; stroke-width:0.0212; stroke-opacity:1; 
stroke-linecap:round; stroke-linejoin:round;">
</g>
<g style="fill:#000000; fill-opacity:1.0000; 
stroke:#000000; stroke-width:0.0000; stroke-opacity:1; 
stroke-linecap:round; stroke-linejoin:round;">
<circle cx="8.2484" cy="7.5396" r="0.4000" /> 
</g>
<g style="fill:#000000; fill-opacity:1.0000; 
stroke:#000000; stroke-width:0.0212; stroke-opacity:1; 
stroke-linecap:round; stroke-linejoin:round;">
</g>
<g style="fill:#000000; fill-opacity:1.0000; 
stroke:#000000; stroke-width:0.0000; stroke-opacity:1; 
stroke-linecap:round; stroke-linejoin:round;">
<circle cx="17.1984" cy="2.3396" r="0.4000" /> 
</g>
<g style="fill:#000000; fill-opacity:1.0000; 
stroke:#000000; stroke-width:0.0212; stroke-opacity:1; 
stroke-linecap:round; stroke-linejoin:round;">
</g>
<g style="fill:#000000; fill-opacity:1.0000; 
stroke:#000000; stroke-width:0.0000; stroke-opacity:1; 
stroke-linecap:round; stroke-linejoin:round;">
<circle cx="9.8484" cy="3.6696" r="0.4000" /> 
</g>
<g style="fill:#000000; fill-opacity:1.0000; 
stroke:#000000; stroke-width:0.0212; stroke-opacity:1; 
stroke-linecap:round; stroke-linejoin:round;">
</g>
<g style="fill:#000000; fill-opacity:1.0000; 
stroke:#000000; stroke-width:0.0000; stroke-opacity:1; 
stroke-linecap:round; stroke-linejoin:round;">
<circle cx="9.8484" cy="6.2096" r="0.4000" /> 
</g>
<g style="fill:#000000; fill-opacity:1.0000; 
stroke:#000000; stroke-width:0.0212; stroke-opacity:1; 
stroke-linecap:round; stroke-linejoin:round;">
</g>
<g style="fill:#000000; fill-opacity:1.0000; 
stroke:#000000; stroke-width:0.0000; stroke-opacity:1; 
stroke-linecap:round; stroke-linejoin:round;">
<circle cx="19.8484" cy="6.2096" r="0.4000" /> 
</g>
<g style="fill:#000000; fill-opacity:1.0000; 
stroke:#000000; stroke-width:0.0212; stroke-opacity:1; 
stroke-linecap:round; stroke-linejoin:round;">
</g>
<g style="fill:#000000; fill-opacity:1.0000; 
stroke:#000000; stroke-width:0.0000; stroke-opacity:1; 
stroke-linecap:round; stroke-linejoin:round;">
<circle cx="19.8484" cy="3.6696" r="0.4000" /> 
</g>
<g style="fill:#000000; fill-opacity:1.0000; 
stroke:#000000; stroke-width:0.0212; stroke-opacity:1; 
stroke-linecap:round; stroke-linejoin:round;">
</g>
<g style="fill:#FFFFFF; fill-opacity:1.0000; 
stroke:#FFFFFF; stroke-width:0.0212; stroke-opacity:1; 
stroke-linecap:round; stroke-linejoin:round;">
<g >
</g>
<g >
</g>
<g >
</g>
<g >
</g>
<g >
</g>
<g >
</g>
<g >
</g>
<g >
</g>
<g >
</g>
<g >
</g>
<g >
</g>
<g >
</g>
<g >
</g>
<g >
</g>
</g>
<g style="fill:#FFFFFF; fill-opacity:1.0000; 
stroke:#FFFFFF; stroke-width:0.0212; stroke-opacity:1; 
stroke-linecap:round; stroke-linejoin:round;">
</g>
<g style="fill:#2F2D31; fill-opacity:1.0000; 
stroke:#2F2D31; stroke-width:0.0212; stroke-opacity:1; 
stroke-linecap:round; stroke-linejoin:round;">
</g>
<g style="fill:#2F2D31; fill-opacity:1.0000; 
stroke:#2F2D31; stroke-width:0.1000; stroke-opacity:1; 
stroke-linecap:round; stroke-linejoin:round;">
</g>
<g style="fill:#2F2D31; fill-opacity:0.0; 
stroke:#2F2D31; stroke-width:0.1000; stroke-opacity:1; 
stroke-linecap:round; stroke-linejoin:round;">
<path d="M0.4339 19.9256
L26.5959 19.9256
" />
<path d="M0.4339 0.8756
L0.4339 19.9256
" />
<path d="M26.5959 19.9256
L26.5959 0.8756
" />
<path d="M26.5959 0.8756
L0.4339 0.8756
" />
<g >
</g>
<g >
</g>
<g >
</g>
<g >
</g>
<g >
</g>
<g >
</g>
<g >
</g>
<g >
</g>
<g >
</g>
<g >
</g>
<g >
</g>
<g >
</g>
<g >
</g>
<g >
</g>
</g> 
</svg>
