<?xml version="1.0" standalone="no"?>
 <!DOCTYPE svg PUBLIC "-//W3C//DTD SVG 1.1//EN" 
 "http://www.w3.org/Graphics/SVG/1.1/DTD/svg11.dtd"> 
<svg
  xmlns:svg="http://www.w3.org/2000/svg"
  xmlns="http://www.w3.org/2000/svg"
  xmlns:xlink="http://www.w3.org/1999/xlink"
  version="1.1"
  width="36.9824mm" height="51.9938mm" viewBox="0.0000 0.0000 36.9824 51.9938">
<title>SVG Image created as working-brd.svg date 2023/09/29 18:29:15 </title>
  <desc>Image generated by PCBNEW </desc>
<g style="fill:#000000; fill-opacity:1.0000;stroke:#000000; stroke-opacity:1.0000;
stroke-linecap:round; stroke-linejoin:round;"
 transform="translate(0 0) scale(1 1)">
</g>
<g style="fill:#000000; fill-opacity:0.0; 
stroke:#000000; stroke-width:0.0000; stroke-opacity:1; 
stroke-linecap:round; stroke-linejoin:round;">
</g>
<g style="fill:#000000; fill-opacity:1.0000; 
stroke:#000000; stroke-width:0.0212; stroke-opacity:1; 
stroke-linecap:round; stroke-linejoin:round;">
<rect x="-5.000000" y="-5.000000" width="47.000000" height="62.000000" rx="0.000000" />
</g>
<g style="fill:#FFFFFF; fill-opacity:1.0000; 
stroke:#FFFFFF; stroke-width:0.0212; stroke-opacity:1; 
stroke-linecap:round; stroke-linejoin:round;">
<g >
</g>
<g style="fill:#B2803A; fill-opacity:1.0000; 
stroke:#B2803A; stroke-width:0.0212; stroke-opacity:1; 
stroke-linecap:round; stroke-linejoin:round;">
</g>
<g style="fill:#B2803A; fill-opacity:1.0000; 
stroke:#B2803A; stroke-width:0.0000; stroke-opacity:1; 
stroke-linecap:round; stroke-linejoin:round;">
<circle cx="6.7440" cy="5.4340" r="0.9995" /> 
</g>
<g style="fill:#B2803A; fill-opacity:1.0000; 
stroke:#B2803A; stroke-width:0.0212; stroke-opacity:1; 
stroke-linecap:round; stroke-linejoin:round;">
</g>
<g style="fill:#B2803A; fill-opacity:1.0000; 
stroke:#B2803A; stroke-width:0.0000; stroke-opacity:1; 
stroke-linecap:round; stroke-linejoin:round;">
<circle cx="6.7440" cy="20.4340" r="0.9995" /> 
</g>
<g style="fill:#B2803A; fill-opacity:1.0000; 
stroke:#B2803A; stroke-width:0.0212; stroke-opacity:1; 
stroke-linecap:round; stroke-linejoin:round;">
</g>
<g >
</g>
<g style="fill:#B2803A; fill-opacity:1.0000; 
stroke:#B2803A; stroke-width:0.0212; stroke-opacity:1; 
stroke-linecap:round; stroke-linejoin:round;">
</g>
<g style="fill:#B2803A; fill-opacity:1.0000; 
stroke:#B2803A; stroke-width:0.0000; stroke-opacity:1; 
stroke-linecap:round; stroke-linejoin:round;">
<path style="fill:#B2803A; fill-opacity:1.0000; 
stroke:#B2803A; stroke-width:0.0000; stroke-opacity:1; 
stroke-linecap:round; stroke-linejoin:round;fill-rule:evenodd;"
d="M 5.2040,38.5720
3.2040,38.5720
3.2040,36.5720
5.2040,36.5720
Z" /> 
<circle cx="4.2040" cy="35.0320" r="1.0000" /> 
</g>
<g style="fill:#B2803A; fill-opacity:1.0000; 
stroke:#B2803A; stroke-width:0.0212; stroke-opacity:1; 
stroke-linecap:round; stroke-linejoin:round;">
</g>
<g style="fill:#B2803A; fill-opacity:1.0000; 
stroke:#B2803A; stroke-width:0.0000; stroke-opacity:1; 
stroke-linecap:round; stroke-linejoin:round;">
<circle cx="4.2040" cy="32.4920" r="1.0000" /> 
</g>
<g style="fill:#B2803A; fill-opacity:1.0000; 
stroke:#B2803A; stroke-width:0.0212; stroke-opacity:1; 
stroke-linecap:round; stroke-linejoin:round;">
</g>
<g >
</g>
<g style="fill:#B2803A; fill-opacity:1.0000; 
stroke:#B2803A; stroke-width:0.0212; stroke-opacity:1; 
stroke-linecap:round; stroke-linejoin:round;">
</g>
<g style="fill:#B2803A; fill-opacity:1.0000; 
stroke:#B2803A; stroke-width:0.0000; stroke-opacity:1; 
stroke-linecap:round; stroke-linejoin:round;">
<circle cx="12.1100" cy="10.7600" r="0.9500" /> 
</g>
<g style="fill:#B2803A; fill-opacity:1.0000; 
stroke:#B2803A; stroke-width:0.0212; stroke-opacity:1; 
stroke-linecap:round; stroke-linejoin:round;">
</g>
<g style="fill:#B2803A; fill-opacity:1.0000; 
stroke:#B2803A; stroke-width:0.0000; stroke-opacity:1; 
stroke-linecap:round; stroke-linejoin:round;">
<circle cx="12.1100" cy="13.3000" r="0.9500" /> 
</g>
<g style="fill:#B2803A; fill-opacity:1.0000; 
stroke:#B2803A; stroke-width:0.0212; stroke-opacity:1; 
stroke-linecap:round; stroke-linejoin:round;">
</g>
<g style="fill:#B2803A; fill-opacity:1.0000; 
stroke:#B2803A; stroke-width:0.0000; stroke-opacity:1; 
stroke-linecap:round; stroke-linejoin:round;">
<circle cx="12.1100" cy="15.8400" r="0.9500" /> 
</g>
<g style="fill:#B2803A; fill-opacity:1.0000; 
stroke:#B2803A; stroke-width:0.0212; stroke-opacity:1; 
stroke-linecap:round; stroke-linejoin:round;">
</g>
<g style="fill:#B2803A; fill-opacity:1.0000; 
stroke:#B2803A; stroke-width:0.0000; stroke-opacity:1; 
stroke-linecap:round; stroke-linejoin:round;">
<circle cx="12.1100" cy="18.3800" r="0.9500" /> 
</g>
<g style="fill:#B2803A; fill-opacity:1.0000; 
stroke:#B2803A; stroke-width:0.0212; stroke-opacity:1; 
stroke-linecap:round; stroke-linejoin:round;">
</g>
<g style="fill:#B2803A; fill-opacity:1.0000; 
stroke:#B2803A; stroke-width:0.0000; stroke-opacity:1; 
stroke-linecap:round; stroke-linejoin:round;">
<circle cx="12.1100" cy="20.9200" r="0.9500" /> 
</g>
<g style="fill:#B2803A; fill-opacity:1.0000; 
stroke:#B2803A; stroke-width:0.0212; stroke-opacity:1; 
stroke-linecap:round; stroke-linejoin:round;">
</g>
<g style="fill:#B2803A; fill-opacity:1.0000; 
stroke:#B2803A; stroke-width:0.0000; stroke-opacity:1; 
stroke-linecap:round; stroke-linejoin:round;">
<circle cx="12.1100" cy="23.4600" r="0.9500" /> 
</g>
<g style="fill:#B2803A; fill-opacity:1.0000; 
stroke:#B2803A; stroke-width:0.0212; stroke-opacity:1; 
stroke-linecap:round; stroke-linejoin:round;">
</g>
<g style="fill:#B2803A; fill-opacity:1.0000; 
stroke:#B2803A; stroke-width:0.0000; stroke-opacity:1; 
stroke-linecap:round; stroke-linejoin:round;">
<circle cx="12.1100" cy="26.0000" r="0.9500" /> 
</g>
<g style="fill:#B2803A; fill-opacity:1.0000; 
stroke:#B2803A; stroke-width:0.0212; stroke-opacity:1; 
stroke-linecap:round; stroke-linejoin:round;">
</g>
<g style="fill:#B2803A; fill-opacity:1.0000; 
stroke:#B2803A; stroke-width:0.0000; stroke-opacity:1; 
stroke-linecap:round; stroke-linejoin:round;">
<circle cx="12.1100" cy="28.5400" r="0.9500" /> 
</g>
<g style="fill:#B2803A; fill-opacity:1.0000; 
stroke:#B2803A; stroke-width:0.0212; stroke-opacity:1; 
stroke-linecap:round; stroke-linejoin:round;">
</g>
<g style="fill:#B2803A; fill-opacity:1.0000; 
stroke:#B2803A; stroke-width:0.0000; stroke-opacity:1; 
stroke-linecap:round; stroke-linejoin:round;">
<circle cx="12.1100" cy="31.0800" r="0.9500" /> 
</g>
<g style="fill:#B2803A; fill-opacity:1.0000; 
stroke:#B2803A; stroke-width:0.0212; stroke-opacity:1; 
stroke-linecap:round; stroke-linejoin:round;">
</g>
<g style="fill:#B2803A; fill-opacity:1.0000; 
stroke:#B2803A; stroke-width:0.0000; stroke-opacity:1; 
stroke-linecap:round; stroke-linejoin:round;">
<circle cx="12.1100" cy="33.6200" r="0.9500" /> 
</g>
<g style="fill:#B2803A; fill-opacity:1.0000; 
stroke:#B2803A; stroke-width:0.0212; stroke-opacity:1; 
stroke-linecap:round; stroke-linejoin:round;">
</g>
<g style="fill:#B2803A; fill-opacity:1.0000; 
stroke:#B2803A; stroke-width:0.0000; stroke-opacity:1; 
stroke-linecap:round; stroke-linejoin:round;">
<circle cx="12.1100" cy="36.1600" r="0.9500" /> 
</g>
<g style="fill:#B2803A; fill-opacity:1.0000; 
stroke:#B2803A; stroke-width:0.0212; stroke-opacity:1; 
stroke-linecap:round; stroke-linejoin:round;">
</g>
<g style="fill:#B2803A; fill-opacity:1.0000; 
stroke:#B2803A; stroke-width:0.0000; stroke-opacity:1; 
stroke-linecap:round; stroke-linejoin:round;">
<circle cx="12.1100" cy="38.7000" r="0.9500" /> 
</g>
<g style="fill:#B2803A; fill-opacity:1.0000; 
stroke:#B2803A; stroke-width:0.0212; stroke-opacity:1; 
stroke-linecap:round; stroke-linejoin:round;">
</g>
<g style="fill:#B2803A; fill-opacity:1.0000; 
stroke:#B2803A; stroke-width:0.0000; stroke-opacity:1; 
stroke-linecap:round; stroke-linejoin:round;">
<circle cx="29.8900" cy="38.7000" r="0.9500" /> 
</g>
<g style="fill:#B2803A; fill-opacity:1.0000; 
stroke:#B2803A; stroke-width:0.0212; stroke-opacity:1; 
stroke-linecap:round; stroke-linejoin:round;">
</g>
<g style="fill:#B2803A; fill-opacity:1.0000; 
stroke:#B2803A; stroke-width:0.0000; stroke-opacity:1; 
stroke-linecap:round; stroke-linejoin:round;">
<circle cx="29.8900" cy="36.1600" r="0.9500" /> 
</g>
<g style="fill:#B2803A; fill-opacity:1.0000; 
stroke:#B2803A; stroke-width:0.0212; stroke-opacity:1; 
stroke-linecap:round; stroke-linejoin:round;">
</g>
<g style="fill:#B2803A; fill-opacity:1.0000; 
stroke:#B2803A; stroke-width:0.0000; stroke-opacity:1; 
stroke-linecap:round; stroke-linejoin:round;">
<circle cx="29.8900" cy="33.6200" r="0.9500" /> 
</g>
<g style="fill:#B2803A; fill-opacity:1.0000; 
stroke:#B2803A; stroke-width:0.0212; stroke-opacity:1; 
stroke-linecap:round; stroke-linejoin:round;">
</g>
<g style="fill:#B2803A; fill-opacity:1.0000; 
stroke:#B2803A; stroke-width:0.0000; stroke-opacity:1; 
stroke-linecap:round; stroke-linejoin:round;">
<circle cx="29.8900" cy="31.0800" r="0.9500" /> 
</g>
<g style="fill:#B2803A; fill-opacity:1.0000; 
stroke:#B2803A; stroke-width:0.0212; stroke-opacity:1; 
stroke-linecap:round; stroke-linejoin:round;">
</g>
<g style="fill:#B2803A; fill-opacity:1.0000; 
stroke:#B2803A; stroke-width:0.0000; stroke-opacity:1; 
stroke-linecap:round; stroke-linejoin:round;">
<circle cx="29.8900" cy="28.5400" r="0.9500" /> 
</g>
<g style="fill:#B2803A; fill-opacity:1.0000; 
stroke:#B2803A; stroke-width:0.0212; stroke-opacity:1; 
stroke-linecap:round; stroke-linejoin:round;">
</g>
<g style="fill:#B2803A; fill-opacity:1.0000; 
stroke:#B2803A; stroke-width:0.0000; stroke-opacity:1; 
stroke-linecap:round; stroke-linejoin:round;">
<circle cx="29.8900" cy="26.0000" r="0.9500" /> 
</g>
<g style="fill:#B2803A; fill-opacity:1.0000; 
stroke:#B2803A; stroke-width:0.0212; stroke-opacity:1; 
stroke-linecap:round; stroke-linejoin:round;">
</g>
<g style="fill:#B2803A; fill-opacity:1.0000; 
stroke:#B2803A; stroke-width:0.0000; stroke-opacity:1; 
stroke-linecap:round; stroke-linejoin:round;">
<circle cx="29.8900" cy="23.4600" r="0.9500" /> 
</g>
<g style="fill:#B2803A; fill-opacity:1.0000; 
stroke:#B2803A; stroke-width:0.0212; stroke-opacity:1; 
stroke-linecap:round; stroke-linejoin:round;">
</g>
<g style="fill:#B2803A; fill-opacity:1.0000; 
stroke:#B2803A; stroke-width:0.0000; stroke-opacity:1; 
stroke-linecap:round; stroke-linejoin:round;">
<circle cx="29.8900" cy="20.9200" r="0.9500" /> 
</g>
<g style="fill:#B2803A; fill-opacity:1.0000; 
stroke:#B2803A; stroke-width:0.0212; stroke-opacity:1; 
stroke-linecap:round; stroke-linejoin:round;">
</g>
<g style="fill:#B2803A; fill-opacity:1.0000; 
stroke:#B2803A; stroke-width:0.0000; stroke-opacity:1; 
stroke-linecap:round; stroke-linejoin:round;">
<circle cx="29.8900" cy="18.3800" r="0.9500" /> 
</g>
<g style="fill:#B2803A; fill-opacity:1.0000; 
stroke:#B2803A; stroke-width:0.0212; stroke-opacity:1; 
stroke-linecap:round; stroke-linejoin:round;">
</g>
<g style="fill:#B2803A; fill-opacity:1.0000; 
stroke:#B2803A; stroke-width:0.0000; stroke-opacity:1; 
stroke-linecap:round; stroke-linejoin:round;">
<circle cx="29.8900" cy="15.8400" r="0.9500" /> 
</g>
<g style="fill:#B2803A; fill-opacity:1.0000; 
stroke:#B2803A; stroke-width:0.0212; stroke-opacity:1; 
stroke-linecap:round; stroke-linejoin:round;">
</g>
<g style="fill:#B2803A; fill-opacity:1.0000; 
stroke:#B2803A; stroke-width:0.0000; stroke-opacity:1; 
stroke-linecap:round; stroke-linejoin:round;">
<circle cx="29.8900" cy="13.3000" r="0.9500" /> 
</g>
<g style="fill:#B2803A; fill-opacity:1.0000; 
stroke:#B2803A; stroke-width:0.0212; stroke-opacity:1; 
stroke-linecap:round; stroke-linejoin:round;">
</g>
<g style="fill:#B2803A; fill-opacity:1.0000; 
stroke:#B2803A; stroke-width:0.0000; stroke-opacity:1; 
stroke-linecap:round; stroke-linejoin:round;">
<circle cx="29.8900" cy="10.7600" r="0.9500" /> 
</g>
<g style="fill:#B2803A; fill-opacity:1.0000; 
stroke:#B2803A; stroke-width:0.0212; stroke-opacity:1; 
stroke-linecap:round; stroke-linejoin:round;">
</g>
<g >
</g>
<g >
</g>
<g >
</g>
<g >
</g>
</g>
<g style="fill:#000000; fill-opacity:1.0000; 
stroke:#000000; stroke-width:0.0212; stroke-opacity:1; 
stroke-linecap:round; stroke-linejoin:round;">
</g>
<g style="fill:#000000; fill-opacity:1.0000; 
stroke:#000000; stroke-width:0.0000; stroke-opacity:1; 
stroke-linecap:round; stroke-linejoin:round;">
<circle cx="6.7440" cy="5.4340" r="0.5004" /> 
</g>
<g style="fill:#000000; fill-opacity:1.0000; 
stroke:#000000; stroke-width:0.0212; stroke-opacity:1; 
stroke-linecap:round; stroke-linejoin:round;">
</g>
<g style="fill:#000000; fill-opacity:1.0000; 
stroke:#000000; stroke-width:0.0000; stroke-opacity:1; 
stroke-linecap:round; stroke-linejoin:round;">
<circle cx="6.7440" cy="20.4340" r="0.5004" /> 
</g>
<g style="fill:#000000; fill-opacity:1.0000; 
stroke:#000000; stroke-width:0.0212; stroke-opacity:1; 
stroke-linecap:round; stroke-linejoin:round;">
</g>
<g style="fill:#000000; fill-opacity:1.0000; 
stroke:#000000; stroke-width:0.0000; stroke-opacity:1; 
stroke-linecap:round; stroke-linejoin:round;">
<circle cx="4.2040" cy="37.5720" r="0.5080" /> 
</g>
<g style="fill:#000000; fill-opacity:1.0000; 
stroke:#000000; stroke-width:0.0212; stroke-opacity:1; 
stroke-linecap:round; stroke-linejoin:round;">
</g>
<g style="fill:#000000; fill-opacity:1.0000; 
stroke:#000000; stroke-width:0.0000; stroke-opacity:1; 
stroke-linecap:round; stroke-linejoin:round;">
<circle cx="4.2040" cy="35.0320" r="0.5080" /> 
</g>
<g style="fill:#000000; fill-opacity:1.0000; 
stroke:#000000; stroke-width:0.0212; stroke-opacity:1; 
stroke-linecap:round; stroke-linejoin:round;">
</g>
<g style="fill:#000000; fill-opacity:1.0000; 
stroke:#000000; stroke-width:0.0000; stroke-opacity:1; 
stroke-linecap:round; stroke-linejoin:round;">
<circle cx="4.2040" cy="32.4920" r="0.5080" /> 
</g>
<g style="fill:#000000; fill-opacity:1.0000; 
stroke:#000000; stroke-width:0.0212; stroke-opacity:1; 
stroke-linecap:round; stroke-linejoin:round;">
</g>
<g style="fill:#000000; fill-opacity:1.0000; 
stroke:#000000; stroke-width:0.0000; stroke-opacity:1; 
stroke-linecap:round; stroke-linejoin:round;">
<circle cx="12.1100" cy="10.7600" r="0.5100" /> 
</g>
<g style="fill:#000000; fill-opacity:1.0000; 
stroke:#000000; stroke-width:0.0212; stroke-opacity:1; 
stroke-linecap:round; stroke-linejoin:round;">
</g>
<g style="fill:#000000; fill-opacity:1.0000; 
stroke:#000000; stroke-width:0.0000; stroke-opacity:1; 
stroke-linecap:round; stroke-linejoin:round;">
<circle cx="12.1100" cy="13.3000" r="0.5100" /> 
</g>
<g style="fill:#000000; fill-opacity:1.0000; 
stroke:#000000; stroke-width:0.0212; stroke-opacity:1; 
stroke-linecap:round; stroke-linejoin:round;">
</g>
<g style="fill:#000000; fill-opacity:1.0000; 
stroke:#000000; stroke-width:0.0000; stroke-opacity:1; 
stroke-linecap:round; stroke-linejoin:round;">
<circle cx="12.1100" cy="15.8400" r="0.5100" /> 
</g>
<g style="fill:#000000; fill-opacity:1.0000; 
stroke:#000000; stroke-width:0.0212; stroke-opacity:1; 
stroke-linecap:round; stroke-linejoin:round;">
</g>
<g style="fill:#000000; fill-opacity:1.0000; 
stroke:#000000; stroke-width:0.0000; stroke-opacity:1; 
stroke-linecap:round; stroke-linejoin:round;">
<circle cx="12.1100" cy="18.3800" r="0.5100" /> 
</g>
<g style="fill:#000000; fill-opacity:1.0000; 
stroke:#000000; stroke-width:0.0212; stroke-opacity:1; 
stroke-linecap:round; stroke-linejoin:round;">
</g>
<g style="fill:#000000; fill-opacity:1.0000; 
stroke:#000000; stroke-width:0.0000; stroke-opacity:1; 
stroke-linecap:round; stroke-linejoin:round;">
<circle cx="12.1100" cy="20.9200" r="0.5100" /> 
</g>
<g style="fill:#000000; fill-opacity:1.0000; 
stroke:#000000; stroke-width:0.0212; stroke-opacity:1; 
stroke-linecap:round; stroke-linejoin:round;">
</g>
<g style="fill:#000000; fill-opacity:1.0000; 
stroke:#000000; stroke-width:0.0000; stroke-opacity:1; 
stroke-linecap:round; stroke-linejoin:round;">
<circle cx="12.1100" cy="23.4600" r="0.5100" /> 
</g>
<g style="fill:#000000; fill-opacity:1.0000; 
stroke:#000000; stroke-width:0.0212; stroke-opacity:1; 
stroke-linecap:round; stroke-linejoin:round;">
</g>
<g style="fill:#000000; fill-opacity:1.0000; 
stroke:#000000; stroke-width:0.0000; stroke-opacity:1; 
stroke-linecap:round; stroke-linejoin:round;">
<circle cx="12.1100" cy="26.0000" r="0.5100" /> 
</g>
<g style="fill:#000000; fill-opacity:1.0000; 
stroke:#000000; stroke-width:0.0212; stroke-opacity:1; 
stroke-linecap:round; stroke-linejoin:round;">
</g>
<g style="fill:#000000; fill-opacity:1.0000; 
stroke:#000000; stroke-width:0.0000; stroke-opacity:1; 
stroke-linecap:round; stroke-linejoin:round;">
<circle cx="12.1100" cy="28.5400" r="0.5100" /> 
</g>
<g style="fill:#000000; fill-opacity:1.0000; 
stroke:#000000; stroke-width:0.0212; stroke-opacity:1; 
stroke-linecap:round; stroke-linejoin:round;">
</g>
<g style="fill:#000000; fill-opacity:1.0000; 
stroke:#000000; stroke-width:0.0000; stroke-opacity:1; 
stroke-linecap:round; stroke-linejoin:round;">
<circle cx="12.1100" cy="31.0800" r="0.5100" /> 
</g>
<g style="fill:#000000; fill-opacity:1.0000; 
stroke:#000000; stroke-width:0.0212; stroke-opacity:1; 
stroke-linecap:round; stroke-linejoin:round;">
</g>
<g style="fill:#000000; fill-opacity:1.0000; 
stroke:#000000; stroke-width:0.0000; stroke-opacity:1; 
stroke-linecap:round; stroke-linejoin:round;">
<circle cx="12.1100" cy="33.6200" r="0.5100" /> 
</g>
<g style="fill:#000000; fill-opacity:1.0000; 
stroke:#000000; stroke-width:0.0212; stroke-opacity:1; 
stroke-linecap:round; stroke-linejoin:round;">
</g>
<g style="fill:#000000; fill-opacity:1.0000; 
stroke:#000000; stroke-width:0.0000; stroke-opacity:1; 
stroke-linecap:round; stroke-linejoin:round;">
<circle cx="12.1100" cy="36.1600" r="0.5100" /> 
</g>
<g style="fill:#000000; fill-opacity:1.0000; 
stroke:#000000; stroke-width:0.0212; stroke-opacity:1; 
stroke-linecap:round; stroke-linejoin:round;">
</g>
<g style="fill:#000000; fill-opacity:1.0000; 
stroke:#000000; stroke-width:0.0000; stroke-opacity:1; 
stroke-linecap:round; stroke-linejoin:round;">
<circle cx="12.1100" cy="38.7000" r="0.5100" /> 
</g>
<g style="fill:#000000; fill-opacity:1.0000; 
stroke:#000000; stroke-width:0.0212; stroke-opacity:1; 
stroke-linecap:round; stroke-linejoin:round;">
</g>
<g style="fill:#000000; fill-opacity:1.0000; 
stroke:#000000; stroke-width:0.0000; stroke-opacity:1; 
stroke-linecap:round; stroke-linejoin:round;">
<circle cx="29.8900" cy="38.7000" r="0.5100" /> 
</g>
<g style="fill:#000000; fill-opacity:1.0000; 
stroke:#000000; stroke-width:0.0212; stroke-opacity:1; 
stroke-linecap:round; stroke-linejoin:round;">
</g>
<g style="fill:#000000; fill-opacity:1.0000; 
stroke:#000000; stroke-width:0.0000; stroke-opacity:1; 
stroke-linecap:round; stroke-linejoin:round;">
<circle cx="29.8900" cy="36.1600" r="0.5100" /> 
</g>
<g style="fill:#000000; fill-opacity:1.0000; 
stroke:#000000; stroke-width:0.0212; stroke-opacity:1; 
stroke-linecap:round; stroke-linejoin:round;">
</g>
<g style="fill:#000000; fill-opacity:1.0000; 
stroke:#000000; stroke-width:0.0000; stroke-opacity:1; 
stroke-linecap:round; stroke-linejoin:round;">
<circle cx="29.8900" cy="33.6200" r="0.5100" /> 
</g>
<g style="fill:#000000; fill-opacity:1.0000; 
stroke:#000000; stroke-width:0.0212; stroke-opacity:1; 
stroke-linecap:round; stroke-linejoin:round;">
</g>
<g style="fill:#000000; fill-opacity:1.0000; 
stroke:#000000; stroke-width:0.0000; stroke-opacity:1; 
stroke-linecap:round; stroke-linejoin:round;">
<circle cx="29.8900" cy="31.0800" r="0.5100" /> 
</g>
<g style="fill:#000000; fill-opacity:1.0000; 
stroke:#000000; stroke-width:0.0212; stroke-opacity:1; 
stroke-linecap:round; stroke-linejoin:round;">
</g>
<g style="fill:#000000; fill-opacity:1.0000; 
stroke:#000000; stroke-width:0.0000; stroke-opacity:1; 
stroke-linecap:round; stroke-linejoin:round;">
<circle cx="29.8900" cy="28.5400" r="0.5100" /> 
</g>
<g style="fill:#000000; fill-opacity:1.0000; 
stroke:#000000; stroke-width:0.0212; stroke-opacity:1; 
stroke-linecap:round; stroke-linejoin:round;">
</g>
<g style="fill:#000000; fill-opacity:1.0000; 
stroke:#000000; stroke-width:0.0000; stroke-opacity:1; 
stroke-linecap:round; stroke-linejoin:round;">
<circle cx="29.8900" cy="26.0000" r="0.5100" /> 
</g>
<g style="fill:#000000; fill-opacity:1.0000; 
stroke:#000000; stroke-width:0.0212; stroke-opacity:1; 
stroke-linecap:round; stroke-linejoin:round;">
</g>
<g style="fill:#000000; fill-opacity:1.0000; 
stroke:#000000; stroke-width:0.0000; stroke-opacity:1; 
stroke-linecap:round; stroke-linejoin:round;">
<circle cx="29.8900" cy="23.4600" r="0.5100" /> 
</g>
<g style="fill:#000000; fill-opacity:1.0000; 
stroke:#000000; stroke-width:0.0212; stroke-opacity:1; 
stroke-linecap:round; stroke-linejoin:round;">
</g>
<g style="fill:#000000; fill-opacity:1.0000; 
stroke:#000000; stroke-width:0.0000; stroke-opacity:1; 
stroke-linecap:round; stroke-linejoin:round;">
<circle cx="29.8900" cy="20.9200" r="0.5100" /> 
</g>
<g style="fill:#000000; fill-opacity:1.0000; 
stroke:#000000; stroke-width:0.0212; stroke-opacity:1; 
stroke-linecap:round; stroke-linejoin:round;">
</g>
<g style="fill:#000000; fill-opacity:1.0000; 
stroke:#000000; stroke-width:0.0000; stroke-opacity:1; 
stroke-linecap:round; stroke-linejoin:round;">
<circle cx="29.8900" cy="18.3800" r="0.5100" /> 
</g>
<g style="fill:#000000; fill-opacity:1.0000; 
stroke:#000000; stroke-width:0.0212; stroke-opacity:1; 
stroke-linecap:round; stroke-linejoin:round;">
</g>
<g style="fill:#000000; fill-opacity:1.0000; 
stroke:#000000; stroke-width:0.0000; stroke-opacity:1; 
stroke-linecap:round; stroke-linejoin:round;">
<circle cx="29.8900" cy="15.8400" r="0.5100" /> 
</g>
<g style="fill:#000000; fill-opacity:1.0000; 
stroke:#000000; stroke-width:0.0212; stroke-opacity:1; 
stroke-linecap:round; stroke-linejoin:round;">
</g>
<g style="fill:#000000; fill-opacity:1.0000; 
stroke:#000000; stroke-width:0.0000; stroke-opacity:1; 
stroke-linecap:round; stroke-linejoin:round;">
<circle cx="29.8900" cy="13.3000" r="0.5100" /> 
</g>
<g style="fill:#000000; fill-opacity:1.0000; 
stroke:#000000; stroke-width:0.0212; stroke-opacity:1; 
stroke-linecap:round; stroke-linejoin:round;">
</g>
<g style="fill:#000000; fill-opacity:1.0000; 
stroke:#000000; stroke-width:0.0000; stroke-opacity:1; 
stroke-linecap:round; stroke-linejoin:round;">
<circle cx="29.8900" cy="10.7600" r="0.5100" /> 
</g>
<g style="fill:#000000; fill-opacity:1.0000; 
stroke:#000000; stroke-width:0.0212; stroke-opacity:1; 
stroke-linecap:round; stroke-linejoin:round;">
</g>
<g style="fill:#FFFFFF; fill-opacity:1.0000; 
stroke:#FFFFFF; stroke-width:0.0212; stroke-opacity:1; 
stroke-linecap:round; stroke-linejoin:round;">
<g >
</g>
<g style="fill:#37CBCB; fill-opacity:1.0000; 
stroke:#37CBCB; stroke-width:0.0212; stroke-opacity:1; 
stroke-linecap:round; stroke-linejoin:round;">
</g>
<g style="fill:#37CBCB; fill-opacity:1.0000; 
stroke:#37CBCB; stroke-width:0.0000; stroke-opacity:1; 
stroke-linecap:round; stroke-linejoin:round;">
<circle cx="6.7440" cy="5.4340" r="0.9995" /> 
</g>
<g style="fill:#37CBCB; fill-opacity:1.0000; 
stroke:#37CBCB; stroke-width:0.0212; stroke-opacity:1; 
stroke-linecap:round; stroke-linejoin:round;">
</g>
<g style="fill:#37CBCB; fill-opacity:1.0000; 
stroke:#37CBCB; stroke-width:0.0000; stroke-opacity:1; 
stroke-linecap:round; stroke-linejoin:round;">
<circle cx="6.7440" cy="20.4340" r="0.9995" /> 
</g>
<g style="fill:#37CBCB; fill-opacity:1.0000; 
stroke:#37CBCB; stroke-width:0.0212; stroke-opacity:1; 
stroke-linecap:round; stroke-linejoin:round;">
</g>
<g >
</g>
<g style="fill:#37CBCB; fill-opacity:1.0000; 
stroke:#37CBCB; stroke-width:0.0212; stroke-opacity:1; 
stroke-linecap:round; stroke-linejoin:round;">
</g>
<g style="fill:#37CBCB; fill-opacity:1.0000; 
stroke:#37CBCB; stroke-width:0.0000; stroke-opacity:1; 
stroke-linecap:round; stroke-linejoin:round;">
<path style="fill:#37CBCB; fill-opacity:1.0000; 
stroke:#37CBCB; stroke-width:0.0000; stroke-opacity:1; 
stroke-linecap:round; stroke-linejoin:round;fill-rule:evenodd;"
d="M 5.2040,38.5720
3.2040,38.5720
3.2040,36.5720
5.2040,36.5720
Z" /> 
<circle cx="4.2040" cy="35.0320" r="1.0000" /> 
</g>
<g style="fill:#37CBCB; fill-opacity:1.0000; 
stroke:#37CBCB; stroke-width:0.0212; stroke-opacity:1; 
stroke-linecap:round; stroke-linejoin:round;">
</g>
<g style="fill:#37CBCB; fill-opacity:1.0000; 
stroke:#37CBCB; stroke-width:0.0000; stroke-opacity:1; 
stroke-linecap:round; stroke-linejoin:round;">
<circle cx="4.2040" cy="32.4920" r="1.0000" /> 
</g>
<g style="fill:#37CBCB; fill-opacity:1.0000; 
stroke:#37CBCB; stroke-width:0.0212; stroke-opacity:1; 
stroke-linecap:round; stroke-linejoin:round;">
</g>
<g >
</g>
<g style="fill:#37CBCB; fill-opacity:1.0000; 
stroke:#37CBCB; stroke-width:0.0212; stroke-opacity:1; 
stroke-linecap:round; stroke-linejoin:round;">
</g>
<g style="fill:#37CBCB; fill-opacity:1.0000; 
stroke:#37CBCB; stroke-width:0.0000; stroke-opacity:1; 
stroke-linecap:round; stroke-linejoin:round;">
<circle cx="12.1100" cy="10.7600" r="0.9500" /> 
</g>
<g style="fill:#37CBCB; fill-opacity:1.0000; 
stroke:#37CBCB; stroke-width:0.0212; stroke-opacity:1; 
stroke-linecap:round; stroke-linejoin:round;">
</g>
<g style="fill:#37CBCB; fill-opacity:1.0000; 
stroke:#37CBCB; stroke-width:0.0000; stroke-opacity:1; 
stroke-linecap:round; stroke-linejoin:round;">
<circle cx="12.1100" cy="13.3000" r="0.9500" /> 
</g>
<g style="fill:#37CBCB; fill-opacity:1.0000; 
stroke:#37CBCB; stroke-width:0.0212; stroke-opacity:1; 
stroke-linecap:round; stroke-linejoin:round;">
</g>
<g style="fill:#37CBCB; fill-opacity:1.0000; 
stroke:#37CBCB; stroke-width:0.0000; stroke-opacity:1; 
stroke-linecap:round; stroke-linejoin:round;">
<circle cx="12.1100" cy="15.8400" r="0.9500" /> 
</g>
<g style="fill:#37CBCB; fill-opacity:1.0000; 
stroke:#37CBCB; stroke-width:0.0212; stroke-opacity:1; 
stroke-linecap:round; stroke-linejoin:round;">
</g>
<g style="fill:#37CBCB; fill-opacity:1.0000; 
stroke:#37CBCB; stroke-width:0.0000; stroke-opacity:1; 
stroke-linecap:round; stroke-linejoin:round;">
<circle cx="12.1100" cy="18.3800" r="0.9500" /> 
</g>
<g style="fill:#37CBCB; fill-opacity:1.0000; 
stroke:#37CBCB; stroke-width:0.0212; stroke-opacity:1; 
stroke-linecap:round; stroke-linejoin:round;">
</g>
<g style="fill:#37CBCB; fill-opacity:1.0000; 
stroke:#37CBCB; stroke-width:0.0000; stroke-opacity:1; 
stroke-linecap:round; stroke-linejoin:round;">
<circle cx="12.1100" cy="20.9200" r="0.9500" /> 
</g>
<g style="fill:#37CBCB; fill-opacity:1.0000; 
stroke:#37CBCB; stroke-width:0.0212; stroke-opacity:1; 
stroke-linecap:round; stroke-linejoin:round;">
</g>
<g style="fill:#37CBCB; fill-opacity:1.0000; 
stroke:#37CBCB; stroke-width:0.0000; stroke-opacity:1; 
stroke-linecap:round; stroke-linejoin:round;">
<circle cx="12.1100" cy="23.4600" r="0.9500" /> 
</g>
<g style="fill:#37CBCB; fill-opacity:1.0000; 
stroke:#37CBCB; stroke-width:0.0212; stroke-opacity:1; 
stroke-linecap:round; stroke-linejoin:round;">
</g>
<g style="fill:#37CBCB; fill-opacity:1.0000; 
stroke:#37CBCB; stroke-width:0.0000; stroke-opacity:1; 
stroke-linecap:round; stroke-linejoin:round;">
<circle cx="12.1100" cy="26.0000" r="0.9500" /> 
</g>
<g style="fill:#37CBCB; fill-opacity:1.0000; 
stroke:#37CBCB; stroke-width:0.0212; stroke-opacity:1; 
stroke-linecap:round; stroke-linejoin:round;">
</g>
<g style="fill:#37CBCB; fill-opacity:1.0000; 
stroke:#37CBCB; stroke-width:0.0000; stroke-opacity:1; 
stroke-linecap:round; stroke-linejoin:round;">
<circle cx="12.1100" cy="28.5400" r="0.9500" /> 
</g>
<g style="fill:#37CBCB; fill-opacity:1.0000; 
stroke:#37CBCB; stroke-width:0.0212; stroke-opacity:1; 
stroke-linecap:round; stroke-linejoin:round;">
</g>
<g style="fill:#37CBCB; fill-opacity:1.0000; 
stroke:#37CBCB; stroke-width:0.0000; stroke-opacity:1; 
stroke-linecap:round; stroke-linejoin:round;">
<circle cx="12.1100" cy="31.0800" r="0.9500" /> 
</g>
<g style="fill:#37CBCB; fill-opacity:1.0000; 
stroke:#37CBCB; stroke-width:0.0212; stroke-opacity:1; 
stroke-linecap:round; stroke-linejoin:round;">
</g>
<g style="fill:#37CBCB; fill-opacity:1.0000; 
stroke:#37CBCB; stroke-width:0.0000; stroke-opacity:1; 
stroke-linecap:round; stroke-linejoin:round;">
<circle cx="12.1100" cy="33.6200" r="0.9500" /> 
</g>
<g style="fill:#37CBCB; fill-opacity:1.0000; 
stroke:#37CBCB; stroke-width:0.0212; stroke-opacity:1; 
stroke-linecap:round; stroke-linejoin:round;">
</g>
<g style="fill:#37CBCB; fill-opacity:1.0000; 
stroke:#37CBCB; stroke-width:0.0000; stroke-opacity:1; 
stroke-linecap:round; stroke-linejoin:round;">
<circle cx="12.1100" cy="36.1600" r="0.9500" /> 
</g>
<g style="fill:#37CBCB; fill-opacity:1.0000; 
stroke:#37CBCB; stroke-width:0.0212; stroke-opacity:1; 
stroke-linecap:round; stroke-linejoin:round;">
</g>
<g style="fill:#37CBCB; fill-opacity:1.0000; 
stroke:#37CBCB; stroke-width:0.0000; stroke-opacity:1; 
stroke-linecap:round; stroke-linejoin:round;">
<circle cx="12.1100" cy="38.7000" r="0.9500" /> 
</g>
<g style="fill:#37CBCB; fill-opacity:1.0000; 
stroke:#37CBCB; stroke-width:0.0212; stroke-opacity:1; 
stroke-linecap:round; stroke-linejoin:round;">
</g>
<g style="fill:#37CBCB; fill-opacity:1.0000; 
stroke:#37CBCB; stroke-width:0.0000; stroke-opacity:1; 
stroke-linecap:round; stroke-linejoin:round;">
<circle cx="29.8900" cy="38.7000" r="0.9500" /> 
</g>
<g style="fill:#37CBCB; fill-opacity:1.0000; 
stroke:#37CBCB; stroke-width:0.0212; stroke-opacity:1; 
stroke-linecap:round; stroke-linejoin:round;">
</g>
<g style="fill:#37CBCB; fill-opacity:1.0000; 
stroke:#37CBCB; stroke-width:0.0000; stroke-opacity:1; 
stroke-linecap:round; stroke-linejoin:round;">
<circle cx="29.8900" cy="36.1600" r="0.9500" /> 
</g>
<g style="fill:#37CBCB; fill-opacity:1.0000; 
stroke:#37CBCB; stroke-width:0.0212; stroke-opacity:1; 
stroke-linecap:round; stroke-linejoin:round;">
</g>
<g style="fill:#37CBCB; fill-opacity:1.0000; 
stroke:#37CBCB; stroke-width:0.0000; stroke-opacity:1; 
stroke-linecap:round; stroke-linejoin:round;">
<circle cx="29.8900" cy="33.6200" r="0.9500" /> 
</g>
<g style="fill:#37CBCB; fill-opacity:1.0000; 
stroke:#37CBCB; stroke-width:0.0212; stroke-opacity:1; 
stroke-linecap:round; stroke-linejoin:round;">
</g>
<g style="fill:#37CBCB; fill-opacity:1.0000; 
stroke:#37CBCB; stroke-width:0.0000; stroke-opacity:1; 
stroke-linecap:round; stroke-linejoin:round;">
<circle cx="29.8900" cy="31.0800" r="0.9500" /> 
</g>
<g style="fill:#37CBCB; fill-opacity:1.0000; 
stroke:#37CBCB; stroke-width:0.0212; stroke-opacity:1; 
stroke-linecap:round; stroke-linejoin:round;">
</g>
<g style="fill:#37CBCB; fill-opacity:1.0000; 
stroke:#37CBCB; stroke-width:0.0000; stroke-opacity:1; 
stroke-linecap:round; stroke-linejoin:round;">
<circle cx="29.8900" cy="28.5400" r="0.9500" /> 
</g>
<g style="fill:#37CBCB; fill-opacity:1.0000; 
stroke:#37CBCB; stroke-width:0.0212; stroke-opacity:1; 
stroke-linecap:round; stroke-linejoin:round;">
</g>
<g style="fill:#37CBCB; fill-opacity:1.0000; 
stroke:#37CBCB; stroke-width:0.0000; stroke-opacity:1; 
stroke-linecap:round; stroke-linejoin:round;">
<circle cx="29.8900" cy="26.0000" r="0.9500" /> 
</g>
<g style="fill:#37CBCB; fill-opacity:1.0000; 
stroke:#37CBCB; stroke-width:0.0212; stroke-opacity:1; 
stroke-linecap:round; stroke-linejoin:round;">
</g>
<g style="fill:#37CBCB; fill-opacity:1.0000; 
stroke:#37CBCB; stroke-width:0.0000; stroke-opacity:1; 
stroke-linecap:round; stroke-linejoin:round;">
<circle cx="29.8900" cy="23.4600" r="0.9500" /> 
</g>
<g style="fill:#37CBCB; fill-opacity:1.0000; 
stroke:#37CBCB; stroke-width:0.0212; stroke-opacity:1; 
stroke-linecap:round; stroke-linejoin:round;">
</g>
<g style="fill:#37CBCB; fill-opacity:1.0000; 
stroke:#37CBCB; stroke-width:0.0000; stroke-opacity:1; 
stroke-linecap:round; stroke-linejoin:round;">
<circle cx="29.8900" cy="20.9200" r="0.9500" /> 
</g>
<g style="fill:#37CBCB; fill-opacity:1.0000; 
stroke:#37CBCB; stroke-width:0.0212; stroke-opacity:1; 
stroke-linecap:round; stroke-linejoin:round;">
</g>
<g style="fill:#37CBCB; fill-opacity:1.0000; 
stroke:#37CBCB; stroke-width:0.0000; stroke-opacity:1; 
stroke-linecap:round; stroke-linejoin:round;">
<circle cx="29.8900" cy="18.3800" r="0.9500" /> 
</g>
<g style="fill:#37CBCB; fill-opacity:1.0000; 
stroke:#37CBCB; stroke-width:0.0212; stroke-opacity:1; 
stroke-linecap:round; stroke-linejoin:round;">
</g>
<g style="fill:#37CBCB; fill-opacity:1.0000; 
stroke:#37CBCB; stroke-width:0.0000; stroke-opacity:1; 
stroke-linecap:round; stroke-linejoin:round;">
<circle cx="29.8900" cy="15.8400" r="0.9500" /> 
</g>
<g style="fill:#37CBCB; fill-opacity:1.0000; 
stroke:#37CBCB; stroke-width:0.0212; stroke-opacity:1; 
stroke-linecap:round; stroke-linejoin:round;">
</g>
<g style="fill:#37CBCB; fill-opacity:1.0000; 
stroke:#37CBCB; stroke-width:0.0000; stroke-opacity:1; 
stroke-linecap:round; stroke-linejoin:round;">
<circle cx="29.8900" cy="13.3000" r="0.9500" /> 
</g>
<g style="fill:#37CBCB; fill-opacity:1.0000; 
stroke:#37CBCB; stroke-width:0.0212; stroke-opacity:1; 
stroke-linecap:round; stroke-linejoin:round;">
</g>
<g style="fill:#37CBCB; fill-opacity:1.0000; 
stroke:#37CBCB; stroke-width:0.0000; stroke-opacity:1; 
stroke-linecap:round; stroke-linejoin:round;">
<circle cx="29.8900" cy="10.7600" r="0.9500" /> 
</g>
<g style="fill:#37CBCB; fill-opacity:1.0000; 
stroke:#37CBCB; stroke-width:0.0212; stroke-opacity:1; 
stroke-linecap:round; stroke-linejoin:round;">
</g>
<g >
</g>
<g style="fill:#37CBCB; fill-opacity:1.0000; 
stroke:#37CBCB; stroke-width:0.0212; stroke-opacity:1; 
stroke-linecap:round; stroke-linejoin:round;">
</g>
<g style="fill:#37CBCB; fill-opacity:1.0000; 
stroke:#37CBCB; stroke-width:0.0000; stroke-opacity:1; 
stroke-linecap:round; stroke-linejoin:round;">
<path style="fill:#37CBCB; fill-opacity:1.0000; 
stroke:#37CBCB; stroke-width:0.0000; stroke-opacity:1; 
stroke-linecap:round; stroke-linejoin:round;fill-rule:evenodd;"
d="M 16.1801,18.9487
16.1801,20.1273
17.6787,20.4067
17.6787,18.6693
Z" /> 
<path style="fill:#37CBCB; fill-opacity:1.0000; 
stroke:#37CBCB; stroke-width:0.0000; stroke-opacity:1; 
stroke-linecap:round; stroke-linejoin:round;fill-rule:evenodd;"
d="M 18.0380,15.6476
17.2046,16.4810
18.0667,17.7382
19.2952,16.5097
Z" /> 
<path style="fill:#37CBCB; fill-opacity:1.0000; 
stroke:#37CBCB; stroke-width:0.0000; stroke-opacity:1; 
stroke-linecap:round; stroke-linejoin:round;fill-rule:evenodd;"
d="M 17.2046,22.5950
18.0380,23.4284
19.2952,22.5663
18.0667,21.3378
Z" /> 
<path style="fill:#37CBCB; fill-opacity:1.0000; 
stroke:#37CBCB; stroke-width:0.0000; stroke-opacity:1; 
stroke-linecap:round; stroke-linejoin:round;fill-rule:evenodd;"
d="M 17.5542,18.7900
17.5542,20.2860
19.8453,19.8720
19.8453,19.2040
Z" /> 
<path style="fill:#37CBCB; fill-opacity:1.0000; 
stroke:#37CBCB; stroke-width:0.0000; stroke-opacity:1; 
stroke-linecap:round; stroke-linejoin:round;fill-rule:evenodd;"
d="M 18.1106,17.4941
17.5381,18.8763
19.8132,19.3706
20.0688,18.7534
Z" /> 
<path style="fill:#37CBCB; fill-opacity:1.0000; 
stroke:#37CBCB; stroke-width:0.0000; stroke-opacity:1; 
stroke-linecap:round; stroke-linejoin:round;fill-rule:evenodd;"
d="M 17.5381,20.1997
18.1106,21.5819
20.0688,20.3226
19.8132,19.7054
Z" /> 
<path style="fill:#37CBCB; fill-opacity:1.0000; 
stroke:#37CBCB; stroke-width:0.0000; stroke-opacity:1; 
stroke-linecap:round; stroke-linejoin:round;fill-rule:evenodd;"
d="M 19.1223,16.5074
18.0644,17.5653
19.9772,18.8926
20.4496,18.4202
Z" /> 
<path style="fill:#37CBCB; fill-opacity:1.0000; 
stroke:#37CBCB; stroke-width:0.0000; stroke-opacity:1; 
stroke-linecap:round; stroke-linejoin:round;fill-rule:evenodd;"
d="M 18.0644,21.5107
19.1223,22.5686
20.4496,20.6558
19.9772,20.1834
Z" /> 
<path style="fill:#37CBCB; fill-opacity:1.0000; 
stroke:#37CBCB; stroke-width:0.0000; stroke-opacity:1; 
stroke-linecap:round; stroke-linejoin:round;fill-rule:evenodd;"
d="M 18.8193,22.2745
19.4427,22.6903
20.5406,20.6686
20.2638,20.4840
Z" /> 
<path style="fill:#37CBCB; fill-opacity:1.0000; 
stroke:#37CBCB; stroke-width:0.0000; stroke-opacity:1; 
stroke-linecap:round; stroke-linejoin:round;fill-rule:evenodd;"
d="M 20.4333,15.9811
19.0511,16.5536
20.3104,18.5118
20.9276,18.2562
Z" /> 
<path style="fill:#37CBCB; fill-opacity:1.0000; 
stroke:#37CBCB; stroke-width:0.0000; stroke-opacity:1; 
stroke-linecap:round; stroke-linejoin:round;fill-rule:evenodd;"
d="M 21.6843,14.6231
20.5057,14.6231
20.2263,16.1217
21.9637,16.1217
Z" /> 
<path style="fill:#37CBCB; fill-opacity:1.0000; 
stroke:#37CBCB; stroke-width:0.0000; stroke-opacity:1; 
stroke-linecap:round; stroke-linejoin:round;fill-rule:evenodd;"
d="M 21.8430,15.9972
20.3470,15.9972
20.7610,18.2883
21.4290,18.2883
Z" /> 
<path style="fill:#37CBCB; fill-opacity:1.0000; 
stroke:#37CBCB; stroke-width:0.0000; stroke-opacity:1; 
stroke-linecap:round; stroke-linejoin:round;fill-rule:evenodd;"
d="M 23.1389,16.5536
21.7567,15.9811
21.2624,18.2562
21.8796,18.5118
Z" /> 
<path style="fill:#37CBCB; fill-opacity:1.0000; 
stroke:#37CBCB; stroke-width:0.0000; stroke-opacity:1; 
stroke-linecap:round; stroke-linejoin:round;fill-rule:evenodd;"
d="M 22.7473,22.6903
23.3707,22.2745
21.9262,20.4840
21.6494,20.6686
Z" /> 
<path style="fill:#37CBCB; fill-opacity:1.0000; 
stroke:#37CBCB; stroke-width:0.0000; stroke-opacity:1; 
stroke-linecap:round; stroke-linejoin:round;fill-rule:evenodd;"
d="M 24.1256,17.5653
23.0677,16.5074
21.7404,18.4202
22.2128,18.8926
Z" /> 
<path style="fill:#37CBCB; fill-opacity:1.0000; 
stroke:#37CBCB; stroke-width:0.0000; stroke-opacity:1; 
stroke-linecap:round; stroke-linejoin:round;fill-rule:evenodd;"
d="M 23.0677,22.5686
24.1256,21.5107
22.2128,20.1834
21.7404,20.6558
Z" /> 
<path style="fill:#37CBCB; fill-opacity:1.0000; 
stroke:#37CBCB; stroke-width:0.0000; stroke-opacity:1; 
stroke-linecap:round; stroke-linejoin:round;fill-rule:evenodd;"
d="M 24.6519,18.8763
24.0794,17.4941
22.1212,18.7534
22.3768,19.3706
Z" /> 
<path style="fill:#37CBCB; fill-opacity:1.0000; 
stroke:#37CBCB; stroke-width:0.0000; stroke-opacity:1; 
stroke-linecap:round; stroke-linejoin:round;fill-rule:evenodd;"
d="M 24.0794,21.5819
24.6519,20.1997
22.3768,19.7054
22.1212,20.3226
Z" /> 
<path style="fill:#37CBCB; fill-opacity:1.0000; 
stroke:#37CBCB; stroke-width:0.0000; stroke-opacity:1; 
stroke-linecap:round; stroke-linejoin:round;fill-rule:evenodd;"
d="M 24.6358,20.2860
24.6358,18.7900
22.3447,19.2040
22.3447,19.8720
Z" /> 
<path style="fill:#37CBCB; fill-opacity:1.0000; 
stroke:#37CBCB; stroke-width:0.0000; stroke-opacity:1; 
stroke-linecap:round; stroke-linejoin:round;fill-rule:evenodd;"
d="M 24.9854,16.4810
24.1520,15.6476
22.8948,16.5097
24.1233,17.7382
Z" /> 
<path style="fill:#37CBCB; fill-opacity:1.0000; 
stroke:#37CBCB; stroke-width:0.0000; stroke-opacity:1; 
stroke-linecap:round; stroke-linejoin:round;fill-rule:evenodd;"
d="M 24.1520,23.4284
24.9854,22.5950
24.1233,21.3378
22.8948,22.5663
Z" /> 
<path style="fill:#37CBCB; fill-opacity:1.0000; 
stroke:#37CBCB; stroke-width:0.0000; stroke-opacity:1; 
stroke-linecap:round; stroke-linejoin:round;fill-rule:evenodd;"
d="M 26.0099,20.1273
26.0099,18.9487
24.5113,18.6693
24.5113,20.4067
Z" /> 
</g>
<g >
</g>
<g >
</g>
<g style="fill:#37CBCB; fill-opacity:1.0000; 
stroke:#37CBCB; stroke-width:0.0000; stroke-opacity:1; 
stroke-linecap:round; stroke-linejoin:round;">
</g>
<g style="fill:#37CBCB; fill-opacity:1.0000; 
stroke:#37CBCB; stroke-width:1.0000; stroke-opacity:1; 
stroke-linecap:round; stroke-linejoin:round;">
</g>
<g style="fill:#37CBCB; fill-opacity:0.0; 
stroke:#37CBCB; stroke-width:1.0000; stroke-opacity:1; 
stroke-linecap:round; stroke-linejoin:round;">
<path d="M4.2040 24.8720
L3.1880 22.8400
" />
<path d="M3.1880 7.3460
L4.9660 5.5680
" />
<path d="M20.8340 5.4340
L6.7440 5.4340
" />
<path d="M3.1880 22.8400
L3.1880 7.3460
" />
<path d="M29.8900 10.7600
L26.1600 10.7600
" />
<path d="M26.1600 10.7600
L20.8340 5.4340
" />
<path d="M6.7440 5.4340
L4.9660 5.5680
" />
<path d="M4.2040 32.4920
L4.2040 24.8720
" />
<path d="M6.7440 35.0320
L4.2040 35.0320
" />
<path d="M8.2680 33.5080
L8.2680 23.8560
" />
<path d="M8.2680 23.8560
L6.7440 20.4340
" />
<path d="M8.2680 36.5560
L8.2680 38.5880
" />
<path d="M8.2680 38.5880
L8.2680 47.2240
" />
<path d="M8.2680 47.2240
L9.7920 48.7480
" />
<path d="M9.7920 48.7480
L32.1440 48.7480
" />
<path d="M32.1440 48.7480
L33.6680 47.2240
" />
<path d="M33.6680 47.2240
L33.6680 43.9220
" />
<path d="M32.5100 38.7000
L33.6680 39.8580
" />
<path d="M33.6680 39.8580
L33.6680 43.9220
" />
<path d="M29.8900 38.7000
L32.5100 38.7000
" />
<path d="M6.7440 35.0320
L8.2680 33.5080
" />
<path d="M8.2680 36.5560
L6.7440 35.0320
" />
</g>
<g style="fill:#37CBCB; fill-opacity:0.0; 
stroke:#37CBCB; stroke-width:0.2540; stroke-opacity:1; 
stroke-linecap:round; stroke-linejoin:round;">
<path d="M30.0500 36.0000
L29.8900 36.1600
" />
</g>
<g >
</g>
<g style="fill:#37CBCB; fill-opacity:0.0; 
stroke:#37CBCB; stroke-width:0.2540; stroke-opacity:1; 
stroke-linecap:round; stroke-linejoin:round;">
<g >
</g>
<g style="fill:#37CBCB; fill-opacity:1.0000; 
stroke:#37CBCB; stroke-width:0.0000; stroke-opacity:1; 
stroke-linecap:round; stroke-linejoin:round;">
<path style="fill:#37CBCB; fill-opacity:1.0000; 
stroke:#37CBCB; stroke-width:0.0000; stroke-opacity:1; 
stroke-linecap:round; stroke-linejoin:round;fill-rule:evenodd;"
d="M 20.3527,6.6545
20.3736,6.6714
25.2905,11.5882
25.2925,11.5903
25.3478,11.6510
25.4132,11.7004
25.4155,11.7022
25.4786,11.7547
25.4786,11.7547
25.4992,11.7661
25.5065,11.7709
25.5253,11.7851
25.5253,11.7851
25.5987,11.8216
25.6013,11.8230
25.6730,11.8629
25.6730,11.8629
25.6953,11.8704
25.7034,11.8737
25.7245,11.8842
25.7245,11.8842
25.7573,11.8936
25.8034,11.9067
25.8062,11.9075
25.8840,11.9336
25.9073,11.9369
25.9158,11.9387
25.9385,11.9451
25.9963,11.9505
26.0202,11.9527
26.0231,11.9530
26.1043,11.9644
26.1684,11.9614
26.1863,11.9606
26.1892,11.9605
28.5902,11.9605
28.6583,11.9805
28.7048,12.0342
28.7149,12.1044
28.6860,12.1683
28.5506,12.3269
28.5506,12.3269
28.4148,12.5484
28.3154,12.7884
28.2736,12.9626
28.2548,13.0410
28.2344,13.3000
28.2548,13.5590
28.3154,13.8116
28.4148,14.0516
28.4148,14.0516
28.5506,14.2731
28.5506,14.2731
28.7193,14.4707
28.7234,14.4742
28.7622,14.5336
28.7627,14.6046
28.7248,14.6646
28.7234,14.6658
28.7193,14.6693
28.5506,14.8669
28.5506,14.8669
28.4148,15.0884
28.4148,15.0884
28.3154,15.3284
28.2548,15.5810
28.2344,15.8400
28.2548,16.0990
28.3154,16.3516
28.4148,16.5916
28.4148,16.5916
28.5506,16.8131
28.5506,16.8131
28.7193,17.0107
28.8782,17.1464
28.9169,17.1794
29.0285,17.2478
29.0507,17.2724
29.0512,17.2718
29.6901,17.9106
29.6114,17.9465
29.5006,18.0426
29.4213,18.1660
29.4180,18.1774
28.8234,17.5828
28.8234,17.5828
28.7329,17.7120
28.6345,17.9230
28.6345,17.9230
28.5742,18.1480
28.5539,18.3800
28.5742,18.6120
28.6345,18.8370
28.6345,18.8370
28.7329,19.0480
28.8234,19.1772
28.8234,19.1772
29.4180,18.5826
29.4213,18.5940
29.5006,18.7174
29.6114,18.8135
29.6901,18.8494
29.0512,19.4882
29.0511,19.4880
29.0285,19.5122
28.9169,19.5806
28.9169,19.5806
28.7193,19.7493
28.5506,19.9469
28.5506,19.9469
28.4148,20.1684
28.3154,20.4084
28.3090,20.4352
28.2548,20.6610
28.2344,20.9200
28.2548,21.1790
28.3154,21.4316
28.4148,21.6716
28.4148,21.6716
28.5506,21.8931
28.5506,21.8931
28.7193,22.0907
28.7193,22.0907
28.7193,22.0907
28.7234,22.0942
28.7622,22.1536
28.7627,22.2246
28.7248,22.2846
28.7234,22.2858
28.7193,22.2893
28.5506,22.4869
28.5506,22.4869
28.4445,22.6599
28.4148,22.7084
28.4056,22.7307
28.3154,22.9484
28.2758,23.1133
28.2548,23.2010
28.2344,23.4600
28.2548,23.7190
28.3154,23.9716
28.4148,24.2116
28.4710,24.3033
28.5506,24.4331
28.5506,24.4331
28.7193,24.6307
28.7234,24.6342
28.7622,24.6936
28.7627,24.7646
28.7248,24.8246
28.7234,24.8258
28.7193,24.8293
28.5506,25.0269
28.5506,25.0269
28.4148,25.2484
28.4148,25.2484
28.3154,25.4884
28.2548,25.7410
28.2344,26.0000
28.2548,26.2590
28.3154,26.5116
28.4148,26.7516
28.4148,26.7516
28.5506,26.9731
28.5506,26.9731
28.7193,27.1707
28.7234,27.1742
28.7622,27.2336
28.7627,27.3046
28.7248,27.3646
28.7234,27.3658
28.7193,27.3693
28.5506,27.5669
28.5506,27.5669
28.4148,27.7884
28.4148,27.7884
28.3154,28.0284
28.2548,28.2810
28.2344,28.5400
28.2548,28.7990
28.3154,29.0516
28.4148,29.2916
28.4148,29.2916
28.5506,29.5131
28.5506,29.5131
28.7193,29.7107
28.7234,29.7142
28.7622,29.7736
28.7627,29.8446
28.7248,29.9046
28.7234,29.9058
28.7193,29.9093
28.5506,30.1069
28.5506,30.1069
28.4148,30.3284
28.4148,30.3284
28.3154,30.5684
28.2548,30.8210
28.2344,31.0800
28.2548,31.3390
28.3154,31.5916
28.4148,31.8316
28.4148,31.8316
28.5506,32.0531
28.5506,32.0531
28.7193,32.2507
28.7193,32.2507
28.7193,32.2507
28.7234,32.2542
28.7622,32.3136
28.7627,32.3846
28.7248,32.4446
28.7234,32.4458
28.7193,32.4493
28.5506,32.6469
28.5506,32.6469
28.4148,32.8684
28.3154,33.1084
28.2858,33.2319
28.2548,33.3610
28.2344,33.6200
28.2548,33.8790
28.3154,34.1316
28.4148,34.3716
28.4148,34.3716
28.5506,34.5931
28.5506,34.5931
28.7193,34.7907
28.7193,34.7907
28.7193,34.7907
28.7234,34.7942
28.7622,34.8536
28.7627,34.9246
28.7248,34.9846
28.7234,34.9858
28.7193,34.9893
28.5506,35.1869
28.5506,35.1869
28.4148,35.4084
28.3154,35.6484
28.2611,35.8746
28.2548,35.9010
28.2344,36.1600
28.2548,36.4190
28.3154,36.6716
28.4148,36.9116
28.4148,36.9116
28.5506,37.1331
28.5506,37.1331
28.7193,37.3307
28.7234,37.3342
28.7622,37.3936
28.7627,37.4646
28.7248,37.5246
28.7234,37.5258
28.7193,37.5293
28.5506,37.7269
28.5506,37.7269
28.4148,37.9484
28.4148,37.9484
28.3154,38.1884
28.2548,38.4410
28.2344,38.7000
28.2548,38.9590
28.3154,39.2116
28.4148,39.4516
28.4148,39.4516
28.5506,39.6731
28.5506,39.6731
28.7193,39.8707
28.7974,39.9374
28.9169,40.0394
29.1384,40.1752
29.3784,40.2746
29.6310,40.3352
29.8900,40.3556
30.1490,40.3352
30.4016,40.2746
30.6416,40.1752
30.8631,40.0394
30.9904,39.9307
31.0552,39.9017
31.0723,39.9005
31.9605,39.9005
32.0287,39.9205
32.0496,39.9374
32.4306,40.3184
32.4646,40.3807
32.4675,40.4075
32.4675,46.6745
32.4475,46.7427
32.4306,46.7636
31.6836,47.5106
31.6213,47.5446
31.5945,47.5475
10.3415,47.5475
10.2733,47.5275
10.2524,47.5106
9.5054,46.7636
9.4714,46.7013
9.4685,46.6745
9.4685,38.7000
10.4544,38.7000
10.4748,38.9590
10.5354,39.2116
10.6348,39.4516
10.6348,39.4516
10.7706,39.6731
10.7706,39.6731
10.9393,39.8707
11.0174,39.9374
11.1369,40.0394
11.3584,40.1752
11.5984,40.2746
11.8510,40.3352
12.1100,40.3556
12.3690,40.3352
12.6216,40.2746
12.8616,40.1752
13.0831,40.0394
13.2807,39.8707
13.4494,39.6731
13.5852,39.4516
13.6846,39.2116
13.7452,38.9590
13.7656,38.7000
13.7452,38.4410
13.6846,38.1884
13.5852,37.9484
13.4494,37.7269
13.4310,37.7053
13.2807,37.5293
13.2766,37.5258
13.2378,37.4664
13.2373,37.3954
13.2752,37.3354
13.2765,37.3343
13.2807,37.3307
13.4494,37.1331
13.5852,36.9116
13.6846,36.6716
13.7452,36.4190
13.7656,36.1600
13.7452,35.9010
13.6846,35.6484
13.5852,35.4084
13.4494,35.1869
13.4494,35.1869
13.2807,34.9893
13.2787,34.9876
13.2766,34.9858
13.2378,34.9264
13.2373,34.8554
13.2752,34.7954
13.2765,34.7942
13.2807,34.7907
13.2807,34.7907
13.4494,34.5931
13.4494,34.5931
13.5852,34.3716
13.6846,34.1316
13.7452,33.8790
13.7656,33.6200
13.7452,33.3610
13.6846,33.1084
13.5852,32.8684
13.4494,32.6469
13.2807,32.4493
13.2766,32.4458
13.2766,32.4458
13.2378,32.3864
13.2373,32.3154
13.2752,32.2554
13.2765,32.2543
13.2807,32.2507
13.4494,32.0531
13.5852,31.8316
13.6846,31.5916
13.7452,31.3390
13.7656,31.0800
13.7452,30.8210
13.6846,30.5684
13.5852,30.3284
13.4494,30.1069
13.4494,30.1069
13.2807,29.9093
13.2787,29.9076
13.2766,29.9058
13.2378,29.8464
13.2373,29.7754
13.2752,29.7154
13.2765,29.7142
13.2807,29.7107
13.4494,29.5131
13.5852,29.2916
13.6846,29.0516
13.7452,28.7990
13.7656,28.5400
13.7452,28.2810
13.6846,28.0284
13.5852,27.7884
13.4494,27.5669
13.2807,27.3693
13.2766,27.3658
13.2766,27.3658
13.2378,27.3064
13.2373,27.2354
13.2752,27.1754
13.2765,27.1743
13.2807,27.1707
13.4494,26.9731
13.5852,26.7516
13.6846,26.5116
13.7452,26.2590
13.7656,26.0000
13.7452,25.7410
13.6846,25.4884
13.5852,25.2484
13.4494,25.0269
13.4494,25.0269
13.2807,24.8293
13.2787,24.8276
13.2766,24.8258
13.2378,24.7664
13.2373,24.6954
13.2752,24.6354
13.2765,24.6342
13.2807,24.6307
13.3081,24.5986
13.4466,24.4365
13.4494,24.4331
13.5852,24.2116
13.6846,23.9716
13.7452,23.7190
13.7656,23.4600
13.7452,23.2010
13.6846,22.9484
13.5852,22.7084
13.4513,22.4899
13.4494,22.4869
13.4494,22.4869
13.2807,22.2893
13.2766,22.2858
13.2378,22.2264
13.2373,22.1554
13.2752,22.0954
13.2765,22.0943
13.2807,22.0907
13.4494,21.8931
13.5852,21.6716
13.6846,21.4316
13.7452,21.1790
13.7656,20.9200
13.7452,20.6610
13.6846,20.4084
13.5884,20.1761
15.4796,20.1761
15.4899,20.2743
15.5452,20.4352
15.5452,20.4352
15.6373,20.5782
15.7610,20.6950
15.9091,20.7788
16.0037,20.8070
17.0502,21.0021
17.1135,21.0342
17.1435,21.0777
17.2123,21.2438
17.2199,21.3144
17.1998,21.3633
16.5993,22.2391
16.5523,22.3260
16.5523,22.3260
16.5068,22.4899
16.5068,22.4899
16.5020,22.6599
16.5379,22.8262
16.6126,22.9791
16.6748,23.0558
16.6748,23.0558
17.5772,23.9582
17.5772,23.9582
17.6539,24.0204
17.6539,24.0204
17.6539,24.0204
17.6539,24.0204
17.8068,24.0951
17.9730,24.1310
18.1431,24.1262
18.3070,24.0807
18.3939,24.0337
19.2992,23.4129
19.3667,23.3909
19.3703,23.3908
19.5284,23.3907
19.6935,23.3498
19.8440,23.2706
19.9713,23.1577
20.0367,23.0643
20.9843,21.3195
21.0344,21.2691
21.1037,21.2539
21.1703,21.2785
21.2057,21.3195
22.1533,23.0643
22.1896,23.1161
22.2187,23.1577
22.3460,23.2706
22.4965,23.3498
22.6616,23.3907
22.8197,23.3908
22.8878,23.4109
22.8908,23.4129
23.7961,24.0337
23.8525,24.0642
23.8830,24.0807
23.9347,24.0951
24.0469,24.1262
24.1551,24.1293
24.2169,24.1310
24.2169,24.1310
24.2170,24.1310
24.3832,24.0951
24.5361,24.0204
24.6128,23.9582
25.5152,23.0558
25.5774,22.9791
25.6521,22.8262
25.6880,22.6600
25.6832,22.4899
25.6377,22.3260
25.5907,22.2391
24.9901,21.3633
24.9681,21.2958
24.9777,21.2438
25.0465,21.0777
25.0910,21.0224
25.1398,21.0021
26.1863,20.8070
26.1863,20.8070
26.1863,20.8070
26.2322,20.7933
26.2809,20.7788
26.4290,20.6950
26.5527,20.5782
26.6448,20.4352
26.7001,20.2743
26.7104,20.1761
26.7104,18.8999
26.7001,18.8017
26.6580,18.6792
26.6448,18.6408
26.6147,18.5940
26.5527,18.4978
26.4290,18.3810
26.2809,18.2972
26.2809,18.2972
26.2809,18.2972
26.1863,18.2690
26.1863,18.2690
25.1398,18.0739
25.0765,18.0418
25.0465,17.9983
24.9777,17.8322
24.9701,17.7616
24.9901,17.7127
25.5907,16.8369
25.6377,16.7500
25.6832,16.5861
25.6880,16.4160
25.6521,16.2498
25.5774,16.0969
25.5152,16.0202
25.5152,16.0202
25.5152,16.0202
24.6128,15.1178
24.6128,15.1177
24.5361,15.0556
24.5361,15.0556
24.5087,15.0423
24.3832,14.9809
24.3832,14.9809
24.2169,14.9450
24.0469,14.9498
24.0469,14.9498
23.8830,14.9953
23.8830,14.9953
23.7961,15.0423
23.7961,15.0423
22.9203,15.6428
22.8528,15.6649
22.8008,15.6553
22.6347,15.5865
22.5794,15.5420
22.5591,15.4932
22.4750,15.0423
22.3640,14.4467
22.3640,14.4467
22.3640,14.4467
22.3358,14.3521
22.2520,14.2040
22.2520,14.2040
22.2520,14.2040
22.1352,14.0803
22.1352,14.0803
21.9922,13.9882
21.9922,13.9882
21.9922,13.9882
21.8313,13.9329
21.7331,13.9226
20.4569,13.9226
20.3587,13.9329
20.1978,13.9882
20.1025,14.0496
20.0548,14.0803
20.0548,14.0803
20.0548,14.0803
19.9380,14.2040
19.8542,14.3521
19.8260,14.4467
19.8260,14.4467
19.6309,15.4932
19.5988,15.5565
19.5553,15.5865
19.3892,15.6553
19.3186,15.6629
19.2697,15.6428
18.3939,15.0423
18.3070,14.9953
18.1431,14.9498
18.1431,14.9498
17.9731,14.9450
17.8068,14.9809
17.6539,15.0556
17.5772,15.1178
17.5772,15.1178
16.6748,16.0202
16.6747,16.0202
16.6126,16.0969
16.6126,16.0969
16.5379,16.2498
16.5379,16.2498
16.5020,16.4160
16.5068,16.5861
16.5068,16.5861
16.5523,16.7500
16.5523,16.7500
16.5993,16.8369
16.5993,16.8369
17.1998,17.7127
17.2219,17.7802
17.2123,17.8322
17.1435,17.9983
17.0990,18.0536
17.0502,18.0739
16.4249,18.1905
16.0037,18.2690
16.0037,18.2690
16.0037,18.2690
15.9091,18.2972
15.7610,18.3810
15.6373,18.4978
15.6373,18.4978
15.5452,18.6408
15.5452,18.6408
15.4899,18.8017
15.4899,18.8017
15.4796,18.8999
15.4796,18.8999
15.4796,20.1761
13.5884,20.1761
13.5852,20.1684
13.4494,19.9469
13.4494,19.9469
13.2807,19.7493
13.2787,19.7476
13.2766,19.7458
13.2378,19.6864
13.2373,19.6154
13.2752,19.5554
13.2765,19.5542
13.2807,19.5507
13.4494,19.3531
13.5852,19.1316
13.6846,18.8916
13.7452,18.6390
13.7656,18.3800
13.7452,18.1210
13.6846,17.8684
13.5852,17.6284
13.4494,17.4069
13.3711,17.3152
13.2807,17.2093
13.2787,17.2076
13.2766,17.2058
13.2378,17.1464
13.2373,17.0754
13.2752,17.0154
13.2765,17.0142
13.2807,17.0107
13.4494,16.8131
13.5852,16.5916
13.6846,16.3516
13.7452,16.0990
13.7656,15.8400
13.7452,15.5810
13.6846,15.3284
13.5852,15.0884
13.4494,14.8669
13.4494,14.8669
13.2807,14.6693
13.0831,14.5006
13.0831,14.5006
13.0831,14.5006
12.9715,14.4322
12.9493,14.4076
12.9488,14.4082
12.3099,13.7694
12.3886,13.7335
12.4994,13.6374
12.5787,13.5140
12.5820,13.5026
13.1766,14.0972
13.1766,14.0972
13.2671,13.9680
13.3655,13.7570
13.3655,13.7570
13.4258,13.5320
13.4461,13.3000
13.4258,13.0680
13.3655,12.8430
13.3655,12.8430
13.2671,12.6320
13.2671,12.6320
13.1766,12.5028
13.1766,12.5028
12.5820,13.0974
12.5787,13.0860
12.4994,12.9626
12.3886,12.8665
12.3099,12.8306
12.9488,12.1918
12.9489,12.1920
12.9715,12.1678
13.0831,12.0994
13.2807,11.9307
13.4494,11.7331
13.5852,11.5116
13.6846,11.2716
13.7452,11.0190
13.7656,10.7600
13.7452,10.5010
13.6846,10.2484
13.5852,10.0084
13.4494,9.7869
13.4494,9.7869
13.2807,9.5893
13.0831,9.4206
13.0831,9.4206
12.9533,9.3410
12.8616,9.2848
12.6216,9.1854
12.3690,9.1248
12.1100,9.1044
11.8510,9.1248
11.5984,9.1854
11.3584,9.2848
11.1369,9.4206
11.1369,9.4206
10.9393,9.5893
10.7706,9.7869
10.7706,9.7869
10.6348,10.0084
10.6348,10.0084
10.5354,10.2484
10.4748,10.5010
10.4544,10.7600
10.4748,11.0190
10.5354,11.2716
10.6348,11.5116
10.6348,11.5116
10.7706,11.7331
10.7706,11.7331
10.9393,11.9307
11.0605,12.0342
11.1369,12.0994
11.2485,12.1678
11.2707,12.1924
11.2712,12.1918
11.9101,12.8306
11.8314,12.8665
11.7206,12.9626
11.6413,13.0860
11.6380,13.0974
11.0434,12.5028
11.0434,12.5028
10.9529,12.6320
10.8545,12.8430
10.8545,12.8430
10.7942,13.0680
10.7739,13.3000
10.7942,13.5320
10.8545,13.7570
10.8545,13.7570
10.9529,13.9680
11.0434,14.0972
11.0434,14.0972
11.6380,13.5026
11.6413,13.5140
11.7206,13.6374
11.8314,13.7335
11.9101,13.7694
11.2712,14.4082
11.2711,14.4080
11.2485,14.4322
11.1369,14.5006
11.1369,14.5006
10.9393,14.6693
10.7706,14.8669
10.7706,14.8669
10.6348,15.0884
10.6348,15.0884
10.5354,15.3284
10.4748,15.5810
10.4544,15.8400
10.4748,16.0990
10.5354,16.3516
10.6348,16.5916
10.6348,16.5916
10.7706,16.8131
10.7706,16.8131
10.9393,17.0107
10.9434,17.0142
10.9822,17.0736
10.9827,17.1446
10.9448,17.2046
10.9434,17.2058
10.9393,17.2093
10.7706,17.4069
10.7706,17.4069
10.6348,17.6284
10.5354,17.8684
10.5042,17.9983
10.4748,18.1210
10.4544,18.3800
10.4748,18.6390
10.5354,18.8916
10.6348,19.1316
10.6348,19.1316
10.7706,19.3531
10.7706,19.3531
10.9393,19.5507
10.9434,19.5542
10.9822,19.6136
10.9827,19.6846
10.9448,19.7446
10.9434,19.7458
10.9393,19.7493
10.7706,19.9469
10.7706,19.9469
10.6348,20.1684
10.5354,20.4084
10.5290,20.4352
10.4748,20.6610
10.4544,20.9200
10.4748,21.1790
10.5354,21.4316
10.6348,21.6716
10.6348,21.6716
10.7706,21.8931
10.7706,21.8931
10.9393,22.0907
10.9434,22.0942
10.9822,22.1536
10.9827,22.2246
10.9448,22.2846
10.9434,22.2858
10.9393,22.2893
10.7706,22.4869
10.7706,22.4869
10.6645,22.6599
10.6348,22.7084
10.6256,22.7307
10.5354,22.9484
10.4958,23.1133
10.4748,23.2010
10.4544,23.4600
10.4748,23.7190
10.5354,23.9716
10.6348,24.2116
10.6910,24.3033
10.7706,24.4331
10.7706,24.4331
10.9393,24.6307
10.9434,24.6342
10.9822,24.6936
10.9827,24.7646
10.9448,24.8246
10.9434,24.8258
10.9393,24.8293
10.7706,25.0269
10.7706,25.0269
10.6348,25.2484
10.6348,25.2484
10.5354,25.4884
10.4748,25.7410
10.4544,26.0000
10.4748,26.2590
10.5354,26.5116
10.6348,26.7516
10.6348,26.7516
10.7706,26.9731
10.7706,26.9731
10.9393,27.1707
10.9434,27.1742
10.9822,27.2336
10.9827,27.3046
10.9448,27.3646
10.9434,27.3658
10.9393,27.3693
10.7706,27.5669
10.7706,27.5669
10.6348,27.7884
10.6348,27.7884
10.5354,28.0284
10.4748,28.2810
10.4544,28.5400
10.4748,28.7990
10.5354,29.0516
10.6348,29.2916
10.6348,29.2916
10.7706,29.5131
10.7706,29.5131
10.9393,29.7107
10.9434,29.7142
10.9822,29.7736
10.9827,29.8446
10.9448,29.9046
10.9434,29.9058
10.9393,29.9093
10.7706,30.1069
10.7706,30.1069
10.6348,30.3284
10.6348,30.3284
10.5354,30.5684
10.4748,30.8210
10.4544,31.0800
10.4748,31.3390
10.5354,31.5916
10.6348,31.8316
10.6348,31.8316
10.7706,32.0531
10.7706,32.0531
10.9393,32.2507
10.9434,32.2542
10.9822,32.3136
10.9827,32.3846
10.9448,32.4446
10.9434,32.4458
10.9393,32.4493
10.7706,32.6469
10.7706,32.6469
10.6348,32.8684
10.5354,33.1084
10.5058,33.2319
10.4748,33.3610
10.4544,33.6200
10.4748,33.8790
10.5354,34.1316
10.6348,34.3716
10.6348,34.3716
10.7706,34.5931
10.7706,34.5931
10.9393,34.7907
10.9434,34.7942
10.9822,34.8536
10.9827,34.9246
10.9448,34.9846
10.9434,34.9858
10.9393,34.9893
10.7706,35.1869
10.7706,35.1869
10.6348,35.4084
10.5354,35.6484
10.4811,35.8746
10.4748,35.9010
10.4544,36.1600
10.4748,36.4190
10.5354,36.6716
10.6348,36.9116
10.6348,36.9116
10.7706,37.1331
10.7706,37.1331
10.9393,37.3307
10.9434,37.3342
10.9822,37.3936
10.9827,37.4646
10.9448,37.5246
10.9434,37.5258
10.9393,37.5293
10.7706,37.7269
10.7706,37.7269
10.6348,37.9484
10.6348,37.9484
10.5354,38.1884
10.4748,38.4410
10.4544,38.7000
9.4685,38.7000
9.4685,36.5852
9.4686,36.5823
9.4707,36.5358
9.4724,36.5003
9.4610,36.4191
9.4607,36.4162
9.4543,36.3475
9.4531,36.3345
9.4467,36.3118
9.4449,36.3033
9.4416,36.2800
9.4155,36.2022
9.4147,36.1994
9.3922,36.1205
9.3922,36.1205
9.3817,36.0994
9.3784,36.0913
9.3709,36.0690
9.3709,36.0690
9.3310,35.9973
9.3296,35.9947
9.2931,35.9213
9.2931,35.9213
9.2789,35.9025
9.2741,35.8952
9.2627,35.8746
9.2627,35.8746
9.2102,35.8115
9.2084,35.8092
9.1590,35.7438
9.0983,35.6885
9.0962,35.6865
8.5309,35.1211
8.4968,35.0588
8.5019,34.9880
8.5309,34.9429
9.0963,34.3775
9.0983,34.3755
9.1026,34.3716
9.1590,34.3202
9.2084,34.2547
9.2102,34.2525
9.2627,34.1894
9.2741,34.1688
9.2789,34.1615
9.2931,34.1427
9.3296,34.0692
9.3310,34.0667
9.3709,33.9950
9.3784,33.9727
9.3817,33.9646
9.3922,33.9435
9.4147,33.8646
9.4155,33.8619
9.4416,33.7840
9.4449,33.7607
9.4467,33.7522
9.4531,33.7295
9.4531,33.7295
9.4531,33.7295
9.4587,33.6696
9.4607,33.6478
9.4610,33.6449
9.4645,33.6200
9.4724,33.5637
9.4686,33.4817
9.4685,33.4789
9.4685,23.8818
9.4722,23.7965
9.4722,23.7965
9.4609,23.7173
9.4605,23.7142
9.4531,23.6345
9.4461,23.6099
9.4443,23.6015
9.4407,23.5762
9.4150,23.5004
9.4141,23.4975
9.3922,23.4205
9.3875,23.4109
9.3542,23.3440
9.3215,23.2706
8.3518,21.0934
8.3424,21.0230
8.3496,20.9961
8.3730,20.9365
8.4297,20.6881
8.4488,20.4340
8.4297,20.1799
8.3730,19.9315
8.2799,19.6943
8.2799,19.6943
8.2799,19.6943
8.1525,19.4737
8.1395,19.4574
7.9937,19.2745
7.9828,19.2644
7.8069,19.1012
7.8069,19.1012
7.5964,18.9576
7.5964,18.9576
7.3668,18.8471
7.3668,18.8471
7.1234,18.7720
7.1233,18.7720
7.1233,18.7720
6.8714,18.7340
6.6166,18.7340
6.3647,18.7720
6.3647,18.7720
6.3646,18.7720
6.1212,18.8471
6.1212,18.8471
5.8916,18.9576
5.8916,18.9576
5.6811,19.1012
5.6811,19.1012
5.4943,19.2745
5.3355,19.4737
5.2081,19.6943
5.2081,19.6943
5.1150,19.9315
5.1150,19.9315
5.0583,20.1799
5.0392,20.4340
5.0583,20.6881
5.1150,20.9365
5.1150,20.9365
5.2081,21.1737
5.2081,21.1737
5.3355,21.3943
5.3355,21.3943
5.3355,21.3943
5.4943,21.5935
5.4943,21.5935
5.4943,21.5935
5.6811,21.7668
5.6811,21.7668
5.6811,21.7668
5.6811,21.7668
5.6811,21.7668
5.8916,21.9104
5.8916,21.9104
5.8916,21.9104
6.0991,22.0103
6.1518,22.0579
6.1596,22.0726
7.0566,24.0868
7.0675,24.1380
7.0675,32.9585
7.0475,33.0267
7.0306,33.0476
6.2836,33.7946
6.2213,33.8286
6.1945,33.8315
5.5724,33.8315
5.5043,33.8115
5.4578,33.7578
5.4477,33.6876
5.4739,33.6269
5.6130,33.4526
5.7404,33.2319
5.8335,32.9946
5.8902,32.7462
5.9093,32.4920
5.8902,32.2378
5.8335,31.9894
5.7404,31.7521
5.7404,31.7521
5.7404,31.7521
5.6130,31.5314
5.6130,31.5314
5.4540,31.3321
5.4540,31.3321
5.4448,31.3235
5.4085,31.2625
5.4045,31.2312
5.4045,24.9861
5.4047,24.9821
5.4047,24.9813
5.4047,24.9813
5.4045,24.8712
5.4045,24.8165
5.4045,24.8165
5.4045,24.8159
5.4044,24.8131
5.4043,24.7588
5.3947,24.7079
5.3939,24.7020
5.3930,24.6922
5.3891,24.6505
5.3744,24.5986
5.3731,24.5931
5.3631,24.5401
5.3443,24.4919
5.3424,24.4863
5.3282,24.4365
5.3040,24.3879
5.3028,24.3853
5.3026,24.3848
5.3026,24.3848
5.2780,24.3356
5.2291,24.2373
5.2287,24.2365
5.2267,24.2330
4.4018,22.5832
4.3885,22.5269
4.3885,15.3284
4.3885,7.8954
4.4085,7.8273
4.4254,7.8064
5.4671,6.7647
5.5294,6.7307
5.5467,6.7281
5.5776,6.7258
5.6470,6.7406
5.6728,6.7591
5.6811,6.7668
5.6811,6.7668
5.6811,6.7668
5.7093,6.7861
5.8916,6.9104
5.8916,6.9104
5.8916,6.9104
6.1212,7.0209
6.1212,7.0209
6.1212,7.0209
6.3646,7.0960
6.3646,7.0960
6.3647,7.0960
6.6166,7.1340
6.6166,7.1340
6.8714,7.1340
6.8714,7.1340
7.1233,7.0960
7.1234,7.0960
7.3668,7.0209
7.3668,7.0209
7.3668,7.0209
7.5964,6.9104
7.8069,6.7668
7.9133,6.6681
7.9768,6.6365
7.9990,6.6345
20.2845,6.6345
Z" /> 
<path style="fill:#37CBCB; fill-opacity:1.0000; 
stroke:#37CBCB; stroke-width:0.0000; stroke-opacity:1; 
stroke-linecap:round; stroke-linejoin:round;fill-rule:evenodd;"
d="M 35.8916,1.0705
35.9381,1.1242
35.9495,1.1765
35.9495,50.8235
35.9295,50.8916
35.8758,50.9381
35.8235,50.9495
1.1765,50.9495
1.1084,50.9295
1.0619,50.8758
1.0505,50.8235
1.0505,7.2903
1.9836,7.2903
1.9874,7.3723
1.9875,7.3752
1.9875,22.7259
1.9873,22.7299
1.9875,22.8408
1.9875,22.8955
1.9876,22.8975
1.9877,22.9532
1.9973,23.0041
1.9981,23.0100
2.0029,23.0615
2.0029,23.0615
2.0029,23.0615
2.0029,23.0615
2.0176,23.1133
2.0189,23.1189
2.0289,23.1719
2.0289,23.1719
2.0477,23.2201
2.0496,23.2257
2.0638,23.2755
2.0638,23.2755
2.0886,23.3254
2.0894,23.3272
2.1140,23.3764
2.1633,23.4754
2.1653,23.4789
2.8387,24.8258
2.9902,25.1288
3.0035,25.1851
3.0035,31.2312
2.9835,31.2993
2.9632,31.3235
2.9540,31.3321
2.9539,31.3321
2.9539,31.3321
2.9485,31.3390
2.7950,31.5314
2.6676,31.7521
2.6676,31.7521
2.5745,31.9894
2.5178,32.2378
2.4987,32.4920
2.5178,32.7462
2.5745,32.9946
2.6676,33.2319
2.6676,33.2319
2.7950,33.4526
2.7950,33.4526
2.7950,33.4526
2.9341,33.6269
2.9540,33.6519
2.9731,33.6696
3.0094,33.7306
3.0070,33.8016
2.9731,33.8544
2.9540,33.8721
2.7950,34.0714
2.6676,34.2921
2.6676,34.2921
2.5745,34.5294
2.5178,34.7778
2.4987,35.0320
2.5178,35.2862
2.5745,35.5346
2.6676,35.7719
2.6676,35.7719
2.7950,35.9926
2.7950,35.9926
2.9243,36.1547
2.9511,36.2204
2.9381,36.2902
2.9149,36.3223
2.8896,36.3475
2.8338,36.4618
2.8338,36.4618
2.8230,36.5358
2.8230,37.3815
3.7305,37.3815
3.6960,37.4990
3.6960,37.6450
3.7305,37.7625
2.8230,37.7625
2.8230,38.6082
2.8338,38.6822
2.8338,38.6822
2.8896,38.7965
2.8896,38.7965
2.9795,38.8864
2.9795,38.8864
3.0938,38.9422
3.0938,38.9422
3.1678,38.9530
3.1678,38.9530
4.0135,38.9530
4.0135,38.0435
4.0594,38.0644
4.1677,38.0800
4.2403,38.0800
4.3486,38.0644
4.3945,38.0435
4.3945,38.9530
5.2402,38.9530
5.2402,38.9530
5.3142,38.9422
5.3142,38.9422
5.4284,38.8864
5.4285,38.8864
5.5184,38.7965
5.5184,38.7965
5.5742,38.6822
5.5742,38.6822
5.5850,38.6082
5.5850,38.6082
5.5850,37.7625
4.6775,37.7625
4.7120,37.6450
4.7120,37.4990
4.6775,37.3815
5.5850,37.3815
5.5850,36.5358
5.5850,36.5358
5.5742,36.4618
5.5508,36.4138
5.5388,36.3439
5.5666,36.2785
5.6253,36.2386
5.6640,36.2325
6.1945,36.2325
6.2627,36.2525
6.2836,36.2694
7.0306,37.0164
7.0646,37.0787
7.0675,37.1055
7.0675,47.1948
7.0674,47.1977
7.0636,47.2797
7.0750,47.3609
7.0753,47.3638
7.0829,47.4455
7.0829,47.4455
7.0893,47.4682
7.0911,47.4767
7.0944,47.5000
7.0944,47.5000
7.1205,47.5778
7.1213,47.5806
7.1438,47.6595
7.1438,47.6595
7.1543,47.6806
7.1576,47.6887
7.1651,47.7110
7.2050,47.7827
7.2064,47.7852
7.2429,47.8587
7.2429,47.8587
7.2571,47.8775
7.2619,47.8848
7.2733,47.9053
7.3258,47.9685
7.3276,47.9708
7.3770,48.0362
7.4092,48.0655
7.4377,48.0915
7.4398,48.0935
8.9225,49.5762
8.9245,49.5783
8.9798,49.6390
9.0452,49.6884
9.0475,49.6902
9.1106,49.7427
9.1106,49.7427
9.1312,49.7541
9.1385,49.7589
9.1573,49.7731
9.1573,49.7731
9.1573,49.7731
9.2307,49.8096
9.2333,49.8110
9.3050,49.8509
9.3050,49.8509
9.3273,49.8584
9.3354,49.8617
9.3565,49.8722
9.3565,49.8722
9.3893,49.8816
9.4354,49.8947
9.4382,49.8955
9.5160,49.9216
9.5393,49.9249
9.5478,49.9267
9.5705,49.9331
9.6283,49.9385
9.6522,49.9407
9.6551,49.9410
9.7363,49.9524
9.8004,49.9494
9.8183,49.9486
9.8212,49.9485
32.1148,49.9485
32.1177,49.9486
32.1364,49.9494
32.1997,49.9524
32.2809,49.9410
32.2838,49.9407
32.3176,49.9376
32.3655,49.9331
32.3655,49.9331
32.3882,49.9267
32.3967,49.9249
32.4200,49.9216
32.4978,49.8955
32.5006,49.8947
32.5795,49.8722
32.6006,49.8617
32.6087,49.8584
32.6310,49.8509
32.7027,49.8110
32.7052,49.8096
32.7787,49.7731
32.7975,49.7589
32.8048,49.7541
32.8254,49.7427
32.8885,49.6902
32.8907,49.6885
32.9562,49.6390
33.0115,49.5783
33.0135,49.5763
34.4963,48.0935
34.4983,48.0915
34.4995,48.0904
34.5590,48.0362
34.6084,47.9707
34.6102,47.9685
34.6627,47.9054
34.6627,47.9054
34.6741,47.8848
34.6789,47.8775
34.6931,47.8587
34.6931,47.8587
34.7296,47.7852
34.7310,47.7827
34.7709,47.7110
34.7784,47.6887
34.7817,47.6806
34.7922,47.6595
34.8147,47.5806
34.8155,47.5779
34.8416,47.5000
34.8449,47.4767
34.8467,47.4682
34.8531,47.4455
34.8531,47.4455
34.8531,47.4455
34.8576,47.3976
34.8607,47.3638
34.8610,47.3609
34.8724,47.2797
34.8686,47.1977
34.8685,47.1948
34.8685,39.8872
34.8686,39.8843
34.8693,39.8692
34.8724,39.8023
34.8610,39.7211
34.8607,39.7182
34.8587,39.6966
34.8531,39.6365
34.8467,39.6138
34.8449,39.6053
34.8416,39.5820
34.8155,39.5042
34.8147,39.5014
34.7922,39.4225
34.7922,39.4225
34.7817,39.4014
34.7784,39.3933
34.7709,39.3710
34.7709,39.3710
34.7310,39.2993
34.7296,39.2968
34.6931,39.2233
34.6931,39.2233
34.6789,39.2045
34.6741,39.1972
34.6627,39.1766
34.6102,39.1135
34.6084,39.1112
34.5590,39.0458
34.4983,38.9905
34.4962,38.9885
33.3795,37.8718
33.3775,37.8697
33.3515,37.8412
33.3222,37.8090
33.2888,37.7838
33.2568,37.7596
33.2545,37.7578
33.1913,37.7053
33.1708,37.6939
33.1635,37.6891
33.1447,37.6749
33.1447,37.6749
33.0712,37.6384
33.0687,37.6370
33.0482,37.6256
32.9970,37.5971
32.9747,37.5896
32.9666,37.5863
32.9455,37.5758
32.8666,37.5533
32.8638,37.5525
32.7860,37.5264
32.7860,37.5264
32.7627,37.5231
32.7542,37.5213
32.7315,37.5149
32.6498,37.5073
32.6469,37.5070
32.5657,37.4956
32.5657,37.4956
32.4837,37.4994
32.4808,37.4995
31.1898,37.4995
31.1217,37.4795
31.0752,37.4258
31.0651,37.3556
31.0940,37.2917
31.2294,37.1331
31.2294,37.1331
31.3652,36.9116
31.4646,36.6716
31.5252,36.4190
31.5456,36.1600
31.5252,35.9010
31.4646,35.6484
31.3652,35.4084
31.2294,35.1869
31.2294,35.1869
31.0607,34.9893
31.0587,34.9876
31.0566,34.9858
31.0178,34.9264
31.0173,34.8554
31.0552,34.7954
31.0565,34.7942
31.0607,34.7907
31.2294,34.5931
31.3652,34.3716
31.4646,34.1316
31.5252,33.8790
31.5456,33.6200
31.5252,33.3610
31.4646,33.1084
31.3652,32.8684
31.2294,32.6469
31.0607,32.4493
31.0566,32.4458
31.0566,32.4458
31.0178,32.3864
31.0173,32.3154
31.0552,32.2554
31.0565,32.2543
31.0607,32.2507
31.2294,32.0531
31.3652,31.8316
31.4646,31.5916
31.5252,31.3390
31.5456,31.0800
31.5252,30.8210
31.4646,30.5684
31.3652,30.3284
31.2294,30.1069
31.2294,30.1069
31.0607,29.9093
31.0587,29.9076
31.0566,29.9058
31.0178,29.8464
31.0173,29.7754
31.0552,29.7154
31.0565,29.7142
31.0607,29.7107
31.2294,29.5131
31.3652,29.2916
31.4646,29.0516
31.5252,28.7990
31.5456,28.5400
31.5252,28.2810
31.4646,28.0284
31.3652,27.7884
31.2294,27.5669
31.0607,27.3693
31.0566,27.3658
31.0566,27.3658
31.0178,27.3064
31.0173,27.2354
31.0552,27.1754
31.0565,27.1743
31.0607,27.1707
31.2294,26.9731
31.3652,26.7516
31.4646,26.5116
31.5252,26.2590
31.5456,26.0000
31.5252,25.7410
31.4646,25.4884
31.3652,25.2484
31.2294,25.0269
31.2294,25.0269
31.0607,24.8293
31.0587,24.8276
31.0566,24.8258
31.0178,24.7664
31.0173,24.6954
31.0552,24.6354
31.0565,24.6342
31.0607,24.6307
31.0881,24.5986
31.2266,24.4365
31.2294,24.4331
31.3652,24.2116
31.4646,23.9716
31.5252,23.7190
31.5456,23.4600
31.5252,23.2010
31.4646,22.9484
31.3652,22.7084
31.2313,22.4899
31.2294,22.4869
31.2294,22.4869
31.0607,22.2893
31.0566,22.2858
31.0178,22.2264
31.0173,22.1554
31.0552,22.0954
31.0565,22.0943
31.0607,22.0907
31.2294,21.8931
31.3652,21.6716
31.4646,21.4316
31.5252,21.1790
31.5456,20.9200
31.5252,20.6610
31.4646,20.4084
31.3652,20.1684
31.2294,19.9469
31.2294,19.9469
31.0607,19.7493
30.8631,19.5806
30.8631,19.5806
30.8631,19.5806
30.7515,19.5122
30.7293,19.4876
30.7288,19.4882
30.0899,18.8494
30.1686,18.8135
30.2794,18.7174
30.3587,18.5940
30.3620,18.5826
30.9566,19.1772
30.9566,19.1772
31.0471,19.0480
31.1455,18.8370
31.1455,18.8370
31.2058,18.6120
31.2261,18.3800
31.2058,18.1480
31.1455,17.9230
31.1455,17.9230
31.0471,17.7120
31.0471,17.7120
30.9566,17.5828
30.9566,17.5828
30.3620,18.1774
30.3587,18.1660
30.2794,18.0426
30.1686,17.9465
30.0899,17.9106
30.7288,17.2718
30.7289,17.2720
30.7515,17.2478
30.8631,17.1794
31.0607,17.0107
31.2294,16.8131
31.3652,16.5916
31.4646,16.3516
31.5252,16.0990
31.5456,15.8400
31.5252,15.5810
31.4646,15.3284
31.3652,15.0884
31.2294,14.8669
31.2294,14.8669
31.0607,14.6693
31.0587,14.6676
31.0566,14.6658
31.0178,14.6064
31.0173,14.5354
31.0552,14.4754
31.0565,14.4742
31.0607,14.4707
31.0812,14.4467
31.1620,14.3521
31.2294,14.2731
31.3652,14.0516
31.4646,13.8116
31.5252,13.5590
31.5456,13.3000
31.5252,13.0410
31.4646,12.7884
31.3652,12.5484
31.2294,12.3269
31.1145,12.1924
31.0607,12.1293
31.0566,12.1258
31.0178,12.0664
31.0173,11.9954
31.0552,11.9354
31.0565,11.9343
31.0607,11.9307
31.2294,11.7331
31.3652,11.5116
31.4646,11.2716
31.5252,11.0190
31.5456,10.7600
31.5252,10.5010
31.4646,10.2484
31.3652,10.0084
31.2294,9.7869
31.2294,9.7869
31.0607,9.5893
30.8631,9.4206
30.8631,9.4206
30.7333,9.3410
30.6416,9.2848
30.4016,9.1854
30.1490,9.1248
29.8900,9.1044
29.8900,9.1044
29.6310,9.1248
29.3784,9.1854
29.1384,9.2848
28.9169,9.4206
28.8795,9.4525
28.7896,9.5293
28.7248,9.5583
28.7077,9.5595
26.7095,9.5595
26.6413,9.5395
26.6204,9.5226
21.7035,4.6058
21.7015,4.6037
21.6739,4.5733
21.6462,4.5430
21.6128,4.5178
21.5808,4.4936
21.5785,4.4918
21.5153,4.4393
21.4948,4.4279
21.4875,4.4231
21.4687,4.4089
21.4687,4.4089
21.3952,4.3724
21.3927,4.3710
21.3722,4.3596
21.3210,4.3311
21.2987,4.3236
21.2906,4.3203
21.2695,4.3098
21.1906,4.2873
21.1878,4.2865
21.1100,4.2604
21.1100,4.2604
21.0867,4.2571
21.0782,4.2553
21.0555,4.2489
20.9738,4.2413
20.9709,4.2410
20.8897,4.2296
20.8897,4.2296
20.8077,4.2334
20.8048,4.2335
7.9990,4.2335
7.9308,4.2135
7.9133,4.1999
7.8069,4.1012
7.8069,4.1012
7.8069,4.1012
7.5964,3.9576
7.5964,3.9576
7.3668,3.8471
7.3668,3.8471
7.1234,3.7720
7.1233,3.7720
7.1233,3.7720
6.8714,3.7340
6.6166,3.7340
6.3647,3.7720
6.3647,3.7720
6.3646,3.7720
6.1212,3.8471
6.1212,3.8471
5.8916,3.9576
5.8916,3.9576
5.6811,4.1012
5.6811,4.1012
5.4943,4.2745
5.4943,4.2745
5.4863,4.2845
5.4282,4.3253
5.3973,4.3316
4.9524,4.3651
4.9447,4.3652
4.9103,4.3636
4.9103,4.3636
4.8398,4.3735
4.8359,4.3739
4.8204,4.3751
4.8204,4.3751
4.7882,4.3805
4.7829,4.3814
4.7596,4.3847
4.6900,4.3944
4.6826,4.3968
4.6636,4.4016
4.6560,4.4029
4.6560,4.4029
4.5680,4.4353
4.4790,4.4651
4.4790,4.4651
4.4723,4.4688
4.4545,4.4770
4.4472,4.4797
4.4472,4.4797
4.3666,4.5277
4.2846,4.5733
4.2846,4.5733
4.2787,4.5783
4.2627,4.5896
4.2561,4.5935
4.2561,4.5935
4.2446,4.6037
4.1857,4.6555
4.1673,4.6708
4.1564,4.6799
4.1564,4.6799
4.1454,4.6908
4.1425,4.6935
4.0891,4.7406
4.0891,4.7406
4.0679,4.7677
4.0628,4.7734
2.3598,6.4765
2.3577,6.4785
2.2970,6.5338
2.2476,6.5992
2.2458,6.6015
2.1933,6.6646
2.1933,6.6646
2.1819,6.6852
2.1771,6.6925
2.1629,6.7113
2.1264,6.7847
2.1250,6.7873
2.0851,6.8590
2.0776,6.8813
2.0743,6.8894
2.0638,6.9105
2.0413,6.9894
2.0405,6.9922
2.0144,7.0700
2.0144,7.0700
2.0111,7.0933
2.0093,7.1018
2.0029,7.1245
2.0029,7.1245
1.9953,7.2062
1.9950,7.2091
1.9836,7.2903
1.9836,7.2903
1.0505,7.2903
1.0505,1.1765
1.0705,1.1084
1.1242,1.0619
1.1765,1.0505
35.8235,1.0505
Z" /> 
</g>
</g>
</g>
<g style="fill:#000000; fill-opacity:1.0000; 
stroke:#000000; stroke-width:0.0000; stroke-opacity:1; 
stroke-linecap:round; stroke-linejoin:round;">
<circle cx="6.7440" cy="5.4340" r="0.5004" /> 
</g>
<g style="fill:#000000; fill-opacity:1.0000; 
stroke:#000000; stroke-width:0.0212; stroke-opacity:1; 
stroke-linecap:round; stroke-linejoin:round;">
</g>
<g style="fill:#000000; fill-opacity:1.0000; 
stroke:#000000; stroke-width:0.0000; stroke-opacity:1; 
stroke-linecap:round; stroke-linejoin:round;">
<circle cx="6.7440" cy="20.4340" r="0.5004" /> 
</g>
<g style="fill:#000000; fill-opacity:1.0000; 
stroke:#000000; stroke-width:0.0212; stroke-opacity:1; 
stroke-linecap:round; stroke-linejoin:round;">
</g>
<g style="fill:#000000; fill-opacity:1.0000; 
stroke:#000000; stroke-width:0.0000; stroke-opacity:1; 
stroke-linecap:round; stroke-linejoin:round;">
<circle cx="4.2040" cy="37.5720" r="0.5080" /> 
</g>
<g style="fill:#000000; fill-opacity:1.0000; 
stroke:#000000; stroke-width:0.0212; stroke-opacity:1; 
stroke-linecap:round; stroke-linejoin:round;">
</g>
<g style="fill:#000000; fill-opacity:1.0000; 
stroke:#000000; stroke-width:0.0000; stroke-opacity:1; 
stroke-linecap:round; stroke-linejoin:round;">
<circle cx="4.2040" cy="35.0320" r="0.5080" /> 
</g>
<g style="fill:#000000; fill-opacity:1.0000; 
stroke:#000000; stroke-width:0.0212; stroke-opacity:1; 
stroke-linecap:round; stroke-linejoin:round;">
</g>
<g style="fill:#000000; fill-opacity:1.0000; 
stroke:#000000; stroke-width:0.0000; stroke-opacity:1; 
stroke-linecap:round; stroke-linejoin:round;">
<circle cx="4.2040" cy="32.4920" r="0.5080" /> 
</g>
<g style="fill:#000000; fill-opacity:1.0000; 
stroke:#000000; stroke-width:0.0212; stroke-opacity:1; 
stroke-linecap:round; stroke-linejoin:round;">
</g>
<g style="fill:#000000; fill-opacity:1.0000; 
stroke:#000000; stroke-width:0.0000; stroke-opacity:1; 
stroke-linecap:round; stroke-linejoin:round;">
<circle cx="12.1100" cy="10.7600" r="0.5100" /> 
</g>
<g style="fill:#000000; fill-opacity:1.0000; 
stroke:#000000; stroke-width:0.0212; stroke-opacity:1; 
stroke-linecap:round; stroke-linejoin:round;">
</g>
<g style="fill:#000000; fill-opacity:1.0000; 
stroke:#000000; stroke-width:0.0000; stroke-opacity:1; 
stroke-linecap:round; stroke-linejoin:round;">
<circle cx="12.1100" cy="13.3000" r="0.5100" /> 
</g>
<g style="fill:#000000; fill-opacity:1.0000; 
stroke:#000000; stroke-width:0.0212; stroke-opacity:1; 
stroke-linecap:round; stroke-linejoin:round;">
</g>
<g style="fill:#000000; fill-opacity:1.0000; 
stroke:#000000; stroke-width:0.0000; stroke-opacity:1; 
stroke-linecap:round; stroke-linejoin:round;">
<circle cx="12.1100" cy="15.8400" r="0.5100" /> 
</g>
<g style="fill:#000000; fill-opacity:1.0000; 
stroke:#000000; stroke-width:0.0212; stroke-opacity:1; 
stroke-linecap:round; stroke-linejoin:round;">
</g>
<g style="fill:#000000; fill-opacity:1.0000; 
stroke:#000000; stroke-width:0.0000; stroke-opacity:1; 
stroke-linecap:round; stroke-linejoin:round;">
<circle cx="12.1100" cy="18.3800" r="0.5100" /> 
</g>
<g style="fill:#000000; fill-opacity:1.0000; 
stroke:#000000; stroke-width:0.0212; stroke-opacity:1; 
stroke-linecap:round; stroke-linejoin:round;">
</g>
<g style="fill:#000000; fill-opacity:1.0000; 
stroke:#000000; stroke-width:0.0000; stroke-opacity:1; 
stroke-linecap:round; stroke-linejoin:round;">
<circle cx="12.1100" cy="20.9200" r="0.5100" /> 
</g>
<g style="fill:#000000; fill-opacity:1.0000; 
stroke:#000000; stroke-width:0.0212; stroke-opacity:1; 
stroke-linecap:round; stroke-linejoin:round;">
</g>
<g style="fill:#000000; fill-opacity:1.0000; 
stroke:#000000; stroke-width:0.0000; stroke-opacity:1; 
stroke-linecap:round; stroke-linejoin:round;">
<circle cx="12.1100" cy="23.4600" r="0.5100" /> 
</g>
<g style="fill:#000000; fill-opacity:1.0000; 
stroke:#000000; stroke-width:0.0212; stroke-opacity:1; 
stroke-linecap:round; stroke-linejoin:round;">
</g>
<g style="fill:#000000; fill-opacity:1.0000; 
stroke:#000000; stroke-width:0.0000; stroke-opacity:1; 
stroke-linecap:round; stroke-linejoin:round;">
<circle cx="12.1100" cy="26.0000" r="0.5100" /> 
</g>
<g style="fill:#000000; fill-opacity:1.0000; 
stroke:#000000; stroke-width:0.0212; stroke-opacity:1; 
stroke-linecap:round; stroke-linejoin:round;">
</g>
<g style="fill:#000000; fill-opacity:1.0000; 
stroke:#000000; stroke-width:0.0000; stroke-opacity:1; 
stroke-linecap:round; stroke-linejoin:round;">
<circle cx="12.1100" cy="28.5400" r="0.5100" /> 
</g>
<g style="fill:#000000; fill-opacity:1.0000; 
stroke:#000000; stroke-width:0.0212; stroke-opacity:1; 
stroke-linecap:round; stroke-linejoin:round;">
</g>
<g style="fill:#000000; fill-opacity:1.0000; 
stroke:#000000; stroke-width:0.0000; stroke-opacity:1; 
stroke-linecap:round; stroke-linejoin:round;">
<circle cx="12.1100" cy="31.0800" r="0.5100" /> 
</g>
<g style="fill:#000000; fill-opacity:1.0000; 
stroke:#000000; stroke-width:0.0212; stroke-opacity:1; 
stroke-linecap:round; stroke-linejoin:round;">
</g>
<g style="fill:#000000; fill-opacity:1.0000; 
stroke:#000000; stroke-width:0.0000; stroke-opacity:1; 
stroke-linecap:round; stroke-linejoin:round;">
<circle cx="12.1100" cy="33.6200" r="0.5100" /> 
</g>
<g style="fill:#000000; fill-opacity:1.0000; 
stroke:#000000; stroke-width:0.0212; stroke-opacity:1; 
stroke-linecap:round; stroke-linejoin:round;">
</g>
<g style="fill:#000000; fill-opacity:1.0000; 
stroke:#000000; stroke-width:0.0000; stroke-opacity:1; 
stroke-linecap:round; stroke-linejoin:round;">
<circle cx="12.1100" cy="36.1600" r="0.5100" /> 
</g>
<g style="fill:#000000; fill-opacity:1.0000; 
stroke:#000000; stroke-width:0.0212; stroke-opacity:1; 
stroke-linecap:round; stroke-linejoin:round;">
</g>
<g style="fill:#000000; fill-opacity:1.0000; 
stroke:#000000; stroke-width:0.0000; stroke-opacity:1; 
stroke-linecap:round; stroke-linejoin:round;">
<circle cx="12.1100" cy="38.7000" r="0.5100" /> 
</g>
<g style="fill:#000000; fill-opacity:1.0000; 
stroke:#000000; stroke-width:0.0212; stroke-opacity:1; 
stroke-linecap:round; stroke-linejoin:round;">
</g>
<g style="fill:#000000; fill-opacity:1.0000; 
stroke:#000000; stroke-width:0.0000; stroke-opacity:1; 
stroke-linecap:round; stroke-linejoin:round;">
<circle cx="29.8900" cy="38.7000" r="0.5100" /> 
</g>
<g style="fill:#000000; fill-opacity:1.0000; 
stroke:#000000; stroke-width:0.0212; stroke-opacity:1; 
stroke-linecap:round; stroke-linejoin:round;">
</g>
<g style="fill:#000000; fill-opacity:1.0000; 
stroke:#000000; stroke-width:0.0000; stroke-opacity:1; 
stroke-linecap:round; stroke-linejoin:round;">
<circle cx="29.8900" cy="36.1600" r="0.5100" /> 
</g>
<g style="fill:#000000; fill-opacity:1.0000; 
stroke:#000000; stroke-width:0.0212; stroke-opacity:1; 
stroke-linecap:round; stroke-linejoin:round;">
</g>
<g style="fill:#000000; fill-opacity:1.0000; 
stroke:#000000; stroke-width:0.0000; stroke-opacity:1; 
stroke-linecap:round; stroke-linejoin:round;">
<circle cx="29.8900" cy="33.6200" r="0.5100" /> 
</g>
<g style="fill:#000000; fill-opacity:1.0000; 
stroke:#000000; stroke-width:0.0212; stroke-opacity:1; 
stroke-linecap:round; stroke-linejoin:round;">
</g>
<g style="fill:#000000; fill-opacity:1.0000; 
stroke:#000000; stroke-width:0.0000; stroke-opacity:1; 
stroke-linecap:round; stroke-linejoin:round;">
<circle cx="29.8900" cy="31.0800" r="0.5100" /> 
</g>
<g style="fill:#000000; fill-opacity:1.0000; 
stroke:#000000; stroke-width:0.0212; stroke-opacity:1; 
stroke-linecap:round; stroke-linejoin:round;">
</g>
<g style="fill:#000000; fill-opacity:1.0000; 
stroke:#000000; stroke-width:0.0000; stroke-opacity:1; 
stroke-linecap:round; stroke-linejoin:round;">
<circle cx="29.8900" cy="28.5400" r="0.5100" /> 
</g>
<g style="fill:#000000; fill-opacity:1.0000; 
stroke:#000000; stroke-width:0.0212; stroke-opacity:1; 
stroke-linecap:round; stroke-linejoin:round;">
</g>
<g style="fill:#000000; fill-opacity:1.0000; 
stroke:#000000; stroke-width:0.0000; stroke-opacity:1; 
stroke-linecap:round; stroke-linejoin:round;">
<circle cx="29.8900" cy="26.0000" r="0.5100" /> 
</g>
<g style="fill:#000000; fill-opacity:1.0000; 
stroke:#000000; stroke-width:0.0212; stroke-opacity:1; 
stroke-linecap:round; stroke-linejoin:round;">
</g>
<g style="fill:#000000; fill-opacity:1.0000; 
stroke:#000000; stroke-width:0.0000; stroke-opacity:1; 
stroke-linecap:round; stroke-linejoin:round;">
<circle cx="29.8900" cy="23.4600" r="0.5100" /> 
</g>
<g style="fill:#000000; fill-opacity:1.0000; 
stroke:#000000; stroke-width:0.0212; stroke-opacity:1; 
stroke-linecap:round; stroke-linejoin:round;">
</g>
<g style="fill:#000000; fill-opacity:1.0000; 
stroke:#000000; stroke-width:0.0000; stroke-opacity:1; 
stroke-linecap:round; stroke-linejoin:round;">
<circle cx="29.8900" cy="20.9200" r="0.5100" /> 
</g>
<g style="fill:#000000; fill-opacity:1.0000; 
stroke:#000000; stroke-width:0.0212; stroke-opacity:1; 
stroke-linecap:round; stroke-linejoin:round;">
</g>
<g style="fill:#000000; fill-opacity:1.0000; 
stroke:#000000; stroke-width:0.0000; stroke-opacity:1; 
stroke-linecap:round; stroke-linejoin:round;">
<circle cx="29.8900" cy="18.3800" r="0.5100" /> 
</g>
<g style="fill:#000000; fill-opacity:1.0000; 
stroke:#000000; stroke-width:0.0212; stroke-opacity:1; 
stroke-linecap:round; stroke-linejoin:round;">
</g>
<g style="fill:#000000; fill-opacity:1.0000; 
stroke:#000000; stroke-width:0.0000; stroke-opacity:1; 
stroke-linecap:round; stroke-linejoin:round;">
<circle cx="29.8900" cy="15.8400" r="0.5100" /> 
</g>
<g style="fill:#000000; fill-opacity:1.0000; 
stroke:#000000; stroke-width:0.0212; stroke-opacity:1; 
stroke-linecap:round; stroke-linejoin:round;">
</g>
<g style="fill:#000000; fill-opacity:1.0000; 
stroke:#000000; stroke-width:0.0000; stroke-opacity:1; 
stroke-linecap:round; stroke-linejoin:round;">
<circle cx="29.8900" cy="13.3000" r="0.5100" /> 
</g>
<g style="fill:#000000; fill-opacity:1.0000; 
stroke:#000000; stroke-width:0.0212; stroke-opacity:1; 
stroke-linecap:round; stroke-linejoin:round;">
</g>
<g style="fill:#000000; fill-opacity:1.0000; 
stroke:#000000; stroke-width:0.0000; stroke-opacity:1; 
stroke-linecap:round; stroke-linejoin:round;">
<circle cx="29.8900" cy="10.7600" r="0.5100" /> 
</g>
<g style="fill:#000000; fill-opacity:1.0000; 
stroke:#000000; stroke-width:0.0212; stroke-opacity:1; 
stroke-linecap:round; stroke-linejoin:round;">
</g>
<g style="fill:#FFFFFF; fill-opacity:1.0000; 
stroke:#FFFFFF; stroke-width:0.0212; stroke-opacity:1; 
stroke-linecap:round; stroke-linejoin:round;">
</g>
<g style="fill:#2F2D31; fill-opacity:1.0000; 
stroke:#2F2D31; stroke-width:0.0212; stroke-opacity:1; 
stroke-linecap:round; stroke-linejoin:round;">
</g>
<g style="fill:#2F2D31; fill-opacity:1.0000; 
stroke:#2F2D31; stroke-width:0.1000; stroke-opacity:1; 
stroke-linecap:round; stroke-linejoin:round;">
</g>
<g style="fill:#2F2D31; fill-opacity:0.0; 
stroke:#2F2D31; stroke-width:0.1000; stroke-opacity:1; 
stroke-linecap:round; stroke-linejoin:round;">
<path d="M1.0000 1.0000
L36.0000 1.0000
" />
<path d="M36.0000 1.0000
L36.0000 51.0000
" />
<path d="M36.0000 51.0000
L1.0000 51.0000
" />
<path d="M1.0000 51.0000
L1.0000 1.0000
" />
<g >
</g>
<g >
</g>
<g >
</g>
<g >
</g>
<g >
</g>
<g >
</g>
<g >
</g>
</g> 
</svg>
