<?xml version="1.0" standalone="no"?>
 <!DOCTYPE svg PUBLIC "-//W3C//DTD SVG 1.1//EN" 
 "http://www.w3.org/Graphics/SVG/1.1/DTD/svg11.dtd"> 
<svg
  xmlns:svg="http://www.w3.org/2000/svg"
  xmlns="http://www.w3.org/2000/svg"
  xmlns:xlink="http://www.w3.org/1999/xlink"
  version="1.1"
  width="16.3322mm" height="21.0820mm" viewBox="0.0000 0.0000 16.3322 21.0820">
<title>SVG Image created as working-brd.svg date 2023/09/25 19:23:28 </title>
  <desc>Image generated by PCBNEW </desc>
<g style="fill:#000000; fill-opacity:1.0000;stroke:#000000; stroke-opacity:1.0000;
stroke-linecap:round; stroke-linejoin:round;"
 transform="translate(0 0) scale(1 1)">
</g>
<g style="fill:#000000; fill-opacity:0.0; 
stroke:#000000; stroke-width:0.0000; stroke-opacity:1; 
stroke-linecap:round; stroke-linejoin:round;">
</g>
<g style="fill:#000000; fill-opacity:1.0000; 
stroke:#000000; stroke-width:0.0212; stroke-opacity:1; 
stroke-linecap:round; stroke-linejoin:round;">
<rect x="-5.000000" y="-5.000000" width="26.340775" height="31.106422" rx="0.000000" />
</g>
<g style="fill:#FFFFFF; fill-opacity:1.0000; 
stroke:#FFFFFF; stroke-width:0.0212; stroke-opacity:1; 
stroke-linecap:round; stroke-linejoin:round;">
<g >
</g>
<g style="fill:#B2803A; fill-opacity:1.0000; 
stroke:#B2803A; stroke-width:0.0212; stroke-opacity:1; 
stroke-linecap:round; stroke-linejoin:round;">
</g>
<g style="fill:#B2803A; fill-opacity:1.0000; 
stroke:#B2803A; stroke-width:0.0000; stroke-opacity:1; 
stroke-linecap:round; stroke-linejoin:round;">
<path style="fill:#B2803A; fill-opacity:1.0000; 
stroke:#B2803A; stroke-width:0.0000; stroke-opacity:1; 
stroke-linecap:round; stroke-linejoin:round;fill-rule:evenodd;"
d="M 2.0862,7.2570
2.0862,5.7330
3.6102,5.7330
3.6102,7.2570
Z" /> 
<circle cx="2.8482" cy="8.4950" r="0.7620" /> 
</g>
<g style="fill:#B2803A; fill-opacity:1.0000; 
stroke:#B2803A; stroke-width:0.0212; stroke-opacity:1; 
stroke-linecap:round; stroke-linejoin:round;">
</g>
<g style="fill:#B2803A; fill-opacity:1.0000; 
stroke:#B2803A; stroke-width:0.0000; stroke-opacity:1; 
stroke-linecap:round; stroke-linejoin:round;">
<circle cx="2.8482" cy="10.4950" r="0.7620" /> 
</g>
<g style="fill:#B2803A; fill-opacity:1.0000; 
stroke:#B2803A; stroke-width:0.0212; stroke-opacity:1; 
stroke-linecap:round; stroke-linejoin:round;">
</g>
<g style="fill:#B2803A; fill-opacity:1.0000; 
stroke:#B2803A; stroke-width:0.0000; stroke-opacity:1; 
stroke-linecap:round; stroke-linejoin:round;">
<circle cx="2.8482" cy="12.4950" r="0.7620" /> 
</g>
<g style="fill:#B2803A; fill-opacity:1.0000; 
stroke:#B2803A; stroke-width:0.0212; stroke-opacity:1; 
stroke-linecap:round; stroke-linejoin:round;">
</g>
<g >
</g>
<g >
</g>
<g style="fill:#B2803A; fill-opacity:1.0000; 
stroke:#B2803A; stroke-width:0.0212; stroke-opacity:1; 
stroke-linecap:round; stroke-linejoin:round;">
</g>
<g style="fill:#B2803A; fill-opacity:1.0000; 
stroke:#B2803A; stroke-width:0.0000; stroke-opacity:1; 
stroke-linecap:round; stroke-linejoin:round;">
<path style="fill:#B2803A; fill-opacity:1.0000; 
stroke:#B2803A; stroke-width:0.0000; stroke-opacity:1; 
stroke-linecap:round; stroke-linejoin:round;fill-rule:evenodd;"
d="M 10.4982,17.9150
8.7982,17.9150
8.7982,16.2150
10.4982,16.2150
Z" /> 
<circle cx="7.1082" cy="17.0650" r="0.8500" /> 
<circle cx="4.5682" cy="17.0650" r="0.8500" /> 
<circle cx="2.0282" cy="17.0650" r="0.8500" /> 
</g>
<g >
</g>
<g style="fill:#B2803A; fill-opacity:1.0000; 
stroke:#B2803A; stroke-width:0.0000; stroke-opacity:1; 
stroke-linecap:round; stroke-linejoin:round;">
<path style="fill:#B2803A; fill-opacity:1.0000; 
stroke:#B2803A; stroke-width:0.0000; stroke-opacity:1; 
stroke-linecap:round; stroke-linejoin:round;fill-rule:evenodd;"
d="M 1.1783,0.9750
2.8782,0.9750
2.8782,2.6750
1.1783,2.6750
Z" /> 
<circle cx="4.5682" cy="1.8250" r="0.8500" /> 
<circle cx="7.1082" cy="1.8250" r="0.8500" /> 
<circle cx="9.6482" cy="1.8250" r="0.8500" /> 
</g>
<g >
</g>
<g style="fill:#B2803A; fill-opacity:1.0000; 
stroke:#B2803A; stroke-width:0.0000; stroke-opacity:1; 
stroke-linecap:round; stroke-linejoin:round;">
<circle cx="5.7982" cy="13.2200" r="0.2500" /> 
</g>
<g style="fill:#B2803A; fill-opacity:1.0000; 
stroke:#B2803A; stroke-width:0.0212; stroke-opacity:1; 
stroke-linecap:round; stroke-linejoin:round;">
</g>
<g >
</g>
<g style="fill:#121212; fill-opacity:1.0000; 
stroke:#121212; stroke-width:0.0212; stroke-opacity:1; 
stroke-linecap:round; stroke-linejoin:round;">
</g>
<g style="fill:#121212; fill-opacity:1.0000; 
stroke:#121212; stroke-width:0.0000; stroke-opacity:1; 
stroke-linecap:round; stroke-linejoin:round;">
<circle cx="10.0482" cy="11.8950" r="0.4000" /> 
</g>
<g style="fill:#121212; fill-opacity:1.0000; 
stroke:#121212; stroke-width:0.0212; stroke-opacity:1; 
stroke-linecap:round; stroke-linejoin:round;">
</g>
<g style="fill:#121212; fill-opacity:1.0000; 
stroke:#121212; stroke-width:0.0000; stroke-opacity:1; 
stroke-linecap:round; stroke-linejoin:round;">
<circle cx="1.8482" cy="4.7950" r="0.4000" /> 
</g>
<g style="fill:#121212; fill-opacity:1.0000; 
stroke:#121212; stroke-width:0.0212; stroke-opacity:1; 
stroke-linecap:round; stroke-linejoin:round;">
</g>
<g >
</g>
<g style="fill:#B2803A; fill-opacity:1.0000; 
stroke:#B2803A; stroke-width:0.0212; stroke-opacity:1; 
stroke-linecap:round; stroke-linejoin:round;">
</g>
<g style="fill:#B2803A; fill-opacity:1.0000; 
stroke:#B2803A; stroke-width:0.2500; stroke-opacity:1; 
stroke-linecap:round; stroke-linejoin:round;">
</g>
<g style="fill:#B2803A; fill-opacity:0.0; 
stroke:#B2803A; stroke-width:0.2500; stroke-opacity:1; 
stroke-linecap:round; stroke-linejoin:round;">
<path d="M4.5682 12.2150
L4.5682 15.7950
" />
<path d="M4.5682 15.7950
L4.5682 17.0650
" />
<path d="M2.8482 10.4950
L4.5682 12.2150
" />
<path d="M2.8482 8.4950
L7.1082 12.7550
" />
<path d="M7.1082 15.7950
L7.1082 17.0650
" />
<path d="M7.1082 12.7550
L7.1082 15.7950
" />
<path d="M2.8482 6.4950
L9.6482 13.2950
" />
<path d="M9.6482 13.2950
L9.6482 17.0650
" />
<path d="M9.6482 3.0950
L9.6482 1.8250
" />
<path d="M9.6482 3.0950
L9.6482 11.4950
" />
<path d="M2.8482 12.4950
L2.8482 16.2450
" />
<path d="M2.8482 16.2450
L2.0282 17.0650
" />
<path d="M9.6482 11.4950
L10.0482 11.8950
" />
<path d="M9.6482 4.7950
L1.8482 4.7950
" />
</g>
<g >
</g>
<g style="fill:#B2803A; fill-opacity:0.0; 
stroke:#B2803A; stroke-width:0.2500; stroke-opacity:1; 
stroke-linecap:round; stroke-linejoin:round;">
<g >
</g>
<g style="fill:#B2803A; fill-opacity:1.0000; 
stroke:#B2803A; stroke-width:0.0000; stroke-opacity:1; 
stroke-linecap:round; stroke-linejoin:round;">
<path style="fill:#B2803A; fill-opacity:1.0000; 
stroke:#B2803A; stroke-width:0.0000; stroke-opacity:1; 
stroke-linecap:round; stroke-linejoin:round;fill-rule:evenodd;"
d="M 9.9022,3.1594
9.9828,3.1460
9.9828,3.1460
10.1956,3.0729
10.1956,3.0729
10.3935,2.9658
10.3936,2.9658
10.5712,2.8275
10.7040,2.6832
10.7649,2.6466
10.8359,2.6487
10.8944,2.6889
10.9219,2.7543
10.9227,2.7685
10.9227,15.6491
10.9027,15.7173
10.8491,15.7638
10.7788,15.7739
10.7527,15.7672
10.7435,15.7638
10.6075,15.7130
10.6074,15.7130
10.6074,15.7130
10.6074,15.7130
10.5469,15.7065
10.5469,15.7065
10.4078,15.7065
10.3396,15.6865
10.2931,15.6328
10.2817,15.5805
10.2817,13.3789
10.2835,13.3630
10.2832,13.3630
10.2840,13.3551
10.2840,13.3551
10.2817,13.2850
10.2817,13.2551
10.2809,13.2482
10.2804,13.2423
10.2789,13.1951
10.2733,13.1757
10.2693,13.1563
10.2667,13.1362
10.2493,13.0923
10.2474,13.0867
10.2343,13.0414
10.2240,13.0240
10.2153,13.0062
10.2078,12.9874
10.1801,12.9492
10.1768,12.9443
10.1528,12.9036
10.1385,12.8893
10.1256,12.8743
10.1137,12.8579
10.0907,12.8389
10.0774,12.8278
10.0730,12.8238
4.1557,6.9065
4.1216,6.8442
4.1187,6.8174
4.1187,6.8174
4.1187,5.6844
4.1187,5.6843
4.1122,5.6238
4.1122,5.6238
4.0611,5.4868
4.0611,5.4868
3.9735,5.3697
3.8565,5.2821
3.8565,5.2821
3.7195,5.2310
3.7194,5.2310
3.6589,5.2245
3.6589,5.2245
2.0376,5.2245
2.0376,5.2245
1.9771,5.2310
1.9770,5.2310
1.8400,5.2821
1.8400,5.2821
1.7230,5.3697
1.6354,5.4868
1.6354,5.4868
1.5843,5.6238
1.5843,5.6238
1.5777,5.6843
1.5777,7.3056
1.5843,7.3662
1.5843,7.3662
1.6354,7.5032
1.6354,7.5032
1.7230,7.6203
1.7478,7.6388
1.7904,7.6957
1.7954,7.7665
1.7755,7.8120
1.7438,7.8573
1.6498,8.0588
1.6498,8.0588
1.5923,8.2735
1.5729,8.4950
1.5923,8.7165
1.6216,8.8258
1.6498,8.9312
1.6498,8.9312
1.7438,9.1327
1.7438,9.1327
1.8713,9.3148
1.8713,9.3148
1.8713,9.3148
1.9624,9.4059
1.9624,9.4059
1.9964,9.4682
1.9914,9.5390
1.9624,9.5841
1.8713,9.6752
1.7438,9.8573
1.7438,9.8573
1.6498,10.0588
1.5923,10.2735
1.5729,10.4950
1.5923,10.7165
1.6216,10.8258
1.6498,10.9312
1.6498,10.9312
1.7438,11.1327
1.7438,11.1327
1.8713,11.3148
1.8713,11.3148
1.8713,11.3148
2.0285,11.4720
2.0285,11.4720
2.0285,11.4720
2.1324,11.5447
2.2106,11.5995
2.3804,11.6787
2.4162,11.7038
2.8265,12.1140
2.8167,12.1140
2.7228,12.1297
2.6110,12.1902
2.5249,12.2837
2.4738,12.4002
2.4677,12.4737
1.7884,11.7944
1.7442,11.8576
1.6503,12.0590
1.6503,12.0590
1.5928,12.2736
1.5734,12.4950
1.5928,12.7164
1.6503,12.9310
1.6503,12.9310
1.7442,13.1324
1.7884,13.1956
1.7884,13.1956
2.4639,12.5202
2.4633,12.5269
2.4945,12.6502
2.5641,12.7566
2.6644,12.8347
2.7847,12.8760
2.8265,12.8760
2.1476,13.5548
2.1476,13.5548
2.2108,13.5991
2.2108,13.5991
2.4122,13.6930
2.4122,13.6930
2.6269,13.7505
2.8482,13.7698
3.0696,13.7505
3.2843,13.6930
3.2843,13.6930
3.4857,13.5991
3.4857,13.5991
3.5489,13.5548
3.5489,13.5548
2.8700,12.8760
2.8798,12.8760
2.9737,12.8603
3.0855,12.7998
3.1716,12.7063
3.2227,12.5898
3.2288,12.5163
3.8978,13.1854
3.9319,13.2477
3.9347,13.2745
3.9347,15.7881
3.9147,15.8562
3.8687,15.8989
3.8305,15.9196
3.8227,15.9238
3.8227,15.9238
3.8227,15.9238
3.6450,16.0621
3.4925,16.2277
3.4034,16.3641
3.3494,16.4102
3.2791,16.4198
3.2147,16.3898
3.1925,16.3641
3.1036,16.2280
2.9512,16.0625
2.7736,15.9242
2.7735,15.9242
2.5756,15.8171
2.5756,15.8171
2.3628,15.7440
2.3628,15.7440
2.2822,15.7306
2.2822,16.6313
2.1706,16.5803
2.0640,16.5650
1.9925,16.5650
1.8859,16.5803
1.7742,16.6313
1.7742,15.7306
1.7742,15.7306
1.6937,15.7440
1.4809,15.8171
1.4809,15.8171
1.2829,15.9242
1.2829,15.9242
1.1053,16.0625
1.0106,16.1654
0.9497,16.2020
0.8788,16.1998
0.8202,16.1597
0.7927,16.0942
0.7919,16.0804
0.7737,9.6132
0.7737,3.2483
0.7938,3.1802
0.8474,3.1337
0.9177,3.1236
0.9438,3.1303
1.0372,3.1651
1.0690,3.1770
1.0691,3.1770
1.1296,3.1835
1.1296,3.1835
1.1296,3.1835
1.1296,3.1835
2.9269,3.1835
2.9269,3.1835
2.9269,3.1835
2.9269,3.1835
2.9874,3.1770
2.9874,3.1770
2.9875,3.1770
3.1245,3.1259
3.1946,3.0733
3.2415,3.0383
3.3291,2.9212
3.3291,2.9212
3.3291,2.9212
3.3732,2.8029
3.4158,2.7461
3.4823,2.7213
3.5517,2.7364
3.5840,2.7616
3.6220,2.8029
3.6450,2.8279
3.6996,2.8704
3.8227,2.9662
4.0207,3.0733
4.0207,3.0733
4.0207,3.0733
4.1325,3.1117
4.2336,3.1464
4.4557,3.1835
4.4557,3.1835
4.6808,3.1835
4.6808,3.1835
4.9029,3.1464
5.1158,3.0733
5.3138,2.9662
5.4915,2.8279
5.6440,2.6623
5.7328,2.5264
5.7868,2.4803
5.8571,2.4707
5.9215,2.5007
5.9437,2.5264
6.0325,2.6623
6.0325,2.6623
6.1850,2.8279
6.2396,2.8704
6.3627,2.9662
6.5607,3.0733
6.5607,3.0733
6.5607,3.0733
6.6725,3.1117
6.7736,3.1464
6.9957,3.1835
6.9957,3.1835
7.2208,3.1835
7.2208,3.1835
7.4429,3.1464
7.6558,3.0733
7.8538,2.9662
8.0315,2.8279
8.1840,2.6623
8.1928,2.6487
8.2728,2.5264
8.2731,2.5259
8.3271,2.4798
8.3974,2.4702
8.4618,2.5002
8.4840,2.5259
8.5729,2.6620
8.7253,2.8275
8.9029,2.9658
8.9029,2.9658
9.1009,3.0729
9.1009,3.0729
9.3137,3.1460
9.3137,3.1460
9.3942,3.1594
9.3942,2.2587
9.5059,2.3097
9.6125,2.3250
9.6840,2.3250
9.7906,2.3097
9.9022,2.2587
Z" /> 
</g>
</g>
</g>
<g style="fill:#000000; fill-opacity:1.0000; 
stroke:#000000; stroke-width:0.0000; stroke-opacity:1; 
stroke-linecap:round; stroke-linejoin:round;">
<circle cx="10.0482" cy="11.8950" r="0.2000" /> 
</g>
<g style="fill:#000000; fill-opacity:1.0000; 
stroke:#000000; stroke-width:0.0212; stroke-opacity:1; 
stroke-linecap:round; stroke-linejoin:round;">
</g>
<g style="fill:#000000; fill-opacity:1.0000; 
stroke:#000000; stroke-width:0.0000; stroke-opacity:1; 
stroke-linecap:round; stroke-linejoin:round;">
<circle cx="1.8482" cy="4.7950" r="0.2000" /> 
</g>
<g style="fill:#000000; fill-opacity:1.0000; 
stroke:#000000; stroke-width:0.0212; stroke-opacity:1; 
stroke-linecap:round; stroke-linejoin:round;">
</g>
<g style="fill:#000000; fill-opacity:1.0000; 
stroke:#000000; stroke-width:0.0000; stroke-opacity:1; 
stroke-linecap:round; stroke-linejoin:round;">
<circle cx="2.8482" cy="6.4950" r="0.3810" /> 
</g>
<g style="fill:#000000; fill-opacity:1.0000; 
stroke:#000000; stroke-width:0.0212; stroke-opacity:1; 
stroke-linecap:round; stroke-linejoin:round;">
</g>
<g style="fill:#000000; fill-opacity:1.0000; 
stroke:#000000; stroke-width:0.0000; stroke-opacity:1; 
stroke-linecap:round; stroke-linejoin:round;">
<circle cx="2.8482" cy="8.4950" r="0.3810" /> 
</g>
<g style="fill:#000000; fill-opacity:1.0000; 
stroke:#000000; stroke-width:0.0212; stroke-opacity:1; 
stroke-linecap:round; stroke-linejoin:round;">
</g>
<g style="fill:#000000; fill-opacity:1.0000; 
stroke:#000000; stroke-width:0.0000; stroke-opacity:1; 
stroke-linecap:round; stroke-linejoin:round;">
<circle cx="2.8482" cy="10.4950" r="0.3810" /> 
</g>
<g style="fill:#000000; fill-opacity:1.0000; 
stroke:#000000; stroke-width:0.0212; stroke-opacity:1; 
stroke-linecap:round; stroke-linejoin:round;">
</g>
<g style="fill:#000000; fill-opacity:1.0000; 
stroke:#000000; stroke-width:0.0000; stroke-opacity:1; 
stroke-linecap:round; stroke-linejoin:round;">
<circle cx="2.8482" cy="12.4950" r="0.3810" /> 
</g>
<g style="fill:#000000; fill-opacity:1.0000; 
stroke:#000000; stroke-width:0.0212; stroke-opacity:1; 
stroke-linecap:round; stroke-linejoin:round;">
</g>
<g style="fill:#000000; fill-opacity:1.0000; 
stroke:#000000; stroke-width:0.0000; stroke-opacity:1; 
stroke-linecap:round; stroke-linejoin:round;">
<circle cx="9.6482" cy="17.0650" r="0.5000" /> 
</g>
<g style="fill:#000000; fill-opacity:1.0000; 
stroke:#000000; stroke-width:0.0212; stroke-opacity:1; 
stroke-linecap:round; stroke-linejoin:round;">
</g>
<g style="fill:#000000; fill-opacity:1.0000; 
stroke:#000000; stroke-width:0.0000; stroke-opacity:1; 
stroke-linecap:round; stroke-linejoin:round;">
<circle cx="7.1082" cy="17.0650" r="0.5000" /> 
</g>
<g style="fill:#000000; fill-opacity:1.0000; 
stroke:#000000; stroke-width:0.0212; stroke-opacity:1; 
stroke-linecap:round; stroke-linejoin:round;">
</g>
<g style="fill:#000000; fill-opacity:1.0000; 
stroke:#000000; stroke-width:0.0000; stroke-opacity:1; 
stroke-linecap:round; stroke-linejoin:round;">
<circle cx="4.5682" cy="17.0650" r="0.5000" /> 
</g>
<g style="fill:#000000; fill-opacity:1.0000; 
stroke:#000000; stroke-width:0.0212; stroke-opacity:1; 
stroke-linecap:round; stroke-linejoin:round;">
</g>
<g style="fill:#000000; fill-opacity:1.0000; 
stroke:#000000; stroke-width:0.0000; stroke-opacity:1; 
stroke-linecap:round; stroke-linejoin:round;">
<circle cx="2.0282" cy="17.0650" r="0.5000" /> 
</g>
<g style="fill:#000000; fill-opacity:1.0000; 
stroke:#000000; stroke-width:0.0212; stroke-opacity:1; 
stroke-linecap:round; stroke-linejoin:round;">
</g>
<g style="fill:#000000; fill-opacity:1.0000; 
stroke:#000000; stroke-width:0.0000; stroke-opacity:1; 
stroke-linecap:round; stroke-linejoin:round;">
<circle cx="2.0282" cy="1.8250" r="0.5000" /> 
</g>
<g style="fill:#000000; fill-opacity:1.0000; 
stroke:#000000; stroke-width:0.0212; stroke-opacity:1; 
stroke-linecap:round; stroke-linejoin:round;">
</g>
<g style="fill:#000000; fill-opacity:1.0000; 
stroke:#000000; stroke-width:0.0000; stroke-opacity:1; 
stroke-linecap:round; stroke-linejoin:round;">
<circle cx="4.5682" cy="1.8250" r="0.5000" /> 
</g>
<g style="fill:#000000; fill-opacity:1.0000; 
stroke:#000000; stroke-width:0.0212; stroke-opacity:1; 
stroke-linecap:round; stroke-linejoin:round;">
</g>
<g style="fill:#000000; fill-opacity:1.0000; 
stroke:#000000; stroke-width:0.0000; stroke-opacity:1; 
stroke-linecap:round; stroke-linejoin:round;">
<circle cx="7.1082" cy="1.8250" r="0.5000" /> 
</g>
<g style="fill:#000000; fill-opacity:1.0000; 
stroke:#000000; stroke-width:0.0212; stroke-opacity:1; 
stroke-linecap:round; stroke-linejoin:round;">
</g>
<g style="fill:#000000; fill-opacity:1.0000; 
stroke:#000000; stroke-width:0.0000; stroke-opacity:1; 
stroke-linecap:round; stroke-linejoin:round;">
<circle cx="9.6482" cy="1.8250" r="0.5000" /> 
</g>
<g style="fill:#000000; fill-opacity:1.0000; 
stroke:#000000; stroke-width:0.0212; stroke-opacity:1; 
stroke-linecap:round; stroke-linejoin:round;">
</g>
<g style="fill:#FFFFFF; fill-opacity:1.0000; 
stroke:#FFFFFF; stroke-width:0.0212; stroke-opacity:1; 
stroke-linecap:round; stroke-linejoin:round;">
<g >
</g>
<g style="fill:#37CBCB; fill-opacity:1.0000; 
stroke:#37CBCB; stroke-width:0.0212; stroke-opacity:1; 
stroke-linecap:round; stroke-linejoin:round;">
</g>
<g style="fill:#37CBCB; fill-opacity:1.0000; 
stroke:#37CBCB; stroke-width:0.0000; stroke-opacity:1; 
stroke-linecap:round; stroke-linejoin:round;">
<path style="fill:#37CBCB; fill-opacity:1.0000; 
stroke:#37CBCB; stroke-width:0.0000; stroke-opacity:1; 
stroke-linecap:round; stroke-linejoin:round;fill-rule:evenodd;"
d="M 2.0862,7.2570
2.0862,5.7330
3.6102,5.7330
3.6102,7.2570
Z" /> 
<circle cx="2.8482" cy="8.4950" r="0.7620" /> 
</g>
<g style="fill:#37CBCB; fill-opacity:1.0000; 
stroke:#37CBCB; stroke-width:0.0212; stroke-opacity:1; 
stroke-linecap:round; stroke-linejoin:round;">
</g>
<g style="fill:#37CBCB; fill-opacity:1.0000; 
stroke:#37CBCB; stroke-width:0.0000; stroke-opacity:1; 
stroke-linecap:round; stroke-linejoin:round;">
<circle cx="2.8482" cy="10.4950" r="0.7620" /> 
</g>
<g style="fill:#37CBCB; fill-opacity:1.0000; 
stroke:#37CBCB; stroke-width:0.0212; stroke-opacity:1; 
stroke-linecap:round; stroke-linejoin:round;">
</g>
<g style="fill:#37CBCB; fill-opacity:1.0000; 
stroke:#37CBCB; stroke-width:0.0000; stroke-opacity:1; 
stroke-linecap:round; stroke-linejoin:round;">
<circle cx="2.8482" cy="12.4950" r="0.7620" /> 
</g>
<g style="fill:#37CBCB; fill-opacity:1.0000; 
stroke:#37CBCB; stroke-width:0.0212; stroke-opacity:1; 
stroke-linecap:round; stroke-linejoin:round;">
</g>
<g >
</g>
<g style="fill:#37CBCB; fill-opacity:1.0000; 
stroke:#37CBCB; stroke-width:0.0212; stroke-opacity:1; 
stroke-linecap:round; stroke-linejoin:round;">
</g>
<g style="fill:#37CBCB; fill-opacity:1.0000; 
stroke:#37CBCB; stroke-width:0.0000; stroke-opacity:1; 
stroke-linecap:round; stroke-linejoin:round;">
<circle cx="5.7482" cy="5.7700" r="0.2500" /> 
</g>
<g style="fill:#37CBCB; fill-opacity:1.0000; 
stroke:#37CBCB; stroke-width:0.0212; stroke-opacity:1; 
stroke-linecap:round; stroke-linejoin:round;">
</g>
<g >
</g>
<g style="fill:#37CBCB; fill-opacity:1.0000; 
stroke:#37CBCB; stroke-width:0.0212; stroke-opacity:1; 
stroke-linecap:round; stroke-linejoin:round;">
</g>
<g style="fill:#37CBCB; fill-opacity:1.0000; 
stroke:#37CBCB; stroke-width:0.0000; stroke-opacity:1; 
stroke-linecap:round; stroke-linejoin:round;">
<path style="fill:#37CBCB; fill-opacity:1.0000; 
stroke:#37CBCB; stroke-width:0.0000; stroke-opacity:1; 
stroke-linecap:round; stroke-linejoin:round;fill-rule:evenodd;"
d="M 10.4982,17.9150
8.7982,17.9150
8.7982,16.2150
10.4982,16.2150
Z" /> 
<circle cx="7.1082" cy="17.0650" r="0.8500" /> 
<circle cx="4.5682" cy="17.0650" r="0.8500" /> 
<circle cx="2.0282" cy="17.0650" r="0.8500" /> 
</g>
<g >
</g>
<g style="fill:#37CBCB; fill-opacity:1.0000; 
stroke:#37CBCB; stroke-width:0.0000; stroke-opacity:1; 
stroke-linecap:round; stroke-linejoin:round;">
<path style="fill:#37CBCB; fill-opacity:1.0000; 
stroke:#37CBCB; stroke-width:0.0000; stroke-opacity:1; 
stroke-linecap:round; stroke-linejoin:round;fill-rule:evenodd;"
d="M 1.1783,0.9750
2.8782,0.9750
2.8782,2.6750
1.1783,2.6750
Z" /> 
<circle cx="4.5682" cy="1.8250" r="0.8500" /> 
<circle cx="7.1082" cy="1.8250" r="0.8500" /> 
<circle cx="9.6482" cy="1.8250" r="0.8500" /> 
</g>
<g >
</g>
<g >
</g>
<g style="fill:#121212; fill-opacity:1.0000; 
stroke:#121212; stroke-width:0.0000; stroke-opacity:1; 
stroke-linecap:round; stroke-linejoin:round;">
<circle cx="10.0482" cy="11.8950" r="0.4000" /> 
</g>
<g style="fill:#121212; fill-opacity:1.0000; 
stroke:#121212; stroke-width:0.0212; stroke-opacity:1; 
stroke-linecap:round; stroke-linejoin:round;">
</g>
<g style="fill:#121212; fill-opacity:1.0000; 
stroke:#121212; stroke-width:0.0000; stroke-opacity:1; 
stroke-linecap:round; stroke-linejoin:round;">
<circle cx="1.8482" cy="4.7950" r="0.4000" /> 
</g>
<g style="fill:#121212; fill-opacity:1.0000; 
stroke:#121212; stroke-width:0.0212; stroke-opacity:1; 
stroke-linecap:round; stroke-linejoin:round;">
</g>
<g >
</g>
<g style="fill:#37CBCB; fill-opacity:1.0000; 
stroke:#37CBCB; stroke-width:0.0212; stroke-opacity:1; 
stroke-linecap:round; stroke-linejoin:round;">
</g>
<g style="fill:#37CBCB; fill-opacity:1.0000; 
stroke:#37CBCB; stroke-width:0.2500; stroke-opacity:1; 
stroke-linecap:round; stroke-linejoin:round;">
</g>
<g style="fill:#37CBCB; fill-opacity:0.0; 
stroke:#37CBCB; stroke-width:0.2500; stroke-opacity:1; 
stroke-linecap:round; stroke-linejoin:round;">
<path d="M2.8482 10.4950
L7.1082 6.2350
" />
<path d="M7.1082 3.0950
L7.1082 1.8250
" />
<path d="M7.1082 6.2350
L7.1082 3.0950
" />
<path d="M4.5682 3.0950
L4.5682 1.8250
" />
<path d="M2.8482 8.4950
L4.5682 6.7750
" />
<path d="M4.5682 6.7750
L4.5682 3.0950
" />
<path d="M2.8482 6.4950
L2.8482 2.6450
" />
<path d="M2.8482 2.6450
L2.0282 1.8250
" />
<path d="M9.6482 5.6950
L9.6482 1.8250
" />
<path d="M2.8482 12.4950
L9.6482 5.6950
" />
</g>
<g >
</g>
<g style="fill:#37CBCB; fill-opacity:0.0; 
stroke:#37CBCB; stroke-width:0.2500; stroke-opacity:1; 
stroke-linecap:round; stroke-linejoin:round;">
<g >
</g>
<g style="fill:#37CBCB; fill-opacity:1.0000; 
stroke:#37CBCB; stroke-width:0.0000; stroke-opacity:1; 
stroke-linecap:round; stroke-linejoin:round;">
<path style="fill:#37CBCB; fill-opacity:1.0000; 
stroke:#37CBCB; stroke-width:0.0000; stroke-opacity:1; 
stroke-linecap:round; stroke-linejoin:round;fill-rule:evenodd;"
d="M 9.9022,3.1594
9.9828,3.1460
9.9828,3.1460
10.1956,3.0729
10.1956,3.0729
10.3935,2.9658
10.3936,2.9658
10.5712,2.8275
10.7040,2.6832
10.7649,2.6466
10.8359,2.6487
10.8944,2.6889
10.9219,2.7543
10.9227,2.7685
10.9227,15.6491
10.9027,15.7173
10.8491,15.7638
10.7788,15.7739
10.7527,15.7672
10.6893,15.7436
10.6075,15.7130
10.6074,15.7130
10.6074,15.7130
10.6074,15.7130
10.5469,15.7065
10.5469,15.7065
8.7496,15.7065
8.7496,15.7065
8.6891,15.7130
8.6890,15.7130
8.5520,15.7641
8.5520,15.7641
8.4350,15.8517
8.3474,15.9688
8.3474,15.9688
8.3033,16.0871
8.2607,16.1439
8.1942,16.1687
8.1248,16.1536
8.0925,16.1284
8.0315,16.0621
8.0315,16.0621
8.0315,16.0621
7.9116,15.9688
7.8538,15.9238
7.6558,15.8167
7.6558,15.8167
7.6558,15.8167
7.4429,15.7436
7.4429,15.7436
7.3653,15.7306
7.2208,15.7065
6.9957,15.7065
6.8512,15.7306
6.7736,15.7436
6.7736,15.7436
6.5607,15.8167
6.5607,15.8167
6.3627,15.9238
6.3627,15.9238
6.1850,16.0621
6.0325,16.2277
5.9437,16.3636
5.8897,16.4097
5.8194,16.4193
5.7550,16.3893
5.7328,16.3636
5.6440,16.2277
5.4918,16.0625
5.4915,16.0621
5.4915,16.0621
5.4915,16.0621
5.3716,15.9688
5.3138,15.9238
5.1158,15.8167
5.1158,15.8167
5.1158,15.8167
4.9029,15.7436
4.9029,15.7436
4.8253,15.7306
4.6808,15.7065
4.4557,15.7065
4.3112,15.7306
4.2336,15.7436
4.2336,15.7436
4.0207,15.8167
4.0207,15.8167
3.8227,15.9238
3.8227,15.9238
3.6450,16.0621
3.4925,16.2277
3.4034,16.3641
3.3494,16.4102
3.2791,16.4198
3.2147,16.3898
3.1925,16.3641
3.1036,16.2280
2.9512,16.0625
2.7736,15.9242
2.7735,15.9242
2.5756,15.8171
2.5756,15.8171
2.3628,15.7440
2.3628,15.7440
2.2822,15.7306
2.2822,16.6313
2.1706,16.5803
2.0640,16.5650
1.9925,16.5650
1.8859,16.5803
1.7742,16.6313
1.7742,15.7306
1.7742,15.7306
1.6937,15.7440
1.4809,15.8171
1.4809,15.8171
1.2829,15.9242
1.2829,15.9242
1.1053,16.0625
0.9925,16.1851
0.9316,16.2217
0.8606,16.2195
0.8021,16.1794
0.7745,16.1139
0.7737,16.0998
0.7737,3.2483
0.7938,3.1802
0.8474,3.1337
0.9177,3.1236
0.9438,3.1303
1.0372,3.1651
1.0690,3.1770
1.0691,3.1770
1.1296,3.1835
1.1296,3.1835
1.1296,3.1835
2.0888,3.1835
2.1569,3.2035
2.2034,3.2572
2.2147,3.3095
2.2147,5.0985
2.1947,5.1666
2.1411,5.2131
2.0888,5.2245
2.0376,5.2245
1.9771,5.2310
1.9770,5.2310
1.8400,5.2821
1.8400,5.2821
1.7230,5.3697
1.6354,5.4868
1.6354,5.4868
1.5843,5.6238
1.5843,5.6238
1.5777,5.6843
1.5777,7.3056
1.5843,7.3662
1.5843,7.3662
1.6354,7.5032
1.6354,7.5032
1.7230,7.6203
1.7478,7.6388
1.7904,7.6957
1.7954,7.7665
1.7755,7.8120
1.7438,7.8573
1.6498,8.0588
1.6498,8.0588
1.5923,8.2735
1.5729,8.4950
1.5923,8.7165
1.6385,8.8891
1.6498,8.9312
1.6498,8.9312
1.7438,9.1327
1.7438,9.1327
1.8713,9.3148
1.8713,9.3148
1.8713,9.3148
1.9624,9.4059
1.9624,9.4059
1.9964,9.4682
1.9914,9.5390
1.9624,9.5841
1.8713,9.6752
1.7438,9.8573
1.6498,10.0588
1.6498,10.0588
1.6231,10.1585
1.5923,10.2735
1.5729,10.4950
1.5923,10.7165
1.6385,10.8891
1.6498,10.9312
1.6498,10.9312
1.7438,11.1327
1.7438,11.1327
1.8713,11.3148
1.8713,11.3148
1.8713,11.3148
2.0285,11.4720
2.0285,11.4720
2.0285,11.4720
2.1324,11.5447
2.2106,11.5995
2.3804,11.6787
2.4162,11.7038
2.8265,12.1140
2.8167,12.1140
2.7228,12.1297
2.6110,12.1902
2.5249,12.2837
2.4738,12.4002
2.4677,12.4737
1.7884,11.7944
1.7442,11.8576
1.6503,12.0590
1.6503,12.0590
1.5928,12.2736
1.5734,12.4950
1.5928,12.7164
1.6503,12.9310
1.6503,12.9310
1.7442,13.1324
1.7884,13.1956
1.7884,13.1956
2.4639,12.5202
2.4633,12.5269
2.4945,12.6502
2.5641,12.7566
2.6644,12.8347
2.7847,12.8760
2.8265,12.8760
2.1476,13.5548
2.1476,13.5548
2.2108,13.5991
2.2108,13.5991
2.4122,13.6930
2.4122,13.6930
2.6269,13.7505
2.8482,13.7698
3.0696,13.7505
3.2843,13.6930
3.2843,13.6930
3.4857,13.5991
3.4857,13.5991
3.5489,13.5548
3.5489,13.5548
2.8700,12.8760
2.8798,12.8760
2.9737,12.8603
3.0855,12.7998
3.1716,12.7063
3.2227,12.5898
3.2288,12.5163
3.9081,13.1956
3.9081,13.1956
3.9523,13.1324
3.9523,13.1324
4.0462,12.9310
4.0462,12.9310
4.1037,12.7164
4.1231,12.4950
4.1037,12.2736
4.0462,12.0590
4.0462,12.0590
3.9523,11.8576
3.9081,11.7944
3.9081,11.7944
3.2326,12.4698
3.2332,12.4631
3.2020,12.3398
3.1324,12.2334
3.0321,12.1553
2.9118,12.1140
2.8700,12.1140
3.2803,11.7038
3.3161,11.6787
3.4859,11.5995
3.6680,11.4720
3.8252,11.3148
3.9527,11.1327
4.0467,10.9312
4.1042,10.7165
4.1236,10.4950
4.1042,10.2735
4.0938,10.2345
4.0955,10.1635
4.1264,10.1128
7.4969,6.7422
7.5093,6.7323
7.5092,6.7321
7.5153,6.7270
7.5153,6.7270
7.5632,6.6759
7.5844,6.6548
7.5887,6.6492
7.5925,6.6447
7.6248,6.6103
7.6346,6.5926
7.6454,6.5760
7.6579,6.5600
7.6766,6.5167
7.6792,6.5114
7.7019,6.4701
7.7070,6.4504
7.7134,6.4317
7.7214,6.4131
7.7214,6.4131
7.7214,6.4131
7.7288,6.3665
7.7300,6.3607
7.7417,6.3150
7.7417,6.2948
7.7433,6.2751
7.7465,6.2551
7.7439,6.2277
7.7420,6.2081
7.7417,6.2021
7.7417,3.1019
7.7618,3.0338
7.8078,2.9911
7.8538,2.9662
8.0315,2.8279
8.1840,2.6623
8.1928,2.6487
8.2728,2.5264
8.2731,2.5259
8.3271,2.4798
8.3974,2.4702
8.4618,2.5002
8.4840,2.5259
8.5729,2.6620
8.7253,2.8275
8.9029,2.9658
8.9029,2.9658
9.1009,3.0729
9.1009,3.0729
9.3137,3.1460
9.3137,3.1460
9.3942,3.1594
9.3942,2.2587
9.5059,2.3097
9.6125,2.3250
9.6840,2.3250
9.7906,2.3097
9.9022,2.2587
Z" /> 
</g>
</g>
</g>
<g style="fill:#000000; fill-opacity:1.0000; 
stroke:#000000; stroke-width:0.0000; stroke-opacity:1; 
stroke-linecap:round; stroke-linejoin:round;">
<circle cx="10.0482" cy="11.8950" r="0.2000" /> 
</g>
<g style="fill:#000000; fill-opacity:1.0000; 
stroke:#000000; stroke-width:0.0212; stroke-opacity:1; 
stroke-linecap:round; stroke-linejoin:round;">
</g>
<g style="fill:#000000; fill-opacity:1.0000; 
stroke:#000000; stroke-width:0.0000; stroke-opacity:1; 
stroke-linecap:round; stroke-linejoin:round;">
<circle cx="1.8482" cy="4.7950" r="0.2000" /> 
</g>
<g style="fill:#000000; fill-opacity:1.0000; 
stroke:#000000; stroke-width:0.0212; stroke-opacity:1; 
stroke-linecap:round; stroke-linejoin:round;">
</g>
<g style="fill:#000000; fill-opacity:1.0000; 
stroke:#000000; stroke-width:0.0000; stroke-opacity:1; 
stroke-linecap:round; stroke-linejoin:round;">
<circle cx="2.8482" cy="6.4950" r="0.3810" /> 
</g>
<g style="fill:#000000; fill-opacity:1.0000; 
stroke:#000000; stroke-width:0.0212; stroke-opacity:1; 
stroke-linecap:round; stroke-linejoin:round;">
</g>
<g style="fill:#000000; fill-opacity:1.0000; 
stroke:#000000; stroke-width:0.0000; stroke-opacity:1; 
stroke-linecap:round; stroke-linejoin:round;">
<circle cx="2.8482" cy="8.4950" r="0.3810" /> 
</g>
<g style="fill:#000000; fill-opacity:1.0000; 
stroke:#000000; stroke-width:0.0212; stroke-opacity:1; 
stroke-linecap:round; stroke-linejoin:round;">
</g>
<g style="fill:#000000; fill-opacity:1.0000; 
stroke:#000000; stroke-width:0.0000; stroke-opacity:1; 
stroke-linecap:round; stroke-linejoin:round;">
<circle cx="2.8482" cy="10.4950" r="0.3810" /> 
</g>
<g style="fill:#000000; fill-opacity:1.0000; 
stroke:#000000; stroke-width:0.0212; stroke-opacity:1; 
stroke-linecap:round; stroke-linejoin:round;">
</g>
<g style="fill:#000000; fill-opacity:1.0000; 
stroke:#000000; stroke-width:0.0000; stroke-opacity:1; 
stroke-linecap:round; stroke-linejoin:round;">
<circle cx="2.8482" cy="12.4950" r="0.3810" /> 
</g>
<g style="fill:#000000; fill-opacity:1.0000; 
stroke:#000000; stroke-width:0.0212; stroke-opacity:1; 
stroke-linecap:round; stroke-linejoin:round;">
</g>
<g style="fill:#000000; fill-opacity:1.0000; 
stroke:#000000; stroke-width:0.0000; stroke-opacity:1; 
stroke-linecap:round; stroke-linejoin:round;">
<circle cx="9.6482" cy="17.0650" r="0.5000" /> 
</g>
<g style="fill:#000000; fill-opacity:1.0000; 
stroke:#000000; stroke-width:0.0212; stroke-opacity:1; 
stroke-linecap:round; stroke-linejoin:round;">
</g>
<g style="fill:#000000; fill-opacity:1.0000; 
stroke:#000000; stroke-width:0.0000; stroke-opacity:1; 
stroke-linecap:round; stroke-linejoin:round;">
<circle cx="7.1082" cy="17.0650" r="0.5000" /> 
</g>
<g style="fill:#000000; fill-opacity:1.0000; 
stroke:#000000; stroke-width:0.0212; stroke-opacity:1; 
stroke-linecap:round; stroke-linejoin:round;">
</g>
<g style="fill:#000000; fill-opacity:1.0000; 
stroke:#000000; stroke-width:0.0000; stroke-opacity:1; 
stroke-linecap:round; stroke-linejoin:round;">
<circle cx="4.5682" cy="17.0650" r="0.5000" /> 
</g>
<g style="fill:#000000; fill-opacity:1.0000; 
stroke:#000000; stroke-width:0.0212; stroke-opacity:1; 
stroke-linecap:round; stroke-linejoin:round;">
</g>
<g style="fill:#000000; fill-opacity:1.0000; 
stroke:#000000; stroke-width:0.0000; stroke-opacity:1; 
stroke-linecap:round; stroke-linejoin:round;">
<circle cx="2.0282" cy="17.0650" r="0.5000" /> 
</g>
<g style="fill:#000000; fill-opacity:1.0000; 
stroke:#000000; stroke-width:0.0212; stroke-opacity:1; 
stroke-linecap:round; stroke-linejoin:round;">
</g>
<g style="fill:#000000; fill-opacity:1.0000; 
stroke:#000000; stroke-width:0.0000; stroke-opacity:1; 
stroke-linecap:round; stroke-linejoin:round;">
<circle cx="2.0282" cy="1.8250" r="0.5000" /> 
</g>
<g style="fill:#000000; fill-opacity:1.0000; 
stroke:#000000; stroke-width:0.0212; stroke-opacity:1; 
stroke-linecap:round; stroke-linejoin:round;">
</g>
<g style="fill:#000000; fill-opacity:1.0000; 
stroke:#000000; stroke-width:0.0000; stroke-opacity:1; 
stroke-linecap:round; stroke-linejoin:round;">
<circle cx="4.5682" cy="1.8250" r="0.5000" /> 
</g>
<g style="fill:#000000; fill-opacity:1.0000; 
stroke:#000000; stroke-width:0.0212; stroke-opacity:1; 
stroke-linecap:round; stroke-linejoin:round;">
</g>
<g style="fill:#000000; fill-opacity:1.0000; 
stroke:#000000; stroke-width:0.0000; stroke-opacity:1; 
stroke-linecap:round; stroke-linejoin:round;">
<circle cx="7.1082" cy="1.8250" r="0.5000" /> 
</g>
<g style="fill:#000000; fill-opacity:1.0000; 
stroke:#000000; stroke-width:0.0212; stroke-opacity:1; 
stroke-linecap:round; stroke-linejoin:round;">
</g>
<g style="fill:#000000; fill-opacity:1.0000; 
stroke:#000000; stroke-width:0.0000; stroke-opacity:1; 
stroke-linecap:round; stroke-linejoin:round;">
<circle cx="9.6482" cy="1.8250" r="0.5000" /> 
</g>
<g style="fill:#000000; fill-opacity:1.0000; 
stroke:#000000; stroke-width:0.0212; stroke-opacity:1; 
stroke-linecap:round; stroke-linejoin:round;">
</g>
<g style="fill:#FFFFFF; fill-opacity:1.0000; 
stroke:#FFFFFF; stroke-width:0.0212; stroke-opacity:1; 
stroke-linecap:round; stroke-linejoin:round;">
</g>
<g style="fill:#3D3D3D; fill-opacity:1.0000; 
stroke:#3D3D3D; stroke-width:0.0212; stroke-opacity:1; 
stroke-linecap:round; stroke-linejoin:round;">
</g>
<g style="fill:#3D3D3D; fill-opacity:1.0000; 
stroke:#3D3D3D; stroke-width:0.1500; stroke-opacity:1; 
stroke-linecap:round; stroke-linejoin:round;">
</g>
<g style="fill:#3D3D3D; fill-opacity:0.0; 
stroke:#3D3D3D; stroke-width:0.1500; stroke-opacity:1; 
stroke-linecap:round; stroke-linejoin:round;">
<text x="5.8483" y="19.7950"
textLength="9.8690" font-size="1.3333" lengthAdjust="spacingAndGlyphs"
text-anchor="middle" opacity="0">10.2000 mm</text>
<g class="stroked-text"><desc>10.2000 mm</desc>
<path d="M1.8006 19.7498
L1.2292 19.7498
" />
<path d="M1.5149 19.7498
L1.5149 18.7498
" />
<path d="M1.5149 18.7498
L1.4197 18.8927
" />
<path d="M1.4197 18.8927
L1.3244 18.9879
" />
<path d="M1.3244 18.9879
L1.2292 19.0355
" />
<path d="M2.4197 18.7498
L2.5149 18.7498
" />
<path d="M2.5149 18.7498
L2.6102 18.7974
" />
<path d="M2.6102 18.7974
L2.6578 18.8451
" />
<path d="M2.6578 18.8451
L2.7054 18.9403
" />
<path d="M2.7054 18.9403
L2.7530 19.1308
" />
<path d="M2.7530 19.1308
L2.7530 19.3689
" />
<path d="M2.7530 19.3689
L2.7054 19.5593
" />
<path d="M2.7054 19.5593
L2.6578 19.6546
" />
<path d="M2.6578 19.6546
L2.6102 19.7022
" />
<path d="M2.6102 19.7022
L2.5149 19.7498
" />
<path d="M2.5149 19.7498
L2.4197 19.7498
" />
<path d="M2.4197 19.7498
L2.3244 19.7022
" />
<path d="M2.3244 19.7022
L2.2768 19.6546
" />
<path d="M2.2768 19.6546
L2.2292 19.5593
" />
<path d="M2.2292 19.5593
L2.1816 19.3689
" />
<path d="M2.1816 19.3689
L2.1816 19.1308
" />
<path d="M2.1816 19.1308
L2.2292 18.9403
" />
<path d="M2.2292 18.9403
L2.2768 18.8451
" />
<path d="M2.2768 18.8451
L2.3244 18.7974
" />
<path d="M2.3244 18.7974
L2.4197 18.7498
" />
<path d="M3.1816 19.6546
L3.2292 19.7022
" />
<path d="M3.2292 19.7022
L3.1816 19.7498
" />
<path d="M3.1816 19.7498
L3.1340 19.7022
" />
<path d="M3.1340 19.7022
L3.1816 19.6546
" />
<path d="M3.1816 19.6546
L3.1816 19.7498
" />
<path d="M3.6102 18.8451
L3.6578 18.7974
" />
<path d="M3.6578 18.7974
L3.7530 18.7498
" />
<path d="M3.7530 18.7498
L3.9911 18.7498
" />
<path d="M3.9911 18.7498
L4.0863 18.7974
" />
<path d="M4.0863 18.7974
L4.1340 18.8451
" />
<path d="M4.1340 18.8451
L4.1816 18.9403
" />
<path d="M4.1816 18.9403
L4.1816 19.0355
" />
<path d="M4.1816 19.0355
L4.1340 19.1784
" />
<path d="M4.1340 19.1784
L3.5625 19.7498
" />
<path d="M3.5625 19.7498
L4.1816 19.7498
" />
<path d="M4.8006 18.7498
L4.8959 18.7498
" />
<path d="M4.8959 18.7498
L4.9911 18.7974
" />
<path d="M4.9911 18.7974
L5.0387 18.8451
" />
<path d="M5.0387 18.8451
L5.0863 18.9403
" />
<path d="M5.0863 18.9403
L5.1340 19.1308
" />
<path d="M5.1340 19.1308
L5.1340 19.3689
" />
<path d="M5.1340 19.3689
L5.0863 19.5593
" />
<path d="M5.0863 19.5593
L5.0387 19.6546
" />
<path d="M5.0387 19.6546
L4.9911 19.7022
" />
<path d="M4.9911 19.7022
L4.8959 19.7498
" />
<path d="M4.8959 19.7498
L4.8006 19.7498
" />
<path d="M4.8006 19.7498
L4.7054 19.7022
" />
<path d="M4.7054 19.7022
L4.6578 19.6546
" />
<path d="M4.6578 19.6546
L4.6102 19.5593
" />
<path d="M4.6102 19.5593
L4.5625 19.3689
" />
<path d="M4.5625 19.3689
L4.5625 19.1308
" />
<path d="M4.5625 19.1308
L4.6102 18.9403
" />
<path d="M4.6102 18.9403
L4.6578 18.8451
" />
<path d="M4.6578 18.8451
L4.7054 18.7974
" />
<path d="M4.7054 18.7974
L4.8006 18.7498
" />
<path d="M5.7530 18.7498
L5.8483 18.7498
" />
<path d="M5.8483 18.7498
L5.9435 18.7974
" />
<path d="M5.9435 18.7974
L5.9911 18.8451
" />
<path d="M5.9911 18.8451
L6.0387 18.9403
" />
<path d="M6.0387 18.9403
L6.0863 19.1308
" />
<path d="M6.0863 19.1308
L6.0863 19.3689
" />
<path d="M6.0863 19.3689
L6.0387 19.5593
" />
<path d="M6.0387 19.5593
L5.9911 19.6546
" />
<path d="M5.9911 19.6546
L5.9435 19.7022
" />
<path d="M5.9435 19.7022
L5.8483 19.7498
" />
<path d="M5.8483 19.7498
L5.7530 19.7498
" />
<path d="M5.7530 19.7498
L5.6578 19.7022
" />
<path d="M5.6578 19.7022
L5.6102 19.6546
" />
<path d="M5.6102 19.6546
L5.5625 19.5593
" />
<path d="M5.5625 19.5593
L5.5149 19.3689
" />
<path d="M5.5149 19.3689
L5.5149 19.1308
" />
<path d="M5.5149 19.1308
L5.5625 18.9403
" />
<path d="M5.5625 18.9403
L5.6102 18.8451
" />
<path d="M5.6102 18.8451
L5.6578 18.7974
" />
<path d="M5.6578 18.7974
L5.7530 18.7498
" />
<path d="M6.7054 18.7498
L6.8006 18.7498
" />
<path d="M6.8006 18.7498
L6.8959 18.7974
" />
<path d="M6.8959 18.7974
L6.9435 18.8451
" />
<path d="M6.9435 18.8451
L6.9911 18.9403
" />
<path d="M6.9911 18.9403
L7.0387 19.1308
" />
<path d="M7.0387 19.1308
L7.0387 19.3689
" />
<path d="M7.0387 19.3689
L6.9911 19.5593
" />
<path d="M6.9911 19.5593
L6.9435 19.6546
" />
<path d="M6.9435 19.6546
L6.8959 19.7022
" />
<path d="M6.8959 19.7022
L6.8006 19.7498
" />
<path d="M6.8006 19.7498
L6.7054 19.7498
" />
<path d="M6.7054 19.7498
L6.6102 19.7022
" />
<path d="M6.6102 19.7022
L6.5625 19.6546
" />
<path d="M6.5625 19.6546
L6.5149 19.5593
" />
<path d="M6.5149 19.5593
L6.4673 19.3689
" />
<path d="M6.4673 19.3689
L6.4673 19.1308
" />
<path d="M6.4673 19.1308
L6.5149 18.9403
" />
<path d="M6.5149 18.9403
L6.5625 18.8451
" />
<path d="M6.5625 18.8451
L6.6102 18.7974
" />
<path d="M6.6102 18.7974
L6.7054 18.7498
" />
<path d="M8.2292 19.7498
L8.2292 19.0832
" />
<path d="M8.2292 19.1784
L8.2768 19.1308
" />
<path d="M8.2768 19.1308
L8.3721 19.0832
" />
<path d="M8.3721 19.0832
L8.5149 19.0832
" />
<path d="M8.5149 19.0832
L8.6102 19.1308
" />
<path d="M8.6102 19.1308
L8.6578 19.2260
" />
<path d="M8.6578 19.2260
L8.6578 19.7498
" />
<path d="M8.6578 19.2260
L8.7054 19.1308
" />
<path d="M8.7054 19.1308
L8.8006 19.0832
" />
<path d="M8.8006 19.0832
L8.9435 19.0832
" />
<path d="M8.9435 19.0832
L9.0387 19.1308
" />
<path d="M9.0387 19.1308
L9.0863 19.2260
" />
<path d="M9.0863 19.2260
L9.0863 19.7498
" />
<path d="M9.5625 19.7498
L9.5625 19.0832
" />
<path d="M9.5625 19.1784
L9.6102 19.1308
" />
<path d="M9.6102 19.1308
L9.7054 19.0832
" />
<path d="M9.7054 19.0832
L9.8483 19.0832
" />
<path d="M9.8483 19.0832
L9.9435 19.1308
" />
<path d="M9.9435 19.1308
L9.9911 19.2260
" />
<path d="M9.9911 19.2260
L9.9911 19.7498
" />
<path d="M9.9911 19.2260
L10.0387 19.1308
" />
<path d="M10.0387 19.1308
L10.1340 19.0832
" />
<path d="M10.1340 19.0832
L10.2768 19.0832
" />
<path d="M10.2768 19.0832
L10.3721 19.1308
" />
<path d="M10.3721 19.1308
L10.4197 19.2260
" />
<path d="M10.4197 19.2260
L10.4197 19.7498
" />
</g><path d="M10.9482 18.3650
L10.9482 21.0314
" />
<path d="M0.7482 18.3650
L0.7482 21.0314
" />
<path d="M10.9482 20.4450
L0.7482 20.4450
" />
<path d="M10.9482 20.4450
L0.7482 20.4450
" />
<path d="M10.9482 20.4450
L9.8217 21.0314
" />
<path d="M10.9482 20.4450
L9.8217 19.8586
" />
<path d="M0.7482 20.4450
L1.8748 19.8586
" />
<path d="M0.7482 20.4450
L1.8748 21.0314
" />
<g transform="rotate(-90.000000 11.4062 9.4450)">
<text x="11.4062" y="9.9450"
textLength="9.8690" font-size="1.3333" lengthAdjust="spacingAndGlyphs"
text-anchor="middle" opacity="0">17.8400 mm</text>
</g>
<g class="stroked-text"><desc>17.8400 mm</desc>
<path d="M11.8611 13.4926
L11.8611 14.0640
" />
<path d="M11.8611 13.7783
L10.8611 13.7783
" />
<path d="M10.8611 13.7783
L11.0039 13.8736
" />
<path d="M11.0039 13.8736
L11.0992 13.9688
" />
<path d="M11.0992 13.9688
L11.1468 14.0640
" />
<path d="M10.8611 13.1593
L10.8611 12.4926
" />
<path d="M10.8611 12.4926
L11.8611 12.9212
" />
<path d="M11.7658 12.1117
L11.8134 12.0640
" />
<path d="M11.8134 12.0640
L11.8611 12.1117
" />
<path d="M11.8611 12.1117
L11.8134 12.1593
" />
<path d="M11.8134 12.1593
L11.7658 12.1117
" />
<path d="M11.7658 12.1117
L11.8611 12.1117
" />
<path d="M11.2896 11.4926
L11.2420 11.5879
" />
<path d="M11.2420 11.5879
L11.1944 11.6355
" />
<path d="M11.1944 11.6355
L11.0992 11.6831
" />
<path d="M11.0992 11.6831
L11.0515 11.6831
" />
<path d="M11.0515 11.6831
L10.9563 11.6355
" />
<path d="M10.9563 11.6355
L10.9087 11.5879
" />
<path d="M10.9087 11.5879
L10.8611 11.4926
" />
<path d="M10.8611 11.4926
L10.8611 11.3021
" />
<path d="M10.8611 11.3021
L10.9087 11.2069
" />
<path d="M10.9087 11.2069
L10.9563 11.1593
" />
<path d="M10.9563 11.1593
L11.0515 11.1117
" />
<path d="M11.0515 11.1117
L11.0992 11.1117
" />
<path d="M11.0992 11.1117
L11.1944 11.1593
" />
<path d="M11.1944 11.1593
L11.2420 11.2069
" />
<path d="M11.2420 11.2069
L11.2896 11.3021
" />
<path d="M11.2896 11.3021
L11.2896 11.4926
" />
<path d="M11.2896 11.4926
L11.3373 11.5879
" />
<path d="M11.3373 11.5879
L11.3849 11.6355
" />
<path d="M11.3849 11.6355
L11.4801 11.6831
" />
<path d="M11.4801 11.6831
L11.6706 11.6831
" />
<path d="M11.6706 11.6831
L11.7658 11.6355
" />
<path d="M11.7658 11.6355
L11.8134 11.5879
" />
<path d="M11.8134 11.5879
L11.8611 11.4926
" />
<path d="M11.8611 11.4926
L11.8611 11.3021
" />
<path d="M11.8611 11.3021
L11.8134 11.2069
" />
<path d="M11.8134 11.2069
L11.7658 11.1593
" />
<path d="M11.7658 11.1593
L11.6706 11.1117
" />
<path d="M11.6706 11.1117
L11.4801 11.1117
" />
<path d="M11.4801 11.1117
L11.3849 11.1593
" />
<path d="M11.3849 11.1593
L11.3373 11.2069
" />
<path d="M11.3373 11.2069
L11.2896 11.3021
" />
<path d="M11.1944 10.2545
L11.8611 10.2545
" />
<path d="M10.8134 10.4926
L11.5277 10.7307
" />
<path d="M11.5277 10.7307
L11.5277 10.1117
" />
<path d="M10.8611 9.5402
L10.8611 9.4450
" />
<path d="M10.8611 9.4450
L10.9087 9.3498
" />
<path d="M10.9087 9.3498
L10.9563 9.3021
" />
<path d="M10.9563 9.3021
L11.0515 9.2545
" />
<path d="M11.0515 9.2545
L11.2420 9.2069
" />
<path d="M11.2420 9.2069
L11.4801 9.2069
" />
<path d="M11.4801 9.2069
L11.6706 9.2545
" />
<path d="M11.6706 9.2545
L11.7658 9.3021
" />
<path d="M11.7658 9.3021
L11.8134 9.3498
" />
<path d="M11.8134 9.3498
L11.8611 9.4450
" />
<path d="M11.8611 9.4450
L11.8611 9.5402
" />
<path d="M11.8611 9.5402
L11.8134 9.6355
" />
<path d="M11.8134 9.6355
L11.7658 9.6831
" />
<path d="M11.7658 9.6831
L11.6706 9.7307
" />
<path d="M11.6706 9.7307
L11.4801 9.7783
" />
<path d="M11.4801 9.7783
L11.2420 9.7783
" />
<path d="M11.2420 9.7783
L11.0515 9.7307
" />
<path d="M11.0515 9.7307
L10.9563 9.6831
" />
<path d="M10.9563 9.6831
L10.9087 9.6355
" />
<path d="M10.9087 9.6355
L10.8611 9.5402
" />
<path d="M10.8611 8.5879
L10.8611 8.4926
" />
<path d="M10.8611 8.4926
L10.9087 8.3974
" />
<path d="M10.9087 8.3974
L10.9563 8.3498
" />
<path d="M10.9563 8.3498
L11.0515 8.3021
" />
<path d="M11.0515 8.3021
L11.2420 8.2545
" />
<path d="M11.2420 8.2545
L11.4801 8.2545
" />
<path d="M11.4801 8.2545
L11.6706 8.3021
" />
<path d="M11.6706 8.3021
L11.7658 8.3498
" />
<path d="M11.7658 8.3498
L11.8134 8.3974
" />
<path d="M11.8134 8.3974
L11.8611 8.4926
" />
<path d="M11.8611 8.4926
L11.8611 8.5879
" />
<path d="M11.8611 8.5879
L11.8134 8.6831
" />
<path d="M11.8134 8.6831
L11.7658 8.7307
" />
<path d="M11.7658 8.7307
L11.6706 8.7783
" />
<path d="M11.6706 8.7783
L11.4801 8.8260
" />
<path d="M11.4801 8.8260
L11.2420 8.8260
" />
<path d="M11.2420 8.8260
L11.0515 8.7783
" />
<path d="M11.0515 8.7783
L10.9563 8.7307
" />
<path d="M10.9563 8.7307
L10.9087 8.6831
" />
<path d="M10.9087 8.6831
L10.8611 8.5879
" />
<path d="M11.8611 7.0640
L11.1944 7.0640
" />
<path d="M11.2896 7.0640
L11.2420 7.0164
" />
<path d="M11.2420 7.0164
L11.1944 6.9212
" />
<path d="M11.1944 6.9212
L11.1944 6.7783
" />
<path d="M11.1944 6.7783
L11.2420 6.6831
" />
<path d="M11.2420 6.6831
L11.3373 6.6355
" />
<path d="M11.3373 6.6355
L11.8611 6.6355
" />
<path d="M11.3373 6.6355
L11.2420 6.5879
" />
<path d="M11.2420 6.5879
L11.1944 6.4926
" />
<path d="M11.1944 6.4926
L11.1944 6.3498
" />
<path d="M11.1944 6.3498
L11.2420 6.2545
" />
<path d="M11.2420 6.2545
L11.3373 6.2069
" />
<path d="M11.3373 6.2069
L11.8611 6.2069
" />
<path d="M11.8611 5.7307
L11.1944 5.7307
" />
<path d="M11.2896 5.7307
L11.2420 5.6831
" />
<path d="M11.2420 5.6831
L11.1944 5.5879
" />
<path d="M11.1944 5.5879
L11.1944 5.4450
" />
<path d="M11.1944 5.4450
L11.2420 5.3498
" />
<path d="M11.2420 5.3498
L11.3373 5.3021
" />
<path d="M11.3373 5.3021
L11.8611 5.3021
" />
<path d="M11.3373 5.3021
L11.2420 5.2545
" />
<path d="M11.2420 5.2545
L11.1944 5.1593
" />
<path d="M11.1944 5.1593
L11.1944 5.0164
" />
<path d="M11.1944 5.0164
L11.2420 4.9212
" />
<path d="M11.2420 4.9212
L11.3373 4.8736
" />
<path d="M11.3373 4.8736
L11.8611 4.8736
" />
</g><path d="M10.9482 0.5250
L13.1427 0.5250
" />
<path d="M10.9482 18.3650
L13.1427 18.3650
" />
<path d="M12.5562 0.5250
L12.5562 18.3650
" />
<path d="M12.5562 0.5250
L12.5562 18.3650
" />
<path d="M12.5562 0.5250
L13.1427 1.6515
" />
<path d="M12.5562 0.5250
L11.9698 1.6515
" />
<path d="M12.5562 18.3650
L11.9698 17.2385
" />
<path d="M12.5562 18.3650
L13.1427 17.2385
" />
<g >
</g>
<g >
</g>
<g >
</g>
<g >
</g>
<g >
</g>
<g >
</g>
<g >
</g>
<g >
</g>
</g>
<g style="fill:#FFFFFF; fill-opacity:0.0; 
stroke:#FFFFFF; stroke-width:0.1500; stroke-opacity:1; 
stroke-linecap:round; stroke-linejoin:round;">
</g>
<g style="fill:#2F2D31; fill-opacity:0.0; 
stroke:#2F2D31; stroke-width:0.1500; stroke-opacity:1; 
stroke-linecap:round; stroke-linejoin:round;">
</g>
<g style="fill:#2F2D31; fill-opacity:0.0; 
stroke:#2F2D31; stroke-width:0.0500; stroke-opacity:1; 
stroke-linecap:round; stroke-linejoin:round;">
<path d="M10.9482 0.5250
L0.7482 0.5250
" />
<path d="M10.9482 18.3650
L10.9482 0.5250
" />
<path d="M0.7482 18.3650
L10.9482 18.3650
" />
<path d="M0.7482 0.5250
L0.7482 18.3650
" />
<g >
</g>
<g >
</g>
<g >
</g>
<g >
</g>
<g >
</g>
<g >
</g>
<g >
</g>
<g >
</g>
</g> 
</svg>
