<?xml version="1.0" standalone="no"?>
 <!DOCTYPE svg PUBLIC "-//W3C//DTD SVG 1.1//EN" 
 "http://www.w3.org/Graphics/SVG/1.1/DTD/svg11.dtd"> 
<svg
  xmlns:svg="http://www.w3.org/2000/svg"
  xmlns="http://www.w3.org/2000/svg"
  xmlns:xlink="http://www.w3.org/1999/xlink"
  version="1.1"
  width="30.2260mm" height="16.0020mm" viewBox="0.0000 0.0000 30.2260 16.0020">
<title>SVG Image created as _autosave-working-brd.svg date 2023/09/26 14:30:10 </title>
  <desc>Image generated by PCBNEW </desc>
<g style="fill:#000000; fill-opacity:1.0000;stroke:#000000; stroke-opacity:1.0000;
stroke-linecap:round; stroke-linejoin:round;"
 transform="translate(0 0) scale(1 1)">
</g>
<g style="fill:#000000; fill-opacity:0.0; 
stroke:#000000; stroke-width:0.0000; stroke-opacity:1; 
stroke-linecap:round; stroke-linejoin:round;">
</g>
<g style="fill:#000000; fill-opacity:1.0000; 
stroke:#000000; stroke-width:0.0212; stroke-opacity:1; 
stroke-linecap:round; stroke-linejoin:round;">
<rect x="-5.000000" y="-5.000000" width="40.238675" height="26.026442" rx="0.000000" />
</g>
<g style="fill:#FFFFFF; fill-opacity:1.0000; 
stroke:#FFFFFF; stroke-width:0.0212; stroke-opacity:1; 
stroke-linecap:round; stroke-linejoin:round;">
<g >
</g>
<g style="fill:#B2803A; fill-opacity:1.0000; 
stroke:#B2803A; stroke-width:0.0212; stroke-opacity:1; 
stroke-linecap:round; stroke-linejoin:round;">
</g>
<g style="fill:#B2803A; fill-opacity:1.0000; 
stroke:#B2803A; stroke-width:0.0000; stroke-opacity:1; 
stroke-linecap:round; stroke-linejoin:round;">
<path style="fill:#B2803A; fill-opacity:1.0000; 
stroke:#B2803A; stroke-width:0.0000; stroke-opacity:1; 
stroke-linecap:round; stroke-linejoin:round;fill-rule:evenodd;"
d="M 10.7161,9.6030
10.7161,11.1270
9.1921,11.1270
9.1921,9.6030
Z" /> 
<circle cx="9.9542" cy="8.3650" r="0.7620" /> 
</g>
<g style="fill:#B2803A; fill-opacity:1.0000; 
stroke:#B2803A; stroke-width:0.0212; stroke-opacity:1; 
stroke-linecap:round; stroke-linejoin:round;">
</g>
<g style="fill:#B2803A; fill-opacity:1.0000; 
stroke:#B2803A; stroke-width:0.0000; stroke-opacity:1; 
stroke-linecap:round; stroke-linejoin:round;">
<circle cx="9.9542" cy="6.3650" r="0.7620" /> 
</g>
<g style="fill:#B2803A; fill-opacity:1.0000; 
stroke:#B2803A; stroke-width:0.0212; stroke-opacity:1; 
stroke-linecap:round; stroke-linejoin:round;">
</g>
<g style="fill:#B2803A; fill-opacity:1.0000; 
stroke:#B2803A; stroke-width:0.0000; stroke-opacity:1; 
stroke-linecap:round; stroke-linejoin:round;">
<circle cx="9.9542" cy="4.3650" r="0.7620" /> 
</g>
<g style="fill:#B2803A; fill-opacity:1.0000; 
stroke:#B2803A; stroke-width:0.0212; stroke-opacity:1; 
stroke-linecap:round; stroke-linejoin:round;">
</g>
<g >
</g>
<g style="fill:#B2803A; fill-opacity:1.0000; 
stroke:#B2803A; stroke-width:0.0212; stroke-opacity:1; 
stroke-linecap:round; stroke-linejoin:round;">
</g>
<g style="fill:#B2803A; fill-opacity:1.0000; 
stroke:#B2803A; stroke-width:0.0000; stroke-opacity:1; 
stroke-linecap:round; stroke-linejoin:round;">
<path style="fill:#B2803A; fill-opacity:1.0000; 
stroke:#B2803A; stroke-width:0.0000; stroke-opacity:1; 
stroke-linecap:round; stroke-linejoin:round;fill-rule:evenodd;"
d="M 13.7921,5.1270
13.7921,3.6030
15.3161,3.6030
15.3161,5.1270
Z" /> 
<circle cx="14.5541" cy="6.3650" r="0.7620" /> 
</g>
<g style="fill:#B2803A; fill-opacity:1.0000; 
stroke:#B2803A; stroke-width:0.0212; stroke-opacity:1; 
stroke-linecap:round; stroke-linejoin:round;">
</g>
<g style="fill:#B2803A; fill-opacity:1.0000; 
stroke:#B2803A; stroke-width:0.0000; stroke-opacity:1; 
stroke-linecap:round; stroke-linejoin:round;">
<circle cx="14.5541" cy="8.3650" r="0.7620" /> 
</g>
<g style="fill:#B2803A; fill-opacity:1.0000; 
stroke:#B2803A; stroke-width:0.0212; stroke-opacity:1; 
stroke-linecap:round; stroke-linejoin:round;">
</g>
<g style="fill:#B2803A; fill-opacity:1.0000; 
stroke:#B2803A; stroke-width:0.0000; stroke-opacity:1; 
stroke-linecap:round; stroke-linejoin:round;">
<circle cx="14.5541" cy="10.3650" r="0.7620" /> 
</g>
<g style="fill:#B2803A; fill-opacity:1.0000; 
stroke:#B2803A; stroke-width:0.0212; stroke-opacity:1; 
stroke-linecap:round; stroke-linejoin:round;">
</g>
<g >
</g>
<g style="fill:#B2803A; fill-opacity:1.0000; 
stroke:#B2803A; stroke-width:0.0212; stroke-opacity:1; 
stroke-linecap:round; stroke-linejoin:round;">
</g>
<g style="fill:#B2803A; fill-opacity:1.0000; 
stroke:#B2803A; stroke-width:0.0000; stroke-opacity:1; 
stroke-linecap:round; stroke-linejoin:round;">
<path style="fill:#B2803A; fill-opacity:1.0000; 
stroke:#B2803A; stroke-width:0.0000; stroke-opacity:1; 
stroke-linecap:round; stroke-linejoin:round;fill-rule:evenodd;"
d="M 16.3041,11.3150
16.3041,10.5150
17.2041,10.5150
17.2041,11.3150
Z" /> 
<path style="fill:#B2803A; fill-opacity:1.0000; 
stroke:#B2803A; stroke-width:0.0000; stroke-opacity:1; 
stroke-linecap:round; stroke-linejoin:round;fill-rule:evenodd;"
d="M 16.3041,9.4150
16.3041,8.6150
17.2041,8.6150
17.2041,9.4150
Z" /> 
<path style="fill:#B2803A; fill-opacity:1.0000; 
stroke:#B2803A; stroke-width:0.0000; stroke-opacity:1; 
stroke-linecap:round; stroke-linejoin:round;fill-rule:evenodd;"
d="M 18.3041,10.3650
18.3041,9.5650
19.2041,9.5650
19.2041,10.3650
Z" /> 
</g>
<g >
</g>
<g style="fill:#B2803A; fill-opacity:1.0000; 
stroke:#B2803A; stroke-width:0.0000; stroke-opacity:1; 
stroke-linecap:round; stroke-linejoin:round;">
<path style="fill:#B2803A; fill-opacity:1.0000; 
stroke:#B2803A; stroke-width:0.0000; stroke-opacity:1; 
stroke-linecap:round; stroke-linejoin:round;fill-rule:evenodd;"
d="M 16.2041,5.9150
16.2041,5.1150
17.1042,5.1150
17.1042,5.9150
Z" /> 
<path style="fill:#B2803A; fill-opacity:1.0000; 
stroke:#B2803A; stroke-width:0.0000; stroke-opacity:1; 
stroke-linecap:round; stroke-linejoin:round;fill-rule:evenodd;"
d="M 16.2041,4.0150
16.2041,3.2150
17.1042,3.2150
17.1042,4.0150
Z" /> 
<path style="fill:#B2803A; fill-opacity:1.0000; 
stroke:#B2803A; stroke-width:0.0000; stroke-opacity:1; 
stroke-linecap:round; stroke-linejoin:round;fill-rule:evenodd;"
d="M 18.2041,4.9650
18.2041,4.1650
19.1042,4.1650
19.1042,4.9650
Z" /> 
</g>
<g >
</g>
<g style="fill:#B2803A; fill-opacity:1.0000; 
stroke:#B2803A; stroke-width:0.0000; stroke-opacity:1; 
stroke-linecap:round; stroke-linejoin:round;">
<path style="fill:#B2803A; fill-opacity:1.0000; 
stroke:#B2803A; stroke-width:0.0000; stroke-opacity:1; 
stroke-linecap:round; stroke-linejoin:round;fill-rule:evenodd;"
d="M 8.3041,3.6150
8.3041,4.4150
7.4041,4.4150
7.4041,3.6150
Z" /> 
<path style="fill:#B2803A; fill-opacity:1.0000; 
stroke:#B2803A; stroke-width:0.0000; stroke-opacity:1; 
stroke-linecap:round; stroke-linejoin:round;fill-rule:evenodd;"
d="M 8.3041,5.5150
8.3041,6.3150
7.4041,6.3150
7.4041,5.5150
Z" /> 
<path style="fill:#B2803A; fill-opacity:1.0000; 
stroke:#B2803A; stroke-width:0.0000; stroke-opacity:1; 
stroke-linecap:round; stroke-linejoin:round;fill-rule:evenodd;"
d="M 6.3041,4.5650
6.3041,5.3650
5.4041,5.3650
5.4041,4.5650
Z" /> 
</g>
<g >
</g>
<g style="fill:#B2803A; fill-opacity:1.0000; 
stroke:#B2803A; stroke-width:0.0000; stroke-opacity:1; 
stroke-linecap:round; stroke-linejoin:round;">
<path style="fill:#B2803A; fill-opacity:1.0000; 
stroke:#B2803A; stroke-width:0.0000; stroke-opacity:1; 
stroke-linecap:round; stroke-linejoin:round;fill-rule:evenodd;"
d="M 8.3041,8.8150
8.3041,9.6150
7.4041,9.6150
7.4041,8.8150
Z" /> 
<path style="fill:#B2803A; fill-opacity:1.0000; 
stroke:#B2803A; stroke-width:0.0000; stroke-opacity:1; 
stroke-linecap:round; stroke-linejoin:round;fill-rule:evenodd;"
d="M 8.3041,10.7150
8.3041,11.5150
7.4041,11.5150
7.4041,10.7150
Z" /> 
<path style="fill:#B2803A; fill-opacity:1.0000; 
stroke:#B2803A; stroke-width:0.0000; stroke-opacity:1; 
stroke-linecap:round; stroke-linejoin:round;fill-rule:evenodd;"
d="M 6.3041,9.7650
6.3041,10.5650
5.4041,10.5650
5.4041,9.7650
Z" /> 
</g>
<g >
</g>
<g style="fill:#B2803A; fill-opacity:1.0000; 
stroke:#B2803A; stroke-width:0.0000; stroke-opacity:1; 
stroke-linecap:round; stroke-linejoin:round;">
<path style="fill:#B2803A; fill-opacity:1.0000; 
stroke:#B2803A; stroke-width:0.0000; stroke-opacity:1; 
stroke-linecap:round; stroke-linejoin:round;fill-rule:evenodd;"
d="M 20.0979,11.6775
20.0142,11.6609
19.9432,11.6135
19.8958,11.5425
19.8791,11.4588
19.8791,11.0213
19.8958,10.9376
19.9432,10.8666
20.0142,10.8192
20.0979,10.8025
20.6104,10.8025
20.6941,10.8192
20.7651,10.8666
20.8125,10.9376
20.8291,11.0213
20.8291,11.4588
20.8125,11.5425
20.7651,11.6135
20.6941,11.6609
20.6104,11.6775
Z" /> 
<path style="fill:#B2803A; fill-opacity:1.0000; 
stroke:#B2803A; stroke-width:0.0000; stroke-opacity:1; 
stroke-linecap:round; stroke-linejoin:round;fill-rule:evenodd;"
d="M 20.0979,10.1025
20.0142,10.0859
19.9432,10.0384
19.8958,9.9675
19.8791,9.8838
19.8791,9.4463
19.8958,9.3626
19.9432,9.2916
20.0142,9.2442
20.0979,9.2275
20.6104,9.2275
20.6941,9.2442
20.7651,9.2916
20.8125,9.3626
20.8291,9.4463
20.8291,9.8838
20.8125,9.9675
20.7651,10.0384
20.6941,10.0859
20.6104,10.1025
Z" /> 
</g>
<g >
</g>
<g style="fill:#B2803A; fill-opacity:1.0000; 
stroke:#B2803A; stroke-width:0.0000; stroke-opacity:1; 
stroke-linecap:round; stroke-linejoin:round;">
<path style="fill:#B2803A; fill-opacity:1.0000; 
stroke:#B2803A; stroke-width:0.0000; stroke-opacity:1; 
stroke-linecap:round; stroke-linejoin:round;fill-rule:evenodd;"
d="M 20.0979,8.5900
20.0142,8.5734
19.9432,8.5259
19.8958,8.4550
19.8791,8.3713
19.8791,7.9338
19.8958,7.8501
19.9432,7.7791
20.0142,7.7317
20.0979,7.7150
20.6104,7.7150
20.6941,7.7317
20.7651,7.7791
20.8125,7.8501
20.8291,7.9338
20.8291,8.3713
20.8125,8.4550
20.7651,8.5259
20.6941,8.5734
20.6104,8.5900
Z" /> 
<path style="fill:#B2803A; fill-opacity:1.0000; 
stroke:#B2803A; stroke-width:0.0000; stroke-opacity:1; 
stroke-linecap:round; stroke-linejoin:round;fill-rule:evenodd;"
d="M 20.0979,7.0150
20.0142,6.9984
19.9432,6.9509
19.8958,6.8800
19.8791,6.7963
19.8791,6.3588
19.8958,6.2751
19.9432,6.2041
20.0142,6.1567
20.0979,6.1400
20.6104,6.1400
20.6941,6.1567
20.7651,6.2041
20.8125,6.2751
20.8291,6.3588
20.8291,6.7963
20.8125,6.8800
20.7651,6.9509
20.6941,6.9984
20.6104,7.0150
Z" /> 
</g>
<g >
</g>
<g style="fill:#B2803A; fill-opacity:1.0000; 
stroke:#B2803A; stroke-width:0.0000; stroke-opacity:1; 
stroke-linecap:round; stroke-linejoin:round;">
<path style="fill:#B2803A; fill-opacity:1.0000; 
stroke:#B2803A; stroke-width:0.0000; stroke-opacity:1; 
stroke-linecap:round; stroke-linejoin:round;fill-rule:evenodd;"
d="M 20.0979,5.3900
20.0142,5.3734
19.9432,5.3259
19.8958,5.2550
19.8791,5.1713
19.8791,4.7338
19.8958,4.6501
19.9432,4.5791
20.0142,4.5317
20.0979,4.5150
20.6104,4.5150
20.6941,4.5317
20.7651,4.5791
20.8125,4.6501
20.8291,4.7338
20.8291,5.1713
20.8125,5.2550
20.7651,5.3259
20.6941,5.3734
20.6104,5.3900
Z" /> 
<path style="fill:#B2803A; fill-opacity:1.0000; 
stroke:#B2803A; stroke-width:0.0000; stroke-opacity:1; 
stroke-linecap:round; stroke-linejoin:round;fill-rule:evenodd;"
d="M 20.0979,3.8150
20.0142,3.7984
19.9432,3.7510
19.8958,3.6800
19.8791,3.5963
19.8791,3.1588
19.8958,3.0751
19.9432,3.0041
20.0142,2.9567
20.0979,2.9400
20.6104,2.9400
20.6941,2.9567
20.7651,3.0041
20.8125,3.0751
20.8291,3.1588
20.8291,3.5963
20.8125,3.6800
20.7651,3.7510
20.6941,3.7984
20.6104,3.8150
Z" /> 
</g>
<g >
</g>
<g style="fill:#B2803A; fill-opacity:1.0000; 
stroke:#B2803A; stroke-width:0.0000; stroke-opacity:1; 
stroke-linecap:round; stroke-linejoin:round;">
<path style="fill:#B2803A; fill-opacity:1.0000; 
stroke:#B2803A; stroke-width:0.0000; stroke-opacity:1; 
stroke-linecap:round; stroke-linejoin:round;fill-rule:evenodd;"
d="M 4.5104,3.2525
4.5941,3.2692
4.6651,3.3166
4.7125,3.3876
4.7291,3.4713
4.7291,3.9088
4.7125,3.9925
4.6651,4.0634
4.5941,4.1109
4.5104,4.1275
3.9979,4.1275
3.9142,4.1109
3.8432,4.0634
3.7958,3.9925
3.7792,3.9088
3.7792,3.4713
3.7958,3.3876
3.8432,3.3166
3.9142,3.2692
3.9979,3.2525
Z" /> 
<path style="fill:#B2803A; fill-opacity:1.0000; 
stroke:#B2803A; stroke-width:0.0000; stroke-opacity:1; 
stroke-linecap:round; stroke-linejoin:round;fill-rule:evenodd;"
d="M 4.5104,4.8275
4.5941,4.8442
4.6651,4.8916
4.7125,4.9626
4.7291,5.0463
4.7291,5.4838
4.7125,5.5675
4.6651,5.6384
4.5941,5.6859
4.5104,5.7025
3.9979,5.7025
3.9142,5.6859
3.8432,5.6384
3.7958,5.5675
3.7792,5.4838
3.7792,5.0463
3.7958,4.9626
3.8432,4.8916
3.9142,4.8442
3.9979,4.8275
Z" /> 
</g>
<g >
</g>
<g style="fill:#B2803A; fill-opacity:1.0000; 
stroke:#B2803A; stroke-width:0.0000; stroke-opacity:1; 
stroke-linecap:round; stroke-linejoin:round;">
<path style="fill:#B2803A; fill-opacity:1.0000; 
stroke:#B2803A; stroke-width:0.0000; stroke-opacity:1; 
stroke-linecap:round; stroke-linejoin:round;fill-rule:evenodd;"
d="M 4.5104,6.3525
4.5941,6.3692
4.6651,6.4166
4.7125,6.4876
4.7291,6.5713
4.7291,7.0088
4.7125,7.0925
4.6651,7.1635
4.5941,7.2109
4.5104,7.2275
3.9979,7.2275
3.9142,7.2109
3.8432,7.1635
3.7958,7.0925
3.7792,7.0088
3.7792,6.5713
3.7958,6.4876
3.8432,6.4166
3.9142,6.3692
3.9979,6.3525
Z" /> 
<path style="fill:#B2803A; fill-opacity:1.0000; 
stroke:#B2803A; stroke-width:0.0000; stroke-opacity:1; 
stroke-linecap:round; stroke-linejoin:round;fill-rule:evenodd;"
d="M 4.5104,7.9275
4.5941,7.9442
4.6651,7.9916
4.7125,8.0626
4.7291,8.1463
4.7291,8.5838
4.7125,8.6675
4.6651,8.7385
4.5941,8.7859
4.5104,8.8025
3.9979,8.8025
3.9142,8.7859
3.8432,8.7385
3.7958,8.6675
3.7792,8.5838
3.7792,8.1463
3.7958,8.0626
3.8432,7.9916
3.9142,7.9442
3.9979,7.9275
Z" /> 
</g>
<g >
</g>
<g style="fill:#B2803A; fill-opacity:1.0000; 
stroke:#B2803A; stroke-width:0.0000; stroke-opacity:1; 
stroke-linecap:round; stroke-linejoin:round;">
<path style="fill:#B2803A; fill-opacity:1.0000; 
stroke:#B2803A; stroke-width:0.0000; stroke-opacity:1; 
stroke-linecap:round; stroke-linejoin:round;fill-rule:evenodd;"
d="M 4.5104,9.4525
4.5941,9.4692
4.6651,9.5166
4.7125,9.5876
4.7291,9.6713
4.7291,10.1088
4.7125,10.1925
4.6651,10.2634
4.5941,10.3109
4.5104,10.3275
3.9979,10.3275
3.9142,10.3109
3.8432,10.2634
3.7958,10.1925
3.7792,10.1088
3.7792,9.6713
3.7958,9.5876
3.8432,9.5166
3.9142,9.4692
3.9979,9.4525
Z" /> 
<path style="fill:#B2803A; fill-opacity:1.0000; 
stroke:#B2803A; stroke-width:0.0000; stroke-opacity:1; 
stroke-linecap:round; stroke-linejoin:round;fill-rule:evenodd;"
d="M 4.5104,11.0275
4.5941,11.0442
4.6651,11.0916
4.7125,11.1626
4.7291,11.2463
4.7291,11.6838
4.7125,11.7675
4.6651,11.8384
4.5941,11.8859
4.5104,11.9025
3.9979,11.9025
3.9142,11.8859
3.8432,11.8384
3.7958,11.7675
3.7792,11.6838
3.7792,11.2463
3.7958,11.1626
3.8432,11.0916
3.9142,11.0442
3.9979,11.0275
Z" /> 
</g>
<g >
</g>
<g >
</g>
<g style="fill:#B2803A; fill-opacity:1.0000; 
stroke:#B2803A; stroke-width:0.0000; stroke-opacity:1; 
stroke-linecap:round; stroke-linejoin:round;">
</g>
<g style="fill:#B2803A; fill-opacity:1.0000; 
stroke:#B2803A; stroke-width:0.2500; stroke-opacity:1; 
stroke-linecap:round; stroke-linejoin:round;">
</g>
<g style="fill:#B2803A; fill-opacity:0.0; 
stroke:#B2803A; stroke-width:0.2500; stroke-opacity:1; 
stroke-linecap:round; stroke-linejoin:round;">
<path d="M7.8541 4.0150
L7.8541 3.2897
" />
<path d="M20.3542 9.7279
L20.3542 9.6650
" />
<path d="M21.1553 5.7537
L20.3542 4.9525
" />
<path d="M5.2546 10.8904
L6.4867 10.8904
" />
<path d="M3.7264 2.9063
L7.4707 2.9063
" />
<path d="M11.9542 8.3650
L14.5541 8.3650
" />
<path d="M3.4428 3.1898
L3.7264 2.9063
" />
<path d="M18.0803 10.6904
L19.3916 10.6904
" />
<path d="M4.2542 5.2650
L3.4428 4.4537
" />
<path d="M16.6541 6.2650
L16.6541 5.5150
" />
<path d="M21.1553 7.3513
L21.1553 5.7537
" />
<path d="M9.9542 6.3650
L11.9542 8.3650
" />
<path d="M7.4707 2.9063
L7.8541 3.2897
" />
<path d="M3.4428 4.4537
L3.4428 3.1898
" />
<path d="M6.4867 10.8904
L7.4367 9.9403
" />
<path d="M3.4469 7.5972
L3.4469 9.0828
" />
<path d="M15.9981 6.9210
L16.6541 6.2650
" />
<path d="M3.4469 9.0828
L4.2542 9.8900
" />
<path d="M17.5296 10.1396
L16.7541 10.9150
" />
<path d="M9.9542 6.3650
L9.9542 6.1150
" />
<path d="M7.4367 9.9403
L7.8541 9.9403
" />
<path d="M17.5296 10.1396
L18.0803 10.6904
" />
<path d="M20.3542 8.1525
L21.1553 7.3513
" />
<path d="M7.8541 9.2150
L7.8541 9.9403
" />
<path d="M15.9981 6.9210
L17.5296 8.4525
" />
<path d="M17.5296 8.4525
L17.5296 10.1396
" />
<path d="M4.2542 9.8900
L5.2546 10.8904
" />
<path d="M9.9542 6.1150
L7.8541 4.0150
" />
<path d="M4.2542 6.7900
L3.4469 7.5972
" />
<path d="M4.2542 5.2650
L4.2542 6.7900
" />
<path d="M20.3542 9.6650
L20.3542 8.1525
" />
<path d="M14.5541 8.3650
L15.9981 6.9210
" />
<path d="M19.3916 10.6904
L20.3542 9.7279
" />
<path d="M7.3983 5.1897
L5.8986 3.6900
" />
<path d="M5.8986 3.6900
L4.2542 3.6900
" />
<path d="M7.8541 5.1897
L7.3983 5.1897
" />
<path d="M7.8541 5.9150
L7.8541 5.1897
" />
<path d="M9.9542 8.3650
L8.2294 6.6403
" />
<path d="M8.2294 6.6403
L7.8541 6.6403
" />
<path d="M7.8541 5.9150
L7.8541 6.6403
" />
<path d="M15.9539 11.4722
L15.9539 10.3592
" />
<path d="M16.7541 9.0150
L16.7541 9.7403
" />
<path d="M15.9539 10.3592
L16.5728 9.7403
" />
<path d="M20.3542 11.2400
L19.9345 11.6596
" />
<path d="M16.5728 9.7403
L16.7541 9.7403
" />
<path d="M9.9542 10.3650
L11.0414 10.3650
" />
<path d="M12.1486 11.4722
L11.0414 10.3650
" />
<path d="M16.1413 11.6596
L15.9539 11.4722
" />
<path d="M19.9345 11.6596
L16.1413 11.6596
" />
<path d="M15.9539 11.4722
L12.1486 11.4722
" />
<path d="M7.8541 11.1150
L7.0789 11.1150
" />
<path d="M14.5541 6.3650
L10.6059 2.4168
" />
<path d="M2.9909 2.9984
L2.9909 10.2017
" />
<path d="M7.0789 11.1150
L6.7288 11.4650
" />
<path d="M10.6059 2.4168
L3.5724 2.4168
" />
<path d="M6.7288 11.4650
L4.2542 11.4650
" />
<path d="M2.9909 10.2017
L4.2542 11.4650
" />
<path d="M3.5724 2.4168
L2.9909 2.9984
" />
<path d="M16.6294 4.3650
L16.6541 4.3403
" />
<path d="M14.5541 4.3650
L16.6294 4.3650
" />
<path d="M16.6541 3.6150
L17.4294 3.6150
" />
<path d="M16.6541 3.6150
L16.6541 4.3403
" />
<path d="M20.3542 3.3775
L17.6669 3.3775
" />
<path d="M17.6669 3.3775
L17.4294 3.6150
" />
<path d="M19.0669 5.2903
L18.6541 5.2903
" />
<path d="M18.6541 4.5650
L18.6541 5.2903
" />
<path d="M18.7541 8.1775
L20.3542 6.5775
" />
<path d="M20.3542 6.5775
L19.0669 5.2903
" />
<path d="M18.7541 9.9650
L18.7541 8.1775
" />
<path d="M5.0927 8.6782
L5.0926 8.6783
" />
<path d="M5.0926 8.6783
L4.5675 8.6783
" />
<path d="M4.5675 8.6783
L4.2542 8.3650
" />
<path d="M5.8541 9.4397
L5.0927 8.6782
" />
<path d="M5.8541 7.9168
L5.0927 8.6782
" />
<path d="M5.8541 10.1650
L5.8541 9.4397
" />
<path d="M5.8541 4.9650
L5.8541 7.9168
" />
</g>
<g >
</g>
</g>
<g style="fill:#000000; fill-opacity:0.0; 
stroke:#000000; stroke-width:0.2500; stroke-opacity:1; 
stroke-linecap:round; stroke-linejoin:round;">
</g>
<g style="fill:#000000; fill-opacity:1.0000; 
stroke:#000000; stroke-width:0.0000; stroke-opacity:1; 
stroke-linecap:round; stroke-linejoin:round;">
<circle cx="9.9542" cy="10.3650" r="0.3810" /> 
</g>
<g style="fill:#000000; fill-opacity:1.0000; 
stroke:#000000; stroke-width:0.0212; stroke-opacity:1; 
stroke-linecap:round; stroke-linejoin:round;">
</g>
<g style="fill:#000000; fill-opacity:1.0000; 
stroke:#000000; stroke-width:0.0000; stroke-opacity:1; 
stroke-linecap:round; stroke-linejoin:round;">
<circle cx="9.9542" cy="8.3650" r="0.3810" /> 
</g>
<g style="fill:#000000; fill-opacity:1.0000; 
stroke:#000000; stroke-width:0.0212; stroke-opacity:1; 
stroke-linecap:round; stroke-linejoin:round;">
</g>
<g style="fill:#000000; fill-opacity:1.0000; 
stroke:#000000; stroke-width:0.0000; stroke-opacity:1; 
stroke-linecap:round; stroke-linejoin:round;">
<circle cx="9.9542" cy="6.3650" r="0.3810" /> 
</g>
<g style="fill:#000000; fill-opacity:1.0000; 
stroke:#000000; stroke-width:0.0212; stroke-opacity:1; 
stroke-linecap:round; stroke-linejoin:round;">
</g>
<g style="fill:#000000; fill-opacity:1.0000; 
stroke:#000000; stroke-width:0.0000; stroke-opacity:1; 
stroke-linecap:round; stroke-linejoin:round;">
<circle cx="9.9542" cy="4.3650" r="0.3810" /> 
</g>
<g style="fill:#000000; fill-opacity:1.0000; 
stroke:#000000; stroke-width:0.0212; stroke-opacity:1; 
stroke-linecap:round; stroke-linejoin:round;">
</g>
<g style="fill:#000000; fill-opacity:1.0000; 
stroke:#000000; stroke-width:0.0000; stroke-opacity:1; 
stroke-linecap:round; stroke-linejoin:round;">
<circle cx="14.5541" cy="4.3650" r="0.3810" /> 
</g>
<g style="fill:#000000; fill-opacity:1.0000; 
stroke:#000000; stroke-width:0.0212; stroke-opacity:1; 
stroke-linecap:round; stroke-linejoin:round;">
</g>
<g style="fill:#000000; fill-opacity:1.0000; 
stroke:#000000; stroke-width:0.0000; stroke-opacity:1; 
stroke-linecap:round; stroke-linejoin:round;">
<circle cx="14.5541" cy="6.3650" r="0.3810" /> 
</g>
<g style="fill:#000000; fill-opacity:1.0000; 
stroke:#000000; stroke-width:0.0212; stroke-opacity:1; 
stroke-linecap:round; stroke-linejoin:round;">
</g>
<g style="fill:#000000; fill-opacity:1.0000; 
stroke:#000000; stroke-width:0.0000; stroke-opacity:1; 
stroke-linecap:round; stroke-linejoin:round;">
<circle cx="14.5541" cy="8.3650" r="0.3810" /> 
</g>
<g style="fill:#000000; fill-opacity:1.0000; 
stroke:#000000; stroke-width:0.0212; stroke-opacity:1; 
stroke-linecap:round; stroke-linejoin:round;">
</g>
<g style="fill:#000000; fill-opacity:1.0000; 
stroke:#000000; stroke-width:0.0000; stroke-opacity:1; 
stroke-linecap:round; stroke-linejoin:round;">
<circle cx="14.5541" cy="10.3650" r="0.3810" /> 
</g>
<g style="fill:#000000; fill-opacity:1.0000; 
stroke:#000000; stroke-width:0.0212; stroke-opacity:1; 
stroke-linecap:round; stroke-linejoin:round;">
</g>
<g style="fill:#FFFFFF; fill-opacity:1.0000; 
stroke:#FFFFFF; stroke-width:0.0212; stroke-opacity:1; 
stroke-linecap:round; stroke-linejoin:round;">
<g >
</g>
<g style="fill:#37CBCB; fill-opacity:1.0000; 
stroke:#37CBCB; stroke-width:0.0212; stroke-opacity:1; 
stroke-linecap:round; stroke-linejoin:round;">
</g>
<g style="fill:#37CBCB; fill-opacity:1.0000; 
stroke:#37CBCB; stroke-width:0.0000; stroke-opacity:1; 
stroke-linecap:round; stroke-linejoin:round;">
<path style="fill:#37CBCB; fill-opacity:1.0000; 
stroke:#37CBCB; stroke-width:0.0000; stroke-opacity:1; 
stroke-linecap:round; stroke-linejoin:round;fill-rule:evenodd;"
d="M 10.7161,9.6030
10.7161,11.1270
9.1921,11.1270
9.1921,9.6030
Z" /> 
<circle cx="9.9542" cy="8.3650" r="0.7620" /> 
</g>
<g style="fill:#37CBCB; fill-opacity:1.0000; 
stroke:#37CBCB; stroke-width:0.0212; stroke-opacity:1; 
stroke-linecap:round; stroke-linejoin:round;">
</g>
<g style="fill:#37CBCB; fill-opacity:1.0000; 
stroke:#37CBCB; stroke-width:0.0000; stroke-opacity:1; 
stroke-linecap:round; stroke-linejoin:round;">
<circle cx="9.9542" cy="6.3650" r="0.7620" /> 
</g>
<g style="fill:#37CBCB; fill-opacity:1.0000; 
stroke:#37CBCB; stroke-width:0.0212; stroke-opacity:1; 
stroke-linecap:round; stroke-linejoin:round;">
</g>
<g style="fill:#37CBCB; fill-opacity:1.0000; 
stroke:#37CBCB; stroke-width:0.0000; stroke-opacity:1; 
stroke-linecap:round; stroke-linejoin:round;">
<circle cx="9.9542" cy="4.3650" r="0.7620" /> 
</g>
<g style="fill:#37CBCB; fill-opacity:1.0000; 
stroke:#37CBCB; stroke-width:0.0212; stroke-opacity:1; 
stroke-linecap:round; stroke-linejoin:round;">
</g>
<g >
</g>
<g style="fill:#37CBCB; fill-opacity:1.0000; 
stroke:#37CBCB; stroke-width:0.0212; stroke-opacity:1; 
stroke-linecap:round; stroke-linejoin:round;">
</g>
<g style="fill:#37CBCB; fill-opacity:1.0000; 
stroke:#37CBCB; stroke-width:0.0000; stroke-opacity:1; 
stroke-linecap:round; stroke-linejoin:round;">
<path style="fill:#37CBCB; fill-opacity:1.0000; 
stroke:#37CBCB; stroke-width:0.0000; stroke-opacity:1; 
stroke-linecap:round; stroke-linejoin:round;fill-rule:evenodd;"
d="M 13.7921,5.1270
13.7921,3.6030
15.3161,3.6030
15.3161,5.1270
Z" /> 
<circle cx="14.5541" cy="6.3650" r="0.7620" /> 
</g>
<g style="fill:#37CBCB; fill-opacity:1.0000; 
stroke:#37CBCB; stroke-width:0.0212; stroke-opacity:1; 
stroke-linecap:round; stroke-linejoin:round;">
</g>
<g style="fill:#37CBCB; fill-opacity:1.0000; 
stroke:#37CBCB; stroke-width:0.0000; stroke-opacity:1; 
stroke-linecap:round; stroke-linejoin:round;">
<circle cx="14.5541" cy="8.3650" r="0.7620" /> 
</g>
<g style="fill:#37CBCB; fill-opacity:1.0000; 
stroke:#37CBCB; stroke-width:0.0212; stroke-opacity:1; 
stroke-linecap:round; stroke-linejoin:round;">
</g>
<g style="fill:#37CBCB; fill-opacity:1.0000; 
stroke:#37CBCB; stroke-width:0.0000; stroke-opacity:1; 
stroke-linecap:round; stroke-linejoin:round;">
<circle cx="14.5541" cy="10.3650" r="0.7620" /> 
</g>
<g style="fill:#37CBCB; fill-opacity:1.0000; 
stroke:#37CBCB; stroke-width:0.0212; stroke-opacity:1; 
stroke-linecap:round; stroke-linejoin:round;">
</g>
<g >
</g>
<g >
</g>
<g >
</g>
<g >
</g>
<g >
</g>
<g >
</g>
<g >
</g>
<g >
</g>
<g >
</g>
<g >
</g>
<g >
</g>
<g >
</g>
<g style="fill:#37CBCB; fill-opacity:1.0000; 
stroke:#37CBCB; stroke-width:0.0212; stroke-opacity:1; 
stroke-linecap:round; stroke-linejoin:round;">
</g>
<g style="fill:#37CBCB; fill-opacity:1.0000; 
stroke:#37CBCB; stroke-width:0.2500; stroke-opacity:1; 
stroke-linecap:round; stroke-linejoin:round;">
</g>
<g style="fill:#37CBCB; fill-opacity:0.0; 
stroke:#37CBCB; stroke-width:0.2500; stroke-opacity:1; 
stroke-linecap:round; stroke-linejoin:round;">
<path d="M9.9542 4.3650
L12.4721 6.8830
" />
<path d="M12.4721 6.8830
L12.4721 8.2830
" />
<path d="M12.4721 8.2830
L14.5541 10.3650
" />
</g>
<g >
</g>
<g style="fill:#37CBCB; fill-opacity:0.0; 
stroke:#37CBCB; stroke-width:0.2500; stroke-opacity:1; 
stroke-linecap:round; stroke-linejoin:round;">
<g >
</g>
<g style="fill:#37CBCB; fill-opacity:1.0000; 
stroke:#37CBCB; stroke-width:0.0000; stroke-opacity:1; 
stroke-linecap:round; stroke-linejoin:round;">
<path style="fill:#37CBCB; fill-opacity:1.0000; 
stroke:#37CBCB; stroke-width:0.0000; stroke-opacity:1; 
stroke-linecap:round; stroke-linejoin:round;fill-rule:evenodd;"
d="M 22.2958,2.1855
22.3423,2.2392
22.3536,2.2915
22.3536,12.4385
22.3336,12.5066
22.2800,12.5531
22.2277,12.5645
2.3806,12.5645
2.3125,12.5445
2.2660,12.4909
2.2546,12.4385
2.2546,8.3650
8.6788,8.3650
8.6982,8.5865
8.7444,8.7591
8.7557,8.8012
8.7557,8.8012
8.8497,9.0027
8.8814,9.0480
8.9041,9.1153
8.8868,9.1842
8.8537,9.2212
8.8289,9.2398
8.7413,9.3568
8.7413,9.3568
8.6902,9.4938
8.6902,9.4938
8.6837,9.5544
8.6837,11.1757
8.6902,11.2362
8.6902,11.2362
8.7413,11.3732
8.7413,11.3732
8.8289,11.4903
8.9459,11.5779
8.9459,11.5779
8.9459,11.5779
9.0050,11.5999
9.0829,11.6290
9.0830,11.6290
9.1435,11.6355
9.1435,11.6355
9.1435,11.6355
9.1435,11.6355
10.7648,11.6355
10.7648,11.6355
10.7648,11.6355
10.7648,11.6355
10.8253,11.6290
10.8253,11.6290
10.8254,11.6290
10.9624,11.5779
11.0794,11.4903
11.1670,11.3732
11.2181,11.2362
11.2246,11.1757
11.2246,9.5544
11.2246,9.5544
11.2181,9.4938
11.2181,9.4938
11.1670,9.3568
11.1670,9.3568
11.0794,9.2398
11.0546,9.2212
11.0120,9.1643
11.0070,9.0935
11.0269,9.0480
11.0586,9.0027
11.1526,8.8012
11.2101,8.5865
11.2295,8.3650
13.2788,8.3650
13.2982,8.5865
13.3444,8.7591
13.3557,8.8012
13.3557,8.8012
13.4497,9.0027
13.4497,9.0027
13.5772,9.1848
13.5772,9.1848
13.5772,9.1848
13.7344,9.3420
13.7344,9.3420
13.7344,9.3420
13.7555,9.3568
13.9165,9.4695
14.0863,9.5487
14.1221,9.5738
14.5324,9.9840
14.5226,9.9840
14.4287,9.9997
14.3169,10.0602
14.2308,10.1538
14.1797,10.2702
14.1736,10.3437
13.4943,9.6644
13.4501,9.7276
13.3562,9.9290
13.3562,9.9290
13.2987,10.1436
13.2793,10.3650
13.2987,10.5864
13.3562,10.8010
13.3562,10.8010
13.4501,11.0024
13.4943,11.0656
13.4943,11.0656
14.1698,10.3902
14.1692,10.3969
14.2004,10.5202
14.2700,10.6266
14.3703,10.7047
14.4906,10.7460
14.5324,10.7460
13.8535,11.4248
13.8535,11.4248
13.9167,11.4691
13.9167,11.4691
14.1181,11.5630
14.1181,11.5630
14.3328,11.6205
14.5541,11.6399
14.7755,11.6205
14.9902,11.5630
14.9902,11.5630
15.1916,11.4691
15.1916,11.4691
15.2548,11.4248
15.2548,11.4248
14.5759,10.7460
14.5857,10.7460
14.6796,10.7304
14.7914,10.6698
14.8775,10.5763
14.9286,10.4598
14.9347,10.3863
15.6140,11.0656
15.6140,11.0656
15.6582,11.0024
15.6582,11.0024
15.7521,10.8010
15.7521,10.8010
15.8096,10.5864
15.8290,10.3650
15.8096,10.1436
15.7521,9.9290
15.7521,9.9290
15.6582,9.7276
15.6140,9.6644
15.6140,9.6644
14.9385,10.3398
14.9391,10.3331
14.9079,10.2099
14.8383,10.1034
14.7380,10.0253
14.6177,9.9840
14.5759,9.9840
14.9862,9.5738
15.0220,9.5487
15.1918,9.4695
15.3739,9.3420
15.5311,9.1848
15.6586,9.0027
15.7526,8.8012
15.8101,8.5865
15.8295,8.3650
15.8101,8.1436
15.7526,7.9288
15.6586,7.7273
15.5311,7.5452
15.4400,7.4541
15.4060,7.3918
15.4110,7.3210
15.4400,7.2759
15.4400,7.2759
15.5311,7.1848
15.6586,7.0027
15.7526,6.8012
15.8101,6.5865
15.8295,6.3650
15.8101,6.1436
15.7526,5.9288
15.6586,5.7273
15.6269,5.6820
15.6042,5.6147
15.6215,5.5459
15.6546,5.5089
15.6794,5.4903
15.7670,5.3732
15.8181,5.2362
15.8247,5.1757
15.8247,3.5544
15.8246,3.5544
15.8181,3.4938
15.8181,3.4938
15.7670,3.3568
15.7670,3.3568
15.6794,3.2398
15.5624,3.1521
15.5624,3.1521
15.4254,3.1010
15.4253,3.1010
15.3648,3.0945
15.3648,3.0945
13.7435,3.0945
13.7435,3.0945
13.6830,3.1010
13.6829,3.1010
13.5459,3.1521
13.5459,3.1521
13.4289,3.2398
13.3413,3.3568
13.3413,3.3568
13.2902,3.4938
13.2902,3.4938
13.2836,3.5544
13.2836,5.1757
13.2902,5.2362
13.2902,5.2362
13.3413,5.3732
13.3413,5.3732
13.4289,5.4903
13.4537,5.5089
13.4963,5.5657
13.5013,5.6365
13.4814,5.6820
13.4497,5.7273
13.3557,5.9288
13.3557,5.9288
13.2982,6.1436
13.2788,6.3650
13.2982,6.5865
13.3444,6.7591
13.3557,6.8012
13.3557,6.8012
13.4497,7.0027
13.4497,7.0027
13.5772,7.1848
13.5772,7.1848
13.5772,7.1848
13.6683,7.2759
13.6683,7.2759
13.7023,7.3382
13.6973,7.4091
13.6683,7.4541
13.5772,7.5452
13.4497,7.7273
13.4497,7.7273
13.3557,7.9288
13.2982,8.1436
13.2788,8.3650
11.2295,8.3650
11.2101,8.1436
11.1526,7.9288
11.0586,7.7273
10.9311,7.5452
10.8400,7.4541
10.8060,7.3918
10.8110,7.3210
10.8400,7.2759
10.8400,7.2759
10.9311,7.1848
11.0586,7.0027
11.1526,6.8012
11.2101,6.5865
11.2295,6.3650
11.2101,6.1436
11.1526,5.9288
11.0586,5.7273
10.9311,5.5452
10.7739,5.3880
10.7739,5.3880
10.7739,5.3880
10.5918,5.2605
10.5289,5.2312
10.4220,5.1813
10.3862,5.1562
9.9759,4.7460
9.9857,4.7460
10.0796,4.7304
10.1914,4.6698
10.2775,4.5763
10.3286,4.4598
10.3347,4.3863
11.0140,5.0656
11.0140,5.0656
11.0582,5.0024
11.0582,5.0024
11.1521,4.8010
11.1521,4.8010
11.2096,4.5864
11.2290,4.3650
11.2096,4.1436
11.1521,3.9290
11.1521,3.9290
11.0582,3.7276
11.0140,3.6644
11.0140,3.6644
10.3385,4.3398
10.3391,4.3331
10.3079,4.2099
10.2383,4.1034
10.1380,4.0253
10.0177,3.9840
9.9759,3.9840
10.6548,3.3052
10.6548,3.3052
10.5916,3.2610
10.3902,3.1671
10.3902,3.1671
10.1755,3.1095
9.9542,3.0902
9.7328,3.1095
9.5181,3.1671
9.5181,3.1671
9.3167,3.2610
9.2535,3.3052
9.9324,3.9840
9.9226,3.9840
9.8287,3.9997
9.7169,4.0602
9.6308,4.1538
9.5797,4.2702
9.5736,4.3437
8.8943,3.6644
8.8501,3.7276
8.7562,3.9290
8.7562,3.9290
8.6987,4.1436
8.6793,4.3650
8.6987,4.5864
8.7562,4.8010
8.7562,4.8010
8.8501,5.0024
8.8943,5.0656
8.8943,5.0656
9.5698,4.3902
9.5692,4.3969
9.6004,4.5202
9.6700,4.6266
9.7703,4.7047
9.8906,4.7460
9.9324,4.7460
9.5221,5.1562
9.4863,5.1813
9.3165,5.2605
9.1344,5.3880
9.1344,5.3880
8.9772,5.5452
8.9772,5.5452
8.8497,5.7273
8.8497,5.7273
8.7557,5.9288
8.6982,6.1436
8.6788,6.3650
8.6982,6.5865
8.7444,6.7591
8.7557,6.8012
8.7557,6.8012
8.8497,7.0027
8.8497,7.0027
8.9772,7.1848
8.9772,7.1848
8.9772,7.1848
9.0683,7.2759
9.0683,7.2759
9.1023,7.3382
9.0973,7.4091
9.0683,7.4541
8.9772,7.5452
8.8497,7.7273
8.8497,7.7273
8.7557,7.9288
8.6982,8.1436
8.6788,8.3650
2.2546,8.3650
2.2546,2.2915
2.2747,2.2234
2.3283,2.1769
2.3806,2.1655
22.2277,2.1655
Z" /> 
</g>
</g>
</g>
<g style="fill:#000000; fill-opacity:1.0000; 
stroke:#000000; stroke-width:0.0000; stroke-opacity:1; 
stroke-linecap:round; stroke-linejoin:round;">
<circle cx="9.9542" cy="10.3650" r="0.3810" /> 
</g>
<g style="fill:#000000; fill-opacity:1.0000; 
stroke:#000000; stroke-width:0.0212; stroke-opacity:1; 
stroke-linecap:round; stroke-linejoin:round;">
</g>
<g style="fill:#000000; fill-opacity:1.0000; 
stroke:#000000; stroke-width:0.0000; stroke-opacity:1; 
stroke-linecap:round; stroke-linejoin:round;">
<circle cx="9.9542" cy="8.3650" r="0.3810" /> 
</g>
<g style="fill:#000000; fill-opacity:1.0000; 
stroke:#000000; stroke-width:0.0212; stroke-opacity:1; 
stroke-linecap:round; stroke-linejoin:round;">
</g>
<g style="fill:#000000; fill-opacity:1.0000; 
stroke:#000000; stroke-width:0.0000; stroke-opacity:1; 
stroke-linecap:round; stroke-linejoin:round;">
<circle cx="9.9542" cy="6.3650" r="0.3810" /> 
</g>
<g style="fill:#000000; fill-opacity:1.0000; 
stroke:#000000; stroke-width:0.0212; stroke-opacity:1; 
stroke-linecap:round; stroke-linejoin:round;">
</g>
<g style="fill:#000000; fill-opacity:1.0000; 
stroke:#000000; stroke-width:0.0000; stroke-opacity:1; 
stroke-linecap:round; stroke-linejoin:round;">
<circle cx="9.9542" cy="4.3650" r="0.3810" /> 
</g>
<g style="fill:#000000; fill-opacity:1.0000; 
stroke:#000000; stroke-width:0.0212; stroke-opacity:1; 
stroke-linecap:round; stroke-linejoin:round;">
</g>
<g style="fill:#000000; fill-opacity:1.0000; 
stroke:#000000; stroke-width:0.0000; stroke-opacity:1; 
stroke-linecap:round; stroke-linejoin:round;">
<circle cx="14.5541" cy="4.3650" r="0.3810" /> 
</g>
<g style="fill:#000000; fill-opacity:1.0000; 
stroke:#000000; stroke-width:0.0212; stroke-opacity:1; 
stroke-linecap:round; stroke-linejoin:round;">
</g>
<g style="fill:#000000; fill-opacity:1.0000; 
stroke:#000000; stroke-width:0.0000; stroke-opacity:1; 
stroke-linecap:round; stroke-linejoin:round;">
<circle cx="14.5541" cy="6.3650" r="0.3810" /> 
</g>
<g style="fill:#000000; fill-opacity:1.0000; 
stroke:#000000; stroke-width:0.0212; stroke-opacity:1; 
stroke-linecap:round; stroke-linejoin:round;">
</g>
<g style="fill:#000000; fill-opacity:1.0000; 
stroke:#000000; stroke-width:0.0000; stroke-opacity:1; 
stroke-linecap:round; stroke-linejoin:round;">
<circle cx="14.5541" cy="8.3650" r="0.3810" /> 
</g>
<g style="fill:#000000; fill-opacity:1.0000; 
stroke:#000000; stroke-width:0.0212; stroke-opacity:1; 
stroke-linecap:round; stroke-linejoin:round;">
</g>
<g style="fill:#000000; fill-opacity:1.0000; 
stroke:#000000; stroke-width:0.0000; stroke-opacity:1; 
stroke-linecap:round; stroke-linejoin:round;">
<circle cx="14.5541" cy="10.3650" r="0.3810" /> 
</g>
<g style="fill:#000000; fill-opacity:1.0000; 
stroke:#000000; stroke-width:0.0212; stroke-opacity:1; 
stroke-linecap:round; stroke-linejoin:round;">
</g>
<g style="fill:#FFFFFF; fill-opacity:1.0000; 
stroke:#FFFFFF; stroke-width:0.0212; stroke-opacity:1; 
stroke-linecap:round; stroke-linejoin:round;">
</g>
<g style="fill:#3D3D3D; fill-opacity:1.0000; 
stroke:#3D3D3D; stroke-width:0.0212; stroke-opacity:1; 
stroke-linecap:round; stroke-linejoin:round;">
</g>
<g style="fill:#3D3D3D; fill-opacity:1.0000; 
stroke:#3D3D3D; stroke-width:0.1500; stroke-opacity:1; 
stroke-linecap:round; stroke-linejoin:round;">
</g>
<g style="fill:#3D3D3D; fill-opacity:0.0; 
stroke:#3D3D3D; stroke-width:0.1500; stroke-opacity:1; 
stroke-linecap:round; stroke-linejoin:round;">
<g transform="rotate(-90.000000 25.3041 7.3650)">
<text x="25.3041" y="7.8650"
textLength="9.8690" font-size="1.3333" lengthAdjust="spacingAndGlyphs"
text-anchor="middle" opacity="0">11.4000 mm</text>
</g>
<g class="stroked-text"><desc>11.4000 mm</desc>
<path d="M25.7590 11.4126
L25.7590 11.9841
" />
<path d="M25.7590 11.6984
L24.7590 11.6984
" />
<path d="M24.7590 11.6984
L24.9018 11.7936
" />
<path d="M24.9018 11.7936
L24.9971 11.8888
" />
<path d="M24.9971 11.8888
L25.0447 11.9841
" />
<path d="M25.7590 10.4603
L25.7590 11.0317
" />
<path d="M25.7590 10.7460
L24.7590 10.7460
" />
<path d="M24.7590 10.7460
L24.9018 10.8412
" />
<path d="M24.9018 10.8412
L24.9971 10.9364
" />
<path d="M24.9971 10.9364
L25.0447 11.0317
" />
<path d="M25.6637 10.0317
L25.7113 9.9841
" />
<path d="M25.7113 9.9841
L25.7590 10.0317
" />
<path d="M25.7590 10.0317
L25.7113 10.0793
" />
<path d="M25.7113 10.0793
L25.6637 10.0317
" />
<path d="M25.6637 10.0317
L25.7590 10.0317
" />
<path d="M25.0923 9.1269
L25.7590 9.1269
" />
<path d="M24.7113 9.3650
L25.4256 9.6031
" />
<path d="M25.4256 9.6031
L25.4256 8.9841
" />
<path d="M24.7590 8.4126
L24.7590 8.3174
" />
<path d="M24.7590 8.3174
L24.8066 8.2222
" />
<path d="M24.8066 8.2222
L24.8542 8.1745
" />
<path d="M24.8542 8.1745
L24.9494 8.1269
" />
<path d="M24.9494 8.1269
L25.1399 8.0793
" />
<path d="M25.1399 8.0793
L25.3780 8.0793
" />
<path d="M25.3780 8.0793
L25.5685 8.1269
" />
<path d="M25.5685 8.1269
L25.6637 8.1745
" />
<path d="M25.6637 8.1745
L25.7113 8.2222
" />
<path d="M25.7113 8.2222
L25.7590 8.3174
" />
<path d="M25.7590 8.3174
L25.7590 8.4126
" />
<path d="M25.7590 8.4126
L25.7113 8.5079
" />
<path d="M25.7113 8.5079
L25.6637 8.5555
" />
<path d="M25.6637 8.5555
L25.5685 8.6031
" />
<path d="M25.5685 8.6031
L25.3780 8.6507
" />
<path d="M25.3780 8.6507
L25.1399 8.6507
" />
<path d="M25.1399 8.6507
L24.9494 8.6031
" />
<path d="M24.9494 8.6031
L24.8542 8.5555
" />
<path d="M24.8542 8.5555
L24.8066 8.5079
" />
<path d="M24.8066 8.5079
L24.7590 8.4126
" />
<path d="M24.7590 7.4603
L24.7590 7.3650
" />
<path d="M24.7590 7.3650
L24.8066 7.2698
" />
<path d="M24.8066 7.2698
L24.8542 7.2222
" />
<path d="M24.8542 7.2222
L24.9494 7.1745
" />
<path d="M24.9494 7.1745
L25.1399 7.1269
" />
<path d="M25.1399 7.1269
L25.3780 7.1269
" />
<path d="M25.3780 7.1269
L25.5685 7.1745
" />
<path d="M25.5685 7.1745
L25.6637 7.2222
" />
<path d="M25.6637 7.2222
L25.7113 7.2698
" />
<path d="M25.7113 7.2698
L25.7590 7.3650
" />
<path d="M25.7590 7.3650
L25.7590 7.4603
" />
<path d="M25.7590 7.4603
L25.7113 7.5555
" />
<path d="M25.7113 7.5555
L25.6637 7.6031
" />
<path d="M25.6637 7.6031
L25.5685 7.6507
" />
<path d="M25.5685 7.6507
L25.3780 7.6984
" />
<path d="M25.3780 7.6984
L25.1399 7.6984
" />
<path d="M25.1399 7.6984
L24.9494 7.6507
" />
<path d="M24.9494 7.6507
L24.8542 7.6031
" />
<path d="M24.8542 7.6031
L24.8066 7.5555
" />
<path d="M24.8066 7.5555
L24.7590 7.4603
" />
<path d="M24.7590 6.5079
L24.7590 6.4126
" />
<path d="M24.7590 6.4126
L24.8066 6.3174
" />
<path d="M24.8066 6.3174
L24.8542 6.2698
" />
<path d="M24.8542 6.2698
L24.9494 6.2222
" />
<path d="M24.9494 6.2222
L25.1399 6.1745
" />
<path d="M25.1399 6.1745
L25.3780 6.1745
" />
<path d="M25.3780 6.1745
L25.5685 6.2222
" />
<path d="M25.5685 6.2222
L25.6637 6.2698
" />
<path d="M25.6637 6.2698
L25.7113 6.3174
" />
<path d="M25.7113 6.3174
L25.7590 6.4126
" />
<path d="M25.7590 6.4126
L25.7590 6.5079
" />
<path d="M25.7590 6.5079
L25.7113 6.6031
" />
<path d="M25.7113 6.6031
L25.6637 6.6507
" />
<path d="M25.6637 6.6507
L25.5685 6.6984
" />
<path d="M25.5685 6.6984
L25.3780 6.7460
" />
<path d="M25.3780 6.7460
L25.1399 6.7460
" />
<path d="M25.1399 6.7460
L24.9494 6.6984
" />
<path d="M24.9494 6.6984
L24.8542 6.6507
" />
<path d="M24.8542 6.6507
L24.8066 6.6031
" />
<path d="M24.8066 6.6031
L24.7590 6.5079
" />
<path d="M25.7590 4.9841
L25.0923 4.9841
" />
<path d="M25.1875 4.9841
L25.1399 4.9364
" />
<path d="M25.1399 4.9364
L25.0923 4.8412
" />
<path d="M25.0923 4.8412
L25.0923 4.6984
" />
<path d="M25.0923 4.6984
L25.1399 4.6031
" />
<path d="M25.1399 4.6031
L25.2352 4.5555
" />
<path d="M25.2352 4.5555
L25.7590 4.5555
" />
<path d="M25.2352 4.5555
L25.1399 4.5079
" />
<path d="M25.1399 4.5079
L25.0923 4.4126
" />
<path d="M25.0923 4.4126
L25.0923 4.2698
" />
<path d="M25.0923 4.2698
L25.1399 4.1745
" />
<path d="M25.1399 4.1745
L25.2352 4.1269
" />
<path d="M25.2352 4.1269
L25.7590 4.1269
" />
<path d="M25.7590 3.6507
L25.0923 3.6507
" />
<path d="M25.1875 3.6507
L25.1399 3.6031
" />
<path d="M25.1399 3.6031
L25.0923 3.5079
" />
<path d="M25.0923 3.5079
L25.0923 3.3650
" />
<path d="M25.0923 3.3650
L25.1399 3.2698
" />
<path d="M25.1399 3.2698
L25.2352 3.2222
" />
<path d="M25.2352 3.2222
L25.7590 3.2222
" />
<path d="M25.2352 3.2222
L25.1399 3.1745
" />
<path d="M25.1399 3.1745
L25.0923 3.0793
" />
<path d="M25.0923 3.0793
L25.0923 2.9364
" />
<path d="M25.0923 2.9364
L25.1399 2.8412
" />
<path d="M25.1399 2.8412
L25.2352 2.7936
" />
<path d="M25.2352 2.7936
L25.7590 2.7936
" />
</g><path d="M22.8542 1.6650
L27.0406 1.6650
" />
<path d="M22.8542 13.0650
L27.0406 13.0650
" />
<path d="M26.4541 1.6650
L26.4541 13.0650
" />
<path d="M26.4541 1.6650
L26.4541 13.0650
" />
<path d="M26.4541 1.6650
L27.0406 2.7915
" />
<path d="M26.4541 1.6650
L25.8677 2.7915
" />
<path d="M26.4541 13.0650
L25.8677 11.9385
" />
<path d="M26.4541 13.0650
L27.0406 11.9385
" />
<text x="12.3041" y="14.7150"
textLength="9.8690" font-size="1.3333" lengthAdjust="spacingAndGlyphs"
text-anchor="middle" opacity="0">21.1000 mm</text>
<g class="stroked-text"><desc>21.1000 mm</desc>
<path d="M7.6851 13.7651
L7.7327 13.7175
" />
<path d="M7.7327 13.7175
L7.8280 13.6698
" />
<path d="M7.8280 13.6698
L8.0661 13.6698
" />
<path d="M8.0661 13.6698
L8.1613 13.7175
" />
<path d="M8.1613 13.7175
L8.2089 13.7651
" />
<path d="M8.2089 13.7651
L8.2565 13.8603
" />
<path d="M8.2565 13.8603
L8.2565 13.9556
" />
<path d="M8.2565 13.9556
L8.2089 14.0984
" />
<path d="M8.2089 14.0984
L7.6375 14.6698
" />
<path d="M7.6375 14.6698
L8.2565 14.6698
" />
<path d="M9.2089 14.6698
L8.6375 14.6698
" />
<path d="M8.9232 14.6698
L8.9232 13.6698
" />
<path d="M8.9232 13.6698
L8.8280 13.8127
" />
<path d="M8.8280 13.8127
L8.7327 13.9079
" />
<path d="M8.7327 13.9079
L8.6375 13.9556
" />
<path d="M9.6375 14.5746
L9.6851 14.6222
" />
<path d="M9.6851 14.6222
L9.6375 14.6698
" />
<path d="M9.6375 14.6698
L9.5899 14.6222
" />
<path d="M9.5899 14.6222
L9.6375 14.5746
" />
<path d="M9.6375 14.5746
L9.6375 14.6698
" />
<path d="M10.6375 14.6698
L10.0661 14.6698
" />
<path d="M10.3518 14.6698
L10.3518 13.6698
" />
<path d="M10.3518 13.6698
L10.2565 13.8127
" />
<path d="M10.2565 13.8127
L10.1613 13.9079
" />
<path d="M10.1613 13.9079
L10.0661 13.9556
" />
<path d="M11.2565 13.6698
L11.3518 13.6698
" />
<path d="M11.3518 13.6698
L11.4470 13.7175
" />
<path d="M11.4470 13.7175
L11.4946 13.7651
" />
<path d="M11.4946 13.7651
L11.5422 13.8603
" />
<path d="M11.5422 13.8603
L11.5899 14.0508
" />
<path d="M11.5899 14.0508
L11.5899 14.2889
" />
<path d="M11.5899 14.2889
L11.5422 14.4794
" />
<path d="M11.5422 14.4794
L11.4946 14.5746
" />
<path d="M11.4946 14.5746
L11.4470 14.6222
" />
<path d="M11.4470 14.6222
L11.3518 14.6698
" />
<path d="M11.3518 14.6698
L11.2565 14.6698
" />
<path d="M11.2565 14.6698
L11.1613 14.6222
" />
<path d="M11.1613 14.6222
L11.1137 14.5746
" />
<path d="M11.1137 14.5746
L11.0661 14.4794
" />
<path d="M11.0661 14.4794
L11.0184 14.2889
" />
<path d="M11.0184 14.2889
L11.0184 14.0508
" />
<path d="M11.0184 14.0508
L11.0661 13.8603
" />
<path d="M11.0661 13.8603
L11.1137 13.7651
" />
<path d="M11.1137 13.7651
L11.1613 13.7175
" />
<path d="M11.1613 13.7175
L11.2565 13.6698
" />
<path d="M12.2089 13.6698
L12.3041 13.6698
" />
<path d="M12.3041 13.6698
L12.3994 13.7175
" />
<path d="M12.3994 13.7175
L12.4470 13.7651
" />
<path d="M12.4470 13.7651
L12.4946 13.8603
" />
<path d="M12.4946 13.8603
L12.5422 14.0508
" />
<path d="M12.5422 14.0508
L12.5422 14.2889
" />
<path d="M12.5422 14.2889
L12.4946 14.4794
" />
<path d="M12.4946 14.4794
L12.4470 14.5746
" />
<path d="M12.4470 14.5746
L12.3994 14.6222
" />
<path d="M12.3994 14.6222
L12.3041 14.6698
" />
<path d="M12.3041 14.6698
L12.2089 14.6698
" />
<path d="M12.2089 14.6698
L12.1137 14.6222
" />
<path d="M12.1137 14.6222
L12.0661 14.5746
" />
<path d="M12.0661 14.5746
L12.0184 14.4794
" />
<path d="M12.0184 14.4794
L11.9708 14.2889
" />
<path d="M11.9708 14.2889
L11.9708 14.0508
" />
<path d="M11.9708 14.0508
L12.0184 13.8603
" />
<path d="M12.0184 13.8603
L12.0661 13.7651
" />
<path d="M12.0661 13.7651
L12.1137 13.7175
" />
<path d="M12.1137 13.7175
L12.2089 13.6698
" />
<path d="M13.1613 13.6698
L13.2565 13.6698
" />
<path d="M13.2565 13.6698
L13.3518 13.7175
" />
<path d="M13.3518 13.7175
L13.3994 13.7651
" />
<path d="M13.3994 13.7651
L13.4470 13.8603
" />
<path d="M13.4470 13.8603
L13.4946 14.0508
" />
<path d="M13.4946 14.0508
L13.4946 14.2889
" />
<path d="M13.4946 14.2889
L13.4470 14.4794
" />
<path d="M13.4470 14.4794
L13.3994 14.5746
" />
<path d="M13.3994 14.5746
L13.3518 14.6222
" />
<path d="M13.3518 14.6222
L13.2565 14.6698
" />
<path d="M13.2565 14.6698
L13.1613 14.6698
" />
<path d="M13.1613 14.6698
L13.0661 14.6222
" />
<path d="M13.0661 14.6222
L13.0184 14.5746
" />
<path d="M13.0184 14.5746
L12.9708 14.4794
" />
<path d="M12.9708 14.4794
L12.9232 14.2889
" />
<path d="M12.9232 14.2889
L12.9232 14.0508
" />
<path d="M12.9232 14.0508
L12.9708 13.8603
" />
<path d="M12.9708 13.8603
L13.0184 13.7651
" />
<path d="M13.0184 13.7651
L13.0661 13.7175
" />
<path d="M13.0661 13.7175
L13.1613 13.6698
" />
<path d="M14.6851 14.6698
L14.6851 14.0032
" />
<path d="M14.6851 14.0984
L14.7327 14.0508
" />
<path d="M14.7327 14.0508
L14.8280 14.0032
" />
<path d="M14.8280 14.0032
L14.9708 14.0032
" />
<path d="M14.9708 14.0032
L15.0661 14.0508
" />
<path d="M15.0661 14.0508
L15.1137 14.1460
" />
<path d="M15.1137 14.1460
L15.1137 14.6698
" />
<path d="M15.1137 14.1460
L15.1613 14.0508
" />
<path d="M15.1613 14.0508
L15.2565 14.0032
" />
<path d="M15.2565 14.0032
L15.3994 14.0032
" />
<path d="M15.3994 14.0032
L15.4946 14.0508
" />
<path d="M15.4946 14.0508
L15.5422 14.1460
" />
<path d="M15.5422 14.1460
L15.5422 14.6698
" />
<path d="M16.0184 14.6698
L16.0184 14.0032
" />
<path d="M16.0184 14.0984
L16.0661 14.0508
" />
<path d="M16.0661 14.0508
L16.1613 14.0032
" />
<path d="M16.1613 14.0032
L16.3041 14.0032
" />
<path d="M16.3041 14.0032
L16.3994 14.0508
" />
<path d="M16.3994 14.0508
L16.4470 14.1460
" />
<path d="M16.4470 14.1460
L16.4470 14.6698
" />
<path d="M16.4470 14.1460
L16.4946 14.0508
" />
<path d="M16.4946 14.0508
L16.5899 14.0032
" />
<path d="M16.5899 14.0032
L16.7327 14.0032
" />
<path d="M16.7327 14.0032
L16.8280 14.0508
" />
<path d="M16.8280 14.0508
L16.8756 14.1460
" />
<path d="M16.8756 14.1460
L16.8756 14.6698
" />
</g><path d="M22.8542 13.0650
L22.8542 15.9514
" />
<path d="M1.7541 13.0650
L1.7541 15.9514
" />
<path d="M22.8542 15.3650
L1.7541 15.3650
" />
<path d="M22.8542 15.3650
L1.7541 15.3650
" />
<path d="M22.8542 15.3650
L21.7276 15.9514
" />
<path d="M22.8542 15.3650
L21.7276 14.7786
" />
<path d="M1.7541 15.3650
L2.8807 14.7786
" />
<path d="M1.7541 15.3650
L2.8807 15.9514
" />
<g >
</g>
<g >
</g>
<g >
</g>
<g >
</g>
<g >
</g>
<g >
</g>
<g >
</g>
<g >
</g>
<g >
</g>
<g >
</g>
<g >
</g>
<g >
</g>
<g >
</g>
<g >
</g>
<g >
</g>
</g>
<g style="fill:#FFFFFF; fill-opacity:0.0; 
stroke:#FFFFFF; stroke-width:0.1500; stroke-opacity:1; 
stroke-linecap:round; stroke-linejoin:round;">
</g>
<g style="fill:#2F2D31; fill-opacity:0.0; 
stroke:#2F2D31; stroke-width:0.1500; stroke-opacity:1; 
stroke-linecap:round; stroke-linejoin:round;">
</g>
<g style="fill:#2F2D31; fill-opacity:0.0; 
stroke:#2F2D31; stroke-width:0.0500; stroke-opacity:1; 
stroke-linecap:round; stroke-linejoin:round;">
<path d="M1.7541 1.6650
L1.7541 13.0650
" />
<path d="M1.7541 13.0650
L22.8542 13.0650
" />
<path d="M22.8542 13.0650
L22.8542 1.6650
" />
<path d="M22.8542 1.6650
L1.7541 1.6650
" />
<g >
</g>
<g >
</g>
<g >
</g>
<g >
</g>
<g >
</g>
<g >
</g>
<g >
</g>
<g >
</g>
<g >
</g>
<g >
</g>
<g >
</g>
<g >
</g>
<g >
</g>
<g >
</g>
<g >
</g>
</g> 
</svg>
