<?xml version="1.0" standalone="no"?>
 <!DOCTYPE svg PUBLIC "-//W3C//DTD SVG 1.1//EN" 
 "http://www.w3.org/Graphics/SVG/1.1/DTD/svg11.dtd"> 
<svg
  xmlns:svg="http://www.w3.org/2000/svg"
  xmlns="http://www.w3.org/2000/svg"
  xmlns:xlink="http://www.w3.org/1999/xlink"
  version="1.1"
  width="22.7584mm" height="24.5618mm" viewBox="0.0000 0.0000 22.7584 24.5618">
<title>SVG Image created as _autosave-working-brd.svg date 2023/09/26 13:19:07 </title>
  <desc>Image generated by PCBNEW </desc>
<g style="fill:#000000; fill-opacity:1.0000;stroke:#000000; stroke-opacity:1.0000;
stroke-linecap:round; stroke-linejoin:round;"
 transform="translate(0 0) scale(1 1)">
</g>
<g style="fill:#000000; fill-opacity:0.0; 
stroke:#000000; stroke-width:0.0000; stroke-opacity:1; 
stroke-linecap:round; stroke-linejoin:round;">
</g>
<g style="fill:#000000; fill-opacity:1.0000; 
stroke:#000000; stroke-width:0.0212; stroke-opacity:1; 
stroke-linecap:round; stroke-linejoin:round;">
<rect x="-5.000000" y="-5.000000" width="32.783250" height="34.585239" rx="0.000000" />
</g>
<g style="fill:#FFFFFF; fill-opacity:1.0000; 
stroke:#FFFFFF; stroke-width:0.0212; stroke-opacity:1; 
stroke-linecap:round; stroke-linejoin:round;">
<g >
</g>
<g style="fill:#B2803A; fill-opacity:1.0000; 
stroke:#B2803A; stroke-width:0.0212; stroke-opacity:1; 
stroke-linecap:round; stroke-linejoin:round;">
</g>
<g style="fill:#B2803A; fill-opacity:1.0000; 
stroke:#B2803A; stroke-width:0.0000; stroke-opacity:1; 
stroke-linecap:round; stroke-linejoin:round;">
<path style="fill:#B2803A; fill-opacity:1.0000; 
stroke:#B2803A; stroke-width:0.0000; stroke-opacity:1; 
stroke-linecap:round; stroke-linejoin:round;fill-rule:evenodd;"
d="M 2.6750,20.7626
0.9750,20.7626
0.9750,19.0626
2.6750,19.0626
Z" /> 
<circle cx="4.3650" cy="19.9126" r="0.8500" /> 
<circle cx="6.9050" cy="19.9126" r="0.8500" /> 
<circle cx="9.4450" cy="19.9126" r="0.8500" /> 
<circle cx="11.9850" cy="19.9126" r="0.8500" /> 
<circle cx="14.5250" cy="19.9126" r="0.8500" /> 
<circle cx="17.0650" cy="19.9126" r="0.8500" /> 
<circle cx="19.6050" cy="19.9126" r="0.8500" /> 
</g>
<g >
</g>
<g style="fill:#B2803A; fill-opacity:1.0000; 
stroke:#B2803A; stroke-width:0.0000; stroke-opacity:1; 
stroke-linecap:round; stroke-linejoin:round;">
<path style="fill:#B2803A; fill-opacity:1.0000; 
stroke:#B2803A; stroke-width:0.0000; stroke-opacity:1; 
stroke-linecap:round; stroke-linejoin:round;fill-rule:evenodd;"
d="M 2.6750,5.5226
0.9750,5.5226
0.9750,3.8226
2.6750,3.8226
Z" /> 
<circle cx="4.3650" cy="4.6726" r="0.8500" /> 
<circle cx="6.9050" cy="4.6726" r="0.8500" /> 
<circle cx="9.4450" cy="4.6726" r="0.8500" /> 
<circle cx="11.9850" cy="4.6726" r="0.8500" /> 
<circle cx="14.5250" cy="4.6726" r="0.8500" /> 
<circle cx="17.0650" cy="4.6726" r="0.8500" /> 
<circle cx="19.6050" cy="4.6726" r="0.8500" /> 
</g>
<g >
</g>
<g >
</g>
<g >
</g>
<g >
</g>
<g >
</g>
<g >
</g>
<g >
</g>
<g >
</g>
<g >
</g>
<g >
</g>
<g >
</g>
<g >
</g>
<g >
</g>
<g style="fill:#121212; fill-opacity:1.0000; 
stroke:#121212; stroke-width:0.0000; stroke-opacity:1; 
stroke-linecap:round; stroke-linejoin:round;">
<circle cx="14.5250" cy="17.6424" r="0.4000" /> 
</g>
<g style="fill:#121212; fill-opacity:1.0000; 
stroke:#121212; stroke-width:0.0212; stroke-opacity:1; 
stroke-linecap:round; stroke-linejoin:round;">
</g>
<g style="fill:#121212; fill-opacity:1.0000; 
stroke:#121212; stroke-width:0.0000; stroke-opacity:1; 
stroke-linecap:round; stroke-linejoin:round;">
<circle cx="15.3494" cy="14.7479" r="0.4000" /> 
</g>
<g style="fill:#121212; fill-opacity:1.0000; 
stroke:#121212; stroke-width:0.0212; stroke-opacity:1; 
stroke-linecap:round; stroke-linejoin:round;">
</g>
<g style="fill:#121212; fill-opacity:1.0000; 
stroke:#121212; stroke-width:0.0000; stroke-opacity:1; 
stroke-linecap:round; stroke-linejoin:round;">
<circle cx="6.1184" cy="8.0323" r="0.4000" /> 
</g>
<g style="fill:#121212; fill-opacity:1.0000; 
stroke:#121212; stroke-width:0.0212; stroke-opacity:1; 
stroke-linecap:round; stroke-linejoin:round;">
</g>
<g style="fill:#121212; fill-opacity:1.0000; 
stroke:#121212; stroke-width:0.0000; stroke-opacity:1; 
stroke-linecap:round; stroke-linejoin:round;">
<circle cx="15.2723" cy="8.8621" r="0.4000" /> 
</g>
<g style="fill:#121212; fill-opacity:1.0000; 
stroke:#121212; stroke-width:0.0212; stroke-opacity:1; 
stroke-linecap:round; stroke-linejoin:round;">
</g>
<g style="fill:#121212; fill-opacity:1.0000; 
stroke:#121212; stroke-width:0.0000; stroke-opacity:1; 
stroke-linecap:round; stroke-linejoin:round;">
<circle cx="13.4305" cy="11.4438" r="0.4000" /> 
</g>
<g style="fill:#121212; fill-opacity:1.0000; 
stroke:#121212; stroke-width:0.0212; stroke-opacity:1; 
stroke-linecap:round; stroke-linejoin:round;">
</g>
<g style="fill:#121212; fill-opacity:1.0000; 
stroke:#121212; stroke-width:0.0000; stroke-opacity:1; 
stroke-linecap:round; stroke-linejoin:round;">
<circle cx="13.1430" cy="16.3091" r="0.4000" /> 
</g>
<g style="fill:#121212; fill-opacity:1.0000; 
stroke:#121212; stroke-width:0.0212; stroke-opacity:1; 
stroke-linecap:round; stroke-linejoin:round;">
</g>
<g style="fill:#121212; fill-opacity:1.0000; 
stroke:#121212; stroke-width:0.0000; stroke-opacity:1; 
stroke-linecap:round; stroke-linejoin:round;">
<circle cx="15.2534" cy="7.1330" r="0.4000" /> 
</g>
<g style="fill:#121212; fill-opacity:1.0000; 
stroke:#121212; stroke-width:0.0212; stroke-opacity:1; 
stroke-linecap:round; stroke-linejoin:round;">
</g>
<g style="fill:#121212; fill-opacity:1.0000; 
stroke:#121212; stroke-width:0.0000; stroke-opacity:1; 
stroke-linecap:round; stroke-linejoin:round;">
<circle cx="10.3850" cy="11.4626" r="0.4000" /> 
</g>
<g style="fill:#121212; fill-opacity:1.0000; 
stroke:#121212; stroke-width:0.0212; stroke-opacity:1; 
stroke-linecap:round; stroke-linejoin:round;">
</g>
<g style="fill:#121212; fill-opacity:1.0000; 
stroke:#121212; stroke-width:0.0000; stroke-opacity:1; 
stroke-linecap:round; stroke-linejoin:round;">
<circle cx="6.2100" cy="9.1876" r="0.4000" /> 
</g>
<g style="fill:#121212; fill-opacity:1.0000; 
stroke:#121212; stroke-width:0.0212; stroke-opacity:1; 
stroke-linecap:round; stroke-linejoin:round;">
</g>
<g style="fill:#121212; fill-opacity:1.0000; 
stroke:#121212; stroke-width:0.0000; stroke-opacity:1; 
stroke-linecap:round; stroke-linejoin:round;">
<circle cx="15.2725" cy="10.5785" r="0.4000" /> 
</g>
<g style="fill:#121212; fill-opacity:1.0000; 
stroke:#121212; stroke-width:0.0212; stroke-opacity:1; 
stroke-linecap:round; stroke-linejoin:round;">
</g>
<g style="fill:#121212; fill-opacity:1.0000; 
stroke:#121212; stroke-width:0.0000; stroke-opacity:1; 
stroke-linecap:round; stroke-linejoin:round;">
<circle cx="6.9050" cy="7.1111" r="0.4000" /> 
</g>
<g style="fill:#121212; fill-opacity:1.0000; 
stroke:#121212; stroke-width:0.0212; stroke-opacity:1; 
stroke-linecap:round; stroke-linejoin:round;">
</g>
<g style="fill:#121212; fill-opacity:1.0000; 
stroke:#121212; stroke-width:0.0000; stroke-opacity:1; 
stroke-linecap:round; stroke-linejoin:round;">
<circle cx="6.3850" cy="10.3498" r="0.4000" /> 
</g>
<g style="fill:#121212; fill-opacity:1.0000; 
stroke:#121212; stroke-width:0.0212; stroke-opacity:1; 
stroke-linecap:round; stroke-linejoin:round;">
</g>
<g style="fill:#121212; fill-opacity:1.0000; 
stroke:#121212; stroke-width:0.0000; stroke-opacity:1; 
stroke-linecap:round; stroke-linejoin:round;">
<circle cx="9.2400" cy="16.3086" r="0.4000" /> 
</g>
<g style="fill:#121212; fill-opacity:1.0000; 
stroke:#121212; stroke-width:0.0212; stroke-opacity:1; 
stroke-linecap:round; stroke-linejoin:round;">
</g>
<g style="fill:#121212; fill-opacity:1.0000; 
stroke:#121212; stroke-width:0.0000; stroke-opacity:1; 
stroke-linecap:round; stroke-linejoin:round;">
<circle cx="3.9284" cy="11.9626" r="0.4000" /> 
</g>
<g style="fill:#121212; fill-opacity:1.0000; 
stroke:#121212; stroke-width:0.0212; stroke-opacity:1; 
stroke-linecap:round; stroke-linejoin:round;">
</g>
<g >
</g>
<g style="fill:#B2803A; fill-opacity:1.0000; 
stroke:#B2803A; stroke-width:0.0212; stroke-opacity:1; 
stroke-linecap:round; stroke-linejoin:round;">
</g>
<g style="fill:#B2803A; fill-opacity:1.0000; 
stroke:#B2803A; stroke-width:0.2500; stroke-opacity:1; 
stroke-linecap:round; stroke-linejoin:round;">
</g>
<g style="fill:#B2803A; fill-opacity:0.0; 
stroke:#B2803A; stroke-width:0.2500; stroke-opacity:1; 
stroke-linecap:round; stroke-linejoin:round;">
<path d="M14.5250 19.9126
L14.5250 17.6424
" />
<path d="M14.2811 9.8533
L10.2757 5.8479
" />
<path d="M9.4450 5.8479
L7.2606 8.0323
" />
<path d="M9.4450 4.6726
L9.4450 5.8479
" />
<path d="M10.2757 5.8479
L9.4450 5.8479
" />
<path d="M14.2811 13.6796
L14.2811 9.8533
" />
<path d="M15.3494 14.7479
L14.2811 13.6796
" />
<path d="M14.2811 9.8533
L15.2723 8.8621
" />
<path d="M7.2606 8.0323
L6.1184 8.0323
" />
<path d="M13.9145 15.9396
L13.4305 15.4556
" />
<path d="M11.9850 18.7373
L13.9145 16.8078
" />
<path d="M11.9850 19.9126
L11.9850 18.7373
" />
<path d="M13.4305 15.4556
L13.4305 11.4438
" />
<path d="M13.9145 16.8078
L13.9145 15.9396
" />
<path d="M10.6203 19.9126
L10.6203 18.8318
" />
<path d="M9.4450 19.9126
L10.6203 19.9126
" />
<path d="M10.6203 18.8318
L13.1430 16.3091
" />
<path d="M10.3850 15.3626
L10.9100 15.8876
" />
<path d="M11.9850 4.6726
L13.1603 4.6726
" />
<path d="M10.3850 11.4626
L10.3850 15.3626
" />
<path d="M10.9100 15.8876
L10.9100 16.7626
" />
<path d="M13.1603 5.0399
L15.2534 7.1330
" />
<path d="M13.1603 4.6726
L13.1603 5.0399
" />
<path d="M15.2725 10.5785
L17.0650 8.7860
" />
<path d="M17.0650 8.7860
L17.0650 5.8479
" />
<path d="M17.0650 4.6726
L17.0650 5.8479
" />
<path d="M6.9050 4.6726
L6.9050 7.1111
" />
<path d="M4.3650 8.6438
L4.3650 8.0781
" />
<path d="M4.3650 8.0781
L4.3650 4.6726
" />
<path d="M6.0710 10.3498
L4.3650 8.6438
" />
<path d="M6.3850 10.3498
L6.0710 10.3498
" />
<path d="M5.5182 11.9626
L9.2400 15.6844
" />
<path d="M9.2400 15.6844
L9.2400 16.3086
" />
<path d="M3.9284 11.9626
L5.5182 11.9626
" />
</g>
<g >
</g>
<g style="fill:#B2803A; fill-opacity:0.0; 
stroke:#B2803A; stroke-width:0.2500; stroke-opacity:1; 
stroke-linecap:round; stroke-linejoin:round;">
<g >
</g>
<g style="fill:#B2803A; fill-opacity:1.0000; 
stroke:#B2803A; stroke-width:0.0000; stroke-opacity:1; 
stroke-linecap:round; stroke-linejoin:round;">
<path style="fill:#B2803A; fill-opacity:1.0000; 
stroke:#B2803A; stroke-width:0.0000; stroke-opacity:1; 
stroke-linecap:round; stroke-linejoin:round;fill-rule:evenodd;"
d="M 3.3484,5.5840
3.3808,5.6093
3.4188,5.6506
3.4418,5.6755
3.4474,5.6799
3.6194,5.8138
3.6655,5.8387
3.7159,5.8887
3.7315,5.9495
3.7315,8.5600
3.7298,8.5758
3.7300,8.5758
3.7293,8.5837
3.7293,8.5837
3.7298,8.5993
3.7315,8.6538
3.7315,8.6837
3.7315,8.6837
3.7324,8.6906
3.7328,8.6965
3.7343,8.7437
3.7343,8.7437
3.7400,8.7631
3.7440,8.7825
3.7465,8.8026
3.7465,8.8026
3.7639,8.8465
3.7658,8.8521
3.7790,8.8974
3.7893,8.9148
3.7980,8.9326
3.8054,8.9514
3.8054,8.9514
3.8332,8.9896
3.8364,8.9946
3.8605,9.0352
3.8748,9.0495
3.8876,9.0645
3.8972,9.0776
3.8995,9.0809
3.9278,9.1043
3.9359,9.1110
3.9403,9.1150
4.8035,9.9783
5.5439,10.7187
5.5640,10.7447
5.6460,10.8868
5.6460,10.8868
5.7737,11.0287
5.7737,11.0287
5.9282,11.1409
6.1027,11.2186
6.2895,11.2583
6.4805,11.2583
6.6673,11.2186
6.8418,11.1409
6.9963,11.0287
7.0670,10.9501
7.1240,10.8868
7.1240,10.8868
7.1240,10.8868
7.2195,10.7214
7.2785,10.5397
7.2985,10.3498
7.2785,10.1599
7.2195,9.9783
7.1240,9.8129
7.1240,9.8129
7.1240,9.8129
6.9963,9.6710
6.8418,9.5587
6.6673,9.4810
6.4805,9.4413
6.2895,9.4413
6.2895,9.4413
6.1658,9.4676
6.0951,9.4622
6.0506,9.4335
5.7332,9.1161
5.6992,9.0538
5.7042,8.9830
5.7468,8.9261
5.8133,8.9013
5.8485,8.9037
6.0229,8.9408
6.0229,8.9408
6.2139,8.9408
6.4007,8.9011
6.5752,8.8234
6.7297,8.7112
6.7330,8.7075
6.7934,8.6703
6.8266,8.6658
7.1767,8.6658
7.1926,8.6676
7.1926,8.6673
7.2005,8.6680
7.2005,8.6680
7.2706,8.6658
7.3005,8.6658
7.3074,8.6649
7.3133,8.6645
7.3605,8.6630
7.3799,8.6573
7.3993,8.6533
7.4194,8.6508
7.4633,8.6334
7.4689,8.6315
7.4974,8.6232
7.5142,8.6183
7.5142,8.6183
7.5316,8.6080
7.5494,8.5993
7.5682,8.5919
7.6064,8.5641
7.6113,8.5609
7.6520,8.5369
7.6663,8.5225
7.6813,8.5097
7.6977,8.4978
7.7278,8.4614
7.7318,8.4571
9.6705,6.5183
9.7328,6.4843
9.7596,6.4814
9.9611,6.4814
10.0292,6.5014
10.0502,6.5183
13.6107,10.0788
13.6447,10.1411
13.6476,10.1679
13.6476,10.4093
13.6276,10.4774
13.5739,10.5239
13.5216,10.5353
13.3350,10.5353
13.1482,10.5750
12.9737,10.6527
12.8192,10.7650
12.6915,10.9069
12.6915,10.9069
12.5960,11.0723
12.5960,11.0723
12.5370,11.2539
12.5170,11.4438
12.5370,11.6337
12.5670,11.7263
12.5960,11.8154
12.5960,11.8154
12.6810,11.9626
12.6915,11.9808
12.7646,12.0620
12.7954,12.1260
12.7970,12.1463
12.7970,15.3718
12.7952,15.3876
12.7955,15.3876
12.7944,15.3996
12.7932,15.4026
12.7931,15.4033
12.7930,15.4032
12.7681,15.4656
12.7202,15.5029
12.6862,15.5180
12.5317,15.6303
12.4040,15.7722
12.4040,15.7722
12.3085,15.9376
12.3085,15.9376
12.2495,16.1192
12.2321,16.2844
12.2051,16.3501
12.1959,16.3603
10.2316,18.3246
10.2192,18.3345
10.2194,18.3348
10.2133,18.3398
10.1653,18.3909
10.1442,18.4120
10.1399,18.4176
10.1360,18.4221
10.1037,18.4565
10.1037,18.4565
10.0940,18.4743
10.0831,18.4908
10.0707,18.5068
10.0519,18.5501
10.0493,18.5554
10.0410,18.5705
9.9907,18.6205
9.9213,18.6354
9.8897,18.6290
9.7796,18.5912
9.7796,18.5912
9.7355,18.5838
9.5576,18.5541
9.3324,18.5541
9.1842,18.5789
9.1104,18.5912
9.1104,18.5912
8.8974,18.6643
8.8974,18.6643
8.7244,18.7579
8.6994,18.7714
8.6994,18.7714
8.5218,18.9097
8.3693,19.0753
8.3693,19.0754
8.2805,19.2113
8.2265,19.2574
8.1561,19.2669
8.0918,19.2369
8.0695,19.2113
7.9807,19.0754
7.9807,19.0753
7.8282,18.9097
7.7464,18.8460
7.6506,18.7714
7.4526,18.6643
7.4526,18.6643
7.4526,18.6643
7.2396,18.5912
7.2396,18.5912
7.1955,18.5838
7.0176,18.5541
6.7924,18.5541
6.6442,18.5789
6.5704,18.5912
6.5704,18.5912
6.3574,18.6643
6.3574,18.6643
6.1844,18.7579
6.1594,18.7714
6.1594,18.7714
5.9818,18.9097
5.8293,19.0753
5.7405,19.2113
5.6865,19.2574
5.6161,19.2669
5.5518,19.2369
5.5295,19.2113
5.4407,19.0753
5.2882,18.9097
5.2064,18.8460
5.1106,18.7714
4.9126,18.6643
4.9126,18.6643
4.9126,18.6643
4.6996,18.5912
4.6996,18.5912
4.6555,18.5838
4.4776,18.5541
4.2524,18.5541
4.1042,18.5789
4.0304,18.5912
4.0304,18.5912
3.8174,18.6643
3.8174,18.6643
3.6444,18.7579
3.6194,18.7714
3.6194,18.7714
3.4418,18.9097
3.3808,18.9760
3.3199,19.0126
3.2489,19.0104
3.1904,18.9703
3.1700,18.9347
3.1259,18.8164
3.1259,18.8164
3.0383,18.6994
2.9212,18.6117
2.9212,18.6117
2.7842,18.5606
2.7842,18.5606
2.7236,18.5541
2.7236,18.5541
1.0615,18.5541
0.9934,18.5341
0.9469,18.4805
0.9355,18.4281
0.9355,11.9626
3.0149,11.9626
3.0349,12.1525
3.0649,12.2451
3.0939,12.3342
3.0939,12.3342
3.1894,12.4996
3.1894,12.4996
3.3171,12.6415
3.3171,12.6415
3.4716,12.7537
3.6461,12.8314
3.8329,12.8711
4.0239,12.8711
4.2107,12.8314
4.3852,12.7537
4.5397,12.6415
4.5430,12.6378
4.6034,12.6006
4.6366,12.5961
5.2036,12.5961
5.2717,12.6161
5.2927,12.6330
8.4071,15.7474
8.4411,15.8098
8.4361,15.8806
8.4271,15.8995
8.4270,15.8998
8.4055,15.9371
8.3851,15.9997
8.3465,16.1187
8.3265,16.3086
8.3465,16.4985
8.3765,16.5911
8.4055,16.6802
8.4055,16.6802
8.5010,16.8456
8.5010,16.8456
8.6287,16.9875
8.6287,16.9875
8.7832,17.0997
8.9577,17.1774
9.1445,17.2171
9.3355,17.2171
9.5223,17.1774
9.6968,17.0997
9.8513,16.9875
9.8728,16.9636
9.9790,16.8456
9.9790,16.8456
9.9790,16.8456
10.0745,16.6802
10.1335,16.4985
10.1535,16.3086
10.1335,16.1187
10.0745,15.9371
10.0045,15.8158
9.9790,15.7717
9.9790,15.7717
9.9790,15.7717
9.9037,15.6880
9.8730,15.6240
9.8714,15.6076
9.8710,15.5938
9.8707,15.5845
9.8650,15.5651
9.8610,15.5457
9.8595,15.5339
9.8585,15.5256
9.8411,15.4817
9.8392,15.4761
9.8260,15.4308
9.8157,15.4134
9.8070,15.3956
9.7996,15.3768
9.7718,15.3386
9.7686,15.3337
9.7445,15.2931
9.7302,15.2787
9.7174,15.2637
9.7055,15.2473
9.7055,15.2473
9.7055,15.2473
9.6691,15.2172
9.6647,15.2132
6.0254,11.5740
6.0155,11.5615
6.0153,11.5617
6.0102,11.5556
6.0102,11.5556
5.9591,11.5076
5.9380,11.4865
5.9380,11.4865
5.9324,11.4822
5.9279,11.4783
5.8935,11.4460
5.8935,11.4460
5.8758,11.4363
5.8592,11.4254
5.8432,11.4130
5.8125,11.3997
5.7999,11.3943
5.7946,11.3917
5.7533,11.3689
5.7336,11.3639
5.7149,11.3575
5.6963,11.3494
5.6963,11.3494
5.6963,11.3494
5.6497,11.3421
5.6439,11.3409
5.5982,11.3291
5.5780,11.3291
5.5583,11.3276
5.5383,11.3244
5.5383,11.3244
5.4913,11.3288
5.4853,11.3291
4.6366,11.3291
4.5685,11.3091
4.5430,11.2874
4.5397,11.2838
4.3852,11.1715
4.2107,11.0938
4.0239,11.0541
3.8329,11.0541
3.6461,11.0938
3.4716,11.1715
3.3171,11.2838
3.1894,11.4257
3.1894,11.4257
3.0939,11.5911
3.0939,11.5911
3.0349,11.7727
3.0149,11.9626
0.9355,11.9626
0.9355,6.1571
0.9555,6.0890
1.0092,6.0425
1.0615,6.0311
2.7236,6.0311
2.7236,6.0311
2.7236,6.0311
2.7236,6.0311
2.7842,6.0246
2.7842,6.0246
2.7842,6.0246
2.9212,5.9735
2.9532,5.9495
3.0383,5.8859
3.1259,5.7688
3.1259,5.7688
3.1259,5.7688
3.1700,5.6506
3.2125,5.5937
3.2791,5.5689
Z" /> 
<path style="fill:#B2803A; fill-opacity:1.0000; 
stroke:#B2803A; stroke-width:0.0000; stroke-opacity:1; 
stroke-linecap:round; stroke-linejoin:round;fill-rule:evenodd;"
d="M 12.2390,6.0070
12.3195,5.9936
12.3195,5.9936
12.5324,5.9205
12.5324,5.9205
12.7303,5.8134
12.7303,5.8134
12.9079,5.6752
13.0603,5.5096
13.1492,5.3735
13.2032,5.3274
13.2736,5.3179
13.3379,5.3478
13.3602,5.3735
13.4493,5.5099
13.6018,5.6755
13.6074,5.6799
13.7794,5.8138
13.9774,5.9210
13.9774,5.9210
13.9774,5.9210
14.0607,5.9495
14.1904,5.9941
14.4124,6.0311
14.4124,6.0311
14.6376,6.0311
14.6376,6.0311
14.8596,5.9941
15.0726,5.9210
15.2706,5.8138
15.4482,5.6755
15.6007,5.5099
15.6009,5.5096
15.6402,5.4494
15.6895,5.3740
15.7435,5.3279
15.8139,5.3183
15.8782,5.3483
15.9005,5.3740
15.9129,5.3929
15.9893,5.5099
15.9893,5.5099
16.1418,5.6755
16.1474,5.6799
16.3194,5.8138
16.3655,5.8387
16.4159,5.8887
16.4315,5.9495
16.4315,8.4714
16.4115,8.5395
16.3946,8.5605
16.3632,8.5919
16.3399,8.6152
16.2776,8.6492
16.2068,8.6441
16.1500,8.6016
16.1310,8.5650
16.1307,8.5641
16.1068,8.4906
16.0113,8.3252
16.0113,8.3252
16.0113,8.3252
15.8836,8.1833
15.7291,8.0710
15.5546,7.9933
15.3678,7.9536
15.1768,7.9536
14.9900,7.9933
14.8155,8.0710
14.6610,8.1833
14.5333,8.3252
14.5333,8.3252
14.4378,8.4906
14.4378,8.4906
14.4316,8.5097
14.3788,8.6722
14.3700,8.7559
14.3429,8.8216
14.2847,8.8622
14.2138,8.8649
14.1555,8.8319
11.5278,6.2042
11.4938,6.1418
11.4989,6.0710
11.5414,6.0142
11.6079,5.9894
11.6479,5.9929
11.6505,5.9936
11.7310,6.0070
11.7310,5.1063
11.8427,5.1573
11.9492,5.1726
12.0208,5.1726
12.1273,5.1573
12.2390,5.1063
Z" /> 
</g>
</g>
</g>
<g style="fill:#000000; fill-opacity:1.0000; 
stroke:#000000; stroke-width:0.0000; stroke-opacity:1; 
stroke-linecap:round; stroke-linejoin:round;">
<circle cx="14.5250" cy="17.6424" r="0.2000" /> 
</g>
<g style="fill:#000000; fill-opacity:1.0000; 
stroke:#000000; stroke-width:0.0212; stroke-opacity:1; 
stroke-linecap:round; stroke-linejoin:round;">
</g>
<g style="fill:#000000; fill-opacity:1.0000; 
stroke:#000000; stroke-width:0.0000; stroke-opacity:1; 
stroke-linecap:round; stroke-linejoin:round;">
<circle cx="15.3494" cy="14.7479" r="0.2000" /> 
</g>
<g style="fill:#000000; fill-opacity:1.0000; 
stroke:#000000; stroke-width:0.0212; stroke-opacity:1; 
stroke-linecap:round; stroke-linejoin:round;">
</g>
<g style="fill:#000000; fill-opacity:1.0000; 
stroke:#000000; stroke-width:0.0000; stroke-opacity:1; 
stroke-linecap:round; stroke-linejoin:round;">
<circle cx="6.1184" cy="8.0323" r="0.2000" /> 
</g>
<g style="fill:#000000; fill-opacity:1.0000; 
stroke:#000000; stroke-width:0.0212; stroke-opacity:1; 
stroke-linecap:round; stroke-linejoin:round;">
</g>
<g style="fill:#000000; fill-opacity:1.0000; 
stroke:#000000; stroke-width:0.0000; stroke-opacity:1; 
stroke-linecap:round; stroke-linejoin:round;">
<circle cx="15.2723" cy="8.8621" r="0.2000" /> 
</g>
<g style="fill:#000000; fill-opacity:1.0000; 
stroke:#000000; stroke-width:0.0212; stroke-opacity:1; 
stroke-linecap:round; stroke-linejoin:round;">
</g>
<g style="fill:#000000; fill-opacity:1.0000; 
stroke:#000000; stroke-width:0.0000; stroke-opacity:1; 
stroke-linecap:round; stroke-linejoin:round;">
<circle cx="13.4305" cy="11.4438" r="0.2000" /> 
</g>
<g style="fill:#000000; fill-opacity:1.0000; 
stroke:#000000; stroke-width:0.0212; stroke-opacity:1; 
stroke-linecap:round; stroke-linejoin:round;">
</g>
<g style="fill:#000000; fill-opacity:1.0000; 
stroke:#000000; stroke-width:0.0000; stroke-opacity:1; 
stroke-linecap:round; stroke-linejoin:round;">
<circle cx="13.1430" cy="16.3091" r="0.2000" /> 
</g>
<g style="fill:#000000; fill-opacity:1.0000; 
stroke:#000000; stroke-width:0.0212; stroke-opacity:1; 
stroke-linecap:round; stroke-linejoin:round;">
</g>
<g style="fill:#000000; fill-opacity:1.0000; 
stroke:#000000; stroke-width:0.0000; stroke-opacity:1; 
stroke-linecap:round; stroke-linejoin:round;">
<circle cx="15.2534" cy="7.1330" r="0.2000" /> 
</g>
<g style="fill:#000000; fill-opacity:1.0000; 
stroke:#000000; stroke-width:0.0212; stroke-opacity:1; 
stroke-linecap:round; stroke-linejoin:round;">
</g>
<g style="fill:#000000; fill-opacity:1.0000; 
stroke:#000000; stroke-width:0.0000; stroke-opacity:1; 
stroke-linecap:round; stroke-linejoin:round;">
<circle cx="10.3850" cy="11.4626" r="0.2000" /> 
</g>
<g style="fill:#000000; fill-opacity:1.0000; 
stroke:#000000; stroke-width:0.0212; stroke-opacity:1; 
stroke-linecap:round; stroke-linejoin:round;">
</g>
<g style="fill:#000000; fill-opacity:1.0000; 
stroke:#000000; stroke-width:0.0000; stroke-opacity:1; 
stroke-linecap:round; stroke-linejoin:round;">
<circle cx="6.2100" cy="9.1876" r="0.2000" /> 
</g>
<g style="fill:#000000; fill-opacity:1.0000; 
stroke:#000000; stroke-width:0.0212; stroke-opacity:1; 
stroke-linecap:round; stroke-linejoin:round;">
</g>
<g style="fill:#000000; fill-opacity:1.0000; 
stroke:#000000; stroke-width:0.0000; stroke-opacity:1; 
stroke-linecap:round; stroke-linejoin:round;">
<circle cx="15.2725" cy="10.5785" r="0.2000" /> 
</g>
<g style="fill:#000000; fill-opacity:1.0000; 
stroke:#000000; stroke-width:0.0212; stroke-opacity:1; 
stroke-linecap:round; stroke-linejoin:round;">
</g>
<g style="fill:#000000; fill-opacity:1.0000; 
stroke:#000000; stroke-width:0.0000; stroke-opacity:1; 
stroke-linecap:round; stroke-linejoin:round;">
<circle cx="6.9050" cy="7.1111" r="0.2000" /> 
</g>
<g style="fill:#000000; fill-opacity:1.0000; 
stroke:#000000; stroke-width:0.0212; stroke-opacity:1; 
stroke-linecap:round; stroke-linejoin:round;">
</g>
<g style="fill:#000000; fill-opacity:1.0000; 
stroke:#000000; stroke-width:0.0000; stroke-opacity:1; 
stroke-linecap:round; stroke-linejoin:round;">
<circle cx="6.3850" cy="10.3498" r="0.2000" /> 
</g>
<g style="fill:#000000; fill-opacity:1.0000; 
stroke:#000000; stroke-width:0.0212; stroke-opacity:1; 
stroke-linecap:round; stroke-linejoin:round;">
</g>
<g style="fill:#000000; fill-opacity:1.0000; 
stroke:#000000; stroke-width:0.0000; stroke-opacity:1; 
stroke-linecap:round; stroke-linejoin:round;">
<circle cx="9.2400" cy="16.3086" r="0.2000" /> 
</g>
<g style="fill:#000000; fill-opacity:1.0000; 
stroke:#000000; stroke-width:0.0212; stroke-opacity:1; 
stroke-linecap:round; stroke-linejoin:round;">
</g>
<g style="fill:#000000; fill-opacity:1.0000; 
stroke:#000000; stroke-width:0.0000; stroke-opacity:1; 
stroke-linecap:round; stroke-linejoin:round;">
<circle cx="3.9284" cy="11.9626" r="0.2000" /> 
</g>
<g style="fill:#000000; fill-opacity:1.0000; 
stroke:#000000; stroke-width:0.0212; stroke-opacity:1; 
stroke-linecap:round; stroke-linejoin:round;">
</g>
<g style="fill:#000000; fill-opacity:1.0000; 
stroke:#000000; stroke-width:0.0000; stroke-opacity:1; 
stroke-linecap:round; stroke-linejoin:round;">
<circle cx="1.8250" cy="19.9126" r="0.5000" /> 
</g>
<g style="fill:#000000; fill-opacity:1.0000; 
stroke:#000000; stroke-width:0.0212; stroke-opacity:1; 
stroke-linecap:round; stroke-linejoin:round;">
</g>
<g style="fill:#000000; fill-opacity:1.0000; 
stroke:#000000; stroke-width:0.0000; stroke-opacity:1; 
stroke-linecap:round; stroke-linejoin:round;">
<circle cx="4.3650" cy="19.9126" r="0.5000" /> 
</g>
<g style="fill:#000000; fill-opacity:1.0000; 
stroke:#000000; stroke-width:0.0212; stroke-opacity:1; 
stroke-linecap:round; stroke-linejoin:round;">
</g>
<g style="fill:#000000; fill-opacity:1.0000; 
stroke:#000000; stroke-width:0.0000; stroke-opacity:1; 
stroke-linecap:round; stroke-linejoin:round;">
<circle cx="6.9050" cy="19.9126" r="0.5000" /> 
</g>
<g style="fill:#000000; fill-opacity:1.0000; 
stroke:#000000; stroke-width:0.0212; stroke-opacity:1; 
stroke-linecap:round; stroke-linejoin:round;">
</g>
<g style="fill:#000000; fill-opacity:1.0000; 
stroke:#000000; stroke-width:0.0000; stroke-opacity:1; 
stroke-linecap:round; stroke-linejoin:round;">
<circle cx="9.4450" cy="19.9126" r="0.5000" /> 
</g>
<g style="fill:#000000; fill-opacity:1.0000; 
stroke:#000000; stroke-width:0.0212; stroke-opacity:1; 
stroke-linecap:round; stroke-linejoin:round;">
</g>
<g style="fill:#000000; fill-opacity:1.0000; 
stroke:#000000; stroke-width:0.0000; stroke-opacity:1; 
stroke-linecap:round; stroke-linejoin:round;">
<circle cx="11.9850" cy="19.9126" r="0.5000" /> 
</g>
<g style="fill:#000000; fill-opacity:1.0000; 
stroke:#000000; stroke-width:0.0212; stroke-opacity:1; 
stroke-linecap:round; stroke-linejoin:round;">
</g>
<g style="fill:#000000; fill-opacity:1.0000; 
stroke:#000000; stroke-width:0.0000; stroke-opacity:1; 
stroke-linecap:round; stroke-linejoin:round;">
<circle cx="14.5250" cy="19.9126" r="0.5000" /> 
</g>
<g style="fill:#000000; fill-opacity:1.0000; 
stroke:#000000; stroke-width:0.0212; stroke-opacity:1; 
stroke-linecap:round; stroke-linejoin:round;">
</g>
<g style="fill:#000000; fill-opacity:1.0000; 
stroke:#000000; stroke-width:0.0000; stroke-opacity:1; 
stroke-linecap:round; stroke-linejoin:round;">
<circle cx="17.0650" cy="19.9126" r="0.5000" /> 
</g>
<g style="fill:#000000; fill-opacity:1.0000; 
stroke:#000000; stroke-width:0.0212; stroke-opacity:1; 
stroke-linecap:round; stroke-linejoin:round;">
</g>
<g style="fill:#000000; fill-opacity:1.0000; 
stroke:#000000; stroke-width:0.0000; stroke-opacity:1; 
stroke-linecap:round; stroke-linejoin:round;">
<circle cx="19.6050" cy="19.9126" r="0.5000" /> 
</g>
<g style="fill:#000000; fill-opacity:1.0000; 
stroke:#000000; stroke-width:0.0212; stroke-opacity:1; 
stroke-linecap:round; stroke-linejoin:round;">
</g>
<g style="fill:#000000; fill-opacity:1.0000; 
stroke:#000000; stroke-width:0.0000; stroke-opacity:1; 
stroke-linecap:round; stroke-linejoin:round;">
<circle cx="1.8250" cy="4.6726" r="0.5000" /> 
</g>
<g style="fill:#000000; fill-opacity:1.0000; 
stroke:#000000; stroke-width:0.0212; stroke-opacity:1; 
stroke-linecap:round; stroke-linejoin:round;">
</g>
<g style="fill:#000000; fill-opacity:1.0000; 
stroke:#000000; stroke-width:0.0000; stroke-opacity:1; 
stroke-linecap:round; stroke-linejoin:round;">
<circle cx="4.3650" cy="4.6726" r="0.5000" /> 
</g>
<g style="fill:#000000; fill-opacity:1.0000; 
stroke:#000000; stroke-width:0.0212; stroke-opacity:1; 
stroke-linecap:round; stroke-linejoin:round;">
</g>
<g style="fill:#000000; fill-opacity:1.0000; 
stroke:#000000; stroke-width:0.0000; stroke-opacity:1; 
stroke-linecap:round; stroke-linejoin:round;">
<circle cx="6.9050" cy="4.6726" r="0.5000" /> 
</g>
<g style="fill:#000000; fill-opacity:1.0000; 
stroke:#000000; stroke-width:0.0212; stroke-opacity:1; 
stroke-linecap:round; stroke-linejoin:round;">
</g>
<g style="fill:#000000; fill-opacity:1.0000; 
stroke:#000000; stroke-width:0.0000; stroke-opacity:1; 
stroke-linecap:round; stroke-linejoin:round;">
<circle cx="9.4450" cy="4.6726" r="0.5000" /> 
</g>
<g style="fill:#000000; fill-opacity:1.0000; 
stroke:#000000; stroke-width:0.0212; stroke-opacity:1; 
stroke-linecap:round; stroke-linejoin:round;">
</g>
<g style="fill:#000000; fill-opacity:1.0000; 
stroke:#000000; stroke-width:0.0000; stroke-opacity:1; 
stroke-linecap:round; stroke-linejoin:round;">
<circle cx="11.9850" cy="4.6726" r="0.5000" /> 
</g>
<g style="fill:#000000; fill-opacity:1.0000; 
stroke:#000000; stroke-width:0.0212; stroke-opacity:1; 
stroke-linecap:round; stroke-linejoin:round;">
</g>
<g style="fill:#000000; fill-opacity:1.0000; 
stroke:#000000; stroke-width:0.0000; stroke-opacity:1; 
stroke-linecap:round; stroke-linejoin:round;">
<circle cx="14.5250" cy="4.6726" r="0.5000" /> 
</g>
<g style="fill:#000000; fill-opacity:1.0000; 
stroke:#000000; stroke-width:0.0212; stroke-opacity:1; 
stroke-linecap:round; stroke-linejoin:round;">
</g>
<g style="fill:#000000; fill-opacity:1.0000; 
stroke:#000000; stroke-width:0.0000; stroke-opacity:1; 
stroke-linecap:round; stroke-linejoin:round;">
<circle cx="17.0650" cy="4.6726" r="0.5000" /> 
</g>
<g style="fill:#000000; fill-opacity:1.0000; 
stroke:#000000; stroke-width:0.0212; stroke-opacity:1; 
stroke-linecap:round; stroke-linejoin:round;">
</g>
<g style="fill:#000000; fill-opacity:1.0000; 
stroke:#000000; stroke-width:0.0000; stroke-opacity:1; 
stroke-linecap:round; stroke-linejoin:round;">
<circle cx="19.6050" cy="4.6726" r="0.5000" /> 
</g>
<g style="fill:#000000; fill-opacity:1.0000; 
stroke:#000000; stroke-width:0.0212; stroke-opacity:1; 
stroke-linecap:round; stroke-linejoin:round;">
</g>
<g style="fill:#FFFFFF; fill-opacity:1.0000; 
stroke:#FFFFFF; stroke-width:0.0212; stroke-opacity:1; 
stroke-linecap:round; stroke-linejoin:round;">
<g >
</g>
<g style="fill:#37CBCB; fill-opacity:1.0000; 
stroke:#37CBCB; stroke-width:0.0212; stroke-opacity:1; 
stroke-linecap:round; stroke-linejoin:round;">
</g>
<g style="fill:#37CBCB; fill-opacity:1.0000; 
stroke:#37CBCB; stroke-width:0.0000; stroke-opacity:1; 
stroke-linecap:round; stroke-linejoin:round;">
<path style="fill:#37CBCB; fill-opacity:1.0000; 
stroke:#37CBCB; stroke-width:0.0000; stroke-opacity:1; 
stroke-linecap:round; stroke-linejoin:round;fill-rule:evenodd;"
d="M 2.6750,20.7626
0.9750,20.7626
0.9750,19.0626
2.6750,19.0626
Z" /> 
<circle cx="4.3650" cy="19.9126" r="0.8500" /> 
<circle cx="6.9050" cy="19.9126" r="0.8500" /> 
<circle cx="9.4450" cy="19.9126" r="0.8500" /> 
<circle cx="11.9850" cy="19.9126" r="0.8500" /> 
<circle cx="14.5250" cy="19.9126" r="0.8500" /> 
<circle cx="17.0650" cy="19.9126" r="0.8500" /> 
<circle cx="19.6050" cy="19.9126" r="0.8500" /> 
</g>
<g >
</g>
<g style="fill:#37CBCB; fill-opacity:1.0000; 
stroke:#37CBCB; stroke-width:0.0000; stroke-opacity:1; 
stroke-linecap:round; stroke-linejoin:round;">
<path style="fill:#37CBCB; fill-opacity:1.0000; 
stroke:#37CBCB; stroke-width:0.0000; stroke-opacity:1; 
stroke-linecap:round; stroke-linejoin:round;fill-rule:evenodd;"
d="M 2.6750,5.5226
0.9750,5.5226
0.9750,3.8226
2.6750,3.8226
Z" /> 
<circle cx="4.3650" cy="4.6726" r="0.8500" /> 
<circle cx="6.9050" cy="4.6726" r="0.8500" /> 
<circle cx="9.4450" cy="4.6726" r="0.8500" /> 
<circle cx="11.9850" cy="4.6726" r="0.8500" /> 
<circle cx="14.5250" cy="4.6726" r="0.8500" /> 
<circle cx="17.0650" cy="4.6726" r="0.8500" /> 
<circle cx="19.6050" cy="4.6726" r="0.8500" /> 
</g>
<g >
</g>
<g style="fill:#37CBCB; fill-opacity:1.0000; 
stroke:#37CBCB; stroke-width:0.0000; stroke-opacity:1; 
stroke-linecap:round; stroke-linejoin:round;">
<path style="fill:#37CBCB; fill-opacity:1.0000; 
stroke:#37CBCB; stroke-width:0.0000; stroke-opacity:1; 
stroke-linecap:round; stroke-linejoin:round;fill-rule:evenodd;"
d="M 1.5050,10.0876
1.5050,9.6876
2.1050,9.6876
2.1050,10.0876
2.5550,10.0876
2.5550,10.5876
2.5499,10.5876
2.5499,10.6588
2.5098,10.7953
2.4329,10.9150
2.3253,11.0082
2.1959,11.0674
2.0550,11.0876
1.5550,11.0876
1.4141,11.0674
1.2847,11.0082
1.1771,10.9150
1.1002,10.7953
1.0601,10.6588
1.0601,10.5876
1.0550,10.5876
1.0550,10.0876
Z" /> 
<path style="fill:#37CBCB; fill-opacity:1.0000; 
stroke:#37CBCB; stroke-width:0.0000; stroke-opacity:1; 
stroke-linecap:round; stroke-linejoin:round;fill-rule:evenodd;"
d="M 1.0601,9.2876
1.0601,9.2165
1.1002,9.0799
1.1771,8.9602
1.2847,8.8670
1.4141,8.8079
1.5550,8.7876
2.0550,8.7876
2.1959,8.8079
2.3253,8.8670
2.4329,8.9602
2.5098,9.0799
2.5499,9.2165
2.5499,9.2876
2.5550,9.2876
2.5550,9.7876
1.0550,9.7876
1.0550,9.2876
Z" /> 
</g>
<g >
</g>
<g style="fill:#37CBCB; fill-opacity:1.0000; 
stroke:#37CBCB; stroke-width:0.0000; stroke-opacity:1; 
stroke-linecap:round; stroke-linejoin:round;">
<path style="fill:#37CBCB; fill-opacity:1.0000; 
stroke:#37CBCB; stroke-width:0.0000; stroke-opacity:1; 
stroke-linecap:round; stroke-linejoin:round;fill-rule:evenodd;"
d="M 1.0350,13.8376
1.0350,13.3376
1.0401,13.3376
1.0401,13.2665
1.0802,13.1299
1.1571,13.0102
1.2647,12.9170
1.3941,12.8579
1.5350,12.8376
2.0350,12.8376
2.1759,12.8579
2.3053,12.9170
2.4129,13.0102
2.4898,13.1299
2.5299,13.2665
2.5299,13.3376
2.5350,13.3376
2.5350,13.8376
Z" /> 
<path style="fill:#37CBCB; fill-opacity:1.0000; 
stroke:#37CBCB; stroke-width:0.0000; stroke-opacity:1; 
stroke-linecap:round; stroke-linejoin:round;fill-rule:evenodd;"
d="M 2.5299,14.6376
2.5299,14.7088
2.4898,14.8453
2.4129,14.9650
2.3053,15.0582
2.1759,15.1174
2.0350,15.1376
1.5350,15.1376
1.3941,15.1174
1.2647,15.0582
1.1571,14.9650
1.0802,14.8453
1.0401,14.7088
1.0401,14.6376
1.0350,14.6376
1.0350,14.1376
2.5350,14.1376
2.5350,14.6376
Z" /> 
</g>
<g >
</g>
<g style="fill:#37CBCB; fill-opacity:1.0000; 
stroke:#37CBCB; stroke-width:0.0000; stroke-opacity:1; 
stroke-linecap:round; stroke-linejoin:round;">
<path style="fill:#37CBCB; fill-opacity:1.0000; 
stroke:#37CBCB; stroke-width:0.0000; stroke-opacity:1; 
stroke-linecap:round; stroke-linejoin:round;fill-rule:evenodd;"
d="M 3.8850,10.0876
3.8850,9.6876
4.4850,9.6876
4.4850,10.0876
4.9350,10.0876
4.9350,10.5876
4.9299,10.5876
4.9299,10.6588
4.8898,10.7953
4.8129,10.9150
4.7053,11.0082
4.5759,11.0674
4.4350,11.0876
3.9350,11.0876
3.7941,11.0674
3.6647,11.0082
3.5571,10.9150
3.4802,10.7953
3.4401,10.6588
3.4401,10.5876
3.4350,10.5876
3.4350,10.0876
Z" /> 
<path style="fill:#37CBCB; fill-opacity:1.0000; 
stroke:#37CBCB; stroke-width:0.0000; stroke-opacity:1; 
stroke-linecap:round; stroke-linejoin:round;fill-rule:evenodd;"
d="M 3.4401,9.2876
3.4401,9.2165
3.4802,9.0799
3.5571,8.9602
3.6647,8.8670
3.7941,8.8079
3.9350,8.7876
4.4350,8.7876
4.5759,8.8079
4.7053,8.8670
4.8129,8.9602
4.8898,9.0799
4.9299,9.2165
4.9299,9.2876
4.9350,9.2876
4.9350,9.7876
3.4350,9.7876
3.4350,9.2876
Z" /> 
</g>
<g >
</g>
<g style="fill:#37CBCB; fill-opacity:1.0000; 
stroke:#37CBCB; stroke-width:0.0000; stroke-opacity:1; 
stroke-linecap:round; stroke-linejoin:round;">
<path style="fill:#37CBCB; fill-opacity:1.0000; 
stroke:#37CBCB; stroke-width:0.0000; stroke-opacity:1; 
stroke-linecap:round; stroke-linejoin:round;fill-rule:evenodd;"
d="M 3.4350,13.8376
3.4350,13.3376
3.4401,13.3376
3.4401,13.2665
3.4802,13.1299
3.5571,13.0102
3.6647,12.9170
3.7941,12.8579
3.9350,12.8376
4.4350,12.8376
4.5759,12.8579
4.7053,12.9170
4.8129,13.0102
4.8898,13.1299
4.9299,13.2665
4.9299,13.3376
4.9350,13.3376
4.9350,13.8376
Z" /> 
<path style="fill:#37CBCB; fill-opacity:1.0000; 
stroke:#37CBCB; stroke-width:0.0000; stroke-opacity:1; 
stroke-linecap:round; stroke-linejoin:round;fill-rule:evenodd;"
d="M 4.9299,14.6376
4.9299,14.7088
4.8898,14.8453
4.8129,14.9650
4.7053,15.0582
4.5759,15.1174
4.4350,15.1376
3.9350,15.1376
3.7941,15.1174
3.6647,15.0582
3.5571,14.9650
3.4802,14.8453
3.4401,14.7088
3.4401,14.6376
3.4350,14.6376
3.4350,14.1376
4.9350,14.1376
4.9350,14.6376
Z" /> 
</g>
<g >
</g>
<g style="fill:#37CBCB; fill-opacity:1.0000; 
stroke:#37CBCB; stroke-width:0.0000; stroke-opacity:1; 
stroke-linecap:round; stroke-linejoin:round;">
<path style="fill:#37CBCB; fill-opacity:1.0000; 
stroke:#37CBCB; stroke-width:0.0000; stroke-opacity:1; 
stroke-linecap:round; stroke-linejoin:round;fill-rule:evenodd;"
d="M 7.5150,15.7076
7.0650,15.7076
7.0650,14.2576
7.5150,14.2576
Z" /> 
<path style="fill:#37CBCB; fill-opacity:1.0000; 
stroke:#37CBCB; stroke-width:0.0000; stroke-opacity:1; 
stroke-linecap:round; stroke-linejoin:round;fill-rule:evenodd;"
d="M 8.1650,15.7076
7.7150,15.7076
7.7150,14.2576
8.1650,14.2576
Z" /> 
<path style="fill:#37CBCB; fill-opacity:1.0000; 
stroke:#37CBCB; stroke-width:0.0000; stroke-opacity:1; 
stroke-linecap:round; stroke-linejoin:round;fill-rule:evenodd;"
d="M 8.8150,15.7076
8.3650,15.7076
8.3650,14.2576
8.8150,14.2576
Z" /> 
<path style="fill:#37CBCB; fill-opacity:1.0000; 
stroke:#37CBCB; stroke-width:0.0000; stroke-opacity:1; 
stroke-linecap:round; stroke-linejoin:round;fill-rule:evenodd;"
d="M 9.4650,15.7076
9.0150,15.7076
9.0150,14.2576
9.4650,14.2576
Z" /> 
<path style="fill:#37CBCB; fill-opacity:1.0000; 
stroke:#37CBCB; stroke-width:0.0000; stroke-opacity:1; 
stroke-linecap:round; stroke-linejoin:round;fill-rule:evenodd;"
d="M 10.1150,15.7076
9.6650,15.7076
9.6650,14.2576
10.1150,14.2576
Z" /> 
<path style="fill:#37CBCB; fill-opacity:1.0000; 
stroke:#37CBCB; stroke-width:0.0000; stroke-opacity:1; 
stroke-linecap:round; stroke-linejoin:round;fill-rule:evenodd;"
d="M 10.7650,15.7076
10.3150,15.7076
10.3150,14.2576
10.7650,14.2576
Z" /> 
<path style="fill:#37CBCB; fill-opacity:1.0000; 
stroke:#37CBCB; stroke-width:0.0000; stroke-opacity:1; 
stroke-linecap:round; stroke-linejoin:round;fill-rule:evenodd;"
d="M 11.4150,15.7076
10.9650,15.7076
10.9650,14.2576
11.4150,14.2576
Z" /> 
<path style="fill:#37CBCB; fill-opacity:1.0000; 
stroke:#37CBCB; stroke-width:0.0000; stroke-opacity:1; 
stroke-linecap:round; stroke-linejoin:round;fill-rule:evenodd;"
d="M 12.0650,15.7076
11.6150,15.7076
11.6150,14.2576
12.0650,14.2576
Z" /> 
<path style="fill:#37CBCB; fill-opacity:1.0000; 
stroke:#37CBCB; stroke-width:0.0000; stroke-opacity:1; 
stroke-linecap:round; stroke-linejoin:round;fill-rule:evenodd;"
d="M 12.7150,15.7076
12.2650,15.7076
12.2650,14.2576
12.7150,14.2576
Z" /> 
<path style="fill:#37CBCB; fill-opacity:1.0000; 
stroke:#37CBCB; stroke-width:0.0000; stroke-opacity:1; 
stroke-linecap:round; stroke-linejoin:round;fill-rule:evenodd;"
d="M 13.3650,15.7076
12.9150,15.7076
12.9150,14.2576
13.3650,14.2576
Z" /> 
<path style="fill:#37CBCB; fill-opacity:1.0000; 
stroke:#37CBCB; stroke-width:0.0000; stroke-opacity:1; 
stroke-linecap:round; stroke-linejoin:round;fill-rule:evenodd;"
d="M 13.3650,9.8076
12.9150,9.8076
12.9150,8.3576
13.3650,8.3576
Z" /> 
<path style="fill:#37CBCB; fill-opacity:1.0000; 
stroke:#37CBCB; stroke-width:0.0000; stroke-opacity:1; 
stroke-linecap:round; stroke-linejoin:round;fill-rule:evenodd;"
d="M 12.7150,9.8076
12.2650,9.8076
12.2650,8.3576
12.7150,8.3576
Z" /> 
<path style="fill:#37CBCB; fill-opacity:1.0000; 
stroke:#37CBCB; stroke-width:0.0000; stroke-opacity:1; 
stroke-linecap:round; stroke-linejoin:round;fill-rule:evenodd;"
d="M 12.0650,9.8076
11.6150,9.8076
11.6150,8.3576
12.0650,8.3576
Z" /> 
<path style="fill:#37CBCB; fill-opacity:1.0000; 
stroke:#37CBCB; stroke-width:0.0000; stroke-opacity:1; 
stroke-linecap:round; stroke-linejoin:round;fill-rule:evenodd;"
d="M 11.4150,9.8076
10.9650,9.8076
10.9650,8.3576
11.4150,8.3576
Z" /> 
<path style="fill:#37CBCB; fill-opacity:1.0000; 
stroke:#37CBCB; stroke-width:0.0000; stroke-opacity:1; 
stroke-linecap:round; stroke-linejoin:round;fill-rule:evenodd;"
d="M 10.7650,9.8076
10.3150,9.8076
10.3150,8.3576
10.7650,8.3576
Z" /> 
<path style="fill:#37CBCB; fill-opacity:1.0000; 
stroke:#37CBCB; stroke-width:0.0000; stroke-opacity:1; 
stroke-linecap:round; stroke-linejoin:round;fill-rule:evenodd;"
d="M 10.1150,9.8076
9.6650,9.8076
9.6650,8.3576
10.1150,8.3576
Z" /> 
<path style="fill:#37CBCB; fill-opacity:1.0000; 
stroke:#37CBCB; stroke-width:0.0000; stroke-opacity:1; 
stroke-linecap:round; stroke-linejoin:round;fill-rule:evenodd;"
d="M 9.4650,9.8076
9.0150,9.8076
9.0150,8.3576
9.4650,8.3576
Z" /> 
<path style="fill:#37CBCB; fill-opacity:1.0000; 
stroke:#37CBCB; stroke-width:0.0000; stroke-opacity:1; 
stroke-linecap:round; stroke-linejoin:round;fill-rule:evenodd;"
d="M 8.8150,9.8076
8.3650,9.8076
8.3650,8.3576
8.8150,8.3576
Z" /> 
<path style="fill:#37CBCB; fill-opacity:1.0000; 
stroke:#37CBCB; stroke-width:0.0000; stroke-opacity:1; 
stroke-linecap:round; stroke-linejoin:round;fill-rule:evenodd;"
d="M 8.1650,9.8076
7.7150,9.8076
7.7150,8.3576
8.1650,8.3576
Z" /> 
<path style="fill:#37CBCB; fill-opacity:1.0000; 
stroke:#37CBCB; stroke-width:0.0000; stroke-opacity:1; 
stroke-linecap:round; stroke-linejoin:round;fill-rule:evenodd;"
d="M 7.5150,9.8076
7.0650,9.8076
7.0650,8.3576
7.5150,8.3576
Z" /> 
</g>
<g >
</g>
<g style="fill:#37CBCB; fill-opacity:1.0000; 
stroke:#37CBCB; stroke-width:0.0000; stroke-opacity:1; 
stroke-linecap:round; stroke-linejoin:round;">
<path style="fill:#37CBCB; fill-opacity:1.0000; 
stroke:#37CBCB; stroke-width:0.0000; stroke-opacity:1; 
stroke-linecap:round; stroke-linejoin:round;fill-rule:evenodd;"
d="M 18.2850,8.1626
18.6850,8.1626
18.6850,8.7626
18.2850,8.7626
18.2850,9.2126
17.7850,9.2126
17.7850,9.2075
17.7138,9.2075
17.5773,9.1674
17.4576,9.0905
17.3644,8.9829
17.3053,8.8535
17.2850,8.7126
17.2850,8.2126
17.3053,8.0718
17.3644,7.9423
17.4576,7.8347
17.5773,7.7578
17.7138,7.7177
17.7850,7.7177
17.7850,7.7126
18.2850,7.7126
Z" /> 
<path style="fill:#37CBCB; fill-opacity:1.0000; 
stroke:#37CBCB; stroke-width:0.0000; stroke-opacity:1; 
stroke-linecap:round; stroke-linejoin:round;fill-rule:evenodd;"
d="M 19.0850,7.7177
19.1562,7.7177
19.2927,7.7578
19.4124,7.8347
19.5056,7.9423
19.5647,8.0718
19.5850,8.2126
19.5850,8.7126
19.5647,8.8535
19.5056,8.9829
19.4124,9.0905
19.2927,9.1674
19.1562,9.2075
19.0850,9.2075
19.0850,9.2126
18.5850,9.2126
18.5850,7.7126
19.0850,7.7126
Z" /> 
</g>
<g >
</g>
<g style="fill:#37CBCB; fill-opacity:1.0000; 
stroke:#37CBCB; stroke-width:0.0000; stroke-opacity:1; 
stroke-linecap:round; stroke-linejoin:round;">
<path style="fill:#37CBCB; fill-opacity:1.0000; 
stroke:#37CBCB; stroke-width:0.0000; stroke-opacity:1; 
stroke-linecap:round; stroke-linejoin:round;fill-rule:evenodd;"
d="M 18.6050,16.3326
18.2050,16.3326
18.2050,15.7326
18.6050,15.7326
18.6050,15.2826
19.1050,15.2826
19.1050,15.2877
19.1762,15.2877
19.3127,15.3278
19.4324,15.4047
19.5256,15.5123
19.5847,15.6418
19.6050,15.7826
19.6050,16.2826
19.5847,16.4235
19.5256,16.5529
19.4324,16.6605
19.3127,16.7374
19.1762,16.7775
19.1050,16.7775
19.1050,16.7826
18.6050,16.7826
Z" /> 
<path style="fill:#37CBCB; fill-opacity:1.0000; 
stroke:#37CBCB; stroke-width:0.0000; stroke-opacity:1; 
stroke-linecap:round; stroke-linejoin:round;fill-rule:evenodd;"
d="M 17.8050,16.7775
17.7338,16.7775
17.5973,16.7374
17.4776,16.6605
17.3844,16.5529
17.3253,16.4235
17.3050,16.2826
17.3050,15.7826
17.3253,15.6418
17.3844,15.5123
17.4776,15.4047
17.5973,15.3278
17.7338,15.2877
17.8050,15.2877
17.8050,15.2826
18.3050,15.2826
18.3050,16.7826
17.8050,16.7826
Z" /> 
</g>
<g >
</g>
<g style="fill:#37CBCB; fill-opacity:1.0000; 
stroke:#37CBCB; stroke-width:0.0000; stroke-opacity:1; 
stroke-linecap:round; stroke-linejoin:round;">
<path style="fill:#37CBCB; fill-opacity:1.0000; 
stroke:#37CBCB; stroke-width:0.0000; stroke-opacity:1; 
stroke-linecap:round; stroke-linejoin:round;fill-rule:evenodd;"
d="M 18.5950,12.6326
19.0950,12.6326
19.0950,12.6377
19.1662,12.6377
19.3027,12.6778
19.4224,12.7547
19.5156,12.8623
19.5747,12.9918
19.5950,13.1326
19.5950,13.6326
19.5747,13.7735
19.5156,13.9029
19.4224,14.0105
19.3027,14.0874
19.1662,14.1275
19.0950,14.1275
19.0950,14.1326
18.5950,14.1326
Z" /> 
<path style="fill:#37CBCB; fill-opacity:1.0000; 
stroke:#37CBCB; stroke-width:0.0000; stroke-opacity:1; 
stroke-linecap:round; stroke-linejoin:round;fill-rule:evenodd;"
d="M 17.7950,14.1275
17.7238,14.1275
17.5873,14.0874
17.4676,14.0105
17.3744,13.9029
17.3153,13.7735
17.2950,13.6326
17.2950,13.1326
17.3153,12.9918
17.3744,12.8623
17.4676,12.7547
17.5873,12.6778
17.7238,12.6377
17.7950,12.6377
17.7950,12.6326
18.2950,12.6326
18.2950,14.1326
17.7950,14.1326
Z" /> 
</g>
<g >
</g>
<g style="fill:#37CBCB; fill-opacity:1.0000; 
stroke:#37CBCB; stroke-width:0.0000; stroke-opacity:1; 
stroke-linecap:round; stroke-linejoin:round;">
<path style="fill:#37CBCB; fill-opacity:1.0000; 
stroke:#37CBCB; stroke-width:0.0000; stroke-opacity:1; 
stroke-linecap:round; stroke-linejoin:round;fill-rule:evenodd;"
d="M 18.5850,10.3726
19.0850,10.3726
19.0850,10.3777
19.1562,10.3777
19.2927,10.4178
19.4124,10.4947
19.5056,10.6023
19.5647,10.7318
19.5850,10.8726
19.5850,11.3726
19.5647,11.5135
19.5056,11.6429
19.4124,11.7505
19.2927,11.8274
19.1562,11.8675
19.0850,11.8675
19.0850,11.8726
18.5850,11.8726
Z" /> 
<path style="fill:#37CBCB; fill-opacity:1.0000; 
stroke:#37CBCB; stroke-width:0.0000; stroke-opacity:1; 
stroke-linecap:round; stroke-linejoin:round;fill-rule:evenodd;"
d="M 17.7850,11.8675
17.7138,11.8675
17.5773,11.8274
17.4576,11.7505
17.3644,11.6429
17.3053,11.5135
17.2850,11.3726
17.2850,10.8726
17.3053,10.7318
17.3644,10.6023
17.4576,10.4947
17.5773,10.4178
17.7138,10.3777
17.7850,10.3777
17.7850,10.3726
18.2850,10.3726
18.2850,11.8726
17.7850,11.8726
Z" /> 
</g>
<g >
</g>
<g style="fill:#37CBCB; fill-opacity:1.0000; 
stroke:#37CBCB; stroke-width:0.0000; stroke-opacity:1; 
stroke-linecap:round; stroke-linejoin:round;">
<path style="fill:#37CBCB; fill-opacity:1.0000; 
stroke:#37CBCB; stroke-width:0.0000; stroke-opacity:1; 
stroke-linecap:round; stroke-linejoin:round;fill-rule:evenodd;"
d="M 14.5975,13.7776
14.6539,13.7888
14.7018,13.8208
14.7338,13.8687
14.7450,13.9251
14.7450,14.2201
14.7338,14.2766
14.7018,14.3244
14.6539,14.3564
14.5975,14.3676
14.2525,14.3676
14.1961,14.3564
14.1482,14.3244
14.1162,14.2766
14.1050,14.2201
14.1050,13.9251
14.1162,13.8687
14.1482,13.8208
14.1961,13.7888
14.2525,13.7776
Z" /> 
<path style="fill:#37CBCB; fill-opacity:1.0000; 
stroke:#37CBCB; stroke-width:0.0000; stroke-opacity:1; 
stroke-linecap:round; stroke-linejoin:round;fill-rule:evenodd;"
d="M 14.5975,14.7476
14.6539,14.7588
14.7018,14.7908
14.7338,14.8387
14.7450,14.8951
14.7450,15.1901
14.7338,15.2466
14.7018,15.2944
14.6539,15.3264
14.5975,15.3376
14.2525,15.3376
14.1961,15.3264
14.1482,15.2944
14.1162,15.2466
14.1050,15.1901
14.1050,14.8951
14.1162,14.8387
14.1482,14.7908
14.1961,14.7588
14.2525,14.7476
Z" /> 
</g>
<g >
</g>
<g style="fill:#37CBCB; fill-opacity:1.0000; 
stroke:#37CBCB; stroke-width:0.0000; stroke-opacity:1; 
stroke-linecap:round; stroke-linejoin:round;">
<path style="fill:#37CBCB; fill-opacity:1.0000; 
stroke:#37CBCB; stroke-width:0.0000; stroke-opacity:1; 
stroke-linecap:round; stroke-linejoin:round;fill-rule:evenodd;"
d="M 14.1725,10.2526
14.1161,10.2414
14.0682,10.2094
14.0362,10.1616
14.0250,10.1051
14.0250,9.8101
14.0362,9.7537
14.0682,9.7058
14.1161,9.6738
14.1725,9.6626
14.5175,9.6626
14.5739,9.6738
14.6218,9.7058
14.6538,9.7537
14.6650,9.8101
14.6650,10.1051
14.6538,10.1616
14.6218,10.2094
14.5739,10.2414
14.5175,10.2526
Z" /> 
<path style="fill:#37CBCB; fill-opacity:1.0000; 
stroke:#37CBCB; stroke-width:0.0000; stroke-opacity:1; 
stroke-linecap:round; stroke-linejoin:round;fill-rule:evenodd;"
d="M 14.1725,9.2826
14.1161,9.2714
14.0682,9.2394
14.0362,9.1916
14.0250,9.1351
14.0250,8.8401
14.0362,8.7837
14.0682,8.7358
14.1161,8.7038
14.1725,8.6926
14.5175,8.6926
14.5739,8.7038
14.6218,8.7358
14.6538,8.7837
14.6650,8.8401
14.6650,9.1351
14.6538,9.1916
14.6218,9.2394
14.5739,9.2714
14.5175,9.2826
Z" /> 
</g>
<g >
</g>
<g style="fill:#37CBCB; fill-opacity:1.0000; 
stroke:#37CBCB; stroke-width:0.0000; stroke-opacity:1; 
stroke-linecap:round; stroke-linejoin:round;">
<path style="fill:#37CBCB; fill-opacity:1.0000; 
stroke:#37CBCB; stroke-width:0.0000; stroke-opacity:1; 
stroke-linecap:round; stroke-linejoin:round;fill-rule:evenodd;"
d="M 6.3800,7.9776
6.4336,7.9883
6.4790,8.0186
6.5093,8.0640
6.5200,8.1176
6.5200,8.3976
6.5093,8.4512
6.4790,8.4966
6.4336,8.5270
6.3800,8.5376
6.0400,8.5376
5.9864,8.5270
5.9410,8.4966
5.9107,8.4512
5.9000,8.3976
5.9000,8.1176
5.9107,8.0640
5.9410,8.0186
5.9864,7.9883
6.0400,7.9776
Z" /> 
<path style="fill:#37CBCB; fill-opacity:1.0000; 
stroke:#37CBCB; stroke-width:0.0000; stroke-opacity:1; 
stroke-linecap:round; stroke-linejoin:round;fill-rule:evenodd;"
d="M 6.3800,8.9376
6.4336,8.9483
6.4790,8.9786
6.5093,9.0240
6.5200,9.0776
6.5200,9.3576
6.5093,9.4112
6.4790,9.4566
6.4336,9.4870
6.3800,9.4976
6.0400,9.4976
5.9864,9.4870
5.9410,9.4566
5.9107,9.4112
5.9000,9.3576
5.9000,9.0776
5.9107,9.0240
5.9410,8.9786
5.9864,8.9483
6.0400,8.9376
Z" /> 
</g>
<g >
</g>
<g style="fill:#121212; fill-opacity:1.0000; 
stroke:#121212; stroke-width:0.0000; stroke-opacity:1; 
stroke-linecap:round; stroke-linejoin:round;">
<circle cx="14.5250" cy="17.6424" r="0.4000" /> 
</g>
<g style="fill:#121212; fill-opacity:1.0000; 
stroke:#121212; stroke-width:0.0212; stroke-opacity:1; 
stroke-linecap:round; stroke-linejoin:round;">
</g>
<g style="fill:#121212; fill-opacity:1.0000; 
stroke:#121212; stroke-width:0.0000; stroke-opacity:1; 
stroke-linecap:round; stroke-linejoin:round;">
<circle cx="15.3494" cy="14.7479" r="0.4000" /> 
</g>
<g style="fill:#121212; fill-opacity:1.0000; 
stroke:#121212; stroke-width:0.0212; stroke-opacity:1; 
stroke-linecap:round; stroke-linejoin:round;">
</g>
<g style="fill:#121212; fill-opacity:1.0000; 
stroke:#121212; stroke-width:0.0000; stroke-opacity:1; 
stroke-linecap:round; stroke-linejoin:round;">
<circle cx="6.1184" cy="8.0323" r="0.4000" /> 
</g>
<g style="fill:#121212; fill-opacity:1.0000; 
stroke:#121212; stroke-width:0.0212; stroke-opacity:1; 
stroke-linecap:round; stroke-linejoin:round;">
</g>
<g style="fill:#121212; fill-opacity:1.0000; 
stroke:#121212; stroke-width:0.0000; stroke-opacity:1; 
stroke-linecap:round; stroke-linejoin:round;">
<circle cx="15.2723" cy="8.8621" r="0.4000" /> 
</g>
<g style="fill:#121212; fill-opacity:1.0000; 
stroke:#121212; stroke-width:0.0212; stroke-opacity:1; 
stroke-linecap:round; stroke-linejoin:round;">
</g>
<g style="fill:#121212; fill-opacity:1.0000; 
stroke:#121212; stroke-width:0.0000; stroke-opacity:1; 
stroke-linecap:round; stroke-linejoin:round;">
<circle cx="13.4305" cy="11.4438" r="0.4000" /> 
</g>
<g style="fill:#121212; fill-opacity:1.0000; 
stroke:#121212; stroke-width:0.0212; stroke-opacity:1; 
stroke-linecap:round; stroke-linejoin:round;">
</g>
<g style="fill:#121212; fill-opacity:1.0000; 
stroke:#121212; stroke-width:0.0000; stroke-opacity:1; 
stroke-linecap:round; stroke-linejoin:round;">
<circle cx="13.1430" cy="16.3091" r="0.4000" /> 
</g>
<g style="fill:#121212; fill-opacity:1.0000; 
stroke:#121212; stroke-width:0.0212; stroke-opacity:1; 
stroke-linecap:round; stroke-linejoin:round;">
</g>
<g style="fill:#121212; fill-opacity:1.0000; 
stroke:#121212; stroke-width:0.0000; stroke-opacity:1; 
stroke-linecap:round; stroke-linejoin:round;">
<circle cx="15.2534" cy="7.1330" r="0.4000" /> 
</g>
<g style="fill:#121212; fill-opacity:1.0000; 
stroke:#121212; stroke-width:0.0212; stroke-opacity:1; 
stroke-linecap:round; stroke-linejoin:round;">
</g>
<g style="fill:#121212; fill-opacity:1.0000; 
stroke:#121212; stroke-width:0.0000; stroke-opacity:1; 
stroke-linecap:round; stroke-linejoin:round;">
<circle cx="10.3850" cy="11.4626" r="0.4000" /> 
</g>
<g style="fill:#121212; fill-opacity:1.0000; 
stroke:#121212; stroke-width:0.0212; stroke-opacity:1; 
stroke-linecap:round; stroke-linejoin:round;">
</g>
<g style="fill:#121212; fill-opacity:1.0000; 
stroke:#121212; stroke-width:0.0000; stroke-opacity:1; 
stroke-linecap:round; stroke-linejoin:round;">
<circle cx="6.2100" cy="9.1876" r="0.4000" /> 
</g>
<g style="fill:#121212; fill-opacity:1.0000; 
stroke:#121212; stroke-width:0.0212; stroke-opacity:1; 
stroke-linecap:round; stroke-linejoin:round;">
</g>
<g style="fill:#121212; fill-opacity:1.0000; 
stroke:#121212; stroke-width:0.0000; stroke-opacity:1; 
stroke-linecap:round; stroke-linejoin:round;">
<circle cx="15.2725" cy="10.5785" r="0.4000" /> 
</g>
<g style="fill:#121212; fill-opacity:1.0000; 
stroke:#121212; stroke-width:0.0212; stroke-opacity:1; 
stroke-linecap:round; stroke-linejoin:round;">
</g>
<g style="fill:#121212; fill-opacity:1.0000; 
stroke:#121212; stroke-width:0.0000; stroke-opacity:1; 
stroke-linecap:round; stroke-linejoin:round;">
<circle cx="6.9050" cy="7.1111" r="0.4000" /> 
</g>
<g style="fill:#121212; fill-opacity:1.0000; 
stroke:#121212; stroke-width:0.0212; stroke-opacity:1; 
stroke-linecap:round; stroke-linejoin:round;">
</g>
<g style="fill:#121212; fill-opacity:1.0000; 
stroke:#121212; stroke-width:0.0000; stroke-opacity:1; 
stroke-linecap:round; stroke-linejoin:round;">
<circle cx="6.3850" cy="10.3498" r="0.4000" /> 
</g>
<g style="fill:#121212; fill-opacity:1.0000; 
stroke:#121212; stroke-width:0.0212; stroke-opacity:1; 
stroke-linecap:round; stroke-linejoin:round;">
</g>
<g style="fill:#121212; fill-opacity:1.0000; 
stroke:#121212; stroke-width:0.0000; stroke-opacity:1; 
stroke-linecap:round; stroke-linejoin:round;">
<circle cx="9.2400" cy="16.3086" r="0.4000" /> 
</g>
<g style="fill:#121212; fill-opacity:1.0000; 
stroke:#121212; stroke-width:0.0212; stroke-opacity:1; 
stroke-linecap:round; stroke-linejoin:round;">
</g>
<g style="fill:#121212; fill-opacity:1.0000; 
stroke:#121212; stroke-width:0.0000; stroke-opacity:1; 
stroke-linecap:round; stroke-linejoin:round;">
<circle cx="3.9284" cy="11.9626" r="0.4000" /> 
</g>
<g style="fill:#121212; fill-opacity:1.0000; 
stroke:#121212; stroke-width:0.0212; stroke-opacity:1; 
stroke-linecap:round; stroke-linejoin:round;">
</g>
<g >
</g>
<g style="fill:#37CBCB; fill-opacity:1.0000; 
stroke:#37CBCB; stroke-width:0.0212; stroke-opacity:1; 
stroke-linecap:round; stroke-linejoin:round;">
</g>
<g style="fill:#37CBCB; fill-opacity:1.0000; 
stroke:#37CBCB; stroke-width:0.2500; stroke-opacity:1; 
stroke-linecap:round; stroke-linejoin:round;">
</g>
<g style="fill:#37CBCB; fill-opacity:0.0; 
stroke:#37CBCB; stroke-width:0.2500; stroke-opacity:1; 
stroke-linecap:round; stroke-linejoin:round;">
<path d="M18.4297 19.5972
L15.7399 16.9074
" />
<path d="M19.6050 19.9126
L18.4297 19.9126
" />
<path d="M13.6858 16.9074
L13.5435 17.0497
" />
<path d="M11.8400 14.9826
L11.8400 16.0329
" />
<path d="M18.4297 19.9126
L18.4297 19.5972
" />
<path d="M15.7399 16.9074
L13.6858 16.9074
" />
<path d="M12.8568 17.0497
L11.8400 16.0329
" />
<path d="M13.5435 17.0497
L12.8568 17.0497
" />
<path d="M10.5400 14.9826
L10.5400 16.0329
" />
<path d="M10.5400 16.0329
L13.2444 18.7373
" />
<path d="M15.8897 19.5452
L15.8897 19.9126
" />
<path d="M15.0818 18.7373
L15.8897 19.5452
" />
<path d="M13.2444 18.7373
L15.0818 18.7373
" />
<path d="M17.0650 19.9126
L15.8897 19.9126
" />
<path d="M12.7995 17.6424
L11.1900 16.0329
" />
<path d="M14.5250 17.6424
L12.7995 17.6424
" />
<path d="M11.1900 14.9826
L11.1900 16.0329
" />
<path d="M14.4705 8.8621
L15.2723 8.8621
" />
<path d="M17.7850 8.4626
L17.3855 8.8621
" />
<path d="M6.1184 8.0323
L7.2900 8.0323
" />
<path d="M14.7197 14.7479
L14.4250 15.0426
" />
<path d="M1.8050 9.2876
L4.1850 9.2876
" />
<path d="M14.3450 8.9876
L14.4705 8.8621
" />
<path d="M7.2900 9.0826
L7.2900 8.0323
" />
<path d="M4.1850 9.2876
L5.4403 8.0323
" />
<path d="M15.3494 14.7479
L14.7197 14.7479
" />
<path d="M5.4403 8.0323
L6.1184 8.0323
" />
<path d="M17.3855 8.8621
L15.2723 8.8621
" />
<path d="M17.5925 11.3151
L17.7850 11.1226
" />
<path d="M13.4305 11.3151
L17.5925 11.3151
" />
<path d="M13.4305 11.3151
L13.4305 11.4438
" />
<path d="M11.1900 10.1818
L12.3233 11.3151
" />
<path d="M11.1900 9.0826
L11.1900 10.1818
" />
<path d="M12.3233 11.3151
L13.4305 11.3151
" />
<path d="M13.0397 13.3826
L12.4900 13.9323
" />
<path d="M12.4900 14.9826
L12.4900 16.0329
" />
<path d="M17.7950 13.3826
L13.0397 13.3826
" />
<path d="M13.1430 16.3091
L12.7662 16.3091
" />
<path d="M12.4900 14.9826
L12.4900 13.9323
" />
<path d="M12.7662 16.3091
L12.4900 16.0329
" />
<path d="M4.1850 14.6376
L5.0500 14.6376
" />
<path d="M10.5400 7.2929
L10.5400 9.0826
" />
<path d="M20.3941 14.7435
L20.3941 8.0355
" />
<path d="M11.9850 5.8479
L10.5400 7.2929
" />
<path d="M10.5400 11.3076
L10.5400 9.0826
" />
<path d="M11.9850 4.6726
L11.9850 5.8479
" />
<path d="M10.2471 11.6005
L10.5400 11.3076
" />
<path d="M19.4916 7.1330
L15.2534 7.1330
" />
<path d="M5.0500 14.6376
L7.7450 11.9426
" />
<path d="M9.9050 11.9426
L10.2471 11.6005
" />
<path d="M19.1050 16.0326
L20.3941 14.7435
" />
<path d="M20.3941 8.0355
L19.4916 7.1330
" />
<path d="M10.2471 11.6005
L10.3850 11.4626
" />
<path d="M7.7450 11.9426
L9.9050 11.9426
" />
<path d="M1.7850 14.6376
L4.1850 14.6376
" />
<path d="M7.9400 14.9826
L7.9400 17.7023
" />
<path d="M6.9050 19.9126
L6.9050 18.7373
" />
<path d="M7.9400 17.7023
L6.9050 18.7373
" />
<path d="M4.3650 19.9126
L4.3650 18.7373
" />
<path d="M4.3650 18.7373
L4.5856 18.7373
" />
<path d="M4.5856 18.7373
L7.2900 16.0329
" />
<path d="M7.2900 14.9826
L7.2900 16.0329
" />
<path d="M8.5900 13.9323
L6.6300 13.9323
" />
<path d="M1.8250 19.9126
L1.8250 18.7373
" />
<path d="M6.6300 13.9323
L1.8250 18.7373
" />
<path d="M8.5900 14.9826
L8.5900 13.9323
" />
<path d="M11.8400 9.0826
L11.8400 10.1329
" />
<path d="M15.2725 10.5785
L12.2856 10.5785
" />
<path d="M12.2856 10.5785
L11.8400 10.1329
" />
<path d="M12.4900 7.8829
L14.5250 5.8479
" />
<path d="M14.5250 4.6726
L14.5250 5.8479
" />
<path d="M12.4900 9.0826
L12.4900 7.8829
" />
<path d="M19.4386 12.2133
L11.6090 12.2133
" />
<path d="M19.9142 11.7377
L19.4386 12.2133
" />
<path d="M9.8900 14.9826
L9.8900 13.9323
" />
<path d="M11.6090 12.2133
L9.8900 13.9323
" />
<path d="M19.9142 9.2918
L19.9142 11.7377
" />
<path d="M19.0850 8.4626
L19.9142 9.2918
" />
<path d="M17.8050 16.0326
L14.1900 16.0326
" />
<path d="M14.1900 16.0326
L13.1400 14.9826
" />
<path d="M8.5900 8.0323
L7.6688 7.1111
" />
<path d="M8.5900 9.0826
L8.5900 8.0323
" />
<path d="M7.6688 7.1111
L6.9050 7.1111
" />
<path d="M7.6478 10.3498
L6.3850 10.3498
" />
<path d="M7.9400 10.0576
L7.6478 10.3498
" />
<path d="M7.9400 9.0826
L7.9400 10.0576
" />
<path d="M4.3461 6.3858
L3.0003 5.0400
" />
<path d="M9.2400 8.0323
L7.5935 6.3858
" />
<path d="M1.8250 4.6726
L3.0003 4.6726
" />
<path d="M7.5935 6.3858
L4.3461 6.3858
" />
<path d="M9.2400 9.0826
L9.2400 8.0323
" />
<path d="M3.0003 5.0400
L3.0003 4.6726
" />
<path d="M9.2400 16.3086
L9.2400 14.9826
" />
<path d="M1.7850 13.3376
L1.7850 11.9826
" />
<path d="M1.7850 11.9826
L1.8050 11.9626
" />
<path d="M1.8050 11.9626
L3.9284 11.9626
" />
<path d="M1.8050 11.9626
L1.8050 10.5876
" />
<path d="M8.9481 11.0748
L4.6722 11.0748
" />
<path d="M9.8900 9.0826
L9.8900 10.1329
" />
<path d="M9.8900 10.1329
L8.9481 11.0748
" />
<path d="M4.6722 12.8504
L4.1850 13.3376
" />
<path d="M4.6722 11.0748
L4.6722 12.8504
" />
<path d="M4.1850 10.5876
L4.6722 11.0748
" />
<path d="M15.3244 5.8479
L17.6218 5.8479
" />
<path d="M19.6050 4.6726
L18.4297 4.6726
" />
<path d="M13.1400 9.0826
L13.1400 8.0323
" />
<path d="M18.4297 5.0400
L18.4297 4.6726
" />
<path d="M13.1400 8.0323
L15.3244 5.8479
" />
<path d="M17.6218 5.8479
L18.4297 5.0400
" />
<path d="M14.4849 14.0127
L16.3752 14.0127
" />
<path d="M16.3752 14.0127
L16.8252 14.4627
" />
<path d="M19.0950 14.2302
L19.0950 13.3826
" />
<path d="M16.8252 14.4627
L18.8625 14.4627
" />
<path d="M19.0950 13.3826
L19.0950 13.5013
" />
<path d="M18.8625 14.4627
L19.0950 14.2302
" />
<path d="M14.4250 14.0726
L14.4849 14.0127
" />
<path d="M18.5931 9.7831
L19.0850 10.2750
" />
<path d="M19.0850 11.1226
L19.0850 10.9921
" />
<path d="M19.0850 10.2750
L19.0850 11.1226
" />
<path d="M14.5195 9.7831
L18.5931 9.7831
" />
<path d="M14.3450 9.9576
L14.5195 9.7831
" />
</g>
<g >
</g>
<g style="fill:#37CBCB; fill-opacity:0.0; 
stroke:#37CBCB; stroke-width:0.2500; stroke-opacity:1; 
stroke-linecap:round; stroke-linejoin:round;">
<g >
</g>
<g style="fill:#37CBCB; fill-opacity:1.0000; 
stroke:#37CBCB; stroke-width:0.0000; stroke-opacity:1; 
stroke-linecap:round; stroke-linejoin:round;">
<path style="fill:#37CBCB; fill-opacity:1.0000; 
stroke:#37CBCB; stroke-width:0.0000; stroke-opacity:1; 
stroke-linecap:round; stroke-linejoin:round;fill-rule:evenodd;"
d="M 20.4225,12.2295
20.4794,12.2720
20.5042,12.3385
20.5045,12.3475
20.5045,18.6433
20.4845,18.7114
20.4308,18.7579
20.3606,18.7680
20.3185,18.7541
20.2796,18.7330
20.1526,18.6643
20.1526,18.6643
20.1526,18.6643
19.9396,18.5912
19.9396,18.5912
19.8595,18.5778
19.7176,18.5541
19.4924,18.5541
19.3505,18.5778
19.2704,18.5912
19.2704,18.5912
19.0574,18.6643
19.0574,18.6643
18.8594,18.7714
18.8594,18.7714
18.8594,18.7714
18.7450,18.8605
18.6790,18.8865
18.6093,18.8728
18.5785,18.8501
16.6096,16.8812
16.5756,16.8189
16.5806,16.7481
16.6232,16.6913
16.6897,16.6664
16.6987,16.6661
16.7847,16.6661
16.8528,16.6861
16.8993,16.7398
16.9031,16.7481
16.9127,16.7691
16.9214,16.7826
16.9918,16.8921
16.9918,16.8921
17.0845,16.9991
17.0852,17.0000
17.0860,17.0008
17.1965,17.0966
17.2656,17.1410
17.3167,17.1739
17.3174,17.1743
17.4504,17.2350
17.5884,17.2755
17.7331,17.2963
17.7331,17.2963
18.3050,17.2963
18.3050,17.2963
18.3781,17.2911
18.4156,17.2801
18.4690,17.2763
18.6050,17.2958
18.6050,17.2958
19.1769,17.2958
19.1769,17.2958
19.3215,17.2751
19.3215,17.2751
19.4594,17.2345
19.5923,17.1739
19.5923,17.1739
19.7104,17.0980
19.7112,17.0975
19.7133,17.0961
19.8237,17.0005
19.9178,16.8918
19.9178,16.8918
19.9968,16.7689
19.9968,16.7689
20.0432,16.6674
20.0507,16.6581
20.0977,16.4980
20.0977,16.4980
20.1181,16.3557
20.1181,16.3557
20.1181,16.2991
20.1182,16.2988
20.1182,15.7669
20.1181,15.7661
20.1181,15.7096
20.1181,15.7096
20.0990,15.5762
20.0990,15.5762
20.0990,15.5762
20.0977,15.5673
20.0565,15.4271
20.0565,15.4271
19.9968,15.2963
19.9968,15.2963
19.9178,15.1734
19.9178,15.1734
19.8237,15.0648
19.8237,15.0648
19.7133,14.9691
19.5923,14.8914
19.5923,14.8914
19.5776,14.8847
19.5239,14.8382
19.5039,14.7700
19.5239,14.7019
19.5381,14.6838
19.5500,14.6711
19.5711,14.6500
19.5754,14.6444
19.5793,14.6399
19.6116,14.6055
19.6213,14.5878
19.6322,14.5713
19.6446,14.5553
19.6634,14.5119
19.6660,14.5066
19.6840,14.4738
19.7119,14.4393
19.8141,14.3508
19.9082,14.2421
19.9873,14.1191
20.0470,13.9883
20.0470,13.9883
20.0470,13.9883
20.0472,13.9879
20.0476,13.9862
20.0882,13.8480
20.1086,13.7057
20.1086,13.6491
20.1087,13.6488
20.1087,13.1169
20.1086,13.1161
20.1086,13.0595
20.1086,13.0595
20.1080,13.0553
20.0882,12.9172
20.0882,12.9172
20.0830,12.8994
20.0685,12.8500
20.0470,12.7769
19.9968,12.6670
19.9867,12.5967
20.0162,12.5321
20.0223,12.5256
20.2894,12.2584
20.3517,12.2244
Z" /> 
<path style="fill:#37CBCB; fill-opacity:1.0000; 
stroke:#37CBCB; stroke-width:0.0000; stroke-opacity:1; 
stroke-linecap:round; stroke-linejoin:round;fill-rule:evenodd;"
d="M 10.5995,10.4561
10.6240,10.4844
10.6258,10.4830
10.6582,10.5276
10.6614,10.5326
10.6855,10.5732
10.6998,10.5875
10.7126,10.6025
10.7166,10.6080
10.7245,10.6189
10.7528,10.6423
10.7609,10.6490
10.7653,10.6530
11.1875,11.0752
11.4986,11.3863
11.5326,11.4487
11.5276,11.5195
11.4850,11.5763
11.4559,11.5926
11.4063,11.6122
11.4007,11.6141
11.3554,11.6273
11.3380,11.6376
11.3202,11.6463
11.3014,11.6538
11.2632,11.6815
11.2582,11.6848
11.2176,11.7088
11.2033,11.7231
11.1883,11.7359
11.1719,11.7478
11.1719,11.7478
11.1418,11.7842
11.1378,11.7886
9.5013,13.4251
9.4889,13.4350
9.4891,13.4353
9.4830,13.4403
9.4350,13.4914
9.4139,13.5125
9.4096,13.5181
9.4057,13.5226
9.3734,13.5570
9.3734,13.5570
9.3637,13.5748
9.3528,13.5913
9.3382,13.6101
9.2806,13.6517
9.2097,13.6556
9.1480,13.6205
9.1367,13.6070
9.1354,13.6052
9.1154,13.5777
9.1132,13.5744
9.1021,13.5570
9.0820,13.5253
9.0768,13.5204
9.0760,13.5197
9.0603,13.5019
9.0555,13.4952
9.0555,13.4952
9.0509,13.4914
9.0107,13.4581
9.0077,13.4555
8.9934,13.4421
8.9653,13.4157
8.9581,13.4118
8.9385,13.3984
8.9321,13.3932
8.8795,13.3684
8.8760,13.3666
8.8390,13.3463
8.8251,13.3386
8.8251,13.3386
8.8251,13.3386
8.8171,13.3366
8.7948,13.3285
8.7873,13.3250
8.7302,13.3141
8.7263,13.3133
8.6700,13.2988
8.6618,13.2988
8.6382,13.2966
8.6363,13.2962
8.6301,13.2950
8.6301,13.2950
8.6156,13.2960
8.5720,13.2987
8.5681,13.2988
6.7139,13.2988
6.6980,13.2971
6.6980,13.2974
6.6901,13.2966
6.6901,13.2966
6.6200,13.2988
6.5901,13.2988
6.5901,13.2988
6.5901,13.2988
6.5832,13.2997
6.5773,13.3002
6.5301,13.3016
6.5301,13.3016
6.5107,13.3073
6.4913,13.3113
6.4712,13.3138
6.4712,13.3138
6.4273,13.3312
6.4217,13.3331
6.3764,13.3463
6.3764,13.3463
6.3590,13.3566
6.3412,13.3653
6.3224,13.3728
6.3003,13.3888
6.2842,13.4005
6.2793,13.4038
6.2386,13.4278
6.2243,13.4421
6.2093,13.4549
6.1929,13.4668
6.1929,13.4668
6.1628,13.5032
6.1588,13.5076
5.6526,14.0138
5.5903,14.0478
5.5195,14.0428
5.4626,14.0002
5.4378,13.9337
5.4388,13.9068
5.4487,13.8376
5.4487,13.8376
5.4487,13.2657
5.4487,13.2657
5.4279,13.1210
5.3874,12.9830
5.3267,12.8500
5.3267,12.8500
5.3267,12.8500
5.3257,12.8485
5.3255,12.8479
5.3245,12.8461
5.3249,12.8458
5.3057,12.7804
5.3057,11.8343
5.3257,11.7662
5.3794,11.7197
5.4317,11.7083
8.8642,11.7083
8.8801,11.7101
8.8801,11.7098
8.8880,11.7105
8.8880,11.7105
8.9581,11.7083
8.9880,11.7083
8.9949,11.7074
9.0008,11.7070
9.0480,11.7055
9.0674,11.6998
9.0868,11.6958
9.1069,11.6933
9.1508,11.6759
9.1564,11.6740
9.1849,11.6657
9.2017,11.6608
9.2017,11.6608
9.2191,11.6505
9.2369,11.6418
9.2557,11.6344
9.2939,11.6066
9.2988,11.6034
9.3395,11.5794
9.3538,11.5650
9.3688,11.5522
9.3852,11.5403
9.4153,11.5039
9.4193,11.4996
10.2787,10.6402
10.2911,10.6302
10.2909,10.6300
10.2970,10.6249
10.3450,10.5738
10.3661,10.5527
10.3661,10.5527
10.3661,10.5527
10.3704,10.5471
10.3743,10.5426
10.4066,10.5082
10.4133,10.4961
10.4636,10.4460
10.5330,10.4311
Z" /> 
<path style="fill:#37CBCB; fill-opacity:1.0000; 
stroke:#37CBCB; stroke-width:0.0000; stroke-opacity:1; 
stroke-linecap:round; stroke-linejoin:round;fill-rule:evenodd;"
d="M 18.7409,5.7289
18.7743,5.7475
18.8594,5.8138
19.0574,5.9210
19.0574,5.9210
19.0574,5.9210
19.1692,5.9593
19.2704,5.9941
19.4924,6.0311
19.4924,6.0311
19.7176,6.0311
19.7176,6.0311
19.9396,5.9941
20.1526,5.9210
20.3185,5.8311
20.3880,5.8163
20.4544,5.8414
20.4967,5.8984
20.5045,5.9420
20.5045,8.6820
20.4845,8.7501
20.4308,8.7966
20.3606,8.8067
20.2960,8.7772
20.2894,8.7711
20.1356,8.6173
20.1016,8.5550
20.0987,8.5283
20.0987,8.1969
20.0986,8.1961
20.0986,8.1395
20.0986,8.1395
20.0959,8.1206
20.0782,7.9972
20.0782,7.9972
20.0370,7.8569
19.9773,7.7261
19.8982,7.6031
19.8055,7.4961
19.8048,7.4952
19.8040,7.4944
19.6935,7.3987
19.6935,7.3987
19.6289,7.3571
19.5726,7.3209
19.4396,7.2602
19.3016,7.2197
19.3016,7.2197
19.3016,7.2197
19.1569,7.1989
18.5850,7.1989
18.5592,7.2007
18.5119,7.2041
18.5119,7.2041
18.4756,7.2148
18.4221,7.2186
18.2850,7.1989
18.2850,7.1989
17.7131,7.1989
17.5760,7.2186
17.5684,7.2197
17.5684,7.2197
17.4304,7.2602
17.2974,7.3210
17.2974,7.3210
17.1765,7.3987
17.1765,7.3987
17.1765,7.3987
17.1765,7.3987
17.1765,7.3987
17.1489,7.4226
17.0659,7.4944
16.9718,7.6031
16.8927,7.7261
16.8927,7.7261
16.8328,7.8573
16.8324,7.8591
16.7918,7.9972
16.7918,7.9972
16.7741,8.1206
16.7446,8.1851
16.6849,8.2235
16.6494,8.2286
15.9805,8.2286
15.9124,8.2086
15.8869,8.1869
15.8836,8.1833
15.7291,8.0710
15.5546,7.9933
15.3678,7.9536
15.1768,7.9536
14.9900,7.9933
14.8155,8.0710
14.6900,8.1622
14.6232,8.1861
14.6061,8.1859
14.5838,8.1841
14.1883,8.1841
14.1202,8.1641
14.0737,8.1105
14.0636,8.0402
14.0931,7.9756
14.0992,7.9691
15.5499,6.5183
15.6122,6.4843
15.6390,6.4814
17.5379,6.4814
17.5538,6.4832
17.5538,6.4829
17.5617,6.4836
17.5617,6.4836
17.6318,6.4814
17.6617,6.4814
17.6686,6.4805
17.6745,6.4801
17.7217,6.4786
17.7411,6.4729
17.7605,6.4689
17.7806,6.4664
17.8245,6.4490
17.8301,6.4471
17.8586,6.4388
17.8754,6.4339
17.8754,6.4339
17.8928,6.4236
17.9106,6.4149
17.9294,6.4075
17.9676,6.3797
17.9725,6.3765
18.0132,6.3525
18.0275,6.3381
18.0425,6.3253
18.0589,6.3134
18.0890,6.2770
18.0930,6.2727
18.6078,5.7579
18.6701,5.7238
Z" /> 
<path style="fill:#37CBCB; fill-opacity:1.0000; 
stroke:#37CBCB; stroke-width:0.0000; stroke-opacity:1; 
stroke-linecap:round; stroke-linejoin:round;fill-rule:evenodd;"
d="M 12.2390,6.0070
12.3195,5.9936
12.3195,5.9936
12.5324,5.9205
12.5324,5.9205
12.7303,5.8134
12.7303,5.8134
12.9079,5.6752
13.0603,5.5096
13.1492,5.3735
13.2032,5.3274
13.2736,5.3179
13.3379,5.3478
13.3602,5.3735
13.4493,5.5099
13.5466,5.6156
13.6015,5.6752
13.6018,5.6755
13.6056,5.6791
13.6048,5.6799
13.6429,5.7329
13.6467,5.8038
13.6132,5.8638
12.1013,7.3757
12.0889,7.3856
12.0891,7.3859
12.0830,7.3909
12.0350,7.4420
12.0139,7.4631
12.0096,7.4687
12.0057,7.4732
11.9734,7.5076
11.9734,7.5076
11.9637,7.5254
11.9528,7.5419
11.9404,7.5579
11.9216,7.6012
11.9190,7.6065
11.8963,7.6479
11.8963,7.6479
11.8913,7.6675
11.8849,7.6862
11.8768,7.7048
11.8708,7.7428
11.8404,7.8070
11.7801,7.8445
11.7463,7.8491
11.5664,7.8491
11.5664,7.8491
11.5663,7.8491
11.5285,7.8532
11.5015,7.8532
11.4637,7.8491
11.4636,7.8491
11.4636,7.8491
10.9164,7.8491
10.9164,7.8491
10.9163,7.8491
10.8761,7.8534
10.8492,7.8534
10.8136,7.8496
10.7650,7.8496
10.7481,7.8665
10.7450,7.8772
10.7145,7.9099
10.6155,7.9840
10.5490,8.0089
10.4796,7.9938
10.4645,7.9840
10.3655,7.9099
10.3362,7.8708
10.3150,7.8496
10.2664,7.8496
10.2308,7.8534
10.2039,7.8534
10.1636,7.8491
10.1636,7.8491
9.9392,7.8491
9.8711,7.8291
9.8322,7.7843
9.8301,7.7855
9.8157,7.7613
9.8070,7.7435
9.7996,7.7247
9.7718,7.6865
9.7686,7.6816
9.7445,7.6410
9.7302,7.6266
9.7174,7.6116
9.7055,7.5952
9.7055,7.5952
9.7055,7.5952
9.6691,7.5651
9.6647,7.5611
8.1007,5.9972
8.0908,5.9847
8.0906,5.9849
8.0855,5.9788
8.0855,5.9788
8.0799,5.9735
8.0344,5.9308
8.0133,5.9097
8.0133,5.9097
8.0077,5.9054
8.0032,5.9015
7.9688,5.8692
7.9688,5.8692
7.9511,5.8595
7.9345,5.8486
7.9185,5.8362
7.9110,5.8329
7.8564,5.7875
7.8351,5.7198
7.8537,5.6513
7.8683,5.6320
7.9807,5.5099
7.9809,5.5096
7.9861,5.5016
8.0695,5.3740
8.1235,5.3279
8.1939,5.3183
8.2582,5.3483
8.2805,5.3740
8.3136,5.4247
8.3693,5.5099
8.3693,5.5099
8.4817,5.6320
8.5215,5.6752
8.5218,5.6755
8.5264,5.6792
8.6994,5.8138
8.8974,5.9210
8.8974,5.9210
8.8974,5.9210
9.0092,5.9593
9.1104,5.9941
9.3324,6.0311
9.3324,6.0311
9.5576,6.0311
9.5576,6.0311
9.7796,5.9941
9.9926,5.9210
10.1906,5.8138
10.3682,5.6755
10.5207,5.5099
10.5209,5.5096
10.6095,5.3740
10.6098,5.3735
10.6638,5.3274
10.7342,5.3179
10.7985,5.3478
10.8208,5.3735
10.9097,5.5096
11.0621,5.6752
11.2397,5.8134
11.2397,5.8134
11.4376,5.9205
11.4376,5.9205
11.6505,5.9936
11.6505,5.9936
11.7310,6.0070
11.7310,5.1063
11.8427,5.1573
11.9492,5.1726
12.0208,5.1726
12.1273,5.1573
12.2390,5.1063
Z" /> 
</g>
</g>
</g>
<g style="fill:#000000; fill-opacity:1.0000; 
stroke:#000000; stroke-width:0.0000; stroke-opacity:1; 
stroke-linecap:round; stroke-linejoin:round;">
<circle cx="14.5250" cy="17.6424" r="0.2000" /> 
</g>
<g style="fill:#000000; fill-opacity:1.0000; 
stroke:#000000; stroke-width:0.0212; stroke-opacity:1; 
stroke-linecap:round; stroke-linejoin:round;">
</g>
<g style="fill:#000000; fill-opacity:1.0000; 
stroke:#000000; stroke-width:0.0000; stroke-opacity:1; 
stroke-linecap:round; stroke-linejoin:round;">
<circle cx="15.3494" cy="14.7479" r="0.2000" /> 
</g>
<g style="fill:#000000; fill-opacity:1.0000; 
stroke:#000000; stroke-width:0.0212; stroke-opacity:1; 
stroke-linecap:round; stroke-linejoin:round;">
</g>
<g style="fill:#000000; fill-opacity:1.0000; 
stroke:#000000; stroke-width:0.0000; stroke-opacity:1; 
stroke-linecap:round; stroke-linejoin:round;">
<circle cx="6.1184" cy="8.0323" r="0.2000" /> 
</g>
<g style="fill:#000000; fill-opacity:1.0000; 
stroke:#000000; stroke-width:0.0212; stroke-opacity:1; 
stroke-linecap:round; stroke-linejoin:round;">
</g>
<g style="fill:#000000; fill-opacity:1.0000; 
stroke:#000000; stroke-width:0.0000; stroke-opacity:1; 
stroke-linecap:round; stroke-linejoin:round;">
<circle cx="15.2723" cy="8.8621" r="0.2000" /> 
</g>
<g style="fill:#000000; fill-opacity:1.0000; 
stroke:#000000; stroke-width:0.0212; stroke-opacity:1; 
stroke-linecap:round; stroke-linejoin:round;">
</g>
<g style="fill:#000000; fill-opacity:1.0000; 
stroke:#000000; stroke-width:0.0000; stroke-opacity:1; 
stroke-linecap:round; stroke-linejoin:round;">
<circle cx="13.4305" cy="11.4438" r="0.2000" /> 
</g>
<g style="fill:#000000; fill-opacity:1.0000; 
stroke:#000000; stroke-width:0.0212; stroke-opacity:1; 
stroke-linecap:round; stroke-linejoin:round;">
</g>
<g style="fill:#000000; fill-opacity:1.0000; 
stroke:#000000; stroke-width:0.0000; stroke-opacity:1; 
stroke-linecap:round; stroke-linejoin:round;">
<circle cx="13.1430" cy="16.3091" r="0.2000" /> 
</g>
<g style="fill:#000000; fill-opacity:1.0000; 
stroke:#000000; stroke-width:0.0212; stroke-opacity:1; 
stroke-linecap:round; stroke-linejoin:round;">
</g>
<g style="fill:#000000; fill-opacity:1.0000; 
stroke:#000000; stroke-width:0.0000; stroke-opacity:1; 
stroke-linecap:round; stroke-linejoin:round;">
<circle cx="15.2534" cy="7.1330" r="0.2000" /> 
</g>
<g style="fill:#000000; fill-opacity:1.0000; 
stroke:#000000; stroke-width:0.0212; stroke-opacity:1; 
stroke-linecap:round; stroke-linejoin:round;">
</g>
<g style="fill:#000000; fill-opacity:1.0000; 
stroke:#000000; stroke-width:0.0000; stroke-opacity:1; 
stroke-linecap:round; stroke-linejoin:round;">
<circle cx="10.3850" cy="11.4626" r="0.2000" /> 
</g>
<g style="fill:#000000; fill-opacity:1.0000; 
stroke:#000000; stroke-width:0.0212; stroke-opacity:1; 
stroke-linecap:round; stroke-linejoin:round;">
</g>
<g style="fill:#000000; fill-opacity:1.0000; 
stroke:#000000; stroke-width:0.0000; stroke-opacity:1; 
stroke-linecap:round; stroke-linejoin:round;">
<circle cx="6.2100" cy="9.1876" r="0.2000" /> 
</g>
<g style="fill:#000000; fill-opacity:1.0000; 
stroke:#000000; stroke-width:0.0212; stroke-opacity:1; 
stroke-linecap:round; stroke-linejoin:round;">
</g>
<g style="fill:#000000; fill-opacity:1.0000; 
stroke:#000000; stroke-width:0.0000; stroke-opacity:1; 
stroke-linecap:round; stroke-linejoin:round;">
<circle cx="15.2725" cy="10.5785" r="0.2000" /> 
</g>
<g style="fill:#000000; fill-opacity:1.0000; 
stroke:#000000; stroke-width:0.0212; stroke-opacity:1; 
stroke-linecap:round; stroke-linejoin:round;">
</g>
<g style="fill:#000000; fill-opacity:1.0000; 
stroke:#000000; stroke-width:0.0000; stroke-opacity:1; 
stroke-linecap:round; stroke-linejoin:round;">
<circle cx="6.9050" cy="7.1111" r="0.2000" /> 
</g>
<g style="fill:#000000; fill-opacity:1.0000; 
stroke:#000000; stroke-width:0.0212; stroke-opacity:1; 
stroke-linecap:round; stroke-linejoin:round;">
</g>
<g style="fill:#000000; fill-opacity:1.0000; 
stroke:#000000; stroke-width:0.0000; stroke-opacity:1; 
stroke-linecap:round; stroke-linejoin:round;">
<circle cx="6.3850" cy="10.3498" r="0.2000" /> 
</g>
<g style="fill:#000000; fill-opacity:1.0000; 
stroke:#000000; stroke-width:0.0212; stroke-opacity:1; 
stroke-linecap:round; stroke-linejoin:round;">
</g>
<g style="fill:#000000; fill-opacity:1.0000; 
stroke:#000000; stroke-width:0.0000; stroke-opacity:1; 
stroke-linecap:round; stroke-linejoin:round;">
<circle cx="9.2400" cy="16.3086" r="0.2000" /> 
</g>
<g style="fill:#000000; fill-opacity:1.0000; 
stroke:#000000; stroke-width:0.0212; stroke-opacity:1; 
stroke-linecap:round; stroke-linejoin:round;">
</g>
<g style="fill:#000000; fill-opacity:1.0000; 
stroke:#000000; stroke-width:0.0000; stroke-opacity:1; 
stroke-linecap:round; stroke-linejoin:round;">
<circle cx="3.9284" cy="11.9626" r="0.2000" /> 
</g>
<g style="fill:#000000; fill-opacity:1.0000; 
stroke:#000000; stroke-width:0.0212; stroke-opacity:1; 
stroke-linecap:round; stroke-linejoin:round;">
</g>
<g style="fill:#000000; fill-opacity:1.0000; 
stroke:#000000; stroke-width:0.0000; stroke-opacity:1; 
stroke-linecap:round; stroke-linejoin:round;">
<circle cx="1.8250" cy="19.9126" r="0.5000" /> 
</g>
<g style="fill:#000000; fill-opacity:1.0000; 
stroke:#000000; stroke-width:0.0212; stroke-opacity:1; 
stroke-linecap:round; stroke-linejoin:round;">
</g>
<g style="fill:#000000; fill-opacity:1.0000; 
stroke:#000000; stroke-width:0.0000; stroke-opacity:1; 
stroke-linecap:round; stroke-linejoin:round;">
<circle cx="4.3650" cy="19.9126" r="0.5000" /> 
</g>
<g style="fill:#000000; fill-opacity:1.0000; 
stroke:#000000; stroke-width:0.0212; stroke-opacity:1; 
stroke-linecap:round; stroke-linejoin:round;">
</g>
<g style="fill:#000000; fill-opacity:1.0000; 
stroke:#000000; stroke-width:0.0000; stroke-opacity:1; 
stroke-linecap:round; stroke-linejoin:round;">
<circle cx="6.9050" cy="19.9126" r="0.5000" /> 
</g>
<g style="fill:#000000; fill-opacity:1.0000; 
stroke:#000000; stroke-width:0.0212; stroke-opacity:1; 
stroke-linecap:round; stroke-linejoin:round;">
</g>
<g style="fill:#000000; fill-opacity:1.0000; 
stroke:#000000; stroke-width:0.0000; stroke-opacity:1; 
stroke-linecap:round; stroke-linejoin:round;">
<circle cx="9.4450" cy="19.9126" r="0.5000" /> 
</g>
<g style="fill:#000000; fill-opacity:1.0000; 
stroke:#000000; stroke-width:0.0212; stroke-opacity:1; 
stroke-linecap:round; stroke-linejoin:round;">
</g>
<g style="fill:#000000; fill-opacity:1.0000; 
stroke:#000000; stroke-width:0.0000; stroke-opacity:1; 
stroke-linecap:round; stroke-linejoin:round;">
<circle cx="11.9850" cy="19.9126" r="0.5000" /> 
</g>
<g style="fill:#000000; fill-opacity:1.0000; 
stroke:#000000; stroke-width:0.0212; stroke-opacity:1; 
stroke-linecap:round; stroke-linejoin:round;">
</g>
<g style="fill:#000000; fill-opacity:1.0000; 
stroke:#000000; stroke-width:0.0000; stroke-opacity:1; 
stroke-linecap:round; stroke-linejoin:round;">
<circle cx="14.5250" cy="19.9126" r="0.5000" /> 
</g>
<g style="fill:#000000; fill-opacity:1.0000; 
stroke:#000000; stroke-width:0.0212; stroke-opacity:1; 
stroke-linecap:round; stroke-linejoin:round;">
</g>
<g style="fill:#000000; fill-opacity:1.0000; 
stroke:#000000; stroke-width:0.0000; stroke-opacity:1; 
stroke-linecap:round; stroke-linejoin:round;">
<circle cx="17.0650" cy="19.9126" r="0.5000" /> 
</g>
<g style="fill:#000000; fill-opacity:1.0000; 
stroke:#000000; stroke-width:0.0212; stroke-opacity:1; 
stroke-linecap:round; stroke-linejoin:round;">
</g>
<g style="fill:#000000; fill-opacity:1.0000; 
stroke:#000000; stroke-width:0.0000; stroke-opacity:1; 
stroke-linecap:round; stroke-linejoin:round;">
<circle cx="19.6050" cy="19.9126" r="0.5000" /> 
</g>
<g style="fill:#000000; fill-opacity:1.0000; 
stroke:#000000; stroke-width:0.0212; stroke-opacity:1; 
stroke-linecap:round; stroke-linejoin:round;">
</g>
<g style="fill:#000000; fill-opacity:1.0000; 
stroke:#000000; stroke-width:0.0000; stroke-opacity:1; 
stroke-linecap:round; stroke-linejoin:round;">
<circle cx="1.8250" cy="4.6726" r="0.5000" /> 
</g>
<g style="fill:#000000; fill-opacity:1.0000; 
stroke:#000000; stroke-width:0.0212; stroke-opacity:1; 
stroke-linecap:round; stroke-linejoin:round;">
</g>
<g style="fill:#000000; fill-opacity:1.0000; 
stroke:#000000; stroke-width:0.0000; stroke-opacity:1; 
stroke-linecap:round; stroke-linejoin:round;">
<circle cx="4.3650" cy="4.6726" r="0.5000" /> 
</g>
<g style="fill:#000000; fill-opacity:1.0000; 
stroke:#000000; stroke-width:0.0212; stroke-opacity:1; 
stroke-linecap:round; stroke-linejoin:round;">
</g>
<g style="fill:#000000; fill-opacity:1.0000; 
stroke:#000000; stroke-width:0.0000; stroke-opacity:1; 
stroke-linecap:round; stroke-linejoin:round;">
<circle cx="6.9050" cy="4.6726" r="0.5000" /> 
</g>
<g style="fill:#000000; fill-opacity:1.0000; 
stroke:#000000; stroke-width:0.0212; stroke-opacity:1; 
stroke-linecap:round; stroke-linejoin:round;">
</g>
<g style="fill:#000000; fill-opacity:1.0000; 
stroke:#000000; stroke-width:0.0000; stroke-opacity:1; 
stroke-linecap:round; stroke-linejoin:round;">
<circle cx="9.4450" cy="4.6726" r="0.5000" /> 
</g>
<g style="fill:#000000; fill-opacity:1.0000; 
stroke:#000000; stroke-width:0.0212; stroke-opacity:1; 
stroke-linecap:round; stroke-linejoin:round;">
</g>
<g style="fill:#000000; fill-opacity:1.0000; 
stroke:#000000; stroke-width:0.0000; stroke-opacity:1; 
stroke-linecap:round; stroke-linejoin:round;">
<circle cx="11.9850" cy="4.6726" r="0.5000" /> 
</g>
<g style="fill:#000000; fill-opacity:1.0000; 
stroke:#000000; stroke-width:0.0212; stroke-opacity:1; 
stroke-linecap:round; stroke-linejoin:round;">
</g>
<g style="fill:#000000; fill-opacity:1.0000; 
stroke:#000000; stroke-width:0.0000; stroke-opacity:1; 
stroke-linecap:round; stroke-linejoin:round;">
<circle cx="14.5250" cy="4.6726" r="0.5000" /> 
</g>
<g style="fill:#000000; fill-opacity:1.0000; 
stroke:#000000; stroke-width:0.0212; stroke-opacity:1; 
stroke-linecap:round; stroke-linejoin:round;">
</g>
<g style="fill:#000000; fill-opacity:1.0000; 
stroke:#000000; stroke-width:0.0000; stroke-opacity:1; 
stroke-linecap:round; stroke-linejoin:round;">
<circle cx="17.0650" cy="4.6726" r="0.5000" /> 
</g>
<g style="fill:#000000; fill-opacity:1.0000; 
stroke:#000000; stroke-width:0.0212; stroke-opacity:1; 
stroke-linecap:round; stroke-linejoin:round;">
</g>
<g style="fill:#000000; fill-opacity:1.0000; 
stroke:#000000; stroke-width:0.0000; stroke-opacity:1; 
stroke-linecap:round; stroke-linejoin:round;">
<circle cx="19.6050" cy="4.6726" r="0.5000" /> 
</g>
<g style="fill:#000000; fill-opacity:1.0000; 
stroke:#000000; stroke-width:0.0212; stroke-opacity:1; 
stroke-linecap:round; stroke-linejoin:round;">
</g>
<g style="fill:#FFFFFF; fill-opacity:1.0000; 
stroke:#FFFFFF; stroke-width:0.0212; stroke-opacity:1; 
stroke-linecap:round; stroke-linejoin:round;">
<g >
</g>
<g >
</g>
<g >
</g>
<g >
</g>
<g >
</g>
<g >
</g>
<g >
</g>
<g >
</g>
<g >
</g>
<g >
</g>
<g >
</g>
<g >
</g>
<g >
</g>
<g >
</g>
<g >
</g>
<g >
</g>
<g >
</g>
</g>
<g style="fill:#FFFFFF; fill-opacity:1.0000; 
stroke:#FFFFFF; stroke-width:0.0212; stroke-opacity:1; 
stroke-linecap:round; stroke-linejoin:round;">
</g>
<g style="fill:#2F2D31; fill-opacity:1.0000; 
stroke:#2F2D31; stroke-width:0.0212; stroke-opacity:1; 
stroke-linecap:round; stroke-linejoin:round;">
</g>
<g style="fill:#2F2D31; fill-opacity:1.0000; 
stroke:#2F2D31; stroke-width:0.0500; stroke-opacity:1; 
stroke-linecap:round; stroke-linejoin:round;">
</g>
<g style="fill:#2F2D31; fill-opacity:0.0; 
stroke:#2F2D31; stroke-width:0.0500; stroke-opacity:1; 
stroke-linecap:round; stroke-linejoin:round;">
<path d="M21.0050 3.2826
L0.4350 3.2826
" />
<path d="M21.0050 21.3026
L21.0050 3.2826
" />
<path d="M0.4350 21.3026
L21.0050 21.3026
" />
<path d="M0.4350 3.2826
L0.4350 21.3026
" />
<g >
</g>
<g >
</g>
<g >
</g>
<g >
</g>
<g >
</g>
<g >
</g>
<g >
</g>
<g >
</g>
<g >
</g>
<g >
</g>
<g >
</g>
<g >
</g>
<g >
</g>
<g >
</g>
<g >
</g>
<g >
</g>
<g >
</g>
</g> 
</svg>
