<?xml version="1.0" standalone="no"?>
 <!DOCTYPE svg PUBLIC "-//W3C//DTD SVG 1.1//EN" 
 "http://www.w3.org/Graphics/SVG/1.1/DTD/svg11.dtd"> 
<svg
  xmlns:svg="http://www.w3.org/2000/svg"
  xmlns="http://www.w3.org/2000/svg"
  xmlns:xlink="http://www.w3.org/1999/xlink"
  version="1.1"
  width="22.7584mm" height="24.5618mm" viewBox="0.0000 0.0000 22.7584 24.5618">
<title>SVG Image created as working-brd.svg date 2023/09/25 17:24:57 </title>
  <desc>Image generated by PCBNEW </desc>
<g style="fill:#000000; fill-opacity:1.0000;stroke:#000000; stroke-opacity:1.0000;
stroke-linecap:round; stroke-linejoin:round;"
 transform="translate(0 0) scale(1 1)">
</g>
<g style="fill:#000000; fill-opacity:0.0; 
stroke:#000000; stroke-width:0.0000; stroke-opacity:1; 
stroke-linecap:round; stroke-linejoin:round;">
</g>
<g style="fill:#000000; fill-opacity:1.0000; 
stroke:#000000; stroke-width:0.0212; stroke-opacity:1; 
stroke-linecap:round; stroke-linejoin:round;">
<rect x="-5.000000" y="-5.000000" width="32.783250" height="34.585239" rx="0.000000" />
</g>
<g style="fill:#FFFFFF; fill-opacity:1.0000; 
stroke:#FFFFFF; stroke-width:0.0212; stroke-opacity:1; 
stroke-linecap:round; stroke-linejoin:round;">
<g >
</g>
<g style="fill:#B2803A; fill-opacity:1.0000; 
stroke:#B2803A; stroke-width:0.0212; stroke-opacity:1; 
stroke-linecap:round; stroke-linejoin:round;">
</g>
<g style="fill:#B2803A; fill-opacity:1.0000; 
stroke:#B2803A; stroke-width:0.0000; stroke-opacity:1; 
stroke-linecap:round; stroke-linejoin:round;">
<path style="fill:#B2803A; fill-opacity:1.0000; 
stroke:#B2803A; stroke-width:0.0000; stroke-opacity:1; 
stroke-linecap:round; stroke-linejoin:round;fill-rule:evenodd;"
d="M 2.6750,20.7626
0.9750,20.7626
0.9750,19.0626
2.6750,19.0626
Z" /> 
<circle cx="4.3650" cy="19.9126" r="0.8500" /> 
<circle cx="6.9050" cy="19.9126" r="0.8500" /> 
<circle cx="9.4450" cy="19.9126" r="0.8500" /> 
<circle cx="11.9850" cy="19.9126" r="0.8500" /> 
<circle cx="14.5250" cy="19.9126" r="0.8500" /> 
<circle cx="17.0650" cy="19.9126" r="0.8500" /> 
<circle cx="19.6050" cy="19.9126" r="0.8500" /> 
</g>
<g >
</g>
<g style="fill:#B2803A; fill-opacity:1.0000; 
stroke:#B2803A; stroke-width:0.0000; stroke-opacity:1; 
stroke-linecap:round; stroke-linejoin:round;">
<path style="fill:#B2803A; fill-opacity:1.0000; 
stroke:#B2803A; stroke-width:0.0000; stroke-opacity:1; 
stroke-linecap:round; stroke-linejoin:round;fill-rule:evenodd;"
d="M 2.6750,5.5226
0.9750,5.5226
0.9750,3.8226
2.6750,3.8226
Z" /> 
<circle cx="4.3650" cy="4.6726" r="0.8500" /> 
<circle cx="6.9050" cy="4.6726" r="0.8500" /> 
<circle cx="9.4450" cy="4.6726" r="0.8500" /> 
<circle cx="11.9850" cy="4.6726" r="0.8500" /> 
<circle cx="14.5250" cy="4.6726" r="0.8500" /> 
<circle cx="17.0650" cy="4.6726" r="0.8500" /> 
<circle cx="19.6050" cy="4.6726" r="0.8500" /> 
</g>
<g >
</g>
<g >
</g>
<g >
</g>
<g >
</g>
<g >
</g>
<g >
</g>
<g >
</g>
<g >
</g>
<g >
</g>
<g >
</g>
<g >
</g>
<g >
</g>
<g >
</g>
<g style="fill:#121212; fill-opacity:1.0000; 
stroke:#121212; stroke-width:0.0000; stroke-opacity:1; 
stroke-linecap:round; stroke-linejoin:round;">
<circle cx="14.5250" cy="17.6424" r="0.4000" /> 
</g>
<g style="fill:#121212; fill-opacity:1.0000; 
stroke:#121212; stroke-width:0.0212; stroke-opacity:1; 
stroke-linecap:round; stroke-linejoin:round;">
</g>
<g style="fill:#121212; fill-opacity:1.0000; 
stroke:#121212; stroke-width:0.0000; stroke-opacity:1; 
stroke-linecap:round; stroke-linejoin:round;">
<circle cx="15.3494" cy="14.7479" r="0.4000" /> 
</g>
<g style="fill:#121212; fill-opacity:1.0000; 
stroke:#121212; stroke-width:0.0212; stroke-opacity:1; 
stroke-linecap:round; stroke-linejoin:round;">
</g>
<g style="fill:#121212; fill-opacity:1.0000; 
stroke:#121212; stroke-width:0.0000; stroke-opacity:1; 
stroke-linecap:round; stroke-linejoin:round;">
<circle cx="6.1184" cy="8.0323" r="0.4000" /> 
</g>
<g style="fill:#121212; fill-opacity:1.0000; 
stroke:#121212; stroke-width:0.0212; stroke-opacity:1; 
stroke-linecap:round; stroke-linejoin:round;">
</g>
<g style="fill:#121212; fill-opacity:1.0000; 
stroke:#121212; stroke-width:0.0000; stroke-opacity:1; 
stroke-linecap:round; stroke-linejoin:round;">
<circle cx="15.2723" cy="8.8621" r="0.4000" /> 
</g>
<g style="fill:#121212; fill-opacity:1.0000; 
stroke:#121212; stroke-width:0.0212; stroke-opacity:1; 
stroke-linecap:round; stroke-linejoin:round;">
</g>
<g style="fill:#121212; fill-opacity:1.0000; 
stroke:#121212; stroke-width:0.0000; stroke-opacity:1; 
stroke-linecap:round; stroke-linejoin:round;">
<circle cx="13.4305" cy="11.4438" r="0.4000" /> 
</g>
<g style="fill:#121212; fill-opacity:1.0000; 
stroke:#121212; stroke-width:0.0212; stroke-opacity:1; 
stroke-linecap:round; stroke-linejoin:round;">
</g>
<g style="fill:#121212; fill-opacity:1.0000; 
stroke:#121212; stroke-width:0.0000; stroke-opacity:1; 
stroke-linecap:round; stroke-linejoin:round;">
<circle cx="13.1430" cy="16.3091" r="0.4000" /> 
</g>
<g style="fill:#121212; fill-opacity:1.0000; 
stroke:#121212; stroke-width:0.0212; stroke-opacity:1; 
stroke-linecap:round; stroke-linejoin:round;">
</g>
<g style="fill:#121212; fill-opacity:1.0000; 
stroke:#121212; stroke-width:0.0000; stroke-opacity:1; 
stroke-linecap:round; stroke-linejoin:round;">
<circle cx="15.2534" cy="7.1330" r="0.4000" /> 
</g>
<g style="fill:#121212; fill-opacity:1.0000; 
stroke:#121212; stroke-width:0.0212; stroke-opacity:1; 
stroke-linecap:round; stroke-linejoin:round;">
</g>
<g style="fill:#121212; fill-opacity:1.0000; 
stroke:#121212; stroke-width:0.0000; stroke-opacity:1; 
stroke-linecap:round; stroke-linejoin:round;">
<circle cx="10.3850" cy="11.4626" r="0.4000" /> 
</g>
<g style="fill:#121212; fill-opacity:1.0000; 
stroke:#121212; stroke-width:0.0212; stroke-opacity:1; 
stroke-linecap:round; stroke-linejoin:round;">
</g>
<g style="fill:#121212; fill-opacity:1.0000; 
stroke:#121212; stroke-width:0.0000; stroke-opacity:1; 
stroke-linecap:round; stroke-linejoin:round;">
<circle cx="6.2100" cy="9.1876" r="0.4000" /> 
</g>
<g style="fill:#121212; fill-opacity:1.0000; 
stroke:#121212; stroke-width:0.0212; stroke-opacity:1; 
stroke-linecap:round; stroke-linejoin:round;">
</g>
<g style="fill:#121212; fill-opacity:1.0000; 
stroke:#121212; stroke-width:0.0000; stroke-opacity:1; 
stroke-linecap:round; stroke-linejoin:round;">
<circle cx="15.2725" cy="10.5785" r="0.4000" /> 
</g>
<g style="fill:#121212; fill-opacity:1.0000; 
stroke:#121212; stroke-width:0.0212; stroke-opacity:1; 
stroke-linecap:round; stroke-linejoin:round;">
</g>
<g style="fill:#121212; fill-opacity:1.0000; 
stroke:#121212; stroke-width:0.0000; stroke-opacity:1; 
stroke-linecap:round; stroke-linejoin:round;">
<circle cx="6.9050" cy="7.1111" r="0.4000" /> 
</g>
<g style="fill:#121212; fill-opacity:1.0000; 
stroke:#121212; stroke-width:0.0212; stroke-opacity:1; 
stroke-linecap:round; stroke-linejoin:round;">
</g>
<g style="fill:#121212; fill-opacity:1.0000; 
stroke:#121212; stroke-width:0.0000; stroke-opacity:1; 
stroke-linecap:round; stroke-linejoin:round;">
<circle cx="6.3850" cy="10.3498" r="0.4000" /> 
</g>
<g style="fill:#121212; fill-opacity:1.0000; 
stroke:#121212; stroke-width:0.0212; stroke-opacity:1; 
stroke-linecap:round; stroke-linejoin:round;">
</g>
<g style="fill:#121212; fill-opacity:1.0000; 
stroke:#121212; stroke-width:0.0000; stroke-opacity:1; 
stroke-linecap:round; stroke-linejoin:round;">
<circle cx="9.2400" cy="16.3086" r="0.4000" /> 
</g>
<g style="fill:#121212; fill-opacity:1.0000; 
stroke:#121212; stroke-width:0.0212; stroke-opacity:1; 
stroke-linecap:round; stroke-linejoin:round;">
</g>
<g style="fill:#121212; fill-opacity:1.0000; 
stroke:#121212; stroke-width:0.0000; stroke-opacity:1; 
stroke-linecap:round; stroke-linejoin:round;">
<circle cx="3.9284" cy="11.9626" r="0.4000" /> 
</g>
<g style="fill:#121212; fill-opacity:1.0000; 
stroke:#121212; stroke-width:0.0212; stroke-opacity:1; 
stroke-linecap:round; stroke-linejoin:round;">
</g>
<g >
</g>
<g style="fill:#B2803A; fill-opacity:1.0000; 
stroke:#B2803A; stroke-width:0.0212; stroke-opacity:1; 
stroke-linecap:round; stroke-linejoin:round;">
</g>
<g style="fill:#B2803A; fill-opacity:1.0000; 
stroke:#B2803A; stroke-width:0.2500; stroke-opacity:1; 
stroke-linecap:round; stroke-linejoin:round;">
</g>
<g style="fill:#B2803A; fill-opacity:0.0; 
stroke:#B2803A; stroke-width:0.2500; stroke-opacity:1; 
stroke-linecap:round; stroke-linejoin:round;">
<path d="M14.5250 19.9126
L14.5250 17.6424
" />
<path d="M14.2811 9.8533
L10.2757 5.8479
" />
<path d="M9.4450 5.8479
L7.2606 8.0323
" />
<path d="M9.4450 4.6726
L9.4450 5.8479
" />
<path d="M10.2757 5.8479
L9.4450 5.8479
" />
<path d="M14.2811 13.6796
L14.2811 9.8533
" />
<path d="M15.3494 14.7479
L14.2811 13.6796
" />
<path d="M14.2811 9.8533
L15.2723 8.8621
" />
<path d="M7.2606 8.0323
L6.1184 8.0323
" />
<path d="M13.9145 15.9396
L13.4305 15.4556
" />
<path d="M11.9850 18.7373
L13.9145 16.8078
" />
<path d="M11.9850 19.9126
L11.9850 18.7373
" />
<path d="M13.4305 15.4556
L13.4305 11.4438
" />
<path d="M13.9145 16.8078
L13.9145 15.9396
" />
<path d="M10.6203 19.9126
L10.6203 18.8318
" />
<path d="M9.4450 19.9126
L10.6203 19.9126
" />
<path d="M10.6203 18.8318
L13.1430 16.3091
" />
<path d="M10.3850 15.3626
L10.9100 15.8876
" />
<path d="M11.9850 4.6726
L13.1603 4.6726
" />
<path d="M10.3850 11.4626
L10.3850 15.3626
" />
<path d="M10.9100 15.8876
L10.9100 16.7626
" />
<path d="M13.1603 5.0399
L15.2534 7.1330
" />
<path d="M13.1603 4.6726
L13.1603 5.0399
" />
<path d="M15.2725 10.5785
L17.0650 8.7860
" />
<path d="M17.0650 8.7860
L17.0650 5.8479
" />
<path d="M17.0650 4.6726
L17.0650 5.8479
" />
<path d="M6.9050 4.6726
L6.9050 7.1111
" />
<path d="M4.3650 8.6438
L4.3650 8.0781
" />
<path d="M4.3650 8.0781
L4.3650 4.6726
" />
<path d="M6.0710 10.3498
L4.3650 8.6438
" />
<path d="M6.3850 10.3498
L6.0710 10.3498
" />
<path d="M5.5182 11.9626
L9.2400 15.6844
" />
<path d="M9.2400 15.6844
L9.2400 16.3086
" />
<path d="M3.9284 11.9626
L5.5182 11.9626
" />
</g>
<g >
</g>
<g style="fill:#B2803A; fill-opacity:0.0; 
stroke:#B2803A; stroke-width:0.2500; stroke-opacity:1; 
stroke-linecap:round; stroke-linejoin:round;">
<g >
</g>
<g style="fill:#B2803A; fill-opacity:1.0000; 
stroke:#B2803A; stroke-width:0.0000; stroke-opacity:1; 
stroke-linecap:round; stroke-linejoin:round;">
<path style="fill:#B2803A; fill-opacity:1.0000; 
stroke:#B2803A; stroke-width:0.0000; stroke-opacity:1; 
stroke-linecap:round; stroke-linejoin:round;fill-rule:evenodd;"
d="M 3.3481,5.5857
3.3828,5.6137
3.4112,5.6466
3.5831,5.7893
3.5876,5.7919
3.6691,5.8395
3.7178,5.8911
3.7315,5.9483
3.7315,8.5650
3.7310,8.5762
3.7293,8.5837
3.7295,8.5916
3.7295,8.5916
3.7314,8.6518
3.7315,8.6557
3.7315,8.6837
3.7320,8.6876
3.7320,8.6876
3.7320,8.6877
3.7329,8.6995
3.7343,8.7437
3.7400,8.7631
3.7440,8.7825
3.7465,8.8026
3.7494,8.8100
3.7494,8.8100
3.7628,8.8437
3.7666,8.8549
3.7768,8.8898
3.7790,8.8974
3.7830,8.9042
3.7830,8.9042
3.7893,8.9148
3.7980,8.9326
3.8054,8.9514
3.8101,8.9578
3.8101,8.9578
3.8314,8.9872
3.8380,8.9971
3.8562,9.0280
3.8605,9.0352
3.8748,9.0495
3.8876,9.0645
3.8995,9.0809
3.9056,9.0860
3.9336,9.1091
3.9424,9.1171
5.5439,10.7187
5.5640,10.7447
5.6460,10.8868
5.7737,11.0287
5.9282,11.1409
5.9343,11.1436
5.9343,11.1436
5.9969,11.1715
6.1027,11.2186
6.1961,11.2385
6.2831,11.2569
6.2831,11.2569
6.2895,11.2583
6.4805,11.2583
6.4869,11.2569
6.4869,11.2569
6.5739,11.2385
6.6673,11.2186
6.7731,11.1715
6.8357,11.1436
6.8357,11.1436
6.8418,11.1409
6.9963,11.0287
7.1240,10.8868
7.2195,10.7214
7.2785,10.5397
7.2985,10.3498
7.2785,10.1599
7.2195,9.9783
7.1240,9.8129
6.9963,9.6710
6.8418,9.5587
6.8357,9.5560
6.8357,9.5560
6.6733,9.4837
6.6733,9.4837
6.6673,9.4810
6.5739,9.4612
6.4869,9.4427
6.4869,9.4427
6.4805,9.4413
6.2895,9.4413
6.2831,9.4427
6.2831,9.4427
6.1658,9.4676
6.0951,9.4622
6.0506,9.4335
5.7332,9.1161
5.6992,9.0538
5.7042,8.9830
5.7468,8.9261
5.8133,8.9013
5.8485,8.9037
6.0165,8.9394
6.0165,8.9394
6.0229,8.9408
6.2139,8.9408
6.2203,8.9394
6.2203,8.9394
6.3095,8.9205
6.4007,8.9011
6.4067,8.8984
6.5691,8.8261
6.5691,8.8261
6.5752,8.8234
6.5990,8.8061
6.7243,8.7151
6.7297,8.7112
6.7341,8.7063
6.7390,8.7019
6.7401,8.7031
6.7934,8.6703
6.8266,8.6658
7.1818,8.6658
7.1930,8.6663
7.2005,8.6680
7.2084,8.6678
7.2084,8.6678
7.2686,8.6659
7.2725,8.6658
7.3005,8.6658
7.3044,8.6653
7.3045,8.6653
7.3163,8.6644
7.3486,8.6634
7.3526,8.6632
7.3605,8.6630
7.3799,8.6573
7.3993,8.6533
7.4115,8.6518
7.4115,8.6518
7.4194,8.6508
7.4268,8.6479
7.4268,8.6479
7.4605,8.6345
7.4717,8.6307
7.5066,8.6205
7.5066,8.6205
7.5142,8.6183
7.5210,8.6143
7.5210,8.6143
7.5316,8.6080
7.5494,8.5993
7.5682,8.5919
7.6040,8.5659
7.6139,8.5594
7.6451,8.5409
7.6451,8.5409
7.6520,8.5369
7.6663,8.5225
7.6813,8.5097
7.6913,8.5025
7.6977,8.4978
7.7259,8.4637
7.7339,8.4549
9.6705,6.5183
9.7328,6.4843
9.7596,6.4814
9.9611,6.4814
10.0292,6.5014
10.0502,6.5183
13.6107,10.0788
13.6447,10.1411
13.6476,10.1679
13.6476,10.4093
13.6276,10.4774
13.5739,10.5239
13.5216,10.5353
13.3350,10.5353
13.3286,10.5367
13.3286,10.5367
13.2416,10.5552
13.1482,10.5750
13.1422,10.5777
13.1422,10.5777
12.9798,10.6500
12.9798,10.6500
12.9737,10.6527
12.8192,10.7650
12.6915,10.9069
12.5960,11.0723
12.5370,11.2539
12.5363,11.2605
12.5363,11.2605
12.5202,11.4130
12.5170,11.4438
12.5177,11.4504
12.5287,11.5556
12.5370,11.6337
12.5960,11.8154
12.6915,11.9808
12.7646,12.0620
12.7954,12.1260
12.7970,12.1463
12.7970,15.3769
12.7965,15.3880
12.7948,15.3955
12.7950,15.4004
12.7691,15.4651
12.7213,15.5024
12.6923,15.5153
12.6923,15.5153
12.6862,15.5180
12.6809,15.5219
12.6809,15.5219
12.6536,15.5417
12.5317,15.6303
12.5273,15.6352
12.5273,15.6352
12.5235,15.6394
12.4040,15.7722
12.4007,15.7779
12.3304,15.8995
12.3085,15.9376
12.2495,16.1192
12.2488,16.1258
12.2488,16.1258
12.2321,16.2844
12.2051,16.3501
12.1959,16.3603
10.2280,18.3282
10.2198,18.3357
10.2133,18.3398
10.2079,18.3456
10.1667,18.3895
10.1639,18.3923
10.1442,18.4121
10.1417,18.4152
10.1340,18.4243
10.1037,18.4565
10.0999,18.4634
10.0999,18.4634
10.0940,18.4743
10.0831,18.4908
10.0707,18.5068
10.0675,18.5140
10.0675,18.5141
10.0531,18.5474
10.0479,18.5580
10.0468,18.5600
10.0411,18.5704
9.9907,18.6205
9.9213,18.6354
9.8886,18.6285
9.8332,18.6089
9.7981,18.5964
9.7981,18.5964
9.7932,18.5947
9.7881,18.5938
9.7881,18.5938
9.5784,18.5564
9.5784,18.5564
9.5733,18.5555
9.4995,18.5546
9.3551,18.5528
9.3551,18.5528
9.3499,18.5528
9.1291,18.5866
8.9168,18.6560
8.8904,18.6697
8.7283,18.7541
8.7186,18.7591
8.7145,18.7622
8.7145,18.7622
8.5950,18.8520
8.5400,18.8933
8.5364,18.8970
8.4287,19.0097
8.3856,19.0548
8.2782,19.2122
8.2233,19.2572
8.1528,19.2654
8.0890,19.2342
8.0683,19.2097
7.9878,19.0852
7.9878,19.0852
7.9850,19.0809
7.8347,18.9157
7.8306,18.9125
7.8306,18.9125
7.6634,18.7804
7.6634,18.7804
7.6594,18.7772
7.6548,18.7747
7.6029,18.7461
7.4638,18.6693
7.4589,18.6675
7.4589,18.6675
7.2581,18.5964
7.2581,18.5964
7.2532,18.5947
7.2481,18.5938
7.2481,18.5938
7.0384,18.5564
7.0384,18.5564
7.0333,18.5555
6.9595,18.5546
6.8151,18.5528
6.8151,18.5528
6.8099,18.5528
6.5891,18.5866
6.3768,18.6560
6.3504,18.6697
6.1883,18.7541
6.1786,18.7591
6.1745,18.7622
6.1745,18.7622
6.0550,18.8520
6.0000,18.8933
5.9964,18.8970
5.8887,19.0097
5.8456,19.0548
5.7382,19.2122
5.6833,19.2572
5.6128,19.2654
5.5490,19.2342
5.5283,19.2097
5.4478,19.0852
5.4478,19.0852
5.4450,19.0809
5.2947,18.9157
5.2906,18.9125
5.2906,18.9125
5.1234,18.7804
5.1234,18.7804
5.1194,18.7772
5.1148,18.7747
5.0629,18.7461
4.9238,18.6693
4.9189,18.6675
4.9189,18.6675
4.7181,18.5964
4.7181,18.5964
4.7132,18.5947
4.7081,18.5938
4.7081,18.5938
4.4984,18.5564
4.4984,18.5564
4.4933,18.5555
4.4195,18.5546
4.2751,18.5528
4.2751,18.5528
4.2699,18.5528
4.0491,18.5866
3.8368,18.6560
3.8104,18.6697
3.6483,18.7541
3.6386,18.7591
3.6345,18.7622
3.6345,18.7622
3.5150,18.8520
3.4600,18.8933
3.4035,18.9523
3.3793,18.9777
3.3178,19.0131
3.2468,19.0097
3.1891,18.9684
3.1702,18.9349
3.1288,18.8243
3.1256,18.8159
3.0383,18.6994
2.9217,18.6120
2.7853,18.5609
2.7231,18.5541
1.0695,18.5541
1.0014,18.5341
0.9549,18.4805
0.9435,18.4281
0.9435,11.9626
3.0149,11.9626
3.0156,11.9692
3.0291,12.0980
3.0349,12.1525
3.0939,12.3342
3.1894,12.4996
3.3171,12.6415
3.4716,12.7537
3.4777,12.7564
3.4777,12.7564
3.6401,12.8287
3.6461,12.8314
3.7395,12.8513
3.8265,12.8697
3.8265,12.8697
3.8329,12.8711
4.0239,12.8711
4.0303,12.8697
4.0303,12.8697
4.1173,12.8513
4.2107,12.8314
4.2167,12.8287
4.3791,12.7564
4.3791,12.7564
4.3852,12.7537
4.5397,12.6415
4.5441,12.6366
4.5490,12.6322
4.5501,12.6334
4.6034,12.6006
4.6366,12.5961
5.2036,12.5961
5.2717,12.6161
5.2927,12.6330
8.4071,15.7474
8.4411,15.8098
8.4361,15.8806
8.4271,15.8995
8.4055,15.9371
8.3465,16.1187
8.3458,16.1253
8.3458,16.1253
8.3290,16.2844
8.3265,16.3086
8.3272,16.3152
8.3309,16.3501
8.3465,16.4985
8.4055,16.6802
8.5010,16.8456
8.5054,16.8505
8.5054,16.8505
8.6116,16.9685
8.6287,16.9875
8.7832,17.0997
8.7893,17.1024
8.7893,17.1024
8.9517,17.1747
8.9577,17.1774
9.0511,17.1973
9.1381,17.2157
9.1381,17.2157
9.1445,17.2171
9.3355,17.2171
9.3419,17.2157
9.3419,17.2157
9.4289,17.1973
9.5223,17.1774
9.5283,17.1747
9.6907,17.1024
9.6907,17.1024
9.6968,17.0997
9.8513,16.9875
9.8684,16.9685
9.9746,16.8505
9.9746,16.8505
9.9790,16.8456
10.0745,16.6802
10.1335,16.4985
10.1491,16.3501
10.1528,16.3152
10.1535,16.3086
10.1510,16.2844
10.1342,16.1253
10.1342,16.1253
10.1335,16.1187
10.0745,15.9371
9.9790,15.7717
9.9037,15.6880
9.8730,15.6240
9.8714,15.6077
9.8709,15.5924
9.8707,15.5845
9.8650,15.5651
9.8610,15.5457
9.8595,15.5335
9.8595,15.5335
9.8585,15.5256
9.8493,15.5024
9.8422,15.4845
9.8384,15.4733
9.8282,15.4384
9.8282,15.4384
9.8260,15.4308
9.8220,15.4240
9.8220,15.4240
9.8157,15.4134
9.8070,15.3956
9.7996,15.3768
9.7736,15.3410
9.7670,15.3311
9.7486,15.2999
9.7486,15.2999
9.7445,15.2931
9.7302,15.2787
9.7174,15.2637
9.7101,15.2537
9.7055,15.2473
9.6714,15.2191
9.6626,15.2111
6.0219,11.5704
6.0143,11.5621
6.0102,11.5556
5.9605,11.5090
5.9577,11.5062
5.9380,11.4865
5.9348,11.4840
5.9258,11.4763
5.9214,11.4722
5.8935,11.4460
5.8866,11.4422
5.8866,11.4422
5.8758,11.4363
5.8592,11.4254
5.8532,11.4208
5.8432,11.4130
5.8360,11.4099
5.8360,11.4099
5.8027,11.3954
5.7920,11.3902
5.7533,11.3689
5.7336,11.3639
5.7149,11.3575
5.7036,11.3526
5.7036,11.3526
5.6963,11.3494
5.6885,11.3482
5.6885,11.3482
5.6527,11.3425
5.6411,11.3401
5.6059,11.3311
5.6059,11.3311
5.5982,11.3291
5.5780,11.3291
5.5583,11.3276
5.5461,11.3256
5.5383,11.3244
5.5304,11.3251
5.4942,11.3286
5.4824,11.3291
4.6366,11.3291
4.5685,11.3091
4.5493,11.2928
4.5490,11.2931
4.5441,11.2887
4.5397,11.2838
4.3852,11.1715
4.3791,11.1688
4.3791,11.1688
4.2167,11.0965
4.2167,11.0965
4.2107,11.0938
4.1173,11.0740
4.0303,11.0555
4.0303,11.0555
4.0239,11.0541
3.8329,11.0541
3.8265,11.0555
3.8265,11.0555
3.7395,11.0740
3.6461,11.0938
3.6401,11.0965
3.6401,11.0965
3.4777,11.1688
3.4777,11.1688
3.4716,11.1715
3.3171,11.2838
3.3127,11.2887
3.3127,11.2887
3.2036,11.4099
3.1894,11.4257
3.0939,11.5911
3.0349,11.7727
3.0149,11.9626
0.9435,11.9626
0.9435,6.1571
0.9635,6.0890
1.0172,6.0425
1.0695,6.0311
2.7231,6.0311
2.7853,6.0244
2.9217,5.9732
3.0383,5.8859
3.1256,5.7693
3.1478,5.7101
3.1696,5.6520
3.2122,5.5952
3.2788,5.5705
Z" /> 
<path style="fill:#B2803A; fill-opacity:1.0000; 
stroke:#B2803A; stroke-width:0.0000; stroke-opacity:1; 
stroke-linecap:round; stroke-linejoin:round;fill-rule:evenodd;"
d="M 12.1811,4.4386
12.2276,4.4923
12.2390,4.5446
12.2390,5.9911
12.2431,6.0050
12.2565,6.0070
12.2632,6.0062
12.2733,6.0040
12.4773,5.9428
12.4868,5.9391
12.6781,5.8454
12.6869,5.8401
12.8603,5.7164
12.8682,5.7098
13.0191,5.5594
13.0257,5.5516
13.1530,5.3744
13.1543,5.3753
13.2014,5.3320
13.2713,5.3198
13.3368,5.3473
13.3646,5.3791
13.4250,5.4777
13.5712,5.6466
13.7431,5.7893
13.9360,5.9020
14.1447,5.9817
14.1498,5.9827
14.1498,5.9827
14.2449,6.0020
14.3636,6.0262
14.3688,6.0264
14.3688,6.0264
14.5817,6.0342
14.5817,6.0342
14.5868,6.0344
14.5920,6.0337
14.5920,6.0337
14.8033,6.0066
14.8033,6.0066
14.8084,6.0060
14.8134,6.0045
15.0174,5.9433
15.0174,5.9433
15.0224,5.9418
15.2230,5.8435
15.4049,5.7138
15.5631,5.5561
15.6935,5.3747
15.6948,5.3756
15.7416,5.3325
15.8116,5.3202
15.8770,5.3478
15.9049,5.3796
15.9650,5.4777
16.1112,5.6466
16.2831,5.7893
16.2876,5.7919
16.3691,5.8395
16.4178,5.8911
16.4315,5.9483
16.4315,8.4714
16.4115,8.5395
16.3946,8.5605
16.3399,8.6152
16.2776,8.6492
16.2068,8.6441
16.1500,8.6016
16.1310,8.5650
16.1107,8.5025
16.1068,8.4906
16.0113,8.3252
15.8836,8.1833
15.7291,8.0710
15.7230,8.0683
15.7230,8.0683
15.5606,7.9960
15.5606,7.9960
15.5546,7.9933
15.4612,7.9735
15.3742,7.9550
15.3742,7.9550
15.3678,7.9536
15.1768,7.9536
15.1704,7.9550
15.1704,7.9550
15.0834,7.9735
14.9900,7.9933
14.9840,7.9960
14.9840,7.9960
14.8216,8.0683
14.8216,8.0683
14.8155,8.0710
14.6610,8.1833
14.5333,8.3252
14.4378,8.4906
14.3788,8.6722
14.3781,8.6788
14.3781,8.6788
14.3747,8.7112
14.3704,8.7513
14.3700,8.7559
14.3429,8.8216
14.2847,8.8622
14.2138,8.8649
14.1556,8.8319
11.5243,6.2006
11.4902,6.1383
11.4953,6.0675
11.5379,6.0106
11.6044,5.9858
11.6385,5.9880
11.7132,6.0032
11.7273,6.0020
11.7310,5.9917
11.7310,4.5446
11.7510,4.4765
11.8047,4.4300
11.8570,4.4186
12.1130,4.4186
Z" /> 
</g>
</g>
</g>
<g style="fill:#000000; fill-opacity:1.0000; 
stroke:#000000; stroke-width:0.0000; stroke-opacity:1; 
stroke-linecap:round; stroke-linejoin:round;">
<circle cx="14.5250" cy="17.6424" r="0.2000" /> 
</g>
<g style="fill:#000000; fill-opacity:1.0000; 
stroke:#000000; stroke-width:0.0212; stroke-opacity:1; 
stroke-linecap:round; stroke-linejoin:round;">
</g>
<g style="fill:#000000; fill-opacity:1.0000; 
stroke:#000000; stroke-width:0.0000; stroke-opacity:1; 
stroke-linecap:round; stroke-linejoin:round;">
<circle cx="15.3494" cy="14.7479" r="0.2000" /> 
</g>
<g style="fill:#000000; fill-opacity:1.0000; 
stroke:#000000; stroke-width:0.0212; stroke-opacity:1; 
stroke-linecap:round; stroke-linejoin:round;">
</g>
<g style="fill:#000000; fill-opacity:1.0000; 
stroke:#000000; stroke-width:0.0000; stroke-opacity:1; 
stroke-linecap:round; stroke-linejoin:round;">
<circle cx="6.1184" cy="8.0323" r="0.2000" /> 
</g>
<g style="fill:#000000; fill-opacity:1.0000; 
stroke:#000000; stroke-width:0.0212; stroke-opacity:1; 
stroke-linecap:round; stroke-linejoin:round;">
</g>
<g style="fill:#000000; fill-opacity:1.0000; 
stroke:#000000; stroke-width:0.0000; stroke-opacity:1; 
stroke-linecap:round; stroke-linejoin:round;">
<circle cx="15.2723" cy="8.8621" r="0.2000" /> 
</g>
<g style="fill:#000000; fill-opacity:1.0000; 
stroke:#000000; stroke-width:0.0212; stroke-opacity:1; 
stroke-linecap:round; stroke-linejoin:round;">
</g>
<g style="fill:#000000; fill-opacity:1.0000; 
stroke:#000000; stroke-width:0.0000; stroke-opacity:1; 
stroke-linecap:round; stroke-linejoin:round;">
<circle cx="13.4305" cy="11.4438" r="0.2000" /> 
</g>
<g style="fill:#000000; fill-opacity:1.0000; 
stroke:#000000; stroke-width:0.0212; stroke-opacity:1; 
stroke-linecap:round; stroke-linejoin:round;">
</g>
<g style="fill:#000000; fill-opacity:1.0000; 
stroke:#000000; stroke-width:0.0000; stroke-opacity:1; 
stroke-linecap:round; stroke-linejoin:round;">
<circle cx="13.1430" cy="16.3091" r="0.2000" /> 
</g>
<g style="fill:#000000; fill-opacity:1.0000; 
stroke:#000000; stroke-width:0.0212; stroke-opacity:1; 
stroke-linecap:round; stroke-linejoin:round;">
</g>
<g style="fill:#000000; fill-opacity:1.0000; 
stroke:#000000; stroke-width:0.0000; stroke-opacity:1; 
stroke-linecap:round; stroke-linejoin:round;">
<circle cx="15.2534" cy="7.1330" r="0.2000" /> 
</g>
<g style="fill:#000000; fill-opacity:1.0000; 
stroke:#000000; stroke-width:0.0212; stroke-opacity:1; 
stroke-linecap:round; stroke-linejoin:round;">
</g>
<g style="fill:#000000; fill-opacity:1.0000; 
stroke:#000000; stroke-width:0.0000; stroke-opacity:1; 
stroke-linecap:round; stroke-linejoin:round;">
<circle cx="10.3850" cy="11.4626" r="0.2000" /> 
</g>
<g style="fill:#000000; fill-opacity:1.0000; 
stroke:#000000; stroke-width:0.0212; stroke-opacity:1; 
stroke-linecap:round; stroke-linejoin:round;">
</g>
<g style="fill:#000000; fill-opacity:1.0000; 
stroke:#000000; stroke-width:0.0000; stroke-opacity:1; 
stroke-linecap:round; stroke-linejoin:round;">
<circle cx="6.2100" cy="9.1876" r="0.2000" /> 
</g>
<g style="fill:#000000; fill-opacity:1.0000; 
stroke:#000000; stroke-width:0.0212; stroke-opacity:1; 
stroke-linecap:round; stroke-linejoin:round;">
</g>
<g style="fill:#000000; fill-opacity:1.0000; 
stroke:#000000; stroke-width:0.0000; stroke-opacity:1; 
stroke-linecap:round; stroke-linejoin:round;">
<circle cx="15.2725" cy="10.5785" r="0.2000" /> 
</g>
<g style="fill:#000000; fill-opacity:1.0000; 
stroke:#000000; stroke-width:0.0212; stroke-opacity:1; 
stroke-linecap:round; stroke-linejoin:round;">
</g>
<g style="fill:#000000; fill-opacity:1.0000; 
stroke:#000000; stroke-width:0.0000; stroke-opacity:1; 
stroke-linecap:round; stroke-linejoin:round;">
<circle cx="6.9050" cy="7.1111" r="0.2000" /> 
</g>
<g style="fill:#000000; fill-opacity:1.0000; 
stroke:#000000; stroke-width:0.0212; stroke-opacity:1; 
stroke-linecap:round; stroke-linejoin:round;">
</g>
<g style="fill:#000000; fill-opacity:1.0000; 
stroke:#000000; stroke-width:0.0000; stroke-opacity:1; 
stroke-linecap:round; stroke-linejoin:round;">
<circle cx="6.3850" cy="10.3498" r="0.2000" /> 
</g>
<g style="fill:#000000; fill-opacity:1.0000; 
stroke:#000000; stroke-width:0.0212; stroke-opacity:1; 
stroke-linecap:round; stroke-linejoin:round;">
</g>
<g style="fill:#000000; fill-opacity:1.0000; 
stroke:#000000; stroke-width:0.0000; stroke-opacity:1; 
stroke-linecap:round; stroke-linejoin:round;">
<circle cx="9.2400" cy="16.3086" r="0.2000" /> 
</g>
<g style="fill:#000000; fill-opacity:1.0000; 
stroke:#000000; stroke-width:0.0212; stroke-opacity:1; 
stroke-linecap:round; stroke-linejoin:round;">
</g>
<g style="fill:#000000; fill-opacity:1.0000; 
stroke:#000000; stroke-width:0.0000; stroke-opacity:1; 
stroke-linecap:round; stroke-linejoin:round;">
<circle cx="3.9284" cy="11.9626" r="0.2000" /> 
</g>
<g style="fill:#000000; fill-opacity:1.0000; 
stroke:#000000; stroke-width:0.0212; stroke-opacity:1; 
stroke-linecap:round; stroke-linejoin:round;">
</g>
<g style="fill:#000000; fill-opacity:1.0000; 
stroke:#000000; stroke-width:0.0000; stroke-opacity:1; 
stroke-linecap:round; stroke-linejoin:round;">
<circle cx="1.8250" cy="19.9126" r="0.5000" /> 
</g>
<g style="fill:#000000; fill-opacity:1.0000; 
stroke:#000000; stroke-width:0.0212; stroke-opacity:1; 
stroke-linecap:round; stroke-linejoin:round;">
</g>
<g style="fill:#000000; fill-opacity:1.0000; 
stroke:#000000; stroke-width:0.0000; stroke-opacity:1; 
stroke-linecap:round; stroke-linejoin:round;">
<circle cx="4.3650" cy="19.9126" r="0.5000" /> 
</g>
<g style="fill:#000000; fill-opacity:1.0000; 
stroke:#000000; stroke-width:0.0212; stroke-opacity:1; 
stroke-linecap:round; stroke-linejoin:round;">
</g>
<g style="fill:#000000; fill-opacity:1.0000; 
stroke:#000000; stroke-width:0.0000; stroke-opacity:1; 
stroke-linecap:round; stroke-linejoin:round;">
<circle cx="6.9050" cy="19.9126" r="0.5000" /> 
</g>
<g style="fill:#000000; fill-opacity:1.0000; 
stroke:#000000; stroke-width:0.0212; stroke-opacity:1; 
stroke-linecap:round; stroke-linejoin:round;">
</g>
<g style="fill:#000000; fill-opacity:1.0000; 
stroke:#000000; stroke-width:0.0000; stroke-opacity:1; 
stroke-linecap:round; stroke-linejoin:round;">
<circle cx="9.4450" cy="19.9126" r="0.5000" /> 
</g>
<g style="fill:#000000; fill-opacity:1.0000; 
stroke:#000000; stroke-width:0.0212; stroke-opacity:1; 
stroke-linecap:round; stroke-linejoin:round;">
</g>
<g style="fill:#000000; fill-opacity:1.0000; 
stroke:#000000; stroke-width:0.0000; stroke-opacity:1; 
stroke-linecap:round; stroke-linejoin:round;">
<circle cx="11.9850" cy="19.9126" r="0.5000" /> 
</g>
<g style="fill:#000000; fill-opacity:1.0000; 
stroke:#000000; stroke-width:0.0212; stroke-opacity:1; 
stroke-linecap:round; stroke-linejoin:round;">
</g>
<g style="fill:#000000; fill-opacity:1.0000; 
stroke:#000000; stroke-width:0.0000; stroke-opacity:1; 
stroke-linecap:round; stroke-linejoin:round;">
<circle cx="14.5250" cy="19.9126" r="0.5000" /> 
</g>
<g style="fill:#000000; fill-opacity:1.0000; 
stroke:#000000; stroke-width:0.0212; stroke-opacity:1; 
stroke-linecap:round; stroke-linejoin:round;">
</g>
<g style="fill:#000000; fill-opacity:1.0000; 
stroke:#000000; stroke-width:0.0000; stroke-opacity:1; 
stroke-linecap:round; stroke-linejoin:round;">
<circle cx="17.0650" cy="19.9126" r="0.5000" /> 
</g>
<g style="fill:#000000; fill-opacity:1.0000; 
stroke:#000000; stroke-width:0.0212; stroke-opacity:1; 
stroke-linecap:round; stroke-linejoin:round;">
</g>
<g style="fill:#000000; fill-opacity:1.0000; 
stroke:#000000; stroke-width:0.0000; stroke-opacity:1; 
stroke-linecap:round; stroke-linejoin:round;">
<circle cx="19.6050" cy="19.9126" r="0.5000" /> 
</g>
<g style="fill:#000000; fill-opacity:1.0000; 
stroke:#000000; stroke-width:0.0212; stroke-opacity:1; 
stroke-linecap:round; stroke-linejoin:round;">
</g>
<g style="fill:#000000; fill-opacity:1.0000; 
stroke:#000000; stroke-width:0.0000; stroke-opacity:1; 
stroke-linecap:round; stroke-linejoin:round;">
<circle cx="1.8250" cy="4.6726" r="0.5000" /> 
</g>
<g style="fill:#000000; fill-opacity:1.0000; 
stroke:#000000; stroke-width:0.0212; stroke-opacity:1; 
stroke-linecap:round; stroke-linejoin:round;">
</g>
<g style="fill:#000000; fill-opacity:1.0000; 
stroke:#000000; stroke-width:0.0000; stroke-opacity:1; 
stroke-linecap:round; stroke-linejoin:round;">
<circle cx="4.3650" cy="4.6726" r="0.5000" /> 
</g>
<g style="fill:#000000; fill-opacity:1.0000; 
stroke:#000000; stroke-width:0.0212; stroke-opacity:1; 
stroke-linecap:round; stroke-linejoin:round;">
</g>
<g style="fill:#000000; fill-opacity:1.0000; 
stroke:#000000; stroke-width:0.0000; stroke-opacity:1; 
stroke-linecap:round; stroke-linejoin:round;">
<circle cx="6.9050" cy="4.6726" r="0.5000" /> 
</g>
<g style="fill:#000000; fill-opacity:1.0000; 
stroke:#000000; stroke-width:0.0212; stroke-opacity:1; 
stroke-linecap:round; stroke-linejoin:round;">
</g>
<g style="fill:#000000; fill-opacity:1.0000; 
stroke:#000000; stroke-width:0.0000; stroke-opacity:1; 
stroke-linecap:round; stroke-linejoin:round;">
<circle cx="9.4450" cy="4.6726" r="0.5000" /> 
</g>
<g style="fill:#000000; fill-opacity:1.0000; 
stroke:#000000; stroke-width:0.0212; stroke-opacity:1; 
stroke-linecap:round; stroke-linejoin:round;">
</g>
<g style="fill:#000000; fill-opacity:1.0000; 
stroke:#000000; stroke-width:0.0000; stroke-opacity:1; 
stroke-linecap:round; stroke-linejoin:round;">
<circle cx="11.9850" cy="4.6726" r="0.5000" /> 
</g>
<g style="fill:#000000; fill-opacity:1.0000; 
stroke:#000000; stroke-width:0.0212; stroke-opacity:1; 
stroke-linecap:round; stroke-linejoin:round;">
</g>
<g style="fill:#000000; fill-opacity:1.0000; 
stroke:#000000; stroke-width:0.0000; stroke-opacity:1; 
stroke-linecap:round; stroke-linejoin:round;">
<circle cx="14.5250" cy="4.6726" r="0.5000" /> 
</g>
<g style="fill:#000000; fill-opacity:1.0000; 
stroke:#000000; stroke-width:0.0212; stroke-opacity:1; 
stroke-linecap:round; stroke-linejoin:round;">
</g>
<g style="fill:#000000; fill-opacity:1.0000; 
stroke:#000000; stroke-width:0.0000; stroke-opacity:1; 
stroke-linecap:round; stroke-linejoin:round;">
<circle cx="17.0650" cy="4.6726" r="0.5000" /> 
</g>
<g style="fill:#000000; fill-opacity:1.0000; 
stroke:#000000; stroke-width:0.0212; stroke-opacity:1; 
stroke-linecap:round; stroke-linejoin:round;">
</g>
<g style="fill:#000000; fill-opacity:1.0000; 
stroke:#000000; stroke-width:0.0000; stroke-opacity:1; 
stroke-linecap:round; stroke-linejoin:round;">
<circle cx="19.6050" cy="4.6726" r="0.5000" /> 
</g>
<g style="fill:#000000; fill-opacity:1.0000; 
stroke:#000000; stroke-width:0.0212; stroke-opacity:1; 
stroke-linecap:round; stroke-linejoin:round;">
</g>
<g style="fill:#FFFFFF; fill-opacity:1.0000; 
stroke:#FFFFFF; stroke-width:0.0212; stroke-opacity:1; 
stroke-linecap:round; stroke-linejoin:round;">
<g >
</g>
<g style="fill:#37CBCB; fill-opacity:1.0000; 
stroke:#37CBCB; stroke-width:0.0212; stroke-opacity:1; 
stroke-linecap:round; stroke-linejoin:round;">
</g>
<g style="fill:#37CBCB; fill-opacity:1.0000; 
stroke:#37CBCB; stroke-width:0.0000; stroke-opacity:1; 
stroke-linecap:round; stroke-linejoin:round;">
<path style="fill:#37CBCB; fill-opacity:1.0000; 
stroke:#37CBCB; stroke-width:0.0000; stroke-opacity:1; 
stroke-linecap:round; stroke-linejoin:round;fill-rule:evenodd;"
d="M 2.6750,20.7626
0.9750,20.7626
0.9750,19.0626
2.6750,19.0626
Z" /> 
<circle cx="4.3650" cy="19.9126" r="0.8500" /> 
<circle cx="6.9050" cy="19.9126" r="0.8500" /> 
<circle cx="9.4450" cy="19.9126" r="0.8500" /> 
<circle cx="11.9850" cy="19.9126" r="0.8500" /> 
<circle cx="14.5250" cy="19.9126" r="0.8500" /> 
<circle cx="17.0650" cy="19.9126" r="0.8500" /> 
<circle cx="19.6050" cy="19.9126" r="0.8500" /> 
</g>
<g >
</g>
<g style="fill:#37CBCB; fill-opacity:1.0000; 
stroke:#37CBCB; stroke-width:0.0000; stroke-opacity:1; 
stroke-linecap:round; stroke-linejoin:round;">
<path style="fill:#37CBCB; fill-opacity:1.0000; 
stroke:#37CBCB; stroke-width:0.0000; stroke-opacity:1; 
stroke-linecap:round; stroke-linejoin:round;fill-rule:evenodd;"
d="M 2.6750,5.5226
0.9750,5.5226
0.9750,3.8226
2.6750,3.8226
Z" /> 
<circle cx="4.3650" cy="4.6726" r="0.8500" /> 
<circle cx="6.9050" cy="4.6726" r="0.8500" /> 
<circle cx="9.4450" cy="4.6726" r="0.8500" /> 
<circle cx="11.9850" cy="4.6726" r="0.8500" /> 
<circle cx="14.5250" cy="4.6726" r="0.8500" /> 
<circle cx="17.0650" cy="4.6726" r="0.8500" /> 
<circle cx="19.6050" cy="4.6726" r="0.8500" /> 
</g>
<g >
</g>
<g style="fill:#37CBCB; fill-opacity:1.0000; 
stroke:#37CBCB; stroke-width:0.0000; stroke-opacity:1; 
stroke-linecap:round; stroke-linejoin:round;">
<path style="fill:#37CBCB; fill-opacity:1.0000; 
stroke:#37CBCB; stroke-width:0.0000; stroke-opacity:1; 
stroke-linecap:round; stroke-linejoin:round;fill-rule:evenodd;"
d="M 1.5050,10.0876
1.5050,9.6876
2.1050,9.6876
2.1050,10.0876
2.5550,10.0876
2.5550,10.5876
2.5499,10.5876
2.5499,10.6588
2.5098,10.7953
2.4329,10.9150
2.3253,11.0082
2.1959,11.0674
2.0550,11.0876
1.5550,11.0876
1.4141,11.0674
1.2847,11.0082
1.1771,10.9150
1.1002,10.7953
1.0601,10.6588
1.0601,10.5876
1.0550,10.5876
1.0550,10.0876
Z" /> 
<path style="fill:#37CBCB; fill-opacity:1.0000; 
stroke:#37CBCB; stroke-width:0.0000; stroke-opacity:1; 
stroke-linecap:round; stroke-linejoin:round;fill-rule:evenodd;"
d="M 1.0601,9.2876
1.0601,9.2165
1.1002,9.0799
1.1771,8.9602
1.2847,8.8670
1.4141,8.8079
1.5550,8.7876
2.0550,8.7876
2.1959,8.8079
2.3253,8.8670
2.4329,8.9602
2.5098,9.0799
2.5499,9.2165
2.5499,9.2876
2.5550,9.2876
2.5550,9.7876
1.0550,9.7876
1.0550,9.2876
Z" /> 
</g>
<g >
</g>
<g style="fill:#37CBCB; fill-opacity:1.0000; 
stroke:#37CBCB; stroke-width:0.0000; stroke-opacity:1; 
stroke-linecap:round; stroke-linejoin:round;">
<path style="fill:#37CBCB; fill-opacity:1.0000; 
stroke:#37CBCB; stroke-width:0.0000; stroke-opacity:1; 
stroke-linecap:round; stroke-linejoin:round;fill-rule:evenodd;"
d="M 1.0350,13.8376
1.0350,13.3376
1.0401,13.3376
1.0401,13.2665
1.0802,13.1299
1.1571,13.0102
1.2647,12.9170
1.3941,12.8579
1.5350,12.8376
2.0350,12.8376
2.1759,12.8579
2.3053,12.9170
2.4129,13.0102
2.4898,13.1299
2.5299,13.2665
2.5299,13.3376
2.5350,13.3376
2.5350,13.8376
Z" /> 
<path style="fill:#37CBCB; fill-opacity:1.0000; 
stroke:#37CBCB; stroke-width:0.0000; stroke-opacity:1; 
stroke-linecap:round; stroke-linejoin:round;fill-rule:evenodd;"
d="M 2.5299,14.6376
2.5299,14.7088
2.4898,14.8453
2.4129,14.9650
2.3053,15.0582
2.1759,15.1174
2.0350,15.1376
1.5350,15.1376
1.3941,15.1174
1.2647,15.0582
1.1571,14.9650
1.0802,14.8453
1.0401,14.7088
1.0401,14.6376
1.0350,14.6376
1.0350,14.1376
2.5350,14.1376
2.5350,14.6376
Z" /> 
</g>
<g >
</g>
<g style="fill:#37CBCB; fill-opacity:1.0000; 
stroke:#37CBCB; stroke-width:0.0000; stroke-opacity:1; 
stroke-linecap:round; stroke-linejoin:round;">
<path style="fill:#37CBCB; fill-opacity:1.0000; 
stroke:#37CBCB; stroke-width:0.0000; stroke-opacity:1; 
stroke-linecap:round; stroke-linejoin:round;fill-rule:evenodd;"
d="M 3.8850,10.0876
3.8850,9.6876
4.4850,9.6876
4.4850,10.0876
4.9350,10.0876
4.9350,10.5876
4.9299,10.5876
4.9299,10.6588
4.8898,10.7953
4.8129,10.9150
4.7053,11.0082
4.5759,11.0674
4.4350,11.0876
3.9350,11.0876
3.7941,11.0674
3.6647,11.0082
3.5571,10.9150
3.4802,10.7953
3.4401,10.6588
3.4401,10.5876
3.4350,10.5876
3.4350,10.0876
Z" /> 
<path style="fill:#37CBCB; fill-opacity:1.0000; 
stroke:#37CBCB; stroke-width:0.0000; stroke-opacity:1; 
stroke-linecap:round; stroke-linejoin:round;fill-rule:evenodd;"
d="M 3.4401,9.2876
3.4401,9.2165
3.4802,9.0799
3.5571,8.9602
3.6647,8.8670
3.7941,8.8079
3.9350,8.7876
4.4350,8.7876
4.5759,8.8079
4.7053,8.8670
4.8129,8.9602
4.8898,9.0799
4.9299,9.2165
4.9299,9.2876
4.9350,9.2876
4.9350,9.7876
3.4350,9.7876
3.4350,9.2876
Z" /> 
</g>
<g >
</g>
<g style="fill:#37CBCB; fill-opacity:1.0000; 
stroke:#37CBCB; stroke-width:0.0000; stroke-opacity:1; 
stroke-linecap:round; stroke-linejoin:round;">
<path style="fill:#37CBCB; fill-opacity:1.0000; 
stroke:#37CBCB; stroke-width:0.0000; stroke-opacity:1; 
stroke-linecap:round; stroke-linejoin:round;fill-rule:evenodd;"
d="M 3.4350,13.8376
3.4350,13.3376
3.4401,13.3376
3.4401,13.2665
3.4802,13.1299
3.5571,13.0102
3.6647,12.9170
3.7941,12.8579
3.9350,12.8376
4.4350,12.8376
4.5759,12.8579
4.7053,12.9170
4.8129,13.0102
4.8898,13.1299
4.9299,13.2665
4.9299,13.3376
4.9350,13.3376
4.9350,13.8376
Z" /> 
<path style="fill:#37CBCB; fill-opacity:1.0000; 
stroke:#37CBCB; stroke-width:0.0000; stroke-opacity:1; 
stroke-linecap:round; stroke-linejoin:round;fill-rule:evenodd;"
d="M 4.9299,14.6376
4.9299,14.7088
4.8898,14.8453
4.8129,14.9650
4.7053,15.0582
4.5759,15.1174
4.4350,15.1376
3.9350,15.1376
3.7941,15.1174
3.6647,15.0582
3.5571,14.9650
3.4802,14.8453
3.4401,14.7088
3.4401,14.6376
3.4350,14.6376
3.4350,14.1376
4.9350,14.1376
4.9350,14.6376
Z" /> 
</g>
<g >
</g>
<g style="fill:#37CBCB; fill-opacity:1.0000; 
stroke:#37CBCB; stroke-width:0.0000; stroke-opacity:1; 
stroke-linecap:round; stroke-linejoin:round;">
<path style="fill:#37CBCB; fill-opacity:1.0000; 
stroke:#37CBCB; stroke-width:0.0000; stroke-opacity:1; 
stroke-linecap:round; stroke-linejoin:round;fill-rule:evenodd;"
d="M 7.5150,15.7076
7.0650,15.7076
7.0650,14.2576
7.5150,14.2576
Z" /> 
<path style="fill:#37CBCB; fill-opacity:1.0000; 
stroke:#37CBCB; stroke-width:0.0000; stroke-opacity:1; 
stroke-linecap:round; stroke-linejoin:round;fill-rule:evenodd;"
d="M 8.1650,15.7076
7.7150,15.7076
7.7150,14.2576
8.1650,14.2576
Z" /> 
<path style="fill:#37CBCB; fill-opacity:1.0000; 
stroke:#37CBCB; stroke-width:0.0000; stroke-opacity:1; 
stroke-linecap:round; stroke-linejoin:round;fill-rule:evenodd;"
d="M 8.8150,15.7076
8.3650,15.7076
8.3650,14.2576
8.8150,14.2576
Z" /> 
<path style="fill:#37CBCB; fill-opacity:1.0000; 
stroke:#37CBCB; stroke-width:0.0000; stroke-opacity:1; 
stroke-linecap:round; stroke-linejoin:round;fill-rule:evenodd;"
d="M 9.4650,15.7076
9.0150,15.7076
9.0150,14.2576
9.4650,14.2576
Z" /> 
<path style="fill:#37CBCB; fill-opacity:1.0000; 
stroke:#37CBCB; stroke-width:0.0000; stroke-opacity:1; 
stroke-linecap:round; stroke-linejoin:round;fill-rule:evenodd;"
d="M 10.1150,15.7076
9.6650,15.7076
9.6650,14.2576
10.1150,14.2576
Z" /> 
<path style="fill:#37CBCB; fill-opacity:1.0000; 
stroke:#37CBCB; stroke-width:0.0000; stroke-opacity:1; 
stroke-linecap:round; stroke-linejoin:round;fill-rule:evenodd;"
d="M 10.7650,15.7076
10.3150,15.7076
10.3150,14.2576
10.7650,14.2576
Z" /> 
<path style="fill:#37CBCB; fill-opacity:1.0000; 
stroke:#37CBCB; stroke-width:0.0000; stroke-opacity:1; 
stroke-linecap:round; stroke-linejoin:round;fill-rule:evenodd;"
d="M 11.4150,15.7076
10.9650,15.7076
10.9650,14.2576
11.4150,14.2576
Z" /> 
<path style="fill:#37CBCB; fill-opacity:1.0000; 
stroke:#37CBCB; stroke-width:0.0000; stroke-opacity:1; 
stroke-linecap:round; stroke-linejoin:round;fill-rule:evenodd;"
d="M 12.0650,15.7076
11.6150,15.7076
11.6150,14.2576
12.0650,14.2576
Z" /> 
<path style="fill:#37CBCB; fill-opacity:1.0000; 
stroke:#37CBCB; stroke-width:0.0000; stroke-opacity:1; 
stroke-linecap:round; stroke-linejoin:round;fill-rule:evenodd;"
d="M 12.7150,15.7076
12.2650,15.7076
12.2650,14.2576
12.7150,14.2576
Z" /> 
<path style="fill:#37CBCB; fill-opacity:1.0000; 
stroke:#37CBCB; stroke-width:0.0000; stroke-opacity:1; 
stroke-linecap:round; stroke-linejoin:round;fill-rule:evenodd;"
d="M 13.3650,15.7076
12.9150,15.7076
12.9150,14.2576
13.3650,14.2576
Z" /> 
<path style="fill:#37CBCB; fill-opacity:1.0000; 
stroke:#37CBCB; stroke-width:0.0000; stroke-opacity:1; 
stroke-linecap:round; stroke-linejoin:round;fill-rule:evenodd;"
d="M 13.3650,9.8076
12.9150,9.8076
12.9150,8.3576
13.3650,8.3576
Z" /> 
<path style="fill:#37CBCB; fill-opacity:1.0000; 
stroke:#37CBCB; stroke-width:0.0000; stroke-opacity:1; 
stroke-linecap:round; stroke-linejoin:round;fill-rule:evenodd;"
d="M 12.7150,9.8076
12.2650,9.8076
12.2650,8.3576
12.7150,8.3576
Z" /> 
<path style="fill:#37CBCB; fill-opacity:1.0000; 
stroke:#37CBCB; stroke-width:0.0000; stroke-opacity:1; 
stroke-linecap:round; stroke-linejoin:round;fill-rule:evenodd;"
d="M 12.0650,9.8076
11.6150,9.8076
11.6150,8.3576
12.0650,8.3576
Z" /> 
<path style="fill:#37CBCB; fill-opacity:1.0000; 
stroke:#37CBCB; stroke-width:0.0000; stroke-opacity:1; 
stroke-linecap:round; stroke-linejoin:round;fill-rule:evenodd;"
d="M 11.4150,9.8076
10.9650,9.8076
10.9650,8.3576
11.4150,8.3576
Z" /> 
<path style="fill:#37CBCB; fill-opacity:1.0000; 
stroke:#37CBCB; stroke-width:0.0000; stroke-opacity:1; 
stroke-linecap:round; stroke-linejoin:round;fill-rule:evenodd;"
d="M 10.7650,9.8076
10.3150,9.8076
10.3150,8.3576
10.7650,8.3576
Z" /> 
<path style="fill:#37CBCB; fill-opacity:1.0000; 
stroke:#37CBCB; stroke-width:0.0000; stroke-opacity:1; 
stroke-linecap:round; stroke-linejoin:round;fill-rule:evenodd;"
d="M 10.1150,9.8076
9.6650,9.8076
9.6650,8.3576
10.1150,8.3576
Z" /> 
<path style="fill:#37CBCB; fill-opacity:1.0000; 
stroke:#37CBCB; stroke-width:0.0000; stroke-opacity:1; 
stroke-linecap:round; stroke-linejoin:round;fill-rule:evenodd;"
d="M 9.4650,9.8076
9.0150,9.8076
9.0150,8.3576
9.4650,8.3576
Z" /> 
<path style="fill:#37CBCB; fill-opacity:1.0000; 
stroke:#37CBCB; stroke-width:0.0000; stroke-opacity:1; 
stroke-linecap:round; stroke-linejoin:round;fill-rule:evenodd;"
d="M 8.8150,9.8076
8.3650,9.8076
8.3650,8.3576
8.8150,8.3576
Z" /> 
<path style="fill:#37CBCB; fill-opacity:1.0000; 
stroke:#37CBCB; stroke-width:0.0000; stroke-opacity:1; 
stroke-linecap:round; stroke-linejoin:round;fill-rule:evenodd;"
d="M 8.1650,9.8076
7.7150,9.8076
7.7150,8.3576
8.1650,8.3576
Z" /> 
<path style="fill:#37CBCB; fill-opacity:1.0000; 
stroke:#37CBCB; stroke-width:0.0000; stroke-opacity:1; 
stroke-linecap:round; stroke-linejoin:round;fill-rule:evenodd;"
d="M 7.5150,9.8076
7.0650,9.8076
7.0650,8.3576
7.5150,8.3576
Z" /> 
</g>
<g >
</g>
<g style="fill:#37CBCB; fill-opacity:1.0000; 
stroke:#37CBCB; stroke-width:0.0000; stroke-opacity:1; 
stroke-linecap:round; stroke-linejoin:round;">
<path style="fill:#37CBCB; fill-opacity:1.0000; 
stroke:#37CBCB; stroke-width:0.0000; stroke-opacity:1; 
stroke-linecap:round; stroke-linejoin:round;fill-rule:evenodd;"
d="M 18.2850,8.1626
18.6850,8.1626
18.6850,8.7626
18.2850,8.7626
18.2850,9.2126
17.7850,9.2126
17.7850,9.2075
17.7138,9.2075
17.5773,9.1674
17.4576,9.0905
17.3644,8.9829
17.3053,8.8535
17.2850,8.7126
17.2850,8.2126
17.3053,8.0718
17.3644,7.9423
17.4576,7.8347
17.5773,7.7578
17.7138,7.7177
17.7850,7.7177
17.7850,7.7126
18.2850,7.7126
Z" /> 
<path style="fill:#37CBCB; fill-opacity:1.0000; 
stroke:#37CBCB; stroke-width:0.0000; stroke-opacity:1; 
stroke-linecap:round; stroke-linejoin:round;fill-rule:evenodd;"
d="M 19.0850,7.7177
19.1562,7.7177
19.2927,7.7578
19.4124,7.8347
19.5056,7.9423
19.5647,8.0718
19.5850,8.2126
19.5850,8.7126
19.5647,8.8535
19.5056,8.9829
19.4124,9.0905
19.2927,9.1674
19.1562,9.2075
19.0850,9.2075
19.0850,9.2126
18.5850,9.2126
18.5850,7.7126
19.0850,7.7126
Z" /> 
</g>
<g >
</g>
<g style="fill:#37CBCB; fill-opacity:1.0000; 
stroke:#37CBCB; stroke-width:0.0000; stroke-opacity:1; 
stroke-linecap:round; stroke-linejoin:round;">
<path style="fill:#37CBCB; fill-opacity:1.0000; 
stroke:#37CBCB; stroke-width:0.0000; stroke-opacity:1; 
stroke-linecap:round; stroke-linejoin:round;fill-rule:evenodd;"
d="M 18.6050,16.3326
18.2050,16.3326
18.2050,15.7326
18.6050,15.7326
18.6050,15.2826
19.1050,15.2826
19.1050,15.2877
19.1762,15.2877
19.3127,15.3278
19.4324,15.4047
19.5256,15.5123
19.5847,15.6418
19.6050,15.7826
19.6050,16.2826
19.5847,16.4235
19.5256,16.5529
19.4324,16.6605
19.3127,16.7374
19.1762,16.7775
19.1050,16.7775
19.1050,16.7826
18.6050,16.7826
Z" /> 
<path style="fill:#37CBCB; fill-opacity:1.0000; 
stroke:#37CBCB; stroke-width:0.0000; stroke-opacity:1; 
stroke-linecap:round; stroke-linejoin:round;fill-rule:evenodd;"
d="M 17.8050,16.7775
17.7338,16.7775
17.5973,16.7374
17.4776,16.6605
17.3844,16.5529
17.3253,16.4235
17.3050,16.2826
17.3050,15.7826
17.3253,15.6418
17.3844,15.5123
17.4776,15.4047
17.5973,15.3278
17.7338,15.2877
17.8050,15.2877
17.8050,15.2826
18.3050,15.2826
18.3050,16.7826
17.8050,16.7826
Z" /> 
</g>
<g >
</g>
<g style="fill:#37CBCB; fill-opacity:1.0000; 
stroke:#37CBCB; stroke-width:0.0000; stroke-opacity:1; 
stroke-linecap:round; stroke-linejoin:round;">
<path style="fill:#37CBCB; fill-opacity:1.0000; 
stroke:#37CBCB; stroke-width:0.0000; stroke-opacity:1; 
stroke-linecap:round; stroke-linejoin:round;fill-rule:evenodd;"
d="M 18.5950,12.6326
19.0950,12.6326
19.0950,12.6377
19.1662,12.6377
19.3027,12.6778
19.4224,12.7547
19.5156,12.8623
19.5747,12.9918
19.5950,13.1326
19.5950,13.6326
19.5747,13.7735
19.5156,13.9029
19.4224,14.0105
19.3027,14.0874
19.1662,14.1275
19.0950,14.1275
19.0950,14.1326
18.5950,14.1326
Z" /> 
<path style="fill:#37CBCB; fill-opacity:1.0000; 
stroke:#37CBCB; stroke-width:0.0000; stroke-opacity:1; 
stroke-linecap:round; stroke-linejoin:round;fill-rule:evenodd;"
d="M 17.7950,14.1275
17.7238,14.1275
17.5873,14.0874
17.4676,14.0105
17.3744,13.9029
17.3153,13.7735
17.2950,13.6326
17.2950,13.1326
17.3153,12.9918
17.3744,12.8623
17.4676,12.7547
17.5873,12.6778
17.7238,12.6377
17.7950,12.6377
17.7950,12.6326
18.2950,12.6326
18.2950,14.1326
17.7950,14.1326
Z" /> 
</g>
<g >
</g>
<g style="fill:#37CBCB; fill-opacity:1.0000; 
stroke:#37CBCB; stroke-width:0.0000; stroke-opacity:1; 
stroke-linecap:round; stroke-linejoin:round;">
<path style="fill:#37CBCB; fill-opacity:1.0000; 
stroke:#37CBCB; stroke-width:0.0000; stroke-opacity:1; 
stroke-linecap:round; stroke-linejoin:round;fill-rule:evenodd;"
d="M 18.5850,10.3726
19.0850,10.3726
19.0850,10.3777
19.1562,10.3777
19.2927,10.4178
19.4124,10.4947
19.5056,10.6023
19.5647,10.7318
19.5850,10.8726
19.5850,11.3726
19.5647,11.5135
19.5056,11.6429
19.4124,11.7505
19.2927,11.8274
19.1562,11.8675
19.0850,11.8675
19.0850,11.8726
18.5850,11.8726
Z" /> 
<path style="fill:#37CBCB; fill-opacity:1.0000; 
stroke:#37CBCB; stroke-width:0.0000; stroke-opacity:1; 
stroke-linecap:round; stroke-linejoin:round;fill-rule:evenodd;"
d="M 17.7850,11.8675
17.7138,11.8675
17.5773,11.8274
17.4576,11.7505
17.3644,11.6429
17.3053,11.5135
17.2850,11.3726
17.2850,10.8726
17.3053,10.7318
17.3644,10.6023
17.4576,10.4947
17.5773,10.4178
17.7138,10.3777
17.7850,10.3777
17.7850,10.3726
18.2850,10.3726
18.2850,11.8726
17.7850,11.8726
Z" /> 
</g>
<g >
</g>
<g style="fill:#37CBCB; fill-opacity:1.0000; 
stroke:#37CBCB; stroke-width:0.0000; stroke-opacity:1; 
stroke-linecap:round; stroke-linejoin:round;">
<path style="fill:#37CBCB; fill-opacity:1.0000; 
stroke:#37CBCB; stroke-width:0.0000; stroke-opacity:1; 
stroke-linecap:round; stroke-linejoin:round;fill-rule:evenodd;"
d="M 14.5975,13.7776
14.6539,13.7888
14.7018,13.8208
14.7338,13.8687
14.7450,13.9251
14.7450,14.2201
14.7338,14.2766
14.7018,14.3244
14.6539,14.3564
14.5975,14.3676
14.2525,14.3676
14.1961,14.3564
14.1482,14.3244
14.1162,14.2766
14.1050,14.2201
14.1050,13.9251
14.1162,13.8687
14.1482,13.8208
14.1961,13.7888
14.2525,13.7776
Z" /> 
<path style="fill:#37CBCB; fill-opacity:1.0000; 
stroke:#37CBCB; stroke-width:0.0000; stroke-opacity:1; 
stroke-linecap:round; stroke-linejoin:round;fill-rule:evenodd;"
d="M 14.5975,14.7476
14.6539,14.7588
14.7018,14.7908
14.7338,14.8387
14.7450,14.8951
14.7450,15.1901
14.7338,15.2466
14.7018,15.2944
14.6539,15.3264
14.5975,15.3376
14.2525,15.3376
14.1961,15.3264
14.1482,15.2944
14.1162,15.2466
14.1050,15.1901
14.1050,14.8951
14.1162,14.8387
14.1482,14.7908
14.1961,14.7588
14.2525,14.7476
Z" /> 
</g>
<g >
</g>
<g style="fill:#37CBCB; fill-opacity:1.0000; 
stroke:#37CBCB; stroke-width:0.0000; stroke-opacity:1; 
stroke-linecap:round; stroke-linejoin:round;">
<path style="fill:#37CBCB; fill-opacity:1.0000; 
stroke:#37CBCB; stroke-width:0.0000; stroke-opacity:1; 
stroke-linecap:round; stroke-linejoin:round;fill-rule:evenodd;"
d="M 14.1725,10.2526
14.1161,10.2414
14.0682,10.2094
14.0362,10.1616
14.0250,10.1051
14.0250,9.8101
14.0362,9.7537
14.0682,9.7058
14.1161,9.6738
14.1725,9.6626
14.5175,9.6626
14.5739,9.6738
14.6218,9.7058
14.6538,9.7537
14.6650,9.8101
14.6650,10.1051
14.6538,10.1616
14.6218,10.2094
14.5739,10.2414
14.5175,10.2526
Z" /> 
<path style="fill:#37CBCB; fill-opacity:1.0000; 
stroke:#37CBCB; stroke-width:0.0000; stroke-opacity:1; 
stroke-linecap:round; stroke-linejoin:round;fill-rule:evenodd;"
d="M 14.1725,9.2826
14.1161,9.2714
14.0682,9.2394
14.0362,9.1916
14.0250,9.1351
14.0250,8.8401
14.0362,8.7837
14.0682,8.7358
14.1161,8.7038
14.1725,8.6926
14.5175,8.6926
14.5739,8.7038
14.6218,8.7358
14.6538,8.7837
14.6650,8.8401
14.6650,9.1351
14.6538,9.1916
14.6218,9.2394
14.5739,9.2714
14.5175,9.2826
Z" /> 
</g>
<g >
</g>
<g style="fill:#37CBCB; fill-opacity:1.0000; 
stroke:#37CBCB; stroke-width:0.0000; stroke-opacity:1; 
stroke-linecap:round; stroke-linejoin:round;">
<path style="fill:#37CBCB; fill-opacity:1.0000; 
stroke:#37CBCB; stroke-width:0.0000; stroke-opacity:1; 
stroke-linecap:round; stroke-linejoin:round;fill-rule:evenodd;"
d="M 6.3800,7.9776
6.4336,7.9883
6.4790,8.0186
6.5093,8.0640
6.5200,8.1176
6.5200,8.3976
6.5093,8.4512
6.4790,8.4966
6.4336,8.5270
6.3800,8.5376
6.0400,8.5376
5.9864,8.5270
5.9410,8.4966
5.9107,8.4512
5.9000,8.3976
5.9000,8.1176
5.9107,8.0640
5.9410,8.0186
5.9864,7.9883
6.0400,7.9776
Z" /> 
<path style="fill:#37CBCB; fill-opacity:1.0000; 
stroke:#37CBCB; stroke-width:0.0000; stroke-opacity:1; 
stroke-linecap:round; stroke-linejoin:round;fill-rule:evenodd;"
d="M 6.3800,8.9376
6.4336,8.9483
6.4790,8.9786
6.5093,9.0240
6.5200,9.0776
6.5200,9.3576
6.5093,9.4112
6.4790,9.4566
6.4336,9.4870
6.3800,9.4976
6.0400,9.4976
5.9864,9.4870
5.9410,9.4566
5.9107,9.4112
5.9000,9.3576
5.9000,9.0776
5.9107,9.0240
5.9410,8.9786
5.9864,8.9483
6.0400,8.9376
Z" /> 
</g>
<g >
</g>
<g style="fill:#121212; fill-opacity:1.0000; 
stroke:#121212; stroke-width:0.0000; stroke-opacity:1; 
stroke-linecap:round; stroke-linejoin:round;">
<circle cx="14.5250" cy="17.6424" r="0.4000" /> 
</g>
<g style="fill:#121212; fill-opacity:1.0000; 
stroke:#121212; stroke-width:0.0212; stroke-opacity:1; 
stroke-linecap:round; stroke-linejoin:round;">
</g>
<g style="fill:#121212; fill-opacity:1.0000; 
stroke:#121212; stroke-width:0.0000; stroke-opacity:1; 
stroke-linecap:round; stroke-linejoin:round;">
<circle cx="15.3494" cy="14.7479" r="0.4000" /> 
</g>
<g style="fill:#121212; fill-opacity:1.0000; 
stroke:#121212; stroke-width:0.0212; stroke-opacity:1; 
stroke-linecap:round; stroke-linejoin:round;">
</g>
<g style="fill:#121212; fill-opacity:1.0000; 
stroke:#121212; stroke-width:0.0000; stroke-opacity:1; 
stroke-linecap:round; stroke-linejoin:round;">
<circle cx="6.1184" cy="8.0323" r="0.4000" /> 
</g>
<g style="fill:#121212; fill-opacity:1.0000; 
stroke:#121212; stroke-width:0.0212; stroke-opacity:1; 
stroke-linecap:round; stroke-linejoin:round;">
</g>
<g style="fill:#121212; fill-opacity:1.0000; 
stroke:#121212; stroke-width:0.0000; stroke-opacity:1; 
stroke-linecap:round; stroke-linejoin:round;">
<circle cx="15.2723" cy="8.8621" r="0.4000" /> 
</g>
<g style="fill:#121212; fill-opacity:1.0000; 
stroke:#121212; stroke-width:0.0212; stroke-opacity:1; 
stroke-linecap:round; stroke-linejoin:round;">
</g>
<g style="fill:#121212; fill-opacity:1.0000; 
stroke:#121212; stroke-width:0.0000; stroke-opacity:1; 
stroke-linecap:round; stroke-linejoin:round;">
<circle cx="13.4305" cy="11.4438" r="0.4000" /> 
</g>
<g style="fill:#121212; fill-opacity:1.0000; 
stroke:#121212; stroke-width:0.0212; stroke-opacity:1; 
stroke-linecap:round; stroke-linejoin:round;">
</g>
<g style="fill:#121212; fill-opacity:1.0000; 
stroke:#121212; stroke-width:0.0000; stroke-opacity:1; 
stroke-linecap:round; stroke-linejoin:round;">
<circle cx="13.1430" cy="16.3091" r="0.4000" /> 
</g>
<g style="fill:#121212; fill-opacity:1.0000; 
stroke:#121212; stroke-width:0.0212; stroke-opacity:1; 
stroke-linecap:round; stroke-linejoin:round;">
</g>
<g style="fill:#121212; fill-opacity:1.0000; 
stroke:#121212; stroke-width:0.0000; stroke-opacity:1; 
stroke-linecap:round; stroke-linejoin:round;">
<circle cx="15.2534" cy="7.1330" r="0.4000" /> 
</g>
<g style="fill:#121212; fill-opacity:1.0000; 
stroke:#121212; stroke-width:0.0212; stroke-opacity:1; 
stroke-linecap:round; stroke-linejoin:round;">
</g>
<g style="fill:#121212; fill-opacity:1.0000; 
stroke:#121212; stroke-width:0.0000; stroke-opacity:1; 
stroke-linecap:round; stroke-linejoin:round;">
<circle cx="10.3850" cy="11.4626" r="0.4000" /> 
</g>
<g style="fill:#121212; fill-opacity:1.0000; 
stroke:#121212; stroke-width:0.0212; stroke-opacity:1; 
stroke-linecap:round; stroke-linejoin:round;">
</g>
<g style="fill:#121212; fill-opacity:1.0000; 
stroke:#121212; stroke-width:0.0000; stroke-opacity:1; 
stroke-linecap:round; stroke-linejoin:round;">
<circle cx="6.2100" cy="9.1876" r="0.4000" /> 
</g>
<g style="fill:#121212; fill-opacity:1.0000; 
stroke:#121212; stroke-width:0.0212; stroke-opacity:1; 
stroke-linecap:round; stroke-linejoin:round;">
</g>
<g style="fill:#121212; fill-opacity:1.0000; 
stroke:#121212; stroke-width:0.0000; stroke-opacity:1; 
stroke-linecap:round; stroke-linejoin:round;">
<circle cx="15.2725" cy="10.5785" r="0.4000" /> 
</g>
<g style="fill:#121212; fill-opacity:1.0000; 
stroke:#121212; stroke-width:0.0212; stroke-opacity:1; 
stroke-linecap:round; stroke-linejoin:round;">
</g>
<g style="fill:#121212; fill-opacity:1.0000; 
stroke:#121212; stroke-width:0.0000; stroke-opacity:1; 
stroke-linecap:round; stroke-linejoin:round;">
<circle cx="6.9050" cy="7.1111" r="0.4000" /> 
</g>
<g style="fill:#121212; fill-opacity:1.0000; 
stroke:#121212; stroke-width:0.0212; stroke-opacity:1; 
stroke-linecap:round; stroke-linejoin:round;">
</g>
<g style="fill:#121212; fill-opacity:1.0000; 
stroke:#121212; stroke-width:0.0000; stroke-opacity:1; 
stroke-linecap:round; stroke-linejoin:round;">
<circle cx="6.3850" cy="10.3498" r="0.4000" /> 
</g>
<g style="fill:#121212; fill-opacity:1.0000; 
stroke:#121212; stroke-width:0.0212; stroke-opacity:1; 
stroke-linecap:round; stroke-linejoin:round;">
</g>
<g style="fill:#121212; fill-opacity:1.0000; 
stroke:#121212; stroke-width:0.0000; stroke-opacity:1; 
stroke-linecap:round; stroke-linejoin:round;">
<circle cx="9.2400" cy="16.3086" r="0.4000" /> 
</g>
<g style="fill:#121212; fill-opacity:1.0000; 
stroke:#121212; stroke-width:0.0212; stroke-opacity:1; 
stroke-linecap:round; stroke-linejoin:round;">
</g>
<g style="fill:#121212; fill-opacity:1.0000; 
stroke:#121212; stroke-width:0.0000; stroke-opacity:1; 
stroke-linecap:round; stroke-linejoin:round;">
<circle cx="3.9284" cy="11.9626" r="0.4000" /> 
</g>
<g style="fill:#121212; fill-opacity:1.0000; 
stroke:#121212; stroke-width:0.0212; stroke-opacity:1; 
stroke-linecap:round; stroke-linejoin:round;">
</g>
<g >
</g>
<g style="fill:#37CBCB; fill-opacity:1.0000; 
stroke:#37CBCB; stroke-width:0.0212; stroke-opacity:1; 
stroke-linecap:round; stroke-linejoin:round;">
</g>
<g style="fill:#37CBCB; fill-opacity:1.0000; 
stroke:#37CBCB; stroke-width:0.2500; stroke-opacity:1; 
stroke-linecap:round; stroke-linejoin:round;">
</g>
<g style="fill:#37CBCB; fill-opacity:0.0; 
stroke:#37CBCB; stroke-width:0.2500; stroke-opacity:1; 
stroke-linecap:round; stroke-linejoin:round;">
<path d="M18.4297 19.5972
L15.7399 16.9074
" />
<path d="M19.6050 19.9126
L18.4297 19.9126
" />
<path d="M13.6858 16.9074
L13.5435 17.0497
" />
<path d="M11.8400 14.9826
L11.8400 16.0329
" />
<path d="M18.4297 19.9126
L18.4297 19.5972
" />
<path d="M15.7399 16.9074
L13.6858 16.9074
" />
<path d="M12.8568 17.0497
L11.8400 16.0329
" />
<path d="M13.5435 17.0497
L12.8568 17.0497
" />
<path d="M10.5400 14.9826
L10.5400 16.0329
" />
<path d="M10.5400 16.0329
L13.2444 18.7373
" />
<path d="M15.8897 19.5452
L15.8897 19.9126
" />
<path d="M15.0818 18.7373
L15.8897 19.5452
" />
<path d="M13.2444 18.7373
L15.0818 18.7373
" />
<path d="M17.0650 19.9126
L15.8897 19.9126
" />
<path d="M12.7995 17.6424
L11.1900 16.0329
" />
<path d="M14.5250 17.6424
L12.7995 17.6424
" />
<path d="M11.1900 14.9826
L11.1900 16.0329
" />
<path d="M14.4705 8.8621
L15.2723 8.8621
" />
<path d="M17.7850 8.4626
L17.3855 8.8621
" />
<path d="M6.1184 8.0323
L7.2900 8.0323
" />
<path d="M14.7197 14.7479
L14.4250 15.0426
" />
<path d="M1.8050 9.2876
L4.1850 9.2876
" />
<path d="M14.3450 8.9876
L14.4705 8.8621
" />
<path d="M7.2900 9.0826
L7.2900 8.0323
" />
<path d="M4.1850 9.2876
L5.4403 8.0323
" />
<path d="M15.3494 14.7479
L14.7197 14.7479
" />
<path d="M5.4403 8.0323
L6.1184 8.0323
" />
<path d="M17.3855 8.8621
L15.2723 8.8621
" />
<path d="M17.5925 11.3151
L17.7850 11.1226
" />
<path d="M13.4305 11.3151
L17.5925 11.3151
" />
<path d="M13.4305 11.3151
L13.4305 11.4438
" />
<path d="M11.1900 10.1818
L12.3233 11.3151
" />
<path d="M11.1900 9.0826
L11.1900 10.1818
" />
<path d="M12.3233 11.3151
L13.4305 11.3151
" />
<path d="M13.0397 13.3826
L12.4900 13.9323
" />
<path d="M12.4900 14.9826
L12.4900 16.0329
" />
<path d="M17.7950 13.3826
L13.0397 13.3826
" />
<path d="M13.1430 16.3091
L12.7662 16.3091
" />
<path d="M12.4900 14.9826
L12.4900 13.9323
" />
<path d="M12.7662 16.3091
L12.4900 16.0329
" />
<path d="M4.1850 14.6376
L5.0500 14.6376
" />
<path d="M10.5400 7.2929
L10.5400 9.0826
" />
<path d="M20.3941 14.7435
L20.3941 8.0355
" />
<path d="M11.9850 5.8479
L10.5400 7.2929
" />
<path d="M10.5400 11.3076
L10.5400 9.0826
" />
<path d="M11.9850 4.6726
L11.9850 5.8479
" />
<path d="M10.2471 11.6005
L10.5400 11.3076
" />
<path d="M19.4916 7.1330
L15.2534 7.1330
" />
<path d="M5.0500 14.6376
L7.7450 11.9426
" />
<path d="M9.9050 11.9426
L10.2471 11.6005
" />
<path d="M19.1050 16.0326
L20.3941 14.7435
" />
<path d="M20.3941 8.0355
L19.4916 7.1330
" />
<path d="M10.2471 11.6005
L10.3850 11.4626
" />
<path d="M7.7450 11.9426
L9.9050 11.9426
" />
<path d="M1.7850 14.6376
L4.1850 14.6376
" />
<path d="M7.9400 14.9826
L7.9400 17.7023
" />
<path d="M6.9050 19.9126
L6.9050 18.7373
" />
<path d="M7.9400 17.7023
L6.9050 18.7373
" />
<path d="M4.3650 19.9126
L4.3650 18.7373
" />
<path d="M4.3650 18.7373
L4.5856 18.7373
" />
<path d="M4.5856 18.7373
L7.2900 16.0329
" />
<path d="M7.2900 14.9826
L7.2900 16.0329
" />
<path d="M8.5900 13.9323
L6.6300 13.9323
" />
<path d="M1.8250 19.9126
L1.8250 18.7373
" />
<path d="M6.6300 13.9323
L1.8250 18.7373
" />
<path d="M8.5900 14.9826
L8.5900 13.9323
" />
<path d="M11.8400 9.0826
L11.8400 10.1329
" />
<path d="M15.2725 10.5785
L12.2856 10.5785
" />
<path d="M12.2856 10.5785
L11.8400 10.1329
" />
<path d="M12.4900 7.8829
L14.5250 5.8479
" />
<path d="M14.5250 4.6726
L14.5250 5.8479
" />
<path d="M12.4900 9.0826
L12.4900 7.8829
" />
<path d="M19.4386 12.2133
L11.6090 12.2133
" />
<path d="M19.9142 11.7377
L19.4386 12.2133
" />
<path d="M9.8900 14.9826
L9.8900 13.9323
" />
<path d="M11.6090 12.2133
L9.8900 13.9323
" />
<path d="M19.9142 9.2918
L19.9142 11.7377
" />
<path d="M19.0850 8.4626
L19.9142 9.2918
" />
<path d="M17.8050 16.0326
L14.1900 16.0326
" />
<path d="M14.1900 16.0326
L13.1400 14.9826
" />
<path d="M8.5900 8.0323
L7.6688 7.1111
" />
<path d="M8.5900 9.0826
L8.5900 8.0323
" />
<path d="M7.6688 7.1111
L6.9050 7.1111
" />
<path d="M7.6478 10.3498
L6.3850 10.3498
" />
<path d="M7.9400 10.0576
L7.6478 10.3498
" />
<path d="M7.9400 9.0826
L7.9400 10.0576
" />
<path d="M4.3461 6.3858
L3.0003 5.0400
" />
<path d="M9.2400 8.0323
L7.5935 6.3858
" />
<path d="M1.8250 4.6726
L3.0003 4.6726
" />
<path d="M7.5935 6.3858
L4.3461 6.3858
" />
<path d="M9.2400 9.0826
L9.2400 8.0323
" />
<path d="M3.0003 5.0400
L3.0003 4.6726
" />
<path d="M9.2400 16.3086
L9.2400 14.9826
" />
<path d="M1.7850 13.3376
L1.7850 11.9826
" />
<path d="M1.7850 11.9826
L1.8050 11.9626
" />
<path d="M1.8050 11.9626
L3.9284 11.9626
" />
<path d="M1.8050 11.9626
L1.8050 10.5876
" />
<path d="M8.9481 11.0748
L4.6722 11.0748
" />
<path d="M9.8900 9.0826
L9.8900 10.1329
" />
<path d="M9.8900 10.1329
L8.9481 11.0748
" />
<path d="M4.6722 12.8504
L4.1850 13.3376
" />
<path d="M4.6722 11.0748
L4.6722 12.8504
" />
<path d="M4.1850 10.5876
L4.6722 11.0748
" />
<path d="M15.3244 5.8479
L17.6218 5.8479
" />
<path d="M19.6050 4.6726
L18.4297 4.6726
" />
<path d="M13.1400 9.0826
L13.1400 8.0323
" />
<path d="M18.4297 5.0400
L18.4297 4.6726
" />
<path d="M13.1400 8.0323
L15.3244 5.8479
" />
<path d="M17.6218 5.8479
L18.4297 5.0400
" />
<path d="M14.4849 14.0127
L16.3752 14.0127
" />
<path d="M16.3752 14.0127
L16.8252 14.4627
" />
<path d="M19.0950 14.2302
L19.0950 13.3826
" />
<path d="M16.8252 14.4627
L18.8625 14.4627
" />
<path d="M19.0950 13.3826
L19.0950 13.5013
" />
<path d="M18.8625 14.4627
L19.0950 14.2302
" />
<path d="M14.4250 14.0726
L14.4849 14.0127
" />
<path d="M18.5931 9.7831
L19.0850 10.2750
" />
<path d="M19.0850 11.1226
L19.0850 10.9921
" />
<path d="M19.0850 10.2750
L19.0850 11.1226
" />
<path d="M14.5195 9.7831
L18.5931 9.7831
" />
<path d="M14.3450 9.9576
L14.5195 9.7831
" />
</g>
<g >
</g>
<g style="fill:#37CBCB; fill-opacity:0.0; 
stroke:#37CBCB; stroke-width:0.2500; stroke-opacity:1; 
stroke-linecap:round; stroke-linejoin:round;">
<g >
</g>
<g style="fill:#37CBCB; fill-opacity:1.0000; 
stroke:#37CBCB; stroke-width:0.0000; stroke-opacity:1; 
stroke-linecap:round; stroke-linejoin:round;">
<path style="fill:#37CBCB; fill-opacity:1.0000; 
stroke:#37CBCB; stroke-width:0.0000; stroke-opacity:1; 
stroke-linecap:round; stroke-linejoin:round;fill-rule:evenodd;"
d="M 20.4145,12.2375
20.4714,12.2800
20.4962,12.3465
20.4965,12.3555
20.4965,18.6394
20.4765,18.7076
20.4228,18.7541
20.3526,18.7642
20.3096,18.7498
20.1683,18.6718
20.1683,18.6718
20.1638,18.6693
20.1589,18.6675
20.1589,18.6675
19.9581,18.5964
19.9581,18.5964
19.9532,18.5947
19.9481,18.5938
19.9481,18.5938
19.7384,18.5564
19.7384,18.5564
19.7333,18.5555
19.6595,18.5546
19.5151,18.5528
19.5151,18.5528
19.5099,18.5528
19.2891,18.5866
19.0768,18.6560
19.0464,18.6718
18.8883,18.7541
18.8786,18.7591
18.8745,18.7622
18.8745,18.7622
18.7427,18.8612
18.6762,18.8861
18.6068,18.8711
18.5779,18.8495
16.6096,16.8812
16.5756,16.8189
16.5806,16.7481
16.6232,16.6913
16.6897,16.6664
16.6987,16.6661
16.7846,16.6661
16.8527,16.6861
16.8993,16.7400
16.9030,16.7481
16.9118,16.7674
16.9903,16.8901
17.0837,16.9986
17.1935,17.0944
17.1973,17.0968
17.1973,17.0968
17.2049,17.1018
17.3137,17.1723
17.3178,17.1741
17.3178,17.1741
17.4094,17.2165
17.4459,17.2334
17.5145,17.2539
17.5788,17.2731
17.5788,17.2731
17.5831,17.2744
17.5876,17.2751
17.5876,17.2751
17.7228,17.2953
17.7228,17.2953
17.7272,17.2959
17.8019,17.2964
17.8659,17.2968
17.8659,17.2968
17.8704,17.2968
17.8729,17.2965
17.8767,17.2963
18.3050,17.2963
18.3370,17.2941
18.3714,17.2916
18.3714,17.2916
18.3781,17.2911
18.4144,17.2805
18.4679,17.2766
18.6050,17.2963
19.0950,17.2963
19.0958,17.2964
19.1659,17.2968
19.1659,17.2968
19.1704,17.2968
19.2545,17.2853
19.3103,17.2776
19.3103,17.2776
19.3147,17.2770
19.4524,17.2377
19.5854,17.1782
19.5892,17.1758
19.5892,17.1758
19.7027,17.1042
19.7065,17.1018
19.8175,17.0074
19.8394,16.9826
19.9093,16.9034
19.9123,16.9000
19.9212,16.8863
19.9898,16.7820
19.9922,16.7783
19.9956,16.7712
20.0447,16.6664
20.0531,16.6486
20.0957,16.5093
20.1177,16.3678
20.1195,16.2222
20.1189,16.2179
20.1187,16.2109
20.1187,15.8216
20.1187,15.8216
20.1183,15.8186
20.1183,15.8179
20.1195,15.7222
20.1109,15.6563
20.1015,15.5846
20.1015,15.5846
20.1009,15.5802
20.0618,15.4399
20.0041,15.3088
19.9377,15.2021
19.9295,15.1889
19.9295,15.1889
19.9271,15.1851
19.9170,15.1732
19.8378,15.0789
19.8378,15.0789
19.8349,15.0755
19.7264,14.9784
19.7226,14.9759
19.7226,14.9759
19.6109,14.9015
19.6109,14.9015
19.6071,14.8990
19.6031,14.8971
19.6031,14.8971
19.5755,14.8840
19.5227,14.8366
19.5038,14.7681
19.5249,14.7004
19.5379,14.6840
19.5486,14.6726
19.5514,14.6697
19.5711,14.6500
19.5736,14.6468
19.5813,14.6378
19.6062,14.6113
19.6116,14.6055
19.6154,14.5986
19.6154,14.5986
19.6213,14.5878
19.6322,14.5713
19.6398,14.5615
19.6446,14.5553
19.6478,14.5480
19.6478,14.5480
19.6622,14.5147
19.6674,14.5040
19.6846,14.4727
19.7134,14.4375
19.8040,14.3603
19.8075,14.3574
19.9023,14.2500
19.9235,14.2177
19.9798,14.1320
19.9822,14.1283
20.0431,13.9986
20.0481,13.9824
20.0844,13.8636
20.0857,13.8593
20.0884,13.8421
20.1052,13.7339
20.1077,13.7178
20.1080,13.6973
20.1091,13.6058
20.1095,13.5722
20.1089,13.5679
20.1087,13.5609
20.1087,13.1716
20.1087,13.1716
20.1083,13.1686
20.1088,13.1323
20.1095,13.0722
20.1082,13.0619
20.0915,12.9346
20.0915,12.9346
20.0909,12.9302
20.0518,12.7899
19.9967,12.6647
19.9876,12.5943
20.0180,12.5302
20.0229,12.5249
20.2814,12.2664
20.3437,12.2324
Z" /> 
<path style="fill:#37CBCB; fill-opacity:1.0000; 
stroke:#37CBCB; stroke-width:0.0000; stroke-opacity:1; 
stroke-linecap:round; stroke-linejoin:round;fill-rule:evenodd;"
d="M 10.6000,10.4551
10.6301,10.4897
10.6304,10.4894
10.6351,10.4959
10.6564,10.5252
10.6630,10.5351
10.6780,10.5606
10.6855,10.5732
10.6998,10.5875
10.7126,10.6025
10.7245,10.6189
10.7362,10.6286
10.7586,10.6471
10.7674,10.6551
11.4992,11.3870
11.5333,11.4493
11.5282,11.5201
11.4857,11.5769
11.4499,11.5941
11.4502,11.5948
11.4091,11.6111
11.3979,11.6150
11.3554,11.6273
11.3486,11.6313
11.3486,11.6313
11.3380,11.6376
11.3202,11.6463
11.3014,11.6538
11.2950,11.6584
11.2950,11.6584
11.2656,11.6798
11.2557,11.6863
11.2245,11.7047
11.2245,11.7047
11.2176,11.7088
11.2033,11.7231
11.1883,11.7359
11.1719,11.7478
11.1668,11.7540
11.1437,11.7819
11.1357,11.7907
9.4977,13.4287
9.4895,13.4362
9.4830,13.4403
9.4776,13.4461
9.4364,13.4900
9.4336,13.4928
9.4139,13.5125
9.4114,13.5157
9.4037,13.5248
9.3734,13.5570
9.3696,13.5639
9.3696,13.5639
9.3637,13.5748
9.3528,13.5913
9.3404,13.6073
9.3384,13.6058
9.2955,13.6459
9.2256,13.6586
9.1600,13.6315
9.1370,13.6074
9.1165,13.5793
9.1121,13.5727
9.1080,13.5663
9.0820,13.5253
9.0760,13.5197
9.0603,13.5019
9.0601,13.5016
9.0601,13.5016
9.0555,13.4952
9.0286,13.4730
9.0122,13.4594
9.0063,13.4542
8.9711,13.4212
8.9711,13.4212
8.9653,13.4157
8.9581,13.4118
8.9385,13.3984
8.9383,13.3982
8.9382,13.3982
8.9321,13.3932
8.8813,13.3693
8.8743,13.3657
8.8251,13.3386
8.8174,13.3367
8.8174,13.3367
8.8171,13.3366
8.7948,13.3285
8.7945,13.3284
8.7945,13.3284
8.7873,13.3250
8.7322,13.3145
8.7244,13.3128
8.6897,13.3039
8.6777,13.3008
8.6777,13.3008
8.6700,13.2988
8.6618,13.2988
8.6382,13.2966
8.6379,13.2965
8.6379,13.2965
8.6301,13.2950
8.5740,13.2986
8.5661,13.2988
6.7088,13.2988
6.6976,13.2983
6.6901,13.2966
6.6822,13.2969
6.6822,13.2969
6.6220,13.2988
6.6181,13.2988
6.5901,13.2988
6.5862,13.2993
6.5862,13.2993
6.5861,13.2993
6.5743,13.3003
6.5425,13.3013
6.5380,13.3014
6.5301,13.3016
6.5125,13.3068
6.5107,13.3073
6.4913,13.3113
6.4842,13.3122
6.4712,13.3138
6.4638,13.3168
6.4638,13.3168
6.4301,13.3301
6.4189,13.3340
6.3764,13.3463
6.3696,13.3503
6.3696,13.3503
6.3590,13.3566
6.3412,13.3653
6.3298,13.3698
6.3298,13.3699
6.3224,13.3728
6.3160,13.3774
6.2866,13.3987
6.2767,13.4053
6.2655,13.4119
6.2386,13.4278
6.2243,13.4421
6.2093,13.4549
6.1929,13.4668
6.1647,13.5009
6.1567,13.5097
5.6526,14.0138
5.5903,14.0478
5.5195,14.0428
5.4626,14.0002
5.4378,13.9337
5.4388,13.9068
5.4450,13.8636
5.4487,13.8376
5.4487,13.3476
5.4487,13.3468
5.4492,13.2767
5.4492,13.2767
5.4492,13.2722
5.4354,13.1716
5.4300,13.1323
5.4300,13.1323
5.4294,13.1279
5.3901,12.9902
5.3306,12.8572
5.3276,12.8525
5.3251,12.8486
5.3057,12.7814
5.3057,11.8343
5.3257,11.7662
5.3794,11.7197
5.4317,11.7083
8.8693,11.7083
8.8805,11.7088
8.8880,11.7105
8.8959,11.7103
8.8959,11.7103
8.9561,11.7084
8.9600,11.7083
8.9880,11.7083
8.9919,11.7078
8.9920,11.7078
9.0038,11.7069
9.0361,11.7059
9.0401,11.7057
9.0480,11.7055
9.0674,11.6998
9.0868,11.6958
9.0990,11.6943
9.0990,11.6943
9.1069,11.6933
9.1143,11.6904
9.1143,11.6904
9.1480,11.6770
9.1592,11.6732
9.1941,11.6630
9.1941,11.6630
9.2017,11.6608
9.2085,11.6568
9.2085,11.6568
9.2191,11.6505
9.2369,11.6418
9.2557,11.6344
9.2915,11.6084
9.3014,11.6019
9.3326,11.5834
9.3326,11.5834
9.3395,11.5794
9.3538,11.5650
9.3688,11.5522
9.3788,11.5450
9.3852,11.5403
9.3903,11.5342
9.3903,11.5342
9.4134,11.5062
9.4214,11.4974
10.2823,10.6366
10.2905,10.6290
10.2970,10.6249
10.3129,10.6080
10.3436,10.5753
10.3464,10.5724
10.3661,10.5527
10.3686,10.5495
10.3763,10.5405
10.4066,10.5082
10.4104,10.5013
10.4104,10.5013
10.4138,10.4950
10.4642,10.4450
10.5336,10.4301
Z" /> 
<path style="fill:#37CBCB; fill-opacity:1.0000; 
stroke:#37CBCB; stroke-width:0.0000; stroke-opacity:1; 
stroke-linecap:round; stroke-linejoin:round;fill-rule:evenodd;"
d="M 18.7402,5.7296
18.7767,5.7507
18.8231,5.7893
19.0160,5.9020
19.2247,5.9817
19.2298,5.9827
19.2298,5.9827
19.3249,6.0020
19.4436,6.0262
19.4488,6.0264
19.4488,6.0264
19.6617,6.0342
19.6617,6.0342
19.6668,6.0344
19.6720,6.0337
19.6720,6.0337
19.8833,6.0066
19.8833,6.0066
19.8884,6.0060
19.8934,6.0045
20.0974,5.9433
20.0974,5.9433
20.1024,5.9418
20.3030,5.8435
20.3063,5.8412
20.3747,5.8235
20.4421,5.8458
20.4868,5.9010
20.4965,5.9495
20.4965,8.6740
20.4765,8.7421
20.4228,8.7886
20.3526,8.7987
20.2880,8.7692
20.2814,8.7631
20.1356,8.6174
20.1016,8.5550
20.0987,8.5283
20.0987,8.2921
20.0992,8.2808
20.1014,8.2563
20.1037,8.2312
20.1038,8.2189
20.0987,8.1398
20.0897,8.0767
20.0790,8.0025
20.0790,8.0025
20.0784,7.9980
20.0761,7.9903
20.0388,7.8625
20.0375,7.8582
19.9782,7.7278
19.9758,7.7241
19.9758,7.7241
19.9022,7.6089
19.9022,7.6089
19.8997,7.6051
19.8063,7.4966
19.6965,7.4009
19.6895,7.3964
19.5801,7.3254
19.5763,7.3230
19.5686,7.3194
19.4481,7.2638
19.4481,7.2638
19.4441,7.2619
19.3303,7.2278
19.3112,7.2221
19.3112,7.2221
19.3069,7.2208
19.3024,7.2202
19.3024,7.2202
19.1672,7.2000
19.1672,7.2000
19.1628,7.1993
19.0881,7.1989
19.0241,7.1985
19.0240,7.1985
19.0196,7.1984
19.0171,7.1988
19.0133,7.1989
18.5850,7.1989
18.5760,7.1995
18.5186,7.2036
18.5186,7.2036
18.5119,7.2041
18.4756,7.2148
18.4221,7.2186
18.2850,7.1989
17.7950,7.1989
17.7942,7.1989
17.7241,7.1985
17.7241,7.1985
17.7196,7.1984
17.6355,7.2100
17.5797,7.2176
17.5797,7.2176
17.5753,7.2182
17.4376,7.2576
17.3046,7.3170
17.3008,7.3194
17.3008,7.3194
17.2341,7.3615
17.1835,7.3935
17.0725,7.4879
17.0696,7.4912
17.0162,7.5516
16.9777,7.5952
16.9753,7.5990
16.9753,7.5990
16.9686,7.6091
16.8978,7.7170
16.8959,7.7210
16.8959,7.7210
16.8770,7.7613
16.8369,7.8466
16.8356,7.8509
16.8356,7.8509
16.8042,7.9536
16.7943,7.9859
16.7907,8.0088
16.7731,8.1220
16.7429,8.1862
16.6827,8.2239
16.6486,8.2286
15.9805,8.2286
15.9124,8.2086
15.8932,8.1923
15.8929,8.1926
15.8880,8.1882
15.8836,8.1833
15.7291,8.0710
15.7230,8.0683
15.7230,8.0683
15.5606,7.9960
15.5606,7.9960
15.5546,7.9933
15.4612,7.9735
15.3742,7.9550
15.3742,7.9550
15.3678,7.9536
15.1768,7.9536
15.1704,7.9550
15.1704,7.9550
15.0834,7.9735
14.9900,7.9933
14.9840,7.9960
14.9840,7.9960
14.8216,8.0683
14.8216,8.0683
14.8155,8.0710
14.8102,8.0749
14.8102,8.0749
14.6900,8.1622
14.6232,8.1861
14.6061,8.1859
14.5935,8.1849
14.5837,8.1841
14.5698,8.1841
14.1883,8.1841
14.1202,8.1641
14.0737,8.1105
14.0636,8.0402
14.0931,7.9756
14.0992,7.9690
14.7428,7.3254
15.5499,6.5183
15.6122,6.4843
15.6390,6.4814
17.5430,6.4814
17.5542,6.4819
17.5617,6.4836
17.5696,6.4834
17.5696,6.4834
17.6298,6.4815
17.6337,6.4814
17.6617,6.4814
17.6656,6.4809
17.6657,6.4809
17.6775,6.4800
17.7098,6.4790
17.7138,6.4788
17.7217,6.4786
17.7411,6.4729
17.7605,6.4689
17.7727,6.4674
17.7727,6.4674
17.7806,6.4664
17.7880,6.4635
17.7880,6.4635
17.8217,6.4501
17.8329,6.4463
17.8678,6.4361
17.8678,6.4361
17.8754,6.4339
17.8822,6.4299
17.8822,6.4299
17.8928,6.4236
17.9106,6.4149
17.9294,6.4075
17.9652,6.3815
17.9751,6.3750
18.0063,6.3565
18.0063,6.3565
18.0132,6.3525
18.0275,6.3381
18.0425,6.3253
18.0525,6.3181
18.0589,6.3134
18.0871,6.2793
18.0951,6.2705
18.6071,5.7585
18.6694,5.7245
Z" /> 
<path style="fill:#37CBCB; fill-opacity:1.0000; 
stroke:#37CBCB; stroke-width:0.0000; stroke-opacity:1; 
stroke-linecap:round; stroke-linejoin:round;fill-rule:evenodd;"
d="M 12.1811,4.4386
12.2276,4.4923
12.2390,4.5446
12.2390,5.9911
12.2431,6.0050
12.2565,6.0070
12.2632,6.0062
12.2733,6.0040
12.4773,5.9428
12.4868,5.9391
12.6781,5.8454
12.6869,5.8401
12.8603,5.7164
12.8682,5.7098
13.0191,5.5594
13.0257,5.5516
13.1530,5.3744
13.1543,5.3753
13.2014,5.3320
13.2713,5.3198
13.3368,5.3473
13.3646,5.3791
13.4250,5.4777
13.5712,5.6466
13.6065,5.6758
13.6462,5.7347
13.6477,5.8057
13.6151,5.8619
12.0977,7.3793
12.0895,7.3868
12.0830,7.3909
12.0776,7.3967
12.0364,7.4406
12.0336,7.4434
12.0139,7.4631
12.0114,7.4663
12.0037,7.4754
11.9734,7.5076
11.9696,7.5145
11.9696,7.5145
11.9637,7.5254
11.9528,7.5419
11.9404,7.5579
11.9372,7.5651
11.9372,7.5652
11.9228,7.5985
11.9176,7.6091
11.8963,7.6479
11.8943,7.6555
11.8943,7.6555
11.8913,7.6675
11.8849,7.6862
11.8768,7.7048
11.8756,7.7126
11.8756,7.7126
11.8708,7.7428
11.8404,7.8070
11.7801,7.8445
11.7463,7.8491
11.5669,7.8491
11.5635,7.8495
11.5635,7.8495
11.5375,7.8523
11.5286,7.8533
11.5014,7.8533
11.4925,7.8523
11.4665,7.8495
11.4665,7.8495
11.4631,7.8491
10.9169,7.8491
10.8763,7.8535
10.8491,7.8535
10.8165,7.8500
10.8097,7.8496
10.7831,7.8496
10.7679,7.8541
10.7456,7.8798
10.7451,7.8793
10.7383,7.8917
10.7182,7.9068
10.7183,7.9070
10.6156,7.9840
10.5491,8.0088
10.4797,7.9938
10.4644,7.9840
10.3689,7.9124
10.3689,7.9124
10.3617,7.9070
10.3619,7.9067
10.3159,7.8606
10.3136,7.8552
10.3091,7.8513
10.3015,7.8496
10.2703,7.8496
10.2635,7.8500
10.2309,7.8535
10.2037,7.8535
10.1631,7.8491
9.9382,7.8491
9.8700,7.8291
9.8268,7.7782
9.8260,7.7787
9.8232,7.7739
9.8232,7.7739
9.8157,7.7613
9.8070,7.7435
9.8025,7.7321
9.7996,7.7247
9.7736,7.6889
9.7670,7.6790
9.7486,7.6478
9.7445,7.6410
9.7302,7.6266
9.7174,7.6116
9.7160,7.6097
9.7055,7.5952
9.6714,7.5670
9.6626,7.5590
8.0972,5.9936
8.0896,5.9853
8.0855,5.9788
8.0358,5.9322
8.0330,5.9294
8.0133,5.9097
8.0101,5.9072
8.0011,5.8995
7.9688,5.8692
7.9619,5.8654
7.9619,5.8654
7.9511,5.8595
7.9345,5.8486
7.9280,5.8435
7.9185,5.8362
7.9102,5.8326
7.9094,5.8320
7.9044,5.8290
7.9049,5.8282
7.8556,5.7872
7.8342,5.7195
7.8529,5.6510
7.8713,5.6277
7.9394,5.5598
7.9431,5.5561
8.0735,5.3747
8.0748,5.3756
8.1216,5.3325
8.1916,5.3202
8.2570,5.3478
8.2849,5.3796
8.3450,5.4777
8.4912,5.6466
8.5851,5.7245
8.6431,5.7726
8.6631,5.7893
8.8560,5.9020
9.0647,5.9817
9.0698,5.9827
9.0698,5.9827
9.1649,6.0020
9.2836,6.0262
9.2888,6.0264
9.2888,6.0264
9.5017,6.0342
9.5017,6.0342
9.5068,6.0344
9.5120,6.0337
9.5120,6.0337
9.7233,6.0066
9.7233,6.0066
9.7284,6.0060
9.7334,6.0045
9.9374,5.9433
9.9374,5.9433
9.9424,5.9418
10.1430,5.8435
10.3249,5.7138
10.4831,5.5561
10.6135,5.3747
10.6146,5.3755
10.6620,5.3320
10.7319,5.3198
10.7973,5.3473
10.8252,5.3791
10.8827,5.4730
10.8888,5.4813
11.0282,5.6423
11.0356,5.6495
11.1994,5.7855
11.2079,5.7915
11.3918,5.8989
11.4010,5.9033
11.6000,5.9793
11.6099,5.9822
11.7132,6.0032
11.7273,6.0020
11.7310,5.9917
11.7310,4.5446
11.7510,4.4765
11.8047,4.4300
11.8570,4.4186
12.1130,4.4186
Z" /> 
</g>
</g>
</g>
<g style="fill:#000000; fill-opacity:1.0000; 
stroke:#000000; stroke-width:0.0000; stroke-opacity:1; 
stroke-linecap:round; stroke-linejoin:round;">
<circle cx="14.5250" cy="17.6424" r="0.2000" /> 
</g>
<g style="fill:#000000; fill-opacity:1.0000; 
stroke:#000000; stroke-width:0.0212; stroke-opacity:1; 
stroke-linecap:round; stroke-linejoin:round;">
</g>
<g style="fill:#000000; fill-opacity:1.0000; 
stroke:#000000; stroke-width:0.0000; stroke-opacity:1; 
stroke-linecap:round; stroke-linejoin:round;">
<circle cx="15.3494" cy="14.7479" r="0.2000" /> 
</g>
<g style="fill:#000000; fill-opacity:1.0000; 
stroke:#000000; stroke-width:0.0212; stroke-opacity:1; 
stroke-linecap:round; stroke-linejoin:round;">
</g>
<g style="fill:#000000; fill-opacity:1.0000; 
stroke:#000000; stroke-width:0.0000; stroke-opacity:1; 
stroke-linecap:round; stroke-linejoin:round;">
<circle cx="6.1184" cy="8.0323" r="0.2000" /> 
</g>
<g style="fill:#000000; fill-opacity:1.0000; 
stroke:#000000; stroke-width:0.0212; stroke-opacity:1; 
stroke-linecap:round; stroke-linejoin:round;">
</g>
<g style="fill:#000000; fill-opacity:1.0000; 
stroke:#000000; stroke-width:0.0000; stroke-opacity:1; 
stroke-linecap:round; stroke-linejoin:round;">
<circle cx="15.2723" cy="8.8621" r="0.2000" /> 
</g>
<g style="fill:#000000; fill-opacity:1.0000; 
stroke:#000000; stroke-width:0.0212; stroke-opacity:1; 
stroke-linecap:round; stroke-linejoin:round;">
</g>
<g style="fill:#000000; fill-opacity:1.0000; 
stroke:#000000; stroke-width:0.0000; stroke-opacity:1; 
stroke-linecap:round; stroke-linejoin:round;">
<circle cx="13.4305" cy="11.4438" r="0.2000" /> 
</g>
<g style="fill:#000000; fill-opacity:1.0000; 
stroke:#000000; stroke-width:0.0212; stroke-opacity:1; 
stroke-linecap:round; stroke-linejoin:round;">
</g>
<g style="fill:#000000; fill-opacity:1.0000; 
stroke:#000000; stroke-width:0.0000; stroke-opacity:1; 
stroke-linecap:round; stroke-linejoin:round;">
<circle cx="13.1430" cy="16.3091" r="0.2000" /> 
</g>
<g style="fill:#000000; fill-opacity:1.0000; 
stroke:#000000; stroke-width:0.0212; stroke-opacity:1; 
stroke-linecap:round; stroke-linejoin:round;">
</g>
<g style="fill:#000000; fill-opacity:1.0000; 
stroke:#000000; stroke-width:0.0000; stroke-opacity:1; 
stroke-linecap:round; stroke-linejoin:round;">
<circle cx="15.2534" cy="7.1330" r="0.2000" /> 
</g>
<g style="fill:#000000; fill-opacity:1.0000; 
stroke:#000000; stroke-width:0.0212; stroke-opacity:1; 
stroke-linecap:round; stroke-linejoin:round;">
</g>
<g style="fill:#000000; fill-opacity:1.0000; 
stroke:#000000; stroke-width:0.0000; stroke-opacity:1; 
stroke-linecap:round; stroke-linejoin:round;">
<circle cx="10.3850" cy="11.4626" r="0.2000" /> 
</g>
<g style="fill:#000000; fill-opacity:1.0000; 
stroke:#000000; stroke-width:0.0212; stroke-opacity:1; 
stroke-linecap:round; stroke-linejoin:round;">
</g>
<g style="fill:#000000; fill-opacity:1.0000; 
stroke:#000000; stroke-width:0.0000; stroke-opacity:1; 
stroke-linecap:round; stroke-linejoin:round;">
<circle cx="6.2100" cy="9.1876" r="0.2000" /> 
</g>
<g style="fill:#000000; fill-opacity:1.0000; 
stroke:#000000; stroke-width:0.0212; stroke-opacity:1; 
stroke-linecap:round; stroke-linejoin:round;">
</g>
<g style="fill:#000000; fill-opacity:1.0000; 
stroke:#000000; stroke-width:0.0000; stroke-opacity:1; 
stroke-linecap:round; stroke-linejoin:round;">
<circle cx="15.2725" cy="10.5785" r="0.2000" /> 
</g>
<g style="fill:#000000; fill-opacity:1.0000; 
stroke:#000000; stroke-width:0.0212; stroke-opacity:1; 
stroke-linecap:round; stroke-linejoin:round;">
</g>
<g style="fill:#000000; fill-opacity:1.0000; 
stroke:#000000; stroke-width:0.0000; stroke-opacity:1; 
stroke-linecap:round; stroke-linejoin:round;">
<circle cx="6.9050" cy="7.1111" r="0.2000" /> 
</g>
<g style="fill:#000000; fill-opacity:1.0000; 
stroke:#000000; stroke-width:0.0212; stroke-opacity:1; 
stroke-linecap:round; stroke-linejoin:round;">
</g>
<g style="fill:#000000; fill-opacity:1.0000; 
stroke:#000000; stroke-width:0.0000; stroke-opacity:1; 
stroke-linecap:round; stroke-linejoin:round;">
<circle cx="6.3850" cy="10.3498" r="0.2000" /> 
</g>
<g style="fill:#000000; fill-opacity:1.0000; 
stroke:#000000; stroke-width:0.0212; stroke-opacity:1; 
stroke-linecap:round; stroke-linejoin:round;">
</g>
<g style="fill:#000000; fill-opacity:1.0000; 
stroke:#000000; stroke-width:0.0000; stroke-opacity:1; 
stroke-linecap:round; stroke-linejoin:round;">
<circle cx="9.2400" cy="16.3086" r="0.2000" /> 
</g>
<g style="fill:#000000; fill-opacity:1.0000; 
stroke:#000000; stroke-width:0.0212; stroke-opacity:1; 
stroke-linecap:round; stroke-linejoin:round;">
</g>
<g style="fill:#000000; fill-opacity:1.0000; 
stroke:#000000; stroke-width:0.0000; stroke-opacity:1; 
stroke-linecap:round; stroke-linejoin:round;">
<circle cx="3.9284" cy="11.9626" r="0.2000" /> 
</g>
<g style="fill:#000000; fill-opacity:1.0000; 
stroke:#000000; stroke-width:0.0212; stroke-opacity:1; 
stroke-linecap:round; stroke-linejoin:round;">
</g>
<g style="fill:#000000; fill-opacity:1.0000; 
stroke:#000000; stroke-width:0.0000; stroke-opacity:1; 
stroke-linecap:round; stroke-linejoin:round;">
<circle cx="1.8250" cy="19.9126" r="0.5000" /> 
</g>
<g style="fill:#000000; fill-opacity:1.0000; 
stroke:#000000; stroke-width:0.0212; stroke-opacity:1; 
stroke-linecap:round; stroke-linejoin:round;">
</g>
<g style="fill:#000000; fill-opacity:1.0000; 
stroke:#000000; stroke-width:0.0000; stroke-opacity:1; 
stroke-linecap:round; stroke-linejoin:round;">
<circle cx="4.3650" cy="19.9126" r="0.5000" /> 
</g>
<g style="fill:#000000; fill-opacity:1.0000; 
stroke:#000000; stroke-width:0.0212; stroke-opacity:1; 
stroke-linecap:round; stroke-linejoin:round;">
</g>
<g style="fill:#000000; fill-opacity:1.0000; 
stroke:#000000; stroke-width:0.0000; stroke-opacity:1; 
stroke-linecap:round; stroke-linejoin:round;">
<circle cx="6.9050" cy="19.9126" r="0.5000" /> 
</g>
<g style="fill:#000000; fill-opacity:1.0000; 
stroke:#000000; stroke-width:0.0212; stroke-opacity:1; 
stroke-linecap:round; stroke-linejoin:round;">
</g>
<g style="fill:#000000; fill-opacity:1.0000; 
stroke:#000000; stroke-width:0.0000; stroke-opacity:1; 
stroke-linecap:round; stroke-linejoin:round;">
<circle cx="9.4450" cy="19.9126" r="0.5000" /> 
</g>
<g style="fill:#000000; fill-opacity:1.0000; 
stroke:#000000; stroke-width:0.0212; stroke-opacity:1; 
stroke-linecap:round; stroke-linejoin:round;">
</g>
<g style="fill:#000000; fill-opacity:1.0000; 
stroke:#000000; stroke-width:0.0000; stroke-opacity:1; 
stroke-linecap:round; stroke-linejoin:round;">
<circle cx="11.9850" cy="19.9126" r="0.5000" /> 
</g>
<g style="fill:#000000; fill-opacity:1.0000; 
stroke:#000000; stroke-width:0.0212; stroke-opacity:1; 
stroke-linecap:round; stroke-linejoin:round;">
</g>
<g style="fill:#000000; fill-opacity:1.0000; 
stroke:#000000; stroke-width:0.0000; stroke-opacity:1; 
stroke-linecap:round; stroke-linejoin:round;">
<circle cx="14.5250" cy="19.9126" r="0.5000" /> 
</g>
<g style="fill:#000000; fill-opacity:1.0000; 
stroke:#000000; stroke-width:0.0212; stroke-opacity:1; 
stroke-linecap:round; stroke-linejoin:round;">
</g>
<g style="fill:#000000; fill-opacity:1.0000; 
stroke:#000000; stroke-width:0.0000; stroke-opacity:1; 
stroke-linecap:round; stroke-linejoin:round;">
<circle cx="17.0650" cy="19.9126" r="0.5000" /> 
</g>
<g style="fill:#000000; fill-opacity:1.0000; 
stroke:#000000; stroke-width:0.0212; stroke-opacity:1; 
stroke-linecap:round; stroke-linejoin:round;">
</g>
<g style="fill:#000000; fill-opacity:1.0000; 
stroke:#000000; stroke-width:0.0000; stroke-opacity:1; 
stroke-linecap:round; stroke-linejoin:round;">
<circle cx="19.6050" cy="19.9126" r="0.5000" /> 
</g>
<g style="fill:#000000; fill-opacity:1.0000; 
stroke:#000000; stroke-width:0.0212; stroke-opacity:1; 
stroke-linecap:round; stroke-linejoin:round;">
</g>
<g style="fill:#000000; fill-opacity:1.0000; 
stroke:#000000; stroke-width:0.0000; stroke-opacity:1; 
stroke-linecap:round; stroke-linejoin:round;">
<circle cx="1.8250" cy="4.6726" r="0.5000" /> 
</g>
<g style="fill:#000000; fill-opacity:1.0000; 
stroke:#000000; stroke-width:0.0212; stroke-opacity:1; 
stroke-linecap:round; stroke-linejoin:round;">
</g>
<g style="fill:#000000; fill-opacity:1.0000; 
stroke:#000000; stroke-width:0.0000; stroke-opacity:1; 
stroke-linecap:round; stroke-linejoin:round;">
<circle cx="4.3650" cy="4.6726" r="0.5000" /> 
</g>
<g style="fill:#000000; fill-opacity:1.0000; 
stroke:#000000; stroke-width:0.0212; stroke-opacity:1; 
stroke-linecap:round; stroke-linejoin:round;">
</g>
<g style="fill:#000000; fill-opacity:1.0000; 
stroke:#000000; stroke-width:0.0000; stroke-opacity:1; 
stroke-linecap:round; stroke-linejoin:round;">
<circle cx="6.9050" cy="4.6726" r="0.5000" /> 
</g>
<g style="fill:#000000; fill-opacity:1.0000; 
stroke:#000000; stroke-width:0.0212; stroke-opacity:1; 
stroke-linecap:round; stroke-linejoin:round;">
</g>
<g style="fill:#000000; fill-opacity:1.0000; 
stroke:#000000; stroke-width:0.0000; stroke-opacity:1; 
stroke-linecap:round; stroke-linejoin:round;">
<circle cx="9.4450" cy="4.6726" r="0.5000" /> 
</g>
<g style="fill:#000000; fill-opacity:1.0000; 
stroke:#000000; stroke-width:0.0212; stroke-opacity:1; 
stroke-linecap:round; stroke-linejoin:round;">
</g>
<g style="fill:#000000; fill-opacity:1.0000; 
stroke:#000000; stroke-width:0.0000; stroke-opacity:1; 
stroke-linecap:round; stroke-linejoin:round;">
<circle cx="11.9850" cy="4.6726" r="0.5000" /> 
</g>
<g style="fill:#000000; fill-opacity:1.0000; 
stroke:#000000; stroke-width:0.0212; stroke-opacity:1; 
stroke-linecap:round; stroke-linejoin:round;">
</g>
<g style="fill:#000000; fill-opacity:1.0000; 
stroke:#000000; stroke-width:0.0000; stroke-opacity:1; 
stroke-linecap:round; stroke-linejoin:round;">
<circle cx="14.5250" cy="4.6726" r="0.5000" /> 
</g>
<g style="fill:#000000; fill-opacity:1.0000; 
stroke:#000000; stroke-width:0.0212; stroke-opacity:1; 
stroke-linecap:round; stroke-linejoin:round;">
</g>
<g style="fill:#000000; fill-opacity:1.0000; 
stroke:#000000; stroke-width:0.0000; stroke-opacity:1; 
stroke-linecap:round; stroke-linejoin:round;">
<circle cx="17.0650" cy="4.6726" r="0.5000" /> 
</g>
<g style="fill:#000000; fill-opacity:1.0000; 
stroke:#000000; stroke-width:0.0212; stroke-opacity:1; 
stroke-linecap:round; stroke-linejoin:round;">
</g>
<g style="fill:#000000; fill-opacity:1.0000; 
stroke:#000000; stroke-width:0.0000; stroke-opacity:1; 
stroke-linecap:round; stroke-linejoin:round;">
<circle cx="19.6050" cy="4.6726" r="0.5000" /> 
</g>
<g style="fill:#000000; fill-opacity:1.0000; 
stroke:#000000; stroke-width:0.0212; stroke-opacity:1; 
stroke-linecap:round; stroke-linejoin:round;">
</g>
<g style="fill:#FFFFFF; fill-opacity:1.0000; 
stroke:#FFFFFF; stroke-width:0.0212; stroke-opacity:1; 
stroke-linecap:round; stroke-linejoin:round;">
<g >
</g>
<g >
</g>
<g >
</g>
<g >
</g>
<g >
</g>
<g >
</g>
<g >
</g>
<g >
</g>
<g >
</g>
<g >
</g>
<g >
</g>
<g >
</g>
<g >
</g>
<g >
</g>
<g >
</g>
<g >
</g>
<g >
</g>
</g>
<g style="fill:#FFFFFF; fill-opacity:1.0000; 
stroke:#FFFFFF; stroke-width:0.0212; stroke-opacity:1; 
stroke-linecap:round; stroke-linejoin:round;">
</g>
<g style="fill:#2F2D31; fill-opacity:1.0000; 
stroke:#2F2D31; stroke-width:0.0212; stroke-opacity:1; 
stroke-linecap:round; stroke-linejoin:round;">
</g>
<g style="fill:#2F2D31; fill-opacity:1.0000; 
stroke:#2F2D31; stroke-width:0.0500; stroke-opacity:1; 
stroke-linecap:round; stroke-linejoin:round;">
</g>
<g style="fill:#2F2D31; fill-opacity:0.0; 
stroke:#2F2D31; stroke-width:0.0500; stroke-opacity:1; 
stroke-linecap:round; stroke-linejoin:round;">
<path d="M21.0050 3.2826
L0.4350 3.2826
" />
<path d="M21.0050 21.3026
L21.0050 3.2826
" />
<path d="M0.4350 21.3026
L21.0050 21.3026
" />
<path d="M0.4350 3.2826
L0.4350 21.3026
" />
<g >
</g>
<g >
</g>
<g >
</g>
<g >
</g>
<g >
</g>
<g >
</g>
<g >
</g>
<g >
</g>
<g >
</g>
<g >
</g>
<g >
</g>
<g >
</g>
<g >
</g>
<g >
</g>
<g >
</g>
<g >
</g>
<g >
</g>
</g> 
</svg>
