<?xml version="1.0" standalone="no"?>
 <!DOCTYPE svg PUBLIC "-//W3C//DTD SVG 1.1//EN" 
 "http://www.w3.org/Graphics/SVG/1.1/DTD/svg11.dtd"> 
<svg
  xmlns:svg="http://www.w3.org/2000/svg"
  xmlns="http://www.w3.org/2000/svg"
  xmlns:xlink="http://www.w3.org/1999/xlink"
  version="1.1"
  width="21.1836mm" height="130.7084mm" viewBox="0.0000 0.0000 21.1836 130.7084">
<title>SVG Image created as working-brd.svg date 2023/09/30 04:19:14 </title>
  <desc>Image generated by PCBNEW </desc>
<g style="fill:#000000; fill-opacity:1.0000;stroke:#000000; stroke-opacity:1.0000;
stroke-linecap:round; stroke-linejoin:round;"
 transform="translate(0 0) scale(1 1)">
</g>
<g style="fill:#000000; fill-opacity:0.0; 
stroke:#000000; stroke-width:0.0000; stroke-opacity:1; 
stroke-linecap:round; stroke-linejoin:round;">
</g>
<g style="fill:#000000; fill-opacity:1.0000; 
stroke:#000000; stroke-width:0.0212; stroke-opacity:1; 
stroke-linecap:round; stroke-linejoin:round;">
<rect x="-5.000000" y="-5.000000" width="31.200000" height="140.728869" rx="0.000000" />
</g>
<g style="fill:#FFFFFF; fill-opacity:1.0000; 
stroke:#FFFFFF; stroke-width:0.0212; stroke-opacity:1; 
stroke-linecap:round; stroke-linejoin:round;">
<g >
</g>
<g >
</g>
<g >
</g>
<g >
</g>
<g >
</g>
<g >
</g>
<g >
</g>
<g >
</g>
<g >
</g>
<g >
</g>
<g >
</g>
<g >
</g>
<g >
</g>
<g >
</g>
<g >
</g>
<g >
</g>
<g >
</g>
<g >
</g>
<g style="fill:#B2803A; fill-opacity:1.0000; 
stroke:#B2803A; stroke-width:0.0212; stroke-opacity:1; 
stroke-linecap:round; stroke-linejoin:round;">
<g >
</g>
<g style="fill:#B2803A; fill-opacity:1.0000; 
stroke:#B2803A; stroke-width:0.0000; stroke-opacity:1; 
stroke-linecap:round; stroke-linejoin:round;">
<path style="fill:#B2803A; fill-opacity:1.0000; 
stroke:#B2803A; stroke-width:0.0000; stroke-opacity:1; 
stroke-linecap:round; stroke-linejoin:round;fill-rule:evenodd;"
d="M 20.7416,0.6494
20.7881,0.7030
20.7995,0.7554
20.7995,129.0024
20.7795,129.0705
20.7258,129.1170
20.6735,129.1284
0.6265,129.1284
0.5584,129.1084
0.5119,129.0547
0.5005,129.0024
0.5005,126.1966
5.2258,126.1966
5.2554,126.4659
5.3239,126.7280
5.4299,126.9773
5.4299,126.9773
5.5710,127.2085
5.7443,127.4167
5.9460,127.5975
6.1719,127.7469
6.4172,127.8619
6.6766,127.9399
6.6766,127.9399
6.6766,127.9399
6.9446,127.9794
6.9446,127.9794
8.9476,127.9794
8.9824,127.9768
9.1502,127.9645
9.1502,127.9645
9.1502,127.9645
9.2607,127.9399
9.4146,127.9056
9.6676,127.8089
9.9038,127.6763
10.1182,127.5108
10.3062,127.3157
10.4638,127.0954
10.5877,126.8545
10.6751,126.5982
10.7243,126.3318
10.7342,126.0611
10.7193,125.9259
10.7046,125.7919
10.6361,125.5298
10.5301,125.2805
10.5301,125.2805
10.3890,125.0493
10.2157,124.8410
10.2157,124.8410
10.2157,124.8410
10.0140,124.6603
10.0140,124.6603
9.7881,124.5108
9.5428,124.3958
9.3854,124.3485
9.2834,124.3178
9.0154,124.2784
9.0154,124.2784
7.0124,124.2784
7.0124,124.2784
6.8098,124.2932
6.8098,124.2932
6.5455,124.3521
6.5454,124.3521
6.2924,124.4489
6.0562,124.5814
6.0562,124.5814
5.8418,124.7470
5.6538,124.9420
5.6538,124.9420
5.4962,125.1623
5.4962,125.1623
5.3723,125.4032
5.3723,125.4032
5.2849,125.6596
5.2849,125.6596
5.2357,125.9259
5.2357,125.9259
5.2258,126.1966
0.5005,126.1966
0.5005,118.0094
2.5344,118.0094
2.5345,118.0339
2.5345,118.0339
2.5345,118.0339
2.5345,118.0340
2.5346,118.0343
2.5350,118.0344
2.5350,118.0344
2.5600,118.0344
2.5600,118.0344
2.5602,118.0344
18.6398,118.0344
18.6400,118.0344
18.6400,118.0344
18.6650,118.0344
18.6650,118.0344
18.6654,118.0343
18.6655,118.0340
18.6655,118.0339
18.6655,118.0339
18.6655,118.0339
18.6656,118.0094
18.6655,118.0089
18.6655,104.8490
18.6655,104.8489
18.6655,104.8489
18.6655,104.8239
18.6655,104.8239
18.6654,104.8235
18.6651,104.8234
18.6650,104.8233
18.6650,104.8233
18.6400,104.8233
18.6398,104.8234
2.5602,104.8234
2.5600,104.8233
2.5350,104.8233
2.5350,104.8233
2.5349,104.8234
2.5346,104.8235
2.5345,104.8239
2.5345,104.8489
2.5345,104.8489
2.5345,104.8490
2.5345,118.0089
2.5344,118.0094
0.5005,118.0094
0.5005,102.2094
2.5344,102.2094
2.5345,102.2339
2.5345,102.2339
2.5345,102.2339
2.5345,102.2340
2.5346,102.2343
2.5350,102.2344
2.5350,102.2344
2.5600,102.2344
2.5600,102.2344
2.5602,102.2344
18.6398,102.2344
18.6400,102.2344
18.6400,102.2344
18.6650,102.2344
18.6650,102.2344
18.6654,102.2343
18.6655,102.2340
18.6655,102.2339
18.6655,102.2339
18.6655,102.2339
18.6656,102.2094
18.6655,102.2089
18.6655,89.0490
18.6655,89.0489
18.6655,89.0489
18.6655,89.0239
18.6655,89.0239
18.6654,89.0235
18.6651,89.0234
18.6650,89.0233
18.6650,89.0233
18.6400,89.0233
18.6398,89.0234
2.5602,89.0234
2.5600,89.0233
2.5350,89.0233
2.5350,89.0233
2.5349,89.0234
2.5346,89.0235
2.5345,89.0239
2.5345,89.0489
2.5345,89.0489
2.5345,89.0490
2.5345,102.2089
2.5344,102.2094
0.5005,102.2094
0.5005,76.2322
6.8458,76.2322
6.8557,76.6187
6.8557,76.6187
6.9054,77.0022
6.9054,77.0022
6.9942,77.3785
6.9942,77.3785
7.1212,77.7437
7.2851,78.0939
7.4842,78.4253
7.7162,78.7346
7.9789,79.0184
8.2693,79.2736
8.5844,79.4976
8.9209,79.6881
9.2752,79.8429
9.6436,79.9605
10.0221,80.0396
10.2623,80.0644
10.4067,80.0794
10.4067,80.0794
10.6966,80.0794
10.6966,80.0794
10.9572,80.0659
10.9861,80.0644
10.9861,80.0644
11.1456,80.0396
11.3682,80.0049
11.7421,79.9065
11.9903,79.8129
12.1039,79.7701
12.1039,79.7701
12.1039,79.7701
12.4498,79.5972
12.7760,79.3897
13.0792,79.1497
13.3561,78.8799
13.6038,78.5830
13.8196,78.2622
14.0013,77.9209
14.1470,77.5627
14.2551,77.1915
14.3244,76.8111
14.3542,76.4256
14.3443,76.0390
14.2946,75.6556
14.2058,75.2793
14.0788,74.9141
13.9149,74.5639
13.7158,74.2324
13.4838,73.9231
13.2211,73.6394
12.9307,73.3841
12.6156,73.1601
12.2791,72.9696
12.2790,72.9696
12.2790,72.9696
12.1205,72.9004
11.9248,72.8148
11.9247,72.8148
11.9247,72.8148
11.5564,72.6972
11.1779,72.6181
10.7933,72.5784
10.7933,72.5784
10.5034,72.5784
10.4177,72.5828
10.2139,72.5933
10.2138,72.5933
9.8318,72.6528
9.4579,72.7513
9.4579,72.7513
9.0961,72.8877
9.0961,72.8877
8.7503,73.0605
8.7502,73.0605
8.4240,73.2680
8.4240,73.2681
8.1208,73.5080
7.8439,73.7779
7.5962,74.0748
7.3804,74.3956
7.3804,74.3956
7.1987,74.7369
7.1987,74.7369
7.0530,75.0950
7.0530,75.0950
6.9449,75.4663
6.9449,75.4663
6.8756,75.8467
6.8756,75.8467
6.8756,75.8467
6.8458,76.2322
0.5005,76.2322
0.5005,57.2322
6.8458,57.2322
6.8557,57.6187
6.8557,57.6187
6.9054,58.0022
6.9054,58.0022
6.9942,58.3785
6.9942,58.3785
7.1212,58.7437
7.2851,59.0939
7.4842,59.4253
7.7162,59.7346
7.9789,60.0184
8.2693,60.2736
8.5844,60.4977
8.9209,60.6881
9.2752,60.8429
9.6436,60.9605
10.0221,61.0396
10.2623,61.0644
10.4067,61.0794
10.4067,61.0794
10.6966,61.0794
10.6966,61.0794
10.9572,61.0659
10.9861,61.0644
10.9861,61.0644
11.1456,61.0396
11.3682,61.0049
11.7421,60.9065
11.9903,60.8129
12.1039,60.7701
12.1039,60.7701
12.1039,60.7701
12.4498,60.5972
12.7760,60.3897
13.0792,60.1497
13.3561,59.8799
13.6038,59.5830
13.8196,59.2622
14.0013,58.9209
14.1470,58.5627
14.2551,58.1915
14.3244,57.8111
14.3542,57.4256
14.3443,57.0390
14.2946,56.6556
14.2058,56.2793
14.0788,55.9141
13.9149,55.5639
13.7158,55.2324
13.4838,54.9231
13.2211,54.6394
12.9307,54.3841
12.6156,54.1601
12.2791,53.9696
12.2790,53.9696
12.2790,53.9696
12.1205,53.9004
11.9248,53.8148
11.9247,53.8148
11.9247,53.8148
11.5564,53.6972
11.1779,53.6181
10.7933,53.5784
10.7933,53.5784
10.5034,53.5784
10.4177,53.5828
10.2139,53.5933
10.2138,53.5933
9.8318,53.6528
9.4579,53.7513
9.4579,53.7513
9.0961,53.8877
9.0961,53.8877
8.7503,54.0605
8.7502,54.0605
8.4240,54.2680
8.4240,54.2680
8.1208,54.5080
7.8439,54.7779
7.5962,55.0748
7.3804,55.3956
7.3804,55.3956
7.1987,55.7369
7.1987,55.7369
7.0530,56.0950
7.0530,56.0950
6.9449,56.4663
6.9449,56.4663
6.8756,56.8467
6.8756,56.8467
6.8756,56.8467
6.8458,57.2322
0.5005,57.2322
0.5005,38.2322
6.8458,38.2322
6.8557,38.6187
6.8557,38.6187
6.9054,39.0022
6.9054,39.0022
6.9942,39.3785
6.9942,39.3785
7.1212,39.7437
7.2851,40.0939
7.4842,40.4253
7.7162,40.7346
7.9789,41.0184
8.2693,41.2736
8.5844,41.4977
8.9209,41.6881
9.2752,41.8429
9.6436,41.9605
10.0221,42.0396
10.2623,42.0644
10.4067,42.0794
10.4067,42.0794
10.6966,42.0794
10.6966,42.0794
10.9572,42.0659
10.9861,42.0644
10.9861,42.0644
11.1456,42.0396
11.3682,42.0049
11.7421,41.9065
11.9903,41.8129
12.1039,41.7701
12.1039,41.7701
12.1039,41.7701
12.4498,41.5972
12.7760,41.3897
13.0792,41.1497
13.3561,40.8799
13.6038,40.5830
13.8196,40.2622
14.0013,39.9209
14.1470,39.5627
14.2551,39.1915
14.3244,38.8111
14.3542,38.4256
14.3443,38.0390
14.2946,37.6556
14.2058,37.2793
14.0788,36.9141
13.9149,36.5639
13.7158,36.2324
13.4838,35.9231
13.2211,35.6394
12.9307,35.3841
12.6156,35.1601
12.2791,34.9696
12.2790,34.9696
12.2790,34.9696
12.1205,34.9004
11.9248,34.8148
11.9247,34.8148
11.9247,34.8148
11.5564,34.6972
11.1779,34.6181
10.7933,34.5784
10.7933,34.5784
10.5034,34.5784
10.4177,34.5828
10.2139,34.5933
10.2138,34.5933
9.8318,34.6528
9.4579,34.7513
9.4579,34.7513
9.0961,34.8877
9.0961,34.8877
8.7503,35.0605
8.7502,35.0605
8.4240,35.2680
8.4240,35.2680
8.1208,35.5080
7.8439,35.7779
7.5962,36.0748
7.3804,36.3956
7.3804,36.3956
7.1987,36.7369
7.1987,36.7369
7.0530,37.0950
7.0530,37.0950
6.9449,37.4663
6.9449,37.4663
6.8756,37.8467
6.8756,37.8467
6.8756,37.8467
6.8458,38.2322
0.5005,38.2322
0.5005,20.2322
6.8458,20.2322
6.8557,20.6187
6.8557,20.6187
6.9054,21.0022
6.9054,21.0022
6.9942,21.3785
6.9942,21.3785
7.1212,21.7437
7.2851,22.0939
7.4842,22.4253
7.7162,22.7346
7.9789,23.0184
8.2693,23.2736
8.5844,23.4977
8.9209,23.6881
9.2752,23.8429
9.6436,23.9605
10.0221,24.0396
10.2623,24.0644
10.4067,24.0794
10.4067,24.0794
10.6966,24.0794
10.6966,24.0794
10.9572,24.0659
10.9861,24.0644
10.9861,24.0644
11.1456,24.0396
11.3682,24.0049
11.7421,23.9065
11.9903,23.8129
12.1039,23.7701
12.1039,23.7701
12.1039,23.7701
12.4498,23.5972
12.7760,23.3897
13.0792,23.1497
13.3561,22.8799
13.6038,22.5830
13.8196,22.2622
14.0013,21.9209
14.1470,21.5627
14.2551,21.1915
14.3244,20.8111
14.3542,20.4256
14.3443,20.0390
14.2946,19.6556
14.2058,19.2793
14.0788,18.9141
13.9149,18.5639
13.7158,18.2324
13.4838,17.9231
13.2211,17.6394
12.9307,17.3841
12.6156,17.1601
12.2791,16.9696
12.2790,16.9696
12.2790,16.9696
12.1205,16.9004
11.9248,16.8148
11.9247,16.8148
11.9247,16.8148
11.5564,16.6972
11.1779,16.6181
10.7933,16.5784
10.7933,16.5784
10.5034,16.5784
10.4177,16.5828
10.2139,16.5933
10.2138,16.5933
9.8318,16.6528
9.4579,16.7513
9.4579,16.7513
9.0961,16.8877
9.0961,16.8877
8.7503,17.0605
8.7502,17.0605
8.4240,17.2680
8.4240,17.2680
8.1208,17.5080
7.8439,17.7779
7.5962,18.0748
7.3804,18.3956
7.3804,18.3956
7.1987,18.7369
7.1987,18.7369
7.0530,19.0950
7.0530,19.0950
6.9449,19.4663
6.9449,19.4663
6.8756,19.8467
6.8756,19.8467
6.8756,19.8467
6.8458,20.2322
0.5005,20.2322
0.5005,10.3289
2.1000,10.3289
2.1000,12.8289
4.9000,12.8289
4.9000,10.3289
6.8000,10.3289
6.8000,12.8289
9.6000,12.8289
9.6000,10.3289
11.5000,10.3289
11.5000,12.8289
14.3000,12.8289
14.3000,10.3289
16.2000,10.3289
16.2000,12.8289
19.0000,12.8289
19.0000,10.3289
16.2000,10.3289
14.3000,10.3289
11.5000,10.3289
9.6000,10.3289
6.8000,10.3289
4.9000,10.3289
2.1000,10.3289
0.5005,10.3289
0.5005,3.6966
10.5258,3.6966
10.5554,3.9659
10.6239,4.2280
10.7299,4.4773
10.7299,4.4773
10.8710,4.7085
11.0443,4.9167
11.2460,5.0975
11.4719,5.2469
11.7172,5.3619
11.9766,5.4399
11.9766,5.4399
11.9766,5.4399
12.2446,5.4794
12.2446,5.4794
14.2476,5.4794
14.2824,5.4768
14.4502,5.4645
14.4502,5.4645
14.4502,5.4645
14.5607,5.4399
14.7146,5.4056
14.9676,5.3089
15.2038,5.1763
15.4182,5.0108
15.6062,4.8157
15.7638,4.5954
15.8877,4.3545
15.9751,4.0982
16.0243,3.8318
16.0342,3.5611
16.0193,3.4259
16.0046,3.2919
15.9361,3.0298
15.8301,2.7805
15.8301,2.7805
15.6890,2.5493
15.5157,2.3410
15.5157,2.3410
15.5157,2.3410
15.3140,2.1603
15.3140,2.1603
15.0881,2.0108
14.8428,1.8958
14.6854,1.8485
14.5834,1.8178
14.3154,1.7784
14.3154,1.7784
12.3124,1.7784
12.3124,1.7784
12.1098,1.7932
12.1098,1.7932
11.8455,1.8521
11.8454,1.8521
11.5924,1.9489
11.3562,2.0814
11.3562,2.0814
11.1418,2.2470
10.9538,2.4420
10.9538,2.4420
10.7962,2.6623
10.7962,2.6623
10.6723,2.9032
10.6723,2.9032
10.5849,3.1596
10.5849,3.1596
10.5357,3.4259
10.5357,3.4259
10.5258,3.6966
0.5005,3.6966
0.5005,0.7554
0.5205,0.6872
0.5742,0.6408
0.6265,0.6294
20.6735,0.6294
Z" /> 
</g>
</g>
</g>
<g style="fill:#000000; fill-opacity:1.0000; 
stroke:#000000; stroke-width:0.0000; stroke-opacity:1; 
stroke-linecap:round; stroke-linejoin:round;">
</g>
<g style="fill:#000000; fill-opacity:1.0000; 
stroke:#000000; stroke-width:3.2000; stroke-opacity:1; 
stroke-linecap:round; stroke-linejoin:round;">
</g>
<g style="fill:#000000; fill-opacity:0.0; 
stroke:#000000; stroke-width:3.2000; stroke-opacity:1; 
stroke-linecap:round; stroke-linejoin:round;">
<path d="M12.3800 3.6289
L14.1800 3.6289
" />
<path d="M7.0800 126.1289
L8.8800 126.1289
" />
</g>
<g style="fill:#000000; fill-opacity:1.0000; 
stroke:#000000; stroke-width:0.0000; stroke-opacity:1; 
stroke-linecap:round; stroke-linejoin:round;">
<circle cx="10.6000" cy="76.3289" r="3.5000" /> 
</g>
<g style="fill:#000000; fill-opacity:1.0000; 
stroke:#000000; stroke-width:0.0212; stroke-opacity:1; 
stroke-linecap:round; stroke-linejoin:round;">
</g>
<g style="fill:#000000; fill-opacity:1.0000; 
stroke:#000000; stroke-width:0.0000; stroke-opacity:1; 
stroke-linecap:round; stroke-linejoin:round;">
<circle cx="10.6000" cy="57.3289" r="3.5000" /> 
</g>
<g style="fill:#000000; fill-opacity:1.0000; 
stroke:#000000; stroke-width:0.0212; stroke-opacity:1; 
stroke-linecap:round; stroke-linejoin:round;">
</g>
<g style="fill:#000000; fill-opacity:1.0000; 
stroke:#000000; stroke-width:0.0000; stroke-opacity:1; 
stroke-linecap:round; stroke-linejoin:round;">
<circle cx="10.6000" cy="20.3289" r="3.5000" /> 
</g>
<g style="fill:#000000; fill-opacity:1.0000; 
stroke:#000000; stroke-width:0.0212; stroke-opacity:1; 
stroke-linecap:round; stroke-linejoin:round;">
</g>
<g style="fill:#000000; fill-opacity:1.0000; 
stroke:#000000; stroke-width:0.0000; stroke-opacity:1; 
stroke-linecap:round; stroke-linejoin:round;">
<circle cx="10.6000" cy="38.3289" r="3.5000" /> 
</g>
<g style="fill:#000000; fill-opacity:1.0000; 
stroke:#000000; stroke-width:0.0212; stroke-opacity:1; 
stroke-linecap:round; stroke-linejoin:round;">
</g>
<g style="fill:#FFFFFF; fill-opacity:1.0000; 
stroke:#FFFFFF; stroke-width:0.0212; stroke-opacity:1; 
stroke-linecap:round; stroke-linejoin:round;">
<g >
</g>
<g >
</g>
<g >
</g>
<g >
</g>
<g >
</g>
<g >
</g>
<g >
</g>
<g >
</g>
<g >
</g>
<g >
</g>
<g >
</g>
<g >
</g>
<g >
</g>
<g >
</g>
<g >
</g>
<g >
</g>
<g >
</g>
<g >
</g>
<g style="fill:#37CBCB; fill-opacity:1.0000; 
stroke:#37CBCB; stroke-width:0.0212; stroke-opacity:1; 
stroke-linecap:round; stroke-linejoin:round;">
<g >
</g>
<g style="fill:#37CBCB; fill-opacity:1.0000; 
stroke:#37CBCB; stroke-width:0.0000; stroke-opacity:1; 
stroke-linecap:round; stroke-linejoin:round;">
<path style="fill:#37CBCB; fill-opacity:1.0000; 
stroke:#37CBCB; stroke-width:0.0000; stroke-opacity:1; 
stroke-linecap:round; stroke-linejoin:round;fill-rule:evenodd;"
d="M 20.7416,0.6494
20.7881,0.7030
20.7995,0.7554
20.7995,129.0024
20.7795,129.0705
20.7258,129.1170
20.6735,129.1284
0.6265,129.1284
0.5584,129.1084
0.5119,129.0547
0.5005,129.0024
0.5005,126.1966
5.2258,126.1966
5.2554,126.4659
5.3239,126.7280
5.4299,126.9773
5.4299,126.9773
5.5710,127.2085
5.7443,127.4167
5.9460,127.5975
6.1719,127.7469
6.4172,127.8619
6.6766,127.9399
6.6766,127.9399
6.6766,127.9399
6.9446,127.9794
6.9446,127.9794
8.9476,127.9794
8.9824,127.9768
9.1502,127.9645
9.1502,127.9645
9.1502,127.9645
9.2607,127.9399
9.4146,127.9056
9.6676,127.8089
9.9038,127.6763
10.1182,127.5108
10.3062,127.3157
10.4638,127.0954
10.5877,126.8545
10.6751,126.5982
10.7243,126.3318
10.7342,126.0611
10.7193,125.9259
10.7046,125.7919
10.6361,125.5298
10.5301,125.2805
10.5301,125.2805
10.3890,125.0493
10.2157,124.8410
10.2157,124.8410
10.2157,124.8410
10.0140,124.6603
10.0140,124.6603
9.7881,124.5108
9.5428,124.3958
9.3854,124.3485
9.2834,124.3178
9.0154,124.2784
9.0154,124.2784
7.0124,124.2784
7.0124,124.2784
6.8098,124.2932
6.8098,124.2932
6.5455,124.3521
6.5454,124.3521
6.2924,124.4489
6.0562,124.5814
6.0562,124.5814
5.8418,124.7470
5.6538,124.9420
5.6538,124.9420
5.4962,125.1623
5.4962,125.1623
5.3723,125.4032
5.3723,125.4032
5.2849,125.6596
5.2849,125.6596
5.2357,125.9259
5.2357,125.9259
5.2258,126.1966
0.5005,126.1966
0.5005,118.0094
2.5344,118.0094
2.5345,118.0339
2.5345,118.0339
2.5345,118.0339
2.5345,118.0340
2.5346,118.0343
2.5350,118.0344
2.5350,118.0344
2.5600,118.0344
2.5600,118.0344
2.5602,118.0344
18.6398,118.0344
18.6400,118.0344
18.6400,118.0344
18.6650,118.0344
18.6650,118.0344
18.6654,118.0343
18.6655,118.0340
18.6655,118.0339
18.6655,118.0339
18.6655,118.0339
18.6656,118.0094
18.6655,118.0089
18.6655,104.8490
18.6655,104.8489
18.6655,104.8489
18.6655,104.8239
18.6655,104.8239
18.6654,104.8235
18.6651,104.8234
18.6650,104.8233
18.6650,104.8233
18.6400,104.8233
18.6398,104.8234
2.5602,104.8234
2.5600,104.8233
2.5350,104.8233
2.5350,104.8233
2.5349,104.8234
2.5346,104.8235
2.5345,104.8239
2.5345,104.8489
2.5345,104.8489
2.5345,104.8490
2.5345,118.0089
2.5344,118.0094
0.5005,118.0094
0.5005,102.2094
2.5344,102.2094
2.5345,102.2339
2.5345,102.2339
2.5345,102.2339
2.5345,102.2340
2.5346,102.2343
2.5350,102.2344
2.5350,102.2344
2.5600,102.2344
2.5600,102.2344
2.5602,102.2344
18.6398,102.2344
18.6400,102.2344
18.6400,102.2344
18.6650,102.2344
18.6650,102.2344
18.6654,102.2343
18.6655,102.2340
18.6655,102.2339
18.6655,102.2339
18.6655,102.2339
18.6656,102.2094
18.6655,102.2089
18.6655,89.0490
18.6655,89.0489
18.6655,89.0489
18.6655,89.0239
18.6655,89.0239
18.6654,89.0235
18.6651,89.0234
18.6650,89.0233
18.6650,89.0233
18.6400,89.0233
18.6398,89.0234
2.5602,89.0234
2.5600,89.0233
2.5350,89.0233
2.5350,89.0233
2.5349,89.0234
2.5346,89.0235
2.5345,89.0239
2.5345,89.0489
2.5345,89.0489
2.5345,89.0490
2.5345,102.2089
2.5344,102.2094
0.5005,102.2094
0.5005,76.2322
6.8458,76.2322
6.8557,76.6187
6.8557,76.6187
6.9054,77.0022
6.9054,77.0022
6.9942,77.3785
6.9942,77.3785
7.1212,77.7437
7.2851,78.0939
7.4842,78.4253
7.7162,78.7346
7.9789,79.0184
8.2693,79.2736
8.5844,79.4976
8.9209,79.6881
9.2752,79.8429
9.6436,79.9605
10.0221,80.0396
10.2623,80.0644
10.4067,80.0794
10.4067,80.0794
10.6966,80.0794
10.6966,80.0794
10.9572,80.0659
10.9861,80.0644
10.9861,80.0644
11.1456,80.0396
11.3682,80.0049
11.7421,79.9065
11.9903,79.8129
12.1039,79.7701
12.1039,79.7701
12.1039,79.7701
12.4498,79.5972
12.7760,79.3897
13.0792,79.1497
13.3561,78.8799
13.6038,78.5830
13.8196,78.2622
14.0013,77.9209
14.1470,77.5627
14.2551,77.1915
14.3244,76.8111
14.3542,76.4256
14.3443,76.0390
14.2946,75.6556
14.2058,75.2793
14.0788,74.9141
13.9149,74.5639
13.7158,74.2324
13.4838,73.9231
13.2211,73.6394
12.9307,73.3841
12.6156,73.1601
12.2791,72.9696
12.2790,72.9696
12.2790,72.9696
12.1205,72.9004
11.9248,72.8148
11.9247,72.8148
11.9247,72.8148
11.5564,72.6972
11.1779,72.6181
10.7933,72.5784
10.7933,72.5784
10.5034,72.5784
10.4177,72.5828
10.2139,72.5933
10.2138,72.5933
9.8318,72.6528
9.4579,72.7513
9.4579,72.7513
9.0961,72.8877
9.0961,72.8877
8.7503,73.0605
8.7502,73.0605
8.4240,73.2680
8.4240,73.2681
8.1208,73.5080
7.8439,73.7779
7.5962,74.0748
7.3804,74.3956
7.3804,74.3956
7.1987,74.7369
7.1987,74.7369
7.0530,75.0950
7.0530,75.0950
6.9449,75.4663
6.9449,75.4663
6.8756,75.8467
6.8756,75.8467
6.8756,75.8467
6.8458,76.2322
0.5005,76.2322
0.5005,57.2322
6.8458,57.2322
6.8557,57.6187
6.8557,57.6187
6.9054,58.0022
6.9054,58.0022
6.9942,58.3785
6.9942,58.3785
7.1212,58.7437
7.2851,59.0939
7.4842,59.4253
7.7162,59.7346
7.9789,60.0184
8.2693,60.2736
8.5844,60.4977
8.9209,60.6881
9.2752,60.8429
9.6436,60.9605
10.0221,61.0396
10.2623,61.0644
10.4067,61.0794
10.4067,61.0794
10.6966,61.0794
10.6966,61.0794
10.9572,61.0659
10.9861,61.0644
10.9861,61.0644
11.1456,61.0396
11.3682,61.0049
11.7421,60.9065
11.9903,60.8129
12.1039,60.7701
12.1039,60.7701
12.1039,60.7701
12.4498,60.5972
12.7760,60.3897
13.0792,60.1497
13.3561,59.8799
13.6038,59.5830
13.8196,59.2622
14.0013,58.9209
14.1470,58.5627
14.2551,58.1915
14.3244,57.8111
14.3542,57.4256
14.3443,57.0390
14.2946,56.6556
14.2058,56.2793
14.0788,55.9141
13.9149,55.5639
13.7158,55.2324
13.4838,54.9231
13.2211,54.6394
12.9307,54.3841
12.6156,54.1601
12.2791,53.9696
12.2790,53.9696
12.2790,53.9696
12.1205,53.9004
11.9248,53.8148
11.9247,53.8148
11.9247,53.8148
11.5564,53.6972
11.1779,53.6181
10.7933,53.5784
10.7933,53.5784
10.5034,53.5784
10.4177,53.5828
10.2139,53.5933
10.2138,53.5933
9.8318,53.6528
9.4579,53.7513
9.4579,53.7513
9.0961,53.8877
9.0961,53.8877
8.7503,54.0605
8.7502,54.0605
8.4240,54.2680
8.4240,54.2680
8.1208,54.5080
7.8439,54.7779
7.5962,55.0748
7.3804,55.3956
7.3804,55.3956
7.1987,55.7369
7.1987,55.7369
7.0530,56.0950
7.0530,56.0950
6.9449,56.4663
6.9449,56.4663
6.8756,56.8467
6.8756,56.8467
6.8756,56.8467
6.8458,57.2322
0.5005,57.2322
0.5005,38.2322
6.8458,38.2322
6.8557,38.6187
6.8557,38.6187
6.9054,39.0022
6.9054,39.0022
6.9942,39.3785
6.9942,39.3785
7.1212,39.7437
7.2851,40.0939
7.4842,40.4253
7.7162,40.7346
7.9789,41.0184
8.2693,41.2736
8.5844,41.4977
8.9209,41.6881
9.2752,41.8429
9.6436,41.9605
10.0221,42.0396
10.2623,42.0644
10.4067,42.0794
10.4067,42.0794
10.6966,42.0794
10.6966,42.0794
10.9572,42.0659
10.9861,42.0644
10.9861,42.0644
11.1456,42.0396
11.3682,42.0049
11.7421,41.9065
11.9903,41.8129
12.1039,41.7701
12.1039,41.7701
12.1039,41.7701
12.4498,41.5972
12.7760,41.3897
13.0792,41.1497
13.3561,40.8799
13.6038,40.5830
13.8196,40.2622
14.0013,39.9209
14.1470,39.5627
14.2551,39.1915
14.3244,38.8111
14.3542,38.4256
14.3443,38.0390
14.2946,37.6556
14.2058,37.2793
14.0788,36.9141
13.9149,36.5639
13.7158,36.2324
13.4838,35.9231
13.2211,35.6394
12.9307,35.3841
12.6156,35.1601
12.2791,34.9696
12.2790,34.9696
12.2790,34.9696
12.1205,34.9004
11.9248,34.8148
11.9247,34.8148
11.9247,34.8148
11.5564,34.6972
11.1779,34.6181
10.7933,34.5784
10.7933,34.5784
10.5034,34.5784
10.4177,34.5828
10.2139,34.5933
10.2138,34.5933
9.8318,34.6528
9.4579,34.7513
9.4579,34.7513
9.0961,34.8877
9.0961,34.8877
8.7503,35.0605
8.7502,35.0605
8.4240,35.2680
8.4240,35.2680
8.1208,35.5080
7.8439,35.7779
7.5962,36.0748
7.3804,36.3956
7.3804,36.3956
7.1987,36.7369
7.1987,36.7369
7.0530,37.0950
7.0530,37.0950
6.9449,37.4663
6.9449,37.4663
6.8756,37.8467
6.8756,37.8467
6.8756,37.8467
6.8458,38.2322
0.5005,38.2322
0.5005,20.2322
6.8458,20.2322
6.8557,20.6187
6.8557,20.6187
6.9054,21.0022
6.9054,21.0022
6.9942,21.3785
6.9942,21.3785
7.1212,21.7437
7.2851,22.0939
7.4842,22.4253
7.7162,22.7346
7.9789,23.0184
8.2693,23.2736
8.5844,23.4977
8.9209,23.6881
9.2752,23.8429
9.6436,23.9605
10.0221,24.0396
10.2623,24.0644
10.4067,24.0794
10.4067,24.0794
10.6966,24.0794
10.6966,24.0794
10.9572,24.0659
10.9861,24.0644
10.9861,24.0644
11.1456,24.0396
11.3682,24.0049
11.7421,23.9065
11.9903,23.8129
12.1039,23.7701
12.1039,23.7701
12.1039,23.7701
12.4498,23.5972
12.7760,23.3897
13.0792,23.1497
13.3561,22.8799
13.6038,22.5830
13.8196,22.2622
14.0013,21.9209
14.1470,21.5627
14.2551,21.1915
14.3244,20.8111
14.3542,20.4256
14.3443,20.0390
14.2946,19.6556
14.2058,19.2793
14.0788,18.9141
13.9149,18.5639
13.7158,18.2324
13.4838,17.9231
13.2211,17.6394
12.9307,17.3841
12.6156,17.1601
12.2791,16.9696
12.2790,16.9696
12.2790,16.9696
12.1205,16.9004
11.9248,16.8148
11.9247,16.8148
11.9247,16.8148
11.5564,16.6972
11.1779,16.6181
10.7933,16.5784
10.7933,16.5784
10.5034,16.5784
10.4177,16.5828
10.2139,16.5933
10.2138,16.5933
9.8318,16.6528
9.4579,16.7513
9.4579,16.7513
9.0961,16.8877
9.0961,16.8877
8.7503,17.0605
8.7502,17.0605
8.4240,17.2680
8.4240,17.2680
8.1208,17.5080
7.8439,17.7779
7.5962,18.0748
7.3804,18.3956
7.3804,18.3956
7.1987,18.7369
7.1987,18.7369
7.0530,19.0950
7.0530,19.0950
6.9449,19.4663
6.9449,19.4663
6.8756,19.8467
6.8756,19.8467
6.8756,19.8467
6.8458,20.2322
0.5005,20.2322
0.5005,10.3289
2.1000,10.3289
2.1000,12.8289
4.9000,12.8289
4.9000,10.3289
6.8000,10.3289
6.8000,12.8289
9.6000,12.8289
9.6000,10.3289
11.5000,10.3289
11.5000,12.8289
14.3000,12.8289
14.3000,10.3289
16.2000,10.3289
16.2000,12.8289
19.0000,12.8289
19.0000,10.3289
16.2000,10.3289
14.3000,10.3289
11.5000,10.3289
9.6000,10.3289
6.8000,10.3289
4.9000,10.3289
2.1000,10.3289
0.5005,10.3289
0.5005,3.6966
10.5258,3.6966
10.5554,3.9659
10.6239,4.2280
10.7299,4.4773
10.7299,4.4773
10.8710,4.7085
11.0443,4.9167
11.2460,5.0975
11.4719,5.2469
11.7172,5.3619
11.9766,5.4399
11.9766,5.4399
11.9766,5.4399
12.2446,5.4794
12.2446,5.4794
14.2476,5.4794
14.2824,5.4768
14.4502,5.4645
14.4502,5.4645
14.4502,5.4645
14.5607,5.4399
14.7146,5.4056
14.9676,5.3089
15.2038,5.1763
15.4182,5.0108
15.6062,4.8157
15.7638,4.5954
15.8877,4.3545
15.9751,4.0982
16.0243,3.8318
16.0342,3.5611
16.0193,3.4259
16.0046,3.2919
15.9361,3.0298
15.8301,2.7805
15.8301,2.7805
15.6890,2.5493
15.5157,2.3410
15.5157,2.3410
15.5157,2.3410
15.3140,2.1603
15.3140,2.1603
15.0881,2.0108
14.8428,1.8958
14.6854,1.8485
14.5834,1.8178
14.3154,1.7784
14.3154,1.7784
12.3124,1.7784
12.3124,1.7784
12.1098,1.7932
12.1098,1.7932
11.8455,1.8521
11.8454,1.8521
11.5924,1.9489
11.3562,2.0814
11.3562,2.0814
11.1418,2.2470
10.9538,2.4420
10.9538,2.4420
10.7962,2.6623
10.7962,2.6623
10.6723,2.9032
10.6723,2.9032
10.5849,3.1596
10.5849,3.1596
10.5357,3.4259
10.5357,3.4259
10.5258,3.6966
0.5005,3.6966
0.5005,0.7554
0.5205,0.6872
0.5742,0.6408
0.6265,0.6294
20.6735,0.6294
Z" /> 
</g>
</g>
</g>
<g style="fill:#000000; fill-opacity:1.0000; 
stroke:#000000; stroke-width:0.0000; stroke-opacity:1; 
stroke-linecap:round; stroke-linejoin:round;">
</g>
<g style="fill:#000000; fill-opacity:1.0000; 
stroke:#000000; stroke-width:3.2000; stroke-opacity:1; 
stroke-linecap:round; stroke-linejoin:round;">
</g>
<g style="fill:#000000; fill-opacity:0.0; 
stroke:#000000; stroke-width:3.2000; stroke-opacity:1; 
stroke-linecap:round; stroke-linejoin:round;">
<path d="M12.3800 3.6289
L14.1800 3.6289
" />
<path d="M7.0800 126.1289
L8.8800 126.1289
" />
</g>
<g style="fill:#000000; fill-opacity:1.0000; 
stroke:#000000; stroke-width:0.0000; stroke-opacity:1; 
stroke-linecap:round; stroke-linejoin:round;">
<circle cx="10.6000" cy="76.3289" r="3.5000" /> 
</g>
<g style="fill:#000000; fill-opacity:1.0000; 
stroke:#000000; stroke-width:0.0212; stroke-opacity:1; 
stroke-linecap:round; stroke-linejoin:round;">
</g>
<g style="fill:#000000; fill-opacity:1.0000; 
stroke:#000000; stroke-width:0.0000; stroke-opacity:1; 
stroke-linecap:round; stroke-linejoin:round;">
<circle cx="10.6000" cy="57.3289" r="3.5000" /> 
</g>
<g style="fill:#000000; fill-opacity:1.0000; 
stroke:#000000; stroke-width:0.0212; stroke-opacity:1; 
stroke-linecap:round; stroke-linejoin:round;">
</g>
<g style="fill:#000000; fill-opacity:1.0000; 
stroke:#000000; stroke-width:0.0000; stroke-opacity:1; 
stroke-linecap:round; stroke-linejoin:round;">
<circle cx="10.6000" cy="20.3289" r="3.5000" /> 
</g>
<g style="fill:#000000; fill-opacity:1.0000; 
stroke:#000000; stroke-width:0.0212; stroke-opacity:1; 
stroke-linecap:round; stroke-linejoin:round;">
</g>
<g style="fill:#000000; fill-opacity:1.0000; 
stroke:#000000; stroke-width:0.0000; stroke-opacity:1; 
stroke-linecap:round; stroke-linejoin:round;">
<circle cx="10.6000" cy="38.3289" r="3.5000" /> 
</g>
<g style="fill:#000000; fill-opacity:1.0000; 
stroke:#000000; stroke-width:0.0212; stroke-opacity:1; 
stroke-linecap:round; stroke-linejoin:round;">
</g>
<g style="fill:#FFFFFF; fill-opacity:1.0000; 
stroke:#FFFFFF; stroke-width:0.0212; stroke-opacity:1; 
stroke-linecap:round; stroke-linejoin:round;">
</g>
<g style="fill:#2F2D31; fill-opacity:1.0000; 
stroke:#2F2D31; stroke-width:0.0212; stroke-opacity:1; 
stroke-linecap:round; stroke-linejoin:round;">
</g>
<g style="fill:#2F2D31; fill-opacity:0.0; 
stroke:#2F2D31; stroke-width:0.1000; stroke-opacity:1; 
stroke-linecap:round; stroke-linejoin:round;">
<path style="fill:#2F2D31; fill-opacity:0.0; 
stroke:#2F2D31; stroke-width:0.1000; stroke-opacity:1; 
stroke-linecap:round; stroke-linejoin:round;fill:none"
d="M 0.5000,0.6289
20.8000,0.6289
20.8000,129.1289
0.5000,129.1289
Z" /> 
</g>
<g style="fill:#2F2D31; fill-opacity:0.0; 
stroke:#2F2D31; stroke-width:0.1200; stroke-opacity:1; 
stroke-linecap:round; stroke-linejoin:round;">
<path d="M2.5350 118.0339
L18.6650 118.0339
" />
<path d="M18.6650 118.0339
L18.6650 104.8239
" />
<path d="M18.6650 104.8239
L2.5350 104.8239
" />
<path d="M2.5350 104.8239
L2.5350 118.0339
" />
<path d="M18.6650 89.0239
L2.5350 89.0239
" />
<path d="M2.5350 89.0239
L2.5350 102.2339
" />
<path d="M2.5350 102.2339
L18.6650 102.2339
" />
<path d="M18.6650 102.2339
L18.6650 89.0239
" />
<g >
</g>
<g >
</g>
<g >
</g>
<g >
</g>
<g >
</g>
<g >
</g>
<g >
</g>
<g >
</g>
<g >
</g>
<g >
</g>
<g >
</g>
<g >
</g>
<g >
</g>
<g >
</g>
<g >
</g>
<g >
</g>
<g >
</g>
<g >
</g>
</g> 
</svg>
