<?xml version="1.0" standalone="no"?>
 <!DOCTYPE svg PUBLIC "-//W3C//DTD SVG 1.1//EN" 
 "http://www.w3.org/Graphics/SVG/1.1/DTD/svg11.dtd"> 
<svg
  xmlns:svg="http://www.w3.org/2000/svg"
  xmlns="http://www.w3.org/2000/svg"
  xmlns:xlink="http://www.w3.org/1999/xlink"
  version="1.1"
  width="33.1978mm" height="20.8280mm" viewBox="0.0000 0.0000 33.1978 20.8280">
<title>SVG Image created as working-brd.svg date 2023/09/28 22:38:45 </title>
  <desc>Image generated by PCBNEW </desc>
<g style="fill:#000000; fill-opacity:1.0000;stroke:#000000; stroke-opacity:1.0000;
stroke-linecap:round; stroke-linejoin:round;"
 transform="translate(0 0) scale(1 1)">
</g>
<g style="fill:#000000; fill-opacity:0.0; 
stroke:#000000; stroke-width:0.0000; stroke-opacity:1; 
stroke-linecap:round; stroke-linejoin:round;">
</g>
<g style="fill:#000000; fill-opacity:1.0000; 
stroke:#000000; stroke-width:0.0212; stroke-opacity:1; 
stroke-linecap:round; stroke-linejoin:round;">
<rect x="-5.000000" y="-5.000000" width="43.200000" height="30.851368" rx="0.000000" />
</g>
<g style="fill:#FFFFFF; fill-opacity:1.0000; 
stroke:#FFFFFF; stroke-width:0.0212; stroke-opacity:1; 
stroke-linecap:round; stroke-linejoin:round;">
<g >
</g>
<g style="fill:#B2803A; fill-opacity:1.0000; 
stroke:#B2803A; stroke-width:0.0212; stroke-opacity:1; 
stroke-linecap:round; stroke-linejoin:round;">
</g>
<g style="fill:#B2803A; fill-opacity:1.0000; 
stroke:#B2803A; stroke-width:0.0000; stroke-opacity:1; 
stroke-linecap:round; stroke-linejoin:round;">
<path style="fill:#B2803A; fill-opacity:1.0000; 
stroke:#B2803A; stroke-width:0.0000; stroke-opacity:1; 
stroke-linecap:round; stroke-linejoin:round;fill-rule:evenodd;"
d="M 2.1000,6.3342
2.1000,4.1342
4.3000,4.1342
4.3000,6.3342
Z" /> 
<path style="fill:#B2803A; fill-opacity:1.0000; 
stroke:#B2803A; stroke-width:0.0000; stroke-opacity:1; 
stroke-linecap:round; stroke-linejoin:round;fill-rule:evenodd;"
d="M 4.6000,6.3342
4.6000,4.1342
6.8000,4.1342
6.8000,6.3342
Z" /> 
</g>
<g >
</g>
<g >
</g>
<g >
</g>
<g style="fill:#B2803A; fill-opacity:1.0000; 
stroke:#B2803A; stroke-width:0.0000; stroke-opacity:1; 
stroke-linecap:round; stroke-linejoin:round;">
<path style="fill:#B2803A; fill-opacity:1.0000; 
stroke:#B2803A; stroke-width:0.0000; stroke-opacity:1; 
stroke-linecap:round; stroke-linejoin:round;fill-rule:evenodd;"
d="M 2.1000,15.8342
2.1000,13.6342
4.3000,13.6342
4.3000,15.8342
Z" /> 
<path style="fill:#B2803A; fill-opacity:1.0000; 
stroke:#B2803A; stroke-width:0.0000; stroke-opacity:1; 
stroke-linecap:round; stroke-linejoin:round;fill-rule:evenodd;"
d="M 4.6000,15.8342
4.6000,13.6342
6.8000,13.6342
6.8000,15.8342
Z" /> 
<path style="fill:#B2803A; fill-opacity:1.0000; 
stroke:#B2803A; stroke-width:0.0000; stroke-opacity:1; 
stroke-linecap:round; stroke-linejoin:round;fill-rule:evenodd;"
d="M 7.1000,15.8342
7.1000,13.6342
9.3000,13.6342
9.3000,15.8342
Z" /> 
<path style="fill:#B2803A; fill-opacity:1.0000; 
stroke:#B2803A; stroke-width:0.0000; stroke-opacity:1; 
stroke-linecap:round; stroke-linejoin:round;fill-rule:evenodd;"
d="M 9.6000,15.8342
9.6000,13.6342
11.8000,13.6342
11.8000,15.8342
Z" /> 
</g>
<g >
</g>
<g >
</g>
<g >
</g>
</g>
<g style="fill:#000000; fill-opacity:1.0000; 
stroke:#000000; stroke-width:0.0000; stroke-opacity:1; 
stroke-linecap:round; stroke-linejoin:round;">
<circle cx="3.2000" cy="5.2342" r="0.5000" /> 
</g>
<g style="fill:#000000; fill-opacity:1.0000; 
stroke:#000000; stroke-width:0.0212; stroke-opacity:1; 
stroke-linecap:round; stroke-linejoin:round;">
</g>
<g style="fill:#000000; fill-opacity:1.0000; 
stroke:#000000; stroke-width:0.0000; stroke-opacity:1; 
stroke-linecap:round; stroke-linejoin:round;">
<circle cx="5.7000" cy="5.2342" r="0.5000" /> 
</g>
<g style="fill:#000000; fill-opacity:1.0000; 
stroke:#000000; stroke-width:0.0212; stroke-opacity:1; 
stroke-linecap:round; stroke-linejoin:round;">
</g>
<g style="fill:#000000; fill-opacity:1.0000; 
stroke:#000000; stroke-width:0.0000; stroke-opacity:1; 
stroke-linecap:round; stroke-linejoin:round;">
<circle cx="3.2000" cy="14.7342" r="0.4500" /> 
</g>
<g style="fill:#000000; fill-opacity:1.0000; 
stroke:#000000; stroke-width:0.0212; stroke-opacity:1; 
stroke-linecap:round; stroke-linejoin:round;">
</g>
<g style="fill:#000000; fill-opacity:1.0000; 
stroke:#000000; stroke-width:0.0000; stroke-opacity:1; 
stroke-linecap:round; stroke-linejoin:round;">
<circle cx="5.7000" cy="14.7342" r="0.4500" /> 
</g>
<g style="fill:#000000; fill-opacity:1.0000; 
stroke:#000000; stroke-width:0.0212; stroke-opacity:1; 
stroke-linecap:round; stroke-linejoin:round;">
</g>
<g style="fill:#000000; fill-opacity:1.0000; 
stroke:#000000; stroke-width:0.0000; stroke-opacity:1; 
stroke-linecap:round; stroke-linejoin:round;">
<circle cx="8.2000" cy="14.7342" r="0.4500" /> 
</g>
<g style="fill:#000000; fill-opacity:1.0000; 
stroke:#000000; stroke-width:0.0212; stroke-opacity:1; 
stroke-linecap:round; stroke-linejoin:round;">
</g>
<g style="fill:#000000; fill-opacity:1.0000; 
stroke:#000000; stroke-width:0.0000; stroke-opacity:1; 
stroke-linecap:round; stroke-linejoin:round;">
<circle cx="10.7000" cy="14.7342" r="0.4500" /> 
</g>
<g style="fill:#000000; fill-opacity:1.0000; 
stroke:#000000; stroke-width:0.0212; stroke-opacity:1; 
stroke-linecap:round; stroke-linejoin:round;">
</g>
<g style="fill:#FFFFFF; fill-opacity:1.0000; 
stroke:#FFFFFF; stroke-width:0.0212; stroke-opacity:1; 
stroke-linecap:round; stroke-linejoin:round;">
<g >
</g>
<g style="fill:#37CBCB; fill-opacity:1.0000; 
stroke:#37CBCB; stroke-width:0.0212; stroke-opacity:1; 
stroke-linecap:round; stroke-linejoin:round;">
</g>
<g style="fill:#37CBCB; fill-opacity:1.0000; 
stroke:#37CBCB; stroke-width:0.0000; stroke-opacity:1; 
stroke-linecap:round; stroke-linejoin:round;">
<path style="fill:#37CBCB; fill-opacity:1.0000; 
stroke:#37CBCB; stroke-width:0.0000; stroke-opacity:1; 
stroke-linecap:round; stroke-linejoin:round;fill-rule:evenodd;"
d="M 2.1000,6.3342
2.1000,4.1342
4.3000,4.1342
4.3000,6.3342
Z" /> 
<path style="fill:#37CBCB; fill-opacity:1.0000; 
stroke:#37CBCB; stroke-width:0.0000; stroke-opacity:1; 
stroke-linecap:round; stroke-linejoin:round;fill-rule:evenodd;"
d="M 4.6000,6.3342
4.6000,4.1342
6.8000,4.1342
6.8000,6.3342
Z" /> 
</g>
<g >
</g>
<g style="fill:#37CBCB; fill-opacity:1.0000; 
stroke:#37CBCB; stroke-width:0.0000; stroke-opacity:1; 
stroke-linecap:round; stroke-linejoin:round;">
<path style="fill:#37CBCB; fill-opacity:1.0000; 
stroke:#37CBCB; stroke-width:0.0000; stroke-opacity:1; 
stroke-linecap:round; stroke-linejoin:round;fill-rule:evenodd;"
d="M 14.3000,4.1773
14.3000,3.1765
16.2990,3.1765
16.2990,4.1773
Z" /> 
<path style="fill:#37CBCB; fill-opacity:1.0000; 
stroke:#37CBCB; stroke-width:0.0000; stroke-opacity:1; 
stroke-linecap:round; stroke-linejoin:round;fill-rule:evenodd;"
d="M 14.3000,5.6759
14.3000,4.6751
16.2990,4.6751
16.2990,5.6759
Z" /> 
<path style="fill:#37CBCB; fill-opacity:1.0000; 
stroke:#37CBCB; stroke-width:0.0000; stroke-opacity:1; 
stroke-linecap:round; stroke-linejoin:round;fill-rule:evenodd;"
d="M 14.3000,7.1770
14.3000,6.1763
16.2990,6.1763
16.2990,7.1770
Z" /> 
<path style="fill:#37CBCB; fill-opacity:1.0000; 
stroke:#37CBCB; stroke-width:0.0000; stroke-opacity:1; 
stroke-linecap:round; stroke-linejoin:round;fill-rule:evenodd;"
d="M 14.3000,8.6756
14.3000,7.6749
16.2990,7.6749
16.2990,8.6756
Z" /> 
<path style="fill:#37CBCB; fill-opacity:1.0000; 
stroke:#37CBCB; stroke-width:0.0000; stroke-opacity:1; 
stroke-linecap:round; stroke-linejoin:round;fill-rule:evenodd;"
d="M 14.3000,10.1768
14.3000,9.1760
16.2990,9.1760
16.2990,10.1768
Z" /> 
<path style="fill:#37CBCB; fill-opacity:1.0000; 
stroke:#37CBCB; stroke-width:0.0000; stroke-opacity:1; 
stroke-linecap:round; stroke-linejoin:round;fill-rule:evenodd;"
d="M 14.3000,11.6754
14.3000,10.6746
16.2990,10.6746
16.2990,11.6754
Z" /> 
<path style="fill:#37CBCB; fill-opacity:1.0000; 
stroke:#37CBCB; stroke-width:0.0000; stroke-opacity:1; 
stroke-linecap:round; stroke-linejoin:round;fill-rule:evenodd;"
d="M 14.3000,13.1765
14.3000,12.1757
16.2990,12.1757
16.2990,13.1765
Z" /> 
<path style="fill:#37CBCB; fill-opacity:1.0000; 
stroke:#37CBCB; stroke-width:0.0000; stroke-opacity:1; 
stroke-linecap:round; stroke-linejoin:round;fill-rule:evenodd;"
d="M 14.3000,14.6751
14.3000,13.6743
16.2990,13.6743
16.2990,14.6751
Z" /> 
<path style="fill:#37CBCB; fill-opacity:1.0000; 
stroke:#37CBCB; stroke-width:0.0000; stroke-opacity:1; 
stroke-linecap:round; stroke-linejoin:round;fill-rule:evenodd;"
d="M 14.3000,16.1762
14.3000,15.1755
16.2990,15.1755
16.2990,16.1762
Z" /> 
<path style="fill:#37CBCB; fill-opacity:1.0000; 
stroke:#37CBCB; stroke-width:0.0000; stroke-opacity:1; 
stroke-linecap:round; stroke-linejoin:round;fill-rule:evenodd;"
d="M 14.3000,17.6748
14.3000,16.6741
16.2990,16.6741
16.2990,17.6748
Z" /> 
<path style="fill:#37CBCB; fill-opacity:1.0000; 
stroke:#37CBCB; stroke-width:0.0000; stroke-opacity:1; 
stroke-linecap:round; stroke-linejoin:round;fill-rule:evenodd;"
d="M 30.3020,17.6748
30.3020,16.6741
32.3010,16.6741
32.3010,17.6748
Z" /> 
<path style="fill:#37CBCB; fill-opacity:1.0000; 
stroke:#37CBCB; stroke-width:0.0000; stroke-opacity:1; 
stroke-linecap:round; stroke-linejoin:round;fill-rule:evenodd;"
d="M 30.3020,10.1768
30.3020,9.1760
32.3010,9.1760
32.3010,10.1768
Z" /> 
<path style="fill:#37CBCB; fill-opacity:1.0000; 
stroke:#37CBCB; stroke-width:0.0000; stroke-opacity:1; 
stroke-linecap:round; stroke-linejoin:round;fill-rule:evenodd;"
d="M 30.3020,4.1773
30.3020,3.1765
32.3010,3.1765
32.3010,4.1773
Z" /> 
</g>
<g >
</g>
<g style="fill:#37CBCB; fill-opacity:1.0000; 
stroke:#37CBCB; stroke-width:0.0000; stroke-opacity:1; 
stroke-linecap:round; stroke-linejoin:round;">
<path style="fill:#37CBCB; fill-opacity:1.0000; 
stroke:#37CBCB; stroke-width:0.0000; stroke-opacity:1; 
stroke-linecap:round; stroke-linejoin:round;fill-rule:evenodd;"
d="M 12.2500,3.2392
13.5500,3.2392
13.5500,5.0292
12.2500,5.0292
Z" /> 
<path style="fill:#37CBCB; fill-opacity:1.0000; 
stroke:#37CBCB; stroke-width:0.0000; stroke-opacity:1; 
stroke-linecap:round; stroke-linejoin:round;fill-rule:evenodd;"
d="M 12.2500,5.2392
13.5500,5.2392
13.5500,7.0292
12.2500,7.0292
Z" /> 
</g>
<g >
</g>
<g style="fill:#37CBCB; fill-opacity:1.0000; 
stroke:#37CBCB; stroke-width:0.0000; stroke-opacity:1; 
stroke-linecap:round; stroke-linejoin:round;">
<path style="fill:#37CBCB; fill-opacity:1.0000; 
stroke:#37CBCB; stroke-width:0.0000; stroke-opacity:1; 
stroke-linecap:round; stroke-linejoin:round;fill-rule:evenodd;"
d="M 2.1000,15.8342
2.1000,13.6342
4.3000,13.6342
4.3000,15.8342
Z" /> 
<path style="fill:#37CBCB; fill-opacity:1.0000; 
stroke:#37CBCB; stroke-width:0.0000; stroke-opacity:1; 
stroke-linecap:round; stroke-linejoin:round;fill-rule:evenodd;"
d="M 4.6000,15.8342
4.6000,13.6342
6.8000,13.6342
6.8000,15.8342
Z" /> 
<path style="fill:#37CBCB; fill-opacity:1.0000; 
stroke:#37CBCB; stroke-width:0.0000; stroke-opacity:1; 
stroke-linecap:round; stroke-linejoin:round;fill-rule:evenodd;"
d="M 7.1000,15.8342
7.1000,13.6342
9.3000,13.6342
9.3000,15.8342
Z" /> 
<path style="fill:#37CBCB; fill-opacity:1.0000; 
stroke:#37CBCB; stroke-width:0.0000; stroke-opacity:1; 
stroke-linecap:round; stroke-linejoin:round;fill-rule:evenodd;"
d="M 9.6000,15.8342
9.6000,13.6342
11.8000,13.6342
11.8000,15.8342
Z" /> 
</g>
<g >
</g>
<g >
</g>
<g style="fill:#37CBCB; fill-opacity:1.0000; 
stroke:#37CBCB; stroke-width:0.0000; stroke-opacity:1; 
stroke-linecap:round; stroke-linejoin:round;">
</g>
<g style="fill:#37CBCB; fill-opacity:1.0000; 
stroke:#37CBCB; stroke-width:0.5000; stroke-opacity:1; 
stroke-linecap:round; stroke-linejoin:round;">
</g>
<g style="fill:#37CBCB; fill-opacity:0.0; 
stroke:#37CBCB; stroke-width:0.5000; stroke-opacity:1; 
stroke-linecap:round; stroke-linejoin:round;">
<path d="M5.0000 18.1342
L17.2000 18.1342
" />
<path d="M14.7570 6.1342
L15.2995 6.6766
" />
<path d="M15.2995 14.1747
L14.4882 14.1747
" />
<path d="M23.8447 9.6342
L18.1447 15.3342
" />
<path d="M14.4882 14.1747
L12.9000 12.5865
" />
<path d="M29.6423 17.3342
L18.0000 17.3342
" />
<path d="M18.0000 15.3342
L16.8405 14.1747
" />
<path d="M3.2000 14.7342
L3.2000 16.3342
" />
<path d="M31.3015 9.6764
L23.8869 9.6764
" />
<path d="M18.0000 17.3342
L18.0000 15.3342
" />
<path d="M31.3015 17.1745
L29.8020 17.1745
" />
<path d="M3.2000 16.3342
L5.0000 18.1342
" />
<path d="M16.8405 14.1747
L15.2995 14.1747
" />
<path d="M29.8020 17.1745
L29.6423 17.3342
" />
<path d="M31.3015 3.6769
L29.8020 3.6769
" />
<path d="M12.9000 6.1342
L14.7570 6.1342
" />
<path d="M18.1447 15.3342
L18.0000 15.3342
" />
<path d="M12.9000 12.5865
L12.9000 7.5292
" />
<path d="M23.8869 9.6764
L23.8447 9.6342
" />
<path d="M29.8020 3.6769
L23.8447 9.6342
" />
<path d="M12.9000 7.5292
L12.9000 6.1342
" />
<path d="M17.2000 18.1342
L18.0000 17.3342
" />
<path d="M3.2000 14.7342
L3.2000 5.2342
" />
<path d="M11.7500 4.1342
L5.7000 10.1842
" />
<path d="M15.2995 3.6769
L13.3573 3.6769
" />
<path d="M5.7000 13.1342
L5.7000 14.7342
" />
<path d="M5.7000 10.1842
L5.7000 13.1342
" />
<path d="M12.9000 4.1342
L11.7500 4.1342
" />
<path d="M13.3573 3.6769
L12.9000 4.1342
" />
<path d="M9.0000 12.3342
L8.2000 13.1342
" />
<path d="M15.2995 15.6759
L14.4908 15.6759
" />
<path d="M8.2000 13.1342
L8.2000 14.7342
" />
<path d="M14.4908 15.6759
L11.1491 12.3342
" />
<path d="M11.1491 12.3342
L9.0000 12.3342
" />
<path d="M10.7000 16.3342
L11.5403 17.1745
" />
<path d="M10.7000 14.7342
L10.7000 16.3342
" />
<path d="M11.5403 17.1745
L13.8000 17.1745
" />
<path d="M13.8000 17.1745
L15.2995 17.1745
" />
<path d="M18.0000 3.7342
L18.0000 7.3342
" />
<path d="M9.8077 2.7265
L16.9923 2.7265
" />
<path d="M18.0000 7.3342
L17.1589 8.1752
" />
<path d="M7.3000 5.2342
L9.8077 2.7265
" />
<path d="M17.1589 8.1752
L15.2995 8.1752
" />
<path d="M5.7000 5.2342
L7.3000 5.2342
" />
<path d="M16.9923 2.7265
L18.0000 3.7342
" />
</g>
<g >
</g>
</g>
<g style="fill:#000000; fill-opacity:0.0; 
stroke:#000000; stroke-width:0.5000; stroke-opacity:1; 
stroke-linecap:round; stroke-linejoin:round;">
</g>
<g style="fill:#000000; fill-opacity:1.0000; 
stroke:#000000; stroke-width:0.0000; stroke-opacity:1; 
stroke-linecap:round; stroke-linejoin:round;">
<circle cx="3.2000" cy="5.2342" r="0.5000" /> 
</g>
<g style="fill:#000000; fill-opacity:1.0000; 
stroke:#000000; stroke-width:0.0212; stroke-opacity:1; 
stroke-linecap:round; stroke-linejoin:round;">
</g>
<g style="fill:#000000; fill-opacity:1.0000; 
stroke:#000000; stroke-width:0.0000; stroke-opacity:1; 
stroke-linecap:round; stroke-linejoin:round;">
<circle cx="5.7000" cy="5.2342" r="0.5000" /> 
</g>
<g style="fill:#000000; fill-opacity:1.0000; 
stroke:#000000; stroke-width:0.0212; stroke-opacity:1; 
stroke-linecap:round; stroke-linejoin:round;">
</g>
<g style="fill:#000000; fill-opacity:1.0000; 
stroke:#000000; stroke-width:0.0000; stroke-opacity:1; 
stroke-linecap:round; stroke-linejoin:round;">
<circle cx="3.2000" cy="14.7342" r="0.4500" /> 
</g>
<g style="fill:#000000; fill-opacity:1.0000; 
stroke:#000000; stroke-width:0.0212; stroke-opacity:1; 
stroke-linecap:round; stroke-linejoin:round;">
</g>
<g style="fill:#000000; fill-opacity:1.0000; 
stroke:#000000; stroke-width:0.0000; stroke-opacity:1; 
stroke-linecap:round; stroke-linejoin:round;">
<circle cx="5.7000" cy="14.7342" r="0.4500" /> 
</g>
<g style="fill:#000000; fill-opacity:1.0000; 
stroke:#000000; stroke-width:0.0212; stroke-opacity:1; 
stroke-linecap:round; stroke-linejoin:round;">
</g>
<g style="fill:#000000; fill-opacity:1.0000; 
stroke:#000000; stroke-width:0.0000; stroke-opacity:1; 
stroke-linecap:round; stroke-linejoin:round;">
<circle cx="8.2000" cy="14.7342" r="0.4500" /> 
</g>
<g style="fill:#000000; fill-opacity:1.0000; 
stroke:#000000; stroke-width:0.0212; stroke-opacity:1; 
stroke-linecap:round; stroke-linejoin:round;">
</g>
<g style="fill:#000000; fill-opacity:1.0000; 
stroke:#000000; stroke-width:0.0000; stroke-opacity:1; 
stroke-linecap:round; stroke-linejoin:round;">
<circle cx="10.7000" cy="14.7342" r="0.4500" /> 
</g>
<g style="fill:#000000; fill-opacity:1.0000; 
stroke:#000000; stroke-width:0.0212; stroke-opacity:1; 
stroke-linecap:round; stroke-linejoin:round;">
</g>
<g style="fill:#FFFFFF; fill-opacity:1.0000; 
stroke:#FFFFFF; stroke-width:0.0212; stroke-opacity:1; 
stroke-linecap:round; stroke-linejoin:round;">
</g>
<g style="fill:#2F2D31; fill-opacity:1.0000; 
stroke:#2F2D31; stroke-width:0.0212; stroke-opacity:1; 
stroke-linecap:round; stroke-linejoin:round;">
</g>
<g style="fill:#2F2D31; fill-opacity:1.0000; 
stroke:#2F2D31; stroke-width:0.2000; stroke-opacity:1; 
stroke-linecap:round; stroke-linejoin:round;">
</g>
<g style="fill:#2F2D31; fill-opacity:0.0; 
stroke:#2F2D31; stroke-width:0.2000; stroke-opacity:1; 
stroke-linecap:round; stroke-linejoin:round;">
<path d="M0.1000 18.8342
L0.1000 1.8342
" />
<path d="M0.1000 1.8342
L33.1000 1.8342
" />
<path d="M33.1000 18.8342
L0.1000 18.8342
" />
<path d="M33.1000 1.8342
L33.1000 18.8342
" />
<g >
</g>
<g >
</g>
<g >
</g>
<g >
</g>
<g >
</g>
<g >
</g>
<g >
</g>
</g> 
</svg>
