<?xml version="1.0" standalone="no"?>
 <!DOCTYPE svg PUBLIC "-//W3C//DTD SVG 1.1//EN" 
 "http://www.w3.org/Graphics/SVG/1.1/DTD/svg11.dtd"> 
<svg
  xmlns:svg="http://www.w3.org/2000/svg"
  xmlns="http://www.w3.org/2000/svg"
  xmlns:xlink="http://www.w3.org/1999/xlink"
  version="1.1"
  width="19.4818mm" height="13.9700mm" viewBox="0.0000 0.0000 19.4818 13.9700">
<title>SVG Image created as _autosave-working-brd.svg date 2023/09/26 16:59:02 </title>
  <desc>Image generated by PCBNEW </desc>
<g style="fill:#000000; fill-opacity:1.0000;stroke:#000000; stroke-opacity:1.0000;
stroke-linecap:round; stroke-linejoin:round;"
 transform="translate(0 0) scale(1 1)">
</g>
<g style="fill:#000000; fill-opacity:0.0; 
stroke:#000000; stroke-width:0.0000; stroke-opacity:1; 
stroke-linecap:round; stroke-linejoin:round;">
</g>
<g style="fill:#000000; fill-opacity:1.0000; 
stroke:#000000; stroke-width:0.0212; stroke-opacity:1; 
stroke-linecap:round; stroke-linejoin:round;">
<rect x="-5.000000" y="-5.000000" width="29.505239" height="23.976500" rx="0.000000" />
</g>
<g style="fill:#FFFFFF; fill-opacity:1.0000; 
stroke:#FFFFFF; stroke-width:0.0212; stroke-opacity:1; 
stroke-linecap:round; stroke-linejoin:round;">
<g >
</g>
<g style="fill:#B2803A; fill-opacity:1.0000; 
stroke:#B2803A; stroke-width:0.0212; stroke-opacity:1; 
stroke-linecap:round; stroke-linejoin:round;">
</g>
<g style="fill:#B2803A; fill-opacity:1.0000; 
stroke:#B2803A; stroke-width:0.0000; stroke-opacity:1; 
stroke-linecap:round; stroke-linejoin:round;">
<path style="fill:#B2803A; fill-opacity:1.0000; 
stroke:#B2803A; stroke-width:0.0000; stroke-opacity:1; 
stroke-linecap:round; stroke-linejoin:round;fill-rule:evenodd;"
d="M 5.5226,9.9482
5.5226,11.6482
3.8226,11.6482
3.8226,9.9482
Z" /> 
<circle cx="4.6726" cy="8.2583" r="0.8500" /> 
<circle cx="4.6726" cy="5.7182" r="0.8500" /> 
<circle cx="4.6726" cy="3.1782" r="0.8500" /> 
</g>
<g >
</g>
<g style="fill:#B2803A; fill-opacity:1.0000; 
stroke:#B2803A; stroke-width:0.0000; stroke-opacity:1; 
stroke-linecap:round; stroke-linejoin:round;">
<path style="fill:#B2803A; fill-opacity:1.0000; 
stroke:#B2803A; stroke-width:0.0000; stroke-opacity:1; 
stroke-linecap:round; stroke-linejoin:round;fill-rule:evenodd;"
d="M 13.9826,4.0282
13.9826,2.3282
15.6826,2.3282
15.6826,4.0282
Z" /> 
<circle cx="14.8326" cy="5.7182" r="0.8500" /> 
<circle cx="14.8326" cy="8.2583" r="0.8500" /> 
<circle cx="14.8326" cy="10.7982" r="0.8500" /> 
</g>
<g >
</g>
<g >
</g>
<g >
</g>
<g >
</g>
<g >
</g>
<g style="fill:#121212; fill-opacity:1.0000; 
stroke:#121212; stroke-width:0.0000; stroke-opacity:1; 
stroke-linecap:round; stroke-linejoin:round;">
<circle cx="7.0226" cy="3.3533" r="0.4000" /> 
</g>
<g style="fill:#121212; fill-opacity:1.0000; 
stroke:#121212; stroke-width:0.0212; stroke-opacity:1; 
stroke-linecap:round; stroke-linejoin:round;">
</g>
<g style="fill:#121212; fill-opacity:1.0000; 
stroke:#121212; stroke-width:0.0000; stroke-opacity:1; 
stroke-linecap:round; stroke-linejoin:round;">
<circle cx="11.5776" cy="5.8032" r="0.4000" /> 
</g>
<g style="fill:#121212; fill-opacity:1.0000; 
stroke:#121212; stroke-width:0.0212; stroke-opacity:1; 
stroke-linecap:round; stroke-linejoin:round;">
</g>
<g >
</g>
<g style="fill:#B2803A; fill-opacity:1.0000; 
stroke:#B2803A; stroke-width:0.0212; stroke-opacity:1; 
stroke-linecap:round; stroke-linejoin:round;">
</g>
<g style="fill:#B2803A; fill-opacity:1.0000; 
stroke:#B2803A; stroke-width:0.2500; stroke-opacity:1; 
stroke-linecap:round; stroke-linejoin:round;">
</g>
<g style="fill:#B2803A; fill-opacity:0.0; 
stroke:#B2803A; stroke-width:0.2500; stroke-opacity:1; 
stroke-linecap:round; stroke-linejoin:round;">
<path d="M12.3776 5.8032
L11.5776 5.8032
" />
<path d="M14.8326 8.2583
L12.3776 5.8032
" />
</g>
<g >
</g>
<g style="fill:#B2803A; fill-opacity:0.0; 
stroke:#B2803A; stroke-width:0.2500; stroke-opacity:1; 
stroke-linecap:round; stroke-linejoin:round;">
<g >
</g>
<g style="fill:#B2803A; fill-opacity:1.0000; 
stroke:#B2803A; stroke-width:0.0000; stroke-opacity:1; 
stroke-linecap:round; stroke-linejoin:round;">
<path style="fill:#B2803A; fill-opacity:1.0000; 
stroke:#B2803A; stroke-width:0.0000; stroke-opacity:1; 
stroke-linecap:round; stroke-linejoin:round;fill-rule:evenodd;"
d="M 13.4162,2.4288
13.4627,2.4824
13.4741,2.5347
13.4741,4.0769
13.4806,4.1374
13.4806,4.1375
13.5317,4.2745
13.5317,4.2745
13.6194,4.3915
13.7364,4.4791
13.7364,4.4791
13.7364,4.4791
13.8514,4.5220
13.9083,4.5646
13.9331,4.6311
13.9180,4.7005
13.9001,4.7254
13.7569,4.8810
13.7569,4.8810
13.6338,5.0695
13.5433,5.2756
13.5433,5.2756
13.4881,5.4939
13.4695,5.7182
13.4881,5.9426
13.5433,6.1609
13.5433,6.1609
13.6338,6.3670
13.7569,6.5555
13.7569,6.5555
13.9094,6.7212
13.9639,6.7636
14.0870,6.8594
14.1208,6.8777
14.1712,6.9277
14.1866,6.9970
14.1620,7.0637
14.1208,7.0993
14.0873,7.1175
14.0873,7.1175
13.9097,7.2557
13.7573,7.4213
13.6342,7.6097
13.5438,7.8158
13.5438,7.8158
13.4961,8.0042
13.4961,8.0042
14.4015,8.0042
14.3731,8.0484
14.3326,8.1864
14.3326,8.3301
14.3731,8.4681
14.4015,8.5122
13.4961,8.5122
13.5438,8.7007
13.5438,8.7007
13.6342,8.9068
13.7573,9.0952
13.9097,9.2608
14.0873,9.3990
14.0873,9.3990
14.1208,9.4172
14.1712,9.4672
14.1866,9.5365
14.1620,9.6031
14.1208,9.6388
14.0870,9.6571
14.0870,9.6571
13.9094,9.7953
13.7569,9.9610
13.7569,9.9610
13.6338,10.1495
13.5433,10.3556
13.5433,10.3556
13.4881,10.5739
13.4695,10.7982
13.4881,11.0226
13.5433,11.2409
13.5433,11.2409
13.6136,11.4011
13.6227,11.4716
13.5922,11.5357
13.5319,11.5732
13.4982,11.5777
6.1571,11.5777
6.0890,11.5577
6.0425,11.5041
6.0311,11.4517
6.0311,9.8996
6.0311,9.8996
6.0246,9.8391
6.0246,9.8390
5.9735,9.7020
5.9735,9.7020
5.8859,9.5850
5.7688,9.4974
5.7688,9.4974
5.6538,9.4545
5.5970,9.4119
5.5722,9.3454
5.5873,9.2760
5.6051,9.2511
5.7483,9.0955
5.7483,9.0955
5.7551,9.0852
5.8715,8.9070
5.9619,8.7009
6.0172,8.4826
6.0358,8.2583
6.0172,8.0339
5.9620,7.8158
5.9619,7.8156
5.9619,7.8156
5.9619,7.8156
5.8715,7.6095
5.8648,7.5992
5.7483,7.4210
5.7483,7.4210
5.6322,7.2948
5.5959,7.2553
5.5959,7.2553
5.5959,7.2553
5.5140,7.1916
5.4182,7.1171
5.3849,7.0991
5.3345,7.0491
5.3192,6.9797
5.3438,6.9131
5.3849,6.8774
5.4182,6.8594
5.5959,6.7212
5.7483,6.5555
5.8715,6.3670
5.9619,6.1609
6.0172,5.9426
6.0358,5.7182
6.0172,5.4939
5.9619,5.2756
5.8715,5.0695
5.8648,5.0592
5.7483,4.8810
5.7483,4.8810
5.5959,4.7153
5.4876,4.6311
5.4182,4.5771
5.3849,4.5591
5.3345,4.5091
5.3192,4.4397
5.3438,4.3731
5.3849,4.3374
5.4182,4.3194
5.5959,4.1812
5.7483,4.0155
5.8715,3.8270
5.9619,3.6209
6.0172,3.4026
6.0358,3.1782
6.0172,2.9539
5.9619,2.7356
5.8960,2.5854
5.8870,2.5149
5.9174,2.4508
5.9777,2.4133
6.0114,2.4087
13.3481,2.4087
Z" /> 
</g>
</g>
</g>
<g style="fill:#000000; fill-opacity:1.0000; 
stroke:#000000; stroke-width:0.0000; stroke-opacity:1; 
stroke-linecap:round; stroke-linejoin:round;">
<circle cx="7.0226" cy="3.3533" r="0.2000" /> 
</g>
<g style="fill:#000000; fill-opacity:1.0000; 
stroke:#000000; stroke-width:0.0212; stroke-opacity:1; 
stroke-linecap:round; stroke-linejoin:round;">
</g>
<g style="fill:#000000; fill-opacity:1.0000; 
stroke:#000000; stroke-width:0.0000; stroke-opacity:1; 
stroke-linecap:round; stroke-linejoin:round;">
<circle cx="11.5776" cy="5.8032" r="0.2000" /> 
</g>
<g style="fill:#000000; fill-opacity:1.0000; 
stroke:#000000; stroke-width:0.0212; stroke-opacity:1; 
stroke-linecap:round; stroke-linejoin:round;">
</g>
<g style="fill:#000000; fill-opacity:1.0000; 
stroke:#000000; stroke-width:0.0000; stroke-opacity:1; 
stroke-linecap:round; stroke-linejoin:round;">
<circle cx="4.6726" cy="10.7982" r="0.5000" /> 
</g>
<g style="fill:#000000; fill-opacity:1.0000; 
stroke:#000000; stroke-width:0.0212; stroke-opacity:1; 
stroke-linecap:round; stroke-linejoin:round;">
</g>
<g style="fill:#000000; fill-opacity:1.0000; 
stroke:#000000; stroke-width:0.0000; stroke-opacity:1; 
stroke-linecap:round; stroke-linejoin:round;">
<circle cx="4.6726" cy="8.2583" r="0.5000" /> 
</g>
<g style="fill:#000000; fill-opacity:1.0000; 
stroke:#000000; stroke-width:0.0212; stroke-opacity:1; 
stroke-linecap:round; stroke-linejoin:round;">
</g>
<g style="fill:#000000; fill-opacity:1.0000; 
stroke:#000000; stroke-width:0.0000; stroke-opacity:1; 
stroke-linecap:round; stroke-linejoin:round;">
<circle cx="4.6726" cy="5.7182" r="0.5000" /> 
</g>
<g style="fill:#000000; fill-opacity:1.0000; 
stroke:#000000; stroke-width:0.0212; stroke-opacity:1; 
stroke-linecap:round; stroke-linejoin:round;">
</g>
<g style="fill:#000000; fill-opacity:1.0000; 
stroke:#000000; stroke-width:0.0000; stroke-opacity:1; 
stroke-linecap:round; stroke-linejoin:round;">
<circle cx="4.6726" cy="3.1782" r="0.5000" /> 
</g>
<g style="fill:#000000; fill-opacity:1.0000; 
stroke:#000000; stroke-width:0.0212; stroke-opacity:1; 
stroke-linecap:round; stroke-linejoin:round;">
</g>
<g style="fill:#000000; fill-opacity:1.0000; 
stroke:#000000; stroke-width:0.0000; stroke-opacity:1; 
stroke-linecap:round; stroke-linejoin:round;">
<circle cx="14.8326" cy="3.1782" r="0.5000" /> 
</g>
<g style="fill:#000000; fill-opacity:1.0000; 
stroke:#000000; stroke-width:0.0212; stroke-opacity:1; 
stroke-linecap:round; stroke-linejoin:round;">
</g>
<g style="fill:#000000; fill-opacity:1.0000; 
stroke:#000000; stroke-width:0.0000; stroke-opacity:1; 
stroke-linecap:round; stroke-linejoin:round;">
<circle cx="14.8326" cy="5.7182" r="0.5000" /> 
</g>
<g style="fill:#000000; fill-opacity:1.0000; 
stroke:#000000; stroke-width:0.0212; stroke-opacity:1; 
stroke-linecap:round; stroke-linejoin:round;">
</g>
<g style="fill:#000000; fill-opacity:1.0000; 
stroke:#000000; stroke-width:0.0000; stroke-opacity:1; 
stroke-linecap:round; stroke-linejoin:round;">
<circle cx="14.8326" cy="8.2583" r="0.5000" /> 
</g>
<g style="fill:#000000; fill-opacity:1.0000; 
stroke:#000000; stroke-width:0.0212; stroke-opacity:1; 
stroke-linecap:round; stroke-linejoin:round;">
</g>
<g style="fill:#000000; fill-opacity:1.0000; 
stroke:#000000; stroke-width:0.0000; stroke-opacity:1; 
stroke-linecap:round; stroke-linejoin:round;">
<circle cx="14.8326" cy="10.7982" r="0.5000" /> 
</g>
<g style="fill:#000000; fill-opacity:1.0000; 
stroke:#000000; stroke-width:0.0212; stroke-opacity:1; 
stroke-linecap:round; stroke-linejoin:round;">
</g>
<g style="fill:#FFFFFF; fill-opacity:1.0000; 
stroke:#FFFFFF; stroke-width:0.0212; stroke-opacity:1; 
stroke-linecap:round; stroke-linejoin:round;">
</g>
<g style="fill:#37CBCB; fill-opacity:1.0000; 
stroke:#37CBCB; stroke-width:0.0212; stroke-opacity:1; 
stroke-linecap:round; stroke-linejoin:round;">
</g>
<g style="fill:#37CBCB; fill-opacity:1.0000; 
stroke:#37CBCB; stroke-width:0.0000; stroke-opacity:1; 
stroke-linecap:round; stroke-linejoin:round;">
<path style="fill:#37CBCB; fill-opacity:1.0000; 
stroke:#37CBCB; stroke-width:0.0000; stroke-opacity:1; 
stroke-linecap:round; stroke-linejoin:round;fill-rule:evenodd;"
d="M 11.4726,3.4357
10.9726,3.4357
10.9726,3.1512
11.4726,3.1512
Z" /> 
<g >
<path style="fill:#37CBCB; fill-opacity:1.0000; 
stroke:#37CBCB; stroke-width:0.0000; stroke-opacity:1; 
stroke-linecap:round; stroke-linejoin:round;fill-rule:evenodd;"
d="M 5.5226,9.9482
5.5226,11.6482
3.8226,11.6482
3.8226,9.9482
Z" /> 
<circle cx="4.6726" cy="8.2583" r="0.8500" /> 
<circle cx="4.6726" cy="5.7182" r="0.8500" /> 
<circle cx="4.6726" cy="3.1782" r="0.8500" /> 
</g>
<g >
</g>
<g style="fill:#37CBCB; fill-opacity:1.0000; 
stroke:#37CBCB; stroke-width:0.0000; stroke-opacity:1; 
stroke-linecap:round; stroke-linejoin:round;">
<path style="fill:#37CBCB; fill-opacity:1.0000; 
stroke:#37CBCB; stroke-width:0.0000; stroke-opacity:1; 
stroke-linecap:round; stroke-linejoin:round;fill-rule:evenodd;"
d="M 13.9826,4.0282
13.9826,2.3282
15.6826,2.3282
15.6826,4.0282
Z" /> 
<circle cx="14.8326" cy="5.7182" r="0.8500" /> 
<circle cx="14.8326" cy="8.2583" r="0.8500" /> 
<circle cx="14.8326" cy="10.7982" r="0.8500" /> 
</g>
<g >
</g>
<g style="fill:#37CBCB; fill-opacity:1.0000; 
stroke:#37CBCB; stroke-width:0.0000; stroke-opacity:1; 
stroke-linecap:round; stroke-linejoin:round;">
<path style="fill:#37CBCB; fill-opacity:1.0000; 
stroke:#37CBCB; stroke-width:0.0000; stroke-opacity:1; 
stroke-linecap:round; stroke-linejoin:round;fill-rule:evenodd;"
d="M 9.2326,2.8832
9.2843,2.8935
9.3281,2.9228
9.3573,2.9666
9.3676,3.0182
9.3676,3.2882
9.3573,3.3399
9.3281,3.3837
9.2843,3.4130
9.2326,3.4232
8.8626,3.4232
8.8110,3.4130
8.7672,3.3837
8.7379,3.3399
8.7276,3.2882
8.7276,3.0182
8.7379,2.9666
8.7672,2.9228
8.8110,2.8935
8.8626,2.8832
Z" /> 
<path style="fill:#37CBCB; fill-opacity:1.0000; 
stroke:#37CBCB; stroke-width:0.0000; stroke-opacity:1; 
stroke-linecap:round; stroke-linejoin:round;fill-rule:evenodd;"
d="M 9.2326,3.9032
9.2843,3.9135
9.3281,3.9428
9.3573,3.9866
9.3676,4.0382
9.3676,4.3083
9.3573,4.3599
9.3281,4.4037
9.2843,4.4330
9.2326,4.4432
8.8626,4.4432
8.8110,4.4330
8.7672,4.4037
8.7379,4.3599
8.7276,4.3083
8.7276,4.0382
8.7379,3.9866
8.7672,3.9428
8.8110,3.9135
8.8626,3.9032
Z" /> 
</g>
<g >
</g>
<g style="fill:#37CBCB; fill-opacity:1.0000; 
stroke:#37CBCB; stroke-width:0.0000; stroke-opacity:1; 
stroke-linecap:round; stroke-linejoin:round;">
<path style="fill:#37CBCB; fill-opacity:1.0000; 
stroke:#37CBCB; stroke-width:0.0000; stroke-opacity:1; 
stroke-linecap:round; stroke-linejoin:round;fill-rule:evenodd;"
d="M 7.6426,11.8033
7.5852,11.7918
7.5366,11.7593
7.5040,11.7107
7.4926,11.6532
7.4926,10.0032
7.5040,9.9458
7.5366,9.8972
7.5852,9.8647
7.6426,9.8532
7.9426,9.8532
8.0000,9.8647
8.0487,9.8972
8.0812,9.9458
8.0926,10.0032
8.0926,11.6532
8.0812,11.7107
8.0487,11.7593
8.0000,11.7918
7.9426,11.8033
Z" /> 
<path style="fill:#37CBCB; fill-opacity:1.0000; 
stroke:#37CBCB; stroke-width:0.0000; stroke-opacity:1; 
stroke-linecap:round; stroke-linejoin:round;fill-rule:evenodd;"
d="M 8.9126,11.8033
8.8552,11.7918
8.8066,11.7593
8.7740,11.7107
8.7626,11.6532
8.7626,10.0032
8.7740,9.9458
8.8066,9.8972
8.8552,9.8647
8.9126,9.8532
9.2126,9.8532
9.2700,9.8647
9.3187,9.8972
9.3512,9.9458
9.3626,10.0032
9.3626,11.6532
9.3512,11.7107
9.3187,11.7593
9.2700,11.7918
9.2126,11.8033
Z" /> 
<path style="fill:#37CBCB; fill-opacity:1.0000; 
stroke:#37CBCB; stroke-width:0.0000; stroke-opacity:1; 
stroke-linecap:round; stroke-linejoin:round;fill-rule:evenodd;"
d="M 10.1826,11.8033
10.1252,11.7918
10.0766,11.7593
10.0440,11.7107
10.0326,11.6532
10.0326,10.0032
10.0440,9.9458
10.0766,9.8972
10.1252,9.8647
10.1826,9.8532
10.4826,9.8532
10.5400,9.8647
10.5887,9.8972
10.6212,9.9458
10.6326,10.0032
10.6326,11.6532
10.6212,11.7107
10.5887,11.7593
10.5400,11.7918
10.4826,11.8033
Z" /> 
<path style="fill:#37CBCB; fill-opacity:1.0000; 
stroke:#37CBCB; stroke-width:0.0000; stroke-opacity:1; 
stroke-linecap:round; stroke-linejoin:round;fill-rule:evenodd;"
d="M 11.4526,11.8033
11.3952,11.7918
11.3466,11.7593
11.3140,11.7107
11.3026,11.6532
11.3026,10.0032
11.3140,9.9458
11.3466,9.8972
11.3952,9.8647
11.4526,9.8532
11.7526,9.8532
11.8100,9.8647
11.8587,9.8972
11.8912,9.9458
11.9026,10.0032
11.9026,11.6532
11.8912,11.7107
11.8587,11.7593
11.8100,11.7918
11.7526,11.8033
Z" /> 
<path style="fill:#37CBCB; fill-opacity:1.0000; 
stroke:#37CBCB; stroke-width:0.0000; stroke-opacity:1; 
stroke-linecap:round; stroke-linejoin:round;fill-rule:evenodd;"
d="M 11.4526,6.8533
11.3952,6.8418
11.3466,6.8093
11.3140,6.7607
11.3026,6.7032
11.3026,5.0532
11.3140,4.9958
11.3466,4.9472
11.3952,4.9147
11.4526,4.9032
11.7526,4.9032
11.8100,4.9147
11.8587,4.9472
11.8912,4.9958
11.9026,5.0532
11.9026,6.7032
11.8912,6.7607
11.8587,6.8093
11.8100,6.8418
11.7526,6.8533
Z" /> 
<path style="fill:#37CBCB; fill-opacity:1.0000; 
stroke:#37CBCB; stroke-width:0.0000; stroke-opacity:1; 
stroke-linecap:round; stroke-linejoin:round;fill-rule:evenodd;"
d="M 10.1826,6.8533
10.1252,6.8418
10.0766,6.8093
10.0440,6.7607
10.0326,6.7032
10.0326,5.0532
10.0440,4.9958
10.0766,4.9472
10.1252,4.9147
10.1826,4.9032
10.4826,4.9032
10.5400,4.9147
10.5887,4.9472
10.6212,4.9958
10.6326,5.0532
10.6326,6.7032
10.6212,6.7607
10.5887,6.8093
10.5400,6.8418
10.4826,6.8533
Z" /> 
<path style="fill:#37CBCB; fill-opacity:1.0000; 
stroke:#37CBCB; stroke-width:0.0000; stroke-opacity:1; 
stroke-linecap:round; stroke-linejoin:round;fill-rule:evenodd;"
d="M 8.9126,6.8533
8.8552,6.8418
8.8066,6.8093
8.7740,6.7607
8.7626,6.7032
8.7626,5.0532
8.7740,4.9958
8.8066,4.9472
8.8552,4.9147
8.9126,4.9032
9.2126,4.9032
9.2700,4.9147
9.3187,4.9472
9.3512,4.9958
9.3626,5.0532
9.3626,6.7032
9.3512,6.7607
9.3187,6.8093
9.2700,6.8418
9.2126,6.8533
Z" /> 
<path style="fill:#37CBCB; fill-opacity:1.0000; 
stroke:#37CBCB; stroke-width:0.0000; stroke-opacity:1; 
stroke-linecap:round; stroke-linejoin:round;fill-rule:evenodd;"
d="M 7.6426,6.8533
7.5852,6.8418
7.5366,6.8093
7.5040,6.7607
7.4926,6.7032
7.4926,5.0532
7.5040,4.9958
7.5366,4.9472
7.5852,4.9147
7.6426,4.9032
7.9426,4.9032
8.0000,4.9147
8.0487,4.9472
8.0812,4.9958
8.0926,5.0532
8.0926,6.7032
8.0812,6.7607
8.0487,6.8093
8.0000,6.8418
7.9426,6.8533
Z" /> 
</g>
<g >
</g>
<g style="fill:#37CBCB; fill-opacity:1.0000; 
stroke:#37CBCB; stroke-width:0.0000; stroke-opacity:1; 
stroke-linecap:round; stroke-linejoin:round;">
<path style="fill:#37CBCB; fill-opacity:1.0000; 
stroke:#37CBCB; stroke-width:0.0000; stroke-opacity:1; 
stroke-linecap:round; stroke-linejoin:round;fill-rule:evenodd;"
d="M 11.3726,2.5282
11.8726,2.5282
11.8726,2.5333
11.9438,2.5333
12.0803,2.5734
12.2000,2.6504
12.2932,2.7579
12.3524,2.8874
12.3726,3.0282
12.3726,3.5282
12.3524,3.6691
12.2932,3.7986
12.2000,3.9061
12.0803,3.9831
11.9438,4.0232
11.8726,4.0232
11.8726,4.0282
11.3726,4.0282
Z" /> 
<path style="fill:#37CBCB; fill-opacity:1.0000; 
stroke:#37CBCB; stroke-width:0.0000; stroke-opacity:1; 
stroke-linecap:round; stroke-linejoin:round;fill-rule:evenodd;"
d="M 10.5726,4.0232
10.5015,4.0232
10.3649,3.9831
10.2452,3.9061
10.1520,3.7986
10.0929,3.6691
10.0726,3.5282
10.0726,3.0282
10.0929,2.8874
10.1520,2.7579
10.2452,2.6504
10.3649,2.5734
10.5015,2.5333
10.5726,2.5333
10.5726,2.5282
11.0726,2.5282
11.0726,4.0282
10.5726,4.0282
Z" /> 
</g>
<g >
</g>
<g style="fill:#37CBCB; fill-opacity:1.0000; 
stroke:#37CBCB; stroke-width:0.0000; stroke-opacity:1; 
stroke-linecap:round; stroke-linejoin:round;">
<path style="fill:#37CBCB; fill-opacity:1.0000; 
stroke:#37CBCB; stroke-width:0.0000; stroke-opacity:1; 
stroke-linecap:round; stroke-linejoin:round;fill-rule:evenodd;"
d="M 7.6276,4.4582
7.5740,4.4476
7.5286,4.4172
7.4983,4.3718
7.4876,4.3182
7.4876,4.0382
7.4983,3.9847
7.5286,3.9393
7.5740,3.9089
7.6276,3.8982
7.9676,3.8982
8.0212,3.9089
8.0666,3.9393
8.0970,3.9847
8.1076,4.0382
8.1076,4.3182
8.0970,4.3718
8.0666,4.4172
8.0212,4.4476
7.9676,4.4582
Z" /> 
<path style="fill:#37CBCB; fill-opacity:1.0000; 
stroke:#37CBCB; stroke-width:0.0000; stroke-opacity:1; 
stroke-linecap:round; stroke-linejoin:round;fill-rule:evenodd;"
d="M 7.6276,3.4982
7.5740,3.4876
7.5286,3.4572
7.4983,3.4118
7.4876,3.3582
7.4876,3.0782
7.4983,3.0247
7.5286,2.9793
7.5740,2.9489
7.6276,2.9383
7.9676,2.9383
8.0212,2.9489
8.0666,2.9793
8.0970,3.0247
8.1076,3.0782
8.1076,3.3582
8.0970,3.4118
8.0666,3.4572
8.0212,3.4876
7.9676,3.4982
Z" /> 
</g>
<g >
</g>
<g style="fill:#121212; fill-opacity:1.0000; 
stroke:#121212; stroke-width:0.0000; stroke-opacity:1; 
stroke-linecap:round; stroke-linejoin:round;">
<circle cx="7.0226" cy="3.3533" r="0.4000" /> 
</g>
<g style="fill:#121212; fill-opacity:1.0000; 
stroke:#121212; stroke-width:0.0212; stroke-opacity:1; 
stroke-linecap:round; stroke-linejoin:round;">
</g>
<g style="fill:#121212; fill-opacity:1.0000; 
stroke:#121212; stroke-width:0.0000; stroke-opacity:1; 
stroke-linecap:round; stroke-linejoin:round;">
<circle cx="11.5776" cy="5.8032" r="0.4000" /> 
</g>
<g style="fill:#121212; fill-opacity:1.0000; 
stroke:#121212; stroke-width:0.0212; stroke-opacity:1; 
stroke-linecap:round; stroke-linejoin:round;">
</g>
<g >
</g>
<g style="fill:#37CBCB; fill-opacity:1.0000; 
stroke:#37CBCB; stroke-width:0.0212; stroke-opacity:1; 
stroke-linecap:round; stroke-linejoin:round;">
</g>
<g style="fill:#37CBCB; fill-opacity:1.0000; 
stroke:#37CBCB; stroke-width:0.2500; stroke-opacity:1; 
stroke-linecap:round; stroke-linejoin:round;">
</g>
<g style="fill:#37CBCB; fill-opacity:0.0; 
stroke:#37CBCB; stroke-width:0.2500; stroke-opacity:1; 
stroke-linecap:round; stroke-linejoin:round;">
<path d="M9.5794 8.3782
L11.5776 10.3765
" />
<path d="M4.6726 3.1782
L5.8476 4.3533
" />
<path d="M5.8476 5.5300
L8.6958 8.3782
" />
<path d="M8.6958 8.3782
L9.5794 8.3782
" />
<path d="M5.8476 4.3533
L5.8476 5.5300
" />
<path d="M11.5776 10.3765
L11.5776 10.7532
" />
<path d="M10.3076 9.7782
L10.3076 10.7532
" />
<path d="M7.7826 8.8282
L9.3576 8.8282
" />
<path d="M9.3576 8.8282
L10.3076 9.7782
" />
<path d="M4.6726 5.7182
L7.7826 8.8282
" />
<path d="M8.5376 9.2782
L9.0376 9.7782
" />
<path d="M9.0376 9.7782
L9.0376 10.7532
" />
<path d="M4.6726 8.2583
L5.6926 9.2782
" />
<path d="M5.6926 9.2782
L8.5376 9.2782
" />
<path d="M7.7226 10.7982
L7.7676 10.7532
" />
<path d="M4.6726 10.7982
L7.7226 10.7982
" />
<path d="M11.9626 7.9282
L8.9176 7.9282
" />
<path d="M8.9176 7.9282
L7.7676 6.7782
" />
<path d="M7.7926 5.8782
L7.7926 4.1833
" />
<path d="M7.7676 6.7782
L7.7676 5.8032
" />
<path d="M7.7926 4.1833
L7.7976 4.1783
" />
<path d="M14.8326 10.7982
L11.9626 7.9282
" />
<path d="M7.1576 3.2182
L7.0226 3.3533
" />
<path d="M7.7976 3.2182
L7.1576 3.2182
" />
<path d="M9.9609 7.1033
L9.0376 6.1800
" />
<path d="M13.4476 7.1033
L9.9609 7.1033
" />
<path d="M9.0626 5.8782
L9.0626 4.1883
" />
<path d="M9.0626 4.1883
L9.0476 4.1732
" />
<path d="M9.0376 6.1800
L9.0376 5.8032
" />
<path d="M9.0376 5.2357
L9.0376 5.8032
" />
<path d="M14.8326 5.7182
L13.4476 7.1033
" />
<path d="M11.8726 3.2782
L14.7326 3.2782
" />
<path d="M14.7326 3.2782
L14.8326 3.1782
" />
<path d="M11.8726 3.6879
L11.8726 3.2782
" />
<path d="M10.3076 5.8032
L10.3076 5.2529
" />
<path d="M10.3076 5.2529
L11.8726 3.6879
" />
<path d="M9.0476 3.1532
L10.4476 3.1532
" />
<path d="M10.4476 3.1532
L10.5726 3.2782
" />
</g>
<g >
</g>
</g>
<g style="fill:#000000; fill-opacity:0.0; 
stroke:#000000; stroke-width:0.2500; stroke-opacity:1; 
stroke-linecap:round; stroke-linejoin:round;">
</g>
<g style="fill:#000000; fill-opacity:1.0000; 
stroke:#000000; stroke-width:0.0000; stroke-opacity:1; 
stroke-linecap:round; stroke-linejoin:round;">
<circle cx="7.0226" cy="3.3533" r="0.2000" /> 
</g>
<g style="fill:#000000; fill-opacity:1.0000; 
stroke:#000000; stroke-width:0.0212; stroke-opacity:1; 
stroke-linecap:round; stroke-linejoin:round;">
</g>
<g style="fill:#000000; fill-opacity:1.0000; 
stroke:#000000; stroke-width:0.0000; stroke-opacity:1; 
stroke-linecap:round; stroke-linejoin:round;">
<circle cx="11.5776" cy="5.8032" r="0.2000" /> 
</g>
<g style="fill:#000000; fill-opacity:1.0000; 
stroke:#000000; stroke-width:0.0212; stroke-opacity:1; 
stroke-linecap:round; stroke-linejoin:round;">
</g>
<g style="fill:#000000; fill-opacity:1.0000; 
stroke:#000000; stroke-width:0.0000; stroke-opacity:1; 
stroke-linecap:round; stroke-linejoin:round;">
<circle cx="4.6726" cy="10.7982" r="0.5000" /> 
</g>
<g style="fill:#000000; fill-opacity:1.0000; 
stroke:#000000; stroke-width:0.0212; stroke-opacity:1; 
stroke-linecap:round; stroke-linejoin:round;">
</g>
<g style="fill:#000000; fill-opacity:1.0000; 
stroke:#000000; stroke-width:0.0000; stroke-opacity:1; 
stroke-linecap:round; stroke-linejoin:round;">
<circle cx="4.6726" cy="8.2583" r="0.5000" /> 
</g>
<g style="fill:#000000; fill-opacity:1.0000; 
stroke:#000000; stroke-width:0.0212; stroke-opacity:1; 
stroke-linecap:round; stroke-linejoin:round;">
</g>
<g style="fill:#000000; fill-opacity:1.0000; 
stroke:#000000; stroke-width:0.0000; stroke-opacity:1; 
stroke-linecap:round; stroke-linejoin:round;">
<circle cx="4.6726" cy="5.7182" r="0.5000" /> 
</g>
<g style="fill:#000000; fill-opacity:1.0000; 
stroke:#000000; stroke-width:0.0212; stroke-opacity:1; 
stroke-linecap:round; stroke-linejoin:round;">
</g>
<g style="fill:#000000; fill-opacity:1.0000; 
stroke:#000000; stroke-width:0.0000; stroke-opacity:1; 
stroke-linecap:round; stroke-linejoin:round;">
<circle cx="4.6726" cy="3.1782" r="0.5000" /> 
</g>
<g style="fill:#000000; fill-opacity:1.0000; 
stroke:#000000; stroke-width:0.0212; stroke-opacity:1; 
stroke-linecap:round; stroke-linejoin:round;">
</g>
<g style="fill:#000000; fill-opacity:1.0000; 
stroke:#000000; stroke-width:0.0000; stroke-opacity:1; 
stroke-linecap:round; stroke-linejoin:round;">
<circle cx="14.8326" cy="3.1782" r="0.5000" /> 
</g>
<g style="fill:#000000; fill-opacity:1.0000; 
stroke:#000000; stroke-width:0.0212; stroke-opacity:1; 
stroke-linecap:round; stroke-linejoin:round;">
</g>
<g style="fill:#000000; fill-opacity:1.0000; 
stroke:#000000; stroke-width:0.0000; stroke-opacity:1; 
stroke-linecap:round; stroke-linejoin:round;">
<circle cx="14.8326" cy="5.7182" r="0.5000" /> 
</g>
<g style="fill:#000000; fill-opacity:1.0000; 
stroke:#000000; stroke-width:0.0212; stroke-opacity:1; 
stroke-linecap:round; stroke-linejoin:round;">
</g>
<g style="fill:#000000; fill-opacity:1.0000; 
stroke:#000000; stroke-width:0.0000; stroke-opacity:1; 
stroke-linecap:round; stroke-linejoin:round;">
<circle cx="14.8326" cy="8.2583" r="0.5000" /> 
</g>
<g style="fill:#000000; fill-opacity:1.0000; 
stroke:#000000; stroke-width:0.0212; stroke-opacity:1; 
stroke-linecap:round; stroke-linejoin:round;">
</g>
<g style="fill:#000000; fill-opacity:1.0000; 
stroke:#000000; stroke-width:0.0000; stroke-opacity:1; 
stroke-linecap:round; stroke-linejoin:round;">
<circle cx="14.8326" cy="10.7982" r="0.5000" /> 
</g>
<g style="fill:#000000; fill-opacity:1.0000; 
stroke:#000000; stroke-width:0.0212; stroke-opacity:1; 
stroke-linecap:round; stroke-linejoin:round;">
</g>
<g style="fill:#FFFFFF; fill-opacity:1.0000; 
stroke:#FFFFFF; stroke-width:0.0212; stroke-opacity:1; 
stroke-linecap:round; stroke-linejoin:round;">
<g >
</g>
<g >
</g>
<g >
</g>
<g >
</g>
<g >
</g>
<g >
</g>
<g >
</g>
<g >
</g>
<g >
</g>
</g>
<g style="fill:#FFFFFF; fill-opacity:1.0000; 
stroke:#FFFFFF; stroke-width:0.0212; stroke-opacity:1; 
stroke-linecap:round; stroke-linejoin:round;">
</g>
<g style="fill:#2F2D31; fill-opacity:1.0000; 
stroke:#2F2D31; stroke-width:0.0212; stroke-opacity:1; 
stroke-linecap:round; stroke-linejoin:round;">
</g>
<g style="fill:#2F2D31; fill-opacity:1.0000; 
stroke:#2F2D31; stroke-width:0.0500; stroke-opacity:1; 
stroke-linecap:round; stroke-linejoin:round;">
</g>
<g style="fill:#2F2D31; fill-opacity:0.0; 
stroke:#2F2D31; stroke-width:0.0500; stroke-opacity:1; 
stroke-linecap:round; stroke-linejoin:round;">
<path d="M16.1026 1.9083
L3.4026 1.9083
" />
<path d="M16.1026 12.0782
L16.1026 1.9083
" />
<path d="M3.4026 12.0782
L16.1026 12.0782
" />
<path d="M3.4026 1.9083
L3.4026 12.0782
" />
<g >
</g>
<g >
</g>
<g >
</g>
<g >
</g>
<g >
</g>
<g >
</g>
<g >
</g>
<g >
</g>
<g >
</g>
</g> 
</svg>
