<?xml version="1.0" standalone="no"?>
 <!DOCTYPE svg PUBLIC "-//W3C//DTD SVG 1.1//EN" 
 "http://www.w3.org/Graphics/SVG/1.1/DTD/svg11.dtd"> 
<svg
  xmlns:svg="http://www.w3.org/2000/svg"
  xmlns="http://www.w3.org/2000/svg"
  xmlns:xlink="http://www.w3.org/1999/xlink"
  version="1.1"
  width="369.0874mm" height="138.8872mm" viewBox="0.0000 0.0000 369.0874 138.8872">
<title>SVG Image created as working-brd.svg date 2023/09/23 01:30:23 </title>
  <desc>Image generated by PCBNEW </desc>
<g style="fill:#000000; fill-opacity:1.0000;stroke:#000000; stroke-opacity:1.0000;
stroke-linecap:round; stroke-linejoin:round;"
 transform="translate(0 0) scale(1 1)">
</g>
<g style="fill:#000000; fill-opacity:0.0; 
stroke:#000000; stroke-width:0.0000; stroke-opacity:1; 
stroke-linecap:round; stroke-linejoin:round;">
</g>
<g style="fill:#000000; fill-opacity:1.0000; 
stroke:#000000; stroke-width:0.0212; stroke-opacity:1; 
stroke-linecap:round; stroke-linejoin:round;">
<rect x="-5.000000" y="-5.000000" width="379.093750" height="148.906250" rx="0.000000" />
</g>
<g style="fill:#FFFFFF; fill-opacity:1.0000; 
stroke:#FFFFFF; stroke-width:0.0212; stroke-opacity:1; 
stroke-linecap:round; stroke-linejoin:round;">
<g >
</g>
<g >
</g>
<g style="fill:#B2803A; fill-opacity:1.0000; 
stroke:#B2803A; stroke-width:0.0212; stroke-opacity:1; 
stroke-linecap:round; stroke-linejoin:round;">
</g>
<g style="fill:#B2803A; fill-opacity:1.0000; 
stroke:#B2803A; stroke-width:0.0000; stroke-opacity:1; 
stroke-linecap:round; stroke-linejoin:round;">
<circle cx="115.7446" cy="52.7050" r="0.7620" /> 
</g>
<g style="fill:#B2803A; fill-opacity:1.0000; 
stroke:#B2803A; stroke-width:0.0212; stroke-opacity:1; 
stroke-linecap:round; stroke-linejoin:round;">
</g>
<g >
</g>
<g >
</g>
<g >
</g>
<g style="fill:#B2803A; fill-opacity:1.0000; 
stroke:#B2803A; stroke-width:0.0212; stroke-opacity:1; 
stroke-linecap:round; stroke-linejoin:round;">
<g >
</g>
<g style="fill:#B2803A; fill-opacity:1.0000; 
stroke:#B2803A; stroke-width:0.0000; stroke-opacity:1; 
stroke-linecap:round; stroke-linejoin:round;">
<path style="fill:#B2803A; fill-opacity:1.0000; 
stroke:#B2803A; stroke-width:0.0000; stroke-opacity:1; 
stroke-linecap:round; stroke-linejoin:round;fill-rule:evenodd;"
d="M 360.8425,1.9108
361.1477,1.9258
361.1808,1.9274
361.1870,1.9280
361.5205,1.9775
361.5206,1.9775
361.5266,1.9787
361.7408,2.0324
361.8538,2.0606
361.8597,2.0624
362.1772,2.1760
362.1829,2.1784
362.4878,2.3226
362.4932,2.3255
362.7825,2.4989
362.7876,2.5023
363.0585,2.7032
363.0585,2.7032
363.0633,2.7071
363.3131,2.9336
363.3175,2.9380
363.5440,3.1879
363.5479,3.1926
363.7488,3.4635
363.7488,3.4635
363.7522,3.4686
363.9256,3.7579
363.9285,3.7634
364.0727,4.0682
364.0751,4.0739
364.1887,4.3914
364.1905,4.3974
364.2724,4.7245
364.2736,4.7306
364.3231,5.0641
364.3237,5.0703
364.3403,5.4092
364.3404,5.4123
364.3404,132.4319
364.3404,132.4319
364.3404,132.4712
364.3403,132.4742
364.3237,132.8126
364.3231,132.8188
364.2736,133.1524
364.2724,133.1584
364.1905,133.4855
364.1887,133.4915
364.0751,133.8090
364.0727,133.8147
363.9285,134.1196
363.9256,134.1250
363.7522,134.4143
363.7488,134.4194
363.5479,134.6903
363.5440,134.6951
363.3175,134.9449
363.3132,134.9493
363.0633,135.1758
363.0585,135.1797
362.7876,135.3806
362.7825,135.3840
362.4932,135.5574
362.4878,135.5603
362.1829,135.7045
362.1772,135.7069
361.8597,135.8205
361.8538,135.8223
361.5266,135.9042
361.5206,135.9054
361.1870,135.9549
361.1808,135.9555
360.8878,135.9699
360.8430,135.9721
360.8399,135.9722
5.1800,135.9722
5.1769,135.9721
5.1439,135.9705
4.8385,135.9555
4.8323,135.9549
4.4988,135.9054
4.4927,135.9042
4.1656,135.8223
4.1597,135.8205
3.8421,135.7069
3.8364,135.7045
3.5316,135.5603
3.5261,135.5574
3.2369,135.3840
3.2317,135.3806
2.9608,135.1797
2.9561,135.1758
2.7062,134.9493
2.7018,134.9449
2.4754,134.6950
2.4714,134.6903
2.2705,134.4194
2.2671,134.4143
2.0937,134.1250
2.0908,134.1196
1.9526,133.8273
1.9466,133.8147
1.9443,133.8090
1.8307,133.4914
1.8289,133.4855
1.7469,133.1584
1.7457,133.1524
1.6962,132.8188
1.6956,132.8126
1.6790,132.4741
1.6790,132.4727
3.5228,132.4727
3.5432,132.7317
3.6039,132.9843
3.7033,133.2243
3.7033,133.2243
3.8390,133.4458
3.8390,133.4458
4.0077,133.6434
4.2053,133.8121
4.2053,133.8121
4.4268,133.9479
4.6668,134.0473
4.9194,134.1079
5.1784,134.1283
5.4374,134.1079
5.6900,134.0473
5.9301,133.9479
6.1516,133.8121
6.3491,133.6434
6.5178,133.4458
6.6536,133.2243
6.7530,132.9843
6.8136,132.7317
6.8340,132.4727
92.4384,132.4727
92.4588,132.7317
92.5195,132.9843
92.6189,133.2243
92.6189,133.2243
92.7546,133.4458
92.7546,133.4458
92.9234,133.6434
93.1209,133.8121
93.1209,133.8121
93.3424,133.9479
93.5824,134.0473
93.8351,134.1079
94.0940,134.1283
94.3530,134.1079
94.6057,134.0473
94.8457,133.9479
95.0672,133.8121
95.2647,133.6434
95.4335,133.4458
95.5692,133.2243
95.6686,132.9843
95.7293,132.7317
95.7497,132.4727
181.3541,132.4727
181.3745,132.7317
181.4351,132.9843
181.5345,133.2243
181.5345,133.2243
181.6703,133.4458
181.6703,133.4458
181.8390,133.6434
182.0365,133.8121
182.0365,133.8121
182.2580,133.9479
182.4981,134.0473
182.7507,134.1079
183.0097,134.1283
183.2687,134.1079
183.5213,134.0473
183.7613,133.9479
183.9828,133.8121
184.1804,133.6434
184.3491,133.4458
184.4848,133.2243
184.5842,132.9843
184.6449,132.7317
184.6653,132.4727
270.2697,132.4727
270.2901,132.7317
270.3507,132.9843
270.4501,133.2243
270.4501,133.2243
270.5859,133.4458
270.5859,133.4458
270.7546,133.6434
270.9522,133.8121
270.9522,133.8121
271.1737,133.9479
271.4137,134.0473
271.6663,134.1079
271.9253,134.1283
272.1843,134.1079
272.4369,134.0473
272.6769,133.9479
272.8984,133.8121
273.0960,133.6434
273.2647,133.4458
273.4005,133.2243
273.4999,132.9843
273.5605,132.7317
273.5809,132.4727
359.1853,132.4727
359.2057,132.7317
359.2664,132.9843
359.3658,133.2243
359.3658,133.2243
359.5015,133.4458
359.5015,133.4458
359.6702,133.6434
359.8678,133.8121
359.8678,133.8121
360.0893,133.9479
360.3293,134.0473
360.5819,134.1079
360.8409,134.1283
361.0999,134.1079
361.3525,134.0473
361.5926,133.9479
361.8141,133.8121
362.0116,133.6434
362.1803,133.4458
362.3161,133.2243
362.4155,132.9843
362.4761,132.7317
362.4965,132.4727
362.4761,132.2137
362.4155,131.9611
362.3161,131.7211
362.1803,131.4996
362.1803,131.4996
362.0116,131.3020
361.8141,131.1333
361.8141,131.1333
361.6842,131.0537
361.5926,130.9975
361.3525,130.8981
361.0999,130.8375
360.8409,130.8171
360.5819,130.8375
360.3293,130.8981
360.0893,130.9975
359.8678,131.1333
359.8678,131.1333
359.6702,131.3020
359.5015,131.4996
359.5015,131.4996
359.3658,131.7211
359.2664,131.9611
359.2160,132.1709
359.2057,132.2137
359.1853,132.4727
273.5809,132.4727
273.5605,132.2137
273.4999,131.9611
273.4005,131.7211
273.2647,131.4996
273.2647,131.4996
273.0960,131.3020
272.8984,131.1333
272.8984,131.1333
272.7686,131.0537
272.6769,130.9975
272.4369,130.8981
272.1843,130.8375
271.9253,130.8171
271.6663,130.8375
271.4137,130.8981
271.1737,130.9975
270.9522,131.1333
270.9522,131.1333
270.7546,131.3020
270.5859,131.4996
270.5859,131.4996
270.4501,131.7211
270.3507,131.9611
270.3004,132.1709
270.2901,132.2137
270.2697,132.4727
184.6653,132.4727
184.6449,132.2137
184.5842,131.9611
184.4848,131.7211
184.3491,131.4996
184.3491,131.4996
184.1804,131.3020
183.9828,131.1333
183.9828,131.1333
183.8529,131.0537
183.7613,130.9975
183.5213,130.8981
183.2687,130.8375
183.0097,130.8171
182.7507,130.8375
182.4981,130.8981
182.2580,130.9975
182.0365,131.1333
182.0365,131.1333
181.8390,131.3020
181.6703,131.4996
181.6703,131.4996
181.5345,131.7211
181.4351,131.9611
181.3847,132.1709
181.3745,132.2137
181.3541,132.4727
95.7497,132.4727
95.7293,132.2137
95.6686,131.9611
95.5692,131.7211
95.4335,131.4996
95.4335,131.4996
95.2647,131.3020
95.0672,131.1333
95.0672,131.1333
94.9373,131.0537
94.8457,130.9975
94.6057,130.8981
94.3530,130.8375
94.0940,130.8171
94.0940,130.8171
93.8351,130.8375
93.5824,130.8981
93.3424,130.9975
93.1209,131.1333
93.1209,131.1333
92.9234,131.3020
92.7546,131.4996
92.7546,131.4996
92.6189,131.7211
92.5195,131.9611
92.4691,132.1709
92.4588,132.2137
92.4384,132.4727
6.8340,132.4727
6.8136,132.2137
6.7530,131.9611
6.6536,131.7211
6.5178,131.4996
6.5178,131.4996
6.3491,131.3020
6.1516,131.1333
6.1516,131.1333
6.0217,131.0537
5.9301,130.9975
5.6900,130.8981
5.4374,130.8375
5.1784,130.8171
4.9194,130.8375
4.6668,130.8981
4.4268,130.9975
4.2053,131.1333
4.2053,131.1333
4.0077,131.3020
3.8390,131.4996
3.8390,131.4996
3.7033,131.7211
3.6039,131.9611
3.5535,132.1709
3.5432,132.2137
3.5228,132.4727
1.6790,132.4727
1.6789,132.4710
1.6789,68.9415
3.5228,68.9415
3.5432,69.2004
3.6039,69.4531
3.7033,69.6931
3.7033,69.6931
3.8390,69.9146
3.8390,69.9146
4.0077,70.1121
4.2053,70.2809
4.2053,70.2809
4.4268,70.4166
4.6668,70.5160
4.9194,70.5767
5.1784,70.5971
5.4374,70.5767
5.6900,70.5160
5.9301,70.4166
6.1516,70.2809
6.3491,70.1121
6.5178,69.9146
6.6536,69.6931
6.7530,69.4531
6.8136,69.2004
6.8340,68.9415
359.1853,68.9415
359.2057,69.2004
359.2664,69.4531
359.3658,69.6931
359.3658,69.6931
359.5015,69.9146
359.5015,69.9146
359.6702,70.1121
359.8678,70.2809
359.8678,70.2809
360.0893,70.4166
360.3293,70.5160
360.5819,70.5767
360.8409,70.5971
361.0999,70.5767
361.3525,70.5160
361.5926,70.4166
361.8141,70.2809
362.0116,70.1121
362.1803,69.9146
362.3161,69.6931
362.4155,69.4531
362.4761,69.2004
362.4965,68.9415
362.4761,68.6825
362.4155,68.4298
362.3161,68.1898
362.1803,67.9683
362.1803,67.9683
362.0116,67.7708
361.8141,67.6020
361.8141,67.6020
361.6842,67.5224
361.5926,67.4663
361.3525,67.3669
361.0999,67.3062
360.8409,67.2858
360.5819,67.3062
360.3293,67.3669
360.0893,67.4663
359.8678,67.6020
359.8678,67.6020
359.6702,67.7708
359.5015,67.9683
359.5015,67.9683
359.3658,68.1898
359.2664,68.4298
359.2160,68.6396
359.2057,68.6825
359.1853,68.9415
6.8340,68.9415
6.8136,68.6825
6.7530,68.4298
6.6536,68.1898
6.5178,67.9683
6.5178,67.9683
6.3491,67.7708
6.1516,67.6020
6.1516,67.6020
6.0217,67.5224
5.9301,67.4663
5.6900,67.3669
5.4374,67.3062
5.1784,67.2858
5.1784,67.2858
4.9194,67.3062
4.6668,67.3669
4.4268,67.4663
4.2053,67.6020
4.2053,67.6020
4.0077,67.7708
3.8390,67.9683
3.8390,67.9683
3.7033,68.1898
3.6039,68.4298
3.5535,68.6396
3.5432,68.6825
3.5228,68.9415
1.6789,68.9415
1.6789,5.4117
1.6790,5.4102
3.5228,5.4102
3.5432,5.6692
3.6039,5.9218
3.7033,6.1618
3.7033,6.1618
3.8390,6.3833
3.8390,6.3833
4.0077,6.5809
4.2053,6.7496
4.2053,6.7496
4.4268,6.8854
4.6668,6.9848
4.9194,7.0454
5.1784,7.0658
5.4374,7.0454
5.6900,6.9848
5.9301,6.8854
6.1516,6.7496
6.3491,6.5809
6.5178,6.3833
6.6536,6.1618
6.7530,5.9218
6.8136,5.6692
6.8340,5.4102
92.4384,5.4102
92.4588,5.6692
92.5195,5.9218
92.6189,6.1618
92.6189,6.1618
92.7546,6.3833
92.7546,6.3833
92.9234,6.5809
93.1209,6.7496
93.1209,6.7496
93.3424,6.8854
93.5824,6.9848
93.8351,7.0454
94.0940,7.0658
94.3530,7.0454
94.6057,6.9848
94.8457,6.8854
95.0672,6.7496
95.2647,6.5809
95.4335,6.3833
95.5692,6.1618
95.6686,5.9218
95.7293,5.6692
95.7497,5.4102
181.3541,5.4102
181.3745,5.6692
181.4351,5.9218
181.5345,6.1618
181.5345,6.1618
181.6703,6.3833
181.6703,6.3833
181.8390,6.5809
182.0365,6.7496
182.0365,6.7496
182.2580,6.8854
182.4981,6.9848
182.7507,7.0454
183.0097,7.0658
183.2687,7.0454
183.5213,6.9848
183.7613,6.8854
183.9828,6.7496
184.1804,6.5809
184.3491,6.3833
184.4848,6.1618
184.5842,5.9218
184.6449,5.6692
184.6653,5.4102
270.2697,5.4102
270.2901,5.6692
270.3507,5.9218
270.4501,6.1618
270.4501,6.1618
270.5859,6.3833
270.5859,6.3833
270.7546,6.5809
270.9522,6.7496
270.9522,6.7496
271.1737,6.8854
271.4137,6.9848
271.6663,7.0454
271.9253,7.0658
272.1843,7.0454
272.4369,6.9848
272.6769,6.8854
272.8984,6.7496
273.0960,6.5809
273.2647,6.3833
273.4005,6.1618
273.4999,5.9218
273.5605,5.6692
273.5809,5.4102
359.1853,5.4102
359.2057,5.6692
359.2664,5.9218
359.3658,6.1618
359.3658,6.1618
359.5015,6.3833
359.5015,6.3833
359.6702,6.5809
359.8678,6.7496
359.8678,6.7496
360.0893,6.8854
360.3293,6.9848
360.5819,7.0454
360.8409,7.0658
361.0999,7.0454
361.3525,6.9848
361.5926,6.8854
361.8141,6.7496
362.0116,6.5809
362.1803,6.3833
362.3161,6.1618
362.4155,5.9218
362.4761,5.6692
362.4965,5.4102
362.4761,5.1512
362.4155,4.8986
362.3161,4.6586
362.1803,4.4371
362.1787,4.4352
362.0116,4.2395
361.8141,4.0708
361.8141,4.0708
361.6842,3.9912
361.5926,3.9350
361.3525,3.8356
361.0999,3.7750
360.8409,3.7546
360.5819,3.7750
360.3293,3.8356
360.0893,3.9350
359.8678,4.0708
359.8678,4.0708
359.6702,4.2395
359.5015,4.4371
359.5015,4.4371
359.3658,4.6586
359.2664,4.8986
359.2251,5.0703
359.2057,5.1512
359.1853,5.4102
273.5809,5.4102
273.5605,5.1512
273.4999,4.8986
273.4005,4.6586
273.2647,4.4371
273.2631,4.4352
273.0960,4.2395
272.8984,4.0708
272.8984,4.0708
272.7686,3.9912
272.6769,3.9350
272.4369,3.8356
272.1843,3.7750
271.9253,3.7546
271.9253,3.7546
271.6663,3.7750
271.4137,3.8356
271.1737,3.9350
270.9522,4.0708
270.9522,4.0708
270.7546,4.2395
270.5859,4.4371
270.5859,4.4371
270.4501,4.6586
270.3507,4.8986
270.3095,5.0703
270.2901,5.1512
270.2697,5.4102
184.6653,5.4102
184.6449,5.1512
184.5842,4.8986
184.4848,4.6586
184.3491,4.4371
184.3475,4.4352
184.1804,4.2395
183.9828,4.0708
183.9828,4.0708
183.8529,3.9912
183.7613,3.9350
183.5213,3.8356
183.2687,3.7750
183.0097,3.7546
182.7507,3.7750
182.4981,3.8356
182.2580,3.9350
182.0365,4.0708
182.0365,4.0708
181.8390,4.2395
181.6703,4.4371
181.6703,4.4371
181.5345,4.6586
181.4351,4.8986
181.3939,5.0703
181.3745,5.1512
181.3541,5.4102
95.7497,5.4102
95.7293,5.1512
95.6686,4.8986
95.5692,4.6586
95.4335,4.4371
95.4319,4.4352
95.2647,4.2395
95.0672,4.0708
95.0672,4.0708
94.9373,3.9912
94.8457,3.9350
94.6057,3.8356
94.3530,3.7750
94.0940,3.7546
93.8351,3.7750
93.5824,3.8356
93.3424,3.9350
93.1209,4.0708
93.1209,4.0708
92.9234,4.2395
92.7546,4.4371
92.7546,4.4371
92.6189,4.6586
92.5195,4.8986
92.4783,5.0703
92.4588,5.1512
92.4384,5.4102
6.8340,5.4102
6.8136,5.1512
6.7530,4.8986
6.6536,4.6586
6.5178,4.4371
6.5162,4.4352
6.3491,4.2395
6.1516,4.0708
6.1516,4.0708
6.0217,3.9912
5.9301,3.9350
5.6900,3.8356
5.4374,3.7750
5.1784,3.7546
5.1784,3.7546
4.9194,3.7750
4.6668,3.8356
4.4268,3.9350
4.2053,4.0708
4.2053,4.0708
4.0077,4.2395
3.8390,4.4371
3.8390,4.4371
3.7033,4.6586
3.6039,4.8986
3.5626,5.0703
3.5432,5.1512
3.5228,5.4102
1.6790,5.4102
1.6790,5.4086
1.6916,5.1512
1.6956,5.0703
1.6962,5.0641
1.7457,4.7305
1.7469,4.7245
1.8289,4.3973
1.8306,4.3914
1.9443,4.0739
1.9466,4.0682
2.0853,3.7750
2.0908,3.7633
2.0937,3.7579
2.1366,3.6863
2.2671,3.4686
2.2705,3.4635
2.4714,3.1926
2.4753,3.1879
2.7018,2.9380
2.7062,2.9336
2.9561,2.7071
2.9608,2.7032
3.2317,2.5023
3.2368,2.4989
3.5261,2.3255
3.5316,2.3226
3.8364,2.1784
3.8421,2.1760
4.1597,2.0624
4.1656,2.0606
4.4927,1.9787
4.4988,1.9775
4.8324,1.9280
4.8385,1.9274
5.1768,1.9108
5.1799,1.9107
5.2443,1.9107
360.7750,1.9107
360.8394,1.9107
Z" /> 
</g>
</g>
</g>
<g style="fill:#000000; fill-opacity:1.0000; 
stroke:#000000; stroke-width:0.0000; stroke-opacity:1; 
stroke-linecap:round; stroke-linejoin:round;">
</g>
<g style="fill:#FFFFFF; fill-opacity:1.0000; 
stroke:#FFFFFF; stroke-width:0.0000; stroke-opacity:1; 
stroke-linecap:round; stroke-linejoin:round;">
<g >
</g>
<g >
</g>
<g style="fill:#37CBCB; fill-opacity:1.0000; 
stroke:#37CBCB; stroke-width:0.0000; stroke-opacity:1; 
stroke-linecap:round; stroke-linejoin:round;">
<circle cx="115.7446" cy="52.7050" r="0.7620" /> 
</g>
<g style="fill:#37CBCB; fill-opacity:1.0000; 
stroke:#37CBCB; stroke-width:0.0212; stroke-opacity:1; 
stroke-linecap:round; stroke-linejoin:round;">
</g>
<g >
</g>
<g >
</g>
<g >
</g>
<g style="fill:#37CBCB; fill-opacity:1.0000; 
stroke:#37CBCB; stroke-width:0.0212; stroke-opacity:1; 
stroke-linecap:round; stroke-linejoin:round;">
<g >
</g>
<g style="fill:#37CBCB; fill-opacity:1.0000; 
stroke:#37CBCB; stroke-width:0.0000; stroke-opacity:1; 
stroke-linecap:round; stroke-linejoin:round;">
<path style="fill:#37CBCB; fill-opacity:1.0000; 
stroke:#37CBCB; stroke-width:0.0000; stroke-opacity:1; 
stroke-linecap:round; stroke-linejoin:round;fill-rule:evenodd;"
d="M 360.8425,1.9108
361.1477,1.9258
361.1808,1.9274
361.1870,1.9280
361.5205,1.9775
361.5206,1.9775
361.5266,1.9787
361.7408,2.0324
361.8538,2.0606
361.8597,2.0624
362.1772,2.1760
362.1829,2.1784
362.4878,2.3226
362.4932,2.3255
362.7825,2.4989
362.7876,2.5023
363.0585,2.7032
363.0585,2.7032
363.0633,2.7071
363.3131,2.9336
363.3175,2.9380
363.5440,3.1879
363.5479,3.1926
363.7488,3.4635
363.7488,3.4635
363.7522,3.4686
363.9256,3.7579
363.9285,3.7634
364.0727,4.0682
364.0751,4.0739
364.1887,4.3914
364.1905,4.3974
364.2724,4.7245
364.2736,4.7306
364.3231,5.0641
364.3237,5.0703
364.3403,5.4092
364.3404,5.4123
364.3404,132.4319
364.3404,132.4319
364.3404,132.4712
364.3403,132.4742
364.3237,132.8126
364.3231,132.8188
364.2736,133.1524
364.2724,133.1584
364.1905,133.4855
364.1887,133.4915
364.0751,133.8090
364.0727,133.8147
363.9285,134.1196
363.9256,134.1250
363.7522,134.4143
363.7488,134.4194
363.5479,134.6903
363.5440,134.6951
363.3175,134.9449
363.3132,134.9493
363.0633,135.1758
363.0585,135.1797
362.7876,135.3806
362.7825,135.3840
362.4932,135.5574
362.4878,135.5603
362.1829,135.7045
362.1772,135.7069
361.8597,135.8205
361.8538,135.8223
361.5266,135.9042
361.5206,135.9054
361.1870,135.9549
361.1808,135.9555
360.8878,135.9699
360.8430,135.9721
360.8399,135.9722
5.1800,135.9722
5.1769,135.9721
5.1439,135.9705
4.8385,135.9555
4.8323,135.9549
4.4988,135.9054
4.4927,135.9042
4.1656,135.8223
4.1597,135.8205
3.8421,135.7069
3.8364,135.7045
3.5316,135.5603
3.5261,135.5574
3.2369,135.3840
3.2317,135.3806
2.9608,135.1797
2.9561,135.1758
2.7062,134.9493
2.7018,134.9449
2.4754,134.6950
2.4714,134.6903
2.2705,134.4194
2.2671,134.4143
2.0937,134.1250
2.0908,134.1196
1.9526,133.8273
1.9466,133.8147
1.9443,133.8090
1.8307,133.4914
1.8289,133.4855
1.7469,133.1584
1.7457,133.1524
1.6962,132.8188
1.6956,132.8126
1.6790,132.4741
1.6790,132.4727
3.5228,132.4727
3.5432,132.7317
3.6039,132.9843
3.7033,133.2243
3.7033,133.2243
3.8390,133.4458
3.8390,133.4458
4.0077,133.6434
4.2053,133.8121
4.2053,133.8121
4.4268,133.9479
4.6668,134.0473
4.9194,134.1079
5.1784,134.1283
5.4374,134.1079
5.6900,134.0473
5.9301,133.9479
6.1516,133.8121
6.3491,133.6434
6.5178,133.4458
6.6536,133.2243
6.7530,132.9843
6.8136,132.7317
6.8340,132.4727
92.4384,132.4727
92.4588,132.7317
92.5195,132.9843
92.6189,133.2243
92.6189,133.2243
92.7546,133.4458
92.7546,133.4458
92.9234,133.6434
93.1209,133.8121
93.1209,133.8121
93.3424,133.9479
93.5824,134.0473
93.8351,134.1079
94.0940,134.1283
94.3530,134.1079
94.6057,134.0473
94.8457,133.9479
95.0672,133.8121
95.2647,133.6434
95.4335,133.4458
95.5692,133.2243
95.6686,132.9843
95.7293,132.7317
95.7497,132.4727
181.3541,132.4727
181.3745,132.7317
181.4351,132.9843
181.5345,133.2243
181.5345,133.2243
181.6703,133.4458
181.6703,133.4458
181.8390,133.6434
182.0365,133.8121
182.0365,133.8121
182.2580,133.9479
182.4981,134.0473
182.7507,134.1079
183.0097,134.1283
183.2687,134.1079
183.5213,134.0473
183.7613,133.9479
183.9828,133.8121
184.1804,133.6434
184.3491,133.4458
184.4848,133.2243
184.5842,132.9843
184.6449,132.7317
184.6653,132.4727
270.2697,132.4727
270.2901,132.7317
270.3507,132.9843
270.4501,133.2243
270.4501,133.2243
270.5859,133.4458
270.5859,133.4458
270.7546,133.6434
270.9522,133.8121
270.9522,133.8121
271.1737,133.9479
271.4137,134.0473
271.6663,134.1079
271.9253,134.1283
272.1843,134.1079
272.4369,134.0473
272.6769,133.9479
272.8984,133.8121
273.0960,133.6434
273.2647,133.4458
273.4005,133.2243
273.4999,132.9843
273.5605,132.7317
273.5809,132.4727
359.1853,132.4727
359.2057,132.7317
359.2664,132.9843
359.3658,133.2243
359.3658,133.2243
359.5015,133.4458
359.5015,133.4458
359.6702,133.6434
359.8678,133.8121
359.8678,133.8121
360.0893,133.9479
360.3293,134.0473
360.5819,134.1079
360.8409,134.1283
361.0999,134.1079
361.3525,134.0473
361.5926,133.9479
361.8141,133.8121
362.0116,133.6434
362.1803,133.4458
362.3161,133.2243
362.4155,132.9843
362.4761,132.7317
362.4965,132.4727
362.4761,132.2137
362.4155,131.9611
362.3161,131.7211
362.1803,131.4996
362.1803,131.4996
362.0116,131.3020
361.8141,131.1333
361.8141,131.1333
361.6842,131.0537
361.5926,130.9975
361.3525,130.8981
361.0999,130.8375
360.8409,130.8171
360.5819,130.8375
360.3293,130.8981
360.0893,130.9975
359.8678,131.1333
359.8678,131.1333
359.6702,131.3020
359.5015,131.4996
359.5015,131.4996
359.3658,131.7211
359.2664,131.9611
359.2160,132.1709
359.2057,132.2137
359.1853,132.4727
273.5809,132.4727
273.5605,132.2137
273.4999,131.9611
273.4005,131.7211
273.2647,131.4996
273.2647,131.4996
273.0960,131.3020
272.8984,131.1333
272.8984,131.1333
272.7686,131.0537
272.6769,130.9975
272.4369,130.8981
272.1843,130.8375
271.9253,130.8171
271.6663,130.8375
271.4137,130.8981
271.1737,130.9975
270.9522,131.1333
270.9522,131.1333
270.7546,131.3020
270.5859,131.4996
270.5859,131.4996
270.4501,131.7211
270.3507,131.9611
270.3004,132.1709
270.2901,132.2137
270.2697,132.4727
184.6653,132.4727
184.6449,132.2137
184.5842,131.9611
184.4848,131.7211
184.3491,131.4996
184.3491,131.4996
184.1804,131.3020
183.9828,131.1333
183.9828,131.1333
183.8529,131.0537
183.7613,130.9975
183.5213,130.8981
183.2687,130.8375
183.0097,130.8171
182.7507,130.8375
182.4981,130.8981
182.2580,130.9975
182.0365,131.1333
182.0365,131.1333
181.8390,131.3020
181.6703,131.4996
181.6703,131.4996
181.5345,131.7211
181.4351,131.9611
181.3847,132.1709
181.3745,132.2137
181.3541,132.4727
95.7497,132.4727
95.7293,132.2137
95.6686,131.9611
95.5692,131.7211
95.4335,131.4996
95.4335,131.4996
95.2647,131.3020
95.0672,131.1333
95.0672,131.1333
94.9373,131.0537
94.8457,130.9975
94.6057,130.8981
94.3530,130.8375
94.0940,130.8171
94.0940,130.8171
93.8351,130.8375
93.5824,130.8981
93.3424,130.9975
93.1209,131.1333
93.1209,131.1333
92.9234,131.3020
92.7546,131.4996
92.7546,131.4996
92.6189,131.7211
92.5195,131.9611
92.4691,132.1709
92.4588,132.2137
92.4384,132.4727
6.8340,132.4727
6.8136,132.2137
6.7530,131.9611
6.6536,131.7211
6.5178,131.4996
6.5178,131.4996
6.3491,131.3020
6.1516,131.1333
6.1516,131.1333
6.0217,131.0537
5.9301,130.9975
5.6900,130.8981
5.4374,130.8375
5.1784,130.8171
4.9194,130.8375
4.6668,130.8981
4.4268,130.9975
4.2053,131.1333
4.2053,131.1333
4.0077,131.3020
3.8390,131.4996
3.8390,131.4996
3.7033,131.7211
3.6039,131.9611
3.5535,132.1709
3.5432,132.2137
3.5228,132.4727
1.6790,132.4727
1.6789,132.4710
1.6789,68.9415
3.5228,68.9415
3.5432,69.2004
3.6039,69.4531
3.7033,69.6931
3.7033,69.6931
3.8390,69.9146
3.8390,69.9146
4.0077,70.1121
4.2053,70.2809
4.2053,70.2809
4.4268,70.4166
4.6668,70.5160
4.9194,70.5767
5.1784,70.5971
5.4374,70.5767
5.6900,70.5160
5.9301,70.4166
6.1516,70.2809
6.3491,70.1121
6.5178,69.9146
6.6536,69.6931
6.7530,69.4531
6.8136,69.2004
6.8340,68.9415
359.1853,68.9415
359.2057,69.2004
359.2664,69.4531
359.3658,69.6931
359.3658,69.6931
359.5015,69.9146
359.5015,69.9146
359.6702,70.1121
359.8678,70.2809
359.8678,70.2809
360.0893,70.4166
360.3293,70.5160
360.5819,70.5767
360.8409,70.5971
361.0999,70.5767
361.3525,70.5160
361.5926,70.4166
361.8141,70.2809
362.0116,70.1121
362.1803,69.9146
362.3161,69.6931
362.4155,69.4531
362.4761,69.2004
362.4965,68.9415
362.4761,68.6825
362.4155,68.4298
362.3161,68.1898
362.1803,67.9683
362.1803,67.9683
362.0116,67.7708
361.8141,67.6020
361.8141,67.6020
361.6842,67.5224
361.5926,67.4663
361.3525,67.3669
361.0999,67.3062
360.8409,67.2858
360.5819,67.3062
360.3293,67.3669
360.0893,67.4663
359.8678,67.6020
359.8678,67.6020
359.6702,67.7708
359.5015,67.9683
359.5015,67.9683
359.3658,68.1898
359.2664,68.4298
359.2160,68.6396
359.2057,68.6825
359.1853,68.9415
6.8340,68.9415
6.8136,68.6825
6.7530,68.4298
6.6536,68.1898
6.5178,67.9683
6.5178,67.9683
6.3491,67.7708
6.1516,67.6020
6.1516,67.6020
6.0217,67.5224
5.9301,67.4663
5.6900,67.3669
5.4374,67.3062
5.1784,67.2858
5.1784,67.2858
4.9194,67.3062
4.6668,67.3669
4.4268,67.4663
4.2053,67.6020
4.2053,67.6020
4.0077,67.7708
3.8390,67.9683
3.8390,67.9683
3.7033,68.1898
3.6039,68.4298
3.5535,68.6396
3.5432,68.6825
3.5228,68.9415
1.6789,68.9415
1.6789,5.4117
1.6790,5.4102
3.5228,5.4102
3.5432,5.6692
3.6039,5.9218
3.7033,6.1618
3.7033,6.1618
3.8390,6.3833
3.8390,6.3833
4.0077,6.5809
4.2053,6.7496
4.2053,6.7496
4.4268,6.8854
4.6668,6.9848
4.9194,7.0454
5.1784,7.0658
5.4374,7.0454
5.6900,6.9848
5.9301,6.8854
6.1516,6.7496
6.3491,6.5809
6.5178,6.3833
6.6536,6.1618
6.7530,5.9218
6.8136,5.6692
6.8340,5.4102
92.4384,5.4102
92.4588,5.6692
92.5195,5.9218
92.6189,6.1618
92.6189,6.1618
92.7546,6.3833
92.7546,6.3833
92.9234,6.5809
93.1209,6.7496
93.1209,6.7496
93.3424,6.8854
93.5824,6.9848
93.8351,7.0454
94.0940,7.0658
94.3530,7.0454
94.6057,6.9848
94.8457,6.8854
95.0672,6.7496
95.2647,6.5809
95.4335,6.3833
95.5692,6.1618
95.6686,5.9218
95.7293,5.6692
95.7497,5.4102
181.3541,5.4102
181.3745,5.6692
181.4351,5.9218
181.5345,6.1618
181.5345,6.1618
181.6703,6.3833
181.6703,6.3833
181.8390,6.5809
182.0365,6.7496
182.0365,6.7496
182.2580,6.8854
182.4981,6.9848
182.7507,7.0454
183.0097,7.0658
183.2687,7.0454
183.5213,6.9848
183.7613,6.8854
183.9828,6.7496
184.1804,6.5809
184.3491,6.3833
184.4848,6.1618
184.5842,5.9218
184.6449,5.6692
184.6653,5.4102
270.2697,5.4102
270.2901,5.6692
270.3507,5.9218
270.4501,6.1618
270.4501,6.1618
270.5859,6.3833
270.5859,6.3833
270.7546,6.5809
270.9522,6.7496
270.9522,6.7496
271.1737,6.8854
271.4137,6.9848
271.6663,7.0454
271.9253,7.0658
272.1843,7.0454
272.4369,6.9848
272.6769,6.8854
272.8984,6.7496
273.0960,6.5809
273.2647,6.3833
273.4005,6.1618
273.4999,5.9218
273.5605,5.6692
273.5809,5.4102
359.1853,5.4102
359.2057,5.6692
359.2664,5.9218
359.3658,6.1618
359.3658,6.1618
359.5015,6.3833
359.5015,6.3833
359.6702,6.5809
359.8678,6.7496
359.8678,6.7496
360.0893,6.8854
360.3293,6.9848
360.5819,7.0454
360.8409,7.0658
361.0999,7.0454
361.3525,6.9848
361.5926,6.8854
361.8141,6.7496
362.0116,6.5809
362.1803,6.3833
362.3161,6.1618
362.4155,5.9218
362.4761,5.6692
362.4965,5.4102
362.4761,5.1512
362.4155,4.8986
362.3161,4.6586
362.1803,4.4371
362.1787,4.4352
362.0116,4.2395
361.8141,4.0708
361.8141,4.0708
361.6842,3.9912
361.5926,3.9350
361.3525,3.8356
361.0999,3.7750
360.8409,3.7546
360.5819,3.7750
360.3293,3.8356
360.0893,3.9350
359.8678,4.0708
359.8678,4.0708
359.6702,4.2395
359.5015,4.4371
359.5015,4.4371
359.3658,4.6586
359.2664,4.8986
359.2251,5.0703
359.2057,5.1512
359.1853,5.4102
273.5809,5.4102
273.5605,5.1512
273.4999,4.8986
273.4005,4.6586
273.2647,4.4371
273.2631,4.4352
273.0960,4.2395
272.8984,4.0708
272.8984,4.0708
272.7686,3.9912
272.6769,3.9350
272.4369,3.8356
272.1843,3.7750
271.9253,3.7546
271.9253,3.7546
271.6663,3.7750
271.4137,3.8356
271.1737,3.9350
270.9522,4.0708
270.9522,4.0708
270.7546,4.2395
270.5859,4.4371
270.5859,4.4371
270.4501,4.6586
270.3507,4.8986
270.3095,5.0703
270.2901,5.1512
270.2697,5.4102
184.6653,5.4102
184.6449,5.1512
184.5842,4.8986
184.4848,4.6586
184.3491,4.4371
184.3475,4.4352
184.1804,4.2395
183.9828,4.0708
183.9828,4.0708
183.8529,3.9912
183.7613,3.9350
183.5213,3.8356
183.2687,3.7750
183.0097,3.7546
182.7507,3.7750
182.4981,3.8356
182.2580,3.9350
182.0365,4.0708
182.0365,4.0708
181.8390,4.2395
181.6703,4.4371
181.6703,4.4371
181.5345,4.6586
181.4351,4.8986
181.3939,5.0703
181.3745,5.1512
181.3541,5.4102
95.7497,5.4102
95.7293,5.1512
95.6686,4.8986
95.5692,4.6586
95.4335,4.4371
95.4319,4.4352
95.2647,4.2395
95.0672,4.0708
95.0672,4.0708
94.9373,3.9912
94.8457,3.9350
94.6057,3.8356
94.3530,3.7750
94.0940,3.7546
93.8351,3.7750
93.5824,3.8356
93.3424,3.9350
93.1209,4.0708
93.1209,4.0708
92.9234,4.2395
92.7546,4.4371
92.7546,4.4371
92.6189,4.6586
92.5195,4.8986
92.4783,5.0703
92.4588,5.1512
92.4384,5.4102
6.8340,5.4102
6.8136,5.1512
6.7530,4.8986
6.6536,4.6586
6.5178,4.4371
6.5162,4.4352
6.3491,4.2395
6.1516,4.0708
6.1516,4.0708
6.0217,3.9912
5.9301,3.9350
5.6900,3.8356
5.4374,3.7750
5.1784,3.7546
5.1784,3.7546
4.9194,3.7750
4.6668,3.8356
4.4268,3.9350
4.2053,4.0708
4.2053,4.0708
4.0077,4.2395
3.8390,4.4371
3.8390,4.4371
3.7033,4.6586
3.6039,4.8986
3.5626,5.0703
3.5432,5.1512
3.5228,5.4102
1.6790,5.4102
1.6790,5.4086
1.6916,5.1512
1.6956,5.0703
1.6962,5.0641
1.7457,4.7305
1.7469,4.7245
1.8289,4.3973
1.8306,4.3914
1.9443,4.0739
1.9466,4.0682
2.0853,3.7750
2.0908,3.7633
2.0937,3.7579
2.1366,3.6863
2.2671,3.4686
2.2705,3.4635
2.4714,3.1926
2.4753,3.1879
2.7018,2.9380
2.7062,2.9336
2.9561,2.7071
2.9608,2.7032
3.2317,2.5023
3.2368,2.4989
3.5261,2.3255
3.5316,2.3226
3.8364,2.1784
3.8421,2.1760
4.1597,2.0624
4.1656,2.0606
4.4927,1.9787
4.4988,1.9775
4.8324,1.9280
4.8385,1.9274
5.1768,1.9108
5.1799,1.9107
5.2443,1.9107
360.7750,1.9107
360.8394,1.9107
Z" /> 
</g>
</g>
</g>
<g style="fill:#000000; fill-opacity:1.0000; 
stroke:#000000; stroke-width:0.0000; stroke-opacity:1; 
stroke-linecap:round; stroke-linejoin:round;">
</g>
<g style="fill:#FFFFFF; fill-opacity:1.0000; 
stroke:#FFFFFF; stroke-width:0.0000; stroke-opacity:1; 
stroke-linecap:round; stroke-linejoin:round;">
</g>
<g style="fill:#3D3D3D; fill-opacity:1.0000; 
stroke:#3D3D3D; stroke-width:0.0000; stroke-opacity:1; 
stroke-linecap:round; stroke-linejoin:round;">
</g>
<g style="fill:#3D3D3D; fill-opacity:1.0000; 
stroke:#3D3D3D; stroke-width:0.1500; stroke-opacity:1; 
stroke-linecap:round; stroke-linejoin:round;">
</g>
<g style="fill:#3D3D3D; fill-opacity:0.0; 
stroke:#3D3D3D; stroke-width:0.1500; stroke-opacity:1; 
stroke-linecap:round; stroke-linejoin:round;">
<text x="4.2132" y="129.0574"
textLength="2.2500" font-size="1.3333" lengthAdjust="spacingAndGlyphs"
text-anchor="middle" opacity="0">O1</text>
<g class="stroked-text"><desc>O1</desc>
<path d="M3.6418 128.0122
L3.8323 128.0122
" />
<path d="M3.8323 128.0122
L3.9275 128.0598
" />
<path d="M3.9275 128.0598
L4.0227 128.1551
" />
<path d="M4.0227 128.1551
L4.0704 128.3456
" />
<path d="M4.0704 128.3456
L4.0704 128.6789
" />
<path d="M4.0704 128.6789
L4.0227 128.8694
" />
<path d="M4.0227 128.8694
L3.9275 128.9646
" />
<path d="M3.9275 128.9646
L3.8323 129.0122
" />
<path d="M3.8323 129.0122
L3.6418 129.0122
" />
<path d="M3.6418 129.0122
L3.5466 128.9646
" />
<path d="M3.5466 128.9646
L3.4513 128.8694
" />
<path d="M3.4513 128.8694
L3.4037 128.6789
" />
<path d="M3.4037 128.6789
L3.4037 128.3456
" />
<path d="M3.4037 128.3456
L3.4513 128.1551
" />
<path d="M3.4513 128.1551
L3.5466 128.0598
" />
<path d="M3.5466 128.0598
L3.6418 128.0122
" />
<path d="M5.0227 129.0122
L4.4513 129.0122
" />
<path d="M4.7370 129.0122
L4.7370 128.0122
" />
<path d="M4.7370 128.0122
L4.6418 128.1551
" />
<path d="M4.6418 128.1551
L4.5466 128.2503
" />
<path d="M4.5466 128.2503
L4.4513 128.2979
" />
</g><text x="4.2132" y="130.0574"
textLength="5.5357" font-size="1.3333" lengthAdjust="spacingAndGlyphs"
text-anchor="middle" opacity="0">Outline</text>
<g class="stroked-text"><desc>Outline</desc>
<path d="M1.9989 129.0122
L2.1894 129.0122
" />
<path d="M2.1894 129.0122
L2.2847 129.0598
" />
<path d="M2.2847 129.0598
L2.3799 129.1551
" />
<path d="M2.3799 129.1551
L2.4275 129.3456
" />
<path d="M2.4275 129.3456
L2.4275 129.6789
" />
<path d="M2.4275 129.6789
L2.3799 129.8694
" />
<path d="M2.3799 129.8694
L2.2847 129.9646
" />
<path d="M2.2847 129.9646
L2.1894 130.0122
" />
<path d="M2.1894 130.0122
L1.9989 130.0122
" />
<path d="M1.9989 130.0122
L1.9037 129.9646
" />
<path d="M1.9037 129.9646
L1.8085 129.8694
" />
<path d="M1.8085 129.8694
L1.7608 129.6789
" />
<path d="M1.7608 129.6789
L1.7608 129.3456
" />
<path d="M1.7608 129.3456
L1.8085 129.1551
" />
<path d="M1.8085 129.1551
L1.9037 129.0598
" />
<path d="M1.9037 129.0598
L1.9989 129.0122
" />
<path d="M3.2847 129.3456
L3.2847 130.0122
" />
<path d="M2.8561 129.3456
L2.8561 129.8694
" />
<path d="M2.8561 129.8694
L2.9037 129.9646
" />
<path d="M2.9037 129.9646
L2.9989 130.0122
" />
<path d="M2.9989 130.0122
L3.1418 130.0122
" />
<path d="M3.1418 130.0122
L3.2370 129.9646
" />
<path d="M3.2370 129.9646
L3.2847 129.9170
" />
<path d="M3.6180 129.3456
L3.9989 129.3456
" />
<path d="M3.7608 129.0122
L3.7608 129.8694
" />
<path d="M3.7608 129.8694
L3.8085 129.9646
" />
<path d="M3.8085 129.9646
L3.9037 130.0122
" />
<path d="M3.9037 130.0122
L3.9989 130.0122
" />
<path d="M4.4751 130.0122
L4.3799 129.9646
" />
<path d="M4.3799 129.9646
L4.3323 129.8694
" />
<path d="M4.3323 129.8694
L4.3323 129.0122
" />
<path d="M4.8561 130.0122
L4.8561 129.3456
" />
<path d="M4.8561 129.0122
L4.8085 129.0598
" />
<path d="M4.8085 129.0598
L4.8561 129.1075
" />
<path d="M4.8561 129.1075
L4.9037 129.0598
" />
<path d="M4.9037 129.0598
L4.8561 129.0122
" />
<path d="M4.8561 129.0122
L4.8561 129.1075
" />
<path d="M5.3323 129.3456
L5.3323 130.0122
" />
<path d="M5.3323 129.4408
L5.3799 129.3932
" />
<path d="M5.3799 129.3932
L5.4751 129.3456
" />
<path d="M5.4751 129.3456
L5.6180 129.3456
" />
<path d="M5.6180 129.3456
L5.7132 129.3932
" />
<path d="M5.7132 129.3932
L5.7608 129.4884
" />
<path d="M5.7608 129.4884
L5.7608 130.0122
" />
<path d="M6.6180 129.9646
L6.5227 130.0122
" />
<path d="M6.5227 130.0122
L6.3323 130.0122
" />
<path d="M6.3323 130.0122
L6.2370 129.9646
" />
<path d="M6.2370 129.9646
L6.1894 129.8694
" />
<path d="M6.1894 129.8694
L6.1894 129.4884
" />
<path d="M6.1894 129.4884
L6.2370 129.3932
" />
<path d="M6.2370 129.3932
L6.3323 129.3456
" />
<path d="M6.3323 129.3456
L6.5227 129.3456
" />
<path d="M6.5227 129.3456
L6.6180 129.3932
" />
<path d="M6.6180 129.3932
L6.6656 129.4884
" />
<path d="M6.6656 129.4884
L6.6656 129.5836
" />
<path d="M6.6656 129.5836
L6.1894 129.6789
" />
</g><g >
</g>
<g >
</g>
<g >
</g>
<g >
</g>
<g >
</g>
</g>
<g style="fill:#FFFFFF; fill-opacity:0.0; 
stroke:#FFFFFF; stroke-width:0.1500; stroke-opacity:1; 
stroke-linecap:round; stroke-linejoin:round;">
</g>
<g style="fill:#2F2D31; fill-opacity:0.0; 
stroke:#2F2D31; stroke-width:0.1500; stroke-opacity:1; 
stroke-linecap:round; stroke-linejoin:round;">
</g>
<g style="fill:#2F2D31; fill-opacity:0.0; 
stroke:#2F2D31; stroke-width:0.2000; stroke-opacity:1; 
stroke-linecap:round; stroke-linejoin:round;">
<path d="M1.1784 132.4727
L1.1784 5.4102
" />
<path d="M5.1784 1.4102
L360.8409 1.4102
" />
<path d="M360.8409 136.4727
L5.1784 136.4727
" />
<path d="M364.8409 5.4102
L364.8409 132.4727
" />
<path d="M5.1784 1.4102 A4.0000 4.0000 0.0 0 0 1.1784 5.4102" />
<path d="M1.1784 132.4727 A4.0000 4.0000 0.0 0 0 5.1784 136.4727" />
<path d="M364.8409 5.4102 A4.0000 4.0000 0.0 0 0 360.8409 1.4102" />
<path d="M360.8409 136.4727 A4.0000 4.0000 0.0 0 0 364.8409 132.4727" />
<circle cx="5.1784" cy="5.4102" r="1.1500" /> 
<circle cx="5.1784" cy="68.9415" r="1.1500" /> 
<circle cx="5.1784" cy="132.4727" r="1.1500" /> 
<circle cx="94.0940" cy="5.4102" r="1.1500" /> 
<circle cx="94.0940" cy="132.4727" r="1.1500" /> 
<circle cx="183.0097" cy="5.4102" r="1.1500" /> 
<circle cx="183.0097" cy="132.4727" r="1.1500" /> 
<circle cx="271.9253" cy="5.4102" r="1.1500" /> 
<circle cx="271.9253" cy="132.4727" r="1.1500" /> 
<circle cx="360.8409" cy="5.4102" r="1.1500" /> 
<circle cx="360.8409" cy="68.9415" r="1.1500" /> 
<circle cx="360.8409" cy="132.4727" r="1.1500" /> 
<g >
</g>
<g >
</g>
<g >
</g>
<g >
</g>
<g >
</g>
</g> 
</svg>
