<?xml version="1.0" standalone="no"?>
 <!DOCTYPE svg PUBLIC "-//W3C//DTD SVG 1.1//EN" 
 "http://www.w3.org/Graphics/SVG/1.1/DTD/svg11.dtd"> 
<svg
  xmlns:svg="http://www.w3.org/2000/svg"
  xmlns="http://www.w3.org/2000/svg"
  xmlns:xlink="http://www.w3.org/1999/xlink"
  version="1.1"
  width="38.3794mm" height="35.8902mm" viewBox="0.0000 0.0000 38.3794 35.8902">
<title>SVG Image created as working-brd.svg date 2023/09/21 15:50:29 </title>
  <desc>Image generated by PCBNEW </desc>
<g style="fill:#000000; fill-opacity:1.0000;stroke:#000000; stroke-opacity:1.0000;
stroke-linecap:round; stroke-linejoin:round;"
 transform="translate(0 0) scale(1 1)">
</g>
<g style="fill:#000000; fill-opacity:0.0; 
stroke:#000000; stroke-width:0.0000; stroke-opacity:1; 
stroke-linecap:round; stroke-linejoin:round;">
</g>
<g style="fill:#000000; fill-opacity:1.0000; 
stroke:#000000; stroke-width:0.0212; stroke-opacity:1; 
stroke-linecap:round; stroke-linejoin:round;">
<rect x="-5.000000" y="-5.000000" width="48.395548" height="45.912950" rx="0.000000" />
</g>
<g style="fill:#FFFFFF; fill-opacity:1.0000; 
stroke:#FFFFFF; stroke-width:0.0212; stroke-opacity:1; 
stroke-linecap:round; stroke-linejoin:round;">
<g >
</g>
<g >
</g>
<g >
</g>
<g >
</g>
<g >
</g>
<g style="fill:#B2803A; fill-opacity:1.0000; 
stroke:#B2803A; stroke-width:0.0212; stroke-opacity:1; 
stroke-linecap:round; stroke-linejoin:round;">
</g>
<g style="fill:#B2803A; fill-opacity:1.0000; 
stroke:#B2803A; stroke-width:0.0000; stroke-opacity:1; 
stroke-linecap:round; stroke-linejoin:round;">
<path style="fill:#B2803A; fill-opacity:1.0000; 
stroke:#B2803A; stroke-width:0.0000; stroke-opacity:1; 
stroke-linecap:round; stroke-linejoin:round;fill-rule:evenodd;"
d="M 8.9705,18.1102
8.9705,20.1422
6.9385,20.1422
6.9385,18.1102
Z" /> 
<circle cx="7.9545" cy="16.5862" r="1.0160" /> 
</g>
<g >
</g>
<g style="fill:#B2803A; fill-opacity:1.0000; 
stroke:#B2803A; stroke-width:0.0000; stroke-opacity:1; 
stroke-linecap:round; stroke-linejoin:round;">
<path style="fill:#B2803A; fill-opacity:1.0000; 
stroke:#B2803A; stroke-width:0.0000; stroke-opacity:1; 
stroke-linecap:round; stroke-linejoin:round;fill-rule:evenodd;"
d="M 18.6860,4.7752
16.6540,4.7752
16.6540,2.7432
18.6860,2.7432
Z" /> 
<circle cx="20.2100" cy="3.7592" r="1.0160" /> 
</g>
<g >
</g>
<g style="fill:#B2803A; fill-opacity:1.0000; 
stroke:#B2803A; stroke-width:0.0000; stroke-opacity:1; 
stroke-linecap:round; stroke-linejoin:round;">
<path style="fill:#B2803A; fill-opacity:1.0000; 
stroke:#B2803A; stroke-width:0.0000; stroke-opacity:1; 
stroke-linecap:round; stroke-linejoin:round;fill-rule:evenodd;"
d="M 27.9062,19.8374
27.9062,17.8054
29.9382,17.8054
29.9382,19.8374
Z" /> 
<circle cx="28.9222" cy="21.3614" r="1.0160" /> 
</g>
<g >
</g>
<g >
</g>
<g >
</g>
<g >
</g>
<g >
</g>
<g >
</g>
<g >
</g>
<g >
</g>
<g >
</g>
<g >
</g>
<g >
</g>
<g style="fill:#B2803A; fill-opacity:1.0000; 
stroke:#B2803A; stroke-width:0.0000; stroke-opacity:1; 
stroke-linecap:round; stroke-linejoin:round;">
<circle cx="19.5750" cy="20.6502" r="0.5004" /> 
</g>
<g style="fill:#B2803A; fill-opacity:1.0000; 
stroke:#B2803A; stroke-width:0.0212; stroke-opacity:1; 
stroke-linecap:round; stroke-linejoin:round;">
</g>
<g style="fill:#B2803A; fill-opacity:1.0000; 
stroke:#B2803A; stroke-width:0.0000; stroke-opacity:1; 
stroke-linecap:round; stroke-linejoin:round;">
<circle cx="18.3050" cy="19.3802" r="0.5004" /> 
</g>
<g style="fill:#B2803A; fill-opacity:1.0000; 
stroke:#B2803A; stroke-width:0.0212; stroke-opacity:1; 
stroke-linecap:round; stroke-linejoin:round;">
</g>
<g style="fill:#B2803A; fill-opacity:1.0000; 
stroke:#B2803A; stroke-width:0.0000; stroke-opacity:1; 
stroke-linecap:round; stroke-linejoin:round;">
<circle cx="19.5750" cy="18.1102" r="0.5004" /> 
</g>
<g style="fill:#B2803A; fill-opacity:1.0000; 
stroke:#B2803A; stroke-width:0.0212; stroke-opacity:1; 
stroke-linecap:round; stroke-linejoin:round;">
</g>
<g >
</g>
<g >
</g>
<g >
</g>
<g >
</g>
<g >
</g>
<g style="fill:#121212; fill-opacity:1.0000; 
stroke:#121212; stroke-width:0.0212; stroke-opacity:1; 
stroke-linecap:round; stroke-linejoin:round;">
</g>
<g style="fill:#121212; fill-opacity:1.0000; 
stroke:#121212; stroke-width:0.0000; stroke-opacity:1; 
stroke-linecap:round; stroke-linejoin:round;">
<circle cx="16.0190" cy="13.2842" r="0.3429" /> 
</g>
<g style="fill:#121212; fill-opacity:1.0000; 
stroke:#121212; stroke-width:0.0212; stroke-opacity:1; 
stroke-linecap:round; stroke-linejoin:round;">
</g>
<g style="fill:#121212; fill-opacity:1.0000; 
stroke:#121212; stroke-width:0.0000; stroke-opacity:1; 
stroke-linecap:round; stroke-linejoin:round;">
<circle cx="15.1300" cy="27.5717" r="0.3429" /> 
</g>
<g style="fill:#121212; fill-opacity:1.0000; 
stroke:#121212; stroke-width:0.0212; stroke-opacity:1; 
stroke-linecap:round; stroke-linejoin:round;">
</g>
<g style="fill:#121212; fill-opacity:1.0000; 
stroke:#121212; stroke-width:0.0000; stroke-opacity:1; 
stroke-linecap:round; stroke-linejoin:round;">
<circle cx="20.6545" cy="31.5087" r="0.3429" /> 
</g>
<g style="fill:#121212; fill-opacity:1.0000; 
stroke:#121212; stroke-width:0.0212; stroke-opacity:1; 
stroke-linecap:round; stroke-linejoin:round;">
</g>
<g >
</g>
<g >
</g>
<g style="fill:#B2803A; fill-opacity:1.0000; 
stroke:#B2803A; stroke-width:0.0212; stroke-opacity:1; 
stroke-linecap:round; stroke-linejoin:round;">
<g >
</g>
<g style="fill:#B2803A; fill-opacity:1.0000; 
stroke:#B2803A; stroke-width:0.0000; stroke-opacity:1; 
stroke-linecap:round; stroke-linejoin:round;">
<path style="fill:#B2803A; fill-opacity:1.0000; 
stroke:#B2803A; stroke-width:0.0000; stroke-opacity:1; 
stroke-linecap:round; stroke-linejoin:round;fill-rule:evenodd;"
d="M 32.2556,2.1183
32.2813,2.1628
32.2825,2.1759
32.2825,33.0285
32.2649,33.0768
32.2203,33.1026
32.2073,33.1037
5.9267,33.1037
5.8783,33.0861
5.8526,33.0416
5.8515,33.0285
5.8515,30.6170
6.8908,30.6170
6.9201,30.8581
6.9201,30.8581
6.9877,31.0914
7.0918,31.3109
7.0918,31.3109
7.1627,31.4136
7.2298,31.5108
7.3981,31.6860
7.3981,31.6860
7.5671,31.8130
7.5922,31.8319
7.5922,31.8319
7.5923,31.8319
7.8073,31.9448
7.8073,31.9448
7.8073,31.9448
7.8073,31.9448
8.0377,32.0217
8.2775,32.0607
8.2775,32.0607
8.4596,32.0607
8.4596,32.0607
8.6411,32.0460
8.8769,31.9879
9.1004,31.8927
9.3057,31.7629
9.4875,31.6018
9.6412,31.4136
9.7626,31.2033
9.8488,30.9761
9.8962,30.7440
28.3538,30.7440
28.3831,30.9851
28.3831,30.9851
28.4507,31.2184
28.5037,31.3303
28.5548,31.4379
28.6257,31.5406
28.6928,31.6378
28.8611,31.8130
28.8611,31.8130
29.0365,31.9448
29.0552,31.9589
29.0552,31.9589
29.0553,31.9589
29.2703,32.0718
29.2703,32.0718
29.2703,32.0718
29.2703,32.0718
29.5007,32.1487
29.7405,32.1877
29.7405,32.1877
29.9226,32.1877
29.9226,32.1877
30.1041,32.1730
30.3399,32.1149
30.5634,32.0197
30.7687,31.8899
30.9505,31.7288
31.1042,31.5406
31.2256,31.3303
31.3118,31.1031
31.3604,30.8651
31.3701,30.6224
31.3409,30.3813
31.2733,30.1480
31.2733,30.1480
31.1691,29.9285
31.1691,29.9285
31.0311,29.7286
31.0311,29.7286
31.0311,29.7286
30.8629,29.5534
30.8629,29.5534
30.6687,29.4075
30.6687,29.4075
30.6687,29.4075
30.6687,29.4075
30.6687,29.4075
30.4536,29.2946
30.4536,29.2946
30.2232,29.2177
29.9834,29.1787
29.9834,29.1787
29.8013,29.1787
29.7768,29.1807
29.6198,29.1933
29.6198,29.1933
29.6198,29.1934
29.6198,29.1934
29.6198,29.1934
29.3840,29.2515
29.1605,29.3467
28.9552,29.4765
28.9552,29.4765
28.7734,29.6376
28.7734,29.6376
28.6198,29.8258
28.6198,29.8258
28.4983,30.0361
28.4983,30.0361
28.4122,30.2633
28.4122,30.2633
28.3636,30.5013
28.3587,30.6224
28.3538,30.7440
9.8962,30.7440
9.8974,30.7381
9.9071,30.4954
9.8779,30.2543
9.8103,30.0210
9.8103,30.0210
9.7177,29.8258
9.7061,29.8015
9.5681,29.6016
9.5681,29.6016
9.5681,29.6016
9.3999,29.4264
9.3999,29.4264
9.2057,29.2805
9.2057,29.2805
9.2057,29.2805
9.2057,29.2805
9.2057,29.2805
8.9906,29.1676
8.9906,29.1676
8.7602,29.0907
8.5204,29.0517
8.5204,29.0517
8.3383,29.0517
8.3138,29.0537
8.1568,29.0663
8.1568,29.0663
8.1568,29.0664
8.1568,29.0664
8.1568,29.0664
7.9210,29.1245
7.6975,29.2197
7.4922,29.3495
7.4922,29.3495
7.3104,29.5106
7.3104,29.5106
7.1568,29.6988
7.1568,29.6988
7.0353,29.9091
7.0353,29.9091
6.9492,30.1363
6.9492,30.1363
6.9006,30.3743
6.8957,30.4954
6.8908,30.6170
5.8515,30.6170
5.8515,20.6502
18.8153,20.6502
18.8344,20.8192
18.8344,20.8192
18.8905,20.9798
18.8905,20.9798
18.9810,21.1238
19.1013,21.2441
19.1013,21.2441
19.2454,21.3346
19.4059,21.3908
19.5186,21.4035
19.5750,21.4099
19.5750,21.4099
19.5750,21.4099
19.6172,21.4051
19.7440,21.3908
19.9046,21.3346
20.0486,21.2441
20.1689,21.1238
20.2594,20.9798
20.3156,20.8192
20.3346,20.6502
20.3156,20.4812
20.2594,20.3206
20.1689,20.1766
20.1689,20.1766
20.0486,20.0563
19.9581,19.9994
19.9046,19.9658
19.9046,19.9658
19.7440,19.9096
19.7440,19.9096
19.5750,19.8905
19.5750,19.8905
19.4059,19.9096
19.4059,19.9096
19.2454,19.9658
19.2454,19.9658
19.1013,20.0563
18.9810,20.1766
18.8905,20.3206
18.8905,20.3206
18.8344,20.4812
18.8344,20.4812
18.8153,20.6502
18.8153,20.6502
5.8515,20.6502
5.8515,20.1673
6.6840,20.1673
6.6840,20.1673
6.6858,20.1766
6.6987,20.2415
6.7550,20.3257
6.8392,20.3819
6.9134,20.3967
8.9955,20.3967
8.9955,20.3967
8.9955,20.3967
9.0698,20.3819
9.1539,20.3257
9.2102,20.2415
9.2250,20.1673
9.2250,19.3802
17.5453,19.3802
17.5644,19.5492
17.5644,19.5492
17.6205,19.7098
17.6205,19.7098
17.7110,19.8538
17.8313,19.9741
17.8313,19.9741
17.9754,20.0646
18.1359,20.1208
18.2486,20.1335
18.3050,20.1399
18.3050,20.1399
18.3050,20.1399
18.3472,20.1351
18.4740,20.1208
18.6346,20.0646
18.7786,19.9741
18.8903,19.8625
27.6517,19.8625
27.6517,19.8625
27.6664,19.9367
27.7227,20.0209
27.8069,20.0771
27.8811,20.0919
28.3003,20.0919
28.3487,20.1095
28.3744,20.1540
28.3655,20.2047
28.3321,20.2353
28.2847,20.2573
28.2847,20.2573
28.1027,20.3848
27.9456,20.5419
27.8181,20.7240
27.8181,20.7240
27.7242,20.9254
27.7242,20.9254
27.6667,21.1400
27.6584,21.2344
27.6584,21.2344
28.4300,21.2344
28.4142,21.2884
28.4142,21.4344
28.4300,21.4884
27.6584,21.4884
27.6667,21.5828
27.7242,21.7974
27.7242,21.7974
27.8181,21.9988
27.9456,22.1809
28.1027,22.3380
28.2847,22.4655
28.4861,22.5594
28.4861,22.5594
28.7008,22.6169
28.7008,22.6169
28.7952,22.6251
28.7952,22.6251
28.7952,21.8564
28.8858,21.8694
28.9585,21.8694
29.0492,21.8564
29.0492,22.6251
29.1435,22.6169
29.1435,22.6169
29.3582,22.5594
29.3582,22.5594
29.5596,22.4655
29.7416,22.3380
29.8988,22.1809
30.0262,21.9988
30.1201,21.7974
30.1201,21.7974
30.1776,21.5828
30.1859,21.4884
29.4143,21.4884
29.4302,21.4344
29.4302,21.2884
29.4143,21.2344
30.1859,21.2344
30.1859,21.2344
30.1776,21.1400
30.1201,20.9254
30.1201,20.9254
30.0262,20.7240
30.0262,20.7240
29.8988,20.5419
29.7416,20.3848
29.5596,20.2573
29.5122,20.2353
29.4758,20.1989
29.4714,20.1476
29.5009,20.1055
29.5440,20.0919
29.9632,20.0919
29.9632,20.0919
29.9632,20.0919
30.0375,20.0771
30.1216,20.0209
30.1779,19.9367
30.1927,19.8625
30.1927,17.7803
30.1779,17.7061
30.1216,17.6219
30.0375,17.5657
30.0375,17.5657
29.9632,17.5509
27.8811,17.5509
27.8811,17.5509
27.8069,17.5657
27.7227,17.6219
27.6664,17.7061
27.6664,17.7061
27.6517,17.7803
27.6517,19.8625
18.8903,19.8625
18.8989,19.8538
18.9894,19.7098
19.0456,19.5492
19.0646,19.3802
19.0456,19.2112
18.9894,19.0506
18.8989,18.9066
18.8989,18.9066
18.7786,18.7863
18.6881,18.7294
18.6346,18.6958
18.6346,18.6958
18.4740,18.6396
18.4740,18.6396
18.3050,18.6205
18.3050,18.6205
18.1359,18.6396
18.1359,18.6396
17.9754,18.6958
17.9754,18.6958
17.8313,18.7863
17.7110,18.9066
17.6205,19.0506
17.6205,19.0506
17.5644,19.2112
17.5644,19.2112
17.5453,19.3802
17.5453,19.3802
9.2250,19.3802
9.2250,18.1102
18.8153,18.1102
18.8344,18.2792
18.8344,18.2792
18.8905,18.4398
18.8905,18.4398
18.9810,18.5838
19.1013,18.7041
19.1013,18.7041
19.2454,18.7946
19.4059,18.8508
19.5186,18.8635
19.5750,18.8699
19.5750,18.8699
19.5750,18.8699
19.6172,18.8651
19.7440,18.8508
19.9046,18.7946
20.0486,18.7041
20.1689,18.5838
20.2594,18.4398
20.3156,18.2792
20.3346,18.1102
20.3156,17.9412
20.2594,17.7806
20.1689,17.6366
20.1689,17.6366
20.0486,17.5163
19.9581,17.4594
19.9046,17.4258
19.9046,17.4258
19.7440,17.3696
19.7440,17.3696
19.5750,17.3505
19.5750,17.3505
19.4059,17.3696
19.4059,17.3696
19.2454,17.4258
19.2454,17.4258
19.1013,17.5163
18.9810,17.6366
18.8905,17.7806
18.8905,17.7806
18.8344,17.9412
18.8344,17.9412
18.8153,18.1102
18.8153,18.1102
9.2250,18.1102
9.2250,18.0851
9.2102,18.0109
9.1539,17.9267
9.0698,17.8705
9.0698,17.8705
8.9955,17.8557
8.5763,17.8557
8.5280,17.8381
8.5022,17.7936
8.5112,17.7429
8.5445,17.7123
8.5919,17.6903
8.7739,17.5628
8.9311,17.4057
9.0585,17.2236
9.1524,17.0222
9.1524,17.0222
9.2099,16.8076
9.2182,16.7132
8.4466,16.7132
8.4625,16.6592
8.4625,16.5132
8.4466,16.4592
9.2182,16.4592
9.2182,16.4592
9.2099,16.3648
9.1524,16.1502
9.1524,16.1502
9.0585,15.9488
9.0585,15.9488
8.9311,15.7667
8.7739,15.6096
8.5919,15.4821
8.3905,15.3882
8.3905,15.3882
8.1758,15.3307
8.0815,15.3225
8.0815,16.0912
7.9908,16.0782
7.9181,16.0782
7.8275,16.0912
7.8275,15.3225
7.8275,15.3225
7.7331,15.3307
7.5184,15.3882
7.5184,15.3882
7.3170,15.4821
7.3170,15.4821
7.1350,15.6096
6.9779,15.7667
6.8504,15.9488
6.8504,15.9488
6.7565,16.1502
6.7565,16.1502
6.6990,16.3648
6.6907,16.4592
6.6907,16.4592
7.4623,16.4592
7.4465,16.5132
7.4465,16.6592
7.4623,16.7132
6.6907,16.7132
6.6990,16.8076
6.7565,17.0222
6.7565,17.0222
6.8504,17.2236
6.9779,17.4057
7.1350,17.5628
7.3170,17.6903
7.3644,17.7123
7.4008,17.7487
7.4053,17.8000
7.3758,17.8421
7.3326,17.8557
6.9134,17.8557
6.9134,17.8557
6.8392,17.8705
6.7550,17.9267
6.6987,18.0109
6.6987,18.0109
6.6840,18.0851
6.6840,20.1673
5.8515,20.1673
5.8515,4.6455
6.8273,4.6455
6.8566,4.8866
6.8566,4.8866
6.9242,5.1199
7.0283,5.3394
7.0283,5.3394
7.1572,5.5261
7.1663,5.5393
7.3346,5.7145
7.3346,5.7145
7.4952,5.8352
7.5287,5.8604
7.5287,5.8604
7.5288,5.8604
7.7438,5.9733
7.7438,5.9733
7.7438,5.9733
7.7438,5.9733
7.9742,6.0502
8.2140,6.0892
8.2140,6.0892
8.3961,6.0892
8.3961,6.0892
8.5776,6.0745
8.8134,6.0164
9.0369,5.9212
9.2422,5.7914
9.4240,5.6303
9.5777,5.4421
9.6991,5.2318
9.7157,5.1881
9.7758,5.0297
9.7853,5.0046
9.8270,4.8003
16.3995,4.8003
16.3995,4.8003
16.4142,4.8745
16.4705,4.9587
16.5547,5.0149
16.6289,5.0297
18.7110,5.0297
18.7110,5.0297
18.7110,5.0297
18.7853,5.0149
18.8694,4.9587
18.9257,4.8745
18.9405,4.8003
18.9405,4.3810
18.9581,4.3327
19.0026,4.3070
19.0533,4.3159
19.0838,4.3492
19.1059,4.3966
19.2334,4.5787
19.3905,4.7358
19.5725,4.8633
19.7739,4.9572
19.7739,4.9572
19.9886,5.0147
19.9886,5.0147
20.0830,5.0229
20.0830,5.0229
20.0830,4.2542
20.1736,4.2672
20.2463,4.2672
20.3370,4.2542
20.3370,5.0229
20.4313,5.0147
20.4313,5.0147
20.6460,4.9572
20.6460,4.9572
20.8474,4.8633
21.0294,4.7358
21.1866,4.5787
21.3140,4.3966
21.3164,4.3915
28.2903,4.3915
28.3196,4.6326
28.3196,4.6326
28.3872,4.8659
28.4649,5.0297
28.4913,5.0854
28.5622,5.1881
28.6293,5.2853
28.7976,5.4605
28.7976,5.4605
28.9024,5.5393
28.9917,5.6064
28.9917,5.6064
28.9918,5.6064
29.2068,5.7193
29.2068,5.7193
29.2068,5.7193
29.2068,5.7193
29.4372,5.7962
29.6770,5.8352
29.6770,5.8352
29.8591,5.8352
29.8591,5.8352
30.0406,5.8205
30.2764,5.7624
30.4999,5.6672
30.7052,5.5374
30.8870,5.3763
31.0407,5.1881
31.1621,4.9778
31.1694,4.9587
31.2056,4.8633
31.2483,4.7506
31.2969,4.5126
31.3066,4.2699
31.2774,4.0288
31.2098,3.7955
31.2098,3.7955
31.1056,3.5760
31.1056,3.5760
30.9676,3.3761
30.9676,3.3761
30.9676,3.3761
30.7994,3.2009
30.7994,3.2009
30.6052,3.0550
30.6052,3.0550
30.6052,3.0550
30.6052,3.0550
30.6052,3.0550
30.3901,2.9421
30.3901,2.9421
30.1597,2.8652
29.9199,2.8262
29.9199,2.8262
29.7378,2.8262
29.7133,2.8282
29.5563,2.8408
29.5563,2.8408
29.5563,2.8409
29.5563,2.8409
29.5563,2.8409
29.3205,2.8990
29.0970,2.9942
28.8917,3.1240
28.8917,3.1240
28.7099,3.2851
28.7099,3.2851
28.5563,3.4733
28.5563,3.4733
28.4348,3.6836
28.4348,3.6836
28.3487,3.9108
28.3487,3.9108
28.3001,4.1488
28.2927,4.3327
28.2903,4.3915
21.3164,4.3915
21.4079,4.1952
21.4079,4.1952
21.4654,3.9806
21.4737,3.8862
20.7021,3.8862
20.7180,3.8322
20.7180,3.6862
20.7021,3.6322
21.4737,3.6322
21.4737,3.6322
21.4654,3.5378
21.4079,3.3232
21.4079,3.3232
21.3140,3.1218
21.3140,3.1218
21.1866,2.9397
21.0294,2.7826
20.8474,2.6551
20.6460,2.5612
20.6460,2.5612
20.4313,2.5037
20.3370,2.4955
20.3370,3.2642
20.2463,3.2512
20.1736,3.2512
20.0830,3.2642
20.0830,2.4955
20.0830,2.4955
19.9886,2.5037
19.7739,2.5612
19.7739,2.5612
19.5725,2.6551
19.5725,2.6551
19.3905,2.7826
19.2334,2.9397
19.1059,3.1218
19.1059,3.1218
19.0838,3.1692
19.0474,3.2055
18.9962,3.2100
18.9541,3.1805
18.9405,3.1374
18.9405,2.7181
18.9405,2.7181
18.9257,2.6439
18.8694,2.5597
18.7853,2.5035
18.7853,2.5035
18.7110,2.4887
16.6289,2.4887
16.6289,2.4887
16.5547,2.5035
16.4705,2.5597
16.4142,2.6439
16.4142,2.6439
16.3995,2.7181
16.3995,4.8003
9.8270,4.8003
9.8339,4.7666
9.8436,4.5239
9.8144,4.2828
9.7468,4.0495
9.7468,4.0495
9.6426,3.8300
9.6426,3.8300
9.5046,3.6301
9.5046,3.6301
9.5046,3.6301
9.3364,3.4549
9.3364,3.4549
9.1422,3.3090
9.1422,3.3090
9.1422,3.3090
9.1422,3.3090
9.1422,3.3090
8.9271,3.1961
8.9271,3.1961
8.6967,3.1192
8.4569,3.0802
8.4569,3.0802
8.2748,3.0802
8.2503,3.0822
8.0933,3.0948
8.0933,3.0948
8.0933,3.0949
8.0933,3.0949
8.0933,3.0949
7.8575,3.1530
7.6340,3.2482
7.4287,3.3780
7.4287,3.3780
7.2469,3.5391
7.2469,3.5391
7.0933,3.7273
7.0933,3.7273
6.9718,3.9376
6.9718,3.9376
6.8857,4.1648
6.8857,4.1648
6.8371,4.4028
6.8278,4.6326
6.8273,4.6455
5.8515,4.6455
5.8515,2.1759
5.8691,2.1276
5.9136,2.1018
5.9267,2.1007
32.2073,2.1007
Z" /> 
</g>
</g>
</g>
<g style="fill:#000000; fill-opacity:1.0000; 
stroke:#000000; stroke-width:0.0000; stroke-opacity:1; 
stroke-linecap:round; stroke-linejoin:round;">
<circle cx="16.0190" cy="13.2842" r="0.1651" /> 
</g>
<g style="fill:#000000; fill-opacity:1.0000; 
stroke:#000000; stroke-width:0.0212; stroke-opacity:1; 
stroke-linecap:round; stroke-linejoin:round;">
</g>
<g style="fill:#000000; fill-opacity:1.0000; 
stroke:#000000; stroke-width:0.0000; stroke-opacity:1; 
stroke-linecap:round; stroke-linejoin:round;">
<circle cx="15.1300" cy="27.5717" r="0.1651" /> 
</g>
<g style="fill:#000000; fill-opacity:1.0000; 
stroke:#000000; stroke-width:0.0212; stroke-opacity:1; 
stroke-linecap:round; stroke-linejoin:round;">
</g>
<g style="fill:#000000; fill-opacity:1.0000; 
stroke:#000000; stroke-width:0.0000; stroke-opacity:1; 
stroke-linecap:round; stroke-linejoin:round;">
<circle cx="20.6545" cy="31.5087" r="0.1651" /> 
</g>
<g style="fill:#000000; fill-opacity:1.0000; 
stroke:#000000; stroke-width:0.0212; stroke-opacity:1; 
stroke-linecap:round; stroke-linejoin:round;">
</g>
<g style="fill:#000000; fill-opacity:1.0000; 
stroke:#000000; stroke-width:0.0000; stroke-opacity:1; 
stroke-linecap:round; stroke-linejoin:round;">
<circle cx="7.9545" cy="19.1262" r="0.5080" /> 
</g>
<g style="fill:#000000; fill-opacity:1.0000; 
stroke:#000000; stroke-width:0.0212; stroke-opacity:1; 
stroke-linecap:round; stroke-linejoin:round;">
</g>
<g style="fill:#000000; fill-opacity:1.0000; 
stroke:#000000; stroke-width:0.0000; stroke-opacity:1; 
stroke-linecap:round; stroke-linejoin:round;">
<circle cx="7.9545" cy="16.5862" r="0.5080" /> 
</g>
<g style="fill:#000000; fill-opacity:1.0000; 
stroke:#000000; stroke-width:0.0212; stroke-opacity:1; 
stroke-linecap:round; stroke-linejoin:round;">
</g>
<g style="fill:#000000; fill-opacity:1.0000; 
stroke:#000000; stroke-width:0.0000; stroke-opacity:1; 
stroke-linecap:round; stroke-linejoin:round;">
<circle cx="17.6700" cy="3.7592" r="0.5080" /> 
</g>
<g style="fill:#000000; fill-opacity:1.0000; 
stroke:#000000; stroke-width:0.0212; stroke-opacity:1; 
stroke-linecap:round; stroke-linejoin:round;">
</g>
<g style="fill:#000000; fill-opacity:1.0000; 
stroke:#000000; stroke-width:0.0000; stroke-opacity:1; 
stroke-linecap:round; stroke-linejoin:round;">
<circle cx="20.2100" cy="3.7592" r="0.5080" /> 
</g>
<g style="fill:#000000; fill-opacity:1.0000; 
stroke:#000000; stroke-width:0.0212; stroke-opacity:1; 
stroke-linecap:round; stroke-linejoin:round;">
</g>
<g style="fill:#000000; fill-opacity:1.0000; 
stroke:#000000; stroke-width:0.0000; stroke-opacity:1; 
stroke-linecap:round; stroke-linejoin:round;">
<circle cx="28.9222" cy="18.8214" r="0.5080" /> 
</g>
<g style="fill:#000000; fill-opacity:1.0000; 
stroke:#000000; stroke-width:0.0212; stroke-opacity:1; 
stroke-linecap:round; stroke-linejoin:round;">
</g>
<g style="fill:#000000; fill-opacity:1.0000; 
stroke:#000000; stroke-width:0.0000; stroke-opacity:1; 
stroke-linecap:round; stroke-linejoin:round;">
<circle cx="28.9222" cy="21.3614" r="0.5080" /> 
</g>
<g style="fill:#000000; fill-opacity:1.0000; 
stroke:#000000; stroke-width:0.0212; stroke-opacity:1; 
stroke-linecap:round; stroke-linejoin:round;">
</g>
<g style="fill:#000000; fill-opacity:1.0000; 
stroke:#000000; stroke-width:0.0000; stroke-opacity:1; 
stroke-linecap:round; stroke-linejoin:round;">
<circle cx="19.5750" cy="20.6502" r="0.3000" /> 
</g>
<g style="fill:#000000; fill-opacity:1.0000; 
stroke:#000000; stroke-width:0.0212; stroke-opacity:1; 
stroke-linecap:round; stroke-linejoin:round;">
</g>
<g style="fill:#000000; fill-opacity:1.0000; 
stroke:#000000; stroke-width:0.0000; stroke-opacity:1; 
stroke-linecap:round; stroke-linejoin:round;">
<circle cx="18.3050" cy="19.3802" r="0.3000" /> 
</g>
<g style="fill:#000000; fill-opacity:1.0000; 
stroke:#000000; stroke-width:0.0212; stroke-opacity:1; 
stroke-linecap:round; stroke-linejoin:round;">
</g>
<g style="fill:#000000; fill-opacity:1.0000; 
stroke:#000000; stroke-width:0.0000; stroke-opacity:1; 
stroke-linecap:round; stroke-linejoin:round;">
<circle cx="19.5750" cy="18.1102" r="0.3000" /> 
</g>
<g style="fill:#000000; fill-opacity:1.0000; 
stroke:#000000; stroke-width:0.0212; stroke-opacity:1; 
stroke-linecap:round; stroke-linejoin:round;">
</g>
<g style="fill:#000000; fill-opacity:1.0000; 
stroke:#000000; stroke-width:0.0000; stroke-opacity:1; 
stroke-linecap:round; stroke-linejoin:round;">
<circle cx="29.7985" cy="4.3307" r="1.2500" /> 
</g>
<g style="fill:#000000; fill-opacity:1.0000; 
stroke:#000000; stroke-width:0.0212; stroke-opacity:1; 
stroke-linecap:round; stroke-linejoin:round;">
</g>
<g style="fill:#000000; fill-opacity:1.0000; 
stroke:#000000; stroke-width:0.0000; stroke-opacity:1; 
stroke-linecap:round; stroke-linejoin:round;">
<circle cx="8.3355" cy="4.5847" r="1.2500" /> 
</g>
<g style="fill:#000000; fill-opacity:1.0000; 
stroke:#000000; stroke-width:0.0212; stroke-opacity:1; 
stroke-linecap:round; stroke-linejoin:round;">
</g>
<g style="fill:#000000; fill-opacity:1.0000; 
stroke:#000000; stroke-width:0.0000; stroke-opacity:1; 
stroke-linecap:round; stroke-linejoin:round;">
<circle cx="8.3990" cy="30.5562" r="1.2500" /> 
</g>
<g style="fill:#000000; fill-opacity:1.0000; 
stroke:#000000; stroke-width:0.0212; stroke-opacity:1; 
stroke-linecap:round; stroke-linejoin:round;">
</g>
<g style="fill:#000000; fill-opacity:1.0000; 
stroke:#000000; stroke-width:0.0000; stroke-opacity:1; 
stroke-linecap:round; stroke-linejoin:round;">
<circle cx="29.8620" cy="30.6832" r="1.2500" /> 
</g>
<g style="fill:#000000; fill-opacity:1.0000; 
stroke:#000000; stroke-width:0.0212; stroke-opacity:1; 
stroke-linecap:round; stroke-linejoin:round;">
</g>
<g style="fill:#FFFFFF; fill-opacity:1.0000; 
stroke:#FFFFFF; stroke-width:0.0212; stroke-opacity:1; 
stroke-linecap:round; stroke-linejoin:round;">
<g >
</g>
<g style="fill:#37CBCB; fill-opacity:1.0000; 
stroke:#37CBCB; stroke-width:0.0212; stroke-opacity:1; 
stroke-linecap:round; stroke-linejoin:round;">
</g>
<g style="fill:#37CBCB; fill-opacity:1.0000; 
stroke:#37CBCB; stroke-width:0.0000; stroke-opacity:1; 
stroke-linecap:round; stroke-linejoin:round;">
<path style="fill:#37CBCB; fill-opacity:1.0000; 
stroke:#37CBCB; stroke-width:0.0000; stroke-opacity:1; 
stroke-linecap:round; stroke-linejoin:round;fill-rule:evenodd;"
d="M 12.5420,22.1942
12.5420,24.6942
10.5420,24.6942
10.5420,22.1942
Z" /> 
<path style="fill:#37CBCB; fill-opacity:1.0000; 
stroke:#37CBCB; stroke-width:0.0000; stroke-opacity:1; 
stroke-linecap:round; stroke-linejoin:round;fill-rule:evenodd;"
d="M 8.5420,22.1942
8.5420,24.6942
6.5420,24.6942
6.5420,22.1942
Z" /> 
</g>
<g >
</g>
<g style="fill:#37CBCB; fill-opacity:1.0000; 
stroke:#37CBCB; stroke-width:0.0000; stroke-opacity:1; 
stroke-linecap:round; stroke-linejoin:round;">
<path style="fill:#37CBCB; fill-opacity:1.0000; 
stroke:#37CBCB; stroke-width:0.0000; stroke-opacity:1; 
stroke-linecap:round; stroke-linejoin:round;fill-rule:evenodd;"
d="M 27.6550,25.2422
27.6550,27.7422
25.6550,27.7422
25.6550,25.2422
Z" /> 
<path style="fill:#37CBCB; fill-opacity:1.0000; 
stroke:#37CBCB; stroke-width:0.0000; stroke-opacity:1; 
stroke-linecap:round; stroke-linejoin:round;fill-rule:evenodd;"
d="M 23.6550,25.2422
23.6550,27.7422
21.6550,27.7422
21.6550,25.2422
Z" /> 
</g>
<g >
</g>
<g style="fill:#37CBCB; fill-opacity:1.0000; 
stroke:#37CBCB; stroke-width:0.0000; stroke-opacity:1; 
stroke-linecap:round; stroke-linejoin:round;">
<path style="fill:#37CBCB; fill-opacity:1.0000; 
stroke:#37CBCB; stroke-width:0.0000; stroke-opacity:1; 
stroke-linecap:round; stroke-linejoin:round;fill-rule:evenodd;"
d="M 17.2182,12.0678
14.7182,12.0678
14.7182,10.0678
17.2182,10.0678
Z" /> 
<path style="fill:#37CBCB; fill-opacity:1.0000; 
stroke:#37CBCB; stroke-width:0.0000; stroke-opacity:1; 
stroke-linecap:round; stroke-linejoin:round;fill-rule:evenodd;"
d="M 17.2182,8.0678
14.7182,8.0678
14.7182,6.0678
17.2182,6.0678
Z" /> 
</g>
<g >
</g>
<g style="fill:#37CBCB; fill-opacity:1.0000; 
stroke:#37CBCB; stroke-width:0.0000; stroke-opacity:1; 
stroke-linecap:round; stroke-linejoin:round;">
<path style="fill:#37CBCB; fill-opacity:1.0000; 
stroke:#37CBCB; stroke-width:0.0000; stroke-opacity:1; 
stroke-linecap:round; stroke-linejoin:round;fill-rule:evenodd;"
d="M 29.9410,10.0530
29.9410,12.5530
27.9410,12.5530
27.9410,10.0530
Z" /> 
<path style="fill:#37CBCB; fill-opacity:1.0000; 
stroke:#37CBCB; stroke-width:0.0000; stroke-opacity:1; 
stroke-linecap:round; stroke-linejoin:round;fill-rule:evenodd;"
d="M 25.9410,10.0530
25.9410,12.5530
23.9410,12.5530
23.9410,10.0530
Z" /> 
</g>
<g >
</g>
<g style="fill:#37CBCB; fill-opacity:1.0000; 
stroke:#37CBCB; stroke-width:0.0000; stroke-opacity:1; 
stroke-linecap:round; stroke-linejoin:round;">
<path style="fill:#37CBCB; fill-opacity:1.0000; 
stroke:#37CBCB; stroke-width:0.0000; stroke-opacity:1; 
stroke-linecap:round; stroke-linejoin:round;fill-rule:evenodd;"
d="M 8.9705,18.1102
8.9705,20.1422
6.9385,20.1422
6.9385,18.1102
Z" /> 
<circle cx="7.9545" cy="16.5862" r="1.0160" /> 
</g>
<g >
</g>
<g style="fill:#37CBCB; fill-opacity:1.0000; 
stroke:#37CBCB; stroke-width:0.0000; stroke-opacity:1; 
stroke-linecap:round; stroke-linejoin:round;">
<path style="fill:#37CBCB; fill-opacity:1.0000; 
stroke:#37CBCB; stroke-width:0.0000; stroke-opacity:1; 
stroke-linecap:round; stroke-linejoin:round;fill-rule:evenodd;"
d="M 18.6860,4.7752
16.6540,4.7752
16.6540,2.7432
18.6860,2.7432
Z" /> 
<circle cx="20.2100" cy="3.7592" r="1.0160" /> 
</g>
<g >
</g>
<g style="fill:#37CBCB; fill-opacity:1.0000; 
stroke:#37CBCB; stroke-width:0.0000; stroke-opacity:1; 
stroke-linecap:round; stroke-linejoin:round;">
<path style="fill:#37CBCB; fill-opacity:1.0000; 
stroke:#37CBCB; stroke-width:0.0000; stroke-opacity:1; 
stroke-linecap:round; stroke-linejoin:round;fill-rule:evenodd;"
d="M 27.9062,19.8374
27.9062,17.8054
29.9382,17.8054
29.9382,19.8374
Z" /> 
<circle cx="28.9222" cy="21.3614" r="1.0160" /> 
</g>
<g >
</g>
<g style="fill:#37CBCB; fill-opacity:1.0000; 
stroke:#37CBCB; stroke-width:0.0000; stroke-opacity:1; 
stroke-linecap:round; stroke-linejoin:round;">
<path style="fill:#37CBCB; fill-opacity:1.0000; 
stroke:#37CBCB; stroke-width:0.0000; stroke-opacity:1; 
stroke-linecap:round; stroke-linejoin:round;fill-rule:evenodd;"
d="M 11.0002,11.4382
12.3002,11.4382
12.3002,12.9382
11.0002,12.9382
Z" /> 
<path style="fill:#37CBCB; fill-opacity:1.0000; 
stroke:#37CBCB; stroke-width:0.0000; stroke-opacity:1; 
stroke-linecap:round; stroke-linejoin:round;fill-rule:evenodd;"
d="M 11.0002,14.1382
12.3002,14.1382
12.3002,15.6382
11.0002,15.6382
Z" /> 
</g>
<g >
</g>
<g style="fill:#37CBCB; fill-opacity:1.0000; 
stroke:#37CBCB; stroke-width:0.0000; stroke-opacity:1; 
stroke-linecap:round; stroke-linejoin:round;">
<path style="fill:#37CBCB; fill-opacity:1.0000; 
stroke:#37CBCB; stroke-width:0.0000; stroke-opacity:1; 
stroke-linecap:round; stroke-linejoin:round;fill-rule:evenodd;"
d="M 14.5435,22.1062
15.8435,22.1062
15.8435,23.6062
14.5435,23.6062
Z" /> 
<path style="fill:#37CBCB; fill-opacity:1.0000; 
stroke:#37CBCB; stroke-width:0.0000; stroke-opacity:1; 
stroke-linecap:round; stroke-linejoin:round;fill-rule:evenodd;"
d="M 14.5435,24.8062
15.8435,24.8062
15.8435,26.3062
14.5435,26.3062
Z" /> 
</g>
<g >
</g>
<g style="fill:#37CBCB; fill-opacity:1.0000; 
stroke:#37CBCB; stroke-width:0.0000; stroke-opacity:1; 
stroke-linecap:round; stroke-linejoin:round;">
<path style="fill:#37CBCB; fill-opacity:1.0000; 
stroke:#37CBCB; stroke-width:0.0000; stroke-opacity:1; 
stroke-linecap:round; stroke-linejoin:round;fill-rule:evenodd;"
d="M 15.1218,16.9522
15.1218,18.2522
13.6218,18.2522
13.6218,16.9522
Z" /> 
<path style="fill:#37CBCB; fill-opacity:1.0000; 
stroke:#37CBCB; stroke-width:0.0000; stroke-opacity:1; 
stroke-linecap:round; stroke-linejoin:round;fill-rule:evenodd;"
d="M 12.4218,16.9522
12.4218,18.2522
10.9218,18.2522
10.9218,16.9522
Z" /> 
</g>
<g >
</g>
<g style="fill:#37CBCB; fill-opacity:1.0000; 
stroke:#37CBCB; stroke-width:0.0000; stroke-opacity:1; 
stroke-linecap:round; stroke-linejoin:round;">
<path style="fill:#37CBCB; fill-opacity:1.0000; 
stroke:#37CBCB; stroke-width:0.0000; stroke-opacity:1; 
stroke-linecap:round; stroke-linejoin:round;fill-rule:evenodd;"
d="M 19.8902,6.3074
21.1902,6.3074
21.1902,7.8074
19.8902,7.8074
Z" /> 
<path style="fill:#37CBCB; fill-opacity:1.0000; 
stroke:#37CBCB; stroke-width:0.0000; stroke-opacity:1; 
stroke-linecap:round; stroke-linejoin:round;fill-rule:evenodd;"
d="M 19.8902,9.0074
21.1902,9.0074
21.1902,10.5074
19.8902,10.5074
Z" /> 
</g>
<g >
</g>
<g style="fill:#37CBCB; fill-opacity:1.0000; 
stroke:#37CBCB; stroke-width:0.0000; stroke-opacity:1; 
stroke-linecap:round; stroke-linejoin:round;">
<path style="fill:#37CBCB; fill-opacity:1.0000; 
stroke:#37CBCB; stroke-width:0.0000; stroke-opacity:1; 
stroke-linecap:round; stroke-linejoin:round;fill-rule:evenodd;"
d="M 21.2410,15.8922
19.9410,15.8922
19.9410,14.3922
21.2410,14.3922
Z" /> 
<path style="fill:#37CBCB; fill-opacity:1.0000; 
stroke:#37CBCB; stroke-width:0.0000; stroke-opacity:1; 
stroke-linecap:round; stroke-linejoin:round;fill-rule:evenodd;"
d="M 21.2410,13.1922
19.9410,13.1922
19.9410,11.6922
21.2410,11.6922
Z" /> 
</g>
<g >
</g>
<g style="fill:#37CBCB; fill-opacity:1.0000; 
stroke:#37CBCB; stroke-width:0.0000; stroke-opacity:1; 
stroke-linecap:round; stroke-linejoin:round;">
<path style="fill:#37CBCB; fill-opacity:1.0000; 
stroke:#37CBCB; stroke-width:0.0000; stroke-opacity:1; 
stroke-linecap:round; stroke-linejoin:round;fill-rule:evenodd;"
d="M 19.5138,26.9666
18.2138,26.9666
18.2138,25.4666
19.5138,25.4666
Z" /> 
<path style="fill:#37CBCB; fill-opacity:1.0000; 
stroke:#37CBCB; stroke-width:0.0000; stroke-opacity:1; 
stroke-linecap:round; stroke-linejoin:round;fill-rule:evenodd;"
d="M 19.5138,24.2666
18.2138,24.2666
18.2138,22.7666
19.5138,22.7666
Z" /> 
</g>
<g >
</g>
<g style="fill:#37CBCB; fill-opacity:1.0000; 
stroke:#37CBCB; stroke-width:0.0000; stroke-opacity:1; 
stroke-linecap:round; stroke-linejoin:round;">
<path style="fill:#37CBCB; fill-opacity:1.0000; 
stroke:#37CBCB; stroke-width:0.0000; stroke-opacity:1; 
stroke-linecap:round; stroke-linejoin:round;fill-rule:evenodd;"
d="M 18.2138,28.0498
19.5138,28.0498
19.5138,29.5498
18.2138,29.5498
Z" /> 
<path style="fill:#37CBCB; fill-opacity:1.0000; 
stroke:#37CBCB; stroke-width:0.0000; stroke-opacity:1; 
stroke-linecap:round; stroke-linejoin:round;fill-rule:evenodd;"
d="M 18.2138,30.7498
19.5138,30.7498
19.5138,32.2498
18.2138,32.2498
Z" /> 
</g>
<g >
</g>
<g style="fill:#37CBCB; fill-opacity:1.0000; 
stroke:#37CBCB; stroke-width:0.0000; stroke-opacity:1; 
stroke-linecap:round; stroke-linejoin:round;">
<circle cx="13.2250" cy="31.2547" r="1.4999" /> 
</g>
<g style="fill:#37CBCB; fill-opacity:1.0000; 
stroke:#37CBCB; stroke-width:0.0212; stroke-opacity:1; 
stroke-linecap:round; stroke-linejoin:round;">
</g>
<g >
</g>
<g style="fill:#37CBCB; fill-opacity:1.0000; 
stroke:#37CBCB; stroke-width:0.0212; stroke-opacity:1; 
stroke-linecap:round; stroke-linejoin:round;">
</g>
<g style="fill:#37CBCB; fill-opacity:1.0000; 
stroke:#37CBCB; stroke-width:0.0000; stroke-opacity:1; 
stroke-linecap:round; stroke-linejoin:round;">
<circle cx="12.9710" cy="4.0767" r="1.4999" /> 
</g>
<g style="fill:#37CBCB; fill-opacity:1.0000; 
stroke:#37CBCB; stroke-width:0.0212; stroke-opacity:1; 
stroke-linecap:round; stroke-linejoin:round;">
</g>
<g >
</g>
<g style="fill:#37CBCB; fill-opacity:1.0000; 
stroke:#37CBCB; stroke-width:0.0212; stroke-opacity:1; 
stroke-linecap:round; stroke-linejoin:round;">
</g>
<g style="fill:#37CBCB; fill-opacity:1.0000; 
stroke:#37CBCB; stroke-width:0.0000; stroke-opacity:1; 
stroke-linecap:round; stroke-linejoin:round;">
<circle cx="25.4170" cy="7.4422" r="1.4999" /> 
</g>
<g style="fill:#37CBCB; fill-opacity:1.0000; 
stroke:#37CBCB; stroke-width:0.0212; stroke-opacity:1; 
stroke-linecap:round; stroke-linejoin:round;">
</g>
<g >
</g>
<g style="fill:#37CBCB; fill-opacity:1.0000; 
stroke:#37CBCB; stroke-width:0.0212; stroke-opacity:1; 
stroke-linecap:round; stroke-linejoin:round;">
</g>
<g style="fill:#37CBCB; fill-opacity:1.0000; 
stroke:#37CBCB; stroke-width:0.0000; stroke-opacity:1; 
stroke-linecap:round; stroke-linejoin:round;">
<circle cx="19.5750" cy="20.6502" r="0.5004" /> 
</g>
<g style="fill:#37CBCB; fill-opacity:1.0000; 
stroke:#37CBCB; stroke-width:0.0212; stroke-opacity:1; 
stroke-linecap:round; stroke-linejoin:round;">
</g>
<g style="fill:#37CBCB; fill-opacity:1.0000; 
stroke:#37CBCB; stroke-width:0.0000; stroke-opacity:1; 
stroke-linecap:round; stroke-linejoin:round;">
<circle cx="18.3050" cy="19.3802" r="0.5004" /> 
</g>
<g style="fill:#37CBCB; fill-opacity:1.0000; 
stroke:#37CBCB; stroke-width:0.0212; stroke-opacity:1; 
stroke-linecap:round; stroke-linejoin:round;">
</g>
<g style="fill:#37CBCB; fill-opacity:1.0000; 
stroke:#37CBCB; stroke-width:0.0000; stroke-opacity:1; 
stroke-linecap:round; stroke-linejoin:round;">
<circle cx="19.5750" cy="18.1102" r="0.5004" /> 
</g>
<g style="fill:#37CBCB; fill-opacity:1.0000; 
stroke:#37CBCB; stroke-width:0.0212; stroke-opacity:1; 
stroke-linecap:round; stroke-linejoin:round;">
</g>
<g >
</g>
<g >
</g>
<g >
</g>
<g >
</g>
<g >
</g>
<g style="fill:#121212; fill-opacity:1.0000; 
stroke:#121212; stroke-width:0.0212; stroke-opacity:1; 
stroke-linecap:round; stroke-linejoin:round;">
</g>
<g style="fill:#121212; fill-opacity:1.0000; 
stroke:#121212; stroke-width:0.0000; stroke-opacity:1; 
stroke-linecap:round; stroke-linejoin:round;">
<circle cx="16.0190" cy="13.2842" r="0.3429" /> 
</g>
<g style="fill:#121212; fill-opacity:1.0000; 
stroke:#121212; stroke-width:0.0212; stroke-opacity:1; 
stroke-linecap:round; stroke-linejoin:round;">
</g>
<g style="fill:#121212; fill-opacity:1.0000; 
stroke:#121212; stroke-width:0.0000; stroke-opacity:1; 
stroke-linecap:round; stroke-linejoin:round;">
<circle cx="15.1300" cy="27.5717" r="0.3429" /> 
</g>
<g style="fill:#121212; fill-opacity:1.0000; 
stroke:#121212; stroke-width:0.0212; stroke-opacity:1; 
stroke-linecap:round; stroke-linejoin:round;">
</g>
<g style="fill:#121212; fill-opacity:1.0000; 
stroke:#121212; stroke-width:0.0000; stroke-opacity:1; 
stroke-linecap:round; stroke-linejoin:round;">
<circle cx="20.6545" cy="31.5087" r="0.3429" /> 
</g>
<g style="fill:#121212; fill-opacity:1.0000; 
stroke:#121212; stroke-width:0.0212; stroke-opacity:1; 
stroke-linecap:round; stroke-linejoin:round;">
</g>
<g >
</g>
<g style="fill:#37CBCB; fill-opacity:1.0000; 
stroke:#37CBCB; stroke-width:0.0212; stroke-opacity:1; 
stroke-linecap:round; stroke-linejoin:round;">
</g>
<g style="fill:#37CBCB; fill-opacity:1.0000; 
stroke:#37CBCB; stroke-width:0.2540; stroke-opacity:1; 
stroke-linecap:round; stroke-linejoin:round;">
</g>
<g style="fill:#37CBCB; fill-opacity:0.0; 
stroke:#37CBCB; stroke-width:0.2540; stroke-opacity:1; 
stroke-linecap:round; stroke-linejoin:round;">
<path d="M11.7518 17.6822
L11.6718 17.6022
" />
<path d="M11.6502 17.5806
L11.6718 17.6022
" />
</g>
<g style="fill:#37CBCB; fill-opacity:0.0; 
stroke:#37CBCB; stroke-width:0.6096; stroke-opacity:1; 
stroke-linecap:round; stroke-linejoin:round;">
<path d="M11.5420 17.7320
L11.6718 17.6022
" />
<path d="M12.1300 22.8562
L11.5420 23.4442
" />
<path d="M15.1935 22.8562
L12.1300 22.8562
" />
<path d="M11.6502 14.8882
L11.6502 17.5806
" />
<path d="M11.5420 23.4442
L11.5420 17.7320
" />
<path d="M7.9545 23.0317
L7.5420 23.4442
" />
<path d="M13.2250 29.1592
L10.4945 26.4287
" />
<path d="M10.4945 26.4287
L8.6530 26.4287
" />
<path d="M8.6530 26.4287
L7.5420 25.3177
" />
<path d="M7.5420 25.3177
L7.5420 23.4442
" />
<path d="M13.2250 31.2547
L13.2250 29.1592
" />
<path d="M7.9545 19.1262
L7.9545 23.0317
" />
</g>
<g style="fill:#37CBCB; fill-opacity:0.0; 
stroke:#37CBCB; stroke-width:0.2540; stroke-opacity:1; 
stroke-linecap:round; stroke-linejoin:round;">
<path d="M15.9682 13.2334
L16.0190 13.2842
" />
</g>
<g style="fill:#37CBCB; fill-opacity:0.0; 
stroke:#37CBCB; stroke-width:0.6096; stroke-opacity:1; 
stroke-linecap:round; stroke-linejoin:round;">
<path d="M27.7030 26.4922
L28.9222 25.2730
" />
<path d="M28.9222 25.2730
L28.9222 21.3614
" />
<path d="M20.6456 31.4998
L20.6545 31.5087
" />
<path d="M15.1935 27.5082
L15.1300 27.5717
" />
<path d="M18.8638 31.4998
L20.6456 31.4998
" />
</g>
<g style="fill:#37CBCB; fill-opacity:0.0; 
stroke:#37CBCB; stroke-width:0.2540; stroke-opacity:1; 
stroke-linecap:round; stroke-linejoin:round;">
<path d="M26.6550 26.4922
L27.7030 26.4922
" />
</g>
<g style="fill:#37CBCB; fill-opacity:0.0; 
stroke:#37CBCB; stroke-width:0.6096; stroke-opacity:1; 
stroke-linecap:round; stroke-linejoin:round;">
<path d="M15.1935 25.5562
L15.1935 27.5082
" />
<path d="M15.9682 11.0678
L15.9682 13.2334
" />
<path d="M20.5910 26.4922
L20.3154 26.2166
" />
<path d="M20.3154 26.2166
L18.8638 26.2166
" />
<path d="M22.6550 26.4922
L20.5910 26.4922
" />
</g>
<g style="fill:#37CBCB; fill-opacity:0.0; 
stroke:#37CBCB; stroke-width:0.2540; stroke-opacity:1; 
stroke-linecap:round; stroke-linejoin:round;">
<path d="M18.8638 26.2166
L18.8638 28.7998
" />
<path d="M28.9410 18.8026
L28.9222 18.8214
" />
</g>
<g style="fill:#37CBCB; fill-opacity:0.0; 
stroke:#37CBCB; stroke-width:0.6096; stroke-opacity:1; 
stroke-linecap:round; stroke-linejoin:round;">
<path d="M27.6395 7.4422
L28.9410 8.7437
" />
<path d="M28.9410 8.7437
L28.9410 11.3030
" />
<path d="M28.9410 11.3030
L28.9410 18.8026
" />
<path d="M25.4170 7.4422
L27.6395 7.4422
" />
</g>
<g style="fill:#37CBCB; fill-opacity:0.0; 
stroke:#37CBCB; stroke-width:0.2540; stroke-opacity:1; 
stroke-linecap:round; stroke-linejoin:round;">
<path d="M20.5402 12.3914
L20.5910 12.4422
" />
</g>
<g style="fill:#37CBCB; fill-opacity:0.0; 
stroke:#37CBCB; stroke-width:0.6096; stroke-opacity:1; 
stroke-linecap:round; stroke-linejoin:round;">
<path d="M20.5402 11.3030
L20.5910 11.2522
" />
</g>
<g style="fill:#37CBCB; fill-opacity:0.0; 
stroke:#37CBCB; stroke-width:0.2540; stroke-opacity:1; 
stroke-linecap:round; stroke-linejoin:round;">
<path d="M20.5910 11.2522
L20.5402 11.2522
" />
</g>
<g style="fill:#37CBCB; fill-opacity:0.0; 
stroke:#37CBCB; stroke-width:0.6096; stroke-opacity:1; 
stroke-linecap:round; stroke-linejoin:round;">
<path d="M20.5402 11.2522
L20.5402 12.3914
" />
<path d="M24.9410 11.3030
L20.5402 11.3030
" />
<path d="M20.5402 9.7574
L20.5402 11.2522
" />
</g>
<g style="fill:#37CBCB; fill-opacity:0.0; 
stroke:#37CBCB; stroke-width:0.2540; stroke-opacity:1; 
stroke-linecap:round; stroke-linejoin:round;">
<path d="M18.7622 23.4150
L18.8638 23.5166
" />
</g>
<g style="fill:#37CBCB; fill-opacity:0.0; 
stroke:#37CBCB; stroke-width:0.6096; stroke-opacity:1; 
stroke-linecap:round; stroke-linejoin:round;">
<path d="M19.5750 21.0312
L18.8638 21.7424
" />
<path d="M18.8638 21.7424
L18.8638 23.5166
" />
<path d="M19.5750 20.6502
L19.5750 21.0312
" />
<path d="M19.5750 17.7292
L20.5910 16.7132
" />
<path d="M20.5910 16.7132
L20.5910 15.1422
" />
<path d="M19.5750 18.1102
L19.5750 17.7292
" />
<path d="M17.6700 19.3802
L15.8920 17.6022
" />
<path d="M15.8920 17.6022
L14.3718 17.6022
" />
<path d="M18.3050 19.3802
L17.6700 19.3802
" />
</g>
<g >
</g>
<g style="fill:#37CBCB; fill-opacity:0.0; 
stroke:#37CBCB; stroke-width:0.6096; stroke-opacity:1; 
stroke-linecap:round; stroke-linejoin:round;">
<g >
</g>
<g style="fill:#37CBCB; fill-opacity:1.0000; 
stroke:#37CBCB; stroke-width:0.0000; stroke-opacity:1; 
stroke-linecap:round; stroke-linejoin:round;">
<path style="fill:#37CBCB; fill-opacity:1.0000; 
stroke:#37CBCB; stroke-width:0.0000; stroke-opacity:1; 
stroke-linecap:round; stroke-linejoin:round;fill-rule:evenodd;"
d="M 32.2556,2.1183
32.2813,2.1628
32.2825,2.1759
32.2825,33.0285
32.2649,33.0768
32.2203,33.1026
32.2073,33.1037
13.6815,33.1037
13.6332,33.0861
13.6075,33.0416
13.6164,32.9909
13.6558,32.9578
13.6594,32.9566
13.8677,32.8924
14.1046,32.7783
14.3219,32.6302
14.5146,32.4513
14.6553,32.2749
17.9593,32.2749
17.9593,32.2749
17.9740,32.3491
18.0303,32.4333
18.1145,32.4895
18.1887,32.5043
19.5388,32.5043
19.5388,32.5043
19.5388,32.5043
19.6131,32.4895
19.6972,32.4333
19.7535,32.3491
19.7683,32.2749
19.7683,32.1343
19.7859,32.0860
19.8304,32.0602
19.8435,32.0591
20.4072,32.0591
20.4360,32.0648
20.4583,32.0741
20.4985,32.0907
20.6545,32.1113
20.8104,32.0907
20.9557,32.0305
21.0805,31.9348
21.1763,31.8100
21.2365,31.6647
21.2570,31.5087
21.2365,31.3527
21.1763,31.2074
21.1731,31.2033
21.0805,31.0826
20.9557,30.9869
20.9557,30.9869
20.9557,30.9869
20.9557,30.9869
20.8104,30.9267
20.8104,30.9267
20.6545,30.9061
20.6545,30.9061
20.6205,30.9106
20.4985,30.9267
20.4985,30.9267
20.4985,30.9267
20.4790,30.9348
20.4502,30.9405
19.8435,30.9405
19.7951,30.9229
19.7694,30.8784
19.7683,30.8653
19.7683,30.7440
28.3538,30.7440
28.3831,30.9851
28.3831,30.9851
28.4507,31.2184
28.5144,31.3527
28.5548,31.4379
28.6257,31.5406
28.6928,31.6378
28.8611,31.8130
28.8611,31.8130
29.0365,31.9448
29.0552,31.9589
29.0552,31.9589
29.0553,31.9589
29.2703,32.0718
29.2703,32.0718
29.2703,32.0718
29.2703,32.0718
29.5007,32.1487
29.7405,32.1877
29.7405,32.1877
29.9226,32.1877
29.9226,32.1877
30.1041,32.1730
30.3399,32.1149
30.5634,32.0197
30.7687,31.8899
30.9505,31.7288
31.1042,31.5406
31.2256,31.3303
31.3118,31.1031
31.3604,30.8651
31.3701,30.6224
31.3409,30.3813
31.2733,30.1480
31.2733,30.1480
31.1691,29.9285
31.1691,29.9285
31.0311,29.7286
31.0311,29.7286
31.0311,29.7286
30.8629,29.5534
30.8629,29.5534
30.6687,29.4075
30.6687,29.4075
30.6687,29.4075
30.6687,29.4075
30.6687,29.4075
30.4536,29.2946
30.4536,29.2946
30.2232,29.2177
29.9834,29.1787
29.9834,29.1787
29.8013,29.1787
29.7768,29.1807
29.6198,29.1933
29.6198,29.1933
29.6198,29.1934
29.6198,29.1934
29.6198,29.1934
29.3840,29.2515
29.1605,29.3467
28.9552,29.4765
28.9552,29.4765
28.7734,29.6376
28.7734,29.6376
28.6198,29.8258
28.6198,29.8258
28.4983,30.0361
28.4983,30.0361
28.4122,30.2633
28.4122,30.2633
28.3636,30.5013
28.3546,30.7247
28.3538,30.7440
19.7683,30.7440
19.7683,30.7247
19.7683,30.7247
19.7535,30.6505
19.6972,30.5663
19.6131,30.5101
19.6131,30.5101
19.5388,30.4953
18.1887,30.4953
18.1887,30.4953
18.1145,30.5101
18.0303,30.5663
17.9740,30.6505
17.9740,30.6505
17.9593,30.7247
17.9593,32.2749
14.6553,32.2749
14.6786,32.2457
14.8100,32.0180
14.9061,31.7733
14.9646,31.5169
14.9843,31.2547
14.9646,30.9925
14.9061,30.7361
14.8100,30.4914
14.6786,30.2637
14.6786,30.2637
14.6786,30.2637
14.5863,30.1480
14.5146,30.0581
14.3219,29.8792
14.1046,29.7311
14.0374,29.6988
13.8677,29.6170
13.8373,29.6076
13.7963,29.5766
13.7958,29.5749
17.9593,29.5749
17.9593,29.5749
17.9611,29.5841
17.9740,29.6491
18.0303,29.7333
18.1145,29.7895
18.1887,29.8043
19.5388,29.8043
19.5388,29.8043
19.5388,29.8043
19.6131,29.7895
19.6972,29.7333
19.7535,29.6491
19.7683,29.5749
19.7683,28.0247
19.7535,27.9505
19.6972,27.8663
19.6131,27.8101
19.6131,27.8101
19.5388,27.7953
19.5388,27.7953
19.3205,27.7953
19.2721,27.7777
19.2464,27.7332
19.2453,27.7201
19.2453,27.2963
19.2629,27.2480
19.3074,27.2222
19.3205,27.2211
19.5388,27.2211
19.5388,27.2211
19.6131,27.2063
19.6972,27.1501
19.7535,27.0659
19.7683,26.9917
19.7683,26.8511
19.7859,26.8028
19.8304,26.7770
19.8435,26.7759
20.0525,26.7759
20.1009,26.7935
20.1057,26.7979
20.1887,26.8809
20.2216,26.9162
20.2260,26.9208
20.2347,26.9301
20.2347,26.9301
20.2347,26.9301
20.2742,26.9542
20.2774,26.9563
20.3088,26.9802
20.3143,26.9843
20.3353,26.9926
20.3467,26.9983
20.3660,27.0100
20.3660,27.0100
20.3660,27.0100
20.4106,27.0225
20.4143,27.0237
20.4573,27.0407
20.4701,27.0420
20.4797,27.0430
20.4923,27.0454
20.5141,27.0515
20.5604,27.0515
20.5642,27.0517
20.5690,27.0522
20.6102,27.0564
20.6288,27.0532
20.6325,27.0526
20.6453,27.0515
21.3253,27.0515
21.3736,27.0691
21.3993,27.1136
21.4005,27.1267
21.4005,27.7673
21.4090,27.8101
21.4152,27.8415
21.4715,27.9257
21.5557,27.9819
21.6299,27.9967
23.6800,27.9967
23.6800,27.9967
23.6800,27.9967
23.7543,27.9819
23.8384,27.9257
23.8947,27.8415
23.9095,27.7673
23.9095,25.2171
23.8947,25.1429
23.8384,25.0587
23.7543,25.0025
23.7543,25.0025
23.6800,24.9877
21.6299,24.9877
21.6299,24.9877
21.5557,25.0025
21.4715,25.0587
21.4152,25.1429
21.4152,25.1429
21.4005,25.2171
21.4005,25.8577
21.3829,25.9060
21.3383,25.9318
21.3253,25.9329
20.8538,25.9329
20.8054,25.9153
20.8006,25.9109
20.7176,25.8279
20.6716,25.7787
20.6321,25.7546
20.6289,25.7525
20.5921,25.7245
20.5921,25.7245
20.5711,25.7162
20.5596,25.7105
20.5403,25.6988
20.5403,25.6988
20.5403,25.6988
20.5300,25.6959
20.4957,25.6863
20.4921,25.6851
20.4490,25.6681
20.4266,25.6658
20.4140,25.6634
20.4120,25.6628
20.3922,25.6573
20.3922,25.6573
20.3460,25.6573
20.3421,25.6571
20.2961,25.6524
20.2961,25.6524
20.2738,25.6562
20.2611,25.6573
19.8435,25.6573
19.7951,25.6397
19.7694,25.5952
19.7683,25.5821
19.7683,25.4415
19.7683,25.4415
19.7535,25.3673
19.6972,25.2831
19.6131,25.2269
19.6131,25.2269
19.5388,25.2121
18.1887,25.2121
18.1887,25.2121
18.1145,25.2269
18.0303,25.2831
17.9740,25.3673
17.9740,25.3673
17.9593,25.4415
17.9593,26.9917
17.9593,26.9917
17.9644,27.0175
17.9740,27.0659
18.0303,27.1501
18.1145,27.2063
18.1887,27.2211
18.4071,27.2211
18.4554,27.2387
18.4811,27.2832
18.4823,27.2963
18.4823,27.7201
18.4647,27.7684
18.4201,27.7942
18.4071,27.7953
18.1887,27.7953
18.1887,27.7953
18.1145,27.8101
18.0303,27.8663
17.9740,27.9505
17.9740,27.9505
17.9593,28.0247
17.9593,29.5749
13.7958,29.5749
13.7843,29.5358
13.7843,29.1687
13.7866,29.1015
13.7866,29.1015
13.7811,29.0789
13.7756,29.0565
13.7749,29.0527
13.7747,29.0517
13.7686,29.0069
13.7596,28.9862
13.7555,28.9740
13.7502,28.9521
13.7275,28.9117
13.7258,28.9083
13.7073,28.8659
13.6931,28.8484
13.6859,28.8378
13.6748,28.8181
13.6421,28.7853
13.6395,28.7825
13.6103,28.7466
13.6103,28.7466
13.5919,28.7336
13.5821,28.7253
11.1880,26.3313
14.2890,26.3313
14.2890,26.3313
14.3037,26.4055
14.3600,26.4897
14.4442,26.5459
14.5184,26.5607
14.5590,26.5607
14.6073,26.5783
14.6330,26.6228
14.6342,26.6359
14.6342,27.2110
14.6186,27.2568
14.6081,27.2704
14.6081,27.2704
14.5479,27.4157
14.5317,27.5388
14.5274,27.5717
14.5479,27.7277
14.5479,27.7277
14.6081,27.8730
14.6081,27.8730
14.7039,27.9978
14.7816,28.0574
14.8287,28.0935
14.8287,28.0935
14.8287,28.0935
14.8740,28.1123
14.9740,28.1537
15.1300,28.1743
15.2859,28.1537
15.4312,28.0935
15.5560,27.9978
15.6518,27.8730
15.7042,27.7465
15.7094,27.7362
15.7113,27.7331
15.7238,27.6885
15.7250,27.6849
15.7420,27.6419
15.7443,27.6194
15.7467,27.6068
15.7528,27.5851
15.7528,27.5388
15.7530,27.5350
15.7577,27.4889
15.7539,27.4667
15.7528,27.4539
15.7528,26.6359
15.7704,26.5876
15.8149,26.5618
15.8280,26.5607
15.8685,26.5607
15.8685,26.5607
15.9428,26.5459
16.0269,26.4897
16.0832,26.4055
16.0980,26.3313
16.0980,24.7811
16.0832,24.7069
16.0269,24.6227
15.9428,24.5665
15.9428,24.5665
15.8685,24.5517
14.5184,24.5517
14.5184,24.5517
14.4442,24.5665
14.3600,24.6227
14.3037,24.7069
14.3037,24.7069
14.2890,24.7811
14.2890,26.3313
11.1880,26.3313
10.8967,26.0400
10.8745,26.0162
10.8507,25.9908
10.8112,25.9667
10.8080,25.9646
10.7712,25.9366
10.7712,25.9366
10.7502,25.9283
10.7387,25.9226
10.7194,25.9109
10.7194,25.9109
10.7194,25.9109
10.7091,25.9080
10.6748,25.8984
10.6712,25.8972
10.6281,25.8802
10.6057,25.8779
10.5931,25.8755
10.5911,25.8749
10.5713,25.8694
10.5713,25.8694
10.5251,25.8694
10.5212,25.8692
10.4752,25.8645
10.4752,25.8645
10.4529,25.8683
10.4402,25.8694
8.9158,25.8694
8.8674,25.8518
8.8626,25.8474
8.1233,25.1081
8.1015,25.0614
8.1013,25.0549
8.1013,25.0239
8.1189,24.9756
8.1634,24.9498
8.1765,24.9487
8.5670,24.9487
8.5670,24.9487
8.6413,24.9339
8.7254,24.8777
8.7817,24.7935
8.7965,24.7193
10.2875,24.7193
10.2875,24.7193
10.3022,24.7935
10.3585,24.8777
10.4427,24.9339
10.5169,24.9487
12.5670,24.9487
12.5670,24.9487
12.5670,24.9487
12.6413,24.9339
12.7254,24.8777
12.7817,24.7935
12.7965,24.7193
12.7965,24.2917
17.9593,24.2917
17.9593,24.2917
17.9740,24.3659
18.0303,24.4501
18.1145,24.5063
18.1887,24.5211
19.5388,24.5211
19.5388,24.5211
19.5388,24.5211
19.6131,24.5063
19.6972,24.4501
19.7535,24.3659
19.7683,24.2917
19.7683,22.7415
19.7535,22.6673
19.6972,22.5831
19.6131,22.5269
19.6131,22.5269
19.5388,22.5121
19.5388,22.5121
19.4983,22.5121
19.4499,22.4945
19.4242,22.4500
19.4231,22.4369
19.4231,22.0052
19.4407,21.9569
19.4451,21.9520
19.9637,21.4334
19.9637,21.4334
20.0129,21.3875
20.0369,21.3479
20.0391,21.3448
20.0671,21.3079
20.0754,21.2869
20.0811,21.2754
20.0928,21.2561
20.0950,21.2482
20.1053,21.2115
20.1065,21.2079
20.1149,21.1866
20.1317,21.1611
20.1689,21.1238
20.2594,20.9798
20.3156,20.8192
20.3346,20.6502
20.3156,20.4812
20.2594,20.3206
20.1689,20.1766
20.1689,20.1766
20.0486,20.0563
19.9581,19.9994
19.9046,19.9658
19.9046,19.9658
19.7440,19.9096
19.7440,19.9096
19.5750,19.8905
19.5750,19.8905
19.4059,19.9096
19.4059,19.9096
19.2454,19.9658
19.2454,19.9658
19.1013,20.0563
18.9810,20.1766
18.8905,20.3206
18.8905,20.3206
18.8344,20.4812
18.8344,20.4812
18.8153,20.6502
18.8153,20.6502
18.8344,20.8192
18.8344,20.8192
18.8606,20.8944
18.8600,20.9458
18.8428,20.9724
18.4750,21.3402
18.4258,21.3861
18.4018,21.4257
18.3996,21.4288
18.3717,21.4657
18.3634,21.4867
18.3577,21.4982
18.3459,21.5175
18.3459,21.5175
18.3335,21.5620
18.3322,21.5657
18.3153,21.6087
18.3153,21.6087
18.3129,21.6312
18.3106,21.6438
18.3045,21.6655
18.3045,21.7118
18.3043,21.7156
18.2995,21.7617
18.3034,21.7839
18.3045,21.7967
18.3045,22.4369
18.2869,22.4852
18.2423,22.5110
18.2293,22.5121
18.1887,22.5121
18.1887,22.5121
18.1145,22.5269
18.0303,22.5831
17.9740,22.6673
17.9740,22.6673
17.9593,22.7415
17.9593,24.2917
12.7965,24.2917
12.7965,23.4907
12.8141,23.4424
12.8586,23.4166
12.8717,23.4155
14.2138,23.4155
14.2621,23.4331
14.2878,23.4776
14.2890,23.4907
14.2890,23.6313
14.3037,23.7055
14.3600,23.7897
14.4442,23.8459
14.5184,23.8607
15.8685,23.8607
15.8685,23.8607
15.8685,23.8607
15.9428,23.8459
16.0269,23.7897
16.0832,23.7055
16.0980,23.6313
16.0980,22.0811
16.0832,22.0069
16.0269,21.9227
15.9428,21.8665
15.9428,21.8665
15.8685,21.8517
14.5184,21.8517
14.5184,21.8517
14.4442,21.8665
14.3600,21.9227
14.3037,22.0069
14.3037,22.0069
14.2890,22.0811
14.2890,22.2217
14.2714,22.2700
14.2268,22.2958
14.2138,22.2969
12.8717,22.2969
12.8233,22.2793
12.7976,22.2348
12.7965,22.2217
12.7965,22.1691
12.7965,22.1691
12.7817,22.0949
12.7254,22.0107
12.6413,21.9545
12.6413,21.9545
12.5670,21.9397
12.5670,21.9397
12.1765,21.9397
12.1281,21.9221
12.1024,21.8776
12.1013,21.8645
12.1013,18.5819
12.1189,18.5336
12.1634,18.5078
12.1765,18.5067
12.4468,18.5067
12.4468,18.5067
12.5211,18.4919
12.6052,18.4357
12.6615,18.3515
12.6763,18.2773
13.3673,18.2773
13.3673,18.2773
13.3771,18.3268
13.3820,18.3515
13.4383,18.4357
13.5225,18.4919
13.5967,18.5067
15.1468,18.5067
15.1468,18.5067
15.1468,18.5067
15.2211,18.4919
15.3052,18.4357
15.3615,18.3515
15.3763,18.2773
15.3763,18.2367
15.3939,18.1884
15.4384,18.1626
15.4515,18.1615
15.6291,18.1615
15.6775,18.1791
15.6823,18.1835
17.2677,19.7689
17.3137,19.8181
17.3532,19.8422
17.3564,19.8443
17.3933,19.8723
17.3933,19.8723
17.3933,19.8723
17.3933,19.8723
17.4143,19.8806
17.4258,19.8863
17.4450,19.8980
17.4896,19.9105
17.4932,19.9117
17.5363,19.9287
17.5588,19.9310
17.5713,19.9334
17.5831,19.9367
17.5931,19.9395
17.5931,19.9395
17.6394,19.9395
17.6432,19.9397
17.6892,19.9444
17.7115,19.9406
17.7243,19.9395
17.7656,19.9395
17.8139,19.9571
17.8187,19.9615
17.8313,19.9741
17.8313,19.9741
17.9754,20.0646
18.1359,20.1208
18.2486,20.1335
18.3050,20.1399
18.3050,20.1399
18.3050,20.1399
18.3472,20.1351
18.4740,20.1208
18.6346,20.0646
18.7786,19.9741
18.8989,19.8538
18.9894,19.7098
19.0456,19.5492
19.0646,19.3802
19.0456,19.2112
18.9894,19.0506
18.8989,18.9066
18.8989,18.9066
18.7786,18.7863
18.6881,18.7294
18.6346,18.6958
18.6346,18.6958
18.4740,18.6396
18.4740,18.6396
18.3050,18.6205
18.3050,18.6205
18.1359,18.6396
18.1359,18.6396
17.9754,18.6958
17.9754,18.6958
17.9040,18.7406
17.8537,18.7514
17.8108,18.7301
17.1909,18.1102
18.8153,18.1102
18.8344,18.2792
18.8344,18.2792
18.8905,18.4398
18.8905,18.4398
18.9810,18.5838
19.1013,18.7041
19.1013,18.7041
19.2454,18.7946
19.4059,18.8508
19.5186,18.8635
19.5750,18.8699
19.5750,18.8699
19.5750,18.8699
19.6172,18.8651
19.7440,18.8508
19.9046,18.7946
20.0486,18.7041
20.1689,18.5838
20.2594,18.4398
20.3156,18.2792
20.3346,18.1102
20.3156,17.9412
20.2893,17.8660
20.2899,17.8146
20.3071,17.7880
20.9797,17.1154
21.0289,17.0695
21.0529,17.0299
21.0551,17.0268
21.0831,16.9899
21.0913,16.9689
21.0971,16.9574
21.1088,16.9381
21.1119,16.9271
21.1213,16.8935
21.1225,16.8899
21.1395,16.8469
21.1418,16.8244
21.1442,16.8118
21.1503,16.7901
21.1503,16.7438
21.1505,16.7400
21.1552,16.6939
21.1514,16.6717
21.1503,16.6589
21.1503,16.2219
21.1679,16.1736
21.2124,16.1478
21.2255,16.1467
21.2660,16.1467
21.2660,16.1467
21.3403,16.1319
21.4244,16.0757
21.4807,15.9915
21.4955,15.9173
21.4955,14.3671
21.4807,14.2929
21.4244,14.2087
21.3403,14.1525
21.3403,14.1525
21.2660,14.1377
19.9159,14.1377
19.9159,14.1377
19.8417,14.1525
19.7575,14.2087
19.7012,14.2929
19.7012,14.2929
19.6865,14.3671
19.6865,15.9173
19.6865,15.9173
19.7012,15.9915
19.7575,16.0757
19.8417,16.1319
19.9159,16.1467
19.9565,16.1467
20.0048,16.1643
20.0305,16.2088
20.0317,16.2219
20.0317,16.4504
20.0141,16.4987
20.0096,16.5036
19.1862,17.3270
19.1370,17.3729
19.1130,17.4125
19.1108,17.4156
19.0829,17.4525
19.0746,17.4735
19.0689,17.4850
19.0571,17.5043
19.0571,17.5043
19.0447,17.5488
19.0434,17.5525
19.0350,17.5737
19.0183,17.5993
18.9810,17.6366
18.9810,17.6366
18.9810,17.6366
18.9810,17.6366
18.8907,17.7803
18.8905,17.7806
18.8344,17.9412
18.8344,17.9412
18.8153,18.1102
18.8153,18.1102
17.1909,18.1102
17.0916,18.0109
16.2942,17.2135
16.2482,17.1643
16.2482,17.1643
16.2293,17.1528
16.2087,17.1402
16.2055,17.1381
16.1687,17.1101
16.1687,17.1101
16.1477,17.1018
16.1362,17.0961
16.1169,17.0844
16.1169,17.0844
16.1169,17.0844
16.1066,17.0815
16.0723,17.0719
16.0687,17.0707
16.0256,17.0537
16.0032,17.0514
15.9906,17.0490
15.9886,17.0484
15.9688,17.0429
15.9688,17.0429
15.9226,17.0429
15.9187,17.0427
15.8727,17.0380
15.8727,17.0380
15.8504,17.0418
15.8377,17.0429
15.4515,17.0429
15.4031,17.0253
15.3774,16.9808
15.3763,16.9677
15.3763,16.9271
15.3763,16.9271
15.3692,16.8917
15.3615,16.8529
15.3052,16.7687
15.2211,16.7125
15.2211,16.7125
15.1468,16.6977
13.5967,16.6977
13.5967,16.6977
13.5225,16.7125
13.4383,16.7687
13.3820,16.8529
13.3820,16.8529
13.3673,16.9271
13.3673,18.2773
12.6763,18.2773
12.6763,16.9271
12.6615,16.8529
12.6052,16.7687
12.5211,16.7125
12.5211,16.7125
12.4468,16.6977
12.4468,16.6977
12.2847,16.6977
12.2363,16.6801
12.2106,16.6356
12.2095,16.6225
12.2095,15.9679
12.2271,15.9196
12.2716,15.8938
12.2847,15.8927
12.3252,15.8927
12.3252,15.8927
12.3995,15.8779
12.4836,15.8217
12.5399,15.7375
12.5547,15.6633
12.5547,14.1131
12.5399,14.0389
12.4836,13.9547
12.3995,13.8985
12.3995,13.8985
12.3252,13.8837
10.9751,13.8837
10.9751,13.8837
10.9009,13.8985
10.8167,13.9547
10.7604,14.0389
10.7604,14.0389
10.7457,14.1131
10.7457,15.6633
10.7457,15.6633
10.7604,15.7375
10.8167,15.8217
10.9009,15.8779
10.9751,15.8927
11.0157,15.8927
11.0640,15.9103
11.0897,15.9548
11.0909,15.9679
11.0909,16.6225
11.0733,16.6708
11.0287,16.6966
11.0157,16.6977
10.8967,16.6977
10.8967,16.6977
10.8225,16.7125
10.7383,16.7687
10.6820,16.8529
10.6820,16.8529
10.6673,16.9271
10.6673,18.2773
10.6673,18.2773
10.6771,18.3268
10.6820,18.3515
10.7383,18.4357
10.8225,18.4919
10.8967,18.5067
10.9075,18.5067
10.9558,18.5243
10.9815,18.5688
10.9827,18.5819
10.9827,21.8645
10.9651,21.9128
10.9205,21.9386
10.9075,21.9397
10.5169,21.9397
10.5169,21.9397
10.4427,21.9545
10.3585,22.0107
10.3022,22.0949
10.3022,22.0949
10.2875,22.1691
10.2875,24.7193
8.7965,24.7193
8.7965,22.1691
8.7817,22.0949
8.7254,22.0107
8.6413,21.9545
8.6413,21.9545
8.5743,21.9411
8.5303,21.9145
8.5138,21.8674
8.5138,20.4719
8.5314,20.4236
8.5759,20.3978
8.5890,20.3967
8.9955,20.3967
8.9955,20.3967
9.0698,20.3819
9.1539,20.3257
9.2102,20.2415
9.2250,20.1673
9.2250,18.0851
9.2102,18.0109
9.1539,17.9267
9.0698,17.8705
9.0698,17.8705
8.9955,17.8557
8.9955,17.8557
8.5775,17.8557
8.5291,17.8381
8.5034,17.7936
8.5124,17.7429
8.5457,17.7123
8.5921,17.6907
8.5921,17.6907
8.5921,17.6907
8.7742,17.5632
8.9314,17.4060
9.0590,17.2239
9.0638,17.2135
9.1170,17.0995
9.1529,17.0224
9.2104,16.8077
9.2298,16.5862
9.2104,16.3647
9.1529,16.1500
9.1182,16.0757
9.0590,15.9485
9.0590,15.9485
9.0590,15.9485
8.9314,15.7664
8.9314,15.7664
8.9314,15.7664
8.7743,15.6092
8.7742,15.6092
8.5921,15.4817
8.3907,15.3878
8.3907,15.3878
8.2440,15.3485
8.1759,15.3302
8.1759,15.3302
8.1759,15.3302
7.9545,15.3108
7.7330,15.3302
7.5183,15.3878
7.5183,15.3878
7.3168,15.4817
7.1347,15.6092
6.9775,15.7664
6.8500,15.9485
6.7560,16.1500
6.7560,16.1500
6.6985,16.3647
6.6791,16.5862
6.6985,16.8077
6.6985,16.8077
6.6985,16.8077
6.7030,16.8244
6.7560,17.0224
6.7560,17.0224
6.8500,17.2239
6.9775,17.4060
6.9775,17.4060
7.1347,17.5632
7.1347,17.5632
7.1705,17.5883
7.3168,17.6907
7.3632,17.7123
7.3996,17.7487
7.4041,17.8000
7.3746,17.8421
7.3315,17.8557
6.9134,17.8557
6.9134,17.8557
6.8392,17.8705
6.7550,17.9267
6.6987,18.0109
6.6987,18.0109
6.6840,18.0851
6.6840,20.1673
6.6840,20.1673
6.6858,20.1766
6.6987,20.2415
6.7550,20.3257
6.8392,20.3819
6.9134,20.3967
7.3200,20.3967
7.3683,20.4143
7.3940,20.4588
7.3952,20.4719
7.3952,21.8645
7.3776,21.9128
7.3330,21.9386
7.3200,21.9397
6.5169,21.9397
6.5169,21.9397
6.4427,21.9545
6.3585,22.0107
6.3022,22.0949
6.3022,22.0949
6.2875,22.1691
6.2875,24.7193
6.2875,24.7193
6.3022,24.7935
6.3585,24.8777
6.4427,24.9339
6.5169,24.9487
6.9075,24.9487
6.9558,24.9663
6.9815,25.0108
6.9827,25.0239
6.9827,25.3082
6.9804,25.3754
6.9804,25.3754
6.9913,25.4204
6.9920,25.4242
6.9983,25.4700
6.9983,25.4700
7.0073,25.4907
7.0114,25.5029
7.0168,25.5248
7.0168,25.5248
7.0394,25.5651
7.0412,25.5686
7.0596,25.6110
7.0738,25.6285
7.0811,25.6391
7.0921,25.6588
7.1248,25.6916
7.1274,25.6944
7.1310,25.6988
7.1566,25.7303
7.1751,25.7433
7.1849,25.7516
8.2507,26.8174
8.2967,26.8666
8.2967,26.8666
8.2967,26.8666
8.3362,26.8907
8.3394,26.8928
8.3763,26.9208
8.3763,26.9208
8.3973,26.9291
8.4087,26.9348
8.4280,26.9465
8.4280,26.9465
8.4280,26.9465
8.4726,26.9590
8.4763,26.9602
8.5193,26.9772
8.5321,26.9785
8.5417,26.9795
8.5543,26.9819
8.5761,26.9880
8.6224,26.9880
8.6262,26.9882
8.6310,26.9887
8.6722,26.9929
8.6908,26.9897
8.6945,26.9891
8.7073,26.9880
10.2316,26.9880
10.2800,27.0056
10.2848,27.0100
12.6436,29.3688
12.6654,29.4155
12.6657,29.4220
12.6657,29.5358
12.6481,29.5841
12.6126,29.6076
12.5822,29.6170
12.3453,29.7311
12.1281,29.8792
11.9353,30.0581
11.9353,30.0581
11.7714,30.2637
11.7714,30.2637
11.6399,30.4914
11.6399,30.4914
11.5438,30.7361
11.5438,30.7361
11.5438,30.7361
11.5434,30.7381
11.4853,30.9925
11.4657,31.2547
11.4853,31.5169
11.5129,31.6378
11.5415,31.7629
11.5438,31.7733
11.6399,32.0180
11.6399,32.0180
11.7714,32.2457
11.7714,32.2457
11.8538,32.3491
11.9353,32.4513
12.1281,32.6302
12.3453,32.7783
12.4681,32.8374
12.5822,32.8924
12.7087,32.9314
12.7906,32.9566
12.8316,32.9877
12.8430,33.0379
12.8195,33.0836
12.7721,33.1036
12.7684,33.1037
5.9267,33.1037
5.8783,33.0861
5.8526,33.0416
5.8515,33.0285
5.8515,30.6170
6.8908,30.6170
6.9201,30.8581
6.9201,30.8581
6.9877,31.0914
7.0918,31.3109
7.0918,31.3109
7.1627,31.4136
7.2298,31.5108
7.3981,31.6860
7.3981,31.6860
7.5671,31.8130
7.5922,31.8319
7.5922,31.8319
7.5923,31.8319
7.8073,31.9448
7.8073,31.9448
7.8073,31.9448
7.8073,31.9448
8.0377,32.0217
8.2775,32.0607
8.2775,32.0607
8.4596,32.0607
8.4596,32.0607
8.6411,32.0460
8.8769,31.9879
9.1004,31.8927
9.3057,31.7629
9.4875,31.6018
9.6412,31.4136
9.7626,31.2033
9.8488,30.9761
9.8974,30.7381
9.9071,30.4954
9.8779,30.2543
9.8103,30.0210
9.8103,30.0210
9.7177,29.8258
9.7061,29.8015
9.5681,29.6016
9.5681,29.6016
9.5681,29.6016
9.3999,29.4264
9.3999,29.4264
9.2057,29.2805
9.2057,29.2805
9.2057,29.2805
9.2057,29.2805
9.2057,29.2805
8.9906,29.1676
8.9906,29.1676
8.7602,29.0907
8.5204,29.0517
8.5204,29.0517
8.3383,29.0517
8.3256,29.0527
8.1568,29.0663
8.1568,29.0663
8.1568,29.0664
8.1568,29.0664
8.1568,29.0664
7.9210,29.1245
7.6975,29.2197
7.4922,29.3495
7.4922,29.3495
7.3104,29.5106
7.3104,29.5106
7.1568,29.6988
7.1568,29.6988
7.0353,29.9091
7.0353,29.9091
6.9492,30.1363
6.9492,30.1363
6.9006,30.3743
6.8908,30.6170
6.8908,30.6170
5.8515,30.6170
5.8515,12.3152
10.7462,12.3152
10.7462,12.9632
10.7609,13.0373
10.8170,13.1213
10.9011,13.1775
10.9011,13.1775
10.9751,13.1922
11.5232,13.1922
11.5232,12.3152
11.7772,12.3152
11.7772,13.1922
12.3252,13.1922
12.3252,13.1922
12.3993,13.1775
12.4833,13.1213
12.5394,13.0373
12.5394,13.0373
12.5542,12.9632
12.5542,12.3152
11.7772,12.3152
11.5232,12.3152
10.7462,12.3152
5.8515,12.3152
5.8515,12.0929
14.4637,12.0929
14.4637,12.0929
14.4784,12.1671
14.5347,12.2513
14.6189,12.3075
14.6931,12.3223
15.3337,12.3223
15.3820,12.3399
15.4077,12.3844
15.4089,12.3975
15.4089,13.2717
15.4245,13.3857
15.4278,13.3933
15.4334,13.4135
15.4369,13.4402
15.4971,13.5855
15.4971,13.5855
15.5929,13.7103
15.6706,13.7699
15.7177,13.8060
15.7177,13.8060
15.7177,13.8060
15.7630,13.8248
15.8630,13.8662
16.0190,13.8868
16.1749,13.8662
16.3202,13.8060
16.4450,13.7103
16.5408,13.5855
16.6010,13.4402
16.6215,13.2842
16.6010,13.1282
16.5408,12.9829
16.5408,12.9829
16.5383,12.9787
16.5402,12.9776
16.5275,12.9400
16.5275,12.3975
16.5451,12.3492
16.5896,12.3234
16.6027,12.3223
17.2432,12.3223
17.2432,12.3223
17.3175,12.3075
17.4016,12.2513
17.4579,12.1671
17.4727,12.0929
17.4727,10.5325
19.6357,10.5325
19.6357,10.5325
19.6504,10.6067
19.7067,10.6909
19.7909,10.7471
19.8651,10.7619
19.9057,10.7619
19.9540,10.7795
19.9797,10.8240
19.9809,10.8371
19.9809,11.2724
19.9807,11.2762
19.9759,11.3223
19.9761,11.3229
19.9770,11.3408
19.9769,11.3415
19.9769,11.3415
19.9783,11.3480
19.9709,11.3989
19.9325,11.4331
19.9193,11.4370
19.8417,11.4525
19.7575,11.5087
19.7012,11.5929
19.7012,11.5929
19.6865,11.6671
19.6865,13.2173
19.6865,13.2173
19.7012,13.2915
19.7575,13.3757
19.8417,13.4319
19.9159,13.4467
21.2660,13.4467
21.2660,13.4467
21.2660,13.4467
21.3403,13.4319
21.4244,13.3757
21.4807,13.2915
21.4955,13.2173
21.4955,11.9375
21.5131,11.8892
21.5576,11.8634
21.5707,11.8623
23.6113,11.8623
23.6596,11.8799
23.6853,11.9244
23.6865,11.9375
23.6865,12.5781
23.7012,12.6523
23.7575,12.7365
23.8417,12.7927
23.9159,12.8075
25.9660,12.8075
25.9660,12.8075
25.9660,12.8075
26.0403,12.7927
26.1244,12.7365
26.1807,12.6523
26.1955,12.5781
26.1955,10.0279
26.1807,9.9537
26.1244,9.8695
26.0403,9.8133
26.0403,9.8133
25.9660,9.7985
23.9159,9.7985
23.9159,9.7985
23.8417,9.8133
23.7575,9.8695
23.7012,9.9537
23.7012,9.9537
23.6865,10.0279
23.6865,10.6685
23.6689,10.7168
23.6243,10.7426
23.6113,10.7437
21.4790,10.7437
21.4307,10.7261
21.4050,10.6816
21.4139,10.6309
21.4165,10.6267
21.4299,10.6067
21.4447,10.5325
21.4447,8.9823
21.4299,8.9081
21.3736,8.8239
21.2895,8.7677
21.2895,8.7677
21.2152,8.7529
19.8651,8.7529
19.8651,8.7529
19.7909,8.7677
19.7067,8.8239
19.6504,8.9081
19.6504,8.9081
19.6357,8.9823
19.6357,10.5325
17.4727,10.5325
17.4727,10.0427
17.4579,9.9685
17.4016,9.8843
17.3175,9.8281
17.3175,9.8281
17.2432,9.8133
14.6931,9.8133
14.6931,9.8133
14.6189,9.8281
14.5347,9.8843
14.4784,9.9685
14.4784,9.9685
14.4637,10.0427
14.4637,12.0929
5.8515,12.0929
5.8515,12.0612
10.7462,12.0612
11.5232,12.0612
11.5232,11.1842
11.7772,11.1842
11.7772,12.0612
12.5542,12.0612
12.5542,11.4132
12.5542,11.4132
12.5394,11.3391
12.4833,11.2551
12.3993,11.1989
12.3993,11.1989
12.3252,11.1842
11.7772,11.1842
11.5232,11.1842
10.9751,11.1842
10.9751,11.1842
10.9011,11.1989
10.8170,11.2551
10.7609,11.3391
10.7609,11.3391
10.7462,11.4132
10.7462,12.0612
5.8515,12.0612
5.8515,7.1948
14.4642,7.1948
14.4642,8.0928
14.4789,8.1669
14.5350,8.2509
14.6191,8.3071
14.6191,8.3071
14.6931,8.3218
15.8412,8.3218
15.8412,7.1948
16.0952,7.1948
16.0952,8.3218
17.2432,8.3218
17.2432,8.3218
17.3173,8.3071
17.4013,8.2509
17.4574,8.1669
17.4574,8.1669
17.4722,8.0928
17.4722,7.1948
16.0952,7.1948
15.8412,7.1948
14.4642,7.1948
5.8515,7.1948
5.8515,7.1844
19.6362,7.1844
19.6362,7.8324
19.6509,7.9065
19.7070,7.9905
19.7911,8.0467
19.7911,8.0467
19.8651,8.0614
20.4132,8.0614
20.4132,7.1844
20.6672,7.1844
20.6672,8.0614
21.2152,8.0614
21.2152,8.0614
21.2893,8.0467
21.3733,7.9905
21.4294,7.9065
21.4294,7.9065
21.4442,7.8324
21.4442,7.4422
23.6577,7.4422
23.6773,7.7044
23.7358,7.9608
23.8319,8.2055
23.8319,8.2055
23.9634,8.4332
23.9634,8.4332
24.0458,8.5366
24.1273,8.6388
24.1273,8.6388
24.1273,8.6388
24.1297,8.6410
24.3201,8.8177
24.5373,8.9658
24.6083,9.0000
24.7742,9.0799
24.8335,9.0981
25.0255,9.1574
25.2855,9.1966
25.2855,9.1966
25.5484,9.1966
25.5484,9.1966
25.8084,9.1574
26.0597,9.0799
26.2966,8.9658
26.5139,8.8177
26.7066,8.6388
26.8706,8.4332
27.0020,8.2055
27.0634,8.0492
27.0974,8.0107
27.1334,8.0015
27.3766,8.0015
27.4250,8.0191
27.4298,8.0235
28.3596,8.9533
28.3814,9.0000
28.3817,9.0065
28.3817,9.7233
28.3641,9.7716
28.3195,9.7974
28.3065,9.7985
27.9159,9.7985
27.9159,9.7985
27.8417,9.8133
27.7575,9.8695
27.7012,9.9537
27.7012,9.9537
27.6865,10.0279
27.6865,12.5781
27.6865,12.5781
27.7012,12.6523
27.7575,12.7365
27.8417,12.7927
27.9159,12.8075
28.3065,12.8075
28.3548,12.8251
28.3805,12.8696
28.3817,12.8827
28.3817,17.4757
28.3641,17.5240
28.3195,17.5498
28.3065,17.5509
27.8811,17.5509
27.8811,17.5509
27.8069,17.5657
27.7227,17.6219
27.6664,17.7061
27.6664,17.7061
27.6517,17.7803
27.6517,19.8625
27.6517,19.8625
27.6557,19.8829
27.6664,19.9367
27.7227,20.0209
27.8069,20.0771
27.8811,20.0919
28.2992,20.0919
28.3475,20.1095
28.3732,20.1540
28.3643,20.2047
28.3309,20.2353
28.2845,20.2569
28.1024,20.3844
27.9452,20.5416
27.8177,20.7237
27.7237,20.9252
27.7237,20.9252
27.6662,21.1399
27.6468,21.3614
27.6662,21.5829
27.6662,21.5829
27.6662,21.5829
27.6791,21.6312
27.7237,21.7976
27.7237,21.7976
27.8177,21.9991
27.9452,22.1812
27.9452,22.1812
28.1024,22.3384
28.1024,22.3384
28.2845,22.4659
28.2845,22.4659
28.2845,22.4659
28.3194,22.4822
28.3558,22.5186
28.3629,22.5503
28.3629,25.0102
28.3453,25.0585
28.3408,25.0633
28.1871,25.2171
28.0378,25.3664
27.9912,25.3881
27.9415,25.3748
27.9120,25.3326
27.9095,25.3132
27.9095,25.2171
27.9095,25.2171
27.9085,25.2121
27.8947,25.1429
27.8384,25.0587
27.7543,25.0025
27.7543,25.0025
27.6800,24.9877
25.6299,24.9877
25.6299,24.9877
25.5557,25.0025
25.4715,25.0587
25.4152,25.1429
25.4152,25.1429
25.4005,25.2171
25.4005,27.7673
25.4005,27.7673
25.4090,27.8101
25.4152,27.8415
25.4715,27.9257
25.5557,27.9819
25.6299,27.9967
27.6800,27.9967
27.6800,27.9967
27.6800,27.9967
27.7543,27.9819
27.8384,27.9257
27.8947,27.8415
27.9095,27.7673
27.9095,27.0617
27.9271,27.0134
27.9478,26.9962
28.0441,26.9420
29.3109,25.6752
29.3601,25.6293
29.3841,25.5897
29.3863,25.5866
29.4026,25.5651
29.4143,25.5497
29.4225,25.5287
29.4282,25.5172
29.4400,25.4979
29.4525,25.4534
29.4537,25.4497
29.4707,25.4067
29.4707,25.4067
29.4730,25.3842
29.4754,25.3716
29.4815,25.3499
29.4815,25.3036
29.4817,25.2998
29.4834,25.2831
29.4864,25.2537
29.4826,25.2315
29.4815,25.2187
29.4815,22.5503
29.4991,22.5020
29.5249,22.4822
29.5598,22.4659
29.7419,22.3384
29.8991,22.1812
30.0267,21.9991
30.0383,21.9741
30.0954,21.8517
30.1206,21.7976
30.1781,21.5829
30.1975,21.3614
30.1781,21.1399
30.1206,20.9252
30.1048,20.8914
30.0267,20.7237
30.0267,20.7237
30.0267,20.7237
29.8991,20.5416
29.8991,20.5416
29.8991,20.5416
29.7420,20.3844
29.7419,20.3844
29.6206,20.2995
29.5598,20.2569
29.5134,20.2353
29.4770,20.1989
29.4725,20.1476
29.5020,20.1055
29.5452,20.0919
29.9632,20.0919
29.9632,20.0919
30.0375,20.0771
30.1216,20.0209
30.1779,19.9367
30.1927,19.8625
30.1927,17.7803
30.1779,17.7061
30.1216,17.6219
30.0375,17.5657
30.0375,17.5657
29.9632,17.5509
29.9632,17.5509
29.5755,17.5509
29.5271,17.5333
29.5014,17.4888
29.5003,17.4757
29.5003,12.8827
29.5179,12.8344
29.5624,12.8086
29.5755,12.8075
29.9660,12.8075
29.9660,12.8075
30.0403,12.7927
30.1244,12.7365
30.1807,12.6523
30.1955,12.5781
30.1955,10.0279
30.1807,9.9537
30.1244,9.8695
30.0403,9.8133
30.0403,9.8133
29.9660,9.7985
29.9660,9.7985
29.5755,9.7985
29.5271,9.7809
29.5014,9.7364
29.5003,9.7233
29.5003,8.7532
29.5026,8.6860
29.5026,8.6860
29.5026,8.6860
29.4916,8.6410
29.4909,8.6372
29.4892,8.6248
29.4846,8.5914
29.4756,8.5707
29.4715,8.5585
29.4662,8.5366
29.4662,8.5366
29.4662,8.5366
29.4435,8.4962
29.4418,8.4928
29.4233,8.4504
29.4091,8.4329
29.4019,8.4223
29.3908,8.4026
29.3908,8.4026
29.3908,8.4026
29.3581,8.3698
29.3555,8.3670
29.3263,8.3311
29.3263,8.3311
29.3079,8.3181
29.2981,8.3098
28.9897,8.0015
28.0417,7.0535
27.9957,7.0043
27.9957,7.0043
27.9768,6.9928
27.9562,6.9802
27.9530,6.9781
27.9162,6.9501
27.9162,6.9501
27.8952,6.9418
27.8837,6.9361
27.8644,6.9244
27.8644,6.9244
27.8644,6.9244
27.8541,6.9215
27.8198,6.9119
27.8162,6.9107
27.7731,6.8937
27.7507,6.8914
27.7381,6.8890
27.7361,6.8884
27.7163,6.8829
27.7163,6.8829
27.6701,6.8829
27.6662,6.8827
27.6202,6.8780
27.6202,6.8780
27.5979,6.8818
27.5852,6.8829
27.1334,6.8829
27.0850,6.8653
27.0634,6.8352
27.0020,6.6789
27.0020,6.6789
26.8706,6.4512
26.8706,6.4512
26.8706,6.4512
26.7360,6.2824
26.7066,6.2456
26.5139,6.0667
26.2966,5.9186
26.0597,5.8045
25.8677,5.7453
25.8084,5.7270
25.8084,5.7270
25.8084,5.7270
25.6471,5.7027
25.5484,5.6878
25.2855,5.6878
25.2025,5.7003
25.0255,5.7270
25.0255,5.7270
24.7742,5.8045
24.5373,5.9186
24.3201,6.0667
24.1273,6.2456
24.1273,6.2456
23.9634,6.4512
23.9634,6.4512
23.8319,6.6789
23.8319,6.6789
23.7358,6.9236
23.6773,7.1800
23.6577,7.4422
21.4442,7.4422
21.4442,7.1844
20.6672,7.1844
20.4132,7.1844
19.6362,7.1844
5.8515,7.1844
5.8515,6.9408
14.4642,6.9408
15.8412,6.9408
15.8412,5.8138
16.0952,5.8138
16.0952,6.9408
17.4722,6.9408
17.4722,6.9304
19.6362,6.9304
20.4132,6.9304
20.4132,6.0534
20.6672,6.0534
20.6672,6.9304
21.4442,6.9304
21.4442,6.2824
21.4442,6.2824
21.4294,6.2083
21.3733,6.1243
21.2893,6.0681
21.2893,6.0681
21.2152,6.0534
20.6672,6.0534
20.4132,6.0534
19.8651,6.0534
19.8651,6.0534
19.7911,6.0681
19.7070,6.1243
19.6509,6.2083
19.6509,6.2083
19.6362,6.2824
19.6362,6.9304
17.4722,6.9304
17.4722,6.0428
17.4722,6.0428
17.4574,5.9687
17.4013,5.8847
17.3173,5.8285
17.3173,5.8285
17.2432,5.8138
16.0952,5.8138
15.8412,5.8138
14.6931,5.8138
14.6931,5.8138
14.6191,5.8285
14.5350,5.8847
14.4789,5.9687
14.4789,5.9687
14.4642,6.0428
14.4642,6.9408
5.8515,6.9408
5.8515,4.6455
6.8273,4.6455
6.8566,4.8866
6.8566,4.8866
6.9242,5.1199
7.0283,5.3394
7.0283,5.3394
7.1572,5.5261
7.1663,5.5393
7.3346,5.7145
7.3346,5.7145
7.4890,5.8306
7.5287,5.8604
7.5287,5.8604
7.5288,5.8604
7.7438,5.9733
7.7438,5.9733
7.7438,5.9733
7.7438,5.9733
7.9742,6.0502
8.2140,6.0892
8.2140,6.0892
8.3961,6.0892
8.3961,6.0892
8.5776,6.0745
8.8134,6.0164
9.0369,5.9212
9.2422,5.7914
9.4240,5.6303
9.5777,5.4421
9.5996,5.4042
11.8231,5.4042
11.8744,5.4518
12.0916,5.5999
12.3284,5.7139
12.5796,5.7914
12.5796,5.7914
12.8395,5.8306
13.1024,5.8306
13.3623,5.7914
13.3623,5.7914
13.6135,5.7139
13.8504,5.5999
14.0675,5.4518
14.1188,5.4042
12.9710,4.2563
12.9710,4.2563
11.8231,5.4042
9.5996,5.4042
9.6991,5.2318
9.7018,5.2248
9.7546,5.0854
9.7853,5.0046
9.8339,4.7666
9.8436,4.5239
9.8144,4.2828
9.7547,4.0767
11.2122,4.0767
11.2318,4.3388
11.2903,4.5951
11.3863,4.8398
11.3864,4.8398
11.5178,5.0675
11.5178,5.0675
11.6433,5.2248
11.6433,5.2248
12.7914,4.0767
13.1506,4.0767
14.2987,5.2248
14.4241,5.0675
14.5556,4.8398
14.5556,4.8398
14.6516,4.5951
14.7101,4.3388
14.7298,4.0767
14.7101,3.8146
14.6685,3.6322
16.4000,3.6322
17.1778,3.6322
17.1620,3.6862
17.1620,3.8322
17.1778,3.8862
16.4000,3.8862
16.4000,4.8002
16.4147,4.8743
16.4708,4.9583
16.5549,5.0145
16.5549,5.0145
16.6289,5.0292
17.5430,5.0292
17.5430,4.2542
17.6336,4.2672
17.7063,4.2672
17.7970,4.2542
17.7970,5.0292
18.7110,5.0292
18.7110,5.0292
18.7851,5.0145
18.8691,4.9583
18.9252,4.8743
18.9252,4.8743
18.9400,4.8002
18.9400,4.3811
18.9576,4.3328
19.0021,4.3071
19.0528,4.3160
19.0833,4.3494
19.1055,4.3969
19.1055,4.3969
19.1055,4.3969
19.1311,4.4335
19.2330,4.5790
19.2330,4.5790
19.3902,4.7362
19.3902,4.7362
19.4337,4.7666
19.5723,4.8637
19.5723,4.8637
19.5723,4.8637
19.7400,4.9419
19.7738,4.9576
19.9885,5.0152
20.2100,5.0346
20.4314,5.0152
20.6462,4.9576
20.8249,4.8743
20.8476,4.8637
20.8476,4.8637
20.8476,4.8637
21.0297,4.7362
21.1869,4.5790
21.3145,4.3969
21.3170,4.3915
28.2903,4.3915
28.3196,4.6326
28.3196,4.6326
28.3872,4.8659
28.4913,5.0854
28.4913,5.0854
28.5923,5.2318
28.6293,5.2853
28.7976,5.4605
28.7976,5.4605
28.9024,5.5393
28.9917,5.6064
28.9917,5.6064
28.9918,5.6064
29.2068,5.7193
29.2068,5.7193
29.2068,5.7193
29.2068,5.7193
29.4372,5.7962
29.6770,5.8352
29.6770,5.8352
29.8591,5.8352
29.8591,5.8352
30.0406,5.8205
30.2764,5.7624
30.4999,5.6672
30.7052,5.5374
30.8870,5.3763
31.0407,5.1881
31.1621,4.9778
31.1695,4.9583
31.2422,4.7666
31.2483,4.7506
31.2969,4.5126
31.3066,4.2699
31.2774,4.0288
31.2098,3.7955
31.2098,3.7955
31.1056,3.5760
31.1056,3.5760
30.9676,3.3761
30.9676,3.3761
30.9676,3.3761
30.7994,3.2009
30.7994,3.2009
30.6052,3.0550
30.6052,3.0550
30.6052,3.0550
30.6052,3.0550
30.6052,3.0550
30.3901,2.9421
30.3901,2.9421
30.1597,2.8652
29.9199,2.8262
29.9199,2.8262
29.7378,2.8262
29.7133,2.8282
29.5563,2.8408
29.5563,2.8408
29.5563,2.8409
29.5563,2.8409
29.5563,2.8409
29.3205,2.8990
29.0970,2.9942
28.8917,3.1240
28.8917,3.1240
28.7099,3.2851
28.7099,3.2851
28.5563,3.4733
28.5563,3.4733
28.4348,3.6836
28.4348,3.6836
28.3487,3.9108
28.3487,3.9108
28.3001,4.1488
28.2903,4.3915
28.2903,4.3915
21.3170,4.3915
21.3170,4.3915
21.3443,4.3328
21.4084,4.1954
21.4659,3.9807
21.4853,3.7592
21.4659,3.5377
21.4084,3.3230
21.3515,3.2009
21.3145,3.1215
21.3145,3.1215
21.3145,3.1215
21.1869,2.9394
21.1869,2.9394
21.1869,2.9394
21.0298,2.7822
21.0297,2.7822
20.8476,2.6547
20.6462,2.5608
20.6462,2.5608
20.4995,2.5215
20.4314,2.5032
20.4314,2.5032
20.4314,2.5032
20.2100,2.4838
19.9885,2.5032
19.9885,2.5032
19.9885,2.5032
19.9858,2.5039
19.7738,2.5608
19.7738,2.5608
19.5723,2.6547
19.3902,2.7822
19.2330,2.9394
19.1055,3.1215
19.0833,3.1690
19.0469,3.2054
18.9957,3.2099
18.9536,3.1804
18.9400,3.1373
18.9400,2.7182
18.9400,2.7182
18.9252,2.6441
18.8691,2.5601
18.7851,2.5039
18.7851,2.5039
18.7110,2.4892
17.7970,2.4892
17.7970,3.2642
17.7063,3.2512
17.6336,3.2512
17.5430,3.2642
17.5430,2.4892
16.6289,2.4892
16.6289,2.4892
16.5549,2.5039
16.4708,2.5601
16.4147,2.6441
16.4147,2.6441
16.4000,2.7182
16.4000,3.6322
14.6685,3.6322
14.6516,3.5583
14.5556,3.3136
14.5556,3.3136
14.4241,3.0859
14.4241,3.0859
14.2987,2.9286
13.1506,4.0767
13.1506,4.0767
12.7914,4.0767
12.7914,4.0767
11.6433,2.9286
11.6433,2.9286
11.5178,3.0859
11.5178,3.0859
11.3864,3.3136
11.3863,3.3136
11.2903,3.5583
11.2318,3.8146
11.2122,4.0767
9.7547,4.0767
9.7468,4.0495
9.7468,4.0495
9.6426,3.8300
9.6426,3.8300
9.5046,3.6301
9.5046,3.6301
9.5046,3.6301
9.3364,3.4549
9.3364,3.4549
9.1422,3.3090
9.1422,3.3090
9.1422,3.3090
9.1422,3.3090
9.1422,3.3090
8.9271,3.1961
8.9271,3.1961
8.6967,3.1192
8.4569,3.0802
8.4569,3.0802
8.2748,3.0802
8.2503,3.0822
8.0933,3.0948
8.0933,3.0948
8.0933,3.0949
8.0933,3.0949
8.0933,3.0949
7.8575,3.1530
7.6340,3.2482
7.4287,3.3780
7.4287,3.3780
7.2469,3.5391
7.2469,3.5391
7.0933,3.7273
7.0933,3.7273
6.9718,3.9376
6.9718,3.9376
6.8857,4.1648
6.8857,4.1648
6.8371,4.4028
6.8278,4.6326
6.8273,4.6455
5.8515,4.6455
5.8515,2.7492
11.8231,2.7492
12.9710,3.8971
12.9710,3.8971
14.1188,2.7492
14.1188,2.7492
14.0675,2.7016
13.8504,2.5535
13.6135,2.4395
13.3623,2.3620
13.3623,2.3620
13.1024,2.3228
12.8395,2.3228
12.5796,2.3620
12.5796,2.3620
12.3284,2.4395
12.0916,2.5535
11.8744,2.7016
11.8231,2.7492
11.8231,2.7492
5.8515,2.7492
5.8515,2.1759
5.8691,2.1276
5.9136,2.1018
5.9267,2.1007
32.2073,2.1007
Z" /> 
</g>
</g>
</g>
<g style="fill:#000000; fill-opacity:1.0000; 
stroke:#000000; stroke-width:0.0000; stroke-opacity:1; 
stroke-linecap:round; stroke-linejoin:round;">
<circle cx="16.0190" cy="13.2842" r="0.1651" /> 
</g>
<g style="fill:#000000; fill-opacity:1.0000; 
stroke:#000000; stroke-width:0.0212; stroke-opacity:1; 
stroke-linecap:round; stroke-linejoin:round;">
</g>
<g style="fill:#000000; fill-opacity:1.0000; 
stroke:#000000; stroke-width:0.0000; stroke-opacity:1; 
stroke-linecap:round; stroke-linejoin:round;">
<circle cx="15.1300" cy="27.5717" r="0.1651" /> 
</g>
<g style="fill:#000000; fill-opacity:1.0000; 
stroke:#000000; stroke-width:0.0212; stroke-opacity:1; 
stroke-linecap:round; stroke-linejoin:round;">
</g>
<g style="fill:#000000; fill-opacity:1.0000; 
stroke:#000000; stroke-width:0.0000; stroke-opacity:1; 
stroke-linecap:round; stroke-linejoin:round;">
<circle cx="20.6545" cy="31.5087" r="0.1651" /> 
</g>
<g style="fill:#000000; fill-opacity:1.0000; 
stroke:#000000; stroke-width:0.0212; stroke-opacity:1; 
stroke-linecap:round; stroke-linejoin:round;">
</g>
<g style="fill:#000000; fill-opacity:1.0000; 
stroke:#000000; stroke-width:0.0000; stroke-opacity:1; 
stroke-linecap:round; stroke-linejoin:round;">
<circle cx="7.9545" cy="19.1262" r="0.5080" /> 
</g>
<g style="fill:#000000; fill-opacity:1.0000; 
stroke:#000000; stroke-width:0.0212; stroke-opacity:1; 
stroke-linecap:round; stroke-linejoin:round;">
</g>
<g style="fill:#000000; fill-opacity:1.0000; 
stroke:#000000; stroke-width:0.0000; stroke-opacity:1; 
stroke-linecap:round; stroke-linejoin:round;">
<circle cx="7.9545" cy="16.5862" r="0.5080" /> 
</g>
<g style="fill:#000000; fill-opacity:1.0000; 
stroke:#000000; stroke-width:0.0212; stroke-opacity:1; 
stroke-linecap:round; stroke-linejoin:round;">
</g>
<g style="fill:#000000; fill-opacity:1.0000; 
stroke:#000000; stroke-width:0.0000; stroke-opacity:1; 
stroke-linecap:round; stroke-linejoin:round;">
<circle cx="17.6700" cy="3.7592" r="0.5080" /> 
</g>
<g style="fill:#000000; fill-opacity:1.0000; 
stroke:#000000; stroke-width:0.0212; stroke-opacity:1; 
stroke-linecap:round; stroke-linejoin:round;">
</g>
<g style="fill:#000000; fill-opacity:1.0000; 
stroke:#000000; stroke-width:0.0000; stroke-opacity:1; 
stroke-linecap:round; stroke-linejoin:round;">
<circle cx="20.2100" cy="3.7592" r="0.5080" /> 
</g>
<g style="fill:#000000; fill-opacity:1.0000; 
stroke:#000000; stroke-width:0.0212; stroke-opacity:1; 
stroke-linecap:round; stroke-linejoin:round;">
</g>
<g style="fill:#000000; fill-opacity:1.0000; 
stroke:#000000; stroke-width:0.0000; stroke-opacity:1; 
stroke-linecap:round; stroke-linejoin:round;">
<circle cx="28.9222" cy="18.8214" r="0.5080" /> 
</g>
<g style="fill:#000000; fill-opacity:1.0000; 
stroke:#000000; stroke-width:0.0212; stroke-opacity:1; 
stroke-linecap:round; stroke-linejoin:round;">
</g>
<g style="fill:#000000; fill-opacity:1.0000; 
stroke:#000000; stroke-width:0.0000; stroke-opacity:1; 
stroke-linecap:round; stroke-linejoin:round;">
<circle cx="28.9222" cy="21.3614" r="0.5080" /> 
</g>
<g style="fill:#000000; fill-opacity:1.0000; 
stroke:#000000; stroke-width:0.0212; stroke-opacity:1; 
stroke-linecap:round; stroke-linejoin:round;">
</g>
<g style="fill:#000000; fill-opacity:1.0000; 
stroke:#000000; stroke-width:0.0000; stroke-opacity:1; 
stroke-linecap:round; stroke-linejoin:round;">
<circle cx="19.5750" cy="20.6502" r="0.3000" /> 
</g>
<g style="fill:#000000; fill-opacity:1.0000; 
stroke:#000000; stroke-width:0.0212; stroke-opacity:1; 
stroke-linecap:round; stroke-linejoin:round;">
</g>
<g style="fill:#000000; fill-opacity:1.0000; 
stroke:#000000; stroke-width:0.0000; stroke-opacity:1; 
stroke-linecap:round; stroke-linejoin:round;">
<circle cx="18.3050" cy="19.3802" r="0.3000" /> 
</g>
<g style="fill:#000000; fill-opacity:1.0000; 
stroke:#000000; stroke-width:0.0212; stroke-opacity:1; 
stroke-linecap:round; stroke-linejoin:round;">
</g>
<g style="fill:#000000; fill-opacity:1.0000; 
stroke:#000000; stroke-width:0.0000; stroke-opacity:1; 
stroke-linecap:round; stroke-linejoin:round;">
<circle cx="19.5750" cy="18.1102" r="0.3000" /> 
</g>
<g style="fill:#000000; fill-opacity:1.0000; 
stroke:#000000; stroke-width:0.0212; stroke-opacity:1; 
stroke-linecap:round; stroke-linejoin:round;">
</g>
<g style="fill:#000000; fill-opacity:1.0000; 
stroke:#000000; stroke-width:0.0000; stroke-opacity:1; 
stroke-linecap:round; stroke-linejoin:round;">
<circle cx="29.7985" cy="4.3307" r="1.2500" /> 
</g>
<g style="fill:#000000; fill-opacity:1.0000; 
stroke:#000000; stroke-width:0.0212; stroke-opacity:1; 
stroke-linecap:round; stroke-linejoin:round;">
</g>
<g style="fill:#000000; fill-opacity:1.0000; 
stroke:#000000; stroke-width:0.0000; stroke-opacity:1; 
stroke-linecap:round; stroke-linejoin:round;">
<circle cx="8.3355" cy="4.5847" r="1.2500" /> 
</g>
<g style="fill:#000000; fill-opacity:1.0000; 
stroke:#000000; stroke-width:0.0212; stroke-opacity:1; 
stroke-linecap:round; stroke-linejoin:round;">
</g>
<g style="fill:#000000; fill-opacity:1.0000; 
stroke:#000000; stroke-width:0.0000; stroke-opacity:1; 
stroke-linecap:round; stroke-linejoin:round;">
<circle cx="8.3990" cy="30.5562" r="1.2500" /> 
</g>
<g style="fill:#000000; fill-opacity:1.0000; 
stroke:#000000; stroke-width:0.0212; stroke-opacity:1; 
stroke-linecap:round; stroke-linejoin:round;">
</g>
<g style="fill:#000000; fill-opacity:1.0000; 
stroke:#000000; stroke-width:0.0000; stroke-opacity:1; 
stroke-linecap:round; stroke-linejoin:round;">
<circle cx="29.8620" cy="30.6832" r="1.2500" /> 
</g>
<g style="fill:#000000; fill-opacity:1.0000; 
stroke:#000000; stroke-width:0.0212; stroke-opacity:1; 
stroke-linecap:round; stroke-linejoin:round;">
</g>
<g style="fill:#FFFFFF; fill-opacity:1.0000; 
stroke:#FFFFFF; stroke-width:0.0212; stroke-opacity:1; 
stroke-linecap:round; stroke-linejoin:round;">
<g >
</g>
<g >
</g>
<g >
</g>
<g >
</g>
<g >
</g>
<g >
</g>
<g >
</g>
<g >
</g>
<g >
</g>
<g >
</g>
<g >
</g>
<g >
</g>
<g >
</g>
<g >
</g>
<g >
</g>
<g >
</g>
<g >
</g>
<g >
</g>
<g >
</g>
<g >
</g>
<g >
</g>
<g >
</g>
<g >
</g>
<g >
</g>
<g >
</g>
</g>
<g style="fill:#FFFFFF; fill-opacity:1.0000; 
stroke:#FFFFFF; stroke-width:0.0212; stroke-opacity:1; 
stroke-linecap:round; stroke-linejoin:round;">
</g>
<g style="fill:#2F2D31; fill-opacity:1.0000; 
stroke:#2F2D31; stroke-width:0.0212; stroke-opacity:1; 
stroke-linecap:round; stroke-linejoin:round;">
</g>
<g style="fill:#2F2D31; fill-opacity:1.0000; 
stroke:#2F2D31; stroke-width:0.1000; stroke-opacity:1; 
stroke-linecap:round; stroke-linejoin:round;">
</g>
<g style="fill:#2F2D31; fill-opacity:0.0; 
stroke:#2F2D31; stroke-width:0.1000; stroke-opacity:1; 
stroke-linecap:round; stroke-linejoin:round;">
<path d="M5.3510 1.6002
L5.3510 33.6042
" />
<path d="M5.3510 1.6002
L32.7830 1.6002
" />
<path d="M32.7830 33.6042
L32.7830 1.6002
" />
<path d="M32.7830 33.6042
L5.3510 33.6042
" />
<path d="M32.7830 1.6002
L32.7830 33.6042
" />
<g >
</g>
<g >
</g>
<g >
</g>
<g >
</g>
<g >
</g>
<g >
</g>
<g >
</g>
<g >
</g>
<g >
</g>
<g >
</g>
<g >
</g>
<g >
</g>
<g >
</g>
<g >
</g>
<g >
</g>
<g >
</g>
<g >
</g>
<g >
</g>
<g >
</g>
<g >
</g>
<g >
</g>
<g >
</g>
<g >
</g>
<g >
</g>
<g >
</g>
</g> 
</svg>
