<?xml version="1.0" standalone="no"?>
 <!DOCTYPE svg PUBLIC "-//W3C//DTD SVG 1.1//EN" 
 "http://www.w3.org/Graphics/SVG/1.1/DTD/svg11.dtd"> 
<svg
  xmlns:svg="http://www.w3.org/2000/svg"
  xmlns="http://www.w3.org/2000/svg"
  xmlns:xlink="http://www.w3.org/1999/xlink"
  version="1.1"
  width="25.2984mm" height="25.2984mm" viewBox="0.0000 0.0000 25.2984 25.2984">
<title>SVG Image created as working-brd.svg date 2023/09/19 17:18:40 </title>
  <desc>Image generated by PCBNEW </desc>
<g style="fill:#000000; fill-opacity:1.0000;stroke:#000000; stroke-opacity:1.0000;
stroke-linecap:round; stroke-linejoin:round;"
 transform="translate(0 0) scale(1 1)">
</g>
<g style="fill:#000000; fill-opacity:0.0; 
stroke:#000000; stroke-width:0.0000; stroke-opacity:1; 
stroke-linecap:round; stroke-linejoin:round;">
</g>
<g style="fill:#000000; fill-opacity:1.0000; 
stroke:#000000; stroke-width:0.0212; stroke-opacity:1; 
stroke-linecap:round; stroke-linejoin:round;">
<rect x="-5.000000" y="-5.000000" width="35.298400" height="35.298400" rx="0.000000" />
</g>
<g style="fill:#FFFFFF; fill-opacity:1.0000; 
stroke:#FFFFFF; stroke-width:0.0212; stroke-opacity:1; 
stroke-linecap:round; stroke-linejoin:round;">
</g>
<g style="fill:#B2803A; fill-opacity:1.0000; 
stroke:#B2803A; stroke-width:0.0212; stroke-opacity:1; 
stroke-linecap:round; stroke-linejoin:round;">
</g>
<g style="fill:#B2803A; fill-opacity:1.0000; 
stroke:#B2803A; stroke-width:0.3000; stroke-opacity:1; 
stroke-linecap:round; stroke-linejoin:round;">
</g>
<g style="fill:#B2803A; fill-opacity:0.0; 
stroke:#B2803A; stroke-width:0.3000; stroke-opacity:1; 
stroke-linecap:round; stroke-linejoin:round;">
<text x="12.7762" y="17.8442"
transform="scale(-1 1) translate(-25.552400 0)"
textLength="3.4571" font-size="2.0000" lengthAdjust="spacingAndGlyphs"
text-anchor="middle" opacity="0">CE</text>
<g class="stroked-text"><desc>CE</desc>
<path d="M12.9905 17.6297
L13.0619 17.7011
" />
<path d="M13.0619 17.7011
L13.2762 17.7725
" />
<path d="M13.2762 17.7725
L13.4191 17.7725
" />
<path d="M13.4191 17.7725
L13.6333 17.7011
" />
<path d="M13.6333 17.7011
L13.7762 17.5582
" />
<path d="M13.7762 17.5582
L13.8476 17.4154
" />
<path d="M13.8476 17.4154
L13.9191 17.1297
" />
<path d="M13.9191 17.1297
L13.9191 16.9154
" />
<path d="M13.9191 16.9154
L13.8476 16.6297
" />
<path d="M13.8476 16.6297
L13.7762 16.4868
" />
<path d="M13.7762 16.4868
L13.6333 16.3440
" />
<path d="M13.6333 16.3440
L13.4191 16.2725
" />
<path d="M13.4191 16.2725
L13.2762 16.2725
" />
<path d="M13.2762 16.2725
L13.0619 16.3440
" />
<path d="M13.0619 16.3440
L12.9905 16.4154
" />
<path d="M12.3476 16.9868
L11.8476 16.9868
" />
<path d="M11.6333 17.7725
L12.3476 17.7725
" />
<path d="M12.3476 17.7725
L12.3476 16.2725
" />
<path d="M12.3476 16.2725
L11.6333 16.2725
" />
</g><g >
</g>
<g >
</g>
<g style="fill:#121212; fill-opacity:0.0; 
stroke:#121212; stroke-width:0.3000; stroke-opacity:1; 
stroke-linecap:round; stroke-linejoin:round;">
</g>
<g style="fill:#121212; fill-opacity:1.0000; 
stroke:#121212; stroke-width:0.0000; stroke-opacity:1; 
stroke-linecap:round; stroke-linejoin:round;">
<circle cx="16.0782" cy="3.3782" r="0.3000" /> 
</g>
<g style="fill:#121212; fill-opacity:1.0000; 
stroke:#121212; stroke-width:0.0212; stroke-opacity:1; 
stroke-linecap:round; stroke-linejoin:round;">
</g>
<g style="fill:#121212; fill-opacity:1.0000; 
stroke:#121212; stroke-width:0.0000; stroke-opacity:1; 
stroke-linecap:round; stroke-linejoin:round;">
<circle cx="9.2202" cy="3.3782" r="0.3000" /> 
</g>
<g style="fill:#121212; fill-opacity:1.0000; 
stroke:#121212; stroke-width:0.0212; stroke-opacity:1; 
stroke-linecap:round; stroke-linejoin:round;">
</g>
<g >
</g>
<g style="fill:#B2803A; fill-opacity:1.0000; 
stroke:#B2803A; stroke-width:0.0212; stroke-opacity:1; 
stroke-linecap:round; stroke-linejoin:round;">
</g>
<g style="fill:#B2803A; fill-opacity:1.0000; 
stroke:#B2803A; stroke-width:0.2500; stroke-opacity:1; 
stroke-linecap:round; stroke-linejoin:round;">
</g>
<g style="fill:#B2803A; fill-opacity:0.0; 
stroke:#B2803A; stroke-width:0.2500; stroke-opacity:1; 
stroke-linecap:round; stroke-linejoin:round;">
<path d="M9.2202 4.3942
L9.2202 3.3782
" />
<path d="M9.2202 4.3942
L10.2362 5.4102
" />
<path d="M10.2362 5.4102
L10.2362 6.9342
" />
<path d="M10.2362 6.9342
L10.7442 7.4422
" />
<path d="M10.7442 7.4422
L14.0462 7.4422
" />
<path d="M14.0462 7.4422
L14.8082 6.6802
" />
<path d="M14.8082 6.6802
L14.8082 5.4102
" />
<path d="M14.8082 5.4102
L16.0782 4.1402
" />
<path d="M16.0782 3.3782
L16.0782 4.1402
" />
</g>
<g >
</g>
</g>
<g style="fill:#000000; fill-opacity:0.0; 
stroke:#000000; stroke-width:0.2500; stroke-opacity:1; 
stroke-linecap:round; stroke-linejoin:round;">
</g>
<g style="fill:#000000; fill-opacity:1.0000; 
stroke:#000000; stroke-width:0.0000; stroke-opacity:1; 
stroke-linecap:round; stroke-linejoin:round;">
<circle cx="16.0782" cy="3.3782" r="0.2000" /> 
</g>
<g style="fill:#000000; fill-opacity:1.0000; 
stroke:#000000; stroke-width:0.0212; stroke-opacity:1; 
stroke-linecap:round; stroke-linejoin:round;">
</g>
<g style="fill:#000000; fill-opacity:1.0000; 
stroke:#000000; stroke-width:0.0000; stroke-opacity:1; 
stroke-linecap:round; stroke-linejoin:round;">
<circle cx="9.2202" cy="3.3782" r="0.2000" /> 
</g>
<g style="fill:#000000; fill-opacity:1.0000; 
stroke:#000000; stroke-width:0.0212; stroke-opacity:1; 
stroke-linecap:round; stroke-linejoin:round;">
</g>
<g style="fill:#FFFFFF; fill-opacity:1.0000; 
stroke:#FFFFFF; stroke-width:0.0212; stroke-opacity:1; 
stroke-linecap:round; stroke-linejoin:round;">
</g>
<g style="fill:#37CBCB; fill-opacity:1.0000; 
stroke:#37CBCB; stroke-width:0.0212; stroke-opacity:1; 
stroke-linecap:round; stroke-linejoin:round;">
</g>
<g style="fill:#37CBCB; fill-opacity:1.0000; 
stroke:#37CBCB; stroke-width:0.3000; stroke-opacity:1; 
stroke-linecap:round; stroke-linejoin:round;">
</g>
<g style="fill:#37CBCB; fill-opacity:0.0; 
stroke:#37CBCB; stroke-width:0.3000; stroke-opacity:1; 
stroke-linecap:round; stroke-linejoin:round;">
<text x="12.7762" y="8.7002"
textLength="6.8143" font-size="2.0000" lengthAdjust="spacingAndGlyphs"
text-anchor="middle" opacity="0">Motor</text>
<g class="stroked-text"><desc>Motor</desc>
<path d="M10.0262 8.6285
L10.0262 7.1285
" />
<path d="M10.0262 7.1285
L10.5262 8.2000
" />
<path d="M10.5262 8.2000
L11.0262 7.1285
" />
<path d="M11.0262 7.1285
L11.0262 8.6285
" />
<path d="M11.9548 8.6285
L11.8119 8.5571
" />
<path d="M11.8119 8.5571
L11.7405 8.4857
" />
<path d="M11.7405 8.4857
L11.6691 8.3428
" />
<path d="M11.6691 8.3428
L11.6691 7.9142
" />
<path d="M11.6691 7.9142
L11.7405 7.7714
" />
<path d="M11.7405 7.7714
L11.8119 7.7000
" />
<path d="M11.8119 7.7000
L11.9548 7.6285
" />
<path d="M11.9548 7.6285
L12.1691 7.6285
" />
<path d="M12.1691 7.6285
L12.3119 7.7000
" />
<path d="M12.3119 7.7000
L12.3833 7.7714
" />
<path d="M12.3833 7.7714
L12.4548 7.9142
" />
<path d="M12.4548 7.9142
L12.4548 8.3428
" />
<path d="M12.4548 8.3428
L12.3833 8.4857
" />
<path d="M12.3833 8.4857
L12.3119 8.5571
" />
<path d="M12.3119 8.5571
L12.1691 8.6285
" />
<path d="M12.1691 8.6285
L11.9548 8.6285
" />
<path d="M12.8833 7.6285
L13.4548 7.6285
" />
<path d="M13.0976 7.1285
L13.0976 8.4142
" />
<path d="M13.0976 8.4142
L13.1691 8.5571
" />
<path d="M13.1691 8.5571
L13.3119 8.6285
" />
<path d="M13.3119 8.6285
L13.4548 8.6285
" />
<path d="M14.1691 8.6285
L14.0262 8.5571
" />
<path d="M14.0262 8.5571
L13.9548 8.4857
" />
<path d="M13.9548 8.4857
L13.8833 8.3428
" />
<path d="M13.8833 8.3428
L13.8833 7.9142
" />
<path d="M13.8833 7.9142
L13.9548 7.7714
" />
<path d="M13.9548 7.7714
L14.0262 7.7000
" />
<path d="M14.0262 7.7000
L14.1691 7.6285
" />
<path d="M14.1691 7.6285
L14.3833 7.6285
" />
<path d="M14.3833 7.6285
L14.5262 7.7000
" />
<path d="M14.5262 7.7000
L14.5976 7.7714
" />
<path d="M14.5976 7.7714
L14.6691 7.9142
" />
<path d="M14.6691 7.9142
L14.6691 8.3428
" />
<path d="M14.6691 8.3428
L14.5976 8.4857
" />
<path d="M14.5976 8.4857
L14.5262 8.5571
" />
<path d="M14.5262 8.5571
L14.3833 8.6285
" />
<path d="M14.3833 8.6285
L14.1691 8.6285
" />
<path d="M15.3119 8.6285
L15.3119 7.6285
" />
<path d="M15.3119 7.9142
L15.3833 7.7714
" />
<path d="M15.3833 7.7714
L15.4548 7.7000
" />
<path d="M15.4548 7.7000
L15.5976 7.6285
" />
<path d="M15.5976 7.6285
L15.7405 7.6285
" />
</g><text x="2.8702" y="9.4622"
textLength="1.9571" font-size="2.0000" lengthAdjust="spacingAndGlyphs"
text-anchor="middle" opacity="0">E</text>
<g class="stroked-text"><desc>E</desc>
<path d="M2.5488 8.6048
L3.0488 8.6048
" />
<path d="M3.2631 9.3905
L2.5488 9.3905
" />
<path d="M2.5488 9.3905
L2.5488 7.8905
" />
<path d="M2.5488 7.8905
L3.2631 7.8905
" />
</g><text x="22.1742" y="9.4622"
textLength="1.9571" font-size="2.0000" lengthAdjust="spacingAndGlyphs"
text-anchor="middle" opacity="0">E</text>
<g class="stroked-text"><desc>E</desc>
<path d="M21.8528 8.6048
L22.3528 8.6048
" />
<path d="M22.5671 9.3905
L21.8528 9.3905
" />
<path d="M21.8528 9.3905
L21.8528 7.8905
" />
<path d="M21.8528 7.8905
L22.5671 7.8905
" />
</g><text x="22.1742" y="16.8282"
textLength="2.1000" font-size="2.0000" lengthAdjust="spacingAndGlyphs"
text-anchor="middle" opacity="0">D</text>
<g class="stroked-text"><desc>D</desc>
<path d="M21.7813 16.7565
L21.7813 15.2565
" />
<path d="M21.7813 15.2565
L22.1385 15.2565
" />
<path d="M22.1385 15.2565
L22.3528 15.3280
" />
<path d="M22.3528 15.3280
L22.4956 15.4708
" />
<path d="M22.4956 15.4708
L22.5671 15.6137
" />
<path d="M22.5671 15.6137
L22.6385 15.8994
" />
<path d="M22.6385 15.8994
L22.6385 16.1137
" />
<path d="M22.6385 16.1137
L22.5671 16.3994
" />
<path d="M22.5671 16.3994
L22.4956 16.5422
" />
<path d="M22.4956 16.5422
L22.3528 16.6851
" />
<path d="M22.3528 16.6851
L22.1385 16.7565
" />
<path d="M22.1385 16.7565
L21.7813 16.7565
" />
</g><text x="8.7122" y="22.6702"
textLength="2.1000" font-size="2.0000" lengthAdjust="spacingAndGlyphs"
text-anchor="middle" opacity="0">C</text>
<g class="stroked-text"><desc>C</desc>
<path d="M9.1765 22.4557
L9.1051 22.5271
" />
<path d="M9.1051 22.5271
L8.8908 22.5985
" />
<path d="M8.8908 22.5985
L8.7479 22.5985
" />
<path d="M8.7479 22.5985
L8.5336 22.5271
" />
<path d="M8.5336 22.5271
L8.3908 22.3842
" />
<path d="M8.3908 22.3842
L8.3193 22.2414
" />
<path d="M8.3193 22.2414
L8.2479 21.9557
" />
<path d="M8.2479 21.9557
L8.2479 21.7414
" />
<path d="M8.2479 21.7414
L8.3193 21.4557
" />
<path d="M8.3193 21.4557
L8.3908 21.3128
" />
<path d="M8.3908 21.3128
L8.5336 21.1700
" />
<path d="M8.5336 21.1700
L8.7479 21.0985
" />
<path d="M8.7479 21.0985
L8.8908 21.0985
" />
<path d="M8.8908 21.0985
L9.1051 21.1700
" />
<path d="M9.1051 21.1700
L9.1765 21.2414
" />
</g><text x="16.8402" y="22.6702"
textLength="2.1714" font-size="2.0000" lengthAdjust="spacingAndGlyphs"
text-anchor="middle" opacity="0">O</text>
<g class="stroked-text"><desc>O</desc>
<path d="M16.6973 21.0985
L16.9831 21.0985
" />
<path d="M16.9831 21.0985
L17.1259 21.1700
" />
<path d="M17.1259 21.1700
L17.2688 21.3128
" />
<path d="M17.2688 21.3128
L17.3402 21.5985
" />
<path d="M17.3402 21.5985
L17.3402 22.0985
" />
<path d="M17.3402 22.0985
L17.2688 22.3842
" />
<path d="M17.2688 22.3842
L17.1259 22.5271
" />
<path d="M17.1259 22.5271
L16.9831 22.5985
" />
<path d="M16.9831 22.5985
L16.6973 22.5985
" />
<path d="M16.6973 22.5985
L16.5545 22.5271
" />
<path d="M16.5545 22.5271
L16.4116 22.3842
" />
<path d="M16.4116 22.3842
L16.3402 22.0985
" />
<path d="M16.3402 22.0985
L16.3402 21.5985
" />
<path d="M16.3402 21.5985
L16.4116 21.3128
" />
<path d="M16.4116 21.3128
L16.5545 21.1700
" />
<path d="M16.5545 21.1700
L16.6973 21.0985
" />
</g><text x="3.3782" y="17.0822"
textLength="2.1714" font-size="2.0000" lengthAdjust="spacingAndGlyphs"
text-anchor="middle" opacity="0">N</text>
<g class="stroked-text"><desc>N</desc>
<path d="M2.9496 17.0105
L2.9496 15.5105
" />
<path d="M2.9496 15.5105
L3.8068 17.0105
" />
<path d="M3.8068 17.0105
L3.8068 15.5105
" />
</g><g >
</g>
<g >
</g>
<g style="fill:#121212; fill-opacity:0.0; 
stroke:#121212; stroke-width:0.3000; stroke-opacity:1; 
stroke-linecap:round; stroke-linejoin:round;">
</g>
<g style="fill:#121212; fill-opacity:1.0000; 
stroke:#121212; stroke-width:0.0000; stroke-opacity:1; 
stroke-linecap:round; stroke-linejoin:round;">
<circle cx="16.0782" cy="3.3782" r="0.3000" /> 
</g>
<g style="fill:#121212; fill-opacity:1.0000; 
stroke:#121212; stroke-width:0.0212; stroke-opacity:1; 
stroke-linecap:round; stroke-linejoin:round;">
</g>
<g style="fill:#121212; fill-opacity:1.0000; 
stroke:#121212; stroke-width:0.0000; stroke-opacity:1; 
stroke-linecap:round; stroke-linejoin:round;">
<circle cx="9.2202" cy="3.3782" r="0.3000" /> 
</g>
<g style="fill:#121212; fill-opacity:1.0000; 
stroke:#121212; stroke-width:0.0212; stroke-opacity:1; 
stroke-linecap:round; stroke-linejoin:round;">
</g>
<g >
</g>
<g >
</g>
</g>
<g style="fill:#000000; fill-opacity:1.0000; 
stroke:#000000; stroke-width:0.0212; stroke-opacity:1; 
stroke-linecap:round; stroke-linejoin:round;">
</g>
<g style="fill:#000000; fill-opacity:1.0000; 
stroke:#000000; stroke-width:0.0000; stroke-opacity:1; 
stroke-linecap:round; stroke-linejoin:round;">
<circle cx="16.0782" cy="3.3782" r="0.2000" /> 
</g>
<g style="fill:#000000; fill-opacity:1.0000; 
stroke:#000000; stroke-width:0.0212; stroke-opacity:1; 
stroke-linecap:round; stroke-linejoin:round;">
</g>
<g style="fill:#000000; fill-opacity:1.0000; 
stroke:#000000; stroke-width:0.0000; stroke-opacity:1; 
stroke-linecap:round; stroke-linejoin:round;">
<circle cx="9.2202" cy="3.3782" r="0.2000" /> 
</g>
<g style="fill:#000000; fill-opacity:1.0000; 
stroke:#000000; stroke-width:0.0212; stroke-opacity:1; 
stroke-linecap:round; stroke-linejoin:round;">
</g>
<g style="fill:#FFFFFF; fill-opacity:1.0000; 
stroke:#FFFFFF; stroke-width:0.0212; stroke-opacity:1; 
stroke-linecap:round; stroke-linejoin:round;">
<g >
</g>
<g >
</g>
<g >
</g>
<g >
</g>
</g>
<g style="fill:#FFFFFF; fill-opacity:1.0000; 
stroke:#FFFFFF; stroke-width:0.0212; stroke-opacity:1; 
stroke-linecap:round; stroke-linejoin:round;">
</g>
<g style="fill:#2F2D31; fill-opacity:1.0000; 
stroke:#2F2D31; stroke-width:0.0212; stroke-opacity:1; 
stroke-linecap:round; stroke-linejoin:round;">
</g>
<g style="fill:#2F2D31; fill-opacity:1.0000; 
stroke:#2F2D31; stroke-width:0.1524; stroke-opacity:1; 
stroke-linecap:round; stroke-linejoin:round;">
</g>
<g style="fill:#2F2D31; fill-opacity:0.0; 
stroke:#2F2D31; stroke-width:0.1524; stroke-opacity:1; 
stroke-linecap:round; stroke-linejoin:round;">
<path d="M11.2522 0.0762
L4.6482 2.8702
" />
<path d="M4.9022 22.4282
L11.5062 25.2222
" />
<path d="M18.1102 16.0782
L18.3642 15.8242
" />
<path d="M14.0462 6.4262
L11.2522 6.4262
" />
<path d="M7.1882 9.2202
L2.8702 4.9022
" />
<path d="M14.3002 18.8722
L14.3002 25.2222
" />
<path d="M14.8082 15.5702
L14.8082 9.7282
" />
<path d="M11.5062 25.2222
L11.5062 18.8722
" />
<path d="M6.4262 11.2522
L6.4262 14.0462
" />
<path d="M2.8702 20.3962
L7.4422 16.0782
" />
<path d="M14.8082 9.7282
L10.7442 9.7282
" />
<path d="M22.6822 4.6482
L18.1102 9.2202
" />
<path d="M0.0762 11.2522
L6.4262 11.2522
" />
<path d="M19.1262 13.7922
L19.1262 10.9982
" />
<path d="M4.6482 2.8702
L9.2202 7.4422
" />
<path d="M2.8702 4.9022
L0.0762 11.2522
" />
<path d="M14.3002 25.2222
L20.6502 22.1742
" />
<path d="M25.2222 13.7922
L19.1262 13.7922
" />
<path d="M20.6502 22.1742
L16.3322 17.8562
" />
<path d="M0.0762 14.0462
L2.8702 20.3962
" />
<path d="M11.5062 18.8722
L14.3002 18.8722
" />
<path d="M16.3322 17.8562
L18.1102 16.0782
" />
<path d="M10.7442 9.7282
L10.7442 15.5702
" />
<path d="M9.2202 17.8562
L4.9022 22.4282
" />
<path d="M11.2522 6.4262
L11.2522 0.0762
" />
<path d="M9.2202 7.4422
L7.1882 9.2202
" />
<path d="M10.7442 15.5702
L14.8082 15.5702
" />
<path d="M6.4262 14.0462
L0.0762 14.0462
" />
<path d="M7.4422 16.0782
L9.2202 17.8562
" />
<path d="M15.8242 6.9342
L20.1422 2.6162
" />
<path d="M18.3642 15.8242
L22.6822 20.1422
" />
<path d="M18.1102 9.2202
L15.8242 6.9342
" />
<path d="M20.1422 2.6162
L14.0462 0.0762
" />
<path d="M25.2222 10.9982
L22.6822 4.6482
" />
<path d="M19.1262 10.9982
L25.2222 10.9982
" />
<path d="M22.6822 20.1422
L25.2222 13.7922
" />
<path d="M14.0462 0.0762
L14.0462 6.4262
" />
<g >
</g>
<g >
</g>
<g >
</g>
<g >
</g>
</g> 
</svg>
