<?xml version="1.0" standalone="no"?>
 <!DOCTYPE svg PUBLIC "-//W3C//DTD SVG 1.1//EN" 
 "http://www.w3.org/Graphics/SVG/1.1/DTD/svg11.dtd"> 
<svg
  xmlns:svg="http://www.w3.org/2000/svg"
  xmlns="http://www.w3.org/2000/svg"
  xmlns:xlink="http://www.w3.org/1999/xlink"
  version="1.1"
  width="45.3136mm" height="25.7556mm" viewBox="0.0000 0.0000 45.3136 25.7556">
<title>SVG Image created as working-brd.svg date 2023/09/28 22:54:35 </title>
  <desc>Image generated by PCBNEW </desc>
<g style="fill:#000000; fill-opacity:1.0000;stroke:#000000; stroke-opacity:1.0000;
stroke-linecap:round; stroke-linejoin:round;"
 transform="translate(0 0) scale(1 1)">
</g>
<g style="fill:#000000; fill-opacity:0.0; 
stroke:#000000; stroke-width:0.0000; stroke-opacity:1; 
stroke-linecap:round; stroke-linejoin:round;">
</g>
<g style="fill:#000000; fill-opacity:1.0000; 
stroke:#000000; stroke-width:0.0212; stroke-opacity:1; 
stroke-linecap:round; stroke-linejoin:round;">
<rect x="-5.000000" y="-5.000000" width="55.323250" height="35.778012" rx="0.000000" />
</g>
<g style="fill:#FFFFFF; fill-opacity:1.0000; 
stroke:#FFFFFF; stroke-width:0.0212; stroke-opacity:1; 
stroke-linecap:round; stroke-linejoin:round;">
<g >
</g>
<g style="fill:#B2803A; fill-opacity:1.0000; 
stroke:#B2803A; stroke-width:0.0212; stroke-opacity:1; 
stroke-linecap:round; stroke-linejoin:round;">
</g>
<g style="fill:#B2803A; fill-opacity:1.0000; 
stroke:#B2803A; stroke-width:0.0000; stroke-opacity:1; 
stroke-linecap:round; stroke-linejoin:round;">
<path style="fill:#B2803A; fill-opacity:1.0000; 
stroke:#B2803A; stroke-width:0.0000; stroke-opacity:1; 
stroke-linecap:round; stroke-linejoin:round;fill-rule:evenodd;"
d="M 5.4982,22.6798
3.1982,22.6798
3.1982,20.3798
5.4982,20.3798
Z" /> 
<path style="fill:#B2803A; fill-opacity:1.0000; 
stroke:#B2803A; stroke-width:0.0000; stroke-opacity:1; 
stroke-linecap:round; stroke-linejoin:round;fill-rule:evenodd;"
d="M 5.4982,20.1798
3.1982,20.1798
3.1982,17.8798
5.4982,17.8798
Z" /> 
<path style="fill:#B2803A; fill-opacity:1.0000; 
stroke:#B2803A; stroke-width:0.0000; stroke-opacity:1; 
stroke-linecap:round; stroke-linejoin:round;fill-rule:evenodd;"
d="M 5.4982,17.6798
3.1982,17.6798
3.1982,15.3798
5.4982,15.3798
Z" /> 
</g>
<g >
</g>
<g style="fill:#B2803A; fill-opacity:1.0000; 
stroke:#B2803A; stroke-width:0.0000; stroke-opacity:1; 
stroke-linecap:round; stroke-linejoin:round;">
<path style="fill:#B2803A; fill-opacity:1.0000; 
stroke:#B2803A; stroke-width:0.0000; stroke-opacity:1; 
stroke-linecap:round; stroke-linejoin:round;fill-rule:evenodd;"
d="M 5.4982,11.2798
3.1982,11.2798
3.1982,8.9798
5.4982,8.9798
Z" /> 
<path style="fill:#B2803A; fill-opacity:1.0000; 
stroke:#B2803A; stroke-width:0.0000; stroke-opacity:1; 
stroke-linecap:round; stroke-linejoin:round;fill-rule:evenodd;"
d="M 5.4982,8.7798
3.1982,8.7798
3.1982,6.4798
5.4982,6.4798
Z" /> 
</g>
<g >
</g>
<g >
</g>
<g >
</g>
<g >
</g>
<g >
</g>
<g >
</g>
<g >
</g>
<g >
</g>
<g >
</g>
<g >
</g>
<g >
</g>
<g >
</g>
<g >
</g>
<g >
</g>
<g style="fill:#B2803A; fill-opacity:1.0000; 
stroke:#B2803A; stroke-width:0.0000; stroke-opacity:1; 
stroke-linecap:round; stroke-linejoin:round;">
<circle cx="30.0482" cy="7.4298" r="1.1000" /> 
</g>
<g style="fill:#B2803A; fill-opacity:1.0000; 
stroke:#B2803A; stroke-width:0.0212; stroke-opacity:1; 
stroke-linecap:round; stroke-linejoin:round;">
</g>
<g style="fill:#B2803A; fill-opacity:1.0000; 
stroke:#B2803A; stroke-width:0.0000; stroke-opacity:1; 
stroke-linecap:round; stroke-linejoin:round;">
<circle cx="30.0482" cy="12.4298" r="1.1000" /> 
</g>
<g style="fill:#B2803A; fill-opacity:1.0000; 
stroke:#B2803A; stroke-width:0.0212; stroke-opacity:1; 
stroke-linecap:round; stroke-linejoin:round;">
</g>
<g style="fill:#B2803A; fill-opacity:1.0000; 
stroke:#B2803A; stroke-width:0.0000; stroke-opacity:1; 
stroke-linecap:round; stroke-linejoin:round;">
<circle cx="30.0482" cy="9.9298" r="1.1000" /> 
</g>
<g style="fill:#B2803A; fill-opacity:1.0000; 
stroke:#B2803A; stroke-width:0.0212; stroke-opacity:1; 
stroke-linecap:round; stroke-linejoin:round;">
</g>
<g >
</g>
<g >
</g>
<g >
</g>
<g >
</g>
<g >
</g>
<g >
</g>
<g >
</g>
<g style="fill:#121212; fill-opacity:1.0000; 
stroke:#121212; stroke-width:0.0212; stroke-opacity:1; 
stroke-linecap:round; stroke-linejoin:round;">
</g>
<g style="fill:#121212; fill-opacity:1.0000; 
stroke:#121212; stroke-width:0.0000; stroke-opacity:1; 
stroke-linecap:round; stroke-linejoin:round;">
<circle cx="24.0482" cy="22.7848" r="1.0000" /> 
</g>
<g style="fill:#121212; fill-opacity:1.0000; 
stroke:#121212; stroke-width:0.0212; stroke-opacity:1; 
stroke-linecap:round; stroke-linejoin:round;">
</g>
<g style="fill:#121212; fill-opacity:1.0000; 
stroke:#121212; stroke-width:0.0000; stroke-opacity:1; 
stroke-linecap:round; stroke-linejoin:round;">
<circle cx="15.6482" cy="22.6298" r="1.0000" /> 
</g>
<g style="fill:#121212; fill-opacity:1.0000; 
stroke:#121212; stroke-width:0.0212; stroke-opacity:1; 
stroke-linecap:round; stroke-linejoin:round;">
</g>
<g >
</g>
<g style="fill:#B2803A; fill-opacity:1.0000; 
stroke:#B2803A; stroke-width:0.0212; stroke-opacity:1; 
stroke-linecap:round; stroke-linejoin:round;">
</g>
<g style="fill:#B2803A; fill-opacity:1.0000; 
stroke:#B2803A; stroke-width:0.4500; stroke-opacity:1; 
stroke-linecap:round; stroke-linejoin:round;">
</g>
<g style="fill:#B2803A; fill-opacity:0.0; 
stroke:#B2803A; stroke-width:0.4500; stroke-opacity:1; 
stroke-linecap:round; stroke-linejoin:round;">
<path d="M30.0482 9.9298
L24.0482 15.9298
" />
<path d="M24.0482 15.9298
L24.0482 21.3706
" />
<path d="M24.0482 21.3706
L24.0482 22.7848
" />
<path d="M9.5482 16.5298
L4.3483 16.5298
" />
<path d="M15.6482 22.6298
L9.5482 16.5298
" />
</g>
<g >
</g>
</g>
<g style="fill:#000000; fill-opacity:0.0; 
stroke:#000000; stroke-width:0.4500; stroke-opacity:1; 
stroke-linecap:round; stroke-linejoin:round;">
</g>
<g style="fill:#000000; fill-opacity:1.0000; 
stroke:#000000; stroke-width:0.0000; stroke-opacity:1; 
stroke-linecap:round; stroke-linejoin:round;">
<circle cx="24.0482" cy="22.7848" r="0.2000" /> 
</g>
<g style="fill:#000000; fill-opacity:1.0000; 
stroke:#000000; stroke-width:0.0212; stroke-opacity:1; 
stroke-linecap:round; stroke-linejoin:round;">
</g>
<g style="fill:#000000; fill-opacity:1.0000; 
stroke:#000000; stroke-width:0.0000; stroke-opacity:1; 
stroke-linecap:round; stroke-linejoin:round;">
<circle cx="15.6482" cy="22.6298" r="0.2000" /> 
</g>
<g style="fill:#000000; fill-opacity:1.0000; 
stroke:#000000; stroke-width:0.0212; stroke-opacity:1; 
stroke-linecap:round; stroke-linejoin:round;">
</g>
<g style="fill:#000000; fill-opacity:1.0000; 
stroke:#000000; stroke-width:0.0000; stroke-opacity:1; 
stroke-linecap:round; stroke-linejoin:round;">
<circle cx="4.3483" cy="21.5298" r="0.4500" /> 
</g>
<g style="fill:#000000; fill-opacity:1.0000; 
stroke:#000000; stroke-width:0.0212; stroke-opacity:1; 
stroke-linecap:round; stroke-linejoin:round;">
</g>
<g style="fill:#000000; fill-opacity:1.0000; 
stroke:#000000; stroke-width:0.0000; stroke-opacity:1; 
stroke-linecap:round; stroke-linejoin:round;">
<circle cx="4.3483" cy="19.0298" r="0.4500" /> 
</g>
<g style="fill:#000000; fill-opacity:1.0000; 
stroke:#000000; stroke-width:0.0212; stroke-opacity:1; 
stroke-linecap:round; stroke-linejoin:round;">
</g>
<g style="fill:#000000; fill-opacity:1.0000; 
stroke:#000000; stroke-width:0.0000; stroke-opacity:1; 
stroke-linecap:round; stroke-linejoin:round;">
<circle cx="4.3483" cy="16.5298" r="0.4500" /> 
</g>
<g style="fill:#000000; fill-opacity:1.0000; 
stroke:#000000; stroke-width:0.0212; stroke-opacity:1; 
stroke-linecap:round; stroke-linejoin:round;">
</g>
<g style="fill:#000000; fill-opacity:1.0000; 
stroke:#000000; stroke-width:0.0000; stroke-opacity:1; 
stroke-linecap:round; stroke-linejoin:round;">
<circle cx="4.3483" cy="10.1298" r="0.5000" /> 
</g>
<g style="fill:#000000; fill-opacity:1.0000; 
stroke:#000000; stroke-width:0.0212; stroke-opacity:1; 
stroke-linecap:round; stroke-linejoin:round;">
</g>
<g style="fill:#000000; fill-opacity:1.0000; 
stroke:#000000; stroke-width:0.0000; stroke-opacity:1; 
stroke-linecap:round; stroke-linejoin:round;">
<circle cx="4.3483" cy="7.6298" r="0.5000" /> 
</g>
<g style="fill:#000000; fill-opacity:1.0000; 
stroke:#000000; stroke-width:0.0212; stroke-opacity:1; 
stroke-linecap:round; stroke-linejoin:round;">
</g>
<g style="fill:#000000; fill-opacity:1.0000; 
stroke:#000000; stroke-width:0.0000; stroke-opacity:1; 
stroke-linecap:round; stroke-linejoin:round;">
<circle cx="37.5482" cy="4.3298" r="1.2500" /> 
</g>
<g style="fill:#000000; fill-opacity:1.0000; 
stroke:#000000; stroke-width:0.0212; stroke-opacity:1; 
stroke-linecap:round; stroke-linejoin:round;">
</g>
<g style="fill:#000000; fill-opacity:1.0000; 
stroke:#000000; stroke-width:0.0000; stroke-opacity:1; 
stroke-linecap:round; stroke-linejoin:round;">
<circle cx="37.5482" cy="15.5298" r="1.2500" /> 
</g>
<g style="fill:#000000; fill-opacity:1.0000; 
stroke:#000000; stroke-width:0.0212; stroke-opacity:1; 
stroke-linecap:round; stroke-linejoin:round;">
</g>
<g style="fill:#000000; fill-opacity:1.0000; 
stroke:#000000; stroke-width:0.0000; stroke-opacity:1; 
stroke-linecap:round; stroke-linejoin:round;">
<circle cx="30.0482" cy="7.4298" r="0.3810" /> 
</g>
<g style="fill:#000000; fill-opacity:1.0000; 
stroke:#000000; stroke-width:0.0212; stroke-opacity:1; 
stroke-linecap:round; stroke-linejoin:round;">
</g>
<g style="fill:#000000; fill-opacity:1.0000; 
stroke:#000000; stroke-width:0.0000; stroke-opacity:1; 
stroke-linecap:round; stroke-linejoin:round;">
<circle cx="30.0482" cy="12.4298" r="0.3810" /> 
</g>
<g style="fill:#000000; fill-opacity:1.0000; 
stroke:#000000; stroke-width:0.0212; stroke-opacity:1; 
stroke-linecap:round; stroke-linejoin:round;">
</g>
<g style="fill:#000000; fill-opacity:1.0000; 
stroke:#000000; stroke-width:0.0000; stroke-opacity:1; 
stroke-linecap:round; stroke-linejoin:round;">
<circle cx="30.0482" cy="9.9298" r="0.3810" /> 
</g>
<g style="fill:#000000; fill-opacity:1.0000; 
stroke:#000000; stroke-width:0.0212; stroke-opacity:1; 
stroke-linecap:round; stroke-linejoin:round;">
</g>
<g style="fill:#FFFFFF; fill-opacity:1.0000; 
stroke:#FFFFFF; stroke-width:0.0212; stroke-opacity:1; 
stroke-linecap:round; stroke-linejoin:round;">
<g >
</g>
<g style="fill:#37CBCB; fill-opacity:1.0000; 
stroke:#37CBCB; stroke-width:0.0212; stroke-opacity:1; 
stroke-linecap:round; stroke-linejoin:round;">
</g>
<g style="fill:#37CBCB; fill-opacity:1.0000; 
stroke:#37CBCB; stroke-width:0.0000; stroke-opacity:1; 
stroke-linecap:round; stroke-linejoin:round;">
<path style="fill:#37CBCB; fill-opacity:1.0000; 
stroke:#37CBCB; stroke-width:0.0000; stroke-opacity:1; 
stroke-linecap:round; stroke-linejoin:round;fill-rule:evenodd;"
d="M 5.4982,22.6798
3.1982,22.6798
3.1982,20.3798
5.4982,20.3798
Z" /> 
<path style="fill:#37CBCB; fill-opacity:1.0000; 
stroke:#37CBCB; stroke-width:0.0000; stroke-opacity:1; 
stroke-linecap:round; stroke-linejoin:round;fill-rule:evenodd;"
d="M 5.4982,20.1798
3.1982,20.1798
3.1982,17.8798
5.4982,17.8798
Z" /> 
<path style="fill:#37CBCB; fill-opacity:1.0000; 
stroke:#37CBCB; stroke-width:0.0000; stroke-opacity:1; 
stroke-linecap:round; stroke-linejoin:round;fill-rule:evenodd;"
d="M 5.4982,17.6798
3.1982,17.6798
3.1982,15.3798
5.4982,15.3798
Z" /> 
</g>
<g >
</g>
<g style="fill:#37CBCB; fill-opacity:1.0000; 
stroke:#37CBCB; stroke-width:0.0000; stroke-opacity:1; 
stroke-linecap:round; stroke-linejoin:round;">
<path style="fill:#37CBCB; fill-opacity:1.0000; 
stroke:#37CBCB; stroke-width:0.0000; stroke-opacity:1; 
stroke-linecap:round; stroke-linejoin:round;fill-rule:evenodd;"
d="M 5.4982,11.2798
3.1982,11.2798
3.1982,8.9798
5.4982,8.9798
Z" /> 
<path style="fill:#37CBCB; fill-opacity:1.0000; 
stroke:#37CBCB; stroke-width:0.0000; stroke-opacity:1; 
stroke-linecap:round; stroke-linejoin:round;fill-rule:evenodd;"
d="M 5.4982,8.7798
3.1982,8.7798
3.1982,6.4798
5.4982,6.4798
Z" /> 
</g>
<g >
</g>
<g style="fill:#37CBCB; fill-opacity:1.0000; 
stroke:#37CBCB; stroke-width:0.0000; stroke-opacity:1; 
stroke-linecap:round; stroke-linejoin:round;">
<path style="fill:#37CBCB; fill-opacity:1.0000; 
stroke:#37CBCB; stroke-width:0.0000; stroke-opacity:1; 
stroke-linecap:round; stroke-linejoin:round;fill-rule:evenodd;"
d="M 17.1032,6.1798
17.1032,4.8798
18.8932,4.8798
18.8932,6.1798
Z" /> 
<path style="fill:#37CBCB; fill-opacity:1.0000; 
stroke:#37CBCB; stroke-width:0.0000; stroke-opacity:1; 
stroke-linecap:round; stroke-linejoin:round;fill-rule:evenodd;"
d="M 19.1032,6.1798
19.1032,4.8798
20.8932,4.8798
20.8932,6.1798
Z" /> 
</g>
<g >
</g>
<g style="fill:#37CBCB; fill-opacity:1.0000; 
stroke:#37CBCB; stroke-width:0.0000; stroke-opacity:1; 
stroke-linecap:round; stroke-linejoin:round;">
<path style="fill:#37CBCB; fill-opacity:1.0000; 
stroke:#37CBCB; stroke-width:0.0000; stroke-opacity:1; 
stroke-linecap:round; stroke-linejoin:round;fill-rule:evenodd;"
d="M 22.6432,22.1798
22.6432,23.4798
20.8532,23.4798
20.8532,22.1798
Z" /> 
<path style="fill:#37CBCB; fill-opacity:1.0000; 
stroke:#37CBCB; stroke-width:0.0000; stroke-opacity:1; 
stroke-linecap:round; stroke-linejoin:round;fill-rule:evenodd;"
d="M 20.6432,22.1798
20.6432,23.4798
18.8532,23.4798
18.8532,22.1798
Z" /> 
</g>
<g >
</g>
<g style="fill:#37CBCB; fill-opacity:1.0000; 
stroke:#37CBCB; stroke-width:0.0000; stroke-opacity:1; 
stroke-linecap:round; stroke-linejoin:round;">
<path style="fill:#37CBCB; fill-opacity:1.0000; 
stroke:#37CBCB; stroke-width:0.0000; stroke-opacity:1; 
stroke-linecap:round; stroke-linejoin:round;fill-rule:evenodd;"
d="M 15.6032,8.1798
15.6032,6.8798
17.3932,6.8798
17.3932,8.1798
Z" /> 
<path style="fill:#37CBCB; fill-opacity:1.0000; 
stroke:#37CBCB; stroke-width:0.0000; stroke-opacity:1; 
stroke-linecap:round; stroke-linejoin:round;fill-rule:evenodd;"
d="M 17.6032,8.1798
17.6032,6.8798
19.3932,6.8798
19.3932,8.1798
Z" /> 
</g>
<g >
</g>
<g style="fill:#37CBCB; fill-opacity:1.0000; 
stroke:#37CBCB; stroke-width:0.0000; stroke-opacity:1; 
stroke-linecap:round; stroke-linejoin:round;">
<path style="fill:#37CBCB; fill-opacity:1.0000; 
stroke:#37CBCB; stroke-width:0.0000; stroke-opacity:1; 
stroke-linecap:round; stroke-linejoin:round;fill-rule:evenodd;"
d="M 24.8532,5.4798
24.8532,4.1798
26.6432,4.1798
26.6432,5.4798
Z" /> 
<path style="fill:#37CBCB; fill-opacity:1.0000; 
stroke:#37CBCB; stroke-width:0.0000; stroke-opacity:1; 
stroke-linecap:round; stroke-linejoin:round;fill-rule:evenodd;"
d="M 26.8532,5.4798
26.8532,4.1798
28.6432,4.1798
28.6432,5.4798
Z" /> 
</g>
<g >
</g>
<g style="fill:#37CBCB; fill-opacity:1.0000; 
stroke:#37CBCB; stroke-width:0.0000; stroke-opacity:1; 
stroke-linecap:round; stroke-linejoin:round;">
<path style="fill:#37CBCB; fill-opacity:1.0000; 
stroke:#37CBCB; stroke-width:0.0000; stroke-opacity:1; 
stroke-linecap:round; stroke-linejoin:round;fill-rule:evenodd;"
d="M 22.5433,13.8798
22.5433,15.1798
20.7532,15.1798
20.7532,13.8798
Z" /> 
<path style="fill:#37CBCB; fill-opacity:1.0000; 
stroke:#37CBCB; stroke-width:0.0000; stroke-opacity:1; 
stroke-linecap:round; stroke-linejoin:round;fill-rule:evenodd;"
d="M 20.5433,13.8798
20.5433,15.1798
18.7532,15.1798
18.7532,13.8798
Z" /> 
</g>
<g >
</g>
<g style="fill:#37CBCB; fill-opacity:1.0000; 
stroke:#37CBCB; stroke-width:0.0000; stroke-opacity:1; 
stroke-linecap:round; stroke-linejoin:round;">
<path style="fill:#37CBCB; fill-opacity:1.0000; 
stroke:#37CBCB; stroke-width:0.0000; stroke-opacity:1; 
stroke-linecap:round; stroke-linejoin:round;fill-rule:evenodd;"
d="M 23.6232,4.8998
24.2732,4.8998
24.2732,6.4598
23.6232,6.4598
Z" /> 
<path style="fill:#37CBCB; fill-opacity:1.0000; 
stroke:#37CBCB; stroke-width:0.0000; stroke-opacity:1; 
stroke-linecap:round; stroke-linejoin:round;fill-rule:evenodd;"
d="M 22.6732,4.8998
23.3232,4.8998
23.3232,6.4598
22.6732,6.4598
Z" /> 
<path style="fill:#37CBCB; fill-opacity:1.0000; 
stroke:#37CBCB; stroke-width:0.0000; stroke-opacity:1; 
stroke-linecap:round; stroke-linejoin:round;fill-rule:evenodd;"
d="M 21.7233,4.8998
22.3732,4.8998
22.3732,6.4598
21.7233,6.4598
Z" /> 
<path style="fill:#37CBCB; fill-opacity:1.0000; 
stroke:#37CBCB; stroke-width:0.0000; stroke-opacity:1; 
stroke-linecap:round; stroke-linejoin:round;fill-rule:evenodd;"
d="M 21.7233,7.5998
22.3732,7.5998
22.3732,9.1598
21.7233,9.1598
Z" /> 
<path style="fill:#37CBCB; fill-opacity:1.0000; 
stroke:#37CBCB; stroke-width:0.0000; stroke-opacity:1; 
stroke-linecap:round; stroke-linejoin:round;fill-rule:evenodd;"
d="M 23.6232,7.5998
24.2732,7.5998
24.2732,9.1598
23.6232,9.1598
Z" /> 
</g>
<g >
</g>
<g style="fill:#37CBCB; fill-opacity:1.0000; 
stroke:#37CBCB; stroke-width:0.0000; stroke-opacity:1; 
stroke-linecap:round; stroke-linejoin:round;">
<path style="fill:#37CBCB; fill-opacity:1.0000; 
stroke:#37CBCB; stroke-width:0.0000; stroke-opacity:1; 
stroke-linecap:round; stroke-linejoin:round;fill-rule:evenodd;"
d="M 25.8982,19.9348
25.8982,20.9348
23.3982,20.9348
23.3982,19.9348
Z" /> 
<path style="fill:#37CBCB; fill-opacity:1.0000; 
stroke:#37CBCB; stroke-width:0.0000; stroke-opacity:1; 
stroke-linecap:round; stroke-linejoin:round;fill-rule:evenodd;"
d="M 25.8982,18.6648
25.8982,19.6648
23.3982,19.6648
23.3982,18.6648
Z" /> 
<path style="fill:#37CBCB; fill-opacity:1.0000; 
stroke:#37CBCB; stroke-width:0.0000; stroke-opacity:1; 
stroke-linecap:round; stroke-linejoin:round;fill-rule:evenodd;"
d="M 25.8982,17.3948
25.8982,18.3948
23.3982,18.3948
23.3982,17.3948
Z" /> 
<path style="fill:#37CBCB; fill-opacity:1.0000; 
stroke:#37CBCB; stroke-width:0.0000; stroke-opacity:1; 
stroke-linecap:round; stroke-linejoin:round;fill-rule:evenodd;"
d="M 25.8982,16.1248
25.8982,17.1248
23.3982,17.1248
23.3982,16.1248
Z" /> 
<path style="fill:#37CBCB; fill-opacity:1.0000; 
stroke:#37CBCB; stroke-width:0.0000; stroke-opacity:1; 
stroke-linecap:round; stroke-linejoin:round;fill-rule:evenodd;"
d="M 18.5983,16.1248
18.5983,17.1248
16.0983,17.1248
16.0983,16.1248
Z" /> 
<path style="fill:#37CBCB; fill-opacity:1.0000; 
stroke:#37CBCB; stroke-width:0.0000; stroke-opacity:1; 
stroke-linecap:round; stroke-linejoin:round;fill-rule:evenodd;"
d="M 18.5983,17.3948
18.5983,18.3948
16.0983,18.3948
16.0983,17.3948
Z" /> 
<path style="fill:#37CBCB; fill-opacity:1.0000; 
stroke:#37CBCB; stroke-width:0.0000; stroke-opacity:1; 
stroke-linecap:round; stroke-linejoin:round;fill-rule:evenodd;"
d="M 18.5983,18.6648
18.5983,19.6648
16.0983,19.6648
16.0983,18.6648
Z" /> 
<path style="fill:#37CBCB; fill-opacity:1.0000; 
stroke:#37CBCB; stroke-width:0.0000; stroke-opacity:1; 
stroke-linecap:round; stroke-linejoin:round;fill-rule:evenodd;"
d="M 18.5983,19.9348
18.5983,20.9348
16.0983,20.9348
16.0983,19.9348
Z" /> 
</g>
<g >
</g>
<g style="fill:#37CBCB; fill-opacity:1.0000; 
stroke:#37CBCB; stroke-width:0.0000; stroke-opacity:1; 
stroke-linecap:round; stroke-linejoin:round;">
<path style="fill:#37CBCB; fill-opacity:1.0000; 
stroke:#37CBCB; stroke-width:0.0000; stroke-opacity:1; 
stroke-linecap:round; stroke-linejoin:round;fill-rule:evenodd;"
d="M 17.2982,12.5798
16.2982,12.5798
16.2982,11.1798
17.2982,11.1798
Z" /> 
<path style="fill:#37CBCB; fill-opacity:1.0000; 
stroke:#37CBCB; stroke-width:0.0000; stroke-opacity:1; 
stroke-linecap:round; stroke-linejoin:round;fill-rule:evenodd;"
d="M 19.1982,12.5798
18.1982,12.5798
18.1982,11.1798
19.1982,11.1798
Z" /> 
<path style="fill:#37CBCB; fill-opacity:1.0000; 
stroke:#37CBCB; stroke-width:0.0000; stroke-opacity:1; 
stroke-linecap:round; stroke-linejoin:round;fill-rule:evenodd;"
d="M 18.2482,10.3798
17.2482,10.3798
17.2482,8.9798
18.2482,8.9798
Z" /> 
</g>
<g >
</g>
<g style="fill:#37CBCB; fill-opacity:1.0000; 
stroke:#37CBCB; stroke-width:0.0000; stroke-opacity:1; 
stroke-linecap:round; stroke-linejoin:round;">
<path style="fill:#37CBCB; fill-opacity:1.0000; 
stroke:#37CBCB; stroke-width:0.0000; stroke-opacity:1; 
stroke-linecap:round; stroke-linejoin:round;fill-rule:evenodd;"
d="M 30.9982,19.9048
30.9982,17.6548
33.9982,17.6548
33.9982,19.9048
Z" /> 
<path style="fill:#37CBCB; fill-opacity:1.0000; 
stroke:#37CBCB; stroke-width:0.0000; stroke-opacity:1; 
stroke-linecap:round; stroke-linejoin:round;fill-rule:evenodd;"
d="M 39.4982,19.9048
39.4982,17.6548
42.4982,17.6548
42.4982,19.9048
Z" /> 
<path style="fill:#37CBCB; fill-opacity:1.0000; 
stroke:#37CBCB; stroke-width:0.0000; stroke-opacity:1; 
stroke-linecap:round; stroke-linejoin:round;fill-rule:evenodd;"
d="M 30.9982,24.4048
30.9982,22.1548
33.9982,22.1548
33.9982,24.4048
Z" /> 
<path style="fill:#37CBCB; fill-opacity:1.0000; 
stroke:#37CBCB; stroke-width:0.0000; stroke-opacity:1; 
stroke-linecap:round; stroke-linejoin:round;fill-rule:evenodd;"
d="M 39.4982,24.4048
39.4982,22.1548
42.4982,22.1548
42.4982,24.4048
Z" /> 
</g>
<g >
</g>
<g style="fill:#37CBCB; fill-opacity:1.0000; 
stroke:#37CBCB; stroke-width:0.0000; stroke-opacity:1; 
stroke-linecap:round; stroke-linejoin:round;">
<path style="fill:#37CBCB; fill-opacity:1.0000; 
stroke:#37CBCB; stroke-width:0.0000; stroke-opacity:1; 
stroke-linecap:round; stroke-linejoin:round;fill-rule:evenodd;"
d="M 26.8532,23.4298
26.8532,22.1298
28.6432,22.1298
28.6432,23.4298
Z" /> 
<path style="fill:#37CBCB; fill-opacity:1.0000; 
stroke:#37CBCB; stroke-width:0.0000; stroke-opacity:1; 
stroke-linecap:round; stroke-linejoin:round;fill-rule:evenodd;"
d="M 28.8532,23.4298
28.8532,22.1298
30.6432,22.1298
30.6432,23.4298
Z" /> 
</g>
<g >
</g>
<g style="fill:#37CBCB; fill-opacity:1.0000; 
stroke:#37CBCB; stroke-width:0.0000; stroke-opacity:1; 
stroke-linecap:round; stroke-linejoin:round;">
<path style="fill:#37CBCB; fill-opacity:1.0000; 
stroke:#37CBCB; stroke-width:0.0000; stroke-opacity:1; 
stroke-linecap:round; stroke-linejoin:round;fill-rule:evenodd;"
d="M 30.6432,20.3798
30.6432,21.6798
28.8532,21.6798
28.8532,20.3798
Z" /> 
<path style="fill:#37CBCB; fill-opacity:1.0000; 
stroke:#37CBCB; stroke-width:0.0000; stroke-opacity:1; 
stroke-linecap:round; stroke-linejoin:round;fill-rule:evenodd;"
d="M 28.6432,20.3798
28.6432,21.6798
26.8532,21.6798
26.8532,20.3798
Z" /> 
</g>
<g >
</g>
<g style="fill:#37CBCB; fill-opacity:1.0000; 
stroke:#37CBCB; stroke-width:0.0000; stroke-opacity:1; 
stroke-linecap:round; stroke-linejoin:round;">
<path style="fill:#37CBCB; fill-opacity:1.0000; 
stroke:#37CBCB; stroke-width:0.0000; stroke-opacity:1; 
stroke-linecap:round; stroke-linejoin:round;fill-rule:evenodd;"
d="M 25.7782,12.1548
25.7782,12.8048
24.2182,12.8048
24.2182,12.1548
Z" /> 
<path style="fill:#37CBCB; fill-opacity:1.0000; 
stroke:#37CBCB; stroke-width:0.0000; stroke-opacity:1; 
stroke-linecap:round; stroke-linejoin:round;fill-rule:evenodd;"
d="M 25.7782,11.2048
25.7782,11.8548
24.2182,11.8548
24.2182,11.2048
Z" /> 
<path style="fill:#37CBCB; fill-opacity:1.0000; 
stroke:#37CBCB; stroke-width:0.0000; stroke-opacity:1; 
stroke-linecap:round; stroke-linejoin:round;fill-rule:evenodd;"
d="M 25.7782,10.2548
25.7782,10.9048
24.2182,10.9048
24.2182,10.2548
Z" /> 
<path style="fill:#37CBCB; fill-opacity:1.0000; 
stroke:#37CBCB; stroke-width:0.0000; stroke-opacity:1; 
stroke-linecap:round; stroke-linejoin:round;fill-rule:evenodd;"
d="M 23.0783,10.2548
23.0783,10.9048
21.5182,10.9048
21.5182,10.2548
Z" /> 
<path style="fill:#37CBCB; fill-opacity:1.0000; 
stroke:#37CBCB; stroke-width:0.0000; stroke-opacity:1; 
stroke-linecap:round; stroke-linejoin:round;fill-rule:evenodd;"
d="M 23.0783,11.2048
23.0783,11.8548
21.5182,11.8548
21.5182,11.2048
Z" /> 
<path style="fill:#37CBCB; fill-opacity:1.0000; 
stroke:#37CBCB; stroke-width:0.0000; stroke-opacity:1; 
stroke-linecap:round; stroke-linejoin:round;fill-rule:evenodd;"
d="M 23.0783,12.1548
23.0783,12.8048
21.5182,12.8048
21.5182,12.1548
Z" /> 
</g>
<g >
</g>
<g style="fill:#37CBCB; fill-opacity:1.0000; 
stroke:#37CBCB; stroke-width:0.0000; stroke-opacity:1; 
stroke-linecap:round; stroke-linejoin:round;">
<path style="fill:#37CBCB; fill-opacity:1.0000; 
stroke:#37CBCB; stroke-width:0.0000; stroke-opacity:1; 
stroke-linecap:round; stroke-linejoin:round;fill-rule:evenodd;"
d="M 25.3982,7.4298
25.3982,6.9298
25.4033,6.9298
25.4033,6.8586
25.4434,6.7221
25.5204,6.6023
25.6279,6.5091
25.7574,6.4500
25.8982,6.4298
26.3982,6.4298
26.5391,6.4500
26.6686,6.5091
26.7761,6.6023
26.8531,6.7221
26.8932,6.8586
26.8932,6.9298
26.8982,6.9298
26.8982,7.4298
Z" /> 
<path style="fill:#37CBCB; fill-opacity:1.0000; 
stroke:#37CBCB; stroke-width:0.0000; stroke-opacity:1; 
stroke-linecap:round; stroke-linejoin:round;fill-rule:evenodd;"
d="M 26.8932,8.2298
26.8932,8.3009
26.8531,8.4375
26.7761,8.5572
26.6686,8.6504
26.5391,8.7095
26.3982,8.7298
25.8982,8.7298
25.7574,8.7095
25.6279,8.6504
25.5204,8.5572
25.4434,8.4375
25.4033,8.3009
25.4033,8.2298
25.3982,8.2298
25.3982,7.7298
26.8982,7.7298
26.8982,8.2298
Z" /> 
</g>
<g >
</g>
<g style="fill:#37CBCB; fill-opacity:1.0000; 
stroke:#37CBCB; stroke-width:0.0000; stroke-opacity:1; 
stroke-linecap:round; stroke-linejoin:round;">
<circle cx="30.0482" cy="7.4298" r="1.1000" /> 
</g>
<g style="fill:#37CBCB; fill-opacity:1.0000; 
stroke:#37CBCB; stroke-width:0.0212; stroke-opacity:1; 
stroke-linecap:round; stroke-linejoin:round;">
</g>
<g style="fill:#37CBCB; fill-opacity:1.0000; 
stroke:#37CBCB; stroke-width:0.0000; stroke-opacity:1; 
stroke-linecap:round; stroke-linejoin:round;">
<circle cx="30.0482" cy="12.4298" r="1.1000" /> 
</g>
<g style="fill:#37CBCB; fill-opacity:1.0000; 
stroke:#37CBCB; stroke-width:0.0212; stroke-opacity:1; 
stroke-linecap:round; stroke-linejoin:round;">
</g>
<g style="fill:#37CBCB; fill-opacity:1.0000; 
stroke:#37CBCB; stroke-width:0.0000; stroke-opacity:1; 
stroke-linecap:round; stroke-linejoin:round;">
<circle cx="30.0482" cy="9.9298" r="1.1000" /> 
</g>
<g style="fill:#37CBCB; fill-opacity:1.0000; 
stroke:#37CBCB; stroke-width:0.0212; stroke-opacity:1; 
stroke-linecap:round; stroke-linejoin:round;">
</g>
<g >
</g>
<g style="fill:#37CBCB; fill-opacity:1.0000; 
stroke:#37CBCB; stroke-width:0.0212; stroke-opacity:1; 
stroke-linecap:round; stroke-linejoin:round;">
</g>
<g style="fill:#37CBCB; fill-opacity:1.0000; 
stroke:#37CBCB; stroke-width:0.0000; stroke-opacity:1; 
stroke-linecap:round; stroke-linejoin:round;">
<path style="fill:#37CBCB; fill-opacity:1.0000; 
stroke:#37CBCB; stroke-width:0.0000; stroke-opacity:1; 
stroke-linecap:round; stroke-linejoin:round;fill-rule:evenodd;"
d="M 35.5983,5.8348
36.8982,5.8348
36.8982,7.6248
35.5983,7.6248
Z" /> 
<path style="fill:#37CBCB; fill-opacity:1.0000; 
stroke:#37CBCB; stroke-width:0.0000; stroke-opacity:1; 
stroke-linecap:round; stroke-linejoin:round;fill-rule:evenodd;"
d="M 35.5983,7.8348
36.8982,7.8348
36.8982,9.6248
35.5983,9.6248
Z" /> 
</g>
<g >
</g>
<g style="fill:#37CBCB; fill-opacity:1.0000; 
stroke:#37CBCB; stroke-width:0.0000; stroke-opacity:1; 
stroke-linecap:round; stroke-linejoin:round;">
<path style="fill:#37CBCB; fill-opacity:1.0000; 
stroke:#37CBCB; stroke-width:0.0000; stroke-opacity:1; 
stroke-linecap:round; stroke-linejoin:round;fill-rule:evenodd;"
d="M 35.5983,10.0348
36.8982,10.0348
36.8982,11.8248
35.5983,11.8248
Z" /> 
<path style="fill:#37CBCB; fill-opacity:1.0000; 
stroke:#37CBCB; stroke-width:0.0000; stroke-opacity:1; 
stroke-linecap:round; stroke-linejoin:round;fill-rule:evenodd;"
d="M 35.5983,12.0348
36.8982,12.0348
36.8982,13.8248
35.5983,13.8248
Z" /> 
</g>
<g >
</g>
<g style="fill:#37CBCB; fill-opacity:1.0000; 
stroke:#37CBCB; stroke-width:0.0000; stroke-opacity:1; 
stroke-linecap:round; stroke-linejoin:round;">
<path style="fill:#37CBCB; fill-opacity:1.0000; 
stroke:#37CBCB; stroke-width:0.0000; stroke-opacity:1; 
stroke-linecap:round; stroke-linejoin:round;fill-rule:evenodd;"
d="M 31.3532,8.0798
31.3532,6.7798
33.1433,6.7798
33.1433,8.0798
Z" /> 
<path style="fill:#37CBCB; fill-opacity:1.0000; 
stroke:#37CBCB; stroke-width:0.0000; stroke-opacity:1; 
stroke-linecap:round; stroke-linejoin:round;fill-rule:evenodd;"
d="M 33.3532,8.0798
33.3532,6.7798
35.1433,6.7798
35.1433,8.0798
Z" /> 
</g>
<g >
</g>
<g style="fill:#37CBCB; fill-opacity:1.0000; 
stroke:#37CBCB; stroke-width:0.0000; stroke-opacity:1; 
stroke-linecap:round; stroke-linejoin:round;">
<path style="fill:#37CBCB; fill-opacity:1.0000; 
stroke:#37CBCB; stroke-width:0.0000; stroke-opacity:1; 
stroke-linecap:round; stroke-linejoin:round;fill-rule:evenodd;"
d="M 31.3532,13.0798
31.3532,11.7798
33.1433,11.7798
33.1433,13.0798
Z" /> 
<path style="fill:#37CBCB; fill-opacity:1.0000; 
stroke:#37CBCB; stroke-width:0.0000; stroke-opacity:1; 
stroke-linecap:round; stroke-linejoin:round;fill-rule:evenodd;"
d="M 33.3532,13.0798
33.3532,11.7798
35.1433,11.7798
35.1433,13.0798
Z" /> 
</g>
<g >
</g>
<g style="fill:#37CBCB; fill-opacity:1.0000; 
stroke:#37CBCB; stroke-width:0.0000; stroke-opacity:1; 
stroke-linecap:round; stroke-linejoin:round;">
<path style="fill:#37CBCB; fill-opacity:1.0000; 
stroke:#37CBCB; stroke-width:0.0000; stroke-opacity:1; 
stroke-linecap:round; stroke-linejoin:round;fill-rule:evenodd;"
d="M 9.6932,20.4298
9.6932,19.2798
10.3933,19.2798
10.3933,20.4298
Z" /> 
<path style="fill:#37CBCB; fill-opacity:1.0000; 
stroke:#37CBCB; stroke-width:0.0000; stroke-opacity:1; 
stroke-linecap:round; stroke-linejoin:round;fill-rule:evenodd;"
d="M 10.9633,20.4298
10.9633,19.2798
11.6632,19.2798
11.6632,20.4298
Z" /> 
<path style="fill:#37CBCB; fill-opacity:1.0000; 
stroke:#37CBCB; stroke-width:0.0000; stroke-opacity:1; 
stroke-linecap:round; stroke-linejoin:round;fill-rule:evenodd;"
d="M 12.2332,20.4298
12.2332,19.2798
12.9332,19.2798
12.9332,20.4298
Z" /> 
<path style="fill:#37CBCB; fill-opacity:1.0000; 
stroke:#37CBCB; stroke-width:0.0000; stroke-opacity:1; 
stroke-linecap:round; stroke-linejoin:round;fill-rule:evenodd;"
d="M 13.5032,20.4298
13.5032,19.2798
14.2032,19.2798
14.2032,20.4298
Z" /> 
<path style="fill:#37CBCB; fill-opacity:1.0000; 
stroke:#37CBCB; stroke-width:0.0000; stroke-opacity:1; 
stroke-linecap:round; stroke-linejoin:round;fill-rule:evenodd;"
d="M 9.5983,15.1548
9.5983,13.6048
14.2982,13.6048
14.2982,15.1548
Z" /> 
<path style="fill:#37CBCB; fill-opacity:1.0000; 
stroke:#37CBCB; stroke-width:0.0000; stroke-opacity:1; 
stroke-linecap:round; stroke-linejoin:round;fill-rule:evenodd;"
d="M 9.8483,18.2298
9.8483,14.9298
14.0482,14.9298
14.0482,18.2298
Z" /> 
</g>
<g >
</g>
<g style="fill:#37CBCB; fill-opacity:1.0000; 
stroke:#37CBCB; stroke-width:0.0000; stroke-opacity:1; 
stroke-linecap:round; stroke-linejoin:round;">
<path style="fill:#37CBCB; fill-opacity:1.0000; 
stroke:#37CBCB; stroke-width:0.0000; stroke-opacity:1; 
stroke-linecap:round; stroke-linejoin:round;fill-rule:evenodd;"
d="M 13.9857,7.3423
13.9781,7.4236
13.9350,7.5467
13.8576,7.6516
13.7527,7.7291
13.6296,7.7721
13.5482,7.7798
11.9232,7.7798
11.8419,7.7721
11.7188,7.7291
11.6139,7.6516
11.5365,7.5467
11.4934,7.4236
11.4857,7.3423
11.4857,5.7173
11.4934,5.6359
11.5365,5.5128
11.6139,5.4079
11.7188,5.3305
11.8419,5.2874
11.9232,5.2798
13.5482,5.2798
13.6296,5.2874
13.7527,5.3305
13.8576,5.4079
13.9350,5.5128
13.9781,5.6359
13.9857,5.7173
Z" /> 
<path style="fill:#37CBCB; fill-opacity:1.0000; 
stroke:#37CBCB; stroke-width:0.0000; stroke-opacity:1; 
stroke-linecap:round; stroke-linejoin:round;fill-rule:evenodd;"
d="M 11.0107,7.3423
11.0031,7.4236
10.9600,7.5467
10.8826,7.6516
10.7777,7.7291
10.6546,7.7721
10.5732,7.7798
8.9482,7.7798
8.8669,7.7721
8.7438,7.7291
8.6389,7.6516
8.5614,7.5467
8.5184,7.4236
8.5107,7.3423
8.5107,5.7173
8.5184,5.6359
8.5614,5.5128
8.6389,5.4079
8.7438,5.3305
8.8669,5.2874
8.9482,5.2798
10.5732,5.2798
10.6546,5.2874
10.7777,5.3305
10.8826,5.4079
10.9600,5.5128
11.0031,5.6359
11.0107,5.7173
Z" /> 
</g>
<g >
</g>
<g style="fill:#121212; fill-opacity:1.0000; 
stroke:#121212; stroke-width:0.0000; stroke-opacity:1; 
stroke-linecap:round; stroke-linejoin:round;">
<circle cx="24.0482" cy="22.7848" r="1.0000" /> 
</g>
<g style="fill:#121212; fill-opacity:1.0000; 
stroke:#121212; stroke-width:0.0212; stroke-opacity:1; 
stroke-linecap:round; stroke-linejoin:round;">
</g>
<g style="fill:#121212; fill-opacity:1.0000; 
stroke:#121212; stroke-width:0.0000; stroke-opacity:1; 
stroke-linecap:round; stroke-linejoin:round;">
<circle cx="15.6482" cy="22.6298" r="1.0000" /> 
</g>
<g style="fill:#121212; fill-opacity:1.0000; 
stroke:#121212; stroke-width:0.0212; stroke-opacity:1; 
stroke-linecap:round; stroke-linejoin:round;">
</g>
<g >
</g>
<g style="fill:#37CBCB; fill-opacity:1.0000; 
stroke:#37CBCB; stroke-width:0.0212; stroke-opacity:1; 
stroke-linecap:round; stroke-linejoin:round;">
</g>
<g style="fill:#37CBCB; fill-opacity:1.0000; 
stroke:#37CBCB; stroke-width:0.4500; stroke-opacity:1; 
stroke-linecap:round; stroke-linejoin:round;">
</g>
<g style="fill:#37CBCB; fill-opacity:0.0; 
stroke:#37CBCB; stroke-width:0.4500; stroke-opacity:1; 
stroke-linecap:round; stroke-linejoin:round;">
<path d="M25.0482 23.7848
L24.0482 22.7848
" />
<path d="M21.7482 22.8298
L21.7482 23.9298
" />
<path d="M36.2482 9.9298
L36.2482 8.7298
" />
<path d="M13.9482 24.2298
L11.3133 21.5948
" />
<path d="M27.5482 15.4248
L27.5482 12.4798
" />
<path d="M24.0033 22.8298
L24.0482 22.7848
" />
<path d="M21.7482 22.8298
L24.0033 22.8298
" />
<path d="M21.4482 24.2298
L13.9482 24.2298
" />
<path d="M24.9982 12.4798
L27.5482 12.4798
" />
<path d="M10.0432 19.8548
L11.3133 19.8548
" />
<path d="M26.3483 16.6248
L27.5482 15.4248
" />
<path d="M21.7482 23.9298
L21.4482 24.2298
" />
<path d="M30.0482 9.9298
L28.9706 9.9298
" />
<path d="M30.0482 9.9298
L36.2482 9.9298
" />
<path d="M28.9706 9.9298
L27.5482 9.9298
" />
<path d="M27.7482 5.9298
L27.5482 6.1298
" />
<path d="M29.7482 23.6298
L29.0482 24.3298
" />
<path d="M25.5932 24.3298
L25.0482 23.7848
" />
<path d="M27.7482 4.8298
L27.7482 5.9298
" />
<path d="M32.4982 23.2798
L40.9982 23.2798
" />
<path d="M12.5832 19.8548
L11.3133 19.8548
" />
<path d="M24.6482 16.6248
L26.3483 16.6248
" />
<path d="M36.2482 10.9298
L36.2482 9.9298
" />
<path d="M31.9982 22.7798
L32.4982 23.2798
" />
<path d="M29.7482 22.7798
L31.9982 22.7798
" />
<path d="M27.5482 9.9298
L27.5482 12.4798
" />
<path d="M29.7482 22.7798
L29.7482 23.6298
" />
<path d="M11.3133 21.5948
L11.3133 19.8548
" />
<path d="M27.5482 6.1298
L27.5482 9.9298
" />
<path d="M29.0482 24.3298
L25.5932 24.3298
" />
<path d="M2.2483 12.8298
L2.2483 6.5298
" />
<path d="M12.7357 6.5298
L12.7357 7.5048
" />
<path d="M17.3483 20.4348
L17.3483 20.9298
" />
<path d="M16.7982 9.6798
L17.7482 9.6798
" />
<path d="M4.3483 14.9298
L2.2483 12.8298
" />
<path d="M4.3483 16.5298
L4.3483 14.9298
" />
<path d="M19.7432 22.8298
L17.3483 20.4348
" />
<path d="M19.7482 22.8298
L19.7432 22.8298
" />
<path d="M4.2482 4.5298
L12.2482 4.5298
" />
<path d="M12.2482 4.5298
L12.7357 5.0173
" />
<path d="M12.7357 7.5048
L14.9108 9.6798
" />
<path d="M2.2483 6.5298
L4.2482 4.5298
" />
<path d="M17.3483 20.9298
L15.6482 22.6298
" />
<path d="M14.9108 9.6798
L16.7982 9.6798
" />
<path d="M12.7357 5.0173
L12.7357 6.5298
" />
<path d="M17.2482 14.5298
L14.8483 12.1298
" />
<path d="M19.6483 14.5298
L17.2482 14.5298
" />
<path d="M7.6482 13.4298
L7.6482 18.0298
" />
<path d="M7.6482 18.0298
L6.6482 19.0298
" />
<path d="M14.8483 12.1298
L8.9482 12.1298
" />
<path d="M8.9482 12.1298
L7.6482 13.4298
" />
<path d="M6.6482 19.0298
L4.3483 19.0298
" />
<path d="M20.1482 5.6798
L19.9982 5.5298
" />
<path d="M16.7982 11.6798
L16.7982 11.8798
" />
<path d="M24.6983 7.6274
L24.6983 7.2598
" />
<path d="M22.0482 5.6798
L20.1482 5.6798
" />
<path d="M24.9982 9.3798
L26.1482 8.2298
" />
<path d="M14.4415 10.1298
L15.0415 10.7298
" />
<path d="M24.6983 7.2598
L24.4683 7.0298
" />
<path d="M16.7982 12.0798
L18.0482 13.3298
" />
<path d="M24.4683 7.0298
L22.1683 7.0298
" />
<path d="M20.5482 12.6298
L20.5482 7.9298
" />
<path d="M4.3483 10.1298
L14.4415 10.1298
" />
<path d="M20.5482 7.9298
L19.9982 7.3798
" />
<path d="M15.8483 10.7298
L16.7982 11.6798
" />
<path d="M19.9982 7.3798
L19.9982 5.5298
" />
<path d="M24.9982 10.5798
L24.9982 9.3798
" />
<path d="M15.0415 10.7298
L15.8483 10.7298
" />
<path d="M18.0482 13.3298
L19.8483 13.3298
" />
<path d="M22.1683 7.0298
L22.0482 6.9098
" />
<path d="M16.7982 11.8798
L16.7982 12.0798
" />
<path d="M25.3007 8.2298
L24.6983 7.6274
" />
<path d="M26.1482 8.2298
L25.3007 8.2298
" />
<path d="M22.0482 6.9098
L22.0482 5.6798
" />
<path d="M19.8483 13.3298
L20.5482 12.6298
" />
<path d="M18.6982 11.8798
L18.6982 7.7298
" />
<path d="M18.4982 6.0298
L17.9982 5.5298
" />
<path d="M18.4982 7.5298
L18.4982 6.0298
" />
<path d="M18.6982 7.7298
L18.4982 7.5298
" />
<path d="M16.4982 4.7798
L16.4982 6.4298
" />
<path d="M16.4982 6.4298
L16.4982 7.5298
" />
<path d="M22.9982 4.4498
L22.9783 4.4298
" />
<path d="M22.9982 5.6798
L22.9982 4.4498
" />
<path d="M16.8482 4.4298
L16.4982 4.7798
" />
<path d="M22.9783 4.4298
L16.8482 4.4298
" />
<path d="M20.6532 16.6248
L21.6482 15.6298
" />
<path d="M21.6482 15.6298
L21.6482 14.5298
" />
<path d="M17.3483 16.6248
L20.6532 16.6248
" />
<path d="M22.0482 8.3798
L22.0482 10.3298
" />
<path d="M22.0482 10.3298
L22.2982 10.5798
" />
<path d="M22.2982 12.4798
L23.2183 12.4798
" />
<path d="M23.7932 9.7648
L23.9482 9.6098
" />
<path d="M23.9482 9.6098
L23.9482 8.3798
" />
<path d="M23.2183 12.4798
L23.7932 11.9048
" />
<path d="M23.7932 11.9048
L23.7932 9.7648
" />
<path d="M30.2482 21.0298
L32.4982 18.7798
" />
<path d="M29.7482 21.0298
L30.2482 21.0298
" />
<path d="M40.9982 18.7798
L32.4982 18.7798
" />
<path d="M24.9833 21.3598
L26.4032 22.7798
" />
<path d="M27.7482 21.0298
L27.7482 22.7798
" />
<path d="M17.3483 19.1648
L20.8632 19.1648
" />
<path d="M26.4032 22.7798
L27.7482 22.7798
" />
<path d="M20.8632 19.1648
L23.0582 21.3598
" />
<path d="M23.0582 21.3598
L24.9833 21.3598
" />
<path d="M26.1482 5.2298
L25.7482 4.8298
" />
<path d="M26.1482 6.9298
L26.1482 5.2298
" />
<path d="M24.8982 5.6798
L25.7482 4.8298
" />
<path d="M23.9482 5.6798
L24.8982 5.6798
" />
<path d="M28.8833 16.6298
L26.3483 19.1648
" />
<path d="M26.3483 19.1648
L24.6482 19.1648
" />
<path d="M40.2482 15.8298
L38.5482 17.5298
" />
<path d="M35.0482 17.5298
L34.1482 16.6298
" />
<path d="M40.2482 9.6298
L40.2482 15.8298
" />
<path d="M36.2482 6.7298
L37.3483 6.7298
" />
<path d="M34.1482 16.6298
L28.8833 16.6298
" />
<path d="M34.2482 7.4298
L34.9483 6.7298
" />
<path d="M37.3483 6.7298
L40.2482 9.6298
" />
<path d="M34.9483 6.7298
L36.2482 6.7298
" />
<path d="M38.5482 17.5298
L35.0482 17.5298
" />
<path d="M34.2482 13.5298
L34.2482 12.4298
" />
<path d="M24.6482 17.8948
L26.6832 17.8948
" />
<path d="M26.6832 17.8948
L30.4482 14.1298
" />
<path d="M33.6482 14.1298
L34.2482 13.5298
" />
<path d="M34.7482 12.9298
L34.2482 12.4298
" />
<path d="M36.2482 12.9298
L34.7482 12.9298
" />
<path d="M30.4482 14.1298
L33.6482 14.1298
" />
<path d="M30.0482 7.4298
L32.2482 7.4298
" />
<path d="M32.2482 12.4298
L30.0482 12.4298
" />
<path d="M4.3483 21.5298
L6.5482 21.5298
" />
<path d="M6.5482 21.5298
L11.4982 16.5798
" />
<path d="M11.9482 16.5798
L11.9482 14.3798
" />
<path d="M11.4982 16.5798
L11.9482 16.5798
" />
<path d="M13.8532 19.8548
L15.8133 17.8948
" />
<path d="M15.8133 17.8948
L17.3483 17.8948
" />
<path d="M8.6608 7.6298
L9.7607 6.5298
" />
<path d="M4.3483 7.6298
L8.6608 7.6298
" />
</g>
<g >
</g>
</g>
<g style="fill:#000000; fill-opacity:0.0; 
stroke:#000000; stroke-width:0.4500; stroke-opacity:1; 
stroke-linecap:round; stroke-linejoin:round;">
</g>
<g style="fill:#000000; fill-opacity:1.0000; 
stroke:#000000; stroke-width:0.0000; stroke-opacity:1; 
stroke-linecap:round; stroke-linejoin:round;">
<circle cx="24.0482" cy="22.7848" r="0.2000" /> 
</g>
<g style="fill:#000000; fill-opacity:1.0000; 
stroke:#000000; stroke-width:0.0212; stroke-opacity:1; 
stroke-linecap:round; stroke-linejoin:round;">
</g>
<g style="fill:#000000; fill-opacity:1.0000; 
stroke:#000000; stroke-width:0.0000; stroke-opacity:1; 
stroke-linecap:round; stroke-linejoin:round;">
<circle cx="15.6482" cy="22.6298" r="0.2000" /> 
</g>
<g style="fill:#000000; fill-opacity:1.0000; 
stroke:#000000; stroke-width:0.0212; stroke-opacity:1; 
stroke-linecap:round; stroke-linejoin:round;">
</g>
<g style="fill:#000000; fill-opacity:1.0000; 
stroke:#000000; stroke-width:0.0000; stroke-opacity:1; 
stroke-linecap:round; stroke-linejoin:round;">
<circle cx="4.3483" cy="21.5298" r="0.4500" /> 
</g>
<g style="fill:#000000; fill-opacity:1.0000; 
stroke:#000000; stroke-width:0.0212; stroke-opacity:1; 
stroke-linecap:round; stroke-linejoin:round;">
</g>
<g style="fill:#000000; fill-opacity:1.0000; 
stroke:#000000; stroke-width:0.0000; stroke-opacity:1; 
stroke-linecap:round; stroke-linejoin:round;">
<circle cx="4.3483" cy="19.0298" r="0.4500" /> 
</g>
<g style="fill:#000000; fill-opacity:1.0000; 
stroke:#000000; stroke-width:0.0212; stroke-opacity:1; 
stroke-linecap:round; stroke-linejoin:round;">
</g>
<g style="fill:#000000; fill-opacity:1.0000; 
stroke:#000000; stroke-width:0.0000; stroke-opacity:1; 
stroke-linecap:round; stroke-linejoin:round;">
<circle cx="4.3483" cy="16.5298" r="0.4500" /> 
</g>
<g style="fill:#000000; fill-opacity:1.0000; 
stroke:#000000; stroke-width:0.0212; stroke-opacity:1; 
stroke-linecap:round; stroke-linejoin:round;">
</g>
<g style="fill:#000000; fill-opacity:1.0000; 
stroke:#000000; stroke-width:0.0000; stroke-opacity:1; 
stroke-linecap:round; stroke-linejoin:round;">
<circle cx="4.3483" cy="10.1298" r="0.5000" /> 
</g>
<g style="fill:#000000; fill-opacity:1.0000; 
stroke:#000000; stroke-width:0.0212; stroke-opacity:1; 
stroke-linecap:round; stroke-linejoin:round;">
</g>
<g style="fill:#000000; fill-opacity:1.0000; 
stroke:#000000; stroke-width:0.0000; stroke-opacity:1; 
stroke-linecap:round; stroke-linejoin:round;">
<circle cx="4.3483" cy="7.6298" r="0.5000" /> 
</g>
<g style="fill:#000000; fill-opacity:1.0000; 
stroke:#000000; stroke-width:0.0212; stroke-opacity:1; 
stroke-linecap:round; stroke-linejoin:round;">
</g>
<g style="fill:#000000; fill-opacity:1.0000; 
stroke:#000000; stroke-width:0.0000; stroke-opacity:1; 
stroke-linecap:round; stroke-linejoin:round;">
<circle cx="37.5482" cy="4.3298" r="1.2500" /> 
</g>
<g style="fill:#000000; fill-opacity:1.0000; 
stroke:#000000; stroke-width:0.0212; stroke-opacity:1; 
stroke-linecap:round; stroke-linejoin:round;">
</g>
<g style="fill:#000000; fill-opacity:1.0000; 
stroke:#000000; stroke-width:0.0000; stroke-opacity:1; 
stroke-linecap:round; stroke-linejoin:round;">
<circle cx="37.5482" cy="15.5298" r="1.2500" /> 
</g>
<g style="fill:#000000; fill-opacity:1.0000; 
stroke:#000000; stroke-width:0.0212; stroke-opacity:1; 
stroke-linecap:round; stroke-linejoin:round;">
</g>
<g style="fill:#000000; fill-opacity:1.0000; 
stroke:#000000; stroke-width:0.0000; stroke-opacity:1; 
stroke-linecap:round; stroke-linejoin:round;">
<circle cx="30.0482" cy="7.4298" r="0.3810" /> 
</g>
<g style="fill:#000000; fill-opacity:1.0000; 
stroke:#000000; stroke-width:0.0212; stroke-opacity:1; 
stroke-linecap:round; stroke-linejoin:round;">
</g>
<g style="fill:#000000; fill-opacity:1.0000; 
stroke:#000000; stroke-width:0.0000; stroke-opacity:1; 
stroke-linecap:round; stroke-linejoin:round;">
<circle cx="30.0482" cy="12.4298" r="0.3810" /> 
</g>
<g style="fill:#000000; fill-opacity:1.0000; 
stroke:#000000; stroke-width:0.0212; stroke-opacity:1; 
stroke-linecap:round; stroke-linejoin:round;">
</g>
<g style="fill:#000000; fill-opacity:1.0000; 
stroke:#000000; stroke-width:0.0000; stroke-opacity:1; 
stroke-linecap:round; stroke-linejoin:round;">
<circle cx="30.0482" cy="9.9298" r="0.3810" /> 
</g>
<g style="fill:#000000; fill-opacity:1.0000; 
stroke:#000000; stroke-width:0.0212; stroke-opacity:1; 
stroke-linecap:round; stroke-linejoin:round;">
</g>
<g style="fill:#FFFFFF; fill-opacity:1.0000; 
stroke:#FFFFFF; stroke-width:0.0212; stroke-opacity:1; 
stroke-linecap:round; stroke-linejoin:round;">
</g>
<g style="fill:#2F2D31; fill-opacity:1.0000; 
stroke:#2F2D31; stroke-width:0.0212; stroke-opacity:1; 
stroke-linecap:round; stroke-linejoin:round;">
</g>
<g style="fill:#2F2D31; fill-opacity:1.0000; 
stroke:#2F2D31; stroke-width:0.1500; stroke-opacity:1; 
stroke-linecap:round; stroke-linejoin:round;">
</g>
<g style="fill:#2F2D31; fill-opacity:0.0; 
stroke:#2F2D31; stroke-width:0.1500; stroke-opacity:1; 
stroke-linecap:round; stroke-linejoin:round;">
<path d="M8.2482 25.5298
L45.2482 25.5298
" />
</g>
<g style="fill:#2F2D31; fill-opacity:0.0; 
stroke:#2F2D31; stroke-width:0.2000; stroke-opacity:1; 
stroke-linecap:round; stroke-linejoin:round;">
<path d="M8.2482 25.5298
L1.2482 25.5298
" />
<path d="M1.2482 25.5298
L1.2482 2.5298
" />
<path d="M1.2482 2.5298
L8.2482 2.5298
" />
</g>
<g style="fill:#2F2D31; fill-opacity:0.0; 
stroke:#2F2D31; stroke-width:0.1500; stroke-opacity:1; 
stroke-linecap:round; stroke-linejoin:round;">
<path d="M45.2482 2.5298
L8.2482 2.5298
" />
<path d="M45.2482 25.5298
L45.2482 2.5298
" />
<g >
</g>
<g >
</g>
<g >
</g>
<g >
</g>
<g >
</g>
<g >
</g>
<g >
</g>
<g >
</g>
<g >
</g>
<g >
</g>
<g >
</g>
<g >
</g>
<g >
</g>
<g >
</g>
<g >
</g>
<g >
</g>
<g >
</g>
<g >
</g>
<g >
</g>
<g >
</g>
<g >
</g>
<g >
</g>
<g >
</g>
<g >
</g>
<g >
</g>
</g> 
</svg>
