<?xml version="1.0" standalone="no"?>
 <!DOCTYPE svg PUBLIC "-//W3C//DTD SVG 1.1//EN" 
 "http://www.w3.org/Graphics/SVG/1.1/DTD/svg11.dtd"> 
<svg
  xmlns:svg="http://www.w3.org/2000/svg"
  xmlns="http://www.w3.org/2000/svg"
  xmlns:xlink="http://www.w3.org/1999/xlink"
  version="1.1"
  width="71.1200mm" height="68.5800mm" viewBox="0.0000 0.0000 71.1200 68.5800">
<title>SVG Image created as working-brd.svg date 2023/09/29 18:34:47 </title>
  <desc>Image generated by PCBNEW </desc>
<g style="fill:#000000; fill-opacity:1.0000;stroke:#000000; stroke-opacity:1.0000;
stroke-linecap:round; stroke-linejoin:round;"
 transform="translate(0 0) scale(1 1)">
</g>
<g style="fill:#000000; fill-opacity:0.0; 
stroke:#000000; stroke-width:0.0000; stroke-opacity:1; 
stroke-linecap:round; stroke-linejoin:round;">
</g>
<g style="fill:#000000; fill-opacity:1.0000; 
stroke:#000000; stroke-width:0.0212; stroke-opacity:1; 
stroke-linecap:round; stroke-linejoin:round;">
<rect x="-5.000000" y="-5.000000" width="81.120000" height="78.580000" rx="0.000000" />
</g>
<g style="fill:#FFFFFF; fill-opacity:1.0000; 
stroke:#FFFFFF; stroke-width:0.0212; stroke-opacity:1; 
stroke-linecap:round; stroke-linejoin:round;">
</g>
<g style="fill:#B2803A; fill-opacity:1.0000; 
stroke:#B2803A; stroke-width:0.0212; stroke-opacity:1; 
stroke-linecap:round; stroke-linejoin:round;">
</g>
<g style="fill:#B2803A; fill-opacity:1.0000; 
stroke:#B2803A; stroke-width:0.3000; stroke-opacity:1; 
stroke-linecap:round; stroke-linejoin:round;">
</g>
<g style="fill:#B2803A; fill-opacity:0.0; 
stroke:#B2803A; stroke-width:0.3000; stroke-opacity:1; 
stroke-linecap:round; stroke-linejoin:round;">
<text x="48.2600" y="9.5500"
transform="scale(-1 1) translate(-96.520000 0)"
textLength="15.0714" font-size="2.6667" lengthAdjust="spacingAndGlyphs"
text-anchor="middle" opacity="0">coredump</text>
<g class="stroked-text"><desc>coredump</desc>
<path d="M54.2124 9.3644
L54.4029 9.4596
" />
<path d="M54.4029 9.4596
L54.7838 9.4596
" />
<path d="M54.7838 9.4596
L54.9743 9.3644
" />
<path d="M54.9743 9.3644
L55.0695 9.2692
" />
<path d="M55.0695 9.2692
L55.1648 9.0787
" />
<path d="M55.1648 9.0787
L55.1648 8.5073
" />
<path d="M55.1648 8.5073
L55.0695 8.3168
" />
<path d="M55.0695 8.3168
L54.9743 8.2215
" />
<path d="M54.9743 8.2215
L54.7838 8.1263
" />
<path d="M54.7838 8.1263
L54.4029 8.1263
" />
<path d="M54.4029 8.1263
L54.2124 8.2215
" />
<path d="M53.0695 9.4596
L53.2600 9.3644
" />
<path d="M53.2600 9.3644
L53.3552 9.2692
" />
<path d="M53.3552 9.2692
L53.4505 9.0787
" />
<path d="M53.4505 9.0787
L53.4505 8.5073
" />
<path d="M53.4505 8.5073
L53.3552 8.3168
" />
<path d="M53.3552 8.3168
L53.2600 8.2215
" />
<path d="M53.2600 8.2215
L53.0695 8.1263
" />
<path d="M53.0695 8.1263
L52.7838 8.1263
" />
<path d="M52.7838 8.1263
L52.5933 8.2215
" />
<path d="M52.5933 8.2215
L52.4981 8.3168
" />
<path d="M52.4981 8.3168
L52.4029 8.5073
" />
<path d="M52.4029 8.5073
L52.4029 9.0787
" />
<path d="M52.4029 9.0787
L52.4981 9.2692
" />
<path d="M52.4981 9.2692
L52.5933 9.3644
" />
<path d="M52.5933 9.3644
L52.7838 9.4596
" />
<path d="M52.7838 9.4596
L53.0695 9.4596
" />
<path d="M51.5457 9.4596
L51.5457 8.1263
" />
<path d="M51.5457 8.5073
L51.4505 8.3168
" />
<path d="M51.4505 8.3168
L51.3552 8.2215
" />
<path d="M51.3552 8.2215
L51.1648 8.1263
" />
<path d="M51.1648 8.1263
L50.9743 8.1263
" />
<path d="M49.5457 9.3644
L49.7362 9.4596
" />
<path d="M49.7362 9.4596
L50.1171 9.4596
" />
<path d="M50.1171 9.4596
L50.3076 9.3644
" />
<path d="M50.3076 9.3644
L50.4029 9.1739
" />
<path d="M50.4029 9.1739
L50.4029 8.4120
" />
<path d="M50.4029 8.4120
L50.3076 8.2215
" />
<path d="M50.3076 8.2215
L50.1171 8.1263
" />
<path d="M50.1171 8.1263
L49.7362 8.1263
" />
<path d="M49.7362 8.1263
L49.5457 8.2215
" />
<path d="M49.5457 8.2215
L49.4505 8.4120
" />
<path d="M49.4505 8.4120
L49.4505 8.6025
" />
<path d="M49.4505 8.6025
L50.4029 8.7930
" />
<path d="M47.7362 9.4596
L47.7362 7.4596
" />
<path d="M47.7362 9.3644
L47.9267 9.4596
" />
<path d="M47.9267 9.4596
L48.3076 9.4596
" />
<path d="M48.3076 9.4596
L48.4981 9.3644
" />
<path d="M48.4981 9.3644
L48.5933 9.2692
" />
<path d="M48.5933 9.2692
L48.6886 9.0787
" />
<path d="M48.6886 9.0787
L48.6886 8.5073
" />
<path d="M48.6886 8.5073
L48.5933 8.3168
" />
<path d="M48.5933 8.3168
L48.4981 8.2215
" />
<path d="M48.4981 8.2215
L48.3076 8.1263
" />
<path d="M48.3076 8.1263
L47.9267 8.1263
" />
<path d="M47.9267 8.1263
L47.7362 8.2215
" />
<path d="M45.9267 8.1263
L45.9267 9.4596
" />
<path d="M46.7838 8.1263
L46.7838 9.1739
" />
<path d="M46.7838 9.1739
L46.6886 9.3644
" />
<path d="M46.6886 9.3644
L46.4981 9.4596
" />
<path d="M46.4981 9.4596
L46.2124 9.4596
" />
<path d="M46.2124 9.4596
L46.0219 9.3644
" />
<path d="M46.0219 9.3644
L45.9267 9.2692
" />
<path d="M44.9743 9.4596
L44.9743 8.1263
" />
<path d="M44.9743 8.3168
L44.8790 8.2215
" />
<path d="M44.8790 8.2215
L44.6886 8.1263
" />
<path d="M44.6886 8.1263
L44.4029 8.1263
" />
<path d="M44.4029 8.1263
L44.2124 8.2215
" />
<path d="M44.2124 8.2215
L44.1171 8.4120
" />
<path d="M44.1171 8.4120
L44.1171 9.4596
" />
<path d="M44.1171 8.4120
L44.0219 8.2215
" />
<path d="M44.0219 8.2215
L43.8314 8.1263
" />
<path d="M43.8314 8.1263
L43.5457 8.1263
" />
<path d="M43.5457 8.1263
L43.3552 8.2215
" />
<path d="M43.3552 8.2215
L43.2600 8.4120
" />
<path d="M43.2600 8.4120
L43.2600 9.4596
" />
<path d="M42.3076 8.1263
L42.3076 10.1263
" />
<path d="M42.3076 8.2215
L42.1171 8.1263
" />
<path d="M42.1171 8.1263
L41.7362 8.1263
" />
<path d="M41.7362 8.1263
L41.5457 8.2215
" />
<path d="M41.5457 8.2215
L41.4505 8.3168
" />
<path d="M41.4505 8.3168
L41.3552 8.5073
" />
<path d="M41.3552 8.5073
L41.3552 9.0787
" />
<path d="M41.3552 9.0787
L41.4505 9.2692
" />
<path d="M41.4505 9.2692
L41.5457 9.3644
" />
<path d="M41.5457 9.3644
L41.7362 9.4596
" />
<path d="M41.7362 9.4596
L42.1171 9.4596
" />
<path d="M42.1171 9.4596
L42.3076 9.3644
" />
</g><text x="48.2600" y="12.7700"
transform="scale(-1 1) translate(-96.520000 0)"
textLength="30.5952" font-size="2.6667" lengthAdjust="spacingAndGlyphs"
text-anchor="middle" opacity="0">RGB LED V1.1 2015</text>
<g class="stroked-text"><desc>RGB LED V1.1 2015</desc>
<path d="M61.6886 12.6796
L62.3552 11.7273
" />
<path d="M62.8314 12.6796
L62.8314 10.6796
" />
<path d="M62.8314 10.6796
L62.0695 10.6796
" />
<path d="M62.0695 10.6796
L61.8790 10.7749
" />
<path d="M61.8790 10.7749
L61.7838 10.8701
" />
<path d="M61.7838 10.8701
L61.6886 11.0606
" />
<path d="M61.6886 11.0606
L61.6886 11.3463
" />
<path d="M61.6886 11.3463
L61.7838 11.5368
" />
<path d="M61.7838 11.5368
L61.8790 11.6320
" />
<path d="M61.8790 11.6320
L62.0695 11.7273
" />
<path d="M62.0695 11.7273
L62.8314 11.7273
" />
<path d="M59.7838 10.7749
L59.9743 10.6796
" />
<path d="M59.9743 10.6796
L60.2600 10.6796
" />
<path d="M60.2600 10.6796
L60.5457 10.7749
" />
<path d="M60.5457 10.7749
L60.7362 10.9654
" />
<path d="M60.7362 10.9654
L60.8314 11.1558
" />
<path d="M60.8314 11.1558
L60.9267 11.5368
" />
<path d="M60.9267 11.5368
L60.9267 11.8225
" />
<path d="M60.9267 11.8225
L60.8314 12.2034
" />
<path d="M60.8314 12.2034
L60.7362 12.3939
" />
<path d="M60.7362 12.3939
L60.5457 12.5844
" />
<path d="M60.5457 12.5844
L60.2600 12.6796
" />
<path d="M60.2600 12.6796
L60.0695 12.6796
" />
<path d="M60.0695 12.6796
L59.7838 12.5844
" />
<path d="M59.7838 12.5844
L59.6886 12.4892
" />
<path d="M59.6886 12.4892
L59.6886 11.8225
" />
<path d="M59.6886 11.8225
L60.0695 11.8225
" />
<path d="M58.1648 11.6320
L57.8790 11.7273
" />
<path d="M57.8790 11.7273
L57.7838 11.8225
" />
<path d="M57.7838 11.8225
L57.6886 12.0130
" />
<path d="M57.6886 12.0130
L57.6886 12.2987
" />
<path d="M57.6886 12.2987
L57.7838 12.4892
" />
<path d="M57.7838 12.4892
L57.8790 12.5844
" />
<path d="M57.8790 12.5844
L58.0695 12.6796
" />
<path d="M58.0695 12.6796
L58.8314 12.6796
" />
<path d="M58.8314 12.6796
L58.8314 10.6796
" />
<path d="M58.8314 10.6796
L58.1648 10.6796
" />
<path d="M58.1648 10.6796
L57.9743 10.7749
" />
<path d="M57.9743 10.7749
L57.8790 10.8701
" />
<path d="M57.8790 10.8701
L57.7838 11.0606
" />
<path d="M57.7838 11.0606
L57.7838 11.2511
" />
<path d="M57.7838 11.2511
L57.8790 11.4415
" />
<path d="M57.8790 11.4415
L57.9743 11.5368
" />
<path d="M57.9743 11.5368
L58.1648 11.6320
" />
<path d="M58.1648 11.6320
L58.8314 11.6320
" />
<path d="M54.3552 12.6796
L55.3076 12.6796
" />
<path d="M55.3076 12.6796
L55.3076 10.6796
" />
<path d="M53.6886 11.6320
L53.0219 11.6320
" />
<path d="M52.7362 12.6796
L53.6886 12.6796
" />
<path d="M53.6886 12.6796
L53.6886 10.6796
" />
<path d="M53.6886 10.6796
L52.7362 10.6796
" />
<path d="M51.8790 12.6796
L51.8790 10.6796
" />
<path d="M51.8790 10.6796
L51.4029 10.6796
" />
<path d="M51.4029 10.6796
L51.1171 10.7749
" />
<path d="M51.1171 10.7749
L50.9267 10.9654
" />
<path d="M50.9267 10.9654
L50.8314 11.1558
" />
<path d="M50.8314 11.1558
L50.7362 11.5368
" />
<path d="M50.7362 11.5368
L50.7362 11.8225
" />
<path d="M50.7362 11.8225
L50.8314 12.2034
" />
<path d="M50.8314 12.2034
L50.9267 12.3939
" />
<path d="M50.9267 12.3939
L51.1171 12.5844
" />
<path d="M51.1171 12.5844
L51.4029 12.6796
" />
<path d="M51.4029 12.6796
L51.8790 12.6796
" />
<path d="M48.6410 10.6796
L47.9743 12.6796
" />
<path d="M47.9743 12.6796
L47.3076 10.6796
" />
<path d="M45.5933 12.6796
L46.7362 12.6796
" />
<path d="M46.1648 12.6796
L46.1648 10.6796
" />
<path d="M46.1648 10.6796
L46.3552 10.9654
" />
<path d="M46.3552 10.9654
L46.5457 11.1558
" />
<path d="M46.5457 11.1558
L46.7362 11.2511
" />
<path d="M44.7362 12.4892
L44.6410 12.5844
" />
<path d="M44.6410 12.5844
L44.7362 12.6796
" />
<path d="M44.7362 12.6796
L44.8314 12.5844
" />
<path d="M44.8314 12.5844
L44.7362 12.4892
" />
<path d="M44.7362 12.4892
L44.7362 12.6796
" />
<path d="M42.7362 12.6796
L43.8790 12.6796
" />
<path d="M43.3076 12.6796
L43.3076 10.6796
" />
<path d="M43.3076 10.6796
L43.4981 10.9654
" />
<path d="M43.4981 10.9654
L43.6886 11.1558
" />
<path d="M43.6886 11.1558
L43.8790 11.2511
" />
<path d="M40.4505 10.8701
L40.3552 10.7749
" />
<path d="M40.3552 10.7749
L40.1648 10.6796
" />
<path d="M40.1648 10.6796
L39.6886 10.6796
" />
<path d="M39.6886 10.6796
L39.4981 10.7749
" />
<path d="M39.4981 10.7749
L39.4029 10.8701
" />
<path d="M39.4029 10.8701
L39.3076 11.0606
" />
<path d="M39.3076 11.0606
L39.3076 11.2511
" />
<path d="M39.3076 11.2511
L39.4029 11.5368
" />
<path d="M39.4029 11.5368
L40.5457 12.6796
" />
<path d="M40.5457 12.6796
L39.3076 12.6796
" />
<path d="M38.0695 10.6796
L37.8790 10.6796
" />
<path d="M37.8790 10.6796
L37.6886 10.7749
" />
<path d="M37.6886 10.7749
L37.5933 10.8701
" />
<path d="M37.5933 10.8701
L37.4981 11.0606
" />
<path d="M37.4981 11.0606
L37.4029 11.4415
" />
<path d="M37.4029 11.4415
L37.4029 11.9177
" />
<path d="M37.4029 11.9177
L37.4981 12.2987
" />
<path d="M37.4981 12.2987
L37.5933 12.4892
" />
<path d="M37.5933 12.4892
L37.6886 12.5844
" />
<path d="M37.6886 12.5844
L37.8790 12.6796
" />
<path d="M37.8790 12.6796
L38.0695 12.6796
" />
<path d="M38.0695 12.6796
L38.2600 12.5844
" />
<path d="M38.2600 12.5844
L38.3552 12.4892
" />
<path d="M38.3552 12.4892
L38.4505 12.2987
" />
<path d="M38.4505 12.2987
L38.5457 11.9177
" />
<path d="M38.5457 11.9177
L38.5457 11.4415
" />
<path d="M38.5457 11.4415
L38.4505 11.0606
" />
<path d="M38.4505 11.0606
L38.3552 10.8701
" />
<path d="M38.3552 10.8701
L38.2600 10.7749
" />
<path d="M38.2600 10.7749
L38.0695 10.6796
" />
<path d="M35.4981 12.6796
L36.6409 12.6796
" />
<path d="M36.0695 12.6796
L36.0695 10.6796
" />
<path d="M36.0695 10.6796
L36.2600 10.9654
" />
<path d="M36.2600 10.9654
L36.4505 11.1558
" />
<path d="M36.4505 11.1558
L36.6409 11.2511
" />
<path d="M33.6886 10.6796
L34.6409 10.6796
" />
<path d="M34.6409 10.6796
L34.7362 11.6320
" />
<path d="M34.7362 11.6320
L34.6409 11.5368
" />
<path d="M34.6409 11.5368
L34.4505 11.4415
" />
<path d="M34.4505 11.4415
L33.9743 11.4415
" />
<path d="M33.9743 11.4415
L33.7838 11.5368
" />
<path d="M33.7838 11.5368
L33.6886 11.6320
" />
<path d="M33.6886 11.6320
L33.5933 11.8225
" />
<path d="M33.5933 11.8225
L33.5933 12.2987
" />
<path d="M33.5933 12.2987
L33.6886 12.4892
" />
<path d="M33.6886 12.4892
L33.7838 12.5844
" />
<path d="M33.7838 12.5844
L33.9743 12.6796
" />
<path d="M33.9743 12.6796
L34.4505 12.6796
" />
<path d="M34.4505 12.6796
L34.6409 12.5844
" />
<path d="M34.6409 12.5844
L34.7362 12.4892
" />
</g><g >
</g>
<g style="fill:#B2803A; fill-opacity:1.0000; 
stroke:#B2803A; stroke-width:0.0000; stroke-opacity:1; 
stroke-linecap:round; stroke-linejoin:round;">
<circle cx="30.5600" cy="48.2600" r="1.5000" /> 
</g>
<g style="fill:#B2803A; fill-opacity:1.0000; 
stroke:#B2803A; stroke-width:0.0212; stroke-opacity:1; 
stroke-linecap:round; stroke-linejoin:round;">
</g>
<g style="fill:#B2803A; fill-opacity:1.0000; 
stroke:#B2803A; stroke-width:0.0000; stroke-opacity:1; 
stroke-linecap:round; stroke-linejoin:round;">
<circle cx="35.5600" cy="48.2600" r="1.5000" /> 
</g>
<g style="fill:#B2803A; fill-opacity:1.0000; 
stroke:#B2803A; stroke-width:0.0212; stroke-opacity:1; 
stroke-linecap:round; stroke-linejoin:round;">
</g>
<g style="fill:#B2803A; fill-opacity:1.0000; 
stroke:#B2803A; stroke-width:0.0000; stroke-opacity:1; 
stroke-linecap:round; stroke-linejoin:round;">
<circle cx="40.5600" cy="48.2600" r="1.5000" /> 
</g>
<g style="fill:#B2803A; fill-opacity:1.0000; 
stroke:#B2803A; stroke-width:0.0212; stroke-opacity:1; 
stroke-linecap:round; stroke-linejoin:round;">
</g>
<g >
</g>
<g style="fill:#B2803A; fill-opacity:1.0000; 
stroke:#B2803A; stroke-width:0.0212; stroke-opacity:1; 
stroke-linecap:round; stroke-linejoin:round;">
</g>
<g style="fill:#B2803A; fill-opacity:1.0000; 
stroke:#B2803A; stroke-width:0.0000; stroke-opacity:1; 
stroke-linecap:round; stroke-linejoin:round;">
<circle cx="48.3400" cy="48.2600" r="1.5000" /> 
</g>
<g style="fill:#B2803A; fill-opacity:1.0000; 
stroke:#B2803A; stroke-width:0.0212; stroke-opacity:1; 
stroke-linecap:round; stroke-linejoin:round;">
</g>
<g style="fill:#B2803A; fill-opacity:1.0000; 
stroke:#B2803A; stroke-width:0.0000; stroke-opacity:1; 
stroke-linecap:round; stroke-linejoin:round;">
<circle cx="53.3400" cy="48.2600" r="1.5000" /> 
</g>
<g style="fill:#B2803A; fill-opacity:1.0000; 
stroke:#B2803A; stroke-width:0.0212; stroke-opacity:1; 
stroke-linecap:round; stroke-linejoin:round;">
</g>
<g style="fill:#B2803A; fill-opacity:1.0000; 
stroke:#B2803A; stroke-width:0.0000; stroke-opacity:1; 
stroke-linecap:round; stroke-linejoin:round;">
<circle cx="58.3400" cy="48.2600" r="1.5000" /> 
</g>
<g style="fill:#B2803A; fill-opacity:1.0000; 
stroke:#B2803A; stroke-width:0.0212; stroke-opacity:1; 
stroke-linecap:round; stroke-linejoin:round;">
</g>
<g >
</g>
<g style="fill:#B2803A; fill-opacity:1.0000; 
stroke:#B2803A; stroke-width:0.0212; stroke-opacity:1; 
stroke-linecap:round; stroke-linejoin:round;">
</g>
<g style="fill:#B2803A; fill-opacity:1.0000; 
stroke:#B2803A; stroke-width:0.0000; stroke-opacity:1; 
stroke-linecap:round; stroke-linejoin:round;">
<circle cx="12.7800" cy="48.2600" r="1.5000" /> 
</g>
<g style="fill:#B2803A; fill-opacity:1.0000; 
stroke:#B2803A; stroke-width:0.0212; stroke-opacity:1; 
stroke-linecap:round; stroke-linejoin:round;">
</g>
<g style="fill:#B2803A; fill-opacity:1.0000; 
stroke:#B2803A; stroke-width:0.0000; stroke-opacity:1; 
stroke-linecap:round; stroke-linejoin:round;">
<circle cx="17.7800" cy="48.2600" r="1.5000" /> 
</g>
<g style="fill:#B2803A; fill-opacity:1.0000; 
stroke:#B2803A; stroke-width:0.0212; stroke-opacity:1; 
stroke-linecap:round; stroke-linejoin:round;">
</g>
<g style="fill:#B2803A; fill-opacity:1.0000; 
stroke:#B2803A; stroke-width:0.0000; stroke-opacity:1; 
stroke-linecap:round; stroke-linejoin:round;">
<circle cx="22.7800" cy="48.2600" r="1.5000" /> 
</g>
<g style="fill:#B2803A; fill-opacity:1.0000; 
stroke:#B2803A; stroke-width:0.0212; stroke-opacity:1; 
stroke-linecap:round; stroke-linejoin:round;">
</g>
<g >
</g>
<g style="fill:#B2803A; fill-opacity:1.0000; 
stroke:#B2803A; stroke-width:0.0212; stroke-opacity:1; 
stroke-linecap:round; stroke-linejoin:round;">
</g>
<g style="fill:#B2803A; fill-opacity:1.0000; 
stroke:#B2803A; stroke-width:0.0000; stroke-opacity:1; 
stroke-linecap:round; stroke-linejoin:round;">
<path style="fill:#B2803A; fill-opacity:1.0000; 
stroke:#B2803A; stroke-width:0.0000; stroke-opacity:1; 
stroke-linecap:round; stroke-linejoin:round;fill-rule:evenodd;"
d="M 57.3200,16.6800
59.5200,16.6800
59.5200,18.8800
57.3200,18.8800
Z" /> 
<circle cx="58.4200" cy="20.3200" r="1.1000" /> 
</g>
<g style="fill:#B2803A; fill-opacity:1.0000; 
stroke:#B2803A; stroke-width:0.0212; stroke-opacity:1; 
stroke-linecap:round; stroke-linejoin:round;">
</g>
<g style="fill:#B2803A; fill-opacity:1.0000; 
stroke:#B2803A; stroke-width:0.0000; stroke-opacity:1; 
stroke-linecap:round; stroke-linejoin:round;">
<circle cx="58.4200" cy="22.8600" r="1.1000" /> 
</g>
<g style="fill:#B2803A; fill-opacity:1.0000; 
stroke:#B2803A; stroke-width:0.0212; stroke-opacity:1; 
stroke-linecap:round; stroke-linejoin:round;">
</g>
<g style="fill:#B2803A; fill-opacity:1.0000; 
stroke:#B2803A; stroke-width:0.0000; stroke-opacity:1; 
stroke-linecap:round; stroke-linejoin:round;">
<circle cx="58.4200" cy="25.4000" r="1.1000" /> 
</g>
<g style="fill:#B2803A; fill-opacity:1.0000; 
stroke:#B2803A; stroke-width:0.0212; stroke-opacity:1; 
stroke-linecap:round; stroke-linejoin:round;">
</g>
<g >
</g>
<g style="fill:#B2803A; fill-opacity:1.0000; 
stroke:#B2803A; stroke-width:0.0212; stroke-opacity:1; 
stroke-linecap:round; stroke-linejoin:round;">
</g>
<g style="fill:#B2803A; fill-opacity:1.0000; 
stroke:#B2803A; stroke-width:0.0000; stroke-opacity:1; 
stroke-linecap:round; stroke-linejoin:round;">
<path style="fill:#B2803A; fill-opacity:1.0000; 
stroke:#B2803A; stroke-width:0.0000; stroke-opacity:1; 
stroke-linecap:round; stroke-linejoin:round;fill-rule:evenodd;"
d="M 11.6000,16.6800
13.8000,16.6800
13.8000,18.8800
11.6000,18.8800
Z" /> 
<circle cx="12.7000" cy="20.3200" r="1.1000" /> 
</g>
<g style="fill:#B2803A; fill-opacity:1.0000; 
stroke:#B2803A; stroke-width:0.0212; stroke-opacity:1; 
stroke-linecap:round; stroke-linejoin:round;">
</g>
<g >
</g>
<g style="fill:#B2803A; fill-opacity:1.0000; 
stroke:#B2803A; stroke-width:0.0212; stroke-opacity:1; 
stroke-linecap:round; stroke-linejoin:round;">
</g>
<g style="fill:#B2803A; fill-opacity:1.0000; 
stroke:#B2803A; stroke-width:0.0000; stroke-opacity:1; 
stroke-linecap:round; stroke-linejoin:round;">
<circle cx="29.2354" cy="11.7983" r="2.0320" /> 
</g>
<g style="fill:#B2803A; fill-opacity:1.0000; 
stroke:#B2803A; stroke-width:0.0212; stroke-opacity:1; 
stroke-linecap:round; stroke-linejoin:round;">
</g>
<g >
</g>
<g style="fill:#B2803A; fill-opacity:1.0000; 
stroke:#B2803A; stroke-width:0.0212; stroke-opacity:1; 
stroke-linecap:round; stroke-linejoin:round;">
</g>
<g style="fill:#B2803A; fill-opacity:1.0000; 
stroke:#B2803A; stroke-width:0.0000; stroke-opacity:1; 
stroke-linecap:round; stroke-linejoin:round;">
<circle cx="29.2100" cy="39.6240" r="2.0320" /> 
</g>
<g style="fill:#B2803A; fill-opacity:1.0000; 
stroke:#B2803A; stroke-width:0.0212; stroke-opacity:1; 
stroke-linecap:round; stroke-linejoin:round;">
</g>
<g >
</g>
<g style="fill:#B2803A; fill-opacity:1.0000; 
stroke:#B2803A; stroke-width:0.0212; stroke-opacity:1; 
stroke-linecap:round; stroke-linejoin:round;">
</g>
<g style="fill:#B2803A; fill-opacity:1.0000; 
stroke:#B2803A; stroke-width:1.2000; stroke-opacity:1; 
stroke-linecap:round; stroke-linejoin:round;">
</g>
<g style="fill:#B2803A; fill-opacity:0.0; 
stroke:#B2803A; stroke-width:1.2000; stroke-opacity:1; 
stroke-linecap:round; stroke-linejoin:round;">
<path d="M12.1000 36.3300
L13.3000 36.3300
" />
<path d="M12.1000 24.6300
L13.3000 24.6300
" />
</g>
<g style="fill:#B2803A; fill-opacity:1.0000; 
stroke:#B2803A; stroke-width:0.0000; stroke-opacity:1; 
stroke-linecap:round; stroke-linejoin:round;">
<circle cx="12.7000" cy="33.4800" r="1.2500" /> 
</g>
<g style="fill:#B2803A; fill-opacity:1.0000; 
stroke:#B2803A; stroke-width:0.0212; stroke-opacity:1; 
stroke-linecap:round; stroke-linejoin:round;">
</g>
<g style="fill:#B2803A; fill-opacity:1.0000; 
stroke:#B2803A; stroke-width:0.0000; stroke-opacity:1; 
stroke-linecap:round; stroke-linejoin:round;">
<circle cx="12.7000" cy="30.4800" r="1.2500" /> 
</g>
<g style="fill:#B2803A; fill-opacity:1.0000; 
stroke:#B2803A; stroke-width:0.0212; stroke-opacity:1; 
stroke-linecap:round; stroke-linejoin:round;">
</g>
<g style="fill:#B2803A; fill-opacity:1.0000; 
stroke:#B2803A; stroke-width:0.0000; stroke-opacity:1; 
stroke-linecap:round; stroke-linejoin:round;">
<circle cx="12.7000" cy="27.4800" r="1.2500" /> 
</g>
<g style="fill:#B2803A; fill-opacity:1.0000; 
stroke:#B2803A; stroke-width:0.0212; stroke-opacity:1; 
stroke-linecap:round; stroke-linejoin:round;">
</g>
<g >
</g>
<g style="fill:#B2803A; fill-opacity:1.0000; 
stroke:#B2803A; stroke-width:0.0212; stroke-opacity:1; 
stroke-linecap:round; stroke-linejoin:round;">
</g>
<g style="fill:#B2803A; fill-opacity:1.0000; 
stroke:#B2803A; stroke-width:0.0000; stroke-opacity:1; 
stroke-linecap:round; stroke-linejoin:round;">
<path style="fill:#B2803A; fill-opacity:1.0000; 
stroke:#B2803A; stroke-width:0.0000; stroke-opacity:1; 
stroke-linecap:round; stroke-linejoin:round;fill-rule:evenodd;"
d="M 23.7363,12.3393
23.7363,14.0767
25.2349,13.7973
25.2349,12.6187
Z" /> 
<path style="fill:#B2803A; fill-opacity:1.0000; 
stroke:#B2803A; stroke-width:0.0000; stroke-opacity:1; 
stroke-linecap:round; stroke-linejoin:round;fill-rule:evenodd;"
d="M 23.3483,15.0078
22.1198,16.2363
23.3770,17.0984
24.2104,16.2650
Z" /> 
<path style="fill:#B2803A; fill-opacity:1.0000; 
stroke:#B2803A; stroke-width:0.0000; stroke-opacity:1; 
stroke-linecap:round; stroke-linejoin:round;fill-rule:evenodd;"
d="M 22.1198,10.1797
23.3483,11.4082
24.2104,10.1510
23.3770,9.3176
Z" /> 
<path style="fill:#B2803A; fill-opacity:1.0000; 
stroke:#B2803A; stroke-width:0.0000; stroke-opacity:1; 
stroke-linecap:round; stroke-linejoin:round;fill-rule:evenodd;"
d="M 21.5697,12.8740
21.5697,13.5420
23.8608,13.9560
23.8608,12.4600
Z" /> 
<path style="fill:#B2803A; fill-opacity:1.0000; 
stroke:#B2803A; stroke-width:0.0000; stroke-opacity:1; 
stroke-linecap:round; stroke-linejoin:round;fill-rule:evenodd;"
d="M 21.6018,13.3754
21.3462,13.9926
23.3044,15.2519
23.8769,13.8697
Z" /> 
<path style="fill:#B2803A; fill-opacity:1.0000; 
stroke:#B2803A; stroke-width:0.0000; stroke-opacity:1; 
stroke-linecap:round; stroke-linejoin:round;fill-rule:evenodd;"
d="M 21.3462,12.4234
21.6018,13.0406
23.8769,12.5463
23.3044,11.1641
Z" /> 
<path style="fill:#B2803A; fill-opacity:1.0000; 
stroke:#B2803A; stroke-width:0.0000; stroke-opacity:1; 
stroke-linecap:round; stroke-linejoin:round;fill-rule:evenodd;"
d="M 21.4378,13.8534
20.9654,14.3258
22.2927,16.2386
23.3506,15.1807
Z" /> 
<path style="fill:#B2803A; fill-opacity:1.0000; 
stroke:#B2803A; stroke-width:0.0000; stroke-opacity:1; 
stroke-linecap:round; stroke-linejoin:round;fill-rule:evenodd;"
d="M 20.9654,12.0902
21.4378,12.5626
23.3506,11.2353
22.2927,10.1774
Z" /> 
<path style="fill:#B2803A; fill-opacity:1.0000; 
stroke:#B2803A; stroke-width:0.0000; stroke-opacity:1; 
stroke-linecap:round; stroke-linejoin:round;fill-rule:evenodd;"
d="M 21.1512,14.1540
20.8744,14.3386
21.9723,16.3603
22.5957,15.9445
Z" /> 
<path style="fill:#B2803A; fill-opacity:1.0000; 
stroke:#B2803A; stroke-width:0.0000; stroke-opacity:1; 
stroke-linecap:round; stroke-linejoin:round;fill-rule:evenodd;"
d="M 20.4874,11.9262
21.1046,12.1818
22.3639,10.2236
20.9817,9.6511
Z" /> 
<path style="fill:#B2803A; fill-opacity:1.0000; 
stroke:#B2803A; stroke-width:0.0000; stroke-opacity:1; 
stroke-linecap:round; stroke-linejoin:round;fill-rule:evenodd;"
d="M 19.9860,11.9583
20.6540,11.9583
21.0680,9.6672
19.5720,9.6672
Z" /> 
<path style="fill:#B2803A; fill-opacity:1.0000; 
stroke:#B2803A; stroke-width:0.0000; stroke-opacity:1; 
stroke-linecap:round; stroke-linejoin:round;fill-rule:evenodd;"
d="M 19.4513,9.7917
21.1887,9.7917
20.9093,8.2931
19.7307,8.2931
Z" /> 
<path style="fill:#B2803A; fill-opacity:1.0000; 
stroke:#B2803A; stroke-width:0.0000; stroke-opacity:1; 
stroke-linecap:round; stroke-linejoin:round;fill-rule:evenodd;"
d="M 19.5354,12.1818
20.1526,11.9262
19.6583,9.6511
18.2761,10.2236
Z" /> 
<path style="fill:#B2803A; fill-opacity:1.0000; 
stroke:#B2803A; stroke-width:0.0000; stroke-opacity:1; 
stroke-linecap:round; stroke-linejoin:round;fill-rule:evenodd;"
d="M 19.7656,14.3386
19.4888,14.1540
18.0443,15.9445
18.6677,16.3603
Z" /> 
<path style="fill:#B2803A; fill-opacity:1.0000; 
stroke:#B2803A; stroke-width:0.0000; stroke-opacity:1; 
stroke-linecap:round; stroke-linejoin:round;fill-rule:evenodd;"
d="M 19.6746,14.3258
19.2022,13.8534
17.2894,15.1807
18.3473,16.2386
Z" /> 
<path style="fill:#B2803A; fill-opacity:1.0000; 
stroke:#B2803A; stroke-width:0.0000; stroke-opacity:1; 
stroke-linecap:round; stroke-linejoin:round;fill-rule:evenodd;"
d="M 19.2022,12.5626
19.6746,12.0902
18.3473,10.1774
17.2894,11.2353
Z" /> 
<path style="fill:#B2803A; fill-opacity:1.0000; 
stroke:#B2803A; stroke-width:0.0000; stroke-opacity:1; 
stroke-linecap:round; stroke-linejoin:round;fill-rule:evenodd;"
d="M 19.2938,13.9926
19.0382,13.3754
16.7631,13.8697
17.3356,15.2519
Z" /> 
<path style="fill:#B2803A; fill-opacity:1.0000; 
stroke:#B2803A; stroke-width:0.0000; stroke-opacity:1; 
stroke-linecap:round; stroke-linejoin:round;fill-rule:evenodd;"
d="M 19.0382,13.0406
19.2938,12.4234
17.3356,11.1641
16.7631,12.5463
Z" /> 
<path style="fill:#B2803A; fill-opacity:1.0000; 
stroke:#B2803A; stroke-width:0.0000; stroke-opacity:1; 
stroke-linecap:round; stroke-linejoin:round;fill-rule:evenodd;"
d="M 19.0703,13.5420
19.0703,12.8740
16.7792,12.4600
16.7792,13.9560
Z" /> 
<path style="fill:#B2803A; fill-opacity:1.0000; 
stroke:#B2803A; stroke-width:0.0000; stroke-opacity:1; 
stroke-linecap:round; stroke-linejoin:round;fill-rule:evenodd;"
d="M 18.5202,16.2363
17.2917,15.0078
16.4296,16.2650
17.2630,17.0984
Z" /> 
<path style="fill:#B2803A; fill-opacity:1.0000; 
stroke:#B2803A; stroke-width:0.0000; stroke-opacity:1; 
stroke-linecap:round; stroke-linejoin:round;fill-rule:evenodd;"
d="M 17.2917,11.4082
18.5202,10.1797
17.2630,9.3176
16.4296,10.1510
Z" /> 
<path style="fill:#B2803A; fill-opacity:1.0000; 
stroke:#B2803A; stroke-width:0.0000; stroke-opacity:1; 
stroke-linecap:round; stroke-linejoin:round;fill-rule:evenodd;"
d="M 16.9037,14.0767
16.9037,12.3393
15.4051,12.6187
15.4051,13.7973
Z" /> 
</g>
<g >
</g>
<g >
</g>
<g style="fill:#B2803A; fill-opacity:1.0000; 
stroke:#B2803A; stroke-width:0.0000; stroke-opacity:1; 
stroke-linecap:round; stroke-linejoin:round;">
</g>
<g style="fill:#B2803A; fill-opacity:1.0000; 
stroke:#B2803A; stroke-width:1.0000; stroke-opacity:1; 
stroke-linecap:round; stroke-linejoin:round;">
</g>
<g style="fill:#B2803A; fill-opacity:0.0; 
stroke:#B2803A; stroke-width:1.0000; stroke-opacity:1; 
stroke-linecap:round; stroke-linejoin:round;">
<path d="M58.4200 48.1800
L58.3400 48.2600
" />
<path d="M58.4200 25.4000
L58.4200 48.1800
" />
<path d="M40.5600 30.5600
L48.2600 22.8600
" />
<path d="M48.2600 22.8600
L58.4200 22.8600
" />
<path d="M40.5600 48.2600
L40.5600 30.5600
" />
<path d="M22.7800 27.7660
L30.2260 20.3200
" />
<path d="M30.2260 20.3200
L58.4200 20.3200
" />
<path d="M22.7800 48.2600
L22.7800 27.7660
" />
<path d="M27.9400 17.7800
L19.0500 26.6700
" />
<path d="M19.0500 26.6700
L19.0500 31.7500
" />
<path d="M19.0500 31.7500
L17.3200 33.4800
" />
<path d="M17.3200 33.4800
L12.7000 33.4800
" />
<path d="M58.4200 17.7800
L27.9400 17.7800
" />
<path d="M16.5100 24.1300
L16.5100 26.6700
" />
<path d="M16.5100 26.6700
L12.7000 30.4800
" />
<path d="M12.7000 20.3200
L16.5100 24.1300
" />
</g>
<g >
</g>
<g style="fill:#B2803A; fill-opacity:0.0; 
stroke:#B2803A; stroke-width:1.0000; stroke-opacity:1; 
stroke-linecap:round; stroke-linejoin:round;">
<g >
</g>
<g style="fill:#B2803A; fill-opacity:1.0000; 
stroke:#B2803A; stroke-width:0.0000; stroke-opacity:1; 
stroke-linecap:round; stroke-linejoin:round;">
<path style="fill:#B2803A; fill-opacity:1.0000; 
stroke:#B2803A; stroke-width:0.0000; stroke-opacity:1; 
stroke-linecap:round; stroke-linejoin:round;fill-rule:evenodd;"
d="M 14.2399,15.7680
14.2609,15.7849
14.6951,16.2191
14.7291,16.2814
14.7320,16.3082
14.7320,19.3040
15.2400,19.8120
15.2400,19.8120
23.6220,19.8120
27.6491,15.7849
27.7114,15.7509
27.7382,15.7480
64.2125,15.7480
64.2806,15.7680
64.3271,15.8217
64.3385,15.8740
64.3385,51.8935
64.3185,51.9616
64.2648,52.0081
64.2125,52.0195
9.4475,52.0195
9.3794,51.9995
9.3329,51.9458
9.3215,51.8935
9.3215,48.2600
10.7673,48.2600
10.7861,48.5340
10.7861,48.5341
10.8419,48.8030
10.8419,48.8030
10.9339,49.0619
11.0603,49.3058
11.0603,49.3058
11.1905,49.4902
12.0945,48.5863
12.1568,48.5522
12.2276,48.5573
12.2836,48.5987
12.3521,48.6879
12.3521,48.6879
12.4413,48.7564
12.4832,48.8138
12.4874,48.8846
12.4537,48.9455
11.5507,49.8485
11.5507,49.8485
11.6193,49.9043
11.6193,49.9043
11.8540,50.0470
12.1060,50.1565
12.3705,50.2306
12.6426,50.2680
12.6426,50.2680
12.9174,50.2680
12.9174,50.2680
13.1895,50.2306
13.4540,50.1565
13.7060,50.0470
13.9407,49.9043
14.0093,49.8485
13.1063,48.9455
13.0722,48.8832
13.0773,48.8124
13.1187,48.7564
13.2079,48.6879
13.2079,48.6879
13.2764,48.5987
13.3338,48.5568
13.4046,48.5526
13.4655,48.5863
14.3695,49.4902
14.4997,49.3058
14.4997,49.3058
14.6261,49.0619
14.7181,48.8030
14.7181,48.8030
14.7739,48.5341
14.7739,48.5340
14.7927,48.2600
15.7673,48.2600
15.7861,48.5340
15.7861,48.5341
15.8419,48.8030
15.8419,48.8030
15.9339,49.0619
16.0603,49.3058
16.0603,49.3058
16.1905,49.4902
17.0945,48.5863
17.1568,48.5522
17.2276,48.5573
17.2836,48.5987
17.3521,48.6879
17.3521,48.6879
17.4413,48.7564
17.4832,48.8138
17.4874,48.8846
17.4537,48.9455
16.5507,49.8485
16.5507,49.8485
16.6193,49.9043
16.6193,49.9043
16.8540,50.0470
17.1060,50.1565
17.3705,50.2306
17.6426,50.2680
17.6426,50.2680
17.9174,50.2680
17.9174,50.2680
18.1895,50.2306
18.4540,50.1565
18.7060,50.0470
18.9407,49.9043
19.0093,49.8485
18.1063,48.9455
18.0722,48.8832
18.0773,48.8124
18.1187,48.7564
18.2079,48.6879
18.2764,48.5987
18.3338,48.5568
18.4046,48.5526
18.4655,48.5863
19.3695,49.4902
19.4997,49.3058
19.4997,49.3058
19.6261,49.0619
19.7181,48.8030
19.7181,48.8030
19.7739,48.5341
19.7739,48.5340
19.7927,48.2600
19.7927,48.2600
19.7739,47.9860
19.7739,47.9859
19.7181,47.7170
19.7181,47.7170
19.6261,47.4581
19.4997,47.2142
19.4997,47.2142
19.3695,47.0297
18.4655,47.9337
18.4032,47.9678
18.3323,47.9627
18.2764,47.9213
18.2079,47.8321
18.2079,47.8321
18.1187,47.7636
18.0768,47.7062
18.0726,47.6354
18.1063,47.5745
19.0093,46.6715
18.9407,46.6157
18.7060,46.4730
18.4540,46.3635
18.1895,46.2894
17.9174,46.2520
17.6426,46.2520
17.3705,46.2894
17.1060,46.3635
16.8540,46.4730
16.6193,46.6157
16.5507,46.6715
17.4537,47.5745
17.4878,47.6368
17.4827,47.7076
17.4413,47.7636
17.3521,47.8321
17.2836,47.9213
17.2262,47.9632
17.1554,47.9674
17.0945,47.9337
16.1905,47.0297
16.0603,47.2142
15.9339,47.4581
15.8419,47.7170
15.8419,47.7170
15.7861,47.9859
15.7861,47.9860
15.7673,48.2600
15.7673,48.2600
14.7927,48.2600
14.7927,48.2600
14.7739,47.9860
14.7739,47.9859
14.7181,47.7170
14.7181,47.7170
14.6261,47.4581
14.4997,47.2142
14.4997,47.2142
14.3695,47.0297
13.4655,47.9337
13.4032,47.9678
13.3323,47.9627
13.2764,47.9213
13.2079,47.8321
13.2079,47.8321
13.1187,47.7636
13.0768,47.7062
13.0726,47.6354
13.1063,47.5745
14.0093,46.6715
13.9407,46.6157
13.7060,46.4730
13.4540,46.3635
13.1895,46.2894
12.9174,46.2520
12.6426,46.2520
12.3705,46.2894
12.1060,46.3635
11.8540,46.4730
11.6193,46.6157
11.5507,46.6715
12.4537,47.5745
12.4878,47.6368
12.4827,47.7076
12.4413,47.7636
12.3521,47.8321
12.2836,47.9213
12.2262,47.9632
12.1554,47.9674
12.0945,47.9337
11.1905,47.0297
11.0603,47.2142
10.9339,47.4581
10.8419,47.7170
10.8419,47.7170
10.7861,47.9859
10.7861,47.9860
10.7673,48.2600
10.7673,48.2600
9.3215,48.2600
9.3215,33.4800
10.9366,33.4800
10.9563,33.7428
10.9563,33.7428
11.0149,33.9998
11.1112,34.2451
11.1112,34.2451
11.2430,34.4734
11.2430,34.4734
11.2430,34.4734
11.4073,34.6794
11.6005,34.8587
11.6005,34.8587
11.8183,35.0072
11.8183,35.0072
11.8183,35.0072
11.8460,35.0205
11.8987,35.0681
11.9173,35.1366
11.8959,35.2043
11.8413,35.2497
11.8268,35.2549
11.6861,35.2962
11.4980,35.3932
11.3316,35.5241
11.1929,35.6841
11.1929,35.6841
11.0871,35.8674
11.0871,35.8674
11.0178,36.0675
11.0178,36.0675
10.9877,36.2770
10.9978,36.4885
10.9978,36.4885
11.0477,36.6942
11.0477,36.6942
11.1356,36.8868
11.1356,36.8868
11.2584,37.0592
11.2584,37.0592
11.2584,37.0592
11.4117,37.2053
11.5897,37.3198
11.7863,37.3984
11.9942,37.4385
11.9942,37.4385
13.3528,37.4385
13.3528,37.4385
13.5107,37.4234
13.7139,37.3638
13.9020,37.2668
14.0684,37.1359
14.0791,37.1236
14.1349,37.0592
14.2071,36.9759
14.3129,36.7926
14.3822,36.5925
14.4123,36.3830
14.4072,36.2770
14.4022,36.1715
14.4022,36.1715
14.4022,36.1715
14.3523,35.9658
14.2644,35.7732
14.2644,35.7732
14.2644,35.7732
14.1416,35.6008
14.1416,35.6008
14.1143,35.5748
13.9883,35.4547
13.8103,35.3402
13.8103,35.3402
13.6137,35.2616
13.5875,35.2565
13.5243,35.2240
13.4888,35.1625
13.4922,35.0916
13.5334,35.0337
13.5566,35.0193
13.5817,35.0072
13.7995,34.8587
13.9927,34.6794
14.1071,34.5359
14.1652,34.4952
14.2056,34.4885
17.2674,34.4885
17.2735,34.4888
17.3200,34.4934
17.3200,34.4934
17.3200,34.4934
17.5177,34.4739
17.5177,34.4739
17.5177,34.4739
17.7078,34.4162
17.8218,34.3553
17.8830,34.3226
18.0366,34.1966
18.0662,34.1604
18.0703,34.1559
19.7259,32.5003
19.7304,32.4962
19.7666,32.4666
19.8926,32.3130
19.9862,32.1378
20.0439,31.9477
20.0510,31.8759
20.0585,31.7995
20.0634,31.7500
20.0634,31.7500
20.0588,31.7035
20.0585,31.6974
20.0585,27.1399
20.0785,27.0718
20.0954,27.0508
28.3208,18.8254
28.3831,18.7914
28.4099,18.7885
56.6855,18.7885
56.7536,18.8085
56.8001,18.8622
56.8115,18.9145
56.8115,18.9286
56.8180,18.9892
56.8180,18.9892
56.8723,19.1346
56.8707,19.1352
56.8836,19.1945
56.8588,19.2610
56.8020,19.3036
56.7579,19.3115
30.2786,19.3115
30.2725,19.3112
30.2260,19.3066
30.2260,19.3066
30.1765,19.3115
30.0283,19.3261
29.8382,19.3838
29.6630,19.4774
29.5094,19.6034
29.4798,19.6395
29.4756,19.6441
22.1041,27.0156
22.0995,27.0198
22.0634,27.0494
21.9374,27.2030
21.8741,27.3215
21.8438,27.3782
21.8438,27.3782
21.7861,27.5683
21.7861,27.5683
21.7666,27.7660
21.7666,27.7660
21.7712,27.8125
21.7715,27.8186
21.7715,46.4517
21.7515,46.5198
21.7110,46.5594
21.6190,46.6153
21.4059,46.7887
21.2183,46.9895
21.0599,47.2140
20.9335,47.4579
20.8415,47.7168
20.8415,47.7169
20.8175,47.8321
20.7903,47.9632
20.7856,47.9859
20.7856,47.9859
20.7668,48.2600
20.7668,48.2600
20.7856,48.5341
20.7856,48.5341
20.7856,48.5341
20.7990,48.5987
20.8415,48.8031
20.8415,48.8032
20.8704,48.8846
20.9335,49.0621
21.0598,49.3058
21.0599,49.3060
21.1278,49.4022
21.2183,49.5305
21.4059,49.7313
21.6190,49.9047
21.8538,50.0475
22.1058,50.1570
22.3704,50.2311
22.4655,50.2442
22.6426,50.2685
22.6426,50.2685
22.9174,50.2685
22.9174,50.2685
23.0469,50.2507
23.1896,50.2311
23.4542,50.1570
23.7062,50.0475
23.9410,49.9047
24.1541,49.7313
24.3417,49.5305
24.5001,49.3060
24.6265,49.0621
24.7185,48.8032
24.7744,48.5341
24.7932,48.2600
28.5473,48.2600
28.5661,48.5340
28.5661,48.5341
28.6219,48.8030
28.6219,48.8030
28.7139,49.0619
28.8403,49.3058
28.8403,49.3058
28.9705,49.4902
29.8745,48.5863
29.9368,48.5522
30.0076,48.5573
30.0636,48.5987
30.1321,48.6879
30.1321,48.6879
30.2213,48.7564
30.2632,48.8138
30.2674,48.8846
30.2337,48.9455
29.3307,49.8485
29.3307,49.8485
29.3993,49.9043
29.3993,49.9043
29.6340,50.0470
29.8860,50.1565
30.1505,50.2306
30.4226,50.2680
30.4226,50.2680
30.6974,50.2680
30.6974,50.2680
30.9695,50.2306
31.2340,50.1565
31.4860,50.0470
31.7207,49.9043
31.7893,49.8485
30.8863,48.9455
30.8522,48.8832
30.8573,48.8124
30.8987,48.7564
30.9879,48.6879
30.9879,48.6879
31.0564,48.5987
31.1138,48.5568
31.1846,48.5526
31.2455,48.5863
32.1495,49.4902
32.2797,49.3058
32.2797,49.3058
32.4061,49.0619
32.4981,48.8030
32.4981,48.8030
32.5539,48.5341
32.5539,48.5340
32.5727,48.2600
33.5473,48.2600
33.5661,48.5340
33.5661,48.5341
33.6219,48.8030
33.6219,48.8030
33.7139,49.0619
33.8403,49.3058
33.8403,49.3058
33.9705,49.4902
34.8745,48.5863
34.9368,48.5522
35.0076,48.5573
35.0636,48.5987
35.1321,48.6879
35.1321,48.6879
35.2213,48.7564
35.2632,48.8138
35.2674,48.8846
35.2337,48.9455
34.3307,49.8485
34.3307,49.8485
34.3993,49.9043
34.3993,49.9043
34.6340,50.0470
34.8860,50.1565
35.1505,50.2306
35.4226,50.2680
35.4226,50.2680
35.6974,50.2680
35.6974,50.2680
35.9695,50.2306
36.2340,50.1565
36.4860,50.0470
36.7207,49.9043
36.7893,49.8485
35.8863,48.9455
35.8522,48.8832
35.8573,48.8124
35.8987,48.7564
35.9879,48.6879
35.9879,48.6879
36.0564,48.5987
36.1138,48.5568
36.1846,48.5526
36.2455,48.5863
37.1495,49.4902
37.2797,49.3058
37.2797,49.3058
37.4061,49.0619
37.4981,48.8030
37.4981,48.8030
37.5539,48.5341
37.5539,48.5340
37.5727,48.2600
37.5727,48.2600
37.5539,47.9860
37.5539,47.9859
37.4981,47.7170
37.4981,47.7170
37.4061,47.4581
37.2797,47.2142
37.2797,47.2142
37.1495,47.0297
36.2455,47.9337
36.1832,47.9678
36.1123,47.9627
36.0564,47.9213
35.9879,47.8321
35.9879,47.8321
35.8987,47.7636
35.8568,47.7062
35.8526,47.6354
35.8863,47.5745
36.7893,46.6715
36.7207,46.6157
36.4860,46.4730
36.2340,46.3635
35.9695,46.2894
35.6974,46.2520
35.4226,46.2520
35.1505,46.2894
34.8860,46.3635
34.6340,46.4730
34.3993,46.6157
34.3307,46.6715
35.2337,47.5745
35.2678,47.6368
35.2627,47.7076
35.2213,47.7636
35.1321,47.8321
35.0636,47.9213
35.0062,47.9632
34.9354,47.9674
34.8745,47.9337
33.9705,47.0297
33.8403,47.2142
33.7139,47.4581
33.6219,47.7170
33.6219,47.7170
33.5661,47.9859
33.5661,47.9860
33.5473,48.2600
33.5473,48.2600
32.5727,48.2600
32.5727,48.2600
32.5539,47.9860
32.5539,47.9859
32.4981,47.7170
32.4981,47.7170
32.4061,47.4581
32.2797,47.2142
32.2797,47.2142
32.1495,47.0297
31.2455,47.9337
31.1832,47.9678
31.1123,47.9627
31.0564,47.9213
30.9879,47.8321
30.9879,47.8321
30.8987,47.7636
30.8568,47.7062
30.8526,47.6354
30.8863,47.5745
31.7893,46.6715
31.7207,46.6157
31.4860,46.4730
31.2340,46.3635
30.9695,46.2894
30.6974,46.2520
30.4226,46.2520
30.1505,46.2894
29.8860,46.3635
29.6340,46.4730
29.3993,46.6157
29.3307,46.6715
30.2337,47.5745
30.2678,47.6368
30.2627,47.7076
30.2213,47.7636
30.1321,47.8321
30.0636,47.9213
30.0062,47.9632
29.9354,47.9674
29.8745,47.9337
28.9705,47.0297
28.8403,47.2142
28.7139,47.4581
28.6219,47.7170
28.6219,47.7170
28.5661,47.9859
28.5661,47.9860
28.5473,48.2600
28.5473,48.2600
24.7932,48.2600
24.7932,48.2600
24.7744,47.9859
24.7185,47.7168
24.6265,47.4579
24.5001,47.2140
24.3417,46.9895
24.1541,46.7887
23.9410,46.6153
23.9290,46.6080
23.8490,46.5594
23.8012,46.5069
23.7885,46.4517
23.7885,39.6240
26.6645,39.6240
26.6845,39.9430
26.6845,39.9430
26.6845,39.9430
26.7444,40.2570
26.8432,40.5611
26.9793,40.8503
26.9793,40.8503
26.9793,40.8503
27.1506,41.1202
27.3544,41.3665
27.3544,41.3665
27.3544,41.3665
27.5874,41.5854
27.8460,41.7733
28.1262,41.9273
28.3422,42.0128
28.4234,42.0449
28.4234,42.0449
28.4234,42.0449
28.7330,42.1244
29.0502,42.1645
29.0502,42.1645
29.3698,42.1645
29.3698,42.1645
29.6870,42.1244
29.9966,42.0449
30.2938,41.9273
30.5740,41.7733
30.8326,41.5854
31.0656,41.3665
31.2694,41.1202
31.2694,41.1202
31.2694,41.1202
31.4407,40.8503
31.4407,40.8503
31.5768,40.5611
31.6756,40.2570
31.7355,39.9430
31.7555,39.6240
31.7355,39.3050
31.6756,38.9910
31.5768,38.6869
31.4407,38.3977
31.4407,38.3977
31.2694,38.1278
31.0656,37.8815
30.8326,37.6626
30.5740,37.4747
30.5310,37.4511
30.2938,37.3207
30.2083,37.2869
29.9966,37.2031
29.9966,37.2031
29.6870,37.1236
29.6870,37.1236
29.6870,37.1236
29.6870,37.1236
29.6870,37.1236
29.3698,37.0835
29.3698,37.0835
29.3698,37.0835
29.0502,37.0835
29.0502,37.0835
29.0501,37.0835
28.7330,37.1236
28.7330,37.1236
28.7330,37.1236
28.7330,37.1236
28.7330,37.1236
28.4234,37.2031
28.4234,37.2031
28.1262,37.3207
27.8460,37.4747
27.5874,37.6626
27.5874,37.6626
27.3544,37.8815
27.1506,38.1278
26.9793,38.3977
26.9793,38.3977
26.8432,38.6869
26.8432,38.6869
26.7445,38.9909
26.7444,38.9910
26.6845,39.3050
26.6845,39.3050
26.6645,39.6240
26.6645,39.6240
23.7885,39.6240
23.7885,28.2359
23.8085,28.1678
23.8254,28.1468
30.6068,21.3654
30.6691,21.3314
30.6959,21.3285
57.1079,21.3285
57.1761,21.3485
57.2037,21.3727
57.2791,21.4609
57.3181,21.4942
57.3569,21.5536
57.3574,21.6246
57.3194,21.6846
57.3181,21.6858
57.2791,21.7191
57.2037,21.8073
57.1443,21.8461
57.1079,21.8515
48.3126,21.8515
48.3065,21.8512
48.2600,21.8466
48.2600,21.8466
48.2105,21.8515
48.0623,21.8661
47.8722,21.9238
47.6970,22.0174
47.5434,22.1434
47.5138,22.1795
47.5097,22.1841
39.8841,29.8096
39.8795,29.8138
39.8434,29.8434
39.7174,29.9970
39.6665,30.0922
39.6238,30.1722
39.6238,30.1722
39.5661,30.3623
39.5661,30.3623
39.5466,30.5600
39.5466,30.5600
39.5512,30.6065
39.5515,30.6126
39.5515,46.4517
39.5315,46.5198
39.4910,46.5594
39.3990,46.6153
39.1859,46.7887
38.9983,46.9895
38.8399,47.2140
38.7135,47.4579
38.6215,47.7168
38.6215,47.7169
38.5975,47.8321
38.5703,47.9632
38.5656,47.9859
38.5656,47.9859
38.5468,48.2600
38.5468,48.2600
38.5656,48.5341
38.5656,48.5341
38.5656,48.5341
38.5790,48.5987
38.6215,48.8031
38.6215,48.8032
38.6504,48.8846
38.7135,49.0621
38.8398,49.3058
38.8399,49.3060
38.9078,49.4022
38.9983,49.5305
39.1859,49.7313
39.3990,49.9047
39.6338,50.0475
39.8858,50.1570
40.1504,50.2311
40.2455,50.2442
40.4226,50.2685
40.4226,50.2685
40.6974,50.2685
40.6974,50.2685
40.8269,50.2507
40.9696,50.2311
41.2342,50.1570
41.4862,50.0475
41.7210,49.9047
41.9341,49.7313
42.1217,49.5305
42.2801,49.3060
42.4065,49.0621
42.4985,48.8032
42.5544,48.5341
42.5732,48.2600
46.3273,48.2600
46.3461,48.5340
46.3461,48.5341
46.4019,48.8030
46.4019,48.8030
46.4939,49.0619
46.6203,49.3058
46.6203,49.3058
46.7505,49.4902
47.6545,48.5863
47.7168,48.5522
47.7876,48.5573
47.8436,48.5987
47.9121,48.6879
47.9121,48.6879
48.0013,48.7564
48.0432,48.8138
48.0474,48.8846
48.0137,48.9455
47.1107,49.8485
47.1107,49.8485
47.1793,49.9043
47.1793,49.9043
47.4140,50.0470
47.6660,50.1565
47.9305,50.2306
48.2026,50.2680
48.2026,50.2680
48.4774,50.2680
48.4774,50.2680
48.7495,50.2306
49.0140,50.1565
49.2660,50.0470
49.5007,49.9043
49.5693,49.8485
48.6663,48.9455
48.6322,48.8832
48.6373,48.8124
48.6787,48.7564
48.7679,48.6879
48.8364,48.5987
48.8938,48.5568
48.9646,48.5526
49.0255,48.5863
49.9295,49.4902
50.0597,49.3058
50.0597,49.3058
50.1861,49.0619
50.2781,48.8030
50.2781,48.8030
50.3339,48.5341
50.3339,48.5340
50.3527,48.2600
51.3273,48.2600
51.3461,48.5340
51.3461,48.5341
51.4019,48.8030
51.4019,48.8030
51.4939,49.0619
51.6203,49.3058
51.6203,49.3058
51.7505,49.4902
52.6545,48.5863
52.7168,48.5522
52.7876,48.5573
52.8436,48.5987
52.9121,48.6879
52.9121,48.6879
53.0013,48.7564
53.0432,48.8138
53.0474,48.8846
53.0137,48.9455
52.1107,49.8485
52.1107,49.8485
52.1793,49.9043
52.1793,49.9043
52.4140,50.0470
52.6660,50.1565
52.9305,50.2306
53.2026,50.2680
53.2026,50.2680
53.4774,50.2680
53.4774,50.2680
53.7495,50.2306
54.0140,50.1565
54.2660,50.0470
54.5007,49.9043
54.5693,49.8485
53.6663,48.9455
53.6322,48.8832
53.6373,48.8124
53.6787,48.7564
53.7679,48.6879
53.7679,48.6879
53.8364,48.5987
53.8938,48.5568
53.9646,48.5526
54.0255,48.5863
54.9295,49.4902
55.0597,49.3058
55.0597,49.3058
55.1861,49.0619
55.2781,48.8030
55.2781,48.8030
55.3339,48.5341
55.3339,48.5340
55.3527,48.2600
55.3527,48.2600
55.3339,47.9860
55.3339,47.9859
55.2781,47.7170
55.2781,47.7170
55.1861,47.4581
55.0597,47.2142
55.0597,47.2142
54.9295,47.0297
54.0255,47.9337
53.9632,47.9678
53.8924,47.9627
53.8364,47.9213
53.7679,47.8321
53.7679,47.8321
53.6787,47.7636
53.6368,47.7062
53.6326,47.6354
53.6663,47.5745
54.5693,46.6715
54.5007,46.6157
54.2660,46.4730
54.0140,46.3635
53.7495,46.2894
53.4774,46.2520
53.2026,46.2520
52.9305,46.2894
52.6660,46.3635
52.4140,46.4730
52.1793,46.6157
52.1107,46.6715
53.0137,47.5745
53.0478,47.6368
53.0427,47.7076
53.0013,47.7636
52.9121,47.8321
52.8436,47.9213
52.7862,47.9632
52.7154,47.9674
52.6545,47.9337
51.7505,47.0297
51.6203,47.2142
51.4939,47.4581
51.4019,47.7170
51.4019,47.7170
51.3461,47.9859
51.3461,47.9860
51.3273,48.2600
51.3273,48.2600
50.3527,48.2600
50.3527,48.2600
50.3339,47.9860
50.3339,47.9859
50.2781,47.7170
50.2781,47.7170
50.1861,47.4581
50.0597,47.2142
50.0597,47.2142
49.9295,47.0297
49.0255,47.9337
48.9632,47.9678
48.8924,47.9627
48.8364,47.9213
48.7679,47.8321
48.7679,47.8321
48.6787,47.7636
48.6368,47.7062
48.6326,47.6354
48.6663,47.5745
49.5693,46.6715
49.5007,46.6157
49.2660,46.4730
49.0140,46.3635
48.7495,46.2894
48.4774,46.2520
48.2026,46.2520
47.9305,46.2894
47.6660,46.3635
47.4140,46.4730
47.1793,46.6157
47.1107,46.6715
48.0137,47.5745
48.0478,47.6368
48.0427,47.7076
48.0013,47.7636
47.9121,47.8321
47.8436,47.9213
47.7862,47.9632
47.7154,47.9674
47.6545,47.9337
46.7505,47.0297
46.6203,47.2142
46.4939,47.4581
46.4019,47.7170
46.4019,47.7170
46.3461,47.9859
46.3461,47.9860
46.3273,48.2600
46.3273,48.2600
42.5732,48.2600
42.5732,48.2600
42.5544,47.9859
42.4985,47.7168
42.4065,47.4579
42.2801,47.2140
42.1217,46.9895
41.9341,46.7887
41.7210,46.6153
41.7090,46.6080
41.6290,46.5594
41.5812,46.5069
41.5685,46.4517
41.5685,31.0299
41.5885,30.9618
41.6054,30.9408
48.6408,23.9054
48.7031,23.8714
48.7299,23.8685
57.1079,23.8685
57.1761,23.8885
57.2037,23.9127
57.2647,23.9841
57.2791,24.0009
57.3181,24.0342
57.3569,24.0936
57.3574,24.1646
57.3194,24.2246
57.3181,24.2258
57.2791,24.2591
57.1147,24.4516
56.9824,24.6675
56.8855,24.9014
56.8264,25.1476
56.8065,25.4000
56.8264,25.6524
56.8387,25.7035
56.8855,25.8986
56.9024,25.9395
56.9824,26.1325
57.1147,26.3484
57.2327,26.4866
57.2791,26.5409
57.3673,26.6163
57.4061,26.6757
57.4115,26.7121
57.4115,46.4031
57.3915,46.4712
57.3510,46.5107
57.1790,46.6153
56.9659,46.7887
56.7783,46.9895
56.6199,47.2140
56.4935,47.4579
56.4015,47.7168
56.4015,47.7169
56.3775,47.8321
56.3503,47.9632
56.3456,47.9859
56.3456,47.9859
56.3268,48.2600
56.3268,48.2600
56.3456,48.5341
56.3456,48.5341
56.3456,48.5341
56.3590,48.5987
56.4015,48.8031
56.4015,48.8032
56.4304,48.8846
56.4935,49.0621
56.6198,49.3058
56.6199,49.3060
56.6878,49.4022
56.7783,49.5305
56.9659,49.7313
57.1790,49.9047
57.4138,50.0475
57.6658,50.1570
57.9304,50.2311
58.0255,50.2442
58.2026,50.2685
58.2026,50.2685
58.4774,50.2685
58.4774,50.2685
58.6069,50.2507
58.7496,50.2311
59.0142,50.1570
59.2662,50.0475
59.5010,49.9047
59.7141,49.7313
59.9017,49.5305
60.0601,49.3060
60.1865,49.0621
60.2785,48.8032
60.3344,48.5341
60.3532,48.2600
60.3344,47.9859
60.2785,47.7168
60.1865,47.4579
60.0601,47.2140
59.9017,46.9895
59.7141,46.7887
59.5010,46.6153
59.4890,46.6080
59.4412,46.5555
59.4285,46.5004
59.4285,26.7121
59.4485,26.6439
59.4727,26.6163
59.5609,26.5409
59.7253,26.3484
59.8576,26.1325
59.9545,25.8986
60.0136,25.6524
60.0335,25.4000
60.0136,25.1476
59.9545,24.9014
59.8576,24.6675
59.7253,24.4516
59.5609,24.2591
59.5609,24.2591
59.5609,24.2591
59.5219,24.2258
59.4831,24.1664
59.4826,24.0954
59.5206,24.0354
59.5219,24.0342
59.5609,24.0009
59.7253,23.8084
59.8576,23.5925
59.9545,23.3586
60.0136,23.1124
60.0335,22.8600
60.0136,22.6076
59.9545,22.3614
59.8576,22.1275
59.7253,21.9116
59.5609,21.7191
59.5609,21.7191
59.5609,21.7191
59.5219,21.6858
59.4831,21.6264
59.4826,21.5554
59.5206,21.4954
59.5219,21.4942
59.5609,21.4609
59.7253,21.2684
59.8576,21.0525
59.9545,20.8186
60.0136,20.5724
60.0335,20.3200
60.0136,20.0676
59.9545,19.8214
59.8576,19.5875
59.7811,19.4626
59.7625,19.3940
59.7840,19.3264
59.8130,19.2959
59.8596,19.2610
59.8833,19.2433
59.9709,19.1262
60.0220,18.9892
60.0285,18.9286
60.0285,16.6314
60.0285,16.6313
60.0220,16.5708
60.0220,16.5708
59.9710,16.4340
59.9709,16.4338
59.9709,16.4338
59.9709,16.4338
59.8833,16.3167
59.7662,16.2291
59.7662,16.2291
59.6292,16.1780
59.6292,16.1780
59.5686,16.1715
59.5686,16.1715
57.2714,16.1715
57.2713,16.1715
57.2108,16.1780
57.2108,16.1780
57.0738,16.2291
57.0738,16.2291
56.9567,16.3167
56.8691,16.4338
56.8691,16.4338
56.8180,16.5708
56.8180,16.5708
56.8115,16.6313
56.8115,16.6455
56.7915,16.7136
56.7378,16.7601
56.6855,16.7715
27.9926,16.7715
27.9865,16.7712
27.9400,16.7666
27.9400,16.7666
27.7423,16.7861
27.5522,16.8438
27.4965,16.8735
27.3770,16.9374
27.2234,17.0634
27.1938,17.0995
27.1897,17.1041
18.3741,25.9196
18.3695,25.9238
18.3334,25.9534
18.2074,26.1070
18.1992,26.1223
18.1138,26.2822
18.1138,26.2822
18.0561,26.4723
18.0561,26.4723
18.0366,26.6700
18.0366,26.6700
18.0412,26.7165
18.0415,26.7226
18.0415,31.2801
18.0215,31.3482
18.0046,31.3692
16.9392,32.4346
16.8769,32.4686
16.8501,32.4715
14.2056,32.4715
14.1375,32.4515
14.1071,32.4241
13.9927,32.2806
13.8388,32.1378
13.7995,32.1013
13.7743,32.0841
13.7293,32.0292
13.7211,31.9587
13.7523,31.8949
13.7743,31.8759
13.7784,31.8731
13.7995,31.8587
13.9927,31.6794
14.1570,31.4734
14.2888,31.2451
14.3851,30.9998
14.4437,30.7428
14.4634,30.4800
14.4442,30.2239
14.4591,30.1545
14.4808,30.1254
17.1859,27.4203
17.1904,27.4162
17.2266,27.3866
17.3526,27.2330
17.4462,27.0578
17.4758,26.9602
17.5039,26.8677
17.5182,26.7226
17.5234,26.6700
17.5234,26.6700
17.5188,26.6235
17.5185,26.6174
17.5185,24.1826
17.5188,24.1765
17.5234,24.1300
17.5234,24.1300
17.5039,23.9323
17.5039,23.9323
17.4467,23.7437
17.4463,23.7423
17.4462,23.7422
17.3526,23.5670
17.2266,23.4134
17.1905,23.3838
17.1859,23.3797
14.3409,20.5347
14.3069,20.4723
14.3044,20.4357
14.3135,20.3200
14.3135,20.3200
14.3135,20.3200
14.2936,20.0676
14.2345,19.8214
14.1376,19.5875
14.0608,19.4621
14.0423,19.3936
14.0637,19.3259
14.0927,19.2954
14.1629,19.2429
14.2504,19.1260
14.2504,19.1260
14.3015,18.9891
14.3080,18.9286
14.3080,18.9286
14.3080,18.0340
13.3232,18.0340
13.2551,18.0140
13.2086,17.9603
13.1985,17.8901
13.2023,17.8725
13.2080,17.8530
13.2080,17.7070
13.2023,17.6875
13.2023,17.6165
13.2407,17.5568
13.3052,17.5273
13.3232,17.5260
14.3080,17.5260
14.3080,16.6314
14.3080,16.6314
14.3015,16.5709
14.2504,16.4340
14.2504,16.4340
14.1629,16.3171
14.0460,16.2296
13.9091,16.1785
13.8486,16.1720
12.9540,16.1720
12.9540,17.1579
12.9340,17.2260
12.8803,17.2725
12.8101,17.2826
12.7520,17.2742
12.7363,17.2720
12.6637,17.2720
12.6480,17.2742
12.5899,17.2826
12.5197,17.2725
12.4660,17.2260
12.4460,17.1579
12.4460,16.1720
11.5514,16.1720
11.4909,16.1785
11.3540,16.2296
11.3540,16.2296
11.2371,16.3171
11.1496,16.4340
11.1496,16.4340
11.0985,16.5709
11.0920,16.6314
11.0920,17.5260
12.0768,17.5260
12.1449,17.5460
12.1914,17.5997
12.2015,17.6699
12.1977,17.6875
12.1920,17.7070
12.1920,17.8530
12.1977,17.8725
12.1977,17.9435
12.1593,18.0032
12.0948,18.0327
12.0768,18.0340
11.0920,18.0340
11.0920,18.9286
11.0985,18.9891
11.1496,19.1260
11.1496,19.1260
11.2371,19.2429
11.3073,19.2954
11.3498,19.3523
11.3549,19.4231
11.3392,19.4621
11.2624,19.5875
11.1655,19.8214
11.1064,20.0676
11.0865,20.3200
11.1064,20.5724
11.1655,20.8186
11.1655,20.8186
11.2624,21.0525
11.3947,21.2684
11.5591,21.4609
11.7516,21.6253
11.9675,21.7576
12.2014,21.8545
12.4476,21.9136
12.7000,21.9335
12.7000,21.9335
12.7000,21.9335
12.7000,21.9335
12.8157,21.9244
12.8851,21.9390
12.9147,21.9609
15.4646,24.5108
15.4986,24.5731
15.5015,24.5999
15.5015,26.2001
15.4815,26.2682
15.4646,26.2892
14.6222,27.1316
14.5599,27.1656
14.4891,27.1605
14.4322,27.1180
14.4103,27.0705
14.3851,26.9602
14.3851,26.9602
14.3851,26.9602
14.2888,26.7149
14.2888,26.7149
14.2888,26.7149
14.1570,26.4866
14.1570,26.4866
13.9927,26.2806
13.7995,26.1013
13.7995,26.1013
13.5817,25.9528
13.5817,25.9528
13.5817,25.9528
13.5817,25.9528
13.5540,25.9395
13.5013,25.8919
13.4827,25.8234
13.5041,25.7557
13.5587,25.7103
13.5732,25.7051
13.7139,25.6638
13.9020,25.5668
14.0684,25.4359
14.2071,25.2759
14.3129,25.0926
14.3822,24.8925
14.4123,24.6830
14.4072,24.5770
14.4022,24.4715
14.4022,24.4715
14.4022,24.4715
14.3523,24.2658
14.2644,24.0732
14.2644,24.0732
14.2644,24.0732
14.1416,23.9008
14.1416,23.9008
14.1077,23.8685
13.9883,23.7547
13.8103,23.6402
13.6137,23.5616
13.6137,23.5616
13.6137,23.5616
13.4059,23.5215
13.4058,23.5215
12.0472,23.5215
12.0472,23.5215
12.0472,23.5215
11.8893,23.5366
11.8893,23.5366
11.6861,23.5962
11.4980,23.6932
11.3316,23.8241
11.1929,23.9841
11.1929,23.9841
11.0871,24.1674
11.0871,24.1674
11.0178,24.3675
11.0178,24.3675
10.9877,24.5770
10.9978,24.7885
10.9978,24.7885
11.0477,24.9942
11.0477,24.9942
11.1356,25.1868
11.1356,25.1868
11.2584,25.3592
11.2584,25.3592
11.2584,25.3592
11.4117,25.5053
11.5897,25.6198
11.7863,25.6984
11.8125,25.7035
11.8757,25.7360
11.9111,25.7975
11.9078,25.8684
11.8666,25.9263
11.8434,25.9407
11.8183,25.9528
11.8183,25.9528
11.6005,26.1013
11.6005,26.1013
11.4073,26.2806
11.2430,26.4866
11.1112,26.7149
11.1112,26.7149
11.0149,26.9602
10.9595,27.2030
10.9563,27.2172
10.9366,27.4800
10.9563,27.7428
10.9563,27.7428
11.0149,27.9998
11.1112,28.2451
11.1112,28.2451
11.2430,28.4734
11.2430,28.4734
11.2430,28.4734
11.4073,28.6794
11.6005,28.8587
11.6005,28.8587
11.6005,28.8587
11.6005,28.8587
11.6257,28.8759
11.6707,28.9308
11.6789,29.0013
11.6477,29.0651
11.6257,29.0841
11.6005,29.1013
11.6005,29.1013
11.4073,29.2806
11.2430,29.4866
11.1112,29.7149
11.1112,29.7149
11.0149,29.9602
10.9665,30.1722
10.9563,30.2172
10.9366,30.4800
10.9563,30.7428
10.9563,30.7428
11.0149,30.9998
11.1112,31.2451
11.1112,31.2451
11.2430,31.4734
11.2430,31.4734
11.2430,31.4734
11.4073,31.6794
11.6005,31.8587
11.6005,31.8587
11.6257,31.8759
11.6707,31.9308
11.6789,32.0013
11.6477,32.0651
11.6257,32.0841
11.6005,32.1013
11.6005,32.1013
11.4073,32.2806
11.2430,32.4866
11.1112,32.7149
11.1112,32.7149
11.0149,32.9602
10.9563,33.2172
10.9563,33.2172
10.9366,33.4800
9.3215,33.4800
9.3215,15.8740
9.3415,15.8059
9.3952,15.7594
9.4475,15.7480
14.1718,15.7480
Z" /> 
</g>
</g>
</g>
<g style="fill:#000000; fill-opacity:1.0000; 
stroke:#000000; stroke-width:0.0000; stroke-opacity:1; 
stroke-linecap:round; stroke-linejoin:round;">
<circle cx="30.5600" cy="48.2600" r="0.6000" /> 
</g>
<g style="fill:#000000; fill-opacity:1.0000; 
stroke:#000000; stroke-width:0.0212; stroke-opacity:1; 
stroke-linecap:round; stroke-linejoin:round;">
</g>
<g style="fill:#000000; fill-opacity:1.0000; 
stroke:#000000; stroke-width:0.0000; stroke-opacity:1; 
stroke-linecap:round; stroke-linejoin:round;">
<circle cx="35.5600" cy="48.2600" r="0.6000" /> 
</g>
<g style="fill:#000000; fill-opacity:1.0000; 
stroke:#000000; stroke-width:0.0212; stroke-opacity:1; 
stroke-linecap:round; stroke-linejoin:round;">
</g>
<g style="fill:#000000; fill-opacity:1.0000; 
stroke:#000000; stroke-width:0.0000; stroke-opacity:1; 
stroke-linecap:round; stroke-linejoin:round;">
<circle cx="40.5600" cy="48.2600" r="0.6000" /> 
</g>
<g style="fill:#000000; fill-opacity:1.0000; 
stroke:#000000; stroke-width:0.0212; stroke-opacity:1; 
stroke-linecap:round; stroke-linejoin:round;">
</g>
<g style="fill:#000000; fill-opacity:1.0000; 
stroke:#000000; stroke-width:0.0000; stroke-opacity:1; 
stroke-linecap:round; stroke-linejoin:round;">
<circle cx="48.3400" cy="48.2600" r="0.6000" /> 
</g>
<g style="fill:#000000; fill-opacity:1.0000; 
stroke:#000000; stroke-width:0.0212; stroke-opacity:1; 
stroke-linecap:round; stroke-linejoin:round;">
</g>
<g style="fill:#000000; fill-opacity:1.0000; 
stroke:#000000; stroke-width:0.0000; stroke-opacity:1; 
stroke-linecap:round; stroke-linejoin:round;">
<circle cx="53.3400" cy="48.2600" r="0.6000" /> 
</g>
<g style="fill:#000000; fill-opacity:1.0000; 
stroke:#000000; stroke-width:0.0212; stroke-opacity:1; 
stroke-linecap:round; stroke-linejoin:round;">
</g>
<g style="fill:#000000; fill-opacity:1.0000; 
stroke:#000000; stroke-width:0.0000; stroke-opacity:1; 
stroke-linecap:round; stroke-linejoin:round;">
<circle cx="58.3400" cy="48.2600" r="0.6000" /> 
</g>
<g style="fill:#000000; fill-opacity:1.0000; 
stroke:#000000; stroke-width:0.0212; stroke-opacity:1; 
stroke-linecap:round; stroke-linejoin:round;">
</g>
<g style="fill:#000000; fill-opacity:1.0000; 
stroke:#000000; stroke-width:0.0000; stroke-opacity:1; 
stroke-linecap:round; stroke-linejoin:round;">
<circle cx="12.7800" cy="48.2600" r="0.6000" /> 
</g>
<g style="fill:#000000; fill-opacity:1.0000; 
stroke:#000000; stroke-width:0.0212; stroke-opacity:1; 
stroke-linecap:round; stroke-linejoin:round;">
</g>
<g style="fill:#000000; fill-opacity:1.0000; 
stroke:#000000; stroke-width:0.0000; stroke-opacity:1; 
stroke-linecap:round; stroke-linejoin:round;">
<circle cx="17.7800" cy="48.2600" r="0.6000" /> 
</g>
<g style="fill:#000000; fill-opacity:1.0000; 
stroke:#000000; stroke-width:0.0212; stroke-opacity:1; 
stroke-linecap:round; stroke-linejoin:round;">
</g>
<g style="fill:#000000; fill-opacity:1.0000; 
stroke:#000000; stroke-width:0.0000; stroke-opacity:1; 
stroke-linecap:round; stroke-linejoin:round;">
<circle cx="22.7800" cy="48.2600" r="0.6000" /> 
</g>
<g style="fill:#000000; fill-opacity:1.0000; 
stroke:#000000; stroke-width:0.0212; stroke-opacity:1; 
stroke-linecap:round; stroke-linejoin:round;">
</g>
<g style="fill:#000000; fill-opacity:1.0000; 
stroke:#000000; stroke-width:0.0000; stroke-opacity:1; 
stroke-linecap:round; stroke-linejoin:round;">
<circle cx="58.4200" cy="17.7800" r="0.5080" /> 
</g>
<g style="fill:#000000; fill-opacity:1.0000; 
stroke:#000000; stroke-width:0.0212; stroke-opacity:1; 
stroke-linecap:round; stroke-linejoin:round;">
</g>
<g style="fill:#000000; fill-opacity:1.0000; 
stroke:#000000; stroke-width:0.0000; stroke-opacity:1; 
stroke-linecap:round; stroke-linejoin:round;">
<circle cx="58.4200" cy="20.3200" r="0.5080" /> 
</g>
<g style="fill:#000000; fill-opacity:1.0000; 
stroke:#000000; stroke-width:0.0212; stroke-opacity:1; 
stroke-linecap:round; stroke-linejoin:round;">
</g>
<g style="fill:#000000; fill-opacity:1.0000; 
stroke:#000000; stroke-width:0.0000; stroke-opacity:1; 
stroke-linecap:round; stroke-linejoin:round;">
<circle cx="58.4200" cy="22.8600" r="0.5080" /> 
</g>
<g style="fill:#000000; fill-opacity:1.0000; 
stroke:#000000; stroke-width:0.0212; stroke-opacity:1; 
stroke-linecap:round; stroke-linejoin:round;">
</g>
<g style="fill:#000000; fill-opacity:1.0000; 
stroke:#000000; stroke-width:0.0000; stroke-opacity:1; 
stroke-linecap:round; stroke-linejoin:round;">
<circle cx="58.4200" cy="25.4000" r="0.5080" /> 
</g>
<g style="fill:#000000; fill-opacity:1.0000; 
stroke:#000000; stroke-width:0.0212; stroke-opacity:1; 
stroke-linecap:round; stroke-linejoin:round;">
</g>
<g style="fill:#000000; fill-opacity:1.0000; 
stroke:#000000; stroke-width:0.0000; stroke-opacity:1; 
stroke-linecap:round; stroke-linejoin:round;">
<circle cx="12.7000" cy="17.7800" r="0.5080" /> 
</g>
<g style="fill:#000000; fill-opacity:1.0000; 
stroke:#000000; stroke-width:0.0212; stroke-opacity:1; 
stroke-linecap:round; stroke-linejoin:round;">
</g>
<g style="fill:#000000; fill-opacity:1.0000; 
stroke:#000000; stroke-width:0.0000; stroke-opacity:1; 
stroke-linecap:round; stroke-linejoin:round;">
<circle cx="12.7000" cy="20.3200" r="0.5080" /> 
</g>
<g style="fill:#000000; fill-opacity:1.0000; 
stroke:#000000; stroke-width:0.0212; stroke-opacity:1; 
stroke-linecap:round; stroke-linejoin:round;">
</g>
<g style="fill:#000000; fill-opacity:1.0000; 
stroke:#000000; stroke-width:0.0000; stroke-opacity:1; 
stroke-linecap:round; stroke-linejoin:round;">
<circle cx="29.2354" cy="11.7983" r="1.5240" /> 
</g>
<g style="fill:#000000; fill-opacity:1.0000; 
stroke:#000000; stroke-width:0.0212; stroke-opacity:1; 
stroke-linecap:round; stroke-linejoin:round;">
</g>
<g style="fill:#000000; fill-opacity:1.0000; 
stroke:#000000; stroke-width:0.0000; stroke-opacity:1; 
stroke-linecap:round; stroke-linejoin:round;">
<circle cx="29.2100" cy="39.6240" r="1.5240" /> 
</g>
<g style="fill:#000000; fill-opacity:1.0000; 
stroke:#000000; stroke-width:0.0212; stroke-opacity:1; 
stroke-linecap:round; stroke-linejoin:round;">
</g>
<g style="fill:#000000; fill-opacity:1.0000; 
stroke:#000000; stroke-width:0.8000; stroke-opacity:1; 
stroke-linecap:round; stroke-linejoin:round;">
</g>
<g style="fill:#000000; fill-opacity:0.0; 
stroke:#000000; stroke-width:0.8000; stroke-opacity:1; 
stroke-linecap:round; stroke-linejoin:round;">
<path d="M12.1000 36.3300
L13.3000 36.3300
" />
<path d="M12.1000 24.6300
L13.3000 24.6300
" />
</g>
<g style="fill:#000000; fill-opacity:1.0000; 
stroke:#000000; stroke-width:0.0000; stroke-opacity:1; 
stroke-linecap:round; stroke-linejoin:round;">
<circle cx="12.7000" cy="33.4800" r="0.6000" /> 
</g>
<g style="fill:#000000; fill-opacity:1.0000; 
stroke:#000000; stroke-width:0.0212; stroke-opacity:1; 
stroke-linecap:round; stroke-linejoin:round;">
</g>
<g style="fill:#000000; fill-opacity:1.0000; 
stroke:#000000; stroke-width:0.0000; stroke-opacity:1; 
stroke-linecap:round; stroke-linejoin:round;">
<circle cx="12.7000" cy="30.4800" r="0.6000" /> 
</g>
<g style="fill:#000000; fill-opacity:1.0000; 
stroke:#000000; stroke-width:0.0212; stroke-opacity:1; 
stroke-linecap:round; stroke-linejoin:round;">
</g>
<g style="fill:#000000; fill-opacity:1.0000; 
stroke:#000000; stroke-width:0.0000; stroke-opacity:1; 
stroke-linecap:round; stroke-linejoin:round;">
<circle cx="12.7000" cy="27.4800" r="0.6000" /> 
</g>
<g style="fill:#000000; fill-opacity:1.0000; 
stroke:#000000; stroke-width:0.0212; stroke-opacity:1; 
stroke-linecap:round; stroke-linejoin:round;">
</g>
<g style="fill:#FFFFFF; fill-opacity:1.0000; 
stroke:#FFFFFF; stroke-width:0.0212; stroke-opacity:1; 
stroke-linecap:round; stroke-linejoin:round;">
<g >
</g>
<g style="fill:#37CBCB; fill-opacity:1.0000; 
stroke:#37CBCB; stroke-width:0.0212; stroke-opacity:1; 
stroke-linecap:round; stroke-linejoin:round;">
</g>
<g style="fill:#37CBCB; fill-opacity:1.0000; 
stroke:#37CBCB; stroke-width:0.0000; stroke-opacity:1; 
stroke-linecap:round; stroke-linejoin:round;">
<circle cx="30.5600" cy="48.2600" r="1.5000" /> 
</g>
<g style="fill:#37CBCB; fill-opacity:1.0000; 
stroke:#37CBCB; stroke-width:0.0212; stroke-opacity:1; 
stroke-linecap:round; stroke-linejoin:round;">
</g>
<g style="fill:#37CBCB; fill-opacity:1.0000; 
stroke:#37CBCB; stroke-width:0.0000; stroke-opacity:1; 
stroke-linecap:round; stroke-linejoin:round;">
<circle cx="35.5600" cy="48.2600" r="1.5000" /> 
</g>
<g style="fill:#37CBCB; fill-opacity:1.0000; 
stroke:#37CBCB; stroke-width:0.0212; stroke-opacity:1; 
stroke-linecap:round; stroke-linejoin:round;">
</g>
<g style="fill:#37CBCB; fill-opacity:1.0000; 
stroke:#37CBCB; stroke-width:0.0000; stroke-opacity:1; 
stroke-linecap:round; stroke-linejoin:round;">
<circle cx="40.5600" cy="48.2600" r="1.5000" /> 
</g>
<g style="fill:#37CBCB; fill-opacity:1.0000; 
stroke:#37CBCB; stroke-width:0.0212; stroke-opacity:1; 
stroke-linecap:round; stroke-linejoin:round;">
</g>
<g >
</g>
<g style="fill:#37CBCB; fill-opacity:1.0000; 
stroke:#37CBCB; stroke-width:0.0212; stroke-opacity:1; 
stroke-linecap:round; stroke-linejoin:round;">
</g>
<g style="fill:#37CBCB; fill-opacity:1.0000; 
stroke:#37CBCB; stroke-width:0.0000; stroke-opacity:1; 
stroke-linecap:round; stroke-linejoin:round;">
<circle cx="48.3400" cy="48.2600" r="1.5000" /> 
</g>
<g style="fill:#37CBCB; fill-opacity:1.0000; 
stroke:#37CBCB; stroke-width:0.0212; stroke-opacity:1; 
stroke-linecap:round; stroke-linejoin:round;">
</g>
<g style="fill:#37CBCB; fill-opacity:1.0000; 
stroke:#37CBCB; stroke-width:0.0000; stroke-opacity:1; 
stroke-linecap:round; stroke-linejoin:round;">
<circle cx="53.3400" cy="48.2600" r="1.5000" /> 
</g>
<g style="fill:#37CBCB; fill-opacity:1.0000; 
stroke:#37CBCB; stroke-width:0.0212; stroke-opacity:1; 
stroke-linecap:round; stroke-linejoin:round;">
</g>
<g style="fill:#37CBCB; fill-opacity:1.0000; 
stroke:#37CBCB; stroke-width:0.0000; stroke-opacity:1; 
stroke-linecap:round; stroke-linejoin:round;">
<circle cx="58.3400" cy="48.2600" r="1.5000" /> 
</g>
<g style="fill:#37CBCB; fill-opacity:1.0000; 
stroke:#37CBCB; stroke-width:0.0212; stroke-opacity:1; 
stroke-linecap:round; stroke-linejoin:round;">
</g>
<g >
</g>
<g style="fill:#37CBCB; fill-opacity:1.0000; 
stroke:#37CBCB; stroke-width:0.0212; stroke-opacity:1; 
stroke-linecap:round; stroke-linejoin:round;">
</g>
<g style="fill:#37CBCB; fill-opacity:1.0000; 
stroke:#37CBCB; stroke-width:0.0000; stroke-opacity:1; 
stroke-linecap:round; stroke-linejoin:round;">
<circle cx="12.7800" cy="48.2600" r="1.5000" /> 
</g>
<g style="fill:#37CBCB; fill-opacity:1.0000; 
stroke:#37CBCB; stroke-width:0.0212; stroke-opacity:1; 
stroke-linecap:round; stroke-linejoin:round;">
</g>
<g style="fill:#37CBCB; fill-opacity:1.0000; 
stroke:#37CBCB; stroke-width:0.0000; stroke-opacity:1; 
stroke-linecap:round; stroke-linejoin:round;">
<circle cx="17.7800" cy="48.2600" r="1.5000" /> 
</g>
<g style="fill:#37CBCB; fill-opacity:1.0000; 
stroke:#37CBCB; stroke-width:0.0212; stroke-opacity:1; 
stroke-linecap:round; stroke-linejoin:round;">
</g>
<g style="fill:#37CBCB; fill-opacity:1.0000; 
stroke:#37CBCB; stroke-width:0.0000; stroke-opacity:1; 
stroke-linecap:round; stroke-linejoin:round;">
<circle cx="22.7800" cy="48.2600" r="1.5000" /> 
</g>
<g style="fill:#37CBCB; fill-opacity:1.0000; 
stroke:#37CBCB; stroke-width:0.0212; stroke-opacity:1; 
stroke-linecap:round; stroke-linejoin:round;">
</g>
<g >
</g>
<g style="fill:#37CBCB; fill-opacity:1.0000; 
stroke:#37CBCB; stroke-width:0.0212; stroke-opacity:1; 
stroke-linecap:round; stroke-linejoin:round;">
</g>
<g style="fill:#37CBCB; fill-opacity:1.0000; 
stroke:#37CBCB; stroke-width:0.0000; stroke-opacity:1; 
stroke-linecap:round; stroke-linejoin:round;">
<path style="fill:#37CBCB; fill-opacity:1.0000; 
stroke:#37CBCB; stroke-width:0.0000; stroke-opacity:1; 
stroke-linecap:round; stroke-linejoin:round;fill-rule:evenodd;"
d="M 57.3200,16.6800
59.5200,16.6800
59.5200,18.8800
57.3200,18.8800
Z" /> 
<circle cx="58.4200" cy="20.3200" r="1.1000" /> 
</g>
<g style="fill:#37CBCB; fill-opacity:1.0000; 
stroke:#37CBCB; stroke-width:0.0212; stroke-opacity:1; 
stroke-linecap:round; stroke-linejoin:round;">
</g>
<g style="fill:#37CBCB; fill-opacity:1.0000; 
stroke:#37CBCB; stroke-width:0.0000; stroke-opacity:1; 
stroke-linecap:round; stroke-linejoin:round;">
<circle cx="58.4200" cy="22.8600" r="1.1000" /> 
</g>
<g style="fill:#37CBCB; fill-opacity:1.0000; 
stroke:#37CBCB; stroke-width:0.0212; stroke-opacity:1; 
stroke-linecap:round; stroke-linejoin:round;">
</g>
<g style="fill:#37CBCB; fill-opacity:1.0000; 
stroke:#37CBCB; stroke-width:0.0000; stroke-opacity:1; 
stroke-linecap:round; stroke-linejoin:round;">
<circle cx="58.4200" cy="25.4000" r="1.1000" /> 
</g>
<g style="fill:#37CBCB; fill-opacity:1.0000; 
stroke:#37CBCB; stroke-width:0.0212; stroke-opacity:1; 
stroke-linecap:round; stroke-linejoin:round;">
</g>
<g >
</g>
<g style="fill:#37CBCB; fill-opacity:1.0000; 
stroke:#37CBCB; stroke-width:0.0212; stroke-opacity:1; 
stroke-linecap:round; stroke-linejoin:round;">
</g>
<g style="fill:#37CBCB; fill-opacity:1.0000; 
stroke:#37CBCB; stroke-width:0.0000; stroke-opacity:1; 
stroke-linecap:round; stroke-linejoin:round;">
<path style="fill:#37CBCB; fill-opacity:1.0000; 
stroke:#37CBCB; stroke-width:0.0000; stroke-opacity:1; 
stroke-linecap:round; stroke-linejoin:round;fill-rule:evenodd;"
d="M 11.6000,16.6800
13.8000,16.6800
13.8000,18.8800
11.6000,18.8800
Z" /> 
<circle cx="12.7000" cy="20.3200" r="1.1000" /> 
</g>
<g style="fill:#37CBCB; fill-opacity:1.0000; 
stroke:#37CBCB; stroke-width:0.0212; stroke-opacity:1; 
stroke-linecap:round; stroke-linejoin:round;">
</g>
<g >
</g>
<g style="fill:#37CBCB; fill-opacity:1.0000; 
stroke:#37CBCB; stroke-width:0.0212; stroke-opacity:1; 
stroke-linecap:round; stroke-linejoin:round;">
</g>
<g style="fill:#37CBCB; fill-opacity:1.0000; 
stroke:#37CBCB; stroke-width:0.0000; stroke-opacity:1; 
stroke-linecap:round; stroke-linejoin:round;">
<circle cx="29.2354" cy="11.7983" r="2.0320" /> 
</g>
<g style="fill:#37CBCB; fill-opacity:1.0000; 
stroke:#37CBCB; stroke-width:0.0212; stroke-opacity:1; 
stroke-linecap:round; stroke-linejoin:round;">
</g>
<g >
</g>
<g style="fill:#37CBCB; fill-opacity:1.0000; 
stroke:#37CBCB; stroke-width:0.0212; stroke-opacity:1; 
stroke-linecap:round; stroke-linejoin:round;">
</g>
<g style="fill:#37CBCB; fill-opacity:1.0000; 
stroke:#37CBCB; stroke-width:0.0000; stroke-opacity:1; 
stroke-linecap:round; stroke-linejoin:round;">
<circle cx="29.2100" cy="39.6240" r="2.0320" /> 
</g>
<g style="fill:#37CBCB; fill-opacity:1.0000; 
stroke:#37CBCB; stroke-width:0.0212; stroke-opacity:1; 
stroke-linecap:round; stroke-linejoin:round;">
</g>
<g >
</g>
<g style="fill:#37CBCB; fill-opacity:1.0000; 
stroke:#37CBCB; stroke-width:0.0212; stroke-opacity:1; 
stroke-linecap:round; stroke-linejoin:round;">
</g>
<g style="fill:#37CBCB; fill-opacity:1.0000; 
stroke:#37CBCB; stroke-width:1.2000; stroke-opacity:1; 
stroke-linecap:round; stroke-linejoin:round;">
</g>
<g style="fill:#37CBCB; fill-opacity:0.0; 
stroke:#37CBCB; stroke-width:1.2000; stroke-opacity:1; 
stroke-linecap:round; stroke-linejoin:round;">
<path d="M12.1000 36.3300
L13.3000 36.3300
" />
<path d="M12.1000 24.6300
L13.3000 24.6300
" />
</g>
<g style="fill:#37CBCB; fill-opacity:1.0000; 
stroke:#37CBCB; stroke-width:0.0000; stroke-opacity:1; 
stroke-linecap:round; stroke-linejoin:round;">
<circle cx="12.7000" cy="33.4800" r="1.2500" /> 
</g>
<g style="fill:#37CBCB; fill-opacity:1.0000; 
stroke:#37CBCB; stroke-width:0.0212; stroke-opacity:1; 
stroke-linecap:round; stroke-linejoin:round;">
</g>
<g style="fill:#37CBCB; fill-opacity:1.0000; 
stroke:#37CBCB; stroke-width:0.0000; stroke-opacity:1; 
stroke-linecap:round; stroke-linejoin:round;">
<circle cx="12.7000" cy="30.4800" r="1.2500" /> 
</g>
<g style="fill:#37CBCB; fill-opacity:1.0000; 
stroke:#37CBCB; stroke-width:0.0212; stroke-opacity:1; 
stroke-linecap:round; stroke-linejoin:round;">
</g>
<g style="fill:#37CBCB; fill-opacity:1.0000; 
stroke:#37CBCB; stroke-width:0.0000; stroke-opacity:1; 
stroke-linecap:round; stroke-linejoin:round;">
<circle cx="12.7000" cy="27.4800" r="1.2500" /> 
</g>
<g style="fill:#37CBCB; fill-opacity:1.0000; 
stroke:#37CBCB; stroke-width:0.0212; stroke-opacity:1; 
stroke-linecap:round; stroke-linejoin:round;">
</g>
<g >
</g>
<g >
</g>
<g >
</g>
<g >
</g>
</g>
<g style="fill:#000000; fill-opacity:1.0000; 
stroke:#000000; stroke-width:0.0212; stroke-opacity:1; 
stroke-linecap:round; stroke-linejoin:round;">
</g>
<g style="fill:#000000; fill-opacity:1.0000; 
stroke:#000000; stroke-width:0.0000; stroke-opacity:1; 
stroke-linecap:round; stroke-linejoin:round;">
<circle cx="30.5600" cy="48.2600" r="0.6000" /> 
</g>
<g style="fill:#000000; fill-opacity:1.0000; 
stroke:#000000; stroke-width:0.0212; stroke-opacity:1; 
stroke-linecap:round; stroke-linejoin:round;">
</g>
<g style="fill:#000000; fill-opacity:1.0000; 
stroke:#000000; stroke-width:0.0000; stroke-opacity:1; 
stroke-linecap:round; stroke-linejoin:round;">
<circle cx="35.5600" cy="48.2600" r="0.6000" /> 
</g>
<g style="fill:#000000; fill-opacity:1.0000; 
stroke:#000000; stroke-width:0.0212; stroke-opacity:1; 
stroke-linecap:round; stroke-linejoin:round;">
</g>
<g style="fill:#000000; fill-opacity:1.0000; 
stroke:#000000; stroke-width:0.0000; stroke-opacity:1; 
stroke-linecap:round; stroke-linejoin:round;">
<circle cx="40.5600" cy="48.2600" r="0.6000" /> 
</g>
<g style="fill:#000000; fill-opacity:1.0000; 
stroke:#000000; stroke-width:0.0212; stroke-opacity:1; 
stroke-linecap:round; stroke-linejoin:round;">
</g>
<g style="fill:#000000; fill-opacity:1.0000; 
stroke:#000000; stroke-width:0.0000; stroke-opacity:1; 
stroke-linecap:round; stroke-linejoin:round;">
<circle cx="48.3400" cy="48.2600" r="0.6000" /> 
</g>
<g style="fill:#000000; fill-opacity:1.0000; 
stroke:#000000; stroke-width:0.0212; stroke-opacity:1; 
stroke-linecap:round; stroke-linejoin:round;">
</g>
<g style="fill:#000000; fill-opacity:1.0000; 
stroke:#000000; stroke-width:0.0000; stroke-opacity:1; 
stroke-linecap:round; stroke-linejoin:round;">
<circle cx="53.3400" cy="48.2600" r="0.6000" /> 
</g>
<g style="fill:#000000; fill-opacity:1.0000; 
stroke:#000000; stroke-width:0.0212; stroke-opacity:1; 
stroke-linecap:round; stroke-linejoin:round;">
</g>
<g style="fill:#000000; fill-opacity:1.0000; 
stroke:#000000; stroke-width:0.0000; stroke-opacity:1; 
stroke-linecap:round; stroke-linejoin:round;">
<circle cx="58.3400" cy="48.2600" r="0.6000" /> 
</g>
<g style="fill:#000000; fill-opacity:1.0000; 
stroke:#000000; stroke-width:0.0212; stroke-opacity:1; 
stroke-linecap:round; stroke-linejoin:round;">
</g>
<g style="fill:#000000; fill-opacity:1.0000; 
stroke:#000000; stroke-width:0.0000; stroke-opacity:1; 
stroke-linecap:round; stroke-linejoin:round;">
<circle cx="12.7800" cy="48.2600" r="0.6000" /> 
</g>
<g style="fill:#000000; fill-opacity:1.0000; 
stroke:#000000; stroke-width:0.0212; stroke-opacity:1; 
stroke-linecap:round; stroke-linejoin:round;">
</g>
<g style="fill:#000000; fill-opacity:1.0000; 
stroke:#000000; stroke-width:0.0000; stroke-opacity:1; 
stroke-linecap:round; stroke-linejoin:round;">
<circle cx="17.7800" cy="48.2600" r="0.6000" /> 
</g>
<g style="fill:#000000; fill-opacity:1.0000; 
stroke:#000000; stroke-width:0.0212; stroke-opacity:1; 
stroke-linecap:round; stroke-linejoin:round;">
</g>
<g style="fill:#000000; fill-opacity:1.0000; 
stroke:#000000; stroke-width:0.0000; stroke-opacity:1; 
stroke-linecap:round; stroke-linejoin:round;">
<circle cx="22.7800" cy="48.2600" r="0.6000" /> 
</g>
<g style="fill:#000000; fill-opacity:1.0000; 
stroke:#000000; stroke-width:0.0212; stroke-opacity:1; 
stroke-linecap:round; stroke-linejoin:round;">
</g>
<g style="fill:#000000; fill-opacity:1.0000; 
stroke:#000000; stroke-width:0.0000; stroke-opacity:1; 
stroke-linecap:round; stroke-linejoin:round;">
<circle cx="58.4200" cy="17.7800" r="0.5080" /> 
</g>
<g style="fill:#000000; fill-opacity:1.0000; 
stroke:#000000; stroke-width:0.0212; stroke-opacity:1; 
stroke-linecap:round; stroke-linejoin:round;">
</g>
<g style="fill:#000000; fill-opacity:1.0000; 
stroke:#000000; stroke-width:0.0000; stroke-opacity:1; 
stroke-linecap:round; stroke-linejoin:round;">
<circle cx="58.4200" cy="20.3200" r="0.5080" /> 
</g>
<g style="fill:#000000; fill-opacity:1.0000; 
stroke:#000000; stroke-width:0.0212; stroke-opacity:1; 
stroke-linecap:round; stroke-linejoin:round;">
</g>
<g style="fill:#000000; fill-opacity:1.0000; 
stroke:#000000; stroke-width:0.0000; stroke-opacity:1; 
stroke-linecap:round; stroke-linejoin:round;">
<circle cx="58.4200" cy="22.8600" r="0.5080" /> 
</g>
<g style="fill:#000000; fill-opacity:1.0000; 
stroke:#000000; stroke-width:0.0212; stroke-opacity:1; 
stroke-linecap:round; stroke-linejoin:round;">
</g>
<g style="fill:#000000; fill-opacity:1.0000; 
stroke:#000000; stroke-width:0.0000; stroke-opacity:1; 
stroke-linecap:round; stroke-linejoin:round;">
<circle cx="58.4200" cy="25.4000" r="0.5080" /> 
</g>
<g style="fill:#000000; fill-opacity:1.0000; 
stroke:#000000; stroke-width:0.0212; stroke-opacity:1; 
stroke-linecap:round; stroke-linejoin:round;">
</g>
<g style="fill:#000000; fill-opacity:1.0000; 
stroke:#000000; stroke-width:0.0000; stroke-opacity:1; 
stroke-linecap:round; stroke-linejoin:round;">
<circle cx="12.7000" cy="17.7800" r="0.5080" /> 
</g>
<g style="fill:#000000; fill-opacity:1.0000; 
stroke:#000000; stroke-width:0.0212; stroke-opacity:1; 
stroke-linecap:round; stroke-linejoin:round;">
</g>
<g style="fill:#000000; fill-opacity:1.0000; 
stroke:#000000; stroke-width:0.0000; stroke-opacity:1; 
stroke-linecap:round; stroke-linejoin:round;">
<circle cx="12.7000" cy="20.3200" r="0.5080" /> 
</g>
<g style="fill:#000000; fill-opacity:1.0000; 
stroke:#000000; stroke-width:0.0212; stroke-opacity:1; 
stroke-linecap:round; stroke-linejoin:round;">
</g>
<g style="fill:#000000; fill-opacity:1.0000; 
stroke:#000000; stroke-width:0.0000; stroke-opacity:1; 
stroke-linecap:round; stroke-linejoin:round;">
<circle cx="29.2354" cy="11.7983" r="1.5240" /> 
</g>
<g style="fill:#000000; fill-opacity:1.0000; 
stroke:#000000; stroke-width:0.0212; stroke-opacity:1; 
stroke-linecap:round; stroke-linejoin:round;">
</g>
<g style="fill:#000000; fill-opacity:1.0000; 
stroke:#000000; stroke-width:0.0000; stroke-opacity:1; 
stroke-linecap:round; stroke-linejoin:round;">
<circle cx="29.2100" cy="39.6240" r="1.5240" /> 
</g>
<g style="fill:#000000; fill-opacity:1.0000; 
stroke:#000000; stroke-width:0.0212; stroke-opacity:1; 
stroke-linecap:round; stroke-linejoin:round;">
</g>
<g style="fill:#000000; fill-opacity:1.0000; 
stroke:#000000; stroke-width:0.8000; stroke-opacity:1; 
stroke-linecap:round; stroke-linejoin:round;">
</g>
<g style="fill:#000000; fill-opacity:0.0; 
stroke:#000000; stroke-width:0.8000; stroke-opacity:1; 
stroke-linecap:round; stroke-linejoin:round;">
<path d="M12.1000 36.3300
L13.3000 36.3300
" />
<path d="M12.1000 24.6300
L13.3000 24.6300
" />
</g>
<g style="fill:#000000; fill-opacity:1.0000; 
stroke:#000000; stroke-width:0.0000; stroke-opacity:1; 
stroke-linecap:round; stroke-linejoin:round;">
<circle cx="12.7000" cy="33.4800" r="0.6000" /> 
</g>
<g style="fill:#000000; fill-opacity:1.0000; 
stroke:#000000; stroke-width:0.0212; stroke-opacity:1; 
stroke-linecap:round; stroke-linejoin:round;">
</g>
<g style="fill:#000000; fill-opacity:1.0000; 
stroke:#000000; stroke-width:0.0000; stroke-opacity:1; 
stroke-linecap:round; stroke-linejoin:round;">
<circle cx="12.7000" cy="30.4800" r="0.6000" /> 
</g>
<g style="fill:#000000; fill-opacity:1.0000; 
stroke:#000000; stroke-width:0.0212; stroke-opacity:1; 
stroke-linecap:round; stroke-linejoin:round;">
</g>
<g style="fill:#000000; fill-opacity:1.0000; 
stroke:#000000; stroke-width:0.0000; stroke-opacity:1; 
stroke-linecap:round; stroke-linejoin:round;">
<circle cx="12.7000" cy="27.4800" r="0.6000" /> 
</g>
<g style="fill:#000000; fill-opacity:1.0000; 
stroke:#000000; stroke-width:0.0212; stroke-opacity:1; 
stroke-linecap:round; stroke-linejoin:round;">
</g>
<g style="fill:#FFFFFF; fill-opacity:1.0000; 
stroke:#FFFFFF; stroke-width:0.0212; stroke-opacity:1; 
stroke-linecap:round; stroke-linejoin:round;">
</g>
<g style="fill:#2F2D31; fill-opacity:1.0000; 
stroke:#2F2D31; stroke-width:0.0212; stroke-opacity:1; 
stroke-linecap:round; stroke-linejoin:round;">
</g>
<g style="fill:#2F2D31; fill-opacity:1.0000; 
stroke:#2F2D31; stroke-width:0.1000; stroke-opacity:1; 
stroke-linecap:round; stroke-linejoin:round;">
</g>
<g style="fill:#2F2D31; fill-opacity:0.0; 
stroke:#2F2D31; stroke-width:0.1000; stroke-opacity:1; 
stroke-linecap:round; stroke-linejoin:round;">
<path d="M9.2710 52.0700
L64.3890 52.0700
" />
<path d="M64.3890 6.8580
L9.2710 6.8580
" />
<path d="M9.2710 6.8580
L9.2710 52.0700
" />
<path d="M64.3890 52.0700
L64.3890 6.8580
" />
<g >
</g>
<g >
</g>
<g >
</g>
<g >
</g>
<g >
</g>
<g >
</g>
<g >
</g>
<g >
</g>
<g >
</g>
<g >
</g>
<g >
</g>
<g >
</g>
</g> 
</svg>
