<?xml version="1.0" standalone="no"?>
 <!DOCTYPE svg PUBLIC "-//W3C//DTD SVG 1.1//EN" 
 "http://www.w3.org/Graphics/SVG/1.1/DTD/svg11.dtd"> 
<svg
  xmlns:svg="http://www.w3.org/2000/svg"
  xmlns="http://www.w3.org/2000/svg"
  xmlns:xlink="http://www.w3.org/1999/xlink"
  version="1.1"
  width="239.3188mm" height="105.8926mm" viewBox="0.0000 0.0000 239.3188 105.8926">
<title>SVG Image created as working-brd.svg date 2023/09/18 20:14:34 </title>
  <desc>Image generated by PCBNEW </desc>
<g style="fill:#000000; fill-opacity:1.0000;stroke:#000000; stroke-opacity:1.0000;
stroke-linecap:round; stroke-linejoin:round;"
 transform="translate(0 0) scale(1 1)">
</g>
<g style="fill:#000000; fill-opacity:0.0; 
stroke:#000000; stroke-width:0.0000; stroke-opacity:1; 
stroke-linecap:round; stroke-linejoin:round;">
</g>
<g style="fill:#000000; fill-opacity:1.0000; 
stroke:#000000; stroke-width:0.0212; stroke-opacity:1; 
stroke-linecap:round; stroke-linejoin:round;">
<rect x="-5.000000" y="-5.000000" width="249.325000" height="115.900000" rx="0.000000" />
</g>
<g style="fill:#FFFFFF; fill-opacity:1.0000; 
stroke:#FFFFFF; stroke-width:0.0212; stroke-opacity:1; 
stroke-linecap:round; stroke-linejoin:round;">
</g>
<g style="fill:#B2803A; fill-opacity:1.0000; 
stroke:#B2803A; stroke-width:0.0212; stroke-opacity:1; 
stroke-linecap:round; stroke-linejoin:round;">
</g>
<g style="fill:#B2803A; fill-opacity:1.0000; 
stroke:#B2803A; stroke-width:0.0100; stroke-opacity:1; 
stroke-linecap:round; stroke-linejoin:round;">
<path style="fill:#B2803A; fill-opacity:1.0000; 
stroke:#B2803A; stroke-width:0.0100; stroke-opacity:1; 
stroke-linecap:round; stroke-linejoin:round;fill-rule:evenodd;"
d="M 121.3000,74.5500
121.0435,74.5048
120.8179,74.3745
120.6505,74.1750
120.5614,73.9302
120.5614,73.6698
120.6505,73.4250
120.8179,73.2255
121.0435,73.0952
121.3000,73.0500
Z" /> 
<path style="fill:#B2803A; fill-opacity:1.0000; 
stroke:#B2803A; stroke-width:0.0100; stroke-opacity:1; 
stroke-linecap:round; stroke-linejoin:round;fill-rule:evenodd;"
d="M 121.7565,73.0952
121.9821,73.2255
122.1495,73.4250
122.2386,73.6698
122.2386,73.9302
122.1495,74.1750
121.9821,74.3745
121.7565,74.5048
121.5000,74.5500
121.5000,73.0500
Z" /> 
<g >
</g>
<g style="fill:#B2803A; fill-opacity:1.0000; 
stroke:#B2803A; stroke-width:0.0000; stroke-opacity:1; 
stroke-linecap:round; stroke-linejoin:round;">
<circle cx="120.9500" cy="73.8000" r="0.2000" /> 
</g>
<g style="fill:#B2803A; fill-opacity:1.0000; 
stroke:#B2803A; stroke-width:0.0212; stroke-opacity:1; 
stroke-linecap:round; stroke-linejoin:round;">
</g>
<g style="fill:#B2803A; fill-opacity:1.0000; 
stroke:#B2803A; stroke-width:0.0000; stroke-opacity:1; 
stroke-linecap:round; stroke-linejoin:round;">
<circle cx="121.8500" cy="73.8000" r="0.2000" /> 
</g>
<g style="fill:#B2803A; fill-opacity:1.0000; 
stroke:#B2803A; stroke-width:0.0212; stroke-opacity:1; 
stroke-linecap:round; stroke-linejoin:round;">
</g>
<g >
</g>
<g style="fill:#121212; fill-opacity:1.0000; 
stroke:#121212; stroke-width:0.0212; stroke-opacity:1; 
stroke-linecap:round; stroke-linejoin:round;">
</g>
<g style="fill:#121212; fill-opacity:1.0000; 
stroke:#121212; stroke-width:0.0000; stroke-opacity:1; 
stroke-linecap:round; stroke-linejoin:round;">
<circle cx="92.1750" cy="73.8500" r="0.4000" /> 
</g>
<g style="fill:#121212; fill-opacity:1.0000; 
stroke:#121212; stroke-width:0.0212; stroke-opacity:1; 
stroke-linecap:round; stroke-linejoin:round;">
</g>
<g >
</g>
<g >
</g>
<g style="fill:#B2803A; fill-opacity:1.0000; 
stroke:#B2803A; stroke-width:0.0212; stroke-opacity:1; 
stroke-linecap:round; stroke-linejoin:round;">
<g >
</g>
<g style="fill:#B2803A; fill-opacity:1.0000; 
stroke:#B2803A; stroke-width:0.0000; stroke-opacity:1; 
stroke-linecap:round; stroke-linejoin:round;">
<path style="fill:#B2803A; fill-opacity:1.0000; 
stroke:#B2803A; stroke-width:0.0000; stroke-opacity:1; 
stroke-linecap:round; stroke-linejoin:round;fill-rule:evenodd;"
d="M 34.7295,7.5027
34.7350,7.5032
35.0668,7.5469
35.0722,7.5479
35.3990,7.6203
35.4043,7.6217
35.7235,7.7224
35.7286,7.7242
36.0185,7.8443
36.0379,7.8523
36.0428,7.8546
36.3397,8.0092
36.3445,8.0119
36.6267,8.1918
36.6312,8.1949
36.8968,8.3987
36.9010,8.4022
36.9875,8.4815
37.1498,8.6302
39.7773,11.2577
39.7773,11.2578
39.8142,11.2946
39.8142,11.2946
39.8823,11.3627
39.9407,11.4211
39.9407,11.4211
40.2147,11.6511
40.2147,11.6511
40.5076,11.8563
40.5076,11.8563
40.5076,11.8563
40.6088,11.9147
40.8174,12.0352
41.1415,12.1865
41.4392,12.2950
41.4776,12.3090
41.8231,12.4017
41.9352,12.4216
42.1753,12.4641
42.1753,12.4641
42.4172,12.4854
42.5316,12.4955
42.7105,12.4956
42.7374,12.4957
42.7374,12.4957
42.7825,12.4957
175.8877,12.6005
175.8877,12.6005
175.9024,12.6005
175.9024,12.6005
176.0510,12.6006
176.4081,12.5696
176.7611,12.5076
176.7611,12.5076
176.7611,12.5076
176.9342,12.4613
177.1073,12.4150
177.4442,12.2926
177.4442,12.2926
177.4442,12.2926
177.7691,12.1412
177.9528,12.0352
178.0795,11.9621
178.2003,11.8776
178.3732,11.7566
178.3732,11.7566
178.3732,11.7566
178.3732,11.7566
178.6478,11.5262
178.7529,11.4211
178.7529,11.4211
178.7632,11.4107
178.7632,11.4107
178.7824,11.3915
178.7935,11.3804
178.7935,11.3804
178.8112,11.3627
178.8113,11.3627
179.7664,10.4076
184.3163,10.4076
184.3369,10.6291
184.3977,10.8431
184.3977,10.8431
184.4969,11.0423
184.4969,11.0423
184.6310,11.2198
184.7954,11.3697
184.7954,11.3697
184.9846,11.4868
184.9846,11.4868
184.9846,11.4868
185.0750,11.5219
185.1920,11.5672
185.1920,11.5672
185.1920,11.5672
185.4107,11.6081
185.4107,11.6081
185.6332,11.6081
185.6332,11.6081
185.8519,11.5672
185.8519,11.5672
185.8519,11.5672
185.9053,11.5465
186.0594,11.4868
186.2485,11.3697
186.4130,11.2198
186.5470,11.0423
186.5470,11.0423
186.5470,11.0423
186.6462,10.8431
186.6462,10.8431
186.6462,10.8431
186.7071,10.6291
186.7276,10.4076
186.7071,10.1861
186.6462,9.9721
186.6462,9.9721
186.6462,9.9721
186.5470,9.7729
186.5470,9.7729
186.4130,9.5954
186.2485,9.4455
186.2485,9.4455
186.0594,9.3284
186.0594,9.3284
186.0594,9.3284
186.0518,9.3254
185.8519,9.2480
185.8129,9.2407
185.6332,9.2071
185.4107,9.2071
185.2696,9.2335
185.1920,9.2480
184.9846,9.3283
184.9846,9.3284
184.7954,9.4455
184.7954,9.4455
184.6310,9.5954
184.4969,9.7729
184.4969,9.7729
184.3977,9.9721
184.3977,9.9721
184.3369,10.1861
184.3163,10.4076
179.7664,10.4076
181.4237,8.7502
181.4237,8.7502
181.6725,8.5223
181.6767,8.5187
181.8817,8.3614
181.9423,8.3150
181.9468,8.3118
182.0417,8.2514
182.2291,8.1320
182.2338,8.1293
182.5307,7.9747
182.5356,7.9724
182.8449,7.8443
182.8500,7.8424
183.1693,7.7418
183.1745,7.7404
183.5013,7.6679
183.5067,7.6670
183.8385,7.6233
183.8440,7.6228
184.1813,7.6081
184.2080,7.6081
186.8405,7.6081
186.8674,7.6081
187.2045,7.6228
187.2100,7.6233
187.5418,7.6670
187.5472,7.6679
187.8740,7.7404
187.8793,7.7418
188.1985,7.8424
188.2036,7.8443
188.5129,7.9724
188.5178,7.9747
188.8147,8.1293
188.8195,8.1320
189.0068,8.2514
189.1017,8.3118
189.1062,8.3150
189.3718,8.5187
189.3760,8.5223
189.6248,8.7503
192.3075,11.4330
192.3077,11.4331
192.4156,11.5411
192.4156,11.5411
192.4156,11.5411
192.4156,11.5411
192.6897,11.7711
192.6897,11.7711
192.9826,11.9763
192.9826,11.9763
192.9826,11.9763
193.2924,12.1552
193.6166,12.3065
193.6166,12.3065
193.6166,12.3065
193.8390,12.3876
193.9323,12.4216
193.9526,12.4290
193.9526,12.4290
194.2981,12.5218
194.6504,12.5841
194.8345,12.6003
195.0067,12.6155
195.1856,12.6156
195.2125,12.6157
195.2125,12.6157
195.2647,12.6157
195.2647,12.6157
204.4172,12.6225
204.4243,12.6229
204.5400,12.6361
204.5675,12.6423
204.6673,12.6774
204.6927,12.6896
204.7823,12.7459
204.8043,12.7635
204.8791,12.8384
204.8967,12.8604
204.9529,12.9500
204.9651,12.9754
205.0001,13.0753
205.0063,13.1028
205.0194,13.2190
205.0198,13.2260
205.0198,13.2740
205.0198,13.2740
205.0198,31.9482
205.0198,31.9486
205.0198,32.0014
205.0198,32.0014
205.0198,32.0014
205.0506,32.1560
205.0506,32.1560
205.1087,32.2963
205.1109,32.3017
205.1985,32.4328
205.3100,32.5443
205.3537,32.5735
205.4411,32.6320
205.4411,32.6320
205.4411,32.6320
205.5868,32.6923
205.7415,32.7231
205.7942,32.7231
205.7942,32.7231
209.1684,32.7231
209.1918,32.7231
209.1988,32.7235
209.2300,32.7270
209.3146,32.7365
209.3421,32.7428
209.4420,32.7777
209.4674,32.7900
209.5571,32.8463
209.5791,32.8639
209.6540,32.9387
209.6716,32.9608
209.7279,33.0504
209.7401,33.0758
209.7621,33.1385
209.7751,33.1758
209.7814,33.2033
209.7944,33.3188
209.7948,33.3259
209.7948,50.9982
209.7948,50.9986
209.7948,51.0514
209.7948,51.0514
209.7948,51.0514
209.8256,51.2060
209.8256,51.2060
209.8859,51.3517
209.8859,51.3517
209.8859,51.3517
209.9735,51.4828
209.9735,51.4828
209.9735,51.4828
210.0850,51.5943
210.0977,51.6028
210.2161,51.6820
210.2161,51.6820
210.2161,51.6820
210.3618,51.7423
210.3618,51.7423
210.3618,51.7423
210.4044,51.7508
210.5165,51.7731
210.5953,51.7731
213.9418,51.7731
213.9488,51.7735
214.0193,51.7814
214.0646,51.7865
214.0921,51.7928
214.1920,51.8277
214.2174,51.8400
214.3071,51.8963
214.3291,51.9139
214.4040,51.9887
214.4216,52.0108
214.4779,52.1004
214.4901,52.1258
214.5065,52.1726
214.5251,52.2258
214.5314,52.2533
214.5444,52.3688
214.5448,52.3758
214.5448,70.0482
214.5448,70.0486
214.5448,70.1014
214.5448,70.1014
214.5448,70.1014
214.5756,70.2560
214.5756,70.2561
214.6359,70.4017
214.6359,70.4017
214.6359,70.4017
214.7235,70.5328
214.7235,70.5328
214.7235,70.5328
214.8350,70.6443
214.8787,70.6735
214.9661,70.7320
214.9661,70.7320
214.9661,70.7320
215.1118,70.7923
215.1118,70.7923
215.1118,70.7923
215.1552,70.8009
215.2665,70.8231
215.3453,70.8231
218.7417,70.8231
218.7488,70.8235
218.8646,70.8365
218.8921,70.8428
218.9920,70.8778
219.0175,70.8900
219.1071,70.9464
219.1292,70.9640
219.2040,71.0389
219.2216,71.0610
219.2779,71.1507
219.2902,71.1761
219.3251,71.2761
219.3314,71.3036
219.3444,71.4195
219.3447,71.4266
219.3328,90.2394
219.3324,90.2464
219.3192,90.3622
219.3129,90.3897
219.2779,90.4896
219.2657,90.5150
219.2093,90.6046
219.1917,90.6266
219.1168,90.7014
219.0947,90.7190
219.0499,90.7471
219.0051,90.7752
218.9796,90.7874
218.8797,90.8223
218.8522,90.8286
218.7357,90.8416
218.7287,90.8420
218.6958,90.8420
218.6958,90.8420
209.5535,90.8367
209.5534,90.8367
209.3223,90.8366
209.3222,90.8366
209.3222,90.8366
209.3222,90.8366
209.1337,90.8530
208.9652,90.8676
208.7080,90.9129
208.6123,90.9297
208.2661,91.0223
207.9294,91.1448
207.9294,91.1448
207.9294,91.1448
207.6055,91.2957
207.6046,91.2961
207.2942,91.4752
207.2942,91.4752
207.2942,91.4752
207.0658,91.6351
207.0015,91.6801
207.0007,91.6807
206.9134,91.7539
206.7262,91.9110
206.6107,92.0265
206.6107,92.0265
206.6107,92.0265
206.5995,92.0377
206.5887,92.0484
203.9372,94.6999
203.6885,94.9279
203.6843,94.9314
203.4187,95.1352
203.4142,95.1383
203.1320,95.3182
203.1272,95.3209
202.8303,95.4754
202.8254,95.4778
202.5161,95.6058
202.5110,95.6077
202.1918,95.7084
202.1865,95.7098
201.8597,95.7822
201.8543,95.7832
201.5225,95.8269
201.5170,95.8273
201.1939,95.8415
201.1801,95.8421
198.4936,95.8421
198.1565,95.8273
198.1510,95.8269
198.0726,95.8165
197.8192,95.7832
197.8138,95.7822
197.4870,95.7098
197.4817,95.7084
197.1625,95.6077
197.1574,95.6058
196.8481,95.4778
196.8432,95.4754
196.5463,95.3209
196.5415,95.3181
196.3339,95.1859
196.2593,95.1383
196.2548,95.1352
195.9892,94.9314
195.9850,94.9279
195.7361,94.6998
195.6995,94.6632
195.6995,94.6632
195.6995,94.6632
194.0789,93.0426
198.6288,93.0426
198.6494,93.2641
198.7102,93.4781
198.7102,93.4781
198.8094,93.6772
198.8094,93.6772
198.9435,93.8548
199.1079,94.0047
199.1079,94.0047
199.2971,94.1218
199.2971,94.1218
199.2971,94.1218
199.3875,94.1568
199.5045,94.2022
199.5045,94.2022
199.5045,94.2022
199.7232,94.2431
199.7232,94.2431
199.9457,94.2431
199.9457,94.2431
200.1644,94.2022
200.1644,94.2022
200.1644,94.2022
200.2178,94.1815
200.3719,94.1218
200.5610,94.0047
200.7254,93.8548
200.8595,93.6772
200.8595,93.6772
200.8595,93.6772
200.9587,93.4781
200.9587,93.4781
200.9587,93.4781
201.0196,93.2641
201.0401,93.0426
201.0196,92.8210
200.9587,92.6070
200.9587,92.6070
200.9587,92.6070
200.8595,92.4079
200.8595,92.4079
200.7254,92.2303
200.5610,92.0804
200.5610,92.0804
200.3719,91.9633
200.3719,91.9633
200.3719,91.9633
200.3673,91.9615
200.1644,91.8829
200.1254,91.8757
199.9457,91.8421
199.7232,91.8421
199.5821,91.8684
199.5045,91.8829
199.2971,91.9633
199.2971,91.9633
199.1079,92.0804
199.1079,92.0804
198.9435,92.2303
198.8094,92.4079
198.8094,92.4079
198.7102,92.6070
198.7102,92.6070
198.6494,92.8210
198.6288,93.0426
194.0789,93.0426
193.0963,92.0600
193.0678,92.0315
193.0678,92.0315
193.0676,92.0313
193.0673,92.0310
193.0137,91.9774
192.9589,91.9226
192.6847,91.6925
192.3914,91.4871
192.0814,91.3081
192.0804,91.3077
192.0039,91.2720
191.7569,91.1568
191.4205,91.0343
191.4205,91.0343
191.4205,91.0343
191.4205,91.0343
191.2174,90.9799
191.0747,90.9416
190.8182,90.8964
190.7221,90.8795
190.6775,90.8755
190.3654,90.8482
190.1864,90.8482
190.1595,90.8482
190.1595,90.8482
190.0127,90.8482
57.0649,90.8359
57.0647,90.8359
56.8337,90.8359
56.8336,90.8359
56.8336,90.8359
56.8336,90.8359
56.4768,90.8670
56.4768,90.8670
56.4768,90.8670
56.1242,90.9292
56.1242,90.9292
55.7783,91.0219
55.6963,91.0517
55.4417,91.1443
55.1172,91.2957
54.9327,91.4022
54.8071,91.4747
54.5137,91.6801
54.4989,91.6925
54.2394,91.9103
54.2394,91.9103
54.2394,91.9103
54.2394,91.9103
54.1723,91.9774
54.1723,91.9774
54.1012,92.0484
54.1012,92.0484
51.4688,94.6809
51.4498,94.6999
51.3813,94.7627
51.2010,94.9279
51.1968,94.9314
50.9312,95.1352
50.9267,95.1383
50.6445,95.3181
50.6397,95.3209
50.3428,95.4754
50.3379,95.4778
50.0286,95.6058
50.0235,95.6077
49.7043,95.7084
49.6990,95.7098
49.3722,95.7822
49.3668,95.7832
49.0350,95.8269
49.0295,95.8273
48.7064,95.8415
48.6926,95.8421
46.0061,95.8421
45.9918,95.8414
45.6690,95.8273
45.6635,95.8269
45.3317,95.7832
45.3263,95.7822
44.9995,95.7098
44.9942,95.7084
44.6750,95.6077
44.6699,95.6058
44.3606,95.4778
44.3557,95.4754
44.0588,95.3209
44.0540,95.3181
43.8789,95.2065
43.7718,95.1383
43.7673,95.1352
43.5017,94.9314
43.4975,94.9279
43.3466,94.7896
43.2486,94.6998
43.2297,94.6809
41.5914,93.0426
46.1413,93.0426
46.1619,93.2641
46.2227,93.4781
46.2227,93.4781
46.3219,93.6772
46.3219,93.6772
46.4560,93.8548
46.6204,94.0047
46.6204,94.0047
46.8096,94.1218
46.8096,94.1218
46.8096,94.1218
46.9000,94.1568
47.0170,94.2022
47.0170,94.2022
47.0170,94.2022
47.2357,94.2431
47.2357,94.2431
47.4582,94.2431
47.4582,94.2431
47.6769,94.2022
47.6769,94.2022
47.6769,94.2022
47.7303,94.1815
47.8844,94.1218
48.0735,94.0047
48.2379,93.8548
48.3720,93.6772
48.3720,93.6772
48.3720,93.6772
48.4712,93.4781
48.4712,93.4781
48.4712,93.4781
48.5321,93.2641
48.5526,93.0426
48.5321,92.8210
48.4712,92.6070
48.4712,92.6070
48.4712,92.6070
48.3720,92.4079
48.3720,92.4079
48.2379,92.2303
48.0735,92.0804
48.0735,92.0804
47.8844,91.9633
47.8844,91.9633
47.8844,91.9633
47.8798,91.9615
47.6769,91.8829
47.6379,91.8757
47.4582,91.8421
47.2357,91.8421
47.0946,91.8684
47.0170,91.8829
46.8096,91.9633
46.8096,91.9633
46.6204,92.0804
46.6204,92.0804
46.4560,92.2303
46.3219,92.4079
46.3219,92.4079
46.2227,92.6070
46.2227,92.6070
46.1619,92.8210
46.1413,93.0426
41.5914,93.0426
40.6342,92.0854
40.6342,92.0853
40.4708,91.9219
40.1967,91.6919
40.0251,91.5717
39.9036,91.4867
39.5938,91.3077
39.5680,91.2957
39.2695,91.1564
39.2695,91.1564
38.9333,91.0339
38.8529,91.0123
38.5877,90.9412
38.5877,90.9412
38.5877,90.9412
38.3930,90.9068
38.2354,90.8789
38.2354,90.8789
38.2354,90.8789
37.8789,90.8475
37.8745,90.8475
37.7261,90.8475
37.7159,90.8475
37.7159,90.8475
28.4719,90.8425
28.4619,90.8424
28.4619,90.8424
28.4485,90.8424
28.4415,90.8420
28.3257,90.8289
28.2982,90.8227
28.1984,90.7877
28.1730,90.7754
28.1554,90.7644
28.0834,90.7191
28.0613,90.7015
27.9865,90.6266
27.9689,90.6046
27.9127,90.5150
27.9004,90.4896
27.8655,90.3897
27.8592,90.3622
27.8462,90.2469
27.8458,90.2398
27.8458,90.2160
27.8458,73.8500
91.2615,73.8500
91.2815,74.0399
91.3084,74.1227
91.3405,74.2216
91.3405,74.2216
91.4360,74.3869
91.4360,74.3870
91.5637,74.5289
91.5637,74.5289
91.7182,74.6411
91.8927,74.7188
92.0795,74.7585
92.2705,74.7585
92.4573,74.7188
92.6318,74.6411
92.7863,74.5289
92.7952,74.5189
92.9140,74.3870
92.9140,74.3869
92.9140,74.3869
93.0095,74.2216
93.0685,74.0399
93.0766,73.9631
120.0437,73.9631
120.0550,74.0175
120.0557,74.0214
120.0636,74.0764
120.0636,74.0764
120.0848,74.1227
120.0867,74.1273
120.1601,74.3291
120.1617,74.3339
120.1752,74.3830
120.1752,74.3830
120.2045,74.4302
120.2065,74.4337
120.2327,74.4826
120.2685,74.5189
120.2718,74.5226
120.2771,74.5289
120.4098,74.6870
120.4129,74.6910
120.4424,74.7324
120.4861,74.7668
120.4891,74.7694
120.5305,74.8064
120.5305,74.8064
120.5305,74.8064
120.5765,74.8283
120.5809,74.8306
120.7248,74.9137
120.7669,74.9381
120.7711,74.9407
120.8132,74.9696
120.8659,74.9870
120.8696,74.9883
120.9211,75.0089
120.9719,75.0138
120.9768,75.0145
121.0671,75.0304
121.1793,75.0501
121.1861,75.0517
121.2262,75.0635
121.2262,75.0635
121.2919,75.0635
121.3576,75.0656
121.3576,75.0656
121.3657,75.0647
121.3738,75.0635
121.3738,75.0635
121.3738,75.0635
121.3821,75.0623
121.4179,75.0623
121.4262,75.0635
121.4262,75.0635
121.4262,75.0635
121.4343,75.0647
121.4424,75.0656
121.4424,75.0656
121.5081,75.0635
121.5738,75.0635
121.6139,75.0517
121.6207,75.0501
121.8232,75.0145
121.8281,75.0138
121.8789,75.0089
121.9304,74.9883
121.9341,74.9870
121.9868,74.9696
122.0093,74.9542
122.0289,74.9407
122.0331,74.9381
122.2191,74.8306
122.2235,74.8283
122.2695,74.8064
122.3109,74.7694
122.3139,74.7668
122.3576,74.7324
122.3576,74.7324
122.3871,74.6910
122.3902,74.6870
122.5282,74.5226
122.5315,74.5189
122.5317,74.5188
122.5673,74.4826
122.5935,74.4336
122.5955,74.4302
122.6248,74.3830
122.6383,74.3339
122.6399,74.3291
122.6399,74.3291
122.7133,74.1273
122.7152,74.1227
122.7364,74.0764
122.7443,74.0214
122.7450,74.0175
122.7514,73.9866
122.7563,73.9631
122.7523,73.9123
122.7521,73.9073
122.7521,73.6927
122.7523,73.6877
122.7523,73.6877
122.7563,73.6369
122.7450,73.5825
122.7443,73.5786
122.7443,73.5786
122.7364,73.5236
122.7152,73.4773
122.7133,73.4727
122.6399,73.2709
122.6383,73.2661
122.6248,73.2170
122.6248,73.2170
122.5955,73.1698
122.5935,73.1664
122.5673,73.1174
122.5315,73.0811
122.5282,73.0774
122.3902,72.9130
122.3871,72.9090
122.3576,72.8676
122.3576,72.8676
122.3139,72.8332
122.3109,72.8306
122.2695,72.7936
122.2695,72.7936
122.2235,72.7717
122.2191,72.7694
122.0331,72.6619
122.0288,72.6593
121.9868,72.6304
121.9341,72.6131
121.9304,72.6117
121.8789,72.5911
121.8789,72.5911
121.8281,72.5862
121.8232,72.5855
121.6207,72.5499
121.6139,72.5483
121.5738,72.5365
121.5738,72.5365
121.5738,72.5365
121.5738,72.5365
121.5081,72.5365
121.4424,72.5344
121.4343,72.5353
121.4262,72.5365
121.4262,72.5365
121.4262,72.5365
121.4179,72.5377
121.3821,72.5377
121.3738,72.5365
121.3738,72.5365
121.3738,72.5365
121.3657,72.5353
121.3576,72.5344
121.3576,72.5344
121.2919,72.5365
121.2262,72.5365
121.2262,72.5365
121.2262,72.5365
121.1861,72.5483
121.1793,72.5499
120.9768,72.5855
120.9719,72.5862
120.9211,72.5911
120.9211,72.5911
120.9049,72.5976
120.8696,72.6117
120.8659,72.6131
120.8132,72.6303
120.7711,72.6593
120.7669,72.6619
120.5809,72.7694
120.5765,72.7717
120.5305,72.7936
120.5305,72.7936
120.5305,72.7936
120.4891,72.8306
120.4861,72.8332
120.4424,72.8676
120.4424,72.8676
120.4129,72.9090
120.4098,72.9130
120.2718,73.0774
120.2685,73.0811
120.2327,73.1174
120.2065,73.1664
120.2045,73.1698
120.1752,73.2170
120.1752,73.2170
120.1617,73.2661
120.1601,73.2709
120.0867,73.4727
120.0848,73.4773
120.0636,73.5236
120.0636,73.5236
120.0557,73.5786
120.0550,73.5825
120.0437,73.6369
120.0477,73.6877
120.0479,73.6927
120.0479,73.9073
120.0477,73.9123
120.0437,73.9631
93.0766,73.9631
93.0885,73.8500
93.0685,73.6601
93.0095,73.4784
92.9140,73.3131
92.9140,73.3131
92.9140,73.3130
92.7863,73.1711
92.6318,73.0589
92.4573,72.9812
92.2705,72.9415
92.0795,72.9415
91.8927,72.9812
91.7182,73.0589
91.5637,73.1711
91.4360,73.3130
91.4360,73.3131
91.3405,73.4784
91.3405,73.4784
91.2815,73.6601
91.2615,73.8500
27.8458,73.8500
27.8458,72.6498
27.8458,72.6497
27.8458,72.5976
27.8458,72.5976
27.8458,72.5187
27.8151,72.3641
27.7547,72.2184
27.7547,72.2184
27.6671,72.0873
27.6671,72.0873
27.5556,71.9758
27.5556,71.9758
27.4245,71.8882
27.3215,71.8455
27.2788,71.8278
27.2788,71.8278
27.1242,71.7971
27.1242,71.7971
27.0612,71.7971
27.0612,71.7971
23.6739,71.7971
23.6668,71.7967
23.5949,71.7886
23.5510,71.7836
23.5235,71.7773
23.4938,71.7669
23.4236,71.7424
23.3982,71.7301
23.3086,71.6738
23.2865,71.6562
23.2116,71.5814
23.1941,71.5593
23.1377,71.4697
23.1255,71.4443
23.1181,71.4231
23.0906,71.3444
23.0843,71.3169
23.0712,71.2008
23.0708,71.1938
23.0708,71.1895
23.0708,71.1706
23.0708,71.1706
23.0708,71.1560
23.0708,71.1560
23.0708,53.6248
23.0708,53.6247
23.0708,53.5726
23.0708,53.5726
23.0708,53.4937
23.0401,53.3391
22.9797,53.1934
22.8921,53.0623
22.8364,53.0065
22.7806,52.9508
22.7806,52.9508
22.6495,52.8632
22.6495,52.8632
22.5957,52.8409
22.5038,52.8028
22.3492,52.7721
22.3492,52.7721
22.3492,52.7721
22.2862,52.7721
18.9472,52.7721
18.9239,52.7721
18.9168,52.7717
18.8599,52.7653
18.8010,52.7586
18.7735,52.7523
18.6736,52.7174
18.6482,52.7051
18.5586,52.6488
18.5365,52.6312
18.4617,52.5564
18.4441,52.5343
18.3878,52.4447
18.3755,52.4193
18.3406,52.3194
18.3343,52.2919
18.3212,52.1758
18.3208,52.1688
18.3208,52.1310
18.3208,52.1310
18.3208,34.5748
18.3208,34.5747
18.3208,34.5226
18.3208,34.5226
18.3208,34.4437
18.2901,34.2891
18.2297,34.1434
18.2297,34.1434
18.1421,34.0123
18.1421,34.0123
18.0306,33.9008
18.0306,33.9008
17.8995,33.8132
17.7965,33.7705
17.7538,33.7528
17.7538,33.7528
17.5992,33.7221
17.5991,33.7221
17.5362,33.7221
17.5362,33.7221
14.1973,33.7221
14.1973,33.7221
14.1722,33.7221
14.1489,33.7221
14.1418,33.7217
14.0538,33.7117
14.0260,33.7086
13.9985,33.7023
13.8986,33.6674
13.8732,33.6551
13.7836,33.5988
13.7615,33.5812
13.6867,33.5064
13.6691,33.4843
13.6127,33.3947
13.6005,33.3693
13.5936,33.3495
13.5656,33.2694
13.5593,33.2419
13.5547,33.2014
13.5462,33.1258
13.5458,33.1188
13.5458,33.0810
13.5458,33.0810
13.5458,13.0766
13.5462,13.0696
13.5568,12.9754
13.5593,12.9537
13.5656,12.9262
13.6006,12.8263
13.6128,12.8008
13.6692,12.7112
13.6868,12.6891
13.7617,12.6143
13.7838,12.5967
13.8381,12.5626
13.8735,12.5404
13.8989,12.5282
13.9989,12.4932
14.0264,12.4870
14.1425,12.4740
14.1496,12.4736
14.1727,12.4736
14.1727,12.4736
14.2249,12.4736
14.2249,12.4736
23.3447,12.4805
23.3447,12.4805
23.5747,12.4806
23.5761,12.4806
23.5761,12.4806
23.5761,12.4806
23.9331,12.4496
23.9331,12.4496
24.2861,12.3876
24.3762,12.3635
24.6324,12.2950
24.9692,12.1726
24.9856,12.1649
25.2941,12.0212
25.6045,11.8421
25.8981,11.6365
26.1727,11.4062
26.2704,11.3085
26.2704,11.3085
27.2914,10.2875
31.8413,10.2875
31.8618,10.5091
31.9227,10.7230
31.9227,10.7231
32.0219,10.9222
32.0219,10.9222
32.1560,11.0998
32.3204,11.2496
32.3204,11.2496
32.5095,11.3668
32.5095,11.3668
32.5096,11.3668
32.5492,11.3821
32.7170,11.4471
32.7170,11.4471
32.7170,11.4471
32.9357,11.4880
32.9357,11.4880
33.1582,11.4880
33.1582,11.4880
33.3769,11.4471
33.3769,11.4471
33.3769,11.4471
33.4441,11.4211
33.5844,11.3668
33.7735,11.2496
33.9379,11.0998
34.0720,10.9222
34.0720,10.9222
34.0720,10.9222
34.1712,10.7231
34.1712,10.7231
34.1712,10.7231
34.2321,10.5091
34.2526,10.2875
34.2321,10.0660
34.2053,9.9721
34.1712,9.8520
34.1712,9.8520
34.0720,9.6528
34.0720,9.6528
33.9379,9.4753
33.7735,9.3254
33.7735,9.3254
33.5844,9.2083
33.5844,9.2083
33.5844,9.2083
33.5813,9.2071
33.3769,9.1279
33.3379,9.1206
33.1582,9.0870
32.9357,9.0870
32.7946,9.1134
32.7170,9.1279
32.5096,9.2083
32.5095,9.2083
32.3204,9.3254
32.3204,9.3254
32.1560,9.4753
32.0219,9.6528
32.0219,9.6528
31.9227,9.8520
31.9227,9.8520
31.8618,10.0660
31.8413,10.2875
27.2914,10.2875
28.9487,8.6302
29.1975,8.4022
29.2017,8.3987
29.4673,8.1949
29.4717,8.1918
29.7540,8.0119
29.7588,8.0092
30.0557,7.8546
30.0606,7.8523
30.3699,7.7242
30.3750,7.7224
30.3964,7.7156
30.6942,7.6217
30.6995,7.6203
31.0263,7.5478
31.0317,7.5469
31.3635,7.5032
31.3690,7.5027
31.7059,7.4880
31.7061,7.4880
31.7330,7.4880
34.3655,7.4880
34.3924,7.4880
Z" /> 
</g>
</g>
</g>
<g style="fill:#000000; fill-opacity:1.0000; 
stroke:#000000; stroke-width:0.0000; stroke-opacity:1; 
stroke-linecap:round; stroke-linejoin:round;">
<circle cx="92.1750" cy="73.8500" r="0.2000" /> 
</g>
<g style="fill:#000000; fill-opacity:1.0000; 
stroke:#000000; stroke-width:0.0212; stroke-opacity:1; 
stroke-linecap:round; stroke-linejoin:round;">
</g>
<g style="fill:#000000; fill-opacity:1.0000; 
stroke:#000000; stroke-width:0.0000; stroke-opacity:1; 
stroke-linecap:round; stroke-linejoin:round;">
<circle cx="120.9500" cy="73.8000" r="0.1500" /> 
</g>
<g style="fill:#000000; fill-opacity:1.0000; 
stroke:#000000; stroke-width:0.0212; stroke-opacity:1; 
stroke-linecap:round; stroke-linejoin:round;">
</g>
<g style="fill:#000000; fill-opacity:1.0000; 
stroke:#000000; stroke-width:0.0000; stroke-opacity:1; 
stroke-linecap:round; stroke-linejoin:round;">
<circle cx="121.8500" cy="73.8000" r="0.1500" /> 
</g>
<g style="fill:#000000; fill-opacity:1.0000; 
stroke:#000000; stroke-width:0.0212; stroke-opacity:1; 
stroke-linecap:round; stroke-linejoin:round;">
</g>
<g style="fill:#FFFFFF; fill-opacity:1.0000; 
stroke:#FFFFFF; stroke-width:0.0212; stroke-opacity:1; 
stroke-linecap:round; stroke-linejoin:round;">
</g>
<g style="fill:#37CBCB; fill-opacity:1.0000; 
stroke:#37CBCB; stroke-width:0.0212; stroke-opacity:1; 
stroke-linecap:round; stroke-linejoin:round;">
</g>
<g style="fill:#37CBCB; fill-opacity:1.0000; 
stroke:#37CBCB; stroke-width:0.0100; stroke-opacity:1; 
stroke-linecap:round; stroke-linejoin:round;">
<path style="fill:#37CBCB; fill-opacity:1.0000; 
stroke:#37CBCB; stroke-width:0.0100; stroke-opacity:1; 
stroke-linecap:round; stroke-linejoin:round;fill-rule:evenodd;"
d="M 121.3000,74.5500
121.0435,74.5048
120.8179,74.3745
120.6505,74.1750
120.5614,73.9302
120.5614,73.6698
120.6505,73.4250
120.8179,73.2255
121.0435,73.0952
121.3000,73.0500
Z" /> 
<path style="fill:#37CBCB; fill-opacity:1.0000; 
stroke:#37CBCB; stroke-width:0.0100; stroke-opacity:1; 
stroke-linecap:round; stroke-linejoin:round;fill-rule:evenodd;"
d="M 121.7565,73.0952
121.9821,73.2255
122.1495,73.4250
122.2386,73.6698
122.2386,73.9302
122.1495,74.1750
121.9821,74.3745
121.7565,74.5048
121.5000,74.5500
121.5000,73.0500
Z" /> 
<g >
</g>
<g style="fill:#37CBCB; fill-opacity:1.0000; 
stroke:#37CBCB; stroke-width:0.0000; stroke-opacity:1; 
stroke-linecap:round; stroke-linejoin:round;">
<circle cx="120.9500" cy="73.8000" r="0.2000" /> 
</g>
<g style="fill:#37CBCB; fill-opacity:1.0000; 
stroke:#37CBCB; stroke-width:0.0212; stroke-opacity:1; 
stroke-linecap:round; stroke-linejoin:round;">
</g>
<g style="fill:#37CBCB; fill-opacity:1.0000; 
stroke:#37CBCB; stroke-width:0.0000; stroke-opacity:1; 
stroke-linecap:round; stroke-linejoin:round;">
<circle cx="121.8500" cy="73.8000" r="0.2000" /> 
</g>
<g style="fill:#37CBCB; fill-opacity:1.0000; 
stroke:#37CBCB; stroke-width:0.0212; stroke-opacity:1; 
stroke-linecap:round; stroke-linejoin:round;">
</g>
<g >
</g>
<g style="fill:#121212; fill-opacity:1.0000; 
stroke:#121212; stroke-width:0.0212; stroke-opacity:1; 
stroke-linecap:round; stroke-linejoin:round;">
</g>
<g style="fill:#121212; fill-opacity:1.0000; 
stroke:#121212; stroke-width:0.0000; stroke-opacity:1; 
stroke-linecap:round; stroke-linejoin:round;">
<circle cx="92.1750" cy="73.8500" r="0.4000" /> 
</g>
<g style="fill:#121212; fill-opacity:1.0000; 
stroke:#121212; stroke-width:0.0212; stroke-opacity:1; 
stroke-linecap:round; stroke-linejoin:round;">
</g>
<g >
</g>
<g >
</g>
<g style="fill:#37CBCB; fill-opacity:1.0000; 
stroke:#37CBCB; stroke-width:0.0212; stroke-opacity:1; 
stroke-linecap:round; stroke-linejoin:round;">
<g >
</g>
<g style="fill:#37CBCB; fill-opacity:1.0000; 
stroke:#37CBCB; stroke-width:0.0000; stroke-opacity:1; 
stroke-linecap:round; stroke-linejoin:round;">
<path style="fill:#37CBCB; fill-opacity:1.0000; 
stroke:#37CBCB; stroke-width:0.0000; stroke-opacity:1; 
stroke-linecap:round; stroke-linejoin:round;fill-rule:evenodd;"
d="M 34.7295,7.5027
34.7350,7.5032
35.0668,7.5469
35.0722,7.5479
35.3990,7.6203
35.4043,7.6217
35.7235,7.7224
35.7286,7.7242
36.0185,7.8443
36.0379,7.8523
36.0428,7.8546
36.3397,8.0092
36.3445,8.0119
36.6267,8.1918
36.6312,8.1949
36.8968,8.3987
36.9010,8.4022
36.9875,8.4815
37.1498,8.6302
39.7773,11.2577
39.7773,11.2578
39.8142,11.2946
39.8142,11.2946
39.8823,11.3627
39.9407,11.4211
39.9407,11.4211
40.2147,11.6511
40.2147,11.6511
40.5076,11.8563
40.5076,11.8563
40.5076,11.8563
40.6088,11.9147
40.8174,12.0352
41.1415,12.1865
41.4392,12.2950
41.4776,12.3090
41.8231,12.4017
41.9352,12.4216
42.1753,12.4641
42.1753,12.4641
42.4172,12.4854
42.5316,12.4955
42.7105,12.4956
42.7374,12.4957
42.7374,12.4957
42.7825,12.4957
175.8877,12.6005
175.8877,12.6005
175.9024,12.6005
175.9024,12.6005
176.0510,12.6006
176.4081,12.5696
176.7611,12.5076
176.7611,12.5076
176.7611,12.5076
176.9342,12.4613
177.1073,12.4150
177.4442,12.2926
177.4442,12.2926
177.4442,12.2926
177.7691,12.1412
177.9528,12.0352
178.0795,11.9621
178.2003,11.8776
178.3732,11.7566
178.3732,11.7566
178.3732,11.7566
178.3732,11.7566
178.6478,11.5262
178.7529,11.4211
178.7529,11.4211
178.7632,11.4107
178.7632,11.4107
178.7824,11.3915
178.7935,11.3804
178.7935,11.3804
178.8112,11.3627
178.8113,11.3627
179.7664,10.4076
184.3163,10.4076
184.3369,10.6291
184.3977,10.8431
184.3977,10.8431
184.4969,11.0423
184.4969,11.0423
184.6310,11.2198
184.7954,11.3697
184.7954,11.3697
184.9846,11.4868
184.9846,11.4868
184.9846,11.4868
185.0750,11.5219
185.1920,11.5672
185.1920,11.5672
185.1920,11.5672
185.4107,11.6081
185.4107,11.6081
185.6332,11.6081
185.6332,11.6081
185.8519,11.5672
185.8519,11.5672
185.8519,11.5672
185.9053,11.5465
186.0594,11.4868
186.2485,11.3697
186.4130,11.2198
186.5470,11.0423
186.5470,11.0423
186.5470,11.0423
186.6462,10.8431
186.6462,10.8431
186.6462,10.8431
186.7071,10.6291
186.7276,10.4076
186.7071,10.1861
186.6462,9.9721
186.6462,9.9721
186.6462,9.9721
186.5470,9.7729
186.5470,9.7729
186.4130,9.5954
186.2485,9.4455
186.2485,9.4455
186.0594,9.3284
186.0594,9.3284
186.0594,9.3284
186.0518,9.3254
185.8519,9.2480
185.8129,9.2407
185.6332,9.2071
185.4107,9.2071
185.2696,9.2335
185.1920,9.2480
184.9846,9.3283
184.9846,9.3284
184.7954,9.4455
184.7954,9.4455
184.6310,9.5954
184.4969,9.7729
184.4969,9.7729
184.3977,9.9721
184.3977,9.9721
184.3369,10.1861
184.3163,10.4076
179.7664,10.4076
181.4237,8.7502
181.4237,8.7502
181.6725,8.5223
181.6767,8.5187
181.8817,8.3614
181.9423,8.3150
181.9468,8.3118
182.0417,8.2514
182.2291,8.1320
182.2338,8.1293
182.5307,7.9747
182.5356,7.9724
182.8449,7.8443
182.8500,7.8424
183.1693,7.7418
183.1745,7.7404
183.5013,7.6679
183.5067,7.6670
183.8385,7.6233
183.8440,7.6228
184.1813,7.6081
184.2080,7.6081
186.8405,7.6081
186.8674,7.6081
187.2045,7.6228
187.2100,7.6233
187.5418,7.6670
187.5472,7.6679
187.8740,7.7404
187.8793,7.7418
188.1985,7.8424
188.2036,7.8443
188.5129,7.9724
188.5178,7.9747
188.8147,8.1293
188.8195,8.1320
189.0068,8.2514
189.1017,8.3118
189.1062,8.3150
189.3718,8.5187
189.3760,8.5223
189.6248,8.7503
192.3075,11.4330
192.3077,11.4331
192.4156,11.5411
192.4156,11.5411
192.4156,11.5411
192.4156,11.5411
192.6897,11.7711
192.6897,11.7711
192.9826,11.9763
192.9826,11.9763
192.9826,11.9763
193.2924,12.1552
193.6166,12.3065
193.6166,12.3065
193.6166,12.3065
193.8390,12.3876
193.9323,12.4216
193.9526,12.4290
193.9526,12.4290
194.2981,12.5218
194.6504,12.5841
194.8345,12.6003
195.0067,12.6155
195.1856,12.6156
195.2125,12.6157
195.2125,12.6157
195.2647,12.6157
195.2647,12.6157
204.4172,12.6225
204.4243,12.6229
204.5400,12.6361
204.5675,12.6423
204.6673,12.6774
204.6927,12.6896
204.7823,12.7459
204.8043,12.7635
204.8791,12.8384
204.8967,12.8604
204.9529,12.9500
204.9651,12.9754
205.0001,13.0753
205.0063,13.1028
205.0194,13.2190
205.0198,13.2260
205.0198,13.2740
205.0198,13.2740
205.0198,31.9482
205.0198,31.9486
205.0198,32.0014
205.0198,32.0014
205.0198,32.0014
205.0506,32.1560
205.0506,32.1560
205.1087,32.2963
205.1109,32.3017
205.1985,32.4328
205.3100,32.5443
205.3537,32.5735
205.4411,32.6320
205.4411,32.6320
205.4411,32.6320
205.5868,32.6923
205.7415,32.7231
205.7942,32.7231
205.7942,32.7231
209.1684,32.7231
209.1918,32.7231
209.1988,32.7235
209.2300,32.7270
209.3146,32.7365
209.3421,32.7428
209.4420,32.7777
209.4674,32.7900
209.5571,32.8463
209.5791,32.8639
209.6540,32.9387
209.6716,32.9608
209.7279,33.0504
209.7401,33.0758
209.7621,33.1385
209.7751,33.1758
209.7814,33.2033
209.7944,33.3188
209.7948,33.3259
209.7948,50.9982
209.7948,50.9986
209.7948,51.0514
209.7948,51.0514
209.7948,51.0514
209.8256,51.2060
209.8256,51.2060
209.8859,51.3517
209.8859,51.3517
209.8859,51.3517
209.9735,51.4828
209.9735,51.4828
209.9735,51.4828
210.0850,51.5943
210.0977,51.6028
210.2161,51.6820
210.2161,51.6820
210.2161,51.6820
210.3618,51.7423
210.3618,51.7423
210.3618,51.7423
210.4044,51.7508
210.5165,51.7731
210.5953,51.7731
213.9418,51.7731
213.9488,51.7735
214.0193,51.7814
214.0646,51.7865
214.0921,51.7928
214.1920,51.8277
214.2174,51.8400
214.3071,51.8963
214.3291,51.9139
214.4040,51.9887
214.4216,52.0108
214.4779,52.1004
214.4901,52.1258
214.5065,52.1726
214.5251,52.2258
214.5314,52.2533
214.5444,52.3688
214.5448,52.3758
214.5448,70.0482
214.5448,70.0486
214.5448,70.1014
214.5448,70.1014
214.5448,70.1014
214.5756,70.2560
214.5756,70.2561
214.6359,70.4017
214.6359,70.4017
214.6359,70.4017
214.7235,70.5328
214.7235,70.5328
214.7235,70.5328
214.8350,70.6443
214.8787,70.6735
214.9661,70.7320
214.9661,70.7320
214.9661,70.7320
215.1118,70.7923
215.1118,70.7923
215.1118,70.7923
215.1552,70.8009
215.2665,70.8231
215.3453,70.8231
218.7417,70.8231
218.7488,70.8235
218.8646,70.8365
218.8921,70.8428
218.9920,70.8778
219.0175,70.8900
219.1071,70.9464
219.1292,70.9640
219.2040,71.0389
219.2216,71.0610
219.2779,71.1507
219.2902,71.1761
219.3251,71.2761
219.3314,71.3036
219.3444,71.4195
219.3447,71.4266
219.3328,90.2394
219.3324,90.2464
219.3192,90.3622
219.3129,90.3897
219.2779,90.4896
219.2657,90.5150
219.2093,90.6046
219.1917,90.6266
219.1168,90.7014
219.0947,90.7190
219.0499,90.7471
219.0051,90.7752
218.9796,90.7874
218.8797,90.8223
218.8522,90.8286
218.7357,90.8416
218.7287,90.8420
218.6958,90.8420
218.6958,90.8420
209.5535,90.8367
209.5534,90.8367
209.3223,90.8366
209.3222,90.8366
209.3222,90.8366
209.3222,90.8366
209.1337,90.8530
208.9652,90.8676
208.7080,90.9129
208.6123,90.9297
208.2661,91.0223
207.9294,91.1448
207.9294,91.1448
207.9294,91.1448
207.6055,91.2957
207.6046,91.2961
207.2942,91.4752
207.2942,91.4752
207.2942,91.4752
207.0658,91.6351
207.0015,91.6801
207.0007,91.6807
206.9134,91.7539
206.7262,91.9110
206.6107,92.0265
206.6107,92.0265
206.6107,92.0265
206.5995,92.0377
206.5887,92.0484
203.9372,94.6999
203.6885,94.9279
203.6843,94.9314
203.4187,95.1352
203.4142,95.1383
203.1320,95.3182
203.1272,95.3209
202.8303,95.4754
202.8254,95.4778
202.5161,95.6058
202.5110,95.6077
202.1918,95.7084
202.1865,95.7098
201.8597,95.7822
201.8543,95.7832
201.5225,95.8269
201.5170,95.8273
201.1939,95.8415
201.1801,95.8421
198.4936,95.8421
198.1565,95.8273
198.1510,95.8269
198.0726,95.8165
197.8192,95.7832
197.8138,95.7822
197.4870,95.7098
197.4817,95.7084
197.1625,95.6077
197.1574,95.6058
196.8481,95.4778
196.8432,95.4754
196.5463,95.3209
196.5415,95.3181
196.3339,95.1859
196.2593,95.1383
196.2548,95.1352
195.9892,94.9314
195.9850,94.9279
195.7361,94.6998
195.6995,94.6632
195.6995,94.6632
195.6995,94.6632
194.0789,93.0426
198.6288,93.0426
198.6494,93.2641
198.7102,93.4781
198.7102,93.4781
198.8094,93.6772
198.8094,93.6772
198.9435,93.8548
199.1079,94.0047
199.1079,94.0047
199.2971,94.1218
199.2971,94.1218
199.2971,94.1218
199.3875,94.1568
199.5045,94.2022
199.5045,94.2022
199.5045,94.2022
199.7232,94.2431
199.7232,94.2431
199.9457,94.2431
199.9457,94.2431
200.1644,94.2022
200.1644,94.2022
200.1644,94.2022
200.2178,94.1815
200.3719,94.1218
200.5610,94.0047
200.7254,93.8548
200.8595,93.6772
200.8595,93.6772
200.8595,93.6772
200.9587,93.4781
200.9587,93.4781
200.9587,93.4781
201.0196,93.2641
201.0401,93.0426
201.0196,92.8210
200.9587,92.6070
200.9587,92.6070
200.9587,92.6070
200.8595,92.4079
200.8595,92.4079
200.7254,92.2303
200.5610,92.0804
200.5610,92.0804
200.3719,91.9633
200.3719,91.9633
200.3719,91.9633
200.3673,91.9615
200.1644,91.8829
200.1254,91.8757
199.9457,91.8421
199.7232,91.8421
199.5821,91.8684
199.5045,91.8829
199.2971,91.9633
199.2971,91.9633
199.1079,92.0804
199.1079,92.0804
198.9435,92.2303
198.8094,92.4079
198.8094,92.4079
198.7102,92.6070
198.7102,92.6070
198.6494,92.8210
198.6288,93.0426
194.0789,93.0426
193.0963,92.0600
193.0678,92.0315
193.0678,92.0315
193.0676,92.0313
193.0673,92.0310
193.0137,91.9774
192.9589,91.9226
192.6847,91.6925
192.3914,91.4871
192.0814,91.3081
192.0804,91.3077
192.0039,91.2720
191.7569,91.1568
191.4205,91.0343
191.4205,91.0343
191.4205,91.0343
191.4205,91.0343
191.2174,90.9799
191.0747,90.9416
190.8182,90.8964
190.7221,90.8795
190.6775,90.8755
190.3654,90.8482
190.1864,90.8482
190.1595,90.8482
190.1595,90.8482
190.0127,90.8482
57.0649,90.8359
57.0647,90.8359
56.8337,90.8359
56.8336,90.8359
56.8336,90.8359
56.8336,90.8359
56.4768,90.8670
56.4768,90.8670
56.4768,90.8670
56.1242,90.9292
56.1242,90.9292
55.7783,91.0219
55.6963,91.0517
55.4417,91.1443
55.1172,91.2957
54.9327,91.4022
54.8071,91.4747
54.5137,91.6801
54.4989,91.6925
54.2394,91.9103
54.2394,91.9103
54.2394,91.9103
54.2394,91.9103
54.1723,91.9774
54.1723,91.9774
54.1012,92.0484
54.1012,92.0484
51.4688,94.6809
51.4498,94.6999
51.3813,94.7627
51.2010,94.9279
51.1968,94.9314
50.9312,95.1352
50.9267,95.1383
50.6445,95.3181
50.6397,95.3209
50.3428,95.4754
50.3379,95.4778
50.0286,95.6058
50.0235,95.6077
49.7043,95.7084
49.6990,95.7098
49.3722,95.7822
49.3668,95.7832
49.0350,95.8269
49.0295,95.8273
48.7064,95.8415
48.6926,95.8421
46.0061,95.8421
45.9918,95.8414
45.6690,95.8273
45.6635,95.8269
45.3317,95.7832
45.3263,95.7822
44.9995,95.7098
44.9942,95.7084
44.6750,95.6077
44.6699,95.6058
44.3606,95.4778
44.3557,95.4754
44.0588,95.3209
44.0540,95.3181
43.8789,95.2065
43.7718,95.1383
43.7673,95.1352
43.5017,94.9314
43.4975,94.9279
43.3466,94.7896
43.2486,94.6998
43.2297,94.6809
41.5914,93.0426
46.1413,93.0426
46.1619,93.2641
46.2227,93.4781
46.2227,93.4781
46.3219,93.6772
46.3219,93.6772
46.4560,93.8548
46.6204,94.0047
46.6204,94.0047
46.8096,94.1218
46.8096,94.1218
46.8096,94.1218
46.9000,94.1568
47.0170,94.2022
47.0170,94.2022
47.0170,94.2022
47.2357,94.2431
47.2357,94.2431
47.4582,94.2431
47.4582,94.2431
47.6769,94.2022
47.6769,94.2022
47.6769,94.2022
47.7303,94.1815
47.8844,94.1218
48.0735,94.0047
48.2379,93.8548
48.3720,93.6772
48.3720,93.6772
48.3720,93.6772
48.4712,93.4781
48.4712,93.4781
48.4712,93.4781
48.5321,93.2641
48.5526,93.0426
48.5321,92.8210
48.4712,92.6070
48.4712,92.6070
48.4712,92.6070
48.3720,92.4079
48.3720,92.4079
48.2379,92.2303
48.0735,92.0804
48.0735,92.0804
47.8844,91.9633
47.8844,91.9633
47.8844,91.9633
47.8798,91.9615
47.6769,91.8829
47.6379,91.8757
47.4582,91.8421
47.2357,91.8421
47.0946,91.8684
47.0170,91.8829
46.8096,91.9633
46.8096,91.9633
46.6204,92.0804
46.6204,92.0804
46.4560,92.2303
46.3219,92.4079
46.3219,92.4079
46.2227,92.6070
46.2227,92.6070
46.1619,92.8210
46.1413,93.0426
41.5914,93.0426
40.6342,92.0854
40.6342,92.0853
40.4708,91.9219
40.1967,91.6919
40.0251,91.5717
39.9036,91.4867
39.5938,91.3077
39.5680,91.2957
39.2695,91.1564
39.2695,91.1564
38.9333,91.0339
38.8529,91.0123
38.5877,90.9412
38.5877,90.9412
38.5877,90.9412
38.3930,90.9068
38.2354,90.8789
38.2354,90.8789
38.2354,90.8789
37.8789,90.8475
37.8745,90.8475
37.7261,90.8475
37.7159,90.8475
37.7159,90.8475
28.4719,90.8425
28.4619,90.8424
28.4619,90.8424
28.4485,90.8424
28.4415,90.8420
28.3257,90.8289
28.2982,90.8227
28.1984,90.7877
28.1730,90.7754
28.1554,90.7644
28.0834,90.7191
28.0613,90.7015
27.9865,90.6266
27.9689,90.6046
27.9127,90.5150
27.9004,90.4896
27.8655,90.3897
27.8592,90.3622
27.8462,90.2469
27.8458,90.2398
27.8458,90.2160
27.8458,73.8500
91.2615,73.8500
91.2815,74.0399
91.3084,74.1227
91.3405,74.2216
91.3405,74.2216
91.4360,74.3869
91.4360,74.3870
91.5637,74.5289
91.5637,74.5289
91.7182,74.6411
91.8927,74.7188
92.0795,74.7585
92.2705,74.7585
92.4573,74.7188
92.6318,74.6411
92.7863,74.5289
92.7952,74.5189
92.9140,74.3870
92.9140,74.3869
92.9140,74.3869
93.0095,74.2216
93.0685,74.0399
93.0766,73.9631
120.0437,73.9631
120.0550,74.0175
120.0557,74.0214
120.0636,74.0764
120.0636,74.0764
120.0848,74.1227
120.0867,74.1273
120.1601,74.3291
120.1617,74.3339
120.1752,74.3830
120.1752,74.3830
120.2045,74.4302
120.2065,74.4337
120.2327,74.4826
120.2685,74.5189
120.2718,74.5226
120.2771,74.5289
120.4098,74.6870
120.4129,74.6910
120.4424,74.7324
120.4861,74.7668
120.4891,74.7694
120.5305,74.8064
120.5305,74.8064
120.5305,74.8064
120.5765,74.8283
120.5809,74.8306
120.7248,74.9137
120.7669,74.9381
120.7711,74.9407
120.8132,74.9696
120.8659,74.9870
120.8696,74.9883
120.9211,75.0089
120.9719,75.0138
120.9768,75.0145
121.0671,75.0304
121.1793,75.0501
121.1861,75.0517
121.2262,75.0635
121.2262,75.0635
121.2919,75.0635
121.3576,75.0656
121.3576,75.0656
121.3657,75.0647
121.3738,75.0635
121.3738,75.0635
121.3738,75.0635
121.3821,75.0623
121.4179,75.0623
121.4262,75.0635
121.4262,75.0635
121.4262,75.0635
121.4343,75.0647
121.4424,75.0656
121.4424,75.0656
121.5081,75.0635
121.5738,75.0635
121.6139,75.0517
121.6207,75.0501
121.8232,75.0145
121.8281,75.0138
121.8789,75.0089
121.9304,74.9883
121.9341,74.9870
121.9868,74.9696
122.0093,74.9542
122.0289,74.9407
122.0331,74.9381
122.2191,74.8306
122.2235,74.8283
122.2695,74.8064
122.3109,74.7694
122.3139,74.7668
122.3576,74.7324
122.3576,74.7324
122.3871,74.6910
122.3902,74.6870
122.5282,74.5226
122.5315,74.5189
122.5317,74.5188
122.5673,74.4826
122.5935,74.4336
122.5955,74.4302
122.6248,74.3830
122.6383,74.3339
122.6399,74.3291
122.6399,74.3291
122.7133,74.1273
122.7152,74.1227
122.7364,74.0764
122.7443,74.0214
122.7450,74.0175
122.7514,73.9866
122.7563,73.9631
122.7523,73.9123
122.7521,73.9073
122.7521,73.6927
122.7523,73.6877
122.7523,73.6877
122.7563,73.6369
122.7450,73.5825
122.7443,73.5786
122.7443,73.5786
122.7364,73.5236
122.7152,73.4773
122.7133,73.4727
122.6399,73.2709
122.6383,73.2661
122.6248,73.2170
122.6248,73.2170
122.5955,73.1698
122.5935,73.1664
122.5673,73.1174
122.5315,73.0811
122.5282,73.0774
122.3902,72.9130
122.3871,72.9090
122.3576,72.8676
122.3576,72.8676
122.3139,72.8332
122.3109,72.8306
122.2695,72.7936
122.2695,72.7936
122.2235,72.7717
122.2191,72.7694
122.0331,72.6619
122.0288,72.6593
121.9868,72.6304
121.9341,72.6131
121.9304,72.6117
121.8789,72.5911
121.8789,72.5911
121.8281,72.5862
121.8232,72.5855
121.6207,72.5499
121.6139,72.5483
121.5738,72.5365
121.5738,72.5365
121.5738,72.5365
121.5738,72.5365
121.5081,72.5365
121.4424,72.5344
121.4343,72.5353
121.4262,72.5365
121.4262,72.5365
121.4262,72.5365
121.4179,72.5377
121.3821,72.5377
121.3738,72.5365
121.3738,72.5365
121.3738,72.5365
121.3657,72.5353
121.3576,72.5344
121.3576,72.5344
121.2919,72.5365
121.2262,72.5365
121.2262,72.5365
121.2262,72.5365
121.1861,72.5483
121.1793,72.5499
120.9768,72.5855
120.9719,72.5862
120.9211,72.5911
120.9211,72.5911
120.9049,72.5976
120.8696,72.6117
120.8659,72.6131
120.8132,72.6303
120.7711,72.6593
120.7669,72.6619
120.5809,72.7694
120.5765,72.7717
120.5305,72.7936
120.5305,72.7936
120.5305,72.7936
120.4891,72.8306
120.4861,72.8332
120.4424,72.8676
120.4424,72.8676
120.4129,72.9090
120.4098,72.9130
120.2718,73.0774
120.2685,73.0811
120.2327,73.1174
120.2065,73.1664
120.2045,73.1698
120.1752,73.2170
120.1752,73.2170
120.1617,73.2661
120.1601,73.2709
120.0867,73.4727
120.0848,73.4773
120.0636,73.5236
120.0636,73.5236
120.0557,73.5786
120.0550,73.5825
120.0437,73.6369
120.0477,73.6877
120.0479,73.6927
120.0479,73.9073
120.0477,73.9123
120.0437,73.9631
93.0766,73.9631
93.0885,73.8500
93.0685,73.6601
93.0095,73.4784
92.9140,73.3131
92.9140,73.3131
92.9140,73.3130
92.7863,73.1711
92.6318,73.0589
92.4573,72.9812
92.2705,72.9415
92.0795,72.9415
91.8927,72.9812
91.7182,73.0589
91.5637,73.1711
91.4360,73.3130
91.4360,73.3131
91.3405,73.4784
91.3405,73.4784
91.2815,73.6601
91.2615,73.8500
27.8458,73.8500
27.8458,72.6498
27.8458,72.6497
27.8458,72.5976
27.8458,72.5976
27.8458,72.5187
27.8151,72.3641
27.7547,72.2184
27.7547,72.2184
27.6671,72.0873
27.6671,72.0873
27.5556,71.9758
27.5556,71.9758
27.4245,71.8882
27.3215,71.8455
27.2788,71.8278
27.2788,71.8278
27.1242,71.7971
27.1242,71.7971
27.0612,71.7971
27.0612,71.7971
23.6739,71.7971
23.6668,71.7967
23.5949,71.7886
23.5510,71.7836
23.5235,71.7773
23.4938,71.7669
23.4236,71.7424
23.3982,71.7301
23.3086,71.6738
23.2865,71.6562
23.2116,71.5814
23.1941,71.5593
23.1377,71.4697
23.1255,71.4443
23.1181,71.4231
23.0906,71.3444
23.0843,71.3169
23.0712,71.2008
23.0708,71.1938
23.0708,71.1895
23.0708,71.1706
23.0708,71.1706
23.0708,71.1560
23.0708,71.1560
23.0708,53.6248
23.0708,53.6247
23.0708,53.5726
23.0708,53.5726
23.0708,53.4937
23.0401,53.3391
22.9797,53.1934
22.8921,53.0623
22.8364,53.0065
22.7806,52.9508
22.7806,52.9508
22.6495,52.8632
22.6495,52.8632
22.5957,52.8409
22.5038,52.8028
22.3492,52.7721
22.3492,52.7721
22.3492,52.7721
22.2862,52.7721
18.9472,52.7721
18.9239,52.7721
18.9168,52.7717
18.8599,52.7653
18.8010,52.7586
18.7735,52.7523
18.6736,52.7174
18.6482,52.7051
18.5586,52.6488
18.5365,52.6312
18.4617,52.5564
18.4441,52.5343
18.3878,52.4447
18.3755,52.4193
18.3406,52.3194
18.3343,52.2919
18.3212,52.1758
18.3208,52.1688
18.3208,52.1310
18.3208,52.1310
18.3208,34.5748
18.3208,34.5747
18.3208,34.5226
18.3208,34.5226
18.3208,34.4437
18.2901,34.2891
18.2297,34.1434
18.2297,34.1434
18.1421,34.0123
18.1421,34.0123
18.0306,33.9008
18.0306,33.9008
17.8995,33.8132
17.7965,33.7705
17.7538,33.7528
17.7538,33.7528
17.5992,33.7221
17.5991,33.7221
17.5362,33.7221
17.5362,33.7221
14.1973,33.7221
14.1973,33.7221
14.1722,33.7221
14.1489,33.7221
14.1418,33.7217
14.0538,33.7117
14.0260,33.7086
13.9985,33.7023
13.8986,33.6674
13.8732,33.6551
13.7836,33.5988
13.7615,33.5812
13.6867,33.5064
13.6691,33.4843
13.6127,33.3947
13.6005,33.3693
13.5936,33.3495
13.5656,33.2694
13.5593,33.2419
13.5547,33.2014
13.5462,33.1258
13.5458,33.1188
13.5458,33.0810
13.5458,33.0810
13.5458,13.0766
13.5462,13.0696
13.5568,12.9754
13.5593,12.9537
13.5656,12.9262
13.6006,12.8263
13.6128,12.8008
13.6692,12.7112
13.6868,12.6891
13.7617,12.6143
13.7838,12.5967
13.8381,12.5626
13.8735,12.5404
13.8989,12.5282
13.9989,12.4932
14.0264,12.4870
14.1425,12.4740
14.1496,12.4736
14.1727,12.4736
14.1727,12.4736
14.2249,12.4736
14.2249,12.4736
23.3447,12.4805
23.3447,12.4805
23.5747,12.4806
23.5761,12.4806
23.5761,12.4806
23.5761,12.4806
23.9331,12.4496
23.9331,12.4496
24.2861,12.3876
24.3762,12.3635
24.6324,12.2950
24.9692,12.1726
24.9856,12.1649
25.2941,12.0212
25.6045,11.8421
25.8981,11.6365
26.1727,11.4062
26.2704,11.3085
26.2704,11.3085
27.2914,10.2875
31.8413,10.2875
31.8618,10.5091
31.9227,10.7230
31.9227,10.7231
32.0219,10.9222
32.0219,10.9222
32.1560,11.0998
32.3204,11.2496
32.3204,11.2496
32.5095,11.3668
32.5095,11.3668
32.5096,11.3668
32.5492,11.3821
32.7170,11.4471
32.7170,11.4471
32.7170,11.4471
32.9357,11.4880
32.9357,11.4880
33.1582,11.4880
33.1582,11.4880
33.3769,11.4471
33.3769,11.4471
33.3769,11.4471
33.4441,11.4211
33.5844,11.3668
33.7735,11.2496
33.9379,11.0998
34.0720,10.9222
34.0720,10.9222
34.0720,10.9222
34.1712,10.7231
34.1712,10.7231
34.1712,10.7231
34.2321,10.5091
34.2526,10.2875
34.2321,10.0660
34.2053,9.9721
34.1712,9.8520
34.1712,9.8520
34.0720,9.6528
34.0720,9.6528
33.9379,9.4753
33.7735,9.3254
33.7735,9.3254
33.5844,9.2083
33.5844,9.2083
33.5844,9.2083
33.5813,9.2071
33.3769,9.1279
33.3379,9.1206
33.1582,9.0870
32.9357,9.0870
32.7946,9.1134
32.7170,9.1279
32.5096,9.2083
32.5095,9.2083
32.3204,9.3254
32.3204,9.3254
32.1560,9.4753
32.0219,9.6528
32.0219,9.6528
31.9227,9.8520
31.9227,9.8520
31.8618,10.0660
31.8413,10.2875
27.2914,10.2875
28.9487,8.6302
29.1975,8.4022
29.2017,8.3987
29.4673,8.1949
29.4717,8.1918
29.7540,8.0119
29.7588,8.0092
30.0557,7.8546
30.0606,7.8523
30.3699,7.7242
30.3750,7.7224
30.3964,7.7156
30.6942,7.6217
30.6995,7.6203
31.0263,7.5478
31.0317,7.5469
31.3635,7.5032
31.3690,7.5027
31.7059,7.4880
31.7061,7.4880
31.7330,7.4880
34.3655,7.4880
34.3924,7.4880
Z" /> 
</g>
</g>
</g>
<g style="fill:#000000; fill-opacity:1.0000; 
stroke:#000000; stroke-width:0.0000; stroke-opacity:1; 
stroke-linecap:round; stroke-linejoin:round;">
<circle cx="92.1750" cy="73.8500" r="0.2000" /> 
</g>
<g style="fill:#000000; fill-opacity:1.0000; 
stroke:#000000; stroke-width:0.0212; stroke-opacity:1; 
stroke-linecap:round; stroke-linejoin:round;">
</g>
<g style="fill:#000000; fill-opacity:1.0000; 
stroke:#000000; stroke-width:0.0000; stroke-opacity:1; 
stroke-linecap:round; stroke-linejoin:round;">
<circle cx="120.9500" cy="73.8000" r="0.1500" /> 
</g>
<g style="fill:#000000; fill-opacity:1.0000; 
stroke:#000000; stroke-width:0.0212; stroke-opacity:1; 
stroke-linecap:round; stroke-linejoin:round;">
</g>
<g style="fill:#000000; fill-opacity:1.0000; 
stroke:#000000; stroke-width:0.0000; stroke-opacity:1; 
stroke-linecap:round; stroke-linejoin:round;">
<circle cx="121.8500" cy="73.8000" r="0.1500" /> 
</g>
<g style="fill:#000000; fill-opacity:1.0000; 
stroke:#000000; stroke-width:0.0212; stroke-opacity:1; 
stroke-linecap:round; stroke-linejoin:round;">
</g>
<g style="fill:#FFFFFF; fill-opacity:1.0000; 
stroke:#FFFFFF; stroke-width:0.0212; stroke-opacity:1; 
stroke-linecap:round; stroke-linejoin:round;">
<g >
</g>
<g >
</g>
<g >
</g>
<g >
</g>
</g>
<g style="fill:#FFFFFF; fill-opacity:1.0000; 
stroke:#FFFFFF; stroke-width:0.0212; stroke-opacity:1; 
stroke-linecap:round; stroke-linejoin:round;">
</g>
<g style="fill:#2F2D31; fill-opacity:1.0000; 
stroke:#2F2D31; stroke-width:0.0212; stroke-opacity:1; 
stroke-linecap:round; stroke-linejoin:round;">
</g>
<g style="fill:#2F2D31; fill-opacity:1.0000; 
stroke:#2F2D31; stroke-width:0.2000; stroke-opacity:1; 
stroke-linecap:round; stroke-linejoin:round;">
</g>
<g style="fill:#2F2D31; fill-opacity:0.0; 
stroke:#2F2D31; stroke-width:0.2000; stroke-opacity:1; 
stroke-linecap:round; stroke-linejoin:round;">
<path d="M43.1777 94.7710
L40.5262 92.1195
" />
<path d="M210.5953 51.6726
L213.9453 51.6726
" />
<path d="M205.1203 13.2220 A0.7000 0.7000 0.0 0 0 204.4208 12.5220" />
<path d="M23.3969 12.3800 A4.0000 4.0000 0.0 0 0 26.2283 11.2084" />
<path d="M195.6652 94.7710 A4.0000 4.0000 0.0 0 0 198.4936 95.9426" />
<path d="M201.1799 95.9426
L198.4936 95.9426
" />
<path d="M18.2203 52.1726
L18.2203 34.5226
" />
<path d="M209.5013 90.9372 A4.0000 4.0000 0.0 0 0 206.6705 92.1088" />
<path d="M214.6453 52.3726 A0.7000 0.7000 0.0 0 0 213.9453 51.6726" />
<path d="M218.7329 90.9425
L209.5013 90.9372
" />
<path d="M39.8853 11.2236 A4.0000 4.0000 0.0 0 0 42.7106 12.3951" />
<circle cx="47.3470" cy="93.0426" r="1.1000" /> 
<path d="M22.9703 71.1976
L22.9703 53.5726
" />
<path d="M48.6924 95.9426
L46.0061 95.9426
" />
<path d="M37.2208 8.5591
L39.8853 11.2236
" />
<circle cx="199.8345" cy="93.0426" r="1.1000" /> 
<path d="M215.3453 70.7226
L218.7452 70.7226
" />
<circle cx="185.5220" cy="10.4076" r="1.1000" /> 
<path d="M37.2208 8.5591 A4.0000 4.0000 0.0 0 0 34.3924 7.3875" />
<path d="M195.1857 12.5151
L204.4208 12.5220
" />
<path d="M37.7000 90.9480
L28.4449 90.9429
" />
<path d="M175.8719 12.5000 A4.0000 4.0000 0.0 0 0 178.7034 11.3284" />
<path d="M178.7034 11.3284
L181.3527 8.6792
" />
<path d="M40.5262 92.1195 A4.0000 4.0000 0.0 0 0 37.7000 90.9480" />
<path d="M209.8953 50.9726 A0.7000 0.7000 0.0 0 0 210.5953 51.6726" />
<path d="M214.6453 52.3726
L214.6453 70.0226
" />
<path d="M189.6958 8.6792 A4.0000 4.0000 0.0 0 0 186.8674 7.5076" />
<path d="M195.6652 94.7710
L193.0145 92.1203
" />
<path d="M209.8953 33.3226
L209.8953 50.9726
" />
<path d="M27.0453 71.8976
L23.6703 71.8976
" />
<path d="M43.1777 94.7710 A4.0000 4.0000 0.0 0 0 46.0061 95.9426" />
<path d="M22.2703 52.8726
L18.9203 52.8726
" />
<path d="M206.6705 92.1088
L204.0083 94.7710
" />
<path d="M219.4452 71.4230
L219.4333 90.2430
" />
<path d="M214.6453 70.0226 A0.7000 0.7000 0.0 0 0 215.3453 70.7226" />
<path d="M27.7453 72.5976 A0.7000 0.7000 0.0 0 0 27.0453 71.8976" />
<circle cx="33.0470" cy="10.2875" r="1.1000" /> 
<path d="M218.7329 90.9425 A0.7000 0.7000 0.0 0 0 219.4333 90.2430" />
<path d="M54.1838 92.1080
L51.5208 94.7710
" />
<path d="M48.6924 95.9426 A4.0000 4.0000 0.0 0 0 51.5208 94.7710" />
<path d="M31.7061 7.3875
L34.3924 7.3875
" />
<path d="M190.1864 90.9487
L57.0126 90.9364
" />
<path d="M192.3602 11.3436 A4.0000 4.0000 0.0 0 0 195.1857 12.5151" />
<path d="M209.8953 33.3226 A0.7000 0.7000 0.0 0 0 209.1953 32.6226" />
<path d="M184.1811 7.5076
L186.8674 7.5076
" />
<path d="M201.1799 95.9426 A4.0000 4.0000 0.0 0 0 204.0083 94.7710" />
<path d="M18.2203 34.5226 A0.7000 0.7000 0.0 0 0 17.5203 33.8226" />
<path d="M184.1811 7.5076 A4.0000 4.0000 0.0 0 0 181.3527 8.6792" />
<path d="M57.0126 90.9364 A4.0000 4.0000 0.0 0 0 54.1838 92.1080" />
<path d="M13.4453 33.1226 A0.7000 0.7000 0.0 0 0 14.1453 33.8226" />
<path d="M17.5203 33.8226
L14.1453 33.8226
" />
<path d="M42.7106 12.3951
L175.8718 12.5000
" />
<path d="M14.1458 12.3731 A0.7000 0.7000 0.0 0 0 13.4453 13.0731" />
<path d="M205.1203 13.2220
L205.1203 31.9226
" />
<path d="M14.1458 12.3731
L23.3969 12.3800
" />
<path d="M18.2203 52.1726 A0.7000 0.7000 0.0 0 0 18.9203 52.8726" />
<path d="M193.0144 92.1203 A4.0000 4.0000 0.0 0 0 190.1864 90.9487" />
<path d="M219.4452 71.4230 A0.7000 0.7000 0.0 0 0 218.7452 70.7226" />
<path d="M26.2283 11.2084
L28.8777 8.5591
" />
<path d="M27.7453 90.2429
L27.7453 72.5976
" />
<path d="M189.6958 8.6792
L192.3602 11.3436
" />
<path d="M205.1203 31.9226 A0.7000 0.7000 0.0 0 0 205.8203 32.6226" />
<path d="M27.7453 90.2429 A0.7000 0.7000 0.0 0 0 28.4449 90.9429" />
<path d="M22.9703 53.5726 A0.7000 0.7000 0.0 0 0 22.2703 52.8726" />
<path d="M22.9703 71.1976 A0.7000 0.7000 0.0 0 0 23.6703 71.8976" />
<path d="M13.4453 33.1226
L13.4453 13.0731
" />
<path d="M31.7061 7.3875 A4.0000 4.0000 0.0 0 0 28.8777 8.5591" />
<path d="M205.8203 32.6226
L209.1953 32.6226
" />
<g >
</g>
<g >
</g>
<g >
</g>
<g >
</g>
</g> 
</svg>
