<?xml version="1.0" standalone="no"?>
 <!DOCTYPE svg PUBLIC "-//W3C//DTD SVG 1.1//EN" 
 "http://www.w3.org/Graphics/SVG/1.1/DTD/svg11.dtd"> 
<svg
  xmlns:svg="http://www.w3.org/2000/svg"
  xmlns="http://www.w3.org/2000/svg"
  xmlns:xlink="http://www.w3.org/1999/xlink"
  version="1.1"
  width="165.6842mm" height="31.7754mm" viewBox="0.0000 0.0000 165.6842 31.7754">
<title>SVG Image created as working-brd.svg date 2023/09/27 18:33:59 </title>
  <desc>Image generated by PCBNEW </desc>
<g style="fill:#000000; fill-opacity:1.0000;stroke:#000000; stroke-opacity:1.0000;
stroke-linecap:round; stroke-linejoin:round;"
 transform="translate(0 0) scale(1 1)">
</g>
<g style="fill:#000000; fill-opacity:0.0; 
stroke:#000000; stroke-width:0.0000; stroke-opacity:1; 
stroke-linecap:round; stroke-linejoin:round;">
</g>
<g style="fill:#000000; fill-opacity:1.0000; 
stroke:#000000; stroke-width:0.0212; stroke-opacity:1; 
stroke-linecap:round; stroke-linejoin:round;">
<rect x="-5.000000" y="-5.000000" width="175.700000" height="41.779000" rx="0.000000" />
</g>
<g style="fill:#FFFFFF; fill-opacity:1.0000; 
stroke:#FFFFFF; stroke-width:0.0212; stroke-opacity:1; 
stroke-linecap:round; stroke-linejoin:round;">
<g >
</g>
<g >
</g>
<g >
</g>
<g >
</g>
<g >
</g>
<g >
</g>
<g >
</g>
<g >
</g>
<g >
</g>
<g >
</g>
<g >
</g>
<g >
</g>
<g >
</g>
<g >
</g>
<g >
</g>
<g >
</g>
<g >
</g>
<g >
</g>
<g >
</g>
<g >
</g>
<g >
</g>
<g >
</g>
<g >
</g>
<g >
</g>
<g >
</g>
<g >
</g>
<g >
</g>
</g>
<g style="fill:#000000; fill-opacity:1.0000; 
stroke:#000000; stroke-width:0.0212; stroke-opacity:1; 
stroke-linecap:round; stroke-linejoin:round;">
</g>
<g style="fill:#FFFFFF; fill-opacity:1.0000; 
stroke:#FFFFFF; stroke-width:0.0212; stroke-opacity:1; 
stroke-linecap:round; stroke-linejoin:round;">
<g >
</g>
<g style="fill:#37CBCB; fill-opacity:1.0000; 
stroke:#37CBCB; stroke-width:0.0212; stroke-opacity:1; 
stroke-linecap:round; stroke-linejoin:round;">
</g>
<g style="fill:#37CBCB; fill-opacity:1.0000; 
stroke:#37CBCB; stroke-width:0.0000; stroke-opacity:1; 
stroke-linecap:round; stroke-linejoin:round;">
<path style="fill:#37CBCB; fill-opacity:1.0000; 
stroke:#37CBCB; stroke-width:0.0000; stroke-opacity:1; 
stroke-linecap:round; stroke-linejoin:round;fill-rule:evenodd;"
d="M 149.2000,12.1540
149.9500,12.1540
149.9500,13.3540
149.2000,13.3540
Z" /> 
<path style="fill:#37CBCB; fill-opacity:1.0000; 
stroke:#37CBCB; stroke-width:0.0000; stroke-opacity:1; 
stroke-linecap:round; stroke-linejoin:round;fill-rule:evenodd;"
d="M 149.2000,14.0540
149.9500,14.0540
149.9500,15.2540
149.2000,15.2540
Z" /> 
</g>
<g >
</g>
<g style="fill:#37CBCB; fill-opacity:1.0000; 
stroke:#37CBCB; stroke-width:0.0000; stroke-opacity:1; 
stroke-linecap:round; stroke-linejoin:round;">
<path style="fill:#37CBCB; fill-opacity:1.0000; 
stroke:#37CBCB; stroke-width:0.0000; stroke-opacity:1; 
stroke-linecap:round; stroke-linejoin:round;fill-rule:evenodd;"
d="M 137.4000,12.1540
138.1500,12.1540
138.1500,13.3540
137.4000,13.3540
Z" /> 
<path style="fill:#37CBCB; fill-opacity:1.0000; 
stroke:#37CBCB; stroke-width:0.0000; stroke-opacity:1; 
stroke-linecap:round; stroke-linejoin:round;fill-rule:evenodd;"
d="M 137.4000,14.0540
138.1500,14.0540
138.1500,15.2540
137.4000,15.2540
Z" /> 
</g>
<g >
</g>
<g style="fill:#37CBCB; fill-opacity:1.0000; 
stroke:#37CBCB; stroke-width:0.0000; stroke-opacity:1; 
stroke-linecap:round; stroke-linejoin:round;">
<path style="fill:#37CBCB; fill-opacity:1.0000; 
stroke:#37CBCB; stroke-width:0.0000; stroke-opacity:1; 
stroke-linecap:round; stroke-linejoin:round;fill-rule:evenodd;"
d="M 125.6000,12.1540
126.3500,12.1540
126.3500,13.3540
125.6000,13.3540
Z" /> 
<path style="fill:#37CBCB; fill-opacity:1.0000; 
stroke:#37CBCB; stroke-width:0.0000; stroke-opacity:1; 
stroke-linecap:round; stroke-linejoin:round;fill-rule:evenodd;"
d="M 125.6000,14.0540
126.3500,14.0540
126.3500,15.2540
125.6000,15.2540
Z" /> 
</g>
<g >
</g>
<g style="fill:#37CBCB; fill-opacity:1.0000; 
stroke:#37CBCB; stroke-width:0.0000; stroke-opacity:1; 
stroke-linecap:round; stroke-linejoin:round;">
<path style="fill:#37CBCB; fill-opacity:1.0000; 
stroke:#37CBCB; stroke-width:0.0000; stroke-opacity:1; 
stroke-linecap:round; stroke-linejoin:round;fill-rule:evenodd;"
d="M 113.7000,12.1540
114.4500,12.1540
114.4500,13.3540
113.7000,13.3540
Z" /> 
<path style="fill:#37CBCB; fill-opacity:1.0000; 
stroke:#37CBCB; stroke-width:0.0000; stroke-opacity:1; 
stroke-linecap:round; stroke-linejoin:round;fill-rule:evenodd;"
d="M 113.7000,14.0540
114.4500,14.0540
114.4500,15.2540
113.7000,15.2540
Z" /> 
</g>
<g >
</g>
<g style="fill:#37CBCB; fill-opacity:1.0000; 
stroke:#37CBCB; stroke-width:0.0000; stroke-opacity:1; 
stroke-linecap:round; stroke-linejoin:round;">
<path style="fill:#37CBCB; fill-opacity:1.0000; 
stroke:#37CBCB; stroke-width:0.0000; stroke-opacity:1; 
stroke-linecap:round; stroke-linejoin:round;fill-rule:evenodd;"
d="M 101.9000,12.1540
102.6500,12.1540
102.6500,13.3540
101.9000,13.3540
Z" /> 
<path style="fill:#37CBCB; fill-opacity:1.0000; 
stroke:#37CBCB; stroke-width:0.0000; stroke-opacity:1; 
stroke-linecap:round; stroke-linejoin:round;fill-rule:evenodd;"
d="M 101.9000,14.0540
102.6500,14.0540
102.6500,15.2540
101.9000,15.2540
Z" /> 
</g>
<g >
</g>
<g style="fill:#37CBCB; fill-opacity:1.0000; 
stroke:#37CBCB; stroke-width:0.0000; stroke-opacity:1; 
stroke-linecap:round; stroke-linejoin:round;">
<path style="fill:#37CBCB; fill-opacity:1.0000; 
stroke:#37CBCB; stroke-width:0.0000; stroke-opacity:1; 
stroke-linecap:round; stroke-linejoin:round;fill-rule:evenodd;"
d="M 78.2000,12.1540
78.9500,12.1540
78.9500,13.3540
78.2000,13.3540
Z" /> 
<path style="fill:#37CBCB; fill-opacity:1.0000; 
stroke:#37CBCB; stroke-width:0.0000; stroke-opacity:1; 
stroke-linecap:round; stroke-linejoin:round;fill-rule:evenodd;"
d="M 78.2000,14.0540
78.9500,14.0540
78.9500,15.2540
78.2000,15.2540
Z" /> 
</g>
<g >
</g>
<g style="fill:#37CBCB; fill-opacity:1.0000; 
stroke:#37CBCB; stroke-width:0.0000; stroke-opacity:1; 
stroke-linecap:round; stroke-linejoin:round;">
<path style="fill:#37CBCB; fill-opacity:1.0000; 
stroke:#37CBCB; stroke-width:0.0000; stroke-opacity:1; 
stroke-linecap:round; stroke-linejoin:round;fill-rule:evenodd;"
d="M 66.4000,12.1540
67.1500,12.1540
67.1500,13.3540
66.4000,13.3540
Z" /> 
<path style="fill:#37CBCB; fill-opacity:1.0000; 
stroke:#37CBCB; stroke-width:0.0000; stroke-opacity:1; 
stroke-linecap:round; stroke-linejoin:round;fill-rule:evenodd;"
d="M 66.4000,14.0540
67.1500,14.0540
67.1500,15.2540
66.4000,15.2540
Z" /> 
</g>
<g >
</g>
<g style="fill:#37CBCB; fill-opacity:1.0000; 
stroke:#37CBCB; stroke-width:0.0000; stroke-opacity:1; 
stroke-linecap:round; stroke-linejoin:round;">
<path style="fill:#37CBCB; fill-opacity:1.0000; 
stroke:#37CBCB; stroke-width:0.0000; stroke-opacity:1; 
stroke-linecap:round; stroke-linejoin:round;fill-rule:evenodd;"
d="M 54.6000,12.1540
55.3500,12.1540
55.3500,13.3540
54.6000,13.3540
Z" /> 
<path style="fill:#37CBCB; fill-opacity:1.0000; 
stroke:#37CBCB; stroke-width:0.0000; stroke-opacity:1; 
stroke-linecap:round; stroke-linejoin:round;fill-rule:evenodd;"
d="M 54.6000,14.0540
55.3500,14.0540
55.3500,15.2540
54.6000,15.2540
Z" /> 
</g>
<g >
</g>
<g style="fill:#37CBCB; fill-opacity:1.0000; 
stroke:#37CBCB; stroke-width:0.0000; stroke-opacity:1; 
stroke-linecap:round; stroke-linejoin:round;">
<path style="fill:#37CBCB; fill-opacity:1.0000; 
stroke:#37CBCB; stroke-width:0.0000; stroke-opacity:1; 
stroke-linecap:round; stroke-linejoin:round;fill-rule:evenodd;"
d="M 42.8000,12.1540
43.5500,12.1540
43.5500,13.3540
42.8000,13.3540
Z" /> 
<path style="fill:#37CBCB; fill-opacity:1.0000; 
stroke:#37CBCB; stroke-width:0.0000; stroke-opacity:1; 
stroke-linecap:round; stroke-linejoin:round;fill-rule:evenodd;"
d="M 42.8000,14.0540
43.5500,14.0540
43.5500,15.2540
42.8000,15.2540
Z" /> 
</g>
<g >
</g>
<g style="fill:#37CBCB; fill-opacity:1.0000; 
stroke:#37CBCB; stroke-width:0.0000; stroke-opacity:1; 
stroke-linecap:round; stroke-linejoin:round;">
<path style="fill:#37CBCB; fill-opacity:1.0000; 
stroke:#37CBCB; stroke-width:0.0000; stroke-opacity:1; 
stroke-linecap:round; stroke-linejoin:round;fill-rule:evenodd;"
d="M 31.0000,12.1540
31.7500,12.1540
31.7500,13.3540
31.0000,13.3540
Z" /> 
<path style="fill:#37CBCB; fill-opacity:1.0000; 
stroke:#37CBCB; stroke-width:0.0000; stroke-opacity:1; 
stroke-linecap:round; stroke-linejoin:round;fill-rule:evenodd;"
d="M 31.0000,14.0540
31.7500,14.0540
31.7500,15.2540
31.0000,15.2540
Z" /> 
</g>
<g >
</g>
<g style="fill:#37CBCB; fill-opacity:1.0000; 
stroke:#37CBCB; stroke-width:0.0000; stroke-opacity:1; 
stroke-linecap:round; stroke-linejoin:round;">
<path style="fill:#37CBCB; fill-opacity:1.0000; 
stroke:#37CBCB; stroke-width:0.0000; stroke-opacity:1; 
stroke-linecap:round; stroke-linejoin:round;fill-rule:evenodd;"
d="M 19.1000,12.1540
19.8500,12.1540
19.8500,13.3540
19.1000,13.3540
Z" /> 
<path style="fill:#37CBCB; fill-opacity:1.0000; 
stroke:#37CBCB; stroke-width:0.0000; stroke-opacity:1; 
stroke-linecap:round; stroke-linejoin:round;fill-rule:evenodd;"
d="M 19.1000,14.0540
19.8500,14.0540
19.8500,15.2540
19.1000,15.2540
Z" /> 
</g>
<g >
</g>
<g style="fill:#37CBCB; fill-opacity:1.0000; 
stroke:#37CBCB; stroke-width:0.0000; stroke-opacity:1; 
stroke-linecap:round; stroke-linejoin:round;">
<path style="fill:#37CBCB; fill-opacity:1.0000; 
stroke:#37CBCB; stroke-width:0.0000; stroke-opacity:1; 
stroke-linecap:round; stroke-linejoin:round;fill-rule:evenodd;"
d="M 7.3000,12.1540
8.0500,12.1540
8.0500,13.3540
7.3000,13.3540
Z" /> 
<path style="fill:#37CBCB; fill-opacity:1.0000; 
stroke:#37CBCB; stroke-width:0.0000; stroke-opacity:1; 
stroke-linecap:round; stroke-linejoin:round;fill-rule:evenodd;"
d="M 7.3000,14.0540
8.0500,14.0540
8.0500,15.2540
7.3000,15.2540
Z" /> 
</g>
<g >
</g>
<g style="fill:#37CBCB; fill-opacity:1.0000; 
stroke:#37CBCB; stroke-width:0.0000; stroke-opacity:1; 
stroke-linecap:round; stroke-linejoin:round;">
<path style="fill:#37CBCB; fill-opacity:1.0000; 
stroke:#37CBCB; stroke-width:0.0000; stroke-opacity:1; 
stroke-linecap:round; stroke-linejoin:round;fill-rule:evenodd;"
d="M 12.9750,10.4040
13.9750,10.4040
13.9750,12.0040
12.9750,12.0040
Z" /> 
<path style="fill:#37CBCB; fill-opacity:1.0000; 
stroke:#37CBCB; stroke-width:0.0000; stroke-opacity:1; 
stroke-linecap:round; stroke-linejoin:round;fill-rule:evenodd;"
d="M 9.7750,10.4040
10.7750,10.4040
10.7750,12.0040
9.7750,12.0040
Z" /> 
<path style="fill:#37CBCB; fill-opacity:1.0000; 
stroke:#37CBCB; stroke-width:0.0000; stroke-opacity:1; 
stroke-linecap:round; stroke-linejoin:round;fill-rule:evenodd;"
d="M 9.7750,15.4040
10.7750,15.4040
10.7750,17.0040
9.7750,17.0040
Z" /> 
<path style="fill:#37CBCB; fill-opacity:1.0000; 
stroke:#37CBCB; stroke-width:0.0000; stroke-opacity:1; 
stroke-linecap:round; stroke-linejoin:round;fill-rule:evenodd;"
d="M 12.9750,15.4040
13.9750,15.4040
13.9750,17.0040
12.9750,17.0040
Z" /> 
</g>
<g >
</g>
<g style="fill:#37CBCB; fill-opacity:1.0000; 
stroke:#37CBCB; stroke-width:0.0000; stroke-opacity:1; 
stroke-linecap:round; stroke-linejoin:round;">
<path style="fill:#37CBCB; fill-opacity:1.0000; 
stroke:#37CBCB; stroke-width:0.0000; stroke-opacity:1; 
stroke-linecap:round; stroke-linejoin:round;fill-rule:evenodd;"
d="M 154.8750,10.4040
155.8750,10.4040
155.8750,12.0040
154.8750,12.0040
Z" /> 
<path style="fill:#37CBCB; fill-opacity:1.0000; 
stroke:#37CBCB; stroke-width:0.0000; stroke-opacity:1; 
stroke-linecap:round; stroke-linejoin:round;fill-rule:evenodd;"
d="M 151.6750,10.4040
152.6750,10.4040
152.6750,12.0040
151.6750,12.0040
Z" /> 
<path style="fill:#37CBCB; fill-opacity:1.0000; 
stroke:#37CBCB; stroke-width:0.0000; stroke-opacity:1; 
stroke-linecap:round; stroke-linejoin:round;fill-rule:evenodd;"
d="M 151.6750,15.4040
152.6750,15.4040
152.6750,17.0040
151.6750,17.0040
Z" /> 
<path style="fill:#37CBCB; fill-opacity:1.0000; 
stroke:#37CBCB; stroke-width:0.0000; stroke-opacity:1; 
stroke-linecap:round; stroke-linejoin:round;fill-rule:evenodd;"
d="M 154.8750,15.4040
155.8750,15.4040
155.8750,17.0040
154.8750,17.0040
Z" /> 
</g>
<g >
</g>
<g style="fill:#37CBCB; fill-opacity:1.0000; 
stroke:#37CBCB; stroke-width:0.0000; stroke-opacity:1; 
stroke-linecap:round; stroke-linejoin:round;">
<path style="fill:#37CBCB; fill-opacity:1.0000; 
stroke:#37CBCB; stroke-width:0.0000; stroke-opacity:1; 
stroke-linecap:round; stroke-linejoin:round;fill-rule:evenodd;"
d="M 143.0750,10.4040
144.0750,10.4040
144.0750,12.0040
143.0750,12.0040
Z" /> 
<path style="fill:#37CBCB; fill-opacity:1.0000; 
stroke:#37CBCB; stroke-width:0.0000; stroke-opacity:1; 
stroke-linecap:round; stroke-linejoin:round;fill-rule:evenodd;"
d="M 139.8750,10.4040
140.8750,10.4040
140.8750,12.0040
139.8750,12.0040
Z" /> 
<path style="fill:#37CBCB; fill-opacity:1.0000; 
stroke:#37CBCB; stroke-width:0.0000; stroke-opacity:1; 
stroke-linecap:round; stroke-linejoin:round;fill-rule:evenodd;"
d="M 139.8750,15.4040
140.8750,15.4040
140.8750,17.0040
139.8750,17.0040
Z" /> 
<path style="fill:#37CBCB; fill-opacity:1.0000; 
stroke:#37CBCB; stroke-width:0.0000; stroke-opacity:1; 
stroke-linecap:round; stroke-linejoin:round;fill-rule:evenodd;"
d="M 143.0750,15.4040
144.0750,15.4040
144.0750,17.0040
143.0750,17.0040
Z" /> 
</g>
<g >
</g>
<g style="fill:#37CBCB; fill-opacity:1.0000; 
stroke:#37CBCB; stroke-width:0.0000; stroke-opacity:1; 
stroke-linecap:round; stroke-linejoin:round;">
<path style="fill:#37CBCB; fill-opacity:1.0000; 
stroke:#37CBCB; stroke-width:0.0000; stroke-opacity:1; 
stroke-linecap:round; stroke-linejoin:round;fill-rule:evenodd;"
d="M 131.2750,10.4040
132.2750,10.4040
132.2750,12.0040
131.2750,12.0040
Z" /> 
<path style="fill:#37CBCB; fill-opacity:1.0000; 
stroke:#37CBCB; stroke-width:0.0000; stroke-opacity:1; 
stroke-linecap:round; stroke-linejoin:round;fill-rule:evenodd;"
d="M 128.0750,10.4040
129.0750,10.4040
129.0750,12.0040
128.0750,12.0040
Z" /> 
<path style="fill:#37CBCB; fill-opacity:1.0000; 
stroke:#37CBCB; stroke-width:0.0000; stroke-opacity:1; 
stroke-linecap:round; stroke-linejoin:round;fill-rule:evenodd;"
d="M 128.0750,15.4040
129.0750,15.4040
129.0750,17.0040
128.0750,17.0040
Z" /> 
<path style="fill:#37CBCB; fill-opacity:1.0000; 
stroke:#37CBCB; stroke-width:0.0000; stroke-opacity:1; 
stroke-linecap:round; stroke-linejoin:round;fill-rule:evenodd;"
d="M 131.2750,15.4040
132.2750,15.4040
132.2750,17.0040
131.2750,17.0040
Z" /> 
</g>
<g >
</g>
<g style="fill:#37CBCB; fill-opacity:1.0000; 
stroke:#37CBCB; stroke-width:0.0000; stroke-opacity:1; 
stroke-linecap:round; stroke-linejoin:round;">
<path style="fill:#37CBCB; fill-opacity:1.0000; 
stroke:#37CBCB; stroke-width:0.0000; stroke-opacity:1; 
stroke-linecap:round; stroke-linejoin:round;fill-rule:evenodd;"
d="M 119.3750,10.4040
120.3750,10.4040
120.3750,12.0040
119.3750,12.0040
Z" /> 
<path style="fill:#37CBCB; fill-opacity:1.0000; 
stroke:#37CBCB; stroke-width:0.0000; stroke-opacity:1; 
stroke-linecap:round; stroke-linejoin:round;fill-rule:evenodd;"
d="M 116.1750,10.4040
117.1750,10.4040
117.1750,12.0040
116.1750,12.0040
Z" /> 
<path style="fill:#37CBCB; fill-opacity:1.0000; 
stroke:#37CBCB; stroke-width:0.0000; stroke-opacity:1; 
stroke-linecap:round; stroke-linejoin:round;fill-rule:evenodd;"
d="M 116.1750,15.4040
117.1750,15.4040
117.1750,17.0040
116.1750,17.0040
Z" /> 
<path style="fill:#37CBCB; fill-opacity:1.0000; 
stroke:#37CBCB; stroke-width:0.0000; stroke-opacity:1; 
stroke-linecap:round; stroke-linejoin:round;fill-rule:evenodd;"
d="M 119.3750,15.4040
120.3750,15.4040
120.3750,17.0040
119.3750,17.0040
Z" /> 
</g>
<g >
</g>
<g style="fill:#37CBCB; fill-opacity:1.0000; 
stroke:#37CBCB; stroke-width:0.0000; stroke-opacity:1; 
stroke-linecap:round; stroke-linejoin:round;">
<path style="fill:#37CBCB; fill-opacity:1.0000; 
stroke:#37CBCB; stroke-width:0.0000; stroke-opacity:1; 
stroke-linecap:round; stroke-linejoin:round;fill-rule:evenodd;"
d="M 107.5750,10.4040
108.5750,10.4040
108.5750,12.0040
107.5750,12.0040
Z" /> 
<path style="fill:#37CBCB; fill-opacity:1.0000; 
stroke:#37CBCB; stroke-width:0.0000; stroke-opacity:1; 
stroke-linecap:round; stroke-linejoin:round;fill-rule:evenodd;"
d="M 104.3750,10.4040
105.3750,10.4040
105.3750,12.0040
104.3750,12.0040
Z" /> 
<path style="fill:#37CBCB; fill-opacity:1.0000; 
stroke:#37CBCB; stroke-width:0.0000; stroke-opacity:1; 
stroke-linecap:round; stroke-linejoin:round;fill-rule:evenodd;"
d="M 104.3750,15.4040
105.3750,15.4040
105.3750,17.0040
104.3750,17.0040
Z" /> 
<path style="fill:#37CBCB; fill-opacity:1.0000; 
stroke:#37CBCB; stroke-width:0.0000; stroke-opacity:1; 
stroke-linecap:round; stroke-linejoin:round;fill-rule:evenodd;"
d="M 107.5750,15.4040
108.5750,15.4040
108.5750,17.0040
107.5750,17.0040
Z" /> 
</g>
<g >
</g>
<g style="fill:#37CBCB; fill-opacity:1.0000; 
stroke:#37CBCB; stroke-width:0.0000; stroke-opacity:1; 
stroke-linecap:round; stroke-linejoin:round;">
<path style="fill:#37CBCB; fill-opacity:1.0000; 
stroke:#37CBCB; stroke-width:0.0000; stroke-opacity:1; 
stroke-linecap:round; stroke-linejoin:round;fill-rule:evenodd;"
d="M 83.8750,10.4040
84.8750,10.4040
84.8750,12.0040
83.8750,12.0040
Z" /> 
<path style="fill:#37CBCB; fill-opacity:1.0000; 
stroke:#37CBCB; stroke-width:0.0000; stroke-opacity:1; 
stroke-linecap:round; stroke-linejoin:round;fill-rule:evenodd;"
d="M 80.6750,10.4040
81.6750,10.4040
81.6750,12.0040
80.6750,12.0040
Z" /> 
<path style="fill:#37CBCB; fill-opacity:1.0000; 
stroke:#37CBCB; stroke-width:0.0000; stroke-opacity:1; 
stroke-linecap:round; stroke-linejoin:round;fill-rule:evenodd;"
d="M 80.6750,15.4040
81.6750,15.4040
81.6750,17.0040
80.6750,17.0040
Z" /> 
<path style="fill:#37CBCB; fill-opacity:1.0000; 
stroke:#37CBCB; stroke-width:0.0000; stroke-opacity:1; 
stroke-linecap:round; stroke-linejoin:round;fill-rule:evenodd;"
d="M 83.8750,15.4040
84.8750,15.4040
84.8750,17.0040
83.8750,17.0040
Z" /> 
</g>
<g >
</g>
<g style="fill:#37CBCB; fill-opacity:1.0000; 
stroke:#37CBCB; stroke-width:0.0000; stroke-opacity:1; 
stroke-linecap:round; stroke-linejoin:round;">
<path style="fill:#37CBCB; fill-opacity:1.0000; 
stroke:#37CBCB; stroke-width:0.0000; stroke-opacity:1; 
stroke-linecap:round; stroke-linejoin:round;fill-rule:evenodd;"
d="M 72.0750,10.4040
73.0750,10.4040
73.0750,12.0040
72.0750,12.0040
Z" /> 
<path style="fill:#37CBCB; fill-opacity:1.0000; 
stroke:#37CBCB; stroke-width:0.0000; stroke-opacity:1; 
stroke-linecap:round; stroke-linejoin:round;fill-rule:evenodd;"
d="M 68.8750,10.4040
69.8750,10.4040
69.8750,12.0040
68.8750,12.0040
Z" /> 
<path style="fill:#37CBCB; fill-opacity:1.0000; 
stroke:#37CBCB; stroke-width:0.0000; stroke-opacity:1; 
stroke-linecap:round; stroke-linejoin:round;fill-rule:evenodd;"
d="M 68.8750,15.4040
69.8750,15.4040
69.8750,17.0040
68.8750,17.0040
Z" /> 
<path style="fill:#37CBCB; fill-opacity:1.0000; 
stroke:#37CBCB; stroke-width:0.0000; stroke-opacity:1; 
stroke-linecap:round; stroke-linejoin:round;fill-rule:evenodd;"
d="M 72.0750,15.4040
73.0750,15.4040
73.0750,17.0040
72.0750,17.0040
Z" /> 
</g>
<g >
</g>
<g style="fill:#37CBCB; fill-opacity:1.0000; 
stroke:#37CBCB; stroke-width:0.0000; stroke-opacity:1; 
stroke-linecap:round; stroke-linejoin:round;">
<path style="fill:#37CBCB; fill-opacity:1.0000; 
stroke:#37CBCB; stroke-width:0.0000; stroke-opacity:1; 
stroke-linecap:round; stroke-linejoin:round;fill-rule:evenodd;"
d="M 60.2750,10.4040
61.2750,10.4040
61.2750,12.0040
60.2750,12.0040
Z" /> 
<path style="fill:#37CBCB; fill-opacity:1.0000; 
stroke:#37CBCB; stroke-width:0.0000; stroke-opacity:1; 
stroke-linecap:round; stroke-linejoin:round;fill-rule:evenodd;"
d="M 57.0750,10.4040
58.0750,10.4040
58.0750,12.0040
57.0750,12.0040
Z" /> 
<path style="fill:#37CBCB; fill-opacity:1.0000; 
stroke:#37CBCB; stroke-width:0.0000; stroke-opacity:1; 
stroke-linecap:round; stroke-linejoin:round;fill-rule:evenodd;"
d="M 57.0750,15.4040
58.0750,15.4040
58.0750,17.0040
57.0750,17.0040
Z" /> 
<path style="fill:#37CBCB; fill-opacity:1.0000; 
stroke:#37CBCB; stroke-width:0.0000; stroke-opacity:1; 
stroke-linecap:round; stroke-linejoin:round;fill-rule:evenodd;"
d="M 60.2750,15.4040
61.2750,15.4040
61.2750,17.0040
60.2750,17.0040
Z" /> 
</g>
<g >
</g>
<g style="fill:#37CBCB; fill-opacity:1.0000; 
stroke:#37CBCB; stroke-width:0.0000; stroke-opacity:1; 
stroke-linecap:round; stroke-linejoin:round;">
<path style="fill:#37CBCB; fill-opacity:1.0000; 
stroke:#37CBCB; stroke-width:0.0000; stroke-opacity:1; 
stroke-linecap:round; stroke-linejoin:round;fill-rule:evenodd;"
d="M 48.4750,10.4040
49.4750,10.4040
49.4750,12.0040
48.4750,12.0040
Z" /> 
<path style="fill:#37CBCB; fill-opacity:1.0000; 
stroke:#37CBCB; stroke-width:0.0000; stroke-opacity:1; 
stroke-linecap:round; stroke-linejoin:round;fill-rule:evenodd;"
d="M 45.2750,10.4040
46.2750,10.4040
46.2750,12.0040
45.2750,12.0040
Z" /> 
<path style="fill:#37CBCB; fill-opacity:1.0000; 
stroke:#37CBCB; stroke-width:0.0000; stroke-opacity:1; 
stroke-linecap:round; stroke-linejoin:round;fill-rule:evenodd;"
d="M 45.2750,15.4040
46.2750,15.4040
46.2750,17.0040
45.2750,17.0040
Z" /> 
<path style="fill:#37CBCB; fill-opacity:1.0000; 
stroke:#37CBCB; stroke-width:0.0000; stroke-opacity:1; 
stroke-linecap:round; stroke-linejoin:round;fill-rule:evenodd;"
d="M 48.4750,15.4040
49.4750,15.4040
49.4750,17.0040
48.4750,17.0040
Z" /> 
</g>
<g >
</g>
<g style="fill:#37CBCB; fill-opacity:1.0000; 
stroke:#37CBCB; stroke-width:0.0000; stroke-opacity:1; 
stroke-linecap:round; stroke-linejoin:round;">
<path style="fill:#37CBCB; fill-opacity:1.0000; 
stroke:#37CBCB; stroke-width:0.0000; stroke-opacity:1; 
stroke-linecap:round; stroke-linejoin:round;fill-rule:evenodd;"
d="M 36.6750,10.4040
37.6750,10.4040
37.6750,12.0040
36.6750,12.0040
Z" /> 
<path style="fill:#37CBCB; fill-opacity:1.0000; 
stroke:#37CBCB; stroke-width:0.0000; stroke-opacity:1; 
stroke-linecap:round; stroke-linejoin:round;fill-rule:evenodd;"
d="M 33.4750,10.4040
34.4750,10.4040
34.4750,12.0040
33.4750,12.0040
Z" /> 
<path style="fill:#37CBCB; fill-opacity:1.0000; 
stroke:#37CBCB; stroke-width:0.0000; stroke-opacity:1; 
stroke-linecap:round; stroke-linejoin:round;fill-rule:evenodd;"
d="M 33.4750,15.4040
34.4750,15.4040
34.4750,17.0040
33.4750,17.0040
Z" /> 
<path style="fill:#37CBCB; fill-opacity:1.0000; 
stroke:#37CBCB; stroke-width:0.0000; stroke-opacity:1; 
stroke-linecap:round; stroke-linejoin:round;fill-rule:evenodd;"
d="M 36.6750,15.4040
37.6750,15.4040
37.6750,17.0040
36.6750,17.0040
Z" /> 
</g>
<g >
</g>
<g style="fill:#37CBCB; fill-opacity:1.0000; 
stroke:#37CBCB; stroke-width:0.0000; stroke-opacity:1; 
stroke-linecap:round; stroke-linejoin:round;">
<path style="fill:#37CBCB; fill-opacity:1.0000; 
stroke:#37CBCB; stroke-width:0.0000; stroke-opacity:1; 
stroke-linecap:round; stroke-linejoin:round;fill-rule:evenodd;"
d="M 24.7750,10.4040
25.7750,10.4040
25.7750,12.0040
24.7750,12.0040
Z" /> 
<path style="fill:#37CBCB; fill-opacity:1.0000; 
stroke:#37CBCB; stroke-width:0.0000; stroke-opacity:1; 
stroke-linecap:round; stroke-linejoin:round;fill-rule:evenodd;"
d="M 21.5750,10.4040
22.5750,10.4040
22.5750,12.0040
21.5750,12.0040
Z" /> 
<path style="fill:#37CBCB; fill-opacity:1.0000; 
stroke:#37CBCB; stroke-width:0.0000; stroke-opacity:1; 
stroke-linecap:round; stroke-linejoin:round;fill-rule:evenodd;"
d="M 21.5750,15.4040
22.5750,15.4040
22.5750,17.0040
21.5750,17.0040
Z" /> 
<path style="fill:#37CBCB; fill-opacity:1.0000; 
stroke:#37CBCB; stroke-width:0.0000; stroke-opacity:1; 
stroke-linecap:round; stroke-linejoin:round;fill-rule:evenodd;"
d="M 24.7750,15.4040
25.7750,15.4040
25.7750,17.0040
24.7750,17.0040
Z" /> 
</g>
<g >
</g>
<g >
</g>
<g style="fill:#37CBCB; fill-opacity:1.0000; 
stroke:#37CBCB; stroke-width:0.0000; stroke-opacity:1; 
stroke-linecap:round; stroke-linejoin:round;">
</g>
<g style="fill:#37CBCB; fill-opacity:1.0000; 
stroke:#37CBCB; stroke-width:0.2500; stroke-opacity:1; 
stroke-linecap:round; stroke-linejoin:round;">
</g>
<g style="fill:#37CBCB; fill-opacity:0.0; 
stroke:#37CBCB; stroke-width:0.2500; stroke-opacity:1; 
stroke-linecap:round; stroke-linejoin:round;">
<path d="M7.6750 8.2040
L8.1750 7.7040
" />
<path d="M8.1750 7.7040
L13.5750 7.7040
" />
<path d="M13.5250 7.7040
L13.5750 7.7040
" />
<path d="M154.8750 7.7040
L155.4250 8.2540
" />
<path d="M155.4250 8.2540
L155.4250 11.3040
" />
<path d="M149.5750 7.7040
L154.8750 7.7040
" />
<path d="M143.6250 7.7040
L143.5750 7.7040
" />
<path d="M143.5750 7.7040
L149.5750 7.7040
" />
<path d="M137.7750 7.7040
L143.5750 7.7040
" />
<path d="M131.7750 7.7040
L131.8750 7.7040
" />
<path d="M131.8750 7.7040
L137.7750 7.7040
" />
<path d="M131.7750 11.2540
L131.8250 11.3040
" />
<path d="M125.9750 7.7040
L131.7750 7.7040
" />
<path d="M119.9250 7.7040
L119.9750 7.7040
" />
<path d="M119.9750 7.7040
L125.9750 7.7040
" />
<path d="M114.0750 7.7040
L119.9750 7.7040
" />
<path d="M102.2750 7.7040
L108.0750 7.7040
" />
<path d="M108.1250 7.7040
L108.0750 7.7040
" />
<path d="M108.0750 7.7040
L114.0750 7.7040
" />
<path d="M84.4250 7.7040
L84.3750 7.7040
" />
<path d="M84.3750 7.7040
L102.2750 7.7040
" />
<path d="M78.5750 7.7040
L78.5750 7.8040
" />
<path d="M78.5750 7.8040
L78.5750 7.7040
" />
<path d="M78.5750 7.7040
L84.3750 7.7040
" />
<path d="M72.6250 7.7040
L72.6750 7.7040
" />
<path d="M72.6750 7.7040
L78.5750 7.7040
" />
<path d="M60.8250 7.7040
L60.7750 7.7040
" />
<path d="M60.7750 7.7040
L66.7750 7.7040
" />
<path d="M66.7750 7.7040
L72.6750 7.7040
" />
<path d="M54.9750 7.7040
L60.7750 7.7040
" />
<path d="M49.0250 7.7040
L49.0750 7.7040
" />
<path d="M49.0750 7.7040
L54.9750 7.7040
" />
<path d="M37.2250 7.7040
L37.1750 7.7040
" />
<path d="M37.1750 7.7040
L43.1750 7.7040
" />
<path d="M31.3750 7.7040
L37.1750 7.7040
" />
<path d="M25.3250 7.7040
L25.3750 7.7040
" />
<path d="M25.3750 7.7040
L31.3750 7.7040
" />
<path d="M43.1750 7.7040
L49.0750 7.7040
" />
<path d="M19.4750 12.7540
L19.4750 7.7040
" />
<path d="M125.9750 12.7540
L125.9750 7.7040
" />
<path d="M66.7750 12.7540
L66.7750 7.7040
" />
<path d="M102.2750 12.7540
L102.2750 7.7040
" />
<path d="M72.6250 11.3040
L72.6250 7.7040
" />
<path d="M84.4250 11.3040
L84.4250 7.7040
" />
<path d="M19.4750 7.7040
L13.5250 7.7040
" />
<path d="M31.3750 12.7540
L31.3750 7.7040
" />
<path d="M78.5750 12.7540
L78.5750 7.7040
" />
<path d="M54.9750 12.7540
L54.9750 7.7040
" />
<path d="M7.6750 8.2040
L7.6750 12.7540
" />
<path d="M143.6250 11.3040
L143.6250 7.7040
" />
<path d="M108.1250 11.3040
L108.1250 7.7040
" />
<path d="M149.5750 12.7540
L149.5750 7.7040
" />
<path d="M25.3250 11.3040
L25.3250 7.7040
" />
<path d="M13.5250 11.3040
L13.5250 7.7040
" />
<path d="M137.7750 12.7540
L137.7750 7.7040
" />
<path d="M114.0750 12.7540
L114.0750 7.7040
" />
<path d="M49.0250 11.3040
L49.0250 7.7040
" />
<path d="M119.9250 11.3040
L119.9250 7.7040
" />
<path d="M43.1750 12.7540
L43.1750 7.7040
" />
<path d="M131.7750 7.7040
L131.7750 11.2540
" />
<path d="M60.8250 11.3040
L60.8250 7.7040
" />
<path d="M37.2250 11.3040
L37.2250 7.7040
" />
<path d="M19.4750 7.7040
L25.3750 7.7040
" />
<path d="M152.1750 18.4040
L152.1250 18.3540
" />
<path d="M152.1250 18.3540
L152.1250 16.1040
" />
<path d="M140.3250 18.4040
L140.3750 18.4040
" />
<path d="M140.3750 18.4040
L149.5750 18.4040
" />
<path d="M137.7750 18.4040
L140.3750 18.4040
" />
<path d="M128.5250 18.4040
L128.4750 18.4040
" />
<path d="M128.4750 18.4040
L137.7750 18.4040
" />
<path d="M125.9750 18.4040
L125.9750 18.3040
" />
<path d="M125.9750 18.3040
L125.9750 18.4040
" />
<path d="M125.9750 18.4040
L128.4750 18.4040
" />
<path d="M116.6250 18.4040
L116.5750 18.4040
" />
<path d="M116.5750 18.4040
L125.9750 18.4040
" />
<path d="M114.0750 18.4040
L116.5750 18.4040
" />
<path d="M104.8250 18.4040
L104.7750 18.4040
" />
<path d="M104.7750 18.4040
L114.0750 18.4040
" />
<path d="M81.1250 18.4040
L81.0750 18.4040
" />
<path d="M81.0750 18.4040
L102.2750 18.4040
" />
<path d="M78.5750 18.4040
L81.0750 18.4040
" />
<path d="M69.3250 18.4040
L69.3750 18.4040
" />
<path d="M69.3750 18.4040
L78.5750 18.4040
" />
<path d="M66.7750 18.4040
L69.3750 18.4040
" />
<path d="M149.5750 18.4040
L152.1750 18.4040
" />
<path d="M102.2750 18.4040
L104.7750 18.4040
" />
<path d="M33.9250 18.4040
L33.8750 18.4040
" />
<path d="M33.8750 18.4040
L43.1750 18.4040
" />
<path d="M31.3750 18.4040
L33.8750 18.4040
" />
<path d="M22.0250 18.4040
L21.9750 18.4040
" />
<path d="M21.9750 18.4040
L31.3750 18.4040
" />
<path d="M19.4750 18.4040
L21.9750 18.4040
" />
<path d="M8.1750 18.4040
L7.6750 17.9040
" />
<path d="M7.6750 17.9040
L7.6750 14.6540
" />
<path d="M10.2250 18.4040
L10.2750 18.4040
" />
<path d="M10.2750 18.4040
L8.1750 18.4040
" />
<path d="M57.4750 18.4040
L66.7750 18.4040
" />
<path d="M57.5250 18.3540
L57.4750 18.4040
" />
<path d="M54.9750 18.4040
L57.4750 18.4040
" />
<path d="M45.7250 18.4040
L45.6750 18.4040
" />
<path d="M45.6750 18.4040
L54.9750 18.4040
" />
<path d="M43.1750 18.4040
L45.6750 18.4040
" />
<path d="M104.8250 16.1040
L104.8250 18.4040
" />
<path d="M22.0250 16.1040
L22.0250 18.4040
" />
<path d="M81.1250 16.1040
L81.1250 18.4040
" />
<path d="M33.9250 16.1040
L33.9250 18.4040
" />
<path d="M125.9750 14.6540
L125.9750 18.4040
" />
<path d="M137.7750 14.6540
L137.7750 18.4040
" />
<path d="M45.7250 16.1040
L45.7250 18.4040
" />
<path d="M43.1750 14.6540
L43.1750 18.4040
" />
<path d="M31.3750 14.6540
L31.3750 18.4040
" />
<path d="M114.0750 14.6540
L114.0750 18.4040
" />
<path d="M66.7750 14.6540
L66.7750 18.4040
" />
<path d="M57.5250 16.1040
L57.5250 18.3540
" />
<path d="M10.2250 16.1040
L10.2250 18.4040
" />
<path d="M128.5250 16.1040
L128.5250 18.4040
" />
<path d="M69.3250 16.1040
L69.3250 18.4040
" />
<path d="M19.4750 18.4040
L10.2750 18.4040
" />
<path d="M116.6250 16.1040
L116.6250 18.4040
" />
<path d="M140.3250 16.1040
L140.3250 18.4040
" />
<path d="M19.4750 14.6540
L19.4750 18.4040
" />
<path d="M102.2750 14.6540
L102.2750 18.4040
" />
<path d="M149.5750 14.6540
L149.5750 18.4040
" />
<path d="M54.9750 14.6540
L54.9750 18.4040
" />
<path d="M78.5750 14.6540
L78.5750 18.4040
" />
<path d="M152.1250 13.1540
L151.5750 13.7040
" />
<path d="M151.5750 13.7040
L144.1750 13.7040
" />
<path d="M144.1750 13.7040
L143.6250 14.2540
" />
<path d="M143.6250 14.2540
L143.6250 16.1040
" />
<path d="M152.1250 11.3040
L152.1250 13.1540
" />
<path d="M140.3250 13.1540
L139.7750 13.7040
" />
<path d="M139.7750 13.7040
L132.4750 13.7040
" />
<path d="M132.4750 13.7040
L131.8250 14.3540
" />
<path d="M131.8250 14.3540
L131.8250 16.1040
" />
<path d="M140.3250 11.3040
L140.3250 13.1540
" />
<path d="M128.5250 13.1540
L127.9750 13.7040
" />
<path d="M127.9750 13.7040
L120.3750 13.7040
" />
<path d="M120.3750 13.7040
L119.9250 14.1540
" />
<path d="M119.9250 14.1540
L119.9250 16.1040
" />
<path d="M128.5250 11.3040
L128.5250 13.1540
" />
<path d="M116.6250 13.1540
L116.0750 13.7040
" />
<path d="M116.0750 13.7040
L108.5750 13.7040
" />
<path d="M108.5750 13.7040
L108.1250 14.1540
" />
<path d="M108.1250 14.1540
L108.1250 16.1040
" />
<path d="M116.6250 11.3040
L116.6250 13.1540
" />
<path d="M104.8250 13.1540
L104.2750 13.7040
" />
<path d="M104.2750 13.7040
L84.9750 13.7040
" />
<path d="M84.9750 13.7040
L84.8750 13.7040
" />
<path d="M84.8750 13.7040
L84.4250 14.1540
" />
<path d="M84.4250 14.1540
L84.4250 16.1040
" />
<path d="M104.8250 11.3040
L104.8250 13.1540
" />
<path d="M81.1250 13.1540
L80.5750 13.7040
" />
<path d="M80.5750 13.7040
L73.1750 13.7040
" />
<path d="M73.1750 13.7040
L72.6250 14.2540
" />
<path d="M72.6250 14.2540
L72.6250 16.1040
" />
<path d="M81.1250 11.3040
L81.1250 13.1540
" />
<path d="M69.3250 13.1540
L68.7750 13.7040
" />
<path d="M68.7750 13.7040
L61.3750 13.7040
" />
<path d="M61.3750 13.7040
L60.8250 14.2540
" />
<path d="M60.8250 14.2540
L60.8250 16.1040
" />
<path d="M69.3250 11.3040
L69.3250 13.1540
" />
<path d="M57.5250 13.1540
L56.9750 13.7040
" />
<path d="M56.9750 13.7040
L49.5750 13.7040
" />
<path d="M49.5750 13.7040
L49.0250 14.2540
" />
<path d="M49.0250 14.2540
L49.0250 16.1040
" />
<path d="M57.5250 11.3040
L57.5250 13.1540
" />
<path d="M45.7250 13.1540
L45.1750 13.7040
" />
<path d="M45.1750 13.7040
L37.7750 13.7040
" />
<path d="M37.7750 13.7040
L37.2250 14.2540
" />
<path d="M37.2250 14.2540
L37.2250 16.1040
" />
<path d="M45.7250 11.3040
L45.7250 13.1540
" />
<path d="M33.9250 13.1540
L33.3750 13.7040
" />
<path d="M33.3750 13.7040
L25.7750 13.7040
" />
<path d="M25.7750 13.7040
L25.3250 14.1540
" />
<path d="M25.3250 14.1540
L25.3250 16.1040
" />
<path d="M33.9250 11.3040
L33.9250 13.1540
" />
<path d="M22.0250 13.1540
L21.4750 13.7040
" />
<path d="M21.4750 13.7040
L14.0750 13.7040
" />
<path d="M14.0750 13.7040
L13.5250 14.2540
" />
<path d="M13.5250 14.2540
L13.5250 16.1040
" />
<path d="M22.0250 11.3040
L22.0250 13.1540
" />
</g>
<g >
</g>
</g>
<g style="fill:#000000; fill-opacity:0.0; 
stroke:#000000; stroke-width:0.2500; stroke-opacity:1; 
stroke-linecap:round; stroke-linejoin:round;">
</g>
<g style="fill:#FFFFFF; fill-opacity:0.0; 
stroke:#FFFFFF; stroke-width:0.2500; stroke-opacity:1; 
stroke-linecap:round; stroke-linejoin:round;">
</g>
<g style="fill:#3D3D3D; fill-opacity:0.0; 
stroke:#3D3D3D; stroke-width:0.2500; stroke-opacity:1; 
stroke-linecap:round; stroke-linejoin:round;">
</g>
<g style="fill:#3D3D3D; fill-opacity:0.0; 
stroke:#3D3D3D; stroke-width:0.2000; stroke-opacity:1; 
stroke-linecap:round; stroke-linejoin:round;">
<path d="M141.9750 13.7040
L141.9750 12.7040
" />
<path d="M0.1750 13.7040
L165.5750 13.7040
" />
<path d="M11.8950 13.7040
L11.8950 12.7040
" />
<path d="M47.3750 13.7040
L47.3750 12.7040
" />
<path d="M59.1750 13.7040
L59.1750 12.7040
" />
<path d="M82.7750 13.7040
L82.7750 12.7040
" />
<path d="M23.7250 13.7040
L23.7250 12.7040
" />
<path d="M106.4750 13.7040
L106.4750 12.7040
" />
<path d="M118.2750 13.7040
L118.2750 12.7040
" />
<path d="M35.5450 13.7040
L35.5450 12.7040
" />
<path d="M153.7750 13.7040
L153.7750 12.7040
" />
<path d="M130.1750 13.7040
L130.1750 12.7040
" />
<path d="M70.9750 13.7040
L70.9750 12.7040
" />
</g>
<g style="fill:#3D3D3D; fill-opacity:0.0; 
stroke:#3D3D3D; stroke-width:0.1000; stroke-opacity:1; 
stroke-linecap:round; stroke-linejoin:round;">
<path d="M14.3750 11.2040
L9.3750 11.2040
" />
<path d="M9.3750 11.2040
L9.3750 16.2040
" />
<path d="M14.3750 16.2040
L14.3750 11.2040
" />
<path d="M10.3750 16.2040
L9.3750 15.2040
" />
<path d="M9.3750 16.2040
L14.3750 16.2040
" />
<circle cx="11.8750" cy="13.7040" r="2.0000" /> 
<path d="M156.2750 11.2040
L151.2750 11.2040
" />
<path d="M151.2750 11.2040
L151.2750 16.2040
" />
<path d="M156.2750 16.2040
L156.2750 11.2040
" />
<path d="M152.2750 16.2040
L151.2750 15.2040
" />
<path d="M151.2750 16.2040
L156.2750 16.2040
" />
<circle cx="153.7750" cy="13.7040" r="2.0000" /> 
<path d="M144.4750 11.2040
L139.4750 11.2040
" />
<path d="M139.4750 11.2040
L139.4750 16.2040
" />
<path d="M144.4750 16.2040
L144.4750 11.2040
" />
<path d="M140.4750 16.2040
L139.4750 15.2040
" />
<path d="M139.4750 16.2040
L144.4750 16.2040
" />
<circle cx="141.9750" cy="13.7040" r="2.0000" /> 
<path d="M132.6750 11.2040
L127.6750 11.2040
" />
<path d="M127.6750 11.2040
L127.6750 16.2040
" />
<path d="M132.6750 16.2040
L132.6750 11.2040
" />
<path d="M128.6750 16.2040
L127.6750 15.2040
" />
<path d="M127.6750 16.2040
L132.6750 16.2040
" />
<circle cx="130.1750" cy="13.7040" r="2.0000" /> 
<path d="M120.7750 11.2040
L115.7750 11.2040
" />
<path d="M115.7750 11.2040
L115.7750 16.2040
" />
<path d="M120.7750 16.2040
L120.7750 11.2040
" />
<path d="M116.7750 16.2040
L115.7750 15.2040
" />
<path d="M115.7750 16.2040
L120.7750 16.2040
" />
<circle cx="118.2750" cy="13.7040" r="2.0000" /> 
<path d="M108.9750 11.2040
L103.9750 11.2040
" />
<path d="M103.9750 11.2040
L103.9750 16.2040
" />
<path d="M108.9750 16.2040
L108.9750 11.2040
" />
<path d="M104.9750 16.2040
L103.9750 15.2040
" />
<path d="M103.9750 16.2040
L108.9750 16.2040
" />
<circle cx="106.4750" cy="13.7040" r="2.0000" /> 
<path d="M85.2750 11.2040
L80.2750 11.2040
" />
<path d="M80.2750 11.2040
L80.2750 16.2040
" />
<path d="M85.2750 16.2040
L85.2750 11.2040
" />
<path d="M81.2750 16.2040
L80.2750 15.2040
" />
<path d="M80.2750 16.2040
L85.2750 16.2040
" />
<circle cx="82.7750" cy="13.7040" r="2.0000" /> 
<path d="M73.4750 11.2040
L68.4750 11.2040
" />
<path d="M68.4750 11.2040
L68.4750 16.2040
" />
<path d="M73.4750 16.2040
L73.4750 11.2040
" />
<path d="M69.4750 16.2040
L68.4750 15.2040
" />
<path d="M68.4750 16.2040
L73.4750 16.2040
" />
<circle cx="70.9750" cy="13.7040" r="2.0000" /> 
<path d="M61.6750 11.2040
L56.6750 11.2040
" />
<path d="M56.6750 11.2040
L56.6750 16.2040
" />
<path d="M61.6750 16.2040
L61.6750 11.2040
" />
<path d="M57.6750 16.2040
L56.6750 15.2040
" />
<path d="M56.6750 16.2040
L61.6750 16.2040
" />
<circle cx="59.1750" cy="13.7040" r="2.0000" /> 
<path d="M49.8750 11.2040
L44.8750 11.2040
" />
<path d="M44.8750 11.2040
L44.8750 16.2040
" />
<path d="M49.8750 16.2040
L49.8750 11.2040
" />
<path d="M45.8750 16.2040
L44.8750 15.2040
" />
<path d="M44.8750 16.2040
L49.8750 16.2040
" />
<circle cx="47.3750" cy="13.7040" r="2.0000" /> 
<path d="M38.0750 11.2040
L33.0750 11.2040
" />
<path d="M33.0750 11.2040
L33.0750 16.2040
" />
<path d="M38.0750 16.2040
L38.0750 11.2040
" />
<path d="M34.0750 16.2040
L33.0750 15.2040
" />
<path d="M33.0750 16.2040
L38.0750 16.2040
" />
<circle cx="35.5750" cy="13.7040" r="2.0000" /> 
<path d="M26.1750 11.2040
L21.1750 11.2040
" />
<path d="M21.1750 11.2040
L21.1750 16.2040
" />
<path d="M26.1750 16.2040
L26.1750 11.2040
" />
<path d="M22.1750 16.2040
L21.1750 15.2040
" />
<path d="M21.1750 16.2040
L26.1750 16.2040
" />
<circle cx="23.6750" cy="13.7040" r="2.0000" /> 
<g >
</g>
<g >
</g>
<g >
</g>
<g >
</g>
<g >
</g>
<g >
</g>
<g >
</g>
<g >
</g>
<g >
</g>
<g >
</g>
<g >
</g>
<g >
</g>
<g >
</g>
<g >
</g>
<g >
</g>
<g >
</g>
<g >
</g>
<g >
</g>
<g >
</g>
<g >
</g>
<g >
</g>
<g >
</g>
<g >
</g>
<g >
</g>
<g >
</g>
<g >
</g>
<g >
</g>
</g>
<g style="fill:#FFFFFF; fill-opacity:0.0; 
stroke:#FFFFFF; stroke-width:0.1000; stroke-opacity:1; 
stroke-linecap:round; stroke-linejoin:round;">
</g>
<g style="fill:#2F2D31; fill-opacity:0.0; 
stroke:#2F2D31; stroke-width:0.1000; stroke-opacity:1; 
stroke-linecap:round; stroke-linejoin:round;">
</g>
<g style="fill:#2F2D31; fill-opacity:0.0; 
stroke:#2F2D31; stroke-width:0.1500; stroke-opacity:1; 
stroke-linecap:round; stroke-linejoin:round;">
<path d="M110.8250 20.7040
L125.8250 20.7040
" />
<path d="M149.4750 20.7040
L149.4750 31.7040
" />
<path d="M54.8750 31.7040
L63.5250 31.7040
" />
<path d="M134.4750 20.7040
L149.4750 20.7040
" />
<path d="M63.5250 20.7040
L78.5250 20.7040
" />
<path d="M31.2250 20.7040
L31.2250 31.7040
" />
<path d="M39.8750 20.7040
L54.8750 20.7040
" />
<path d="M78.5250 20.7040
L78.5250 31.7040
" />
<path d="M0.0750 6.7040
L0.0750 31.7040
" />
<path d="M165.6250 6.7040
L0.0750 6.7040
" />
<path d="M16.2250 31.7040
L16.2250 20.7040
" />
<path d="M125.8250 20.7040
L125.8250 31.7040
" />
<path d="M110.8250 31.7040
L110.8250 20.7040
" />
<path d="M63.5250 31.7040
L63.5250 20.7040
" />
<path d="M125.8250 31.7040
L134.4750 31.7040
" />
<path d="M0.0750 31.7040
L16.2250 31.7040
" />
<path d="M134.4750 31.7040
L134.4750 20.7040
" />
<path d="M149.4750 31.7040
L165.6250 31.7040
" />
<path d="M39.8750 31.7040
L39.8750 20.7040
" />
<path d="M16.2250 20.7040
L31.2250 20.7040
" />
<path d="M165.6250 31.7040
L165.6250 6.7040
" />
<path d="M54.8750 20.7040
L54.8750 31.7040
" />
<path d="M78.5250 31.7040
L110.8250 31.7040
" />
<path d="M31.2250 31.7040
L39.8750 31.7040
" />
<g >
</g>
<g >
</g>
<g >
</g>
<g >
</g>
<g >
</g>
<g >
</g>
<g >
</g>
<g >
</g>
<g >
</g>
<g >
</g>
<g >
</g>
<g >
</g>
<g >
</g>
<g >
</g>
<g >
</g>
<g >
</g>
<g >
</g>
<g >
</g>
<g >
</g>
<g >
</g>
<g >
</g>
<g >
</g>
<g >
</g>
<g >
</g>
<g >
</g>
<g >
</g>
<g >
</g>
</g> 
</svg>
