<?xml version="1.0" standalone="no"?>
 <!DOCTYPE svg PUBLIC "-//W3C//DTD SVG 1.1//EN" 
 "http://www.w3.org/Graphics/SVG/1.1/DTD/svg11.dtd"> 
<svg
  xmlns:svg="http://www.w3.org/2000/svg"
  xmlns="http://www.w3.org/2000/svg"
  xmlns:xlink="http://www.w3.org/1999/xlink"
  version="1.1"
  width="17.0180mm" height="17.9070mm" viewBox="0.0000 0.0000 17.0180 17.9070">
<title>SVG Image created as working-brd.svg date 2023/09/25 19:31:23 </title>
  <desc>Image generated by PCBNEW </desc>
<g style="fill:#000000; fill-opacity:1.0000;stroke:#000000; stroke-opacity:1.0000;
stroke-linecap:round; stroke-linejoin:round;"
 transform="translate(0 0) scale(1 1)">
</g>
<g style="fill:#000000; fill-opacity:0.0; 
stroke:#000000; stroke-width:0.0000; stroke-opacity:1; 
stroke-linecap:round; stroke-linejoin:round;">
</g>
<g style="fill:#000000; fill-opacity:1.0000; 
stroke:#000000; stroke-width:0.0212; stroke-opacity:1; 
stroke-linecap:round; stroke-linejoin:round;">
<rect x="-5.000000" y="-5.000000" width="27.035411" height="27.926769" rx="0.000000" />
</g>
<g style="fill:#FFFFFF; fill-opacity:1.0000; 
stroke:#FFFFFF; stroke-width:0.0212; stroke-opacity:1; 
stroke-linecap:round; stroke-linejoin:round;">
<g >
</g>
<g style="fill:#B2803A; fill-opacity:1.0000; 
stroke:#B2803A; stroke-width:0.0212; stroke-opacity:1; 
stroke-linecap:round; stroke-linejoin:round;">
</g>
<g style="fill:#B2803A; fill-opacity:1.0000; 
stroke:#B2803A; stroke-width:0.0000; stroke-opacity:1; 
stroke-linecap:round; stroke-linejoin:round;">
<path style="fill:#B2803A; fill-opacity:1.0000; 
stroke:#B2803A; stroke-width:0.0000; stroke-opacity:1; 
stroke-linecap:round; stroke-linejoin:round;fill-rule:evenodd;"
d="M 3.4089,10.7161
1.8849,10.7161
1.8849,9.1921
3.4089,9.1921
Z" /> 
<circle cx="4.6469" cy="9.9542" r="0.7620" /> 
</g>
<g style="fill:#B2803A; fill-opacity:1.0000; 
stroke:#B2803A; stroke-width:0.0212; stroke-opacity:1; 
stroke-linecap:round; stroke-linejoin:round;">
</g>
<g style="fill:#B2803A; fill-opacity:1.0000; 
stroke:#B2803A; stroke-width:0.0000; stroke-opacity:1; 
stroke-linecap:round; stroke-linejoin:round;">
<circle cx="6.6469" cy="9.9542" r="0.7620" /> 
</g>
<g style="fill:#B2803A; fill-opacity:1.0000; 
stroke:#B2803A; stroke-width:0.0212; stroke-opacity:1; 
stroke-linecap:round; stroke-linejoin:round;">
</g>
<g style="fill:#B2803A; fill-opacity:1.0000; 
stroke:#B2803A; stroke-width:0.0000; stroke-opacity:1; 
stroke-linecap:round; stroke-linejoin:round;">
<circle cx="8.6469" cy="9.9542" r="0.7620" /> 
</g>
<g style="fill:#B2803A; fill-opacity:1.0000; 
stroke:#B2803A; stroke-width:0.0212; stroke-opacity:1; 
stroke-linecap:round; stroke-linejoin:round;">
</g>
<g >
</g>
<g >
</g>
<g style="fill:#B2803A; fill-opacity:1.0000; 
stroke:#B2803A; stroke-width:0.0212; stroke-opacity:1; 
stroke-linecap:round; stroke-linejoin:round;">
</g>
<g style="fill:#B2803A; fill-opacity:1.0000; 
stroke:#B2803A; stroke-width:0.0000; stroke-opacity:1; 
stroke-linecap:round; stroke-linejoin:round;">
<path style="fill:#B2803A; fill-opacity:1.0000; 
stroke:#B2803A; stroke-width:0.0000; stroke-opacity:1; 
stroke-linecap:round; stroke-linejoin:round;fill-rule:evenodd;"
d="M 0.9969,12.4041
2.6969,12.4041
2.6969,14.1041
0.9969,14.1041
Z" /> 
<circle cx="4.3869" cy="13.2541" r="0.8500" /> 
<circle cx="6.9269" cy="13.2541" r="0.8500" /> 
<circle cx="9.4669" cy="13.2541" r="0.8500" /> 
</g>
<g >
</g>
<g style="fill:#B2803A; fill-opacity:1.0000; 
stroke:#B2803A; stroke-width:0.0000; stroke-opacity:1; 
stroke-linecap:round; stroke-linejoin:round;">
<circle cx="3.6769" cy="7.2542" r="0.2500" /> 
</g>
<g style="fill:#B2803A; fill-opacity:1.0000; 
stroke:#B2803A; stroke-width:0.0212; stroke-opacity:1; 
stroke-linecap:round; stroke-linejoin:round;">
</g>
<g >
</g>
<g >
</g>
<g >
</g>
<g style="fill:#B2803A; fill-opacity:1.0000; 
stroke:#B2803A; stroke-width:0.0212; stroke-opacity:1; 
stroke-linecap:round; stroke-linejoin:round;">
<g >
</g>
<g style="fill:#B2803A; fill-opacity:1.0000; 
stroke:#B2803A; stroke-width:0.0000; stroke-opacity:1; 
stroke-linecap:round; stroke-linejoin:round;">
<path style="fill:#B2803A; fill-opacity:1.0000; 
stroke:#B2803A; stroke-width:0.0000; stroke-opacity:1; 
stroke-linecap:round; stroke-linejoin:round;fill-rule:evenodd;"
d="M 10.4869,12.1785
10.4672,12.1566
10.2338,11.9825
9.9710,11.8573
9.8238,11.8127
9.5939,11.9340
9.5939,13.1271
9.6139,13.1271
9.6139,13.3811
9.5939,13.3811
9.5939,13.4011
9.3399,13.4011
9.3399,13.3811
9.3199,13.3811
9.3199,13.1271
9.3399,13.1271
9.3399,11.9340
9.1100,11.8127
8.9628,11.8573
8.7000,11.9825
8.4666,12.1566
8.2717,12.3728
8.2021,12.4897
8.0804,12.3075
7.8735,12.1007
7.6303,11.9382
7.3600,11.8262
7.0731,11.7691
6.7806,11.7691
6.4937,11.8262
6.2235,11.9382
5.9803,12.1007
5.7734,12.3075
5.6569,12.4819
5.5404,12.3075
5.3335,12.1007
5.0903,11.9382
4.8200,11.8262
4.5331,11.7691
4.2406,11.7691
3.9537,11.8262
3.6835,11.9382
3.4403,12.1007
3.3084,12.2325
3.2864,12.1600
3.2274,12.0497
3.1481,11.9530
3.0514,11.8736
2.9411,11.8146
2.8214,11.7783
2.6969,11.7661
0.9969,11.7661
0.8724,11.7783
0.8069,11.7982
0.8069,9.1921
1.2468,9.1921
1.2468,10.7161
1.2591,10.8406
1.2954,10.9603
1.3543,11.0706
1.4337,11.1673
1.5304,11.2467
1.6407,11.3057
1.7604,11.3420
1.8849,11.3542
3.4089,11.3542
3.5334,11.3420
3.6531,11.3057
3.7634,11.2467
3.8601,11.1673
3.8912,11.1294
3.9852,11.1922
4.2394,11.2975
4.5093,11.3511
4.7845,11.3511
5.0544,11.2975
5.3086,11.1922
5.5374,11.0393
5.6469,10.9298
5.7564,11.0393
5.9852,11.1922
6.2394,11.2975
6.5093,11.3511
6.7845,11.3511
7.0544,11.2975
7.3086,11.1922
7.5374,11.0393
7.6570,10.9197
7.8609,10.9197
7.9279,11.1598
8.1769,11.2769
8.4440,11.3432
8.7189,11.3561
8.9910,11.3151
9.2499,11.2218
9.3659,11.1598
9.4328,10.9197
8.6469,10.1338
7.8609,10.9197
7.6570,10.9197
7.7320,10.8447
7.8849,10.6159
7.9410,10.4804
8.4673,9.9542
8.8265,9.9542
9.6125,10.7401
9.8525,10.6731
9.9696,10.4241
10.0359,10.1570
10.0488,9.8821
10.0078,9.6100
9.9145,9.3511
9.8525,9.2352
9.6125,9.1682
8.8265,9.9542
8.4673,9.9542
7.9410,9.4279
7.8849,9.2924
7.7320,9.0636
7.6570,8.9886
7.8609,8.9886
8.6469,9.7745
9.4328,8.9886
9.3659,8.7485
9.1168,8.6314
8.8498,8.5651
8.5749,8.5522
8.3028,8.5932
8.0439,8.6865
7.9279,8.7485
7.8609,8.9886
7.6570,8.9886
7.5374,8.8690
7.3086,8.7161
7.0544,8.6108
6.7845,8.5572
6.5093,8.5572
6.2394,8.6108
5.9852,8.7161
5.7564,8.8690
5.6469,8.9785
5.5374,8.8690
5.3086,8.7161
5.0544,8.6108
4.7845,8.5572
4.5093,8.5572
4.2394,8.6108
3.9852,8.7161
3.8912,8.7789
3.8601,8.7410
3.7634,8.6616
3.6531,8.6026
3.5334,8.5663
3.4089,8.5541
1.8849,8.5541
1.7604,8.5663
1.6407,8.6026
1.5304,8.6616
1.4337,8.7410
1.3543,8.8377
1.2954,8.9480
1.2591,9.0677
1.2468,9.1921
0.8069,9.1921
0.8069,7.1670
2.7919,7.1670
2.7919,7.3413
2.8259,7.5123
2.8926,7.6734
2.9895,7.8183
3.1127,7.9416
3.2577,8.0384
3.4187,8.1051
3.5897,8.1391
3.7641,8.1391
3.9350,8.1051
4.0961,8.0384
4.2410,7.9416
4.3643,7.8183
4.4612,7.6734
4.5279,7.5123
4.5619,7.3413
4.5619,7.1670
4.5279,6.9960
4.4612,6.8349
4.3643,6.6900
4.2410,6.5667
4.0961,6.4699
3.9350,6.4032
3.7641,6.3691
3.5897,6.3691
3.4187,6.4032
3.2577,6.4699
3.1127,6.5667
2.9895,6.6900
2.8926,6.8349
2.8259,6.9960
2.7919,7.1670
0.8069,7.1670
0.8069,2.6141
10.4869,2.6141
Z" /> 
</g>
</g>
</g>
<g style="fill:#000000; fill-opacity:1.0000; 
stroke:#000000; stroke-width:0.0000; stroke-opacity:1; 
stroke-linecap:round; stroke-linejoin:round;">
<circle cx="2.6469" cy="9.9542" r="0.3810" /> 
</g>
<g style="fill:#000000; fill-opacity:1.0000; 
stroke:#000000; stroke-width:0.0212; stroke-opacity:1; 
stroke-linecap:round; stroke-linejoin:round;">
</g>
<g style="fill:#000000; fill-opacity:1.0000; 
stroke:#000000; stroke-width:0.0000; stroke-opacity:1; 
stroke-linecap:round; stroke-linejoin:round;">
<circle cx="4.6469" cy="9.9542" r="0.3810" /> 
</g>
<g style="fill:#000000; fill-opacity:1.0000; 
stroke:#000000; stroke-width:0.0212; stroke-opacity:1; 
stroke-linecap:round; stroke-linejoin:round;">
</g>
<g style="fill:#000000; fill-opacity:1.0000; 
stroke:#000000; stroke-width:0.0000; stroke-opacity:1; 
stroke-linecap:round; stroke-linejoin:round;">
<circle cx="6.6469" cy="9.9542" r="0.3810" /> 
</g>
<g style="fill:#000000; fill-opacity:1.0000; 
stroke:#000000; stroke-width:0.0212; stroke-opacity:1; 
stroke-linecap:round; stroke-linejoin:round;">
</g>
<g style="fill:#000000; fill-opacity:1.0000; 
stroke:#000000; stroke-width:0.0000; stroke-opacity:1; 
stroke-linecap:round; stroke-linejoin:round;">
<circle cx="8.6469" cy="9.9542" r="0.3810" /> 
</g>
<g style="fill:#000000; fill-opacity:1.0000; 
stroke:#000000; stroke-width:0.0212; stroke-opacity:1; 
stroke-linecap:round; stroke-linejoin:round;">
</g>
<g style="fill:#000000; fill-opacity:1.0000; 
stroke:#000000; stroke-width:0.0000; stroke-opacity:1; 
stroke-linecap:round; stroke-linejoin:round;">
<circle cx="1.8469" cy="13.2541" r="0.5000" /> 
</g>
<g style="fill:#000000; fill-opacity:1.0000; 
stroke:#000000; stroke-width:0.0212; stroke-opacity:1; 
stroke-linecap:round; stroke-linejoin:round;">
</g>
<g style="fill:#000000; fill-opacity:1.0000; 
stroke:#000000; stroke-width:0.0000; stroke-opacity:1; 
stroke-linecap:round; stroke-linejoin:round;">
<circle cx="4.3869" cy="13.2541" r="0.5000" /> 
</g>
<g style="fill:#000000; fill-opacity:1.0000; 
stroke:#000000; stroke-width:0.0212; stroke-opacity:1; 
stroke-linecap:round; stroke-linejoin:round;">
</g>
<g style="fill:#000000; fill-opacity:1.0000; 
stroke:#000000; stroke-width:0.0000; stroke-opacity:1; 
stroke-linecap:round; stroke-linejoin:round;">
<circle cx="6.9269" cy="13.2541" r="0.5000" /> 
</g>
<g style="fill:#000000; fill-opacity:1.0000; 
stroke:#000000; stroke-width:0.0212; stroke-opacity:1; 
stroke-linecap:round; stroke-linejoin:round;">
</g>
<g style="fill:#000000; fill-opacity:1.0000; 
stroke:#000000; stroke-width:0.0000; stroke-opacity:1; 
stroke-linecap:round; stroke-linejoin:round;">
<circle cx="9.4669" cy="13.2541" r="0.5000" /> 
</g>
<g style="fill:#000000; fill-opacity:1.0000; 
stroke:#000000; stroke-width:0.0212; stroke-opacity:1; 
stroke-linecap:round; stroke-linejoin:round;">
</g>
<g style="fill:#FFFFFF; fill-opacity:1.0000; 
stroke:#FFFFFF; stroke-width:0.0212; stroke-opacity:1; 
stroke-linecap:round; stroke-linejoin:round;">
<g >
</g>
<g style="fill:#37CBCB; fill-opacity:1.0000; 
stroke:#37CBCB; stroke-width:0.0212; stroke-opacity:1; 
stroke-linecap:round; stroke-linejoin:round;">
</g>
<g style="fill:#37CBCB; fill-opacity:1.0000; 
stroke:#37CBCB; stroke-width:0.0000; stroke-opacity:1; 
stroke-linecap:round; stroke-linejoin:round;">
<path style="fill:#37CBCB; fill-opacity:1.0000; 
stroke:#37CBCB; stroke-width:0.0000; stroke-opacity:1; 
stroke-linecap:round; stroke-linejoin:round;fill-rule:evenodd;"
d="M 3.4089,10.7161
1.8849,10.7161
1.8849,9.1921
3.4089,9.1921
Z" /> 
<circle cx="4.6469" cy="9.9542" r="0.7620" /> 
</g>
<g style="fill:#37CBCB; fill-opacity:1.0000; 
stroke:#37CBCB; stroke-width:0.0212; stroke-opacity:1; 
stroke-linecap:round; stroke-linejoin:round;">
</g>
<g style="fill:#37CBCB; fill-opacity:1.0000; 
stroke:#37CBCB; stroke-width:0.0000; stroke-opacity:1; 
stroke-linecap:round; stroke-linejoin:round;">
<circle cx="6.6469" cy="9.9542" r="0.7620" /> 
</g>
<g style="fill:#37CBCB; fill-opacity:1.0000; 
stroke:#37CBCB; stroke-width:0.0212; stroke-opacity:1; 
stroke-linecap:round; stroke-linejoin:round;">
</g>
<g style="fill:#37CBCB; fill-opacity:1.0000; 
stroke:#37CBCB; stroke-width:0.0000; stroke-opacity:1; 
stroke-linecap:round; stroke-linejoin:round;">
<circle cx="8.6469" cy="9.9542" r="0.7620" /> 
</g>
<g style="fill:#37CBCB; fill-opacity:1.0000; 
stroke:#37CBCB; stroke-width:0.0212; stroke-opacity:1; 
stroke-linecap:round; stroke-linejoin:round;">
</g>
<g >
</g>
<g style="fill:#37CBCB; fill-opacity:1.0000; 
stroke:#37CBCB; stroke-width:0.0212; stroke-opacity:1; 
stroke-linecap:round; stroke-linejoin:round;">
</g>
<g style="fill:#37CBCB; fill-opacity:1.0000; 
stroke:#37CBCB; stroke-width:0.0000; stroke-opacity:1; 
stroke-linecap:round; stroke-linejoin:round;">
<circle cx="3.6719" cy="7.2542" r="0.2500" /> 
</g>
<g style="fill:#37CBCB; fill-opacity:1.0000; 
stroke:#37CBCB; stroke-width:0.0212; stroke-opacity:1; 
stroke-linecap:round; stroke-linejoin:round;">
</g>
<g >
</g>
<g style="fill:#37CBCB; fill-opacity:1.0000; 
stroke:#37CBCB; stroke-width:0.0212; stroke-opacity:1; 
stroke-linecap:round; stroke-linejoin:round;">
</g>
<g style="fill:#37CBCB; fill-opacity:1.0000; 
stroke:#37CBCB; stroke-width:0.0000; stroke-opacity:1; 
stroke-linecap:round; stroke-linejoin:round;">
<path style="fill:#37CBCB; fill-opacity:1.0000; 
stroke:#37CBCB; stroke-width:0.0000; stroke-opacity:1; 
stroke-linecap:round; stroke-linejoin:round;fill-rule:evenodd;"
d="M 0.9969,12.4041
2.6969,12.4041
2.6969,14.1041
0.9969,14.1041
Z" /> 
<circle cx="4.3869" cy="13.2541" r="0.8500" /> 
<circle cx="6.9269" cy="13.2541" r="0.8500" /> 
<circle cx="9.4669" cy="13.2541" r="0.8500" /> 
</g>
<g >
</g>
<g >
</g>
<g >
</g>
<g style="fill:#37CBCB; fill-opacity:1.0000; 
stroke:#37CBCB; stroke-width:0.0000; stroke-opacity:1; 
stroke-linecap:round; stroke-linejoin:round;">
</g>
<g style="fill:#37CBCB; fill-opacity:1.0000; 
stroke:#37CBCB; stroke-width:0.2500; stroke-opacity:1; 
stroke-linecap:round; stroke-linejoin:round;">
</g>
<g style="fill:#37CBCB; fill-opacity:0.0; 
stroke:#37CBCB; stroke-width:0.2500; stroke-opacity:1; 
stroke-linecap:round; stroke-linejoin:round;">
<path d="M6.9269 13.2541
L6.9269 10.2341
" />
<path d="M6.9269 10.2341
L6.6469 9.9542
" />
<path d="M4.3869 10.2142
L4.6469 9.9542
" />
<path d="M4.3869 13.2541
L4.3869 10.2142
" />
<path d="M1.8469 10.7541
L2.6469 9.9542
" />
<path d="M1.8469 13.2541
L1.8469 10.7541
" />
<path d="M9.4669 10.7741
L8.6469 9.9542
" />
<path d="M9.4669 13.2541
L9.4669 10.7741
" />
</g>
<g >
</g>
<g style="fill:#37CBCB; fill-opacity:0.0; 
stroke:#37CBCB; stroke-width:0.2500; stroke-opacity:1; 
stroke-linecap:round; stroke-linejoin:round;">
<g >
</g>
<g style="fill:#37CBCB; fill-opacity:1.0000; 
stroke:#37CBCB; stroke-width:0.0000; stroke-opacity:1; 
stroke-linecap:round; stroke-linejoin:round;">
<path style="fill:#37CBCB; fill-opacity:1.0000; 
stroke:#37CBCB; stroke-width:0.0000; stroke-opacity:1; 
stroke-linecap:round; stroke-linejoin:round;fill-rule:evenodd;"
d="M 10.4869,12.1785
10.4672,12.1566
10.2338,11.9825
9.9710,11.8573
9.8238,11.8127
9.5939,11.9340
9.5939,13.1271
9.6139,13.1271
9.6139,13.3811
9.5939,13.3811
9.5939,13.4011
9.3399,13.4011
9.3399,13.3811
9.3199,13.3811
9.3199,13.1271
9.3399,13.1271
9.3399,11.9340
9.1100,11.8127
8.9628,11.8573
8.7000,11.9825
8.4666,12.1566
8.2717,12.3728
8.2021,12.4897
8.0804,12.3075
7.8735,12.1007
7.6869,11.9760
7.6869,10.9785
7.7445,11.0361
7.8609,10.9197
7.9279,11.1598
8.1769,11.2769
8.4440,11.3432
8.7189,11.3561
8.9910,11.3151
9.2499,11.2218
9.3659,11.1598
9.4328,10.9197
8.6469,10.1338
8.6327,10.1479
8.4531,9.9683
8.4673,9.9542
8.8265,9.9542
9.6125,10.7401
9.8525,10.6731
9.9696,10.4241
10.0359,10.1570
10.0488,9.8821
10.0078,9.6100
9.9145,9.3511
9.8525,9.2352
9.6125,9.1682
8.8265,9.9542
8.4673,9.9542
7.9410,9.4279
7.8849,9.2924
7.7320,9.0636
7.6570,8.9886
7.8609,8.9886
8.6469,9.7745
9.4328,8.9886
9.3659,8.7485
9.1168,8.6314
8.8498,8.5651
8.5749,8.5522
8.3028,8.5932
8.0439,8.6865
7.9279,8.7485
7.8609,8.9886
7.6570,8.9886
7.5374,8.8690
7.3086,8.7161
7.0544,8.6108
6.7845,8.5572
6.5093,8.5572
6.2394,8.6108
5.9852,8.7161
5.7564,8.8690
5.6469,8.9785
5.5374,8.8690
5.3086,8.7161
5.0544,8.6108
4.7845,8.5572
4.5093,8.5572
4.2394,8.6108
3.9852,8.7161
3.8912,8.7789
3.8601,8.7410
3.7634,8.6616
3.6531,8.6026
3.5334,8.5663
3.4089,8.5541
1.8849,8.5541
1.7604,8.5663
1.6407,8.6026
1.5304,8.6616
1.4337,8.7410
1.3543,8.8377
1.2954,8.9480
1.2591,9.0677
1.2468,9.1921
1.2468,10.2873
1.2119,10.3299
1.1413,10.4619
1.0979,10.6052
1.0832,10.7541
1.0869,10.7915
1.0869,11.7661
0.9969,11.7661
0.8724,11.7783
0.8069,11.7982
0.8069,7.1670
2.7869,7.1670
2.7869,7.3413
2.8209,7.5123
2.8876,7.6734
2.9845,7.8183
3.1077,7.9416
3.2527,8.0384
3.4137,8.1051
3.5847,8.1391
3.7591,8.1391
3.9300,8.1051
4.0911,8.0384
4.2360,7.9416
4.3593,7.8183
4.4562,7.6734
4.5229,7.5123
4.5569,7.3413
4.5569,7.1670
4.5229,6.9960
4.4562,6.8349
4.3593,6.6900
4.2360,6.5667
4.0911,6.4699
3.9300,6.4032
3.7591,6.3691
3.5847,6.3691
3.4137,6.4032
3.2527,6.4699
3.1077,6.5667
2.9845,6.6900
2.8876,6.8349
2.8209,6.9960
2.7869,7.1670
0.8069,7.1670
0.8069,2.6141
10.4869,2.6141
Z" /> 
</g>
</g>
</g>
<g style="fill:#000000; fill-opacity:1.0000; 
stroke:#000000; stroke-width:0.0000; stroke-opacity:1; 
stroke-linecap:round; stroke-linejoin:round;">
<circle cx="2.6469" cy="9.9542" r="0.3810" /> 
</g>
<g style="fill:#000000; fill-opacity:1.0000; 
stroke:#000000; stroke-width:0.0212; stroke-opacity:1; 
stroke-linecap:round; stroke-linejoin:round;">
</g>
<g style="fill:#000000; fill-opacity:1.0000; 
stroke:#000000; stroke-width:0.0000; stroke-opacity:1; 
stroke-linecap:round; stroke-linejoin:round;">
<circle cx="4.6469" cy="9.9542" r="0.3810" /> 
</g>
<g style="fill:#000000; fill-opacity:1.0000; 
stroke:#000000; stroke-width:0.0212; stroke-opacity:1; 
stroke-linecap:round; stroke-linejoin:round;">
</g>
<g style="fill:#000000; fill-opacity:1.0000; 
stroke:#000000; stroke-width:0.0000; stroke-opacity:1; 
stroke-linecap:round; stroke-linejoin:round;">
<circle cx="6.6469" cy="9.9542" r="0.3810" /> 
</g>
<g style="fill:#000000; fill-opacity:1.0000; 
stroke:#000000; stroke-width:0.0212; stroke-opacity:1; 
stroke-linecap:round; stroke-linejoin:round;">
</g>
<g style="fill:#000000; fill-opacity:1.0000; 
stroke:#000000; stroke-width:0.0000; stroke-opacity:1; 
stroke-linecap:round; stroke-linejoin:round;">
<circle cx="8.6469" cy="9.9542" r="0.3810" /> 
</g>
<g style="fill:#000000; fill-opacity:1.0000; 
stroke:#000000; stroke-width:0.0212; stroke-opacity:1; 
stroke-linecap:round; stroke-linejoin:round;">
</g>
<g style="fill:#000000; fill-opacity:1.0000; 
stroke:#000000; stroke-width:0.0000; stroke-opacity:1; 
stroke-linecap:round; stroke-linejoin:round;">
<circle cx="1.8469" cy="13.2541" r="0.5000" /> 
</g>
<g style="fill:#000000; fill-opacity:1.0000; 
stroke:#000000; stroke-width:0.0212; stroke-opacity:1; 
stroke-linecap:round; stroke-linejoin:round;">
</g>
<g style="fill:#000000; fill-opacity:1.0000; 
stroke:#000000; stroke-width:0.0000; stroke-opacity:1; 
stroke-linecap:round; stroke-linejoin:round;">
<circle cx="4.3869" cy="13.2541" r="0.5000" /> 
</g>
<g style="fill:#000000; fill-opacity:1.0000; 
stroke:#000000; stroke-width:0.0212; stroke-opacity:1; 
stroke-linecap:round; stroke-linejoin:round;">
</g>
<g style="fill:#000000; fill-opacity:1.0000; 
stroke:#000000; stroke-width:0.0000; stroke-opacity:1; 
stroke-linecap:round; stroke-linejoin:round;">
<circle cx="6.9269" cy="13.2541" r="0.5000" /> 
</g>
<g style="fill:#000000; fill-opacity:1.0000; 
stroke:#000000; stroke-width:0.0212; stroke-opacity:1; 
stroke-linecap:round; stroke-linejoin:round;">
</g>
<g style="fill:#000000; fill-opacity:1.0000; 
stroke:#000000; stroke-width:0.0000; stroke-opacity:1; 
stroke-linecap:round; stroke-linejoin:round;">
<circle cx="9.4669" cy="13.2541" r="0.5000" /> 
</g>
<g style="fill:#000000; fill-opacity:1.0000; 
stroke:#000000; stroke-width:0.0212; stroke-opacity:1; 
stroke-linecap:round; stroke-linejoin:round;">
</g>
<g style="fill:#FFFFFF; fill-opacity:1.0000; 
stroke:#FFFFFF; stroke-width:0.0212; stroke-opacity:1; 
stroke-linecap:round; stroke-linejoin:round;">
</g>
<g style="fill:#3D3D3D; fill-opacity:1.0000; 
stroke:#3D3D3D; stroke-width:0.0212; stroke-opacity:1; 
stroke-linecap:round; stroke-linejoin:round;">
</g>
<g style="fill:#3D3D3D; fill-opacity:1.0000; 
stroke:#3D3D3D; stroke-width:0.1500; stroke-opacity:1; 
stroke-linecap:round; stroke-linejoin:round;">
</g>
<g style="fill:#3D3D3D; fill-opacity:0.0; 
stroke:#3D3D3D; stroke-width:0.1500; stroke-opacity:1; 
stroke-linecap:round; stroke-linejoin:round;">
<text x="5.6469" y="15.5161"
textLength="9.8690" font-size="1.3333" lengthAdjust="spacingAndGlyphs"
text-anchor="middle" opacity="0">11.0000 mm</text>
<g class="stroked-text"><desc>11.0000 mm</desc>
<path d="M1.5993 15.4710
L1.0278 15.4710
" />
<path d="M1.3136 15.4710
L1.3136 14.4710
" />
<path d="M1.3136 14.4710
L1.2183 14.6138
" />
<path d="M1.2183 14.6138
L1.1231 14.7091
" />
<path d="M1.1231 14.7091
L1.0278 14.7567
" />
<path d="M2.5516 15.4710
L1.9802 15.4710
" />
<path d="M2.2659 15.4710
L2.2659 14.4710
" />
<path d="M2.2659 14.4710
L2.1707 14.6138
" />
<path d="M2.1707 14.6138
L2.0755 14.7091
" />
<path d="M2.0755 14.7091
L1.9802 14.7567
" />
<path d="M2.9802 15.3757
L3.0278 15.4233
" />
<path d="M3.0278 15.4233
L2.9802 15.4710
" />
<path d="M2.9802 15.4710
L2.9326 15.4233
" />
<path d="M2.9326 15.4233
L2.9802 15.3757
" />
<path d="M2.9802 15.3757
L2.9802 15.4710
" />
<path d="M3.6469 14.4710
L3.7421 14.4710
" />
<path d="M3.7421 14.4710
L3.8374 14.5186
" />
<path d="M3.8374 14.5186
L3.8850 14.5662
" />
<path d="M3.8850 14.5662
L3.9326 14.6614
" />
<path d="M3.9326 14.6614
L3.9802 14.8519
" />
<path d="M3.9802 14.8519
L3.9802 15.0900
" />
<path d="M3.9802 15.0900
L3.9326 15.2805
" />
<path d="M3.9326 15.2805
L3.8850 15.3757
" />
<path d="M3.8850 15.3757
L3.8374 15.4233
" />
<path d="M3.8374 15.4233
L3.7421 15.4710
" />
<path d="M3.7421 15.4710
L3.6469 15.4710
" />
<path d="M3.6469 15.4710
L3.5516 15.4233
" />
<path d="M3.5516 15.4233
L3.5040 15.3757
" />
<path d="M3.5040 15.3757
L3.4564 15.2805
" />
<path d="M3.4564 15.2805
L3.4088 15.0900
" />
<path d="M3.4088 15.0900
L3.4088 14.8519
" />
<path d="M3.4088 14.8519
L3.4564 14.6614
" />
<path d="M3.4564 14.6614
L3.5040 14.5662
" />
<path d="M3.5040 14.5662
L3.5516 14.5186
" />
<path d="M3.5516 14.5186
L3.6469 14.4710
" />
<path d="M4.5993 14.4710
L4.6945 14.4710
" />
<path d="M4.6945 14.4710
L4.7897 14.5186
" />
<path d="M4.7897 14.5186
L4.8374 14.5662
" />
<path d="M4.8374 14.5662
L4.8850 14.6614
" />
<path d="M4.8850 14.6614
L4.9326 14.8519
" />
<path d="M4.9326 14.8519
L4.9326 15.0900
" />
<path d="M4.9326 15.0900
L4.8850 15.2805
" />
<path d="M4.8850 15.2805
L4.8374 15.3757
" />
<path d="M4.8374 15.3757
L4.7897 15.4233
" />
<path d="M4.7897 15.4233
L4.6945 15.4710
" />
<path d="M4.6945 15.4710
L4.5993 15.4710
" />
<path d="M4.5993 15.4710
L4.5040 15.4233
" />
<path d="M4.5040 15.4233
L4.4564 15.3757
" />
<path d="M4.4564 15.3757
L4.4088 15.2805
" />
<path d="M4.4088 15.2805
L4.3612 15.0900
" />
<path d="M4.3612 15.0900
L4.3612 14.8519
" />
<path d="M4.3612 14.8519
L4.4088 14.6614
" />
<path d="M4.4088 14.6614
L4.4564 14.5662
" />
<path d="M4.4564 14.5662
L4.5040 14.5186
" />
<path d="M4.5040 14.5186
L4.5993 14.4710
" />
<path d="M5.5516 14.4710
L5.6469 14.4710
" />
<path d="M5.6469 14.4710
L5.7421 14.5186
" />
<path d="M5.7421 14.5186
L5.7897 14.5662
" />
<path d="M5.7897 14.5662
L5.8374 14.6614
" />
<path d="M5.8374 14.6614
L5.8850 14.8519
" />
<path d="M5.8850 14.8519
L5.8850 15.0900
" />
<path d="M5.8850 15.0900
L5.8374 15.2805
" />
<path d="M5.8374 15.2805
L5.7897 15.3757
" />
<path d="M5.7897 15.3757
L5.7421 15.4233
" />
<path d="M5.7421 15.4233
L5.6469 15.4710
" />
<path d="M5.6469 15.4710
L5.5516 15.4710
" />
<path d="M5.5516 15.4710
L5.4564 15.4233
" />
<path d="M5.4564 15.4233
L5.4088 15.3757
" />
<path d="M5.4088 15.3757
L5.3612 15.2805
" />
<path d="M5.3612 15.2805
L5.3136 15.0900
" />
<path d="M5.3136 15.0900
L5.3136 14.8519
" />
<path d="M5.3136 14.8519
L5.3612 14.6614
" />
<path d="M5.3612 14.6614
L5.4088 14.5662
" />
<path d="M5.4088 14.5662
L5.4564 14.5186
" />
<path d="M5.4564 14.5186
L5.5516 14.4710
" />
<path d="M6.5040 14.4710
L6.5993 14.4710
" />
<path d="M6.5993 14.4710
L6.6945 14.5186
" />
<path d="M6.6945 14.5186
L6.7421 14.5662
" />
<path d="M6.7421 14.5662
L6.7897 14.6614
" />
<path d="M6.7897 14.6614
L6.8374 14.8519
" />
<path d="M6.8374 14.8519
L6.8374 15.0900
" />
<path d="M6.8374 15.0900
L6.7897 15.2805
" />
<path d="M6.7897 15.2805
L6.7421 15.3757
" />
<path d="M6.7421 15.3757
L6.6945 15.4233
" />
<path d="M6.6945 15.4233
L6.5993 15.4710
" />
<path d="M6.5993 15.4710
L6.5040 15.4710
" />
<path d="M6.5040 15.4710
L6.4088 15.4233
" />
<path d="M6.4088 15.4233
L6.3612 15.3757
" />
<path d="M6.3612 15.3757
L6.3136 15.2805
" />
<path d="M6.3136 15.2805
L6.2659 15.0900
" />
<path d="M6.2659 15.0900
L6.2659 14.8519
" />
<path d="M6.2659 14.8519
L6.3136 14.6614
" />
<path d="M6.3136 14.6614
L6.3612 14.5662
" />
<path d="M6.3612 14.5662
L6.4088 14.5186
" />
<path d="M6.4088 14.5186
L6.5040 14.4710
" />
<path d="M8.0278 15.4710
L8.0278 14.8043
" />
<path d="M8.0278 14.8995
L8.0755 14.8519
" />
<path d="M8.0755 14.8519
L8.1707 14.8043
" />
<path d="M8.1707 14.8043
L8.3136 14.8043
" />
<path d="M8.3136 14.8043
L8.4088 14.8519
" />
<path d="M8.4088 14.8519
L8.4564 14.9472
" />
<path d="M8.4564 14.9472
L8.4564 15.4710
" />
<path d="M8.4564 14.9472
L8.5040 14.8519
" />
<path d="M8.5040 14.8519
L8.5993 14.8043
" />
<path d="M8.5993 14.8043
L8.7421 14.8043
" />
<path d="M8.7421 14.8043
L8.8374 14.8519
" />
<path d="M8.8374 14.8519
L8.8850 14.9472
" />
<path d="M8.8850 14.9472
L8.8850 15.4710
" />
<path d="M9.3612 15.4710
L9.3612 14.8043
" />
<path d="M9.3612 14.8995
L9.4088 14.8519
" />
<path d="M9.4088 14.8519
L9.5040 14.8043
" />
<path d="M9.5040 14.8043
L9.6469 14.8043
" />
<path d="M9.6469 14.8043
L9.7421 14.8519
" />
<path d="M9.7421 14.8519
L9.7897 14.9472
" />
<path d="M9.7897 14.9472
L9.7897 15.4710
" />
<path d="M9.7897 14.9472
L9.8374 14.8519
" />
<path d="M9.8374 14.8519
L9.9326 14.8043
" />
<path d="M9.9326 14.8043
L10.0755 14.8043
" />
<path d="M10.0755 14.8043
L10.1707 14.8519
" />
<path d="M10.1707 14.8519
L10.2183 14.9472
" />
<path d="M10.2183 14.9472
L10.2183 15.4710
" />
</g><path d="M11.1469 14.5541
L11.1469 16.7526
" />
<path d="M0.1469 14.5541
L0.1469 16.7526
" />
<path d="M11.1469 16.1661
L0.1469 16.1661
" />
<path d="M11.1469 16.1661
L0.1469 16.1661
" />
<path d="M11.1469 16.1661
L10.0204 16.7526
" />
<path d="M11.1469 16.1661
L10.0204 15.5797
" />
<path d="M0.1469 16.1661
L1.2734 15.5797
" />
<path d="M0.1469 16.1661
L1.2734 16.7526
" />
<g transform="rotate(-90.000000 12.1009 8.2541)">
<text x="12.1009" y="8.7541"
textLength="9.8690" font-size="1.3333" lengthAdjust="spacingAndGlyphs"
text-anchor="middle" opacity="0">12.6000 mm</text>
</g>
<g class="stroked-text"><desc>12.6000 mm</desc>
<path d="M12.5557 12.3018
L12.5557 12.8732
" />
<path d="M12.5557 12.5875
L11.5557 12.5875
" />
<path d="M11.5557 12.5875
L11.6986 12.6827
" />
<path d="M11.6986 12.6827
L11.7938 12.7780
" />
<path d="M11.7938 12.7780
L11.8414 12.8732
" />
<path d="M11.6509 11.9208
L11.6033 11.8732
" />
<path d="M11.6033 11.8732
L11.5557 11.7780
" />
<path d="M11.5557 11.7780
L11.5557 11.5399
" />
<path d="M11.5557 11.5399
L11.6033 11.4446
" />
<path d="M11.6033 11.4446
L11.6509 11.3970
" />
<path d="M11.6509 11.3970
L11.7462 11.3494
" />
<path d="M11.7462 11.3494
L11.8414 11.3494
" />
<path d="M11.8414 11.3494
L11.9843 11.3970
" />
<path d="M11.9843 11.3970
L12.5557 11.9684
" />
<path d="M12.5557 11.9684
L12.5557 11.3494
" />
<path d="M12.4605 10.9208
L12.5081 10.8732
" />
<path d="M12.5081 10.8732
L12.5557 10.9208
" />
<path d="M12.5557 10.9208
L12.5081 10.9684
" />
<path d="M12.5081 10.9684
L12.4605 10.9208
" />
<path d="M12.4605 10.9208
L12.5557 10.9208
" />
<path d="M11.5557 10.0161
L11.5557 10.2065
" />
<path d="M11.5557 10.2065
L11.6033 10.3018
" />
<path d="M11.6033 10.3018
L11.6509 10.3494
" />
<path d="M11.6509 10.3494
L11.7938 10.4446
" />
<path d="M11.7938 10.4446
L11.9843 10.4922
" />
<path d="M11.9843 10.4922
L12.3652 10.4922
" />
<path d="M12.3652 10.4922
L12.4605 10.4446
" />
<path d="M12.4605 10.4446
L12.5081 10.3970
" />
<path d="M12.5081 10.3970
L12.5557 10.3018
" />
<path d="M12.5557 10.3018
L12.5557 10.1113
" />
<path d="M12.5557 10.1113
L12.5081 10.0161
" />
<path d="M12.5081 10.0161
L12.4605 9.9684
" />
<path d="M12.4605 9.9684
L12.3652 9.9208
" />
<path d="M12.3652 9.9208
L12.1271 9.9208
" />
<path d="M12.1271 9.9208
L12.0319 9.9684
" />
<path d="M12.0319 9.9684
L11.9843 10.0161
" />
<path d="M11.9843 10.0161
L11.9367 10.1113
" />
<path d="M11.9367 10.1113
L11.9367 10.3018
" />
<path d="M11.9367 10.3018
L11.9843 10.3970
" />
<path d="M11.9843 10.3970
L12.0319 10.4446
" />
<path d="M12.0319 10.4446
L12.1271 10.4922
" />
<path d="M11.5557 9.3018
L11.5557 9.2065
" />
<path d="M11.5557 9.2065
L11.6033 9.1113
" />
<path d="M11.6033 9.1113
L11.6509 9.0637
" />
<path d="M11.6509 9.0637
L11.7462 9.0161
" />
<path d="M11.7462 9.0161
L11.9367 8.9684
" />
<path d="M11.9367 8.9684
L12.1748 8.9684
" />
<path d="M12.1748 8.9684
L12.3652 9.0161
" />
<path d="M12.3652 9.0161
L12.4605 9.0637
" />
<path d="M12.4605 9.0637
L12.5081 9.1113
" />
<path d="M12.5081 9.1113
L12.5557 9.2065
" />
<path d="M12.5557 9.2065
L12.5557 9.3018
" />
<path d="M12.5557 9.3018
L12.5081 9.3970
" />
<path d="M12.5081 9.3970
L12.4605 9.4446
" />
<path d="M12.4605 9.4446
L12.3652 9.4922
" />
<path d="M12.3652 9.4922
L12.1748 9.5399
" />
<path d="M12.1748 9.5399
L11.9367 9.5399
" />
<path d="M11.9367 9.5399
L11.7462 9.4922
" />
<path d="M11.7462 9.4922
L11.6509 9.4446
" />
<path d="M11.6509 9.4446
L11.6033 9.3970
" />
<path d="M11.6033 9.3970
L11.5557 9.3018
" />
<path d="M11.5557 8.3494
L11.5557 8.2541
" />
<path d="M11.5557 8.2541
L11.6033 8.1589
" />
<path d="M11.6033 8.1589
L11.6509 8.1113
" />
<path d="M11.6509 8.1113
L11.7462 8.0637
" />
<path d="M11.7462 8.0637
L11.9367 8.0161
" />
<path d="M11.9367 8.0161
L12.1748 8.0161
" />
<path d="M12.1748 8.0161
L12.3652 8.0637
" />
<path d="M12.3652 8.0637
L12.4605 8.1113
" />
<path d="M12.4605 8.1113
L12.5081 8.1589
" />
<path d="M12.5081 8.1589
L12.5557 8.2541
" />
<path d="M12.5557 8.2541
L12.5557 8.3494
" />
<path d="M12.5557 8.3494
L12.5081 8.4446
" />
<path d="M12.5081 8.4446
L12.4605 8.4922
" />
<path d="M12.4605 8.4922
L12.3652 8.5399
" />
<path d="M12.3652 8.5399
L12.1748 8.5875
" />
<path d="M12.1748 8.5875
L11.9367 8.5875
" />
<path d="M11.9367 8.5875
L11.7462 8.5399
" />
<path d="M11.7462 8.5399
L11.6509 8.4922
" />
<path d="M11.6509 8.4922
L11.6033 8.4446
" />
<path d="M11.6033 8.4446
L11.5557 8.3494
" />
<path d="M11.5557 7.3970
L11.5557 7.3018
" />
<path d="M11.5557 7.3018
L11.6033 7.2065
" />
<path d="M11.6033 7.2065
L11.6509 7.1589
" />
<path d="M11.6509 7.1589
L11.7462 7.1113
" />
<path d="M11.7462 7.1113
L11.9367 7.0637
" />
<path d="M11.9367 7.0637
L12.1748 7.0637
" />
<path d="M12.1748 7.0637
L12.3652 7.1113
" />
<path d="M12.3652 7.1113
L12.4605 7.1589
" />
<path d="M12.4605 7.1589
L12.5081 7.2065
" />
<path d="M12.5081 7.2065
L12.5557 7.3018
" />
<path d="M12.5557 7.3018
L12.5557 7.3970
" />
<path d="M12.5557 7.3970
L12.5081 7.4922
" />
<path d="M12.5081 7.4922
L12.4605 7.5399
" />
<path d="M12.4605 7.5399
L12.3652 7.5875
" />
<path d="M12.3652 7.5875
L12.1748 7.6351
" />
<path d="M12.1748 7.6351
L11.9367 7.6351
" />
<path d="M11.9367 7.6351
L11.7462 7.5875
" />
<path d="M11.7462 7.5875
L11.6509 7.5399
" />
<path d="M11.6509 7.5399
L11.6033 7.4922
" />
<path d="M11.6033 7.4922
L11.5557 7.3970
" />
<path d="M12.5557 5.8732
L11.8890 5.8732
" />
<path d="M11.9843 5.8732
L11.9367 5.8256
" />
<path d="M11.9367 5.8256
L11.8890 5.7303
" />
<path d="M11.8890 5.7303
L11.8890 5.5875
" />
<path d="M11.8890 5.5875
L11.9367 5.4922
" />
<path d="M11.9367 5.4922
L12.0319 5.4446
" />
<path d="M12.0319 5.4446
L12.5557 5.4446
" />
<path d="M12.0319 5.4446
L11.9367 5.3970
" />
<path d="M11.9367 5.3970
L11.8890 5.3018
" />
<path d="M11.8890 5.3018
L11.8890 5.1589
" />
<path d="M11.8890 5.1589
L11.9367 5.0637
" />
<path d="M11.9367 5.0637
L12.0319 5.0161
" />
<path d="M12.0319 5.0161
L12.5557 5.0161
" />
<path d="M12.5557 4.5399
L11.8890 4.5399
" />
<path d="M11.9843 4.5399
L11.9367 4.4922
" />
<path d="M11.9367 4.4922
L11.8890 4.3970
" />
<path d="M11.8890 4.3970
L11.8890 4.2541
" />
<path d="M11.8890 4.2541
L11.9367 4.1589
" />
<path d="M11.9367 4.1589
L12.0319 4.1113
" />
<path d="M12.0319 4.1113
L12.5557 4.1113
" />
<path d="M12.0319 4.1113
L11.9367 4.0637
" />
<path d="M11.9367 4.0637
L11.8890 3.9684
" />
<path d="M11.8890 3.9684
L11.8890 3.8256
" />
<path d="M11.8890 3.8256
L11.9367 3.7303
" />
<path d="M11.9367 3.7303
L12.0319 3.6827
" />
<path d="M12.0319 3.6827
L12.5557 3.6827
" />
</g><path d="M11.1469 1.9541
L13.8373 1.9541
" />
<path d="M11.1469 14.5541
L13.8373 14.5541
" />
<path d="M13.2509 1.9541
L13.2509 14.5541
" />
<path d="M13.2509 1.9541
L13.2509 14.5541
" />
<path d="M13.2509 1.9541
L13.8373 3.0807
" />
<path d="M13.2509 1.9541
L12.6645 3.0807
" />
<path d="M13.2509 14.5541
L12.6645 13.4276
" />
<path d="M13.2509 14.5541
L13.8373 13.4276
" />
<g >
</g>
<g >
</g>
<g >
</g>
<g >
</g>
<g >
</g>
<g >
</g>
<g >
</g>
</g>
<g style="fill:#FFFFFF; fill-opacity:0.0; 
stroke:#FFFFFF; stroke-width:0.1500; stroke-opacity:1; 
stroke-linecap:round; stroke-linejoin:round;">
</g>
<g style="fill:#2F2D31; fill-opacity:0.0; 
stroke:#2F2D31; stroke-width:0.1500; stroke-opacity:1; 
stroke-linecap:round; stroke-linejoin:round;">
</g>
<g style="fill:#2F2D31; fill-opacity:0.0; 
stroke:#2F2D31; stroke-width:0.0500; stroke-opacity:1; 
stroke-linecap:round; stroke-linejoin:round;">
<path d="M11.1469 1.9541
L0.1469 1.9541
" />
<path d="M0.1469 14.5541
L11.1469 14.5541
" />
<path d="M11.1469 14.5541
L11.1469 1.9541
" />
<path d="M0.1469 1.9541
L0.1469 14.5541
" />
<g >
</g>
<g >
</g>
<g >
</g>
<g >
</g>
<g >
</g>
<g >
</g>
<g >
</g>
</g> 
</svg>
