<?xml version="1.0" standalone="no"?>
 <!DOCTYPE svg PUBLIC "-//W3C//DTD SVG 1.1//EN" 
 "http://www.w3.org/Graphics/SVG/1.1/DTD/svg11.dtd"> 
<svg
  xmlns:svg="http://www.w3.org/2000/svg"
  xmlns="http://www.w3.org/2000/svg"
  xmlns:xlink="http://www.w3.org/1999/xlink"
  version="1.1"
  width="62.9412mm" height="54.8894mm" viewBox="0.0000 0.0000 62.9412 54.8894">
<title>SVG Image created as working-brd.svg date 2023/09/25 17:48:39 </title>
  <desc>Image generated by PCBNEW </desc>
<g style="fill:#000000; fill-opacity:1.0000;stroke:#000000; stroke-opacity:1.0000;
stroke-linecap:round; stroke-linejoin:round;"
 transform="translate(0 0) scale(1 1)">
</g>
<g style="fill:#000000; fill-opacity:0.0; 
stroke:#000000; stroke-width:0.0000; stroke-opacity:1; 
stroke-linecap:round; stroke-linejoin:round;">
</g>
<g style="fill:#000000; fill-opacity:1.0000; 
stroke:#000000; stroke-width:0.0212; stroke-opacity:1; 
stroke-linecap:round; stroke-linejoin:round;">
<rect x="-5.000000" y="-5.000000" width="72.964286" height="64.893829" rx="0.000000" />
</g>
<g style="fill:#FFFFFF; fill-opacity:1.0000; 
stroke:#FFFFFF; stroke-width:0.0212; stroke-opacity:1; 
stroke-linecap:round; stroke-linejoin:round;">
<g >
</g>
<g >
</g>
<g >
</g>
<g >
</g>
<g >
</g>
<g >
</g>
<g >
</g>
<g >
</g>
<g >
</g>
<g >
</g>
<g >
</g>
<g >
</g>
<g >
</g>
<g >
</g>
<g >
</g>
<g >
</g>
<g style="fill:#B2803A; fill-opacity:1.0000; 
stroke:#B2803A; stroke-width:0.0212; stroke-opacity:1; 
stroke-linecap:round; stroke-linejoin:round;">
<g >
</g>
<g style="fill:#B2803A; fill-opacity:1.0000; 
stroke:#B2803A; stroke-width:0.0000; stroke-opacity:1; 
stroke-linecap:round; stroke-linejoin:round;">
<path style="fill:#B2803A; fill-opacity:1.0000; 
stroke:#B2803A; stroke-width:0.0000; stroke-opacity:1; 
stroke-linecap:round; stroke-linejoin:round;fill-rule:evenodd;"
d="M 53.9370,0.6099
53.9447,0.6105
54.3302,0.6612
54.3356,0.6622
54.7475,0.7535
54.7528,0.7549
55.1553,0.8818
55.1604,0.8837
55.5502,1.0451
55.5552,1.0475
55.9295,1.2423
55.9342,1.2450
56.2901,1.4717
56.2946,1.4749
56.6293,1.7317
56.6335,1.7353
56.9446,2.0203
56.9485,2.0242
57.2335,2.3353
57.2370,2.3395
57.4939,2.6742
57.4971,2.6787
57.7238,3.0346
57.7265,3.0393
57.9213,3.4136
57.9236,3.4186
58.0851,3.8084
58.0870,3.8136
58.2139,4.2159
58.2153,4.2213
58.3066,4.6332
58.3076,4.6386
58.3626,5.0569
58.3631,5.0624
58.3816,5.4866
58.3816,8.3487
58.3616,8.4168
58.3134,8.4606
42.9809,16.3742
42.9620,16.3821
42.9495,16.3861
42.9370,16.3952
42.9229,16.4039
42.9198,16.4062
42.9082,16.4162
42.8967,16.4245
42.8916,16.4315
42.8877,16.4392
42.8856,16.4532
42.8821,16.4681
42.8815,16.4719
42.8802,16.4885
42.8779,16.5037
42.8800,16.5167
42.8816,16.5371
42.8816,38.4362
42.8800,38.4566
42.8779,38.4696
42.8802,38.4848
42.8815,38.5014
42.8821,38.5052
42.8856,38.5201
42.8877,38.5341
42.8916,38.5418
42.8967,38.5488
42.8967,38.5488
42.9082,38.5571
42.9198,38.5671
42.9229,38.5694
42.9370,38.5781
42.9495,38.5872
42.9495,38.5872
42.9620,38.5912
42.9809,38.5991
58.2827,46.4968
58.3341,46.5458
58.3509,46.6100
58.3159,50.2675
58.3154,50.2752
58.3076,50.3347
58.3066,50.3401
58.2153,50.7520
58.2139,50.7574
58.0870,51.1597
58.0851,51.1649
57.9236,51.5547
57.9213,51.5597
57.7265,51.9340
57.7238,51.9387
57.4971,52.2946
57.4939,52.2991
57.2370,52.6338
57.2335,52.6380
56.9485,52.9491
56.9446,52.9530
56.6335,53.2380
56.6293,53.2416
56.2946,53.4984
56.2901,53.5016
55.9342,53.7283
55.9294,53.7310
55.5552,53.9258
55.5502,53.9282
55.1604,54.0896
55.1552,54.0915
54.7528,54.2184
54.7475,54.2198
54.3356,54.3111
54.3302,54.3121
53.9119,54.3671
53.9064,54.3676
53.4821,54.3862
9.4821,54.3862
9.0579,54.3676
9.0524,54.3671
8.6341,54.3121
8.6287,54.3111
8.2167,54.2198
8.2114,54.2184
7.8090,54.0915
7.8039,54.0896
7.4141,53.9282
7.4091,53.9258
7.0348,53.7310
7.0301,53.7283
6.6742,53.5016
6.6697,53.4984
6.3350,53.2416
6.3308,53.2380
6.0197,52.9530
6.0158,52.9491
5.7308,52.6380
5.7272,52.6338
5.4704,52.2991
5.4672,52.2946
5.3431,52.0998
5.2405,51.9387
5.2378,51.9340
5.0430,51.5597
5.0406,51.5547
4.8792,51.1649
4.8773,51.1598
4.7504,50.7574
4.7490,50.7520
4.6616,50.3581
4.6577,50.3401
4.6567,50.3347
4.6479,50.2675
4.6016,49.9164
4.6012,49.9109
4.5856,49.5544
7.6279,49.5544
7.6576,49.8237
7.7261,50.0857
7.8320,50.3350
7.8771,50.4089
7.9731,50.5663
8.1464,50.7745
8.3481,50.9552
8.5741,51.1047
8.8193,51.2197
9.0787,51.2977
9.0787,51.2977
9.0787,51.2977
9.3467,51.3372
9.3467,51.3372
9.5498,51.3372
9.5845,51.3346
9.7523,51.3223
9.7523,51.3223
9.7523,51.3223
9.8628,51.2977
10.0167,51.2634
10.2697,51.1667
10.5059,51.0341
10.7203,50.8685
10.9083,50.6735
11.0659,50.4532
11.1149,50.3581
11.1898,50.2123
11.1898,50.2123
11.2773,49.9560
11.2773,49.9560
11.3265,49.6896
11.3339,49.4866
12.1265,49.4866
12.1471,49.7221
12.2082,49.9503
12.2082,49.9503
12.3081,50.1645
12.4436,50.3580
12.4436,50.3580
12.4436,50.3581
12.6107,50.5251
12.6107,50.5251
12.6107,50.5252
12.8043,50.6607
12.8043,50.6607
12.8319,50.6735
13.0185,50.7606
13.2467,50.8217
13.4232,50.8372
13.4232,50.8372
13.5411,50.8372
13.5411,50.8372
13.7176,50.8217
13.9458,50.7606
14.1600,50.6607
14.3535,50.5251
14.5206,50.3581
14.6562,50.1645
14.7560,49.9503
14.8172,49.7221
14.8378,49.4866
14.8378,49.4866
48.1265,49.4866
48.1471,49.7221
48.2082,49.9503
48.2082,49.9503
48.3081,50.1645
48.4436,50.3580
48.4436,50.3580
48.4436,50.3581
48.6107,50.5251
48.6107,50.5251
48.6107,50.5252
48.8043,50.6607
48.8043,50.6607
48.8319,50.6735
49.0185,50.7606
49.2467,50.8217
49.4232,50.8372
49.4232,50.8372
49.5411,50.8372
49.5411,50.8372
49.7176,50.8217
49.9458,50.7606
50.1600,50.6607
50.3535,50.5251
50.5206,50.3581
50.6562,50.1645
50.7560,49.9503
50.8172,49.7221
50.8319,49.5544
51.6279,49.5544
51.6576,49.8237
51.7261,50.0857
51.8320,50.3350
51.8771,50.4089
51.9731,50.5663
52.1464,50.7745
52.3481,50.9552
52.5741,51.1047
52.8193,51.2197
53.0787,51.2977
53.0787,51.2977
53.0787,51.2977
53.3467,51.3372
53.3467,51.3372
53.5498,51.3372
53.5845,51.3346
53.7523,51.3223
53.7523,51.3223
53.7523,51.3223
53.8628,51.2977
54.0167,51.2634
54.2697,51.1667
54.5059,51.0341
54.7203,50.8685
54.9083,50.6735
55.0659,50.4532
55.1149,50.3581
55.1898,50.2123
55.1898,50.2123
55.2773,49.9560
55.2773,49.9560
55.3265,49.6896
55.3364,49.4189
55.3179,49.2512
55.3067,49.1496
55.2382,48.8876
55.1323,48.6383
55.1182,48.6153
54.9912,48.4070
54.8179,48.1988
54.8179,48.1988
54.8179,48.1988
54.6162,48.0181
54.6161,48.0181
54.3902,47.8686
54.1450,47.7536
53.9875,47.7063
53.8856,47.6756
53.6176,47.6362
53.6176,47.6362
53.4145,47.6362
53.4145,47.6362
53.2120,47.6510
53.2120,47.6510
52.9476,47.7099
52.9476,47.7099
52.6946,47.8066
52.4584,47.9392
52.4584,47.9392
52.2440,48.1048
52.0560,48.2998
52.0560,48.2998
51.8983,48.5201
51.8983,48.5201
51.7745,48.7610
51.7745,48.7610
51.6870,49.0173
51.6870,49.0174
51.6378,49.2837
51.6378,49.2837
51.6279,49.5544
50.8319,49.5544
50.8378,49.4866
50.8172,49.2512
50.7560,49.0230
50.6562,48.8088
50.6562,48.8088
50.6562,48.8088
50.5206,48.6153
50.5206,48.6153
50.5206,48.6152
50.3535,48.4482
50.3535,48.4482
50.3535,48.4481
50.1600,48.3126
50.1600,48.3126
49.9458,48.2127
49.9458,48.2127
49.7176,48.1516
49.5852,48.1400
49.5411,48.1362
49.4232,48.1362
49.3879,48.1392
49.2467,48.1516
49.0185,48.2127
49.0185,48.2127
48.8043,48.3126
48.6107,48.4481
48.6107,48.4482
48.4436,48.6152
48.4436,48.6153
48.3081,48.8088
48.2082,49.0230
48.2082,49.0230
48.1471,49.2512
48.1265,49.4866
14.8378,49.4866
14.8172,49.2512
14.7560,49.0230
14.6562,48.8088
14.6562,48.8088
14.6562,48.8088
14.5206,48.6153
14.5206,48.6153
14.5206,48.6152
14.3535,48.4482
14.3535,48.4482
14.3535,48.4481
14.1600,48.3126
14.1600,48.3126
13.9458,48.2127
13.9458,48.2127
13.7176,48.1516
13.5852,48.1400
13.5411,48.1362
13.4232,48.1362
13.3879,48.1392
13.2467,48.1516
13.0185,48.2127
13.0185,48.2127
12.8043,48.3126
12.6107,48.4481
12.6107,48.4482
12.4436,48.6152
12.4436,48.6153
12.3081,48.8088
12.2082,49.0230
12.2082,49.0230
12.1471,49.2512
12.1265,49.4866
11.3339,49.4866
11.3364,49.4189
11.3179,49.2512
11.3067,49.1496
11.2382,48.8876
11.1323,48.6383
11.1182,48.6153
10.9912,48.4070
10.8179,48.1988
10.8179,48.1988
10.8179,48.1988
10.6162,48.0181
10.6161,48.0181
10.3902,47.8686
10.1450,47.7536
9.9875,47.7063
9.8856,47.6756
9.6176,47.6362
9.6176,47.6362
9.4145,47.6362
9.4145,47.6362
9.2120,47.6510
9.2120,47.6510
8.9476,47.7099
8.9476,47.7099
8.6946,47.8066
8.4584,47.9392
8.4584,47.9392
8.2440,48.1048
8.0560,48.2998
8.0560,48.2998
7.8983,48.5201
7.8983,48.5201
7.7745,48.7610
7.7745,48.7610
7.6870,49.0173
7.6870,49.0174
7.6378,49.2837
7.6378,49.2837
7.6279,49.5544
4.5856,49.5544
4.5826,49.4866
4.5826,5.5544
7.6279,5.5544
7.6576,5.8237
7.7261,6.0857
7.8320,6.3350
7.8771,6.4089
7.9731,6.5663
8.1464,6.7745
8.3481,6.9552
8.5741,7.1047
8.8193,7.2197
9.0787,7.2977
9.0787,7.2977
9.0787,7.2977
9.3467,7.3371
9.3467,7.3371
9.5498,7.3371
9.5845,7.3346
9.7523,7.3223
9.7523,7.3223
9.7523,7.3223
9.8628,7.2977
10.0167,7.2634
10.2697,7.1667
10.5059,7.0341
10.7203,6.8685
10.9083,6.6735
11.0659,6.4532
11.1149,6.3581
11.1898,6.2123
11.1898,6.2123
11.2773,5.9560
11.2773,5.9560
11.3265,5.6896
11.3339,5.4867
12.1265,5.4867
12.1471,5.7221
12.2082,5.9503
12.2082,5.9503
12.3081,6.1645
12.4436,6.3580
12.4436,6.3580
12.4436,6.3581
12.6107,6.5251
12.6107,6.5251
12.6107,6.5252
12.8043,6.6607
12.8043,6.6607
12.8319,6.6735
13.0185,6.7606
13.2467,6.8217
13.4232,6.8371
13.4232,6.8371
13.5411,6.8371
13.5411,6.8371
13.7176,6.8217
13.9458,6.7606
14.1600,6.6607
14.3535,6.5251
14.5206,6.3581
14.6562,6.1645
14.7560,5.9503
14.8172,5.7221
14.8378,5.4867
48.1265,5.4867
48.1471,5.7221
48.2082,5.9503
48.2082,5.9503
48.3081,6.1645
48.4436,6.3580
48.4436,6.3580
48.4436,6.3581
48.6107,6.5251
48.6107,6.5251
48.6107,6.5252
48.8043,6.6607
48.8043,6.6607
48.8319,6.6735
49.0185,6.7606
49.2467,6.8217
49.4232,6.8371
49.4232,6.8371
49.5411,6.8371
49.5411,6.8371
49.7176,6.8217
49.9458,6.7606
50.1600,6.6607
50.3535,6.5251
50.5206,6.3581
50.6562,6.1645
50.7560,5.9503
50.8172,5.7221
50.8319,5.5544
51.6279,5.5544
51.6576,5.8237
51.7261,6.0857
51.8320,6.3350
51.8771,6.4089
51.9731,6.5663
52.1464,6.7745
52.3481,6.9552
52.5741,7.1047
52.8193,7.2197
53.0787,7.2977
53.0787,7.2977
53.0787,7.2977
53.3467,7.3371
53.3467,7.3371
53.5498,7.3371
53.5845,7.3346
53.7523,7.3223
53.7523,7.3223
53.7523,7.3223
53.8628,7.2977
54.0167,7.2634
54.2697,7.1667
54.5059,7.0341
54.7203,6.8685
54.9083,6.6735
55.0659,6.4532
55.1149,6.3581
55.1898,6.2123
55.1898,6.2123
55.2773,5.9560
55.2773,5.9560
55.3265,5.6896
55.3364,5.4189
55.3215,5.2837
55.3067,5.1496
55.2382,4.8876
55.1323,4.6383
55.1182,4.6153
54.9912,4.4070
54.8179,4.1988
54.8179,4.1988
54.8179,4.1988
54.6162,4.0181
54.6161,4.0181
54.3902,3.8686
54.1450,3.7536
53.9875,3.7063
53.8856,3.6756
53.6176,3.6361
53.6176,3.6361
53.4145,3.6361
53.4145,3.6361
53.2120,3.6510
53.2120,3.6510
52.9476,3.7099
52.9476,3.7099
52.6946,3.8066
52.4584,3.9392
52.4584,3.9392
52.2440,4.1048
52.0560,4.2998
52.0560,4.2998
51.8983,4.5201
51.8983,4.5201
51.7745,4.7610
51.7745,4.7610
51.6870,5.0173
51.6870,5.0174
51.6378,5.2837
51.6378,5.2837
51.6279,5.5544
50.8319,5.5544
50.8378,5.4867
50.8172,5.2512
50.7560,5.0230
50.6562,4.8088
50.6562,4.8088
50.6562,4.8088
50.5206,4.6153
50.5206,4.6153
50.5206,4.6152
50.3535,4.4482
50.3535,4.4482
50.3535,4.4481
50.1600,4.3126
50.1600,4.3126
49.9458,4.2127
49.9458,4.2127
49.7176,4.1516
49.5852,4.1400
49.5411,4.1361
49.4232,4.1361
49.3879,4.1392
49.2467,4.1516
49.0185,4.2127
49.0185,4.2127
48.8043,4.3126
48.6107,4.4481
48.6107,4.4482
48.4436,4.6152
48.4436,4.6153
48.3081,4.8088
48.2082,5.0230
48.2082,5.0230
48.1471,5.2512
48.1265,5.4867
14.8378,5.4867
14.8172,5.2512
14.7560,5.0230
14.6562,4.8088
14.6562,4.8088
14.6562,4.8088
14.5206,4.6153
14.5206,4.6153
14.5206,4.6152
14.3535,4.4482
14.3535,4.4482
14.3535,4.4481
14.1600,4.3126
14.1600,4.3126
13.9458,4.2127
13.9458,4.2127
13.7176,4.1516
13.5852,4.1400
13.5411,4.1361
13.4232,4.1361
13.3879,4.1392
13.2467,4.1516
13.0185,4.2127
13.0185,4.2127
12.8043,4.3126
12.6107,4.4481
12.6107,4.4482
12.4436,4.6152
12.4436,4.6153
12.3081,4.8088
12.2082,5.0230
12.2082,5.0230
12.1471,5.2512
12.1265,5.4867
11.3339,5.4867
11.3364,5.4189
11.3215,5.2837
11.3067,5.1496
11.2382,4.8876
11.1323,4.6383
11.1182,4.6153
10.9912,4.4070
10.8179,4.1988
10.8179,4.1988
10.8179,4.1988
10.6162,4.0181
10.6161,4.0181
10.3902,3.8686
10.1450,3.7536
9.9875,3.7063
9.8856,3.6756
9.6176,3.6361
9.6176,3.6361
9.4145,3.6361
9.4145,3.6361
9.2120,3.6510
9.2120,3.6510
8.9476,3.7099
8.9476,3.7099
8.6946,3.8066
8.4584,3.9392
8.4584,3.9392
8.2440,4.1048
8.0560,4.2998
8.0560,4.2998
7.8983,4.5201
7.8983,4.5201
7.7745,4.7610
7.7745,4.7610
7.6870,5.0173
7.6870,5.0174
7.6378,5.2837
7.6378,5.2837
7.6279,5.5544
4.5826,5.5544
4.5826,5.4866
4.6012,5.0624
4.6016,5.0569
4.6061,5.0230
4.6567,4.6386
4.6577,4.6332
4.6616,4.6153
4.7490,4.2212
4.7504,4.2159
4.7514,4.2127
4.8773,3.8135
4.8792,3.8084
4.9505,3.6361
5.0406,3.4186
5.0429,3.4136
5.2378,3.0393
5.2405,3.0346
5.4672,2.6787
5.4704,2.6742
5.7272,2.3395
5.7308,2.3353
6.0158,2.0242
6.0197,2.0203
6.1761,1.8770
6.3308,1.7353
6.3350,1.7317
6.6697,1.4749
6.6742,1.4717
7.0301,1.2450
7.0348,1.2423
7.4091,1.0475
7.4140,1.0451
7.8039,0.8837
7.8090,0.8818
8.2114,0.7549
8.2167,0.7535
8.6287,0.6622
8.6341,0.6612
9.0524,0.6062
9.0579,0.6057
9.4821,0.5871
9.5091,0.5871
50.8596,0.5871
Z" /> 
</g>
</g>
</g>
<g style="fill:#000000; fill-opacity:1.0000; 
stroke:#000000; stroke-width:0.0000; stroke-opacity:1; 
stroke-linecap:round; stroke-linejoin:round;">
<circle cx="9.4821" cy="5.4867" r="1.6000" /> 
</g>
<g style="fill:#000000; fill-opacity:1.0000; 
stroke:#000000; stroke-width:0.0212; stroke-opacity:1; 
stroke-linecap:round; stroke-linejoin:round;">
</g>
<g style="fill:#000000; fill-opacity:1.0000; 
stroke:#000000; stroke-width:0.0000; stroke-opacity:1; 
stroke-linecap:round; stroke-linejoin:round;">
<circle cx="9.4821" cy="49.4866" r="1.6000" /> 
</g>
<g style="fill:#000000; fill-opacity:1.0000; 
stroke:#000000; stroke-width:0.0212; stroke-opacity:1; 
stroke-linecap:round; stroke-linejoin:round;">
</g>
<g style="fill:#000000; fill-opacity:1.0000; 
stroke:#000000; stroke-width:0.0000; stroke-opacity:1; 
stroke-linecap:round; stroke-linejoin:round;">
<circle cx="53.4821" cy="49.4866" r="1.6000" /> 
</g>
<g style="fill:#000000; fill-opacity:1.0000; 
stroke:#000000; stroke-width:0.0212; stroke-opacity:1; 
stroke-linecap:round; stroke-linejoin:round;">
</g>
<g style="fill:#000000; fill-opacity:1.0000; 
stroke:#000000; stroke-width:0.0000; stroke-opacity:1; 
stroke-linecap:round; stroke-linejoin:round;">
<circle cx="13.4821" cy="5.4867" r="1.1000" /> 
</g>
<g style="fill:#000000; fill-opacity:1.0000; 
stroke:#000000; stroke-width:0.0212; stroke-opacity:1; 
stroke-linecap:round; stroke-linejoin:round;">
</g>
<g style="fill:#000000; fill-opacity:1.0000; 
stroke:#000000; stroke-width:0.0000; stroke-opacity:1; 
stroke-linecap:round; stroke-linejoin:round;">
<circle cx="53.4821" cy="5.4867" r="1.6000" /> 
</g>
<g style="fill:#000000; fill-opacity:1.0000; 
stroke:#000000; stroke-width:0.0212; stroke-opacity:1; 
stroke-linecap:round; stroke-linejoin:round;">
</g>
<g style="fill:#000000; fill-opacity:1.0000; 
stroke:#000000; stroke-width:0.0000; stroke-opacity:1; 
stroke-linecap:round; stroke-linejoin:round;">
<circle cx="49.4821" cy="5.4867" r="1.1000" /> 
</g>
<g style="fill:#000000; fill-opacity:1.0000; 
stroke:#000000; stroke-width:0.0212; stroke-opacity:1; 
stroke-linecap:round; stroke-linejoin:round;">
</g>
<g style="fill:#000000; fill-opacity:1.0000; 
stroke:#000000; stroke-width:0.0000; stroke-opacity:1; 
stroke-linecap:round; stroke-linejoin:round;">
<circle cx="13.4821" cy="49.4866" r="1.1000" /> 
</g>
<g style="fill:#000000; fill-opacity:1.0000; 
stroke:#000000; stroke-width:0.0212; stroke-opacity:1; 
stroke-linecap:round; stroke-linejoin:round;">
</g>
<g style="fill:#000000; fill-opacity:1.0000; 
stroke:#000000; stroke-width:0.0000; stroke-opacity:1; 
stroke-linecap:round; stroke-linejoin:round;">
<circle cx="49.4821" cy="49.4866" r="1.1000" /> 
</g>
<g style="fill:#000000; fill-opacity:1.0000; 
stroke:#000000; stroke-width:0.0212; stroke-opacity:1; 
stroke-linecap:round; stroke-linejoin:round;">
</g>
<g style="fill:#FFFFFF; fill-opacity:1.0000; 
stroke:#FFFFFF; stroke-width:0.0212; stroke-opacity:1; 
stroke-linecap:round; stroke-linejoin:round;">
<g >
</g>
<g >
</g>
<g >
</g>
<g >
</g>
<g >
</g>
<g >
</g>
<g >
</g>
<g >
</g>
<g >
</g>
<g >
</g>
<g >
</g>
<g >
</g>
<g >
</g>
<g style="fill:#37CBCB; fill-opacity:1.0000; 
stroke:#37CBCB; stroke-width:0.0212; stroke-opacity:1; 
stroke-linecap:round; stroke-linejoin:round;">
</g>
<g style="fill:#37CBCB; fill-opacity:1.0000; 
stroke:#37CBCB; stroke-width:0.7000; stroke-opacity:1; 
stroke-linecap:round; stroke-linejoin:round;">
</g>
<g style="fill:#37CBCB; fill-opacity:0.0; 
stroke:#37CBCB; stroke-width:0.7000; stroke-opacity:1; 
stroke-linecap:round; stroke-linejoin:round;">
<path d="M41.1321 9.0716
L41.8321 9.0716
" />
<path d="M41.1321 10.3416
L41.8321 10.3416
" />
<path d="M41.1321 11.6116
L41.8321 11.6116
" />
<path d="M41.1321 12.8816
L41.8321 12.8816
" />
<path d="M41.1321 14.1517
L41.8321 14.1517
" />
<path d="M41.1321 15.4216
L41.8321 15.4216
" />
<path d="M41.1321 16.6916
L41.8321 16.6916
" />
<path d="M41.1321 17.9616
L41.8321 17.9616
" />
<path d="M41.1321 19.2316
L41.8321 19.2316
" />
<path d="M41.1321 20.5016
L41.8321 20.5016
" />
<path d="M41.1321 21.7716
L41.8321 21.7716
" />
<path d="M41.1321 23.0417
L41.8321 23.0417
" />
<path d="M41.1321 24.3117
L41.8321 24.3117
" />
<path d="M41.1321 25.5816
L41.8321 25.5816
" />
<path d="M41.1321 26.8516
L41.8321 26.8516
" />
<path d="M41.1321 28.1216
L41.8321 28.1216
" />
<path d="M41.1321 29.3916
L41.8321 29.3916
" />
<path d="M41.1321 30.6616
L41.8321 30.6616
" />
<path d="M41.1321 31.9316
L41.8321 31.9316
" />
<path d="M41.1321 33.2017
L41.8321 33.2017
" />
<path d="M41.1321 34.4716
L41.8321 34.4716
" />
<path d="M41.1321 35.7416
L41.8321 35.7416
" />
<path d="M41.1321 37.0116
L41.8321 37.0116
" />
<path d="M41.1321 38.2816
L41.8321 38.2816
" />
<path d="M41.1321 39.5516
L41.8321 39.5516
" />
<path d="M41.1321 40.8216
L41.8321 40.8216
" />
<path d="M41.1321 42.0917
L41.8321 42.0917
" />
<path d="M41.1321 43.3616
L41.8321 43.3616
" />
<path d="M41.1321 44.6317
L41.8321 44.6317
" />
<path d="M41.1321 45.9016
L41.8321 45.9016
" />
</g>
<g >
</g>
<g >
</g>
<g >
</g>
<g style="fill:#37CBCB; fill-opacity:0.0; 
stroke:#37CBCB; stroke-width:0.7000; stroke-opacity:1; 
stroke-linecap:round; stroke-linejoin:round;">
<g >
</g>
<g style="fill:#37CBCB; fill-opacity:1.0000; 
stroke:#37CBCB; stroke-width:0.0000; stroke-opacity:1; 
stroke-linecap:round; stroke-linejoin:round;">
<path style="fill:#37CBCB; fill-opacity:1.0000; 
stroke:#37CBCB; stroke-width:0.0000; stroke-opacity:1; 
stroke-linecap:round; stroke-linejoin:round;fill-rule:evenodd;"
d="M 53.9064,0.6057
53.9119,0.6062
54.3302,0.6612
54.3356,0.6622
54.7475,0.7535
54.7528,0.7549
55.1553,0.8818
55.1604,0.8837
55.5502,1.0451
55.5552,1.0475
55.9295,1.2423
55.9342,1.2450
56.2901,1.4717
56.2946,1.4749
56.6293,1.7317
56.6335,1.7353
56.9446,2.0203
56.9485,2.0242
57.2335,2.3353
57.2370,2.3395
57.4939,2.6742
57.4971,2.6787
57.7238,3.0346
57.7265,3.0393
57.9213,3.4136
57.9236,3.4186
58.0851,3.8084
58.0870,3.8136
58.2139,4.2159
58.2153,4.2213
58.3066,4.6332
58.3076,4.6386
58.3626,5.0569
58.3631,5.0624
58.3816,5.4866
58.3816,8.3487
58.3616,8.4168
58.3134,8.4606
42.9809,16.3742
42.9620,16.3821
42.9495,16.3861
42.9370,16.3952
42.9229,16.4039
42.9198,16.4062
42.9082,16.4162
42.8967,16.4245
42.8916,16.4315
42.8832,16.4483
42.8347,16.5001
42.7659,16.5176
42.6985,16.4950
42.6541,16.4397
42.6492,16.4254
42.6344,16.3720
42.6344,16.3720
42.6344,16.3720
42.5469,16.2070
42.4914,16.1417
42.4626,16.0769
42.4734,16.0067
42.4865,15.9863
42.4861,15.9860
42.5947,15.8259
42.6545,15.6756
40.3122,15.6756
40.3304,15.7411
40.4178,15.9060
40.4178,15.9060
40.4728,15.9708
40.5017,16.0357
40.4909,16.1058
40.4775,16.1267
40.4778,16.1269
40.3692,16.2871
40.3001,16.4606
40.2698,16.6449
40.2800,16.8314
40.2800,16.8314
40.3299,17.0113
40.4174,17.1763
40.4725,17.2412
40.5014,17.3060
40.4906,17.3762
40.4774,17.3967
40.4778,17.3969
40.3692,17.5571
40.3001,17.7306
40.2698,17.9149
40.2800,18.1014
40.2800,18.1014
40.3299,18.2813
40.4174,18.4463
40.4725,18.5112
40.5014,18.5760
40.4906,18.6462
40.4774,18.6667
40.4778,18.6669
40.3692,18.8271
40.3001,19.0006
40.2698,19.1849
40.2800,19.3714
40.2800,19.3714
40.3299,19.5513
40.4174,19.7163
40.4725,19.7812
40.5014,19.8460
40.4906,19.9162
40.4774,19.9367
40.4778,19.9369
40.3692,20.0971
40.3001,20.2706
40.2698,20.4549
40.2800,20.6414
40.2800,20.6414
40.3299,20.8213
40.4174,20.9863
40.4725,21.0512
40.5014,21.1160
40.4906,21.1862
40.4774,21.2067
40.4778,21.2069
40.3692,21.3671
40.3001,21.5406
40.2698,21.7249
40.2800,21.9114
40.2800,21.9114
40.3299,22.0913
40.4174,22.2563
40.4725,22.3212
40.5014,22.3860
40.4906,22.4562
40.4774,22.4767
40.4778,22.4769
40.3692,22.6371
40.3001,22.8106
40.2698,22.9949
40.2800,23.1814
40.2800,23.1814
40.3299,23.3613
40.4174,23.5263
40.4725,23.5912
40.5014,23.6560
40.4906,23.7262
40.4774,23.7467
40.4778,23.7469
40.3692,23.9071
40.3001,24.0806
40.2698,24.2649
40.2800,24.4514
40.2800,24.4514
40.3299,24.6313
40.4174,24.7963
40.4725,24.8612
40.5014,24.9260
40.4906,24.9962
40.4774,25.0167
40.4778,25.0169
40.3692,25.1771
40.3001,25.3506
40.2698,25.5349
40.2800,25.7214
40.2800,25.7214
40.3299,25.9013
40.4174,26.0663
40.4725,26.1312
40.5014,26.1960
40.4906,26.2662
40.4774,26.2867
40.4778,26.2869
40.3692,26.4471
40.3001,26.6206
40.2698,26.8049
40.2800,26.9914
40.2800,26.9914
40.3299,27.1713
40.4174,27.3363
40.4725,27.4012
40.5014,27.4660
40.4906,27.5362
40.4774,27.5567
40.4778,27.5569
40.3692,27.7171
40.3001,27.8906
40.2698,28.0749
40.2800,28.2614
40.2800,28.2614
40.3299,28.4413
40.4174,28.6063
40.4725,28.6712
40.5014,28.7360
40.4906,28.8062
40.4774,28.8267
40.4778,28.8269
40.3692,28.9871
40.3001,29.1606
40.2698,29.3449
40.2800,29.5314
40.2800,29.5314
40.3299,29.7113
40.4174,29.8763
40.4725,29.9412
40.5014,30.0060
40.4906,30.0762
40.4774,30.0967
40.4778,30.0969
40.3692,30.2571
40.3001,30.4306
40.2698,30.6149
40.2800,30.8014
40.2800,30.8014
40.3299,30.9813
40.4174,31.1463
40.4725,31.2112
40.5014,31.2760
40.4906,31.3462
40.4774,31.3667
40.4778,31.3669
40.3692,31.5271
40.3001,31.7006
40.2698,31.8849
40.2800,32.0714
40.2800,32.0714
40.3299,32.2513
40.4174,32.4163
40.4725,32.4812
40.5014,32.5460
40.4906,32.6162
40.4774,32.6367
40.4778,32.6369
40.3692,32.7971
40.3001,32.9706
40.2698,33.1549
40.2800,33.3414
40.2800,33.3414
40.3299,33.5213
40.4174,33.6863
40.4725,33.7512
40.5014,33.8160
40.4906,33.8862
40.4774,33.9067
40.4778,33.9069
40.3692,34.0671
40.3001,34.2406
40.2698,34.4249
40.2800,34.6114
40.2800,34.6114
40.3299,34.7913
40.4174,34.9563
40.4725,35.0212
40.5014,35.0860
40.4906,35.1562
40.4774,35.1767
40.4778,35.1769
40.3692,35.3371
40.3001,35.5106
40.2698,35.6949
40.2800,35.8814
40.2800,35.8814
40.3299,36.0613
40.4174,36.2263
40.4725,36.2912
40.5014,36.3560
40.4906,36.4262
40.4774,36.4467
40.4778,36.4469
40.3692,36.6071
40.3001,36.7806
40.2698,36.9649
40.2800,37.1514
40.2800,37.1514
40.3299,37.3313
40.4174,37.4963
40.4725,37.5612
40.5014,37.6260
40.4906,37.6962
40.4774,37.7167
40.4778,37.7169
40.3692,37.8771
40.3001,38.0506
40.2698,38.2349
40.2800,38.4214
40.2800,38.4214
40.3299,38.6013
40.4174,38.7663
40.4725,38.8312
40.5014,38.8960
40.4906,38.9662
40.4774,38.9867
40.4778,38.9869
40.3692,39.1471
40.3001,39.3206
40.2698,39.5049
40.2800,39.6914
40.2800,39.6914
40.3299,39.8713
40.4174,40.0363
40.4725,40.1012
40.5014,40.1660
40.4906,40.2362
40.4774,40.2567
40.4778,40.2569
40.3692,40.4171
40.3001,40.5906
40.2698,40.7749
40.2800,40.9614
40.2800,40.9614
40.3299,41.1413
40.4174,41.3063
40.4725,41.3712
40.5014,41.4360
40.4906,41.5062
40.4774,41.5267
40.4778,41.5269
40.3692,41.6871
40.3001,41.8606
40.2698,42.0449
40.2800,42.2314
40.2800,42.2314
40.3299,42.4113
40.4174,42.5763
40.4725,42.6412
40.5014,42.7060
40.4906,42.7762
40.4774,42.7967
40.4778,42.7969
40.3692,42.9571
40.3001,43.1306
40.2698,43.3149
40.2800,43.5014
40.2800,43.5014
40.3299,43.6813
40.4174,43.8463
40.4725,43.9112
40.5014,43.9760
40.4906,44.0462
40.4774,44.0667
40.4778,44.0669
40.3692,44.2271
40.3001,44.4006
40.2698,44.5849
40.2800,44.7714
40.2800,44.7714
40.3299,44.9513
40.4174,45.1163
40.4725,45.1812
40.5014,45.2460
40.4906,45.3162
40.4774,45.3367
40.4778,45.3369
40.3692,45.4971
40.3001,45.6706
40.2698,45.8549
40.2800,46.0414
40.2800,46.0414
40.3299,46.2213
40.4174,46.3863
40.5383,46.5286
40.5383,46.5286
40.5383,46.5286
40.6869,46.6416
40.6869,46.6416
40.7816,46.6854
40.8564,46.7200
41.0388,46.7601
41.0388,46.7601
41.8787,46.7601
41.8787,46.7601
42.0178,46.7450
42.1947,46.6854
42.3547,46.5891
42.4903,46.4607
42.5951,46.3061
42.6642,46.1327
42.6944,45.9484
42.6843,45.7619
42.6344,45.5820
42.5894,45.4971
42.5469,45.4170
42.4918,45.3521
42.4629,45.2873
42.4737,45.2171
42.4869,45.1966
42.4865,45.1964
42.4968,45.1812
42.5951,45.0361
42.6642,44.8627
42.6944,44.6784
42.6843,44.4919
42.6344,44.3120
42.5894,44.2271
42.5469,44.1470
42.4918,44.0821
42.4629,44.0173
42.4737,43.9471
42.4869,43.9266
42.4865,43.9264
42.4968,43.9112
42.5951,43.7661
42.6642,43.5927
42.6944,43.4084
42.6843,43.2219
42.6344,43.0420
42.5894,42.9571
42.5469,42.8770
42.4918,42.8121
42.4629,42.7473
42.4737,42.6771
42.4869,42.6566
42.4865,42.6564
42.4968,42.6412
42.5951,42.4962
42.6642,42.3227
42.6944,42.1384
42.6843,41.9519
42.6344,41.7720
42.5894,41.6871
42.5469,41.6070
42.4918,41.5421
42.4629,41.4773
42.4737,41.4071
42.4869,41.3866
42.4865,41.3864
42.4968,41.3712
42.5951,41.2261
42.6642,41.0527
42.6944,40.8684
42.6843,40.6819
42.6344,40.5020
42.5894,40.4171
42.5469,40.3370
42.4918,40.2721
42.4629,40.2073
42.4737,40.1371
42.4869,40.1166
42.4865,40.1164
42.4968,40.1012
42.5951,39.9562
42.6642,39.7827
42.6944,39.5984
42.6843,39.4119
42.6344,39.2320
42.5894,39.1471
42.5469,39.0670
42.4918,39.0021
42.4629,38.9373
42.4737,38.8671
42.4869,38.8466
42.4865,38.8464
42.4968,38.8312
42.5951,38.6861
42.6545,38.5370
42.6983,38.4811
42.7654,38.4578
42.8344,38.4744
42.8835,38.5257
42.8842,38.5270
42.8916,38.5418
42.8967,38.5488
42.8967,38.5488
42.9082,38.5571
42.9198,38.5671
42.9229,38.5694
42.9370,38.5781
42.9495,38.5872
42.9495,38.5872
42.9620,38.5912
42.9809,38.5991
58.3134,46.5127
58.3648,46.5617
58.3816,46.6246
58.3816,49.4866
58.3631,49.9109
58.3626,49.9164
58.3076,50.3347
58.3066,50.3401
58.2153,50.7520
58.2139,50.7574
58.0870,51.1597
58.0851,51.1649
57.9236,51.5547
57.9213,51.5597
57.7265,51.9340
57.7238,51.9387
57.4971,52.2946
57.4939,52.2991
57.2370,52.6338
57.2335,52.6380
56.9485,52.9491
56.9446,52.9530
56.6335,53.2380
56.6293,53.2416
56.2946,53.4984
56.2901,53.5016
55.9342,53.7283
55.9294,53.7310
55.5552,53.9258
55.5502,53.9282
55.1604,54.0896
55.1552,54.0915
54.7528,54.2184
54.7475,54.2198
54.3356,54.3111
54.3302,54.3121
53.9119,54.3671
53.9064,54.3676
53.4821,54.3862
13.6065,54.3862
8.7907,54.3322
8.7832,54.3317
8.6341,54.3121
8.6287,54.3111
8.2167,54.2198
8.2114,54.2184
7.8090,54.0915
7.8039,54.0896
7.4141,53.9282
7.4091,53.9258
7.0348,53.7310
7.0301,53.7283
6.6742,53.5016
6.6697,53.4984
6.3350,53.2416
6.3308,53.2380
6.0197,52.9530
6.0158,52.9491
5.7308,52.6380
5.7272,52.6338
5.4704,52.2991
5.4672,52.2946
5.3431,52.0998
5.2405,51.9387
5.2378,51.9340
5.0430,51.5597
5.0406,51.5547
4.8792,51.1649
4.8773,51.1598
4.7504,50.7574
4.7490,50.7520
4.6616,50.3581
4.6577,50.3401
4.6567,50.3347
4.6016,49.9164
4.6012,49.9109
4.5856,49.5544
7.6279,49.5544
7.6576,49.8237
7.7261,50.0857
7.8320,50.3350
7.8771,50.4089
7.9731,50.5663
8.1464,50.7745
8.3481,50.9552
8.5741,51.1047
8.8193,51.2197
9.0787,51.2977
9.0787,51.2977
9.0787,51.2977
9.3467,51.3372
9.3467,51.3372
9.5498,51.3372
9.5845,51.3346
9.7523,51.3223
9.7523,51.3223
9.7523,51.3223
9.8628,51.2977
10.0167,51.2634
10.2697,51.1667
10.5059,51.0341
10.7203,50.8685
10.9083,50.6735
11.0659,50.4532
11.1149,50.3581
11.1898,50.2123
11.1898,50.2123
11.2773,49.9560
11.2773,49.9560
11.3265,49.6896
11.3339,49.4866
12.1265,49.4866
12.1471,49.7221
12.2082,49.9503
12.2082,49.9503
12.3081,50.1645
12.4436,50.3580
12.4436,50.3580
12.4436,50.3581
12.6107,50.5251
12.6107,50.5251
12.6107,50.5252
12.8043,50.6607
12.8043,50.6607
12.8319,50.6735
13.0185,50.7606
13.2467,50.8217
13.4232,50.8372
13.4232,50.8372
13.5411,50.8372
13.5411,50.8372
13.7176,50.8217
13.9458,50.7606
14.1600,50.6607
14.3535,50.5251
14.5206,50.3581
14.6562,50.1645
14.7560,49.9503
14.8172,49.7221
14.8378,49.4866
14.8378,49.4866
48.1265,49.4866
48.1471,49.7221
48.2082,49.9503
48.2082,49.9503
48.3081,50.1645
48.4436,50.3580
48.4436,50.3580
48.4436,50.3581
48.6107,50.5251
48.6107,50.5251
48.6107,50.5252
48.8043,50.6607
48.8043,50.6607
48.8319,50.6735
49.0185,50.7606
49.2467,50.8217
49.4232,50.8372
49.4232,50.8372
49.5411,50.8372
49.5411,50.8372
49.7176,50.8217
49.9458,50.7606
50.1600,50.6607
50.3535,50.5251
50.5206,50.3581
50.6562,50.1645
50.7560,49.9503
50.8172,49.7221
50.8319,49.5544
51.6279,49.5544
51.6576,49.8237
51.7261,50.0857
51.8320,50.3350
51.8771,50.4089
51.9731,50.5663
52.1464,50.7745
52.3481,50.9552
52.5741,51.1047
52.8193,51.2197
53.0787,51.2977
53.0787,51.2977
53.0787,51.2977
53.3467,51.3372
53.3467,51.3372
53.5498,51.3372
53.5845,51.3346
53.7523,51.3223
53.7523,51.3223
53.7523,51.3223
53.8628,51.2977
54.0167,51.2634
54.2697,51.1667
54.5059,51.0341
54.7203,50.8685
54.9083,50.6735
55.0659,50.4532
55.1149,50.3581
55.1898,50.2123
55.1898,50.2123
55.2773,49.9560
55.2773,49.9560
55.3265,49.6896
55.3364,49.4189
55.3179,49.2512
55.3067,49.1496
55.2382,48.8876
55.1323,48.6383
55.1182,48.6153
54.9912,48.4070
54.8179,48.1988
54.8179,48.1988
54.8179,48.1988
54.6162,48.0181
54.6161,48.0181
54.3902,47.8686
54.1450,47.7536
53.9875,47.7063
53.8856,47.6756
53.6176,47.6362
53.6176,47.6362
53.4145,47.6362
53.4145,47.6362
53.2120,47.6510
53.2120,47.6510
52.9476,47.7099
52.9476,47.7099
52.6946,47.8066
52.4584,47.9392
52.4584,47.9392
52.2440,48.1048
52.0560,48.2998
52.0560,48.2998
51.8983,48.5201
51.8983,48.5201
51.7745,48.7610
51.7745,48.7610
51.6870,49.0173
51.6870,49.0174
51.6378,49.2837
51.6378,49.2837
51.6279,49.5544
50.8319,49.5544
50.8378,49.4866
50.8172,49.2512
50.7560,49.0230
50.6562,48.8088
50.6562,48.8088
50.6562,48.8088
50.5206,48.6153
50.5206,48.6153
50.5206,48.6152
50.3535,48.4482
50.3535,48.4482
50.3535,48.4481
50.1600,48.3126
50.1600,48.3126
49.9458,48.2127
49.9458,48.2127
49.7176,48.1516
49.5852,48.1400
49.5411,48.1362
49.4232,48.1362
49.3879,48.1392
49.2467,48.1516
49.0185,48.2127
49.0185,48.2127
48.8043,48.3126
48.6107,48.4481
48.6107,48.4482
48.4436,48.6152
48.4436,48.6153
48.3081,48.8088
48.2082,49.0230
48.2082,49.0230
48.1471,49.2512
48.1265,49.4866
14.8378,49.4866
14.8172,49.2512
14.7560,49.0230
14.6562,48.8088
14.6562,48.8088
14.6562,48.8088
14.5206,48.6153
14.5206,48.6153
14.5206,48.6152
14.3535,48.4482
14.3535,48.4482
14.3535,48.4481
14.1600,48.3126
14.1600,48.3126
13.9458,48.2127
13.9458,48.2127
13.7176,48.1516
13.5852,48.1400
13.5411,48.1362
13.4232,48.1362
13.3879,48.1392
13.2467,48.1516
13.0185,48.2127
13.0185,48.2127
12.8043,48.3126
12.6107,48.4481
12.6107,48.4482
12.4436,48.6152
12.4436,48.6153
12.3081,48.8088
12.2082,49.0230
12.2082,49.0230
12.1471,49.2512
12.1265,49.4866
11.3339,49.4866
11.3364,49.4189
11.3179,49.2512
11.3067,49.1496
11.2382,48.8876
11.1323,48.6383
11.1182,48.6153
10.9912,48.4070
10.8179,48.1988
10.8179,48.1988
10.8179,48.1988
10.6162,48.0181
10.6161,48.0181
10.3902,47.8686
10.1450,47.7536
9.9875,47.7063
9.8856,47.6756
9.6176,47.6362
9.6176,47.6362
9.4145,47.6362
9.4145,47.6362
9.2120,47.6510
9.2120,47.6510
8.9476,47.7099
8.9476,47.7099
8.6946,47.8066
8.4584,47.9392
8.4584,47.9392
8.2440,48.1048
8.0560,48.2998
8.0560,48.2998
7.8983,48.5201
7.8983,48.5201
7.7745,48.7610
7.7745,48.7610
7.6870,49.0173
7.6870,49.0174
7.6378,49.2837
7.6378,49.2837
7.6279,49.5544
4.5856,49.5544
4.5826,49.4866
4.5826,14.1049
40.2698,14.1049
40.2800,14.2914
40.2800,14.2914
40.3299,14.4713
40.4174,14.6363
40.4174,14.6363
40.4728,14.7016
40.5017,14.7664
40.4909,14.8366
40.4778,14.8570
40.4782,14.8573
40.3696,15.0174
40.3098,15.1677
42.6521,15.1677
42.6521,15.1676
42.6339,15.1022
42.5465,14.9373
42.5465,14.9373
42.4914,14.8725
42.4626,14.8076
42.4734,14.7375
42.4868,14.7166
42.4865,14.7164
42.4965,14.7016
42.5951,14.5561
42.6642,14.3827
42.6944,14.1984
42.6843,14.0119
42.6344,13.8320
42.5469,13.6670
42.4914,13.6017
42.4626,13.5369
42.4734,13.4667
42.4865,13.4463
42.4861,13.4460
42.5947,13.2859
42.6545,13.1357
40.3122,13.1357
40.3304,13.2011
40.4178,13.3660
40.4178,13.3660
40.4728,13.4308
40.5017,13.4957
40.4909,13.5658
40.4775,13.5867
40.4778,13.5869
40.3692,13.7471
40.3001,13.9206
40.2698,14.1049
4.5826,14.1049
4.5826,11.5649
40.2698,11.5649
40.2800,11.7514
40.2800,11.7514
40.3299,11.9313
40.4174,12.0963
40.4174,12.0963
40.4728,12.1616
40.5017,12.2264
40.4909,12.2966
40.4778,12.3170
40.4782,12.3173
40.3696,12.4774
40.3098,12.6276
42.6521,12.6276
42.6521,12.6276
42.6339,12.5622
42.5465,12.3973
42.5465,12.3973
42.4914,12.3325
42.4626,12.2676
42.4734,12.1975
42.4868,12.1766
42.4865,12.1764
42.4965,12.1616
42.5951,12.0161
42.6642,11.8427
42.6944,11.6584
42.6843,11.4719
42.6344,11.2920
42.5469,11.1270
42.4914,11.0617
42.4626,10.9969
42.4734,10.9267
42.4865,10.9063
42.4861,10.9060
42.5947,10.7459
42.6545,10.5956
40.3122,10.5956
40.3304,10.6611
40.4178,10.8260
40.4178,10.8260
40.4728,10.8908
40.5017,10.9557
40.4909,11.0258
40.4775,11.0467
40.4778,11.0469
40.3692,11.2071
40.3001,11.3806
40.2698,11.5649
4.5826,11.5649
4.5826,9.0249
40.2698,9.0249
40.2800,9.2114
40.2800,9.2114
40.3299,9.3913
40.4174,9.5563
40.4174,9.5563
40.4728,9.6216
40.5017,9.6864
40.4909,9.7566
40.4778,9.7770
40.4782,9.7773
40.3696,9.9374
40.3098,10.0877
42.6521,10.0877
42.6521,10.0876
42.6339,10.0222
42.5465,9.8573
42.5465,9.8573
42.4914,9.7925
42.4626,9.7276
42.4734,9.6575
42.4868,9.6366
42.4865,9.6364
42.4965,9.6216
42.5951,9.4761
42.6642,9.3027
42.6944,9.1184
42.6843,8.9319
42.6344,8.7520
42.5469,8.5870
42.5020,8.5341
42.4260,8.4447
42.4260,8.4447
42.4260,8.4447
42.2774,8.3317
42.2774,8.3317
42.2774,8.3317
42.1079,8.2533
41.9255,8.2132
41.9255,8.2131
41.9255,8.2131
41.0856,8.2131
41.0856,8.2131
40.9465,8.2283
40.9465,8.2283
40.7695,8.2879
40.7695,8.2879
40.6095,8.3842
40.4740,8.5126
40.3692,8.6671
40.3001,8.8406
40.2698,9.0249
4.5826,9.0249
4.5826,5.5544
7.6279,5.5544
7.6576,5.8237
7.7261,6.0857
7.8320,6.3350
7.8771,6.4089
7.9731,6.5663
8.1464,6.7745
8.3481,6.9552
8.5741,7.1047
8.8193,7.2197
9.0787,7.2977
9.0787,7.2977
9.0787,7.2977
9.3467,7.3371
9.3467,7.3371
9.5498,7.3371
9.5845,7.3346
9.7523,7.3223
9.7523,7.3223
9.7523,7.3223
9.8628,7.2977
10.0167,7.2634
10.2697,7.1667
10.5059,7.0341
10.7203,6.8685
10.9083,6.6735
11.0659,6.4532
11.1149,6.3581
11.1898,6.2123
11.1898,6.2123
11.2773,5.9560
11.2773,5.9560
11.3265,5.6896
11.3339,5.4867
12.1265,5.4867
12.1471,5.7221
12.2082,5.9503
12.2082,5.9503
12.3081,6.1645
12.4436,6.3580
12.4436,6.3580
12.4436,6.3581
12.6107,6.5251
12.6107,6.5251
12.6107,6.5252
12.8043,6.6607
12.8043,6.6607
12.8319,6.6735
13.0185,6.7606
13.2467,6.8217
13.4232,6.8371
13.4232,6.8371
13.5411,6.8371
13.5411,6.8371
13.7176,6.8217
13.9458,6.7606
14.1600,6.6607
14.3535,6.5251
14.5206,6.3581
14.6562,6.1645
14.7560,5.9503
14.8172,5.7221
14.8378,5.4867
48.1265,5.4867
48.1471,5.7221
48.2082,5.9503
48.2082,5.9503
48.3081,6.1645
48.4436,6.3580
48.4436,6.3580
48.4436,6.3581
48.6107,6.5251
48.6107,6.5251
48.6107,6.5252
48.8043,6.6607
48.8043,6.6607
48.8319,6.6735
49.0185,6.7606
49.2467,6.8217
49.4232,6.8371
49.4232,6.8371
49.5411,6.8371
49.5411,6.8371
49.7176,6.8217
49.9458,6.7606
50.1600,6.6607
50.3535,6.5251
50.5206,6.3581
50.6562,6.1645
50.7560,5.9503
50.8172,5.7221
50.8319,5.5544
51.6279,5.5544
51.6576,5.8237
51.7261,6.0857
51.8320,6.3350
51.8771,6.4089
51.9731,6.5663
52.1464,6.7745
52.3481,6.9552
52.5741,7.1047
52.8193,7.2197
53.0787,7.2977
53.0787,7.2977
53.0787,7.2977
53.3467,7.3371
53.3467,7.3371
53.5498,7.3371
53.5845,7.3346
53.7523,7.3223
53.7523,7.3223
53.7523,7.3223
53.8628,7.2977
54.0167,7.2634
54.2697,7.1667
54.5059,7.0341
54.7203,6.8685
54.9083,6.6735
55.0659,6.4532
55.1149,6.3581
55.1898,6.2123
55.1898,6.2123
55.2773,5.9560
55.2773,5.9560
55.3265,5.6896
55.3364,5.4189
55.3215,5.2837
55.3067,5.1496
55.2382,4.8876
55.1323,4.6383
55.1182,4.6153
54.9912,4.4070
54.8179,4.1988
54.8179,4.1988
54.8179,4.1988
54.6162,4.0181
54.6161,4.0181
54.3902,3.8686
54.1450,3.7536
53.9875,3.7063
53.8856,3.6756
53.6176,3.6361
53.6176,3.6361
53.4145,3.6361
53.4145,3.6361
53.2120,3.6510
53.2120,3.6510
52.9476,3.7099
52.9476,3.7099
52.6946,3.8066
52.4584,3.9392
52.4584,3.9392
52.2440,4.1048
52.0560,4.2998
52.0560,4.2998
51.8983,4.5201
51.8983,4.5201
51.7745,4.7610
51.7745,4.7610
51.6870,5.0173
51.6870,5.0174
51.6378,5.2837
51.6378,5.2837
51.6279,5.5544
50.8319,5.5544
50.8378,5.4867
50.8172,5.2512
50.7560,5.0230
50.6562,4.8088
50.6562,4.8088
50.6562,4.8088
50.5206,4.6153
50.5206,4.6153
50.5206,4.6152
50.3535,4.4482
50.3535,4.4482
50.3535,4.4481
50.1600,4.3126
50.1600,4.3126
49.9458,4.2127
49.9458,4.2127
49.7176,4.1516
49.5852,4.1400
49.5411,4.1361
49.4232,4.1361
49.3879,4.1392
49.2467,4.1516
49.0185,4.2127
49.0185,4.2127
48.8043,4.3126
48.6107,4.4481
48.6107,4.4482
48.4436,4.6152
48.4436,4.6153
48.3081,4.8088
48.2082,5.0230
48.2082,5.0230
48.1471,5.2512
48.1265,5.4867
14.8378,5.4867
14.8172,5.2512
14.7560,5.0230
14.6562,4.8088
14.6562,4.8088
14.6562,4.8088
14.5206,4.6153
14.5206,4.6153
14.5206,4.6152
14.3535,4.4482
14.3535,4.4482
14.3535,4.4481
14.1600,4.3126
14.1600,4.3126
13.9458,4.2127
13.9458,4.2127
13.7176,4.1516
13.5852,4.1400
13.5411,4.1361
13.4232,4.1361
13.3879,4.1392
13.2467,4.1516
13.0185,4.2127
13.0185,4.2127
12.8043,4.3126
12.6107,4.4481
12.6107,4.4482
12.4436,4.6152
12.4436,4.6153
12.3081,4.8088
12.2082,5.0230
12.2082,5.0230
12.1471,5.2512
12.1265,5.4867
11.3339,5.4867
11.3364,5.4189
11.3215,5.2837
11.3067,5.1496
11.2382,4.8876
11.1323,4.6383
11.1182,4.6153
10.9912,4.4070
10.8179,4.1988
10.8179,4.1988
10.8179,4.1988
10.6162,4.0181
10.6161,4.0181
10.3902,3.8686
10.1450,3.7536
9.9875,3.7063
9.8856,3.6756
9.6176,3.6361
9.6176,3.6361
9.4145,3.6361
9.4145,3.6361
9.2120,3.6510
9.2120,3.6510
8.9476,3.7099
8.9476,3.7099
8.6946,3.8066
8.4584,3.9392
8.4584,3.9392
8.2440,4.1048
8.0560,4.2998
8.0560,4.2998
7.8983,4.5201
7.8983,4.5201
7.7745,4.7610
7.7745,4.7610
7.6870,5.0173
7.6870,5.0174
7.6378,5.2837
7.6378,5.2837
7.6279,5.5544
4.5826,5.5544
4.5826,5.4866
4.6012,5.0624
4.6016,5.0569
4.6061,5.0230
4.6567,4.6386
4.6577,4.6332
4.6616,4.6153
4.7490,4.2212
4.7504,4.2159
4.7514,4.2127
4.8773,3.8135
4.8792,3.8084
4.9505,3.6361
5.0406,3.4186
5.0429,3.4136
5.2378,3.0393
5.2405,3.0346
5.4672,2.6787
5.4704,2.6742
5.7272,2.3395
5.7308,2.3353
6.0158,2.0242
6.0197,2.0203
6.1761,1.8770
6.3308,1.7353
6.3350,1.7317
6.6697,1.4749
6.6742,1.4717
7.0301,1.2450
7.0348,1.2423
7.4091,1.0475
7.4140,1.0451
7.8039,0.8837
7.8090,0.8818
8.2114,0.7549
8.2167,0.7535
8.6287,0.6622
8.6341,0.6612
9.0524,0.6062
9.0579,0.6057
9.4821,0.5871
9.5091,0.5871
53.4552,0.5871
53.4821,0.5871
Z" /> 
</g>
</g>
</g>
<g style="fill:#000000; fill-opacity:1.0000; 
stroke:#000000; stroke-width:0.0000; stroke-opacity:1; 
stroke-linecap:round; stroke-linejoin:round;">
<circle cx="9.4821" cy="5.4867" r="1.6000" /> 
</g>
<g style="fill:#000000; fill-opacity:1.0000; 
stroke:#000000; stroke-width:0.0212; stroke-opacity:1; 
stroke-linecap:round; stroke-linejoin:round;">
</g>
<g style="fill:#000000; fill-opacity:1.0000; 
stroke:#000000; stroke-width:0.0000; stroke-opacity:1; 
stroke-linecap:round; stroke-linejoin:round;">
<circle cx="9.4821" cy="49.4866" r="1.6000" /> 
</g>
<g style="fill:#000000; fill-opacity:1.0000; 
stroke:#000000; stroke-width:0.0212; stroke-opacity:1; 
stroke-linecap:round; stroke-linejoin:round;">
</g>
<g style="fill:#000000; fill-opacity:1.0000; 
stroke:#000000; stroke-width:0.0000; stroke-opacity:1; 
stroke-linecap:round; stroke-linejoin:round;">
<circle cx="53.4821" cy="49.4866" r="1.6000" /> 
</g>
<g style="fill:#000000; fill-opacity:1.0000; 
stroke:#000000; stroke-width:0.0212; stroke-opacity:1; 
stroke-linecap:round; stroke-linejoin:round;">
</g>
<g style="fill:#000000; fill-opacity:1.0000; 
stroke:#000000; stroke-width:0.0000; stroke-opacity:1; 
stroke-linecap:round; stroke-linejoin:round;">
<circle cx="13.4821" cy="5.4867" r="1.1000" /> 
</g>
<g style="fill:#000000; fill-opacity:1.0000; 
stroke:#000000; stroke-width:0.0212; stroke-opacity:1; 
stroke-linecap:round; stroke-linejoin:round;">
</g>
<g style="fill:#000000; fill-opacity:1.0000; 
stroke:#000000; stroke-width:0.0000; stroke-opacity:1; 
stroke-linecap:round; stroke-linejoin:round;">
<circle cx="53.4821" cy="5.4867" r="1.6000" /> 
</g>
<g style="fill:#000000; fill-opacity:1.0000; 
stroke:#000000; stroke-width:0.0212; stroke-opacity:1; 
stroke-linecap:round; stroke-linejoin:round;">
</g>
<g style="fill:#000000; fill-opacity:1.0000; 
stroke:#000000; stroke-width:0.0000; stroke-opacity:1; 
stroke-linecap:round; stroke-linejoin:round;">
<circle cx="49.4821" cy="5.4867" r="1.1000" /> 
</g>
<g style="fill:#000000; fill-opacity:1.0000; 
stroke:#000000; stroke-width:0.0212; stroke-opacity:1; 
stroke-linecap:round; stroke-linejoin:round;">
</g>
<g style="fill:#000000; fill-opacity:1.0000; 
stroke:#000000; stroke-width:0.0000; stroke-opacity:1; 
stroke-linecap:round; stroke-linejoin:round;">
<circle cx="13.4821" cy="49.4866" r="1.1000" /> 
</g>
<g style="fill:#000000; fill-opacity:1.0000; 
stroke:#000000; stroke-width:0.0212; stroke-opacity:1; 
stroke-linecap:round; stroke-linejoin:round;">
</g>
<g style="fill:#000000; fill-opacity:1.0000; 
stroke:#000000; stroke-width:0.0000; stroke-opacity:1; 
stroke-linecap:round; stroke-linejoin:round;">
<circle cx="49.4821" cy="49.4866" r="1.1000" /> 
</g>
<g style="fill:#000000; fill-opacity:1.0000; 
stroke:#000000; stroke-width:0.0212; stroke-opacity:1; 
stroke-linecap:round; stroke-linejoin:round;">
</g>
<g style="fill:#FFFFFF; fill-opacity:1.0000; 
stroke:#FFFFFF; stroke-width:0.0212; stroke-opacity:1; 
stroke-linecap:round; stroke-linejoin:round;">
<g >
</g>
<g >
</g>
<g >
</g>
<g >
</g>
<g >
</g>
<g >
</g>
<g >
</g>
<g >
</g>
<g >
</g>
<g >
</g>
<g >
</g>
<g >
</g>
<g >
</g>
<g >
</g>
<g >
</g>
<g >
</g>
</g>
<g style="fill:#FFFFFF; fill-opacity:1.0000; 
stroke:#FFFFFF; stroke-width:0.0212; stroke-opacity:1; 
stroke-linecap:round; stroke-linejoin:round;">
</g>
<g style="fill:#2F2D31; fill-opacity:1.0000; 
stroke:#2F2D31; stroke-width:0.0212; stroke-opacity:1; 
stroke-linecap:round; stroke-linejoin:round;">
</g>
<g style="fill:#2F2D31; fill-opacity:1.0000; 
stroke:#2F2D31; stroke-width:0.1500; stroke-opacity:1; 
stroke-linecap:round; stroke-linejoin:round;">
</g>
<g style="fill:#2F2D31; fill-opacity:0.0; 
stroke:#2F2D31; stroke-width:0.1500; stroke-opacity:1; 
stroke-linecap:round; stroke-linejoin:round;">
<path d="M42.9821 16.4867
L42.9821 38.4866
" />
<path d="M58.4821 8.4866
L42.9821 16.4867
" />
<path d="M4.4821 49.4866
L4.4821 5.4867
" />
<path d="M58.4821 5.4867
L58.4821 8.4866
" />
<path d="M9.4821 0.4866
L53.4821 0.4866
" />
<path d="M42.9821 38.4866
L58.4821 46.4866
" />
<path d="M53.4821 54.4866
L9.4821 54.4866
" />
</g>
<g style="fill:#2F2D31; fill-opacity:0.0; 
stroke:#2F2D31; stroke-width:0.2000; stroke-opacity:1; 
stroke-linecap:round; stroke-linejoin:round;">
<path d="M58.4821 46.4866
L58.4821 49.4866
" />
</g>
<g style="fill:#2F2D31; fill-opacity:0.0; 
stroke:#2F2D31; stroke-width:0.1500; stroke-opacity:1; 
stroke-linecap:round; stroke-linejoin:round;">
<path d="M58.4821 5.4867 A5.0000 5.0000 0.0 0 0 53.4821 0.4867" />
<path d="M53.4821 54.4866 A5.0000 5.0000 0.0 0 0 58.4821 49.4866" />
<path d="M9.4821 0.4867 A5.0000 5.0000 0.0 0 0 4.4821 5.4867" />
<path d="M4.4821 49.4866 A5.0000 5.0000 0.0 0 0 9.4821 54.4866" />
<g >
</g>
<g >
</g>
<g >
</g>
<g >
</g>
<g >
</g>
<g >
</g>
<g >
</g>
<g >
</g>
<g >
</g>
<g >
</g>
<g >
</g>
<g >
</g>
<g >
</g>
<g >
</g>
<g >
</g>
<g >
</g>
</g> 
</svg>
