<?xml version="1.0" standalone="no"?>
 <!DOCTYPE svg PUBLIC "-//W3C//DTD SVG 1.1//EN" 
 "http://www.w3.org/Graphics/SVG/1.1/DTD/svg11.dtd"> 
<svg
  xmlns:svg="http://www.w3.org/2000/svg"
  xmlns="http://www.w3.org/2000/svg"
  xmlns:xlink="http://www.w3.org/1999/xlink"
  version="1.1"
  width="26.3652mm" height="26.3906mm" viewBox="0.0000 0.0000 26.3652 26.3906">
<title>SVG Image created as working-brd.svg date 2023/09/11 19:52:41 </title>
  <desc>Image generated by PCBNEW </desc>
<g style="fill:#000000; fill-opacity:1.0000;stroke:#000000; stroke-opacity:1.0000;
stroke-linecap:round; stroke-linejoin:round;"
 transform="translate(0 0) scale(1 1)">
</g>
<g style="fill:#000000; fill-opacity:0.0; 
stroke:#000000; stroke-width:0.0000; stroke-opacity:1; 
stroke-linecap:round; stroke-linejoin:round;">
</g>
<g style="fill:#000000; fill-opacity:1.0000; 
stroke:#000000; stroke-width:0.0212; stroke-opacity:1; 
stroke-linecap:round; stroke-linejoin:round;">
<rect x="-5.000000" y="-5.000000" width="36.378000" height="36.402000" rx="0.000000" />
</g>
<g style="fill:#FFFFFF; fill-opacity:1.0000; 
stroke:#FFFFFF; stroke-width:0.0212; stroke-opacity:1; 
stroke-linecap:round; stroke-linejoin:round;">
<g >
</g>
<g >
</g>
<g >
</g>
<g >
</g>
</g>
<g style="fill:#FFFFFF; fill-opacity:1.0000; 
stroke:#FFFFFF; stroke-width:0.0212; stroke-opacity:1; 
stroke-linecap:round; stroke-linejoin:round;">
<g >
</g>
<g >
</g>
<g >
</g>
<g >
</g>
</g>
<g style="fill:#FFFFFF; fill-opacity:1.0000; 
stroke:#FFFFFF; stroke-width:0.0212; stroke-opacity:1; 
stroke-linecap:round; stroke-linejoin:round;">
<g >
</g>
<g >
</g>
<g >
</g>
<g >
</g>
</g>
<g style="fill:#FFFFFF; fill-opacity:1.0000; 
stroke:#FFFFFF; stroke-width:0.0212; stroke-opacity:1; 
stroke-linecap:round; stroke-linejoin:round;">
</g>
<g style="fill:#174D58; fill-opacity:1.0000; 
stroke:#174D58; stroke-width:0.0212; stroke-opacity:1; 
stroke-linecap:round; stroke-linejoin:round;">
</g>
<g style="fill:#174D58; fill-opacity:1.0000; 
stroke:#174D58; stroke-width:0.0000; stroke-opacity:1; 
stroke-linecap:round; stroke-linejoin:round;">
<path style="fill:#174D58; fill-opacity:1.0000; 
stroke:#174D58; stroke-width:0.0000; stroke-opacity:1; 
stroke-linecap:round; stroke-linejoin:round;fill-rule:evenodd;"
d="M 19.6150,1.4110
20.4700,1.4120
21.2540,1.4130
21.9530,1.4150
22.5560,1.4160
23.0490,1.4190
23.4200,1.4210
23.6560,1.4230
23.7440,1.4260
23.9220,1.5240
24.0550,1.6940
24.0570,1.6970
24.1000,1.7990
24.0950,4.2360
24.0900,6.6730
24.0290,6.7710
23.8710,6.9290
23.7730,6.9900
17.7820,6.9940
16.6370,6.9950
15.6430,6.9950
14.7880,6.9950
14.0630,6.9950
13.4590,6.9940
12.9630,6.9930
12.5680,6.9910
12.2620,6.9890
12.0360,6.9860
11.8790,6.9820
11.7820,6.9780
11.7340,6.9730
11.7270,6.9710
11.5530,6.8380
11.4660,6.7040
11.4560,6.6690
11.4480,6.6140
11.4420,6.5200
11.4370,6.3700
11.4340,6.1460
11.4320,5.8320
11.4310,5.4100
11.4300,4.8620
11.4300,4.1900
11.4300,1.7700
11.4730,1.6900
11.6680,1.4800
11.7200,1.4520
11.8100,1.4100
17.7400,1.4100
18.7010,1.4100
Z" /> 
<g >
</g>
<g >
</g>
<g >
</g>
<g >
</g>
</g>
<g style="fill:#000000; fill-opacity:1.0000; 
stroke:#000000; stroke-width:0.0000; stroke-opacity:1; 
stroke-linecap:round; stroke-linejoin:round;">
<circle cx="13.1890" cy="13.2010" r="2.5025" /> 
</g>
<g style="fill:#000000; fill-opacity:1.0000; 
stroke:#000000; stroke-width:0.0212; stroke-opacity:1; 
stroke-linecap:round; stroke-linejoin:round;">
</g>
<g style="fill:#000000; fill-opacity:1.0000; 
stroke:#000000; stroke-width:0.0000; stroke-opacity:1; 
stroke-linecap:round; stroke-linejoin:round;">
<circle cx="17.6860" cy="15.1950" r="0.4850" /> 
</g>
<g style="fill:#000000; fill-opacity:1.0000; 
stroke:#000000; stroke-width:0.0212; stroke-opacity:1; 
stroke-linecap:round; stroke-linejoin:round;">
</g>
<g style="fill:#000000; fill-opacity:1.0000; 
stroke:#000000; stroke-width:0.0000; stroke-opacity:1; 
stroke-linecap:round; stroke-linejoin:round;">
<circle cx="24.5930" cy="1.7910" r="0.4295" /> 
</g>
<g style="fill:#000000; fill-opacity:1.0000; 
stroke:#000000; stroke-width:0.0212; stroke-opacity:1; 
stroke-linecap:round; stroke-linejoin:round;">
</g>
<g style="fill:#FFFFFF; fill-opacity:1.0000; 
stroke:#FFFFFF; stroke-width:0.0212; stroke-opacity:1; 
stroke-linecap:round; stroke-linejoin:round;">
<g >
</g>
<g >
</g>
<g >
</g>
<g >
</g>
</g>
<g style="fill:#FFFFFF; fill-opacity:1.0000; 
stroke:#FFFFFF; stroke-width:0.0212; stroke-opacity:1; 
stroke-linecap:round; stroke-linejoin:round;">
</g>
<g style="fill:#FD0010; fill-opacity:0.4000; 
stroke:#FD0010; stroke-width:0.0212; stroke-opacity:1; 
stroke-linecap:round; stroke-linejoin:round;">
</g>
<g style="fill:#FD0010; fill-opacity:0.4000; 
stroke:#FD0010; stroke-width:0.0000; stroke-opacity:1; 
stroke-linecap:round; stroke-linejoin:round;">
<path style="fill:#FD0010; fill-opacity:0.4000; 
stroke:#FD0010; stroke-width:0.0000; stroke-opacity:1; 
stroke-linecap:round; stroke-linejoin:round;fill-rule:evenodd;"
d="M 18.0100,14.7160
18.2070,14.9120
18.2960,15.1720
18.2680,15.4070
18.1490,15.5950
17.9720,15.7420
17.9450,15.7560
17.6880,15.8100
17.5390,15.7940
17.2670,15.6470
17.1080,15.4070
17.0770,15.2230
17.1460,14.9410
17.3330,14.7310
17.6010,14.6280
17.7310,14.6250
Z" /> 
<path style="fill:#FD0010; fill-opacity:0.4000; 
stroke:#FD0010; stroke-width:0.0000; stroke-opacity:1; 
stroke-linecap:round; stroke-linejoin:round;fill-rule:evenodd;"
d="M 13.7940,18.5960
13.8020,18.6000
14.1000,18.8610
14.3030,19.2110
14.3500,19.3700
14.3600,19.4990
14.3690,19.7610
14.3750,20.1270
14.3800,20.5710
14.3820,21.0650
14.3830,21.5800
14.3810,22.0910
14.3780,22.5680
14.3730,22.9860
14.3660,23.3150
14.3570,23.5280
14.3500,23.5900
14.1940,23.9670
13.9180,24.2720
13.5570,24.4680
13.4870,24.4880
13.2290,24.5180
12.9510,24.5000
12.8700,24.4830
12.4880,24.2920
12.3580,24.1810
12.1690,23.9480
12.0620,23.7220
12.0100,23.5900
12.0040,21.5600
12.0030,20.8530
12.0030,20.2970
12.0060,19.8810
12.0100,19.5970
12.0170,19.4340
12.0210,19.3950
12.1450,19.0610
12.3730,18.7570
12.5660,18.6040
12.9680,18.4500
13.3880,18.4470
Z" /> 
<path style="fill:#FD0010; fill-opacity:0.4000; 
stroke:#FD0010; stroke-width:0.0000; stroke-opacity:1; 
stroke-linecap:round; stroke-linejoin:round;fill-rule:evenodd;"
d="M 13.6300,9.7140
13.6700,9.7190
14.3680,9.8930
15.0240,10.2070
15.2190,10.3360
15.5090,10.5770
15.8110,10.8810
16.0450,11.1660
16.4000,11.8010
16.6160,12.4930
16.6880,13.2140
16.6120,13.9360
16.5070,14.3200
16.2280,14.9490
15.8330,15.4980
15.6420,15.7000
15.0600,16.1690
14.4100,16.4940
13.6950,16.6730
13.2900,16.7080
13.0890,16.7120
12.9620,16.7090
12.9600,16.7080
12.5850,16.6580
12.2920,16.5960
12.0050,16.5060
11.9860,16.5000
11.3490,16.1910
10.7820,15.7500
10.3110,15.2010
10.0550,14.7700
9.8060,14.1130
9.7000,13.4080
9.6950,13.2000
9.7690,12.4500
9.9900,11.7610
10.3600,11.1310
10.6630,10.7710
11.2220,10.2940
11.8660,9.9470
12.5730,9.7410
12.7100,9.7190
12.9910,9.6980
13.3320,9.6960
Z" /> 
<g >
<circle cx="13.1890" cy="13.2010" r="2.5025" /> 
</g>
<g style="fill:#FD0010; fill-opacity:0.4000; 
stroke:#FD0010; stroke-width:0.0212; stroke-opacity:1; 
stroke-linecap:round; stroke-linejoin:round;">
</g>
<g style="fill:#FD0010; fill-opacity:0.4000; 
stroke:#FD0010; stroke-width:0.0000; stroke-opacity:1; 
stroke-linecap:round; stroke-linejoin:round;">
<circle cx="17.6860" cy="15.1950" r="0.4850" /> 
</g>
<g style="fill:#FD0010; fill-opacity:0.4000; 
stroke:#FD0010; stroke-width:0.0212; stroke-opacity:1; 
stroke-linecap:round; stroke-linejoin:round;">
</g>
<g style="fill:#FD0010; fill-opacity:0.4000; 
stroke:#FD0010; stroke-width:0.0000; stroke-opacity:1; 
stroke-linecap:round; stroke-linejoin:round;">
<circle cx="24.5930" cy="1.7910" r="0.4295" /> 
</g>
<g style="fill:#FD0010; fill-opacity:0.4000; 
stroke:#FD0010; stroke-width:0.0212; stroke-opacity:1; 
stroke-linecap:round; stroke-linejoin:round;">
</g>
<g >
</g>
<g >
</g>
<g >
</g>
</g>
<g style="fill:#FFFFFF; fill-opacity:1.0000; 
stroke:#FFFFFF; stroke-width:0.0212; stroke-opacity:1; 
stroke-linecap:round; stroke-linejoin:round;">
</g>
<g style="fill:#B2803A; fill-opacity:1.0000; 
stroke:#B2803A; stroke-width:0.0212; stroke-opacity:1; 
stroke-linecap:round; stroke-linejoin:round;">
</g>
<g style="fill:#B2803A; fill-opacity:1.0000; 
stroke:#B2803A; stroke-width:0.0000; stroke-opacity:1; 
stroke-linecap:round; stroke-linejoin:round;">
<path style="fill:#B2803A; fill-opacity:1.0000; 
stroke:#B2803A; stroke-width:0.0000; stroke-opacity:1; 
stroke-linecap:round; stroke-linejoin:round;fill-rule:evenodd;"
d="M 18.0110,14.6720
18.2160,14.8710
18.3040,15.1490
18.2900,15.3430
18.1630,15.5880
17.9370,15.7550
17.6650,15.8140
17.5170,15.7900
17.2590,15.6350
17.1030,15.3920
17.0770,15.1070
17.0810,15.0850
17.2120,14.8030
17.4470,14.6290
17.5720,14.5850
17.7170,14.5840
Z" /> 
<path style="fill:#B2803A; fill-opacity:1.0000; 
stroke:#B2803A; stroke-width:0.0000; stroke-opacity:1; 
stroke-linecap:round; stroke-linejoin:round;fill-rule:evenodd;"
d="M 14.1080,9.5400
14.8250,9.7960
15.4690,10.1900
15.9850,10.6700
16.4360,11.2930
16.7560,11.9960
16.9220,12.6900
16.9430,12.9530
16.9470,13.2830
16.9350,13.5910
16.9220,13.7100
16.7460,14.4460
16.4410,15.1120
16.4310,15.1290
15.9820,15.7380
15.4230,16.2420
14.7760,16.6260
14.0620,16.8760
13.7300,16.9400
13.5580,16.9550
13.3160,16.9670
13.0760,16.9720
12.9120,16.9690
12.9000,16.9680
12.6320,16.9340
12.4590,16.9070
12.3340,16.8800
11.6010,16.6260
10.9470,16.2380
10.3880,15.7300
9.9390,15.1120
9.8000,14.8500
9.5370,14.1300
9.4260,13.3860
9.4650,12.6400
9.6500,11.9130
9.9810,11.2250
10.1800,10.9300
10.6860,10.3780
11.2880,9.9410
11.9610,9.6300
12.6810,9.4570
13.3300,9.4270
Z" /> 
<path style="fill:#B2803A; fill-opacity:1.0000; 
stroke:#B2803A; stroke-width:0.0000; stroke-opacity:1; 
stroke-linecap:round; stroke-linejoin:round;fill-rule:evenodd;"
d="M 13.3970,18.1760
13.5280,18.1950
13.6260,18.2240
14.0420,18.4400
14.3670,18.7650
14.5730,19.1680
14.6100,19.3100
14.6190,19.3750
14.6270,19.4710
14.6320,19.6180
14.6350,19.8360
14.6370,20.1430
14.6380,20.5590
14.6370,21.1020
14.6360,21.5500
14.6300,23.6300
14.5830,23.7700
14.3880,24.1580
14.1020,24.4720
14.0810,24.4890
13.8190,24.6480
13.5570,24.7520
13.3560,24.7820
13.1100,24.7910
12.9520,24.7800
12.4970,24.6200
12.1250,24.3290
11.8780,23.9670
11.8380,23.8840
11.8060,23.8070
11.7820,23.7160
11.7650,23.5920
11.7530,23.4140
11.7460,23.1640
11.7420,22.8220
11.7410,22.3670
11.7410,21.7810
11.7410,21.4800
11.7410,20.8300
11.7410,20.3190
11.7440,19.9290
11.7500,19.6400
11.7600,19.4320
11.7760,19.2840
11.7980,19.1780
11.8290,19.0930
11.8680,19.0100
11.8930,18.9600
11.9910,18.7880
12.1230,18.6350
12.1580,18.6000
12.4600,18.3570
12.7500,18.2260
12.8820,18.1890
13.0240,18.1740
13.1900,18.1720
Z" /> 
<g >
</g>
<g >
</g>
<g >
</g>
<g >
</g>
</g>
<g style="fill:#000000; fill-opacity:1.0000; 
stroke:#000000; stroke-width:0.0000; stroke-opacity:1; 
stroke-linecap:round; stroke-linejoin:round;">
<circle cx="13.1890" cy="13.2010" r="2.5025" /> 
</g>
<g style="fill:#000000; fill-opacity:1.0000; 
stroke:#000000; stroke-width:0.0212; stroke-opacity:1; 
stroke-linecap:round; stroke-linejoin:round;">
</g>
<g style="fill:#000000; fill-opacity:1.0000; 
stroke:#000000; stroke-width:0.0000; stroke-opacity:1; 
stroke-linecap:round; stroke-linejoin:round;">
<circle cx="17.6860" cy="15.1950" r="0.4850" /> 
</g>
<g style="fill:#000000; fill-opacity:1.0000; 
stroke:#000000; stroke-width:0.0212; stroke-opacity:1; 
stroke-linecap:round; stroke-linejoin:round;">
</g>
<g style="fill:#000000; fill-opacity:1.0000; 
stroke:#000000; stroke-width:0.0000; stroke-opacity:1; 
stroke-linecap:round; stroke-linejoin:round;">
<circle cx="24.5930" cy="1.7910" r="0.4295" /> 
</g>
<g style="fill:#000000; fill-opacity:1.0000; 
stroke:#000000; stroke-width:0.0212; stroke-opacity:1; 
stroke-linecap:round; stroke-linejoin:round;">
</g>
<g style="fill:#FFFFFF; fill-opacity:1.0000; 
stroke:#FFFFFF; stroke-width:0.0212; stroke-opacity:1; 
stroke-linecap:round; stroke-linejoin:round;">
</g>
<g style="fill:#37CBCB; fill-opacity:1.0000; 
stroke:#37CBCB; stroke-width:0.0212; stroke-opacity:1; 
stroke-linecap:round; stroke-linejoin:round;">
</g>
<g style="fill:#37CBCB; fill-opacity:1.0000; 
stroke:#37CBCB; stroke-width:0.0000; stroke-opacity:1; 
stroke-linecap:round; stroke-linejoin:round;">
<path style="fill:#37CBCB; fill-opacity:1.0000; 
stroke:#37CBCB; stroke-width:0.0000; stroke-opacity:1; 
stroke-linecap:round; stroke-linejoin:round;fill-rule:evenodd;"
d="M 14.1080,9.5400
14.8250,9.7960
15.4690,10.1900
15.9850,10.6700
16.4360,11.2930
16.7560,11.9960
16.9220,12.6900
16.9430,12.9530
16.9470,13.2830
16.9350,13.5910
16.9220,13.7100
16.7460,14.4460
16.4410,15.1120
16.4310,15.1290
15.9820,15.7380
15.4230,16.2420
14.7760,16.6260
14.0620,16.8760
13.7300,16.9400
13.5580,16.9550
13.3160,16.9670
13.0760,16.9720
12.9120,16.9690
12.9000,16.9680
12.6320,16.9340
12.4590,16.9070
12.3340,16.8800
11.6010,16.6260
10.9470,16.2380
10.3880,15.7300
9.9390,15.1120
9.8000,14.8500
9.5370,14.1300
9.4260,13.3860
9.4650,12.6400
9.6500,11.9130
9.9810,11.2250
10.1800,10.9300
10.6860,10.3780
11.2880,9.9410
11.9610,9.6300
12.6810,9.4570
13.3300,9.4270
Z" /> 
<path style="fill:#37CBCB; fill-opacity:1.0000; 
stroke:#37CBCB; stroke-width:0.0000; stroke-opacity:1; 
stroke-linecap:round; stroke-linejoin:round;fill-rule:evenodd;"
d="M 13.3970,18.1760
13.5280,18.1950
13.6260,18.2240
14.0420,18.4400
14.3670,18.7650
14.5730,19.1680
14.6100,19.3100
14.6190,19.3750
14.6270,19.4710
14.6320,19.6180
14.6350,19.8360
14.6370,20.1430
14.6380,20.5590
14.6370,21.1020
14.6360,21.5500
14.6300,23.6300
14.5830,23.7700
14.3880,24.1580
14.1020,24.4720
14.0810,24.4890
13.8190,24.6480
13.5570,24.7520
13.3560,24.7820
13.1100,24.7910
12.9520,24.7800
12.4970,24.6200
12.1250,24.3290
11.8780,23.9670
11.8380,23.8840
11.8060,23.8070
11.7820,23.7160
11.7650,23.5920
11.7530,23.4140
11.7460,23.1640
11.7420,22.8220
11.7410,22.3670
11.7410,21.7810
11.7410,21.4800
11.7410,20.8300
11.7410,20.3190
11.7440,19.9290
11.7500,19.6400
11.7600,19.4320
11.7760,19.2840
11.7980,19.1780
11.8290,19.0930
11.8680,19.0100
11.8930,18.9600
11.9910,18.7880
12.1230,18.6350
12.1580,18.6000
12.4600,18.3570
12.7500,18.2260
12.8820,18.1890
13.0240,18.1740
13.1900,18.1720
Z" /> 
<g >
</g>
<g >
</g>
<g >
</g>
<g >
</g>
</g>
<g style="fill:#000000; fill-opacity:1.0000; 
stroke:#000000; stroke-width:0.0000; stroke-opacity:1; 
stroke-linecap:round; stroke-linejoin:round;">
<circle cx="13.1890" cy="13.2010" r="2.5025" /> 
</g>
<g style="fill:#000000; fill-opacity:1.0000; 
stroke:#000000; stroke-width:0.0212; stroke-opacity:1; 
stroke-linecap:round; stroke-linejoin:round;">
</g>
<g style="fill:#000000; fill-opacity:1.0000; 
stroke:#000000; stroke-width:0.0000; stroke-opacity:1; 
stroke-linecap:round; stroke-linejoin:round;">
<circle cx="17.6860" cy="15.1950" r="0.4850" /> 
</g>
<g style="fill:#000000; fill-opacity:1.0000; 
stroke:#000000; stroke-width:0.0212; stroke-opacity:1; 
stroke-linecap:round; stroke-linejoin:round;">
</g>
<g style="fill:#000000; fill-opacity:1.0000; 
stroke:#000000; stroke-width:0.0000; stroke-opacity:1; 
stroke-linecap:round; stroke-linejoin:round;">
<circle cx="24.5930" cy="1.7910" r="0.4295" /> 
</g>
<g style="fill:#000000; fill-opacity:1.0000; 
stroke:#000000; stroke-width:0.0212; stroke-opacity:1; 
stroke-linecap:round; stroke-linejoin:round;">
</g>
<g style="fill:#FFFFFF; fill-opacity:1.0000; 
stroke:#FFFFFF; stroke-width:0.0212; stroke-opacity:1; 
stroke-linecap:round; stroke-linejoin:round;">
</g>
<g style="fill:#279B00; fill-opacity:0.4000; 
stroke:#279B00; stroke-width:0.0212; stroke-opacity:1; 
stroke-linecap:round; stroke-linejoin:round;">
</g>
<g style="fill:#279B00; fill-opacity:0.4000; 
stroke:#279B00; stroke-width:0.0000; stroke-opacity:1; 
stroke-linecap:round; stroke-linejoin:round;">
<path style="fill:#279B00; fill-opacity:0.4000; 
stroke:#279B00; stroke-width:0.0000; stroke-opacity:1; 
stroke-linecap:round; stroke-linejoin:round;fill-rule:evenodd;"
d="M 17.8480,14.6380
18.0890,14.7790
18.2220,14.9700
18.2680,15.2200
18.2260,15.4440
18.0490,15.6720
17.7990,15.7980
17.5550,15.7990
17.2880,15.6560
17.1190,15.4040
17.0890,15.2950
17.1110,15.0450
17.2350,14.8100
17.3050,14.7410
17.5700,14.6210
Z" /> 
<path style="fill:#279B00; fill-opacity:0.4000; 
stroke:#279B00; stroke-width:0.0000; stroke-opacity:1; 
stroke-linecap:round; stroke-linejoin:round;fill-rule:evenodd;"
d="M 13.7940,18.5960
13.8020,18.6000
14.1000,18.8610
14.3030,19.2110
14.3500,19.3700
14.3600,19.4990
14.3690,19.7610
14.3750,20.1270
14.3800,20.5710
14.3820,21.0650
14.3830,21.5800
14.3810,22.0910
14.3780,22.5680
14.3730,22.9860
14.3660,23.3150
14.3570,23.5280
14.3500,23.5900
14.1940,23.9670
13.9180,24.2720
13.5570,24.4680
13.4870,24.4880
13.2290,24.5180
12.9510,24.5000
12.8700,24.4830
12.4880,24.2920
12.3580,24.1810
12.1690,23.9480
12.0620,23.7220
12.0100,23.5900
12.0040,21.5600
12.0030,20.8530
12.0030,20.2970
12.0060,19.8810
12.0100,19.5970
12.0170,19.4340
12.0210,19.3950
12.1450,19.0610
12.3730,18.7570
12.5660,18.6040
12.9680,18.4500
13.3880,18.4470
Z" /> 
<path style="fill:#279B00; fill-opacity:0.4000; 
stroke:#279B00; stroke-width:0.0000; stroke-opacity:1; 
stroke-linecap:round; stroke-linejoin:round;fill-rule:evenodd;"
d="M 13.6300,9.7140
13.6700,9.7190
14.3680,9.8930
15.0240,10.2070
15.2190,10.3360
15.5090,10.5770
15.8110,10.8810
16.0450,11.1660
16.4000,11.8010
16.6160,12.4930
16.6880,13.2140
16.6120,13.9360
16.5070,14.3200
16.2280,14.9490
15.8330,15.4980
15.6420,15.7000
15.0600,16.1690
14.4100,16.4940
13.6950,16.6730
13.2900,16.7080
13.0890,16.7120
12.9620,16.7090
12.9600,16.7080
12.5850,16.6580
12.2920,16.5960
12.0050,16.5060
11.9860,16.5000
11.3490,16.1910
10.7820,15.7500
10.3110,15.2010
10.0550,14.7700
9.8060,14.1130
9.7000,13.4080
9.6950,13.2000
9.7690,12.4500
9.9900,11.7610
10.3600,11.1310
10.6630,10.7710
11.2220,10.2940
11.8660,9.9470
12.5730,9.7410
12.7100,9.7190
12.9910,9.6980
13.3320,9.6960
Z" /> 
<g >
<circle cx="13.1890" cy="13.2010" r="2.5025" /> 
</g>
<g style="fill:#279B00; fill-opacity:0.4000; 
stroke:#279B00; stroke-width:0.0212; stroke-opacity:1; 
stroke-linecap:round; stroke-linejoin:round;">
</g>
<g style="fill:#279B00; fill-opacity:0.4000; 
stroke:#279B00; stroke-width:0.0000; stroke-opacity:1; 
stroke-linecap:round; stroke-linejoin:round;">
<circle cx="17.6860" cy="15.1950" r="0.4850" /> 
</g>
<g style="fill:#279B00; fill-opacity:0.4000; 
stroke:#279B00; stroke-width:0.0212; stroke-opacity:1; 
stroke-linecap:round; stroke-linejoin:round;">
</g>
<g style="fill:#279B00; fill-opacity:0.4000; 
stroke:#279B00; stroke-width:0.0000; stroke-opacity:1; 
stroke-linecap:round; stroke-linejoin:round;">
<circle cx="24.5930" cy="1.7910" r="0.4295" /> 
</g>
<g style="fill:#279B00; fill-opacity:0.4000; 
stroke:#279B00; stroke-width:0.0212; stroke-opacity:1; 
stroke-linecap:round; stroke-linejoin:round;">
</g>
<g >
</g>
<g >
</g>
<g >
</g>
</g>
<g style="fill:#FFFFFF; fill-opacity:1.0000; 
stroke:#FFFFFF; stroke-width:0.0212; stroke-opacity:1; 
stroke-linecap:round; stroke-linejoin:round;">
<g >
</g>
<g >
</g>
<g >
</g>
<g >
</g>
</g>
<g style="fill:#FFFFFF; fill-opacity:1.0000; 
stroke:#FFFFFF; stroke-width:0.0212; stroke-opacity:1; 
stroke-linecap:round; stroke-linejoin:round;">
</g>
<g style="fill:#0D115E; fill-opacity:1.0000; 
stroke:#0D115E; stroke-width:0.0212; stroke-opacity:1; 
stroke-linecap:round; stroke-linejoin:round;">
</g>
<g style="fill:#0D115E; fill-opacity:1.0000; 
stroke:#0D115E; stroke-width:0.0000; stroke-opacity:1; 
stroke-linecap:round; stroke-linejoin:round;">
<path style="fill:#0D115E; fill-opacity:1.0000; 
stroke:#0D115E; stroke-width:0.0000; stroke-opacity:1; 
stroke-linecap:round; stroke-linejoin:round;fill-rule:evenodd;"
d="M 10.7590,1.4110
11.4630,1.4110
12.0500,1.4120
12.5310,1.4130
12.9180,1.4150
13.2200,1.4170
13.4500,1.4200
13.6170,1.4230
13.7320,1.4270
13.8070,1.4320
13.8520,1.4380
13.8790,1.4440
13.8830,1.4460
14.0610,1.5750
14.1620,1.7320
14.1700,1.7780
14.1770,1.8770
14.1820,2.0440
14.1850,2.2960
14.1880,2.6490
14.1890,3.1190
14.1900,3.7220
14.1900,4.2100
14.1900,4.8940
14.1890,5.4350
14.1880,5.8520
14.1860,6.1610
14.1830,6.3790
14.1780,6.5260
14.1720,6.6170
14.1640,6.6710
14.1530,6.7050
14.0340,6.8710
13.8670,6.9780
13.8620,6.9800
13.7660,6.9840
13.5110,6.9880
13.0970,6.9910
12.5260,6.9940
11.8000,6.9960
10.9180,6.9980
9.8820,6.9990
8.6930,6.9990
7.8400,6.9990
6.7110,6.9990
5.7320,6.9990
4.8910,6.9980
4.1790,6.9970
3.5860,6.9960
3.0990,6.9940
2.7100,6.9920
2.4070,6.9900
2.1800,6.9870
2.0180,6.9830
1.9120,6.9790
1.8490,6.9740
1.8210,6.9690
1.8210,6.9680
1.6070,6.8000
1.5680,6.7320
1.5200,6.6300
1.5200,4.2100
1.5200,1.7900
1.5670,1.6890
1.7480,1.4820
1.8200,1.4420
1.8440,1.4360
1.8940,1.4310
1.9820,1.4260
2.1180,1.4220
2.3120,1.4190
2.5750,1.4170
2.9190,1.4150
3.3530,1.4130
3.8880,1.4120
4.5350,1.4110
5.3050,1.4100
6.2080,1.4100
7.2560,1.4100
7.8400,1.4100
8.9590,1.4100
9.9280,1.4100
Z" /> 
<g >
</g>
<g >
</g>
<g >
</g>
<g >
</g>
</g>
<g style="fill:#000000; fill-opacity:1.0000; 
stroke:#000000; stroke-width:0.0000; stroke-opacity:1; 
stroke-linecap:round; stroke-linejoin:round;">
<circle cx="13.1890" cy="13.2010" r="2.5025" /> 
</g>
<g style="fill:#000000; fill-opacity:1.0000; 
stroke:#000000; stroke-width:0.0212; stroke-opacity:1; 
stroke-linecap:round; stroke-linejoin:round;">
</g>
<g style="fill:#000000; fill-opacity:1.0000; 
stroke:#000000; stroke-width:0.0000; stroke-opacity:1; 
stroke-linecap:round; stroke-linejoin:round;">
<circle cx="17.6860" cy="15.1950" r="0.4850" /> 
</g>
<g style="fill:#000000; fill-opacity:1.0000; 
stroke:#000000; stroke-width:0.0212; stroke-opacity:1; 
stroke-linecap:round; stroke-linejoin:round;">
</g>
<g style="fill:#000000; fill-opacity:1.0000; 
stroke:#000000; stroke-width:0.0000; stroke-opacity:1; 
stroke-linecap:round; stroke-linejoin:round;">
<circle cx="24.5930" cy="1.7910" r="0.4295" /> 
</g>
<g style="fill:#000000; fill-opacity:1.0000; 
stroke:#000000; stroke-width:0.0212; stroke-opacity:1; 
stroke-linecap:round; stroke-linejoin:round;">
</g>
<g style="fill:#FFFFFF; fill-opacity:1.0000; 
stroke:#FFFFFF; stroke-width:0.0212; stroke-opacity:1; 
stroke-linecap:round; stroke-linejoin:round;">
<g >
</g>
<g >
</g>
<g >
</g>
<g >
</g>
</g>
<g style="fill:#FFFFFF; fill-opacity:1.0000; 
stroke:#FFFFFF; stroke-width:0.0212; stroke-opacity:1; 
stroke-linecap:round; stroke-linejoin:round;">
<g >
</g>
<g >
</g>
<g >
</g>
<g >
</g>
</g>
<g style="fill:#FFFFFF; fill-opacity:1.0000; 
stroke:#FFFFFF; stroke-width:0.0212; stroke-opacity:1; 
stroke-linecap:round; stroke-linejoin:round;">
<g >
</g>
<g >
</g>
<g >
</g>
<g >
</g>
</g>
<g style="fill:#FFFFFF; fill-opacity:1.0000; 
stroke:#FFFFFF; stroke-width:0.0212; stroke-opacity:1; 
stroke-linecap:round; stroke-linejoin:round;">
<g >
</g>
<g >
</g>
<g >
</g>
<g >
</g>
</g>
<g style="fill:#FFFFFF; fill-opacity:1.0000; 
stroke:#FFFFFF; stroke-width:0.0212; stroke-opacity:1; 
stroke-linecap:round; stroke-linejoin:round;">
<g >
</g>
<g >
</g>
<g >
</g>
<g >
</g>
</g>
<g style="fill:#FFFFFF; fill-opacity:1.0000; 
stroke:#FFFFFF; stroke-width:0.0212; stroke-opacity:1; 
stroke-linecap:round; stroke-linejoin:round;">
<g >
</g>
<g >
</g>
<g >
</g>
<g >
</g>
</g>
<g style="fill:#FFFFFF; fill-opacity:1.0000; 
stroke:#FFFFFF; stroke-width:0.0212; stroke-opacity:1; 
stroke-linecap:round; stroke-linejoin:round;">
<g >
</g>
<g >
</g>
<g >
</g>
<g >
</g>
</g>
<g style="fill:#FFFFFF; fill-opacity:1.0000; 
stroke:#FFFFFF; stroke-width:0.0212; stroke-opacity:1; 
stroke-linecap:round; stroke-linejoin:round;">
<g >
</g>
<g >
</g>
<g >
</g>
<g >
</g>
</g>
<g style="fill:#FFFFFF; fill-opacity:1.0000; 
stroke:#FFFFFF; stroke-width:0.0212; stroke-opacity:1; 
stroke-linecap:round; stroke-linejoin:round;">
</g>
<g style="fill:#2F2D31; fill-opacity:1.0000; 
stroke:#2F2D31; stroke-width:0.0212; stroke-opacity:1; 
stroke-linecap:round; stroke-linejoin:round;">
</g>
<g style="fill:#2F2D31; fill-opacity:0.0; 
stroke:#2F2D31; stroke-width:1.0000; stroke-opacity:1; 
stroke-linecap:round; stroke-linejoin:round;">
<path style="fill:#2F2D31; fill-opacity:0.0; 
stroke:#2F2D31; stroke-width:1.0000; stroke-opacity:1; 
stroke-linecap:round; stroke-linejoin:round;fill:none"
d="M 24.4490,0.5010
24.6160,0.5150
24.7780,0.5470
24.9320,0.5970
25.0790,0.6630
25.2170,0.7430
25.3440,0.8380
25.4610,0.9460
25.5650,1.0650
25.6560,1.1950
25.7330,1.3350
25.7950,1.4840
25.8400,1.6400
25.8680,1.8030
25.8780,1.9720
25.8780,24.4300
25.8770,24.4730
25.8630,24.6410
25.8310,24.8020
25.7810,24.9570
25.7150,25.1030
25.6350,25.2410
25.5400,25.3690
25.4320,25.4850
25.3130,25.5890
25.1830,25.6810
25.0430,25.7580
24.8940,25.8190
24.7380,25.8650
24.5750,25.8930
24.4060,25.9020
1.9720,25.9020
1.9290,25.9020
1.7620,25.8870
1.6000,25.8550
1.4460,25.8050
1.2990,25.7400
1.1610,25.6590
1.0340,25.5640
0.9170,25.4570
0.8130,25.3370
0.7220,25.2070
0.6450,25.0670
0.5830,24.9180
0.5380,24.7620
0.5100,24.5990
0.5000,24.4300
0.5000,1.9720
0.5010,1.9290
0.5150,1.7620
0.5470,1.6000
0.5970,1.4460
0.6630,1.2990
0.7430,1.1610
0.8380,1.0340
0.9460,0.9170
1.0650,0.8130
1.1950,0.7220
1.3350,0.6450
1.4840,0.5830
1.6400,0.5380
1.8030,0.5100
1.9720,0.5000
24.4060,0.5000
Z" /> 
<g >
</g>
<g >
</g>
<g >
</g>
<g >
</g>
</g> 
</svg>
