<?xml version="1.0" standalone="no"?>
 <!DOCTYPE svg PUBLIC "-//W3C//DTD SVG 1.1//EN" 
 "http://www.w3.org/Graphics/SVG/1.1/DTD/svg11.dtd"> 
<svg
  xmlns:svg="http://www.w3.org/2000/svg"
  xmlns="http://www.w3.org/2000/svg"
  xmlns:xlink="http://www.w3.org/1999/xlink"
  version="1.1"
  width="55.4736mm" height="132.7658mm" viewBox="0.0000 0.0000 55.4736 132.7658">
<title>SVG Image created as working-brd.svg date 2023/10/01 02:22:09 </title>
  <desc>Image generated by PCBNEW </desc>
<g style="fill:#000000; fill-opacity:1.0000;stroke:#000000; stroke-opacity:1.0000;
stroke-linecap:round; stroke-linejoin:round;"
 transform="translate(0 0) scale(1 1)">
</g>
<g style="fill:#000000; fill-opacity:0.0; 
stroke:#000000; stroke-width:0.0000; stroke-opacity:1; 
stroke-linecap:round; stroke-linejoin:round;">
</g>
<g style="fill:#000000; fill-opacity:1.0000; 
stroke:#000000; stroke-width:0.0212; stroke-opacity:1; 
stroke-linecap:round; stroke-linejoin:round;">
<rect x="-5.000000" y="-5.000000" width="65.488098" height="142.776500" rx="0.000000" />
</g>
<g style="fill:#FFFFFF; fill-opacity:1.0000; 
stroke:#FFFFFF; stroke-width:0.0212; stroke-opacity:1; 
stroke-linecap:round; stroke-linejoin:round;">
<g >
</g>
<g >
</g>
<g >
</g>
<g >
</g>
<g >
</g>
<g >
</g>
<g >
</g>
<g >
</g>
<g >
</g>
<g >
</g>
<g >
</g>
<g >
</g>
<g >
</g>
<g >
</g>
<g >
</g>
<g >
</g>
<g style="fill:#B2803A; fill-opacity:1.0000; 
stroke:#B2803A; stroke-width:0.0212; stroke-opacity:1; 
stroke-linecap:round; stroke-linejoin:round;">
<g >
</g>
<g style="fill:#B2803A; fill-opacity:1.0000; 
stroke:#B2803A; stroke-width:0.0000; stroke-opacity:1; 
stroke-linecap:round; stroke-linejoin:round;">
<path style="fill:#B2803A; fill-opacity:1.0000; 
stroke:#B2803A; stroke-width:0.0000; stroke-opacity:1; 
stroke-linecap:round; stroke-linejoin:round;fill-rule:evenodd;"
d="M 47.3782,1.8763
47.4247,1.9299
47.4360,1.9822
47.4360,129.2142
47.4160,129.2824
47.3624,129.3289
47.3100,129.3402
8.2780,129.3402
8.2099,129.3202
8.1634,129.2666
8.1520,129.2142
8.1520,126.9810
37.4348,126.9810
37.4723,127.2660
37.5482,127.5433
37.6610,127.8077
37.8086,128.0544
37.9884,128.2788
38.1969,128.4767
38.4304,128.6444
38.4342,128.6464
38.4342,128.6464
38.4559,128.6580
38.6844,128.7790
38.9544,128.8778
39.2353,128.9390
39.2639,128.9413
39.4583,128.9566
39.4583,128.9566
39.4608,128.9567
41.4163,128.9567
41.4185,128.9566
41.4185,128.9566
41.6266,128.9424
41.6266,128.9424
41.6309,128.9421
41.6351,128.9413
41.6351,128.9413
41.7716,128.9130
41.9124,128.8838
42.1834,128.7879
42.4389,128.6560
42.4424,128.6535
42.4424,128.6535
42.5565,128.5733
42.6741,128.4907
42.8847,128.2950
43.0668,128.0725
43.2170,127.8274
43.3325,127.5641
43.4113,127.2877
43.4518,127.0030
43.4519,126.9852
43.4533,126.7198
43.4533,126.7198
43.4533,126.7155
43.4158,126.4305
43.3399,126.1532
43.2271,125.8888
43.0795,125.6421
42.8997,125.4177
42.6912,125.2198
42.4577,125.0521
42.4359,125.0405
42.4127,125.0282
42.2037,124.9175
41.9337,124.8187
41.6528,124.7575
41.6217,124.7551
41.4298,124.7399
41.4298,124.7399
41.4273,124.7398
39.4718,124.7398
39.4696,124.7399
39.4696,124.7399
39.2615,124.7541
39.2615,124.7541
39.2572,124.7544
39.2530,124.7552
39.2530,124.7552
39.1165,124.7835
38.9757,124.8127
38.7047,124.9086
38.4492,125.0405
38.4457,125.0430
38.4457,125.0430
38.4356,125.0501
38.2140,125.2058
38.0034,125.4015
37.8213,125.6240
37.6711,125.8691
37.5556,126.1324
37.4768,126.4088
37.4363,126.6935
37.4363,126.6978
37.4363,126.6978
37.4348,126.9767
37.4348,126.9810
8.1520,126.9810
8.1520,111.3482
11.2307,111.3482
11.2500,111.7155
11.3075,112.0787
11.4027,112.4339
11.5345,112.7772
11.7014,113.1049
11.9017,113.4133
12.1331,113.6991
12.3932,113.9592
12.6790,114.1906
12.9874,114.3909
12.9903,114.3924
12.9903,114.3924
13.3121,114.5563
13.3151,114.5578
13.6584,114.6896
14.0136,114.7848
14.2066,114.8154
14.3736,114.8418
14.3736,114.8418
14.3768,114.8423
14.7440,114.8616
15.1113,114.8423
15.1145,114.8418
15.1145,114.8418
15.2815,114.8154
15.4745,114.7848
15.8297,114.6896
16.1730,114.5578
16.1760,114.5563
16.4978,114.3924
16.4978,114.3924
16.5007,114.3909
16.8091,114.1906
17.0949,113.9592
17.3550,113.6991
17.5864,113.4133
17.7867,113.1049
17.9536,112.7772
18.0854,112.4339
18.1806,112.0787
18.2381,111.7155
18.2574,111.3482
24.2307,111.3482
24.2500,111.7155
24.3075,112.0787
24.4027,112.4339
24.5345,112.7772
24.7014,113.1049
24.9017,113.4133
25.1331,113.6991
25.3932,113.9592
25.6790,114.1906
25.9874,114.3909
25.9903,114.3924
25.9903,114.3924
26.3121,114.5563
26.3151,114.5578
26.6584,114.6896
27.0136,114.7848
27.2066,114.8154
27.3736,114.8418
27.3736,114.8418
27.3768,114.8423
27.7440,114.8616
28.1113,114.8423
28.1145,114.8418
28.1145,114.8418
28.2815,114.8154
28.4745,114.7848
28.8297,114.6896
29.1730,114.5578
29.1760,114.5563
29.4978,114.3924
29.4978,114.3924
29.5007,114.3909
29.8091,114.1906
30.0949,113.9592
30.3550,113.6991
30.5864,113.4133
30.7867,113.1049
30.9536,112.7772
31.0854,112.4339
31.1806,112.0787
31.2381,111.7155
31.2574,111.3482
37.2307,111.3482
37.2500,111.7155
37.3075,112.0787
37.4027,112.4339
37.5345,112.7772
37.7014,113.1049
37.9017,113.4133
38.1331,113.6991
38.3932,113.9592
38.6790,114.1906
38.9874,114.3909
38.9903,114.3924
38.9903,114.3924
39.3121,114.5563
39.3151,114.5578
39.6584,114.6896
40.0136,114.7848
40.2066,114.8154
40.3736,114.8418
40.3736,114.8418
40.3768,114.8423
40.7440,114.8616
41.1113,114.8423
41.1145,114.8418
41.1145,114.8418
41.2815,114.8154
41.4745,114.7848
41.8297,114.6896
42.1730,114.5578
42.1760,114.5563
42.4978,114.3924
42.4978,114.3924
42.5007,114.3909
42.8091,114.1906
43.0949,113.9592
43.3550,113.6991
43.5864,113.4133
43.7867,113.1049
43.9536,112.7772
44.0854,112.4339
44.1806,112.0787
44.2381,111.7155
44.2574,111.3482
44.2381,110.9810
44.1806,110.6178
44.0854,110.2626
43.9536,109.9193
43.7867,109.5916
43.5864,109.2832
43.3550,108.9974
43.0949,108.7373
42.8091,108.5059
42.5007,108.3056
42.4978,108.3041
42.4978,108.3041
42.1760,108.1402
42.1730,108.1387
41.8297,108.0069
41.4745,107.9117
41.2815,107.8811
41.1145,107.8547
41.1145,107.8547
41.1113,107.8542
40.7440,107.8349
40.3768,107.8542
40.3736,107.8547
40.3736,107.8547
40.2066,107.8811
40.0136,107.9117
39.6584,108.0069
39.3151,108.1387
39.3121,108.1402
38.9903,108.3041
38.9903,108.3041
38.9874,108.3056
38.6790,108.5059
38.3932,108.7373
38.1331,108.9974
37.9017,109.2832
37.7014,109.5916
37.5345,109.9193
37.4027,110.2626
37.3075,110.6178
37.2500,110.9810
37.2307,111.3482
31.2574,111.3482
31.2381,110.9810
31.1806,110.6178
31.0854,110.2626
30.9536,109.9193
30.7867,109.5916
30.5864,109.2832
30.3550,108.9974
30.0949,108.7373
29.8091,108.5059
29.5007,108.3056
29.4978,108.3041
29.4978,108.3041
29.1760,108.1402
29.1730,108.1387
28.8297,108.0069
28.4745,107.9117
28.2815,107.8811
28.1145,107.8547
28.1145,107.8547
28.1113,107.8542
27.7440,107.8349
27.3768,107.8542
27.3736,107.8547
27.3736,107.8547
27.2066,107.8811
27.0136,107.9117
26.6584,108.0069
26.3151,108.1387
26.3121,108.1402
25.9903,108.3041
25.9903,108.3041
25.9874,108.3056
25.6790,108.5059
25.3932,108.7373
25.1331,108.9974
24.9017,109.2832
24.7014,109.5916
24.5345,109.9193
24.4027,110.2626
24.3075,110.6178
24.2500,110.9810
24.2307,111.3482
18.2574,111.3482
18.2381,110.9810
18.1806,110.6178
18.0854,110.2626
17.9536,109.9193
17.7867,109.5916
17.5864,109.2832
17.3550,108.9974
17.0949,108.7373
16.8091,108.5059
16.5007,108.3056
16.4978,108.3041
16.4978,108.3041
16.1760,108.1402
16.1730,108.1387
15.8297,108.0069
15.4745,107.9117
15.2815,107.8811
15.1145,107.8547
15.1145,107.8547
15.1113,107.8542
14.7440,107.8349
14.3768,107.8542
14.3736,107.8547
14.3736,107.8547
14.2066,107.8811
14.0136,107.9117
13.6584,108.0069
13.3151,108.1387
13.3121,108.1402
12.9903,108.3041
12.9903,108.3041
12.9874,108.3056
12.6790,108.5059
12.3932,108.7373
12.1331,108.9974
11.9017,109.2832
11.7014,109.5916
11.5345,109.9193
11.4027,110.2626
11.3075,110.6178
11.2500,110.9810
11.2307,111.3482
8.1520,111.3482
8.1520,92.0348
12.1806,92.0348
12.1990,92.4253
12.2568,92.8119
12.2576,92.8150
12.2576,92.8150
12.2677,92.8546
12.3534,93.1907
12.4877,93.5578
12.6585,93.9095
12.8639,94.2421
12.8658,94.2446
12.8658,94.2446
12.8873,94.2726
13.1019,94.5522
13.3700,94.8367
13.3724,94.8388
13.3724,94.8388
13.6631,95.0906
13.6655,95.0927
13.9853,95.3175
14.3262,95.5088
14.6847,95.6647
15.0571,95.7835
15.0603,95.7842
15.0603,95.7842
15.4365,95.8635
15.4365,95.8635
15.4397,95.8641
15.8284,95.9057
15.8316,95.9057
15.8316,95.9057
16.0089,95.9066
16.2193,95.9077
16.3789,95.8924
16.6053,95.8706
16.6053,95.8706
16.6084,95.8703
16.6116,95.8696
16.6116,95.8696
16.8005,95.8319
16.9918,95.7937
17.3210,95.6924
17.3624,95.6796
17.3624,95.6796
17.3654,95.6787
17.3684,95.6775
17.3684,95.6775
17.5303,95.6091
17.7255,95.5266
17.7283,95.5251
17.7284,95.5251
17.8764,95.4440
18.0684,95.3389
18.3906,95.1174
18.6888,94.8646
18.6910,94.8623
18.6910,94.8623
18.9360,94.6077
18.9598,94.5829
19.2011,94.2753
19.4099,93.9448
19.4114,93.9420
19.4114,93.9420
19.5830,93.5978
19.5844,93.5950
19.7226,93.2293
19.7271,93.2122
19.8223,92.8546
19.8231,92.8515
19.8236,92.8482
37.2307,92.8482
37.2500,93.2155
37.2505,93.2187
37.2505,93.2187
37.2769,93.3857
37.3075,93.5787
37.4027,93.9339
37.5345,94.2772
37.5360,94.2802
37.6914,94.5852
37.7014,94.6049
37.9017,94.9133
38.1331,95.1991
38.3932,95.4592
38.6790,95.6906
38.6817,95.6924
38.9561,95.8706
38.9874,95.8909
38.9903,95.8924
38.9903,95.8924
39.3121,96.0563
39.3151,96.0578
39.6584,96.1896
40.0136,96.2848
40.2066,96.3154
40.3736,96.3418
40.3736,96.3418
40.3768,96.3423
40.7440,96.3616
41.1113,96.3423
41.1145,96.3418
41.1145,96.3418
41.2815,96.3154
41.4745,96.2848
41.8297,96.1896
42.1730,96.0578
42.1760,96.0563
42.4978,95.8924
42.4978,95.8924
42.5007,95.8909
42.5320,95.8706
42.8063,95.6924
42.8091,95.6906
43.0949,95.4592
43.3550,95.1991
43.5864,94.9133
43.7867,94.6049
43.7967,94.5852
43.9521,94.2802
43.9536,94.2772
44.0854,93.9339
44.1806,93.5787
44.2112,93.3857
44.2376,93.2187
44.2376,93.2187
44.2381,93.2155
44.2574,92.8482
44.2381,92.4810
44.2352,92.4623
44.1811,92.1211
44.1806,92.1178
44.0854,91.7626
43.9536,91.4193
43.9521,91.4163
43.7882,91.0945
43.7882,91.0945
43.7867,91.0916
43.5864,90.7832
43.3550,90.4974
43.0949,90.2373
42.8091,90.0059
42.5417,89.8323
42.5035,89.8074
42.5035,89.8074
42.5007,89.8056
42.4978,89.8041
42.4978,89.8041
42.1760,89.6402
42.1730,89.6387
41.9004,89.5340
41.8328,89.5081
41.8328,89.5081
41.8297,89.5069
41.4745,89.4117
41.2815,89.3811
41.1145,89.3547
41.1145,89.3547
41.1113,89.3542
40.7440,89.3349
40.3768,89.3542
40.3736,89.3547
40.3736,89.3547
40.2066,89.3811
40.0136,89.4117
39.6584,89.5069
39.6553,89.5081
39.6553,89.5081
39.5877,89.5340
39.3151,89.6387
39.3121,89.6402
38.9903,89.8041
38.9903,89.8041
38.9874,89.8056
38.9846,89.8074
38.9846,89.8074
38.7805,89.9400
38.6790,90.0059
38.3932,90.2373
38.1331,90.4974
37.9017,90.7832
37.7014,91.0916
37.6999,91.0945
37.6999,91.0945
37.5360,91.4163
37.5345,91.4193
37.4027,91.7626
37.3075,92.1178
37.3070,92.1211
37.2529,92.4623
37.2500,92.4810
37.2307,92.8482
19.8236,92.8482
19.8849,92.4655
19.8870,92.4284
19.9073,92.0769
19.9074,92.0752
19.9075,92.0482
19.8932,91.7658
19.8879,91.6610
19.8879,91.6610
19.8877,91.6578
19.8286,91.2714
19.7307,90.8929
19.7271,90.8831
19.5962,90.5293
19.5962,90.5293
19.5951,90.5263
19.4231,90.1752
19.4176,90.1663
19.2182,89.8460
19.2165,89.8433
18.9775,89.5340
18.7084,89.2504
18.7059,89.2484
18.4144,88.9976
18.4144,88.9976
18.4120,88.9955
18.4094,88.9937
18.4094,88.9937
18.0940,88.7737
18.0914,88.7719
17.7498,88.5817
17.7469,88.5805
17.7469,88.5805
17.3937,88.4284
17.3937,88.4284
17.3907,88.4271
17.0179,88.3095
16.7440,88.2528
16.6382,88.2309
16.6382,88.2309
16.6351,88.2303
16.3514,88.2010
16.2494,88.1904
16.2494,88.1904
16.2462,88.1901
16.2431,88.1901
16.2431,88.1901
16.0504,88.1897
15.8553,88.1894
15.4663,88.2282
15.0832,88.3062
14.7100,88.4224
14.6023,88.4684
14.3533,88.5745
14.3533,88.5745
14.3504,88.5758
14.3476,88.5773
14.3476,88.5773
14.0525,88.7402
14.0082,88.7647
14.0056,88.7665
14.0056,88.7665
13.6894,88.9855
13.6868,88.9873
13.3895,89.2412
13.1194,89.5238
13.1175,89.5263
13.1175,89.5263
12.9000,89.8056
12.8793,89.8323
12.8776,89.8350
12.8776,89.8350
12.8723,89.8433
12.6715,90.1634
12.6701,90.1663
12.6701,90.1663
12.6339,90.2397
12.4983,90.5139
12.3614,90.8801
12.2622,91.2582
12.2018,91.6444
12.2016,91.6476
12.2016,91.6476
12.1831,91.9883
12.1806,92.0348
8.1520,92.0348
8.1520,62.7922
14.2311,62.7922
14.2448,63.1841
14.2966,63.5727
14.3862,63.9545
14.5125,64.3257
14.6745,64.6827
14.8706,65.0223
14.8724,65.0248
14.8724,65.0248
14.9721,65.1641
15.0988,65.3411
15.3571,65.6361
15.6429,65.9046
15.9536,66.1438
15.9562,66.1454
15.9562,66.1454
16.0756,66.2201
16.2861,66.3516
16.6373,66.5259
17.0039,66.6652
17.3822,66.7680
17.6805,66.8184
17.7658,66.8328
17.7658,66.8328
17.7689,66.8334
17.9235,66.8442
18.1569,66.8605
18.1569,66.8605
18.1600,66.8607
18.4121,66.8537
18.5489,66.8498
18.5489,66.8498
18.5519,66.8498
18.5550,66.8494
18.5550,66.8494
18.6966,66.8315
18.9410,66.8006
18.9440,66.7999
18.9440,66.7999
19.3203,66.7144
19.3203,66.7144
19.3233,66.7137
19.3262,66.7128
19.6924,66.5909
19.6925,66.5909
19.6954,66.5900
19.8368,66.5270
20.0508,66.4317
20.0508,66.4317
20.0536,66.4305
20.0562,66.4290
20.3918,66.2383
20.3918,66.2383
20.3945,66.2368
20.7149,66.0108
21.0117,65.7546
21.2821,65.4706
21.5235,65.1617
21.7336,64.8306
21.9104,64.4806
21.9705,64.3257
22.0511,64.1179
22.0511,64.1179
22.0522,64.1151
22.1576,63.7374
22.2257,63.3513
22.2558,62.9603
22.2574,62.8483
22.2546,62.7922
33.2311,62.7922
33.2448,63.1841
33.2966,63.5727
33.3862,63.9545
33.5125,64.3257
33.6745,64.6827
33.8706,65.0223
33.8724,65.0248
33.8724,65.0248
33.9721,65.1641
34.0988,65.3411
34.3571,65.6361
34.6429,65.9046
34.9536,66.1438
34.9562,66.1454
34.9562,66.1454
35.0756,66.2201
35.2861,66.3516
35.6373,66.5259
36.0039,66.6652
36.3822,66.7680
36.6805,66.8184
36.7658,66.8328
36.7658,66.8328
36.7689,66.8334
36.9235,66.8442
37.1569,66.8605
37.1569,66.8605
37.1600,66.8607
37.4121,66.8537
37.5489,66.8498
37.5489,66.8498
37.5519,66.8498
37.5550,66.8494
37.5550,66.8494
37.6966,66.8315
37.9410,66.8006
37.9440,66.7999
37.9440,66.7999
38.3203,66.7144
38.3203,66.7144
38.3233,66.7137
38.3262,66.7128
38.6924,66.5909
38.6925,66.5909
38.6954,66.5900
38.8368,66.5270
39.0508,66.4317
39.0508,66.4317
39.0536,66.4305
39.0562,66.4290
39.3918,66.2383
39.3918,66.2383
39.3945,66.2368
39.7149,66.0108
40.0117,65.7546
40.2821,65.4706
40.5235,65.1617
40.7336,64.8306
40.9104,64.4806
40.9705,64.3257
41.0511,64.1179
41.0511,64.1179
41.0522,64.1151
41.1576,63.7374
41.2257,63.3513
41.2558,62.9603
41.2574,62.8483
41.2546,62.7922
41.2384,62.4597
41.2382,62.4566
41.1809,62.0687
41.0861,61.6883
40.9546,61.3189
40.7876,60.9641
40.7860,60.9615
40.7860,60.9615
40.5884,60.6299
40.5868,60.6273
40.5850,60.6248
40.5850,60.6248
40.3560,60.3142
40.3560,60.3142
40.3542,60.3117
40.0918,60.0203
39.8022,59.7559
39.4883,59.5210
39.4401,59.4918
39.1555,59.3195
39.1555,59.3195
39.1529,59.3179
38.7993,59.1485
38.7964,59.1475
38.7964,59.1475
38.4337,59.0155
38.4337,59.0155
38.4308,59.0144
38.1546,58.9435
38.0540,58.9177
38.0540,58.9177
38.0510,58.9169
37.6636,58.8569
37.2721,58.8350
37.2690,58.8351
37.2690,58.8351
37.0132,58.8459
36.8803,58.8514
36.8773,58.8519
36.8773,58.8519
36.6668,58.8814
36.4920,58.9060
36.1109,58.9982
35.7406,59.1272
35.3847,59.2916
35.0465,59.4900
34.8865,59.6063
34.7318,59.7187
34.7318,59.7187
34.7293,59.7205
34.7270,59.7225
34.7270,59.7225
34.6472,59.7934
34.4361,59.9808
34.4340,59.9831
34.4340,59.9831
34.1717,60.2663
34.1697,60.2685
33.9326,60.5808
33.7271,60.9148
33.5553,61.2672
33.4186,61.6347
33.3184,62.0138
33.2557,62.4009
33.2555,62.4040
33.2555,62.4040
33.2520,62.4597
33.2311,62.7922
22.2546,62.7922
22.2384,62.4597
22.2382,62.4566
22.1809,62.0687
22.0861,61.6883
21.9546,61.3189
21.7876,60.9641
21.7860,60.9615
21.7860,60.9615
21.5884,60.6299
21.5868,60.6273
21.5850,60.6248
21.5850,60.6248
21.3560,60.3142
21.3560,60.3142
21.3542,60.3117
21.0918,60.0203
20.8022,59.7559
20.4883,59.5210
20.4401,59.4918
20.1555,59.3195
20.1555,59.3195
20.1529,59.3179
19.7993,59.1485
19.7964,59.1475
19.7964,59.1475
19.4337,59.0155
19.4337,59.0155
19.4308,59.0144
19.1546,58.9435
19.0540,58.9177
19.0540,58.9177
19.0510,58.9169
18.6636,58.8569
18.2721,58.8350
18.2690,58.8351
18.2690,58.8351
18.0132,58.8459
17.8803,58.8514
17.8773,58.8519
17.8773,58.8519
17.6668,58.8814
17.4920,58.9060
17.1109,58.9982
16.7406,59.1272
16.3847,59.2916
16.0465,59.4900
15.8865,59.6063
15.7318,59.7187
15.7318,59.7187
15.7293,59.7205
15.7270,59.7225
15.7270,59.7225
15.6472,59.7934
15.4361,59.9808
15.4340,59.9831
15.4340,59.9831
15.1717,60.2663
15.1697,60.2685
14.9326,60.5808
14.7271,60.9148
14.5553,61.2672
14.4186,61.6347
14.3184,62.0138
14.2557,62.4009
14.2555,62.4040
14.2555,62.4040
14.2520,62.4597
14.2311,62.7922
8.1520,62.7922
8.1520,44.5848
10.6306,44.5848
10.6490,44.9753
10.7068,45.3619
10.7076,45.3650
10.7076,45.3650
10.7177,45.4046
10.8034,45.7407
10.9377,46.1078
11.1085,46.4595
11.3139,46.7921
11.3158,46.7946
11.3158,46.7946
11.3373,46.8226
11.5519,47.1022
11.8200,47.3867
11.8224,47.3888
11.8224,47.3888
11.8545,47.4167
12.1155,47.6427
12.4353,47.8675
12.7762,48.0588
13.1347,48.2147
13.5071,48.3335
13.5103,48.3342
13.5103,48.3342
13.8865,48.4135
13.8865,48.4135
13.8897,48.4141
14.2784,48.4557
14.2816,48.4557
14.2816,48.4557
14.4589,48.4566
14.6693,48.4577
14.8166,48.4435
15.0553,48.4206
15.0553,48.4206
15.0584,48.4203
15.0616,48.4196
15.0616,48.4196
15.2505,48.3819
15.4418,48.3437
15.7281,48.2556
15.8124,48.2296
15.8124,48.2296
15.8154,48.2287
15.8184,48.2275
15.8184,48.2275
15.9803,48.1591
16.1755,48.0766
16.1783,48.0751
16.1784,48.0751
16.3264,47.9940
16.5184,47.8889
16.8406,47.6674
17.1388,47.4146
17.1410,47.4123
17.1410,47.4123
17.2514,47.2976
17.4098,47.1329
17.6511,46.8253
17.8599,46.4948
17.8614,46.4920
17.8614,46.4920
18.0330,46.1478
18.0344,46.1450
18.1726,45.7793
18.2731,45.4015
18.3349,45.0155
18.3370,44.9784
18.3573,44.6269
18.3574,44.6252
18.3575,44.5983
18.3568,44.5848
23.6306,44.5848
23.6490,44.9753
23.7068,45.3619
23.7076,45.3650
23.7076,45.3650
23.7177,45.4046
23.8034,45.7407
23.9377,46.1078
24.1085,46.4595
24.3139,46.7921
24.3158,46.7946
24.3158,46.7946
24.3373,46.8226
24.5519,47.1022
24.8200,47.3867
24.8224,47.3888
24.8224,47.3888
24.8545,47.4167
25.1155,47.6427
25.4353,47.8675
25.7762,48.0588
26.1347,48.2147
26.5071,48.3335
26.5103,48.3342
26.5103,48.3342
26.8865,48.4135
26.8865,48.4135
26.8897,48.4141
27.2784,48.4557
27.2816,48.4557
27.2816,48.4557
27.4589,48.4566
27.6693,48.4577
27.8166,48.4435
28.0553,48.4206
28.0553,48.4206
28.0584,48.4203
28.0616,48.4196
28.0616,48.4196
28.2505,48.3819
28.4418,48.3437
28.7281,48.2556
28.8124,48.2296
28.8124,48.2296
28.8154,48.2287
28.8184,48.2275
28.8184,48.2275
28.9803,48.1591
29.1755,48.0766
29.1783,48.0751
29.1784,48.0751
29.3264,47.9940
29.5184,47.8889
29.8406,47.6674
30.1388,47.4146
30.1410,47.4123
30.1410,47.4123
30.2514,47.2976
30.4098,47.1329
30.6511,46.8253
30.8599,46.4948
30.8614,46.4920
30.8614,46.4920
31.0330,46.1478
31.0344,46.1450
31.1726,45.7793
31.2731,45.4015
31.3349,45.0155
31.3370,44.9784
31.3573,44.6269
31.3574,44.6252
31.3575,44.5983
31.3568,44.5848
36.6306,44.5848
36.6490,44.9753
36.7068,45.3619
36.7076,45.3650
36.7076,45.3650
36.7177,45.4046
36.8034,45.7407
36.9377,46.1078
37.1085,46.4595
37.3139,46.7921
37.3158,46.7946
37.3158,46.7946
37.3373,46.8226
37.5519,47.1022
37.8200,47.3867
37.8224,47.3888
37.8224,47.3888
37.8545,47.4167
38.1155,47.6427
38.4353,47.8675
38.7762,48.0588
39.1347,48.2147
39.5071,48.3335
39.5103,48.3342
39.5103,48.3342
39.8865,48.4135
39.8865,48.4135
39.8897,48.4141
40.2784,48.4557
40.2816,48.4557
40.2816,48.4557
40.4589,48.4566
40.6693,48.4577
40.8166,48.4435
41.0553,48.4206
41.0553,48.4206
41.0584,48.4203
41.0616,48.4196
41.0616,48.4196
41.2505,48.3819
41.4418,48.3437
41.7281,48.2556
41.8124,48.2296
41.8124,48.2296
41.8154,48.2287
41.8184,48.2275
41.8184,48.2275
41.9803,48.1591
42.1755,48.0766
42.1783,48.0751
42.1784,48.0751
42.3264,47.9940
42.5184,47.8889
42.8406,47.6674
43.1388,47.4146
43.1410,47.4123
43.1410,47.4123
43.2514,47.2976
43.4098,47.1329
43.6511,46.8253
43.8599,46.4948
43.8614,46.4920
43.8614,46.4920
44.0330,46.1478
44.0344,46.1450
44.1726,45.7793
44.2731,45.4015
44.3349,45.0155
44.3370,44.9784
44.3573,44.6269
44.3574,44.6252
44.3575,44.5983
44.3377,44.2078
44.2786,43.8214
44.1807,43.4429
44.1771,43.4331
44.0462,43.0793
44.0462,43.0793
44.0451,43.0763
43.8731,42.7252
43.8676,42.7163
43.6682,42.3960
43.6665,42.3933
43.4275,42.0840
43.1584,41.8004
43.1559,41.7984
42.8644,41.5476
42.8644,41.5476
42.8620,41.5455
42.8594,41.5437
42.8594,41.5437
42.5440,41.3237
42.5414,41.3219
42.1998,41.1317
42.1969,41.1305
42.1969,41.1305
41.8437,40.9784
41.8437,40.9784
41.8407,40.9771
41.4679,40.8595
41.1940,40.8028
41.0882,40.7809
41.0882,40.7809
41.0851,40.7803
40.8014,40.7510
40.6994,40.7404
40.6994,40.7404
40.6962,40.7401
40.6931,40.7401
40.6931,40.7401
40.5004,40.7397
40.3053,40.7394
39.9163,40.7782
39.5332,40.8562
39.1600,40.9724
39.0523,41.0184
38.8034,41.1245
38.8033,41.1245
38.8004,41.1258
38.7976,41.1273
38.7976,41.1273
38.5025,41.2902
38.4582,41.3147
38.4556,41.3165
38.4556,41.3165
38.1394,41.5355
38.1368,41.5373
37.8395,41.7912
37.5694,42.0738
37.3293,42.3823
37.3276,42.3850
37.3276,42.3850
37.3224,42.3933
37.1215,42.7134
37.1201,42.7163
37.1201,42.7163
36.9498,43.0610
36.9483,43.0639
36.8114,43.4301
36.7122,43.8082
36.6518,44.1944
36.6516,44.1976
36.6516,44.1976
36.6331,44.5383
36.6306,44.5848
31.3568,44.5848
31.3377,44.2078
31.2786,43.8214
31.1807,43.4429
31.1771,43.4331
31.0462,43.0793
31.0462,43.0793
31.0451,43.0763
30.8731,42.7252
30.8676,42.7163
30.6682,42.3960
30.6665,42.3933
30.4275,42.0840
30.1584,41.8004
30.1559,41.7984
29.8644,41.5476
29.8644,41.5476
29.8620,41.5455
29.8594,41.5437
29.8594,41.5437
29.5440,41.3237
29.5414,41.3219
29.1998,41.1317
29.1969,41.1305
29.1969,41.1305
28.8437,40.9784
28.8437,40.9784
28.8407,40.9771
28.4679,40.8595
28.1940,40.8028
28.0882,40.7809
28.0882,40.7809
28.0851,40.7803
27.8014,40.7510
27.6994,40.7404
27.6994,40.7404
27.6962,40.7401
27.6931,40.7401
27.6931,40.7401
27.5004,40.7397
27.3053,40.7394
26.9163,40.7782
26.5332,40.8562
26.1600,40.9724
26.0523,41.0184
25.8033,41.1245
25.8033,41.1245
25.8004,41.1258
25.7976,41.1273
25.7976,41.1273
25.5025,41.2902
25.4582,41.3147
25.4556,41.3165
25.4556,41.3165
25.1394,41.5355
25.1368,41.5373
24.8395,41.7912
24.5694,42.0738
24.3293,42.3823
24.3276,42.3850
24.3276,42.3850
24.3224,42.3933
24.1215,42.7134
24.1201,42.7163
24.1201,42.7163
23.9498,43.0610
23.9483,43.0639
23.8114,43.4301
23.7122,43.8082
23.6518,44.1944
23.6516,44.1976
23.6516,44.1976
23.6331,44.5383
23.6306,44.5848
18.3568,44.5848
18.3377,44.2078
18.2786,43.8214
18.1807,43.4429
18.1771,43.4331
18.0462,43.0793
18.0462,43.0793
18.0451,43.0763
17.8731,42.7252
17.8676,42.7163
17.6682,42.3960
17.6665,42.3933
17.4275,42.0840
17.1584,41.8004
17.1559,41.7984
16.8644,41.5476
16.8644,41.5476
16.8620,41.5455
16.8594,41.5437
16.8594,41.5437
16.5440,41.3237
16.5414,41.3219
16.1998,41.1317
16.1969,41.1305
16.1969,41.1305
15.8437,40.9784
15.8437,40.9784
15.8407,40.9771
15.4679,40.8595
15.1940,40.8028
15.0882,40.7809
15.0882,40.7809
15.0851,40.7803
14.8014,40.7510
14.6994,40.7404
14.6994,40.7404
14.6962,40.7401
14.6931,40.7401
14.6931,40.7401
14.5004,40.7397
14.3053,40.7394
13.9163,40.7782
13.5332,40.8562
13.1600,40.9724
13.0523,41.0184
12.8034,41.1245
12.8033,41.1245
12.8004,41.1258
12.7976,41.1273
12.7976,41.1273
12.5025,41.2902
12.4582,41.3147
12.4556,41.3165
12.4556,41.3165
12.1394,41.5355
12.1368,41.5373
11.8395,41.7912
11.5694,42.0738
11.3293,42.3823
11.3276,42.3850
11.3276,42.3850
11.3224,42.3933
11.1215,42.7134
11.1201,42.7163
11.1201,42.7163
10.9498,43.0610
10.9483,43.0639
10.8114,43.4301
10.7122,43.8082
10.6518,44.1944
10.6516,44.1976
10.6516,44.1976
10.6331,44.5383
10.6306,44.5848
8.1520,44.5848
8.1520,18.3179
14.6356,18.3179
14.6360,18.3192
14.6360,18.3206
14.6360,31.2395
14.6360,31.2403
14.6356,31.3179
14.6380,31.3265
14.6380,31.3265
14.6437,31.3463
14.6473,31.3631
14.6502,31.3834
14.6502,31.3834
14.6515,31.3923
14.6621,31.4156
14.6685,31.4332
14.6756,31.4578
14.6913,31.4828
14.6995,31.4979
14.7117,31.5248
14.7284,31.5442
14.7395,31.5592
14.7532,31.5809
14.7599,31.5868
14.7753,31.6004
14.7874,31.6126
14.8067,31.6350
14.8142,31.6399
14.8142,31.6399
14.8282,31.6489
14.8431,31.6602
14.8623,31.6772
14.8704,31.6810
14.8704,31.6810
14.8761,31.6837
14.8890,31.6898
14.9040,31.6981
14.9288,31.7141
14.9457,31.7192
14.9533,31.7215
14.9708,31.7282
14.9940,31.7390
15.0232,31.7436
15.0399,31.7474
15.0596,31.7533
15.0596,31.7533
15.0682,31.7558
15.0772,31.7559
15.0772,31.7559
15.0839,31.7559
15.1026,31.7560
15.1034,31.7561
15.1045,31.7562
15.1353,31.7562
15.1361,31.7563
15.2098,31.7567
15.2098,31.7567
15.2137,31.7567
15.2150,31.7563
15.2164,31.7562
40.4353,31.7562
40.4361,31.7563
40.5137,31.7567
40.5223,31.7543
40.5223,31.7543
40.5421,31.7486
40.5589,31.7450
40.5792,31.7421
40.5792,31.7421
40.5881,31.7408
40.6114,31.7302
40.6290,31.7238
40.6450,31.7192
40.6536,31.7167
40.6786,31.7010
40.6937,31.6928
40.7206,31.6806
40.7400,31.6639
40.7550,31.6528
40.7691,31.6439
40.7767,31.6391
40.7962,31.6170
40.8084,31.6049
40.8240,31.5915
40.8240,31.5915
40.8308,31.5856
40.8357,31.5781
40.8357,31.5781
40.8447,31.5641
40.8560,31.5492
40.8671,31.5368
40.8730,31.5300
40.8856,31.5033
40.8939,31.4883
40.9099,31.4635
40.9173,31.4390
40.9239,31.4215
40.9310,31.4064
40.9348,31.3983
40.9394,31.3691
40.9432,31.3524
40.9491,31.3327
40.9491,31.3327
40.9516,31.3241
40.9518,31.2897
40.9519,31.2889
40.9520,31.2878
40.9520,31.2570
40.9521,31.2562
40.9525,31.1825
40.9525,31.1825
40.9525,31.1786
40.9521,31.1773
40.9520,31.1759
40.9520,18.2570
40.9521,18.2562
40.9525,18.1876
40.9525,18.1786
40.9501,18.1700
40.9501,18.1700
40.9444,18.1502
40.9408,18.1334
40.9379,18.1131
40.9379,18.1131
40.9366,18.1042
40.9260,18.0809
40.9196,18.0633
40.9150,18.0473
40.9125,18.0387
40.8968,18.0137
40.8886,17.9986
40.8764,17.9717
40.8597,17.9523
40.8486,17.9373
40.8397,17.9232
40.8349,17.9156
40.8128,17.8961
40.8007,17.8839
40.7873,17.8683
40.7873,17.8683
40.7814,17.8615
40.7739,17.8566
40.7739,17.8566
40.7599,17.8476
40.7450,17.8363
40.7326,17.8252
40.7258,17.8193
40.7177,17.8155
40.7177,17.8155
40.7120,17.8128
40.6991,17.8067
40.6841,17.7984
40.6593,17.7824
40.6348,17.7750
40.6173,17.7683
40.6129,17.7663
40.5941,17.7575
40.5649,17.7529
40.5482,17.7491
40.5285,17.7432
40.5285,17.7432
40.5199,17.7407
40.5109,17.7406
40.5109,17.7406
40.5042,17.7406
40.4855,17.7405
40.4847,17.7404
40.4836,17.7402
40.4528,17.7402
40.4520,17.7402
40.3783,17.7398
40.3783,17.7398
40.3744,17.7398
40.3731,17.7402
40.3717,17.7402
15.1528,17.7402
15.1520,17.7402
15.1511,17.7402
15.0744,17.7398
15.0658,17.7422
15.0658,17.7422
15.0460,17.7479
15.0292,17.7515
15.0089,17.7544
15.0089,17.7544
15.0000,17.7557
14.9767,17.7663
14.9591,17.7727
14.9511,17.7750
14.9345,17.7798
14.9095,17.7955
14.8944,17.8037
14.8675,17.8159
14.8481,17.8326
14.8331,17.8437
14.8114,17.8574
14.8055,17.8641
14.7919,17.8795
14.7797,17.8916
14.7573,17.9109
14.7524,17.9184
14.7524,17.9184
14.7434,17.9324
14.7321,17.9473
14.7151,17.9665
14.7025,17.9932
14.6942,18.0082
14.6782,18.0330
14.6756,18.0416
14.6708,18.0575
14.6641,18.0750
14.6532,18.0982
14.6487,18.1274
14.6449,18.1441
14.6390,18.1638
14.6390,18.1638
14.6365,18.1724
14.6364,18.1814
14.6364,18.1814
14.6363,18.2068
14.6362,18.2076
14.6360,18.2087
14.6360,18.2395
14.6360,18.2403
14.6356,18.3179
8.1520,18.3179
8.1520,4.4810
12.1348,4.4810
12.1723,4.7660
12.2482,5.0433
12.3610,5.3077
12.5086,5.5544
12.6884,5.7788
12.8969,5.9767
13.1304,6.1444
13.1342,6.1464
13.1342,6.1464
13.1559,6.1580
13.3844,6.2790
13.6544,6.3778
13.9353,6.4390
13.9639,6.4413
14.1583,6.4566
14.1583,6.4566
14.1608,6.4567
16.1163,6.4567
16.1185,6.4566
16.1185,6.4566
16.3266,6.4424
16.3266,6.4424
16.3309,6.4421
16.3351,6.4413
16.3351,6.4413
16.4716,6.4130
16.6124,6.3838
16.8834,6.2879
17.1389,6.1560
17.1424,6.1535
17.1424,6.1535
17.2565,6.0733
17.3741,5.9907
17.5847,5.7950
17.7668,5.5725
17.9170,5.3274
18.0325,5.0641
18.1113,4.7877
18.1518,4.5030
18.1519,4.4852
18.1533,4.2198
18.1533,4.2198
18.1533,4.2155
18.1158,3.9305
18.0399,3.6532
17.9271,3.3888
17.7795,3.1421
17.5997,2.9177
17.3912,2.7198
17.1577,2.5521
17.1359,2.5405
17.1127,2.5282
16.9037,2.4175
16.6337,2.3187
16.3528,2.2575
16.3217,2.2551
16.1298,2.2399
16.1298,2.2399
16.1273,2.2397
14.1718,2.2397
14.1696,2.2399
14.1696,2.2399
13.9615,2.2541
13.9615,2.2541
13.9572,2.2544
13.9530,2.2552
13.9530,2.2552
13.8165,2.2835
13.6757,2.3127
13.4047,2.4086
13.1492,2.5405
13.1457,2.5430
13.1457,2.5430
13.1356,2.5501
12.9140,2.7058
12.7034,2.9015
12.5213,3.1240
12.3711,3.3691
12.2556,3.6324
12.1768,3.9088
12.1363,4.1935
12.1363,4.1978
12.1363,4.1978
12.1348,4.4767
12.1348,4.4810
8.1520,4.4810
8.1520,1.9822
8.1721,1.9141
8.2257,1.8676
8.2780,1.8562
47.3100,1.8562
Z" /> 
</g>
</g>
</g>
<g style="fill:#000000; fill-opacity:1.0000; 
stroke:#000000; stroke-width:0.0000; stroke-opacity:1; 
stroke-linecap:round; stroke-linejoin:round;">
</g>
<g style="fill:#000000; fill-opacity:1.0000; 
stroke:#000000; stroke-width:3.2000; stroke-opacity:1; 
stroke-linecap:round; stroke-linejoin:round;">
</g>
<g style="fill:#000000; fill-opacity:0.0; 
stroke:#000000; stroke-width:3.2000; stroke-opacity:1; 
stroke-linecap:round; stroke-linejoin:round;">
<path d="M14.2440 4.3483
L16.0440 4.3483
" />
<path d="M39.5440 126.8482
L41.3440 126.8482
" />
</g>
<g style="fill:#000000; fill-opacity:1.0000; 
stroke:#000000; stroke-width:0.0000; stroke-opacity:1; 
stroke-linecap:round; stroke-linejoin:round;">
<circle cx="16.0440" cy="92.0482" r="3.3500" /> 
</g>
<g style="fill:#000000; fill-opacity:1.0000; 
stroke:#000000; stroke-width:0.0212; stroke-opacity:1; 
stroke-linecap:round; stroke-linejoin:round;">
</g>
<g style="fill:#000000; fill-opacity:1.0000; 
stroke:#000000; stroke-width:0.0000; stroke-opacity:1; 
stroke-linecap:round; stroke-linejoin:round;">
<circle cx="14.4940" cy="44.5983" r="3.3500" /> 
</g>
<g style="fill:#000000; fill-opacity:1.0000; 
stroke:#000000; stroke-width:0.0212; stroke-opacity:1; 
stroke-linecap:round; stroke-linejoin:round;">
</g>
<g style="fill:#000000; fill-opacity:1.0000; 
stroke:#000000; stroke-width:0.0000; stroke-opacity:1; 
stroke-linecap:round; stroke-linejoin:round;">
<circle cx="27.4940" cy="44.5983" r="3.3500" /> 
</g>
<g style="fill:#000000; fill-opacity:1.0000; 
stroke:#000000; stroke-width:0.0212; stroke-opacity:1; 
stroke-linecap:round; stroke-linejoin:round;">
</g>
<g style="fill:#000000; fill-opacity:1.0000; 
stroke:#000000; stroke-width:0.0000; stroke-opacity:1; 
stroke-linecap:round; stroke-linejoin:round;">
<circle cx="40.4940" cy="44.5983" r="3.3500" /> 
</g>
<g style="fill:#000000; fill-opacity:1.0000; 
stroke:#000000; stroke-width:0.0212; stroke-opacity:1; 
stroke-linecap:round; stroke-linejoin:round;">
</g>
<g style="fill:#000000; fill-opacity:1.0000; 
stroke:#000000; stroke-width:0.0000; stroke-opacity:1; 
stroke-linecap:round; stroke-linejoin:round;">
<circle cx="40.7440" cy="111.3482" r="3.0000" /> 
</g>
<g style="fill:#000000; fill-opacity:1.0000; 
stroke:#000000; stroke-width:0.0212; stroke-opacity:1; 
stroke-linecap:round; stroke-linejoin:round;">
</g>
<g style="fill:#000000; fill-opacity:1.0000; 
stroke:#000000; stroke-width:0.0000; stroke-opacity:1; 
stroke-linecap:round; stroke-linejoin:round;">
<circle cx="40.7440" cy="92.8482" r="3.0000" /> 
</g>
<g style="fill:#000000; fill-opacity:1.0000; 
stroke:#000000; stroke-width:0.0212; stroke-opacity:1; 
stroke-linecap:round; stroke-linejoin:round;">
</g>
<g style="fill:#000000; fill-opacity:1.0000; 
stroke:#000000; stroke-width:0.0000; stroke-opacity:1; 
stroke-linecap:round; stroke-linejoin:round;">
<circle cx="27.7440" cy="111.3482" r="3.0000" /> 
</g>
<g style="fill:#000000; fill-opacity:1.0000; 
stroke:#000000; stroke-width:0.0212; stroke-opacity:1; 
stroke-linecap:round; stroke-linejoin:round;">
</g>
<g style="fill:#000000; fill-opacity:1.0000; 
stroke:#000000; stroke-width:0.0000; stroke-opacity:1; 
stroke-linecap:round; stroke-linejoin:round;">
<circle cx="37.2440" cy="62.8483" r="3.5000" /> 
</g>
<g style="fill:#000000; fill-opacity:1.0000; 
stroke:#000000; stroke-width:0.0212; stroke-opacity:1; 
stroke-linecap:round; stroke-linejoin:round;">
</g>
<g style="fill:#000000; fill-opacity:1.0000; 
stroke:#000000; stroke-width:0.0000; stroke-opacity:1; 
stroke-linecap:round; stroke-linejoin:round;">
<circle cx="14.7440" cy="111.3482" r="3.0000" /> 
</g>
<g style="fill:#000000; fill-opacity:1.0000; 
stroke:#000000; stroke-width:0.0212; stroke-opacity:1; 
stroke-linecap:round; stroke-linejoin:round;">
</g>
<g style="fill:#000000; fill-opacity:1.0000; 
stroke:#000000; stroke-width:0.0000; stroke-opacity:1; 
stroke-linecap:round; stroke-linejoin:round;">
<circle cx="18.2440" cy="62.8483" r="3.5000" /> 
</g>
<g style="fill:#000000; fill-opacity:1.0000; 
stroke:#000000; stroke-width:0.0212; stroke-opacity:1; 
stroke-linecap:round; stroke-linejoin:round;">
</g>
<g style="fill:#FFFFFF; fill-opacity:1.0000; 
stroke:#FFFFFF; stroke-width:0.0212; stroke-opacity:1; 
stroke-linecap:round; stroke-linejoin:round;">
<g >
</g>
<g >
</g>
<g >
</g>
<g >
</g>
<g >
</g>
<g >
</g>
<g >
</g>
<g >
</g>
<g >
</g>
<g >
</g>
<g >
</g>
<g >
</g>
<g >
</g>
<g >
</g>
<g >
</g>
<g >
</g>
<g style="fill:#37CBCB; fill-opacity:1.0000; 
stroke:#37CBCB; stroke-width:0.0212; stroke-opacity:1; 
stroke-linecap:round; stroke-linejoin:round;">
<g >
</g>
<g style="fill:#37CBCB; fill-opacity:1.0000; 
stroke:#37CBCB; stroke-width:0.0000; stroke-opacity:1; 
stroke-linecap:round; stroke-linejoin:round;">
<path style="fill:#37CBCB; fill-opacity:1.0000; 
stroke:#37CBCB; stroke-width:0.0000; stroke-opacity:1; 
stroke-linecap:round; stroke-linejoin:round;fill-rule:evenodd;"
d="M 47.3782,1.8763
47.4247,1.9299
47.4360,1.9822
47.4360,129.2142
47.4160,129.2824
47.3624,129.3289
47.3100,129.3402
8.2780,129.3402
8.2099,129.3202
8.1634,129.2666
8.1520,129.2142
8.1520,126.9810
37.4348,126.9810
37.4723,127.2660
37.5482,127.5433
37.6610,127.8077
37.8086,128.0544
37.9884,128.2788
38.1969,128.4767
38.4304,128.6444
38.4342,128.6464
38.4342,128.6464
38.4559,128.6580
38.6844,128.7790
38.9544,128.8778
39.2353,128.9390
39.2639,128.9413
39.4583,128.9566
39.4583,128.9566
39.4608,128.9567
41.4163,128.9567
41.4185,128.9566
41.4185,128.9566
41.6266,128.9424
41.6266,128.9424
41.6309,128.9421
41.6351,128.9413
41.6351,128.9413
41.7716,128.9130
41.9124,128.8838
42.1834,128.7879
42.4389,128.6560
42.4424,128.6535
42.4424,128.6535
42.5565,128.5733
42.6741,128.4907
42.8847,128.2950
43.0668,128.0725
43.2170,127.8274
43.3325,127.5641
43.4113,127.2877
43.4518,127.0030
43.4519,126.9852
43.4533,126.7198
43.4533,126.7198
43.4533,126.7155
43.4158,126.4305
43.3399,126.1532
43.2271,125.8888
43.0795,125.6421
42.8997,125.4177
42.6912,125.2198
42.4577,125.0521
42.4359,125.0405
42.4127,125.0282
42.2037,124.9175
41.9337,124.8187
41.6528,124.7575
41.6217,124.7551
41.4298,124.7399
41.4298,124.7399
41.4273,124.7398
39.4718,124.7398
39.4696,124.7399
39.4696,124.7399
39.2615,124.7541
39.2615,124.7541
39.2572,124.7544
39.2530,124.7552
39.2530,124.7552
39.1165,124.7835
38.9757,124.8127
38.7047,124.9086
38.4492,125.0405
38.4457,125.0430
38.4457,125.0430
38.4356,125.0501
38.2140,125.2058
38.0034,125.4015
37.8213,125.6240
37.6711,125.8691
37.5556,126.1324
37.4768,126.4088
37.4363,126.6935
37.4363,126.6978
37.4363,126.6978
37.4348,126.9767
37.4348,126.9810
8.1520,126.9810
8.1520,111.3482
11.2307,111.3482
11.2500,111.7155
11.3075,112.0787
11.4027,112.4339
11.5345,112.7772
11.7014,113.1049
11.9017,113.4133
12.1331,113.6991
12.3932,113.9592
12.6790,114.1906
12.9874,114.3909
12.9903,114.3924
12.9903,114.3924
13.3121,114.5563
13.3151,114.5578
13.6584,114.6896
14.0136,114.7848
14.2066,114.8154
14.3736,114.8418
14.3736,114.8418
14.3768,114.8423
14.7440,114.8616
15.1113,114.8423
15.1145,114.8418
15.1145,114.8418
15.2815,114.8154
15.4745,114.7848
15.8297,114.6896
16.1730,114.5578
16.1760,114.5563
16.4978,114.3924
16.4978,114.3924
16.5007,114.3909
16.8091,114.1906
17.0949,113.9592
17.3550,113.6991
17.5864,113.4133
17.7867,113.1049
17.9536,112.7772
18.0854,112.4339
18.1806,112.0787
18.2381,111.7155
18.2574,111.3482
24.2307,111.3482
24.2500,111.7155
24.3075,112.0787
24.4027,112.4339
24.5345,112.7772
24.7014,113.1049
24.9017,113.4133
25.1331,113.6991
25.3932,113.9592
25.6790,114.1906
25.9874,114.3909
25.9903,114.3924
25.9903,114.3924
26.3121,114.5563
26.3151,114.5578
26.6584,114.6896
27.0136,114.7848
27.2066,114.8154
27.3736,114.8418
27.3736,114.8418
27.3768,114.8423
27.7440,114.8616
28.1113,114.8423
28.1145,114.8418
28.1145,114.8418
28.2815,114.8154
28.4745,114.7848
28.8297,114.6896
29.1730,114.5578
29.1760,114.5563
29.4978,114.3924
29.4978,114.3924
29.5007,114.3909
29.8091,114.1906
30.0949,113.9592
30.3550,113.6991
30.5864,113.4133
30.7867,113.1049
30.9536,112.7772
31.0854,112.4339
31.1806,112.0787
31.2381,111.7155
31.2574,111.3482
37.2307,111.3482
37.2500,111.7155
37.3075,112.0787
37.4027,112.4339
37.5345,112.7772
37.7014,113.1049
37.9017,113.4133
38.1331,113.6991
38.3932,113.9592
38.6790,114.1906
38.9874,114.3909
38.9903,114.3924
38.9903,114.3924
39.3121,114.5563
39.3151,114.5578
39.6584,114.6896
40.0136,114.7848
40.2066,114.8154
40.3736,114.8418
40.3736,114.8418
40.3768,114.8423
40.7440,114.8616
41.1113,114.8423
41.1145,114.8418
41.1145,114.8418
41.2815,114.8154
41.4745,114.7848
41.8297,114.6896
42.1730,114.5578
42.1760,114.5563
42.4978,114.3924
42.4978,114.3924
42.5007,114.3909
42.8091,114.1906
43.0949,113.9592
43.3550,113.6991
43.5864,113.4133
43.7867,113.1049
43.9536,112.7772
44.0854,112.4339
44.1806,112.0787
44.2381,111.7155
44.2574,111.3482
44.2381,110.9810
44.1806,110.6178
44.0854,110.2626
43.9536,109.9193
43.7867,109.5916
43.5864,109.2832
43.3550,108.9974
43.0949,108.7373
42.8091,108.5059
42.5007,108.3056
42.4978,108.3041
42.4978,108.3041
42.1760,108.1402
42.1730,108.1387
41.8297,108.0069
41.4745,107.9117
41.2815,107.8811
41.1145,107.8547
41.1145,107.8547
41.1113,107.8542
40.7440,107.8349
40.3768,107.8542
40.3736,107.8547
40.3736,107.8547
40.2066,107.8811
40.0136,107.9117
39.6584,108.0069
39.3151,108.1387
39.3121,108.1402
38.9903,108.3041
38.9903,108.3041
38.9874,108.3056
38.6790,108.5059
38.3932,108.7373
38.1331,108.9974
37.9017,109.2832
37.7014,109.5916
37.5345,109.9193
37.4027,110.2626
37.3075,110.6178
37.2500,110.9810
37.2307,111.3482
31.2574,111.3482
31.2381,110.9810
31.1806,110.6178
31.0854,110.2626
30.9536,109.9193
30.7867,109.5916
30.5864,109.2832
30.3550,108.9974
30.0949,108.7373
29.8091,108.5059
29.5007,108.3056
29.4978,108.3041
29.4978,108.3041
29.1760,108.1402
29.1730,108.1387
28.8297,108.0069
28.4745,107.9117
28.2815,107.8811
28.1145,107.8547
28.1145,107.8547
28.1113,107.8542
27.7440,107.8349
27.3768,107.8542
27.3736,107.8547
27.3736,107.8547
27.2066,107.8811
27.0136,107.9117
26.6584,108.0069
26.3151,108.1387
26.3121,108.1402
25.9903,108.3041
25.9903,108.3041
25.9874,108.3056
25.6790,108.5059
25.3932,108.7373
25.1331,108.9974
24.9017,109.2832
24.7014,109.5916
24.5345,109.9193
24.4027,110.2626
24.3075,110.6178
24.2500,110.9810
24.2307,111.3482
18.2574,111.3482
18.2381,110.9810
18.1806,110.6178
18.0854,110.2626
17.9536,109.9193
17.7867,109.5916
17.5864,109.2832
17.3550,108.9974
17.0949,108.7373
16.8091,108.5059
16.5007,108.3056
16.4978,108.3041
16.4978,108.3041
16.1760,108.1402
16.1730,108.1387
15.8297,108.0069
15.4745,107.9117
15.2815,107.8811
15.1145,107.8547
15.1145,107.8547
15.1113,107.8542
14.7440,107.8349
14.3768,107.8542
14.3736,107.8547
14.3736,107.8547
14.2066,107.8811
14.0136,107.9117
13.6584,108.0069
13.3151,108.1387
13.3121,108.1402
12.9903,108.3041
12.9903,108.3041
12.9874,108.3056
12.6790,108.5059
12.3932,108.7373
12.1331,108.9974
11.9017,109.2832
11.7014,109.5916
11.5345,109.9193
11.4027,110.2626
11.3075,110.6178
11.2500,110.9810
11.2307,111.3482
8.1520,111.3482
8.1520,92.0348
12.1806,92.0348
12.1990,92.4253
12.2568,92.8119
12.2576,92.8150
12.2576,92.8150
12.2677,92.8546
12.3534,93.1907
12.4877,93.5578
12.6585,93.9095
12.8639,94.2421
12.8658,94.2446
12.8658,94.2446
12.8873,94.2726
13.1019,94.5522
13.3700,94.8367
13.3724,94.8388
13.3724,94.8388
13.6631,95.0906
13.6655,95.0927
13.9853,95.3175
14.3262,95.5088
14.6847,95.6647
15.0571,95.7835
15.0603,95.7842
15.0603,95.7842
15.4365,95.8635
15.4365,95.8635
15.4397,95.8641
15.8284,95.9057
15.8316,95.9057
15.8316,95.9057
16.0089,95.9066
16.2193,95.9077
16.3789,95.8924
16.6053,95.8706
16.6053,95.8706
16.6084,95.8703
16.6116,95.8696
16.6116,95.8696
16.8005,95.8319
16.9918,95.7937
17.3210,95.6924
17.3624,95.6796
17.3624,95.6796
17.3654,95.6787
17.3684,95.6775
17.3684,95.6775
17.5303,95.6091
17.7255,95.5266
17.7283,95.5251
17.7284,95.5251
17.8764,95.4440
18.0684,95.3389
18.3906,95.1174
18.6888,94.8646
18.6910,94.8623
18.6910,94.8623
18.9360,94.6077
18.9598,94.5829
19.2011,94.2753
19.4099,93.9448
19.4114,93.9420
19.4114,93.9420
19.5830,93.5978
19.5844,93.5950
19.7226,93.2293
19.7271,93.2122
19.8223,92.8546
19.8231,92.8515
19.8236,92.8482
37.2307,92.8482
37.2500,93.2155
37.2505,93.2187
37.2505,93.2187
37.2769,93.3857
37.3075,93.5787
37.4027,93.9339
37.5345,94.2772
37.5360,94.2802
37.6914,94.5852
37.7014,94.6049
37.9017,94.9133
38.1331,95.1991
38.3932,95.4592
38.6790,95.6906
38.6817,95.6924
38.9561,95.8706
38.9874,95.8909
38.9903,95.8924
38.9903,95.8924
39.3121,96.0563
39.3151,96.0578
39.6584,96.1896
40.0136,96.2848
40.2066,96.3154
40.3736,96.3418
40.3736,96.3418
40.3768,96.3423
40.7440,96.3616
41.1113,96.3423
41.1145,96.3418
41.1145,96.3418
41.2815,96.3154
41.4745,96.2848
41.8297,96.1896
42.1730,96.0578
42.1760,96.0563
42.4978,95.8924
42.4978,95.8924
42.5007,95.8909
42.5320,95.8706
42.8063,95.6924
42.8091,95.6906
43.0949,95.4592
43.3550,95.1991
43.5864,94.9133
43.7867,94.6049
43.7967,94.5852
43.9521,94.2802
43.9536,94.2772
44.0854,93.9339
44.1806,93.5787
44.2112,93.3857
44.2376,93.2187
44.2376,93.2187
44.2381,93.2155
44.2574,92.8482
44.2381,92.4810
44.2352,92.4623
44.1811,92.1211
44.1806,92.1178
44.0854,91.7626
43.9536,91.4193
43.9521,91.4163
43.7882,91.0945
43.7882,91.0945
43.7867,91.0916
43.5864,90.7832
43.3550,90.4974
43.0949,90.2373
42.8091,90.0059
42.5417,89.8323
42.5035,89.8074
42.5035,89.8074
42.5007,89.8056
42.4978,89.8041
42.4978,89.8041
42.1760,89.6402
42.1730,89.6387
41.9004,89.5340
41.8328,89.5081
41.8328,89.5081
41.8297,89.5069
41.4745,89.4117
41.2815,89.3811
41.1145,89.3547
41.1145,89.3547
41.1113,89.3542
40.7440,89.3349
40.3768,89.3542
40.3736,89.3547
40.3736,89.3547
40.2066,89.3811
40.0136,89.4117
39.6584,89.5069
39.6553,89.5081
39.6553,89.5081
39.5877,89.5340
39.3151,89.6387
39.3121,89.6402
38.9903,89.8041
38.9903,89.8041
38.9874,89.8056
38.9846,89.8074
38.9846,89.8074
38.7805,89.9400
38.6790,90.0059
38.3932,90.2373
38.1331,90.4974
37.9017,90.7832
37.7014,91.0916
37.6999,91.0945
37.6999,91.0945
37.5360,91.4163
37.5345,91.4193
37.4027,91.7626
37.3075,92.1178
37.3070,92.1211
37.2529,92.4623
37.2500,92.4810
37.2307,92.8482
19.8236,92.8482
19.8849,92.4655
19.8870,92.4284
19.9073,92.0769
19.9074,92.0752
19.9075,92.0482
19.8932,91.7658
19.8879,91.6610
19.8879,91.6610
19.8877,91.6578
19.8286,91.2714
19.7307,90.8929
19.7271,90.8831
19.5962,90.5293
19.5962,90.5293
19.5951,90.5263
19.4231,90.1752
19.4176,90.1663
19.2182,89.8460
19.2165,89.8433
18.9775,89.5340
18.7084,89.2504
18.7059,89.2484
18.4144,88.9976
18.4144,88.9976
18.4120,88.9955
18.4094,88.9937
18.4094,88.9937
18.0940,88.7737
18.0914,88.7719
17.7498,88.5817
17.7469,88.5805
17.7469,88.5805
17.3937,88.4284
17.3937,88.4284
17.3907,88.4271
17.0179,88.3095
16.7440,88.2528
16.6382,88.2309
16.6382,88.2309
16.6351,88.2303
16.3514,88.2010
16.2494,88.1904
16.2494,88.1904
16.2462,88.1901
16.2431,88.1901
16.2431,88.1901
16.0504,88.1897
15.8553,88.1894
15.4663,88.2282
15.0832,88.3062
14.7100,88.4224
14.6023,88.4684
14.3533,88.5745
14.3533,88.5745
14.3504,88.5758
14.3476,88.5773
14.3476,88.5773
14.0525,88.7402
14.0082,88.7647
14.0056,88.7665
14.0056,88.7665
13.6894,88.9855
13.6868,88.9873
13.3895,89.2412
13.1194,89.5238
13.1175,89.5263
13.1175,89.5263
12.9000,89.8056
12.8793,89.8323
12.8776,89.8350
12.8776,89.8350
12.8723,89.8433
12.6715,90.1634
12.6701,90.1663
12.6701,90.1663
12.6339,90.2397
12.4983,90.5139
12.3614,90.8801
12.2622,91.2582
12.2018,91.6444
12.2016,91.6476
12.2016,91.6476
12.1831,91.9883
12.1806,92.0348
8.1520,92.0348
8.1520,62.7922
14.2311,62.7922
14.2448,63.1841
14.2966,63.5727
14.3862,63.9545
14.5125,64.3257
14.6745,64.6827
14.8706,65.0223
14.8724,65.0248
14.8724,65.0248
14.9721,65.1641
15.0988,65.3411
15.3571,65.6361
15.6429,65.9046
15.9536,66.1438
15.9562,66.1454
15.9562,66.1454
16.0756,66.2201
16.2861,66.3516
16.6373,66.5259
17.0039,66.6652
17.3822,66.7680
17.6805,66.8184
17.7658,66.8328
17.7658,66.8328
17.7689,66.8334
17.9235,66.8442
18.1569,66.8605
18.1569,66.8605
18.1600,66.8607
18.4121,66.8537
18.5489,66.8498
18.5489,66.8498
18.5519,66.8498
18.5550,66.8494
18.5550,66.8494
18.6966,66.8315
18.9410,66.8006
18.9440,66.7999
18.9440,66.7999
19.3203,66.7144
19.3203,66.7144
19.3233,66.7137
19.3262,66.7128
19.6924,66.5909
19.6925,66.5909
19.6954,66.5900
19.8368,66.5270
20.0508,66.4317
20.0508,66.4317
20.0536,66.4305
20.0562,66.4290
20.3918,66.2383
20.3918,66.2383
20.3945,66.2368
20.7149,66.0108
21.0117,65.7546
21.2821,65.4706
21.5235,65.1617
21.7336,64.8306
21.9104,64.4806
21.9705,64.3257
22.0511,64.1179
22.0511,64.1179
22.0522,64.1151
22.1576,63.7374
22.2257,63.3513
22.2558,62.9603
22.2574,62.8483
22.2546,62.7922
33.2311,62.7922
33.2448,63.1841
33.2966,63.5727
33.3862,63.9545
33.5125,64.3257
33.6745,64.6827
33.8706,65.0223
33.8724,65.0248
33.8724,65.0248
33.9721,65.1641
34.0988,65.3411
34.3571,65.6361
34.6429,65.9046
34.9536,66.1438
34.9562,66.1454
34.9562,66.1454
35.0756,66.2201
35.2861,66.3516
35.6373,66.5259
36.0039,66.6652
36.3822,66.7680
36.6805,66.8184
36.7658,66.8328
36.7658,66.8328
36.7689,66.8334
36.9235,66.8442
37.1569,66.8605
37.1569,66.8605
37.1600,66.8607
37.4121,66.8537
37.5489,66.8498
37.5489,66.8498
37.5519,66.8498
37.5550,66.8494
37.5550,66.8494
37.6966,66.8315
37.9410,66.8006
37.9440,66.7999
37.9440,66.7999
38.3203,66.7144
38.3203,66.7144
38.3233,66.7137
38.3262,66.7128
38.6924,66.5909
38.6925,66.5909
38.6954,66.5900
38.8368,66.5270
39.0508,66.4317
39.0508,66.4317
39.0536,66.4305
39.0562,66.4290
39.3918,66.2383
39.3918,66.2383
39.3945,66.2368
39.7149,66.0108
40.0117,65.7546
40.2821,65.4706
40.5235,65.1617
40.7336,64.8306
40.9104,64.4806
40.9705,64.3257
41.0511,64.1179
41.0511,64.1179
41.0522,64.1151
41.1576,63.7374
41.2257,63.3513
41.2558,62.9603
41.2574,62.8483
41.2546,62.7922
41.2384,62.4597
41.2382,62.4566
41.1809,62.0687
41.0861,61.6883
40.9546,61.3189
40.7876,60.9641
40.7860,60.9615
40.7860,60.9615
40.5884,60.6299
40.5868,60.6273
40.5850,60.6248
40.5850,60.6248
40.3560,60.3142
40.3560,60.3142
40.3542,60.3117
40.0918,60.0203
39.8022,59.7559
39.4883,59.5210
39.4401,59.4918
39.1555,59.3195
39.1555,59.3195
39.1529,59.3179
38.7993,59.1485
38.7964,59.1475
38.7964,59.1475
38.4337,59.0155
38.4337,59.0155
38.4308,59.0144
38.1546,58.9435
38.0540,58.9177
38.0540,58.9177
38.0510,58.9169
37.6636,58.8569
37.2721,58.8350
37.2690,58.8351
37.2690,58.8351
37.0132,58.8459
36.8803,58.8514
36.8773,58.8519
36.8773,58.8519
36.6668,58.8814
36.4920,58.9060
36.1109,58.9982
35.7406,59.1272
35.3847,59.2916
35.0465,59.4900
34.8865,59.6063
34.7318,59.7187
34.7318,59.7187
34.7293,59.7205
34.7270,59.7225
34.7270,59.7225
34.6472,59.7934
34.4361,59.9808
34.4340,59.9831
34.4340,59.9831
34.1717,60.2663
34.1697,60.2685
33.9326,60.5808
33.7271,60.9148
33.5553,61.2672
33.4186,61.6347
33.3184,62.0138
33.2557,62.4009
33.2555,62.4040
33.2555,62.4040
33.2520,62.4597
33.2311,62.7922
22.2546,62.7922
22.2384,62.4597
22.2382,62.4566
22.1809,62.0687
22.0861,61.6883
21.9546,61.3189
21.7876,60.9641
21.7860,60.9615
21.7860,60.9615
21.5884,60.6299
21.5868,60.6273
21.5850,60.6248
21.5850,60.6248
21.3560,60.3142
21.3560,60.3142
21.3542,60.3117
21.0918,60.0203
20.8022,59.7559
20.4883,59.5210
20.4401,59.4918
20.1555,59.3195
20.1555,59.3195
20.1529,59.3179
19.7993,59.1485
19.7964,59.1475
19.7964,59.1475
19.4337,59.0155
19.4337,59.0155
19.4308,59.0144
19.1546,58.9435
19.0540,58.9177
19.0540,58.9177
19.0510,58.9169
18.6636,58.8569
18.2721,58.8350
18.2690,58.8351
18.2690,58.8351
18.0132,58.8459
17.8803,58.8514
17.8773,58.8519
17.8773,58.8519
17.6668,58.8814
17.4920,58.9060
17.1109,58.9982
16.7406,59.1272
16.3847,59.2916
16.0465,59.4900
15.8865,59.6063
15.7318,59.7187
15.7318,59.7187
15.7293,59.7205
15.7270,59.7225
15.7270,59.7225
15.6472,59.7934
15.4361,59.9808
15.4340,59.9831
15.4340,59.9831
15.1717,60.2663
15.1697,60.2685
14.9326,60.5808
14.7271,60.9148
14.5553,61.2672
14.4186,61.6347
14.3184,62.0138
14.2557,62.4009
14.2555,62.4040
14.2555,62.4040
14.2520,62.4597
14.2311,62.7922
8.1520,62.7922
8.1520,44.5848
10.6306,44.5848
10.6490,44.9753
10.7068,45.3619
10.7076,45.3650
10.7076,45.3650
10.7177,45.4046
10.8034,45.7407
10.9377,46.1078
11.1085,46.4595
11.3139,46.7921
11.3158,46.7946
11.3158,46.7946
11.3373,46.8226
11.5519,47.1022
11.8200,47.3867
11.8224,47.3888
11.8224,47.3888
11.8545,47.4167
12.1155,47.6427
12.4353,47.8675
12.7762,48.0588
13.1347,48.2147
13.5071,48.3335
13.5103,48.3342
13.5103,48.3342
13.8865,48.4135
13.8865,48.4135
13.8897,48.4141
14.2784,48.4557
14.2816,48.4557
14.2816,48.4557
14.4589,48.4566
14.6693,48.4577
14.8166,48.4435
15.0553,48.4206
15.0553,48.4206
15.0584,48.4203
15.0616,48.4196
15.0616,48.4196
15.2505,48.3819
15.4418,48.3437
15.7281,48.2556
15.8124,48.2296
15.8124,48.2296
15.8154,48.2287
15.8184,48.2275
15.8184,48.2275
15.9803,48.1591
16.1755,48.0766
16.1783,48.0751
16.1784,48.0751
16.3264,47.9940
16.5184,47.8889
16.8406,47.6674
17.1388,47.4146
17.1410,47.4123
17.1410,47.4123
17.2514,47.2976
17.4098,47.1329
17.6511,46.8253
17.8599,46.4948
17.8614,46.4920
17.8614,46.4920
18.0330,46.1478
18.0344,46.1450
18.1726,45.7793
18.2731,45.4015
18.3349,45.0155
18.3370,44.9784
18.3573,44.6269
18.3574,44.6252
18.3575,44.5983
18.3568,44.5848
23.6306,44.5848
23.6490,44.9753
23.7068,45.3619
23.7076,45.3650
23.7076,45.3650
23.7177,45.4046
23.8034,45.7407
23.9377,46.1078
24.1085,46.4595
24.3139,46.7921
24.3158,46.7946
24.3158,46.7946
24.3373,46.8226
24.5519,47.1022
24.8200,47.3867
24.8224,47.3888
24.8224,47.3888
24.8545,47.4167
25.1155,47.6427
25.4353,47.8675
25.7762,48.0588
26.1347,48.2147
26.5071,48.3335
26.5103,48.3342
26.5103,48.3342
26.8865,48.4135
26.8865,48.4135
26.8897,48.4141
27.2784,48.4557
27.2816,48.4557
27.2816,48.4557
27.4589,48.4566
27.6693,48.4577
27.8166,48.4435
28.0553,48.4206
28.0553,48.4206
28.0584,48.4203
28.0616,48.4196
28.0616,48.4196
28.2505,48.3819
28.4418,48.3437
28.7281,48.2556
28.8124,48.2296
28.8124,48.2296
28.8154,48.2287
28.8184,48.2275
28.8184,48.2275
28.9803,48.1591
29.1755,48.0766
29.1783,48.0751
29.1784,48.0751
29.3264,47.9940
29.5184,47.8889
29.8406,47.6674
30.1388,47.4146
30.1410,47.4123
30.1410,47.4123
30.2514,47.2976
30.4098,47.1329
30.6511,46.8253
30.8599,46.4948
30.8614,46.4920
30.8614,46.4920
31.0330,46.1478
31.0344,46.1450
31.1726,45.7793
31.2731,45.4015
31.3349,45.0155
31.3370,44.9784
31.3573,44.6269
31.3574,44.6252
31.3575,44.5983
31.3568,44.5848
36.6306,44.5848
36.6490,44.9753
36.7068,45.3619
36.7076,45.3650
36.7076,45.3650
36.7177,45.4046
36.8034,45.7407
36.9377,46.1078
37.1085,46.4595
37.3139,46.7921
37.3158,46.7946
37.3158,46.7946
37.3373,46.8226
37.5519,47.1022
37.8200,47.3867
37.8224,47.3888
37.8224,47.3888
37.8545,47.4167
38.1155,47.6427
38.4353,47.8675
38.7762,48.0588
39.1347,48.2147
39.5071,48.3335
39.5103,48.3342
39.5103,48.3342
39.8865,48.4135
39.8865,48.4135
39.8897,48.4141
40.2784,48.4557
40.2816,48.4557
40.2816,48.4557
40.4589,48.4566
40.6693,48.4577
40.8166,48.4435
41.0553,48.4206
41.0553,48.4206
41.0584,48.4203
41.0616,48.4196
41.0616,48.4196
41.2505,48.3819
41.4418,48.3437
41.7281,48.2556
41.8124,48.2296
41.8124,48.2296
41.8154,48.2287
41.8184,48.2275
41.8184,48.2275
41.9803,48.1591
42.1755,48.0766
42.1783,48.0751
42.1784,48.0751
42.3264,47.9940
42.5184,47.8889
42.8406,47.6674
43.1388,47.4146
43.1410,47.4123
43.1410,47.4123
43.2514,47.2976
43.4098,47.1329
43.6511,46.8253
43.8599,46.4948
43.8614,46.4920
43.8614,46.4920
44.0330,46.1478
44.0344,46.1450
44.1726,45.7793
44.2731,45.4015
44.3349,45.0155
44.3370,44.9784
44.3573,44.6269
44.3574,44.6252
44.3575,44.5983
44.3377,44.2078
44.2786,43.8214
44.1807,43.4429
44.1771,43.4331
44.0462,43.0793
44.0462,43.0793
44.0451,43.0763
43.8731,42.7252
43.8676,42.7163
43.6682,42.3960
43.6665,42.3933
43.4275,42.0840
43.1584,41.8004
43.1559,41.7984
42.8644,41.5476
42.8644,41.5476
42.8620,41.5455
42.8594,41.5437
42.8594,41.5437
42.5440,41.3237
42.5414,41.3219
42.1998,41.1317
42.1969,41.1305
42.1969,41.1305
41.8437,40.9784
41.8437,40.9784
41.8407,40.9771
41.4679,40.8595
41.1940,40.8028
41.0882,40.7809
41.0882,40.7809
41.0851,40.7803
40.8014,40.7510
40.6994,40.7404
40.6994,40.7404
40.6962,40.7401
40.6931,40.7401
40.6931,40.7401
40.5004,40.7397
40.3053,40.7394
39.9163,40.7782
39.5332,40.8562
39.1600,40.9724
39.0523,41.0184
38.8034,41.1245
38.8033,41.1245
38.8004,41.1258
38.7976,41.1273
38.7976,41.1273
38.5025,41.2902
38.4582,41.3147
38.4556,41.3165
38.4556,41.3165
38.1394,41.5355
38.1368,41.5373
37.8395,41.7912
37.5694,42.0738
37.3293,42.3823
37.3276,42.3850
37.3276,42.3850
37.3224,42.3933
37.1215,42.7134
37.1201,42.7163
37.1201,42.7163
36.9498,43.0610
36.9483,43.0639
36.8114,43.4301
36.7122,43.8082
36.6518,44.1944
36.6516,44.1976
36.6516,44.1976
36.6331,44.5383
36.6306,44.5848
31.3568,44.5848
31.3377,44.2078
31.2786,43.8214
31.1807,43.4429
31.1771,43.4331
31.0462,43.0793
31.0462,43.0793
31.0451,43.0763
30.8731,42.7252
30.8676,42.7163
30.6682,42.3960
30.6665,42.3933
30.4275,42.0840
30.1584,41.8004
30.1559,41.7984
29.8644,41.5476
29.8644,41.5476
29.8620,41.5455
29.8594,41.5437
29.8594,41.5437
29.5440,41.3237
29.5414,41.3219
29.1998,41.1317
29.1969,41.1305
29.1969,41.1305
28.8437,40.9784
28.8437,40.9784
28.8407,40.9771
28.4679,40.8595
28.1940,40.8028
28.0882,40.7809
28.0882,40.7809
28.0851,40.7803
27.8014,40.7510
27.6994,40.7404
27.6994,40.7404
27.6962,40.7401
27.6931,40.7401
27.6931,40.7401
27.5004,40.7397
27.3053,40.7394
26.9163,40.7782
26.5332,40.8562
26.1600,40.9724
26.0523,41.0184
25.8033,41.1245
25.8033,41.1245
25.8004,41.1258
25.7976,41.1273
25.7976,41.1273
25.5025,41.2902
25.4582,41.3147
25.4556,41.3165
25.4556,41.3165
25.1394,41.5355
25.1368,41.5373
24.8395,41.7912
24.5694,42.0738
24.3293,42.3823
24.3276,42.3850
24.3276,42.3850
24.3224,42.3933
24.1215,42.7134
24.1201,42.7163
24.1201,42.7163
23.9498,43.0610
23.9483,43.0639
23.8114,43.4301
23.7122,43.8082
23.6518,44.1944
23.6516,44.1976
23.6516,44.1976
23.6331,44.5383
23.6306,44.5848
18.3568,44.5848
18.3377,44.2078
18.2786,43.8214
18.1807,43.4429
18.1771,43.4331
18.0462,43.0793
18.0462,43.0793
18.0451,43.0763
17.8731,42.7252
17.8676,42.7163
17.6682,42.3960
17.6665,42.3933
17.4275,42.0840
17.1584,41.8004
17.1559,41.7984
16.8644,41.5476
16.8644,41.5476
16.8620,41.5455
16.8594,41.5437
16.8594,41.5437
16.5440,41.3237
16.5414,41.3219
16.1998,41.1317
16.1969,41.1305
16.1969,41.1305
15.8437,40.9784
15.8437,40.9784
15.8407,40.9771
15.4679,40.8595
15.1940,40.8028
15.0882,40.7809
15.0882,40.7809
15.0851,40.7803
14.8014,40.7510
14.6994,40.7404
14.6994,40.7404
14.6962,40.7401
14.6931,40.7401
14.6931,40.7401
14.5004,40.7397
14.3053,40.7394
13.9163,40.7782
13.5332,40.8562
13.1600,40.9724
13.0523,41.0184
12.8034,41.1245
12.8033,41.1245
12.8004,41.1258
12.7976,41.1273
12.7976,41.1273
12.5025,41.2902
12.4582,41.3147
12.4556,41.3165
12.4556,41.3165
12.1394,41.5355
12.1368,41.5373
11.8395,41.7912
11.5694,42.0738
11.3293,42.3823
11.3276,42.3850
11.3276,42.3850
11.3224,42.3933
11.1215,42.7134
11.1201,42.7163
11.1201,42.7163
10.9498,43.0610
10.9483,43.0639
10.8114,43.4301
10.7122,43.8082
10.6518,44.1944
10.6516,44.1976
10.6516,44.1976
10.6331,44.5383
10.6306,44.5848
8.1520,44.5848
8.1520,18.3179
14.6356,18.3179
14.6360,18.3192
14.6360,18.3206
14.6360,31.2395
14.6360,31.2403
14.6356,31.3179
14.6380,31.3265
14.6380,31.3265
14.6437,31.3463
14.6473,31.3631
14.6502,31.3834
14.6502,31.3834
14.6515,31.3923
14.6621,31.4156
14.6685,31.4332
14.6756,31.4578
14.6913,31.4828
14.6995,31.4979
14.7117,31.5248
14.7284,31.5442
14.7395,31.5592
14.7532,31.5809
14.7599,31.5868
14.7753,31.6004
14.7874,31.6126
14.8067,31.6350
14.8142,31.6399
14.8142,31.6399
14.8282,31.6489
14.8431,31.6602
14.8623,31.6772
14.8704,31.6810
14.8704,31.6810
14.8761,31.6837
14.8890,31.6898
14.9040,31.6981
14.9288,31.7141
14.9457,31.7192
14.9533,31.7215
14.9708,31.7282
14.9940,31.7390
15.0232,31.7436
15.0399,31.7474
15.0596,31.7533
15.0596,31.7533
15.0682,31.7558
15.0772,31.7559
15.0772,31.7559
15.0839,31.7559
15.1026,31.7560
15.1034,31.7561
15.1045,31.7562
15.1353,31.7562
15.1361,31.7563
15.2098,31.7567
15.2098,31.7567
15.2137,31.7567
15.2150,31.7563
15.2164,31.7562
40.4353,31.7562
40.4361,31.7563
40.5137,31.7567
40.5223,31.7543
40.5223,31.7543
40.5421,31.7486
40.5589,31.7450
40.5792,31.7421
40.5792,31.7421
40.5881,31.7408
40.6114,31.7302
40.6290,31.7238
40.6450,31.7192
40.6536,31.7167
40.6786,31.7010
40.6937,31.6928
40.7206,31.6806
40.7400,31.6639
40.7550,31.6528
40.7691,31.6439
40.7767,31.6391
40.7962,31.6170
40.8084,31.6049
40.8240,31.5915
40.8240,31.5915
40.8308,31.5856
40.8357,31.5781
40.8357,31.5781
40.8447,31.5641
40.8560,31.5492
40.8671,31.5368
40.8730,31.5300
40.8856,31.5033
40.8939,31.4883
40.9099,31.4635
40.9173,31.4390
40.9239,31.4215
40.9310,31.4064
40.9348,31.3983
40.9394,31.3691
40.9432,31.3524
40.9491,31.3327
40.9491,31.3327
40.9516,31.3241
40.9518,31.2897
40.9519,31.2889
40.9520,31.2878
40.9520,31.2570
40.9521,31.2562
40.9525,31.1825
40.9525,31.1825
40.9525,31.1786
40.9521,31.1773
40.9520,31.1759
40.9520,18.2570
40.9521,18.2562
40.9525,18.1876
40.9525,18.1786
40.9501,18.1700
40.9501,18.1700
40.9444,18.1502
40.9408,18.1334
40.9379,18.1131
40.9379,18.1131
40.9366,18.1042
40.9260,18.0809
40.9196,18.0633
40.9150,18.0473
40.9125,18.0387
40.8968,18.0137
40.8886,17.9986
40.8764,17.9717
40.8597,17.9523
40.8486,17.9373
40.8397,17.9232
40.8349,17.9156
40.8128,17.8961
40.8007,17.8839
40.7873,17.8683
40.7873,17.8683
40.7814,17.8615
40.7739,17.8566
40.7739,17.8566
40.7599,17.8476
40.7450,17.8363
40.7326,17.8252
40.7258,17.8193
40.7177,17.8155
40.7177,17.8155
40.7120,17.8128
40.6991,17.8067
40.6841,17.7984
40.6593,17.7824
40.6348,17.7750
40.6173,17.7683
40.6129,17.7663
40.5941,17.7575
40.5649,17.7529
40.5482,17.7491
40.5285,17.7432
40.5285,17.7432
40.5199,17.7407
40.5109,17.7406
40.5109,17.7406
40.5042,17.7406
40.4855,17.7405
40.4847,17.7404
40.4836,17.7402
40.4528,17.7402
40.4520,17.7402
40.3783,17.7398
40.3783,17.7398
40.3744,17.7398
40.3731,17.7402
40.3717,17.7402
15.1528,17.7402
15.1520,17.7402
15.1511,17.7402
15.0744,17.7398
15.0658,17.7422
15.0658,17.7422
15.0460,17.7479
15.0292,17.7515
15.0089,17.7544
15.0089,17.7544
15.0000,17.7557
14.9767,17.7663
14.9591,17.7727
14.9511,17.7750
14.9345,17.7798
14.9095,17.7955
14.8944,17.8037
14.8675,17.8159
14.8481,17.8326
14.8331,17.8437
14.8114,17.8574
14.8055,17.8641
14.7919,17.8795
14.7797,17.8916
14.7573,17.9109
14.7524,17.9184
14.7524,17.9184
14.7434,17.9324
14.7321,17.9473
14.7151,17.9665
14.7025,17.9932
14.6942,18.0082
14.6782,18.0330
14.6756,18.0416
14.6708,18.0575
14.6641,18.0750
14.6532,18.0982
14.6487,18.1274
14.6449,18.1441
14.6390,18.1638
14.6390,18.1638
14.6365,18.1724
14.6364,18.1814
14.6364,18.1814
14.6363,18.2068
14.6362,18.2076
14.6360,18.2087
14.6360,18.2395
14.6360,18.2403
14.6356,18.3179
8.1520,18.3179
8.1520,4.4810
12.1348,4.4810
12.1723,4.7660
12.2482,5.0433
12.3610,5.3077
12.5086,5.5544
12.6884,5.7788
12.8969,5.9767
13.1304,6.1444
13.1342,6.1464
13.1342,6.1464
13.1559,6.1580
13.3844,6.2790
13.6544,6.3778
13.9353,6.4390
13.9639,6.4413
14.1583,6.4566
14.1583,6.4566
14.1608,6.4567
16.1163,6.4567
16.1185,6.4566
16.1185,6.4566
16.3266,6.4424
16.3266,6.4424
16.3309,6.4421
16.3351,6.4413
16.3351,6.4413
16.4716,6.4130
16.6124,6.3838
16.8834,6.2879
17.1389,6.1560
17.1424,6.1535
17.1424,6.1535
17.2565,6.0733
17.3741,5.9907
17.5847,5.7950
17.7668,5.5725
17.9170,5.3274
18.0325,5.0641
18.1113,4.7877
18.1518,4.5030
18.1519,4.4852
18.1533,4.2198
18.1533,4.2198
18.1533,4.2155
18.1158,3.9305
18.0399,3.6532
17.9271,3.3888
17.7795,3.1421
17.5997,2.9177
17.3912,2.7198
17.1577,2.5521
17.1359,2.5405
17.1127,2.5282
16.9037,2.4175
16.6337,2.3187
16.3528,2.2575
16.3217,2.2551
16.1298,2.2399
16.1298,2.2399
16.1273,2.2397
14.1718,2.2397
14.1696,2.2399
14.1696,2.2399
13.9615,2.2541
13.9615,2.2541
13.9572,2.2544
13.9530,2.2552
13.9530,2.2552
13.8165,2.2835
13.6757,2.3127
13.4047,2.4086
13.1492,2.5405
13.1457,2.5430
13.1457,2.5430
13.1356,2.5501
12.9140,2.7058
12.7034,2.9015
12.5213,3.1240
12.3711,3.3691
12.2556,3.6324
12.1768,3.9088
12.1363,4.1935
12.1363,4.1978
12.1363,4.1978
12.1348,4.4767
12.1348,4.4810
8.1520,4.4810
8.1520,1.9822
8.1721,1.9141
8.2257,1.8676
8.2780,1.8562
47.3100,1.8562
Z" /> 
</g>
</g>
</g>
<g style="fill:#000000; fill-opacity:1.0000; 
stroke:#000000; stroke-width:0.0000; stroke-opacity:1; 
stroke-linecap:round; stroke-linejoin:round;">
</g>
<g style="fill:#000000; fill-opacity:1.0000; 
stroke:#000000; stroke-width:3.2000; stroke-opacity:1; 
stroke-linecap:round; stroke-linejoin:round;">
</g>
<g style="fill:#000000; fill-opacity:0.0; 
stroke:#000000; stroke-width:3.2000; stroke-opacity:1; 
stroke-linecap:round; stroke-linejoin:round;">
<path d="M14.2440 4.3483
L16.0440 4.3483
" />
<path d="M39.5440 126.8482
L41.3440 126.8482
" />
</g>
<g style="fill:#000000; fill-opacity:1.0000; 
stroke:#000000; stroke-width:0.0000; stroke-opacity:1; 
stroke-linecap:round; stroke-linejoin:round;">
<circle cx="16.0440" cy="92.0482" r="3.3500" /> 
</g>
<g style="fill:#000000; fill-opacity:1.0000; 
stroke:#000000; stroke-width:0.0212; stroke-opacity:1; 
stroke-linecap:round; stroke-linejoin:round;">
</g>
<g style="fill:#000000; fill-opacity:1.0000; 
stroke:#000000; stroke-width:0.0000; stroke-opacity:1; 
stroke-linecap:round; stroke-linejoin:round;">
<circle cx="14.4940" cy="44.5983" r="3.3500" /> 
</g>
<g style="fill:#000000; fill-opacity:1.0000; 
stroke:#000000; stroke-width:0.0212; stroke-opacity:1; 
stroke-linecap:round; stroke-linejoin:round;">
</g>
<g style="fill:#000000; fill-opacity:1.0000; 
stroke:#000000; stroke-width:0.0000; stroke-opacity:1; 
stroke-linecap:round; stroke-linejoin:round;">
<circle cx="27.4940" cy="44.5983" r="3.3500" /> 
</g>
<g style="fill:#000000; fill-opacity:1.0000; 
stroke:#000000; stroke-width:0.0212; stroke-opacity:1; 
stroke-linecap:round; stroke-linejoin:round;">
</g>
<g style="fill:#000000; fill-opacity:1.0000; 
stroke:#000000; stroke-width:0.0000; stroke-opacity:1; 
stroke-linecap:round; stroke-linejoin:round;">
<circle cx="40.4940" cy="44.5983" r="3.3500" /> 
</g>
<g style="fill:#000000; fill-opacity:1.0000; 
stroke:#000000; stroke-width:0.0212; stroke-opacity:1; 
stroke-linecap:round; stroke-linejoin:round;">
</g>
<g style="fill:#000000; fill-opacity:1.0000; 
stroke:#000000; stroke-width:0.0000; stroke-opacity:1; 
stroke-linecap:round; stroke-linejoin:round;">
<circle cx="40.7440" cy="111.3482" r="3.0000" /> 
</g>
<g style="fill:#000000; fill-opacity:1.0000; 
stroke:#000000; stroke-width:0.0212; stroke-opacity:1; 
stroke-linecap:round; stroke-linejoin:round;">
</g>
<g style="fill:#000000; fill-opacity:1.0000; 
stroke:#000000; stroke-width:0.0000; stroke-opacity:1; 
stroke-linecap:round; stroke-linejoin:round;">
<circle cx="40.7440" cy="92.8482" r="3.0000" /> 
</g>
<g style="fill:#000000; fill-opacity:1.0000; 
stroke:#000000; stroke-width:0.0212; stroke-opacity:1; 
stroke-linecap:round; stroke-linejoin:round;">
</g>
<g style="fill:#000000; fill-opacity:1.0000; 
stroke:#000000; stroke-width:0.0000; stroke-opacity:1; 
stroke-linecap:round; stroke-linejoin:round;">
<circle cx="27.7440" cy="111.3482" r="3.0000" /> 
</g>
<g style="fill:#000000; fill-opacity:1.0000; 
stroke:#000000; stroke-width:0.0212; stroke-opacity:1; 
stroke-linecap:round; stroke-linejoin:round;">
</g>
<g style="fill:#000000; fill-opacity:1.0000; 
stroke:#000000; stroke-width:0.0000; stroke-opacity:1; 
stroke-linecap:round; stroke-linejoin:round;">
<circle cx="37.2440" cy="62.8483" r="3.5000" /> 
</g>
<g style="fill:#000000; fill-opacity:1.0000; 
stroke:#000000; stroke-width:0.0212; stroke-opacity:1; 
stroke-linecap:round; stroke-linejoin:round;">
</g>
<g style="fill:#000000; fill-opacity:1.0000; 
stroke:#000000; stroke-width:0.0000; stroke-opacity:1; 
stroke-linecap:round; stroke-linejoin:round;">
<circle cx="14.7440" cy="111.3482" r="3.0000" /> 
</g>
<g style="fill:#000000; fill-opacity:1.0000; 
stroke:#000000; stroke-width:0.0212; stroke-opacity:1; 
stroke-linecap:round; stroke-linejoin:round;">
</g>
<g style="fill:#000000; fill-opacity:1.0000; 
stroke:#000000; stroke-width:0.0000; stroke-opacity:1; 
stroke-linecap:round; stroke-linejoin:round;">
<circle cx="18.2440" cy="62.8483" r="3.5000" /> 
</g>
<g style="fill:#000000; fill-opacity:1.0000; 
stroke:#000000; stroke-width:0.0212; stroke-opacity:1; 
stroke-linecap:round; stroke-linejoin:round;">
</g>
<g style="fill:#FFFFFF; fill-opacity:1.0000; 
stroke:#FFFFFF; stroke-width:0.0212; stroke-opacity:1; 
stroke-linecap:round; stroke-linejoin:round;">
</g>
<g style="fill:#2F2D31; fill-opacity:1.0000; 
stroke:#2F2D31; stroke-width:0.0212; stroke-opacity:1; 
stroke-linecap:round; stroke-linejoin:round;">
</g>
<g style="fill:#2F2D31; fill-opacity:1.0000; 
stroke:#2F2D31; stroke-width:0.1500; stroke-opacity:1; 
stroke-linecap:round; stroke-linejoin:round;">
</g>
<g style="fill:#2F2D31; fill-opacity:0.0; 
stroke:#2F2D31; stroke-width:0.1500; stroke-opacity:1; 
stroke-linecap:round; stroke-linejoin:round;">
<path d="M7.6440 1.3482
L47.9440 1.3482
" />
<path d="M47.9440 1.3482
L47.9440 129.8483
" />
<path d="M47.9440 129.8483
L7.6440 129.8483
" />
<path d="M40.4440 18.2482
L40.4440 31.2482
" />
<path d="M7.6440 1.3482
L7.6440 129.8483
" />
<path d="M15.1440 31.2482
L15.1440 18.2482
" />
<path d="M15.1440 18.2482
L40.4440 18.2482
" />
<path d="M40.4440 31.2482
L15.1440 31.2482
" />
<g >
</g>
<g >
</g>
<g >
</g>
<g >
</g>
<g >
</g>
<g >
</g>
<g >
</g>
<g >
</g>
<g >
</g>
<g >
</g>
<g >
</g>
<g >
</g>
<g >
</g>
<g >
</g>
<g >
</g>
<g >
</g>
</g> 
</svg>
