<?xml version="1.0" standalone="no"?>
 <!DOCTYPE svg PUBLIC "-//W3C//DTD SVG 1.1//EN" 
 "http://www.w3.org/Graphics/SVG/1.1/DTD/svg11.dtd"> 
<svg
  xmlns:svg="http://www.w3.org/2000/svg"
  xmlns="http://www.w3.org/2000/svg"
  xmlns:xlink="http://www.w3.org/1999/xlink"
  version="1.1"
  width="32.4358mm" height="62.8650mm" viewBox="0.0000 0.0000 32.4358 62.8650">
<title>SVG Image created as working-brd.svg date 2023/09/28 16:50:01 </title>
  <desc>Image generated by PCBNEW </desc>
<g style="fill:#000000; fill-opacity:1.0000;stroke:#000000; stroke-opacity:1.0000;
stroke-linecap:round; stroke-linejoin:round;"
 transform="translate(0 0) scale(1 1)">
</g>
<g style="fill:#000000; fill-opacity:0.0; 
stroke:#000000; stroke-width:0.0000; stroke-opacity:1; 
stroke-linecap:round; stroke-linejoin:round;">
</g>
<g style="fill:#000000; fill-opacity:1.0000; 
stroke:#000000; stroke-width:0.0212; stroke-opacity:1; 
stroke-linecap:round; stroke-linejoin:round;">
<rect x="-5.000000" y="-5.000000" width="42.448250" height="72.876500" rx="0.000000" />
</g>
<g style="fill:#FFFFFF; fill-opacity:1.0000; 
stroke:#FFFFFF; stroke-width:0.0212; stroke-opacity:1; 
stroke-linecap:round; stroke-linejoin:round;">
<g >
</g>
<g >
</g>
<g >
</g>
<g >
</g>
<g >
</g>
<g style="fill:#B2803A; fill-opacity:1.0000; 
stroke:#B2803A; stroke-width:0.0212; stroke-opacity:1; 
stroke-linecap:round; stroke-linejoin:round;">
</g>
<g style="fill:#B2803A; fill-opacity:1.0000; 
stroke:#B2803A; stroke-width:0.0000; stroke-opacity:1; 
stroke-linecap:round; stroke-linejoin:round;">
<path style="fill:#B2803A; fill-opacity:1.0000; 
stroke:#B2803A; stroke-width:0.0000; stroke-opacity:1; 
stroke-linecap:round; stroke-linejoin:round;fill-rule:evenodd;"
d="M 27.9250,36.6732
29.2750,36.6732
29.2750,38.0232
27.9250,38.0232
Z" /> 
<circle cx="26.6000" cy="37.3483" r="0.6750" /> 
</g>
<g style="fill:#B2803A; fill-opacity:1.0000; 
stroke:#B2803A; stroke-width:0.0212; stroke-opacity:1; 
stroke-linecap:round; stroke-linejoin:round;">
</g>
<g style="fill:#B2803A; fill-opacity:1.0000; 
stroke:#B2803A; stroke-width:0.0000; stroke-opacity:1; 
stroke-linecap:round; stroke-linejoin:round;">
<circle cx="24.6000" cy="37.3483" r="0.6750" /> 
</g>
<g style="fill:#B2803A; fill-opacity:1.0000; 
stroke:#B2803A; stroke-width:0.0212; stroke-opacity:1; 
stroke-linecap:round; stroke-linejoin:round;">
</g>
<g style="fill:#B2803A; fill-opacity:1.0000; 
stroke:#B2803A; stroke-width:0.0000; stroke-opacity:1; 
stroke-linecap:round; stroke-linejoin:round;">
<circle cx="22.6000" cy="37.3483" r="0.6750" /> 
</g>
<g style="fill:#B2803A; fill-opacity:1.0000; 
stroke:#B2803A; stroke-width:0.0212; stroke-opacity:1; 
stroke-linecap:round; stroke-linejoin:round;">
</g>
<g >
</g>
<g >
</g>
<g style="fill:#B2803A; fill-opacity:1.0000; 
stroke:#B2803A; stroke-width:0.0212; stroke-opacity:1; 
stroke-linecap:round; stroke-linejoin:round;">
</g>
<g style="fill:#B2803A; fill-opacity:1.0000; 
stroke:#B2803A; stroke-width:0.0000; stroke-opacity:1; 
stroke-linecap:round; stroke-linejoin:round;">
<circle cx="27.3500" cy="5.2182" r="2.0000" /> 
</g>
<g style="fill:#B2803A; fill-opacity:1.0000; 
stroke:#B2803A; stroke-width:0.0212; stroke-opacity:1; 
stroke-linecap:round; stroke-linejoin:round;">
</g>
<g style="fill:#B2803A; fill-opacity:1.0000; 
stroke:#B2803A; stroke-width:0.0000; stroke-opacity:1; 
stroke-linecap:round; stroke-linejoin:round;">
<circle cx="2.8700" cy="5.2182" r="2.0000" /> 
</g>
<g style="fill:#B2803A; fill-opacity:1.0000; 
stroke:#B2803A; stroke-width:0.0212; stroke-opacity:1; 
stroke-linecap:round; stroke-linejoin:round;">
</g>
<g style="fill:#B2803A; fill-opacity:1.0000; 
stroke:#B2803A; stroke-width:0.0000; stroke-opacity:1; 
stroke-linecap:round; stroke-linejoin:round;">
<path style="fill:#B2803A; fill-opacity:1.0000; 
stroke:#B2803A; stroke-width:0.0000; stroke-opacity:1; 
stroke-linecap:round; stroke-linejoin:round;fill-rule:evenodd;"
d="M 24.1000,20.0282
24.1000,23.0282
21.1000,23.0282
21.1000,20.0282
Z" /> 
<path style="fill:#B2803A; fill-opacity:1.0000; 
stroke:#B2803A; stroke-width:0.0000; stroke-opacity:1; 
stroke-linecap:round; stroke-linejoin:round;fill-rule:evenodd;"
d="M 24.1000,16.8483
24.1000,19.8483
21.1000,19.8483
21.1000,16.8483
Z" /> 
<circle cx="15.1100" cy="21.5282" r="1.5000" /> 
</g>
<g style="fill:#B2803A; fill-opacity:1.0000; 
stroke:#B2803A; stroke-width:0.0212; stroke-opacity:1; 
stroke-linecap:round; stroke-linejoin:round;">
</g>
<g style="fill:#B2803A; fill-opacity:1.0000; 
stroke:#B2803A; stroke-width:0.0000; stroke-opacity:1; 
stroke-linecap:round; stroke-linejoin:round;">
<circle cx="15.1100" cy="18.3483" r="1.5000" /> 
</g>
<g style="fill:#B2803A; fill-opacity:1.0000; 
stroke:#B2803A; stroke-width:0.0212; stroke-opacity:1; 
stroke-linecap:round; stroke-linejoin:round;">
</g>
<g style="fill:#B2803A; fill-opacity:1.0000; 
stroke:#B2803A; stroke-width:0.0000; stroke-opacity:1; 
stroke-linecap:round; stroke-linejoin:round;">
<circle cx="7.6200" cy="21.5282" r="1.5000" /> 
</g>
<g style="fill:#B2803A; fill-opacity:1.0000; 
stroke:#B2803A; stroke-width:0.0212; stroke-opacity:1; 
stroke-linecap:round; stroke-linejoin:round;">
</g>
<g style="fill:#B2803A; fill-opacity:1.0000; 
stroke:#B2803A; stroke-width:0.0000; stroke-opacity:1; 
stroke-linecap:round; stroke-linejoin:round;">
<circle cx="7.6200" cy="18.3483" r="1.5000" /> 
</g>
<g style="fill:#B2803A; fill-opacity:1.0000; 
stroke:#B2803A; stroke-width:0.0212; stroke-opacity:1; 
stroke-linecap:round; stroke-linejoin:round;">
</g>
<g >
</g>
<g style="fill:#B2803A; fill-opacity:1.0000; 
stroke:#B2803A; stroke-width:0.0212; stroke-opacity:1; 
stroke-linecap:round; stroke-linejoin:round;">
</g>
<g style="fill:#B2803A; fill-opacity:1.0000; 
stroke:#B2803A; stroke-width:0.0000; stroke-opacity:1; 
stroke-linecap:round; stroke-linejoin:round;">
<circle cx="2.8600" cy="57.6582" r="2.0000" /> 
</g>
<g style="fill:#B2803A; fill-opacity:1.0000; 
stroke:#B2803A; stroke-width:0.0212; stroke-opacity:1; 
stroke-linecap:round; stroke-linejoin:round;">
</g>
<g style="fill:#B2803A; fill-opacity:1.0000; 
stroke:#B2803A; stroke-width:0.0000; stroke-opacity:1; 
stroke-linecap:round; stroke-linejoin:round;">
<circle cx="27.3400" cy="57.6582" r="2.0000" /> 
</g>
<g style="fill:#B2803A; fill-opacity:1.0000; 
stroke:#B2803A; stroke-width:0.0212; stroke-opacity:1; 
stroke-linecap:round; stroke-linejoin:round;">
</g>
<g style="fill:#B2803A; fill-opacity:1.0000; 
stroke:#B2803A; stroke-width:0.0000; stroke-opacity:1; 
stroke-linecap:round; stroke-linejoin:round;">
<path style="fill:#B2803A; fill-opacity:1.0000; 
stroke:#B2803A; stroke-width:0.0000; stroke-opacity:1; 
stroke-linecap:round; stroke-linejoin:round;fill-rule:evenodd;"
d="M 6.1100,42.8483
6.1100,39.8483
9.1100,39.8483
9.1100,42.8483
Z" /> 
<path style="fill:#B2803A; fill-opacity:1.0000; 
stroke:#B2803A; stroke-width:0.0000; stroke-opacity:1; 
stroke-linecap:round; stroke-linejoin:round;fill-rule:evenodd;"
d="M 6.1100,46.0282
6.1100,43.0282
9.1100,43.0282
9.1100,46.0282
Z" /> 
<circle cx="15.1000" cy="41.3483" r="1.5000" /> 
</g>
<g style="fill:#B2803A; fill-opacity:1.0000; 
stroke:#B2803A; stroke-width:0.0212; stroke-opacity:1; 
stroke-linecap:round; stroke-linejoin:round;">
</g>
<g style="fill:#B2803A; fill-opacity:1.0000; 
stroke:#B2803A; stroke-width:0.0000; stroke-opacity:1; 
stroke-linecap:round; stroke-linejoin:round;">
<circle cx="15.1000" cy="44.5282" r="1.5000" /> 
</g>
<g style="fill:#B2803A; fill-opacity:1.0000; 
stroke:#B2803A; stroke-width:0.0212; stroke-opacity:1; 
stroke-linecap:round; stroke-linejoin:round;">
</g>
<g style="fill:#B2803A; fill-opacity:1.0000; 
stroke:#B2803A; stroke-width:0.0000; stroke-opacity:1; 
stroke-linecap:round; stroke-linejoin:round;">
<circle cx="22.5900" cy="41.3483" r="1.5000" /> 
</g>
<g style="fill:#B2803A; fill-opacity:1.0000; 
stroke:#B2803A; stroke-width:0.0212; stroke-opacity:1; 
stroke-linecap:round; stroke-linejoin:round;">
</g>
<g style="fill:#B2803A; fill-opacity:1.0000; 
stroke:#B2803A; stroke-width:0.0000; stroke-opacity:1; 
stroke-linecap:round; stroke-linejoin:round;">
<circle cx="22.5900" cy="44.5282" r="1.5000" /> 
</g>
<g style="fill:#B2803A; fill-opacity:1.0000; 
stroke:#B2803A; stroke-width:0.0212; stroke-opacity:1; 
stroke-linecap:round; stroke-linejoin:round;">
</g>
<g >
</g>
<g >
</g>
<g style="fill:#121212; fill-opacity:1.0000; 
stroke:#121212; stroke-width:0.0212; stroke-opacity:1; 
stroke-linecap:round; stroke-linejoin:round;">
</g>
<g style="fill:#121212; fill-opacity:1.0000; 
stroke:#121212; stroke-width:0.0000; stroke-opacity:1; 
stroke-linecap:round; stroke-linejoin:round;">
<circle cx="16.6000" cy="23.8483" r="0.3429" /> 
</g>
<g style="fill:#121212; fill-opacity:1.0000; 
stroke:#121212; stroke-width:0.0212; stroke-opacity:1; 
stroke-linecap:round; stroke-linejoin:round;">
</g>
<g style="fill:#121212; fill-opacity:1.0000; 
stroke:#121212; stroke-width:0.0000; stroke-opacity:1; 
stroke-linecap:round; stroke-linejoin:round;">
<circle cx="17.3500" cy="35.8483" r="0.3429" /> 
</g>
<g style="fill:#121212; fill-opacity:1.0000; 
stroke:#121212; stroke-width:0.0212; stroke-opacity:1; 
stroke-linecap:round; stroke-linejoin:round;">
</g>
<g style="fill:#121212; fill-opacity:1.0000; 
stroke:#121212; stroke-width:0.0000; stroke-opacity:1; 
stroke-linecap:round; stroke-linejoin:round;">
<circle cx="11.2642" cy="34.5809" r="0.3429" /> 
</g>
<g style="fill:#121212; fill-opacity:1.0000; 
stroke:#121212; stroke-width:0.0212; stroke-opacity:1; 
stroke-linecap:round; stroke-linejoin:round;">
</g>
<g style="fill:#121212; fill-opacity:1.0000; 
stroke:#121212; stroke-width:0.0000; stroke-opacity:1; 
stroke-linecap:round; stroke-linejoin:round;">
<circle cx="12.6000" cy="34.5982" r="0.3429" /> 
</g>
<g style="fill:#121212; fill-opacity:1.0000; 
stroke:#121212; stroke-width:0.0212; stroke-opacity:1; 
stroke-linecap:round; stroke-linejoin:round;">
</g>
<g style="fill:#121212; fill-opacity:1.0000; 
stroke:#121212; stroke-width:0.0000; stroke-opacity:1; 
stroke-linecap:round; stroke-linejoin:round;">
<circle cx="1.8500" cy="34.0983" r="0.3429" /> 
</g>
<g style="fill:#121212; fill-opacity:1.0000; 
stroke:#121212; stroke-width:0.0212; stroke-opacity:1; 
stroke-linecap:round; stroke-linejoin:round;">
</g>
<g >
</g>
<g style="fill:#B2803A; fill-opacity:1.0000; 
stroke:#B2803A; stroke-width:0.0212; stroke-opacity:1; 
stroke-linecap:round; stroke-linejoin:round;">
</g>
<g style="fill:#B2803A; fill-opacity:1.0000; 
stroke:#B2803A; stroke-width:0.2500; stroke-opacity:1; 
stroke-linecap:round; stroke-linejoin:round;">
</g>
<g style="fill:#B2803A; fill-opacity:0.0; 
stroke:#B2803A; stroke-width:0.2500; stroke-opacity:1; 
stroke-linecap:round; stroke-linejoin:round;">
<path d="M22.5900 41.0882
L22.5900 41.3483
" />
</g>
<g style="fill:#B2803A; fill-opacity:0.0; 
stroke:#B2803A; stroke-width:0.5080; stroke-opacity:1; 
stroke-linecap:round; stroke-linejoin:round;">
<path d="M15.1100 27.3483
L15.1100 41.3382
" />
<path d="M15.1100 18.3483
L15.1100 21.5282
" />
<path d="M15.1000 41.3483
L15.1000 44.5282
" />
<path d="M15.1100 21.5282
L15.1100 27.3483
" />
</g>
<g style="fill:#B2803A; fill-opacity:0.0; 
stroke:#B2803A; stroke-width:0.2500; stroke-opacity:1; 
stroke-linecap:round; stroke-linejoin:round;">
<path d="M15.1100 41.3382
L15.1000 41.3483
" />
<path d="M11.2642 34.5809
L12.5827 34.5809
" />
<path d="M12.5827 34.5809
L12.6000 34.5982
" />
</g>
<g >
</g>
<g style="fill:#B2803A; fill-opacity:0.0; 
stroke:#B2803A; stroke-width:0.2500; stroke-opacity:1; 
stroke-linecap:round; stroke-linejoin:round;">
<g >
</g>
<g style="fill:#B2803A; fill-opacity:1.0000; 
stroke:#B2803A; stroke-width:0.0000; stroke-opacity:1; 
stroke-linecap:round; stroke-linejoin:round;">
<path style="fill:#B2803A; fill-opacity:1.0000; 
stroke:#B2803A; stroke-width:0.0000; stroke-opacity:1; 
stroke-linecap:round; stroke-linejoin:round;fill-rule:evenodd;"
d="M 7.7947,42.2439
7.8465,42.2924
7.8640,42.3564
7.8640,43.5201
7.8440,43.5882
7.7903,43.6347
7.7248,43.6454
7.6566,43.6382
7.6566,43.6382
7.5634,43.6382
7.5634,43.6382
7.4952,43.6454
7.4253,43.6326
7.3735,43.5841
7.3560,43.5201
7.3560,42.3564
7.3760,42.2883
7.4297,42.2418
7.4952,42.2311
7.5634,42.2383
7.5634,42.2383
7.6566,42.2383
7.6566,42.2383
7.7248,42.2311
Z" /> 
<path style="fill:#B2803A; fill-opacity:1.0000; 
stroke:#B2803A; stroke-width:0.0000; stroke-opacity:1; 
stroke-linecap:round; stroke-linejoin:round;fill-rule:evenodd;"
d="M 22.7847,19.2439
22.8365,19.2924
22.8540,19.3564
22.8540,20.5201
22.8340,20.5882
22.7803,20.6347
22.7148,20.6454
22.6466,20.6382
22.6466,20.6382
22.5534,20.6382
22.5534,20.6382
22.4852,20.6454
22.4153,20.6326
22.3635,20.5841
22.3460,20.5201
22.3460,19.3564
22.3660,19.2883
22.4197,19.2418
22.4852,19.2311
22.5534,19.2383
22.5534,19.2383
22.6466,19.2383
22.6466,19.2383
22.7148,19.2311
Z" /> 
<path style="fill:#B2803A; fill-opacity:1.0000; 
stroke:#B2803A; stroke-width:0.0000; stroke-opacity:1; 
stroke-linecap:round; stroke-linejoin:round;fill-rule:evenodd;"
d="M 26.0421,1.9688
26.0886,2.0224
26.1000,2.0747
26.1000,2.9683
26.0800,3.0365
26.0347,3.0788
26.0032,3.0961
26.0032,3.0961
25.7479,3.2816
25.7479,3.2816
25.5178,3.4977
25.3166,3.7409
25.1474,4.0074
25.1474,4.0074
25.0130,4.2930
25.0130,4.2930
24.9155,4.5932
24.9155,4.5932
24.8564,4.9032
24.8564,4.9032
24.8365,5.2182
24.8365,5.2183
24.8564,5.5333
24.8564,5.5333
24.9155,5.8433
24.9155,5.8433
25.0130,6.1435
25.0130,6.1435
25.1474,6.4291
25.1474,6.4291
25.1474,6.4291
25.3166,6.6956
25.5178,6.9388
25.5178,6.9388
25.5178,6.9388
25.7479,7.1549
26.0032,7.3404
26.0347,7.3577
26.0848,7.4081
26.1000,7.4682
26.1000,33.8483
30.6235,33.8483
30.6916,33.8683
30.7381,33.9219
30.7495,33.9742
30.7495,60.8717
30.7295,60.9399
30.6758,60.9864
30.6235,60.9977
0.3265,60.9977
0.2584,60.9777
0.2119,60.9241
0.2005,60.8717
0.2005,58.3864
0.2205,58.3182
0.2742,58.2717
0.3444,58.2616
0.4090,58.2911
0.4463,58.3474
0.5230,58.5835
0.5230,58.5835
0.6574,58.8691
0.6574,58.8691
0.6574,58.8691
0.8266,59.1356
1.0278,59.3788
1.0278,59.3788
1.0278,59.3788
1.2579,59.5949
1.5132,59.7804
1.7898,59.9325
2.0833,60.0487
2.3890,60.1272
2.3890,60.1272
2.3890,60.1272
2.5531,60.1479
2.7022,60.1668
2.7022,60.1668
3.0178,60.1668
3.0178,60.1668
3.3310,60.1272
3.6367,60.0487
3.9302,59.9325
4.2068,59.7804
4.4621,59.5949
4.6922,59.3788
4.8934,59.1356
4.8934,59.1356
4.8934,59.1356
5.0626,58.8691
5.0626,58.8691
5.1970,58.5835
5.2945,58.2833
5.3536,57.9733
5.3735,57.6583
24.8265,57.6583
24.8464,57.9733
24.8464,57.9733
24.9055,58.2833
24.9055,58.2833
25.0030,58.5835
25.0030,58.5835
25.1374,58.8691
25.1374,58.8691
25.1374,58.8691
25.3066,59.1356
25.5078,59.3788
25.5078,59.3788
25.5078,59.3788
25.7379,59.5949
25.9932,59.7804
26.2698,59.9325
26.5633,60.0487
26.8690,60.1272
26.8690,60.1272
26.8690,60.1272
27.0331,60.1479
27.1822,60.1668
27.1822,60.1668
27.4978,60.1668
27.4978,60.1668
27.8110,60.1272
28.1167,60.0487
28.4102,59.9325
28.6868,59.7804
28.9421,59.5949
29.1722,59.3788
29.3734,59.1356
29.3734,59.1356
29.3734,59.1356
29.5426,58.8691
29.5426,58.8691
29.6770,58.5835
29.7745,58.2833
29.8336,57.9733
29.8535,57.6582
29.8336,57.3432
29.7745,57.0332
29.6770,56.7330
29.5426,56.4474
29.5426,56.4474
29.3734,56.1809
29.1722,55.9377
28.9421,55.7216
28.6868,55.5361
28.6444,55.5128
28.4102,55.3840
28.1167,55.2678
27.8110,55.1893
27.8110,55.1893
27.8110,55.1893
27.8110,55.1893
27.4978,55.1498
27.4978,55.1497
27.4978,55.1497
27.1822,55.1497
27.1822,55.1497
27.1822,55.1498
26.8690,55.1893
26.5633,55.2678
26.2698,55.3840
25.9932,55.5361
25.7379,55.7216
25.7379,55.7216
25.5078,55.9377
25.3066,56.1809
25.1374,56.4474
25.1374,56.4474
25.0030,56.7330
25.0030,56.7330
24.9055,57.0332
24.9055,57.0332
24.8464,57.3432
24.8464,57.3432
24.8265,57.6582
24.8265,57.6583
5.3735,57.6583
5.3735,57.6582
5.3536,57.3432
5.2945,57.0332
5.1970,56.7330
5.0626,56.4474
5.0626,56.4474
4.8934,56.1809
4.6922,55.9377
4.4621,55.7216
4.2068,55.5361
4.1644,55.5128
3.9302,55.3840
3.6367,55.2678
3.3310,55.1893
3.3310,55.1893
3.3310,55.1893
3.3310,55.1893
3.0178,55.1498
3.0178,55.1497
3.0178,55.1497
2.7022,55.1497
2.7022,55.1497
2.7022,55.1498
2.3890,55.1893
2.0833,55.2678
1.7898,55.3840
1.5132,55.5361
1.2579,55.7216
1.2579,55.7216
1.0278,55.9377
0.8266,56.1809
0.6574,56.4474
0.6574,56.4474
0.5230,56.7330
0.5230,56.7330
0.4463,56.9691
0.4063,57.0277
0.3409,57.0553
0.2709,57.0432
0.2186,56.9952
0.2005,56.9301
0.2005,46.0768
5.6020,46.0768
5.6085,46.1373
5.6596,46.2742
5.6596,46.2742
5.7471,46.3912
5.8640,46.4787
6.0009,46.5297
6.0614,46.5362
6.0614,46.5362
7.3560,46.5362
7.3560,45.5364
7.3760,45.4683
7.4297,45.4218
7.4952,45.4111
7.5634,45.4183
7.5634,45.4183
7.6566,45.4183
7.6566,45.4183
7.7248,45.4111
7.7947,45.4239
7.8465,45.4724
7.8640,45.5364
7.8640,46.5362
9.1586,46.5362
9.1586,46.5362
9.2191,46.5297
9.3560,46.4787
9.3560,46.4787
9.4729,46.3912
9.5604,46.2742
9.5604,46.2742
9.6115,46.1373
9.6180,46.0768
9.6180,46.0768
9.6180,44.7822
8.6215,44.7822
8.5534,44.7622
8.5069,44.7086
8.4968,44.6383
8.4982,44.6301
8.5000,44.6218
8.5000,44.4347
8.4982,44.4264
8.5036,44.3557
8.5465,44.2990
8.6131,44.2745
8.6215,44.2742
9.6180,44.2742
9.6180,42.9797
9.6180,42.9796
9.6150,42.9517
9.6150,42.9248
9.6180,42.8969
9.6180,42.8968
9.6180,41.6022
8.6215,41.6022
8.5534,41.5822
8.5069,41.5286
8.4968,41.4583
8.4982,41.4501
8.5000,41.4418
8.5000,41.2547
8.4982,41.2464
8.5036,41.1757
8.5465,41.1190
8.6131,41.0945
8.6215,41.0942
9.6180,41.0942
9.6180,39.7997
9.6180,39.7997
9.6115,39.7392
9.5604,39.6023
9.5604,39.6023
9.4729,39.4853
9.3560,39.3978
9.2191,39.3468
9.1586,39.3402
7.8640,39.3402
7.8640,40.3401
7.8440,40.4082
7.7903,40.4547
7.7248,40.4654
7.6566,40.4582
7.6566,40.4582
7.5634,40.4582
7.5634,40.4582
7.4952,40.4654
7.4253,40.4526
7.3735,40.4041
7.3560,40.3401
7.3560,39.3402
6.0614,39.3402
6.0009,39.3468
5.8640,39.3978
5.8640,39.3978
5.7471,39.4853
5.6596,39.6023
5.6596,39.6023
5.6085,39.7392
5.6020,39.7997
5.6020,41.0942
6.5985,41.0942
6.6666,41.1143
6.7131,41.1679
6.7232,41.2382
6.7218,41.2464
6.7200,41.2547
6.7200,41.4418
6.7218,41.4501
6.7164,41.5208
6.6735,41.5775
6.6069,41.6020
6.5985,41.6022
5.6020,41.6022
5.6020,42.8968
5.6020,42.8969
5.6050,42.9248
5.6050,42.9517
5.6020,42.9796
5.6020,42.9797
5.6020,44.2742
6.5985,44.2742
6.6666,44.2943
6.7131,44.3479
6.7232,44.4182
6.7218,44.4264
6.7200,44.4347
6.7200,44.6218
6.7218,44.6301
6.7164,44.7008
6.6735,44.7575
6.6069,44.7820
6.5985,44.7822
5.6020,44.7822
5.6020,46.0768
0.2005,46.0768
0.2005,14.8483
3.8500,14.8483
3.8500,23.5983
10.5898,39.3245
10.6000,39.3741
10.6000,48.5983
27.1000,48.5983
27.1000,39.3482
27.1000,39.3482
27.0883,39.3245
26.7725,38.6827
26.7604,38.6127
26.7880,38.5473
26.8466,38.5072
26.8624,38.5032
26.9253,38.4914
27.1298,38.4122
27.3163,38.2967
27.3197,38.2937
27.3835,38.2626
27.4540,38.2709
27.5054,38.3113
27.5617,38.3865
27.6788,38.4741
27.6788,38.4741
27.6788,38.4741
27.7252,38.4914
27.8158,38.5252
27.8158,38.5252
27.8763,38.5317
27.8764,38.5317
27.8764,38.5317
27.8764,38.5317
29.3236,38.5317
29.3236,38.5317
29.3236,38.5317
29.3236,38.5317
29.3842,38.5252
29.3842,38.5252
29.3842,38.5252
29.5212,38.4741
29.6383,38.3865
29.6383,38.3865
29.7259,38.2695
29.7259,38.2695
29.7259,38.2695
29.7770,38.1325
29.7835,38.0719
29.7835,36.6246
29.7797,36.5896
29.7770,36.5641
29.7770,36.5640
29.7286,36.4344
29.7259,36.4270
29.7259,36.4270
29.7259,36.4270
29.6383,36.3100
29.5212,36.2224
29.5212,36.2224
29.3842,36.1713
29.3842,36.1713
29.3236,36.1647
29.3236,36.1647
27.8764,36.1647
27.8763,36.1647
27.8158,36.1713
27.8158,36.1713
27.6788,36.2224
27.6788,36.2224
27.5617,36.3100
27.5054,36.3852
27.4486,36.4278
27.3778,36.4328
27.3197,36.4028
27.3163,36.3998
27.1298,36.2843
27.1298,36.2843
27.1298,36.2843
27.1298,36.2843
26.9253,36.2051
26.8793,36.1965
26.7097,36.1647
26.4903,36.1647
26.3512,36.1907
26.2747,36.2051
26.0702,36.2843
26.0702,36.2843
25.8837,36.3997
25.8837,36.3998
25.8457,36.4344
25.7819,36.4655
25.7114,36.4572
25.6566,36.4121
25.6478,36.3969
19.3629,23.6246
19.3500,23.5689
19.3500,23.0768
20.5920,23.0768
20.5985,23.1373
20.6496,23.2742
20.6496,23.2742
20.7371,23.3912
20.8540,23.4787
20.9909,23.5297
21.0514,23.5362
21.0514,23.5362
22.3460,23.5362
22.3460,22.5364
22.3660,22.4683
22.4197,22.4218
22.4852,22.4111
22.5534,22.4183
22.5534,22.4183
22.6466,22.4183
22.6466,22.4183
22.7148,22.4111
22.7847,22.4239
22.8365,22.4724
22.8540,22.5364
22.8540,23.5362
24.1486,23.5362
24.1486,23.5362
24.2091,23.5297
24.3460,23.4787
24.3460,23.4787
24.4629,23.3912
24.5504,23.2742
24.5504,23.2742
24.6015,23.1373
24.6080,23.0768
24.6080,23.0768
24.6080,21.7822
23.6115,21.7822
23.5434,21.7622
23.4969,21.7086
23.4868,21.6383
23.4882,21.6301
23.4900,21.6218
23.4900,21.4347
23.4882,21.4264
23.4936,21.3557
23.5365,21.2990
23.6031,21.2745
23.6115,21.2742
24.6080,21.2742
24.6080,19.9797
24.6080,19.9797
24.6050,19.9517
24.6050,19.9248
24.6080,19.8968
24.6080,19.8968
24.6080,18.6022
23.6115,18.6022
23.5434,18.5822
23.4969,18.5286
23.4868,18.4583
23.4882,18.4501
23.4900,18.4418
23.4900,18.2547
23.4882,18.2464
23.4936,18.1757
23.5365,18.1190
23.6031,18.0945
23.6115,18.0942
24.6080,18.0942
24.6080,16.7997
24.6080,16.7997
24.6015,16.7392
24.5504,16.6023
24.5504,16.6023
24.4629,16.4853
24.3460,16.3978
24.2091,16.3468
24.1486,16.3402
22.8540,16.3402
22.8540,17.3401
22.8340,17.4082
22.7803,17.4547
22.7148,17.4654
22.6466,17.4582
22.6466,17.4582
22.5534,17.4582
22.5534,17.4582
22.4852,17.4654
22.4153,17.4526
22.3635,17.4041
22.3460,17.3401
22.3460,16.3402
21.0514,16.3402
20.9909,16.3468
20.8540,16.3978
20.8540,16.3978
20.7371,16.4853
20.6496,16.6023
20.6496,16.6023
20.5985,16.7392
20.5920,16.7997
20.5920,18.0942
21.5885,18.0942
21.6566,18.1143
21.7031,18.1679
21.7132,18.2382
21.7118,18.2464
21.7100,18.2547
21.7100,18.4418
21.7118,18.4501
21.7064,18.5208
21.6635,18.5775
21.5969,18.6020
21.5885,18.6022
20.5920,18.6022
20.5920,19.8968
20.5920,19.8969
20.5950,19.9248
20.5950,19.9517
20.5920,19.9796
20.5920,19.9797
20.5920,21.2742
21.5885,21.2742
21.6566,21.2943
21.7031,21.3479
21.7132,21.4182
21.7118,21.4264
21.7100,21.4347
21.7100,21.6218
21.7118,21.6301
21.7064,21.7008
21.6635,21.7575
21.5969,21.7820
21.5885,21.7822
20.5920,21.7822
20.5920,23.0768
19.3500,23.0768
19.3500,14.8483
3.8500,14.8483
0.2005,14.8483
0.2005,5.9156
0.2205,5.8475
0.2742,5.8010
0.3444,5.7909
0.4090,5.8204
0.4463,5.8766
0.5330,6.1435
0.5330,6.1435
0.6674,6.4291
0.6674,6.4291
0.6674,6.4291
0.8366,6.6956
1.0378,6.9388
1.0378,6.9388
1.0378,6.9388
1.2679,7.1549
1.5232,7.3404
1.7998,7.4925
2.0933,7.6087
2.3990,7.6872
2.3990,7.6872
2.3990,7.6872
2.5631,7.7079
2.7122,7.7268
2.7122,7.7268
3.0278,7.7268
3.0278,7.7268
3.3410,7.6872
3.6467,7.6087
3.9402,7.4925
4.2168,7.3404
4.4721,7.1549
4.7022,6.9388
4.9034,6.6956
4.9034,6.6956
4.9034,6.6956
5.0726,6.4291
5.0726,6.4291
5.2070,6.1435
5.3045,5.8433
5.3636,5.5333
5.3835,5.2182
5.3636,4.9032
5.3045,4.5932
5.2070,4.2930
5.0726,4.0074
5.0726,4.0074
4.9034,3.7409
4.7022,3.4977
4.4721,3.2816
4.2168,3.0961
4.1084,3.0365
3.9402,2.9440
3.6467,2.8278
3.3410,2.7493
3.3410,2.7493
3.3410,2.7493
3.3410,2.7493
3.0278,2.7098
3.0278,2.7097
3.0278,2.7097
2.7122,2.7097
2.7122,2.7097
2.7122,2.7098
2.3990,2.7493
2.0933,2.8278
1.7998,2.9440
1.5232,3.0961
1.2679,3.2816
1.2679,3.2816
1.0378,3.4977
0.8366,3.7409
0.6674,4.0074
0.6674,4.0074
0.5330,4.2930
0.5330,4.2930
0.4463,4.5599
0.4063,4.6185
0.3409,4.6461
0.2709,4.6340
0.2186,4.5860
0.2005,4.5209
0.2005,2.0747
0.2205,2.0066
0.2742,1.9601
0.3265,1.9487
25.9740,1.9487
Z" /> 
</g>
</g>
<g style="fill:#B2803A; fill-opacity:1.0000; 
stroke:#B2803A; stroke-width:0.0000; stroke-opacity:1; 
stroke-linecap:round; stroke-linejoin:round;">
<g >
<path style="fill:#B2803A; fill-opacity:1.0000; 
stroke:#B2803A; stroke-width:0.0000; stroke-opacity:1; 
stroke-linecap:round; stroke-linejoin:round;fill-rule:evenodd;"
d="M 18.5421,15.6183
18.5886,15.6719
18.6000,15.7242
18.6000,23.5983
24.6941,35.9831
24.7063,36.0531
24.6787,36.1185
24.6201,36.1586
24.5811,36.1647
24.4903,36.1647
24.3512,36.1907
24.2747,36.2051
24.0702,36.2843
24.0702,36.2843
23.8837,36.3998
23.7216,36.5475
23.7005,36.5754
23.6435,36.6177
23.5727,36.6225
23.5105,36.5882
23.4995,36.5754
23.4784,36.5475
23.3163,36.3998
23.1298,36.2843
23.1298,36.2843
23.1298,36.2843
23.1298,36.2843
22.9253,36.2051
22.8869,36.1979
22.7097,36.1647
22.4903,36.1647
22.3512,36.1907
22.2747,36.2051
22.0702,36.2843
22.0702,36.2843
21.8837,36.3998
21.8837,36.3998
21.7216,36.5475
21.5895,36.7225
21.4917,36.9189
21.4917,36.9189
21.4317,37.1299
21.4317,37.1299
21.4114,37.3482
21.4114,37.3483
21.4317,37.5666
21.4317,37.5666
21.4917,37.7776
21.4917,37.7776
21.4917,37.7776
21.5895,37.9740
21.5895,37.9740
21.7216,38.1490
21.8837,38.2967
21.8837,38.2967
21.8837,38.2967
21.8837,38.2967
22.0702,38.4122
22.0702,38.4122
22.0702,38.4122
22.2747,38.4914
22.2747,38.4914
22.2747,38.4914
22.4903,38.5317
22.4903,38.5317
22.7097,38.5317
22.7097,38.5317
22.9253,38.4914
22.9253,38.4914
22.9253,38.4914
23.0275,38.4518
23.1298,38.4122
23.3163,38.2967
23.3163,38.2967
23.3163,38.2967
23.4784,38.1490
23.4784,38.1490
23.4784,38.1490
23.4994,38.1211
23.5565,38.0788
23.6273,38.0740
23.6895,38.1083
23.7006,38.1211
23.7216,38.1490
23.8837,38.2967
23.8837,38.2967
23.8837,38.2967
23.8837,38.2967
24.0702,38.4122
24.0702,38.4122
24.0702,38.4122
24.2747,38.4914
24.2747,38.4914
24.2747,38.4914
24.4903,38.5317
24.4903,38.5317
24.7097,38.5317
24.7097,38.5317
24.9253,38.4914
24.9253,38.4914
24.9253,38.4914
25.0275,38.4518
25.1298,38.4122
25.3163,38.2967
25.3163,38.2967
25.3163,38.2967
25.4784,38.1490
25.4784,38.1490
25.4784,38.1490
25.4994,38.1211
25.5565,38.0788
25.6273,38.0740
25.6895,38.1083
25.7006,38.1211
25.7216,38.1490
25.7216,38.1490
25.7216,38.1490
25.7690,38.1922
25.7734,38.1961
25.8015,38.2336
26.3371,39.3219
26.3500,39.3776
26.3500,47.7222
26.3300,47.7904
26.2763,47.8369
26.2240,47.8483
11.4760,47.8483
11.4079,47.8282
11.3614,47.7746
11.3500,47.7222
11.3500,44.5283
13.0868,44.5283
13.1056,44.8024
13.1056,44.8024
13.1056,44.8024
13.1061,44.8048
13.1615,45.0714
13.1615,45.0714
13.1812,45.1271
13.2535,45.3303
13.3798,45.5740
13.3799,45.5743
13.4478,45.6705
13.5383,45.7988
13.7259,45.9996
13.9390,46.1730
14.1738,46.3157
14.4258,46.4252
14.6904,46.4993
14.7855,46.5124
14.9626,46.5367
14.9626,46.5367
15.2374,46.5367
15.2374,46.5367
15.3669,46.5189
15.5096,46.4993
15.7742,46.4252
16.0262,46.3157
16.2610,46.1730
16.4741,45.9996
16.6617,45.7988
16.8201,45.5743
16.9465,45.3303
17.0385,45.0714
17.0944,44.8024
17.0944,44.8023
17.1132,44.5283
20.5773,44.5283
20.5961,44.8023
20.5961,44.8023
20.6519,45.0713
20.6519,45.0713
20.7439,45.3301
20.8703,45.5740
20.8703,45.5740
21.0005,45.7585
21.6974,45.0617
21.7597,45.0277
21.8305,45.0327
21.8873,45.0753
21.8884,45.0767
21.9250,45.1271
22.0502,45.2398
22.0874,45.3002
22.0860,45.3712
22.0549,45.4225
21.3607,46.1167
21.3607,46.1167
21.4293,46.1726
21.4293,46.1726
21.6640,46.3153
21.9160,46.4247
22.1805,46.4988
22.4526,46.5362
22.4526,46.5362
22.7274,46.5362
22.7274,46.5362
22.9995,46.4988
23.2640,46.4247
23.5160,46.3153
23.7507,46.1726
23.8193,46.1167
23.1251,45.4225
23.0910,45.3602
23.0961,45.2894
23.1298,45.2398
23.2550,45.1271
23.2916,45.0767
23.3478,45.0334
23.4186,45.0273
23.4814,45.0604
23.4826,45.0617
24.1795,45.7585
24.3097,45.5740
24.3097,45.5740
24.4361,45.3301
24.5281,45.0713
24.5281,45.0713
24.5839,44.8023
24.5839,44.8023
24.6027,44.5283
24.6027,44.5282
24.5839,44.2542
24.5839,44.2542
24.5281,43.9852
24.5281,43.9852
24.4361,43.7264
24.3097,43.4825
24.3097,43.4825
24.1795,43.2980
23.4826,43.9948
23.4203,44.0288
23.3495,44.0238
23.2927,43.9812
23.2916,43.9798
23.2550,43.9294
23.2550,43.9294
23.1298,43.8167
23.0926,43.7563
23.0940,43.6853
23.1251,43.6340
23.8194,42.9397
23.8194,42.9368
23.1251,42.2425
23.0910,42.1802
23.0961,42.1094
23.1298,42.0598
23.2550,41.9471
23.2916,41.8967
23.3478,41.8534
23.4186,41.8473
23.4814,41.8804
23.4826,41.8817
24.1795,42.5785
24.3097,42.3940
24.3097,42.3940
24.4361,42.1501
24.5281,41.8913
24.5281,41.8913
24.5839,41.6223
24.5839,41.6223
24.6027,41.3483
24.6027,41.3482
24.5839,41.0742
24.5839,41.0742
24.5281,40.8052
24.5281,40.8052
24.4361,40.5464
24.3097,40.3025
24.3097,40.3025
24.1795,40.1180
23.4826,40.8148
23.4203,40.8488
23.3495,40.8438
23.2927,40.8012
23.2916,40.7998
23.2550,40.7494
23.2550,40.7494
23.1298,40.6367
23.0926,40.5763
23.0940,40.5053
23.1251,40.4540
23.8193,39.7598
23.7507,39.7039
23.5160,39.5612
23.2640,39.4518
22.9995,39.3777
22.7274,39.3402
22.4526,39.3402
22.1805,39.3777
21.9160,39.4518
21.6640,39.5612
21.4293,39.7039
21.3607,39.7598
22.0549,40.4540
22.0890,40.5163
22.0839,40.5871
22.0502,40.6367
21.9250,40.7494
21.8884,40.7998
21.8322,40.8431
21.7614,40.8492
21.6986,40.8161
21.6974,40.8148
21.0005,40.1180
20.8703,40.3025
20.7439,40.5464
20.6519,40.8052
20.6519,40.8052
20.5961,41.0742
20.5961,41.0742
20.5773,41.3482
20.5773,41.3483
20.5961,41.6223
20.5961,41.6223
20.6519,41.8913
20.6519,41.8913
20.7439,42.1501
20.8703,42.3940
20.8703,42.3940
21.0005,42.5785
21.6974,41.8817
21.7597,41.8477
21.8305,41.8527
21.8873,41.8953
21.8884,41.8967
21.9250,41.9471
22.0502,42.0598
22.0874,42.1202
22.0860,42.1912
22.0549,42.2425
21.3606,42.9368
21.3606,42.9397
22.0549,43.6340
22.0890,43.6963
22.0839,43.7671
22.0502,43.8167
21.9250,43.9294
21.8884,43.9798
21.8322,44.0231
21.7614,44.0292
21.6986,43.9961
21.6974,43.9948
21.0005,43.2980
20.8703,43.4825
20.7439,43.7264
20.6519,43.9852
20.6519,43.9852
20.5961,44.2542
20.5961,44.2542
20.5773,44.5282
20.5773,44.5283
17.1132,44.5283
17.1132,44.5282
17.0944,44.2541
17.0944,44.2541
17.0944,44.2541
17.0385,43.9851
16.9465,43.7262
16.8201,43.4822
16.6617,43.2577
16.4741,43.0569
16.4484,43.0360
16.4081,42.9775
16.4059,42.9065
16.4425,42.8456
16.4483,42.8405
16.4741,42.8196
16.6617,42.6188
16.8201,42.3943
16.9465,42.1503
17.0385,41.8914
17.0944,41.6224
17.0944,41.6223
17.1132,41.3483
17.1132,41.3482
17.0944,41.0741
17.0944,41.0741
17.0944,41.0741
17.0385,40.8051
16.9465,40.5462
16.8201,40.3022
16.6617,40.0777
16.4741,39.8769
16.2610,39.7035
16.0262,39.5608
16.0262,39.5608
16.0262,39.5608
15.9483,39.5269
15.8938,39.4814
15.8725,39.4137
15.8725,39.4114
15.8725,23.4695
15.8925,23.4014
15.9462,23.3549
15.9483,23.3539
16.0362,23.3157
16.2710,23.1730
16.4841,22.9996
16.6717,22.7988
16.8301,22.5743
16.9565,22.3303
17.0485,22.0714
17.1044,21.8024
17.1044,21.8023
17.1232,21.5283
17.1232,21.5282
17.1044,21.2541
17.1044,21.2541
17.1044,21.2541
17.0485,20.9851
16.9565,20.7262
16.8301,20.4822
16.6717,20.2577
16.4841,20.0569
16.4584,20.0360
16.4181,19.9775
16.4159,19.9065
16.4525,19.8456
16.4583,19.8405
16.4841,19.8196
16.6717,19.6188
16.8301,19.3943
16.9565,19.1503
17.0485,18.8914
17.1044,18.6224
17.1044,18.6223
17.1232,18.3483
17.1232,18.3482
17.1044,18.0741
17.1044,18.0741
17.1044,18.0741
17.0485,17.8051
16.9565,17.5462
16.8301,17.3022
16.6717,17.0777
16.4841,16.8769
16.2710,16.7035
16.0362,16.5608
16.0362,16.5608
16.0362,16.5608
15.7842,16.4513
15.7842,16.4513
15.7842,16.4513
15.5917,16.3974
15.5196,16.3772
15.2474,16.3397
15.2474,16.3397
14.9726,16.3397
14.9726,16.3397
14.7004,16.3772
14.4358,16.4513
14.1838,16.5608
13.9490,16.7035
13.7359,16.8769
13.5483,17.0777
13.3899,17.3022
13.2635,17.5462
13.1715,17.8051
13.1715,17.8051
13.1156,18.0741
13.1156,18.0741
13.0968,18.3482
13.0968,18.3483
13.1156,18.6224
13.1156,18.6224
13.1156,18.6224
13.1161,18.6248
13.1715,18.8914
13.1715,18.8914
13.1912,18.9471
13.2635,19.1503
13.3898,19.3940
13.3899,19.3943
13.4578,19.4905
13.5483,19.6188
13.7359,19.8196
13.7568,19.8365
13.7616,19.8405
13.8019,19.8990
13.8041,19.9700
13.7675,20.0309
13.7616,20.0360
13.7359,20.0569
13.7359,20.0569
13.5483,20.2577
13.3899,20.4822
13.2635,20.7262
13.1715,20.9851
13.1715,20.9851
13.1156,21.2541
13.1156,21.2541
13.0968,21.5282
13.0968,21.5283
13.1156,21.8024
13.1156,21.8024
13.1156,21.8024
13.1161,21.8048
13.1715,22.0714
13.1715,22.0714
13.1912,22.1271
13.2635,22.3303
13.3898,22.5740
13.3899,22.5743
13.4578,22.6705
13.5483,22.7988
13.7359,22.9996
13.9490,23.1730
14.1838,23.3157
14.2717,23.3539
14.3262,23.3994
14.3475,23.4671
14.3475,23.4695
14.3475,39.4027
14.3275,39.4708
14.2738,39.5173
14.2717,39.5182
14.1738,39.5608
13.9390,39.7035
13.7259,39.8769
13.5383,40.0777
13.3799,40.3022
13.2535,40.5462
13.1615,40.8051
13.1615,40.8051
13.1056,41.0741
13.1056,41.0741
13.0868,41.3482
13.0868,41.3483
13.1056,41.6224
13.1056,41.6224
13.1056,41.6224
13.1061,41.6248
13.1615,41.8914
13.1615,41.8914
13.1812,41.9471
13.2535,42.1503
13.3798,42.3940
13.3799,42.3943
13.4478,42.4905
13.5383,42.6188
13.7259,42.8196
13.7259,42.8196
13.7259,42.8196
13.7516,42.8405
13.7919,42.8990
13.7941,42.9700
13.7575,43.0309
13.7516,43.0360
13.7259,43.0569
13.7259,43.0569
13.5383,43.2577
13.3799,43.4822
13.2535,43.7262
13.1615,43.9851
13.1615,43.9851
13.1056,44.2541
13.1056,44.2541
13.0868,44.5282
13.0868,44.5283
11.3500,44.5283
11.3500,39.3482
9.3069,34.5809
10.4081,34.5809
10.4268,34.7589
10.4821,34.9291
10.4821,34.9291
10.5716,35.0841
10.5716,35.0841
10.5716,35.0841
10.5872,35.1014
10.6914,35.2171
10.8361,35.3223
10.8361,35.3223
10.8361,35.3223
10.9996,35.3951
11.1747,35.4323
11.3537,35.4323
11.5287,35.3951
11.6922,35.3223
11.8076,35.2385
11.8745,35.2146
11.8817,35.2144
11.9587,35.2144
12.0268,35.2344
12.0328,35.2385
12.1719,35.3396
12.1720,35.3396
12.1720,35.3396
12.3355,35.4124
12.5105,35.4496
12.6895,35.4496
12.8645,35.4124
13.0280,35.3396
13.1728,35.2344
13.2926,35.1014
13.3821,34.9464
13.3877,34.9291
13.4374,34.7762
13.4374,34.7762
13.4561,34.5982
13.4374,34.4202
13.4318,34.4029
13.3821,34.2500
13.3821,34.2500
13.3721,34.2327
13.2926,34.0950
13.1728,33.9620
13.1728,33.9620
13.0280,33.8568
12.9892,33.8395
12.8645,33.7840
12.6895,33.7468
12.5105,33.7468
12.3355,33.7840
12.1720,33.8568
12.0804,33.9234
12.0135,33.9472
12.0063,33.9474
11.8817,33.9474
11.8136,33.9274
11.8076,33.9234
11.6922,33.8395
11.5287,33.7667
11.3537,33.7295
11.1747,33.7295
10.9996,33.7667
10.8361,33.8395
10.6914,33.9447
10.5716,34.0777
10.4821,34.2327
10.4821,34.2327
10.4268,34.4029
10.4268,34.4029
10.4268,34.4029
10.4250,34.4202
10.4081,34.5809
9.3069,34.5809
4.6102,23.6220
4.6000,23.5724
4.6000,21.5283
5.6073,21.5283
5.6261,21.8023
5.6261,21.8023
5.6819,22.0713
5.6819,22.0713
5.7739,22.3301
5.9003,22.5740
5.9003,22.5740
6.0305,22.7585
6.7274,22.0617
6.7897,22.0277
6.8605,22.0327
6.9173,22.0753
6.9184,22.0767
6.9550,22.1271
7.0802,22.2398
7.1174,22.3002
7.1160,22.3712
7.0849,22.4225
6.3907,23.1167
6.3907,23.1167
6.4593,23.1726
6.4593,23.1726
6.6940,23.3153
6.9460,23.4247
7.2105,23.4988
7.4826,23.5362
7.4826,23.5362
7.7574,23.5362
7.7574,23.5362
8.0295,23.4988
8.2940,23.4247
8.5460,23.3153
8.7807,23.1726
8.8493,23.1167
8.1551,22.4225
8.1210,22.3602
8.1261,22.2894
8.1598,22.2398
8.2850,22.1271
8.3216,22.0767
8.3778,22.0334
8.4486,22.0273
8.5114,22.0604
8.5126,22.0617
9.2095,22.7585
9.3397,22.5740
9.3397,22.5740
9.4661,22.3301
9.5581,22.0713
9.5581,22.0713
9.6139,21.8023
9.6139,21.8023
9.6327,21.5283
9.6327,21.5282
9.6139,21.2542
9.6139,21.2542
9.5581,20.9852
9.5581,20.9852
9.4661,20.7264
9.3397,20.4825
9.3397,20.4825
9.2095,20.2980
8.5126,20.9948
8.4503,21.0288
8.3795,21.0238
8.3227,20.9812
8.3216,20.9798
8.2850,20.9294
8.2850,20.9294
8.1598,20.8167
8.1226,20.7563
8.1240,20.6853
8.1551,20.6340
8.8494,19.9397
8.8494,19.9368
8.1551,19.2425
8.1210,19.1802
8.1261,19.1094
8.1598,19.0598
8.2850,18.9471
8.3216,18.8967
8.3778,18.8534
8.4486,18.8473
8.5114,18.8804
8.5126,18.8817
9.2095,19.5785
9.3397,19.3940
9.3397,19.3940
9.4661,19.1501
9.5581,18.8913
9.5581,18.8913
9.6139,18.6223
9.6139,18.6223
9.6327,18.3483
9.6327,18.3482
9.6139,18.0742
9.6139,18.0742
9.5581,17.8052
9.5581,17.8052
9.4661,17.5464
9.3397,17.3025
9.3397,17.3025
9.2095,17.1180
8.5126,17.8148
8.4503,17.8488
8.3795,17.8438
8.3227,17.8012
8.3216,17.7998
8.2850,17.7494
8.2850,17.7494
8.1598,17.6367
8.1226,17.5763
8.1240,17.5053
8.1551,17.4540
8.8493,16.7598
8.7807,16.7039
8.5460,16.5612
8.2940,16.4518
8.0295,16.3777
7.7574,16.3402
7.4826,16.3402
7.2105,16.3777
6.9460,16.4518
6.6940,16.5612
6.4593,16.7039
6.3907,16.7598
7.0849,17.4540
7.1190,17.5163
7.1139,17.5871
7.0802,17.6367
6.9550,17.7494
6.9184,17.7998
6.8622,17.8431
6.7914,17.8492
6.7286,17.8161
6.7274,17.8148
6.0305,17.1180
5.9003,17.3025
5.7739,17.5464
5.6819,17.8052
5.6819,17.8052
5.6261,18.0742
5.6261,18.0742
5.6073,18.3482
5.6073,18.3483
5.6261,18.6223
5.6261,18.6223
5.6819,18.8913
5.6819,18.8913
5.7739,19.1501
5.9003,19.3940
5.9003,19.3940
6.0305,19.5785
6.7274,18.8817
6.7897,18.8477
6.8605,18.8527
6.9173,18.8953
6.9184,18.8967
6.9550,18.9471
7.0802,19.0598
7.1174,19.1202
7.1160,19.1912
7.0849,19.2425
6.3906,19.9368
6.3906,19.9397
7.0849,20.6340
7.1190,20.6963
7.1139,20.7671
7.0802,20.8167
6.9550,20.9294
6.9184,20.9798
6.8622,21.0231
6.7914,21.0292
6.7286,20.9961
6.7274,20.9948
6.0305,20.2980
5.9003,20.4825
5.7739,20.7264
5.6819,20.9852
5.6819,20.9852
5.6261,21.2542
5.6261,21.2542
5.6073,21.5282
5.6073,21.5283
4.6000,21.5283
4.6000,15.7242
4.6200,15.6561
4.6737,15.6096
4.7260,15.5983
18.4740,15.5983
Z" /> 
</g>
</g>
</g>
<g style="fill:#000000; fill-opacity:1.0000; 
stroke:#000000; stroke-width:0.0000; stroke-opacity:1; 
stroke-linecap:round; stroke-linejoin:round;">
<circle cx="16.6000" cy="23.8483" r="0.1651" /> 
</g>
<g style="fill:#000000; fill-opacity:1.0000; 
stroke:#000000; stroke-width:0.0212; stroke-opacity:1; 
stroke-linecap:round; stroke-linejoin:round;">
</g>
<g style="fill:#000000; fill-opacity:1.0000; 
stroke:#000000; stroke-width:0.0000; stroke-opacity:1; 
stroke-linecap:round; stroke-linejoin:round;">
<circle cx="17.3500" cy="35.8483" r="0.1651" /> 
</g>
<g style="fill:#000000; fill-opacity:1.0000; 
stroke:#000000; stroke-width:0.0212; stroke-opacity:1; 
stroke-linecap:round; stroke-linejoin:round;">
</g>
<g style="fill:#000000; fill-opacity:1.0000; 
stroke:#000000; stroke-width:0.0000; stroke-opacity:1; 
stroke-linecap:round; stroke-linejoin:round;">
<circle cx="11.2642" cy="34.5809" r="0.1651" /> 
</g>
<g style="fill:#000000; fill-opacity:1.0000; 
stroke:#000000; stroke-width:0.0212; stroke-opacity:1; 
stroke-linecap:round; stroke-linejoin:round;">
</g>
<g style="fill:#000000; fill-opacity:1.0000; 
stroke:#000000; stroke-width:0.0000; stroke-opacity:1; 
stroke-linecap:round; stroke-linejoin:round;">
<circle cx="12.6000" cy="34.5982" r="0.1651" /> 
</g>
<g style="fill:#000000; fill-opacity:1.0000; 
stroke:#000000; stroke-width:0.0212; stroke-opacity:1; 
stroke-linecap:round; stroke-linejoin:round;">
</g>
<g style="fill:#000000; fill-opacity:1.0000; 
stroke:#000000; stroke-width:0.0000; stroke-opacity:1; 
stroke-linecap:round; stroke-linejoin:round;">
<circle cx="1.8500" cy="34.0983" r="0.1651" /> 
</g>
<g style="fill:#000000; fill-opacity:1.0000; 
stroke:#000000; stroke-width:0.0212; stroke-opacity:1; 
stroke-linecap:round; stroke-linejoin:round;">
</g>
<g style="fill:#000000; fill-opacity:1.0000; 
stroke:#000000; stroke-width:0.0000; stroke-opacity:1; 
stroke-linecap:round; stroke-linejoin:round;">
<circle cx="28.6000" cy="37.3483" r="0.4000" /> 
</g>
<g style="fill:#000000; fill-opacity:1.0000; 
stroke:#000000; stroke-width:0.0212; stroke-opacity:1; 
stroke-linecap:round; stroke-linejoin:round;">
</g>
<g style="fill:#000000; fill-opacity:1.0000; 
stroke:#000000; stroke-width:0.0000; stroke-opacity:1; 
stroke-linecap:round; stroke-linejoin:round;">
<circle cx="26.6000" cy="37.3483" r="0.4000" /> 
</g>
<g style="fill:#000000; fill-opacity:1.0000; 
stroke:#000000; stroke-width:0.0212; stroke-opacity:1; 
stroke-linecap:round; stroke-linejoin:round;">
</g>
<g style="fill:#000000; fill-opacity:1.0000; 
stroke:#000000; stroke-width:0.0000; stroke-opacity:1; 
stroke-linecap:round; stroke-linejoin:round;">
<circle cx="24.6000" cy="37.3483" r="0.4000" /> 
</g>
<g style="fill:#000000; fill-opacity:1.0000; 
stroke:#000000; stroke-width:0.0212; stroke-opacity:1; 
stroke-linecap:round; stroke-linejoin:round;">
</g>
<g style="fill:#000000; fill-opacity:1.0000; 
stroke:#000000; stroke-width:0.0000; stroke-opacity:1; 
stroke-linecap:round; stroke-linejoin:round;">
<circle cx="22.6000" cy="37.3483" r="0.4000" /> 
</g>
<g style="fill:#000000; fill-opacity:1.0000; 
stroke:#000000; stroke-width:0.0212; stroke-opacity:1; 
stroke-linecap:round; stroke-linejoin:round;">
</g>
<g style="fill:#000000; fill-opacity:1.0000; 
stroke:#000000; stroke-width:0.0000; stroke-opacity:1; 
stroke-linecap:round; stroke-linejoin:round;">
<circle cx="27.3500" cy="5.2182" r="1.5000" /> 
</g>
<g style="fill:#000000; fill-opacity:1.0000; 
stroke:#000000; stroke-width:0.0212; stroke-opacity:1; 
stroke-linecap:round; stroke-linejoin:round;">
</g>
<g style="fill:#000000; fill-opacity:1.0000; 
stroke:#000000; stroke-width:0.0000; stroke-opacity:1; 
stroke-linecap:round; stroke-linejoin:round;">
<circle cx="2.8700" cy="5.2182" r="1.5000" /> 
</g>
<g style="fill:#000000; fill-opacity:1.0000; 
stroke:#000000; stroke-width:0.0212; stroke-opacity:1; 
stroke-linecap:round; stroke-linejoin:round;">
</g>
<g style="fill:#000000; fill-opacity:1.0000; 
stroke:#000000; stroke-width:0.0000; stroke-opacity:1; 
stroke-linecap:round; stroke-linejoin:round;">
<circle cx="22.6000" cy="21.5282" r="0.8900" /> 
</g>
<g style="fill:#000000; fill-opacity:1.0000; 
stroke:#000000; stroke-width:0.0212; stroke-opacity:1; 
stroke-linecap:round; stroke-linejoin:round;">
</g>
<g style="fill:#000000; fill-opacity:1.0000; 
stroke:#000000; stroke-width:0.0000; stroke-opacity:1; 
stroke-linecap:round; stroke-linejoin:round;">
<circle cx="22.6000" cy="18.3483" r="0.8900" /> 
</g>
<g style="fill:#000000; fill-opacity:1.0000; 
stroke:#000000; stroke-width:0.0212; stroke-opacity:1; 
stroke-linecap:round; stroke-linejoin:round;">
</g>
<g style="fill:#000000; fill-opacity:1.0000; 
stroke:#000000; stroke-width:0.0000; stroke-opacity:1; 
stroke-linecap:round; stroke-linejoin:round;">
<circle cx="15.1100" cy="21.5282" r="0.8900" /> 
</g>
<g style="fill:#000000; fill-opacity:1.0000; 
stroke:#000000; stroke-width:0.0212; stroke-opacity:1; 
stroke-linecap:round; stroke-linejoin:round;">
</g>
<g style="fill:#000000; fill-opacity:1.0000; 
stroke:#000000; stroke-width:0.0000; stroke-opacity:1; 
stroke-linecap:round; stroke-linejoin:round;">
<circle cx="15.1100" cy="18.3483" r="0.8900" /> 
</g>
<g style="fill:#000000; fill-opacity:1.0000; 
stroke:#000000; stroke-width:0.0212; stroke-opacity:1; 
stroke-linecap:round; stroke-linejoin:round;">
</g>
<g style="fill:#000000; fill-opacity:1.0000; 
stroke:#000000; stroke-width:0.0000; stroke-opacity:1; 
stroke-linecap:round; stroke-linejoin:round;">
<circle cx="7.6200" cy="21.5282" r="0.8900" /> 
</g>
<g style="fill:#000000; fill-opacity:1.0000; 
stroke:#000000; stroke-width:0.0212; stroke-opacity:1; 
stroke-linecap:round; stroke-linejoin:round;">
</g>
<g style="fill:#000000; fill-opacity:1.0000; 
stroke:#000000; stroke-width:0.0000; stroke-opacity:1; 
stroke-linecap:round; stroke-linejoin:round;">
<circle cx="7.6200" cy="18.3483" r="0.8900" /> 
</g>
<g style="fill:#000000; fill-opacity:1.0000; 
stroke:#000000; stroke-width:0.0212; stroke-opacity:1; 
stroke-linecap:round; stroke-linejoin:round;">
</g>
<g style="fill:#000000; fill-opacity:1.0000; 
stroke:#000000; stroke-width:0.0000; stroke-opacity:1; 
stroke-linecap:round; stroke-linejoin:round;">
<circle cx="2.8600" cy="57.6582" r="1.5000" /> 
</g>
<g style="fill:#000000; fill-opacity:1.0000; 
stroke:#000000; stroke-width:0.0212; stroke-opacity:1; 
stroke-linecap:round; stroke-linejoin:round;">
</g>
<g style="fill:#000000; fill-opacity:1.0000; 
stroke:#000000; stroke-width:0.0000; stroke-opacity:1; 
stroke-linecap:round; stroke-linejoin:round;">
<circle cx="27.3400" cy="57.6582" r="1.5000" /> 
</g>
<g style="fill:#000000; fill-opacity:1.0000; 
stroke:#000000; stroke-width:0.0212; stroke-opacity:1; 
stroke-linecap:round; stroke-linejoin:round;">
</g>
<g style="fill:#000000; fill-opacity:1.0000; 
stroke:#000000; stroke-width:0.0000; stroke-opacity:1; 
stroke-linecap:round; stroke-linejoin:round;">
<circle cx="7.6100" cy="41.3483" r="0.8900" /> 
</g>
<g style="fill:#000000; fill-opacity:1.0000; 
stroke:#000000; stroke-width:0.0212; stroke-opacity:1; 
stroke-linecap:round; stroke-linejoin:round;">
</g>
<g style="fill:#000000; fill-opacity:1.0000; 
stroke:#000000; stroke-width:0.0000; stroke-opacity:1; 
stroke-linecap:round; stroke-linejoin:round;">
<circle cx="7.6100" cy="44.5282" r="0.8900" /> 
</g>
<g style="fill:#000000; fill-opacity:1.0000; 
stroke:#000000; stroke-width:0.0212; stroke-opacity:1; 
stroke-linecap:round; stroke-linejoin:round;">
</g>
<g style="fill:#000000; fill-opacity:1.0000; 
stroke:#000000; stroke-width:0.0000; stroke-opacity:1; 
stroke-linecap:round; stroke-linejoin:round;">
<circle cx="15.1000" cy="41.3483" r="0.8900" /> 
</g>
<g style="fill:#000000; fill-opacity:1.0000; 
stroke:#000000; stroke-width:0.0212; stroke-opacity:1; 
stroke-linecap:round; stroke-linejoin:round;">
</g>
<g style="fill:#000000; fill-opacity:1.0000; 
stroke:#000000; stroke-width:0.0000; stroke-opacity:1; 
stroke-linecap:round; stroke-linejoin:round;">
<circle cx="15.1000" cy="44.5282" r="0.8900" /> 
</g>
<g style="fill:#000000; fill-opacity:1.0000; 
stroke:#000000; stroke-width:0.0212; stroke-opacity:1; 
stroke-linecap:round; stroke-linejoin:round;">
</g>
<g style="fill:#000000; fill-opacity:1.0000; 
stroke:#000000; stroke-width:0.0000; stroke-opacity:1; 
stroke-linecap:round; stroke-linejoin:round;">
<circle cx="22.5900" cy="41.3483" r="0.8900" /> 
</g>
<g style="fill:#000000; fill-opacity:1.0000; 
stroke:#000000; stroke-width:0.0212; stroke-opacity:1; 
stroke-linecap:round; stroke-linejoin:round;">
</g>
<g style="fill:#000000; fill-opacity:1.0000; 
stroke:#000000; stroke-width:0.0000; stroke-opacity:1; 
stroke-linecap:round; stroke-linejoin:round;">
<circle cx="22.5900" cy="44.5282" r="0.8900" /> 
</g>
<g style="fill:#000000; fill-opacity:1.0000; 
stroke:#000000; stroke-width:0.0212; stroke-opacity:1; 
stroke-linecap:round; stroke-linejoin:round;">
</g>
<g style="fill:#FFFFFF; fill-opacity:1.0000; 
stroke:#FFFFFF; stroke-width:0.0212; stroke-opacity:1; 
stroke-linecap:round; stroke-linejoin:round;">
<g >
</g>
<g style="fill:#37CBCB; fill-opacity:1.0000; 
stroke:#37CBCB; stroke-width:0.0212; stroke-opacity:1; 
stroke-linecap:round; stroke-linejoin:round;">
</g>
<g style="fill:#37CBCB; fill-opacity:1.0000; 
stroke:#37CBCB; stroke-width:0.0000; stroke-opacity:1; 
stroke-linecap:round; stroke-linejoin:round;">
<path style="fill:#37CBCB; fill-opacity:1.0000; 
stroke:#37CBCB; stroke-width:0.0000; stroke-opacity:1; 
stroke-linecap:round; stroke-linejoin:round;fill-rule:evenodd;"
d="M 14.3000,33.3582
14.3000,33.9582
12.8000,33.9582
12.8000,33.3582
Z" /> 
<path style="fill:#37CBCB; fill-opacity:1.0000; 
stroke:#37CBCB; stroke-width:0.0000; stroke-opacity:1; 
stroke-linecap:round; stroke-linejoin:round;fill-rule:evenodd;"
d="M 14.3000,32.0882
14.3000,32.6882
12.8000,32.6882
12.8000,32.0882
Z" /> 
<path style="fill:#37CBCB; fill-opacity:1.0000; 
stroke:#37CBCB; stroke-width:0.0000; stroke-opacity:1; 
stroke-linecap:round; stroke-linejoin:round;fill-rule:evenodd;"
d="M 14.3000,30.8182
14.3000,31.4182
12.8000,31.4182
12.8000,30.8182
Z" /> 
<path style="fill:#37CBCB; fill-opacity:1.0000; 
stroke:#37CBCB; stroke-width:0.0000; stroke-opacity:1; 
stroke-linecap:round; stroke-linejoin:round;fill-rule:evenodd;"
d="M 14.3000,29.5482
14.3000,30.1482
12.8000,30.1482
12.8000,29.5482
Z" /> 
<path style="fill:#37CBCB; fill-opacity:1.0000; 
stroke:#37CBCB; stroke-width:0.0000; stroke-opacity:1; 
stroke-linecap:round; stroke-linejoin:round;fill-rule:evenodd;"
d="M 14.3000,28.2782
14.3000,28.8782
12.8000,28.8782
12.8000,28.2782
Z" /> 
<path style="fill:#37CBCB; fill-opacity:1.0000; 
stroke:#37CBCB; stroke-width:0.0000; stroke-opacity:1; 
stroke-linecap:round; stroke-linejoin:round;fill-rule:evenodd;"
d="M 14.3000,27.0083
14.3000,27.6082
12.8000,27.6082
12.8000,27.0083
Z" /> 
<path style="fill:#37CBCB; fill-opacity:1.0000; 
stroke:#37CBCB; stroke-width:0.0000; stroke-opacity:1; 
stroke-linecap:round; stroke-linejoin:round;fill-rule:evenodd;"
d="M 14.3000,25.7382
14.3000,26.3382
12.8000,26.3382
12.8000,25.7382
Z" /> 
<path style="fill:#37CBCB; fill-opacity:1.0000; 
stroke:#37CBCB; stroke-width:0.0000; stroke-opacity:1; 
stroke-linecap:round; stroke-linejoin:round;fill-rule:evenodd;"
d="M 8.9000,25.7382
8.9000,26.3382
7.4000,26.3382
7.4000,25.7382
Z" /> 
<path style="fill:#37CBCB; fill-opacity:1.0000; 
stroke:#37CBCB; stroke-width:0.0000; stroke-opacity:1; 
stroke-linecap:round; stroke-linejoin:round;fill-rule:evenodd;"
d="M 8.9000,27.0083
8.9000,27.6082
7.4000,27.6082
7.4000,27.0083
Z" /> 
<path style="fill:#37CBCB; fill-opacity:1.0000; 
stroke:#37CBCB; stroke-width:0.0000; stroke-opacity:1; 
stroke-linecap:round; stroke-linejoin:round;fill-rule:evenodd;"
d="M 8.9000,28.2782
8.9000,28.8782
7.4000,28.8782
7.4000,28.2782
Z" /> 
<path style="fill:#37CBCB; fill-opacity:1.0000; 
stroke:#37CBCB; stroke-width:0.0000; stroke-opacity:1; 
stroke-linecap:round; stroke-linejoin:round;fill-rule:evenodd;"
d="M 8.9000,29.5482
8.9000,30.1482
7.4000,30.1482
7.4000,29.5482
Z" /> 
<path style="fill:#37CBCB; fill-opacity:1.0000; 
stroke:#37CBCB; stroke-width:0.0000; stroke-opacity:1; 
stroke-linecap:round; stroke-linejoin:round;fill-rule:evenodd;"
d="M 8.9000,30.8182
8.9000,31.4182
7.4000,31.4182
7.4000,30.8182
Z" /> 
<path style="fill:#37CBCB; fill-opacity:1.0000; 
stroke:#37CBCB; stroke-width:0.0000; stroke-opacity:1; 
stroke-linecap:round; stroke-linejoin:round;fill-rule:evenodd;"
d="M 8.9000,32.0882
8.9000,32.6882
7.4000,32.6882
7.4000,32.0882
Z" /> 
<path style="fill:#37CBCB; fill-opacity:1.0000; 
stroke:#37CBCB; stroke-width:0.0000; stroke-opacity:1; 
stroke-linecap:round; stroke-linejoin:round;fill-rule:evenodd;"
d="M 8.9000,33.3582
8.9000,33.9582
7.4000,33.9582
7.4000,33.3582
Z" /> 
</g>
<g >
</g>
<g style="fill:#37CBCB; fill-opacity:1.0000; 
stroke:#37CBCB; stroke-width:0.0000; stroke-opacity:1; 
stroke-linecap:round; stroke-linejoin:round;">
<path style="fill:#37CBCB; fill-opacity:1.0000; 
stroke:#37CBCB; stroke-width:0.0000; stroke-opacity:1; 
stroke-linecap:round; stroke-linejoin:round;fill-rule:evenodd;"
d="M 12.5500,36.1482
12.5500,37.0482
11.3500,37.0482
11.3500,36.1482
Z" /> 
<path style="fill:#37CBCB; fill-opacity:1.0000; 
stroke:#37CBCB; stroke-width:0.0000; stroke-opacity:1; 
stroke-linecap:round; stroke-linejoin:round;fill-rule:evenodd;"
d="M 10.3500,36.1482
10.3500,37.0482
9.1500,37.0482
9.1500,36.1482
Z" /> 
</g>
<g >
</g>
<g style="fill:#37CBCB; fill-opacity:1.0000; 
stroke:#37CBCB; stroke-width:0.0000; stroke-opacity:1; 
stroke-linecap:round; stroke-linejoin:round;">
<path style="fill:#37CBCB; fill-opacity:1.0000; 
stroke:#37CBCB; stroke-width:0.0000; stroke-opacity:1; 
stroke-linecap:round; stroke-linejoin:round;fill-rule:evenodd;"
d="M 1.6000,27.0983
1.6000,26.0983
2.6000,26.0983
2.6000,27.0983
Z" /> 
<path style="fill:#37CBCB; fill-opacity:1.0000; 
stroke:#37CBCB; stroke-width:0.0000; stroke-opacity:1; 
stroke-linecap:round; stroke-linejoin:round;fill-rule:evenodd;"
d="M 4.1000,27.0983
4.1000,26.0983
5.1000,26.0983
5.1000,27.0983
Z" /> 
</g>
<g >
</g>
<g style="fill:#37CBCB; fill-opacity:1.0000; 
stroke:#37CBCB; stroke-width:0.0000; stroke-opacity:1; 
stroke-linecap:round; stroke-linejoin:round;">
<path style="fill:#37CBCB; fill-opacity:1.0000; 
stroke:#37CBCB; stroke-width:0.0000; stroke-opacity:1; 
stroke-linecap:round; stroke-linejoin:round;fill-rule:evenodd;"
d="M 5.4400,32.2383
5.4400,33.4582
4.5300,33.4582
4.5300,32.2383
Z" /> 
<path style="fill:#37CBCB; fill-opacity:1.0000; 
stroke:#37CBCB; stroke-width:0.0000; stroke-opacity:1; 
stroke-linecap:round; stroke-linejoin:round;fill-rule:evenodd;"
d="M 2.1700,32.2383
2.1700,33.4582
1.2600,33.4582
1.2600,32.2383
Z" /> 
</g>
<g >
</g>
<g style="fill:#37CBCB; fill-opacity:1.0000; 
stroke:#37CBCB; stroke-width:0.0000; stroke-opacity:1; 
stroke-linecap:round; stroke-linejoin:round;">
<path style="fill:#37CBCB; fill-opacity:1.0000; 
stroke:#37CBCB; stroke-width:0.0000; stroke-opacity:1; 
stroke-linecap:round; stroke-linejoin:round;fill-rule:evenodd;"
d="M 27.9250,36.6732
29.2750,36.6732
29.2750,38.0232
27.9250,38.0232
Z" /> 
<circle cx="26.6000" cy="37.3483" r="0.6750" /> 
</g>
<g style="fill:#37CBCB; fill-opacity:1.0000; 
stroke:#37CBCB; stroke-width:0.0212; stroke-opacity:1; 
stroke-linecap:round; stroke-linejoin:round;">
</g>
<g style="fill:#37CBCB; fill-opacity:1.0000; 
stroke:#37CBCB; stroke-width:0.0000; stroke-opacity:1; 
stroke-linecap:round; stroke-linejoin:round;">
<circle cx="24.6000" cy="37.3483" r="0.6750" /> 
</g>
<g style="fill:#37CBCB; fill-opacity:1.0000; 
stroke:#37CBCB; stroke-width:0.0212; stroke-opacity:1; 
stroke-linecap:round; stroke-linejoin:round;">
</g>
<g style="fill:#37CBCB; fill-opacity:1.0000; 
stroke:#37CBCB; stroke-width:0.0000; stroke-opacity:1; 
stroke-linecap:round; stroke-linejoin:round;">
<circle cx="22.6000" cy="37.3483" r="0.6750" /> 
</g>
<g style="fill:#37CBCB; fill-opacity:1.0000; 
stroke:#37CBCB; stroke-width:0.0212; stroke-opacity:1; 
stroke-linecap:round; stroke-linejoin:round;">
</g>
<g >
</g>
<g style="fill:#37CBCB; fill-opacity:1.0000; 
stroke:#37CBCB; stroke-width:0.0212; stroke-opacity:1; 
stroke-linecap:round; stroke-linejoin:round;">
</g>
<g style="fill:#37CBCB; fill-opacity:1.0000; 
stroke:#37CBCB; stroke-width:0.0000; stroke-opacity:1; 
stroke-linecap:round; stroke-linejoin:round;">
<path style="fill:#37CBCB; fill-opacity:1.0000; 
stroke:#37CBCB; stroke-width:0.0000; stroke-opacity:1; 
stroke-linecap:round; stroke-linejoin:round;fill-rule:evenodd;"
d="M 1.6500,30.0482
1.6500,29.1482
2.8500,29.1482
2.8500,30.0482
Z" /> 
<path style="fill:#37CBCB; fill-opacity:1.0000; 
stroke:#37CBCB; stroke-width:0.0000; stroke-opacity:1; 
stroke-linecap:round; stroke-linejoin:round;fill-rule:evenodd;"
d="M 3.8500,30.0482
3.8500,29.1482
5.0500,29.1482
5.0500,30.0482
Z" /> 
</g>
<g >
</g>
<g style="fill:#37CBCB; fill-opacity:1.0000; 
stroke:#37CBCB; stroke-width:0.0000; stroke-opacity:1; 
stroke-linecap:round; stroke-linejoin:round;">
<circle cx="27.3500" cy="5.2182" r="2.0000" /> 
</g>
<g style="fill:#37CBCB; fill-opacity:1.0000; 
stroke:#37CBCB; stroke-width:0.0212; stroke-opacity:1; 
stroke-linecap:round; stroke-linejoin:round;">
</g>
<g style="fill:#37CBCB; fill-opacity:1.0000; 
stroke:#37CBCB; stroke-width:0.0000; stroke-opacity:1; 
stroke-linecap:round; stroke-linejoin:round;">
<circle cx="2.8700" cy="5.2182" r="2.0000" /> 
</g>
<g style="fill:#37CBCB; fill-opacity:1.0000; 
stroke:#37CBCB; stroke-width:0.0212; stroke-opacity:1; 
stroke-linecap:round; stroke-linejoin:round;">
</g>
<g style="fill:#37CBCB; fill-opacity:1.0000; 
stroke:#37CBCB; stroke-width:0.0000; stroke-opacity:1; 
stroke-linecap:round; stroke-linejoin:round;">
<path style="fill:#37CBCB; fill-opacity:1.0000; 
stroke:#37CBCB; stroke-width:0.0000; stroke-opacity:1; 
stroke-linecap:round; stroke-linejoin:round;fill-rule:evenodd;"
d="M 24.1000,20.0282
24.1000,23.0282
21.1000,23.0282
21.1000,20.0282
Z" /> 
<path style="fill:#37CBCB; fill-opacity:1.0000; 
stroke:#37CBCB; stroke-width:0.0000; stroke-opacity:1; 
stroke-linecap:round; stroke-linejoin:round;fill-rule:evenodd;"
d="M 24.1000,16.8483
24.1000,19.8483
21.1000,19.8483
21.1000,16.8483
Z" /> 
<circle cx="15.1100" cy="21.5282" r="1.5000" /> 
</g>
<g style="fill:#37CBCB; fill-opacity:1.0000; 
stroke:#37CBCB; stroke-width:0.0212; stroke-opacity:1; 
stroke-linecap:round; stroke-linejoin:round;">
</g>
<g style="fill:#37CBCB; fill-opacity:1.0000; 
stroke:#37CBCB; stroke-width:0.0000; stroke-opacity:1; 
stroke-linecap:round; stroke-linejoin:round;">
<circle cx="15.1100" cy="18.3483" r="1.5000" /> 
</g>
<g style="fill:#37CBCB; fill-opacity:1.0000; 
stroke:#37CBCB; stroke-width:0.0212; stroke-opacity:1; 
stroke-linecap:round; stroke-linejoin:round;">
</g>
<g style="fill:#37CBCB; fill-opacity:1.0000; 
stroke:#37CBCB; stroke-width:0.0000; stroke-opacity:1; 
stroke-linecap:round; stroke-linejoin:round;">
<circle cx="7.6200" cy="21.5282" r="1.5000" /> 
</g>
<g style="fill:#37CBCB; fill-opacity:1.0000; 
stroke:#37CBCB; stroke-width:0.0212; stroke-opacity:1; 
stroke-linecap:round; stroke-linejoin:round;">
</g>
<g style="fill:#37CBCB; fill-opacity:1.0000; 
stroke:#37CBCB; stroke-width:0.0000; stroke-opacity:1; 
stroke-linecap:round; stroke-linejoin:round;">
<circle cx="7.6200" cy="18.3483" r="1.5000" /> 
</g>
<g style="fill:#37CBCB; fill-opacity:1.0000; 
stroke:#37CBCB; stroke-width:0.0212; stroke-opacity:1; 
stroke-linecap:round; stroke-linejoin:round;">
</g>
<g >
</g>
<g style="fill:#37CBCB; fill-opacity:1.0000; 
stroke:#37CBCB; stroke-width:0.0212; stroke-opacity:1; 
stroke-linecap:round; stroke-linejoin:round;">
</g>
<g style="fill:#37CBCB; fill-opacity:1.0000; 
stroke:#37CBCB; stroke-width:0.0000; stroke-opacity:1; 
stroke-linecap:round; stroke-linejoin:round;">
<circle cx="2.8600" cy="57.6582" r="2.0000" /> 
</g>
<g style="fill:#37CBCB; fill-opacity:1.0000; 
stroke:#37CBCB; stroke-width:0.0212; stroke-opacity:1; 
stroke-linecap:round; stroke-linejoin:round;">
</g>
<g style="fill:#37CBCB; fill-opacity:1.0000; 
stroke:#37CBCB; stroke-width:0.0000; stroke-opacity:1; 
stroke-linecap:round; stroke-linejoin:round;">
<circle cx="27.3400" cy="57.6582" r="2.0000" /> 
</g>
<g style="fill:#37CBCB; fill-opacity:1.0000; 
stroke:#37CBCB; stroke-width:0.0212; stroke-opacity:1; 
stroke-linecap:round; stroke-linejoin:round;">
</g>
<g style="fill:#37CBCB; fill-opacity:1.0000; 
stroke:#37CBCB; stroke-width:0.0000; stroke-opacity:1; 
stroke-linecap:round; stroke-linejoin:round;">
<path style="fill:#37CBCB; fill-opacity:1.0000; 
stroke:#37CBCB; stroke-width:0.0000; stroke-opacity:1; 
stroke-linecap:round; stroke-linejoin:round;fill-rule:evenodd;"
d="M 6.1100,42.8483
6.1100,39.8483
9.1100,39.8483
9.1100,42.8483
Z" /> 
<path style="fill:#37CBCB; fill-opacity:1.0000; 
stroke:#37CBCB; stroke-width:0.0000; stroke-opacity:1; 
stroke-linecap:round; stroke-linejoin:round;fill-rule:evenodd;"
d="M 6.1100,46.0282
6.1100,43.0282
9.1100,43.0282
9.1100,46.0282
Z" /> 
<circle cx="15.1000" cy="41.3483" r="1.5000" /> 
</g>
<g style="fill:#37CBCB; fill-opacity:1.0000; 
stroke:#37CBCB; stroke-width:0.0212; stroke-opacity:1; 
stroke-linecap:round; stroke-linejoin:round;">
</g>
<g style="fill:#37CBCB; fill-opacity:1.0000; 
stroke:#37CBCB; stroke-width:0.0000; stroke-opacity:1; 
stroke-linecap:round; stroke-linejoin:round;">
<circle cx="15.1000" cy="44.5282" r="1.5000" /> 
</g>
<g style="fill:#37CBCB; fill-opacity:1.0000; 
stroke:#37CBCB; stroke-width:0.0212; stroke-opacity:1; 
stroke-linecap:round; stroke-linejoin:round;">
</g>
<g style="fill:#37CBCB; fill-opacity:1.0000; 
stroke:#37CBCB; stroke-width:0.0000; stroke-opacity:1; 
stroke-linecap:round; stroke-linejoin:round;">
<circle cx="22.5900" cy="41.3483" r="1.5000" /> 
</g>
<g style="fill:#37CBCB; fill-opacity:1.0000; 
stroke:#37CBCB; stroke-width:0.0212; stroke-opacity:1; 
stroke-linecap:round; stroke-linejoin:round;">
</g>
<g style="fill:#37CBCB; fill-opacity:1.0000; 
stroke:#37CBCB; stroke-width:0.0000; stroke-opacity:1; 
stroke-linecap:round; stroke-linejoin:round;">
<circle cx="22.5900" cy="44.5282" r="1.5000" /> 
</g>
<g style="fill:#37CBCB; fill-opacity:1.0000; 
stroke:#37CBCB; stroke-width:0.0212; stroke-opacity:1; 
stroke-linecap:round; stroke-linejoin:round;">
</g>
<g >
</g>
<g style="fill:#37CBCB; fill-opacity:1.0000; 
stroke:#37CBCB; stroke-width:0.0212; stroke-opacity:1; 
stroke-linecap:round; stroke-linejoin:round;">
</g>
<g style="fill:#37CBCB; fill-opacity:1.0000; 
stroke:#37CBCB; stroke-width:0.0000; stroke-opacity:1; 
stroke-linecap:round; stroke-linejoin:round;">
<path style="fill:#37CBCB; fill-opacity:1.0000; 
stroke:#37CBCB; stroke-width:0.0000; stroke-opacity:1; 
stroke-linecap:round; stroke-linejoin:round;fill-rule:evenodd;"
d="M 28.3500,34.1482
28.8500,34.1482
28.8500,35.3483
28.3500,35.3483
Z" /> 
<path style="fill:#37CBCB; fill-opacity:1.0000; 
stroke:#37CBCB; stroke-width:0.0000; stroke-opacity:1; 
stroke-linecap:round; stroke-linejoin:round;fill-rule:evenodd;"
d="M 27.6000,34.1482
28.1000,34.1482
28.1000,35.3483
27.6000,35.3483
Z" /> 
<path style="fill:#37CBCB; fill-opacity:1.0000; 
stroke:#37CBCB; stroke-width:0.0000; stroke-opacity:1; 
stroke-linecap:round; stroke-linejoin:round;fill-rule:evenodd;"
d="M 26.8500,34.1482
27.3500,34.1482
27.3500,35.3483
26.8500,35.3483
Z" /> 
<path style="fill:#37CBCB; fill-opacity:1.0000; 
stroke:#37CBCB; stroke-width:0.0000; stroke-opacity:1; 
stroke-linecap:round; stroke-linejoin:round;fill-rule:evenodd;"
d="M 26.1000,34.1482
26.6000,34.1482
26.6000,35.3483
26.1000,35.3483
Z" /> 
<path style="fill:#37CBCB; fill-opacity:1.0000; 
stroke:#37CBCB; stroke-width:0.0000; stroke-opacity:1; 
stroke-linecap:round; stroke-linejoin:round;fill-rule:evenodd;"
d="M 25.3500,34.1482
25.8500,34.1482
25.8500,35.3483
25.3500,35.3483
Z" /> 
<path style="fill:#37CBCB; fill-opacity:1.0000; 
stroke:#37CBCB; stroke-width:0.0000; stroke-opacity:1; 
stroke-linecap:round; stroke-linejoin:round;fill-rule:evenodd;"
d="M 24.6000,34.1482
25.1000,34.1482
25.1000,35.3483
24.6000,35.3483
Z" /> 
<path style="fill:#37CBCB; fill-opacity:1.0000; 
stroke:#37CBCB; stroke-width:0.0000; stroke-opacity:1; 
stroke-linecap:round; stroke-linejoin:round;fill-rule:evenodd;"
d="M 23.8500,34.1482
24.3500,34.1482
24.3500,35.3483
23.8500,35.3483
Z" /> 
<path style="fill:#37CBCB; fill-opacity:1.0000; 
stroke:#37CBCB; stroke-width:0.0000; stroke-opacity:1; 
stroke-linecap:round; stroke-linejoin:round;fill-rule:evenodd;"
d="M 23.1000,34.1482
23.6000,34.1482
23.6000,35.3483
23.1000,35.3483
Z" /> 
<path style="fill:#37CBCB; fill-opacity:1.0000; 
stroke:#37CBCB; stroke-width:0.0000; stroke-opacity:1; 
stroke-linecap:round; stroke-linejoin:round;fill-rule:evenodd;"
d="M 22.3500,34.1482
22.8500,34.1482
22.8500,35.3483
22.3500,35.3483
Z" /> 
<path style="fill:#37CBCB; fill-opacity:1.0000; 
stroke:#37CBCB; stroke-width:0.0000; stroke-opacity:1; 
stroke-linecap:round; stroke-linejoin:round;fill-rule:evenodd;"
d="M 21.6000,34.1482
22.1000,34.1482
22.1000,35.3483
21.6000,35.3483
Z" /> 
<path style="fill:#37CBCB; fill-opacity:1.0000; 
stroke:#37CBCB; stroke-width:0.0000; stroke-opacity:1; 
stroke-linecap:round; stroke-linejoin:round;fill-rule:evenodd;"
d="M 20.8500,34.1482
21.3500,34.1482
21.3500,35.3483
20.8500,35.3483
Z" /> 
<path style="fill:#37CBCB; fill-opacity:1.0000; 
stroke:#37CBCB; stroke-width:0.0000; stroke-opacity:1; 
stroke-linecap:round; stroke-linejoin:round;fill-rule:evenodd;"
d="M 20.1000,34.1482
20.6000,34.1482
20.6000,35.3483
20.1000,35.3483
Z" /> 
<path style="fill:#37CBCB; fill-opacity:1.0000; 
stroke:#37CBCB; stroke-width:0.0000; stroke-opacity:1; 
stroke-linecap:round; stroke-linejoin:round;fill-rule:evenodd;"
d="M 19.3500,34.1482
19.8500,34.1482
19.8500,35.3483
19.3500,35.3483
Z" /> 
<path style="fill:#37CBCB; fill-opacity:1.0000; 
stroke:#37CBCB; stroke-width:0.0000; stroke-opacity:1; 
stroke-linecap:round; stroke-linejoin:round;fill-rule:evenodd;"
d="M 18.6000,34.1482
19.1000,34.1482
19.1000,35.3483
18.6000,35.3483
Z" /> 
<path style="fill:#37CBCB; fill-opacity:1.0000; 
stroke:#37CBCB; stroke-width:0.0000; stroke-opacity:1; 
stroke-linecap:round; stroke-linejoin:round;fill-rule:evenodd;"
d="M 17.8500,34.1482
18.3500,34.1482
18.3500,35.3483
17.8500,35.3483
Z" /> 
<path style="fill:#37CBCB; fill-opacity:1.0000; 
stroke:#37CBCB; stroke-width:0.0000; stroke-opacity:1; 
stroke-linecap:round; stroke-linejoin:round;fill-rule:evenodd;"
d="M 17.1000,34.1482
17.6000,34.1482
17.6000,35.3483
17.1000,35.3483
Z" /> 
<path style="fill:#37CBCB; fill-opacity:1.0000; 
stroke:#37CBCB; stroke-width:0.0000; stroke-opacity:1; 
stroke-linecap:round; stroke-linejoin:round;fill-rule:evenodd;"
d="M 17.5000,33.3483
17.5000,33.8483
16.3000,33.8483
16.3000,33.3483
Z" /> 
<path style="fill:#37CBCB; fill-opacity:1.0000; 
stroke:#37CBCB; stroke-width:0.0000; stroke-opacity:1; 
stroke-linecap:round; stroke-linejoin:round;fill-rule:evenodd;"
d="M 17.5000,32.5983
17.5000,33.0983
16.3000,33.0983
16.3000,32.5983
Z" /> 
<path style="fill:#37CBCB; fill-opacity:1.0000; 
stroke:#37CBCB; stroke-width:0.0000; stroke-opacity:1; 
stroke-linecap:round; stroke-linejoin:round;fill-rule:evenodd;"
d="M 17.5000,31.8483
17.5000,32.3483
16.3000,32.3483
16.3000,31.8483
Z" /> 
<path style="fill:#37CBCB; fill-opacity:1.0000; 
stroke:#37CBCB; stroke-width:0.0000; stroke-opacity:1; 
stroke-linecap:round; stroke-linejoin:round;fill-rule:evenodd;"
d="M 17.5000,31.0983
17.5000,31.5983
16.3000,31.5983
16.3000,31.0983
Z" /> 
<path style="fill:#37CBCB; fill-opacity:1.0000; 
stroke:#37CBCB; stroke-width:0.0000; stroke-opacity:1; 
stroke-linecap:round; stroke-linejoin:round;fill-rule:evenodd;"
d="M 17.5000,30.3483
17.5000,30.8483
16.3000,30.8483
16.3000,30.3483
Z" /> 
<path style="fill:#37CBCB; fill-opacity:1.0000; 
stroke:#37CBCB; stroke-width:0.0000; stroke-opacity:1; 
stroke-linecap:round; stroke-linejoin:round;fill-rule:evenodd;"
d="M 17.5000,29.5983
17.5000,30.0983
16.3000,30.0983
16.3000,29.5983
Z" /> 
<path style="fill:#37CBCB; fill-opacity:1.0000; 
stroke:#37CBCB; stroke-width:0.0000; stroke-opacity:1; 
stroke-linecap:round; stroke-linejoin:round;fill-rule:evenodd;"
d="M 17.5000,28.8483
17.5000,29.3483
16.3000,29.3483
16.3000,28.8483
Z" /> 
<path style="fill:#37CBCB; fill-opacity:1.0000; 
stroke:#37CBCB; stroke-width:0.0000; stroke-opacity:1; 
stroke-linecap:round; stroke-linejoin:round;fill-rule:evenodd;"
d="M 17.5000,28.0983
17.5000,28.5983
16.3000,28.5983
16.3000,28.0983
Z" /> 
<path style="fill:#37CBCB; fill-opacity:1.0000; 
stroke:#37CBCB; stroke-width:0.0000; stroke-opacity:1; 
stroke-linecap:round; stroke-linejoin:round;fill-rule:evenodd;"
d="M 17.5000,27.3483
17.5000,27.8483
16.3000,27.8483
16.3000,27.3483
Z" /> 
<path style="fill:#37CBCB; fill-opacity:1.0000; 
stroke:#37CBCB; stroke-width:0.0000; stroke-opacity:1; 
stroke-linecap:round; stroke-linejoin:round;fill-rule:evenodd;"
d="M 17.5000,26.5983
17.5000,27.0983
16.3000,27.0983
16.3000,26.5983
Z" /> 
<path style="fill:#37CBCB; fill-opacity:1.0000; 
stroke:#37CBCB; stroke-width:0.0000; stroke-opacity:1; 
stroke-linecap:round; stroke-linejoin:round;fill-rule:evenodd;"
d="M 17.5000,25.8483
17.5000,26.3483
16.3000,26.3483
16.3000,25.8483
Z" /> 
<path style="fill:#37CBCB; fill-opacity:1.0000; 
stroke:#37CBCB; stroke-width:0.0000; stroke-opacity:1; 
stroke-linecap:round; stroke-linejoin:round;fill-rule:evenodd;"
d="M 17.1000,24.3483
17.6000,24.3483
17.6000,25.5482
17.1000,25.5482
Z" /> 
<path style="fill:#37CBCB; fill-opacity:1.0000; 
stroke:#37CBCB; stroke-width:0.0000; stroke-opacity:1; 
stroke-linecap:round; stroke-linejoin:round;fill-rule:evenodd;"
d="M 17.8500,24.3483
18.3500,24.3483
18.3500,25.5482
17.8500,25.5482
Z" /> 
<path style="fill:#37CBCB; fill-opacity:1.0000; 
stroke:#37CBCB; stroke-width:0.0000; stroke-opacity:1; 
stroke-linecap:round; stroke-linejoin:round;fill-rule:evenodd;"
d="M 18.6000,24.3483
19.1000,24.3483
19.1000,25.5482
18.6000,25.5482
Z" /> 
<path style="fill:#37CBCB; fill-opacity:1.0000; 
stroke:#37CBCB; stroke-width:0.0000; stroke-opacity:1; 
stroke-linecap:round; stroke-linejoin:round;fill-rule:evenodd;"
d="M 19.3500,24.3483
19.8500,24.3483
19.8500,25.5482
19.3500,25.5482
Z" /> 
<path style="fill:#37CBCB; fill-opacity:1.0000; 
stroke:#37CBCB; stroke-width:0.0000; stroke-opacity:1; 
stroke-linecap:round; stroke-linejoin:round;fill-rule:evenodd;"
d="M 20.1000,24.3483
20.6000,24.3483
20.6000,25.5482
20.1000,25.5482
Z" /> 
<path style="fill:#37CBCB; fill-opacity:1.0000; 
stroke:#37CBCB; stroke-width:0.0000; stroke-opacity:1; 
stroke-linecap:round; stroke-linejoin:round;fill-rule:evenodd;"
d="M 20.8500,24.3483
21.3500,24.3483
21.3500,25.5482
20.8500,25.5482
Z" /> 
<path style="fill:#37CBCB; fill-opacity:1.0000; 
stroke:#37CBCB; stroke-width:0.0000; stroke-opacity:1; 
stroke-linecap:round; stroke-linejoin:round;fill-rule:evenodd;"
d="M 21.6000,24.3483
22.1000,24.3483
22.1000,25.5482
21.6000,25.5482
Z" /> 
<path style="fill:#37CBCB; fill-opacity:1.0000; 
stroke:#37CBCB; stroke-width:0.0000; stroke-opacity:1; 
stroke-linecap:round; stroke-linejoin:round;fill-rule:evenodd;"
d="M 22.3500,24.3483
22.8500,24.3483
22.8500,25.5482
22.3500,25.5482
Z" /> 
<path style="fill:#37CBCB; fill-opacity:1.0000; 
stroke:#37CBCB; stroke-width:0.0000; stroke-opacity:1; 
stroke-linecap:round; stroke-linejoin:round;fill-rule:evenodd;"
d="M 23.1000,24.3483
23.6000,24.3483
23.6000,25.5482
23.1000,25.5482
Z" /> 
<path style="fill:#37CBCB; fill-opacity:1.0000; 
stroke:#37CBCB; stroke-width:0.0000; stroke-opacity:1; 
stroke-linecap:round; stroke-linejoin:round;fill-rule:evenodd;"
d="M 23.8500,24.3483
24.3500,24.3483
24.3500,25.5482
23.8500,25.5482
Z" /> 
<path style="fill:#37CBCB; fill-opacity:1.0000; 
stroke:#37CBCB; stroke-width:0.0000; stroke-opacity:1; 
stroke-linecap:round; stroke-linejoin:round;fill-rule:evenodd;"
d="M 24.6000,24.3483
25.1000,24.3483
25.1000,25.5482
24.6000,25.5482
Z" /> 
<path style="fill:#37CBCB; fill-opacity:1.0000; 
stroke:#37CBCB; stroke-width:0.0000; stroke-opacity:1; 
stroke-linecap:round; stroke-linejoin:round;fill-rule:evenodd;"
d="M 25.3500,24.3483
25.8500,24.3483
25.8500,25.5482
25.3500,25.5482
Z" /> 
</g>
<g >
</g>
<g style="fill:#121212; fill-opacity:1.0000; 
stroke:#121212; stroke-width:0.0000; stroke-opacity:1; 
stroke-linecap:round; stroke-linejoin:round;">
<circle cx="16.6000" cy="23.8483" r="0.3429" /> 
</g>
<g style="fill:#121212; fill-opacity:1.0000; 
stroke:#121212; stroke-width:0.0212; stroke-opacity:1; 
stroke-linecap:round; stroke-linejoin:round;">
</g>
<g style="fill:#121212; fill-opacity:1.0000; 
stroke:#121212; stroke-width:0.0000; stroke-opacity:1; 
stroke-linecap:round; stroke-linejoin:round;">
<circle cx="17.3500" cy="35.8483" r="0.3429" /> 
</g>
<g style="fill:#121212; fill-opacity:1.0000; 
stroke:#121212; stroke-width:0.0212; stroke-opacity:1; 
stroke-linecap:round; stroke-linejoin:round;">
</g>
<g style="fill:#121212; fill-opacity:1.0000; 
stroke:#121212; stroke-width:0.0000; stroke-opacity:1; 
stroke-linecap:round; stroke-linejoin:round;">
<circle cx="11.2642" cy="34.5809" r="0.3429" /> 
</g>
<g style="fill:#121212; fill-opacity:1.0000; 
stroke:#121212; stroke-width:0.0212; stroke-opacity:1; 
stroke-linecap:round; stroke-linejoin:round;">
</g>
<g style="fill:#121212; fill-opacity:1.0000; 
stroke:#121212; stroke-width:0.0000; stroke-opacity:1; 
stroke-linecap:round; stroke-linejoin:round;">
<circle cx="12.6000" cy="34.5982" r="0.3429" /> 
</g>
<g style="fill:#121212; fill-opacity:1.0000; 
stroke:#121212; stroke-width:0.0212; stroke-opacity:1; 
stroke-linecap:round; stroke-linejoin:round;">
</g>
<g style="fill:#121212; fill-opacity:1.0000; 
stroke:#121212; stroke-width:0.0000; stroke-opacity:1; 
stroke-linecap:round; stroke-linejoin:round;">
<circle cx="1.8500" cy="34.0983" r="0.3429" /> 
</g>
<g style="fill:#121212; fill-opacity:1.0000; 
stroke:#121212; stroke-width:0.0212; stroke-opacity:1; 
stroke-linecap:round; stroke-linejoin:round;">
</g>
<g >
</g>
<g style="fill:#37CBCB; fill-opacity:1.0000; 
stroke:#37CBCB; stroke-width:0.0212; stroke-opacity:1; 
stroke-linecap:round; stroke-linejoin:round;">
</g>
<g style="fill:#37CBCB; fill-opacity:1.0000; 
stroke:#37CBCB; stroke-width:0.2500; stroke-opacity:1; 
stroke-linecap:round; stroke-linejoin:round;">
</g>
<g style="fill:#37CBCB; fill-opacity:0.0; 
stroke:#37CBCB; stroke-width:0.2500; stroke-opacity:1; 
stroke-linecap:round; stroke-linejoin:round;">
<path d="M16.2571 24.1911
L16.6000 23.8483
" />
<path d="M28.6000 38.2732
L25.5250 41.3483
" />
<path d="M25.3500 23.8483
L16.6000 23.8483
" />
<path d="M16.0500 24.3982
L16.2571 24.1911
" />
<path d="M25.6000 24.0983
L25.3500 23.8483
" />
<path d="M17.3500 34.7482
L17.3500 35.8483
" />
<path d="M8.1500 26.0382
L5.1600 26.0382
" />
<path d="M16.5500 26.0983
L16.0500 25.5983
" />
<path d="M28.6000 37.3483
L28.6000 34.7482
" />
<path d="M5.1600 26.0382
L4.6000 26.5983
" />
<path d="M16.0500 25.5983
L16.0500 24.3982
" />
<path d="M7.6200 25.5083
L8.1500 26.0382
" />
<path d="M25.6000 24.9482
L25.6000 24.0983
" />
<path d="M7.6200 21.5282
L7.6200 25.5083
" />
<path d="M25.5250 41.3483
L24.7113 41.3483
" />
<path d="M16.9000 26.0983
L16.5500 26.0983
" />
<path d="M24.7113 41.3483
L22.5900 41.3483
" />
<path d="M28.6000 37.3483
L28.6000 38.2732
" />
<path d="M4.9850 32.1833
L4.9850 32.8483
" />
<path d="M4.9850 31.2932
L4.9850 31.9882
" />
<path d="M8.1500 28.5782
L7.7000 28.5782
" />
<path d="M4.9850 31.9882
L4.9850 32.8483
" />
<path d="M7.7000 28.5782
L4.9850 31.2932
" />
<path d="M2.4000 29.5983
L4.9850 32.1833
" />
<path d="M2.2500 29.5983
L2.4000 29.5983
" />
<path d="M26.6000 37.3483
L25.6000 36.3483
" />
<path d="M25.6000 36.3483
L25.6000 34.7482
" />
<path d="M24.6000 37.3483
L24.8500 37.0983
" />
<path d="M24.8500 37.0983
L24.8500 35.5983
" />
<path d="M24.8500 35.5983
L24.8500 34.7482
" />
<path d="M4.4500 28.8982
L4.4500 29.5983
" />
<path d="M8.1500 27.3082
L9.3300 27.3082
" />
<path d="M4.4500 28.1982
L4.4500 28.8982
" />
<path d="M8.1500 27.3082
L6.0400 27.3082
" />
<path d="M2.8500 26.5983
L4.4500 28.1982
" />
<path d="M6.0400 27.3082
L4.4500 28.8982
" />
<path d="M9.3300 27.3082
L15.1100 21.5282
" />
<path d="M2.1000 26.5983
L2.8500 26.5983
" />
<path d="M12.1000 34.1098
L12.1000 29.8483
" />
<path d="M11.9321 35.8803
L11.9321 34.2777
" />
<path d="M11.9500 35.8982
L11.9321 35.8803
" />
<path d="M12.1000 29.8483
L12.1000 25.8532
" />
<path d="M11.9321 34.2777
L12.1000 34.1098
" />
<path d="M16.1000 36.5983
L11.9500 36.5983
" />
<path d="M14.6150 25.4132
L16.0500 26.8483
" />
<path d="M12.1000 29.8483
L13.5500 29.8483
" />
<path d="M11.9500 36.5983
L11.9500 35.8982
" />
<path d="M12.5400 25.4132
L14.6150 25.4132
" />
<path d="M16.8500 37.3483
L16.1000 36.5983
" />
<path d="M16.0500 26.8483
L16.9000 26.8483
" />
<path d="M22.6000 37.3483
L16.8500 37.3483
" />
<path d="M12.1000 25.8532
L12.5400 25.4132
" />
<path d="M16.0500 29.8483
L16.9000 29.8483
" />
<path d="M15.8200 29.8483
L16.0500 29.8483
" />
<path d="M13.5500 31.1182
L14.5500 31.1182
" />
<path d="M14.5500 31.1182
L15.8200 29.8483
" />
<path d="M16.5500 33.5983
L15.5500 34.5983
" />
<path d="M9.8500 34.5983
L9.7500 34.5983
" />
<path d="M9.7500 34.5983
L9.7500 29.8483
" />
<path d="M9.7500 36.5983
L9.7500 35.0983
" />
<path d="M16.9000 33.5983
L16.5500 33.5983
" />
<path d="M9.8500 34.5983
L11.2469 34.5983
" />
<path d="M15.5500 34.5983
L12.6000 34.5983
" />
<path d="M9.7500 35.0983
L9.7500 34.5983
" />
<path d="M9.7500 29.8483
L8.1500 29.8483
" />
<path d="M11.2469 34.5983
L11.2642 34.5809
" />
<path d="M12.6000 34.5983
L12.6000 34.5982
" />
<path d="M13.5500 33.6582
L14.0000 33.6582
" />
<path d="M14.0000 33.6582
L16.3100 31.3483
" />
<path d="M16.3100 31.3483
L16.9000 31.3483
" />
<path d="M16.0500 30.5983
L16.9000 30.5983
" />
<path d="M14.0000 32.3882
L15.7900 30.5983
" />
<path d="M13.5500 32.3882
L14.0000 32.3882
" />
<path d="M15.7900 30.5983
L16.0500 30.5983
" />
<path d="M13.5500 28.5782
L14.5500 28.5782
" />
<path d="M14.7800 28.3483
L16.0500 28.3483
" />
<path d="M14.5500 28.5782
L14.7800 28.3483
" />
<path d="M16.0500 28.3483
L16.9000 28.3483
" />
<path d="M1.7150 32.8483
L1.7150 33.9632
" />
<path d="M1.7150 33.9632
L1.8500 34.0983
" />
</g>
<g >
</g>
</g>
<g style="fill:#000000; fill-opacity:0.0; 
stroke:#000000; stroke-width:0.2500; stroke-opacity:1; 
stroke-linecap:round; stroke-linejoin:round;">
</g>
<g style="fill:#000000; fill-opacity:1.0000; 
stroke:#000000; stroke-width:0.0000; stroke-opacity:1; 
stroke-linecap:round; stroke-linejoin:round;">
<circle cx="16.6000" cy="23.8483" r="0.1651" /> 
</g>
<g style="fill:#000000; fill-opacity:1.0000; 
stroke:#000000; stroke-width:0.0212; stroke-opacity:1; 
stroke-linecap:round; stroke-linejoin:round;">
</g>
<g style="fill:#000000; fill-opacity:1.0000; 
stroke:#000000; stroke-width:0.0000; stroke-opacity:1; 
stroke-linecap:round; stroke-linejoin:round;">
<circle cx="17.3500" cy="35.8483" r="0.1651" /> 
</g>
<g style="fill:#000000; fill-opacity:1.0000; 
stroke:#000000; stroke-width:0.0212; stroke-opacity:1; 
stroke-linecap:round; stroke-linejoin:round;">
</g>
<g style="fill:#000000; fill-opacity:1.0000; 
stroke:#000000; stroke-width:0.0000; stroke-opacity:1; 
stroke-linecap:round; stroke-linejoin:round;">
<circle cx="11.2642" cy="34.5809" r="0.1651" /> 
</g>
<g style="fill:#000000; fill-opacity:1.0000; 
stroke:#000000; stroke-width:0.0212; stroke-opacity:1; 
stroke-linecap:round; stroke-linejoin:round;">
</g>
<g style="fill:#000000; fill-opacity:1.0000; 
stroke:#000000; stroke-width:0.0000; stroke-opacity:1; 
stroke-linecap:round; stroke-linejoin:round;">
<circle cx="12.6000" cy="34.5982" r="0.1651" /> 
</g>
<g style="fill:#000000; fill-opacity:1.0000; 
stroke:#000000; stroke-width:0.0212; stroke-opacity:1; 
stroke-linecap:round; stroke-linejoin:round;">
</g>
<g style="fill:#000000; fill-opacity:1.0000; 
stroke:#000000; stroke-width:0.0000; stroke-opacity:1; 
stroke-linecap:round; stroke-linejoin:round;">
<circle cx="1.8500" cy="34.0983" r="0.1651" /> 
</g>
<g style="fill:#000000; fill-opacity:1.0000; 
stroke:#000000; stroke-width:0.0212; stroke-opacity:1; 
stroke-linecap:round; stroke-linejoin:round;">
</g>
<g style="fill:#000000; fill-opacity:1.0000; 
stroke:#000000; stroke-width:0.0000; stroke-opacity:1; 
stroke-linecap:round; stroke-linejoin:round;">
<circle cx="28.6000" cy="37.3483" r="0.4000" /> 
</g>
<g style="fill:#000000; fill-opacity:1.0000; 
stroke:#000000; stroke-width:0.0212; stroke-opacity:1; 
stroke-linecap:round; stroke-linejoin:round;">
</g>
<g style="fill:#000000; fill-opacity:1.0000; 
stroke:#000000; stroke-width:0.0000; stroke-opacity:1; 
stroke-linecap:round; stroke-linejoin:round;">
<circle cx="26.6000" cy="37.3483" r="0.4000" /> 
</g>
<g style="fill:#000000; fill-opacity:1.0000; 
stroke:#000000; stroke-width:0.0212; stroke-opacity:1; 
stroke-linecap:round; stroke-linejoin:round;">
</g>
<g style="fill:#000000; fill-opacity:1.0000; 
stroke:#000000; stroke-width:0.0000; stroke-opacity:1; 
stroke-linecap:round; stroke-linejoin:round;">
<circle cx="24.6000" cy="37.3483" r="0.4000" /> 
</g>
<g style="fill:#000000; fill-opacity:1.0000; 
stroke:#000000; stroke-width:0.0212; stroke-opacity:1; 
stroke-linecap:round; stroke-linejoin:round;">
</g>
<g style="fill:#000000; fill-opacity:1.0000; 
stroke:#000000; stroke-width:0.0000; stroke-opacity:1; 
stroke-linecap:round; stroke-linejoin:round;">
<circle cx="22.6000" cy="37.3483" r="0.4000" /> 
</g>
<g style="fill:#000000; fill-opacity:1.0000; 
stroke:#000000; stroke-width:0.0212; stroke-opacity:1; 
stroke-linecap:round; stroke-linejoin:round;">
</g>
<g style="fill:#000000; fill-opacity:1.0000; 
stroke:#000000; stroke-width:0.0000; stroke-opacity:1; 
stroke-linecap:round; stroke-linejoin:round;">
<circle cx="27.3500" cy="5.2182" r="1.5000" /> 
</g>
<g style="fill:#000000; fill-opacity:1.0000; 
stroke:#000000; stroke-width:0.0212; stroke-opacity:1; 
stroke-linecap:round; stroke-linejoin:round;">
</g>
<g style="fill:#000000; fill-opacity:1.0000; 
stroke:#000000; stroke-width:0.0000; stroke-opacity:1; 
stroke-linecap:round; stroke-linejoin:round;">
<circle cx="2.8700" cy="5.2182" r="1.5000" /> 
</g>
<g style="fill:#000000; fill-opacity:1.0000; 
stroke:#000000; stroke-width:0.0212; stroke-opacity:1; 
stroke-linecap:round; stroke-linejoin:round;">
</g>
<g style="fill:#000000; fill-opacity:1.0000; 
stroke:#000000; stroke-width:0.0000; stroke-opacity:1; 
stroke-linecap:round; stroke-linejoin:round;">
<circle cx="22.6000" cy="21.5282" r="0.8900" /> 
</g>
<g style="fill:#000000; fill-opacity:1.0000; 
stroke:#000000; stroke-width:0.0212; stroke-opacity:1; 
stroke-linecap:round; stroke-linejoin:round;">
</g>
<g style="fill:#000000; fill-opacity:1.0000; 
stroke:#000000; stroke-width:0.0000; stroke-opacity:1; 
stroke-linecap:round; stroke-linejoin:round;">
<circle cx="22.6000" cy="18.3483" r="0.8900" /> 
</g>
<g style="fill:#000000; fill-opacity:1.0000; 
stroke:#000000; stroke-width:0.0212; stroke-opacity:1; 
stroke-linecap:round; stroke-linejoin:round;">
</g>
<g style="fill:#000000; fill-opacity:1.0000; 
stroke:#000000; stroke-width:0.0000; stroke-opacity:1; 
stroke-linecap:round; stroke-linejoin:round;">
<circle cx="15.1100" cy="21.5282" r="0.8900" /> 
</g>
<g style="fill:#000000; fill-opacity:1.0000; 
stroke:#000000; stroke-width:0.0212; stroke-opacity:1; 
stroke-linecap:round; stroke-linejoin:round;">
</g>
<g style="fill:#000000; fill-opacity:1.0000; 
stroke:#000000; stroke-width:0.0000; stroke-opacity:1; 
stroke-linecap:round; stroke-linejoin:round;">
<circle cx="15.1100" cy="18.3483" r="0.8900" /> 
</g>
<g style="fill:#000000; fill-opacity:1.0000; 
stroke:#000000; stroke-width:0.0212; stroke-opacity:1; 
stroke-linecap:round; stroke-linejoin:round;">
</g>
<g style="fill:#000000; fill-opacity:1.0000; 
stroke:#000000; stroke-width:0.0000; stroke-opacity:1; 
stroke-linecap:round; stroke-linejoin:round;">
<circle cx="7.6200" cy="21.5282" r="0.8900" /> 
</g>
<g style="fill:#000000; fill-opacity:1.0000; 
stroke:#000000; stroke-width:0.0212; stroke-opacity:1; 
stroke-linecap:round; stroke-linejoin:round;">
</g>
<g style="fill:#000000; fill-opacity:1.0000; 
stroke:#000000; stroke-width:0.0000; stroke-opacity:1; 
stroke-linecap:round; stroke-linejoin:round;">
<circle cx="7.6200" cy="18.3483" r="0.8900" /> 
</g>
<g style="fill:#000000; fill-opacity:1.0000; 
stroke:#000000; stroke-width:0.0212; stroke-opacity:1; 
stroke-linecap:round; stroke-linejoin:round;">
</g>
<g style="fill:#000000; fill-opacity:1.0000; 
stroke:#000000; stroke-width:0.0000; stroke-opacity:1; 
stroke-linecap:round; stroke-linejoin:round;">
<circle cx="2.8600" cy="57.6582" r="1.5000" /> 
</g>
<g style="fill:#000000; fill-opacity:1.0000; 
stroke:#000000; stroke-width:0.0212; stroke-opacity:1; 
stroke-linecap:round; stroke-linejoin:round;">
</g>
<g style="fill:#000000; fill-opacity:1.0000; 
stroke:#000000; stroke-width:0.0000; stroke-opacity:1; 
stroke-linecap:round; stroke-linejoin:round;">
<circle cx="27.3400" cy="57.6582" r="1.5000" /> 
</g>
<g style="fill:#000000; fill-opacity:1.0000; 
stroke:#000000; stroke-width:0.0212; stroke-opacity:1; 
stroke-linecap:round; stroke-linejoin:round;">
</g>
<g style="fill:#000000; fill-opacity:1.0000; 
stroke:#000000; stroke-width:0.0000; stroke-opacity:1; 
stroke-linecap:round; stroke-linejoin:round;">
<circle cx="7.6100" cy="41.3483" r="0.8900" /> 
</g>
<g style="fill:#000000; fill-opacity:1.0000; 
stroke:#000000; stroke-width:0.0212; stroke-opacity:1; 
stroke-linecap:round; stroke-linejoin:round;">
</g>
<g style="fill:#000000; fill-opacity:1.0000; 
stroke:#000000; stroke-width:0.0000; stroke-opacity:1; 
stroke-linecap:round; stroke-linejoin:round;">
<circle cx="7.6100" cy="44.5282" r="0.8900" /> 
</g>
<g style="fill:#000000; fill-opacity:1.0000; 
stroke:#000000; stroke-width:0.0212; stroke-opacity:1; 
stroke-linecap:round; stroke-linejoin:round;">
</g>
<g style="fill:#000000; fill-opacity:1.0000; 
stroke:#000000; stroke-width:0.0000; stroke-opacity:1; 
stroke-linecap:round; stroke-linejoin:round;">
<circle cx="15.1000" cy="41.3483" r="0.8900" /> 
</g>
<g style="fill:#000000; fill-opacity:1.0000; 
stroke:#000000; stroke-width:0.0212; stroke-opacity:1; 
stroke-linecap:round; stroke-linejoin:round;">
</g>
<g style="fill:#000000; fill-opacity:1.0000; 
stroke:#000000; stroke-width:0.0000; stroke-opacity:1; 
stroke-linecap:round; stroke-linejoin:round;">
<circle cx="15.1000" cy="44.5282" r="0.8900" /> 
</g>
<g style="fill:#000000; fill-opacity:1.0000; 
stroke:#000000; stroke-width:0.0212; stroke-opacity:1; 
stroke-linecap:round; stroke-linejoin:round;">
</g>
<g style="fill:#000000; fill-opacity:1.0000; 
stroke:#000000; stroke-width:0.0000; stroke-opacity:1; 
stroke-linecap:round; stroke-linejoin:round;">
<circle cx="22.5900" cy="41.3483" r="0.8900" /> 
</g>
<g style="fill:#000000; fill-opacity:1.0000; 
stroke:#000000; stroke-width:0.0212; stroke-opacity:1; 
stroke-linecap:round; stroke-linejoin:round;">
</g>
<g style="fill:#000000; fill-opacity:1.0000; 
stroke:#000000; stroke-width:0.0000; stroke-opacity:1; 
stroke-linecap:round; stroke-linejoin:round;">
<circle cx="22.5900" cy="44.5282" r="0.8900" /> 
</g>
<g style="fill:#000000; fill-opacity:1.0000; 
stroke:#000000; stroke-width:0.0212; stroke-opacity:1; 
stroke-linecap:round; stroke-linejoin:round;">
</g>
<g style="fill:#FFFFFF; fill-opacity:1.0000; 
stroke:#FFFFFF; stroke-width:0.0212; stroke-opacity:1; 
stroke-linecap:round; stroke-linejoin:round;">
</g>
<g style="fill:#2F2D31; fill-opacity:1.0000; 
stroke:#2F2D31; stroke-width:0.0212; stroke-opacity:1; 
stroke-linecap:round; stroke-linejoin:round;">
</g>
<g style="fill:#2F2D31; fill-opacity:1.0000; 
stroke:#2F2D31; stroke-width:0.2000; stroke-opacity:1; 
stroke-linecap:round; stroke-linejoin:round;">
</g>
<g style="fill:#2F2D31; fill-opacity:0.0; 
stroke:#2F2D31; stroke-width:0.2000; stroke-opacity:1; 
stroke-linecap:round; stroke-linejoin:round;">
<path d="M30.8500 61.0983
L0.1000 61.0983
" />
<path d="M0.1000 1.8482
L30.8500 1.8482
" />
<path d="M0.1000 61.0983
L0.1000 1.8482
" />
<path d="M30.8500 1.8482
L30.8500 61.0983
" />
<g >
</g>
<g >
</g>
<g >
</g>
<g >
</g>
<g >
</g>
<g >
</g>
<g >
</g>
<g >
</g>
<g >
</g>
<g >
</g>
<g >
</g>
<g >
</g>
</g> 
</svg>
