<?xml version="1.0" standalone="no"?>
 <!DOCTYPE svg PUBLIC "-//W3C//DTD SVG 1.1//EN" 
 "http://www.w3.org/Graphics/SVG/1.1/DTD/svg11.dtd"> 
<svg
  xmlns:svg="http://www.w3.org/2000/svg"
  xmlns="http://www.w3.org/2000/svg"
  xmlns:xlink="http://www.w3.org/1999/xlink"
  version="1.1"
  width="239.3188mm" height="105.8926mm" viewBox="0.0000 0.0000 239.3188 105.8926">
<title>SVG Image created as working-brd.svg date 2023/09/18 19:59:14 </title>
  <desc>Image generated by PCBNEW </desc>
<g style="fill:#000000; fill-opacity:1.0000;stroke:#000000; stroke-opacity:1.0000;
stroke-linecap:round; stroke-linejoin:round;"
 transform="translate(0 0) scale(1 1)">
</g>
<g style="fill:#000000; fill-opacity:0.0; 
stroke:#000000; stroke-width:0.0000; stroke-opacity:1; 
stroke-linecap:round; stroke-linejoin:round;">
</g>
<g style="fill:#000000; fill-opacity:1.0000; 
stroke:#000000; stroke-width:0.0212; stroke-opacity:1; 
stroke-linecap:round; stroke-linejoin:round;">
<rect x="-5.000000" y="-5.000000" width="249.325000" height="115.900000" rx="0.000000" />
</g>
<g style="fill:#FFFFFF; fill-opacity:1.0000; 
stroke:#FFFFFF; stroke-width:0.0212; stroke-opacity:1; 
stroke-linecap:round; stroke-linejoin:round;">
</g>
<g style="fill:#B2803A; fill-opacity:1.0000; 
stroke:#B2803A; stroke-width:0.0212; stroke-opacity:1; 
stroke-linecap:round; stroke-linejoin:round;">
</g>
<g style="fill:#B2803A; fill-opacity:1.0000; 
stroke:#B2803A; stroke-width:0.0100; stroke-opacity:1; 
stroke-linecap:round; stroke-linejoin:round;">
<path style="fill:#B2803A; fill-opacity:1.0000; 
stroke:#B2803A; stroke-width:0.0100; stroke-opacity:1; 
stroke-linecap:round; stroke-linejoin:round;fill-rule:evenodd;"
d="M 121.3000,74.5500
121.0435,74.5048
120.8179,74.3745
120.6505,74.1750
120.5614,73.9302
120.5614,73.6698
120.6505,73.4250
120.8179,73.2255
121.0435,73.0952
121.3000,73.0500
Z" /> 
<path style="fill:#B2803A; fill-opacity:1.0000; 
stroke:#B2803A; stroke-width:0.0100; stroke-opacity:1; 
stroke-linecap:round; stroke-linejoin:round;fill-rule:evenodd;"
d="M 121.7565,73.0952
121.9821,73.2255
122.1495,73.4250
122.2386,73.6698
122.2386,73.9302
122.1495,74.1750
121.9821,74.3745
121.7565,74.5048
121.5000,74.5500
121.5000,73.0500
Z" /> 
<g >
</g>
<g style="fill:#B2803A; fill-opacity:1.0000; 
stroke:#B2803A; stroke-width:0.0000; stroke-opacity:1; 
stroke-linecap:round; stroke-linejoin:round;">
<circle cx="120.9500" cy="73.8000" r="0.2000" /> 
</g>
<g style="fill:#B2803A; fill-opacity:1.0000; 
stroke:#B2803A; stroke-width:0.0212; stroke-opacity:1; 
stroke-linecap:round; stroke-linejoin:round;">
</g>
<g style="fill:#B2803A; fill-opacity:1.0000; 
stroke:#B2803A; stroke-width:0.0000; stroke-opacity:1; 
stroke-linecap:round; stroke-linejoin:round;">
<circle cx="121.8500" cy="73.8000" r="0.2000" /> 
</g>
<g style="fill:#B2803A; fill-opacity:1.0000; 
stroke:#B2803A; stroke-width:0.0212; stroke-opacity:1; 
stroke-linecap:round; stroke-linejoin:round;">
</g>
<g >
</g>
<g style="fill:#121212; fill-opacity:1.0000; 
stroke:#121212; stroke-width:0.0212; stroke-opacity:1; 
stroke-linecap:round; stroke-linejoin:round;">
</g>
<g style="fill:#121212; fill-opacity:1.0000; 
stroke:#121212; stroke-width:0.0000; stroke-opacity:1; 
stroke-linecap:round; stroke-linejoin:round;">
<circle cx="92.1750" cy="73.8500" r="0.4000" /> 
</g>
<g style="fill:#121212; fill-opacity:1.0000; 
stroke:#121212; stroke-width:0.0212; stroke-opacity:1; 
stroke-linecap:round; stroke-linejoin:round;">
</g>
<g >
</g>
<g >
</g>
<g style="fill:#B2803A; fill-opacity:1.0000; 
stroke:#B2803A; stroke-width:0.0212; stroke-opacity:1; 
stroke-linecap:round; stroke-linejoin:round;">
<g >
</g>
<g style="fill:#B2803A; fill-opacity:1.0000; 
stroke:#B2803A; stroke-width:0.0000; stroke-opacity:1; 
stroke-linecap:round; stroke-linejoin:round;">
<path style="fill:#B2803A; fill-opacity:1.0000; 
stroke:#B2803A; stroke-width:0.0000; stroke-opacity:1; 
stroke-linecap:round; stroke-linejoin:round;fill-rule:evenodd;"
d="M 34.3939,7.8881
34.7323,7.9047
34.7385,7.9053
35.0721,7.9548
35.0781,7.9560
35.4052,8.0380
35.4111,8.0397
35.5106,8.0753
35.7287,8.1534
35.7344,8.1557
36.0392,8.2999
36.0447,8.3028
36.2300,8.4139
36.3339,8.4762
36.3340,8.4762
36.3391,8.4796
36.4964,8.5963
36.6100,8.6805
36.6147,8.6844
36.8658,8.9120
36.8680,8.9141
38.2063,10.2524
39.4671,11.5132
39.4671,11.5132
39.4848,11.5309
39.4848,11.5309
39.4945,11.5406
39.4945,11.5406
39.5314,11.5775
39.5314,11.5775
39.6553,11.7014
39.6702,11.7163
39.6702,11.7163
39.9709,11.9687
39.9709,11.9687
39.9709,11.9687
40.1084,12.0650
40.2925,12.1939
40.2925,12.1939
40.2925,12.1939
40.4600,12.2907
40.6324,12.3903
40.8598,12.4964
40.9882,12.5563
41.3570,12.6908
41.7362,12.7926
41.7608,12.7969
42.1228,12.8610
42.1228,12.8610
42.3882,12.8844
42.5139,12.8955
42.7062,12.8956
175.7805,13.0004
175.7805,13.0004
175.8056,13.0004
175.8056,13.0004
175.8715,13.0005
175.8715,13.0005
175.8777,13.0005
175.9073,13.0005
175.9073,13.0005
175.9131,13.0005
175.9131,13.0005
175.9237,13.0005
175.9237,13.0005
176.0681,13.0006
176.4601,12.9666
176.8475,12.8986
176.8475,12.8986
176.8475,12.8986
177.0418,12.8466
177.2275,12.7969
177.5973,12.6626
177.5973,12.6626
177.5973,12.6626
177.9539,12.4964
178.1619,12.3764
178.2946,12.2998
178.6169,12.0742
178.9182,11.8214
179.0306,11.7090
179.0307,11.7090
179.6543,11.0854
180.3321,10.4076
183.9165,10.4076
183.9193,10.4427
183.9363,10.6587
183.9951,10.9037
184.0418,11.0164
184.0915,11.1365
184.1945,11.3045
184.2231,11.3513
184.2231,11.3513
184.3867,11.5428
184.5724,11.7014
184.5783,11.7064
184.7931,11.8381
185.0259,11.9345
185.2708,11.9933
185.5220,12.0130
185.7731,11.9933
186.0181,11.9345
186.2508,11.8381
186.4656,11.7064
186.6572,11.5428
186.8208,11.3513
186.9524,11.1365
187.0488,10.9037
187.1077,10.6587
187.1274,10.4076
187.1077,10.1564
187.0488,9.9115
186.9524,9.6787
186.8208,9.4639
186.8208,9.4639
186.6572,9.2724
186.4656,9.1088
186.4656,9.1088
186.4656,9.1088
186.2508,8.9771
186.0987,8.9141
186.0181,8.8807
185.8505,8.8405
185.7731,8.8219
185.5220,8.8021
185.5220,8.8021
185.2708,8.8219
185.0259,8.8807
184.7931,8.9771
184.5783,9.1088
184.5783,9.1088
184.3867,9.2724
184.2231,9.4639
184.2231,9.4639
184.0915,9.6787
183.9951,9.9115
183.9778,9.9837
183.9363,10.1564
183.9165,10.4076
180.3321,10.4076
181.7055,9.0341
181.7077,9.0321
181.9588,8.8045
181.9635,8.8006
182.2344,8.5997
182.2395,8.5963
182.5288,8.4229
182.5343,8.4200
182.6294,8.3750
182.8391,8.2758
182.8448,8.2734
183.1624,8.1598
183.1683,8.1580
183.4954,8.0761
183.5014,8.0749
183.8350,8.0254
183.8412,8.0248
183.9602,8.0190
184.1797,8.0082
184.1828,8.0081
184.2470,8.0081
186.8015,8.0081
186.8659,8.0081
186.8689,8.0082
187.2073,8.0248
187.2135,8.0254
187.4756,8.0643
187.5471,8.0749
187.5531,8.0761
187.8802,8.1580
187.8862,8.1598
188.2037,8.2734
188.2094,8.2758
188.5143,8.4200
188.5197,8.4229
188.8090,8.5963
188.8141,8.5997
189.0850,8.8006
189.0898,8.8045
189.3408,9.0320
189.3430,9.0342
190.0173,9.7084
192.0331,11.7243
192.0335,11.7246
192.1215,11.8126
192.1451,11.8363
192.4459,12.0887
192.5985,12.1956
192.7675,12.3139
192.7675,12.3139
192.7675,12.3139
193.1074,12.5103
193.4632,12.6764
193.4632,12.6764
193.4632,12.6764
193.8321,12.8108
193.8321,12.8108
194.0596,12.8719
194.2113,12.9126
194.5979,12.9810
194.5979,12.9810
194.7999,12.9988
194.9890,13.0155
195.1853,13.0156
195.2512,13.0157
195.2512,13.0157
195.2699,13.0157
195.2699,13.0157
204.4081,13.0225
204.4326,13.0250
204.4722,13.0329
204.5176,13.0517
204.5406,13.0671
204.5753,13.1018
204.5907,13.1249
204.6095,13.1703
204.6174,13.2101
204.6198,13.2347
204.6198,13.2966
204.6198,13.2967
204.6198,31.9603
204.6198,31.9611
204.6198,32.0170
204.6494,32.2036
204.7078,32.3834
204.7936,32.5517
204.7936,32.5517
204.9046,32.7046
205.0382,32.8382
205.1687,32.9331
205.1911,32.9493
205.3595,33.0351
205.5392,33.0935
205.7258,33.1231
205.7814,33.1231
205.7814,33.1231
209.1294,33.1231
209.1854,33.1231
209.2051,33.1246
209.2116,33.1256
209.2373,33.1297
209.2747,33.1419
209.2948,33.1521
209.3267,33.1753
209.3426,33.1912
209.3658,33.2231
209.3760,33.2431
209.3882,33.2806
209.3933,33.3126
209.3948,33.3323
209.3948,51.0103
209.3948,51.0110
209.3948,51.0670
209.4244,51.2537
209.4828,51.4334
209.4828,51.4334
209.5686,51.6017
209.5686,51.6017
209.5686,51.6018
209.6714,51.7433
209.6796,51.7546
209.8132,51.8882
209.9661,51.9993
210.1345,52.0851
210.3142,52.1435
210.3142,52.1435
210.3142,52.1435
210.3142,52.1435
210.3724,52.1527
210.5008,52.1731
210.5953,52.1731
213.9354,52.1731
213.9551,52.1746
213.9873,52.1797
214.0247,52.1919
214.0448,52.2021
214.0767,52.2253
214.0926,52.2412
214.1158,52.2731
214.1260,52.2931
214.1382,52.3306
214.1418,52.3532
214.1433,52.3626
214.1448,52.3823
214.1448,70.0603
214.1448,70.0610
214.1448,70.1170
214.1744,70.3036
214.2044,70.3960
214.2328,70.4834
214.3186,70.6517
214.3186,70.6517
214.3186,70.6518
214.4218,70.7938
214.4296,70.8046
214.5632,70.9382
214.7161,71.0493
214.8845,71.1351
215.0642,71.1935
215.0642,71.1935
215.0642,71.1935
215.0642,71.1935
215.1224,71.2027
215.2508,71.2231
215.3453,71.2231
218.7353,71.2231
218.7550,71.2246
218.7686,71.2268
218.7872,71.2297
218.8247,71.2419
218.8447,71.2521
218.8766,71.2753
218.8926,71.2913
218.9157,71.3232
218.9259,71.3432
218.9381,71.3807
218.9432,71.4130
218.9447,71.4327
218.9328,90.2327
218.9312,90.2524
218.9261,90.2846
218.9139,90.3220
218.9037,90.3421
218.8805,90.3739
218.8646,90.3898
218.8326,90.4130
218.8126,90.4232
218.7751,90.4353
218.7425,90.4405
218.7228,90.4420
218.6630,90.4420
218.6629,90.4420
209.5674,90.4367
209.5674,90.4367
209.5537,90.4367
209.5536,90.4367
209.3050,90.4366
209.3049,90.4366
209.3049,90.4366
208.9131,90.4706
208.6309,90.5203
208.5258,90.5388
208.4809,90.5508
208.1458,90.6404
208.1458,90.6404
208.1458,90.6404
207.7762,90.7748
207.4198,90.9409
207.0791,91.1375
207.0791,91.1375
207.0489,91.1587
206.7578,91.3625
206.7569,91.3631
206.6680,91.4377
206.4752,91.5995
206.4557,91.6158
206.3428,91.7287
206.3428,91.7287
206.3419,91.7296
203.7010,94.3705
203.7010,94.3705
203.6777,94.3938
203.6556,94.4158
203.6555,94.4160
203.6533,94.4181
203.4023,94.6456
203.3975,94.6496
203.1266,94.8504
203.1215,94.8539
202.8322,95.0273
202.8267,95.0302
202.5219,95.1744
202.5162,95.1767
202.1987,95.2903
202.1928,95.2921
201.8656,95.3741
201.8595,95.3753
201.5260,95.4248
201.5198,95.4254
201.2249,95.4399
201.1816,95.4420
201.1786,95.4421
198.4951,95.4421
198.4921,95.4420
198.4590,95.4404
198.1537,95.4254
198.1475,95.4248
197.8140,95.3753
197.8079,95.3741
197.4808,95.2921
197.4748,95.2903
197.1573,95.1767
197.1516,95.1744
196.8468,95.0302
196.8413,95.0272
196.5520,94.8539
196.5469,94.8504
196.2760,94.6495
196.2713,94.6456
196.0201,94.4180
196.0179,94.4159
195.9725,94.3705
195.9725,94.3705
195.9701,94.3681
195.9701,94.3681
194.6446,93.0426
198.2290,93.0426
198.2488,93.2937
198.3076,93.5387
198.4040,93.7714
198.5356,93.9862
198.5356,93.9862
198.6992,94.1778
198.8908,94.3414
198.8908,94.3414
199.1056,94.4730
199.3384,94.5694
199.5833,94.6282
199.8345,94.6480
200.0856,94.6282
200.3306,94.5694
200.5633,94.4730
200.7781,94.3414
200.9697,94.1778
201.1333,93.9862
201.2649,93.7714
201.3613,93.5387
201.4201,93.2937
201.4399,93.0426
201.4201,92.7914
201.3613,92.5464
201.2649,92.3137
201.1333,92.0989
201.1333,92.0989
200.9697,91.9073
200.7781,91.7437
200.7781,91.7437
200.7781,91.7437
200.5633,91.6121
200.5052,91.5880
200.3306,91.5157
200.1630,91.4755
200.0856,91.4569
199.8345,91.4371
199.5833,91.4569
199.3384,91.5157
199.1056,91.6121
198.8908,91.7437
198.8908,91.7437
198.6992,91.9073
198.5356,92.0989
198.5356,92.0989
198.4040,92.3137
198.3076,92.5464
198.2488,92.7914
198.2290,93.0426
194.6446,93.0426
194.0451,92.4431
193.3417,91.7397
193.3412,91.7392
193.2294,91.6275
193.0962,91.5157
192.9284,91.3749
192.6065,91.1495
192.2663,90.9530
192.0467,90.8506
191.9101,90.7869
191.9101,90.7869
191.5409,90.6525
191.5409,90.6525
191.5409,90.6525
191.5409,90.6525
191.3180,90.5928
191.1613,90.5508
190.9402,90.5117
190.7744,90.4825
190.6961,90.4756
190.3829,90.4482
190.1865,90.4482
190.1206,90.4482
190.1206,90.4482
190.1161,90.4482
190.1161,90.4482
57.0827,90.4359
57.0827,90.4359
57.0649,90.4359
57.0648,90.4359
56.8162,90.4359
56.8161,90.4359
56.8161,90.4359
56.8161,90.4359
56.4246,90.4701
56.4246,90.4701
56.4246,90.4701
56.1188,90.5240
56.0375,90.5383
55.6579,90.6400
55.4830,90.7036
55.2885,90.7744
54.9323,90.9405
54.5919,91.1370
54.5614,91.1584
54.2700,91.3625
54.2552,91.3749
53.9689,91.6151
53.9689,91.6151
53.9689,91.6151
53.9689,91.6151
53.8552,91.7288
53.8552,91.7288
53.8552,91.7288
51.2135,94.3705
51.2135,94.3705
51.1680,94.4160
51.1658,94.4181
50.9147,94.6456
50.9100,94.6496
50.6391,94.8504
50.6340,94.8539
50.3447,95.0273
50.3392,95.0302
50.1486,95.1204
50.0344,95.1744
50.0287,95.1767
49.7112,95.2903
49.7053,95.2921
49.3781,95.3741
49.3720,95.3753
49.0385,95.4248
49.0323,95.4254
48.7256,95.4404
48.6941,95.4420
48.6910,95.4421
46.0076,95.4421
46.0046,95.4420
45.9715,95.4404
45.6662,95.4254
45.6600,95.4248
45.3265,95.3753
45.3204,95.3741
44.9933,95.2921
44.9874,95.2903
44.6698,95.1767
44.6641,95.1744
44.3593,95.0302
44.3538,95.0272
44.0645,94.8539
44.0594,94.8504
43.7885,94.6495
43.7838,94.6456
43.5326,94.4180
43.5304,94.4159
43.4850,94.3705
43.4850,94.3705
43.4826,94.3681
43.4826,94.3681
42.1571,93.0426
45.7415,93.0426
45.7613,93.2937
45.8201,93.5387
45.9165,93.7714
46.0481,93.9862
46.0481,93.9862
46.2117,94.1778
46.4033,94.3414
46.4033,94.3414
46.6181,94.4730
46.8509,94.5694
47.0958,94.6282
47.3470,94.6480
47.5981,94.6282
47.8431,94.5694
48.0758,94.4730
48.2906,94.3414
48.4822,94.1778
48.6458,93.9862
48.7774,93.7714
48.8738,93.5387
48.9326,93.2937
48.9524,93.0426
48.9326,92.7914
48.8738,92.5464
48.7774,92.3137
48.6458,92.0989
48.6458,92.0989
48.4822,91.9073
48.2906,91.7437
48.2906,91.7437
48.2906,91.7437
48.0758,91.6121
48.0177,91.5880
47.8431,91.5157
47.6755,91.4755
47.5981,91.4569
47.3470,91.4371
47.3470,91.4371
47.0958,91.4569
46.8509,91.5157
46.6181,91.6121
46.4033,91.7437
46.4033,91.7437
46.2117,91.9073
46.0481,92.0989
46.0481,92.0989
45.9165,92.3137
45.8201,92.5464
45.7613,92.7914
45.7415,93.0426
42.1571,93.0426
40.9339,91.8194
40.9339,91.8194
40.9267,91.8122
40.9161,91.8016
40.9160,91.8015
40.7413,91.6268
40.7088,91.5995
40.5389,91.4569
40.4405,91.3743
40.2908,91.2695
40.1188,91.1490
39.7787,90.9526
39.7787,90.9526
39.7787,90.9526
39.5651,90.8529
39.4228,90.7865
39.0538,90.6521
39.0088,90.6400
38.6745,90.5503
38.6745,90.5503
38.6745,90.5503
38.4609,90.5126
38.2878,90.4820
38.2878,90.4820
38.2878,90.4820
37.8966,90.4476
37.8951,90.4476
37.7387,90.4475
37.7386,90.4475
28.5173,90.4425
28.5172,90.4425
28.4576,90.4424
28.4330,90.4400
28.3934,90.4321
28.3480,90.4133
28.3250,90.3979
28.2903,90.3631
28.2749,90.3401
28.2561,90.2947
28.2482,90.2553
28.2458,90.2308
28.2458,90.1771
28.2458,73.8500
91.2615,73.8500
91.2815,74.0399
91.3084,74.1227
91.3405,74.2216
91.3405,74.2216
91.4360,74.3869
91.4360,74.3870
91.5637,74.5289
91.5637,74.5289
91.7182,74.6411
91.8927,74.7188
92.0795,74.7585
92.2705,74.7585
92.4573,74.7188
92.6318,74.6411
92.7863,74.5289
92.7952,74.5189
92.9140,74.3870
92.9140,74.3869
92.9140,74.3869
93.0095,74.2216
93.0685,74.0399
93.0766,73.9631
120.0437,73.9631
120.0550,74.0175
120.0557,74.0214
120.0636,74.0764
120.0636,74.0764
120.0848,74.1227
120.0867,74.1273
120.1601,74.3291
120.1617,74.3339
120.1752,74.3830
120.1752,74.3830
120.2045,74.4302
120.2065,74.4337
120.2327,74.4826
120.2685,74.5189
120.2718,74.5226
120.2771,74.5289
120.4098,74.6870
120.4129,74.6910
120.4424,74.7324
120.4861,74.7668
120.4891,74.7694
120.5305,74.8064
120.5305,74.8064
120.5305,74.8064
120.5765,74.8283
120.5809,74.8306
120.7248,74.9137
120.7669,74.9381
120.7711,74.9407
120.8132,74.9696
120.8659,74.9870
120.8696,74.9883
120.9211,75.0089
120.9719,75.0138
120.9768,75.0145
121.0671,75.0304
121.1793,75.0501
121.1861,75.0517
121.2262,75.0635
121.2262,75.0635
121.2919,75.0635
121.3576,75.0656
121.3576,75.0656
121.3657,75.0647
121.3738,75.0635
121.3738,75.0635
121.3738,75.0635
121.3821,75.0623
121.4179,75.0623
121.4262,75.0635
121.4262,75.0635
121.4262,75.0635
121.4343,75.0647
121.4424,75.0656
121.4424,75.0656
121.5081,75.0635
121.5738,75.0635
121.6139,75.0517
121.6207,75.0501
121.8232,75.0145
121.8281,75.0138
121.8789,75.0089
121.9304,74.9883
121.9341,74.9870
121.9868,74.9696
122.0093,74.9542
122.0289,74.9407
122.0331,74.9381
122.2191,74.8306
122.2235,74.8283
122.2695,74.8064
122.3109,74.7694
122.3139,74.7668
122.3576,74.7324
122.3576,74.7324
122.3871,74.6910
122.3902,74.6870
122.5282,74.5226
122.5315,74.5189
122.5317,74.5188
122.5673,74.4826
122.5935,74.4336
122.5955,74.4302
122.6248,74.3830
122.6383,74.3339
122.6399,74.3291
122.6399,74.3291
122.7133,74.1273
122.7152,74.1227
122.7364,74.0764
122.7443,74.0214
122.7450,74.0175
122.7514,73.9866
122.7563,73.9631
122.7523,73.9123
122.7521,73.9073
122.7521,73.6927
122.7523,73.6877
122.7523,73.6877
122.7563,73.6369
122.7450,73.5825
122.7443,73.5786
122.7443,73.5786
122.7364,73.5236
122.7152,73.4773
122.7133,73.4727
122.6399,73.2709
122.6383,73.2661
122.6248,73.2170
122.6248,73.2170
122.5955,73.1698
122.5935,73.1664
122.5673,73.1174
122.5315,73.0811
122.5282,73.0774
122.3902,72.9130
122.3871,72.9090
122.3576,72.8676
122.3576,72.8676
122.3139,72.8332
122.3109,72.8306
122.2695,72.7936
122.2695,72.7936
122.2235,72.7717
122.2191,72.7694
122.0331,72.6619
122.0288,72.6593
121.9868,72.6304
121.9341,72.6131
121.9304,72.6117
121.8789,72.5911
121.8789,72.5911
121.8281,72.5862
121.8232,72.5855
121.6207,72.5499
121.6139,72.5483
121.5738,72.5365
121.5738,72.5365
121.5738,72.5365
121.5738,72.5365
121.5081,72.5365
121.4424,72.5344
121.4343,72.5353
121.4262,72.5365
121.4262,72.5365
121.4262,72.5365
121.4179,72.5377
121.3821,72.5377
121.3738,72.5365
121.3738,72.5365
121.3738,72.5365
121.3657,72.5353
121.3576,72.5344
121.3576,72.5344
121.2919,72.5365
121.2262,72.5365
121.2262,72.5365
121.2262,72.5365
121.1861,72.5483
121.1793,72.5499
120.9768,72.5855
120.9719,72.5862
120.9211,72.5911
120.9211,72.5911
120.8696,72.6117
120.8659,72.6131
120.8132,72.6303
120.7711,72.6593
120.7669,72.6619
120.5809,72.7694
120.5765,72.7717
120.5305,72.7936
120.5305,72.7936
120.5305,72.7936
120.4891,72.8306
120.4861,72.8332
120.4424,72.8676
120.4424,72.8676
120.4129,72.9090
120.4098,72.9130
120.2718,73.0774
120.2685,73.0811
120.2327,73.1174
120.2065,73.1664
120.2045,73.1698
120.1752,73.2170
120.1752,73.2170
120.1617,73.2661
120.1601,73.2709
120.0867,73.4727
120.0848,73.4773
120.0636,73.5236
120.0636,73.5236
120.0557,73.5786
120.0550,73.5825
120.0437,73.6369
120.0477,73.6877
120.0479,73.6927
120.0479,73.9073
120.0477,73.9123
120.0437,73.9631
93.0766,73.9631
93.0885,73.8500
93.0685,73.6601
93.0095,73.4784
92.9140,73.3131
92.9140,73.3131
92.9140,73.3130
92.7863,73.1711
92.6318,73.0589
92.4573,72.9812
92.2705,72.9415
92.0795,72.9415
91.8927,72.9812
91.7182,73.0589
91.5637,73.1711
91.4360,73.3130
91.4360,73.3131
91.3405,73.4784
91.3405,73.4784
91.2815,73.6601
91.2615,73.8500
28.2458,73.8500
28.2458,72.6722
28.2458,72.6722
28.2458,72.6607
28.2458,72.6498
28.2458,72.6497
28.2458,72.5911
28.2458,72.5031
28.2163,72.3164
28.1579,72.1367
28.0721,71.9683
27.9610,71.8155
27.8274,71.6819
27.7764,71.6448
27.6745,71.5708
27.5062,71.4850
27.3264,71.4266
27.1398,71.3971
27.0811,71.3971
27.0811,71.3971
27.0453,71.3971
26.9794,71.3971
26.9794,71.3971
26.9756,71.3971
26.9756,71.3971
23.7400,71.3971
23.7400,71.3971
23.6802,71.3971
23.6605,71.3955
23.6284,71.3904
23.5909,71.3782
23.5708,71.3680
23.5389,71.3449
23.5230,71.3289
23.4999,71.2971
23.4897,71.2770
23.4775,71.2395
23.4724,71.2072
23.4708,71.1875
23.4708,71.1317
23.4708,71.1317
23.4708,71.1276
23.4708,71.1275
23.4708,53.6472
23.4708,53.6472
23.4708,53.6248
23.4708,53.6247
23.4708,53.5725
23.4708,53.5725
23.4708,53.4780
23.4413,53.2914
23.3829,53.1117
23.2971,52.9433
23.1860,52.7905
23.0524,52.6569
22.8995,52.5458
22.8995,52.5458
22.8995,52.5458
22.7311,52.4600
22.7311,52.4600
22.7311,52.4600
22.5514,52.4016
22.4296,52.3823
22.3648,52.3721
22.3061,52.3721
22.3061,52.3721
22.2696,52.3721
18.9950,52.3721
18.9950,52.3721
18.9862,52.3721
18.9771,52.3721
18.9302,52.3721
18.9105,52.3705
18.8784,52.3654
18.8409,52.3532
18.8208,52.3430
18.7889,52.3199
18.7730,52.3039
18.7499,52.2721
18.7397,52.2520
18.7275,52.2145
18.7224,52.1822
18.7208,52.1625
18.7208,52.1067
18.7208,52.1067
18.7208,52.1026
18.7208,52.1025
18.7208,34.5972
18.7208,34.5972
18.7208,34.5748
18.7208,34.5747
18.7208,34.4281
18.7208,34.4280
18.6913,34.2414
18.6329,34.0617
18.5471,33.8933
18.4360,33.7405
18.3024,33.6069
18.2514,33.5698
18.1495,33.4958
17.9812,33.4100
17.8014,33.3516
17.6148,33.3221
17.5561,33.3221
17.5561,33.3221
17.5196,33.3221
14.2200,33.3221
14.2200,33.3221
14.1552,33.3221
14.1355,33.3205
14.1034,33.3154
14.0659,33.3032
14.0458,33.2930
14.0139,33.2699
13.9980,33.2539
13.9749,33.2221
13.9647,33.2020
13.9525,33.1645
13.9474,33.1322
13.9458,33.1125
13.9458,33.0567
13.9458,33.0567
13.9458,33.0526
13.9458,33.0525
13.9458,13.0830
13.9474,13.0633
13.9525,13.0311
13.9647,12.9936
13.9749,12.9736
13.9981,12.9417
14.0140,12.9258
14.0459,12.9026
14.0660,12.8924
14.1035,12.8802
14.1358,12.8751
14.1556,12.8736
14.2113,12.8736
14.2113,12.8736
14.2300,12.8736
14.2300,12.8736
23.3444,12.8805
23.3444,12.8805
23.3966,12.8805
23.3966,12.8805
23.5932,12.8806
23.5932,12.8806
23.5932,12.8806
23.9851,12.8466
24.3726,12.7785
24.3726,12.7785
24.7526,12.6769
24.7921,12.6626
24.8752,12.6324
25.1223,12.5425
25.1223,12.5425
25.1223,12.5425
25.4788,12.3764
25.8196,12.1798
25.8196,12.1798
25.8196,12.1798
26.1418,11.9542
26.4432,11.7014
26.5551,11.5895
26.5551,11.5894
27.2178,10.9268
27.8571,10.2875
31.4415,10.2875
31.4613,10.5387
31.5201,10.7836
31.5698,10.9037
31.6165,11.0164
31.7413,11.2201
31.7481,11.2312
31.7481,11.2312
31.9117,11.4227
32.1033,11.5864
32.1033,11.5864
32.3181,11.7180
32.5508,11.8144
32.7958,11.8732
33.0470,11.8930
33.2981,11.8732
33.5431,11.8144
33.7758,11.7180
33.9906,11.5864
34.1822,11.4227
34.3458,11.2312
34.4774,11.0164
34.5738,10.7836
34.6326,10.5387
34.6524,10.2875
34.6326,10.0364
34.5738,9.7914
34.4774,9.5587
34.3458,9.3439
34.2847,9.2724
34.1822,9.1523
33.9906,8.9887
33.9906,8.9887
33.9906,8.9887
33.7758,8.8571
33.6910,8.8219
33.5431,8.7606
33.3755,8.7204
33.2981,8.7018
33.0470,8.6821
32.7958,8.7018
32.5508,8.7606
32.3181,8.8571
32.1033,8.9887
32.1033,8.9887
31.9117,9.1523
31.7481,9.3439
31.7481,9.3439
31.6165,9.5587
31.5201,9.7914
31.4613,10.0364
31.4415,10.2875
27.8571,10.2875
29.2305,8.9141
29.2327,8.9120
29.4838,8.6844
29.4885,8.6805
29.7594,8.4796
29.7645,8.4762
30.0538,8.3028
30.0592,8.2999
30.3641,8.1557
30.3698,8.1534
30.6874,8.0397
30.6932,8.0380
30.8571,7.9969
31.0204,7.9560
31.0264,7.9548
31.3600,7.9053
31.3662,7.9047
31.7044,7.8881
31.7075,7.8880
31.7720,7.8880
34.3265,7.8880
34.3908,7.8880
Z" /> 
</g>
</g>
</g>
<g style="fill:#000000; fill-opacity:1.0000; 
stroke:#000000; stroke-width:0.0000; stroke-opacity:1; 
stroke-linecap:round; stroke-linejoin:round;">
<circle cx="92.1750" cy="73.8500" r="0.2000" /> 
</g>
<g style="fill:#000000; fill-opacity:1.0000; 
stroke:#000000; stroke-width:0.0212; stroke-opacity:1; 
stroke-linecap:round; stroke-linejoin:round;">
</g>
<g style="fill:#000000; fill-opacity:1.0000; 
stroke:#000000; stroke-width:0.0000; stroke-opacity:1; 
stroke-linecap:round; stroke-linejoin:round;">
<circle cx="120.9500" cy="73.8000" r="0.1500" /> 
</g>
<g style="fill:#000000; fill-opacity:1.0000; 
stroke:#000000; stroke-width:0.0212; stroke-opacity:1; 
stroke-linecap:round; stroke-linejoin:round;">
</g>
<g style="fill:#000000; fill-opacity:1.0000; 
stroke:#000000; stroke-width:0.0000; stroke-opacity:1; 
stroke-linecap:round; stroke-linejoin:round;">
<circle cx="121.8500" cy="73.8000" r="0.1500" /> 
</g>
<g style="fill:#000000; fill-opacity:1.0000; 
stroke:#000000; stroke-width:0.0212; stroke-opacity:1; 
stroke-linecap:round; stroke-linejoin:round;">
</g>
<g style="fill:#FFFFFF; fill-opacity:1.0000; 
stroke:#FFFFFF; stroke-width:0.0212; stroke-opacity:1; 
stroke-linecap:round; stroke-linejoin:round;">
</g>
<g style="fill:#37CBCB; fill-opacity:1.0000; 
stroke:#37CBCB; stroke-width:0.0212; stroke-opacity:1; 
stroke-linecap:round; stroke-linejoin:round;">
</g>
<g style="fill:#37CBCB; fill-opacity:1.0000; 
stroke:#37CBCB; stroke-width:0.0100; stroke-opacity:1; 
stroke-linecap:round; stroke-linejoin:round;">
<path style="fill:#37CBCB; fill-opacity:1.0000; 
stroke:#37CBCB; stroke-width:0.0100; stroke-opacity:1; 
stroke-linecap:round; stroke-linejoin:round;fill-rule:evenodd;"
d="M 121.3000,74.5500
121.0435,74.5048
120.8179,74.3745
120.6505,74.1750
120.5614,73.9302
120.5614,73.6698
120.6505,73.4250
120.8179,73.2255
121.0435,73.0952
121.3000,73.0500
Z" /> 
<path style="fill:#37CBCB; fill-opacity:1.0000; 
stroke:#37CBCB; stroke-width:0.0100; stroke-opacity:1; 
stroke-linecap:round; stroke-linejoin:round;fill-rule:evenodd;"
d="M 121.7565,73.0952
121.9821,73.2255
122.1495,73.4250
122.2386,73.6698
122.2386,73.9302
122.1495,74.1750
121.9821,74.3745
121.7565,74.5048
121.5000,74.5500
121.5000,73.0500
Z" /> 
<g >
</g>
<g style="fill:#37CBCB; fill-opacity:1.0000; 
stroke:#37CBCB; stroke-width:0.0000; stroke-opacity:1; 
stroke-linecap:round; stroke-linejoin:round;">
<circle cx="120.9500" cy="73.8000" r="0.2000" /> 
</g>
<g style="fill:#37CBCB; fill-opacity:1.0000; 
stroke:#37CBCB; stroke-width:0.0212; stroke-opacity:1; 
stroke-linecap:round; stroke-linejoin:round;">
</g>
<g style="fill:#37CBCB; fill-opacity:1.0000; 
stroke:#37CBCB; stroke-width:0.0000; stroke-opacity:1; 
stroke-linecap:round; stroke-linejoin:round;">
<circle cx="121.8500" cy="73.8000" r="0.2000" /> 
</g>
<g style="fill:#37CBCB; fill-opacity:1.0000; 
stroke:#37CBCB; stroke-width:0.0212; stroke-opacity:1; 
stroke-linecap:round; stroke-linejoin:round;">
</g>
<g >
</g>
<g style="fill:#121212; fill-opacity:1.0000; 
stroke:#121212; stroke-width:0.0212; stroke-opacity:1; 
stroke-linecap:round; stroke-linejoin:round;">
</g>
<g style="fill:#121212; fill-opacity:1.0000; 
stroke:#121212; stroke-width:0.0000; stroke-opacity:1; 
stroke-linecap:round; stroke-linejoin:round;">
<circle cx="92.1750" cy="73.8500" r="0.4000" /> 
</g>
<g style="fill:#121212; fill-opacity:1.0000; 
stroke:#121212; stroke-width:0.0212; stroke-opacity:1; 
stroke-linecap:round; stroke-linejoin:round;">
</g>
<g >
</g>
<g >
</g>
<g style="fill:#37CBCB; fill-opacity:1.0000; 
stroke:#37CBCB; stroke-width:0.0212; stroke-opacity:1; 
stroke-linecap:round; stroke-linejoin:round;">
<g >
</g>
<g style="fill:#37CBCB; fill-opacity:1.0000; 
stroke:#37CBCB; stroke-width:0.0000; stroke-opacity:1; 
stroke-linecap:round; stroke-linejoin:round;">
<path style="fill:#37CBCB; fill-opacity:1.0000; 
stroke:#37CBCB; stroke-width:0.0000; stroke-opacity:1; 
stroke-linecap:round; stroke-linejoin:round;fill-rule:evenodd;"
d="M 34.3939,7.8881
34.7323,7.9047
34.7385,7.9053
35.0721,7.9548
35.0781,7.9560
35.4052,8.0380
35.4111,8.0397
35.5106,8.0753
35.7287,8.1534
35.7344,8.1557
36.0392,8.2999
36.0447,8.3028
36.2300,8.4139
36.3339,8.4762
36.3340,8.4762
36.3391,8.4796
36.4964,8.5963
36.6100,8.6805
36.6147,8.6844
36.8658,8.9120
36.8680,8.9141
38.2063,10.2524
39.4671,11.5132
39.4671,11.5132
39.4848,11.5309
39.4848,11.5309
39.4945,11.5406
39.4945,11.5406
39.5314,11.5775
39.5314,11.5775
39.6553,11.7014
39.6702,11.7163
39.6702,11.7163
39.9709,11.9687
39.9709,11.9687
39.9709,11.9687
40.1084,12.0650
40.2925,12.1939
40.2925,12.1939
40.2925,12.1939
40.4600,12.2907
40.6324,12.3903
40.8598,12.4964
40.9882,12.5563
41.3570,12.6908
41.7362,12.7926
41.7608,12.7969
42.1228,12.8610
42.1228,12.8610
42.3882,12.8844
42.5139,12.8955
42.7062,12.8956
175.7805,13.0004
175.7805,13.0004
175.8056,13.0004
175.8056,13.0004
175.8715,13.0005
175.8715,13.0005
175.8777,13.0005
175.9073,13.0005
175.9073,13.0005
175.9131,13.0005
175.9131,13.0005
175.9237,13.0005
175.9237,13.0005
176.0681,13.0006
176.4601,12.9666
176.8475,12.8986
176.8475,12.8986
176.8475,12.8986
177.0418,12.8466
177.2275,12.7969
177.5973,12.6626
177.5973,12.6626
177.5973,12.6626
177.9539,12.4964
178.1619,12.3764
178.2946,12.2998
178.6169,12.0742
178.9182,11.8214
179.0306,11.7090
179.0307,11.7090
179.6543,11.0854
180.3321,10.4076
183.9165,10.4076
183.9193,10.4427
183.9363,10.6587
183.9951,10.9037
184.0418,11.0164
184.0915,11.1365
184.1945,11.3045
184.2231,11.3513
184.2231,11.3513
184.3867,11.5428
184.5724,11.7014
184.5783,11.7064
184.7931,11.8381
185.0259,11.9345
185.2708,11.9933
185.5220,12.0130
185.7731,11.9933
186.0181,11.9345
186.2508,11.8381
186.4656,11.7064
186.6572,11.5428
186.8208,11.3513
186.9524,11.1365
187.0488,10.9037
187.1077,10.6587
187.1274,10.4076
187.1077,10.1564
187.0488,9.9115
186.9524,9.6787
186.8208,9.4639
186.8208,9.4639
186.6572,9.2724
186.4656,9.1088
186.4656,9.1088
186.4656,9.1088
186.2508,8.9771
186.0987,8.9141
186.0181,8.8807
185.8505,8.8405
185.7731,8.8219
185.5220,8.8021
185.5220,8.8021
185.2708,8.8219
185.0259,8.8807
184.7931,8.9771
184.5783,9.1088
184.5783,9.1088
184.3867,9.2724
184.2231,9.4639
184.2231,9.4639
184.0915,9.6787
183.9951,9.9115
183.9778,9.9837
183.9363,10.1564
183.9165,10.4076
180.3321,10.4076
181.7055,9.0341
181.7077,9.0321
181.9588,8.8045
181.9635,8.8006
182.2344,8.5997
182.2395,8.5963
182.5288,8.4229
182.5343,8.4200
182.6294,8.3750
182.8391,8.2758
182.8448,8.2734
183.1624,8.1598
183.1683,8.1580
183.4954,8.0761
183.5014,8.0749
183.8350,8.0254
183.8412,8.0248
183.9602,8.0190
184.1797,8.0082
184.1828,8.0081
184.2470,8.0081
186.8015,8.0081
186.8659,8.0081
186.8689,8.0082
187.2073,8.0248
187.2135,8.0254
187.4756,8.0643
187.5471,8.0749
187.5531,8.0761
187.8802,8.1580
187.8862,8.1598
188.2037,8.2734
188.2094,8.2758
188.5143,8.4200
188.5197,8.4229
188.8090,8.5963
188.8141,8.5997
189.0850,8.8006
189.0898,8.8045
189.3408,9.0320
189.3430,9.0342
190.0173,9.7084
192.0331,11.7243
192.0335,11.7246
192.1215,11.8126
192.1451,11.8363
192.4459,12.0887
192.5985,12.1956
192.7675,12.3139
192.7675,12.3139
192.7675,12.3139
193.1074,12.5103
193.4632,12.6764
193.4632,12.6764
193.4632,12.6764
193.8321,12.8108
193.8321,12.8108
194.0596,12.8719
194.2113,12.9126
194.5979,12.9810
194.5979,12.9810
194.7999,12.9988
194.9890,13.0155
195.1853,13.0156
195.2512,13.0157
195.2512,13.0157
195.2699,13.0157
195.2699,13.0157
204.4081,13.0225
204.4326,13.0250
204.4722,13.0329
204.5176,13.0517
204.5406,13.0671
204.5753,13.1018
204.5907,13.1249
204.6095,13.1703
204.6174,13.2101
204.6198,13.2347
204.6198,13.2966
204.6198,13.2967
204.6198,31.9603
204.6198,31.9611
204.6198,32.0170
204.6494,32.2036
204.7078,32.3834
204.7936,32.5517
204.7936,32.5517
204.9046,32.7046
205.0382,32.8382
205.1687,32.9331
205.1911,32.9493
205.3595,33.0351
205.5392,33.0935
205.7258,33.1231
205.7814,33.1231
205.7814,33.1231
209.1294,33.1231
209.1854,33.1231
209.2051,33.1246
209.2116,33.1256
209.2373,33.1297
209.2747,33.1419
209.2948,33.1521
209.3267,33.1753
209.3426,33.1912
209.3658,33.2231
209.3760,33.2431
209.3882,33.2806
209.3933,33.3126
209.3948,33.3323
209.3948,51.0103
209.3948,51.0110
209.3948,51.0670
209.4244,51.2537
209.4828,51.4334
209.4828,51.4334
209.5686,51.6017
209.5686,51.6017
209.5686,51.6018
209.6714,51.7433
209.6796,51.7546
209.8132,51.8882
209.9661,51.9993
210.1345,52.0851
210.3142,52.1435
210.3142,52.1435
210.3142,52.1435
210.3142,52.1435
210.3724,52.1527
210.5008,52.1731
210.5953,52.1731
213.9354,52.1731
213.9551,52.1746
213.9873,52.1797
214.0247,52.1919
214.0448,52.2021
214.0767,52.2253
214.0926,52.2412
214.1158,52.2731
214.1260,52.2931
214.1382,52.3306
214.1418,52.3532
214.1433,52.3626
214.1448,52.3823
214.1448,70.0603
214.1448,70.0610
214.1448,70.1170
214.1744,70.3036
214.2044,70.3960
214.2328,70.4834
214.3186,70.6517
214.3186,70.6517
214.3186,70.6518
214.4218,70.7938
214.4296,70.8046
214.5632,70.9382
214.7161,71.0493
214.8845,71.1351
215.0642,71.1935
215.0642,71.1935
215.0642,71.1935
215.0642,71.1935
215.1224,71.2027
215.2508,71.2231
215.3453,71.2231
218.7353,71.2231
218.7550,71.2246
218.7686,71.2268
218.7872,71.2297
218.8247,71.2419
218.8447,71.2521
218.8766,71.2753
218.8926,71.2913
218.9157,71.3232
218.9259,71.3432
218.9381,71.3807
218.9432,71.4130
218.9447,71.4327
218.9328,90.2327
218.9312,90.2524
218.9261,90.2846
218.9139,90.3220
218.9037,90.3421
218.8805,90.3739
218.8646,90.3898
218.8326,90.4130
218.8126,90.4232
218.7751,90.4353
218.7425,90.4405
218.7228,90.4420
218.6630,90.4420
218.6629,90.4420
209.5674,90.4367
209.5674,90.4367
209.5537,90.4367
209.5536,90.4367
209.3050,90.4366
209.3049,90.4366
209.3049,90.4366
208.9131,90.4706
208.6309,90.5203
208.5258,90.5388
208.4809,90.5508
208.1458,90.6404
208.1458,90.6404
208.1458,90.6404
207.7762,90.7748
207.4198,90.9409
207.0791,91.1375
207.0791,91.1375
207.0489,91.1587
206.7578,91.3625
206.7569,91.3631
206.6680,91.4377
206.4752,91.5995
206.4557,91.6158
206.3428,91.7287
206.3428,91.7287
206.3419,91.7296
203.7010,94.3705
203.7010,94.3705
203.6777,94.3938
203.6556,94.4158
203.6555,94.4160
203.6533,94.4181
203.4023,94.6456
203.3975,94.6496
203.1266,94.8504
203.1215,94.8539
202.8322,95.0273
202.8267,95.0302
202.5219,95.1744
202.5162,95.1767
202.1987,95.2903
202.1928,95.2921
201.8656,95.3741
201.8595,95.3753
201.5260,95.4248
201.5198,95.4254
201.2249,95.4399
201.1816,95.4420
201.1786,95.4421
198.4951,95.4421
198.4921,95.4420
198.4590,95.4404
198.1537,95.4254
198.1475,95.4248
197.8140,95.3753
197.8079,95.3741
197.4808,95.2921
197.4748,95.2903
197.1573,95.1767
197.1516,95.1744
196.8468,95.0302
196.8413,95.0272
196.5520,94.8539
196.5469,94.8504
196.2760,94.6495
196.2713,94.6456
196.0201,94.4180
196.0179,94.4159
195.9725,94.3705
195.9725,94.3705
195.9701,94.3681
195.9701,94.3681
194.6446,93.0426
198.2290,93.0426
198.2488,93.2937
198.3076,93.5387
198.4040,93.7714
198.5356,93.9862
198.5356,93.9862
198.6992,94.1778
198.8908,94.3414
198.8908,94.3414
199.1056,94.4730
199.3384,94.5694
199.5833,94.6282
199.8345,94.6480
200.0856,94.6282
200.3306,94.5694
200.5633,94.4730
200.7781,94.3414
200.9697,94.1778
201.1333,93.9862
201.2649,93.7714
201.3613,93.5387
201.4201,93.2937
201.4399,93.0426
201.4201,92.7914
201.3613,92.5464
201.2649,92.3137
201.1333,92.0989
201.1333,92.0989
200.9697,91.9073
200.7781,91.7437
200.7781,91.7437
200.7781,91.7437
200.5633,91.6121
200.5052,91.5880
200.3306,91.5157
200.1630,91.4755
200.0856,91.4569
199.8345,91.4371
199.5833,91.4569
199.3384,91.5157
199.1056,91.6121
198.8908,91.7437
198.8908,91.7437
198.6992,91.9073
198.5356,92.0989
198.5356,92.0989
198.4040,92.3137
198.3076,92.5464
198.2488,92.7914
198.2290,93.0426
194.6446,93.0426
194.0451,92.4431
193.3417,91.7397
193.3412,91.7392
193.2294,91.6275
193.0962,91.5157
192.9284,91.3749
192.6065,91.1495
192.2663,90.9530
192.0467,90.8506
191.9101,90.7869
191.9101,90.7869
191.5409,90.6525
191.5409,90.6525
191.5409,90.6525
191.5409,90.6525
191.3180,90.5928
191.1613,90.5508
190.9402,90.5117
190.7744,90.4825
190.6961,90.4756
190.3829,90.4482
190.1865,90.4482
190.1206,90.4482
190.1206,90.4482
190.1161,90.4482
190.1161,90.4482
57.0827,90.4359
57.0827,90.4359
57.0649,90.4359
57.0648,90.4359
56.8162,90.4359
56.8161,90.4359
56.8161,90.4359
56.8161,90.4359
56.4246,90.4701
56.4246,90.4701
56.4246,90.4701
56.1188,90.5240
56.0375,90.5383
55.6579,90.6400
55.4830,90.7036
55.2885,90.7744
54.9323,90.9405
54.5919,91.1370
54.5614,91.1584
54.2700,91.3625
54.2552,91.3749
53.9689,91.6151
53.9689,91.6151
53.9689,91.6151
53.9689,91.6151
53.8552,91.7288
53.8552,91.7288
53.8552,91.7288
51.2135,94.3705
51.2135,94.3705
51.1680,94.4160
51.1658,94.4181
50.9147,94.6456
50.9100,94.6496
50.6391,94.8504
50.6340,94.8539
50.3447,95.0273
50.3392,95.0302
50.1486,95.1204
50.0344,95.1744
50.0287,95.1767
49.7112,95.2903
49.7053,95.2921
49.3781,95.3741
49.3720,95.3753
49.0385,95.4248
49.0323,95.4254
48.7256,95.4404
48.6941,95.4420
48.6910,95.4421
46.0076,95.4421
46.0046,95.4420
45.9715,95.4404
45.6662,95.4254
45.6600,95.4248
45.3265,95.3753
45.3204,95.3741
44.9933,95.2921
44.9874,95.2903
44.6698,95.1767
44.6641,95.1744
44.3593,95.0302
44.3538,95.0272
44.0645,94.8539
44.0594,94.8504
43.7885,94.6495
43.7838,94.6456
43.5326,94.4180
43.5304,94.4159
43.4850,94.3705
43.4850,94.3705
43.4826,94.3681
43.4826,94.3681
42.1571,93.0426
45.7415,93.0426
45.7613,93.2937
45.8201,93.5387
45.9165,93.7714
46.0481,93.9862
46.0481,93.9862
46.2117,94.1778
46.4033,94.3414
46.4033,94.3414
46.6181,94.4730
46.8509,94.5694
47.0958,94.6282
47.3470,94.6480
47.5981,94.6282
47.8431,94.5694
48.0758,94.4730
48.2906,94.3414
48.4822,94.1778
48.6458,93.9862
48.7774,93.7714
48.8738,93.5387
48.9326,93.2937
48.9524,93.0426
48.9326,92.7914
48.8738,92.5464
48.7774,92.3137
48.6458,92.0989
48.6458,92.0989
48.4822,91.9073
48.2906,91.7437
48.2906,91.7437
48.2906,91.7437
48.0758,91.6121
48.0177,91.5880
47.8431,91.5157
47.6755,91.4755
47.5981,91.4569
47.3470,91.4371
47.3470,91.4371
47.0958,91.4569
46.8509,91.5157
46.6181,91.6121
46.4033,91.7437
46.4033,91.7437
46.2117,91.9073
46.0481,92.0989
46.0481,92.0989
45.9165,92.3137
45.8201,92.5464
45.7613,92.7914
45.7415,93.0426
42.1571,93.0426
40.9339,91.8194
40.9339,91.8194
40.9267,91.8122
40.9161,91.8016
40.9160,91.8015
40.7413,91.6268
40.7088,91.5995
40.5389,91.4569
40.4405,91.3743
40.2908,91.2695
40.1188,91.1490
39.7787,90.9526
39.7787,90.9526
39.7787,90.9526
39.5651,90.8529
39.4228,90.7865
39.0538,90.6521
39.0088,90.6400
38.6745,90.5503
38.6745,90.5503
38.6745,90.5503
38.4609,90.5126
38.2878,90.4820
38.2878,90.4820
38.2878,90.4820
37.8966,90.4476
37.8951,90.4476
37.7387,90.4475
37.7386,90.4475
28.5173,90.4425
28.5172,90.4425
28.4576,90.4424
28.4330,90.4400
28.3934,90.4321
28.3480,90.4133
28.3250,90.3979
28.2903,90.3631
28.2749,90.3401
28.2561,90.2947
28.2482,90.2553
28.2458,90.2308
28.2458,90.1771
28.2458,73.8500
91.2615,73.8500
91.2815,74.0399
91.3084,74.1227
91.3405,74.2216
91.3405,74.2216
91.4360,74.3869
91.4360,74.3870
91.5637,74.5289
91.5637,74.5289
91.7182,74.6411
91.8927,74.7188
92.0795,74.7585
92.2705,74.7585
92.4573,74.7188
92.6318,74.6411
92.7863,74.5289
92.7952,74.5189
92.9140,74.3870
92.9140,74.3869
92.9140,74.3869
93.0095,74.2216
93.0685,74.0399
93.0766,73.9631
120.0437,73.9631
120.0550,74.0175
120.0557,74.0214
120.0636,74.0764
120.0636,74.0764
120.0848,74.1227
120.0867,74.1273
120.1601,74.3291
120.1617,74.3339
120.1752,74.3830
120.1752,74.3830
120.2045,74.4302
120.2065,74.4337
120.2327,74.4826
120.2685,74.5189
120.2718,74.5226
120.2771,74.5289
120.4098,74.6870
120.4129,74.6910
120.4424,74.7324
120.4861,74.7668
120.4891,74.7694
120.5305,74.8064
120.5305,74.8064
120.5305,74.8064
120.5765,74.8283
120.5809,74.8306
120.7248,74.9137
120.7669,74.9381
120.7711,74.9407
120.8132,74.9696
120.8659,74.9870
120.8696,74.9883
120.9211,75.0089
120.9719,75.0138
120.9768,75.0145
121.0671,75.0304
121.1793,75.0501
121.1861,75.0517
121.2262,75.0635
121.2262,75.0635
121.2919,75.0635
121.3576,75.0656
121.3576,75.0656
121.3657,75.0647
121.3738,75.0635
121.3738,75.0635
121.3738,75.0635
121.3821,75.0623
121.4179,75.0623
121.4262,75.0635
121.4262,75.0635
121.4262,75.0635
121.4343,75.0647
121.4424,75.0656
121.4424,75.0656
121.5081,75.0635
121.5738,75.0635
121.6139,75.0517
121.6207,75.0501
121.8232,75.0145
121.8281,75.0138
121.8789,75.0089
121.9304,74.9883
121.9341,74.9870
121.9868,74.9696
122.0093,74.9542
122.0289,74.9407
122.0331,74.9381
122.2191,74.8306
122.2235,74.8283
122.2695,74.8064
122.3109,74.7694
122.3139,74.7668
122.3576,74.7324
122.3576,74.7324
122.3871,74.6910
122.3902,74.6870
122.5282,74.5226
122.5315,74.5189
122.5317,74.5188
122.5673,74.4826
122.5935,74.4336
122.5955,74.4302
122.6248,74.3830
122.6383,74.3339
122.6399,74.3291
122.6399,74.3291
122.7133,74.1273
122.7152,74.1227
122.7364,74.0764
122.7443,74.0214
122.7450,74.0175
122.7514,73.9866
122.7563,73.9631
122.7523,73.9123
122.7521,73.9073
122.7521,73.6927
122.7523,73.6877
122.7523,73.6877
122.7563,73.6369
122.7450,73.5825
122.7443,73.5786
122.7443,73.5786
122.7364,73.5236
122.7152,73.4773
122.7133,73.4727
122.6399,73.2709
122.6383,73.2661
122.6248,73.2170
122.6248,73.2170
122.5955,73.1698
122.5935,73.1664
122.5673,73.1174
122.5315,73.0811
122.5282,73.0774
122.3902,72.9130
122.3871,72.9090
122.3576,72.8676
122.3576,72.8676
122.3139,72.8332
122.3109,72.8306
122.2695,72.7936
122.2695,72.7936
122.2235,72.7717
122.2191,72.7694
122.0331,72.6619
122.0288,72.6593
121.9868,72.6304
121.9341,72.6131
121.9304,72.6117
121.8789,72.5911
121.8789,72.5911
121.8281,72.5862
121.8232,72.5855
121.6207,72.5499
121.6139,72.5483
121.5738,72.5365
121.5738,72.5365
121.5738,72.5365
121.5738,72.5365
121.5081,72.5365
121.4424,72.5344
121.4343,72.5353
121.4262,72.5365
121.4262,72.5365
121.4262,72.5365
121.4179,72.5377
121.3821,72.5377
121.3738,72.5365
121.3738,72.5365
121.3738,72.5365
121.3657,72.5353
121.3576,72.5344
121.3576,72.5344
121.2919,72.5365
121.2262,72.5365
121.2262,72.5365
121.2262,72.5365
121.1861,72.5483
121.1793,72.5499
120.9768,72.5855
120.9719,72.5862
120.9211,72.5911
120.9211,72.5911
120.8696,72.6117
120.8659,72.6131
120.8132,72.6303
120.7711,72.6593
120.7669,72.6619
120.5809,72.7694
120.5765,72.7717
120.5305,72.7936
120.5305,72.7936
120.5305,72.7936
120.4891,72.8306
120.4861,72.8332
120.4424,72.8676
120.4424,72.8676
120.4129,72.9090
120.4098,72.9130
120.2718,73.0774
120.2685,73.0811
120.2327,73.1174
120.2065,73.1664
120.2045,73.1698
120.1752,73.2170
120.1752,73.2170
120.1617,73.2661
120.1601,73.2709
120.0867,73.4727
120.0848,73.4773
120.0636,73.5236
120.0636,73.5236
120.0557,73.5786
120.0550,73.5825
120.0437,73.6369
120.0477,73.6877
120.0479,73.6927
120.0479,73.9073
120.0477,73.9123
120.0437,73.9631
93.0766,73.9631
93.0885,73.8500
93.0685,73.6601
93.0095,73.4784
92.9140,73.3131
92.9140,73.3131
92.9140,73.3130
92.7863,73.1711
92.6318,73.0589
92.4573,72.9812
92.2705,72.9415
92.0795,72.9415
91.8927,72.9812
91.7182,73.0589
91.5637,73.1711
91.4360,73.3130
91.4360,73.3131
91.3405,73.4784
91.3405,73.4784
91.2815,73.6601
91.2615,73.8500
28.2458,73.8500
28.2458,72.6722
28.2458,72.6722
28.2458,72.6607
28.2458,72.6498
28.2458,72.6497
28.2458,72.5911
28.2458,72.5031
28.2163,72.3164
28.1579,72.1367
28.0721,71.9683
27.9610,71.8155
27.8274,71.6819
27.7764,71.6448
27.6745,71.5708
27.5062,71.4850
27.3264,71.4266
27.1398,71.3971
27.0811,71.3971
27.0811,71.3971
27.0453,71.3971
26.9794,71.3971
26.9794,71.3971
26.9756,71.3971
26.9756,71.3971
23.7400,71.3971
23.7400,71.3971
23.6802,71.3971
23.6605,71.3955
23.6284,71.3904
23.5909,71.3782
23.5708,71.3680
23.5389,71.3449
23.5230,71.3289
23.4999,71.2971
23.4897,71.2770
23.4775,71.2395
23.4724,71.2072
23.4708,71.1875
23.4708,71.1317
23.4708,71.1317
23.4708,71.1276
23.4708,71.1275
23.4708,53.6472
23.4708,53.6472
23.4708,53.6248
23.4708,53.6247
23.4708,53.5725
23.4708,53.5725
23.4708,53.4780
23.4413,53.2914
23.3829,53.1117
23.2971,52.9433
23.1860,52.7905
23.0524,52.6569
22.8995,52.5458
22.8995,52.5458
22.8995,52.5458
22.7311,52.4600
22.7311,52.4600
22.7311,52.4600
22.5514,52.4016
22.4296,52.3823
22.3648,52.3721
22.3061,52.3721
22.3061,52.3721
22.2696,52.3721
18.9950,52.3721
18.9950,52.3721
18.9862,52.3721
18.9771,52.3721
18.9302,52.3721
18.9105,52.3705
18.8784,52.3654
18.8409,52.3532
18.8208,52.3430
18.7889,52.3199
18.7730,52.3039
18.7499,52.2721
18.7397,52.2520
18.7275,52.2145
18.7224,52.1822
18.7208,52.1625
18.7208,52.1067
18.7208,52.1067
18.7208,52.1026
18.7208,52.1025
18.7208,34.5972
18.7208,34.5972
18.7208,34.5748
18.7208,34.5747
18.7208,34.4281
18.7208,34.4280
18.6913,34.2414
18.6329,34.0617
18.5471,33.8933
18.4360,33.7405
18.3024,33.6069
18.2514,33.5698
18.1495,33.4958
17.9812,33.4100
17.8014,33.3516
17.6148,33.3221
17.5561,33.3221
17.5561,33.3221
17.5196,33.3221
14.2200,33.3221
14.2200,33.3221
14.1552,33.3221
14.1355,33.3205
14.1034,33.3154
14.0659,33.3032
14.0458,33.2930
14.0139,33.2699
13.9980,33.2539
13.9749,33.2221
13.9647,33.2020
13.9525,33.1645
13.9474,33.1322
13.9458,33.1125
13.9458,33.0567
13.9458,33.0567
13.9458,33.0526
13.9458,33.0525
13.9458,13.0830
13.9474,13.0633
13.9525,13.0311
13.9647,12.9936
13.9749,12.9736
13.9981,12.9417
14.0140,12.9258
14.0459,12.9026
14.0660,12.8924
14.1035,12.8802
14.1358,12.8751
14.1556,12.8736
14.2113,12.8736
14.2113,12.8736
14.2300,12.8736
14.2300,12.8736
23.3444,12.8805
23.3444,12.8805
23.3966,12.8805
23.3966,12.8805
23.5932,12.8806
23.5932,12.8806
23.5932,12.8806
23.9851,12.8466
24.3726,12.7785
24.3726,12.7785
24.7526,12.6769
24.7921,12.6626
24.8752,12.6324
25.1223,12.5425
25.1223,12.5425
25.1223,12.5425
25.4788,12.3764
25.8196,12.1798
25.8196,12.1798
25.8196,12.1798
26.1418,11.9542
26.4432,11.7014
26.5551,11.5895
26.5551,11.5894
27.2178,10.9268
27.8571,10.2875
31.4415,10.2875
31.4613,10.5387
31.5201,10.7836
31.5698,10.9037
31.6165,11.0164
31.7413,11.2201
31.7481,11.2312
31.7481,11.2312
31.9117,11.4227
32.1033,11.5864
32.1033,11.5864
32.3181,11.7180
32.5508,11.8144
32.7958,11.8732
33.0470,11.8930
33.2981,11.8732
33.5431,11.8144
33.7758,11.7180
33.9906,11.5864
34.1822,11.4227
34.3458,11.2312
34.4774,11.0164
34.5738,10.7836
34.6326,10.5387
34.6524,10.2875
34.6326,10.0364
34.5738,9.7914
34.4774,9.5587
34.3458,9.3439
34.2847,9.2724
34.1822,9.1523
33.9906,8.9887
33.9906,8.9887
33.9906,8.9887
33.7758,8.8571
33.6910,8.8219
33.5431,8.7606
33.3755,8.7204
33.2981,8.7018
33.0470,8.6821
32.7958,8.7018
32.5508,8.7606
32.3181,8.8571
32.1033,8.9887
32.1033,8.9887
31.9117,9.1523
31.7481,9.3439
31.7481,9.3439
31.6165,9.5587
31.5201,9.7914
31.4613,10.0364
31.4415,10.2875
27.8571,10.2875
29.2305,8.9141
29.2327,8.9120
29.4838,8.6844
29.4885,8.6805
29.7594,8.4796
29.7645,8.4762
30.0538,8.3028
30.0592,8.2999
30.3641,8.1557
30.3698,8.1534
30.6874,8.0397
30.6932,8.0380
30.8571,7.9969
31.0204,7.9560
31.0264,7.9548
31.3600,7.9053
31.3662,7.9047
31.7044,7.8881
31.7075,7.8880
31.7720,7.8880
34.3265,7.8880
34.3908,7.8880
Z" /> 
</g>
</g>
</g>
<g style="fill:#000000; fill-opacity:1.0000; 
stroke:#000000; stroke-width:0.0000; stroke-opacity:1; 
stroke-linecap:round; stroke-linejoin:round;">
<circle cx="92.1750" cy="73.8500" r="0.2000" /> 
</g>
<g style="fill:#000000; fill-opacity:1.0000; 
stroke:#000000; stroke-width:0.0212; stroke-opacity:1; 
stroke-linecap:round; stroke-linejoin:round;">
</g>
<g style="fill:#000000; fill-opacity:1.0000; 
stroke:#000000; stroke-width:0.0000; stroke-opacity:1; 
stroke-linecap:round; stroke-linejoin:round;">
<circle cx="120.9500" cy="73.8000" r="0.1500" /> 
</g>
<g style="fill:#000000; fill-opacity:1.0000; 
stroke:#000000; stroke-width:0.0212; stroke-opacity:1; 
stroke-linecap:round; stroke-linejoin:round;">
</g>
<g style="fill:#000000; fill-opacity:1.0000; 
stroke:#000000; stroke-width:0.0000; stroke-opacity:1; 
stroke-linecap:round; stroke-linejoin:round;">
<circle cx="121.8500" cy="73.8000" r="0.1500" /> 
</g>
<g style="fill:#000000; fill-opacity:1.0000; 
stroke:#000000; stroke-width:0.0212; stroke-opacity:1; 
stroke-linecap:round; stroke-linejoin:round;">
</g>
<g style="fill:#FFFFFF; fill-opacity:1.0000; 
stroke:#FFFFFF; stroke-width:0.0212; stroke-opacity:1; 
stroke-linecap:round; stroke-linejoin:round;">
<g >
</g>
<g >
</g>
<g >
</g>
<g >
</g>
</g>
<g style="fill:#FFFFFF; fill-opacity:1.0000; 
stroke:#FFFFFF; stroke-width:0.0212; stroke-opacity:1; 
stroke-linecap:round; stroke-linejoin:round;">
</g>
<g style="fill:#2F2D31; fill-opacity:1.0000; 
stroke:#2F2D31; stroke-width:0.0212; stroke-opacity:1; 
stroke-linecap:round; stroke-linejoin:round;">
</g>
<g style="fill:#2F2D31; fill-opacity:0.0; 
stroke:#2F2D31; stroke-width:0.2000; stroke-opacity:1; 
stroke-linecap:round; stroke-linejoin:round;">
<path d="M48.6924 95.9426 A4.0000 4.0000 0.0 0 0 51.5208 94.7710" />
<path d="M219.4452 71.4230
L219.4333 90.2430
" />
<path d="M18.2203 34.5226 A0.7000 0.7000 0.0 0 0 17.5203 33.8226" />
<path d="M218.7329 90.9425
L209.5013 90.9372
" />
<path d="M210.5953 51.6726
L213.9453 51.6726
" />
<path d="M18.2203 52.1726
L18.2203 34.5226
" />
<path d="M184.1811 7.5076
L186.8674 7.5076
" />
<path d="M17.5203 33.8226
L14.1453 33.8226
" />
<path d="M175.8719 12.5000 A4.0000 4.0000 0.0 0 0 178.7034 11.3284" />
<path d="M31.7061 7.3875 A4.0000 4.0000 0.0 0 0 28.8777 8.5591" />
<path d="M190.1864 90.9487
L57.0126 90.9364
" />
<path d="M57.0126 90.9364 A4.0000 4.0000 0.0 0 0 54.1838 92.1080" />
<path d="M209.8953 50.9726 A0.7000 0.7000 0.0 0 0 210.5953 51.6726" />
<circle cx="33.0470" cy="10.2875" r="1.1000" /> 
<path d="M205.1203 13.2220
L205.1203 31.9226
" />
<path d="M189.6958 8.6792 A4.0000 4.0000 0.0 0 0 186.8674 7.5076" />
<path d="M205.8203 32.6226
L209.1953 32.6226
" />
<path d="M209.5013 90.9372 A4.0000 4.0000 0.0 0 0 206.6705 92.1088" />
<path d="M54.1838 92.1080
L51.5208 94.7710
" />
<path d="M201.1799 95.9426
L198.4936 95.9426
" />
<path d="M206.6705 92.1088
L204.0083 94.7710
" />
<path d="M18.2203 52.1726 A0.7000 0.7000 0.0 0 0 18.9203 52.8726" />
<path d="M23.3969 12.3800 A4.0000 4.0000 0.0 0 0 26.2283 11.2084" />
<path d="M14.1458 12.3731
L23.3969 12.3800
" />
<path d="M37.2208 8.5591 A4.0000 4.0000 0.0 0 0 34.3924 7.3875" />
<path d="M13.4453 33.1226
L13.4453 13.0731
" />
<path d="M214.6453 70.0226 A0.7000 0.7000 0.0 0 0 215.3453 70.7226" />
<path d="M31.7061 7.3875
L34.3924 7.3875
" />
<path d="M219.4452 71.4230 A0.7000 0.7000 0.0 0 0 218.7452 70.7226" />
<path d="M192.3602 11.3436 A4.0000 4.0000 0.0 0 0 195.1857 12.5151" />
<path d="M205.1203 13.2220 A0.7000 0.7000 0.0 0 0 204.4208 12.5220" />
<path d="M193.0144 92.1203 A4.0000 4.0000 0.0 0 0 190.1864 90.9487" />
<path d="M26.2283 11.2084
L28.8777 8.5591
" />
<path d="M43.1777 94.7710 A4.0000 4.0000 0.0 0 0 46.0061 95.9426" />
<path d="M184.1811 7.5076 A4.0000 4.0000 0.0 0 0 181.3527 8.6792" />
<path d="M214.6453 52.3726 A0.7000 0.7000 0.0 0 0 213.9453 51.6726" />
<path d="M201.1799 95.9426 A4.0000 4.0000 0.0 0 0 204.0083 94.7710" />
<path d="M214.6453 52.3726
L214.6453 70.0226
" />
<path d="M195.6652 94.7710 A4.0000 4.0000 0.0 0 0 198.4936 95.9426" />
<path d="M218.7329 90.9425 A0.7000 0.7000 0.0 0 0 219.4333 90.2430" />
<path d="M37.7000 90.9480
L28.4449 90.9429
" />
<path d="M195.6652 94.7710
L193.0145 92.1203
" />
<path d="M40.5262 92.1195 A4.0000 4.0000 0.0 0 0 37.7000 90.9480" />
<path d="M27.7453 72.5976 A0.7000 0.7000 0.0 0 0 27.0453 71.8976" />
<path d="M22.9703 53.5726 A0.7000 0.7000 0.0 0 0 22.2703 52.8726" />
<path d="M22.9703 71.1976 A0.7000 0.7000 0.0 0 0 23.6703 71.8976" />
<path d="M22.2703 52.8726
L18.9203 52.8726
" />
<path d="M205.1203 31.9226 A0.7000 0.7000 0.0 0 0 205.8203 32.6226" />
<path d="M215.3453 70.7226
L218.7452 70.7226
" />
<circle cx="185.5220" cy="10.4076" r="1.1000" /> 
<path d="M209.8953 33.3226
L209.8953 50.9726
" />
<path d="M13.4453 33.1226 A0.7000 0.7000 0.0 0 0 14.1453 33.8226" />
<path d="M189.6958 8.6792
L192.3602 11.3436
" />
<path d="M43.1777 94.7710
L40.5262 92.1195
" />
<path d="M27.0453 71.8976
L23.6703 71.8976
" />
<path d="M42.7106 12.3951
L175.8718 12.5000
" />
<path d="M27.7453 90.2429 A0.7000 0.7000 0.0 0 0 28.4449 90.9429" />
<path d="M14.1458 12.3731 A0.7000 0.7000 0.0 0 0 13.4453 13.0731" />
<path d="M178.7034 11.3284
L181.3527 8.6792
" />
<path d="M48.6924 95.9426
L46.0061 95.9426
" />
<path d="M209.8953 33.3226 A0.7000 0.7000 0.0 0 0 209.1953 32.6226" />
<path d="M22.9703 71.1976
L22.9703 53.5726
" />
<circle cx="47.3470" cy="93.0426" r="1.1000" /> 
<path d="M39.8853 11.2236 A4.0000 4.0000 0.0 0 0 42.7106 12.3951" />
<path d="M195.1857 12.5151
L204.4208 12.5220
" />
<path d="M27.7453 90.2429
L27.7453 72.5976
" />
<circle cx="199.8345" cy="93.0426" r="1.1000" /> 
<path d="M37.2208 8.5591
L39.8853 11.2236
" />
<g >
</g>
<g >
</g>
<g >
</g>
<g >
</g>
</g> 
</svg>
